<?xml version="1.0" ?>
<svg xmlns="http://www.w3.org/2000/svg" xmlns:ev="http://www.w3.org/2001/xml-events" xmlns:xlink="http://www.w3.org/1999/xlink" baseProfile="full" height="556px" version="1.1" viewBox="550.1260214302856 -926.6582244639044 13303.443770295638 12306.69276335503" width="600px">
	<defs/>
	<path d="M 6275.0,10327.0 C 6207.0,10295.0 6108.0,10286.0 6053.0,10307.0 C 6015.0,10321.0 6010.0,10321.0 5995.0,10306.0 C 5975.0,10286.0 5950.0,10286.0 5924.0,10305.0 C 5899.0,10324.0 5871.0,10324.0 5864.0,10305.0 C 5860.0,10297.0 5846.0,10290.0 5831.0,10290.0 C 5817.0,10290.0 5792.0,10283.0 5776.0,10275.0 C 5743.0,10258.0 5718.0,10256.0 5704.0,10269.0 C 5699.0,10275.0 5664.0,10284.0 5627.0,10290.0 C 5571.0,10299.0 5547.0,10298.0 5494.0,10284.0 C 5444.0,10272.0 5426.0,10271.0 5415.0,10280.0 C 5404.0,10289.0 5395.0,10287.0 5373.0,10272.0 C 5351.0,10256.0 5323.0,10251.0 5245.0,10247.0 C 5130.0,10241.0 5048.0,10215.0 4994.0,10168.0 C 4971.0,10147.0 4953.0,10139.0 4939.0,10143.0 C 4927.0,10146.0 4910.0,10145.0 4901.0,10140.0 C 4892.0,10135.0 4873.0,10129.0 4858.0,10125.0 C 4843.0,10122.0 4815.0,10106.0 4797.0,10090.0 C 4751.0,10050.0 4716.0,10038.0 4642.0,10038.0 C 4597.0,10038.0 4573.0,10043.0 4560.0,10055.0 C 4549.0,10065.0 4536.0,10069.0 4529.0,10064.0 C 4522.0,10060.0 4467.0,10055.0 4406.0,10053.0 C 4310.0,10051.0 4293.0,10053.0 4263.0,10071.0 C 4241.0,10085.0 4227.0,10103.0 4223.0,10122.0 C 4217.0,10150.0 4216.0,10151.0 4176.0,10145.0 C 4125.0,10136.0 4119.0,10130.0 4084.0,10050.0 C 4028.0,9922.0 3988.0,9874.0 3905.0,9838.0 C 3757.0,9773.0 3732.0,9759.0 3689.0,9718.0 C 3655.0,9685.0 3641.0,9663.0 3637.0,9633.0 C 3633.0,9611.0 3621.0,9585.0 3609.0,9574.0 C 3575.0,9543.0 3560.0,9505.0 3560.0,9449.0 C 3560.0,9414.0 3566.0,9390.0 3576.0,9378.0 C 3592.0,9361.0 3590.0,9358.0 3553.0,9317.0 C 3531.0,9293.0 3505.0,9261.0 3495.0,9246.0 C 3485.0,9231.0 3459.0,9210.0 3436.0,9198.0 C 3413.0,9187.0 3379.0,9163.0 3360.0,9144.0 C 3317.0,9104.0 3272.0,9084.0 3190.0,9071.0 C 3156.0,9065.0 3121.0,9055.0 3112.0,9048.0 C 3104.0,9041.0 3080.0,9000.0 3060.0,8957.0 C 3026.0,8883.0 3021.0,8876.0 2969.0,8852.0 C 2921.0,8828.0 2912.0,8818.0 2883.0,8760.0 C 2865.0,8723.0 2851.0,8678.0 2851.0,8657.0 C 2850.0,8604.0 2840.0,8590.0 2765.0,8530.0 C 2729.0,8501.0 2694.0,8468.0 2688.0,8456.0 C 2678.0,8437.0 2678.0,8436.0 2693.0,8449.0 C 2717.0,8468.0 2714.0,8457.0 2686.0,8416.0 C 2673.0,8396.0 2654.0,8357.0 2644.0,8329.0 C 2632.0,8296.0 2613.0,8268.0 2593.0,8253.0 C 2557.0,8226.0 2545.0,8192.0 2534.0,8093.0 C 2527.0,8026.0 2537.0,8012.0 2563.0,8050.0 C 2577.0,8070.0 2578.0,8070.0 2599.0,8035.0 C 2611.0,8015.0 2626.0,8000.0 2632.0,8002.0 C 2648.0,8008.0 2670.0,7966.0 2670.0,7931.0 C 2670.0,7915.0 2662.0,7900.0 2649.0,7892.0 C 2634.0,7882.0 2631.0,7875.0 2638.0,7868.0 C 2645.0,7861.0 2646.0,7851.0 2640.0,7840.0 C 2633.0,7827.0 2635.0,7818.0 2646.0,7809.0 C 2672.0,7788.0 2680.0,7763.0 2691.0,7680.0 C 2700.0,7602.0 2700.0,7599.0 2665.0,7506.0 C 2643.0,7448.0 2630.0,7395.0 2630.0,7365.0 C 2630.0,7308.0 2596.0,7245.0 2537.0,7195.0 C 2515.0,7176.0 2502.0,7160.0 2508.0,7160.0 C 2525.0,7160.0 2590.0,7100.0 2590.0,7084.0 C 2590.0,7077.0 2597.0,7067.0 2606.0,7062.0 C 2617.0,7056.0 2619.0,7051.0 2611.0,7046.0 C 2605.0,7042.0 2600.0,7034.0 2600.0,7029.0 C 2600.0,7023.0 2604.0,7022.0 2610.0,7025.0 C 2616.0,7028.0 2620.0,7024.0 2620.0,7016.0 C 2620.0,7008.0 2632.0,6994.0 2648.0,6986.0 C 2673.0,6972.0 2674.0,6971.0 2653.0,6970.0 C 2640.0,6970.0 2630.0,6975.0 2630.0,6980.0 C 2630.0,6986.0 2624.0,6990.0 2616.0,6990.0 C 2605.0,6990.0 2602.0,6971.0 2601.0,6908.0 C 2600.0,6827.0 2601.0,6825.0 2630.0,6805.0 C 2646.0,6794.0 2660.0,6777.0 2660.0,6768.0 C 2660.0,6734.0 2710.0,6723.0 2763.0,6745.0 C 2776.0,6751.0 2779.0,6749.0 2774.0,6736.0 C 2770.0,6725.0 2773.0,6720.0 2784.0,6720.0 C 2793.0,6720.0 2800.0,6716.0 2800.0,6710.0 C 2800.0,6705.0 2796.0,6700.0 2790.0,6700.0 C 2785.0,6700.0 2780.0,6693.0 2780.0,6684.0 C 2780.0,6675.0 2785.0,6672.0 2792.0,6676.0 C 2799.0,6680.0 2800.0,6679.0 2796.0,6672.0 C 2792.0,6666.0 2805.0,6645.0 2825.0,6624.0 C 2854.0,6594.0 2863.0,6590.0 2875.0,6600.0 C 2887.0,6610.0 2890.0,6609.0 2890.0,6591.0 C 2890.0,6579.0 2894.0,6572.0 2900.0,6575.0 C 2905.0,6578.0 2907.0,6575.0 2904.0,6567.0 C 2898.0,6550.0 2966.0,6486.0 3015.0,6463.0 C 3040.0,6451.0 3050.0,6440.0 3050.0,6423.0 C 3050.0,6410.0 3055.0,6400.0 3061.0,6400.0 C 3073.0,6400.0 3105.0,6331.0 3101.0,6312.0 C 3100.0,6304.0 3105.0,6291.0 3112.0,6283.0 C 3123.0,6269.0 3122.0,6268.0 3102.0,6274.0 C 3079.0,6282.0 3079.0,6281.0 3094.0,6252.0 C 3102.0,6236.0 3119.0,6220.0 3131.0,6217.0 C 3143.0,6214.0 3149.0,6207.0 3145.0,6200.0 C 3141.0,6193.0 3148.0,6181.0 3161.0,6173.0 L 3183.0,6157.0 L 3159.0,6147.0 C 3135.0,6137.0 3135.0,6137.0 3170.0,6126.0 C 3189.0,6119.0 3236.0,6100.0 3274.0,6082.0 C 3312.0,6064.0 3344.0,6050.0 3345.0,6050.0 C 3347.0,6050.0 3365.0,6034.0 3387.0,6014.0 C 3408.0,5994.0 3434.0,5969.0 3445.0,5959.0 C 3457.0,5949.0 3473.0,5940.0 3483.0,5940.0 C 3492.0,5940.0 3537.0,5906.0 3582.0,5863.0 C 3650.0,5801.0 3686.0,5777.0 3784.0,5729.0 L 3904.0,5672.0 L 3984.0,5701.0 C 4028.0,5718.0 4069.0,5735.0 4075.0,5739.0 C 4117.0,5773.0 4540.0,5818.0 4540.0,5789.0 C 4540.0,5786.0 4562.0,5780.0 4588.0,5777.0 C 4615.0,5774.0 4653.0,5763.0 4673.0,5754.0 C 4709.0,5737.0 4711.0,5737.0 4738.0,5756.0 C 4753.0,5767.0 4793.0,5784.0 4828.0,5793.0 C 4863.0,5803.0 4916.0,5824.0 4947.0,5840.0 C 4978.0,5857.0 5021.0,5873.0 5042.0,5876.0 C 5083.0,5883.0 5092.0,5902.0 5063.0,5919.0 C 5053.0,5925.0 5051.0,5930.0 5057.0,5930.0 C 5064.0,5930.0 5075.0,5921.0 5082.0,5910.0 C 5089.0,5899.0 5104.0,5890.0 5116.0,5890.0 C 5137.0,5890.0 5175.0,5922.0 5165.0,5932.0 C 5155.0,5941.0 5287.0,5961.0 5383.0,5964.0 C 5446.0,5966.0 5486.0,5972.0 5497.0,5981.0 C 5509.0,5991.0 5511.0,5991.0 5506.0,5983.0 C 5501.0,5973.0 5510.0,5970.0 5542.0,5970.0 C 5597.0,5970.0 5662.0,5940.0 5686.0,5905.0 C 5697.0,5890.0 5717.0,5865.0 5731.0,5849.0 C 5746.0,5834.0 5756.0,5819.0 5753.0,5817.0 C 5744.0,5807.0 5777.0,5725.0 5801.0,5699.0 C 5823.0,5675.0 5834.0,5672.0 5888.0,5671.0 C 5928.0,5671.0 5955.0,5676.0 5964.0,5685.0 C 5971.0,5693.0 5980.0,5697.0 5983.0,5694.0 C 5986.0,5691.0 5998.0,5693.0 6009.0,5700.0 C 6026.0,5709.0 6030.0,5708.0 6030.0,5695.0 C 6030.0,5678.0 6046.0,5675.0 6055.0,5690.0 C 6058.0,5696.0 6084.0,5700.0 6112.0,5700.0 C 6146.0,5700.0 6170.0,5706.0 6182.0,5717.0 C 6199.0,5732.0 6200.0,5732.0 6200.0,5717.0 C 6200.0,5706.0 6208.0,5700.0 6224.0,5700.0 C 6241.0,5700.0 6250.0,5693.0 6254.0,5675.0 C 6262.0,5645.0 6317.0,5608.0 6342.0,5616.0 C 6355.0,5620.0 6358.0,5617.0 6354.0,5605.0 C 6350.0,5596.0 6359.0,5573.0 6375.0,5550.0 C 6402.0,5512.0 6402.0,5508.0 6391.0,5453.0 C 6385.0,5422.0 6380.0,5382.0 6380.0,5363.0 C 6380.0,5344.0 6367.0,5306.0 6349.0,5275.0 C 6325.0,5233.0 6321.0,5219.0 6332.0,5215.0 C 6346.0,5209.0 6356.0,5159.0 6342.0,5161.0 C 6318.0,5165.0 6308.0,5159.0 6315.0,5143.0 C 6319.0,5133.0 6324.0,5119.0 6327.0,5112.0 C 6330.0,5105.0 6327.0,5102.0 6318.0,5105.0 C 6308.0,5109.0 6305.0,5102.0 6308.0,5072.0 C 6313.0,5024.0 6270.0,4965.0 6239.0,4975.0 C 6228.0,4979.0 6220.0,4977.0 6220.0,4970.0 C 6220.0,4948.0 6285.0,4840.0 6299.0,4840.0 C 6310.0,4840.0 6310.0,4837.0 6300.0,4825.0 C 6290.0,4813.0 6291.0,4809.0 6304.0,4804.0 C 6313.0,4801.0 6320.0,4792.0 6320.0,4785.0 C 6320.0,4766.0 6370.0,4709.0 6381.0,4716.0 C 6386.0,4719.0 6398.0,4716.0 6407.0,4711.0 C 6423.0,4702.0 6423.0,4701.0 6403.0,4700.0 C 6370.0,4700.0 6375.0,4689.0 6421.0,4655.0 C 6531.0,4574.0 6712.0,4335.0 6708.0,4277.0 C 6707.0,4265.0 6730.0,4204.0 6758.0,4143.0 C 6787.0,4081.0 6810.0,4025.0 6810.0,4019.0 C 6810.0,4013.0 6826.0,3973.0 6845.0,3930.0 C 6864.0,3887.0 6880.0,3845.0 6880.0,3837.0 C 6880.0,3828.0 6866.0,3812.0 6849.0,3800.0 C 6828.0,3784.0 6821.0,3773.0 6826.0,3761.0 C 6829.0,3752.0 6847.0,3707.0 6865.0,3660.0 C 6883.0,3613.0 6908.0,3558.0 6920.0,3537.0 C 6940.0,3503.0 6942.0,3492.0 6935.0,3422.0 C 6926.0,3328.0 6912.0,3298.0 6860.0,3265.0 C 6838.0,3251.0 6820.0,3235.0 6820.0,3230.0 C 6820.0,3225.0 6806.0,3205.0 6789.0,3185.0 C 6771.0,3165.0 6753.0,3132.0 6749.0,3112.0 C 6744.0,3092.0 6734.0,3046.0 6727.0,3010.0 C 6704.0,2902.0 6681.0,2838.0 6660.0,2818.0 C 6640.0,2799.0 6639.0,2778.0 6657.0,2705.0 C 6660.0,2689.0 6659.0,2688.0 6651.0,2700.0 C 6635.0,2723.0 6628.0,2706.0 6641.0,2674.0 C 6647.0,2657.0 6649.0,2620.0 6646.0,2585.0 C 6640.0,2532.0 6643.0,2518.0 6669.0,2463.0 C 6685.0,2429.0 6707.0,2397.0 6717.0,2391.0 C 6728.0,2386.0 6749.0,2357.0 6764.0,2328.0 C 6780.0,2299.0 6805.0,2255.0 6821.0,2230.0 C 6836.0,2205.0 6856.0,2163.0 6866.0,2135.0 C 6875.0,2108.0 6900.0,2061.0 6921.0,2031.0 C 6943.0,2001.0 6960.0,1968.0 6960.0,1958.0 C 6960.0,1948.0 6964.0,1940.0 6969.0,1940.0 C 6975.0,1940.0 6991.0,1924.0 7007.0,1904.0 C 7033.0,1869.0 7034.0,1862.0 7037.0,1733.0 C 7040.0,1624.0 7044.0,1592.0 7060.0,1561.0 C 7070.0,1540.0 7082.0,1491.0 7086.0,1454.0 C 7089.0,1416.0 7099.0,1363.0 7107.0,1335.0 C 7115.0,1308.0 7124.0,1272.0 7126.0,1256.0 C 7134.0,1200.0 7201.0,1082.0 7254.0,1030.0 C 7282.0,1003.0 7310.0,980.0 7315.0,980.0 C 7331.0,979.0 7376.0,902.0 7403.0,830.0 C 7436.0,741.0 7473.0,671.0 7525.0,594.0 C 7577.0,519.0 7597.0,458.0 7581.0,423.0 C 7575.0,410.0 7562.0,400.0 7550.0,400.0 C 7524.0,400.0 7512.0,371.0 7531.0,356.0 C 7539.0,350.0 7560.0,324.0 7577.0,299.0 C 7599.0,265.0 7605.0,248.0 7598.0,236.0 C 7586.0,215.0 7591.0,168.0 7606.0,163.0 C 7612.0,161.0 7620.0,169.0 7623.0,181.0 C 7629.0,204.0 7655.0,203.0 7655.0,180.0 C 7655.0,172.0 7669.0,163.0 7686.0,159.0 C 7703.0,156.0 7726.0,144.0 7737.0,133.0 C 7774.0,96.0 7815.0,94.0 7877.0,126.0 C 7921.0,148.0 7949.0,154.0 8011.0,157.0 C 8072.0,159.0 8097.0,164.0 8119.0,180.0 C 8143.0,198.0 8164.0,202.0 8281.0,205.0 C 8375.0,208.0 8432.0,205.0 8468.0,196.0 C 8512.0,184.0 8521.0,184.0 8531.0,196.0 C 8538.0,205.0 8562.0,210.0 8597.0,210.0 C 8643.0,210.0 8650.0,213.0 8648.0,228.0 C 8645.0,243.0 8656.0,246.0 8720.0,250.0 C 8776.0,254.0 8809.0,263.0 8850.0,284.0 C 8928.0,324.0 9033.0,402.0 9115.0,480.0 C 9154.0,516.0 9207.0,564.0 9234.0,585.0 C 9287.0,627.0 9377.0,742.0 9418.0,822.0 C 9438.0,860.0 9463.0,887.0 9518.0,928.0 C 9593.0,983.0 9629.0,1035.0 9630.0,1087.0 C 9630.0,1099.0 9639.0,1133.0 9649.0,1162.0 C 9673.0,1227.0 9682.0,1367.0 9663.0,1375.0 C 9647.0,1381.0 9647.0,1410.0 9663.0,1431.0 C 9685.0,1459.0 9726.0,1480.0 9831.0,1515.0 C 9887.0,1534.0 9950.0,1561.0 9970.0,1574.0 C 10010.0,1600.0 10054.0,1680.0 10032.0,1688.0 C 10016.0,1693.0 10017.0,1725.0 10035.0,1775.0 C 10043.0,1798.0 10046.0,1818.0 10040.0,1824.0 C 10036.0,1828.0 10034.0,1858.0 10037.0,1889.0 C 10041.0,1927.0 10039.0,1942.0 10032.0,1935.0 C 10027.0,1930.0 10020.0,1916.0 10017.0,1905.0 C 10014.0,1894.0 10012.0,1908.0 10011.0,1935.0 C 10010.0,1963.0 10003.0,1998.0 9995.0,2014.0 C 9987.0,2029.0 9980.0,2058.0 9980.0,2077.0 C 9980.0,2100.0 9972.0,2118.0 9955.0,2134.0 C 9935.0,2152.0 9930.0,2167.0 9930.0,2203.0 C 9930.0,2241.0 9933.0,2249.0 9953.0,2254.0 C 9965.0,2257.0 10002.0,2286.0 10034.0,2320.0 C 10087.0,2375.0 10101.0,2384.0 10122.0,2381.0 C 10126.0,2381.0 10144.0,2397.0 10162.0,2417.0 C 10282.0,2549.0 10297.0,2562.0 10365.0,2595.0 C 10403.0,2614.0 10458.0,2634.0 10485.0,2641.0 C 10513.0,2648.0 10547.0,2663.0 10561.0,2674.0 C 10576.0,2686.0 10602.0,2703.0 10619.0,2712.0 C 10636.0,2722.0 10653.0,2737.0 10657.0,2746.0 C 10664.0,2765.0 10668.0,2770.0 10729.0,2840.0 C 10784.0,2904.0 10818.0,3030.0 10779.0,3030.0 C 10775.0,3030.0 10773.0,3037.0 10776.0,3045.0 C 10780.0,3053.0 10778.0,3060.0 10773.0,3060.0 C 10768.0,3060.0 10763.0,3068.0 10763.0,3078.0 C 10764.0,3191.0 10759.0,3241.0 10748.0,3234.0 C 10741.0,3230.0 10743.0,3235.0 10752.0,3246.0 C 10763.0,3258.0 10766.0,3270.0 10761.0,3279.0 C 10743.0,3308.0 10738.0,3454.0 10753.0,3498.0 C 10761.0,3522.0 10764.0,3543.0 10759.0,3546.0 C 10754.0,3549.0 10752.0,3556.0 10756.0,3561.0 C 10762.0,3572.0 10723.0,3620.0 10707.0,3620.0 C 10702.0,3620.0 10685.0,3629.0 10670.0,3640.0 C 10648.0,3656.0 10640.0,3671.0 10635.0,3713.0 C 10631.0,3741.0 10621.0,3773.0 10612.0,3783.0 C 10604.0,3792.0 10600.0,3800.0 10605.0,3800.0 C 10609.0,3800.0 10604.0,3812.0 10595.0,3827.0 C 10579.0,3850.0 10579.0,3860.0 10589.0,3901.0 C 10598.0,3935.0 10599.0,3954.0 10591.0,3969.0 C 10576.0,3997.0 10577.0,4025.0 10595.0,4040.0 C 10620.0,4061.0 10612.0,4083.0 10560.0,4134.0 C 10521.0,4172.0 10510.0,4190.0 10510.0,4214.0 C 10510.0,4254.0 10565.0,4390.0 10588.0,4406.0 C 10598.0,4413.0 10623.0,4454.0 10644.0,4497.0 C 10664.0,4540.0 10685.0,4582.0 10690.0,4590.0 C 10695.0,4598.0 10705.0,4625.0 10712.0,4649.0 C 10722.0,4684.0 10731.0,4696.0 10755.0,4703.0 C 10784.0,4713.0 10859.0,4770.0 10843.0,4770.0 C 10839.0,4771.0 10847.0,4777.0 10862.0,4786.0 C 10877.0,4794.0 10908.0,4833.0 10932.0,4873.0 C 10961.0,4921.0 11021.0,4992.0 11115.0,5089.0 C 11272.0,5249.0 11336.0,5301.0 11451.0,5361.0 C 11521.0,5397.0 11550.0,5422.0 11680.0,5558.0 C 11763.0,5643.0 11830.0,5719.0 11830.0,5725.0 C 11830.0,5732.0 11854.0,5771.0 11884.0,5811.0 C 11947.0,5898.0 11980.0,5957.0 11980.0,5984.0 C 11980.0,6003.0 12034.0,6105.0 12050.0,6115.0 C 12055.0,6118.0 12064.0,6137.0 12070.0,6158.0 C 12077.0,6178.0 12093.0,6206.0 12105.0,6220.0 C 12118.0,6234.0 12138.0,6265.0 12150.0,6290.0 C 12162.0,6315.0 12183.0,6349.0 12195.0,6365.0 C 12209.0,6384.0 12222.0,6422.0 12228.0,6464.0 C 12234.0,6502.0 12245.0,6540.0 12253.0,6549.0 C 12269.0,6567.0 12281.0,6654.0 12269.0,6667.0 C 12265.0,6671.0 12268.0,6693.0 12275.0,6715.0 C 12291.0,6759.0 12287.0,6766.0 12233.0,6776.0 C 12206.0,6781.0 12194.0,6777.0 12165.0,6751.0 C 12145.0,6734.0 12117.0,6718.0 12102.0,6715.0 C 12087.0,6712.0 12057.0,6705.0 12035.0,6698.0 C 12013.0,6692.0 11968.0,6686.0 11935.0,6686.0 C 11902.0,6685.0 11864.0,6679.0 11852.0,6671.0 C 11836.0,6663.0 11812.0,6661.0 11778.0,6665.0 C 11733.0,6671.0 11724.0,6669.0 11669.0,6635.0 C 11610.0,6599.0 11609.0,6599.0 11556.0,6611.0 C 11505.0,6622.0 11499.0,6621.0 11446.0,6595.0 C 11362.0,6554.0 11311.0,6551.0 11263.0,6585.0 C 11242.0,6600.0 11210.0,6633.0 11192.0,6657.0 C 11155.0,6706.0 11119.0,6724.0 11078.0,6716.0 C 11037.0,6708.0 11044.0,6715.0 11105.0,6744.0 C 11158.0,6769.0 11165.0,6777.0 11160.0,6810.0 C 11157.0,6836.0 11107.0,6901.0 11094.0,6896.0 C 11087.0,6893.0 11075.0,6902.0 11066.0,6915.0 C 11058.0,6928.0 11042.0,6941.0 11031.0,6945.0 C 11021.0,6948.0 11010.0,6963.0 11007.0,6978.0 C 11003.0,6996.0 10987.0,7015.0 10955.0,7035.0 C 10929.0,7051.0 10895.0,7083.0 10879.0,7106.0 C 10854.0,7143.0 10840.0,7152.0 10778.0,7172.0 C 10736.0,7186.0 10702.0,7203.0 10696.0,7214.0 C 10679.0,7243.0 10656.0,7270.0 10648.0,7270.0 C 10643.0,7270.0 10640.0,7260.0 10640.0,7248.0 C 10639.0,7226.0 10638.0,7227.0 10624.0,7253.0 C 10616.0,7268.0 10606.0,7280.0 10602.0,7280.0 C 10593.0,7280.0 10563.0,7381.0 10556.0,7430.0 C 10554.0,7450.0 10534.0,7506.0 10512.0,7555.0 C 10482.0,7620.0 10464.0,7647.0 10443.0,7658.0 C 10428.0,7666.0 10399.0,7687.0 10379.0,7704.0 C 10360.0,7721.0 10336.0,7740.0 10327.0,7745.0 C 10306.0,7758.0 10289.0,7843.0 10287.0,7955.0 C 10286.0,8002.0 10282.0,8040.0 10278.0,8040.0 C 10273.0,8040.0 10270.0,8048.0 10271.0,8058.0 C 10271.0,8068.0 10274.0,8070.0 10277.0,8062.0 C 10279.0,8056.0 10286.0,8052.0 10291.0,8056.0 C 10296.0,8059.0 10287.0,8078.0 10270.0,8098.0 C 10251.0,8121.0 10240.0,8146.0 10240.0,8165.0 C 10240.0,8189.0 10228.0,8207.0 10184.0,8249.0 C 10153.0,8278.0 10116.0,8307.0 10103.0,8313.0 C 10072.0,8327.0 10040.0,8389.0 10040.0,8435.0 C 10040.0,8463.0 10044.0,8470.0 10060.0,8470.0 C 10076.0,8470.0 10071.0,8479.0 10035.0,8514.0 C 10011.0,8539.0 9978.0,8585.0 9962.0,8617.0 C 9946.0,8649.0 9908.0,8717.0 9877.0,8767.0 C 9845.0,8818.0 9821.0,8863.0 9822.0,8867.0 C 9826.0,8879.0 9799.0,8941.0 9776.0,8974.0 C 9765.0,8991.0 9757.0,9014.0 9758.0,9027.0 C 9759.0,9041.0 9751.0,9055.0 9736.0,9065.0 C 9709.0,9083.0 9628.0,9195.0 9636.0,9203.0 C 9639.0,9206.0 9631.0,9226.0 9619.0,9247.0 C 9604.0,9273.0 9599.0,9293.0 9604.0,9306.0 C 9611.0,9323.0 9613.0,9321.0 9625.0,9294.0 C 9632.0,9277.0 9652.0,9243.0 9669.0,9220.0 C 9686.0,9196.0 9700.0,9167.0 9700.0,9155.0 C 9700.0,9140.0 9721.0,9113.0 9761.0,9076.0 C 9845.0,8998.0 9882.0,9001.0 9893.0,9085.0 C 9900.0,9141.0 9935.0,9257.0 9950.0,9275.0 C 9960.0,9287.0 9960.0,9293.0 9949.0,9306.0 C 9942.0,9314.0 9919.0,9365.0 9898.0,9418.0 L 9860.0,9514.0 L 9882.0,9537.0 C 9916.0,9573.0 9896.0,9575.0 9849.0,9540.0 C 9810.0,9512.0 9799.0,9509.0 9740.0,9510.0 C 9704.0,9511.0 9663.0,9509.0 9649.0,9505.0 C 9630.0,9500.0 9610.0,9506.0 9573.0,9528.0 C 9525.0,9556.0 9503.0,9561.0 9403.0,9561.0 C 9322.0,9561.0 9290.0,9556.0 9290.0,9543.0 C 9290.0,9536.0 9281.0,9530.0 9269.0,9530.0 C 9258.0,9530.0 9234.0,9519.0 9216.0,9505.0 C 9159.0,9461.0 9130.0,9456.0 9071.0,9480.0 C 9043.0,9491.0 9006.0,9500.0 8990.0,9500.0 C 8974.0,9500.0 8958.0,9505.0 8954.0,9511.0 C 8951.0,9517.0 8938.0,9519.0 8927.0,9516.0 C 8915.0,9513.0 8899.0,9517.0 8890.0,9525.0 C 8882.0,9532.0 8832.0,9546.0 8780.0,9556.0 C 8669.0,9576.0 8659.0,9576.0 8603.0,9566.0 C 8565.0,9559.0 8560.0,9560.0 8560.0,9577.0 C 8560.0,9615.0 8542.0,9625.0 8468.0,9631.0 C 8428.0,9634.0 8382.0,9642.0 8365.0,9648.0 C 8349.0,9654.0 8322.0,9662.0 8305.0,9667.0 C 8285.0,9673.0 8274.0,9683.0 8272.0,9698.0 C 8268.0,9724.0 8255.0,9730.0 8152.0,9755.0 C 8086.0,9771.0 8076.0,9771.0 8042.0,9758.0 C 8022.0,9749.0 7978.0,9734.0 7945.0,9725.0 C 7864.0,9701.0 7810.0,9649.0 7810.0,9593.0 C 7810.0,9571.0 7817.0,9545.0 7825.0,9534.0 C 7846.0,9506.0 7843.0,9486.0 7814.0,9450.0 C 7755.0,9381.0 7692.0,9372.0 7616.0,9425.0 C 7550.0,9470.0 7439.0,9508.0 7333.0,9522.0 C 7226.0,9536.0 7192.0,9557.0 7171.0,9625.0 C 7154.0,9677.0 7127.0,9700.0 7082.0,9700.0 C 7070.0,9700.0 7043.0,9708.0 7022.0,9719.0 C 6971.0,9744.0 6909.0,9754.0 6813.0,9752.0 C 6747.0,9750.0 6723.0,9754.0 6693.0,9770.0 C 6647.0,9794.0 6610.0,9796.0 6610.0,9774.0 C 6610.0,9751.0 6576.0,9761.0 6572.0,9785.0 C 6565.0,9819.0 6550.0,9832.0 6532.0,9818.0 C 6520.0,9808.0 6516.0,9808.0 6513.0,9818.0 C 6510.0,9824.0 6497.0,9830.0 6484.0,9830.0 C 6459.0,9830.0 6410.0,9870.0 6410.0,9890.0 C 6410.0,9896.0 6425.0,9909.0 6443.0,9920.0 C 6573.0,9998.0 6602.0,10080.0 6519.0,10135.0 C 6497.0,10149.0 6480.0,10167.0 6480.0,10176.0 C 6480.0,10184.0 6498.0,10208.0 6520.0,10229.0 C 6547.0,10255.0 6560.0,10275.0 6560.0,10293.0 C 6560.0,10326.0 6556.0,10326.0 6505.0,10295.0 C 6463.0,10269.0 6445.0,10263.0 6455.0,10280.0 C 6458.0,10286.0 6454.0,10293.0 6445.0,10296.0 C 6433.0,10301.0 6432.0,10306.0 6441.0,10316.0 C 6450.0,10327.0 6449.0,10331.0 6436.0,10336.0 C 6427.0,10339.0 6413.0,10340.0 6405.0,10336.0 C 6397.0,10333.0 6390.0,10335.0 6390.0,10340.0 C 6390.0,10358.0 6326.0,10350.0 6275.0,10327.0 M 2733.0,6983.0 C 2726.0,6981.0 2714.0,6981.0 2708.0,6983.0 C 2701.0,6986.0 2706.0,6988.0 2720.0,6988.0 C 2734.0,6988.0 2739.0,6986.0 2733.0,6983.0 M 2843.0,6753.0 C 2836.0,6751.0 2824.0,6751.0 2818.0,6753.0 C 2811.0,6756.0 2816.0,6758.0 2830.0,6758.0 C 2844.0,6758.0 2849.0,6756.0 2843.0,6753.0" fill="pink"/>
	<path d="M 2978.0,9204.0 C 2962.0,9196.0 2950.0,9181.0 2950.0,9170.0 C 2950.0,9159.0 2946.0,9150.0 2940.0,9150.0 C 2935.0,9150.0 2923.0,9135.0 2914.0,9118.0 C 2905.0,9100.0 2888.0,9075.0 2877.0,9063.0 L 2857.0,9040.0 L 2878.0,9040.0 C 2929.0,9040.0 2981.0,9093.0 2968.0,9132.0 C 2965.0,9139.0 2976.0,9153.0 2992.0,9162.0 C 3008.0,9172.0 3020.0,9188.0 3020.0,9200.0 C 3020.0,9224.0 3014.0,9224.0 2978.0,9204.0" fill="pink"/>
	<path d="M 2355.0,9150.0 C 2349.0,9140.0 2377.0,9090.0 2390.0,9090.0 C 2400.0,9090.0 2410.0,9116.0 2410.0,9141.0 C 2410.0,9154.0 2403.0,9160.0 2386.0,9160.0 C 2372.0,9160.0 2358.0,9156.0 2355.0,9150.0" fill="pink"/>
	<path d="M 2585.0,9115.0 C 2574.0,9107.0 2553.0,9100.0 2538.0,9100.0 C 2504.0,9100.0 2504.0,9095.0 2531.0,9050.0 L 2553.0,9015.0 L 2592.0,9059.0 C 2629.0,9101.0 2635.0,9120.0 2614.0,9127.0 C 2609.0,9129.0 2595.0,9124.0 2585.0,9115.0" fill="pink"/>
	<path d="M 2454.0,9059.0 C 2444.0,9042.0 2466.0,9027.0 2490.0,9035.0 C 2507.0,9040.0 2509.0,9045.0 2499.0,9056.0 C 2485.0,9073.0 2464.0,9074.0 2454.0,9059.0" fill="pink"/>
	<path d="M 2682.0,9058.0 C 2657.0,9033.0 2676.0,8990.0 2712.0,8990.0 C 2721.0,8990.0 2734.0,8999.0 2740.0,9009.0 C 2753.0,9034.0 2753.0,9036.0 2734.0,9054.0 C 2715.0,9073.0 2698.0,9074.0 2682.0,9058.0" fill="pink"/>
	<path d="M 2340.0,9010.0 C 2327.0,9001.0 2328.0,8998.0 2344.0,8985.0 C 2358.0,8974.0 2367.0,8973.0 2377.0,8981.0 C 2409.0,9009.0 2376.0,9034.0 2340.0,9010.0" fill="pink"/>
	<path d="M 9805.0,8980.0 C 9808.0,8975.0 9815.0,8970.0 9821.0,8970.0 C 9826.0,8970.0 9830.0,8975.0 9830.0,8980.0 C 9830.0,8986.0 9823.0,8990.0 9814.0,8990.0 C 9806.0,8990.0 9802.0,8986.0 9805.0,8980.0" fill="pink"/>
	<path d="M 1666.0,7471.0 C 1662.0,7466.0 1663.0,7455.0 1666.0,7446.0 C 1671.0,7432.0 1674.0,7432.0 1696.0,7447.0 C 1709.0,7455.0 1720.0,7466.0 1720.0,7471.0 C 1720.0,7483.0 1673.0,7483.0 1666.0,7471.0" fill="pink"/>
	<path d="M 1713.0,7443.0 C 1695.0,7437.0 1697.0,7420.0 1714.0,7420.0 C 1731.0,7420.0 1744.0,7436.0 1733.0,7443.0 C 1728.0,7445.0 1719.0,7445.0 1713.0,7443.0" fill="pink"/>
	<path d="M 1990.0,7432.0 C 1990.0,7427.0 1997.0,7415.0 2005.0,7404.0 C 2019.0,7386.0 2019.0,7386.0 2020.0,7413.0 C 2020.0,7430.0 2015.0,7440.0 2005.0,7440.0 C 1997.0,7440.0 1990.0,7436.0 1990.0,7432.0" fill="pink"/>
	<path d="M 1800.0,7394.0 C 1800.0,7383.0 1805.0,7380.0 1816.0,7384.0 C 1825.0,7387.0 1838.0,7390.0 1846.0,7390.0 C 1855.0,7390.0 1858.0,7395.0 1855.0,7400.0 C 1845.0,7417.0 1800.0,7412.0 1800.0,7394.0" fill="pink"/>
	<path d="M 10660.0,7350.0 C 10660.0,7345.0 10667.0,7340.0 10676.0,7340.0 C 10684.0,7340.0 10688.0,7345.0 10685.0,7350.0 C 10682.0,7356.0 10675.0,7360.0 10669.0,7360.0 C 10664.0,7360.0 10660.0,7356.0 10660.0,7350.0" fill="pink"/>
	<path d="M 2007.0,7343.0 C 1993.0,7330.0 2001.0,7310.0 2019.0,7310.0 C 2044.0,7310.0 2057.0,7330.0 2039.0,7341.0 C 2022.0,7352.0 2015.0,7352.0 2007.0,7343.0" fill="pink"/>
	<path d="M 10667.0,7323.0 C 10656.0,7313.0 10659.0,7280.0 10670.0,7280.0 C 10685.0,7280.0 10694.0,7310.0 10683.0,7321.0 C 10678.0,7326.0 10671.0,7327.0 10667.0,7323.0" fill="pink"/>
	<path d="M 10705.0,7290.0 C 10702.0,7285.0 10706.0,7280.0 10714.0,7280.0 C 10723.0,7280.0 10730.0,7285.0 10730.0,7290.0 C 10730.0,7296.0 10726.0,7300.0 10721.0,7300.0 C 10715.0,7300.0 10708.0,7296.0 10705.0,7290.0" fill="pink"/>
	<path d="M 1965.0,7210.0 C 1961.0,7204.0 1962.0,7194.0 1968.0,7188.0 C 1981.0,7175.0 1991.0,7192.0 1981.0,7209.0 C 1974.0,7219.0 1971.0,7219.0 1965.0,7210.0" fill="pink"/>
	<path d="M 1886.0,7195.0 C 1880.0,7178.0 1905.0,7150.0 1926.0,7150.0 C 1947.0,7150.0 1943.0,7188.0 1921.0,7200.0 C 1896.0,7213.0 1893.0,7213.0 1886.0,7195.0" fill="pink"/>
	<path d="M 11050.0,7061.0 C 11050.0,7055.0 11055.0,7048.0 11060.0,7045.0 C 11066.0,7042.0 11070.0,7046.0 11070.0,7054.0 C 11070.0,7063.0 11066.0,7070.0 11060.0,7070.0 C 11055.0,7070.0 11050.0,7066.0 11050.0,7061.0" fill="pink"/>
	<path d="M 11045.0,7020.0 C 11042.0,7015.0 11046.0,7010.0 11054.0,7010.0 C 11063.0,7010.0 11070.0,7015.0 11070.0,7020.0 C 11070.0,7026.0 11066.0,7030.0 11061.0,7030.0 C 11055.0,7030.0 11048.0,7026.0 11045.0,7020.0" fill="pink"/>
	<path d="M 12581.0,6866.0 C 12571.0,6855.0 12574.0,6849.0 12592.0,6836.0 C 12620.0,6816.0 12660.0,6816.0 12705.0,6834.0 C 12768.0,6861.0 12745.0,6880.0 12650.0,6880.0 C 12613.0,6880.0 12588.0,6875.0 12581.0,6866.0" fill="pink"/>
	<path d="M 12400.0,6810.0 C 12400.0,6805.0 12412.0,6800.0 12428.0,6801.0 C 12452.0,6801.0 12453.0,6802.0 12435.0,6810.0 C 12408.0,6822.0 12400.0,6822.0 12400.0,6810.0" fill="pink"/>
	<path d="M 2711.0,6706.0 C 2703.0,6696.0 2702.0,6690.0 2710.0,6685.0 C 2715.0,6682.0 2723.0,6686.0 2726.0,6695.0 C 2735.0,6717.0 2725.0,6724.0 2711.0,6706.0" fill="pink"/>
	<path d="M 2650.0,6702.0 C 2650.0,6698.0 2659.0,6694.0 2670.0,6693.0 C 2681.0,6692.0 2690.0,6695.0 2690.0,6698.0 C 2690.0,6702.0 2681.0,6706.0 2670.0,6707.0 C 2659.0,6708.0 2650.0,6705.0 2650.0,6702.0" fill="pink"/>
	<path d="M 2675.0,6670.0 C 2672.0,6665.0 2674.0,6660.0 2679.0,6660.0 C 2685.0,6660.0 2690.0,6665.0 2690.0,6670.0 C 2690.0,6676.0 2688.0,6680.0 2686.0,6680.0 C 2683.0,6680.0 2678.0,6676.0 2675.0,6670.0" fill="pink"/>
	<path d="M 2696.0,6656.0 C 2676.0,6647.0 2671.0,6640.0 2680.0,6635.0 C 2687.0,6631.0 2696.0,6633.0 2701.0,6641.0 C 2708.0,6652.0 2712.0,6652.0 2718.0,6643.0 C 2723.0,6635.0 2732.0,6637.0 2750.0,6650.0 L 2775.0,6670.0 L 2750.0,6669.0 C 2736.0,6669.0 2712.0,6663.0 2696.0,6656.0" fill="pink"/>
	<path d="M 6232.0,5608.0 C 6225.0,5601.0 6220.0,5592.0 6220.0,5586.0 C 6220.0,5581.0 6212.0,5568.0 6203.0,5557.0 C 6186.0,5539.0 6186.0,5538.0 6205.0,5524.0 C 6233.0,5504.0 6237.0,5506.0 6259.0,5549.0 C 6278.0,5586.0 6278.0,5588.0 6261.0,5604.0 C 6248.0,5616.0 6241.0,5617.0 6232.0,5608.0" fill="pink"/>
	<path d="M 6046.0,5301.0 C 6042.0,5294.0 6041.0,5286.0 6044.0,5283.0 C 6053.0,5274.0 6063.0,5287.0 6058.0,5301.0 C 6054.0,5312.0 6052.0,5312.0 6046.0,5301.0" fill="pink"/>
	<path d="M 10620.0,4340.0 C 10620.0,4291.0 10644.0,4285.0 10654.0,4331.0 C 10661.0,4366.0 10655.0,4380.0 10634.0,4380.0 C 10624.0,4380.0 10620.0,4368.0 10620.0,4340.0" fill="pink"/>
	<path d="M 10562.0,4248.0 C 10548.0,4234.0 10547.0,4200.0 10560.0,4180.0 C 10565.0,4172.0 10570.0,4170.0 10570.0,4175.0 C 10570.0,4181.0 10575.0,4177.0 10581.0,4168.0 C 10586.0,4158.0 10595.0,4150.0 10600.0,4150.0 C 10613.0,4150.0 10613.0,4197.0 10600.0,4205.0 C 10595.0,4208.0 10590.0,4220.0 10590.0,4230.0 C 10590.0,4254.0 10576.0,4262.0 10562.0,4248.0" fill="pink"/>
	<path d="M 10630.0,3965.0 C 10606.0,3939.0 10607.0,3925.0 10632.0,3935.0 C 10649.0,3942.0 10675.0,3990.0 10662.0,3990.0 C 10657.0,3990.0 10643.0,3979.0 10630.0,3965.0" fill="pink"/>
	<path d="M 11590.0,3689.0 C 11590.0,3684.0 11595.0,3682.0 11600.0,3685.0 C 11606.0,3688.0 11610.0,3693.0 11610.0,3696.0 C 11610.0,3698.0 11606.0,3700.0 11600.0,3700.0 C 11595.0,3700.0 11590.0,3695.0 11590.0,3689.0" fill="pink"/>
	<path d="M 11131.0,3451.0 C 11115.0,3422.0 11118.0,3405.0 11139.0,3386.0 C 11163.0,3364.0 11173.0,3379.0 11164.0,3425.0 C 11156.0,3468.0 11144.0,3477.0 11131.0,3451.0" fill="pink"/>
	<path d="M 11964.0,3344.0 C 11951.0,3317.0 11942.0,3310.0 11928.0,3313.0 C 11917.0,3316.0 11910.0,3315.0 11912.0,3312.0 C 11914.0,3308.0 11921.0,3294.0 11928.0,3280.0 C 11947.0,3244.0 11920.0,3182.0 11879.0,3167.0 C 11861.0,3160.0 11850.0,3148.0 11849.0,3135.0 C 11849.0,3116.0 11848.0,3116.0 11838.0,3138.0 C 11817.0,3181.0 11789.0,3152.0 11794.0,3092.0 C 11797.0,3059.0 11794.0,3051.0 11778.0,3047.0 C 11764.0,3043.0 11760.0,3034.0 11762.0,3013.0 C 11765.0,2989.0 11762.0,2985.0 11743.0,2987.0 C 11713.0,2990.0 11676.0,2938.0 11684.0,2905.0 C 11688.0,2891.0 11686.0,2880.0 11680.0,2880.0 C 11675.0,2880.0 11670.0,2889.0 11670.0,2900.0 C 11670.0,2924.0 11667.0,2924.0 11632.0,2906.0 C 11592.0,2885.0 11567.0,2854.0 11574.0,2833.0 C 11579.0,2817.0 11578.0,2818.0 11565.0,2834.0 C 11553.0,2850.0 11547.0,2851.0 11538.0,2842.0 C 11531.0,2835.0 11516.0,2830.0 11503.0,2830.0 C 11490.0,2830.0 11477.0,2824.0 11474.0,2817.0 C 11471.0,2808.0 11458.0,2805.0 11439.0,2808.0 C 11421.0,2811.0 11403.0,2806.0 11392.0,2797.0 C 11383.0,2788.0 11357.0,2780.0 11335.0,2778.0 C 11296.0,2775.0 11295.0,2774.0 11292.0,2736.0 C 11290.0,2712.0 11275.0,2678.0 11254.0,2647.0 C 11229.0,2611.0 11221.0,2590.0 11225.0,2575.0 C 11229.0,2564.0 11235.0,2530.0 11239.0,2500.0 C 11243.0,2470.0 11251.0,2435.0 11258.0,2423.0 C 11265.0,2411.0 11270.0,2391.0 11270.0,2378.0 C 11270.0,2365.0 11277.0,2347.0 11284.0,2337.0 C 11308.0,2306.0 11296.0,2232.0 11258.0,2165.0 C 11238.0,2132.0 11219.0,2095.0 11216.0,2083.0 C 11212.0,2071.0 11201.0,2058.0 11191.0,2055.0 C 11182.0,2052.0 11163.0,2025.0 11150.0,1994.0 C 11120.0,1920.0 11126.0,1853.0 11169.0,1785.0 C 11194.0,1746.0 11197.0,1734.0 11188.0,1717.0 C 11152.0,1648.0 11237.0,1501.0 11334.0,1467.0 C 11357.0,1459.0 11389.0,1447.0 11406.0,1440.0 C 11434.0,1428.0 11443.0,1430.0 11505.0,1458.0 C 11542.0,1476.0 11583.0,1490.0 11596.0,1490.0 C 11633.0,1490.0 11689.0,1517.0 11696.0,1537.0 C 11700.0,1547.0 11714.0,1582.0 11727.0,1615.0 C 11740.0,1648.0 11767.0,1732.0 11785.0,1801.0 C 11803.0,1871.0 11828.0,1947.0 11840.0,1969.0 C 11851.0,1992.0 11869.0,2043.0 11880.0,2083.0 C 11890.0,2123.0 11928.0,2238.0 11964.0,2340.0 C 12018.0,2492.0 12030.0,2535.0 12030.0,2587.0 C 12030.0,2637.0 12034.0,2653.0 12050.0,2668.0 C 12073.0,2690.0 12087.0,2750.0 12074.0,2777.0 C 12070.0,2787.0 12066.0,2800.0 12065.0,2805.0 C 12064.0,2811.0 12060.0,2826.0 12056.0,2839.0 C 12042.0,2881.0 12066.0,2885.0 12086.0,2843.0 C 12118.0,2778.0 12148.0,2793.0 12165.0,2882.0 C 12170.0,2907.0 12166.0,2922.0 12151.0,2942.0 C 12135.0,2962.0 12129.0,2986.0 12126.0,3047.0 C 12124.0,3093.0 12115.0,3140.0 12106.0,3158.0 C 12097.0,3175.0 12090.0,3200.0 12090.0,3213.0 C 12090.0,3226.0 12079.0,3247.0 12065.0,3260.0 C 12051.0,3273.0 12040.0,3289.0 12040.0,3296.0 C 12040.0,3303.0 12032.0,3315.0 12023.0,3322.0 C 12013.0,3329.0 12005.0,3341.0 12004.0,3348.0 C 12002.0,3375.0 12000.0,3380.0 11990.0,3380.0 C 11985.0,3380.0 11973.0,3364.0 11964.0,3344.0" fill="pink"/>
	<path d="M 11270.0,3352.0 C 11270.0,3340.0 11293.0,3320.0 11307.0,3320.0 C 11314.0,3320.0 11320.0,3329.0 11320.0,3340.0 C 11320.0,3355.0 11313.0,3360.0 11295.0,3360.0 C 11281.0,3360.0 11270.0,3356.0 11270.0,3352.0" fill="pink"/>
	<path d="M 11193.0,3323.0 C 11202.0,3314.0 11213.0,3310.0 11217.0,3314.0 C 11221.0,3318.0 11218.0,3325.0 11210.0,3330.0 C 11185.0,3346.0 11175.0,3341.0 11193.0,3323.0" fill="pink"/>
	<path d="M 11390.0,3255.0 C 11390.0,3225.0 11401.0,3223.0 11417.0,3249.0 C 11427.0,3265.0 11426.0,3269.0 11414.0,3274.0 C 11391.0,3283.0 11390.0,3282.0 11390.0,3255.0" fill="pink"/>
	<path d="M 11845.0,3197.0 C 11837.0,3178.0 11843.0,3166.0 11858.0,3171.0 C 11863.0,3173.0 11864.0,3184.0 11860.0,3195.0 C 11853.0,3214.0 11852.0,3214.0 11845.0,3197.0" fill="pink"/>
	<path d="M 12083.0,2688.0 C 12064.0,2663.0 12059.0,2650.0 12069.0,2650.0 C 12080.0,2650.0 12104.0,2689.0 12097.0,2696.0 C 12095.0,2699.0 12088.0,2695.0 12083.0,2688.0" fill="pink"/>
	<path d="M 10020.0,1995.0 C 10021.0,1969.0 10022.0,1967.0 10031.0,1983.0 C 10039.0,1997.0 10039.0,2005.0 10031.0,2013.0 C 10023.0,2021.0 10020.0,2016.0 10020.0,1995.0" fill="pink"/>
</svg>
