<?xml version="1.0" ?>
<svg xmlns="http://www.w3.org/2000/svg" xmlns:ev="http://www.w3.org/2001/xml-events" xmlns:xlink="http://www.w3.org/1999/xlink" baseProfile="full" height="600px" version="1.1" viewBox="-551.0905448334503 -603.741007732528 6729.5241086456845 7609.213435689215" width="531px">
	<defs/>
	<path d="M 4875.0,6361.0 C 4826.0,6358.0 4776.0,6350.0 4765.0,6344.0 C 4754.0,6338.0 4675.0,6330.0 4590.0,6327.0 C 4449.0,6322.0 4212.0,6295.0 4200.0,6282.0 C 4197.0,6280.0 4201.0,6275.0 4208.0,6273.0 C 4221.0,6268.0 4225.0,6240.0 4213.0,6240.0 C 4208.0,6239.0 4156.0,6233.0 4096.0,6226.0 C 3980.0,6211.0 3955.0,6198.0 3989.0,6169.0 C 4007.0,6154.0 4037.0,6147.0 4183.0,6121.0 C 4282.0,6103.0 4324.0,6056.0 4285.0,6004.0 C 4263.0,5974.0 4267.0,5964.0 4308.0,5953.0 L 4345.0,5943.0 L 4303.0,5935.0 C 4269.0,5929.0 4260.0,5923.0 4260.0,5907.0 C 4260.0,5890.0 4265.0,5888.0 4294.0,5893.0 C 4322.0,5897.0 4328.0,5896.0 4323.0,5884.0 C 4320.0,5876.0 4308.0,5870.0 4295.0,5870.0 C 4281.0,5870.0 4262.0,5857.0 4246.0,5836.0 C 4222.0,5805.0 4220.0,5793.0 4220.0,5712.0 C 4220.0,5612.0 4242.0,5522.0 4268.0,5514.0 C 4277.0,5511.0 4304.0,5500.0 4327.0,5489.0 C 4385.0,5460.0 4421.0,5470.0 4463.0,5524.0 C 4481.0,5548.0 4524.0,5598.0 4558.0,5635.0 L 4620.0,5703.0 L 4718.0,5725.0 C 4789.0,5741.0 4831.0,5757.0 4870.0,5783.0 C 4923.0,5818.0 5148.0,5895.0 5215.0,5902.0 C 5243.0,5905.0 5245.0,5908.0 5248.0,5947.0 C 5251.0,5992.0 5272.0,6016.0 5341.0,6053.0 C 5365.0,6067.0 5370.0,6074.0 5361.0,6080.0 C 5343.0,6090.0 5355.0,6140.0 5375.0,6140.0 C 5398.0,6140.0 5402.0,6158.0 5385.0,6189.0 C 5368.0,6223.0 5370.0,6225.0 5440.0,6246.0 C 5467.0,6254.0 5518.0,6274.0 5552.0,6291.0 L 5615.0,6321.0 L 5545.0,6315.0 C 5507.0,6312.0 5465.0,6307.0 5453.0,6304.0 C 5441.0,6302.0 5428.0,6306.0 5423.0,6314.0 C 5419.0,6321.0 5373.0,6337.0 5322.0,6349.0 C 5225.0,6371.0 5089.0,6374.0 4875.0,6361.0" fill="pink"/>
	<path d="M 3910.0,6339.0 C 3828.0,6324.0 3570.0,6300.0 3555.0,6306.0 C 3546.0,6310.0 3521.0,6300.0 3498.0,6284.0 C 3470.0,6264.0 3455.0,6259.0 3453.0,6268.0 C 3444.0,6293.0 3430.0,6279.0 3430.0,6246.0 C 3430.0,6202.0 3460.0,6178.0 3503.0,6187.0 C 3561.0,6199.0 3521.0,6171.0 3449.0,6150.0 C 3386.0,6131.0 3376.0,6130.0 3362.0,6144.0 C 3352.0,6152.0 3327.0,6160.0 3305.0,6162.0 C 3268.0,6165.0 3265.0,6163.0 3260.0,6135.0 C 3256.0,6110.0 3250.0,6105.0 3225.0,6105.0 C 3203.0,6105.0 3196.0,6109.0 3198.0,6122.0 C 3201.0,6141.0 3196.0,6145.0 3153.0,6154.0 C 3124.0,6161.0 3120.0,6158.0 3105.0,6130.0 C 3096.0,6112.0 3090.0,6096.0 3093.0,6094.0 C 3095.0,6091.0 3137.0,6085.0 3186.0,6079.0 L 3275.0,6069.0 L 3296.0,6096.0 C 3317.0,6122.0 3344.0,6122.0 3334.0,6097.0 C 3326.0,6075.0 3443.0,6058.0 3513.0,6069.0 C 3545.0,6075.0 3584.0,6077.0 3598.0,6074.0 C 3627.0,6068.0 3671.0,6093.0 3657.0,6107.0 C 3652.0,6111.0 3604.0,6115.0 3550.0,6115.0 C 3453.0,6115.0 3452.0,6115.0 3479.0,6133.0 C 3500.0,6148.0 3522.0,6150.0 3595.0,6148.0 C 3645.0,6147.0 3690.0,6149.0 3697.0,6153.0 C 3703.0,6157.0 3715.0,6157.0 3724.0,6154.0 C 3732.0,6151.0 3783.0,6169.0 3837.0,6195.0 C 3935.0,6242.0 4015.0,6268.0 4145.0,6295.0 C 4319.0,6330.0 4340.0,6335.0 4340.0,6340.0 C 4340.0,6349.0 3958.0,6348.0 3910.0,6339.0" fill="pink"/>
	<path d="M 3323.0,6240.0 C 3303.0,6232.0 3302.0,6228.0 3311.0,6206.0 C 3322.0,6183.0 3353.0,6166.0 3364.0,6178.0 C 3367.0,6181.0 3370.0,6198.0 3370.0,6217.0 C 3370.0,6252.0 3362.0,6256.0 3323.0,6240.0" fill="pink"/>
	<path d="M 2927.0,6224.0 C 2911.0,6216.0 2890.0,6200.0 2879.0,6189.0 C 2860.0,6170.0 2860.0,6170.0 2886.0,6170.0 C 2918.0,6170.0 2982.0,6208.0 2977.0,6223.0 C 2972.0,6240.0 2957.0,6240.0 2927.0,6224.0" fill="pink"/>
	<path d="M 3137.0,6233.0 C 3122.0,6218.0 3133.0,6210.0 3185.0,6195.0 C 3226.0,6183.0 3244.0,6181.0 3260.0,6190.0 C 3288.0,6205.0 3279.0,6215.0 3226.0,6229.0 C 3175.0,6242.0 3146.0,6243.0 3137.0,6233.0" fill="pink"/>
	<path d="M 2650.0,6168.0 C 2609.0,6157.0 2558.0,6146.0 2538.0,6143.0 C 2492.0,6137.0 2498.0,6120.0 2546.0,6120.0 C 2567.0,6120.0 2588.0,6112.0 2600.0,6100.0 C 2611.0,6089.0 2629.0,6080.0 2639.0,6080.0 C 2650.0,6080.0 2672.0,6072.0 2688.0,6063.0 C 2717.0,6046.0 2721.0,6046.0 2767.0,6063.0 C 2793.0,6072.0 2841.0,6080.0 2872.0,6080.0 C 2913.0,6080.0 2933.0,6085.0 2946.0,6098.0 C 2963.0,6114.0 2963.0,6115.0 2946.0,6118.0 C 2936.0,6120.0 2931.0,6128.0 2934.0,6136.0 C 2942.0,6156.0 2917.0,6153.0 2875.0,6129.0 C 2838.0,6107.0 2824.0,6107.0 2756.0,6133.0 C 2734.0,6141.0 2722.0,6150.0 2729.0,6154.0 C 2741.0,6162.0 2744.0,6190.0 2733.0,6189.0 C 2728.0,6189.0 2691.0,6179.0 2650.0,6168.0" fill="pink"/>
	<path d="M 2364.0,6062.0 C 2358.0,6058.0 2351.0,6048.0 2348.0,6039.0 C 2344.0,6030.0 2312.0,6012.0 2277.0,5999.0 L 2211.0,5975.0 L 2230.0,5950.0 C 2247.0,5927.0 2250.0,5927.0 2300.0,5938.0 C 2329.0,5945.0 2363.0,5959.0 2377.0,5970.0 C 2418.0,6002.0 2421.0,5994.0 2390.0,5936.0 C 2373.0,5906.0 2360.0,5879.0 2360.0,5875.0 C 2360.0,5872.0 2374.0,5864.0 2390.0,5859.0 C 2407.0,5853.0 2420.0,5842.0 2420.0,5834.0 C 2420.0,5816.0 2443.0,5816.0 2478.0,5834.0 C 2531.0,5860.0 2668.0,5870.0 2736.0,5851.0 C 2761.0,5844.0 2774.0,5847.0 2799.0,5862.0 C 2835.0,5885.0 2835.0,5884.0 2814.0,5914.0 C 2804.0,5930.0 2802.0,5940.0 2809.0,5945.0 C 2815.0,5948.0 2820.0,5969.0 2820.0,5992.0 C 2820.0,6030.0 2819.0,6032.0 2794.0,6026.0 C 2780.0,6022.0 2758.0,6007.0 2745.0,5992.0 C 2723.0,5967.0 2721.0,5966.0 2703.0,5982.0 C 2693.0,5991.0 2662.0,6002.0 2634.0,6005.0 C 2592.0,6011.0 2580.0,6017.0 2566.0,6041.0 C 2549.0,6069.0 2547.0,6070.0 2462.0,6070.0 C 2414.0,6070.0 2370.0,6066.0 2364.0,6062.0" fill="pink"/>
	<path d="M 2987.0,6043.0 C 2983.0,6040.0 2980.0,6028.0 2980.0,6018.0 C 2980.0,5998.0 2969.0,5995.0 2953.0,6011.0 C 2947.0,6017.0 2937.0,6019.0 2931.0,6015.0 C 2924.0,6011.0 2931.0,5998.0 2950.0,5979.0 C 2982.0,5946.0 2993.0,5946.0 3061.0,5981.0 C 3085.0,5993.0 3099.0,6008.0 3102.0,6025.0 C 3107.0,6049.0 3106.0,6050.0 3050.0,6050.0 C 3019.0,6050.0 2990.0,6047.0 2987.0,6043.0" fill="pink"/>
	<path d="M 3146.0,6020.0 C 3133.0,6003.0 3093.0,5971.0 3059.0,5949.0 C 3025.0,5926.0 2995.0,5899.0 2992.0,5888.0 C 2988.0,5872.0 2981.0,5869.0 2955.0,5874.0 C 2912.0,5882.0 2850.0,5856.0 2850.0,5830.0 C 2850.0,5812.0 2843.0,5810.0 2788.0,5809.0 C 2694.0,5807.0 2677.0,5810.0 2654.0,5831.0 C 2635.0,5849.0 2629.0,5850.0 2586.0,5838.0 C 2561.0,5831.0 2540.0,5820.0 2540.0,5813.0 C 2540.0,5803.0 2515.0,5800.0 2438.0,5801.0 C 2356.0,5801.0 2340.0,5804.0 2358.0,5812.0 C 2401.0,5833.0 2393.0,5838.0 2249.0,5870.0 C 2217.0,5877.0 2180.0,5880.0 2166.0,5876.0 C 2147.0,5871.0 2140.0,5873.0 2140.0,5885.0 C 2140.0,5897.0 2135.0,5898.0 2113.0,5889.0 C 2091.0,5881.0 2083.0,5882.0 2073.0,5896.0 C 2065.0,5907.0 2055.0,5910.0 2043.0,5905.0 C 2001.0,5888.0 1873.0,5865.0 1850.0,5870.0 C 1836.0,5873.0 1809.0,5870.0 1790.0,5863.0 C 1742.0,5846.0 1704.0,5847.0 1674.0,5866.0 C 1658.0,5877.0 1613.0,5885.0 1542.0,5891.0 C 1404.0,5901.0 1278.0,5923.0 1255.0,5940.0 C 1242.0,5950.0 1100.0,5920.0 980.0,5882.0 C 928.0,5865.0 869.0,5849.0 850.0,5845.0 C 785.0,5833.0 779.0,5829.0 785.0,5809.0 C 788.0,5799.0 793.0,5781.0 796.0,5770.0 C 800.0,5753.0 797.0,5750.0 771.0,5750.0 C 754.0,5750.0 740.0,5754.0 740.0,5759.0 C 740.0,5764.0 703.0,5759.0 658.0,5746.0 C 595.0,5729.0 575.0,5719.0 569.0,5702.0 C 562.0,5684.0 565.0,5679.0 585.0,5674.0 C 599.0,5671.0 628.0,5670.0 650.0,5672.0 C 681.0,5675.0 689.0,5672.0 685.0,5662.0 C 682.0,5654.0 680.0,5645.0 680.0,5640.0 C 680.0,5636.0 659.0,5630.0 633.0,5627.0 C 505.0,5614.0 403.0,5571.0 367.0,5516.0 C 340.0,5475.0 345.0,5459.0 381.0,5467.0 L 412.0,5473.0 L 395.0,5446.0 C 379.0,5423.0 379.0,5420.0 394.0,5426.0 C 414.0,5434.0 480.0,5422.0 480.0,5411.0 C 480.0,5403.0 90.0,5250.0 68.0,5250.0 C 61.0,5249.0 44.0,5243.0 30.0,5235.0 C 5.0,5221.0 5.0,5221.0 40.0,5226.0 C 159.0,5245.0 363.0,5304.0 434.0,5340.0 C 477.0,5362.0 523.0,5380.0 535.0,5380.0 C 566.0,5380.0 652.0,5408.0 674.0,5425.0 C 690.0,5437.0 691.0,5442.0 680.0,5455.0 C 669.0,5468.0 671.0,5470.0 694.0,5470.0 C 708.0,5470.0 743.0,5479.0 772.0,5490.0 C 800.0,5501.0 825.0,5508.0 827.0,5506.0 C 829.0,5504.0 812.0,5491.0 790.0,5476.0 C 768.0,5462.0 750.0,5448.0 750.0,5446.0 C 750.0,5439.0 878.0,5470.0 926.0,5488.0 C 974.0,5507.0 977.0,5507.0 1010.0,5490.0 C 1029.0,5480.0 1068.0,5469.0 1097.0,5465.0 C 1171.0,5455.0 1184.0,5432.0 1177.0,5328.0 L 1172.0,5250.0 L 1206.0,5250.0 C 1238.0,5250.0 1239.0,5249.0 1229.0,5223.0 C 1222.0,5206.0 1221.0,5168.0 1225.0,5126.0 L 1231.0,5057.0 L 1206.0,5064.0 C 1167.0,5074.0 1168.0,5041.0 1208.0,4998.0 C 1235.0,4970.0 1241.0,4958.0 1232.0,4948.0 C 1227.0,4941.0 1212.0,4910.0 1200.0,4880.0 C 1188.0,4850.0 1154.0,4798.0 1125.0,4764.0 C 1095.0,4731.0 1068.0,4690.0 1064.0,4674.0 C 1060.0,4658.0 1046.0,4629.0 1031.0,4610.0 C 1001.0,4569.0 999.0,4542.0 1013.0,4407.0 L 1024.0,4308.0 L 1066.0,4279.0 C 1114.0,4246.0 1116.0,4242.0 1126.0,4145.0 C 1130.0,4107.0 1139.0,4061.0 1147.0,4042.0 C 1160.0,4011.0 1159.0,4007.0 1144.0,3995.0 C 1129.0,3984.0 1129.0,3980.0 1141.0,3963.0 C 1149.0,3952.0 1169.0,3931.0 1186.0,3917.0 C 1210.0,3897.0 1216.0,3884.0 1213.0,3866.0 C 1209.0,3848.0 1217.0,3830.0 1239.0,3803.0 C 1256.0,3782.0 1270.0,3760.0 1270.0,3753.0 C 1270.0,3746.0 1275.0,3740.0 1280.0,3740.0 C 1301.0,3740.0 1302.0,3773.0 1283.0,3814.0 C 1272.0,3836.0 1260.0,3869.0 1256.0,3887.0 C 1252.0,3904.0 1234.0,3957.0 1215.0,4004.0 C 1190.0,4068.0 1183.0,4099.0 1187.0,4125.0 C 1190.0,4144.0 1194.0,4160.0 1196.0,4160.0 C 1197.0,4160.0 1210.0,4156.0 1223.0,4151.0 C 1243.0,4143.0 1248.0,4133.0 1253.0,4089.0 C 1258.0,4053.0 1270.0,4020.0 1295.0,3983.0 C 1316.0,3952.0 1330.0,3918.0 1330.0,3900.0 C 1330.0,3877.0 1345.0,3852.0 1390.0,3799.0 C 1439.0,3742.0 1450.0,3723.0 1450.0,3694.0 C 1450.0,3675.0 1446.0,3651.0 1441.0,3642.0 C 1436.0,3633.0 1436.0,3616.0 1440.0,3604.0 C 1450.0,3579.0 1540.0,3510.0 1563.0,3510.0 C 1572.0,3510.0 1583.0,3504.0 1587.0,3496.0 C 1599.0,3476.0 1737.0,3409.0 1768.0,3408.0 C 1783.0,3408.0 1812.0,3411.0 1833.0,3415.0 C 1869.0,3422.0 1873.0,3421.0 1919.0,3373.0 C 1966.0,3324.0 1977.0,3319.0 2098.0,3287.0 C 2128.0,3279.0 2142.0,3269.0 2146.0,3253.0 C 2149.0,3241.0 2160.0,3224.0 2171.0,3214.0 C 2181.0,3205.0 2190.0,3186.0 2190.0,3173.0 C 2190.0,3142.0 2292.0,3046.0 2328.0,3043.0 C 2342.0,3042.0 2363.0,3031.0 2376.0,3019.0 C 2403.0,2993.0 2435.0,3000.0 2427.0,3030.0 C 2421.0,3053.0 2453.0,3085.0 2475.0,3076.0 C 2483.0,3073.0 2493.0,3062.0 2496.0,3053.0 C 2499.0,3043.0 2508.0,3023.0 2516.0,3008.0 C 2533.0,2976.0 2535.0,2838.0 2518.0,2807.0 C 2512.0,2795.0 2499.0,2779.0 2488.0,2772.0 C 2478.0,2765.0 2470.0,2750.0 2470.0,2739.0 C 2470.0,2728.0 2460.0,2715.0 2448.0,2709.0 C 2416.0,2695.0 2376.0,2591.0 2389.0,2557.0 C 2394.0,2543.0 2404.0,2529.0 2409.0,2525.0 C 2416.0,2521.0 2411.0,2507.0 2394.0,2485.0 C 2370.0,2454.0 2370.0,2449.0 2381.0,2408.0 C 2388.0,2384.0 2406.0,2352.0 2421.0,2335.0 C 2436.0,2319.0 2460.0,2280.0 2475.0,2250.0 C 2490.0,2220.0 2515.0,2177.0 2530.0,2155.0 C 2545.0,2133.0 2578.0,2074.0 2603.0,2023.0 C 2649.0,1932.0 2650.0,1931.0 2757.0,1855.0 C 2816.0,1812.0 2867.0,1776.0 2868.0,1774.0 C 2870.0,1773.0 2880.0,1723.0 2891.0,1663.0 C 2903.0,1589.0 2909.0,1505.0 2910.0,1397.0 C 2910.0,1281.0 2914.0,1224.0 2927.0,1179.0 C 2941.0,1127.0 2942.0,1102.0 2933.0,992.0 C 2924.0,879.0 2925.0,861.0 2940.0,830.0 C 2949.0,811.0 2960.0,770.0 2964.0,740.0 C 2973.0,659.0 2989.0,610.0 3006.0,610.0 C 3016.0,610.0 3019.0,617.0 3014.0,635.0 C 3010.0,649.0 3012.0,660.0 3018.0,660.0 C 3024.0,660.0 3033.0,637.0 3039.0,610.0 C 3053.0,546.0 3053.0,547.0 3036.0,553.0 C 3015.0,561.0 2994.0,534.0 3008.0,517.0 C 3015.0,509.0 3017.0,488.0 3013.0,467.0 C 3009.0,438.0 3011.0,430.0 3022.0,430.0 C 3047.0,430.0 3063.0,404.0 3051.0,382.0 C 3043.0,366.0 3051.0,348.0 3096.0,282.0 C 3127.0,237.0 3180.0,175.0 3214.0,142.0 C 3273.0,88.0 3282.0,82.0 3375.0,58.0 L 3473.0,33.0 L 3507.0,52.0 C 3525.0,63.0 3540.0,75.0 3540.0,79.0 C 3540.0,83.0 3515.0,94.0 3486.0,104.0 C 3444.0,116.0 3421.0,132.0 3389.0,168.0 C 3337.0,227.0 3328.0,250.0 3346.0,271.0 C 3354.0,280.0 3358.0,294.0 3354.0,303.0 C 3351.0,312.0 3358.0,336.0 3371.0,357.0 C 3386.0,381.0 3390.0,395.0 3382.0,398.0 C 3376.0,400.0 3360.0,410.0 3346.0,421.0 C 3316.0,445.0 3309.0,506.0 3335.0,516.0 C 3345.0,520.0 3350.0,536.0 3350.0,560.0 C 3350.0,581.0 3357.0,603.0 3365.0,610.0 C 3386.0,627.0 3384.0,640.0 3361.0,640.0 C 3341.0,640.0 3310.0,675.0 3310.0,697.0 C 3310.0,705.0 3323.0,709.0 3345.0,708.0 C 3388.0,706.0 3413.0,726.0 3406.0,756.0 C 3396.0,793.0 3409.0,810.0 3445.0,810.0 C 3509.0,810.0 3540.0,822.0 3555.0,851.0 C 3577.0,893.0 3574.0,947.0 3550.0,960.0 C 3539.0,966.0 3527.0,982.0 3524.0,995.0 C 3521.0,1009.0 3511.0,1020.0 3502.0,1020.0 C 3490.0,1020.0 3489.0,1023.0 3498.0,1032.0 C 3507.0,1041.0 3514.0,1039.0 3529.0,1026.0 C 3540.0,1016.0 3567.0,1006.0 3590.0,1003.0 C 3623.0,998.0 3635.0,1001.0 3655.0,1020.0 C 3680.0,1044.0 3730.0,1156.0 3730.0,1190.0 C 3730.0,1203.0 3737.0,1210.0 3749.0,1210.0 C 3785.0,1210.0 3815.0,1276.0 3817.0,1360.0 C 3818.0,1401.0 3819.0,1438.0 3819.0,1441.0 C 3821.0,1455.0 3962.0,1541.0 4009.0,1557.0 C 4089.0,1582.0 4122.0,1633.0 4145.0,1764.0 C 4155.0,1820.0 4164.0,1899.0 4165.0,1941.0 C 4167.0,2014.0 4169.0,2020.0 4212.0,2081.0 C 4237.0,2116.0 4274.0,2180.0 4293.0,2223.0 C 4329.0,2300.0 4329.0,2300.0 4313.0,2345.0 C 4301.0,2381.0 4291.0,2394.0 4264.0,2405.0 C 4245.0,2413.0 4203.0,2443.0 4171.0,2471.0 L 4113.0,2524.0 L 4029.0,2526.0 C 3983.0,2528.0 3937.0,2530.0 3928.0,2530.0 C 3917.0,2531.0 3910.0,2539.0 3910.0,2553.0 C 3909.0,2570.0 3896.0,2581.0 3848.0,2603.0 C 3793.0,2628.0 3785.0,2629.0 3770.0,2615.0 C 3747.0,2594.0 3740.0,2596.0 3740.0,2623.0 C 3740.0,2637.0 3729.0,2651.0 3710.0,2662.0 C 3685.0,2676.0 3681.0,2684.0 3686.0,2704.0 C 3690.0,2721.0 3686.0,2732.0 3672.0,2742.0 C 3661.0,2749.0 3649.0,2773.0 3645.0,2795.0 C 3635.0,2847.0 3633.0,2851.0 3582.0,2894.0 C 3544.0,2925.0 3531.0,2930.0 3487.0,2930.0 C 3422.0,2930.0 3335.0,2973.0 3321.0,3010.0 C 3316.0,3025.0 3296.0,3043.0 3273.0,3055.0 C 3251.0,3066.0 3229.0,3083.0 3224.0,3095.0 C 3219.0,3106.0 3203.0,3121.0 3188.0,3128.0 C 3158.0,3142.0 3153.0,3155.0 3173.0,3164.0 C 3179.0,3167.0 3163.0,3167.0 3135.0,3164.0 C 3108.0,3161.0 3082.0,3154.0 3079.0,3149.0 C 3076.0,3143.0 3058.0,3146.0 3037.0,3155.0 C 3017.0,3163.0 2985.0,3170.0 2965.0,3170.0 C 2923.0,3170.0 2875.0,3192.0 2866.0,3216.0 C 2861.0,3230.0 2854.0,3226.0 2825.0,3194.0 C 2806.0,3173.0 2791.0,3144.0 2790.0,3131.0 C 2790.0,3111.0 2788.0,3109.0 2775.0,3120.0 C 2764.0,3129.0 2762.0,3136.0 2770.0,3144.0 C 2775.0,3149.0 2780.0,3166.0 2780.0,3182.0 C 2780.0,3197.0 2787.0,3213.0 2795.0,3217.0 C 2803.0,3222.0 2806.0,3231.0 2802.0,3237.0 C 2796.0,3246.0 2782.0,3241.0 2750.0,3220.0 C 2726.0,3204.0 2692.0,3188.0 2675.0,3184.0 C 2642.0,3177.0 2621.0,3155.0 2620.0,3128.0 C 2620.0,3118.0 2607.0,3096.0 2592.0,3078.0 L 2563.0,3047.0 L 2527.0,3076.0 C 2498.0,3098.0 2482.0,3104.0 2453.0,3101.0 C 2432.0,3100.0 2407.0,3094.0 2396.0,3088.0 C 2355.0,3066.0 2290.0,3136.0 2290.0,3201.0 C 2290.0,3220.0 2297.0,3266.0 2307.0,3304.0 L 2323.0,3372.0 L 2299.0,3391.0 C 2280.0,3406.0 2257.0,3410.0 2188.0,3410.0 L 2101.0,3410.0 L 2127.0,3473.0 C 2141.0,3507.0 2161.0,3560.0 2172.0,3590.0 C 2184.0,3620.0 2197.0,3650.0 2201.0,3656.0 C 2207.0,3664.0 2196.0,3669.0 2164.0,3674.0 C 2101.0,3682.0 2066.0,3663.0 2048.0,3608.0 C 2034.0,3566.0 2032.0,3565.0 1961.0,3546.0 C 1877.0,3524.0 1854.0,3531.0 1817.0,3589.0 C 1773.0,3659.0 1770.0,3695.0 1802.0,3789.0 C 1817.0,3836.0 1830.0,3890.0 1830.0,3911.0 C 1830.0,3946.0 1834.0,3950.0 1923.0,4009.0 C 1999.0,4059.0 2023.0,4070.0 2057.0,4070.0 C 2080.0,4070.0 2102.0,4066.0 2105.0,4060.0 C 2116.0,4043.0 2153.0,4049.0 2177.0,4072.0 C 2207.0,4100.0 2327.0,4108.0 2337.0,4083.0 C 2341.0,4072.0 2352.0,4070.0 2375.0,4074.0 C 2400.0,4079.0 2411.0,4075.0 2430.0,4055.0 C 2450.0,4033.0 2453.0,4025.0 2444.0,4002.0 C 2432.0,3972.0 2442.0,3921.0 2467.0,3884.0 C 2507.0,3822.0 2535.0,3889.0 2525.0,4024.0 L 2519.0,4115.0 L 2567.0,4167.0 C 2593.0,4196.0 2647.0,4239.0 2685.0,4264.0 C 2724.0,4289.0 2772.0,4326.0 2793.0,4347.0 C 2825.0,4379.0 2830.0,4390.0 2826.0,4418.0 C 2823.0,4441.0 2825.0,4450.0 2836.0,4450.0 C 2844.0,4450.0 2858.0,4465.0 2867.0,4484.0 C 2876.0,4503.0 2888.0,4516.0 2895.0,4514.0 C 2902.0,4511.0 2921.0,4526.0 2938.0,4547.0 C 2960.0,4576.0 2983.0,4590.0 3023.0,4603.0 C 3052.0,4612.0 3084.0,4620.0 3092.0,4620.0 C 3113.0,4620.0 3134.0,4646.0 3121.0,4655.0 C 3105.0,4664.0 3150.0,4728.0 3180.0,4739.0 C 3194.0,4744.0 3243.0,4762.0 3290.0,4779.0 C 3373.0,4809.0 3374.0,4809.0 3346.0,4786.0 C 3307.0,4754.0 3316.0,4727.0 3360.0,4740.0 C 3378.0,4745.0 3397.0,4754.0 3404.0,4759.0 C 3410.0,4764.0 3436.0,4774.0 3462.0,4780.0 C 3488.0,4787.0 3516.0,4801.0 3526.0,4811.0 C 3535.0,4821.0 3551.0,4830.0 3562.0,4830.0 C 3575.0,4830.0 3580.0,4837.0 3580.0,4855.0 C 3580.0,4870.0 3574.0,4880.0 3566.0,4880.0 C 3558.0,4880.0 3543.0,4869.0 3532.0,4855.0 C 3505.0,4821.0 3447.0,4820.0 3425.0,4853.0 C 3411.0,4875.0 3412.0,4880.0 3436.0,4924.0 C 3458.0,4964.0 3460.0,4974.0 3449.0,4981.0 C 3426.0,4996.0 3403.0,4991.0 3332.0,4960.0 L 3265.0,4930.0 L 3300.0,4960.0 C 3319.0,4977.0 3341.0,4990.0 3349.0,4990.0 C 3357.0,4990.0 3372.0,4998.0 3383.0,5008.0 C 3398.0,5022.0 3428.0,5026.0 3534.0,5031.0 C 3656.0,5036.0 3669.0,5039.0 3728.0,5068.0 C 3762.0,5086.0 3790.0,5097.0 3790.0,5092.0 C 3790.0,5088.0 3756.0,5051.0 3715.0,5010.0 C 3674.0,4969.0 3640.0,4932.0 3640.0,4928.0 C 3640.0,4923.0 3669.0,4920.0 3704.0,4920.0 C 3740.0,4920.0 3772.0,4915.0 3775.0,4909.0 C 3779.0,4903.0 3788.0,4901.0 3796.0,4904.0 C 3803.0,4907.0 3814.0,4902.0 3819.0,4893.0 C 3827.0,4878.0 3830.0,4878.0 3854.0,4893.0 C 3875.0,4907.0 3878.0,4914.0 3870.0,4934.0 C 3865.0,4947.0 3864.0,4967.0 3867.0,4979.0 C 3871.0,4997.0 3868.0,5000.0 3844.0,5000.0 C 3808.0,5000.0 3783.0,5042.0 3806.0,5061.0 C 3814.0,5067.0 3817.0,5076.0 3814.0,5081.0 C 3811.0,5086.0 3818.0,5103.0 3829.0,5119.0 C 3849.0,5146.0 3849.0,5150.0 3834.0,5194.0 C 3825.0,5220.0 3809.0,5245.0 3796.0,5251.0 C 3785.0,5257.0 3763.0,5274.0 3748.0,5288.0 C 3727.0,5307.0 3723.0,5317.0 3731.0,5331.0 C 3741.0,5351.0 3723.0,5490.0 3709.0,5490.0 C 3705.0,5490.0 3689.0,5479.0 3673.0,5466.0 C 3658.0,5453.0 3626.0,5433.0 3604.0,5422.0 C 3563.0,5401.0 3562.0,5401.0 3542.0,5420.0 C 3519.0,5441.0 3522.0,5477.0 3548.0,5497.0 C 3561.0,5508.0 3559.0,5511.0 3537.0,5519.0 C 3522.0,5525.0 3497.0,5544.0 3481.0,5562.0 C 3460.0,5585.0 3448.0,5592.0 3441.0,5584.0 C 3434.0,5578.0 3408.0,5576.0 3374.0,5580.0 C 3319.0,5586.0 3318.0,5586.0 3294.0,5551.0 C 3281.0,5531.0 3270.0,5508.0 3270.0,5500.0 C 3270.0,5491.0 3252.0,5466.0 3230.0,5445.0 C 3197.0,5413.0 3193.0,5404.0 3205.0,5397.0 C 3223.0,5387.0 3224.0,5370.0 3209.0,5337.0 C 3197.0,5311.0 3108.0,5254.0 3070.0,5248.0 C 3049.0,5245.0 3043.0,5237.0 3031.0,5184.0 C 3019.0,5131.0 3013.0,5121.0 2980.0,5102.0 L 2942.0,5081.0 L 2936.0,5104.0 C 2933.0,5117.0 2927.0,5135.0 2924.0,5144.0 C 2920.0,5156.0 2922.0,5159.0 2933.0,5154.0 C 2941.0,5151.0 2951.0,5153.0 2955.0,5159.0 C 2958.0,5165.0 2954.0,5170.0 2946.0,5170.0 C 2925.0,5170.0 2926.0,5188.0 2950.0,5228.0 L 2970.0,5260.0 L 2937.0,5260.0 C 2920.0,5261.0 2887.0,5269.0 2865.0,5280.0 C 2843.0,5291.0 2819.0,5299.0 2813.0,5300.0 C 2806.0,5300.0 2800.0,5304.0 2800.0,5310.0 C 2800.0,5327.0 2750.0,5353.0 2719.0,5352.0 C 2692.0,5351.0 2690.0,5354.0 2690.0,5391.0 C 2690.0,5421.0 2686.0,5430.0 2673.0,5430.0 C 2636.0,5430.0 2728.0,5503.0 2831.0,5555.0 C 2889.0,5584.0 2942.0,5615.0 2949.0,5624.0 C 2957.0,5633.0 2971.0,5640.0 2980.0,5640.0 C 3006.0,5640.0 3090.0,5677.0 3127.0,5706.0 C 3144.0,5719.0 3162.0,5730.0 3166.0,5730.0 C 3179.0,5730.0 3107.0,5659.0 3085.0,5650.0 C 3069.0,5643.0 3068.0,5641.0 3082.0,5641.0 C 3091.0,5640.0 3100.0,5633.0 3102.0,5625.0 C 3105.0,5612.0 3111.0,5613.0 3144.0,5631.0 C 3176.0,5648.0 3188.0,5650.0 3207.0,5641.0 C 3240.0,5626.0 3270.0,5627.0 3270.0,5644.0 C 3270.0,5651.0 3250.0,5674.0 3225.0,5694.0 C 3175.0,5735.0 3166.0,5756.0 3205.0,5738.0 C 3224.0,5729.0 3233.0,5729.0 3242.0,5738.0 C 3249.0,5745.0 3263.0,5750.0 3275.0,5750.0 C 3302.0,5750.0 3360.0,5786.0 3360.0,5803.0 C 3360.0,5811.0 3369.0,5825.0 3380.0,5835.0 C 3394.0,5848.0 3397.0,5857.0 3390.0,5864.0 C 3369.0,5885.0 3382.0,5890.0 3463.0,5890.0 C 3529.0,5889.0 3549.0,5886.0 3568.0,5870.0 C 3596.0,5846.0 3589.0,5830.0 3550.0,5830.0 C 3520.0,5830.0 3486.0,5805.0 3495.0,5789.0 C 3505.0,5774.0 3543.0,5779.0 3564.0,5799.0 C 3595.0,5828.0 3624.0,5830.0 3628.0,5803.0 C 3631.0,5785.0 3622.0,5776.0 3586.0,5758.0 C 3555.0,5743.0 3540.0,5730.0 3540.0,5717.0 C 3540.0,5699.0 3535.0,5698.0 3480.0,5703.0 C 3433.0,5707.0 3415.0,5705.0 3399.0,5691.0 C 3381.0,5676.0 3380.0,5673.0 3393.0,5662.0 C 3405.0,5652.0 3416.0,5653.0 3449.0,5666.0 C 3489.0,5682.0 3492.0,5682.0 3511.0,5664.0 C 3523.0,5653.0 3538.0,5633.0 3545.0,5619.0 C 3556.0,5599.0 3575.0,5589.0 3629.0,5573.0 C 3707.0,5550.0 3717.0,5556.0 3679.0,5604.0 C 3653.0,5637.0 3668.0,5637.0 3717.0,5605.0 C 3753.0,5580.0 3754.0,5580.0 3761.0,5599.0 C 3765.0,5609.0 3777.0,5623.0 3786.0,5628.0 C 3805.0,5638.0 3805.0,5639.0 3755.0,5706.0 C 3748.0,5716.0 3751.0,5725.0 3763.0,5737.0 C 3780.0,5754.0 3782.0,5754.0 3808.0,5722.0 C 3837.0,5688.0 3864.0,5680.0 3874.0,5705.0 C 3877.0,5713.0 3889.0,5720.0 3900.0,5720.0 C 3912.0,5720.0 3930.0,5728.0 3941.0,5739.0 C 3961.0,5757.0 3961.0,5757.0 3924.0,5789.0 C 3901.0,5809.0 3880.0,5820.0 3869.0,5817.0 C 3841.0,5810.0 3824.0,5836.0 3844.0,5855.0 C 3853.0,5864.0 3860.0,5877.0 3860.0,5884.0 C 3860.0,5901.0 3827.0,5930.0 3808.0,5930.0 C 3799.0,5930.0 3790.0,5937.0 3786.0,5945.0 C 3783.0,5953.0 3770.0,5960.0 3756.0,5960.0 C 3741.0,5960.0 3722.0,5972.0 3704.0,5992.0 C 3679.0,6023.0 3672.0,6025.0 3596.0,6031.0 C 3509.0,6038.0 3443.0,6025.0 3409.0,5994.0 C 3393.0,5979.0 3390.0,5979.0 3390.0,5992.0 C 3390.0,6001.0 3400.0,6015.0 3413.0,6023.0 C 3434.0,6039.0 3435.0,6039.0 3414.0,6039.0 C 3377.0,6040.0 3306.0,6010.0 3268.0,5977.0 C 3238.0,5950.0 3233.0,5941.0 3241.0,5923.0 C 3247.0,5906.0 3257.0,5900.0 3281.0,5900.0 C 3305.0,5900.0 3311.0,5897.0 3306.0,5884.0 C 3303.0,5875.0 3300.0,5867.0 3300.0,5865.0 C 3300.0,5858.0 3202.0,5792.0 3182.0,5786.0 C 3155.0,5777.0 3151.0,5804.0 3176.0,5818.0 C 3198.0,5830.0 3190.0,5864.0 3163.0,5868.0 C 3146.0,5871.0 3141.0,5879.0 3138.0,5918.0 C 3132.0,5976.0 3140.0,5987.0 3193.0,5995.0 C 3216.0,5999.0 3253.0,6013.0 3275.0,6026.0 L 3315.0,6050.0 L 3243.0,6050.0 C 3176.0,6050.0 3170.0,6048.0 3146.0,6020.0" fill="pink"/>
	<path d="M 2338.0,3730.0 C 2322.0,3718.0 2310.0,3700.0 2310.0,3689.0 C 2310.0,3663.0 2325.0,3665.0 2347.0,3693.0 C 2377.0,3731.0 2387.0,3732.0 2453.0,3709.0 C 2525.0,3684.0 2550.0,3665.0 2550.0,3636.0 C 2550.0,3595.0 2562.0,3590.0 2633.0,3597.0 C 2670.0,3600.0 2708.0,3608.0 2717.0,3615.0 C 2732.0,3626.0 2729.0,3629.0 2698.0,3639.0 C 2679.0,3645.0 2650.0,3664.0 2635.0,3680.0 C 2600.0,3716.0 2536.0,3737.0 2437.0,3745.0 C 2374.0,3750.0 2362.0,3748.0 2338.0,3730.0" fill="pink"/>
	<path d="M 2775.0,3588.0 C 2782.0,3557.0 2771.0,3542.0 2736.0,3538.0 C 2686.0,3533.0 2692.0,3510.0 2744.0,3510.0 C 2769.0,3510.0 2790.0,3506.0 2790.0,3500.0 C 2790.0,3484.0 2822.0,3489.0 2835.0,3507.0 C 2843.0,3517.0 2867.0,3525.0 2904.0,3528.0 C 2935.0,3530.0 2960.0,3536.0 2960.0,3541.0 C 2960.0,3545.0 2945.0,3560.0 2927.0,3574.0 C 2904.0,3592.0 2883.0,3599.0 2855.0,3598.0 C 2833.0,3597.0 2805.0,3600.0 2792.0,3604.0 C 2772.0,3611.0 2770.0,3609.0 2775.0,3588.0" fill="pink"/>
</svg>
