<?xml version="1.0" ?>
<svg xmlns="http://www.w3.org/2000/svg" xmlns:ev="http://www.w3.org/2001/xml-events" xmlns:xlink="http://www.w3.org/1999/xlink" baseProfile="full" height="466px" version="1.1" viewBox="-1286.4 -999.1555555555555 15372.8 11925.866666666665" width="600px">
	<defs/>
	<path d="M 3406.0,9916.0 C 3391.0,9907.0 3360.0,9900.0 3339.0,9900.0 C 3295.0,9900.0 3285.0,9889.0 3301.0,9859.0 C 3312.0,9838.0 3317.0,9838.0 3414.0,9843.0 C 3469.0,9847.0 3538.0,9852.0 3565.0,9855.0 C 3611.0,9859.0 3609.0,9858.0 3541.0,9840.0 C 3456.0,9817.0 3455.0,9817.0 3464.0,9794.0 C 3469.0,9782.0 3478.0,9779.0 3501.0,9784.0 C 3518.0,9787.0 3546.0,9784.0 3565.0,9776.0 C 3583.0,9768.0 3633.0,9759.0 3676.0,9755.0 C 3720.0,9751.0 3786.0,9742.0 3824.0,9734.0 C 3913.0,9717.0 3960.0,9736.0 3913.0,9772.0 C 3903.0,9779.0 3890.0,9794.0 3884.0,9805.0 C 3874.0,9822.0 3862.0,9825.0 3809.0,9825.0 C 3774.0,9825.0 3735.0,9831.0 3724.0,9837.0 C 3712.0,9844.0 3684.0,9852.0 3662.0,9856.0 C 3631.0,9861.0 3623.0,9866.0 3627.0,9879.0 C 3634.0,9908.0 3609.0,9918.0 3520.0,9925.0 C 3453.0,9930.0 3429.0,9928.0 3406.0,9916.0" fill="pink"/>
	<path d="M 4042.0,9779.0 C 4016.0,9769.0 3996.0,9725.0 4004.0,9694.0 C 4012.0,9665.0 4042.0,9656.0 4084.0,9670.0 C 4102.0,9676.0 4153.0,9680.0 4198.0,9679.0 C 4287.0,9676.0 4317.0,9688.0 4300.0,9720.0 C 4290.0,9738.0 4238.0,9748.0 4133.0,9753.0 C 4108.0,9754.0 4090.0,9759.0 4090.0,9766.0 C 4090.0,9783.0 4069.0,9789.0 4042.0,9779.0" fill="pink"/>
	<path d="M 4251.0,9621.0 C 4243.0,9608.0 4243.0,9593.0 4250.0,9575.0 C 4264.0,9537.0 4264.0,9537.0 4216.0,9544.0 C 4178.0,9550.0 4172.0,9548.0 4167.0,9530.0 C 4163.0,9515.0 4154.0,9510.0 4126.0,9510.0 C 4107.0,9510.0 4069.0,9505.0 4041.0,9499.0 C 4001.0,9491.0 3986.0,9492.0 3961.0,9504.0 C 3917.0,9527.0 3818.0,9525.0 3803.0,9502.0 C 3794.0,9486.0 3774.0,9482.0 3690.0,9476.0 C 3623.0,9472.0 3578.0,9464.0 3557.0,9452.0 C 3539.0,9443.0 3509.0,9433.0 3490.0,9430.0 C 3436.0,9422.0 3448.0,9402.0 3529.0,9361.0 C 3570.0,9341.0 3602.0,9321.0 3599.0,9315.0 C 3597.0,9309.0 3564.0,9306.0 3520.0,9308.0 C 3479.0,9310.0 3438.0,9311.0 3430.0,9310.0 C 3422.0,9309.0 3362.0,9307.0 3297.0,9305.0 C 3233.0,9304.0 3177.0,9300.0 3174.0,9297.0 C 3163.0,9286.0 3190.0,9251.0 3212.0,9248.0 C 3226.0,9246.0 3236.0,9236.0 3240.0,9220.0 C 3246.0,9197.0 3250.0,9195.0 3293.0,9198.0 C 3322.0,9200.0 3349.0,9196.0 3367.0,9186.0 C 3382.0,9177.0 3420.0,9161.0 3450.0,9150.0 C 3480.0,9139.0 3503.0,9130.0 3500.0,9130.0 C 3497.0,9129.0 3461.0,9129.0 3420.0,9129.0 C 3335.0,9129.0 3262.0,9138.0 3254.0,9151.0 C 3251.0,9156.0 3234.0,9160.0 3217.0,9160.0 C 3199.0,9160.0 3162.0,9169.0 3133.0,9180.0 C 3077.0,9201.0 3055.0,9193.0 3084.0,9161.0 C 3106.0,9137.0 3104.0,9127.0 3081.0,9140.0 C 3051.0,9155.0 2989.0,9153.0 2996.0,9136.0 C 3005.0,9114.0 3045.0,9101.0 3102.0,9104.0 C 3148.0,9106.0 3162.0,9103.0 3185.0,9083.0 C 3200.0,9070.0 3210.0,9056.0 3207.0,9053.0 C 3200.0,9047.0 2975.0,9087.0 2943.0,9100.0 C 2930.0,9105.0 2920.0,9118.0 2920.0,9129.0 C 2920.0,9162.0 2899.0,9197.0 2873.0,9209.0 C 2835.0,9226.0 2824.0,9222.0 2848.0,9199.0 C 2873.0,9177.0 2869.0,9160.0 2840.0,9160.0 C 2829.0,9160.0 2816.0,9151.0 2810.0,9141.0 C 2802.0,9124.0 2806.0,9116.0 2832.0,9091.0 C 2850.0,9074.0 2870.0,9060.0 2877.0,9060.0 C 2897.0,9060.0 2920.0,9030.0 2920.0,9002.0 C 2921.0,8985.0 2936.0,8958.0 2959.0,8931.0 L 2998.0,8888.0 L 3118.0,8886.0 C 3218.0,8884.0 3242.0,8881.0 3266.0,8865.0 C 3282.0,8854.0 3304.0,8841.0 3315.0,8835.0 C 3326.0,8829.0 3336.0,8816.0 3338.0,8805.0 C 3343.0,8778.0 3360.0,8760.0 3387.0,8749.0 C 3421.0,8736.0 3415.0,8720.0 3377.0,8720.0 C 3341.0,8720.0 3317.0,8739.0 3305.0,8779.0 C 3300.0,8794.0 3280.0,8810.0 3243.0,8827.0 C 3193.0,8850.0 3181.0,8852.0 3131.0,8844.0 C 3091.0,8838.0 3074.0,8830.0 3072.0,8818.0 C 3070.0,8809.0 3077.0,8799.0 3088.0,8795.0 C 3104.0,8791.0 3109.0,8778.0 3112.0,8737.0 C 3117.0,8682.0 3109.0,8664.0 3075.0,8649.0 C 3064.0,8644.0 3044.0,8632.0 3030.0,8621.0 C 3007.0,8603.0 2999.0,8603.0 2912.0,8614.0 C 2861.0,8621.0 2814.0,8632.0 2808.0,8638.0 C 2801.0,8645.0 2788.0,8650.0 2778.0,8650.0 C 2768.0,8650.0 2760.0,8655.0 2760.0,8660.0 C 2760.0,8673.0 2786.0,8673.0 2812.0,8659.0 C 2823.0,8653.0 2857.0,8645.0 2887.0,8641.0 C 2945.0,8633.0 2950.0,8636.0 2997.0,8715.0 C 3021.0,8755.0 3022.0,8761.0 3006.0,8779.0 C 2997.0,8789.0 2990.0,8803.0 2992.0,8811.0 C 2994.0,8818.0 2977.0,8833.0 2955.0,8845.0 C 2933.0,8857.0 2905.0,8882.0 2893.0,8901.0 C 2881.0,8920.0 2862.0,8944.0 2852.0,8955.0 C 2841.0,8966.0 2830.0,8987.0 2826.0,9002.0 C 2823.0,9016.0 2797.0,9049.0 2769.0,9074.0 C 2741.0,9099.0 2721.0,9124.0 2725.0,9130.0 C 2735.0,9146.0 2712.0,9197.0 2692.0,9206.0 C 2682.0,9210.0 2628.0,9218.0 2571.0,9224.0 C 2480.0,9234.0 2465.0,9234.0 2448.0,9220.0 C 2431.0,9206.0 2430.0,9201.0 2441.0,9177.0 C 2458.0,9139.0 2441.0,9104.0 2400.0,9095.0 C 2364.0,9087.0 2361.0,9057.0 2396.0,9052.0 C 2420.0,9049.0 2450.0,9002.0 2450.0,8966.0 C 2450.0,8937.0 2475.0,8920.0 2518.0,8920.0 C 2534.0,8920.0 2555.0,8911.0 2565.0,8900.0 C 2575.0,8889.0 2593.0,8880.0 2605.0,8880.0 C 2631.0,8880.0 2660.0,8851.0 2660.0,8826.0 C 2660.0,8806.0 2660.0,8806.0 2537.0,8834.0 C 2499.0,8843.0 2460.0,8854.0 2450.0,8860.0 C 2414.0,8880.0 2411.0,8869.0 2440.0,8823.0 C 2457.0,8797.0 2470.0,8768.0 2470.0,8759.0 C 2470.0,8748.0 2448.0,8729.0 2413.0,8709.0 C 2344.0,8669.0 2280.0,8613.0 2280.0,8593.0 C 2280.0,8584.0 2294.0,8550.0 2310.0,8516.0 C 2327.0,8483.0 2349.0,8424.0 2360.0,8385.0 C 2402.0,8239.0 2470.0,7924.0 2470.0,7874.0 C 2470.0,7839.0 2475.0,7818.0 2486.0,7809.0 C 2511.0,7789.0 2555.0,7719.0 2574.0,7671.0 C 2589.0,7632.0 2589.0,7625.0 2575.0,7604.0 C 2566.0,7590.0 2540.0,7575.0 2511.0,7566.0 C 2392.0,7531.0 2378.0,7508.0 2430.0,7427.0 C 2471.0,7362.0 2533.0,7332.0 2588.0,7348.0 C 2612.0,7356.0 2643.0,7377.0 2669.0,7405.0 L 2711.0,7450.0 L 2735.0,7426.0 C 2754.0,7407.0 2760.0,7390.0 2760.0,7359.0 C 2760.0,7336.0 2765.0,7288.0 2771.0,7253.0 C 2777.0,7218.0 2779.0,7165.0 2775.0,7135.0 C 2769.0,7086.0 2764.0,7076.0 2726.0,7045.0 L 2683.0,7010.0 L 2604.0,7043.0 C 2560.0,7062.0 2503.0,7089.0 2475.0,7103.0 C 2403.0,7141.0 2348.0,7147.0 2300.0,7124.0 L 2261.0,7105.0 L 2281.0,7073.0 C 2298.0,7047.0 2299.0,7038.0 2289.0,7021.0 C 2275.0,7000.0 2244.0,6993.0 2135.0,6984.0 C 2055.0,6977.0 2039.0,6966.0 2005.0,6900.0 C 1992.0,6875.0 1970.0,6844.0 1956.0,6830.0 C 1934.0,6810.0 1926.0,6808.0 1912.0,6818.0 C 1881.0,6840.0 1870.0,6842.0 1854.0,6829.0 C 1842.0,6819.0 1839.0,6804.0 1843.0,6767.0 C 1847.0,6725.0 1853.0,6712.0 1889.0,6680.0 C 1928.0,6644.0 1930.0,6639.0 1930.0,6584.0 C 1931.0,6547.0 1938.0,6512.0 1949.0,6491.0 L 1967.0,6457.0 L 1988.0,6487.0 C 2005.0,6511.0 2019.0,6518.0 2057.0,6523.0 C 2094.0,6527.0 2109.0,6534.0 2130.0,6561.0 L 2157.0,6593.0 L 2202.0,6572.0 C 2240.0,6553.0 2250.0,6552.0 2279.0,6563.0 C 2308.0,6574.0 2313.0,6573.0 2326.0,6556.0 C 2334.0,6544.0 2340.0,6513.0 2340.0,6479.0 C 2340.0,6447.0 2345.0,6418.0 2350.0,6415.0 C 2375.0,6399.0 2355.0,6395.0 2302.0,6404.0 C 2269.0,6409.0 2236.0,6410.0 2227.0,6407.0 C 2206.0,6399.0 2205.0,6354.0 2225.0,6346.0 C 2245.0,6339.0 2244.0,6310.0 2224.0,6310.0 C 2216.0,6310.0 2200.0,6315.0 2189.0,6321.0 C 2174.0,6328.0 2165.0,6328.0 2155.0,6320.0 C 2136.0,6304.0 2153.0,6270.0 2180.0,6270.0 C 2190.0,6270.0 2201.0,6261.0 2205.0,6251.0 C 2208.0,6240.0 2222.0,6225.0 2235.0,6216.0 C 2249.0,6207.0 2260.0,6193.0 2260.0,6185.0 C 2260.0,6176.0 2269.0,6170.0 2283.0,6170.0 C 2297.0,6170.0 2309.0,6161.0 2315.0,6148.0 C 2322.0,6132.0 2334.0,6125.0 2355.0,6125.0 C 2382.0,6124.0 2385.0,6121.0 2392.0,6080.0 C 2402.0,6021.0 2441.0,5929.0 2454.0,5933.0 C 2465.0,5937.0 2467.0,5968.0 2459.0,6005.0 C 2456.0,6019.0 2463.0,6027.0 2483.0,6034.0 C 2509.0,6043.0 2514.0,6041.0 2551.0,5997.0 C 2573.0,5971.0 2598.0,5950.0 2605.0,5950.0 C 2612.0,5950.0 2626.0,5943.0 2634.0,5934.0 C 2646.0,5922.0 2648.0,5914.0 2639.0,5898.0 C 2630.0,5881.0 2622.0,5879.0 2592.0,5884.0 C 2571.0,5888.0 2536.0,5893.0 2513.0,5896.0 L 2470.0,5902.0 L 2470.0,5861.0 C 2470.0,5823.0 2472.0,5819.0 2501.0,5813.0 C 2538.0,5806.0 2546.0,5790.0 2531.0,5750.0 C 2518.0,5711.0 2523.0,5700.0 2566.0,5672.0 C 2602.0,5648.0 2613.0,5629.0 2636.0,5542.0 C 2663.0,5440.0 2669.0,5445.0 2513.0,5442.0 C 2382.0,5439.0 2376.0,5440.0 2351.0,5463.0 C 2306.0,5504.0 2277.0,5520.0 2245.0,5520.0 C 2203.0,5520.0 2174.0,5543.0 2166.0,5582.0 C 2148.0,5670.0 2148.0,5680.0 2166.0,5708.0 C 2177.0,5723.0 2187.0,5751.0 2190.0,5770.0 C 2195.0,5803.0 2197.0,5805.0 2233.0,5804.0 C 2296.0,5802.0 2270.0,5847.0 2198.0,5864.0 C 2183.0,5867.0 2155.0,5890.0 2135.0,5914.0 C 2096.0,5962.0 2104.0,5959.0 1933.0,5979.0 C 1841.0,5989.0 1755.0,6025.0 1682.0,6085.0 C 1639.0,6120.0 1588.0,6131.0 1575.0,6110.0 C 1562.0,6090.0 1511.0,6100.0 1477.0,6130.0 C 1420.0,6180.0 1345.0,6196.0 1304.0,6166.0 C 1283.0,6150.0 1282.0,6152.0 1332.0,6121.0 C 1361.0,6104.0 1372.0,6088.0 1383.0,6052.0 C 1401.0,5991.0 1392.0,5975.0 1327.0,5946.0 C 1285.0,5928.0 1259.0,5924.0 1190.0,5925.0 C 1143.0,5926.0 1093.0,5932.0 1077.0,5938.0 C 1062.0,5945.0 1029.0,5949.0 1004.0,5948.0 C 965.0,5946.0 954.0,5950.0 936.0,5972.0 C 909.0,6005.0 868.0,6013.0 710.0,6014.0 C 599.0,6015.0 580.0,6012.0 543.0,5993.0 C 520.0,5980.0 495.0,5961.0 486.0,5949.0 C 472.0,5929.0 465.0,5928.0 403.0,5933.0 C 365.0,5936.0 328.0,5940.0 320.0,5942.0 C 300.0,5946.0 295.0,5909.0 314.0,5898.0 C 360.0,5872.0 304.0,5852.0 173.0,5848.0 C 116.0,5846.0 66.0,5840.0 61.0,5835.0 C 57.0,5829.0 50.0,5808.0 47.0,5787.0 C 41.0,5750.0 42.0,5748.0 86.0,5730.0 C 136.0,5708.0 143.0,5683.0 109.0,5649.0 C 95.0,5635.0 82.0,5630.0 67.0,5635.0 C 13.0,5652.0 0.0,5652.0 0.0,5638.0 C 0.0,5613.0 36.0,5589.0 82.0,5583.0 C 132.0,5576.0 150.0,5565.0 150.0,5540.0 C 150.0,5530.0 159.0,5520.0 171.0,5517.0 C 189.0,5512.0 190.0,5509.0 179.0,5491.0 C 168.0,5474.0 169.0,5468.0 184.0,5451.0 C 199.0,5435.0 215.0,5430.0 256.0,5430.0 C 304.0,5430.0 312.0,5427.0 332.0,5400.0 C 352.0,5373.0 359.0,5370.0 409.0,5370.0 C 461.0,5370.0 466.0,5373.0 482.0,5400.0 C 507.0,5444.0 543.0,5449.0 604.0,5415.0 C 632.0,5400.0 662.0,5381.0 671.0,5374.0 C 695.0,5352.0 776.0,5368.0 826.0,5403.0 C 863.0,5429.0 872.0,5431.0 899.0,5422.0 C 923.0,5413.0 938.0,5414.0 965.0,5426.0 C 996.0,5438.0 1000.0,5438.0 1000.0,5426.0 C 1000.0,5418.0 995.0,5408.0 989.0,5404.0 C 982.0,5400.0 979.0,5355.0 979.0,5281.0 C 980.0,5129.0 971.0,5031.0 955.0,5006.0 C 947.0,4994.0 934.0,4956.0 925.0,4920.0 C 908.0,4853.0 887.0,4805.0 871.0,4795.0 C 866.0,4792.0 822.0,4794.0 774.0,4800.0 C 726.0,4805.0 684.0,4808.0 682.0,4806.0 C 677.0,4800.0 746.0,4654.0 758.0,4646.0 C 764.0,4643.0 776.0,4616.0 784.0,4587.0 C 792.0,4558.0 815.0,4516.0 833.0,4495.0 C 852.0,4473.0 869.0,4446.0 871.0,4435.0 C 878.0,4402.0 908.0,4405.0 930.0,4442.0 C 944.0,4465.0 950.0,4492.0 950.0,4533.0 C 950.0,4564.0 954.0,4590.0 959.0,4590.0 C 974.0,4590.0 981.0,4560.0 970.0,4540.0 C 959.0,4519.0 957.0,4451.0 966.0,4426.0 C 969.0,4417.0 982.0,4410.0 994.0,4410.0 C 1026.0,4410.0 1056.0,4385.0 1095.0,4327.0 C 1114.0,4298.0 1150.0,4248.0 1174.0,4215.0 C 1198.0,4182.0 1221.0,4139.0 1224.0,4119.0 C 1227.0,4100.0 1239.0,4075.0 1250.0,4065.0 C 1261.0,4055.0 1270.0,4041.0 1270.0,4033.0 C 1270.0,4026.0 1282.0,4015.0 1297.0,4009.0 C 1359.0,3986.0 1423.0,3897.0 1427.0,3830.0 C 1433.0,3708.0 1440.0,3680.0 1478.0,3622.0 C 1507.0,3578.0 1522.0,3564.0 1544.0,3562.0 C 1588.0,3557.0 1628.0,3510.0 1642.0,3448.0 C 1649.0,3414.0 1662.0,3388.0 1677.0,3377.0 C 1689.0,3367.0 1700.0,3353.0 1700.0,3346.0 C 1700.0,3339.0 1720.0,3310.0 1745.0,3281.0 C 1770.0,3252.0 1790.0,3220.0 1790.0,3209.0 C 1790.0,3198.0 1801.0,3185.0 1814.0,3179.0 C 1838.0,3168.0 1860.0,3132.0 1860.0,3105.0 C 1860.0,3097.0 1851.0,3086.0 1840.0,3080.0 C 1814.0,3066.0 1814.0,3031.0 1841.0,2980.0 C 1852.0,2958.0 1864.0,2921.0 1867.0,2898.0 C 1871.0,2874.0 1879.0,2845.0 1887.0,2833.0 C 1896.0,2819.0 1899.0,2800.0 1895.0,2778.0 C 1889.0,2748.0 1892.0,2741.0 1914.0,2727.0 C 1953.0,2701.0 1989.0,2706.0 2101.0,2755.0 C 2158.0,2779.0 2215.0,2800.0 2228.0,2800.0 C 2258.0,2800.0 2312.0,2823.0 2329.0,2843.0 C 2339.0,2855.0 2347.0,2857.0 2360.0,2850.0 C 2383.0,2838.0 2421.0,2851.0 2448.0,2881.0 C 2472.0,2906.0 2605.0,2969.0 2635.0,2970.0 C 2646.0,2970.0 2679.0,2981.0 2709.0,2995.0 L 2763.0,3020.0 L 2758.0,3064.0 C 2753.0,3106.0 2754.0,3109.0 2792.0,3134.0 C 2814.0,3148.0 2851.0,3163.0 2873.0,3166.0 C 2896.0,3170.0 2932.0,3181.0 2953.0,3192.0 C 2981.0,3206.0 2995.0,3208.0 3009.0,3200.0 C 3034.0,3187.0 3067.0,3187.0 3075.0,3200.0 C 3079.0,3206.0 3074.0,3222.0 3065.0,3236.0 C 3042.0,3272.0 3052.0,3287.0 3102.0,3295.0 C 3154.0,3304.0 3170.0,3315.0 3170.0,3344.0 C 3170.0,3357.0 3189.0,3384.0 3215.0,3410.0 C 3259.0,3453.0 3290.0,3518.0 3290.0,3567.0 C 3290.0,3584.0 3296.0,3590.0 3313.0,3590.0 C 3339.0,3590.0 3360.0,3607.0 3360.0,3629.0 C 3360.0,3637.0 3379.0,3663.0 3402.0,3687.0 C 3437.0,3722.0 3443.0,3736.0 3444.0,3772.0 C 3445.0,3804.0 3441.0,3815.0 3430.0,3815.0 C 3405.0,3815.0 3358.0,3869.0 3365.0,3891.0 C 3370.0,3905.0 3365.0,3912.0 3345.0,3920.0 C 3331.0,3925.0 3309.0,3930.0 3297.0,3930.0 C 3250.0,3930.0 3203.0,3953.0 3153.0,3999.0 C 3107.0,4041.0 3099.0,4053.0 3094.0,4096.0 C 3090.0,4123.0 3079.0,4155.0 3068.0,4167.0 C 3050.0,4186.0 3050.0,4189.0 3065.0,4198.0 C 3074.0,4203.0 3080.0,4215.0 3079.0,4225.0 C 3074.0,4247.0 3050.0,4257.0 3050.0,4237.0 C 3050.0,4229.0 3037.0,4207.0 3020.0,4189.0 C 3004.0,4170.0 2990.0,4150.0 2990.0,4144.0 C 2990.0,4138.0 2981.0,4125.0 2970.0,4115.0 C 2959.0,4105.0 2950.0,4089.0 2950.0,4080.0 C 2950.0,4055.0 2899.0,4012.0 2847.0,3994.0 C 2804.0,3979.0 2799.0,3980.0 2771.0,3996.0 C 2747.0,4010.0 2738.0,4012.0 2728.0,4002.0 C 2714.0,3988.0 2686.0,3986.0 2662.0,3999.0 C 2653.0,4004.0 2637.0,4011.0 2627.0,4014.0 C 2611.0,4019.0 2610.0,4028.0 2616.0,4104.0 C 2623.0,4189.0 2623.0,4189.0 2596.0,4201.0 C 2582.0,4208.0 2567.0,4210.0 2563.0,4206.0 C 2559.0,4202.0 2557.0,4173.0 2558.0,4140.0 C 2559.0,4108.0 2556.0,4079.0 2551.0,4076.0 C 2536.0,4066.0 2508.0,4101.0 2514.0,4123.0 C 2517.0,4137.0 2509.0,4152.0 2489.0,4171.0 C 2466.0,4193.0 2458.0,4210.0 2454.0,4247.0 C 2451.0,4282.0 2444.0,4300.0 2427.0,4312.0 C 2382.0,4346.0 2340.0,4397.0 2312.0,4451.0 C 2262.0,4547.0 2244.0,4573.0 2222.0,4581.0 C 2189.0,4594.0 2195.0,4608.0 2250.0,4642.0 C 2278.0,4659.0 2300.0,4677.0 2300.0,4681.0 C 2300.0,4697.0 2339.0,4690.0 2349.0,4673.0 C 2356.0,4659.0 2361.0,4658.0 2373.0,4668.0 C 2387.0,4680.0 2420.0,4675.0 2420.0,4661.0 C 2420.0,4658.0 2438.0,4631.0 2460.0,4603.0 C 2481.0,4574.0 2513.0,4518.0 2530.0,4478.0 C 2547.0,4438.0 2566.0,4402.0 2573.0,4398.0 C 2580.0,4394.0 2602.0,4390.0 2622.0,4390.0 C 2642.0,4390.0 2661.0,4386.0 2664.0,4381.0 C 2674.0,4366.0 2778.0,4310.0 2797.0,4310.0 C 2807.0,4310.0 2830.0,4301.0 2848.0,4290.0 C 2893.0,4263.0 2904.0,4264.0 2951.0,4307.0 C 2987.0,4339.0 2998.0,4344.0 3042.0,4344.0 C 3086.0,4344.0 3096.0,4340.0 3121.0,4312.0 C 3142.0,4289.0 3150.0,4269.0 3150.0,4244.0 C 3150.0,4195.0 3194.0,4156.0 3252.0,4154.0 C 3323.0,4151.0 3452.0,4130.0 3500.0,4113.0 C 3553.0,4094.0 3584.0,4094.0 3705.0,4110.0 C 3755.0,4117.0 3807.0,4122.0 3823.0,4121.0 C 3838.0,4121.0 3876.0,4119.0 3908.0,4118.0 C 3950.0,4116.0 3974.0,4120.0 3993.0,4133.0 C 4043.0,4166.0 4096.0,4151.0 4084.0,4106.0 C 4079.0,4083.0 4082.0,4078.0 4114.0,4065.0 C 4138.0,4055.0 4156.0,4037.0 4170.0,4010.0 C 4181.0,3988.0 4204.0,3963.0 4221.0,3954.0 C 4238.0,3946.0 4272.0,3920.0 4297.0,3898.0 C 4343.0,3855.0 4406.0,3836.0 4448.0,3851.0 C 4481.0,3863.0 4483.0,3844.0 4453.0,3820.0 C 4433.0,3805.0 4417.0,3800.0 4395.0,3804.0 C 4379.0,3807.0 4358.0,3805.0 4350.0,3800.0 C 4338.0,3792.0 4353.0,3773.0 4429.0,3700.0 C 4480.0,3651.0 4528.0,3610.0 4534.0,3610.0 C 4541.0,3610.0 4569.0,3617.0 4597.0,3625.0 C 4654.0,3642.0 4670.0,3668.0 4663.0,3731.0 C 4660.0,3754.0 4663.0,3770.0 4673.0,3778.0 C 4686.0,3789.0 4691.0,3784.0 4705.0,3746.0 C 4714.0,3722.0 4719.0,3697.0 4715.0,3691.0 C 4712.0,3685.0 4718.0,3668.0 4729.0,3654.0 C 4754.0,3622.0 4756.0,3588.0 4735.0,3556.0 C 4716.0,3528.0 4722.0,3501.0 4774.0,3355.0 C 4799.0,3284.0 4810.0,3238.0 4810.0,3198.0 C 4810.0,3149.0 4814.0,3136.0 4839.0,3108.0 C 4854.0,3090.0 4882.0,3046.0 4900.0,3010.0 C 4918.0,2974.0 4944.0,2932.0 4958.0,2917.0 C 4984.0,2890.0 4988.0,2877.0 5019.0,2702.0 C 5025.0,2672.0 5037.0,2650.0 5061.0,2627.0 C 5103.0,2589.0 5180.0,2411.0 5188.0,2338.0 C 5191.0,2306.0 5200.0,2284.0 5216.0,2269.0 C 5229.0,2257.0 5240.0,2238.0 5240.0,2229.0 C 5240.0,2206.0 5269.0,2190.0 5313.0,2190.0 C 5344.0,2190.0 5349.0,2194.0 5365.0,2235.0 C 5374.0,2261.0 5397.0,2293.0 5416.0,2308.0 C 5436.0,2324.0 5450.0,2344.0 5450.0,2357.0 C 5450.0,2369.0 5455.0,2382.0 5460.0,2385.0 C 5466.0,2389.0 5468.0,2400.0 5465.0,2411.0 C 5460.0,2426.0 5464.0,2430.0 5483.0,2430.0 C 5522.0,2430.0 5535.0,2454.0 5521.0,2499.0 C 5505.0,2555.0 5507.0,2608.0 5531.0,2678.0 C 5548.0,2728.0 5550.0,2746.0 5541.0,2768.0 C 5536.0,2783.0 5531.0,2816.0 5531.0,2841.0 C 5531.0,2866.0 5526.0,2906.0 5520.0,2930.0 C 5502.0,2997.0 5532.0,3050.0 5588.0,3050.0 C 5602.0,3050.0 5609.0,3059.0 5614.0,3081.0 C 5619.0,3108.0 5623.0,3111.0 5644.0,3106.0 C 5675.0,3098.0 5715.0,3130.0 5730.0,3175.0 C 5736.0,3194.0 5753.0,3219.0 5768.0,3231.0 C 5783.0,3242.0 5797.0,3261.0 5800.0,3273.0 C 5803.0,3286.0 5815.0,3296.0 5827.0,3298.0 C 5840.0,3300.0 5861.0,3321.0 5880.0,3351.0 C 5913.0,3402.0 6028.0,3510.0 6049.0,3510.0 C 6056.0,3510.0 6072.0,3521.0 6085.0,3535.0 C 6105.0,3555.0 6110.0,3569.0 6110.0,3613.0 C 6110.0,3653.0 6115.0,3671.0 6128.0,3683.0 C 6138.0,3693.0 6150.0,3700.0 6155.0,3700.0 C 6160.0,3700.0 6172.0,3708.0 6182.0,3717.0 C 6198.0,3731.0 6203.0,3732.0 6209.0,3721.0 C 6215.0,3711.0 6223.0,3710.0 6235.0,3718.0 C 6245.0,3723.0 6270.0,3725.0 6291.0,3723.0 C 6338.0,3716.0 6380.0,3726.0 6380.0,3744.0 C 6380.0,3753.0 6388.0,3756.0 6404.0,3753.0 C 6417.0,3750.0 6431.0,3753.0 6434.0,3759.0 C 6438.0,3765.0 6450.0,3770.0 6460.0,3770.0 C 6474.0,3770.0 6480.0,3779.0 6482.0,3807.0 C 6484.0,3837.0 6489.0,3845.0 6505.0,3845.0 C 6537.0,3845.0 6572.0,3761.0 6574.0,3681.0 C 6575.0,3621.0 6579.0,3610.0 6614.0,3565.0 C 6635.0,3538.0 6654.0,3513.0 6655.0,3512.0 C 6657.0,3510.0 6672.0,3516.0 6689.0,3526.0 C 6727.0,3548.0 6762.0,3535.0 6785.0,3491.0 C 6799.0,3463.0 6799.0,3460.0 6780.0,3450.0 C 6741.0,3429.0 6765.0,3381.0 6806.0,3397.0 C 6832.0,3407.0 6867.0,3362.0 6890.0,3289.0 C 6910.0,3229.0 6911.0,3213.0 6901.0,3181.0 C 6886.0,3130.0 6887.0,3085.0 6904.0,3071.0 C 6912.0,3064.0 6944.0,3061.0 6985.0,3063.0 C 7045.0,3066.0 7056.0,3070.0 7075.0,3093.0 C 7086.0,3108.0 7103.0,3120.0 7113.0,3120.0 C 7126.0,3120.0 7130.0,3129.0 7130.0,3160.0 C 7130.0,3210.0 7154.0,3225.0 7182.0,3191.0 C 7192.0,3178.0 7200.0,3161.0 7200.0,3152.0 C 7200.0,3143.0 7212.0,3124.0 7226.0,3109.0 C 7246.0,3088.0 7254.0,3067.0 7260.0,3018.0 C 7264.0,2983.0 7275.0,2937.0 7285.0,2915.0 C 7296.0,2890.0 7300.0,2864.0 7296.0,2841.0 C 7291.0,2811.0 7295.0,2802.0 7316.0,2785.0 C 7339.0,2766.0 7341.0,2758.0 7342.0,2674.0 C 7344.0,2593.0 7346.0,2582.0 7364.0,2574.0 C 7393.0,2562.0 7396.0,2531.0 7371.0,2514.0 C 7344.0,2495.0 7343.0,2441.0 7369.0,2409.0 C 7388.0,2386.0 7388.0,2385.0 7365.0,2345.0 C 7349.0,2317.0 7341.0,2286.0 7339.0,2245.0 C 7337.0,2186.0 7337.0,2185.0 7363.0,2188.0 C 7384.0,2190.0 7402.0,2178.0 7451.0,2128.0 C 7484.0,2093.0 7519.0,2052.0 7527.0,2035.0 C 7535.0,2019.0 7554.0,1993.0 7568.0,1977.0 C 7589.0,1955.0 7596.0,1935.0 7603.0,1872.0 C 7608.0,1830.0 7611.0,1784.0 7611.0,1771.0 C 7610.0,1758.0 7623.0,1733.0 7639.0,1715.0 C 7655.0,1697.0 7678.0,1652.0 7690.0,1615.0 C 7707.0,1565.0 7718.0,1546.0 7738.0,1537.0 C 7753.0,1530.0 7784.0,1506.0 7807.0,1483.0 C 7831.0,1460.0 7871.0,1435.0 7897.0,1426.0 C 7939.0,1412.0 7946.0,1412.0 7967.0,1425.0 C 7984.0,1436.0 7990.0,1450.0 7990.0,1476.0 C 7990.0,1510.0 7980.0,1525.0 7926.0,1568.0 C 7913.0,1578.0 7910.0,1602.0 7910.0,1688.0 C 7910.0,1780.0 7906.0,1802.0 7886.0,1847.0 C 7872.0,1875.0 7850.0,1906.0 7837.0,1915.0 C 7823.0,1924.0 7810.0,1940.0 7807.0,1950.0 C 7804.0,1962.0 7793.0,1970.0 7782.0,1970.0 C 7769.0,1970.0 7758.0,1980.0 7752.0,1999.0 C 7744.0,2020.0 7732.0,2031.0 7703.0,2040.0 C 7639.0,2059.0 7622.0,2071.0 7604.0,2109.0 C 7595.0,2129.0 7574.0,2167.0 7557.0,2193.0 C 7541.0,2219.0 7524.0,2255.0 7521.0,2273.0 C 7516.0,2295.0 7507.0,2306.0 7491.0,2310.0 C 7474.0,2314.0 7462.0,2329.0 7449.0,2363.0 C 7427.0,2419.0 7433.0,2457.0 7475.0,2537.0 C 7496.0,2576.0 7500.0,2597.0 7500.0,2671.0 C 7500.0,2750.0 7502.0,2760.0 7522.0,2774.0 C 7534.0,2783.0 7555.0,2790.0 7567.0,2790.0 C 7588.0,2790.0 7590.0,2786.0 7588.0,2748.0 L 7585.0,2706.0 L 7634.0,2698.0 C 7668.0,2693.0 7691.0,2683.0 7707.0,2666.0 C 7720.0,2652.0 7741.0,2640.0 7754.0,2640.0 C 7769.0,2640.0 7781.0,2631.0 7788.0,2615.0 C 7794.0,2601.0 7804.0,2590.0 7810.0,2590.0 C 7815.0,2590.0 7820.0,2572.0 7820.0,2550.0 C 7820.0,2518.0 7824.0,2510.0 7838.0,2510.0 C 7848.0,2510.0 7864.0,2497.0 7873.0,2480.0 C 7887.0,2457.0 7898.0,2450.0 7923.0,2450.0 C 7945.0,2449.0 7967.0,2438.0 7992.0,2416.0 C 8028.0,2385.0 8029.0,2382.0 8018.0,2348.0 C 8004.0,2301.0 8015.0,2240.0 8038.0,2240.0 C 8061.0,2240.0 8075.0,2251.0 8089.0,2278.0 C 8095.0,2290.0 8107.0,2300.0 8115.0,2300.0 C 8133.0,2300.0 8210.0,2397.0 8210.0,2420.0 C 8210.0,2445.0 8228.0,2456.0 8279.0,2464.0 C 8339.0,2473.0 8351.0,2481.0 8399.0,2543.0 C 8440.0,2597.0 8440.0,2599.0 8442.0,2681.0 C 8443.0,2783.0 8433.0,2837.0 8409.0,2869.0 C 8398.0,2882.0 8390.0,2904.0 8390.0,2917.0 C 8390.0,2945.0 8368.0,2991.0 8346.0,3009.0 C 8337.0,3017.0 8330.0,3033.0 8330.0,3047.0 C 8330.0,3064.0 8320.0,3076.0 8299.0,3088.0 C 8282.0,3097.0 8249.0,3120.0 8226.0,3138.0 C 8204.0,3156.0 8174.0,3178.0 8161.0,3188.0 C 8107.0,3228.0 8080.0,3259.0 8080.0,3284.0 C 8080.0,3303.0 8075.0,3310.0 8060.0,3310.0 C 8049.0,3310.0 8040.0,3314.0 8040.0,3319.0 C 8040.0,3324.0 8032.0,3336.0 8023.0,3345.0 C 8014.0,3355.0 8003.0,3389.0 7998.0,3422.0 C 7990.0,3480.0 7991.0,3484.0 8020.0,3517.0 C 8041.0,3540.0 8050.0,3561.0 8050.0,3585.0 C 8050.0,3614.0 8054.0,3620.0 8072.0,3620.0 C 8084.0,3620.0 8105.0,3631.0 8119.0,3644.0 C 8157.0,3678.0 8226.0,3703.0 8250.0,3690.0 C 8260.0,3685.0 8279.0,3681.0 8292.0,3683.0 C 8313.0,3685.0 8315.0,3682.0 8312.0,3648.0 C 8309.0,3612.0 8323.0,3572.0 8344.0,3558.0 C 8362.0,3546.0 8407.0,3549.0 8419.0,3564.0 C 8426.0,3572.0 8428.0,3595.0 8424.0,3623.0 C 8415.0,3687.0 8428.0,3700.0 8499.0,3700.0 C 8533.0,3700.0 8572.0,3708.0 8599.0,3720.0 C 8623.0,3731.0 8648.0,3740.0 8656.0,3740.0 C 8663.0,3740.0 8677.0,3751.0 8686.0,3765.0 C 8700.0,3786.0 8707.0,3789.0 8744.0,3784.0 C 8788.0,3778.0 8828.0,3792.0 8879.0,3831.0 C 8892.0,3842.0 8918.0,3850.0 8937.0,3850.0 C 8963.0,3850.0 8973.0,3855.0 8979.0,3873.0 C 8984.0,3885.0 9011.0,3914.0 9039.0,3938.0 C 9067.0,3962.0 9090.0,3988.0 9090.0,3996.0 C 9090.0,4004.0 9106.0,4020.0 9125.0,4031.0 C 9149.0,4046.0 9160.0,4059.0 9160.0,4076.0 C 9160.0,4090.0 9170.0,4106.0 9184.0,4115.0 C 9207.0,4130.0 9208.0,4137.0 9209.0,4225.0 C 9209.0,4286.0 9214.0,4329.0 9223.0,4347.0 C 9231.0,4362.0 9240.0,4388.0 9244.0,4403.0 C 9248.0,4420.0 9260.0,4434.0 9275.0,4440.0 C 9288.0,4445.0 9302.0,4460.0 9304.0,4472.0 C 9313.0,4518.0 9320.0,4628.0 9314.0,4643.0 C 9310.0,4653.0 9287.0,4660.0 9239.0,4665.0 C 9163.0,4673.0 9154.0,4686.0 9211.0,4705.0 C 9237.0,4714.0 9246.0,4723.0 9248.0,4744.0 C 9250.0,4759.0 9247.0,4777.0 9242.0,4783.0 C 9237.0,4790.0 9230.0,4815.0 9226.0,4839.0 C 9217.0,4897.0 9204.0,4920.0 9179.0,4920.0 C 9131.0,4920.0 9080.0,4962.0 9044.0,5031.0 C 8998.0,5119.0 8951.0,5172.0 8901.0,5195.0 C 8837.0,5223.0 8837.0,5230.0 8913.0,5364.0 C 8931.0,5397.0 8943.0,5405.0 8980.0,5414.0 C 9014.0,5422.0 9028.0,5432.0 9038.0,5453.0 C 9059.0,5497.0 9047.0,5514.0 9001.0,5506.0 C 8975.0,5502.0 8952.0,5505.0 8934.0,5515.0 C 8880.0,5543.0 8797.0,5529.0 8787.0,5491.0 C 8784.0,5479.0 8775.0,5470.0 8766.0,5470.0 C 8746.0,5470.0 8673.0,5535.0 8665.0,5561.0 C 8661.0,5574.0 8649.0,5580.0 8629.0,5580.0 C 8593.0,5580.0 8510.0,5643.0 8510.0,5670.0 C 8510.0,5684.0 8520.0,5687.0 8572.0,5688.0 C 8614.0,5689.0 8638.0,5694.0 8649.0,5705.0 C 8664.0,5720.0 8664.0,5722.0 8648.0,5734.0 C 8623.0,5752.0 8625.0,5763.0 8659.0,5788.0 C 8675.0,5800.0 8693.0,5824.0 8699.0,5842.0 C 8708.0,5870.0 8718.0,5878.0 8755.0,5889.0 C 8806.0,5904.0 8820.0,5898.0 8845.0,5850.0 C 8857.0,5826.0 8857.0,5820.0 8839.0,5790.0 C 8822.0,5763.0 8820.0,5753.0 8830.0,5729.0 C 8837.0,5714.0 8839.0,5688.0 8835.0,5671.0 C 8824.0,5618.0 8859.0,5632.0 8910.0,5701.0 C 8920.0,5715.0 8950.0,5735.0 8977.0,5745.0 C 9019.0,5761.0 9032.0,5762.0 9100.0,5751.0 C 9141.0,5744.0 9182.0,5734.0 9191.0,5729.0 C 9215.0,5717.0 9222.0,5677.0 9210.0,5627.0 C 9202.0,5597.0 9202.0,5576.0 9209.0,5557.0 C 9219.0,5530.0 9222.0,5529.0 9287.0,5531.0 C 9372.0,5534.0 9414.0,5517.0 9418.0,5476.0 C 9420.0,5460.0 9417.0,5443.0 9411.0,5437.0 C 9391.0,5417.0 9399.0,5382.0 9429.0,5361.0 C 9459.0,5339.0 9480.0,5281.0 9480.0,5217.0 C 9480.0,5133.0 9509.0,5080.0 9555.0,5080.0 C 9586.0,5080.0 9593.0,5092.0 9580.0,5125.0 C 9557.0,5185.0 9589.0,5209.0 9705.0,5219.0 C 9767.0,5224.0 9776.0,5228.0 9787.0,5250.0 C 9803.0,5285.0 9789.0,5345.0 9756.0,5379.0 C 9742.0,5394.0 9730.0,5413.0 9730.0,5421.0 C 9730.0,5429.0 9679.0,5486.0 9617.0,5548.0 C 9531.0,5633.0 9497.0,5660.0 9477.0,5660.0 C 9448.0,5660.0 9434.0,5676.0 9438.0,5703.0 C 9440.0,5714.0 9435.0,5720.0 9421.0,5720.0 C 9410.0,5720.0 9395.0,5730.0 9389.0,5742.0 C 9379.0,5761.0 9380.0,5766.0 9400.0,5779.0 C 9413.0,5788.0 9438.0,5809.0 9456.0,5827.0 C 9496.0,5864.0 9501.0,5908.0 9470.0,5955.0 C 9446.0,5991.0 9445.0,6016.0 9466.0,6024.0 C 9475.0,6028.0 9480.0,6037.0 9476.0,6045.0 C 9473.0,6053.0 9476.0,6060.0 9483.0,6060.0 C 9490.0,6060.0 9500.0,6074.0 9505.0,6092.0 C 9511.0,6109.0 9524.0,6129.0 9535.0,6136.0 C 9552.0,6147.0 9561.0,6145.0 9599.0,6120.0 C 9670.0,6072.0 9719.0,6080.0 9796.0,6152.0 C 9824.0,6178.0 9827.0,6186.0 9823.0,6224.0 C 9819.0,6253.0 9823.0,6275.0 9833.0,6291.0 C 9841.0,6304.0 9851.0,6331.0 9855.0,6350.0 C 9858.0,6369.0 9869.0,6404.0 9877.0,6428.0 C 9890.0,6464.0 9891.0,6481.0 9881.0,6540.0 C 9865.0,6637.0 9867.0,6660.0 9892.0,6687.0 C 9910.0,6707.0 9912.0,6714.0 9902.0,6728.0 C 9896.0,6737.0 9876.0,6774.0 9860.0,6810.0 C 9843.0,6846.0 9814.0,6891.0 9796.0,6910.0 C 9755.0,6952.0 9735.0,6991.0 9719.0,7056.0 C 9711.0,7091.0 9696.0,7116.0 9666.0,7145.0 C 9644.0,7167.0 9610.0,7206.0 9593.0,7233.0 C 9573.0,7261.0 9553.0,7280.0 9542.0,7280.0 C 9531.0,7280.0 9508.0,7290.0 9489.0,7303.0 C 9449.0,7330.0 9335.0,7368.0 9301.0,7366.0 C 9278.0,7365.0 9267.0,7353.0 9256.0,7318.0 C 9248.0,7290.0 9217.0,7297.0 9198.0,7330.0 C 9184.0,7354.0 9174.0,7360.0 9147.0,7360.0 C 9123.0,7360.0 9106.0,7368.0 9085.0,7390.0 C 9058.0,7418.0 9051.0,7420.0 8987.0,7420.0 C 8920.0,7420.0 8918.0,7421.0 8924.0,7443.0 C 8927.0,7455.0 8930.0,7473.0 8930.0,7482.0 C 8930.0,7493.0 8944.0,7506.0 8965.0,7514.0 C 8991.0,7525.0 9000.0,7535.0 9000.0,7552.0 C 9000.0,7565.0 9004.0,7581.0 9009.0,7589.0 C 9015.0,7598.0 9014.0,7610.0 9008.0,7620.0 C 8993.0,7643.0 9005.0,7670.0 9030.0,7670.0 C 9043.0,7670.0 9050.0,7677.0 9050.0,7690.0 C 9050.0,7701.0 9055.0,7719.0 9062.0,7730.0 C 9071.0,7745.0 9071.0,7754.0 9061.0,7773.0 C 9050.0,7793.0 9051.0,7803.0 9067.0,7836.0 L 9085.0,7875.0 L 9225.0,7875.0 C 9302.0,7876.0 9371.0,7879.0 9378.0,7884.0 C 9385.0,7888.0 9400.0,7888.0 9413.0,7883.0 C 9425.0,7879.0 9458.0,7875.0 9485.0,7874.0 C 9513.0,7873.0 9544.0,7871.0 9555.0,7869.0 C 9571.0,7866.0 9574.0,7870.0 9572.0,7886.0 C 9571.0,7898.0 9576.0,7913.0 9584.0,7919.0 C 9597.0,7930.0 9606.0,7928.0 9634.0,7910.0 C 9663.0,7893.0 9678.0,7890.0 9716.0,7896.0 C 9768.0,7904.0 9793.0,7887.0 9783.0,7850.0 C 9778.0,7832.0 9783.0,7830.0 9824.0,7830.0 C 9850.0,7830.0 9879.0,7834.0 9889.0,7839.0 C 9899.0,7845.0 9912.0,7845.0 9920.0,7840.0 C 9930.0,7834.0 9941.0,7836.0 9952.0,7847.0 C 9963.0,7856.0 9991.0,7863.0 10027.0,7864.0 C 10072.0,7865.0 10086.0,7869.0 10088.0,7882.0 C 10091.0,7899.0 10068.0,7907.0 9990.0,7912.0 C 9960.0,7915.0 9955.0,7919.0 9952.0,7943.0 C 9950.0,7959.0 9954.0,7978.0 9962.0,7987.0 C 9970.0,7997.0 9974.0,8024.0 9971.0,8066.0 L 9968.0,8130.0 L 10017.0,8130.0 C 10043.0,8129.0 10091.0,8132.0 10122.0,8136.0 C 10178.0,8142.0 10179.0,8141.0 10221.0,8101.0 C 10245.0,8078.0 10274.0,8060.0 10286.0,8060.0 C 10298.0,8060.0 10310.0,8053.0 10314.0,8045.0 C 10323.0,8020.0 10359.0,8027.0 10372.0,8058.0 C 10379.0,8073.0 10392.0,8096.0 10402.0,8109.0 C 10427.0,8142.0 10425.0,8147.0 10380.0,8170.0 C 10358.0,8181.0 10340.0,8194.0 10340.0,8199.0 C 10340.0,8209.0 10418.0,8223.0 10431.0,8214.0 C 10436.0,8211.0 10458.0,8185.0 10480.0,8157.0 C 10502.0,8128.0 10530.0,8093.0 10542.0,8078.0 L 10564.0,8050.0 L 10541.0,8026.0 C 10513.0,7997.0 10501.0,7941.0 10500.0,7847.0 C 10500.0,7763.0 10489.0,7740.0 10450.0,7740.0 C 10417.0,7740.0 10415.0,7737.0 10430.0,7710.0 C 10436.0,7699.0 10442.0,7671.0 10443.0,7648.0 C 10447.0,7586.0 10518.0,7499.0 10662.0,7384.0 C 10727.0,7332.0 10790.0,7274.0 10802.0,7255.0 C 10815.0,7236.0 10853.0,7205.0 10889.0,7185.0 C 10926.0,7163.0 10986.0,7114.0 11032.0,7066.0 C 11122.0,6973.0 11133.0,6974.0 11128.0,7076.0 C 11125.0,7124.0 11118.0,7145.0 11097.0,7173.0 C 11082.0,7193.0 11070.0,7211.0 11070.0,7214.0 C 11070.0,7216.0 11082.0,7220.0 11098.0,7222.0 C 11138.0,7226.0 11141.0,7272.0 11104.0,7311.0 C 11069.0,7348.0 11077.0,7368.0 11132.0,7372.0 C 11188.0,7376.0 11195.0,7402.0 11148.0,7426.0 C 11130.0,7435.0 11094.0,7461.0 11068.0,7484.0 C 11018.0,7526.0 11019.0,7540.0 11073.0,7540.0 C 11089.0,7540.0 11103.0,7547.0 11107.0,7556.0 C 11115.0,7577.0 11063.0,7619.0 11028.0,7620.0 C 11010.0,7620.0 10994.0,7630.0 10978.0,7651.0 C 10926.0,7721.0 10890.0,7752.0 10869.0,7747.0 C 10823.0,7735.0 10750.0,7785.0 10750.0,7829.0 C 10750.0,7843.0 10737.0,7867.0 10720.0,7885.0 C 10685.0,7921.0 10687.0,7957.0 10724.0,7945.0 C 10775.0,7928.0 10795.0,7934.0 10805.0,7968.0 C 10817.0,8009.0 10848.0,8009.0 10868.0,7968.0 C 10886.0,7930.0 10905.0,7933.0 10927.0,7978.0 C 10941.0,8006.0 10952.0,8016.0 10974.0,8018.0 C 11030.0,8025.0 11090.0,8009.0 11123.0,7981.0 C 11157.0,7952.0 11215.0,7934.0 11225.0,7950.0 C 11228.0,7955.0 11224.0,7973.0 11215.0,7990.0 C 11201.0,8017.0 11201.0,8021.0 11215.0,8026.0 C 11223.0,8029.0 11230.0,8043.0 11230.0,8057.0 C 11230.0,8098.0 11248.0,8120.0 11281.0,8120.0 C 11303.0,8120.0 11313.0,8126.0 11320.0,8144.0 C 11325.0,8158.0 11338.0,8174.0 11350.0,8180.0 C 11361.0,8186.0 11370.0,8200.0 11370.0,8210.0 C 11370.0,8231.0 11394.0,8237.0 11405.0,8220.0 C 11408.0,8215.0 11432.0,8210.0 11458.0,8210.0 C 11484.0,8210.0 11520.0,8206.0 11537.0,8201.0 C 11555.0,8196.0 11582.0,8195.0 11597.0,8199.0 C 11624.0,8206.0 11619.0,8211.0 11490.0,8307.0 C 11330.0,8426.0 11022.0,8635.0 10785.0,8785.0 L 10615.0,8893.0 L 10500.0,8894.0 C 10407.0,8895.0 10378.0,8899.0 10350.0,8914.0 C 10312.0,8935.0 10233.0,8937.0 10134.0,8922.0 C 10099.0,8916.0 10069.0,8918.0 10040.0,8926.0 C 9984.0,8943.0 9877.0,8947.0 9873.0,8933.0 C 9866.0,8914.0 9913.0,8890.0 9955.0,8890.0 C 10002.0,8890.0 10040.0,8867.0 10040.0,8839.0 C 10040.0,8814.0 10006.0,8814.0 9955.0,8840.0 C 9933.0,8851.0 9898.0,8860.0 9877.0,8860.0 C 9856.0,8860.0 9821.0,8870.0 9799.0,8883.0 C 9765.0,8902.0 9760.0,8908.0 9766.0,8932.0 C 9771.0,8956.0 9769.0,8959.0 9753.0,8953.0 C 9743.0,8950.0 9722.0,8936.0 9707.0,8923.0 C 9673.0,8896.0 9671.0,8896.0 9496.0,8916.0 C 9394.0,8928.0 9351.0,8929.0 9328.0,8921.0 C 9311.0,8915.0 9268.0,8910.0 9234.0,8910.0 C 9176.0,8910.0 9167.0,8913.0 9133.0,8944.0 C 9079.0,8991.0 9066.0,8996.0 8939.0,9023.0 C 8787.0,9056.0 8598.0,9065.0 8538.0,9044.0 C 8486.0,9025.0 8423.0,9030.0 8360.0,9059.0 C 8335.0,9070.0 8299.0,9080.0 8280.0,9080.0 C 8261.0,9080.0 8219.0,9087.0 8188.0,9094.0 C 8157.0,9102.0 8129.0,9106.0 8126.0,9103.0 C 8124.0,9100.0 8116.0,9101.0 8110.0,9105.0 C 8102.0,9110.0 8102.0,9116.0 8111.0,9126.0 C 8117.0,9134.0 8121.0,9142.0 8119.0,9144.0 C 8117.0,9147.0 8081.0,9153.0 8039.0,9159.0 C 7998.0,9165.0 7956.0,9172.0 7947.0,9176.0 C 7934.0,9181.0 7926.0,9173.0 7915.0,9146.0 C 7897.0,9104.0 7865.0,9095.0 7872.0,9135.0 C 7880.0,9175.0 7858.0,9184.0 7742.0,9187.0 C 7683.0,9189.0 7586.0,9197.0 7525.0,9206.0 C 7421.0,9220.0 7414.0,9220.0 7402.0,9203.0 C 7395.0,9193.0 7381.0,9186.0 7370.0,9188.0 C 7360.0,9190.0 7349.0,9186.0 7345.0,9180.0 C 7335.0,9163.0 7359.0,9140.0 7388.0,9140.0 C 7402.0,9140.0 7423.0,9129.0 7436.0,9114.0 L 7460.0,9089.0 L 7313.0,9092.0 C 7231.0,9093.0 7140.0,9091.0 7110.0,9086.0 C 7060.0,9079.0 7048.0,9080.0 7002.0,9104.0 C 6974.0,9118.0 6948.0,9130.0 6945.0,9130.0 C 6934.0,9130.0 6941.0,9106.0 6957.0,9088.0 C 6971.0,9072.0 6972.0,9068.0 6959.0,9055.0 C 6938.0,9034.0 6810.0,9051.0 6774.0,9079.0 C 6759.0,9090.0 6740.0,9100.0 6732.0,9100.0 C 6723.0,9100.0 6687.0,9115.0 6651.0,9133.0 C 6597.0,9159.0 6574.0,9165.0 6523.0,9164.0 C 6445.0,9163.0 6429.0,9183.0 6490.0,9207.0 C 6549.0,9230.0 6540.0,9253.0 6470.0,9261.0 C 6440.0,9264.0 6407.0,9270.0 6398.0,9274.0 C 6389.0,9278.0 6370.0,9275.0 6355.0,9268.0 C 6333.0,9256.0 6318.0,9257.0 6237.0,9277.0 C 6151.0,9299.0 6100.0,9300.0 6100.0,9282.0 C 6100.0,9271.0 6166.0,9240.0 6188.0,9240.0 C 6210.0,9240.0 6248.0,9214.0 6239.0,9206.0 C 6236.0,9202.0 6209.0,9206.0 6179.0,9213.0 C 6149.0,9221.0 6065.0,9227.0 5992.0,9228.0 C 5866.0,9230.0 5856.0,9232.0 5799.0,9260.0 C 5743.0,9287.0 5732.0,9289.0 5607.0,9291.0 C 5521.0,9292.0 5466.0,9289.0 5452.0,9281.0 C 5433.0,9271.0 5425.0,9273.0 5396.0,9295.0 C 5358.0,9324.0 5347.0,9326.0 5330.0,9305.0 C 5313.0,9284.0 5277.0,9286.0 5247.0,9310.0 C 5214.0,9336.0 5130.0,9328.0 5130.0,9299.0 C 5130.0,9290.0 5138.0,9279.0 5148.0,9277.0 C 5159.0,9274.0 5156.0,9272.0 5139.0,9271.0 C 5124.0,9271.0 5093.0,9263.0 5070.0,9255.0 C 5008.0,9233.0 4988.0,9235.0 4992.0,9262.0 C 4994.0,9275.0 5003.0,9286.0 5015.0,9288.0 C 5026.0,9290.0 5049.0,9305.0 5065.0,9321.0 C 5082.0,9336.0 5111.0,9355.0 5130.0,9362.0 C 5210.0,9389.0 5250.0,9427.0 5219.0,9445.0 C 5214.0,9449.0 5205.0,9463.0 5200.0,9475.0 C 5193.0,9493.0 5181.0,9500.0 5153.0,9505.0 C 5132.0,9508.0 5079.0,9522.0 5035.0,9535.0 C 4948.0,9563.0 4879.0,9566.0 4765.0,9549.0 C 4645.0,9531.0 4645.0,9531.0 4648.0,9564.0 C 4652.0,9593.0 4652.0,9593.0 4607.0,9587.0 C 4543.0,9578.0 4490.0,9589.0 4481.0,9613.0 C 4474.0,9631.0 4462.0,9633.0 4367.0,9637.0 C 4269.0,9641.0 4261.0,9640.0 4251.0,9621.0 M 3012.0,6540.0 C 3019.0,6529.0 3030.0,6520.0 3037.0,6520.0 C 3044.0,6520.0 3054.0,6529.0 3060.0,6540.0 C 3066.0,6551.0 3077.0,6560.0 3085.0,6560.0 C 3103.0,6560.0 3103.0,6552.0 3085.0,6520.0 C 3059.0,6475.0 3066.0,6434.0 3104.0,6405.0 C 3151.0,6370.0 3155.0,6353.0 3124.0,6325.0 C 3103.0,6306.0 3099.0,6294.0 3101.0,6256.0 C 3103.0,6231.0 3102.0,6209.0 3099.0,6207.0 C 3097.0,6204.0 3076.0,6200.0 3054.0,6196.0 C 3021.0,6191.0 3011.0,6193.0 3006.0,6206.0 C 3001.0,6219.0 2990.0,6221.0 2945.0,6215.0 C 2891.0,6209.0 2890.0,6209.0 2890.0,6234.0 C 2890.0,6249.0 2882.0,6264.0 2870.0,6270.0 C 2851.0,6280.0 2849.0,6289.0 2852.0,6363.0 L 2855.0,6445.0 L 2884.0,6448.0 C 2902.0,6450.0 2914.0,6459.0 2917.0,6471.0 C 2920.0,6481.0 2931.0,6490.0 2942.0,6490.0 C 2957.0,6490.0 2960.0,6495.0 2955.0,6510.0 C 2948.0,6533.0 2965.0,6560.0 2986.0,6560.0 C 2994.0,6560.0 3005.0,6551.0 3012.0,6540.0" fill="pink"/>
	<path d="M 3871.0,9611.0 C 3864.0,9606.0 3861.0,9597.0 3864.0,9591.0 C 3872.0,9578.0 3910.0,9594.0 3910.0,9610.0 C 3910.0,9622.0 3890.0,9623.0 3871.0,9611.0" fill="pink"/>
	<path d="M 6754.0,9505.0 C 6750.0,9497.0 6760.0,9474.0 6774.0,9455.0 C 6797.0,9426.0 6807.0,9420.0 6839.0,9420.0 C 6861.0,9420.0 6888.0,9412.0 6901.0,9402.0 C 6939.0,9373.0 6956.0,9370.0 7012.0,9384.0 C 7097.0,9406.0 7177.0,9412.0 7213.0,9401.0 C 7248.0,9389.0 7321.0,9407.0 7328.0,9429.0 C 7334.0,9448.0 7309.0,9471.0 7286.0,9468.0 C 7246.0,9463.0 7055.0,9491.0 7017.0,9507.0 C 6975.0,9525.0 6960.0,9518.0 6978.0,9490.0 C 6993.0,9465.0 6994.0,9465.0 6914.0,9495.0 C 6838.0,9524.0 6763.0,9528.0 6754.0,9505.0" fill="pink"/>
	<path d="M 6660.0,9475.0 C 6660.0,9458.0 6682.0,9430.0 6696.0,9430.0 C 6721.0,9430.0 6709.0,9474.0 6683.0,9478.0 C 6670.0,9480.0 6660.0,9479.0 6660.0,9475.0" fill="pink"/>
	<path d="M 7390.0,9440.0 C 7390.0,9421.0 7421.0,9410.0 7476.0,9410.0 C 7516.0,9410.0 7553.0,9403.0 7581.0,9390.0 C 7631.0,9368.0 7729.0,9363.0 7748.0,9382.0 C 7774.0,9408.0 7761.0,9420.0 7706.0,9420.0 C 7677.0,9420.0 7637.0,9427.0 7617.0,9435.0 C 7583.0,9449.0 7390.0,9454.0 7390.0,9440.0" fill="pink"/>
	<path d="M 7170.0,9335.0 C 7170.0,9324.0 7181.0,9320.0 7208.0,9320.0 C 7243.0,9321.0 7244.0,9322.0 7226.0,9335.0 C 7200.0,9354.0 7170.0,9354.0 7170.0,9335.0" fill="pink"/>
	<path d="M 7265.0,9290.0 C 7255.0,9279.0 7249.0,9268.0 7251.0,9266.0 C 7253.0,9264.0 7300.0,9257.0 7354.0,9251.0 C 7409.0,9245.0 7464.0,9237.0 7478.0,9233.0 C 7497.0,9229.0 7501.0,9231.0 7498.0,9245.0 C 7494.0,9266.0 7416.0,9294.0 7336.0,9304.0 C 7291.0,9310.0 7281.0,9308.0 7265.0,9290.0" fill="pink"/>
	<path d="M 9798.0,8939.0 C 9774.0,8925.0 9776.0,8914.0 9802.0,8906.0 C 9832.0,8899.0 9849.0,8916.0 9830.0,8935.0 C 9819.0,8945.0 9810.0,8946.0 9798.0,8939.0" fill="pink"/>
	<path d="M 11450.0,7433.0 C 11450.0,7420.0 11503.0,7370.0 11517.0,7370.0 C 11544.0,7370.0 11529.0,7397.0 11488.0,7423.0 C 11458.0,7441.0 11450.0,7444.0 11450.0,7433.0" fill="pink"/>
	<path d="M 11610.0,7406.0 C 11610.0,7392.0 11646.0,7360.0 11663.0,7360.0 C 11667.0,7360.0 11661.0,7374.0 11648.0,7390.0 C 11624.0,7423.0 11610.0,7428.0 11610.0,7406.0" fill="pink"/>
	<path d="M 9574.0,7365.0 C 9570.0,7355.0 9577.0,7339.0 9593.0,7322.0 C 9612.0,7303.0 9618.0,7288.0 9613.0,7272.0 C 9609.0,7254.0 9623.0,7234.0 9686.0,7167.0 C 9728.0,7122.0 9781.0,7073.0 9803.0,7058.0 C 9842.0,7031.0 9909.0,6938.0 9910.0,6911.0 C 9910.0,6904.0 9928.0,6881.0 9950.0,6861.0 C 9975.0,6838.0 10000.0,6802.0 10015.0,6765.0 C 10034.0,6716.0 10044.0,6704.0 10068.0,6698.0 C 10093.0,6691.0 10098.0,6684.0 10104.0,6651.0 C 10107.0,6629.0 10125.0,6591.0 10145.0,6566.0 C 10164.0,6540.0 10180.0,6514.0 10180.0,6506.0 C 10180.0,6488.0 10213.0,6460.0 10233.0,6460.0 C 10244.0,6460.0 10250.0,6468.0 10250.0,6485.0 C 10250.0,6514.0 10265.0,6517.0 10317.0,6498.0 C 10341.0,6489.0 10353.0,6489.0 10361.0,6497.0 C 10369.0,6505.0 10362.0,6514.0 10334.0,6528.0 C 10274.0,6559.0 10160.0,6668.0 10160.0,6695.0 C 10160.0,6707.0 10151.0,6729.0 10140.0,6743.0 C 10116.0,6773.0 10115.0,6786.0 10135.0,6794.0 C 10157.0,6802.0 10194.0,6785.0 10222.0,6755.0 C 10238.0,6738.0 10252.0,6731.0 10263.0,6736.0 C 10288.0,6745.0 10284.0,6756.0 10248.0,6781.0 C 10230.0,6793.0 10192.0,6825.0 10163.0,6852.0 C 10135.0,6878.0 10106.0,6900.0 10099.0,6900.0 C 10073.0,6900.0 10022.0,6951.0 9991.0,7009.0 C 9965.0,7059.0 9952.0,7072.0 9929.0,7077.0 C 9913.0,7080.0 9895.0,7091.0 9889.0,7101.0 C 9884.0,7112.0 9873.0,7120.0 9866.0,7120.0 C 9858.0,7120.0 9842.0,7140.0 9830.0,7165.0 C 9808.0,7211.0 9724.0,7290.0 9697.0,7290.0 C 9688.0,7290.0 9671.0,7303.0 9658.0,7319.0 C 9645.0,7334.0 9623.0,7355.0 9608.0,7365.0 C 9582.0,7381.0 9580.0,7381.0 9574.0,7365.0" fill="pink"/>
	<path d="M 12254.0,7189.0 C 12247.0,7176.0 12267.0,7160.0 12290.0,7160.0 C 12307.0,7160.0 12337.0,7177.0 12330.0,7183.0 C 12317.0,7194.0 12260.0,7198.0 12254.0,7189.0" fill="pink"/>
	<path d="M 12380.0,7145.0 C 12380.0,7127.0 12404.0,7115.0 12419.0,7124.0 C 12435.0,7134.0 12420.0,7160.0 12399.0,7160.0 C 12389.0,7160.0 12380.0,7153.0 12380.0,7145.0" fill="pink"/>
	<path d="M 12776.0,7093.0 C 12765.0,7082.0 12770.0,7070.0 12785.0,7070.0 C 12793.0,7070.0 12800.0,7074.0 12800.0,7079.0 C 12800.0,7092.0 12784.0,7101.0 12776.0,7093.0" fill="pink"/>
	<path d="M 11013.0,6993.0 C 10997.0,6987.0 10996.0,6960.0 11010.0,6960.0 C 11021.0,6960.0 11036.0,6988.0 11029.0,6994.0 C 11027.0,6996.0 11019.0,6995.0 11013.0,6993.0" fill="pink"/>
	<path d="M 11057.0,6955.0 C 11036.0,6934.0 11026.0,6900.0 11037.0,6889.0 C 11055.0,6871.0 11100.0,6897.0 11100.0,6924.0 C 11100.0,6958.0 11077.0,6975.0 11057.0,6955.0" fill="pink"/>
	<path d="M 11066.0,6842.0 C 11063.0,6836.0 11065.0,6828.0 11071.0,6825.0 C 11086.0,6815.0 11096.0,6828.0 11083.0,6841.0 C 11076.0,6848.0 11070.0,6848.0 11066.0,6842.0" fill="pink"/>
	<path d="M 10924.0,6444.0 C 10913.0,6428.0 10910.0,6416.0 10917.0,6409.0 C 10931.0,6395.0 10960.0,6409.0 10960.0,6431.0 C 10960.0,6441.0 10965.0,6450.0 10970.0,6450.0 C 10976.0,6450.0 10980.0,6455.0 10980.0,6460.0 C 10980.0,6480.0 10940.0,6469.0 10924.0,6444.0" fill="pink"/>
	<path d="M 10794.0,6364.0 C 10776.0,6338.0 10771.0,6286.0 10784.0,6273.0 C 10795.0,6262.0 10825.0,6285.0 10828.0,6307.0 C 10830.0,6319.0 10840.0,6336.0 10851.0,6346.0 C 10879.0,6371.0 10875.0,6390.0 10840.0,6390.0 C 10819.0,6390.0 10805.0,6382.0 10794.0,6364.0" fill="pink"/>
	<path d="M 10270.0,6365.0 C 10259.0,6352.0 10263.0,6344.0 10294.0,6316.0 C 10317.0,6293.0 10330.0,6272.0 10330.0,6256.0 C 10330.0,6242.0 10335.0,6230.0 10340.0,6230.0 C 10351.0,6230.0 10366.0,6198.0 10372.0,6164.0 C 10374.0,6151.0 10369.0,6145.0 10354.0,6144.0 C 10318.0,6142.0 10309.0,6131.0 10321.0,6108.0 C 10330.0,6092.0 10328.0,6082.0 10311.0,6059.0 C 10299.0,6044.0 10290.0,6025.0 10290.0,6017.0 C 10290.0,5998.0 10311.0,5980.0 10333.0,5980.0 C 10343.0,5980.0 10364.0,5966.0 10379.0,5950.0 C 10404.0,5922.0 10408.0,5920.0 10441.0,5931.0 C 10460.0,5938.0 10479.0,5947.0 10484.0,5951.0 C 10498.0,5963.0 10463.0,5997.0 10425.0,6010.0 C 10394.0,6020.0 10373.0,6046.0 10385.0,6058.0 C 10388.0,6061.0 10402.0,6058.0 10416.0,6051.0 C 10438.0,6041.0 10446.0,6042.0 10460.0,6055.0 C 10484.0,6077.0 10498.0,6074.0 10544.0,6037.0 C 10632.0,5965.0 10660.0,5964.0 10660.0,6033.0 C 10660.0,6083.0 10671.0,6097.0 10715.0,6102.0 C 10737.0,6104.0 10746.0,6111.0 10748.0,6128.0 C 10750.0,6141.0 10747.0,6157.0 10741.0,6164.0 C 10735.0,6171.0 10733.0,6191.0 10736.0,6208.0 C 10744.0,6249.0 10734.0,6276.0 10717.0,6262.0 C 10710.0,6256.0 10674.0,6248.0 10638.0,6244.0 C 10577.0,6238.0 10566.0,6240.0 10506.0,6268.0 C 10469.0,6285.0 10414.0,6317.0 10383.0,6340.0 C 10324.0,6382.0 10291.0,6390.0 10270.0,6365.0" fill="pink"/>
	<path d="M 10490.0,5916.0 C 10471.0,5909.0 10455.0,5898.0 10455.0,5891.0 C 10455.0,5885.0 10448.0,5875.0 10440.0,5870.0 C 10428.0,5863.0 10428.0,5858.0 10438.0,5848.0 C 10444.0,5842.0 10450.0,5817.0 10450.0,5795.0 C 10450.0,5754.0 10472.0,5720.0 10497.0,5720.0 C 10509.0,5720.0 10520.0,5650.0 10521.0,5567.0 C 10522.0,5527.0 10517.0,5503.0 10506.0,5491.0 C 10497.0,5481.0 10490.0,5468.0 10490.0,5462.0 C 10490.0,5446.0 10451.0,5427.0 10433.0,5434.0 C 10424.0,5438.0 10420.0,5448.0 10423.0,5460.0 C 10429.0,5482.0 10412.0,5491.0 10388.0,5478.0 C 10375.0,5472.0 10370.0,5457.0 10370.0,5429.0 C 10370.0,5407.0 10363.0,5373.0 10355.0,5354.0 C 10347.0,5334.0 10343.0,5307.0 10346.0,5294.0 C 10353.0,5266.0 10351.0,5265.0 10306.0,5286.0 C 10275.0,5301.0 10263.0,5302.0 10193.0,5289.0 C 10117.0,5276.0 10113.0,5274.0 10060.0,5219.0 C 10030.0,5187.0 9996.0,5160.0 9986.0,5158.0 C 9961.0,5154.0 9956.0,5139.0 9973.0,5116.0 C 9993.0,5089.0 10101.0,5085.0 10134.0,5111.0 C 10147.0,5121.0 10167.0,5130.0 10178.0,5130.0 C 10188.0,5130.0 10208.0,5138.0 10221.0,5149.0 C 10237.0,5161.0 10268.0,5169.0 10318.0,5172.0 L 10390.0,5177.0 L 10390.0,5135.0 C 10390.0,5092.0 10405.0,5070.0 10444.0,5056.0 C 10466.0,5048.0 10510.0,5074.0 10510.0,5095.0 C 10510.0,5102.0 10518.0,5116.0 10527.0,5126.0 C 10543.0,5142.0 10542.0,5144.0 10516.0,5165.0 C 10500.0,5178.0 10491.0,5193.0 10494.0,5199.0 C 10506.0,5218.0 10537.0,5211.0 10554.0,5184.0 C 10571.0,5160.0 10574.0,5159.0 10643.0,5166.0 C 10719.0,5173.0 10748.0,5186.0 10730.0,5204.0 C 10700.0,5234.0 10739.0,5263.0 10771.0,5234.0 C 10791.0,5216.0 10792.0,5216.0 10811.0,5239.0 C 10836.0,5270.0 10835.0,5293.0 10805.0,5328.0 C 10789.0,5347.0 10775.0,5381.0 10769.0,5417.0 C 10763.0,5449.0 10752.0,5490.0 10744.0,5509.0 C 10731.0,5539.0 10732.0,5545.0 10746.0,5561.0 C 10761.0,5578.0 10761.0,5583.0 10740.0,5637.0 C 10698.0,5743.0 10673.0,5785.0 10631.0,5818.0 C 10609.0,5836.0 10582.0,5850.0 10573.0,5848.0 C 10558.0,5846.0 10555.0,5852.0 10555.0,5885.0 C 10555.0,5930.0 10544.0,5936.0 10490.0,5916.0" fill="pink"/>
	<path d="M 780.0,5285.0 C 773.0,5277.0 753.0,5270.0 735.0,5270.0 C 699.0,5270.0 664.0,5239.0 673.0,5215.0 C 677.0,5205.0 692.0,5200.0 718.0,5200.0 C 792.0,5200.0 879.0,5289.0 814.0,5298.0 C 803.0,5300.0 787.0,5294.0 780.0,5285.0" fill="pink"/>
	<path d="M 10244.0,5115.0 C 10240.0,5106.0 10225.0,5100.0 10206.0,5100.0 C 10180.0,5100.0 10172.0,5094.0 10158.0,5062.0 C 10143.0,5030.0 10142.0,5019.0 10152.0,4992.0 C 10172.0,4941.0 10239.0,4935.0 10226.0,4985.0 C 10217.0,5021.0 10241.0,5034.0 10285.0,5019.0 C 10328.0,5003.0 10340.0,5014.0 10340.0,5073.0 C 10340.0,5104.0 10336.0,5112.0 10314.0,5120.0 C 10277.0,5134.0 10250.0,5132.0 10244.0,5115.0" fill="pink"/>
	<path d="M 9922.0,5052.0 C 9901.0,5034.0 9893.0,5021.0 9899.0,5015.0 C 9904.0,5009.0 9910.0,4994.0 9912.0,4980.0 C 9916.0,4945.0 9945.0,4943.0 9962.0,4977.0 C 9977.0,5009.0 10007.0,5014.0 10024.0,4988.0 C 10032.0,4975.0 10032.0,4965.0 10023.0,4951.0 C 10015.0,4939.0 10015.0,4929.0 10022.0,4922.0 C 10028.0,4916.0 10028.0,4906.0 10019.0,4893.0 C 10009.0,4876.0 10010.0,4869.0 10023.0,4849.0 C 10033.0,4836.0 10040.0,4818.0 10040.0,4808.0 C 10040.0,4791.0 10076.0,4760.0 10095.0,4760.0 C 10107.0,4761.0 10150.0,4826.0 10150.0,4845.0 C 10150.0,4853.0 10145.0,4862.0 10139.0,4865.0 C 10133.0,4869.0 10129.0,4895.0 10130.0,4924.0 C 10132.0,4997.0 10133.0,4995.0 10104.0,5029.0 C 10085.0,5052.0 10070.0,5060.0 10045.0,5060.0 C 10026.0,5060.0 10008.0,5065.0 10005.0,5070.0 C 9994.0,5088.0 9956.0,5080.0 9922.0,5052.0" fill="pink"/>
	<path d="M 9580.0,5045.0 C 9573.0,5037.0 9569.0,5027.0 9572.0,5025.0 C 9581.0,5015.0 9641.0,5033.0 9637.0,5044.0 C 9631.0,5062.0 9595.0,5062.0 9580.0,5045.0" fill="pink"/>
	<path d="M 10099.0,4694.0 C 10088.0,4680.0 10089.0,4679.0 10110.0,4682.0 C 10123.0,4683.0 10135.0,4691.0 10138.0,4698.0 C 10143.0,4715.0 10115.0,4713.0 10099.0,4694.0" fill="pink"/>
	<path d="M 10050.0,4460.0 C 10015.0,4425.0 10026.0,4413.0 10078.0,4426.0 C 10103.0,4433.0 10108.0,4465.0 10085.0,4474.0 C 10076.0,4477.0 10061.0,4471.0 10050.0,4460.0" fill="pink"/>
	<path d="M 2987.0,4312.0 C 2971.0,4294.0 2971.0,4292.0 2986.0,4280.0 C 3006.0,4263.0 3035.0,4278.0 3035.0,4306.0 C 3035.0,4332.0 3008.0,4335.0 2987.0,4312.0" fill="pink"/>
	<path d="M 9976.0,4268.0 C 9965.0,4252.0 9963.0,4243.0 9972.0,4233.0 C 9987.0,4214.0 10000.0,4217.0 10000.0,4239.0 C 10000.0,4249.0 10007.0,4261.0 10016.0,4264.0 C 10024.0,4267.0 10028.0,4274.0 10025.0,4280.0 C 10015.0,4297.0 9992.0,4291.0 9976.0,4268.0" fill="pink"/>
	<path d="M 2480.0,4246.0 C 2480.0,4238.0 2484.0,4229.0 2489.0,4226.0 C 2499.0,4219.0 2512.0,4245.0 2503.0,4254.0 C 2492.0,4265.0 2480.0,4260.0 2480.0,4246.0" fill="pink"/>
	<path d="M 9368.0,4093.0 C 9338.0,4057.0 9308.0,3950.0 9312.0,3894.0 C 9317.0,3835.0 9362.0,3757.0 9388.0,3762.0 C 9396.0,3764.0 9408.0,3786.0 9415.0,3813.0 C 9422.0,3840.0 9432.0,3866.0 9439.0,3873.0 C 9455.0,3889.0 9453.0,3916.0 9434.0,3935.0 C 9420.0,3948.0 9419.0,3956.0 9429.0,3976.0 C 9464.0,4053.0 9415.0,4148.0 9368.0,4093.0" fill="pink"/>
	<path d="M 8339.0,3500.0 C 8263.0,3460.0 8231.0,3392.0 8265.0,3343.0 C 8294.0,3301.0 8430.0,3302.0 8430.0,3344.0 C 8430.0,3352.0 8437.0,3363.0 8445.0,3370.0 C 8454.0,3377.0 8458.0,3391.0 8455.0,3401.0 C 8451.0,3413.0 8454.0,3422.0 8464.0,3426.0 C 8480.0,3432.0 8485.0,3474.0 8474.0,3504.0 C 8465.0,3527.0 8385.0,3524.0 8339.0,3500.0" fill="pink"/>
	<path d="M 9452.0,3337.0 C 9432.0,3314.0 9429.0,3273.0 9439.0,3199.0 C 9445.0,3158.0 9453.0,3114.0 9456.0,3100.0 C 9462.0,3079.0 9460.0,3077.0 9449.0,3088.0 C 9431.0,3104.0 9405.0,3103.0 9390.0,3085.0 C 9381.0,3074.0 9386.0,3057.0 9417.0,3000.0 C 9441.0,2956.0 9462.0,2928.0 9475.0,2925.0 C 9556.0,2909.0 9553.0,2911.0 9548.0,2877.0 C 9540.0,2825.0 9546.0,2820.0 9616.0,2820.0 C 9675.0,2820.0 9681.0,2818.0 9702.0,2790.0 C 9728.0,2754.0 9746.0,2752.0 9753.0,2782.0 C 9759.0,2803.0 9760.0,2803.0 9780.0,2785.0 C 9801.0,2766.0 9807.0,2740.0 9790.0,2740.0 C 9774.0,2740.0 9779.0,2712.0 9797.0,2701.0 C 9813.0,2692.0 9813.0,2690.0 9795.0,2656.0 C 9784.0,2637.0 9778.0,2619.0 9780.0,2617.0 C 9783.0,2614.0 9806.0,2609.0 9833.0,2606.0 L 9880.0,2599.0 L 9880.0,2635.0 C 9880.0,2655.0 9885.0,2680.0 9891.0,2692.0 C 9900.0,2708.0 9898.0,2716.0 9881.0,2731.0 C 9869.0,2742.0 9860.0,2763.0 9860.0,2780.0 C 9860.0,2812.0 9813.0,2854.0 9787.0,2844.0 C 9779.0,2841.0 9770.0,2846.0 9767.0,2854.0 C 9762.0,2866.0 9746.0,2870.0 9705.0,2870.0 C 9657.0,2870.0 9650.0,2872.0 9650.0,2890.0 C 9650.0,2900.0 9642.0,2914.0 9631.0,2919.0 C 9619.0,2926.0 9611.0,2945.0 9607.0,2974.0 C 9601.0,3012.0 9606.0,3028.0 9642.0,3095.0 L 9682.0,3173.0 L 9652.0,3234.0 C 9635.0,3268.0 9617.0,3307.0 9612.0,3321.0 C 9602.0,3345.0 9597.0,3347.0 9532.0,3348.0 C 9487.0,3349.0 9458.0,3345.0 9452.0,3337.0" fill="pink"/>
	<path d="M 6767.0,2776.0 C 6745.0,2754.0 6737.0,2617.0 6755.0,2574.0 C 6765.0,2549.0 6775.0,2540.0 6787.0,2542.0 C 6802.0,2545.0 6805.0,2561.0 6808.0,2668.0 C 6811.0,2772.0 6809.0,2790.0 6797.0,2790.0 C 6788.0,2790.0 6775.0,2784.0 6767.0,2776.0" fill="pink"/>
	<path d="M 9530.0,2778.0 C 9530.0,2772.0 9541.0,2755.0 9555.0,2738.0 C 9581.0,2707.0 9587.0,2676.0 9570.0,2665.0 C 9552.0,2654.0 9559.0,2640.0 9583.0,2640.0 C 9596.0,2640.0 9614.0,2648.0 9623.0,2658.0 C 9644.0,2681.0 9645.0,2743.0 9625.0,2760.0 C 9605.0,2777.0 9530.0,2790.0 9530.0,2778.0" fill="pink"/>
	<path d="M 2873.0,2704.0 C 2866.0,2701.0 2860.0,2690.0 2860.0,2679.0 C 2860.0,2664.0 2867.0,2660.0 2895.0,2660.0 C 2914.0,2660.0 2930.0,2664.0 2930.0,2669.0 C 2930.0,2674.0 2941.0,2680.0 2955.0,2682.0 C 3001.0,2687.0 2986.0,2705.0 2935.0,2707.0 C 2908.0,2708.0 2879.0,2707.0 2873.0,2704.0" fill="pink"/>
	<path d="M 9942.0,2663.0 C 9936.0,2647.0 9925.0,2613.0 9919.0,2585.0 C 9901.0,2506.0 9888.0,2492.0 9833.0,2488.0 C 9787.0,2485.0 9785.0,2484.0 9780.0,2449.0 C 9776.0,2430.0 9766.0,2403.0 9757.0,2390.0 C 9732.0,2355.0 9736.0,2332.0 9771.0,2299.0 C 9818.0,2255.0 9834.0,2260.0 9869.0,2336.0 C 9886.0,2372.0 9905.0,2419.0 9911.0,2441.0 C 9918.0,2463.0 9929.0,2485.0 9935.0,2490.0 C 9947.0,2500.0 9954.0,2488.0 9974.0,2428.0 C 9981.0,2406.0 10018.0,2404.0 10027.0,2426.0 C 10030.0,2434.0 10028.0,2452.0 10022.0,2464.0 C 10014.0,2482.0 10015.0,2493.0 10026.0,2509.0 C 10042.0,2531.0 10038.0,2597.0 10018.0,2650.0 C 10000.0,2697.0 9958.0,2704.0 9942.0,2663.0" fill="pink"/>
	<path d="M 9686.0,2662.0 C 9682.0,2655.0 9684.0,2633.0 9690.0,2611.0 C 9697.0,2584.0 9697.0,2563.0 9690.0,2545.0 C 9675.0,2505.0 9678.0,2463.0 9696.0,2456.0 C 9716.0,2448.0 9797.0,2498.0 9803.0,2522.0 C 9811.0,2549.0 9782.0,2581.0 9752.0,2578.0 C 9730.0,2575.0 9725.0,2580.0 9720.0,2605.0 C 9711.0,2648.0 9694.0,2675.0 9686.0,2662.0" fill="pink"/>
	<path d="M 9474.0,2645.0 C 9464.0,2620.0 9478.0,2598.0 9502.0,2602.0 C 9530.0,2606.0 9535.0,2623.0 9515.0,2644.0 C 9495.0,2664.0 9481.0,2664.0 9474.0,2645.0" fill="pink"/>
	<path d="M 9420.0,2491.0 C 9420.0,2474.0 9415.0,2458.0 9410.0,2455.0 C 9404.0,2451.0 9387.0,2430.0 9373.0,2407.0 C 9358.0,2384.0 9320.0,2338.0 9288.0,2305.0 C 9233.0,2248.0 9218.0,2218.0 9239.0,2205.0 C 9255.0,2196.0 9318.0,2232.0 9324.0,2254.0 C 9327.0,2266.0 9342.0,2282.0 9358.0,2291.0 C 9379.0,2303.0 9389.0,2318.0 9394.0,2343.0 C 9398.0,2365.0 9407.0,2380.0 9419.0,2383.0 C 9429.0,2385.0 9445.0,2403.0 9455.0,2423.0 C 9470.0,2455.0 9470.0,2461.0 9455.0,2489.0 C 9435.0,2528.0 9420.0,2529.0 9420.0,2491.0" fill="pink"/>
	<path d="M 6755.0,2480.0 C 6758.0,2475.0 6768.0,2470.0 6776.0,2470.0 C 6784.0,2470.0 6790.0,2475.0 6790.0,2480.0 C 6790.0,2486.0 6781.0,2490.0 6769.0,2490.0 C 6758.0,2490.0 6752.0,2486.0 6755.0,2480.0" fill="pink"/>
	<path d="M 9918.0,2389.0 C 9896.0,2377.0 9895.0,2334.0 9916.0,2326.0 C 9924.0,2323.0 9942.0,2328.0 9956.0,2337.0 C 10004.0,2368.0 9967.0,2419.0 9918.0,2389.0" fill="pink"/>
	<path d="M 5540.0,2365.0 C 5530.0,2353.0 5530.0,2346.0 5543.0,2327.0 C 5559.0,2302.0 5557.0,2233.0 5538.0,2198.0 C 5533.0,2187.0 5533.0,2172.0 5540.0,2160.0 C 5548.0,2146.0 5547.0,2135.0 5538.0,2121.0 C 5528.0,2105.0 5528.0,2094.0 5538.0,2067.0 C 5545.0,2049.0 5550.0,2020.0 5550.0,2004.0 C 5550.0,1963.0 5566.0,1950.0 5617.0,1950.0 C 5654.0,1950.0 5666.0,1956.0 5701.0,1990.0 C 5740.0,2028.0 5742.0,2032.0 5735.0,2072.0 C 5731.0,2096.0 5722.0,2122.0 5716.0,2130.0 C 5693.0,2158.0 5650.0,2242.0 5650.0,2260.0 C 5650.0,2270.0 5643.0,2283.0 5634.0,2291.0 C 5625.0,2298.0 5611.0,2320.0 5602.0,2339.0 C 5583.0,2379.0 5560.0,2389.0 5540.0,2365.0" fill="pink"/>
	<path d="M 10047.0,2353.0 C 10043.0,2350.0 10040.0,2333.0 10040.0,2315.0 C 10040.0,2277.0 10027.0,2260.0 9977.0,2232.0 C 9932.0,2206.0 9920.0,2205.0 9920.0,2224.0 C 9920.0,2247.0 9902.0,2252.0 9865.0,2240.0 C 9843.0,2233.0 9824.0,2217.0 9815.0,2199.0 C 9806.0,2183.0 9793.0,2170.0 9786.0,2170.0 C 9779.0,2170.0 9761.0,2161.0 9746.0,2149.0 C 9726.0,2133.0 9720.0,2120.0 9720.0,2090.0 C 9720.0,2039.0 9750.0,2018.0 9774.0,2052.0 C 9783.0,2064.0 9790.0,2082.0 9790.0,2092.0 C 9790.0,2116.0 9804.0,2122.0 9833.0,2111.0 C 9851.0,2104.0 9863.0,2105.0 9876.0,2115.0 C 9898.0,2131.0 9996.0,2135.0 10005.0,2120.0 C 10008.0,2115.0 10000.0,2105.0 9986.0,2099.0 C 9953.0,2084.0 9946.0,2061.0 9960.0,2011.0 C 9969.0,1978.0 9979.0,1966.0 10024.0,1941.0 C 10111.0,1891.0 10134.0,1902.0 10100.0,1977.0 C 10089.0,2002.0 10082.0,2032.0 10086.0,2042.0 C 10094.0,2070.0 10124.0,2060.0 10128.0,2028.0 C 10132.0,1996.0 10154.0,1975.0 10175.0,1984.0 C 10187.0,1988.0 10190.0,2008.0 10190.0,2073.0 C 10190.0,2149.0 10188.0,2159.0 10165.0,2180.0 C 10147.0,2197.0 10142.0,2210.0 10146.0,2226.0 C 10152.0,2250.0 10129.0,2296.0 10090.0,2338.0 C 10068.0,2361.0 10058.0,2365.0 10047.0,2353.0" fill="pink"/>
	<path d="M 10967.0,2123.0 C 10957.0,2114.0 10958.0,2060.0 10968.0,2060.0 C 10976.0,2060.0 10984.0,2074.0 11008.0,2123.0 C 11013.0,2132.0 10976.0,2133.0 10967.0,2123.0" fill="pink"/>
	<path d="M 6907.0,2078.0 C 6902.0,2062.0 6917.0,2030.0 6931.0,2030.0 C 6945.0,2030.0 6938.0,2082.0 6924.0,2087.0 C 6917.0,2089.0 6910.0,2085.0 6907.0,2078.0" fill="pink"/>
	<path d="M 9192.0,2034.0 C 9179.0,2025.0 9170.0,2008.0 9170.0,1993.0 C 9170.0,1977.0 9155.0,1948.0 9131.0,1920.0 C 9110.0,1895.0 9091.0,1865.0 9088.0,1855.0 C 9085.0,1839.0 9076.0,1835.0 9046.0,1835.0 C 9015.0,1835.0 9006.0,1831.0 8999.0,1813.0 C 8994.0,1800.0 8984.0,1790.0 8975.0,1790.0 C 8967.0,1790.0 8952.0,1775.0 8943.0,1757.0 C 8908.0,1692.0 8858.0,1620.0 8840.0,1610.0 C 8830.0,1604.0 8801.0,1600.0 8777.0,1600.0 C 8734.0,1600.0 8731.0,1598.0 8706.0,1556.0 C 8692.0,1531.0 8680.0,1498.0 8680.0,1481.0 C 8680.0,1443.0 8664.0,1433.0 8640.0,1455.0 C 8629.0,1465.0 8614.0,1469.0 8602.0,1466.0 C 8590.0,1462.0 8577.0,1467.0 8565.0,1480.0 C 8542.0,1506.0 8532.0,1505.0 8496.0,1475.0 C 8470.0,1454.0 8466.0,1443.0 8462.0,1387.0 C 8459.0,1341.0 8462.0,1314.0 8475.0,1291.0 C 8487.0,1267.0 8488.0,1255.0 8480.0,1245.0 C 8472.0,1235.0 8475.0,1226.0 8492.0,1207.0 C 8554.0,1141.0 8560.0,1129.0 8564.0,1064.0 C 8567.0,1023.0 8575.0,994.0 8585.0,983.0 C 8595.0,973.0 8599.0,958.0 8596.0,944.0 C 8592.0,931.0 8595.0,920.0 8602.0,918.0 C 8613.0,914.0 8690.0,923.0 8719.0,931.0 C 8728.0,933.0 8736.0,925.0 8740.0,910.0 C 8745.0,889.0 8752.0,885.0 8785.0,884.0 C 8807.0,883.0 8836.0,888.0 8850.0,895.0 C 8871.0,906.0 8881.0,906.0 8910.0,893.0 C 8929.0,885.0 8958.0,878.0 8974.0,877.0 C 8999.0,875.0 9005.0,869.0 9014.0,835.0 C 9029.0,782.0 9052.0,780.0 9113.0,826.0 C 9172.0,869.0 9220.0,960.0 9220.0,1029.0 C 9220.0,1070.0 9224.0,1077.0 9271.0,1119.0 L 9323.0,1165.0 L 9324.0,1242.0 C 9326.0,1339.0 9337.0,1354.0 9401.0,1347.0 C 9431.0,1343.0 9454.0,1346.0 9465.0,1354.0 C 9481.0,1366.0 9480.0,1369.0 9449.0,1404.0 C 9431.0,1425.0 9406.0,1446.0 9394.0,1450.0 C 9375.0,1458.0 9372.0,1464.0 9377.0,1499.0 C 9382.0,1533.0 9379.0,1542.0 9357.0,1562.0 C 9322.0,1595.0 9309.0,1681.0 9335.0,1710.0 C 9345.0,1721.0 9359.0,1730.0 9365.0,1730.0 C 9372.0,1730.0 9388.0,1738.0 9400.0,1748.0 L 9423.0,1767.0 L 9401.0,1782.0 C 9381.0,1796.0 9380.0,1799.0 9395.0,1814.0 C 9404.0,1823.0 9422.0,1830.0 9434.0,1830.0 C 9447.0,1830.0 9463.0,1837.0 9470.0,1845.0 C 9481.0,1858.0 9479.0,1865.0 9460.0,1885.0 C 9447.0,1899.0 9428.0,1910.0 9418.0,1910.0 C 9400.0,1910.0 9342.0,1945.0 9328.0,1965.0 C 9324.0,1970.0 9324.0,1978.0 9326.0,1982.0 C 9329.0,1987.0 9317.0,2004.0 9300.0,2020.0 C 9264.0,2054.0 9227.0,2058.0 9192.0,2034.0" fill="pink"/>
	<path d="M 9722.0,1988.0 C 9728.0,1970.0 9744.0,1968.0 9765.0,1985.0 C 9784.0,1999.0 9783.0,1999.0 9752.0,2000.0 C 9730.0,2000.0 9720.0,1996.0 9722.0,1988.0" fill="pink"/>
	<path d="M 9652.0,1949.0 C 9639.0,1944.0 9632.0,1936.0 9635.0,1930.0 C 9643.0,1917.0 9677.0,1917.0 9686.0,1931.0 C 9696.0,1948.0 9677.0,1959.0 9652.0,1949.0" fill="pink"/>
	<path d="M 7094.0,1905.0 C 7083.0,1878.0 7100.0,1820.0 7129.0,1787.0 C 7144.0,1770.0 7163.0,1745.0 7169.0,1732.0 C 7176.0,1719.0 7201.0,1700.0 7225.0,1690.0 C 7249.0,1680.0 7274.0,1661.0 7281.0,1648.0 C 7288.0,1635.0 7301.0,1619.0 7312.0,1612.0 C 7323.0,1603.0 7330.0,1586.0 7330.0,1564.0 C 7330.0,1514.0 7345.0,1492.0 7386.0,1484.0 C 7430.0,1476.0 7443.0,1455.0 7466.0,1356.0 C 7483.0,1287.0 7488.0,1276.0 7513.0,1268.0 C 7528.0,1262.0 7540.0,1254.0 7540.0,1249.0 C 7540.0,1244.0 7550.0,1230.0 7562.0,1218.0 C 7574.0,1206.0 7594.0,1168.0 7606.0,1134.0 C 7618.0,1100.0 7639.0,1053.0 7653.0,1029.0 C 7667.0,1005.0 7690.0,963.0 7703.0,935.0 C 7716.0,908.0 7737.0,876.0 7750.0,865.0 C 7762.0,854.0 7778.0,833.0 7786.0,818.0 C 7794.0,802.0 7815.0,784.0 7833.0,776.0 C 7868.0,761.0 7970.0,664.0 7970.0,645.0 C 7970.0,639.0 7979.0,625.0 7989.0,616.0 C 8007.0,600.0 8010.0,600.0 8040.0,615.0 C 8069.0,630.0 8073.0,630.0 8097.0,615.0 C 8134.0,591.0 8140.0,606.0 8140.0,729.0 C 8140.0,825.0 8142.0,836.0 8166.0,867.0 L 8191.0,900.0 L 8148.0,950.0 C 8121.0,981.0 8097.0,1000.0 8084.0,1000.0 C 8057.0,1000.0 8000.0,1084.0 8000.0,1122.0 C 8000.0,1151.0 7979.0,1173.0 7955.0,1168.0 C 7924.0,1162.0 7915.0,1193.0 7933.0,1246.0 C 7947.0,1291.0 7947.0,1296.0 7933.0,1312.0 C 7924.0,1323.0 7903.0,1330.0 7883.0,1330.0 C 7850.0,1330.0 7849.0,1331.0 7855.0,1363.0 C 7863.0,1406.0 7841.0,1430.0 7795.0,1430.0 C 7764.0,1430.0 7761.0,1433.0 7758.0,1463.0 C 7755.0,1492.0 7752.0,1495.0 7724.0,1493.0 C 7700.0,1491.0 7688.0,1496.0 7676.0,1515.0 C 7666.0,1531.0 7650.0,1540.0 7634.0,1540.0 C 7618.0,1540.0 7598.0,1552.0 7582.0,1569.0 C 7567.0,1586.0 7541.0,1614.0 7524.0,1633.0 C 7506.0,1652.0 7487.0,1677.0 7481.0,1689.0 C 7474.0,1700.0 7462.0,1710.0 7454.0,1710.0 C 7432.0,1710.0 7370.0,1762.0 7370.0,1781.0 C 7370.0,1790.0 7355.0,1814.0 7337.0,1834.0 C 7305.0,1868.0 7301.0,1870.0 7238.0,1870.0 C 7182.0,1870.0 7167.0,1874.0 7142.0,1895.0 C 7107.0,1924.0 7101.0,1925.0 7094.0,1905.0" fill="pink"/>
	<path d="M 10830.0,1785.0 C 10830.0,1777.0 10839.0,1766.0 10850.0,1760.0 C 10866.0,1751.0 10872.0,1752.0 10876.0,1764.0 C 10879.0,1772.0 10879.0,1784.0 10875.0,1790.0 C 10866.0,1805.0 10830.0,1802.0 10830.0,1785.0" fill="pink"/>
	<path d="M 10214.0,1755.0 C 10207.0,1738.0 10218.0,1718.0 10231.0,1725.0 C 10243.0,1733.0 10243.0,1770.0 10230.0,1770.0 C 10224.0,1770.0 10217.0,1763.0 10214.0,1755.0" fill="pink"/>
	<path d="M 7129.0,1584.0 C 7119.0,1571.0 7119.0,1567.0 7131.0,1559.0 C 7139.0,1554.0 7153.0,1550.0 7162.0,1550.0 C 7171.0,1550.0 7185.0,1547.0 7194.0,1544.0 C 7216.0,1535.0 7215.0,1563.0 7192.0,1583.0 C 7169.0,1604.0 7146.0,1605.0 7129.0,1584.0" fill="pink"/>
	<path d="M 10391.0,1546.0 C 10381.0,1534.0 10381.0,1524.0 10389.0,1505.0 C 10405.0,1469.0 10415.0,1470.0 10418.0,1509.0 C 10422.0,1549.0 10408.0,1567.0 10391.0,1546.0" fill="pink"/>
	<path d="M 10337.0,1482.0 C 10327.0,1472.0 10313.0,1442.0 10304.0,1416.0 C 10289.0,1374.0 10289.0,1366.0 10304.0,1330.0 C 10326.0,1274.0 10324.0,1253.0 10293.0,1216.0 L 10267.0,1185.0 L 10301.0,1182.0 C 10320.0,1180.0 10343.0,1171.0 10352.0,1163.0 C 10366.0,1150.0 10373.0,1150.0 10384.0,1160.0 C 10397.0,1170.0 10397.0,1175.0 10379.0,1199.0 C 10366.0,1216.0 10360.0,1238.0 10362.0,1256.0 C 10364.0,1280.0 10370.0,1286.0 10395.0,1288.0 C 10447.0,1293.0 10452.0,1297.0 10439.0,1321.0 C 10431.0,1337.0 10431.0,1348.0 10440.0,1365.0 C 10446.0,1377.0 10450.0,1400.0 10448.0,1416.0 C 10445.0,1445.0 10433.0,1450.0 10398.0,1435.0 C 10384.0,1430.0 10380.0,1433.0 10380.0,1448.0 C 10380.0,1474.0 10370.0,1500.0 10360.0,1500.0 C 10356.0,1500.0 10346.0,1492.0 10337.0,1482.0" fill="pink"/>
	<path d="M 10038.0,1435.0 C 10032.0,1421.0 10021.0,1410.0 10013.0,1410.0 C 10006.0,1410.0 9995.0,1399.0 9990.0,1385.0 C 9981.0,1362.0 9977.0,1360.0 9908.0,1362.0 C 9868.0,1362.0 9826.0,1367.0 9815.0,1373.0 C 9804.0,1379.0 9766.0,1390.0 9731.0,1397.0 C 9667.0,1410.0 9666.0,1410.0 9643.0,1386.0 C 9630.0,1372.0 9602.0,1355.0 9580.0,1349.0 C 9541.0,1337.0 9528.0,1319.0 9532.0,1280.0 C 9536.0,1231.0 9528.0,1170.0 9515.0,1158.0 C 9507.0,1151.0 9494.0,1139.0 9485.0,1132.0 C 9475.0,1123.0 9470.0,1101.0 9470.0,1065.0 C 9470.0,1029.0 9463.0,1000.0 9449.0,976.0 C 9437.0,955.0 9430.0,928.0 9432.0,908.0 C 9435.0,878.0 9438.0,875.0 9467.0,877.0 C 9530.0,882.0 9548.0,809.0 9509.0,705.0 C 9498.0,674.0 9491.0,643.0 9494.0,635.0 C 9501.0,616.0 9585.0,614.0 9596.0,632.0 C 9601.0,639.0 9605.0,713.0 9605.0,798.0 C 9607.0,954.0 9612.0,975.0 9646.0,968.0 C 9662.0,965.0 9665.0,955.0 9665.0,895.0 C 9665.0,830.0 9666.0,826.0 9690.0,820.0 C 9708.0,815.0 9714.0,808.0 9712.0,794.0 C 9710.0,784.0 9707.0,762.0 9707.0,745.0 C 9705.0,719.0 9709.0,715.0 9732.0,712.0 C 9754.0,709.0 9762.0,714.0 9770.0,735.0 C 9778.0,757.0 9785.0,761.0 9812.0,758.0 C 9840.0,755.0 9845.0,759.0 9848.0,779.0 C 9851.0,794.0 9842.0,812.0 9824.0,831.0 C 9799.0,857.0 9798.0,862.0 9810.0,885.0 C 9822.0,908.0 9820.0,913.0 9776.0,965.0 C 9722.0,1027.0 9721.0,1052.0 9773.0,1069.0 C 9790.0,1076.0 9820.0,1095.0 9838.0,1113.0 C 9856.0,1131.0 9881.0,1145.0 9893.0,1145.0 C 9919.0,1145.0 9929.0,1181.0 9908.0,1197.0 C 9890.0,1212.0 9790.0,1201.0 9790.0,1184.0 C 9790.0,1176.0 9774.0,1170.0 9748.0,1168.0 C 9714.0,1166.0 9705.0,1161.0 9705.0,1146.0 C 9705.0,1118.0 9676.0,1103.0 9655.0,1120.0 C 9646.0,1127.0 9641.0,1139.0 9644.0,1146.0 C 9647.0,1153.0 9639.0,1167.0 9626.0,1177.0 C 9610.0,1189.0 9601.0,1209.0 9597.0,1237.0 C 9590.0,1296.0 9602.0,1304.0 9684.0,1289.0 C 9739.0,1279.0 9755.0,1279.0 9789.0,1292.0 C 9812.0,1301.0 9833.0,1304.0 9841.0,1299.0 C 9861.0,1287.0 9997.0,1288.0 10021.0,1300.0 C 10041.0,1311.0 10100.0,1419.0 10100.0,1445.0 C 10100.0,1471.0 10051.0,1464.0 10038.0,1435.0" fill="pink"/>
	<path d="M 4857.0,1328.0 C 4850.0,1301.0 4856.0,1289.0 4875.0,1297.0 C 4894.0,1304.0 4895.0,1350.0 4876.0,1350.0 C 4869.0,1350.0 4860.0,1340.0 4857.0,1328.0" fill="pink"/>
	<path d="M 8014.0,1249.0 C 8011.0,1243.0 8012.0,1234.0 8018.0,1228.0 C 8033.0,1213.0 8064.0,1223.0 8068.0,1243.0 C 8071.0,1255.0 8065.0,1260.0 8046.0,1260.0 C 8032.0,1260.0 8018.0,1255.0 8014.0,1249.0" fill="pink"/>
	<path d="M 7397.0,1234.0 C 7383.0,1220.0 7390.0,1199.0 7408.0,1202.0 C 7417.0,1204.0 7425.0,1212.0 7425.0,1219.0 C 7425.0,1235.0 7407.0,1244.0 7397.0,1234.0" fill="pink"/>
	<path d="M 10606.0,1173.0 C 10597.0,1164.0 10599.0,1140.0 10609.0,1140.0 C 10621.0,1140.0 10631.0,1168.0 10621.0,1174.0 C 10616.0,1177.0 10610.0,1177.0 10606.0,1173.0" fill="pink"/>
	<path d="M 7423.0,1153.0 C 7391.0,1142.0 7426.0,1080.0 7463.0,1080.0 C 7483.0,1080.0 7483.0,1079.0 7469.0,1118.0 C 7458.0,1150.0 7444.0,1160.0 7423.0,1153.0" fill="pink"/>
	<path d="M 9857.0,1112.0 C 9833.0,1086.0 9836.0,1080.0 9873.0,1080.0 C 9912.0,1080.0 9939.0,1095.0 9925.0,1108.0 C 9903.0,1129.0 9873.0,1130.0 9857.0,1112.0" fill="pink"/>
	<path d="M 10302.0,1098.0 C 10288.0,1084.0 10286.0,1054.0 10299.0,1045.0 C 10304.0,1042.0 10312.0,1045.0 10315.0,1051.0 C 10319.0,1056.0 10337.0,1060.0 10356.0,1058.0 C 10374.0,1057.0 10390.0,1059.0 10390.0,1063.0 C 10390.0,1067.0 10390.0,1074.0 10390.0,1078.0 C 10390.0,1088.0 10346.0,1110.0 10327.0,1110.0 C 10320.0,1110.0 10309.0,1105.0 10302.0,1098.0" fill="pink"/>
	<path d="M 8115.0,1079.0 C 8089.0,1063.0 8073.0,1041.0 8071.0,1018.0 C 8070.0,1014.0 8087.0,1010.0 8107.0,1008.0 C 8138.0,1006.0 8145.0,1000.0 8151.0,977.0 C 8159.0,946.0 8216.0,883.0 8226.0,893.0 C 8230.0,896.0 8235.0,918.0 8237.0,942.0 C 8242.0,981.0 8239.0,987.0 8216.0,999.0 C 8202.0,1007.0 8190.0,1022.0 8190.0,1032.0 C 8190.0,1057.0 8174.0,1086.0 8158.0,1092.0 C 8151.0,1095.0 8132.0,1089.0 8115.0,1079.0" fill="pink"/>
	<path d="M 9987.0,1071.0 C 9985.0,1060.0 9987.0,1047.0 9993.0,1041.0 C 10007.0,1027.0 10065.0,1027.0 10091.0,1041.0 C 10111.0,1051.0 10111.0,1052.0 10094.0,1071.0 C 10070.0,1098.0 9994.0,1098.0 9987.0,1071.0" fill="pink"/>
	<path d="M 10544.0,1066.0 C 10535.0,1041.0 10547.0,1021.0 10575.0,1014.0 C 10606.0,1006.0 10632.0,1026.0 10628.0,1054.0 C 10626.0,1070.0 10617.0,1076.0 10587.0,1078.0 C 10561.0,1080.0 10548.0,1077.0 10544.0,1066.0" fill="pink"/>
	<path d="M 7535.0,1009.0 C 7525.0,994.0 7536.0,986.0 7555.0,994.0 C 7564.0,997.0 7568.0,1004.0 7565.0,1010.0 C 7557.0,1023.0 7543.0,1023.0 7535.0,1009.0" fill="pink"/>
	<path d="M 10157.0,1003.0 C 10145.0,992.0 10149.0,980.0 10165.0,980.0 C 10173.0,980.0 10180.0,987.0 10180.0,995.0 C 10180.0,1011.0 10168.0,1015.0 10157.0,1003.0" fill="pink"/>
	<path d="M 8321.0,964.0 C 8301.0,943.0 8299.0,936.0 8308.0,915.0 C 8321.0,887.0 8328.0,885.0 8364.0,901.0 C 8400.0,918.0 8403.0,946.0 8371.0,969.0 C 8344.0,988.0 8344.0,988.0 8321.0,964.0" fill="pink"/>
	<path d="M 10392.0,939.0 C 10373.0,932.0 10369.0,924.0 10372.0,893.0 L 10375.0,855.0 L 10451.0,858.0 C 10521.0,861.0 10529.0,860.0 10558.0,835.0 C 10597.0,802.0 10643.0,803.0 10648.0,837.0 C 10656.0,891.0 10595.0,933.0 10505.0,935.0 C 10478.0,936.0 10446.0,939.0 10435.0,942.0 C 10424.0,946.0 10405.0,944.0 10392.0,939.0" fill="pink"/>
	<path d="M 10183.0,912.0 C 10177.0,908.0 10174.0,893.0 10177.0,877.0 C 10184.0,841.0 10231.0,815.0 10260.0,830.0 C 10282.0,842.0 10287.0,882.0 10268.0,898.0 C 10250.0,912.0 10197.0,921.0 10183.0,912.0" fill="pink"/>
	<path d="M 9856.0,745.0 C 9853.0,737.0 9842.0,730.0 9833.0,730.0 C 9774.0,730.0 9750.0,662.0 9794.0,621.0 C 9831.0,586.0 9856.0,600.0 9863.0,657.0 C 9866.0,688.0 9875.0,709.0 9889.0,719.0 C 9906.0,732.0 9908.0,738.0 9898.0,748.0 C 9882.0,764.0 9863.0,763.0 9856.0,745.0" fill="pink"/>
	<path d="M 10830.0,631.0 C 10823.0,617.0 10823.0,609.0 10831.0,605.0 C 10844.0,597.0 10846.0,599.0 10854.0,628.0 C 10863.0,655.0 10845.0,658.0 10830.0,631.0" fill="pink"/>
	<path d="M 10991.0,618.0 C 10986.0,605.0 10973.0,587.0 10962.0,576.0 C 10938.0,555.0 10915.0,496.0 10925.0,480.0 C 10936.0,462.0 10968.0,469.0 10988.0,494.0 C 10998.0,508.0 11015.0,539.0 11024.0,565.0 C 11038.0,601.0 11039.0,614.0 11030.0,625.0 C 11013.0,646.0 11001.0,644.0 10991.0,618.0" fill="pink"/>
	<path d="M 9580.0,585.0 C 9564.0,566.0 9574.0,539.0 9595.0,546.0 C 9611.0,553.0 9616.0,585.0 9601.0,594.0 C 9596.0,597.0 9587.0,593.0 9580.0,585.0" fill="pink"/>
	<path d="M 8133.0,579.0 C 8127.0,571.0 8119.0,553.0 8115.0,537.0 C 8110.0,517.0 8102.0,510.0 8084.0,510.0 C 8063.0,510.0 8060.0,507.0 8066.0,483.0 C 8076.0,443.0 8080.0,439.0 8101.0,445.0 C 8111.0,448.0 8129.0,452.0 8139.0,456.0 C 8154.0,460.0 8163.0,453.0 8175.0,430.0 C 8189.0,403.0 8194.0,400.0 8224.0,405.0 C 8244.0,409.0 8271.0,406.0 8295.0,396.0 C 8319.0,386.0 8362.0,380.0 8415.0,380.0 C 8467.0,380.0 8509.0,375.0 8527.0,366.0 C 8626.0,317.0 8645.0,312.0 8743.0,311.0 C 8802.0,311.0 8859.0,304.0 8885.0,295.0 C 8941.0,276.0 8957.0,283.0 8971.0,331.0 C 8982.0,365.0 8981.0,373.0 8965.0,390.0 C 8950.0,407.0 8936.0,410.0 8892.0,408.0 C 8838.0,405.0 8838.0,405.0 8827.0,440.0 C 8817.0,469.0 8809.0,475.0 8775.0,482.0 C 8753.0,487.0 8730.0,498.0 8723.0,506.0 C 8715.0,517.0 8703.0,520.0 8686.0,516.0 C 8667.0,511.0 8660.0,514.0 8660.0,525.0 C 8660.0,550.0 8633.0,542.0 8610.0,510.0 C 8586.0,476.0 8572.0,473.0 8527.0,497.0 C 8509.0,506.0 8473.0,514.0 8445.0,515.0 C 8402.0,516.0 8395.0,520.0 8392.0,538.0 C 8387.0,570.0 8365.0,578.0 8249.0,585.0 C 8166.0,591.0 8142.0,590.0 8133.0,579.0" fill="pink"/>
	<path d="M 8833.0,495.0 C 8825.0,473.0 8858.0,440.0 8889.0,440.0 C 8920.0,440.0 8960.0,465.0 8960.0,484.0 C 8960.0,512.0 8844.0,521.0 8833.0,495.0" fill="pink"/>
	<path d="M 10658.0,430.0 C 10602.0,358.0 10593.0,344.0 10597.0,333.0 C 10606.0,307.0 10638.0,321.0 10681.0,371.0 C 10705.0,399.0 10727.0,423.0 10729.0,426.0 C 10736.0,432.0 10708.0,460.0 10695.0,460.0 C 10688.0,460.0 10671.0,447.0 10658.0,430.0" fill="pink"/>
	<path d="M 10154.0,403.0 C 10136.0,401.0 10114.0,390.0 10105.0,380.0 C 10089.0,362.0 10089.0,360.0 10104.0,354.0 C 10127.0,345.0 10186.0,358.0 10200.0,375.0 C 10211.0,389.0 10206.0,412.0 10192.0,408.0 C 10188.0,408.0 10171.0,405.0 10154.0,403.0" fill="pink"/>
	<path d="M 9245.0,309.0 C 9184.0,268.0 9169.0,248.0 9190.0,235.0 C 9206.0,225.0 9397.0,260.0 9418.0,276.0 C 9442.0,294.0 9422.0,324.0 9384.0,328.0 C 9368.0,330.0 9351.0,336.0 9346.0,341.0 C 9329.0,357.0 9306.0,350.0 9245.0,309.0" fill="pink"/>
	<path d="M 8990.0,328.0 C 8990.0,321.0 8998.0,305.0 9008.0,292.0 C 9025.0,270.0 9027.0,270.0 9058.0,285.0 C 9077.0,295.0 9090.0,309.0 9090.0,321.0 C 9090.0,337.0 9083.0,340.0 9040.0,340.0 C 9007.0,340.0 8990.0,336.0 8990.0,328.0" fill="pink"/>
	<path d="M 9115.0,300.0 C 9083.0,249.0 9084.0,243.0 9120.0,238.0 C 9157.0,232.0 9170.0,246.0 9177.0,300.0 C 9182.0,336.0 9180.0,340.0 9161.0,340.0 C 9148.0,340.0 9132.0,326.0 9115.0,300.0" fill="pink"/>
	<path d="M 9522.0,308.0 C 9445.0,260.0 9454.0,237.0 9554.0,227.0 C 9602.0,222.0 9620.0,225.0 9654.0,243.0 C 9677.0,254.0 9718.0,267.0 9745.0,270.0 C 9793.0,275.0 9795.0,276.0 9795.0,305.0 C 9795.0,339.0 9796.0,339.0 9718.0,315.0 C 9662.0,298.0 9661.0,298.0 9634.0,319.0 C 9598.0,347.0 9584.0,346.0 9522.0,308.0" fill="pink"/>
	<path d="M 9852.0,328.0 C 9831.0,307.0 9839.0,290.0 9870.0,290.0 C 9893.0,290.0 9900.0,295.0 9900.0,309.0 C 9900.0,319.0 9893.0,331.0 9884.0,334.0 C 9864.0,342.0 9866.0,342.0 9852.0,328.0" fill="pink"/>
	<path d="M 10101.0,311.0 C 10028.0,296.0 10013.0,289.0 9989.0,260.0 C 9973.0,242.0 9932.0,210.0 9898.0,190.0 C 9841.0,158.0 9835.0,151.0 9832.0,119.0 C 9826.0,54.0 9876.0,46.0 9929.0,104.0 C 9943.0,118.0 9961.0,130.0 9971.0,130.0 C 9980.0,130.0 9994.0,140.0 10003.0,153.0 C 10011.0,165.0 10037.0,185.0 10061.0,197.0 C 10143.0,237.0 10219.0,270.0 10229.0,270.0 C 10248.0,270.0 10241.0,298.0 10218.0,314.0 C 10206.0,323.0 10193.0,330.0 10190.0,329.0 C 10187.0,329.0 10147.0,321.0 10101.0,311.0" fill="pink"/>
	<path d="M 9417.0,206.0 C 9409.0,187.0 9438.0,150.0 9460.0,150.0 C 9470.0,150.0 9488.0,139.0 9501.0,125.0 C 9532.0,93.0 9558.0,93.0 9566.0,125.0 C 9574.0,158.0 9565.0,180.0 9543.0,180.0 C 9533.0,180.0 9520.0,188.0 9513.0,199.0 C 9499.0,221.0 9425.0,227.0 9417.0,206.0" fill="pink"/>
	<path d="M 9766.0,45.0 C 9743.0,28.0 9752.0,0.0 9780.0,0.0 C 9804.0,0.0 9843.0,36.0 9835.0,50.0 C 9826.0,64.0 9788.0,62.0 9766.0,45.0" fill="pink"/>
</svg>
