<?xml version="1.0" ?>
<svg xmlns="http://www.w3.org/2000/svg" xmlns:ev="http://www.w3.org/2001/xml-events" xmlns:xlink="http://www.w3.org/1999/xlink" baseProfile="full" height="472px" version="1.1" viewBox="-1286.1231035390385 -1010.2603941952173 15372.497816765455 12070.675235564398" width="600px">
	<defs/>
	<path d="M 4104.0,10038.0 C 4035.0,9941.0 4062.0,9901.0 4178.0,9925.0 C 4268.0,9944.0 4272.0,9946.0 4268.0,9976.0 C 4265.0,10006.0 4258.0,10010.0 4185.0,10034.0 C 4125.0,10053.0 4115.0,10054.0 4104.0,10038.0" fill="pink"/>
	<path d="M 4381.0,9919.0 C 4351.0,9898.0 4315.0,9880.0 4301.0,9880.0 C 4248.0,9880.0 4230.0,9869.0 4218.0,9829.0 C 4212.0,9807.0 4201.0,9785.0 4193.0,9779.0 C 4176.0,9764.0 4176.0,9706.0 4194.0,9691.0 C 4203.0,9683.0 4215.0,9683.0 4234.0,9690.0 C 4252.0,9697.0 4271.0,9696.0 4297.0,9687.0 C 4332.0,9676.0 4335.0,9672.0 4340.0,9630.0 C 4345.0,9587.0 4348.0,9584.0 4400.0,9557.0 C 4452.0,9530.0 4461.0,9529.0 4565.0,9532.0 L 4675.0,9535.0 L 4678.0,9503.0 C 4682.0,9466.0 4667.0,9460.0 4634.0,9485.0 C 4609.0,9504.0 4566.0,9504.0 4549.0,9484.0 C 4539.0,9471.0 4520.0,9469.0 4456.0,9472.0 L 4375.0,9475.0 L 4372.0,9447.0 C 4368.0,9412.0 4389.0,9387.0 4446.0,9359.0 C 4503.0,9332.0 4513.0,9312.0 4504.0,9244.0 C 4495.0,9171.0 4514.0,9140.0 4568.0,9140.0 C 4605.0,9140.0 4650.0,9168.0 4650.0,9190.0 C 4650.0,9203.0 4691.0,9240.0 4706.0,9240.0 C 4713.0,9240.0 4725.0,9228.0 4732.0,9213.0 C 4742.0,9191.0 4754.0,9184.0 4786.0,9179.0 C 4841.0,9172.0 4870.0,9151.0 4884.0,9110.0 C 4893.0,9082.0 4901.0,9074.0 4925.0,9072.0 C 4942.0,9070.0 5002.0,9054.0 5060.0,9035.0 C 5118.0,9016.0 5207.0,8994.0 5258.0,8986.0 C 5350.0,8973.0 5352.0,8971.0 5400.0,8924.0 C 5427.0,8897.0 5465.0,8861.0 5485.0,8843.0 C 5511.0,8820.0 5520.0,8804.0 5520.0,8780.0 C 5520.0,8761.0 5539.0,8714.0 5566.0,8663.0 C 5610.0,8583.0 5613.0,8572.0 5620.0,8477.0 C 5624.0,8421.0 5623.0,8356.0 5617.0,8331.0 C 5609.0,8294.0 5610.0,8285.0 5625.0,8274.0 C 5638.0,8264.0 5650.0,8265.0 5687.0,8277.0 C 5806.0,8318.0 5904.0,8247.0 5917.0,8111.0 C 5924.0,8041.0 5937.0,8029.0 5993.0,8042.0 C 6016.0,8047.0 6068.0,8049.0 6108.0,8045.0 C 6219.0,8035.0 6315.0,8037.0 6336.0,8050.0 C 6373.0,8073.0 6412.0,8141.0 6406.0,8169.0 C 6402.0,8183.0 6398.0,8201.0 6397.0,8208.0 C 6396.0,8216.0 6412.0,8227.0 6434.0,8235.0 C 6477.0,8250.0 6490.0,8264.0 6490.0,8297.0 C 6490.0,8313.0 6498.0,8321.0 6518.0,8326.0 C 6533.0,8329.0 6569.0,8343.0 6598.0,8357.0 L 6650.0,8383.0 L 6713.0,8365.0 C 6747.0,8356.0 6783.0,8343.0 6794.0,8338.0 C 6804.0,8333.0 6839.0,8324.0 6873.0,8320.0 C 6949.0,8309.0 6965.0,8293.0 6965.0,8230.0 C 6965.0,8172.0 6988.0,8142.0 7041.0,8131.0 C 7072.0,8125.0 7075.0,8121.0 7077.0,8085.0 C 7078.0,8063.0 7079.0,8039.0 7079.0,8032.0 C 7080.0,8025.0 7098.0,8013.0 7120.0,8004.0 C 7166.0,7985.0 7200.0,7948.0 7200.0,7915.0 C 7200.0,7881.0 7220.0,7871.0 7285.0,7873.0 C 7330.0,7875.0 7357.0,7869.0 7391.0,7853.0 C 7416.0,7840.0 7455.0,7830.0 7479.0,7830.0 C 7513.0,7830.0 7531.0,7822.0 7575.0,7789.0 C 7642.0,7738.0 7697.0,7727.0 7729.0,7759.0 C 7740.0,7770.0 7750.0,7786.0 7750.0,7793.0 C 7750.0,7814.0 7708.0,7848.0 7665.0,7862.0 C 7628.0,7874.0 7625.0,7878.0 7622.0,7915.0 C 7618.0,7985.0 7611.0,8000.0 7587.0,8000.0 C 7558.0,8000.0 7541.0,8014.0 7507.0,8068.0 C 7481.0,8108.0 7477.0,8110.0 7437.0,8108.0 L 7395.0,8105.0 L 7390.0,8150.0 C 7382.0,8209.0 7360.0,8250.0 7313.0,8289.0 C 7241.0,8350.0 7234.0,8358.0 7208.0,8411.0 C 7162.0,8504.0 7162.0,8523.0 7209.0,8569.0 C 7252.0,8611.0 7262.0,8650.0 7240.0,8691.0 C 7234.0,8701.0 7180.0,8735.0 7121.0,8765.0 C 7015.0,8818.0 7012.0,8820.0 6994.0,8867.0 C 6959.0,8966.0 6941.0,8999.0 6904.0,9040.0 C 6864.0,9084.0 6802.0,9119.0 6763.0,9120.0 C 6749.0,9120.0 6721.0,9143.0 6683.0,9187.0 C 6651.0,9224.0 6606.0,9273.0 6583.0,9296.0 L 6541.0,9338.0 L 6428.0,9337.0 L 6315.0,9335.0 L 6185.0,9398.0 C 6035.0,9471.0 6043.0,9466.0 5996.0,9503.0 C 5967.0,9527.0 5943.0,9534.0 5858.0,9546.0 C 5732.0,9564.0 5726.0,9565.0 5670.0,9600.0 C 5645.0,9615.0 5614.0,9631.0 5600.0,9635.0 C 5587.0,9639.0 5564.0,9652.0 5549.0,9662.0 C 5493.0,9704.0 5378.0,9693.0 5359.0,9643.0 C 5354.0,9630.0 5350.0,9608.0 5350.0,9594.0 C 5350.0,9574.0 5341.0,9565.0 5308.0,9550.0 C 5284.0,9539.0 5252.0,9530.0 5237.0,9530.0 C 5217.0,9530.0 5198.0,9519.0 5173.0,9491.0 C 5154.0,9469.0 5127.0,9449.0 5113.0,9445.0 C 5091.0,9440.0 5089.0,9435.0 5094.0,9407.0 C 5097.0,9389.0 5096.0,9370.0 5092.0,9364.0 C 5080.0,9345.0 5043.0,9330.0 5010.0,9330.0 C 4913.0,9330.0 4842.0,9436.0 4819.0,9614.0 C 4804.0,9728.0 4771.0,9849.0 4751.0,9859.0 C 4742.0,9864.0 4717.0,9872.0 4696.0,9876.0 C 4674.0,9880.0 4641.0,9893.0 4622.0,9906.0 C 4602.0,9920.0 4572.0,9930.0 4551.0,9930.0 C 4531.0,9931.0 4504.0,9937.0 4490.0,9945.0 C 4454.0,9966.0 4441.0,9963.0 4381.0,9919.0" fill="pink"/>
	<path d="M 5028.0,9879.0 C 5005.0,9866.0 5005.0,9851.0 5029.0,9825.0 C 5040.0,9814.0 5060.0,9793.0 5074.0,9778.0 C 5092.0,9758.0 5109.0,9750.0 5134.0,9750.0 C 5175.0,9750.0 5184.0,9760.0 5175.0,9800.0 C 5163.0,9854.0 5069.0,9904.0 5028.0,9879.0" fill="pink"/>
	<path d="M 7153.0,9655.0 C 7102.0,9633.0 7082.0,9569.0 7116.0,9536.0 C 7139.0,9513.0 7214.0,9516.0 7261.0,9542.0 C 7326.0,9578.0 7324.0,9616.0 7256.0,9649.0 C 7207.0,9673.0 7196.0,9674.0 7153.0,9655.0" fill="pink"/>
	<path d="M 7732.0,9508.0 C 7697.0,9473.0 7733.0,9430.0 7796.0,9430.0 C 7834.0,9430.0 7840.0,9433.0 7846.0,9455.0 C 7855.0,9492.0 7827.0,9520.0 7780.0,9520.0 C 7760.0,9520.0 7739.0,9515.0 7732.0,9508.0" fill="pink"/>
	<path d="M 7933.0,9424.0 C 7930.0,9416.0 7933.0,9391.0 7939.0,9369.0 C 7948.0,9338.0 7957.0,9329.0 7983.0,9322.0 C 8004.0,9317.0 8024.0,9300.0 8041.0,9275.0 C 8071.0,9231.0 8103.0,9215.0 8131.0,9230.0 C 8156.0,9244.0 8157.0,9304.0 8133.0,9325.0 C 8004.0,9435.0 7948.0,9463.0 7933.0,9424.0" fill="pink"/>
	<path d="M 8266.0,9182.0 C 8246.0,9144.0 8235.0,9071.0 8244.0,9037.0 C 8247.0,9023.0 8259.0,9010.0 8271.0,9007.0 C 8301.0,8999.0 8346.0,9024.0 8354.0,9053.0 C 8362.0,9087.0 8343.0,9147.0 8311.0,9183.0 L 8283.0,9214.0 L 8266.0,9182.0" fill="pink"/>
	<path d="M 8015.0,9126.0 C 8000.0,9104.0 8000.0,9099.0 8014.0,9071.0 C 8023.0,9055.0 8030.0,9032.0 8030.0,9021.0 C 8030.0,8995.0 8001.0,8967.0 7981.0,8975.0 C 7970.0,8979.0 7951.0,8966.0 7920.0,8930.0 C 7866.0,8869.0 7820.0,8856.0 7766.0,8885.0 C 7733.0,8903.0 7732.0,8903.0 7696.0,8880.0 C 7665.0,8862.0 7650.0,8859.0 7609.0,8864.0 C 7582.0,8867.0 7538.0,8873.0 7510.0,8876.0 C 7448.0,8884.0 7430.0,8871.0 7430.0,8820.0 C 7430.0,8775.0 7465.0,8740.0 7511.0,8740.0 C 7527.0,8740.0 7574.0,8728.0 7616.0,8714.0 C 7677.0,8693.0 7704.0,8688.0 7754.0,8692.0 C 7824.0,8698.0 7934.0,8744.0 7985.0,8789.0 C 8004.0,8805.0 8033.0,8821.0 8052.0,8825.0 C 8101.0,8836.0 8126.0,8856.0 8170.0,8922.0 C 8203.0,8971.0 8210.0,8991.0 8210.0,9030.0 C 8210.0,9082.0 8201.0,9095.0 8155.0,9106.0 C 8138.0,9110.0 8114.0,9121.0 8101.0,9132.0 C 8068.0,9157.0 8034.0,9155.0 8015.0,9126.0" fill="pink"/>
	<path d="M 7164.0,8906.0 C 7161.0,8898.0 7160.0,8881.0 7162.0,8868.0 C 7164.0,8849.0 7172.0,8844.0 7202.0,8842.0 C 7232.0,8839.0 7240.0,8843.0 7245.0,8860.0 C 7258.0,8902.0 7179.0,8946.0 7164.0,8906.0" fill="pink"/>
	<path d="M 8599.0,8873.0 C 8598.0,8868.0 8599.0,8855.0 8600.0,8842.0 C 8601.0,8830.0 8590.0,8806.0 8576.0,8789.0 C 8562.0,8772.0 8550.0,8754.0 8550.0,8749.0 C 8550.0,8737.0 8587.0,8700.0 8599.0,8700.0 C 8614.0,8700.0 8640.0,8634.0 8640.0,8597.0 C 8640.0,8550.0 8668.0,8530.0 8733.0,8530.0 C 8773.0,8530.0 8786.0,8535.0 8811.0,8559.0 C 8860.0,8608.0 8849.0,8655.0 8773.0,8726.0 C 8750.0,8748.0 8730.0,8776.0 8730.0,8787.0 C 8730.0,8810.0 8706.0,8834.0 8673.0,8844.0 C 8662.0,8848.0 8646.0,8857.0 8640.0,8865.0 C 8627.0,8881.0 8601.0,8885.0 8599.0,8873.0" fill="pink"/>
	<path d="M 7290.0,8820.0 C 7276.0,8794.0 7289.0,8776.0 7316.0,8782.0 C 7329.0,8784.0 7335.0,8794.0 7335.0,8810.0 C 7335.0,8842.0 7305.0,8848.0 7290.0,8820.0" fill="pink"/>
	<path d="M 8927.0,8593.0 C 8911.0,8578.0 8921.0,8532.0 8945.0,8510.0 C 8960.0,8496.0 8970.0,8475.0 8970.0,8458.0 C 8970.0,8443.0 8979.0,8421.0 8989.0,8411.0 C 9010.0,8390.0 9086.0,8374.0 9124.0,8384.0 C 9154.0,8391.0 9164.0,8427.0 9144.0,8458.0 C 9128.0,8482.0 9124.0,8484.0 9078.0,8494.0 C 9062.0,8498.0 9049.0,8509.0 9044.0,8523.0 C 9029.0,8571.0 9000.0,8600.0 8966.0,8600.0 C 8948.0,8600.0 8930.0,8597.0 8927.0,8593.0" fill="pink"/>
	<path d="M 5437.0,8378.0 C 5353.0,8287.0 5343.0,8271.0 5360.0,8240.0 C 5374.0,8215.0 5386.0,8215.0 5435.0,8241.0 C 5457.0,8253.0 5495.0,8266.0 5519.0,8269.0 C 5573.0,8276.0 5600.0,8308.0 5607.0,8372.0 C 5614.0,8435.0 5599.0,8460.0 5552.0,8460.0 C 5519.0,8460.0 5508.0,8452.0 5437.0,8378.0" fill="pink"/>
	<path d="M 9236.0,8424.0 C 9227.0,8415.0 9220.0,8392.0 9220.0,8370.0 C 9220.0,8340.0 9226.0,8327.0 9251.0,8306.0 C 9268.0,8292.0 9285.0,8280.0 9289.0,8280.0 C 9293.0,8280.0 9316.0,8262.0 9341.0,8240.0 C 9365.0,8218.0 9402.0,8195.0 9422.0,8188.0 C 9455.0,8178.0 9463.0,8179.0 9480.0,8195.0 C 9507.0,8219.0 9506.0,8256.0 9478.0,8271.0 C 9465.0,8277.0 9430.0,8306.0 9400.0,8335.0 C 9346.0,8387.0 9275.0,8440.0 9259.0,8440.0 C 9255.0,8440.0 9244.0,8433.0 9236.0,8424.0" fill="pink"/>
	<path d="M 9042.0,8288.0 C 9035.0,8281.0 9030.0,8265.0 9030.0,8252.0 C 9030.0,8239.0 9022.0,8215.0 9013.0,8198.0 C 8995.0,8169.0 8995.0,8168.0 9019.0,8149.0 C 9047.0,8126.0 9055.0,8125.0 9072.0,8146.0 C 9079.0,8155.0 9099.0,8176.0 9117.0,8193.0 C 9154.0,8228.0 9150.0,8248.0 9097.0,8280.0 C 9059.0,8303.0 9058.0,8304.0 9042.0,8288.0" fill="pink"/>
	<path d="M 7802.0,8198.0 C 7772.0,8168.0 7797.0,8110.0 7840.0,8110.0 C 7866.0,8110.0 7870.0,8114.0 7870.0,8138.0 C 7870.0,8169.0 7845.0,8210.0 7826.0,8210.0 C 7820.0,8210.0 7809.0,8205.0 7802.0,8198.0" fill="pink"/>
	<path d="M 9627.0,8163.0 C 9623.0,8160.0 9620.0,8133.0 9620.0,8105.0 C 9620.0,8063.0 9626.0,8045.0 9649.0,8012.0 C 9685.0,7963.0 9694.0,7957.0 9721.0,7965.0 C 9756.0,7976.0 9760.0,8010.0 9734.0,8060.0 C 9721.0,8085.0 9710.0,8114.0 9710.0,8125.0 C 9710.0,8137.0 9705.0,8151.0 9698.0,8158.0 C 9685.0,8171.0 9638.0,8174.0 9627.0,8163.0" fill="pink"/>
	<path d="M 8130.0,8100.0 C 8092.0,8062.0 8112.0,8029.0 8168.0,8037.0 C 8212.0,8044.0 8227.0,8073.0 8200.0,8100.0 C 8175.0,8125.0 8155.0,8125.0 8130.0,8100.0" fill="pink"/>
	<path d="M 9416.0,8051.0 C 9412.0,8046.0 9412.0,8035.0 9415.0,8028.0 C 9418.0,8020.0 9416.0,8001.0 9410.0,7986.0 C 9396.0,7948.0 9412.0,7923.0 9463.0,7899.0 C 9517.0,7875.0 9557.0,7875.0 9598.0,7900.0 C 9626.0,7917.0 9631.0,7925.0 9628.0,7953.0 C 9625.0,7984.0 9623.0,7985.0 9570.0,7991.0 C 9509.0,7998.0 9484.0,8008.0 9456.0,8039.0 C 9435.0,8062.0 9424.0,8065.0 9416.0,8051.0" fill="pink"/>
	<path d="M 7707.0,8024.0 C 7695.0,8012.0 7699.0,7945.0 7712.0,7932.0 C 7727.0,7917.0 7784.0,7916.0 7811.0,7930.0 C 7849.0,7951.0 7824.0,8002.0 7770.0,8012.0 C 7756.0,8015.0 7738.0,8020.0 7729.0,8024.0 C 7721.0,8028.0 7711.0,8027.0 7707.0,8024.0" fill="pink"/>
	<path d="M 7812.0,7888.0 C 7777.0,7853.0 7820.0,7809.0 7870.0,7830.0 C 7903.0,7844.0 7915.0,7867.0 7899.0,7886.0 C 7885.0,7903.0 7828.0,7904.0 7812.0,7888.0" fill="pink"/>
	<path d="M 9744.0,7804.0 C 9735.0,7768.0 9747.0,7709.0 9767.0,7689.0 C 9793.0,7665.0 9897.0,7679.0 9923.0,7711.0 C 9949.0,7744.0 9939.0,7755.0 9882.0,7758.0 C 9838.0,7761.0 9825.0,7766.0 9796.0,7796.0 C 9778.0,7814.0 9760.0,7830.0 9757.0,7830.0 C 9753.0,7830.0 9747.0,7819.0 9744.0,7804.0" fill="pink"/>
	<path d="M 8006.0,7734.0 C 7984.0,7713.0 7986.0,7697.0 8013.0,7672.0 C 8042.0,7645.0 8066.0,7644.0 8080.0,7669.0 C 8094.0,7697.0 8093.0,7707.0 8070.0,7730.0 C 8046.0,7754.0 8027.0,7755.0 8006.0,7734.0" fill="pink"/>
	<path d="M 6132.0,7723.0 C 6109.0,7702.0 6080.0,7630.0 6080.0,7592.0 C 6080.0,7577.0 6070.0,7547.0 6059.0,7525.0 C 6020.0,7453.0 6008.0,7406.0 6001.0,7293.0 C 5995.0,7193.0 5991.0,7178.0 5965.0,7140.0 C 5939.0,7103.0 5938.0,7096.0 5948.0,7066.0 C 5965.0,7020.0 5963.0,7006.0 5934.0,6949.0 C 5898.0,6876.0 5857.0,6746.0 5820.0,6580.0 C 5781.0,6407.0 5761.0,6372.0 5670.0,6318.0 C 5551.0,6248.0 5465.0,6257.0 5395.0,6348.0 C 5370.0,6382.0 5335.0,6412.0 5300.0,6431.0 C 5270.0,6447.0 5209.0,6496.0 5165.0,6540.0 C 5106.0,6598.0 5068.0,6627.0 5019.0,6649.0 C 4943.0,6683.0 4934.0,6693.0 4917.0,6751.0 C 4906.0,6789.0 4900.0,6796.0 4865.0,6806.0 C 4827.0,6816.0 4790.0,6857.0 4790.0,6887.0 C 4790.0,6894.0 4819.0,6932.0 4855.0,6972.0 C 4921.0,7047.0 4929.0,7067.0 4906.0,7109.0 C 4872.0,7169.0 4927.0,7236.0 5008.0,7233.0 C 5069.0,7231.0 5082.0,7242.0 5074.0,7291.0 C 5069.0,7323.0 5072.0,7334.0 5094.0,7360.0 C 5108.0,7378.0 5120.0,7396.0 5120.0,7402.0 C 5120.0,7407.0 5104.0,7428.0 5085.0,7447.0 C 5054.0,7478.0 5046.0,7481.0 5012.0,7476.0 C 4937.0,7463.0 4935.0,7464.0 4932.0,7490.0 C 4927.0,7526.0 4916.0,7533.0 4881.0,7525.0 C 4862.0,7521.0 4844.0,7507.0 4833.0,7489.0 C 4823.0,7473.0 4805.0,7457.0 4793.0,7454.0 C 4768.0,7447.0 4696.0,7469.0 4600.0,7512.0 C 4564.0,7528.0 4514.0,7545.0 4488.0,7550.0 C 4459.0,7556.0 4422.0,7574.0 4389.0,7599.0 C 4307.0,7661.0 4210.0,7676.0 4195.0,7629.0 C 4184.0,7597.0 4199.0,7573.0 4240.0,7556.0 C 4261.0,7548.0 4281.0,7536.0 4285.0,7530.0 C 4298.0,7510.0 4268.0,7459.0 4231.0,7439.0 C 4211.0,7428.0 4182.0,7411.0 4167.0,7402.0 C 4139.0,7385.0 4139.0,7385.0 4119.0,7413.0 C 4093.0,7447.0 4077.0,7447.0 4045.0,7412.0 C 4029.0,7394.0 3994.0,7375.0 3949.0,7360.0 C 3856.0,7328.0 3827.0,7294.0 3832.0,7219.0 C 3835.0,7164.0 3833.0,7161.0 3776.0,7144.0 C 3755.0,7137.0 3744.0,7125.0 3735.0,7100.0 C 3728.0,7078.0 3710.0,7056.0 3687.0,7041.0 C 3667.0,7028.0 3650.0,7010.0 3650.0,7001.0 C 3650.0,6984.0 3682.0,6916.0 3702.0,6888.0 C 3721.0,6862.0 3701.0,6837.0 3655.0,6828.0 C 3624.0,6821.0 3610.0,6824.0 3574.0,6845.0 C 3523.0,6875.0 3515.0,6876.0 3483.0,6850.0 C 3469.0,6839.0 3452.0,6830.0 3445.0,6830.0 C 3434.0,6830.0 3410.0,6870.0 3359.0,6975.0 C 3348.0,6997.0 3336.0,7022.0 3331.0,7030.0 C 3327.0,7038.0 3293.0,7060.0 3256.0,7079.0 C 3175.0,7120.0 3151.0,7116.0 3117.0,7058.0 C 3081.0,6996.0 3057.0,6978.0 3003.0,6973.0 C 2943.0,6966.0 2926.0,6951.0 2885.0,6869.0 C 2846.0,6792.0 2838.0,6785.0 2785.0,6777.0 C 2730.0,6769.0 2693.0,6726.0 2685.0,6663.0 C 2682.0,6637.0 2675.0,6605.0 2670.0,6593.0 C 2657.0,6562.0 2597.0,6539.0 2549.0,6546.0 C 2502.0,6554.0 2490.0,6535.0 2515.0,6492.0 C 2531.0,6465.0 2531.0,6461.0 2515.0,6429.0 C 2477.0,6355.0 2443.0,6341.0 2413.0,6387.0 C 2400.0,6407.0 2396.0,6431.0 2397.0,6472.0 C 2399.0,6522.0 2397.0,6530.0 2382.0,6530.0 C 2357.0,6530.0 2315.0,6484.0 2295.0,6435.0 C 2286.0,6413.0 2268.0,6383.0 2254.0,6369.0 C 2225.0,6339.0 2210.0,6292.0 2210.0,6232.0 C 2210.0,6173.0 2202.0,6162.0 2112.0,6087.0 C 2048.0,6035.0 2027.0,6009.0 1995.0,5949.0 C 1937.0,5836.0 1922.0,5820.0 1851.0,5786.0 C 1789.0,5757.0 1778.0,5755.0 1659.0,5754.0 C 1531.0,5753.0 1510.0,5749.0 1510.0,5726.0 C 1510.0,5696.0 1476.0,5680.0 1422.0,5687.0 C 1359.0,5694.0 1314.0,5678.0 1294.0,5639.0 C 1276.0,5603.0 1246.0,5596.0 1164.0,5604.0 C 1111.0,5609.0 1093.0,5607.0 1061.0,5591.0 C 1039.0,5580.0 1004.0,5568.0 981.0,5564.0 C 951.0,5559.0 927.0,5545.0 887.0,5506.0 C 854.0,5474.0 801.0,5438.0 747.0,5412.0 C 670.0,5374.0 654.0,5361.0 618.0,5309.0 C 576.0,5249.0 557.0,5238.0 546.0,5265.0 C 538.0,5288.0 512.0,5283.0 495.0,5256.0 C 482.0,5237.0 480.0,5218.0 486.0,5172.0 C 493.0,5104.0 482.0,5071.0 410.0,4955.0 C 357.0,4869.0 349.0,4817.0 378.0,4744.0 C 422.0,4634.0 425.0,4473.0 384.0,4439.0 C 362.0,4421.0 352.0,4436.0 345.0,4498.0 C 337.0,4572.0 327.0,4589.0 303.0,4574.0 C 288.0,4564.0 286.0,4551.0 288.0,4486.0 C 291.0,4422.0 289.0,4410.0 276.0,4410.0 C 267.0,4410.0 255.0,4419.0 248.0,4430.0 C 241.0,4441.0 227.0,4450.0 218.0,4450.0 C 187.0,4450.0 194.0,4372.0 229.0,4330.0 C 286.0,4260.0 293.0,4235.0 287.0,4127.0 L 282.0,4028.0 L 321.0,3952.0 C 374.0,3848.0 378.0,3824.0 346.0,3780.0 C 332.0,3761.0 313.0,3734.0 303.0,3720.0 C 278.0,3686.0 274.0,3561.0 294.0,3427.0 C 321.0,3245.0 312.0,3177.0 248.0,3078.0 C 226.0,3044.0 201.0,2998.0 193.0,2976.0 C 174.0,2920.0 156.0,2904.0 94.0,2884.0 C -12.0,2851.0 -32.0,2778.0 54.0,2735.0 C 69.0,2727.0 75.0,2715.0 75.0,2691.0 C 76.0,2648.0 96.0,2634.0 173.0,2626.0 C 239.0,2619.0 509.0,2643.0 538.0,2659.0 C 548.0,2664.0 564.0,2677.0 574.0,2689.0 C 593.0,2710.0 687.0,2750.0 718.0,2750.0 C 727.0,2750.0 760.0,2766.0 790.0,2785.0 C 832.0,2812.0 855.0,2820.0 891.0,2820.0 C 916.0,2820.0 957.0,2827.0 981.0,2836.0 C 1015.0,2848.0 1048.0,2850.0 1125.0,2846.0 C 1180.0,2843.0 1290.0,2839.0 1370.0,2838.0 C 1538.0,2835.0 1512.0,2824.0 1664.0,2962.0 C 1741.0,3033.0 1758.0,3044.0 1802.0,3051.0 C 1835.0,3056.0 1863.0,3069.0 1886.0,3089.0 C 1905.0,3106.0 1931.0,3120.0 1944.0,3120.0 C 1956.0,3120.0 1989.0,3135.0 2016.0,3153.0 C 2059.0,3181.0 2074.0,3185.0 2147.0,3189.0 C 2215.0,3191.0 2239.0,3188.0 2282.0,3170.0 C 2333.0,3149.0 2337.0,3149.0 2405.0,3164.0 C 2446.0,3173.0 2527.0,3206.0 2599.0,3243.0 L 2723.0,3305.0 L 2884.0,3311.0 C 2973.0,3314.0 3062.0,3323.0 3082.0,3330.0 C 3114.0,3341.0 3122.0,3341.0 3145.0,3326.0 C 3159.0,3316.0 3180.0,3289.0 3190.0,3264.0 C 3201.0,3240.0 3211.0,3219.0 3212.0,3219.0 C 3214.0,3218.0 3283.0,3213.0 3365.0,3206.0 L 3515.0,3195.0 L 3525.0,3163.0 C 3531.0,3145.0 3548.0,3118.0 3563.0,3102.0 C 3594.0,3069.0 3596.0,3063.0 3574.0,3039.0 C 3559.0,3023.0 3560.0,3016.0 3579.0,2960.0 C 3602.0,2894.0 3610.0,2741.0 3596.0,2669.0 C 3590.0,2641.0 3592.0,2629.0 3606.0,2616.0 C 3622.0,2599.0 3625.0,2600.0 3663.0,2644.0 C 3684.0,2670.0 3719.0,2699.0 3740.0,2710.0 C 3773.0,2727.0 3779.0,2735.0 3782.0,2767.0 C 3785.0,2809.0 3789.0,2812.0 3935.0,2873.0 C 4001.0,2901.0 4018.0,2913.0 4032.0,2941.0 C 4056.0,2987.0 4082.0,3007.0 4131.0,3015.0 C 4184.0,3024.0 4197.0,3010.0 4165.0,2980.0 C 4148.0,2964.0 4140.0,2946.0 4140.0,2924.0 C 4140.0,2882.0 4110.0,2847.0 4045.0,2812.0 C 4009.0,2793.0 3992.0,2776.0 3985.0,2754.0 C 3980.0,2737.0 3964.0,2710.0 3950.0,2692.0 C 3936.0,2675.0 3917.0,2650.0 3908.0,2636.0 C 3896.0,2620.0 3878.0,2610.0 3859.0,2608.0 C 3824.0,2605.0 3803.0,2582.0 3813.0,2556.0 C 3818.0,2544.0 3832.0,2540.0 3870.0,2540.0 C 3945.0,2540.0 3975.0,2559.0 4006.0,2630.0 C 4024.0,2672.0 4048.0,2700.0 4066.0,2700.0 C 4074.0,2700.0 4087.0,2688.0 4097.0,2674.0 C 4113.0,2648.0 4113.0,2646.0 4081.0,2584.0 C 4060.0,2543.0 4036.0,2513.0 4014.0,2499.0 C 3978.0,2477.0 3973.0,2452.0 4006.0,2459.0 C 4066.0,2472.0 4074.0,2468.0 4087.0,2410.0 C 4103.0,2340.0 4092.0,2297.0 4044.0,2242.0 C 4013.0,2205.0 4009.0,2195.0 4014.0,2165.0 C 4018.0,2146.0 4036.0,2113.0 4055.0,2090.0 C 4074.0,2067.0 4092.0,2032.0 4096.0,2012.0 C 4106.0,1958.0 4116.0,1943.0 4163.0,1916.0 C 4220.0,1884.0 4255.0,1877.0 4297.0,1891.0 C 4334.0,1903.0 4356.0,1892.0 4441.0,1819.0 C 4464.0,1800.0 4493.0,1786.0 4518.0,1783.0 C 4555.0,1778.0 4562.0,1781.0 4607.0,1822.0 C 4668.0,1879.0 4694.0,1893.0 4729.0,1885.0 C 4756.0,1879.0 4770.0,1888.0 4862.0,1961.0 C 4904.0,1995.0 4920.0,1975.0 4920.0,1890.0 C 4920.0,1831.0 4923.0,1820.0 4946.0,1796.0 C 4961.0,1782.0 4990.0,1765.0 5012.0,1758.0 C 5047.0,1748.0 5053.0,1749.0 5078.0,1769.0 C 5138.0,1817.0 5198.0,1852.0 5248.0,1866.0 C 5295.0,1880.0 5304.0,1887.0 5322.0,1925.0 C 5335.0,1951.0 5354.0,1973.0 5369.0,1979.0 C 5420.0,1999.0 5518.0,2007.0 5587.0,1996.0 C 5685.0,1982.0 5743.0,1983.0 5774.0,2000.0 C 5794.0,2010.0 5815.0,2042.0 5847.0,2110.0 C 5914.0,2253.0 5914.0,2252.0 5975.0,2295.0 C 6012.0,2321.0 6041.0,2352.0 6060.0,2386.0 C 6076.0,2415.0 6104.0,2447.0 6122.0,2458.0 C 6169.0,2488.0 6220.0,2543.0 6365.0,2725.0 C 6529.0,2930.0 6534.0,2936.0 6600.0,2978.0 C 6683.0,3031.0 6892.0,3215.0 6936.0,3273.0 C 6958.0,3301.0 7017.0,3374.0 7069.0,3435.0 C 7157.0,3538.0 7209.0,3625.0 7226.0,3696.0 C 7237.0,3745.0 7258.0,3777.0 7308.0,3827.0 C 7351.0,3870.0 7359.0,3886.0 7380.0,3960.0 C 7399.0,4032.0 7401.0,4059.0 7396.0,4136.0 C 7390.0,4213.0 7392.0,4234.0 7409.0,4277.0 C 7443.0,4365.0 7451.0,4434.0 7441.0,4592.0 C 7433.0,4735.0 7432.0,4741.0 7399.0,4796.0 C 7380.0,4827.0 7332.0,4885.0 7292.0,4925.0 C 7210.0,5007.0 7210.0,5003.0 7231.0,5149.0 C 7244.0,5241.0 7244.0,5243.0 7222.0,5260.0 C 7210.0,5270.0 7175.0,5282.0 7145.0,5285.0 C 7058.0,5296.0 7036.0,5327.0 7019.0,5463.0 C 7014.0,5506.0 6998.0,5571.0 6985.0,5607.0 C 6971.0,5643.0 6960.0,5692.0 6960.0,5716.0 C 6960.0,5760.0 6959.0,5761.0 6908.0,5784.0 C 6850.0,5809.0 6827.0,5831.0 6811.0,5873.0 C 6800.0,5901.0 6796.0,5904.0 6746.0,5915.0 C 6715.0,5922.0 6630.0,6005.0 6603.0,6054.0 C 6584.0,6090.0 6591.0,6220.0 6615.0,6277.0 C 6635.0,6325.0 6634.0,6359.0 6610.0,6411.0 C 6593.0,6450.0 6590.0,6477.0 6590.0,6664.0 L 6590.0,6873.0 L 6546.0,6914.0 C 6516.0,6942.0 6500.0,6965.0 6498.0,6985.0 C 6494.0,7027.0 6463.0,7029.0 6391.0,6989.0 C 6309.0,6944.0 6295.0,6951.0 6303.0,7038.0 C 6306.0,7075.0 6315.0,7130.0 6323.0,7160.0 C 6334.0,7201.0 6335.0,7230.0 6328.0,7275.0 C 6323.0,7308.0 6316.0,7373.0 6312.0,7420.0 C 6305.0,7489.0 6299.0,7512.0 6276.0,7545.0 C 6253.0,7579.0 6249.0,7591.0 6255.0,7628.0 C 6263.0,7684.0 6255.0,7707.0 6220.0,7725.0 C 6182.0,7745.0 6157.0,7744.0 6132.0,7723.0" fill="pink"/>
	<path d="M 7851.0,7653.0 C 7804.0,7615.0 7857.0,7584.0 7925.0,7610.0 C 7945.0,7617.0 7951.0,7626.0 7948.0,7643.0 C 7944.0,7673.0 7884.0,7679.0 7851.0,7653.0" fill="pink"/>
	<path d="M 3888.0,7633.0 C 3873.0,7614.0 3883.0,7576.0 3907.0,7566.0 C 3918.0,7560.0 3935.0,7541.0 3944.0,7523.0 C 3963.0,7484.0 3987.0,7481.0 4052.0,7509.0 C 4138.0,7546.0 4188.0,7612.0 4148.0,7637.0 C 4127.0,7650.0 3900.0,7647.0 3888.0,7633.0" fill="pink"/>
	<path d="M 8162.0,7588.0 C 8155.0,7581.0 8150.0,7566.0 8150.0,7553.0 C 8150.0,7540.0 8144.0,7530.0 8138.0,7530.0 C 8120.0,7529.0 8178.0,7480.0 8196.0,7480.0 C 8204.0,7480.0 8229.0,7497.0 8252.0,7518.0 C 8303.0,7566.0 8300.0,7590.0 8241.0,7590.0 C 8219.0,7590.0 8196.0,7592.0 8188.0,7595.0 C 8181.0,7598.0 8169.0,7595.0 8162.0,7588.0" fill="pink"/>
	<path d="M 9444.0,7549.0 C 9441.0,7543.0 9443.0,7528.0 9450.0,7516.0 C 9459.0,7499.0 9468.0,7494.0 9487.0,7498.0 C 9517.0,7504.0 9527.0,7525.0 9510.0,7545.0 C 9495.0,7562.0 9454.0,7565.0 9444.0,7549.0" fill="pink"/>
	<path d="M 9417.0,7343.0 C 9414.0,7339.0 9417.0,7319.0 9424.0,7300.0 C 9438.0,7257.0 9471.0,7248.0 9494.0,7282.0 C 9519.0,7318.0 9515.0,7339.0 9483.0,7338.0 C 9467.0,7337.0 9448.0,7340.0 9439.0,7344.0 C 9429.0,7348.0 9420.0,7348.0 9417.0,7343.0" fill="pink"/>
	<path d="M 10557.0,6810.0 C 10541.0,6797.0 10528.0,6773.0 10522.0,6743.0 C 10510.0,6689.0 10520.0,6655.0 10549.0,6645.0 C 10573.0,6638.0 10623.0,6662.0 10644.0,6692.0 C 10663.0,6718.0 10665.0,6801.0 10648.0,6818.0 C 10630.0,6836.0 10586.0,6832.0 10557.0,6810.0" fill="pink"/>
	<path d="M 10600.0,6600.0 C 10578.0,6578.0 10576.0,6571.0 10589.0,6551.0 C 10594.0,6543.0 10605.0,6540.0 10618.0,6544.0 C 10646.0,6553.0 10692.0,6598.0 10685.0,6610.0 C 10674.0,6627.0 10621.0,6621.0 10600.0,6600.0" fill="pink"/>
	<path d="M 10673.0,6507.0 C 10655.0,6495.0 10641.0,6478.0 10643.0,6470.0 C 10649.0,6429.0 10730.0,6462.0 10730.0,6505.0 C 10730.0,6535.0 10716.0,6535.0 10673.0,6507.0" fill="pink"/>
	<path d="M 12665.0,6485.0 C 12623.0,6444.0 12636.0,6340.0 12683.0,6340.0 C 12723.0,6340.0 12800.0,6420.0 12800.0,6462.0 C 12800.0,6513.0 12708.0,6529.0 12665.0,6485.0" fill="pink"/>
	<path d="M 12505.0,6329.0 C 12494.0,6324.0 12458.0,6298.0 12425.0,6272.0 C 12373.0,6230.0 12365.0,6218.0 12362.0,6185.0 C 12358.0,6142.0 12375.0,6094.0 12396.0,6086.0 C 12418.0,6078.0 12529.0,6104.0 12585.0,6131.0 C 12624.0,6150.0 12637.0,6162.0 12644.0,6187.0 C 12656.0,6232.0 12621.0,6302.0 12576.0,6324.0 C 12538.0,6342.0 12533.0,6342.0 12505.0,6329.0" fill="pink"/>
	<path d="M 9742.0,6158.0 C 9714.0,6130.0 9742.0,6070.0 9783.0,6070.0 C 9800.0,6070.0 9820.0,6099.0 9820.0,6124.0 C 9820.0,6160.0 9767.0,6183.0 9742.0,6158.0" fill="pink"/>
	<path d="M 12473.0,6000.0 C 12444.0,5987.0 12430.0,5975.0 12430.0,5961.0 C 12430.0,5937.0 12449.0,5930.0 12495.0,5937.0 C 12534.0,5943.0 12566.0,5979.0 12556.0,6005.0 C 12549.0,6025.0 12525.0,6023.0 12473.0,6000.0" fill="pink"/>
	<path d="M 9700.0,5821.0 C 9683.0,5789.0 9688.0,5767.0 9725.0,5706.0 C 9744.0,5675.0 9762.0,5632.0 9766.0,5613.0 C 9771.0,5587.0 9787.0,5563.0 9823.0,5531.0 C 9850.0,5506.0 9885.0,5466.0 9901.0,5443.0 C 9917.0,5420.0 9946.0,5393.0 9964.0,5385.0 C 9989.0,5373.0 10004.0,5355.0 10019.0,5321.0 C 10030.0,5295.0 10045.0,5269.0 10052.0,5263.0 C 10067.0,5252.0 10200.0,5252.0 10218.0,5263.0 C 10239.0,5277.0 10232.0,5340.0 10205.0,5376.0 C 10163.0,5432.0 10121.0,5455.0 10065.0,5455.0 L 10015.0,5455.0 L 10009.0,5525.0 C 10001.0,5627.0 9970.0,5670.0 9905.0,5670.0 C 9856.0,5670.0 9810.0,5720.0 9810.0,5772.0 C 9810.0,5829.0 9725.0,5867.0 9700.0,5821.0" fill="pink"/>
	<path d="M 10257.0,5212.0 C 10229.0,5182.0 10236.0,5162.0 10275.0,5154.0 C 10318.0,5146.0 10342.0,5163.0 10338.0,5199.0 C 10336.0,5220.0 10329.0,5226.0 10304.0,5228.0 C 10284.0,5230.0 10268.0,5225.0 10257.0,5212.0" fill="pink"/>
	<path d="M 10199.0,2575.0 C 10171.0,2560.0 10123.0,2464.0 10113.0,2407.0 C 10107.0,2368.0 10121.0,2353.0 10170.0,2348.0 C 10210.0,2344.0 10224.0,2316.0 10190.0,2305.0 C 10142.0,2290.0 10131.0,2241.0 10130.0,2034.0 C 10130.0,2023.0 10097.0,1975.0 10056.0,1927.0 C 10015.0,1879.0 9973.0,1828.0 9962.0,1812.0 C 9939.0,1781.0 9920.0,1770.0 9835.0,1739.0 C 9768.0,1715.0 9680.0,1637.0 9680.0,1602.0 C 9680.0,1588.0 9698.0,1569.0 9738.0,1543.0 C 9773.0,1520.0 9796.0,1497.0 9798.0,1484.0 C 9805.0,1434.0 9720.0,1346.0 9632.0,1310.0 C 9590.0,1294.0 9575.0,1259.0 9592.0,1222.0 C 9609.0,1187.0 9641.0,1184.0 9736.0,1205.0 C 9823.0,1224.0 9912.0,1284.0 9967.0,1362.0 C 10001.0,1409.0 10003.0,1410.0 10057.0,1410.0 C 10132.0,1410.0 10150.0,1421.0 10150.0,1470.0 C 10150.0,1504.0 10156.0,1513.0 10205.0,1555.0 C 10244.0,1588.0 10263.0,1614.0 10272.0,1642.0 C 10290.0,1703.0 10311.0,1712.0 10411.0,1701.0 C 10513.0,1689.0 10544.0,1702.0 10576.0,1769.0 C 10599.0,1817.0 10614.0,1830.0 10648.0,1830.0 C 10665.0,1830.0 10675.0,1840.0 10686.0,1868.0 C 10695.0,1888.0 10714.0,1918.0 10728.0,1933.0 C 10751.0,1957.0 10755.0,1970.0 10755.0,2023.0 L 10755.0,2085.0 L 10720.0,2084.0 C 10700.0,2084.0 10667.0,2072.0 10645.0,2057.0 C 10574.0,2010.0 10473.0,1997.0 10440.0,2030.0 C 10415.0,2055.0 10415.0,2075.0 10439.0,2099.0 C 10486.0,2146.0 10496.0,2218.0 10458.0,2244.0 C 10422.0,2270.0 10404.0,2263.0 10363.0,2211.0 C 10342.0,2183.0 10319.0,2159.0 10312.0,2156.0 C 10274.0,2140.0 10269.0,2190.0 10305.0,2226.0 C 10343.0,2264.0 10351.0,2285.0 10349.0,2352.0 C 10348.0,2387.0 10351.0,2435.0 10355.0,2460.0 L 10362.0,2505.0 L 10310.0,2548.0 C 10253.0,2593.0 10239.0,2597.0 10199.0,2575.0" fill="pink"/>
	<path d="M 3688.0,2451.0 C 3640.0,2444.0 3600.0,2418.0 3600.0,2393.0 C 3600.0,2384.0 3617.0,2380.0 3658.0,2379.0 C 3689.0,2378.0 3719.0,2378.0 3723.0,2379.0 C 3728.0,2380.0 3758.0,2383.0 3791.0,2387.0 C 3851.0,2393.0 3878.0,2412.0 3862.0,2437.0 C 3853.0,2451.0 3747.0,2460.0 3688.0,2451.0" fill="pink"/>
	<path d="M 5110.0,1585.0 C 5083.0,1541.0 5079.0,1492.0 5101.0,1477.0 C 5126.0,1461.0 5169.0,1478.0 5190.0,1513.0 C 5215.0,1553.0 5215.0,1582.0 5192.0,1603.0 C 5162.0,1630.0 5134.0,1624.0 5110.0,1585.0" fill="pink"/>
	<path d="M 4430.0,1579.0 C 4374.0,1541.0 4371.0,1516.0 4421.0,1512.0 C 4451.0,1509.0 4465.0,1515.0 4495.0,1543.0 C 4565.0,1607.0 4513.0,1635.0 4430.0,1579.0" fill="pink"/>
	<path d="M 9304.0,1416.0 C 9263.0,1396.0 9220.0,1361.0 9177.0,1315.0 C 9142.0,1277.0 9086.0,1230.0 9054.0,1211.0 C 8932.0,1140.0 8894.0,1112.0 8875.0,1077.0 C 8853.0,1035.0 8837.0,1027.0 8755.0,1011.0 C 8702.0,1002.0 8690.0,995.0 8656.0,955.0 C 8635.0,930.0 8611.0,910.0 8603.0,910.0 C 8594.0,910.0 8564.0,897.0 8536.0,881.0 C 8508.0,864.0 8440.0,840.0 8385.0,825.0 C 8310.0,806.0 8269.0,789.0 8220.0,756.0 C 8125.0,692.0 8103.0,683.0 8023.0,678.0 C 7929.0,671.0 7867.0,637.0 7850.0,583.0 C 7835.0,536.0 7816.0,520.0 7774.0,520.0 C 7754.0,520.0 7729.0,509.0 7705.0,490.0 C 7684.0,473.0 7655.0,457.0 7641.0,455.0 C 7627.0,452.0 7597.0,444.0 7575.0,437.0 C 7539.0,426.0 7534.0,420.0 7524.0,380.0 L 7513.0,335.0 L 7466.0,338.0 C 7420.0,342.0 7420.0,341.0 7401.0,298.0 C 7383.0,258.0 7383.0,254.0 7399.0,242.0 C 7410.0,233.0 7430.0,231.0 7461.0,235.0 C 7504.0,241.0 7508.0,239.0 7538.0,206.0 C 7555.0,186.0 7576.0,157.0 7585.0,141.0 C 7593.0,125.0 7609.0,108.0 7620.0,105.0 C 7662.0,92.0 7859.0,169.0 7982.0,246.0 C 8003.0,259.0 8045.0,280.0 8075.0,291.0 C 8116.0,306.0 8140.0,324.0 8168.0,358.0 C 8235.0,441.0 8294.0,502.0 8321.0,515.0 C 8335.0,523.0 8365.0,544.0 8387.0,563.0 C 8418.0,588.0 8441.0,599.0 8479.0,603.0 C 8540.0,610.0 8582.0,631.0 8618.0,672.0 C 8644.0,701.0 8647.0,702.0 8710.0,696.0 C 8746.0,693.0 8792.0,695.0 8812.0,700.0 C 8843.0,709.0 8851.0,718.0 8866.0,756.0 C 8884.0,803.0 8951.0,870.0 8979.0,870.0 C 9022.0,870.0 9070.0,893.0 9086.0,919.0 C 9109.0,958.0 9172.0,997.0 9253.0,1021.0 C 9301.0,1036.0 9326.0,1050.0 9340.0,1070.0 C 9351.0,1086.0 9375.0,1108.0 9393.0,1119.0 C 9412.0,1130.0 9432.0,1151.0 9438.0,1165.0 C 9445.0,1180.0 9468.0,1198.0 9494.0,1209.0 C 9518.0,1220.0 9545.0,1239.0 9554.0,1251.0 C 9576.0,1283.0 9574.0,1333.0 9550.0,1355.0 C 9529.0,1374.0 9513.0,1373.0 9438.0,1343.0 C 9379.0,1321.0 9366.0,1330.0 9382.0,1382.0 C 9393.0,1418.0 9388.0,1451.0 9373.0,1449.0 C 9369.0,1448.0 9337.0,1434.0 9304.0,1416.0" fill="pink"/>
	<path d="M 4497.0,1383.0 C 4489.0,1373.0 4461.0,1325.0 4436.0,1277.0 C 4393.0,1196.0 4390.0,1185.0 4396.0,1139.0 C 4403.0,1090.0 4402.0,1089.0 4361.0,1051.0 L 4320.0,1013.0 L 4326.0,949.0 C 4330.0,914.0 4334.0,883.0 4336.0,881.0 C 4338.0,879.0 4330.0,860.0 4318.0,839.0 C 4274.0,761.0 4322.0,749.0 4445.0,809.0 C 4546.0,858.0 4670.0,909.0 4734.0,926.0 C 4795.0,943.0 4807.0,953.0 4821.0,1001.0 C 4835.0,1047.0 4852.0,1063.0 4903.0,1080.0 C 4944.0,1093.0 4958.0,1115.0 4980.0,1202.0 C 4996.0,1264.0 5023.0,1305.0 5057.0,1322.0 C 5074.0,1330.0 5085.0,1343.0 5085.0,1355.0 C 5085.0,1382.0 5031.0,1387.0 4973.0,1365.0 C 4945.0,1354.0 4917.0,1350.0 4892.0,1355.0 C 4860.0,1360.0 4848.0,1356.0 4805.0,1325.0 C 4742.0,1281.0 4706.0,1279.0 4685.0,1320.0 C 4669.0,1352.0 4636.0,1375.0 4620.0,1365.0 C 4615.0,1362.0 4589.0,1368.0 4564.0,1379.0 C 4508.0,1404.0 4516.0,1404.0 4497.0,1383.0" fill="pink"/>
	<path d="M 7387.0,122.0 C 7377.0,112.0 7370.0,98.0 7370.0,91.0 C 7370.0,84.0 7354.0,72.0 7335.0,64.0 C 7294.0,47.0 7292.0,40.0 7321.0,14.0 C 7341.0,-4.0 7342.0,-4.0 7378.0,18.0 C 7398.0,30.0 7432.0,47.0 7453.0,56.0 C 7476.0,66.0 7490.0,79.0 7490.0,90.0 C 7490.0,136.0 7419.0,157.0 7387.0,122.0" fill="pink"/>
</svg>
