<?xml version="1.0" ?>
<svg xmlns="http://www.w3.org/2000/svg" xmlns:ev="http://www.w3.org/2001/xml-events" xmlns:xlink="http://www.w3.org/1999/xlink" baseProfile="full" height="462px" version="1.1" viewBox="-1031.5220000000002 384.778 12303.044 9467.444" width="600px">
	<defs/>
	<path d="M 9695.0,9007.0 C 9629.0,8858.0 9517.0,8643.0 9494.0,8619.0 C 9471.0,8595.0 9469.0,8588.0 9480.0,8575.0 C 9490.0,8563.0 9486.0,8553.0 9454.0,8518.0 C 9433.0,8494.0 9407.0,8472.0 9396.0,8468.0 C 9351.0,8454.0 9347.0,8461.0 9378.0,8493.0 C 9399.0,8515.0 9411.0,8539.0 9416.0,8570.0 L 9423.0,8615.0 L 9321.0,8520.0 C 9214.0,8421.0 9187.0,8400.0 9157.0,8400.0 C 9148.0,8400.0 9058.0,8331.0 8958.0,8248.0 C 8859.0,8164.0 8765.0,8085.0 8751.0,8073.0 C 8726.0,8053.0 8726.0,8051.0 8742.0,8033.0 C 8774.0,7998.0 8755.0,7974.0 8668.0,7940.0 C 8624.0,7924.0 8586.0,7910.0 8584.0,7910.0 C 8581.0,7910.0 8587.0,7924.0 8595.0,7940.0 C 8610.0,7968.0 8609.0,7971.0 8593.0,7977.0 C 8583.0,7980.0 8572.0,7985.0 8568.0,7987.0 C 8564.0,7989.0 8548.0,7971.0 8532.0,7948.0 C 8513.0,7921.0 8479.0,7892.0 8441.0,7870.0 C 8372.0,7830.0 8361.0,7813.0 8390.0,7793.0 C 8410.0,7779.0 8410.0,7778.0 8379.0,7739.0 C 8362.0,7718.0 8345.0,7688.0 8341.0,7674.0 L 8334.0,7648.0 L 8311.0,7668.0 L 8287.0,7687.0 L 8259.0,7656.0 C 8242.0,7636.0 8229.0,7607.0 8225.0,7575.0 C 8214.0,7507.0 8160.0,7462.0 8145.0,7510.0 C 8142.0,7521.0 8136.0,7530.0 8132.0,7530.0 C 8120.0,7529.0 7995.0,7362.0 7992.0,7341.0 C 7989.0,7324.0 7983.0,7322.0 7936.0,7327.0 L 7884.0,7332.0 L 7836.0,7276.0 C 7809.0,7245.0 7758.0,7198.0 7721.0,7171.0 C 7643.0,7113.0 7405.0,6874.0 7396.0,6845.0 C 7391.0,6829.0 7367.0,6818.0 7293.0,6795.0 C 7204.0,6769.0 7188.0,6761.0 7125.0,6705.0 C 7087.0,6671.0 7009.0,6610.0 6953.0,6571.0 C 6854.0,6501.0 6833.0,6476.0 6865.0,6464.0 C 6881.0,6458.0 6885.0,6413.0 6872.0,6394.0 C 6868.0,6388.0 6852.0,6379.0 6835.0,6373.0 C 6809.0,6365.0 6805.0,6358.0 6802.0,6321.0 C 6799.0,6288.0 6795.0,6280.0 6784.0,6284.0 C 6775.0,6287.0 6766.0,6290.0 6764.0,6290.0 C 6762.0,6290.0 6760.0,6305.0 6760.0,6324.0 C 6760.0,6352.0 6755.0,6360.0 6730.0,6370.0 C 6703.0,6381.0 6693.0,6379.0 6637.0,6355.0 C 6555.0,6319.0 6530.0,6303.0 6530.0,6285.0 C 6530.0,6275.0 6541.0,6270.0 6565.0,6270.0 C 6607.0,6270.0 6609.0,6262.0 6575.0,6230.0 C 6561.0,6217.0 6550.0,6201.0 6550.0,6195.0 C 6550.0,6188.0 6541.0,6175.0 6530.0,6165.0 C 6506.0,6144.0 6504.0,6107.0 6525.0,6090.0 C 6544.0,6074.0 6535.0,6060.0 6504.0,6060.0 C 6484.0,6060.0 6480.0,6055.0 6480.0,6030.0 C 6480.0,6005.0 6474.0,5998.0 6444.0,5985.0 C 6411.0,5972.0 6408.0,5967.0 6413.0,5941.0 C 6418.0,5919.0 6412.0,5903.0 6390.0,5874.0 C 6374.0,5852.0 6360.0,5823.0 6360.0,5808.0 C 6360.0,5782.0 6357.0,5780.0 6320.0,5780.0 C 6274.0,5780.0 6271.0,5771.0 6305.0,5727.0 L 6329.0,5694.0 L 6292.0,5632.0 C 6272.0,5598.0 6250.0,5570.0 6243.0,5570.0 C 6236.0,5570.0 6230.0,5563.0 6230.0,5555.0 C 6230.0,5545.0 6220.0,5540.0 6199.0,5540.0 C 6182.0,5540.0 6161.0,5536.0 6151.0,5530.0 C 6128.0,5518.0 6082.0,5541.0 6018.0,5594.0 C 5963.0,5640.0 5954.0,5673.0 5962.0,5790.0 C 5965.0,5819.0 5962.0,5825.0 5945.0,5825.0 C 5922.0,5825.0 5860.0,5729.0 5860.0,5693.0 C 5860.0,5675.0 5854.0,5670.0 5834.0,5670.0 C 5794.0,5670.0 5770.0,5652.0 5770.0,5623.0 C 5770.0,5598.0 5772.0,5598.0 5819.0,5602.0 C 5868.0,5607.0 5870.0,5606.0 5917.0,5558.0 C 5946.0,5528.0 5996.0,5492.0 6043.0,5469.0 C 6103.0,5438.0 6120.0,5425.0 6120.0,5408.0 C 6120.0,5396.0 6127.0,5379.0 6136.0,5369.0 C 6157.0,5345.0 6136.0,5310.0 6100.0,5310.0 C 6081.0,5310.0 6065.0,5299.0 6045.0,5271.0 L 6015.0,5232.0 L 5914.0,5228.0 C 5824.0,5225.0 5808.0,5222.0 5772.0,5197.0 C 5726.0,5167.0 5660.0,5161.0 5599.0,5181.0 C 5551.0,5197.0 5460.0,5288.0 5460.0,5319.0 C 5460.0,5332.0 5453.0,5351.0 5444.0,5361.0 C 5429.0,5378.0 5426.0,5378.0 5384.0,5357.0 C 5333.0,5332.0 5324.0,5303.0 5368.0,5298.0 C 5389.0,5296.0 5396.0,5289.0 5398.0,5268.0 C 5400.0,5252.0 5407.0,5240.0 5415.0,5240.0 C 5422.0,5240.0 5435.0,5229.0 5444.0,5215.0 C 5466.0,5181.0 5448.0,5150.0 5404.0,5150.0 C 5386.0,5150.0 5358.0,5138.0 5334.0,5120.0 C 5313.0,5104.0 5284.0,5090.0 5271.0,5090.0 C 5258.0,5090.0 5226.0,5078.0 5201.0,5063.0 C 5168.0,5043.0 5135.0,5033.0 5085.0,5029.0 C 5009.0,5021.0 4931.0,5001.0 4909.0,4984.0 C 4899.0,4976.0 4872.0,4975.0 4816.0,4982.0 C 4762.0,4989.0 4734.0,4988.0 4727.0,4981.0 C 4721.0,4975.0 4683.0,4970.0 4643.0,4970.0 C 4578.0,4970.0 4566.0,4973.0 4547.0,4994.0 L 4525.0,5017.0 L 4325.0,5004.0 L 4126.0,4991.0 L 4083.0,5016.0 C 4060.0,5029.0 4035.0,5051.0 4029.0,5063.0 C 4022.0,5075.0 4016.0,5086.0 4015.0,5088.0 C 4014.0,5089.0 3976.0,5081.0 3931.0,5070.0 L 3850.0,5049.0 L 3809.0,5072.0 C 3777.0,5090.0 3767.0,5092.0 3761.0,5081.0 C 3754.0,5070.0 3736.0,5070.0 3664.0,5079.0 C 3515.0,5097.0 3481.0,5112.0 3441.0,5173.0 C 3384.0,5263.0 3299.0,5300.0 3292.0,5238.0 C 3289.0,5215.0 3279.0,5208.0 3219.0,5185.0 C 3142.0,5155.0 3120.0,5157.0 3120.0,5193.0 C 3120.0,5226.0 3098.0,5242.0 3039.0,5251.0 C 3000.0,5257.0 2981.0,5255.0 2955.0,5243.0 C 2925.0,5229.0 2916.0,5228.0 2878.0,5240.0 C 2854.0,5248.0 2824.0,5253.0 2810.0,5252.0 C 2791.0,5250.0 2780.0,5257.0 2766.0,5280.0 C 2756.0,5297.0 2743.0,5309.0 2737.0,5306.0 C 2687.0,5285.0 2646.0,5278.0 2608.0,5284.0 C 2571.0,5290.0 2562.0,5295.0 2553.0,5320.0 C 2538.0,5361.0 2493.0,5361.0 2448.0,5321.0 C 2413.0,5291.0 2390.0,5290.0 2390.0,5320.0 C 2390.0,5331.0 2371.0,5352.0 2343.0,5371.0 C 2316.0,5389.0 2279.0,5418.0 2259.0,5437.0 C 2228.0,5467.0 2217.0,5471.0 2192.0,5465.0 C 2166.0,5460.0 2159.0,5451.0 2138.0,5392.0 L 2115.0,5325.0 L 2034.0,5296.0 C 1958.0,5269.0 1951.0,5264.0 1931.0,5223.0 C 1912.0,5183.0 1907.0,5180.0 1872.0,5180.0 C 1840.0,5180.0 1818.0,5169.0 1745.0,5114.0 C 1697.0,5077.0 1655.0,5039.0 1653.0,5029.0 C 1649.0,5016.0 1639.0,5010.0 1619.0,5010.0 C 1603.0,5010.0 1562.0,4996.0 1529.0,4979.0 C 1471.0,4950.0 1463.0,4949.0 1386.0,4955.0 C 1282.0,4963.0 1165.0,4963.0 1118.0,4956.0 C 1085.0,4951.0 1080.0,4953.0 1061.0,4985.0 C 1041.0,5020.0 1040.0,5020.0 970.0,5020.0 C 925.0,5020.0 888.0,5026.0 868.0,5036.0 C 849.0,5046.0 826.0,5050.0 808.0,5046.0 C 765.0,5037.0 714.0,5060.0 620.0,5129.0 L 535.0,5191.0 L 518.0,5333.0 L 501.0,5475.0 L 522.0,5497.0 C 541.0,5517.0 542.0,5523.0 531.0,5547.0 C 520.0,5570.0 521.0,5576.0 534.0,5586.0 C 546.0,5594.0 550.0,5615.0 550.0,5670.0 C 550.0,5741.0 549.0,5743.0 510.0,5782.0 C 489.0,5804.0 466.0,5819.0 461.0,5816.0 C 456.0,5812.0 448.0,5774.0 444.0,5730.0 C 438.0,5661.0 435.0,5650.0 419.0,5650.0 C 405.0,5650.0 400.0,5657.0 400.0,5675.0 C 400.0,5689.0 388.0,5729.0 374.0,5766.0 C 342.0,5844.0 325.0,5839.0 325.0,5750.0 C 325.0,5718.0 323.0,5690.0 320.0,5687.0 C 317.0,5685.0 298.0,5679.0 276.0,5676.0 L 238.0,5669.0 L 246.0,5737.0 C 259.0,5840.0 252.0,5978.0 231.0,6018.0 L 213.0,6052.0 L 200.0,6021.0 C 190.0,5997.0 190.0,5987.0 199.0,5976.0 C 209.0,5965.0 208.0,5955.0 196.0,5931.0 C 187.0,5915.0 180.0,5883.0 180.0,5861.0 C 180.0,5823.0 177.0,5819.0 132.0,5796.0 L 84.0,5772.0 L 41.0,5633.0 L -2.0,5495.0 L 880.0,3955.0 C 1366.0,3108.0 1765.0,2412.0 1769.0,2408.0 C 1772.0,2404.0 2865.0,2126.0 4197.0,1789.0 L 6619.0,1178.0 L 6894.0,1351.0 C 7129.0,1498.0 7171.0,1528.0 7179.0,1554.0 C 7185.0,1571.0 7192.0,1668.0 7195.0,1770.0 L 7201.0,1955.0 L 7276.0,2260.0 L 7351.0,2565.0 L 7484.0,2705.0 C 7613.0,2842.0 7619.0,2849.0 7738.0,3060.0 L 7860.0,3276.0 L 7930.0,3299.0 C 8020.0,3328.0 8024.0,3336.0 8014.0,3492.0 L 8008.0,3609.0 L 8045.0,3654.0 L 8082.0,3699.0 L 8091.0,3840.0 C 8098.0,3940.0 8107.0,3994.0 8121.0,4026.0 C 8131.0,4051.0 8140.0,4075.0 8140.0,4080.0 C 8140.0,4084.0 8104.0,4114.0 8060.0,4146.0 C 7975.0,4207.0 7971.0,4214.0 7986.0,4287.0 C 7992.0,4317.0 7997.0,4319.0 8277.0,4415.0 L 8563.0,4513.0 L 8677.0,4456.0 L 8791.0,4400.0 L 8853.0,4416.0 C 8896.0,4427.0 8934.0,4430.0 8976.0,4426.0 L 9038.0,4420.0 L 9090.0,4485.0 L 9141.0,4550.0 L 9105.0,4609.0 C 9082.0,4646.0 9057.0,4673.0 9039.0,4680.0 C 9004.0,4695.0 8994.0,4724.0 9013.0,4754.0 C 9021.0,4766.0 9030.0,4787.0 9032.0,4801.0 C 9035.0,4828.0 9038.0,4828.0 8855.0,4809.0 C 8771.0,4801.0 8763.0,4802.0 8735.0,4822.0 C 8640.0,4891.0 8621.0,4906.0 8620.0,4911.0 C 8620.0,4914.0 8663.0,4965.0 8716.0,5024.0 L 8812.0,5131.0 L 8822.0,5211.0 C 8831.0,5288.0 8831.0,5291.0 8802.0,5343.0 C 8774.0,5392.0 8772.0,5403.0 8766.0,5544.0 L 8760.0,5692.0 L 8822.0,5836.0 L 8883.0,5980.0 L 8827.0,6197.0 L 8770.0,6415.0 L 8837.0,6476.0 L 8905.0,6538.0 L 9079.0,6584.0 C 9174.0,6610.0 9255.0,6629.0 9258.0,6626.0 C 9262.0,6621.0 9350.0,6419.0 9350.0,6413.0 C 9350.0,6410.0 9277.0,6390.0 9265.0,6390.0 C 9259.0,6390.0 9246.0,6403.0 9237.0,6420.0 C 9221.0,6446.0 9217.0,6448.0 9195.0,6438.0 L 9170.0,6427.0 L 9252.0,6267.0 L 9334.0,6107.0 L 9278.0,6056.0 L 9222.0,6005.0 L 9239.0,5945.0 C 9256.0,5887.0 9258.0,5885.0 9296.0,5878.0 C 9381.0,5863.0 9402.0,5868.0 9445.0,5910.0 L 9485.0,5949.0 L 9531.0,5920.0 L 9577.0,5892.0 L 9633.0,5938.0 C 9684.0,5980.0 9691.0,5991.0 9700.0,6040.0 C 9706.0,6070.0 9713.0,6102.0 9716.0,6111.0 C 9719.0,6120.0 9760.0,6154.0 9808.0,6185.0 C 9886.0,6237.0 9900.0,6250.0 9932.0,6309.0 C 9966.0,6373.0 9967.0,6377.0 9958.0,6431.0 C 9949.0,6484.0 9950.0,6490.0 9977.0,6529.0 C 10004.0,6570.0 10006.0,6571.0 10053.0,6567.0 C 10079.0,6565.0 10100.0,6566.0 10100.0,6570.0 C 10100.0,6574.0 10089.0,6602.0 10076.0,6631.0 L 10053.0,6685.0 L 10087.0,6835.0 C 10116.0,6962.0 10122.0,7007.0 10124.0,7126.0 L 10126.0,7268.0 L 10172.0,7341.0 C 10223.0,7422.0 10224.0,7452.0 10176.0,7458.0 C 10162.0,7460.0 10150.0,7464.0 10150.0,7468.0 C 10150.0,7482.0 10189.0,7534.0 10215.0,7554.0 L 10242.0,7576.0 L 10221.0,7618.0 L 10199.0,7661.0 L 10220.0,7768.0 C 10240.0,7873.0 10245.0,7965.0 10234.0,8006.0 C 10227.0,8033.0 10139.0,8062.0 10089.0,8054.0 C 10057.0,8049.0 10051.0,8052.0 10027.0,8084.0 L 9999.0,8119.0 L 9952.0,8101.0 C 9912.0,8085.0 9905.0,8078.0 9902.0,8051.0 C 9900.0,8030.0 9887.0,8011.0 9862.0,7990.0 C 9842.0,7974.0 9822.0,7960.0 9818.0,7960.0 C 9813.0,7960.0 9792.0,7971.0 9771.0,7984.0 L 9732.0,8009.0 L 9725.0,8094.0 L 9718.0,8179.0 L 9774.0,8287.0 C 9841.0,8418.0 9856.0,8490.0 9866.0,8733.0 L 9873.0,8901.0 L 9796.0,8980.0 L 9719.0,9059.0 L 9695.0,9007.0" fill="pink"/>
	<path d="M 2238.0,5746.0 C 2215.0,5714.0 2215.0,5683.0 2241.0,5607.0 C 2265.0,5534.0 2276.0,5520.0 2285.0,5549.0 C 2289.0,5564.0 2300.0,5570.0 2320.0,5570.0 C 2339.0,5570.0 2356.0,5580.0 2374.0,5601.0 C 2404.0,5637.0 2403.0,5650.0 2361.0,5720.0 C 2337.0,5760.0 2329.0,5765.0 2294.0,5768.0 C 2262.0,5770.0 2252.0,5765.0 2238.0,5746.0" fill="pink"/>
	<path d="M 4730.0,5365.0 C 4717.0,5351.0 4697.0,5340.0 4686.0,5340.0 C 4674.0,5339.0 4654.0,5333.0 4640.0,5325.0 C 4626.0,5317.0 4588.0,5311.0 4553.0,5310.0 C 4501.0,5310.0 4477.0,5303.0 4403.0,5267.0 C 4289.0,5212.0 4290.0,5212.0 4297.0,5195.0 C 4301.0,5184.0 4320.0,5180.0 4376.0,5180.0 C 4446.0,5180.0 4449.0,5179.0 4467.0,5150.0 C 4487.0,5116.0 4492.0,5114.0 4577.0,5105.0 C 4654.0,5097.0 4689.0,5115.0 4688.0,5162.0 C 4687.0,5181.0 4694.0,5198.0 4705.0,5206.0 C 4730.0,5225.0 4744.0,5224.0 4764.0,5201.0 C 4779.0,5185.0 4779.0,5182.0 4765.0,5170.0 C 4741.0,5150.0 4747.0,5130.0 4778.0,5130.0 C 4794.0,5130.0 4815.0,5123.0 4826.0,5115.0 C 4852.0,5095.0 4860.0,5096.0 4860.0,5120.0 C 4860.0,5139.0 4861.0,5139.0 4893.0,5124.0 C 4924.0,5109.0 4928.0,5109.0 4963.0,5130.0 C 4998.0,5151.0 5001.0,5156.0 4998.0,5193.0 C 4995.0,5233.0 4995.0,5234.0 4941.0,5246.0 C 4834.0,5270.0 4744.0,5330.0 4815.0,5330.0 C 4846.0,5330.0 4847.0,5340.0 4817.0,5368.0 C 4786.0,5397.0 4759.0,5396.0 4730.0,5365.0" fill="pink"/>
</svg>
