<?xml version="1.0" ?>
<svg xmlns="http://www.w3.org/2000/svg" xmlns:ev="http://www.w3.org/2001/xml-events" xmlns:xlink="http://www.w3.org/1999/xlink" baseProfile="full" height="454px" version="1.1" viewBox="-1025.9835996497454 470.88236611280706 12292.556597037423 9298.235267774386" width="600px">
	<defs/>
	<path d="M 7350.0,8957.0 L 7275.0,8924.0 L 7233.0,8845.0 C 7210.0,8801.0 7190.0,8754.0 7190.0,8740.0 C 7189.0,8722.0 7174.0,8703.0 7139.0,8676.0 C 7104.0,8648.0 7086.0,8625.0 7078.0,8597.0 C 7069.0,8567.0 7055.0,8551.0 7013.0,8524.0 C 6951.0,8485.0 6947.0,8465.0 6980.0,8378.0 C 6991.0,8348.0 7000.0,8301.0 7000.0,8269.0 C 7000.0,8216.0 6999.0,8213.0 6966.0,8197.0 C 6942.0,8186.0 6930.0,8172.0 6925.0,8151.0 C 6921.0,8134.0 6915.0,8120.0 6911.0,8120.0 C 6907.0,8120.0 6878.0,8138.0 6847.0,8159.0 L 6791.0,8199.0 L 6698.0,8190.0 C 6647.0,8185.0 6577.0,8180.0 6543.0,8180.0 L 6481.0,8180.0 L 6425.0,8100.0 L 6368.0,8020.0 L 6384.0,7952.0 L 6399.0,7885.0 L 6365.0,7851.0 L 6332.0,7817.0 L 6244.0,7873.0 C 6196.0,7905.0 6152.0,7930.0 6146.0,7930.0 C 6140.0,7929.0 6089.0,7921.0 6032.0,7911.0 C 5949.0,7897.0 5923.0,7888.0 5892.0,7863.0 C 5844.0,7825.0 5816.0,7811.0 5702.0,7770.0 C 5650.0,7752.0 5582.0,7720.0 5549.0,7698.0 C 5516.0,7677.0 5486.0,7660.0 5482.0,7660.0 C 5478.0,7660.0 5435.0,7684.0 5387.0,7713.0 C 5321.0,7753.0 5293.0,7776.0 5277.0,7806.0 C 5259.0,7837.0 5238.0,7854.0 5172.0,7888.0 L 5090.0,7931.0 L 4982.0,7911.0 L 4875.0,7891.0 L 4814.0,7954.0 L 4753.0,8017.0 L 4644.0,8030.0 C 4542.0,8043.0 4525.0,8042.0 4379.0,8021.0 C 4232.0,8000.0 4220.0,7999.0 4169.0,8014.0 C 4126.0,8027.0 4106.0,8040.0 4077.0,8075.0 C 4041.0,8118.0 4037.0,8120.0 3986.0,8120.0 C 3948.0,8120.0 3910.0,8129.0 3860.0,8151.0 C 3820.0,8168.0 3787.0,8180.0 3785.0,8178.0 C 3784.0,8176.0 3757.0,8125.0 3727.0,8064.0 C 3696.0,8003.0 3664.0,7950.0 3655.0,7946.0 C 3646.0,7943.0 3569.0,7940.0 3484.0,7940.0 L 3330.0,7940.0 L 3221.0,7878.0 L 3113.0,7816.0 L 3107.0,7745.0 C 3102.0,7685.0 3093.0,7659.0 3050.0,7579.0 C 3003.0,7489.0 3000.0,7481.0 3000.0,7406.0 C 3000.0,7330.0 2998.0,7323.0 2953.0,7243.0 C 2911.0,7168.0 2896.0,7152.0 2818.0,7094.0 L 2731.0,7028.0 L 2677.0,7035.0 L 2622.0,7042.0 L 2589.0,6980.0 L 2555.0,6918.0 L 2515.0,6927.0 C 2493.0,6931.0 2436.0,6935.0 2388.0,6934.0 C 2315.0,6933.0 2290.0,6928.0 2228.0,6902.0 C 2188.0,6885.0 2099.0,6859.0 2030.0,6844.0 C 1961.0,6829.0 1903.0,6816.0 1901.0,6814.0 C 1899.0,6812.0 1910.0,6780.0 1925.0,6744.0 L 1953.0,6677.0 L 1923.0,6651.0 C 1898.0,6629.0 1891.0,6614.0 1882.0,6556.0 C 1876.0,6519.0 1870.0,6486.0 1868.0,6485.0 C 1866.0,6483.0 1778.0,6439.0 1671.0,6385.0 C 1483.0,6291.0 1475.0,6288.0 1450.0,6303.0 C 1426.0,6318.0 1422.0,6317.0 1370.0,6284.0 C 1340.0,6266.0 1312.0,6250.0 1309.0,6250.0 C 1305.0,6250.0 1306.0,6268.0 1310.0,6291.0 C 1318.0,6331.0 1317.0,6332.0 1229.0,6435.0 L 1140.0,6539.0 L 1074.0,6517.0 C 1010.0,6495.0 1005.0,6495.0 891.0,6508.0 L 774.0,6523.0 L 716.0,6611.0 C 666.0,6689.0 656.0,6700.0 630.0,6700.0 C 565.0,6700.0 556.0,6690.0 526.0,6579.0 C 510.0,6522.0 487.0,6449.0 474.0,6418.0 C 461.0,6386.0 450.0,6343.0 450.0,6321.0 C 450.0,6299.0 439.0,6251.0 426.0,6214.0 C 405.0,6156.0 402.0,6137.0 407.0,6055.0 L 413.0,5961.0 L 360.0,5891.0 C 312.0,5829.0 300.0,5819.0 238.0,5795.0 C 201.0,5780.0 170.0,5765.0 170.0,5762.0 C 170.0,5743.0 213.0,5689.0 253.0,5656.0 C 292.0,5624.0 297.0,5616.0 291.0,5592.0 C 284.0,5566.0 282.0,5565.0 191.0,5560.0 L 97.0,5555.0 L 54.0,5505.0 C 5.0,5450.0 4.0,5442.0 20.0,5300.0 C 28.0,5231.0 27.0,5205.0 14.0,5158.0 C -2.0,5103.0 -2.0,5099.0 20.0,5047.0 L 43.0,4992.0 L 134.0,4966.0 C 217.0,4942.0 260.0,4917.0 260.0,4890.0 C 260.0,4885.0 234.0,4861.0 201.0,4835.0 C 159.0,4802.0 138.0,4776.0 126.0,4747.0 C 117.0,4723.0 87.0,4682.0 60.0,4655.0 C 16.0,4612.0 10.0,4601.0 10.0,4565.0 C 10.0,4543.0 49.0,4365.0 96.0,4170.0 C 187.0,3788.0 186.0,3799.0 154.0,3653.0 L 137.0,3582.0 L 167.0,3527.0 L 197.0,3471.0 L 169.0,3444.0 C 141.0,3417.0 140.0,3414.0 140.0,3310.0 L 140.0,3203.0 L 407.0,3121.0 C 702.0,3030.0 762.0,3000.0 775.0,2938.0 C 779.0,2921.0 795.0,2886.0 811.0,2860.0 L 839.0,2814.0 L 824.0,2705.0 C 810.0,2604.0 806.0,2594.0 772.0,2555.0 C 752.0,2532.0 647.0,2416.0 540.0,2296.0 L 345.0,2078.0 L 325.0,1999.0 C 306.0,1925.0 301.0,1917.0 236.0,1850.0 C 197.0,1812.0 168.0,1779.0 171.0,1776.0 C 173.0,1774.0 417.0,1675.0 712.0,1555.0 L 1249.0,1338.0 L 1537.0,1349.0 C 1695.0,1355.0 1866.0,1365.0 1916.0,1371.0 C 1999.0,1382.0 2020.0,1381.0 2186.0,1355.0 C 2349.0,1329.0 2368.0,1324.0 2399.0,1298.0 C 2430.0,1270.0 2470.0,1250.0 2491.0,1250.0 C 2496.0,1250.0 2500.0,1265.0 2500.0,1284.0 C 2500.0,1310.0 2510.0,1328.0 2542.0,1363.0 C 2587.0,1410.0 2642.0,1435.0 2768.0,1463.0 L 2830.0,1477.0 L 3021.0,1424.0 L 3212.0,1370.0 L 3661.0,1512.0 L 4111.0,1654.0 L 4136.0,1697.0 L 4161.0,1740.0 L 4116.0,1794.0 L 4070.0,1847.0 L 4110.0,1980.0 C 4132.0,2053.0 4150.0,2118.0 4150.0,2123.0 C 4150.0,2129.0 4139.0,2148.0 4125.0,2166.0 C 4111.0,2184.0 4100.0,2205.0 4100.0,2212.0 C 4100.0,2219.0 4123.0,2293.0 4150.0,2376.0 L 4201.0,2528.0 L 4260.0,2544.0 C 4312.0,2559.0 4320.0,2564.0 4330.0,2595.0 C 4336.0,2613.0 4348.0,2634.0 4357.0,2642.0 C 4366.0,2649.0 4390.0,2678.0 4411.0,2706.0 C 4463.0,2777.0 4581.0,2850.0 4643.0,2850.0 L 4688.0,2850.0 L 4699.0,2804.0 C 4710.0,2762.0 4713.0,2759.0 4738.0,2764.0 C 4753.0,2767.0 4821.0,2777.0 4890.0,2785.0 C 5014.0,2801.0 5204.0,2851.0 5227.0,2873.0 C 5233.0,2880.0 5240.0,2894.0 5242.0,2905.0 C 5245.0,2922.0 5236.0,2926.0 5172.0,2936.0 C 5099.0,2947.0 5080.0,2958.0 5080.0,2991.0 C 5080.0,3007.0 5207.0,3066.0 5306.0,3096.0 C 5357.0,3111.0 5460.0,3213.0 5473.0,3261.0 C 5480.0,3288.0 5484.0,3290.0 5530.0,3290.0 C 5573.0,3290.0 5582.0,3286.0 5601.0,3261.0 C 5616.0,3240.0 5639.0,3227.0 5683.0,3215.0 C 5717.0,3206.0 5750.0,3196.0 5757.0,3193.0 C 5767.0,3189.0 5770.0,3197.0 5768.0,3220.0 C 5765.0,3250.0 5768.0,3254.0 5804.0,3266.0 L 5843.0,3280.0 L 5879.0,3238.0 C 5899.0,3214.0 5933.0,3176.0 5955.0,3152.0 L 5995.0,3109.0 L 6066.0,3116.0 L 6136.0,3123.0 L 6233.0,3297.0 L 6330.0,3471.0 L 6330.0,3669.0 L 6330.0,3868.0 L 6409.0,3942.0 L 6489.0,4016.0 L 6465.0,4057.0 L 6442.0,4099.0 L 6475.0,4142.0 L 6509.0,4185.0 L 6491.0,4257.0 L 6472.0,4328.0 L 6520.0,4354.0 C 6553.0,4372.0 6588.0,4381.0 6641.0,4385.0 C 6682.0,4388.0 6779.0,4408.0 6856.0,4428.0 L 6998.0,4465.0 L 7039.0,4547.0 C 7062.0,4593.0 7080.0,4633.0 7080.0,4636.0 C 7080.0,4639.0 7053.0,4670.0 7020.0,4704.0 C 6951.0,4776.0 6941.0,4815.0 6978.0,4867.0 C 7007.0,4907.0 7006.0,4910.0 6968.0,4910.0 C 6950.0,4910.0 6906.0,4923.0 6871.0,4938.0 L 6807.0,4965.0 L 6779.0,5040.0 C 6748.0,5120.0 6748.0,5131.0 6784.0,5172.0 C 6803.0,5194.0 6818.0,5199.0 6857.0,5201.0 C 6899.0,5202.0 6919.0,5194.0 7012.0,5143.0 L 7120.0,5084.0 L 7247.0,5097.0 C 7357.0,5108.0 7551.0,5150.0 7577.0,5169.0 C 7582.0,5172.0 7608.0,5207.0 7637.0,5245.0 C 7679.0,5303.0 7689.0,5327.0 7699.0,5383.0 L 7711.0,5452.0 L 7670.0,5506.0 C 7635.0,5552.0 7630.0,5566.0 7630.0,5611.0 C 7630.0,5655.0 7635.0,5669.0 7663.0,5704.0 C 7683.0,5729.0 7705.0,5774.0 7718.0,5819.0 C 7730.0,5860.0 7741.0,5894.0 7742.0,5896.0 C 7744.0,5897.0 7805.0,5928.0 7878.0,5964.0 C 7950.0,6000.0 8010.0,6033.0 8010.0,6038.0 C 8009.0,6042.0 8005.0,6064.0 8001.0,6087.0 C 7994.0,6125.0 7995.0,6131.0 8021.0,6156.0 L 8050.0,6184.0 L 8023.0,6212.0 C 7997.0,6239.0 7997.0,6241.0 8010.0,6293.0 C 8022.0,6345.0 8021.0,6352.0 7992.0,6441.0 C 7973.0,6499.0 7959.0,6568.0 7954.0,6622.0 L 7948.0,6709.0 L 7891.0,6749.0 C 7860.0,6770.0 7811.0,6813.0 7781.0,6843.0 L 7728.0,6898.0 L 7849.0,7067.0 C 7915.0,7160.0 7977.0,7243.0 7987.0,7252.0 C 8004.0,7267.0 8013.0,7266.0 8099.0,7239.0 C 8151.0,7223.0 8195.0,7211.0 8196.0,7213.0 C 8198.0,7215.0 8210.0,7253.0 8223.0,7298.0 C 8236.0,7344.0 8250.0,7383.0 8253.0,7386.0 C 8256.0,7389.0 8294.0,7397.0 8337.0,7402.0 C 8429.0,7415.0 8445.0,7424.0 8565.0,7541.0 L 8655.0,7628.0 L 8936.0,7643.0 C 9090.0,7651.0 9234.0,7655.0 9257.0,7651.0 C 9289.0,7645.0 9313.0,7649.0 9371.0,7670.0 L 9445.0,7697.0 L 9592.0,7647.0 L 9738.0,7597.0 L 9780.0,7630.0 C 9812.0,7655.0 9843.0,7668.0 9906.0,7682.0 C 9993.0,7701.0 10060.0,7733.0 10060.0,7756.0 C 10060.0,7763.0 10046.0,7807.0 10030.0,7852.0 C 10008.0,7910.0 10001.0,7945.0 10005.0,7967.0 C 10012.0,8007.0 10022.0,8013.0 10055.0,7998.0 C 10078.0,7988.0 10084.0,7990.0 10113.0,8017.0 L 10145.0,8048.0 L 10183.0,8029.0 L 10220.0,8009.0 L 10232.0,8035.0 C 10242.0,8057.0 10240.0,8064.0 10221.0,8084.0 C 10190.0,8117.0 10117.0,8137.0 10085.0,8120.0 C 10065.0,8109.0 10058.0,8111.0 10027.0,8134.0 C 9998.0,8156.0 9983.0,8160.0 9925.0,8160.0 C 9866.0,8160.0 9852.0,8156.0 9831.0,8136.0 C 9815.0,8122.0 9772.0,8104.0 9720.0,8090.0 C 9673.0,8078.0 9600.0,8055.0 9557.0,8039.0 C 9462.0,8004.0 9450.0,8003.0 9478.0,8033.0 C 9497.0,8054.0 9499.0,8061.0 9489.0,8088.0 C 9479.0,8117.0 9474.0,8120.0 9439.0,8120.0 C 9418.0,8120.0 9382.0,8127.0 9361.0,8136.0 C 9323.0,8151.0 9315.0,8151.0 9208.0,8125.0 C 9146.0,8111.0 9087.0,8097.0 9078.0,8094.0 C 9069.0,8091.0 9055.0,8070.0 9047.0,8047.0 L 9034.0,8005.0 L 8968.0,7996.0 C 8905.0,7987.0 8903.0,7986.0 8869.0,7937.0 C 8850.0,7909.0 8809.0,7858.0 8777.0,7824.0 L 8720.0,7762.0 L 8637.0,7750.0 C 8592.0,7743.0 8546.0,7734.0 8535.0,7730.0 C 8524.0,7726.0 8445.0,7665.0 8360.0,7595.0 C 8176.0,7443.0 8181.0,7446.0 8106.0,7430.0 L 8048.0,7418.0 L 8003.0,7462.0 C 7949.0,7514.0 7881.0,7630.0 7844.0,7727.0 C 7819.0,7797.0 7818.0,7803.0 7829.0,7882.0 C 7836.0,7928.0 7853.0,7996.0 7867.0,8033.0 L 7894.0,8101.0 L 7873.0,8143.0 C 7844.0,8205.0 7852.0,8307.0 7891.0,8369.0 C 7912.0,8401.0 7920.0,8427.0 7920.0,8458.0 C 7920.0,8498.0 7918.0,8501.0 7898.0,8494.0 C 7885.0,8491.0 7863.0,8481.0 7848.0,8474.0 C 7833.0,8466.0 7798.0,8460.0 7771.0,8460.0 C 7723.0,8460.0 7721.0,8461.0 7712.0,8493.0 C 7705.0,8516.0 7707.0,8551.0 7716.0,8601.0 C 7723.0,8642.0 7729.0,8702.0 7729.0,8736.0 L 7730.0,8796.0 L 7655.0,8839.0 C 7613.0,8862.0 7547.0,8906.0 7508.0,8936.0 C 7469.0,8966.0 7434.0,8990.0 7431.0,8990.0 C 7428.0,8990.0 7391.0,8975.0 7350.0,8957.0" fill="pink"/>
</svg>
