<?xml version="1.0" ?>
<svg xmlns="http://www.w3.org/2000/svg" xmlns:ev="http://www.w3.org/2001/xml-events" xmlns:xlink="http://www.w3.org/1999/xlink" baseProfile="full" height="480px" version="1.1" viewBox="-1028.4165 196.9746663295026 12289.833 9825.139004045968" width="600px">
	<defs/>
	<path d="M 7483.0,9180.0 C 7381.0,9144.0 7343.0,9106.0 7386.0,9082.0 C 7399.0,9075.0 7400.0,9067.0 7391.0,9034.0 C 7377.0,8984.0 7377.0,8980.0 7394.0,8980.0 C 7402.0,8980.0 7411.0,8992.0 7415.0,9008.0 L 7422.0,9035.0 L 7433.0,9010.0 C 7448.0,8975.0 7450.0,8974.0 7460.0,8990.0 C 7467.0,9001.0 7471.0,9001.0 7484.0,8991.0 C 7492.0,8984.0 7504.0,8981.0 7510.0,8985.0 C 7524.0,8993.0 7523.0,9017.0 7509.0,9022.0 C 7500.0,9025.0 7501.0,9033.0 7511.0,9050.0 C 7518.0,9064.0 7526.0,9093.0 7529.0,9115.0 C 7534.0,9150.0 7539.0,9155.0 7563.0,9158.0 C 7587.0,9161.0 7590.0,9158.0 7590.0,9133.0 C 7590.0,9118.0 7581.0,9092.0 7570.0,9075.0 C 7557.0,9055.0 7550.0,9028.0 7550.0,8993.0 L 7550.0,8942.0 L 7504.0,8926.0 C 7465.0,8913.0 7454.0,8913.0 7431.0,8924.0 C 7403.0,8938.0 7338.0,8930.0 7332.0,8911.0 C 7330.0,8904.0 7299.0,8900.0 7255.0,8900.0 C 7193.0,8900.0 7182.0,8897.0 7177.0,8881.0 C 7175.0,8871.0 7177.0,8855.0 7182.0,8846.0 C 7189.0,8834.0 7185.0,8822.0 7167.0,8801.0 C 7143.0,8773.0 7143.0,8770.0 7155.0,8703.0 C 7164.0,8653.0 7178.0,8617.0 7209.0,8568.0 L 7252.0,8501.0 L 7220.0,8445.0 L 7188.0,8388.0 L 7219.0,8356.0 C 7250.0,8324.0 7253.0,8323.0 7295.0,8333.0 C 7339.0,8343.0 7341.0,8342.0 7397.0,8298.0 C 7429.0,8273.0 7456.0,8243.0 7458.0,8231.0 C 7460.0,8220.0 7474.0,8201.0 7490.0,8190.0 C 7506.0,8179.0 7529.0,8153.0 7541.0,8133.0 C 7563.0,8097.0 7564.0,8097.0 7574.0,8119.0 C 7581.0,8134.0 7580.0,8174.0 7573.0,8242.0 C 7567.0,8297.0 7564.0,8349.0 7567.0,8357.0 C 7575.0,8377.0 7639.0,8314.0 7700.0,8225.0 C 7726.0,8187.0 7773.0,8133.0 7804.0,8107.0 C 7856.0,8062.0 7863.0,8059.0 7890.0,8068.0 C 7918.0,8078.0 7919.0,8077.0 7934.0,8032.0 C 7952.0,7980.0 7955.0,7914.0 7940.0,7905.0 C 7935.0,7902.0 7930.0,7906.0 7930.0,7914.0 C 7930.0,7932.0 7922.0,7934.0 7900.0,7920.0 C 7887.0,7912.0 7887.0,7904.0 7901.0,7853.0 C 7916.0,7796.0 7916.0,7793.0 7891.0,7718.0 C 7869.0,7654.0 7859.0,7637.0 7828.0,7616.0 L 7790.0,7591.0 L 7749.0,7645.0 C 7713.0,7692.0 7680.0,7716.0 7680.0,7693.0 C 7680.0,7690.0 7704.0,7641.0 7733.0,7586.0 C 7763.0,7530.0 7793.0,7468.0 7799.0,7447.0 C 7807.0,7424.0 7822.0,7404.0 7836.0,7398.0 C 7855.0,7389.0 7860.0,7379.0 7860.0,7349.0 C 7860.0,7321.0 7865.0,7308.0 7880.0,7300.0 C 7892.0,7294.0 7905.0,7278.0 7910.0,7265.0 C 7917.0,7247.0 7924.0,7242.0 7936.0,7247.0 C 7950.0,7252.0 7952.0,7249.0 7946.0,7226.0 C 7941.0,7206.0 7946.0,7191.0 7965.0,7166.0 C 7996.0,7125.0 7996.0,7106.0 7968.0,7078.0 C 7955.0,7066.0 7932.0,7029.0 7915.0,6996.0 C 7894.0,6953.0 7879.0,6934.0 7863.0,6932.0 C 7847.0,6930.0 7840.0,6920.0 7835.0,6890.0 C 7831.0,6868.0 7820.0,6840.0 7810.0,6827.0 C 7791.0,6803.0 7791.0,6803.0 7815.0,6792.0 C 7860.0,6771.0 7867.0,6745.0 7873.0,6588.0 C 7877.0,6473.0 7875.0,6437.0 7864.0,6423.0 C 7857.0,6413.0 7850.0,6394.0 7850.0,6380.0 C 7850.0,6364.0 7838.0,6346.0 7817.0,6328.0 C 7786.0,6304.0 7780.0,6303.0 7736.0,6313.0 L 7689.0,6324.0 L 7642.0,6277.0 L 7595.0,6231.0 L 7525.0,6238.0 L 7456.0,6245.0 L 7426.0,6293.0 L 7397.0,6340.0 L 7409.0,6428.0 C 7418.0,6489.0 7431.0,6531.0 7452.0,6570.0 C 7477.0,6614.0 7483.0,6639.0 7487.0,6705.0 C 7491.0,6775.0 7485.0,6816.0 7436.0,7040.0 C 7375.0,7314.0 7371.0,7374.0 7411.0,7424.0 C 7429.0,7447.0 7429.0,7447.0 7406.0,7458.0 C 7379.0,7470.0 7325.0,7534.0 7280.0,7608.0 C 7249.0,7659.0 7247.0,7665.0 7253.0,7736.0 L 7259.0,7811.0 L 7232.0,7808.0 C 7210.0,7805.0 7201.0,7813.0 7173.0,7860.0 C 7144.0,7909.0 7142.0,7915.0 7158.0,7924.0 C 7184.0,7938.0 7184.0,7939.0 7165.0,7960.0 C 7142.0,7985.0 7100.0,7987.0 7100.0,7963.0 C 7100.0,7953.0 7076.0,7986.0 7046.0,8035.0 C 6997.0,8115.0 6992.0,8129.0 6997.0,8166.0 C 7002.0,8207.0 7002.0,8207.0 6969.0,8213.0 C 6950.0,8215.0 6931.0,8214.0 6926.0,8209.0 C 6911.0,8196.0 6898.0,8198.0 6873.0,8219.0 C 6854.0,8235.0 6847.0,8257.0 6835.0,8349.0 C 6826.0,8410.0 6822.0,8465.0 6825.0,8470.0 C 6828.0,8476.0 6839.0,8480.0 6850.0,8480.0 C 6861.0,8480.0 6872.0,8491.0 6878.0,8509.0 C 6885.0,8528.0 6896.0,8540.0 6912.0,8542.0 C 6944.0,8546.0 6951.0,8595.0 6921.0,8605.0 C 6907.0,8609.0 6900.0,8620.0 6900.0,8636.0 C 6900.0,8672.0 6934.0,8667.0 6966.0,8625.0 C 6983.0,8602.0 7001.0,8590.0 7016.0,8590.0 C 7034.0,8590.0 7041.0,8583.0 7048.0,8558.0 L 7056.0,8525.0 L 7001.0,8520.0 C 6939.0,8514.0 6920.0,8506.0 6920.0,8484.0 C 6920.0,8473.0 6935.0,8470.0 6985.0,8470.0 C 7045.0,8470.0 7050.0,8468.0 7056.0,8446.0 C 7059.0,8432.0 7059.0,8412.0 7055.0,8401.0 C 7049.0,8380.0 7048.0,8380.0 6999.0,8405.0 C 6952.0,8430.0 6933.0,8426.0 6966.0,8399.0 C 6977.0,8390.0 6980.0,8376.0 6977.0,8354.0 C 6973.0,8328.0 6977.0,8317.0 7001.0,8294.0 C 7024.0,8272.0 7030.0,8258.0 7031.0,8221.0 C 7031.0,8196.0 7041.0,8148.0 7053.0,8116.0 C 7074.0,8058.0 7077.0,8055.0 7135.0,8033.0 C 7176.0,8017.0 7202.0,8012.0 7218.0,8018.0 C 7240.0,8025.0 7237.0,8030.0 7161.0,8099.0 L 7080.0,8172.0 L 7080.0,8258.0 C 7080.0,8320.0 7084.0,8348.0 7095.0,8360.0 C 7103.0,8369.0 7126.0,8415.0 7144.0,8461.0 L 7178.0,8545.0 L 7149.0,8575.0 C 7133.0,8592.0 7120.0,8610.0 7120.0,8615.0 C 7120.0,8621.0 7116.0,8631.0 7111.0,8638.0 C 7104.0,8650.0 7097.0,8649.0 7073.0,8636.0 C 7039.0,8619.0 7030.0,8623.0 7030.0,8655.0 C 7030.0,8674.0 7037.0,8678.0 7071.0,8683.0 C 7093.0,8686.0 7113.0,8690.0 7115.0,8692.0 C 7116.0,8693.0 7121.0,8721.0 7124.0,8752.0 L 7131.0,8808.0 L 7072.0,8849.0 L 7013.0,8889.0 L 6953.0,8827.0 C 6909.0,8781.0 6883.0,8743.0 6854.0,8680.0 C 6833.0,8633.0 6812.0,8589.0 6807.0,8582.0 C 6802.0,8575.0 6760.0,8547.0 6713.0,8519.0 C 6650.0,8480.0 6625.0,8459.0 6610.0,8430.0 C 6599.0,8408.0 6590.0,8387.0 6590.0,8383.0 C 6590.0,8378.0 6641.0,8344.0 6703.0,8307.0 C 6836.0,8228.0 6865.0,8199.0 6953.0,8059.0 C 7031.0,7936.0 7057.0,7867.0 7071.0,7753.0 C 7083.0,7644.0 7100.0,7612.0 7181.0,7546.0 C 7282.0,7462.0 7317.0,7398.0 7350.0,7233.0 C 7372.0,7125.0 7376.0,7082.0 7372.0,7009.0 C 7368.0,6925.0 7369.0,6916.0 7395.0,6868.0 C 7422.0,6818.0 7423.0,6816.0 7416.0,6691.0 C 7409.0,6580.0 7400.0,6532.0 7339.0,6297.0 C 7301.0,6150.0 7270.0,6011.0 7270.0,5989.0 C 7270.0,5962.0 7256.0,5921.0 7224.0,5859.0 C 7179.0,5769.0 7179.0,5768.0 7186.0,5697.0 C 7192.0,5639.0 7200.0,5615.0 7227.0,5574.0 L 7261.0,5522.0 L 7303.0,5532.0 C 7326.0,5537.0 7345.0,5542.0 7346.0,5543.0 C 7346.0,5544.0 7361.0,5570.0 7378.0,5600.0 C 7421.0,5675.0 7462.0,5706.0 7638.0,5794.0 C 7781.0,5865.0 7794.0,5870.0 7855.0,5870.0 C 7906.0,5870.0 7935.0,5864.0 7987.0,5840.0 C 8036.0,5818.0 8068.0,5810.0 8111.0,5810.0 C 8160.0,5810.0 8171.0,5806.0 8187.0,5786.0 C 8197.0,5773.0 8261.0,5732.0 8329.0,5695.0 C 8466.0,5622.0 8562.0,5549.0 8625.0,5468.0 C 8651.0,5434.0 8692.0,5399.0 8734.0,5374.0 L 8801.0,5334.0 L 8880.0,5342.0 C 8957.0,5350.0 8960.0,5350.0 9017.0,5319.0 C 9049.0,5301.0 9112.0,5260.0 9158.0,5227.0 C 9245.0,5165.0 9274.0,5129.0 9364.0,4972.0 C 9422.0,4870.0 9429.0,4824.0 9405.0,4711.0 C 9395.0,4666.0 9390.0,4627.0 9394.0,4623.0 C 9410.0,4606.0 9479.0,4695.0 9507.0,4768.0 C 9535.0,4843.0 9535.0,4843.0 9598.0,4873.0 C 9650.0,4897.0 9669.0,4901.0 9708.0,4897.0 C 9807.0,4885.0 9899.0,4858.0 9996.0,4814.0 C 10092.0,4771.0 10099.0,4765.0 10135.0,4709.0 C 10167.0,4660.0 10179.0,4650.0 10202.0,4650.0 C 10234.0,4650.0 10240.0,4671.0 10214.0,4692.0 C 10136.0,4754.0 10130.0,4764.0 10130.0,4840.0 C 10130.0,4879.0 10135.0,4920.0 10141.0,4932.0 C 10150.0,4948.0 10147.0,4957.0 10127.0,4979.0 C 10089.0,5018.0 10078.0,5057.0 10085.0,5121.0 C 10091.0,5172.0 10095.0,5178.0 10123.0,5191.0 C 10170.0,5211.0 10169.0,5246.0 10120.0,5375.0 C 10080.0,5480.0 10079.0,5484.0 10091.0,5538.0 C 10102.0,5583.0 10110.0,5596.0 10136.0,5612.0 C 10168.0,5631.0 10180.0,5663.0 10180.0,5734.0 C 10180.0,5750.0 10192.0,5779.0 10207.0,5798.0 L 10233.0,5833.0 L 10232.0,6026.0 C 10231.0,6201.0 10229.0,6222.0 10212.0,6247.0 C 10196.0,6269.0 10191.0,6299.0 10186.0,6394.0 C 10181.0,6495.0 10176.0,6520.0 10156.0,6554.0 C 10127.0,6604.0 10090.0,6732.0 10090.0,6786.0 C 10089.0,6810.0 10080.0,6841.0 10065.0,6865.0 C 10051.0,6888.0 10040.0,6920.0 10040.0,6941.0 C 10040.0,6963.0 10033.0,6983.0 10021.0,6994.0 C 10011.0,7003.0 9999.0,7025.0 9996.0,7042.0 C 9978.0,7132.0 9969.0,7151.0 9939.0,7162.0 C 9923.0,7167.0 9910.0,7178.0 9910.0,7185.0 C 9910.0,7193.0 9899.0,7212.0 9886.0,7228.0 C 9871.0,7245.0 9863.0,7264.0 9866.0,7276.0 C 9871.0,7295.0 9820.0,7347.0 9703.0,7440.0 C 9679.0,7458.0 9660.0,7477.0 9660.0,7482.0 C 9660.0,7487.0 9630.0,7526.0 9592.0,7570.0 C 9536.0,7636.0 9507.0,7660.0 9420.0,7711.0 C 9302.0,7780.0 9290.0,7791.0 9290.0,7835.0 C 9290.0,7861.0 9283.0,7870.0 9236.0,7898.0 C 9161.0,7942.0 9060.0,8088.0 9060.0,8152.0 C 9060.0,8185.0 9052.0,8193.0 8984.0,8229.0 C 8937.0,8254.0 8921.0,8268.0 8917.0,8288.0 C 8913.0,8304.0 8897.0,8324.0 8875.0,8338.0 C 8847.0,8356.0 8840.0,8366.0 8840.0,8393.0 C 8840.0,8439.0 8778.0,8500.0 8729.0,8502.0 C 8710.0,8502.0 8686.0,8498.0 8675.0,8493.0 C 8664.0,8487.0 8641.0,8485.0 8624.0,8487.0 C 8585.0,8493.0 8550.0,8476.0 8550.0,8451.0 C 8550.0,8434.0 8532.0,8420.0 8509.0,8420.0 C 8504.0,8420.0 8500.0,8427.0 8500.0,8435.0 C 8500.0,8443.0 8475.0,8469.0 8445.0,8493.0 C 8415.0,8516.0 8390.0,8542.0 8390.0,8551.0 C 8390.0,8559.0 8385.0,8571.0 8378.0,8578.0 C 8363.0,8593.0 8313.0,8594.0 8304.0,8579.0 C 8300.0,8571.0 8278.0,8570.0 8239.0,8574.0 C 8185.0,8580.0 8180.0,8579.0 8180.0,8561.0 C 8180.0,8550.0 8185.0,8538.0 8190.0,8535.0 C 8196.0,8532.0 8200.0,8518.0 8200.0,8506.0 C 8200.0,8489.0 8209.0,8479.0 8230.0,8470.0 C 8256.0,8459.0 8260.0,8452.0 8260.0,8421.0 C 8260.0,8357.0 8251.0,8341.0 8208.0,8328.0 C 8172.0,8317.0 8100.0,8251.0 8100.0,8228.0 C 8100.0,8224.0 8114.0,8220.0 8130.0,8220.0 C 8153.0,8220.0 8163.0,8226.0 8170.0,8245.0 C 8177.0,8264.0 8187.0,8270.0 8209.0,8270.0 C 8228.0,8270.0 8257.0,8285.0 8296.0,8315.0 C 8357.0,8363.0 8366.0,8367.0 8372.0,8349.0 C 8378.0,8330.0 8437.0,8366.0 8444.0,8392.0 L 8450.0,8415.0 L 8470.0,8390.0 C 8481.0,8376.0 8490.0,8360.0 8490.0,8355.0 C 8490.0,8337.0 8432.0,8280.0 8413.0,8280.0 C 8402.0,8280.0 8379.0,8269.0 8360.0,8255.0 C 8341.0,8241.0 8320.0,8230.0 8313.0,8230.0 C 8306.0,8230.0 8295.0,8210.0 8289.0,8185.0 C 8276.0,8134.0 8254.0,8125.0 8244.0,8168.0 C 8234.0,8216.0 8231.0,8220.0 8209.0,8220.0 C 8191.0,8220.0 8189.0,8215.0 8193.0,8194.0 C 8199.0,8159.0 8172.0,8150.0 8054.0,8150.0 C 7970.0,8150.0 7950.0,8154.0 7887.0,8180.0 C 7847.0,8197.0 7801.0,8223.0 7784.0,8238.0 C 7740.0,8276.0 7689.0,8382.0 7678.0,8460.0 C 7673.0,8496.0 7666.0,8540.0 7663.0,8558.0 C 7658.0,8590.0 7659.0,8591.0 7684.0,8584.0 C 7700.0,8580.0 7728.0,8584.0 7754.0,8594.0 C 7813.0,8616.0 7848.0,8668.0 7858.0,8746.0 L 7866.0,8805.0 L 7895.0,8760.0 C 7919.0,8723.0 7924.0,8704.0 7924.0,8650.0 C 7925.0,8605.0 7931.0,8576.0 7943.0,8557.0 L 7961.0,8530.0 L 7927.0,8514.0 C 7894.0,8498.0 7893.0,8496.0 7901.0,8461.0 C 7906.0,8441.0 7907.0,8417.0 7904.0,8406.0 C 7898.0,8389.0 7902.0,8388.0 7946.0,8394.0 C 7973.0,8398.0 8018.0,8412.0 8045.0,8425.0 C 8073.0,8437.0 8112.0,8456.0 8133.0,8465.0 L 8172.0,8482.0 L 8147.0,8508.0 C 8133.0,8523.0 8111.0,8558.0 8097.0,8586.0 C 8083.0,8614.0 8055.0,8651.0 8035.0,8668.0 C 8016.0,8686.0 7973.0,8744.0 7941.0,8797.0 C 7908.0,8851.0 7868.0,8905.0 7852.0,8917.0 C 7834.0,8930.0 7819.0,8953.0 7815.0,8972.0 C 7810.0,8994.0 7778.0,9034.0 7711.0,9102.0 C 7621.0,9194.0 7613.0,9200.0 7575.0,9199.0 C 7553.0,9199.0 7511.0,9190.0 7483.0,9180.0" fill="pink"/>
	<path d="M 1730.0,5265.0 C 1723.0,5257.0 1709.0,5250.0 1699.0,5250.0 C 1689.0,5250.0 1676.0,5241.0 1671.0,5231.0 C 1658.0,5208.0 1565.0,5160.0 1534.0,5160.0 C 1522.0,5160.0 1510.0,5153.0 1506.0,5145.0 C 1503.0,5136.0 1488.0,5130.0 1472.0,5130.0 C 1456.0,5130.0 1435.0,5121.0 1425.0,5110.0 C 1409.0,5093.0 1409.0,5087.0 1423.0,5047.0 L 1438.0,5004.0 L 1396.0,4947.0 C 1374.0,4916.0 1333.0,4877.0 1307.0,4860.0 C 1281.0,4843.0 1262.0,4825.0 1265.0,4820.0 C 1269.0,4813.0 1278.0,4813.0 1290.0,4820.0 C 1323.0,4838.0 1327.0,4831.0 1333.0,4752.0 C 1339.0,4651.0 1332.0,4580.0 1314.0,4580.0 C 1307.0,4580.0 1283.0,4571.0 1260.0,4559.0 C 1238.0,4548.0 1201.0,4536.0 1178.0,4533.0 L 1135.0,4527.0 L 1159.0,4554.0 C 1173.0,4568.0 1194.0,4580.0 1206.0,4580.0 C 1231.0,4580.0 1251.0,4601.0 1232.0,4608.0 C 1225.0,4610.0 1220.0,4617.0 1220.0,4624.0 C 1220.0,4644.0 1266.0,4682.0 1286.0,4678.0 C 1301.0,4676.0 1306.0,4682.0 1308.0,4707.0 C 1311.0,4732.0 1305.0,4743.0 1281.0,4761.0 C 1265.0,4773.0 1249.0,4791.0 1247.0,4801.0 C 1241.0,4823.0 1213.0,4837.0 1199.0,4823.0 C 1193.0,4817.0 1198.0,4805.0 1211.0,4792.0 C 1243.0,4757.0 1229.0,4706.0 1159.0,4605.0 C 1100.0,4522.0 1099.0,4518.0 1100.0,4457.0 C 1101.0,4423.0 1099.0,4386.0 1095.0,4375.0 C 1091.0,4361.0 1095.0,4348.0 1109.0,4336.0 C 1121.0,4325.0 1130.0,4313.0 1130.0,4308.0 C 1130.0,4292.0 1091.0,4300.0 1072.0,4321.0 L 1052.0,4341.0 L 1034.0,4318.0 C 1023.0,4305.0 1008.0,4291.0 999.0,4288.0 C 987.0,4283.0 984.0,4274.0 987.0,4256.0 C 993.0,4225.0 1009.0,4223.0 1043.0,4250.0 C 1072.0,4273.0 1091.0,4275.0 1108.0,4258.0 C 1115.0,4251.0 1147.0,4245.0 1181.0,4244.0 C 1232.0,4242.0 1241.0,4244.0 1238.0,4258.0 C 1236.0,4268.0 1219.0,4278.0 1197.0,4283.0 C 1170.0,4290.0 1160.0,4297.0 1162.0,4309.0 C 1167.0,4334.0 1216.0,4335.0 1246.0,4311.0 C 1261.0,4299.0 1281.0,4290.0 1292.0,4290.0 C 1304.0,4290.0 1316.0,4278.0 1325.0,4258.0 C 1340.0,4221.0 1330.0,4199.0 1300.0,4207.0 C 1288.0,4210.0 1278.0,4205.0 1271.0,4191.0 C 1261.0,4174.0 1250.0,4170.0 1205.0,4170.0 C 1158.0,4170.0 1150.0,4167.0 1150.0,4151.0 C 1150.0,4125.0 1227.0,4104.0 1269.0,4118.0 C 1294.0,4127.0 1300.0,4126.0 1300.0,4116.0 C 1300.0,4108.0 1323.0,4088.0 1350.0,4070.0 C 1380.0,4051.0 1400.0,4031.0 1400.0,4020.0 C 1400.0,4009.0 1416.0,3992.0 1440.0,3979.0 C 1485.0,3954.0 1487.0,3949.0 1463.0,3924.0 C 1449.0,3911.0 1434.0,3908.0 1379.0,3913.0 C 1279.0,3921.0 1249.0,3938.0 1221.0,3999.0 L 1196.0,4050.0 L 1173.0,4028.0 C 1156.0,4012.0 1135.0,4005.0 1092.0,4003.0 C 962.0,3997.0 942.0,4002.0 903.0,4059.0 C 868.0,4109.0 809.0,4129.0 751.0,4111.0 C 730.0,4105.0 711.0,4100.0 708.0,4100.0 C 706.0,4100.0 693.0,4123.0 680.0,4150.0 C 655.0,4204.0 649.0,4208.0 630.0,4186.0 C 616.0,4168.0 594.0,4175.0 560.0,4206.0 C 545.0,4219.0 523.0,4231.0 510.0,4231.0 C 474.0,4234.0 366.0,4200.0 377.0,4190.0 C 381.0,4185.0 412.0,4180.0 445.0,4178.0 L 505.0,4175.0 L 508.0,4138.0 L 511.0,4100.0 L 471.0,4100.0 C 444.0,4100.0 422.0,4092.0 403.0,4077.0 C 388.0,4064.0 356.0,4043.0 333.0,4030.0 C 268.0,3994.0 277.0,3976.0 345.0,4004.0 C 373.0,4016.0 380.0,4016.0 380.0,4006.0 C 380.0,3986.0 347.0,3961.0 312.0,3954.0 C 286.0,3949.0 277.0,3952.0 256.0,3976.0 C 243.0,3992.0 229.0,4002.0 225.0,3998.0 C 222.0,3995.0 218.0,3958.0 217.0,3916.0 C 216.0,3872.0 211.0,3840.0 205.0,3840.0 C 199.0,3840.0 186.0,3823.0 175.0,3803.0 C 164.0,3783.0 140.0,3748.0 123.0,3726.0 C 85.0,3678.0 83.0,3669.0 110.0,3645.0 C 137.0,3621.0 135.0,3602.0 105.0,3588.0 C 91.0,3582.0 77.0,3567.0 74.0,3554.0 C 70.0,3539.0 63.0,3534.0 49.0,3537.0 C 27.0,3543.0 26.0,3541.0 40.0,3506.0 C 45.0,3492.0 56.0,3480.0 65.0,3480.0 C 73.0,3480.0 80.0,3473.0 80.0,3464.0 C 80.0,3452.0 86.0,3449.0 103.0,3454.0 C 115.0,3457.0 135.0,3460.0 146.0,3460.0 C 160.0,3460.0 177.0,3475.0 194.0,3500.0 C 229.0,3553.0 264.0,3567.0 309.0,3545.0 C 341.0,3530.0 344.0,3530.0 364.0,3550.0 C 377.0,3561.0 400.0,3570.0 417.0,3570.0 C 434.0,3570.0 467.0,3577.0 490.0,3585.0 C 516.0,3594.0 547.0,3598.0 566.0,3594.0 C 591.0,3589.0 606.0,3593.0 626.0,3609.0 C 641.0,3621.0 662.0,3630.0 674.0,3630.0 C 700.0,3629.0 730.0,3608.0 730.0,3590.0 C 730.0,3582.0 738.0,3568.0 747.0,3558.0 C 762.0,3541.0 762.0,3535.0 751.0,3507.0 C 743.0,3489.0 737.0,3466.0 736.0,3454.0 C 733.0,3428.0 710.0,3396.0 688.0,3387.0 C 678.0,3384.0 670.0,3371.0 670.0,3360.0 C 670.0,3348.0 659.0,3324.0 645.0,3306.0 C 631.0,3288.0 620.0,3264.0 620.0,3253.0 C 620.0,3228.0 580.0,3190.0 553.0,3190.0 C 542.0,3190.0 513.0,3197.0 490.0,3205.0 C 467.0,3213.0 428.0,3220.0 403.0,3220.0 C 365.0,3220.0 353.0,3214.0 311.0,3175.0 C 259.0,3127.0 238.0,3121.0 201.0,3146.0 C 182.0,3160.0 174.0,3160.0 152.0,3150.0 C 137.0,3143.0 116.0,3137.0 105.0,3136.0 C 76.0,3135.0 0.0,3049.0 0.0,3017.0 C 0.0,3003.0 7.0,2989.0 16.0,2986.0 C 35.0,2979.0 34.0,2978.0 48.0,3006.0 C 57.0,3023.0 73.0,3029.0 120.0,3035.0 C 178.0,3042.0 182.0,3041.0 216.0,3010.0 C 242.0,2988.0 256.0,2982.0 263.0,2989.0 C 278.0,3004.0 341.0,3002.0 363.0,2986.0 C 390.0,2965.0 387.0,2887.0 358.0,2868.0 C 341.0,2857.0 331.0,2856.0 318.0,2863.0 C 305.0,2872.0 296.0,2870.0 281.0,2856.0 C 243.0,2822.0 259.0,2791.0 304.0,2811.0 C 362.0,2838.0 395.0,2782.0 416.0,2622.0 C 422.0,2576.0 420.0,2566.0 401.0,2546.0 C 386.0,2530.0 377.0,2505.0 373.0,2467.0 C 368.0,2422.0 363.0,2410.0 344.0,2401.0 C 329.0,2395.0 319.0,2394.0 315.0,2400.0 C 304.0,2419.0 273.0,2410.0 262.0,2385.0 C 256.0,2372.0 237.0,2354.0 220.0,2345.0 C 188.0,2328.0 181.0,2306.0 204.0,2297.0 C 212.0,2294.0 226.0,2279.0 236.0,2265.0 C 250.0,2244.0 251.0,2235.0 241.0,2214.0 C 231.0,2192.0 232.0,2188.0 248.0,2183.0 C 272.0,2177.0 310.0,2002.0 290.0,1990.0 C 280.0,1984.0 289.0,1966.0 322.0,1918.0 C 372.0,1848.0 393.0,1790.0 381.0,1757.0 C 374.0,1739.0 381.0,1727.0 413.0,1693.0 C 450.0,1654.0 457.0,1650.0 489.0,1656.0 C 515.0,1661.0 526.0,1659.0 536.0,1645.0 C 546.0,1631.0 556.0,1629.0 582.0,1635.0 C 673.0,1657.0 867.0,1632.0 958.0,1587.0 C 999.0,1567.0 1002.0,1567.0 1011.0,1583.0 C 1023.0,1603.0 1067.0,1605.0 1104.0,1589.0 C 1123.0,1580.0 1131.0,1567.0 1136.0,1535.0 C 1141.0,1499.0 1146.0,1491.0 1168.0,1487.0 C 1183.0,1484.0 1211.0,1486.0 1231.0,1492.0 C 1258.0,1500.0 1277.0,1498.0 1313.0,1486.0 C 1339.0,1477.0 1381.0,1470.0 1406.0,1470.0 C 1478.0,1470.0 1517.0,1436.0 1473.0,1411.0 C 1444.0,1395.0 1470.0,1377.0 1504.0,1390.0 C 1543.0,1404.0 1557.0,1403.0 1578.0,1380.0 C 1595.0,1361.0 1597.0,1361.0 1630.0,1378.0 C 1651.0,1388.0 1667.0,1405.0 1670.0,1420.0 C 1678.0,1454.0 1701.0,1456.0 1730.0,1425.0 C 1750.0,1404.0 1752.0,1397.0 1742.0,1375.0 C 1735.0,1361.0 1730.0,1322.0 1730.0,1290.0 C 1730.0,1258.0 1725.0,1219.0 1718.0,1205.0 C 1705.0,1176.0 1706.0,1174.0 1743.0,1165.0 C 1766.0,1159.0 1770.0,1161.0 1770.0,1179.0 C 1770.0,1196.0 1776.0,1200.0 1804.0,1200.0 C 1822.0,1200.0 1843.0,1207.0 1850.0,1215.0 C 1859.0,1226.0 1882.0,1230.0 1929.0,1230.0 C 1988.0,1230.0 1996.0,1232.0 2005.0,1252.0 C 2015.0,1276.0 2022.0,1277.0 2096.0,1265.0 C 2132.0,1259.0 2138.0,1260.0 2142.0,1277.0 C 2149.0,1303.0 2197.0,1313.0 2209.0,1292.0 C 2215.0,1282.0 2225.0,1279.0 2245.0,1284.0 C 2271.0,1291.0 2272.0,1293.0 2267.0,1335.0 C 2263.0,1358.0 2259.0,1384.0 2258.0,1391.0 C 2256.0,1398.0 2270.0,1408.0 2288.0,1413.0 C 2314.0,1421.0 2324.0,1420.0 2341.0,1404.0 C 2357.0,1390.0 2365.0,1388.0 2378.0,1397.0 C 2388.0,1403.0 2419.0,1411.0 2447.0,1415.0 C 2492.0,1421.0 2499.0,1419.0 2504.0,1402.0 C 2516.0,1366.0 2544.0,1351.0 2615.0,1344.0 C 2677.0,1338.0 2689.0,1334.0 2725.0,1300.0 C 2781.0,1248.0 2820.0,1220.0 2836.0,1220.0 C 2858.0,1220.0 2853.0,1236.0 2820.0,1273.0 C 2804.0,1292.0 2790.0,1317.0 2790.0,1328.0 C 2790.0,1362.0 2809.0,1400.0 2825.0,1400.0 C 2834.0,1400.0 2840.0,1406.0 2839.0,1413.0 C 2836.0,1439.0 2841.0,1449.0 2858.0,1452.0 C 2869.0,1454.0 2875.0,1465.0 2875.0,1484.0 C 2875.0,1512.0 2885.0,1522.0 2923.0,1534.0 C 2932.0,1537.0 2940.0,1548.0 2940.0,1559.0 C 2940.0,1592.0 2993.0,1614.0 3036.0,1600.0 C 3055.0,1594.0 3085.0,1590.0 3103.0,1591.0 C 3151.0,1595.0 3209.0,1580.0 3220.0,1560.0 C 3226.0,1548.0 3223.0,1526.0 3209.0,1489.0 C 3190.0,1439.0 3189.0,1433.0 3204.0,1403.0 C 3219.0,1371.0 3219.0,1369.0 3197.0,1360.0 C 3185.0,1355.0 3142.0,1346.0 3103.0,1340.0 C 3037.0,1329.0 3030.0,1326.0 3030.0,1305.0 C 3030.0,1289.0 3023.0,1280.0 3005.0,1276.0 C 2957.0,1264.0 2989.0,1200.0 3043.0,1200.0 C 3090.0,1200.0 3102.0,1188.0 3098.0,1145.0 C 3095.0,1104.0 3092.0,1106.0 3173.0,1086.0 C 3198.0,1080.0 3200.0,1082.0 3200.0,1108.0 C 3200.0,1132.0 3208.0,1140.0 3255.0,1163.0 C 3286.0,1178.0 3319.0,1190.0 3329.0,1190.0 C 3355.0,1190.0 3361.0,1200.0 3345.0,1216.0 C 3338.0,1224.0 3334.0,1238.0 3337.0,1249.0 C 3340.0,1262.0 3335.0,1269.0 3318.0,1273.0 C 3300.0,1278.0 3295.0,1286.0 3294.0,1315.0 C 3293.0,1360.0 3307.0,1359.0 3355.0,1310.0 C 3390.0,1274.0 3392.0,1270.0 3372.0,1270.0 C 3338.0,1270.0 3346.0,1254.0 3395.0,1223.0 C 3432.0,1199.0 3439.0,1190.0 3440.0,1163.0 C 3440.0,1133.0 3437.0,1130.0 3410.0,1130.0 C 3392.0,1130.0 3380.0,1125.0 3380.0,1117.0 C 3380.0,1096.0 3402.0,1080.0 3429.0,1080.0 C 3458.0,1080.0 3520.0,1046.0 3520.0,1030.0 C 3520.0,1025.0 3531.0,1020.0 3545.0,1020.0 C 3559.0,1020.0 3570.0,1025.0 3570.0,1030.0 C 3570.0,1036.0 3579.0,1040.0 3589.0,1040.0 C 3600.0,1040.0 3612.0,1045.0 3615.0,1051.0 C 3619.0,1057.0 3629.0,1059.0 3637.0,1056.0 C 3646.0,1052.0 3659.0,1055.0 3666.0,1061.0 C 3677.0,1070.0 3681.0,1068.0 3686.0,1055.0 C 3697.0,1026.0 3749.0,1045.0 3798.0,1095.0 C 3825.0,1124.0 3850.0,1140.0 3865.0,1140.0 C 3879.0,1140.0 3894.0,1149.0 3900.0,1160.0 C 3909.0,1177.0 3907.0,1180.0 3885.0,1186.0 C 3871.0,1190.0 3856.0,1190.0 3853.0,1186.0 C 3841.0,1174.0 3820.0,1203.0 3820.0,1233.0 L 3820.0,1263.0 L 3845.0,1240.0 C 3859.0,1227.0 3870.0,1222.0 3870.0,1228.0 C 3870.0,1235.0 3881.0,1240.0 3894.0,1240.0 C 3931.0,1240.0 3969.0,1185.0 3963.0,1142.0 C 3958.0,1110.0 3959.0,1109.0 3986.0,1115.0 C 4002.0,1119.0 4021.0,1123.0 4028.0,1126.0 C 4036.0,1128.0 4040.0,1150.0 4040.0,1189.0 C 4040.0,1246.0 4038.0,1251.0 3985.0,1315.0 C 3940.0,1370.0 3930.0,1389.0 3930.0,1420.0 C 3930.0,1461.0 3943.0,1470.0 4007.0,1470.0 C 4038.0,1470.0 4039.0,1469.0 4033.0,1438.0 C 4030.0,1420.0 4027.0,1403.0 4028.0,1400.0 C 4029.0,1356.0 4029.0,1356.0 4055.0,1380.0 C 4069.0,1393.0 4080.0,1414.0 4080.0,1427.0 C 4080.0,1440.0 4089.0,1459.0 4100.0,1470.0 C 4112.0,1482.0 4120.0,1503.0 4120.0,1525.0 C 4120.0,1555.0 4111.0,1570.0 4070.0,1610.0 C 4043.0,1638.0 4017.0,1660.0 4012.0,1660.0 C 4006.0,1660.0 4000.0,1667.0 3996.0,1675.0 C 3993.0,1684.0 3978.0,1690.0 3961.0,1690.0 C 3904.0,1690.0 3900.0,1696.0 3900.0,1775.0 C 3900.0,1842.0 3898.0,1850.0 3875.0,1867.0 C 3858.0,1879.0 3847.0,1900.0 3841.0,1932.0 C 3837.0,1958.0 3821.0,1993.0 3806.0,2011.0 C 3789.0,2031.0 3781.0,2049.0 3785.0,2059.0 C 3789.0,2068.0 3797.0,2087.0 3802.0,2103.0 C 3814.0,2135.0 3819.0,2136.0 3871.0,2109.0 C 3912.0,2089.0 3912.0,2089.0 3934.0,2108.0 C 3945.0,2119.0 3962.0,2130.0 3970.0,2131.0 C 4001.0,2137.0 4048.0,2118.0 4075.0,2090.0 C 4090.0,2074.0 4117.0,2058.0 4134.0,2054.0 C 4151.0,2050.0 4179.0,2033.0 4195.0,2015.0 C 4213.0,1995.0 4243.0,1978.0 4270.0,1970.0 C 4295.0,1964.0 4331.0,1943.0 4350.0,1925.0 C 4370.0,1906.0 4422.0,1877.0 4472.0,1857.0 L 4560.0,1822.0 L 4767.0,1830.0 C 4971.0,1838.0 4975.0,1838.0 4998.0,1817.0 C 5020.0,1797.0 5021.0,1797.0 5038.0,1814.0 C 5050.0,1828.0 5052.0,1834.0 5043.0,1837.0 C 5036.0,1840.0 5030.0,1850.0 5030.0,1861.0 C 5030.0,1876.0 5034.0,1878.0 5054.0,1870.0 C 5072.0,1863.0 5082.0,1865.0 5091.0,1876.0 C 5100.0,1887.0 5113.0,1890.0 5137.0,1885.0 C 5173.0,1878.0 5210.0,1893.0 5210.0,1915.0 C 5210.0,1925.0 5201.0,1927.0 5173.0,1923.0 C 5152.0,1920.0 5133.0,1916.0 5131.0,1914.0 C 5124.0,1908.0 5090.0,1964.0 5090.0,1981.0 C 5090.0,2001.0 5121.0,2030.0 5143.0,2030.0 C 5152.0,2030.0 5160.0,2023.0 5160.0,2015.0 C 5160.0,1992.0 5173.0,1997.0 5209.0,2034.0 C 5239.0,2065.0 5241.0,2072.0 5235.0,2108.0 C 5229.0,2143.0 5231.0,2150.0 5250.0,2160.0 C 5265.0,2168.0 5276.0,2168.0 5282.0,2162.0 C 5288.0,2156.0 5304.0,2155.0 5322.0,2160.0 C 5348.0,2168.0 5350.0,2167.0 5344.0,2148.0 C 5332.0,2108.0 5361.0,2110.0 5416.0,2153.0 C 5472.0,2198.0 5479.0,2217.0 5438.0,2212.0 C 5407.0,2209.0 5371.0,2253.0 5393.0,2267.0 C 5405.0,2275.0 5450.0,2358.0 5450.0,2372.0 C 5450.0,2376.0 5438.0,2380.0 5423.0,2382.0 C 5400.0,2385.0 5395.0,2391.0 5388.0,2425.0 C 5384.0,2447.0 5373.0,2477.0 5365.0,2493.0 C 5350.0,2517.0 5350.0,2520.0 5364.0,2520.0 C 5389.0,2520.0 5383.0,2569.0 5355.0,2606.0 C 5329.0,2640.0 5323.0,2660.0 5339.0,2660.0 C 5344.0,2660.0 5361.0,2665.0 5375.0,2670.0 C 5397.0,2678.0 5400.0,2683.0 5390.0,2695.0 C 5382.0,2704.0 5368.0,2707.0 5349.0,2703.0 C 5327.0,2699.0 5320.0,2701.0 5320.0,2713.0 C 5320.0,2721.0 5329.0,2730.0 5340.0,2733.0 C 5367.0,2740.0 5368.0,2805.0 5342.0,2819.0 C 5318.0,2832.0 5300.0,2815.0 5300.0,2783.0 C 5300.0,2767.0 5294.0,2760.0 5280.0,2760.0 C 5269.0,2760.0 5260.0,2756.0 5260.0,2751.0 C 5260.0,2745.0 5241.0,2740.0 5218.0,2738.0 C 5178.0,2735.0 5175.0,2733.0 5172.0,2703.0 C 5169.0,2668.0 5156.0,2660.0 5146.0,2685.0 C 5140.0,2702.0 5099.0,2705.0 5084.0,2690.0 C 5078.0,2684.0 5059.0,2683.0 5035.0,2687.0 L 4997.0,2695.0 L 5025.0,2728.0 L 5053.0,2761.0 L 4999.0,2758.0 C 4951.0,2755.0 4945.0,2752.0 4942.0,2732.0 C 4939.0,2716.0 4934.0,2710.0 4923.0,2714.0 C 4915.0,2717.0 4907.0,2720.0 4906.0,2720.0 C 4904.0,2720.0 4905.0,2731.0 4907.0,2745.0 C 4911.0,2764.0 4907.0,2770.0 4886.0,2776.0 C 4867.0,2780.0 4860.0,2789.0 4860.0,2805.0 C 4860.0,2818.0 4865.0,2830.0 4871.0,2832.0 C 4877.0,2834.0 4862.0,2846.0 4839.0,2859.0 C 4800.0,2881.0 4796.0,2882.0 4785.0,2867.0 C 4778.0,2857.0 4763.0,2850.0 4751.0,2850.0 C 4735.0,2850.0 4725.0,2841.0 4717.0,2820.0 C 4708.0,2796.0 4693.0,2785.0 4638.0,2764.0 L 4571.0,2739.0 L 4535.0,2767.0 L 4500.0,2795.0 L 4531.0,2803.0 C 4551.0,2808.0 4567.0,2807.0 4576.0,2799.0 C 4587.0,2790.0 4599.0,2796.0 4638.0,2832.0 C 4664.0,2857.0 4697.0,2884.0 4712.0,2894.0 C 4745.0,2916.0 4756.0,2956.0 4735.0,2980.0 C 4714.0,3004.0 4731.0,3017.0 4805.0,3032.0 C 4851.0,3041.0 4863.0,3041.0 4870.0,3030.0 C 4876.0,3020.0 4887.0,3024.0 4916.0,3048.0 C 4937.0,3066.0 4962.0,3080.0 4971.0,3080.0 C 4980.0,3080.0 4993.0,3087.0 5000.0,3095.0 C 5016.0,3114.0 5005.0,3144.0 4985.0,3136.0 C 4942.0,3119.0 4938.0,3121.0 4968.0,3147.0 C 4992.0,3168.0 5000.0,3183.0 5000.0,3208.0 C 5000.0,3225.0 5004.0,3240.0 5009.0,3240.0 C 5021.0,3240.0 5050.0,3194.0 5050.0,3176.0 C 5050.0,3167.0 5062.0,3154.0 5077.0,3147.0 L 5104.0,3133.0 L 5082.0,3121.0 C 5070.0,3115.0 5060.0,3103.0 5060.0,3094.0 C 5060.0,3072.0 5088.0,3066.0 5109.0,3084.0 C 5131.0,3104.0 5141.0,3104.0 5185.0,3083.0 C 5228.0,3063.0 5239.0,3072.0 5218.0,3108.0 C 5192.0,3151.0 5205.0,3217.0 5241.0,3236.0 C 5261.0,3246.0 5270.0,3258.0 5270.0,3274.0 C 5270.0,3328.0 5246.0,3348.0 5230.0,3308.0 C 5224.0,3291.0 5221.0,3290.0 5221.0,3302.0 C 5220.0,3311.0 5210.0,3320.0 5198.0,3322.0 C 5185.0,3324.0 5174.0,3333.0 5172.0,3343.0 C 5169.0,3357.0 5177.0,3360.0 5224.0,3360.0 C 5284.0,3360.0 5300.0,3373.0 5300.0,3424.0 C 5300.0,3442.0 5304.0,3448.0 5315.0,3444.0 C 5325.0,3440.0 5330.0,3444.0 5330.0,3457.0 C 5330.0,3468.0 5339.0,3485.0 5350.0,3495.0 C 5375.0,3517.0 5375.0,3522.0 5350.0,3537.0 C 5322.0,3555.0 5300.0,3543.0 5300.0,3509.0 C 5300.0,3491.0 5295.0,3480.0 5287.0,3480.0 C 5279.0,3480.0 5265.0,3471.0 5255.0,3460.0 C 5245.0,3449.0 5226.0,3440.0 5213.0,3440.0 C 5200.0,3440.0 5180.0,3435.0 5169.0,3430.0 C 5140.0,3414.0 5128.0,3427.0 5146.0,3454.0 C 5155.0,3468.0 5175.0,3481.0 5196.0,3485.0 C 5230.0,3491.0 5263.0,3531.0 5247.0,3546.0 C 5235.0,3559.0 5118.0,3515.0 5103.0,3493.0 C 5085.0,3466.0 5030.0,3460.0 5030.0,3485.0 C 5030.0,3505.0 5001.0,3504.0 4979.0,3484.0 C 4959.0,3466.0 4940.0,3473.0 4940.0,3498.0 C 4939.0,3520.0 4856.0,3570.0 4822.0,3569.0 C 4807.0,3569.0 4785.0,3571.0 4774.0,3575.0 C 4757.0,3580.0 4751.0,3577.0 4747.0,3558.0 C 4743.0,3544.0 4729.0,3528.0 4715.0,3520.0 C 4701.0,3513.0 4690.0,3503.0 4690.0,3499.0 C 4690.0,3487.0 4728.0,3478.0 4750.0,3485.0 C 4761.0,3489.0 4770.0,3487.0 4770.0,3481.0 C 4770.0,3466.0 4735.0,3450.0 4700.0,3450.0 L 4670.0,3450.0 L 4686.0,3424.0 C 4701.0,3402.0 4701.0,3397.0 4689.0,3389.0 C 4664.0,3373.0 4632.0,3379.0 4625.0,3400.0 C 4613.0,3438.0 4594.0,3420.0 4581.0,3359.0 C 4570.0,3303.0 4567.0,3299.0 4553.0,3312.0 C 4540.0,3326.0 4540.0,3333.0 4559.0,3375.0 C 4584.0,3432.0 4584.0,3430.0 4563.0,3430.0 C 4553.0,3430.0 4532.0,3412.0 4516.0,3390.0 C 4498.0,3366.0 4478.0,3350.0 4465.0,3350.0 C 4454.0,3350.0 4435.0,3343.0 4424.0,3335.0 C 4406.0,3323.0 4400.0,3323.0 4382.0,3336.0 C 4352.0,3357.0 4354.0,3388.0 4385.0,3396.0 C 4398.0,3399.0 4412.0,3411.0 4415.0,3421.0 C 4419.0,3431.0 4432.0,3443.0 4446.0,3446.0 C 4464.0,3451.0 4470.0,3459.0 4470.0,3479.0 C 4469.0,3504.0 4469.0,3504.0 4455.0,3486.0 C 4447.0,3475.0 4435.0,3470.0 4425.0,3474.0 C 4415.0,3478.0 4402.0,3472.0 4392.0,3461.0 C 4380.0,3448.0 4344.0,3437.0 4280.0,3425.0 C 4149.0,3400.0 4147.0,3400.0 4127.0,3343.0 C 4117.0,3315.0 4095.0,3280.0 4078.0,3264.0 L 4047.0,3235.0 L 4055.0,3270.0 C 4059.0,3289.0 4064.0,3339.0 4065.0,3380.0 C 4068.0,3446.0 4071.0,3457.0 4094.0,3475.0 C 4109.0,3487.0 4120.0,3506.0 4120.0,3520.0 C 4120.0,3575.0 4130.0,3588.0 4176.0,3595.0 C 4213.0,3600.0 4220.0,3605.0 4220.0,3623.0 C 4220.0,3647.0 4161.0,3700.0 4135.0,3700.0 C 4124.0,3700.0 4120.0,3707.0 4122.0,3723.0 C 4124.0,3741.0 4130.0,3744.0 4155.0,3742.0 C 4183.0,3739.0 4184.0,3740.0 4168.0,3756.0 C 4153.0,3771.0 4145.0,3772.0 4113.0,3762.0 C 4082.0,3753.0 4072.0,3753.0 4052.0,3766.0 C 4030.0,3780.0 4027.0,3780.0 4010.0,3765.0 C 3996.0,3752.0 3976.0,3750.0 3916.0,3753.0 C 3874.0,3755.0 3834.0,3762.0 3828.0,3768.0 C 3821.0,3775.0 3808.0,3780.0 3799.0,3780.0 C 3789.0,3780.0 3777.0,3793.0 3771.0,3812.0 C 3752.0,3865.0 3733.0,3880.0 3697.0,3869.0 C 3679.0,3864.0 3664.0,3860.0 3662.0,3860.0 C 3652.0,3860.0 3630.0,3936.0 3630.0,3970.0 C 3630.0,4006.0 3627.0,4010.0 3605.0,4010.0 C 3588.0,4010.0 3576.0,4019.0 3565.0,4040.0 C 3551.0,4067.0 3551.0,4070.0 3570.0,4080.0 C 3581.0,4086.0 3590.0,4097.0 3590.0,4106.0 C 3590.0,4114.0 3598.0,4123.0 3608.0,4127.0 C 3637.0,4137.0 3710.0,4201.0 3710.0,4216.0 C 3710.0,4225.0 3721.0,4230.0 3740.0,4230.0 C 3770.0,4230.0 3771.0,4231.0 3764.0,4268.0 C 3755.0,4316.0 3753.0,4320.0 3730.0,4320.0 C 3720.0,4320.0 3708.0,4325.0 3705.0,4330.0 C 3702.0,4336.0 3706.0,4340.0 3716.0,4340.0 C 3728.0,4340.0 3731.0,4346.0 3726.0,4363.0 C 3723.0,4375.0 3720.0,4393.0 3720.0,4403.0 C 3720.0,4413.0 3712.0,4420.0 3700.0,4420.0 C 3688.0,4420.0 3680.0,4413.0 3680.0,4404.0 C 3680.0,4391.0 3673.0,4389.0 3646.0,4393.0 C 3601.0,4400.0 3595.0,4392.0 3625.0,4364.0 C 3639.0,4351.0 3650.0,4333.0 3650.0,4323.0 C 3649.0,4312.0 3610.0,4276.0 3547.0,4230.0 C 3491.0,4189.0 3424.0,4136.0 3397.0,4113.0 C 3371.0,4089.0 3346.0,4070.0 3342.0,4070.0 C 3338.0,4070.0 3328.0,4065.0 3320.0,4060.0 C 3307.0,4052.0 3308.0,4049.0 3325.0,4037.0 C 3340.0,4026.0 3348.0,4025.0 3363.0,4034.0 C 3378.0,4043.0 3385.0,4041.0 3401.0,4021.0 C 3416.0,4003.0 3420.0,3982.0 3420.0,3920.0 C 3420.0,3877.0 3416.0,3830.0 3410.0,3816.0 C 3398.0,3784.0 3364.0,3781.0 3355.0,3811.0 C 3349.0,3830.0 3347.0,3830.0 3331.0,3816.0 C 3321.0,3807.0 3306.0,3800.0 3298.0,3800.0 C 3289.0,3800.0 3277.0,3793.0 3270.0,3785.0 C 3263.0,3776.0 3241.0,3770.0 3218.0,3770.0 C 3182.0,3770.0 3180.0,3771.0 3190.0,3791.0 C 3197.0,3802.0 3217.0,3818.0 3235.0,3826.0 C 3282.0,3845.0 3285.0,3857.0 3249.0,3875.0 L 3218.0,3892.0 L 3176.0,3851.0 C 3144.0,3820.0 3126.0,3810.0 3101.0,3810.0 C 3083.0,3810.0 3061.0,3803.0 3053.0,3794.0 C 3034.0,3776.0 3027.0,3784.0 3015.0,3837.0 C 3009.0,3865.0 3014.0,3876.0 3046.0,3915.0 L 3083.0,3961.0 L 3052.0,3993.0 C 3028.0,4018.0 3020.0,4035.0 3020.0,4063.0 C 3020.0,4094.0 3017.0,4100.0 2999.0,4100.0 C 2970.0,4100.0 2870.0,4043.0 2843.0,4011.0 C 2825.0,3991.0 2821.0,3989.0 2820.0,4002.0 C 2820.0,4011.0 2825.0,4022.0 2830.0,4025.0 C 2848.0,4036.0 2841.0,4050.0 2819.0,4047.0 C 2801.0,4045.0 2794.0,4054.0 2779.0,4097.0 L 2761.0,4150.0 L 2802.0,4185.0 C 2834.0,4212.0 2853.0,4220.0 2882.0,4220.0 C 2923.0,4220.0 2941.0,4240.0 2921.0,4263.0 C 2907.0,4281.0 2926.0,4300.0 2957.0,4300.0 C 2971.0,4300.0 2980.0,4306.0 2980.0,4315.0 C 2980.0,4323.0 2971.0,4330.0 2960.0,4330.0 C 2931.0,4330.0 2922.0,4360.0 2945.0,4376.0 C 2961.0,4388.0 2967.0,4388.0 2984.0,4375.0 C 3036.0,4337.0 3046.0,4336.0 3084.0,4365.0 C 3117.0,4390.0 3120.0,4397.0 3120.0,4444.0 C 3120.0,4495.0 3120.0,4495.0 3071.0,4523.0 C 3044.0,4538.0 3008.0,4550.0 2992.0,4550.0 C 2975.0,4550.0 2958.0,4555.0 2955.0,4560.0 C 2952.0,4566.0 2938.0,4570.0 2925.0,4570.0 C 2910.0,4570.0 2893.0,4581.0 2880.0,4600.0 C 2868.0,4617.0 2843.0,4637.0 2825.0,4644.0 C 2784.0,4661.0 2774.0,4690.0 2794.0,4729.0 C 2812.0,4763.0 2803.0,4774.0 2766.0,4764.0 C 2744.0,4759.0 2741.0,4762.0 2732.0,4802.0 C 2726.0,4831.0 2726.0,4851.0 2734.0,4865.0 C 2740.0,4876.0 2744.0,4898.0 2742.0,4914.0 C 2738.0,4942.0 2738.0,4942.0 2686.0,4936.0 L 2634.0,4929.0 L 2576.0,4995.0 C 2520.0,5059.0 2500.0,5099.0 2500.0,5151.0 C 2500.0,5165.0 2491.0,5185.0 2480.0,5195.0 C 2462.0,5211.0 2456.0,5212.0 2348.0,5195.0 C 2286.0,5186.0 2225.0,5174.0 2212.0,5169.0 C 2199.0,5164.0 2179.0,5160.0 2166.0,5160.0 C 2154.0,5160.0 2122.0,5153.0 2096.0,5144.0 C 2050.0,5128.0 2048.0,5128.0 1979.0,5156.0 C 1932.0,5175.0 1905.0,5192.0 1900.0,5206.0 C 1894.0,5220.0 1879.0,5230.0 1855.0,5234.0 C 1835.0,5238.0 1804.0,5250.0 1787.0,5261.0 C 1749.0,5284.0 1746.0,5284.0 1730.0,5265.0 M 3254.0,1314.0 C 3258.0,1304.0 3255.0,1300.0 3248.0,1302.0 C 3233.0,1307.0 3225.0,1330.0 3238.0,1330.0 C 3243.0,1330.0 3251.0,1323.0 3254.0,1314.0" fill="pink"/>
	<path d="M 3464.0,4974.0 C 3460.0,4953.0 3446.0,4927.0 3432.0,4915.0 C 3410.0,4896.0 3408.0,4890.0 3418.0,4862.0 C 3426.0,4837.0 3426.0,4829.0 3413.0,4819.0 C 3405.0,4812.0 3394.0,4794.0 3388.0,4781.0 C 3380.0,4759.0 3383.0,4752.0 3407.0,4733.0 C 3443.0,4704.0 3451.0,4704.0 3484.0,4735.0 C 3522.0,4770.0 3535.0,4766.0 3555.0,4718.0 L 3573.0,4675.0 L 3580.0,4706.0 C 3590.0,4750.0 3594.0,4755.0 3639.0,4770.0 C 3662.0,4777.0 3687.0,4791.0 3696.0,4802.0 C 3707.0,4813.0 3727.0,4820.0 3752.0,4820.0 C 3773.0,4820.0 3790.0,4823.0 3790.0,4828.0 C 3790.0,4832.0 3780.0,4853.0 3767.0,4875.0 C 3746.0,4912.0 3741.0,4915.0 3695.0,4918.0 C 3658.0,4920.0 3641.0,4927.0 3628.0,4943.0 L 3612.0,4964.0 L 3593.0,4941.0 C 3568.0,4910.0 3543.0,4918.0 3503.0,4971.0 L 3471.0,5012.0 L 3464.0,4974.0" fill="pink"/>
	<path d="M 3321.0,4645.0 C 3323.0,4564.0 3332.0,4535.0 3358.0,4532.0 C 3376.0,4529.0 3380.0,4533.0 3380.0,4557.0 C 3380.0,4573.0 3387.0,4596.0 3396.0,4608.0 C 3410.0,4629.0 3410.0,4630.0 3386.0,4630.0 C 3372.0,4630.0 3360.0,4633.0 3360.0,4638.0 C 3360.0,4642.0 3351.0,4656.0 3340.0,4670.0 L 3320.0,4695.0 L 3321.0,4645.0" fill="pink"/>
	<path d="M 4256.0,4296.0 C 4253.0,4282.0 4237.0,4262.0 4221.0,4251.0 C 4201.0,4236.0 4191.0,4219.0 4186.0,4190.0 C 4180.0,4154.0 4177.0,4150.0 4150.0,4150.0 C 4130.0,4150.0 4120.0,4145.0 4120.0,4135.0 C 4120.0,4114.0 4093.0,4105.0 4076.0,4119.0 C 4065.0,4129.0 4053.0,4121.0 4019.0,4080.0 L 3977.0,4030.0 L 3910.0,4030.0 C 3862.0,4030.0 3839.0,4026.0 3830.0,4015.0 C 3814.0,3995.0 3790.0,3996.0 3790.0,4016.0 C 3790.0,4026.0 3783.0,4030.0 3768.0,4028.0 C 3748.0,4025.0 3745.0,4019.0 3744.0,3980.0 C 3743.0,3955.0 3740.0,3925.0 3735.0,3913.0 C 3730.0,3897.0 3732.0,3890.0 3741.0,3890.0 C 3748.0,3890.0 3762.0,3882.0 3772.0,3873.0 C 3790.0,3857.0 3796.0,3859.0 3883.0,3903.0 C 3952.0,3937.0 3991.0,3951.0 4039.0,3956.0 C 4075.0,3959.0 4110.0,3969.0 4117.0,3976.0 C 4129.0,3988.0 4135.0,3987.0 4155.0,3974.0 C 4185.0,3954.0 4199.0,3973.0 4174.0,4001.0 C 4159.0,4018.0 4159.0,4020.0 4173.0,4020.0 C 4182.0,4020.0 4192.0,4016.0 4195.0,4010.0 C 4207.0,3991.0 4218.0,4000.0 4224.0,4035.0 C 4229.0,4062.0 4237.0,4071.0 4258.0,4076.0 C 4273.0,4080.0 4296.0,4091.0 4309.0,4102.0 C 4322.0,4112.0 4342.0,4120.0 4354.0,4120.0 C 4404.0,4121.0 4429.0,4169.0 4401.0,4209.0 C 4385.0,4231.0 4375.0,4236.0 4350.0,4232.0 C 4310.0,4226.0 4290.0,4245.0 4290.0,4286.0 C 4290.0,4326.0 4265.0,4333.0 4256.0,4296.0" fill="pink"/>
</svg>
