<?xml version="1.0" ?>
<svg xmlns="http://www.w3.org/2000/svg" xmlns:ev="http://www.w3.org/2001/xml-events" xmlns:xlink="http://www.w3.org/1999/xlink" baseProfile="full" height="356px" version="1.1" viewBox="-1030.2205000000001 1480.8376494589788 12299.441 7277.528144717422" width="600px">
	<defs/>
	<path d="M 10035.0,8123.0 C 10025.0,8108.0 10016.0,8084.0 10016.0,8070.0 C 10015.0,8054.0 10008.0,8044.0 9995.0,8042.0 C 9984.0,8040.0 9963.0,8027.0 9949.0,8013.0 C 9926.0,7992.0 9921.0,7976.0 9915.0,7914.0 L 9908.0,7840.0 L 9871.0,7840.0 C 9840.0,7840.0 9831.0,7835.0 9822.0,7815.0 C 9815.0,7801.0 9802.0,7790.0 9791.0,7790.0 C 9780.0,7790.0 9769.0,7786.0 9765.0,7781.0 C 9762.0,7776.0 9745.0,7768.0 9727.0,7764.0 C 9692.0,7757.0 9598.0,7696.0 9538.0,7642.0 C 9498.0,7606.0 9485.0,7555.0 9514.0,7544.0 C 9526.0,7539.0 9527.0,7533.0 9518.0,7514.0 C 9503.0,7482.0 9455.0,7474.0 9357.0,7489.0 C 9306.0,7497.0 9238.0,7499.0 9163.0,7494.0 L 9048.0,7487.0 L 8954.0,7414.0 C 8874.0,7351.0 8854.0,7340.0 8821.0,7340.0 C 8800.0,7340.0 8777.0,7334.0 8771.0,7326.0 C 8764.0,7318.0 8729.0,7302.0 8692.0,7290.0 C 8656.0,7278.0 8612.0,7256.0 8595.0,7241.0 C 8578.0,7226.0 8537.0,7203.0 8505.0,7190.0 C 8453.0,7169.0 8443.0,7168.0 8401.0,7179.0 C 8337.0,7195.0 8301.0,7239.0 8310.0,7289.0 C 8314.0,7309.0 8323.0,7337.0 8330.0,7353.0 C 8348.0,7391.0 8333.0,7405.0 8294.0,7385.0 C 8275.0,7375.0 8252.0,7372.0 8224.0,7376.0 C 8179.0,7382.0 8058.0,7351.0 8030.0,7325.0 C 8009.0,7306.0 7952.0,7283.0 7893.0,7270.0 C 7798.0,7249.0 7770.0,7239.0 7770.0,7227.0 C 7770.0,7213.0 7642.0,7142.0 7560.0,7110.0 C 7530.0,7098.0 7484.0,7075.0 7459.0,7059.0 C 7433.0,7043.0 7400.0,7030.0 7381.0,7030.0 C 7344.0,7030.0 7290.0,7066.0 7290.0,7091.0 C 7290.0,7101.0 7272.0,7130.0 7250.0,7155.0 C 7228.0,7180.0 7210.0,7211.0 7210.0,7224.0 C 7210.0,7256.0 7198.0,7264.0 7186.0,7241.0 C 7180.0,7230.0 7135.0,7188.0 7086.0,7146.0 C 6979.0,7054.0 6865.0,6997.0 6735.0,6970.0 C 6686.0,6960.0 6605.0,6935.0 6555.0,6915.0 C 6492.0,6889.0 6434.0,6874.0 6363.0,6865.0 L 6261.0,6852.0 L 6171.0,6771.0 C 6088.0,6697.0 6077.0,6690.0 6038.0,6690.0 C 5983.0,6690.0 5844.0,6632.0 5766.0,6577.0 C 5722.0,6546.0 5704.0,6526.0 5698.0,6503.0 C 5692.0,6479.0 5684.0,6470.0 5669.0,6470.0 C 5647.0,6470.0 5574.0,6436.0 5548.0,6413.0 C 5539.0,6405.0 5508.0,6386.0 5478.0,6371.0 C 5433.0,6348.0 5425.0,6339.0 5422.0,6313.0 C 5419.0,6283.0 5417.0,6282.0 5348.0,6272.0 C 5308.0,6266.0 5265.0,6253.0 5251.0,6242.0 C 5229.0,6226.0 5226.0,6217.0 5229.0,6177.0 C 5232.0,6123.0 5215.0,6108.0 5179.0,6134.0 C 5146.0,6157.0 5123.0,6138.0 5104.0,6074.0 C 5084.0,6003.0 5031.0,5960.0 4963.0,5960.0 C 4940.0,5960.0 4920.0,5956.0 4920.0,5951.0 C 4920.0,5946.0 4909.0,5928.0 4895.0,5912.0 L 4870.0,5882.0 L 4911.0,5856.0 C 4933.0,5841.0 4987.0,5795.0 5029.0,5754.0 L 5107.0,5680.0 L 5108.0,5604.0 C 5108.0,5554.0 5114.0,5521.0 5124.0,5505.0 C 5144.0,5475.0 5144.0,5454.0 5125.0,5446.0 C 5103.0,5438.0 5107.0,5422.0 5140.0,5383.0 C 5167.0,5352.0 5170.0,5343.0 5170.0,5279.0 C 5170.0,5210.0 5169.0,5209.0 5119.0,5145.0 C 5075.0,5091.0 5044.0,5067.0 4919.0,4989.0 C 4837.0,4939.0 4770.0,4892.0 4770.0,4884.0 C 4770.0,4864.0 4733.0,4845.0 4669.0,4831.0 C 4638.0,4825.0 4598.0,4808.0 4579.0,4795.0 C 4559.0,4779.0 4533.0,4770.0 4511.0,4770.0 C 4491.0,4770.0 4451.0,4759.0 4422.0,4745.0 C 4344.0,4709.0 4273.0,4690.0 4215.0,4690.0 C 4136.0,4690.0 4050.0,4635.0 3899.0,4489.0 L 3775.0,4369.0 L 3886.0,4373.0 L 3998.0,4377.0 L 4009.0,4340.0 C 4035.0,4253.0 4005.0,4047.0 3961.0,4013.0 C 3856.0,3932.0 3815.0,3923.0 3655.0,3952.0 C 3523.0,3976.0 3435.0,3972.0 3340.0,3936.0 C 3304.0,3923.0 3239.0,3907.0 3195.0,3900.0 C 3135.0,3891.0 3088.0,3876.0 3010.0,3838.0 C 2890.0,3780.0 2888.0,3780.0 2616.0,3805.0 L 2465.0,3819.0 L 2434.0,3789.0 L 2403.0,3759.0 L 2259.0,3762.0 L 2115.0,3764.0 L 2040.0,3726.0 C 1999.0,3705.0 1939.0,3670.0 1908.0,3648.0 C 1851.0,3610.0 1850.0,3609.0 1850.0,3561.0 C 1850.0,3524.0 1840.0,3494.0 1809.0,3434.0 C 1774.0,3366.0 1751.0,3339.0 1647.0,3241.0 L 1525.0,3128.0 L 1444.0,3133.0 C 1387.0,3136.0 1356.0,3134.0 1339.0,3124.0 C 1326.0,3117.0 1305.0,3111.0 1293.0,3110.0 C 1275.0,3110.0 1268.0,3101.0 1259.0,3066.0 C 1249.0,3026.0 1237.0,3012.0 1142.0,2936.0 C 1083.0,2889.0 1028.0,2850.0 1019.0,2850.0 C 994.0,2850.0 920.0,2796.0 855.0,2731.0 C 801.0,2676.0 792.0,2670.0 754.0,2670.0 C 724.0,2670.0 706.0,2676.0 689.0,2694.0 C 668.0,2715.0 659.0,2717.0 624.0,2711.0 C 602.0,2707.0 559.0,2690.0 530.0,2674.0 C 475.0,2645.0 475.0,2645.0 470.0,2590.0 C 464.0,2521.0 449.0,2500.0 383.0,2466.0 C 345.0,2447.0 330.0,2434.0 330.0,2419.0 C 330.0,2388.0 312.0,2362.0 280.0,2345.0 C 263.0,2336.0 239.0,2312.0 225.0,2290.0 C 205.0,2259.0 194.0,2250.0 171.0,2250.0 C 136.0,2250.0 80.0,2231.0 80.0,2219.0 C 80.0,2215.0 62.0,2185.0 39.0,2153.0 L -1.0,2095.0 L 69.0,2092.0 C 114.0,2090.0 156.0,2095.0 185.0,2105.0 C 210.0,2113.0 245.0,2120.0 262.0,2120.0 C 293.0,2120.0 336.0,2146.0 395.0,2201.0 C 438.0,2241.0 511.0,2251.0 536.0,2221.0 C 562.0,2191.0 577.0,2195.0 595.0,2234.0 C 618.0,2282.0 683.0,2323.0 750.0,2331.0 C 800.0,2337.0 811.0,2334.0 871.0,2302.0 C 918.0,2277.0 942.0,2256.0 956.0,2231.0 C 974.0,2198.0 979.0,2195.0 1028.0,2192.0 C 1065.0,2190.0 1080.0,2185.0 1080.0,2174.0 C 1080.0,2151.0 1130.0,2157.0 1167.0,2186.0 C 1189.0,2203.0 1200.0,2219.0 1200.0,2238.0 C 1201.0,2258.0 1217.0,2279.0 1265.0,2322.0 C 1336.0,2385.0 1381.0,2399.0 1461.0,2383.0 L 1505.0,2374.0 L 1501.0,2289.0 C 1498.0,2206.0 1499.0,2204.0 1523.0,2193.0 C 1548.0,2181.0 1549.0,2182.0 1564.0,2234.0 C 1598.0,2350.0 1625.0,2391.0 1742.0,2506.0 C 1804.0,2567.0 1865.0,2623.0 1878.0,2629.0 C 1897.0,2639.0 1921.0,2639.0 1992.0,2629.0 L 2083.0,2617.0 L 2113.0,2573.0 C 2130.0,2549.0 2149.0,2531.0 2155.0,2533.0 C 2160.0,2536.0 2191.0,2546.0 2222.0,2556.0 C 2274.0,2572.0 2280.0,2577.0 2286.0,2607.0 C 2292.0,2638.0 2295.0,2640.0 2331.0,2640.0 C 2363.0,2640.0 2372.0,2644.0 2379.0,2664.0 C 2389.0,2687.0 2501.0,2765.0 2597.0,2814.0 C 2632.0,2831.0 2665.0,2860.0 2697.0,2900.0 C 2740.0,2953.0 2752.0,2963.0 2810.0,2981.0 C 2857.0,2997.0 2910.0,3004.0 3002.0,3007.0 L 3129.0,3012.0 L 3245.0,2949.0 L 3360.0,2887.0 L 3360.0,2842.0 C 3360.0,2809.0 3367.0,2788.0 3385.0,2764.0 C 3415.0,2724.0 3417.0,2675.0 3390.0,2640.0 C 3366.0,2610.0 3365.0,2573.0 3386.0,2549.0 C 3401.0,2533.0 3407.0,2534.0 3496.0,2577.0 C 3589.0,2622.0 3592.0,2623.0 3697.0,2624.0 L 3803.0,2625.0 L 3846.0,2670.0 C 3888.0,2714.0 3889.0,2715.0 3964.0,2718.0 C 4040.0,2722.0 4040.0,2722.0 4080.0,2686.0 C 4102.0,2666.0 4126.0,2650.0 4133.0,2650.0 C 4153.0,2650.0 4180.0,2683.0 4180.0,2707.0 C 4180.0,2719.0 4186.0,2730.0 4194.0,2733.0 C 4202.0,2736.0 4210.0,2749.0 4212.0,2762.0 C 4215.0,2783.0 4222.0,2786.0 4292.0,2792.0 C 4379.0,2800.0 4430.0,2821.0 4430.0,2849.0 C 4430.0,2862.0 4440.0,2871.0 4461.0,2875.0 C 4478.0,2879.0 4494.0,2888.0 4496.0,2895.0 C 4500.0,2904.0 4527.0,2911.0 4568.0,2915.0 C 4658.0,2924.0 4689.0,2936.0 4683.0,2960.0 C 4679.0,2975.0 4690.0,2987.0 4727.0,3010.0 C 4782.0,3044.0 4814.0,3099.0 4826.0,3180.0 C 4834.0,3239.0 4878.0,3320.0 4907.0,3331.0 C 4949.0,3347.0 5018.0,3404.0 5033.0,3437.0 C 5042.0,3454.0 5052.0,3507.0 5056.0,3554.0 L 5063.0,3640.0 L 5105.0,3640.0 C 5143.0,3640.0 5178.0,3621.0 5165.0,3608.0 C 5158.0,3601.0 5156.0,3511.0 5163.0,3503.0 C 5184.0,3483.0 5296.0,3569.0 5317.0,3621.0 C 5335.0,3667.0 5364.0,3673.0 5395.0,3636.0 C 5411.0,3617.0 5428.0,3611.0 5481.0,3607.0 L 5547.0,3601.0 L 5572.0,3659.0 L 5598.0,3718.0 L 5708.0,3712.0 L 5818.0,3707.0 L 5863.0,3742.0 C 5895.0,3766.0 5928.0,3781.0 5969.0,3789.0 C 6028.0,3801.0 6030.0,3802.0 6040.0,3840.0 C 6045.0,3862.0 6055.0,3898.0 6060.0,3920.0 C 6069.0,3953.0 6075.0,3960.0 6095.0,3960.0 C 6132.0,3960.0 6156.0,3991.0 6164.0,4048.0 C 6170.0,4096.0 6172.0,4099.0 6213.0,4113.0 C 6254.0,4127.0 6259.0,4126.0 6330.0,4099.0 C 6396.0,4073.0 6406.0,4072.0 6420.0,4085.0 C 6431.0,4095.0 6458.0,4100.0 6497.0,4100.0 C 6547.0,4100.0 6569.0,4106.0 6625.0,4136.0 C 6662.0,4156.0 6701.0,4170.0 6711.0,4167.0 C 6757.0,4155.0 6795.0,4301.0 6750.0,4315.0 C 6725.0,4323.0 6724.0,4349.0 6748.0,4389.0 C 6769.0,4427.0 6816.0,4445.0 6854.0,4430.0 C 6897.0,4414.0 7019.0,4429.0 7031.0,4451.0 C 7037.0,4463.0 7052.0,4470.0 7071.0,4470.0 C 7093.0,4470.0 7130.0,4489.0 7195.0,4535.0 C 7280.0,4594.0 7293.0,4600.0 7356.0,4606.0 C 7420.0,4613.0 7429.0,4617.0 7481.0,4662.0 C 7535.0,4708.0 7539.0,4710.0 7599.0,4710.0 C 7647.0,4710.0 7673.0,4716.0 7718.0,4739.0 C 7761.0,4760.0 7782.0,4765.0 7803.0,4759.0 C 7821.0,4754.0 7840.0,4757.0 7860.0,4767.0 C 7894.0,4784.0 7896.0,4788.0 7875.0,4804.0 C 7862.0,4814.0 7862.0,4819.0 7879.0,4851.0 C 7905.0,4900.0 7897.0,4933.0 7854.0,4949.0 C 7814.0,4963.0 7813.0,4968.0 7841.0,5004.0 C 7860.0,5029.0 7861.0,5030.0 7843.0,5037.0 C 7815.0,5047.0 7810.0,5061.0 7827.0,5086.0 C 7839.0,5104.0 7848.0,5108.0 7875.0,5103.0 C 7906.0,5098.0 7911.0,5100.0 7926.0,5133.0 C 7941.0,5164.0 7948.0,5168.0 7991.0,5174.0 C 8038.0,5180.0 8040.0,5182.0 8040.0,5212.0 C 8040.0,5232.0 8049.0,5251.0 8066.0,5267.0 C 8088.0,5287.0 8091.0,5298.0 8089.0,5338.0 C 8087.0,5364.0 8090.0,5400.0 8094.0,5418.0 C 8101.0,5449.0 8104.0,5450.0 8151.0,5450.0 C 8197.0,5450.0 8201.0,5448.0 8225.0,5410.0 C 8239.0,5388.0 8257.0,5370.0 8266.0,5370.0 C 8275.0,5370.0 8304.0,5352.0 8330.0,5330.0 C 8384.0,5285.0 8400.0,5283.0 8540.0,5301.0 C 8637.0,5314.0 8675.0,5339.0 8686.0,5397.0 C 8689.0,5415.0 8702.0,5437.0 8713.0,5445.0 C 8743.0,5466.0 8809.0,5464.0 8845.0,5440.0 C 8885.0,5414.0 8927.0,5414.0 8935.0,5440.0 C 8942.0,5461.0 8988.0,5490.0 9013.0,5490.0 C 9043.0,5490.0 9041.0,5538.0 9009.0,5594.0 L 8979.0,5649.0 L 9000.0,5678.0 C 9019.0,5703.0 9031.0,5708.0 9082.0,5714.0 C 9138.0,5719.0 9144.0,5718.0 9162.0,5695.0 C 9184.0,5666.0 9212.0,5663.0 9231.0,5686.0 C 9252.0,5712.0 9254.0,5910.0 9233.0,5932.0 C 9219.0,5947.0 9219.0,5956.0 9229.0,5991.0 C 9236.0,6013.0 9243.0,6065.0 9245.0,6105.0 C 9247.0,6146.0 9251.0,6184.0 9254.0,6189.0 C 9257.0,6194.0 9277.0,6201.0 9297.0,6205.0 C 9318.0,6208.0 9351.0,6222.0 9371.0,6235.0 C 9395.0,6250.0 9411.0,6255.0 9421.0,6249.0 C 9446.0,6233.0 9450.0,6239.0 9450.0,6288.0 C 9450.0,6325.0 9454.0,6338.0 9471.0,6348.0 C 9482.0,6355.0 9498.0,6376.0 9506.0,6395.0 C 9519.0,6427.0 9518.0,6433.0 9492.0,6487.0 C 9477.0,6519.0 9457.0,6546.0 9447.0,6548.0 C 9438.0,6550.0 9416.0,6538.0 9399.0,6521.0 C 9382.0,6504.0 9366.0,6490.0 9364.0,6490.0 C 9361.0,6490.0 9331.0,6511.0 9297.0,6538.0 C 9263.0,6564.0 9224.0,6592.0 9210.0,6601.0 C 9189.0,6615.0 9185.0,6626.0 9182.0,6686.0 C 9179.0,6739.0 9183.0,6766.0 9198.0,6802.0 C 9221.0,6855.0 9246.0,6872.0 9310.0,6880.0 L 9355.0,6885.0 L 9362.0,6935.0 C 9367.0,6972.0 9376.0,6989.0 9394.0,7003.0 C 9409.0,7013.0 9420.0,7029.0 9420.0,7038.0 C 9420.0,7061.0 9467.0,7110.0 9488.0,7110.0 C 9497.0,7110.0 9520.0,7119.0 9539.0,7131.0 C 9558.0,7142.0 9599.0,7154.0 9629.0,7157.0 C 9660.0,7160.0 9692.0,7168.0 9700.0,7176.0 C 9708.0,7183.0 9727.0,7192.0 9743.0,7195.0 C 9763.0,7200.0 9770.0,7208.0 9770.0,7225.0 C 9770.0,7266.0 9788.0,7297.0 9814.0,7304.0 C 9836.0,7309.0 9839.0,7315.0 9834.0,7334.0 C 9827.0,7365.0 9852.0,7413.0 9889.0,7439.0 C 9928.0,7467.0 9956.0,7515.0 9965.0,7568.0 L 9972.0,7610.0 L 10056.0,7610.0 C 10107.0,7610.0 10140.0,7614.0 10140.0,7620.0 C 10140.0,7626.0 10151.0,7635.0 10165.0,7640.0 C 10194.0,7651.0 10199.0,7680.0 10172.0,7680.0 C 10162.0,7680.0 10144.0,7687.0 10131.0,7696.0 C 10111.0,7710.0 10109.0,7718.0 10115.0,7756.0 C 10119.0,7787.0 10118.0,7800.0 10109.0,7800.0 C 10100.0,7800.0 10099.0,7817.0 10103.0,7863.0 C 10109.0,7918.0 10114.0,7929.0 10144.0,7955.0 C 10163.0,7972.0 10182.0,7999.0 10186.0,8015.0 C 10190.0,8032.0 10204.0,8059.0 10217.0,8076.0 C 10229.0,8093.0 10240.0,8112.0 10240.0,8118.0 C 10240.0,8131.0 10236.0,8132.0 10165.0,8135.0 C 10138.0,8137.0 10101.0,8141.0 10084.0,8145.0 C 10058.0,8151.0 10051.0,8148.0 10035.0,8123.0" fill="pink"/>
</svg>
