<?xml version="1.0" ?>
<svg xmlns="http://www.w3.org/2000/svg" xmlns:ev="http://www.w3.org/2001/xml-events" xmlns:xlink="http://www.w3.org/1999/xlink" baseProfile="full" height="600px" version="1.1" viewBox="2385.235326096217 -1027.4858398779284 5471.357363094354 12296.456604900855" width="267px">
	<defs/>
	<path d="M 3893.0,10182.0 C 3841.0,10143.0 3795.0,10097.0 3755.0,10044.0 C 3699.0,9969.0 3695.0,9961.0 3685.0,9885.0 C 3675.0,9808.0 3674.0,9805.0 3647.0,9802.0 C 3614.0,9798.0 3594.0,9763.0 3555.0,9637.0 C 3529.0,9553.0 3524.0,9546.0 3473.0,9507.0 C 3443.0,9485.0 3401.0,9440.0 3379.0,9409.0 C 3357.0,9377.0 3320.0,9337.0 3295.0,9320.0 C 3240.0,9282.0 3220.0,9239.0 3220.0,9154.0 C 3220.0,9096.0 3218.0,9090.0 3190.0,9070.0 C 3170.0,9055.0 3141.0,9011.0 3105.0,8940.0 C 3065.0,8860.0 3030.0,8808.0 2971.0,8741.0 C 2927.0,8692.0 2889.0,8641.0 2885.0,8629.0 C 2877.0,8606.0 2879.0,8605.0 3115.0,8388.0 L 3155.0,8352.0 L 3127.0,8296.0 C 3104.0,8247.0 3100.0,8227.0 3100.0,8150.0 C 3100.0,8101.0 3104.0,8051.0 3109.0,8038.0 C 3114.0,8025.0 3113.0,7990.0 3107.0,7953.0 C 3098.0,7897.0 3095.0,7891.0 3071.0,7888.0 C 3049.0,7885.0 3045.0,7879.0 3042.0,7850.0 C 3040.0,7831.0 3043.0,7797.0 3048.0,7775.0 C 3055.0,7741.0 3053.0,7731.0 3033.0,7703.0 L 3009.0,7672.0 L 3052.0,7642.0 L 3096.0,7612.0 L 3090.0,7551.0 C 3084.0,7484.0 3086.0,7483.0 3139.0,7501.0 C 3163.0,7509.0 3194.0,7510.0 3255.0,7502.0 C 3330.0,7492.0 3352.0,7484.0 3478.0,7415.0 C 3556.0,7374.0 3628.0,7340.0 3640.0,7340.0 C 3661.0,7340.0 3662.0,7337.0 3655.0,7283.0 C 3651.0,7247.0 3639.0,7210.0 3623.0,7186.0 C 3598.0,7148.0 3598.0,7145.0 3610.0,7075.0 C 3622.0,7005.0 3622.0,7003.0 3596.0,6966.0 C 3575.0,6935.0 3570.0,6915.0 3570.0,6868.0 C 3570.0,6818.0 3576.0,6798.0 3606.0,6743.0 L 3643.0,6678.0 L 3620.0,6629.0 C 3598.0,6583.0 3593.0,6579.0 3517.0,6550.0 L 3437.0,6519.0 L 3348.0,6549.0 C 3300.0,6565.0 3260.0,6575.0 3260.0,6571.0 C 3260.0,6553.0 3294.0,6464.0 3303.0,6458.0 C 3309.0,6455.0 3332.0,6449.0 3355.0,6446.0 C 3393.0,6440.0 3397.0,6436.0 3413.0,6392.0 C 3435.0,6331.0 3435.0,6331.0 3398.0,6234.0 C 3369.0,6155.0 3364.0,6149.0 3313.0,6118.0 C 3263.0,6088.0 3260.0,6084.0 3260.0,6045.0 C 3260.0,6010.0 3254.0,5998.0 3220.0,5965.0 L 3180.0,5926.0 L 3180.0,5829.0 C 3180.0,5754.0 3185.0,5721.0 3200.0,5686.0 L 3219.0,5640.0 L 3278.0,5640.0 C 3333.0,5640.0 3338.0,5638.0 3377.0,5598.0 C 3411.0,5563.0 3421.0,5543.0 3431.0,5494.0 L 3443.0,5433.0 L 3385.0,5319.0 C 3351.0,5253.0 3324.0,5186.0 3320.0,5161.0 C 3315.0,5119.0 3312.0,5116.0 3273.0,5102.0 C 3249.0,5095.0 3230.0,5085.0 3230.0,5082.0 C 3230.0,5078.0 3243.0,5060.0 3258.0,5042.0 L 3285.0,5009.0 L 3274.0,4867.0 C 3267.0,4789.0 3257.0,4709.0 3251.0,4690.0 C 3236.0,4642.0 3237.0,4632.0 3259.0,4625.0 C 3269.0,4622.0 3288.0,4600.0 3301.0,4576.0 C 3324.0,4532.0 3324.0,4532.0 3307.0,4458.0 C 3297.0,4418.0 3290.0,4381.0 3290.0,4376.0 C 3290.0,4371.0 3314.0,4393.0 3344.0,4424.0 C 3374.0,4455.0 3403.0,4480.0 3408.0,4480.0 C 3416.0,4480.0 3450.0,4337.0 3450.0,4303.0 C 3450.0,4290.0 3252.0,4185.0 3243.0,4194.0 C 3240.0,4196.0 3243.0,4215.0 3250.0,4234.0 C 3261.0,4268.0 3260.0,4273.0 3230.0,4310.0 L 3198.0,4350.0 L 3173.0,4330.0 C 3159.0,4319.0 3138.0,4310.0 3126.0,4309.0 C 3115.0,4309.0 3097.0,4305.0 3087.0,4301.0 C 3070.0,4295.0 3070.0,4293.0 3090.0,4267.0 C 3121.0,4227.0 3148.0,4132.0 3151.0,4045.0 L 3154.0,3970.0 L 3108.0,3938.0 C 3053.0,3900.0 3054.0,3900.0 3044.0,3731.0 L 3038.0,3606.0 L 2959.0,3513.0 C 2915.0,3462.0 2880.0,3417.0 2880.0,3414.0 C 2880.0,3405.0 2927.0,3321.0 3013.0,3176.0 C 3088.0,3050.0 3091.0,3049.0 3105.0,3133.0 L 3111.0,3171.0 L 3143.0,3152.0 C 3161.0,3141.0 3197.0,3120.0 3223.0,3105.0 L 3271.0,3078.0 L 3268.0,2991.0 C 3265.0,2908.0 3264.0,2905.0 3240.0,2902.0 C 3222.0,2900.0 3197.0,2914.0 3153.0,2950.0 C 3119.0,2977.0 3089.0,3000.0 3086.0,3000.0 C 3076.0,3000.0 3239.0,2794.0 3284.0,2750.0 L 3330.0,2706.0 L 3330.0,2556.0 L 3330.0,2407.0 L 3294.0,2364.0 C 3264.0,2326.0 3253.0,2320.0 3220.0,2320.0 C 3181.0,2320.0 3170.0,2331.0 3170.0,2370.0 C 3170.0,2403.0 3100.0,2524.0 3052.0,2573.0 C 3026.0,2600.0 2986.0,2635.0 2962.0,2652.0 L 2920.0,2681.0 L 2879.0,2649.0 C 2839.0,2618.0 2839.0,2617.0 2857.0,2596.0 C 2868.0,2585.0 2892.0,2557.0 2911.0,2535.0 C 2959.0,2479.0 3034.0,2338.0 3058.0,2257.0 C 3081.0,2181.0 3134.0,2109.0 3280.0,1956.0 C 3362.0,1871.0 3371.0,1865.0 3525.0,1788.0 C 3613.0,1744.0 3726.0,1684.0 3775.0,1654.0 C 3825.0,1625.0 3903.0,1585.0 3950.0,1565.0 C 4032.0,1531.0 4036.0,1528.0 4063.0,1476.0 C 4090.0,1425.0 4096.0,1420.0 4153.0,1400.0 C 4187.0,1389.0 4237.0,1367.0 4263.0,1351.0 C 4308.0,1325.0 4318.0,1311.0 4391.0,1174.0 C 4435.0,1092.0 4475.0,1008.0 4481.0,987.0 C 4490.0,952.0 4488.0,946.0 4460.0,907.0 L 4429.0,865.0 L 4461.0,852.0 C 4478.0,845.0 4525.0,817.0 4566.0,789.0 C 4614.0,757.0 4649.0,740.0 4670.0,740.0 C 4738.0,740.0 4747.0,613.0 4684.0,555.0 L 4651.0,525.0 L 4671.0,493.0 C 4693.0,458.0 4685.0,419.0 4652.0,401.0 C 4641.0,395.0 4627.0,376.0 4621.0,359.0 C 4610.0,328.0 4611.0,328.0 4640.0,332.0 L 4669.0,336.0 L 4663.0,291.0 C 4660.0,266.0 4651.0,223.0 4644.0,195.0 C 4637.0,168.0 4633.0,143.0 4635.0,141.0 C 4637.0,139.0 4665.0,142.0 4696.0,148.0 C 4774.0,161.0 4838.0,145.0 4938.0,86.0 C 5053.0,19.0 5169.0,-12.0 5238.0,7.0 C 5258.0,12.0 5261.0,18.0 5256.0,40.0 C 5253.0,60.0 5257.0,73.0 5271.0,86.0 C 5291.0,104.0 5293.0,104.0 5363.0,75.0 C 5377.0,69.0 5380.0,74.0 5380.0,106.0 C 5380.0,140.0 5388.0,152.0 5451.0,216.0 L 5522.0,288.0 L 5497.0,331.0 C 5477.0,366.0 5471.0,392.0 5468.0,463.0 L 5464.0,550.0 L 5499.0,550.0 C 5522.0,550.0 5562.0,536.0 5607.0,513.0 L 5679.0,475.0 L 5714.0,509.0 C 5748.0,542.0 5750.0,548.0 5750.0,606.0 C 5750.0,663.0 5746.0,675.0 5683.0,785.0 C 5647.0,849.0 5606.0,909.0 5593.0,917.0 C 5572.0,931.0 5570.0,939.0 5575.0,969.0 C 5579.0,991.0 5573.0,1039.0 5561.0,1090.0 C 5550.0,1137.0 5543.0,1176.0 5545.0,1178.0 C 5547.0,1180.0 5570.0,1177.0 5597.0,1172.0 C 5643.0,1162.0 5646.0,1163.0 5687.0,1196.0 C 5720.0,1223.0 5732.0,1242.0 5745.0,1288.0 C 5754.0,1319.0 5763.0,1352.0 5766.0,1360.0 C 5768.0,1369.0 5792.0,1397.0 5818.0,1423.0 L 5866.0,1470.0 L 5900.0,1446.0 L 5935.0,1422.0 L 5982.0,1446.0 L 6029.0,1470.0 L 6086.0,1436.0 C 6139.0,1403.0 6145.0,1402.0 6174.0,1414.0 C 6191.0,1422.0 6252.0,1449.0 6311.0,1474.0 L 6416.0,1521.0 L 6446.0,1613.0 C 6475.0,1703.0 6475.0,1706.0 6461.0,1772.0 L 6447.0,1839.0 L 6497.0,1897.0 L 6547.0,1955.0 L 6553.0,2060.0 C 6560.0,2190.0 6572.0,2229.0 6616.0,2258.0 C 6642.0,2275.0 6650.0,2287.0 6650.0,2311.0 C 6650.0,2331.0 6661.0,2355.0 6683.0,2380.0 C 6713.0,2416.0 6716.0,2427.0 6730.0,2547.0 L 6745.0,2675.0 L 6788.0,2698.0 C 6818.0,2715.0 6840.0,2738.0 6861.0,2776.0 C 6878.0,2806.0 6896.0,2830.0 6901.0,2830.0 C 6906.0,2830.0 6944.0,2821.0 6985.0,2809.0 C 7026.0,2798.0 7079.0,2790.0 7101.0,2792.0 L 7143.0,2795.0 L 7165.0,2875.0 C 7196.0,2993.0 7257.0,3076.0 7336.0,3108.0 C 7367.0,3121.0 7367.0,3121.0 7384.0,3258.0 C 7399.0,3376.0 7400.0,3408.0 7389.0,3480.0 L 7377.0,3565.0 L 7285.0,3655.0 C 7203.0,3734.0 7191.0,3750.0 7187.0,3786.0 C 7184.0,3810.0 7188.0,3836.0 7196.0,3851.0 C 7206.0,3869.0 7209.0,3924.0 7209.0,4065.0 L 7209.0,4255.0 L 7170.0,4299.0 L 7130.0,4343.0 L 7056.0,4336.0 C 6989.0,4330.0 6978.0,4332.0 6916.0,4360.0 C 6879.0,4376.0 6846.0,4390.0 6844.0,4390.0 C 6842.0,4390.0 6823.0,4363.0 6801.0,4331.0 L 6761.0,4272.0 L 6662.0,4297.0 L 6564.0,4322.0 L 6475.0,4611.0 L 6386.0,4900.0 L 6310.0,4900.0 L 6235.0,4900.0 L 6207.0,4947.0 C 6179.0,4992.0 6179.0,4995.0 6193.0,5031.0 L 6208.0,5069.0 L 6127.0,5192.0 L 6046.0,5315.0 L 5998.0,5540.0 C 5972.0,5664.0 5951.0,5768.0 5950.0,5773.0 C 5950.0,5777.0 5965.0,5780.0 5984.0,5780.0 C 6017.0,5780.0 6017.0,5781.0 6063.0,5891.0 L 6108.0,6001.0 L 6035.0,6055.0 C 5960.0,6111.0 5950.0,6128.0 5950.0,6212.0 C 5950.0,6233.0 5941.0,6246.0 5909.0,6266.0 C 5882.0,6283.0 5862.0,6306.0 5849.0,6336.0 L 5829.0,6380.0 L 5857.0,6431.0 C 5883.0,6478.0 5893.0,6486.0 5993.0,6536.0 C 6052.0,6566.0 6100.0,6596.0 6100.0,6604.0 C 6100.0,6612.0 6077.0,6669.0 6049.0,6731.0 L 5999.0,6845.0 L 6013.0,6903.0 C 6027.0,6958.0 6027.0,6966.0 6008.0,7021.0 L 5988.0,7080.0 L 6010.0,7147.0 C 6025.0,7194.0 6045.0,7228.0 6071.0,7255.0 L 6110.0,7296.0 L 6110.0,7415.0 C 6110.0,7530.0 6112.0,7537.0 6140.0,7585.0 C 6162.0,7622.0 6170.0,7648.0 6170.0,7683.0 C 6170.0,7726.0 6175.0,7738.0 6213.0,7783.0 C 6240.0,7816.0 6255.0,7842.0 6253.0,7855.0 C 6221.0,8029.0 6183.0,8160.0 6147.0,8223.0 C 6108.0,8290.0 6107.0,8294.0 6113.0,8362.0 C 6119.0,8432.0 6119.0,8433.0 6065.0,8541.0 C 6027.0,8615.0 6010.0,8662.0 6010.0,8687.0 C 6010.0,8719.0 5998.0,8740.0 5930.0,8825.0 C 5855.0,8919.0 5846.0,8927.0 5773.0,8960.0 C 5647.0,9017.0 5592.0,9052.0 5579.0,9083.0 C 5572.0,9098.0 5562.0,9109.0 5555.0,9106.0 C 5549.0,9104.0 5519.0,9099.0 5489.0,9095.0 C 5446.0,9090.0 5420.0,9094.0 5365.0,9113.0 L 5295.0,9137.0 L 5292.0,9206.0 C 5290.0,9269.0 5287.0,9277.0 5260.0,9301.0 C 5232.0,9325.0 5231.0,9328.0 5241.0,9364.0 C 5250.0,9398.0 5248.0,9411.0 5224.0,9469.0 C 5209.0,9505.0 5172.0,9578.0 5143.0,9631.0 C 5090.0,9726.0 5090.0,9727.0 5033.0,9746.0 C 4997.0,9758.0 4953.0,9784.0 4916.0,9815.0 C 4805.0,9910.0 4816.0,9904.0 4765.0,9883.0 C 4728.0,9868.0 4715.0,9855.0 4690.0,9808.0 L 4659.0,9750.0 L 4580.0,9750.0 C 4501.0,9750.0 4501.0,9750.0 4453.0,9708.0 C 4418.0,9677.0 4380.0,9657.0 4318.0,9635.0 L 4231.0,9606.0 L 4174.0,9651.0 C 4123.0,9690.0 4112.0,9705.0 4084.0,9775.0 C 4066.0,9819.0 4049.0,9875.0 4045.0,9899.0 C 4039.0,9940.0 4041.0,9945.0 4068.0,9966.0 L 4097.0,9989.0 L 4084.0,10062.0 C 4067.0,10161.0 4058.0,10182.0 4017.0,10213.0 C 3997.0,10228.0 3979.0,10240.0 3977.0,10240.0 C 3974.0,10240.0 3936.0,10214.0 3893.0,10182.0" fill="pink"/>
</svg>
