<?xml version="1.0" ?>
<svg xmlns="http://www.w3.org/2000/svg" xmlns:ev="http://www.w3.org/2001/xml-events" xmlns:xlink="http://www.w3.org/1999/xlink" baseProfile="full" height="600px" version="1.1" viewBox="-990.9130116474764 -1029.12 12240.196012706338 12298.24" width="598px">
	<defs/>
	<path d="M 4376.0,10208.0 C 4354.0,10179.0 4353.0,10174.0 4365.0,10150.0 C 4377.0,10128.0 4376.0,10121.0 4360.0,10100.0 C 4342.0,10077.0 4343.0,10076.0 4382.0,10021.0 C 4435.0,9948.0 4435.0,9948.0 4540.0,9911.0 C 4626.0,9880.0 4630.0,9877.0 4630.0,9848.0 C 4630.0,9826.0 4626.0,9819.0 4615.0,9823.0 C 4561.0,9845.0 4367.0,9899.0 4329.0,9904.0 C 4288.0,9910.0 4199.0,9890.0 4104.0,9853.0 C 4096.0,9850.0 4090.0,9859.0 4088.0,9877.0 C 4085.0,9905.0 4084.0,9905.0 4025.0,9902.0 C 3969.0,9899.0 3963.0,9900.0 3951.0,9924.0 C 3938.0,9947.0 3933.0,9949.0 3866.0,9947.0 C 3827.0,9947.0 3786.0,9949.0 3774.0,9954.0 C 3755.0,9961.0 3753.0,9956.0 3742.0,9884.0 C 3735.0,9841.0 3724.0,9802.0 3717.0,9798.0 C 3698.0,9786.0 3680.0,9789.0 3680.0,9803.0 C 3680.0,9810.0 3674.0,9824.0 3667.0,9834.0 C 3655.0,9850.0 3651.0,9849.0 3610.0,9816.0 C 3550.0,9769.0 3530.0,9779.0 3530.0,9856.0 C 3530.0,9887.0 3526.0,9910.0 3521.0,9908.0 C 3516.0,9907.0 3488.0,9874.0 3458.0,9835.0 L 3404.0,9765.0 L 3333.0,9762.0 C 3286.0,9760.0 3239.0,9766.0 3191.0,9779.0 C 3124.0,9798.0 3112.0,9806.0 3029.0,9885.0 C 2959.0,9951.0 2933.0,9970.0 2911.0,9970.0 C 2881.0,9970.0 2870.0,9952.0 2870.0,9898.0 C 2870.0,9860.0 2857.0,9856.0 2803.0,9880.0 C 2762.0,9899.0 2744.0,9901.0 2678.0,9895.0 L 2600.0,9889.0 L 2600.0,9924.0 C 2600.0,9949.0 2593.0,9964.0 2574.0,9979.0 C 2550.0,9998.0 2546.0,9998.0 2513.0,9985.0 C 2466.0,9965.0 2447.0,9966.0 2425.0,9990.0 C 2408.0,10009.0 2406.0,10009.0 2388.0,9994.0 C 2375.0,9981.0 2370.0,9963.0 2370.0,9921.0 C 2370.0,9871.0 2366.0,9860.0 2333.0,9818.0 C 2303.0,9782.0 2290.0,9773.0 2273.0,9777.0 C 2261.0,9780.0 2209.0,9783.0 2158.0,9783.0 C 2030.0,9785.0 1835.0,9737.0 1756.0,9684.0 C 1707.0,9652.0 1698.0,9649.0 1668.0,9658.0 C 1650.0,9664.0 1564.0,9670.0 1478.0,9673.0 L 1321.0,9678.0 L 1203.0,9603.0 C 1138.0,9561.0 1063.0,9506.0 1035.0,9479.0 L 985.0,9431.0 L 872.0,9489.0 L 760.0,9547.0 L 717.0,9527.0 C 694.0,9516.0 655.0,9504.0 630.0,9500.0 C 587.0,9492.0 583.0,9494.0 521.0,9541.0 C 459.0,9589.0 456.0,9590.0 388.0,9590.0 C 331.0,9590.0 309.0,9585.0 259.0,9560.0 C 218.0,9539.0 188.0,9530.0 163.0,9532.0 C 129.0,9535.0 125.0,9532.0 77.0,9464.0 C 28.0,9394.0 28.0,9392.0 40.0,9354.0 C 47.0,9332.0 65.0,9302.0 81.0,9285.0 L 109.0,9255.0 L 95.0,9190.0 C 87.0,9154.0 84.0,9122.0 88.0,9119.0 C 92.0,9116.0 115.0,9105.0 140.0,9095.0 C 165.0,9085.0 228.0,9052.0 281.0,9023.0 C 357.0,8981.0 386.0,8970.0 422.0,8970.0 C 465.0,8970.0 473.0,8965.0 616.0,8844.0 C 698.0,8774.0 766.0,8717.0 767.0,8716.0 C 769.0,8715.0 765.0,8698.0 760.0,8680.0 C 752.0,8651.0 753.0,8643.0 772.0,8623.0 L 793.0,8601.0 L 767.0,8541.0 C 746.0,8492.0 743.0,8475.0 751.0,8448.0 C 756.0,8430.0 760.0,8395.0 760.0,8370.0 C 760.0,8328.0 764.0,8320.0 814.0,8271.0 C 862.0,8224.0 877.0,8197.0 936.0,8064.0 L 1003.0,7911.0 L 975.0,7843.0 L 948.0,7775.0 L 974.0,7755.0 C 996.0,7737.0 999.0,7729.0 994.0,7695.0 C 991.0,7673.0 971.0,7621.0 950.0,7580.0 C 929.0,7539.0 887.0,7448.0 857.0,7378.0 C 791.0,7224.0 732.0,7146.0 690.0,7155.0 C 665.0,7161.0 662.0,7158.0 656.0,7123.0 C 653.0,7102.0 650.0,7071.0 650.0,7053.0 C 650.0,7014.0 633.0,7001.0 621.0,7032.0 C 613.0,7053.0 611.0,7051.0 584.0,7002.0 C 557.0,6953.0 551.0,6948.0 497.0,6932.0 C 448.0,6918.0 433.0,6908.0 405.0,6870.0 C 384.0,6842.0 371.0,6810.0 369.0,6786.0 L 365.0,6746.0 L 411.0,6736.0 C 469.0,6722.0 521.0,6677.0 554.0,6611.0 C 581.0,6558.0 589.0,6477.0 569.0,6464.0 C 550.0,6452.0 523.0,6376.0 517.0,6312.0 C 510.0,6250.0 511.0,6247.0 569.0,6132.0 C 601.0,6068.0 625.0,6009.0 623.0,6002.0 C 620.0,5995.0 625.0,5978.0 634.0,5965.0 C 647.0,5945.0 659.0,5940.0 694.0,5940.0 C 723.0,5940.0 746.0,5933.0 764.0,5919.0 C 788.0,5900.0 790.0,5893.0 790.0,5825.0 L 790.0,5752.0 L 754.0,5762.0 C 711.0,5774.0 706.0,5770.0 715.0,5732.0 C 719.0,5710.0 736.0,5692.0 775.0,5666.0 C 828.0,5631.0 880.0,5556.0 880.0,5515.0 C 880.0,5496.0 850.0,5483.0 789.0,5475.0 C 719.0,5466.0 687.0,5428.0 682.0,5347.0 L 678.0,5284.0 L 746.0,5257.0 C 784.0,5241.0 846.0,5210.0 884.0,5188.0 C 947.0,5151.0 957.0,5148.0 1002.0,5153.0 C 1047.0,5159.0 1061.0,5155.0 1143.0,5113.0 C 1194.0,5088.0 1262.0,5048.0 1295.0,5025.0 C 1328.0,5002.0 1385.0,4966.0 1421.0,4946.0 L 1487.0,4910.0 L 1629.0,4910.0 L 1772.0,4910.0 L 1842.0,4952.0 L 1912.0,4994.0 L 2000.0,4981.0 C 2049.0,4974.0 2119.0,4961.0 2157.0,4953.0 C 2194.0,4944.0 2244.0,4936.0 2266.0,4936.0 C 2292.0,4935.0 2316.0,4928.0 2329.0,4916.0 C 2351.0,4896.0 2351.0,4896.0 2398.0,4942.0 L 2445.0,4988.0 L 2570.0,4993.0 C 2684.0,4999.0 2698.0,4998.0 2725.0,4980.0 C 2744.0,4968.0 2772.0,4960.0 2800.0,4960.0 C 2841.0,4960.0 2852.0,4954.0 2920.0,4895.0 L 2995.0,4830.0 L 3075.0,4829.0 L 3155.0,4829.0 L 3240.0,4766.0 C 3309.0,4716.0 3336.0,4687.0 3385.0,4615.0 C 3437.0,4539.0 3451.0,4524.0 3490.0,4510.0 C 3545.0,4489.0 3586.0,4434.0 3596.0,4370.0 C 3600.0,4340.0 3613.0,4313.0 3636.0,4288.0 C 3677.0,4242.0 3684.0,4227.0 3700.0,4162.0 C 3709.0,4121.0 3716.0,4110.0 3729.0,4114.0 C 3738.0,4116.0 3755.0,4121.0 3768.0,4125.0 C 3787.0,4130.0 3791.0,4127.0 3796.0,4103.0 C 3804.0,4063.0 3970.0,3947.0 4006.0,3956.0 C 4027.0,3961.0 4030.0,3959.0 4030.0,3937.0 C 4030.0,3924.0 4033.0,3898.0 4036.0,3881.0 C 4042.0,3854.0 4046.0,3850.0 4076.0,3850.0 C 4107.0,3850.0 4110.0,3847.0 4110.0,3820.0 C 4110.0,3796.0 4117.0,3785.0 4145.0,3769.0 C 4171.0,3753.0 4181.0,3740.0 4186.0,3712.0 C 4197.0,3646.0 4200.0,3640.0 4223.0,3644.0 C 4235.0,3646.0 4324.0,3662.0 4420.0,3680.0 C 4516.0,3697.0 4615.0,3716.0 4640.0,3721.0 C 4683.0,3731.0 4685.0,3730.0 4715.0,3695.0 L 4745.0,3660.0 L 4828.0,3670.0 L 4911.0,3679.0 L 4983.0,3743.0 C 5023.0,3778.0 5087.0,3832.0 5127.0,3864.0 L 5199.0,3921.0 L 5271.0,3914.0 C 5342.0,3907.0 5343.0,3907.0 5374.0,3862.0 C 5391.0,3837.0 5452.0,3754.0 5509.0,3678.0 L 5612.0,3539.0 L 5600.0,3447.0 C 5589.0,3366.0 5589.0,3339.0 5605.0,3232.0 C 5615.0,3165.0 5626.0,3110.0 5629.0,3110.0 C 5632.0,3110.0 5651.0,3106.0 5672.0,3101.0 L 5708.0,3093.0 L 5755.0,3161.0 C 5782.0,3201.0 5809.0,3230.0 5819.0,3229.0 C 5828.0,3229.0 5867.0,3217.0 5905.0,3202.0 L 5975.0,3175.0 L 6017.0,3095.0 C 6040.0,3051.0 6067.0,3010.0 6077.0,3003.0 C 6107.0,2983.0 6339.0,2900.0 6365.0,2900.0 C 6382.0,2900.0 6400.0,2883.0 6435.0,2834.0 L 6482.0,2768.0 L 6539.0,2775.0 C 6570.0,2778.0 6602.0,2783.0 6610.0,2786.0 C 6618.0,2789.0 6654.0,2828.0 6690.0,2874.0 L 6755.0,2958.0 L 6860.0,2993.0 C 6918.0,3012.0 6999.0,3038.0 7040.0,3050.0 C 7107.0,3071.0 7122.0,3080.0 7175.0,3136.0 L 7236.0,3200.0 L 7288.0,3164.0 C 7328.0,3138.0 7361.0,3125.0 7422.0,3115.0 C 7466.0,3107.0 7504.0,3099.0 7505.0,3098.0 C 7506.0,3096.0 7534.0,3059.0 7567.0,3015.0 L 7627.0,2934.0 L 7632.0,2835.0 C 7635.0,2761.0 7642.0,2721.0 7659.0,2680.0 L 7681.0,2625.0 L 7631.0,2533.0 C 7603.0,2483.0 7568.0,2410.0 7554.0,2371.0 L 7528.0,2300.0 L 7560.0,2251.0 C 7577.0,2223.0 7599.0,2199.0 7608.0,2196.0 C 7617.0,2194.0 7661.0,2184.0 7705.0,2174.0 C 7777.0,2159.0 7806.0,2144.0 7998.0,2026.0 L 8212.0,1895.0 L 8206.0,1860.0 C 8202.0,1841.0 8197.0,1738.0 8194.0,1633.0 L 8188.0,1440.0 L 8218.0,1423.0 L 8248.0,1406.0 L 8226.0,1362.0 L 8205.0,1318.0 L 8243.0,1288.0 L 8280.0,1258.0 L 8280.0,1168.0 C 8280.0,1119.0 8284.0,1071.0 8289.0,1062.0 C 8294.0,1052.0 8330.0,1029.0 8369.0,1011.0 C 8438.0,977.0 8439.0,976.0 8450.0,928.0 C 8455.0,901.0 8460.0,873.0 8460.0,866.0 C 8460.0,859.0 8476.0,831.0 8495.0,804.0 C 8525.0,762.0 8530.0,747.0 8530.0,700.0 C 8530.0,658.0 8547.0,593.0 8601.0,431.0 L 8673.0,216.0 L 8655.0,123.0 C 8646.0,72.0 8640.0,23.0 8644.0,15.0 C 8648.0,4.0 8667.0,0.0 8722.0,0.0 C 8814.0,0.0 8855.0,12.0 8894.0,49.0 C 8911.0,65.0 8936.0,81.0 8950.0,85.0 C 8964.0,89.0 9011.0,119.0 9054.0,151.0 C 9120.0,200.0 9141.0,210.0 9174.0,210.0 C 9204.0,210.0 9230.0,220.0 9278.0,252.0 L 9342.0,294.0 L 9457.0,236.0 C 9565.0,183.0 9574.0,180.0 9605.0,191.0 C 9633.0,202.0 9642.0,201.0 9665.0,186.0 C 9688.0,171.0 9705.0,169.0 9785.0,175.0 L 9877.0,182.0 L 9884.0,156.0 C 9887.0,142.0 9894.0,130.0 9899.0,130.0 C 9918.0,130.0 9943.0,173.0 9947.0,214.0 C 9952.0,254.0 9948.0,268.0 9910.0,331.0 C 9887.0,371.0 9862.0,424.0 9855.0,451.0 C 9843.0,496.0 9843.0,500.0 9866.0,521.0 C 9892.0,545.0 9896.0,570.0 9879.0,601.0 C 9871.0,617.0 9878.0,648.0 9914.0,751.0 C 9939.0,823.0 9960.0,883.0 9960.0,885.0 C 9960.0,887.0 9946.0,891.0 9930.0,895.0 C 9912.0,899.0 9894.0,912.0 9886.0,928.0 C 9873.0,952.0 9874.0,958.0 9892.0,983.0 L 9913.0,1012.0 L 9871.0,1054.0 C 9839.0,1087.0 9830.0,1103.0 9830.0,1131.0 C 9830.0,1157.0 9822.0,1174.0 9800.0,1195.0 C 9774.0,1219.0 9771.0,1229.0 9776.0,1257.0 C 9782.0,1289.0 9781.0,1290.0 9753.0,1284.0 C 9733.0,1280.0 9720.0,1283.0 9711.0,1294.0 C 9703.0,1304.0 9682.0,1310.0 9659.0,1310.0 C 9616.0,1310.0 9616.0,1310.0 9605.0,1416.0 C 9600.0,1467.0 9602.0,1479.0 9615.0,1484.0 C 9644.0,1495.0 9664.0,1490.0 9710.0,1461.0 L 9755.0,1432.0 L 9805.0,1486.0 C 9833.0,1515.0 9867.0,1542.0 9881.0,1545.0 L 9907.0,1552.0 L 9916.0,1458.0 L 9925.0,1364.0 L 10010.0,1458.0 C 10057.0,1511.0 10102.0,1556.0 10110.0,1560.0 C 10118.0,1564.0 10148.0,1578.0 10175.0,1591.0 L 10225.0,1615.0 L 10180.0,1618.0 C 10105.0,1622.0 10093.0,1628.0 10066.0,1674.0 C 10044.0,1711.0 10034.0,1719.0 10000.0,1725.0 C 9961.0,1732.0 9958.0,1735.0 9919.0,1811.0 L 9879.0,1891.0 L 9906.0,1925.0 L 9932.0,1960.0 L 9870.0,2030.0 C 9836.0,2068.0 9806.0,2100.0 9803.0,2100.0 C 9801.0,2100.0 9783.0,2089.0 9763.0,2076.0 C 9722.0,2048.0 9734.0,2042.0 9612.0,2140.0 L 9531.0,2205.0 L 9484.0,2323.0 C 9439.0,2439.0 9438.0,2442.0 9454.0,2473.0 C 9462.0,2491.0 9474.0,2524.0 9480.0,2548.0 C 9489.0,2584.0 9494.0,2590.0 9513.0,2586.0 C 9525.0,2583.0 9572.0,2578.0 9616.0,2575.0 L 9698.0,2569.0 L 9720.0,2623.0 C 9739.0,2669.0 9748.0,2679.0 9772.0,2682.0 C 9792.0,2685.0 9804.0,2682.0 9810.0,2670.0 C 9818.0,2655.0 9937.0,2614.0 9947.0,2624.0 C 9949.0,2626.0 9922.0,2661.0 9886.0,2701.0 C 9835.0,2759.0 9820.0,2782.0 9820.0,2806.0 C 9820.0,2832.0 9826.0,2840.0 9852.0,2851.0 C 9870.0,2858.0 9901.0,2879.0 9920.0,2896.0 C 9942.0,2916.0 9971.0,2930.0 9998.0,2935.0 C 10021.0,2939.0 10040.0,2943.0 10040.0,2945.0 C 10040.0,2946.0 10033.0,2963.0 10025.0,2983.0 C 10013.0,3012.0 9994.0,3027.0 9916.0,3069.0 C 9839.0,3111.0 9812.0,3120.0 9772.0,3120.0 C 9736.0,3120.0 9718.0,3115.0 9705.0,3100.0 C 9693.0,3087.0 9680.0,3083.0 9660.0,3086.0 C 9645.0,3090.0 9623.0,3087.0 9612.0,3081.0 C 9595.0,3072.0 9592.0,3074.0 9586.0,3108.0 C 9583.0,3128.0 9580.0,3162.0 9580.0,3182.0 C 9580.0,3206.0 9572.0,3228.0 9557.0,3246.0 L 9533.0,3273.0 L 9502.0,3250.0 C 9475.0,3230.0 9467.0,3228.0 9445.0,3238.0 C 9431.0,3244.0 9408.0,3268.0 9393.0,3290.0 C 9366.0,3328.0 9363.0,3330.0 9325.0,3324.0 C 9303.0,3320.0 9205.0,3278.0 9108.0,3229.0 C 8960.0,3155.0 8922.0,3140.0 8883.0,3140.0 C 8856.0,3139.0 8824.0,3133.0 8810.0,3125.0 C 8796.0,3117.0 8782.0,3111.0 8779.0,3110.0 C 8775.0,3110.0 8769.0,3143.0 8766.0,3183.0 C 8751.0,3337.0 8758.0,3324.0 8646.0,3412.0 C 8547.0,3490.0 8545.0,3491.0 8500.0,3485.0 C 8457.0,3480.0 8454.0,3481.0 8432.0,3515.0 C 8414.0,3544.0 8412.0,3554.0 8421.0,3571.0 C 8427.0,3583.0 8428.0,3595.0 8423.0,3599.0 C 8419.0,3603.0 8396.0,3621.0 8372.0,3640.0 C 8327.0,3674.0 8252.0,3777.0 8207.0,3866.0 L 8181.0,3917.0 L 7997.0,3993.0 C 7896.0,4035.0 7781.0,4077.0 7742.0,4087.0 C 7662.0,4106.0 7668.0,4096.0 7655.0,4225.0 C 7651.0,4265.0 7637.0,4307.0 7613.0,4353.0 C 7581.0,4416.0 7579.0,4423.0 7594.0,4439.0 C 7604.0,4450.0 7610.0,4475.0 7610.0,4508.0 L 7610.0,4560.0 L 7533.0,4610.0 C 7456.0,4659.0 7454.0,4660.0 7374.0,4660.0 C 7310.0,4660.0 7268.0,4668.0 7177.0,4695.0 C 7114.0,4714.0 7044.0,4730.0 7023.0,4730.0 C 6991.0,4730.0 6977.0,4737.0 6947.0,4768.0 L 6910.0,4806.0 L 6932.0,4857.0 L 6953.0,4908.0 L 7064.0,4929.0 C 7282.0,4969.0 7553.0,4961.0 7587.0,4914.0 C 7594.0,4903.0 7621.0,4874.0 7647.0,4847.0 L 7695.0,4800.0 L 7715.0,4841.0 C 7733.0,4877.0 7743.0,4885.0 7805.0,4909.0 L 7875.0,4935.0 L 7878.0,5000.0 C 7881.0,5056.0 7886.0,5071.0 7916.0,5109.0 C 7956.0,5161.0 7956.0,5165.0 7930.0,5205.0 C 7919.0,5222.0 7910.0,5240.0 7910.0,5246.0 C 7910.0,5260.0 7990.0,5303.0 8058.0,5325.0 C 8086.0,5334.0 8110.0,5342.0 8110.0,5343.0 C 8110.0,5344.0 8104.0,5368.0 8096.0,5397.0 C 8082.0,5448.0 8082.0,5449.0 8110.0,5475.0 C 8134.0,5498.0 8139.0,5513.0 8149.0,5601.0 C 8166.0,5756.0 8169.0,5748.0 8091.0,5808.0 C 8004.0,5875.0 7984.0,5924.0 8059.0,5885.0 C 8087.0,5871.0 8088.0,5871.0 8094.0,5902.0 C 8107.0,5967.0 8102.0,5979.0 8061.0,5996.0 C 8034.0,6007.0 8018.0,6021.0 8009.0,6043.0 C 8002.0,6061.0 7995.0,6076.0 7994.0,6078.0 C 7993.0,6080.0 7981.0,6075.0 7968.0,6067.0 C 7956.0,6058.0 7929.0,6049.0 7910.0,6045.0 C 7878.0,6039.0 7868.0,6043.0 7819.0,6084.0 C 7788.0,6109.0 7754.0,6130.0 7744.0,6130.0 C 7719.0,6130.0 7559.0,6197.0 7353.0,6294.0 C 7196.0,6367.0 7187.0,6370.0 7116.0,6370.0 L 7042.0,6370.0 L 6923.0,6495.0 C 6822.0,6603.0 6800.0,6632.0 6768.0,6703.0 C 6717.0,6817.0 6718.0,6816.0 6663.0,6824.0 C 6637.0,6827.0 6582.0,6842.0 6542.0,6856.0 C 6482.0,6878.0 6462.0,6891.0 6428.0,6932.0 L 6387.0,6981.0 L 6400.0,7034.0 C 6407.0,7064.0 6410.0,7103.0 6406.0,7122.0 C 6401.0,7149.0 6406.0,7167.0 6426.0,7204.0 L 6453.0,7252.0 L 6394.0,7312.0 C 6337.0,7369.0 6333.0,7371.0 6293.0,7367.0 C 6237.0,7361.0 6200.0,7396.0 6200.0,7456.0 C 6200.0,7482.0 6191.0,7509.0 6171.0,7539.0 C 6127.0,7605.0 6135.0,7638.0 6222.0,7726.0 C 6285.0,7790.0 6294.0,7804.0 6304.0,7855.0 C 6315.0,7910.0 6317.0,7913.0 6360.0,7929.0 C 6385.0,7939.0 6504.0,8019.0 6625.0,8109.0 L 6845.0,8271.0 L 6882.0,8371.0 L 6919.0,8471.0 L 6902.0,8518.0 C 6886.0,8560.0 6881.0,8565.0 6857.0,8562.0 C 6838.0,8560.0 6830.0,8564.0 6830.0,8574.0 C 6830.0,8584.0 6817.0,8591.0 6795.0,8595.0 C 6776.0,8598.0 6744.0,8602.0 6725.0,8606.0 C 6697.0,8610.0 6686.0,8618.0 6673.0,8646.0 C 6659.0,8675.0 6651.0,8680.0 6623.0,8680.0 C 6593.0,8680.0 6590.0,8683.0 6590.0,8709.0 C 6590.0,8729.0 6580.0,8747.0 6556.0,8768.0 C 6532.0,8788.0 6519.0,8811.0 6514.0,8837.0 C 6502.0,8905.0 6461.0,8930.0 6425.0,8890.0 C 6401.0,8863.0 6395.0,8864.0 6370.0,8905.0 L 6348.0,8940.0 L 6379.0,8996.0 L 6411.0,9051.0 L 6355.0,9075.0 C 6286.0,9106.0 6280.0,9106.0 6280.0,9076.0 C 6280.0,9052.0 6264.0,9040.0 6231.0,9040.0 C 6221.0,9040.0 6201.0,9031.0 6188.0,9020.0 C 6166.0,9003.0 6153.0,9001.0 6096.0,9007.0 L 6030.0,9013.0 L 5993.0,9074.0 C 5973.0,9108.0 5956.0,9136.0 5955.0,9138.0 C 5954.0,9139.0 5928.0,9131.0 5896.0,9119.0 C 5860.0,9105.0 5840.0,9091.0 5840.0,9081.0 C 5839.0,9044.0 5825.0,9037.0 5773.0,9049.0 C 5734.0,9059.0 5720.0,9068.0 5705.0,9093.0 C 5695.0,9111.0 5671.0,9142.0 5652.0,9163.0 C 5620.0,9196.0 5610.0,9200.0 5569.0,9200.0 L 5521.0,9200.0 L 5515.0,9258.0 C 5512.0,9289.0 5507.0,9332.0 5504.0,9353.0 L 5498.0,9391.0 L 5437.0,9388.0 C 5386.0,9386.0 5375.0,9382.0 5372.0,9367.0 C 5370.0,9357.0 5376.0,9340.0 5385.0,9330.0 C 5404.0,9310.0 5401.0,9278.0 5378.0,9247.0 C 5368.0,9233.0 5344.0,9227.0 5286.0,9221.0 L 5208.0,9214.0 L 5214.0,9304.0 C 5223.0,9418.0 5236.0,9438.0 5316.0,9463.0 C 5364.0,9477.0 5386.0,9479.0 5435.0,9471.0 C 5490.0,9462.0 5502.0,9464.0 5578.0,9493.0 L 5660.0,9523.0 L 5660.0,9613.0 L 5660.0,9703.0 L 5629.0,9696.0 C 5607.0,9692.0 5590.0,9696.0 5571.0,9709.0 C 5556.0,9720.0 5531.0,9730.0 5515.0,9732.0 C 5489.0,9735.0 5485.0,9740.0 5482.0,9769.0 C 5478.0,9804.0 5475.0,9808.0 5408.0,9856.0 L 5372.0,9882.0 L 5310.0,9837.0 L 5249.0,9792.0 L 5147.0,9797.0 C 5091.0,9800.0 5045.0,9803.0 5044.0,9804.0 C 5043.0,9804.0 5040.0,9819.0 5037.0,9836.0 C 5031.0,9866.0 5035.0,9871.0 5089.0,9909.0 C 5137.0,9942.0 5149.0,9956.0 5155.0,9986.0 C 5161.0,10021.0 5158.0,10026.0 5110.0,10075.0 C 5061.0,10125.0 5059.0,10129.0 5062.0,10176.0 L 5065.0,10225.0 L 5023.0,10228.0 C 4986.0,10231.0 4973.0,10225.0 4911.0,10179.0 C 4868.0,10147.0 4837.0,10115.0 4831.0,10098.0 C 4823.0,10075.0 4816.0,10070.0 4798.0,10075.0 C 4710.0,10096.0 4675.0,10098.0 4661.0,10085.0 C 4649.0,10073.0 4641.0,10076.0 4610.0,10104.0 C 4584.0,10128.0 4557.0,10140.0 4514.0,10149.0 C 4459.0,10159.0 4452.0,10164.0 4431.0,10200.0 C 4419.0,10222.0 4407.0,10240.0 4405.0,10240.0 C 4403.0,10240.0 4390.0,10226.0 4376.0,10208.0" fill="pink"/>
	<path d="M 6563.0,7604.0 C 6532.0,7580.0 6530.0,7575.0 6530.0,7517.0 C 6530.0,7464.0 6533.0,7453.0 6551.0,7442.0 C 6570.0,7430.0 6572.0,7422.0 6567.0,7380.0 C 6562.0,7337.0 6564.0,7331.0 6585.0,7320.0 C 6607.0,7308.0 6614.0,7311.0 6665.0,7351.0 C 6696.0,7375.0 6728.0,7400.0 6736.0,7406.0 C 6745.0,7413.0 6750.0,7437.0 6750.0,7474.0 C 6750.0,7521.0 6745.0,7538.0 6723.0,7567.0 C 6696.0,7603.0 6647.0,7630.0 6613.0,7630.0 C 6603.0,7630.0 6580.0,7618.0 6563.0,7604.0" fill="pink"/>
</svg>
