<?xml version="1.0" ?>
<svg xmlns="http://www.w3.org/2000/svg" xmlns:ev="http://www.w3.org/2001/xml-events" xmlns:xlink="http://www.w3.org/1999/xlink" baseProfile="full" height="600px" version="1.1" viewBox="-281.92714731430215 -1030.0277071211963 10808.938288735102 12297.137077139865" width="528px">
	<defs/>
	<path d="M 1101.0,10162.0 C 1062.0,10084.0 1059.0,10081.0 1006.0,10061.0 C 976.0,10050.0 940.0,10038.0 926.0,10034.0 C 907.0,10029.0 896.0,10014.0 878.0,9968.0 C 856.0,9911.0 854.0,9909.0 825.0,9913.0 C 809.0,9916.0 788.0,9921.0 779.0,9925.0 C 765.0,9930.0 761.0,9921.0 755.0,9873.0 C 749.0,9818.0 745.0,9811.0 682.0,9747.0 C 627.0,9691.0 617.0,9677.0 626.0,9662.0 C 632.0,9653.0 666.0,9591.0 703.0,9524.0 L 770.0,9404.0 L 746.0,9344.0 C 722.0,9285.0 722.0,9284.0 738.0,9216.0 L 754.0,9148.0 L 805.0,9154.0 C 832.0,9158.0 885.0,9163.0 923.0,9167.0 C 960.0,9170.0 990.0,9176.0 990.0,9179.0 C 991.0,9182.0 995.0,9284.0 1000.0,9405.0 L 1009.0,9625.0 L 984.0,9645.0 L 958.0,9666.0 L 1014.0,9683.0 C 1076.0,9703.0 1123.0,9750.0 1203.0,9877.0 C 1252.0,9954.0 1246.0,9950.0 1383.0,9975.0 L 1421.0,9982.0 L 1387.0,10024.0 C 1369.0,10046.0 1333.0,10094.0 1308.0,10130.0 C 1268.0,10186.0 1254.0,10198.0 1208.0,10215.0 C 1179.0,10226.0 1152.0,10236.0 1148.0,10238.0 C 1144.0,10240.0 1123.0,10205.0 1101.0,10162.0" fill="pink"/>
	<path d="M 3468.0,9105.0 C 3465.0,9102.0 3061.0,9098.0 2569.0,9096.0 C 1918.0,9094.0 1663.0,9089.0 1630.0,9081.0 C 1595.0,9071.0 1562.0,9071.0 1483.0,9081.0 L 1382.0,9093.0 L 1284.0,9040.0 C 1157.0,8971.0 992.0,8920.0 899.0,8920.0 C 861.0,8920.0 830.0,8918.0 830.0,8915.0 C 830.0,8912.0 850.0,8874.0 875.0,8831.0 C 900.0,8788.0 932.0,8719.0 945.0,8679.0 C 979.0,8580.0 1076.0,8434.0 1179.0,8328.0 L 1263.0,8241.0 L 1291.0,8118.0 C 1317.0,8002.0 1330.0,7972.0 1523.0,7575.0 L 1727.0,7155.0 L 1673.0,7030.0 C 1620.0,6907.0 1618.0,6904.0 1525.0,6815.0 L 1430.0,6725.0 L 1430.0,6655.0 L 1430.0,6584.0 L 1481.0,6535.0 C 1512.0,6504.0 1547.0,6454.0 1572.0,6405.0 C 1611.0,6328.0 1612.0,6324.0 1606.0,6253.0 C 1600.0,6186.0 1601.0,6178.0 1625.0,6140.0 C 1640.0,6117.0 1678.0,6043.0 1710.0,5977.0 C 1743.0,5910.0 1792.0,5813.0 1820.0,5762.0 C 1850.0,5706.0 1870.0,5656.0 1870.0,5637.0 C 1870.0,5609.0 1881.0,5596.0 1956.0,5535.0 C 2003.0,5497.0 2046.0,5460.0 2052.0,5453.0 C 2058.0,5445.0 2053.0,5427.0 2035.0,5395.0 C 2020.0,5370.0 2009.0,5348.0 2011.0,5346.0 C 2013.0,5345.0 2034.0,5329.0 2058.0,5311.0 L 2100.0,5278.0 L 2100.0,5182.0 C 2099.0,5128.0 2091.0,5042.0 2081.0,4990.0 C 2066.0,4909.0 2065.0,4870.0 2072.0,4720.0 L 2081.0,4545.0 L 2021.0,4419.0 C 1988.0,4349.0 1925.0,4238.0 1880.0,4172.0 L 1799.0,4051.0 L 1742.0,4040.0 C 1711.0,4034.0 1678.0,4027.0 1669.0,4024.0 C 1660.0,4022.0 1617.0,3982.0 1572.0,3936.0 L 1490.0,3852.0 L 1490.0,3779.0 L 1490.0,3705.0 L 1391.0,3616.0 C 1309.0,3543.0 1290.0,3520.0 1281.0,3486.0 C 1272.0,3451.0 1263.0,3441.0 1220.0,3417.0 L 1170.0,3390.0 L 1175.0,3302.0 C 1178.0,3254.0 1183.0,3181.0 1185.0,3139.0 L 1190.0,3063.0 L 1130.0,2971.0 L 1070.0,2880.0 L 1064.0,2717.0 L 1058.0,2555.0 L 984.0,2290.0 C 943.0,2144.0 882.0,1935.0 848.0,1825.0 L 788.0,1624.0 L 736.0,1604.0 C 705.0,1591.0 686.0,1578.0 687.0,1569.0 C 688.0,1561.0 710.0,1415.0 734.0,1244.0 L 780.0,933.0 L 764.0,736.0 C 756.0,627.0 750.0,528.0 752.0,515.0 C 755.0,492.0 758.0,493.0 847.0,550.0 C 898.0,583.0 945.0,610.0 950.0,610.0 C 956.0,610.0 991.0,590.0 1028.0,565.0 L 1096.0,520.0 L 1142.0,536.0 C 1186.0,550.0 1191.0,550.0 1227.0,532.0 L 1265.0,512.0 L 1355.0,557.0 C 1404.0,582.0 1475.0,624.0 1511.0,650.0 C 1569.0,692.0 1589.0,700.0 1684.0,721.0 C 1779.0,741.0 1800.0,742.0 1857.0,733.0 C 1916.0,722.0 1929.0,716.0 1974.0,672.0 C 2002.0,645.0 2070.0,597.0 2125.0,565.0 C 2197.0,524.0 2242.0,490.0 2287.0,442.0 L 2348.0,376.0 L 2407.0,389.0 C 2439.0,397.0 2488.0,413.0 2515.0,425.0 L 2566.0,447.0 L 4025.0,459.0 C 5272.0,470.0 5485.0,470.0 5494.0,458.0 C 5500.0,450.0 5560.0,381.0 5627.0,304.0 L 5749.0,163.0 L 5819.0,150.0 C 5889.0,137.0 5890.0,137.0 5963.0,168.0 L 6037.0,199.0 L 6166.0,165.0 C 6237.0,146.0 6315.0,130.0 6340.0,130.0 C 6380.0,130.0 6388.0,126.0 6403.0,100.0 L 6421.0,70.0 L 6474.0,110.0 L 6527.0,150.0 L 6598.0,119.0 L 6670.0,87.0 L 6747.0,103.0 L 6825.0,119.0 L 7007.0,59.0 L 7188.0,-1.0 L 7283.0,39.0 L 7378.0,78.0 L 7484.0,44.0 C 7542.0,25.0 7597.0,10.0 7607.0,10.0 C 7636.0,10.0 9023.0,230.0 9043.0,238.0 C 9058.0,244.0 9036.0,260.0 8946.0,309.0 C 8832.0,373.0 8830.0,374.0 8778.0,454.0 C 8739.0,515.0 8654.0,607.0 8428.0,835.0 L 8130.0,1135.0 L 8100.0,1225.0 L 8069.0,1315.0 L 8076.0,2528.0 L 8083.0,3740.0 L 8109.0,3740.0 C 8123.0,3740.0 8443.0,3731.0 8820.0,3720.0 C 9197.0,3709.0 9518.0,3700.0 9533.0,3700.0 C 9561.0,3700.0 9561.0,3700.0 9506.0,3763.0 L 9450.0,3825.0 L 9450.0,3903.0 L 9450.0,3982.0 L 9503.0,4043.0 C 9587.0,4142.0 9583.0,4129.0 9566.0,4206.0 C 9548.0,4290.0 9539.0,4413.0 9539.0,4585.0 C 9538.0,4715.0 9538.0,4715.0 9580.0,4820.0 L 9622.0,4925.0 L 9599.0,4970.0 C 9579.0,5009.0 9575.0,5035.0 9570.0,5155.0 L 9565.0,5295.0 L 9532.0,5233.0 C 9514.0,5198.0 9497.0,5170.0 9493.0,5170.0 C 9489.0,5170.0 9412.0,5191.0 9323.0,5216.0 L 9160.0,5263.0 L 9105.0,5221.0 C 9037.0,5169.0 9018.0,5163.0 8910.0,5156.0 C 8845.0,5151.0 8814.0,5154.0 8779.0,5167.0 C 8734.0,5183.0 8731.0,5182.0 8703.0,5162.0 L 8673.0,5141.0 L 8581.0,5165.0 C 8530.0,5179.0 8487.0,5190.0 8486.0,5190.0 C 8484.0,5190.0 8480.0,5177.0 8477.0,5162.0 C 8472.0,5137.0 8461.0,5129.0 8390.0,5102.0 C 8345.0,5084.0 8305.0,5070.0 8299.0,5070.0 C 8294.0,5070.0 8290.0,5099.0 8290.0,5135.0 C 8290.0,5171.0 8281.0,5234.0 8269.0,5276.0 C 8258.0,5317.0 8250.0,5353.0 8252.0,5355.0 C 8253.0,5356.0 8274.0,5367.0 8296.0,5378.0 L 8337.0,5399.0 L 8332.0,5495.0 C 8329.0,5551.0 8332.0,5613.0 8339.0,5648.0 C 8351.0,5704.0 8351.0,5707.0 8296.0,5876.0 L 8240.0,6048.0 L 8147.0,6133.0 L 8053.0,6219.0 L 8006.0,6343.0 L 7958.0,6467.0 L 7994.0,6538.0 C 8028.0,6605.0 8029.0,6612.0 8019.0,6652.0 C 8009.0,6690.0 8012.0,6719.0 8051.0,6906.0 L 8096.0,7116.0 L 8063.0,7280.0 C 8032.0,7437.0 8028.0,7446.0 7993.0,7482.0 L 7957.0,7519.0 L 7963.0,7605.0 C 7968.0,7679.0 7974.0,7700.0 8011.0,7771.0 L 8054.0,7853.0 L 8034.0,7949.0 L 8015.0,8045.0 L 7544.0,8042.0 L 7073.0,8039.0 L 7066.0,8117.0 C 7060.0,8187.0 7062.0,8201.0 7083.0,8250.0 C 7130.0,8357.0 7136.0,8349.0 7018.0,8343.0 C 6924.0,8338.0 6913.0,8336.0 6897.0,8314.0 L 6878.0,8290.0 L 6594.0,8290.0 C 6438.0,8290.0 6310.0,8288.0 6310.0,8285.0 C 6310.0,8283.0 6319.0,8266.0 6329.0,8249.0 L 6349.0,8217.0 L 6319.0,8176.0 L 6290.0,8134.0 L 6299.0,8030.0 L 6307.0,7925.0 L 6279.0,7883.0 C 6259.0,7854.0 6240.0,7840.0 6218.0,7835.0 C 6169.0,7824.0 6169.0,7823.0 6202.0,7769.0 L 6234.0,7719.0 L 6198.0,7652.0 C 6170.0,7600.0 6163.0,7577.0 6167.0,7551.0 L 6173.0,7517.0 L 5959.0,7523.0 C 5730.0,7530.0 5740.0,7528.0 5705.0,7584.0 C 5689.0,7610.0 5553.0,7595.0 5524.0,7563.0 C 5505.0,7542.0 5494.0,7540.0 5414.0,7540.0 C 5327.0,7540.0 5324.0,7539.0 5265.0,7500.0 L 5205.0,7460.0 L 5009.0,7460.0 L 4813.0,7460.0 L 4720.0,7618.0 C 4667.0,7706.0 4585.0,7827.0 4530.0,7895.0 C 4477.0,7961.0 4412.0,8046.0 4387.0,8085.0 L 4340.0,8155.0 L 4340.0,8253.0 L 4340.0,8351.0 L 4241.0,8541.0 L 4142.0,8730.0 L 4163.0,8811.0 L 4183.0,8892.0 L 4136.0,8932.0 C 4090.0,8971.0 4090.0,8972.0 4090.0,9034.0 L 4090.0,9097.0 L 4023.0,9103.0 C 3942.0,9111.0 3476.0,9112.0 3468.0,9105.0" fill="pink"/>
</svg>
