<?xml version="1.0" ?>
<svg xmlns="http://www.w3.org/2000/svg" xmlns:ev="http://www.w3.org/2001/xml-events" xmlns:xlink="http://www.w3.org/1999/xlink" baseProfile="full" height="530px" version="1.1" viewBox="-1026.61029562943 -303.6909398203562 12295.501104089908 10851.27393860047" width="600px">
	<defs/>
	<path d="M 4803.0,9628.0 C 4783.0,9621.0 4767.0,9607.0 4759.0,9589.0 C 4746.0,9555.0 4743.0,9554.0 4719.0,9576.0 C 4707.0,9587.0 4692.0,9590.0 4675.0,9586.0 C 4653.0,9580.0 4650.0,9574.0 4650.0,9540.0 C 4650.0,9503.0 4648.0,9500.0 4627.0,9505.0 C 4608.0,9510.0 4599.0,9504.0 4577.0,9471.0 C 4563.0,9449.0 4545.0,9411.0 4539.0,9386.0 C 4525.0,9331.0 4505.0,9326.0 4446.0,9366.0 C 4409.0,9391.0 4406.0,9392.0 4376.0,9377.0 C 4347.0,9364.0 4344.0,9358.0 4348.0,9326.0 C 4351.0,9296.0 4346.0,9282.0 4311.0,9238.0 L 4269.0,9186.0 L 4297.0,9172.0 C 4328.0,9157.0 4350.0,9132.0 4350.0,9115.0 C 4350.0,9109.0 4334.0,9096.0 4315.0,9087.0 C 4275.0,9068.0 4272.0,9060.0 4300.0,9035.0 C 4318.0,9018.0 4360.0,8923.0 4360.0,8898.0 C 4360.0,8891.0 4341.0,8905.0 4317.0,8928.0 C 4281.0,8964.0 4268.0,8970.0 4229.0,8971.0 C 4172.0,8974.0 4160.0,8966.0 4160.0,8929.0 C 4160.0,8907.0 4167.0,8897.0 4185.0,8888.0 C 4199.0,8882.0 4210.0,8874.0 4210.0,8870.0 C 4210.0,8856.0 4161.0,8830.0 4135.0,8830.0 C 4088.0,8830.0 4070.0,8813.0 4070.0,8770.0 C 4070.0,8734.0 4067.0,8729.0 4033.0,8713.0 C 4012.0,8704.0 3969.0,8696.0 3938.0,8696.0 C 3890.0,8695.0 3874.0,8690.0 3846.0,8668.0 C 3816.0,8644.0 3802.0,8640.0 3750.0,8640.0 C 3697.0,8640.0 3683.0,8635.0 3637.0,8605.0 C 3609.0,8586.0 3582.0,8570.0 3578.0,8570.0 C 3573.0,8570.0 3570.0,8583.0 3570.0,8599.0 C 3570.0,8615.0 3567.0,8642.0 3564.0,8659.0 L 3557.0,8691.0 L 3506.0,8685.0 C 3478.0,8681.0 3447.0,8676.0 3438.0,8674.0 C 3425.0,8670.0 3419.0,8677.0 3414.0,8697.0 C 3410.0,8712.0 3398.0,8737.0 3388.0,8753.0 L 3369.0,8780.0 L 3333.0,8738.0 C 3314.0,8715.0 3291.0,8679.0 3283.0,8658.0 C 3269.0,8622.0 3265.0,8620.0 3226.0,8620.0 C 3191.0,8620.0 3178.0,8626.0 3150.0,8655.0 C 3112.0,8694.0 3100.0,8688.0 3100.0,8633.0 L 3100.0,8600.0 L 3034.0,8600.0 C 2983.0,8600.0 2961.0,8595.0 2938.0,8579.0 C 2911.0,8559.0 2903.0,8558.0 2858.0,8569.0 C 2831.0,8575.0 2793.0,8580.0 2774.0,8580.0 C 2729.0,8580.0 2672.0,8538.0 2668.0,8503.0 C 2665.0,8480.0 2656.0,8473.0 2592.0,8452.0 L 2519.0,8428.0 L 2522.0,8387.0 C 2525.0,8346.0 2526.0,8345.0 2572.0,8337.0 L 2619.0,8328.0 L 2626.0,8259.0 C 2630.0,8221.0 2636.0,8190.0 2639.0,8190.0 C 2678.0,8190.0 2976.0,8127.0 2982.0,8118.0 C 3004.0,8082.0 2968.0,8026.0 2858.0,7923.0 C 2752.0,7824.0 2718.0,7808.0 2670.0,7836.0 C 2646.0,7851.0 2641.0,7863.0 2624.0,7953.0 C 2612.0,8021.0 2599.0,8062.0 2585.0,8078.0 L 2564.0,8102.0 L 2449.0,8066.0 L 2333.0,8030.0 L 2338.0,8000.0 C 2344.0,7959.0 2309.0,7922.0 2258.0,7914.0 C 2222.0,7908.0 2220.0,7906.0 2220.0,7869.0 C 2220.0,7848.0 2229.0,7807.0 2241.0,7778.0 C 2255.0,7742.0 2260.0,7713.0 2256.0,7689.0 C 2252.0,7662.0 2257.0,7638.0 2274.0,7599.0 C 2318.0,7502.0 2318.0,7497.0 2262.0,7471.0 C 2213.0,7448.0 2212.0,7446.0 2200.0,7386.0 C 2186.0,7316.0 2186.0,7226.0 2201.0,7199.0 C 2206.0,7188.0 2221.0,7180.0 2236.0,7180.0 C 2257.0,7180.0 2260.0,7183.0 2254.0,7205.0 C 2247.0,7234.0 2260.0,7237.0 2283.0,7212.0 C 2307.0,7185.0 2304.0,7170.0 2266.0,7130.0 C 2226.0,7089.0 2205.0,7012.0 2222.0,6974.0 C 2231.0,6955.0 2241.0,6950.0 2269.0,6950.0 C 2289.0,6950.0 2345.0,6935.0 2394.0,6916.0 C 2478.0,6885.0 2481.0,6883.0 2450.0,6876.0 C 2432.0,6873.0 2404.0,6870.0 2387.0,6870.0 C 2370.0,6870.0 2336.0,6863.0 2313.0,6854.0 C 2270.0,6837.0 2270.0,6837.0 2276.0,6796.0 C 2281.0,6762.0 2292.0,6746.0 2342.0,6699.0 L 2403.0,6643.0 L 2370.0,6637.0 C 2352.0,6633.0 2314.0,6630.0 2285.0,6630.0 C 2237.0,6630.0 2230.0,6627.0 2207.0,6597.0 C 2193.0,6579.0 2179.0,6543.0 2175.0,6518.0 C 2169.0,6479.0 2163.0,6470.0 2138.0,6459.0 C 2112.0,6449.0 2109.0,6443.0 2112.0,6411.0 C 2115.0,6376.0 2117.0,6375.0 2173.0,6360.0 C 2212.0,6351.0 2230.0,6341.0 2230.0,6330.0 C 2229.0,6289.0 2182.0,6267.0 2124.0,6281.0 C 2102.0,6285.0 2069.0,6290.0 2049.0,6290.0 C 2015.0,6290.0 2012.0,6287.0 2006.0,6258.0 C 1998.0,6213.0 1996.0,6025.0 2004.0,6012.0 C 2007.0,6007.0 2000.0,5936.0 1989.0,5854.0 L 1967.0,5707.0 L 1997.0,5646.0 C 2024.0,5591.0 2036.0,5579.0 2101.0,5539.0 C 2157.0,5505.0 2199.0,5488.0 2276.0,5471.0 L 2376.0,5447.0 L 2407.0,5366.0 C 2431.0,5300.0 2441.0,5284.0 2460.0,5282.0 C 2483.0,5278.0 2483.0,5278.0 2454.0,5255.0 C 2423.0,5230.0 2424.0,5238.0 2432.0,5080.0 C 2436.0,5012.0 2486.0,4930.0 2524.0,4930.0 C 2549.0,4930.0 2560.0,4913.0 2560.0,4875.0 C 2560.0,4862.0 2585.0,4788.0 2615.0,4711.0 C 2645.0,4633.0 2670.0,4557.0 2670.0,4542.0 C 2670.0,4473.0 2682.0,4439.0 2712.0,4424.0 C 2729.0,4415.0 2740.0,4406.0 2737.0,4404.0 C 2734.0,4401.0 2692.0,4406.0 2644.0,4416.0 C 2522.0,4438.0 2429.0,4493.0 2395.0,4561.0 C 2381.0,4587.0 2343.0,4639.0 2309.0,4677.0 C 2228.0,4768.0 2217.0,4795.0 2241.0,4836.0 C 2252.0,4853.0 2260.0,4879.0 2260.0,4893.0 C 2260.0,4915.0 2254.0,4921.0 2220.0,4930.0 C 2171.0,4943.0 2160.0,4959.0 2188.0,4978.0 C 2217.0,4997.0 2216.0,5012.0 2177.0,5170.0 C 2140.0,5321.0 2141.0,5318.0 1980.0,5478.0 C 1894.0,5563.0 1873.0,5575.0 1807.0,5582.0 L 1760.0,5588.0 L 1685.0,5507.0 C 1608.0,5424.0 1599.0,5407.0 1625.0,5392.0 C 1639.0,5385.0 1638.0,5381.0 1620.0,5365.0 C 1603.0,5350.0 1596.0,5349.0 1574.0,5359.0 C 1559.0,5365.0 1547.0,5369.0 1546.0,5368.0 C 1545.0,5366.0 1537.0,5348.0 1527.0,5328.0 C 1515.0,5300.0 1504.0,5290.0 1488.0,5290.0 C 1443.0,5290.0 1422.0,5278.0 1401.0,5239.0 C 1389.0,5218.0 1375.0,5200.0 1369.0,5200.0 C 1364.0,5200.0 1360.0,5186.0 1360.0,5170.0 C 1360.0,5143.0 1358.0,5140.0 1341.0,5150.0 C 1314.0,5164.0 1311.0,5163.0 1301.0,5137.0 C 1295.0,5121.0 1278.0,5111.0 1244.0,5102.0 C 1196.0,5090.0 1195.0,5088.0 1177.0,5033.0 L 1159.0,4977.0 L 1192.0,4943.0 C 1235.0,4899.0 1221.0,4901.0 1156.0,4949.0 C 1082.0,5004.0 1051.0,4992.0 1050.0,4911.0 C 1050.0,4888.0 1047.0,4888.0 1002.0,4893.0 C 976.0,4896.0 948.0,4900.0 941.0,4902.0 C 933.0,4904.0 922.0,4889.0 914.0,4866.0 L 900.0,4826.0 L 951.0,4748.0 C 980.0,4705.0 1000.0,4666.0 996.0,4663.0 C 992.0,4659.0 956.0,4689.0 916.0,4729.0 L 842.0,4803.0 L 797.0,4796.0 C 767.0,4791.0 744.0,4780.0 726.0,4761.0 C 711.0,4745.0 681.0,4725.0 660.0,4715.0 C 614.0,4694.0 603.0,4663.0 626.0,4619.0 C 646.0,4580.0 638.0,4572.0 604.0,4595.0 C 573.0,4615.0 518.0,4610.0 490.0,4585.0 C 461.0,4559.0 483.0,4505.0 536.0,4474.0 C 576.0,4451.0 578.0,4447.0 569.0,4421.0 C 556.0,4385.0 509.0,4370.0 412.0,4370.0 C 343.0,4370.0 339.0,4369.0 309.0,4335.0 C 291.0,4316.0 271.0,4300.0 263.0,4300.0 C 256.0,4300.0 250.0,4297.0 250.0,4294.0 C 250.0,4270.0 288.0,4242.0 405.0,4179.0 C 479.0,4139.0 538.0,4105.0 537.0,4104.0 C 535.0,4102.0 498.0,4110.0 455.0,4121.0 C 400.0,4135.0 346.0,4158.0 283.0,4196.0 C 163.0,4268.0 132.0,4277.0 88.0,4250.0 C 70.0,4239.0 44.0,4230.0 31.0,4230.0 C 7.0,4230.0 7.0,4229.0 14.0,4153.0 C 20.0,4080.0 23.0,4073.0 55.0,4044.0 C 94.0,4010.0 98.0,4000.0 75.0,4000.0 C 58.0,4000.0 10.0,3954.0 10.0,3938.0 C 10.0,3933.0 26.0,3920.0 45.0,3909.0 C 96.0,3878.0 102.0,3833.0 61.0,3781.0 C 42.0,3757.0 30.0,3731.0 30.0,3712.0 L 30.0,3683.0 L 119.0,3678.0 C 201.0,3673.0 212.0,3670.0 249.0,3640.0 C 277.0,3619.0 290.0,3600.0 290.0,3584.0 C 290.0,3562.0 286.0,3560.0 245.0,3560.0 C 206.0,3560.0 192.0,3566.0 144.0,3605.0 C 111.0,3632.0 79.0,3650.0 64.0,3650.0 L 38.0,3650.0 L 45.0,3556.0 C 51.0,3477.0 50.0,3459.0 35.0,3437.0 C 19.0,3412.0 19.0,3406.0 41.0,3315.0 L 64.0,3220.0 L 31.0,3186.0 C 1.0,3155.0 -1.0,3148.0 5.0,3112.0 C 9.0,3087.0 22.0,3062.0 42.0,3044.0 C 58.0,3028.0 85.0,2997.0 100.0,2975.0 C 127.0,2936.0 131.0,2934.0 224.0,2915.0 C 277.0,2905.0 320.0,2894.0 320.0,2890.0 C 320.0,2886.0 289.0,2878.0 251.0,2871.0 L 181.0,2858.0 L 187.0,2770.0 C 193.0,2684.0 192.0,2680.0 160.0,2624.0 C 135.0,2580.0 130.0,2560.0 135.0,2536.0 C 162.0,2405.0 168.0,2349.0 161.0,2265.0 C 154.0,2178.0 155.0,2172.0 185.0,2100.0 C 216.0,2026.0 217.0,2025.0 261.0,2018.0 C 294.0,2012.0 312.0,2001.0 340.0,1970.0 L 375.0,1929.0 L 425.0,1963.0 C 453.0,1982.0 511.0,2016.0 555.0,2040.0 C 648.0,2091.0 644.0,2081.0 523.0,1965.0 C 461.0,1905.0 449.0,1889.0 444.0,1852.0 L 437.0,1810.0 L 508.0,1810.0 C 587.0,1810.0 584.0,1813.0 595.0,1724.0 C 601.0,1674.0 603.0,1672.0 637.0,1668.0 C 660.0,1665.0 680.0,1670.0 694.0,1681.0 C 716.0,1699.0 718.0,1698.0 755.0,1660.0 L 794.0,1620.0 L 763.0,1620.0 C 713.0,1620.0 703.0,1613.0 707.0,1577.0 C 716.0,1503.0 717.0,1502.0 768.0,1495.0 C 870.0,1481.0 866.0,1484.0 904.0,1404.0 C 935.0,1338.0 942.0,1330.0 962.0,1334.0 C 1105.0,1366.0 1172.0,1362.0 1242.0,1318.0 C 1268.0,1302.0 1294.0,1291.0 1300.0,1295.0 C 1305.0,1298.0 1318.0,1316.0 1327.0,1333.0 C 1336.0,1351.0 1363.0,1389.0 1388.0,1418.0 L 1432.0,1470.0 L 1519.0,1471.0 L 1605.0,1471.0 L 1643.0,1523.0 C 1663.0,1551.0 1680.0,1582.0 1680.0,1591.0 C 1680.0,1601.0 1664.0,1617.0 1646.0,1628.0 C 1627.0,1640.0 1602.0,1666.0 1591.0,1688.0 L 1571.0,1727.0 L 1598.0,1870.0 L 1626.0,2012.0 L 1662.0,1972.0 C 1716.0,1912.0 1723.0,1895.0 1715.0,1835.0 C 1710.0,1794.0 1714.0,1772.0 1731.0,1729.0 C 1747.0,1690.0 1752.0,1657.0 1751.0,1610.0 C 1750.0,1552.0 1752.0,1541.0 1774.0,1521.0 C 1788.0,1508.0 1806.0,1500.0 1814.0,1503.0 C 1838.0,1513.0 2112.0,1481.0 2317.0,1446.0 C 2423.0,1428.0 2512.0,1415.0 2515.0,1418.0 C 2518.0,1421.0 2520.0,1434.0 2520.0,1447.0 C 2520.0,1478.0 2534.0,1504.0 2581.0,1561.0 C 2621.0,1609.0 2629.0,1644.0 2610.0,1680.0 C 2600.0,1698.0 2577.0,1708.0 2493.0,1730.0 C 2453.0,1740.0 2450.0,1743.0 2450.0,1774.0 C 2450.0,1806.0 2451.0,1807.0 2483.0,1801.0 C 2505.0,1797.0 2528.0,1781.0 2550.0,1757.0 C 2582.0,1720.0 2584.0,1719.0 2643.0,1722.0 L 2703.0,1725.0 L 2738.0,1808.0 C 2767.0,1879.0 2780.0,1897.0 2825.0,1933.0 C 2878.0,1975.0 2889.0,1993.0 2890.0,2040.0 C 2890.0,2057.0 2902.0,2073.0 2925.0,2090.0 C 2950.0,2108.0 2960.0,2123.0 2960.0,2144.0 C 2960.0,2162.0 2970.0,2182.0 2985.0,2196.0 C 3019.0,2227.0 3018.0,2249.0 2984.0,2242.0 C 2967.0,2239.0 2934.0,2249.0 2889.0,2270.0 C 2831.0,2298.0 2820.0,2308.0 2815.0,2334.0 C 2811.0,2351.0 2806.0,2374.0 2803.0,2384.0 C 2799.0,2399.0 2814.0,2394.0 2883.0,2356.0 C 2943.0,2324.0 2980.0,2310.0 3007.0,2310.0 C 3042.0,2310.0 3047.0,2313.0 3055.0,2343.0 C 3063.0,2367.0 3071.0,2376.0 3092.0,2378.0 C 3131.0,2383.0 3163.0,2437.0 3154.0,2485.0 C 3148.0,2516.0 3150.0,2520.0 3170.0,2520.0 C 3187.0,2520.0 3224.0,2534.0 3238.0,2545.0 C 3240.0,2547.0 3225.0,2574.0 3204.0,2605.0 L 3167.0,2661.0 L 3194.0,2782.0 C 3233.0,2953.0 3239.0,3074.0 3211.0,3166.0 C 3200.0,3205.0 3190.0,3241.0 3190.0,3246.0 C 3190.0,3250.0 3211.0,3225.0 3236.0,3190.0 C 3286.0,3122.0 3299.0,3084.0 3300.0,3005.0 C 3300.0,2967.0 3308.0,2943.0 3331.0,2907.0 L 3361.0,2858.0 L 3549.0,2862.0 L 3737.0,2865.0 L 3793.0,2907.0 C 3860.0,2958.0 3940.0,3075.0 3970.0,3166.0 C 3982.0,3200.0 3998.0,3231.0 4006.0,3234.0 C 4036.0,3245.0 4235.0,3252.0 4260.0,3242.0 C 4288.0,3231.0 4293.0,3232.0 4107.0,3211.0 C 4059.0,3205.0 4015.0,3198.0 4010.0,3195.0 C 4004.0,3191.0 4000.0,3158.0 4000.0,3121.0 C 4000.0,3077.0 3992.0,3030.0 3977.0,2984.0 C 3955.0,2919.0 3951.0,2915.0 3919.0,2910.0 C 3890.0,2906.0 3885.0,2901.0 3882.0,2874.0 C 3878.0,2830.0 3906.0,2800.0 3958.0,2793.0 C 3995.0,2788.0 4004.0,2782.0 4018.0,2754.0 C 4028.0,2733.0 4041.0,2720.0 4053.0,2720.0 C 4069.0,2720.0 4071.0,2715.0 4066.0,2694.0 C 4049.0,2626.0 4049.0,2603.0 4066.0,2519.0 C 4088.0,2409.0 4111.0,2385.0 4193.0,2389.0 L 4242.0,2391.0 L 4221.0,2361.0 C 4194.0,2323.0 4152.0,2290.0 4131.0,2290.0 C 4122.0,2290.0 4098.0,2285.0 4078.0,2279.0 C 4026.0,2265.0 4029.0,2241.0 4087.0,2194.0 C 4114.0,2174.0 4139.0,2153.0 4144.0,2149.0 C 4149.0,2145.0 4123.0,2122.0 4086.0,2099.0 C 4050.0,2077.0 4020.0,2054.0 4020.0,2048.0 C 4020.0,2043.0 4025.0,2018.0 4031.0,1994.0 C 4040.0,1960.0 4040.0,1935.0 4031.0,1897.0 C 4010.0,1799.0 4011.0,1787.0 4046.0,1777.0 C 4070.0,1770.0 4093.0,1773.0 4141.0,1788.0 C 4176.0,1799.0 4227.0,1811.0 4253.0,1815.0 C 4280.0,1819.0 4322.0,1830.0 4347.0,1841.0 C 4392.0,1860.0 4392.0,1860.0 4421.0,1839.0 C 4457.0,1814.0 4457.0,1811.0 4423.0,1799.0 C 4397.0,1791.0 4393.0,1781.0 4371.0,1688.0 C 4358.0,1632.0 4346.0,1561.0 4343.0,1531.0 C 4337.0,1461.0 4359.0,1394.0 4386.0,1397.0 C 4448.0,1404.0 4532.0,1400.0 4575.0,1389.0 L 4625.0,1375.0 L 4507.0,1369.0 C 4359.0,1362.0 4348.0,1354.0 4357.0,1268.0 L 4363.0,1210.0 L 4435.0,1210.0 C 4475.0,1210.0 4531.0,1215.0 4560.0,1220.0 C 4611.0,1230.0 4615.0,1229.0 4642.0,1203.0 C 4659.0,1187.0 4670.0,1166.0 4670.0,1149.0 C 4670.0,1114.0 4705.0,1086.0 4877.0,986.0 C 4988.0,920.0 5011.0,910.0 5029.0,919.0 C 5059.0,936.0 5073.0,932.0 5067.0,910.0 C 5062.0,892.0 5078.0,881.0 5181.0,830.0 L 5300.0,770.0 L 5300.0,730.0 C 5300.0,691.0 5301.0,690.0 5335.0,690.0 C 5363.0,690.0 5373.0,695.0 5381.0,714.0 C 5391.0,734.0 5404.0,744.0 5453.0,768.0 C 5457.0,770.0 5460.0,749.0 5460.0,721.0 C 5460.0,638.0 5471.0,624.0 5550.0,611.0 C 5617.0,600.0 5675.0,604.0 5686.0,621.0 C 5689.0,626.0 5687.0,645.0 5682.0,664.0 C 5673.0,696.0 5675.0,701.0 5709.0,734.0 L 5746.0,770.0 L 5758.0,725.0 C 5769.0,685.0 5773.0,680.0 5807.0,674.0 C 5856.0,665.0 5885.0,682.0 5933.0,750.0 C 5970.0,803.0 5973.0,805.0 6011.0,802.0 C 6041.0,799.0 6061.0,805.0 6090.0,824.0 C 6112.0,838.0 6132.0,850.0 6134.0,850.0 C 6136.0,850.0 6141.0,836.0 6145.0,820.0 C 6151.0,792.0 6154.0,790.0 6200.0,790.0 C 6240.0,790.0 6256.0,795.0 6283.0,819.0 C 6306.0,840.0 6332.0,851.0 6367.0,856.0 C 6416.0,862.0 6421.0,861.0 6464.0,826.0 L 6509.0,789.0 L 6566.0,799.0 C 6598.0,805.0 6625.0,810.0 6626.0,810.0 C 6638.0,810.0 6660.0,904.0 6660.0,955.0 L 6660.0,1020.0 L 6686.0,1010.0 C 6700.0,1004.0 6731.0,1000.0 6756.0,1000.0 C 6798.0,1000.0 6800.0,999.0 6800.0,970.0 C 6800.0,953.0 6805.0,940.0 6813.0,940.0 C 6838.0,940.0 6932.0,969.0 6954.0,984.0 C 6974.0,996.0 6989.0,997.0 7049.0,988.0 L 7121.0,977.0 L 7160.0,1009.0 C 7188.0,1031.0 7209.0,1040.0 7237.0,1040.0 C 7281.0,1040.0 7293.0,1047.0 7304.0,1075.0 C 7311.0,1093.0 7315.0,1090.0 7333.0,1053.0 C 7345.0,1029.0 7359.0,1010.0 7364.0,1010.0 C 7370.0,1010.0 7396.0,1018.0 7422.0,1028.0 C 7460.0,1042.0 7484.0,1045.0 7537.0,1039.0 C 7597.0,1032.0 7610.0,1034.0 7647.0,1055.0 C 7670.0,1068.0 7706.0,1084.0 7727.0,1090.0 C 7776.0,1106.0 7810.0,1137.0 7810.0,1167.0 C 7810.0,1190.0 7810.0,1190.0 7842.0,1174.0 C 7879.0,1155.0 7872.0,1149.0 7940.0,1258.0 C 7978.0,1317.0 7981.0,1320.0 8020.0,1320.0 C 8060.0,1320.0 8177.0,1370.0 8192.0,1394.0 C 8196.0,1400.0 8202.0,1430.0 8205.0,1460.0 C 8215.0,1543.0 8218.0,1549.0 8241.0,1521.0 C 8258.0,1501.0 8266.0,1498.0 8303.0,1504.0 C 8338.0,1510.0 8358.0,1524.0 8430.0,1594.0 L 8515.0,1677.0 L 8583.0,1671.0 C 8643.0,1665.0 8653.0,1667.0 8680.0,1688.0 C 8709.0,1711.0 8710.0,1711.0 8763.0,1694.0 C 8833.0,1672.0 8920.0,1687.0 8940.0,1725.0 C 8951.0,1746.0 8961.0,1750.0 9001.0,1750.0 C 9039.0,1750.0 9150.0,1780.0 9168.0,1796.0 C 9170.0,1797.0 9160.0,1822.0 9146.0,1850.0 C 9115.0,1912.0 9114.0,1922.0 9142.0,1980.0 C 9156.0,2010.0 9164.0,2045.0 9164.0,2084.0 L 9165.0,2143.0 L 9235.0,2167.0 C 9285.0,2183.0 9313.0,2199.0 9332.0,2222.0 C 9357.0,2253.0 9358.0,2258.0 9353.0,2341.0 L 9347.0,2428.0 L 9406.0,2435.0 C 9462.0,2442.0 9468.0,2445.0 9510.0,2495.0 C 9552.0,2545.0 9555.0,2552.0 9555.0,2606.0 L 9555.0,2665.0 L 9628.0,2685.0 C 9699.0,2704.0 9700.0,2705.0 9700.0,2737.0 L 9700.0,2770.0 L 9739.0,2744.0 C 9776.0,2720.0 9780.0,2719.0 9807.0,2733.0 C 9850.0,2756.0 9930.0,2846.0 9930.0,2871.0 C 9930.0,2884.0 9921.0,2903.0 9910.0,2915.0 C 9891.0,2936.0 9890.0,2941.0 9902.0,2996.0 C 9915.0,3054.0 9916.0,3055.0 9957.0,3065.0 C 9980.0,3071.0 10002.0,3078.0 10006.0,3082.0 C 10010.0,3086.0 10019.0,3124.0 10026.0,3167.0 C 10040.0,3244.0 10040.0,3244.0 10015.0,3270.0 L 9990.0,3296.0 L 10019.0,3338.0 C 10043.0,3370.0 10058.0,3380.0 10091.0,3387.0 C 10130.0,3395.0 10135.0,3399.0 10151.0,3445.0 C 10161.0,3473.0 10169.0,3507.0 10169.0,3521.0 C 10170.0,3538.0 10179.0,3554.0 10196.0,3565.0 C 10219.0,3580.0 10221.0,3587.0 10217.0,3623.0 C 10214.0,3646.0 10209.0,3677.0 10205.0,3692.0 C 10199.0,3716.0 10201.0,3720.0 10219.0,3720.0 C 10239.0,3720.0 10240.0,3725.0 10240.0,3810.0 C 10240.0,3893.0 10239.0,3900.0 10220.0,3900.0 C 10204.0,3900.0 10200.0,3907.0 10200.0,3933.0 C 10200.0,3952.0 10203.0,3970.0 10206.0,3973.0 C 10210.0,3977.0 10214.0,4034.0 10215.0,4100.0 L 10218.0,4220.0 L 10194.0,4220.0 C 10180.0,4220.0 10155.0,4213.0 10138.0,4204.0 L 10107.0,4188.0 L 10113.0,4258.0 C 10121.0,4335.0 10107.0,4385.0 10082.0,4375.0 C 10075.0,4372.0 10050.0,4367.0 10027.0,4363.0 L 9985.0,4357.0 L 10017.0,4393.0 C 10034.0,4412.0 10051.0,4443.0 10055.0,4460.0 C 10061.0,4489.0 10057.0,4497.0 10015.0,4540.0 C 9983.0,4572.0 9953.0,4592.0 9924.0,4600.0 L 9881.0,4612.0 L 9887.0,4671.0 L 9893.0,4730.0 L 9824.0,4731.0 C 9786.0,4732.0 9763.0,4734.0 9773.0,4737.0 C 9795.0,4743.0 9796.0,4813.0 9775.0,4850.0 C 9767.0,4864.0 9761.0,4887.0 9760.0,4902.0 C 9760.0,4919.0 9750.0,4935.0 9734.0,4947.0 L 9708.0,4966.0 L 9729.0,5005.0 C 9756.0,5055.0 9755.0,5064.0 9727.0,5079.0 C 9707.0,5089.0 9697.0,5089.0 9665.0,5076.0 C 9631.0,5062.0 9580.0,5054.0 9580.0,5064.0 C 9580.0,5066.0 9592.0,5088.0 9606.0,5114.0 C 9625.0,5148.0 9630.0,5168.0 9625.0,5189.0 C 9619.0,5216.0 9622.0,5221.0 9660.0,5240.0 C 9682.0,5251.0 9706.0,5272.0 9712.0,5285.0 C 9727.0,5319.0 9706.0,5365.0 9669.0,5380.0 C 9643.0,5391.0 9640.0,5397.0 9640.0,5441.0 C 9640.0,5498.0 9623.0,5540.0 9601.0,5540.0 C 9592.0,5539.0 9559.0,5533.0 9526.0,5525.0 L 9468.0,5511.0 L 9475.0,5573.0 C 9478.0,5607.0 9482.0,5639.0 9483.0,5645.0 C 9484.0,5650.0 9471.0,5656.0 9453.0,5658.0 C 9422.0,5661.0 9421.0,5663.0 9409.0,5733.0 C 9401.0,5783.0 9386.0,5825.0 9359.0,5872.0 C 9323.0,5933.0 9316.0,5940.0 9278.0,5947.0 L 9236.0,5955.0 L 9218.0,6040.0 C 9209.0,6087.0 9201.0,6156.0 9200.0,6193.0 C 9200.0,6288.0 9176.0,6332.0 9113.0,6356.0 C 9086.0,6366.0 9047.0,6390.0 9025.0,6410.0 C 9001.0,6432.0 8965.0,6451.0 8935.0,6459.0 C 8907.0,6467.0 8871.0,6486.0 8855.0,6501.0 C 8829.0,6526.0 8816.0,6530.0 8769.0,6530.0 C 8717.0,6530.0 8712.0,6532.0 8683.0,6568.0 C 8660.0,6596.0 8635.0,6613.0 8588.0,6630.0 C 8554.0,6642.0 8486.0,6672.0 8438.0,6696.0 C 8371.0,6730.0 8347.0,6747.0 8334.0,6772.0 C 8325.0,6790.0 8301.0,6823.0 8280.0,6845.0 C 8245.0,6883.0 8242.0,6890.0 8237.0,6963.0 C 8233.0,7017.0 8236.0,7054.0 8245.0,7081.0 C 8264.0,7133.0 8249.0,7160.0 8203.0,7160.0 C 8177.0,7160.0 8166.0,7152.0 8134.0,7109.0 L 8096.0,7057.0 L 8083.0,7102.0 C 8076.0,7127.0 8052.0,7168.0 8029.0,7193.0 C 7994.0,7234.0 7983.0,7240.0 7950.0,7240.0 L 7912.0,7240.0 L 7917.0,7279.0 C 7922.0,7314.0 7919.0,7320.0 7887.0,7344.0 C 7867.0,7360.0 7849.0,7384.0 7845.0,7400.0 C 7840.0,7421.0 7831.0,7430.0 7809.0,7435.0 C 7786.0,7440.0 7780.0,7447.0 7780.0,7468.0 C 7780.0,7483.0 7769.0,7512.0 7755.0,7533.0 C 7735.0,7561.0 7723.0,7570.0 7700.0,7570.0 C 7673.0,7570.0 7671.0,7573.0 7664.0,7618.0 C 7651.0,7705.0 7648.0,7708.0 7593.0,7699.0 C 7515.0,7686.0 7512.0,7687.0 7490.0,7730.0 C 7472.0,7766.0 7468.0,7769.0 7450.0,7758.0 C 7439.0,7751.0 7430.0,7735.0 7430.0,7722.0 C 7430.0,7694.0 7413.0,7660.0 7400.0,7660.0 C 7394.0,7660.0 7390.0,7671.0 7390.0,7684.0 C 7390.0,7732.0 7367.0,7733.0 7304.0,7688.0 C 7262.0,7658.0 7232.0,7644.0 7196.0,7640.0 C 7160.0,7635.0 7151.0,7636.0 7162.0,7644.0 C 7171.0,7650.0 7198.0,7670.0 7224.0,7687.0 C 7275.0,7723.0 7282.0,7749.0 7256.0,7811.0 C 7248.0,7830.0 7239.0,7867.0 7235.0,7893.0 C 7229.0,7935.0 7222.0,7945.0 7189.0,7965.0 C 7168.0,7979.0 7147.0,7997.0 7142.0,8007.0 C 7132.0,8023.0 7126.0,8023.0 7017.0,8005.0 C 6908.0,7988.0 6899.0,7988.0 6858.0,8004.0 C 6834.0,8013.0 6806.0,8033.0 6795.0,8047.0 C 6785.0,8062.0 6748.0,8157.0 6714.0,8258.0 C 6680.0,8358.0 6646.0,8446.0 6637.0,8453.0 C 6628.0,8460.0 6616.0,8477.0 6611.0,8492.0 C 6600.0,8522.0 6548.0,8539.0 6526.0,8521.0 C 6519.0,8515.0 6501.0,8480.0 6485.0,8443.0 C 6461.0,8384.0 6411.0,8320.0 6389.0,8320.0 C 6385.0,8320.0 6378.0,8346.0 6374.0,8377.0 C 6369.0,8421.0 6361.0,8441.0 6338.0,8464.0 C 6312.0,8490.0 6304.0,8492.0 6262.0,8487.0 C 6236.0,8483.0 6204.0,8477.0 6191.0,8474.0 C 6169.0,8467.0 6168.0,8469.0 6176.0,8501.0 C 6192.0,8562.0 6181.0,8746.0 6159.0,8802.0 C 6148.0,8830.0 6141.0,8859.0 6144.0,8866.0 C 6147.0,8873.0 6144.0,8935.0 6138.0,9005.0 C 6127.0,9124.0 6125.0,9131.0 6103.0,9136.0 C 6090.0,9140.0 6074.0,9137.0 6066.0,9131.0 C 6045.0,9113.0 6003.0,9134.0 5943.0,9191.0 C 5898.0,9233.0 5885.0,9241.0 5857.0,9238.0 C 5826.0,9235.0 5825.0,9234.0 5822.0,9183.0 C 5820.0,9154.0 5815.0,9130.0 5810.0,9130.0 C 5805.0,9130.0 5790.0,9156.0 5775.0,9187.0 C 5737.0,9271.0 5715.0,9291.0 5671.0,9284.0 C 5639.0,9279.0 5633.0,9281.0 5616.0,9310.0 C 5606.0,9328.0 5579.0,9363.0 5556.0,9389.0 C 5534.0,9416.0 5507.0,9447.0 5497.0,9459.0 C 5483.0,9477.0 5471.0,9480.0 5437.0,9478.0 C 5396.0,9475.0 5395.0,9474.0 5376.0,9420.0 C 5364.0,9386.0 5355.0,9322.0 5351.0,9250.0 C 5344.0,9120.0 5330.0,9084.0 5277.0,9053.0 C 5258.0,9042.0 5230.0,9024.0 5214.0,9015.0 C 5192.0,9001.0 5197.0,9009.0 5233.0,9047.0 C 5281.0,9097.0 5299.0,9139.0 5300.0,9203.0 C 5300.0,9220.0 5277.0,9266.0 5235.0,9328.0 C 5137.0,9475.0 5122.0,9490.0 5070.0,9496.0 C 4989.0,9505.0 4982.0,9508.0 4975.0,9539.0 C 4970.0,9561.0 4954.0,9576.0 4908.0,9604.0 C 4874.0,9624.0 4844.0,9640.0 4841.0,9639.0 C 4838.0,9638.0 4821.0,9633.0 4803.0,9628.0" fill="pink"/>
</svg>
