<?xml version="1.0" ?>
<svg xmlns="http://www.w3.org/2000/svg" xmlns:ev="http://www.w3.org/2001/xml-events" xmlns:xlink="http://www.w3.org/1999/xlink" baseProfile="full" height="600px" version="1.1" viewBox="1926.3709947188631 -1033.5220000000002 6376.328063373643 12303.044" width="311px">
	<defs/>
	<path d="M 4391.0,10161.0 C 4372.0,10094.0 4362.0,10078.0 4327.0,10048.0 C 4304.0,10029.0 4260.0,9977.0 4228.0,9933.0 L 4172.0,9852.0 L 4198.0,9815.0 L 4224.0,9779.0 L 4174.0,9627.0 L 4124.0,9475.0 L 3981.0,9400.0 C 3854.0,9333.0 3836.0,9321.0 3814.0,9281.0 C 3801.0,9258.0 3790.0,9236.0 3790.0,9234.0 C 3790.0,9232.0 3804.0,9215.0 3821.0,9195.0 C 3847.0,9165.0 3850.0,9159.0 3835.0,9154.0 C 3823.0,9149.0 3821.0,9140.0 3826.0,9117.0 C 3831.0,9092.0 3828.0,9084.0 3804.0,9065.0 L 3776.0,9043.0 L 3819.0,8939.0 L 3862.0,8836.0 L 3830.0,8807.0 C 3781.0,8763.0 3779.0,8722.0 3824.0,8662.0 C 3866.0,8604.0 3870.0,8566.0 3838.0,8549.0 C 3825.0,8542.0 3811.0,8531.0 3807.0,8524.0 C 3801.0,8514.0 3794.0,8513.0 3774.0,8522.0 C 3737.0,8539.0 3714.0,8510.0 3687.0,8408.0 C 3669.0,8340.0 3653.0,8307.0 3610.0,8249.0 C 3581.0,8208.0 3543.0,8161.0 3527.0,8143.0 C 3502.0,8116.0 3498.0,8106.0 3502.0,8068.0 C 3506.0,8032.0 3500.0,8011.0 3467.0,7945.0 L 3427.0,7865.0 L 3439.0,7783.0 C 3448.0,7721.0 3448.0,7696.0 3439.0,7676.0 C 3430.0,7656.0 3430.0,7644.0 3438.0,7625.0 C 3454.0,7591.0 3422.0,7523.0 3388.0,7518.0 C 3367.0,7515.0 3364.0,7507.0 3355.0,7429.0 C 3349.0,7381.0 3338.0,7334.0 3330.0,7324.0 C 3322.0,7313.0 3314.0,7303.0 3313.0,7301.0 C 3312.0,7299.0 3304.0,7303.0 3296.0,7309.0 C 3280.0,7322.0 3278.0,7318.0 3265.0,7252.0 C 3256.0,7206.0 3304.0,7062.0 3334.0,7050.0 L 3355.0,7041.0 L 3333.0,7035.0 L 3312.0,7028.0 L 3332.0,6982.0 C 3366.0,6902.0 3398.0,6777.0 3398.0,6724.0 C 3398.0,6662.0 3409.0,6621.0 3420.0,6640.0 C 3427.0,6651.0 3433.0,6650.0 3454.0,6636.0 C 3483.0,6617.0 3487.0,6598.0 3465.0,6580.0 C 3445.0,6564.0 3445.0,6445.0 3465.0,6410.0 C 3487.0,6372.0 3483.0,6356.0 3448.0,6337.0 C 3367.0,6292.0 3352.0,6270.0 3331.0,6170.0 C 3320.0,6118.0 3307.0,6074.0 3302.0,6072.0 C 3297.0,6071.0 3284.0,6063.0 3274.0,6055.0 C 3256.0,6040.0 3256.0,6039.0 3278.0,6021.0 C 3297.0,6005.0 3302.0,5988.0 3307.0,5922.0 C 3313.0,5835.0 3305.0,5770.0 3288.0,5770.0 C 3282.0,5770.0 3256.0,5751.0 3231.0,5727.0 C 3206.0,5703.0 3178.0,5679.0 3169.0,5674.0 C 3161.0,5669.0 3144.0,5651.0 3133.0,5634.0 C 3115.0,5608.0 3111.0,5588.0 3110.0,5499.0 C 3109.0,5442.0 3112.0,5382.0 3118.0,5365.0 C 3125.0,5341.0 3124.0,5331.0 3108.0,5314.0 C 3090.0,5294.0 3090.0,5292.0 3113.0,5229.0 C 3127.0,5194.0 3140.0,5140.0 3144.0,5110.0 C 3148.0,5080.0 3158.0,5048.0 3167.0,5038.0 C 3192.0,5011.0 3174.0,4987.0 3105.0,4956.0 L 3040.0,4927.0 L 3040.0,4868.0 C 3040.0,4795.0 3007.0,4708.0 2982.0,4717.0 C 2969.0,4723.0 2968.0,4715.0 2973.0,4659.0 C 2979.0,4603.0 2978.0,4593.0 2961.0,4580.0 C 2938.0,4563.0 2922.0,4510.0 2939.0,4510.0 C 2958.0,4510.0 2951.0,4465.0 2925.0,4416.0 C 2905.0,4378.0 2902.0,4365.0 2911.0,4343.0 C 2917.0,4325.0 2919.0,4276.0 2915.0,4210.0 C 2908.0,4113.0 2909.0,4102.0 2929.0,4068.0 C 2945.0,4041.0 2950.0,4019.0 2948.0,3983.0 C 2945.0,3935.0 2945.0,3935.0 2903.0,3926.0 C 2867.0,3919.0 2860.0,3913.0 2860.0,3893.0 C 2860.0,3880.0 2865.0,3860.0 2870.0,3850.0 C 2878.0,3835.0 2876.0,3829.0 2860.0,3820.0 C 2845.0,3812.0 2840.0,3799.0 2840.0,3765.0 C 2840.0,3710.0 2864.0,3669.0 2912.0,3639.0 C 2956.0,3612.0 2957.0,3607.0 2930.0,3580.0 C 2918.0,3568.0 2910.0,3547.0 2910.0,3527.0 C 2910.0,3497.0 2914.0,3492.0 2958.0,3474.0 L 3005.0,3454.0 L 2972.0,3435.0 C 2943.0,3418.0 2939.0,3411.0 2943.0,3385.0 C 2946.0,3369.0 2941.0,3334.0 2933.0,3308.0 C 2925.0,3282.0 2920.0,3254.0 2923.0,3246.0 C 2927.0,3237.0 2954.0,3230.0 3004.0,3225.0 C 3045.0,3222.0 3084.0,3213.0 3089.0,3206.0 C 3095.0,3199.0 3097.0,3179.0 3094.0,3161.0 C 3089.0,3136.0 3083.0,3130.0 3061.0,3130.0 C 3046.0,3130.0 3030.0,3134.0 3025.0,3139.0 C 3019.0,3143.0 2983.0,3143.0 2943.0,3137.0 C 2876.0,3127.0 2870.0,3124.0 2870.0,3103.0 C 2870.0,3082.0 2874.0,3080.0 2928.0,3080.0 L 2985.0,3079.0 L 3019.0,3030.0 C 3050.0,2984.0 3051.0,2978.0 3040.0,2950.0 C 3032.0,2931.0 3017.0,2917.0 2993.0,2909.0 C 2974.0,2903.0 2957.0,2893.0 2954.0,2886.0 C 2952.0,2880.0 2958.0,2849.0 2969.0,2817.0 L 2989.0,2759.0 L 2944.0,2737.0 L 2898.0,2715.0 L 2927.0,2704.0 C 2951.0,2694.0 2957.0,2682.0 2971.0,2624.0 L 2988.0,2555.0 L 2943.0,2535.0 L 2898.0,2516.0 L 2902.0,2465.0 C 2905.0,2438.0 2910.0,2408.0 2914.0,2399.0 C 2919.0,2387.0 2909.0,2375.0 2872.0,2352.0 C 2803.0,2307.0 2784.0,2282.0 2772.0,2218.0 C 2762.0,2167.0 2763.0,2156.0 2784.0,2104.0 L 2807.0,2048.0 L 2753.0,1961.0 C 2724.0,1914.0 2687.0,1865.0 2672.0,1853.0 C 2656.0,1839.0 2613.0,1823.0 2568.0,1813.0 L 2491.0,1797.0 L 2482.0,1756.0 C 2478.0,1733.0 2478.0,1692.0 2482.0,1663.0 C 2487.0,1629.0 2485.0,1581.0 2476.0,1523.0 L 2462.0,1436.0 L 2524.0,1372.0 L 2585.0,1308.0 L 2638.0,1314.0 C 2666.0,1317.0 2714.0,1323.0 2743.0,1326.0 C 2792.0,1332.0 2796.0,1331.0 2807.0,1308.0 C 2822.0,1276.0 2812.0,1233.0 2787.0,1215.0 C 2767.0,1201.0 2767.0,1200.0 2785.0,1180.0 C 2803.0,1160.0 2803.0,1157.0 2787.0,1097.0 L 2771.0,1035.0 L 2818.0,987.0 L 2866.0,940.0 L 3140.0,930.0 C 3394.0,921.0 3421.0,919.0 3489.0,895.0 C 3530.0,881.0 3580.0,870.0 3600.0,870.0 C 3620.0,870.0 3661.0,862.0 3691.0,851.0 C 3753.0,830.0 3840.0,815.0 3840.0,826.0 C 3840.0,830.0 3814.0,870.0 3781.0,914.0 C 3683.0,1050.0 3640.0,1153.0 3640.0,1255.0 C 3640.0,1309.0 3644.0,1324.0 3673.0,1365.0 C 3700.0,1404.0 3718.0,1418.0 3785.0,1447.0 C 3829.0,1466.0 3886.0,1490.0 3912.0,1499.0 C 3937.0,1508.0 3967.0,1526.0 3978.0,1540.0 C 4008.0,1579.0 4032.0,1663.0 4025.0,1703.0 C 4019.0,1731.0 4024.0,1748.0 4045.0,1784.0 C 4060.0,1809.0 4084.0,1840.0 4100.0,1853.0 C 4115.0,1866.0 4140.0,1896.0 4154.0,1918.0 C 4173.0,1949.0 4187.0,1960.0 4205.0,1960.0 C 4236.0,1960.0 4361.0,2023.0 4415.0,2066.0 C 4437.0,2083.0 4465.0,2100.0 4478.0,2104.0 C 4491.0,2108.0 4500.0,2119.0 4500.0,2131.0 C 4500.0,2142.0 4507.0,2153.0 4515.0,2156.0 C 4526.0,2161.0 4527.0,2166.0 4518.0,2180.0 C 4509.0,2194.0 4511.0,2213.0 4524.0,2263.0 C 4545.0,2338.0 4539.0,2382.0 4507.0,2403.0 C 4494.0,2411.0 4444.0,2421.0 4394.0,2425.0 L 4303.0,2432.0 L 4205.0,2510.0 C 4152.0,2552.0 4095.0,2607.0 4079.0,2631.0 C 4051.0,2675.0 4051.0,2676.0 4065.0,2725.0 C 4074.0,2753.0 4093.0,2793.0 4109.0,2815.0 C 4125.0,2837.0 4149.0,2878.0 4164.0,2907.0 C 4187.0,2953.0 4195.0,2960.0 4232.0,2970.0 C 4333.0,2995.0 4349.0,3001.0 4355.0,3020.0 C 4363.0,3044.0 4408.0,3054.0 4510.0,3055.0 C 4574.0,3055.0 4585.0,3058.0 4588.0,3073.0 C 4590.0,3083.0 4584.0,3100.0 4574.0,3111.0 C 4557.0,3129.0 4558.0,3131.0 4579.0,3154.0 C 4592.0,3168.0 4615.0,3184.0 4630.0,3190.0 C 4682.0,3212.0 4688.0,3255.0 4664.0,3450.0 C 4659.0,3492.0 4660.0,3496.0 4689.0,3513.0 C 4707.0,3524.0 4720.0,3539.0 4720.0,3551.0 C 4720.0,3567.0 4742.0,3581.0 4820.0,3617.0 C 4875.0,3643.0 4920.0,3666.0 4920.0,3670.0 C 4920.0,3674.0 4903.0,3682.0 4881.0,3688.0 C 4814.0,3708.0 4750.0,3740.0 4750.0,3753.0 C 4750.0,3772.0 4835.0,3810.0 4878.0,3810.0 C 4921.0,3810.0 4940.0,3796.0 4940.0,3764.0 C 4940.0,3732.0 4983.0,3720.0 5051.0,3732.0 C 5081.0,3737.0 5107.0,3743.0 5108.0,3745.0 C 5123.0,3760.0 5127.0,3828.0 5114.0,3869.0 C 5090.0,3952.0 5087.0,3954.0 5000.0,3926.0 C 4940.0,3907.0 4931.0,3902.0 4958.0,3901.0 C 4982.0,3900.0 4990.0,3896.0 4990.0,3881.0 C 4990.0,3859.0 4952.0,3849.0 4893.0,3857.0 C 4861.0,3861.0 4853.0,3866.0 4857.0,3880.0 C 4861.0,3894.0 4851.0,3900.0 4810.0,3910.0 C 4765.0,3921.0 4756.0,3927.0 4744.0,3956.0 C 4736.0,3976.0 4730.0,4024.0 4730.0,4074.0 C 4730.0,4121.0 4726.0,4169.0 4721.0,4182.0 C 4717.0,4195.0 4710.0,4232.0 4706.0,4266.0 C 4700.0,4323.0 4701.0,4327.0 4725.0,4340.0 C 4747.0,4352.0 4762.0,4350.0 4857.0,4321.0 C 4917.0,4303.0 4985.0,4274.0 5010.0,4258.0 L 5054.0,4227.0 L 5162.0,4234.0 C 5255.0,4240.0 5279.0,4246.0 5352.0,4278.0 C 5398.0,4298.0 5446.0,4322.0 5458.0,4331.0 C 5479.0,4346.0 5479.0,4348.0 5464.0,4393.0 C 5455.0,4419.0 5444.0,4442.0 5439.0,4446.0 C 5427.0,4453.0 5428.0,4517.0 5440.0,4525.0 C 5446.0,4528.0 5450.0,4545.0 5450.0,4561.0 C 5450.0,4607.0 5467.0,4633.0 5494.0,4626.0 C 5515.0,4621.0 5518.0,4625.0 5527.0,4678.0 C 5537.0,4733.0 5536.0,4737.0 5510.0,4770.0 C 5467.0,4825.0 5460.0,4845.0 5460.0,4904.0 C 5460.0,4968.0 5473.0,4976.0 5513.0,4936.0 C 5527.0,4923.0 5555.0,4907.0 5576.0,4901.0 C 5701.0,4866.0 6072.0,4917.0 6412.0,5015.0 C 6564.0,5059.0 6713.0,5145.0 6731.0,5200.0 C 6737.0,5219.0 6764.0,5260.0 6789.0,5290.0 C 6815.0,5320.0 6863.0,5381.0 6895.0,5425.0 C 6944.0,5491.0 6955.0,5514.0 6960.0,5557.0 C 6968.0,5626.0 6947.0,5700.0 6920.0,5700.0 C 6909.0,5700.0 6877.0,5712.0 6850.0,5728.0 C 6809.0,5750.0 6798.0,5762.0 6789.0,5794.0 C 6776.0,5840.0 6784.0,5893.0 6811.0,5936.0 C 6837.0,5979.0 6835.0,5988.0 6790.0,6045.0 C 6758.0,6086.0 6729.0,6107.0 6628.0,6160.0 C 6478.0,6239.0 6465.0,6256.0 6485.0,6350.0 C 6496.0,6403.0 6496.0,6412.0 6479.0,6440.0 C 6457.0,6476.0 6456.0,6491.0 6472.0,6575.0 C 6482.0,6633.0 6487.0,6641.0 6533.0,6676.0 L 6582.0,6715.0 L 6577.0,6799.0 C 6574.0,6847.0 6576.0,6893.0 6582.0,6906.0 C 6590.0,6922.0 6588.0,6939.0 6575.0,6972.0 C 6559.0,7015.0 6559.0,7019.0 6580.0,7076.0 C 6592.0,7108.0 6605.0,7152.0 6610.0,7172.0 C 6614.0,7193.0 6622.0,7215.0 6628.0,7222.0 C 6645.0,7243.0 6660.0,7408.0 6648.0,7442.0 C 6636.0,7477.0 6644.0,7491.0 6729.0,7578.0 C 6763.0,7613.0 6797.0,7657.0 6804.0,7675.0 C 6812.0,7693.0 6828.0,7714.0 6841.0,7720.0 C 6894.0,7749.0 6948.0,7811.0 6970.0,7870.0 C 6984.0,7907.0 6999.0,7932.0 7011.0,7935.0 C 7022.0,7939.0 7037.0,7956.0 7046.0,7973.0 C 7055.0,7991.0 7091.0,8032.0 7126.0,8065.0 C 7162.0,8098.0 7212.0,8157.0 7238.0,8195.0 C 7281.0,8258.0 7290.0,8267.0 7338.0,8282.0 C 7368.0,8291.0 7408.0,8314.0 7428.0,8332.0 C 7448.0,8350.0 7513.0,8390.0 7572.0,8420.0 L 7679.0,8475.0 L 7721.0,8548.0 C 7756.0,8610.0 7761.0,8628.0 7756.0,8658.0 C 7753.0,8678.0 7756.0,8709.0 7762.0,8726.0 C 7771.0,8753.0 7769.0,8772.0 7748.0,8846.0 C 7726.0,8926.0 7719.0,8938.0 7677.0,8973.0 L 7631.0,9013.0 L 7583.0,9000.0 C 7557.0,8993.0 7528.0,8986.0 7518.0,8984.0 C 7505.0,8980.0 7501.0,8960.0 7495.0,8872.0 C 7490.0,8790.0 7482.0,8752.0 7463.0,8708.0 C 7441.0,8658.0 7429.0,8646.0 7357.0,8598.0 C 7312.0,8568.0 7266.0,8539.0 7256.0,8534.0 C 7245.0,8528.0 7232.0,8510.0 7226.0,8493.0 C 7211.0,8449.0 7209.0,8448.0 7154.0,8465.0 C 7127.0,8473.0 7100.0,8480.0 7094.0,8480.0 C 7088.0,8480.0 7069.0,8460.0 7051.0,8435.0 L 7019.0,8390.0 L 6991.0,8409.0 C 6966.0,8427.0 6961.0,8428.0 6942.0,8414.0 C 6923.0,8401.0 6914.0,8402.0 6858.0,8417.0 C 6823.0,8426.0 6776.0,8446.0 6753.0,8462.0 C 6713.0,8489.0 6705.0,8490.0 6586.0,8493.0 C 6518.0,8494.0 6459.0,8498.0 6455.0,8502.0 C 6451.0,8506.0 6468.0,8535.0 6494.0,8567.0 C 6529.0,8613.0 6542.0,8640.0 6553.0,8692.0 C 6567.0,8757.0 6618.0,8862.0 6663.0,8917.0 C 6676.0,8932.0 6696.0,8961.0 6708.0,8981.0 L 6730.0,9017.0 L 6686.0,9077.0 C 6629.0,9154.0 6528.0,9219.0 6415.0,9250.0 C 6320.0,9276.0 6322.0,9274.0 6192.0,9384.0 L 6088.0,9470.0 L 6028.0,9470.0 C 5971.0,9470.0 5966.0,9472.0 5872.0,9539.0 C 5819.0,9577.0 5764.0,9620.0 5750.0,9635.0 C 5736.0,9650.0 5685.0,9692.0 5635.0,9729.0 C 5545.0,9796.0 5545.0,9797.0 5526.0,9864.0 C 5508.0,9928.0 5504.0,9934.0 5454.0,9966.0 C 5425.0,9984.0 5385.0,10020.0 5364.0,10045.0 C 5312.0,10109.0 5281.0,10120.0 5152.0,10117.0 C 5093.0,10116.0 5039.0,10118.0 5031.0,10120.0 C 5022.0,10124.0 5011.0,10105.0 4995.0,10060.0 C 4983.0,10024.0 4965.0,9980.0 4956.0,9963.0 C 4947.0,9945.0 4940.0,9910.0 4940.0,9884.0 L 4940.0,9836.0 L 4880.0,9938.0 C 4805.0,10064.0 4796.0,10070.0 4657.0,10070.0 L 4554.0,10070.0 L 4524.0,10103.0 C 4507.0,10120.0 4477.0,10159.0 4456.0,10188.0 C 4435.0,10216.0 4417.0,10240.0 4416.0,10240.0 C 4415.0,10240.0 4404.0,10205.0 4391.0,10161.0" fill="pink"/>
	<path d="M 3780.0,376.0 L 3780.0,51.0 L 3873.0,56.0 C 3980.0,63.0 4111.0,50.0 4253.0,18.0 L 4353.0,-4.0 L 4419.0,15.0 C 4465.0,29.0 4509.0,34.0 4566.0,32.0 L 4647.0,30.0 L 4673.0,69.0 L 4699.0,108.0 L 4632.0,115.0 C 4595.0,119.0 4516.0,131.0 4457.0,142.0 C 4358.0,161.0 4343.0,167.0 4292.0,208.0 C 4261.0,232.0 4190.0,273.0 4135.0,299.0 C 4042.0,344.0 4030.0,352.0 3967.0,428.0 C 3909.0,499.0 3894.0,511.0 3860.0,516.0 C 3827.0,521.0 3821.0,527.0 3818.0,549.0 C 3816.0,564.0 3822.0,584.0 3833.0,597.0 C 3852.0,618.0 3852.0,619.0 3832.0,648.0 C 3778.0,722.0 3780.0,731.0 3780.0,376.0" fill="pink"/>
</svg>
