<?xml version="1.0" ?>
<svg xmlns="http://www.w3.org/2000/svg" xmlns:ev="http://www.w3.org/2001/xml-events" xmlns:xlink="http://www.w3.org/1999/xlink" baseProfile="full" height="298px" version="1.1" viewBox="-1034.5944484252277 2075.787711952875 12303.909776703467 6096.825073115517" width="600px">
	<defs/>
	<path d="M 6252.0,7645.0 C 6233.0,7637.0 6169.0,7585.0 6109.0,7530.0 C 5992.0,7423.0 5962.0,7409.0 5925.0,7450.0 C 5915.0,7461.0 5903.0,7470.0 5899.0,7470.0 C 5886.0,7470.0 5857.0,7408.0 5856.0,7380.0 C 5855.0,7355.0 5853.0,7355.0 5774.0,7355.0 C 5701.0,7355.0 5690.0,7352.0 5657.0,7327.0 C 5614.0,7294.0 5611.0,7272.0 5644.0,7233.0 C 5658.0,7216.0 5669.0,7187.0 5672.0,7158.0 L 5678.0,7110.0 L 5642.0,7110.0 C 5615.0,7110.0 5593.0,7121.0 5549.0,7155.0 C 5488.0,7203.0 5466.0,7205.0 5456.0,7164.0 C 5448.0,7133.0 5388.0,7106.0 5308.0,7097.0 C 5226.0,7087.0 5220.0,7083.0 5220.0,7040.0 C 5220.0,7010.0 5214.0,6996.0 5190.0,6977.0 C 5171.0,6960.0 5160.0,6942.0 5160.0,6925.0 C 5160.0,6903.0 5137.0,6864.0 5068.0,6765.0 C 5063.0,6759.0 5045.0,6773.0 5022.0,6800.0 L 4983.0,6844.0 L 4911.0,6830.0 C 4850.0,6817.0 4836.0,6810.0 4822.0,6787.0 C 4808.0,6765.0 4808.0,6756.0 4818.0,6740.0 C 4836.0,6710.0 4833.0,6691.0 4805.0,6678.0 C 4791.0,6672.0 4780.0,6659.0 4780.0,6649.0 C 4780.0,6637.0 4770.0,6628.0 4753.0,6624.0 C 4716.0,6615.0 4700.0,6602.0 4700.0,6580.0 C 4700.0,6569.0 4690.0,6560.0 4674.0,6556.0 C 4658.0,6552.0 4650.0,6543.0 4651.0,6532.0 C 4656.0,6501.0 4640.0,6472.0 4603.0,6444.0 C 4574.0,6422.0 4557.0,6417.0 4524.0,6419.0 C 4457.0,6423.0 4446.0,6398.0 4447.0,6244.0 C 4448.0,6176.0 4444.0,6118.0 4439.0,6114.0 C 4434.0,6111.0 4423.0,6095.0 4414.0,6078.0 C 4400.0,6051.0 4400.0,6047.0 4416.0,6029.0 C 4425.0,6019.0 4438.0,6010.0 4445.0,6010.0 C 4451.0,6010.0 4469.0,5997.0 4483.0,5982.0 C 4508.0,5956.0 4510.0,5948.0 4504.0,5910.0 C 4495.0,5857.0 4438.0,5787.0 4406.0,5792.0 C 4390.0,5794.0 4384.0,5805.0 4377.0,5845.0 C 4373.0,5872.0 4364.0,5900.0 4358.0,5907.0 C 4353.0,5914.0 4318.0,5933.0 4281.0,5950.0 C 4245.0,5967.0 4202.0,5997.0 4185.0,6015.0 L 4155.0,6050.0 L 4123.0,6019.0 C 4105.0,6003.0 4090.0,5983.0 4090.0,5976.0 C 4090.0,5968.0 4073.0,5955.0 4053.0,5946.0 C 3965.0,5907.0 3893.0,5867.0 3868.0,5842.0 C 3838.0,5814.0 3830.0,5770.0 3855.0,5770.0 C 3871.0,5770.0 3874.0,5742.0 3864.0,5703.0 C 3857.0,5676.0 3800.0,5663.0 3770.0,5682.0 C 3754.0,5692.0 3746.0,5692.0 3730.0,5682.0 C 3719.0,5676.0 3696.0,5670.0 3678.0,5670.0 C 3661.0,5670.0 3638.0,5662.0 3628.0,5653.0 C 3611.0,5638.0 3608.0,5638.0 3582.0,5663.0 C 3566.0,5678.0 3542.0,5690.0 3528.0,5690.0 C 3508.0,5690.0 3500.0,5682.0 3487.0,5650.0 C 3479.0,5628.0 3463.0,5607.0 3453.0,5604.0 C 3417.0,5593.0 3408.0,5584.0 3395.0,5547.0 C 3379.0,5501.0 3377.0,5498.0 3359.0,5505.0 C 3335.0,5514.0 3316.0,5553.0 3310.0,5605.0 L 3305.0,5655.0 L 3251.0,5674.0 C 3200.0,5693.0 3195.0,5693.0 3168.0,5677.0 C 3130.0,5655.0 3092.0,5664.0 3079.0,5698.0 C 3071.0,5718.0 3073.0,5727.0 3091.0,5746.0 C 3108.0,5764.0 3110.0,5772.0 3101.0,5789.0 C 3092.0,5805.0 3080.0,5810.0 3045.0,5810.0 C 3006.0,5810.0 2999.0,5806.0 2979.0,5774.0 C 2957.0,5739.0 2956.0,5738.0 2909.0,5743.0 C 2872.0,5748.0 2847.0,5743.0 2798.0,5724.0 C 2763.0,5710.0 2730.0,5692.0 2724.0,5684.0 C 2718.0,5676.0 2707.0,5670.0 2701.0,5670.0 C 2695.0,5670.0 2672.0,5661.0 2650.0,5650.0 C 2600.0,5624.0 2592.0,5625.0 2578.0,5655.0 C 2565.0,5685.0 2546.0,5687.0 2528.0,5661.0 C 2520.0,5651.0 2503.0,5640.0 2490.0,5638.0 C 2472.0,5636.0 2459.0,5623.0 2444.0,5590.0 C 2428.0,5558.0 2414.0,5544.0 2394.0,5538.0 C 2378.0,5534.0 2363.0,5534.0 2359.0,5538.0 C 2356.0,5542.0 2347.0,5588.0 2340.0,5640.0 C 2330.0,5714.0 2322.0,5741.0 2304.0,5763.0 C 2291.0,5779.0 2280.0,5796.0 2280.0,5801.0 C 2280.0,5826.0 2243.0,5803.0 2179.0,5740.0 C 2140.0,5702.0 2102.0,5670.0 2095.0,5670.0 C 2080.0,5670.0 2054.0,5693.0 2048.0,5711.0 C 2045.0,5719.0 2033.0,5720.0 2011.0,5715.0 C 1981.0,5709.0 1980.0,5707.0 1994.0,5691.0 C 2008.0,5676.0 2006.0,5672.0 1975.0,5647.0 C 1942.0,5621.0 1938.0,5620.0 1898.0,5631.0 C 1874.0,5638.0 1848.0,5651.0 1840.0,5660.0 C 1831.0,5669.0 1813.0,5680.0 1798.0,5683.0 C 1782.0,5687.0 1770.0,5699.0 1766.0,5715.0 C 1756.0,5755.0 1729.0,5745.0 1675.0,5680.0 C 1622.0,5617.0 1595.0,5603.0 1570.0,5623.0 C 1561.0,5631.0 1543.0,5634.0 1525.0,5630.0 C 1477.0,5620.0 1370.0,5567.0 1370.0,5552.0 C 1370.0,5531.0 1326.0,5516.0 1301.0,5529.0 C 1271.0,5546.0 1273.0,5520.0 1305.0,5482.0 C 1319.0,5465.0 1330.0,5447.0 1330.0,5441.0 C 1330.0,5427.0 1296.0,5410.0 1266.0,5410.0 C 1249.0,5410.0 1232.0,5398.0 1213.0,5375.0 C 1193.0,5350.0 1177.0,5340.0 1158.0,5340.0 C 1122.0,5340.0 1098.0,5304.0 1106.0,5264.0 C 1110.0,5242.0 1107.0,5230.0 1095.0,5220.0 C 1080.0,5207.0 1072.0,5212.0 1019.0,5268.0 C 986.0,5302.0 953.0,5330.0 945.0,5330.0 C 936.0,5330.0 918.0,5310.0 903.0,5286.0 C 884.0,5255.0 868.0,5240.0 848.0,5236.0 C 828.0,5232.0 815.0,5221.0 805.0,5198.0 C 783.0,5144.0 713.0,5073.0 648.0,5038.0 C 615.0,5021.0 572.0,4989.0 552.0,4968.0 C 532.0,4947.0 510.0,4930.0 503.0,4930.0 C 485.0,4930.0 474.0,4899.0 466.0,4825.0 C 462.0,4787.0 452.0,4758.0 440.0,4745.0 C 428.0,4732.0 420.0,4710.0 420.0,4689.0 C 420.0,4657.0 416.0,4652.0 375.0,4632.0 C 350.0,4620.0 318.0,4610.0 304.0,4610.0 C 291.0,4610.0 257.0,4598.0 229.0,4584.0 C 194.0,4567.0 165.0,4560.0 139.0,4561.0 C 109.0,4564.0 94.0,4559.0 73.0,4538.0 C 57.0,4524.0 34.0,4507.0 20.0,4500.0 L -5.0,4487.0 L 30.0,4474.0 C 82.0,4455.0 100.0,4457.0 100.0,4480.0 C 100.0,4508.0 132.0,4506.0 178.0,4475.0 C 198.0,4461.0 229.0,4450.0 246.0,4450.0 C 266.0,4450.0 285.0,4441.0 301.0,4424.0 C 325.0,4398.0 326.0,4398.0 432.0,4405.0 L 539.0,4412.0 L 580.0,4379.0 C 620.0,4347.0 620.0,4346.0 620.0,4280.0 C 620.0,4243.0 623.0,4211.0 626.0,4207.0 C 629.0,4204.0 661.0,4212.0 696.0,4226.0 C 732.0,4239.0 770.0,4250.0 782.0,4250.0 C 794.0,4250.0 828.0,4231.0 858.0,4209.0 C 906.0,4172.0 916.0,4168.0 951.0,4174.0 C 982.0,4179.0 999.0,4175.0 1030.0,4158.0 L 1069.0,4135.0 L 1116.0,4180.0 C 1141.0,4205.0 1177.0,4248.0 1196.0,4276.0 C 1216.0,4307.0 1249.0,4340.0 1281.0,4361.0 L 1333.0,4394.0 L 1369.0,4373.0 C 1403.0,4353.0 1405.0,4349.0 1412.0,4287.0 C 1421.0,4197.0 1426.0,4184.0 1465.0,4160.0 C 1494.0,4142.0 1509.0,4140.0 1552.0,4145.0 C 1617.0,4153.0 1654.0,4140.0 1678.0,4101.0 L 1696.0,4071.0 L 1736.0,4097.0 C 1757.0,4111.0 1780.0,4129.0 1787.0,4138.0 C 1795.0,4148.0 1808.0,4150.0 1826.0,4146.0 C 1846.0,4141.0 1851.0,4135.0 1847.0,4118.0 C 1844.0,4107.0 1848.0,4083.0 1857.0,4065.0 C 1872.0,4034.0 1874.0,4033.0 1907.0,4042.0 C 1948.0,4053.0 2025.0,4049.0 2024.0,4035.0 C 2023.0,4030.0 2020.0,4011.0 2017.0,3993.0 L 2011.0,3961.0 L 2082.0,3963.0 C 2131.0,3964.0 2154.0,3961.0 2157.0,3953.0 C 2160.0,3945.0 2154.0,3940.0 2143.0,3940.0 C 2101.0,3939.0 2099.0,3925.0 2136.0,3882.0 C 2172.0,3840.0 2172.0,3840.0 2152.0,3822.0 C 2131.0,3805.0 2110.0,3726.0 2110.0,3667.0 C 2110.0,3649.0 2118.0,3604.0 2127.0,3566.0 C 2142.0,3508.0 2150.0,3493.0 2177.0,3476.0 C 2209.0,3455.0 2210.0,3453.0 2210.0,3382.0 C 2210.0,3334.0 2204.0,3296.0 2194.0,3274.0 C 2178.0,3240.0 2178.0,3238.0 2201.0,3214.0 C 2237.0,3176.0 2348.0,3104.0 2409.0,3080.0 C 2439.0,3069.0 2480.0,3046.0 2501.0,3029.0 C 2529.0,3007.0 2548.0,3000.0 2583.0,3000.0 C 2609.0,3000.0 2632.0,2994.0 2639.0,2986.0 C 2645.0,2978.0 2670.0,2967.0 2693.0,2962.0 C 2724.0,2954.0 2740.0,2942.0 2754.0,2919.0 L 2773.0,2887.0 L 2794.0,2913.0 C 2806.0,2927.0 2837.0,2955.0 2865.0,2974.0 C 2912.0,3008.0 2920.0,3010.0 2990.0,3010.0 C 3047.0,3010.0 3073.0,3005.0 3097.0,2990.0 C 3126.0,2973.0 3128.0,2968.0 3123.0,2933.0 C 3117.0,2890.0 3098.0,2865.0 3058.0,2844.0 C 3023.0,2826.0 3022.0,2797.0 3054.0,2756.0 C 3068.0,2737.0 3080.0,2704.0 3084.0,2670.0 C 3096.0,2577.0 3096.0,2577.0 3135.0,2603.0 C 3162.0,2620.0 3170.0,2632.0 3170.0,2656.0 C 3170.0,2681.0 3176.0,2690.0 3198.0,2699.0 C 3213.0,2706.0 3243.0,2728.0 3266.0,2748.0 C 3301.0,2779.0 3310.0,2797.0 3326.0,2858.0 C 3344.0,2928.0 3344.0,2933.0 3327.0,2961.0 C 3303.0,3003.0 3305.0,3015.0 3340.0,3040.0 C 3365.0,3058.0 3370.0,3068.0 3370.0,3101.0 C 3370.0,3138.0 3382.0,3152.0 3395.0,3130.0 C 3398.0,3125.0 3425.0,3120.0 3454.0,3120.0 C 3511.0,3120.0 3534.0,3104.0 3558.0,3048.0 C 3564.0,3032.0 3574.0,3020.0 3579.0,3020.0 C 3583.0,3020.0 3590.0,3007.0 3593.0,2991.0 C 3600.0,2957.0 3674.0,2907.0 3732.0,2897.0 C 3784.0,2889.0 3811.0,2914.0 3859.0,3013.0 C 3906.0,3112.0 3934.0,3144.0 4003.0,3176.0 C 4050.0,3197.0 4059.0,3206.0 4071.0,3242.0 C 4078.0,3265.0 4107.0,3315.0 4135.0,3352.0 C 4162.0,3389.0 4203.0,3449.0 4225.0,3485.0 L 4265.0,3550.0 L 4321.0,3550.0 C 4370.0,3550.0 4378.0,3553.0 4390.0,3574.0 C 4397.0,3587.0 4427.0,3616.0 4456.0,3637.0 C 4485.0,3658.0 4510.0,3679.0 4510.0,3683.0 C 4510.0,3688.0 4501.0,3704.0 4491.0,3719.0 C 4472.0,3745.0 4472.0,3749.0 4487.0,3803.0 C 4496.0,3834.0 4509.0,3860.0 4516.0,3860.0 C 4523.0,3860.0 4542.0,3871.0 4558.0,3885.0 C 4575.0,3899.0 4600.0,3910.0 4615.0,3910.0 C 4633.0,3910.0 4658.0,3924.0 4686.0,3950.0 C 4714.0,3975.0 4739.0,3990.0 4756.0,3990.0 C 4785.0,3990.0 4828.0,4020.0 4844.0,4052.0 C 4857.0,4078.0 4937.0,4107.0 4952.0,4092.0 C 4960.0,4084.0 4972.0,4085.0 4992.0,4096.0 C 5016.0,4109.0 5019.0,4114.0 5009.0,4126.0 C 5003.0,4134.0 4999.0,4142.0 5001.0,4144.0 C 5003.0,4146.0 5059.0,4180.0 5125.0,4220.0 C 5264.0,4304.0 5275.0,4313.0 5264.0,4332.0 C 5259.0,4339.0 5257.0,4354.0 5259.0,4364.0 C 5260.0,4374.0 5256.0,4393.0 5250.0,4405.0 L 5238.0,4428.0 L 5204.0,4408.0 C 5176.0,4392.0 5146.0,4387.0 5047.0,4383.0 C 4856.0,4375.0 4807.0,4397.0 4789.0,4498.0 C 4780.0,4547.0 4774.0,4559.0 4748.0,4574.0 C 4686.0,4611.0 4649.0,4651.0 4656.0,4674.0 C 4660.0,4685.0 4663.0,4696.0 4664.0,4697.0 C 4665.0,4698.0 4688.0,4693.0 4715.0,4685.0 C 4742.0,4676.0 4772.0,4672.0 4782.0,4676.0 C 4798.0,4681.0 4797.0,4683.0 4776.0,4703.0 C 4760.0,4717.0 4749.0,4741.0 4745.0,4770.0 L 4738.0,4815.0 L 4787.0,4763.0 C 4840.0,4706.0 4847.0,4703.0 4874.0,4723.0 C 4891.0,4736.0 4891.0,4738.0 4876.0,4768.0 C 4850.0,4819.0 4854.0,4830.0 4903.0,4830.0 C 4960.0,4830.0 5014.0,4860.0 5018.0,4893.0 L 5021.0,4919.0 L 5058.0,4895.0 C 5078.0,4882.0 5108.0,4868.0 5123.0,4864.0 C 5138.0,4861.0 5157.0,4846.0 5164.0,4831.0 C 5184.0,4794.0 5187.0,4735.0 5171.0,4716.0 C 5163.0,4707.0 5152.0,4672.0 5146.0,4638.0 L 5135.0,4577.0 L 5087.0,4561.0 L 5038.0,4544.0 L 5057.0,4521.0 C 5074.0,4500.0 5082.0,4498.0 5123.0,4504.0 C 5166.0,4511.0 5170.0,4514.0 5180.0,4549.0 C 5185.0,4569.0 5201.0,4597.0 5215.0,4610.0 C 5229.0,4623.0 5240.0,4642.0 5240.0,4652.0 C 5240.0,4663.0 5260.0,4719.0 5286.0,4778.0 C 5323.0,4865.0 5339.0,4892.0 5376.0,4923.0 C 5400.0,4944.0 5420.0,4967.0 5420.0,4973.0 C 5420.0,4980.0 5432.0,5011.0 5447.0,5042.0 C 5470.0,5089.0 5479.0,5099.0 5501.0,5099.0 C 5531.0,5100.0 5619.0,5144.0 5638.0,5168.0 C 5644.0,5177.0 5650.0,5199.0 5650.0,5217.0 C 5650.0,5243.0 5656.0,5253.0 5680.0,5265.0 C 5696.0,5273.0 5726.0,5280.0 5748.0,5280.0 C 5788.0,5280.0 5810.0,5294.0 5810.0,5319.0 C 5810.0,5346.0 5853.0,5388.0 5886.0,5393.0 C 5912.0,5398.0 5922.0,5394.0 5946.0,5369.0 L 5974.0,5340.0 L 6003.0,5367.0 C 6019.0,5383.0 6050.0,5416.0 6072.0,5442.0 L 6112.0,5490.0 L 6088.0,5520.0 C 6076.0,5537.0 6054.0,5564.0 6042.0,5580.0 C 6029.0,5597.0 6009.0,5610.0 5998.0,5610.0 C 5981.0,5610.0 5955.0,5620.0 5862.0,5666.0 C 5855.0,5670.0 5899.0,5732.0 5917.0,5745.0 C 5927.0,5752.0 5958.0,5761.0 5985.0,5766.0 C 6063.0,5777.0 6151.0,5861.0 6135.0,5909.0 C 6127.0,5933.0 6043.0,5980.0 5996.0,5986.0 C 5941.0,5994.0 5910.0,6039.0 5903.0,6121.0 C 5898.0,6176.0 5899.0,6180.0 5930.0,6209.0 L 5963.0,6239.0 L 5929.0,6244.0 C 5813.0,6262.0 5769.0,6259.0 5703.0,6229.0 L 5637.0,6200.0 L 5589.0,6245.0 C 5550.0,6282.0 5534.0,6290.0 5503.0,6290.0 C 5482.0,6290.0 5436.0,6303.0 5401.0,6319.0 C 5365.0,6335.0 5331.0,6346.0 5324.0,6343.0 C 5316.0,6340.0 5297.0,6352.0 5280.0,6368.0 L 5251.0,6398.0 L 5275.0,6404.0 C 5289.0,6408.0 5307.0,6424.0 5315.0,6440.0 C 5324.0,6457.0 5335.0,6468.0 5339.0,6465.0 C 5344.0,6462.0 5383.0,6455.0 5426.0,6449.0 C 5479.0,6442.0 5512.0,6432.0 5526.0,6419.0 C 5544.0,6402.0 5553.0,6401.0 5600.0,6410.0 C 5629.0,6415.0 5681.0,6420.0 5715.0,6420.0 C 5771.0,6420.0 5778.0,6422.0 5788.0,6444.0 C 5801.0,6472.0 5854.0,6515.0 5890.0,6525.0 C 5904.0,6529.0 5929.0,6540.0 5946.0,6550.0 C 5974.0,6566.0 5985.0,6567.0 6041.0,6556.0 C 6076.0,6549.0 6133.0,6529.0 6167.0,6512.0 C 6216.0,6487.0 6252.0,6477.0 6329.0,6469.0 C 6408.0,6460.0 6440.0,6451.0 6480.0,6428.0 C 6530.0,6400.0 6532.0,6397.0 6527.0,6362.0 C 6524.0,6342.0 6514.0,6304.0 6505.0,6278.0 C 6489.0,6233.0 6489.0,6230.0 6507.0,6203.0 C 6524.0,6179.0 6526.0,6158.0 6525.0,6060.0 C 6524.0,5962.0 6528.0,5936.0 6548.0,5880.0 L 6572.0,5815.0 L 6551.0,5801.0 C 6538.0,5793.0 6530.0,5777.0 6530.0,5760.0 C 6530.0,5738.0 6536.0,5730.0 6560.0,5721.0 C 6586.0,5712.0 6597.0,5715.0 6640.0,5742.0 L 6689.0,5772.0 L 6749.0,5752.0 C 6815.0,5730.0 6848.0,5733.0 6924.0,5772.0 C 6955.0,5788.0 6967.0,5790.0 6990.0,5780.0 C 7012.0,5771.0 7029.0,5773.0 7081.0,5790.0 C 7116.0,5802.0 7152.0,5818.0 7160.0,5825.0 C 7178.0,5841.0 7283.0,5860.0 7353.0,5860.0 C 7394.0,5860.0 7405.0,5865.0 7430.0,5893.0 C 7459.0,5924.0 7460.0,5927.0 7454.0,5995.0 C 7447.0,6074.0 7460.0,6097.0 7502.0,6087.0 C 7581.0,6067.0 7622.0,6056.0 7678.0,6038.0 L 7742.0,6017.0 L 7789.0,6064.0 C 7828.0,6102.0 7841.0,6125.0 7861.0,6187.0 C 7880.0,6248.0 7889.0,6264.0 7910.0,6271.0 C 7966.0,6290.0 7983.0,6306.0 7994.0,6344.0 C 8003.0,6377.0 8012.0,6385.0 8050.0,6400.0 C 8075.0,6410.0 8130.0,6421.0 8172.0,6425.0 C 8246.0,6431.0 8249.0,6433.0 8255.0,6460.0 C 8262.0,6493.0 8303.0,6521.0 8367.0,6537.0 C 8414.0,6549.0 8416.0,6547.0 8443.0,6494.0 L 8459.0,6462.0 L 8505.0,6478.0 C 8550.0,6492.0 8552.0,6492.0 8573.0,6472.0 C 8594.0,6450.0 8594.0,6450.0 8575.0,6435.0 C 8552.0,6418.0 8552.0,6418.0 8634.0,6375.0 C 8667.0,6359.0 8679.0,6343.0 8702.0,6290.0 L 8730.0,6225.0 L 8658.0,6159.0 L 8587.0,6093.0 L 8616.0,6066.0 C 8632.0,6052.0 8656.0,6030.0 8670.0,6018.0 C 8683.0,6005.0 8712.0,5983.0 8734.0,5968.0 L 8775.0,5940.0 L 8805.0,5968.0 C 8847.0,6007.0 8886.0,6030.0 8910.0,6030.0 C 8935.0,6030.0 8990.0,6057.0 8990.0,6069.0 C 8990.0,6074.0 9009.0,6080.0 9033.0,6083.0 C 9139.0,6096.0 9170.0,6110.0 9195.0,6156.0 C 9210.0,6184.0 9219.0,6190.0 9247.0,6190.0 C 9298.0,6190.0 9323.0,6207.0 9316.0,6236.0 C 9308.0,6267.0 9325.0,6300.0 9349.0,6300.0 C 9359.0,6300.0 9375.0,6309.0 9386.0,6321.0 C 9402.0,6338.0 9412.0,6341.0 9448.0,6336.0 C 9472.0,6333.0 9504.0,6324.0 9518.0,6315.0 C 9533.0,6307.0 9563.0,6296.0 9584.0,6291.0 C 9630.0,6279.0 9655.0,6293.0 9733.0,6373.0 L 9782.0,6423.0 L 9871.0,6417.0 C 9953.0,6412.0 9964.0,6413.0 10003.0,6436.0 C 10026.0,6449.0 10060.0,6460.0 10078.0,6460.0 C 10110.0,6460.0 10110.0,6460.0 10110.0,6509.0 C 10110.0,6541.0 10115.0,6560.0 10124.0,6563.0 C 10136.0,6568.0 10142.0,6593.0 10157.0,6720.0 C 10160.0,6751.0 10173.0,6778.0 10196.0,6807.0 C 10223.0,6840.0 10230.0,6857.0 10230.0,6893.0 C 10230.0,6934.0 10226.0,6941.0 10184.0,6976.0 L 10139.0,7015.0 L 10139.0,7086.0 C 10139.0,7125.0 10144.0,7169.0 10151.0,7183.0 C 10160.0,7204.0 10160.0,7217.0 10146.0,7250.0 C 10126.0,7301.0 10126.0,7300.0 10150.0,7300.0 C 10161.0,7300.0 10178.0,7312.0 10187.0,7328.0 C 10197.0,7343.0 10214.0,7362.0 10225.0,7372.0 C 10251.0,7393.0 10246.0,7396.0 10182.0,7402.0 C 10133.0,7407.0 10128.0,7405.0 10110.0,7380.0 C 10098.0,7363.0 10077.0,7350.0 10055.0,7346.0 C 10034.0,7342.0 10020.0,7333.0 10020.0,7325.0 C 10020.0,7316.0 10010.0,7310.0 9995.0,7310.0 C 9982.0,7310.0 9960.0,7305.0 9947.0,7299.0 C 9904.0,7280.0 9720.0,7325.0 9720.0,7355.0 C 9720.0,7366.0 9709.0,7370.0 9681.0,7370.0 C 9647.0,7370.0 9641.0,7367.0 9635.0,7343.0 C 9632.0,7328.0 9611.0,7300.0 9588.0,7281.0 C 9566.0,7263.0 9537.0,7230.0 9524.0,7209.0 C 9511.0,7187.0 9495.0,7170.0 9489.0,7170.0 C 9483.0,7170.0 9466.0,7183.0 9452.0,7200.0 L 9426.0,7229.0 L 9383.0,7149.0 C 9347.0,7080.0 9340.0,7059.0 9340.0,7011.0 C 9340.0,6966.0 9344.0,6949.0 9360.0,6935.0 C 9389.0,6909.0 9386.0,6859.0 9354.0,6821.0 C 9331.0,6793.0 9322.0,6790.0 9274.0,6790.0 C 9244.0,6790.0 9206.0,6797.0 9190.0,6805.0 C 9165.0,6818.0 9160.0,6827.0 9160.0,6858.0 C 9160.0,6911.0 9150.0,6940.0 9132.0,6940.0 C 9124.0,6940.0 9085.0,6949.0 9046.0,6961.0 C 8998.0,6975.0 8968.0,6990.0 8953.0,7008.0 C 8933.0,7034.0 8931.0,7034.0 8913.0,7017.0 C 8886.0,6994.0 8857.0,6996.0 8823.0,7023.0 C 8808.0,7036.0 8783.0,7050.0 8768.0,7054.0 C 8753.0,7057.0 8735.0,7070.0 8729.0,7082.0 L 8718.0,7103.0 L 8704.0,7079.0 C 8697.0,7066.0 8690.0,7024.0 8690.0,6985.0 C 8689.0,6887.0 8679.0,6875.0 8635.0,6924.0 C 8613.0,6949.0 8600.0,6974.0 8600.0,6991.0 C 8600.0,7011.0 8594.0,7021.0 8578.0,7026.0 C 8565.0,7030.0 8550.0,7040.0 8544.0,7048.0 C 8536.0,7060.0 8529.0,7060.0 8512.0,7051.0 C 8496.0,7042.0 8479.0,7042.0 8450.0,7050.0 C 8399.0,7064.0 8384.0,7092.0 8398.0,7143.0 C 8404.0,7164.0 8406.0,7180.0 8404.0,7180.0 C 8389.0,7180.0 8340.0,7147.0 8311.0,7117.0 C 8285.0,7089.0 8267.0,7080.0 8228.0,7075.0 C 8187.0,7069.0 8168.0,7059.0 8125.0,7020.0 C 8081.0,6980.0 8062.0,6970.0 8000.0,6956.0 C 7920.0,6938.0 7895.0,6937.0 7826.0,6946.0 C 7784.0,6952.0 7779.0,6955.0 7770.0,6989.0 C 7765.0,7009.0 7760.0,7041.0 7760.0,7061.0 C 7760.0,7102.0 7773.0,7110.0 7842.0,7110.0 C 7876.0,7110.0 7881.0,7114.0 7898.0,7153.0 C 7921.0,7203.0 7914.0,7221.0 7859.0,7253.0 C 7812.0,7280.0 7790.0,7271.0 7790.0,7225.0 C 7790.0,7206.0 7785.0,7190.0 7779.0,7190.0 C 7758.0,7190.0 7701.0,7231.0 7695.0,7250.0 C 7692.0,7260.0 7673.0,7283.0 7653.0,7300.0 L 7618.0,7331.0 L 7599.0,7300.0 C 7585.0,7277.0 7575.0,7270.0 7561.0,7275.0 C 7549.0,7278.0 7540.0,7275.0 7537.0,7266.0 C 7529.0,7244.0 7481.0,7262.0 7445.0,7300.0 C 7429.0,7317.0 7413.0,7330.0 7408.0,7330.0 C 7404.0,7330.0 7400.0,7295.0 7400.0,7252.0 C 7400.0,7177.0 7399.0,7173.0 7370.0,7152.0 C 7336.0,7126.0 7331.0,7126.0 7306.0,7145.0 C 7287.0,7160.0 7287.0,7160.0 7309.0,7184.0 L 7331.0,7207.0 L 7295.0,7239.0 C 7272.0,7259.0 7249.0,7270.0 7230.0,7270.0 C 7203.0,7270.0 7200.0,7267.0 7200.0,7240.0 C 7200.0,7223.0 7208.0,7186.0 7218.0,7157.0 C 7240.0,7091.0 7236.0,7067.0 7199.0,7035.0 C 7162.0,7004.0 7124.0,7002.0 7117.0,7030.0 C 7113.0,7045.0 7103.0,7050.0 7081.0,7050.0 C 7052.0,7050.0 7050.0,7048.0 7050.0,7015.0 C 7050.0,6939.0 7010.0,6903.0 6958.0,6931.0 C 6938.0,6942.0 6938.0,6947.0 6944.0,7058.0 C 6948.0,7121.0 6955.0,7181.0 6961.0,7191.0 C 6966.0,7201.0 6970.0,7223.0 6970.0,7240.0 C 6970.0,7282.0 6944.0,7290.0 6917.0,7257.0 C 6888.0,7224.0 6859.0,7210.0 6816.0,7210.0 C 6783.0,7210.0 6780.0,7208.0 6780.0,7180.0 C 6780.0,7155.0 6776.0,7150.0 6756.0,7150.0 C 6742.0,7150.0 6728.0,7154.0 6725.0,7160.0 C 6716.0,7175.0 6690.0,7331.0 6690.0,7373.0 C 6690.0,7413.0 6677.0,7421.0 6661.0,7391.0 C 6646.0,7364.0 6563.0,7325.0 6547.0,7338.0 C 6541.0,7343.0 6518.0,7353.0 6497.0,7358.0 C 6462.0,7368.0 6460.0,7367.0 6454.0,7345.0 C 6451.0,7331.0 6428.0,7308.0 6399.0,7290.0 C 6372.0,7272.0 6341.0,7243.0 6329.0,7224.0 C 6311.0,7195.0 6303.0,7190.0 6281.0,7194.0 C 6267.0,7197.0 6236.0,7202.0 6213.0,7205.0 L 6170.0,7212.0 L 6170.0,7264.0 C 6170.0,7313.0 6174.0,7320.0 6236.0,7400.0 C 6306.0,7488.0 6319.0,7521.0 6320.0,7608.0 C 6320.0,7667.0 6312.0,7671.0 6252.0,7645.0" fill="pink"/>
</svg>
