<?xml version="1.0" ?>
<svg xmlns="http://www.w3.org/2000/svg" xmlns:ev="http://www.w3.org/2001/xml-events" xmlns:xlink="http://www.w3.org/1999/xlink" baseProfile="full" height="308px" version="1.1" viewBox="-197.92782689718751 -101.2873972096875 2376.420104419375 1216.289635669375" width="600px">
	<defs/>
	<path d="M 874.109375,402.498047 L 872.128906,389.755859 L 851.125,367.382813 L 847.662109,348.695313 L 852.365234,346.583984 L 863.275391,337.564453 L 873.441406,332.230469 L 878.035156,318.228516 L 890.277344,316.617187 L 900.667969,312.042969 L 913.892578,297.335938 L 942.544922,288.927734 L 950.101563,282.0 L 978.179688,280.519531 L 998.775391,267.798828 L 1012.74023,252.351563 L 1022.87305,225.533203 L 1022.87305,212.791016 L 1024.72461,198.585938 L 1023.24219,182.378906 L 1040.17188,171.507812 L 1054.2832,177.210938 L 1066.52734,179.693359 L 1072.10156,184.767578 L 1079.26953,192.806641 L 1090.90039,196.269531 L 1098.32617,182.044922 L 1105.38281,179.564453 L 1111.07031,174.619141 L 1113.05078,164.339844 L 1119.34766,157.912109 L 1116.25586,131.259766 L 1119.71875,127.166016 L 1112.18164,119.0 L 1121.8125,103.181641 L 1139.01758,107.644531 L 1151.37109,115.554688 L 1161.50195,122.351563 L 1164.9668,128.408203 L 1171.15234,137.556641 L 1166.74414,153.015625 L 1181.13477,164.802734 L 1220.94727,165.802734 L 1252.98633,180.603516 L 1264.77344,167.53125 L 1273.06445,168.052734 L 1280.87891,145.695312 L 1294.16602,152.425781 L 1305.04297,157.419922 L 1317.63477,152.404297 L 1322.99609,157.091797 L 1330.63672,158.134766 L 1335.8457,168.337891 L 1343.22852,167.337891 L 1344.76953,128.068359 L 1348.375,118.927734 L 1365.84961,111.287109 L 1374.18359,91.1875 L 1404.83398,95.1816406 L 1405.20312,67.3417969 L 1414.86328,42.2675781 L 1408.98047,16.6113281 L 1416.96875,0.89453125 L 1452.24414,4.13085938 L 1453.80664,15.8808594 L 1458.64648,26.6464844 L 1473.53906,22.1328125 L 1483.33203,22.1328125 L 1488.51953,6.046875 L 1492.27734,11.1933594 L 1504.7168,10.6933594 L 1522.43359,21.5898438 L 1537.7832,21.0703125 L 1544.68555,31.4453125 L 1562.35547,39.4121094 L 1576.91992,41.1484375 L 1587.12305,54.4765625 L 1611.52344,55.8652344 L 1617.96875,47.2460937 L 1629.53906,49.484375 L 1692.92187,95.5253906 L 1749.87695,95.6347656 L 1762.48828,94.09375 L 1778.38086,90.2734375 L 1783.24219,68.8261719 L 1798.28516,69.1738281 L 1804.99414,66.7421875 L 1827.5957,78.0078125 L 1837.27734,76.4042969 L 1845.22266,83.9394531 L 1846.08984,91.515625 L 1858.05078,91.515625 L 1870.12109,95.6621094 L 1884.88086,95.1425781 L 1898.16797,97.3984375 L 1904.39648,107.775391 L 1912.21094,140.314453 L 1915.85742,156.574219 L 1916.20508,163.935547 L 1903.24414,181.347656 L 1895.08398,195.740234 L 1892.30469,206.441406 L 1892.82617,215.625 L 1891.80469,226.0 L 1894.92969,234.140625 L 1906.45898,247.080078 L 1910.10547,259.539062 L 1920.30859,268.201172 L 1921.85156,278.882812 L 1926.71289,293.621094 L 1928.9707,305.019531 L 1938.30078,309.257812 L 1953.19336,322.933594 L 1960.8125,332.880859 L 1960.8125,343.736328 L 1961.50586,358.953125 L 1976.55078,360.167969 L 1979.63281,369.113281 L 1969.73633,380.378906 L 1968.69531,386.587891 L 1965.04883,401.347656 L 1965.91602,412.050781 L 1957.4707,419.107422 L 1950.24023,422.732422 L 1955.60156,433.935547 L 1958.72852,442.576172 L 1958.18555,449.804687 L 1959.74805,453.0625 L 1961.48438,463.070312 L 1961.48438,470.884766 L 1966.17383,480.761719 L 1955.64453,483.519531 L 1929.20312,492.005859 L 1917.61133,492.527344 L 1910.57617,488.728516 L 1898.11523,498.625 L 1880.48828,497.583984 L 1874.82031,481.824219 L 1864.29102,477.677734 L 1855.82422,475.941406 L 1849.28906,472.357422 L 1839.95508,474.441406 L 1831.31445,475.308594 L 1826.47461,482.408203 L 1820.74414,486.533203 L 1811.04102,497.757813 L 1801.26953,500.494141 L 1798.85938,508.222656 L 1811.32617,516.648438 L 1824.1543,513.521484 L 1840.67773,521.447266 L 1850.20508,519.537109 L 1860.20703,525.945312 L 1861.25,542.03125 L 1871.64648,553.144531 L 1871.64648,557.832031 L 1867.30664,564.410156 L 1861.35352,567.515625 L 1861.875,579.626953 L 1854.0625,588.830078 L 1845.5957,597.775391 L 1841.31641,604.943359 L 1826.25195,604.943359 L 1821.36328,608.875 L 1810.61914,601.755859 L 1809.25,616.693359 L 1804.21484,627.939453 L 1813.00781,633.148438 L 1817.17578,644.330078 L 1817.69531,651.560547 L 1818.8418,662.392578 L 1809.13281,667.732422 L 1808.61133,676.699219 L 1804.70312,681.476562 L 1807.13281,690.617188 L 1812.23828,698.285156 L 1813.80078,710.529297 L 1827.82422,702.388672 L 1831.12305,711.917969 L 1826.95508,719.017578 L 1819.37695,722.121094 L 1818.50977,728.330078 L 1822.76758,736.476562 L 1831.75391,736.476562 L 1831.60156,743.511719 L 1817.59961,749.416016 L 1817.59961,754.736328 L 1825.34961,759.556641 L 1819.16211,763.986328 L 1777.02539,764.486328 L 1762.58594,776.384766 L 1748.08398,796.574219 L 1732.3457,812.855469 L 1720.92773,822.974609 L 1708.17773,832.826172 L 1698.03906,833.521484 L 1697.53906,870.076172 L 1701.12305,876.568359 L 1706.78906,879.695312 L 1710.41406,885.925781 L 1711.41406,899.390625 L 1699.30273,889.320312 L 1691.83594,886.369141 L 1681.4375,881.160156 L 1666.52539,876.296875 L 1650.91992,879.423828 L 1640.89062,882.722656 L 1631.90234,887.5625 L 1621.375,887.5625 L 1614.18555,886.173828 L 1603.11523,893.119141 L 1587.57031,896.765625 L 1581.05664,901.607422 L 1581.05664,911.572266 L 1568.24805,914.351562 L 1562.42969,917.435547 L 1554.11523,910.142578 L 1546.82227,906.84375 L 1528.30664,910.316406 L 1512.1582,909.099609 L 1501.28125,913.267578 L 1487.08398,910.316406 L 1472.23437,908.773438 L 1453.54492,911.009766 L 1445.38477,911.878906 L 1435.0293,924.929688 L 1425.91016,918.525391 L 1417.0957,923.539062 L 1399.85352,929.78125 L 1393.83789,945.802734 L 1387.76172,964.167969 L 1365.87695,973.134766 L 1354.80469,984.59375 L 1343.81836,992.498047 L 1333.67773,996.449219 L 1332.98438,1003.50586 L 1326.40625,1012.82031 L 1319.91211,1010.36719 L 1310.42578,999.837891 L 1303.32617,1000.35938 L 1288.19336,997.927734 L 1284.19922,991.71875 L 1257.04297,997.927734 L 1216.21094,994.650391 L 1198.14648,978.912109 L 1183.27539,978.042969 L 1172.53125,979.085938 L 1150.91602,966.0625 L 1135.52539,970.056641 L 1120.11328,970.056641 L 1105.74219,963.285156 L 1085.35742,963.285156 L 1070.81445,954.603516 L 1057.3125,955.644531 L 1050.23438,951.824219 L 1036.73242,951.302734 L 1022.03711,951.302734 L 1012.57031,945.941406 L 994.400391,952.193359 L 983.023438,952.693359 L 970.195312,949.566406 L 950.984375,942.294922 L 938.351562,936.064453 L 907.683594,934.501953 L 865.046875,932.591797 L 858.621094,922.716797 L 846.746094,916.505859 L 838.800781,922.910156 L 826.25,912.464844 L 794.730469,914.201172 L 784.070312,907.103516 L 765.748047,902.935547 L 753.287109,894.794922 L 748.314453,886.113281 L 742.064453,872.9375 L 732.230469,868.8125 L 723.894531,864.470703 L 721.638672,857.609375 L 721.638672,850.074219 L 726.457031,844.060547 L 714.435547,822.537109 L 702.863281,828.072266 L 696.523438,819.882812 L 684.083984,814.0 L 687.513672,803.839844 L 681.785156,795.525391 L 680.394531,771.058594 L 700.105469,768.800781 L 705.96875,751.972656 L 700.933594,746.957031 L 678.054687,749.041016 L 661.427734,757.355469 L 645.494141,762.001953 L 629.193359,764.605469 L 618.683594,773.941406 L 602.537109,779.84375 L 586.929688,781.927734 L 584.152344,791.304688 L 577.726563,789.220703 L 564.287109,781.470703 L 548.181641,779.40625 L 540.972656,776.802734 L 522.259766,782.533203 L 510.667969,772.023438 L 495.298828,789.978516 L 473.740234,780.316406 L 430.324219,789.326172 L 419.279297,800.285156 L 407.470703,810.835938 L 406.949219,821.90625 L 400.894531,833.783203 L 397.248047,843.3125 L 386.001953,860.814453 L 377.189453,859.771484 L 358.457031,859.771484 L 346.732422,860.292969 L 331.648438,855.779297 L 320.361328,848.660156 L 310.527344,849.701172 L 320.076172,834.003906 L 307.095703,835.220703 L 297.955078,821.738281 L 286.363281,823.302734 L 268.867187,829.185547 L 247.177734,825.232422 L 240.365234,810.724609 L 248.505859,795.181641 L 238.324219,785.693359 L 228.335938,776.726562 L 223.537109,772.96875 L 215.591797,768.996094 L 199.964844,791.201172 L 192.429688,796.347656 L 183.984375,796.347656 L 181.03125,806.376953 L 174.607422,814.148438 L 151.486328,824.003906 L 138.158203,820.011719 L 129.080078,812.128906 L 120.787109,802.792969 L 111.257812,798.453125 L 102.097656,797.083984 L 91.046875,791.027344 L 88.4433594,782.171875 L 92.9160156,770.060547 L 92.9160156,765.414062 L 88.0957031,756.640625 L 79.2402344,756.140625 L 66.3222656,747.021484 L 56.4453125,745.980469 L 36.9082031,737.1875 L 21.4746094,740.138672 L 27.5527344,708.425781 L 14.2871094,695.292969 L 10.8769531,677.574219 L 4.53515625,671.365234 L 14.390625,663.919922 L 0.931640625,655.800781 L 20.53125,635.875 L 24.3515625,617.53125 L 36.4648438,619.767578 L 44.2363281,613.017578 L 37.40625,595.794922 L 36.0175781,586.585938 L 20.8222656,579.833984 L 18.2382812,571.347656 L 29.1347656,566.658203 L 40.1640625,568.353516 L 52.4296875,563.685547 L 60.375,552.484375 L 73.3359375,540.085938 L 80.4335938,540.085938 L 82.8652344,549.767578 L 87.3789062,552.892578 L 94.8242188,556.867188 L 108.195312,554.783203 L 116.703125,563.095703 L 123.455078,569.347656 L 125.34375,579.160156 L 136.109375,580.160156 L 141.992188,589.537109 L 152.714844,594.226562 L 152.214844,604.060547 L 144.964844,607.859375 L 148.068359,614.894531 L 148.416016,626.119141 L 165.197266,622.994141 L 183.386719,619.867188 L 183.386719,625.882812 L 177.308594,639.599609 L 177.308594,649.955078 L 169.517578,657.185547 L 168.996094,665.152344 L 186.318359,664.630859 L 224.914062,633.744141 L 228.886719,625.146484 L 240.304688,615.136719 L 252.091797,601.441406 L 250.548828,590.390625 L 239.652344,570.791016 L 244.146484,559.740234 L 237.763672,551.121094 L 254.931641,547.126953 L 254.931641,559.609375 L 274.859375,566.859375 L 288.6875,554.400391 L 298.564453,557.177734 L 310.482422,556.136719 L 314.455078,561.845703 L 324.615234,564.796875 L 326.462891,573.158203 L 335.277344,572.117188 L 359.849609,565.171875 L 362.28125,573.269531 L 352.925781,585.320312 L 367.90625,586.861328 L 382.101562,605.572266 L 376.761719,620.748047 L 416.205078,622.136719 L 434.568359,608.789062 L 449.9375,609.830078 L 445.271484,621.318359 L 462.246094,620.970703 L 478.873047,600.828125 L 495.716797,600.828125 L 490.570312,594.333984 L 501.988281,580.375 L 537.152344,577.595703 L 538.714844,561.837891 L 556.412109,548.917969 L 565.207031,553.064453 L 591.037109,552.023438 L 607.142578,556.710938 L 612.546875,546.597656 L 647.001953,542.257812 L 699.919922,546.015625 L 697.490234,537.222656 L 695.427734,510.871094 L 716.394531,500.167969 L 713.810547,514.802734 L 733.869141,511.349609 L 752.712891,514.996094 L 764.457031,513.066406 L 764.457031,523.03125 L 779.265625,539.3125 L 794.617188,532.832031 L 807.861328,519.914062 L 841.984375,521.283203 L 849.410156,530.076172 L 860.458984,543.230469 L 855.3125,553.390625 L 854.792969,562.552734 L 857.722656,569.283203 L 869.835938,569.783203 L 895.130859,598.896484 L 905.779297,596.189453 L 910.578125,599.835938 L 923.947266,590.111328 L 915.871094,579.214844 L 923.253906,568.011719 L 920.300781,558.871094 L 926.490234,552.857422 L 927.011719,544.738281 L 934.283203,537.292969 L 934.802734,521.226562 L 913.140625,505.121094 L 905.542969,508.246094 L 885.220703,509.789063 L 882.636719,499.105469 L 893.818359,485.167969 L 893.818359,477.027344 L 911.599609,456.794922 L 910.230469,447.134766 L 901.089844,437.472656 L 891.755859,417.804688 L 883.677734,410.767578 L 876.080078,408.878906 L 874.109375,402.498047" fill="pink"/>
</svg>
