<?xml version="1.0" ?>
<svg xmlns="http://www.w3.org/2000/svg" xmlns:ev="http://www.w3.org/2001/xml-events" xmlns:xlink="http://www.w3.org/1999/xlink" baseProfile="full" height="561px" version="1.1" viewBox="-1027.9068186328993 -624.5743588583305 12288.164531865783 11486.004578194352" width="600px">
	<defs/>
	<path d="M 7380.0,9882.0 C 7380.0,9869.0 7366.0,9858.0 7339.0,9847.0 C 7305.0,9834.0 7299.0,9827.0 7305.0,9811.0 C 7308.0,9800.0 7306.0,9753.0 7299.0,9708.0 C 7291.0,9647.0 7282.0,9618.0 7265.0,9600.0 C 7229.0,9561.0 7180.0,9475.0 7180.0,9451.0 C 7180.0,9438.0 7186.0,9430.0 7198.0,9430.0 C 7218.0,9429.0 7255.0,9404.0 7243.0,9399.0 C 7238.0,9397.0 7220.0,9376.0 7202.0,9353.0 C 7169.0,9310.0 7168.0,9310.0 7183.0,9268.0 C 7196.0,9228.0 7195.0,9223.0 7177.0,9198.0 C 7148.0,9158.0 7138.0,9078.0 7156.0,9034.0 C 7166.0,9010.0 7171.0,8970.0 7169.0,8916.0 C 7168.0,8872.0 7173.0,8822.0 7179.0,8806.0 C 7189.0,8782.0 7186.0,8766.0 7165.0,8703.0 C 7148.0,8653.0 7140.0,8606.0 7140.0,8562.0 C 7140.0,8472.0 7109.0,8387.0 7054.0,8330.0 C 7022.0,8297.0 7009.0,8274.0 7004.0,8242.0 C 6994.0,8181.0 6949.0,8115.0 6899.0,8089.0 C 6843.0,8061.0 6784.0,8069.0 6710.0,8113.0 C 6680.0,8132.0 6641.0,8152.0 6624.0,8159.0 C 6604.0,8167.0 6588.0,8184.0 6577.0,8209.0 C 6552.0,8265.0 6461.0,8320.0 6395.0,8320.0 C 6340.0,8320.0 6313.0,8336.0 6237.0,8413.0 C 6151.0,8500.0 6056.0,8561.0 5993.0,8568.0 C 5959.0,8572.0 5947.0,8578.0 5940.0,8595.0 C 5935.0,8609.0 5920.0,8620.0 5901.0,8623.0 C 5879.0,8628.0 5865.0,8639.0 5854.0,8663.0 C 5842.0,8689.0 5819.0,8706.0 5744.0,8744.0 C 5692.0,8770.0 5645.0,8800.0 5640.0,8810.0 C 5625.0,8838.0 5644.0,8884.0 5720.0,9000.0 C 5791.0,9110.0 5808.0,9157.0 5771.0,9145.0 C 5740.0,9136.0 5726.0,9171.0 5743.0,9213.0 C 5758.0,9249.0 5789.0,9273.0 5833.0,9284.0 C 5857.0,9290.0 5860.0,9288.0 5860.0,9265.0 C 5860.0,9228.0 5887.0,9234.0 5896.0,9273.0 C 5900.0,9290.0 5903.0,9313.0 5901.0,9323.0 C 5900.0,9332.0 5912.0,9357.0 5928.0,9378.0 C 5944.0,9398.0 5967.0,9434.0 5979.0,9457.0 C 6000.0,9499.0 6000.0,9499.0 5981.0,9510.0 C 5970.0,9515.0 5954.0,9520.0 5945.0,9520.0 C 5936.0,9520.0 5914.0,9531.0 5896.0,9545.0 L 5864.0,9569.0 L 5831.0,9549.0 C 5799.0,9530.0 5799.0,9528.0 5815.0,9510.0 C 5834.0,9489.0 5829.0,9460.0 5807.0,9460.0 C 5791.0,9460.0 5766.0,9486.0 5757.0,9512.0 C 5752.0,9527.0 5746.0,9528.0 5725.0,9520.0 C 5686.0,9505.0 5678.0,9507.0 5690.0,9529.0 C 5695.0,9540.0 5700.0,9552.0 5700.0,9555.0 C 5700.0,9569.0 5614.0,9547.0 5598.0,9529.0 C 5577.0,9504.0 5552.0,9505.0 5523.0,9532.0 C 5505.0,9549.0 5482.0,9555.0 5422.0,9560.0 C 5373.0,9564.0 5315.0,9578.0 5262.0,9598.0 C 5203.0,9621.0 5162.0,9630.0 5120.0,9630.0 C 5085.0,9630.0 5057.0,9635.0 5051.0,9643.0 C 5045.0,9649.0 5029.0,9670.0 5014.0,9688.0 C 4981.0,9729.0 4935.0,9732.0 4899.0,9694.0 C 4876.0,9669.0 4876.0,9668.0 4893.0,9639.0 C 4902.0,9622.0 4910.0,9598.0 4910.0,9584.0 C 4910.0,9549.0 4847.0,9511.0 4769.0,9500.0 C 4662.0,9484.0 4633.0,9487.0 4608.0,9515.0 C 4584.0,9543.0 4564.0,9546.0 4525.0,9528.0 C 4509.0,9521.0 4500.0,9509.0 4500.0,9494.0 C 4500.0,9477.0 4496.0,9473.0 4480.0,9477.0 C 4469.0,9480.0 4444.0,9479.0 4425.0,9476.0 C 4391.0,9469.0 4390.0,9467.0 4390.0,9425.0 C 4390.0,9385.0 4388.0,9381.0 4360.0,9375.0 C 4343.0,9371.0 4330.0,9364.0 4330.0,9360.0 C 4330.0,9355.0 4320.0,9342.0 4308.0,9330.0 C 4287.0,9311.0 4287.0,9309.0 4304.0,9274.0 C 4313.0,9254.0 4320.0,9237.0 4318.0,9235.0 C 4281.0,9209.0 4262.0,9200.0 4245.0,9200.0 C 4229.0,9200.0 4218.0,9187.0 4200.0,9144.0 C 4188.0,9113.0 4162.0,9068.0 4144.0,9044.0 C 4102.0,8989.0 4101.0,8955.0 4140.0,8910.0 C 4173.0,8871.0 4178.0,8850.0 4154.0,8850.0 C 4138.0,8850.0 4139.0,8831.0 4157.0,8783.0 C 4164.0,8766.0 4163.0,8766.0 4135.0,8784.0 C 4118.0,8794.0 4093.0,8814.0 4078.0,8828.0 L 4050.0,8854.0 L 4050.0,8826.0 C 4050.0,8803.0 4047.0,8800.0 4036.0,8809.0 C 4015.0,8826.0 3919.0,8853.0 3885.0,8851.0 C 3852.0,8849.0 3810.0,8815.0 3810.0,8790.0 C 3810.0,8773.0 3792.0,8750.0 3778.0,8750.0 C 3774.0,8750.0 3779.0,8774.0 3790.0,8803.0 L 3811.0,8855.0 L 3698.0,8962.0 C 3626.0,9031.0 3573.0,9073.0 3551.0,9079.0 C 3532.0,9085.0 3507.0,9099.0 3494.0,9111.0 C 3462.0,9141.0 3429.0,9129.0 3436.0,9091.0 C 3441.0,9069.0 3437.0,9060.0 3416.0,9047.0 C 3384.0,9025.0 3380.0,9026.0 3380.0,9050.0 C 3380.0,9083.0 3332.0,9077.0 3319.0,9043.0 C 3311.0,9024.0 3306.0,9020.0 3303.0,9030.0 C 3300.0,9038.0 3297.0,9051.0 3294.0,9058.0 C 3291.0,9068.0 3285.0,9068.0 3270.0,9060.0 C 3254.0,9051.0 3251.0,9045.0 3259.0,9036.0 C 3267.0,9026.0 3266.0,9019.0 3255.0,9010.0 C 3246.0,9003.0 3242.0,8989.0 3246.0,8976.0 C 3248.0,8965.0 3245.0,8947.0 3237.0,8937.0 C 3225.0,8919.0 3222.0,8920.0 3192.0,8954.0 C 3175.0,8974.0 3159.0,8990.0 3156.0,8990.0 C 3154.0,8990.0 3149.0,8975.0 3146.0,8957.0 C 3141.0,8928.0 3134.0,8921.0 3100.0,8911.0 C 3073.0,8903.0 3055.0,8890.0 3046.0,8871.0 C 3033.0,8846.0 3033.0,8841.0 3050.0,8824.0 C 3060.0,8814.0 3071.0,8795.0 3075.0,8782.0 C 3081.0,8762.0 3079.0,8761.0 3055.0,8770.0 C 3000.0,8791.0 2950.0,8770.0 2950.0,8727.0 C 2950.0,8718.0 2945.0,8710.0 2939.0,8710.0 C 2933.0,8710.0 2906.0,8700.0 2878.0,8688.0 L 2828.0,8666.0 L 2834.0,8586.0 C 2838.0,8533.0 2837.0,8493.0 2829.0,8470.0 C 2813.0,8424.0 2815.0,8425.0 2784.0,8449.0 C 2752.0,8474.0 2732.0,8476.0 2723.0,8454.0 C 2718.0,8441.0 2714.0,8442.0 2695.0,8460.0 C 2677.0,8477.0 2665.0,8480.0 2641.0,8475.0 C 2609.0,8468.0 2602.0,8456.0 2621.0,8444.0 C 2627.0,8440.0 2629.0,8424.0 2625.0,8404.0 C 2620.0,8374.0 2624.0,8364.0 2654.0,8328.0 C 2691.0,8285.0 2700.0,8260.0 2677.0,8260.0 C 2669.0,8260.0 2653.0,8249.0 2640.0,8235.0 C 2623.0,8217.0 2619.0,8204.0 2623.0,8180.0 C 2627.0,8164.0 2628.0,8150.0 2626.0,8150.0 C 2618.0,8150.0 2522.0,8308.0 2497.0,8364.0 C 2481.0,8399.0 2466.0,8420.0 2461.0,8414.0 C 2456.0,8409.0 2436.0,8385.0 2416.0,8361.0 C 2396.0,8337.0 2363.0,8305.0 2342.0,8290.0 C 2283.0,8247.0 2258.0,8156.0 2277.0,8047.0 C 2281.0,8021.0 2287.0,8011.0 2296.0,8014.0 C 2304.0,8017.0 2314.0,8011.0 2320.0,8001.0 C 2328.0,7985.0 2316.0,7972.0 2233.0,7909.0 C 2140.0,7837.0 2137.0,7833.0 2106.0,7757.0 C 2065.0,7658.0 2024.0,7617.0 1894.0,7547.0 C 1777.0,7483.0 1720.0,7469.0 1595.0,7472.0 C 1495.0,7474.0 1423.0,7452.0 1435.0,7422.0 C 1443.0,7400.0 1422.0,7390.0 1367.0,7390.0 C 1309.0,7390.0 1265.0,7373.0 1205.0,7326.0 C 1143.0,7279.0 1075.0,7269.0 1025.0,7300.0 C 993.0,7320.0 989.0,7320.0 968.0,7306.0 C 938.0,7285.0 930.0,7286.0 930.0,7313.0 C 929.0,7333.0 926.0,7332.0 895.0,7298.0 C 871.0,7273.0 846.0,7257.0 818.0,7251.0 C 791.0,7245.0 762.0,7227.0 731.0,7197.0 C 630.0,7100.0 544.0,7040.0 469.0,7015.0 C 377.0,6983.0 350.0,6958.0 320.0,6870.0 C 300.0,6812.0 292.0,6800.0 274.0,6800.0 C 257.0,6800.0 251.0,6808.0 246.0,6841.0 C 242.0,6863.0 242.0,6904.0 246.0,6931.0 C 252.0,6978.0 252.0,6980.0 228.0,6980.0 C 206.0,6980.0 198.0,6969.0 166.0,6900.0 C 117.0,6792.0 115.0,6775.0 139.0,6712.0 C 157.0,6667.0 159.0,6646.0 154.0,6577.0 C 148.0,6500.0 145.0,6491.0 99.0,6423.0 C 65.0,6373.0 50.0,6342.0 50.0,6318.0 C 50.0,6227.0 168.0,5965.0 261.0,5851.0 C 287.0,5819.0 288.0,5816.0 275.0,5780.0 C 267.0,5759.0 255.0,5730.0 248.0,5716.0 L 235.0,5690.0 L 211.0,5741.0 C 192.0,5780.0 182.0,5790.0 168.0,5787.0 C 154.0,5783.0 150.0,5788.0 150.0,5806.0 C 150.0,5838.0 124.0,5890.0 96.0,5912.0 C 67.0,5936.0 60.0,5934.0 60.0,5903.0 C 60.0,5846.0 80.0,5801.0 121.0,5766.0 C 157.0,5736.0 161.0,5728.0 158.0,5694.0 C 153.0,5630.0 126.0,5637.0 89.0,5713.0 C 55.0,5782.0 20.0,5816.0 20.0,5781.0 C 20.0,5770.0 14.0,5760.0 8.0,5757.0 C -2.0,5753.0 -2.0,5750.0 7.0,5739.0 C 14.0,5732.0 20.0,5718.0 20.0,5708.0 C 20.0,5697.0 41.0,5663.0 68.0,5632.0 C 94.0,5600.0 140.0,5537.0 170.0,5490.0 C 223.0,5409.0 225.0,5403.0 236.0,5308.0 C 247.0,5209.0 247.0,5209.0 293.0,5162.0 C 341.0,5112.0 372.0,5040.0 344.0,5040.0 C 323.0,5040.0 326.0,5034.0 386.0,4957.0 L 442.0,4885.0 L 436.0,4772.0 C 431.0,4662.0 431.0,4657.0 470.0,4531.0 C 498.0,4442.0 529.0,4369.0 571.0,4294.0 C 639.0,4171.0 649.0,4124.0 632.0,3975.0 C 625.0,3906.0 622.0,3899.0 613.0,3920.0 C 605.0,3938.0 603.0,3908.0 604.0,3800.0 C 605.0,3642.0 593.0,3580.0 560.0,3580.0 C 551.0,3580.0 523.0,3587.0 500.0,3595.0 C 477.0,3603.0 455.0,3610.0 452.0,3610.0 C 447.0,3610.0 458.0,3444.0 466.0,3400.0 C 471.0,3376.0 478.0,3371.0 517.0,3365.0 C 571.0,3357.0 639.0,3311.0 693.0,3246.0 C 714.0,3221.0 736.0,3200.0 741.0,3200.0 C 747.0,3200.0 784.0,3186.0 823.0,3169.0 C 888.0,3140.0 901.0,3138.0 966.0,3143.0 C 1006.0,3146.0 1057.0,3144.0 1081.0,3139.0 C 1107.0,3133.0 1127.0,3133.0 1133.0,3139.0 C 1138.0,3144.0 1154.0,3145.0 1173.0,3139.0 C 1193.0,3134.0 1208.0,3134.0 1214.0,3140.0 C 1220.0,3146.0 1237.0,3150.0 1252.0,3150.0 C 1268.0,3150.0 1283.0,3157.0 1286.0,3165.0 C 1290.0,3174.0 1305.0,3180.0 1321.0,3180.0 C 1347.0,3180.0 1349.0,3182.0 1340.0,3199.0 C 1324.0,3229.0 1327.0,3237.0 1361.0,3251.0 C 1379.0,3258.0 1406.0,3275.0 1423.0,3289.0 C 1445.0,3308.0 1466.0,3315.0 1499.0,3316.0 C 1563.0,3318.0 1623.0,3348.0 1616.0,3374.0 C 1613.0,3385.0 1619.0,3402.0 1630.0,3414.0 C 1641.0,3426.0 1658.0,3446.0 1668.0,3460.0 C 1687.0,3483.0 1689.0,3484.0 1739.0,3472.0 C 1814.0,3455.0 1854.0,3457.0 1883.0,3480.0 C 1901.0,3494.0 1923.0,3500.0 1962.0,3500.0 C 1992.0,3500.0 2021.0,3505.0 2028.0,3512.0 C 2037.0,3521.0 2056.0,3520.0 2110.0,3511.0 C 2149.0,3504.0 2197.0,3501.0 2216.0,3504.0 C 2242.0,3509.0 2252.0,3507.0 2257.0,3495.0 C 2261.0,3483.0 2269.0,3480.0 2284.0,3485.0 C 2295.0,3489.0 2350.0,3494.0 2405.0,3496.0 C 2487.0,3500.0 2507.0,3498.0 2516.0,3485.0 C 2525.0,3473.0 2533.0,3472.0 2554.0,3480.0 C 2569.0,3485.0 2591.0,3490.0 2604.0,3490.0 C 2645.0,3490.0 2706.0,3554.0 2734.0,3628.0 C 2774.0,3732.0 2791.0,3754.0 2846.0,3774.0 C 2873.0,3783.0 2911.0,3799.0 2930.0,3810.0 C 3008.0,3853.0 3125.0,3910.0 3134.0,3910.0 C 3140.0,3910.0 3156.0,3926.0 3170.0,3945.0 C 3208.0,3998.0 3248.0,4007.0 3357.0,3983.0 L 3446.0,3964.0 L 3616.0,4010.0 C 3737.0,4043.0 3813.0,4071.0 3886.0,4107.0 L 3986.0,4158.0 L 4091.0,4159.0 C 4157.0,4159.0 4213.0,4165.0 4245.0,4175.0 C 4283.0,4186.0 4317.0,4189.0 4386.0,4184.0 C 4462.0,4179.0 4482.0,4180.0 4501.0,4194.0 C 4514.0,4203.0 4544.0,4210.0 4568.0,4210.0 C 4606.0,4210.0 4620.0,4203.0 4683.0,4152.0 C 4803.0,4055.0 4802.0,4055.0 4872.0,4075.0 L 4931.0,4091.0 L 5001.0,4047.0 L 5070.0,4002.0 L 5120.0,4018.0 L 5170.0,4034.0 L 5201.0,4004.0 C 5226.0,3980.0 5231.0,3969.0 5228.0,3938.0 C 5226.0,3917.0 5226.0,3900.0 5229.0,3900.0 C 5231.0,3900.0 5248.0,3909.0 5266.0,3921.0 C 5292.0,3937.0 5301.0,3939.0 5304.0,3928.0 C 5306.0,3921.0 5313.0,3900.0 5319.0,3881.0 C 5329.0,3850.0 5328.0,3848.0 5309.0,3853.0 C 5290.0,3858.0 5288.0,3856.0 5294.0,3828.0 C 5297.0,3811.0 5300.0,3791.0 5300.0,3784.0 C 5300.0,3777.0 5341.0,3738.0 5391.0,3698.0 C 5464.0,3639.0 5481.0,3621.0 5477.0,3603.0 C 5474.0,3587.0 5488.0,3567.0 5532.0,3523.0 C 5582.0,3473.0 5590.0,3461.0 5585.0,3438.0 C 5581.0,3421.0 5584.0,3402.0 5594.0,3388.0 C 5603.0,3376.0 5610.0,3350.0 5610.0,3332.0 C 5610.0,3303.0 5607.0,3298.0 5590.0,3303.0 C 5565.0,3309.0 5571.0,3299.0 5632.0,3229.0 C 5676.0,3180.0 5681.0,3177.0 5707.0,3186.0 C 5732.0,3195.0 5735.0,3200.0 5735.0,3244.0 C 5735.0,3297.0 5761.0,3330.0 5787.0,3309.0 C 5797.0,3300.0 5802.0,3303.0 5809.0,3321.0 C 5851.0,3432.0 5889.0,3473.0 5995.0,3520.0 C 6060.0,3549.0 6076.0,3561.0 6079.0,3580.0 C 6080.0,3594.0 6097.0,3622.0 6116.0,3642.0 C 6135.0,3663.0 6150.0,3689.0 6150.0,3699.0 C 6150.0,3710.0 6155.0,3722.0 6161.0,3725.0 C 6167.0,3729.0 6184.0,3750.0 6200.0,3772.0 C 6223.0,3803.0 6227.0,3818.0 6223.0,3846.0 C 6219.0,3867.0 6221.0,3880.0 6228.0,3880.0 C 6244.0,3880.0 6262.0,3842.0 6255.0,3821.0 C 6252.0,3811.0 6256.0,3787.0 6265.0,3767.0 C 6284.0,3722.0 6284.0,3723.0 6260.0,3717.0 C 6238.0,3711.0 6236.0,3698.0 6250.0,3630.0 L 6258.0,3585.0 L 6205.0,3532.0 L 6151.0,3478.0 L 6138.0,3337.0 C 6127.0,3225.0 6122.0,3196.0 6111.0,3198.0 C 6103.0,3200.0 6080.0,3198.0 6060.0,3195.0 C 6031.0,3190.0 6020.0,3182.0 6007.0,3154.0 C 5981.0,3099.0 5984.0,3087.0 6023.0,3096.0 C 6040.0,3101.0 6088.0,3103.0 6128.0,3102.0 L 6200.0,3099.0 L 6200.0,3126.0 C 6200.0,3141.0 6211.0,3168.0 6225.0,3186.0 C 6243.0,3209.0 6252.0,3237.0 6257.0,3279.0 C 6260.0,3313.0 6266.0,3340.0 6270.0,3340.0 C 6274.0,3340.0 6281.0,3356.0 6284.0,3375.0 C 6288.0,3394.0 6295.0,3410.0 6300.0,3410.0 C 6320.0,3410.0 6374.0,3293.0 6391.0,3212.0 L 6408.0,3127.0 L 6375.0,3081.0 C 6330.0,3017.0 6307.0,2970.0 6321.0,2970.0 C 6327.0,2970.0 6345.0,2956.0 6360.0,2940.0 C 6386.0,2912.0 6390.0,2911.0 6404.0,2926.0 C 6413.0,2934.0 6420.0,2950.0 6420.0,2961.0 C 6420.0,2990.0 6446.0,2995.0 6504.0,2977.0 C 6568.0,2956.0 6622.0,2902.0 6680.0,2800.0 C 6715.0,2738.0 6723.0,2713.0 6728.0,2658.0 C 6731.0,2616.0 6728.0,2579.0 6720.0,2561.0 C 6709.0,2533.0 6711.0,2525.0 6750.0,2453.0 C 6789.0,2380.0 6892.0,2233.0 6914.0,2218.0 C 6920.0,2214.0 6954.0,2203.0 6990.0,2194.0 C 7067.0,2173.0 7140.0,2128.0 7140.0,2100.0 C 7140.0,2069.0 7188.0,2073.0 7200.0,2105.0 C 7208.0,2126.0 7214.0,2129.0 7242.0,2123.0 C 7260.0,2120.0 7288.0,2108.0 7304.0,2097.0 C 7324.0,2083.0 7346.0,2077.0 7375.0,2079.0 C 7411.0,2080.0 7421.0,2076.0 7442.0,2052.0 C 7460.0,2030.0 7479.0,2021.0 7515.0,2016.0 C 7549.0,2010.0 7569.0,2001.0 7582.0,1984.0 C 7593.0,1971.0 7608.0,1960.0 7617.0,1960.0 C 7625.0,1960.0 7645.0,1952.0 7661.0,1943.0 C 7691.0,1925.0 7697.0,1927.0 7712.0,1961.0 C 7720.0,1978.0 7909.0,2112.0 7935.0,2118.0 C 7971.0,2128.0 7985.0,2170.0 7952.0,2170.0 C 7942.0,2170.0 7930.0,2173.0 7927.0,2177.0 C 7916.0,2187.0 7992.0,2229.0 8021.0,2230.0 C 8044.0,2230.0 8049.0,2224.0 8058.0,2190.0 L 8068.0,2150.0 L 8023.0,2118.0 C 7973.0,2084.0 7973.0,2084.0 8057.0,2055.0 C 8114.0,2035.0 8127.0,2038.0 8111.0,2068.0 C 8095.0,2098.0 8108.0,2130.0 8136.0,2130.0 C 8165.0,2130.0 8176.0,2109.0 8162.0,2083.0 C 8147.0,2057.0 8171.0,2019.0 8219.0,1992.0 C 8242.0,1979.0 8260.0,1964.0 8260.0,1958.0 C 8260.0,1952.0 8267.0,1938.0 8276.0,1929.0 C 8289.0,1915.0 8297.0,1913.0 8311.0,1921.0 C 8332.0,1932.0 8350.0,1926.0 8350.0,1907.0 C 8350.0,1900.0 8359.0,1884.0 8370.0,1870.0 C 8390.0,1846.0 8391.0,1845.0 8405.0,1864.0 C 8413.0,1875.0 8420.0,1898.0 8420.0,1915.0 C 8420.0,1959.0 8441.0,1983.0 8512.0,2023.0 C 8547.0,2043.0 8628.0,2106.0 8693.0,2163.0 C 8810.0,2266.0 8813.0,2267.0 8872.0,2274.0 C 8958.0,2283.0 9060.0,2282.0 9095.0,2271.0 C 9147.0,2257.0 9239.0,2301.0 9278.0,2359.0 C 9314.0,2411.0 9320.0,2455.0 9302.0,2535.0 C 9292.0,2580.0 9293.0,2587.0 9310.0,2600.0 C 9325.0,2612.0 9333.0,2641.0 9345.0,2740.0 C 9362.0,2881.0 9399.0,2994.0 9454.0,3069.0 C 9493.0,3123.0 9510.0,3169.0 9510.0,3220.0 C 9510.0,3275.0 9535.0,3336.0 9577.0,3384.0 C 9614.0,3426.0 9640.0,3493.0 9640.0,3545.0 C 9640.0,3558.0 9666.0,3616.0 9698.0,3674.0 C 9742.0,3754.0 9767.0,3787.0 9807.0,3818.0 C 9867.0,3866.0 9990.0,4032.0 9990.0,4067.0 C 9990.0,4080.0 10001.0,4100.0 10015.0,4112.0 C 10033.0,4128.0 10040.0,4144.0 10040.0,4170.0 C 10040.0,4190.0 10044.0,4210.0 10049.0,4215.0 C 10065.0,4232.0 10091.0,4393.0 10080.0,4404.0 C 10065.0,4419.0 10069.0,4492.0 10085.0,4514.0 C 10093.0,4525.0 10100.0,4544.0 10100.0,4557.0 C 10100.0,4569.0 10114.0,4622.0 10130.0,4673.0 C 10148.0,4729.0 10160.0,4789.0 10160.0,4820.0 C 10160.0,4884.0 10172.0,4925.0 10211.0,5003.0 C 10228.0,5034.0 10236.0,5060.0 10230.0,5060.0 C 10225.0,5060.0 10220.0,5075.0 10220.0,5093.0 C 10220.0,5142.0 10161.0,5350.0 10139.0,5378.0 C 10129.0,5392.0 10120.0,5407.0 10120.0,5412.0 C 10120.0,5417.0 10110.0,5430.0 10098.0,5440.0 C 10079.0,5455.0 10077.0,5461.0 10088.0,5471.0 C 10103.0,5487.0 10106.0,5855.0 10091.0,5845.0 C 10082.0,5840.0 10060.0,5897.0 10060.0,5925.0 C 10060.0,5931.0 10055.0,5952.0 10049.0,5973.0 C 10042.0,6000.0 10034.0,6010.0 10019.0,6010.0 C 10007.0,6010.0 9985.0,6019.0 9969.0,6030.0 C 9945.0,6048.0 9940.0,6060.0 9934.0,6110.0 C 9929.0,6157.0 9924.0,6170.0 9911.0,6170.0 C 9886.0,6170.0 9814.0,6250.0 9800.0,6292.0 C 9786.0,6336.0 9744.0,6373.0 9716.0,6366.0 C 9693.0,6360.0 9596.0,6431.0 9552.0,6488.0 C 9523.0,6524.0 9521.0,6532.0 9514.0,6651.0 C 9509.0,6756.0 9504.0,6778.0 9487.0,6798.0 C 9460.0,6827.0 9450.0,6826.0 9450.0,6795.0 C 9450.0,6781.0 9447.0,6770.0 9444.0,6770.0 C 9423.0,6770.0 9371.0,6815.0 9352.0,6849.0 C 9335.0,6879.0 9325.0,6887.0 9310.0,6883.0 C 9294.0,6879.0 9290.0,6869.0 9290.0,6832.0 L 9290.0,6786.0 L 9235.0,6840.0 C 9182.0,6893.0 9180.0,6896.0 9180.0,6950.0 C 9180.0,7010.0 9158.0,7083.0 9132.0,7115.0 C 9122.0,7126.0 9106.0,7153.0 9095.0,7174.0 C 9084.0,7195.0 9054.0,7231.0 9028.0,7254.0 C 8974.0,7300.0 8964.0,7330.0 9005.0,7322.0 C 9019.0,7320.0 9030.0,7321.0 9030.0,7324.0 C 9030.0,7339.0 8989.0,7410.0 8981.0,7410.0 C 8976.0,7410.0 8958.0,7422.0 8941.0,7436.0 C 8917.0,7456.0 8910.0,7458.0 8910.0,7446.0 C 8910.0,7420.0 8876.0,7428.0 8859.0,7459.0 C 8847.0,7479.0 8832.0,7489.0 8806.0,7494.0 C 8780.0,7499.0 8766.0,7509.0 8758.0,7525.0 C 8750.0,7542.0 8743.0,7547.0 8735.0,7540.0 C 8727.0,7533.0 8717.0,7544.0 8702.0,7575.0 C 8682.0,7616.0 8677.0,7620.0 8645.0,7620.0 C 8617.0,7620.0 8602.0,7627.0 8579.0,7652.0 L 8550.0,7684.0 L 8550.0,7656.0 L 8550.0,7628.0 L 8503.0,7663.0 C 8476.0,7682.0 8445.0,7700.0 8433.0,7704.0 C 8400.0,7714.0 8376.0,7759.0 8379.0,7807.0 C 8381.0,7843.0 8376.0,7855.0 8345.0,7888.0 C 8306.0,7932.0 8303.0,7952.0 8320.0,8055.0 C 8329.0,8108.0 8327.0,8121.0 8305.0,8176.0 C 8291.0,8210.0 8280.0,8250.0 8280.0,8264.0 C 8280.0,8284.0 8274.0,8289.0 8253.0,8292.0 C 8233.0,8294.0 8224.0,8301.0 8222.0,8316.0 C 8220.0,8328.0 8208.0,8348.0 8194.0,8361.0 C 8178.0,8376.0 8170.0,8394.0 8170.0,8419.0 C 8170.0,8464.0 8152.0,8562.0 8134.0,8620.0 C 8126.0,8645.0 8120.0,8679.0 8120.0,8697.0 C 8120.0,8714.0 8115.0,8732.0 8109.0,8735.0 C 8102.0,8740.0 8104.0,8750.0 8114.0,8766.0 C 8132.0,8792.0 8134.0,8804.0 8121.0,8795.0 C 8116.0,8792.0 8089.0,8812.0 8061.0,8839.0 C 8034.0,8866.0 7999.0,8890.0 7985.0,8894.0 C 7971.0,8898.0 7956.0,8908.0 7953.0,8918.0 C 7925.0,8997.0 7921.0,9004.0 7902.0,8987.0 C 7892.0,8977.0 7875.0,8973.0 7863.0,8976.0 C 7847.0,8980.0 7837.0,8975.0 7825.0,8956.0 C 7813.0,8938.0 7799.0,8930.0 7779.0,8930.0 C 7746.0,8930.0 7730.0,8954.0 7711.0,9033.0 C 7705.0,9060.0 7693.0,9092.0 7685.0,9104.0 C 7673.0,9122.0 7672.0,9132.0 7682.0,9157.0 C 7691.0,9181.0 7691.0,9195.0 7683.0,9212.0 C 7676.0,9225.0 7669.0,9260.0 7667.0,9290.0 C 7665.0,9320.0 7657.0,9346.0 7651.0,9348.0 C 7645.0,9350.0 7640.0,9365.0 7640.0,9381.0 C 7640.0,9400.0 7629.0,9420.0 7606.0,9443.0 C 7562.0,9488.0 7553.0,9516.0 7576.0,9541.0 C 7598.0,9565.0 7584.0,9596.0 7552.0,9593.0 C 7529.0,9590.0 7519.0,9611.0 7495.0,9710.0 C 7462.0,9842.0 7460.0,9849.0 7439.0,9855.0 C 7424.0,9860.0 7422.0,9865.0 7429.0,9874.0 C 7443.0,9890.0 7433.0,9900.0 7403.0,9900.0 C 7387.0,9900.0 7380.0,9894.0 7380.0,9882.0" fill="pink"/>
	<path d="M 7968.0,1199.0 L 7971.0,1077.0 L 8025.0,1005.0 C 8081.0,928.0 8094.0,906.0 8134.0,817.0 L 8159.0,760.0 L 8130.0,775.0 C 8114.0,783.0 8099.0,790.0 8096.0,790.0 C 8094.0,790.0 8111.0,736.0 8134.0,670.0 C 8171.0,564.0 8182.0,543.0 8227.0,497.0 C 8255.0,468.0 8289.0,423.0 8303.0,396.0 L 8327.0,347.0 L 8391.0,349.0 C 8426.0,350.0 8469.0,346.0 8486.0,341.0 C 8510.0,334.0 8521.0,336.0 8531.0,346.0 C 8539.0,353.0 8563.0,366.0 8585.0,373.0 C 8613.0,383.0 8626.0,393.0 8628.0,409.0 C 8631.0,428.0 8628.0,430.0 8603.0,424.0 L 8575.0,418.0 L 8605.0,444.0 C 8622.0,458.0 8640.0,469.0 8646.0,470.0 C 8652.0,470.0 8655.0,483.0 8652.0,501.0 C 8649.0,524.0 8653.0,535.0 8669.0,546.0 C 8680.0,554.0 8690.0,570.0 8690.0,581.0 C 8690.0,604.0 8694.0,604.0 8725.0,584.0 C 8748.0,569.0 8748.0,568.0 8732.0,540.0 C 8716.0,512.0 8716.0,510.0 8740.0,485.0 L 8765.0,459.0 L 8783.0,482.0 C 8798.0,500.0 8801.0,514.0 8796.0,549.0 C 8788.0,604.0 8806.0,750.0 8826.0,808.0 C 8839.0,842.0 8846.0,850.0 8867.0,850.0 L 8892.0,850.0 L 8885.0,1038.0 L 8878.0,1225.0 L 8842.0,1263.0 C 8822.0,1283.0 8801.0,1300.0 8794.0,1300.0 C 8788.0,1300.0 8753.0,1287.0 8717.0,1270.0 C 8666.0,1247.0 8636.0,1240.0 8590.0,1240.0 C 8551.0,1240.0 8521.0,1234.0 8504.0,1224.0 C 8490.0,1215.0 8454.0,1201.0 8424.0,1194.0 L 8369.0,1182.0 L 8250.0,1236.0 C 8140.0,1286.0 8034.0,1319.0 7985.0,1320.0 C 7966.0,1320.0 7965.0,1314.0 7968.0,1199.0" fill="pink"/>
</svg>
