<?xml version="1.0" ?>
<svg xmlns="http://www.w3.org/2000/svg" xmlns:ev="http://www.w3.org/2001/xml-events" xmlns:xlink="http://www.w3.org/1999/xlink" baseProfile="full" height="600px" version="1.1" viewBox="-554.5313548325337 -1030.1229142258976 11355.052400270615 12298.27482572441" width="554px">
	<defs/>
	<path d="M 864.0,10218.0 C 820.0,10201.0 808.0,10190.0 784.0,10147.0 C 769.0,10118.0 740.0,10075.0 720.0,10050.0 C 700.0,10025.0 676.0,9985.0 667.0,9960.0 L 650.0,9915.0 L 789.0,9775.0 L 928.0,9635.0 L 960.0,9495.0 C 978.0,9418.0 1001.0,9324.0 1011.0,9285.0 C 1021.0,9247.0 1030.0,9196.0 1030.0,9172.0 C 1030.0,9144.0 1039.0,9114.0 1054.0,9087.0 C 1079.0,9045.0 1123.0,8893.0 1134.0,8812.0 C 1138.0,8788.0 1165.0,8714.0 1195.0,8649.0 C 1246.0,8539.0 1250.0,8523.0 1250.0,8456.0 C 1250.0,8390.0 1252.0,8382.0 1274.0,8370.0 C 1310.0,8351.0 1340.0,8222.0 1340.0,8089.0 C 1340.0,7996.0 1338.0,7984.0 1315.0,7954.0 C 1297.0,7931.0 1290.0,7909.0 1290.0,7878.0 C 1290.0,7826.0 1252.0,7701.0 1208.0,7604.0 C 1185.0,7554.0 1164.0,7525.0 1140.0,7509.0 C 1060.0,7454.0 978.0,7366.0 944.0,7298.0 C 916.0,7242.0 905.0,7230.0 886.0,7230.0 C 863.0,7230.0 861.0,7226.0 855.0,7155.0 C 851.0,7114.0 851.0,7038.0 854.0,6987.0 L 861.0,6895.0 L 790.0,6745.0 C 728.0,6617.0 709.0,6587.0 656.0,6534.0 C 623.0,6500.0 580.0,6446.0 561.0,6414.0 C 542.0,6382.0 521.0,6346.0 514.0,6334.0 C 507.0,6323.0 480.0,6305.0 453.0,6295.0 C 427.0,6285.0 402.0,6274.0 397.0,6271.0 C 387.0,6261.0 454.0,6109.0 476.0,6093.0 C 485.0,6086.0 516.0,6073.0 544.0,6064.0 C 571.0,6055.0 621.0,6034.0 655.0,6019.0 L 715.0,5990.0 L 749.0,5890.0 C 768.0,5835.0 788.0,5786.0 795.0,5780.0 C 801.0,5775.0 834.0,5760.0 868.0,5747.0 C 924.0,5726.0 936.0,5716.0 998.0,5637.0 C 1038.0,5586.0 1073.0,5530.0 1081.0,5503.0 C 1095.0,5458.0 1097.0,5457.0 1158.0,5440.0 C 1226.0,5421.0 1265.0,5392.0 1284.0,5346.0 C 1294.0,5320.0 1301.0,5316.0 1342.0,5315.0 C 1402.0,5312.0 1420.0,5301.0 1390.0,5285.0 C 1367.0,5273.0 1368.0,5272.0 1408.0,5265.0 C 1450.0,5258.0 1466.0,5240.0 1431.0,5240.0 C 1420.0,5240.0 1409.0,5237.0 1406.0,5232.0 C 1402.0,5225.0 1572.0,5100.0 1579.0,5106.0 C 1581.0,5107.0 1573.0,5121.0 1561.0,5136.0 C 1544.0,5157.0 1542.0,5165.0 1552.0,5172.0 C 1577.0,5187.0 1593.0,5180.0 1646.0,5130.0 C 1675.0,5103.0 1703.0,5080.0 1709.0,5080.0 C 1714.0,5080.0 1733.0,5060.0 1750.0,5035.0 C 1767.0,5010.0 1788.0,4990.0 1796.0,4990.0 C 1805.0,4990.0 1843.0,4971.0 1881.0,4948.0 L 1949.0,4905.0 L 2004.0,4788.0 C 2052.0,4684.0 2058.0,4667.0 2049.0,4638.0 C 2032.0,4579.0 2038.0,4531.0 2064.0,4507.0 C 2079.0,4493.0 2090.0,4470.0 2092.0,4450.0 C 2095.0,4415.0 2096.0,4415.0 2195.0,4383.0 C 2368.0,4327.0 2424.0,4301.0 2445.0,4269.0 C 2464.0,4242.0 2468.0,4240.0 2510.0,4246.0 C 2549.0,4251.0 2563.0,4247.0 2615.0,4218.0 C 2721.0,4158.0 2727.0,4151.0 2765.0,4070.0 L 2802.0,3992.0 L 2880.0,3955.0 C 2930.0,3932.0 2967.0,3907.0 2982.0,3887.0 C 3005.0,3856.0 3006.0,3852.0 2994.0,3785.0 C 2988.0,3747.0 2983.0,3715.0 2984.0,3714.0 C 3019.0,3695.0 3155.0,3591.0 3166.0,3575.0 C 3175.0,3562.0 3194.0,3548.0 3210.0,3545.0 C 3226.0,3541.0 3250.0,3530.0 3263.0,3520.0 C 3282.0,3505.0 3293.0,3503.0 3326.0,3510.0 C 3347.0,3515.0 3379.0,3520.0 3397.0,3520.0 L 3429.0,3520.0 L 3424.0,3468.0 C 3419.0,3417.0 3420.0,3413.0 3459.0,3372.0 C 3481.0,3349.0 3504.0,3330.0 3511.0,3330.0 C 3518.0,3330.0 3520.0,3321.0 3517.0,3308.0 C 3512.0,3288.0 3520.0,3280.0 3576.0,3248.0 C 3613.0,3227.0 3645.0,3212.0 3650.0,3215.0 C 3654.0,3217.0 3668.0,3244.0 3680.0,3274.0 L 3702.0,3329.0 L 3753.0,3309.0 C 3791.0,3294.0 3821.0,3289.0 3863.0,3292.0 C 3917.0,3296.0 3920.0,3295.0 3920.0,3273.0 C 3920.0,3257.0 3933.0,3242.0 3963.0,3224.0 C 3986.0,3209.0 4025.0,3180.0 4050.0,3160.0 C 4081.0,3134.0 4108.0,3121.0 4137.0,3117.0 C 4193.0,3110.0 4227.0,3092.0 4369.0,2990.0 C 4483.0,2909.0 4489.0,2903.0 4489.0,2869.0 C 4490.0,2844.0 4498.0,2826.0 4518.0,2807.0 C 4533.0,2792.0 4549.0,2780.0 4552.0,2780.0 C 4555.0,2780.0 4552.0,2815.0 4545.0,2858.0 C 4528.0,2964.0 4542.0,3033.0 4586.0,3061.0 C 4612.0,3077.0 4622.0,3097.0 4653.0,3192.0 C 4679.0,3272.0 4686.0,3308.0 4679.0,3321.0 C 4664.0,3349.0 4668.0,3360.0 4694.0,3360.0 C 4713.0,3360.0 4720.0,3352.0 4730.0,3315.0 C 4742.0,3274.0 4741.0,3269.0 4722.0,3253.0 C 4709.0,3242.0 4694.0,3204.0 4681.0,3152.0 C 4669.0,3101.0 4651.0,3057.0 4636.0,3039.0 C 4621.0,3022.0 4608.0,2990.0 4604.0,2962.0 C 4600.0,2936.0 4591.0,2898.0 4584.0,2877.0 C 4573.0,2847.0 4573.0,2829.0 4582.0,2789.0 C 4592.0,2746.0 4603.0,2731.0 4664.0,2676.0 C 4714.0,2633.0 4754.0,2607.0 4798.0,2591.0 C 4857.0,2569.0 4860.0,2566.0 4860.0,2535.0 C 4860.0,2513.0 4870.0,2490.0 4887.0,2470.0 C 4909.0,2443.0 4918.0,2439.0 4945.0,2444.0 C 4969.0,2449.0 4981.0,2445.0 4994.0,2431.0 C 5004.0,2420.0 5029.0,2409.0 5050.0,2405.0 C 5080.0,2400.0 5104.0,2382.0 5171.0,2314.0 C 5225.0,2261.0 5263.0,2230.0 5277.0,2230.0 C 5303.0,2230.0 5360.0,2163.0 5384.0,2106.0 C 5397.0,2076.0 5404.0,2069.0 5420.0,2073.0 C 5433.0,2076.0 5445.0,2071.0 5453.0,2059.0 C 5461.0,2049.0 5482.0,2035.0 5501.0,2029.0 C 5551.0,2012.0 5559.0,2003.0 5566.0,1950.0 C 5569.0,1924.0 5575.0,1899.0 5579.0,1894.0 C 5596.0,1869.0 5665.0,1829.0 5755.0,1791.0 C 5845.0,1752.0 5862.0,1741.0 5925.0,1675.0 C 5982.0,1615.0 6008.0,1595.0 6067.0,1571.0 C 6111.0,1552.0 6156.0,1540.0 6183.0,1540.0 C 6223.0,1540.0 6229.0,1537.0 6238.0,1512.0 C 6246.0,1488.0 6258.0,1481.0 6331.0,1460.0 C 6377.0,1447.0 6442.0,1424.0 6475.0,1409.0 C 6535.0,1381.0 6637.0,1356.0 6742.0,1344.0 C 6784.0,1339.0 6803.0,1341.0 6820.0,1353.0 C 6840.0,1367.0 6847.0,1364.0 6928.0,1318.0 C 6976.0,1291.0 7019.0,1264.0 7024.0,1259.0 C 7038.0,1247.0 7013.0,1172.0 6991.0,1161.0 C 6977.0,1153.0 6969.0,1157.0 6952.0,1179.0 C 6935.0,1203.0 6922.0,1208.0 6868.0,1214.0 C 6833.0,1217.0 6783.0,1229.0 6755.0,1239.0 C 6728.0,1249.0 6669.0,1272.0 6625.0,1288.0 C 6581.0,1305.0 6498.0,1331.0 6440.0,1345.0 C 6286.0,1384.0 6249.0,1398.0 6213.0,1433.0 C 6191.0,1454.0 6180.0,1459.0 6180.0,1449.0 C 6180.0,1418.0 6236.0,1381.0 6328.0,1351.0 C 6380.0,1334.0 6432.0,1320.0 6443.0,1320.0 C 6455.0,1320.0 6499.0,1301.0 6540.0,1279.0 C 6601.0,1245.0 6640.0,1233.0 6750.0,1211.0 L 6885.0,1184.0 L 6911.0,1136.0 C 6934.0,1094.0 6946.0,1084.0 6996.0,1064.0 C 7035.0,1048.0 7069.0,1025.0 7096.0,996.0 C 7177.0,908.0 7273.0,889.0 7421.0,930.0 C 7521.0,957.0 7715.0,959.0 7785.0,933.0 C 7831.0,916.0 7837.0,910.0 7853.0,865.0 C 7870.0,816.0 7873.0,814.0 7943.0,788.0 C 7998.0,767.0 8020.0,753.0 8033.0,730.0 C 8044.0,713.0 8059.0,700.0 8071.0,700.0 C 8082.0,700.0 8138.0,656.0 8200.0,600.0 L 8308.0,500.0 L 8406.0,500.0 C 8481.0,500.0 8507.0,504.0 8521.0,516.0 C 8537.0,530.0 8541.0,530.0 8564.0,515.0 C 8585.0,501.0 8595.0,500.0 8621.0,509.0 C 8657.0,521.0 8654.0,523.0 8740.0,457.0 C 8884.0,346.0 8960.0,251.0 8960.0,183.0 C 8960.0,169.0 8950.0,145.0 8938.0,132.0 L 8915.0,108.0 L 8955.0,73.0 C 8977.0,54.0 9007.0,29.0 9022.0,19.0 L 9049.0,-1.0 L 9055.0,37.0 C 9066.0,100.0 9066.0,100.0 9119.0,100.0 C 9160.0,100.0 9171.0,96.0 9181.0,79.0 C 9191.0,60.0 9188.0,54.0 9164.0,34.0 L 9135.0,11.0 L 9288.0,10.0 L 9440.0,10.0 L 9440.0,33.0 C 9440.0,81.0 9621.0,137.0 9732.0,124.0 L 9787.0,118.0 L 9794.0,186.0 C 9799.0,240.0 9807.0,261.0 9826.0,281.0 L 9850.0,306.0 L 9810.0,339.0 C 9788.0,357.0 9743.0,410.0 9711.0,458.0 L 9653.0,545.0 L 9625.0,722.0 C 9599.0,886.0 9595.0,901.0 9568.0,927.0 L 9540.0,954.0 L 9565.0,980.0 L 9590.0,1007.0 L 9575.0,1076.0 C 9541.0,1222.0 9542.0,1220.0 9497.0,1239.0 C 9474.0,1249.0 9447.0,1267.0 9437.0,1278.0 C 9420.0,1297.0 9419.0,1304.0 9431.0,1374.0 C 9438.0,1416.0 9447.0,1450.0 9450.0,1450.0 C 9453.0,1450.0 9464.0,1456.0 9473.0,1463.0 C 9489.0,1474.0 9484.0,1491.0 9410.0,1673.0 C 9357.0,1804.0 9318.0,1920.0 9293.0,2018.0 C 9261.0,2149.0 9249.0,2178.0 9187.0,2290.0 C 9148.0,2359.0 9102.0,2436.0 9084.0,2461.0 C 9051.0,2506.0 9051.0,2506.0 9062.0,2571.0 C 9073.0,2633.0 9071.0,2641.0 9021.0,2830.0 C 8950.0,3095.0 8898.0,3232.0 8824.0,3354.0 L 8762.0,3455.0 L 8690.0,3452.0 C 8605.0,3449.0 8517.0,3470.0 8438.0,3512.0 C 8389.0,3538.0 8373.0,3555.0 8316.0,3641.0 C 8279.0,3697.0 8235.0,3750.0 8215.0,3762.0 C 8190.0,3779.0 8179.0,3794.0 8175.0,3823.0 C 8170.0,3851.0 8157.0,3870.0 8124.0,3897.0 C 8087.0,3929.0 8080.0,3940.0 8080.0,3971.0 C 8080.0,4001.0 8074.0,4012.0 8046.0,4034.0 C 8027.0,4048.0 8009.0,4068.0 8005.0,4078.0 C 8002.0,4089.0 7975.0,4114.0 7946.0,4134.0 C 7916.0,4155.0 7868.0,4197.0 7838.0,4228.0 C 7809.0,4259.0 7756.0,4310.0 7721.0,4341.0 C 7665.0,4391.0 7653.0,4397.0 7629.0,4390.0 C 7606.0,4383.0 7597.0,4388.0 7559.0,4427.0 C 7492.0,4495.0 7431.0,4530.0 7380.0,4530.0 L 7337.0,4530.0 L 7344.0,4594.0 L 7350.0,4657.0 L 7295.0,4694.0 C 7265.0,4714.0 7213.0,4763.0 7180.0,4804.0 C 7128.0,4867.0 7114.0,4878.0 7080.0,4884.0 C 7041.0,4890.0 7040.0,4891.0 7040.0,4930.0 L 7040.0,4970.0 L 6981.0,4986.0 C 6923.0,5002.0 6922.0,5003.0 6930.0,5032.0 C 6941.0,5068.0 6916.0,5116.0 6882.0,5125.0 C 6866.0,5129.0 6851.0,5147.0 6835.0,5183.0 C 6815.0,5229.0 6813.0,5246.0 6817.0,5327.0 C 6822.0,5402.0 6820.0,5424.0 6806.0,5445.0 C 6797.0,5459.0 6782.0,5470.0 6774.0,5470.0 C 6765.0,5470.0 6724.0,5488.0 6684.0,5511.0 L 6610.0,5552.0 L 6592.0,5530.0 C 6559.0,5489.0 6520.0,5534.0 6533.0,5599.0 C 6538.0,5625.0 6535.0,5629.0 6497.0,5646.0 C 6474.0,5657.0 6442.0,5676.0 6426.0,5690.0 C 6404.0,5708.0 6388.0,5713.0 6358.0,5711.0 L 6319.0,5708.0 L 6325.0,5752.0 C 6331.0,5795.0 6330.0,5796.0 6255.0,5878.0 C 6175.0,5964.0 6104.0,6015.0 6077.0,6004.0 C 6065.0,6000.0 6058.0,6009.0 6050.0,6042.0 C 6043.0,6065.0 6030.0,6094.0 6020.0,6105.0 C 6010.0,6116.0 5992.0,6145.0 5980.0,6169.0 L 5958.0,6214.0 L 5929.0,6179.0 C 5913.0,6160.0 5900.0,6142.0 5900.0,6138.0 C 5900.0,6135.0 5882.0,6129.0 5860.0,6125.0 C 5829.0,6120.0 5820.0,6114.0 5820.0,6099.0 C 5820.0,6084.0 5815.0,6081.0 5796.0,6086.0 C 5783.0,6089.0 5738.0,6086.0 5696.0,6080.0 C 5620.0,6069.0 5581.0,6074.0 5526.0,6102.0 C 5514.0,6108.0 5504.0,6108.0 5497.0,6101.0 C 5479.0,6083.0 5470.0,6088.0 5470.0,6114.0 C 5470.0,6128.0 5465.0,6151.0 5460.0,6166.0 C 5451.0,6189.0 5453.0,6197.0 5474.0,6219.0 L 5500.0,6246.0 L 5474.0,6283.0 C 5460.0,6304.0 5450.0,6329.0 5452.0,6339.0 C 5457.0,6369.0 5431.0,6390.0 5388.0,6390.0 C 5358.0,6390.0 5338.0,6398.0 5307.0,6424.0 C 5284.0,6443.0 5231.0,6479.0 5189.0,6504.0 C 5136.0,6536.0 5109.0,6559.0 5100.0,6580.0 C 5089.0,6606.0 5082.0,6610.0 5051.0,6610.0 C 5024.0,6610.0 4995.0,6622.0 4946.0,6655.0 C 4878.0,6700.0 4847.0,6709.0 4835.0,6690.0 C 4823.0,6670.0 4812.0,6681.0 4806.0,6719.0 C 4798.0,6773.0 4766.0,6792.0 4706.0,6781.0 C 4654.0,6772.0 4650.0,6774.0 4650.0,6809.0 C 4650.0,6831.0 4633.0,6846.0 4550.0,6900.0 C 4495.0,6936.0 4446.0,6964.0 4442.0,6963.0 C 4438.0,6962.0 4427.0,6958.0 4418.0,6955.0 C 4404.0,6949.0 4400.0,6953.0 4400.0,6974.0 C 4400.0,7015.0 4350.0,7036.0 4286.0,7020.0 C 4215.0,7004.0 4167.0,7017.0 4087.0,7076.0 C 4031.0,7117.0 4018.0,7132.0 4009.0,7168.0 C 4001.0,7198.0 3986.0,7220.0 3959.0,7242.0 C 3931.0,7265.0 3914.0,7291.0 3894.0,7342.0 C 3873.0,7397.0 3862.0,7414.0 3835.0,7428.0 C 3816.0,7437.0 3785.0,7466.0 3765.0,7492.0 C 3745.0,7519.0 3685.0,7573.0 3631.0,7614.0 C 3577.0,7655.0 3505.0,7713.0 3470.0,7744.0 C 3423.0,7784.0 3397.0,7800.0 3371.0,7802.0 C 3337.0,7805.0 3336.0,7806.0 3311.0,7885.0 L 3285.0,7964.0 L 3083.0,8155.0 C 2972.0,8259.0 2868.0,8363.0 2852.0,8385.0 C 2785.0,8480.0 2662.0,8696.0 2600.0,8830.0 C 2563.0,8910.0 2513.0,9005.0 2489.0,9042.0 C 2465.0,9079.0 2428.0,9135.0 2408.0,9168.0 C 2372.0,9227.0 2370.0,9228.0 2302.0,9244.0 C 2243.0,9259.0 2226.0,9269.0 2186.0,9309.0 L 2139.0,9357.0 L 2084.0,9342.0 L 2030.0,9327.0 L 1993.0,9371.0 C 1972.0,9395.0 1920.0,9452.0 1877.0,9497.0 C 1810.0,9566.0 1791.0,9580.0 1750.0,9590.0 C 1696.0,9603.0 1559.0,9696.0 1419.0,9817.0 C 1323.0,9899.0 1265.0,9982.0 1275.0,10023.0 C 1282.0,10049.0 1281.0,10049.0 1157.0,10101.0 C 1119.0,10117.0 1053.0,10154.0 1009.0,10185.0 C 966.0,10215.0 927.0,10240.0 923.0,10239.0 C 919.0,10239.0 892.0,10230.0 864.0,10218.0" fill="pink"/>
</svg>
