<?xml version="1.0" ?>
<svg xmlns="http://www.w3.org/2000/svg" xmlns:ev="http://www.w3.org/2001/xml-events" xmlns:xlink="http://www.w3.org/1999/xlink" baseProfile="full" height="481px" version="1.1" viewBox="-1027.078761604298 194.12531191222854 12294.073737800749 9853.020876964909" width="600px">
	<defs/>
	<path d="M 6638.0,9205.0 C 6602.0,9192.0 6551.0,9167.0 6526.0,9148.0 C 6488.0,9120.0 6480.0,9109.0 6475.0,9070.0 C 6465.0,9001.0 6463.0,8998.0 6411.0,8955.0 C 6364.0,8917.0 6359.0,8908.0 6315.0,8780.0 C 6289.0,8706.0 6263.0,8639.0 6257.0,8633.0 C 6252.0,8626.0 6235.0,8620.0 6221.0,8620.0 C 6206.0,8620.0 6152.0,8600.0 6102.0,8575.0 C 6020.0,8536.0 6007.0,8525.0 5978.0,8479.0 C 5943.0,8422.0 5901.0,8398.0 5743.0,8346.0 C 5661.0,8319.0 5660.0,8318.0 5660.0,8284.0 C 5660.0,8257.0 5654.0,8248.0 5631.0,8236.0 C 5614.0,8227.0 5600.0,8209.0 5596.0,8193.0 C 5592.0,8178.0 5578.0,8128.0 5564.0,8083.0 L 5539.0,8001.0 L 5497.0,7998.0 L 5456.0,7995.0 L 5427.0,7906.0 L 5399.0,7817.0 L 5432.0,7783.0 L 5465.0,7748.0 L 5430.0,7719.0 C 5411.0,7703.0 5379.0,7687.0 5358.0,7684.0 C 5321.0,7678.0 5310.0,7662.0 5310.0,7613.0 C 5310.0,7590.0 5311.0,7590.0 5146.0,7569.0 L 5057.0,7558.0 L 5033.0,7589.0 C 5010.0,7618.0 5005.0,7620.0 4939.0,7620.0 C 4873.0,7620.0 4869.0,7619.0 4858.0,7593.0 C 4851.0,7577.0 4845.0,7564.0 4844.0,7562.0 C 4843.0,7560.0 4826.0,7562.0 4806.0,7566.0 C 4777.0,7571.0 4765.0,7580.0 4750.0,7611.0 C 4732.0,7645.0 4727.0,7648.0 4698.0,7644.0 C 4680.0,7642.0 4629.0,7636.0 4586.0,7631.0 C 4496.0,7620.0 4501.0,7618.0 4343.0,7738.0 C 4282.0,7783.0 4268.0,7800.0 4255.0,7840.0 C 4246.0,7866.0 4230.0,7896.0 4219.0,7906.0 C 4178.0,7943.0 4120.0,8054.0 4120.0,8095.0 C 4120.0,8125.0 4106.0,8155.0 4058.0,8232.0 C 3990.0,8341.0 3987.0,8344.0 3948.0,8354.0 C 3923.0,8360.0 3920.0,8357.0 3920.0,8337.0 C 3920.0,8320.0 3908.0,8305.0 3880.0,8286.0 C 3858.0,8272.0 3836.0,8260.0 3831.0,8260.0 C 3808.0,8260.0 3772.0,8322.0 3761.0,8381.0 C 3749.0,8439.0 3742.0,8451.0 3684.0,8512.0 C 3649.0,8548.0 3620.0,8585.0 3620.0,8594.0 C 3620.0,8607.0 3606.0,8610.0 3536.0,8610.0 L 3453.0,8610.0 L 3423.0,8678.0 C 3406.0,8715.0 3387.0,8768.0 3380.0,8795.0 C 3364.0,8855.0 3364.0,8856.0 3320.0,8864.0 C 3289.0,8869.0 3283.0,8866.0 3265.0,8840.0 C 3246.0,8812.0 3241.0,8810.0 3181.0,8810.0 C 3127.0,8810.0 3111.0,8806.0 3082.0,8783.0 C 3035.0,8748.0 3015.0,8760.0 3014.0,8825.0 C 3013.0,8869.0 3011.0,8873.0 2966.0,8903.0 C 2925.0,8929.0 2910.0,8933.0 2862.0,8931.0 C 2828.0,8930.0 2776.0,8938.0 2735.0,8950.0 C 2652.0,8974.0 2636.0,8975.0 2643.0,8956.0 C 2667.0,8894.0 2663.0,8877.0 2596.0,8785.0 C 2560.0,8736.0 2525.0,8687.0 2518.0,8677.0 C 2510.0,8666.0 2484.0,8656.0 2452.0,8651.0 L 2399.0,8643.0 L 2368.0,8682.0 C 2351.0,8704.0 2334.0,8718.0 2330.0,8713.0 C 2326.0,8709.0 2310.0,8672.0 2295.0,8632.0 L 2267.0,8560.0 L 2300.0,8452.0 C 2318.0,8393.0 2344.0,8326.0 2358.0,8302.0 C 2381.0,8261.0 2385.0,8259.0 2424.0,8261.0 C 2514.0,8265.0 2525.0,8260.0 2535.0,8207.0 C 2542.0,8173.0 2540.0,8170.0 2520.0,8170.0 C 2500.0,8170.0 2498.0,8166.0 2504.0,8138.0 C 2513.0,8094.0 2530.0,8070.0 2592.0,8017.0 C 2626.0,7988.0 2679.0,7958.0 2739.0,7934.0 C 2793.0,7912.0 2850.0,7880.0 2875.0,7858.0 C 2916.0,7822.0 2921.0,7820.0 3014.0,7814.0 C 3102.0,7808.0 3113.0,7804.0 3140.0,7779.0 C 3156.0,7763.0 3181.0,7750.0 3194.0,7750.0 C 3218.0,7750.0 3230.0,7722.0 3230.0,7662.0 C 3230.0,7648.0 3245.0,7621.0 3266.0,7597.0 L 3303.0,7557.0 L 3255.0,7515.0 L 3207.0,7474.0 L 3214.0,7409.0 C 3218.0,7374.0 3223.0,7331.0 3226.0,7314.0 L 3232.0,7283.0 L 3154.0,7274.0 L 3076.0,7265.0 L 3030.0,7188.0 C 3005.0,7145.0 2981.0,7110.0 2977.0,7110.0 C 2972.0,7110.0 2956.0,7119.0 2940.0,7130.0 C 2925.0,7141.0 2859.0,7168.0 2794.0,7191.0 C 2682.0,7229.0 2672.0,7235.0 2627.0,7286.0 L 2578.0,7340.0 L 2515.0,7340.0 C 2427.0,7340.0 2276.0,7303.0 2210.0,7266.0 C 2158.0,7237.0 2150.0,7235.0 2070.0,7238.0 C 1990.0,7242.0 1980.0,7245.0 1909.0,7286.0 C 1835.0,7329.0 1831.0,7330.0 1745.0,7330.0 L 1658.0,7330.0 L 1589.0,7391.0 C 1529.0,7444.0 1520.0,7456.0 1520.0,7487.0 C 1520.0,7518.0 1524.0,7523.0 1560.0,7537.0 C 1582.0,7546.0 1600.0,7556.0 1600.0,7560.0 C 1600.0,7564.0 1591.0,7578.0 1580.0,7592.0 C 1564.0,7613.0 1549.0,7618.0 1495.0,7623.0 C 1455.0,7627.0 1415.0,7638.0 1395.0,7650.0 C 1375.0,7662.0 1345.0,7670.0 1318.0,7670.0 C 1278.0,7670.0 1271.0,7673.0 1261.0,7698.0 C 1252.0,7719.0 1228.0,7737.0 1164.0,7768.0 C 1118.0,7791.0 1076.0,7810.0 1071.0,7810.0 C 1065.0,7810.0 1058.0,7800.0 1055.0,7789.0 C 1049.0,7771.0 1042.0,7768.0 1008.0,7773.0 C 983.0,7776.0 957.0,7789.0 940.0,7805.0 C 912.0,7832.0 909.0,7832.0 835.0,7825.0 L 759.0,7818.0 L 734.0,7768.0 C 712.0,7725.0 701.0,7714.0 652.0,7693.0 C 600.0,7670.0 589.0,7659.0 516.0,7557.0 C 446.0,7457.0 428.0,7439.0 349.0,7385.0 C 300.0,7352.0 260.0,7323.0 260.0,7320.0 C 260.0,7317.0 281.0,7302.0 306.0,7286.0 C 331.0,7270.0 363.0,7240.0 377.0,7218.0 L 403.0,7179.0 L 382.0,7157.0 L 360.0,7134.0 L 392.0,7110.0 C 422.0,7088.0 427.0,7087.0 480.0,7098.0 C 511.0,7105.0 541.0,7110.0 546.0,7110.0 C 566.0,7110.0 620.0,7022.0 620.0,6992.0 C 620.0,6936.0 613.0,6930.0 551.0,6930.0 C 505.0,6930.0 485.0,6924.0 447.0,6900.0 C 395.0,6867.0 393.0,6862.0 415.0,6820.0 C 429.0,6793.0 431.0,6792.0 467.0,6803.0 C 488.0,6809.0 518.0,6823.0 534.0,6834.0 L 563.0,6853.0 L 589.0,6822.0 C 603.0,6805.0 632.0,6784.0 653.0,6775.0 C 703.0,6754.0 704.0,6720.0 655.0,6690.0 C 614.0,6665.0 613.0,6661.0 642.0,6625.0 L 663.0,6598.0 L 680.0,6630.0 C 694.0,6657.0 810.0,6750.0 830.0,6750.0 C 834.0,6750.0 849.0,6732.0 863.0,6711.0 L 890.0,6671.0 L 977.0,6701.0 C 1025.0,6717.0 1068.0,6730.0 1073.0,6730.0 C 1082.0,6730.0 1077.0,6678.0 1063.0,6622.0 C 1058.0,6599.0 1059.0,6599.0 1103.0,6605.0 L 1149.0,6612.0 L 1166.0,6571.0 C 1179.0,6538.0 1187.0,6530.0 1208.0,6530.0 C 1223.0,6530.0 1253.0,6514.0 1281.0,6490.0 C 1316.0,6460.0 1337.0,6450.0 1363.0,6450.0 C 1393.0,6450.0 1398.0,6446.0 1403.0,6423.0 C 1410.0,6391.0 1373.0,6273.0 1355.0,6266.0 C 1348.0,6264.0 1279.0,6220.0 1201.0,6169.0 C 1065.0,6080.0 1057.0,6073.0 1014.0,6002.0 L 970.0,5929.0 L 990.0,5882.0 C 1009.0,5839.0 1018.0,5830.0 1085.0,5797.0 C 1156.0,5762.0 1160.0,5758.0 1160.0,5728.0 C 1160.0,5710.0 1153.0,5686.0 1145.0,5676.0 C 1124.0,5648.0 1126.0,5638.0 1166.0,5586.0 C 1191.0,5553.0 1221.0,5529.0 1272.0,5504.0 C 1378.0,5451.0 1481.0,5369.0 1510.0,5316.0 C 1523.0,5290.0 1541.0,5268.0 1550.0,5265.0 C 1558.0,5263.0 1596.0,5254.0 1635.0,5245.0 C 1673.0,5236.0 1763.0,5203.0 1835.0,5171.0 C 1938.0,5125.0 1979.0,5111.0 2033.0,5106.0 C 2070.0,5103.0 2105.0,5098.0 2111.0,5094.0 C 2117.0,5091.0 2111.0,5075.0 2096.0,5055.0 C 2081.0,5036.0 2070.0,5019.0 2070.0,5017.0 C 2070.0,5015.0 2093.0,4998.0 2120.0,4979.0 C 2159.0,4953.0 2170.0,4940.0 2166.0,4925.0 C 2164.0,4914.0 2156.0,4870.0 2149.0,4827.0 C 2138.0,4752.0 2135.0,4747.0 2103.0,4732.0 C 2074.0,4718.0 2070.0,4712.0 2070.0,4677.0 C 2070.0,4646.0 2057.0,4616.0 2009.0,4538.0 C 1975.0,4484.0 1945.0,4441.0 1941.0,4443.0 C 1938.0,4444.0 1897.0,4464.0 1850.0,4487.0 C 1765.0,4527.0 1765.0,4527.0 1685.0,4519.0 C 1641.0,4515.0 1575.0,4511.0 1538.0,4511.0 L 1471.0,4510.0 L 1496.0,4436.0 C 1521.0,4362.0 1521.0,4362.0 1549.0,4373.0 C 1572.0,4381.0 1591.0,4378.0 1660.0,4351.0 C 1733.0,4323.0 1750.0,4320.0 1805.0,4326.0 C 1862.0,4332.0 1868.0,4331.0 1872.0,4314.0 C 1874.0,4303.0 1871.0,4283.0 1866.0,4268.0 C 1858.0,4247.0 1862.0,4227.0 1884.0,4171.0 C 1911.0,4102.0 1913.0,4100.0 1998.0,4045.0 C 2085.0,3989.0 2091.0,3988.0 2152.0,4006.0 C 2164.0,4009.0 2181.0,3995.0 2209.0,3957.0 C 2236.0,3920.0 2270.0,3890.0 2314.0,3864.0 C 2367.0,3834.0 2382.0,3819.0 2391.0,3790.0 C 2397.0,3771.0 2408.0,3748.0 2415.0,3740.0 C 2422.0,3732.0 2433.0,3708.0 2440.0,3687.0 C 2451.0,3653.0 2460.0,3645.0 2516.0,3619.0 C 2624.0,3571.0 2650.0,3566.0 2723.0,3579.0 C 2766.0,3586.0 2814.0,3605.0 2859.0,3630.0 L 2930.0,3670.0 L 2982.0,3644.0 C 3011.0,3630.0 3055.0,3598.0 3080.0,3574.0 L 3125.0,3531.0 L 3250.0,3528.0 C 3402.0,3524.0 3410.0,3515.0 3319.0,3451.0 L 3258.0,3408.0 L 3295.0,3370.0 C 3330.0,3334.0 3331.0,3331.0 3313.0,3321.0 C 3302.0,3316.0 3277.0,3313.0 3257.0,3317.0 C 3228.0,3321.0 3219.0,3318.0 3208.0,3301.0 C 3197.0,3283.0 3186.0,3280.0 3129.0,3280.0 C 3068.0,3280.0 3061.0,3278.0 3046.0,3254.0 C 3030.0,3230.0 3030.0,3225.0 3051.0,3154.0 C 3081.0,3054.0 3118.0,3020.0 3201.0,3020.0 C 3250.0,3020.0 3262.0,3016.0 3303.0,2984.0 C 3329.0,2964.0 3350.0,2946.0 3350.0,2945.0 C 3350.0,2944.0 3343.0,2925.0 3334.0,2905.0 L 3318.0,2867.0 L 3369.0,2816.0 L 3420.0,2765.0 L 3484.0,2768.0 C 3541.0,2771.0 3550.0,2769.0 3560.0,2750.0 C 3572.0,2727.0 3574.0,2728.0 3490.0,2707.0 L 3435.0,2694.0 L 3432.0,2647.0 C 3430.0,2613.0 3424.0,2597.0 3410.0,2590.0 C 3392.0,2581.0 3387.0,2586.0 3363.0,2635.0 C 3347.0,2667.0 3329.0,2690.0 3320.0,2689.0 C 3312.0,2689.0 3280.0,2681.0 3250.0,2672.0 C 3209.0,2659.0 3194.0,2649.0 3192.0,2634.0 C 3186.0,2595.0 3209.0,2561.0 3274.0,2510.0 C 3384.0,2424.0 3383.0,2426.0 3378.0,2169.0 C 3376.0,2049.0 3378.0,1950.0 3382.0,1950.0 C 3386.0,1950.0 3404.0,1967.0 3422.0,1987.0 C 3440.0,2007.0 3502.0,2076.0 3561.0,2140.0 C 3665.0,2255.0 3666.0,2257.0 3679.0,2327.0 L 3693.0,2398.0 L 3791.0,2479.0 L 3888.0,2560.0 L 3963.0,2554.0 L 4038.0,2547.0 L 4120.0,2605.0 C 4228.0,2681.0 4327.0,2803.0 4336.0,2870.0 C 4342.0,2915.0 4343.0,2917.0 4420.0,2958.0 C 4487.0,2994.0 4500.0,3006.0 4514.0,3041.0 C 4529.0,3078.0 4538.0,3085.0 4624.0,3125.0 L 4717.0,3168.0 L 4763.0,3256.0 C 4816.0,3358.0 4832.0,3371.0 4965.0,3420.0 C 5015.0,3438.0 5064.0,3463.0 5076.0,3475.0 C 5087.0,3487.0 5137.0,3524.0 5187.0,3558.0 C 5245.0,3597.0 5289.0,3635.0 5307.0,3662.0 C 5333.0,3701.0 5343.0,3707.0 5406.0,3724.0 C 5471.0,3742.0 5479.0,3747.0 5508.0,3791.0 L 5539.0,3838.0 L 5640.0,3845.0 L 5740.0,3853.0 L 5790.0,3907.0 C 5830.0,3950.0 5840.0,3969.0 5840.0,3996.0 L 5840.0,4030.0 L 5923.0,4030.0 L 6005.0,4030.0 L 6316.0,3717.0 C 6566.0,3465.0 6631.0,3395.0 6650.0,3353.0 L 6673.0,3301.0 L 6632.0,3247.0 C 6595.0,3200.0 6583.0,3191.0 6530.0,3176.0 C 6450.0,3154.0 6375.0,3098.0 6344.0,3038.0 C 6325.0,3000.0 6320.0,2975.0 6320.0,2913.0 L 6320.0,2835.0 L 6381.0,2811.0 C 6433.0,2791.0 6444.0,2782.0 6462.0,2745.0 C 6480.0,2708.0 6493.0,2698.0 6573.0,2659.0 C 6623.0,2635.0 6681.0,2600.0 6702.0,2582.0 L 6739.0,2548.0 L 6715.0,2483.0 C 6681.0,2392.0 6642.0,2349.0 6545.0,2290.0 L 6461.0,2239.0 L 6373.0,2242.0 L 6285.0,2245.0 L 6270.0,2187.0 C 6261.0,2154.0 6247.0,2124.0 6238.0,2119.0 C 6217.0,2107.0 6171.0,2106.0 6136.0,2115.0 L 6107.0,2123.0 L 6113.0,2060.0 C 6117.0,2025.0 6120.0,1989.0 6120.0,1980.0 C 6120.0,1952.0 6353.0,1803.0 6420.0,1789.0 C 6494.0,1772.0 6654.0,1656.0 6645.0,1625.0 C 6627.0,1569.0 6629.0,1565.0 6682.0,1513.0 C 6729.0,1467.0 6742.0,1460.0 6795.0,1452.0 C 6837.0,1445.0 6876.0,1446.0 6927.0,1455.0 L 7000.0,1467.0 L 7025.0,1424.0 C 7039.0,1401.0 7060.0,1373.0 7073.0,1363.0 C 7085.0,1353.0 7106.0,1327.0 7119.0,1305.0 C 7132.0,1283.0 7158.0,1249.0 7176.0,1230.0 C 7195.0,1210.0 7213.0,1178.0 7217.0,1156.0 L 7225.0,1118.0 L 7355.0,1066.0 C 7485.0,1014.0 7485.0,1014.0 7543.0,1026.0 C 7598.0,1037.0 7609.0,1044.0 7646.0,1097.0 C 7655.0,1110.0 7681.0,1123.0 7713.0,1131.0 C 7741.0,1137.0 7781.0,1155.0 7803.0,1169.0 L 7841.0,1195.0 L 7835.0,1320.0 C 7826.0,1502.0 7813.0,1586.0 7783.0,1663.0 C 7758.0,1727.0 7757.0,1735.0 7768.0,1803.0 L 7779.0,1875.0 L 7709.0,2027.0 C 7671.0,2110.0 7640.0,2188.0 7640.0,2200.0 C 7640.0,2211.0 7647.0,2237.0 7655.0,2257.0 C 7663.0,2276.0 7670.0,2321.0 7670.0,2356.0 C 7670.0,2436.0 7695.0,2494.0 7725.0,2486.0 C 7802.0,2466.0 7796.0,2463.0 7808.0,2522.0 C 7818.0,2573.0 7817.0,2576.0 7790.0,2605.0 C 7769.0,2628.0 7764.0,2640.0 7770.0,2655.0 C 7775.0,2666.0 7779.0,2700.0 7779.0,2730.0 C 7780.0,2760.0 7783.0,2809.0 7786.0,2837.0 C 7792.0,2887.0 7796.0,2892.0 7864.0,2948.0 C 7925.0,2999.0 7996.0,3038.0 8007.0,3027.0 C 8008.0,3025.0 8006.0,3002.0 8001.0,2976.0 C 7994.0,2937.0 7995.0,2926.0 8012.0,2905.0 C 8023.0,2891.0 8038.0,2880.0 8046.0,2880.0 C 8054.0,2880.0 8060.0,2870.0 8060.0,2856.0 C 8060.0,2843.0 8074.0,2817.0 8092.0,2799.0 L 8124.0,2765.0 L 8134.0,2802.0 L 8144.0,2840.0 L 8200.0,2840.0 C 8262.0,2840.0 8278.0,2833.0 8254.0,2816.0 C 8240.0,2806.0 8241.0,2802.0 8258.0,2779.0 C 8269.0,2766.0 8284.0,2734.0 8291.0,2710.0 C 8298.0,2685.0 8306.0,2662.0 8310.0,2657.0 C 8313.0,2653.0 8326.0,2714.0 8339.0,2793.0 C 8360.0,2926.0 8361.0,2945.0 8350.0,3049.0 C 8335.0,3184.0 8341.0,3358.0 8361.0,3370.0 C 8368.0,3375.0 8404.0,3382.0 8439.0,3386.0 C 8500.0,3392.0 8505.0,3391.0 8519.0,3369.0 C 8528.0,3356.0 8548.0,3332.0 8565.0,3315.0 C 8594.0,3286.0 8595.0,3286.0 8598.0,3306.0 C 8600.0,3318.0 8587.0,3350.0 8571.0,3378.0 C 8538.0,3431.0 8535.0,3440.0 8549.0,3440.0 C 8554.0,3440.0 8575.0,3414.0 8594.0,3381.0 C 8637.0,3311.0 8660.0,3288.0 8660.0,3316.0 C 8660.0,3327.0 8651.0,3353.0 8641.0,3375.0 C 8625.0,3411.0 8625.0,3419.0 8638.0,3458.0 C 8646.0,3481.0 8650.0,3506.0 8647.0,3514.0 C 8644.0,3521.0 8618.0,3541.0 8588.0,3557.0 C 8499.0,3608.0 8434.0,3665.0 8401.0,3724.0 L 8369.0,3779.0 L 8395.0,3829.0 C 8409.0,3857.0 8427.0,3912.0 8435.0,3951.0 C 8443.0,3990.0 8468.0,4056.0 8490.0,4098.0 C 8512.0,4141.0 8532.0,4188.0 8535.0,4203.0 C 8539.0,4223.0 8550.0,4234.0 8571.0,4242.0 C 8587.0,4248.0 8599.0,4255.0 8597.0,4259.0 C 8596.0,4262.0 8580.0,4294.0 8563.0,4330.0 C 8536.0,4388.0 8533.0,4401.0 8540.0,4440.0 C 8545.0,4465.0 8549.0,4503.0 8550.0,4524.0 C 8550.0,4550.0 8559.0,4574.0 8575.0,4596.0 C 8589.0,4614.0 8600.0,4634.0 8600.0,4640.0 C 8600.0,4646.0 8586.0,4680.0 8570.0,4717.0 L 8540.0,4783.0 L 8561.0,4839.0 C 8573.0,4872.0 8594.0,4906.0 8613.0,4921.0 L 8644.0,4947.0 L 8625.0,4976.0 C 8615.0,4992.0 8588.0,5025.0 8565.0,5050.0 C 8541.0,5075.0 8520.0,5105.0 8516.0,5117.0 C 8506.0,5147.0 8534.0,5196.0 8564.0,5204.0 C 8613.0,5216.0 8622.0,5235.0 8614.0,5319.0 L 8608.0,5395.0 L 8741.0,5484.0 C 8901.0,5591.0 8993.0,5662.0 9021.0,5701.0 C 9040.0,5729.0 9045.0,5730.0 9116.0,5730.0 C 9182.0,5730.0 9196.0,5733.0 9226.0,5756.0 C 9255.0,5778.0 9260.0,5789.0 9260.0,5822.0 C 9260.0,5861.0 9283.0,5920.0 9299.0,5920.0 C 9303.0,5920.0 9340.0,5909.0 9380.0,5895.0 C 9433.0,5877.0 9475.0,5870.0 9530.0,5870.0 C 9605.0,5870.0 9607.0,5871.0 9670.0,5917.0 C 9733.0,5962.0 9735.0,5963.0 9774.0,5951.0 C 9797.0,5944.0 9851.0,5935.0 9895.0,5930.0 C 9939.0,5925.0 9999.0,5917.0 10029.0,5911.0 C 10058.0,5905.0 10084.0,5900.0 10085.0,5900.0 C 10086.0,5900.0 10111.0,5864.0 10139.0,5821.0 C 10226.0,5689.0 10254.0,5677.0 10230.0,5783.0 C 10222.0,5817.0 10216.0,5865.0 10217.0,5889.0 C 10219.0,5925.0 10212.0,5942.0 10180.0,5991.0 C 10136.0,6055.0 10129.0,6095.0 10159.0,6105.0 C 10178.0,6111.0 10178.0,6112.0 10160.0,6168.0 C 10149.0,6199.0 10136.0,6244.0 10130.0,6268.0 C 10120.0,6307.0 10117.0,6310.0 10092.0,6304.0 C 10077.0,6300.0 10062.0,6296.0 10059.0,6294.0 C 10055.0,6292.0 10059.0,6260.0 10066.0,6224.0 C 10074.0,6187.0 10078.0,6155.0 10076.0,6153.0 C 10074.0,6150.0 10053.0,6159.0 10031.0,6172.0 L 9990.0,6195.0 L 9996.0,6246.0 L 10002.0,6297.0 L 9968.0,6303.0 C 9950.0,6306.0 9892.0,6312.0 9840.0,6316.0 L 9745.0,6323.0 L 9684.0,6382.0 C 9650.0,6414.0 9612.0,6461.0 9599.0,6484.0 L 9576.0,6528.0 L 9536.0,6510.0 C 9513.0,6501.0 9481.0,6490.0 9464.0,6487.0 C 9447.0,6484.0 9380.0,6457.0 9316.0,6429.0 L 9199.0,6376.0 L 9097.0,6393.0 C 9041.0,6403.0 8973.0,6410.0 8947.0,6410.0 C 8910.0,6410.0 8883.0,6418.0 8837.0,6444.0 C 8803.0,6463.0 8750.0,6483.0 8720.0,6490.0 C 8690.0,6497.0 8658.0,6506.0 8648.0,6511.0 C 8639.0,6516.0 8602.0,6567.0 8566.0,6625.0 L 8500.0,6730.0 L 8517.0,6797.0 L 8533.0,6864.0 L 8469.0,6923.0 C 8430.0,6960.0 8378.0,6995.0 8335.0,7015.0 C 8204.0,7075.0 8155.0,7113.0 8115.0,7185.0 C 8085.0,7237.0 8063.0,7261.0 8002.0,7306.0 C 7911.0,7372.0 7895.0,7395.0 7831.0,7560.0 C 7796.0,7651.0 7777.0,7717.0 7764.0,7800.0 C 7748.0,7907.0 7742.0,7923.0 7682.0,8035.0 C 7611.0,8167.0 7493.0,8314.0 7106.0,8754.0 C 6928.0,8956.0 6904.0,8987.0 6895.0,9030.0 C 6883.0,9087.0 6795.0,9192.0 6740.0,9214.0 C 6708.0,9226.0 6699.0,9225.0 6638.0,9205.0" fill="pink"/>
	<path d="M 429.0,3842.0 C 387.0,3810.0 335.0,3783.0 277.0,3763.0 L 189.0,3733.0 L 178.0,3754.0 C 172.0,3766.0 166.0,3776.0 165.0,3778.0 C 163.0,3781.0 8.0,3721.0 2.0,3715.0 C 0.0,3714.0 8.0,3697.0 19.0,3679.0 C 33.0,3657.0 40.0,3628.0 40.0,3597.0 C 40.0,3570.0 47.0,3533.0 56.0,3515.0 C 73.0,3479.0 80.0,3476.0 181.0,3465.0 L 236.0,3459.0 L 248.0,3414.0 C 255.0,3390.0 260.0,3354.0 260.0,3335.0 C 260.0,3312.0 270.0,3286.0 289.0,3259.0 C 306.0,3237.0 326.0,3195.0 336.0,3167.0 C 364.0,3079.0 377.0,3063.0 445.0,3025.0 C 508.0,2990.0 512.0,2985.0 566.0,2884.0 C 596.0,2827.0 649.0,2745.0 683.0,2703.0 C 742.0,2629.0 749.0,2624.0 840.0,2585.0 C 975.0,2528.0 1019.0,2496.0 1122.0,2375.0 C 1187.0,2299.0 1227.0,2262.0 1262.0,2244.0 C 1312.0,2219.0 1325.0,2189.0 1298.0,2162.0 C 1289.0,2153.0 1289.0,2144.0 1298.0,2126.0 C 1306.0,2107.0 1324.0,2096.0 1367.0,2084.0 C 1399.0,2075.0 1437.0,2059.0 1452.0,2049.0 C 1467.0,2038.0 1495.0,2030.0 1518.0,2030.0 C 1540.0,2030.0 1579.0,2021.0 1605.0,2010.0 C 1637.0,1996.0 1674.0,1990.0 1724.0,1990.0 C 1841.0,1990.0 2098.0,1907.0 2192.0,1838.0 C 2206.0,1828.0 2216.0,1828.0 2242.0,1839.0 C 2260.0,1846.0 2315.0,1856.0 2364.0,1861.0 C 2412.0,1865.0 2465.0,1872.0 2480.0,1875.0 C 2498.0,1879.0 2520.0,1875.0 2539.0,1866.0 C 2555.0,1857.0 2591.0,1850.0 2619.0,1850.0 L 2669.0,1850.0 L 2641.0,1918.0 C 2626.0,1955.0 2603.0,2017.0 2590.0,2055.0 C 2560.0,2148.0 2538.0,2190.0 2472.0,2285.0 C 2394.0,2396.0 2347.0,2499.0 2321.0,2608.0 C 2295.0,2725.0 2295.0,2728.0 2324.0,2736.0 C 2348.0,2742.0 2364.0,2779.0 2353.0,2806.0 C 2351.0,2812.0 2265.0,2850.0 2162.0,2890.0 C 2059.0,2931.0 1963.0,2969.0 1949.0,2976.0 L 1922.0,2989.0 L 1941.0,3077.0 C 1952.0,3126.0 1968.0,3186.0 1977.0,3211.0 C 1993.0,3257.0 1993.0,3258.0 1960.0,3346.0 L 1927.0,3435.0 L 1834.0,3479.0 L 1741.0,3522.0 L 1650.0,3466.0 C 1565.0,3413.0 1556.0,3410.0 1496.0,3410.0 L 1433.0,3410.0 L 1384.0,3358.0 C 1357.0,3329.0 1323.0,3290.0 1308.0,3272.0 L 1281.0,3239.0 L 1233.0,3264.0 C 1207.0,3277.0 1167.0,3306.0 1146.0,3328.0 C 1111.0,3365.0 1101.0,3369.0 1044.0,3376.0 L 980.0,3382.0 L 980.0,3442.0 C 980.0,3491.0 976.0,3505.0 955.0,3525.0 C 942.0,3539.0 927.0,3550.0 922.0,3550.0 C 917.0,3550.0 886.0,3525.0 852.0,3494.0 C 798.0,3446.0 788.0,3440.0 770.0,3450.0 C 750.0,3461.0 749.0,3467.0 755.0,3553.0 L 762.0,3645.0 L 721.0,3693.0 C 699.0,3720.0 662.0,3775.0 640.0,3816.0 L 599.0,3890.0 L 546.0,3890.0 C 498.0,3890.0 487.0,3885.0 429.0,3842.0" fill="pink"/>
</svg>
