<?xml version="1.0" ?>
<svg xmlns="http://www.w3.org/2000/svg" xmlns:ev="http://www.w3.org/2001/xml-events" xmlns:xlink="http://www.w3.org/1999/xlink" baseProfile="full" height="600px" version="1.1" viewBox="-23.61950795065343 -1029.0210980813397 10288.239015901307 12297.058097469542" width="502px">
	<defs/>
	<path d="M 2035.0,10228.0 C 1972.0,10219.0 1958.0,10212.0 1895.0,10165.0 C 1842.0,10124.0 1799.0,10102.0 1717.0,10073.0 L 1609.0,10035.0 L 1549.0,9933.0 L 1488.0,9830.0 L 1370.0,9830.0 L 1252.0,9830.0 L 1151.0,9623.0 C 1095.0,9508.0 1001.0,9326.0 943.0,9216.0 L 838.0,9018.0 L 875.0,8856.0 L 912.0,8695.0 L 887.0,8633.0 L 862.0,8572.0 L 882.0,8488.0 C 897.0,8426.0 900.0,8387.0 895.0,8335.0 L 889.0,8265.0 L 979.0,8035.0 L 1070.0,7805.0 L 1129.0,7771.0 C 1195.0,7733.0 1196.0,7732.0 1206.0,7602.0 C 1211.0,7532.0 1208.0,7516.0 1177.0,7423.0 L 1142.0,7321.0 L 1165.0,7213.0 C 1202.0,7034.0 1204.0,6924.0 1175.0,6686.0 L 1150.0,6479.0 L 1170.0,6242.0 C 1182.0,6112.0 1193.0,5996.0 1196.0,5985.0 C 1199.0,5974.0 1226.0,5912.0 1257.0,5848.0 L 1313.0,5732.0 L 1276.0,5585.0 L 1240.0,5439.0 L 1281.0,5305.0 L 1323.0,5172.0 L 1426.0,5086.0 L 1529.0,4999.0 L 1510.0,4932.0 C 1500.0,4895.0 1478.0,4810.0 1460.0,4743.0 L 1429.0,4621.0 L 1478.0,4532.0 L 1527.0,4443.0 L 1539.0,4269.0 C 1545.0,4173.0 1553.0,4070.0 1556.0,4040.0 L 1561.0,3985.0 L 1501.0,3918.0 L 1440.0,3852.0 L 1440.0,3724.0 L 1440.0,3596.0 L 1512.0,3361.0 L 1583.0,3126.0 L 1570.0,3036.0 C 1563.0,2986.0 1556.0,2941.0 1553.0,2935.0 C 1551.0,2929.0 1609.0,2892.0 1682.0,2853.0 L 1815.0,2782.0 L 1853.0,2687.0 C 1899.0,2569.0 1981.0,2312.0 1982.0,2284.0 C 1982.0,2273.0 1963.0,2205.0 1939.0,2133.0 L 1896.0,2002.0 L 1936.0,1923.0 L 1975.0,1845.0 L 2224.0,1840.0 L 2472.0,1835.0 L 2510.0,1740.0 C 2530.0,1688.0 2558.0,1602.0 2570.0,1550.0 L 2593.0,1455.0 L 2556.0,1381.0 C 2535.0,1341.0 2522.0,1304.0 2527.0,1300.0 C 2531.0,1296.0 2594.0,1250.0 2665.0,1199.0 L 2795.0,1105.0 L 2940.0,1077.0 L 3085.0,1049.0 L 3209.0,1099.0 C 3278.0,1127.0 3341.0,1150.0 3349.0,1150.0 C 3388.0,1150.0 3689.0,1010.0 3838.0,923.0 L 4001.0,827.0 L 4147.0,814.0 C 4305.0,801.0 4307.0,801.0 4640.0,876.0 L 4715.0,892.0 L 4840.0,817.0 C 4909.0,775.0 5073.0,666.0 5206.0,573.0 L 5447.0,405.0 L 5625.0,203.0 L 5803.0,0.0 L 5914.0,0.0 L 6025.0,1.0 L 6088.0,79.0 C 6150.0,155.0 6152.0,157.0 6228.0,179.0 L 6305.0,201.0 L 6409.0,330.0 L 6512.0,458.0 L 6566.0,434.0 C 6596.0,421.0 6622.0,410.0 6624.0,410.0 C 6640.0,410.0 6705.0,522.0 6729.0,591.0 C 6746.0,637.0 6779.0,718.0 6804.0,772.0 L 6849.0,868.0 L 6942.0,917.0 L 7035.0,966.0 L 7125.0,943.0 C 7175.0,931.0 7218.0,920.0 7221.0,920.0 C 7225.0,920.0 7233.0,940.0 7240.0,965.0 C 7254.0,1015.0 7277.0,1047.0 7370.0,1147.0 L 7432.0,1213.0 L 7538.0,1226.0 C 7603.0,1233.0 7646.0,1244.0 7651.0,1252.0 C 7656.0,1259.0 7690.0,1318.0 7727.0,1384.0 L 7795.0,1502.0 L 7877.0,1535.0 C 7971.0,1573.0 8072.0,1650.0 8163.0,1753.0 C 8220.0,1818.0 8221.0,1819.0 8338.0,1857.0 L 8455.0,1896.0 L 8487.0,1976.0 C 8509.0,2029.0 8519.0,2073.0 8520.0,2110.0 C 8521.0,2160.0 8524.0,2169.0 8563.0,2211.0 C 8591.0,2241.0 8618.0,2260.0 8641.0,2265.0 C 8700.0,2278.0 8710.0,2287.0 8710.0,2329.0 C 8710.0,2355.0 8724.0,2393.0 8757.0,2452.0 C 8802.0,2535.0 8807.0,2540.0 8926.0,2626.0 L 9048.0,2715.0 L 9098.0,2918.0 C 9146.0,3118.0 9147.0,3123.0 9134.0,3183.0 C 9114.0,3278.0 9114.0,3278.0 9163.0,3282.0 L 9205.0,3285.0 L 9208.0,3347.0 C 9211.0,3409.0 9211.0,3409.0 9268.0,3458.0 C 9324.0,3506.0 9326.0,3511.0 9364.0,3627.0 L 9403.0,3746.0 L 9382.0,3919.0 L 9360.0,4092.0 L 9278.0,4183.0 C 9233.0,4234.0 9185.0,4287.0 9172.0,4302.0 C 9159.0,4317.0 9144.0,4350.0 9139.0,4377.0 C 9131.0,4417.0 9119.0,4435.0 9063.0,4492.0 C 9026.0,4530.0 8991.0,4560.0 8985.0,4560.0 C 8979.0,4560.0 8960.0,4531.0 8943.0,4496.0 L 8911.0,4432.0 L 8847.0,4425.0 C 8786.0,4418.0 8781.0,4420.0 8693.0,4464.0 C 8523.0,4549.0 8431.0,4608.0 8413.0,4645.0 C 8403.0,4664.0 8312.0,4753.0 8210.0,4844.0 C 8036.0,4999.0 8021.0,5011.0 7957.0,5030.0 L 7889.0,5051.0 L 7835.0,5006.0 L 7782.0,4960.0 L 7702.0,4960.0 L 7622.0,4960.0 L 7473.0,5080.0 C 7332.0,5193.0 7321.0,5200.0 7245.0,5220.0 C 7201.0,5232.0 7138.0,5249.0 7105.0,5259.0 L 7046.0,5276.0 L 6980.0,5385.0 L 6914.0,5494.0 L 6861.0,5507.0 L 6808.0,5521.0 L 6753.0,5473.0 C 6723.0,5447.0 6693.0,5421.0 6686.0,5416.0 C 6677.0,5410.0 6627.0,5432.0 6530.0,5486.0 L 6386.0,5565.0 L 6338.0,5641.0 L 6289.0,5717.0 L 6172.0,5744.0 C 6089.0,5763.0 5967.0,5806.0 5753.0,5892.0 L 5452.0,6014.0 L 5440.0,6076.0 C 5433.0,6111.0 5423.0,6146.0 5416.0,6154.0 C 5410.0,6163.0 5313.0,6221.0 5200.0,6284.0 L 4995.0,6398.0 L 4793.0,6687.0 C 4611.0,6946.0 4585.0,6978.0 4540.0,7003.0 L 4490.0,7032.0 L 4489.0,7108.0 C 4488.0,7151.0 4485.0,7217.0 4481.0,7257.0 L 4475.0,7328.0 L 4348.0,7439.0 C 4227.0,7545.0 4216.0,7557.0 4075.0,7762.0 L 3928.0,7974.0 L 3944.0,8110.0 C 3953.0,8184.0 3960.0,8248.0 3960.0,8251.0 C 3960.0,8254.0 3928.0,8269.0 3889.0,8286.0 C 3819.0,8314.0 3818.0,8316.0 3783.0,8385.0 C 3763.0,8424.0 3705.0,8558.0 3653.0,8684.0 C 3564.0,8903.0 3560.0,8916.0 3560.0,8988.0 C 3560.0,9044.0 3551.0,9093.0 3523.0,9189.0 C 3503.0,9258.0 3485.0,9317.0 3484.0,9319.0 C 3482.0,9321.0 3462.0,9315.0 3438.0,9306.0 C 3396.0,9290.0 3393.0,9291.0 3245.0,9333.0 L 3095.0,9377.0 L 2980.0,9544.0 C 2870.0,9703.0 2862.0,9712.0 2800.0,9746.0 C 2764.0,9766.0 2713.0,9801.0 2685.0,9825.0 C 2658.0,9848.0 2527.0,9951.0 2396.0,10054.0 C 2217.0,10194.0 2151.0,10240.0 2131.0,10239.0 C 2117.0,10238.0 2074.0,10233.0 2035.0,10228.0" fill="pink"/>
</svg>
