<?xml version="1.0" ?>
<svg xmlns="http://www.w3.org/2000/svg" xmlns:ev="http://www.w3.org/2001/xml-events" xmlns:xlink="http://www.w3.org/1999/xlink" baseProfile="full" height="492px" version="1.1" viewBox="-1028.7835996726758 87.2316736334692 12294.219932406802 10062.036652733063" width="600px">
	<defs/>
	<path d="M 5895.0,9305.0 C 5890.0,9303.0 5866.0,9296.0 5842.0,9290.0 C 5804.0,9280.0 5794.0,9271.0 5755.0,9212.0 C 5728.0,9170.0 5696.0,9136.0 5671.0,9120.0 C 5620.0,9089.0 5576.0,9029.0 5584.0,9002.0 C 5595.0,8967.0 5569.0,8958.0 5503.0,8973.0 C 5471.0,8981.0 5430.0,8995.0 5413.0,9004.0 C 5361.0,9030.0 5323.0,9025.0 5305.0,8990.0 L 5289.0,8959.0 L 5265.0,8989.0 C 5232.0,9027.0 5233.0,9073.0 5265.0,9116.0 C 5290.0,9149.0 5295.0,9174.0 5284.0,9204.0 C 5271.0,9238.0 5165.0,9219.0 5072.0,9166.0 C 5041.0,9148.0 4989.0,9128.0 4957.0,9121.0 C 4911.0,9111.0 4900.0,9105.0 4904.0,9092.0 C 4922.0,9032.0 4921.0,9020.0 4901.0,8991.0 C 4889.0,8975.0 4880.0,8959.0 4880.0,8955.0 C 4880.0,8952.0 4898.0,8928.0 4919.0,8902.0 C 4956.0,8857.0 4990.0,8781.0 4990.0,8741.0 C 4990.0,8731.0 4979.0,8717.0 4965.0,8710.0 C 4934.0,8693.0 4807.0,8712.0 4770.0,8739.0 C 4756.0,8749.0 4726.0,8767.0 4703.0,8779.0 C 4662.0,8799.0 4659.0,8799.0 4594.0,8784.0 C 4506.0,8764.0 4451.0,8726.0 4450.0,8685.0 C 4450.0,8669.0 4437.0,8633.0 4422.0,8606.0 C 4400.0,8566.0 4370.0,8538.0 4262.0,8459.0 C 4190.0,8406.0 4111.0,8345.0 4087.0,8324.0 C 4054.0,8293.0 4026.0,8280.0 3960.0,8261.0 C 3880.0,8239.0 3871.0,8233.0 3805.0,8169.0 C 3735.0,8100.0 3734.0,8100.0 3679.0,8100.0 C 3636.0,8100.0 3619.0,8095.0 3605.0,8080.0 C 3582.0,8054.0 3576.0,8055.0 3535.0,8086.0 C 3503.0,8110.0 3497.0,8111.0 3445.0,8103.0 C 3392.0,8093.0 3388.0,8094.0 3349.0,8123.0 L 3309.0,8153.0 L 3312.0,8226.0 L 3315.0,8300.0 L 3240.0,8324.0 C 3199.0,8337.0 3149.0,8350.0 3129.0,8353.0 C 3110.0,8356.0 3065.0,8376.0 3031.0,8399.0 C 2994.0,8423.0 2946.0,8444.0 2912.0,8451.0 C 2881.0,8457.0 2840.0,8473.0 2822.0,8485.0 L 2788.0,8508.0 L 2692.0,8462.0 C 2639.0,8437.0 2591.0,8412.0 2587.0,8406.0 C 2583.0,8400.0 2582.0,8370.0 2585.0,8340.0 C 2588.0,8310.0 2587.0,8280.0 2582.0,8274.0 C 2568.0,8253.0 2473.0,8249.0 2383.0,8266.0 C 2301.0,8281.0 2293.0,8285.0 2260.0,8323.0 C 2209.0,8381.0 2201.0,8400.0 2200.0,8452.0 C 2200.0,8478.0 2193.0,8515.0 2184.0,8534.0 C 2169.0,8565.0 2169.0,8575.0 2181.0,8627.0 C 2196.0,8690.0 2195.0,8800.0 2179.0,8800.0 C 2174.0,8800.0 2135.0,8780.0 2092.0,8755.0 C 2040.0,8725.0 1983.0,8703.0 1915.0,8686.0 C 1860.0,8672.0 1787.0,8650.0 1753.0,8636.0 C 1718.0,8623.0 1642.0,8604.0 1583.0,8595.0 C 1523.0,8586.0 1466.0,8575.0 1455.0,8570.0 C 1443.0,8566.0 1347.0,8498.0 1240.0,8419.0 C 1098.0,8314.0 938.0,8211.0 650.0,8039.0 C 433.0,7909.0 198.0,7772.0 128.0,7736.0 L 0.0,7669.0 L 0.0,7613.0 C 0.0,7582.0 12.0,7492.0 27.0,7414.0 L 54.0,7271.0 L 97.0,7264.0 C 138.0,7258.0 142.0,7254.0 185.0,7184.0 C 210.0,7143.0 230.0,7106.0 230.0,7102.0 C 230.0,7098.0 207.0,7072.0 179.0,7045.0 L 128.0,6995.0 L 133.0,6869.0 C 138.0,6759.0 136.0,6738.0 119.0,6700.0 L 99.0,6657.0 L 129.0,6626.0 C 146.0,6608.0 164.0,6574.0 171.0,6547.0 C 177.0,6521.0 186.0,6498.0 190.0,6495.0 C 194.0,6492.0 230.0,6502.0 270.0,6517.0 L 343.0,6544.0 L 376.0,6506.0 C 394.0,6486.0 420.0,6441.0 435.0,6406.0 C 456.0,6357.0 468.0,6341.0 492.0,6332.0 C 520.0,6322.0 522.0,6319.0 515.0,6281.0 L 508.0,6241.0 L 549.0,6234.0 C 589.0,6228.0 590.0,6226.0 590.0,6189.0 C 590.0,6152.0 591.0,6151.0 642.0,6136.0 C 671.0,6128.0 717.0,6116.0 744.0,6109.0 C 776.0,6101.0 813.0,6080.0 852.0,6048.0 C 885.0,6020.0 913.0,6000.0 914.0,6002.0 C 938.0,6031.0 990.0,6146.0 995.0,6181.0 L 1002.0,6226.0 L 1102.0,6243.0 C 1158.0,6253.0 1230.0,6274.0 1266.0,6290.0 C 1311.0,6310.0 1340.0,6318.0 1360.0,6313.0 C 1382.0,6309.0 1405.0,6317.0 1456.0,6345.0 L 1524.0,6383.0 L 1555.0,6347.0 C 1573.0,6327.0 1613.0,6257.0 1645.0,6192.0 L 1704.0,6073.0 L 1759.0,6059.0 C 1830.0,6041.0 1832.0,6032.0 1824.0,5818.0 C 1817.0,5651.0 1817.0,5650.0 1842.0,5613.0 C 1881.0,5553.0 1900.0,5484.0 1900.0,5400.0 L 1900.0,5324.0 L 2014.0,5217.0 L 2128.0,5110.0 L 2180.0,5110.0 C 2241.0,5110.0 2307.0,5141.0 2397.0,5211.0 C 2474.0,5271.0 2497.0,5274.0 2506.0,5224.0 C 2510.0,5204.0 2508.0,5168.0 2503.0,5144.0 C 2497.0,5120.0 2495.0,5098.0 2498.0,5095.0 C 2501.0,5092.0 2545.0,5090.0 2596.0,5090.0 C 2710.0,5090.0 2811.0,5058.0 2881.0,4999.0 C 2921.0,4966.0 2929.0,4953.0 2939.0,4904.0 C 2954.0,4825.0 2953.0,4696.0 2935.0,4630.0 C 2910.0,4538.0 2915.0,4484.0 2951.0,4439.0 C 2968.0,4417.0 2988.0,4380.0 2995.0,4357.0 C 3002.0,4334.0 3014.0,4314.0 3023.0,4312.0 C 3048.0,4307.0 3109.0,4369.0 3141.0,4432.0 L 3170.0,4490.0 L 3304.0,4490.0 L 3437.0,4490.0 L 3483.0,4454.0 L 3530.0,4417.0 L 3634.0,4422.0 C 3708.0,4426.0 3750.0,4434.0 3785.0,4449.0 C 3812.0,4461.0 3853.0,4470.0 3880.0,4470.0 C 3922.0,4470.0 3929.0,4467.0 3939.0,4443.0 C 3946.0,4427.0 3973.0,4400.0 4001.0,4381.0 C 4071.0,4333.0 4117.0,4276.0 4137.0,4212.0 C 4151.0,4168.0 4162.0,4153.0 4193.0,4133.0 C 4258.0,4092.0 4260.0,4093.0 4260.0,4143.0 C 4260.0,4168.0 4264.0,4191.0 4268.0,4194.0 C 4272.0,4197.0 4294.0,4195.0 4316.0,4190.0 C 4343.0,4184.0 4366.0,4168.0 4392.0,4138.0 C 4413.0,4114.0 4429.0,4093.0 4429.0,4090.0 C 4429.0,4087.0 4387.0,4053.0 4336.0,4013.0 L 4243.0,3941.0 L 4237.0,3841.0 C 4232.0,3747.0 4229.0,3735.0 4191.0,3664.0 C 4168.0,3622.0 4151.0,3586.0 4152.0,3585.0 C 4202.0,3551.0 4234.0,3540.0 4278.0,3540.0 L 4329.0,3540.0 L 4341.0,3482.0 C 4349.0,3442.0 4363.0,3415.0 4386.0,3390.0 C 4408.0,3367.0 4421.0,3341.0 4426.0,3313.0 L 4432.0,3271.0 L 4374.0,3268.0 C 4316.0,3265.0 4316.0,3265.0 4307.0,3229.0 C 4300.0,3199.0 4291.0,3190.0 4244.0,3167.0 C 4192.0,3141.0 4190.0,3139.0 4190.0,3100.0 C 4190.0,3070.0 4197.0,3052.0 4222.0,3024.0 C 4248.0,2995.0 4251.0,2986.0 4239.0,2979.0 C 4196.0,2953.0 4197.0,2954.0 4215.0,2922.0 C 4231.0,2895.0 4238.0,2892.0 4302.0,2888.0 C 4361.0,2883.0 4376.0,2878.0 4401.0,2854.0 C 4430.0,2826.0 4431.0,2826.0 4488.0,2838.0 C 4588.0,2859.0 4670.0,2854.0 4712.0,2825.0 C 4781.0,2778.0 4878.0,2749.0 4982.0,2743.0 L 5079.0,2737.0 L 5142.0,2777.0 C 5231.0,2834.0 5275.0,2855.0 5355.0,2881.0 C 5394.0,2893.0 5448.0,2918.0 5477.0,2936.0 C 5505.0,2954.0 5545.0,2972.0 5564.0,2976.0 C 5595.0,2981.0 5601.0,2987.0 5610.0,3021.0 C 5615.0,3042.0 5625.0,3078.0 5630.0,3100.0 C 5636.0,3122.0 5649.0,3155.0 5660.0,3173.0 C 5676.0,3201.0 5677.0,3213.0 5668.0,3268.0 C 5656.0,3346.0 5667.0,3366.0 5750.0,3418.0 C 5800.0,3450.0 5810.0,3462.0 5826.0,3506.0 C 5841.0,3552.0 5849.0,3560.0 5896.0,3583.0 C 5938.0,3604.0 5954.0,3619.0 5973.0,3655.0 L 5996.0,3701.0 L 6040.0,3666.0 C 6081.0,3634.0 6091.0,3630.0 6148.0,3630.0 L 6212.0,3630.0 L 6177.0,3568.0 L 6143.0,3505.0 L 6161.0,3460.0 C 6171.0,3435.0 6179.0,3412.0 6179.0,3408.0 C 6180.0,3404.0 6160.0,3395.0 6135.0,3389.0 L 6090.0,3378.0 L 6090.0,3316.0 C 6090.0,3279.0 6082.0,3234.0 6070.0,3202.0 C 6056.0,3165.0 6050.0,3126.0 6050.0,3068.0 L 6050.0,2987.0 L 6004.0,2934.0 C 5965.0,2888.0 5959.0,2875.0 5962.0,2843.0 C 5965.0,2806.0 5966.0,2805.0 6032.0,2785.0 C 6129.0,2756.0 6159.0,2719.0 6160.0,2629.0 C 6160.0,2520.0 6153.0,2501.0 6104.0,2477.0 C 6047.0,2450.0 6048.0,2430.0 6106.0,2371.0 C 6147.0,2330.0 6153.0,2319.0 6157.0,2270.0 C 6162.0,2223.0 6159.0,2212.0 6141.0,2196.0 C 6128.0,2184.0 6120.0,2165.0 6120.0,2145.0 L 6120.0,2112.0 L 6208.0,2106.0 C 6279.0,2100.0 6307.0,2103.0 6362.0,2119.0 L 6428.0,2138.0 L 6480.0,2103.0 C 6508.0,2084.0 6556.0,2060.0 6585.0,2050.0 C 6615.0,2040.0 6658.0,2020.0 6682.0,2007.0 C 6706.0,1993.0 6741.0,1979.0 6761.0,1976.0 C 6794.0,1970.0 6800.0,1964.0 6823.0,1912.0 C 6837.0,1881.0 6853.0,1843.0 6859.0,1828.0 C 6868.0,1805.0 6876.0,1800.0 6902.0,1800.0 C 6933.0,1800.0 6937.0,1796.0 6955.0,1748.0 L 6976.0,1695.0 L 7049.0,1681.0 C 7118.0,1668.0 7126.0,1668.0 7184.0,1689.0 C 7217.0,1701.0 7248.0,1710.0 7252.0,1710.0 C 7262.0,1710.0 7370.0,1575.0 7370.0,1563.0 C 7370.0,1558.0 7359.0,1543.0 7345.0,1530.0 C 7319.0,1506.0 7318.0,1492.0 7336.0,1429.0 C 7343.0,1403.0 7416.0,1400.0 7467.0,1422.0 L 7509.0,1440.0 L 7567.0,1403.0 C 7599.0,1382.0 7644.0,1356.0 7668.0,1346.0 C 7708.0,1328.0 7710.0,1325.0 7710.0,1285.0 C 7710.0,1226.0 7739.0,1099.0 7758.0,1078.0 C 7769.0,1065.0 7771.0,1048.0 7767.0,1016.0 C 7761.0,977.0 7763.0,969.0 7782.0,955.0 C 7820.0,929.0 7880.0,937.0 7973.0,980.0 C 8020.0,1002.0 8065.0,1020.0 8073.0,1020.0 C 8081.0,1020.0 8100.0,1000.0 8114.0,975.0 C 8134.0,942.0 8147.0,930.0 8165.0,930.0 C 8186.0,930.0 8190.0,937.0 8205.0,1001.0 C 8218.0,1059.0 8240.0,1121.0 8255.0,1138.0 C 8262.0,1146.0 8389.0,1079.0 8409.0,1056.0 C 8429.0,1035.0 8442.0,1030.0 8481.0,1030.0 L 8529.0,1030.0 L 8540.0,1073.0 C 8546.0,1096.0 8553.0,1121.0 8555.0,1128.0 C 8558.0,1135.0 8576.0,1140.0 8599.0,1140.0 C 8635.0,1140.0 8640.0,1137.0 8652.0,1105.0 C 8664.0,1071.0 8667.0,1069.0 8704.0,1072.0 C 8736.0,1074.0 8749.0,1083.0 8781.0,1121.0 C 8818.0,1164.0 8821.0,1171.0 8835.0,1284.0 C 8853.0,1420.0 8890.0,1513.0 8928.0,1518.0 C 8947.0,1521.0 8941.0,1529.0 8885.0,1577.0 C 8815.0,1637.0 8818.0,1627.0 8842.0,1723.0 C 8860.0,1796.0 8831.0,1839.0 8764.0,1840.0 C 8747.0,1840.0 8740.0,1851.0 8726.0,1903.0 C 8716.0,1940.0 8697.0,1977.0 8680.0,1995.0 C 8664.0,2012.0 8644.0,2050.0 8635.0,2085.0 C 8625.0,2118.0 8616.0,2148.0 8613.0,2152.0 C 8611.0,2156.0 8587.0,2149.0 8560.0,2135.0 C 8533.0,2121.0 8508.0,2110.0 8505.0,2110.0 C 8496.0,2110.0 8500.0,2271.0 8510.0,2345.0 C 8518.0,2401.0 8525.0,2419.0 8545.0,2433.0 C 8559.0,2443.0 8570.0,2455.0 8570.0,2459.0 C 8570.0,2464.0 8546.0,2483.0 8516.0,2503.0 L 8463.0,2538.0 L 8470.0,2582.0 C 8481.0,2646.0 8534.0,2755.0 8572.0,2789.0 C 8590.0,2806.0 8628.0,2829.0 8656.0,2840.0 C 8693.0,2855.0 8713.0,2871.0 8726.0,2895.0 C 8744.0,2928.0 8744.0,2930.0 8721.0,2979.0 C 8691.0,3041.0 8698.0,3068.0 8750.0,3100.0 L 8790.0,3125.0 L 8790.0,3195.0 C 8790.0,3256.0 8794.0,3271.0 8816.0,3301.0 C 8830.0,3320.0 8852.0,3357.0 8865.0,3383.0 C 8881.0,3418.0 8913.0,3452.0 8976.0,3506.0 C 9091.0,3604.0 9096.0,3610.0 9104.0,3669.0 C 9110.0,3711.0 9116.0,3723.0 9149.0,3749.0 C 9209.0,3797.0 9241.0,3790.0 9259.0,3725.0 C 9278.0,3659.0 9293.0,3645.0 9337.0,3656.0 C 9370.0,3664.0 9375.0,3670.0 9385.0,3710.0 C 9394.0,3748.0 9400.0,3755.0 9422.0,3758.0 C 9448.0,3761.0 9449.0,3759.0 9461.0,3687.0 C 9470.0,3635.0 9481.0,3603.0 9499.0,3581.0 L 9525.0,3549.0 L 9559.0,3606.0 L 9592.0,3662.0 L 9571.0,3701.0 L 9549.0,3739.0 L 9577.0,3746.0 C 9626.0,3756.0 9629.0,3758.0 9655.0,3799.0 C 9687.0,3851.0 9687.0,3860.0 9650.0,3895.0 C 9629.0,3915.0 9620.0,3933.0 9620.0,3954.0 C 9620.0,3981.0 9627.0,3988.0 9673.0,4013.0 C 9713.0,4034.0 9729.0,4049.0 9742.0,4080.0 L 9758.0,4119.0 L 9826.0,4122.0 L 9894.0,4125.0 L 9926.0,4240.0 L 9957.0,4355.0 L 10016.0,4354.0 C 10049.0,4353.0 10102.0,4349.0 10135.0,4345.0 C 10194.0,4338.0 10195.0,4338.0 10218.0,4369.0 C 10240.0,4399.0 10241.0,4404.0 10229.0,4456.0 C 10217.0,4510.0 10215.0,4512.0 10149.0,4550.0 L 10082.0,4590.0 L 10087.0,4632.0 C 10091.0,4656.0 10115.0,4726.0 10142.0,4788.0 C 10169.0,4849.0 10189.0,4904.0 10186.0,4908.0 C 10184.0,4912.0 10159.0,4926.0 10131.0,4939.0 C 10082.0,4963.0 10082.0,4963.0 10063.0,5039.0 L 10044.0,5115.0 L 9980.0,5127.0 C 9884.0,5145.0 9842.0,5143.0 9803.0,5119.0 L 9768.0,5097.0 L 9708.0,5157.0 L 9648.0,5217.0 L 9663.0,5268.0 C 9671.0,5296.0 9675.0,5322.0 9672.0,5325.0 C 9669.0,5328.0 9654.0,5330.0 9638.0,5330.0 C 9620.0,5330.0 9610.0,5335.0 9610.0,5345.0 C 9610.0,5380.0 9639.0,5413.0 9716.0,5464.0 C 9779.0,5506.0 9808.0,5533.0 9835.0,5576.0 C 9855.0,5607.0 9870.0,5634.0 9868.0,5635.0 C 9863.0,5640.0 9748.0,5668.0 9702.0,5675.0 C 9666.0,5681.0 9655.0,5679.0 9636.0,5661.0 L 9613.0,5639.0 L 9606.0,5709.0 C 9600.0,5773.0 9594.0,5788.0 9532.0,5887.0 C 9468.0,5990.0 9462.0,5996.0 9400.0,6027.0 C 9344.0,6055.0 9328.0,6059.0 9284.0,6054.0 L 9233.0,6048.0 L 9211.0,6099.0 C 9196.0,6134.0 9183.0,6151.0 9167.0,6154.0 C 9034.0,6183.0 8934.0,6199.0 8916.0,6194.0 C 8900.0,6190.0 8891.0,6196.0 8877.0,6220.0 L 8859.0,6251.0 L 8820.0,6220.0 L 8782.0,6190.0 L 8724.0,6210.0 C 8667.0,6230.0 8665.0,6230.0 8647.0,6212.0 C 8629.0,6193.0 8627.0,6193.0 8577.0,6221.0 L 8525.0,6249.0 L 8480.0,6206.0 C 8447.0,6173.0 8423.0,6159.0 8387.0,6152.0 C 8341.0,6143.0 8339.0,6143.0 8325.0,6170.0 C 8312.0,6195.0 8312.0,6204.0 8326.0,6244.0 L 8342.0,6290.0 L 8309.0,6343.0 C 8290.0,6371.0 8252.0,6417.0 8223.0,6444.0 C 8171.0,6491.0 8170.0,6493.0 8170.0,6549.0 C 8170.0,6581.0 8177.0,6627.0 8186.0,6652.0 C 8201.0,6697.0 8202.0,6698.0 8255.0,6705.0 C 8314.0,6712.0 8314.0,6712.0 8324.0,6790.0 L 8331.0,6835.0 L 8370.0,6832.0 L 8409.0,6828.0 L 8416.0,6879.0 C 8422.0,6924.0 8427.0,6933.0 8459.0,6952.0 C 8479.0,6964.0 8496.0,6974.0 8498.0,6975.0 C 8500.0,6977.0 8493.0,6996.0 8484.0,7020.0 C 8468.0,7060.0 8465.0,7061.0 8434.0,7056.0 C 8407.0,7050.0 8400.0,7053.0 8395.0,7071.0 C 8391.0,7083.0 8392.0,7095.0 8398.0,7099.0 C 8502.0,7164.0 8508.0,7172.0 8520.0,7237.0 C 8530.0,7297.0 8529.0,7302.0 8506.0,7337.0 L 8480.0,7374.0 L 8504.0,7404.0 C 8517.0,7421.0 8542.0,7442.0 8561.0,7451.0 C 8593.0,7467.0 8595.0,7471.0 8600.0,7531.0 L 8605.0,7595.0 L 8648.0,7604.0 C 8696.0,7614.0 8700.0,7627.0 8665.0,7660.0 C 8633.0,7690.0 8631.0,7751.0 8660.0,7795.0 C 8671.0,7812.0 8680.0,7839.0 8680.0,7856.0 L 8680.0,7888.0 L 8610.0,7895.0 L 8539.0,7902.0 L 8505.0,7956.0 C 8465.0,8019.0 8456.0,8021.0 8355.0,7989.0 C 8273.0,7964.0 8248.0,7969.0 8195.0,8019.0 C 8170.0,8044.0 8141.0,8060.0 8118.0,8064.0 C 8064.0,8074.0 7970.0,8119.0 7970.0,8136.0 C 7970.0,8171.0 7897.0,8370.0 7873.0,8403.0 C 7833.0,8454.0 7789.0,8460.0 7719.0,8424.0 C 7622.0,8375.0 7563.0,8360.0 7470.0,8360.0 L 7382.0,8360.0 L 7346.0,8320.0 L 7310.0,8280.0 L 7255.0,8305.0 C 7203.0,8328.0 7197.0,8328.0 7159.0,8315.0 C 7123.0,8302.0 7082.0,8303.0 7058.0,8317.0 C 7054.0,8319.0 7064.0,8357.0 7080.0,8401.0 L 7109.0,8480.0 L 7082.0,8494.0 C 7067.0,8501.0 7009.0,8511.0 6952.0,8515.0 C 6831.0,8523.0 6820.0,8532.0 6820.0,8618.0 C 6820.0,8671.0 6819.0,8673.0 6755.0,8739.0 C 6692.0,8804.0 6690.0,8808.0 6690.0,8858.0 C 6690.0,8891.0 6700.0,8933.0 6716.0,8973.0 L 6742.0,9036.0 L 6719.0,9085.0 C 6700.0,9124.0 6679.0,9145.0 6618.0,9187.0 L 6541.0,9241.0 L 6527.0,9213.0 C 6519.0,9198.0 6509.0,9162.0 6506.0,9134.0 C 6497.0,9074.0 6466.0,9031.0 6361.0,8938.0 C 6288.0,8873.0 6287.0,8873.0 6249.0,8883.0 C 6221.0,8890.0 6204.0,8902.0 6189.0,8926.0 C 6178.0,8945.0 6167.0,8960.0 6166.0,8960.0 C 6165.0,8960.0 6119.0,8945.0 6064.0,8926.0 C 5966.0,8893.0 5963.0,8893.0 5931.0,8910.0 C 5899.0,8926.0 5871.0,8961.0 5870.0,8986.0 C 5870.0,8991.0 5883.0,9006.0 5900.0,9018.0 L 5930.0,9040.0 L 5970.0,9015.0 C 5992.0,9001.0 6014.0,8990.0 6018.0,8990.0 C 6027.0,8990.0 6040.0,9107.0 6040.0,9187.0 C 6040.0,9249.0 6016.0,9287.0 5971.0,9295.0 C 5951.0,9298.0 5928.0,9303.0 5920.0,9305.0 C 5912.0,9307.0 5901.0,9307.0 5895.0,9305.0" fill="pink"/>
</svg>
