<?xml version="1.0" ?>
<svg xmlns="http://www.w3.org/2000/svg" xmlns:ev="http://www.w3.org/2001/xml-events" xmlns:xlink="http://www.w3.org/1999/xlink" baseProfile="full" height="431px" version="1.1" viewBox="-1024.4106065759636 711.231877122525 12296.374501133785 8825.491791644527" width="600px">
	<defs/>
	<path d="M 6141.0,8616.0 L 5927.0,8434.0 L 5786.0,8406.0 L 5645.0,8379.0 L 5398.0,8213.0 L 5150.0,8046.0 L 5023.0,8073.0 C 4870.0,8105.0 4871.0,8105.0 4810.0,8079.0 L 4762.0,8058.0 L 4755.0,7910.0 C 4744.0,7684.0 4752.0,7701.0 4638.0,7668.0 L 4542.0,7640.0 L 4354.0,7724.0 C 4250.0,7770.0 4148.0,7814.0 4126.0,7821.0 L 4087.0,7835.0 L 3995.0,7738.0 L 3903.0,7640.0 L 3769.0,7590.0 C 3695.0,7562.0 3632.0,7536.0 3628.0,7532.0 C 3624.0,7528.0 3614.0,7508.0 3605.0,7488.0 L 3590.0,7450.0 L 3620.0,7438.0 L 3651.0,7425.0 L 3606.0,7374.0 C 3561.0,7323.0 3561.0,7322.0 3554.0,7229.0 C 3550.0,7161.0 3552.0,7117.0 3563.0,7072.0 C 3575.0,7025.0 3576.0,7008.0 3567.0,7005.0 C 3466.0,6968.0 3469.0,6969.0 3432.0,6990.0 L 3397.0,7011.0 L 3369.0,6984.0 C 3336.0,6953.0 3337.0,6952.0 3317.0,7001.0 C 3302.0,7037.0 3300.0,7038.0 3203.0,7060.0 C 3149.0,7072.0 3096.0,7084.0 3086.0,7087.0 C 3068.0,7092.0 3067.0,7087.0 3074.0,6979.0 C 3077.0,6916.0 3083.0,6790.0 3087.0,6698.0 L 3093.0,6531.0 L 3069.0,6526.0 C 3056.0,6523.0 2994.0,6515.0 2933.0,6509.0 C 2812.0,6497.0 2818.0,6500.0 2806.0,6430.0 C 2803.0,6410.0 2791.0,6389.0 2779.0,6382.0 C 2739.0,6357.0 2673.0,6391.0 2533.0,6510.0 C 2414.0,6611.0 2401.0,6619.0 2345.0,6630.0 C 2170.0,6662.0 2179.0,6659.0 2182.0,6688.0 C 2184.0,6709.0 2191.0,6716.0 2212.0,6718.0 C 2228.0,6720.0 2240.0,6726.0 2240.0,6731.0 C 2240.0,6743.0 2148.0,6850.0 2139.0,6850.0 C 2135.0,6850.0 2129.0,6830.0 2126.0,6805.0 C 2119.0,6762.0 2118.0,6760.0 2068.0,6745.0 C 2039.0,6737.0 2010.0,6730.0 2003.0,6730.0 C 1996.0,6730.0 1977.0,6704.0 1962.0,6673.0 C 1938.0,6622.0 1927.0,6611.0 1855.0,6568.0 C 1778.0,6522.0 1775.0,6519.0 1770.0,6478.0 L 1765.0,6435.0 L 1705.0,6422.0 C 1673.0,6415.0 1644.0,6407.0 1642.0,6405.0 C 1640.0,6403.0 1652.0,6370.0 1669.0,6332.0 C 1687.0,6292.0 1700.0,6244.0 1700.0,6222.0 C 1700.0,6185.0 1704.0,6178.0 1750.0,6145.0 C 1777.0,6125.0 1800.0,6104.0 1800.0,6098.0 C 1800.0,6092.0 1790.0,6027.0 1779.0,5954.0 L 1758.0,5821.0 L 1702.0,5814.0 C 1659.0,5809.0 1640.0,5811.0 1615.0,5824.0 C 1593.0,5836.0 1566.0,5840.0 1520.0,5838.0 L 1455.0,5835.0 L 1448.0,5783.0 L 1440.0,5732.0 L 1512.0,5662.0 L 1583.0,5593.0 L 1531.0,5499.0 L 1478.0,5405.0 L 1508.0,5350.0 C 1535.0,5300.0 1540.0,5270.0 1521.0,5270.0 C 1518.0,5270.0 1506.0,5286.0 1496.0,5305.0 C 1475.0,5343.0 1473.0,5344.0 1437.0,5331.0 C 1418.0,5324.0 1410.0,5311.0 1405.0,5281.0 C 1398.0,5240.0 1388.0,5232.0 1360.0,5249.0 C 1337.0,5264.0 1296.0,5196.0 1290.0,5130.0 L 1285.0,5075.0 L 1245.0,5070.0 C 1190.0,5062.0 1180.0,5054.0 1180.0,5014.0 C 1180.0,4995.0 1175.0,4980.0 1170.0,4980.0 C 1164.0,4980.0 1137.0,4960.0 1111.0,4935.0 C 1064.0,4891.0 1061.0,4890.0 999.0,4890.0 C 964.0,4890.0 852.0,4881.0 751.0,4870.0 L 566.0,4851.0 L 499.0,4784.0 L 431.0,4717.0 L 333.0,4701.0 C 248.0,4687.0 235.0,4682.0 232.0,4664.0 C 230.0,4647.0 243.0,4637.0 310.0,4606.0 L 391.0,4569.0 L 385.0,4481.0 L 378.0,4393.0 L 419.0,4369.0 L 460.0,4346.0 L 460.0,4267.0 C 460.0,4191.0 459.0,4188.0 426.0,4157.0 C 393.0,4125.0 392.0,4123.0 385.0,4014.0 C 381.0,3953.0 374.0,3897.0 370.0,3889.0 C 365.0,3882.0 346.0,3870.0 328.0,3864.0 C 306.0,3857.0 288.0,3840.0 273.0,3814.0 C 260.0,3791.0 224.0,3755.0 189.0,3729.0 C 155.0,3705.0 115.0,3666.0 100.0,3642.0 L 72.0,3600.0 L 103.0,3480.0 L 133.0,3359.0 L 111.0,3336.0 C 98.0,3322.0 90.0,3301.0 90.0,3278.0 C 90.0,3258.0 78.0,3216.0 64.0,3185.0 C 40.0,3132.0 38.0,3120.0 44.0,3045.0 C 50.0,2967.0 49.0,2962.0 24.0,2939.0 C -8.0,2909.0 -6.0,2899.0 72.0,2738.0 C 114.0,2651.0 140.0,2608.0 154.0,2603.0 C 166.0,2599.0 215.0,2597.0 265.0,2597.0 C 335.0,2598.0 373.0,2593.0 437.0,2573.0 C 512.0,2550.0 520.0,2545.0 520.0,2523.0 C 520.0,2507.0 513.0,2496.0 500.0,2493.0 C 489.0,2490.0 480.0,2486.0 480.0,2483.0 C 480.0,2481.0 510.0,2443.0 547.0,2400.0 C 589.0,2351.0 623.0,2321.0 635.0,2320.0 C 654.0,2320.0 700.0,2263.0 700.0,2240.0 C 700.0,2234.0 691.0,2212.0 680.0,2190.0 C 660.0,2152.0 660.0,2151.0 679.0,2138.0 C 690.0,2130.0 700.0,2109.0 702.0,2090.0 C 704.0,2066.0 710.0,2056.0 719.0,2058.0 C 727.0,2060.0 773.0,2046.0 823.0,2028.0 L 912.0,1995.0 L 906.0,1938.0 L 900.0,1882.0 L 940.0,1875.0 C 971.0,1870.0 984.0,1861.0 996.0,1838.0 C 1009.0,1812.0 1015.0,1809.0 1038.0,1815.0 C 1053.0,1819.0 1093.0,1824.0 1128.0,1827.0 C 1183.0,1831.0 1191.0,1834.0 1196.0,1856.0 C 1199.0,1869.0 1203.0,1880.0 1205.0,1880.0 C 1218.0,1880.0 1270.0,1856.0 1270.0,1850.0 C 1270.0,1846.0 1263.0,1826.0 1254.0,1805.0 C 1246.0,1785.0 1240.0,1767.0 1242.0,1766.0 C 1244.0,1764.0 1296.0,1742.0 1358.0,1716.0 L 1471.0,1669.0 L 1499.0,1689.0 C 1544.0,1721.0 1551.0,1734.0 1563.0,1817.0 L 1575.0,1895.0 L 1628.0,1901.0 C 1657.0,1905.0 1683.0,1910.0 1684.0,1911.0 C 1686.0,1913.0 1699.0,1934.0 1714.0,1957.0 C 1740.0,1999.0 1740.0,2000.0 1788.0,1993.0 C 1814.0,1990.0 1837.0,1986.0 1838.0,1984.0 C 1840.0,1983.0 1885.0,2002.0 1938.0,2027.0 L 2035.0,2072.0 L 2115.0,2062.0 L 2194.0,2052.0 L 2225.0,2084.0 C 2249.0,2110.0 2270.0,2120.0 2327.0,2133.0 C 2397.0,2149.0 2400.0,2149.0 2434.0,2129.0 C 2465.0,2111.0 2479.0,2109.0 2557.0,2115.0 C 2638.0,2122.0 2654.0,2120.0 2750.0,2091.0 L 2854.0,2060.0 L 2881.0,2086.0 C 2918.0,2121.0 2940.0,2114.0 2970.0,2057.0 C 2993.0,2014.0 2998.0,2010.0 3031.0,2010.0 C 3064.0,2010.0 3068.0,2007.0 3074.0,1979.0 C 3077.0,1962.0 3080.0,1933.0 3080.0,1914.0 C 3080.0,1885.0 3083.0,1881.0 3112.0,1878.0 C 3141.0,1875.0 3149.0,1865.0 3221.0,1736.0 C 3293.0,1606.0 3409.0,1452.0 3436.0,1451.0 C 3442.0,1450.0 3468.0,1466.0 3493.0,1486.0 C 3532.0,1517.0 3540.0,1528.0 3540.0,1556.0 C 3540.0,1584.0 3533.0,1594.0 3501.0,1616.0 L 3462.0,1642.0 L 3467.0,1696.0 C 3472.0,1746.0 3470.0,1753.0 3445.0,1780.0 C 3418.0,1808.0 3418.0,1810.0 3430.0,1862.0 C 3439.0,1899.0 3452.0,1923.0 3473.0,1941.0 C 3503.0,1966.0 3503.0,1967.0 3490.0,2013.0 C 3483.0,2042.0 3480.0,2079.0 3484.0,2107.0 C 3488.0,2141.0 3486.0,2158.0 3475.0,2170.0 C 3467.0,2179.0 3453.0,2223.0 3445.0,2267.0 C 3430.0,2345.0 3430.0,2351.0 3449.0,2401.0 C 3471.0,2457.0 3469.0,2466.0 3424.0,2526.0 C 3404.0,2553.0 3402.0,2565.0 3407.0,2609.0 C 3412.0,2654.0 3417.0,2663.0 3447.0,2681.0 C 3488.0,2706.0 3480.0,2715.0 3410.0,2725.0 C 3385.0,2728.0 3358.0,2735.0 3351.0,2739.0 C 3344.0,2744.0 3330.0,2804.0 3317.0,2884.0 L 3296.0,3021.0 L 3355.0,3263.0 C 3387.0,3396.0 3416.0,3508.0 3419.0,3511.0 C 3422.0,3515.0 3507.0,3514.0 3607.0,3509.0 C 3742.0,3503.0 3795.0,3497.0 3812.0,3486.0 C 3832.0,3473.0 3906.0,3472.0 4419.0,3479.0 C 5015.0,3487.0 5009.0,3487.0 5022.0,3522.0 C 5024.0,3526.0 5055.0,3532.0 5092.0,3536.0 C 5155.0,3542.0 5163.0,3541.0 5202.0,3515.0 L 5244.0,3487.0 L 5551.0,3495.0 C 5843.0,3501.0 5859.0,3501.0 5869.0,3483.0 C 5875.0,3473.0 5886.0,3456.0 5895.0,3446.0 C 5909.0,3427.0 5911.0,3427.0 5948.0,3457.0 C 5985.0,3487.0 5989.0,3488.0 6051.0,3481.0 C 6097.0,3476.0 6138.0,3462.0 6197.0,3432.0 C 6243.0,3409.0 6281.0,3390.0 6283.0,3390.0 C 6286.0,3390.0 6299.0,3407.0 6314.0,3428.0 C 6332.0,3454.0 6367.0,3482.0 6420.0,3511.0 C 6499.0,3555.0 6500.0,3555.0 6500.0,3596.0 C 6500.0,3624.0 6506.0,3643.0 6520.0,3655.0 C 6540.0,3673.0 6541.0,3672.0 6586.0,3640.0 L 6632.0,3607.0 L 6693.0,3668.0 L 6755.0,3728.0 L 7220.0,3627.0 C 7476.0,3572.0 7686.0,3526.0 7687.0,3525.0 C 7689.0,3524.0 7694.0,3499.0 7700.0,3470.0 C 7706.0,3441.0 7712.0,3414.0 7715.0,3412.0 C 7717.0,3409.0 7765.0,3433.0 7821.0,3465.0 L 7923.0,3523.0 L 8090.0,3516.0 L 8257.0,3509.0 L 8324.0,3570.0 L 8390.0,3630.0 L 8443.0,3609.0 C 8471.0,3597.0 8501.0,3585.0 8509.0,3582.0 C 8519.0,3578.0 8521.0,3584.0 8516.0,3606.0 C 8496.0,3710.0 8495.0,3706.0 8536.0,3734.0 C 8557.0,3748.0 8583.0,3760.0 8592.0,3760.0 C 8606.0,3760.0 8610.0,3768.0 8610.0,3795.0 C 8610.0,3824.0 8605.0,3832.0 8583.0,3841.0 L 8556.0,3851.0 L 8581.0,3876.0 C 8604.0,3899.0 8609.0,3900.0 8659.0,3890.0 C 8737.0,3875.0 8738.0,3876.0 8752.0,3927.0 L 8766.0,3975.0 L 8789.0,3937.0 C 8801.0,3917.0 8815.0,3900.0 8820.0,3900.0 C 8834.0,3900.0 8842.0,3939.0 8835.0,3978.0 C 8830.0,4012.0 8833.0,4020.0 8887.0,4081.0 C 8944.0,4146.0 8946.0,4147.0 9014.0,4159.0 L 9082.0,4171.0 L 9157.0,4104.0 L 9231.0,4037.0 L 9288.0,4053.0 C 9319.0,4062.0 9397.0,4074.0 9460.0,4079.0 C 9555.0,4087.0 9578.0,4086.0 9591.0,4074.0 C 9601.0,4065.0 9629.0,4060.0 9669.0,4060.0 L 9732.0,4060.0 L 9924.0,4219.0 C 10131.0,4390.0 10130.0,4389.0 10130.0,4482.0 C 10130.0,4505.0 10136.0,4511.0 10170.0,4521.0 C 10208.0,4532.0 10210.0,4535.0 10210.0,4571.0 C 10210.0,4592.0 10217.0,4628.0 10226.0,4651.0 L 10243.0,4692.0 L 10051.0,4976.0 C 9864.0,5254.0 9845.0,5291.0 9868.0,5326.0 C 9872.0,5333.0 9920.0,5344.0 9975.0,5351.0 C 10030.0,5358.0 10077.0,5365.0 10079.0,5366.0 C 10081.0,5368.0 10070.0,5389.0 10055.0,5412.0 C 10030.0,5449.0 10027.0,5461.0 10029.0,5531.0 L 10031.0,5609.0 L 9993.0,5615.0 C 9972.0,5619.0 9949.0,5622.0 9941.0,5623.0 C 9933.0,5624.0 9917.0,5653.0 9906.0,5687.0 C 9894.0,5721.0 9882.0,5752.0 9878.0,5755.0 C 9875.0,5759.0 9839.0,5770.0 9799.0,5780.0 C 9714.0,5802.0 9737.0,5812.0 9602.0,5688.0 L 9518.0,5611.0 L 9371.0,5617.0 C 9291.0,5620.0 9218.0,5626.0 9209.0,5629.0 C 9199.0,5632.0 9066.0,5746.0 8911.0,5883.0 L 8631.0,6130.0 L 8583.0,6119.0 C 8537.0,6107.0 8536.0,6107.0 8507.0,6141.0 C 8449.0,6209.0 8451.0,6200.0 8466.0,6380.0 C 8473.0,6471.0 8481.0,6553.0 8482.0,6563.0 C 8485.0,6577.0 8499.0,6572.0 8573.0,6529.0 L 8661.0,6478.0 L 8707.0,6508.0 C 8751.0,6537.0 8754.0,6537.0 8787.0,6523.0 C 8826.0,6507.0 8835.0,6512.0 8863.0,6558.0 L 8880.0,6588.0 L 8708.0,6646.0 C 8613.0,6677.0 8534.0,6704.0 8532.0,6705.0 C 8530.0,6707.0 8521.0,6740.0 8512.0,6779.0 L 8495.0,6851.0 L 8352.0,6915.0 C 8214.0,6977.0 8205.0,6980.0 8129.0,6980.0 C 8050.0,6980.0 8050.0,6980.0 8050.0,7006.0 C 8050.0,7033.0 7957.0,7173.0 7852.0,7302.0 C 7805.0,7361.0 7793.0,7386.0 7760.0,7489.0 L 7723.0,7608.0 L 7748.0,7654.0 C 7771.0,7696.0 7772.0,7703.0 7761.0,7740.0 C 7750.0,7776.0 7741.0,7784.0 7659.0,7829.0 L 7568.0,7878.0 L 7514.0,7979.0 L 7460.0,8079.0 L 7509.0,8216.0 L 7558.0,8352.0 L 7539.0,8431.0 L 7520.0,8510.0 L 7542.0,8547.0 C 7554.0,8567.0 7560.0,8585.0 7555.0,8587.0 C 7549.0,8590.0 7415.0,8638.0 7255.0,8694.0 L 6965.0,8797.0 L 6897.0,8763.0 C 6829.0,8729.0 6828.0,8729.0 6782.0,8744.0 C 6756.0,8752.0 6665.0,8766.0 6580.0,8775.0 C 6495.0,8783.0 6409.0,8792.0 6390.0,8794.0 C 6357.0,8799.0 6344.0,8789.0 6141.0,8616.0" fill="pink"/>
</svg>
