<?xml version="1.0" ?>
<svg xmlns="http://www.w3.org/2000/svg" xmlns:ev="http://www.w3.org/2001/xml-events" xmlns:xlink="http://www.w3.org/1999/xlink" baseProfile="full" height="600px" version="1.1" viewBox="2613.891837386435 -1013.2919548762585 5005.606865538462 12278.94167214357" width="245px">
	<defs/>
	<path d="M 6323.0,10227.0 L 6300.0,10214.0 L 6325.0,10178.0 C 6339.0,10158.0 6350.0,10137.0 6350.0,10133.0 C 6350.0,10129.0 6327.0,10108.0 6299.0,10088.0 C 6264.0,10062.0 6237.0,10050.0 6215.0,10050.0 C 6189.0,10050.0 6176.0,10042.0 6146.0,10005.0 C 6110.0,9962.0 6108.0,9961.0 6042.0,9958.0 C 5981.0,9955.0 5975.0,9953.0 5972.0,9933.0 C 5970.0,9920.0 5966.0,9910.0 5963.0,9910.0 C 5956.0,9910.0 5801.0,10005.0 5779.0,10022.0 C 5771.0,10029.0 5748.0,10063.0 5729.0,10098.0 L 5693.0,10160.0 L 5661.0,10120.0 C 5635.0,10088.0 5631.0,10077.0 5640.0,10061.0 C 5654.0,10034.0 5699.0,10000.0 5720.0,10000.0 C 5745.0,10000.0 5826.0,9934.0 5887.0,9864.0 L 5938.0,9804.0 L 5909.0,9733.0 L 5879.0,9662.0 L 5911.0,9616.0 C 5943.0,9571.0 5944.0,9568.0 5933.0,9517.0 C 5927.0,9489.0 5925.0,9464.0 5929.0,9462.0 C 5986.0,9438.0 6016.0,9411.0 6033.0,9365.0 C 6061.0,9289.0 6093.0,9260.0 6152.0,9260.0 C 6199.0,9260.0 6200.0,9261.0 6236.0,9318.0 C 6276.0,9381.0 6348.0,9460.0 6365.0,9460.0 C 6381.0,9460.0 6417.0,9420.0 6429.0,9387.0 C 6437.0,9366.0 6436.0,9352.0 6424.0,9326.0 C 6405.0,9288.0 6417.0,9232.0 6441.0,9239.0 C 6449.0,9241.0 6462.0,9245.0 6471.0,9247.0 C 6488.0,9252.0 6510.0,9207.0 6510.0,9168.0 C 6510.0,9141.0 6548.0,9090.0 6567.0,9090.0 C 6579.0,9090.0 6581.0,9097.0 6577.0,9120.0 C 6571.0,9146.0 6575.0,9152.0 6600.0,9165.0 C 6644.0,9188.0 6655.0,9215.0 6628.0,9234.0 C 6609.0,9248.0 6604.0,9248.0 6590.0,9235.0 C 6568.0,9215.0 6553.0,9216.0 6540.0,9239.0 C 6531.0,9257.0 6537.0,9260.0 6613.0,9278.0 L 6695.0,9297.0 L 6715.0,9275.0 C 6726.0,9262.0 6753.0,9243.0 6774.0,9232.0 C 6811.0,9214.0 6812.0,9212.0 6791.0,9205.0 C 6768.0,9198.0 6746.0,9156.0 6754.0,9133.0 C 6757.0,9126.0 6770.0,9120.0 6784.0,9120.0 C 6813.0,9120.0 6850.0,9078.0 6850.0,9043.0 C 6850.0,9018.0 6847.0,9019.0 6923.0,9035.0 C 6946.0,9040.0 6952.0,9036.0 6960.0,9015.0 C 6972.0,8984.0 6973.0,8930.0 6963.0,8930.0 C 6958.0,8931.0 6944.0,8937.0 6931.0,8944.0 C 6906.0,8958.0 6880.0,8955.0 6880.0,8940.0 C 6880.0,8936.0 6895.0,8921.0 6913.0,8907.0 C 6944.0,8884.0 6951.0,8882.0 6988.0,8892.0 L 7030.0,8902.0 L 7030.0,8974.0 C 7029.0,9013.0 7023.0,9071.0 7016.0,9102.0 C 7006.0,9142.0 7005.0,9171.0 7012.0,9203.0 C 7020.0,9242.0 7017.0,9259.0 6985.0,9351.0 C 6965.0,9408.0 6946.0,9463.0 6943.0,9473.0 C 6940.0,9483.0 6949.0,9508.0 6964.0,9530.0 C 6990.0,9570.0 6990.0,9571.0 6976.0,9623.0 C 6968.0,9651.0 6958.0,9697.0 6954.0,9724.0 C 6950.0,9757.0 6940.0,9779.0 6924.0,9793.0 C 6911.0,9804.0 6900.0,9819.0 6900.0,9826.0 C 6900.0,9850.0 6921.0,9852.0 6944.0,9831.0 C 6961.0,9815.0 6969.0,9813.0 6978.0,9822.0 C 6995.0,9839.0 6993.0,9857.0 6968.0,9890.0 C 6948.0,9918.0 6942.0,9920.0 6878.0,9920.0 C 6822.0,9920.0 6793.0,9927.0 6726.0,9954.0 C 6680.0,9973.0 6634.0,9986.0 6623.0,9984.0 C 6606.0,9979.0 6601.0,9984.0 6597.0,10012.0 C 6594.0,10030.0 6589.0,10055.0 6585.0,10067.0 C 6579.0,10086.0 6583.0,10092.0 6606.0,10100.0 C 6639.0,10113.0 6650.0,10126.0 6650.0,10157.0 C 6650.0,10191.0 6633.0,10194.0 6599.0,10166.0 C 6583.0,10152.0 6552.0,10136.0 6530.0,10130.0 C 6497.0,10121.0 6484.0,10123.0 6438.0,10143.0 C 6395.0,10162.0 6383.0,10173.0 6372.0,10203.0 C 6357.0,10244.0 6355.0,10245.0 6323.0,10227.0" fill="pink"/>
	<path d="M 5684.0,9279.0 C 5674.0,9267.0 5604.0,9228.0 5530.0,9192.0 C 5456.0,9157.0 5384.0,9119.0 5370.0,9110.0 C 5356.0,9101.0 5314.0,9082.0 5275.0,9070.0 C 5196.0,9044.0 5066.0,9040.0 4960.0,9061.0 C 4904.0,9072.0 4901.0,9074.0 4898.0,9104.0 C 4896.0,9128.0 4890.0,9136.0 4872.0,9138.0 C 4846.0,9142.0 4826.0,9182.0 4833.0,9218.0 C 4837.0,9236.0 4830.0,9244.0 4792.0,9260.0 C 4768.0,9271.0 4728.0,9280.0 4705.0,9280.0 C 4666.0,9280.0 4658.0,9275.0 4618.0,9231.0 C 4594.0,9205.0 4556.0,9173.0 4533.0,9162.0 C 4503.0,9146.0 4490.0,9132.0 4485.0,9110.0 C 4476.0,9069.0 4467.0,9066.0 4412.0,9084.0 C 4342.0,9107.0 4203.0,9123.0 4138.0,9116.0 C 4107.0,9112.0 4053.0,9101.0 4017.0,9091.0 C 3959.0,9075.0 3943.0,9075.0 3859.0,9086.0 C 3768.0,9099.0 3760.0,9098.0 3610.0,9069.0 C 3525.0,9053.0 3439.0,9034.0 3420.0,9028.0 C 3372.0,9013.0 3295.0,8941.0 3298.0,8915.0 C 3300.0,8903.0 3290.0,8884.0 3275.0,8870.0 C 3261.0,8857.0 3250.0,8842.0 3250.0,8836.0 C 3250.0,8831.0 3238.0,8813.0 3223.0,8798.0 C 3202.0,8776.0 3187.0,8770.0 3154.0,8770.0 C 3082.0,8770.0 3064.0,8758.0 3046.0,8698.0 C 3036.0,8663.0 3033.0,8626.0 3037.0,8587.0 C 3042.0,8538.0 3047.0,8526.0 3072.0,8509.0 C 3087.0,8498.0 3107.0,8476.0 3115.0,8461.0 C 3123.0,8445.0 3142.0,8427.0 3158.0,8421.0 L 3187.0,8409.0 L 3193.0,8288.0 C 3206.0,8062.0 3203.0,8024.0 3173.0,7972.0 C 3158.0,7946.0 3133.0,7910.0 3117.0,7891.0 C 3088.0,7857.0 3088.0,7854.0 3093.0,7780.0 C 3098.0,7715.0 3096.0,7699.0 3079.0,7672.0 C 3054.0,7629.0 3059.0,7598.0 3126.0,7382.0 C 3156.0,7287.0 3180.0,7196.0 3180.0,7179.0 C 3180.0,7154.0 3173.0,7147.0 3119.0,7119.0 C 3067.0,7093.0 3059.0,7086.0 3064.0,7067.0 C 3067.0,7055.0 3070.0,7037.0 3070.0,7027.0 C 3070.0,7009.0 3072.0,7010.0 3104.0,7029.0 C 3152.0,7059.0 3200.0,7057.0 3232.0,7023.0 C 3252.0,7001.0 3259.0,6981.0 3263.0,6932.0 C 3267.0,6878.0 3275.0,6859.0 3309.0,6810.0 C 3333.0,6775.0 3350.0,6740.0 3350.0,6723.0 C 3350.0,6688.0 3364.0,6665.0 3379.0,6674.0 C 3386.0,6678.0 3390.0,6673.0 3390.0,6661.0 C 3390.0,6650.0 3386.0,6638.0 3380.0,6635.0 C 3359.0,6622.0 3372.0,6602.0 3411.0,6586.0 L 3451.0,6570.0 L 3445.0,6516.0 L 3438.0,6462.0 L 3479.0,6455.0 C 3519.0,6448.0 3520.0,6447.0 3520.0,6409.0 C 3520.0,6367.0 3538.0,6350.0 3584.0,6350.0 C 3608.0,6350.0 3610.0,6346.0 3610.0,6310.0 C 3610.0,6283.0 3618.0,6258.0 3633.0,6239.0 C 3651.0,6214.0 3655.0,6197.0 3653.0,6147.0 C 3652.0,6111.0 3657.0,6075.0 3666.0,6059.0 C 3673.0,6044.0 3680.0,6007.0 3681.0,5978.0 C 3681.0,5949.0 3682.0,5894.0 3682.0,5855.0 C 3683.0,5817.0 3678.0,5747.0 3671.0,5701.0 C 3657.0,5608.0 3665.0,5555.0 3703.0,5492.0 C 3720.0,5463.0 3722.0,5447.0 3717.0,5379.0 C 3711.0,5310.0 3714.0,5290.0 3735.0,5231.0 C 3749.0,5193.0 3760.0,5149.0 3760.0,5132.0 C 3760.0,5084.0 3721.0,4989.0 3686.0,4950.0 C 3642.0,4903.0 3594.0,4824.0 3575.0,4770.0 C 3542.0,4675.0 3506.0,4600.0 3494.0,4600.0 C 3468.0,4600.0 3471.0,4581.0 3499.0,4564.0 C 3522.0,4550.0 3528.0,4541.0 3525.0,4521.0 C 3496.0,4332.0 3505.0,4352.0 3352.0,4137.0 C 3254.0,3999.0 3242.0,3979.0 3238.0,3932.0 C 3232.0,3874.0 3207.0,3842.0 3182.0,3863.0 C 3172.0,3871.0 3166.0,3870.0 3159.0,3859.0 C 3153.0,3849.0 3156.0,3842.0 3170.0,3836.0 C 3186.0,3829.0 3190.0,3817.0 3190.0,3781.0 C 3190.0,3756.0 3197.0,3697.0 3205.0,3650.0 C 3224.0,3541.0 3224.0,3540.0 3198.0,3540.0 C 3176.0,3539.0 3176.0,3539.0 3203.0,3517.0 C 3222.0,3501.0 3230.0,3485.0 3230.0,3464.0 C 3230.0,3447.0 3250.0,3390.0 3274.0,3338.0 C 3298.0,3287.0 3326.0,3218.0 3335.0,3187.0 C 3348.0,3141.0 3368.0,3112.0 3443.0,3027.0 C 3548.0,2908.0 3616.0,2856.0 3680.0,2843.0 C 3721.0,2835.0 3731.0,2827.0 3790.0,2750.0 C 3825.0,2703.0 3873.0,2649.0 3895.0,2630.0 C 3950.0,2583.0 4092.0,2398.0 4196.0,2238.0 C 4300.0,2079.0 4289.0,2092.0 4300.0,2110.0 C 4305.0,2118.0 4305.0,2131.0 4299.0,2142.0 C 4293.0,2152.0 4274.0,2196.0 4256.0,2239.0 C 4217.0,2329.0 4220.0,2351.0 4268.0,2331.0 C 4305.0,2315.0 4334.0,2250.0 4381.0,2073.0 C 4411.0,1959.0 4418.0,1945.0 4576.0,1679.0 C 4665.0,1528.0 4767.0,1343.0 4801.0,1269.0 L 4862.0,1135.0 L 4869.0,935.0 L 4876.0,735.0 L 4944.0,567.0 C 5003.0,419.0 5017.0,374.0 5044.0,260.0 C 5051.0,232.0 5179.0,-1.0 5180.0,15.0 C 5180.0,21.0 5171.0,62.0 5160.0,108.0 C 5127.0,244.0 5129.0,251.0 5216.0,370.0 C 5258.0,428.0 5359.0,543.0 5440.0,625.0 C 5522.0,708.0 5667.0,866.0 5763.0,978.0 L 5938.0,1181.0 L 5915.0,1233.0 C 5888.0,1291.0 5881.0,1403.0 5894.0,1540.0 C 5898.0,1581.0 5897.0,1644.0 5892.0,1680.0 C 5884.0,1734.0 5886.0,1754.0 5901.0,1799.0 C 5925.0,1868.0 5925.0,1873.0 5895.0,1919.0 L 5871.0,1958.0 L 5932.0,2147.0 C 5992.0,2334.0 5993.0,2336.0 5995.0,2470.0 C 5998.0,2604.0 5999.0,2606.0 6049.0,2748.0 C 6077.0,2827.0 6100.0,2901.0 6100.0,2913.0 C 6100.0,2925.0 6092.0,2962.0 6082.0,2995.0 C 6065.0,3051.0 6064.0,3066.0 6077.0,3225.0 C 6085.0,3319.0 6093.0,3466.0 6095.0,3552.0 C 6097.0,3638.0 6102.0,3730.0 6105.0,3755.0 C 6111.0,3794.0 6115.0,3800.0 6136.0,3800.0 C 6149.0,3800.0 6160.0,3804.0 6160.0,3808.0 C 6160.0,3813.0 6167.0,3868.0 6175.0,3931.0 C 6184.0,3994.0 6190.0,4073.0 6189.0,4107.0 C 6186.0,4189.0 6275.0,4511.0 6302.0,4518.0 C 6318.0,4522.0 6320.0,4537.0 6320.0,4656.0 C 6320.0,4729.0 6325.0,4801.0 6330.0,4816.0 C 6339.0,4840.0 6337.0,4847.0 6317.0,4867.0 L 6294.0,4891.0 L 6377.0,4976.0 C 6423.0,5022.0 6460.0,5065.0 6460.0,5070.0 C 6460.0,5075.0 6412.0,5112.0 6354.0,5152.0 L 6248.0,5225.0 L 6254.0,5305.0 C 6260.0,5378.0 6258.0,5389.0 6235.0,5429.0 C 6215.0,5464.0 6210.0,5486.0 6210.0,5544.0 L 6210.0,5615.0 L 6264.0,5665.0 C 6315.0,5713.0 6318.0,5717.0 6313.0,5756.0 C 6309.0,5793.0 6300.0,5805.0 6245.0,5851.0 L 6181.0,5905.0 L 6181.0,5967.0 C 6180.0,6016.0 6184.0,6031.0 6198.0,6039.0 C 6255.0,6073.0 6254.0,6069.0 6220.0,6184.0 L 6190.0,6290.0 L 6237.0,6385.0 L 6285.0,6480.0 L 6348.0,6450.0 C 6383.0,6433.0 6414.0,6420.0 6417.0,6420.0 C 6419.0,6420.0 6403.0,6443.0 6381.0,6471.0 C 6331.0,6534.0 6326.0,6581.0 6365.0,6637.0 L 6389.0,6674.0 L 6357.0,6714.0 C 6213.0,6893.0 6213.0,6892.0 6207.0,6953.0 C 6203.0,6997.0 6194.0,7019.0 6171.0,7047.0 C 6139.0,7085.0 6139.0,7094.0 6170.0,7110.0 C 6187.0,7119.0 6200.0,7098.0 6304.0,6906.0 C 6414.0,6704.0 6419.0,6691.0 6409.0,6661.0 C 6400.0,6637.0 6401.0,6618.0 6410.0,6584.0 C 6421.0,6546.0 6421.0,6537.0 6409.0,6530.0 C 6384.0,6514.0 6408.0,6507.0 6495.0,6506.0 C 6571.0,6504.0 6580.0,6506.0 6580.0,6522.0 C 6580.0,6532.0 6573.0,6543.0 6565.0,6546.0 C 6543.0,6555.0 6547.0,6578.0 6572.0,6591.0 L 6595.0,6603.0 L 6567.0,6613.0 C 6551.0,6618.0 6540.0,6629.0 6540.0,6640.0 C 6540.0,6650.0 6534.0,6661.0 6528.0,6663.0 C 6520.0,6667.0 6524.0,6671.0 6538.0,6675.0 C 6553.0,6680.0 6560.0,6690.0 6560.0,6707.0 C 6560.0,6725.0 6556.0,6730.0 6543.0,6726.0 C 6492.0,6711.0 6470.0,6709.0 6470.0,6718.0 C 6470.0,6724.0 6467.0,6735.0 6464.0,6744.0 C 6459.0,6756.0 6465.0,6760.0 6486.0,6760.0 L 6515.0,6760.0 L 6493.0,6778.0 C 6475.0,6792.0 6469.0,6809.0 6464.0,6868.0 C 6459.0,6919.0 6460.0,6940.0 6469.0,6940.0 C 6490.0,6940.0 6480.0,6970.0 6455.0,6982.0 C 6435.0,6991.0 6430.0,7001.0 6430.0,7028.0 C 6430.0,7082.0 6458.0,7120.0 6520.0,7147.0 L 6575.0,7172.0 L 6597.0,7145.0 L 6620.0,7119.0 L 6701.0,7147.0 C 6780.0,7175.0 6781.0,7175.0 6776.0,7205.0 C 6772.0,7222.0 6758.0,7257.0 6745.0,7284.0 C 6731.0,7311.0 6723.0,7336.0 6727.0,7340.0 C 6731.0,7343.0 6773.0,7363.0 6819.0,7384.0 C 6876.0,7410.0 6914.0,7421.0 6939.0,7419.0 C 6959.0,7417.0 7016.0,7422.0 7067.0,7429.0 C 7140.0,7440.0 7164.0,7448.0 7181.0,7466.0 C 7212.0,7499.0 7200.0,7505.0 7152.0,7480.0 C 7123.0,7465.0 7098.0,7460.0 7064.0,7462.0 C 7022.0,7465.0 7015.0,7468.0 7009.0,7491.0 C 7003.0,7514.0 7008.0,7522.0 7053.0,7555.0 C 7081.0,7576.0 7110.0,7593.0 7117.0,7593.0 C 7133.0,7593.0 7132.0,7590.0 7119.0,7629.0 C 7110.0,7654.0 7105.0,7658.0 7095.0,7650.0 C 7087.0,7644.0 7083.0,7633.0 7086.0,7625.0 C 7089.0,7617.0 7065.0,7596.0 7023.0,7570.0 C 6957.0,7529.0 6412.0,7230.0 6404.0,7230.0 C 6402.0,7230.0 6389.0,7255.0 6375.0,7286.0 C 6357.0,7327.0 6350.0,7360.0 6350.0,7407.0 C 6350.0,7464.0 6352.0,7471.0 6365.0,7460.0 C 6373.0,7453.0 6380.0,7441.0 6380.0,7433.0 C 6380.0,7423.0 6386.0,7420.0 6396.0,7424.0 C 6405.0,7427.0 6416.0,7430.0 6421.0,7430.0 C 6437.0,7430.0 6431.0,7449.0 6403.0,7491.0 C 6381.0,7525.0 6379.0,7533.0 6391.0,7540.0 C 6401.0,7547.0 6405.0,7570.0 6405.0,7622.0 C 6406.0,7714.0 6401.0,7740.0 6384.0,7740.0 C 6376.0,7740.0 6370.0,7749.0 6370.0,7760.0 C 6370.0,7773.0 6360.0,7784.0 6345.0,7790.0 C 6316.0,7801.0 6311.0,7835.0 6338.0,7845.0 C 6354.0,7851.0 6354.0,7852.0 6338.0,7864.0 C 6328.0,7871.0 6320.0,7882.0 6320.0,7889.0 C 6320.0,7895.0 6304.0,7900.0 6283.0,7900.0 L 6245.0,7901.0 L 6289.0,7940.0 L 6334.0,7979.0 L 6324.0,8027.0 C 6316.0,8071.0 6312.0,8075.0 6285.0,8078.0 C 6269.0,8079.0 6245.0,8086.0 6233.0,8092.0 C 6209.0,8104.0 6127.0,8089.0 6075.0,8062.0 C 6023.0,8036.0 5950.0,7967.0 5903.0,7901.0 L 5858.0,7836.0 L 5870.0,7776.0 C 5893.0,7656.0 5898.0,7643.0 5930.0,7631.0 C 5955.0,7623.0 5960.0,7616.0 5960.0,7587.0 C 5960.0,7553.0 5936.0,7520.0 5911.0,7520.0 C 5902.0,7520.0 5905.0,7509.0 5919.0,7486.0 C 5931.0,7468.0 5940.0,7444.0 5940.0,7434.0 C 5940.0,7420.0 5943.0,7419.0 5952.0,7428.0 C 5968.0,7444.0 6001.0,7443.0 6024.0,7425.0 C 6035.0,7417.0 6054.0,7410.0 6066.0,7410.0 C 6100.0,7410.0 6184.0,7328.0 6205.0,7275.0 C 6214.0,7250.0 6220.0,7226.0 6217.0,7223.0 C 6203.0,7209.0 6143.0,7231.0 6132.0,7254.0 C 6119.0,7283.0 6046.0,7310.0 5982.0,7310.0 C 5957.0,7310.0 5930.0,7316.0 5921.0,7324.0 C 5912.0,7332.0 5882.0,7342.0 5854.0,7345.0 L 5803.0,7352.0 L 5790.0,7300.0 L 5777.0,7247.0 L 5744.0,7301.0 C 5705.0,7362.0 5703.0,7376.0 5730.0,7410.0 C 5767.0,7458.0 5759.0,7470.0 5605.0,7601.0 C 5507.0,7685.0 5465.0,7727.0 5475.0,7730.0 C 5492.0,7736.0 5432.0,7798.0 5341.0,7869.0 C 5285.0,7913.0 5264.0,7947.0 5214.0,8078.0 C 5189.0,8143.0 5192.0,8167.0 5225.0,8195.0 C 5242.0,8208.0 5254.0,8290.0 5240.0,8290.0 C 5234.0,8290.0 5216.0,8283.0 5200.0,8275.0 C 5166.0,8257.0 5164.0,8262.0 5182.0,8322.0 L 5194.0,8361.0 L 5254.0,8355.0 C 5307.0,8349.0 5323.0,8352.0 5373.0,8374.0 L 5431.0,8399.0 L 5528.0,8352.0 C 5581.0,8326.0 5643.0,8297.0 5665.0,8287.0 C 5687.0,8277.0 5719.0,8262.0 5735.0,8253.0 C 5774.0,8231.0 5867.0,8225.0 5900.0,8242.0 C 5914.0,8250.0 5934.0,8270.0 5945.0,8287.0 C 5974.0,8333.0 6031.0,8363.0 6065.0,8350.0 C 6095.0,8339.0 6153.0,8337.0 6163.0,8347.0 C 6167.0,8350.0 6161.0,8363.0 6150.0,8375.0 C 6139.0,8386.0 6127.0,8410.0 6124.0,8428.0 C 6118.0,8460.0 6118.0,8460.0 6151.0,8453.0 C 6170.0,8450.0 6190.0,8440.0 6196.0,8431.0 C 6215.0,8406.0 6270.0,8448.0 6306.0,8514.0 C 6321.0,8541.0 6321.0,8545.0 6301.0,8580.0 C 6289.0,8601.0 6280.0,8625.0 6280.0,8634.0 C 6280.0,8655.0 6274.0,8654.0 6243.0,8630.0 C 6219.0,8612.0 6216.0,8611.0 6186.0,8627.0 C 6169.0,8635.0 6154.0,8644.0 6152.0,8645.0 C 6150.0,8647.0 6158.0,8667.0 6170.0,8689.0 C 6193.0,8736.0 6190.0,8750.0 6156.0,8750.0 C 6141.0,8750.0 6130.0,8743.0 6127.0,8730.0 C 6120.0,8701.0 6076.0,8704.0 6052.0,8735.0 C 6028.0,8765.0 6022.0,8765.0 5990.0,8740.0 C 5961.0,8717.0 5950.0,8715.0 5950.0,8733.0 C 5950.0,8739.0 5936.0,8757.0 5918.0,8772.0 L 5885.0,8798.0 L 5910.0,8894.0 C 5935.0,8994.0 5935.0,8992.0 5904.0,9167.0 C 5896.0,9210.0 5847.0,9252.0 5775.0,9279.0 C 5706.0,9305.0 5707.0,9305.0 5684.0,9279.0" fill="pink"/>
</svg>
