<?xml version="1.0" ?>
<svg xmlns="http://www.w3.org/2000/svg" xmlns:ev="http://www.w3.org/2001/xml-events" xmlns:xlink="http://www.w3.org/1999/xlink" baseProfile="full" height="600px" version="1.1" viewBox="2072.082573457494 -1024.446973183723 6103.834853085012 12292.058555098934" width="298px">
	<defs/>
	<path d="M 5911.0,10229.0 C 5886.0,10224.0 5855.0,10209.0 5839.0,10194.0 C 5816.0,10172.0 5808.0,10169.0 5796.0,10179.0 C 5784.0,10189.0 5775.0,10183.0 5743.0,10140.0 C 5712.0,10099.0 5701.0,10090.0 5683.0,10095.0 C 5670.0,10098.0 5652.0,10095.0 5642.0,10089.0 C 5627.0,10080.0 5615.0,10080.0 5590.0,10089.0 C 5560.0,10099.0 5554.0,10098.0 5534.0,10079.0 C 5513.0,10060.0 5506.0,10058.0 5469.0,10068.0 C 5434.0,10077.0 5421.0,10076.0 5396.0,10063.0 C 5379.0,10054.0 5334.0,10039.0 5295.0,10030.0 C 5213.0,10010.0 5216.0,10032.0 5265.0,9821.0 C 5297.0,9682.0 5307.0,9660.0 5341.0,9660.0 C 5351.0,9660.0 5361.0,9645.0 5368.0,9621.0 C 5384.0,9568.0 5384.0,9564.0 5353.0,9524.0 C 5330.0,9496.0 5318.0,9490.0 5287.0,9490.0 L 5249.0,9490.0 L 5255.0,9436.0 C 5261.0,9388.0 5260.0,9381.0 5242.0,9371.0 C 5229.0,9364.0 5221.0,9346.0 5216.0,9314.0 C 5211.0,9275.0 5203.0,9261.0 5162.0,9224.0 C 5115.0,9183.0 5113.0,9178.0 5107.0,9115.0 C 5103.0,9079.0 5098.0,9045.0 5095.0,9039.0 C 5091.0,9034.0 5065.0,9018.0 5037.0,9004.0 C 4974.0,8971.0 4890.0,8904.0 4735.0,8761.0 C 4616.0,8651.0 4615.0,8650.0 4565.0,8650.0 C 4538.0,8650.0 4498.0,8655.0 4478.0,8660.0 C 4451.0,8668.0 4414.0,8667.0 4339.0,8655.0 C 4283.0,8647.0 4208.0,8640.0 4173.0,8640.0 C 4125.0,8640.0 4097.0,8634.0 4060.0,8615.0 C 4033.0,8601.0 3994.0,8590.0 3973.0,8590.0 C 3939.0,8590.0 3932.0,8595.0 3906.0,8636.0 C 3871.0,8692.0 3851.0,8700.0 3747.0,8700.0 C 3675.0,8700.0 3660.0,8697.0 3627.0,8675.0 C 3597.0,8654.0 3590.0,8643.0 3590.0,8617.0 C 3590.0,8592.0 3583.0,8581.0 3561.0,8568.0 C 3516.0,8543.0 3495.0,8505.0 3509.0,8474.0 C 3526.0,8436.0 3523.0,8429.0 3494.0,8440.0 C 3479.0,8446.0 3452.0,8447.0 3433.0,8444.0 C 3399.0,8438.0 3398.0,8436.0 3403.0,8399.0 C 3407.0,8366.0 3405.0,8361.0 3385.0,8356.0 C 3372.0,8353.0 3343.0,8357.0 3320.0,8365.0 C 3275.0,8381.0 3180.0,8386.0 3180.0,8372.0 C 3180.0,8368.0 3184.0,8360.0 3189.0,8355.0 C 3194.0,8349.0 3201.0,8314.0 3205.0,8275.0 L 3213.0,8205.0 L 3192.0,8224.0 C 3171.0,8242.0 3170.0,8242.0 3135.0,8211.0 C 3115.0,8194.0 3096.0,8180.0 3092.0,8180.0 C 3088.0,8180.0 3079.0,8176.0 3072.0,8171.0 C 3061.0,8165.0 3066.0,8148.0 3094.0,8092.0 C 3114.0,8053.0 3130.0,8019.0 3130.0,8017.0 C 3130.0,8004.0 3023.0,8033.0 2971.0,8059.0 L 2910.0,8090.0 L 2900.0,8065.0 C 2887.0,8031.0 2887.0,7994.0 2901.0,7968.0 C 2916.0,7940.0 2909.0,7937.0 2867.0,7955.0 L 2831.0,7970.0 L 2811.0,7914.0 C 2799.0,7884.0 2790.0,7843.0 2790.0,7822.0 C 2790.0,7802.0 2784.0,7745.0 2776.0,7697.0 L 2763.0,7608.0 L 2686.0,7531.0 L 2609.0,7453.0 L 2616.0,7317.0 C 2622.0,7196.0 2621.0,7178.0 2606.0,7161.0 C 2592.0,7146.0 2589.0,7119.0 2587.0,7022.0 L 2585.0,6902.0 L 3070.0,6583.0 L 3555.0,6265.0 L 3562.0,5945.0 L 3570.0,5625.0 L 3544.0,5576.0 L 3519.0,5526.0 L 3541.0,5473.0 C 3556.0,5437.0 3567.0,5421.0 3578.0,5422.0 C 3591.0,5424.0 3598.0,5402.0 3616.0,5302.0 C 3629.0,5234.0 3645.0,5171.0 3652.0,5162.0 C 3784.0,5002.0 3818.0,4966.0 3854.0,4948.0 C 3877.0,4937.0 3912.0,4912.0 3933.0,4892.0 C 3966.0,4860.0 3970.0,4851.0 3970.0,4805.0 C 3970.0,4778.0 3977.0,4701.0 3985.0,4635.0 C 3995.0,4554.0 4000.0,4411.0 4000.0,4196.0 L 4000.0,3877.0 L 4031.0,3824.0 L 4061.0,3770.0 L 4036.0,3737.0 C 4019.0,3715.0 4010.0,3690.0 4010.0,3668.0 C 4010.0,3648.0 4003.0,3627.0 3995.0,3620.0 C 3975.0,3604.0 3976.0,3594.0 3999.0,3562.0 C 4016.0,3537.0 4018.0,3492.0 4031.0,2975.0 C 4039.0,2667.0 4045.0,2291.0 4045.0,2140.0 C 4046.0,1989.0 4050.0,1733.0 4054.0,1573.0 L 4063.0,1280.0 L 3980.0,1287.0 C 3910.0,1292.0 3898.0,1291.0 3902.0,1279.0 C 3905.0,1271.0 3916.0,1239.0 3926.0,1207.0 C 3938.0,1169.0 3955.0,1139.0 3975.0,1121.0 C 4005.0,1095.0 4006.0,1093.0 4004.0,1005.0 C 4001.0,914.0 3986.0,854.0 3951.0,796.0 C 3934.0,769.0 3933.0,763.0 3946.0,746.0 C 3954.0,735.0 3960.0,714.0 3960.0,700.0 C 3960.0,669.0 3997.0,631.0 4056.0,602.0 C 4116.0,572.0 4132.0,542.0 4124.0,475.0 L 4117.0,420.0 L 4160.0,420.0 C 4198.0,420.0 4208.0,415.0 4241.0,379.0 C 4281.0,336.0 4285.0,320.0 4296.0,194.0 L 4302.0,113.0 L 4273.0,102.0 C 4256.0,97.0 4197.0,84.0 4141.0,74.0 C 4048.0,58.0 4040.0,55.0 4040.0,34.0 C 4040.0,1.0 4055.0,-3.0 4108.0,14.0 C 4168.0,34.0 4363.0,60.0 4455.0,60.0 C 4499.0,60.0 4635.0,81.0 4820.0,116.0 C 5062.0,162.0 5138.0,173.0 5240.0,176.0 C 5309.0,177.0 5394.0,183.0 5430.0,189.0 C 5466.0,195.0 5518.0,200.0 5546.0,200.0 C 5574.0,200.0 5652.0,211.0 5720.0,225.0 C 5788.0,239.0 5844.0,250.0 5845.0,250.0 C 5846.0,250.0 5850.0,285.0 5853.0,328.0 C 5856.0,370.0 5870.0,447.0 5885.0,499.0 C 5912.0,588.0 5912.0,594.0 5897.0,620.0 C 5872.0,661.0 5885.0,705.0 5932.0,743.0 C 5968.0,772.0 5971.0,777.0 5968.0,820.0 C 5965.0,859.0 5962.0,865.0 5942.0,868.0 C 5925.0,871.0 5913.0,884.0 5899.0,914.0 C 5882.0,953.0 5882.0,960.0 5895.0,1005.0 C 5903.0,1031.0 5910.0,1074.0 5910.0,1099.0 C 5910.0,1136.0 5904.0,1150.0 5879.0,1176.0 L 5849.0,1207.0 L 5866.0,1248.0 C 5878.0,1281.0 5894.0,1296.0 5936.0,1321.0 C 5966.0,1338.0 5990.0,1353.0 5990.0,1355.0 C 5990.0,1358.0 5977.0,1366.0 5962.0,1374.0 C 5945.0,1383.0 5927.0,1404.0 5918.0,1427.0 C 5904.0,1464.0 5904.0,1468.0 5925.0,1498.0 L 5947.0,1530.0 L 5928.0,1633.0 C 5906.0,1753.0 5905.0,1762.0 5908.0,1902.0 L 5910.0,2009.0 L 5944.0,2003.0 L 5978.0,1998.0 L 5985.0,2060.0 C 5992.0,2117.0 5990.0,2123.0 5970.0,2137.0 C 5863.0,2212.0 5850.0,2249.0 5850.0,2476.0 L 5850.0,2646.0 L 5814.0,2681.0 C 5794.0,2699.0 5770.0,2727.0 5759.0,2741.0 L 5740.0,2768.0 L 5775.0,2813.0 C 5794.0,2838.0 5810.0,2869.0 5810.0,2882.0 C 5809.0,2953.0 5844.0,3170.0 5862.0,3207.0 C 5886.0,3257.0 5881.0,3300.0 5845.0,3370.0 C 5832.0,3395.0 5815.0,3440.0 5807.0,3471.0 C 5794.0,3522.0 5794.0,3530.0 5811.0,3561.0 C 5821.0,3580.0 5829.0,3607.0 5830.0,3621.0 C 5830.0,3635.0 5838.0,3654.0 5848.0,3664.0 C 5877.0,3689.0 5893.0,3751.0 5886.0,3801.0 C 5882.0,3825.0 5876.0,3919.0 5872.0,4010.0 C 5867.0,4106.0 5859.0,4188.0 5852.0,4205.0 C 5840.0,4233.0 5841.0,4236.0 5864.0,4255.0 C 5881.0,4269.0 5890.0,4286.0 5890.0,4304.0 C 5890.0,4319.0 5897.0,4357.0 5906.0,4388.0 C 5922.0,4443.0 5922.0,4444.0 5902.0,4458.0 C 5885.0,4469.0 5883.0,4476.0 5890.0,4490.0 C 5903.0,4514.0 5930.0,4643.0 5930.0,4680.0 C 5930.0,4696.0 5933.0,4711.0 5938.0,4713.0 C 5942.0,4716.0 5973.0,4713.0 6008.0,4707.0 C 6066.0,4698.0 6072.0,4699.0 6093.0,4719.0 C 6127.0,4750.0 6222.0,4749.0 6244.0,4718.0 L 6259.0,4697.0 L 6348.0,4735.0 L 6437.0,4773.0 L 6475.0,4889.0 C 6495.0,4953.0 6523.0,5026.0 6536.0,5051.0 L 6559.0,5098.0 L 6538.0,5222.0 C 6514.0,5363.0 6519.0,5399.0 6571.0,5425.0 C 6605.0,5443.0 6686.0,5571.0 6695.0,5622.0 C 6704.0,5672.0 6731.0,5696.0 6760.0,5680.0 C 6780.0,5669.0 6787.0,5673.0 6829.0,5714.0 L 6875.0,5761.0 L 6842.0,5821.0 L 6809.0,5881.0 L 6824.0,5928.0 L 6840.0,5976.0 L 6955.0,6014.0 L 7070.0,6051.0 L 7105.0,6030.0 C 7146.0,6005.0 7156.0,6009.0 7191.0,6069.0 C 7203.0,6089.0 7228.0,6119.0 7246.0,6135.0 C 7277.0,6163.0 7280.0,6172.0 7290.0,6257.0 C 7303.0,6376.0 7312.0,6397.0 7348.0,6405.0 C 7373.0,6410.0 7379.0,6417.0 7384.0,6448.0 C 7397.0,6531.0 7392.0,6551.0 7348.0,6595.0 C 7324.0,6618.0 7290.0,6666.0 7271.0,6701.0 L 7237.0,6766.0 L 7274.0,6844.0 C 7294.0,6887.0 7310.0,6938.0 7310.0,6957.0 C 7310.0,6988.0 7314.0,6993.0 7356.0,7010.0 C 7381.0,7021.0 7408.0,7030.0 7417.0,7030.0 C 7425.0,7030.0 7462.0,7012.0 7500.0,6990.0 C 7538.0,6968.0 7571.0,6950.0 7573.0,6950.0 C 7582.0,6950.0 7603.0,7014.0 7611.0,7065.0 C 7615.0,7093.0 7625.0,7139.0 7634.0,7167.0 C 7642.0,7196.0 7652.0,7274.0 7656.0,7340.0 L 7663.0,7460.0 L 7621.0,7460.0 L 7580.0,7460.0 L 7539.0,7548.0 C 7500.0,7632.0 7499.0,7636.0 7514.0,7663.0 C 7546.0,7720.0 7526.0,7886.0 7483.0,7932.0 C 7457.0,7959.0 7457.0,7960.0 7470.0,8032.0 C 7477.0,8072.0 7483.0,8109.0 7484.0,8114.0 C 7485.0,8119.0 7466.0,8129.0 7443.0,8137.0 C 7406.0,8150.0 7384.0,8174.0 7239.0,8362.0 C 7150.0,8477.0 7066.0,8592.0 7052.0,8617.0 L 7028.0,8661.0 L 7050.0,8745.0 C 7062.0,8791.0 7069.0,8833.0 7066.0,8839.0 C 7062.0,8845.0 7076.0,8854.0 7098.0,8861.0 C 7134.0,8871.0 7138.0,8876.0 7149.0,8923.0 C 7155.0,8951.0 7172.0,9000.0 7187.0,9032.0 L 7213.0,9091.0 L 7187.0,9118.0 C 7172.0,9134.0 7160.0,9159.0 7158.0,9180.0 C 7156.0,9208.0 7150.0,9216.0 7132.0,9218.0 C 7114.0,9221.0 7109.0,9227.0 7112.0,9245.0 C 7114.0,9262.0 7102.0,9278.0 7058.0,9314.0 C 7027.0,9339.0 6992.0,9360.0 6981.0,9360.0 C 6969.0,9360.0 6942.0,9376.0 6920.0,9396.0 C 6882.0,9430.0 6876.0,9432.0 6829.0,9428.0 C 6800.0,9425.0 6763.0,9427.0 6744.0,9433.0 C 6715.0,9442.0 6708.0,9452.0 6671.0,9541.0 C 6649.0,9595.0 6628.0,9650.0 6624.0,9665.0 C 6615.0,9702.0 6516.0,9780.0 6479.0,9780.0 C 6455.0,9780.0 6447.0,9786.0 6439.0,9809.0 C 6432.0,9828.0 6412.0,9846.0 6379.0,9864.0 C 6336.0,9888.0 6325.0,9901.0 6290.0,9970.0 C 6251.0,10048.0 6250.0,10049.0 6204.0,10056.0 C 6166.0,10061.0 6154.0,10069.0 6131.0,10101.0 C 6090.0,10156.0 5995.0,10240.0 5974.0,10239.0 C 5963.0,10238.0 5935.0,10234.0 5911.0,10229.0" fill="pink"/>
</svg>
