<?xml version="1.0" ?>
<svg xmlns="http://www.w3.org/2000/svg" xmlns:ev="http://www.w3.org/2001/xml-events" xmlns:xlink="http://www.w3.org/1999/xlink" baseProfile="full" height="345px" version="1.1" viewBox="-1028.768240569872 1585.877961314989 12294.036387307624 7066.281964689293" width="600px">
	<defs/>
	<path d="M 1162.0,8034.0 C 1132.0,8021.0 1068.0,8004.0 1019.0,7996.0 C 938.0,7984.0 926.0,7980.0 892.0,7947.0 C 872.0,7927.0 829.0,7900.0 798.0,7886.0 C 737.0,7859.0 737.0,7858.0 746.0,7823.0 C 752.0,7801.0 756.0,7800.0 870.0,7800.0 C 996.0,7800.0 1041.0,7790.0 1080.0,7755.0 C 1094.0,7742.0 1115.0,7729.0 1127.0,7726.0 C 1144.0,7721.0 1150.0,7707.0 1159.0,7656.0 C 1174.0,7568.0 1173.0,7542.0 1151.0,7511.0 C 1140.0,7496.0 1126.0,7456.0 1119.0,7422.0 C 1108.0,7370.0 1100.0,7355.0 1069.0,7331.0 C 1033.0,7302.0 1030.0,7301.0 894.0,7297.0 C 789.0,7295.0 744.0,7289.0 710.0,7276.0 C 685.0,7266.0 630.0,7255.0 587.0,7252.0 C 516.0,7248.0 509.0,7246.0 504.0,7224.0 C 500.0,7207.0 506.0,7189.0 525.0,7164.0 C 547.0,7136.0 556.0,7131.0 573.0,7137.0 C 585.0,7141.0 633.0,7144.0 680.0,7142.0 C 749.0,7139.0 774.0,7134.0 815.0,7112.0 C 858.0,7088.0 867.0,7077.0 888.0,7025.0 C 902.0,6992.0 916.0,6934.0 920.0,6895.0 C 925.0,6851.0 941.0,6794.0 964.0,6739.0 L 1001.0,6653.0 L 1053.0,6638.0 C 1081.0,6629.0 1132.0,6616.0 1165.0,6610.0 C 1256.0,6593.0 1257.0,6592.0 1273.0,6552.0 C 1286.0,6521.0 1286.0,6510.0 1275.0,6483.0 C 1262.0,6453.0 1263.0,6448.0 1291.0,6411.0 C 1315.0,6376.0 1326.0,6370.0 1355.0,6370.0 C 1386.0,6370.0 1394.0,6364.0 1420.0,6323.0 C 1436.0,6297.0 1452.0,6269.0 1455.0,6260.0 C 1458.0,6251.0 1484.0,6233.0 1513.0,6220.0 C 1613.0,6175.0 1665.0,6133.0 1691.0,6077.0 C 1704.0,6048.0 1735.0,5995.0 1760.0,5959.0 L 1805.0,5892.0 L 1900.0,5888.0 C 2014.0,5883.0 2108.0,5900.0 2154.0,5935.0 C 2186.0,5959.0 2188.0,5959.0 2273.0,5948.0 C 2355.0,5937.0 2361.0,5935.0 2401.0,5894.0 C 2443.0,5852.0 2443.0,5849.0 2445.0,5778.0 C 2445.0,5737.0 2450.0,5699.0 2454.0,5692.0 C 2458.0,5685.0 2505.0,5659.0 2558.0,5634.0 C 2783.0,5529.0 2780.0,5531.0 2811.0,5465.0 C 2845.0,5394.0 2849.0,5335.0 2821.0,5327.0 C 2810.0,5324.0 2799.0,5310.0 2795.0,5291.0 C 2788.0,5257.0 2760.0,5248.0 2760.0,5280.0 C 2760.0,5295.0 2753.0,5300.0 2731.0,5300.0 C 2707.0,5300.0 2702.0,5295.0 2698.0,5270.0 C 2694.0,5246.0 2698.0,5239.0 2720.0,5230.0 C 2741.0,5221.0 2754.0,5202.0 2774.0,5150.0 C 2800.0,5086.0 2806.0,5078.0 2858.0,5048.0 C 2889.0,5030.0 2955.0,4977.0 3003.0,4929.0 C 3087.0,4846.0 3091.0,4841.0 3102.0,4781.0 C 3113.0,4724.0 3118.0,4716.0 3154.0,4690.0 C 3177.0,4675.0 3210.0,4637.0 3229.0,4606.0 L 3263.0,4549.0 L 3244.0,4508.0 C 3229.0,4474.0 3216.0,4463.0 3172.0,4443.0 C 3142.0,4430.0 3117.0,4420.0 3116.0,4422.0 C 3115.0,4424.0 3098.0,4445.0 3079.0,4470.0 C 3059.0,4495.0 3026.0,4541.0 3006.0,4573.0 C 2974.0,4624.0 2970.0,4634.0 2978.0,4664.0 C 2990.0,4706.0 2977.0,4731.0 2920.0,4776.0 C 2881.0,4807.0 2871.0,4810.0 2812.0,4810.0 C 2758.0,4810.0 2740.0,4806.0 2709.0,4784.0 C 2643.0,4739.0 2616.0,4638.0 2641.0,4530.0 C 2652.0,4480.0 2796.0,4282.0 2848.0,4243.0 C 2864.0,4231.0 2904.0,4197.0 2936.0,4167.0 L 2995.0,4113.0 L 3128.0,4112.0 C 3277.0,4110.0 3299.0,4103.0 3349.0,4043.0 C 3377.0,4009.0 3380.0,4000.0 3374.0,3960.0 C 3370.0,3935.0 3361.0,3908.0 3354.0,3899.0 C 3333.0,3875.0 3337.0,3860.0 3380.0,3795.0 C 3402.0,3763.0 3422.0,3724.0 3425.0,3709.0 C 3432.0,3677.0 3495.0,3616.0 3534.0,3603.0 C 3558.0,3596.0 3568.0,3581.0 3596.0,3510.0 C 3640.0,3402.0 3709.0,3327.0 3785.0,3304.0 C 3824.0,3293.0 3855.0,3272.0 3921.0,3211.0 C 4006.0,3132.0 4007.0,3131.0 4040.0,3032.0 C 4069.0,2946.0 4078.0,2930.0 4106.0,2915.0 C 4123.0,2906.0 4172.0,2866.0 4214.0,2827.0 L 4292.0,2755.0 L 4316.0,2655.0 C 4329.0,2600.0 4340.0,2525.0 4340.0,2488.0 C 4340.0,2413.0 4365.0,2356.0 4403.0,2344.0 C 4415.0,2340.0 4438.0,2328.0 4454.0,2317.0 C 4470.0,2306.0 4507.0,2291.0 4536.0,2284.0 C 4571.0,2276.0 4605.0,2259.0 4637.0,2232.0 C 4679.0,2198.0 4694.0,2191.0 4750.0,2186.0 L 4816.0,2179.0 L 4828.0,2225.0 C 4834.0,2250.0 4840.0,2285.0 4840.0,2303.0 C 4840.0,2336.0 4867.0,2414.0 4901.0,2482.0 C 4914.0,2508.0 4933.0,2526.0 4955.0,2536.0 C 4990.0,2550.0 4991.0,2552.0 5010.0,2640.0 C 5023.0,2699.0 5045.0,2765.0 5079.0,2844.0 C 5099.0,2889.0 5102.0,2892.0 5114.0,2875.0 C 5127.0,2857.0 5128.0,2857.0 5134.0,2878.0 C 5141.0,2898.0 5136.0,2978.0 5124.0,3042.0 C 5119.0,3065.0 5123.0,3070.0 5154.0,3080.0 C 5173.0,3086.0 5236.0,3123.0 5294.0,3161.0 L 5399.0,3231.0 L 5439.0,3204.0 C 5469.0,3185.0 5481.0,3169.0 5486.0,3144.0 C 5491.0,3115.0 5498.0,3109.0 5547.0,3093.0 L 5601.0,3075.0 L 5650.0,2956.0 C 5712.0,2808.0 5736.0,2774.0 5790.0,2765.0 C 5817.0,2760.0 5830.0,2753.0 5831.0,2742.0 C 5831.0,2732.0 5837.0,2676.0 5843.0,2615.0 L 5855.0,2505.0 L 5885.0,2499.0 C 5902.0,2495.0 5931.0,2492.0 5950.0,2491.0 C 5985.0,2490.0 5986.0,2491.0 6030.0,2579.0 L 6073.0,2668.0 L 6067.0,2813.0 C 6060.0,3003.0 6059.0,3000.0 6126.0,3000.0 C 6156.0,3000.0 6180.0,2996.0 6180.0,2991.0 C 6180.0,2986.0 6203.0,2956.0 6231.0,2926.0 L 6282.0,2870.0 L 6351.0,2870.0 L 6420.0,2870.0 L 6399.0,2910.0 C 6365.0,2976.0 6367.0,3148.0 6404.0,3314.0 C 6436.0,3459.0 6440.0,3466.0 6545.0,3521.0 C 6578.0,3538.0 6643.0,3575.0 6689.0,3603.0 L 6772.0,3653.0 L 6864.0,3647.0 C 7016.0,3637.0 7102.0,3597.0 7121.0,3526.0 C 7135.0,3474.0 7197.0,3350.0 7210.0,3350.0 C 7215.0,3350.0 7244.0,3359.0 7274.0,3370.0 C 7313.0,3385.0 7330.0,3397.0 7334.0,3414.0 C 7339.0,3436.0 7372.0,3450.0 7415.0,3450.0 C 7438.0,3450.0 7462.0,3364.0 7475.0,3232.0 C 7482.0,3158.0 7490.0,3096.0 7492.0,3094.0 C 7495.0,3092.0 7510.0,3094.0 7527.0,3099.0 C 7557.0,3108.0 7562.0,3104.0 7658.0,3007.0 C 7712.0,2951.0 7770.0,2883.0 7785.0,2856.0 L 7813.0,2807.0 L 7858.0,2859.0 C 7892.0,2899.0 7908.0,2910.0 7931.0,2910.0 C 7950.0,2910.0 7973.0,2922.0 8000.0,2946.0 C 8036.0,2979.0 8043.0,2981.0 8092.0,2978.0 L 8144.0,2975.0 L 8152.0,3023.0 C 8157.0,3049.0 8157.0,3078.0 8152.0,3086.0 C 8138.0,3110.0 8150.0,3150.0 8170.0,3150.0 C 8183.0,3150.0 8191.0,3163.0 8199.0,3196.0 C 8210.0,3238.0 8208.0,3246.0 8180.0,3304.0 C 8164.0,3339.0 8150.0,3384.0 8150.0,3404.0 C 8150.0,3424.0 8143.0,3457.0 8134.0,3478.0 C 8126.0,3498.0 8112.0,3566.0 8104.0,3629.0 C 8092.0,3729.0 8092.0,3750.0 8105.0,3800.0 C 8113.0,3832.0 8120.0,3870.0 8120.0,3886.0 C 8120.0,3901.0 8125.0,3954.0 8131.0,4002.0 L 8143.0,4091.0 L 8259.0,4186.0 C 8453.0,4344.0 8559.0,4390.0 8734.0,4390.0 L 8827.0,4390.0 L 8895.0,4439.0 C 8935.0,4468.0 8982.0,4493.0 9010.0,4500.0 L 9058.0,4511.0 L 9097.0,4603.0 C 9119.0,4654.0 9143.0,4709.0 9149.0,4727.0 C 9162.0,4759.0 9247.0,4833.0 9307.0,4864.0 C 9325.0,4873.0 9358.0,4880.0 9381.0,4880.0 C 9417.0,4880.0 9428.0,4885.0 9454.0,4916.0 C 9478.0,4944.0 9498.0,4955.0 9545.0,4966.0 C 9631.0,4986.0 9636.0,4985.0 9670.0,4935.0 C 9695.0,4899.0 9710.0,4887.0 9746.0,4878.0 C 9805.0,4862.0 9876.0,4780.0 9885.0,4716.0 C 9893.0,4664.0 9927.0,4634.0 10047.0,4574.0 L 10130.0,4532.0 L 10159.0,4583.0 C 10195.0,4646.0 10213.0,4712.0 10211.0,4765.0 C 10209.0,4821.0 10075.0,5222.0 10034.0,5296.0 C 9990.0,5375.0 9986.0,5446.0 10025.0,5456.0 C 10039.0,5459.0 10059.0,5475.0 10071.0,5491.0 C 10083.0,5509.0 10100.0,5520.0 10115.0,5520.0 C 10145.0,5520.0 10195.0,5598.0 10204.0,5660.0 C 10208.0,5685.0 10218.0,5726.0 10226.0,5753.0 C 10241.0,5798.0 10241.0,5803.0 10219.0,5856.0 C 10203.0,5894.0 10181.0,5924.0 10149.0,5951.0 C 10115.0,5980.0 10099.0,6001.0 10090.0,6035.0 L 10077.0,6081.0 L 10124.0,6128.0 C 10168.0,6173.0 10170.0,6178.0 10170.0,6233.0 C 10170.0,6281.0 10165.0,6298.0 10132.0,6348.0 C 10111.0,6381.0 10088.0,6432.0 10080.0,6464.0 C 10067.0,6518.0 10066.0,6520.0 10033.0,6520.0 C 10000.0,6520.0 10000.0,6520.0 10000.0,6470.0 C 10000.0,6422.0 9998.0,6419.0 9949.0,6383.0 C 9917.0,6358.0 9887.0,6324.0 9865.0,6285.0 C 9835.0,6230.0 9825.0,6222.0 9763.0,6193.0 C 9726.0,6175.0 9676.0,6156.0 9653.0,6150.0 C 9629.0,6144.0 9610.0,6137.0 9610.0,6135.0 C 9610.0,6133.0 9618.0,6116.0 9629.0,6098.0 C 9640.0,6078.0 9650.0,6035.0 9654.0,5988.0 L 9660.0,5911.0 L 9574.0,5917.0 C 9527.0,5920.0 9457.0,5930.0 9418.0,5939.0 L 9347.0,5955.0 L 9324.0,6022.0 C 9304.0,6081.0 9303.0,6098.0 9311.0,6157.0 C 9320.0,6217.0 9318.0,6230.0 9297.0,6285.0 C 9283.0,6318.0 9270.0,6373.0 9266.0,6407.0 C 9260.0,6460.0 9251.0,6483.0 9207.0,6549.0 C 9157.0,6626.0 9153.0,6629.0 9104.0,6640.0 C 9069.0,6647.0 9045.0,6648.0 9026.0,6640.0 C 8962.0,6616.0 8946.0,6624.0 8900.0,6703.0 C 8876.0,6742.0 8841.0,6795.0 8820.0,6820.0 C 8799.0,6845.0 8768.0,6893.0 8751.0,6928.0 C 8711.0,7007.0 8710.0,7079.0 8749.0,7200.0 L 8776.0,7285.0 L 8928.0,7288.0 C 9067.0,7290.0 9080.0,7292.0 9090.0,7310.0 C 9109.0,7345.0 9089.0,7378.0 8998.0,7461.0 L 8908.0,7544.0 L 8863.0,7519.0 C 8839.0,7506.0 8789.0,7473.0 8752.0,7445.0 C 8668.0,7382.0 8667.0,7375.0 8673.0,7124.0 C 8678.0,6933.0 8678.0,6933.0 8710.0,6869.0 C 8728.0,6834.0 8764.0,6780.0 8790.0,6750.0 C 8816.0,6720.0 8862.0,6662.0 8893.0,6621.0 C 8949.0,6549.0 8950.0,6547.0 8950.0,6481.0 C 8949.0,6432.0 8942.0,6399.0 8922.0,6351.0 C 8895.0,6289.0 8893.0,6287.0 8830.0,6263.0 C 8753.0,6234.0 8732.0,6237.0 8608.0,6287.0 L 8521.0,6323.0 L 8496.0,6382.0 C 8475.0,6431.0 8470.0,6457.0 8470.0,6528.0 C 8470.0,6576.0 8474.0,6620.0 8478.0,6627.0 C 8482.0,6634.0 8511.0,6651.0 8543.0,6665.0 C 8604.0,6692.0 8603.0,6689.0 8583.0,6763.0 C 8578.0,6781.0 8538.0,6785.0 8468.0,6774.0 C 8440.0,6769.0 8430.0,6763.0 8430.0,6748.0 C 8430.0,6723.0 8392.0,6710.0 8321.0,6710.0 C 8270.0,6710.0 8258.0,6706.0 8201.0,6666.0 C 8114.0,6604.0 8072.0,6553.0 8065.0,6499.0 C 8049.0,6383.0 8053.0,6390.0 8012.0,6390.0 C 7964.0,6390.0 7808.0,6417.0 7800.0,6427.0 C 7787.0,6442.0 7770.0,6503.0 7770.0,6536.0 C 7770.0,6561.0 7777.0,6575.0 7800.0,6592.0 C 7824.0,6609.0 7830.0,6621.0 7830.0,6651.0 C 7830.0,6684.0 7833.0,6689.0 7858.0,6695.0 C 7874.0,6698.0 7914.0,6728.0 7950.0,6765.0 L 8013.0,6829.0 L 7975.0,6872.0 C 7954.0,6896.0 7917.0,6925.0 7894.0,6937.0 L 7852.0,6959.0 L 7845.0,7037.0 C 7842.0,7080.0 7838.0,7126.0 7837.0,7140.0 C 7835.0,7163.0 7831.0,7165.0 7790.0,7165.0 L 7745.0,7165.0 L 7740.0,7106.0 L 7735.0,7047.0 L 7687.0,7035.0 C 7660.0,7028.0 7618.0,7008.0 7592.0,6990.0 L 7546.0,6958.0 L 7475.0,6993.0 C 7437.0,7012.0 7385.0,7031.0 7360.0,7035.0 C 7335.0,7039.0 7291.0,7048.0 7262.0,7057.0 C 7217.0,7069.0 7208.0,7077.0 7195.0,7107.0 C 7187.0,7126.0 7180.0,7167.0 7180.0,7196.0 C 7180.0,7243.0 7177.0,7252.0 7153.0,7267.0 C 7137.0,7277.0 7119.0,7293.0 7112.0,7302.0 C 7105.0,7312.0 7086.0,7320.0 7070.0,7320.0 C 7048.0,7320.0 7036.0,7311.0 7014.0,7276.0 C 6985.0,7230.0 6890.0,7159.0 6831.0,7139.0 L 6798.0,7127.0 L 6805.0,7066.0 C 6808.0,7033.0 6820.0,6983.0 6829.0,6955.0 C 6839.0,6928.0 6857.0,6877.0 6870.0,6843.0 L 6892.0,6780.0 L 6855.0,6715.0 C 6835.0,6679.0 6805.0,6640.0 6788.0,6627.0 C 6755.0,6602.0 6683.0,6487.0 6674.0,6443.0 C 6670.0,6422.0 6655.0,6407.0 6619.0,6387.0 C 6589.0,6370.0 6568.0,6350.0 6566.0,6337.0 C 6563.0,6325.0 6554.0,6270.0 6544.0,6216.0 C 6529.0,6125.0 6524.0,6114.0 6488.0,6074.0 C 6458.0,6041.0 6433.0,6026.0 6382.0,6009.0 C 6345.0,5997.0 6293.0,5976.0 6266.0,5963.0 C 6222.0,5941.0 6208.0,5939.0 6141.0,5944.0 C 6099.0,5947.0 6015.0,5953.0 5955.0,5957.0 C 5861.0,5964.0 5838.0,5969.0 5797.0,5993.0 C 5741.0,6026.0 5735.0,6058.0 5776.0,6101.0 C 5797.0,6123.0 5800.0,6133.0 5795.0,6163.0 C 5791.0,6183.0 5779.0,6207.0 5769.0,6216.0 C 5751.0,6232.0 5744.0,6233.0 5692.0,6220.0 C 5661.0,6213.0 5609.0,6205.0 5578.0,6203.0 C 5523.0,6198.0 5520.0,6197.0 5481.0,6145.0 C 5439.0,6090.0 5404.0,6072.0 5370.0,6090.0 C 5347.0,6102.0 5330.0,6103.0 5330.0,6091.0 C 5330.0,6086.0 5314.0,6044.0 5294.0,5997.0 L 5259.0,5911.0 L 5187.0,5882.0 C 5147.0,5866.0 5103.0,5850.0 5089.0,5846.0 C 5070.0,5842.0 5059.0,5829.0 5047.0,5798.0 C 5031.0,5758.0 5031.0,5755.0 5054.0,5704.0 C 5072.0,5664.0 5090.0,5644.0 5125.0,5622.0 L 5171.0,5594.0 L 5138.0,5552.0 C 5120.0,5529.0 5078.0,5488.0 5045.0,5460.0 C 4992.0,5415.0 4981.0,5410.0 4939.0,5410.0 C 4913.0,5410.0 4885.0,5407.0 4876.0,5404.0 C 4864.0,5399.0 4860.0,5404.0 4860.0,5423.0 C 4860.0,5461.0 4811.0,5468.0 4747.0,5441.0 L 4700.0,5421.0 L 4587.0,5469.0 C 4526.0,5496.0 4442.0,5528.0 4401.0,5541.0 C 4333.0,5563.0 4324.0,5569.0 4301.0,5609.0 C 4287.0,5633.0 4254.0,5685.0 4228.0,5725.0 C 4188.0,5789.0 4182.0,5803.0 4187.0,5837.0 C 4192.0,5875.0 4195.0,5878.0 4247.0,5895.0 C 4293.0,5911.0 4305.0,5920.0 4317.0,5948.0 C 4328.0,5975.0 4329.0,5989.0 4320.0,6014.0 C 4313.0,6031.0 4305.0,6074.0 4300.0,6110.0 C 4296.0,6146.0 4287.0,6194.0 4281.0,6218.0 C 4270.0,6259.0 4268.0,6260.0 4227.0,6260.0 C 4196.0,6260.0 4172.0,6251.0 4134.0,6226.0 C 4086.0,6193.0 4082.0,6192.0 4029.0,6202.0 C 3988.0,6209.0 3966.0,6220.0 3938.0,6248.0 C 3917.0,6268.0 3897.0,6293.0 3894.0,6304.0 C 3890.0,6316.0 3866.0,6350.0 3840.0,6380.0 C 3788.0,6440.0 3720.0,6560.0 3720.0,6591.0 C 3720.0,6602.0 3727.0,6624.0 3735.0,6640.0 C 3749.0,6667.0 3755.0,6670.0 3799.0,6670.0 C 3844.0,6670.0 3849.0,6672.0 3860.0,6700.0 C 3870.0,6723.0 3870.0,6740.0 3861.0,6773.0 C 3855.0,6796.0 3849.0,6837.0 3848.0,6865.0 L 3845.0,6914.0 L 3776.0,6934.0 L 3707.0,6954.0 L 3671.0,6933.0 C 3643.0,6917.0 3614.0,6911.0 3550.0,6909.0 C 3474.0,6907.0 3458.0,6910.0 3400.0,6937.0 C 3364.0,6954.0 3327.0,6976.0 3318.0,6987.0 C 3296.0,7011.0 3260.0,7183.0 3260.0,7264.0 C 3260.0,7325.0 3260.0,7325.0 3214.0,7363.0 C 3188.0,7383.0 3163.0,7400.0 3158.0,7400.0 C 3153.0,7400.0 3090.0,7389.0 3017.0,7376.0 C 2944.0,7363.0 2854.0,7348.0 2817.0,7345.0 C 2780.0,7341.0 2743.0,7331.0 2735.0,7323.0 C 2727.0,7315.0 2713.0,7287.0 2703.0,7260.0 C 2686.0,7213.0 2682.0,7209.0 2610.0,7177.0 C 2480.0,7118.0 2473.0,7117.0 2286.0,7124.0 C 2192.0,7127.0 2100.0,7133.0 2082.0,7136.0 C 2047.0,7143.0 2045.0,7146.0 2035.0,7243.0 C 2029.0,7296.0 2026.0,7302.0 1985.0,7330.0 C 1961.0,7347.0 1931.0,7360.0 1918.0,7360.0 C 1880.0,7360.0 1850.0,7333.0 1849.0,7297.0 C 1847.0,7246.0 1835.0,7215.0 1815.0,7211.0 C 1805.0,7209.0 1764.0,7193.0 1724.0,7175.0 L 1652.0,7142.0 L 1622.0,7174.0 C 1606.0,7191.0 1567.0,7249.0 1536.0,7302.0 C 1481.0,7396.0 1480.0,7401.0 1482.0,7468.0 C 1483.0,7505.0 1481.0,7541.0 1477.0,7547.0 C 1473.0,7553.0 1424.0,7574.0 1368.0,7595.0 C 1311.0,7616.0 1259.0,7638.0 1253.0,7643.0 C 1230.0,7660.0 1239.0,7670.0 1279.0,7670.0 C 1317.0,7670.0 1318.0,7671.0 1349.0,7740.0 C 1366.0,7779.0 1380.0,7819.0 1380.0,7830.0 C 1380.0,7886.0 1261.0,8062.0 1225.0,8059.0 C 1220.0,8059.0 1191.0,8047.0 1162.0,8034.0" fill="pink"/>
	<path d="M 180.0,7201.0 C 156.0,7182.0 156.0,7181.0 172.0,7146.0 C 193.0,7103.0 275.0,7057.0 323.0,7062.0 L 355.0,7065.0 L 352.0,7125.0 C 349.0,7173.0 344.0,7189.0 327.0,7202.0 C 296.0,7226.0 213.0,7226.0 180.0,7201.0" fill="pink"/>
	<path d="M 0.0,7124.0 C 0.0,7079.0 0.0,7079.0 33.0,7082.0 C 63.0,7085.0 65.0,7088.0 68.0,7128.0 L 71.0,7170.0 L 36.0,7170.0 C 0.0,7170.0 0.0,7170.0 0.0,7124.0" fill="pink"/>
</svg>
