<?xml version="1.0" ?>
<svg xmlns="http://www.w3.org/2000/svg" xmlns:ev="http://www.w3.org/2001/xml-events" xmlns:xlink="http://www.w3.org/1999/xlink" baseProfile="full" height="431px" version="1.1" viewBox="-1031.3210000000001 703.0727207591513 12300.642 8827.917350890184" width="600px">
	<defs/>
	<path d="M 8975.0,8784.0 C 8948.0,8777.0 8911.0,8771.0 8893.0,8771.0 C 8871.0,8770.0 8855.0,8761.0 8838.0,8741.0 C 8825.0,8725.0 8796.0,8703.0 8774.0,8692.0 C 8719.0,8664.0 8630.0,8565.0 8586.0,8482.0 C 8548.0,8410.0 8499.0,8370.0 8380.0,8316.0 C 8348.0,8301.0 8302.0,8268.0 8270.0,8235.0 C 8237.0,8201.0 8187.0,8164.0 8145.0,8143.0 C 8107.0,8123.0 8046.0,8080.0 8010.0,8048.0 C 7974.0,8015.0 7918.0,7974.0 7885.0,7958.0 C 7843.0,7937.0 7802.0,7903.0 7749.0,7846.0 C 7679.0,7772.0 7664.0,7761.0 7574.0,7722.0 L 7475.0,7679.0 L 7425.0,7603.0 C 7398.0,7560.0 7352.0,7497.0 7323.0,7462.0 C 7289.0,7421.0 7260.0,7370.0 7240.0,7319.0 C 7195.0,7201.0 7194.0,7188.0 7224.0,7134.0 C 7238.0,7109.0 7250.0,7086.0 7250.0,7085.0 C 7250.0,7084.0 7233.0,7080.0 7211.0,7076.0 C 7178.0,7071.0 7165.0,7061.0 7124.0,7006.0 C 7020.0,6868.0 6990.0,6821.0 6990.0,6798.0 C 6990.0,6781.0 6970.0,6758.0 6917.0,6713.0 C 6811.0,6624.0 6730.0,6580.0 6625.0,6554.0 C 6576.0,6542.0 6504.0,6519.0 6465.0,6503.0 C 6387.0,6470.0 6383.0,6463.0 6381.0,6362.0 C 6380.0,6319.0 6372.0,6295.0 6340.0,6242.0 C 6319.0,6205.0 6287.0,6142.0 6270.0,6101.0 C 6253.0,6060.0 6222.0,6003.0 6199.0,5974.0 C 6169.0,5935.0 6158.0,5910.0 6153.0,5872.0 L 6147.0,5821.0 L 6186.0,5812.0 C 6208.0,5806.0 6239.0,5799.0 6257.0,5795.0 L 6289.0,5789.0 L 6214.0,5684.0 C 6139.0,5581.0 6138.0,5579.0 6133.0,5505.0 L 6127.0,5430.0 L 6169.0,5445.0 C 6192.0,5453.0 6224.0,5469.0 6240.0,5480.0 C 6255.0,5491.0 6306.0,5518.0 6353.0,5539.0 L 6438.0,5578.0 L 6487.0,5662.0 C 6538.0,5748.0 6576.0,5872.0 6599.0,6028.0 C 6608.0,6083.0 6615.0,6099.0 6660.0,6150.0 C 6688.0,6183.0 6719.0,6211.0 6728.0,6214.0 C 6737.0,6216.0 6822.0,6226.0 6915.0,6235.0 L 7085.0,6252.0 L 7140.0,6311.0 L 7195.0,6370.0 L 7335.0,6376.0 L 7475.0,6382.0 L 7547.0,6350.0 L 7620.0,6317.0 L 7639.0,6251.0 C 7686.0,6092.0 7686.0,6098.0 7647.0,6033.0 L 7611.0,5975.0 L 7692.0,5972.0 C 7765.0,5969.0 7802.0,5976.0 7886.0,6007.0 C 7904.0,6014.0 7930.0,5923.0 7930.0,5854.0 L 7930.0,5792.0 L 7835.0,5760.0 C 7742.0,5729.0 7740.0,5728.0 7673.0,5650.0 C 7615.0,5584.0 7593.0,5566.0 7527.0,5535.0 C 7484.0,5514.0 7414.0,5490.0 7372.0,5481.0 L 7295.0,5465.0 L 7260.0,5398.0 L 7225.0,5331.0 L 7243.0,5266.0 C 7252.0,5231.0 7260.0,5199.0 7260.0,5197.0 C 7260.0,5194.0 7233.0,5183.0 7200.0,5171.0 C 7150.0,5155.0 7130.0,5153.0 7085.0,5160.0 C 7011.0,5172.0 6980.0,5190.0 6918.0,5260.0 L 6864.0,5321.0 L 6750.0,5321.0 C 6658.0,5321.0 6624.0,5317.0 6573.0,5298.0 L 6509.0,5276.0 L 6417.0,5294.0 C 6366.0,5305.0 6295.0,5326.0 6258.0,5342.0 C 6207.0,5363.0 6175.0,5370.0 6126.0,5370.0 C 6056.0,5370.0 6048.0,5364.0 6079.0,5336.0 C 6097.0,5320.0 6097.0,5317.0 6082.0,5268.0 C 6068.0,5227.0 6050.0,5203.0 5981.0,5139.0 C 5935.0,5095.0 5874.0,5049.0 5846.0,5036.0 C 5818.0,5023.0 5765.0,4998.0 5727.0,4982.0 C 5689.0,4964.0 5637.0,4930.0 5607.0,4901.0 C 5523.0,4821.0 5311.0,4730.0 5211.0,4730.0 C 5169.0,4730.0 5155.0,4725.0 5127.0,4700.0 C 5098.0,4675.0 5084.0,4670.0 5041.0,4670.0 C 5002.0,4670.0 4981.0,4664.0 4957.0,4646.0 C 4918.0,4618.0 4818.0,4600.0 4693.0,4600.0 C 4645.0,4600.0 4556.0,4591.0 4496.0,4580.0 C 4436.0,4569.0 4366.0,4560.0 4341.0,4560.0 C 4316.0,4560.0 4257.0,4546.0 4210.0,4530.0 C 4106.0,4493.0 4018.0,4491.0 3850.0,4520.0 C 3787.0,4531.0 3709.0,4540.0 3676.0,4540.0 C 3625.0,4540.0 3610.0,4545.0 3550.0,4582.0 C 3512.0,4605.0 3474.0,4637.0 3465.0,4652.0 C 3450.0,4678.0 3444.0,4680.0 3384.0,4680.0 C 3336.0,4680.0 3308.0,4674.0 3277.0,4658.0 C 3254.0,4646.0 3195.0,4629.0 3145.0,4620.0 L 3055.0,4605.0 L 3058.0,4573.0 C 3061.0,4545.0 3058.0,4541.0 3033.0,4538.0 C 3006.0,4535.0 3005.0,4534.0 3002.0,4464.0 C 3000.0,4404.0 3002.0,4391.0 3019.0,4376.0 C 3036.0,4361.0 3044.0,4359.0 3071.0,4369.0 C 3116.0,4385.0 3117.0,4384.0 3130.0,4344.0 C 3140.0,4313.0 3139.0,4299.0 3124.0,4254.0 C 3106.0,4200.0 3106.0,4200.0 3127.0,4178.0 L 3148.0,4157.0 L 3194.0,4186.0 C 3223.0,4204.0 3249.0,4232.0 3265.0,4262.0 C 3291.0,4309.0 3292.0,4310.0 3343.0,4311.0 C 3451.0,4314.0 3495.0,4308.0 3545.0,4282.0 C 3595.0,4257.0 3595.0,4257.0 3568.0,4248.0 C 3549.0,4241.0 3523.0,4244.0 3475.0,4259.0 L 3409.0,4280.0 L 3352.0,4258.0 L 3295.0,4237.0 L 3335.0,4219.0 C 3357.0,4209.0 3380.0,4201.0 3386.0,4201.0 C 3393.0,4200.0 3403.0,4180.0 3409.0,4156.0 C 3415.0,4132.0 3431.0,4099.0 3444.0,4083.0 L 3469.0,4054.0 L 3440.0,4036.0 C 3390.0,4007.0 3385.0,3897.0 3431.0,3827.0 C 3455.0,3791.0 3456.0,3790.0 3522.0,3790.0 L 3588.0,3790.0 L 3641.0,3851.0 L 3693.0,3911.0 L 3749.0,3857.0 C 3830.0,3779.0 3854.0,3766.0 3892.0,3779.0 C 3937.0,3795.0 3938.0,3794.0 3942.0,3753.0 C 3946.0,3701.0 3975.0,3694.0 4150.0,3706.0 C 4288.0,3716.0 4290.0,3716.0 4323.0,3748.0 C 4356.0,3780.0 4356.0,3780.0 4460.0,3780.0 C 4550.0,3780.0 4568.0,3783.0 4604.0,3804.0 C 4627.0,3817.0 4668.0,3830.0 4695.0,3834.0 C 4723.0,3838.0 4757.0,3843.0 4773.0,3846.0 C 4799.0,3851.0 4800.0,3850.0 4800.0,3807.0 L 4800.0,3762.0 L 4757.0,3756.0 C 4727.0,3751.0 4696.0,3735.0 4647.0,3696.0 C 4610.0,3666.0 4557.0,3628.0 4530.0,3610.0 C 4484.0,3580.0 4480.0,3575.0 4480.0,3538.0 C 4480.0,3507.0 4474.0,3493.0 4448.0,3469.0 C 4420.0,3444.0 4407.0,3440.0 4361.0,3440.0 C 4331.0,3440.0 4276.0,3430.0 4238.0,3418.0 L 4170.0,3396.0 L 4153.0,3419.0 C 4128.0,3455.0 4041.0,3490.0 3991.0,3483.0 L 3950.0,3477.0 L 3950.0,3426.0 C 3951.0,3398.0 3957.0,3364.0 3965.0,3350.0 C 3973.0,3336.0 3979.0,3322.0 3980.0,3319.0 C 3980.0,3315.0 3957.0,3304.0 3928.0,3294.0 C 3897.0,3282.0 3854.0,3255.0 3822.0,3225.0 C 3792.0,3198.0 3749.0,3168.0 3726.0,3159.0 C 3693.0,3146.0 3684.0,3136.0 3679.0,3110.0 C 3670.0,3070.0 3667.0,3067.0 3600.0,3039.0 C 3570.0,3027.0 3529.0,3002.0 3510.0,2985.0 C 3491.0,2967.0 3430.0,2933.0 3375.0,2910.0 C 3320.0,2887.0 3259.0,2858.0 3240.0,2845.0 C 3221.0,2832.0 3171.0,2812.0 3130.0,2800.0 C 3029.0,2770.0 2864.0,2679.0 2822.0,2629.0 L 2788.0,2590.0 L 2693.0,2590.0 C 2610.0,2590.0 2590.0,2586.0 2524.0,2559.0 C 2482.0,2542.0 2428.0,2522.0 2402.0,2516.0 C 2347.0,2502.0 2343.0,2492.0 2341.0,2357.0 L 2340.0,2270.0 L 2381.0,2233.0 L 2422.0,2196.0 L 2368.0,2169.0 C 2339.0,2154.0 2297.0,2123.0 2275.0,2101.0 C 2237.0,2062.0 2234.0,2060.0 2173.0,2060.0 C 2138.0,2060.0 2110.0,2057.0 2110.0,2052.0 C 2110.0,2048.0 2114.0,2029.0 2120.0,2010.0 C 2129.0,1978.0 2128.0,1973.0 2089.0,1934.0 C 2051.0,1895.0 2044.0,1892.0 1977.0,1886.0 C 1937.0,1882.0 1856.0,1868.0 1796.0,1854.0 C 1668.0,1826.0 1550.0,1823.0 1475.0,1846.0 C 1428.0,1861.0 1418.0,1861.0 1357.0,1847.0 L 1290.0,1832.0 L 1272.0,1873.0 L 1253.0,1915.0 L 1284.0,1924.0 C 1301.0,1929.0 1316.0,1934.0 1317.0,1935.0 C 1319.0,1936.0 1313.0,1960.0 1305.0,1988.0 C 1291.0,2032.0 1285.0,2040.0 1253.0,2051.0 C 1217.0,2063.0 1216.0,2062.0 1180.0,2020.0 L 1144.0,1978.0 L 1112.0,1994.0 C 1094.0,2003.0 1073.0,2021.0 1065.0,2034.0 C 1056.0,2047.0 1038.0,2061.0 1024.0,2064.0 C 996.0,2072.0 995.0,2075.0 1016.0,2148.0 C 1028.0,2189.0 1031.0,2222.0 1026.0,2274.0 C 1022.0,2313.0 1015.0,2392.0 1011.0,2450.0 C 1006.0,2508.0 997.0,2570.0 990.0,2588.0 C 983.0,2606.0 979.0,2623.0 982.0,2625.0 C 984.0,2627.0 1048.0,2624.0 1125.0,2619.0 C 1233.0,2611.0 1284.0,2602.0 1350.0,2580.0 C 1487.0,2534.0 1504.0,2534.0 1592.0,2574.0 C 1633.0,2593.0 1689.0,2612.0 1714.0,2615.0 L 1760.0,2622.0 L 1754.0,2674.0 C 1745.0,2754.0 1751.0,2750.0 1643.0,2750.0 C 1589.0,2750.0 1513.0,2756.0 1475.0,2763.0 C 1406.0,2776.0 1403.0,2776.0 1371.0,2754.0 C 1346.0,2737.0 1317.0,2730.0 1256.0,2725.0 C 1176.0,2719.0 1173.0,2720.0 1063.0,2764.0 C 971.0,2802.0 939.0,2810.0 888.0,2810.0 C 849.0,2810.0 806.0,2818.0 775.0,2830.0 C 748.0,2841.0 700.0,2857.0 670.0,2865.0 C 627.0,2877.0 600.0,2894.0 545.0,2945.0 L 475.0,3009.0 L 517.0,3010.0 C 545.0,3010.0 586.0,3024.0 642.0,3051.0 C 688.0,3074.0 736.0,3098.0 750.0,3104.0 C 771.0,3114.0 775.0,3124.0 778.0,3166.0 L 781.0,3216.0 L 721.0,3244.0 C 665.0,3271.0 662.0,3274.0 675.0,3294.0 C 706.0,3342.0 761.0,3506.0 767.0,3565.0 L 773.0,3628.0 L 862.0,3651.0 L 952.0,3674.0 L 976.0,3722.0 C 989.0,3748.0 1000.0,3782.0 1000.0,3797.0 C 1000.0,3812.0 1004.0,3830.0 1008.0,3835.0 C 1017.0,3848.0 1122.0,3873.0 1172.0,3874.0 C 1225.0,3875.0 1234.0,3889.0 1215.0,3937.0 C 1201.0,3972.0 1194.0,3978.0 1150.0,3989.0 C 1105.0,4001.0 1100.0,4005.0 1094.0,4038.0 C 1089.0,4061.0 1093.0,4088.0 1102.0,4115.0 C 1117.0,4155.0 1117.0,4158.0 1087.0,4229.0 C 1044.0,4331.0 1036.0,4335.0 925.0,4305.0 C 875.0,4291.0 834.0,4280.0 833.0,4280.0 C 831.0,4280.0 830.0,4299.0 830.0,4323.0 C 830.0,4355.0 822.0,4376.0 799.0,4408.0 L 769.0,4450.0 L 804.0,4467.0 C 835.0,4481.0 840.0,4489.0 840.0,4517.0 C 840.0,4550.0 839.0,4550.0 794.0,4550.0 C 766.0,4550.0 735.0,4542.0 716.0,4531.0 C 699.0,4521.0 667.0,4507.0 645.0,4500.0 C 623.0,4493.0 601.0,4484.0 597.0,4480.0 C 593.0,4477.0 598.0,4452.0 610.0,4426.0 C 621.0,4400.0 630.0,4372.0 630.0,4364.0 C 630.0,4356.0 611.0,4329.0 588.0,4304.0 L 546.0,4259.0 L 461.0,4263.0 C 414.0,4265.0 344.0,4272.0 307.0,4279.0 C 254.0,4289.0 228.0,4289.0 189.0,4280.0 C 140.0,4268.0 139.0,4267.0 145.0,4236.0 C 149.0,4219.0 171.0,4185.0 195.0,4160.0 C 260.0,4091.0 270.0,4071.0 270.0,4014.0 C 270.0,3966.0 273.0,3960.0 313.0,3923.0 C 336.0,3902.0 366.0,3877.0 380.0,3867.0 C 404.0,3851.0 405.0,3844.0 408.0,3735.0 C 411.0,3644.0 409.0,3612.0 395.0,3575.0 L 377.0,3529.0 L 408.0,3497.0 C 437.0,3467.0 440.0,3458.0 440.0,3400.0 C 440.0,3343.0 436.0,3330.0 401.0,3276.0 C 370.0,3228.0 361.0,3203.0 358.0,3157.0 C 353.0,3099.0 353.0,3098.0 387.0,3082.0 C 430.0,3062.0 429.0,3052.0 383.0,3045.0 C 362.0,3041.0 332.0,3036.0 316.0,3033.0 C 289.0,3028.0 288.0,3029.0 292.0,3059.0 C 296.0,3084.0 290.0,3096.0 264.0,3121.0 C 236.0,3148.0 229.0,3150.0 210.0,3140.0 C 181.0,3124.0 169.0,3137.0 163.0,3193.0 C 158.0,3234.0 160.0,3240.0 189.0,3261.0 C 219.0,3283.0 232.0,3320.0 209.0,3320.0 C 203.0,3320.0 169.0,3312.0 133.0,3303.0 C 75.0,3287.0 65.0,3280.0 33.0,3237.0 L -2.0,3189.0 L 19.0,3132.0 C 30.0,3101.0 44.0,3053.0 50.0,3026.0 C 56.0,2999.0 78.0,2948.0 100.0,2911.0 C 121.0,2875.0 145.0,2823.0 153.0,2795.0 C 161.0,2768.0 181.0,2717.0 198.0,2682.0 C 222.0,2631.0 229.0,2602.0 235.0,2516.0 C 240.0,2432.0 246.0,2408.0 261.0,2394.0 C 271.0,2385.0 286.0,2352.0 295.0,2321.0 C 324.0,2216.0 373.0,2095.0 409.0,2038.0 C 437.0,1994.0 503.0,1931.0 685.0,1775.0 C 979.0,1523.0 984.0,1520.0 1237.0,1475.0 L 1420.0,1443.0 L 1537.0,1507.0 L 1654.0,1571.0 L 1719.0,1541.0 C 1775.0,1516.0 1806.0,1510.0 1920.0,1500.0 C 1994.0,1494.0 2080.0,1483.0 2110.0,1476.0 C 2181.0,1459.0 2277.0,1469.0 2296.0,1495.0 C 2304.0,1505.0 2310.0,1525.0 2311.0,1539.0 C 2311.0,1560.0 2316.0,1554.0 2335.0,1512.0 C 2359.0,1460.0 2360.0,1459.0 2397.0,1462.0 C 2429.0,1465.0 2438.0,1471.0 2457.0,1506.0 C 2490.0,1566.0 2550.0,1593.0 2693.0,1615.0 L 2810.0,1633.0 L 2838.0,1677.0 C 2865.0,1719.0 2866.0,1720.0 2922.0,1720.0 C 2977.0,1720.0 2979.0,1721.0 3022.0,1769.0 C 3046.0,1796.0 3093.0,1834.0 3126.0,1854.0 C 3162.0,1875.0 3196.0,1903.0 3207.0,1923.0 C 3223.0,1949.0 3263.0,1975.0 3401.0,2049.0 C 3548.0,2128.0 3732.0,2251.0 3835.0,2340.0 C 3846.0,2349.0 3902.0,2374.0 3960.0,2395.0 C 4018.0,2416.0 4090.0,2446.0 4120.0,2461.0 C 4150.0,2475.0 4209.0,2498.0 4250.0,2510.0 C 4346.0,2538.0 4470.0,2601.0 4540.0,2656.0 C 4570.0,2679.0 4629.0,2714.0 4672.0,2733.0 C 4714.0,2752.0 4753.0,2777.0 4759.0,2788.0 C 4779.0,2825.0 4874.0,2927.0 4926.0,2969.0 C 4968.0,3002.0 4993.0,3036.0 5056.0,3148.0 C 5099.0,3223.0 5150.0,3302.0 5169.0,3324.0 C 5212.0,3369.0 5336.0,3465.0 5403.0,3504.0 C 5443.0,3528.0 5451.0,3538.0 5456.0,3571.0 C 5460.0,3594.0 5468.0,3610.0 5476.0,3610.0 C 5484.0,3610.0 5499.0,3629.0 5511.0,3652.0 C 5538.0,3707.0 5567.0,3730.0 5609.0,3730.0 C 5645.0,3730.0 5681.0,3762.0 5758.0,3863.0 C 5784.0,3897.0 5801.0,3910.0 5820.0,3910.0 C 5834.0,3910.0 5865.0,3924.0 5890.0,3941.0 C 5915.0,3957.0 5965.0,3987.0 6002.0,4005.0 C 6062.0,4036.0 6070.0,4044.0 6080.0,4080.0 C 6090.0,4116.0 6095.0,4121.0 6135.0,4131.0 C 6159.0,4137.0 6186.0,4150.0 6195.0,4160.0 C 6211.0,4178.0 6211.0,4181.0 6192.0,4208.0 C 6180.0,4224.0 6164.0,4243.0 6155.0,4250.0 C 6132.0,4269.0 6136.0,4276.0 6180.0,4294.0 C 6231.0,4314.0 6241.0,4314.0 6233.0,4294.0 C 6227.0,4279.0 6273.0,4231.0 6294.0,4230.0 C 6298.0,4230.0 6320.0,4244.0 6341.0,4261.0 C 6375.0,4287.0 6380.0,4297.0 6380.0,4332.0 C 6380.0,4367.0 6386.0,4377.0 6442.0,4430.0 C 6491.0,4477.0 6514.0,4491.0 6552.0,4500.0 C 6582.0,4506.0 6622.0,4526.0 6653.0,4550.0 C 6688.0,4576.0 6725.0,4593.0 6760.0,4601.0 C 6822.0,4614.0 6912.0,4658.0 6950.0,4692.0 C 6964.0,4705.0 6988.0,4733.0 7004.0,4755.0 C 7070.0,4846.0 7110.0,4878.0 7163.0,4885.0 C 7256.0,4898.0 7304.0,4922.0 7378.0,4991.0 C 7439.0,5048.0 7451.0,5064.0 7460.0,5106.0 C 7481.0,5204.0 7489.0,5218.0 7551.0,5263.0 C 7584.0,5288.0 7629.0,5313.0 7653.0,5320.0 C 7688.0,5330.0 7699.0,5339.0 7715.0,5373.0 C 7739.0,5424.0 7807.0,5471.0 7900.0,5502.0 C 7936.0,5513.0 7985.0,5540.0 8010.0,5560.0 C 8061.0,5602.0 8229.0,5705.0 8338.0,5762.0 L 8412.0,5800.0 L 8456.0,5774.0 C 8481.0,5759.0 8505.0,5752.0 8512.0,5756.0 C 8549.0,5778.0 8620.0,5844.0 8626.0,5863.0 C 8630.0,5875.0 8652.0,5903.0 8675.0,5926.0 C 8707.0,5959.0 8734.0,5973.0 8796.0,5993.0 C 8840.0,6007.0 8893.0,6022.0 8914.0,6026.0 C 8943.0,6031.0 8965.0,6046.0 8999.0,6082.0 C 9042.0,6128.0 9049.0,6131.0 9105.0,6137.0 C 9160.0,6142.0 9250.0,6181.0 9250.0,6198.0 C 9250.0,6202.0 9232.0,6215.0 9209.0,6228.0 C 9171.0,6250.0 9165.0,6251.0 9081.0,6241.0 C 8951.0,6225.0 8909.0,6209.0 8842.0,6151.0 C 8791.0,6107.0 8779.0,6101.0 8753.0,6106.0 C 8735.0,6109.0 8720.0,6107.0 8716.0,6101.0 C 8712.0,6095.0 8679.0,6090.0 8640.0,6090.0 C 8574.0,6090.0 8570.0,6089.0 8537.0,6054.0 L 8503.0,6018.0 L 8448.0,6030.0 L 8394.0,6042.0 L 8379.0,6098.0 C 8367.0,6147.0 8360.0,6157.0 8319.0,6182.0 C 8280.0,6206.0 8268.0,6209.0 8245.0,6200.0 C 8231.0,6195.0 8194.0,6190.0 8163.0,6190.0 C 8110.0,6190.0 8106.0,6192.0 8047.0,6246.0 C 8014.0,6277.0 7963.0,6318.0 7935.0,6337.0 L 7882.0,6371.0 L 7820.0,6346.0 C 7785.0,6332.0 7756.0,6320.0 7755.0,6320.0 C 7754.0,6320.0 7745.0,6345.0 7734.0,6375.0 C 7721.0,6416.0 7710.0,6432.0 7693.0,6436.0 C 7679.0,6440.0 7667.0,6455.0 7659.0,6478.0 C 7648.0,6510.0 7649.0,6515.0 7669.0,6531.0 C 7693.0,6551.0 7695.0,6567.0 7678.0,6622.0 C 7670.0,6650.0 7653.0,6672.0 7623.0,6694.0 C 7588.0,6719.0 7581.0,6731.0 7580.0,6758.0 C 7580.0,6776.0 7565.0,6824.0 7546.0,6865.0 C 7515.0,6932.0 7509.0,6939.0 7473.0,6949.0 C 7452.0,6955.0 7419.0,6960.0 7399.0,6960.0 C 7362.0,6960.0 7335.0,6981.0 7311.0,7028.0 C 7296.0,7057.0 7309.0,7084.0 7366.0,7135.0 C 7402.0,7168.0 7411.0,7182.0 7413.0,7215.0 L 7415.0,7254.0 L 7348.0,7265.0 L 7282.0,7275.0 L 7296.0,7303.0 C 7313.0,7335.0 7307.0,7334.0 7357.0,7316.0 L 7397.0,7302.0 L 7442.0,7348.0 C 7466.0,7374.0 7503.0,7416.0 7523.0,7441.0 C 7548.0,7473.0 7569.0,7489.0 7592.0,7494.0 C 7610.0,7497.0 7640.0,7515.0 7660.0,7534.0 C 7690.0,7562.0 7707.0,7569.0 7774.0,7580.0 C 7839.0,7590.0 7876.0,7604.0 7984.0,7661.0 C 8056.0,7698.0 8145.0,7738.0 8181.0,7749.0 C 8229.0,7764.0 8250.0,7776.0 8258.0,7794.0 C 8274.0,7830.0 8310.0,7833.0 8375.0,7805.0 C 8440.0,7776.0 8441.0,7777.0 8476.0,7853.0 L 8493.0,7891.0 L 8459.0,7926.0 L 8425.0,7962.0 L 8465.0,7996.0 C 8487.0,8014.0 8517.0,8034.0 8531.0,8040.0 C 8545.0,8046.0 8563.0,8063.0 8572.0,8078.0 C 8585.0,8100.0 8607.0,8111.0 8677.0,8133.0 C 8743.0,8154.0 8772.0,8169.0 8792.0,8193.0 C 8807.0,8210.0 8841.0,8232.0 8867.0,8242.0 C 8927.0,8264.0 8930.0,8264.0 8930.0,8241.0 C 8930.0,8227.0 8939.0,8220.0 8961.0,8215.0 C 8987.0,8209.0 8997.0,8213.0 9026.0,8241.0 C 9045.0,8260.0 9060.0,8284.0 9060.0,8297.0 C 9060.0,8330.0 9105.0,8328.0 9178.0,8291.0 C 9209.0,8276.0 9253.0,8260.0 9275.0,8256.0 C 9299.0,8251.0 9328.0,8236.0 9348.0,8217.0 L 9380.0,8186.0 L 9468.0,8204.0 C 9516.0,8214.0 9556.0,8223.0 9558.0,8225.0 C 9560.0,8226.0 9553.0,8246.0 9544.0,8269.0 C 9534.0,8295.0 9506.0,8329.0 9469.0,8361.0 C 9428.0,8397.0 9410.0,8419.0 9410.0,8436.0 C 9410.0,8454.0 9395.0,8471.0 9352.0,8503.0 C 9159.0,8645.0 9123.0,8678.0 9114.0,8721.0 C 9106.0,8758.0 9100.0,8765.0 9065.0,8780.0 C 9031.0,8794.0 9018.0,8794.0 8975.0,8784.0" fill="pink"/>
	<path d="M 9523.0,8174.0 C 9514.0,8160.0 9504.0,8124.0 9502.0,8094.0 C 9496.0,8027.0 9511.0,8007.0 9577.0,7991.0 C 9602.0,7984.0 9649.0,7966.0 9681.0,7949.0 C 9737.0,7921.0 9742.0,7920.0 9769.0,7935.0 C 9791.0,7946.0 9800.0,7959.0 9805.0,7991.0 C 9811.0,8027.0 9809.0,8035.0 9784.0,8062.0 C 9749.0,8099.0 9680.0,8130.0 9633.0,8130.0 C 9601.0,8130.0 9598.0,8132.0 9604.0,8154.0 C 9609.0,8174.0 9605.0,8180.0 9578.0,8189.0 C 9539.0,8203.0 9543.0,8204.0 9523.0,8174.0" fill="pink"/>
	<path d="M 9120.0,8095.0 C 9120.0,8093.0 9125.0,8080.0 9131.0,8066.0 C 9147.0,8032.0 9177.0,8021.0 9223.0,8033.0 C 9272.0,8046.0 9271.0,8074.0 9220.0,8078.0 C 9201.0,8080.0 9181.0,8086.0 9176.0,8091.0 C 9166.0,8100.0 9120.0,8104.0 9120.0,8095.0" fill="pink"/>
	<path d="M 9210.0,7972.0 C 9210.0,7968.0 9215.0,7959.0 9222.0,7952.0 C 9229.0,7945.0 9241.0,7916.0 9250.0,7887.0 C 9273.0,7810.0 9308.0,7795.0 9482.0,7786.0 C 9555.0,7783.0 9645.0,7777.0 9681.0,7774.0 L 9747.0,7768.0 L 9760.0,7800.0 C 9771.0,7828.0 9771.0,7834.0 9754.0,7856.0 C 9724.0,7896.0 9639.0,7923.0 9530.0,7928.0 C 9447.0,7931.0 9431.0,7935.0 9402.0,7957.0 C 9371.0,7980.0 9367.0,7981.0 9351.0,7966.0 C 9329.0,7946.0 9311.0,7946.0 9286.0,7965.0 C 9265.0,7981.0 9210.0,7986.0 9210.0,7972.0" fill="pink"/>
	<path d="M 9900.0,7893.0 C 9861.0,7886.0 9830.0,7851.0 9830.0,7815.0 C 9830.0,7794.0 9821.0,7775.0 9805.0,7760.0 C 9791.0,7747.0 9780.0,7726.0 9780.0,7712.0 C 9780.0,7689.0 9782.0,7688.0 9840.0,7692.0 C 9897.0,7695.0 9900.0,7694.0 9900.0,7672.0 C 9900.0,7632.0 9821.0,7621.0 9714.0,7646.0 C 9697.0,7650.0 9687.0,7642.0 9666.0,7605.0 C 9645.0,7570.0 9634.0,7560.0 9622.0,7565.0 C 9612.0,7569.0 9581.0,7576.0 9551.0,7580.0 C 9487.0,7591.0 9482.0,7595.0 9509.0,7610.0 C 9525.0,7618.0 9530.0,7630.0 9530.0,7659.0 C 9530.0,7709.0 9503.0,7732.0 9415.0,7755.0 C 9341.0,7774.0 9318.0,7776.0 9229.0,7765.0 C 9178.0,7758.0 9171.0,7760.0 9166.0,7778.0 C 9153.0,7817.0 9042.0,7822.0 8988.0,7785.0 C 8953.0,7761.0 8949.0,7761.0 8913.0,7774.0 C 8892.0,7782.0 8850.0,7791.0 8819.0,7793.0 C 8788.0,7796.0 8748.0,7807.0 8729.0,7819.0 C 8705.0,7834.0 8678.0,7840.0 8640.0,7840.0 C 8563.0,7840.0 8554.0,7832.0 8580.0,7787.0 L 8601.0,7751.0 L 8533.0,7716.0 L 8464.0,7682.0 L 8432.0,7706.0 C 8402.0,7730.0 8398.0,7731.0 8326.0,7721.0 C 8285.0,7715.0 8207.0,7693.0 8153.0,7672.0 C 8099.0,7650.0 8019.0,7621.0 7975.0,7606.0 C 7904.0,7583.0 7892.0,7576.0 7875.0,7543.0 C 7863.0,7521.0 7830.0,7490.0 7789.0,7463.0 C 7733.0,7426.0 7721.0,7412.0 7715.0,7384.0 C 7712.0,7365.0 7712.0,7345.0 7716.0,7339.0 C 7720.0,7333.0 7725.0,7294.0 7729.0,7252.0 L 7735.0,7177.0 L 7800.0,7155.0 C 7836.0,7143.0 7886.0,7130.0 7912.0,7126.0 L 7958.0,7119.0 L 8018.0,7197.0 C 8114.0,7323.0 8136.0,7339.0 8295.0,7392.0 C 8372.0,7418.0 8462.0,7442.0 8495.0,7446.0 L 8556.0,7452.0 L 8584.0,7409.0 C 8612.0,7368.0 8612.0,7365.0 8608.0,7251.0 C 8605.0,7169.0 8599.0,7126.0 8587.0,7104.0 C 8573.0,7077.0 8572.0,7053.0 8577.0,6955.0 C 8583.0,6844.0 8585.0,6835.0 8612.0,6805.0 C 8633.0,6780.0 8651.0,6771.0 8688.0,6766.0 C 8714.0,6762.0 8743.0,6757.0 8752.0,6754.0 C 8776.0,6747.0 8800.0,6798.0 8800.0,6859.0 C 8800.0,6887.0 8805.0,6932.0 8811.0,6959.0 C 8818.0,6995.0 8818.0,7035.0 8811.0,7097.0 C 8803.0,7160.0 8803.0,7202.0 8811.0,7248.0 C 8822.0,7308.0 8825.0,7313.0 8858.0,7327.0 C 8890.0,7340.0 8901.0,7340.0 9004.0,7315.0 C 9094.0,7293.0 9128.0,7279.0 9182.0,7244.0 C 9218.0,7219.0 9278.0,7191.0 9314.0,7180.0 C 9381.0,7161.0 9388.0,7157.0 9476.0,7082.0 C 9546.0,7024.0 9615.0,6911.0 9629.0,6835.0 C 9637.0,6790.0 9647.0,6770.0 9668.0,6753.0 C 9704.0,6723.0 9716.0,6724.0 9736.0,6759.0 C 9746.0,6776.0 9757.0,6787.0 9761.0,6785.0 C 9764.0,6782.0 9770.0,6758.0 9774.0,6730.0 L 9781.0,6679.0 L 9822.0,6715.0 L 9864.0,6750.0 L 9894.0,6701.0 L 9925.0,6652.0 L 9957.0,6668.0 C 9988.0,6683.0 9989.0,6686.0 9983.0,6724.0 C 9979.0,6752.0 9960.0,6787.0 9923.0,6834.0 C 9894.0,6872.0 9870.0,6911.0 9870.0,6920.0 C 9870.0,6929.0 9876.0,6958.0 9884.0,6984.0 L 9898.0,7031.0 L 9830.0,7068.0 C 9761.0,7105.0 9761.0,7105.0 9755.0,7156.0 C 9749.0,7196.0 9753.0,7217.0 9770.0,7258.0 L 9792.0,7310.0 L 9871.0,7310.0 C 9947.0,7310.0 9949.0,7309.0 9967.0,7280.0 C 9981.0,7255.0 9991.0,7250.0 10022.0,7250.0 C 10108.0,7250.0 10158.0,7341.0 10167.0,7512.0 L 10173.0,7608.0 L 10206.0,7626.0 C 10225.0,7636.0 10240.0,7647.0 10240.0,7651.0 C 10240.0,7674.0 10206.0,7732.0 10184.0,7747.0 C 10152.0,7768.0 10130.0,7816.0 10129.0,7867.0 C 10129.0,7904.0 10128.0,7904.0 10114.0,7884.0 L 10099.0,7862.0 L 10039.0,7881.0 C 9980.0,7900.0 9951.0,7902.0 9900.0,7893.0" fill="pink"/>
	<path d="M 2073.0,5468.0 C 2014.0,5459.0 2010.0,5456.0 2002.0,5427.0 C 1995.0,5401.0 1981.0,5388.0 1929.0,5360.0 C 1866.0,5325.0 1865.0,5324.0 1863.0,5280.0 C 1861.0,5255.0 1858.0,5216.0 1854.0,5193.0 L 1849.0,5150.0 L 1802.0,5150.0 L 1755.0,5149.0 L 1649.0,5007.0 C 1591.0,4929.0 1522.0,4826.0 1496.0,4778.0 L 1449.0,4692.0 L 1482.0,4672.0 C 1550.0,4631.0 1591.0,4619.0 1626.0,4630.0 C 1644.0,4636.0 1666.0,4652.0 1674.0,4666.0 C 1688.0,4686.0 1698.0,4690.0 1740.0,4690.0 L 1790.0,4690.0 L 1790.0,4753.0 C 1790.0,4787.0 1795.0,4842.0 1800.0,4875.0 C 1809.0,4933.0 1812.0,4937.0 1906.0,5029.0 C 1958.0,5081.0 2011.0,5142.0 2022.0,5164.0 C 2033.0,5187.0 2060.0,5229.0 2083.0,5259.0 C 2114.0,5301.0 2126.0,5329.0 2136.0,5384.0 C 2152.0,5465.0 2153.0,5480.0 2143.0,5479.0 C 2138.0,5478.0 2107.0,5473.0 2073.0,5468.0" fill="pink"/>
	<path d="M 1279.0,4578.0 C 1158.0,4423.0 1145.0,4399.0 1148.0,4341.0 C 1152.0,4290.0 1152.0,4290.0 1186.0,4290.0 C 1215.0,4290.0 1224.0,4296.0 1241.0,4325.0 C 1260.0,4356.0 1267.0,4360.0 1303.0,4360.0 C 1367.0,4360.0 1393.0,4378.0 1412.0,4435.0 C 1429.0,4485.0 1434.0,4584.0 1421.0,4630.0 C 1416.0,4650.0 1407.0,4656.0 1379.0,4658.0 C 1346.0,4661.0 1341.0,4657.0 1279.0,4578.0" fill="pink"/>
	<path d="M 2963.0,3600.0 C 2945.0,3596.0 2924.0,3588.0 2918.0,3582.0 C 2900.0,3568.0 2797.0,3550.0 2730.0,3550.0 C 2681.0,3550.0 2670.0,3546.0 2646.0,3521.0 L 2619.0,3492.0 L 2653.0,3471.0 C 2672.0,3460.0 2703.0,3450.0 2722.0,3450.0 C 2740.0,3450.0 2778.0,3444.0 2805.0,3437.0 C 2845.0,3427.0 2862.0,3427.0 2890.0,3437.0 C 2909.0,3443.0 2934.0,3449.0 2945.0,3450.0 C 2956.0,3451.0 2983.0,3473.0 3006.0,3499.0 C 3040.0,3539.0 3046.0,3553.0 3042.0,3579.0 C 3037.0,3613.0 3027.0,3615.0 2963.0,3600.0" fill="pink"/>
	<path d="M 2352.0,3586.0 L 2329.0,3574.0 L 2353.0,3552.0 C 2371.0,3535.0 2381.0,3510.0 2390.0,3455.0 L 2403.0,3381.0 L 2436.0,3395.0 C 2455.0,3403.0 2490.0,3423.0 2515.0,3440.0 C 2551.0,3465.0 2560.0,3477.0 2560.0,3500.0 C 2560.0,3544.0 2520.0,3567.0 2400.0,3593.0 C 2386.0,3596.0 2365.0,3593.0 2352.0,3586.0" fill="pink"/>
	<path d="M 3200.0,3519.0 L 3200.0,3468.0 L 3148.0,3475.0 C 3084.0,3484.0 3090.0,3484.0 3063.0,3475.0 C 3044.0,3469.0 3040.0,3460.0 3040.0,3424.0 C 3040.0,3384.0 3042.0,3380.0 3064.0,3380.0 C 3084.0,3380.0 3089.0,3374.0 3094.0,3337.0 C 3100.0,3300.0 3106.0,3291.0 3134.0,3277.0 C 3167.0,3262.0 3168.0,3262.0 3196.0,3291.0 L 3224.0,3320.0 L 3250.0,3295.0 C 3267.0,3279.0 3288.0,3270.0 3308.0,3270.0 C 3335.0,3270.0 3340.0,3274.0 3349.0,3308.0 C 3355.0,3328.0 3360.0,3350.0 3360.0,3356.0 C 3360.0,3369.0 3302.0,3424.0 3271.0,3440.0 L 3246.0,3453.0 L 3269.0,3471.0 C 3310.0,3505.0 3274.0,3570.0 3215.0,3570.0 C 3204.0,3570.0 3200.0,3557.0 3200.0,3519.0" fill="pink"/>
	<path d="M 2603.0,3443.0 C 2573.0,3428.0 2570.0,3422.0 2570.0,3383.0 C 2570.0,3327.0 2584.0,3300.0 2614.0,3300.0 C 2642.0,3300.0 2670.0,3338.0 2670.0,3375.0 C 2670.0,3397.0 2645.0,3462.0 2637.0,3459.0 C 2636.0,3459.0 2620.0,3451.0 2603.0,3443.0" fill="pink"/>
	<path d="M 3538.0,3409.0 C 3526.0,3390.0 3522.0,3389.0 3502.0,3401.0 C 3483.0,3413.0 3476.0,3412.0 3445.0,3396.0 C 3425.0,3385.0 3411.0,3373.0 3412.0,3369.0 C 3420.0,3347.0 3536.0,3227.0 3556.0,3219.0 C 3593.0,3206.0 3664.0,3243.0 3678.0,3284.0 C 3700.0,3343.0 3694.0,3356.0 3631.0,3394.0 C 3562.0,3436.0 3557.0,3437.0 3538.0,3409.0" fill="pink"/>
	<path d="M 2723.0,3355.0 C 2679.0,3316.0 2677.0,3311.0 2690.0,3295.0 C 2716.0,3263.0 2765.0,3249.0 2826.0,3256.0 L 2881.0,3263.0 L 2875.0,3314.0 C 2871.0,3342.0 2865.0,3368.0 2861.0,3372.0 C 2858.0,3376.0 2836.0,3383.0 2813.0,3388.0 C 2773.0,3397.0 2770.0,3396.0 2723.0,3355.0" fill="pink"/>
	<path d="M 2166.0,2905.0 C 2129.0,2849.0 2165.0,2764.0 2222.0,2772.0 C 2241.0,2774.0 2247.0,2784.0 2254.0,2823.0 C 2265.0,2880.0 2257.0,2899.0 2213.0,2917.0 C 2184.0,2928.0 2181.0,2927.0 2166.0,2905.0" fill="pink"/>
</svg>
