<?xml version="1.0" ?>
<svg xmlns="http://www.w3.org/2000/svg" xmlns:ev="http://www.w3.org/2001/xml-events" xmlns:xlink="http://www.w3.org/1999/xlink" baseProfile="full" height="487px" version="1.1" viewBox="-1011.7726231810732 140.16800115358387 12281.491068096746 9965.720836306386" width="600px">
	<defs/>
	<path d="M 7525.0,9178.0 C 7388.0,9124.0 7120.0,9018.0 6930.0,8943.0 C 6740.0,8868.0 6524.0,8777.0 6450.0,8740.0 C 6358.0,8694.0 6291.0,8667.0 6239.0,8657.0 C 6111.0,8630.0 5987.0,8548.0 5810.0,8375.0 C 5669.0,8236.0 5654.0,8225.0 5225.0,7932.0 C 4780.0,7628.0 4755.0,7609.0 4380.0,7277.0 L 4335.0,7237.0 L 4378.0,7244.0 C 4414.0,7249.0 4420.0,7248.0 4420.0,7233.0 C 4420.0,7205.0 4407.0,7193.0 4370.0,7186.0 C 4341.0,7181.0 4330.0,7172.0 4310.0,7134.0 C 4283.0,7085.0 4259.0,7070.0 4204.0,7070.0 C 4184.0,7070.0 4159.0,7065.0 4148.0,7059.0 C 4137.0,7053.0 4021.0,6957.0 3890.0,6846.0 C 3691.0,6678.0 3611.0,6618.0 3398.0,6478.0 L 3143.0,6311.0 L 2912.0,6221.0 C 2785.0,6171.0 2575.0,6088.0 2446.0,6036.0 C 2256.0,5959.0 2172.0,5931.0 2008.0,5890.0 C 1860.0,5853.0 1743.0,5815.0 1575.0,5750.0 L 1345.0,5662.0 L 1170.0,5644.0 C 1040.0,5632.0 869.0,5626.0 501.0,5623.0 C 230.0,5620.0 12.0,5615.0 16.0,5610.0 C 21.0,5606.0 75.0,5584.0 135.0,5561.0 C 244.0,5521.0 248.0,5520.0 375.0,5520.0 C 500.0,5520.0 510.0,5518.0 636.0,5477.0 L 767.0,5435.0 L 870.0,5318.0 C 958.0,5216.0 975.0,5201.0 996.0,5206.0 C 1014.0,5211.0 1075.0,5180.0 1257.0,5075.0 C 1395.0,4996.0 1507.0,4925.0 1523.0,4907.0 C 1538.0,4889.0 1584.0,4808.0 1626.0,4725.0 C 1668.0,4643.0 1744.0,4499.0 1795.0,4405.0 L 1888.0,4235.0 L 1895.0,4100.0 C 1899.0,3999.0 1897.0,3948.0 1886.0,3896.0 C 1872.0,3830.0 1873.0,3826.0 1892.0,3799.0 C 1903.0,3784.0 1943.0,3744.0 1981.0,3711.0 L 2049.0,3649.0 L 2019.0,3568.0 C 1991.0,3492.0 1989.0,3474.0 1984.0,3311.0 C 1978.0,3155.0 1980.0,3127.0 1998.0,3065.0 L 2017.0,2995.0 L 2107.0,2997.0 C 2162.0,2998.0 2270.0,3013.0 2385.0,3035.0 C 2488.0,3055.0 2575.0,3068.0 2579.0,3065.0 C 2582.0,3061.0 2601.0,3029.0 2620.0,2992.0 C 2651.0,2933.0 2660.0,2925.0 2699.0,2912.0 L 2744.0,2897.0 L 2773.0,2931.0 C 2789.0,2950.0 2820.0,3004.0 2841.0,3051.0 L 2881.0,3136.0 L 2945.0,3157.0 L 3009.0,3178.0 L 3053.0,3046.0 L 3096.0,2915.0 L 3089.0,2812.0 L 3081.0,2709.0 L 3147.0,2547.0 C 3183.0,2458.0 3246.0,2328.0 3287.0,2258.0 C 3358.0,2137.0 3364.0,2130.0 3398.0,2125.0 C 3468.0,2114.0 3572.0,2055.0 3653.0,1980.0 C 3763.0,1878.0 3784.0,1843.0 3819.0,1705.0 L 3849.0,1587.0 L 3942.0,1493.0 C 4055.0,1380.0 4115.0,1342.0 4245.0,1301.0 C 4305.0,1282.0 4358.0,1259.0 4377.0,1242.0 L 4408.0,1215.0 L 4338.0,1116.0 C 4265.0,1014.0 4262.0,1002.0 4302.0,976.0 C 4324.0,963.0 4683.0,1069.0 4805.0,1125.0 C 4854.0,1148.0 4928.0,1179.0 4968.0,1196.0 C 5033.0,1221.0 5051.0,1235.0 5114.0,1305.0 C 5154.0,1349.0 5219.0,1437.0 5258.0,1500.0 C 5321.0,1602.0 5341.0,1625.0 5433.0,1702.0 C 5526.0,1781.0 5538.0,1795.0 5557.0,1847.0 C 5575.0,1900.0 5582.0,1907.0 5634.0,1935.0 C 5688.0,1963.0 5695.0,1971.0 5761.0,2085.0 L 5830.0,2205.0 L 5775.0,2233.0 C 5745.0,2248.0 5720.0,2263.0 5720.0,2267.0 C 5720.0,2270.0 5744.0,2300.0 5773.0,2334.0 C 5802.0,2368.0 5864.0,2449.0 5910.0,2515.0 C 5956.0,2581.0 6030.0,2674.0 6075.0,2723.0 C 6152.0,2807.0 6156.0,2815.0 6192.0,2922.0 C 6231.0,3038.0 6231.0,3038.0 6203.0,3134.0 C 6199.0,3149.0 6186.0,3141.0 6126.0,3083.0 C 6070.0,3028.0 6040.0,3007.0 5986.0,2986.0 C 5921.0,2960.0 5917.0,2960.0 5898.0,2976.0 C 5888.0,2986.0 5882.0,3000.0 5884.0,3007.0 C 5887.0,3014.0 5956.0,3105.0 6036.0,3209.0 C 6132.0,3331.0 6217.0,3455.0 6280.0,3561.0 C 6364.0,3704.0 6381.0,3741.0 6413.0,3851.0 C 6448.0,3970.0 6450.0,3986.0 6450.0,4115.0 C 6450.0,4253.0 6450.0,4253.0 6419.0,4302.0 C 6397.0,4335.0 6382.0,4349.0 6371.0,4346.0 C 6362.0,4343.0 6312.0,4336.0 6261.0,4330.0 L 6166.0,4318.0 L 6079.0,4360.0 L 5992.0,4403.0 L 5948.0,4557.0 L 5904.0,4711.0 L 5917.0,4863.0 C 5923.0,4947.0 5934.0,5099.0 5939.0,5202.0 L 5949.0,5390.0 L 5904.0,5562.0 C 5879.0,5656.0 5833.0,5803.0 5800.0,5888.0 L 5741.0,6043.0 L 5771.0,6183.0 C 5787.0,6260.0 5799.0,6324.0 5798.0,6325.0 C 5796.0,6327.0 5766.0,6344.0 5730.0,6364.0 C 5677.0,6392.0 5660.0,6408.0 5644.0,6442.0 L 5623.0,6485.0 L 5645.0,6545.0 L 5668.0,6605.0 L 5624.0,6656.0 L 5581.0,6707.0 L 5613.0,6737.0 C 5636.0,6759.0 5694.0,6786.0 5818.0,6831.0 L 5992.0,6895.0 L 6088.0,7087.0 L 6185.0,7280.0 L 6335.0,7330.0 C 6457.0,7371.0 6498.0,7380.0 6555.0,7380.0 C 6594.0,7380.0 6670.0,7387.0 6725.0,7395.0 C 6780.0,7403.0 6893.0,7410.0 6975.0,7410.0 L 7125.0,7410.0 L 7186.0,7449.0 L 7247.0,7489.0 L 7253.0,7566.0 C 7257.0,7608.0 7260.0,7698.0 7260.0,7765.0 L 7260.0,7887.0 L 7361.0,7950.0 C 7416.0,7986.0 7463.0,8017.0 7465.0,8020.0 C 7467.0,8023.0 7471.0,8068.0 7476.0,8120.0 L 7483.0,8215.0 L 7424.0,8162.0 C 7392.0,8133.0 7297.0,8056.0 7215.0,7991.0 C 7094.0,7896.0 7059.0,7862.0 7037.0,7822.0 L 7009.0,7771.0 L 6966.0,7803.0 C 6942.0,7822.0 6895.0,7844.0 6857.0,7854.0 L 6790.0,7872.0 L 6820.0,7914.0 C 6882.0,7998.0 6868.0,7991.0 6954.0,7975.0 C 6997.0,7967.0 7033.0,7960.0 7036.0,7960.0 C 7038.0,7960.0 7066.0,8000.0 7099.0,8049.0 L 7159.0,8138.0 L 7323.0,8234.0 L 7486.0,8330.0 L 7525.0,8413.0 C 7558.0,8481.0 7579.0,8509.0 7649.0,8576.0 L 7734.0,8657.0 L 7707.0,8717.0 C 7679.0,8780.0 7673.0,8840.0 7690.0,8884.0 C 7698.0,8906.0 7706.0,8910.0 7742.0,8910.0 C 7766.0,8910.0 7825.0,8915.0 7874.0,8921.0 C 7963.0,8932.0 7970.0,8930.0 7982.0,8898.0 C 7984.0,8894.0 8068.0,8874.0 8168.0,8854.0 L 8352.0,8817.0 L 8397.0,8862.0 L 8443.0,8908.0 L 8364.0,8954.0 C 8288.0,8999.0 8283.0,9000.0 8204.0,9000.0 C 8134.0,9000.0 8112.0,9005.0 8055.0,9030.0 C 8018.0,9047.0 7975.0,9060.0 7960.0,9060.0 C 7882.0,9060.0 7901.0,9075.0 8056.0,9136.0 L 8215.0,9199.0 L 8057.0,9199.0 L 7899.0,9200.0 L 7847.0,9233.0 C 7818.0,9251.0 7791.0,9269.0 7785.0,9271.0 C 7780.0,9274.0 7663.0,9232.0 7525.0,9178.0" fill="pink"/>
	<path d="M 8233.0,8109.0 C 8193.0,8087.0 8160.0,8063.0 8160.0,8057.0 C 8161.0,8050.0 8167.0,8020.0 8174.0,7990.0 C 8185.0,7943.0 8191.0,7933.0 8221.0,7919.0 C 8259.0,7900.0 8268.0,7879.0 8269.0,7802.0 C 8270.0,7740.0 8249.0,7693.0 8219.0,7688.0 C 8197.0,7685.0 8187.0,7672.0 8176.0,7638.0 C 8172.0,7625.0 8160.0,7620.0 8136.0,7620.0 C 8106.0,7620.0 8099.0,7624.0 8094.0,7645.0 C 8089.0,7667.0 8082.0,7670.0 8043.0,7670.0 C 8001.0,7670.0 7993.0,7665.0 7914.0,7593.0 L 7830.0,7517.0 L 7830.0,7449.0 C 7830.0,7412.0 7837.0,7345.0 7846.0,7300.0 C 7854.0,7255.0 7860.0,7217.0 7858.0,7215.0 C 7856.0,7214.0 7841.0,7215.0 7824.0,7217.0 C 7793.0,7222.0 7792.0,7223.0 7780.0,7303.0 C 7773.0,7348.0 7765.0,7389.0 7763.0,7393.0 C 7760.0,7398.0 7739.0,7375.0 7715.0,7343.0 C 7685.0,7303.0 7653.0,7236.0 7612.0,7127.0 C 7557.0,6985.0 7552.0,6963.0 7556.0,6912.0 C 7566.0,6791.0 7566.0,6792.0 7626.0,6763.0 C 7655.0,6748.0 7680.0,6733.0 7680.0,6729.0 C 7680.0,6725.0 7665.0,6682.0 7646.0,6633.0 L 7611.0,6544.0 L 7647.0,6419.0 C 7674.0,6324.0 7681.0,6284.0 7676.0,6245.0 C 7673.0,6210.0 7678.0,6172.0 7693.0,6121.0 L 7714.0,6046.0 L 7692.0,5941.0 L 7671.0,5836.0 L 7726.0,5733.0 C 7756.0,5677.0 7789.0,5625.0 7799.0,5618.0 C 7809.0,5611.0 7847.0,5577.0 7883.0,5543.0 L 7950.0,5481.0 L 7959.0,5348.0 C 7964.0,5275.0 7978.0,5152.0 7990.0,5075.0 C 8009.0,4949.0 8015.0,4927.0 8055.0,4854.0 L 8098.0,4773.0 L 8088.0,4589.0 C 8078.0,4408.0 8078.0,4403.0 8103.0,4308.0 L 8128.0,4210.0 L 8099.0,4110.0 C 8066.0,3999.0 8065.0,4007.0 8127.0,3937.0 L 8159.0,3900.0 L 8253.0,3900.0 C 8330.0,3900.0 8361.0,3905.0 8434.0,3930.0 C 8483.0,3946.0 8528.0,3957.0 8534.0,3953.0 C 8540.0,3949.0 8568.0,3929.0 8596.0,3908.0 C 8645.0,3871.0 8655.0,3868.0 8824.0,3840.0 C 8922.0,3823.0 9020.0,3810.0 9044.0,3810.0 C 9067.0,3810.0 9126.0,3823.0 9175.0,3840.0 C 9224.0,3856.0 9264.0,3869.0 9265.0,3867.0 C 9276.0,3850.0 9290.0,3740.0 9290.0,3675.0 L 9290.0,3593.0 L 9321.0,3586.0 C 9382.0,3574.0 9403.0,3580.0 9451.0,3620.0 C 9499.0,3660.0 9515.0,3665.0 9582.0,3654.0 C 9618.0,3648.0 9619.0,3646.0 9634.0,3582.0 C 9642.0,3546.0 9653.0,3514.0 9658.0,3511.0 C 9663.0,3508.0 9721.0,3470.0 9787.0,3427.0 C 9898.0,3356.0 9911.0,3350.0 9960.0,3350.0 C 10007.0,3350.0 10019.0,3355.0 10079.0,3400.0 C 10115.0,3427.0 10167.0,3474.0 10194.0,3505.0 L 10242.0,3561.0 L 10212.0,3648.0 C 10152.0,3819.0 10115.0,3883.0 10037.0,3953.0 C 9997.0,3988.0 9938.0,4037.0 9905.0,4062.0 C 9817.0,4129.0 9640.0,4324.0 9598.0,4400.0 C 9563.0,4464.0 9563.0,4466.0 9571.0,4545.0 C 9577.0,4603.0 9575.0,4641.0 9565.0,4685.0 C 9557.0,4718.0 9550.0,4787.0 9550.0,4838.0 C 9550.0,4899.0 9545.0,4941.0 9536.0,4959.0 C 9528.0,4974.0 9507.0,5042.0 9490.0,5109.0 L 9460.0,5231.0 L 9510.0,5316.0 C 9538.0,5363.0 9581.0,5442.0 9606.0,5492.0 L 9651.0,5582.0 L 9667.0,5763.0 L 9682.0,5943.0 L 9594.0,6030.0 C 9545.0,6078.0 9495.0,6123.0 9482.0,6132.0 L 9459.0,6147.0 L 9481.0,6235.0 L 9503.0,6322.0 L 9473.0,6384.0 C 9451.0,6428.0 9433.0,6451.0 9407.0,6465.0 C 9388.0,6475.0 9365.0,6497.0 9357.0,6514.0 C 9344.0,6543.0 9345.0,6549.0 9376.0,6619.0 C 9395.0,6659.0 9410.0,6698.0 9410.0,6704.0 C 9410.0,6711.0 9392.0,6734.0 9369.0,6755.0 C 9343.0,6781.0 9307.0,6838.0 9269.0,6913.0 L 9209.0,7031.0 L 9231.0,7150.0 L 9253.0,7268.0 L 9189.0,7326.0 C 9115.0,7393.0 8992.0,7519.0 8952.0,7569.0 C 8937.0,7587.0 8896.0,7657.0 8860.0,7723.0 L 8795.0,7845.0 L 8695.0,7880.0 L 8595.0,7916.0 L 8592.0,8026.0 L 8589.0,8135.0 L 8522.0,8135.0 C 8485.0,8135.0 8421.0,8139.0 8380.0,8142.0 C 8305.0,8150.0 8305.0,8150.0 8233.0,8109.0" fill="pink"/>
</svg>
