<?xml version="1.0" ?>
<svg xmlns="http://www.w3.org/2000/svg" xmlns:ev="http://www.w3.org/2001/xml-events" xmlns:xlink="http://www.w3.org/1999/xlink" baseProfile="full" height="600px" version="1.1" viewBox="437.1849109866032 -1025.455413793559 9367.250867534149 12293.23949799197" width="458px">
	<defs/>
	<path d="M 2243.0,10170.0 C 2201.0,10116.0 2176.0,10094.0 2121.0,10064.0 C 2060.0,10031.0 2049.0,10020.0 2032.0,9981.0 C 2014.0,9937.0 2010.0,9934.0 1932.0,9905.0 L 1850.0,9876.0 L 1850.0,9833.0 C 1850.0,9793.0 1848.0,9790.0 1822.0,9790.0 C 1802.0,9790.0 1787.0,9781.0 1772.0,9761.0 C 1757.0,9741.0 1731.0,9725.0 1685.0,9710.0 C 1627.0,9691.0 1620.0,9686.0 1620.0,9662.0 C 1620.0,9641.0 1611.0,9630.0 1582.0,9613.0 C 1546.0,9593.0 1541.0,9584.0 1516.0,9498.0 C 1501.0,9447.0 1475.0,9382.0 1459.0,9354.0 C 1432.0,9306.0 1430.0,9296.0 1430.0,9189.0 C 1430.0,9102.0 1426.0,9069.0 1415.0,9052.0 C 1401.0,9033.0 1401.0,9027.0 1415.0,8999.0 C 1432.0,8968.0 1432.0,8968.0 1396.0,8938.0 L 1360.0,8909.0 L 1384.0,8861.0 C 1406.0,8819.0 1486.0,8541.0 1478.0,8536.0 C 1476.0,8535.0 1428.0,8519.0 1370.0,8500.0 C 1279.0,8470.0 1263.0,8460.0 1242.0,8430.0 C 1221.0,8400.0 1219.0,8388.0 1225.0,8340.0 C 1229.0,8310.0 1235.0,8242.0 1240.0,8190.0 C 1244.0,8138.0 1251.0,8086.0 1256.0,8075.0 C 1260.0,8064.0 1312.0,7998.0 1372.0,7928.0 L 1480.0,7800.0 L 1480.0,7720.0 C 1480.0,7675.0 1485.0,7597.0 1491.0,7547.0 C 1501.0,7465.0 1500.0,7446.0 1482.0,7371.0 L 1462.0,7288.0 L 1509.0,7210.0 L 1555.0,7132.0 L 1650.0,7105.0 C 1702.0,7090.0 1790.0,7061.0 1845.0,7039.0 C 1900.0,7018.0 1975.0,6994.0 2011.0,6985.0 C 2071.0,6972.0 2082.0,6972.0 2130.0,6986.0 C 2176.0,7000.0 2194.0,7000.0 2269.0,6988.0 C 2323.0,6980.0 2419.0,6976.0 2530.0,6978.0 C 2626.0,6980.0 2806.0,6976.0 2930.0,6970.0 C 3146.0,6959.0 3159.0,6959.0 3260.0,6980.0 C 3447.0,7018.0 3449.0,7018.0 3527.0,6967.0 C 3576.0,6936.0 3643.0,6907.0 3755.0,6870.0 C 3843.0,6841.0 3944.0,6804.0 3980.0,6788.0 C 4051.0,6756.0 4182.0,6720.0 4227.0,6720.0 C 4243.0,6720.0 4304.0,6700.0 4362.0,6675.0 C 4447.0,6639.0 4481.0,6630.0 4527.0,6630.0 C 4583.0,6630.0 4588.0,6628.0 4660.0,6570.0 C 4701.0,6537.0 4767.0,6491.0 4805.0,6468.0 C 4882.0,6423.0 4901.0,6407.0 5013.0,6307.0 L 5089.0,6238.0 L 5196.0,6217.0 L 5303.0,6195.0 L 5334.0,6109.0 C 5362.0,6030.0 5370.0,6018.0 5421.0,5977.0 C 5474.0,5933.0 5479.0,5925.0 5514.0,5828.0 C 5533.0,5771.0 5558.0,5694.0 5569.0,5655.0 C 5599.0,5542.0 5658.0,5409.0 5705.0,5348.0 C 5771.0,5262.0 5816.0,5166.0 5825.0,5092.0 C 5832.0,5031.0 5834.0,5027.0 5880.0,4994.0 C 5906.0,4975.0 5958.0,4926.0 5994.0,4885.0 L 6061.0,4811.0 L 6129.0,4601.0 L 6197.0,4391.0 L 6173.0,4223.0 L 6149.0,4055.0 L 6032.0,3935.0 C 5928.0,3829.0 5910.0,3805.0 5875.0,3730.0 C 5852.0,3678.0 5818.0,3625.0 5790.0,3594.0 C 5754.0,3556.0 5741.0,3533.0 5735.0,3500.0 C 5727.0,3454.0 5717.0,3441.0 5618.0,3354.0 C 5587.0,3327.0 5567.0,3299.0 5559.0,3272.0 C 5548.0,3235.0 5550.0,3224.0 5574.0,3158.0 C 5609.0,3063.0 5649.0,3001.0 5730.0,2915.0 L 5796.0,2845.0 L 5919.0,2466.0 C 6049.0,2065.0 6069.0,1976.0 6070.0,1815.0 C 6070.0,1746.0 6064.0,1702.0 6044.0,1635.0 C 6020.0,1552.0 6018.0,1531.0 6019.0,1375.0 L 6021.0,1205.0 L 6083.0,1142.0 C 6127.0,1097.0 6170.0,1066.0 6230.0,1035.0 C 6402.0,947.0 6546.0,759.0 6646.0,492.0 L 6685.0,388.0 L 6765.0,330.0 C 6917.0,220.0 6980.0,164.0 7026.0,100.0 C 7084.0,19.0 7091.0,14.0 7146.0,5.0 C 7181.0,0.0 7211.0,5.0 7288.0,29.0 C 7341.0,46.0 7415.0,62.0 7451.0,66.0 L 7518.0,71.0 L 7555.0,126.0 C 7576.0,156.0 7630.0,210.0 7675.0,246.0 C 7796.0,342.0 7840.0,408.0 7928.0,635.0 L 8003.0,825.0 L 8007.0,1020.0 C 8011.0,1182.0 8009.0,1235.0 7992.0,1336.0 C 7973.0,1454.0 7970.0,1462.0 7907.0,1569.0 C 7855.0,1656.0 7834.0,1704.0 7810.0,1793.0 C 7778.0,1905.0 7778.0,1905.0 7785.0,2080.0 C 7789.0,2176.0 7796.0,2275.0 7801.0,2299.0 C 7813.0,2353.0 7805.0,2360.0 7733.0,2360.0 C 7704.0,2360.0 7664.0,2368.0 7645.0,2377.0 C 7610.0,2394.0 7607.0,2394.0 7578.0,2377.0 C 7557.0,2365.0 7526.0,2360.0 7471.0,2360.0 L 7393.0,2360.0 L 7383.0,2405.0 L 7373.0,2450.0 L 7406.0,2456.0 C 7444.0,2463.0 7445.0,2466.0 7429.0,2507.0 C 7422.0,2522.0 7414.0,2573.0 7410.0,2620.0 C 7402.0,2702.0 7403.0,2707.0 7430.0,2750.0 C 7479.0,2829.0 7486.0,2881.0 7467.0,3017.0 C 7445.0,3169.0 7446.0,3198.0 7472.0,3322.0 C 7490.0,3407.0 7500.0,3433.0 7528.0,3468.0 C 7562.0,3509.0 7564.0,3510.0 7609.0,3505.0 C 7642.0,3500.0 7672.0,3505.0 7715.0,3520.0 C 7769.0,3538.0 7782.0,3539.0 7850.0,3529.0 C 7920.0,3519.0 7931.0,3514.0 8004.0,3457.0 C 8080.0,3398.0 8085.0,3392.0 8103.0,3332.0 C 8120.0,3273.0 8124.0,3268.0 8164.0,3251.0 C 8203.0,3234.0 8207.0,3228.0 8219.0,3178.0 C 8229.0,3135.0 8239.0,3120.0 8265.0,3103.0 C 8292.0,3085.0 8299.0,3073.0 8304.0,3033.0 L 8311.0,2985.0 L 8251.0,2922.0 L 8191.0,2859.0 L 8149.0,2885.0 C 8127.0,2900.0 8107.0,2910.0 8105.0,2908.0 C 8104.0,2906.0 8097.0,2895.0 8091.0,2883.0 C 8081.0,2863.0 8084.0,2856.0 8113.0,2824.0 L 8146.0,2788.0 L 8224.0,2812.0 C 8298.0,2834.0 8304.0,2838.0 8335.0,2885.0 C 8364.0,2930.0 8378.0,2941.0 8486.0,2994.0 L 8605.0,3052.0 L 8707.0,3204.0 C 8763.0,3287.0 8854.0,3431.0 8910.0,3524.0 C 9027.0,3719.0 9038.0,3756.0 9000.0,3830.0 C 8976.0,3876.0 8977.0,3869.0 8996.0,4052.0 C 9002.0,4103.0 8998.0,4120.0 8947.0,4252.0 C 8916.0,4330.0 8886.0,4418.0 8879.0,4445.0 C 8872.0,4473.0 8841.0,4560.0 8810.0,4640.0 C 8772.0,4735.0 8750.0,4807.0 8745.0,4848.0 C 8741.0,4889.0 8717.0,4968.0 8675.0,5075.0 C 8623.0,5210.0 8611.0,5254.0 8605.0,5323.0 C 8599.0,5393.0 8592.0,5418.0 8556.0,5485.0 L 8515.0,5565.0 L 8445.0,5562.0 C 8394.0,5560.0 8364.0,5553.0 8332.0,5535.0 L 8289.0,5511.0 L 8295.0,5543.0 C 8299.0,5561.0 8303.0,5582.0 8306.0,5591.0 C 8311.0,5610.0 8355.0,5631.0 8435.0,5655.0 C 8508.0,5676.0 8520.0,5685.0 8520.0,5719.0 C 8520.0,5734.0 8546.0,5787.0 8582.0,5844.0 C 8656.0,5962.0 8670.0,6020.0 8656.0,6140.0 L 8647.0,6219.0 L 8684.0,6268.0 C 8704.0,6295.0 8725.0,6340.0 8732.0,6369.0 L 8743.0,6420.0 L 8802.0,6436.0 C 8857.0,6452.0 8863.0,6456.0 8886.0,6501.0 C 8899.0,6527.0 8923.0,6586.0 8940.0,6631.0 C 8968.0,6708.0 8970.0,6723.0 8970.0,6854.0 L 8970.0,6995.0 L 8910.0,7028.0 C 8877.0,7046.0 8790.0,7084.0 8717.0,7111.0 L 8585.0,7162.0 L 8467.0,7157.0 C 8382.0,7153.0 8339.0,7156.0 8317.0,7165.0 C 8289.0,7176.0 8275.0,7175.0 8201.0,7153.0 L 8117.0,7129.0 L 7978.0,7145.0 C 7856.0,7158.0 7830.0,7165.0 7769.0,7195.0 C 7710.0,7225.0 7691.0,7230.0 7628.0,7230.0 C 7520.0,7230.0 7314.0,7258.0 7144.0,7295.0 C 7019.0,7323.0 6974.0,7338.0 6889.0,7381.0 C 6788.0,7432.0 6782.0,7433.0 6685.0,7438.0 C 6630.0,7440.0 6514.0,7437.0 6427.0,7432.0 C 6269.0,7422.0 6268.0,7422.0 6199.0,7447.0 C 6136.0,7471.0 6128.0,7477.0 6111.0,7515.0 C 6101.0,7539.0 6048.0,7609.0 5995.0,7671.0 L 5897.0,7785.0 L 5693.0,7888.0 C 5580.0,7944.0 5481.0,7990.0 5472.0,7990.0 C 5463.0,7990.0 5386.0,8026.0 5300.0,8069.0 C 5215.0,8113.0 5111.0,8162.0 5068.0,8179.0 C 5026.0,8195.0 4966.0,8226.0 4933.0,8246.0 C 4898.0,8269.0 4856.0,8287.0 4825.0,8291.0 C 4788.0,8297.0 4768.0,8307.0 4750.0,8328.0 C 4736.0,8344.0 4700.0,8375.0 4670.0,8397.0 C 4630.0,8426.0 4608.0,8451.0 4591.0,8488.0 C 4572.0,8529.0 4554.0,8548.0 4505.0,8580.0 C 4450.0,8616.0 4283.0,8692.0 4175.0,8731.0 C 4145.0,8742.0 4126.0,8759.0 4098.0,8802.0 C 4077.0,8833.0 4040.0,8872.0 4016.0,8889.0 C 3987.0,8909.0 3971.0,8929.0 3967.0,8949.0 C 3962.0,8973.0 3947.0,8986.0 3887.0,9019.0 C 3841.0,9044.0 3800.0,9060.0 3778.0,9060.0 C 3735.0,9060.0 3710.0,9098.0 3710.0,9164.0 C 3710.0,9207.0 3705.0,9215.0 3637.0,9292.0 C 3596.0,9338.0 3555.0,9391.0 3545.0,9410.0 C 3535.0,9429.0 3506.0,9477.0 3479.0,9516.0 C 3453.0,9555.0 3404.0,9652.0 3370.0,9732.0 L 3308.0,9877.0 L 3245.0,9899.0 C 3211.0,9911.0 3154.0,9940.0 3119.0,9964.0 L 3055.0,10007.0 L 3013.0,9987.0 L 2971.0,9967.0 L 2926.0,10008.0 C 2900.0,10032.0 2865.0,10053.0 2838.0,10060.0 C 2647.0,10110.0 2614.0,10122.0 2564.0,10157.0 C 2456.0,10233.0 2440.0,10240.0 2365.0,10239.0 L 2295.0,10239.0 L 2243.0,10170.0" fill="pink"/>
	<path d="M 4820.0,5092.0 C 4753.0,5055.0 4722.0,5044.0 4675.0,5040.0 L 4616.0,5035.0 L 4553.0,4935.0 C 4438.0,4751.0 4347.0,4570.0 4340.0,4513.0 L 4334.0,4460.0 L 4379.0,4460.0 C 4405.0,4461.0 4490.0,4469.0 4568.0,4479.0 C 4709.0,4497.0 4714.0,4497.0 4808.0,4477.0 C 4882.0,4462.0 4923.0,4447.0 4981.0,4414.0 L 5057.0,4370.0 L 5163.0,4370.0 C 5261.0,4370.0 5278.0,4373.0 5362.0,4405.0 C 5446.0,4436.0 5460.0,4446.0 5511.0,4502.0 C 5580.0,4579.0 5620.0,4685.0 5620.0,4792.0 L 5620.0,4857.0 L 5468.0,4976.0 C 5385.0,5041.0 5310.0,5099.0 5303.0,5103.0 C 5277.0,5119.0 5106.0,5140.0 5005.0,5139.0 L 4905.0,5139.0 L 4820.0,5092.0" fill="pink"/>
</svg>
