<?xml version="1.0" ?>
<svg xmlns="http://www.w3.org/2000/svg" xmlns:ev="http://www.w3.org/2001/xml-events" xmlns:xlink="http://www.w3.org/1999/xlink" baseProfile="full" height="567px" version="1.1" viewBox="-1030.5094655374178 -682.0520073529591 12294.483090378904 11613.439728991632" width="600px">
	<defs/>
	<path d="M 3255.0,9936.0 C 3217.0,9923.0 3143.0,9892.0 3093.0,9867.0 C 3023.0,9831.0 2989.0,9820.0 2955.0,9820.0 C 2926.0,9820.0 2895.0,9812.0 2871.0,9798.0 C 2839.0,9780.0 2831.0,9768.0 2824.0,9733.0 L 2815.0,9689.0 L 2758.0,9725.0 C 2705.0,9759.0 2694.0,9762.0 2618.0,9763.0 C 2572.0,9764.0 2527.0,9761.0 2518.0,9757.0 C 2505.0,9750.0 2498.0,9756.0 2485.0,9779.0 L 2469.0,9810.0 L 2378.0,9810.0 L 2287.0,9810.0 L 2371.0,9750.0 L 2455.0,9690.0 L 2451.0,9610.0 C 2448.0,9535.0 2450.0,9526.0 2475.0,9490.0 C 2498.0,9458.0 2501.0,9445.0 2495.0,9412.0 C 2488.0,9368.0 2484.0,9370.0 2605.0,9355.0 C 2633.0,9351.0 2661.0,9347.0 2668.0,9345.0 C 2687.0,9338.0 2598.0,9262.0 2554.0,9246.0 C 2525.0,9236.0 2514.0,9226.0 2510.0,9206.0 C 2507.0,9192.0 2492.0,9164.0 2476.0,9144.0 L 2448.0,9108.0 L 2423.0,9132.0 L 2398.0,9155.0 L 2368.0,9118.0 C 2352.0,9097.0 2312.0,9066.0 2280.0,9049.0 C 2240.0,9028.0 2211.0,9002.0 2184.0,8965.0 C 2143.0,8909.0 2130.0,8905.0 2130.0,8946.0 C 2130.0,8977.0 2126.0,8976.0 2045.0,8940.0 C 1969.0,8906.0 1982.0,8902.0 1886.0,8987.0 C 1834.0,9034.0 1821.0,9040.0 1783.0,9040.0 L 1740.0,9040.0 L 1740.0,9096.0 C 1740.0,9147.0 1736.0,9157.0 1694.0,9211.0 C 1643.0,9278.0 1647.0,9278.0 1557.0,9212.0 L 1508.0,9177.0 L 1472.0,9196.0 C 1452.0,9206.0 1432.0,9216.0 1428.0,9218.0 C 1423.0,9220.0 1420.0,9213.0 1420.0,9202.0 C 1420.0,9174.0 1343.0,9166.0 1173.0,9175.0 L 1040.0,9182.0 L 1020.0,9136.0 C 1010.0,9111.0 998.0,9067.0 994.0,9040.0 L 987.0,8990.0 L 1031.0,8989.0 C 1055.0,8989.0 1095.0,8981.0 1120.0,8972.0 C 1158.0,8957.0 1166.0,8949.0 1173.0,8917.0 C 1178.0,8896.0 1180.0,8876.0 1177.0,8873.0 C 1174.0,8870.0 1156.0,8877.0 1138.0,8888.0 L 1105.0,8908.0 L 1033.0,8875.0 L 960.0,8841.0 L 960.0,8745.0 L 960.0,8649.0 L 1019.0,8595.0 C 1071.0,8546.0 1081.0,8530.0 1110.0,8449.0 L 1143.0,8358.0 L 1121.0,8296.0 C 1103.0,8247.0 1097.0,8197.0 1088.0,8045.0 L 1078.0,7855.0 L 1030.0,7730.0 C 998.0,7646.0 977.0,7606.0 968.0,7608.0 C 961.0,7610.0 931.0,7614.0 901.0,7617.0 C 859.0,7622.0 844.0,7620.0 836.0,7608.0 C 820.0,7586.0 725.0,7540.0 696.0,7540.0 C 621.0,7540.0 442.0,7482.0 400.0,7444.0 C 386.0,7432.0 343.0,7401.0 303.0,7376.0 C 226.0,7327.0 216.0,7306.0 221.0,7220.0 C 223.0,7196.0 215.0,7172.0 196.0,7143.0 L 168.0,7101.0 L 185.0,7043.0 L 202.0,6985.0 L 178.0,6971.0 C 166.0,6963.0 134.0,6934.0 108.0,6908.0 C 71.0,6872.0 60.0,6853.0 60.0,6829.0 C 60.0,6807.0 65.0,6797.0 80.0,6793.0 C 107.0,6786.0 105.0,6777.0 72.0,6762.0 C 5.0,6733.0 -27.0,6665.0 22.0,6658.0 C 39.0,6656.0 46.0,6646.0 50.0,6620.0 C 57.0,6577.0 189.0,6377.0 238.0,6334.0 L 274.0,6303.0 L 247.0,6257.0 C 232.0,6232.0 220.0,6209.0 220.0,6206.0 C 220.0,6203.0 251.0,6200.0 289.0,6200.0 C 327.0,6200.0 381.0,6195.0 409.0,6188.0 C 455.0,6178.0 460.0,6174.0 460.0,6150.0 C 460.0,6135.0 467.0,6116.0 476.0,6109.0 C 485.0,6102.0 496.0,6086.0 500.0,6074.0 C 509.0,6051.0 551.0,6040.0 635.0,6040.0 C 682.0,6041.0 691.0,6045.0 790.0,6120.0 C 847.0,6164.0 900.0,6200.0 906.0,6200.0 C 912.0,6200.0 923.0,6193.0 930.0,6185.0 C 940.0,6173.0 938.0,6160.0 920.0,6116.0 C 899.0,6066.0 898.0,6057.0 909.0,5986.0 C 915.0,5944.0 920.0,5889.0 920.0,5865.0 C 920.0,5826.0 924.0,5819.0 950.0,5805.0 C 990.0,5784.0 1010.0,5786.0 1052.0,5815.0 C 1087.0,5839.0 1096.0,5840.0 1227.0,5840.0 C 1303.0,5840.0 1379.0,5836.0 1395.0,5832.0 C 1443.0,5818.0 1505.0,5839.0 1535.0,5879.0 C 1549.0,5900.0 1578.0,5921.0 1603.0,5930.0 C 1626.0,5939.0 1674.0,5967.0 1709.0,5993.0 C 1744.0,6019.0 1783.0,6040.0 1796.0,6040.0 C 1810.0,6040.0 1826.0,6050.0 1837.0,6066.0 C 1860.0,6102.0 1920.0,6138.0 2003.0,6166.0 C 2058.0,6185.0 2095.0,6190.0 2171.0,6190.0 C 2284.0,6190.0 2288.0,6186.0 2264.0,6097.0 C 2245.0,6027.0 2246.0,5960.0 2266.0,5931.0 C 2278.0,5914.0 2281.0,5896.0 2276.0,5863.0 C 2273.0,5838.0 2274.0,5801.0 2280.0,5781.0 C 2285.0,5761.0 2292.0,5733.0 2295.0,5718.0 C 2299.0,5697.0 2310.0,5688.0 2349.0,5675.0 C 2382.0,5664.0 2407.0,5647.0 2425.0,5624.0 C 2442.0,5602.0 2459.0,5590.0 2475.0,5590.0 C 2495.0,5590.0 2500.0,5583.0 2506.0,5555.0 C 2512.0,5524.0 2515.0,5520.0 2557.0,5514.0 C 2582.0,5510.0 2633.0,5510.0 2671.0,5513.0 C 2724.0,5517.0 2741.0,5515.0 2751.0,5504.0 C 2774.0,5476.0 2819.0,5459.0 2839.0,5469.0 C 2853.0,5477.0 2863.0,5473.0 2885.0,5450.0 C 2901.0,5433.0 2921.0,5420.0 2930.0,5420.0 C 2939.0,5420.0 2961.0,5409.0 2980.0,5395.0 C 3005.0,5377.0 3026.0,5370.0 3062.0,5370.0 C 3105.0,5370.0 3110.0,5367.0 3116.0,5345.0 C 3119.0,5331.0 3136.0,5309.0 3154.0,5296.0 C 3181.0,5276.0 3201.0,5272.0 3300.0,5266.0 C 3446.0,5258.0 3462.0,5255.0 3505.0,5216.0 C 3534.0,5191.0 3541.0,5175.0 3548.0,5130.0 C 3554.0,5090.0 3568.0,5057.0 3598.0,5013.0 C 3626.0,4971.0 3640.0,4940.0 3640.0,4918.0 C 3640.0,4885.0 3640.0,4885.0 3595.0,4888.0 C 3554.0,4892.0 3550.0,4890.0 3544.0,4865.0 C 3539.0,4845.0 3544.0,4831.0 3567.0,4802.0 C 3589.0,4775.0 3598.0,4750.0 3602.0,4710.0 C 3606.0,4680.0 3616.0,4636.0 3625.0,4613.0 L 3642.0,4570.0 L 3799.0,4569.0 C 3885.0,4568.0 3982.0,4569.0 4016.0,4570.0 C 4088.0,4572.0 4099.0,4560.0 4075.0,4503.0 C 4066.0,4483.0 4060.0,4437.0 4060.0,4396.0 L 4060.0,4325.0 L 4133.0,4278.0 C 4172.0,4252.0 4217.0,4226.0 4233.0,4219.0 C 4271.0,4202.0 4283.0,4150.0 4282.0,4013.0 L 4282.0,3900.0 L 4242.0,3853.0 C 4204.0,3807.0 4160.0,3695.0 4160.0,3643.0 C 4160.0,3608.0 4201.0,3465.0 4221.0,3434.0 C 4245.0,3395.0 4246.0,3329.0 4223.0,3245.0 C 4209.0,3191.0 4208.0,3177.0 4219.0,3157.0 C 4229.0,3139.0 4229.0,3127.0 4221.0,3112.0 C 4202.0,3077.0 4208.0,3072.0 4279.0,3060.0 C 4338.0,3049.0 4354.0,3049.0 4395.0,3064.0 C 4440.0,3079.0 4445.0,3079.0 4461.0,3064.0 C 4478.0,3049.0 4481.0,3049.0 4506.0,3069.0 C 4533.0,3091.0 4550.0,3089.0 4550.0,3064.0 C 4550.0,3054.0 4564.0,3050.0 4606.0,3050.0 C 4654.0,3050.0 4668.0,3045.0 4701.0,3019.0 C 4723.0,3002.0 4745.0,2978.0 4752.0,2967.0 C 4773.0,2928.0 4800.0,2806.0 4806.0,2722.0 C 4813.0,2644.0 4815.0,2638.0 4842.0,2624.0 C 4867.0,2611.0 4878.0,2611.0 4950.0,2628.0 L 5031.0,2647.0 L 5049.0,2624.0 C 5099.0,2560.0 5097.0,2460.0 5041.0,2313.0 C 5011.0,2233.0 5011.0,2230.0 5030.0,2220.0 C 5040.0,2215.0 5062.0,2210.0 5078.0,2210.0 C 5094.0,2210.0 5128.0,2201.0 5152.0,2190.0 C 5217.0,2161.0 5230.0,2122.0 5229.0,1955.0 C 5229.0,1826.0 5229.0,1825.0 5202.0,1804.0 C 5187.0,1793.0 5148.0,1773.0 5115.0,1760.0 C 5079.0,1746.0 5030.0,1714.0 4991.0,1681.0 C 4957.0,1650.0 4903.0,1604.0 4871.0,1579.0 C 4753.0,1482.0 4643.0,1366.0 4630.0,1325.0 C 4623.0,1303.0 4595.0,1259.0 4569.0,1227.0 C 4542.0,1195.0 4513.0,1155.0 4503.0,1139.0 C 4493.0,1123.0 4477.0,1107.0 4465.0,1104.0 C 4454.0,1100.0 4429.0,1085.0 4409.0,1069.0 C 4379.0,1046.0 4374.0,1036.0 4378.0,1011.0 C 4381.0,987.0 4388.0,980.0 4413.0,974.0 C 4439.0,969.0 4447.0,972.0 4467.0,996.0 C 4496.0,1033.0 4545.0,1031.0 4575.0,992.0 C 4586.0,977.0 4623.0,937.0 4657.0,902.0 C 4692.0,868.0 4720.0,831.0 4720.0,821.0 C 4720.0,811.0 4728.0,796.0 4739.0,786.0 C 4755.0,771.0 4758.0,771.0 4770.0,785.0 C 4777.0,794.0 4792.0,806.0 4803.0,812.0 C 4821.0,821.0 4831.0,814.0 4885.0,756.0 C 4936.0,701.0 4952.0,690.0 4979.0,690.0 C 5006.0,690.0 5023.0,678.0 5086.0,612.0 C 5127.0,570.0 5163.0,532.0 5167.0,528.0 C 5172.0,524.0 5217.0,480.0 5269.0,430.0 C 5351.0,351.0 5438.0,290.0 5469.0,290.0 C 5474.0,290.0 5489.0,307.0 5501.0,328.0 C 5513.0,348.0 5565.0,408.0 5615.0,460.0 C 5666.0,512.0 5722.0,578.0 5740.0,605.0 C 5759.0,633.0 5805.0,693.0 5844.0,740.0 C 5958.0,876.0 5971.0,896.0 5987.0,956.0 C 6006.0,1030.0 6067.0,1115.0 6171.0,1215.0 C 6259.0,1299.0 6380.0,1443.0 6380.0,1463.0 C 6380.0,1470.0 6396.0,1508.0 6415.0,1548.0 C 6448.0,1617.0 6449.0,1623.0 6435.0,1650.0 C 6427.0,1666.0 6420.0,1696.0 6420.0,1716.0 C 6420.0,1737.0 6413.0,1776.0 6404.0,1804.0 C 6388.0,1855.0 6389.0,1856.0 6425.0,1975.0 C 6479.0,2153.0 6507.0,2199.0 6599.0,2264.0 C 6641.0,2294.0 6709.0,2351.0 6750.0,2392.0 C 6846.0,2486.0 6904.0,2523.0 7006.0,2557.0 L 7088.0,2583.0 L 7150.0,2557.0 C 7184.0,2542.0 7216.0,2530.0 7221.0,2530.0 C 7226.0,2530.0 7239.0,2544.0 7249.0,2561.0 C 7264.0,2585.0 7266.0,2599.0 7259.0,2618.0 C 7254.0,2632.0 7251.0,2645.0 7254.0,2647.0 C 7256.0,2650.0 7290.0,2662.0 7329.0,2674.0 C 7399.0,2696.0 7400.0,2697.0 7380.0,2715.0 C 7353.0,2740.0 7363.0,2750.0 7417.0,2750.0 C 7449.0,2750.0 7467.0,2745.0 7476.0,2733.0 C 7488.0,2716.0 7493.0,2719.0 7539.0,2765.0 L 7590.0,2814.0 L 7590.0,2778.0 L 7590.0,2742.0 L 7753.0,2736.0 C 7842.0,2732.0 7944.0,2728.0 7980.0,2727.0 L 8045.0,2725.0 L 8055.0,2786.0 C 8068.0,2864.0 8091.0,2891.0 8170.0,2919.0 C 8257.0,2950.0 8300.0,2997.0 8300.0,3061.0 C 8300.0,3099.0 8305.0,3111.0 8334.0,3139.0 C 8356.0,3160.0 8370.0,3185.0 8374.0,3210.0 C 8379.0,3242.0 8391.0,3257.0 8459.0,3311.0 C 8530.0,3369.0 8540.0,3380.0 8555.0,3432.0 C 8569.0,3477.0 8579.0,3492.0 8606.0,3506.0 C 8634.0,3521.0 8646.0,3540.0 8679.0,3620.0 C 8707.0,3686.0 8720.0,3735.0 8723.0,3780.0 C 8731.0,3896.0 8758.0,3969.0 8811.0,4021.0 L 8858.0,4067.0 L 8874.0,4201.0 C 8883.0,4282.0 8902.0,4377.0 8921.0,4440.0 C 8950.0,4535.0 8954.0,4562.0 8960.0,4730.0 C 8966.0,4887.0 8972.0,4936.0 8999.0,5055.0 C 9017.0,5132.0 9042.0,5220.0 9054.0,5250.0 L 9076.0,5305.0 L 9132.0,5310.0 L 9189.0,5315.0 L 9252.0,5400.0 C 9318.0,5487.0 9398.0,5616.0 9443.0,5706.0 C 9458.0,5735.0 9491.0,5776.0 9523.0,5803.0 C 9554.0,5829.0 9595.0,5872.0 9614.0,5899.0 C 9645.0,5940.0 9659.0,5950.0 9701.0,5961.0 C 9745.0,5973.0 9759.0,5984.0 9828.0,6062.0 C 10032.0,6296.0 10061.0,6335.0 10122.0,6455.0 C 10239.0,6685.0 10256.0,6758.0 10215.0,6859.0 C 10201.0,6895.0 10190.0,6943.0 10190.0,6966.0 C 10190.0,7043.0 10168.0,7164.0 10148.0,7199.0 C 10138.0,7218.0 10126.0,7262.0 10123.0,7298.0 C 10117.0,7361.0 10115.0,7365.0 10058.0,7422.0 L 10000.0,7480.0 L 9893.0,7480.0 C 9652.0,7481.0 9464.0,7573.0 9333.0,7757.0 C 9295.0,7811.0 9276.0,7827.0 9216.0,7856.0 C 9170.0,7880.0 9121.0,7916.0 9075.0,7961.0 C 9010.0,8024.0 8998.0,8032.0 8902.0,8065.0 C 8800.0,8100.0 8793.0,8101.0 8582.0,8110.0 C 8452.0,8115.0 8341.0,8125.0 8305.0,8134.0 C 8272.0,8142.0 8221.0,8149.0 8192.0,8150.0 C 8152.0,8150.0 8122.0,8159.0 8068.0,8186.0 C 8029.0,8206.0 7967.0,8228.0 7930.0,8236.0 C 7892.0,8243.0 7856.0,8252.0 7848.0,8255.0 C 7840.0,8258.0 7825.0,8248.0 7812.0,8230.0 C 7793.0,8205.0 7783.0,8200.0 7746.0,8200.0 C 7706.0,8200.0 7699.0,8196.0 7665.0,8154.0 L 7627.0,8108.0 L 7614.0,8131.0 C 7602.0,8153.0 7605.0,8158.0 7641.0,8195.0 C 7662.0,8218.0 7680.0,8243.0 7680.0,8251.0 C 7680.0,8259.0 7660.0,8281.0 7636.0,8299.0 C 7599.0,8327.0 7590.0,8340.0 7583.0,8379.0 C 7576.0,8418.0 7569.0,8428.0 7540.0,8442.0 C 7517.0,8454.0 7492.0,8458.0 7468.0,8455.0 C 7436.0,8451.0 7421.0,8456.0 7366.0,8494.0 C 7331.0,8518.0 7285.0,8543.0 7263.0,8550.0 C 7242.0,8557.0 7171.0,8587.0 7105.0,8618.0 L 6985.0,8674.0 L 6852.0,8678.0 L 6719.0,8682.0 L 6689.0,8654.0 C 6672.0,8638.0 6638.0,8594.0 6612.0,8556.0 C 6562.0,8483.0 6514.0,8450.0 6460.0,8450.0 L 6430.0,8450.0 L 6505.0,8554.0 C 6598.0,8681.0 6608.0,8711.0 6577.0,8757.0 C 6551.0,8796.0 6518.0,8809.0 6430.0,8817.0 C 6354.0,8823.0 6263.0,8870.0 6258.0,8904.0 C 6255.0,8922.0 6247.0,8925.0 6198.0,8928.0 C 6145.0,8931.0 6141.0,8933.0 6126.0,8964.0 C 6104.0,9011.0 6106.0,9030.0 6133.0,9030.0 C 6175.0,9030.0 6181.0,9041.0 6170.0,9101.0 C 6163.0,9139.0 6163.0,9173.0 6170.0,9210.0 C 6180.0,9264.0 6180.0,9266.0 6153.0,9287.0 C 6137.0,9300.0 6111.0,9310.0 6094.0,9310.0 C 6065.0,9310.0 6062.0,9313.0 6057.0,9348.0 C 6053.0,9369.0 6044.0,9394.0 6036.0,9405.0 C 6023.0,9423.0 6021.0,9423.0 5995.0,9406.0 C 5980.0,9396.0 5966.0,9390.0 5964.0,9393.0 C 5961.0,9395.0 5955.0,9425.0 5949.0,9459.0 C 5943.0,9496.0 5927.0,9540.0 5910.0,9569.0 C 5887.0,9606.0 5880.0,9629.0 5880.0,9671.0 C 5879.0,9814.0 5822.0,9930.0 5753.0,9930.0 C 5726.0,9930.0 5708.0,9920.0 5668.0,9883.0 C 5605.0,9823.0 5497.0,9616.0 5485.0,9532.0 C 5479.0,9488.0 5471.0,9473.0 5438.0,9442.0 L 5399.0,9405.0 L 5288.0,9414.0 C 5209.0,9421.0 5162.0,9420.0 5121.0,9412.0 C 5089.0,9405.0 5038.0,9400.0 5006.0,9400.0 C 4955.0,9400.0 4942.0,9404.0 4899.0,9435.0 L 4851.0,9471.0 L 4784.0,9459.0 C 4747.0,9453.0 4690.0,9450.0 4657.0,9454.0 C 4609.0,9459.0 4593.0,9457.0 4578.0,9443.0 C 4556.0,9423.0 4555.0,9379.0 4576.0,9338.0 C 4599.0,9294.0 4584.0,9288.0 4454.0,9293.0 C 4364.0,9295.0 4337.0,9300.0 4308.0,9317.0 L 4272.0,9338.0 L 4214.0,9290.0 C 4166.0,9251.0 4127.0,9232.0 4015.0,9191.0 C 3848.0,9130.0 3816.0,9128.0 3746.0,9173.0 C 3718.0,9192.0 3681.0,9215.0 3663.0,9225.0 C 3628.0,9245.0 3620.0,9264.0 3620.0,9330.0 C 3620.0,9355.0 3613.0,9400.0 3605.0,9430.0 C 3597.0,9460.0 3591.0,9508.0 3592.0,9536.0 C 3593.0,9575.0 3588.0,9595.0 3572.0,9618.0 L 3550.0,9648.0 L 3600.0,9690.0 C 3648.0,9731.0 3650.0,9733.0 3650.0,9785.0 C 3650.0,9835.0 3648.0,9840.0 3611.0,9869.0 C 3581.0,9893.0 3562.0,9900.0 3530.0,9900.0 C 3497.0,9900.0 3480.0,9907.0 3453.0,9930.0 C 3411.0,9967.0 3358.0,9969.0 3255.0,9936.0" fill="pink"/>
</svg>
