<?xml version="1.0" ?>
<svg xmlns="http://www.w3.org/2000/svg" xmlns:ev="http://www.w3.org/2001/xml-events" xmlns:xlink="http://www.w3.org/1999/xlink" baseProfile="full" height="600px" version="1.1" viewBox="519.5349637879535 -1029.12 9209.286863183934 12298.24" width="450px">
	<defs/>
	<path d="M 2030.0,10224.0 C 1985.0,10204.0 1953.0,10174.0 1929.0,10128.0 C 1917.0,10104.0 1895.0,10083.0 1870.0,10070.0 C 1849.0,10059.0 1827.0,10044.0 1823.0,10037.0 C 1809.0,10013.0 1766.0,9990.0 1738.0,9990.0 C 1722.0,9990.0 1697.0,9978.0 1677.0,9960.0 L 1642.0,9930.0 L 1482.0,9930.0 C 1394.0,9930.0 1315.0,9927.0 1306.0,9924.0 C 1282.0,9915.0 1287.0,9894.0 1323.0,9853.0 C 1341.0,9832.0 1363.0,9803.0 1372.0,9789.0 C 1385.0,9768.0 1402.0,9760.0 1451.0,9751.0 C 1532.0,9735.0 1604.0,9686.0 1647.0,9618.0 C 1679.0,9567.0 1680.0,9563.0 1679.0,9460.0 C 1678.0,9402.0 1675.0,9344.0 1671.0,9330.0 C 1666.0,9312.0 1670.0,9296.0 1684.0,9274.0 L 1704.0,9242.0 L 1780.0,9280.0 C 1850.0,9315.0 1916.0,9339.0 2000.0,9358.0 C 2025.0,9364.0 2035.0,9372.0 2035.0,9386.0 C 2035.0,9401.0 2018.0,9411.0 1955.0,9432.0 C 1856.0,9465.0 1860.0,9464.0 1860.0,9438.0 C 1860.0,9406.0 1849.0,9393.0 1818.0,9385.0 C 1795.0,9379.0 1790.0,9382.0 1785.0,9402.0 C 1782.0,9415.0 1786.0,9441.0 1794.0,9460.0 C 1803.0,9483.0 1806.0,9512.0 1803.0,9548.0 C 1796.0,9607.0 1812.0,9629.0 1860.0,9630.0 C 1905.0,9630.0 1915.0,9616.0 1902.0,9574.0 C 1896.0,9554.0 1893.0,9533.0 1895.0,9529.0 C 1898.0,9525.0 1923.0,9519.0 1950.0,9515.0 C 1996.0,9509.0 2001.0,9505.0 2007.0,9479.0 C 2013.0,9449.0 2052.0,9410.0 2075.0,9410.0 C 2097.0,9410.0 2140.0,9350.0 2140.0,9319.0 C 2140.0,9299.0 2148.0,9285.0 2165.0,9274.0 C 2179.0,9265.0 2196.0,9247.0 2203.0,9234.0 C 2210.0,9222.0 2239.0,9186.0 2269.0,9155.0 C 2323.0,9099.0 2325.0,9098.0 2369.0,9103.0 C 2406.0,9107.0 2419.0,9104.0 2441.0,9085.0 C 2456.0,9073.0 2487.0,9060.0 2510.0,9056.0 C 2558.0,9049.0 2657.0,8986.0 2666.0,8958.0 C 2669.0,8948.0 2709.0,8914.0 2756.0,8884.0 C 2802.0,8853.0 2859.0,8806.0 2884.0,8779.0 C 2909.0,8751.0 2937.0,8730.0 2949.0,8730.0 C 2971.0,8730.0 3006.0,8689.0 3039.0,8623.0 C 3051.0,8600.0 3069.0,8576.0 3080.0,8570.0 C 3112.0,8553.0 3176.0,8460.0 3194.0,8405.0 C 3203.0,8378.0 3233.0,8320.0 3260.0,8277.0 L 3311.0,8198.0 L 3306.0,8028.0 C 3302.0,7891.0 3298.0,7855.0 3285.0,7841.0 C 3273.0,7826.0 3271.0,7809.0 3276.0,7753.0 C 3281.0,7699.0 3279.0,7678.0 3267.0,7659.0 C 3259.0,7646.0 3248.0,7613.0 3245.0,7587.0 C 3237.0,7538.0 3226.0,7521.0 3184.0,7493.0 C 3165.0,7481.0 3160.0,7469.0 3160.0,7436.0 C 3161.0,7414.0 3166.0,7385.0 3173.0,7373.0 L 3186.0,7350.0 L 3220.0,7370.0 C 3239.0,7381.0 3284.0,7404.0 3320.0,7421.0 C 3383.0,7451.0 3388.0,7452.0 3485.0,7446.0 C 3651.0,7435.0 3737.0,7420.0 3767.0,7396.0 L 3795.0,7375.0 L 3655.0,7368.0 C 3333.0,7353.0 3206.0,7338.0 3179.0,7311.0 C 3175.0,7308.0 3169.0,7295.0 3165.0,7283.0 C 3159.0,7260.0 3159.0,7260.0 3252.0,7266.0 C 3303.0,7269.0 3368.0,7279.0 3395.0,7288.0 C 3434.0,7301.0 3480.0,7305.0 3608.0,7304.0 C 3698.0,7303.0 3799.0,7299.0 3834.0,7295.0 C 3897.0,7289.0 3897.0,7289.0 3998.0,7194.0 C 4054.0,7141.0 4100.0,7093.0 4100.0,7086.0 C 4100.0,7080.0 4115.0,7043.0 4134.0,7004.0 C 4164.0,6942.0 4174.0,6930.0 4226.0,6899.0 C 4295.0,6858.0 4328.0,6808.0 4337.0,6728.0 C 4340.0,6699.0 4353.0,6659.0 4365.0,6640.0 C 4378.0,6621.0 4396.0,6565.0 4406.0,6516.0 L 4424.0,6428.0 L 4490.0,6383.0 C 4544.0,6348.0 4559.0,6331.0 4568.0,6302.0 C 4575.0,6281.0 4607.0,6235.0 4643.0,6195.0 C 4717.0,6114.0 4758.0,6040.0 4766.0,5972.0 C 4776.0,5893.0 4827.0,5769.0 4883.0,5691.0 C 4903.0,5664.0 4914.0,5632.0 4920.0,5587.0 C 4930.0,5523.0 4944.0,5491.0 5006.0,5399.0 C 5023.0,5374.0 5047.0,5320.0 5060.0,5279.0 C 5073.0,5238.0 5087.0,5201.0 5092.0,5195.0 C 5096.0,5190.0 5100.0,5172.0 5100.0,5155.0 C 5100.0,5132.0 5113.0,5110.0 5150.0,5068.0 C 5190.0,5023.0 5200.0,5005.0 5200.0,4976.0 C 5200.0,4951.0 5206.0,4938.0 5219.0,4930.0 C 5243.0,4917.0 5276.0,4864.0 5283.0,4824.0 C 5290.0,4788.0 5392.0,4606.0 5427.0,4569.0 C 5440.0,4554.0 5468.0,4535.0 5488.0,4526.0 C 5517.0,4513.0 5535.0,4492.0 5570.0,4432.0 C 5632.0,4325.0 5768.0,4148.0 5812.0,4116.0 C 5838.0,4097.0 5867.0,4058.0 5906.0,3986.0 C 5940.0,3923.0 5972.0,3877.0 5987.0,3869.0 C 6022.0,3850.0 6040.0,3812.0 6027.0,3783.0 C 6012.0,3750.0 5983.0,3754.0 5975.0,3790.0 C 5970.0,3813.0 5963.0,3820.0 5945.0,3820.0 C 5925.0,3820.0 5922.0,3814.0 5918.0,3779.0 C 5914.0,3739.0 5917.0,3735.0 5961.0,3701.0 C 5988.0,3681.0 6014.0,3649.0 6023.0,3629.0 C 6036.0,3597.0 6035.0,3590.0 6019.0,3559.0 C 5997.0,3518.0 5995.0,3477.0 6014.0,3461.0 C 6022.0,3454.0 6031.0,3432.0 6035.0,3412.0 C 6045.0,3353.0 6053.0,3347.0 6120.0,3342.0 L 6183.0,3337.0 L 6177.0,3274.0 L 6172.0,3212.0 L 6229.0,3191.0 C 6260.0,3180.0 6314.0,3169.0 6350.0,3167.0 C 6386.0,3164.0 6422.0,3159.0 6431.0,3155.0 C 6444.0,3150.0 6454.0,3160.0 6472.0,3192.0 L 6495.0,3235.0 L 6568.0,3238.0 C 6638.0,3241.0 6644.0,3239.0 6753.0,3186.0 C 6814.0,3156.0 6892.0,3110.0 6925.0,3083.0 C 6980.0,3039.0 6991.0,3023.0 7063.0,2880.0 C 7133.0,2740.0 7142.0,2717.0 7149.0,2645.0 C 7158.0,2565.0 7182.0,2509.0 7266.0,2380.0 C 7278.0,2361.0 7303.0,2298.0 7320.0,2240.0 C 7354.0,2123.0 7354.0,2076.0 7316.0,2035.0 C 7295.0,2013.0 7267.0,1957.0 7240.0,1882.0 C 7233.0,1864.0 7210.0,1836.0 7189.0,1819.0 C 7167.0,1802.0 7150.0,1781.0 7150.0,1771.0 C 7150.0,1747.0 7099.0,1672.0 7053.0,1627.0 C 7022.0,1598.0 7014.0,1583.0 7018.0,1564.0 C 7026.0,1523.0 7044.0,1531.0 7105.0,1600.0 C 7111.0,1606.0 7138.0,1626.0 7165.0,1643.0 C 7200.0,1666.0 7223.0,1691.0 7243.0,1728.0 C 7259.0,1756.0 7275.0,1780.0 7281.0,1780.0 C 7293.0,1780.0 7292.0,1743.0 7279.0,1717.0 C 7262.0,1684.0 7188.0,1609.0 7163.0,1599.0 C 7148.0,1594.0 7140.0,1582.0 7140.0,1567.0 C 7140.0,1534.0 7110.0,1510.0 7069.0,1510.0 C 7027.0,1510.0 7014.0,1502.0 7001.0,1467.0 C 6991.0,1441.0 6988.0,1440.0 6928.0,1442.0 C 6860.0,1445.0 6846.0,1454.0 6861.0,1482.0 C 6866.0,1492.0 6869.0,1500.0 6867.0,1500.0 C 6864.0,1500.0 6776.0,1480.0 6670.0,1455.0 C 6564.0,1430.0 6476.0,1410.0 6473.0,1410.0 C 6471.0,1410.0 6470.0,1393.0 6472.0,1372.0 C 6475.0,1339.0 6473.0,1335.0 6449.0,1332.0 C 6432.0,1330.0 6412.0,1338.0 6395.0,1353.0 L 6367.0,1376.0 L 6327.0,1333.0 C 6305.0,1309.0 6281.0,1290.0 6273.0,1290.0 C 6265.0,1290.0 6217.0,1276.0 6167.0,1258.0 C 6084.0,1230.0 6069.0,1221.0 6015.0,1164.0 C 5969.0,1117.0 5932.0,1091.0 5863.0,1057.0 C 5765.0,1009.0 5719.0,978.0 5655.0,919.0 C 5628.0,895.0 5592.0,875.0 5545.0,860.0 C 5451.0,830.0 5366.0,783.0 5346.0,750.0 C 5323.0,711.0 5251.0,702.0 5181.0,730.0 C 5152.0,741.0 5128.0,750.0 5126.0,750.0 C 5121.0,750.0 5138.0,658.0 5152.0,610.0 C 5163.0,573.0 5170.0,564.0 5193.0,562.0 C 5213.0,559.0 5220.0,553.0 5220.0,537.0 C 5220.0,522.0 5244.0,491.0 5286.0,450.0 C 5322.0,414.0 5370.0,359.0 5391.0,327.0 C 5422.0,283.0 5444.0,263.0 5490.0,240.0 C 5523.0,223.0 5561.0,210.0 5575.0,210.0 C 5595.0,210.0 5604.0,202.0 5616.0,174.0 C 5633.0,133.0 5632.0,133.0 5765.0,166.0 C 5854.0,188.0 5874.0,187.0 5990.0,156.0 C 6042.0,142.0 6095.0,128.0 6107.0,125.0 C 6118.0,123.0 6133.0,108.0 6139.0,93.0 C 6145.0,77.0 6161.0,50.0 6174.0,33.0 L 6198.0,0.0 L 6241.0,35.0 C 6265.0,54.0 6302.0,75.0 6322.0,80.0 C 6351.0,88.0 6360.0,97.0 6365.0,120.0 C 6369.0,137.0 6380.0,152.0 6392.0,156.0 C 6403.0,159.0 6420.0,180.0 6430.0,203.0 C 6463.0,277.0 6514.0,349.0 6540.0,358.0 C 6554.0,363.0 6574.0,384.0 6585.0,403.0 C 6597.0,425.0 6616.0,444.0 6634.0,450.0 C 6651.0,456.0 6678.0,474.0 6695.0,490.0 C 6731.0,525.0 6796.0,540.0 6909.0,540.0 C 6962.0,540.0 6998.0,534.0 7026.0,521.0 C 7057.0,507.0 7071.0,505.0 7079.0,513.0 C 7112.0,546.0 7066.0,574.0 6980.0,572.0 C 6944.0,571.0 6904.0,574.0 6890.0,579.0 C 6876.0,584.0 6853.0,591.0 6838.0,594.0 C 6784.0,606.0 6810.0,640.0 6872.0,640.0 C 6889.0,640.0 6922.0,651.0 6944.0,664.0 C 7004.0,699.0 7060.0,701.0 7099.0,668.0 C 7117.0,652.0 7149.0,638.0 7174.0,635.0 C 7216.0,628.0 7218.0,627.0 7223.0,587.0 C 7228.0,552.0 7225.0,541.0 7204.0,519.0 C 7191.0,505.0 7182.0,487.0 7185.0,479.0 C 7188.0,471.0 7176.0,456.0 7155.0,442.0 C 7114.0,416.0 7108.0,395.0 7145.0,404.0 C 7189.0,415.0 7216.0,428.0 7229.0,444.0 C 7241.0,458.0 7246.0,458.0 7277.0,445.0 C 7310.0,431.0 7313.0,432.0 7345.0,456.0 C 7363.0,470.0 7381.0,487.0 7384.0,495.0 C 7387.0,503.0 7414.0,526.0 7445.0,546.0 C 7485.0,573.0 7504.0,580.0 7512.0,572.0 C 7519.0,565.0 7534.0,566.0 7562.0,576.0 C 7584.0,584.0 7622.0,590.0 7646.0,590.0 C 7684.0,590.0 7691.0,594.0 7705.0,620.0 C 7723.0,655.0 7723.0,655.0 7756.0,634.0 C 7785.0,614.0 7802.0,620.0 7871.0,673.0 C 7922.0,712.0 7993.0,728.0 8130.0,731.0 C 8297.0,736.0 8304.0,734.0 8334.0,690.0 C 8351.0,664.0 8368.0,650.0 8382.0,650.0 C 8395.0,650.0 8423.0,628.0 8456.0,592.0 C 8499.0,544.0 8517.0,532.0 8557.0,522.0 C 8603.0,511.0 8606.0,512.0 8626.0,537.0 C 8645.0,559.0 8658.0,563.0 8719.0,568.0 C 8788.0,573.0 8790.0,572.0 8799.0,546.0 C 8805.0,532.0 8807.0,507.0 8804.0,491.0 C 8799.0,469.0 8805.0,455.0 8830.0,426.0 C 8856.0,396.0 8869.0,390.0 8900.0,390.0 C 8935.0,390.0 8939.0,393.0 8950.0,425.0 C 8964.0,467.0 8959.0,476.0 8920.0,485.0 C 8885.0,493.0 8886.0,490.0 8907.0,535.0 C 8923.0,569.0 8923.0,571.0 8902.0,593.0 C 8876.0,620.0 8872.0,675.0 8895.0,684.0 C 8903.0,687.0 8910.0,699.0 8910.0,710.0 C 8910.0,724.0 8903.0,730.0 8887.0,730.0 C 8866.0,730.0 8862.0,738.0 8846.0,810.0 C 8831.0,874.0 8819.0,901.0 8784.0,946.0 C 8760.0,977.0 8740.0,1007.0 8740.0,1012.0 C 8740.0,1017.0 8715.0,1087.0 8685.0,1166.0 C 8655.0,1246.0 8626.0,1339.0 8620.0,1373.0 C 8605.0,1456.0 8459.0,1728.0 8384.0,1812.0 C 8354.0,1845.0 8330.0,1878.0 8330.0,1885.0 C 8330.0,1908.0 8189.0,2180.0 8177.0,2180.0 C 8170.0,2180.0 8142.0,2191.0 8114.0,2204.0 C 8071.0,2224.0 8057.0,2239.0 8014.0,2306.0 C 7956.0,2400.0 7890.0,2589.0 7890.0,2665.0 C 7890.0,2740.0 7881.0,2759.0 7839.0,2780.0 C 7798.0,2801.0 7780.0,2826.0 7780.0,2859.0 C 7780.0,2870.0 7763.0,2894.0 7743.0,2912.0 C 7624.0,3017.0 7590.0,3054.0 7590.0,3079.0 C 7590.0,3133.0 7560.0,3229.0 7526.0,3286.0 C 7475.0,3371.0 7357.0,3484.0 7293.0,3509.0 C 7254.0,3524.0 7219.0,3552.0 7153.0,3618.0 C 7097.0,3674.0 7054.0,3709.0 7035.0,3714.0 C 6931.0,3739.0 6936.0,3735.0 6894.0,3815.0 C 6861.0,3880.0 6847.0,3895.0 6803.0,3921.0 C 6774.0,3938.0 6742.0,3963.0 6731.0,3979.0 C 6718.0,3997.0 6681.0,4018.0 6619.0,4044.0 C 6511.0,4088.0 6457.0,4122.0 6380.0,4195.0 C 6267.0,4302.0 6088.0,4412.0 6009.0,4424.0 C 5958.0,4431.0 5941.0,4449.0 5896.0,4537.0 C 5882.0,4565.0 5846.0,4615.0 5817.0,4647.0 C 5760.0,4709.0 5700.0,4797.0 5675.0,4856.0 C 5667.0,4875.0 5644.0,4912.0 5625.0,4938.0 C 5605.0,4964.0 5558.0,5033.0 5520.0,5093.0 C 5477.0,5160.0 5422.0,5227.0 5376.0,5273.0 C 5299.0,5347.0 5282.0,5376.0 5225.0,5528.0 C 5210.0,5568.0 5179.0,5624.0 5156.0,5653.0 C 5051.0,5783.0 5012.0,5847.0 5005.0,5896.0 C 5001.0,5923.0 4985.0,5978.0 4970.0,6018.0 C 4947.0,6076.0 4930.0,6102.0 4887.0,6143.0 C 4839.0,6188.0 4826.0,6210.0 4787.0,6305.0 C 4762.0,6366.0 4732.0,6447.0 4720.0,6485.0 C 4707.0,6524.0 4684.0,6581.0 4669.0,6612.0 C 4653.0,6644.0 4640.0,6680.0 4640.0,6694.0 C 4640.0,6707.0 4600.0,6799.0 4551.0,6898.0 C 4483.0,7035.0 4460.0,7091.0 4455.0,7136.0 C 4441.0,7242.0 4379.0,7315.0 4242.0,7384.0 C 4181.0,7415.0 4127.0,7482.0 4110.0,7548.0 C 4098.0,7597.0 4064.0,7632.0 4003.0,7660.0 C 3972.0,7674.0 3955.0,7690.0 3939.0,7722.0 C 3911.0,7777.0 3848.0,7862.0 3789.0,7925.0 C 3764.0,7953.0 3722.0,8000.0 3698.0,8031.0 C 3657.0,8082.0 3653.0,8093.0 3647.0,8158.0 C 3643.0,8198.0 3644.0,8240.0 3650.0,8254.0 C 3659.0,8278.0 3657.0,8281.0 3622.0,8295.0 C 3588.0,8309.0 3581.0,8319.0 3557.0,8380.0 C 3535.0,8437.0 3530.0,8466.0 3530.0,8537.0 C 3530.0,8588.0 3523.0,8648.0 3513.0,8683.0 C 3499.0,8733.0 3498.0,8752.0 3508.0,8800.0 C 3515.0,8831.0 3520.0,8875.0 3520.0,8898.0 C 3520.0,8921.0 3529.0,8954.0 3540.0,8972.0 C 3554.0,8996.0 3561.0,9033.0 3566.0,9102.0 L 3573.0,9198.0 L 3541.0,9214.0 C 3524.0,9223.0 3499.0,9248.0 3485.0,9269.0 C 3468.0,9297.0 3445.0,9316.0 3406.0,9333.0 C 3360.0,9354.0 3346.0,9367.0 3320.0,9413.0 C 3283.0,9480.0 3210.0,9549.0 3109.0,9614.0 C 3051.0,9652.0 3022.0,9680.0 2984.0,9733.0 C 2953.0,9777.0 2909.0,9822.0 2863.0,9857.0 C 2780.0,9920.0 2754.0,9949.0 2745.0,9991.0 C 2739.0,10016.0 2726.0,10027.0 2658.0,10061.0 C 2614.0,10083.0 2566.0,10115.0 2553.0,10131.0 L 2529.0,10160.0 L 2501.0,10139.0 L 2474.0,10119.0 L 2278.0,10180.0 C 2171.0,10213.0 2079.0,10240.0 2074.0,10240.0 C 2069.0,10239.0 2049.0,10232.0 2030.0,10224.0" fill="pink"/>
</svg>
