<?xml version="1.0" ?>
<svg xmlns="http://www.w3.org/2000/svg" xmlns:ev="http://www.w3.org/2001/xml-events" xmlns:xlink="http://www.w3.org/1999/xlink" baseProfile="full" height="309px" version="1.1" viewBox="-1022.703688216256 1957.8829151802743 12291.23773698112 6322.2341696394515" width="600px">
	<defs/>
	<path d="M 3156.0,7715.0 C 3145.0,7696.0 3129.0,7680.0 3120.0,7680.0 C 3105.0,7680.0 3103.0,7673.0 3107.0,7636.0 C 3112.0,7597.0 3110.0,7591.0 3081.0,7571.0 C 3057.0,7553.0 3047.0,7551.0 3030.0,7560.0 C 3008.0,7572.0 2990.0,7566.0 2990.0,7546.0 C 2990.0,7539.0 2984.0,7526.0 2977.0,7516.0 C 2964.0,7499.0 2962.0,7499.0 2932.0,7514.0 C 2887.0,7537.0 2843.0,7534.0 2809.0,7506.0 C 2783.0,7484.0 2773.0,7482.0 2699.0,7486.0 C 2617.0,7489.0 2570.0,7475.0 2570.0,7446.0 C 2570.0,7439.0 2556.0,7408.0 2540.0,7378.0 C 2520.0,7341.0 2502.0,7320.0 2485.0,7316.0 C 2472.0,7313.0 2448.0,7291.0 2433.0,7267.0 C 2409.0,7233.0 2398.0,7225.0 2374.0,7226.0 C 2358.0,7226.0 2338.0,7230.0 2328.0,7234.0 C 2316.0,7240.0 2310.0,7235.0 2305.0,7212.0 C 2302.0,7196.0 2285.0,7170.0 2269.0,7154.0 C 2252.0,7138.0 2230.0,7109.0 2220.0,7089.0 C 2209.0,7069.0 2194.0,7050.0 2185.0,7047.0 C 2169.0,7040.0 2164.0,7014.0 2179.0,7008.0 C 2183.0,7007.0 2190.0,6996.0 2194.0,6985.0 C 2198.0,6970.0 2192.0,6961.0 2170.0,6948.0 C 2145.0,6934.0 2141.0,6926.0 2146.0,6905.0 C 2156.0,6865.0 2142.0,6812.0 2120.0,6805.0 C 2108.0,6801.0 2100.0,6790.0 2100.0,6777.0 C 2100.0,6749.0 2092.0,6738.0 2055.0,6720.0 C 2032.0,6708.0 2026.0,6698.0 2028.0,6678.0 C 2030.0,6659.0 2026.0,6651.0 2011.0,6647.0 C 1989.0,6642.0 1970.0,6604.0 1970.0,6565.0 C 1970.0,6547.0 1963.0,6539.0 1946.0,6534.0 C 1932.0,6531.0 1917.0,6516.0 1910.0,6500.0 C 1902.0,6480.0 1888.0,6469.0 1867.0,6464.0 C 1849.0,6461.0 1827.0,6450.0 1816.0,6441.0 C 1805.0,6431.0 1778.0,6424.0 1742.0,6423.0 C 1689.0,6422.0 1684.0,6420.0 1663.0,6386.0 C 1650.0,6367.0 1632.0,6346.0 1621.0,6341.0 C 1611.0,6335.0 1597.0,6317.0 1590.0,6300.0 C 1582.0,6282.0 1560.0,6259.0 1534.0,6244.0 C 1510.0,6230.0 1490.0,6212.0 1490.0,6204.0 C 1490.0,6196.0 1483.0,6190.0 1475.0,6190.0 C 1448.0,6190.0 1436.0,6140.0 1454.0,6102.0 C 1463.0,6084.0 1470.0,6061.0 1470.0,6052.0 C 1470.0,6028.0 1440.0,5996.0 1403.0,5981.0 C 1372.0,5968.0 1326.0,5891.0 1314.0,5832.0 C 1310.0,5811.0 1295.0,5793.0 1268.0,5775.0 C 1247.0,5761.0 1213.0,5724.0 1193.0,5692.0 C 1173.0,5661.0 1156.0,5633.0 1154.0,5632.0 C 1153.0,5630.0 1130.0,5633.0 1105.0,5638.0 C 1065.0,5647.0 1050.0,5645.0 997.0,5624.0 C 927.0,5597.0 896.0,5571.0 869.0,5518.0 C 854.0,5489.0 843.0,5480.0 825.0,5480.0 C 807.0,5480.0 794.0,5470.0 780.0,5448.0 C 769.0,5429.0 765.0,5413.0 770.0,5410.0 C 775.0,5407.0 760.0,5384.0 735.0,5360.0 C 687.0,5313.0 675.0,5265.0 705.0,5240.0 C 726.0,5223.0 724.0,5215.0 689.0,5175.0 C 668.0,5151.0 659.0,5133.0 663.0,5119.0 C 666.0,5108.0 660.0,5084.0 650.0,5067.0 C 635.0,5042.0 633.0,5027.0 639.0,4998.0 C 646.0,4966.0 645.0,4959.0 628.0,4948.0 C 608.0,4935.0 609.0,4933.0 648.0,4888.0 C 689.0,4840.0 706.0,4795.0 696.0,4762.0 C 689.0,4741.0 712.0,4716.0 748.0,4706.0 C 766.0,4700.0 770.0,4691.0 770.0,4660.0 C 770.0,4629.0 766.0,4620.0 748.0,4615.0 C 735.0,4611.0 712.0,4596.0 697.0,4582.0 L 669.0,4555.0 L 646.0,4585.0 C 633.0,4602.0 614.0,4626.0 603.0,4639.0 L 583.0,4663.0 L 537.0,4631.0 C 511.0,4613.0 490.0,4593.0 490.0,4585.0 C 490.0,4577.0 485.0,4548.0 479.0,4520.0 C 470.0,4476.0 463.0,4467.0 430.0,4450.0 C 408.0,4439.0 374.0,4430.0 353.0,4430.0 C 332.0,4430.0 297.0,4425.0 275.0,4419.0 C 228.0,4406.0 167.0,4363.0 176.0,4349.0 C 179.0,4343.0 174.0,4296.0 164.0,4244.0 L 146.0,4150.0 L 112.0,4150.0 C 93.0,4150.0 65.0,4141.0 49.0,4129.0 C 26.0,4113.0 20.0,4101.0 20.0,4070.0 C 20.0,4049.0 15.0,4028.0 8.0,4024.0 C -9.0,4013.0 78.0,3981.0 126.0,3981.0 C 157.0,3980.0 176.0,3972.0 206.0,3946.0 C 231.0,3925.0 267.0,3906.0 300.0,3898.0 L 353.0,3885.0 L 372.0,3816.0 C 388.0,3756.0 389.0,3735.0 380.0,3648.0 C 366.0,3504.0 367.0,3350.0 383.0,3350.0 C 389.0,3350.0 421.0,3382.0 453.0,3420.0 L 512.0,3490.0 L 557.0,3453.0 L 602.0,3416.0 L 596.0,3355.0 L 590.0,3295.0 L 644.0,3266.0 L 697.0,3237.0 L 752.0,3269.0 C 817.0,3306.0 826.0,3307.0 835.0,3280.0 C 839.0,3267.0 854.0,3257.0 871.0,3253.0 C 900.0,3248.0 901.0,3246.0 894.0,3204.0 L 888.0,3160.0 L 924.0,3175.0 C 956.0,3188.0 964.0,3189.0 995.0,3176.0 C 1026.0,3163.0 1030.0,3157.0 1030.0,3123.0 C 1030.0,3102.0 1037.0,3076.0 1045.0,3066.0 C 1053.0,3055.0 1060.0,3033.0 1060.0,3018.0 C 1060.0,3002.0 1066.0,2977.0 1074.0,2961.0 C 1089.0,2933.0 1164.0,2860.0 1178.0,2860.0 C 1183.0,2860.0 1208.0,2867.0 1234.0,2876.0 C 1272.0,2889.0 1290.0,2890.0 1316.0,2882.0 C 1341.0,2875.0 1363.0,2875.0 1401.0,2885.0 C 1430.0,2893.0 1473.0,2896.0 1505.0,2893.0 C 1549.0,2888.0 1561.0,2890.0 1566.0,2903.0 C 1569.0,2912.0 1607.0,2940.0 1650.0,2965.0 C 1714.0,3003.0 1732.0,3009.0 1747.0,3000.0 C 1761.0,2991.0 1778.0,2993.0 1820.0,3008.0 C 1915.0,3041.0 1930.0,3041.0 1930.0,3006.0 C 1930.0,2977.0 1947.0,2970.0 2030.0,2966.0 C 2102.0,2962.0 2130.0,2943.0 2130.0,2894.0 C 2130.0,2846.0 2162.0,2827.0 2215.0,2841.0 C 2237.0,2847.0 2259.0,2856.0 2264.0,2861.0 C 2270.0,2866.0 2313.0,2870.0 2361.0,2870.0 C 2442.0,2870.0 2449.0,2868.0 2464.0,2845.0 C 2482.0,2818.0 2548.0,2780.0 2578.0,2780.0 C 2588.0,2780.0 2602.0,2774.0 2608.0,2768.0 C 2615.0,2761.0 2643.0,2755.0 2671.0,2754.0 C 2729.0,2753.0 2744.0,2742.0 2735.0,2708.0 C 2729.0,2685.0 2688.0,2652.0 2665.0,2652.0 C 2652.0,2651.0 2635.0,2587.0 2643.0,2567.0 C 2647.0,2555.0 2658.0,2553.0 2683.0,2557.0 C 2703.0,2560.0 2720.0,2558.0 2724.0,2551.0 C 2735.0,2534.0 2767.0,2555.0 2785.0,2590.0 C 2798.0,2616.0 2804.0,2619.0 2821.0,2610.0 C 2832.0,2604.0 2849.0,2602.0 2860.0,2605.0 C 2870.0,2608.0 2881.0,2606.0 2885.0,2600.0 C 2888.0,2595.0 2900.0,2590.0 2911.0,2590.0 C 2922.0,2590.0 2934.0,2580.0 2939.0,2568.0 C 2947.0,2548.0 2949.0,2547.0 2955.0,2562.0 C 2962.0,2580.0 3026.0,2603.0 3042.0,2593.0 C 3048.0,2590.0 3050.0,2579.0 3047.0,2569.0 C 3044.0,2556.0 3053.0,2539.0 3072.0,2519.0 L 3103.0,2489.0 L 3160.0,2510.0 L 3218.0,2532.0 L 3295.0,2510.0 C 3373.0,2488.0 3392.0,2489.0 3371.0,2513.0 C 3355.0,2533.0 3372.0,2606.0 3391.0,2601.0 C 3484.0,2575.0 3519.0,2570.0 3621.0,2570.0 C 3698.0,2570.0 3749.0,2575.0 3771.0,2584.0 C 3793.0,2593.0 3829.0,2596.0 3884.0,2593.0 C 3969.0,2588.0 3991.0,2594.0 4346.0,2725.0 L 4386.0,2740.0 L 4376.0,2799.0 C 4364.0,2871.0 4382.0,2920.0 4444.0,2987.0 C 4479.0,3027.0 4487.0,3030.0 4532.0,3030.0 C 4559.0,3030.0 4610.0,3022.0 4645.0,3013.0 L 4709.0,2996.0 L 4779.0,3043.0 C 4833.0,3079.0 4850.0,3096.0 4850.0,3113.0 C 4850.0,3159.0 4869.0,3169.0 4970.0,3175.0 L 5065.0,3182.0 L 5259.0,3036.0 C 5388.0,2939.0 5467.0,2886.0 5494.0,2879.0 C 5697.0,2826.0 5713.0,2821.0 5740.0,2789.0 C 5765.0,2758.0 5767.0,2758.0 5803.0,2769.0 C 5838.0,2781.0 5843.0,2780.0 5882.0,2751.0 C 5929.0,2716.0 5954.0,2713.0 6007.0,2735.0 C 6058.0,2757.0 6681.0,2804.0 6692.0,2787.0 C 6697.0,2779.0 6713.0,2780.0 6753.0,2794.0 C 6805.0,2812.0 6808.0,2812.0 6901.0,2791.0 L 6995.0,2770.0 L 7067.0,2844.0 L 7139.0,2918.0 L 7188.0,2900.0 C 7228.0,2885.0 7264.0,2882.0 7406.0,2882.0 C 7592.0,2882.0 7643.0,2873.0 7700.0,2829.0 C 7753.0,2788.0 7856.0,2780.0 7928.0,2812.0 C 7972.0,2832.0 7988.0,2847.0 8028.0,2908.0 L 8076.0,2980.0 L 8152.0,2922.0 C 8202.0,2883.0 8247.0,2858.0 8288.0,2846.0 C 8348.0,2827.0 8349.0,2827.0 8500.0,2854.0 C 8616.0,2874.0 8659.0,2886.0 8688.0,2905.0 C 8732.0,2935.0 8735.0,2935.0 8824.0,2909.0 C 8934.0,2876.0 8993.0,2891.0 9195.0,3002.0 L 9355.0,3090.0 L 9404.0,3174.0 C 9453.0,3257.0 9454.0,3258.0 9504.0,3268.0 L 9555.0,3278.0 L 9657.0,3219.0 C 9714.0,3186.0 9781.0,3138.0 9808.0,3111.0 C 9853.0,3066.0 9860.0,3063.0 9925.0,3056.0 C 10018.0,3046.0 10057.0,3048.0 10083.0,3065.0 C 10095.0,3072.0 10124.0,3083.0 10148.0,3090.0 C 10186.0,3100.0 10190.0,3104.0 10190.0,3131.0 C 10190.0,3150.0 10200.0,3174.0 10215.0,3192.0 C 10239.0,3220.0 10240.0,3228.0 10240.0,3345.0 C 10240.0,3459.0 10238.0,3470.0 10220.0,3480.0 C 10206.0,3488.0 10200.0,3501.0 10200.0,3528.0 C 10200.0,3568.0 10179.0,3601.0 10143.0,3619.0 C 10125.0,3628.0 10122.0,3636.0 10126.0,3660.0 C 10134.0,3697.0 10095.0,3736.0 10040.0,3745.0 C 10002.0,3751.0 10001.0,3753.0 9990.0,3808.0 C 9983.0,3839.0 9972.0,3880.0 9964.0,3898.0 C 9946.0,3940.0 9946.0,3969.0 9965.0,3976.0 C 9988.0,3985.0 9994.0,4044.0 9976.0,4096.0 L 9960.0,4142.0 L 9995.0,4177.0 C 10014.0,4196.0 10030.0,4219.0 10030.0,4227.0 C 10030.0,4235.0 10039.0,4254.0 10049.0,4269.0 C 10082.0,4314.0 10084.0,4342.0 10058.0,4380.0 C 10042.0,4403.0 10025.0,4416.0 10007.0,4418.0 C 9983.0,4421.0 9980.0,4425.0 9986.0,4443.0 C 9990.0,4455.0 9998.0,4468.0 10004.0,4472.0 C 10027.0,4487.0 10083.0,4493.0 10101.0,4481.0 C 10128.0,4465.0 10219.0,4467.0 10226.0,4484.0 C 10239.0,4518.0 10169.0,4590.0 10122.0,4590.0 C 10106.0,4590.0 10040.0,4682.0 10040.0,4704.0 C 10040.0,4715.0 10028.0,4737.0 10013.0,4752.0 L 9985.0,4781.0 L 10007.0,4839.0 L 10028.0,4898.0 L 10004.0,4926.0 C 9991.0,4942.0 9981.0,4969.0 9980.0,4985.0 C 9980.0,5006.0 9971.0,5022.0 9949.0,5040.0 C 9926.0,5059.0 9917.0,5076.0 9913.0,5110.0 C 9910.0,5135.0 9903.0,5163.0 9898.0,5173.0 C 9885.0,5199.0 9851.0,5194.0 9821.0,5161.0 C 9799.0,5138.0 9783.0,5131.0 9731.0,5125.0 C 9674.0,5119.0 9667.0,5120.0 9648.0,5140.0 C 9630.0,5159.0 9620.0,5161.0 9582.0,5156.0 C 9554.0,5152.0 9532.0,5154.0 9523.0,5161.0 C 9513.0,5170.0 9503.0,5170.0 9485.0,5162.0 C 9464.0,5152.0 9459.0,5154.0 9449.0,5171.0 C 9443.0,5182.0 9433.0,5189.0 9425.0,5187.0 C 9418.0,5184.0 9407.0,5187.0 9400.0,5193.0 C 9391.0,5202.0 9383.0,5198.0 9365.0,5176.0 C 9348.0,5155.0 9335.0,5148.0 9314.0,5150.0 C 9256.0,5154.0 9206.0,5150.0 9196.0,5140.0 C 9181.0,5125.0 9150.0,5128.0 9144.0,5144.0 C 9137.0,5163.0 9110.0,5173.0 9096.0,5162.0 C 9049.0,5125.0 8960.0,5132.0 8980.0,5171.0 C 8994.0,5197.0 8992.0,5210.0 8973.0,5217.0 C 8963.0,5221.0 8948.0,5233.0 8938.0,5244.0 C 8923.0,5264.0 8921.0,5264.0 8903.0,5247.0 C 8892.0,5238.0 8879.0,5230.0 8874.0,5230.0 C 8868.0,5230.0 8849.0,5219.0 8830.0,5205.0 C 8792.0,5177.0 8770.0,5185.0 8770.0,5227.0 C 8770.0,5243.0 8760.0,5257.0 8736.0,5271.0 C 8713.0,5284.0 8697.0,5305.0 8685.0,5335.0 C 8674.0,5365.0 8662.0,5380.0 8651.0,5380.0 C 8629.0,5380.0 8590.0,5421.0 8590.0,5444.0 C 8590.0,5454.0 8579.0,5475.0 8565.0,5492.0 C 8535.0,5527.0 8534.0,5537.0 8560.0,5570.0 C 8586.0,5603.0 8585.0,5609.0 8554.0,5641.0 C 8531.0,5666.0 8528.0,5674.0 8534.0,5714.0 C 8539.0,5747.0 8549.0,5766.0 8571.0,5785.0 C 8588.0,5799.0 8605.0,5810.0 8609.0,5810.0 C 8613.0,5810.0 8624.0,5826.0 8633.0,5845.0 C 8643.0,5865.0 8657.0,5880.0 8667.0,5880.0 C 8711.0,5881.0 8740.0,5947.0 8740.0,6049.0 C 8740.0,6069.0 8747.0,6095.0 8755.0,6108.0 C 8769.0,6127.0 8769.0,6132.0 8755.0,6159.0 C 8747.0,6176.0 8740.0,6200.0 8740.0,6213.0 C 8740.0,6257.0 8713.0,6305.0 8676.0,6325.0 C 8651.0,6339.0 8638.0,6341.0 8628.0,6333.0 C 8621.0,6327.0 8596.0,6319.0 8573.0,6315.0 L 8532.0,6309.0 L 8511.0,6365.0 C 8484.0,6436.0 8485.0,6442.0 8516.0,6434.0 C 8536.0,6429.0 8542.0,6432.0 8547.0,6449.0 C 8553.0,6472.0 8570.0,6476.0 8588.0,6458.0 C 8596.0,6450.0 8603.0,6450.0 8614.0,6459.0 C 8622.0,6466.0 8634.0,6469.0 8640.0,6465.0 C 8645.0,6462.0 8660.0,6462.0 8671.0,6465.0 C 8699.0,6474.0 8690.0,6509.0 8643.0,6573.0 C 8605.0,6624.0 8593.0,6628.0 8524.0,6605.0 C 8507.0,6600.0 8499.0,6605.0 8482.0,6634.0 C 8470.0,6654.0 8455.0,6670.0 8448.0,6670.0 C 8441.0,6670.0 8408.0,6684.0 8375.0,6700.0 C 8342.0,6716.0 8310.0,6730.0 8304.0,6730.0 C 8281.0,6730.0 8268.0,6757.0 8281.0,6778.0 C 8298.0,6805.0 8284.0,6848.0 8255.0,6862.0 C 8241.0,6868.0 8230.0,6879.0 8230.0,6886.0 C 8230.0,6892.0 8224.0,6900.0 8216.0,6903.0 C 8208.0,6906.0 8200.0,6918.0 8198.0,6930.0 C 8196.0,6946.0 8179.0,6958.0 8137.0,6975.0 C 8105.0,6988.0 8072.0,6996.0 8064.0,6993.0 C 8056.0,6990.0 8042.0,6994.0 8032.0,7003.0 C 8023.0,7011.0 7992.0,7026.0 7963.0,7035.0 C 7935.0,7044.0 7902.0,7063.0 7889.0,7076.0 C 7877.0,7089.0 7861.0,7100.0 7855.0,7100.0 C 7848.0,7100.0 7821.0,7109.0 7795.0,7121.0 C 7757.0,7138.0 7737.0,7140.0 7690.0,7135.0 C 7637.0,7129.0 7631.0,7130.0 7613.0,7154.0 C 7596.0,7175.0 7590.0,7177.0 7581.0,7166.0 C 7574.0,7158.0 7558.0,7149.0 7545.0,7146.0 C 7523.0,7140.0 7520.0,7134.0 7520.0,7095.0 C 7520.0,7060.0 7514.0,7044.0 7491.0,7017.0 C 7471.0,6995.0 7460.0,6971.0 7458.0,6945.0 C 7454.0,6895.0 7420.0,6878.0 7374.0,6903.0 C 7305.0,6941.0 7300.0,6941.0 7272.0,6919.0 C 7249.0,6902.0 7237.0,6899.0 7190.0,6905.0 C 7160.0,6908.0 7114.0,6916.0 7088.0,6922.0 C 7046.0,6932.0 7038.0,6931.0 7021.0,6916.0 C 6997.0,6894.0 6970.0,6901.0 6970.0,6929.0 C 6970.0,6942.0 6961.0,6950.0 6940.0,6955.0 C 6923.0,6959.0 6905.0,6970.0 6900.0,6980.0 C 6892.0,6995.0 6883.0,6998.0 6852.0,6993.0 C 6797.0,6984.0 6770.0,6972.0 6770.0,6956.0 C 6770.0,6938.0 6733.0,6928.0 6726.0,6945.0 C 6723.0,6953.0 6711.0,6960.0 6698.0,6962.0 C 6682.0,6964.0 6674.0,6973.0 6672.0,6990.0 C 6667.0,7022.0 6642.0,7050.0 6619.0,7050.0 C 6609.0,7050.0 6598.0,7055.0 6595.0,7060.0 C 6585.0,7076.0 6569.0,7060.0 6575.0,7040.0 C 6579.0,7027.0 6573.0,7021.0 6549.0,7016.0 C 6532.0,7013.0 6508.0,7010.0 6496.0,7011.0 C 6477.0,7011.0 6477.0,7012.0 6492.0,7023.0 C 6507.0,7033.0 6501.0,7039.0 6447.0,7067.0 C 6385.0,7100.0 6360.0,7107.0 6360.0,7091.0 C 6360.0,7069.0 6174.0,7059.0 6110.0,7078.0 C 5950.0,7126.0 5955.0,7125.0 5911.0,7105.0 C 5876.0,7090.0 5864.0,7089.0 5830.0,7099.0 C 5802.0,7107.0 5784.0,7108.0 5771.0,7100.0 C 5760.0,7095.0 5680.0,7089.0 5593.0,7087.0 C 5445.0,7085.0 5431.0,7087.0 5377.0,7110.0 C 5338.0,7126.0 5315.0,7131.0 5306.0,7125.0 C 5255.0,7087.0 5238.0,7078.0 5205.0,7073.0 C 5173.0,7068.0 5166.0,7071.0 5142.0,7098.0 C 5109.0,7136.0 5013.0,7160.0 4994.0,7134.0 C 4988.0,7126.0 4968.0,7120.0 4949.0,7120.0 C 4917.0,7120.0 4914.0,7123.0 4891.0,7181.0 C 4878.0,7214.0 4862.0,7244.0 4854.0,7247.0 C 4846.0,7250.0 4840.0,7258.0 4840.0,7264.0 C 4840.0,7284.0 4787.0,7328.0 4755.0,7336.0 C 4717.0,7344.0 4690.0,7368.0 4690.0,7391.0 C 4690.0,7428.0 4678.0,7440.0 4641.0,7440.0 C 4614.0,7440.0 4597.0,7433.0 4580.0,7415.0 C 4553.0,7386.0 4533.0,7384.0 4460.0,7406.0 C 4401.0,7424.0 4350.0,7457.0 4356.0,7474.0 C 4364.0,7499.0 4312.0,7533.0 4224.0,7560.0 C 4163.0,7578.0 4144.0,7572.0 4148.0,7532.0 C 4150.0,7514.0 4146.0,7492.0 4139.0,7484.0 C 4129.0,7472.0 4131.0,7464.0 4148.0,7440.0 C 4160.0,7424.0 4170.0,7404.0 4170.0,7397.0 C 4170.0,7376.0 4129.0,7368.0 4105.0,7385.0 C 4094.0,7393.0 4076.0,7406.0 4065.0,7414.0 C 4054.0,7422.0 4024.0,7432.0 3998.0,7435.0 C 3955.0,7442.0 3950.0,7440.0 3950.0,7423.0 C 3950.0,7370.0 3876.0,7380.0 3862.0,7435.0 C 3856.0,7455.0 3843.0,7470.0 3820.0,7481.0 C 3802.0,7490.0 3782.0,7504.0 3776.0,7512.0 C 3743.0,7556.0 3671.0,7558.0 3652.0,7515.0 C 3636.0,7481.0 3620.0,7484.0 3620.0,7520.0 C 3620.0,7548.0 3617.0,7550.0 3585.0,7550.0 C 3565.0,7550.0 3539.0,7543.0 3526.0,7535.0 C 3504.0,7520.0 3501.0,7521.0 3469.0,7559.0 C 3450.0,7580.0 3422.0,7616.0 3407.0,7639.0 C 3378.0,7682.0 3362.0,7688.0 3332.0,7669.0 C 3317.0,7659.0 3309.0,7662.0 3287.0,7684.0 C 3273.0,7698.0 3251.0,7710.0 3239.0,7710.0 C 3226.0,7710.0 3207.0,7719.0 3195.0,7730.0 L 3174.0,7749.0 L 3156.0,7715.0" fill="pink"/>
</svg>
