<?xml version="1.0" ?>
<svg xmlns="http://www.w3.org/2000/svg" xmlns:ev="http://www.w3.org/2001/xml-events" xmlns:xlink="http://www.w3.org/1999/xlink" baseProfile="full" height="600px" version="1.1" viewBox="-1019.3164360274372 -1025.8237701842752 12276.632872054874 12289.679337904261" width="600px">
	<defs/>
	<path d="M 5850.0,10230.0 C 5825.0,10226.0 5736.0,10214.0 5652.0,10205.0 C 5539.0,10192.0 5483.0,10181.0 5437.0,10162.0 C 5379.0,10138.0 5362.0,10136.0 5170.0,10132.0 L 4965.0,10128.0 L 4776.0,10006.0 L 4588.0,9885.0 L 4547.0,9785.0 C 4525.0,9730.0 4503.0,9680.0 4498.0,9673.0 C 4493.0,9667.0 4457.0,9643.0 4417.0,9620.0 C 4377.0,9596.0 4317.0,9551.0 4284.0,9518.0 C 4228.0,9463.0 4220.0,9459.0 4191.0,9465.0 C 4138.0,9477.0 4130.0,9492.0 4130.0,9589.0 L 4130.0,9677.0 L 4050.0,9821.0 C 4006.0,9900.0 3970.0,9976.0 3970.0,9990.0 C 3970.0,10047.0 3957.0,10090.0 3941.0,10090.0 C 3932.0,10090.0 3466.0,9995.0 2905.0,9879.0 L 1885.0,9669.0 L 1617.0,9680.0 C 1469.0,9686.0 1346.0,9689.0 1343.0,9687.0 C 1341.0,9684.0 1297.0,8756.0 1247.0,7624.0 L 1155.0,5567.0 L 634.0,5574.0 L 112.0,5582.0 L 106.0,5518.0 C 103.0,5484.0 80.0,4776.0 54.0,3947.0 L 8.0,2439.0 L 29.0,2388.0 C 40.0,2360.0 50.0,2317.0 50.0,2293.0 L 50.0,2249.0 L 115.0,2220.0 C 151.0,2204.0 217.0,2161.0 262.0,2124.0 L 345.0,2058.0 L 386.0,1941.0 C 408.0,1877.0 443.0,1790.0 462.0,1746.0 C 495.0,1674.0 502.0,1665.0 550.0,1639.0 C 580.0,1623.0 605.0,1608.0 607.0,1606.0 C 610.0,1604.0 606.0,1584.0 600.0,1562.0 C 590.0,1523.0 592.0,1518.0 630.0,1458.0 C 666.0,1402.0 670.0,1388.0 670.0,1332.0 L 670.0,1269.0 L 730.0,1212.0 C 763.0,1180.0 790.0,1149.0 790.0,1143.0 C 790.0,1137.0 799.0,1110.0 811.0,1083.0 C 834.0,1032.0 834.0,1049.0 804.0,793.0 C 799.0,750.0 717.0,626.0 612.0,502.0 L 567.0,448.0 L 580.0,332.0 C 587.0,267.0 602.0,172.0 614.0,120.0 C 633.0,34.0 638.0,24.0 665.0,11.0 C 693.0,-3.0 695.0,-2.0 726.0,33.0 C 756.0,69.0 759.0,70.0 826.0,70.0 C 883.0,69.0 905.0,64.0 950.0,40.0 C 1013.0,6.0 1047.0,3.0 1134.0,26.0 C 1184.0,40.0 1217.0,41.0 1320.0,34.0 C 1485.0,22.0 1604.0,24.0 1667.0,39.0 C 1715.0,51.0 1720.0,55.0 1738.0,98.0 C 1749.0,124.0 1761.0,155.0 1764.0,167.0 C 1768.0,179.0 1779.0,191.0 1788.0,194.0 C 1797.0,197.0 1848.0,211.0 1900.0,225.0 C 1952.0,239.0 2002.0,253.0 2011.0,256.0 C 2019.0,258.0 2053.0,296.0 2085.0,339.0 C 2138.0,412.0 2154.0,426.0 2264.0,494.0 C 2331.0,535.0 2411.0,580.0 2442.0,594.0 C 2472.0,608.0 2520.0,633.0 2548.0,650.0 C 2638.0,705.0 2773.0,914.0 2786.0,1018.0 C 2790.0,1047.0 2809.0,1094.0 2836.0,1141.0 C 2871.0,1202.0 2882.0,1233.0 2891.0,1297.0 C 2902.0,1375.0 2904.0,1378.0 2947.0,1411.0 C 2979.0,1436.0 3003.0,1468.0 3035.0,1531.0 C 3076.0,1613.0 3081.0,1618.0 3117.0,1623.0 C 3138.0,1627.0 3171.0,1630.0 3190.0,1630.0 C 3210.0,1630.0 3286.0,1650.0 3360.0,1675.0 C 3435.0,1700.0 3524.0,1723.0 3561.0,1726.0 L 3627.0,1733.0 L 3641.0,1644.0 L 3655.0,1556.0 L 3782.0,1520.0 C 3944.0,1474.0 3993.0,1444.0 4040.0,1363.0 C 4059.0,1329.0 4078.0,1299.0 4080.0,1296.0 C 4083.0,1294.0 4114.0,1298.0 4150.0,1305.0 C 4186.0,1313.0 4246.0,1319.0 4285.0,1320.0 L 4355.0,1320.0 L 4426.0,1249.0 C 4495.0,1181.0 4499.0,1178.0 4561.0,1170.0 C 4596.0,1165.0 4670.0,1148.0 4726.0,1131.0 C 4865.0,1089.0 4975.0,1079.0 5060.0,1103.0 C 5120.0,1120.0 5141.0,1120.0 5330.0,1110.0 L 5535.0,1098.0 L 5681.0,1150.0 L 5828.0,1201.0 L 5915.0,1404.0 C 5962.0,1516.0 6046.0,1689.0 6101.0,1790.0 L 6200.0,1974.0 L 6200.0,2052.0 L 6200.0,2130.0 L 6261.0,2130.0 C 6295.0,2130.0 6390.0,2141.0 6474.0,2155.0 L 6625.0,2181.0 L 6698.0,2253.0 C 6739.0,2293.0 6809.0,2377.0 6854.0,2440.0 C 6959.0,2588.0 7048.0,2660.0 7154.0,2686.0 C 7193.0,2695.0 7230.0,2708.0 7236.0,2714.0 C 7242.0,2720.0 7254.0,2754.0 7263.0,2790.0 C 7272.0,2826.0 7315.0,2961.0 7357.0,3090.0 L 7435.0,3325.0 L 7535.0,3426.0 C 7630.0,3522.0 7637.0,3527.0 7687.0,3534.0 C 7736.0,3540.0 7740.0,3543.0 7776.0,3599.0 L 7814.0,3657.0 L 7894.0,3664.0 C 7939.0,3668.0 7992.0,3675.0 8013.0,3680.0 C 8033.0,3686.0 8067.0,3695.0 8089.0,3700.0 L 8128.0,3710.0 L 8132.0,3771.0 C 8136.0,3824.0 8141.0,3835.0 8172.0,3867.0 L 8207.0,3902.0 L 8252.0,3882.0 L 8297.0,3863.0 L 8381.0,3925.0 C 8448.0,3974.0 8472.0,3999.0 8500.0,4049.0 C 8528.0,4099.0 8561.0,4132.0 8671.0,4224.0 C 8746.0,4287.0 8840.0,4376.0 8881.0,4422.0 C 8921.0,4467.0 8961.0,4506.0 8969.0,4508.0 C 8978.0,4509.0 9032.0,4504.0 9089.0,4497.0 L 9194.0,4483.0 L 9434.0,4606.0 L 9675.0,4729.0 L 9727.0,4817.0 L 9779.0,4905.0 L 9856.0,4935.0 C 9899.0,4952.0 9954.0,4982.0 9979.0,5002.0 C 10024.0,5039.0 10025.0,5040.0 10091.0,5034.0 C 10132.0,5030.0 10171.0,5032.0 10194.0,5040.0 L 10230.0,5052.0 L 10203.0,5085.0 C 10180.0,5113.0 10163.0,5121.0 10099.0,5136.0 L 10023.0,5153.0 L 9985.0,5229.0 C 9964.0,5271.0 9937.0,5345.0 9924.0,5394.0 C 9901.0,5484.0 9892.0,5497.0 9825.0,5545.0 C 9789.0,5570.0 9483.0,5640.0 9406.0,5640.0 C 9367.0,5640.0 9301.0,5649.0 9260.0,5660.0 C 9198.0,5677.0 8988.0,5710.0 8944.0,5710.0 C 8937.0,5710.0 8916.0,5731.0 8897.0,5758.0 C 8869.0,5796.0 8861.0,5818.0 8855.0,5872.0 L 8848.0,5940.0 L 8721.0,6086.0 C 8551.0,6283.0 8564.0,6261.0 8578.0,6329.0 C 8585.0,6360.0 8590.0,6415.0 8590.0,6451.0 C 8590.0,6486.0 8599.0,6544.0 8610.0,6580.0 C 8633.0,6654.0 8638.0,6850.0 8619.0,6924.0 L 8608.0,6967.0 L 8477.0,6978.0 C 8404.0,6985.0 8308.0,6990.0 8264.0,6990.0 L 8182.0,6990.0 L 8175.0,7147.0 L 8167.0,7304.0 L 8113.0,7410.0 C 8084.0,7468.0 8054.0,7523.0 8047.0,7532.0 C 8037.0,7544.0 7982.0,7557.0 7839.0,7581.0 C 7590.0,7622.0 7556.0,7638.0 7523.0,7726.0 L 7499.0,7787.0 L 7429.0,7811.0 C 7368.0,7831.0 7353.0,7841.0 7328.0,7878.0 C 7308.0,7907.0 7292.0,7920.0 7276.0,7920.0 C 7263.0,7920.0 7238.0,7923.0 7221.0,7926.0 C 7192.0,7932.0 7190.0,7935.0 7190.0,7976.0 C 7190.0,8019.0 7189.0,8020.0 7158.0,8020.0 C 7133.0,8020.0 7113.0,8031.0 7074.0,8068.0 L 7022.0,8115.0 L 6982.0,8287.0 C 6943.0,8452.0 6940.0,8461.0 6892.0,8524.0 L 6842.0,8590.0 L 6854.0,8638.0 C 6865.0,8679.0 6864.0,8694.0 6847.0,8750.0 C 6830.0,8808.0 6819.0,8823.0 6755.0,8885.0 C 6668.0,8969.0 6656.0,9003.0 6691.0,9071.0 C 6716.0,9122.0 6723.0,9114.0 6583.0,9193.0 L 6491.0,9245.0 L 6430.0,9412.0 C 6397.0,9503.0 6365.0,9603.0 6359.0,9634.0 C 6348.0,9687.0 6344.0,9692.0 6285.0,9732.0 C 6249.0,9757.0 6207.0,9797.0 6186.0,9827.0 C 6150.0,9878.0 6150.0,9879.0 6150.0,9985.0 L 6150.0,10092.0 L 6104.0,10151.0 C 6070.0,10193.0 6047.0,10213.0 6021.0,10220.0 C 5968.0,10236.0 5901.0,10240.0 5850.0,10230.0" fill="pink"/>
</svg>
