<?xml version="1.0" ?>
<svg xmlns="http://www.w3.org/2000/svg" xmlns:ev="http://www.w3.org/2001/xml-events" xmlns:xlink="http://www.w3.org/1999/xlink" baseProfile="full" height="513px" version="1.1" viewBox="-1023.1275830136791 -138.2145747089346 12291.700342752776 10508.158879147599" width="600px">
	<defs/>
	<path d="M 5330.0,9450.0 C 5293.0,9418.0 5277.0,9411.0 5243.0,9410.0 C 5196.0,9410.0 5197.0,9411.0 5182.0,9321.0 C 5174.0,9273.0 5178.0,9276.0 5088.0,9256.0 C 5067.0,9251.0 5057.0,9238.0 5038.0,9190.0 C 5021.0,9145.0 5006.0,9123.0 4978.0,9105.0 C 4947.0,9084.0 4940.0,9072.0 4930.0,9024.0 C 4923.0,8993.0 4920.0,8930.0 4922.0,8884.0 L 4925.0,8800.0 L 4841.0,8800.0 C 4782.0,8800.0 4736.0,8806.0 4689.0,8822.0 L 4622.0,8843.0 L 4591.0,8821.0 L 4559.0,8798.0 L 4505.0,8834.0 C 4435.0,8880.0 4367.0,8883.0 4281.0,8845.0 C 4227.0,8820.0 4224.0,8817.0 4196.0,8746.0 L 4166.0,8673.0 L 4111.0,8655.0 C 4080.0,8645.0 4025.0,8635.0 3988.0,8632.0 C 3924.0,8628.0 3919.0,8626.0 3900.0,8593.0 C 3885.0,8568.0 3880.0,8541.0 3880.0,8492.0 L 3880.0,8425.0 L 3835.0,8397.0 C 3810.0,8381.0 3790.0,8364.0 3790.0,8359.0 C 3790.0,8353.0 3799.0,8331.0 3811.0,8309.0 L 3831.0,8268.0 L 3786.0,8220.0 C 3759.0,8191.0 3740.0,8161.0 3740.0,8148.0 C 3740.0,8135.0 3726.0,8105.0 3710.0,8080.0 C 3694.0,8055.0 3680.0,8030.0 3680.0,8024.0 C 3680.0,8019.0 3696.0,7999.0 3715.0,7980.0 L 3750.0,7946.0 L 3820.0,7958.0 C 3868.0,7966.0 3904.0,7967.0 3937.0,7960.0 C 3964.0,7955.0 3998.0,7949.0 4014.0,7948.0 C 4037.0,7946.0 4046.0,7938.0 4055.0,7909.0 C 4067.0,7875.0 4067.0,7873.0 4031.0,7843.0 C 4011.0,7826.0 3971.0,7798.0 3944.0,7781.0 C 3898.0,7753.0 3892.0,7745.0 3880.0,7696.0 C 3873.0,7666.0 3864.0,7636.0 3860.0,7630.0 C 3855.0,7622.0 3826.0,7627.0 3754.0,7649.0 C 3619.0,7691.0 3584.0,7690.0 3538.0,7643.0 C 3506.0,7610.0 3499.0,7593.0 3483.0,7518.0 L 3466.0,7431.0 L 3365.0,7391.0 C 3310.0,7369.0 3245.0,7346.0 3220.0,7340.0 C 3195.0,7333.0 3136.0,7308.0 3088.0,7283.0 L 3000.0,7238.0 L 3000.0,7161.0 C 3000.0,7088.0 2998.0,7082.0 2970.0,7055.0 C 2953.0,7039.0 2934.0,7005.0 2926.0,6977.0 C 2912.0,6931.0 2913.0,6917.0 2932.0,6815.0 L 2953.0,6702.0 L 2921.0,6649.0 C 2903.0,6619.0 2876.0,6583.0 2863.0,6568.0 C 2841.0,6545.0 2838.0,6535.0 2844.0,6501.0 L 2850.0,6461.0 L 2775.0,6404.0 C 2714.0,6358.0 2701.0,6344.0 2705.0,6326.0 C 2708.0,6315.0 2714.0,6285.0 2718.0,6260.0 C 2725.0,6217.0 2727.0,6215.0 2762.0,6212.0 C 2789.0,6210.0 2810.0,6216.0 2837.0,6234.0 L 2874.0,6260.0 L 2917.0,6192.0 C 2941.0,6155.0 2962.0,6116.0 2966.0,6105.0 C 2969.0,6093.0 2964.0,6051.0 2956.0,6010.0 C 2947.0,5969.0 2940.0,5932.0 2940.0,5928.0 C 2940.0,5924.0 2925.0,5918.0 2906.0,5915.0 C 2863.0,5906.0 2685.0,5941.0 2686.0,5958.0 C 2687.0,5965.0 2688.0,5985.0 2689.0,6004.0 C 2690.0,6031.0 2695.0,6040.0 2716.0,6047.0 L 2742.0,6056.0 L 2706.0,6099.0 C 2686.0,6123.0 2661.0,6153.0 2651.0,6167.0 L 2632.0,6191.0 L 2565.0,6154.0 C 2500.0,6118.0 2498.0,6118.0 2443.0,6129.0 C 2412.0,6135.0 2383.0,6140.0 2379.0,6140.0 C 2375.0,6140.0 2369.0,6121.0 2365.0,6098.0 C 2355.0,6034.0 2298.0,5954.0 2246.0,5928.0 L 2202.0,5907.0 L 2172.0,5932.0 C 2156.0,5946.0 2122.0,5963.0 2097.0,5970.0 C 2053.0,5982.0 2048.0,5981.0 1998.0,5952.0 L 1945.0,5923.0 L 1945.0,5854.0 C 1946.0,5816.0 1949.0,5762.0 1954.0,5735.0 L 1962.0,5684.0 L 1922.0,5656.0 L 1881.0,5628.0 L 1825.0,5658.0 L 1769.0,5689.0 L 1702.0,5657.0 C 1665.0,5640.0 1596.0,5595.0 1548.0,5558.0 C 1474.0,5500.0 1456.0,5490.0 1422.0,5490.0 L 1381.0,5490.0 L 1375.0,5538.0 C 1372.0,5564.0 1368.0,5592.0 1367.0,5600.0 C 1366.0,5608.0 1346.0,5628.0 1322.0,5644.0 L 1280.0,5674.0 L 1236.0,5631.0 L 1193.0,5589.0 L 1107.0,5607.0 C 1030.0,5622.0 1016.0,5623.0 973.0,5610.0 C 897.0,5587.0 724.0,5596.0 642.0,5626.0 L 577.0,5651.0 L 583.0,5533.0 C 587.0,5468.0 597.0,5386.0 605.0,5350.0 C 613.0,5314.0 627.0,5211.0 635.0,5122.0 C 649.0,4973.0 656.0,4940.0 711.0,4757.0 C 745.0,4646.0 789.0,4519.0 810.0,4475.0 C 830.0,4431.0 854.0,4356.0 864.0,4309.0 L 882.0,4224.0 L 858.0,4175.0 L 833.0,4126.0 L 856.0,4071.0 C 890.0,3986.0 892.0,3964.0 881.0,3698.0 L 872.0,3450.0 L 836.0,3402.0 C 805.0,3359.0 791.0,3349.0 718.0,3322.0 C 661.0,3300.0 609.0,3289.0 549.0,3284.0 L 464.0,3278.0 L 370.0,3201.0 C 283.0,3131.0 265.0,3109.0 153.0,2945.0 C 86.0,2846.0 24.0,2755.0 15.0,2743.0 C 0.0,2723.0 1.0,2719.0 30.0,2672.0 C 55.0,2631.0 66.0,2622.0 98.0,2616.0 C 118.0,2613.0 173.0,2588.0 220.0,2562.0 C 290.0,2523.0 311.0,2505.0 339.0,2462.0 C 357.0,2434.0 380.0,2410.0 389.0,2410.0 C 398.0,2410.0 422.0,2393.0 442.0,2373.0 C 473.0,2341.0 481.0,2323.0 490.0,2267.0 C 502.0,2200.0 502.0,2198.0 471.0,2141.0 C 453.0,2107.0 440.0,2067.0 440.0,2047.0 C 440.0,2027.0 435.0,1989.0 428.0,1961.0 C 418.0,1917.0 419.0,1905.0 433.0,1874.0 L 450.0,1839.0 L 397.0,1815.0 L 343.0,1792.0 L 330.0,1708.0 C 322.0,1663.0 316.0,1603.0 316.0,1575.0 C 316.0,1516.0 335.0,1361.0 344.0,1353.0 C 347.0,1349.0 368.0,1352.0 391.0,1359.0 C 430.0,1371.0 432.0,1373.0 426.0,1403.0 C 423.0,1421.0 418.0,1454.0 414.0,1476.0 L 408.0,1518.0 L 459.0,1529.0 C 567.0,1552.0 692.0,1532.0 705.0,1489.0 C 711.0,1471.0 764.0,1450.0 803.0,1450.0 C 813.0,1450.0 848.0,1468.0 880.0,1490.0 C 913.0,1512.0 979.0,1552.0 1027.0,1578.0 C 1113.0,1624.0 1115.0,1627.0 1133.0,1678.0 C 1142.0,1708.0 1155.0,1764.0 1161.0,1804.0 L 1172.0,1876.0 L 1248.0,1905.0 C 1342.0,1941.0 1468.0,1952.0 1618.0,1938.0 C 1770.0,1924.0 1961.0,1948.0 2030.0,1991.0 C 2063.0,2011.0 2098.0,2023.0 2135.0,2027.0 C 2185.0,2032.0 2199.0,2029.0 2268.0,1997.0 L 2345.0,1960.0 L 2533.0,1954.0 C 2670.0,1949.0 2730.0,1950.0 2758.0,1959.0 C 2792.0,1970.0 2803.0,1969.0 2879.0,1940.0 C 2957.0,1912.0 2969.0,1910.0 3049.0,1916.0 L 3135.0,1922.0 L 3193.0,1871.0 L 3251.0,1820.0 L 3371.0,1820.0 L 3490.0,1820.0 L 3512.0,1775.0 L 3534.0,1730.0 L 3642.0,1730.0 L 3750.0,1730.0 L 3902.0,1669.0 C 4026.0,1620.0 4061.0,1610.0 4090.0,1615.0 C 4109.0,1618.0 4166.0,1623.0 4215.0,1626.0 C 4294.0,1630.0 4308.0,1628.0 4328.0,1611.0 C 4351.0,1591.0 4351.0,1590.0 4335.0,1532.0 C 4314.0,1447.0 4315.0,1443.0 4358.0,1436.0 C 4456.0,1419.0 4449.0,1426.0 4443.0,1359.0 L 4437.0,1300.0 L 4499.0,1300.0 C 4546.0,1300.0 4572.0,1306.0 4603.0,1324.0 C 4659.0,1355.0 4705.0,1363.0 4720.0,1345.0 C 4727.0,1337.0 4745.0,1330.0 4760.0,1330.0 C 4882.0,1330.0 4916.0,1303.0 4886.0,1230.0 C 4877.0,1208.0 4870.0,1174.0 4870.0,1156.0 C 4870.0,1124.0 4873.0,1122.0 4917.0,1111.0 C 4959.0,1100.0 4965.0,1101.0 4983.0,1119.0 C 5002.0,1137.0 5002.0,1144.0 4992.0,1208.0 C 4982.0,1268.0 4983.0,1284.0 4998.0,1329.0 L 5015.0,1381.0 L 5075.0,1339.0 C 5108.0,1316.0 5147.0,1283.0 5162.0,1266.0 L 5188.0,1235.0 L 5275.0,1278.0 C 5337.0,1308.0 5366.0,1329.0 5378.0,1351.0 C 5406.0,1401.0 5413.0,1407.0 5453.0,1413.0 C 5489.0,1419.0 5490.0,1418.0 5490.0,1386.0 C 5490.0,1363.0 5499.0,1345.0 5524.0,1321.0 C 5545.0,1301.0 5562.0,1271.0 5569.0,1244.0 C 5575.0,1220.0 5583.0,1200.0 5586.0,1200.0 C 5600.0,1200.0 5667.0,1240.0 5684.0,1259.0 C 5703.0,1280.0 5742.0,1285.0 5786.0,1272.0 C 5815.0,1262.0 5936.0,1118.0 5950.0,1075.0 C 5961.0,1040.0 5997.0,1014.0 6058.0,996.0 C 6079.0,989.0 6080.0,991.0 6080.0,1041.0 C 6080.0,1069.0 6090.0,1120.0 6102.0,1152.0 C 6121.0,1205.0 6128.0,1214.0 6171.0,1236.0 C 6201.0,1251.0 6236.0,1260.0 6264.0,1260.0 C 6307.0,1260.0 6311.0,1262.0 6329.0,1299.0 C 6359.0,1358.0 6403.0,1390.0 6453.0,1390.0 C 6517.0,1390.0 6540.0,1381.0 6540.0,1356.0 C 6540.0,1345.0 6552.0,1304.0 6566.0,1265.0 C 6580.0,1227.0 6598.0,1166.0 6605.0,1130.0 C 6612.0,1094.0 6631.0,1036.0 6646.0,1002.0 L 6673.0,938.0 L 6719.0,944.0 C 6787.0,953.0 6871.0,996.0 6895.0,1033.0 C 6908.0,1053.0 6925.0,1066.0 6942.0,1068.0 C 6960.0,1070.0 6971.0,1079.0 6978.0,1099.0 C 6986.0,1121.0 6997.0,1128.0 7034.0,1137.0 C 7078.0,1147.0 7084.0,1146.0 7110.0,1123.0 C 7126.0,1110.0 7142.0,1091.0 7145.0,1081.0 C 7148.0,1070.0 7172.0,1057.0 7209.0,1045.0 C 7268.0,1027.0 7268.0,1027.0 7302.0,1050.0 C 7320.0,1063.0 7353.0,1093.0 7375.0,1118.0 L 7416.0,1163.0 L 7510.0,1167.0 C 7562.0,1170.0 7620.0,1168.0 7639.0,1163.0 C 7669.0,1155.0 7676.0,1147.0 7690.0,1105.0 C 7704.0,1060.0 7711.0,1052.0 7757.0,1030.0 C 7809.0,1005.0 7809.0,1005.0 7808.0,960.0 C 7807.0,935.0 7812.0,896.0 7818.0,873.0 C 7829.0,837.0 7836.0,830.0 7875.0,817.0 C 7899.0,808.0 7939.0,788.0 7964.0,771.0 C 8019.0,733.0 8038.0,732.0 8051.0,768.0 C 8057.0,783.0 8076.0,811.0 8094.0,830.0 C 8144.0,882.0 8148.0,924.0 8110.0,1012.0 C 8090.0,1060.0 8080.0,1102.0 8080.0,1134.0 C 8080.0,1199.0 8062.0,1246.0 8033.0,1259.0 C 8013.0,1268.0 8010.0,1276.0 8010.0,1330.0 C 8010.0,1380.0 8017.0,1404.0 8046.0,1463.0 C 8066.0,1502.0 8091.0,1547.0 8101.0,1562.0 C 8112.0,1576.0 8120.0,1596.0 8120.0,1605.0 C 8120.0,1631.0 8196.0,1817.0 8221.0,1851.0 C 8232.0,1867.0 8255.0,1887.0 8271.0,1895.0 C 8291.0,1906.0 8300.0,1918.0 8300.0,1935.0 C 8300.0,1953.0 8307.0,1961.0 8324.0,1966.0 C 8337.0,1969.0 8365.0,1989.0 8386.0,2011.0 C 8407.0,2032.0 8431.0,2050.0 8440.0,2050.0 C 8457.0,2050.0 8490.0,2080.0 8490.0,2094.0 C 8490.0,2099.0 8479.0,2111.0 8465.0,2122.0 C 8445.0,2137.0 8440.0,2150.0 8440.0,2183.0 C 8440.0,2251.0 8443.0,2253.0 8572.0,2249.0 C 8683.0,2245.0 8687.0,2244.0 8727.0,2212.0 C 8784.0,2167.0 8800.0,2169.0 8800.0,2223.0 C 8800.0,2265.0 8802.0,2268.0 8840.0,2285.0 C 8875.0,2301.0 8898.0,2302.0 9033.0,2297.0 C 9164.0,2291.0 9195.0,2293.0 9258.0,2309.0 C 9299.0,2320.0 9333.0,2330.0 9334.0,2332.0 C 9334.0,2334.0 9343.0,2345.0 9353.0,2356.0 C 9371.0,2377.0 9370.0,2379.0 9323.0,2446.0 C 9293.0,2489.0 9274.0,2528.0 9270.0,2554.0 C 9265.0,2590.0 9261.0,2595.0 9223.0,2607.0 C 9197.0,2616.0 9172.0,2634.0 9158.0,2652.0 C 9138.0,2681.0 9137.0,2687.0 9148.0,2740.0 C 9157.0,2780.0 9157.0,2806.0 9150.0,2825.0 C 9145.0,2839.0 9140.0,2869.0 9140.0,2891.0 C 9140.0,2913.0 9131.0,2948.0 9120.0,2970.0 C 9098.0,3013.0 9103.0,3043.0 9140.0,3080.0 C 9168.0,3108.0 9166.0,3113.0 9120.0,3144.0 C 9098.0,3158.0 9080.0,3178.0 9080.0,3188.0 C 9080.0,3197.0 9066.0,3234.0 9050.0,3268.0 L 9020.0,3332.0 L 9045.0,3362.0 C 9068.0,3389.0 9070.0,3400.0 9070.0,3480.0 C 9070.0,3585.0 9066.0,3592.0 8952.0,3668.0 C 8891.0,3709.0 8868.0,3732.0 8819.0,3806.0 C 8769.0,3882.0 8760.0,3902.0 8760.0,3940.0 C 8760.0,3992.0 8763.0,3998.0 8809.0,4030.0 C 8842.0,4053.0 8842.0,4054.0 8837.0,4109.0 C 8832.0,4159.0 8834.0,4170.0 8860.0,4211.0 L 8889.0,4258.0 L 8949.0,4245.0 C 9003.0,4234.0 9012.0,4234.0 9040.0,4251.0 C 9075.0,4273.0 9131.0,4275.0 9213.0,4259.0 C 9265.0,4248.0 9270.0,4245.0 9270.0,4221.0 C 9270.0,4168.0 9280.0,4155.0 9333.0,4136.0 C 9367.0,4124.0 9421.0,4116.0 9488.0,4113.0 C 9582.0,4109.0 9599.0,4111.0 9668.0,4136.0 C 9787.0,4178.0 9808.0,4189.0 9829.0,4226.0 C 9844.0,4251.0 9860.0,4262.0 9892.0,4271.0 C 9955.0,4287.0 9987.0,4333.0 9996.0,4421.0 L 10003.0,4490.0 L 10039.0,4495.0 C 10059.0,4498.0 10098.0,4512.0 10126.0,4527.0 C 10164.0,4546.0 10186.0,4551.0 10209.0,4547.0 L 10240.0,4541.0 L 10240.0,4614.0 C 10240.0,4655.0 10235.0,4711.0 10228.0,4738.0 C 10218.0,4783.0 10213.0,4790.0 10176.0,4806.0 C 10153.0,4816.0 10119.0,4842.0 10100.0,4863.0 C 10080.0,4884.0 10028.0,4919.0 9981.0,4943.0 C 9901.0,4983.0 9896.0,4987.0 9884.0,5028.0 L 9872.0,5071.0 L 9910.0,5098.0 C 9931.0,5113.0 9956.0,5130.0 9966.0,5136.0 C 9984.0,5146.0 9983.0,5150.0 9950.0,5188.0 C 9919.0,5224.0 9911.0,5229.0 9881.0,5225.0 C 9853.0,5222.0 9839.0,5228.0 9801.0,5259.0 C 9754.0,5299.0 9663.0,5348.0 9599.0,5369.0 C 9567.0,5379.0 9556.0,5377.0 9492.0,5350.0 C 9434.0,5325.0 9407.0,5320.0 9345.0,5320.0 C 9272.0,5320.0 9180.0,5336.0 9180.0,5348.0 C 9180.0,5352.0 9203.0,5420.0 9231.0,5499.0 L 9283.0,5643.0 L 9226.0,5757.0 L 9169.0,5870.0 L 9116.0,5870.0 C 9068.0,5870.0 9058.0,5874.0 9001.0,5920.0 C 8966.0,5948.0 8919.0,5980.0 8896.0,5991.0 C 8874.0,6003.0 8818.0,6033.0 8773.0,6058.0 C 8693.0,6103.0 8692.0,6105.0 8685.0,6150.0 C 8677.0,6205.0 8621.0,6482.0 8618.0,6485.0 C 8616.0,6486.0 8585.0,6495.0 8549.0,6505.0 C 8497.0,6518.0 8480.0,6528.0 8471.0,6547.0 C 8453.0,6587.0 8458.0,6613.0 8495.0,6651.0 C 8529.0,6685.0 8568.0,6784.0 8552.0,6794.0 C 8548.0,6796.0 8501.0,6808.0 8448.0,6820.0 C 8350.0,6842.0 8350.0,6842.0 8340.0,6879.0 C 8335.0,6899.0 8330.0,6920.0 8330.0,6927.0 C 8330.0,6933.0 8285.0,6972.0 8230.0,7012.0 C 8132.0,7084.0 8130.0,7086.0 8130.0,7126.0 C 8130.0,7156.0 8136.0,7172.0 8155.0,7190.0 C 8177.0,7210.0 8180.0,7222.0 8180.0,7280.0 C 8180.0,7342.0 8182.0,7347.0 8210.0,7363.0 C 8236.0,7379.0 8238.0,7384.0 8230.0,7406.0 C 8213.0,7450.0 8216.0,7453.0 8276.0,7446.0 L 8333.0,7440.0 L 8326.0,7477.0 C 8322.0,7498.0 8317.0,7540.0 8314.0,7570.0 C 8311.0,7600.0 8304.0,7651.0 8298.0,7682.0 C 8288.0,7735.0 8283.0,7743.0 8236.0,7779.0 C 8198.0,7807.0 8181.0,7828.0 8172.0,7857.0 C 8165.0,7879.0 8151.0,7905.0 8140.0,7915.0 C 8124.0,7929.0 8120.0,7946.0 8120.0,7995.0 L 8120.0,8057.0 L 8170.0,8080.0 C 8198.0,8093.0 8220.0,8110.0 8220.0,8118.0 C 8220.0,8126.0 8213.0,8156.0 8204.0,8186.0 C 8193.0,8225.0 8192.0,8244.0 8199.0,8259.0 C 8205.0,8270.0 8210.0,8329.0 8210.0,8391.0 L 8210.0,8503.0 L 8120.0,8497.0 L 8030.0,8491.0 L 8011.0,8528.0 C 7995.0,8558.0 7981.0,8569.0 7931.0,8588.0 L 7869.0,8612.0 L 7875.0,8668.0 L 7881.0,8725.0 L 7821.0,8759.0 C 7766.0,8790.0 7760.0,8797.0 7760.0,8826.0 L 7760.0,8857.0 L 7690.0,8864.0 C 7629.0,8870.0 7614.0,8876.0 7570.0,8911.0 C 7543.0,8932.0 7516.0,8950.0 7510.0,8950.0 C 7504.0,8950.0 7482.0,8939.0 7460.0,8925.0 C 7412.0,8895.0 7412.0,8895.0 7356.0,8921.0 C 7312.0,8943.0 7312.0,8943.0 7226.0,8925.0 C 7140.0,8907.0 7140.0,8907.0 7084.0,8843.0 C 7035.0,8788.0 7024.0,8780.0 6993.0,8780.0 C 6960.0,8780.0 6948.0,8771.0 6870.0,8688.0 L 6784.0,8597.0 L 6725.0,8664.0 C 6651.0,8747.0 6636.0,8791.0 6651.0,8875.0 C 6657.0,8908.0 6671.0,8955.0 6682.0,8979.0 L 6701.0,9023.0 L 6678.0,9047.0 C 6666.0,9060.0 6617.0,9097.0 6570.0,9129.0 C 6476.0,9194.0 6422.0,9210.0 6302.0,9210.0 L 6238.0,9210.0 L 6149.0,9139.0 L 6060.0,9068.0 L 6011.0,9104.0 C 5967.0,9137.0 5962.0,9144.0 5957.0,9191.0 C 5950.0,9248.0 5905.0,9310.0 5859.0,9328.0 C 5828.0,9340.0 5662.0,9310.0 5618.0,9285.0 C 5582.0,9264.0 5564.0,9266.0 5514.0,9295.0 C 5478.0,9316.0 5464.0,9335.0 5429.0,9405.0 C 5406.0,9452.0 5384.0,9490.0 5381.0,9490.0 C 5378.0,9490.0 5355.0,9472.0 5330.0,9450.0" fill="pink"/>
</svg>
