<?xml version="1.0" ?>
<svg xmlns="http://www.w3.org/2000/svg" xmlns:ev="http://www.w3.org/2001/xml-events" xmlns:xlink="http://www.w3.org/1999/xlink" baseProfile="full" height="600px" version="1.1" viewBox="1767.6327870769728 -1024.5202651053853 6697.229108550984 12292.822655386777" width="327px">
	<defs/>
	<path d="M 5389.0,10215.0 C 5364.0,10202.0 5338.0,10184.0 5331.0,10176.0 C 5313.0,10154.0 5290.0,10156.0 5290.0,10179.0 C 5290.0,10202.0 5271.0,10210.0 5218.0,10210.0 C 5186.0,10210.0 5163.0,10200.0 5100.0,10155.0 L 5023.0,10101.0 L 5000.0,9983.0 C 4978.0,9874.0 4974.0,9863.0 4937.0,9823.0 C 4900.0,9782.0 4898.0,9779.0 4914.0,9762.0 C 4944.0,9728.0 4932.0,9704.0 4819.0,9576.0 C 4727.0,9471.0 4710.0,9447.0 4720.0,9435.0 C 4728.0,9425.0 4730.0,9407.0 4725.0,9383.0 C 4721.0,9362.0 4717.0,9319.0 4716.0,9288.0 C 4715.0,9234.0 4713.0,9228.0 4665.0,9180.0 C 4632.0,9146.0 4608.0,9130.0 4594.0,9132.0 C 4583.0,9133.0 4562.0,9127.0 4547.0,9117.0 C 4533.0,9108.0 4516.0,9100.0 4510.0,9100.0 C 4504.0,9100.0 4484.0,9089.0 4467.0,9076.0 C 4449.0,9062.0 4423.0,9048.0 4407.0,9045.0 C 4392.0,9041.0 4375.0,9030.0 4370.0,9021.0 C 4363.0,9007.0 4368.0,9000.0 4392.0,8986.0 C 4418.0,8970.0 4421.0,8963.0 4416.0,8938.0 C 4413.0,8922.0 4390.0,8885.0 4365.0,8856.0 C 4332.0,8817.0 4320.0,8794.0 4320.0,8771.0 C 4320.0,8754.0 4314.0,8737.0 4306.0,8734.0 C 4298.0,8731.0 4295.0,8719.0 4298.0,8705.0 C 4300.0,8692.0 4298.0,8668.0 4292.0,8651.0 C 4285.0,8632.0 4285.0,8619.0 4292.0,8612.0 C 4299.0,8605.0 4298.0,8595.0 4291.0,8582.0 C 4285.0,8571.0 4280.0,8552.0 4280.0,8541.0 C 4280.0,8527.0 4256.0,8508.0 4190.0,8469.0 C 4108.0,8422.0 4100.0,8415.0 4100.0,8387.0 C 4100.0,8368.0 4088.0,8342.0 4065.0,8314.0 C 4042.0,8287.0 4030.0,8261.0 4030.0,8242.0 C 4030.0,8217.0 4018.0,8201.0 3966.0,8156.0 C 3931.0,8125.0 3896.0,8100.0 3887.0,8100.0 C 3879.0,8100.0 3844.0,8077.0 3811.0,8049.0 C 3763.0,8009.0 3752.0,7995.0 3760.0,7985.0 C 3767.0,7977.0 3768.0,7957.0 3765.0,7936.0 C 3760.0,7910.0 3751.0,7899.0 3731.0,7892.0 C 3696.0,7880.0 3664.0,7893.0 3618.0,7937.0 C 3594.0,7960.0 3576.0,7971.0 3565.0,7966.0 C 3543.0,7958.0 3480.0,8009.0 3480.0,8036.0 C 3480.0,8066.0 3421.0,8142.0 3401.0,8136.0 C 3352.0,8122.0 3321.0,8120.0 3315.0,8129.0 C 3312.0,8135.0 3296.0,8140.0 3280.0,8140.0 C 3231.0,8140.0 3220.0,8149.0 3220.0,8190.0 C 3220.0,8227.0 3219.0,8228.0 3150.0,8259.0 C 3069.0,8295.0 3062.0,8296.0 3016.0,8274.0 C 2990.0,8261.0 2976.0,8260.0 2953.0,8268.0 C 2925.0,8277.0 2918.0,8274.0 2859.0,8228.0 C 2794.0,8178.0 2791.0,8177.0 2728.0,8196.0 C 2713.0,8200.0 2710.0,8195.0 2710.0,8165.0 C 2710.0,8137.0 2705.0,8127.0 2690.0,8123.0 C 2679.0,8120.0 2670.0,8109.0 2670.0,8099.0 C 2670.0,8089.0 2661.0,8076.0 2650.0,8070.0 C 2630.0,8059.0 2630.0,8049.0 2630.0,6222.0 C 2630.0,4480.0 2629.0,4373.0 2610.0,4160.0 C 2599.0,4036.0 2565.0,3559.0 2535.0,3100.0 C 2505.0,2641.0 2464.0,2058.0 2445.0,1805.0 C 2414.0,1397.0 2330.0,115.0 2330.0,50.0 C 2330.0,36.0 2334.0,19.0 2338.0,12.0 C 2349.0,-4.0 2377.0,6.0 2382.0,28.0 C 2385.0,37.0 2399.0,52.0 2414.0,60.0 C 2437.0,72.0 2443.0,72.0 2450.0,61.0 C 2461.0,42.0 2490.0,55.0 2490.0,79.0 C 2490.0,91.0 2499.0,99.0 2515.0,102.0 C 2529.0,105.0 2540.0,104.0 2540.0,100.0 C 2540.0,97.0 2549.0,84.0 2560.0,72.0 C 2585.0,46.0 2641.0,42.0 2660.0,65.0 C 2669.0,76.0 2676.0,78.0 2684.0,70.0 C 2703.0,51.0 2748.0,59.0 2768.0,85.0 C 2790.0,113.0 2831.0,118.0 2850.0,95.0 C 2866.0,76.0 2930.0,76.0 2956.0,95.0 C 2968.0,104.0 2999.0,109.0 3043.0,110.0 L 3110.0,110.0 L 3110.0,75.0 C 3110.0,42.0 3112.0,40.0 3143.0,40.0 C 3161.0,40.0 3181.0,45.0 3188.0,52.0 C 3196.0,60.0 3209.0,61.0 3237.0,53.0 C 3383.0,11.0 3431.0,4.0 3480.0,17.0 C 3529.0,30.0 3545.0,64.0 3520.0,105.0 C 3493.0,148.0 3459.0,257.0 3453.0,317.0 C 3447.0,368.0 3447.0,369.0 3498.0,417.0 C 3548.0,465.0 3559.0,473.0 3630.0,504.0 C 3649.0,513.0 3688.0,537.0 3715.0,558.0 C 3758.0,591.0 3765.0,601.0 3768.0,635.0 C 3772.0,689.0 3837.0,758.0 3889.0,762.0 C 3920.0,765.0 3925.0,769.0 3933.0,800.0 C 3938.0,819.0 3948.0,842.0 3956.0,851.0 C 3964.0,859.0 3970.0,879.0 3970.0,893.0 C 3970.0,914.0 3975.0,920.0 3992.0,920.0 C 4021.0,920.0 4161.0,992.0 4156.0,1005.0 C 4154.0,1011.0 4149.0,1022.0 4145.0,1031.0 C 4141.0,1042.0 4145.0,1049.0 4159.0,1053.0 C 4172.0,1056.0 4180.0,1066.0 4180.0,1079.0 C 4180.0,1090.0 4189.0,1104.0 4201.0,1111.0 L 4222.0,1122.0 L 4200.0,1145.0 C 4185.0,1161.0 4179.0,1176.0 4183.0,1191.0 C 4186.0,1203.0 4182.0,1223.0 4173.0,1236.0 C 4151.0,1270.0 4163.0,1310.0 4194.0,1310.0 C 4212.0,1310.0 4219.0,1316.0 4222.0,1333.0 C 4225.0,1352.0 4232.0,1355.0 4283.0,1358.0 C 4332.0,1361.0 4340.0,1364.0 4340.0,1380.0 C 4340.0,1396.0 4347.0,1400.0 4373.0,1400.0 C 4390.0,1400.0 4418.0,1409.0 4434.0,1419.0 C 4457.0,1434.0 4468.0,1436.0 4483.0,1429.0 C 4509.0,1414.0 4514.0,1423.0 4515.0,1483.0 C 4516.0,1512.0 4519.0,1541.0 4524.0,1548.0 C 4539.0,1573.0 4576.0,1560.0 4625.0,1510.0 C 4652.0,1482.0 4682.0,1460.0 4691.0,1460.0 C 4700.0,1460.0 4710.0,1453.0 4714.0,1445.0 C 4722.0,1423.0 4745.0,1427.0 4764.0,1453.0 C 4780.0,1475.0 4780.0,1475.0 4774.0,1441.0 C 4766.0,1399.0 4789.0,1402.0 4803.0,1446.0 C 4817.0,1488.0 4829.0,1500.0 4860.0,1500.0 C 4875.0,1500.0 4902.0,1503.0 4919.0,1506.0 L 4951.0,1513.0 L 4944.0,1571.0 C 4938.0,1623.0 4940.0,1630.0 4955.0,1630.0 C 4983.0,1630.0 5027.0,1668.0 5033.0,1698.0 C 5037.0,1716.0 5061.0,1745.0 5099.0,1779.0 C 5138.0,1812.0 5160.0,1839.0 5160.0,1853.0 C 5160.0,1865.0 5167.0,1884.0 5175.0,1894.0 C 5183.0,1905.0 5190.0,1935.0 5190.0,1961.0 C 5190.0,2014.0 5198.0,2026.0 5261.0,2059.0 C 5295.0,2077.0 5310.0,2094.0 5327.0,2131.0 C 5345.0,2171.0 5353.0,2180.0 5374.0,2180.0 C 5402.0,2180.0 5416.0,2211.0 5407.0,2256.0 C 5404.0,2276.0 5411.0,2288.0 5443.0,2315.0 C 5465.0,2334.0 5487.0,2350.0 5492.0,2350.0 C 5496.0,2350.0 5509.0,2368.0 5520.0,2390.0 C 5532.0,2414.0 5547.0,2430.0 5558.0,2430.0 C 5583.0,2430.0 5615.0,2466.0 5640.0,2522.0 L 5661.0,2569.0 L 5641.0,2647.0 C 5621.0,2724.0 5621.0,2725.0 5640.0,2745.0 C 5655.0,2761.0 5660.0,2781.0 5660.0,2826.0 L 5660.0,2885.0 L 5718.0,2927.0 C 5821.0,3002.0 5828.0,3013.0 5833.0,3110.0 C 5835.0,3157.0 5844.0,3213.0 5852.0,3235.0 C 5867.0,3272.0 5867.0,3276.0 5849.0,3301.0 C 5839.0,3316.0 5828.0,3352.0 5824.0,3382.0 C 5818.0,3436.0 5818.0,3438.0 5848.0,3456.0 C 5870.0,3469.0 5880.0,3483.0 5882.0,3504.0 C 5884.0,3526.0 5891.0,3536.0 5905.0,3538.0 C 5916.0,3539.0 5933.0,3554.0 5942.0,3570.0 C 5955.0,3593.0 5969.0,3601.0 6000.0,3606.0 L 6041.0,3613.0 L 6020.0,3634.0 C 6009.0,3646.0 6000.0,3668.0 6000.0,3682.0 C 6000.0,3697.0 5986.0,3725.0 5967.0,3748.0 C 5946.0,3773.0 5927.0,3812.0 5916.0,3854.0 L 5897.0,3921.0 L 5924.0,3949.0 C 5942.0,3968.0 5950.0,3987.0 5950.0,4011.0 C 5950.0,4058.0 5980.0,4084.0 6050.0,4100.0 C 6142.0,4121.0 6157.0,4133.0 6165.0,4189.0 C 6171.0,4231.0 6167.0,4246.0 6141.0,4298.0 C 6119.0,4341.0 6110.0,4374.0 6110.0,4407.0 C 6110.0,4438.0 6103.0,4466.0 6090.0,4485.0 C 6077.0,4505.0 6070.0,4532.0 6070.0,4566.0 C 6070.0,4603.0 6065.0,4622.0 6051.0,4634.0 C 6040.0,4644.0 6029.0,4647.0 6026.0,4642.0 C 6016.0,4625.0 5946.0,4650.0 5926.0,4677.0 C 5916.0,4691.0 5905.0,4723.0 5902.0,4749.0 C 5899.0,4777.0 5889.0,4804.0 5875.0,4820.0 C 5856.0,4841.0 5852.0,4860.0 5847.0,4946.0 C 5844.0,5012.0 5846.0,5053.0 5853.0,5066.0 C 5860.0,5077.0 5867.0,5166.0 5871.0,5290.0 L 5877.0,5495.0 L 5929.0,5661.0 C 5957.0,5753.0 5980.0,5836.0 5980.0,5848.0 C 5980.0,5859.0 5989.0,5897.0 6001.0,5932.0 C 6012.0,5966.0 6025.0,6029.0 6029.0,6070.0 C 6038.0,6159.0 6080.0,6262.0 6114.0,6278.0 C 6133.0,6286.0 6141.0,6284.0 6157.0,6269.0 C 6174.0,6251.0 6181.0,6250.0 6229.0,6261.0 C 6270.0,6270.0 6283.0,6277.0 6291.0,6297.0 C 6308.0,6341.0 6301.0,6374.0 6269.0,6399.0 C 6241.0,6421.0 6238.0,6421.0 6221.0,6406.0 C 6195.0,6382.0 6126.0,6406.0 6122.0,6441.0 C 6120.0,6460.0 6103.0,6474.0 6047.0,6503.0 C 5934.0,6562.0 5910.0,6587.0 5903.0,6653.0 C 5900.0,6683.0 5901.0,6746.0 5905.0,6792.0 L 5912.0,6877.0 L 5950.0,6899.0 C 5983.0,6918.0 5990.0,6927.0 5995.0,6965.0 C 6001.0,7001.0 6007.0,7011.0 6031.0,7020.0 C 6050.0,7028.0 6060.0,7040.0 6060.0,7053.0 C 6060.0,7064.0 6071.0,7088.0 6085.0,7105.0 C 6131.0,7166.0 6160.0,7276.0 6160.0,7394.0 C 6160.0,7428.0 6167.0,7502.0 6175.0,7560.0 C 6183.0,7618.0 6190.0,7699.0 6190.0,7740.0 C 6191.0,7802.0 6195.0,7822.0 6215.0,7855.0 C 6229.0,7877.0 6240.0,7906.0 6240.0,7919.0 C 6240.0,7932.0 6260.0,7969.0 6285.0,8002.0 C 6310.0,8035.0 6330.0,8070.0 6330.0,8079.0 C 6330.0,8088.0 6353.0,8113.0 6380.0,8134.0 C 6408.0,8155.0 6430.0,8174.0 6430.0,8176.0 C 6430.0,8179.0 6424.0,8191.0 6416.0,8203.0 C 6407.0,8218.0 6404.0,8239.0 6409.0,8267.0 C 6414.0,8301.0 6423.0,8315.0 6461.0,8344.0 C 6507.0,8379.0 6508.0,8380.0 6515.0,8452.0 C 6519.0,8492.0 6526.0,8533.0 6531.0,8542.0 C 6536.0,8552.0 6545.0,8583.0 6550.0,8612.0 C 6556.0,8640.0 6569.0,8673.0 6579.0,8684.0 C 6593.0,8699.0 6600.0,8727.0 6604.0,8785.0 C 6608.0,8829.0 6613.0,8886.0 6616.0,8911.0 C 6621.0,8952.0 6619.0,8958.0 6601.0,8963.0 C 6583.0,8967.0 6581.0,8972.0 6589.0,8993.0 C 6594.0,9007.0 6596.0,9027.0 6593.0,9039.0 C 6589.0,9055.0 6592.0,9060.0 6607.0,9060.0 C 6638.0,9060.0 6650.0,9098.0 6632.0,9139.0 C 6619.0,9173.0 6620.0,9261.0 6637.0,9357.0 C 6641.0,9384.0 6639.0,9389.0 6618.0,9392.0 C 6591.0,9396.0 6591.0,9393.0 6611.0,9555.0 C 6624.0,9653.0 6623.0,9670.0 6609.0,9714.0 C 6593.0,9761.0 6592.0,9762.0 6580.0,9741.0 C 6571.0,9724.0 6562.0,9720.0 6545.0,9724.0 C 6517.0,9731.0 6460.0,9712.0 6460.0,9696.0 C 6460.0,9689.0 6437.0,9678.0 6410.0,9671.0 C 6382.0,9664.0 6354.0,9650.0 6347.0,9640.0 C 6339.0,9629.0 6315.0,9619.0 6285.0,9615.0 C 6253.0,9610.0 6222.0,9597.0 6198.0,9578.0 C 6175.0,9560.0 6159.0,9553.0 6155.0,9560.0 C 6143.0,9579.0 6159.0,9617.0 6180.0,9623.0 C 6192.0,9626.0 6200.0,9636.0 6200.0,9649.0 L 6200.0,9670.0 L 6160.0,9650.0 C 6110.0,9624.0 6100.0,9625.0 6100.0,9653.0 C 6100.0,9686.0 6082.0,9702.0 6058.0,9689.0 C 6048.0,9684.0 6035.0,9682.0 6030.0,9685.0 C 6025.0,9688.0 6003.0,9682.0 5981.0,9670.0 C 5959.0,9659.0 5926.0,9650.0 5908.0,9650.0 C 5869.0,9650.0 5739.0,9582.0 5692.0,9537.0 C 5673.0,9519.0 5652.0,9493.0 5644.0,9478.0 C 5636.0,9462.0 5623.0,9450.0 5615.0,9450.0 C 5588.0,9450.0 5619.0,9510.0 5656.0,9528.0 C 5683.0,9540.0 5690.0,9550.0 5690.0,9572.0 C 5690.0,9609.0 5713.0,9643.0 5762.0,9679.0 C 5799.0,9707.0 5801.0,9709.0 5782.0,9719.0 C 5765.0,9728.0 5745.0,9722.0 5675.0,9690.0 C 5627.0,9668.0 5576.0,9650.0 5561.0,9650.0 C 5521.0,9650.0 5490.0,9688.0 5490.0,9736.0 C 5490.0,9782.0 5507.0,9797.0 5650.0,9880.0 C 5735.0,9929.0 5790.0,9980.0 5790.0,10010.0 C 5790.0,10018.0 5808.0,10035.0 5830.0,10048.0 C 5867.0,10069.0 5869.0,10072.0 5858.0,10098.0 C 5852.0,10113.0 5830.0,10142.0 5811.0,10163.0 C 5775.0,10201.0 5774.0,10202.0 5714.0,10197.0 C 5680.0,10195.0 5645.0,10197.0 5636.0,10202.0 C 5623.0,10209.0 5613.0,10207.0 5597.0,10193.0 C 5570.0,10169.0 5534.0,10174.0 5518.0,10203.0 C 5495.0,10248.0 5458.0,10251.0 5389.0,10215.0" fill="pink"/>
	<path d="M 7514.0,8999.0 C 7511.0,8993.0 7498.0,8991.0 7486.0,8994.0 C 7468.0,8998.0 7458.0,8990.0 7430.0,8943.0 C 7407.0,8905.0 7397.0,8877.0 7398.0,8856.0 C 7400.0,8833.0 7394.0,8818.0 7376.0,8801.0 C 7362.0,8787.0 7350.0,8768.0 7350.0,8758.0 C 7350.0,8748.0 7343.0,8740.0 7335.0,8740.0 C 7325.0,8740.0 7320.0,8730.0 7320.0,8711.0 C 7320.0,8693.0 7312.0,8677.0 7298.0,8667.0 L 7275.0,8652.0 L 7309.0,8639.0 L 7343.0,8627.0 L 7322.0,8609.0 C 7310.0,8600.0 7292.0,8594.0 7281.0,8597.0 C 7268.0,8600.0 7256.0,8592.0 7241.0,8571.0 C 7223.0,8546.0 7221.0,8538.0 7232.0,8521.0 C 7242.0,8504.0 7239.0,8493.0 7206.0,8443.0 C 7160.0,8372.0 7105.0,8256.0 7090.0,8199.0 C 7083.0,8176.0 7067.0,8148.0 7054.0,8138.0 C 7037.0,8124.0 7030.0,8109.0 7030.0,8086.0 C 7030.0,8066.0 7022.0,8046.0 7010.0,8035.0 C 6992.0,8018.0 6991.0,8015.0 7005.0,8007.0 C 7018.0,8000.0 7019.0,7995.0 7009.0,7984.0 C 7000.0,7973.0 7002.0,7970.0 7020.0,7970.0 C 7033.0,7970.0 7044.0,7978.0 7047.0,7989.0 C 7049.0,7999.0 7062.0,8013.0 7075.0,8020.0 C 7088.0,8027.0 7108.0,8055.0 7119.0,8083.0 C 7136.0,8122.0 7143.0,8131.0 7152.0,8122.0 C 7180.0,8094.0 7052.0,7916.0 7011.0,7927.0 C 6985.0,7934.0 6964.0,7905.0 6980.0,7885.0 C 6996.0,7865.0 6987.0,7856.0 6947.0,7853.0 C 6874.0,7848.0 6840.0,7843.0 6834.0,7837.0 C 6823.0,7826.0 6852.0,7799.0 6868.0,7805.0 C 6876.0,7808.0 6898.0,7806.0 6916.0,7800.0 C 6958.0,7786.0 7012.0,7812.0 7055.0,7867.0 C 7115.0,7944.0 7210.0,8079.0 7210.0,8089.0 C 7210.0,8094.0 7237.0,8150.0 7270.0,8213.0 C 7303.0,8275.0 7330.0,8336.0 7330.0,8347.0 C 7330.0,8357.0 7344.0,8376.0 7360.0,8388.0 C 7386.0,8407.0 7390.0,8417.0 7390.0,8456.0 C 7390.0,8487.0 7397.0,8510.0 7410.0,8527.0 C 7421.0,8541.0 7430.0,8567.0 7430.0,8585.0 C 7430.0,8611.0 7440.0,8627.0 7483.0,8667.0 C 7512.0,8694.0 7546.0,8722.0 7558.0,8729.0 C 7590.0,8746.0 7587.0,8790.0 7551.0,8824.0 C 7527.0,8847.0 7523.0,8856.0 7532.0,8870.0 C 7541.0,8884.0 7538.0,8895.0 7521.0,8924.0 L 7498.0,8960.0 L 7523.0,8960.0 C 7555.0,8960.0 7585.0,8918.0 7571.0,8892.0 C 7564.0,8878.0 7566.0,8871.0 7581.0,8862.0 C 7591.0,8855.0 7602.0,8850.0 7604.0,8850.0 C 7613.0,8850.0 7616.0,8900.0 7607.0,8909.0 C 7602.0,8914.0 7595.0,8933.0 7591.0,8951.0 C 7586.0,8975.0 7576.0,8987.0 7553.0,8997.0 C 7531.0,9006.0 7519.0,9006.0 7514.0,8999.0" fill="pink"/>
	<path d="M 7680.0,6492.0 C 7680.0,6476.0 7671.0,6455.0 7660.0,6445.0 C 7649.0,6435.0 7640.0,6420.0 7640.0,6412.0 C 7640.0,6403.0 7633.0,6389.0 7624.0,6379.0 C 7616.0,6370.0 7613.0,6359.0 7618.0,6356.0 C 7631.0,6348.0 7670.0,6379.0 7670.0,6398.0 C 7671.0,6415.0 7692.0,6450.0 7703.0,6450.0 C 7706.0,6450.0 7714.0,6433.0 7720.0,6413.0 C 7727.0,6392.0 7739.0,6367.0 7748.0,6358.0 C 7762.0,6341.0 7761.0,6340.0 7737.0,6340.0 C 7722.0,6340.0 7696.0,6328.0 7678.0,6311.0 C 7650.0,6286.0 7648.0,6280.0 7659.0,6266.0 C 7679.0,6243.0 7666.0,6222.0 7626.0,6215.0 C 7607.0,6211.0 7582.0,6197.0 7569.0,6184.0 C 7553.0,6167.0 7536.0,6160.0 7508.0,6160.0 C 7463.0,6160.0 7459.0,6176.0 7495.0,6210.0 C 7523.0,6236.0 7527.0,6250.0 7507.0,6250.0 C 7489.0,6250.0 7410.0,6168.0 7410.0,6149.0 C 7410.0,6140.0 7399.0,6123.0 7385.0,6110.0 C 7371.0,6097.0 7360.0,6077.0 7360.0,6066.0 C 7360.0,6054.0 7337.0,6011.0 7310.0,5970.0 C 7271.0,5912.0 7260.0,5886.0 7260.0,5856.0 C 7260.0,5820.0 7261.0,5818.0 7273.0,5834.0 C 7292.0,5860.0 7330.0,5847.0 7330.0,5814.0 C 7330.0,5794.0 7325.0,5790.0 7302.0,5790.0 C 7260.0,5790.0 7242.0,5752.0 7265.0,5716.0 C 7283.0,5689.0 7283.0,5689.0 7249.0,5654.0 C 7219.0,5623.0 7216.0,5613.0 7213.0,5555.0 C 7212.0,5519.0 7203.0,5476.0 7194.0,5458.0 C 7160.0,5393.0 7202.0,5237.0 7264.0,5196.0 C 7280.0,5186.0 7290.0,5170.0 7290.0,5157.0 C 7290.0,5127.0 7314.0,5095.0 7328.0,5104.0 C 7346.0,5115.0 7342.0,5139.0 7319.0,5172.0 C 7302.0,5195.0 7300.0,5204.0 7310.0,5210.0 C 7331.0,5223.0 7312.0,5260.0 7284.0,5260.0 C 7256.0,5260.0 7232.0,5304.0 7249.0,5324.0 C 7256.0,5332.0 7253.0,5340.0 7239.0,5348.0 C 7213.0,5364.0 7213.0,5410.0 7239.0,5410.0 C 7250.0,5410.0 7266.0,5400.0 7276.0,5388.0 C 7292.0,5366.0 7292.0,5367.0 7286.0,5419.0 C 7283.0,5449.0 7275.0,5477.0 7269.0,5481.0 C 7260.0,5486.0 7262.0,5494.0 7273.0,5511.0 C 7288.0,5532.0 7288.0,5535.0 7273.0,5552.0 C 7258.0,5569.0 7258.0,5570.0 7277.0,5570.0 C 7306.0,5570.0 7312.0,5581.0 7294.0,5601.0 C 7279.0,5617.0 7281.0,5622.0 7310.0,5664.0 C 7361.0,5740.0 7373.0,5777.0 7375.0,5880.0 C 7378.0,5992.0 7390.0,6030.0 7422.0,6030.0 C 7469.0,6030.0 7490.0,6042.0 7490.0,6066.0 C 7490.0,6079.0 7499.0,6094.0 7509.0,6100.0 C 7535.0,6113.0 7541.0,6113.0 7539.0,6098.0 C 7537.0,6091.0 7540.0,6070.0 7544.0,6053.0 C 7551.0,6024.0 7555.0,6020.0 7586.0,6020.0 C 7620.0,6020.0 7620.0,6020.0 7605.0,5996.0 C 7590.0,5973.0 7590.0,5972.0 7619.0,5967.0 C 7656.0,5959.0 7675.0,5928.0 7660.0,5900.0 C 7652.0,5885.0 7654.0,5879.0 7670.0,5870.0 C 7696.0,5856.0 7696.0,5828.0 7670.0,5812.0 C 7659.0,5806.0 7653.0,5794.0 7656.0,5786.0 C 7659.0,5778.0 7655.0,5761.0 7647.0,5750.0 C 7634.0,5731.0 7634.0,5724.0 7646.0,5693.0 C 7660.0,5662.0 7659.0,5656.0 7645.0,5640.0 C 7634.0,5628.0 7632.0,5616.0 7638.0,5600.0 L 7646.0,5577.0 L 7668.0,5605.0 C 7693.0,5637.0 7726.0,5633.0 7715.0,5600.0 C 7710.0,5584.0 7713.0,5580.0 7733.0,5580.0 C 7790.0,5580.0 7793.0,5695.0 7738.0,5782.0 C 7714.0,5820.0 7710.0,5835.0 7716.0,5864.0 C 7720.0,5886.0 7718.0,5906.0 7711.0,5914.0 C 7705.0,5921.0 7702.0,5935.0 7706.0,5944.0 C 7709.0,5953.0 7707.0,5960.0 7701.0,5960.0 C 7695.0,5960.0 7690.0,5977.0 7690.0,5997.0 C 7690.0,6020.0 7683.0,6042.0 7670.0,6055.0 L 7650.0,6077.0 L 7675.0,6090.0 C 7694.0,6100.0 7700.0,6111.0 7700.0,6138.0 C 7700.0,6175.0 7757.0,6280.0 7777.0,6280.0 C 7783.0,6280.0 7796.0,6290.0 7804.0,6302.0 C 7812.0,6313.0 7840.0,6335.0 7866.0,6351.0 C 7907.0,6374.0 7910.0,6379.0 7892.0,6384.0 C 7881.0,6388.0 7863.0,6386.0 7853.0,6379.0 C 7838.0,6370.0 7827.0,6371.0 7802.0,6384.0 C 7766.0,6403.0 7765.0,6407.0 7785.0,6434.0 C 7807.0,6463.0 7803.0,6471.0 7775.0,6460.0 C 7754.0,6452.0 7748.0,6454.0 7743.0,6468.0 C 7737.0,6486.0 7701.0,6519.0 7688.0,6520.0 C 7683.0,6520.0 7680.0,6507.0 7680.0,6492.0" fill="pink"/>
	<path d="M 7560.0,5542.0 C 7560.0,5529.0 7551.0,5520.0 7535.0,5516.0 C 7506.0,5509.0 7499.0,5470.0 7527.0,5470.0 C 7540.0,5470.0 7541.0,5467.0 7532.0,5458.0 C 7513.0,5439.0 7518.0,5402.0 7541.0,5389.0 L 7562.0,5378.0 L 7539.0,5354.0 C 7527.0,5341.0 7511.0,5330.0 7503.0,5330.0 C 7496.0,5330.0 7490.0,5321.0 7490.0,5311.0 C 7490.0,5278.0 7479.0,5260.0 7458.0,5260.0 C 7442.0,5260.0 7439.0,5265.0 7443.0,5281.0 C 7447.0,5297.0 7444.0,5301.0 7427.0,5298.0 C 7410.0,5296.0 7404.0,5287.0 7402.0,5262.0 C 7399.0,5233.0 7402.0,5228.0 7431.0,5218.0 C 7462.0,5207.0 7462.0,5207.0 7457.0,5154.0 C 7452.0,5106.0 7454.0,5100.0 7470.0,5100.0 C 7497.0,5100.0 7531.0,5159.0 7518.0,5183.0 C 7511.0,5197.0 7512.0,5205.0 7525.0,5214.0 C 7540.0,5225.0 7540.0,5229.0 7529.0,5248.0 C 7512.0,5276.0 7531.0,5314.0 7571.0,5330.0 C 7603.0,5344.0 7650.0,5400.0 7650.0,5426.0 C 7650.0,5443.0 7637.0,5442.0 7573.0,5424.0 C 7560.0,5420.0 7550.0,5422.0 7550.0,5428.0 C 7550.0,5434.0 7563.0,5441.0 7579.0,5445.0 C 7609.0,5451.0 7630.0,5484.0 7630.0,5525.0 C 7630.0,5539.0 7624.0,5550.0 7618.0,5550.0 C 7611.0,5550.0 7595.0,5553.0 7583.0,5556.0 C 7565.0,5561.0 7560.0,5558.0 7560.0,5542.0" fill="pink"/>
	<path d="M 7668.0,5504.0 C 7658.0,5495.0 7672.0,5460.0 7685.0,5460.0 C 7712.0,5460.0 7730.0,5473.0 7730.0,5491.0 C 7730.0,5505.0 7723.0,5510.0 7702.0,5510.0 C 7686.0,5510.0 7671.0,5507.0 7668.0,5504.0" fill="pink"/>
	<path d="M 7298.0,5082.0 C 7284.0,5079.0 7280.0,5068.0 7280.0,5034.0 C 7280.0,4985.0 7294.0,4978.0 7345.0,5002.0 C 7376.0,5016.0 7381.0,5060.0 7350.0,5060.0 C 7340.0,5060.0 7327.0,5066.0 7323.0,5073.0 C 7319.0,5080.0 7307.0,5084.0 7298.0,5082.0" fill="pink"/>
</svg>
