<?xml version="1.0" ?>
<svg xmlns="http://www.w3.org/2000/svg" xmlns:ev="http://www.w3.org/2001/xml-events" xmlns:xlink="http://www.w3.org/1999/xlink" baseProfile="full" height="509px" version="1.1" viewBox="-1025.557243593951 -88.54041520989449 12289.986596598214 10420.036163090528" width="600px">
	<defs/>
	<path d="M 5231.0,9442.0 C 5221.0,9424.0 5211.0,9420.0 5168.0,9420.0 C 5127.0,9420.0 5111.0,9415.0 5091.0,9395.0 C 5068.0,9374.0 5060.0,9372.0 5028.0,9379.0 C 4974.0,9391.0 4953.0,9365.0 4987.0,9328.0 C 5003.0,9310.0 5003.0,9309.0 4965.0,9311.0 C 4918.0,9314.0 4876.0,9295.0 4884.0,9274.0 C 4887.0,9266.0 4893.0,9253.0 4896.0,9245.0 C 4900.0,9234.0 4896.0,9230.0 4881.0,9230.0 C 4863.0,9230.0 4860.0,9224.0 4860.0,9190.0 C 4860.0,9168.0 4858.0,9150.0 4855.0,9150.0 C 4852.0,9150.0 4831.0,9159.0 4809.0,9170.0 C 4772.0,9189.0 4769.0,9190.0 4764.0,9173.0 C 4761.0,9163.0 4755.0,9147.0 4750.0,9138.0 C 4743.0,9125.0 4747.0,9116.0 4768.0,9100.0 L 4795.0,9079.0 L 4753.0,9083.0 C 4717.0,9087.0 4709.0,9085.0 4695.0,9064.0 C 4684.0,9046.0 4673.0,9041.0 4657.0,9045.0 C 4641.0,9049.0 4628.0,9044.0 4611.0,9026.0 C 4583.0,8996.0 4589.0,8970.0 4624.0,8970.0 C 4643.0,8970.0 4648.0,8966.0 4643.0,8954.0 C 4639.0,8944.0 4644.0,8932.0 4654.0,8924.0 C 4669.0,8914.0 4669.0,8909.0 4658.0,8891.0 C 4641.0,8863.0 4659.0,8843.0 4688.0,8859.0 C 4699.0,8865.0 4719.0,8870.0 4732.0,8870.0 C 4745.0,8870.0 4766.0,8877.0 4779.0,8886.0 C 4801.0,8902.0 4802.0,8902.0 4791.0,8881.0 C 4784.0,8870.0 4764.0,8853.0 4745.0,8845.0 C 4705.0,8829.0 4702.0,8820.0 4731.0,8794.0 C 4748.0,8779.0 4754.0,8778.0 4771.0,8788.0 C 4787.0,8799.0 4790.0,8797.0 4790.0,8780.0 C 4790.0,8758.0 4805.0,8755.0 4859.0,8766.0 C 4880.0,8771.0 4890.0,8778.0 4890.0,8791.0 C 4890.0,8802.0 4897.0,8810.0 4905.0,8810.0 C 4913.0,8810.0 4920.0,8806.0 4920.0,8800.0 C 4920.0,8781.0 4945.0,8791.0 4983.0,8825.0 C 5003.0,8845.0 5020.0,8865.0 5020.0,8870.0 C 5020.0,8879.0 5060.0,8900.0 5076.0,8900.0 C 5087.0,8900.0 5077.0,8868.0 5050.0,8817.0 C 5026.0,8774.0 5012.0,8759.0 4985.0,8750.0 C 4966.0,8744.0 4948.0,8735.0 4945.0,8731.0 C 4943.0,8727.0 4961.0,8699.0 4985.0,8671.0 C 5010.0,8642.0 5030.0,8614.0 5030.0,8609.0 C 5030.0,8589.0 5004.0,8603.0 4954.0,8650.0 C 4906.0,8695.0 4897.0,8700.0 4854.0,8700.0 L 4808.0,8700.0 L 4814.0,8669.0 C 4817.0,8652.0 4820.0,8627.0 4820.0,8615.0 C 4820.0,8599.0 4828.0,8589.0 4848.0,8582.0 C 4881.0,8571.0 4930.0,8495.0 4930.0,8456.0 C 4930.0,8433.0 4934.0,8430.0 4963.0,8430.0 C 4981.0,8430.0 5001.0,8435.0 5008.0,8442.0 C 5027.0,8461.0 5034.0,8443.0 5020.0,8408.0 C 5012.0,8390.0 5005.0,8374.0 5004.0,8372.0 C 5003.0,8370.0 4988.0,8376.0 4970.0,8385.0 C 4943.0,8399.0 4932.0,8400.0 4889.0,8389.0 C 4849.0,8378.0 4840.0,8372.0 4840.0,8354.0 C 4840.0,8341.0 4836.0,8328.0 4830.0,8325.0 C 4818.0,8317.0 4817.0,8230.0 4829.0,8230.0 C 4834.0,8230.0 4843.0,8237.0 4851.0,8246.0 C 4863.0,8260.0 4865.0,8260.0 4876.0,8245.0 C 4885.0,8233.0 4895.0,8230.0 4911.0,8235.0 C 4929.0,8241.0 4932.0,8239.0 4927.0,8226.0 C 4919.0,8205.0 4940.0,8150.0 4964.0,8131.0 C 4978.0,8119.0 4983.0,8121.0 5001.0,8144.0 C 5028.0,8179.0 5035.0,8171.0 5019.0,8126.0 C 5007.0,8093.0 5003.0,8090.0 4965.0,8090.0 C 4929.0,8090.0 4923.0,8094.0 4905.0,8128.0 C 4888.0,8160.0 4879.0,8165.0 4846.0,8168.0 C 4810.0,8171.0 4808.0,8170.0 4814.0,8148.0 C 4817.0,8135.0 4820.0,8115.0 4820.0,8103.0 C 4820.0,8087.0 4826.0,8080.0 4840.0,8080.0 C 4863.0,8080.0 4863.0,8080.0 4851.0,8047.0 C 4845.0,8033.0 4833.0,8019.0 4823.0,8016.0 C 4797.0,8008.0 4758.0,7925.0 4766.0,7895.0 C 4774.0,7861.0 4828.0,7852.0 4878.0,7874.0 C 4913.0,7890.0 4917.0,7890.0 4955.0,7870.0 C 5006.0,7844.0 5024.0,7843.0 5010.0,7869.0 C 4995.0,7897.0 4996.0,7898.0 5036.0,7906.0 C 5064.0,7911.0 5074.0,7909.0 5085.0,7894.0 C 5098.0,7876.0 5100.0,7877.0 5110.0,7908.0 C 5121.0,7937.0 5126.0,7940.0 5161.0,7940.0 C 5199.0,7940.0 5200.0,7939.0 5200.0,7903.0 L 5200.0,7866.0 L 5235.0,7900.0 C 5254.0,7919.0 5272.0,7942.0 5276.0,7952.0 C 5279.0,7962.0 5287.0,7970.0 5295.0,7970.0 C 5302.0,7970.0 5313.0,7983.0 5318.0,7999.0 C 5327.0,8024.0 5325.0,8031.0 5308.0,8047.0 C 5293.0,8060.0 5286.0,8062.0 5283.0,8053.0 C 5276.0,8033.0 5240.0,8057.0 5240.0,8081.0 C 5240.0,8097.0 5236.0,8100.0 5223.0,8095.0 C 5213.0,8091.0 5184.0,8084.0 5158.0,8080.0 L 5110.0,8074.0 L 5110.0,8108.0 C 5110.0,8141.0 5111.0,8142.0 5128.0,8127.0 C 5159.0,8099.0 5197.0,8106.0 5242.0,8149.0 L 5283.0,8187.0 L 5261.0,8224.0 L 5238.0,8260.0 L 5263.0,8260.0 C 5291.0,8260.0 5340.0,8295.0 5340.0,8315.0 C 5340.0,8323.0 5333.0,8333.0 5324.0,8338.0 C 5310.0,8346.0 5310.0,8349.0 5331.0,8364.0 L 5355.0,8381.0 L 5333.0,8399.0 C 5314.0,8415.0 5313.0,8420.0 5324.0,8429.0 C 5343.0,8445.0 5332.0,8480.0 5304.0,8491.0 C 5291.0,8495.0 5280.0,8504.0 5280.0,8510.0 C 5280.0,8516.0 5269.0,8518.0 5254.0,8514.0 C 5235.0,8509.0 5229.0,8510.0 5234.0,8519.0 C 5238.0,8525.0 5258.0,8530.0 5279.0,8530.0 C 5324.0,8530.0 5330.0,8534.0 5323.0,8562.0 C 5318.0,8578.0 5312.0,8581.0 5289.0,8576.0 C 5191.0,8556.0 5197.0,8556.0 5209.0,8579.0 C 5216.0,8590.0 5230.0,8600.0 5242.0,8600.0 C 5254.0,8600.0 5279.0,8614.0 5296.0,8631.0 C 5323.0,8657.0 5327.0,8666.0 5319.0,8686.0 C 5311.0,8708.0 5313.0,8710.0 5334.0,8704.0 C 5353.0,8700.0 5361.0,8705.0 5379.0,8733.0 C 5406.0,8777.0 5406.0,8800.0 5379.0,8800.0 C 5363.0,8800.0 5360.0,8803.0 5367.0,8813.0 C 5373.0,8819.0 5380.0,8836.0 5383.0,8850.0 C 5406.0,8955.0 5440.0,9080.0 5450.0,9103.0 C 5461.0,9125.0 5461.0,9135.0 5450.0,9155.0 C 5433.0,9186.0 5426.0,9181.0 5390.0,9109.0 C 5373.0,9076.0 5353.0,9050.0 5345.0,9050.0 C 5332.0,9050.0 5333.0,9057.0 5350.0,9090.0 L 5371.0,9130.0 L 5350.0,9138.0 C 5331.0,9145.0 5331.0,9146.0 5357.0,9162.0 C 5373.0,9171.0 5399.0,9202.0 5416.0,9232.0 C 5443.0,9278.0 5446.0,9292.0 5443.0,9341.0 L 5438.0,9397.0 L 5382.0,9424.0 C 5320.0,9455.0 5325.0,9457.0 5278.0,9389.0 L 5261.0,9365.0 L 5260.0,9395.0 C 5259.0,9412.0 5255.0,9434.0 5251.0,9445.0 C 5243.0,9464.0 5243.0,9464.0 5231.0,9442.0" fill="pink"/>
	<path d="M 4510.0,8900.0 C 4510.0,8890.0 4518.0,8876.0 4528.0,8871.0 C 4543.0,8862.0 4543.0,8859.0 4530.0,8850.0 C 4522.0,8844.0 4505.0,8842.0 4493.0,8845.0 C 4474.0,8850.0 4470.0,8846.0 4470.0,8825.0 C 4470.0,8811.0 4477.0,8797.0 4485.0,8794.0 C 4505.0,8786.0 4504.0,8751.0 4485.0,8743.0 C 4476.0,8740.0 4462.0,8724.0 4454.0,8708.0 C 4439.0,8679.0 4439.0,8677.0 4467.0,8648.0 L 4495.0,8617.0 L 4468.0,8624.0 C 4442.0,8630.0 4440.0,8628.0 4440.0,8601.0 C 4440.0,8585.0 4447.0,8567.0 4455.0,8560.0 C 4463.0,8553.0 4470.0,8536.0 4470.0,8521.0 C 4471.0,8507.0 4476.0,8485.0 4483.0,8472.0 L 4496.0,8450.0 L 4535.0,8470.0 C 4585.0,8496.0 4586.0,8496.0 4599.0,8460.0 C 4608.0,8432.0 4608.0,8430.0 4583.0,8430.0 C 4568.0,8430.0 4546.0,8420.0 4534.0,8409.0 L 4511.0,8387.0 L 4533.0,8348.0 C 4548.0,8322.0 4564.0,8307.0 4583.0,8303.0 C 4605.0,8299.0 4608.0,8295.0 4599.0,8284.0 C 4582.0,8263.0 4612.0,8224.0 4651.0,8216.0 C 4696.0,8207.0 4700.0,8208.0 4700.0,8228.0 C 4700.0,8237.0 4709.0,8251.0 4720.0,8258.0 C 4737.0,8268.0 4740.0,8268.0 4740.0,8254.0 C 4740.0,8246.0 4745.0,8242.0 4750.0,8245.0 C 4756.0,8248.0 4760.0,8262.0 4760.0,8275.0 C 4760.0,8293.0 4764.0,8297.0 4780.0,8293.0 C 4796.0,8289.0 4800.0,8293.0 4800.0,8315.0 C 4800.0,8370.0 4822.0,8418.0 4861.0,8450.0 C 4900.0,8481.0 4900.0,8481.0 4885.0,8510.0 C 4871.0,8538.0 4857.0,8544.0 4820.0,8542.0 C 4800.0,8541.0 4790.0,8559.0 4790.0,8596.0 C 4790.0,8613.0 4783.0,8633.0 4776.0,8640.0 C 4768.0,8646.0 4760.0,8670.0 4758.0,8693.0 L 4755.0,8735.0 L 4739.0,8701.0 L 4724.0,8666.0 L 4711.0,8698.0 C 4700.0,8724.0 4692.0,8730.0 4669.0,8730.0 C 4643.0,8730.0 4640.0,8734.0 4640.0,8760.0 C 4640.0,8811.0 4594.0,8889.0 4555.0,8906.0 C 4511.0,8924.0 4510.0,8924.0 4510.0,8900.0" fill="pink"/>
	<path d="M 4303.0,8653.0 C 4282.0,8645.0 4288.0,8605.0 4314.0,8581.0 L 4337.0,8559.0 L 4344.0,8582.0 C 4354.0,8621.0 4351.0,8648.0 4334.0,8654.0 C 4325.0,8657.0 4318.0,8660.0 4317.0,8659.0 C 4316.0,8659.0 4309.0,8656.0 4303.0,8653.0" fill="pink"/>
	<path d="M 4084.0,8480.0 C 4055.0,8469.0 4063.0,8420.0 4100.0,8385.0 C 4135.0,8351.0 4130.0,8320.0 4089.0,8320.0 C 4062.0,8320.0 4062.0,8319.0 4071.0,8291.0 C 4080.0,8264.0 4084.0,8262.0 4106.0,8270.0 C 4147.0,8286.0 4198.0,8258.0 4218.0,8211.0 C 4233.0,8175.0 4263.0,8150.0 4291.0,8150.0 C 4297.0,8150.0 4300.0,8183.0 4297.0,8239.0 C 4293.0,8308.0 4288.0,8335.0 4272.0,8357.0 C 4241.0,8401.0 4203.0,8433.0 4191.0,8425.0 C 4184.0,8422.0 4180.0,8427.0 4180.0,8439.0 C 4180.0,8461.0 4145.0,8490.0 4120.0,8489.0 C 4112.0,8489.0 4096.0,8485.0 4084.0,8480.0" fill="pink"/>
	<path d="M 3800.0,8405.0 C 3775.0,8392.0 3745.0,8381.0 3733.0,8380.0 C 3697.0,8380.0 3704.0,8350.0 3740.0,8350.0 C 3757.0,8350.0 3770.0,8345.0 3770.0,8340.0 C 3770.0,8334.0 3776.0,8330.0 3783.0,8332.0 C 3789.0,8333.0 3808.0,8326.0 3823.0,8316.0 C 3851.0,8297.0 3852.0,8297.0 3872.0,8317.0 C 3892.0,8338.0 3892.0,8339.0 3875.0,8384.0 C 3865.0,8409.0 3855.0,8430.0 3851.0,8430.0 C 3848.0,8429.0 3825.0,8418.0 3800.0,8405.0" fill="pink"/>
	<path d="M 4350.0,8322.0 C 4350.0,8286.0 4355.0,8268.0 4370.0,8255.0 C 4393.0,8234.0 4396.0,8214.0 4378.0,8207.0 C 4368.0,8204.0 4368.0,8196.0 4380.0,8173.0 L 4395.0,8143.0 L 4447.0,8166.0 L 4498.0,8189.0 L 4487.0,8232.0 C 4481.0,8256.0 4467.0,8287.0 4456.0,8303.0 C 4436.0,8330.0 4378.0,8370.0 4359.0,8370.0 C 4354.0,8370.0 4350.0,8348.0 4350.0,8322.0" fill="pink"/>
	<path d="M 3698.0,8278.0 C 3679.0,8272.0 3670.0,8261.0 3670.0,8246.0 C 3670.0,8234.0 3664.0,8218.0 3658.0,8211.0 C 3647.0,8201.0 3648.0,8197.0 3663.0,8189.0 C 3672.0,8183.0 3680.0,8170.0 3680.0,8159.0 C 3680.0,8141.0 3686.0,8139.0 3727.0,8142.0 C 3772.0,8145.0 3774.0,8146.0 3787.0,8187.0 C 3796.0,8212.0 3809.0,8232.0 3821.0,8235.0 C 3833.0,8239.0 3840.0,8250.0 3840.0,8266.0 C 3840.0,8289.0 3837.0,8290.0 3783.0,8289.0 C 3751.0,8289.0 3713.0,8284.0 3698.0,8278.0" fill="pink"/>
	<path d="M 3339.0,8214.0 C 3308.0,8189.0 3274.0,8170.0 3256.0,8168.0 C 3233.0,8166.0 3224.0,8159.0 3222.0,8144.0 C 3219.0,8126.0 3210.0,8121.0 3169.0,8116.0 C 3123.0,8110.0 3120.0,8108.0 3120.0,8080.0 C 3120.0,8040.0 3122.0,8035.0 3141.0,8038.0 C 3150.0,8040.0 3160.0,8034.0 3164.0,8025.0 C 3168.0,8013.0 3174.0,8011.0 3189.0,8020.0 C 3206.0,8029.0 3209.0,8026.0 3212.0,8002.0 C 3216.0,7968.0 3250.0,7965.0 3265.0,7998.0 C 3271.0,8011.0 3283.0,8020.0 3298.0,8020.0 C 3313.0,8020.0 3327.0,8030.0 3338.0,8051.0 C 3363.0,8097.0 3387.0,8126.0 3395.0,8118.0 C 3399.0,8115.0 3395.0,8101.0 3386.0,8088.0 C 3369.0,8062.0 3375.0,8020.0 3395.0,8020.0 C 3402.0,8020.0 3424.0,8027.0 3444.0,8035.0 C 3471.0,8047.0 3480.0,8056.0 3480.0,8074.0 C 3480.0,8087.0 3487.0,8101.0 3496.0,8104.0 C 3507.0,8108.0 3510.0,8118.0 3505.0,8139.0 C 3500.0,8163.0 3503.0,8168.0 3521.0,8173.0 C 3536.0,8177.0 3541.0,8184.0 3536.0,8195.0 C 3533.0,8204.0 3530.0,8221.0 3530.0,8232.0 C 3530.0,8249.0 3525.0,8251.0 3498.0,8246.0 C 3480.0,8243.0 3449.0,8244.0 3428.0,8249.0 C 3395.0,8257.0 3388.0,8254.0 3339.0,8214.0" fill="pink"/>
	<path d="M 4140.0,8172.0 C 4140.0,8156.0 4181.0,8120.0 4200.0,8120.0 C 4224.0,8120.0 4226.0,8143.0 4204.0,8164.0 C 4188.0,8181.0 4140.0,8186.0 4140.0,8172.0" fill="pink"/>
	<path d="M 3984.0,8108.0 C 3992.0,8046.0 4004.0,8030.0 4037.0,8030.0 C 4064.0,8030.0 4064.0,8036.0 4032.0,8117.0 C 4020.0,8146.0 4009.0,8160.0 3996.0,8160.0 C 3979.0,8160.0 3978.0,8155.0 3984.0,8108.0" fill="pink"/>
	<path d="M 4481.0,8140.0 C 4443.0,8134.0 4407.0,8094.0 4431.0,8086.0 C 4509.0,8060.0 4551.0,8052.0 4555.0,8063.0 C 4558.0,8070.0 4564.0,8087.0 4569.0,8101.0 C 4578.0,8125.0 4576.0,8128.0 4547.0,8136.0 C 4529.0,8141.0 4500.0,8143.0 4481.0,8140.0" fill="pink"/>
	<path d="M 4670.0,8084.0 C 4670.0,8059.0 4677.0,8043.0 4693.0,8029.0 C 4725.0,8002.0 4730.0,8005.0 4730.0,8049.0 C 4730.0,8079.0 4724.0,8093.0 4708.0,8104.0 C 4675.0,8127.0 4670.0,8124.0 4670.0,8084.0" fill="pink"/>
	<path d="M 3460.0,7991.0 C 3460.0,7980.0 3454.0,7970.0 3447.0,7970.0 C 3439.0,7970.0 3425.0,7961.0 3415.0,7950.0 C 3400.0,7934.0 3400.0,7928.0 3410.0,7915.0 C 3421.0,7902.0 3419.0,7900.0 3397.0,7900.0 C 3364.0,7900.0 3343.0,7875.0 3360.0,7855.0 C 3371.0,7842.0 3368.0,7840.0 3342.0,7840.0 C 3295.0,7840.0 3285.0,7818.0 3319.0,7792.0 C 3335.0,7780.0 3353.0,7755.0 3360.0,7735.0 C 3371.0,7702.0 3374.0,7700.0 3416.0,7700.0 C 3453.0,7700.0 3460.0,7703.0 3460.0,7720.0 C 3460.0,7745.0 3476.0,7746.0 3482.0,7722.0 C 3486.0,7708.0 3499.0,7704.0 3550.0,7703.0 C 3620.0,7701.0 3624.0,7699.0 3616.0,7673.0 C 3611.0,7656.0 3602.0,7655.0 3545.0,7658.0 C 3510.0,7660.0 3470.0,7660.0 3456.0,7656.0 C 3434.0,7651.0 3433.0,7648.0 3442.0,7617.0 C 3449.0,7595.0 3464.0,7577.0 3484.0,7566.0 C 3515.0,7550.0 3518.0,7550.0 3569.0,7569.0 C 3597.0,7581.0 3630.0,7590.0 3641.0,7590.0 C 3652.0,7590.0 3678.0,7599.0 3699.0,7610.0 C 3730.0,7625.0 3739.0,7627.0 3743.0,7616.0 C 3746.0,7608.0 3772.0,7601.0 3806.0,7597.0 C 3854.0,7592.0 3868.0,7594.0 3892.0,7611.0 C 3907.0,7622.0 3923.0,7642.0 3926.0,7655.0 C 3929.0,7668.0 3938.0,7684.0 3946.0,7691.0 C 3965.0,7707.0 3954.0,7780.0 3928.0,7802.0 C 3913.0,7815.0 3903.0,7817.0 3884.0,7810.0 C 3851.0,7797.0 3850.0,7797.0 3850.0,7815.0 C 3850.0,7822.0 3842.0,7833.0 3833.0,7839.0 C 3817.0,7848.0 3817.0,7850.0 3832.0,7867.0 C 3846.0,7882.0 3847.0,7889.0 3835.0,7909.0 C 3826.0,7927.0 3825.0,7940.0 3833.0,7957.0 C 3840.0,7973.0 3840.0,7984.0 3830.0,7995.0 C 3818.0,8009.0 3812.0,8006.0 3773.0,7968.0 C 3750.0,7945.0 3730.0,7921.0 3730.0,7915.0 C 3730.0,7910.0 3739.0,7894.0 3750.0,7880.0 C 3767.0,7857.0 3767.0,7854.0 3753.0,7838.0 C 3741.0,7824.0 3740.0,7815.0 3749.0,7789.0 C 3755.0,7771.0 3759.0,7756.0 3758.0,7755.0 C 3756.0,7754.0 3730.0,7758.0 3700.0,7764.0 C 3653.0,7774.0 3645.0,7778.0 3642.0,7800.0 C 3640.0,7814.0 3634.0,7830.0 3629.0,7836.0 C 3624.0,7842.0 3625.0,7851.0 3631.0,7857.0 C 3646.0,7872.0 3628.0,7903.0 3585.0,7936.0 C 3566.0,7950.0 3550.0,7971.0 3550.0,7981.0 C 3550.0,7992.0 3544.0,8000.0 3536.0,8000.0 C 3529.0,8000.0 3508.0,8003.0 3491.0,8006.0 C 3464.0,8012.0 3460.0,8010.0 3460.0,7991.0" fill="pink"/>
	<path d="M 4416.0,7961.0 C 4400.0,7943.0 4400.0,7939.0 4436.0,7869.0 C 4456.0,7828.0 4474.0,7793.0 4476.0,7791.0 C 4477.0,7789.0 4500.0,7795.0 4526.0,7804.0 C 4552.0,7813.0 4574.0,7819.0 4575.0,7817.0 C 4575.0,7816.0 4593.0,7780.0 4613.0,7738.0 C 4650.0,7663.0 4651.0,7660.0 4635.0,7630.0 C 4620.0,7601.0 4620.0,7598.0 4640.0,7571.0 C 4651.0,7555.0 4660.0,7529.0 4660.0,7513.0 C 4660.0,7491.0 4667.0,7480.0 4685.0,7472.0 C 4716.0,7458.0 4799.0,7467.0 4823.0,7488.0 C 4838.0,7502.0 4840.0,7501.0 4840.0,7487.0 C 4840.0,7478.0 4845.0,7468.0 4850.0,7465.0 C 4856.0,7461.0 4918.0,7466.0 4988.0,7475.0 C 5098.0,7490.0 5117.0,7496.0 5133.0,7516.0 L 5151.0,7540.0 L 5191.0,7517.0 C 5229.0,7496.0 5232.0,7496.0 5244.0,7513.0 C 5251.0,7522.0 5264.0,7530.0 5273.0,7530.0 C 5281.0,7530.0 5293.0,7544.0 5299.0,7562.0 C 5305.0,7579.0 5320.0,7600.0 5331.0,7608.0 L 5353.0,7623.0 L 5327.0,7637.0 C 5304.0,7649.0 5302.0,7654.0 5310.0,7676.0 C 5326.0,7718.0 5322.0,7729.0 5285.0,7736.0 C 5266.0,7739.0 5250.0,7746.0 5250.0,7751.0 C 5250.0,7756.0 5239.0,7765.0 5225.0,7770.0 C 5211.0,7775.0 5197.0,7786.0 5194.0,7794.0 C 5186.0,7816.0 4966.0,7709.0 4962.0,7681.0 C 4958.0,7656.0 4947.0,7654.0 4929.0,7676.0 C 4920.0,7687.0 4907.0,7690.0 4884.0,7685.0 C 4859.0,7681.0 4849.0,7684.0 4842.0,7696.0 C 4833.0,7711.0 4831.0,7711.0 4819.0,7689.0 L 4806.0,7665.0 L 4800.0,7695.0 C 4795.0,7722.0 4790.0,7726.0 4741.0,7735.0 C 4693.0,7744.0 4689.0,7747.0 4703.0,7759.0 C 4713.0,7766.0 4720.0,7779.0 4720.0,7786.0 C 4720.0,7794.0 4729.0,7800.0 4741.0,7800.0 C 4759.0,7800.0 4756.0,7806.0 4720.0,7848.0 C 4664.0,7911.0 4643.0,7922.0 4609.0,7905.0 C 4585.0,7892.0 4582.0,7893.0 4566.0,7921.0 C 4556.0,7939.0 4540.0,7950.0 4527.0,7950.0 C 4515.0,7951.0 4494.0,7957.0 4480.0,7965.0 C 4447.0,7984.0 4436.0,7983.0 4416.0,7961.0" fill="pink"/>
	<path d="M 3292.0,7948.0 C 3247.0,7930.0 3240.0,7924.0 3246.0,7906.0 C 3257.0,7868.0 3265.0,7870.0 3315.0,7920.0 C 3369.0,7975.0 3368.0,7977.0 3292.0,7948.0" fill="pink"/>
	<path d="M 4020.0,7904.0 C 4002.0,7884.0 4025.0,7860.0 4061.0,7860.0 C 4093.0,7860.0 4096.0,7867.0 4077.0,7891.0 C 4059.0,7914.0 4033.0,7921.0 4020.0,7904.0" fill="pink"/>
	<path d="M 4297.0,7883.0 C 4284.0,7870.0 4278.0,7869.0 4266.0,7879.0 C 4257.0,7887.0 4240.0,7890.0 4226.0,7886.0 L 4201.0,7880.0 L 4221.0,7823.0 C 4231.0,7792.0 4240.0,7765.0 4240.0,7762.0 C 4240.0,7759.0 4224.0,7778.0 4205.0,7804.0 C 4160.0,7862.0 4140.0,7864.0 4140.0,7811.0 C 4140.0,7789.0 4145.0,7768.0 4150.0,7765.0 C 4165.0,7756.0 4162.0,7740.0 4146.0,7740.0 C 4126.0,7740.0 4080.0,7701.0 4080.0,7684.0 C 4080.0,7672.0 4091.0,7670.0 4143.0,7676.0 C 4177.0,7679.0 4209.0,7686.0 4215.0,7691.0 C 4245.0,7720.0 4249.0,7680.0 4219.0,7639.0 C 4203.0,7616.0 4200.0,7601.0 4205.0,7570.0 L 4212.0,7531.0 L 4258.0,7537.0 C 4327.0,7546.0 4350.0,7565.0 4350.0,7609.0 C 4350.0,7630.0 4356.0,7655.0 4364.0,7665.0 C 4374.0,7679.0 4375.0,7690.0 4368.0,7704.0 C 4362.0,7714.0 4361.0,7744.0 4364.0,7769.0 C 4369.0,7808.0 4366.0,7821.0 4342.0,7857.0 C 4316.0,7896.0 4313.0,7898.0 4297.0,7883.0" fill="pink"/>
	<path d="M 4025.0,7808.0 C 4029.0,7790.0 4034.0,7774.0 4035.0,7772.0 C 4038.0,7769.0 4099.0,7797.0 4109.0,7806.0 C 4121.0,7817.0 4083.0,7840.0 4053.0,7840.0 C 4019.0,7840.0 4019.0,7839.0 4025.0,7808.0" fill="pink"/>
	<path d="M 2877.0,7783.0 C 2873.0,7780.0 2870.0,7769.0 2870.0,7760.0 C 2870.0,7750.0 2863.0,7736.0 2854.0,7729.0 C 2842.0,7720.0 2839.0,7705.0 2843.0,7678.0 C 2847.0,7645.0 2845.0,7639.0 2813.0,7618.0 C 2794.0,7605.0 2773.0,7580.0 2765.0,7563.0 C 2757.0,7545.0 2744.0,7530.0 2735.0,7530.0 C 2715.0,7530.0 2590.0,7412.0 2590.0,7393.0 C 2590.0,7386.0 2608.0,7347.0 2630.0,7308.0 C 2671.0,7237.0 2671.0,7237.0 2655.0,7198.0 C 2647.0,7177.0 2640.0,7153.0 2640.0,7145.0 C 2640.0,7124.0 2703.0,7125.0 2735.0,7146.0 C 2750.0,7156.0 2760.0,7158.0 2760.0,7151.0 C 2760.0,7144.0 2780.0,7140.0 2810.0,7140.0 C 2860.0,7140.0 2860.0,7140.0 2885.0,7190.0 C 2899.0,7218.0 2919.0,7243.0 2928.0,7246.0 C 2965.0,7258.0 2989.0,7273.0 2992.0,7287.0 C 2996.0,7304.0 3186.0,7390.0 3221.0,7390.0 C 3249.0,7390.0 3280.0,7417.0 3280.0,7441.0 C 3280.0,7449.0 3273.0,7483.0 3264.0,7515.0 C 3247.0,7581.0 3213.0,7619.0 3169.0,7620.0 C 3134.0,7620.0 3084.0,7675.0 3076.0,7723.0 C 3069.0,7760.0 3069.0,7760.0 3022.0,7759.0 C 2996.0,7758.0 2958.0,7765.0 2938.0,7774.0 C 2897.0,7792.0 2887.0,7793.0 2877.0,7783.0" fill="pink"/>
	<path d="M 4079.0,7759.0 C 4059.0,7739.0 4059.0,7736.0 4074.0,7728.0 C 4095.0,7716.0 4120.0,7734.0 4120.0,7761.0 C 4120.0,7786.0 4105.0,7785.0 4079.0,7759.0" fill="pink"/>
	<path d="M 3980.0,7665.0 C 3980.0,7657.0 3975.0,7641.0 3968.0,7631.0 C 3954.0,7608.0 3972.0,7580.0 4001.0,7580.0 C 4017.0,7580.0 4020.0,7588.0 4020.0,7624.0 C 4020.0,7655.0 4015.0,7670.0 4004.0,7674.0 C 3982.0,7683.0 3980.0,7682.0 3980.0,7665.0" fill="pink"/>
	<path d="M 4468.0,7658.0 C 4445.0,7639.0 4414.0,7588.0 4406.0,7558.0 C 4401.0,7535.0 4406.0,7527.0 4451.0,7495.0 C 4497.0,7462.0 4506.0,7459.0 4539.0,7467.0 L 4575.0,7476.0 L 4578.0,7539.0 C 4581.0,7599.0 4579.0,7605.0 4549.0,7636.0 C 4514.0,7672.0 4493.0,7678.0 4468.0,7658.0" fill="pink"/>
	<path d="M 802.0,6848.0 C 254.0,6229.0 163.0,6122.0 172.0,6106.0 C 177.0,6096.0 190.0,6086.0 199.0,6083.0 C 212.0,6080.0 215.0,6071.0 212.0,6049.0 C 208.0,6021.0 209.0,6020.0 234.0,6030.0 C 255.0,6038.0 267.0,6036.0 285.0,6024.0 C 315.0,6004.0 315.0,6002.0 291.0,5976.0 C 273.0,5956.0 272.0,5947.0 281.0,5838.0 C 290.0,5736.0 289.0,5717.0 276.0,5698.0 C 254.0,5666.0 256.0,5660.0 289.0,5660.0 C 305.0,5660.0 331.0,5655.0 345.0,5650.0 C 366.0,5642.0 379.0,5644.0 403.0,5657.0 C 421.0,5667.0 439.0,5681.0 445.0,5688.0 C 453.0,5698.0 463.0,5697.0 497.0,5684.0 C 545.0,5665.0 555.0,5645.0 540.0,5606.0 C 525.0,5566.0 528.0,5489.0 546.0,5407.0 C 559.0,5353.0 560.0,5328.0 552.0,5305.0 C 546.0,5289.0 539.0,5222.0 535.0,5157.0 C 530.0,5067.0 524.0,5037.0 513.0,5033.0 C 505.0,5030.0 501.0,5021.0 504.0,5013.0 C 508.0,5005.0 507.0,4993.0 503.0,4987.0 C 490.0,4965.0 492.0,4901.0 506.0,4889.0 C 514.0,4883.0 520.0,4872.0 520.0,4866.0 C 520.0,4860.0 534.0,4835.0 550.0,4810.0 C 566.0,4785.0 580.0,4758.0 580.0,4749.0 C 580.0,4740.0 587.0,4727.0 595.0,4720.0 C 616.0,4703.0 614.0,4695.0 581.0,4658.0 C 566.0,4640.0 548.0,4609.0 541.0,4589.0 C 535.0,4569.0 518.0,4547.0 504.0,4540.0 C 487.0,4531.0 480.0,4520.0 483.0,4508.0 C 487.0,4495.0 482.0,4490.0 469.0,4490.0 C 459.0,4490.0 450.0,4483.0 450.0,4475.0 C 450.0,4466.0 441.0,4460.0 427.0,4460.0 C 388.0,4460.0 369.0,4429.0 365.0,4360.0 C 361.0,4304.0 373.0,4203.0 385.0,4192.0 C 388.0,4189.0 398.0,4194.0 408.0,4203.0 C 430.0,4223.0 490.0,4226.0 490.0,4208.0 C 489.0,4187.0 453.0,4150.0 435.0,4150.0 C 420.0,4150.0 419.0,4144.0 425.0,4108.0 C 429.0,4084.0 432.0,4059.0 431.0,4053.0 C 430.0,4046.0 429.0,4025.0 429.0,4008.0 C 428.0,3990.0 419.0,3966.0 409.0,3954.0 C 393.0,3937.0 392.0,3930.0 402.0,3902.0 C 414.0,3872.0 417.0,3870.0 463.0,3870.0 C 504.0,3870.0 511.0,3867.0 506.0,3854.0 C 503.0,3845.0 500.0,3835.0 500.0,3831.0 C 500.0,3826.0 471.0,3815.0 435.0,3805.0 C 365.0,3786.0 341.0,3758.0 375.0,3734.0 C 390.0,3722.0 390.0,3721.0 371.0,3711.0 C 334.0,3691.0 327.0,3664.0 345.0,3609.0 C 356.0,3576.0 367.0,3560.0 379.0,3560.0 C 388.0,3560.0 411.0,3545.0 429.0,3527.0 C 459.0,3496.0 460.0,3491.0 448.0,3465.0 C 437.0,3440.0 438.0,3436.0 468.0,3409.0 C 486.0,3393.0 509.0,3380.0 520.0,3380.0 C 532.0,3380.0 543.0,3372.0 547.0,3363.0 C 550.0,3353.0 560.0,3337.0 568.0,3327.0 C 581.0,3313.0 581.0,3306.0 571.0,3286.0 C 561.0,3268.0 561.0,3255.0 571.0,3222.0 C 582.0,3185.0 587.0,3180.0 612.0,3180.0 C 643.0,3180.0 648.0,3165.0 625.0,3140.0 C 611.0,3125.0 612.0,3120.0 630.0,3097.0 C 643.0,3081.0 657.0,3073.0 666.0,3077.0 C 678.0,3081.0 680.0,3075.0 678.0,3047.0 C 677.0,3028.0 682.0,3005.0 689.0,2996.0 C 701.0,2982.0 699.0,2980.0 674.0,2980.0 C 657.0,2980.0 650.0,2976.0 656.0,2971.0 C 672.0,2956.0 904.0,2857.0 1215.0,2733.0 C 1869.0,2471.0 2425.0,2320.0 3160.0,2205.0 C 3380.0,2170.0 3688.0,2143.0 4000.0,2131.0 C 4140.0,2125.0 4301.0,2118.0 4356.0,2115.0 L 4457.0,2109.0 L 4464.0,2150.0 C 4473.0,2205.0 4501.0,2202.0 4512.0,2145.0 C 4528.0,2064.0 4539.0,2050.0 4581.0,2050.0 C 4602.0,2050.0 4622.0,2045.0 4625.0,2039.0 C 4639.0,2017.0 4679.0,2011.0 4720.0,2025.0 C 4757.0,2038.0 4763.0,2038.0 4798.0,2018.0 C 4818.0,2006.0 4841.0,1990.0 4848.0,1981.0 C 4858.0,1968.0 4864.0,1968.0 4881.0,1978.0 C 4898.0,1989.0 4904.0,1987.0 4926.0,1960.0 C 4956.0,1925.0 5001.0,1920.0 5040.0,1947.0 C 5071.0,1969.0 5186.0,1966.0 5211.0,1944.0 C 5242.0,1916.0 5290.0,1950.0 5290.0,2000.0 C 5290.0,2020.0 5318.0,2034.0 5341.0,2025.0 C 5363.0,2017.0 5378.0,2032.0 5382.0,2064.0 C 5386.0,2103.0 5410.0,2111.0 5410.0,2073.0 L 5410.0,2045.0 L 5429.0,2073.0 C 5439.0,2089.0 5445.0,2111.0 5442.0,2125.0 C 5437.0,2155.0 5433.0,2154.0 5510.0,2134.0 C 5556.0,2123.0 5579.0,2121.0 5601.0,2129.0 C 5643.0,2143.0 5702.0,2122.0 5711.0,2088.0 C 5715.0,2074.0 5733.0,2041.0 5751.0,2016.0 L 5785.0,1969.0 L 5840.0,1973.0 C 5870.0,1975.0 5903.0,1981.0 5913.0,1985.0 C 5927.0,1991.0 5930.0,1987.0 5930.0,1964.0 C 5930.0,1946.0 5941.0,1924.0 5961.0,1904.0 C 5991.0,1873.0 5991.0,1871.0 5976.0,1842.0 C 5961.0,1812.0 5961.0,1812.0 5990.0,1802.0 C 6013.0,1794.0 6019.0,1785.0 6022.0,1758.0 C 6025.0,1728.0 6029.0,1725.0 6060.0,1722.0 C 6079.0,1720.0 6107.0,1709.0 6123.0,1698.0 C 6151.0,1678.0 6156.0,1678.0 6292.0,1689.0 C 6392.0,1698.0 6436.0,1698.0 6443.0,1691.0 C 6461.0,1673.0 6535.0,1678.0 6561.0,1699.0 L 6585.0,1718.0 L 6645.0,1661.0 C 6678.0,1629.0 6710.0,1601.0 6715.0,1599.0 C 6721.0,1597.0 6740.0,1576.0 6759.0,1552.0 C 6791.0,1511.0 6791.0,1508.0 6775.0,1490.0 C 6761.0,1475.0 6760.0,1468.0 6770.0,1449.0 C 6781.0,1430.0 6780.0,1425.0 6765.0,1414.0 C 6750.0,1403.0 6743.0,1404.0 6719.0,1421.0 C 6700.0,1435.0 6683.0,1439.0 6665.0,1434.0 C 6644.0,1429.0 6638.0,1432.0 6633.0,1449.0 C 6626.0,1476.0 6544.0,1532.0 6516.0,1528.0 C 6497.0,1525.0 6499.0,1521.0 6538.0,1479.0 C 6584.0,1428.0 6590.0,1399.0 6564.0,1348.0 C 6550.0,1321.0 6549.0,1307.0 6559.0,1249.0 C 6577.0,1138.0 6575.0,1122.0 6530.0,1069.0 C 6487.0,1017.0 6468.0,963.0 6490.0,950.0 C 6513.0,936.0 6487.0,887.0 6447.0,867.0 C 6421.0,855.0 6410.0,843.0 6410.0,827.0 C 6410.0,802.0 6444.0,775.0 6463.0,787.0 C 6469.0,791.0 6487.0,793.0 6502.0,792.0 C 6523.0,790.0 6530.0,794.0 6530.0,808.0 C 6530.0,827.0 6589.0,890.0 6607.0,890.0 C 6613.0,890.0 6630.0,910.0 6644.0,934.0 C 6675.0,987.0 6693.0,994.0 6786.0,991.0 C 6843.0,989.0 6859.0,992.0 6863.0,1004.0 C 6867.0,1014.0 6861.0,1024.0 6849.0,1031.0 C 6831.0,1040.0 6838.0,1046.0 6910.0,1081.0 C 6955.0,1102.0 7002.0,1120.0 7016.0,1120.0 C 7045.0,1120.0 7045.0,1120.0 7019.0,1165.0 C 6998.0,1200.0 6997.0,1200.0 6973.0,1184.0 C 6956.0,1173.0 6937.0,1170.0 6914.0,1175.0 C 6895.0,1178.0 6880.0,1182.0 6880.0,1184.0 C 6880.0,1210.0 6912.0,1256.0 6955.0,1293.0 C 7013.0,1344.0 7151.0,1413.0 7175.0,1403.0 C 7205.0,1392.0 7258.0,1409.0 7264.0,1432.0 C 7267.0,1444.0 7264.0,1458.0 7257.0,1462.0 C 7251.0,1466.0 7248.0,1471.0 7250.0,1473.0 C 7253.0,1475.0 7290.0,1503.0 7332.0,1534.0 C 7386.0,1574.0 7421.0,1610.0 7451.0,1656.0 C 7474.0,1692.0 7500.0,1725.0 7509.0,1729.0 C 7518.0,1734.0 7629.0,1775.0 7755.0,1820.0 C 7882.0,1866.0 7991.0,1908.0 7998.0,1913.0 C 8004.0,1918.0 8010.0,1935.0 8010.0,1951.0 C 8010.0,1970.0 8015.0,1980.0 8025.0,1980.0 C 8034.0,1980.0 8043.0,1987.0 8046.0,1995.0 C 8050.0,2005.0 8059.0,2008.0 8071.0,2005.0 C 8097.0,1996.0 8117.0,2039.0 8101.0,2069.0 C 8092.0,2086.0 8092.0,2095.0 8105.0,2112.0 C 8123.0,2139.0 8124.0,2173.0 8108.0,2203.0 C 8080.0,2255.0 8095.0,2540.0 8126.0,2540.0 C 8133.0,2540.0 8144.0,2531.0 8150.0,2520.0 C 8164.0,2493.0 8175.0,2495.0 8230.0,2530.0 C 8275.0,2559.0 8279.0,2559.0 8316.0,2547.0 C 8354.0,2534.0 8357.0,2529.0 8410.0,2402.0 L 8465.0,2270.0 L 8498.0,2276.0 C 8520.0,2280.0 8530.0,2278.0 8530.0,2270.0 C 8530.0,2263.0 8541.0,2242.0 8556.0,2223.0 C 8576.0,2196.0 8588.0,2190.0 8617.0,2190.0 C 8662.0,2190.0 8726.0,2231.0 8734.0,2266.0 C 8738.0,2280.0 8748.0,2290.0 8758.0,2290.0 C 8770.0,2290.0 8785.0,2307.0 8801.0,2341.0 C 8814.0,2369.0 8835.0,2399.0 8847.0,2407.0 C 8860.0,2416.0 8875.0,2440.0 8880.0,2461.0 C 8895.0,2516.0 8923.0,2515.0 8914.0,2460.0 C 8910.0,2438.0 8910.0,2420.0 8914.0,2420.0 C 8918.0,2420.0 8956.0,2438.0 9000.0,2460.0 C 9087.0,2504.0 9090.0,2505.0 9090.0,2490.0 C 9090.0,2485.0 9076.0,2473.0 9060.0,2465.0 C 9043.0,2456.0 9020.0,2435.0 9010.0,2417.0 C 8992.0,2388.0 8990.0,2387.0 8990.0,2408.0 C 8990.0,2452.0 8956.0,2414.0 8882.0,2285.0 C 8823.0,2184.0 8811.0,2156.0 8820.0,2144.0 C 8827.0,2137.0 8829.0,2123.0 8826.0,2114.0 C 8823.0,2105.0 8833.0,2080.0 8851.0,2054.0 C 8876.0,2017.0 8885.0,2011.0 8905.0,2016.0 C 8919.0,2019.0 8938.0,2015.0 8954.0,2004.0 C 8980.0,1988.0 8981.0,1988.0 8995.0,2006.0 C 9003.0,2016.0 9010.0,2031.0 9010.0,2039.0 C 9010.0,2047.0 9016.0,2058.0 9024.0,2064.0 C 9031.0,2070.0 9049.0,2110.0 9063.0,2153.0 C 9084.0,2216.0 9087.0,2236.0 9078.0,2255.0 C 9064.0,2286.0 9083.0,2313.0 9112.0,2304.0 C 9136.0,2297.0 9160.0,2316.0 9160.0,2345.0 C 9160.0,2360.0 9175.0,2377.0 9208.0,2399.0 C 9247.0,2426.0 9415.0,2626.0 9429.0,2662.0 C 9431.0,2668.0 9420.0,2669.0 9401.0,2665.0 C 9378.0,2660.0 9370.0,2662.0 9370.0,2673.0 C 9370.0,2695.0 9323.0,2712.0 9301.0,2698.0 C 9286.0,2689.0 9278.0,2689.0 9267.0,2698.0 C 9256.0,2708.0 9247.0,2702.0 9221.0,2670.0 C 9194.0,2636.0 9184.0,2630.0 9150.0,2630.0 C 9128.0,2630.0 9108.0,2624.0 9103.0,2616.0 C 9094.0,2602.0 8990.0,2584.0 8990.0,2598.0 C 8990.0,2602.0 8995.0,2611.0 9002.0,2618.0 C 9018.0,2634.0 8924.0,2635.0 8884.0,2620.0 C 8861.0,2611.0 8853.0,2613.0 8830.0,2635.0 C 8815.0,2649.0 8792.0,2660.0 8777.0,2660.0 C 8754.0,2660.0 8750.0,2664.0 8750.0,2690.0 C 8750.0,2720.0 8749.0,2721.0 8714.0,2714.0 C 8680.0,2708.0 8678.0,2708.0 8689.0,2728.0 C 8695.0,2739.0 8700.0,2763.0 8700.0,2780.0 C 8700.0,2814.0 8675.0,2870.0 8660.0,2870.0 C 8655.0,2870.0 8635.0,2854.0 8615.0,2833.0 C 8581.0,2798.0 8579.0,2798.0 8561.0,2814.0 C 8546.0,2828.0 8532.0,2830.0 8493.0,2825.0 L 8445.0,2819.0 L 8480.0,2849.0 C 8502.0,2869.0 8526.0,2880.0 8546.0,2880.0 C 8563.0,2880.0 8584.0,2888.0 8592.0,2898.0 C 8620.0,2930.0 8660.0,3032.0 8660.0,3071.0 C 8660.0,3106.0 8657.0,3111.0 8623.0,3125.0 C 8595.0,3137.0 8569.0,3139.0 8524.0,3135.0 L 8464.0,3128.0 L 8329.0,3006.0 C 8138.0,2832.0 8102.0,2771.0 8029.0,2506.0 C 8004.0,2414.0 7990.0,2384.0 7944.0,2319.0 C 7914.0,2275.0 7883.0,2240.0 7875.0,2240.0 C 7868.0,2240.0 7823.0,2187.0 7776.0,2123.0 C 7695.0,2012.0 7690.0,2003.0 7690.0,1955.0 C 7690.0,1910.0 7687.0,1902.0 7654.0,1877.0 C 7608.0,1840.0 7597.0,1851.0 7638.0,1893.0 C 7665.0,1921.0 7670.0,1933.0 7670.0,1976.0 C 7670.0,2036.0 7691.0,2071.0 7843.0,2258.0 C 7928.0,2362.0 7950.0,2395.0 7950.0,2419.0 C 7950.0,2437.0 7956.0,2461.0 7964.0,2473.0 C 7972.0,2485.0 7990.0,2554.0 8005.0,2625.0 C 8020.0,2697.0 8050.0,2802.0 8072.0,2859.0 C 8111.0,2958.0 8114.0,2963.0 8155.0,2981.0 L 8198.0,3000.0 L 8205.0,3097.0 L 8212.0,3195.0 L 8254.0,3236.0 C 8298.0,3280.0 8548.0,3420.0 8581.0,3420.0 C 8592.0,3420.0 8639.0,3442.0 8686.0,3470.0 C 8732.0,3497.0 8779.0,3519.0 8791.0,3517.0 C 8803.0,3516.0 8849.0,3544.0 8910.0,3590.0 L 9008.0,3665.0 L 9029.0,3745.0 C 9043.0,3798.0 9048.0,3839.0 9044.0,3867.0 C 9035.0,3925.0 9044.0,3952.0 9078.0,3972.0 C 9096.0,3983.0 9110.0,4001.0 9113.0,4019.0 C 9118.0,4040.0 9131.0,4056.0 9159.0,4072.0 C 9191.0,4091.0 9205.0,4108.0 9230.0,4164.0 C 9264.0,4242.0 9270.0,4314.0 9244.0,4324.0 C 9233.0,4328.0 9229.0,4338.0 9232.0,4355.0 C 9237.0,4378.0 9235.0,4379.0 9201.0,4374.0 C 9167.0,4369.0 9163.0,4371.0 9140.0,4409.0 C 9078.0,4511.0 8940.0,4548.0 8940.0,4463.0 C 8940.0,4449.0 8934.0,4440.0 8925.0,4440.0 C 8917.0,4440.0 8910.0,4449.0 8910.0,4460.0 C 8910.0,4473.0 8897.0,4486.0 8872.0,4499.0 C 8835.0,4518.0 8834.0,4518.0 8795.0,4498.0 C 8744.0,4472.0 8745.0,4473.0 8760.0,4455.0 C 8771.0,4442.0 8769.0,4435.0 8748.0,4412.0 C 8734.0,4397.0 8720.0,4371.0 8717.0,4353.0 C 8713.0,4335.0 8694.0,4295.0 8673.0,4264.0 L 8635.0,4206.0 L 8632.0,4258.0 C 8629.0,4305.0 8633.0,4315.0 8669.0,4364.0 C 8693.0,4396.0 8707.0,4425.0 8704.0,4434.0 C 8700.0,4444.0 8717.0,4471.0 8749.0,4508.0 C 8788.0,4553.0 8798.0,4571.0 8793.0,4589.0 C 8789.0,4606.0 8782.0,4610.0 8767.0,4606.0 C 8756.0,4603.0 8735.0,4607.0 8720.0,4615.0 C 8694.0,4629.0 8692.0,4628.0 8674.0,4594.0 C 8656.0,4561.0 8653.0,4559.0 8620.0,4566.0 C 8601.0,4570.0 8574.0,4573.0 8560.0,4572.0 C 8469.0,4566.0 8448.0,4562.0 8432.0,4547.0 C 8406.0,4523.0 8403.0,4525.0 8396.0,4568.0 C 8386.0,4628.0 8383.0,4630.0 8310.0,4615.0 C 8263.0,4605.0 8242.0,4604.0 8232.0,4613.0 C 8225.0,4619.0 8194.0,4622.0 8164.0,4621.0 C 8134.0,4620.0 8110.0,4621.0 8110.0,4625.0 C 8110.0,4628.0 8117.0,4642.0 8126.0,4655.0 C 8140.0,4677.0 8140.0,4686.0 8128.0,4742.0 C 8115.0,4803.0 8113.0,4805.0 8085.0,4804.0 C 8068.0,4803.0 8040.0,4806.0 8022.0,4812.0 C 7996.0,4820.0 7991.0,4826.0 7995.0,4840.0 C 8003.0,4865.0 7972.0,4913.0 7953.0,4906.0 C 7945.0,4903.0 7923.0,4916.0 7902.0,4936.0 C 7866.0,4971.0 7852.0,4974.0 7808.0,4955.0 C 7793.0,4949.0 7790.0,4953.0 7790.0,4982.0 C 7790.0,5011.0 7783.0,5021.0 7741.0,5053.0 C 7708.0,5079.0 7683.0,5090.0 7659.0,5090.0 C 7631.0,5090.0 7614.0,5102.0 7547.0,5168.0 L 7469.0,5245.0 L 7474.0,5145.0 C 7479.0,5047.0 7483.0,5005.0 7496.0,4907.0 C 7501.0,4864.0 7500.0,4858.0 7481.0,4853.0 C 7465.0,4849.0 7462.0,4842.0 7466.0,4825.0 C 7470.0,4809.0 7461.0,4785.0 7436.0,4746.0 C 7416.0,4715.0 7398.0,4690.0 7396.0,4690.0 C 7393.0,4690.0 7358.0,4705.0 7316.0,4724.0 L 7242.0,4758.0 L 7207.0,4735.0 C 7188.0,4722.0 7170.0,4704.0 7167.0,4695.0 C 7158.0,4674.0 7137.0,4676.0 7122.0,4700.0 C 7111.0,4717.0 7112.0,4720.0 7129.0,4720.0 C 7143.0,4720.0 7150.0,4730.0 7154.0,4756.0 C 7162.0,4796.0 7146.0,4824.0 7119.0,4817.0 C 7107.0,4814.0 7099.0,4822.0 7091.0,4850.0 C 7085.0,4870.0 7069.0,4899.0 7055.0,4914.0 C 7035.0,4935.0 7032.0,4945.0 7040.0,4955.0 C 7048.0,4965.0 7046.0,4979.0 7030.0,5009.0 C 7019.0,5032.0 7007.0,5070.0 7003.0,5095.0 C 6999.0,5130.0 6993.0,5140.0 6978.0,5140.0 C 6963.0,5140.0 6961.0,5135.0 6966.0,5115.0 C 6973.0,5085.0 6956.0,5081.0 6928.0,5107.0 C 6911.0,5122.0 6909.0,5122.0 6892.0,5107.0 C 6879.0,5095.0 6855.0,5090.0 6817.0,5090.0 L 6761.0,5090.0 L 6753.0,5131.0 C 6746.0,5167.0 6740.0,5173.0 6705.0,5186.0 C 6683.0,5193.0 6656.0,5200.0 6645.0,5200.0 C 6633.0,5200.0 6619.0,5205.0 6612.0,5212.0 C 6606.0,5218.0 6577.0,5234.0 6548.0,5246.0 L 6495.0,5268.0 L 6452.0,5233.0 C 6397.0,5188.0 6366.0,5180.0 6250.0,5180.0 C 6144.0,5180.0 6119.0,5170.0 6102.0,5121.0 C 6093.0,5096.0 6097.0,5084.0 6131.0,5027.0 C 6166.0,4969.0 6171.0,4953.0 6173.0,4891.0 C 6175.0,4833.0 6178.0,4820.0 6192.0,4820.0 C 6209.0,4820.0 6230.0,4773.0 6230.0,4735.0 C 6230.0,4724.0 6241.0,4698.0 6255.0,4679.0 C 6274.0,4654.0 6279.0,4639.0 6274.0,4620.0 C 6270.0,4606.0 6266.0,4567.0 6265.0,4532.0 C 6264.0,4484.0 6259.0,4464.0 6243.0,4449.0 C 6224.0,4429.0 6224.0,4429.0 6244.0,4386.0 C 6261.0,4348.0 6269.0,4341.0 6301.0,4337.0 C 6324.0,4334.0 6364.0,4314.0 6402.0,4286.0 C 6454.0,4250.0 6477.0,4224.0 6520.0,4154.0 L 6573.0,4067.0 L 6568.0,3935.0 L 6563.0,3802.0 L 6484.0,3687.0 C 6416.0,3587.0 6398.0,3568.0 6358.0,3549.0 C 6331.0,3537.0 6310.0,3524.0 6310.0,3520.0 C 6310.0,3507.0 6387.0,3440.0 6402.0,3440.0 C 6414.0,3440.0 6421.0,3424.0 6429.0,3379.0 C 6437.0,3333.0 6450.0,3304.0 6480.0,3264.0 C 6502.0,3235.0 6524.0,3193.0 6529.0,3170.0 C 6534.0,3147.0 6545.0,3121.0 6554.0,3111.0 C 6565.0,3099.0 6570.0,3074.0 6570.0,3028.0 C 6570.0,2982.0 6574.0,2959.0 6585.0,2950.0 C 6602.0,2936.0 6605.0,2880.0 6589.0,2880.0 C 6583.0,2880.0 6576.0,2889.0 6573.0,2900.0 C 6570.0,2911.0 6560.0,2920.0 6551.0,2920.0 C 6542.0,2920.0 6529.0,2925.0 6523.0,2931.0 C 6515.0,2939.0 6510.0,2930.0 6505.0,2894.0 C 6496.0,2825.0 6495.0,2823.0 6464.0,2816.0 C 6440.0,2810.0 6429.0,2816.0 6371.0,2874.0 C 6335.0,2910.0 6292.0,2942.0 6277.0,2946.0 C 6261.0,2949.0 6244.0,2963.0 6238.0,2975.0 C 6232.0,2988.0 6197.0,3024.0 6159.0,3055.0 C 6099.0,3105.0 6090.0,3117.0 6090.0,3146.0 C 6090.0,3165.0 6077.0,3221.0 6061.0,3272.0 C 6025.0,3388.0 6017.0,3442.0 6031.0,3473.0 C 6039.0,3492.0 6039.0,3504.0 6028.0,3525.0 C 6013.0,3552.0 6012.0,3552.0 5899.0,3555.0 C 5824.0,3556.0 5777.0,3553.0 5760.0,3545.0 C 5746.0,3538.0 5721.0,3535.0 5704.0,3537.0 C 5686.0,3540.0 5669.0,3537.0 5666.0,3531.0 C 5661.0,3524.0 5639.0,3535.0 5605.0,3561.0 C 5564.0,3591.0 5544.0,3601.0 5527.0,3596.0 C 5513.0,3593.0 5486.0,3600.0 5455.0,3615.0 C 5429.0,3629.0 5391.0,3640.0 5373.0,3640.0 C 5350.0,3640.0 5337.0,3646.0 5333.0,3658.0 C 5313.0,3713.0 5187.0,3800.0 5127.0,3800.0 C 5106.0,3800.0 5076.0,3811.0 5049.0,3830.0 C 5025.0,3846.0 4986.0,3862.0 4962.0,3866.0 C 4926.0,3871.0 4913.0,3868.0 4880.0,3846.0 C 4853.0,3829.0 4827.0,3820.0 4799.0,3820.0 C 4759.0,3820.0 4758.0,3821.0 4763.0,3849.0 C 4767.0,3868.0 4755.0,3927.0 4730.0,4017.0 C 4708.0,4093.0 4690.0,4157.0 4690.0,4159.0 C 4690.0,4161.0 4681.0,4160.0 4671.0,4157.0 C 4660.0,4154.0 4642.0,4158.0 4631.0,4166.0 C 4617.0,4177.0 4605.0,4178.0 4585.0,4170.0 C 4545.0,4155.0 4530.0,4158.0 4530.0,4182.0 C 4530.0,4194.0 4524.0,4211.0 4516.0,4219.0 C 4505.0,4232.0 4504.0,4256.0 4512.0,4350.0 C 4517.0,4413.0 4522.0,4481.0 4523.0,4500.0 C 4524.0,4519.0 4537.0,4553.0 4551.0,4575.0 C 4594.0,4641.0 4610.0,4677.0 4610.0,4708.0 C 4610.0,4725.0 4620.0,4745.0 4635.0,4760.0 C 4652.0,4776.0 4657.0,4787.0 4650.0,4795.0 C 4643.0,4803.0 4656.0,4824.0 4690.0,4862.0 C 4718.0,4893.0 4740.0,4923.0 4740.0,4929.0 C 4740.0,4935.0 4746.0,4940.0 4753.0,4940.0 C 4760.0,4940.0 4771.0,4945.0 4778.0,4952.0 C 4787.0,4961.0 4783.0,4967.0 4760.0,4976.0 C 4714.0,4996.0 4724.0,5010.0 4783.0,5010.0 C 4839.0,5010.0 4862.0,5025.0 4889.0,5077.0 C 4899.0,5096.0 4895.0,5103.0 4856.0,5134.0 C 4822.0,5163.0 4804.0,5170.0 4771.0,5170.0 C 4743.0,5170.0 4717.0,5178.0 4692.0,5195.0 C 4672.0,5209.0 4643.0,5220.0 4627.0,5220.0 C 4597.0,5220.0 4594.0,5236.0 4621.0,5253.0 C 4632.0,5260.0 4649.0,5255.0 4681.0,5234.0 C 4705.0,5219.0 4745.0,5203.0 4770.0,5199.0 C 4795.0,5195.0 4829.0,5187.0 4846.0,5179.0 C 4874.0,5168.0 4881.0,5169.0 4907.0,5188.0 C 4925.0,5201.0 4940.0,5222.0 4943.0,5240.0 C 4949.0,5268.0 4952.0,5270.0 4995.0,5270.0 C 5033.0,5270.0 5046.0,5276.0 5080.0,5306.0 C 5102.0,5326.0 5120.0,5351.0 5120.0,5362.0 C 5120.0,5372.0 5129.0,5393.0 5140.0,5408.0 C 5151.0,5424.0 5160.0,5455.0 5162.0,5485.0 L 5165.0,5535.0 L 5091.0,5543.0 C 5029.0,5550.0 5010.0,5557.0 4972.0,5586.0 C 4939.0,5611.0 4917.0,5620.0 4889.0,5620.0 C 4857.0,5620.0 4850.0,5623.0 4850.0,5640.0 C 4850.0,5657.0 4857.0,5660.0 4895.0,5660.0 C 4949.0,5660.0 5010.0,5632.0 5034.0,5596.0 C 5048.0,5574.0 5058.0,5570.0 5101.0,5570.0 C 5147.0,5570.0 5156.0,5574.0 5186.0,5607.0 C 5214.0,5637.0 5260.0,5747.0 5248.0,5754.0 C 5246.0,5755.0 5228.0,5763.0 5208.0,5773.0 C 5153.0,5797.0 5161.0,5810.0 5230.0,5810.0 C 5283.0,5810.0 5290.0,5808.0 5290.0,5790.0 C 5290.0,5760.0 5356.0,5761.0 5365.0,5791.0 C 5371.0,5810.0 5373.0,5810.0 5389.0,5796.0 C 5406.0,5781.0 5430.0,5774.0 5430.0,5785.0 C 5430.0,5788.0 5422.0,5802.0 5413.0,5816.0 C 5399.0,5838.0 5399.0,5843.0 5411.0,5850.0 C 5419.0,5856.0 5430.0,5854.0 5440.0,5845.0 C 5453.0,5834.0 5460.0,5836.0 5486.0,5858.0 C 5505.0,5874.0 5523.0,5903.0 5531.0,5928.0 C 5538.0,5951.0 5549.0,5975.0 5557.0,5981.0 C 5565.0,5988.0 5570.0,6013.0 5570.0,6046.0 C 5570.0,6098.0 5568.0,6101.0 5530.0,6126.0 C 5503.0,6144.0 5490.0,6160.0 5490.0,6175.0 C 5490.0,6188.0 5477.0,6209.0 5460.0,6223.0 C 5423.0,6254.0 5422.0,6270.0 5455.0,6270.0 C 5476.0,6270.0 5484.0,6279.0 5501.0,6317.0 C 5517.0,6354.0 5518.0,6365.0 5508.0,6372.0 C 5501.0,6376.0 5492.0,6380.0 5489.0,6380.0 C 5486.0,6380.0 5485.0,6394.0 5488.0,6410.0 C 5492.0,6439.0 5491.0,6441.0 5467.0,6435.0 C 5450.0,6430.0 5430.0,6434.0 5411.0,6446.0 C 5386.0,6461.0 5382.0,6469.0 5387.0,6489.0 C 5393.0,6512.0 5391.0,6513.0 5360.0,6507.0 C 5342.0,6503.0 5310.0,6505.0 5289.0,6510.0 C 5261.0,6518.0 5238.0,6518.0 5209.0,6510.0 C 5170.0,6499.0 5168.0,6497.0 5174.0,6468.0 C 5177.0,6451.0 5180.0,6429.0 5180.0,6418.0 C 5180.0,6408.0 5193.0,6387.0 5210.0,6372.0 C 5231.0,6353.0 5237.0,6341.0 5230.0,6330.0 C 5225.0,6322.0 5225.0,6309.0 5231.0,6298.0 C 5239.0,6283.0 5237.0,6280.0 5220.0,6280.0 C 5202.0,6280.0 5200.0,6274.0 5200.0,6207.0 C 5200.0,6158.0 5195.0,6127.0 5185.0,6114.0 C 5177.0,6104.0 5168.0,6073.0 5164.0,6047.0 C 5160.0,6019.0 5151.0,5996.0 5143.0,5993.0 C 5135.0,5990.0 5124.0,5977.0 5119.0,5964.0 C 5107.0,5932.0 5092.0,5934.0 5084.0,5968.0 C 5080.0,5983.0 5062.0,6015.0 5044.0,6040.0 C 5005.0,6094.0 4996.0,6127.0 5009.0,6160.0 C 5016.0,6178.0 5019.0,6180.0 5019.0,6168.0 C 5020.0,6147.0 5036.0,6144.0 5043.0,6163.0 C 5054.0,6192.0 5025.0,6253.0 4983.0,6287.0 C 4959.0,6307.0 4940.0,6331.0 4940.0,6341.0 C 4940.0,6366.0 4932.0,6365.0 4910.0,6338.0 C 4897.0,6322.0 4889.0,6290.0 4885.0,6233.0 C 4880.0,6173.0 4874.0,6150.0 4864.0,6150.0 C 4856.0,6150.0 4848.0,6168.0 4844.0,6199.0 C 4840.0,6227.0 4826.0,6266.0 4809.0,6291.0 C 4783.0,6330.0 4782.0,6335.0 4796.0,6361.0 C 4815.0,6398.0 4814.0,6400.0 4787.0,6400.0 C 4774.0,6400.0 4759.0,6405.0 4752.0,6412.0 C 4744.0,6420.0 4737.0,6420.0 4725.0,6410.0 C 4712.0,6399.0 4705.0,6401.0 4684.0,6421.0 L 4659.0,6444.0 L 4682.0,6462.0 C 4700.0,6475.0 4703.0,6481.0 4693.0,6491.0 C 4673.0,6511.0 4678.0,6527.0 4701.0,6526.0 C 4729.0,6525.0 4737.0,6546.0 4712.0,6554.0 C 4686.0,6563.0 4630.0,6674.0 4630.0,6718.0 C 4630.0,6763.0 4566.0,6872.0 4544.0,6863.0 C 4536.0,6860.0 4523.0,6865.0 4516.0,6875.0 C 4503.0,6894.0 4480.0,6888.0 4480.0,6867.0 C 4480.0,6860.0 4471.0,6849.0 4459.0,6842.0 C 4443.0,6831.0 4441.0,6826.0 4450.0,6815.0 C 4467.0,6795.0 4456.0,6772.0 4428.0,6768.0 C 4408.0,6765.0 4404.0,6757.0 4399.0,6712.0 C 4395.0,6683.0 4389.0,6656.0 4386.0,6653.0 C 4383.0,6649.0 4389.0,6640.0 4401.0,6632.0 L 4421.0,6618.0 L 4399.0,6594.0 C 4365.0,6558.0 4378.0,6506.0 4434.0,6453.0 C 4459.0,6429.0 4487.0,6410.0 4498.0,6410.0 C 4508.0,6410.0 4522.0,6399.0 4527.0,6387.0 C 4536.0,6368.0 4544.0,6364.0 4569.0,6368.0 C 4588.0,6370.0 4600.0,6368.0 4600.0,6361.0 C 4600.0,6355.0 4588.0,6350.0 4572.0,6350.0 C 4549.0,6350.0 4543.0,6344.0 4532.0,6310.0 C 4518.0,6265.0 4525.0,6220.0 4545.0,6220.0 C 4553.0,6220.0 4560.0,6232.0 4562.0,6248.0 C 4567.0,6289.0 4585.0,6276.0 4588.0,6229.0 C 4590.0,6199.0 4586.0,6182.0 4572.0,6166.0 C 4562.0,6155.0 4547.0,6130.0 4540.0,6113.0 C 4529.0,6085.0 4523.0,6080.0 4494.0,6080.0 L 4460.0,6080.0 L 4460.0,5994.0 L 4460.0,5908.0 L 4428.0,5927.0 C 4398.0,5944.0 4395.0,5951.0 4393.0,5998.0 C 4392.0,6026.0 4395.0,6052.0 4400.0,6055.0 C 4406.0,6059.0 4410.0,6076.0 4410.0,6094.0 C 4410.0,6124.0 4407.0,6128.0 4375.0,6133.0 C 4356.0,6136.0 4325.0,6151.0 4305.0,6166.0 C 4271.0,6192.0 4270.0,6192.0 4270.0,6171.0 C 4270.0,6155.0 4264.0,6150.0 4245.0,6150.0 C 4231.0,6150.0 4220.0,6145.0 4220.0,6140.0 C 4220.0,6128.0 4269.0,6080.0 4281.0,6080.0 C 4285.0,6080.0 4299.0,6066.0 4311.0,6049.0 C 4329.0,6024.0 4330.0,6016.0 4319.0,6009.0 C 4310.0,6004.0 4298.0,6007.0 4285.0,6019.0 C 4274.0,6028.0 4252.0,6042.0 4236.0,6049.0 C 4211.0,6059.0 4205.0,6059.0 4198.0,6046.0 C 4186.0,6025.0 4164.0,6026.0 4125.0,6050.0 C 4099.0,6066.0 4087.0,6068.0 4065.0,6060.0 C 4051.0,6055.0 4013.0,6050.0 3981.0,6050.0 C 3928.0,6050.0 3922.0,6052.0 3885.0,6091.0 C 3858.0,6118.0 3839.0,6129.0 3826.0,6126.0 C 3801.0,6120.0 3760.0,6136.0 3760.0,6153.0 C 3760.0,6161.0 3751.0,6175.0 3740.0,6185.0 C 3730.0,6194.0 3718.0,6222.0 3714.0,6246.0 C 3705.0,6306.0 3677.0,6342.0 3647.0,6331.0 C 3635.0,6326.0 3594.0,6317.0 3555.0,6311.0 C 3511.0,6303.0 3477.0,6291.0 3463.0,6278.0 C 3443.0,6259.0 3442.0,6256.0 3457.0,6234.0 C 3474.0,6208.0 3517.0,6201.0 3526.0,6223.0 C 3528.0,6230.0 3542.0,6237.0 3556.0,6238.0 C 3570.0,6239.0 3597.0,6247.0 3616.0,6256.0 C 3653.0,6274.0 3680.0,6269.0 3680.0,6245.0 C 3680.0,6230.0 3592.0,6180.0 3564.0,6180.0 C 3533.0,6180.0 3469.0,6137.0 3475.0,6120.0 C 3486.0,6094.0 3500.0,6009.0 3500.0,5973.0 C 3500.0,5942.0 3498.0,5940.0 3479.0,5951.0 C 3460.0,5961.0 3459.0,5959.0 3465.0,5941.0 C 3470.0,5926.0 3467.0,5920.0 3455.0,5920.0 C 3434.0,5920.0 3426.0,5944.0 3437.0,5977.0 C 3450.0,6017.0 3437.0,6082.0 3411.0,6098.0 C 3400.0,6106.0 3390.0,6121.0 3390.0,6131.0 C 3390.0,6142.0 3384.0,6150.0 3376.0,6150.0 C 3368.0,6150.0 3358.0,6159.0 3355.0,6170.0 C 3348.0,6192.0 3314.0,6215.0 3306.0,6202.0 C 3303.0,6197.0 3262.0,6196.0 3214.0,6198.0 C 3142.0,6202.0 3113.0,6209.0 3053.0,6236.0 C 3012.0,6255.0 2968.0,6270.0 2954.0,6270.0 C 2926.0,6270.0 2922.0,6294.0 2945.0,6326.0 C 2955.0,6341.0 2967.0,6346.0 2984.0,6343.0 C 3043.0,6331.0 3067.0,6381.0 3036.0,6453.0 C 3018.0,6497.0 2992.0,6517.0 2943.0,6525.0 C 2891.0,6533.0 2796.0,6598.0 2792.0,6627.0 C 2790.0,6640.0 2768.0,6662.0 2739.0,6682.0 C 2701.0,6707.0 2681.0,6730.0 2655.0,6781.0 C 2616.0,6857.0 2604.0,6869.0 2556.0,6877.0 C 2529.0,6881.0 2520.0,6879.0 2520.0,6869.0 C 2520.0,6861.0 2509.0,6848.0 2497.0,6839.0 C 2477.0,6824.0 2470.0,6824.0 2442.0,6836.0 C 2405.0,6851.0 2401.0,6865.0 2430.0,6880.0 C 2443.0,6887.0 2450.0,6901.0 2450.0,6920.0 C 2450.0,6939.0 2457.0,6954.0 2470.0,6962.0 C 2491.0,6975.0 2497.0,7005.0 2481.0,7014.0 C 2476.0,7018.0 2460.0,7007.0 2447.0,6990.0 C 2433.0,6974.0 2415.0,6960.0 2406.0,6960.0 C 2398.0,6960.0 2383.0,6949.0 2372.0,6935.0 C 2361.0,6921.0 2345.0,6910.0 2336.0,6910.0 C 2322.0,6910.0 2320.0,6928.0 2320.0,7045.0 C 2320.0,7173.0 2319.0,7180.0 2300.0,7180.0 C 2284.0,7180.0 2280.0,7173.0 2280.0,7144.0 C 2280.0,7123.0 2276.0,7111.0 2270.0,7115.0 C 2252.0,7126.0 2220.0,7109.0 2220.0,7089.0 C 2220.0,7077.0 2213.0,7070.0 2200.0,7070.0 C 2189.0,7070.0 2180.0,7076.0 2180.0,7084.0 C 2180.0,7105.0 2087.0,7116.0 2049.0,7100.0 C 2026.0,7090.0 2016.0,7090.0 2007.0,7099.0 C 2001.0,7105.0 1980.0,7110.0 1961.0,7110.0 C 1922.0,7110.0 1840.0,7082.0 1840.0,7069.0 C 1840.0,7053.0 1802.0,7060.0 1796.0,7077.0 C 1785.0,7104.0 1810.0,7119.0 1893.0,7137.0 C 1956.0,7150.0 1974.0,7151.0 1993.0,7141.0 C 2028.0,7122.0 2154.0,7139.0 2158.0,7163.0 C 2161.0,7176.0 2155.0,7180.0 2131.0,7180.0 C 2112.0,7180.0 2100.0,7185.0 2100.0,7193.0 C 2100.0,7209.0 1904.0,7206.0 1884.0,7190.0 C 1876.0,7182.0 1865.0,7182.0 1853.0,7188.0 C 1840.0,7195.0 1817.0,7192.0 1775.0,7179.0 C 1698.0,7155.0 1630.0,7161.0 1630.0,7193.0 C 1630.0,7205.0 1611.0,7233.0 1589.0,7256.0 C 1549.0,7297.0 1531.0,7341.0 1527.0,7410.0 C 1525.0,7432.0 1491.0,7499.0 1455.0,7553.0 C 1444.0,7569.0 1370.0,7489.0 802.0,6848.0" fill="pink"/>
	<path d="M 5430.0,7379.0 C 5416.0,7373.0 5388.0,7371.0 5368.0,7374.0 C 5339.0,7379.0 5330.0,7377.0 5330.0,7366.0 C 5330.0,7341.0 5350.0,7298.0 5374.0,7269.0 C 5388.0,7253.0 5401.0,7227.0 5405.0,7210.0 C 5409.0,7194.0 5418.0,7180.0 5425.0,7180.0 C 5452.0,7180.0 5470.0,7192.0 5470.0,7210.0 C 5470.0,7238.0 5489.0,7245.0 5555.0,7242.0 C 5604.0,7239.0 5619.0,7242.0 5633.0,7258.0 C 5650.0,7276.0 5648.0,7279.0 5586.0,7334.0 C 5518.0,7393.0 5488.0,7402.0 5430.0,7379.0" fill="pink"/>
	<path d="M 3282.0,7352.0 C 3240.0,7331.0 3227.0,7328.0 3221.0,7339.0 C 3215.0,7349.0 3194.0,7342.0 3131.0,7311.0 C 3062.0,7276.0 3050.0,7266.0 3050.0,7245.0 C 3050.0,7231.0 3046.0,7220.0 3041.0,7220.0 C 3037.0,7220.0 3012.0,7204.0 2986.0,7185.0 C 2938.0,7148.0 2926.0,7120.0 2959.0,7120.0 C 2985.0,7120.0 3003.0,7097.0 2989.0,7083.0 C 2966.0,7060.0 2992.0,7050.0 3076.0,7050.0 C 3153.0,7050.0 3160.0,7048.0 3160.0,7030.0 C 3160.0,7011.0 3153.0,7010.0 3069.0,7010.0 C 2995.0,7010.0 2956.0,7003.0 2933.0,6986.0 C 2932.0,6985.0 2937.0,6964.0 2944.0,6940.0 C 2957.0,6897.0 2960.0,6894.0 3021.0,6871.0 C 3056.0,6858.0 3110.0,6845.0 3141.0,6843.0 C 3189.0,6839.0 3199.0,6835.0 3213.0,6810.0 C 3222.0,6795.0 3242.0,6779.0 3257.0,6775.0 C 3292.0,6767.0 3330.0,6732.0 3330.0,6708.0 C 3330.0,6672.0 3253.0,6687.0 3203.0,6732.0 C 3175.0,6758.0 3082.0,6780.0 2999.0,6780.0 L 2932.0,6780.0 L 2926.0,6746.0 C 2921.0,6721.0 2926.0,6695.0 2943.0,6653.0 C 2965.0,6598.0 2969.0,6593.0 3038.0,6557.0 C 3094.0,6528.0 3110.0,6514.0 3110.0,6497.0 C 3110.0,6475.0 3135.0,6371.0 3142.0,6364.0 C 3144.0,6362.0 3201.0,6352.0 3267.0,6342.0 L 3389.0,6323.0 L 3435.0,6352.0 C 3477.0,6378.0 3484.0,6380.0 3523.0,6369.0 C 3565.0,6358.0 3565.0,6358.0 3601.0,6399.0 C 3638.0,6441.0 3670.0,6452.0 3670.0,6425.0 C 3670.0,6402.0 3721.0,6361.0 3749.0,6360.0 C 3772.0,6360.0 3772.0,6359.0 3757.0,6342.0 C 3732.0,6315.0 3736.0,6310.0 3780.0,6310.0 C 3803.0,6310.0 3832.0,6303.0 3845.0,6294.0 C 3868.0,6279.0 3876.0,6279.0 3922.0,6292.0 C 3971.0,6305.0 3975.0,6309.0 3984.0,6345.0 C 3991.0,6377.0 3990.0,6385.0 3974.0,6397.0 C 3951.0,6414.0 3940.0,6414.0 3940.0,6396.0 C 3940.0,6388.0 3933.0,6380.0 3925.0,6376.0 C 3914.0,6372.0 3910.0,6377.0 3910.0,6394.0 C 3910.0,6408.0 3907.0,6425.0 3904.0,6433.0 C 3900.0,6444.0 3904.0,6447.0 3917.0,6444.0 C 3928.0,6441.0 3943.0,6447.0 3954.0,6459.0 C 3973.0,6480.0 4000.0,6487.0 4000.0,6473.0 C 4000.0,6468.0 4005.0,6458.0 4010.0,6450.0 C 4018.0,6437.0 4021.0,6438.0 4035.0,6455.0 C 4047.0,6469.0 4053.0,6471.0 4056.0,6463.0 C 4068.0,6436.0 4080.0,6452.0 4080.0,6493.0 C 4080.0,6532.0 4077.0,6537.0 4047.0,6548.0 C 4025.0,6556.0 4007.0,6574.0 3990.0,6605.0 C 3972.0,6638.0 3961.0,6648.0 3948.0,6644.0 C 3935.0,6640.0 3924.0,6653.0 3899.0,6701.0 C 3868.0,6763.0 3868.0,6766.0 3863.0,6944.0 L 3859.0,7125.0 L 3823.0,7187.0 C 3790.0,7243.0 3784.0,7248.0 3748.0,7252.0 C 3703.0,7256.0 3704.0,7258.0 3695.0,7138.0 C 3691.0,7089.0 3684.0,7048.0 3680.0,7045.0 C 3675.0,7042.0 3677.0,7022.0 3685.0,7000.0 C 3698.0,6963.0 3698.0,6960.0 3679.0,6949.0 C 3667.0,6943.0 3656.0,6941.0 3652.0,6944.0 C 3649.0,6948.0 3643.0,6990.0 3640.0,7038.0 C 3629.0,7176.0 3580.0,7273.0 3544.0,7225.0 C 3531.0,7207.0 3531.0,7204.0 3546.0,7193.0 C 3555.0,7186.0 3567.0,7179.0 3573.0,7177.0 C 3594.0,7170.0 3568.0,7150.0 3539.0,7150.0 C 3522.0,7150.0 3507.0,7144.0 3504.0,7135.0 C 3500.0,7127.0 3486.0,7120.0 3472.0,7120.0 C 3447.0,7120.0 3447.0,7120.0 3465.0,7140.0 C 3483.0,7160.0 3483.0,7162.0 3460.0,7209.0 C 3448.0,7236.0 3427.0,7263.0 3414.0,7269.0 C 3392.0,7278.0 3388.0,7276.0 3367.0,7245.0 C 3351.0,7219.0 3338.0,7210.0 3318.0,7210.0 C 3280.0,7210.0 3283.0,7224.0 3326.0,7251.0 C 3361.0,7272.0 3362.0,7274.0 3355.0,7319.0 C 3351.0,7344.0 3345.0,7368.0 3342.0,7371.0 C 3338.0,7375.0 3311.0,7366.0 3282.0,7352.0" fill="pink"/>
	<path d="M 4544.0,7356.0 C 4500.0,7340.0 4478.0,7319.0 4483.0,7298.0 C 4487.0,7285.0 4483.0,7280.0 4469.0,7280.0 C 4451.0,7280.0 4450.0,7272.0 4450.0,7168.0 C 4451.0,7089.0 4455.0,7047.0 4465.0,7030.0 C 4473.0,7016.0 4479.0,6988.0 4480.0,6967.0 C 4480.0,6936.0 4484.0,6928.0 4507.0,6919.0 C 4527.0,6912.0 4537.0,6913.0 4547.0,6923.0 C 4566.0,6942.0 4582.0,7015.0 4574.0,7047.0 C 4567.0,7074.0 4572.0,7075.0 4635.0,7055.0 C 4651.0,7050.0 4662.0,7058.0 4688.0,7094.0 C 4706.0,7118.0 4720.0,7148.0 4720.0,7159.0 C 4720.0,7171.0 4731.0,7203.0 4745.0,7230.0 C 4759.0,7257.0 4770.0,7288.0 4770.0,7300.0 C 4770.0,7318.0 4764.0,7320.0 4718.0,7320.0 C 4680.0,7320.0 4653.0,7327.0 4621.0,7345.0 C 4598.0,7359.0 4577.0,7369.0 4576.0,7369.0 C 4576.0,7368.0 4561.0,7363.0 4544.0,7356.0" fill="pink"/>
	<path d="M 5177.0,7353.0 C 5175.0,7349.0 5170.0,7334.0 5167.0,7320.0 C 5163.0,7304.0 5148.0,7288.0 5127.0,7278.0 C 5096.0,7263.0 5092.0,7257.0 5087.0,7208.0 C 5083.0,7179.0 5080.0,7132.0 5080.0,7104.0 C 5080.0,7060.0 5083.0,7052.0 5104.0,7042.0 L 5128.0,7031.0 L 5108.0,6991.0 C 5095.0,6965.0 5090.0,6941.0 5094.0,6925.0 C 5099.0,6904.0 5106.0,6900.0 5139.0,6900.0 L 5178.0,6900.0 L 5182.0,6845.0 C 5185.0,6793.0 5184.0,6790.0 5161.0,6790.0 C 5141.0,6790.0 5139.0,6794.0 5144.0,6814.0 C 5149.0,6834.0 5141.0,6847.0 5098.0,6888.0 C 5047.0,6936.0 5046.0,6940.0 5037.0,7011.0 C 5020.0,7153.0 5020.0,7228.0 5036.0,7234.0 C 5050.0,7239.0 5058.0,7256.0 5074.0,7308.0 C 5081.0,7329.0 5079.0,7330.0 5013.0,7330.0 L 4945.0,7329.0 L 4900.0,7269.0 C 4875.0,7235.0 4849.0,7201.0 4843.0,7191.0 C 4834.0,7179.0 4833.0,7165.0 4840.0,7140.0 C 4848.0,7112.0 4846.0,7097.0 4826.0,7054.0 C 4811.0,7021.0 4805.0,6998.0 4811.0,6989.0 C 4816.0,6981.0 4820.0,6932.0 4820.0,6879.0 C 4820.0,6769.0 4818.0,6771.0 4917.0,6775.0 C 4962.0,6777.0 4971.0,6774.0 4984.0,6754.0 C 4999.0,6733.0 4998.0,6731.0 4979.0,6725.0 C 4968.0,6721.0 4949.0,6725.0 4936.0,6734.0 C 4917.0,6746.0 4909.0,6747.0 4895.0,6737.0 C 4880.0,6725.0 4880.0,6721.0 4896.0,6680.0 C 4906.0,6655.0 4920.0,6631.0 4929.0,6626.0 C 4937.0,6621.0 4954.0,6606.0 4966.0,6593.0 C 4996.0,6561.0 5052.0,6564.0 5060.0,6598.0 C 5065.0,6620.0 5066.0,6620.0 5105.0,6580.0 C 5149.0,6535.0 5155.0,6533.0 5190.0,6559.0 C 5212.0,6577.0 5215.0,6577.0 5226.0,6562.0 C 5237.0,6547.0 5244.0,6547.0 5285.0,6558.0 C 5323.0,6568.0 5339.0,6568.0 5367.0,6558.0 C 5398.0,6547.0 5403.0,6547.0 5415.0,6563.0 C 5427.0,6580.0 5430.0,6580.0 5459.0,6566.0 L 5490.0,6550.0 L 5484.0,6579.0 C 5478.0,6606.0 5480.0,6608.0 5516.0,6612.0 C 5538.0,6615.0 5560.0,6613.0 5567.0,6608.0 C 5574.0,6602.0 5588.0,6605.0 5605.0,6616.0 C 5632.0,6634.0 5632.0,6634.0 5585.0,6689.0 L 5565.0,6713.0 L 5590.0,6707.0 C 5604.0,6703.0 5630.0,6700.0 5648.0,6700.0 C 5676.0,6700.0 5683.0,6695.0 5702.0,6655.0 C 5716.0,6626.0 5731.0,6610.0 5742.0,6610.0 C 5752.0,6610.0 5760.0,6606.0 5760.0,6600.0 C 5760.0,6595.0 5772.0,6590.0 5786.0,6590.0 C 5801.0,6590.0 5830.0,6580.0 5851.0,6568.0 C 5882.0,6551.0 5890.0,6540.0 5890.0,6518.0 C 5890.0,6497.0 5884.0,6489.0 5864.0,6484.0 C 5844.0,6479.0 5840.0,6472.0 5842.0,6451.0 C 5844.0,6433.0 5852.0,6424.0 5867.0,6422.0 C 5885.0,6419.0 5893.0,6427.0 5905.0,6458.0 C 5919.0,6492.0 5924.0,6496.0 5948.0,6492.0 C 5963.0,6490.0 5986.0,6477.0 6000.0,6464.0 C 6017.0,6448.0 6030.0,6444.0 6040.0,6450.0 C 6050.0,6456.0 6057.0,6452.0 6065.0,6437.0 C 6070.0,6425.0 6096.0,6404.0 6122.0,6390.0 C 6151.0,6375.0 6190.0,6338.0 6224.0,6296.0 C 6275.0,6233.0 6279.0,6225.0 6265.0,6210.0 C 6256.0,6200.0 6250.0,6174.0 6250.0,6147.0 C 6250.0,6109.0 6243.0,6090.0 6215.0,6051.0 C 6169.0,5987.0 6170.0,5968.0 6223.0,5932.0 C 6246.0,5916.0 6274.0,5893.0 6284.0,5881.0 C 6300.0,5863.0 6301.0,5860.0 6287.0,5860.0 C 6278.0,5860.0 6259.0,5849.0 6244.0,5835.0 C 6229.0,5821.0 6211.0,5810.0 6205.0,5810.0 C 6198.0,5810.0 6190.0,5804.0 6187.0,5796.0 C 6180.0,5777.0 6118.0,5760.0 6058.0,5760.0 C 5990.0,5760.0 5979.0,5754.0 5991.0,5723.0 C 6001.0,5697.0 5998.0,5694.0 5946.0,5658.0 C 5940.0,5654.0 5942.0,5640.0 5950.0,5620.0 C 5989.0,5527.0 6057.0,5499.0 6135.0,5545.0 C 6184.0,5573.0 6184.0,5573.0 6170.0,5600.0 C 6157.0,5625.0 6183.0,5633.0 6230.0,5620.0 C 6249.0,5614.0 6266.0,5610.0 6267.0,5610.0 C 6269.0,5610.0 6270.0,5619.0 6270.0,5629.0 C 6270.0,5639.0 6279.0,5658.0 6289.0,5671.0 L 6308.0,5695.0 L 6321.0,5667.0 C 6334.0,5638.0 6338.0,5636.0 6359.0,5649.0 C 6369.0,5656.0 6393.0,5645.0 6439.0,5614.0 C 6494.0,5577.0 6513.0,5570.0 6552.0,5570.0 L 6600.0,5570.0 L 6600.0,5525.0 C 6600.0,5467.0 6619.0,5457.0 6735.0,5455.0 C 6798.0,5454.0 6834.0,5449.0 6857.0,5437.0 C 6893.0,5418.0 6944.0,5416.0 7038.0,5430.0 C 7085.0,5436.0 7113.0,5435.0 7148.0,5425.0 C 7189.0,5412.0 7196.0,5413.0 7212.0,5427.0 C 7228.0,5442.0 7228.0,5444.0 7209.0,5481.0 C 7196.0,5507.0 7183.0,5520.0 7169.0,5520.0 C 7158.0,5520.0 7134.0,5531.0 7117.0,5544.0 C 7084.0,5569.0 6993.0,5600.0 6954.0,5600.0 C 6940.0,5600.0 6917.0,5617.0 6891.0,5649.0 L 6850.0,5698.0 L 6900.0,5685.0 C 6928.0,5678.0 6974.0,5662.0 7003.0,5650.0 C 7049.0,5631.0 7062.0,5630.0 7110.0,5638.0 C 7158.0,5647.0 7169.0,5646.0 7198.0,5628.0 L 7230.0,5608.0 L 7230.0,5659.0 C 7230.0,5698.0 7226.0,5710.0 7212.0,5714.0 C 7202.0,5718.0 7183.0,5734.0 7171.0,5751.0 L 7148.0,5782.0 L 7171.0,5775.0 C 7184.0,5771.0 7201.0,5765.0 7207.0,5763.0 C 7217.0,5759.0 7217.0,5765.0 7209.0,5787.0 C 7203.0,5806.0 7186.0,5823.0 7165.0,5833.0 C 7146.0,5842.0 7130.0,5856.0 7130.0,5864.0 C 7130.0,5873.0 7113.0,5884.0 7090.0,5891.0 C 7053.0,5902.0 7051.0,5905.0 7065.0,5920.0 C 7078.0,5934.0 7078.0,5939.0 7067.0,5948.0 C 7060.0,5954.0 7045.0,5957.0 7033.0,5954.0 C 7018.0,5950.0 7007.0,5957.0 6990.0,5980.0 C 6969.0,6010.0 6964.0,6012.0 6924.0,6006.0 C 6882.0,6001.0 6879.0,6002.0 6854.0,6039.0 C 6825.0,6084.0 6795.0,6096.0 6763.0,6075.0 C 6734.0,6056.0 6730.0,6056.0 6730.0,6079.0 C 6730.0,6091.0 6719.0,6102.0 6700.0,6109.0 C 6680.0,6116.0 6670.0,6126.0 6670.0,6140.0 C 6670.0,6159.0 6672.0,6160.0 6698.0,6147.0 C 6726.0,6133.0 6760.0,6135.0 6760.0,6150.0 C 6760.0,6162.0 6719.0,6200.0 6706.0,6200.0 C 6700.0,6200.0 6701.0,6204.0 6709.0,6209.0 C 6721.0,6217.0 6722.0,6224.0 6713.0,6243.0 C 6706.0,6257.0 6704.0,6271.0 6707.0,6274.0 C 6719.0,6286.0 6747.0,6280.0 6764.0,6261.0 C 6773.0,6251.0 6801.0,6237.0 6824.0,6230.0 C 6861.0,6220.0 6871.0,6220.0 6893.0,6234.0 L 6917.0,6251.0 L 6916.0,6213.0 C 6915.0,6179.0 6919.0,6173.0 6973.0,6136.0 C 7014.0,6107.0 7033.0,6099.0 7041.0,6107.0 C 7047.0,6113.0 7069.0,6116.0 7091.0,6113.0 C 7134.0,6107.0 7140.0,6116.0 7115.0,6153.0 C 7107.0,6165.0 7094.0,6194.0 7086.0,6218.0 C 7072.0,6257.0 7072.0,6260.0 7089.0,6260.0 C 7108.0,6260.0 7140.0,6317.0 7140.0,6350.0 C 7140.0,6365.0 7133.0,6370.0 7115.0,6370.0 C 7094.0,6370.0 7090.0,6375.0 7090.0,6399.0 C 7090.0,6420.0 7096.0,6431.0 7110.0,6435.0 C 7132.0,6442.0 7136.0,6455.0 7119.0,6466.0 C 7113.0,6469.0 7110.0,6485.0 7113.0,6500.0 C 7119.0,6525.0 7116.0,6528.0 7082.0,6533.0 C 7054.0,6538.0 7036.0,6534.0 7004.0,6515.0 C 6980.0,6501.0 6959.0,6490.0 6956.0,6490.0 C 6953.0,6490.0 6950.0,6509.0 6950.0,6532.0 L 6950.0,6575.0 L 6924.0,6538.0 L 6897.0,6501.0 L 6871.0,6519.0 C 6857.0,6530.0 6834.0,6550.0 6821.0,6564.0 C 6803.0,6583.0 6791.0,6588.0 6773.0,6584.0 C 6753.0,6578.0 6750.0,6581.0 6750.0,6609.0 C 6750.0,6651.0 6736.0,6648.0 6704.0,6600.0 C 6682.0,6566.0 6672.0,6560.0 6644.0,6560.0 C 6616.0,6560.0 6606.0,6566.0 6590.0,6592.0 C 6571.0,6624.0 6569.0,6624.0 6489.0,6626.0 C 6399.0,6628.0 6371.0,6641.0 6419.0,6658.0 C 6454.0,6670.0 6457.0,6682.0 6436.0,6723.0 C 6422.0,6749.0 6422.0,6750.0 6443.0,6750.0 C 6456.0,6750.0 6476.0,6757.0 6488.0,6766.0 C 6507.0,6779.0 6509.0,6785.0 6499.0,6797.0 C 6489.0,6808.0 6473.0,6810.0 6423.0,6804.0 L 6359.0,6798.0 L 6372.0,6826.0 C 6378.0,6842.0 6390.0,6863.0 6398.0,6872.0 C 6410.0,6886.0 6409.0,6890.0 6388.0,6901.0 C 6375.0,6908.0 6355.0,6920.0 6342.0,6928.0 C 6321.0,6942.0 6320.0,6941.0 6322.0,6919.0 C 6325.0,6897.0 6321.0,6895.0 6281.0,6892.0 L 6237.0,6889.0 L 6269.0,6928.0 C 6286.0,6950.0 6300.0,6970.0 6300.0,6973.0 C 6300.0,6976.0 6277.0,6983.0 6249.0,6990.0 C 6204.0,7001.0 6198.0,7001.0 6185.0,6984.0 C 6172.0,6968.0 6169.0,6967.0 6161.0,6980.0 C 6153.0,6992.0 6148.0,6992.0 6131.0,6976.0 C 6110.0,6957.0 6110.0,6957.0 6110.0,6993.0 C 6110.0,7023.0 6106.0,7030.0 6090.0,7030.0 C 6075.0,7030.0 6070.0,7023.0 6070.0,7004.0 C 6070.0,6965.0 6053.0,6941.0 6030.0,6947.0 C 6006.0,6953.0 6005.0,6974.0 6025.0,7013.0 C 6043.0,7048.0 6031.0,7077.0 5995.0,7086.0 C 5958.0,7095.0 5942.0,7085.0 5938.0,7049.0 C 5934.0,7002.0 5914.0,7003.0 5890.0,7049.0 C 5879.0,7072.0 5867.0,7090.0 5864.0,7090.0 C 5861.0,7090.0 5845.0,7079.0 5828.0,7065.0 C 5812.0,7051.0 5794.0,7040.0 5789.0,7040.0 C 5773.0,7040.0 5780.0,7073.0 5801.0,7096.0 C 5818.0,7114.0 5820.0,7122.0 5810.0,7140.0 C 5801.0,7156.0 5793.0,7160.0 5774.0,7156.0 C 5758.0,7152.0 5750.0,7154.0 5750.0,7163.0 C 5750.0,7184.0 5712.0,7198.0 5640.0,7204.0 C 5563.0,7211.0 5526.0,7197.0 5522.0,7160.0 C 5521.0,7146.0 5517.0,7125.0 5515.0,7113.0 L 5510.0,7090.0 L 5489.0,7111.0 C 5478.0,7122.0 5459.0,7130.0 5447.0,7128.0 C 5429.0,7126.0 5423.0,7116.0 5416.0,7073.0 C 5410.0,7039.0 5402.0,7020.0 5394.0,7020.0 C 5377.0,7020.0 5376.0,7054.0 5391.0,7082.0 C 5400.0,7099.0 5399.0,7106.0 5385.0,7116.0 C 5373.0,7125.0 5369.0,7136.0 5374.0,7155.0 C 5382.0,7185.0 5359.0,7235.0 5329.0,7251.0 C 5314.0,7259.0 5310.0,7268.0 5314.0,7285.0 C 5318.0,7300.0 5313.0,7316.0 5301.0,7331.0 C 5285.0,7351.0 5278.0,7353.0 5254.0,7344.0 C 5232.0,7336.0 5220.0,7337.0 5203.0,7347.0 C 5192.0,7355.0 5180.0,7357.0 5177.0,7353.0" fill="pink"/>
	<path d="M 3796.0,7308.0 C 3788.0,7296.0 3784.0,7282.0 3787.0,7276.0 C 3791.0,7270.0 3811.0,7239.0 3833.0,7206.0 C 3876.0,7142.0 3873.0,7142.0 3915.0,7221.0 L 3938.0,7266.0 L 3918.0,7298.0 C 3901.0,7326.0 3893.0,7330.0 3855.0,7330.0 C 3821.0,7330.0 3808.0,7325.0 3796.0,7308.0" fill="pink"/>
	<path d="M 4176.0,7323.0 C 4150.0,7319.0 4148.0,7316.0 4153.0,7284.0 C 4158.0,7254.0 4157.0,7250.0 4141.0,7255.0 C 4131.0,7258.0 4118.0,7254.0 4111.0,7246.0 C 4096.0,7228.0 4113.0,7180.0 4135.0,7180.0 C 4146.0,7180.0 4150.0,7168.0 4150.0,7129.0 C 4150.0,7083.0 4148.0,7079.0 4128.0,7082.0 C 4113.0,7084.0 4102.0,7096.0 4095.0,7115.0 C 4078.0,7166.0 4060.0,7172.0 4035.0,7133.0 C 4019.0,7109.0 4019.0,7105.0 4034.0,7079.0 C 4043.0,7064.0 4050.0,7038.0 4050.0,7022.0 C 4050.0,6996.0 4055.0,6990.0 4086.0,6980.0 C 4129.0,6965.0 4190.0,6878.0 4190.0,6831.0 C 4190.0,6808.0 4197.0,6797.0 4218.0,6786.0 C 4254.0,6767.0 4280.0,6781.0 4280.0,6820.0 C 4280.0,6843.0 4283.0,6847.0 4300.0,6843.0 C 4312.0,6840.0 4336.0,6848.0 4360.0,6864.0 C 4404.0,6893.0 4407.0,6907.0 4394.0,7004.0 C 4388.0,7045.0 4385.0,7050.0 4367.0,7044.0 C 4350.0,7038.0 4348.0,7041.0 4354.0,7066.0 C 4362.0,7096.0 4376.0,7110.0 4398.0,7110.0 C 4404.0,7110.0 4410.0,7119.0 4410.0,7131.0 C 4410.0,7149.0 4406.0,7151.0 4384.0,7146.0 C 4291.0,7122.0 4286.0,7125.0 4325.0,7176.0 C 4339.0,7194.0 4350.0,7216.0 4350.0,7224.0 C 4350.0,7233.0 4357.0,7240.0 4365.0,7240.0 C 4384.0,7240.0 4384.0,7259.0 4365.0,7284.0 C 4351.0,7303.0 4340.0,7303.0 4266.0,7284.0 C 4245.0,7279.0 4238.0,7283.0 4229.0,7304.0 C 4222.0,7318.0 4214.0,7329.0 4211.0,7329.0 C 4208.0,7328.0 4192.0,7325.0 4176.0,7323.0" fill="pink"/>
	<path d="M 1673.0,7264.0 C 1655.0,7251.0 1653.0,7244.0 1661.0,7222.0 C 1667.0,7207.0 1676.0,7192.0 1682.0,7189.0 C 1688.0,7185.0 1725.0,7193.0 1766.0,7207.0 C 1825.0,7227.0 1838.0,7235.0 1833.0,7248.0 C 1822.0,7278.0 1818.0,7281.0 1805.0,7270.0 C 1796.0,7263.0 1779.0,7262.0 1749.0,7269.0 C 1695.0,7282.0 1700.0,7282.0 1673.0,7264.0" fill="pink"/>
	<path d="M 4257.0,6442.0 C 4238.0,6422.0 4230.0,6403.0 4230.0,6378.0 C 4230.0,6341.0 4218.0,6330.0 4178.0,6330.0 C 4152.0,6330.0 4157.0,6287.0 4183.0,6282.0 C 4194.0,6280.0 4210.0,6270.0 4220.0,6260.0 C 4230.0,6250.0 4273.0,6225.0 4316.0,6205.0 L 4394.0,6168.0 L 4435.0,6211.0 L 4475.0,6255.0 L 4448.0,6258.0 C 4425.0,6261.0 4420.0,6266.0 4420.0,6289.0 C 4420.0,6307.0 4408.0,6327.0 4385.0,6350.0 C 4366.0,6369.0 4350.0,6389.0 4350.0,6396.0 C 4350.0,6410.0 4302.0,6470.0 4291.0,6470.0 C 4287.0,6470.0 4272.0,6457.0 4257.0,6442.0" fill="pink"/>
	<path d="M 5908.0,6353.0 L 5870.0,6338.0 L 5870.0,6275.0 C 5870.0,6241.0 5873.0,6198.0 5876.0,6181.0 C 5882.0,6152.0 5885.0,6150.0 5924.0,6151.0 C 5997.0,6153.0 6014.0,6162.0 6029.0,6208.0 C 6041.0,6246.0 6040.0,6253.0 6026.0,6269.0 C 6017.0,6279.0 6010.0,6304.0 6010.0,6328.0 C 6010.0,6369.0 6009.0,6370.0 5978.0,6369.0 C 5960.0,6369.0 5928.0,6362.0 5908.0,6353.0" fill="pink"/>
	<path d="M 6049.0,6354.0 C 6043.0,6347.0 6041.0,6332.0 6045.0,6320.0 C 6050.0,6305.0 6060.0,6300.0 6088.0,6300.0 C 6139.0,6300.0 6155.0,6312.0 6141.0,6338.0 C 6128.0,6362.0 6065.0,6373.0 6049.0,6354.0" fill="pink"/>
	<path d="M 5393.0,5732.0 C 5403.0,5722.0 5410.0,5706.0 5410.0,5698.0 C 5410.0,5689.0 5420.0,5680.0 5433.0,5676.0 C 5505.0,5657.0 5510.0,5689.0 5440.0,5725.0 C 5381.0,5755.0 5371.0,5756.0 5393.0,5732.0" fill="pink"/>
	<path d="M 5335.0,5690.0 C 5347.0,5648.0 5354.0,5640.0 5370.0,5650.0 C 5383.0,5658.0 5380.0,5664.0 5356.0,5687.0 L 5328.0,5715.0 L 5335.0,5690.0" fill="pink"/>
	<path d="M 5269.0,5683.0 C 5258.0,5671.0 5256.0,5635.0 5258.0,5535.0 C 5259.0,5462.0 5264.0,5390.0 5269.0,5374.0 C 5276.0,5349.0 5271.0,5334.0 5237.0,5277.0 C 5215.0,5240.0 5199.0,5208.0 5201.0,5206.0 C 5203.0,5204.0 5234.0,5208.0 5270.0,5216.0 C 5305.0,5223.0 5336.0,5227.0 5338.0,5225.0 C 5340.0,5223.0 5344.0,5203.0 5347.0,5180.0 L 5353.0,5138.0 L 5389.0,5145.0 C 5433.0,5153.0 5440.0,5157.0 5440.0,5175.0 C 5440.0,5206.0 5474.0,5259.0 5497.0,5265.0 C 5519.0,5270.0 5521.0,5274.0 5515.0,5309.0 C 5510.0,5342.0 5512.0,5349.0 5533.0,5363.0 C 5556.0,5378.0 5558.0,5378.0 5563.0,5360.0 C 5566.0,5347.0 5577.0,5340.0 5593.0,5340.0 C 5612.0,5340.0 5619.0,5334.0 5622.0,5318.0 C 5624.0,5299.0 5636.0,5293.0 5688.0,5281.0 C 5759.0,5265.0 5769.0,5268.0 5807.0,5317.0 L 5831.0,5348.0 L 5808.0,5375.0 C 5786.0,5400.0 5782.0,5401.0 5745.0,5391.0 C 5687.0,5375.0 5671.0,5377.0 5677.0,5398.0 C 5684.0,5427.0 5622.0,5520.0 5595.0,5520.0 C 5583.0,5520.0 5554.0,5534.0 5532.0,5550.0 C 5508.0,5567.0 5478.0,5580.0 5461.0,5580.0 C 5441.0,5580.0 5431.0,5586.0 5427.0,5600.0 C 5421.0,5624.0 5370.0,5629.0 5370.0,5605.0 C 5370.0,5574.0 5349.0,5592.0 5323.0,5645.0 C 5308.0,5675.0 5293.0,5700.0 5289.0,5700.0 C 5285.0,5700.0 5276.0,5693.0 5269.0,5683.0" fill="pink"/>
	<path d="M 6107.0,5401.0 C 6086.0,5393.0 6093.0,5384.0 6139.0,5360.0 C 6170.0,5344.0 6187.0,5366.0 6163.0,5392.0 C 6146.0,5411.0 6136.0,5413.0 6107.0,5401.0" fill="pink"/>
	<path d="M 6017.0,5338.0 C 6000.0,5325.0 6000.0,5323.0 6024.0,5301.0 C 6051.0,5276.0 6077.0,5276.0 6094.0,5302.0 C 6113.0,5334.0 6051.0,5363.0 6017.0,5338.0" fill="pink"/>
	<path d="M 5670.0,5153.0 C 5645.0,5145.0 5615.0,5142.0 5604.0,5145.0 C 5585.0,5149.0 5581.0,5144.0 5575.0,5113.0 C 5571.0,5092.0 5562.0,5064.0 5555.0,5050.0 C 5544.0,5029.0 5544.0,5019.0 5556.0,4991.0 C 5569.0,4960.0 5572.0,4958.0 5588.0,4972.0 C 5597.0,4981.0 5619.0,4991.0 5637.0,4995.0 C 5661.0,5000.0 5677.0,5014.0 5700.0,5051.0 C 5727.0,5093.0 5731.0,5105.0 5724.0,5133.0 L 5715.0,5166.0 L 5670.0,5153.0" fill="pink"/>
	<path d="M 5927.0,5072.0 C 5889.0,5033.0 5891.0,4993.0 5933.0,4952.0 C 5959.0,4927.0 5969.0,4923.0 5978.0,4932.0 C 6002.0,4956.0 5986.0,5100.0 5960.0,5100.0 C 5957.0,5100.0 5942.0,5087.0 5927.0,5072.0" fill="pink"/>
	<path d="M 58.0,4537.0 C 40.0,4522.0 30.0,4505.0 30.0,4488.0 C 30.0,4473.0 25.0,4458.0 20.0,4455.0 C 14.0,4451.0 10.0,4430.0 10.0,4407.0 C 11.0,4384.0 8.0,4347.0 5.0,4325.0 C 1.0,4303.0 3.0,4243.0 8.0,4191.0 C 16.0,4118.0 22.0,4093.0 39.0,4077.0 C 55.0,4061.0 62.0,4058.0 72.0,4068.0 C 81.0,4077.0 81.0,4085.0 72.0,4105.0 C 65.0,4119.0 60.0,4160.0 60.0,4196.0 C 60.0,4254.0 62.0,4262.0 81.0,4267.0 C 98.0,4272.0 101.0,4278.0 96.0,4305.0 C 90.0,4333.0 94.0,4342.0 125.0,4369.0 C 145.0,4386.0 165.0,4400.0 170.0,4400.0 C 183.0,4400.0 220.0,4437.0 220.0,4450.0 C 220.0,4456.0 207.0,4460.0 190.0,4460.0 C 174.0,4460.0 160.0,4455.0 160.0,4449.0 C 160.0,4444.0 155.0,4442.0 149.0,4446.0 C 143.0,4449.0 140.0,4463.0 143.0,4476.0 C 146.0,4494.0 143.0,4500.0 129.0,4500.0 C 117.0,4500.0 110.0,4509.0 108.0,4527.0 C 104.0,4562.0 91.0,4564.0 58.0,4537.0" fill="pink"/>
	<path d="M 9311.0,4207.0 C 9295.0,4199.0 9282.0,4177.0 9269.0,4135.0 C 9252.0,4081.0 9251.0,4062.0 9261.0,3951.0 C 9266.0,3882.0 9278.0,3795.0 9286.0,3757.0 C 9293.0,3720.0 9300.0,3674.0 9300.0,3656.0 C 9300.0,3632.0 9307.0,3618.0 9323.0,3607.0 C 9341.0,3595.0 9343.0,3589.0 9333.0,3579.0 C 9326.0,3572.0 9320.0,3546.0 9320.0,3521.0 C 9320.0,3486.0 9314.0,3470.0 9294.0,3449.0 L 9268.0,3422.0 L 9290.0,3410.0 C 9307.0,3401.0 9315.0,3401.0 9328.0,3413.0 C 9364.0,3443.0 9369.0,3442.0 9363.0,3403.0 C 9360.0,3382.0 9350.0,3350.0 9342.0,3331.0 C 9327.0,3298.0 9327.0,3297.0 9354.0,3274.0 C 9369.0,3261.0 9387.0,3250.0 9393.0,3250.0 C 9406.0,3250.0 9550.0,3347.0 9585.0,3379.0 C 9596.0,3390.0 9625.0,3401.0 9650.0,3405.0 C 9694.0,3411.0 9697.0,3414.0 9733.0,3481.0 C 9754.0,3519.0 9775.0,3550.0 9779.0,3550.0 C 9794.0,3550.0 9810.0,3525.0 9810.0,3501.0 L 9810.0,3477.0 L 9834.0,3499.0 C 9848.0,3512.0 9857.0,3527.0 9854.0,3534.0 C 9848.0,3550.0 9906.0,3605.0 9914.0,3591.0 C 9918.0,3585.0 9915.0,3568.0 9907.0,3553.0 C 9899.0,3537.0 9886.0,3505.0 9878.0,3480.0 C 9870.0,3455.0 9859.0,3427.0 9855.0,3418.0 C 9850.0,3405.0 9854.0,3398.0 9871.0,3391.0 C 9891.0,3384.0 9901.0,3387.0 9927.0,3412.0 C 9954.0,3438.0 9959.0,3451.0 9964.0,3509.0 C 9973.0,3602.0 9973.0,3631.0 9965.0,3668.0 C 9960.0,3692.0 9961.0,3700.0 9971.0,3700.0 C 10006.0,3699.0 10050.0,3638.0 10050.0,3590.0 C 10050.0,3561.0 10056.0,3549.0 10075.0,3536.0 C 10088.0,3527.0 10102.0,3520.0 10105.0,3520.0 C 10108.0,3520.0 10110.0,3543.0 10110.0,3570.0 C 10110.0,3613.0 10113.0,3620.0 10130.0,3620.0 C 10143.0,3620.0 10150.0,3613.0 10150.0,3602.0 C 10150.0,3584.0 10196.0,3532.0 10204.0,3541.0 C 10206.0,3543.0 10215.0,3560.0 10224.0,3578.0 C 10240.0,3610.0 10240.0,3616.0 10224.0,3685.0 C 10209.0,3750.0 10202.0,3763.0 10171.0,3785.0 L 10135.0,3810.0 L 10129.0,3775.0 C 10117.0,3702.0 10090.0,3719.0 10090.0,3801.0 C 10090.0,3853.0 10088.0,3860.0 10070.0,3860.0 C 10052.0,3860.0 10050.0,3853.0 10050.0,3790.0 C 10050.0,3727.0 10048.0,3720.0 10030.0,3720.0 C 10015.0,3720.0 10010.0,3727.0 10010.0,3745.0 C 10010.0,3759.0 10004.0,3770.0 9998.0,3770.0 C 9991.0,3770.0 9979.0,3774.0 9971.0,3779.0 C 9960.0,3786.0 9961.0,3794.0 9979.0,3824.0 C 9994.0,3848.0 10000.0,3871.0 9998.0,3897.0 L 9995.0,3935.0 L 9966.0,3893.0 C 9940.0,3854.0 9910.0,3836.0 9910.0,3859.0 C 9910.0,3864.0 9899.0,3871.0 9885.0,3874.0 C 9855.0,3882.0 9842.0,3921.0 9857.0,3961.0 C 9873.0,4003.0 9841.0,4005.0 9764.0,3967.0 C 9715.0,3943.0 9700.0,3931.0 9700.0,3914.0 C 9700.0,3903.0 9692.0,3886.0 9682.0,3877.0 C 9666.0,3862.0 9663.0,3862.0 9652.0,3881.0 C 9640.0,3900.0 9639.0,3900.0 9615.0,3871.0 C 9592.0,3844.0 9587.0,3843.0 9555.0,3853.0 C 9516.0,3865.0 9514.0,3869.0 9535.0,3909.0 C 9547.0,3933.0 9547.0,3940.0 9537.0,3949.0 C 9527.0,3956.0 9515.0,3953.0 9492.0,3937.0 C 9466.0,3919.0 9459.0,3906.0 9454.0,3867.0 C 9448.0,3823.0 9436.0,3801.0 9423.0,3813.0 C 9420.0,3816.0 9413.0,3862.0 9406.0,3914.0 C 9397.0,3979.0 9388.0,4016.0 9375.0,4030.0 C 9359.0,4048.0 9359.0,4050.0 9373.0,4050.0 C 9399.0,4050.0 9397.0,4140.0 9372.0,4147.0 C 9358.0,4150.0 9355.0,4159.0 9358.0,4186.0 C 9363.0,4224.0 9352.0,4229.0 9311.0,4207.0" fill="pink"/>
	<path d="M 6289.0,3926.0 C 6270.0,3909.0 6230.0,3827.0 6230.0,3804.0 C 6230.0,3803.0 6242.0,3800.0 6256.0,3797.0 C 6276.0,3793.0 6291.0,3800.0 6318.0,3824.0 C 6352.0,3856.0 6353.0,3857.0 6340.0,3896.0 C 6323.0,3949.0 6319.0,3952.0 6289.0,3926.0" fill="pink"/>
	<path d="M 204.0,3618.0 C 207.0,3605.0 210.0,3589.0 210.0,3582.0 C 210.0,3575.0 222.0,3558.0 236.0,3545.0 C 260.0,3522.0 261.0,3520.0 243.0,3520.0 C 231.0,3520.0 218.0,3509.0 211.0,3493.0 C 200.0,3469.0 202.0,3464.0 229.0,3439.0 C 246.0,3424.0 260.0,3403.0 260.0,3394.0 C 260.0,3384.0 274.0,3361.0 291.0,3344.0 L 323.0,3311.0 L 301.0,3284.0 C 280.0,3257.0 280.0,3255.0 296.0,3243.0 C 306.0,3236.0 319.0,3230.0 326.0,3230.0 C 334.0,3230.0 341.0,3204.0 345.0,3160.0 C 351.0,3098.0 354.0,3090.0 370.0,3095.0 C 390.0,3101.0 405.0,3085.0 406.0,3055.0 C 406.0,3034.0 539.0,2846.0 547.0,2854.0 C 554.0,2861.0 590.0,3003.0 590.0,3024.0 C 590.0,3035.0 572.0,3067.0 550.0,3096.0 C 517.0,3139.0 510.0,3157.0 510.0,3193.0 C 510.0,3217.0 505.0,3263.0 498.0,3296.0 C 488.0,3347.0 477.0,3367.0 411.0,3446.0 C 369.0,3496.0 328.0,3551.0 318.0,3568.0 C 300.0,3602.0 269.0,3624.0 226.0,3634.0 C 200.0,3640.0 198.0,3639.0 204.0,3618.0" fill="pink"/>
	<path d="M 8571.0,3326.0 L 8506.0,3293.0 L 8562.0,3286.0 C 8593.0,3282.0 8626.0,3272.0 8636.0,3265.0 C 8665.0,3243.0 8749.0,3247.0 8826.0,3274.0 C 8927.0,3309.0 8930.0,3311.0 8930.0,3330.0 C 8930.0,3351.0 8871.0,3360.0 8730.0,3359.0 C 8642.0,3359.0 8630.0,3356.0 8571.0,3326.0" fill="pink"/>
	<path d="M 6155.0,3176.0 C 6112.0,3164.0 6098.0,3137.0 6127.0,3125.0 C 6154.0,3114.0 6302.0,3089.0 6308.0,3094.0 C 6310.0,3097.0 6295.0,3119.0 6275.0,3144.0 C 6235.0,3193.0 6222.0,3197.0 6155.0,3176.0" fill="pink"/>
	<path d="M 9062.0,3048.0 C 9043.0,2993.0 9065.0,2951.0 9105.0,2966.0 C 9117.0,2971.0 9118.0,2975.0 9109.0,2986.0 C 9102.0,2995.0 9100.0,3015.0 9104.0,3040.0 C 9109.0,3074.0 9108.0,3080.0 9092.0,3080.0 C 9081.0,3080.0 9070.0,3068.0 9062.0,3048.0" fill="pink"/>
	<path d="M 9286.0,3001.0 C 9283.0,2981.0 9278.0,2922.0 9275.0,2868.0 L 9268.0,2772.0 L 9306.0,2746.0 C 9364.0,2707.0 9388.0,2712.0 9438.0,2770.0 C 9462.0,2797.0 9488.0,2836.0 9496.0,2856.0 C 9509.0,2888.0 9509.0,2894.0 9496.0,2915.0 C 9482.0,2935.0 9477.0,2937.0 9443.0,2929.0 C 9422.0,2924.0 9395.0,2920.0 9382.0,2920.0 C 9360.0,2920.0 9359.0,2923.0 9365.0,2963.0 C 9371.0,3005.0 9371.0,3005.0 9331.0,3021.0 L 9291.0,3038.0 L 9286.0,3001.0" fill="pink"/>
	<path d="M 9148.0,2819.0 C 9132.0,2815.0 9103.0,2798.0 9083.0,2782.0 C 9062.0,2766.0 9029.0,2749.0 9010.0,2745.0 C 8991.0,2741.0 8963.0,2731.0 8948.0,2724.0 C 8915.0,2707.0 8891.0,2715.0 8879.0,2746.0 C 8875.0,2759.0 8864.0,2770.0 8857.0,2770.0 C 8838.0,2770.0 8825.0,2679.0 8842.0,2669.0 C 8860.0,2658.0 8955.0,2645.0 9015.0,2646.0 C 9140.0,2647.0 9191.0,2670.0 9155.0,2710.0 C 9141.0,2725.0 9142.0,2731.0 9161.0,2774.0 C 9172.0,2800.0 9180.0,2823.0 9178.0,2824.0 C 9177.0,2826.0 9163.0,2824.0 9148.0,2819.0" fill="pink"/>
	<path d="M 6412.0,1658.0 C 6405.0,1651.0 6373.0,1647.0 6336.0,1647.0 C 6276.0,1647.0 6272.0,1646.0 6267.0,1624.0 C 6263.0,1602.0 6266.0,1600.0 6306.0,1600.0 C 6329.0,1600.0 6359.0,1596.0 6372.0,1591.0 C 6385.0,1587.0 6416.0,1580.0 6443.0,1576.0 L 6490.0,1569.0 L 6490.0,1608.0 C 6490.0,1644.0 6487.0,1649.0 6459.0,1659.0 C 6421.0,1672.0 6426.0,1672.0 6412.0,1658.0" fill="pink"/>
</svg>
