<?xml version="1.0" ?>
<svg xmlns="http://www.w3.org/2000/svg" xmlns:ev="http://www.w3.org/2001/xml-events" xmlns:xlink="http://www.w3.org/1999/xlink" baseProfile="full" height="600px" version="1.1" viewBox="86.91061017798245 -1024.5036965413842 10065.896300733366 12292.565786828674" width="492px">
	<defs/>
	<path d="M 2510.0,10231.0 C 2491.0,10227.0 2461.0,10214.0 2443.0,10204.0 C 2418.0,10188.0 2401.0,10185.0 2368.0,10190.0 C 2319.0,10197.0 2229.0,10181.0 2184.0,10157.0 C 2166.0,10148.0 2117.0,10135.0 2074.0,10128.0 L 1995.0,10114.0 L 1982.0,10075.0 C 1975.0,10053.0 1971.0,10021.0 1975.0,10003.0 C 1980.0,9977.0 1988.0,9969.0 2018.0,9959.0 C 2080.0,9939.0 2138.0,9886.0 2193.0,9801.0 C 2231.0,9741.0 2251.0,9720.0 2266.0,9720.0 C 2281.0,9720.0 2290.0,9728.0 2294.0,9746.0 C 2299.0,9763.0 2313.0,9776.0 2336.0,9786.0 C 2370.0,9800.0 2373.0,9800.0 2427.0,9769.0 C 2464.0,9748.0 2487.0,9727.0 2494.0,9708.0 C 2501.0,9688.0 2511.0,9680.0 2528.0,9680.0 C 2565.0,9680.0 2618.0,9651.0 2649.0,9614.0 C 2674.0,9583.0 2685.0,9578.0 2779.0,9561.0 C 2841.0,9550.0 2905.0,9531.0 2943.0,9512.0 C 2988.0,9489.0 3007.0,9484.0 3012.0,9493.0 C 3017.0,9500.0 3020.0,9543.0 3018.0,9590.0 C 3017.0,9651.0 3021.0,9684.0 3032.0,9705.0 C 3047.0,9733.0 3047.0,9738.0 3030.0,9770.0 C 3019.0,9789.0 3001.0,9848.0 2989.0,9900.0 C 2965.0,10007.0 2944.0,10037.0 2853.0,10095.0 C 2825.0,10114.0 2796.0,10139.0 2790.0,10150.0 C 2784.0,10162.0 2746.0,10187.0 2707.0,10206.0 C 2634.0,10241.0 2589.0,10247.0 2510.0,10231.0" fill="pink"/>
	<path d="M 5569.0,9184.0 C 5556.0,9170.0 5528.0,9149.0 5508.0,9139.0 C 5475.0,9122.0 5470.0,9115.0 5470.0,9085.0 C 5470.0,9055.0 5464.0,9047.0 5431.0,9028.0 C 5395.0,9008.0 5350.0,8941.0 5350.0,8909.0 C 5350.0,8903.0 5379.0,8914.0 5414.0,8934.0 C 5469.0,8965.0 5488.0,8970.0 5542.0,8970.0 C 5576.0,8970.0 5632.0,8975.0 5666.0,8980.0 C 5721.0,8989.0 5734.0,8987.0 5815.0,8960.0 C 5893.0,8933.0 5911.0,8923.0 5974.0,8863.0 C 6042.0,8798.0 6045.0,8793.0 6053.0,8735.0 C 6057.0,8703.0 6063.0,8674.0 6065.0,8671.0 C 6068.0,8669.0 6088.0,8679.0 6110.0,8694.0 C 6147.0,8718.0 6150.0,8724.0 6150.0,8766.0 C 6150.0,8802.0 6139.0,8832.0 6104.0,8898.0 C 6027.0,9041.0 5945.0,9112.0 5804.0,9155.0 C 5748.0,9172.0 5714.0,9177.0 5679.0,9173.0 C 5638.0,9168.0 5630.0,9170.0 5618.0,9189.0 C 5602.0,9216.0 5599.0,9215.0 5569.0,9184.0" fill="pink"/>
	<path d="M 6187.0,7698.0 C 6141.0,7678.0 6139.0,7675.0 6144.0,7647.0 C 6147.0,7631.0 6150.0,7610.0 6150.0,7601.0 C 6150.0,7591.0 6177.0,7551.0 6211.0,7512.0 C 6266.0,7446.0 6273.0,7433.0 6289.0,7359.0 C 6305.0,7283.0 6309.0,7276.0 6341.0,7259.0 C 6359.0,7248.0 6393.0,7236.0 6415.0,7230.0 C 6449.0,7222.0 6459.0,7212.0 6483.0,7171.0 C 6498.0,7144.0 6523.0,7111.0 6539.0,7097.0 C 6567.0,7074.0 6568.0,7070.0 6563.0,7012.0 C 6559.0,6966.0 6561.0,6947.0 6574.0,6929.0 C 6587.0,6910.0 6590.0,6879.0 6590.0,6775.0 C 6590.0,6653.0 6592.0,6642.0 6614.0,6609.0 C 6636.0,6577.0 6645.0,6572.0 6692.0,6567.0 C 6743.0,6562.0 6746.0,6563.0 6785.0,6601.0 C 6820.0,6634.0 6832.0,6640.0 6870.0,6640.0 C 6895.0,6640.0 6948.0,6649.0 6989.0,6660.0 C 7051.0,6676.0 7071.0,6677.0 7111.0,6668.0 C 7155.0,6658.0 7160.0,6654.0 7175.0,6611.0 C 7194.0,6562.0 7264.0,6482.0 7318.0,6448.0 C 7344.0,6432.0 7360.0,6429.0 7393.0,6434.0 C 7486.0,6449.0 7510.0,6460.0 7527.0,6495.0 L 7543.0,6529.0 L 7493.0,6597.0 C 7466.0,6634.0 7426.0,6693.0 7405.0,6728.0 C 7373.0,6780.0 7363.0,6790.0 7339.0,6790.0 C 7315.0,6790.0 7306.0,6799.0 7278.0,6850.0 C 7250.0,6901.0 7241.0,6910.0 7217.0,6910.0 C 7200.0,6910.0 7151.0,6934.0 7092.0,6973.0 C 7039.0,7007.0 6955.0,7055.0 6906.0,7080.0 C 6827.0,7119.0 6800.0,7141.0 6691.0,7251.0 C 6621.0,7320.0 6521.0,7410.0 6467.0,7450.0 C 6383.0,7513.0 6366.0,7521.0 6347.0,7513.0 C 6331.0,7506.0 6316.0,7507.0 6293.0,7518.0 C 6254.0,7537.0 6239.0,7591.0 6266.0,7621.0 C 6281.0,7638.0 6281.0,7643.0 6267.0,7677.0 C 6259.0,7697.0 6249.0,7715.0 6244.0,7716.0 C 6239.0,7717.0 6213.0,7709.0 6187.0,7698.0" fill="pink"/>
	<path d="M 7550.0,6234.0 C 7532.0,6189.0 7537.0,6180.0 7578.0,6180.0 C 7598.0,6181.0 7626.0,6187.0 7640.0,6195.0 C 7674.0,6214.0 7680.0,6213.0 7680.0,6191.0 C 7680.0,6180.0 7671.0,6168.0 7659.0,6165.0 C 7642.0,6159.0 7639.0,6153.0 7644.0,6128.0 C 7647.0,6111.0 7650.0,6091.0 7650.0,6083.0 C 7650.0,6073.0 7656.0,6071.0 7670.0,6075.0 C 7686.0,6080.0 7690.0,6077.0 7690.0,6056.0 C 7690.0,6035.0 7695.0,6030.0 7713.0,6030.0 C 7744.0,6030.0 7760.0,6066.0 7760.0,6135.0 C 7760.0,6186.0 7758.0,6190.0 7716.0,6224.0 C 7678.0,6256.0 7666.0,6260.0 7616.0,6260.0 C 7565.0,6260.0 7559.0,6258.0 7550.0,6234.0" fill="pink"/>
	<path d="M 7742.0,6019.0 C 7713.0,6010.0 7711.0,6007.0 7721.0,5988.0 C 7731.0,5970.0 7738.0,5968.0 7778.0,5974.0 C 7833.0,5981.0 7835.0,5983.0 7820.0,6009.0 C 7808.0,6032.0 7793.0,6033.0 7742.0,6019.0" fill="pink"/>
	<path d="M 7790.0,5915.0 C 7790.0,5895.0 7785.0,5890.0 7765.0,5890.0 C 7744.0,5890.0 7740.0,5885.0 7740.0,5860.0 C 7740.0,5832.0 7742.0,5830.0 7778.0,5830.0 C 7808.0,5830.0 7823.0,5837.0 7848.0,5863.0 C 7866.0,5881.0 7880.0,5906.0 7880.0,5918.0 C 7880.0,5937.0 7875.0,5940.0 7835.0,5940.0 C 7794.0,5940.0 7790.0,5938.0 7790.0,5915.0" fill="pink"/>
	<path d="M 7837.0,5721.0 C 7818.0,5704.0 7791.0,5690.0 7778.0,5690.0 C 7764.0,5690.0 7745.0,5681.0 7735.0,5670.0 C 7717.0,5650.0 7718.0,5650.0 7749.0,5650.0 C 7780.0,5650.0 7781.0,5648.0 7775.0,5621.0 C 7769.0,5591.0 7769.0,5591.0 7802.0,5601.0 C 7820.0,5606.0 7852.0,5610.0 7872.0,5610.0 C 7902.0,5610.0 7914.0,5616.0 7936.0,5645.0 L 7962.0,5680.0 L 7943.0,5712.0 C 7917.0,5757.0 7882.0,5760.0 7837.0,5721.0" fill="pink"/>
	<path d="M 7980.0,5556.0 C 7975.0,5541.0 7959.0,5525.0 7945.0,5518.0 C 7931.0,5512.0 7920.0,5504.0 7920.0,5500.0 C 7920.0,5497.0 7939.0,5484.0 7963.0,5472.0 C 7986.0,5460.0 8021.0,5441.0 8040.0,5430.0 C 8059.0,5419.0 8087.0,5410.0 8102.0,5410.0 C 8125.0,5410.0 8130.0,5405.0 8130.0,5387.0 C 8130.0,5374.0 8142.0,5353.0 8156.0,5339.0 C 8170.0,5326.0 8189.0,5299.0 8197.0,5278.0 C 8206.0,5255.0 8220.0,5240.0 8236.0,5236.0 C 8269.0,5227.0 8266.0,5217.0 8223.0,5181.0 C 8196.0,5158.0 8175.0,5150.0 8148.0,5150.0 C 8116.0,5150.0 8110.0,5147.0 8110.0,5130.0 C 8110.0,5100.0 8159.0,5057.0 8185.0,5064.0 C 8196.0,5067.0 8211.0,5070.0 8219.0,5070.0 C 8228.0,5070.0 8230.0,5078.0 8226.0,5095.0 C 8221.0,5116.0 8223.0,5120.0 8243.0,5120.0 C 8256.0,5120.0 8277.0,5109.0 8289.0,5096.0 C 8302.0,5083.0 8323.0,5069.0 8336.0,5066.0 C 8366.0,5058.0 8368.0,5028.0 8340.0,4993.0 C 8314.0,4960.0 8315.0,4948.0 8344.0,4921.0 C 8365.0,4901.0 8375.0,4899.0 8407.0,4905.0 C 8427.0,4909.0 8457.0,4921.0 8472.0,4932.0 C 8497.0,4949.0 8500.0,4958.0 8500.0,5003.0 C 8500.0,5051.0 8497.0,5057.0 8465.0,5078.0 C 8438.0,5095.0 8430.0,5107.0 8430.0,5130.0 C 8430.0,5150.0 8423.0,5163.0 8409.0,5171.0 C 8397.0,5177.0 8346.0,5220.0 8294.0,5267.0 C 8215.0,5338.0 8200.0,5356.0 8200.0,5382.0 C 8200.0,5405.0 8185.0,5428.0 8139.0,5478.0 C 8079.0,5544.0 8057.0,5561.0 8013.0,5574.0 C 7994.0,5580.0 7988.0,5576.0 7980.0,5556.0" fill="pink"/>
	<path d="M 1210.0,5544.0 C 1210.0,5541.0 1224.0,5521.0 1240.0,5500.0 C 1284.0,5444.0 1282.0,5400.0 1233.0,5368.0 C 1200.0,5346.0 1191.0,5332.0 1168.0,5259.0 C 1153.0,5213.0 1127.0,5144.0 1111.0,5105.0 C 1083.0,5040.0 1079.0,5034.0 1043.0,5026.0 C 1022.0,5022.0 988.0,5011.0 968.0,5002.0 L 930.0,4987.0 L 930.0,4904.0 C 930.0,4838.0 935.0,4812.0 955.0,4768.0 C 970.0,4737.0 980.0,4697.0 980.0,4670.0 C 980.0,4643.0 990.0,4603.0 1005.0,4572.0 C 1019.0,4542.0 1030.0,4504.0 1030.0,4487.0 C 1030.0,4448.0 1096.0,4202.0 1157.0,4015.0 C 1196.0,3895.0 1204.0,3854.0 1215.0,3729.0 C 1225.0,3618.0 1237.0,3555.0 1264.0,3468.0 L 1298.0,3352.0 L 1279.0,3179.0 C 1255.0,2969.0 1253.0,2961.0 1200.0,2870.0 C 1169.0,2817.0 1146.0,2791.0 1114.0,2771.0 C 1090.0,2757.0 1068.0,2736.0 1066.0,2725.0 C 1064.0,2714.0 1056.0,2662.0 1048.0,2610.0 L 1033.0,2515.0 L 1066.0,2405.0 C 1085.0,2345.0 1113.0,2259.0 1131.0,2215.0 C 1150.0,2164.0 1165.0,2106.0 1169.0,2055.0 C 1182.0,1921.0 1190.0,1911.0 1374.0,1814.0 C 1557.0,1717.0 1676.0,1633.0 1810.0,1507.0 C 1892.0,1430.0 1913.0,1403.0 1960.0,1315.0 C 2007.0,1227.0 2037.0,1189.0 2170.0,1046.0 C 2306.0,899.0 2330.0,868.0 2367.0,791.0 C 2403.0,715.0 2426.0,685.0 2529.0,578.0 C 2631.0,472.0 2652.0,444.0 2670.0,394.0 C 2685.0,352.0 2704.0,323.0 2737.0,294.0 C 2787.0,247.0 2792.0,245.0 3011.0,160.0 C 3191.0,90.0 3244.0,84.0 3343.0,122.0 C 3393.0,142.0 3408.0,154.0 3446.0,207.0 C 3504.0,289.0 3590.0,334.0 3706.0,345.0 C 3751.0,349.0 3812.0,363.0 3848.0,377.0 C 3901.0,398.0 3921.0,402.0 3967.0,396.0 C 4019.0,390.0 4029.0,392.0 4089.0,424.0 C 4125.0,443.0 4184.0,466.0 4219.0,475.0 C 4254.0,484.0 4306.0,500.0 4335.0,511.0 L 4387.0,530.0 L 4419.0,618.0 C 4454.0,716.0 4458.0,780.0 4435.0,856.0 C 4427.0,883.0 4420.0,927.0 4420.0,954.0 C 4420.0,1003.0 4394.0,1061.0 4360.0,1087.0 C 4307.0,1129.0 4040.0,1252.0 4040.0,1234.0 C 4040.0,1232.0 4047.0,1213.0 4055.0,1192.0 C 4068.0,1161.0 4080.0,1150.0 4123.0,1131.0 L 4175.0,1109.0 L 4150.0,1090.0 L 4125.0,1070.0 L 4162.0,1070.0 C 4206.0,1070.0 4221.0,1053.0 4185.0,1044.0 C 4145.0,1034.0 4156.0,1024.0 4217.0,1014.0 C 4260.0,1007.0 4276.0,1000.0 4278.0,987.0 C 4281.0,975.0 4275.0,970.0 4256.0,970.0 C 4235.0,970.0 4230.0,965.0 4230.0,945.0 C 4230.0,915.0 4229.0,915.0 4180.0,940.0 C 4158.0,951.0 4138.0,960.0 4135.0,960.0 C 4132.0,960.0 4137.0,943.0 4146.0,922.0 C 4155.0,902.0 4164.0,880.0 4167.0,873.0 C 4170.0,866.0 4148.0,874.0 4118.0,890.0 C 4089.0,906.0 4062.0,920.0 4057.0,920.0 C 4053.0,920.0 4059.0,902.0 4070.0,880.0 C 4095.0,832.0 4095.0,830.0 4072.0,830.0 C 4038.0,830.0 4021.0,862.0 4018.0,930.0 L 4015.0,995.0 L 3968.0,998.0 C 3923.0,1001.0 3906.0,990.0 3930.0,975.0 C 3936.0,972.0 3940.0,958.0 3940.0,944.0 C 3940.0,927.0 3935.0,920.0 3920.0,920.0 C 3890.0,920.0 3873.0,877.0 3887.0,839.0 C 3898.0,812.0 3897.0,810.0 3872.0,810.0 C 3857.0,810.0 3834.0,798.0 3818.0,783.0 C 3793.0,760.0 3790.0,749.0 3790.0,696.0 C 3790.0,613.0 3782.0,592.0 3749.0,574.0 C 3733.0,566.0 3720.0,553.0 3720.0,545.0 C 3720.0,536.0 3710.0,530.0 3696.0,530.0 C 3679.0,530.0 3670.0,537.0 3666.0,555.0 C 3660.0,578.0 3655.0,580.0 3605.0,580.0 L 3550.0,580.0 L 3550.0,527.0 C 3550.0,465.0 3527.0,435.0 3470.0,424.0 C 3451.0,420.0 3417.0,403.0 3395.0,387.0 C 3373.0,370.0 3353.0,355.0 3351.0,353.0 C 3349.0,351.0 3352.0,338.0 3359.0,323.0 C 3374.0,290.0 3371.0,288.0 3269.0,265.0 C 3196.0,248.0 3188.0,248.0 3153.0,263.0 C 3132.0,272.0 3105.0,282.0 3093.0,285.0 C 3080.0,288.0 3052.0,317.0 3030.0,348.0 C 2977.0,421.0 2938.0,434.0 2900.0,390.0 C 2876.0,362.0 2874.0,362.0 2843.0,375.0 C 2821.0,384.0 2809.0,398.0 2804.0,417.0 C 2801.0,432.0 2792.0,467.0 2785.0,493.0 C 2773.0,536.0 2774.0,542.0 2787.0,547.0 C 2798.0,551.0 2813.0,541.0 2833.0,517.0 C 2867.0,474.0 2880.0,470.0 2880.0,504.0 C 2880.0,526.0 2814.0,620.0 2738.0,708.0 C 2717.0,732.0 2710.0,751.0 2710.0,781.0 C 2710.0,816.0 2703.0,830.0 2664.0,874.0 C 2634.0,907.0 2590.0,980.0 2541.0,1077.0 C 2480.0,1200.0 2460.0,1231.0 2439.0,1239.0 C 2415.0,1247.0 2406.0,1266.0 2354.0,1422.0 C 2285.0,1630.0 2260.0,1674.0 2174.0,1735.0 C 2113.0,1779.0 2110.0,1783.0 2110.0,1822.0 C 2110.0,1857.0 2100.0,1876.0 2036.0,1959.0 C 1976.0,2038.0 1960.0,2066.0 1950.0,2113.0 C 1944.0,2145.0 1926.0,2199.0 1910.0,2233.0 C 1895.0,2267.0 1879.0,2304.0 1875.0,2315.0 C 1869.0,2330.0 1865.0,2322.0 1859.0,2282.0 C 1851.0,2219.0 1837.0,2200.0 1800.0,2200.0 C 1779.0,2200.0 1767.0,2208.0 1752.0,2233.0 C 1742.0,2250.0 1719.0,2273.0 1701.0,2283.0 L 1670.0,2301.0 L 1654.0,2265.0 C 1646.0,2245.0 1635.0,2207.0 1630.0,2180.0 C 1617.0,2113.0 1589.0,2060.0 1544.0,2021.0 C 1514.0,1994.0 1501.0,1989.0 1477.0,1994.0 C 1461.0,1997.0 1441.0,2000.0 1434.0,2000.0 C 1426.0,2000.0 1412.0,2016.0 1403.0,2035.0 C 1386.0,2072.0 1349.0,2087.0 1309.0,2075.0 C 1287.0,2068.0 1287.0,2068.0 1293.0,2184.0 C 1297.0,2252.0 1295.0,2322.0 1289.0,2353.0 C 1279.0,2402.0 1281.0,2412.0 1318.0,2518.0 C 1340.0,2580.0 1369.0,2645.0 1382.0,2663.0 C 1404.0,2692.0 1408.0,2708.0 1413.0,2823.0 C 1419.0,2929.0 1423.0,2956.0 1440.0,2980.0 C 1455.0,3001.0 1459.0,3022.0 1458.0,3061.0 C 1456.0,3116.0 1465.0,3141.0 1525.0,3250.0 C 1544.0,3285.0 1550.0,3310.0 1550.0,3365.0 C 1550.0,3404.0 1557.0,3480.0 1565.0,3535.0 C 1576.0,3619.0 1582.0,3637.0 1601.0,3650.0 C 1614.0,3658.0 1642.0,3680.0 1663.0,3698.0 C 1685.0,3716.0 1704.0,3729.0 1706.0,3728.0 C 1708.0,3726.0 1698.0,3680.0 1684.0,3626.0 C 1670.0,3572.0 1661.0,3526.0 1663.0,3523.0 C 1675.0,3512.0 1740.0,3584.0 1746.0,3616.0 C 1750.0,3641.0 1757.0,3650.0 1772.0,3650.0 C 1782.0,3650.0 1804.0,3657.0 1820.0,3665.0 C 1847.0,3679.0 1850.0,3679.0 1850.0,3665.0 C 1850.0,3656.0 1843.0,3635.0 1834.0,3618.0 C 1821.0,3593.0 1820.0,3580.0 1829.0,3544.0 C 1835.0,3521.0 1840.0,3483.0 1840.0,3461.0 C 1840.0,3417.0 1842.0,3415.0 1870.0,3430.0 C 1884.0,3437.0 1898.0,3436.0 1923.0,3424.0 C 1956.0,3408.0 1957.0,3406.0 1949.0,3371.0 C 1934.0,3306.0 1937.0,3290.0 1966.0,3290.0 C 1988.0,3290.0 1991.0,3287.0 1986.0,3268.0 C 1983.0,3255.0 1970.0,3196.0 1958.0,3137.0 L 1935.0,3029.0 L 1883.0,3036.0 L 1830.0,3042.0 L 1814.0,3004.0 C 1787.0,2940.0 1770.0,2868.0 1770.0,2814.0 C 1770.0,2766.0 1772.0,2762.0 1800.0,2750.0 C 1824.0,2740.0 1838.0,2741.0 1876.0,2754.0 C 1902.0,2763.0 1936.0,2770.0 1952.0,2770.0 C 1977.0,2770.0 1980.0,2766.0 1980.0,2739.0 C 1980.0,2722.0 1975.0,2700.0 1969.0,2688.0 C 1953.0,2659.0 1963.0,2656.0 2016.0,2674.0 C 2070.0,2692.0 2075.0,2690.0 2088.0,2640.0 L 2097.0,2605.0 L 2122.0,2655.0 C 2152.0,2715.0 2171.0,2833.0 2163.0,2912.0 C 2160.0,2947.0 2164.0,3004.0 2175.0,3064.0 L 2192.0,3159.0 L 2159.0,3217.0 C 2141.0,3249.0 2108.0,3303.0 2086.0,3337.0 C 2063.0,3372.0 2030.0,3423.0 2012.0,3451.0 C 1994.0,3479.0 1964.0,3541.0 1945.0,3589.0 C 1927.0,3637.0 1886.0,3737.0 1855.0,3809.0 C 1824.0,3882.0 1785.0,3987.0 1769.0,4042.0 C 1753.0,4097.0 1722.0,4177.0 1700.0,4220.0 C 1658.0,4303.0 1600.0,4512.0 1600.0,4578.0 C 1600.0,4599.0 1593.0,4625.0 1585.0,4636.0 C 1575.0,4649.0 1571.0,4681.0 1570.0,4737.0 C 1570.0,4816.0 1569.0,4820.0 1546.0,4826.0 C 1526.0,4831.0 1522.0,4839.0 1516.0,4891.0 C 1512.0,4927.0 1492.0,4988.0 1464.0,5052.0 C 1410.0,5174.0 1369.0,5342.0 1377.0,5410.0 C 1386.0,5491.0 1330.0,5550.0 1242.0,5550.0 C 1224.0,5550.0 1210.0,5547.0 1210.0,5544.0" fill="pink"/>
	<path d="M 8252.0,4874.0 C 8238.0,4865.0 8216.0,4860.0 8199.0,4862.0 C 8167.0,4867.0 8164.0,4859.0 8179.0,4800.0 C 8184.0,4781.0 8191.0,4753.0 8194.0,4739.0 C 8202.0,4700.0 8255.0,4693.0 8290.0,4726.0 C 8311.0,4745.0 8330.0,4750.0 8408.0,4756.0 L 8500.0,4763.0 L 8500.0,4727.0 C 8500.0,4707.0 8492.0,4675.0 8483.0,4655.0 C 8467.0,4622.0 8467.0,4617.0 8482.0,4592.0 C 8491.0,4578.0 8512.0,4561.0 8529.0,4555.0 C 8546.0,4550.0 8567.0,4537.0 8576.0,4528.0 C 8592.0,4513.0 8589.0,4510.0 8544.0,4488.0 C 8500.0,4466.0 8490.0,4465.0 8448.0,4474.0 C 8394.0,4487.0 8323.0,4540.0 8314.0,4575.0 C 8306.0,4607.0 8260.0,4611.0 8260.0,4580.0 C 8260.0,4564.0 8253.0,4560.0 8228.0,4560.0 L 8196.0,4560.0 L 8233.0,4522.0 C 8253.0,4501.0 8270.0,4474.0 8270.0,4462.0 C 8270.0,4442.0 8275.0,4440.0 8333.0,4439.0 C 8367.0,4439.0 8429.0,4433.0 8470.0,4426.0 C 8542.0,4413.0 8546.0,4413.0 8600.0,4437.0 C 8673.0,4470.0 8697.0,4501.0 8711.0,4588.0 L 8723.0,4659.0 L 8655.0,4749.0 C 8580.0,4851.0 8588.0,4847.0 8456.0,4830.0 C 8388.0,4822.0 8386.0,4822.0 8336.0,4856.0 C 8277.0,4896.0 8281.0,4895.0 8252.0,4874.0" fill="pink"/>
	<path d="M 8173.0,4260.0 C 8200.0,4243.0 8229.0,4231.0 8238.0,4234.0 C 8249.0,4238.0 8265.0,4228.0 8283.0,4205.0 L 8311.0,4170.0 L 8280.0,4170.0 C 8253.0,4170.0 8249.0,4167.0 8252.0,4148.0 C 8255.0,4128.0 8262.0,4124.0 8310.0,4120.0 C 8342.0,4117.0 8380.0,4106.0 8401.0,4092.0 C 8448.0,4064.0 8508.0,4063.0 8544.0,4091.0 C 8577.0,4117.0 8580.0,4178.0 8550.0,4221.0 C 8532.0,4246.0 8523.0,4249.0 8477.0,4249.0 C 8448.0,4249.0 8391.0,4256.0 8350.0,4265.0 C 8309.0,4275.0 8241.0,4284.0 8200.0,4287.0 L 8125.0,4291.0 L 8173.0,4260.0" fill="pink"/>
	<path d="M 8222.0,4053.0 C 8216.0,4033.0 8213.0,4014.0 8215.0,4011.0 C 8218.0,4009.0 8244.0,4005.0 8273.0,4002.0 C 8314.0,3999.0 8336.0,4003.0 8368.0,4019.0 C 8391.0,4031.0 8410.0,4042.0 8410.0,4044.0 C 8410.0,4047.0 8395.0,4058.0 8376.0,4069.0 C 8353.0,4084.0 8326.0,4090.0 8288.0,4090.0 C 8234.0,4090.0 8233.0,4090.0 8222.0,4053.0" fill="pink"/>
	<path d="M 8500.0,4002.0 C 8500.0,3973.0 8501.0,3972.0 8538.0,3980.0 C 8558.0,3985.0 8584.0,3990.0 8595.0,3993.0 C 8612.0,3996.0 8611.0,3999.0 8585.0,4009.0 C 8569.0,4016.0 8543.0,4024.0 8528.0,4027.0 C 8502.0,4032.0 8500.0,4030.0 8500.0,4002.0" fill="pink"/>
	<path d="M 8360.0,3857.0 C 8341.0,3850.0 8317.0,3839.0 8307.0,3834.0 C 8290.0,3824.0 8290.0,3823.0 8308.0,3807.0 C 8325.0,3792.0 8334.0,3791.0 8379.0,3801.0 C 8408.0,3807.0 8451.0,3809.0 8475.0,3806.0 C 8536.0,3796.0 8570.0,3807.0 8570.0,3835.0 C 8570.0,3848.0 8563.0,3861.0 8554.0,3864.0 C 8526.0,3875.0 8396.0,3870.0 8360.0,3857.0" fill="pink"/>
	<path d="M 8511.0,3742.0 C 8487.0,3733.0 8449.0,3708.0 8426.0,3688.0 C 8388.0,3654.0 8386.0,3650.0 8402.0,3634.0 C 8415.0,3620.0 8424.0,3619.0 8449.0,3628.0 C 8480.0,3639.0 8480.0,3639.0 8480.0,3603.0 C 8480.0,3574.0 8487.0,3561.0 8513.0,3539.0 L 8545.0,3511.0 L 8512.0,3510.0 C 8486.0,3510.0 8477.0,3505.0 8473.0,3489.0 C 8468.0,3471.0 8462.0,3470.0 8429.0,3475.0 C 8394.0,3481.0 8390.0,3480.0 8390.0,3461.0 C 8390.0,3449.0 8383.0,3437.0 8374.0,3433.0 C 8348.0,3423.0 8407.0,3371.0 8454.0,3363.0 C 8478.0,3359.0 8503.0,3347.0 8517.0,3332.0 C 8540.0,3307.0 8541.0,3307.0 8576.0,3323.0 C 8595.0,3332.0 8623.0,3340.0 8637.0,3340.0 L 8663.0,3340.0 L 8643.0,3318.0 C 8623.0,3296.0 8600.0,3257.0 8600.0,3246.0 C 8600.0,3243.0 8623.0,3240.0 8650.0,3240.0 C 8678.0,3240.0 8700.0,3235.0 8700.0,3230.0 C 8700.0,3214.0 8671.0,3160.0 8662.0,3160.0 C 8658.0,3160.0 8649.0,3156.0 8642.0,3151.0 C 8631.0,3144.0 8632.0,3135.0 8648.0,3104.0 C 8659.0,3082.0 8678.0,3032.0 8691.0,2992.0 C 8709.0,2937.0 8724.0,2910.0 8751.0,2886.0 C 8779.0,2860.0 8788.0,2843.0 8793.0,2806.0 C 8799.0,2764.0 8790.0,2746.0 8775.0,2770.0 C 8765.0,2787.0 8740.0,2781.0 8740.0,2762.0 C 8740.0,2733.0 8851.0,2630.0 8882.0,2630.0 C 8909.0,2630.0 8917.0,2616.0 8934.0,2538.0 C 8939.0,2518.0 8947.0,2510.0 8963.0,2510.0 C 8988.0,2509.0 9040.0,2442.0 9040.0,2411.0 C 9040.0,2399.0 9049.0,2390.0 9065.0,2386.0 C 9083.0,2381.0 9090.0,2373.0 9090.0,2356.0 C 9090.0,2342.0 9102.0,2317.0 9117.0,2300.0 C 9143.0,2269.0 9143.0,2267.0 9133.0,2187.0 C 9124.0,2115.0 9125.0,2101.0 9140.0,2075.0 C 9167.0,2028.0 9154.0,1962.0 9114.0,1938.0 C 9085.0,1921.0 9080.0,1921.0 9047.0,1935.0 C 9027.0,1943.0 9008.0,1950.0 9006.0,1950.0 C 9003.0,1950.0 9000.0,1928.0 8998.0,1900.0 L 8995.0,1850.0 L 8951.0,1879.0 C 8899.0,1914.0 8885.0,1913.0 8768.0,1868.0 C 8700.0,1842.0 8690.0,1835.0 8690.0,1814.0 C 8690.0,1793.0 8694.0,1790.0 8729.0,1790.0 C 8761.0,1790.0 8773.0,1784.0 8798.0,1756.0 C 8825.0,1725.0 8848.0,1655.0 8836.0,1642.0 C 8833.0,1639.0 8819.0,1642.0 8805.0,1648.0 C 8776.0,1661.0 8674.0,1664.0 8666.0,1652.0 C 8664.0,1648.0 8674.0,1614.0 8690.0,1577.0 L 8718.0,1511.0 L 8688.0,1448.0 C 8672.0,1413.0 8648.0,1374.0 8636.0,1360.0 C 8603.0,1325.0 8586.0,1251.0 8605.0,1229.0 C 8625.0,1208.0 8624.0,1201.0 8599.0,1181.0 C 8581.0,1167.0 8579.0,1158.0 8585.0,1118.0 C 8590.0,1084.0 8598.0,1070.0 8615.0,1062.0 C 8628.0,1056.0 8640.0,1039.0 8643.0,1023.0 C 8656.0,959.0 8515.0,814.0 8384.0,756.0 C 8339.0,736.0 8319.0,720.0 8308.0,697.0 L 8293.0,666.0 L 8265.0,709.0 C 8242.0,744.0 8232.0,751.0 8212.0,747.0 C 8198.0,744.0 8171.0,752.0 8146.0,766.0 C 8103.0,790.0 8103.0,790.0 8085.0,770.0 C 8073.0,757.0 8054.0,750.0 8031.0,750.0 C 8011.0,750.0 7979.0,745.0 7960.0,740.0 C 7926.0,730.0 7923.0,731.0 7888.0,771.0 C 7856.0,805.0 7837.0,816.0 7773.0,835.0 L 7695.0,857.0 L 7673.0,911.0 C 7661.0,941.0 7649.0,970.0 7647.0,975.0 C 7645.0,981.0 7632.0,975.0 7618.0,963.0 C 7605.0,950.0 7581.0,940.0 7566.0,940.0 C 7521.0,940.0 7460.0,918.0 7449.0,899.0 C 7444.0,889.0 7426.0,879.0 7409.0,875.0 C 7386.0,870.0 7380.0,864.0 7385.0,852.0 C 7389.0,842.0 7404.0,787.0 7420.0,729.0 C 7448.0,623.0 7448.0,622.0 7429.0,594.0 C 7415.0,573.0 7410.0,547.0 7410.0,500.0 C 7409.0,392.0 7380.0,290.0 7350.0,290.0 C 7341.0,290.0 7325.0,281.0 7315.0,270.0 C 7305.0,259.0 7291.0,250.0 7285.0,250.0 C 7271.0,250.0 7146.0,338.0 7113.0,371.0 C 7082.0,401.0 7050.0,491.0 7050.0,545.0 C 7050.0,599.0 7041.0,602.0 7016.0,556.0 C 7002.0,530.0 6987.0,519.0 6955.0,510.0 C 6906.0,496.0 6848.0,441.0 6807.0,368.0 C 6792.0,342.0 6780.0,319.0 6780.0,316.0 C 6780.0,313.0 6798.0,299.0 6820.0,285.0 C 6852.0,265.0 6860.0,254.0 6860.0,229.0 C 6860.0,200.0 6858.0,199.0 6823.0,202.0 C 6786.0,205.0 6785.0,206.0 6758.0,285.0 C 6738.0,344.0 6730.0,385.0 6730.0,440.0 C 6730.0,481.0 6727.0,525.0 6724.0,538.0 C 6717.0,561.0 6717.0,561.0 6684.0,529.0 C 6659.0,505.0 6650.0,487.0 6650.0,463.0 L 6650.0,429.0 L 6620.0,445.0 C 6589.0,461.0 6583.0,474.0 6600.0,485.0 C 6606.0,488.0 6610.0,502.0 6610.0,516.0 C 6610.0,540.0 6606.0,543.0 6542.0,565.0 C 6532.0,569.0 6534.0,577.0 6550.0,601.0 C 6578.0,639.0 6572.0,693.0 6537.0,727.0 C 6506.0,758.0 6490.0,750.0 6446.0,685.0 C 6421.0,647.0 6405.0,632.0 6395.0,636.0 C 6377.0,643.0 6376.0,652.0 6391.0,667.0 C 6400.0,676.0 6395.0,685.0 6374.0,703.0 C 6341.0,731.0 6329.0,727.0 6310.0,679.0 C 6299.0,653.0 6293.0,650.0 6271.0,655.0 C 6231.0,665.0 6200.0,699.0 6200.0,733.0 C 6200.0,750.0 6193.0,771.0 6184.0,781.0 C 6169.0,798.0 6169.0,801.0 6188.0,824.0 C 6215.0,859.0 6232.0,981.0 6214.0,1011.0 C 6212.0,1015.0 6192.0,1013.0 6170.0,1008.0 C 6133.0,998.0 6129.0,994.0 6113.0,943.0 C 6099.0,900.0 6098.0,883.0 6107.0,859.0 C 6116.0,835.0 6116.0,820.0 6104.0,788.0 C 6095.0,763.0 6090.0,708.0 6090.0,643.0 L 6090.0,538.0 L 6126.0,494.0 C 6153.0,462.0 6170.0,450.0 6189.0,450.0 C 6206.0,450.0 6227.0,439.0 6246.0,419.0 C 6282.0,381.0 6322.0,363.0 6431.0,339.0 C 6535.0,317.0 6632.0,272.0 6662.0,235.0 C 6674.0,219.0 6687.0,184.0 6691.0,156.0 C 6695.0,128.0 6703.0,86.0 6709.0,63.0 L 6720.0,22.0 L 6788.0,10.0 C 6854.0,-1.0 6859.0,0.0 7012.0,44.0 C 7097.0,70.0 7221.0,101.0 7287.0,114.0 C 7391.0,136.0 7432.0,151.0 7601.0,230.0 C 7707.0,280.0 7814.0,332.0 7839.0,345.0 C 7863.0,359.0 7893.0,370.0 7905.0,370.0 C 7926.0,370.0 8156.0,462.0 8345.0,547.0 C 8391.0,568.0 8450.0,605.0 8485.0,635.0 C 8518.0,663.0 8577.0,711.0 8615.0,741.0 C 8654.0,771.0 8711.0,823.0 8743.0,856.0 C 8793.0,910.0 8805.0,930.0 8839.0,1026.0 C 8928.0,1275.0 8988.0,1409.0 9071.0,1542.0 C 9116.0,1615.0 9187.0,1742.0 9227.0,1823.0 L 9300.0,1971.0 L 9306.0,2098.0 C 9316.0,2282.0 9308.0,2324.0 9255.0,2398.0 C 9230.0,2432.0 9206.0,2478.0 9201.0,2500.0 C 9196.0,2522.0 9164.0,2591.0 9130.0,2652.0 C 9096.0,2714.0 9055.0,2798.0 9038.0,2840.0 C 9022.0,2881.0 8997.0,2935.0 8983.0,2960.0 C 8911.0,3086.0 8820.0,3282.0 8820.0,3310.0 C 8820.0,3327.0 8814.0,3353.0 8806.0,3368.0 C 8799.0,3383.0 8789.0,3413.0 8786.0,3434.0 C 8782.0,3456.0 8767.0,3488.0 8754.0,3506.0 C 8740.0,3524.0 8714.0,3574.0 8695.0,3618.0 C 8636.0,3757.0 8634.0,3760.0 8592.0,3759.0 C 8572.0,3759.0 8535.0,3751.0 8511.0,3742.0" fill="pink"/>
	<path d="M 3184.0,1027.0 C 3080.0,971.0 3077.0,969.0 3120.0,974.0 C 3145.0,977.0 3210.0,984.0 3265.0,991.0 C 3320.0,997.0 3387.0,1011.0 3413.0,1020.0 C 3460.0,1038.0 3461.0,1038.0 3517.0,1016.0 C 3572.0,993.0 3572.0,993.0 3550.0,977.0 C 3509.0,948.0 3554.0,944.0 3632.0,969.0 C 3683.0,986.0 3719.0,991.0 3768.0,988.0 C 3831.0,985.0 3835.0,986.0 3838.0,1008.0 C 3841.0,1028.0 3837.0,1030.0 3802.0,1030.0 C 3781.0,1030.0 3739.0,1038.0 3709.0,1048.0 C 3673.0,1059.0 3640.0,1064.0 3610.0,1060.0 C 3581.0,1056.0 3554.0,1059.0 3536.0,1068.0 C 3518.0,1077.0 3467.0,1083.0 3400.0,1084.0 L 3294.0,1086.0 L 3184.0,1027.0" fill="pink"/>
	<path d="M 5550.0,860.0 C 5550.0,825.0 5554.0,818.0 5577.0,809.0 C 5592.0,804.0 5620.0,800.0 5639.0,802.0 C 5674.0,805.0 5675.0,806.0 5678.0,850.0 L 5681.0,895.0 L 5656.0,871.0 C 5636.0,852.0 5630.0,850.0 5630.0,862.0 C 5630.0,876.0 5584.0,900.0 5559.0,900.0 C 5554.0,900.0 5550.0,882.0 5550.0,860.0" fill="pink"/>
	<path d="M 4574.0,759.0 L 4546.0,730.0 L 4595.0,680.0 C 4652.0,622.0 4683.0,617.0 4688.0,664.0 C 4691.0,683.0 4686.0,696.0 4675.0,702.0 C 4666.0,707.0 4646.0,729.0 4631.0,750.0 L 4603.0,789.0 L 4574.0,759.0" fill="pink"/>
	<path d="M 5592.0,612.0 C 5573.0,597.0 5569.0,586.0 5572.0,549.0 C 5575.0,507.0 5576.0,505.0 5610.0,502.0 C 5664.0,498.0 5673.0,509.0 5655.0,553.0 C 5647.0,573.0 5640.0,599.0 5640.0,610.0 C 5640.0,635.0 5623.0,635.0 5592.0,612.0" fill="pink"/>
</svg>
