<?xml version="1.0" ?>
<svg xmlns="http://www.w3.org/2000/svg" xmlns:ev="http://www.w3.org/2001/xml-events" xmlns:xlink="http://www.w3.org/1999/xlink" baseProfile="full" height="409px" version="1.1" viewBox="-1031.3210000000001 939.2629750936345 12300.642 8371.45303921576" width="600px">
	<defs/>
	<path d="M 6220.0,8603.0 C 6212.0,8600.0 6189.0,8588.0 6170.0,8575.0 C 6151.0,8562.0 6117.0,8549.0 6095.0,8545.0 C 6074.0,8541.0 6043.0,8532.0 6028.0,8524.0 C 6013.0,8516.0 5973.0,8510.0 5940.0,8510.0 C 5895.0,8510.0 5871.0,8505.0 5851.0,8491.0 C 5836.0,8480.0 5807.0,8470.0 5785.0,8468.0 C 5750.0,8465.0 5742.0,8459.0 5697.0,8394.0 L 5648.0,8323.0 L 5674.0,8234.0 C 5708.0,8116.0 5701.0,8084.0 5626.0,8013.0 C 5586.0,7974.0 5564.0,7960.0 5543.0,7960.0 C 5510.0,7960.0 5461.0,7914.0 5415.0,7839.0 C 5389.0,7796.0 5382.0,7792.0 5339.0,7786.0 C 5290.0,7779.0 5269.0,7761.0 5216.0,7677.0 C 5207.0,7661.0 5183.0,7639.0 5164.0,7628.0 C 5145.0,7617.0 5130.0,7603.0 5130.0,7596.0 C 5130.0,7590.0 5121.0,7567.0 5111.0,7546.0 C 5100.0,7525.0 5088.0,7494.0 5085.0,7478.0 C 5080.0,7457.0 5069.0,7444.0 5049.0,7437.0 C 5034.0,7431.0 5016.0,7413.0 5009.0,7398.0 C 5001.0,7379.0 4972.0,7355.0 4919.0,7324.0 C 4876.0,7298.0 4838.0,7269.0 4835.0,7259.0 C 4831.0,7249.0 4809.0,7232.0 4785.0,7221.0 C 4748.0,7205.0 4739.0,7195.0 4724.0,7153.0 L 4707.0,7105.0 L 4556.0,7105.0 L 4405.0,7105.0 L 4335.0,7060.0 C 4273.0,7020.0 4259.0,7015.0 4205.0,7014.0 C 4172.0,7013.0 4110.0,7003.0 4066.0,6992.0 C 3992.0,6972.0 3983.0,6972.0 3918.0,6985.0 C 3765.0,7018.0 3621.0,6993.0 3560.0,6924.0 C 3544.0,6905.0 3530.0,6883.0 3530.0,6875.0 C 3530.0,6862.0 3574.0,6824.0 3651.0,6769.0 C 3672.0,6755.0 3672.0,6751.0 3661.0,6703.0 C 3651.0,6661.0 3636.0,6639.0 3577.0,6578.0 C 3430.0,6426.0 3334.0,6316.0 3315.0,6276.0 L 3295.0,6235.0 L 3060.0,6224.0 C 2854.0,6214.0 2819.0,6210.0 2777.0,6191.0 C 2731.0,6170.0 2727.0,6169.0 2657.0,6184.0 L 2585.0,6199.0 L 2490.0,6146.0 C 2438.0,6117.0 2361.0,6081.0 2320.0,6065.0 C 2277.0,6049.0 2211.0,6012.0 2165.0,5978.0 C 2122.0,5946.0 2079.0,5920.0 2070.0,5920.0 C 2062.0,5920.0 2015.0,5907.0 1966.0,5891.0 L 1876.0,5862.0 L 1789.0,5936.0 C 1713.0,6000.0 1701.0,6015.0 1695.0,6050.0 C 1685.0,6108.0 1658.0,6104.0 1625.0,6041.0 C 1594.0,5978.0 1537.0,5945.0 1375.0,5895.0 C 1309.0,5875.0 1238.0,5848.0 1218.0,5834.0 C 1182.0,5811.0 1175.0,5810.0 990.0,5810.0 L 800.0,5810.0 L 764.0,5753.0 C 744.0,5721.0 708.0,5678.0 685.0,5658.0 C 652.0,5629.0 642.0,5612.0 637.0,5581.0 C 635.0,5560.0 607.0,5494.0 575.0,5436.0 C 524.0,5341.0 514.0,5328.0 476.0,5311.0 C 423.0,5288.0 390.0,5244.0 390.0,5196.0 C 390.0,5156.0 358.0,5064.0 323.0,5004.0 C 310.0,4981.0 296.0,4942.0 292.0,4919.0 C 285.0,4875.0 285.0,4875.0 179.0,4820.0 C 121.0,4790.0 56.0,4751.0 36.0,4733.0 L -2.0,4702.0 L 39.0,4647.0 C 71.0,4605.0 89.0,4591.0 115.0,4586.0 C 185.0,4572.0 221.0,4436.0 189.0,4301.0 C 181.0,4264.0 182.0,4253.0 199.0,4227.0 L 218.0,4197.0 L 194.0,4159.0 C 157.0,4099.0 165.0,4050.0 219.0,4015.0 C 249.0,3996.0 250.0,3992.0 250.0,3927.0 C 250.0,3878.0 244.0,3848.0 229.0,3819.0 C 212.0,3785.0 211.0,3773.0 219.0,3748.0 C 225.0,3731.0 230.0,3672.0 230.0,3616.0 L 231.0,3515.0 L 283.0,3474.0 C 312.0,3451.0 360.0,3420.0 390.0,3405.0 C 420.0,3390.0 473.0,3353.0 506.0,3324.0 L 567.0,3270.0 L 574.0,3182.0 C 584.0,3055.0 617.0,2934.0 655.0,2880.0 C 858.0,2593.0 934.0,2493.0 998.0,2428.0 C 1069.0,2355.0 1077.0,2351.0 1128.0,2344.0 C 1176.0,2338.0 1183.0,2334.0 1198.0,2304.0 C 1210.0,2279.0 1222.0,2269.0 1246.0,2264.0 C 1272.0,2259.0 1285.0,2248.0 1305.0,2214.0 C 1331.0,2170.0 1331.0,2169.0 1315.0,2120.0 C 1300.0,2076.0 1300.0,2069.0 1314.0,2041.0 C 1325.0,2020.0 1330.0,1982.0 1330.0,1914.0 C 1330.0,1839.0 1334.0,1812.0 1346.0,1799.0 C 1354.0,1790.0 1368.0,1756.0 1376.0,1723.0 C 1399.0,1633.0 1399.0,1632.0 1413.0,1651.0 C 1420.0,1660.0 1437.0,1670.0 1451.0,1673.0 C 1473.0,1679.0 1490.0,1709.0 1579.0,1911.0 C 1682.0,2142.0 1682.0,2143.0 1678.0,2209.0 C 1674.0,2267.0 1677.0,2282.0 1702.0,2332.0 C 1726.0,2381.0 1730.0,2402.0 1730.0,2468.0 L 1730.0,2547.0 L 1802.0,2568.0 C 1857.0,2584.0 1888.0,2600.0 1927.0,2635.0 C 1977.0,2678.0 1980.0,2680.0 2043.0,2680.0 C 2094.0,2680.0 2123.0,2687.0 2175.0,2710.0 C 2212.0,2727.0 2254.0,2740.0 2268.0,2740.0 C 2282.0,2740.0 2319.0,2747.0 2350.0,2756.0 C 2401.0,2770.0 2418.0,2770.0 2529.0,2757.0 C 2626.0,2745.0 2656.0,2737.0 2674.0,2721.0 C 2691.0,2705.0 2709.0,2700.0 2751.0,2700.0 C 2781.0,2700.0 2838.0,2690.0 2879.0,2678.0 C 2946.0,2658.0 2958.0,2657.0 3029.0,2669.0 C 3071.0,2676.0 3122.0,2689.0 3142.0,2699.0 L 3179.0,2717.0 L 3230.0,2687.0 C 3265.0,2667.0 3285.0,2661.0 3292.0,2668.0 C 3302.0,2678.0 3299.0,2733.0 3281.0,2830.0 C 3276.0,2860.0 3271.0,2948.0 3271.0,3026.0 C 3270.0,3103.0 3265.0,3193.0 3259.0,3225.0 C 3248.0,3283.0 3249.0,3284.0 3276.0,3304.0 C 3291.0,3316.0 3328.0,3339.0 3358.0,3355.0 C 3407.0,3382.0 3414.0,3391.0 3437.0,3450.0 C 3451.0,3486.0 3478.0,3534.0 3497.0,3557.0 C 3549.0,3621.0 3590.0,3707.0 3590.0,3750.0 L 3590.0,3787.0 L 3641.0,3794.0 C 3669.0,3798.0 3717.0,3812.0 3748.0,3826.0 C 3840.0,3867.0 3952.0,3908.0 3998.0,3919.0 C 4021.0,3924.0 4052.0,3935.0 4066.0,3945.0 C 4102.0,3968.0 4226.0,3950.0 4253.0,3917.0 C 4291.0,3869.0 4311.0,3853.0 4397.0,3800.0 C 4445.0,3770.0 4505.0,3729.0 4530.0,3708.0 C 4555.0,3688.0 4591.0,3664.0 4611.0,3656.0 C 4655.0,3637.0 4732.0,3551.0 4758.0,3490.0 C 4775.0,3451.0 4786.0,3441.0 4839.0,3416.0 C 4894.0,3389.0 4904.0,3387.0 4933.0,3398.0 C 4983.0,3416.0 5124.0,3414.0 5140.0,3395.0 C 5147.0,3387.0 5164.0,3380.0 5178.0,3380.0 C 5195.0,3380.0 5218.0,3366.0 5242.0,3343.0 C 5277.0,3309.0 5283.0,3307.0 5337.0,3309.0 C 5382.0,3311.0 5408.0,3305.0 5451.0,3286.0 C 5487.0,3269.0 5534.0,3258.0 5583.0,3254.0 C 5658.0,3247.0 5660.0,3248.0 5682.0,3275.0 C 5701.0,3299.0 5708.0,3302.0 5746.0,3296.0 C 5770.0,3293.0 5865.0,3268.0 5956.0,3240.0 C 6144.0,3183.0 6218.0,3171.0 6276.0,3190.0 C 6320.0,3204.0 6360.0,3236.0 6360.0,3258.0 C 6360.0,3267.0 6373.0,3296.0 6389.0,3324.0 C 6410.0,3362.0 6415.0,3381.0 6409.0,3398.0 C 6397.0,3431.0 6407.0,3446.0 6448.0,3456.0 C 6481.0,3464.0 6489.0,3472.0 6516.0,3529.0 C 6548.0,3596.0 6562.0,3609.0 6647.0,3655.0 L 6699.0,3682.0 L 6728.0,3661.0 C 6745.0,3650.0 6769.0,3640.0 6782.0,3640.0 C 6815.0,3640.0 6914.0,3605.0 6957.0,3579.0 C 6995.0,3556.0 7049.0,3557.0 7079.0,3583.0 C 7088.0,3591.0 7115.0,3604.0 7140.0,3613.0 C 7165.0,3621.0 7216.0,3640.0 7253.0,3654.0 C 7290.0,3668.0 7341.0,3680.0 7366.0,3680.0 C 7391.0,3680.0 7428.0,3689.0 7448.0,3699.0 C 7469.0,3710.0 7512.0,3726.0 7545.0,3735.0 C 7578.0,3745.0 7623.0,3765.0 7646.0,3781.0 C 7672.0,3799.0 7695.0,3807.0 7708.0,3803.0 C 7733.0,3797.0 7798.0,3843.0 7811.0,3877.0 C 7817.0,3894.0 7827.0,3900.0 7850.0,3900.0 C 7894.0,3900.0 8006.0,3855.0 8048.0,3820.0 C 8089.0,3786.0 8153.0,3779.0 8193.0,3804.0 C 8228.0,3826.0 8318.0,3843.0 8365.0,3837.0 C 8404.0,3831.0 8411.0,3833.0 8433.0,3859.0 C 8451.0,3881.0 8463.0,3887.0 8483.0,3883.0 C 8525.0,3875.0 8537.0,3893.0 8543.0,3976.0 C 8547.0,4025.0 8554.0,4058.0 8565.0,4069.0 C 8573.0,4079.0 8578.0,4094.0 8575.0,4102.0 C 8568.0,4120.0 8603.0,4136.0 8675.0,4145.0 C 8703.0,4149.0 8731.0,4157.0 8738.0,4163.0 C 8749.0,4171.0 8754.0,4170.0 8761.0,4157.0 C 8767.0,4147.0 8783.0,4140.0 8800.0,4140.0 C 8817.0,4140.0 8840.0,4130.0 8856.0,4115.0 C 8871.0,4101.0 8891.0,4090.0 8901.0,4090.0 C 8911.0,4090.0 8921.0,4086.0 8924.0,4081.0 C 8933.0,4067.0 8999.0,4060.0 9026.0,4071.0 C 9045.0,4078.0 9057.0,4076.0 9073.0,4065.0 C 9098.0,4047.0 9133.0,4046.0 9162.0,4061.0 C 9176.0,4069.0 9185.0,4069.0 9193.0,4061.0 C 9199.0,4055.0 9218.0,4050.0 9236.0,4050.0 C 9253.0,4050.0 9279.0,4041.0 9293.0,4030.0 C 9307.0,4019.0 9327.0,4010.0 9338.0,4010.0 C 9349.0,4010.0 9363.0,4004.0 9369.0,3996.0 C 9376.0,3988.0 9389.0,3984.0 9400.0,3987.0 C 9411.0,3990.0 9431.0,3983.0 9446.0,3971.0 C 9468.0,3954.0 9481.0,3951.0 9534.0,3956.0 C 9567.0,3959.0 9602.0,3964.0 9610.0,3967.0 C 9635.0,3977.0 9684.0,3969.0 9695.0,3955.0 C 9701.0,3948.0 9722.0,3939.0 9741.0,3935.0 C 9773.0,3929.0 9777.0,3931.0 9798.0,3969.0 C 9844.0,4050.0 9929.0,4075.0 10031.0,4037.0 C 10144.0,3994.0 10199.0,3962.0 10206.0,3935.0 C 10215.0,3900.0 10240.0,3903.0 10240.0,3939.0 C 10240.0,3980.0 10206.0,4033.0 10161.0,4063.0 C 10129.0,4084.0 10121.0,4097.0 10106.0,4154.0 C 10096.0,4190.0 10082.0,4225.0 10074.0,4231.0 C 10062.0,4241.0 10062.0,4246.0 10075.0,4266.0 C 10096.0,4299.0 10095.0,4357.0 10072.0,4364.0 C 10058.0,4369.0 10055.0,4378.0 10058.0,4404.0 C 10060.0,4425.0 10055.0,4448.0 10045.0,4464.0 C 10023.0,4497.0 9910.0,4560.0 9872.0,4560.0 C 9856.0,4560.0 9835.0,4569.0 9826.0,4579.0 C 9816.0,4590.0 9796.0,4600.0 9781.0,4602.0 C 9763.0,4604.0 9754.0,4612.0 9752.0,4628.0 C 9747.0,4659.0 9678.0,4694.0 9637.0,4686.0 C 9610.0,4681.0 9601.0,4686.0 9558.0,4730.0 L 9510.0,4780.0 L 9476.0,4750.0 C 9439.0,4717.0 9430.0,4714.0 9430.0,4732.0 C 9430.0,4754.0 9475.0,4810.0 9503.0,4821.0 C 9525.0,4830.0 9530.0,4838.0 9528.0,4859.0 C 9526.0,4880.0 9509.0,4894.0 9440.0,4932.0 C 9393.0,4958.0 9343.0,4993.0 9327.0,5010.0 L 9300.0,5040.0 L 9337.0,5108.0 L 9374.0,5176.0 L 9326.0,5238.0 C 9277.0,5300.0 9272.0,5303.0 9179.0,5324.0 C 9159.0,5328.0 9141.0,5349.0 9109.0,5402.0 C 9084.0,5443.0 9053.0,5480.0 9036.0,5489.0 C 9020.0,5498.0 8968.0,5531.0 8921.0,5563.0 C 8836.0,5620.0 8835.0,5620.0 8760.0,5620.0 L 8685.0,5621.0 L 8655.0,5660.0 C 8637.0,5683.0 8608.0,5705.0 8583.0,5715.0 C 8546.0,5729.0 8540.0,5736.0 8540.0,5761.0 C 8540.0,5786.0 8534.0,5794.0 8501.0,5808.0 C 8480.0,5817.0 8448.0,5842.0 8429.0,5864.0 L 8396.0,5902.0 L 8438.0,5939.0 C 8478.0,5973.0 8480.0,5978.0 8480.0,6030.0 C 8480.0,6081.0 8477.0,6089.0 8442.0,6123.0 C 8414.0,6151.0 8396.0,6160.0 8371.0,6160.0 C 8342.0,6160.0 8320.0,6177.0 8210.0,6280.0 L 8083.0,6400.0 L 8013.0,6400.0 C 7974.0,6400.0 7939.0,6395.0 7932.0,6388.0 C 7926.0,6382.0 7879.0,6376.0 7823.0,6374.0 C 7740.0,6371.0 7718.0,6374.0 7679.0,6391.0 L 7633.0,6412.0 L 7627.0,6508.0 L 7620.0,6604.0 L 7656.0,6641.0 C 7688.0,6674.0 7691.0,6682.0 7688.0,6726.0 L 7685.0,6775.0 L 7520.0,6793.0 C 7369.0,6809.0 7298.0,6810.0 7260.0,6796.0 C 7250.0,6792.0 7240.0,6802.0 7230.0,6823.0 C 7218.0,6848.0 7208.0,6856.0 7183.0,6858.0 C 7136.0,6863.0 7123.0,6891.0 7145.0,6941.0 C 7168.0,6992.0 7155.0,7010.0 7101.0,7003.0 C 7067.0,6998.0 7062.0,7001.0 7057.0,7021.0 C 7046.0,7062.0 7049.0,7067.0 7115.0,7110.0 C 7174.0,7148.0 7180.0,7155.0 7180.0,7186.0 C 7180.0,7208.0 7186.0,7223.0 7195.0,7226.0 C 7208.0,7231.0 7210.0,7267.0 7210.0,7466.0 L 7210.0,7699.0 L 7104.0,7862.0 C 7045.0,7951.0 6951.0,8085.0 6895.0,8160.0 C 6812.0,8270.0 6784.0,8300.0 6742.0,8323.0 C 6685.0,8354.0 6675.0,8367.0 6604.0,8492.0 L 6555.0,8580.0 L 6475.0,8580.0 C 6431.0,8580.0 6370.0,8587.0 6340.0,8595.0 C 6284.0,8610.0 6247.0,8613.0 6220.0,8603.0" fill="pink"/>
</svg>
