<?xml version="1.0" ?>
<svg xmlns="http://www.w3.org/2000/svg" xmlns:ev="http://www.w3.org/2001/xml-events" xmlns:xlink="http://www.w3.org/1999/xlink" baseProfile="full" height="600px" version="1.1" viewBox="-207.74368929524974 -1030.2205000000001 10660.375388322092 12299.441" width="521px">
	<defs/>
	<path d="M 8101.0,10176.0 L 8038.0,10112.0 L 7989.0,10128.0 L 7940.0,10144.0 L 7907.0,10112.0 C 7878.0,10084.0 7864.0,10079.0 7770.0,10065.0 C 7712.0,10057.0 7648.0,10043.0 7627.0,10033.0 C 7591.0,10017.0 7588.0,10018.0 7508.0,10049.0 C 7463.0,10066.0 7424.0,10077.0 7421.0,10072.0 C 7418.0,10068.0 7405.0,10047.0 7392.0,10027.0 C 7365.0,9985.0 7366.0,9986.0 7307.0,10002.0 C 7266.0,10012.0 7257.0,10011.0 7183.0,9981.0 L 7103.0,9949.0 L 7075.0,9847.0 C 7060.0,9791.0 7023.0,9697.0 6993.0,9637.0 L 6940.0,9530.0 L 6970.0,9470.0 C 6986.0,9437.0 7000.0,9408.0 7000.0,9405.0 C 7000.0,9402.0 6987.0,9400.0 6970.0,9400.0 C 6941.0,9400.0 6940.0,9398.0 6940.0,9358.0 C 6940.0,9334.0 6947.0,9283.0 6957.0,9243.0 L 6973.0,9171.0 L 6820.0,8818.0 C 6736.0,8624.0 6664.0,8458.0 6659.0,8449.0 C 6651.0,8434.0 6644.0,8434.0 6588.0,8446.0 C 6481.0,8469.0 6490.0,8482.0 6490.0,8300.0 L 6490.0,8140.0 L 6539.0,8011.0 L 6587.0,7882.0 L 6526.0,7837.0 L 6465.0,7792.0 L 6462.0,7871.0 L 6459.0,7950.0 L 6362.0,7950.0 C 6277.0,7951.0 6262.0,7953.0 6239.0,7973.0 C 6224.0,7985.0 6173.0,8028.0 6126.0,8069.0 L 6040.0,8142.0 L 5911.0,8175.0 L 5783.0,8207.0 L 5719.0,8159.0 C 5664.0,8117.0 5648.0,8110.0 5608.0,8110.0 C 5563.0,8110.0 5561.0,8111.0 5558.0,8142.0 C 5556.0,8167.0 5545.0,8181.0 5508.0,8207.0 L 5461.0,8241.0 L 5400.0,8210.0 C 5366.0,8193.0 5332.0,8181.0 5324.0,8184.0 C 5316.0,8187.0 5285.0,8208.0 5255.0,8231.0 L 5200.0,8272.0 L 5155.0,8257.0 L 5110.0,8241.0 L 5110.0,8301.0 C 5110.0,8333.0 5106.0,8360.0 5102.0,8360.0 C 5098.0,8360.0 5076.0,8342.0 5055.0,8320.0 C 5034.0,8298.0 5013.0,8280.0 5009.0,8280.0 C 5006.0,8280.0 4997.0,8300.0 4990.0,8325.0 L 4977.0,8370.0 L 4911.0,8370.0 L 4844.0,8370.0 L 4785.0,8430.0 C 4752.0,8463.0 4722.0,8490.0 4718.0,8490.0 C 4714.0,8490.0 4683.0,8450.0 4650.0,8400.0 C 4617.0,8351.0 4588.0,8310.0 4586.0,8310.0 C 4584.0,8310.0 4569.0,8330.0 4553.0,8355.0 L 4525.0,8400.0 L 3878.0,8400.0 C 3271.0,8400.0 3231.0,8399.0 3226.0,8383.0 C 3223.0,8373.0 3216.0,8337.0 3209.0,8302.0 C 3196.0,8235.0 3205.0,8245.0 3071.0,8144.0 C 3069.0,8142.0 3075.0,8111.0 3084.0,8075.0 L 3100.0,8010.0 L 3065.0,7957.0 C 3031.0,7907.0 3030.0,7901.0 3030.0,7816.0 L 3030.0,7727.0 L 3080.0,7660.0 C 3128.0,7595.0 3130.0,7590.0 3130.0,7526.0 C 3130.0,7461.0 3128.0,7456.0 3084.0,7398.0 C 3032.0,7331.0 3032.0,7329.0 3115.0,7311.0 C 3164.0,7300.0 3176.0,7301.0 3273.0,7329.0 C 3332.0,7347.0 3401.0,7360.0 3432.0,7360.0 C 3476.0,7360.0 3494.0,7366.0 3535.0,7394.0 C 3575.0,7420.0 3602.0,7429.0 3670.0,7439.0 C 3820.0,7460.0 3810.0,7455.0 3810.0,7510.0 L 3810.0,7558.0 L 3875.0,7574.0 L 3940.0,7590.0 L 4039.0,7525.0 L 4137.0,7459.0 L 4202.0,7491.0 L 4268.0,7523.0 L 4329.0,7476.0 C 4362.0,7450.0 4390.0,7426.0 4390.0,7422.0 C 4390.0,7418.0 4383.0,7372.0 4375.0,7320.0 C 4367.0,7268.0 4360.0,7220.0 4360.0,7213.0 C 4360.0,7207.0 4384.0,7196.0 4413.0,7190.0 C 4441.0,7183.0 4472.0,7174.0 4481.0,7169.0 C 4490.0,7165.0 4524.0,7119.0 4558.0,7068.0 L 4620.0,6974.0 L 4620.0,6898.0 L 4620.0,6822.0 L 4555.0,6771.0 C 4491.0,6720.0 4490.0,6719.0 4490.0,6671.0 C 4490.0,6623.0 4490.0,6623.0 4413.0,6562.0 C 4328.0,6494.0 4325.0,6494.0 4211.0,6514.0 L 4138.0,6527.0 L 4144.0,6494.0 C 4147.0,6475.0 4153.0,6445.0 4156.0,6427.0 C 4162.0,6395.0 4159.0,6391.0 4100.0,6347.0 C 4054.0,6313.0 4020.0,6276.0 3974.0,6206.0 C 3939.0,6153.0 3910.0,6108.0 3910.0,6105.0 C 3910.0,6102.0 3931.0,6050.0 3957.0,5989.0 L 4003.0,5880.0 L 3972.0,5840.0 C 3867.0,5708.0 3876.0,5726.0 3890.0,5676.0 C 3897.0,5651.0 3908.0,5627.0 3914.0,5622.0 C 3920.0,5617.0 3992.0,5594.0 4073.0,5570.0 C 4162.0,5544.0 4225.0,5520.0 4229.0,5511.0 C 4234.0,5502.0 4243.0,5465.0 4250.0,5428.0 L 4262.0,5360.0 L 4344.0,5360.0 L 4425.0,5360.0 L 4553.0,5249.0 C 4623.0,5188.0 4678.0,5135.0 4676.0,5131.0 C 4674.0,5128.0 4654.0,5092.0 4630.0,5052.0 C 4589.0,4982.0 4588.0,4978.0 4600.0,4941.0 C 4611.0,4905.0 4610.0,4900.0 4566.0,4811.0 L 4519.0,4719.0 L 4585.0,4573.0 C 4621.0,4492.0 4646.0,4424.0 4642.0,4421.0 C 4637.0,4418.0 4617.0,4405.0 4597.0,4392.0 C 4577.0,4379.0 4560.0,4365.0 4560.0,4361.0 C 4560.0,4357.0 4587.0,4334.0 4620.0,4310.0 C 4653.0,4286.0 4680.0,4265.0 4680.0,4264.0 C 4680.0,4263.0 4660.0,4249.0 4635.0,4233.0 C 4585.0,4202.0 4584.0,4198.0 4604.0,4123.0 L 4618.0,4072.0 L 4569.0,4024.0 L 4520.0,3976.0 L 4567.0,3928.0 L 4614.0,3880.0 L 4582.0,3880.0 L 4550.0,3880.0 L 4550.0,3766.0 L 4550.0,3652.0 L 4456.0,3620.0 C 4350.0,3585.0 4359.0,3598.0 4340.0,3453.0 C 4328.0,3363.0 4327.0,3361.0 4279.0,3314.0 L 4230.0,3266.0 L 4292.0,3203.0 L 4354.0,3140.0 L 4313.0,3140.0 C 4265.0,3140.0 4261.0,3136.0 4226.0,3045.0 L 4199.0,2975.0 L 4042.0,2991.0 C 3956.0,3000.0 3884.0,3008.0 3883.0,3009.0 C 3882.0,3009.0 3894.0,3042.0 3911.0,3081.0 C 3927.0,3121.0 3940.0,3157.0 3940.0,3162.0 C 3940.0,3170.0 3806.0,3364.0 3783.0,3390.0 C 3781.0,3392.0 3699.0,3314.0 3601.0,3216.0 L 3423.0,3039.0 L 3210.0,3069.0 C 3093.0,3086.0 2963.0,3100.0 2922.0,3100.0 L 2846.0,3100.0 L 2894.0,3149.0 L 2942.0,3198.0 L 2862.0,3261.0 L 2781.0,3325.0 L 2781.0,3374.0 C 2780.0,3402.0 2765.0,3469.0 2748.0,3523.0 L 2715.0,3623.0 L 2616.0,3671.0 C 2526.0,3716.0 2510.0,3720.0 2446.0,3720.0 C 2407.0,3720.0 2342.0,3713.0 2302.0,3703.0 L 2230.0,3686.0 L 2230.0,3604.0 L 2230.0,3521.0 L 2275.0,3490.0 C 2300.0,3473.0 2320.0,3454.0 2320.0,3449.0 C 2320.0,3443.0 2299.0,3370.0 2274.0,3287.0 L 2228.0,3135.0 L 1987.0,3103.0 L 1745.0,3071.0 L 1712.0,3103.0 L 1680.0,3134.0 L 1535.0,3086.0 L 1390.0,3039.0 L 1316.0,3099.0 C 1275.0,3133.0 1239.0,3160.0 1236.0,3160.0 C 1233.0,3160.0 1230.0,3110.0 1230.0,3048.0 L 1230.0,2937.0 L 1276.0,2858.0 C 1302.0,2814.0 1319.0,2775.0 1314.0,2771.0 C 1309.0,2767.0 1272.0,2737.0 1232.0,2705.0 C 1160.0,2648.0 1160.0,2648.0 1160.0,2599.0 C 1160.0,2572.0 1162.0,2550.0 1165.0,2550.0 C 1168.0,2550.0 1198.0,2564.0 1231.0,2581.0 C 1265.0,2598.0 1293.0,2610.0 1295.0,2608.0 C 1296.0,2606.0 1332.0,2544.0 1373.0,2470.0 L 1448.0,2335.0 L 1404.0,2332.0 C 1350.0,2328.0 1351.0,2333.0 1385.0,2183.0 C 1388.0,2172.0 1421.0,2139.0 1459.0,2111.0 C 1519.0,2066.0 1533.0,2060.0 1577.0,2060.0 C 1622.0,2060.0 1630.0,2056.0 1669.0,2016.0 L 1712.0,1972.0 L 1664.0,1939.0 C 1623.0,1912.0 1504.0,1780.0 1491.0,1747.0 C 1489.0,1742.0 1516.0,1710.0 1550.0,1675.0 L 1612.0,1612.0 L 1580.0,1565.0 C 1553.0,1525.0 1544.0,1520.0 1522.0,1524.0 C 1507.0,1527.0 1458.0,1535.0 1412.0,1541.0 L 1329.0,1552.0 L 1280.0,1650.0 C 1239.0,1733.0 1225.0,1751.0 1183.0,1778.0 C 1157.0,1795.0 1132.0,1806.0 1129.0,1802.0 C 1126.0,1798.0 1110.0,1762.0 1095.0,1723.0 C 1079.0,1683.0 1065.0,1650.0 1062.0,1650.0 C 1060.0,1650.0 1031.0,1657.0 998.0,1665.0 L 939.0,1681.0 L 872.0,1631.0 C 805.0,1582.0 805.0,1581.0 743.0,1440.0 C 708.0,1361.0 683.0,1294.0 685.0,1289.0 C 688.0,1285.0 740.0,1246.0 799.0,1204.0 C 899.0,1134.0 909.0,1124.0 921.0,1083.0 C 933.0,1037.0 1003.0,932.0 1044.0,895.0 C 1057.0,884.0 1153.0,802.0 1259.0,712.0 C 1364.0,622.0 1450.0,546.0 1450.0,542.0 C 1450.0,538.0 1443.0,511.0 1435.0,481.0 C 1427.0,451.0 1423.0,423.0 1425.0,419.0 C 1428.0,415.0 1450.0,399.0 1474.0,384.0 L 1517.0,357.0 L 1502.0,308.0 L 1486.0,259.0 L 1616.0,129.0 L 1746.0,-1.0 L 1828.0,65.0 C 1873.0,101.0 1910.0,132.0 1910.0,133.0 C 1910.0,134.0 1917.0,173.0 1925.0,220.0 C 1933.0,267.0 1940.0,307.0 1940.0,309.0 C 1940.0,312.0 1953.0,301.0 1970.0,285.0 C 1999.0,257.0 2000.0,257.0 2058.0,270.0 C 2132.0,285.0 2134.0,286.0 2147.0,335.0 C 2153.0,357.0 2168.0,407.0 2179.0,446.0 L 2200.0,516.0 L 2332.0,545.0 C 2405.0,560.0 2474.0,578.0 2485.0,585.0 C 2496.0,592.0 2530.0,629.0 2560.0,668.0 L 2615.0,739.0 L 2681.0,740.0 L 2747.0,740.0 L 2759.0,698.0 C 2768.0,666.0 2794.0,633.0 2857.0,568.0 L 2943.0,482.0 L 2983.0,496.0 C 3005.0,504.0 3026.0,510.0 3031.0,510.0 C 3035.0,510.0 3074.0,461.0 3117.0,400.0 L 3195.0,290.0 L 3260.0,290.0 L 3326.0,290.0 L 3359.0,223.0 L 3392.0,156.0 L 3423.0,208.0 C 3441.0,236.0 3463.0,273.0 3472.0,290.0 L 3490.0,321.0 L 3534.0,291.0 C 3559.0,274.0 3581.0,260.0 3583.0,260.0 C 3586.0,260.0 3604.0,282.0 3623.0,309.0 C 3648.0,344.0 3670.0,361.0 3697.0,370.0 C 3718.0,377.0 3738.0,385.0 3742.0,389.0 C 3746.0,392.0 3742.0,460.0 3733.0,538.0 L 3717.0,682.0 L 3763.0,728.0 C 3789.0,753.0 3811.0,772.0 3813.0,770.0 C 3815.0,767.0 3838.0,737.0 3864.0,702.0 L 3911.0,640.0 L 3975.0,640.0 L 4038.0,640.0 L 4070.0,690.0 L 4102.0,740.0 L 4199.0,740.0 C 4292.0,740.0 4298.0,741.0 4321.0,766.0 C 4343.0,791.0 4388.0,822.0 4482.0,879.0 L 4519.0,901.0 L 4503.0,855.0 L 4487.0,808.0 L 4551.0,744.0 L 4614.0,680.0 L 4550.0,615.0 L 4486.0,550.0 L 4519.0,482.0 L 4552.0,413.0 L 4536.0,290.0 C 4527.0,222.0 4522.0,165.0 4523.0,163.0 C 4525.0,161.0 4561.0,174.0 4604.0,192.0 L 4681.0,223.0 L 4745.0,160.0 L 4809.0,96.0 L 4872.0,126.0 C 4906.0,142.0 4959.0,171.0 4989.0,191.0 C 5040.0,223.0 5049.0,236.0 5094.0,326.0 C 5141.0,422.0 5146.0,428.0 5255.0,520.0 C 5347.0,598.0 5373.0,626.0 5401.0,680.0 C 5434.0,741.0 5438.0,745.0 5505.0,773.0 C 5550.0,792.0 5601.0,805.0 5649.0,809.0 L 5724.0,815.0 L 5771.0,894.0 C 5806.0,952.0 5822.0,992.0 5831.0,1042.0 C 5838.0,1080.0 5848.0,1117.0 5854.0,1124.0 C 5874.0,1149.0 6024.0,1197.0 6120.0,1209.0 C 6212.0,1221.0 6304.0,1244.0 6325.0,1261.0 C 6331.0,1265.0 6349.0,1310.0 6365.0,1361.0 C 6391.0,1442.0 6398.0,1454.0 6427.0,1468.0 C 6464.0,1486.0 6464.0,1486.0 6481.0,1595.0 C 6495.0,1687.0 6539.0,1784.0 6608.0,1874.0 C 6652.0,1931.0 6653.0,1934.0 6639.0,1964.0 C 6629.0,1988.0 6625.0,2060.0 6622.0,2267.0 L 6619.0,2539.0 L 6655.0,2662.0 C 6674.0,2729.0 6690.0,2803.0 6690.0,2825.0 C 6690.0,2848.0 6674.0,2913.0 6655.0,2970.0 C 6622.0,3067.0 6620.0,3083.0 6620.0,3198.0 L 6620.0,3322.0 L 6686.0,3405.0 C 6722.0,3451.0 6816.0,3545.0 6897.0,3616.0 C 7034.0,3737.0 7049.0,3754.0 7140.0,3890.0 L 7236.0,4035.0 L 7252.0,4132.0 L 7269.0,4230.0 L 7367.0,4344.0 C 7421.0,4407.0 7515.0,4502.0 7577.0,4554.0 L 7688.0,4650.0 L 7784.0,4650.0 C 7874.0,4650.0 7885.0,4652.0 7948.0,4684.0 C 8001.0,4711.0 8027.0,4732.0 8070.0,4786.0 C 8100.0,4824.0 8179.0,4911.0 8246.0,4980.0 C 8325.0,5061.0 8385.0,5133.0 8416.0,5184.0 L 8464.0,5263.0 L 8447.0,5404.0 C 8437.0,5482.0 8430.0,5582.0 8430.0,5628.0 C 8430.0,5706.0 8432.0,5715.0 8478.0,5808.0 C 8512.0,5875.0 8537.0,5946.0 8559.0,6035.0 L 8591.0,6165.0 L 8657.0,6232.0 C 8720.0,6296.0 8723.0,6301.0 8736.0,6372.0 C 8758.0,6494.0 8758.0,6492.0 8690.0,6525.0 L 8630.0,6554.0 L 8630.0,6649.0 C 8630.0,6702.0 8637.0,6769.0 8644.0,6798.0 C 8656.0,6842.0 8656.0,6858.0 8644.0,6903.0 C 8637.0,6931.0 8630.0,6998.0 8630.0,7050.0 L 8630.0,7144.0 L 8692.0,7207.0 L 8754.0,7269.0 L 8738.0,7382.0 L 8722.0,7495.0 L 8771.0,7545.0 L 8819.0,7595.0 L 8835.0,7723.0 C 8850.0,7841.0 8851.0,7858.0 8836.0,7948.0 L 8819.0,8045.0 L 8850.0,8134.0 C 8879.0,8220.0 8880.0,8231.0 8880.0,8389.0 L 8880.0,8555.0 L 8949.0,8625.0 C 9005.0,8682.0 9023.0,8709.0 9046.0,8770.0 C 9062.0,8811.0 9091.0,8870.0 9111.0,8900.0 C 9160.0,8976.0 9210.0,9109.0 9210.0,9163.0 L 9210.0,9207.0 L 9288.0,9237.0 L 9365.0,9267.0 L 9368.0,9351.0 L 9371.0,9435.0 L 9450.0,9515.0 L 9530.0,9595.0 L 9545.0,9739.0 C 9553.0,9818.0 9560.0,9891.0 9560.0,9901.0 C 9560.0,9915.0 9541.0,9929.0 9497.0,9951.0 C 9439.0,9980.0 9429.0,9989.0 9386.0,10061.0 C 9360.0,10105.0 9336.0,10140.0 9332.0,10140.0 C 9328.0,10140.0 9305.0,10126.0 9280.0,10110.0 C 9239.0,10083.0 9227.0,10080.0 9154.0,10080.0 L 9073.0,10080.0 L 9059.0,10018.0 C 9044.0,9954.0 9036.0,9944.0 8973.0,9925.0 C 8951.0,9919.0 8950.0,9921.0 8950.0,9985.0 C 8950.0,10043.0 8948.0,10051.0 8933.0,10046.0 C 8923.0,10043.0 8878.0,10036.0 8832.0,10029.0 L 8750.0,10016.0 L 8717.0,10048.0 L 8685.0,10079.0 L 8630.0,10065.0 C 8600.0,10057.0 8572.0,10050.0 8568.0,10050.0 C 8563.0,10050.0 8560.0,10070.0 8560.0,10095.0 C 8560.0,10137.0 8558.0,10140.0 8533.0,10140.0 C 8504.0,10140.0 8347.0,10123.0 8298.0,10115.0 C 8274.0,10111.0 8265.0,10119.0 8224.0,10175.0 C 8198.0,10211.0 8174.0,10240.0 8170.0,10240.0 C 8167.0,10240.0 8136.0,10211.0 8101.0,10176.0" fill="pink"/>
</svg>
