<?xml version="1.0" ?>
<svg xmlns="http://www.w3.org/2000/svg" xmlns:ev="http://www.w3.org/2001/xml-events" xmlns:xlink="http://www.w3.org/1999/xlink" baseProfile="full" height="383px" version="1.1" viewBox="-1026.2016755133895 1202.8820812163513 12293.240918324187 7834.2358375672975" width="600px">
	<defs/>
	<path d="M 5906.0,8345.0 C 5912.0,8310.0 5912.0,8310.0 5882.0,8316.0 C 5860.0,8321.0 5843.0,8316.0 5822.0,8301.0 C 5805.0,8290.0 5782.0,8280.0 5771.0,8280.0 C 5745.0,8280.0 5650.0,8194.0 5650.0,8171.0 C 5650.0,8162.0 5630.0,8132.0 5607.0,8105.0 C 5568.0,8061.0 5562.0,8048.0 5557.0,7993.0 C 5551.0,7935.0 5552.0,7930.0 5577.0,7911.0 C 5591.0,7899.0 5618.0,7890.0 5636.0,7890.0 C 5663.0,7890.0 5670.0,7886.0 5670.0,7871.0 C 5670.0,7850.0 5696.0,7835.0 5705.0,7850.0 C 5708.0,7855.0 5733.0,7862.0 5760.0,7866.0 C 5800.0,7871.0 5810.0,7876.0 5810.0,7891.0 C 5810.0,7903.0 5817.0,7910.0 5829.0,7910.0 C 5839.0,7910.0 5853.0,7917.0 5860.0,7925.0 C 5868.0,7935.0 5891.0,7940.0 5930.0,7940.0 C 5994.0,7940.0 6020.0,7922.0 6020.0,7877.0 C 6020.0,7847.0 6005.0,7833.0 5996.0,7856.0 C 5993.0,7864.0 5985.0,7868.0 5979.0,7865.0 C 5972.0,7860.0 5971.0,7840.0 5975.0,7808.0 C 5984.0,7742.0 5968.0,7701.0 5934.0,7708.0 C 5914.0,7712.0 5910.0,7718.0 5910.0,7746.0 C 5910.0,7770.0 5905.0,7782.0 5893.0,7786.0 C 5883.0,7789.0 5858.0,7799.0 5837.0,7808.0 C 5799.0,7823.0 5799.0,7823.0 5772.0,7794.0 C 5757.0,7778.0 5726.0,7756.0 5703.0,7746.0 C 5654.0,7724.0 5645.0,7694.0 5684.0,7684.0 C 5731.0,7673.0 5721.0,7654.0 5656.0,7631.0 C 5600.0,7611.0 5591.0,7611.0 5561.0,7623.0 C 5536.0,7634.0 5520.0,7635.0 5501.0,7627.0 C 5435.0,7603.0 5296.0,7665.0 5288.0,7722.0 C 5286.0,7740.0 5276.0,7746.0 5245.0,7752.0 C 5176.0,7764.0 5146.0,7772.0 5125.0,7786.0 C 5093.0,7809.0 5072.0,7802.0 5045.0,7760.0 C 5027.0,7731.0 5010.0,7718.0 4981.0,7710.0 C 4960.0,7705.0 4937.0,7693.0 4930.0,7685.0 C 4923.0,7677.0 4903.0,7668.0 4885.0,7664.0 C 4857.0,7659.0 4850.0,7652.0 4844.0,7626.0 C 4835.0,7581.0 4833.0,7580.0 4797.0,7595.0 C 4768.0,7607.0 4763.0,7607.0 4744.0,7589.0 C 4731.0,7576.0 4710.0,7570.0 4684.0,7571.0 C 4540.0,7573.0 4522.0,7572.0 4497.0,7555.0 C 4480.0,7545.0 4461.0,7540.0 4446.0,7544.0 C 4427.0,7549.0 4422.0,7558.0 4418.0,7595.0 C 4410.0,7664.0 4401.0,7670.0 4299.0,7670.0 L 4210.0,7670.0 L 4183.0,7616.0 L 4157.0,7563.0 L 4096.0,7557.0 C 4062.0,7554.0 4013.0,7543.0 3987.0,7531.0 C 3960.0,7519.0 3919.0,7510.0 3895.0,7510.0 C 3858.0,7510.0 3848.0,7515.0 3830.0,7540.0 C 3804.0,7577.0 3809.0,7610.0 3842.0,7625.0 C 3857.0,7632.0 3864.0,7642.0 3862.0,7655.0 C 3859.0,7678.0 3859.0,7685.0 3862.0,7719.0 C 3867.0,7758.0 3848.0,7753.0 3787.0,7699.0 L 3729.0,7647.0 L 3665.0,7654.0 C 3601.0,7660.0 3601.0,7660.0 3585.0,7630.0 C 3576.0,7613.0 3547.0,7575.0 3520.0,7544.0 C 3465.0,7484.0 3460.0,7467.0 3491.0,7434.0 C 3515.0,7409.0 3509.0,7392.0 3463.0,7348.0 L 3435.0,7321.0 L 3386.0,7352.0 L 3337.0,7384.0 L 3319.0,7361.0 C 3294.0,7330.0 3295.0,7320.0 3324.0,7320.0 C 3337.0,7320.0 3353.0,7314.0 3359.0,7307.0 C 3368.0,7296.0 3358.0,7281.0 3312.0,7239.0 C 3242.0,7172.0 3203.0,7154.0 3160.0,7169.0 C 3122.0,7182.0 2962.0,7165.0 2940.0,7145.0 C 2927.0,7133.0 2921.0,7134.0 2900.0,7150.0 C 2886.0,7161.0 2859.0,7170.0 2839.0,7170.0 C 2782.0,7170.0 2766.0,7189.0 2774.0,7241.0 C 2794.0,7360.0 2796.0,7350.0 2761.0,7350.0 C 2743.0,7350.0 2716.0,7360.0 2700.0,7371.0 C 2670.0,7394.0 2655.0,7393.0 2572.0,7369.0 C 2537.0,7358.0 2522.0,7358.0 2482.0,7370.0 C 2456.0,7377.0 2409.0,7386.0 2378.0,7388.0 C 2305.0,7393.0 2298.0,7380.0 2328.0,7296.0 C 2340.0,7263.0 2349.0,7236.0 2347.0,7235.0 C 2346.0,7235.0 2320.0,7222.0 2290.0,7207.0 C 2260.0,7192.0 2229.0,7180.0 2222.0,7180.0 C 2215.0,7180.0 2210.0,7167.0 2210.0,7150.0 C 2210.0,7131.0 2203.0,7117.0 2190.0,7110.0 C 2179.0,7104.0 2153.0,7074.0 2131.0,7042.0 C 2110.0,7010.0 2085.0,6978.0 2076.0,6971.0 C 2067.0,6964.0 2060.0,6945.0 2060.0,6929.0 L 2060.0,6900.0 L 2099.0,6920.0 C 2133.0,6937.0 2146.0,6938.0 2193.0,6930.0 C 2238.0,6921.0 2257.0,6923.0 2309.0,6939.0 C 2388.0,6963.0 2430.0,6954.0 2460.0,6906.0 C 2487.0,6861.0 2475.0,6828.0 2421.0,6801.0 C 2400.0,6790.0 2371.0,6767.0 2358.0,6750.0 C 2340.0,6727.0 2322.0,6718.0 2281.0,6710.0 C 2251.0,6704.0 2225.0,6698.0 2223.0,6696.0 C 2220.0,6694.0 2226.0,6678.0 2234.0,6661.0 C 2268.0,6596.0 2258.0,6571.0 2163.0,6476.0 C 1984.0,6300.0 1986.0,6303.0 2010.0,6290.0 C 2030.0,6279.0 2028.0,6276.0 1969.0,6230.0 C 1934.0,6203.0 1885.0,6174.0 1860.0,6164.0 C 1801.0,6142.0 1782.0,6124.0 1774.0,6084.0 C 1769.0,6058.0 1763.0,6051.0 1742.0,6048.0 C 1723.0,6046.0 1709.0,6033.0 1693.0,6005.0 C 1681.0,5984.0 1662.0,5962.0 1651.0,5958.0 C 1627.0,5949.0 1623.0,5918.0 1645.0,5900.0 C 1667.0,5882.0 1654.0,5870.0 1611.0,5870.0 C 1573.0,5870.0 1572.0,5869.0 1541.0,5800.0 C 1511.0,5731.0 1509.0,5730.0 1472.0,5730.0 C 1451.0,5730.0 1430.0,5726.0 1425.0,5721.0 C 1407.0,5704.0 1256.0,5648.0 1224.0,5646.0 C 1200.0,5645.0 1181.0,5632.0 1137.0,5584.0 C 1065.0,5506.0 1058.0,5479.0 1099.0,5423.0 C 1125.0,5387.0 1130.0,5371.0 1130.0,5322.0 C 1130.0,5274.0 1126.0,5259.0 1102.0,5230.0 C 1062.0,5181.0 1053.0,5103.0 1081.0,5055.0 L 1102.0,5020.0 L 1076.0,4975.0 C 1051.0,4933.0 1047.0,4930.0 1006.0,4930.0 C 965.0,4930.0 962.0,4928.0 936.0,4879.0 C 920.0,4851.0 901.0,4826.0 891.0,4823.0 C 846.0,4808.0 700.0,4712.0 683.0,4685.0 C 672.0,4669.0 595.0,4597.0 513.0,4525.0 C 430.0,4454.0 354.0,4380.0 344.0,4361.0 L 325.0,4327.0 L 359.0,4300.0 C 381.0,4281.0 395.0,4258.0 401.0,4230.0 C 410.0,4190.0 409.0,4186.0 373.0,4146.0 C 352.0,4124.0 316.0,4075.0 292.0,4038.0 C 250.0,3974.0 249.0,3970.0 260.0,3930.0 C 267.0,3904.0 268.0,3884.0 262.0,3877.0 C 257.0,3870.0 250.0,3853.0 247.0,3839.0 C 239.0,3808.0 271.0,3774.0 338.0,3741.0 C 374.0,3723.0 387.0,3708.0 410.0,3658.0 L 439.0,3597.0 L 394.0,3539.0 C 370.0,3508.0 350.0,3474.0 350.0,3465.0 C 350.0,3456.0 344.0,3439.0 338.0,3427.0 C 331.0,3415.0 325.0,3376.0 325.0,3341.0 L 325.0,3277.0 L 275.0,3263.0 C 248.0,3255.0 215.0,3239.0 204.0,3229.0 C 189.0,3215.0 175.0,3211.0 158.0,3215.0 C 121.0,3225.0 39.0,3177.0 16.0,3133.0 C -2.0,3098.0 -2.0,3096.0 16.0,3083.0 C 26.0,3076.0 40.0,3070.0 47.0,3070.0 C 65.0,3070.0 64.0,3061.0 35.0,2996.0 C 21.0,2965.0 10.0,2937.0 10.0,2935.0 C 10.0,2932.0 34.0,2930.0 64.0,2930.0 C 94.0,2930.0 130.0,2926.0 144.0,2920.0 C 166.0,2912.0 172.0,2915.0 190.0,2940.0 C 208.0,2965.0 214.0,2968.0 236.0,2960.0 C 328.0,2925.0 468.0,2977.0 538.0,3071.0 C 575.0,3122.0 589.0,3131.0 661.0,3160.0 C 746.0,3195.0 760.0,3210.0 760.0,3269.0 C 760.0,3307.0 741.0,3323.0 716.0,3305.0 C 692.0,3287.0 650.0,3305.0 650.0,3334.0 C 649.0,3367.0 614.0,3437.0 591.0,3450.0 C 579.0,3456.0 570.0,3470.0 570.0,3482.0 C 570.0,3522.0 646.0,3624.0 712.0,3672.0 C 747.0,3697.0 786.0,3730.0 799.0,3744.0 C 813.0,3758.0 833.0,3770.0 844.0,3770.0 C 878.0,3770.0 1012.0,3811.0 1064.0,3837.0 C 1092.0,3851.0 1137.0,3880.0 1165.0,3901.0 L 1217.0,3940.0 L 1416.0,3940.0 C 1631.0,3940.0 1607.0,3944.0 1863.0,3869.0 L 1930.0,3849.0 L 1930.0,3777.0 C 1930.0,3682.0 1905.0,3640.0 1847.0,3640.0 C 1805.0,3640.0 1801.0,3613.0 1839.0,3583.0 C 1856.0,3570.0 1870.0,3551.0 1870.0,3541.0 C 1870.0,3526.0 1895.0,3502.0 2003.0,3409.0 C 2021.0,3394.0 1998.0,3307.0 1966.0,3271.0 C 1922.0,3221.0 1910.0,3189.0 1910.0,3116.0 C 1910.0,3059.0 1907.0,3051.0 1877.0,3022.0 C 1850.0,2996.0 1844.0,2983.0 1848.0,2960.0 C 1854.0,2918.0 1903.0,2890.0 1968.0,2890.0 C 1997.0,2890.0 2038.0,2883.0 2060.0,2874.0 L 2100.0,2858.0 L 2100.0,2797.0 C 2100.0,2749.0 2096.0,2732.0 2079.0,2714.0 C 2053.0,2686.0 2060.0,2643.0 2093.0,2630.0 C 2111.0,2623.0 2120.0,2627.0 2145.0,2654.0 L 2175.0,2687.0 L 2211.0,2651.0 C 2230.0,2631.0 2259.0,2594.0 2273.0,2568.0 C 2288.0,2543.0 2311.0,2513.0 2324.0,2503.0 C 2372.0,2465.0 2388.0,2411.0 2365.0,2358.0 C 2359.0,2344.0 2366.0,2338.0 2404.0,2328.0 C 2453.0,2315.0 2455.0,2312.0 2441.0,2264.0 C 2433.0,2235.0 2436.0,2227.0 2481.0,2174.0 C 2508.0,2141.0 2530.0,2107.0 2530.0,2098.0 C 2530.0,2089.0 2541.0,2071.0 2554.0,2058.0 C 2567.0,2045.0 2580.0,2026.0 2582.0,2015.0 C 2588.0,1980.0 2625.0,1985.0 2655.0,2025.0 C 2686.0,2065.0 2712.0,2065.0 2743.0,2024.0 C 2769.0,1991.0 2820.0,1990.0 2820.0,2023.0 C 2820.0,2057.0 2860.0,2090.0 2899.0,2090.0 C 2934.0,2090.0 2983.0,2131.0 2995.0,2171.0 C 3000.0,2187.0 3007.0,2190.0 3023.0,2186.0 C 3035.0,2182.0 3068.0,2175.0 3095.0,2171.0 C 3123.0,2166.0 3162.0,2154.0 3182.0,2145.0 C 3216.0,2128.0 3218.0,2128.0 3239.0,2149.0 C 3250.0,2160.0 3271.0,2170.0 3284.0,2170.0 C 3301.0,2170.0 3318.0,2182.0 3335.0,2204.0 C 3351.0,2226.0 3372.0,2240.0 3388.0,2242.0 C 3409.0,2244.0 3416.0,2251.0 3418.0,2273.0 C 3420.0,2291.0 3427.0,2300.0 3439.0,2300.0 C 3449.0,2300.0 3463.0,2307.0 3470.0,2315.0 C 3477.0,2323.0 3495.0,2330.0 3509.0,2330.0 C 3545.0,2330.0 3569.0,2349.0 3578.0,2385.0 C 3589.0,2425.0 3617.0,2429.0 3645.0,2394.0 C 3664.0,2371.0 3676.0,2366.0 3711.0,2365.0 C 3735.0,2365.0 3772.0,2369.0 3792.0,2373.0 C 3825.0,2380.0 3832.0,2378.0 3864.0,2345.0 C 3883.0,2326.0 3908.0,2310.0 3920.0,2310.0 C 3937.0,2310.0 3940.0,2304.0 3940.0,2270.0 C 3940.0,2236.0 3944.0,2229.0 3965.0,2224.0 C 3982.0,2220.0 3998.0,2225.0 4016.0,2239.0 C 4054.0,2269.0 4079.0,2265.0 4121.0,2224.0 C 4151.0,2195.0 4161.0,2190.0 4176.0,2199.0 C 4187.0,2204.0 4221.0,2212.0 4252.0,2215.0 C 4315.0,2222.0 4311.0,2217.0 4326.0,2325.0 C 4331.0,2362.0 4341.0,2382.0 4362.0,2402.0 C 4389.0,2427.0 4399.0,2430.0 4488.0,2432.0 L 4585.0,2435.0 L 4617.0,2490.0 C 4634.0,2520.0 4658.0,2561.0 4670.0,2580.0 C 4689.0,2610.0 4691.0,2619.0 4681.0,2646.0 C 4667.0,2684.0 4681.0,2733.0 4718.0,2773.0 C 4738.0,2794.0 4753.0,2800.0 4784.0,2800.0 C 4839.0,2800.0 4872.0,2819.0 4883.0,2855.0 C 4888.0,2872.0 4906.0,2894.0 4923.0,2905.0 C 4946.0,2919.0 4956.0,2934.0 4958.0,2955.0 C 4959.0,2972.0 4965.0,3004.0 4972.0,3028.0 C 4981.0,3064.0 4980.0,3073.0 4966.0,3089.0 C 4957.0,3099.0 4943.0,3129.0 4935.0,3156.0 C 4926.0,3189.0 4907.0,3219.0 4880.0,3245.0 C 4814.0,3308.0 4814.0,3311.0 4862.0,3380.0 C 4902.0,3436.0 4907.0,3440.0 4935.0,3435.0 C 5030.0,3415.0 5037.0,3416.0 5079.0,3451.0 C 5108.0,3476.0 5121.0,3495.0 5125.0,3522.0 C 5130.0,3552.0 5137.0,3561.0 5163.0,3570.0 C 5201.0,3583.0 5330.0,3703.0 5330.0,3725.0 C 5330.0,3733.0 5319.0,3750.0 5305.0,3762.0 C 5256.0,3804.0 5269.0,3820.0 5399.0,3885.0 C 5493.0,3931.0 5529.0,3944.0 5566.0,3944.0 C 5612.0,3945.0 5615.0,3943.0 5637.0,3905.0 C 5676.0,3835.0 5667.0,3635.0 5619.0,3507.0 L 5590.0,3429.0 L 5615.0,3362.0 C 5659.0,3244.0 5667.0,3234.0 5745.0,3199.0 L 5816.0,3167.0 L 5904.0,3013.0 C 5988.0,2865.0 5992.0,2860.0 6024.0,2860.0 C 6043.0,2860.0 6070.0,2850.0 6091.0,2834.0 C 6110.0,2820.0 6142.0,2800.0 6162.0,2789.0 L 6200.0,2770.0 L 6247.0,2794.0 L 6295.0,2818.0 L 6330.0,2789.0 C 6369.0,2756.0 6386.0,2753.0 6417.0,2775.0 C 6437.0,2789.0 6441.0,2787.0 6488.0,2734.0 C 6540.0,2674.0 6547.0,2637.0 6509.0,2627.0 C 6494.0,2623.0 6491.0,2616.0 6495.0,2593.0 C 6500.0,2569.0 6495.0,2561.0 6460.0,2536.0 C 6424.0,2512.0 6400.0,2477.0 6400.0,2451.0 C 6400.0,2447.0 6417.0,2438.0 6439.0,2432.0 C 6463.0,2424.0 6495.0,2401.0 6524.0,2370.0 C 6552.0,2340.0 6583.0,2317.0 6601.0,2313.0 C 6627.0,2308.0 6630.0,2304.0 6630.0,2267.0 C 6630.0,2234.0 6637.0,2219.0 6665.0,2190.0 C 6693.0,2161.0 6701.0,2143.0 6712.0,2083.0 C 6723.0,2013.0 6723.0,2010.0 6702.0,1987.0 C 6681.0,1965.0 6673.0,1930.0 6686.0,1917.0 C 6689.0,1914.0 6709.0,1918.0 6730.0,1925.0 C 6766.0,1938.0 6769.0,1937.0 6790.0,1915.0 C 6807.0,1896.0 6817.0,1893.0 6835.0,1900.0 C 6853.0,1907.0 6859.0,1904.0 6869.0,1884.0 C 6875.0,1870.0 6888.0,1860.0 6900.0,1860.0 C 6942.0,1860.0 6959.0,1879.0 6981.0,1953.0 C 6993.0,1992.0 7013.0,2036.0 7026.0,2050.0 C 7039.0,2064.0 7052.0,2090.0 7056.0,2106.0 C 7061.0,2134.0 7057.0,2141.0 7018.0,2173.0 C 6994.0,2192.0 6964.0,2211.0 6950.0,2215.0 C 6930.0,2220.0 6921.0,2234.0 6903.0,2289.0 C 6875.0,2373.0 6875.0,2382.0 6901.0,2406.0 C 6920.0,2423.0 6921.0,2432.0 6915.0,2497.0 C 6909.0,2561.0 6911.0,2574.0 6930.0,2604.0 C 6942.0,2625.0 6964.0,2643.0 6984.0,2650.0 C 7050.0,2672.0 7072.0,2719.0 7054.0,2807.0 C 7048.0,2837.0 7051.0,2840.0 7105.0,2871.0 C 7136.0,2888.0 7167.0,2913.0 7172.0,2926.0 C 7178.0,2939.0 7191.0,2952.0 7201.0,2955.0 C 7211.0,2958.0 7222.0,2970.0 7225.0,2981.0 C 7229.0,2992.0 7240.0,3000.0 7254.0,3000.0 C 7273.0,3000.0 7282.0,3011.0 7299.0,3049.0 C 7310.0,3076.0 7320.0,3103.0 7320.0,3109.0 C 7320.0,3115.0 7331.0,3127.0 7344.0,3136.0 C 7358.0,3144.0 7372.0,3165.0 7375.0,3181.0 C 7380.0,3201.0 7388.0,3210.0 7401.0,3210.0 C 7416.0,3210.0 7420.0,3217.0 7420.0,3245.0 C 7420.0,3268.0 7440.0,3320.0 7476.0,3392.0 C 7529.0,3498.0 7531.0,3506.0 7525.0,3559.0 C 7522.0,3590.0 7517.0,3651.0 7514.0,3695.0 C 7509.0,3771.0 7507.0,3777.0 7471.0,3815.0 C 7416.0,3873.0 7414.0,3884.0 7460.0,3905.0 C 7500.0,3923.0 7510.0,3945.0 7510.0,4016.0 C 7510.0,4035.0 7518.0,4058.0 7528.0,4068.0 C 7574.0,4114.0 7700.0,4122.0 7700.0,4079.0 C 7700.0,4061.0 7716.0,4025.0 7737.0,3993.0 C 7742.0,3987.0 7758.0,3978.0 7773.0,3975.0 C 7798.0,3968.0 7802.0,3971.0 7820.0,4014.0 C 7841.0,4059.0 7872.0,4090.0 7898.0,4090.0 C 7910.0,4090.0 7911.0,4077.0 7906.0,4023.0 C 7887.0,3822.0 7887.0,3825.0 7909.0,3782.0 C 7921.0,3759.0 7930.0,3725.0 7930.0,3706.0 C 7930.0,3670.0 7947.0,3646.0 7978.0,3636.0 C 7987.0,3633.0 8008.0,3605.0 8024.0,3575.0 C 8063.0,3499.0 8133.0,3432.0 8179.0,3425.0 C 8199.0,3422.0 8234.0,3410.0 8257.0,3400.0 C 8298.0,3381.0 8300.0,3381.0 8356.0,3400.0 C 8387.0,3411.0 8427.0,3420.0 8444.0,3420.0 C 8483.0,3420.0 8510.0,3459.0 8510.0,3517.0 C 8510.0,3538.0 8514.0,3560.0 8518.0,3566.0 C 8531.0,3586.0 8564.0,3587.0 8596.0,3568.0 C 8627.0,3550.0 8629.0,3550.0 8672.0,3569.0 C 8697.0,3579.0 8726.0,3600.0 8737.0,3614.0 C 8752.0,3633.0 8767.0,3640.0 8793.0,3640.0 C 8812.0,3640.0 8847.0,3647.0 8871.0,3655.0 C 8895.0,3664.0 8924.0,3669.0 8935.0,3666.0 C 8946.0,3663.0 8966.0,3667.0 8979.0,3674.0 C 9001.0,3686.0 9006.0,3684.0 9050.0,3639.0 L 9098.0,3590.0 L 9105.0,3498.0 L 9112.0,3405.0 L 9177.0,3362.0 L 9243.0,3318.0 L 9238.0,3255.0 C 9232.0,3192.0 9233.0,3191.0 9261.0,3179.0 C 9286.0,3169.0 9293.0,3170.0 9310.0,3185.0 C 9327.0,3200.0 9337.0,3201.0 9378.0,3193.0 C 9431.0,3183.0 9470.0,3191.0 9470.0,3213.0 C 9470.0,3221.0 9481.0,3244.0 9495.0,3265.0 C 9518.0,3298.0 9519.0,3304.0 9507.0,3319.0 C 9499.0,3328.0 9467.0,3379.0 9436.0,3432.0 L 9378.0,3528.0 L 9394.0,3587.0 C 9402.0,3619.0 9412.0,3655.0 9416.0,3666.0 C 9419.0,3678.0 9437.0,3696.0 9456.0,3706.0 C 9484.0,3721.0 9490.0,3730.0 9490.0,3757.0 C 9490.0,3779.0 9484.0,3793.0 9470.0,3800.0 C 9458.0,3806.0 9450.0,3821.0 9450.0,3835.0 C 9450.0,3864.0 9444.0,3865.0 9375.0,3847.0 C 9348.0,3840.0 9315.0,3836.0 9302.0,3838.0 C 9272.0,3843.0 9237.0,3911.0 9245.0,3949.0 C 9248.0,3964.0 9246.0,3988.0 9241.0,4003.0 C 9233.0,4022.0 9235.0,4041.0 9245.0,4071.0 C 9253.0,4094.0 9260.0,4134.0 9260.0,4160.0 C 9260.0,4197.0 9265.0,4211.0 9285.0,4230.0 C 9299.0,4244.0 9310.0,4265.0 9310.0,4280.0 C 9310.0,4295.0 9321.0,4316.0 9335.0,4330.0 C 9349.0,4343.0 9363.0,4368.0 9366.0,4387.0 C 9372.0,4417.0 9376.0,4420.0 9406.0,4420.0 C 9425.0,4420.0 9463.0,4431.0 9490.0,4445.0 C 9517.0,4459.0 9554.0,4470.0 9571.0,4470.0 C 9590.0,4470.0 9617.0,4480.0 9636.0,4495.0 C 9676.0,4525.0 9680.0,4518.0 9680.0,4419.0 L 9680.0,4349.0 L 9723.0,4331.0 C 9755.0,4317.0 9774.0,4300.0 9794.0,4265.0 C 9815.0,4231.0 9826.0,4220.0 9838.0,4225.0 C 9848.0,4228.0 9903.0,4233.0 9961.0,4235.0 C 10043.0,4238.0 10071.0,4236.0 10086.0,4225.0 C 10110.0,4207.0 10154.0,4206.0 10168.0,4223.0 C 10173.0,4229.0 10183.0,4255.0 10190.0,4280.0 C 10196.0,4305.0 10209.0,4336.0 10217.0,4349.0 C 10227.0,4365.0 10231.0,4388.0 10228.0,4422.0 C 10223.0,4464.0 10217.0,4475.0 10180.0,4507.0 C 10142.0,4540.0 10133.0,4543.0 10086.0,4541.0 L 10035.0,4539.0 L 10021.0,4592.0 C 9996.0,4686.0 10000.0,4717.0 10046.0,4755.0 C 10077.0,4782.0 10083.0,4791.0 10073.0,4801.0 C 10066.0,4808.0 10060.0,4826.0 10060.0,4841.0 C 10060.0,4865.0 10070.0,4877.0 10138.0,4926.0 C 10140.0,4927.0 10132.0,4946.0 10121.0,4969.0 C 10093.0,5023.0 10095.0,5041.0 10130.0,5075.0 C 10152.0,5096.0 10160.0,5113.0 10160.0,5137.0 C 10160.0,5156.0 10169.0,5188.0 10180.0,5210.0 C 10193.0,5236.0 10200.0,5269.0 10200.0,5309.0 C 10200.0,5347.0 10207.0,5386.0 10220.0,5416.0 C 10233.0,5445.0 10240.0,5480.0 10238.0,5503.0 C 10235.0,5545.0 10235.0,5545.0 10128.0,5595.0 C 10102.0,5607.0 10090.0,5620.0 10090.0,5634.0 C 10089.0,5655.0 10028.0,5730.0 10010.0,5730.0 C 10005.0,5730.0 9980.0,5720.0 9956.0,5708.0 C 9923.0,5692.0 9907.0,5677.0 9896.0,5651.0 C 9888.0,5631.0 9870.0,5604.0 9856.0,5591.0 C 9837.0,5573.0 9830.0,5556.0 9830.0,5530.0 C 9830.0,5501.0 9825.0,5491.0 9805.0,5480.0 C 9783.0,5468.0 9775.0,5469.0 9742.0,5484.0 L 9705.0,5502.0 L 9678.0,5469.0 C 9654.0,5440.0 9650.0,5427.0 9650.0,5373.0 L 9650.0,5310.0 L 9617.0,5310.0 C 9597.0,5310.0 9566.0,5297.0 9535.0,5276.0 C 9498.0,5252.0 9468.0,5241.0 9425.0,5236.0 C 9367.0,5229.0 9364.0,5230.0 9336.0,5259.0 C 9319.0,5276.0 9296.0,5290.0 9285.0,5290.0 C 9269.0,5290.0 9252.0,5306.0 9226.0,5345.0 C 9199.0,5386.0 9184.0,5400.0 9166.0,5400.0 C 9152.0,5400.0 9128.0,5411.0 9112.0,5425.0 C 9089.0,5445.0 9071.0,5450.0 9031.0,5450.0 C 8987.0,5450.0 8970.0,5456.0 8921.0,5489.0 C 8864.0,5528.0 8863.0,5530.0 8856.0,5584.0 C 8852.0,5624.0 8854.0,5650.0 8866.0,5679.0 C 8880.0,5716.0 8880.0,5721.0 8866.0,5742.0 C 8857.0,5754.0 8850.0,5777.0 8850.0,5792.0 C 8850.0,5825.0 8850.0,5825.0 8801.0,5801.0 L 8763.0,5781.0 L 8700.0,5820.0 C 8656.0,5847.0 8620.0,5861.0 8581.0,5866.0 C 8551.0,5870.0 8491.0,5886.0 8448.0,5901.0 C 8362.0,5933.0 8276.0,5938.0 8188.0,5917.0 C 8149.0,5908.0 8138.0,5909.0 8116.0,5923.0 C 8084.0,5944.0 8060.0,5944.0 8015.0,5923.0 C 7982.0,5907.0 7979.0,5907.0 7963.0,5923.0 C 7947.0,5939.0 7949.0,5943.0 8003.0,5998.0 C 8074.0,6069.0 8076.0,6096.0 8025.0,6207.0 C 8001.0,6260.0 7990.0,6297.0 7990.0,6330.0 C 7990.0,6390.0 8028.0,6501.0 8078.0,6587.0 C 8101.0,6625.0 8126.0,6676.0 8136.0,6700.0 C 8146.0,6724.0 8168.0,6757.0 8186.0,6772.0 C 8204.0,6788.0 8224.0,6818.0 8231.0,6838.0 C 8237.0,6858.0 8254.0,6896.0 8268.0,6923.0 C 8293.0,6969.0 8294.0,6970.0 8342.0,6970.0 C 8384.0,6970.0 8390.0,6973.0 8390.0,6990.0 C 8390.0,7002.0 8383.0,7021.0 8376.0,7033.0 C 8368.0,7045.0 8358.0,7085.0 8354.0,7121.0 C 8348.0,7178.0 8350.0,7188.0 8365.0,7194.0 C 8382.0,7200.0 8382.0,7201.0 8365.0,7220.0 C 8355.0,7231.0 8340.0,7240.0 8332.0,7240.0 C 8325.0,7240.0 8305.0,7249.0 8289.0,7261.0 C 8273.0,7272.0 8256.0,7279.0 8251.0,7276.0 C 8232.0,7264.0 8144.0,7389.0 8120.0,7463.0 C 8104.0,7512.0 8097.0,7519.0 7997.0,7590.0 C 7938.0,7631.0 7866.0,7684.0 7837.0,7707.0 C 7807.0,7731.0 7738.0,7770.0 7681.0,7794.0 C 7625.0,7819.0 7568.0,7848.0 7553.0,7859.0 C 7515.0,7890.0 7455.0,7903.0 7390.0,7895.0 C 7338.0,7889.0 7328.0,7891.0 7278.0,7919.0 C 7240.0,7941.0 7210.0,7950.0 7179.0,7950.0 C 7155.0,7950.0 7101.0,7959.0 7060.0,7971.0 C 6993.0,7990.0 6978.0,7991.0 6920.0,7980.0 C 6884.0,7973.0 6826.0,7952.0 6790.0,7934.0 C 6744.0,7910.0 6713.0,7900.0 6680.0,7900.0 C 6638.0,7900.0 6630.0,7904.0 6603.0,7938.0 C 6587.0,7958.0 6568.0,7985.0 6562.0,7997.0 C 6551.0,8016.0 6553.0,8019.0 6572.0,8022.0 C 6613.0,8028.0 6600.0,8047.0 6533.0,8080.0 C 6496.0,8099.0 6457.0,8120.0 6448.0,8128.0 C 6432.0,8141.0 6426.0,8140.0 6390.0,8115.0 C 6368.0,8100.0 6350.0,8086.0 6350.0,8085.0 C 6350.0,8084.0 6368.0,8071.0 6390.0,8056.0 C 6433.0,8028.0 6439.0,8010.0 6414.0,7989.0 C 6402.0,7979.0 6394.0,7979.0 6379.0,7988.0 C 6369.0,7995.0 6352.0,8000.0 6342.0,8000.0 C 6318.0,8000.0 6293.0,8027.0 6284.0,8065.0 C 6280.0,8082.0 6271.0,8104.0 6264.0,8115.0 C 6243.0,8144.0 6247.0,8177.0 6270.0,8183.0 C 6281.0,8186.0 6290.0,8195.0 6290.0,8203.0 C 6290.0,8222.0 6256.0,8234.0 6213.0,8231.0 C 6186.0,8229.0 6181.0,8232.0 6175.0,8260.0 C 6160.0,8329.0 6076.0,8385.0 6081.0,8323.0 C 6084.0,8276.0 6081.0,8260.0 6066.0,8260.0 C 6058.0,8260.0 6047.0,8279.0 6040.0,8309.0 C 6030.0,8353.0 6025.0,8358.0 5991.0,8369.0 C 5970.0,8375.0 5941.0,8380.0 5926.0,8380.0 C 5901.0,8380.0 5899.0,8378.0 5906.0,8345.0" fill="pink"/>
</svg>
