<?xml version="1.0" ?>
<svg xmlns="http://www.w3.org/2000/svg" xmlns:ev="http://www.w3.org/2001/xml-events" xmlns:xlink="http://www.w3.org/1999/xlink" baseProfile="full" height="600px" version="1.1" viewBox="-760.5583698943336 -1027.5660861767235 11759.80596151192 12289.866123368374" width="575px">
	<defs/>
	<path d="M 3923.0,10213.0 C 3872.0,10187.0 3870.0,10186.0 3835.0,10203.0 C 3784.0,10227.0 3753.0,10211.0 3745.0,10156.0 C 3742.0,10134.0 3736.0,10102.0 3734.0,10087.0 C 3729.0,10064.0 3732.0,10058.0 3749.0,10053.0 C 3775.0,10046.0 3775.0,10046.0 3743.0,10003.0 C 3717.0,9970.0 3714.0,9968.0 3670.0,9974.0 C 3645.0,9977.0 3586.0,9999.0 3538.0,10022.0 C 3465.0,10056.0 3450.0,10067.0 3445.0,10091.0 C 3440.0,10115.0 3395.0,10158.0 3385.0,10148.0 C 3383.0,10146.0 3370.0,10118.0 3356.0,10086.0 C 3335.0,10040.0 3328.0,10004.0 3324.0,9926.0 L 3318.0,9825.0 L 3364.0,9795.0 C 3389.0,9779.0 3410.0,9763.0 3410.0,9760.0 C 3410.0,9757.0 3383.0,9725.0 3351.0,9688.0 L 3292.0,9621.0 L 3254.0,9654.0 L 3216.0,9687.0 L 3136.0,9667.0 C 3075.0,9653.0 3036.0,9650.0 2978.0,9654.0 L 2901.0,9660.0 L 2861.0,9606.0 L 2821.0,9552.0 L 2850.0,9481.0 L 2879.0,9410.0 L 2820.0,9370.0 C 2787.0,9348.0 2755.0,9327.0 2747.0,9325.0 C 2740.0,9322.0 2721.0,9338.0 2704.0,9363.0 C 2686.0,9388.0 2647.0,9422.0 2609.0,9445.0 C 2546.0,9483.0 2544.0,9484.0 2458.0,9481.0 L 2370.0,9478.0 L 2370.0,9505.0 C 2370.0,9529.0 2367.0,9531.0 2348.0,9525.0 C 2335.0,9522.0 2304.0,9516.0 2278.0,9513.0 C 2227.0,9507.0 2222.0,9512.0 2241.0,9553.0 C 2249.0,9570.0 2249.0,9588.0 2241.0,9617.0 C 2231.0,9654.0 2225.0,9660.0 2180.0,9676.0 L 2130.0,9694.0 L 2130.0,9745.0 C 2130.0,9788.0 2125.0,9801.0 2103.0,9823.0 L 2075.0,9849.0 L 1993.0,9820.0 C 1899.0,9787.0 1865.0,9791.0 1822.0,9842.0 L 1798.0,9870.0 L 1719.0,9809.0 C 1631.0,9742.0 1624.0,9724.0 1660.0,9664.0 L 1681.0,9631.0 L 1647.0,9625.0 C 1618.0,9619.0 1606.0,9605.0 1545.0,9510.0 C 1480.0,9408.0 1473.0,9401.0 1437.0,9396.0 C 1415.0,9392.0 1384.0,9379.0 1366.0,9366.0 C 1343.0,9349.0 1329.0,9345.0 1310.0,9351.0 C 1296.0,9355.0 1280.0,9358.0 1273.0,9359.0 C 1267.0,9360.0 1238.0,9322.0 1209.0,9275.0 C 1162.0,9198.0 1150.0,9185.0 1093.0,9153.0 C 1031.0,9119.0 1027.0,9114.0 989.0,9032.0 C 968.0,8986.0 950.0,8943.0 950.0,8939.0 C 950.0,8934.0 959.0,8930.0 969.0,8930.0 C 980.0,8930.0 996.0,8927.0 1005.0,8924.0 C 1019.0,8918.0 1019.0,8916.0 1003.0,8898.0 C 986.0,8878.0 986.0,8877.0 1023.0,8846.0 C 1061.0,8814.0 1061.0,8812.0 1051.0,8774.0 C 1046.0,8753.0 1034.0,8685.0 1026.0,8625.0 C 1017.0,8564.0 1004.0,8497.0 995.0,8477.0 C 987.0,8457.0 977.0,8414.0 974.0,8382.0 C 969.0,8326.0 970.0,8323.0 1029.0,8224.0 L 1089.0,8123.0 L 1162.0,8109.0 C 1221.0,8097.0 1243.0,8096.0 1275.0,8106.0 C 1297.0,8113.0 1334.0,8119.0 1356.0,8119.0 C 1389.0,8120.0 1399.0,8124.0 1403.0,8140.0 C 1406.0,8152.0 1417.0,8160.0 1429.0,8160.0 C 1458.0,8160.0 1456.0,8116.0 1425.0,8065.0 C 1408.0,8039.0 1400.0,8010.0 1400.0,7981.0 C 1400.0,7949.0 1391.0,7922.0 1365.0,7879.0 C 1334.0,7830.0 1330.0,7816.0 1338.0,7789.0 C 1342.0,7771.0 1357.0,7748.0 1371.0,7738.0 C 1394.0,7721.0 1398.0,7720.0 1433.0,7735.0 C 1484.0,7756.0 1491.0,7755.0 1480.0,7725.0 C 1472.0,7704.0 1476.0,7697.0 1508.0,7671.0 C 1529.0,7655.0 1567.0,7632.0 1593.0,7619.0 C 1619.0,7606.0 1640.0,7593.0 1640.0,7590.0 C 1640.0,7586.0 1625.0,7577.0 1607.0,7568.0 C 1577.0,7553.0 1572.0,7554.0 1536.0,7572.0 L 1498.0,7592.0 L 1461.0,7557.0 C 1438.0,7534.0 1407.0,7517.0 1378.0,7509.0 C 1327.0,7497.0 1325.0,7493.0 1339.0,7443.0 C 1347.0,7417.0 1345.0,7406.0 1329.0,7386.0 C 1318.0,7373.0 1301.0,7319.0 1290.0,7265.0 L 1270.0,7167.0 L 1302.0,7130.0 C 1332.0,7095.0 1338.0,7092.0 1370.0,7098.0 C 1389.0,7102.0 1423.0,7103.0 1445.0,7101.0 C 1467.0,7098.0 1504.0,7096.0 1527.0,7096.0 C 1569.0,7096.0 1569.0,7095.0 1594.0,7035.0 C 1608.0,7002.0 1636.0,6921.0 1656.0,6855.0 C 1680.0,6778.0 1703.0,6722.0 1722.0,6698.0 L 1751.0,6661.0 L 1721.0,6613.0 L 1691.0,6565.0 L 1743.0,6511.0 L 1795.0,6457.0 L 1755.0,6464.0 C 1733.0,6467.0 1689.0,6470.0 1658.0,6470.0 L 1601.0,6470.0 L 1585.0,6528.0 C 1576.0,6559.0 1567.0,6592.0 1564.0,6601.0 C 1560.0,6614.0 1502.0,6640.0 1476.0,6640.0 C 1473.0,6640.0 1470.0,6619.0 1470.0,6594.0 C 1470.0,6549.0 1469.0,6548.0 1444.0,6554.0 C 1429.0,6558.0 1405.0,6563.0 1390.0,6567.0 C 1368.0,6571.0 1357.0,6583.0 1341.0,6622.0 L 1320.0,6672.0 L 1278.0,6664.0 C 1225.0,6654.0 1229.0,6654.0 1034.0,6663.0 L 872.0,6671.0 L 849.0,6623.0 C 828.0,6581.0 825.0,6562.0 827.0,6476.0 C 828.0,6421.0 825.0,6357.0 820.0,6334.0 C 806.0,6275.0 823.0,6236.0 876.0,6199.0 C 914.0,6173.0 926.0,6170.0 963.0,6175.0 C 1002.0,6181.0 1006.0,6179.0 1022.0,6152.0 C 1048.0,6108.0 1093.0,6104.0 1123.0,6142.0 C 1142.0,6167.0 1149.0,6170.0 1170.0,6162.0 C 1192.0,6154.0 1194.0,6148.0 1195.0,6087.0 C 1195.0,6021.0 1195.0,6021.0 1247.0,5968.0 C 1289.0,5925.0 1297.0,5912.0 1289.0,5897.0 C 1279.0,5880.0 1277.0,5881.0 1250.0,5900.0 C 1229.0,5915.0 1206.0,5920.0 1161.0,5920.0 C 1127.0,5920.0 1100.0,5918.0 1100.0,5916.0 C 1100.0,5913.0 1104.0,5900.0 1110.0,5886.0 C 1118.0,5864.0 1111.0,5844.0 1060.0,5747.0 C 1027.0,5684.0 1000.0,5628.0 1000.0,5622.0 C 1000.0,5616.0 1016.0,5602.0 1036.0,5590.0 C 1065.0,5571.0 1070.0,5563.0 1066.0,5541.0 C 1063.0,5527.0 1059.0,5495.0 1055.0,5469.0 C 1051.0,5433.0 1043.0,5420.0 1021.0,5407.0 C 998.0,5394.0 989.0,5375.0 970.0,5310.0 C 954.0,5253.0 935.0,5214.0 908.0,5179.0 C 886.0,5152.0 864.0,5130.0 859.0,5130.0 C 854.0,5130.0 824.0,5150.0 793.0,5174.0 L 735.0,5218.0 L 671.0,5208.0 C 614.0,5199.0 605.0,5200.0 580.0,5218.0 L 553.0,5238.0 L 502.0,5199.0 C 440.0,5151.0 435.0,5125.0 483.0,5094.0 C 510.0,5076.0 518.0,5062.0 534.0,4999.0 C 545.0,4958.0 555.0,4895.0 557.0,4859.0 C 561.0,4801.0 565.0,4789.0 591.0,4764.0 C 615.0,4741.0 620.0,4728.0 620.0,4687.0 C 620.0,4618.0 647.0,4583.0 705.0,4574.0 C 730.0,4571.0 750.0,4565.0 750.0,4561.0 C 750.0,4558.0 738.0,4523.0 724.0,4483.0 L 698.0,4411.0 L 725.0,4330.0 C 754.0,4243.0 751.0,4231.0 707.0,4230.0 C 683.0,4230.0 679.0,4213.0 688.0,4160.0 C 694.0,4124.0 692.0,4109.0 677.0,4082.0 C 661.0,4054.0 659.0,4042.0 668.0,3993.0 L 678.0,3936.0 L 616.0,3868.0 C 580.0,3829.0 551.0,3785.0 544.0,3763.0 C 536.0,3733.0 527.0,3724.0 504.0,3719.0 C 487.0,3716.0 442.0,3694.0 402.0,3671.0 C 339.0,3633.0 330.0,3624.0 330.0,3599.0 C 330.0,3581.0 321.0,3563.0 308.0,3551.0 C 247.0,3500.0 231.0,3483.0 226.0,3464.0 C 220.0,3444.0 223.0,3443.0 268.0,3448.0 L 317.0,3452.0 L 360.0,3386.0 L 403.0,3320.0 L 430.0,3337.0 C 446.0,3346.0 462.0,3366.0 467.0,3382.0 L 475.0,3411.0 L 516.0,3376.0 C 569.0,3331.0 579.0,3296.0 549.0,3264.0 C 526.0,3239.0 529.0,3210.0 555.0,3210.0 C 564.0,3210.0 589.0,3219.0 611.0,3231.0 L 652.0,3251.0 L 696.0,3215.0 C 720.0,3195.0 767.0,3170.0 800.0,3158.0 C 834.0,3147.0 868.0,3128.0 879.0,3114.0 C 905.0,3081.0 978.0,3082.0 1086.0,3117.0 C 1164.0,3142.0 1170.0,3143.0 1188.0,3127.0 C 1200.0,3116.0 1223.0,3110.0 1252.0,3110.0 C 1290.0,3110.0 1305.0,3103.0 1356.0,3063.0 C 1389.0,3036.0 1426.0,3008.0 1439.0,3000.0 L 1462.0,2984.0 L 1441.0,2914.0 C 1419.0,2841.0 1413.0,2750.0 1429.0,2750.0 C 1435.0,2750.0 1455.0,2759.0 1474.0,2771.0 L 1510.0,2792.0 L 1519.0,2767.0 C 1524.0,2753.0 1534.0,2713.0 1540.0,2678.0 C 1549.0,2627.0 1559.0,2608.0 1588.0,2577.0 C 1623.0,2540.0 1687.0,2500.0 1710.0,2500.0 C 1715.0,2500.0 1720.0,2507.0 1720.0,2516.0 C 1720.0,2529.0 1727.0,2527.0 1756.0,2505.0 C 1775.0,2490.0 1803.0,2475.0 1818.0,2471.0 C 1836.0,2466.0 1846.0,2456.0 1848.0,2439.0 C 1850.0,2426.0 1861.0,2405.0 1872.0,2393.0 L 1893.0,2371.0 L 1918.0,2391.0 L 1944.0,2411.0 L 1982.0,2374.0 L 2020.0,2336.0 L 2035.0,2373.0 C 2049.0,2406.0 2053.0,2410.0 2078.0,2404.0 C 2117.0,2395.0 2124.0,2385.0 2109.0,2359.0 C 2100.0,2343.0 2097.0,2304.0 2099.0,2246.0 C 2101.0,2158.0 2102.0,2157.0 2150.0,2085.0 L 2199.0,2013.0 L 2169.0,1984.0 L 2140.0,1955.0 L 2169.0,1919.0 L 2199.0,1883.0 L 2149.0,1846.0 C 2122.0,1825.0 2100.0,1804.0 2100.0,1798.0 C 2100.0,1793.0 2107.0,1776.0 2115.0,1760.0 C 2130.0,1732.0 2129.0,1730.0 2110.0,1730.0 C 2086.0,1730.0 2085.0,1719.0 2107.0,1662.0 C 2123.0,1618.0 2128.0,1616.0 2171.0,1634.0 C 2184.0,1640.0 2189.0,1633.0 2194.0,1600.0 C 2201.0,1556.0 2187.0,1518.0 2151.0,1486.0 C 2130.0,1467.0 2130.0,1467.0 2130.0,1488.0 C 2130.0,1514.0 2134.0,1514.0 2077.0,1494.0 L 2030.0,1478.0 L 2031.0,1387.0 C 2031.0,1275.0 2014.0,1217.0 1979.0,1212.0 C 1966.0,1210.0 1941.0,1198.0 1924.0,1184.0 C 1893.0,1162.0 1893.0,1159.0 1902.0,1116.0 C 1909.0,1083.0 1908.0,1064.0 1897.0,1037.0 C 1883.0,1005.0 1884.0,1000.0 1906.0,962.0 L 1930.0,922.0 L 1880.0,905.0 L 1830.0,888.0 L 1830.0,800.0 C 1830.0,716.0 1831.0,712.0 1854.0,706.0 C 1867.0,703.0 1880.0,690.0 1884.0,678.0 C 1894.0,639.0 1890.0,508.0 1876.0,437.0 C 1865.0,381.0 1865.0,367.0 1876.0,352.0 C 1893.0,331.0 1894.0,240.0 1878.0,189.0 C 1868.0,154.0 1869.0,147.0 1888.0,127.0 C 1908.0,106.0 1909.0,103.0 1894.0,81.0 C 1879.0,60.0 1879.0,57.0 1906.0,28.0 C 1933.0,0.0 1938.0,-2.0 1996.0,3.0 C 2071.0,9.0 2125.0,32.0 2216.0,98.0 C 2268.0,136.0 2302.0,153.0 2343.0,161.0 C 2388.0,170.0 2400.0,177.0 2400.0,191.0 C 2400.0,204.0 2419.0,219.0 2458.0,239.0 C 2505.0,263.0 2533.0,269.0 2621.0,275.0 C 2680.0,279.0 2731.0,285.0 2736.0,289.0 C 2741.0,292.0 2769.0,323.0 2798.0,356.0 C 2841.0,407.0 2858.0,419.0 2890.0,424.0 C 2925.0,429.0 2930.0,434.0 2935.0,463.0 L 2942.0,496.0 L 3093.0,514.0 C 3186.0,525.0 3259.0,539.0 3280.0,550.0 C 3299.0,560.0 3334.0,571.0 3357.0,575.0 C 3388.0,580.0 3408.0,591.0 3427.0,615.0 C 3453.0,646.0 3461.0,649.0 3550.0,659.0 C 3679.0,675.0 3687.0,677.0 3692.0,698.0 C 3696.0,710.0 3723.0,726.0 3776.0,745.0 C 3819.0,760.0 4028.0,842.0 4240.0,926.0 C 4618.0,1076.0 4628.0,1080.0 4780.0,1105.0 C 5240.0,1183.0 5304.0,1190.0 5865.0,1225.0 C 6315.0,1254.0 6437.0,1264.0 6535.0,1285.0 C 6601.0,1298.0 6778.0,1321.0 6930.0,1335.0 C 7081.0,1348.0 7310.0,1372.0 7438.0,1386.0 L 7671.0,1413.0 L 7818.0,1377.0 C 7981.0,1336.0 8015.0,1331.0 8618.0,1256.0 C 9030.0,1205.0 9044.0,1204.0 9117.0,1218.0 L 9192.0,1232.0 L 9224.0,1201.0 C 9266.0,1160.0 9304.0,1160.0 9353.0,1201.0 L 9390.0,1232.0 L 9483.0,1221.0 C 9533.0,1215.0 9587.0,1208.0 9602.0,1205.0 C 9624.0,1202.0 9633.0,1207.0 9649.0,1233.0 C 9668.0,1264.0 9668.0,1266.0 9651.0,1340.0 C 9641.0,1381.0 9623.0,1435.0 9612.0,1460.0 C 9600.0,1485.0 9590.0,1522.0 9590.0,1543.0 C 9590.0,1578.0 9591.0,1580.0 9623.0,1580.0 C 9672.0,1580.0 9683.0,1609.0 9658.0,1680.0 C 9648.0,1710.0 9631.0,1798.0 9620.0,1875.0 C 9608.0,1957.0 9595.0,2017.0 9588.0,2022.0 C 9581.0,2026.0 9550.0,2047.0 9520.0,2068.0 L 9466.0,2108.0 L 9408.0,2069.0 C 9352.0,2031.0 9349.0,2030.0 9325.0,2046.0 C 9303.0,2060.0 9300.0,2069.0 9300.0,2121.0 L 9300.0,2180.0 L 9249.0,2180.0 L 9197.0,2180.0 L 9204.0,2304.0 L 9211.0,2429.0 L 9172.0,2497.0 C 9142.0,2548.0 9126.0,2595.0 9106.0,2683.0 C 9078.0,2807.0 9025.0,3004.0 9015.0,3020.0 C 9012.0,3026.0 8998.0,3030.0 8985.0,3030.0 C 8965.0,3030.0 8959.0,3037.0 8950.0,3069.0 C 8927.0,3154.0 8890.0,3313.0 8854.0,3476.0 L 8817.0,3647.0 L 8869.0,3723.0 L 8922.0,3799.0 L 8891.0,3874.0 C 8874.0,3915.0 8860.0,3955.0 8860.0,3962.0 C 8862.0,3998.0 8983.0,4177.0 9072.0,4275.0 C 9147.0,4357.0 9171.0,4390.0 9175.0,4418.0 C 9186.0,4484.0 9198.0,4510.0 9246.0,4570.0 C 9290.0,4627.0 9292.0,4631.0 9277.0,4648.0 C 9253.0,4674.0 9255.0,4697.0 9295.0,4880.0 C 9322.0,5006.0 9330.0,5064.0 9330.0,5144.0 L 9330.0,5248.0 L 9407.0,5411.0 C 9449.0,5501.0 9490.0,5579.0 9498.0,5584.0 C 9538.0,5608.0 9547.0,5628.0 9554.0,5710.0 L 9562.0,5792.0 L 9590.0,5765.0 L 9618.0,5739.0 L 9674.0,5818.0 C 9731.0,5900.0 9746.0,5910.0 9811.0,5910.0 C 9842.0,5910.0 9849.0,5915.0 9863.0,5945.0 L 9880.0,5981.0 L 9841.0,6038.0 L 9802.0,6096.0 L 9825.0,6124.0 C 9846.0,6150.0 9850.0,6151.0 9885.0,6141.0 C 9920.0,6132.0 9928.0,6133.0 9969.0,6159.0 L 10015.0,6187.0 L 10012.0,6281.0 C 10010.0,6348.0 9990.0,6467.0 9945.0,6690.0 C 9849.0,7162.0 9865.0,7110.0 9822.0,7110.0 L 9786.0,7110.0 L 9814.0,7139.0 L 9842.0,7168.0 L 9821.0,7208.0 C 9809.0,7231.0 9800.0,7265.0 9800.0,7285.0 C 9800.0,7308.0 9791.0,7333.0 9775.0,7354.0 C 9758.0,7377.0 9750.0,7400.0 9750.0,7428.0 C 9750.0,7466.0 9747.0,7471.0 9708.0,7494.0 C 9684.0,7507.0 9644.0,7521.0 9618.0,7525.0 L 9572.0,7532.0 L 9567.0,7594.0 C 9565.0,7627.0 9561.0,7664.0 9559.0,7675.0 C 9556.0,7691.0 9561.0,7696.0 9587.0,7698.0 C 9613.0,7701.0 9628.0,7714.0 9674.0,7775.0 C 9705.0,7816.0 9730.0,7853.0 9730.0,7857.0 C 9730.0,7862.0 9712.0,7887.0 9690.0,7914.0 C 9668.0,7940.0 9650.0,7964.0 9650.0,7966.0 C 9650.0,7969.0 9664.0,7997.0 9680.0,8030.0 C 9713.0,8095.0 9715.0,8117.0 9697.0,8204.0 L 9685.0,8262.0 L 9631.0,8199.0 C 9601.0,8164.0 9573.0,8131.0 9568.0,8125.0 C 9563.0,8120.0 9521.0,8154.0 9464.0,8210.0 C 9377.0,8297.0 9360.0,8320.0 9268.0,8483.0 C 9213.0,8580.0 9164.0,8663.0 9159.0,8665.0 C 9154.0,8668.0 9137.0,8664.0 9119.0,8655.0 C 9102.0,8646.0 9086.0,8641.0 9083.0,8644.0 C 9080.0,8646.0 9057.0,8691.0 9032.0,8742.0 L 8985.0,8835.0 L 8938.0,8838.0 L 8892.0,8841.0 L 8885.0,8891.0 C 8881.0,8918.0 8875.0,8940.0 8871.0,8940.0 C 8867.0,8940.0 8844.0,8920.0 8820.0,8895.0 C 8785.0,8860.0 8769.0,8850.0 8743.0,8850.0 C 8715.0,8850.0 8710.0,8854.0 8710.0,8873.0 C 8710.0,8894.0 8702.0,8897.0 8608.0,8913.0 C 8551.0,8922.0 8447.0,8935.0 8375.0,8940.0 C 8246.0,8951.0 8245.0,8951.0 8210.0,8985.0 L 8175.0,9019.0 L 8150.0,9000.0 C 8132.0,8986.0 8109.0,8980.0 8066.0,8980.0 C 8013.0,8980.0 8004.0,8977.0 7961.0,8941.0 L 7914.0,8901.0 L 7842.0,8912.0 L 7770.0,8922.0 L 7694.0,8879.0 C 7653.0,8855.0 7600.0,8819.0 7578.0,8798.0 L 7537.0,8760.0 L 7459.0,8773.0 L 7381.0,8787.0 L 7346.0,8751.0 C 7323.0,8728.0 7287.0,8707.0 7248.0,8694.0 L 7185.0,8673.0 L 7144.0,8569.0 L 7102.0,8465.0 L 7061.0,8462.0 C 7027.0,8459.0 7019.0,8455.0 7014.0,8434.0 C 7011.0,8421.0 7006.0,8410.0 7003.0,8410.0 C 6985.0,8410.0 6958.0,8436.0 6946.0,8464.0 C 6929.0,8504.0 6891.0,8517.0 6834.0,8501.0 C 6813.0,8495.0 6796.0,8492.0 6795.0,8493.0 C 6795.0,8494.0 6787.0,8512.0 6777.0,8534.0 C 6760.0,8571.0 6760.0,8573.0 6780.0,8607.0 C 6791.0,8626.0 6798.0,8646.0 6795.0,8651.0 C 6791.0,8656.0 6771.0,8660.0 6749.0,8660.0 C 6713.0,8660.0 6710.0,8658.0 6715.0,8638.0 C 6722.0,8605.0 6679.0,8574.0 6651.0,8592.0 C 6635.0,8601.0 6618.0,8600.0 6559.0,8582.0 L 6485.0,8560.0 L 6468.0,8582.0 C 6458.0,8595.0 6445.0,8618.0 6439.0,8633.0 C 6427.0,8662.0 6416.0,8663.0 6366.0,8644.0 C 6352.0,8639.0 6350.0,8648.0 6350.0,8708.0 C 6350.0,8756.0 6346.0,8781.0 6336.0,8789.0 C 6305.0,8815.0 6127.0,8900.0 6104.0,8900.0 C 6081.0,8900.0 6080.0,8903.0 6080.0,8957.0 C 6080.0,9002.0 6075.0,9019.0 6058.0,9038.0 L 6035.0,9062.0 L 6058.0,9077.0 C 6070.0,9086.0 6080.0,9096.0 6080.0,9100.0 C 6080.0,9105.0 6060.0,9121.0 6034.0,9137.0 C 5988.0,9165.0 5985.0,9175.0 6005.0,9222.0 C 6012.0,9239.0 6010.0,9239.0 5976.0,9225.0 C 5941.0,9210.0 5940.0,9210.0 5940.0,9233.0 C 5940.0,9246.0 5931.0,9265.0 5919.0,9276.0 C 5889.0,9303.0 5870.0,9344.0 5870.0,9380.0 C 5870.0,9409.0 5869.0,9410.0 5822.0,9410.0 C 5786.0,9410.0 5768.0,9415.0 5755.0,9430.0 C 5738.0,9448.0 5739.0,9451.0 5760.0,9485.0 C 5779.0,9516.0 5781.0,9524.0 5770.0,9550.0 C 5756.0,9584.0 5748.0,9587.0 5730.0,9565.0 C 5714.0,9546.0 5697.0,9546.0 5659.0,9566.0 C 5631.0,9580.0 5619.0,9579.0 5502.0,9560.0 L 5375.0,9538.0 L 5339.0,9559.0 C 5319.0,9571.0 5276.0,9619.0 5239.0,9669.0 C 5161.0,9778.0 5113.0,9808.0 5041.0,9791.0 C 5006.0,9783.0 4992.0,9785.0 4973.0,9797.0 C 4951.0,9811.0 4945.0,9811.0 4887.0,9785.0 C 4848.0,9767.0 4810.0,9758.0 4784.0,9759.0 C 4744.0,9761.0 4739.0,9757.0 4657.0,9670.0 C 4586.0,9594.0 4571.0,9572.0 4568.0,9542.0 L 4565.0,9505.0 L 4512.0,9505.0 L 4460.0,9505.0 L 4426.0,9445.0 L 4393.0,9385.0 L 4299.0,9385.0 C 4168.0,9385.0 4135.0,9393.0 4120.0,9430.0 C 4113.0,9447.0 4097.0,9463.0 4085.0,9466.0 C 4073.0,9469.0 4056.0,9487.0 4047.0,9505.0 L 4031.0,9539.0 L 4065.0,9550.0 C 4106.0,9563.0 4160.0,9632.0 4160.0,9670.0 C 4160.0,9685.0 4153.0,9718.0 4144.0,9744.0 C 4131.0,9782.0 4130.0,9797.0 4139.0,9817.0 C 4152.0,9846.0 4148.0,9855.0 4111.0,9875.0 C 4092.0,9884.0 4069.0,9887.0 4045.0,9883.0 C 4011.0,9878.0 4007.0,9879.0 4013.0,9894.0 C 4017.0,9904.0 4020.0,9921.0 4020.0,9931.0 C 4020.0,9944.0 4030.0,9955.0 4049.0,9961.0 C 4072.0,9969.0 4080.0,9979.0 4085.0,10008.0 C 4089.0,10028.0 4098.0,10052.0 4106.0,10061.0 C 4120.0,10076.0 4118.0,10080.0 4090.0,10100.0 C 4060.0,10121.0 4059.0,10126.0 4065.0,10166.0 C 4071.0,10207.0 4069.0,10211.0 4045.0,10220.0 C 3993.0,10240.0 3974.0,10239.0 3923.0,10213.0" fill="pink"/>
</svg>
