<?xml version="1.0" ?>
<svg xmlns="http://www.w3.org/2000/svg" xmlns:ev="http://www.w3.org/2001/xml-events" xmlns:xlink="http://www.w3.org/1999/xlink" baseProfile="full" height="448px" version="1.1" viewBox="-1031.1875328667245 533.6397351809156 12299.047034556577 9169.119817984896" width="600px">
	<defs/>
	<path d="M 2935.0,8864.0 L 2656.0,8790.0 L 2539.0,8802.0 L 2421.0,8814.0 L 2268.0,8777.0 C 2117.0,8742.0 2113.0,8741.0 2035.0,8754.0 C 1971.0,8764.0 1902.0,8764.0 1686.0,8754.0 C 1538.0,8747.0 1414.0,8738.0 1410.0,8733.0 C 1305.0,8615.0 946.0,8230.0 673.0,7943.0 L 320.0,7571.0 L 182.0,7293.0 L 44.0,7015.0 L 21.0,6835.0 L -2.0,6655.0 L 34.0,6400.0 C 54.0,6259.0 92.0,6034.0 119.0,5900.0 L 168.0,5655.0 L 174.0,5380.0 C 181.0,5106.0 181.0,5104.0 235.0,4795.0 C 265.0,4625.0 296.0,4442.0 305.0,4390.0 C 313.0,4338.0 323.0,4285.0 325.0,4273.0 C 328.0,4259.0 361.0,4229.0 409.0,4195.0 L 487.0,4140.0 L 494.0,4078.0 C 497.0,4043.0 511.0,3963.0 525.0,3900.0 C 548.0,3787.0 552.0,3780.0 683.0,3548.0 C 790.0,3359.0 841.0,3281.0 934.0,3162.0 L 1052.0,3014.0 L 1373.0,2927.0 C 1550.0,2879.0 1787.0,2821.0 1900.0,2799.0 C 2173.0,2745.0 2519.0,2649.0 2825.0,2543.0 C 3062.0,2461.0 3085.0,2450.0 3255.0,2351.0 L 3434.0,2246.0 L 3660.0,2193.0 C 4102.0,2090.0 4788.0,1991.0 5599.0,1915.0 L 5873.0,1889.0 L 5954.0,1827.0 C 5999.0,1792.0 6124.0,1709.0 6233.0,1641.0 C 6397.0,1540.0 6466.0,1504.0 6642.0,1429.0 L 6853.0,1339.0 L 7059.0,1321.0 L 7265.0,1302.0 L 7530.0,1355.0 C 7676.0,1385.0 7910.0,1434.0 8050.0,1465.0 L 8305.0,1522.0 L 8560.0,1652.0 C 8700.0,1724.0 8858.0,1807.0 8910.0,1836.0 C 8998.0,1886.0 9008.0,1894.0 9043.0,1953.0 C 9075.0,2007.0 9080.0,2026.0 9080.0,2077.0 C 9080.0,2132.0 9084.0,2144.0 9133.0,2222.0 C 9162.0,2268.0 9221.0,2348.0 9264.0,2400.0 C 9307.0,2452.0 9346.0,2505.0 9351.0,2517.0 C 9355.0,2529.0 9378.0,2612.0 9402.0,2701.0 C 9444.0,2863.0 9445.0,2865.0 9507.0,2945.0 C 9542.0,2989.0 9597.0,3065.0 9630.0,3114.0 C 9689.0,3203.0 9690.0,3204.0 9690.0,3274.0 C 9690.0,3318.0 9681.0,3375.0 9666.0,3425.0 C 9618.0,3590.0 9657.0,3767.0 9764.0,3870.0 C 9808.0,3912.0 9810.0,3917.0 9810.0,3968.0 C 9810.0,4013.0 9818.0,4037.0 9853.0,4102.0 C 9897.0,4186.0 9905.0,4193.0 9983.0,4204.0 C 10030.0,4211.0 10034.0,4210.0 10080.0,4171.0 L 10129.0,4130.0 L 10141.0,4152.0 C 10161.0,4188.0 10153.0,4362.0 10130.0,4435.0 C 10112.0,4490.0 10102.0,4503.0 10011.0,4582.0 C 9924.0,4658.0 9904.0,4682.0 9856.0,4767.0 C 9769.0,4922.0 9653.0,5188.0 9584.0,5395.0 C 9520.0,5585.0 9520.0,5585.0 9526.0,5670.0 C 9531.0,5740.0 9537.0,5763.0 9561.0,5801.0 C 9611.0,5880.0 9600.0,5926.0 9500.0,6069.0 L 9435.0,6161.0 L 9404.0,6490.0 L 9374.0,6818.0 L 9312.0,6913.0 C 9255.0,6999.0 9241.0,7012.0 9151.0,7074.0 C 9087.0,7117.0 9017.0,7154.0 8953.0,7178.0 C 8899.0,7198.0 8801.0,7244.0 8735.0,7280.0 C 8620.0,7343.0 8612.0,7350.0 8487.0,7485.0 C 8416.0,7562.0 8300.0,7700.0 8229.0,7792.0 C 8110.0,7945.0 8092.0,7964.0 7990.0,8040.0 C 7929.0,8084.0 7822.0,8158.0 7752.0,8202.0 C 7682.0,8247.0 7582.0,8316.0 7530.0,8355.0 C 7478.0,8394.0 7392.0,8456.0 7339.0,8492.0 L 7244.0,8558.0 L 6829.0,8470.0 C 6601.0,8422.0 6298.0,8353.0 6155.0,8317.0 C 5953.0,8266.0 5837.0,8243.0 5635.0,8215.0 C 5295.0,8167.0 5193.0,8170.0 4930.0,8235.0 C 4834.0,8258.0 4717.0,8280.0 4671.0,8284.0 C 4625.0,8287.0 4585.0,8292.0 4581.0,8295.0 C 4578.0,8298.0 4571.0,8340.0 4565.0,8388.0 L 4555.0,8475.0 L 4429.0,8475.0 L 4303.0,8475.0 L 4061.0,8639.0 C 3901.0,8747.0 3779.0,8821.0 3702.0,8857.0 C 3587.0,8911.0 3586.0,8912.0 3456.0,8921.0 C 3384.0,8925.0 3300.0,8931.0 3270.0,8934.0 C 3225.0,8937.0 3163.0,8924.0 2935.0,8864.0" fill="pink"/>
	<path d="M 10118.0,4018.0 L 10083.0,3955.0 L 10014.0,3952.0 L 9945.0,3949.0 L 9911.0,3902.0 C 9874.0,3852.0 9853.0,3803.0 9845.0,3743.0 C 9841.0,3709.0 9844.0,3702.0 9874.0,3678.0 L 9907.0,3650.0 L 9988.0,3662.0 L 10069.0,3674.0 L 10155.0,3791.0 C 10243.0,3911.0 10245.0,3918.0 10234.0,4002.0 C 10228.0,4041.0 10223.0,4050.0 10193.0,4064.0 C 10175.0,4073.0 10158.0,4080.0 10156.0,4080.0 C 10153.0,4080.0 10136.0,4052.0 10118.0,4018.0" fill="pink"/>
	<path d="M 9994.0,3563.0 C 9977.0,3561.0 9951.0,3546.0 9936.0,3531.0 L 9910.0,3504.0 L 9939.0,3463.0 L 9969.0,3422.0 L 9939.0,3381.0 C 9915.0,3347.0 9910.0,3331.0 9910.0,3280.0 C 9910.0,3222.0 9942.0,3130.0 9962.0,3130.0 C 9967.0,3130.0 10004.0,3148.0 10045.0,3171.0 C 10110.0,3206.0 10121.0,3216.0 10129.0,3248.0 C 10166.0,3388.0 10169.0,3409.0 10164.0,3457.0 C 10158.0,3505.0 10155.0,3509.0 10106.0,3539.0 C 10077.0,3556.0 10047.0,3569.0 10040.0,3568.0 C 10032.0,3568.0 10011.0,3565.0 9994.0,3563.0" fill="pink"/>
	<path d="M 9880.0,2940.0 C 9839.0,2878.0 9829.0,2855.0 9832.0,2828.0 C 9839.0,2750.0 9941.0,2811.0 9973.0,2913.0 C 9996.0,2986.0 9995.0,2996.0 9961.0,3008.0 C 9932.0,3018.0 9931.0,3017.0 9880.0,2940.0" fill="pink"/>
	<path d="M 9431.0,2361.0 C 9412.0,2356.0 9403.0,2343.0 9394.0,2306.0 C 9382.0,2260.0 9383.0,2257.0 9412.0,2215.0 L 9443.0,2171.0 L 9480.0,2190.0 C 9532.0,2217.0 9544.0,2269.0 9513.0,2335.0 C 9496.0,2371.0 9482.0,2376.0 9431.0,2361.0" fill="pink"/>
</svg>
