<?xml version="1.0" ?>
<svg xmlns="http://www.w3.org/2000/svg" xmlns:ev="http://www.w3.org/2001/xml-events" xmlns:xlink="http://www.w3.org/1999/xlink" baseProfile="full" height="600px" version="1.1" viewBox="4016.6830168479128 -1028.5136135695034 2208.633966304174 12290.993531313168" width="108px">
	<defs/>
	<path d="M 5394.0,10225.0 C 5384.0,10217.0 5364.0,10210.0 5351.0,10210.0 C 5329.0,10210.0 5328.0,10207.0 5335.0,10173.0 C 5347.0,10114.0 5343.0,10099.0 5310.0,10066.0 C 5283.0,10039.0 5273.0,10035.0 5229.0,10037.0 C 5185.0,10038.0 5180.0,10036.0 5186.0,10022.0 C 5190.0,10012.0 5196.0,9956.0 5199.0,9895.0 C 5203.0,9835.0 5209.0,9780.0 5213.0,9773.0 C 5225.0,9755.0 5250.0,9600.0 5250.0,9544.0 C 5250.0,9516.0 5245.0,9468.0 5239.0,9436.0 C 5232.0,9397.0 5232.0,9375.0 5239.0,9366.0 C 5245.0,9360.0 5247.0,9345.0 5244.0,9333.0 C 5241.0,9322.0 5245.0,9299.0 5254.0,9282.0 C 5272.0,9247.0 5275.0,9179.0 5260.0,9164.0 C 5254.0,9158.0 5243.0,9091.0 5235.0,9014.0 C 5210.0,8779.0 5209.0,8775.0 5180.0,8776.0 C 5147.0,8778.0 5140.0,8765.0 5140.0,8697.0 C 5140.0,8642.0 5141.0,8639.0 5161.0,8645.0 C 5181.0,8652.0 5182.0,8649.0 5176.0,8624.0 C 5172.0,8608.0 5163.0,8537.0 5156.0,8465.0 C 5144.0,8351.0 5144.0,8332.0 5157.0,8311.0 C 5180.0,8275.0 5171.0,8169.0 5141.0,8130.0 C 5115.0,8094.0 5103.0,8040.0 5117.0,8016.0 C 5134.0,7986.0 5094.0,7714.0 5069.0,7686.0 C 5064.0,7680.0 5060.0,7648.0 5060.0,7613.0 C 5060.0,7566.0 5056.0,7548.0 5045.0,7544.0 C 5028.0,7537.0 5015.0,7492.0 5005.0,7410.0 C 5001.0,7380.0 4990.0,7340.0 4979.0,7322.0 C 4969.0,7304.0 4960.0,7278.0 4960.0,7266.0 C 4960.0,7253.0 4951.0,7231.0 4940.0,7217.0 C 4915.0,7185.0 4915.0,7152.0 4940.0,7120.0 C 4957.0,7099.0 4960.0,7079.0 4960.0,6988.0 C 4960.0,6893.0 4958.0,6878.0 4940.0,6860.0 C 4928.0,6848.0 4915.0,6842.0 4910.0,6845.0 C 4904.0,6849.0 4900.0,6848.0 4900.0,6843.0 C 4899.0,6839.0 4895.0,6815.0 4891.0,6791.0 C 4885.0,6763.0 4887.0,6711.0 4897.0,6641.0 C 4905.0,6583.0 4915.0,6486.0 4919.0,6425.0 C 4924.0,6365.0 4933.0,6300.0 4941.0,6283.0 C 4956.0,6245.0 4945.0,6185.0 4908.0,6115.0 C 4886.0,6072.0 4881.0,5995.0 4899.0,5977.0 C 4916.0,5960.0 4912.0,5930.0 4889.0,5911.0 C 4854.0,5883.0 4828.0,5803.0 4824.0,5711.0 C 4821.0,5655.0 4815.0,5621.0 4805.0,5610.0 C 4797.0,5601.0 4790.0,5579.0 4790.0,5562.0 C 4790.0,5542.0 4784.0,5529.0 4773.0,5525.0 C 4743.0,5515.0 4673.0,5350.0 4660.0,5260.0 C 4652.0,5205.0 4643.0,5173.0 4609.0,5090.0 C 4599.0,5065.0 4587.0,5029.0 4582.0,5010.0 C 4572.0,4969.0 4540.0,4958.0 4510.0,4985.0 C 4493.0,5000.0 4492.0,5000.0 4485.0,4971.0 C 4482.0,4954.0 4483.0,4933.0 4488.0,4924.0 C 4493.0,4914.0 4495.0,4890.0 4493.0,4870.0 C 4489.0,4845.0 4494.0,4821.0 4509.0,4791.0 C 4527.0,4756.0 4530.0,4739.0 4524.0,4692.0 C 4519.0,4641.0 4522.0,4624.0 4555.0,4540.0 C 4588.0,4454.0 4591.0,4439.0 4586.0,4377.0 C 4580.0,4298.0 4560.0,4260.0 4526.0,4260.0 C 4503.0,4260.0 4502.0,4257.0 4495.0,4163.0 C 4490.0,4101.0 4482.0,4059.0 4473.0,4049.0 C 4454.0,4027.0 4457.0,3976.0 4486.0,3823.0 C 4488.0,3811.0 4499.0,3798.0 4510.0,3795.0 C 4526.0,3790.0 4528.0,3785.0 4520.0,3770.0 C 4513.0,3757.0 4514.0,3750.0 4522.0,3748.0 C 4542.0,3741.0 4521.0,3721.0 4486.0,3715.0 C 4456.0,3709.0 4453.0,3705.0 4442.0,3651.0 C 4435.0,3620.0 4430.0,3561.0 4430.0,3522.0 C 4430.0,3480.0 4424.0,3434.0 4415.0,3413.0 C 4391.0,3355.0 4395.0,3344.0 4445.0,3326.0 C 4505.0,3306.0 4540.0,3317.0 4533.0,3354.0 C 4529.0,3375.0 4531.0,3380.0 4549.0,3380.0 C 4571.0,3380.0 4576.0,3395.0 4560.0,3420.0 C 4554.0,3429.0 4555.0,3437.0 4563.0,3442.0 C 4572.0,3447.0 4569.0,3461.0 4552.0,3492.0 C 4523.0,3548.0 4523.0,3582.0 4553.0,3595.0 C 4579.0,3607.0 4588.0,3652.0 4569.0,3686.0 C 4552.0,3719.0 4564.0,3740.0 4601.0,3740.0 C 4626.0,3740.0 4634.0,3746.0 4643.0,3770.0 C 4651.0,3790.0 4661.0,3800.0 4675.0,3800.0 C 4702.0,3800.0 4746.0,3770.0 4731.0,3761.0 C 4725.0,3757.0 4718.0,3740.0 4714.0,3723.0 C 4710.0,3700.0 4712.0,3691.0 4725.0,3686.0 C 4735.0,3683.0 4748.0,3684.0 4755.0,3690.0 C 4764.0,3698.0 4769.0,3687.0 4773.0,3643.0 C 4779.0,3586.0 4775.0,3562.0 4765.0,3594.0 C 4762.0,3603.0 4758.0,3617.0 4755.0,3625.0 C 4753.0,3633.0 4739.0,3640.0 4726.0,3640.0 C 4703.0,3640.0 4701.0,3638.0 4710.0,3614.0 C 4717.0,3598.0 4717.0,3582.0 4710.0,3570.0 C 4697.0,3546.0 4697.0,3499.0 4710.0,3464.0 C 4718.0,3444.0 4717.0,3432.0 4705.0,3414.0 C 4697.0,3401.0 4690.0,3384.0 4690.0,3377.0 C 4690.0,3369.0 4683.0,3357.0 4675.0,3350.0 C 4658.0,3336.0 4655.0,3275.0 4670.0,3265.0 C 4688.0,3254.0 4674.0,3197.0 4651.0,3186.0 C 4634.0,3179.0 4630.0,3171.0 4634.0,3154.0 C 4638.0,3141.0 4636.0,3128.0 4630.0,3125.0 C 4615.0,3116.0 4618.0,3100.0 4635.0,3100.0 C 4643.0,3100.0 4650.0,3093.0 4650.0,3085.0 C 4650.0,3077.0 4655.0,3070.0 4660.0,3070.0 C 4666.0,3070.0 4684.0,3060.0 4700.0,3049.0 C 4716.0,3037.0 4735.0,3030.0 4742.0,3033.0 C 4753.0,3037.0 4753.0,3029.0 4741.0,2991.0 C 4728.0,2954.0 4716.0,2938.0 4682.0,2917.0 C 4658.0,2902.0 4632.0,2890.0 4623.0,2890.0 C 4612.0,2890.0 4609.0,2884.0 4614.0,2868.0 C 4618.0,2855.0 4622.0,2840.0 4623.0,2834.0 C 4625.0,2827.0 4631.0,2815.0 4638.0,2807.0 C 4648.0,2795.0 4645.0,2789.0 4623.0,2774.0 C 4607.0,2763.0 4586.0,2753.0 4575.0,2750.0 C 4548.0,2742.0 4545.0,2709.0 4570.0,2683.0 C 4592.0,2659.0 4596.0,2635.0 4579.0,2625.0 C 4573.0,2621.0 4566.0,2628.0 4563.0,2639.0 C 4559.0,2655.0 4552.0,2659.0 4539.0,2655.0 C 4517.0,2648.0 4514.0,2672.0 4529.0,2713.0 C 4537.0,2733.0 4535.0,2742.0 4521.0,2754.0 C 4505.0,2768.0 4501.0,2769.0 4491.0,2756.0 C 4484.0,2748.0 4480.0,2724.0 4482.0,2703.0 C 4485.0,2668.0 4483.0,2665.0 4458.0,2662.0 C 4442.0,2660.0 4428.0,2651.0 4425.0,2639.0 C 4419.0,2622.0 4417.0,2622.0 4404.0,2635.0 C 4384.0,2655.0 4336.0,2654.0 4319.0,2633.0 C 4311.0,2624.0 4305.0,2606.0 4305.0,2593.0 C 4304.0,2572.0 4307.0,2570.0 4332.0,2575.0 C 4369.0,2584.0 4371.0,2553.0 4334.0,2544.0 C 4311.0,2538.0 4288.0,2518.0 4243.0,2466.0 C 4236.0,2458.0 4225.0,2450.0 4218.0,2448.0 C 4211.0,2445.0 4205.0,2427.0 4205.0,2401.0 C 4205.0,2358.0 4221.0,2338.0 4250.0,2343.0 C 4267.0,2346.0 4277.0,2390.0 4261.0,2390.0 C 4235.0,2390.0 4253.0,2421.0 4288.0,2437.0 C 4308.0,2446.0 4327.0,2455.0 4330.0,2457.0 C 4333.0,2459.0 4335.0,2446.0 4335.0,2428.0 C 4335.0,2400.0 4339.0,2395.0 4369.0,2386.0 C 4395.0,2379.0 4405.0,2379.0 4408.0,2388.0 C 4414.0,2408.0 4447.0,2401.0 4463.0,2376.0 C 4472.0,2363.0 4482.0,2340.0 4486.0,2325.0 C 4490.0,2310.0 4499.0,2296.0 4506.0,2293.0 C 4530.0,2284.0 4521.0,2267.0 4497.0,2274.0 C 4479.0,2278.0 4470.0,2274.0 4460.0,2255.0 C 4453.0,2241.0 4443.0,2230.0 4438.0,2230.0 C 4433.0,2230.0 4432.0,2221.0 4435.0,2210.0 C 4439.0,2197.0 4437.0,2190.0 4427.0,2190.0 C 4420.0,2190.0 4407.0,2179.0 4400.0,2166.0 C 4390.0,2147.0 4378.0,2140.0 4346.0,2138.0 C 4316.0,2136.0 4304.0,2130.0 4302.0,2117.0 C 4299.0,2103.0 4303.0,2099.0 4321.0,2102.0 C 4333.0,2104.0 4345.0,2099.0 4347.0,2093.0 C 4350.0,2086.0 4345.0,2080.0 4336.0,2080.0 C 4327.0,2080.0 4320.0,2072.0 4320.0,2061.0 C 4320.0,2033.0 4300.0,2024.0 4293.0,2049.0 C 4287.0,2073.0 4262.0,2077.0 4254.0,2055.0 C 4251.0,2047.0 4253.0,2025.0 4260.0,2006.0 C 4269.0,1978.0 4269.0,1963.0 4259.0,1935.0 C 4248.0,1905.0 4248.0,1897.0 4259.0,1891.0 C 4269.0,1884.0 4268.0,1881.0 4256.0,1877.0 C 4247.0,1873.0 4240.0,1863.0 4240.0,1854.0 C 4240.0,1838.0 4251.0,1838.0 4293.0,1855.0 C 4306.0,1861.0 4309.0,1858.0 4304.0,1846.0 C 4301.0,1837.0 4289.0,1830.0 4279.0,1830.0 C 4253.0,1830.0 4244.0,1803.0 4263.0,1782.0 C 4274.0,1771.0 4276.0,1760.0 4270.0,1750.0 C 4257.0,1729.0 4270.0,1717.0 4288.0,1733.0 C 4314.0,1756.0 4344.0,1758.0 4348.0,1737.0 C 4350.0,1727.0 4346.0,1712.0 4340.0,1704.0 C 4329.0,1692.0 4326.0,1692.0 4315.0,1707.0 C 4304.0,1722.0 4302.0,1722.0 4295.0,1700.0 C 4290.0,1684.0 4292.0,1675.0 4304.0,1668.0 C 4330.0,1653.0 4324.0,1620.0 4295.0,1620.0 C 4281.0,1620.0 4270.0,1614.0 4270.0,1608.0 C 4270.0,1586.0 4287.0,1567.0 4299.0,1574.0 C 4305.0,1578.0 4313.0,1574.0 4316.0,1566.0 C 4324.0,1545.0 4376.0,1545.0 4384.0,1566.0 C 4387.0,1575.0 4390.0,1598.0 4390.0,1618.0 C 4390.0,1638.0 4396.0,1662.0 4403.0,1671.0 C 4413.0,1684.0 4414.0,1672.0 4412.0,1610.0 C 4409.0,1546.0 4411.0,1532.0 4424.0,1527.0 C 4454.0,1515.0 4468.0,1531.0 4475.0,1585.0 C 4479.0,1617.0 4488.0,1645.0 4499.0,1655.0 C 4512.0,1666.0 4520.0,1692.0 4525.0,1735.0 C 4531.0,1795.0 4550.0,1825.0 4565.0,1800.0 C 4569.0,1794.0 4566.0,1790.0 4559.0,1790.0 C 4552.0,1790.0 4549.0,1777.0 4552.0,1755.0 C 4555.0,1731.0 4552.0,1720.0 4543.0,1720.0 C 4520.0,1720.0 4529.0,1673.0 4555.0,1656.0 C 4568.0,1647.0 4585.0,1630.0 4591.0,1618.0 L 4603.0,1597.0 L 4575.0,1618.0 C 4539.0,1646.0 4500.0,1647.0 4500.0,1620.0 C 4500.0,1609.0 4505.0,1600.0 4512.0,1600.0 C 4521.0,1600.0 4521.0,1597.0 4512.0,1588.0 C 4493.0,1569.0 4497.0,1562.0 4530.0,1555.0 C 4547.0,1551.0 4560.0,1542.0 4560.0,1533.0 C 4560.0,1520.0 4557.0,1520.0 4534.0,1535.0 C 4520.0,1544.0 4506.0,1549.0 4503.0,1547.0 C 4492.0,1535.0 4514.0,1497.0 4543.0,1479.0 C 4570.0,1463.0 4571.0,1460.0 4554.0,1460.0 C 4543.0,1460.0 4524.0,1471.0 4512.0,1485.0 C 4486.0,1515.0 4450.0,1519.0 4450.0,1492.0 C 4450.0,1471.0 4487.0,1427.0 4500.0,1435.0 C 4504.0,1438.0 4511.0,1433.0 4514.0,1424.0 C 4519.0,1411.0 4523.0,1410.0 4535.0,1420.0 C 4547.0,1430.0 4551.0,1429.0 4557.0,1415.0 C 4561.0,1404.0 4557.0,1393.0 4547.0,1385.0 C 4528.0,1372.0 4524.0,1350.0 4540.0,1350.0 C 4546.0,1350.0 4550.0,1344.0 4550.0,1336.0 C 4550.0,1317.0 4581.0,1307.0 4593.0,1322.0 C 4599.0,1331.0 4600.0,1330.0 4596.0,1317.0 C 4593.0,1307.0 4590.0,1297.0 4590.0,1294.0 C 4590.0,1292.0 4577.0,1293.0 4561.0,1296.0 C 4538.0,1301.0 4529.0,1298.0 4521.0,1281.0 C 4509.0,1259.0 4517.0,1207.0 4531.0,1216.0 C 4536.0,1219.0 4537.0,1208.0 4534.0,1192.0 C 4530.0,1171.0 4532.0,1161.0 4543.0,1157.0 C 4561.0,1150.0 4596.0,1185.0 4581.0,1195.0 C 4561.0,1207.0 4570.0,1217.0 4595.0,1212.0 C 4610.0,1210.0 4620.0,1201.0 4620.0,1190.0 C 4620.0,1180.0 4627.0,1167.0 4635.0,1160.0 C 4660.0,1139.0 4652.0,1130.0 4623.0,1146.0 C 4599.0,1158.0 4595.0,1158.0 4592.0,1145.0 C 4590.0,1138.0 4594.0,1122.0 4599.0,1111.0 C 4605.0,1100.0 4610.0,1082.0 4610.0,1072.0 C 4610.0,1057.0 4615.0,1053.0 4629.0,1057.0 C 4645.0,1061.0 4651.0,1054.0 4659.0,1022.0 C 4674.0,969.0 4720.0,948.0 4720.0,995.0 C 4720.0,1008.0 4728.0,1023.0 4737.0,1029.0 C 4753.0,1037.0 4752.0,1041.0 4727.0,1060.0 C 4712.0,1072.0 4700.0,1087.0 4700.0,1093.0 C 4700.0,1101.0 4703.0,1102.0 4708.0,1094.0 C 4716.0,1082.0 4783.0,1050.0 4799.0,1050.0 C 4805.0,1050.0 4810.0,1056.0 4810.0,1064.0 C 4810.0,1081.0 4752.0,1132.0 4740.0,1125.0 C 4736.0,1122.0 4730.0,1127.0 4726.0,1135.0 C 4719.0,1154.0 4724.0,1154.0 4758.0,1136.0 C 4809.0,1109.0 4823.0,1085.0 4816.0,1034.0 C 4813.0,1008.0 4815.0,980.0 4821.0,968.0 C 4834.0,945.0 4824.0,877.0 4808.0,882.0 C 4803.0,884.0 4796.0,910.0 4794.0,939.0 C 4792.0,968.0 4787.0,996.0 4784.0,1001.0 C 4772.0,1021.0 4760.0,1008.0 4760.0,975.0 C 4760.0,956.0 4755.0,940.0 4749.0,940.0 C 4743.0,940.0 4740.0,947.0 4744.0,955.0 C 4751.0,974.0 4726.0,975.0 4707.0,955.0 C 4694.0,942.0 4691.0,942.0 4680.0,955.0 C 4663.0,975.0 4637.0,955.0 4645.0,929.0 C 4648.0,920.0 4645.0,908.0 4638.0,903.0 C 4631.0,899.0 4615.0,881.0 4603.0,863.0 C 4585.0,838.0 4583.0,830.0 4594.0,821.0 C 4609.0,808.0 4630.0,825.0 4630.0,851.0 C 4630.0,869.0 4647.0,886.0 4656.0,877.0 C 4659.0,874.0 4657.0,863.0 4652.0,853.0 C 4646.0,842.0 4645.0,828.0 4650.0,820.0 C 4657.0,808.0 4662.0,809.0 4678.0,823.0 C 4688.0,832.0 4699.0,838.0 4702.0,835.0 C 4705.0,832.0 4710.0,840.0 4714.0,853.0 C 4719.0,876.0 4722.0,877.0 4762.0,867.0 C 4786.0,862.0 4812.0,854.0 4821.0,850.0 C 4829.0,846.0 4844.0,847.0 4854.0,852.0 C 4864.0,858.0 4895.0,859.0 4927.0,855.0 C 4971.0,850.0 4979.0,846.0 4970.0,835.0 C 4963.0,826.0 4947.0,823.0 4924.0,827.0 C 4896.0,832.0 4885.0,828.0 4865.0,806.0 C 4841.0,780.0 4810.0,779.0 4810.0,805.0 C 4810.0,821.0 4781.0,846.0 4752.0,855.0 C 4733.0,860.0 4727.0,856.0 4715.0,826.0 C 4707.0,807.0 4696.0,789.0 4691.0,786.0 C 4686.0,782.0 4686.0,766.0 4693.0,745.0 C 4702.0,714.0 4707.0,710.0 4737.0,710.0 C 4755.0,710.0 4770.0,706.0 4770.0,700.0 C 4770.0,695.0 4777.0,690.0 4785.0,690.0 C 4793.0,690.0 4800.0,687.0 4800.0,682.0 C 4800.0,678.0 4782.0,676.0 4760.0,678.0 C 4738.0,680.0 4720.0,680.0 4720.0,677.0 C 4720.0,675.0 4748.0,654.0 4781.0,631.0 C 4842.0,589.0 4868.0,583.0 4837.0,618.0 C 4813.0,645.0 4816.0,669.0 4846.0,680.0 C 4869.0,689.0 4870.0,692.0 4859.0,707.0 C 4846.0,722.0 4848.0,722.0 4881.0,716.0 C 4910.0,711.0 4920.0,714.0 4936.0,731.0 C 4959.0,757.0 5027.0,793.0 5039.0,785.0 C 5054.0,776.0 5013.0,705.0 4986.0,692.0 C 4971.0,685.0 4960.0,671.0 4957.0,653.0 L 4953.0,625.0 L 4951.0,653.0 C 4949.0,690.0 4910.0,693.0 4910.0,656.0 C 4910.0,642.0 4906.0,629.0 4901.0,626.0 C 4896.0,622.0 4894.0,629.0 4897.0,641.0 C 4902.0,658.0 4899.0,661.0 4884.0,658.0 C 4874.0,656.0 4864.0,646.0 4862.0,636.0 C 4854.0,599.0 4884.0,568.0 4962.0,530.0 C 5033.0,496.0 5040.0,495.0 5065.0,508.0 C 5092.0,522.0 5092.0,524.0 5086.0,584.0 C 5082.0,629.0 5084.0,651.0 5094.0,666.0 C 5102.0,677.0 5110.0,714.0 5112.0,748.0 C 5113.0,782.0 5119.0,811.0 5125.0,811.0 C 5130.0,812.0 5148.0,814.0 5164.0,816.0 C 5179.0,817.0 5200.0,825.0 5209.0,832.0 C 5255.0,869.0 5310.0,883.0 5310.0,857.0 C 5310.0,850.0 5297.0,829.0 5280.0,810.0 C 5251.0,776.0 5250.0,776.0 5235.0,794.0 C 5223.0,810.0 5218.0,811.0 5205.0,800.0 C 5186.0,784.0 5186.0,770.0 5205.0,770.0 C 5222.0,770.0 5224.0,761.0 5211.0,741.0 C 5206.0,733.0 5195.0,730.0 5186.0,733.0 C 5173.0,738.0 5170.0,731.0 5170.0,690.0 C 5170.0,651.0 5174.0,638.0 5192.0,626.0 C 5211.0,612.0 5216.0,612.0 5230.0,625.0 C 5240.0,634.0 5266.0,640.0 5293.0,640.0 C 5333.0,640.0 5340.0,637.0 5340.0,621.0 C 5340.0,600.0 5304.0,571.0 5252.0,550.0 C 5221.0,538.0 5219.0,535.0 5222.0,491.0 C 5225.0,445.0 5225.0,445.0 5300.0,402.0 C 5341.0,379.0 5376.0,356.0 5378.0,352.0 C 5379.0,348.0 5374.0,335.0 5365.0,325.0 C 5351.0,305.0 5351.0,305.0 5350.0,327.0 C 5350.0,339.0 5341.0,354.0 5330.0,360.0 C 5319.0,366.0 5310.0,368.0 5310.0,364.0 C 5310.0,361.0 5299.0,365.0 5285.0,374.0 C 5263.0,388.0 5260.0,389.0 5260.0,375.0 C 5260.0,357.0 5249.0,355.0 5233.0,371.0 C 5219.0,385.0 5108.0,389.0 5091.0,376.0 C 5084.0,371.0 5048.0,364.0 5012.0,362.0 C 4939.0,359.0 4925.0,352.0 4915.0,313.0 C 4907.0,279.0 4925.0,268.0 4959.0,286.0 C 4989.0,302.0 5026.0,304.0 5034.0,291.0 C 5037.0,286.0 5052.0,279.0 5067.0,275.0 C 5106.0,266.0 5147.0,232.0 5128.0,225.0 C 5120.0,222.0 5101.0,224.0 5086.0,230.0 C 5071.0,235.0 5044.0,240.0 5027.0,239.0 C 4996.0,239.0 4996.0,238.0 5019.0,229.0 C 5032.0,224.0 5058.0,207.0 5076.0,191.0 C 5118.0,154.0 5166.0,142.0 5188.0,164.0 C 5202.0,178.0 5202.0,180.0 5183.0,187.0 C 5149.0,200.0 5179.0,231.0 5232.0,237.0 C 5261.0,240.0 5271.0,238.0 5262.0,232.0 C 5244.0,220.0 5229.0,98.0 5244.0,88.0 C 5250.0,84.0 5267.0,80.0 5281.0,80.0 C 5295.0,80.0 5315.0,71.0 5325.0,60.0 C 5348.0,35.0 5363.0,51.0 5354.0,92.0 C 5351.0,106.0 5354.0,121.0 5360.0,125.0 C 5376.0,135.0 5400.0,111.0 5400.0,84.0 C 5400.0,63.0 5405.0,60.0 5434.0,60.0 C 5470.0,60.0 5500.0,39.0 5500.0,14.0 C 5500.0,6.0 5509.0,0.0 5520.0,0.0 C 5551.0,0.0 5544.0,32.0 5505.0,73.0 C 5482.0,97.0 5474.0,110.0 5484.0,110.0 C 5513.0,110.0 5511.0,130.0 5481.0,136.0 C 5442.0,144.0 5442.0,154.0 5481.0,171.0 C 5509.0,182.0 5514.0,181.0 5526.0,165.0 C 5534.0,155.0 5540.0,138.0 5540.0,127.0 C 5540.0,116.0 5545.0,110.0 5553.0,113.0 C 5601.0,131.0 5609.0,130.0 5620.0,110.0 C 5626.0,99.0 5641.0,90.0 5655.0,90.0 C 5674.0,90.0 5680.0,96.0 5685.0,124.0 C 5693.0,166.0 5668.0,210.0 5636.0,210.0 C 5625.0,210.0 5580.0,215.0 5536.0,222.0 L 5458.0,234.0 L 5465.0,530.0 C 5471.0,785.0 5470.0,827.0 5458.0,838.0 C 5446.0,848.0 5437.0,847.0 5415.0,836.0 C 5380.0,818.0 5364.0,824.0 5345.0,863.0 C 5314.0,925.0 5338.0,953.0 5401.0,927.0 C 5461.0,902.0 5500.0,892.0 5505.0,900.0 C 5511.0,909.0 5389.0,960.0 5360.0,960.0 C 5348.0,960.0 5317.0,971.0 5290.0,985.0 C 5244.0,1008.0 5231.0,1010.0 5085.0,1010.0 C 4965.0,1010.0 4930.0,1013.0 4930.0,1023.0 C 4930.0,1044.0 4906.0,1090.0 4894.0,1090.0 C 4889.0,1090.0 4876.0,1096.0 4866.0,1103.0 C 4850.0,1115.0 4849.0,1121.0 4861.0,1158.0 C 4870.0,1190.0 4870.0,1203.0 4861.0,1214.0 C 4852.0,1224.0 4852.0,1234.0 4861.0,1253.0 C 4877.0,1288.0 4864.0,1367.0 4841.0,1380.0 C 4831.0,1385.0 4820.0,1387.0 4817.0,1384.0 C 4814.0,1381.0 4800.0,1377.0 4786.0,1376.0 C 4771.0,1374.0 4751.0,1365.0 4740.0,1355.0 C 4729.0,1345.0 4719.0,1339.0 4717.0,1341.0 C 4705.0,1358.0 4690.0,1406.0 4690.0,1428.0 C 4690.0,1443.0 4682.0,1466.0 4673.0,1480.0 C 4655.0,1506.0 4654.0,1510.0 4645.0,1610.0 C 4638.0,1696.0 4646.0,1730.0 4671.0,1727.0 C 4686.0,1726.0 4695.0,1734.0 4705.0,1763.0 C 4721.0,1810.0 4738.0,1830.0 4755.0,1824.0 C 4780.0,1814.0 4803.0,1865.0 4796.0,1914.0 C 4790.0,1953.0 4792.0,1960.0 4815.0,1978.0 C 4846.0,2003.0 4849.0,2051.0 4820.0,2078.0 C 4800.0,2096.0 4800.0,2099.0 4814.0,2141.0 C 4823.0,2165.0 4830.0,2193.0 4830.0,2203.0 C 4830.0,2214.0 4839.0,2224.0 4849.0,2227.0 C 4860.0,2230.0 4874.0,2245.0 4880.0,2261.0 C 4887.0,2277.0 4898.0,2290.0 4904.0,2290.0 C 4913.0,2290.0 4915.0,2308.0 4912.0,2349.0 C 4908.0,2402.0 4910.0,2409.0 4928.0,2414.0 C 4940.0,2418.0 4952.0,2430.0 4955.0,2440.0 C 4962.0,2463.0 4942.0,2539.0 4924.0,2559.0 C 4913.0,2571.0 4916.0,2576.0 4936.0,2592.0 C 4959.0,2611.0 4969.0,2650.0 4951.0,2650.0 C 4937.0,2650.0 4928.0,2685.0 4936.0,2714.0 C 4939.0,2728.0 4948.0,2740.0 4956.0,2740.0 C 4964.0,2740.0 4970.0,2746.0 4970.0,2754.0 C 4970.0,2762.0 4977.0,2770.0 4985.0,2774.0 C 4994.0,2777.0 5000.0,2792.0 5000.0,2814.0 C 5000.0,2859.0 4954.0,2900.0 4904.0,2900.0 C 4877.0,2900.0 4870.0,2904.0 4870.0,2920.0 C 4870.0,2938.0 4877.0,2940.0 4950.0,2940.0 C 5006.0,2940.0 5032.0,2944.0 5034.0,2953.0 C 5058.0,3030.0 5044.0,3050.0 4963.0,3050.0 L 4907.0,3050.0 L 4913.0,3091.0 C 4916.0,3113.0 4926.0,3140.0 4935.0,3150.0 C 4950.0,3167.0 4950.0,3171.0 4937.0,3190.0 C 4929.0,3202.0 4924.0,3219.0 4927.0,3229.0 C 4930.0,3239.0 4925.0,3261.0 4916.0,3278.0 C 4896.0,3317.0 4896.0,3340.0 4916.0,3340.0 C 4926.0,3340.0 4930.0,3347.0 4928.0,3362.0 C 4926.0,3380.0 4917.0,3386.0 4893.0,3388.0 C 4868.0,3390.0 4859.0,3397.0 4854.0,3415.0 C 4847.0,3443.0 4855.0,3634.0 4864.0,3648.0 C 4867.0,3654.0 4879.0,3656.0 4890.0,3653.0 C 4920.0,3645.0 4925.0,3673.0 4904.0,3738.0 C 4894.0,3769.0 4888.0,3815.0 4890.0,3840.0 C 4891.0,3865.0 4894.0,3902.0 4894.0,3922.0 C 4895.0,3943.0 4899.0,3962.0 4903.0,3966.0 C 4906.0,3970.0 4902.0,3986.0 4893.0,4003.0 C 4881.0,4027.0 4880.0,4038.0 4889.0,4052.0 C 4895.0,4062.0 4900.0,4078.0 4900.0,4089.0 C 4900.0,4099.0 4907.0,4113.0 4915.0,4120.0 C 4934.0,4136.0 4934.0,4156.0 4915.0,4164.0 C 4895.0,4171.0 4895.0,4210.0 4915.0,4210.0 C 4927.0,4210.0 4930.0,4224.0 4930.0,4278.0 C 4930.0,4323.0 4933.0,4340.0 4940.0,4330.0 C 4947.0,4319.0 4951.0,4321.0 4959.0,4343.0 C 4965.0,4359.0 4970.0,4377.0 4970.0,4384.0 C 4970.0,4391.0 4973.0,4400.0 4977.0,4404.0 C 4981.0,4408.0 4983.0,4430.0 4981.0,4455.0 C 4978.0,4514.0 4991.0,4535.0 5045.0,4556.0 C 5095.0,4575.0 5113.0,4608.0 5087.0,4634.0 C 5079.0,4642.0 5069.0,4675.0 5065.0,4706.0 C 5061.0,4738.0 5053.0,4775.0 5048.0,4789.0 C 5038.0,4813.0 5029.0,4903.0 5030.0,4960.0 C 5030.0,4974.0 5030.0,5013.0 5029.0,5048.0 C 5029.0,5089.0 5033.0,5110.0 5040.0,5110.0 C 5048.0,5110.0 5051.0,5121.0 5048.0,5140.0 C 5044.0,5163.0 5048.0,5171.0 5064.0,5177.0 C 5076.0,5181.0 5093.0,5183.0 5103.0,5181.0 C 5116.0,5179.0 5120.0,5186.0 5120.0,5208.0 C 5120.0,5239.0 5142.0,5265.0 5169.0,5265.0 C 5180.0,5265.0 5187.0,5278.0 5192.0,5310.0 C 5199.0,5358.0 5184.0,5478.0 5169.0,5495.0 C 5156.0,5509.0 5158.0,5517.0 5178.0,5522.0 C 5197.0,5527.0 5223.0,5609.0 5214.0,5635.0 C 5211.0,5643.0 5213.0,5650.0 5219.0,5650.0 C 5225.0,5650.0 5230.0,5655.0 5230.0,5661.0 C 5230.0,5667.0 5239.0,5683.0 5250.0,5697.0 C 5261.0,5711.0 5270.0,5731.0 5270.0,5741.0 C 5270.0,5754.0 5276.0,5759.0 5293.0,5757.0 C 5314.0,5755.0 5315.0,5757.0 5313.0,5840.0 C 5311.0,5887.0 5315.0,5942.0 5322.0,5963.0 C 5331.0,5992.0 5330.0,6005.0 5320.0,6025.0 C 5313.0,6038.0 5303.0,6047.0 5298.0,6044.0 C 5285.0,6036.0 5260.0,6060.0 5260.0,6081.0 C 5260.0,6092.0 5264.0,6100.0 5269.0,6100.0 C 5289.0,6100.0 5290.0,6134.0 5270.0,6152.0 C 5258.0,6164.0 5250.0,6184.0 5250.0,6205.0 C 5250.0,6224.0 5241.0,6255.0 5230.0,6275.0 C 5208.0,6313.0 5203.0,6360.0 5221.0,6360.0 C 5243.0,6360.0 5225.0,6404.0 5201.0,6410.0 C 5181.0,6414.0 5173.0,6426.0 5163.0,6465.0 C 5147.0,6527.0 5155.0,6591.0 5180.0,6597.0 C 5196.0,6601.0 5214.0,6633.0 5211.0,6653.0 C 5209.0,6667.0 5233.0,6755.0 5241.0,6765.0 C 5246.0,6770.0 5250.0,6781.0 5250.0,6790.0 C 5250.0,6801.0 5258.0,6806.0 5273.0,6806.0 C 5303.0,6805.0 5338.0,6870.0 5315.0,6883.0 C 5303.0,6889.0 5301.0,6902.0 5306.0,6939.0 C 5310.0,6968.0 5308.0,6990.0 5302.0,6994.0 C 5296.0,6997.0 5294.0,7009.0 5297.0,7019.0 C 5300.0,7029.0 5297.0,7041.0 5291.0,7044.0 C 5272.0,7056.0 5279.0,7096.0 5304.0,7123.0 C 5327.0,7148.0 5360.0,7251.0 5360.0,7301.0 C 5360.0,7315.0 5378.0,7345.0 5405.0,7375.0 C 5430.0,7403.0 5458.0,7434.0 5467.0,7445.0 C 5489.0,7469.0 5510.0,7508.0 5510.0,7524.0 C 5510.0,7530.0 5521.0,7558.0 5534.0,7585.0 C 5548.0,7613.0 5561.0,7643.0 5564.0,7653.0 C 5568.0,7666.0 5578.0,7671.0 5597.0,7669.0 C 5613.0,7667.0 5630.0,7668.0 5635.0,7671.0 C 5641.0,7675.0 5657.0,7680.0 5673.0,7684.0 C 5708.0,7692.0 5707.0,7711.0 5670.0,7779.0 C 5636.0,7841.0 5632.0,7889.0 5658.0,7913.0 C 5674.0,7927.0 5675.0,7938.0 5669.0,7983.0 C 5665.0,8011.0 5654.0,8052.0 5645.0,8074.0 C 5627.0,8117.0 5635.0,8155.0 5671.0,8195.0 C 5689.0,8215.0 5689.0,8217.0 5668.0,8259.0 C 5647.0,8301.0 5647.0,8303.0 5665.0,8336.0 C 5675.0,8355.0 5689.0,8370.0 5697.0,8370.0 C 5704.0,8370.0 5713.0,8376.0 5716.0,8384.0 C 5719.0,8392.0 5767.0,8417.0 5823.0,8439.0 C 5879.0,8462.0 5931.0,8484.0 5938.0,8489.0 C 5945.0,8493.0 5970.0,8558.0 5994.0,8633.0 L 6037.0,8769.0 L 6009.0,8796.0 L 5981.0,8822.0 L 5913.0,8807.0 C 5846.0,8792.0 5845.0,8792.0 5828.0,8813.0 C 5817.0,8827.0 5813.0,8843.0 5817.0,8855.0 C 5821.0,8866.0 5823.0,8884.0 5823.0,8895.0 C 5817.0,8977.0 5806.0,9026.0 5790.0,9048.0 C 5779.0,9062.0 5770.0,9085.0 5770.0,9099.0 C 5770.0,9114.0 5763.0,9136.0 5754.0,9148.0 C 5745.0,9161.0 5740.0,9181.0 5743.0,9192.0 C 5750.0,9217.0 5713.0,9293.0 5675.0,9334.0 C 5651.0,9360.0 5650.0,9364.0 5665.0,9380.0 C 5680.0,9396.0 5679.0,9399.0 5652.0,9421.0 C 5613.0,9455.0 5608.0,9466.0 5622.0,9490.0 C 5632.0,9506.0 5632.0,9514.0 5622.0,9530.0 C 5611.0,9548.0 5612.0,9550.0 5635.0,9550.0 C 5657.0,9550.0 5660.0,9554.0 5660.0,9587.0 C 5660.0,9607.0 5653.0,9631.0 5644.0,9641.0 C 5629.0,9658.0 5630.0,9662.0 5658.0,9696.0 L 5688.0,9732.0 L 5649.0,9771.0 C 5628.0,9792.0 5606.0,9810.0 5601.0,9810.0 C 5586.0,9810.0 5563.0,9853.0 5556.0,9895.0 C 5543.0,9970.0 5528.0,10035.0 5519.0,10053.0 C 5513.0,10064.0 5513.0,10078.0 5520.0,10090.0 C 5530.0,10108.0 5527.0,10110.0 5500.0,10110.0 C 5475.0,10110.0 5470.0,10114.0 5470.0,10134.0 C 5470.0,10147.0 5463.0,10164.0 5453.0,10171.0 C 5444.0,10179.0 5432.0,10197.0 5425.0,10212.0 C 5415.0,10238.0 5412.0,10239.0 5394.0,10225.0 M 4623.0,1403.0 C 4604.0,1396.0 4607.0,1382.0 4630.0,1375.0 C 4641.0,1371.0 4648.0,1365.0 4645.0,1360.0 C 4642.0,1355.0 4633.0,1353.0 4625.0,1357.0 C 4617.0,1360.0 4610.0,1357.0 4610.0,1351.0 C 4610.0,1345.0 4606.0,1340.0 4600.0,1340.0 C 4584.0,1340.0 4588.0,1382.0 4607.0,1402.0 C 4616.0,1412.0 4626.0,1417.0 4629.0,1414.0 C 4632.0,1410.0 4629.0,1405.0 4623.0,1403.0 M 4950.0,605.0 C 4950.0,597.0 4943.0,590.0 4934.0,590.0 C 4920.0,590.0 4920.0,593.0 4930.0,605.0 C 4937.0,613.0 4944.0,620.0 4946.0,620.0 C 4948.0,620.0 4950.0,613.0 4950.0,605.0" fill="pink"/>
	<path d="M 4316.0,1479.0 C 4309.0,1438.0 4318.0,1420.0 4345.0,1420.0 C 4358.0,1421.0 4420.0,1477.0 4420.0,1489.0 C 4420.0,1494.0 4408.0,1500.0 4393.0,1503.0 C 4377.0,1506.0 4356.0,1511.0 4344.0,1515.0 C 4325.0,1521.0 4322.0,1517.0 4316.0,1479.0" fill="pink"/>
	<path d="M 4439.0,1402.0 C 4454.0,1375.0 4453.0,1360.0 4437.0,1360.0 C 4430.0,1360.0 4415.0,1354.0 4405.0,1346.0 C 4388.0,1334.0 4388.0,1331.0 4403.0,1310.0 C 4422.0,1283.0 4417.0,1250.0 4389.0,1210.0 C 4380.0,1196.0 4369.0,1166.0 4366.0,1143.0 C 4361.0,1106.0 4362.0,1102.0 4379.0,1107.0 C 4390.0,1110.0 4408.0,1123.0 4421.0,1136.0 C 4433.0,1149.0 4452.0,1160.0 4462.0,1160.0 C 4472.0,1160.0 4480.0,1167.0 4480.0,1175.0 C 4480.0,1187.0 4472.0,1189.0 4440.0,1184.0 C 4397.0,1177.0 4389.0,1187.0 4418.0,1212.0 C 4442.0,1233.0 4468.0,1241.0 4475.0,1230.0 C 4488.0,1208.0 4500.0,1222.0 4500.0,1259.0 C 4500.0,1281.0 4505.0,1302.0 4510.0,1305.0 C 4523.0,1313.0 4513.0,1380.0 4496.0,1397.0 C 4490.0,1403.0 4472.0,1412.0 4456.0,1416.0 C 4430.0,1422.0 4429.0,1421.0 4439.0,1402.0" fill="pink"/>
	<path d="M 4320.0,1380.0 C 4320.0,1371.0 4315.0,1359.0 4309.0,1353.0 C 4301.0,1345.0 4304.0,1340.0 4321.0,1335.0 C 4338.0,1329.0 4348.0,1333.0 4361.0,1351.0 C 4386.0,1383.0 4385.0,1387.0 4350.0,1392.0 C 4327.0,1395.0 4320.0,1393.0 4320.0,1380.0" fill="pink"/>
	<path d="M 4405.0,1076.0 C 4387.0,1063.0 4387.0,1061.0 4408.0,1016.0 C 4420.0,991.0 4430.0,961.0 4430.0,951.0 C 4430.0,924.0 4471.0,895.0 4482.0,914.0 C 4495.0,937.0 4483.0,1006.0 4458.0,1049.0 C 4432.0,1095.0 4431.0,1095.0 4405.0,1076.0" fill="pink"/>
	<path d="M 4491.0,781.0 C 4471.0,768.0 4486.0,734.0 4518.0,721.0 C 4533.0,715.0 4571.0,701.0 4603.0,689.0 C 4665.0,667.0 4663.0,670.0 4644.0,610.0 C 4638.0,591.0 4676.0,540.0 4695.0,540.0 C 4708.0,540.0 4722.0,512.0 4719.0,494.0 C 4718.0,489.0 4718.0,477.0 4719.0,468.0 C 4720.0,445.0 4746.0,455.0 4753.0,481.0 C 4760.0,506.0 4790.0,506.0 4790.0,481.0 C 4790.0,470.0 4786.0,458.0 4780.0,455.0 C 4756.0,440.0 4774.0,432.0 4831.0,433.0 C 4875.0,434.0 4894.0,431.0 4900.0,420.0 C 4926.0,377.0 4926.0,377.0 4955.0,396.0 C 4977.0,410.0 4986.0,411.0 5001.0,402.0 C 5011.0,395.0 5031.0,390.0 5045.0,390.0 C 5097.0,390.0 5058.0,460.0 4997.0,475.0 C 4982.0,479.0 4967.0,486.0 4964.0,491.0 C 4954.0,508.0 4923.0,500.0 4910.0,475.0 C 4893.0,444.0 4880.0,452.0 4880.0,494.0 C 4880.0,530.0 4843.0,573.0 4800.0,585.0 C 4786.0,589.0 4753.0,615.0 4726.0,642.0 C 4699.0,670.0 4646.0,707.0 4606.0,727.0 C 4567.0,746.0 4531.0,769.0 4527.0,776.0 C 4518.0,792.0 4510.0,793.0 4491.0,781.0" fill="pink"/>
	<path d="M 5142.0,568.0 C 5135.0,561.0 5130.0,547.0 5130.0,537.0 C 5130.0,526.0 5124.0,512.0 5116.0,506.0 C 5100.0,494.0 5092.0,432.0 5104.0,412.0 C 5108.0,405.0 5131.0,400.0 5158.0,400.0 L 5205.0,401.0 L 5170.0,431.0 C 5140.0,457.0 5138.0,461.0 5158.0,457.0 C 5180.0,452.0 5180.0,454.0 5174.0,503.0 C 5166.0,570.0 5158.0,584.0 5142.0,568.0" fill="pink"/>
</svg>
