<?xml version="1.0" ?>
<svg xmlns="http://www.w3.org/2000/svg" xmlns:ev="http://www.w3.org/2001/xml-events" xmlns:xlink="http://www.w3.org/1999/xlink" baseProfile="full" height="600px" version="1.1" viewBox="806.4235167575176 -1023.8853004540451 8625.64614961815 12295.801222939852" width="421px">
	<defs/>
	<path d="M 7100.0,10202.0 C 7077.0,10161.0 7075.0,10160.0 7024.0,10160.0 C 6990.0,10160.0 6968.0,10165.0 6960.0,10175.0 C 6948.0,10189.0 6920.0,10196.0 6920.0,10184.0 C 6920.0,10161.0 6948.0,10138.0 6995.0,10124.0 C 7026.0,10116.0 7048.0,10104.0 7045.0,10099.0 C 7035.0,10085.0 6982.0,10088.0 6955.0,10106.0 C 6933.0,10120.0 6928.0,10120.0 6895.0,10105.0 C 6851.0,10083.0 6842.0,10070.0 6863.0,10055.0 C 6873.0,10048.0 6880.0,10035.0 6880.0,10026.0 C 6880.0,10002.0 6846.0,9938.0 6821.0,9916.0 C 6801.0,9898.0 6801.0,9897.0 6820.0,9860.0 C 6842.0,9818.0 6878.0,9799.0 6978.0,9780.0 C 7037.0,9768.0 7043.0,9764.0 7127.0,9678.0 L 7215.0,9589.0 L 7211.0,9507.0 C 7209.0,9453.0 7201.0,9412.0 7189.0,9388.0 C 7178.0,9367.0 7170.0,9330.0 7170.0,9303.0 C 7170.0,9273.0 7163.0,9243.0 7150.0,9223.0 C 7131.0,9192.0 7131.0,9190.0 7149.0,9178.0 C 7177.0,9158.0 7190.0,9100.0 7178.0,9047.0 C 7170.0,9006.0 7166.0,9001.0 7133.0,8995.0 C 7087.0,8987.0 7000.0,8921.0 6966.0,8870.0 C 6946.0,8839.0 6933.0,8830.0 6912.0,8830.0 C 6896.0,8830.0 6868.0,8819.0 6850.0,8805.0 C 6831.0,8791.0 6799.0,8774.0 6779.0,8768.0 C 6746.0,8759.0 6738.0,8760.0 6712.0,8779.0 C 6681.0,8800.0 6653.0,8805.0 6635.0,8792.0 C 6629.0,8788.0 6613.0,8767.0 6599.0,8745.0 C 6584.0,8723.0 6554.0,8683.0 6531.0,8655.0 C 6509.0,8628.0 6490.0,8597.0 6490.0,8588.0 C 6490.0,8576.0 6482.0,8570.0 6466.0,8570.0 C 6436.0,8570.0 6380.0,8488.0 6380.0,8443.0 C 6380.0,8423.0 6370.0,8404.0 6350.0,8385.0 C 6329.0,8365.0 6320.0,8347.0 6320.0,8324.0 C 6320.0,8300.0 6315.0,8290.0 6300.0,8285.0 C 6266.0,8274.0 6242.0,8206.0 6225.0,8078.0 C 6221.0,8049.0 6209.0,8019.0 6194.0,8001.0 C 6176.0,7980.0 6170.0,7960.0 6170.0,7927.0 C 6170.0,7902.0 6165.0,7878.0 6160.0,7875.0 C 6154.0,7871.0 6152.0,7854.0 6156.0,7834.0 C 6161.0,7804.0 6158.0,7794.0 6134.0,7769.0 C 6119.0,7753.0 6100.0,7740.0 6093.0,7740.0 C 6085.0,7740.0 6054.0,7717.0 6024.0,7689.0 C 5980.0,7647.0 5970.0,7631.0 5970.0,7605.0 C 5970.0,7587.0 5963.0,7567.0 5955.0,7560.0 C 5932.0,7541.0 5936.0,7480.0 5962.0,7453.0 C 5983.0,7431.0 5983.0,7429.0 5967.0,7395.0 C 5958.0,7375.0 5950.0,7338.0 5950.0,7312.0 C 5950.0,7272.0 5945.0,7259.0 5923.0,7237.0 C 5907.0,7223.0 5876.0,7207.0 5853.0,7202.0 C 5828.0,7196.0 5779.0,7168.0 5728.0,7130.0 C 5682.0,7096.0 5638.0,7065.0 5630.0,7060.0 C 5617.0,7053.0 5619.0,7048.0 5638.0,7028.0 C 5664.0,7000.0 5666.0,6966.0 5645.0,6913.0 C 5614.0,6834.0 5576.0,6662.0 5573.0,6583.0 L 5569.0,6502.0 L 5529.0,6495.0 C 5497.0,6489.0 5490.0,6484.0 5490.0,6466.0 C 5490.0,6439.0 5461.0,6410.0 5435.0,6410.0 C 5424.0,6410.0 5404.0,6398.0 5389.0,6384.0 C 5364.0,6360.0 5361.0,6359.0 5333.0,6373.0 C 5308.0,6386.0 5301.0,6386.0 5277.0,6374.0 C 5253.0,6361.0 5250.0,6354.0 5250.0,6310.0 C 5250.0,6264.0 5248.0,6260.0 5227.0,6260.0 C 5214.0,6260.0 5191.0,6247.0 5175.0,6230.0 C 5159.0,6214.0 5138.0,6200.0 5129.0,6200.0 C 5119.0,6200.0 5098.0,6183.0 5081.0,6163.0 C 5052.0,6127.0 5050.0,6121.0 5050.0,6038.0 C 5050.0,5958.0 5048.0,5950.0 5025.0,5932.0 C 5001.0,5913.0 5001.0,5911.0 5014.0,5873.0 L 5028.0,5834.0 L 4963.0,5714.0 C 4875.0,5554.0 4847.0,5478.0 4853.0,5418.0 C 4857.0,5374.0 4855.0,5370.0 4828.0,5359.0 C 4806.0,5350.0 4800.0,5341.0 4800.0,5316.0 C 4799.0,5269.0 4720.0,5126.0 4693.0,5122.0 C 4668.0,5118.0 4666.0,5112.0 4679.0,5077.0 C 4684.0,5064.0 4690.0,5027.0 4691.0,4994.0 L 4694.0,4936.0 L 4659.0,4928.0 C 4640.0,4923.0 4600.0,4908.0 4570.0,4894.0 C 4524.0,4873.0 4509.0,4859.0 4478.0,4807.0 C 4452.0,4764.0 4444.0,4742.0 4450.0,4730.0 C 4456.0,4719.0 4450.0,4700.0 4429.0,4667.0 C 4410.0,4636.0 4400.0,4607.0 4400.0,4581.0 C 4400.0,4544.0 4398.0,4541.0 4363.0,4533.0 C 4333.0,4526.0 4325.0,4519.0 4318.0,4492.0 C 4312.0,4471.0 4303.0,4460.0 4292.0,4460.0 C 4282.0,4460.0 4265.0,4453.0 4254.0,4445.0 C 4229.0,4426.0 4222.0,4426.0 4215.0,4449.0 C 4210.0,4467.0 4202.0,4468.0 4122.0,4463.0 C 4036.0,4457.0 4034.0,4458.0 4017.0,4483.0 C 4005.0,4501.0 3980.0,4633.0 3980.0,4677.0 C 3980.0,4679.0 3949.0,4680.0 3910.0,4680.0 L 3840.0,4680.0 L 3783.0,4765.0 C 3738.0,4834.0 3715.0,4858.0 3669.0,4886.0 C 3637.0,4905.0 3601.0,4933.0 3589.0,4948.0 C 3577.0,4963.0 3566.0,4971.0 3563.0,4965.0 C 3561.0,4960.0 3540.0,4924.0 3517.0,4885.0 L 3475.0,4815.0 L 3324.0,4812.0 L 3174.0,4809.0 L 3159.0,4855.0 L 3145.0,4900.0 L 3017.0,4795.0 C 2925.0,4720.0 2881.0,4690.0 2862.0,4690.0 C 2847.0,4690.0 2819.0,4687.0 2798.0,4684.0 C 2762.0,4678.0 2762.0,4678.0 2755.0,4616.0 C 2751.0,4583.0 2737.0,4529.0 2723.0,4498.0 C 2698.0,4442.0 2696.0,4440.0 2658.0,4440.0 C 2625.0,4440.0 2616.0,4435.0 2602.0,4411.0 C 2586.0,4382.0 2556.0,4370.0 2505.0,4370.0 C 2481.0,4370.0 2470.0,4348.0 2470.0,4298.0 C 2470.0,4274.0 2466.0,4270.0 2441.0,4270.0 C 2415.0,4270.0 2407.0,4262.0 2370.0,4195.0 C 2331.0,4125.0 2326.0,4120.0 2289.0,4114.0 C 2255.0,4108.0 2236.0,4092.0 2144.0,3994.0 C 2082.0,3927.0 2030.0,3880.0 2019.0,3880.0 C 2009.0,3880.0 1996.0,3872.0 1991.0,3861.0 C 1985.0,3851.0 1967.0,3837.0 1950.0,3830.0 C 1930.0,3822.0 1921.0,3812.0 1924.0,3801.0 C 1939.0,3747.0 1939.0,3723.0 1926.0,3705.0 C 1906.0,3677.0 1917.0,3631.0 1953.0,3593.0 L 1984.0,3560.0 L 1963.0,3538.0 C 1952.0,3525.0 1930.0,3492.0 1916.0,3463.0 C 1893.0,3417.0 1890.0,3399.0 1890.0,3307.0 C 1890.0,3204.0 1890.0,3204.0 1859.0,3174.0 C 1842.0,3158.0 1813.0,3114.0 1796.0,3075.0 C 1775.0,3030.0 1754.0,3000.0 1738.0,2991.0 C 1716.0,2980.0 1713.0,2973.0 1717.0,2941.0 C 1721.0,2909.0 1717.0,2899.0 1688.0,2870.0 L 1654.0,2835.0 L 1655.0,2721.0 C 1656.0,2622.0 1659.0,2606.0 1675.0,2594.0 C 1698.0,2577.0 1732.0,2576.0 1748.0,2592.0 C 1755.0,2599.0 1760.0,2626.0 1760.0,2652.0 C 1760.0,2700.0 1773.0,2716.0 1784.0,2682.0 C 1793.0,2655.0 1837.0,2617.0 1849.0,2625.0 C 1855.0,2628.0 1860.0,2639.0 1860.0,2648.0 C 1861.0,2663.0 1862.0,2663.0 1875.0,2647.0 C 1888.0,2629.0 1889.0,2629.0 1898.0,2647.0 C 1906.0,2661.0 1903.0,2677.0 1889.0,2710.0 C 1872.0,2748.0 1871.0,2755.0 1884.0,2768.0 C 1897.0,2781.0 1899.0,2778.0 1905.0,2746.0 C 1909.0,2726.0 1920.0,2700.0 1930.0,2687.0 C 1942.0,2672.0 1953.0,2625.0 1964.0,2542.0 C 1976.0,2444.0 1984.0,2413.0 2004.0,2387.0 C 2040.0,2339.0 2057.0,2300.0 2064.0,2248.0 C 2070.0,2211.0 2075.0,2200.0 2089.0,2200.0 C 2098.0,2200.0 2125.0,2184.0 2147.0,2165.0 C 2170.0,2146.0 2196.0,2130.0 2205.0,2130.0 C 2214.0,2130.0 2239.0,2117.0 2259.0,2101.0 C 2292.0,2075.0 2297.0,2073.0 2315.0,2086.0 C 2342.0,2106.0 2348.0,2104.0 2371.0,2065.0 C 2386.0,2041.0 2399.0,2030.0 2415.0,2030.0 C 2455.0,2030.0 2490.0,2048.0 2490.0,2069.0 C 2490.0,2082.0 2498.0,2090.0 2512.0,2092.0 C 2548.0,2097.0 2545.0,2129.0 2502.0,2213.0 C 2500.0,2217.0 2507.0,2220.0 2517.0,2220.0 C 2527.0,2220.0 2548.0,2202.0 2563.0,2180.0 C 2599.0,2129.0 2623.0,2115.0 2640.0,2135.0 C 2668.0,2169.0 2674.0,2149.0 2653.0,2093.0 C 2650.0,2085.0 2666.0,2079.0 2699.0,2074.0 C 2747.0,2068.0 2749.0,2066.0 2736.0,2051.0 C 2723.0,2037.0 2723.0,2032.0 2734.0,2019.0 C 2745.0,2008.0 2745.0,1999.0 2735.0,1977.0 L 2723.0,1948.0 L 2692.0,1975.0 L 2661.0,2001.0 L 2655.0,1973.0 C 2643.0,1919.0 2642.0,1918.0 2620.0,1932.0 C 2605.0,1941.0 2598.0,1942.0 2589.0,1933.0 C 2580.0,1924.0 2586.0,1911.0 2614.0,1879.0 C 2646.0,1842.0 2650.0,1830.0 2650.0,1783.0 C 2650.0,1737.0 2653.0,1730.0 2669.0,1730.0 C 2682.0,1730.0 2692.0,1719.0 2700.0,1695.0 C 2706.0,1676.0 2716.0,1660.0 2722.0,1660.0 C 2734.0,1660.0 2791.0,1600.0 2865.0,1510.0 C 2907.0,1458.0 2919.0,1435.0 2925.0,1395.0 C 2929.0,1368.0 2938.0,1333.0 2946.0,1318.0 C 2967.0,1277.0 2963.0,1237.0 2935.0,1210.0 C 2911.0,1188.0 2910.0,1181.0 2910.0,1076.0 C 2910.0,972.0 2908.0,959.0 2874.0,875.0 C 2841.0,792.0 2839.0,780.0 2845.0,713.0 C 2848.0,671.0 2847.0,632.0 2841.0,622.0 C 2816.0,575.0 2873.0,478.0 2933.0,466.0 C 2950.0,463.0 2972.0,452.0 2982.0,444.0 C 2996.0,430.0 3004.0,429.0 3028.0,439.0 C 3050.0,448.0 3064.0,448.0 3096.0,436.0 C 3131.0,424.0 3138.0,424.0 3155.0,437.0 C 3172.0,450.0 3250.0,452.0 3720.0,449.0 L 4265.0,445.0 L 4268.0,492.0 L 4271.0,539.0 L 4323.0,547.0 C 4353.0,553.0 4384.0,552.0 4396.0,547.0 C 4409.0,542.0 4441.0,543.0 4481.0,550.0 C 4551.0,563.0 4582.0,564.0 4650.0,555.0 C 4675.0,551.0 4713.0,553.0 4735.0,558.0 C 4761.0,564.0 4784.0,563.0 4799.0,557.0 C 4815.0,549.0 4827.0,550.0 4840.0,558.0 C 4867.0,575.0 5022.0,565.0 5036.0,545.0 C 5049.0,527.0 5073.0,526.0 5100.0,542.0 C 5115.0,552.0 5123.0,551.0 5140.0,535.0 C 5159.0,518.0 5163.0,518.0 5193.0,532.0 C 5221.0,546.0 5229.0,546.0 5245.0,534.0 C 5269.0,517.0 5294.0,517.0 5345.0,535.0 C 5381.0,548.0 5386.0,548.0 5397.0,534.0 C 5404.0,524.0 5416.0,520.0 5426.0,524.0 C 5435.0,528.0 5468.0,523.0 5498.0,515.0 C 5551.0,499.0 5553.0,499.0 5574.0,519.0 C 5601.0,544.0 5608.0,545.0 5631.0,524.0 C 5646.0,511.0 5652.0,510.0 5677.0,522.0 C 5694.0,530.0 5735.0,535.0 5780.0,533.0 C 5821.0,533.0 5867.0,536.0 5882.0,542.0 C 5903.0,550.0 5918.0,549.0 5944.0,536.0 C 5963.0,527.0 5987.0,520.0 5997.0,520.0 C 6010.0,520.0 6020.0,508.0 6028.0,486.0 L 6041.0,451.0 L 6550.0,448.0 L 7058.0,445.0 L 7085.0,420.0 C 7107.0,399.0 7113.0,398.0 7120.0,410.0 C 7125.0,418.0 7130.0,428.0 7130.0,432.0 C 7130.0,444.0 7162.0,457.0 7205.0,464.0 C 7241.0,470.0 7249.0,467.0 7287.0,435.0 C 7317.0,410.0 7338.0,400.0 7363.0,400.0 C 7382.0,400.0 7414.0,393.0 7433.0,385.0 C 7453.0,377.0 7481.0,370.0 7495.0,370.0 C 7515.0,370.0 7520.0,365.0 7520.0,347.0 C 7520.0,334.0 7531.0,313.0 7544.0,301.0 L 7568.0,279.0 L 7588.0,304.0 C 7605.0,326.0 7609.0,328.0 7620.0,315.0 C 7629.0,304.0 7637.0,303.0 7651.0,311.0 C 7665.0,318.0 7676.0,317.0 7691.0,307.0 C 7708.0,294.0 7718.0,294.0 7761.0,307.0 L 7811.0,322.0 L 7848.0,282.0 C 7896.0,231.0 7921.0,224.0 7977.0,245.0 C 8010.0,258.0 8037.0,261.0 8083.0,256.0 C 8117.0,253.0 8176.0,247.0 8213.0,244.0 C 8270.0,238.0 8284.0,233.0 8297.0,214.0 C 8307.0,199.0 8322.0,190.0 8339.0,190.0 C 8357.0,190.0 8379.0,177.0 8405.0,150.0 C 8434.0,121.0 8452.0,110.0 8475.0,110.0 C 8533.0,110.0 8549.0,100.0 8560.0,59.0 C 8574.0,9.0 8606.0,-10.0 8626.0,18.0 C 8634.0,30.0 8650.0,40.0 8663.0,42.0 C 8683.0,45.0 8685.0,50.0 8681.0,95.0 C 8677.0,154.0 8670.0,168.0 8623.0,221.0 C 8594.0,253.0 8589.0,265.0 8594.0,288.0 C 8598.0,303.0 8603.0,327.0 8605.0,341.0 C 8606.0,355.0 8613.0,377.0 8619.0,388.0 C 8625.0,399.0 8630.0,429.0 8630.0,455.0 C 8630.0,496.0 8632.0,500.0 8648.0,491.0 C 8658.0,485.0 8676.0,484.0 8688.0,487.0 L 8709.0,492.0 L 8689.0,541.0 C 8679.0,569.0 8670.0,605.0 8670.0,623.0 C 8670.0,641.0 8659.0,674.0 8645.0,698.0 C 8628.0,729.0 8622.0,749.0 8627.0,771.0 C 8630.0,790.0 8626.0,815.0 8615.0,840.0 C 8598.0,879.0 8598.0,881.0 8615.0,915.0 C 8633.0,947.0 8633.0,950.0 8617.0,968.0 C 8598.0,989.0 8594.0,1051.0 8611.0,1082.0 C 8627.0,1112.0 8561.0,1210.0 8524.0,1210.0 C 8498.0,1210.0 8463.0,1240.0 8427.0,1294.0 C 8416.0,1310.0 8402.0,1319.0 8394.0,1316.0 C 8386.0,1313.0 8374.0,1313.0 8366.0,1316.0 C 8358.0,1319.0 8289.0,1390.0 8213.0,1473.0 C 8137.0,1557.0 8038.0,1665.0 7992.0,1713.0 C 7854.0,1859.0 7710.0,2072.0 7710.0,2129.0 C 7710.0,2145.0 7738.0,2173.0 7766.0,2184.0 C 7767.0,2185.0 7771.0,2195.0 7774.0,2207.0 C 7780.0,2225.0 7776.0,2231.0 7757.0,2235.0 C 7723.0,2244.0 7700.0,2290.0 7700.0,2350.0 C 7700.0,2400.0 7698.0,2403.0 7631.0,2470.0 C 7593.0,2509.0 7556.0,2540.0 7548.0,2540.0 C 7541.0,2540.0 7498.0,2569.0 7454.0,2604.0 L 7373.0,2668.0 L 7352.0,2781.0 C 7320.0,2952.0 7319.0,2960.0 7313.0,3023.0 C 7309.0,3066.0 7312.0,3087.0 7325.0,3106.0 C 7340.0,3130.0 7340.0,3132.0 7317.0,3160.0 C 7303.0,3176.0 7290.0,3204.0 7286.0,3224.0 C 7280.0,3253.0 7274.0,3260.0 7247.0,3265.0 C 7203.0,3275.0 7170.0,3307.0 7170.0,3342.0 C 7170.0,3365.0 7176.0,3373.0 7200.0,3381.0 C 7227.0,3391.0 7230.0,3397.0 7230.0,3431.0 C 7230.0,3453.0 7237.0,3484.0 7245.0,3499.0 C 7257.0,3524.0 7257.0,3530.0 7245.0,3546.0 C 7225.0,3572.0 7227.0,3628.0 7249.0,3669.0 C 7266.0,3700.0 7266.0,3707.0 7253.0,3738.0 C 7242.0,3764.0 7241.0,3783.0 7249.0,3818.0 C 7261.0,3875.0 7251.0,3890.0 7203.0,3890.0 C 7158.0,3890.0 7134.0,3904.0 7115.0,3940.0 C 7090.0,3988.0 7096.0,4022.0 7136.0,4061.0 C 7156.0,4079.0 7178.0,4107.0 7186.0,4122.0 C 7198.0,4145.0 7207.0,4150.0 7236.0,4150.0 C 7277.0,4150.0 7343.0,4181.0 7376.0,4217.0 C 7394.0,4237.0 7400.0,4254.0 7400.0,4290.0 C 7400.0,4326.0 7405.0,4341.0 7424.0,4360.0 C 7438.0,4372.0 7452.0,4397.0 7455.0,4414.0 C 7459.0,4431.0 7473.0,4464.0 7486.0,4486.0 C 7499.0,4509.0 7519.0,4553.0 7530.0,4584.0 C 7549.0,4634.0 7554.0,4640.0 7580.0,4640.0 C 7623.0,4640.0 7666.0,4682.0 7674.0,4730.0 C 7682.0,4781.0 7763.0,4945.0 7784.0,4953.0 C 7796.0,4958.0 7797.0,4966.0 7789.0,4992.0 C 7775.0,5039.0 7787.0,5098.0 7813.0,5111.0 C 7856.0,5133.0 8020.0,5304.0 8020.0,5327.0 C 8020.0,5339.0 8029.0,5355.0 8040.0,5363.0 C 8052.0,5371.0 8074.0,5395.0 8090.0,5416.0 C 8115.0,5449.0 8119.0,5464.0 8120.0,5515.0 C 8120.0,5573.0 8118.0,5578.0 8079.0,5615.0 C 8033.0,5660.0 7940.0,5834.0 7940.0,5876.0 C 7940.0,5902.0 7827.0,6120.0 7744.0,6256.0 C 7720.0,6296.0 7697.0,6343.0 7694.0,6361.0 C 7682.0,6421.0 7674.0,6429.0 7618.0,6432.0 C 7566.0,6435.0 7566.0,6435.0 7555.0,6475.0 C 7550.0,6497.0 7535.0,6526.0 7523.0,6538.0 C 7510.0,6550.0 7500.0,6563.0 7500.0,6568.0 C 7500.0,6572.0 7467.0,6574.0 7427.0,6572.0 L 7354.0,6568.0 L 7288.0,6638.0 C 7252.0,6677.0 7219.0,6717.0 7216.0,6728.0 C 7212.0,6739.0 7170.0,6778.0 7122.0,6814.0 C 6996.0,6909.0 6990.0,6915.0 6990.0,6946.0 C 6990.0,6968.0 6962.0,7002.0 6848.0,7117.0 C 6732.0,7234.0 6701.0,7260.0 6678.0,7260.0 C 6615.0,7260.0 6629.0,7315.0 6717.0,7415.0 C 6764.0,7468.0 6793.0,7512.0 6811.0,7558.0 L 6838.0,7625.0 L 6926.0,7628.0 C 7044.0,7632.0 7220.0,7614.0 7297.0,7589.0 C 7351.0,7571.0 7365.0,7570.0 7397.0,7581.0 C 7422.0,7589.0 7466.0,7591.0 7533.0,7587.0 C 7627.0,7581.0 7635.0,7582.0 7676.0,7606.0 C 7717.0,7630.0 7720.0,7631.0 7750.0,7615.0 C 7773.0,7603.0 7795.0,7600.0 7829.0,7605.0 C 7860.0,7609.0 7887.0,7606.0 7911.0,7596.0 C 7941.0,7583.0 7963.0,7583.0 8046.0,7592.0 C 8179.0,7606.0 8196.0,7621.0 8140.0,7675.0 C 8123.0,7691.0 8079.0,7720.0 8043.0,7740.0 C 7992.0,7767.0 7974.0,7782.0 7966.0,7806.0 C 7950.0,7850.0 7891.0,7918.0 7849.0,7940.0 C 7820.0,7955.0 7811.0,7967.0 7805.0,7996.0 C 7802.0,8017.0 7781.0,8054.0 7760.0,8079.0 C 7734.0,8110.0 7720.0,8139.0 7715.0,8170.0 C 7711.0,8195.0 7694.0,8251.0 7677.0,8295.0 C 7648.0,8372.0 7647.0,8381.0 7646.0,8540.0 C 7645.0,8650.0 7640.0,8712.0 7632.0,8727.0 C 7625.0,8739.0 7620.0,8785.0 7620.0,8834.0 C 7620.0,8912.0 7623.0,8924.0 7650.0,8968.0 C 7685.0,9026.0 7687.0,9044.0 7660.0,9088.0 C 7644.0,9114.0 7640.0,9138.0 7640.0,9204.0 C 7640.0,9274.0 7637.0,9290.0 7620.0,9305.0 C 7602.0,9321.0 7600.0,9331.0 7606.0,9400.0 C 7612.0,9466.0 7610.0,9481.0 7591.0,9518.0 C 7577.0,9546.0 7558.0,9565.0 7536.0,9574.0 C 7490.0,9593.0 7480.0,9616.0 7480.0,9698.0 C 7480.0,9774.0 7471.0,9811.0 7434.0,9881.0 C 7421.0,9907.0 7410.0,9940.0 7410.0,9955.0 C 7410.0,9997.0 7352.0,10069.0 7318.0,10070.0 C 7296.0,10070.0 7291.0,10075.0 7288.0,10098.0 C 7286.0,10120.0 7280.0,10126.0 7253.0,10128.0 C 7232.0,10130.0 7219.0,10138.0 7215.0,10151.0 C 7211.0,10163.0 7200.0,10170.0 7185.0,10170.0 C 7167.0,10170.0 7155.0,10180.0 7142.0,10207.0 L 7123.0,10243.0 L 7100.0,10202.0" fill="pink"/>
	<path d="M 1742.0,1867.0 C 1724.0,1833.0 1706.0,1786.0 1703.0,1763.0 C 1700.0,1739.0 1691.0,1715.0 1684.0,1709.0 C 1676.0,1703.0 1670.0,1690.0 1670.0,1680.0 C 1670.0,1667.0 1659.0,1660.0 1633.0,1655.0 C 1611.0,1651.0 1581.0,1635.0 1563.0,1617.0 C 1523.0,1580.0 1519.0,1526.0 1550.0,1475.0 C 1571.0,1440.0 1564.0,1442.0 1730.0,1424.0 L 1785.0,1418.0 L 1806.0,1461.0 C 1818.0,1485.0 1851.0,1545.0 1879.0,1594.0 C 1907.0,1643.0 1930.0,1693.0 1930.0,1706.0 C 1930.0,1719.0 1946.0,1747.0 1965.0,1769.0 C 1993.0,1800.0 2000.0,1816.0 2000.0,1848.0 C 2000.0,1903.0 1967.0,1928.0 1919.0,1911.0 C 1875.0,1896.0 1844.0,1897.0 1826.0,1915.0 C 1797.0,1944.0 1776.0,1932.0 1742.0,1867.0" fill="pink"/>
</svg>
