<?xml version="1.0" ?>
<svg xmlns="http://www.w3.org/2000/svg" xmlns:ev="http://www.w3.org/2001/xml-events" xmlns:xlink="http://www.w3.org/1999/xlink" baseProfile="full" height="504px" version="1.1" viewBox="-1027.1481501320459 -33.70294660586626 12292.601276702359 10313.258834388203" width="600px">
	<defs/>
	<path d="M 8135.0,9396.0 C 8108.0,9383.0 8069.0,9369.0 8050.0,9365.0 C 8031.0,9361.0 7985.0,9340.0 7948.0,9319.0 C 7912.0,9297.0 7870.0,9280.0 7857.0,9280.0 C 7838.0,9280.0 7820.0,9264.0 7782.0,9213.0 C 7755.0,9175.0 7730.0,9137.0 7727.0,9128.0 C 7720.0,9108.0 7742.0,9098.0 7775.0,9106.0 C 7819.0,9117.0 7837.0,9096.0 7848.0,9023.0 C 7855.0,8973.0 7855.0,8952.0 7847.0,8945.0 C 7799.0,8903.0 7770.0,8857.0 7770.0,8820.0 C 7770.0,8799.0 7766.0,8778.0 7760.0,8775.0 C 7755.0,8772.0 7750.0,8754.0 7750.0,8735.0 C 7750.0,8716.0 7746.0,8698.0 7740.0,8695.0 C 7735.0,8692.0 7730.0,8677.0 7730.0,8662.0 C 7730.0,8647.0 7719.0,8613.0 7706.0,8585.0 C 7682.0,8536.0 7682.0,8535.0 7701.0,8532.0 C 7753.0,8523.0 7731.0,8460.0 7671.0,8442.0 C 7648.0,8435.0 7630.0,8425.0 7630.0,8421.0 C 7630.0,8416.0 7609.0,8387.0 7583.0,8356.0 C 7550.0,8316.0 7532.0,8301.0 7521.0,8306.0 C 7512.0,8309.0 7478.0,8316.0 7445.0,8320.0 C 7412.0,8325.0 7376.0,8332.0 7364.0,8335.0 C 7345.0,8341.0 7341.0,8331.0 7309.0,8228.0 C 7290.0,8166.0 7276.0,8107.0 7278.0,8096.0 C 7279.0,8086.0 7271.0,8062.0 7259.0,8044.0 C 7246.0,8022.0 7241.0,8003.0 7245.0,7989.0 C 7250.0,7975.0 7245.0,7961.0 7230.0,7945.0 C 7199.0,7912.0 7210.0,7869.0 7255.0,7844.0 C 7289.0,7826.0 7290.0,7826.0 7312.0,7847.0 C 7325.0,7858.0 7355.0,7872.0 7379.0,7878.0 C 7416.0,7887.0 7427.0,7886.0 7454.0,7869.0 C 7471.0,7859.0 7497.0,7850.0 7512.0,7850.0 C 7534.0,7850.0 7541.0,7857.0 7552.0,7893.0 C 7565.0,7932.0 7570.0,7936.0 7613.0,7944.0 C 7654.0,7952.0 7666.0,7950.0 7713.0,7927.0 C 7742.0,7912.0 7773.0,7900.0 7783.0,7900.0 C 7792.0,7900.0 7800.0,7893.0 7800.0,7885.0 C 7800.0,7877.0 7821.0,7859.0 7846.0,7844.0 C 7926.0,7797.0 7975.0,7703.0 7936.0,7671.0 C 7929.0,7665.0 7872.0,7658.0 7809.0,7655.0 C 7706.0,7650.0 7694.0,7648.0 7670.0,7625.0 C 7653.0,7609.0 7632.0,7600.0 7611.0,7600.0 C 7584.0,7600.0 7577.0,7595.0 7569.0,7570.0 C 7559.0,7544.0 7553.0,7540.0 7522.0,7540.0 C 7501.0,7540.0 7475.0,7532.0 7464.0,7522.0 C 7434.0,7499.0 7400.0,7427.0 7400.0,7390.0 C 7400.0,7370.0 7394.0,7357.0 7383.0,7353.0 C 7373.0,7350.0 7352.0,7335.0 7335.0,7320.0 C 7301.0,7289.0 7223.0,7260.0 7173.0,7260.0 C 7145.0,7260.0 7140.0,7256.0 7140.0,7236.0 C 7140.0,7212.0 7058.0,7126.0 7011.0,7101.0 C 6978.0,7083.0 6858.0,7096.0 6826.0,7121.0 C 6810.0,7133.0 6786.0,7140.0 6755.0,7140.0 L 6709.0,7140.0 L 6668.0,7055.0 L 6628.0,6970.0 L 6668.0,6923.0 C 6690.0,6896.0 6717.0,6867.0 6728.0,6857.0 C 6739.0,6847.0 6746.0,6831.0 6743.0,6822.0 C 6738.0,6804.0 6675.0,6753.0 6624.0,6727.0 C 6607.0,6718.0 6581.0,6692.0 6565.0,6668.0 C 6504.0,6575.0 6469.0,6540.0 6438.0,6540.0 C 6422.0,6540.0 6392.0,6529.0 6372.0,6515.0 C 6347.0,6498.0 6322.0,6490.0 6293.0,6490.0 C 6270.0,6490.0 6248.0,6485.0 6245.0,6479.0 C 6241.0,6473.0 6212.0,6470.0 6177.0,6471.0 C 6143.0,6473.0 6098.0,6468.0 6078.0,6461.0 C 6053.0,6453.0 6035.0,6452.0 6023.0,6458.0 C 6010.0,6466.0 5999.0,6463.0 5981.0,6449.0 C 5968.0,6439.0 5944.0,6430.0 5928.0,6430.0 C 5882.0,6430.0 5755.0,6370.0 5651.0,6300.0 L 5557.0,6238.0 L 5524.0,6254.0 C 5499.0,6266.0 5490.0,6276.0 5490.0,6295.0 C 5490.0,6320.0 5490.0,6320.0 5454.0,6305.0 C 5400.0,6283.0 5361.0,6286.0 5263.0,6324.0 C 5215.0,6342.0 5157.0,6361.0 5135.0,6364.0 C 5088.0,6372.0 5073.0,6383.0 5041.0,6428.0 C 5022.0,6455.0 5013.0,6460.0 4976.0,6460.0 C 4953.0,6460.0 4885.0,6469.0 4825.0,6480.0 C 4752.0,6493.0 4713.0,6497.0 4706.0,6490.0 C 4690.0,6474.0 4594.0,6478.0 4439.0,6501.0 C 4331.0,6517.0 4291.0,6519.0 4273.0,6511.0 C 4255.0,6503.0 4242.0,6503.0 4220.0,6515.0 C 4204.0,6523.0 4168.0,6530.0 4140.0,6530.0 C 4094.0,6530.0 4090.0,6532.0 4090.0,6553.0 C 4090.0,6566.0 4075.0,6590.0 4056.0,6609.0 C 4029.0,6635.0 4017.0,6662.0 3995.0,6738.0 C 3978.0,6795.0 3959.0,6841.0 3948.0,6849.0 C 3938.0,6856.0 3930.0,6875.0 3930.0,6891.0 C 3930.0,6917.0 3927.0,6920.0 3898.0,6920.0 C 3873.0,6920.0 3849.0,6933.0 3805.0,6970.0 C 3772.0,6998.0 3736.0,7023.0 3725.0,7026.0 C 3714.0,7029.0 3685.0,7051.0 3660.0,7075.0 C 3617.0,7116.0 3612.0,7118.0 3535.0,7124.0 C 3485.0,7128.0 3408.0,7145.0 3328.0,7170.0 L 3201.0,7210.0 L 3190.0,7248.0 C 3176.0,7300.0 3176.0,7302.0 3210.0,7340.0 C 3235.0,7370.0 3239.0,7384.0 3240.0,7431.0 C 3240.0,7470.0 3245.0,7492.0 3256.0,7501.0 C 3278.0,7519.0 3267.0,7594.0 3236.0,7635.0 C 3223.0,7652.0 3209.0,7688.0 3205.0,7716.0 C 3195.0,7778.0 3145.0,7853.0 3118.0,7844.0 C 3105.0,7840.0 3097.0,7846.0 3088.0,7865.0 C 3079.0,7885.0 3072.0,7890.0 3056.0,7885.0 C 3044.0,7881.0 3018.0,7876.0 2998.0,7873.0 C 2967.0,7869.0 2960.0,7871.0 2960.0,7885.0 C 2960.0,7895.0 2952.0,7924.0 2943.0,7950.0 C 2929.0,7990.0 2919.0,8002.0 2884.0,8018.0 C 2850.0,8035.0 2843.0,8043.0 2847.0,8059.0 C 2850.0,8071.0 2845.0,8092.0 2835.0,8106.0 C 2821.0,8128.0 2820.0,8136.0 2830.0,8155.0 C 2848.0,8189.0 2837.0,8197.0 2778.0,8194.0 C 2749.0,8193.0 2710.0,8191.0 2693.0,8191.0 C 2663.0,8190.0 2660.0,8187.0 2660.0,8157.0 C 2660.0,8105.0 2620.0,8074.0 2542.0,8065.0 C 2482.0,8058.0 2479.0,8057.0 2455.0,8016.0 C 2433.0,7979.0 2430.0,7961.0 2430.0,7883.0 C 2430.0,7782.0 2426.0,7775.0 2352.0,7747.0 C 2296.0,7725.0 2285.0,7726.0 2256.0,7755.0 C 2237.0,7774.0 2220.0,7780.0 2187.0,7780.0 C 2157.0,7780.0 2131.0,7788.0 2098.0,7809.0 C 2006.0,7867.0 2020.0,7873.0 1946.0,7745.0 C 1910.0,7682.0 1880.0,7623.0 1880.0,7614.0 C 1880.0,7605.0 1864.0,7576.0 1845.0,7551.0 L 1811.0,7504.0 L 1832.0,7482.0 C 1851.0,7464.0 1852.0,7458.0 1840.0,7431.0 C 1828.0,7402.0 1810.0,7389.0 1810.0,7410.0 C 1810.0,7415.0 1792.0,7424.0 1770.0,7430.0 C 1749.0,7436.0 1727.0,7447.0 1722.0,7456.0 C 1715.0,7469.0 1695.0,7470.0 1568.0,7462.0 C 1488.0,7456.0 1413.0,7447.0 1402.0,7441.0 C 1373.0,7426.0 1385.0,7400.0 1420.0,7400.0 C 1435.0,7400.0 1453.0,7393.0 1461.0,7384.0 C 1471.0,7371.0 1470.0,7363.0 1455.0,7337.0 C 1439.0,7311.0 1436.0,7287.0 1438.0,7205.0 C 1439.0,7150.0 1442.0,7079.0 1446.0,7048.0 L 1452.0,6990.0 L 1421.0,6990.0 C 1395.0,6990.0 1390.0,6986.0 1390.0,6965.0 C 1390.0,6947.0 1385.0,6940.0 1372.0,6940.0 C 1344.0,6940.0 1320.0,6908.0 1314.0,6864.0 C 1304.0,6794.0 1290.0,6770.0 1261.0,6770.0 C 1246.0,6770.0 1230.0,6766.0 1224.0,6760.0 C 1219.0,6755.0 1159.0,6739.0 1090.0,6725.0 C 974.0,6701.0 963.0,6697.0 935.0,6664.0 L 905.0,6630.0 L 827.0,6640.0 C 784.0,6646.0 731.0,6657.0 710.0,6665.0 L 670.0,6679.0 L 618.0,6620.0 L 566.0,6560.0 L 498.0,6560.0 L 431.0,6560.0 L 424.0,6595.0 C 417.0,6636.0 405.0,6646.0 385.0,6630.0 C 376.0,6623.0 356.0,6621.0 333.0,6625.0 C 304.0,6629.0 281.0,6625.0 237.0,6605.0 C 205.0,6591.0 169.0,6580.0 157.0,6580.0 C 122.0,6579.0 86.0,6546.0 85.0,6513.0 C 85.0,6491.0 78.0,6482.0 52.0,6470.0 C 15.0,6453.0 4.0,6426.0 20.0,6386.0 C 28.0,6363.0 27.0,6355.0 14.0,6346.0 C 4.0,6338.0 0.0,6323.0 2.0,6300.0 C 5.0,6267.0 8.0,6265.0 48.0,6259.0 C 80.0,6255.0 101.0,6244.0 128.0,6217.0 C 164.0,6181.0 164.0,6180.0 152.0,6135.0 C 145.0,6110.0 140.0,6054.0 140.0,6010.0 L 140.0,5930.0 L 113.0,5928.0 C 97.0,5928.0 73.0,5928.0 57.0,5929.0 C 39.0,5931.0 28.0,5925.0 23.0,5914.0 C 14.0,5890.0 81.0,5830.0 118.0,5830.0 C 152.0,5830.0 170.0,5814.0 170.0,5783.0 C 170.0,5767.0 174.0,5762.0 186.0,5767.0 C 194.0,5770.0 211.0,5763.0 226.0,5750.0 C 255.0,5722.0 259.0,5657.0 233.0,5628.0 C 220.0,5613.0 219.0,5605.0 228.0,5584.0 C 235.0,5571.0 240.0,5550.0 240.0,5539.0 C 240.0,5522.0 245.0,5521.0 278.0,5526.0 C 314.0,5532.0 316.0,5530.0 328.0,5497.0 C 345.0,5450.0 469.0,5370.0 524.0,5370.0 C 556.0,5370.0 560.0,5367.0 558.0,5348.0 C 557.0,5335.0 559.0,5288.0 564.0,5242.0 C 572.0,5161.0 573.0,5158.0 609.0,5136.0 C 629.0,5123.0 653.0,5098.0 663.0,5081.0 C 681.0,5051.0 681.0,5050.0 663.0,5050.0 C 628.0,5050.0 602.0,4998.0 632.0,4988.0 C 640.0,4985.0 639.0,4977.0 627.0,4960.0 C 594.0,4913.0 617.0,4826.0 665.0,4814.0 C 680.0,4810.0 687.0,4803.0 683.0,4794.0 C 680.0,4786.0 683.0,4759.0 689.0,4735.0 C 703.0,4678.0 690.0,4654.0 641.0,4647.0 C 621.0,4644.0 595.0,4638.0 584.0,4635.0 C 566.0,4629.0 562.0,4633.0 556.0,4664.0 C 550.0,4697.0 546.0,4700.0 515.0,4700.0 C 480.0,4700.0 480.0,4700.0 480.0,4654.0 C 480.0,4624.0 488.0,4595.0 501.0,4573.0 C 521.0,4542.0 521.0,4537.0 507.0,4523.0 C 495.0,4511.0 494.0,4501.0 502.0,4480.0 C 509.0,4458.0 507.0,4444.0 495.0,4420.0 C 479.0,4388.0 479.0,4388.0 502.0,4395.0 C 515.0,4399.0 529.0,4406.0 534.0,4411.0 C 547.0,4423.0 569.0,4390.0 570.0,4359.0 C 570.0,4325.0 606.0,4280.0 631.0,4280.0 C 662.0,4280.0 732.0,4219.0 727.0,4198.0 C 723.0,4186.0 732.0,4173.0 753.0,4158.0 C 814.0,4117.0 870.0,4056.0 870.0,4033.0 C 870.0,4000.0 898.0,3992.0 916.0,4019.0 C 929.0,4037.0 979.0,4070.0 995.0,4070.0 C 998.0,4070.0 1000.0,4064.0 1000.0,4056.0 C 1000.0,4040.0 1061.0,3987.0 1129.0,3945.0 C 1153.0,3930.0 1184.0,3905.0 1197.0,3889.0 C 1211.0,3873.0 1227.0,3860.0 1233.0,3860.0 C 1251.0,3860.0 1300.0,3773.0 1300.0,3742.0 C 1300.0,3725.0 1308.0,3710.0 1321.0,3701.0 C 1341.0,3689.0 1345.0,3691.0 1365.0,3715.0 C 1383.0,3739.0 1389.0,3741.0 1408.0,3731.0 C 1433.0,3718.0 1434.0,3709.0 1421.0,3662.0 C 1411.0,3630.0 1413.0,3628.0 1478.0,3577.0 C 1514.0,3548.0 1547.0,3526.0 1550.0,3526.0 C 1553.0,3527.0 1565.0,3531.0 1578.0,3535.0 C 1598.0,3541.0 1600.0,3538.0 1600.0,3502.0 C 1600.0,3459.0 1610.0,3450.0 1659.0,3450.0 C 1681.0,3450.0 1694.0,3440.0 1716.0,3408.0 C 1731.0,3384.0 1746.0,3363.0 1748.0,3360.0 C 1749.0,3358.0 1760.0,3361.0 1771.0,3368.0 C 1789.0,3379.0 1792.0,3379.0 1797.0,3361.0 C 1803.0,3336.0 1842.0,3325.0 1853.0,3345.0 C 1867.0,3371.0 1896.0,3361.0 1957.0,3313.0 L 2015.0,3265.0 L 2100.0,3266.0 C 2154.0,3266.0 2204.0,3273.0 2238.0,3284.0 C 2267.0,3294.0 2297.0,3299.0 2305.0,3296.0 C 2322.0,3290.0 2326.0,3215.0 2311.0,3191.0 C 2300.0,3173.0 2318.0,3130.0 2337.0,3130.0 C 2351.0,3130.0 2430.0,3205.0 2430.0,3219.0 C 2430.0,3230.0 2516.0,3285.0 2548.0,3295.0 C 2587.0,3306.0 2640.0,3292.0 2640.0,3270.0 C 2640.0,3260.0 2648.0,3249.0 2658.0,3246.0 C 2703.0,3234.0 2788.0,3220.0 2811.0,3222.0 C 2855.0,3226.0 2900.0,3200.0 2907.0,3169.0 C 2913.0,3137.0 2920.0,3135.0 3025.0,3139.0 C 3088.0,3142.0 3115.0,3157.0 3131.0,3198.0 C 3136.0,3210.0 3147.0,3220.0 3156.0,3220.0 C 3181.0,3220.0 3240.0,3268.0 3251.0,3297.0 C 3259.0,3317.0 3265.0,3321.0 3285.0,3316.0 C 3320.0,3307.0 3369.0,3330.0 3451.0,3395.0 C 3529.0,3455.0 3550.0,3461.0 3565.0,3428.0 C 3573.0,3410.0 3588.0,3403.0 3643.0,3394.0 C 3708.0,3384.0 3711.0,3384.0 3728.0,3405.0 C 3737.0,3418.0 3766.0,3434.0 3792.0,3443.0 C 3836.0,3457.0 3839.0,3457.0 3856.0,3439.0 C 3872.0,3421.0 3872.0,3418.0 3855.0,3385.0 C 3832.0,3343.0 3840.0,3332.0 3883.0,3348.0 C 3912.0,3359.0 3917.0,3358.0 3933.0,3339.0 C 3950.0,3317.0 3950.0,3316.0 3920.0,3285.0 C 3904.0,3268.0 3890.0,3246.0 3890.0,3237.0 C 3890.0,3218.0 3895.0,3217.0 3925.0,3229.0 C 3939.0,3235.0 3953.0,3231.0 3973.0,3214.0 C 3989.0,3201.0 4014.0,3190.0 4029.0,3190.0 C 4044.0,3190.0 4061.0,3185.0 4068.0,3178.0 C 4077.0,3169.0 4084.0,3173.0 4100.0,3192.0 C 4123.0,3222.0 4148.0,3220.0 4197.0,3183.0 C 4220.0,3167.0 4231.0,3148.0 4235.0,3122.0 C 4239.0,3102.0 4249.0,3063.0 4257.0,3036.0 C 4270.0,2994.0 4274.0,2990.0 4287.0,3002.0 C 4295.0,3010.0 4311.0,3015.0 4323.0,3013.0 C 4342.0,3009.0 4345.0,3001.0 4347.0,2957.0 C 4354.0,2807.0 4349.0,2745.0 4328.0,2704.0 C 4307.0,2664.0 4307.0,2661.0 4323.0,2636.0 C 4346.0,2602.0 4345.0,2600.0 4311.0,2600.0 C 4286.0,2600.0 4280.0,2595.0 4275.0,2570.0 C 4270.0,2547.0 4263.0,2540.0 4246.0,2540.0 C 4229.0,2540.0 4221.0,2532.0 4214.0,2508.0 C 4208.0,2488.0 4197.0,2474.0 4185.0,2472.0 C 4150.0,2465.0 4128.0,2438.0 4134.0,2409.0 C 4138.0,2388.0 4134.0,2380.0 4114.0,2371.0 C 4090.0,2360.0 4088.0,2356.0 4094.0,2307.0 C 4104.0,2230.0 4104.0,2198.0 4095.0,2173.0 C 4086.0,2144.0 4102.0,2143.0 4138.0,2169.0 C 4172.0,2193.0 4236.0,2203.0 4293.0,2195.0 C 4331.0,2189.0 4337.0,2185.0 4333.0,2169.0 C 4330.0,2158.0 4334.0,2136.0 4341.0,2118.0 C 4348.0,2101.0 4353.0,2074.0 4352.0,2059.0 C 4351.0,2044.0 4354.0,2029.0 4360.0,2025.0 C 4365.0,2022.0 4370.0,2009.0 4370.0,1996.0 C 4370.0,1962.0 4389.0,1950.0 4442.0,1950.0 C 4485.0,1950.0 4490.0,1948.0 4490.0,1928.0 C 4490.0,1915.0 4481.0,1894.0 4470.0,1880.0 C 4459.0,1866.0 4450.0,1842.0 4450.0,1827.0 C 4450.0,1811.0 4439.0,1784.0 4424.0,1765.0 C 4410.0,1747.0 4403.0,1730.0 4407.0,1727.0 C 4426.0,1716.0 4526.0,1690.0 4551.0,1690.0 C 4577.0,1690.0 4578.0,1688.0 4573.0,1655.0 C 4568.0,1625.0 4571.0,1619.0 4594.0,1609.0 C 4611.0,1601.0 4620.0,1589.0 4620.0,1574.0 C 4620.0,1553.0 4622.0,1552.0 4644.0,1561.0 C 4660.0,1569.0 4677.0,1569.0 4697.0,1563.0 C 4721.0,1554.0 4730.0,1557.0 4758.0,1581.0 C 4799.0,1617.0 4830.0,1619.0 4830.0,1586.0 C 4830.0,1573.0 4837.0,1557.0 4845.0,1550.0 C 4853.0,1543.0 4860.0,1527.0 4860.0,1514.0 C 4860.0,1492.0 4864.0,1490.0 4903.0,1492.0 C 4926.0,1493.0 4956.0,1491.0 4969.0,1486.0 L 4992.0,1478.0 L 4989.0,1563.0 C 4986.0,1626.0 4981.0,1653.0 4967.0,1667.0 C 4947.0,1690.0 4945.0,1748.0 4964.0,1773.0 C 4975.0,1787.0 4979.0,1788.0 4989.0,1777.0 C 5008.0,1753.0 5066.0,1763.0 5100.0,1795.0 C 5116.0,1811.0 5130.0,1830.0 5130.0,1837.0 C 5130.0,1862.0 5171.0,1847.0 5224.0,1803.0 L 5253.0,1779.0 L 5291.0,1816.0 C 5328.0,1852.0 5331.0,1853.0 5343.0,1836.0 C 5356.0,1818.0 5358.0,1818.0 5373.0,1840.0 L 5389.0,1863.0 L 5424.0,1837.0 C 5466.0,1805.0 5480.0,1803.0 5480.0,1830.0 C 5480.0,1857.0 5505.0,1866.0 5534.0,1850.0 C 5553.0,1840.0 5563.0,1841.0 5586.0,1854.0 C 5634.0,1880.0 5650.0,1896.0 5650.0,1918.0 C 5650.0,1932.0 5667.0,1948.0 5702.0,1970.0 L 5754.0,2002.0 L 5779.0,1971.0 C 5794.0,1953.0 5814.0,1940.0 5827.0,1940.0 C 5840.0,1940.0 5851.0,1932.0 5855.0,1920.0 C 5862.0,1898.0 5876.0,1895.0 5914.0,1910.0 C 5931.0,1916.0 5941.0,1916.0 5946.0,1909.0 C 5949.0,1903.0 5966.0,1900.0 5984.0,1901.0 C 6051.0,1905.0 6060.0,1902.0 6060.0,1872.0 C 6060.0,1856.0 6051.0,1835.0 6040.0,1825.0 C 6015.0,1802.0 6015.0,1788.0 6039.0,1766.0 C 6050.0,1756.0 6060.0,1736.0 6062.0,1722.0 C 6064.0,1704.0 6072.0,1694.0 6085.0,1692.0 C 6096.0,1690.0 6114.0,1678.0 6125.0,1666.0 C 6158.0,1627.0 6228.0,1602.0 6273.0,1613.0 C 6302.0,1620.0 6315.0,1619.0 6328.0,1607.0 C 6346.0,1592.0 6420.0,1594.0 6420.0,1610.0 C 6420.0,1615.0 6430.0,1620.0 6442.0,1622.0 C 6456.0,1624.0 6466.0,1634.0 6470.0,1648.0 L 6475.0,1672.0 L 6499.0,1646.0 C 6516.0,1628.0 6534.0,1620.0 6556.0,1620.0 C 6574.0,1620.0 6590.0,1615.0 6592.0,1609.0 C 6599.0,1589.0 6690.0,1607.0 6690.0,1628.0 C 6690.0,1641.0 6693.0,1640.0 6706.0,1622.0 C 6714.0,1610.0 6732.0,1600.0 6746.0,1600.0 C 6774.0,1600.0 6775.0,1593.0 6755.0,1566.0 C 6739.0,1545.0 6734.0,1450.0 6749.0,1450.0 C 6754.0,1450.0 6761.0,1434.0 6764.0,1414.0 C 6768.0,1395.0 6778.0,1376.0 6786.0,1373.0 C 6793.0,1370.0 6800.0,1359.0 6800.0,1349.0 C 6800.0,1333.0 6808.0,1330.0 6855.0,1330.0 C 6905.0,1330.0 6911.0,1332.0 6925.0,1360.0 C 6940.0,1388.0 6939.0,1390.0 6915.0,1406.0 C 6900.0,1416.0 6890.0,1432.0 6890.0,1445.0 C 6890.0,1460.0 6882.0,1471.0 6870.0,1475.0 C 6859.0,1478.0 6850.0,1488.0 6850.0,1495.0 C 6850.0,1504.0 6856.0,1507.0 6865.0,1504.0 C 6898.0,1491.0 6929.0,1509.0 6941.0,1549.0 C 6953.0,1591.0 6985.0,1610.0 7097.0,1645.0 C 7126.0,1654.0 7166.0,1673.0 7187.0,1687.0 C 7211.0,1704.0 7240.0,1714.0 7265.0,1715.0 C 7302.0,1716.0 7330.0,1724.0 7385.0,1750.0 C 7396.0,1755.0 7414.0,1760.0 7424.0,1762.0 C 7435.0,1764.0 7448.0,1778.0 7454.0,1796.0 C 7461.0,1814.0 7470.0,1825.0 7478.0,1822.0 C 7485.0,1820.0 7499.0,1824.0 7508.0,1832.0 C 7517.0,1840.0 7533.0,1850.0 7543.0,1853.0 C 7557.0,1858.0 7559.0,1867.0 7554.0,1902.0 C 7551.0,1926.0 7541.0,1962.0 7533.0,1983.0 C 7521.0,2010.0 7520.0,2024.0 7527.0,2031.0 C 7535.0,2039.0 7542.0,2035.0 7551.0,2019.0 C 7577.0,1969.0 7615.0,1930.0 7638.0,1930.0 C 7650.0,1930.0 7677.0,1937.0 7697.0,1945.0 C 7717.0,1954.0 7741.0,1958.0 7751.0,1955.0 C 7765.0,1950.0 7769.0,1956.0 7772.0,1977.0 C 7775.0,2007.0 7810.0,2024.0 7810.0,1995.0 C 7810.0,1962.0 7839.0,1969.0 7876.0,2010.0 C 7914.0,2052.0 7915.0,2052.0 7928.0,2031.0 C 7946.0,2004.0 7976.0,2004.0 7983.0,2031.0 C 7987.0,2045.0 7995.0,2050.0 8007.0,2048.0 C 8017.0,2045.0 8048.0,2055.0 8075.0,2069.0 C 8103.0,2083.0 8139.0,2097.0 8155.0,2100.0 C 8179.0,2104.0 8186.0,2111.0 8188.0,2133.0 C 8190.0,2148.0 8200.0,2165.0 8211.0,2170.0 C 8222.0,2176.0 8235.0,2200.0 8241.0,2225.0 C 8248.0,2254.0 8258.0,2270.0 8268.0,2270.0 C 8276.0,2270.0 8300.0,2288.0 8321.0,2310.0 C 8342.0,2332.0 8363.0,2350.0 8369.0,2350.0 C 8381.0,2350.0 8430.0,2406.0 8459.0,2453.0 C 8473.0,2476.0 8479.0,2497.0 8475.0,2510.0 C 8471.0,2524.0 8473.0,2530.0 8483.0,2530.0 C 8491.0,2530.0 8505.0,2539.0 8515.0,2550.0 C 8525.0,2561.0 8544.0,2570.0 8557.0,2570.0 C 8579.0,2570.0 8580.0,2573.0 8574.0,2605.0 C 8568.0,2639.0 8569.0,2640.0 8599.0,2640.0 C 8627.0,2640.0 8630.0,2643.0 8630.0,2670.0 C 8630.0,2690.0 8635.0,2700.0 8645.0,2700.0 C 8662.0,2700.0 8679.0,2729.0 8677.0,2755.0 C 8675.0,2772.0 8680.0,2775.0 8713.0,2772.0 C 8744.0,2770.0 8750.0,2772.0 8750.0,2788.0 C 8750.0,2799.0 8743.0,2810.0 8735.0,2814.0 C 8727.0,2817.0 8720.0,2826.0 8720.0,2833.0 C 8720.0,2841.0 8727.0,2853.0 8735.0,2860.0 C 8753.0,2875.0 8755.0,2913.0 8738.0,2939.0 C 8729.0,2954.0 8731.0,2963.0 8750.0,2991.0 C 8765.0,3012.0 8770.0,3025.0 8762.0,3028.0 C 8756.0,3030.0 8739.0,3040.0 8725.0,3051.0 C 8682.0,3085.0 8710.0,3098.0 8774.0,3074.0 C 8786.0,3069.0 8790.0,3074.0 8790.0,3092.0 C 8790.0,3106.0 8799.0,3125.0 8810.0,3135.0 C 8821.0,3145.0 8830.0,3163.0 8830.0,3175.0 C 8830.0,3187.0 8838.0,3205.0 8849.0,3214.0 C 8859.0,3223.0 8871.0,3250.0 8874.0,3273.0 C 8880.0,3309.0 8937.0,3487.0 8947.0,3499.0 C 8949.0,3502.0 8956.0,3498.0 8962.0,3492.0 C 8979.0,3475.0 8988.0,3477.0 8995.0,3500.0 C 8998.0,3511.0 9012.0,3523.0 9025.0,3526.0 L 9048.0,3532.0 L 9028.0,3566.0 C 9013.0,3592.0 9010.0,3607.0 9016.0,3623.0 C 9030.0,3656.0 9022.0,3698.0 8999.0,3705.0 C 8961.0,3717.0 8977.0,3740.0 9024.0,3740.0 L 9068.0,3740.0 L 9055.0,3788.0 C 9048.0,3814.0 9039.0,3842.0 9036.0,3851.0 C 9032.0,3860.0 9036.0,3872.0 9045.0,3880.0 C 9065.0,3896.0 9049.0,3910.0 9009.0,3910.0 C 8994.0,3910.0 8971.0,3923.0 8950.0,3945.0 C 8931.0,3964.0 8909.0,3980.0 8900.0,3980.0 C 8891.0,3980.0 8860.0,3962.0 8830.0,3940.0 C 8782.0,3904.0 8775.0,3902.0 8760.0,3915.0 C 8745.0,3929.0 8740.0,3929.0 8714.0,3915.0 C 8682.0,3899.0 8673.0,3908.0 8690.0,3939.0 C 8698.0,3955.0 8711.0,3960.0 8741.0,3960.0 C 8790.0,3960.0 8820.0,3975.0 8820.0,3999.0 C 8820.0,4009.0 8836.0,4026.0 8859.0,4038.0 C 8880.0,4050.0 8901.0,4067.0 8904.0,4076.0 C 8907.0,4084.0 8926.0,4098.0 8945.0,4106.0 C 8997.0,4127.0 8993.0,4159.0 8931.0,4204.0 C 8904.0,4224.0 8875.0,4240.0 8866.0,4240.0 C 8857.0,4240.0 8841.0,4249.0 8830.0,4260.0 C 8816.0,4274.0 8797.0,4280.0 8768.0,4280.0 C 8732.0,4280.0 8723.0,4284.0 8713.0,4306.0 C 8702.0,4330.0 8702.0,4332.0 8723.0,4325.0 C 8735.0,4322.0 8759.0,4315.0 8776.0,4311.0 C 8794.0,4306.0 8823.0,4291.0 8841.0,4277.0 C 8860.0,4263.0 8892.0,4249.0 8913.0,4245.0 C 8946.0,4239.0 8950.0,4240.0 8950.0,4259.0 C 8950.0,4274.0 8940.0,4282.0 8910.0,4290.0 C 8856.0,4305.0 8850.0,4320.0 8899.0,4320.0 C 8946.0,4320.0 8948.0,4327.0 8919.0,4364.0 C 8905.0,4381.0 8889.0,4390.0 8869.0,4390.0 C 8847.0,4390.0 8840.0,4395.0 8840.0,4409.0 C 8840.0,4434.0 8817.0,4452.0 8761.0,4471.0 C 8718.0,4486.0 8715.0,4489.0 8712.0,4525.0 C 8709.0,4553.0 8697.0,4578.0 8668.0,4612.0 C 8646.0,4639.0 8605.0,4704.0 8576.0,4758.0 L 8524.0,4855.0 L 8458.0,4870.0 C 8421.0,4878.0 8383.0,4893.0 8373.0,4903.0 C 8362.0,4912.0 8344.0,4920.0 8333.0,4920.0 C 8310.0,4920.0 8297.0,4959.0 8311.0,4982.0 C 8316.0,4989.0 8320.0,5005.0 8320.0,5016.0 C 8320.0,5028.0 8326.0,5043.0 8334.0,5049.0 C 8342.0,5056.0 8352.0,5075.0 8355.0,5091.0 C 8360.0,5113.0 8367.0,5120.0 8385.0,5120.0 C 8403.0,5120.0 8410.0,5127.0 8415.0,5150.0 C 8418.0,5166.0 8430.0,5191.0 8441.0,5205.0 C 8458.0,5226.0 8459.0,5230.0 8446.0,5230.0 C 8437.0,5230.0 8430.0,5238.0 8430.0,5249.0 C 8430.0,5276.0 8447.0,5284.0 8458.0,5264.0 C 8466.0,5249.0 8469.0,5249.0 8499.0,5265.0 C 8525.0,5278.0 8531.0,5287.0 8529.0,5308.0 C 8526.0,5329.0 8537.0,5346.0 8578.0,5388.0 C 8607.0,5416.0 8635.0,5440.0 8640.0,5440.0 C 8646.0,5440.0 8668.0,5457.0 8691.0,5477.0 L 8731.0,5514.0 L 8761.0,5496.0 C 8778.0,5486.0 8793.0,5480.0 8795.0,5482.0 C 8797.0,5484.0 8808.0,5518.0 8819.0,5558.0 L 8839.0,5630.0 L 8804.0,5630.0 C 8784.0,5630.0 8760.0,5635.0 8749.0,5641.0 C 8733.0,5649.0 8724.0,5648.0 8712.0,5637.0 C 8685.0,5614.0 8663.0,5610.0 8600.0,5617.0 C 8553.0,5622.0 8540.0,5626.0 8540.0,5640.0 C 8540.0,5649.0 8528.0,5662.0 8514.0,5669.0 C 8491.0,5679.0 8482.0,5677.0 8439.0,5649.0 C 8409.0,5630.0 8390.0,5611.0 8390.0,5600.0 C 8390.0,5589.0 8377.0,5573.0 8360.0,5563.0 C 8344.0,5554.0 8330.0,5541.0 8330.0,5534.0 C 8330.0,5528.0 8321.0,5511.0 8309.0,5496.0 C 8292.0,5475.0 8280.0,5470.0 8241.0,5470.0 C 8215.0,5470.0 8189.0,5475.0 8182.0,5482.0 C 8175.0,5489.0 8170.0,5519.0 8170.0,5551.0 C 8170.0,5593.0 8164.0,5616.0 8147.0,5641.0 C 8124.0,5676.0 8086.0,5690.0 8067.0,5671.0 C 8051.0,5655.0 7976.0,5658.0 7938.0,5676.0 C 7920.0,5684.0 7895.0,5706.0 7884.0,5723.0 L 7863.0,5755.0 L 7883.0,5822.0 C 7904.0,5893.0 7929.0,5913.0 7960.0,5885.0 C 7981.0,5866.0 7994.0,5866.0 8010.0,5885.0 C 8016.0,5892.0 8041.0,5902.0 8064.0,5905.0 C 8103.0,5911.0 8107.0,5915.0 8123.0,5960.0 C 8132.0,5986.0 8140.0,6019.0 8140.0,6033.0 C 8140.0,6046.0 8147.0,6063.0 8155.0,6070.0 C 8163.0,6077.0 8170.0,6089.0 8170.0,6096.0 C 8170.0,6104.0 8176.0,6110.0 8183.0,6110.0 C 8189.0,6111.0 8225.0,6133.0 8263.0,6161.0 C 8308.0,6194.0 8330.0,6217.0 8330.0,6231.0 C 8330.0,6242.0 8342.0,6266.0 8356.0,6285.0 C 8370.0,6303.0 8386.0,6334.0 8391.0,6353.0 C 8398.0,6381.0 8407.0,6390.0 8431.0,6395.0 C 8449.0,6399.0 8467.0,6397.0 8475.0,6390.0 C 8487.0,6380.0 8493.0,6380.0 8505.0,6390.0 C 8517.0,6400.0 8524.0,6400.0 8532.0,6392.0 C 8539.0,6385.0 8556.0,6380.0 8571.0,6380.0 C 8591.0,6380.0 8601.0,6373.0 8610.0,6350.0 C 8621.0,6323.0 8619.0,6313.0 8595.0,6257.0 C 8580.0,6223.0 8557.0,6185.0 8544.0,6173.0 C 8531.0,6161.0 8520.0,6140.0 8520.0,6126.0 C 8520.0,6112.0 8516.0,6098.0 8510.0,6095.0 C 8505.0,6092.0 8500.0,6086.0 8500.0,6082.0 C 8500.0,6073.0 8550.0,6050.0 8571.0,6050.0 C 8586.0,6050.0 8586.0,6046.0 8573.0,6005.0 C 8561.0,5969.0 8551.0,5958.0 8524.0,5948.0 C 8502.0,5940.0 8490.0,5929.0 8490.0,5918.0 C 8490.0,5897.0 8489.0,5897.0 8546.0,5911.0 C 8575.0,5919.0 8590.0,5928.0 8590.0,5939.0 C 8590.0,5948.0 8603.0,5963.0 8619.0,5972.0 C 8636.0,5981.0 8658.0,6006.0 8669.0,6028.0 C 8691.0,6071.0 8788.0,6160.0 8812.0,6160.0 C 8821.0,6160.0 8830.0,6169.0 8833.0,6180.0 C 8836.0,6192.0 8847.0,6200.0 8858.0,6200.0 C 8870.0,6200.0 8882.0,6205.0 8885.0,6210.0 C 8888.0,6216.0 8902.0,6220.0 8916.0,6220.0 C 8968.0,6220.0 9030.0,6275.0 9030.0,6320.0 C 9030.0,6337.0 9142.0,6470.0 9157.0,6470.0 C 9164.0,6470.0 9180.0,6488.0 9192.0,6510.0 C 9205.0,6531.0 9225.0,6552.0 9237.0,6555.0 C 9267.0,6562.0 9296.0,6615.0 9309.0,6684.0 C 9325.0,6772.0 9358.0,6801.0 9395.0,6760.0 C 9416.0,6736.0 9467.0,6734.0 9550.0,6754.0 C 9619.0,6770.0 9628.0,6795.0 9580.0,6840.0 C 9562.0,6856.0 9550.0,6875.0 9552.0,6882.0 C 9558.0,6901.0 9620.0,6929.0 9657.0,6930.0 C 9693.0,6930.0 9720.0,6960.0 9720.0,7000.0 C 9720.0,7034.0 9730.0,7047.0 9760.0,7051.0 C 9792.0,7056.0 9810.0,7102.0 9792.0,7131.0 C 9776.0,7156.0 9787.0,7200.0 9809.0,7200.0 C 9818.0,7199.0 9834.0,7185.0 9845.0,7167.0 C 9861.0,7143.0 9873.0,7135.0 9895.0,7135.0 C 9922.0,7135.0 9926.0,7139.0 9930.0,7170.0 C 9934.0,7195.0 9942.0,7208.0 9963.0,7218.0 C 9989.0,7230.0 9990.0,7235.0 9990.0,7301.0 C 9990.0,7344.0 9985.0,7379.0 9976.0,7393.0 C 9968.0,7405.0 9959.0,7436.0 9955.0,7461.0 C 9951.0,7488.0 9929.0,7541.0 9904.0,7585.0 C 9880.0,7628.0 9860.0,7667.0 9860.0,7674.0 C 9860.0,7680.0 9875.0,7692.0 9892.0,7701.0 C 9929.0,7719.0 9937.0,7731.0 9945.0,7784.0 C 9950.0,7815.0 9953.0,7819.0 9963.0,7808.0 C 9972.0,7797.0 9994.0,7795.0 10062.0,7799.0 C 10163.0,7806.0 10175.0,7813.0 10159.0,7858.0 C 10150.0,7885.0 10151.0,7895.0 10169.0,7926.0 C 10183.0,7949.0 10188.0,7970.0 10184.0,7986.0 C 10181.0,7999.0 10183.0,8016.0 10189.0,8024.0 C 10202.0,8039.0 10205.0,8118.0 10198.0,8285.0 C 10193.0,8402.0 10193.0,8406.0 10217.0,8432.0 C 10246.0,8462.0 10243.0,8506.0 10209.0,8536.0 C 10197.0,8547.0 10190.0,8566.0 10190.0,8591.0 C 10190.0,8626.0 10188.0,8629.0 10158.0,8632.0 C 10132.0,8634.0 10113.0,8626.0 10073.0,8595.0 C 10044.0,8573.0 10020.0,8547.0 10020.0,8538.0 C 10020.0,8525.0 10012.0,8520.0 9992.0,8520.0 C 9955.0,8520.0 9888.0,8454.0 9896.0,8425.0 C 9900.0,8408.0 9890.0,8401.0 9828.0,8379.0 C 9701.0,8333.0 9667.0,8324.0 9662.0,8338.0 C 9660.0,8344.0 9642.0,8359.0 9622.0,8370.0 C 9588.0,8389.0 9585.0,8394.0 9588.0,8429.0 C 9591.0,8462.0 9588.0,8470.0 9561.0,8489.0 C 9538.0,8506.0 9530.0,8519.0 9530.0,8542.0 C 9530.0,8571.0 9529.0,8572.0 9495.0,8566.0 C 9465.0,8560.0 9453.0,8564.0 9421.0,8589.0 C 9370.0,8630.0 9336.0,8641.0 9290.0,8634.0 C 9260.0,8629.0 9242.0,8633.0 9215.0,8649.0 C 9182.0,8668.0 9177.0,8669.0 9150.0,8655.0 C 9134.0,8647.0 9101.0,8640.0 9077.0,8640.0 C 9015.0,8640.0 8989.0,8663.0 8983.0,8724.0 C 8979.0,8760.0 8972.0,8774.0 8959.0,8777.0 C 8948.0,8780.0 8940.0,8791.0 8940.0,8802.0 C 8940.0,8833.0 8915.0,8872.0 8866.0,8917.0 C 8841.0,8940.0 8820.0,8968.0 8820.0,8979.0 C 8820.0,8990.0 8809.0,9012.0 8795.0,9028.0 C 8781.0,9045.0 8770.0,9062.0 8770.0,9067.0 C 8770.0,9072.0 8757.0,9089.0 8740.0,9105.0 C 8724.0,9121.0 8710.0,9144.0 8710.0,9156.0 C 8710.0,9169.0 8704.0,9183.0 8696.0,9187.0 C 8689.0,9191.0 8675.0,9212.0 8665.0,9232.0 C 8656.0,9253.0 8640.0,9272.0 8629.0,9275.0 C 8619.0,9279.0 8610.0,9285.0 8610.0,9290.0 C 8610.0,9307.0 8545.0,9360.0 8523.0,9360.0 C 8511.0,9360.0 8490.0,9364.0 8476.0,9369.0 C 8460.0,9376.0 8441.0,9375.0 8421.0,9367.0 C 8394.0,9357.0 8383.0,9359.0 8334.0,9384.0 C 8255.0,9422.0 8198.0,9426.0 8135.0,9396.0" fill="pink"/>
	<path d="M 6954.0,1295.0 C 6950.0,1285.0 6933.0,1280.0 6901.0,1280.0 C 6876.0,1280.0 6846.0,1273.0 6835.0,1265.0 C 6821.0,1254.0 6803.0,1252.0 6769.0,1256.0 C 6732.0,1261.0 6722.0,1259.0 6717.0,1246.0 C 6713.0,1236.0 6699.0,1230.0 6677.0,1230.0 C 6647.0,1230.0 6642.0,1226.0 6637.0,1201.0 C 6633.0,1183.0 6612.0,1156.0 6580.0,1129.0 L 6530.0,1087.0 L 6530.0,1024.0 C 6530.0,989.0 6535.0,958.0 6540.0,955.0 C 6546.0,952.0 6550.0,934.0 6550.0,915.0 C 6550.0,883.0 6552.0,881.0 6604.0,866.0 C 6634.0,857.0 6672.0,850.0 6688.0,850.0 C 6705.0,850.0 6722.0,846.0 6725.0,840.0 C 6728.0,835.0 6744.0,830.0 6761.0,830.0 C 6785.0,830.0 6790.0,834.0 6790.0,854.0 C 6790.0,874.0 6796.0,879.0 6829.0,885.0 C 6851.0,888.0 6878.0,902.0 6891.0,916.0 C 6903.0,929.0 6919.0,940.0 6926.0,940.0 C 6944.0,940.0 6960.0,973.0 6960.0,1010.0 C 6960.0,1070.0 6981.0,1127.0 7016.0,1161.0 C 7044.0,1188.0 7050.0,1201.0 7050.0,1237.0 C 7050.0,1272.0 7047.0,1280.0 7032.0,1280.0 C 7022.0,1280.0 7005.0,1287.0 6994.0,1295.0 C 6970.0,1313.0 6961.0,1314.0 6954.0,1295.0" fill="pink"/>
</svg>
