<?xml version="1.0" ?>
<svg xmlns="http://www.w3.org/2000/svg" xmlns:ev="http://www.w3.org/2001/xml-events" xmlns:xlink="http://www.w3.org/1999/xlink" baseProfile="full" height="600px" version="1.1" viewBox="627.0330440016459 -1026.830565573442 8984.432008630687 12291.385496564724" width="439px">
	<defs/>
	<path d="M 5871.0,10207.0 C 5861.0,10179.0 5853.0,10171.0 5825.0,10166.0 C 5804.0,10162.0 5793.0,10155.0 5796.0,10147.0 C 5801.0,10132.0 5689.0,10090.0 5643.0,10090.0 C 5603.0,10090.0 5597.0,10081.0 5595.0,10006.0 C 5594.0,9966.0 5586.0,9928.0 5571.0,9897.0 C 5546.0,9843.0 5516.0,9824.0 5385.0,9780.0 C 5284.0,9745.0 5090.0,9629.0 5025.0,9563.0 C 4941.0,9478.0 4940.0,9478.0 4757.0,9472.0 L 4594.0,9467.0 L 4539.0,9499.0 C 4485.0,9529.0 4434.0,9538.0 4384.0,9524.0 C 4363.0,9519.0 4330.0,9446.0 4330.0,9407.0 C 4330.0,9396.0 4323.0,9373.0 4314.0,9354.0 C 4301.0,9326.0 4288.0,9317.0 4247.0,9305.0 C 4196.0,9290.0 4195.0,9290.0 4073.0,9331.0 L 3950.0,9372.0 L 3901.0,9333.0 C 3874.0,9312.0 3844.0,9283.0 3834.0,9269.0 C 3825.0,9255.0 3790.0,9228.0 3758.0,9211.0 C 3718.0,9189.0 3695.0,9169.0 3687.0,9149.0 C 3679.0,9128.0 3658.0,9111.0 3620.0,9092.0 C 3568.0,9066.0 3565.0,9062.0 3559.0,9020.0 C 3556.0,8994.0 3540.0,8954.0 3522.0,8926.0 C 3505.0,8899.0 3486.0,8862.0 3480.0,8844.0 C 3474.0,8826.0 3458.0,8804.0 3444.0,8795.0 C 3424.0,8782.0 3421.0,8776.0 3431.0,8764.0 C 3441.0,8752.0 3449.0,8756.0 3484.0,8787.0 C 3524.0,8823.0 3525.0,8824.0 3528.0,8801.0 C 3530.0,8789.0 3525.0,8773.0 3517.0,8767.0 C 3504.0,8756.0 3495.0,8720.0 3474.0,8580.0 C 3470.0,8557.0 3457.0,8536.0 3437.0,8518.0 L 3406.0,8492.0 L 3453.0,8485.0 C 3505.0,8477.0 3507.0,8471.0 3494.0,8389.0 C 3486.0,8343.0 3461.0,8330.0 3374.0,8330.0 C 3322.0,8330.0 3298.0,8324.0 3250.0,8300.0 C 3196.0,8273.0 3188.0,8264.0 3146.0,8188.0 C 3088.0,8081.0 3036.0,8020.0 3004.0,8020.0 C 2987.0,8020.0 2980.0,8014.0 2980.0,8000.0 C 2980.0,7988.0 2959.0,7967.0 2920.0,7940.0 C 2887.0,7918.0 2856.0,7891.0 2850.0,7880.0 C 2842.0,7866.0 2824.0,7859.0 2779.0,7854.0 C 2729.0,7848.0 2713.0,7842.0 2689.0,7816.0 L 2660.0,7785.0 L 2701.0,7765.0 C 2752.0,7739.0 2780.0,7696.0 2780.0,7645.0 C 2780.0,7623.0 2787.0,7580.0 2795.0,7550.0 C 2811.0,7489.0 2814.0,7432.0 2801.0,7412.0 C 2796.0,7403.0 2783.0,7401.0 2764.0,7405.0 C 2748.0,7408.0 2725.0,7413.0 2713.0,7416.0 C 2685.0,7421.0 2682.0,7450.0 2709.0,7450.0 C 2723.0,7450.0 2729.0,7459.0 2732.0,7483.0 C 2735.0,7500.0 2741.0,7523.0 2745.0,7534.0 C 2752.0,7550.0 2750.0,7551.0 2722.0,7545.0 C 2693.0,7539.0 2690.0,7542.0 2670.0,7579.0 C 2659.0,7602.0 2643.0,7620.0 2635.0,7620.0 C 2627.0,7620.0 2609.0,7642.0 2596.0,7668.0 C 2577.0,7706.0 2563.0,7720.0 2531.0,7732.0 C 2508.0,7741.0 2487.0,7757.0 2484.0,7767.0 C 2461.0,7839.0 2440.0,7846.0 2392.0,7797.0 C 2353.0,7757.0 2352.0,7737.0 2385.0,7698.0 C 2399.0,7682.0 2413.0,7656.0 2417.0,7642.0 C 2420.0,7627.0 2440.0,7590.0 2460.0,7560.0 C 2480.0,7530.0 2506.0,7479.0 2518.0,7447.0 L 2540.0,7389.0 L 2512.0,7379.0 C 2497.0,7374.0 2479.0,7367.0 2473.0,7365.0 C 2466.0,7363.0 2453.0,7334.0 2444.0,7301.0 C 2426.0,7238.0 2397.0,7202.0 2328.0,7161.0 L 2291.0,7139.0 L 2279.0,7162.0 C 2260.0,7200.0 2218.0,7240.0 2197.0,7240.0 C 2180.0,7240.0 2179.0,7235.0 2185.0,7188.0 C 2192.0,7140.0 2190.0,7134.0 2167.0,7116.0 C 2151.0,7102.0 2135.0,7071.0 2122.0,7028.0 L 2102.0,6961.0 L 2129.0,6937.0 C 2143.0,6924.0 2170.0,6904.0 2188.0,6894.0 C 2219.0,6876.0 2221.0,6871.0 2219.0,6830.0 C 2214.0,6737.0 2218.0,6723.0 2248.0,6717.0 C 2275.0,6711.0 2310.0,6660.0 2310.0,6625.0 C 2310.0,6616.0 2320.0,6610.0 2335.0,6610.0 C 2350.0,6610.0 2360.0,6616.0 2360.0,6625.0 C 2360.0,6637.0 2364.0,6638.0 2385.0,6628.0 C 2399.0,6622.0 2410.0,6612.0 2410.0,6607.0 C 2410.0,6601.0 2420.0,6586.0 2433.0,6572.0 C 2454.0,6550.0 2454.0,6548.0 2438.0,6536.0 C 2428.0,6529.0 2420.0,6516.0 2420.0,6507.0 C 2420.0,6498.0 2412.0,6487.0 2403.0,6481.0 C 2386.0,6472.0 2386.0,6470.0 2404.0,6457.0 C 2422.0,6444.0 2422.0,6440.0 2410.0,6410.0 L 2396.0,6377.0 L 2379.0,6399.0 C 2370.0,6410.0 2360.0,6420.0 2357.0,6420.0 C 2355.0,6420.0 2355.0,6399.0 2357.0,6373.0 C 2361.0,6339.0 2376.0,6304.0 2406.0,6256.0 C 2436.0,6208.0 2450.0,6175.0 2450.0,6151.0 C 2451.0,6131.0 2457.0,6104.0 2465.0,6090.0 C 2477.0,6067.0 2476.0,6063.0 2452.0,6038.0 C 2433.0,6017.0 2417.0,6010.0 2388.0,6010.0 C 2355.0,6010.0 2347.0,6005.0 2325.0,5970.0 C 2291.0,5915.0 2292.0,5890.0 2329.0,5890.0 C 2377.0,5890.0 2384.0,5871.0 2391.0,5711.0 C 2394.0,5625.0 2403.0,5550.0 2411.0,5528.0 C 2422.0,5500.0 2424.0,5462.0 2419.0,5370.0 C 2412.0,5239.0 2408.0,5229.0 2343.0,5189.0 C 2315.0,5171.0 2310.0,5163.0 2310.0,5129.0 C 2310.0,5098.0 2320.0,5076.0 2361.0,5020.0 C 2389.0,4981.0 2415.0,4950.0 2419.0,4950.0 C 2423.0,4950.0 2437.0,4973.0 2450.0,5001.0 C 2473.0,5048.0 2475.0,5050.0 2484.0,5030.0 C 2492.0,5013.0 2490.0,5006.0 2477.0,4999.0 C 2455.0,4986.0 2444.0,4924.0 2461.0,4904.0 C 2474.0,4888.0 2500.0,4889.0 2570.0,4906.0 C 2590.0,4911.0 2586.0,4906.0 2553.0,4880.0 C 2518.0,4855.0 2510.0,4842.0 2510.0,4817.0 C 2510.0,4781.0 2436.0,4680.0 2351.0,4600.0 C 2312.0,4563.0 2302.0,4545.0 2291.0,4498.0 C 2280.0,4447.0 2276.0,4440.0 2255.0,4440.0 C 2225.0,4440.0 2210.0,4414.0 2210.0,4360.0 C 2210.0,4337.0 2200.0,4296.0 2188.0,4268.0 C 2170.0,4226.0 2159.0,4215.0 2122.0,4199.0 C 2098.0,4189.0 2068.0,4180.0 2055.0,4180.0 C 2040.0,4180.0 2029.0,4173.0 2025.0,4160.0 C 2021.0,4146.0 2010.0,4140.0 1990.0,4140.0 C 1968.0,4140.0 1960.0,4146.0 1952.0,4170.0 L 1941.0,4200.0 L 1908.0,4181.0 C 1890.0,4171.0 1845.0,4152.0 1808.0,4140.0 C 1750.0,4122.0 1734.0,4111.0 1692.0,4062.0 C 1665.0,4031.0 1633.0,3979.0 1620.0,3947.0 C 1599.0,3897.0 1598.0,3885.0 1608.0,3857.0 C 1615.0,3838.0 1620.0,3811.0 1620.0,3796.0 C 1620.0,3782.0 1627.0,3767.0 1635.0,3764.0 C 1643.0,3760.0 1650.0,3752.0 1650.0,3745.0 C 1650.0,3738.0 1657.0,3730.0 1665.0,3726.0 C 1683.0,3720.0 1684.0,3700.0 1669.0,3666.0 C 1660.0,3647.0 1653.0,3643.0 1641.0,3649.0 C 1632.0,3654.0 1599.0,3661.0 1568.0,3664.0 C 1514.0,3671.0 1508.0,3670.0 1465.0,3639.0 C 1422.0,3608.0 1380.0,3555.0 1380.0,3533.0 C 1380.0,3527.0 1407.0,3513.0 1440.0,3501.0 C 1473.0,3489.0 1500.0,3473.0 1500.0,3466.0 C 1500.0,3446.0 1632.0,3320.0 1652.0,3320.0 C 1662.0,3320.0 1674.0,3311.0 1680.0,3300.0 C 1687.0,3287.0 1701.0,3280.0 1720.0,3280.0 C 1742.0,3280.0 1757.0,3269.0 1786.0,3235.0 C 1812.0,3203.0 1830.0,3190.0 1848.0,3190.0 C 1863.0,3190.0 1893.0,3174.0 1922.0,3149.0 C 1952.0,3124.0 1984.0,3106.0 2008.0,3103.0 C 2028.0,3099.0 2066.0,3087.0 2093.0,3075.0 C 2129.0,3058.0 2149.0,3054.0 2179.0,3060.0 C 2223.0,3068.0 2250.0,3054.0 2250.0,3022.0 C 2250.0,2996.0 2310.0,2944.0 2349.0,2935.0 C 2379.0,2929.0 2380.0,2926.0 2380.0,2876.0 C 2380.0,2824.0 2380.0,2824.0 2425.0,2802.0 C 2451.0,2789.0 2490.0,2780.0 2515.0,2780.0 C 2553.0,2780.0 2561.0,2776.0 2576.0,2751.0 C 2587.0,2732.0 2604.0,2720.0 2624.0,2716.0 C 2701.0,2703.0 2975.0,2690.0 2998.0,2698.0 C 3004.0,2700.0 3010.0,2719.0 3010.0,2739.0 C 3010.0,2801.0 3077.0,2845.0 3110.0,2805.0 C 3117.0,2797.0 3138.0,2790.0 3156.0,2790.0 C 3175.0,2790.0 3190.0,2786.0 3190.0,2780.0 C 3190.0,2775.0 3200.0,2770.0 3213.0,2770.0 C 3229.0,2770.0 3245.0,2754.0 3274.0,2710.0 C 3295.0,2677.0 3331.0,2636.0 3354.0,2619.0 C 3391.0,2591.0 3400.0,2589.0 3448.0,2594.0 C 3499.0,2600.0 3503.0,2599.0 3546.0,2562.0 C 3599.0,2515.0 3662.0,2494.0 3703.0,2509.0 C 3740.0,2523.0 3787.0,2523.0 3796.0,2509.0 C 3799.0,2503.0 3829.0,2481.0 3861.0,2460.0 C 3912.0,2427.0 3925.0,2423.0 3964.0,2427.0 L 4009.0,2432.0 L 4012.0,2389.0 C 4015.0,2349.0 4018.0,2345.0 4049.0,2337.0 C 4131.0,2316.0 4250.0,2189.0 4250.0,2123.0 C 4250.0,2102.0 4259.0,2087.0 4281.0,2071.0 C 4301.0,2056.0 4308.0,2045.0 4301.0,2041.0 C 4293.0,2035.0 4294.0,2024.0 4305.0,1997.0 C 4322.0,1957.0 4379.0,1920.0 4425.0,1920.0 C 4453.0,1920.0 4483.0,1903.0 4549.0,1851.0 C 4579.0,1827.0 4601.0,1816.0 4619.0,1818.0 C 4653.0,1822.0 4740.0,1774.0 4740.0,1751.0 C 4740.0,1742.0 4754.0,1713.0 4770.0,1686.0 C 4794.0,1648.0 4798.0,1635.0 4790.0,1619.0 C 4784.0,1609.0 4782.0,1584.0 4786.0,1565.0 C 4795.0,1515.0 4867.0,1465.0 4917.0,1473.0 C 4962.0,1481.0 4999.0,1463.0 5006.0,1431.0 C 5009.0,1417.0 5020.0,1375.0 5030.0,1338.0 L 5048.0,1272.0 L 5024.0,1249.0 C 4980.0,1208.0 5003.0,1140.0 5060.0,1140.0 C 5074.0,1140.0 5099.0,1126.0 5117.0,1108.0 C 5150.0,1077.0 5153.0,1075.0 5223.0,1078.0 C 5281.0,1081.0 5298.0,1085.0 5313.0,1102.0 L 5330.0,1123.0 L 5391.0,1095.0 C 5433.0,1076.0 5462.0,1070.0 5483.0,1073.0 C 5569.0,1088.0 5607.0,1097.0 5627.0,1108.0 C 5639.0,1115.0 5667.0,1120.0 5688.0,1120.0 C 5723.0,1120.0 5733.0,1126.0 5767.0,1164.0 C 5814.0,1217.0 5880.0,1260.0 5880.0,1237.0 C 5880.0,1220.0 5901.0,1210.0 5934.0,1210.0 C 5947.0,1210.0 5976.0,1197.0 5998.0,1180.0 C 6021.0,1164.0 6044.0,1150.0 6050.0,1150.0 C 6055.0,1150.0 6064.0,1141.0 6070.0,1130.0 C 6081.0,1109.0 6120.0,1104.0 6192.0,1116.0 C 6220.0,1121.0 6230.0,1128.0 6232.0,1144.0 C 6234.0,1160.0 6243.0,1166.0 6267.0,1168.0 C 6284.0,1170.0 6304.0,1178.0 6310.0,1186.0 C 6317.0,1194.0 6339.0,1200.0 6360.0,1200.0 C 6398.0,1200.0 6444.0,1171.0 6533.0,1093.0 C 6554.0,1074.0 6581.0,1060.0 6596.0,1060.0 C 6610.0,1060.0 6634.0,1053.0 6649.0,1045.0 C 6665.0,1037.0 6696.0,1028.0 6718.0,1024.0 C 6751.0,1019.0 6761.0,1011.0 6779.0,979.0 C 6798.0,946.0 6806.0,940.0 6834.0,940.0 C 6855.0,940.0 6874.0,932.0 6889.0,916.0 L 6911.0,893.0 L 6700.0,574.0 L 6490.0,255.0 L 6537.0,233.0 C 6587.0,210.0 6635.0,203.0 6644.0,219.0 C 6647.0,224.0 6671.0,231.0 6696.0,235.0 C 6742.0,241.0 6744.0,241.0 6792.0,193.0 C 6820.0,166.0 6845.0,129.0 6852.0,108.0 C 6866.0,59.0 6930.0,-3.0 6961.0,2.0 C 6983.0,5.0 6988.0,27.0 7131.0,810.0 C 7213.0,1253.0 7279.0,1632.0 7279.0,1652.0 C 7280.0,1681.0 7286.0,1693.0 7305.0,1706.0 C 7326.0,1720.0 7330.0,1730.0 7330.0,1772.0 C 7330.0,1807.0 7324.0,1830.0 7310.0,1847.0 C 7299.0,1861.0 7290.0,1884.0 7290.0,1898.0 C 7290.0,1911.0 7275.0,1943.0 7256.0,1969.0 C 7208.0,2035.0 7188.0,2077.0 7192.0,2108.0 C 7193.0,2123.0 7191.0,2160.0 7187.0,2191.0 C 7179.0,2244.0 7177.0,2248.0 7148.0,2254.0 C 7131.0,2257.0 7093.0,2278.0 7065.0,2300.0 C 7036.0,2322.0 7009.0,2340.0 7004.0,2340.0 C 6999.0,2341.0 6974.0,2360.0 6949.0,2384.0 L 6902.0,2426.0 L 6912.0,2641.0 C 6917.0,2759.0 6923.0,2860.0 6925.0,2867.0 C 6927.0,2874.0 6962.0,2889.0 7002.0,2901.0 C 7042.0,2913.0 7093.0,2936.0 7116.0,2951.0 C 7174.0,2990.0 7252.0,2994.0 7298.0,2960.0 C 7324.0,2941.0 7346.0,2935.0 7402.0,2932.0 C 7468.0,2928.0 7473.0,2929.0 7466.0,2946.0 C 7462.0,2956.0 7455.0,2994.0 7450.0,3030.0 C 7446.0,3066.0 7435.0,3112.0 7426.0,3133.0 C 7407.0,3176.0 7366.0,3198.0 7338.0,3181.0 C 7326.0,3174.0 7305.0,3173.0 7269.0,3180.0 C 7241.0,3186.0 7196.0,3190.0 7171.0,3190.0 C 7145.0,3190.0 7119.0,3195.0 7114.0,3200.0 C 7106.0,3208.0 7095.0,3207.0 7075.0,3200.0 C 7060.0,3194.0 7046.0,3191.0 7045.0,3192.0 C 7044.0,3194.0 7045.0,3284.0 7048.0,3392.0 L 7053.0,3589.0 L 7099.0,3595.0 C 7124.0,3598.0 7167.0,3605.0 7194.0,3609.0 C 7222.0,3614.0 7256.0,3614.0 7274.0,3609.0 C 7310.0,3598.0 7597.0,3597.0 7874.0,3607.0 L 8071.0,3613.0 L 8039.0,3646.0 C 8008.0,3678.0 8007.0,3681.0 8021.0,3706.0 C 8028.0,3721.0 8040.0,3735.0 8047.0,3737.0 C 8072.0,3747.0 8107.0,3730.0 8118.0,3704.0 C 8134.0,3670.0 8192.0,3600.0 8205.0,3600.0 C 8247.0,3600.0 8290.0,3624.0 8315.0,3661.0 C 8349.0,3714.0 8413.0,3782.0 8462.0,3822.0 L 8501.0,3852.0 L 8545.0,3835.0 C 8585.0,3820.0 8590.0,3815.0 8590.0,3788.0 C 8590.0,3766.0 8605.0,3739.0 8643.0,3691.0 C 8673.0,3655.0 8707.0,3598.0 8719.0,3565.0 C 8740.0,3510.0 8741.0,3495.0 8735.0,3381.0 C 8728.0,3264.0 8729.0,3258.0 8746.0,3263.0 C 8757.0,3266.0 8786.0,3271.0 8813.0,3275.0 C 8865.0,3282.0 8867.0,3286.0 8846.0,3345.0 C 8838.0,3367.0 8820.0,3437.0 8806.0,3501.0 C 8791.0,3564.0 8765.0,3645.0 8748.0,3681.0 C 8732.0,3716.0 8718.0,3759.0 8718.0,3776.0 C 8719.0,3799.0 8710.0,3816.0 8685.0,3840.0 C 8646.0,3878.0 8638.0,3927.0 8666.0,3950.0 C 8679.0,3962.0 8669.0,3976.0 8584.0,4061.0 C 8530.0,4115.0 8476.0,4161.0 8463.0,4165.0 C 8448.0,4168.0 8433.0,4184.0 8425.0,4204.0 C 8413.0,4231.0 8403.0,4239.0 8366.0,4249.0 C 8341.0,4255.0 8307.0,4260.0 8291.0,4260.0 C 8274.0,4260.0 8260.0,4264.0 8260.0,4268.0 C 8260.0,4283.0 8497.0,4510.0 8513.0,4510.0 C 8534.0,4510.0 8589.0,4568.0 8597.0,4599.0 C 8602.0,4618.0 8597.0,4629.0 8574.0,4648.0 C 8558.0,4662.0 8529.0,4705.0 8510.0,4744.0 C 8481.0,4802.0 8470.0,4816.0 8447.0,4820.0 C 8424.0,4824.0 8415.0,4835.0 8397.0,4880.0 C 8384.0,4910.0 8351.0,4979.0 8322.0,5033.0 C 8273.0,5128.0 8271.0,5133.0 8285.0,5160.0 C 8309.0,5207.0 8304.0,5245.0 8270.0,5273.0 C 8240.0,5298.0 8240.0,5299.0 8256.0,5336.0 C 8281.0,5395.0 8287.0,5618.0 8266.0,5698.0 C 8247.0,5775.0 8251.0,5785.0 8327.0,5857.0 L 8382.0,5908.0 L 8375.0,5965.0 C 8366.0,6041.0 8380.0,6072.0 8452.0,6140.0 L 8510.0,6195.0 L 8480.0,6243.0 C 8455.0,6282.0 8452.0,6292.0 8465.0,6296.0 C 8473.0,6300.0 8480.0,6312.0 8480.0,6325.0 C 8480.0,6344.0 8468.0,6353.0 8406.0,6379.0 C 8323.0,6414.0 8271.0,6418.0 8196.0,6395.0 C 8169.0,6387.0 8131.0,6380.0 8111.0,6380.0 C 8091.0,6380.0 8055.0,6370.0 8031.0,6359.0 C 7993.0,6342.0 7974.0,6340.0 7905.0,6346.0 C 7836.0,6351.0 7819.0,6350.0 7796.0,6335.0 C 7770.0,6318.0 7765.0,6318.0 7672.0,6338.0 C 7509.0,6373.0 7517.0,6373.0 7472.0,6335.0 C 7428.0,6297.0 7382.0,6289.0 7359.0,6316.0 C 7350.0,6327.0 7337.0,6330.0 7315.0,6326.0 C 7285.0,6320.0 7279.0,6325.0 7116.0,6525.0 C 7024.0,6638.0 6945.0,6730.0 6940.0,6730.0 C 6935.0,6730.0 6915.0,6744.0 6896.0,6761.0 C 6863.0,6790.0 6857.0,6791.0 6806.0,6785.0 C 6740.0,6776.0 6625.0,6809.0 6615.0,6839.0 C 6611.0,6853.0 6595.0,6859.0 6548.0,6864.0 C 6460.0,6873.0 6402.0,6871.0 6395.0,6860.0 C 6383.0,6841.0 6310.0,6809.0 6254.0,6799.0 C 6208.0,6791.0 6195.0,6791.0 6182.0,6803.0 C 6172.0,6811.0 6136.0,6820.0 6100.0,6823.0 C 5865.0,6844.0 5887.0,6845.0 5843.0,6817.0 L 5802.0,6791.0 L 5743.0,6816.0 C 5690.0,6839.0 5680.0,6848.0 5652.0,6900.0 C 5634.0,6931.0 5620.0,6969.0 5620.0,6984.0 C 5620.0,7018.0 5570.0,7050.0 5514.0,7050.0 C 5481.0,7050.0 5470.0,7055.0 5452.0,7080.0 C 5432.0,7106.0 5430.0,7121.0 5430.0,7234.0 C 5430.0,7334.0 5434.0,7367.0 5449.0,7403.0 C 5460.0,7428.0 5473.0,7451.0 5479.0,7454.0 C 5492.0,7462.0 5492.0,7533.0 5481.0,7603.0 C 5474.0,7645.0 5463.0,7661.0 5388.0,7738.0 L 5304.0,7825.0 L 5271.0,7948.0 C 5224.0,8130.0 5229.0,8120.0 5170.0,8120.0 C 5120.0,8120.0 5120.0,8120.0 5120.0,8153.0 C 5120.0,8170.0 5117.0,8195.0 5114.0,8207.0 C 5108.0,8229.0 5107.0,8229.0 5028.0,8189.0 C 4964.0,8157.0 4940.0,8150.0 4903.0,8152.0 L 4858.0,8155.0 L 4903.0,8215.0 C 4927.0,8248.0 4955.0,8291.0 4963.0,8311.0 C 4971.0,8331.0 4992.0,8357.0 5009.0,8369.0 C 5051.0,8399.0 5120.0,8536.0 5120.0,8588.0 C 5120.0,8609.0 5129.0,8652.0 5139.0,8682.0 C 5150.0,8713.0 5161.0,8784.0 5165.0,8845.0 C 5173.0,8952.0 5173.0,8954.0 5227.0,9049.0 C 5257.0,9101.0 5289.0,9163.0 5300.0,9186.0 C 5310.0,9209.0 5328.0,9233.0 5339.0,9239.0 C 5351.0,9246.0 5360.0,9259.0 5360.0,9269.0 C 5360.0,9315.0 5483.0,9405.0 5537.0,9398.0 C 5564.0,9395.0 5569.0,9402.0 5648.0,9558.0 C 5724.0,9708.0 5733.0,9720.0 5758.0,9720.0 C 5773.0,9720.0 5853.0,9739.0 5935.0,9762.0 C 6075.0,9802.0 6088.0,9807.0 6127.0,9847.0 C 6149.0,9871.0 6177.0,9890.0 6188.0,9890.0 C 6199.0,9890.0 6219.0,9899.0 6234.0,9911.0 C 6268.0,9938.0 6268.0,9982.0 6235.0,10026.0 C 6221.0,10044.0 6210.0,10070.0 6210.0,10083.0 C 6210.0,10103.0 6200.0,10113.0 6158.0,10134.0 C 6129.0,10148.0 6096.0,10160.0 6084.0,10160.0 C 6071.0,10160.0 6055.0,10168.0 6048.0,10178.0 C 6030.0,10204.0 6016.0,10210.0 5962.0,10219.0 C 5936.0,10224.0 5908.0,10231.0 5899.0,10234.0 C 5886.0,10240.0 5879.0,10233.0 5871.0,10207.0" fill="pink"/>
</svg>
