<?xml version="1.0" ?>
<svg xmlns="http://www.w3.org/2000/svg" xmlns:ev="http://www.w3.org/2001/xml-events" xmlns:xlink="http://www.w3.org/1999/xlink" baseProfile="full" height="565px" version="1.1" viewBox="-1014.9184840891038 -660.3292130385214 12281.69446791027 11556.819438777367" width="600px">
	<defs/>
	<path d="M 1030.0,9919.0 C 989.0,9914.0 950.0,9908.0 944.0,9906.0 C 938.0,9904.0 896.0,9835.0 850.0,9754.0 C 760.0,9592.0 763.0,9609.0 824.0,9565.0 C 837.0,9555.0 843.0,9538.0 844.0,9508.0 C 845.0,9471.0 842.0,9465.0 823.0,9462.0 C 798.0,9458.0 793.0,9469.0 811.0,9487.0 C 829.0,9505.0 812.0,9537.0 773.0,9561.0 C 736.0,9584.0 736.0,9584.0 710.0,9539.0 C 705.0,9529.0 681.0,9519.0 655.0,9516.0 C 615.0,9510.0 611.0,9507.0 620.0,9490.0 C 633.0,9466.0 633.0,9460.0 619.0,9460.0 C 608.0,9460.0 581.0,9431.0 580.0,9419.0 C 580.0,9416.0 605.0,9405.0 636.0,9394.0 C 671.0,9382.0 699.0,9365.0 711.0,9349.0 C 734.0,9316.0 734.0,9308.0 714.0,9268.0 C 702.0,9244.0 701.0,9232.0 709.0,9214.0 L 720.0,9190.0 L 626.0,9190.0 C 540.0,9190.0 478.0,9179.0 456.0,9159.0 C 451.0,9155.0 457.0,9138.0 469.0,9121.0 C 502.0,9076.0 480.0,9080.0 402.0,9136.0 C 400.0,9137.0 404.0,9147.0 411.0,9158.0 C 433.0,9193.0 410.0,9206.0 316.0,9213.0 C 270.0,9216.0 219.0,9215.0 204.0,9211.0 L 175.0,9203.0 L 213.0,9191.0 C 233.0,9184.0 250.0,9172.0 250.0,9164.0 C 250.0,9151.0 143.0,9090.0 120.0,9090.0 C 107.0,9090.0 8.0,9029.0 13.0,9023.0 C 15.0,9021.0 39.0,9024.0 65.0,9030.0 C 103.0,9039.0 114.0,9038.0 124.0,9026.0 C 130.0,9019.0 159.0,9006.0 189.0,8999.0 C 232.0,8988.0 247.0,8979.0 262.0,8954.0 C 281.0,8922.0 312.0,8911.0 385.0,8910.0 C 405.0,8910.0 421.0,8901.0 434.0,8884.0 C 452.0,8858.0 452.0,8858.0 421.0,8826.0 C 404.0,8808.0 390.0,8791.0 390.0,8787.0 C 390.0,8776.0 559.0,8779.0 622.0,8790.0 C 672.0,8800.0 683.0,8798.0 717.0,8780.0 C 738.0,8769.0 762.0,8760.0 772.0,8760.0 C 781.0,8760.0 809.0,8737.0 833.0,8709.0 L 878.0,8658.0 L 861.0,8606.0 C 846.0,8561.0 845.0,8546.0 856.0,8485.0 C 877.0,8368.0 878.0,8370.0 821.0,8370.0 C 777.0,8370.0 772.0,8368.0 766.0,8344.0 C 761.0,8325.0 764.0,8311.0 778.0,8296.0 C 808.0,8263.0 809.0,8247.0 784.0,8217.0 C 756.0,8184.0 752.0,8155.0 776.0,8164.0 C 785.0,8167.0 795.0,8170.0 799.0,8170.0 C 803.0,8170.0 812.0,8185.0 818.0,8204.0 C 829.0,8233.0 837.0,8239.0 870.0,8245.0 C 905.0,8251.0 928.0,8244.0 969.0,8213.0 C 972.0,8211.0 963.0,8202.0 951.0,8193.0 C 938.0,8185.0 922.0,8162.0 914.0,8144.0 C 903.0,8118.0 894.0,8110.0 874.0,8110.0 C 841.0,8110.0 810.0,8093.0 810.0,8075.0 C 810.0,8065.0 800.0,8060.0 780.0,8060.0 C 748.0,8060.0 744.0,8054.0 760.0,8030.0 C 774.0,8008.0 743.0,7980.0 703.0,7980.0 C 684.0,7980.0 651.0,7971.0 628.0,7959.0 C 595.0,7942.0 582.0,7940.0 563.0,7949.0 C 525.0,7966.0 504.0,7962.0 492.0,7935.0 C 485.0,7921.0 469.0,7904.0 455.0,7898.0 C 441.0,7892.0 431.0,7881.0 434.0,7874.0 C 436.0,7868.0 444.0,7844.0 451.0,7821.0 C 458.0,7797.0 471.0,7778.0 482.0,7774.0 C 507.0,7767.0 541.0,7691.0 529.0,7670.0 C 506.0,7629.0 503.0,7627.0 480.0,7640.0 C 459.0,7651.0 458.0,7651.0 464.0,7627.0 C 469.0,7606.0 466.0,7601.0 448.0,7598.0 C 435.0,7596.0 408.0,7601.0 387.0,7609.0 C 353.0,7622.0 347.0,7622.0 334.0,7608.0 C 320.0,7594.0 320.0,7590.0 336.0,7565.0 C 353.0,7539.0 353.0,7537.0 331.0,7492.0 C 318.0,7466.0 290.0,7430.0 269.0,7412.0 L 230.0,7379.0 L 255.0,7330.0 C 278.0,7284.0 279.0,7281.0 263.0,7241.0 C 247.0,7201.0 248.0,7200.0 271.0,7181.0 C 294.0,7163.0 294.0,7160.0 281.0,7128.0 C 250.0,7052.0 262.0,6977.0 311.0,6942.0 C 334.0,6926.0 335.0,6907.0 315.0,6890.0 C 307.0,6883.0 300.0,6867.0 300.0,6854.0 C 300.0,6833.0 305.0,6830.0 340.0,6830.0 C 378.0,6830.0 380.0,6829.0 380.0,6798.0 C 380.0,6765.0 397.0,6732.0 454.0,6651.0 C 476.0,6619.0 482.0,6599.0 483.0,6558.0 C 483.0,6494.0 497.0,6476.0 561.0,6455.0 C 612.0,6438.0 650.0,6394.0 650.0,6351.0 C 650.0,6303.0 677.0,6263.0 731.0,6232.0 C 773.0,6208.0 794.0,6186.0 827.0,6133.0 C 868.0,6065.0 868.0,6065.0 849.0,6044.0 C 834.0,6029.0 831.0,6015.0 836.0,5996.0 C 842.0,5972.0 846.0,5970.0 901.0,5970.0 C 934.0,5970.0 976.0,5963.0 995.0,5956.0 C 1037.0,5938.0 1194.0,5910.0 1253.0,5910.0 C 1276.0,5909.0 1306.0,5903.0 1320.0,5895.0 C 1334.0,5887.0 1359.0,5881.0 1376.0,5880.0 C 1392.0,5880.0 1411.0,5875.0 1418.0,5868.0 C 1427.0,5859.0 1433.0,5859.0 1442.0,5868.0 C 1463.0,5889.0 1514.0,5882.0 1540.0,5855.0 C 1558.0,5836.0 1574.0,5830.0 1604.0,5830.0 C 1627.0,5830.0 1651.0,5834.0 1659.0,5839.0 C 1668.0,5845.0 1687.0,5838.0 1719.0,5815.0 C 1800.0,5758.0 1896.0,5710.0 1929.0,5710.0 C 1953.0,5710.0 1968.0,5701.0 1993.0,5673.0 C 2048.0,5611.0 2052.0,5603.0 2040.0,5580.0 C 2030.0,5562.0 2033.0,5558.0 2067.0,5544.0 C 2136.0,5515.0 2186.0,5455.0 2226.0,5353.0 C 2261.0,5264.0 2266.0,5257.0 2335.0,5199.0 L 2407.0,5139.0 L 2414.0,5070.0 C 2421.0,5001.0 2422.0,4999.0 2460.0,4980.0 C 2481.0,4969.0 2500.0,4955.0 2502.0,4949.0 C 2505.0,4940.0 2519.0,4942.0 2553.0,4955.0 C 2597.0,4971.0 2600.0,4975.0 2600.0,5008.0 C 2600.0,5027.0 2610.0,5059.0 2622.0,5079.0 C 2635.0,5099.0 2643.0,5123.0 2642.0,5133.0 C 2634.0,5180.0 2689.0,5269.0 2727.0,5270.0 C 2734.0,5270.0 2744.0,5278.0 2749.0,5289.0 C 2755.0,5299.0 2783.0,5317.0 2812.0,5330.0 C 2887.0,5362.0 2990.0,5434.0 2968.0,5438.0 C 2958.0,5440.0 2932.0,5431.0 2909.0,5418.0 C 2871.0,5397.0 2868.0,5397.0 2859.0,5413.0 C 2853.0,5422.0 2840.0,5430.0 2830.0,5430.0 C 2819.0,5430.0 2810.0,5435.0 2810.0,5441.0 C 2810.0,5462.0 2851.0,5520.0 2866.0,5520.0 C 2888.0,5520.0 2923.0,5500.0 2938.0,5478.0 C 2958.0,5450.0 2998.0,5454.0 3006.0,5485.0 C 3009.0,5499.0 3010.0,5519.0 3007.0,5530.0 C 3003.0,5545.0 3008.0,5549.0 3033.0,5552.0 C 3058.0,5554.0 3065.0,5561.0 3072.0,5586.0 C 3076.0,5603.0 3087.0,5623.0 3095.0,5630.0 C 3107.0,5640.0 3108.0,5646.0 3099.0,5656.0 C 3090.0,5667.0 3094.0,5670.0 3123.0,5670.0 C 3149.0,5670.0 3160.0,5675.0 3165.0,5689.0 C 3169.0,5702.0 3177.0,5706.0 3194.0,5703.0 C 3214.0,5699.0 3219.0,5703.0 3222.0,5721.0 C 3224.0,5740.0 3230.0,5744.0 3250.0,5742.0 C 3319.0,5735.0 3340.0,5728.0 3340.0,5714.0 C 3340.0,5702.0 3345.0,5702.0 3372.0,5716.0 C 3403.0,5732.0 3404.0,5734.0 3385.0,5744.0 C 3374.0,5750.0 3344.0,5776.0 3319.0,5802.0 C 3277.0,5845.0 3269.0,5849.0 3241.0,5844.0 C 3220.0,5840.0 3204.0,5828.0 3195.0,5810.0 C 3185.0,5790.0 3171.0,5781.0 3144.0,5777.0 C 3096.0,5769.0 3077.0,5783.0 3092.0,5815.0 C 3098.0,5828.0 3112.0,5841.0 3123.0,5844.0 C 3143.0,5849.0 3143.0,5850.0 3125.0,5877.0 C 3115.0,5892.0 3098.0,5911.0 3088.0,5918.0 C 3062.0,5936.0 3063.0,5990.0 3089.0,5990.0 C 3115.0,5990.0 3122.0,6003.0 3114.0,6035.0 C 3109.0,6054.0 3093.0,6068.0 3056.0,6086.0 C 3028.0,6099.0 2994.0,6117.0 2980.0,6125.0 C 2966.0,6133.0 2930.0,6140.0 2900.0,6140.0 C 2845.0,6140.0 2845.0,6140.0 2812.0,6191.0 C 2794.0,6218.0 2782.0,6245.0 2785.0,6250.0 C 2788.0,6254.0 2778.0,6263.0 2763.0,6269.0 C 2738.0,6279.0 2739.0,6280.0 2778.0,6275.0 C 2802.0,6272.0 2848.0,6267.0 2881.0,6263.0 L 2942.0,6257.0 L 2938.0,6286.0 L 2935.0,6315.0 L 2799.0,6318.0 L 2663.0,6321.0 L 2652.0,6295.0 C 2646.0,6281.0 2633.0,6270.0 2624.0,6270.0 C 2590.0,6270.0 2640.0,6231.0 2679.0,6227.0 C 2699.0,6225.0 2674.0,6223.0 2624.0,6222.0 C 2536.0,6220.0 2533.0,6221.0 2522.0,6245.0 C 2516.0,6259.0 2503.0,6270.0 2494.0,6270.0 C 2474.0,6270.0 2319.0,6383.0 2302.0,6409.0 C 2291.0,6429.0 2298.0,6438.0 2314.0,6423.0 C 2330.0,6407.0 2389.0,6393.0 2399.0,6403.0 C 2421.0,6425.0 2410.0,6440.0 2374.0,6440.0 C 2343.0,6440.0 2337.0,6444.0 2327.0,6470.0 C 2321.0,6487.0 2310.0,6500.0 2303.0,6500.0 C 2296.0,6500.0 2287.0,6512.0 2284.0,6526.0 C 2279.0,6545.0 2264.0,6558.0 2233.0,6572.0 C 2202.0,6586.0 2184.0,6601.0 2175.0,6623.0 C 2159.0,6660.0 2169.0,6666.0 2224.0,6656.0 C 2248.0,6651.0 2260.0,6640.0 2279.0,6604.0 C 2311.0,6545.0 2341.0,6530.0 2433.0,6530.0 C 2523.0,6530.0 2570.0,6544.0 2570.0,6572.0 C 2570.0,6582.0 2565.0,6588.0 2560.0,6585.0 C 2554.0,6582.0 2541.0,6582.0 2529.0,6585.0 C 2510.0,6592.0 2509.0,6593.0 2526.0,6611.0 C 2535.0,6622.0 2541.0,6632.0 2539.0,6634.0 C 2523.0,6647.0 2487.0,6660.0 2462.0,6660.0 C 2445.0,6660.0 2425.0,6669.0 2411.0,6684.0 C 2393.0,6703.0 2371.0,6711.0 2308.0,6720.0 C 2264.0,6726.0 2213.0,6730.0 2195.0,6729.0 C 2148.0,6724.0 2130.0,6744.0 2130.0,6799.0 C 2130.0,6824.0 2134.0,6850.0 2138.0,6857.0 C 2148.0,6873.0 2219.0,6859.0 2265.0,6832.0 C 2285.0,6820.0 2315.0,6810.0 2331.0,6810.0 C 2348.0,6810.0 2375.0,6803.0 2391.0,6794.0 C 2414.0,6782.0 2425.0,6781.0 2435.0,6790.0 C 2474.0,6822.0 2585.0,6823.0 2575.0,6791.0 C 2572.0,6781.0 2581.0,6769.0 2600.0,6758.0 C 2619.0,6747.0 2630.0,6733.0 2630.0,6719.0 C 2630.0,6705.0 2635.0,6700.0 2644.0,6703.0 C 2652.0,6706.0 2674.0,6712.0 2692.0,6715.0 C 2722.0,6721.0 2731.0,6716.0 2795.0,6657.0 C 2847.0,6609.0 2879.0,6589.0 2915.0,6578.0 C 2962.0,6565.0 2965.0,6562.0 2968.0,6528.0 C 2972.0,6486.0 2973.0,6485.0 3199.0,6331.0 L 3333.0,6240.0 L 3416.0,6240.0 C 3462.0,6240.0 3502.0,6245.0 3505.0,6250.0 C 3508.0,6256.0 3535.0,6260.0 3564.0,6260.0 L 3618.0,6260.0 L 3625.0,6223.0 C 3633.0,6180.0 3652.0,6139.0 3673.0,6121.0 C 3685.0,6112.0 3686.0,6101.0 3680.0,6079.0 C 3672.0,6052.0 3676.0,6042.0 3715.0,5992.0 C 3748.0,5950.0 3760.0,5926.0 3760.0,5901.0 C 3760.0,5874.0 3773.0,5854.0 3834.0,5786.0 C 3883.0,5733.0 3921.0,5678.0 3944.0,5631.0 C 3977.0,5562.0 3978.0,5556.0 3965.0,5529.0 C 3957.0,5514.0 3928.0,5483.0 3902.0,5461.0 L 3853.0,5420.0 L 3862.0,5357.0 C 3879.0,5224.0 3888.0,5206.0 3947.0,5169.0 L 4001.0,5137.0 L 3995.0,5090.0 L 3989.0,5043.0 L 4107.0,4940.0 C 4172.0,4883.0 4232.0,4831.0 4240.0,4824.0 C 4253.0,4813.0 4273.0,4815.0 4354.0,4836.0 L 4452.0,4861.0 L 4645.0,4785.0 C 4775.0,4735.0 4852.0,4710.0 4880.0,4710.0 C 4917.0,4710.0 5160.0,4677.0 5218.0,4665.0 C 5233.0,4661.0 5240.0,4652.0 5240.0,4637.0 C 5240.0,4624.0 5254.0,4592.0 5271.0,4567.0 C 5297.0,4528.0 5309.0,4519.0 5341.0,4514.0 C 5398.0,4505.0 5397.0,4493.0 5339.0,4485.0 C 5290.0,4478.0 5289.0,4477.0 5292.0,4446.0 C 5295.0,4416.0 5297.0,4415.0 5340.0,4415.0 C 5365.0,4415.0 5408.0,4418.0 5437.0,4422.0 C 5488.0,4429.0 5489.0,4428.0 5492.0,4402.0 C 5495.0,4377.0 5499.0,4375.0 5548.0,4372.0 C 5589.0,4370.0 5618.0,4359.0 5686.0,4319.0 C 5757.0,4278.0 5780.0,4270.0 5821.0,4270.0 C 5860.0,4270.0 5891.0,4260.0 5973.0,4219.0 C 6029.0,4191.0 6095.0,4151.0 6120.0,4130.0 C 6145.0,4110.0 6199.0,4074.0 6241.0,4051.0 C 6314.0,4009.0 6318.0,4005.0 6334.0,3954.0 L 6351.0,3900.0 L 6451.0,3849.0 C 6546.0,3802.0 6560.0,3791.0 6720.0,3629.0 C 6885.0,3464.0 6890.0,3458.0 6896.0,3409.0 C 6902.0,3368.0 6908.0,3357.0 6931.0,3345.0 C 6946.0,3337.0 6962.0,3325.0 6965.0,3319.0 C 6977.0,3301.0 7000.0,3119.0 7000.0,3047.0 L 7000.0,2978.0 L 7033.0,2980.0 C 7050.0,2981.0 7071.0,2982.0 7078.0,2981.0 C 7097.0,2979.0 7092.0,2921.0 7069.0,2889.0 C 7045.0,2854.0 7049.0,2817.0 7086.0,2754.0 L 7109.0,2712.0 L 7058.0,2706.0 C 7021.0,2701.0 6996.0,2690.0 6964.0,2663.0 C 6923.0,2628.0 6921.0,2625.0 6937.0,2608.0 C 6952.0,2591.0 6952.0,2584.0 6940.0,2537.0 C 6932.0,2508.0 6926.0,2451.0 6925.0,2410.0 C 6924.0,2317.0 6920.0,2309.0 6877.0,2321.0 C 6826.0,2336.0 6709.0,2334.0 6699.0,2318.0 C 6682.0,2291.0 6689.0,2254.0 6714.0,2242.0 C 6729.0,2235.0 6739.0,2221.0 6742.0,2201.0 C 6746.0,2174.0 6741.0,2167.0 6708.0,2145.0 C 6671.0,2120.0 6670.0,2119.0 6670.0,2057.0 L 6670.0,1995.0 L 6763.0,1933.0 C 6827.0,1890.0 6870.0,1852.0 6905.0,1807.0 C 6932.0,1772.0 6985.0,1719.0 7022.0,1689.0 C 7066.0,1653.0 7090.0,1627.0 7092.0,1611.0 C 7094.0,1594.0 7113.0,1574.0 7152.0,1548.0 C 7206.0,1511.0 7212.0,1509.0 7247.0,1519.0 C 7312.0,1538.0 7368.0,1533.0 7381.0,1509.0 C 7391.0,1489.0 7397.0,1488.0 7472.0,1494.0 C 7551.0,1501.0 7552.0,1500.0 7698.0,1445.0 C 7779.0,1414.0 7875.0,1371.0 7912.0,1350.0 C 7959.0,1322.0 7984.0,1312.0 7998.0,1318.0 C 8008.0,1322.0 8053.0,1359.0 8098.0,1400.0 C 8218.0,1512.0 8219.0,1556.0 8103.0,1659.0 L 8045.0,1711.0 L 8068.0,1776.0 C 8090.0,1839.0 8090.0,1843.0 8074.0,1861.0 C 8063.0,1873.0 8044.0,1880.0 8020.0,1880.0 C 7993.0,1880.0 7977.0,1887.0 7956.0,1909.0 C 7934.0,1932.0 7916.0,1939.0 7872.0,1945.0 C 7799.0,1954.0 7729.0,1992.0 7674.0,2053.0 C 7639.0,2092.0 7630.0,2110.0 7630.0,2139.0 C 7630.0,2169.0 7621.0,2186.0 7581.0,2231.0 C 7537.0,2281.0 7533.0,2288.0 7546.0,2305.0 C 7565.0,2331.0 7564.0,2334.0 7528.0,2353.0 L 7495.0,2370.0 L 7565.0,2364.0 C 7616.0,2360.0 7677.0,2343.0 7795.0,2298.0 C 7943.0,2242.0 7976.0,2223.0 7999.0,2181.0 C 8006.0,2169.0 8011.0,2168.0 8023.0,2178.0 C 8034.0,2188.0 8049.0,2188.0 8088.0,2178.0 C 8131.0,2169.0 8144.0,2160.0 8165.0,2128.0 C 8192.0,2087.0 8188.0,2087.0 8302.0,2105.0 C 8327.0,2109.0 8333.0,2104.0 8360.0,2050.0 C 8376.0,2018.0 8394.0,1970.0 8400.0,1943.0 C 8421.0,1847.0 8462.0,1756.0 8504.0,1710.0 C 8586.0,1621.0 8582.0,1633.0 8560.0,1556.0 C 8549.0,1518.0 8525.0,1464.0 8506.0,1436.0 C 8487.0,1408.0 8467.0,1368.0 8460.0,1348.0 C 8449.0,1312.0 8450.0,1309.0 8497.0,1246.0 C 8541.0,1186.0 8551.0,1178.0 8619.0,1153.0 C 8672.0,1133.0 8709.0,1110.0 8754.0,1069.0 C 8787.0,1039.0 8847.0,995.0 8885.0,972.0 C 8985.0,912.0 9035.0,845.0 9115.0,661.0 C 9151.0,578.0 9180.0,503.0 9180.0,493.0 C 9180.0,483.0 9173.0,451.0 9165.0,421.0 C 9152.0,369.0 9152.0,365.0 9172.0,337.0 L 9193.0,307.0 L 9222.0,366.0 C 9259.0,445.0 9258.0,485.0 9214.0,571.0 C 9188.0,624.0 9180.0,649.0 9185.0,671.0 C 9194.0,712.0 9175.0,761.0 9135.0,800.0 C 9102.0,832.0 9100.0,838.0 9106.0,877.0 C 9109.0,901.0 9109.0,940.0 9106.0,965.0 C 9100.0,1005.0 9096.0,1010.0 9073.0,1010.0 C 9059.0,1010.0 9032.0,1021.0 9014.0,1035.0 C 8975.0,1065.0 8965.0,1066.0 8947.0,1040.0 C 8934.0,1021.0 8932.0,1022.0 8909.0,1057.0 C 8893.0,1083.0 8865.0,1104.0 8823.0,1125.0 C 8772.0,1150.0 8761.0,1159.0 8761.0,1180.0 C 8760.0,1201.0 8774.0,1213.0 8855.0,1260.0 C 8930.0,1302.0 8960.0,1326.0 8993.0,1370.0 C 9016.0,1400.0 9052.0,1444.0 9073.0,1467.0 C 9108.0,1505.0 9114.0,1508.0 9136.0,1498.0 C 9154.0,1490.0 9178.0,1490.0 9229.0,1499.0 L 9299.0,1512.0 L 9339.0,1578.0 C 9398.0,1677.0 9412.0,1723.0 9404.0,1797.0 C 9399.0,1851.0 9401.0,1863.0 9419.0,1889.0 C 9436.0,1912.0 9439.0,1924.0 9431.0,1938.0 C 9425.0,1948.0 9414.0,1976.0 9406.0,1999.0 C 9394.0,2036.0 9394.0,2042.0 9406.0,2047.0 C 9428.0,2055.0 9415.0,2104.0 9373.0,2174.0 C 9353.0,2206.0 9332.0,2251.0 9325.0,2273.0 C 9315.0,2306.0 9307.0,2316.0 9283.0,2322.0 C 9257.0,2329.0 9252.0,2336.0 9246.0,2370.0 C 9240.0,2406.0 9234.0,2413.0 9195.0,2432.0 C 9146.0,2456.0 9143.0,2461.0 9165.0,2480.0 C 9173.0,2487.0 9180.0,2503.0 9180.0,2515.0 C 9180.0,2533.0 9189.0,2541.0 9216.0,2550.0 C 9246.0,2560.0 9256.0,2572.0 9275.0,2613.0 C 9295.0,2660.0 9296.0,2666.0 9281.0,2691.0 C 9266.0,2718.0 9266.0,2720.0 9293.0,2748.0 C 9312.0,2768.0 9342.0,2783.0 9388.0,2795.0 C 9425.0,2805.0 9464.0,2821.0 9476.0,2831.0 C 9489.0,2843.0 9511.0,2850.0 9537.0,2850.0 C 9564.0,2850.0 9580.0,2855.0 9584.0,2865.0 C 9587.0,2873.0 9598.0,2880.0 9608.0,2880.0 C 9630.0,2880.0 9660.0,2910.0 9660.0,2931.0 C 9660.0,2939.0 9683.0,2960.0 9710.0,2978.0 C 9753.0,3006.0 9760.0,3015.0 9760.0,3043.0 C 9760.0,3069.0 9754.0,3079.0 9730.0,3093.0 C 9708.0,3106.0 9700.0,3119.0 9700.0,3139.0 C 9700.0,3157.0 9688.0,3178.0 9661.0,3204.0 C 9629.0,3236.0 9614.0,3242.0 9566.0,3247.0 C 9514.0,3252.0 9506.0,3256.0 9487.0,3287.0 C 9474.0,3307.0 9444.0,3332.0 9415.0,3347.0 C 9334.0,3388.0 9283.0,3427.0 9260.0,3465.0 C 9237.0,3503.0 9208.0,3509.0 9144.0,3491.0 L 9113.0,3482.0 L 9107.0,3654.0 C 9103.0,3748.0 9100.0,4021.0 9100.0,4261.0 L 9100.0,4697.0 L 9240.0,4725.0 C 9397.0,4756.0 9393.0,4750.0 9321.0,4832.0 C 9284.0,4873.0 9281.0,4881.0 9290.0,4905.0 C 9299.0,4928.0 9297.0,4933.0 9280.0,4937.0 C 9269.0,4940.0 9260.0,4948.0 9260.0,4954.0 C 9260.0,4976.0 9292.0,5060.0 9300.0,5060.0 C 9304.0,5060.0 9312.0,5073.0 9318.0,5088.0 C 9327.0,5114.0 9331.0,5116.0 9366.0,5112.0 C 9392.0,5109.0 9416.0,5097.0 9440.0,5075.0 C 9476.0,5041.0 9505.0,5032.0 9603.0,5023.0 C 9659.0,5018.0 9663.0,5016.0 9693.0,4974.0 C 9719.0,4937.0 9728.0,4930.0 9750.0,4934.0 C 9770.0,4939.0 9779.0,4933.0 9796.0,4906.0 C 9815.0,4877.0 9816.0,4870.0 9804.0,4858.0 C 9791.0,4846.0 9792.0,4840.0 9810.0,4817.0 C 9828.0,4794.0 9839.0,4790.0 9882.0,4790.0 C 9916.0,4790.0 9940.0,4784.0 9952.0,4773.0 C 9967.0,4760.0 9975.0,4758.0 9989.0,4767.0 C 10000.0,4774.0 10012.0,4774.0 10022.0,4769.0 C 10035.0,4762.0 10047.0,4770.0 10074.0,4803.0 C 10104.0,4840.0 10108.0,4850.0 10103.0,4886.0 L 10098.0,4926.0 L 10139.0,4922.0 C 10161.0,4920.0 10184.0,4912.0 10191.0,4904.0 C 10197.0,4896.0 10211.0,4890.0 10222.0,4890.0 C 10240.0,4890.0 10242.0,4895.0 10236.0,4921.0 C 10233.0,4938.0 10230.0,4958.0 10230.0,4965.0 C 10230.0,4972.0 10209.0,4986.0 10183.0,4995.0 C 10145.0,5009.0 10126.0,5025.0 10088.0,5075.0 C 10045.0,5133.0 10042.0,5141.0 10050.0,5171.0 C 10055.0,5189.0 10059.0,5204.0 10057.0,5205.0 C 10056.0,5206.0 10035.0,5220.0 10010.0,5235.0 C 9985.0,5250.0 9940.0,5287.0 9909.0,5317.0 L 9853.0,5372.0 L 9777.0,5342.0 C 9707.0,5315.0 9693.0,5313.0 9615.0,5318.0 L 9529.0,5323.0 L 9502.0,5368.0 C 9488.0,5393.0 9466.0,5441.0 9455.0,5474.0 C 9443.0,5508.0 9429.0,5534.0 9424.0,5534.0 C 9419.0,5533.0 9396.0,5530.0 9373.0,5526.0 L 9330.0,5520.0 L 9074.0,5861.0 C 8934.0,6048.0 8821.0,6204.0 8823.0,6207.0 C 8826.0,6209.0 8871.0,6214.0 8924.0,6217.0 C 9015.0,6223.0 9020.0,6224.0 9020.0,6245.0 C 9020.0,6260.0 9007.0,6276.0 8982.0,6292.0 C 8949.0,6314.0 8930.0,6318.0 8830.0,6323.0 C 8767.0,6326.0 8705.0,6331.0 8693.0,6335.0 C 8677.0,6340.0 8670.0,6337.0 8665.0,6321.0 C 8660.0,6305.0 8650.0,6300.0 8625.0,6300.0 C 8594.0,6300.0 8584.0,6309.0 8504.0,6413.0 C 8455.0,6474.0 8305.0,6665.0 8170.0,6835.0 C 8034.0,7006.0 7900.0,7178.0 7871.0,7218.0 C 7834.0,7269.0 7812.0,7290.0 7797.0,7290.0 C 7781.0,7290.0 7761.0,7310.0 7725.0,7362.0 C 7634.0,7494.0 7435.0,7834.0 7398.0,7920.0 C 7356.0,8018.0 7171.0,8584.0 7140.0,8710.0 C 7112.0,8820.0 7063.0,8938.0 7005.0,9033.0 C 6968.0,9095.0 6950.0,9114.0 6905.0,9139.0 C 6857.0,9166.0 6800.0,9180.0 6800.0,9165.0 C 6800.0,9162.0 6811.0,9142.0 6825.0,9120.0 C 6839.0,9098.0 6850.0,9071.0 6850.0,9058.0 C 6850.0,9046.0 6857.0,9029.0 6865.0,9020.0 C 6877.0,9006.0 6879.0,8994.0 6872.0,8963.0 C 6867.0,8940.0 6867.0,8896.0 6872.0,8860.0 C 6878.0,8809.0 6877.0,8787.0 6864.0,8753.0 L 6847.0,8710.0 L 6786.0,8710.0 C 6749.0,8710.0 6704.0,8702.0 6672.0,8690.0 C 6643.0,8679.0 6596.0,8670.0 6567.0,8670.0 C 6519.0,8670.0 6510.0,8666.0 6480.0,8635.0 C 6457.0,8611.0 6437.0,8600.0 6417.0,8600.0 C 6397.0,8600.0 6373.0,8587.0 6338.0,8555.0 C 6291.0,8513.0 6284.0,8510.0 6231.0,8510.0 C 6200.0,8510.0 6153.0,8502.0 6127.0,8493.0 L 6078.0,8475.0 L 6058.0,8503.0 C 6047.0,8518.0 6007.0,8548.0 5969.0,8571.0 C 5925.0,8596.0 5885.0,8630.0 5859.0,8663.0 C 5814.0,8719.0 5791.0,8728.0 5775.0,8693.0 C 5769.0,8677.0 5757.0,8670.0 5739.0,8670.0 C 5725.0,8670.0 5705.0,8661.0 5695.0,8650.0 C 5678.0,8631.0 5677.0,8631.0 5626.0,8650.0 C 5598.0,8661.0 5558.0,8670.0 5538.0,8670.0 C 5510.0,8670.0 5500.0,8675.0 5495.0,8691.0 C 5488.0,8711.0 5482.0,8712.0 5392.0,8708.0 C 5338.0,8706.0 5287.0,8700.0 5278.0,8696.0 C 5265.0,8690.0 5260.0,8692.0 5260.0,8702.0 C 5260.0,8710.0 5240.0,8736.0 5215.0,8760.0 L 5169.0,8805.0 L 5201.0,8831.0 C 5232.0,8856.0 5233.0,8858.0 5226.0,8914.0 C 5219.0,8969.0 5218.0,8971.0 5170.0,8995.0 C 5137.0,9012.0 5104.0,9020.0 5071.0,9020.0 C 5025.0,9020.0 5019.0,9023.0 5005.0,9051.0 C 4995.0,9069.0 4974.0,9088.0 4952.0,9097.0 C 4932.0,9105.0 4898.0,9128.0 4878.0,9148.0 C 4843.0,9181.0 4840.0,9188.0 4840.0,9240.0 C 4840.0,9287.0 4836.0,9300.0 4815.0,9320.0 L 4791.0,9343.0 L 4715.0,9286.0 C 4639.0,9229.0 4638.0,9228.0 4587.0,9235.0 C 4541.0,9242.0 4527.0,9250.0 4455.0,9317.0 C 4401.0,9367.0 4347.0,9405.0 4290.0,9435.0 C 4243.0,9458.0 4196.0,9487.0 4186.0,9499.0 C 4164.0,9523.0 4141.0,9524.0 4090.0,9505.0 C 4056.0,9493.0 4052.0,9494.0 3952.0,9547.0 L 3849.0,9601.0 L 3489.0,9395.0 C 3279.0,9274.0 3122.0,9190.0 3112.0,9192.0 C 3102.0,9195.0 2899.0,9271.0 2660.0,9361.0 C 2248.0,9516.0 2213.0,9531.0 2003.0,9646.0 L 1782.0,9766.0 L 1703.0,9758.0 L 1625.0,9749.0 L 1460.0,9811.0 C 1349.0,9852.0 1285.0,9882.0 1265.0,9901.0 C 1237.0,9927.0 1228.0,9930.0 1170.0,9929.0 C 1134.0,9928.0 1071.0,9924.0 1030.0,9919.0" fill="pink"/>
</svg>
