<?xml version="1.0" ?>
<svg xmlns="http://www.w3.org/2000/svg" xmlns:ev="http://www.w3.org/2001/xml-events" xmlns:xlink="http://www.w3.org/1999/xlink" baseProfile="full" height="191px" version="1.1" viewBox="-1029.2308426223108 3166.0294485441677 12299.564596909406 3914.441102911665" width="600px">
	<defs/>
	<path d="M 3366.0,6690.0 C 3295.0,6657.0 3226.0,6630.0 3213.0,6630.0 C 3195.0,6630.0 3190.0,6625.0 3190.0,6604.0 C 3190.0,6564.0 3166.0,6580.0 3156.0,6627.0 C 3148.0,6662.0 3141.0,6670.0 3109.0,6680.0 C 3083.0,6689.0 3053.0,6690.0 3013.0,6685.0 C 2935.0,6674.0 2743.0,6679.0 2703.0,6692.0 C 2679.0,6701.0 2661.0,6701.0 2632.0,6692.0 C 2610.0,6685.0 2556.0,6680.0 2510.0,6680.0 L 2428.0,6680.0 L 2306.0,6608.0 C 2193.0,6541.0 2180.0,6535.0 2112.0,6529.0 C 2065.0,6525.0 2035.0,6518.0 2029.0,6509.0 C 2022.0,6498.0 2018.0,6497.0 2012.0,6508.0 C 1999.0,6527.0 1847.0,6513.0 1854.0,6494.0 C 1857.0,6486.0 1851.0,6476.0 1840.0,6470.0 C 1814.0,6456.0 1812.0,6457.0 1817.0,6483.0 L 1822.0,6507.0 L 1744.0,6490.0 C 1687.0,6478.0 1663.0,6468.0 1652.0,6452.0 C 1634.0,6425.0 1620.0,6424.0 1620.0,6450.0 C 1620.0,6473.0 1620.0,6473.0 1566.0,6458.0 C 1542.0,6451.0 1506.0,6428.0 1477.0,6401.0 C 1445.0,6371.0 1422.0,6356.0 1409.0,6358.0 C 1397.0,6360.0 1377.0,6352.0 1365.0,6340.0 C 1348.0,6324.0 1334.0,6319.0 1316.0,6324.0 C 1297.0,6329.0 1288.0,6325.0 1280.0,6310.0 C 1273.0,6297.0 1259.0,6290.0 1240.0,6290.0 C 1221.0,6290.0 1210.0,6285.0 1210.0,6276.0 C 1210.0,6259.0 1189.0,6250.0 1150.0,6250.0 C 1135.0,6250.0 1117.0,6244.0 1111.0,6236.0 C 1104.0,6228.0 1076.0,6219.0 1049.0,6215.0 C 1021.0,6211.0 996.0,6202.0 993.0,6194.0 C 988.0,6180.0 897.0,6134.0 842.0,6118.0 C 822.0,6113.0 806.0,6100.0 800.0,6086.0 C 790.0,6058.0 739.0,6020.0 713.0,6020.0 C 703.0,6020.0 687.0,6007.0 677.0,5991.0 C 668.0,5976.0 647.0,5957.0 630.0,5950.0 C 605.0,5940.0 600.0,5932.0 600.0,5904.0 C 600.0,5878.0 593.0,5865.0 569.0,5848.0 C 530.0,5819.0 500.0,5762.0 500.0,5717.0 C 500.0,5698.0 493.0,5677.0 485.0,5670.0 C 466.0,5654.0 466.0,5640.0 485.0,5640.0 C 493.0,5640.0 502.0,5626.0 506.0,5606.0 C 510.0,5581.0 522.0,5564.0 551.0,5546.0 C 572.0,5531.0 590.0,5512.0 590.0,5502.0 C 590.0,5492.0 596.0,5478.0 603.0,5471.0 C 613.0,5460.0 609.0,5459.0 580.0,5465.0 C 561.0,5468.0 532.0,5471.0 515.0,5471.0 C 499.0,5470.0 465.0,5470.0 441.0,5470.0 C 411.0,5470.0 390.0,5464.0 376.0,5451.0 C 364.0,5440.0 332.0,5422.0 303.0,5411.0 C 274.0,5400.0 215.0,5373.0 171.0,5350.0 C 92.0,5311.0 91.0,5311.0 49.0,5325.0 C 26.0,5333.0 6.0,5340.0 4.0,5340.0 C 2.0,5340.0 0.0,5325.0 0.0,5306.0 C 0.0,5274.0 3.0,5271.0 47.0,5256.0 C 122.0,5230.0 142.0,5235.0 217.0,5292.0 C 282.0,5343.0 288.0,5345.0 357.0,5348.0 C 428.0,5352.0 429.0,5352.0 436.0,5325.0 C 441.0,5306.0 437.0,5291.0 423.0,5272.0 C 397.0,5236.0 385.0,5190.0 402.0,5190.0 C 430.0,5191.0 497.0,5230.0 530.0,5265.0 C 576.0,5313.0 602.0,5326.0 706.0,5351.0 C 774.0,5367.0 798.0,5369.0 823.0,5360.0 C 861.0,5347.0 879.0,5362.0 904.0,5432.0 C 918.0,5469.0 919.0,5483.0 910.0,5500.0 C 894.0,5530.0 904.0,5560.0 939.0,5594.0 C 969.0,5623.0 973.0,5623.0 1086.0,5618.0 C 1113.0,5616.0 1143.0,5624.0 1176.0,5641.0 C 1249.0,5680.0 1274.0,5683.0 1295.0,5660.0 C 1326.0,5625.0 1460.0,5638.0 1460.0,5675.0 C 1460.0,5692.0 1471.0,5695.0 1486.0,5680.0 C 1498.0,5668.0 1550.0,5735.0 1550.0,5763.0 C 1550.0,5783.0 1594.0,5814.0 1613.0,5807.0 C 1620.0,5804.0 1639.0,5808.0 1656.0,5815.0 C 1678.0,5824.0 1694.0,5846.0 1724.0,5907.0 L 1763.0,5987.0 L 1837.0,6011.0 C 1882.0,6025.0 1919.0,6043.0 1929.0,6057.0 C 1939.0,6069.0 1965.0,6086.0 1987.0,6095.0 C 2019.0,6108.0 2031.0,6120.0 2043.0,6151.0 L 2058.0,6190.0 L 2126.0,6190.0 C 2172.0,6190.0 2199.0,6185.0 2210.0,6175.0 C 2222.0,6164.0 2234.0,6163.0 2260.0,6170.0 C 2278.0,6175.0 2356.0,6182.0 2433.0,6185.0 C 2550.0,6190.0 2575.0,6189.0 2589.0,6176.0 C 2602.0,6164.0 2614.0,6162.0 2639.0,6170.0 C 2657.0,6175.0 2716.0,6182.0 2769.0,6186.0 C 2889.0,6194.0 2934.0,6179.0 3068.0,6085.0 C 3069.0,6084.0 3063.0,6067.0 3055.0,6047.0 C 3043.0,6018.0 3027.0,6004.0 2982.0,5981.0 C 2929.0,5955.0 2914.0,5952.0 2780.0,5947.0 C 2700.0,5944.0 2627.0,5939.0 2618.0,5935.0 C 2606.0,5930.0 2600.0,5917.0 2600.0,5898.0 C 2600.0,5873.0 2606.0,5866.0 2646.0,5848.0 C 2672.0,5837.0 2713.0,5815.0 2737.0,5800.0 C 2762.0,5784.0 2799.0,5769.0 2821.0,5765.0 C 2854.0,5759.0 2860.0,5754.0 2860.0,5734.0 C 2860.0,5715.0 2868.0,5705.0 2895.0,5694.0 C 2934.0,5678.0 3030.0,5675.0 3030.0,5690.0 C 3030.0,5701.0 3194.0,5697.0 3250.0,5685.0 C 3269.0,5680.0 3291.0,5668.0 3298.0,5658.0 C 3330.0,5613.0 3420.0,5593.0 3420.0,5630.0 C 3420.0,5655.0 3442.0,5656.0 3464.0,5631.0 C 3477.0,5617.0 3478.0,5607.0 3471.0,5586.0 C 3459.0,5555.0 3470.0,5552.0 3495.0,5580.0 C 3509.0,5596.0 3511.0,5609.0 3506.0,5651.0 C 3502.0,5680.0 3493.0,5720.0 3486.0,5741.0 C 3474.0,5775.0 3475.0,5779.0 3491.0,5783.0 C 3512.0,5789.0 3550.0,5736.0 3550.0,5702.0 C 3550.0,5634.0 3608.0,5593.0 3724.0,5579.0 C 3785.0,5571.0 3804.0,5573.0 3859.0,5591.0 C 3915.0,5610.0 3937.0,5612.0 4026.0,5607.0 C 4147.0,5599.0 4185.0,5608.0 4175.0,5643.0 C 4171.0,5655.0 4153.0,5678.0 4134.0,5693.0 C 4095.0,5726.0 4098.0,5740.0 4144.0,5740.0 C 4199.0,5740.0 4239.0,5729.0 4244.0,5711.0 C 4261.0,5649.0 4261.0,5630.0 4245.0,5630.0 C 4218.0,5630.0 4234.0,5570.0 4266.0,5546.0 C 4281.0,5535.0 4315.0,5507.0 4343.0,5484.0 C 4372.0,5459.0 4431.0,5425.0 4483.0,5403.0 C 4559.0,5371.0 4577.0,5358.0 4602.0,5322.0 C 4628.0,5284.0 4633.0,5281.0 4644.0,5295.0 C 4654.0,5309.0 4665.0,5310.0 4703.0,5305.0 C 4744.0,5299.0 4750.0,5295.0 4750.0,5274.0 C 4750.0,5254.0 4755.0,5250.0 4780.0,5250.0 C 4796.0,5250.0 4813.0,5257.0 4818.0,5266.0 C 4826.0,5281.0 4830.0,5281.0 4858.0,5266.0 C 4875.0,5257.0 4900.0,5250.0 4913.0,5250.0 C 4949.0,5250.0 5032.0,5220.0 5057.0,5198.0 C 5072.0,5184.0 5083.0,5181.0 5095.0,5187.0 C 5111.0,5197.0 5249.0,5173.0 5303.0,5151.0 C 5347.0,5134.0 5392.0,5138.0 5445.0,5164.0 C 5472.0,5178.0 5518.0,5192.0 5549.0,5195.0 C 5641.0,5205.0 5733.0,5222.0 5760.0,5234.0 C 5783.0,5245.0 5830.0,5245.0 5830.0,5234.0 C 5830.0,5231.0 5825.0,5220.0 5820.0,5210.0 C 5811.0,5193.0 5815.0,5190.0 5848.0,5181.0 C 5869.0,5175.0 5895.0,5160.0 5906.0,5148.0 C 5946.0,5103.0 5990.0,5023.0 5990.0,4994.0 C 5990.0,4972.0 5999.0,4959.0 6028.0,4940.0 C 6056.0,4922.0 6061.0,4915.0 6048.0,4912.0 C 6026.0,4908.0 6026.0,4904.0 6044.0,4852.0 C 6052.0,4830.0 6061.0,4786.0 6065.0,4754.0 C 6075.0,4669.0 6077.0,4664.0 6113.0,4649.0 C 6131.0,4642.0 6167.0,4620.0 6193.0,4599.0 C 6219.0,4578.0 6254.0,4559.0 6269.0,4555.0 C 6291.0,4550.0 6300.0,4540.0 6309.0,4510.0 C 6318.0,4480.0 6324.0,4473.0 6339.0,4477.0 C 6351.0,4480.0 6374.0,4465.0 6411.0,4428.0 C 6468.0,4370.0 6494.0,4360.0 6580.0,4360.0 C 6612.0,4360.0 6635.0,4366.0 6652.0,4380.0 C 6675.0,4398.0 6681.0,4398.0 6729.0,4385.0 C 6790.0,4369.0 7091.0,4373.0 7136.0,4391.0 C 7170.0,4403.0 7220.0,4393.0 7243.0,4369.0 C 7253.0,4358.0 7270.0,4350.0 7280.0,4350.0 C 7307.0,4350.0 7320.0,4301.0 7296.0,4288.0 C 7269.0,4273.0 7277.0,4263.0 7341.0,4240.0 C 7376.0,4227.0 7408.0,4207.0 7417.0,4193.0 C 7438.0,4162.0 7428.0,4105.0 7396.0,4071.0 C 7383.0,4057.0 7369.0,4035.0 7365.0,4023.0 C 7360.0,4006.0 7351.0,4000.0 7330.0,4000.0 C 7311.0,4000.0 7297.0,3992.0 7286.0,3974.0 C 7276.0,3960.0 7248.0,3940.0 7223.0,3929.0 C 7198.0,3919.0 7153.0,3887.0 7122.0,3859.0 C 7090.0,3831.0 7051.0,3802.0 7033.0,3794.0 C 7011.0,3785.0 6998.0,3770.0 6990.0,3744.0 C 6983.0,3724.0 6963.0,3691.0 6946.0,3671.0 C 6914.0,3635.0 6846.0,3530.0 6852.0,3526.0 C 6854.0,3524.0 6874.0,3516.0 6896.0,3507.0 C 6933.0,3493.0 6939.0,3493.0 6959.0,3507.0 C 6971.0,3515.0 7000.0,3523.0 7023.0,3525.0 C 7046.0,3526.0 7099.0,3533.0 7140.0,3540.0 C 7201.0,3549.0 7219.0,3556.0 7237.0,3578.0 C 7258.0,3604.0 7272.0,3608.0 7370.0,3611.0 C 7378.0,3612.0 7411.0,3607.0 7444.0,3601.0 C 7491.0,3593.0 7509.0,3594.0 7537.0,3605.0 C 7557.0,3613.0 7584.0,3620.0 7599.0,3620.0 C 7613.0,3620.0 7638.0,3631.0 7655.0,3644.0 C 7678.0,3662.0 7689.0,3666.0 7703.0,3658.0 C 7715.0,3652.0 7732.0,3652.0 7753.0,3660.0 C 7771.0,3667.0 7830.0,3676.0 7885.0,3680.0 C 8027.0,3692.0 8138.0,3708.0 8186.0,3724.0 C 8216.0,3734.0 8267.0,3736.0 8381.0,3733.0 C 8521.0,3729.0 8538.0,3730.0 8573.0,3748.0 C 8611.0,3768.0 8612.0,3768.0 8631.0,3749.0 C 8645.0,3735.0 8664.0,3730.0 8705.0,3730.0 C 8736.0,3730.0 8784.0,3721.0 8817.0,3708.0 C 8858.0,3693.0 8895.0,3687.0 8945.0,3688.0 C 9071.0,3690.0 9173.0,3702.0 9217.0,3721.0 C 9257.0,3738.0 9260.0,3742.0 9260.0,3777.0 C 9260.0,3825.0 9284.0,3862.0 9313.0,3858.0 C 9344.0,3854.0 9345.0,3822.0 9316.0,3767.0 C 9291.0,3720.0 9291.0,3720.0 9312.0,3720.0 C 9324.0,3720.0 9362.0,3725.0 9397.0,3731.0 C 9452.0,3741.0 9463.0,3746.0 9476.0,3771.0 C 9484.0,3787.0 9496.0,3800.0 9502.0,3800.0 C 9508.0,3800.0 9539.0,3822.0 9571.0,3850.0 C 9603.0,3877.0 9634.0,3898.0 9642.0,3895.0 C 9664.0,3886.0 9852.0,3917.0 9915.0,3940.0 C 9960.0,3957.0 9996.0,3962.0 10055.0,3961.0 C 10099.0,3960.0 10140.0,3963.0 10146.0,3967.0 C 10152.0,3972.0 10165.0,3990.0 10174.0,4007.0 C 10183.0,4025.0 10202.0,4047.0 10215.0,4056.0 C 10254.0,4082.0 10249.0,4127.0 10202.0,4173.0 C 10162.0,4212.0 10133.0,4219.0 10097.0,4196.0 C 10059.0,4172.0 10005.0,4167.0 9989.0,4186.0 C 9981.0,4196.0 9951.0,4214.0 9922.0,4227.0 C 9888.0,4242.0 9849.0,4271.0 9815.0,4308.0 C 9786.0,4339.0 9739.0,4379.0 9712.0,4395.0 C 9681.0,4413.0 9655.0,4438.0 9645.0,4459.0 C 9630.0,4490.0 9627.0,4492.0 9594.0,4486.0 C 9568.0,4481.0 9551.0,4484.0 9527.0,4499.0 C 9476.0,4530.0 9377.0,4546.0 9321.0,4531.0 C 9287.0,4523.0 9266.0,4522.0 9246.0,4530.0 C 9231.0,4535.0 9190.0,4540.0 9154.0,4540.0 C 9104.0,4540.0 9090.0,4537.0 9090.0,4525.0 C 9090.0,4517.0 9081.0,4510.0 9070.0,4510.0 C 9055.0,4510.0 9050.0,4517.0 9050.0,4535.0 C 9050.0,4559.0 9047.0,4560.0 8995.0,4560.0 C 8947.0,4560.0 8940.0,4558.0 8940.0,4540.0 C 8940.0,4527.0 8931.0,4518.0 8913.0,4514.0 C 8897.0,4511.0 8880.0,4507.0 8873.0,4505.0 C 8867.0,4503.0 8859.0,4508.0 8856.0,4517.0 C 8851.0,4529.0 8847.0,4530.0 8836.0,4521.0 C 8824.0,4511.0 8821.0,4515.0 8815.0,4540.0 C 8811.0,4556.0 8804.0,4570.0 8798.0,4570.0 C 8778.0,4570.0 8720.0,4528.0 8720.0,4514.0 C 8720.0,4497.0 8719.0,4497.0 8686.0,4510.0 C 8663.0,4518.0 8660.0,4525.0 8660.0,4571.0 L 8660.0,4622.0 L 8748.0,4619.0 C 8820.0,4616.0 8835.0,4618.0 8835.0,4630.0 C 8835.0,4638.0 8820.0,4653.0 8801.0,4662.0 C 8771.0,4677.0 8763.0,4677.0 8735.0,4666.0 C 8696.0,4649.0 8670.0,4661.0 8670.0,4695.0 C 8670.0,4722.0 8697.0,4729.0 8717.0,4709.0 C 8737.0,4689.0 8773.0,4703.0 8782.0,4735.0 C 8787.0,4752.0 8796.0,4775.0 8802.0,4787.0 C 8810.0,4804.0 8808.0,4815.0 8791.0,4839.0 C 8779.0,4856.0 8763.0,4870.0 8756.0,4870.0 C 8749.0,4870.0 8729.0,4881.0 8710.0,4895.0 C 8673.0,4922.0 8621.0,4928.0 8573.0,4909.0 C 8558.0,4903.0 8528.0,4898.0 8508.0,4899.0 C 8487.0,4899.0 8468.0,4894.0 8463.0,4886.0 C 8453.0,4870.0 8383.0,4860.0 8355.0,4870.0 C 8344.0,4874.0 8328.0,4874.0 8319.0,4869.0 C 8306.0,4863.0 8299.0,4869.0 8287.0,4900.0 C 8276.0,4930.0 8266.0,4940.0 8250.0,4940.0 C 8237.0,4940.0 8190.0,4963.0 8144.0,4991.0 L 8061.0,5042.0 L 7995.0,5035.0 L 7930.0,5028.0 L 7930.0,4984.0 C 7930.0,4952.0 7926.0,4940.0 7915.0,4940.0 C 7907.0,4940.0 7900.0,4949.0 7900.0,4960.0 C 7900.0,5000.0 7871.0,5040.0 7844.0,5040.0 C 7825.0,5040.0 7819.0,5036.0 7824.0,5025.0 C 7832.0,5002.0 7768.0,5005.0 7747.0,5028.0 C 7725.0,5052.0 7726.0,5058.0 7753.0,5062.0 C 7765.0,5064.0 7775.0,5072.0 7775.0,5080.0 C 7775.0,5090.0 7756.0,5099.0 7715.0,5108.0 C 7682.0,5115.0 7642.0,5128.0 7625.0,5136.0 C 7571.0,5162.0 7531.0,5170.0 7523.0,5156.0 C 7511.0,5136.0 7473.0,5119.0 7456.0,5126.0 C 7444.0,5131.0 7445.0,5135.0 7461.0,5151.0 C 7471.0,5161.0 7480.0,5176.0 7480.0,5184.0 C 7480.0,5202.0 7405.0,5296.0 7384.0,5304.0 C 7362.0,5312.0 7360.0,5312.0 7360.0,5297.0 C 7360.0,5289.0 7351.0,5275.0 7340.0,5265.0 C 7329.0,5255.0 7320.0,5237.0 7320.0,5225.0 C 7320.0,5200.0 7303.0,5190.0 7259.0,5190.0 C 7236.0,5190.0 7230.0,5194.0 7230.0,5211.0 C 7230.0,5223.0 7237.0,5238.0 7246.0,5244.0 C 7267.0,5260.0 7254.0,5290.0 7225.0,5290.0 C 7175.0,5290.0 7142.0,5303.0 7131.0,5326.0 C 7126.0,5339.0 7105.0,5356.0 7086.0,5364.0 C 7046.0,5381.0 7028.0,5408.0 7041.0,5432.0 C 7048.0,5445.0 7044.0,5450.0 7022.0,5458.0 C 7006.0,5463.0 6985.0,5464.0 6972.0,5459.0 C 6958.0,5454.0 6941.0,5454.0 6930.0,5460.0 C 6920.0,5466.0 6891.0,5470.0 6867.0,5470.0 C 6802.0,5470.0 6764.0,5487.0 6750.0,5521.0 C 6743.0,5537.0 6733.0,5550.0 6728.0,5550.0 C 6709.0,5550.0 6670.0,5600.0 6670.0,5625.0 C 6670.0,5645.0 6665.0,5650.0 6645.0,5650.0 C 6625.0,5650.0 6620.0,5645.0 6619.0,5623.0 C 6619.0,5607.0 6615.0,5587.0 6611.0,5576.0 C 6605.0,5560.0 6600.0,5563.0 6575.0,5596.0 C 6559.0,5618.0 6517.0,5665.0 6481.0,5703.0 C 6434.0,5752.0 6410.0,5770.0 6391.0,5770.0 C 6377.0,5770.0 6352.0,5779.0 6335.0,5790.0 C 6319.0,5801.0 6280.0,5815.0 6250.0,5821.0 C 6209.0,5830.0 6185.0,5843.0 6155.0,5871.0 C 6121.0,5903.0 6106.0,5910.0 6056.0,5916.0 C 6023.0,5920.0 5983.0,5932.0 5966.0,5942.0 C 5898.0,5985.0 5817.0,6030.0 5809.0,6030.0 C 5805.0,6030.0 5800.0,6013.0 5798.0,5993.0 L 5795.0,5955.0 L 5760.0,5991.0 C 5741.0,6011.0 5712.0,6030.0 5696.0,6034.0 C 5681.0,6038.0 5584.0,6033.0 5481.0,6024.0 L 5295.0,6007.0 L 5202.0,6068.0 C 5151.0,6101.0 5101.0,6131.0 5091.0,6135.0 C 5081.0,6138.0 5054.0,6167.0 5032.0,6199.0 C 5009.0,6231.0 4984.0,6262.0 4976.0,6270.0 C 4967.0,6277.0 4960.0,6291.0 4960.0,6301.0 C 4960.0,6311.0 4949.0,6332.0 4936.0,6347.0 C 4917.0,6368.0 4909.0,6372.0 4900.0,6363.0 C 4891.0,6355.0 4876.0,6358.0 4841.0,6376.0 C 4803.0,6396.0 4788.0,6399.0 4768.0,6391.0 C 4746.0,6383.0 4741.0,6385.0 4731.0,6408.0 C 4720.0,6432.0 4721.0,6436.0 4757.0,6466.0 L 4795.0,6498.0 L 4752.0,6490.0 C 4729.0,6486.0 4701.0,6475.0 4691.0,6466.0 C 4674.0,6451.0 4670.0,6451.0 4629.0,6475.0 C 4605.0,6488.0 4577.0,6500.0 4568.0,6500.0 C 4558.0,6500.0 4550.0,6507.0 4550.0,6516.0 C 4550.0,6527.0 4544.0,6529.0 4530.0,6525.0 C 4520.0,6522.0 4499.0,6525.0 4484.0,6533.0 C 4459.0,6546.0 4454.0,6545.0 4422.0,6524.0 C 4371.0,6489.0 4330.0,6485.0 4283.0,6509.0 C 4261.0,6520.0 4234.0,6527.0 4224.0,6524.0 C 4196.0,6517.0 4094.0,6565.0 4074.0,6595.0 C 4065.0,6608.0 4042.0,6629.0 4023.0,6641.0 C 3989.0,6662.0 3988.0,6662.0 3883.0,6646.0 C 3825.0,6637.0 3769.0,6625.0 3759.0,6620.0 C 3740.0,6609.0 3670.0,6606.0 3670.0,6616.0 C 3670.0,6619.0 3674.0,6630.0 3680.0,6640.0 C 3689.0,6656.0 3686.0,6658.0 3647.0,6653.0 C 3587.0,6646.0 3581.0,6643.0 3570.0,6616.0 C 3564.0,6600.0 3549.0,6588.0 3528.0,6582.0 C 3497.0,6573.0 3492.0,6576.0 3450.0,6619.0 L 3404.0,6665.0 L 3445.0,6686.0 C 3492.0,6712.0 3531.0,6750.0 3509.0,6750.0 C 3501.0,6750.0 3437.0,6723.0 3366.0,6690.0" fill="pink"/>
	<path d="M 6010.0,6210.0 C 5984.0,6189.0 5946.0,6186.0 5869.0,6196.0 C 5827.0,6201.0 5822.0,6200.0 5817.0,6179.0 C 5809.0,6148.0 5816.0,6140.0 5853.0,6140.0 C 5871.0,6140.0 5903.0,6131.0 5925.0,6121.0 C 5950.0,6110.0 5979.0,6105.0 5998.0,6108.0 C 6016.0,6110.0 6051.0,6107.0 6075.0,6100.0 C 6112.0,6090.0 6122.0,6090.0 6141.0,6104.0 C 6154.0,6113.0 6173.0,6120.0 6183.0,6120.0 C 6205.0,6120.0 6196.0,6139.0 6146.0,6193.0 C 6117.0,6223.0 6104.0,6230.0 6073.0,6229.0 C 6051.0,6229.0 6024.0,6221.0 6010.0,6210.0" fill="pink"/>
	<path d="M 6230.0,6091.0 C 6211.0,6087.0 6186.0,6079.0 6175.0,6072.0 C 6157.0,6062.0 6160.0,6061.0 6197.0,6060.0 C 6230.0,6060.0 6238.0,6057.0 6234.0,6045.0 C 6225.0,6022.0 6260.0,6013.0 6276.0,6035.0 C 6289.0,6053.0 6290.0,6053.0 6290.0,6031.0 C 6290.0,6017.0 6306.0,5991.0 6329.0,5969.0 C 6365.0,5932.0 6368.0,5931.0 6373.0,5952.0 C 6379.0,5972.0 6381.0,5972.0 6402.0,5958.0 C 6415.0,5949.0 6426.0,5930.0 6428.0,5914.0 C 6430.0,5898.0 6438.0,5881.0 6446.0,5877.0 C 6455.0,5872.0 6458.0,5861.0 6455.0,5851.0 C 6448.0,5829.0 6466.0,5813.0 6500.0,5808.0 C 6519.0,5806.0 6526.0,5798.0 6528.0,5778.0 C 6534.0,5731.0 6630.0,5662.0 6630.0,5705.0 C 6630.0,5726.0 6649.0,5724.0 6657.0,5703.0 C 6668.0,5670.0 6693.0,5650.0 6720.0,5650.0 C 6742.0,5650.0 6749.0,5644.0 6755.0,5623.0 C 6761.0,5598.0 6776.0,5581.0 6791.0,5580.0 C 6794.0,5580.0 6795.0,5594.0 6792.0,5610.0 C 6789.0,5634.0 6794.0,5646.0 6814.0,5665.0 C 6835.0,5684.0 6841.0,5698.0 6838.0,5723.0 C 6835.0,5754.0 6833.0,5755.0 6790.0,5756.0 C 6765.0,5756.0 6732.0,5764.0 6715.0,5773.0 C 6699.0,5782.0 6679.0,5790.0 6673.0,5790.0 C 6666.0,5790.0 6660.0,5801.0 6660.0,5813.0 C 6660.0,5837.0 6632.0,5870.0 6612.0,5870.0 C 6606.0,5870.0 6598.0,5879.0 6595.0,5890.0 C 6592.0,5901.0 6582.0,5910.0 6573.0,5910.0 C 6544.0,5910.0 6500.0,5944.0 6500.0,5967.0 C 6500.0,5985.0 6494.0,5989.0 6463.0,5992.0 C 6434.0,5994.0 6424.0,6000.0 6422.0,6015.0 C 6414.0,6069.0 6409.0,6079.0 6379.0,6089.0 C 6344.0,6101.0 6285.0,6102.0 6230.0,6091.0" fill="pink"/>
	<path d="M 6881.0,5611.0 C 6862.0,5599.0 6879.0,5551.0 6912.0,5527.0 C 6932.0,5512.0 6947.0,5509.0 6974.0,5514.0 L 7010.0,5521.0 L 6968.0,5570.0 C 6925.0,5620.0 6908.0,5628.0 6881.0,5611.0" fill="pink"/>
	<path d="M 7052.0,5502.0 C 7054.0,5498.0 7063.0,5474.0 7073.0,5449.0 C 7084.0,5423.0 7102.0,5397.0 7115.0,5390.0 C 7128.0,5383.0 7144.0,5364.0 7149.0,5349.0 C 7158.0,5322.0 7163.0,5320.0 7213.0,5320.0 C 7254.0,5320.0 7271.0,5315.0 7285.0,5300.0 C 7311.0,5271.0 7332.0,5292.0 7328.0,5344.0 C 7325.0,5384.0 7324.0,5385.0 7285.0,5391.0 C 7234.0,5398.0 7183.0,5425.0 7175.0,5449.0 C 7172.0,5459.0 7147.0,5477.0 7118.0,5489.0 C 7065.0,5511.0 7046.0,5515.0 7052.0,5502.0" fill="pink"/>
	<path d="M 1843.0,5417.0 C 1846.0,5408.0 1842.0,5396.0 1833.0,5388.0 C 1781.0,5346.0 1740.0,5233.0 1770.0,5215.0 C 1791.0,5202.0 1880.0,5088.0 1880.0,5075.0 C 1880.0,5055.0 1828.0,5030.0 1786.0,5030.0 C 1760.0,5030.0 1746.0,5036.0 1735.0,5053.0 C 1721.0,5075.0 1672.0,5105.0 1664.0,5098.0 C 1663.0,5096.0 1680.0,5065.0 1702.0,5028.0 C 1751.0,4951.0 1785.0,4930.0 1867.0,4930.0 C 1897.0,4930.0 1940.0,4925.0 1960.0,4919.0 C 1996.0,4908.0 2002.0,4910.0 2124.0,4976.0 C 2243.0,5041.0 2250.0,5047.0 2250.0,5076.0 C 2250.0,5093.0 2240.0,5119.0 2229.0,5134.0 C 2211.0,5157.0 2209.0,5165.0 2219.0,5186.0 C 2234.0,5220.0 2221.0,5242.0 2170.0,5265.0 C 2130.0,5283.0 2112.0,5314.0 2123.0,5344.0 C 2131.0,5364.0 2049.0,5397.0 1960.0,5409.0 C 1919.0,5415.0 1874.0,5423.0 1861.0,5427.0 C 1841.0,5432.0 1838.0,5430.0 1843.0,5417.0" fill="pink"/>
	<path d="M 5260.0,4700.0 C 5260.0,4686.0 5306.0,4640.0 5320.0,4640.0 C 5326.0,4640.0 5330.0,4648.0 5328.0,4657.0 C 5324.0,4677.0 5260.0,4718.0 5260.0,4700.0" fill="pink"/>
	<path d="M 5418.0,4607.0 C 5402.0,4594.0 5405.0,4589.0 5451.0,4541.0 C 5498.0,4492.0 5520.0,4484.0 5520.0,4515.0 C 5520.0,4522.0 5501.0,4549.0 5478.0,4574.0 C 5440.0,4614.0 5433.0,4618.0 5418.0,4607.0" fill="pink"/>
	<path d="M 5556.0,4494.0 C 5569.0,4460.0 5582.0,4450.0 5617.0,4450.0 C 5647.0,4450.0 5650.0,4452.0 5641.0,4469.0 C 5635.0,4479.0 5620.0,4490.0 5608.0,4492.0 C 5595.0,4495.0 5577.0,4501.0 5567.0,4505.0 C 5553.0,4511.0 5551.0,4509.0 5556.0,4494.0" fill="pink"/>
	<path d="M 5670.0,4420.0 C 5670.0,4401.0 5689.0,4390.0 5721.0,4390.0 C 5758.0,4390.0 5737.0,4422.0 5693.0,4433.0 C 5675.0,4437.0 5670.0,4434.0 5670.0,4420.0" fill="pink"/>
	<path d="M 5802.0,4344.0 C 5811.0,4335.0 5823.0,4331.0 5829.0,4335.0 C 5845.0,4345.0 5832.0,4360.0 5807.0,4360.0 C 5787.0,4360.0 5787.0,4359.0 5802.0,4344.0" fill="pink"/>
	<path d="M 6157.0,4204.0 C 6179.0,4169.0 6239.0,4143.0 6251.0,4162.0 C 6265.0,4183.0 6262.0,4186.0 6209.0,4209.0 C 6142.0,4236.0 6136.0,4236.0 6157.0,4204.0" fill="pink"/>
</svg>
