<?xml version="1.0" ?>
<svg xmlns="http://www.w3.org/2000/svg" xmlns:ev="http://www.w3.org/2001/xml-events" xmlns:xlink="http://www.w3.org/1999/xlink" baseProfile="full" height="262px" version="1.1" viewBox="-1022.6330312566948 2442.4511753641195 12292.823275881805 5354.615702055462" width="600px">
	<defs/>
	<path d="M 74.0,7309.0 C 57.0,7282.0 50.0,7260.0 54.0,7245.0 C 58.0,7230.0 55.0,7220.0 45.0,7216.0 C 35.0,7213.0 30.0,7197.0 30.0,7172.0 C 30.0,7150.0 23.0,7117.0 15.0,7098.0 C 1.0,7064.0 2.0,7062.0 28.0,7038.0 C 43.0,7024.0 73.0,7003.0 95.0,6992.0 C 117.0,6981.0 157.0,6946.0 183.0,6914.0 C 226.0,6863.0 231.0,6851.0 226.0,6823.0 C 206.0,6714.0 201.0,6730.0 284.0,6654.0 C 364.0,6582.0 376.0,6555.0 348.0,6510.0 C 338.0,6494.0 339.0,6485.0 353.0,6461.0 C 362.0,6445.0 370.0,6425.0 370.0,6417.0 C 370.0,6408.0 378.0,6399.0 388.0,6396.0 C 401.0,6391.0 405.0,6378.0 406.0,6333.0 C 407.0,6290.0 412.0,6273.0 426.0,6264.0 C 437.0,6257.0 450.0,6246.0 455.0,6239.0 C 461.0,6233.0 480.0,6213.0 498.0,6196.0 C 524.0,6170.0 530.0,6156.0 530.0,6122.0 C 530.0,6100.0 534.0,6079.0 539.0,6076.0 C 544.0,6073.0 550.0,6058.0 553.0,6043.0 C 565.0,5980.0 600.0,5904.0 628.0,5880.0 C 644.0,5866.0 666.0,5840.0 676.0,5823.0 C 688.0,5801.0 702.0,5790.0 717.0,5790.0 C 745.0,5790.0 747.0,5774.0 720.0,5760.0 C 709.0,5754.0 700.0,5743.0 700.0,5735.0 C 700.0,5727.0 682.0,5702.0 660.0,5680.0 C 638.0,5658.0 620.0,5632.0 620.0,5624.0 C 620.0,5616.0 613.0,5595.0 604.0,5578.0 C 585.0,5542.0 591.0,5513.0 625.0,5476.0 C 639.0,5461.0 657.0,5435.0 666.0,5419.0 C 674.0,5402.0 688.0,5386.0 697.0,5383.0 C 705.0,5380.0 734.0,5355.0 760.0,5328.0 C 801.0,5286.0 812.0,5280.0 849.0,5280.0 C 908.0,5280.0 957.0,5252.0 1016.0,5183.0 C 1062.0,5130.0 1073.0,5123.0 1127.0,5111.0 C 1180.0,5100.0 1191.0,5100.0 1218.0,5114.0 C 1235.0,5123.0 1258.0,5130.0 1270.0,5130.0 C 1284.0,5130.0 1290.0,5136.0 1290.0,5151.0 C 1290.0,5163.0 1297.0,5187.0 1306.0,5206.0 C 1321.0,5238.0 1321.0,5241.0 1300.0,5270.0 C 1288.0,5286.0 1271.0,5300.0 1263.0,5300.0 C 1249.0,5300.0 1249.0,5302.0 1264.0,5319.0 C 1275.0,5331.0 1279.0,5346.0 1276.0,5358.0 C 1272.0,5370.0 1276.0,5382.0 1285.0,5390.0 C 1299.0,5402.0 1300.0,5400.0 1295.0,5378.0 C 1287.0,5348.0 1304.0,5310.0 1324.0,5310.0 C 1343.0,5310.0 1349.0,5366.0 1333.0,5390.0 C 1324.0,5403.0 1323.0,5411.0 1331.0,5416.0 C 1343.0,5423.0 1360.0,5404.0 1360.0,5383.0 C 1360.0,5374.0 1376.0,5370.0 1404.0,5370.0 C 1428.0,5370.0 1452.0,5364.0 1459.0,5357.0 C 1473.0,5340.0 1463.0,5330.0 1434.0,5330.0 C 1421.0,5330.0 1395.0,5319.0 1375.0,5306.0 C 1341.0,5282.0 1340.0,5281.0 1360.0,5270.0 C 1382.0,5258.0 1380.0,5253.0 1333.0,5205.0 C 1320.0,5193.0 1310.0,5174.0 1310.0,5163.0 C 1310.0,5140.0 1350.0,5100.0 1373.0,5100.0 C 1382.0,5100.0 1397.0,5089.0 1406.0,5074.0 C 1429.0,5040.0 1469.0,5021.0 1503.0,5027.0 C 1523.0,5031.0 1545.0,5024.0 1581.0,5001.0 C 1609.0,4984.0 1642.0,4970.0 1655.0,4970.0 C 1668.0,4970.0 1707.0,4957.0 1742.0,4940.0 C 1776.0,4924.0 1815.0,4910.0 1828.0,4910.0 C 1843.0,4910.0 1850.0,4904.0 1850.0,4890.0 C 1850.0,4874.0 1857.0,4870.0 1880.0,4870.0 C 1925.0,4870.0 1946.0,4842.0 1954.0,4774.0 C 1959.0,4730.0 1967.0,4707.0 1986.0,4687.0 C 2015.0,4655.0 2009.0,4656.0 2050.0,4677.0 C 2085.0,4694.0 2153.0,4696.0 2193.0,4681.0 C 2207.0,4676.0 2220.0,4660.0 2224.0,4646.0 C 2229.0,4624.0 2236.0,4620.0 2264.0,4620.0 C 2303.0,4620.0 2315.0,4608.0 2325.0,4560.0 C 2339.0,4486.0 2334.0,4490.0 2416.0,4494.0 L 2490.0,4499.0 L 2490.0,4433.0 C 2490.0,4377.0 2493.0,4367.0 2510.0,4363.0 C 2526.0,4359.0 2530.0,4349.0 2530.0,4319.0 C 2530.0,4298.0 2535.0,4278.0 2540.0,4275.0 C 2546.0,4272.0 2550.0,4261.0 2550.0,4250.0 C 2550.0,4229.0 2614.0,4200.0 2661.0,4200.0 C 2692.0,4200.0 2726.0,4171.0 2758.0,4118.0 C 2772.0,4094.0 2781.0,4090.0 2820.0,4090.0 C 2845.0,4089.0 2885.0,4085.0 2910.0,4079.0 C 2935.0,4074.0 3000.0,4065.0 3055.0,4060.0 L 3155.0,4051.0 L 3186.0,4083.0 C 3208.0,4105.0 3225.0,4141.0 3244.0,4201.0 C 3276.0,4308.0 3276.0,4318.0 3246.0,4330.0 C 3232.0,4335.0 3214.0,4350.0 3205.0,4364.0 C 3175.0,4410.0 3100.0,4418.0 3100.0,4375.0 C 3100.0,4369.0 3082.0,4344.0 3059.0,4320.0 C 3030.0,4290.0 3022.0,4274.0 3029.0,4267.0 C 3054.0,4242.0 3040.0,4230.0 2990.0,4230.0 C 2939.0,4230.0 2939.0,4230.0 2920.0,4276.0 C 2895.0,4332.0 2895.0,4330.0 2923.0,4330.0 C 2967.0,4331.0 3045.0,4357.0 3048.0,4372.0 C 3050.0,4381.0 3033.0,4398.0 3006.0,4414.0 C 2944.0,4450.0 2938.0,4464.0 2987.0,4456.0 C 3039.0,4447.0 3056.0,4464.0 3035.0,4504.0 C 3021.0,4531.0 3021.0,4531.0 3048.0,4528.0 C 3066.0,4526.0 3079.0,4516.0 3089.0,4496.0 C 3096.0,4480.0 3115.0,4462.0 3131.0,4456.0 C 3147.0,4451.0 3160.0,4442.0 3160.0,4439.0 C 3160.0,4435.0 3176.0,4422.0 3195.0,4410.0 C 3219.0,4395.0 3230.0,4381.0 3230.0,4365.0 C 3230.0,4343.0 3231.0,4342.0 3271.0,4354.0 C 3294.0,4361.0 3320.0,4377.0 3330.0,4390.0 C 3346.0,4412.0 3358.0,4414.0 3479.0,4422.0 C 3585.0,4428.0 3615.0,4427.0 3633.0,4416.0 C 3645.0,4409.0 3679.0,4399.0 3709.0,4396.0 C 3739.0,4392.0 3779.0,4381.0 3799.0,4371.0 C 3819.0,4361.0 3850.0,4349.0 3867.0,4345.0 C 3914.0,4335.0 3940.0,4297.0 3940.0,4241.0 C 3940.0,4186.0 3962.0,4150.0 3994.0,4150.0 C 4008.0,4150.0 4024.0,4140.0 4035.0,4124.0 C 4052.0,4098.0 4139.0,4010.0 4148.0,4010.0 C 4151.0,4010.0 4158.0,4003.0 4164.0,3995.0 C 4170.0,3987.0 4213.0,3964.0 4259.0,3945.0 C 4354.0,3906.0 4378.0,3887.0 4426.0,3813.0 C 4444.0,3784.0 4472.0,3754.0 4487.0,3746.0 C 4528.0,3725.0 4555.0,3691.0 4569.0,3642.0 C 4577.0,3612.0 4596.0,3584.0 4628.0,3554.0 C 4684.0,3503.0 4721.0,3494.0 4846.0,3504.0 L 4930.0,3511.0 L 4963.0,3475.0 L 4996.0,3439.0 L 5111.0,3436.0 C 5199.0,3434.0 5233.0,3429.0 5251.0,3417.0 C 5282.0,3395.0 5290.0,3396.0 5290.0,3421.0 C 5290.0,3453.0 5271.0,3480.0 5250.0,3480.0 C 5235.0,3480.0 5230.0,3487.0 5230.0,3509.0 C 5230.0,3526.0 5226.0,3542.0 5220.0,3545.0 C 5214.0,3548.0 5210.0,3561.0 5210.0,3572.0 C 5210.0,3584.0 5198.0,3608.0 5184.0,3627.0 C 5127.0,3701.0 5194.0,3760.0 5255.0,3689.0 C 5273.0,3666.0 5284.0,3660.0 5292.0,3668.0 C 5298.0,3674.0 5309.0,3676.0 5317.0,3673.0 C 5328.0,3668.0 5328.0,3664.0 5312.0,3646.0 C 5289.0,3622.0 5272.0,3506.0 5290.0,3495.0 C 5295.0,3492.0 5300.0,3463.0 5300.0,3431.0 C 5300.0,3368.0 5318.0,3340.0 5358.0,3340.0 C 5370.0,3340.0 5403.0,3331.0 5431.0,3320.0 C 5487.0,3299.0 5509.0,3302.0 5488.0,3328.0 C 5477.0,3342.0 5478.0,3343.0 5493.0,3337.0 C 5503.0,3333.0 5534.0,3330.0 5561.0,3330.0 C 5598.0,3330.0 5610.0,3326.0 5610.0,3315.0 C 5610.0,3307.0 5605.0,3300.0 5599.0,3300.0 C 5593.0,3300.0 5590.0,3295.0 5592.0,3288.0 C 5595.0,3281.0 5625.0,3276.0 5673.0,3275.0 C 5736.0,3273.0 5752.0,3276.0 5766.0,3291.0 C 5784.0,3312.0 5815.0,3316.0 5825.0,3300.0 C 5835.0,3284.0 5872.0,3288.0 5885.0,3307.0 C 5897.0,3323.0 5903.0,3323.0 5944.0,3312.0 C 6007.0,3296.0 6030.0,3297.0 6046.0,3317.0 C 6059.0,3334.0 6061.0,3333.0 6081.0,3307.0 C 6100.0,3283.0 6104.0,3281.0 6119.0,3293.0 C 6128.0,3300.0 6154.0,3312.0 6178.0,3319.0 C 6265.0,3344.0 6584.0,3311.0 6662.0,3269.0 C 6683.0,3257.0 6904.0,3210.0 6980.0,3201.0 C 7010.0,3197.0 7052.0,3186.0 7074.0,3177.0 C 7095.0,3168.0 7129.0,3160.0 7150.0,3160.0 C 7191.0,3160.0 7314.0,3124.0 7345.0,3104.0 C 7356.0,3096.0 7390.0,3090.0 7422.0,3090.0 C 7473.0,3090.0 7481.0,3093.0 7499.0,3119.0 C 7511.0,3135.0 7520.0,3154.0 7520.0,3160.0 C 7520.0,3167.0 7525.0,3190.0 7532.0,3211.0 C 7542.0,3248.0 7546.0,3250.0 7582.0,3250.0 C 7631.0,3250.0 7672.0,3209.0 7696.0,3138.0 C 7705.0,3109.0 7718.0,3090.0 7727.0,3090.0 C 7735.0,3090.0 7751.0,3078.0 7763.0,3064.0 C 7781.0,3041.0 7787.0,3039.0 7829.0,3045.0 C 7896.0,3055.0 7901.0,3063.0 7883.0,3140.0 C 7874.0,3176.0 7867.0,3219.0 7867.0,3237.0 C 7866.0,3277.0 7845.0,3284.0 7784.0,3263.0 C 7741.0,3248.0 7725.0,3221.0 7750.0,3205.0 C 7768.0,3194.0 7761.0,3170.0 7740.0,3170.0 C 7724.0,3170.0 7720.0,3177.0 7720.0,3208.0 C 7720.0,3256.0 7697.0,3291.0 7679.0,3273.0 C 7660.0,3254.0 7636.0,3257.0 7615.0,3280.0 C 7605.0,3292.0 7584.0,3300.0 7566.0,3300.0 C 7538.0,3301.0 7537.0,3302.0 7553.0,3314.0 C 7562.0,3321.0 7570.0,3339.0 7570.0,3354.0 C 7570.0,3390.0 7587.0,3420.0 7606.0,3420.0 C 7625.0,3420.0 7659.0,3381.0 7660.0,3358.0 C 7660.0,3337.0 7672.0,3329.0 7689.0,3340.0 C 7698.0,3345.0 7701.0,3358.0 7697.0,3378.0 C 7688.0,3423.0 7700.0,3424.0 7728.0,3382.0 C 7765.0,3327.0 7790.0,3314.0 7790.0,3350.0 C 7790.0,3360.0 7776.0,3385.0 7759.0,3404.0 L 7729.0,3439.0 L 7762.0,3453.0 C 7804.0,3470.0 7828.0,3458.0 7836.0,3413.0 C 7842.0,3379.0 7854.0,3373.0 7880.0,3390.0 C 7891.0,3397.0 7892.0,3403.0 7885.0,3413.0 C 7880.0,3421.0 7867.0,3439.0 7857.0,3453.0 C 7847.0,3467.0 7838.0,3491.0 7837.0,3506.0 C 7835.0,3533.0 7837.0,3535.0 7875.0,3535.0 C 7909.0,3535.0 7915.0,3538.0 7918.0,3558.0 C 7922.0,3584.0 7921.0,3584.0 7962.0,3564.0 C 8000.0,3546.0 8070.0,3463.0 8070.0,3438.0 C 8070.0,3427.0 8062.0,3420.0 8050.0,3420.0 C 8024.0,3420.0 8010.0,3372.0 8032.0,3356.0 C 8041.0,3349.0 8047.0,3331.0 8046.0,3312.0 C 8045.0,3280.0 8037.0,3271.0 8025.0,3290.0 C 8022.0,3295.0 8000.0,3300.0 7977.0,3300.0 C 7954.0,3300.0 7926.0,3307.0 7916.0,3315.0 C 7893.0,3332.0 7860.0,3335.0 7860.0,3320.0 C 7860.0,3314.0 7869.0,3302.0 7879.0,3293.0 C 7893.0,3281.0 7896.0,3272.0 7890.0,3260.0 C 7885.0,3251.0 7885.0,3238.0 7890.0,3230.0 C 7895.0,3222.0 7897.0,3206.0 7895.0,3195.0 C 7886.0,3160.0 7915.0,3096.0 7946.0,3081.0 C 7962.0,3073.0 8012.0,3064.0 8057.0,3062.0 C 8132.0,3058.0 8143.0,3055.0 8177.0,3025.0 C 8198.0,3007.0 8230.0,2985.0 8249.0,2975.0 C 8290.0,2954.0 8407.0,2941.0 8396.0,2958.0 C 8392.0,2965.0 8378.0,2970.0 8365.0,2970.0 C 8342.0,2970.0 8323.0,2986.0 8333.0,2997.0 C 8336.0,2999.0 8365.0,2994.0 8396.0,2985.0 C 8466.0,2965.0 8580.0,2972.0 8580.0,2996.0 C 8580.0,3021.0 8597.0,3011.0 8603.0,2982.0 C 8606.0,2966.0 8619.0,2949.0 8632.0,2942.0 C 8650.0,2934.0 8651.0,2931.0 8637.0,2931.0 C 8627.0,2930.0 8608.0,2937.0 8595.0,2946.0 C 8575.0,2959.0 8557.0,2961.0 8503.0,2955.0 C 8467.0,2951.0 8442.0,2945.0 8449.0,2941.0 C 8456.0,2936.0 8484.0,2935.0 8512.0,2938.0 C 8554.0,2942.0 8566.0,2939.0 8577.0,2924.0 C 8594.0,2901.0 8637.0,2901.0 8765.0,2924.0 C 8843.0,2938.0 8860.0,2938.0 8890.0,2926.0 C 8909.0,2919.0 8949.0,2907.0 8977.0,2900.0 C 9025.0,2889.0 9032.0,2890.0 9056.0,2909.0 C 9081.0,2928.0 9091.0,2930.0 9176.0,2924.0 C 9266.0,2917.0 9270.0,2918.0 9304.0,2943.0 C 9361.0,2987.0 9390.0,3096.0 9343.0,3088.0 C 9331.0,3086.0 9324.0,3092.0 9322.0,3108.0 C 9318.0,3134.0 9336.0,3137.0 9367.0,3115.0 C 9386.0,3101.0 9389.0,3102.0 9404.0,3125.0 C 9413.0,3139.0 9427.0,3150.0 9434.0,3150.0 C 9442.0,3150.0 9455.0,3161.0 9464.0,3175.0 C 9491.0,3216.0 9539.0,3240.0 9594.0,3240.0 C 9621.0,3240.0 9669.0,3249.0 9699.0,3259.0 C 9730.0,3269.0 9797.0,3281.0 9848.0,3284.0 C 9899.0,3287.0 9951.0,3295.0 9963.0,3302.0 C 9975.0,3309.0 10008.0,3313.0 10037.0,3311.0 C 10081.0,3309.0 10091.0,3312.0 10102.0,3329.0 C 10109.0,3341.0 10122.0,3350.0 10132.0,3350.0 C 10153.0,3350.0 10210.0,3397.0 10210.0,3415.0 C 10210.0,3422.0 10217.0,3430.0 10225.0,3434.0 C 10258.0,3446.0 10240.0,3476.0 10185.0,3503.0 C 10154.0,3518.0 10124.0,3530.0 10117.0,3530.0 C 10109.0,3530.0 10069.0,3548.0 10027.0,3569.0 C 9985.0,3591.0 9934.0,3612.0 9913.0,3615.0 C 9892.0,3618.0 9856.0,3630.0 9832.0,3641.0 C 9809.0,3651.0 9776.0,3660.0 9759.0,3660.0 C 9742.0,3660.0 9727.0,3666.0 9724.0,3675.0 C 9720.0,3683.0 9708.0,3690.0 9695.0,3690.0 C 9683.0,3690.0 9665.0,3699.0 9656.0,3709.0 C 9646.0,3720.0 9613.0,3741.0 9582.0,3756.0 C 9551.0,3771.0 9501.0,3806.0 9469.0,3834.0 C 9380.0,3913.0 9272.0,3981.0 9185.0,4010.0 C 9152.0,4021.0 9105.0,4044.0 9081.0,4060.0 C 9057.0,4077.0 9024.0,4090.0 9008.0,4090.0 C 8989.0,4090.0 8966.0,4103.0 8936.0,4130.0 C 8912.0,4152.0 8888.0,4170.0 8882.0,4170.0 C 8877.0,4170.0 8870.0,4176.0 8867.0,4184.0 C 8864.0,4192.0 8840.0,4213.0 8813.0,4231.0 C 8787.0,4249.0 8729.0,4293.0 8685.0,4328.0 C 8641.0,4364.0 8592.0,4399.0 8575.0,4407.0 C 8559.0,4415.0 8525.0,4449.0 8500.0,4482.0 C 8424.0,4584.0 8396.0,4612.0 8379.0,4605.0 C 8371.0,4602.0 8350.0,4570.0 8332.0,4535.0 L 8300.0,4470.0 L 8325.0,4434.0 C 8339.0,4414.0 8350.0,4393.0 8350.0,4389.0 C 8350.0,4384.0 8359.0,4380.0 8370.0,4380.0 C 8381.0,4380.0 8399.0,4367.0 8412.0,4350.0 C 8424.0,4334.0 8440.0,4320.0 8447.0,4320.0 C 8475.0,4320.0 8448.0,4301.0 8412.0,4294.0 C 8392.0,4290.0 8370.0,4283.0 8363.0,4278.0 C 8357.0,4273.0 8338.0,4273.0 8318.0,4278.0 C 8292.0,4284.0 8284.0,4292.0 8282.0,4313.0 C 8280.0,4329.0 8273.0,4340.0 8263.0,4340.0 C 8252.0,4340.0 8249.0,4334.0 8254.0,4315.0 C 8261.0,4288.0 8243.0,4281.0 8222.0,4302.0 C 8213.0,4311.0 8210.0,4311.0 8210.0,4299.0 C 8210.0,4291.0 8201.0,4279.0 8190.0,4272.0 C 8179.0,4266.0 8173.0,4254.0 8176.0,4246.0 C 8179.0,4237.0 8173.0,4229.0 8161.0,4225.0 C 8134.0,4217.0 8116.0,4228.0 8129.0,4244.0 C 8146.0,4264.0 8096.0,4284.0 8067.0,4269.0 C 8055.0,4262.0 8042.0,4252.0 8038.0,4246.0 C 8033.0,4238.0 8028.0,4238.0 8020.0,4246.0 C 8001.0,4265.0 8028.0,4318.0 8060.0,4325.0 C 8124.0,4339.0 8113.0,4379.0 8040.0,4397.0 C 8015.0,4404.0 8004.0,4413.0 8002.0,4428.0 C 8000.0,4442.0 8004.0,4450.0 8013.0,4450.0 C 8023.0,4450.0 8026.0,4458.0 8022.0,4475.0 C 8018.0,4497.0 8021.0,4500.0 8050.0,4500.0 C 8072.0,4500.0 8083.0,4495.0 8087.0,4482.0 C 8090.0,4469.0 8101.0,4464.0 8126.0,4464.0 C 8155.0,4464.0 8160.0,4467.0 8158.0,4485.0 C 8154.0,4512.0 8195.0,4518.0 8222.0,4493.0 C 8237.0,4480.0 8244.0,4478.0 8247.0,4488.0 C 8250.0,4494.0 8258.0,4500.0 8266.0,4500.0 C 8274.0,4500.0 8280.0,4504.0 8280.0,4509.0 C 8280.0,4515.0 8293.0,4533.0 8309.0,4551.0 C 8326.0,4569.0 8340.0,4597.0 8342.0,4616.0 C 8346.0,4647.0 8340.0,4656.0 8293.0,4703.0 C 8263.0,4731.0 8223.0,4777.0 8202.0,4803.0 C 8154.0,4865.0 8006.0,4960.0 7957.0,4960.0 C 7947.0,4960.0 7937.0,4966.0 7934.0,4974.0 C 7931.0,4982.0 7915.0,4988.0 7897.0,4988.0 C 7849.0,4989.0 7718.0,5010.0 7706.0,5019.0 C 7682.0,5038.0 7529.0,5081.0 7437.0,5094.0 C 7384.0,5102.0 7335.0,5112.0 7330.0,5115.0 C 7324.0,5118.0 7299.0,5125.0 7272.0,5130.0 C 7246.0,5134.0 7201.0,5147.0 7171.0,5159.0 C 7131.0,5174.0 7113.0,5177.0 7104.0,5169.0 C 7088.0,5156.0 7027.0,5139.0 6985.0,5135.0 C 6969.0,5134.0 6947.0,5132.0 6938.0,5132.0 C 6928.0,5131.0 6920.0,5124.0 6920.0,5118.0 C 6920.0,5106.0 6723.0,5050.0 6605.0,5028.0 C 6578.0,5023.0 6530.0,5014.0 6500.0,5009.0 C 6470.0,5003.0 6423.0,4994.0 6395.0,4990.0 C 6335.0,4980.0 6281.0,4962.0 6260.0,4945.0 C 6245.0,4932.0 6232.0,4929.0 6100.0,4910.0 C 6007.0,4896.0 5811.0,4909.0 5775.0,4932.0 C 5769.0,4935.0 5724.0,4934.0 5675.0,4929.0 C 5597.0,4920.0 5575.0,4913.0 5508.0,4876.0 C 5348.0,4785.0 5336.0,4783.0 4970.0,4772.0 C 4687.0,4763.0 4640.0,4764.0 4605.0,4777.0 C 4583.0,4786.0 4558.0,4800.0 4550.0,4809.0 C 4501.0,4863.0 4290.0,4951.0 4155.0,4975.0 C 4092.0,4986.0 4048.0,4999.0 4035.0,5011.0 C 4024.0,5021.0 3988.0,5041.0 3955.0,5055.0 C 3922.0,5070.0 3885.0,5086.0 3873.0,5092.0 C 3862.0,5098.0 3847.0,5099.0 3841.0,5095.0 C 3834.0,5092.0 3804.0,5103.0 3772.0,5121.0 C 3695.0,5165.0 3566.0,5211.0 3505.0,5217.0 C 3448.0,5223.0 3409.0,5249.0 3320.0,5342.0 C 3289.0,5373.0 3244.0,5408.0 3219.0,5419.0 C 3194.0,5430.0 3165.0,5448.0 3155.0,5460.0 C 3145.0,5471.0 3132.0,5480.0 3127.0,5480.0 C 3117.0,5480.0 3041.0,5547.0 2950.0,5634.0 C 2925.0,5658.0 2886.0,5689.0 2863.0,5704.0 C 2840.0,5718.0 2813.0,5742.0 2804.0,5757.0 C 2757.0,5834.0 2709.0,5908.0 2691.0,5931.0 C 2681.0,5945.0 2664.0,5980.0 2654.0,6009.0 C 2645.0,6038.0 2626.0,6075.0 2614.0,6090.0 C 2601.0,6105.0 2590.0,6131.0 2590.0,6147.0 C 2590.0,6163.0 2586.0,6180.0 2582.0,6185.0 C 2558.0,6212.0 2516.0,6351.0 2519.0,6392.0 C 2522.0,6430.0 2483.0,6455.0 2446.0,6439.0 C 2432.0,6432.0 2420.0,6419.0 2420.0,6409.0 C 2420.0,6384.0 2408.0,6379.0 2386.0,6395.0 C 2362.0,6413.0 2372.0,6440.0 2403.0,6440.0 C 2432.0,6440.0 2480.0,6475.0 2480.0,6496.0 C 2480.0,6504.0 2476.0,6510.0 2472.0,6510.0 C 2467.0,6510.0 2463.0,6524.0 2463.0,6540.0 C 2463.0,6585.0 2434.0,6618.0 2345.0,6678.0 C 2243.0,6745.0 2227.0,6749.0 2198.0,6716.0 C 2170.0,6684.0 2146.0,6694.0 2156.0,6733.0 C 2160.0,6752.0 2169.0,6760.0 2185.0,6760.0 C 2210.0,6760.0 2221.0,6784.0 2210.0,6816.0 C 2204.0,6832.0 2099.0,6928.0 1988.0,7018.0 C 1972.0,7031.0 1927.0,7058.0 1887.0,7077.0 C 1826.0,7107.0 1804.0,7113.0 1745.0,7113.0 C 1630.0,7114.0 1489.0,7099.0 1417.0,7078.0 C 1352.0,7060.0 1346.0,7060.0 1299.0,7075.0 C 1271.0,7085.0 1209.0,7096.0 1162.0,7101.0 C 974.0,7120.0 955.0,7123.0 942.0,7133.0 C 935.0,7138.0 897.0,7145.0 858.0,7148.0 C 802.0,7152.0 770.0,7161.0 717.0,7188.0 C 680.0,7207.0 628.0,7225.0 602.0,7228.0 C 576.0,7230.0 547.0,7240.0 536.0,7249.0 C 523.0,7261.0 497.0,7265.0 436.0,7265.0 C 356.0,7266.0 347.0,7269.0 248.0,7321.0 C 239.0,7326.0 212.0,7332.0 188.0,7335.0 C 164.0,7339.0 135.0,7343.0 123.0,7346.0 C 105.0,7349.0 95.0,7341.0 74.0,7309.0" fill="pink"/>
</svg>
