<?xml version="1.0" ?>
<svg xmlns="http://www.w3.org/2000/svg" xmlns:ev="http://www.w3.org/2001/xml-events" xmlns:xlink="http://www.w3.org/1999/xlink" baseProfile="full" height="335px" version="1.1" viewBox="-1028.6475053535348 1690.5125335749076 12292.59357143876 6854.673104297452" width="600px">
	<defs/>
	<path d="M 3347.0,7963.0 C 3345.0,7958.0 3337.0,7938.0 3331.0,7918.0 C 3323.0,7895.0 3307.0,7874.0 3289.0,7863.0 C 3273.0,7853.0 3260.0,7843.0 3260.0,7840.0 C 3260.0,7836.0 3273.0,7821.0 3289.0,7806.0 C 3311.0,7785.0 3323.0,7780.0 3344.0,7786.0 C 3373.0,7793.0 3375.0,7788.0 3359.0,7759.0 C 3350.0,7741.0 3355.0,7736.0 3419.0,7707.0 C 3458.0,7689.0 3490.0,7670.0 3490.0,7664.0 C 3490.0,7628.0 3396.0,7580.0 3324.0,7580.0 C 3266.0,7580.0 3233.0,7569.0 3219.0,7544.0 C 3212.0,7530.0 3166.0,7498.0 3111.0,7468.0 C 3023.0,7420.0 3009.0,7416.0 2941.0,7413.0 C 2879.0,7411.0 2863.0,7407.0 2841.0,7387.0 C 2820.0,7368.0 2807.0,7364.0 2778.0,7367.0 L 2740.0,7372.0 L 2740.0,7321.0 C 2740.0,7276.0 2737.0,7269.0 2713.0,7257.0 C 2697.0,7249.0 2647.0,7239.0 2600.0,7235.0 C 2554.0,7231.0 2502.0,7221.0 2486.0,7213.0 C 2466.0,7202.0 2443.0,7200.0 2412.0,7204.0 C 2374.0,7209.0 2362.0,7206.0 2334.0,7185.0 C 2309.0,7166.0 2289.0,7160.0 2250.0,7160.0 L 2199.0,7160.0 L 2179.0,7113.0 C 2168.0,7086.0 2156.0,7053.0 2153.0,7039.0 C 2150.0,7024.0 2131.0,6995.0 2109.0,6974.0 C 2066.0,6932.0 2077.0,6930.0 1989.0,7002.0 L 1942.0,7040.0 L 1937.0,7012.0 C 1933.0,6994.0 1917.0,6974.0 1895.0,6959.0 C 1868.0,6941.0 1861.0,6930.0 1865.0,6915.0 C 1877.0,6875.0 1875.0,6867.0 1847.0,6859.0 C 1822.0,6852.0 1817.0,6855.0 1803.0,6886.0 C 1794.0,6905.0 1784.0,6920.0 1781.0,6920.0 C 1772.0,6920.0 1751.0,6885.0 1703.0,6788.0 L 1660.0,6701.0 L 1624.0,6707.0 C 1605.0,6710.0 1564.0,6707.0 1534.0,6700.0 C 1492.0,6690.0 1477.0,6689.0 1468.0,6698.0 C 1442.0,6724.0 1432.0,6710.0 1424.0,6644.0 C 1418.0,6587.0 1412.0,6571.0 1383.0,6539.0 C 1347.0,6499.0 1290.0,6473.0 1268.0,6486.0 C 1261.0,6490.0 1222.0,6518.0 1182.0,6548.0 L 1108.0,6602.0 L 1057.0,6566.0 C 1028.0,6546.0 986.0,6516.0 963.0,6499.0 C 924.0,6469.0 921.0,6468.0 899.0,6484.0 C 866.0,6507.0 837.0,6504.0 732.0,6468.0 C 640.0,6437.0 639.0,6436.0 584.0,6364.0 C 552.0,6322.0 519.0,6289.0 505.0,6286.0 C 487.0,6281.0 479.0,6271.0 474.0,6245.0 C 470.0,6221.0 462.0,6210.0 450.0,6210.0 C 426.0,6210.0 390.0,6120.0 390.0,6059.0 C 390.0,5998.0 363.0,5948.0 335.0,5956.0 C 302.0,5966.0 288.0,5991.0 294.0,6032.0 C 300.0,6067.0 298.0,6071.0 268.0,6086.0 C 224.0,6108.0 225.0,6106.0 244.0,6135.0 C 262.0,6163.0 258.0,6167.0 205.0,6172.0 C 179.0,6175.0 174.0,6181.0 160.0,6230.0 C 148.0,6270.0 139.0,6285.0 127.0,6284.0 C 45.0,6280.0 48.0,6281.0 53.0,6258.0 C 56.0,6245.0 62.0,6223.0 65.0,6209.0 C 70.0,6188.0 66.0,6181.0 36.0,6165.0 C 16.0,6154.0 0.0,6143.0 0.0,6140.0 C 1.0,6128.0 38.0,6092.0 76.0,6068.0 C 104.0,6050.0 129.0,6021.0 153.0,5978.0 C 184.0,5923.0 187.0,5913.0 174.0,5899.0 C 166.0,5891.0 160.0,5865.0 160.0,5842.0 C 160.0,5803.0 163.0,5800.0 210.0,5774.0 C 248.0,5753.0 260.0,5741.0 260.0,5724.0 C 260.0,5704.0 267.0,5699.0 300.0,5694.0 C 325.0,5690.0 345.0,5679.0 355.0,5664.0 C 363.0,5652.0 399.0,5625.0 435.0,5605.0 C 488.0,5575.0 500.0,5564.0 500.0,5543.0 C 500.0,5527.0 504.0,5520.0 513.0,5523.0 C 519.0,5526.0 532.0,5531.0 541.0,5535.0 C 554.0,5540.0 561.0,5533.0 570.0,5506.0 C 576.0,5487.0 580.0,5461.0 578.0,5449.0 C 576.0,5432.0 585.0,5424.0 630.0,5406.0 C 685.0,5384.0 685.0,5384.0 682.0,5344.0 C 679.0,5307.0 638.0,5230.0 599.0,5185.0 C 589.0,5174.0 578.0,5142.0 574.0,5113.0 C 568.0,5065.0 565.0,5060.0 534.0,5050.0 C 515.0,5044.0 491.0,5025.0 479.0,5009.0 L 458.0,4979.0 L 483.0,4952.0 C 496.0,4937.0 512.0,4912.0 517.0,4896.0 C 525.0,4870.0 534.0,4864.0 589.0,4852.0 C 638.0,4841.0 650.0,4835.0 646.0,4822.0 C 644.0,4813.0 639.0,4784.0 635.0,4757.0 C 629.0,4713.0 630.0,4709.0 654.0,4700.0 C 688.0,4687.0 717.0,4638.0 731.0,4569.0 C 741.0,4519.0 746.0,4511.0 776.0,4497.0 C 804.0,4483.0 810.0,4475.0 810.0,4448.0 C 810.0,4431.0 820.0,4386.0 832.0,4349.0 C 849.0,4296.0 859.0,4280.0 876.0,4276.0 C 889.0,4272.0 921.0,4256.0 947.0,4240.0 C 993.0,4211.0 998.0,4205.0 1018.0,4137.0 L 1039.0,4064.0 L 1097.0,4064.0 C 1129.0,4065.0 1163.0,4061.0 1172.0,4056.0 C 1186.0,4050.0 1190.0,4052.0 1190.0,4069.0 C 1190.0,4081.0 1196.0,4090.0 1204.0,4090.0 C 1238.0,4090.0 1307.0,4056.0 1346.0,4020.0 C 1370.0,3998.0 1396.0,3980.0 1405.0,3980.0 C 1415.0,3980.0 1420.0,3970.0 1420.0,3951.0 C 1420.0,3932.0 1434.0,3904.0 1458.0,3873.0 C 1479.0,3847.0 1506.0,3809.0 1518.0,3789.0 C 1529.0,3770.0 1560.0,3739.0 1585.0,3721.0 C 1622.0,3694.0 1630.0,3683.0 1630.0,3656.0 C 1630.0,3631.0 1639.0,3617.0 1674.0,3587.0 C 1710.0,3557.0 1727.0,3550.0 1762.0,3550.0 C 1801.0,3549.0 1812.0,3543.0 1883.0,3477.0 L 1960.0,3404.0 L 1975.0,3325.0 C 1991.0,3239.0 1992.0,3238.0 2089.0,3168.0 L 2133.0,3136.0 L 2127.0,3173.0 L 2121.0,3210.0 L 2179.0,3210.0 C 2224.0,3210.0 2241.0,3206.0 2255.0,3190.0 C 2265.0,3179.0 2281.0,3170.0 2290.0,3170.0 C 2314.0,3170.0 2324.0,3156.0 2355.0,3078.0 C 2384.0,3006.0 2384.0,3006.0 2443.0,3019.0 C 2480.0,3028.0 2482.0,3027.0 2495.0,2995.0 C 2503.0,2977.0 2520.0,2949.0 2533.0,2934.0 C 2575.0,2884.0 2600.0,2827.0 2588.0,2806.0 C 2574.0,2781.0 2593.0,2770.0 2649.0,2770.0 C 2690.0,2770.0 2699.0,2765.0 2760.0,2706.0 C 2797.0,2670.0 2839.0,2638.0 2853.0,2635.0 C 2877.0,2629.0 2950.0,2543.0 2950.0,2522.0 C 2950.0,2517.0 2938.0,2508.0 2924.0,2501.0 L 2899.0,2490.0 L 2929.0,2451.0 C 2970.0,2400.0 2975.0,2396.0 3050.0,2370.0 C 3099.0,2352.0 3138.0,2346.0 3207.0,2346.0 L 3299.0,2345.0 L 3340.0,2305.0 L 3380.0,2266.0 L 3408.0,2293.0 C 3423.0,2308.0 3443.0,2320.0 3452.0,2320.0 C 3464.0,2320.0 3467.0,2326.0 3463.0,2341.0 C 3458.0,2361.0 3460.0,2362.0 3490.0,2358.0 C 3520.0,2353.0 3523.0,2356.0 3541.0,2397.0 C 3551.0,2422.0 3560.0,2453.0 3560.0,2466.0 C 3560.0,2500.0 3591.0,2497.0 3613.0,2461.0 C 3627.0,2437.0 3641.0,2429.0 3685.0,2420.0 C 3732.0,2410.0 3742.0,2411.0 3766.0,2426.0 C 3791.0,2443.0 3793.0,2443.0 3806.0,2425.0 C 3814.0,2415.0 3820.0,2402.0 3820.0,2397.0 C 3820.0,2392.0 3831.0,2391.0 3844.0,2394.0 C 3864.0,2399.0 3874.0,2393.0 3894.0,2368.0 L 3919.0,2336.0 L 3943.0,2358.0 C 3964.0,2378.0 3968.0,2393.0 3973.0,2468.0 C 3981.0,2589.0 3992.0,2621.0 4034.0,2644.0 C 4077.0,2667.0 4120.0,2727.0 4120.0,2763.0 C 4120.0,2796.0 4125.0,2796.0 4225.0,2764.0 C 4306.0,2737.0 4356.0,2732.0 4371.0,2747.0 C 4376.0,2752.0 4370.0,2775.0 4358.0,2799.0 C 4338.0,2840.0 4338.0,2844.0 4353.0,2893.0 C 4362.0,2922.0 4367.0,2955.0 4364.0,2966.0 C 4361.0,2978.0 4368.0,3006.0 4380.0,3029.0 L 4401.0,3071.0 L 4381.0,3126.0 C 4352.0,3203.0 4353.0,3244.0 4385.0,3258.0 C 4402.0,3266.0 4410.0,3278.0 4410.0,3295.0 C 4410.0,3314.0 4415.0,3320.0 4433.0,3320.0 C 4476.0,3320.0 4500.0,3308.0 4506.0,3284.0 C 4512.0,3262.0 4517.0,3260.0 4569.0,3260.0 L 4626.0,3260.0 L 4648.0,3214.0 C 4667.0,3175.0 4674.0,3169.0 4693.0,3174.0 C 4705.0,3177.0 4734.0,3180.0 4758.0,3180.0 C 4797.0,3180.0 4802.0,3183.0 4817.0,3215.0 C 4833.0,3248.0 4836.0,3250.0 4884.0,3250.0 C 4926.0,3250.0 4945.0,3244.0 4987.0,3215.0 C 5020.0,3193.0 5058.0,3177.0 5086.0,3173.0 C 5126.0,3168.0 5135.0,3162.0 5144.0,3139.0 C 5152.0,3116.0 5168.0,3106.0 5230.0,3083.0 C 5271.0,3068.0 5328.0,3039.0 5357.0,3017.0 C 5397.0,2987.0 5423.0,2976.0 5476.0,2968.0 C 5523.0,2960.0 5545.0,2960.0 5547.0,2967.0 C 5549.0,2972.0 5556.0,2985.0 5563.0,2994.0 C 5574.0,3009.0 5586.0,3004.0 5689.0,2946.0 C 5755.0,2908.0 5828.0,2857.0 5864.0,2823.0 C 5897.0,2791.0 5946.0,2748.0 5971.0,2727.0 L 6017.0,2690.0 L 6160.0,2690.0 C 6266.0,2690.0 6317.0,2686.0 6356.0,2673.0 C 6407.0,2657.0 6410.0,2657.0 6430.0,2675.0 C 6446.0,2689.0 6453.0,2691.0 6462.0,2682.0 C 6483.0,2661.0 6495.0,2669.0 6554.0,2740.0 C 6607.0,2803.0 6616.0,2810.0 6649.0,2810.0 C 6669.0,2810.0 6694.0,2817.0 6705.0,2825.0 C 6722.0,2839.0 6727.0,2837.0 6760.0,2805.0 C 6794.0,2772.0 6797.0,2771.0 6833.0,2782.0 C 6868.0,2793.0 6872.0,2792.0 6900.0,2765.0 C 6919.0,2746.0 6930.0,2725.0 6932.0,2701.0 C 6935.0,2666.0 6936.0,2665.0 6971.0,2668.0 C 6993.0,2670.0 7032.0,2661.0 7071.0,2646.0 C 7134.0,2620.0 7137.0,2620.0 7210.0,2634.0 C 7251.0,2642.0 7286.0,2647.0 7288.0,2646.0 C 7289.0,2644.0 7298.0,2601.0 7307.0,2549.0 C 7316.0,2497.0 7326.0,2452.0 7330.0,2447.0 C 7333.0,2443.0 7346.0,2473.0 7359.0,2512.0 C 7372.0,2552.0 7392.0,2596.0 7404.0,2610.0 C 7417.0,2624.0 7432.0,2655.0 7439.0,2680.0 C 7447.0,2709.0 7468.0,2741.0 7495.0,2770.0 C 7519.0,2795.0 7556.0,2839.0 7578.0,2869.0 C 7615.0,2921.0 7620.0,2925.0 7686.0,2940.0 L 7755.0,2957.0 L 7852.0,2907.0 L 7949.0,2856.0 L 8042.0,2892.0 L 8135.0,2927.0 L 8176.0,2904.0 C 8229.0,2873.0 8249.0,2874.0 8308.0,2909.0 C 8339.0,2927.0 8379.0,2940.0 8417.0,2945.0 L 8477.0,2952.0 L 8520.0,3041.0 L 8564.0,3130.0 L 8605.0,3129.0 C 8674.0,3127.0 8729.0,3159.0 8790.0,3238.0 C 8822.0,3279.0 8855.0,3311.0 8870.0,3315.0 C 8883.0,3319.0 8923.0,3338.0 8957.0,3359.0 C 9031.0,3403.0 9070.0,3457.0 9106.0,3564.0 C 9119.0,3603.0 9139.0,3644.0 9151.0,3656.0 C 9167.0,3673.0 9174.0,3698.0 9179.0,3757.0 C 9184.0,3807.0 9195.0,3853.0 9211.0,3885.0 L 9235.0,3934.0 L 9350.0,3970.0 C 9413.0,3991.0 9488.0,4018.0 9515.0,4031.0 C 9560.0,4053.0 9567.0,4061.0 9585.0,4113.0 C 9599.0,4150.0 9622.0,4186.0 9652.0,4217.0 C 9678.0,4244.0 9709.0,4289.0 9722.0,4319.0 C 9743.0,4367.0 9750.0,4374.0 9800.0,4394.0 L 9854.0,4416.0 L 9924.0,4397.0 L 9993.0,4378.0 L 10106.0,4420.0 C 10219.0,4462.0 10220.0,4462.0 10230.0,4502.0 C 10240.0,4536.0 10237.0,4551.0 10211.0,4623.0 C 10194.0,4668.0 10176.0,4725.0 10169.0,4750.0 C 10156.0,4802.0 10126.0,4840.0 10096.0,4840.0 C 10057.0,4840.0 10031.0,4852.0 10025.0,4871.0 C 10020.0,4885.0 10009.0,4890.0 9984.0,4890.0 C 9928.0,4890.0 9890.0,4915.0 9890.0,4951.0 C 9890.0,4968.0 9872.0,5023.0 9850.0,5072.0 C 9828.0,5122.0 9810.0,5167.0 9810.0,5171.0 C 9810.0,5176.0 9821.0,5198.0 9835.0,5220.0 C 9849.0,5242.0 9860.0,5262.0 9860.0,5265.0 C 9860.0,5268.0 9847.0,5270.0 9830.0,5270.0 C 9814.0,5270.0 9800.0,5273.0 9800.0,5278.0 C 9801.0,5282.0 9805.0,5304.0 9809.0,5327.0 C 9816.0,5365.0 9815.0,5371.0 9793.0,5385.0 C 9770.0,5400.0 9769.0,5400.0 9759.0,5370.0 C 9749.0,5343.0 9744.0,5340.0 9707.0,5340.0 C 9675.0,5340.0 9659.0,5347.0 9634.0,5371.0 C 9611.0,5394.0 9584.0,5406.0 9538.0,5416.0 C 9453.0,5434.0 9453.0,5434.0 9441.0,5399.0 L 9430.0,5368.0 L 9400.0,5390.0 C 9383.0,5402.0 9363.0,5424.0 9355.0,5440.0 C 9346.0,5457.0 9327.0,5473.0 9307.0,5479.0 C 9281.0,5488.0 9269.0,5501.0 9253.0,5538.0 L 9233.0,5585.0 L 9220.0,5558.0 C 9204.0,5525.0 9199.0,5524.0 9143.0,5548.0 C 9109.0,5561.0 9099.0,5571.0 9094.0,5595.0 C 9091.0,5612.0 9069.0,5647.0 9045.0,5674.0 L 9002.0,5723.0 L 8980.0,5680.0 C 8968.0,5657.0 8960.0,5637.0 8962.0,5635.0 C 8964.0,5634.0 8975.0,5627.0 8988.0,5621.0 C 9000.0,5615.0 9010.0,5602.0 9010.0,5593.0 C 9010.0,5581.0 9003.0,5579.0 8979.0,5584.0 C 8953.0,5589.0 8939.0,5583.0 8892.0,5546.0 C 8848.0,5512.0 8824.0,5501.0 8785.0,5496.0 C 8736.0,5490.0 8734.0,5491.0 8676.0,5543.0 C 8633.0,5582.0 8606.0,5619.0 8571.0,5686.0 L 8525.0,5775.0 L 8485.0,5775.0 C 8443.0,5775.0 8417.0,5796.0 8346.0,5892.0 L 8319.0,5928.0 L 8370.0,5939.0 C 8398.0,5945.0 8437.0,5950.0 8456.0,5950.0 C 8483.0,5950.0 8493.0,5955.0 8502.0,5974.0 C 8508.0,5988.0 8526.0,6004.0 8541.0,6011.0 C 8565.0,6020.0 8570.0,6028.0 8570.0,6057.0 C 8570.0,6076.0 8561.0,6105.0 8550.0,6120.0 C 8532.0,6146.0 8531.0,6151.0 8544.0,6188.0 L 8558.0,6227.0 L 8510.0,6263.0 L 8462.0,6299.0 L 8456.0,6269.0 C 8453.0,6252.0 8441.0,6225.0 8429.0,6209.0 C 8409.0,6181.0 8406.0,6180.0 8327.0,6180.0 C 8274.0,6180.0 8222.0,6173.0 8180.0,6160.0 C 8089.0,6132.0 8071.0,6134.0 8059.0,6170.0 C 8046.0,6207.0 8031.0,6208.0 7999.0,6174.0 C 7975.0,6149.0 7975.0,6149.0 7959.0,6169.0 C 7947.0,6184.0 7944.0,6202.0 7947.0,6235.0 L 7953.0,6280.0 L 7915.0,6280.0 C 7888.0,6280.0 7857.0,6292.0 7809.0,6322.0 C 7750.0,6358.0 7740.0,6369.0 7740.0,6392.0 C 7740.0,6419.0 7739.0,6420.0 7681.0,6420.0 C 7626.0,6420.0 7620.0,6422.0 7600.0,6450.0 C 7582.0,6475.0 7572.0,6480.0 7538.0,6480.0 C 7514.0,6480.0 7489.0,6487.0 7479.0,6496.0 C 7462.0,6511.0 7302.0,6560.0 7268.0,6560.0 C 7258.0,6560.0 7242.0,6544.0 7230.0,6521.0 L 7210.0,6481.0 L 7244.0,6453.0 C 7278.0,6425.0 7299.0,6383.0 7320.0,6303.0 C 7330.0,6264.0 7333.0,6260.0 7385.0,6245.0 C 7436.0,6231.0 7440.0,6227.0 7440.0,6199.0 C 7440.0,6182.0 7445.0,6148.0 7451.0,6123.0 C 7461.0,6086.0 7460.0,6076.0 7449.0,6069.0 C 7424.0,6054.0 7405.0,6059.0 7389.0,6087.0 L 7372.0,6113.0 L 7361.0,6092.0 C 7352.0,6075.0 7340.0,6070.0 7310.0,6070.0 C 7276.0,6070.0 7268.0,6066.0 7254.0,6038.0 C 7232.0,5994.0 7233.0,5994.0 7212.0,6020.0 L 7194.0,6042.0 L 7163.0,6016.0 C 7145.0,6001.0 7115.0,5960.0 7095.0,5925.0 C 7071.0,5881.0 7053.0,5860.0 7040.0,5860.0 C 7028.0,5860.0 7018.0,5848.0 7010.0,5824.0 L 6998.0,5787.0 L 6948.0,5793.0 C 6921.0,5797.0 6883.0,5809.0 6864.0,5821.0 C 6817.0,5849.0 6775.0,5936.0 6766.0,6018.0 C 6760.0,6082.0 6760.0,6082.0 6669.0,6181.0 C 6590.0,6266.0 6571.0,6281.0 6538.0,6286.0 C 6486.0,6295.0 6458.0,6333.0 6467.0,6385.0 L 6473.0,6422.0 L 6400.0,6419.0 L 6327.0,6415.0 L 6313.0,6458.0 C 6300.0,6496.0 6295.0,6500.0 6266.0,6500.0 C 6241.0,6500.0 6231.0,6506.0 6222.0,6525.0 C 6206.0,6559.0 6206.0,6560.0 6234.0,6560.0 C 6252.0,6560.0 6260.0,6566.0 6262.0,6582.0 C 6264.0,6596.0 6284.0,6615.0 6323.0,6637.0 C 6368.0,6664.0 6380.0,6676.0 6380.0,6696.0 C 6380.0,6720.0 6381.0,6720.0 6407.0,6706.0 C 6432.0,6694.0 6437.0,6694.0 6471.0,6717.0 C 6514.0,6745.0 6540.0,6794.0 6521.0,6813.0 C 6500.0,6834.0 6510.0,6847.0 6550.0,6854.0 C 6572.0,6857.0 6590.0,6862.0 6590.0,6865.0 C 6590.0,6867.0 6558.0,6914.0 6519.0,6970.0 C 6455.0,7061.0 6446.0,7070.0 6417.0,7070.0 C 6386.0,7070.0 6337.0,7080.0 6293.0,7094.0 C 6274.0,7100.0 6270.0,7095.0 6255.0,7050.0 C 6242.0,7011.0 6233.0,6999.0 6212.0,6993.0 C 6192.0,6988.0 6182.0,6992.0 6166.0,7013.0 C 6154.0,7027.0 6126.0,7043.0 6102.0,7050.0 C 6047.0,7064.0 6013.0,7043.0 6004.0,6988.0 C 5998.0,6951.0 5997.0,6950.0 5952.0,6950.0 L 5907.0,6950.0 L 5913.0,6993.0 C 5917.0,7021.0 5914.0,7049.0 5902.0,7078.0 L 5885.0,7122.0 L 5835.0,7115.0 C 5808.0,7112.0 5769.0,7107.0 5749.0,7103.0 C 5715.0,7098.0 5712.0,7100.0 5687.0,7143.0 C 5672.0,7168.0 5660.0,7199.0 5660.0,7213.0 C 5660.0,7226.0 5649.0,7247.0 5634.0,7260.0 C 5613.0,7281.0 5607.0,7282.0 5600.0,7270.0 C 5595.0,7262.0 5590.0,7252.0 5590.0,7248.0 C 5590.0,7233.0 5511.0,7240.0 5468.0,7258.0 C 5444.0,7269.0 5407.0,7280.0 5385.0,7284.0 C 5307.0,7298.0 5154.0,7353.0 5119.0,7381.0 C 5099.0,7397.0 5077.0,7410.0 5072.0,7410.0 C 5066.0,7410.0 5047.0,7390.0 5030.0,7365.0 C 5004.0,7328.0 4996.0,7322.0 4981.0,7330.0 C 4967.0,7337.0 4961.0,7357.0 4956.0,7410.0 C 4948.0,7485.0 4939.0,7500.0 4881.0,7529.0 C 4849.0,7546.0 4843.0,7555.0 4827.0,7613.0 C 4814.0,7664.0 4812.0,7684.0 4821.0,7703.0 C 4834.0,7731.0 4819.0,7770.0 4795.0,7770.0 C 4787.0,7770.0 4780.0,7776.0 4780.0,7783.0 C 4779.0,7815.0 4764.0,7823.0 4726.0,7809.0 C 4690.0,7796.0 4688.0,7796.0 4664.0,7828.0 L 4638.0,7860.0 L 4618.0,7834.0 L 4597.0,7808.0 L 4578.0,7838.0 C 4562.0,7863.0 4552.0,7868.0 4501.0,7874.0 C 4433.0,7882.0 4394.0,7869.0 4386.0,7835.0 C 4383.0,7822.0 4377.0,7805.0 4374.0,7797.0 C 4370.0,7786.0 4376.0,7781.0 4392.0,7778.0 C 4411.0,7776.0 4416.0,7768.0 4418.0,7739.0 C 4421.0,7708.0 4416.0,7699.0 4391.0,7680.0 C 4363.0,7660.0 4361.0,7657.0 4375.0,7637.0 C 4383.0,7625.0 4392.0,7596.0 4396.0,7573.0 C 4402.0,7535.0 4400.0,7531.0 4379.0,7528.0 C 4366.0,7526.0 4321.0,7529.0 4281.0,7533.0 C 4240.0,7538.0 4187.0,7539.0 4165.0,7535.0 C 4125.0,7530.0 4123.0,7527.0 4107.0,7476.0 L 4090.0,7422.0 L 4037.0,7437.0 C 3969.0,7456.0 3840.0,7511.0 3840.0,7522.0 C 3840.0,7526.0 3849.0,7553.0 3860.0,7582.0 L 3880.0,7635.0 L 3856.0,7659.0 L 3831.0,7683.0 L 3795.0,7655.0 C 3765.0,7633.0 3756.0,7630.0 3749.0,7641.0 C 3736.0,7661.0 3738.0,7673.0 3761.0,7736.0 C 3782.0,7792.0 3782.0,7794.0 3764.0,7828.0 C 3752.0,7850.0 3732.0,7867.0 3708.0,7877.0 C 3676.0,7890.0 3670.0,7897.0 3670.0,7921.0 C 3670.0,7956.0 3666.0,7957.0 3623.0,7924.0 C 3605.0,7910.0 3574.0,7892.0 3554.0,7884.0 C 3518.0,7869.0 3517.0,7869.0 3486.0,7899.0 C 3467.0,7917.0 3443.0,7930.0 3429.0,7930.0 C 3415.0,7930.0 3395.0,7939.0 3385.0,7950.0 C 3366.0,7971.0 3354.0,7975.0 3347.0,7963.0" fill="pink"/>
</svg>
