<?xml version="1.0" ?>
<svg xmlns="http://www.w3.org/2000/svg" xmlns:ev="http://www.w3.org/2001/xml-events" xmlns:xlink="http://www.w3.org/1999/xlink" baseProfile="full" height="600px" version="1.1" viewBox="-308.4658547460251 -1027.1016859990825 10850.392113486487 12297.794060488468" width="530px">
	<defs/>
	<path d="M 3047.0,10193.0 C 2973.0,10065.0 2958.0,10020.0 2957.0,9920.0 C 2955.0,9841.0 2958.0,9825.0 2970.0,9825.0 C 2982.0,9825.0 2986.0,9841.0 2988.0,9897.0 C 2992.0,9986.0 3003.0,9999.0 3060.0,9980.0 C 3094.0,9969.0 3105.0,9969.0 3137.0,9983.0 C 3192.0,10006.0 3280.0,10016.0 3280.0,9998.0 C 3280.0,9991.0 3298.0,9963.0 3320.0,9935.0 C 3342.0,9908.0 3360.0,9880.0 3360.0,9873.0 C 3360.0,9867.0 3378.0,9840.0 3400.0,9813.0 C 3421.0,9787.0 3451.0,9751.0 3465.0,9734.0 C 3479.0,9716.0 3490.0,9690.0 3490.0,9676.0 C 3490.0,9654.0 3494.0,9650.0 3518.0,9650.0 C 3535.0,9650.0 3555.0,9641.0 3567.0,9628.0 C 3589.0,9603.0 3614.0,9560.0 3608.0,9555.0 C 3606.0,9554.0 3579.0,9545.0 3547.0,9536.0 C 3502.0,9523.0 3490.0,9515.0 3494.0,9504.0 C 3497.0,9495.0 3500.0,9484.0 3500.0,9479.0 C 3500.0,9474.0 3520.0,9470.0 3544.0,9470.0 C 3577.0,9470.0 3596.0,9477.0 3625.0,9500.0 L 3664.0,9531.0 L 3677.0,9499.0 C 3693.0,9459.0 3694.0,9460.0 3672.0,9460.0 C 3662.0,9460.0 3633.0,9447.0 3607.0,9430.0 C 3561.0,9401.0 3555.0,9400.0 3441.0,9400.0 C 3337.0,9400.0 3321.0,9398.0 3305.0,9380.0 C 3288.0,9362.0 3289.0,9361.0 3316.0,9354.0 C 3358.0,9344.0 3362.0,9340.0 3349.0,9324.0 C 3343.0,9316.0 3323.0,9310.0 3304.0,9310.0 C 3279.0,9310.0 3270.0,9305.0 3264.0,9288.0 C 3259.0,9270.0 3266.0,9259.0 3301.0,9229.0 L 3345.0,9192.0 L 3374.0,9213.0 C 3391.0,9225.0 3423.0,9235.0 3449.0,9237.0 C 3474.0,9238.0 3518.0,9241.0 3545.0,9243.0 C 3573.0,9244.0 3601.0,9250.0 3609.0,9254.0 C 3619.0,9261.0 3621.0,9259.0 3615.0,9249.0 C 3597.0,9218.0 3577.0,9201.0 3551.0,9195.0 C 3530.0,9190.0 3522.0,9179.0 3508.0,9137.0 C 3492.0,9087.0 3493.0,9084.0 3513.0,9055.0 C 3524.0,9039.0 3534.0,9024.0 3535.0,9022.0 C 3536.0,9021.0 3563.0,9023.0 3595.0,9028.0 L 3652.0,9037.0 L 3667.0,9005.0 C 3678.0,8982.0 3681.0,8959.0 3676.0,8926.0 C 3668.0,8876.0 3658.0,8871.0 3605.0,8894.0 C 3573.0,8907.0 3530.0,8904.0 3530.0,8888.0 C 3530.0,8869.0 3580.0,8794.0 3615.0,8760.0 C 3647.0,8729.0 3658.0,8725.0 3703.0,8724.0 C 3842.0,8723.0 3923.0,8708.0 3989.0,8672.0 C 4047.0,8640.0 4055.0,8631.0 4081.0,8574.0 C 4105.0,8521.0 4117.0,8507.0 4153.0,8489.0 C 4203.0,8463.0 4206.0,8459.0 4214.0,8409.0 C 4219.0,8377.0 4227.0,8367.0 4273.0,8341.0 C 4314.0,8317.0 4442.0,8280.0 4483.0,8280.0 C 4487.0,8280.0 4490.0,8270.0 4490.0,8259.0 C 4490.0,8241.0 4486.0,8239.0 4463.0,8244.0 C 4447.0,8247.0 4410.0,8254.0 4380.0,8259.0 C 4350.0,8264.0 4299.0,8280.0 4268.0,8294.0 C 4221.0,8315.0 4207.0,8327.0 4189.0,8362.0 C 4177.0,8386.0 4139.0,8437.0 4105.0,8475.0 C 4071.0,8514.0 4031.0,8562.0 4015.0,8583.0 C 3958.0,8660.0 3848.0,8690.0 3750.0,8655.0 C 3704.0,8639.0 3574.0,8636.0 3482.0,8649.0 C 3442.0,8655.0 3421.0,8664.0 3395.0,8690.0 C 3364.0,8720.0 3359.0,8722.0 3333.0,8711.0 C 3277.0,8688.0 3254.0,8656.0 3206.0,8539.0 C 3181.0,8476.0 3160.0,8420.0 3160.0,8415.0 C 3160.0,8410.0 3177.0,8377.0 3199.0,8341.0 C 3254.0,8247.0 3256.0,8235.0 3226.0,8200.0 C 3211.0,8182.0 3199.0,8151.0 3195.0,8122.0 C 3191.0,8096.0 3186.0,8066.0 3183.0,8055.0 C 3177.0,8035.0 3177.0,8035.0 3169.0,8055.0 C 3154.0,8094.0 3160.0,8158.0 3181.0,8195.0 C 3193.0,8214.0 3200.0,8236.0 3197.0,8243.0 C 3194.0,8251.0 3165.0,8266.0 3133.0,8278.0 C 3100.0,8290.0 3063.0,8311.0 3050.0,8325.0 C 3033.0,8343.0 3016.0,8350.0 2990.0,8350.0 C 2959.0,8350.0 2952.0,8345.0 2938.0,8317.0 C 2930.0,8300.0 2919.0,8270.0 2916.0,8252.0 C 2908.0,8220.0 2909.0,8220.0 2948.0,8220.0 C 2991.0,8220.0 3000.0,8210.0 3000.0,8161.0 C 3000.0,8143.0 2988.0,8123.0 2967.0,8102.0 C 2924.0,8060.0 2889.0,8060.0 2860.0,8100.0 C 2846.0,8120.0 2830.0,8130.0 2812.0,8130.0 C 2775.0,8131.0 2750.0,8152.0 2750.0,8183.0 C 2750.0,8203.0 2756.0,8210.0 2779.0,8215.0 C 2795.0,8218.0 2815.0,8229.0 2824.0,8239.0 C 2839.0,8255.0 2838.0,8261.0 2810.0,8316.0 C 2786.0,8364.0 2774.0,8378.0 2745.0,8389.0 C 2712.0,8400.0 2709.0,8404.0 2715.0,8430.0 C 2720.0,8455.0 2717.0,8461.0 2692.0,8474.0 C 2668.0,8487.0 2643.0,8487.0 2534.0,8479.0 C 2463.0,8474.0 2365.0,8460.0 2317.0,8450.0 C 2254.0,8436.0 2223.0,8433.0 2210.0,8440.0 C 2184.0,8454.0 2129.0,8452.0 2031.0,8435.0 C 1942.0,8420.0 1903.0,8399.0 1830.0,8333.0 C 1789.0,8297.0 1781.0,8280.0 1803.0,8280.0 C 1809.0,8280.0 1821.0,8276.0 1829.0,8271.0 C 1840.0,8264.0 1839.0,8257.0 1825.0,8232.0 C 1809.0,8206.0 1804.0,8204.0 1789.0,8213.0 C 1774.0,8222.0 1767.0,8221.0 1756.0,8210.0 C 1739.0,8191.0 1700.0,8074.0 1700.0,8039.0 C 1700.0,7997.0 1720.0,7988.0 1812.0,7990.0 C 1959.0,7994.0 1954.0,7998.0 1920.0,7903.0 C 1909.0,7871.0 1900.0,7833.0 1900.0,7817.0 C 1900.0,7800.0 1895.0,7770.0 1888.0,7748.0 C 1879.0,7719.0 1879.0,7707.0 1888.0,7698.0 C 1896.0,7690.0 1900.0,7649.0 1900.0,7584.0 L 1900.0,7483.0 L 1846.0,7399.0 C 1799.0,7326.0 1788.0,7299.0 1764.0,7194.0 L 1735.0,7072.0 L 1682.0,7067.0 C 1652.0,7064.0 1617.0,7065.0 1603.0,7071.0 C 1560.0,7087.0 1490.0,7082.0 1454.0,7059.0 C 1416.0,7036.0 1410.0,7008.0 1438.0,6977.0 C 1447.0,6966.0 1450.0,6960.0 1444.0,6963.0 C 1437.0,6967.0 1422.0,6962.0 1409.0,6951.0 C 1388.0,6934.0 1387.0,6930.0 1398.0,6892.0 C 1407.0,6863.0 1421.0,6845.0 1446.0,6830.0 C 1477.0,6810.0 1492.0,6808.0 1588.0,6811.0 L 1695.0,6815.0 L 1737.0,6770.0 L 1779.0,6724.0 L 1749.0,6675.0 C 1722.0,6630.0 1720.0,6619.0 1724.0,6567.0 C 1730.0,6511.0 1728.0,6507.0 1699.0,6482.0 C 1682.0,6467.0 1627.0,6432.0 1577.0,6405.0 C 1505.0,6366.0 1481.0,6347.0 1468.0,6320.0 C 1444.0,6270.0 1446.0,6254.0 1485.0,6203.0 C 1504.0,6178.0 1520.0,6154.0 1520.0,6151.0 C 1520.0,6136.0 1365.0,6089.0 1238.0,6064.0 C 1107.0,6039.0 1100.0,6036.0 1100.0,6014.0 C 1100.0,6001.0 1097.0,5990.0 1094.0,5990.0 C 1091.0,5990.0 1040.0,6011.0 982.0,6037.0 C 902.0,6073.0 875.0,6081.0 872.0,6071.0 C 863.0,6043.0 832.0,6023.0 789.0,6016.0 C 765.0,6012.0 729.0,6005.0 709.0,6000.0 L 673.0,5990.0 L 687.0,5928.0 C 697.0,5884.0 712.0,5853.0 741.0,5819.0 C 770.0,5784.0 780.0,5763.0 780.0,5737.0 C 780.0,5708.0 787.0,5696.0 823.0,5667.0 C 920.0,5587.0 916.0,5594.0 924.0,5482.0 L 932.0,5381.0 L 850.0,5260.0 C 805.0,5193.0 770.0,5137.0 772.0,5135.0 C 774.0,5133.0 795.0,5135.0 820.0,5140.0 C 845.0,5145.0 866.0,5147.0 868.0,5145.0 C 870.0,5143.0 860.0,5119.0 846.0,5092.0 C 824.0,5049.0 810.0,5036.0 745.0,5000.0 C 682.0,4965.0 663.0,4959.0 634.0,4964.0 L 600.0,4971.0 L 600.0,4917.0 L 600.0,4862.0 L 663.0,4845.0 C 720.0,4830.0 729.0,4824.0 753.0,4784.0 C 768.0,4759.0 780.0,4737.0 780.0,4734.0 C 780.0,4730.0 767.0,4711.0 750.0,4690.0 C 721.0,4653.0 714.0,4619.0 726.0,4573.0 C 731.0,4555.0 740.0,4550.0 782.0,4548.0 L 832.0,4545.0 L 855.0,4491.0 C 875.0,4442.0 911.0,4408.0 965.0,4386.0 C 971.0,4384.0 955.0,4365.0 931.0,4343.0 L 888.0,4305.0 L 906.0,4267.0 C 922.0,4234.0 928.0,4230.0 962.0,4230.0 C 989.0,4230.0 1008.0,4222.0 1031.0,4202.0 L 1062.0,4174.0 L 1050.0,4117.0 L 1037.0,4059.0 L 1070.0,4025.0 L 1104.0,3990.0 L 1071.0,3990.0 C 1047.0,3990.0 1021.0,3977.0 976.0,3944.0 C 943.0,3918.0 909.0,3895.0 903.0,3893.0 C 896.0,3890.0 881.0,3856.0 869.0,3816.0 C 838.0,3714.0 847.0,3616.0 894.0,3523.0 C 924.0,3463.0 937.0,3448.0 1006.0,3401.0 C 1057.0,3365.0 1102.0,3342.0 1138.0,3334.0 C 1168.0,3327.0 1196.0,3318.0 1200.0,3313.0 C 1204.0,3309.0 1215.0,3281.0 1223.0,3251.0 L 1239.0,3196.0 L 1154.0,3117.0 L 1070.0,3038.0 L 1070.0,2959.0 L 1070.0,2880.0 L 1101.0,2880.0 C 1123.0,2880.0 1153.0,2865.0 1201.0,2829.0 C 1267.0,2780.0 1270.0,2776.0 1270.0,2736.0 C 1270.0,2701.0 1276.0,2688.0 1306.0,2659.0 C 1326.0,2641.0 1355.0,2597.0 1371.0,2564.0 L 1399.0,2502.0 L 1475.0,2477.0 L 1550.0,2451.0 L 1550.0,2501.0 C 1550.0,2528.0 1555.0,2550.0 1560.0,2550.0 C 1566.0,2550.0 1605.0,2540.0 1646.0,2528.0 C 1728.0,2504.0 1740.0,2491.0 1740.0,2427.0 L 1741.0,2395.0 L 1766.0,2424.0 L 1792.0,2453.0 L 1855.0,2442.0 C 1942.0,2425.0 1955.0,2427.0 2000.0,2455.0 L 2040.0,2480.0 L 2105.0,2463.0 C 2164.0,2447.0 2171.0,2443.0 2184.0,2409.0 C 2199.0,2373.0 2204.0,2370.0 2292.0,2343.0 C 2382.0,2315.0 2389.0,2314.0 2506.0,2323.0 L 2627.0,2332.0 L 2678.0,2296.0 C 2724.0,2262.0 2736.0,2259.0 2814.0,2253.0 C 2861.0,2250.0 2900.0,2246.0 2900.0,2244.0 C 2900.0,2243.0 2867.0,2185.0 2828.0,2117.0 C 2757.0,1996.0 2751.0,1988.0 2635.0,1890.0 C 2569.0,1833.0 2509.0,1781.0 2502.0,1772.0 C 2495.0,1763.0 2490.0,1727.0 2490.0,1684.0 C 2490.0,1620.0 2484.0,1599.0 2435.0,1480.0 C 2405.0,1407.0 2364.0,1312.0 2344.0,1269.0 C 2321.0,1217.0 2302.0,1153.0 2290.0,1082.0 L 2272.0,975.0 L 2296.0,934.0 L 2319.0,893.0 L 2275.0,781.0 C 2235.0,683.0 2230.0,661.0 2230.0,593.0 C 2230.0,538.0 2236.0,499.0 2251.0,460.0 C 2262.0,430.0 2273.0,404.0 2274.0,402.0 C 2276.0,401.0 2293.0,407.0 2313.0,415.0 L 2350.0,430.0 L 2350.0,385.0 C 2350.0,360.0 2354.0,340.0 2359.0,340.0 C 2369.0,340.0 2378.0,343.0 2465.0,378.0 L 2516.0,398.0 L 2573.0,374.0 C 2624.0,352.0 2640.0,350.0 2705.0,356.0 C 2771.0,362.0 2782.0,366.0 2811.0,396.0 C 2841.0,427.0 2849.0,430.0 2901.0,430.0 C 2952.0,430.0 2961.0,427.0 2983.0,400.0 L 3008.0,370.0 L 3127.0,386.0 C 3309.0,410.0 3294.0,402.0 3286.0,463.0 C 3282.0,491.0 3277.0,516.0 3275.0,518.0 C 3273.0,520.0 3255.0,513.0 3233.0,502.0 C 3163.0,466.0 3155.0,466.0 3138.0,502.0 C 3117.0,548.0 3133.0,589.0 3190.0,634.0 C 3227.0,664.0 3243.0,670.0 3283.0,670.0 C 3324.0,670.0 3334.0,666.0 3359.0,638.0 C 3386.0,607.0 3387.0,603.0 3375.0,573.0 C 3363.0,544.0 3363.0,541.0 3383.0,536.0 C 3395.0,533.0 3424.0,530.0 3448.0,530.0 L 3491.0,530.0 L 3484.0,565.0 C 3480.0,587.0 3482.0,600.0 3488.0,600.0 C 3494.0,600.0 3505.0,603.0 3513.0,606.0 C 3524.0,610.0 3533.0,597.0 3545.0,558.0 C 3555.0,529.0 3563.0,504.0 3564.0,503.0 C 3565.0,502.0 3594.0,509.0 3628.0,519.0 L 3689.0,538.0 L 3772.0,514.0 C 3818.0,501.0 3880.0,490.0 3911.0,490.0 C 3965.0,490.0 3970.0,487.0 4100.0,395.0 L 4233.0,300.0 L 4301.0,300.0 C 4369.0,300.0 4369.0,300.0 4411.0,345.0 C 4434.0,370.0 4456.0,390.0 4460.0,390.0 C 4464.0,390.0 4473.0,379.0 4480.0,365.0 C 4491.0,344.0 4501.0,340.0 4539.0,340.0 C 4614.0,340.0 4652.0,324.0 4705.0,270.0 L 4754.0,220.0 L 4742.0,173.0 C 4727.0,117.0 4730.0,113.0 4813.0,104.0 C 4844.0,100.0 4870.0,93.0 4870.0,88.0 C 4870.0,83.0 4863.0,63.0 4855.0,43.0 C 4847.0,23.0 4842.0,5.0 4844.0,3.0 C 4851.0,-4.0 5012.0,27.0 5019.0,37.0 C 5022.0,42.0 5047.0,78.0 5073.0,117.0 C 5118.0,182.0 5121.0,190.0 5112.0,222.0 C 5102.0,257.0 5107.0,360.0 5119.0,360.0 C 5122.0,359.0 5145.0,355.0 5170.0,350.0 C 5198.0,345.0 5229.0,345.0 5253.0,351.0 C 5288.0,360.0 5296.0,358.0 5341.0,329.0 L 5391.0,297.0 L 5472.0,319.0 C 5516.0,331.0 5553.0,340.0 5554.0,338.0 C 5555.0,336.0 5566.0,297.0 5579.0,250.0 C 5591.0,203.0 5605.0,161.0 5610.0,156.0 C 5623.0,143.0 5757.0,164.0 5818.0,188.0 C 5874.0,211.0 5872.0,212.0 5884.0,158.0 L 5890.0,130.0 L 5966.0,183.0 C 6014.0,216.0 6046.0,245.0 6052.0,263.0 C 6062.0,289.0 6065.0,290.0 6128.0,290.0 C 6165.0,290.0 6200.0,294.0 6205.0,298.0 C 6211.0,302.0 6229.0,326.0 6245.0,352.0 C 6275.0,399.0 6276.0,400.0 6330.0,401.0 C 6360.0,401.0 6482.0,407.0 6600.0,413.0 C 6840.0,426.0 6822.0,419.0 6806.0,501.0 C 6799.0,535.0 6801.0,539.0 6833.0,559.0 C 6852.0,570.0 6870.0,580.0 6874.0,580.0 C 6877.0,580.0 6880.0,564.0 6880.0,545.0 C 6880.0,526.0 6881.0,510.0 6883.0,510.0 C 6884.0,510.0 6917.0,519.0 6955.0,530.0 C 6993.0,541.0 7032.0,550.0 7042.0,550.0 C 7051.0,550.0 7070.0,530.0 7084.0,505.0 C 7109.0,463.0 7113.0,460.0 7155.0,460.0 C 7179.0,460.0 7220.0,469.0 7247.0,481.0 C 7286.0,498.0 7306.0,500.0 7356.0,495.0 L 7418.0,489.0 L 7425.0,433.0 C 7430.0,395.0 7442.0,361.0 7463.0,329.0 C 7498.0,277.0 7515.0,270.0 7606.0,270.0 L 7660.0,270.0 L 7660.0,318.0 C 7660.0,359.0 7665.0,371.0 7690.0,395.0 C 7723.0,427.0 7725.0,437.0 7709.0,493.0 C 7697.0,536.0 7669.0,553.0 7589.0,564.0 L 7543.0,571.0 L 7583.0,648.0 L 7623.0,726.0 L 7600.0,783.0 C 7582.0,827.0 7566.0,846.0 7530.0,871.0 C 7490.0,899.0 7481.0,910.0 7474.0,949.0 C 7466.0,989.0 7461.0,996.0 7435.0,1000.0 C 7405.0,1005.0 7405.0,1006.0 7408.0,1060.0 C 7411.0,1106.0 7418.0,1122.0 7452.0,1162.0 C 7489.0,1206.0 7496.0,1210.0 7536.0,1210.0 C 7574.0,1210.0 7587.0,1216.0 7624.0,1250.0 C 7664.0,1287.0 7676.0,1292.0 7769.0,1309.0 C 7878.0,1329.0 7860.0,1318.0 8016.0,1455.0 C 8049.0,1484.0 8051.0,1489.0 8057.0,1570.0 C 8062.0,1644.0 8067.0,1660.0 8093.0,1692.0 L 8122.0,1728.0 L 8193.0,1689.0 C 8312.0,1623.0 8306.0,1625.0 8345.0,1646.0 C 8365.0,1656.0 8394.0,1682.0 8411.0,1703.0 L 8442.0,1741.0 L 8419.0,1802.0 L 8397.0,1863.0 L 8421.0,1932.0 L 8445.0,2001.0 L 8413.0,2030.0 C 8395.0,2047.0 8375.0,2069.0 8368.0,2079.0 C 8360.0,2090.0 8339.0,2102.0 8320.0,2107.0 C 8293.0,2114.0 8284.0,2124.0 8272.0,2157.0 C 8259.0,2190.0 8250.0,2200.0 8220.0,2209.0 C 8169.0,2224.0 8149.0,2223.0 8135.0,2203.0 C 8124.0,2188.0 8119.0,2189.0 8078.0,2215.0 C 8038.0,2240.0 8031.0,2250.0 8021.0,2296.0 C 8011.0,2341.0 8001.0,2356.0 7960.0,2390.0 C 7918.0,2425.0 7909.0,2429.0 7886.0,2421.0 C 7864.0,2412.0 7858.0,2415.0 7836.0,2443.0 C 7822.0,2461.0 7805.0,2481.0 7798.0,2487.0 C 7717.0,2565.0 7656.0,2636.0 7658.0,2650.0 C 7659.0,2658.0 7640.0,2680.0 7615.0,2697.0 C 7570.0,2730.0 7523.0,2739.0 7503.0,2719.0 C 7486.0,2702.0 7391.0,2747.0 7384.0,2776.0 C 7380.0,2790.0 7361.0,2809.0 7337.0,2822.0 C 7294.0,2846.0 7283.0,2868.0 7281.0,2932.0 C 7280.0,2964.0 7276.0,2969.0 7251.0,2975.0 C 7225.0,2981.0 7220.0,2987.0 7215.0,3024.0 C 7207.0,3073.0 7203.0,3081.0 7175.0,3096.0 C 7161.0,3104.0 7155.0,3118.0 7155.0,3141.0 C 7154.0,3172.0 7150.0,3176.0 7113.0,3189.0 C 7075.0,3203.0 7040.0,3241.0 7040.0,3269.0 C 7040.0,3275.0 7054.0,3286.0 7070.0,3295.0 C 7094.0,3308.0 7100.0,3317.0 7100.0,3344.0 C 7100.0,3371.0 7105.0,3379.0 7123.0,3384.0 C 7146.0,3389.0 7197.0,3476.0 7185.0,3489.0 C 7181.0,3492.0 7164.0,3500.0 7147.0,3506.0 C 7121.0,3515.0 7116.0,3522.0 7118.0,3544.0 C 7121.0,3570.0 7114.0,3574.0 7078.0,3571.0 C 7066.0,3569.0 7060.0,3576.0 7060.0,3588.0 C 7060.0,3601.0 7042.0,3617.0 7001.0,3639.0 C 6969.0,3656.0 6935.0,3670.0 6926.0,3670.0 C 6917.0,3670.0 6910.0,3678.0 6910.0,3690.0 C 6910.0,3702.0 6896.0,3719.0 6875.0,3732.0 C 6846.0,3751.0 6841.0,3759.0 6845.0,3779.0 C 6855.0,3818.0 6833.0,3856.0 6789.0,3875.0 C 6749.0,3893.0 6737.0,3923.0 6764.0,3933.0 C 6773.0,3937.0 6776.0,3947.0 6773.0,3958.0 C 6766.0,3987.0 6808.0,3999.0 6827.0,3974.0 C 6834.0,3964.0 6840.0,3950.0 6840.0,3943.0 C 6840.0,3936.0 6848.0,3930.0 6858.0,3930.0 C 6880.0,3930.0 6930.0,3868.0 6930.0,3841.0 C 6930.0,3827.0 6937.0,3820.0 6949.0,3820.0 C 6964.0,3820.0 6971.0,3832.0 6980.0,3871.0 C 6990.0,3912.0 7003.0,3932.0 7049.0,3977.0 C 7180.0,4105.0 7189.0,4110.0 7288.0,4110.0 C 7339.0,4110.0 7361.0,4115.0 7380.0,4130.0 C 7394.0,4141.0 7412.0,4150.0 7421.0,4150.0 C 7429.0,4150.0 7440.0,4154.0 7446.0,4160.0 C 7452.0,4166.0 7471.0,4159.0 7500.0,4140.0 C 7535.0,4117.0 7552.0,4111.0 7575.0,4116.0 C 7614.0,4124.0 7660.0,4168.0 7660.0,4196.0 C 7660.0,4217.0 7666.0,4219.0 7741.0,4226.0 C 7816.0,4232.0 7822.0,4235.0 7831.0,4259.0 C 7837.0,4273.0 7851.0,4295.0 7862.0,4307.0 C 7878.0,4324.0 7887.0,4327.0 7907.0,4319.0 C 7935.0,4309.0 7950.0,4314.0 7950.0,4336.0 C 7950.0,4344.0 7955.0,4350.0 7961.0,4350.0 C 7968.0,4350.0 7979.0,4358.0 7986.0,4367.0 C 7998.0,4384.0 8000.0,4384.0 8022.0,4364.0 C 8056.0,4333.0 8091.0,4328.0 8118.0,4350.0 C 8130.0,4360.0 8140.0,4377.0 8140.0,4387.0 C 8140.0,4397.0 8144.0,4410.0 8149.0,4416.0 C 8154.0,4421.0 8160.0,4434.0 8162.0,4444.0 C 8165.0,4466.0 8250.0,4492.0 8287.0,4483.0 C 8299.0,4480.0 8319.0,4485.0 8330.0,4493.0 C 8346.0,4504.0 8367.0,4507.0 8405.0,4503.0 C 8438.0,4499.0 8460.0,4502.0 8464.0,4509.0 C 8468.0,4515.0 8480.0,4520.0 8490.0,4520.0 C 8504.0,4520.0 8509.0,4526.0 8507.0,4542.0 C 8504.0,4574.0 8559.0,4603.0 8630.0,4606.0 C 8662.0,4607.0 8698.0,4615.0 8711.0,4623.0 C 8724.0,4632.0 8754.0,4643.0 8777.0,4649.0 C 8800.0,4656.0 8827.0,4671.0 8838.0,4684.0 C 8853.0,4703.0 8870.0,4709.0 8924.0,4715.0 C 8980.0,4721.0 8993.0,4726.0 9000.0,4744.0 C 9010.0,4772.0 9006.0,4777.0 8966.0,4784.0 C 8944.0,4788.0 8929.0,4798.0 8925.0,4810.0 C 8921.0,4821.0 8908.0,4833.0 8894.0,4836.0 C 8865.0,4843.0 8866.0,4841.0 8887.0,4885.0 C 8896.0,4904.0 8911.0,4920.0 8919.0,4920.0 C 8948.0,4920.0 9010.0,4899.0 9010.0,4890.0 C 9010.0,4877.0 9057.0,4877.0 9082.0,4891.0 C 9098.0,4900.0 9106.0,4898.0 9124.0,4881.0 C 9136.0,4869.0 9153.0,4860.0 9161.0,4860.0 C 9169.0,4860.0 9181.0,4851.0 9188.0,4840.0 C 9198.0,4824.0 9197.0,4813.0 9185.0,4783.0 C 9168.0,4742.0 9172.0,4730.0 9200.0,4748.0 C 9237.0,4771.0 9249.0,4764.0 9239.0,4723.0 C 9234.0,4702.0 9230.0,4682.0 9230.0,4679.0 C 9230.0,4666.0 9338.0,4620.0 9367.0,4620.0 C 9403.0,4620.0 9430.0,4647.0 9430.0,4683.0 C 9430.0,4702.0 9441.0,4716.0 9470.0,4737.0 C 9498.0,4757.0 9510.0,4772.0 9510.0,4790.0 C 9510.0,4804.0 9520.0,4831.0 9531.0,4850.0 C 9543.0,4869.0 9572.0,4952.0 9596.0,5035.0 C 9644.0,5198.0 9645.0,5222.0 9604.0,5277.0 C 9590.0,5295.0 9580.0,5322.0 9580.0,5337.0 C 9582.0,5393.0 9572.0,5452.0 9559.0,5465.0 C 9551.0,5473.0 9498.0,5496.0 9440.0,5518.0 C 9321.0,5563.0 9315.0,5571.0 9350.0,5641.0 C 9377.0,5694.0 9371.0,5741.0 9333.0,5765.0 C 9289.0,5794.0 9260.0,5831.0 9260.0,5858.0 C 9260.0,5872.0 9248.0,5896.0 9234.0,5911.0 C 9214.0,5932.0 9209.0,5945.0 9214.0,5964.0 C 9217.0,5978.0 9227.0,5990.0 9235.0,5990.0 C 9243.0,5990.0 9250.0,5994.0 9250.0,5998.0 C 9250.0,6002.0 9266.0,6023.0 9285.0,6043.0 C 9321.0,6081.0 9324.0,6091.0 9321.0,6150.0 C 9320.0,6169.0 9326.0,6199.0 9334.0,6215.0 C 9359.0,6262.0 9354.0,6287.0 9319.0,6306.0 C 9292.0,6319.0 9289.0,6325.0 9295.0,6348.0 C 9298.0,6363.0 9303.0,6406.0 9305.0,6444.0 L 9309.0,6512.0 L 9249.0,6539.0 C 9203.0,6559.0 9190.0,6570.0 9190.0,6586.0 C 9190.0,6598.0 9180.0,6633.0 9169.0,6664.0 C 9147.0,6720.0 9149.0,6770.0 9172.0,6770.0 C 9179.0,6770.0 9197.0,6782.0 9212.0,6797.0 C 9241.0,6824.0 9248.0,6858.0 9230.0,6876.0 C 9223.0,6883.0 9223.0,6897.0 9231.0,6919.0 C 9248.0,6968.0 9230.0,6991.0 9138.0,7036.0 C 9078.0,7065.0 9046.0,7088.0 9012.0,7128.0 C 8987.0,7157.0 8950.0,7188.0 8931.0,7196.0 C 8911.0,7204.0 8879.0,7226.0 8860.0,7244.0 C 8839.0,7265.0 8810.0,7280.0 8787.0,7284.0 C 8750.0,7291.0 8749.0,7293.0 8756.0,7318.0 C 8761.0,7333.0 8765.0,7373.0 8765.0,7408.0 L 8765.0,7471.0 L 8840.0,7516.0 C 8881.0,7541.0 8927.0,7573.0 8943.0,7588.0 C 8975.0,7619.0 8994.0,7680.0 8986.0,7728.0 C 8982.0,7754.0 8988.0,7774.0 9011.0,7815.0 C 9040.0,7866.0 9041.0,7870.0 9026.0,7899.0 C 9017.0,7915.0 9010.0,7941.0 9010.0,7956.0 C 9010.0,8001.0 8959.0,8174.0 8939.0,8196.0 C 8925.0,8211.0 8920.0,8231.0 8920.0,8271.0 C 8920.0,8304.0 8914.0,8334.0 8905.0,8346.0 C 8897.0,8356.0 8890.0,8379.0 8890.0,8396.0 C 8890.0,8430.0 8874.0,8450.0 8848.0,8450.0 C 8823.0,8450.0 8825.0,8463.0 8852.0,8475.0 C 8882.0,8488.0 8886.0,8516.0 8861.0,8530.0 C 8845.0,8538.0 8833.0,8537.0 8808.0,8524.0 C 8747.0,8493.0 8643.0,8516.0 8535.0,8585.0 C 8513.0,8599.0 8483.0,8616.0 8468.0,8622.0 C 8427.0,8640.0 8432.0,8672.0 8483.0,8714.0 L 8525.0,8749.0 L 8456.0,8815.0 C 8405.0,8863.0 8393.0,8880.0 8408.0,8880.0 C 8419.0,8880.0 8433.0,8887.0 8440.0,8895.0 C 8461.0,8920.0 8483.0,8914.0 8476.0,8885.0 C 8471.0,8865.0 8473.0,8860.0 8488.0,8860.0 C 8513.0,8860.0 8530.0,8879.0 8530.0,8907.0 C 8530.0,8922.0 8536.0,8930.0 8548.0,8930.0 C 8572.0,8930.0 8610.0,8902.0 8610.0,8885.0 C 8610.0,8878.0 8620.0,8870.0 8633.0,8868.0 C 8651.0,8866.0 8655.0,8859.0 8655.0,8830.0 C 8655.0,8799.0 8652.0,8795.0 8632.0,8797.0 C 8619.0,8799.0 8600.0,8795.0 8590.0,8790.0 C 8572.0,8780.0 8571.0,8782.0 8576.0,8810.0 C 8582.0,8838.0 8581.0,8840.0 8552.0,8840.0 C 8512.0,8840.0 8506.0,8829.0 8526.0,8787.0 C 8550.0,8736.0 8539.0,8706.0 8493.0,8694.0 C 8451.0,8684.0 8438.0,8657.0 8467.0,8642.0 C 8487.0,8631.0 8599.0,8645.0 8615.0,8661.0 C 8620.0,8666.0 8667.0,8670.0 8720.0,8670.0 L 8817.0,8670.0 L 8817.0,8716.0 C 8817.0,8759.0 8814.0,8764.0 8761.0,8808.0 C 8731.0,8834.0 8686.0,8874.0 8661.0,8896.0 C 8629.0,8925.0 8602.0,8940.0 8574.0,8944.0 C 8525.0,8953.0 8469.0,8996.0 8446.0,9045.0 C 8433.0,9071.0 8423.0,9080.0 8404.0,9080.0 C 8387.0,9080.0 8376.0,9073.0 8373.0,9060.0 C 8370.0,9049.0 8360.0,9040.0 8351.0,9040.0 C 8327.0,9040.0 8318.0,9051.0 8330.0,9065.0 C 8353.0,9093.0 8310.0,9087.0 8264.0,9056.0 C 8229.0,9033.0 8200.0,9021.0 8162.0,9018.0 C 8100.0,9012.0 8095.0,9008.0 8110.0,8980.0 C 8120.0,8961.0 8119.0,8959.0 8099.0,8962.0 C 8084.0,8964.0 8073.0,8976.0 8066.0,8998.0 C 8060.0,9016.0 8049.0,9035.0 8042.0,9039.0 C 8034.0,9043.0 8032.0,9054.0 8036.0,9065.0 C 8043.0,9081.0 8039.0,9082.0 8002.0,9076.0 C 7969.0,9071.0 7960.0,9073.0 7960.0,9084.0 C 7960.0,9092.0 7954.0,9103.0 7947.0,9107.0 C 7939.0,9111.0 7925.0,9127.0 7915.0,9143.0 C 7904.0,9161.0 7889.0,9170.0 7872.0,9170.0 C 7858.0,9170.0 7839.0,9177.0 7830.0,9185.0 C 7821.0,9193.0 7796.0,9203.0 7774.0,9208.0 C 7741.0,9215.0 7735.0,9220.0 7735.0,9242.0 C 7735.0,9256.0 7727.0,9277.0 7717.0,9288.0 C 7705.0,9301.0 7702.0,9310.0 7709.0,9315.0 C 7727.0,9326.0 7721.0,9350.0 7701.0,9350.0 C 7651.0,9350.0 7641.0,9401.0 7681.0,9445.0 C 7691.0,9457.0 7703.0,9480.0 7706.0,9497.0 C 7709.0,9515.0 7721.0,9537.0 7731.0,9546.0 C 7742.0,9555.0 7750.0,9574.0 7750.0,9587.0 C 7750.0,9599.0 7755.0,9610.0 7760.0,9610.0 C 7766.0,9610.0 7770.0,9619.0 7770.0,9631.0 C 7770.0,9646.0 7765.0,9651.0 7748.0,9648.0 C 7731.0,9646.0 7724.0,9636.0 7719.0,9610.0 C 7716.0,9591.0 7708.0,9564.0 7700.0,9550.0 C 7692.0,9536.0 7684.0,9509.0 7680.0,9490.0 C 7673.0,9445.0 7661.0,9443.0 7460.0,9441.0 C 7331.0,9440.0 7294.0,9444.0 7242.0,9460.0 C 7136.0,9493.0 7126.0,9490.0 7076.0,9412.0 C 7052.0,9375.0 7022.0,9324.0 7010.0,9300.0 C 6992.0,9261.0 6977.0,9249.0 6913.0,9215.0 C 6869.0,9192.0 6821.0,9157.0 6800.0,9133.0 C 6765.0,9093.0 6759.0,9090.0 6712.0,9090.0 C 6685.0,9090.0 6620.0,9081.0 6567.0,9070.0 C 6494.0,9055.0 6456.0,9053.0 6401.0,9059.0 C 6330.0,9066.0 6329.0,9066.0 6290.0,9033.0 C 6259.0,9007.0 6247.0,8986.0 6234.0,8938.0 L 6217.0,8878.0 L 6169.0,8884.0 C 6113.0,8892.0 6058.0,8873.0 6041.0,8842.0 C 6026.0,8814.0 6027.0,8810.0 6050.0,8810.0 C 6060.0,8810.0 6080.0,8805.0 6094.0,8799.0 C 6115.0,8789.0 6117.0,8784.0 6108.0,8764.0 C 6095.0,8736.0 6091.0,8735.0 6065.0,8753.0 C 6054.0,8760.0 6030.0,8772.0 6012.0,8780.0 C 5983.0,8791.0 5978.0,8791.0 5967.0,8776.0 C 5948.0,8750.0 5900.0,8771.0 5900.0,8805.0 C 5900.0,8823.0 5893.0,8831.0 5876.0,8836.0 C 5862.0,8839.0 5849.0,8848.0 5846.0,8856.0 C 5839.0,8875.0 5780.0,8874.0 5691.0,8854.0 C 5633.0,8841.0 5615.0,8832.0 5598.0,8809.0 C 5571.0,8773.0 5564.0,8773.0 5548.0,8808.0 C 5539.0,8827.0 5521.0,8839.0 5486.0,8850.0 C 5421.0,8871.0 5403.0,8902.0 5433.0,8945.0 C 5444.0,8961.0 5454.0,8976.0 5455.0,8977.0 C 5456.0,8978.0 5473.0,8975.0 5494.0,8969.0 C 5530.0,8959.0 5533.0,8961.0 5573.0,8997.0 C 5596.0,9018.0 5643.0,9053.0 5678.0,9075.0 L 5742.0,9115.0 L 5736.0,9180.0 C 5733.0,9216.0 5728.0,9257.0 5724.0,9271.0 C 5720.0,9290.0 5725.0,9305.0 5746.0,9330.0 L 5775.0,9363.0 L 5714.0,9357.0 C 5680.0,9353.0 5639.0,9355.0 5621.0,9360.0 C 5595.0,9367.0 5587.0,9366.0 5577.0,9349.0 C 5571.0,9339.0 5557.0,9330.0 5546.0,9330.0 C 5536.0,9330.0 5505.0,9314.0 5479.0,9295.0 C 5410.0,9246.0 5367.0,9247.0 5316.0,9299.0 C 5285.0,9331.0 5267.0,9340.0 5217.0,9350.0 C 5183.0,9356.0 5140.0,9370.0 5120.0,9380.0 C 5053.0,9414.0 5004.0,9422.0 4944.0,9409.0 C 4893.0,9397.0 4888.0,9393.0 4859.0,9343.0 C 4828.0,9290.0 4807.0,9277.0 4796.0,9305.0 C 4791.0,9320.0 4808.0,9360.0 4820.0,9360.0 C 4823.0,9360.0 4831.0,9364.0 4839.0,9369.0 C 4849.0,9376.0 4850.0,9382.0 4840.0,9399.0 C 4831.0,9416.0 4831.0,9425.0 4840.0,9435.0 C 4849.0,9446.0 4845.0,9453.0 4818.0,9470.0 C 4780.0,9494.0 4738.0,9492.0 4606.0,9459.0 C 4542.0,9443.0 4525.0,9441.0 4519.0,9452.0 C 4502.0,9478.0 4511.0,9489.0 4558.0,9504.0 C 4584.0,9513.0 4624.0,9538.0 4648.0,9561.0 C 4687.0,9598.0 4690.0,9605.0 4690.0,9653.0 C 4690.0,9699.0 4687.0,9708.0 4658.0,9732.0 L 4625.0,9759.0 L 4652.0,9760.0 C 4686.0,9760.0 4696.0,9776.0 4672.0,9789.0 C 4662.0,9795.0 4646.0,9819.0 4636.0,9843.0 C 4626.0,9871.0 4610.0,9891.0 4594.0,9899.0 C 4571.0,9909.0 4568.0,9908.0 4559.0,9880.0 C 4550.0,9854.0 4544.0,9851.0 4522.0,9856.0 C 4507.0,9859.0 4488.0,9871.0 4479.0,9881.0 C 4469.0,9891.0 4420.0,9915.0 4369.0,9933.0 C 4297.0,9958.0 4274.0,9971.0 4270.0,9987.0 C 4265.0,10008.0 4261.0,10007.0 4185.0,9960.0 C 4104.0,9911.0 4091.0,9910.0 4090.0,9954.0 C 4090.0,9971.0 4086.0,9970.0 4058.0,9943.0 C 4040.0,9926.0 4010.0,9909.0 3992.0,9905.0 C 3962.0,9899.0 3955.0,9902.0 3927.0,9932.0 C 3899.0,9962.0 3880.0,9970.0 3785.0,9995.0 C 3647.0,10030.0 3580.0,10040.0 3558.0,10028.0 C 3546.0,10022.0 3532.0,10024.0 3516.0,10035.0 C 3494.0,10049.0 3488.0,10050.0 3464.0,10037.0 C 3440.0,10025.0 3429.0,10025.0 3382.0,10037.0 C 3332.0,10050.0 3326.0,10050.0 3318.0,10036.0 C 3311.0,10023.0 3289.0,10020.0 3201.0,10020.0 C 3107.0,10020.0 3089.0,10023.0 3066.0,10041.0 C 3045.0,10058.0 3040.0,10070.0 3040.0,10106.0 C 3040.0,10145.0 3043.0,10152.0 3068.0,10161.0 C 3113.0,10179.0 3122.0,10185.0 3118.0,10193.0 C 3116.0,10198.0 3123.0,10206.0 3134.0,10212.0 C 3149.0,10220.0 3150.0,10224.0 3139.0,10231.0 C 3104.0,10253.0 3075.0,10241.0 3047.0,10193.0" fill="pink"/>
	<path d="M 3145.0,9843.0 C 3128.0,9841.0 3108.0,9830.0 3101.0,9818.0 C 3080.0,9785.0 3115.0,9758.0 3186.0,9752.0 C 3237.0,9748.0 3245.0,9750.0 3260.0,9770.0 C 3272.0,9786.0 3275.0,9801.0 3271.0,9819.0 C 3265.0,9842.0 3258.0,9845.0 3219.0,9846.0 C 3195.0,9847.0 3161.0,9845.0 3145.0,9843.0" fill="pink"/>
	<path d="M 2992.0,9757.0 C 2964.0,9727.0 2964.0,9709.0 2993.0,9682.0 C 3020.0,9656.0 3052.0,9654.0 3071.0,9676.0 C 3082.0,9689.0 3081.0,9693.0 3067.0,9701.0 C 3058.0,9707.0 3042.0,9727.0 3032.0,9746.0 L 3014.0,9781.0 L 2992.0,9757.0" fill="pink"/>
	<path d="M 7960.0,9741.0 C 7884.0,9734.0 7830.0,9703.0 7830.0,9666.0 C 7830.0,9653.0 7821.0,9635.0 7810.0,9625.0 C 7781.0,9598.0 7794.0,9594.0 7829.0,9619.0 C 7849.0,9633.0 7857.0,9646.0 7853.0,9656.0 C 7847.0,9672.0 7865.0,9690.0 7888.0,9690.0 C 7907.0,9690.0 7902.0,9665.0 7880.0,9645.0 C 7869.0,9635.0 7860.0,9616.0 7860.0,9603.0 C 7860.0,9583.0 7855.0,9580.0 7819.0,9580.0 C 7781.0,9580.0 7778.0,9578.0 7784.0,9558.0 C 7787.0,9545.0 7790.0,9532.0 7790.0,9528.0 C 7790.0,9523.0 7804.0,9520.0 7820.0,9520.0 C 7837.0,9520.0 7850.0,9516.0 7850.0,9510.0 C 7850.0,9505.0 7835.0,9500.0 7816.0,9500.0 C 7791.0,9500.0 7776.0,9493.0 7761.0,9474.0 C 7736.0,9442.0 7735.0,9430.0 7755.0,9430.0 C 7763.0,9430.0 7770.0,9426.0 7770.0,9420.0 C 7770.0,9415.0 7785.0,9410.0 7804.0,9410.0 C 7826.0,9410.0 7840.0,9404.0 7844.0,9394.0 C 7857.0,9360.0 7850.0,9353.0 7800.0,9346.0 C 7754.0,9340.0 7750.0,9337.0 7750.0,9312.0 C 7750.0,9293.0 7760.0,9277.0 7785.0,9257.0 C 7804.0,9242.0 7820.0,9223.0 7820.0,9215.0 C 7820.0,9207.0 7828.0,9200.0 7838.0,9200.0 C 7847.0,9200.0 7888.0,9186.0 7929.0,9170.0 C 8012.0,9136.0 8023.0,9134.0 8039.0,9154.0 C 8048.0,9164.0 8048.0,9174.0 8039.0,9193.0 C 8025.0,9224.0 8042.0,9260.0 8070.0,9260.0 C 8081.0,9260.0 8090.0,9267.0 8090.0,9275.0 C 8090.0,9284.0 8099.0,9290.0 8114.0,9290.0 C 8128.0,9290.0 8151.0,9295.0 8166.0,9300.0 C 8186.0,9308.0 8198.0,9307.0 8216.0,9295.0 C 8235.0,9283.0 8243.0,9282.0 8260.0,9292.0 C 8289.0,9311.0 8310.0,9288.0 8287.0,9262.0 C 8271.0,9245.0 8272.0,9243.0 8305.0,9228.0 C 8340.0,9213.0 8340.0,9213.0 8340.0,9237.0 C 8340.0,9250.0 8352.0,9272.0 8366.0,9285.0 C 8381.0,9299.0 8388.0,9310.0 8383.0,9310.0 C 8378.0,9310.0 8357.0,9326.0 8337.0,9345.0 C 8309.0,9372.0 8293.0,9380.0 8265.0,9380.0 C 8233.0,9380.0 8227.0,9384.0 8214.0,9415.0 C 8190.0,9473.0 8195.0,9489.0 8245.0,9511.0 C 8301.0,9536.0 8316.0,9573.0 8281.0,9601.0 C 8262.0,9617.0 8246.0,9618.0 8162.0,9613.0 L 8064.0,9607.0 L 8032.0,9640.0 C 7995.0,9677.0 7995.0,9689.0 8033.0,9708.0 C 8063.0,9723.0 8070.0,9751.0 8043.0,9748.0 C 8033.0,9748.0 7996.0,9744.0 7960.0,9741.0" fill="pink"/>
	<path d="M 3325.0,9562.0 C 3298.0,9554.0 3273.0,9546.0 3271.0,9544.0 C 3262.0,9536.0 3302.0,9490.0 3319.0,9490.0 C 3350.0,9490.0 3382.0,9523.0 3378.0,9551.0 L 3375.0,9576.0 L 3325.0,9562.0" fill="pink"/>
	<path d="M 3140.0,9558.0 C 3140.0,9551.0 3145.0,9538.0 3150.0,9530.0 C 3158.0,9518.0 3160.0,9519.0 3160.0,9537.0 C 3160.0,9549.0 3156.0,9562.0 3150.0,9565.0 C 3145.0,9568.0 3140.0,9565.0 3140.0,9558.0" fill="pink"/>
	<path d="M 5687.0,9532.0 C 5668.0,9512.0 5660.0,9493.0 5660.0,9467.0 C 5660.0,9427.0 5682.0,9408.0 5703.0,9429.0 C 5720.0,9446.0 5740.0,9442.0 5740.0,9420.0 C 5740.0,9410.0 5748.0,9397.0 5758.0,9392.0 C 5777.0,9382.0 5960.0,9379.0 5959.0,9389.0 C 5959.0,9392.0 5942.0,9422.0 5922.0,9454.0 C 5887.0,9510.0 5881.0,9514.0 5825.0,9530.0 C 5711.0,9562.0 5716.0,9562.0 5687.0,9532.0" fill="pink"/>
	<path d="M 3110.0,9465.0 C 3110.0,9446.0 3137.0,9410.0 3152.0,9410.0 C 3172.0,9410.0 3175.0,9422.0 3160.0,9451.0 C 3151.0,9467.0 3110.0,9479.0 3110.0,9465.0" fill="pink"/>
</svg>
