<?xml version="1.0" ?>
<svg xmlns="http://www.w3.org/2000/svg" xmlns:ev="http://www.w3.org/2001/xml-events" xmlns:xlink="http://www.w3.org/1999/xlink" baseProfile="full" height="600px" version="1.1" viewBox="-305.06401892735937 -1029.12 10845.568227128311 12298.24" width="530px">
	<defs/>
	<path d="M 7645.0,10053.0 L 7195.0,9868.0 L 7130.0,9805.0 C 7075.0,9752.0 7058.0,9742.0 7017.0,9736.0 C 6976.0,9730.0 6966.0,9723.0 6943.0,9689.0 C 6911.0,9640.0 6881.0,9637.0 6860.0,9683.0 C 6847.0,9711.0 6840.0,9715.0 6800.0,9718.0 L 6755.0,9721.0 L 6735.0,9664.0 C 6716.0,9609.0 6713.0,9606.0 6668.0,9593.0 C 6623.0,9580.0 6621.0,9578.0 6615.0,9536.0 C 6611.0,9512.0 6610.0,9484.0 6612.0,9474.0 C 6615.0,9463.0 6610.0,9442.0 6601.0,9425.0 C 6593.0,9409.0 6587.0,9382.0 6589.0,9367.0 C 6591.0,9341.0 6590.0,9339.0 6571.0,9349.0 C 6544.0,9364.0 6542.0,9364.0 6525.0,9330.0 C 6514.0,9309.0 6502.0,9300.0 6484.0,9300.0 C 6442.0,9300.0 6381.0,9263.0 6373.0,9233.0 C 6370.0,9218.0 6344.0,9181.0 6316.0,9152.0 C 6267.0,9100.0 6265.0,9096.0 6262.0,9032.0 C 6258.0,8956.0 6281.0,8904.0 6322.0,8898.0 C 6341.0,8896.0 6349.0,8881.0 6371.0,8810.0 C 6414.0,8668.0 6414.0,8671.0 6385.0,8658.0 C 6369.0,8651.0 6357.0,8635.0 6353.0,8619.0 C 6348.0,8594.0 6342.0,8591.0 6286.0,8581.0 C 6251.0,8575.0 6189.0,8570.0 6147.0,8570.0 L 6070.0,8570.0 L 6070.0,8537.0 C 6070.0,8510.0 6065.0,8502.0 6041.0,8493.0 C 6024.0,8487.0 6002.0,8466.0 5989.0,8441.0 L 5965.0,8400.0 L 5898.0,8400.0 C 5837.0,8400.0 5829.0,8397.0 5791.0,8366.0 C 5768.0,8347.0 5741.0,8328.0 5730.0,8325.0 C 5715.0,8320.0 5712.0,8313.0 5717.0,8285.0 C 5720.0,8266.0 5719.0,8250.0 5715.0,8250.0 C 5711.0,8250.0 5674.0,8273.0 5633.0,8302.0 C 5572.0,8344.0 5512.0,8406.0 5329.0,8615.0 L 5101.0,8875.0 L 4776.0,9033.0 C 4488.0,9173.0 4449.0,9190.0 4432.0,9178.0 C 4422.0,9171.0 4340.0,9100.0 4251.0,9020.0 L 4089.0,8876.0 L 3910.0,8624.0 L 3731.0,8373.0 L 3675.0,8159.0 C 3643.0,8041.0 3615.0,7940.0 3611.0,7934.0 C 3608.0,7928.0 3488.0,7812.0 3345.0,7677.0 L 3086.0,7431.0 L 2977.0,7253.0 C 2724.0,6839.0 2735.0,6860.0 2705.0,6741.0 C 2680.0,6645.0 2674.0,6630.0 2656.0,6630.0 C 2640.0,6630.0 2608.0,6588.0 2518.0,6448.0 C 2452.0,6346.0 2362.0,6220.0 2313.0,6164.0 C 2247.0,6089.0 2150.0,5946.0 1930.0,5603.0 L 1635.0,5142.0 L 1468.0,5079.0 L 1302.0,5016.0 L 1295.0,4935.0 C 1284.0,4794.0 1297.0,4809.0 1142.0,4754.0 C 1011.0,4707.0 961.0,4678.0 940.0,4640.0 C 935.0,4630.0 905.0,4543.0 875.0,4447.0 C 832.0,4310.0 820.0,4258.0 820.0,4207.0 C 820.0,4151.0 817.0,4140.0 798.0,4128.0 C 775.0,4113.0 775.0,4113.0 784.0,3942.0 L 793.0,3772.0 L 741.0,3688.0 C 698.0,3618.0 687.0,3589.0 672.0,3509.0 C 662.0,3458.0 642.0,3393.0 628.0,3365.0 L 603.0,3315.0 L 686.0,2955.0 L 769.0,2595.0 L 770.0,2303.0 L 770.0,2012.0 L 796.0,1993.0 L 822.0,1974.0 L 779.0,1936.0 L 737.0,1897.0 L 761.0,1879.0 C 774.0,1869.0 797.0,1860.0 812.0,1860.0 C 834.0,1860.0 844.0,1852.0 860.0,1820.0 C 878.0,1784.0 884.0,1780.0 918.0,1780.0 C 950.0,1780.0 959.0,1775.0 975.0,1748.0 C 985.0,1730.0 1017.0,1690.0 1047.0,1658.0 C 1076.0,1626.0 1100.0,1592.0 1100.0,1583.0 C 1100.0,1573.0 1103.0,1555.0 1106.0,1544.0 C 1111.0,1526.0 1106.0,1522.0 1076.0,1516.0 C 1056.0,1512.0 1040.0,1506.0 1039.0,1502.0 C 1039.0,1498.0 1037.0,1462.0 1035.0,1422.0 C 1031.0,1350.0 1031.0,1348.0 979.0,1292.0 C 950.0,1261.0 906.0,1222.0 881.0,1205.0 C 856.0,1189.0 819.0,1151.0 798.0,1121.0 L 760.0,1067.0 L 760.0,840.0 C 760.0,555.0 757.0,532.0 713.0,481.0 C 682.0,444.0 679.0,436.0 682.0,384.0 L 685.0,328.0 L 750.0,308.0 C 785.0,297.0 820.0,280.0 827.0,270.0 C 837.0,256.0 859.0,252.0 954.0,248.0 C 1063.0,244.0 1072.0,242.0 1121.0,211.0 C 1163.0,185.0 1201.0,173.0 1304.0,154.0 C 1376.0,140.0 1452.0,124.0 1473.0,119.0 C 1512.0,109.0 1513.0,106.0 1493.0,55.0 C 1487.0,38.0 1576.0,0.0 1620.0,0.0 C 1655.0,0.0 1660.0,3.0 1671.0,35.0 C 1686.0,74.0 1691.0,76.0 1724.0,55.0 C 1743.0,42.0 1781.0,41.0 1986.0,48.0 L 2225.0,55.0 L 2228.0,90.0 C 2234.0,173.0 2239.0,186.0 2279.0,208.0 C 2301.0,221.0 2335.0,230.0 2358.0,230.0 C 2396.0,230.0 2399.0,232.0 2412.0,273.0 C 2425.0,314.0 2426.0,315.0 2471.0,318.0 C 2502.0,320.0 2524.0,328.0 2535.0,341.0 C 2545.0,351.0 2566.0,360.0 2581.0,360.0 C 2603.0,360.0 2611.0,354.0 2616.0,334.0 C 2622.0,309.0 2624.0,309.0 2674.0,316.0 C 2730.0,325.0 2744.0,325.0 2837.0,322.0 C 2897.0,320.0 2899.0,319.0 2905.0,290.0 C 2909.0,273.0 2918.0,260.0 2926.0,260.0 C 2934.0,260.0 3032.0,276.0 3143.0,296.0 C 3321.0,328.0 3347.0,336.0 3365.0,357.0 C 3382.0,378.0 3400.0,383.0 3487.0,395.0 C 3569.0,405.0 3601.0,415.0 3660.0,446.0 L 3733.0,484.0 L 3756.0,455.0 C 3776.0,429.0 3781.0,428.0 3812.0,436.0 C 3839.0,444.0 3870.0,440.0 3975.0,413.0 C 4047.0,395.0 4113.0,380.0 4123.0,380.0 C 4132.0,380.0 4227.0,445.0 4334.0,525.0 C 4565.0,699.0 4624.0,727.0 4903.0,801.0 C 5177.0,873.0 5160.0,866.0 5160.0,904.0 C 5160.0,934.0 5165.0,939.0 5220.0,965.0 C 5271.0,989.0 5285.0,992.0 5317.0,984.0 C 5348.0,977.0 5358.0,967.0 5374.0,933.0 C 5393.0,891.0 5395.0,890.0 5441.0,890.0 C 5510.0,890.0 5577.0,856.0 5591.0,813.0 C 5597.0,795.0 5603.0,780.0 5605.0,780.0 C 5607.0,780.0 5653.0,796.0 5707.0,816.0 C 5781.0,843.0 5816.0,850.0 5848.0,847.0 L 5890.0,842.0 L 5890.0,876.0 C 5890.0,908.0 5892.0,910.0 5926.0,910.0 C 5979.0,910.0 6000.0,895.0 6000.0,856.0 C 6000.0,834.0 6008.0,816.0 6026.0,799.0 C 6040.0,786.0 6067.0,744.0 6086.0,707.0 C 6116.0,648.0 6121.0,630.0 6119.0,572.0 C 6118.0,513.0 6122.0,498.0 6152.0,445.0 L 6185.0,386.0 L 6298.0,363.0 C 6402.0,342.0 6417.0,342.0 6475.0,354.0 C 6510.0,361.0 6542.0,365.0 6545.0,362.0 C 6548.0,359.0 6550.0,346.0 6550.0,334.0 C 6550.0,320.0 6560.0,304.0 6575.0,294.0 C 6596.0,280.0 6605.0,280.0 6630.0,290.0 C 6655.0,300.0 6663.0,299.0 6689.0,281.0 C 6726.0,254.0 6731.0,255.0 6760.0,285.0 C 6778.0,304.0 6794.0,310.0 6827.0,310.0 C 6862.0,310.0 6877.0,316.0 6909.0,346.0 C 6944.0,377.0 6956.0,382.0 7019.0,387.0 L 7089.0,393.0 L 7124.0,445.0 C 7143.0,474.0 7212.0,585.0 7278.0,692.0 C 7344.0,799.0 7467.0,997.0 7551.0,1131.0 C 7635.0,1265.0 7766.0,1479.0 7843.0,1605.0 C 7920.0,1732.0 8041.0,1927.0 8113.0,2040.0 C 8185.0,2153.0 8355.0,2428.0 8492.0,2653.0 L 8739.0,3060.0 L 8700.0,3117.0 C 8673.0,3155.0 8660.0,3184.0 8660.0,3206.0 C 8660.0,3256.0 8651.0,3269.0 8601.0,3295.0 C 8575.0,3308.0 8538.0,3336.0 8518.0,3358.0 C 8483.0,3397.0 8481.0,3398.0 8442.0,3387.0 C 8406.0,3378.0 8399.0,3379.0 8372.0,3401.0 C 8348.0,3421.0 8343.0,3431.0 8347.0,3456.0 C 8353.0,3495.0 8322.0,3558.0 8281.0,3588.0 C 8257.0,3606.0 8250.0,3618.0 8250.0,3645.0 C 8250.0,3671.0 8237.0,3697.0 8200.0,3748.0 C 8157.0,3808.0 8151.0,3821.0 8156.0,3849.0 C 8160.0,3867.0 8171.0,3887.0 8181.0,3893.0 C 8198.0,3903.0 8198.0,3905.0 8179.0,3928.0 C 8169.0,3942.0 8160.0,3963.0 8160.0,3976.0 C 8160.0,4005.0 8144.0,4008.0 8135.0,3980.0 C 8131.0,3969.0 8115.0,3953.0 8099.0,3944.0 C 8073.0,3931.0 8070.0,3925.0 8075.0,3896.0 C 8081.0,3868.0 8078.0,3860.0 8055.0,3841.0 C 8040.0,3830.0 8020.0,3820.0 8011.0,3820.0 C 8002.0,3820.0 7972.0,3807.0 7943.0,3791.0 C 7915.0,3775.0 7880.0,3760.0 7866.0,3756.0 C 7843.0,3750.0 7840.0,3753.0 7840.0,3774.0 C 7840.0,3789.0 7826.0,3811.0 7801.0,3833.0 C 7766.0,3865.0 7757.0,3868.0 7723.0,3863.0 C 7702.0,3860.0 7675.0,3848.0 7663.0,3838.0 C 7644.0,3820.0 7638.0,3819.0 7604.0,3830.0 C 7583.0,3837.0 7527.0,3846.0 7478.0,3849.0 C 7398.0,3855.0 7391.0,3854.0 7386.0,3836.0 C 7382.0,3820.0 7375.0,3818.0 7338.0,3824.0 C 7314.0,3828.0 7232.0,3838.0 7155.0,3846.0 C 7078.0,3854.0 7008.0,3863.0 6999.0,3865.0 C 6980.0,3871.0 6846.0,3846.0 6762.0,3821.0 C 6707.0,3804.0 6694.0,3803.0 6644.0,3815.0 C 6606.0,3824.0 6578.0,3838.0 6554.0,3861.0 L 6520.0,3894.0 L 6520.0,3859.0 L 6520.0,3824.0 L 6463.0,3822.0 C 6339.0,3820.0 6255.0,3811.0 6232.0,3799.0 C 6219.0,3791.0 6199.0,3768.0 6189.0,3747.0 C 6161.0,3693.0 6118.0,3675.0 6046.0,3687.0 C 6005.0,3694.0 5985.0,3694.0 5973.0,3685.0 C 5963.0,3678.0 5910.0,3658.0 5855.0,3640.0 C 5800.0,3622.0 5733.0,3596.0 5707.0,3583.0 C 5662.0,3561.0 5657.0,3560.0 5641.0,3574.0 C 5615.0,3597.0 5606.0,3594.0 5588.0,3557.0 C 5576.0,3533.0 5562.0,3521.0 5534.0,3512.0 C 5466.0,3491.0 5465.0,3489.0 5495.0,3431.0 C 5517.0,3387.0 5524.0,3380.0 5541.0,3385.0 C 5557.0,3390.0 5571.0,3383.0 5596.0,3359.0 C 5624.0,3332.0 5630.0,3319.0 5630.0,3285.0 C 5630.0,3262.0 5635.0,3239.0 5642.0,3232.0 C 5651.0,3223.0 5650.0,3220.0 5637.0,3220.0 C 5627.0,3220.0 5620.0,3212.0 5620.0,3200.0 C 5620.0,3174.0 5604.0,3174.0 5474.0,3205.0 C 5416.0,3219.0 5364.0,3230.0 5359.0,3230.0 C 5354.0,3230.0 5345.0,3210.0 5339.0,3185.0 C 5329.0,3147.0 5323.0,3139.0 5295.0,3131.0 C 5276.0,3126.0 5241.0,3126.0 5206.0,3132.0 C 5157.0,3141.0 5147.0,3146.0 5139.0,3169.0 C 5128.0,3201.0 5050.0,3250.0 5011.0,3250.0 C 4979.0,3250.0 4945.0,3282.0 4935.0,3321.0 C 4930.0,3341.0 4917.0,3352.0 4885.0,3364.0 C 4793.0,3400.0 4708.0,3509.0 4747.0,3541.0 C 4756.0,3549.0 4759.0,3562.0 4755.0,3577.0 C 4750.0,3598.0 4752.0,3600.0 4773.0,3595.0 C 4788.0,3591.0 4801.0,3594.0 4809.0,3603.0 C 4818.0,3615.0 4816.0,3622.0 4795.0,3638.0 C 4776.0,3653.0 4769.0,3667.0 4771.0,3687.0 C 4776.0,3749.0 4774.0,3752.0 4739.0,3734.0 C 4704.0,3716.0 4690.0,3725.0 4690.0,3768.0 C 4690.0,3783.0 4696.0,3790.0 4710.0,3790.0 C 4725.0,3790.0 4732.0,3798.0 4736.0,3819.0 C 4745.0,3862.0 4783.0,3867.0 4862.0,3838.0 C 4908.0,3822.0 4939.0,3801.0 4977.0,3763.0 C 5043.0,3697.0 5067.0,3691.0 5131.0,3720.0 C 5179.0,3743.0 5180.0,3743.0 5220.0,3725.0 C 5244.0,3714.0 5268.0,3694.0 5276.0,3678.0 C 5290.0,3652.0 5295.0,3650.0 5352.0,3650.0 L 5414.0,3650.0 L 5375.0,3691.0 L 5335.0,3732.0 L 5375.0,3725.0 C 5397.0,3722.0 5424.0,3710.0 5436.0,3699.0 C 5451.0,3685.0 5465.0,3681.0 5487.0,3686.0 C 5508.0,3690.0 5526.0,3687.0 5541.0,3676.0 C 5575.0,3652.0 5581.0,3656.0 5574.0,3698.0 C 5569.0,3733.0 5571.0,3740.0 5602.0,3766.0 C 5645.0,3803.0 5664.0,3849.0 5656.0,3898.0 C 5653.0,3919.0 5656.0,3970.0 5663.0,4011.0 C 5685.0,4137.0 5763.0,4236.0 5893.0,4301.0 C 5965.0,4338.0 5970.0,4342.0 5970.0,4373.0 C 5970.0,4453.0 5982.0,4508.0 6001.0,4513.0 C 6011.0,4516.0 6022.0,4531.0 6026.0,4546.0 C 6030.0,4562.0 6060.0,4612.0 6093.0,4658.0 L 6154.0,4740.0 L 6223.0,4740.0 C 6282.0,4740.0 6301.0,4745.0 6346.0,4771.0 C 6375.0,4787.0 6408.0,4814.0 6419.0,4829.0 C 6434.0,4850.0 6451.0,4859.0 6484.0,4863.0 C 6541.0,4871.0 6598.0,4899.0 6606.0,4922.0 C 6613.0,4944.0 6623.0,4944.0 6697.0,4925.0 C 6728.0,4917.0 6794.0,4910.0 6842.0,4910.0 L 6930.0,4910.0 L 6930.0,4880.0 C 6930.0,4857.0 6935.0,4850.0 6949.0,4850.0 C 6960.0,4850.0 6975.0,4847.0 6984.0,4844.0 C 6996.0,4839.0 7000.0,4844.0 7000.0,4865.0 C 7000.0,4892.0 7001.0,4893.0 7019.0,4876.0 C 7038.0,4859.0 7040.0,4859.0 7084.0,4896.0 C 7114.0,4921.0 7130.0,4942.0 7130.0,4957.0 C 7130.0,4969.0 7143.0,4994.0 7158.0,5011.0 C 7185.0,5041.0 7192.0,5043.0 7276.0,5050.0 C 7325.0,5054.0 7375.0,5053.0 7388.0,5049.0 C 7424.0,5035.0 7514.0,5038.0 7536.0,5054.0 C 7549.0,5064.0 7570.0,5067.0 7601.0,5063.0 C 7642.0,5058.0 7649.0,5060.0 7655.0,5079.0 C 7659.0,5092.0 7670.0,5100.0 7684.0,5100.0 C 7703.0,5100.0 7710.0,5108.0 7720.0,5145.0 C 7729.0,5178.0 7741.0,5195.0 7766.0,5209.0 C 7786.0,5221.0 7809.0,5248.0 7822.0,5274.0 C 7839.0,5309.0 7850.0,5320.0 7874.0,5324.0 C 7896.0,5328.0 7910.0,5339.0 7918.0,5358.0 C 7942.0,5410.0 7963.0,5445.0 7977.0,5453.0 C 7984.0,5457.0 7990.0,5467.0 7990.0,5475.0 C 7990.0,5483.0 7999.0,5508.0 8011.0,5530.0 C 8029.0,5564.0 8040.0,5572.0 8077.0,5582.0 C 8116.0,5591.0 8121.0,5596.0 8116.0,5615.0 C 8109.0,5641.0 8156.0,5709.0 8181.0,5710.0 C 8199.0,5710.0 8300.0,5825.0 8300.0,5844.0 C 8300.0,5865.0 8346.0,5883.0 8380.0,5876.0 C 8402.0,5872.0 8424.0,5877.0 8451.0,5890.0 C 8484.0,5907.0 8497.0,5909.0 8528.0,5900.0 C 8577.0,5887.0 8590.0,5887.0 8590.0,5904.0 C 8590.0,5925.0 8716.0,5939.0 8776.0,5923.0 C 8819.0,5912.0 8826.0,5912.0 8838.0,5927.0 C 8847.0,5940.0 8853.0,5941.0 8862.0,5932.0 C 8869.0,5925.0 8893.0,5920.0 8917.0,5920.0 C 8966.0,5920.0 8983.0,5939.0 8995.0,6004.0 L 9001.0,6042.0 L 9048.0,6036.0 C 9074.0,6032.0 9115.0,6025.0 9140.0,6019.0 C 9177.0,6011.0 9203.0,6013.0 9274.0,6029.0 C 9322.0,6039.0 9363.0,6050.0 9365.0,6052.0 C 9366.0,6053.0 9408.0,6136.0 9458.0,6235.0 C 9595.0,6510.0 9647.0,6704.0 9629.0,6866.0 C 9616.0,6982.0 9611.0,7000.0 9590.0,7000.0 C 9576.0,7000.0 9573.0,7005.0 9577.0,7023.0 C 9580.0,7035.0 9589.0,7053.0 9597.0,7062.0 C 9610.0,7077.0 9608.0,7086.0 9582.0,7142.0 C 9560.0,7187.0 9555.0,7207.0 9563.0,7212.0 C 9571.0,7216.0 9576.0,7255.0 9578.0,7315.0 C 9582.0,7405.0 9580.0,7412.0 9556.0,7445.0 C 9540.0,7466.0 9530.0,7491.0 9530.0,7512.0 C 9530.0,7549.0 9464.0,7653.0 9417.0,7690.0 C 9393.0,7709.0 9391.0,7717.0 9387.0,7818.0 C 9382.0,7928.0 9368.0,8029.0 9331.0,8207.0 C 9319.0,8262.0 9310.0,8318.0 9310.0,8331.0 C 9310.0,8343.0 9293.0,8374.0 9271.0,8400.0 C 9183.0,8505.0 9137.0,8637.0 9141.0,8777.0 L 9144.0,8870.0 L 9106.0,8897.0 L 9067.0,8923.0 L 9076.0,8894.0 C 9087.0,8855.0 9086.0,8792.0 9075.0,8781.0 C 9069.0,8776.0 9054.0,8769.0 9040.0,8765.0 C 9019.0,8760.0 9012.0,8765.0 8995.0,8797.0 C 8984.0,8817.0 8949.0,8866.0 8918.0,8905.0 C 8887.0,8945.0 8811.0,9055.0 8749.0,9151.0 C 8571.0,9429.0 8513.0,9510.0 8424.0,9600.0 C 8304.0,9722.0 8152.0,9983.0 8135.0,10095.0 C 8124.0,10167.0 8107.0,10240.0 8101.0,10240.0 C 8098.0,10239.0 7893.0,10156.0 7645.0,10053.0" fill="pink"/>
</svg>
