<?xml version="1.0" ?>
<svg xmlns="http://www.w3.org/2000/svg" xmlns:ev="http://www.w3.org/2001/xml-events" xmlns:xlink="http://www.w3.org/1999/xlink" baseProfile="full" height="600px" version="1.1" viewBox="179.3498253582518 -1020.1198507209131 9887.703601427263 12287.141381646545" width="483px">
	<defs/>
	<path d="M 5464.0,10221.0 C 5422.0,10202.0 5314.0,10113.0 5195.0,10000.0 C 5112.0,9921.0 5026.0,9850.0 5013.0,9850.0 C 5008.0,9850.0 4982.0,9836.0 4954.0,9818.0 C 4831.0,9738.0 4649.0,9693.0 4526.0,9711.0 C 4387.0,9732.0 4381.0,9731.0 4333.0,9662.0 C 4311.0,9631.0 4279.0,9578.0 4262.0,9545.0 C 4245.0,9512.0 4197.0,9449.0 4156.0,9405.0 C 4115.0,9361.0 4073.0,9307.0 4064.0,9285.0 C 3938.0,8987.0 3771.0,8685.0 3647.0,8530.0 C 3591.0,8461.0 3414.0,8307.0 3366.0,8286.0 C 3354.0,8281.0 3321.0,8274.0 3292.0,8270.0 C 3263.0,8265.0 3218.0,8251.0 3192.0,8239.0 C 3151.0,8219.0 3129.0,8216.0 3020.0,8215.0 C 2947.0,8215.0 2885.0,8219.0 2870.0,8226.0 C 2856.0,8232.0 2827.0,8241.0 2805.0,8244.0 C 2783.0,8248.0 2754.0,8258.0 2741.0,8267.0 C 2726.0,8277.0 2714.0,8278.0 2708.0,8272.0 C 2703.0,8267.0 2681.0,8264.0 2660.0,8267.0 C 2627.0,8272.0 2613.0,8266.0 2547.0,8221.0 C 2381.0,8107.0 2251.0,8069.0 2154.0,8105.0 C 2127.0,8115.0 2101.0,8127.0 2095.0,8131.0 C 2090.0,8135.0 2061.0,8145.0 2032.0,8154.0 C 1965.0,8173.0 1951.0,8166.0 1908.0,8090.0 C 1827.0,7948.0 1777.0,7891.0 1744.0,7904.0 C 1735.0,7907.0 1717.0,7886.0 1689.0,7837.0 C 1643.0,7757.0 1563.0,7640.0 1544.0,7625.0 C 1526.0,7611.0 1434.0,7448.0 1394.0,7362.0 C 1301.0,7159.0 1241.0,6876.0 1284.0,6841.0 C 1293.0,6834.0 1300.0,6817.0 1300.0,6804.0 C 1300.0,6776.0 1315.0,6772.0 1325.0,6798.0 C 1329.0,6807.0 1335.0,6859.0 1338.0,6913.0 C 1340.0,6966.0 1345.0,7010.0 1347.0,7010.0 C 1350.0,7010.0 1365.0,7001.0 1381.0,6989.0 C 1403.0,6974.0 1410.0,6961.0 1410.0,6936.0 C 1410.0,6901.0 1443.0,6815.0 1460.0,6805.0 C 1473.0,6797.0 1510.0,6716.0 1510.0,6696.0 C 1510.0,6686.0 1519.0,6680.0 1533.0,6680.0 C 1592.0,6680.0 1635.0,6657.0 1696.0,6593.0 C 1743.0,6543.0 1759.0,6519.0 1764.0,6489.0 C 1767.0,6468.0 1775.0,6450.0 1780.0,6450.0 C 1786.0,6450.0 1790.0,6444.0 1790.0,6437.0 C 1790.0,6419.0 1838.0,6370.0 1855.0,6370.0 C 1874.0,6370.0 1874.0,6359.0 1854.0,6316.0 C 1845.0,6297.0 1826.0,6277.0 1811.0,6270.0 C 1788.0,6260.0 1783.0,6261.0 1759.0,6288.0 C 1745.0,6304.0 1703.0,6331.0 1666.0,6349.0 C 1601.0,6380.0 1563.0,6383.0 1448.0,6371.0 C 1444.0,6370.0 1435.0,6351.0 1429.0,6328.0 L 1417.0,6285.0 L 1409.0,6315.0 C 1397.0,6369.0 1399.0,6400.0 1415.0,6400.0 C 1423.0,6400.0 1430.0,6409.0 1430.0,6420.0 C 1430.0,6437.0 1423.0,6440.0 1386.0,6440.0 C 1333.0,6440.0 1287.0,6470.0 1308.0,6491.0 C 1330.0,6514.0 1321.0,6528.0 1270.0,6546.0 C 1243.0,6556.0 1220.0,6567.0 1220.0,6571.0 C 1220.0,6590.0 1234.0,6610.0 1247.0,6610.0 C 1258.0,6610.0 1260.0,6617.0 1256.0,6635.0 C 1252.0,6652.0 1256.0,6669.0 1270.0,6688.0 C 1288.0,6713.0 1289.0,6719.0 1277.0,6759.0 L 1263.0,6803.0 L 1244.0,6774.0 C 1200.0,6710.0 1173.0,6652.0 1161.0,6595.0 C 1154.0,6562.0 1135.0,6481.0 1120.0,6415.0 L 1091.0,6295.0 L 1094.0,5900.0 C 1096.0,5683.0 1101.0,5444.0 1105.0,5370.0 C 1111.0,5250.0 1109.0,5214.0 1086.0,5055.0 C 1071.0,4956.0 1056.0,4823.0 1053.0,4759.0 C 1048.0,4658.0 1050.0,4631.0 1070.0,4559.0 C 1082.0,4513.0 1100.0,4454.0 1110.0,4429.0 C 1121.0,4402.0 1135.0,4319.0 1144.0,4229.0 C 1152.0,4144.0 1164.0,4052.0 1169.0,4025.0 C 1210.0,3816.0 1180.0,3598.0 1069.0,3301.0 C 1041.0,3227.0 1015.0,3159.0 1010.0,3150.0 C 1000.0,3131.0 1023.0,3090.0 1044.0,3090.0 C 1071.0,3090.0 1217.0,3010.0 1245.0,2980.0 C 1262.0,2962.0 1301.0,2930.0 1333.0,2909.0 C 1364.0,2887.0 1390.0,2865.0 1390.0,2860.0 C 1390.0,2854.0 1399.0,2850.0 1410.0,2850.0 C 1426.0,2850.0 1430.0,2857.0 1430.0,2883.0 C 1430.0,2916.0 1418.0,2933.0 1366.0,2978.0 C 1340.0,3000.0 1339.0,3003.0 1354.0,3019.0 C 1369.0,3035.0 1368.0,3038.0 1341.0,3058.0 C 1303.0,3086.0 1297.0,3123.0 1324.0,3174.0 C 1342.0,3209.0 1350.0,3215.0 1381.0,3218.0 C 1431.0,3222.0 1449.0,3199.0 1419.0,3171.0 C 1397.0,3151.0 1397.0,3149.0 1412.0,3118.0 C 1425.0,3090.0 1465.0,3042.0 1578.0,2914.0 C 1588.0,2903.0 1604.0,2889.0 1615.0,2883.0 C 1644.0,2867.0 1627.0,2840.0 1587.0,2840.0 C 1552.0,2840.0 1530.0,2827.0 1511.0,2795.0 C 1500.0,2777.0 1499.0,2778.0 1505.0,2802.0 C 1512.0,2836.0 1497.0,2838.0 1476.0,2808.0 C 1454.0,2778.0 1455.0,2775.0 1495.0,2733.0 C 1541.0,2685.0 1611.0,2541.0 1618.0,2484.0 C 1624.0,2431.0 1654.0,2404.0 1695.0,2414.0 C 1723.0,2421.0 1744.0,2459.0 1729.0,2474.0 C 1724.0,2480.0 1720.0,2492.0 1720.0,2502.0 C 1720.0,2511.0 1712.0,2535.0 1703.0,2555.0 C 1689.0,2584.0 1689.0,2594.0 1699.0,2613.0 C 1709.0,2633.0 1709.0,2645.0 1697.0,2681.0 C 1682.0,2726.0 1655.0,2744.0 1644.0,2715.0 C 1634.0,2689.0 1610.0,2718.0 1610.0,2757.0 C 1610.0,2798.0 1630.0,2809.0 1666.0,2785.0 C 1689.0,2770.0 1694.0,2770.0 1706.0,2782.0 C 1729.0,2805.0 1856.0,2785.0 1900.0,2752.0 C 1919.0,2737.0 1945.0,2720.0 1959.0,2715.0 C 1980.0,2706.0 1989.0,2683.0 2027.0,2555.0 C 2079.0,2375.0 2078.0,2349.0 2021.0,2331.0 C 2000.0,2325.0 1977.0,2313.0 1970.0,2305.0 C 1963.0,2296.0 1941.0,2290.0 1916.0,2290.0 C 1848.0,2290.0 1810.0,2247.0 1839.0,2202.0 C 1854.0,2178.0 1899.0,2199.0 1915.0,2236.0 C 1923.0,2255.0 1934.0,2270.0 1939.0,2270.0 C 1945.0,2270.0 1966.0,2281.0 1986.0,2295.0 C 2006.0,2309.0 2028.0,2320.0 2034.0,2320.0 C 2047.0,2320.0 2049.0,2241.0 2036.0,2221.0 C 2031.0,2213.0 2032.0,2205.0 2038.0,2201.0 C 2060.0,2188.0 2069.0,2144.0 2059.0,2100.0 C 2053.0,2074.0 2053.0,2054.0 2058.0,2051.0 C 2065.0,2046.0 2100.0,1886.0 2100.0,1858.0 C 2100.0,1853.0 2091.0,1850.0 2080.0,1850.0 C 2055.0,1850.0 2054.0,1834.0 2077.0,1821.0 C 2094.0,1812.0 2094.0,1808.0 2076.0,1753.0 C 2065.0,1721.0 2051.0,1686.0 2045.0,1675.0 C 2038.0,1664.0 2025.0,1618.0 2015.0,1574.0 L 1998.0,1493.0 L 2024.0,1404.0 C 2054.0,1302.0 2055.0,1276.0 2035.0,1200.0 C 2027.0,1170.0 2020.0,1130.0 2020.0,1113.0 C 2020.0,1079.0 2025.0,1076.0 2080.0,1079.0 C 2094.0,1080.0 2120.0,1070.0 2139.0,1056.0 C 2168.0,1035.0 2180.0,1032.0 2218.0,1037.0 C 2243.0,1040.0 2275.0,1049.0 2290.0,1057.0 C 2324.0,1074.0 2360.0,1073.0 2381.0,1054.0 C 2396.0,1040.0 2403.0,1040.0 2442.0,1053.0 C 2515.0,1078.0 2652.0,1044.0 2724.0,983.0 C 2752.0,960.0 2758.0,959.0 2844.0,965.0 C 2930.0,971.0 2937.0,970.0 2971.0,947.0 C 2991.0,933.0 3023.0,919.0 3041.0,915.0 C 3089.0,905.0 3100.0,893.0 3094.0,861.0 C 3086.0,822.0 3114.0,770.0 3143.0,770.0 C 3156.0,770.0 3171.0,765.0 3178.0,758.0 C 3185.0,751.0 3190.0,750.0 3190.0,756.0 C 3190.0,761.0 3205.0,764.0 3224.0,762.0 C 3273.0,756.0 3317.0,783.0 3336.0,830.0 C 3350.0,864.0 3357.0,870.0 3381.0,870.0 C 3400.0,870.0 3410.0,865.0 3410.0,855.0 C 3410.0,846.0 3419.0,840.0 3435.0,840.0 C 3449.0,840.0 3460.0,843.0 3460.0,848.0 C 3460.0,852.0 3474.0,861.0 3492.0,869.0 C 3526.0,884.0 3569.0,927.0 3570.0,946.0 C 3570.0,960.0 3637.0,993.0 3649.0,986.0 C 3660.0,979.0 3726.0,1006.0 3735.0,1021.0 C 3739.0,1027.0 3733.0,1034.0 3721.0,1037.0 C 3688.0,1046.0 3695.0,1067.0 3730.0,1062.0 C 3750.0,1059.0 3766.0,1048.0 3777.0,1029.0 C 3787.0,1012.0 3803.0,1000.0 3815.0,1000.0 C 3834.0,999.0 3834.0,999.0 3818.0,986.0 C 3795.0,969.0 3795.0,955.0 3820.0,930.0 C 3832.0,918.0 3853.0,910.0 3875.0,910.0 C 3899.0,910.0 3912.0,904.0 3920.0,891.0 C 3935.0,863.0 3987.0,854.0 4011.0,876.0 C 4035.0,898.0 4035.0,925.0 4010.0,950.0 C 3999.0,961.0 3990.0,979.0 3990.0,990.0 C 3990.0,1011.0 3963.0,1030.0 3943.0,1023.0 C 3935.0,1020.0 3930.0,1027.0 3930.0,1039.0 C 3930.0,1063.0 3933.0,1064.0 3978.0,1051.0 C 3999.0,1045.0 4021.0,1045.0 4039.0,1051.0 C 4062.0,1059.0 4074.0,1057.0 4101.0,1041.0 C 4147.0,1013.0 4171.0,1015.0 4214.0,1049.0 C 4255.0,1082.0 4277.0,1081.0 4327.0,1044.0 C 4344.0,1031.0 4363.0,1020.0 4369.0,1020.0 C 4384.0,1020.0 4420.0,979.0 4434.0,947.0 L 4446.0,919.0 L 4472.0,940.0 C 4487.0,951.0 4509.0,960.0 4523.0,960.0 C 4583.0,960.0 4594.0,982.0 4561.0,1035.0 C 4551.0,1052.0 4541.0,1088.0 4538.0,1116.0 C 4534.0,1156.0 4519.0,1191.0 4470.0,1274.0 C 4398.0,1396.0 4362.0,1430.0 4304.0,1430.0 C 4269.0,1430.0 4258.0,1437.0 4195.0,1501.0 C 4104.0,1594.0 4045.0,1625.0 3973.0,1616.0 C 3920.0,1610.0 3840.0,1570.0 3840.0,1550.0 C 3840.0,1544.0 3833.0,1540.0 3825.0,1540.0 C 3815.0,1540.0 3810.0,1530.0 3810.0,1510.0 C 3810.0,1483.0 3813.0,1480.0 3841.0,1480.0 C 3858.0,1480.0 3880.0,1485.0 3892.0,1491.0 C 3903.0,1497.0 3914.0,1499.0 3917.0,1497.0 C 3920.0,1494.0 3904.0,1482.0 3881.0,1470.0 C 3858.0,1459.0 3840.0,1446.0 3840.0,1442.0 C 3841.0,1438.0 3857.0,1425.0 3876.0,1412.0 C 3906.0,1394.0 3925.0,1390.0 3996.0,1390.0 C 4081.0,1390.0 4092.0,1386.0 4064.0,1366.0 C 4038.0,1347.0 4062.0,1300.0 4098.0,1300.0 C 4134.0,1300.0 4172.0,1264.0 4150.0,1250.0 C 4138.0,1243.0 4139.0,1240.0 4154.0,1234.0 C 4172.0,1227.0 4171.0,1226.0 4149.0,1218.0 C 4129.0,1210.0 4121.0,1214.0 4100.0,1240.0 C 4086.0,1256.0 4070.0,1270.0 4064.0,1270.0 C 4058.0,1270.0 4047.0,1277.0 4040.0,1285.0 C 4019.0,1310.0 4008.0,1302.0 4015.0,1269.0 C 4028.0,1210.0 4037.0,1130.0 4030.0,1130.0 C 4026.0,1130.0 4020.0,1158.0 4016.0,1191.0 C 4013.0,1225.0 4006.0,1258.0 4001.0,1264.0 C 3996.0,1270.0 3990.0,1286.0 3988.0,1300.0 C 3986.0,1320.0 3977.0,1327.0 3940.0,1335.0 C 3915.0,1340.0 3884.0,1353.0 3870.0,1362.0 C 3856.0,1371.0 3832.0,1384.0 3817.0,1391.0 C 3801.0,1398.0 3780.0,1421.0 3769.0,1442.0 C 3745.0,1488.0 3704.0,1512.0 3686.0,1489.0 C 3680.0,1481.0 3651.0,1462.0 3622.0,1447.0 C 3539.0,1405.0 3447.0,1413.0 3434.0,1465.0 C 3423.0,1508.0 3445.0,1523.0 3511.0,1515.0 C 3567.0,1508.0 3568.0,1508.0 3609.0,1550.0 C 3652.0,1593.0 3661.0,1627.0 3637.0,1656.0 C 3605.0,1697.0 3564.0,1730.0 3545.0,1730.0 C 3534.0,1730.0 3519.0,1734.0 3511.0,1739.0 C 3490.0,1752.0 3515.0,1763.0 3550.0,1755.0 C 3581.0,1748.0 3610.0,1758.0 3593.0,1769.0 C 3578.0,1779.0 3552.0,1837.0 3559.0,1846.0 C 3565.0,1855.0 3583.0,1867.0 3634.0,1898.0 C 3650.0,1907.0 3675.0,1925.0 3690.0,1937.0 C 3727.0,1967.0 3757.0,1966.0 3772.0,1935.0 C 3786.0,1904.0 3798.0,1904.0 3840.0,1935.0 C 3859.0,1949.0 3882.0,1960.0 3893.0,1960.0 C 3909.0,1960.0 3910.0,1965.0 3904.0,2006.0 C 3898.0,2046.0 3900.0,2054.0 3924.0,2079.0 C 3946.0,2102.0 3951.0,2115.0 3948.0,2145.0 C 3945.0,2178.0 3938.0,2188.0 3896.0,2217.0 C 3839.0,2256.0 3787.0,2262.0 3770.0,2230.0 C 3764.0,2219.0 3753.0,2210.0 3745.0,2210.0 C 3737.0,2210.0 3725.0,2198.0 3718.0,2183.0 C 3710.0,2165.0 3696.0,2154.0 3680.0,2152.0 L 3655.0,2150.0 L 3681.0,2164.0 C 3696.0,2173.0 3710.0,2188.0 3713.0,2200.0 C 3716.0,2212.0 3726.0,2220.0 3739.0,2220.0 C 3751.0,2220.0 3760.0,2224.0 3760.0,2228.0 C 3760.0,2233.0 3770.0,2246.0 3781.0,2259.0 C 3796.0,2275.0 3805.0,2279.0 3813.0,2271.0 C 3819.0,2265.0 3834.0,2260.0 3847.0,2260.0 L 3870.0,2260.0 L 3844.0,2300.0 C 3829.0,2322.0 3812.0,2340.0 3806.0,2340.0 C 3800.0,2340.0 3803.0,2345.0 3813.0,2351.0 C 3824.0,2357.0 3830.0,2373.0 3830.0,2396.0 C 3830.0,2443.0 3817.0,2465.0 3780.0,2480.0 C 3746.0,2494.0 3745.0,2497.0 3765.0,2524.0 C 3788.0,2554.0 3783.0,2595.0 3754.0,2630.0 C 3731.0,2657.0 3729.0,2664.0 3739.0,2686.0 C 3747.0,2705.0 3755.0,2710.0 3770.0,2705.0 C 3780.0,2702.0 3800.0,2704.0 3812.0,2711.0 C 3841.0,2726.0 3900.0,2786.0 3900.0,2800.0 C 3900.0,2806.0 3876.0,2835.0 3847.0,2865.0 C 3809.0,2904.0 3786.0,2920.0 3767.0,2920.0 C 3753.0,2920.0 3739.0,2916.0 3736.0,2911.0 C 3729.0,2900.0 3610.0,2900.0 3610.0,2912.0 C 3610.0,2916.0 3633.0,2920.0 3660.0,2920.0 C 3704.0,2920.0 3710.0,2923.0 3710.0,2941.0 C 3710.0,2952.0 3705.0,2970.0 3699.0,2982.0 C 3693.0,2993.0 3690.0,3004.0 3693.0,3006.0 C 3703.0,3016.0 3748.0,2997.0 3753.0,2981.0 C 3759.0,2955.0 3829.0,2960.0 3848.0,2988.0 C 3858.0,3003.0 3873.0,3010.0 3896.0,3010.0 C 3940.0,3010.0 3949.0,2992.0 3908.0,2988.0 C 3875.0,2985.0 3875.0,2985.0 3875.0,2932.0 C 3876.0,2873.0 3900.0,2836.0 3922.0,2858.0 C 3932.0,2868.0 3932.0,2875.0 3922.0,2891.0 C 3914.0,2903.0 3911.0,2914.0 3913.0,2916.0 C 3923.0,2926.0 3969.0,2896.0 3974.0,2875.0 C 3979.0,2854.0 4017.0,2830.0 4045.0,2830.0 C 4052.0,2830.0 4060.0,2820.0 4062.0,2808.0 C 4064.0,2793.0 4077.0,2780.0 4098.0,2771.0 C 4136.0,2754.0 4140.0,2730.0 4104.0,2730.0 C 4087.0,2730.0 4063.0,2746.0 4030.0,2780.0 C 4003.0,2808.0 3974.0,2830.0 3966.0,2830.0 C 3944.0,2830.0 3946.0,2818.0 3972.0,2790.0 C 3985.0,2777.0 3993.0,2756.0 3992.0,2744.0 C 3990.0,2728.0 3996.0,2721.0 4015.0,2716.0 C 4030.0,2712.0 4050.0,2712.0 4061.0,2715.0 C 4071.0,2719.0 4093.0,2713.0 4110.0,2703.0 C 4145.0,2683.0 4151.0,2655.0 4119.0,2663.0 C 4095.0,2669.0 4070.0,2662.0 4070.0,2649.0 C 4070.0,2644.0 4077.0,2640.0 4086.0,2640.0 C 4095.0,2640.0 4115.0,2632.0 4131.0,2623.0 C 4177.0,2596.0 4168.0,2560.0 4111.0,2540.0 C 4087.0,2532.0 4065.0,2519.0 4062.0,2512.0 C 4058.0,2498.0 4126.0,2465.0 4181.0,2455.0 C 4215.0,2449.0 4220.0,2444.0 4239.0,2391.0 C 4261.0,2330.0 4260.0,2260.0 4237.0,2212.0 C 4228.0,2193.0 4230.0,2187.0 4248.0,2174.0 C 4278.0,2153.0 4276.0,2138.0 4244.0,2146.0 C 4202.0,2157.0 4219.0,2128.0 4268.0,2106.0 C 4295.0,2094.0 4310.0,2080.0 4310.0,2069.0 C 4310.0,2056.0 4322.0,2048.0 4353.0,2040.0 C 4419.0,2023.0 4420.0,2022.0 4420.0,1993.0 C 4420.0,1978.0 4425.0,1958.0 4430.0,1950.0 C 4438.0,1937.0 4441.0,1937.0 4452.0,1949.0 C 4462.0,1960.0 4462.0,1963.0 4453.0,1967.0 C 4446.0,1970.0 4440.0,1976.0 4440.0,1981.0 C 4440.0,1999.0 4469.0,1977.0 4480.0,1950.0 C 4499.0,1905.0 4586.0,1894.0 4626.0,1931.0 L 4649.0,1952.0 L 4669.0,1911.0 C 4681.0,1889.0 4690.0,1864.0 4690.0,1856.0 C 4690.0,1848.0 4693.0,1840.0 4698.0,1838.0 C 4713.0,1831.0 4751.0,1769.0 4745.0,1760.0 C 4742.0,1754.0 4720.0,1747.0 4698.0,1743.0 C 4641.0,1734.0 4591.0,1687.0 4583.0,1636.0 C 4577.0,1601.0 4579.0,1597.0 4596.0,1603.0 C 4691.0,1633.0 4699.0,1634.0 4735.0,1617.0 C 4755.0,1608.0 4777.0,1600.0 4784.0,1600.0 C 4792.0,1600.0 4800.0,1591.0 4803.0,1580.0 C 4811.0,1549.0 4835.0,1556.0 4853.0,1595.0 C 4868.0,1626.0 4874.0,1630.0 4910.0,1630.0 C 4939.0,1630.0 4950.0,1626.0 4950.0,1615.0 C 4950.0,1596.0 4981.0,1560.0 4997.0,1560.0 C 5003.0,1560.0 5013.0,1554.0 5017.0,1546.0 C 5030.0,1524.0 5080.0,1520.0 5099.0,1539.0 C 5120.0,1560.0 5140.0,1555.0 5140.0,1529.0 C 5140.0,1502.0 5190.0,1480.0 5252.0,1480.0 C 5283.0,1479.0 5313.0,1473.0 5324.0,1465.0 C 5351.0,1444.0 5375.0,1446.0 5434.0,1474.0 C 5486.0,1498.0 5550.0,1516.0 5550.0,1506.0 C 5550.0,1503.0 5534.0,1493.0 5515.0,1484.0 C 5496.0,1475.0 5480.0,1461.0 5480.0,1453.0 C 5480.0,1445.0 5465.0,1433.0 5448.0,1425.0 C 5386.0,1398.0 5379.0,1388.0 5386.0,1334.0 C 5390.0,1307.0 5400.0,1276.0 5410.0,1265.0 C 5420.0,1254.0 5430.0,1233.0 5434.0,1217.0 C 5440.0,1193.0 5444.0,1191.0 5468.0,1196.0 C 5483.0,1200.0 5498.0,1208.0 5502.0,1214.0 C 5507.0,1222.0 5515.0,1221.0 5530.0,1212.0 C 5556.0,1196.0 5570.0,1197.0 5570.0,1213.0 C 5570.0,1234.0 5613.0,1269.0 5648.0,1276.0 C 5668.0,1280.0 5680.0,1289.0 5680.0,1299.0 C 5680.0,1308.0 5683.0,1325.0 5686.0,1338.0 C 5696.0,1372.0 5659.0,1366.0 5638.0,1330.0 C 5619.0,1297.0 5586.0,1290.0 5576.0,1316.0 C 5572.0,1325.0 5576.0,1340.0 5585.0,1350.0 C 5593.0,1359.0 5600.0,1378.0 5600.0,1392.0 C 5600.0,1406.0 5607.0,1423.0 5615.0,1430.0 C 5635.0,1446.0 5634.0,1460.0 5613.0,1476.0 C 5589.0,1493.0 5598.0,1497.0 5645.0,1489.0 C 5667.0,1486.0 5675.0,1482.0 5662.0,1481.0 C 5621.0,1479.0 5649.0,1461.0 5691.0,1463.0 C 5727.0,1464.0 5731.0,1466.0 5728.0,1490.0 C 5726.0,1506.0 5715.0,1520.0 5697.0,1528.0 C 5676.0,1538.0 5671.0,1545.0 5679.0,1553.0 C 5687.0,1561.0 5693.0,1561.0 5701.0,1553.0 C 5708.0,1546.0 5722.0,1548.0 5749.0,1561.0 C 5781.0,1576.0 5789.0,1587.0 5799.0,1624.0 C 5805.0,1649.0 5816.0,1673.0 5824.0,1677.0 C 5832.0,1682.0 5842.0,1720.0 5849.0,1775.0 C 5857.0,1831.0 5869.0,1878.0 5882.0,1900.0 C 5911.0,1948.0 5914.0,2053.0 5888.0,2140.0 C 5878.0,2176.0 5870.0,2217.0 5872.0,2232.0 C 5874.0,2250.0 5868.0,2264.0 5855.0,2273.0 C 5837.0,2287.0 5837.0,2288.0 5862.0,2319.0 C 5877.0,2336.0 5892.0,2359.0 5895.0,2371.0 C 5905.0,2403.0 5880.0,2481.0 5848.0,2518.0 C 5833.0,2536.0 5820.0,2555.0 5820.0,2561.0 C 5820.0,2581.0 5745.0,2669.0 5727.0,2670.0 C 5718.0,2670.0 5704.0,2682.0 5698.0,2698.0 C 5691.0,2713.0 5675.0,2734.0 5662.0,2745.0 C 5619.0,2782.0 5661.0,2836.0 5739.0,2842.0 C 5784.0,2846.0 5799.0,2870.0 5776.0,2901.0 C 5767.0,2914.0 5748.0,2940.0 5735.0,2959.0 C 5720.0,2979.0 5710.0,3007.0 5710.0,3027.0 C 5710.0,3046.0 5702.0,3073.0 5692.0,3088.0 C 5628.0,3183.0 5599.0,3230.0 5581.0,3270.0 C 5570.0,3295.0 5560.0,3309.0 5560.0,3302.0 C 5560.0,3292.0 5552.0,3290.0 5530.0,3295.0 C 5495.0,3303.0 5489.0,3287.0 5520.0,3270.0 C 5531.0,3264.0 5540.0,3253.0 5540.0,3246.0 C 5540.0,3238.0 5547.0,3227.0 5555.0,3220.0 C 5565.0,3212.0 5570.0,3191.0 5570.0,3161.0 L 5569.0,3115.0 L 5544.0,3160.0 L 5519.0,3205.0 L 5525.0,3170.0 C 5529.0,3151.0 5535.0,3126.0 5539.0,3115.0 C 5553.0,3082.0 5571.0,2987.0 5564.0,2981.0 C 5561.0,2978.0 5548.0,2987.0 5536.0,3003.0 C 5513.0,3032.0 5491.0,3037.0 5472.0,3018.0 C 5455.0,3001.0 5475.0,2973.0 5513.0,2961.0 C 5551.0,2948.0 5576.0,2910.0 5557.0,2891.0 C 5551.0,2885.0 5530.0,2880.0 5510.0,2880.0 C 5491.0,2880.0 5466.0,2873.0 5456.0,2865.0 C 5446.0,2857.0 5434.0,2853.0 5429.0,2855.0 C 5425.0,2858.0 5419.0,2856.0 5415.0,2850.0 C 5412.0,2845.0 5388.0,2840.0 5363.0,2840.0 L 5318.0,2840.0 L 5324.0,2809.0 C 5332.0,2770.0 5315.0,2753.0 5264.0,2748.0 C 5233.0,2746.0 5226.0,2748.0 5229.0,2760.0 C 5231.0,2768.0 5235.0,2791.0 5238.0,2810.0 C 5243.0,2853.0 5266.0,2880.0 5297.0,2880.0 C 5309.0,2880.0 5320.0,2885.0 5320.0,2891.0 C 5320.0,2898.0 5328.0,2909.0 5338.0,2916.0 C 5354.0,2929.0 5354.0,2931.0 5338.0,2944.0 C 5328.0,2951.0 5320.0,2964.0 5320.0,2972.0 C 5320.0,2980.0 5315.0,2991.0 5309.0,2997.0 C 5302.0,3004.0 5303.0,3012.0 5314.0,3023.0 C 5323.0,3032.0 5330.0,3043.0 5330.0,3049.0 C 5330.0,3055.0 5336.0,3060.0 5343.0,3060.0 C 5358.0,3060.0 5379.0,3040.0 5411.0,2998.0 C 5433.0,2968.0 5450.0,2962.0 5450.0,2983.0 C 5449.0,3001.0 5410.0,3042.0 5360.0,3077.0 C 5335.0,3094.0 5288.0,3132.0 5255.0,3162.0 C 5194.0,3217.0 5033.0,3320.0 5009.0,3320.0 C 4982.0,3320.0 4965.0,3303.0 4977.0,3288.0 C 4983.0,3281.0 4990.0,3257.0 4992.0,3235.0 C 4994.0,3205.0 4991.0,3195.0 4980.0,3195.0 C 4970.0,3195.0 4964.0,3207.0 4962.0,3234.0 L 4959.0,3272.0 L 4908.0,3266.0 C 4880.0,3262.0 4847.0,3254.0 4836.0,3247.0 C 4824.0,3241.0 4811.0,3237.0 4806.0,3238.0 C 4801.0,3240.0 4794.0,3236.0 4789.0,3229.0 C 4782.0,3217.0 4720.0,3190.0 4690.0,3186.0 C 4681.0,3185.0 4663.0,3176.0 4650.0,3167.0 C 4636.0,3158.0 4618.0,3150.0 4609.0,3150.0 C 4592.0,3150.0 4502.0,3092.0 4417.0,3027.0 C 4366.0,2988.0 4316.0,2970.0 4258.0,2970.0 C 4212.0,2970.0 4190.0,2998.0 4190.0,3057.0 C 4190.0,3095.0 4187.0,3100.0 4163.0,3106.0 C 4144.0,3111.0 4125.0,3107.0 4099.0,3092.0 C 4078.0,3080.0 4052.0,3070.0 4041.0,3070.0 C 4024.0,3070.0 4021.0,3065.0 4027.0,3040.0 C 4031.0,3017.0 4029.0,3010.0 4017.0,3010.0 C 3994.0,3010.0 3970.0,3049.0 3970.0,3087.0 C 3970.0,3116.0 3974.0,3120.0 4006.0,3126.0 C 4037.0,3132.0 4044.0,3139.0 4065.0,3186.0 C 4078.0,3216.0 4093.0,3240.0 4099.0,3240.0 C 4109.0,3240.0 4193.0,3308.0 4198.0,3320.0 C 4204.0,3336.0 4092.0,3343.0 4059.0,3330.0 C 4019.0,3313.0 4003.0,3328.0 3991.0,3393.0 C 3981.0,3446.0 3957.0,3480.0 3928.0,3480.0 C 3918.0,3480.0 3899.0,3492.0 3886.0,3506.0 C 3866.0,3530.0 3854.0,3533.0 3787.0,3538.0 C 3740.0,3541.0 3706.0,3548.0 3699.0,3556.0 C 3684.0,3574.0 3694.0,3577.0 3788.0,3588.0 C 3843.0,3594.0 3868.0,3593.0 3887.0,3583.0 C 3901.0,3576.0 3917.0,3570.0 3924.0,3570.0 C 3930.0,3570.0 3946.0,3552.0 3960.0,3530.0 C 3984.0,3492.0 3987.0,3490.0 4037.0,3490.0 C 4070.0,3490.0 4094.0,3485.0 4104.0,3475.0 C 4121.0,3458.0 4168.0,3464.0 4185.0,3485.0 C 4203.0,3506.0 4401.0,3554.0 4472.0,3554.0 C 4492.0,3554.0 4507.0,3558.0 4504.0,3562.0 C 4501.0,3566.0 4504.0,3578.0 4510.0,3589.0 C 4519.0,3607.0 4516.0,3609.0 4488.0,3612.0 C 4438.0,3617.0 4442.0,3642.0 4495.0,3663.0 C 4520.0,3674.0 4540.0,3686.0 4540.0,3692.0 C 4540.0,3697.0 4548.0,3699.0 4558.0,3696.0 C 4582.0,3688.0 4604.0,3705.0 4597.0,3724.0 C 4593.0,3735.0 4578.0,3740.0 4551.0,3740.0 C 4521.0,3740.0 4508.0,3745.0 4500.0,3759.0 C 4483.0,3792.0 4489.0,3813.0 4528.0,3859.0 C 4563.0,3900.0 4566.0,3907.0 4556.0,3932.0 C 4549.0,3951.0 4539.0,3960.0 4523.0,3960.0 C 4499.0,3960.0 4496.0,3969.0 4506.0,4008.0 C 4512.0,4027.0 4519.0,4030.0 4567.0,4030.0 C 4626.0,4030.0 4660.0,4043.0 4660.0,4064.0 C 4660.0,4093.0 4557.0,4099.0 4523.0,4072.0 C 4511.0,4063.0 4495.0,4038.0 4486.0,4017.0 C 4478.0,3997.0 4464.0,3977.0 4456.0,3974.0 C 4448.0,3971.0 4402.0,3978.0 4353.0,3990.0 C 4228.0,4021.0 4209.0,4040.0 4284.0,4059.0 C 4315.0,4067.0 4337.0,4067.0 4356.0,4060.0 C 4387.0,4048.0 4384.0,4046.0 4397.0,4085.0 C 4406.0,4114.0 4409.0,4115.0 4486.0,4123.0 C 4599.0,4134.0 4639.0,4133.0 4654.0,4121.0 C 4661.0,4115.0 4674.0,4112.0 4682.0,4115.0 C 4694.0,4120.0 4699.0,4111.0 4704.0,4081.0 C 4711.0,4037.0 4751.0,4000.0 4790.0,4000.0 C 4808.0,4000.0 4811.0,4004.0 4807.0,4022.0 C 4803.0,4034.0 4805.0,4049.0 4810.0,4055.0 C 4816.0,4062.0 4815.0,4081.0 4807.0,4105.0 C 4798.0,4136.0 4798.0,4144.0 4809.0,4148.0 C 4816.0,4150.0 4836.0,4166.0 4854.0,4184.0 C 4872.0,4201.0 4894.0,4220.0 4903.0,4225.0 C 4916.0,4233.0 4919.0,4253.0 4920.0,4320.0 C 4921.0,4367.0 4918.0,4425.0 4915.0,4448.0 C 4910.0,4476.0 4912.0,4496.0 4919.0,4503.0 C 4925.0,4509.0 4930.0,4522.0 4930.0,4532.0 C 4930.0,4541.0 4937.0,4553.0 4946.0,4558.0 C 4959.0,4565.0 4960.0,4571.0 4951.0,4588.0 C 4945.0,4599.0 4940.0,4625.0 4940.0,4645.0 C 4940.0,4665.0 4935.0,4691.0 4929.0,4703.0 C 4922.0,4714.0 4909.0,4757.0 4899.0,4797.0 C 4889.0,4837.0 4871.0,4888.0 4860.0,4910.0 C 4841.0,4947.0 4840.0,4956.0 4851.0,5013.0 C 4863.0,5076.0 4894.0,5124.0 4932.0,5136.0 C 4942.0,5139.0 4962.0,5164.0 4975.0,5191.0 C 4992.0,5223.0 5007.0,5240.0 5019.0,5240.0 C 5046.0,5240.0 5061.0,5263.0 5068.0,5317.0 C 5074.0,5358.0 5079.0,5366.0 5105.0,5375.0 C 5141.0,5387.0 5149.0,5396.0 5143.0,5420.0 C 5139.0,5434.0 5147.0,5438.0 5179.0,5443.0 C 5235.0,5450.0 5257.0,5443.0 5264.0,5414.0 C 5271.0,5389.0 5289.0,5383.0 5306.0,5400.0 C 5313.0,5407.0 5324.0,5403.0 5340.0,5388.0 L 5365.0,5365.0 L 5342.0,5362.0 C 5330.0,5360.0 5320.0,5352.0 5320.0,5344.0 C 5320.0,5336.0 5304.0,5313.0 5285.0,5291.0 C 5245.0,5247.0 5243.0,5240.0 5269.0,5240.0 C 5282.0,5240.0 5289.0,5230.0 5294.0,5208.0 C 5303.0,5163.0 5273.0,5146.0 5235.0,5174.0 C 5219.0,5186.0 5218.0,5190.0 5229.0,5204.0 C 5252.0,5232.0 5201.0,5224.0 5174.0,5195.0 C 5161.0,5181.0 5141.0,5169.0 5128.0,5168.0 C 5115.0,5168.0 5098.0,5167.0 5090.0,5166.0 C 5067.0,5164.0 5066.0,5133.0 5089.0,5125.0 C 5102.0,5121.0 5112.0,5107.0 5116.0,5085.0 C 5125.0,5036.0 5140.0,5027.0 5190.0,5040.0 C 5212.0,5046.0 5233.0,5057.0 5236.0,5065.0 C 5246.0,5090.0 5279.0,5092.0 5315.0,5070.0 C 5334.0,5058.0 5354.0,5051.0 5360.0,5055.0 C 5378.0,5066.0 5388.0,5050.0 5381.0,5022.0 C 5376.0,5002.0 5366.0,4994.0 5344.0,4990.0 C 5327.0,4987.0 5314.0,4978.0 5312.0,4967.0 C 5308.0,4949.0 5364.0,4820.0 5375.0,4820.0 C 5397.0,4820.0 5441.0,4855.0 5446.0,4876.0 C 5455.0,4911.0 5443.0,4989.0 5425.0,5017.0 C 5405.0,5047.0 5414.0,5084.0 5454.0,5135.0 C 5472.0,5157.0 5493.0,5187.0 5502.0,5201.0 C 5533.0,5251.0 5650.0,5242.0 5650.0,5191.0 C 5650.0,5180.0 5636.0,5158.0 5619.0,5141.0 C 5585.0,5107.0 5586.0,5086.0 5624.0,5038.0 C 5635.0,5023.0 5653.0,4999.0 5663.0,4985.0 C 5677.0,4966.0 5689.0,4960.0 5707.0,4962.0 C 5729.0,4964.0 5736.0,4974.0 5751.0,5020.0 C 5761.0,5050.0 5770.0,5104.0 5770.0,5140.0 C 5770.0,5198.0 5774.0,5210.0 5800.0,5242.0 C 5817.0,5263.0 5843.0,5285.0 5857.0,5292.0 C 5872.0,5300.0 5895.0,5330.0 5915.0,5367.0 C 5932.0,5402.0 5958.0,5442.0 5973.0,5457.0 C 5988.0,5473.0 6019.0,5511.0 6043.0,5542.0 L 6087.0,5600.0 L 6094.0,5726.0 C 6102.0,5862.0 6110.0,5897.0 6137.0,5907.0 C 6187.0,5925.0 6167.0,5974.0 6081.0,6044.0 C 6025.0,6090.0 6011.0,6107.0 5999.0,6147.0 C 5986.0,6191.0 5980.0,6197.0 5925.0,6224.0 L 5865.0,6253.0 L 5800.0,6236.0 C 5764.0,6227.0 5710.0,6220.0 5680.0,6220.0 C 5650.0,6220.0 5585.0,6209.0 5537.0,6195.0 C 5430.0,6166.0 5365.0,6162.0 5325.0,6182.0 C 5309.0,6190.0 5275.0,6200.0 5250.0,6203.0 C 5212.0,6208.0 5198.0,6216.0 5156.0,6262.0 C 5096.0,6328.0 5070.0,6368.0 5070.0,6397.0 C 5070.0,6423.0 5034.0,6460.0 5008.0,6460.0 C 4996.0,6460.0 4990.0,6453.0 4990.0,6437.0 C 4990.0,6424.0 4972.0,6394.0 4950.0,6370.0 C 4928.0,6346.0 4910.0,6321.0 4910.0,6315.0 C 4910.0,6310.0 4899.0,6295.0 4885.0,6282.0 C 4871.0,6268.0 4860.0,6244.0 4857.0,6222.0 C 4854.0,6195.0 4853.0,6201.0 4852.0,6243.0 C 4851.0,6274.0 4854.0,6300.0 4860.0,6300.0 C 4865.0,6300.0 4873.0,6316.0 4879.0,6335.0 C 4890.0,6375.0 5000.0,6487.0 5037.0,6496.0 C 5071.0,6505.0 5103.0,6563.0 5095.0,6600.0 C 5091.0,6617.0 5093.0,6636.0 5098.0,6643.0 C 5104.0,6651.0 5102.0,6674.0 5092.0,6708.0 C 5074.0,6773.0 5044.0,6790.0 4995.0,6767.0 C 4975.0,6758.0 4957.0,6756.0 4942.0,6761.0 C 4917.0,6770.0 4882.0,6760.0 4839.0,6729.0 C 4811.0,6709.0 4811.0,6709.0 4794.0,6728.0 C 4738.0,6794.0 4730.0,6800.0 4698.0,6800.0 C 4671.0,6800.0 4661.0,6794.0 4647.0,6770.0 C 4622.0,6728.0 4597.0,6717.0 4564.0,6732.0 C 4541.0,6743.0 4536.0,6742.0 4524.0,6725.0 C 4516.0,6715.0 4510.0,6700.0 4510.0,6693.0 C 4510.0,6686.0 4502.0,6680.0 4493.0,6680.0 C 4466.0,6680.0 4413.0,6644.0 4406.0,6622.0 C 4400.0,6604.0 4388.0,6601.0 4299.0,6598.0 C 4225.0,6596.0 4197.0,6591.0 4190.0,6580.0 C 4185.0,6572.0 4178.0,6569.0 4174.0,6573.0 C 4159.0,6588.0 4187.0,6600.0 4273.0,6613.0 C 4348.0,6625.0 4366.0,6632.0 4394.0,6659.0 C 4411.0,6676.0 4434.0,6690.0 4444.0,6690.0 C 4455.0,6690.0 4479.0,6706.0 4498.0,6726.0 C 4529.0,6758.0 4537.0,6761.0 4571.0,6756.0 C 4605.0,6751.0 4611.0,6753.0 4630.0,6780.0 C 4648.0,6805.0 4658.0,6810.0 4694.0,6810.0 C 4717.0,6810.0 4745.0,6803.0 4756.0,6795.0 C 4784.0,6774.0 4802.0,6777.0 4826.0,6807.0 C 4845.0,6831.0 4851.0,6833.0 4871.0,6823.0 C 4884.0,6817.0 4915.0,6809.0 4940.0,6806.0 C 4965.0,6803.0 5000.0,6798.0 5018.0,6794.0 C 5047.0,6788.0 5050.0,6789.0 5050.0,6813.0 C 5050.0,6827.0 5039.0,6855.0 5026.0,6875.0 C 4987.0,6932.0 4961.0,7025.0 4945.0,7164.0 C 4926.0,7325.0 4931.0,7530.0 4955.0,7566.0 C 4964.0,7580.0 4968.0,7599.0 4965.0,7609.0 C 4962.0,7621.0 4965.0,7630.0 4975.0,7634.0 C 4983.0,7637.0 4990.0,7651.0 4990.0,7665.0 C 4990.0,7689.0 4988.0,7690.0 4925.0,7690.0 C 4889.0,7690.0 4844.0,7696.0 4826.0,7704.0 C 4787.0,7720.0 4670.0,7799.0 4670.0,7809.0 C 4670.0,7813.0 4638.0,7842.0 4599.0,7874.0 C 4560.0,7906.0 4521.0,7948.0 4512.0,7966.0 C 4491.0,8012.0 4449.0,8013.0 4403.0,7968.0 C 4385.0,7951.0 4368.0,7939.0 4365.0,7942.0 C 4353.0,7953.0 4374.0,7982.0 4415.0,8010.0 C 4462.0,8043.0 4463.0,8042.0 4534.0,7976.0 C 4555.0,7956.0 4589.0,7931.0 4609.0,7921.0 C 4629.0,7910.0 4664.0,7882.0 4686.0,7858.0 C 4813.0,7726.0 4866.0,7691.0 4917.0,7706.0 C 4933.0,7710.0 4972.0,7714.0 5004.0,7714.0 L 5063.0,7715.0 L 5096.0,7815.0 C 5115.0,7869.0 5130.0,7926.0 5130.0,7940.0 C 5130.0,7982.0 5199.0,8209.0 5232.0,8273.0 C 5265.0,8340.0 5328.0,8420.0 5346.0,8420.0 C 5352.0,8420.0 5374.0,8438.0 5394.0,8460.0 C 5427.0,8497.0 5430.0,8505.0 5430.0,8560.0 C 5430.0,8593.0 5417.0,8705.0 5400.0,8810.0 C 5379.0,8949.0 5373.0,9007.0 5380.0,9026.0 C 5386.0,9040.0 5390.0,9066.0 5390.0,9085.0 C 5390.0,9118.0 5398.0,9143.0 5424.0,9188.0 C 5439.0,9215.0 5428.0,9276.0 5405.0,9295.0 C 5398.0,9300.0 5384.0,9320.0 5374.0,9339.0 C 5363.0,9358.0 5334.0,9403.0 5308.0,9438.0 C 5230.0,9543.0 5200.0,9645.0 5220.0,9732.0 C 5233.0,9785.0 5299.0,9892.0 5384.0,9995.0 C 5407.0,10023.0 5441.0,10066.0 5460.0,10092.0 C 5479.0,10118.0 5506.0,10144.0 5520.0,10149.0 C 5534.0,10155.0 5559.0,10171.0 5575.0,10185.0 C 5604.0,10210.0 5604.0,10211.0 5586.0,10225.0 C 5559.0,10245.0 5514.0,10243.0 5464.0,10221.0 M 4866.0,6084.0 C 4863.0,6076.0 4855.0,6070.0 4849.0,6070.0 C 4841.0,6070.0 4840.0,6082.0 4844.0,6108.0 C 4857.0,6177.0 4865.0,6189.0 4868.0,6141.0 C 4870.0,6117.0 4869.0,6091.0 4866.0,6084.0" fill="pink"/>
	<path d="M 6443.0,8809.0 C 6408.0,8793.0 6391.0,8791.0 6346.0,8798.0 C 6298.0,8806.0 6291.0,8805.0 6287.0,8789.0 C 6284.0,8777.0 6268.0,8770.0 6234.0,8765.0 C 6121.0,8751.0 6088.0,8738.0 6063.0,8695.0 C 6024.0,8630.0 6009.0,8590.0 6015.0,8571.0 C 6022.0,8547.0 6069.0,8525.0 6084.0,8540.0 C 6089.0,8545.0 6101.0,8550.0 6110.0,8550.0 C 6131.0,8550.0 6190.0,8489.0 6190.0,8467.0 C 6190.0,8444.0 6196.0,8445.0 6277.0,8485.0 C 6362.0,8527.0 6400.0,8571.0 6400.0,8627.0 C 6400.0,8649.0 6395.0,8671.0 6388.0,8678.0 C 6370.0,8696.0 6387.0,8707.0 6459.0,8725.0 C 6519.0,8741.0 6534.0,8741.0 6571.0,8725.0 C 6584.0,8720.0 6591.0,8727.0 6599.0,8753.0 C 6615.0,8802.0 6606.0,8816.0 6553.0,8824.0 C 6494.0,8832.0 6492.0,8832.0 6443.0,8809.0" fill="pink"/>
	<path d="M 6248.0,8444.0 C 6217.0,8428.0 6220.0,8400.0 6252.0,8400.0 C 6298.0,8400.0 6330.0,8440.0 6294.0,8454.0 C 6275.0,8461.0 6281.0,8462.0 6248.0,8444.0" fill="pink"/>
	<path d="M 8425.0,4896.0 C 8352.0,4873.0 8304.0,4840.0 8070.0,4655.0 C 7919.0,4535.0 7840.0,4482.0 7762.0,4449.0 C 7710.0,4428.0 7702.0,4421.0 7718.0,4416.0 C 7729.0,4412.0 7744.0,4396.0 7750.0,4379.0 C 7765.0,4344.0 7802.0,4326.0 7839.0,4335.0 C 7852.0,4338.0 7896.0,4357.0 7937.0,4376.0 C 7978.0,4396.0 8018.0,4410.0 8027.0,4408.0 C 8043.0,4405.0 8077.0,4313.0 8101.0,4207.0 C 8108.0,4175.0 8117.0,4147.0 8122.0,4144.0 C 8136.0,4135.0 8131.0,4090.0 8115.0,4084.0 C 8094.0,4076.0 8096.0,4059.0 8130.0,3961.0 C 8146.0,3914.0 8164.0,3850.0 8169.0,3820.0 C 8174.0,3790.0 8184.0,3745.0 8190.0,3720.0 C 8203.0,3668.0 8202.0,3669.0 8197.0,3610.0 C 8191.0,3559.0 8182.0,3530.0 8170.0,3530.0 C 8156.0,3530.0 8150.0,3499.0 8161.0,3479.0 C 8173.0,3456.0 8163.0,3417.0 8147.0,3423.0 C 8141.0,3425.0 8133.0,3437.0 8130.0,3451.0 C 8122.0,3482.0 8090.0,3490.0 8090.0,3460.0 C 8090.0,3444.0 8085.0,3439.0 8068.0,3442.0 C 8051.0,3444.0 8044.0,3453.0 8042.0,3474.0 C 8039.0,3501.0 8040.0,3503.0 8070.0,3497.0 C 8093.0,3492.0 8102.0,3494.0 8107.0,3506.0 C 8114.0,3526.0 8094.0,3540.0 8057.0,3540.0 C 8033.0,3540.0 8030.0,3543.0 8035.0,3561.0 C 8041.0,3578.0 8038.0,3581.0 8023.0,3578.0 C 8011.0,3576.0 8005.0,3566.0 8004.0,3549.0 C 8002.0,3503.0 7992.0,3490.0 7960.0,3490.0 C 7937.0,3490.0 7930.0,3486.0 7930.0,3471.0 C 7930.0,3445.0 7920.0,3420.0 7909.0,3420.0 C 7892.0,3420.0 7914.0,3486.0 7952.0,3544.0 C 7973.0,3576.0 7990.0,3611.0 7990.0,3621.0 C 7990.0,3649.0 8001.0,3670.0 8016.0,3670.0 C 8024.0,3670.0 8030.0,3661.0 8030.0,3651.0 C 8030.0,3624.0 8055.0,3618.0 8075.0,3640.0 C 8084.0,3650.0 8102.0,3660.0 8114.0,3662.0 C 8127.0,3664.0 8134.0,3671.0 8131.0,3680.0 C 8129.0,3688.0 8127.0,3743.0 8126.0,3801.0 C 8125.0,3866.0 8120.0,3912.0 8113.0,3921.0 C 8107.0,3929.0 8098.0,3959.0 8094.0,3988.0 C 8089.0,4027.0 8082.0,4044.0 8066.0,4052.0 C 8055.0,4058.0 8042.0,4068.0 8038.0,4074.0 C 8025.0,4094.0 8030.0,4140.0 8049.0,4178.0 C 8073.0,4224.0 8062.0,4250.0 8020.0,4250.0 C 8001.0,4250.0 7987.0,4257.0 7980.0,4269.0 C 7969.0,4290.0 7957.0,4295.0 7894.0,4305.0 L 7853.0,4311.0 L 7847.0,4273.0 C 7842.0,4242.0 7845.0,4231.0 7865.0,4210.0 C 7882.0,4192.0 7890.0,4173.0 7890.0,4147.0 C 7890.0,4121.0 7894.0,4110.0 7905.0,4110.0 C 7930.0,4110.0 7950.0,4068.0 7944.0,4028.0 C 7936.0,3983.0 7899.0,3947.0 7843.0,3931.0 C 7812.0,3923.0 7800.0,3914.0 7800.0,3900.0 C 7800.0,3890.0 7796.0,3879.0 7791.0,3876.0 C 7786.0,3872.0 7779.0,3835.0 7775.0,3792.0 C 7763.0,3637.0 7712.0,3475.0 7688.0,3512.0 C 7684.0,3519.0 7680.0,3535.0 7680.0,3546.0 C 7680.0,3558.0 7673.0,3570.0 7665.0,3574.0 C 7657.0,3577.0 7650.0,3590.0 7650.0,3602.0 C 7650.0,3650.0 7639.0,3655.0 7553.0,3642.0 C 7510.0,3635.0 7460.0,3630.0 7442.0,3630.0 C 7390.0,3630.0 7408.0,3654.0 7466.0,3661.0 C 7493.0,3665.0 7528.0,3673.0 7543.0,3679.0 C 7559.0,3685.0 7582.0,3690.0 7596.0,3690.0 C 7627.0,3690.0 7630.0,3725.0 7599.0,3733.0 C 7582.0,3738.0 7579.0,3744.0 7584.0,3764.0 C 7590.0,3789.0 7565.0,3870.0 7550.0,3870.0 C 7546.0,3870.0 7513.0,3854.0 7476.0,3835.0 C 7403.0,3797.0 7360.0,3791.0 7339.0,3816.0 C 7329.0,3829.0 7329.0,3833.0 7341.0,3841.0 C 7349.0,3846.0 7360.0,3850.0 7367.0,3850.0 C 7374.0,3850.0 7385.0,3868.0 7391.0,3889.0 C 7405.0,3935.0 7425.0,3947.0 7450.0,3925.0 C 7474.0,3904.0 7517.0,3906.0 7530.0,3929.0 C 7556.0,3978.0 7524.0,4067.0 7458.0,4129.0 C 7422.0,4162.0 7420.0,4212.0 7452.0,4234.0 C 7481.0,4255.0 7502.0,4254.0 7498.0,4233.0 C 7496.0,4222.0 7505.0,4212.0 7521.0,4206.0 C 7565.0,4191.0 7580.0,4203.0 7580.0,4257.0 C 7581.0,4310.0 7593.0,4333.0 7628.0,4344.0 C 7646.0,4350.0 7650.0,4359.0 7650.0,4395.0 C 7650.0,4425.0 7645.0,4440.0 7634.0,4444.0 C 7615.0,4451.0 7614.0,4450.0 7533.0,4392.0 C 7457.0,4335.0 7390.0,4316.0 7342.0,4336.0 C 7323.0,4343.0 7306.0,4359.0 7303.0,4370.0 C 7297.0,4393.0 7294.0,4394.0 7236.0,4378.0 C 7200.0,4369.0 7179.0,4369.0 7119.0,4383.0 C 7078.0,4392.0 7021.0,4402.0 6993.0,4405.0 C 6924.0,4413.0 6814.0,4462.0 6766.0,4508.0 C 6745.0,4528.0 6731.0,4538.0 6735.0,4530.0 C 6740.0,4522.0 6746.0,4500.0 6750.0,4480.0 C 6754.0,4451.0 6763.0,4441.0 6802.0,4420.0 C 6827.0,4406.0 6863.0,4387.0 6881.0,4376.0 C 6900.0,4365.0 6941.0,4355.0 6980.0,4353.0 C 7058.0,4347.0 7121.0,4326.0 7150.0,4295.0 C 7170.0,4274.0 7172.0,4263.0 7169.0,4186.0 C 7165.0,4105.0 7164.0,4100.0 7131.0,4066.0 C 7103.0,4037.0 7089.0,4030.0 7058.0,4030.0 C 7036.0,4030.0 7001.0,4021.0 6979.0,4009.0 C 6942.0,3990.0 6937.0,3990.0 6921.0,4004.0 C 6911.0,4013.0 6895.0,4020.0 6885.0,4020.0 C 6868.0,4020.0 6868.0,4019.0 6885.0,4000.0 C 6908.0,3975.0 6917.0,3857.0 6900.0,3806.0 C 6888.0,3767.0 6849.0,3740.0 6807.0,3740.0 C 6795.0,3740.0 6779.0,3735.0 6772.0,3728.0 C 6765.0,3721.0 6760.0,3720.0 6760.0,3725.0 C 6760.0,3731.0 6751.0,3720.0 6740.0,3702.0 C 6722.0,3673.0 6715.0,3669.0 6692.0,3674.0 C 6677.0,3678.0 6658.0,3690.0 6648.0,3700.0 C 6627.0,3726.0 6623.0,3725.0 6616.0,3695.0 C 6608.0,3663.0 6582.0,3663.0 6570.0,3694.0 C 6554.0,3738.0 6443.0,3742.0 6405.0,3700.0 C 6383.0,3676.0 6349.0,3675.0 6250.0,3696.0 C 6178.0,3711.0 6055.0,3711.0 6030.0,3695.0 C 6024.0,3691.0 6029.0,3680.0 6044.0,3669.0 C 6062.0,3655.0 6084.0,3650.0 6130.0,3650.0 C 6194.0,3650.0 6230.0,3638.0 6230.0,3617.0 C 6230.0,3596.0 6322.0,3513.0 6363.0,3496.0 C 6405.0,3479.0 6410.0,3466.0 6379.0,3449.0 C 6356.0,3437.0 6335.0,3439.0 6210.0,3465.0 C 6117.0,3484.0 6120.0,3484.0 6120.0,3461.0 C 6120.0,3434.0 6135.0,3427.0 6203.0,3419.0 C 6293.0,3408.0 6440.0,3327.0 6469.0,3272.0 C 6489.0,3234.0 6510.0,3151.0 6510.0,3109.0 C 6510.0,3063.0 6493.0,3049.0 6436.0,3047.0 C 6400.0,3045.0 6390.0,3041.0 6390.0,3028.0 C 6390.0,3019.0 6387.0,3005.0 6384.0,2996.0 C 6380.0,2985.0 6387.0,2977.0 6406.0,2970.0 C 6429.0,2961.0 6437.0,2962.0 6447.0,2975.0 C 6453.0,2984.0 6456.0,2999.0 6453.0,3007.0 C 6450.0,3015.0 6470.0,2998.0 6497.0,2968.0 C 6528.0,2935.0 6550.0,2902.0 6555.0,2880.0 C 6559.0,2861.0 6571.0,2828.0 6582.0,2807.0 C 6596.0,2778.0 6599.0,2758.0 6595.0,2725.0 C 6591.0,2699.0 6593.0,2668.0 6600.0,2647.0 C 6607.0,2629.0 6610.0,2602.0 6607.0,2589.0 C 6600.0,2561.0 6529.0,2520.0 6487.0,2520.0 C 6415.0,2520.0 6394.0,2460.0 6451.0,2420.0 C 6468.0,2407.0 6485.0,2388.0 6490.0,2375.0 C 6498.0,2354.0 6579.0,2294.0 6635.0,2268.0 C 6661.0,2257.0 6662.0,2253.0 6657.0,2208.0 C 6654.0,2182.0 6657.0,2138.0 6664.0,2111.0 C 6672.0,2080.0 6673.0,2057.0 6667.0,2051.0 C 6653.0,2037.0 6677.0,2001.0 6708.0,1994.0 C 6723.0,1990.0 6740.0,1984.0 6745.0,1979.0 C 6763.0,1965.0 6882.0,1949.0 6970.0,1949.0 C 7053.0,1949.0 7102.0,1959.0 7114.0,1978.0 C 7121.0,1989.0 7158.0,1983.0 7177.0,1967.0 C 7184.0,1962.0 7213.0,1956.0 7242.0,1955.0 C 7306.0,1951.0 7385.0,1919.0 7400.0,1891.0 C 7411.0,1870.0 7450.0,1861.0 7450.0,1879.0 C 7450.0,1900.0 7437.0,1920.0 7424.0,1920.0 C 7416.0,1920.0 7410.0,1922.0 7410.0,1925.0 C 7410.0,1941.0 7441.0,1988.0 7455.0,1994.0 C 7482.0,2004.0 7528.0,2001.0 7536.0,1989.0 C 7541.0,1981.0 7535.0,1979.0 7518.0,1983.0 C 7497.0,1989.0 7492.0,1985.0 7482.0,1957.0 C 7466.0,1912.0 7466.0,1910.0 7495.0,1910.0 C 7509.0,1910.0 7520.0,1915.0 7520.0,1920.0 C 7520.0,1926.0 7527.0,1930.0 7535.0,1930.0 C 7556.0,1930.0 7554.0,1917.0 7530.0,1902.0 C 7507.0,1888.0 7504.0,1867.0 7523.0,1852.0 C 7529.0,1846.0 7562.0,1840.0 7595.0,1837.0 C 7659.0,1831.0 7690.0,1823.0 7690.0,1810.0 C 7690.0,1785.0 7677.0,1774.0 7652.0,1778.0 C 7634.0,1780.0 7616.0,1774.0 7601.0,1761.0 C 7575.0,1739.0 7560.0,1734.0 7560.0,1749.0 C 7560.0,1771.0 7529.0,1768.0 7518.0,1745.0 C 7508.0,1724.0 7511.0,1715.0 7542.0,1678.0 C 7561.0,1654.0 7582.0,1625.0 7589.0,1613.0 C 7595.0,1600.0 7608.0,1590.0 7617.0,1590.0 C 7630.0,1590.0 7630.0,1593.0 7620.0,1605.0 C 7593.0,1637.0 7630.0,1618.0 7674.0,1577.0 C 7728.0,1527.0 7739.0,1484.0 7692.0,1509.0 C 7597.0,1559.0 7405.0,1625.0 7374.0,1618.0 C 7361.0,1615.0 7370.0,1609.0 7400.0,1601.0 C 7425.0,1594.0 7452.0,1582.0 7460.0,1575.0 C 7468.0,1568.0 7501.0,1553.0 7532.0,1542.0 C 7627.0,1507.0 7699.0,1461.0 7726.0,1418.0 C 7740.0,1396.0 7764.0,1374.0 7781.0,1368.0 C 7802.0,1361.0 7810.0,1352.0 7810.0,1335.0 C 7810.0,1322.0 7816.0,1310.0 7823.0,1307.0 C 7831.0,1304.0 7836.0,1311.0 7835.0,1329.0 C 7835.0,1350.0 7840.0,1356.0 7864.0,1358.0 C 7910.0,1364.0 7939.0,1352.0 7955.0,1320.0 C 7973.0,1286.0 8045.0,1250.0 8096.0,1250.0 C 8121.0,1250.0 8141.0,1260.0 8170.0,1286.0 L 8210.0,1322.0 L 8210.0,1294.0 L 8210.0,1265.0 L 8236.0,1297.0 C 8265.0,1334.0 8289.0,1339.0 8313.0,1312.0 C 8335.0,1288.0 8334.0,1280.0 8311.0,1280.0 C 8300.0,1280.0 8279.0,1270.0 8264.0,1257.0 C 8242.0,1238.0 8238.0,1228.0 8244.0,1207.0 C 8248.0,1191.0 8258.0,1180.0 8268.0,1179.0 C 8278.0,1179.0 8274.0,1175.0 8258.0,1168.0 C 8235.0,1160.0 8230.0,1152.0 8230.0,1125.0 C 8230.0,1105.0 8224.0,1090.0 8215.0,1086.0 C 8185.0,1075.0 8201.0,1060.0 8243.0,1060.0 C 8272.0,1060.0 8281.0,1057.0 8271.0,1051.0 C 8259.0,1043.0 8258.0,1037.0 8268.0,1015.0 C 8280.0,989.0 8284.0,988.0 8335.0,992.0 C 8364.0,995.0 8396.0,1003.0 8405.0,1010.0 C 8414.0,1018.0 8450.0,1063.0 8486.0,1110.0 C 8534.0,1175.0 8563.0,1204.0 8601.0,1224.0 C 8648.0,1250.0 8657.0,1252.0 8728.0,1245.0 C 8775.0,1241.0 8826.0,1229.0 8859.0,1214.0 C 8925.0,1184.0 8985.0,1182.0 9000.0,1209.0 C 9017.0,1242.0 9011.0,1284.0 8983.0,1340.0 C 8960.0,1384.0 8949.0,1396.0 8921.0,1403.0 C 8903.0,1407.0 8877.0,1418.0 8864.0,1427.0 C 8847.0,1438.0 8797.0,1445.0 8702.0,1452.0 L 8565.0,1461.0 L 8525.0,1506.0 L 8485.0,1551.0 L 8461.0,1526.0 C 8434.0,1497.0 8439.0,1485.0 8486.0,1465.0 C 8513.0,1454.0 8520.0,1446.0 8520.0,1423.0 C 8520.0,1407.0 8515.0,1389.0 8510.0,1384.0 C 8502.0,1376.0 8503.0,1365.0 8511.0,1346.0 C 8525.0,1315.0 8529.0,1318.0 8461.0,1298.0 C 8414.0,1283.0 8404.0,1283.0 8380.0,1295.0 C 8340.0,1316.0 8318.0,1340.0 8324.0,1357.0 C 8327.0,1365.0 8319.0,1398.0 8305.0,1430.0 C 8291.0,1463.0 8280.0,1496.0 8280.0,1505.0 C 8280.0,1513.0 8274.0,1520.0 8266.0,1520.0 C 8242.0,1520.0 8231.0,1580.0 8249.0,1609.0 C 8255.0,1619.0 8262.0,1619.0 8277.0,1611.0 C 8303.0,1598.0 8330.0,1624.0 8330.0,1663.0 C 8330.0,1678.0 8335.0,1690.0 8340.0,1690.0 C 8346.0,1690.0 8350.0,1698.0 8350.0,1708.0 C 8350.0,1747.0 8263.0,1794.0 8235.0,1770.0 C 8213.0,1752.0 8100.0,1767.0 8093.0,1789.0 C 8089.0,1798.0 8081.0,1809.0 8073.0,1813.0 C 8056.0,1824.0 8057.0,1851.0 8076.0,1878.0 C 8088.0,1896.0 8101.0,1900.0 8140.0,1900.0 L 8190.0,1900.0 L 8174.0,1859.0 C 8153.0,1807.0 8164.0,1778.0 8199.0,1791.0 C 8221.0,1800.0 8222.0,1804.0 8215.0,1856.0 L 8208.0,1912.0 L 8285.0,1986.0 C 8327.0,2027.0 8369.0,2060.0 8378.0,2060.0 C 8387.0,2060.0 8414.0,2071.0 8437.0,2084.0 C 8476.0,2107.0 8487.0,2108.0 8570.0,2103.0 C 8646.0,2098.0 8660.0,2099.0 8660.0,2112.0 C 8660.0,2133.0 8692.0,2160.0 8717.0,2160.0 C 8728.0,2160.0 8745.0,2170.0 8756.0,2181.0 C 8766.0,2193.0 8785.0,2206.0 8798.0,2211.0 C 8828.0,2222.0 8842.0,2262.0 8829.0,2297.0 C 8824.0,2311.0 8822.0,2342.0 8825.0,2364.0 C 8833.0,2418.0 8821.0,2448.0 8755.0,2529.0 C 8698.0,2599.0 8661.0,2620.0 8592.0,2620.0 C 8575.0,2620.0 8559.0,2624.0 8556.0,2629.0 C 8553.0,2633.0 8530.0,2643.0 8506.0,2650.0 C 8481.0,2657.0 8443.0,2678.0 8421.0,2696.0 C 8387.0,2726.0 8381.0,2736.0 8378.0,2782.0 C 8372.0,2847.0 8415.0,2994.0 8459.0,3059.0 C 8486.0,3100.0 8602.0,3200.0 8622.0,3200.0 C 8627.0,3200.0 8651.0,3219.0 8675.0,3241.0 C 8718.0,3280.0 8723.0,3282.0 8770.0,3278.0 C 8798.0,3275.0 8828.0,3266.0 8838.0,3256.0 C 8848.0,3247.0 8868.0,3240.0 8883.0,3240.0 C 8907.0,3240.0 8909.0,3244.0 8908.0,3274.0 C 8906.0,3321.0 8933.0,3360.0 8967.0,3360.0 L 8994.0,3360.0 L 8966.0,3331.0 C 8947.0,3311.0 8938.0,3291.0 8938.0,3268.0 C 8938.0,3223.0 8964.0,3163.0 8987.0,3156.0 C 8997.0,3153.0 9010.0,3140.0 9015.0,3128.0 C 9030.0,3094.0 9097.0,3099.0 9126.0,3136.0 C 9138.0,3150.0 9165.0,3170.0 9187.0,3180.0 C 9221.0,3195.0 9228.0,3203.0 9233.0,3236.0 C 9244.0,3301.0 9241.0,3316.0 9210.0,3346.0 C 9188.0,3368.0 9180.0,3384.0 9180.0,3412.0 C 9180.0,3463.0 9138.0,3540.0 9118.0,3529.0 C 9081.0,3508.0 9055.0,3618.0 9080.0,3686.0 C 9094.0,3722.0 9095.0,3804.0 9081.0,3871.0 C 9076.0,3901.0 9066.0,3954.0 9059.0,3990.0 C 9053.0,4025.0 9029.0,4096.0 9005.0,4146.0 C 8964.0,4233.0 8962.0,4242.0 8967.0,4307.0 C 8975.0,4402.0 9014.0,4484.0 9073.0,4530.0 C 9119.0,4566.0 9130.0,4584.0 9130.0,4632.0 C 9130.0,4652.0 9115.0,4672.0 9066.0,4715.0 C 9000.0,4773.0 8953.0,4793.0 8787.0,4835.0 C 8749.0,4845.0 8706.0,4863.0 8691.0,4876.0 C 8675.0,4889.0 8651.0,4904.0 8636.0,4910.0 C 8592.0,4926.0 8501.0,4920.0 8425.0,4896.0" fill="pink"/>
	<path d="M 5417.0,4478.0 C 5380.0,4442.0 5379.0,4439.0 5382.0,4378.0 L 5385.0,4315.0 L 5420.0,4310.0 C 5439.0,4307.0 5470.0,4294.0 5488.0,4281.0 C 5525.0,4253.0 5528.0,4230.0 5505.0,4153.0 C 5493.0,4111.0 5484.0,4099.0 5455.0,4086.0 C 5389.0,4054.0 5374.0,3981.0 5408.0,3843.0 L 5425.0,3770.0 L 5478.0,3768.0 C 5506.0,3767.0 5537.0,3766.0 5547.0,3766.0 C 5572.0,3765.0 5605.0,3884.0 5590.0,3927.0 C 5581.0,3954.0 5582.0,3966.0 5601.0,4002.0 C 5613.0,4026.0 5636.0,4061.0 5651.0,4081.0 C 5689.0,4130.0 5689.0,4151.0 5651.0,4144.0 C 5616.0,4137.0 5565.0,4162.0 5557.0,4188.0 C 5551.0,4213.0 5559.0,4226.0 5588.0,4234.0 C 5621.0,4245.0 5615.0,4257.0 5563.0,4282.0 C 5504.0,4310.0 5474.0,4360.0 5463.0,4450.0 L 5454.0,4515.0 L 5417.0,4478.0" fill="pink"/>
	<path d="M 6380.0,4236.0 C 6380.0,4228.0 6398.0,4208.0 6419.0,4190.0 C 6441.0,4173.0 6462.0,4150.0 6465.0,4140.0 C 6469.0,4129.0 6477.0,4120.0 6483.0,4120.0 C 6490.0,4120.0 6522.0,4106.0 6554.0,4090.0 C 6586.0,4074.0 6617.0,4063.0 6622.0,4066.0 C 6636.0,4075.0 6631.0,4088.0 6610.0,4095.0 C 6598.0,4099.0 6568.0,4121.0 6542.0,4146.0 C 6516.0,4170.0 6481.0,4203.0 6463.0,4220.0 C 6429.0,4251.0 6380.0,4261.0 6380.0,4236.0" fill="pink"/>
	<path d="M 4989.0,3801.0 C 4970.0,3766.0 4962.0,3761.0 4927.0,3758.0 C 4888.0,3755.0 4857.0,3730.0 4873.0,3713.0 C 4878.0,3709.0 4901.0,3705.0 4925.0,3705.0 C 4949.0,3705.0 4972.0,3702.0 4976.0,3698.0 C 4995.0,3678.0 5017.0,3692.0 5028.0,3729.0 C 5043.0,3778.0 5043.0,3801.0 5026.0,3823.0 C 5013.0,3840.0 5010.0,3838.0 4989.0,3801.0" fill="pink"/>
	<path d="M 1767.0,2000.0 C 1740.0,1979.0 1730.0,1946.0 1725.0,1867.0 C 1724.0,1844.0 1719.0,1789.0 1715.0,1745.0 C 1708.0,1670.0 1709.0,1661.0 1734.0,1612.0 C 1749.0,1583.0 1767.0,1557.0 1776.0,1553.0 C 1795.0,1546.0 1850.0,1569.0 1850.0,1584.0 C 1850.0,1590.0 1859.0,1603.0 1870.0,1613.0 C 1891.0,1631.0 1897.0,1674.0 1880.0,1685.0 C 1874.0,1689.0 1873.0,1708.0 1876.0,1729.0 C 1880.0,1751.0 1877.0,1777.0 1870.0,1789.0 C 1861.0,1807.0 1861.0,1815.0 1873.0,1828.0 C 1898.0,1857.0 1931.0,1944.0 1926.0,1965.0 C 1922.0,1980.0 1905.0,1991.0 1865.0,2003.0 C 1796.0,2024.0 1798.0,2024.0 1767.0,2000.0" fill="pink"/>
	<path d="M 6089.0,1832.0 C 6074.0,1811.0 6057.0,1777.0 6051.0,1757.0 C 6044.0,1737.0 6034.0,1718.0 6029.0,1715.0 C 6024.0,1711.0 6020.0,1688.0 6020.0,1663.0 C 6020.0,1629.0 6009.0,1595.0 5977.0,1531.0 C 5953.0,1484.0 5928.0,1424.0 5921.0,1398.0 C 5911.0,1362.0 5899.0,1345.0 5869.0,1326.0 C 5848.0,1312.0 5826.0,1300.0 5821.0,1300.0 C 5813.0,1300.0 5785.0,1270.0 5730.0,1199.0 C 5699.0,1159.0 5660.0,1084.0 5660.0,1064.0 C 5660.0,1055.0 5671.0,1050.0 5690.0,1050.0 C 5710.0,1050.0 5723.0,1044.0 5727.0,1033.0 C 5731.0,1023.0 5738.0,1012.0 5744.0,1008.0 C 5758.0,999.0 5732.0,970.0 5709.0,970.0 C 5699.0,970.0 5688.0,975.0 5685.0,980.0 C 5671.0,1002.0 5652.0,988.0 5646.0,953.0 C 5642.0,932.0 5634.0,900.0 5628.0,881.0 C 5618.0,848.0 5617.0,848.0 5574.0,854.0 C 5548.0,857.0 5530.0,856.0 5530.0,850.0 C 5530.0,840.0 5537.0,833.0 5593.0,782.0 C 5635.0,745.0 5653.0,674.0 5644.0,580.0 L 5637.0,500.0 L 5677.0,500.0 C 5704.0,500.0 5723.0,506.0 5735.0,520.0 C 5755.0,543.0 5810.0,700.0 5810.0,737.0 C 5810.0,762.0 5844.0,850.0 5889.0,940.0 C 5907.0,976.0 5921.0,1025.0 5928.0,1080.0 C 5940.0,1176.0 5965.0,1242.0 6016.0,1313.0 C 6039.0,1345.0 6055.0,1381.0 6062.0,1419.0 C 6067.0,1450.0 6083.0,1509.0 6096.0,1550.0 C 6109.0,1591.0 6120.0,1639.0 6120.0,1657.0 C 6120.0,1674.0 6129.0,1710.0 6140.0,1736.0 C 6156.0,1773.0 6159.0,1792.0 6152.0,1824.0 C 6142.0,1877.0 6122.0,1879.0 6089.0,1832.0" fill="pink"/>
	<path d="M 7135.0,1320.0 C 7118.0,1301.0 7118.0,1299.0 7133.0,1287.0 C 7143.0,1281.0 7161.0,1257.0 7174.0,1235.0 L 7198.0,1195.0 L 7205.0,1223.0 C 7209.0,1238.0 7224.0,1260.0 7239.0,1271.0 L 7265.0,1292.0 L 7237.0,1316.0 C 7203.0,1345.0 7159.0,1347.0 7135.0,1320.0" fill="pink"/>
	<path d="M 4810.0,1261.0 C 4810.0,1247.0 4870.0,1160.0 4880.0,1160.0 C 4885.0,1160.0 4890.0,1152.0 4890.0,1142.0 C 4890.0,1112.0 4970.0,1010.0 5008.0,992.0 C 5031.0,981.0 5047.0,964.0 5054.0,943.0 C 5064.0,916.0 5196.0,781.0 5204.0,791.0 C 5205.0,793.0 5216.0,809.0 5228.0,826.0 C 5247.0,853.0 5257.0,858.0 5310.0,863.0 C 5382.0,871.0 5390.0,875.0 5390.0,901.0 C 5390.0,928.0 5297.0,1020.0 5269.0,1020.0 L 5247.0,1020.0 L 5270.0,995.0 C 5289.0,974.0 5291.0,970.0 5277.0,970.0 C 5268.0,970.0 5260.0,966.0 5260.0,960.0 C 5260.0,935.0 5230.0,953.0 5220.0,984.0 C 5214.0,1003.0 5203.0,1021.0 5195.0,1024.0 C 5187.0,1027.0 5180.0,1036.0 5180.0,1043.0 C 5180.0,1051.0 5171.0,1065.0 5161.0,1074.0 C 5142.0,1091.0 5142.0,1091.0 5147.0,1071.0 C 5150.0,1060.0 5150.0,1043.0 5146.0,1034.0 C 5141.0,1020.0 5137.0,1021.0 5111.0,1039.0 C 5095.0,1051.0 5075.0,1060.0 5067.0,1060.0 C 5058.0,1060.0 5049.0,1068.0 5046.0,1078.0 C 5043.0,1087.0 5022.0,1105.0 5000.0,1118.0 C 4975.0,1132.0 4960.0,1148.0 4960.0,1160.0 C 4960.0,1173.0 4953.0,1180.0 4941.0,1180.0 C 4922.0,1180.0 4860.0,1233.0 4860.0,1250.0 C 4860.0,1254.0 4849.0,1260.0 4835.0,1262.0 C 4821.0,1265.0 4810.0,1264.0 4810.0,1261.0" fill="pink"/>
	<path d="M 6964.0,1241.0 C 6960.0,1224.0 6954.0,1213.0 6950.0,1215.0 C 6945.0,1218.0 6927.0,1222.0 6910.0,1224.0 C 6881.0,1227.0 6879.0,1226.0 6885.0,1203.0 C 6890.0,1182.0 6946.0,1120.0 6960.0,1121.0 C 6963.0,1121.0 6974.0,1135.0 6985.0,1153.0 C 7001.0,1178.0 7013.0,1186.0 7043.0,1188.0 C 7071.0,1190.0 7080.0,1196.0 7080.0,1209.0 C 7080.0,1234.0 7044.0,1264.0 7025.0,1256.0 C 7016.0,1253.0 7000.0,1255.0 6989.0,1260.0 C 6972.0,1270.0 6969.0,1267.0 6964.0,1241.0" fill="pink"/>
	<path d="M 7568.0,1249.0 C 7558.0,1244.0 7550.0,1228.0 7550.0,1215.0 C 7550.0,1201.0 7544.0,1190.0 7537.0,1190.0 C 7529.0,1190.0 7515.0,1181.0 7506.0,1171.0 C 7489.0,1152.0 7489.0,1151.0 7527.0,1148.0 L 7565.0,1145.0 L 7565.0,1084.0 C 7565.0,1050.0 7571.0,1017.0 7577.0,1008.0 C 7594.0,988.0 7584.0,980.0 7543.0,980.0 C 7508.0,980.0 7451.0,1017.0 7404.0,1070.0 C 7387.0,1089.0 7379.0,1092.0 7370.0,1084.0 C 7362.0,1076.0 7361.0,1066.0 7368.0,1054.0 C 7373.0,1043.0 7380.0,1012.0 7384.0,984.0 C 7390.0,937.0 7389.0,933.0 7365.0,922.0 C 7350.0,915.0 7321.0,913.0 7295.0,917.0 C 7241.0,924.0 7229.0,907.0 7256.0,864.0 L 7274.0,837.0 L 7200.0,844.0 C 7159.0,848.0 7123.0,855.0 7120.0,859.0 C 7117.0,864.0 7105.0,871.0 7092.0,875.0 C 7074.0,880.0 7070.0,888.0 7072.0,908.0 C 7075.0,931.0 7071.0,935.0 7046.0,938.0 C 7030.0,940.0 7008.0,951.0 6996.0,962.0 C 6985.0,973.0 6961.0,988.0 6944.0,996.0 C 6905.0,1012.0 6889.0,1032.0 6881.0,1072.0 C 6876.0,1095.0 6864.0,1109.0 6835.0,1125.0 C 6813.0,1138.0 6785.0,1163.0 6772.0,1181.0 C 6744.0,1221.0 6723.0,1228.0 6609.0,1235.0 C 6532.0,1239.0 6520.0,1238.0 6496.0,1219.0 C 6482.0,1208.0 6470.0,1203.0 6470.0,1209.0 C 6470.0,1215.0 6463.0,1217.0 6455.0,1214.0 C 6447.0,1210.0 6440.0,1202.0 6440.0,1194.0 C 6440.0,1185.0 6428.0,1180.0 6406.0,1180.0 C 6380.0,1180.0 6361.0,1170.0 6321.0,1134.0 C 6273.0,1091.0 6270.0,1085.0 6270.0,1041.0 C 6270.0,991.0 6290.0,960.0 6322.0,960.0 C 6333.0,960.0 6336.0,954.0 6333.0,941.0 C 6330.0,927.0 6335.0,921.0 6355.0,916.0 C 6376.0,911.0 6380.0,905.0 6375.0,889.0 C 6366.0,863.0 6387.0,838.0 6411.0,845.0 C 6437.0,853.0 6436.0,828.0 6410.0,805.0 C 6393.0,790.0 6388.0,789.0 6374.0,801.0 C 6359.0,813.0 6358.0,812.0 6364.0,782.0 C 6371.0,752.0 6370.0,750.0 6346.0,750.0 C 6329.0,750.0 6320.0,756.0 6320.0,765.0 C 6320.0,782.0 6282.0,800.0 6248.0,800.0 C 6230.0,800.0 6229.0,798.0 6241.0,784.0 C 6252.0,770.0 6251.0,766.0 6235.0,754.0 C 6225.0,746.0 6211.0,740.0 6204.0,740.0 C 6190.0,740.0 6168.0,818.0 6181.0,826.0 C 6198.0,836.0 6190.0,860.0 6170.0,860.0 C 6136.0,860.0 6145.0,802.0 6192.0,710.0 C 6242.0,614.0 6265.0,598.0 6417.0,551.0 C 6473.0,534.0 6552.0,504.0 6592.0,485.0 C 6632.0,466.0 6672.0,450.0 6682.0,450.0 C 6692.0,450.0 6707.0,439.0 6716.0,424.0 C 6725.0,410.0 6745.0,393.0 6761.0,385.0 C 6776.0,377.0 6798.0,355.0 6810.0,336.0 C 6822.0,315.0 6855.0,287.0 6888.0,269.0 C 6919.0,251.0 6962.0,222.0 6983.0,203.0 C 7003.0,185.0 7024.0,170.0 7029.0,170.0 C 7033.0,170.0 7054.0,157.0 7075.0,140.0 C 7102.0,119.0 7123.0,110.0 7149.0,111.0 L 7185.0,111.0 L 7138.0,126.0 C 7065.0,148.0 7077.0,196.0 7165.0,235.0 C 7194.0,248.0 7220.0,262.0 7221.0,267.0 C 7223.0,271.0 7243.0,284.0 7265.0,295.0 C 7296.0,310.0 7317.0,314.0 7357.0,310.0 C 7386.0,307.0 7411.0,308.0 7413.0,313.0 C 7414.0,318.0 7442.0,316.0 7475.0,310.0 C 7508.0,303.0 7553.0,295.0 7575.0,291.0 C 7597.0,287.0 7625.0,277.0 7637.0,270.0 C 7656.0,258.0 7664.0,258.0 7695.0,273.0 C 7715.0,283.0 7730.0,296.0 7728.0,302.0 C 7725.0,309.0 7731.0,323.0 7741.0,333.0 C 7751.0,344.0 7756.0,358.0 7753.0,366.0 C 7750.0,374.0 7753.0,380.0 7759.0,380.0 C 7782.0,380.0 7769.0,410.0 7740.0,425.0 C 7701.0,445.0 7702.0,460.0 7748.0,497.0 L 7786.0,527.0 L 7818.0,501.0 L 7850.0,474.0 L 7820.0,432.0 C 7800.0,406.0 7787.0,374.0 7784.0,343.0 C 7778.0,300.0 7782.0,286.0 7824.0,208.0 C 7853.0,152.0 7870.0,108.0 7870.0,85.0 C 7870.0,53.0 7874.0,48.0 7919.0,25.0 C 7957.0,6.0 7969.0,4.0 7973.0,14.0 C 7976.0,21.0 7974.0,94.0 7968.0,176.0 C 7954.0,387.0 7957.0,401.0 8019.0,464.0 C 8055.0,500.0 8075.0,532.0 8085.0,564.0 C 8104.0,626.0 8160.0,701.0 8204.0,725.0 C 8228.0,738.0 8244.0,756.0 8251.0,778.0 C 8259.0,801.0 8271.0,815.0 8291.0,822.0 C 8332.0,836.0 8330.0,875.0 8285.0,924.0 C 8266.0,945.0 8248.0,969.0 8245.0,979.0 C 8236.0,1008.0 8185.0,1029.0 8109.0,1036.0 C 8013.0,1045.0 8003.0,1051.0 7995.0,1105.0 C 7987.0,1157.0 7975.0,1169.0 7926.0,1177.0 C 7895.0,1182.0 7890.0,1180.0 7890.0,1163.0 C 7890.0,1138.0 7868.0,1118.0 7848.0,1125.0 C 7840.0,1128.0 7828.0,1146.0 7821.0,1165.0 C 7810.0,1195.0 7751.0,1250.0 7729.0,1250.0 C 7725.0,1250.0 7712.0,1234.0 7700.0,1213.0 L 7679.0,1177.0 L 7637.0,1218.0 C 7590.0,1264.0 7592.0,1263.0 7568.0,1249.0" fill="pink"/>
	<path d="M 8090.0,1180.0 C 8082.0,1175.0 8063.0,1170.0 8048.0,1170.0 C 8027.0,1170.0 8020.0,1165.0 8020.0,1151.0 C 8020.0,1140.0 8026.0,1128.0 8033.0,1123.0 C 8049.0,1113.0 8153.0,1091.0 8162.0,1096.0 C 8176.0,1105.0 8182.0,1161.0 8170.0,1175.0 C 8156.0,1192.0 8112.0,1194.0 8090.0,1180.0" fill="pink"/>
</svg>
