<?xml version="1.0" ?>
<svg xmlns="http://www.w3.org/2000/svg" xmlns:ev="http://www.w3.org/2001/xml-events" xmlns:xlink="http://www.w3.org/1999/xlink" baseProfile="full" height="403px" version="1.1" viewBox="-1028.8683363689108 997.5091168842802 12295.232557005591 8241.432344589388" width="600px">
	<defs/>
	<path d="M 2580.0,8525.0 C 2554.0,8506.0 2533.0,8500.0 2495.0,8500.0 C 2440.0,8500.0 2422.0,8487.0 2371.0,8412.0 C 2345.0,8375.0 2284.0,8340.0 2226.0,8329.0 C 2193.0,8323.0 2181.0,8326.0 2156.0,8345.0 C 2092.0,8392.0 2014.0,8385.0 2008.0,8332.0 C 2006.0,8313.0 1994.0,8299.0 1969.0,8286.0 L 1934.0,8267.0 L 1804.0,8300.0 C 1733.0,8318.0 1650.0,8335.0 1620.0,8339.0 C 1590.0,8343.0 1543.0,8358.0 1515.0,8372.0 C 1488.0,8386.0 1418.0,8417.0 1361.0,8440.0 C 1247.0,8487.0 1236.0,8488.0 1000.0,8472.0 C 916.0,8466.0 905.0,8463.0 901.0,8445.0 C 894.0,8408.0 840.0,8394.0 840.0,8429.0 C 840.0,8457.0 827.0,8462.0 802.0,8444.0 C 788.0,8434.0 780.0,8418.0 780.0,8399.0 C 780.0,8358.0 768.0,8338.0 699.0,8268.0 C 646.0,8214.0 636.0,8208.0 610.0,8214.0 C 586.0,8218.0 577.0,8215.0 565.0,8197.0 C 557.0,8185.0 528.0,8157.0 500.0,8136.0 C 461.0,8106.0 450.0,8092.0 450.0,8069.0 C 450.0,8043.0 452.0,8041.0 476.0,8050.0 C 519.0,8067.0 546.0,8053.0 564.0,8005.0 C 579.0,7967.0 579.0,7958.0 567.0,7927.0 C 559.0,7908.0 542.0,7886.0 530.0,7877.0 C 511.0,7864.0 509.0,7856.0 515.0,7823.0 C 518.0,7802.0 533.0,7773.0 547.0,7758.0 C 573.0,7731.0 573.0,7730.0 557.0,7690.0 C 546.0,7660.0 544.0,7641.0 551.0,7617.0 C 556.0,7600.0 560.0,7565.0 560.0,7541.0 C 560.0,7508.0 566.0,7492.0 586.0,7471.0 C 600.0,7457.0 628.0,7423.0 647.0,7396.0 C 680.0,7351.0 683.0,7340.0 687.0,7261.0 C 689.0,7211.0 698.0,7162.0 707.0,7143.0 C 720.0,7116.0 721.0,7102.0 711.0,7054.0 C 705.0,7022.0 700.0,6966.0 700.0,6928.0 C 700.0,6860.0 700.0,6860.0 675.0,6866.0 C 656.0,6871.0 637.0,6862.0 588.0,6826.0 C 554.0,6801.0 516.0,6780.0 503.0,6780.0 C 475.0,6780.0 475.0,6785.0 502.0,6694.0 C 520.0,6630.0 527.0,6619.0 549.0,6613.0 C 563.0,6610.0 602.0,6584.0 635.0,6555.0 C 731.0,6472.0 769.0,6450.0 817.0,6450.0 L 860.0,6450.0 L 860.0,6410.0 C 860.0,6384.0 854.0,6368.0 843.0,6362.0 C 831.0,6355.0 828.0,6344.0 833.0,6315.0 C 837.0,6290.0 834.0,6267.0 823.0,6246.0 C 814.0,6229.0 804.0,6202.0 800.0,6185.0 C 795.0,6161.0 787.0,6153.0 753.0,6144.0 C 691.0,6126.0 660.0,6102.0 660.0,6071.0 C 660.0,6005.0 519.0,5845.0 413.0,5792.0 C 390.0,5780.0 369.0,5766.0 365.0,5760.0 C 362.0,5755.0 362.0,5728.0 366.0,5701.0 L 372.0,5652.0 L 419.0,5643.0 C 464.0,5635.0 465.0,5634.0 480.0,5583.0 C 492.0,5539.0 499.0,5530.0 523.0,5524.0 C 547.0,5519.0 559.0,5503.0 598.0,5424.0 L 645.0,5330.0 L 623.0,5199.0 C 610.0,5128.0 593.0,5052.0 583.0,5032.0 C 573.0,5012.0 526.0,4956.0 478.0,4909.0 C 430.0,4861.0 390.0,4819.0 390.0,4816.0 C 390.0,4812.0 397.0,4793.0 405.0,4773.0 C 420.0,4739.0 419.0,4735.0 402.0,4717.0 C 377.0,4693.0 276.0,4687.0 242.0,4708.0 C 221.0,4722.0 218.0,4721.0 204.0,4702.0 C 192.0,4685.0 183.0,4682.0 152.0,4687.0 C 132.0,4690.0 107.0,4699.0 96.0,4706.0 C 80.0,4717.0 72.0,4715.0 39.0,4688.0 C 4.0,4660.0 0.0,4652.0 0.0,4610.0 C 0.0,4568.0 8.0,4550.0 65.0,4464.0 C 101.0,4409.0 130.0,4355.0 130.0,4344.0 C 130.0,4332.0 123.0,4299.0 114.0,4271.0 C 97.0,4221.0 97.0,4220.0 123.0,4187.0 C 140.0,4165.0 165.0,4148.0 202.0,4135.0 C 247.0,4120.0 262.0,4109.0 285.0,4072.0 C 305.0,4040.0 326.0,4023.0 359.0,4009.0 C 384.0,3998.0 414.0,3979.0 425.0,3965.0 C 436.0,3952.0 505.0,3912.0 578.0,3876.0 C 650.0,3840.0 710.0,3809.0 710.0,3806.0 C 710.0,3784.0 641.0,3654.0 582.0,3568.0 C 543.0,3509.0 510.0,3450.0 510.0,3438.0 C 510.0,3425.0 501.0,3409.0 490.0,3402.0 C 475.0,3393.0 470.0,3379.0 470.0,3350.0 C 470.0,3310.0 470.0,3310.0 508.0,3310.0 C 541.0,3310.0 548.0,3306.0 562.0,3277.0 C 571.0,3259.0 583.0,3217.0 590.0,3185.0 C 597.0,3152.0 608.0,3113.0 616.0,3098.0 C 631.0,3070.0 627.0,3050.0 600.0,3010.0 C 590.0,2996.0 579.0,2971.0 576.0,2954.0 C 569.0,2924.0 573.0,2919.0 637.0,2865.0 C 674.0,2833.0 734.0,2781.0 769.0,2749.0 L 832.0,2691.0 L 826.0,2643.0 C 822.0,2617.0 817.0,2570.0 814.0,2539.0 L 808.0,2482.0 L 849.0,2454.0 C 900.0,2417.0 930.0,2364.0 930.0,2311.0 C 930.0,2273.0 927.0,2268.0 896.0,2255.0 C 874.0,2245.0 859.0,2230.0 852.0,2210.0 C 846.0,2193.0 834.0,2177.0 825.0,2174.0 C 817.0,2171.0 810.0,2157.0 810.0,2144.0 C 810.0,2112.0 843.0,2105.0 923.0,2118.0 C 1078.0,2145.0 1094.0,2144.0 1152.0,2107.0 C 1181.0,2088.0 1232.0,2057.0 1265.0,2039.0 L 1325.0,2004.0 L 1328.0,1940.0 L 1331.0,1875.0 L 1399.0,1805.0 C 1437.0,1767.0 1473.0,1725.0 1479.0,1713.0 C 1506.0,1661.0 1583.0,1696.0 1625.0,1780.0 C 1638.0,1806.0 1661.0,1841.0 1675.0,1858.0 C 1693.0,1879.0 1705.0,1911.0 1714.0,1962.0 C 1726.0,2027.0 1757.0,2110.0 1822.0,2248.0 C 1833.0,2272.0 1854.0,2297.0 1871.0,2305.0 C 1887.0,2314.0 1908.0,2335.0 1917.0,2354.0 C 1927.0,2372.0 1964.0,2411.0 2000.0,2441.0 C 2074.0,2504.0 2188.0,2648.0 2251.0,2759.0 C 2307.0,2857.0 2384.0,2964.0 2412.0,2983.0 C 2425.0,2991.0 2458.0,3030.0 2485.0,3071.0 L 2535.0,3144.0 L 2534.0,3250.0 C 2533.0,3340.0 2529.0,3364.0 2506.0,3420.0 C 2492.0,3455.0 2464.0,3500.0 2445.0,3520.0 C 2397.0,3569.0 2392.0,3600.0 2423.0,3652.0 C 2437.0,3676.0 2462.0,3708.0 2479.0,3724.0 C 2508.0,3752.0 2512.0,3752.0 2587.0,3748.0 C 2659.0,3744.0 2670.0,3740.0 2718.0,3705.0 C 2746.0,3684.0 2774.0,3654.0 2779.0,3638.0 C 2796.0,3591.0 2826.0,3593.0 2939.0,3647.0 L 3040.0,3695.0 L 3061.0,3750.0 C 3072.0,3780.0 3095.0,3821.0 3112.0,3839.0 L 3143.0,3874.0 L 3158.0,3852.0 L 3173.0,3829.0 L 3205.0,3860.0 C 3237.0,3891.0 3238.0,3892.0 3264.0,3874.0 C 3287.0,3860.0 3297.0,3859.0 3329.0,3869.0 C 3350.0,3875.0 3385.0,3880.0 3407.0,3880.0 C 3437.0,3880.0 3452.0,3886.0 3472.0,3908.0 C 3522.0,3962.0 3533.0,3987.0 3526.0,4034.0 C 3519.0,4077.0 3520.0,4080.0 3551.0,4096.0 C 3578.0,4109.0 3602.0,4111.0 3679.0,4107.0 C 3811.0,4100.0 3831.0,4091.0 3880.0,4017.0 C 3916.0,3962.0 3920.0,3950.0 3914.0,3914.0 C 3911.0,3891.0 3913.0,3863.0 3919.0,3852.0 C 3927.0,3837.0 3926.0,3829.0 3916.0,3821.0 C 3899.0,3807.0 3867.0,3700.0 3872.0,3670.0 C 3874.0,3653.0 3886.0,3643.0 3915.0,3633.0 C 3937.0,3626.0 3968.0,3606.0 3985.0,3590.0 C 4002.0,3573.0 4026.0,3560.0 4038.0,3560.0 C 4053.0,3560.0 4060.0,3554.0 4060.0,3540.0 C 4060.0,3514.0 4025.0,3506.0 3949.0,3514.0 C 3891.0,3521.0 3890.0,3521.0 3890.0,3495.0 C 3890.0,3457.0 3925.0,3448.0 4044.0,3456.0 C 4157.0,3463.0 4231.0,3480.0 4305.0,3518.0 C 4350.0,3541.0 4371.0,3544.0 4525.0,3550.0 C 4654.0,3556.0 4711.0,3554.0 4762.0,3544.0 C 4821.0,3532.0 4841.0,3532.0 4953.0,3549.0 C 5022.0,3560.0 5087.0,3574.0 5099.0,3582.0 C 5111.0,3589.0 5125.0,3609.0 5131.0,3627.0 C 5137.0,3645.0 5150.0,3666.0 5160.0,3673.0 C 5170.0,3680.0 5195.0,3710.0 5215.0,3740.0 C 5235.0,3770.0 5267.0,3809.0 5286.0,3827.0 C 5313.0,3853.0 5320.0,3867.0 5320.0,3897.0 C 5320.0,3940.0 5328.0,3953.0 5411.0,4056.0 C 5466.0,4124.0 5472.0,4128.0 5517.0,4132.0 C 5577.0,4138.0 5669.0,4175.0 5761.0,4231.0 C 5856.0,4288.0 5904.0,4295.0 5987.0,4264.0 C 6025.0,4249.0 6072.0,4240.0 6105.0,4240.0 C 6202.0,4240.0 6364.0,4219.0 6381.0,4204.0 C 6390.0,4196.0 6400.0,4171.0 6404.0,4150.0 C 6409.0,4115.0 6414.0,4110.0 6436.0,4110.0 C 6450.0,4110.0 6470.0,4105.0 6482.0,4099.0 C 6493.0,4093.0 6517.0,4091.0 6535.0,4094.0 C 6566.0,4100.0 6568.0,4103.0 6575.0,4155.0 C 6581.0,4204.0 6584.0,4209.0 6610.0,4215.0 C 6660.0,4226.0 6709.0,4211.0 6725.0,4179.0 C 6733.0,4164.0 6740.0,4144.0 6740.0,4136.0 C 6740.0,4127.0 6759.0,4111.0 6781.0,4099.0 L 6823.0,4078.0 L 6929.0,4108.0 C 7022.0,4135.0 7056.0,4139.0 7209.0,4144.0 L 7382.0,4150.0 L 7416.0,4179.0 C 7456.0,4214.0 7491.0,4222.0 7695.0,4236.0 L 7785.0,4242.0 L 7803.0,4212.0 C 7823.0,4177.0 7860.0,4163.0 8012.0,4131.0 C 8140.0,4104.0 8381.0,4101.0 8434.0,4126.0 C 8467.0,4142.0 8472.0,4142.0 8553.0,4116.0 C 8600.0,4102.0 8652.0,4090.0 8669.0,4090.0 C 8686.0,4090.0 8717.0,4079.0 8738.0,4066.0 C 8758.0,4052.0 8793.0,4034.0 8815.0,4025.0 C 8868.0,4003.0 8989.0,3851.0 9009.0,3782.0 C 9016.0,3756.0 9032.0,3724.0 9045.0,3710.0 C 9058.0,3696.0 9073.0,3666.0 9079.0,3643.0 C 9100.0,3565.0 9108.0,3562.0 9245.0,3569.0 C 9312.0,3573.0 9371.0,3580.0 9378.0,3584.0 C 9385.0,3588.0 9390.0,3616.0 9390.0,3656.0 C 9390.0,3713.0 9395.0,3731.0 9440.0,3821.0 L 9491.0,3921.0 L 9484.0,4010.0 L 9477.0,4099.0 L 9514.0,4105.0 C 9540.0,4110.0 9557.0,4108.0 9575.0,4096.0 C 9608.0,4074.0 9753.0,4040.0 9812.0,4040.0 C 9848.0,4040.0 9866.0,4046.0 9890.0,4066.0 C 9939.0,4108.0 9953.0,4143.0 9945.0,4211.0 C 9937.0,4276.0 9944.0,4290.0 10031.0,4385.0 C 10055.0,4412.0 10070.0,4439.0 10075.0,4467.0 C 10078.0,4490.0 10088.0,4514.0 10096.0,4521.0 C 10104.0,4527.0 10110.0,4543.0 10110.0,4555.0 C 10110.0,4567.0 10119.0,4588.0 10129.0,4602.0 C 10140.0,4615.0 10151.0,4642.0 10155.0,4662.0 C 10161.0,4691.0 10167.0,4699.0 10189.0,4703.0 C 10224.0,4710.0 10245.0,4755.0 10235.0,4802.0 C 10214.0,4905.0 10213.0,4907.0 10148.0,4939.0 C 10114.0,4956.0 10080.0,4970.0 10072.0,4970.0 C 10064.0,4970.0 10010.0,5016.0 9951.0,5073.0 C 9874.0,5148.0 9825.0,5186.0 9771.0,5214.0 C 9731.0,5235.0 9673.0,5270.0 9643.0,5291.0 C 9613.0,5312.0 9572.0,5334.0 9551.0,5341.0 C 9501.0,5357.0 9490.0,5368.0 9490.0,5400.0 C 9490.0,5421.0 9483.0,5430.0 9460.0,5440.0 C 9443.0,5447.0 9427.0,5462.0 9424.0,5475.0 C 9421.0,5488.0 9390.0,5520.0 9357.0,5546.0 C 9323.0,5573.0 9259.0,5626.0 9215.0,5665.0 C 9171.0,5704.0 9122.0,5746.0 9105.0,5757.0 C 9074.0,5778.0 8972.0,5814.0 8910.0,5825.0 C 8849.0,5836.0 8842.0,5840.0 8830.0,5869.0 C 8821.0,5892.0 8810.0,5899.0 8779.0,5904.0 C 8757.0,5908.0 8697.0,5924.0 8645.0,5940.0 C 8594.0,5957.0 8539.0,5969.0 8523.0,5968.0 C 8508.0,5967.0 8483.0,5974.0 8468.0,5984.0 C 8442.0,6001.0 8441.0,6001.0 8419.0,5971.0 C 8401.0,5946.0 8389.0,5940.0 8358.0,5940.0 C 8322.0,5940.0 8321.0,5939.0 8326.0,5910.0 L 8332.0,5880.0 L 8281.0,5880.0 C 8252.0,5880.0 8207.0,5873.0 8179.0,5864.0 C 8152.0,5855.0 8119.0,5851.0 8105.0,5854.0 C 8081.0,5860.0 8037.0,5900.0 7972.0,5975.0 C 7936.0,6018.0 7921.0,6016.0 7940.0,5970.0 C 7957.0,5929.0 7946.0,5919.0 7872.0,5903.0 C 7788.0,5886.0 7772.0,5887.0 7734.0,5917.0 C 7708.0,5936.0 7683.0,5945.0 7642.0,5948.0 C 7601.0,5951.0 7578.0,5959.0 7560.0,5975.0 C 7521.0,6010.0 7446.0,6032.0 7403.0,6021.0 C 7377.0,6014.0 7362.0,6014.0 7346.0,6024.0 C 7335.0,6032.0 7313.0,6040.0 7298.0,6044.0 C 7273.0,6050.0 7271.0,6053.0 7281.0,6077.0 C 7290.0,6102.0 7287.0,6107.0 7253.0,6137.0 C 7180.0,6201.0 7175.0,6203.0 7133.0,6189.0 C 7112.0,6182.0 7073.0,6176.0 7046.0,6175.0 C 6989.0,6175.0 6966.0,6150.0 7022.0,6149.0 C 7040.0,6149.0 7063.0,6145.0 7072.0,6142.0 C 7089.0,6135.0 7088.0,6133.0 7070.0,6102.0 L 7049.0,6069.0 L 7019.0,6094.0 C 6996.0,6114.0 6977.0,6120.0 6942.0,6120.0 C 6916.0,6120.0 6877.0,6125.0 6855.0,6131.0 C 6823.0,6140.0 6800.0,6139.0 6739.0,6125.0 C 6667.0,6108.0 6659.0,6108.0 6621.0,6124.0 C 6598.0,6133.0 6564.0,6140.0 6545.0,6140.0 C 6511.0,6140.0 6510.0,6141.0 6510.0,6178.0 C 6510.0,6198.0 6519.0,6229.0 6530.0,6245.0 C 6547.0,6270.0 6550.0,6292.0 6550.0,6378.0 L 6550.0,6480.0 L 6718.0,6480.0 C 6863.0,6480.0 6897.0,6476.0 6979.0,6455.0 C 7086.0,6427.0 7193.0,6423.0 7328.0,6442.0 C 7406.0,6452.0 7416.0,6452.0 7476.0,6430.0 C 7532.0,6411.0 7551.0,6409.0 7625.0,6415.0 C 7704.0,6421.0 7710.0,6423.0 7710.0,6444.0 C 7710.0,6473.0 7758.0,6548.0 7812.0,6602.0 C 7849.0,6639.0 7907.0,6747.0 7896.0,6758.0 C 7894.0,6760.0 7858.0,6764.0 7816.0,6767.0 C 7746.0,6772.0 7737.0,6771.0 7715.0,6750.0 C 7694.0,6730.0 7687.0,6728.0 7665.0,6738.0 C 7624.0,6757.0 7623.0,6794.0 7662.0,6843.0 C 7717.0,6909.0 7723.0,6925.0 7701.0,6944.0 C 7692.0,6953.0 7680.0,6960.0 7676.0,6960.0 C 7672.0,6960.0 7645.0,6938.0 7617.0,6911.0 C 7585.0,6881.0 7543.0,6853.0 7510.0,6840.0 C 7437.0,6813.0 7412.0,6790.0 7408.0,6749.0 C 7405.0,6711.0 7375.0,6697.0 7355.0,6723.0 C 7330.0,6758.0 7169.0,6810.0 7026.0,6831.0 C 6849.0,6857.0 6786.0,6849.0 6729.0,6794.0 C 6693.0,6759.0 6691.0,6758.0 6594.0,6753.0 C 6517.0,6749.0 6486.0,6743.0 6455.0,6725.0 C 6381.0,6684.0 6327.0,6677.0 6242.0,6697.0 C 6176.0,6712.0 6165.0,6718.0 6145.0,6750.0 C 6132.0,6769.0 6101.0,6804.0 6076.0,6827.0 C 6019.0,6881.0 5969.0,6966.0 5977.0,6997.0 C 5981.0,7016.0 5973.0,7029.0 5936.0,7063.0 C 5900.0,7097.0 5890.0,7113.0 5890.0,7138.0 C 5890.0,7155.0 5876.0,7197.0 5858.0,7230.0 C 5829.0,7286.0 5828.0,7291.0 5843.0,7308.0 C 5871.0,7338.0 5863.0,7365.0 5820.0,7395.0 C 5785.0,7419.0 5780.0,7428.0 5780.0,7462.0 C 5780.0,7483.0 5788.0,7517.0 5799.0,7538.0 C 5811.0,7562.0 5819.0,7605.0 5822.0,7658.0 L 5827.0,7741.0 L 5769.0,7794.0 C 5701.0,7857.0 5634.0,7892.0 5582.0,7892.0 C 5562.0,7891.0 5499.0,7887.0 5442.0,7881.0 C 5319.0,7869.0 5286.0,7852.0 5267.0,7795.0 C 5254.0,7757.0 5250.0,7754.0 5194.0,7741.0 C 5098.0,7718.0 4959.0,7722.0 4869.0,7752.0 C 4817.0,7769.0 4787.0,7774.0 4771.0,7768.0 C 4743.0,7758.0 4668.0,7778.0 4548.0,7827.0 L 4460.0,7863.0 L 4409.0,7965.0 C 4352.0,8080.0 4338.0,8096.0 4260.0,8135.0 C 4208.0,8161.0 4201.0,8162.0 4108.0,8156.0 C 4018.0,8150.0 4006.0,8147.0 3954.0,8114.0 C 3898.0,8078.0 3895.0,8078.0 3826.0,8084.0 C 3787.0,8088.0 3751.0,8095.0 3746.0,8100.0 C 3740.0,8106.0 3721.0,8110.0 3703.0,8110.0 C 3659.0,8110.0 3617.0,8132.0 3551.0,8191.0 C 3471.0,8262.0 3394.0,8300.0 3328.0,8300.0 L 3275.0,8300.0 L 3193.0,8383.0 C 3149.0,8428.0 3109.0,8476.0 3105.0,8490.0 C 3095.0,8523.0 3083.0,8530.0 3033.0,8530.0 C 2996.0,8530.0 2989.0,8526.0 2975.0,8500.0 L 2959.0,8470.0 L 2920.0,8490.0 C 2868.0,8516.0 2823.0,8516.0 2815.0,8490.0 C 2807.0,8465.0 2780.0,8464.0 2773.0,8488.0 C 2770.0,8500.0 2746.0,8514.0 2701.0,8528.0 C 2619.0,8555.0 2623.0,8555.0 2580.0,8525.0" fill="pink"/>
	<path d="M 9030.0,3520.0 C 8978.0,3508.0 8982.0,3417.0 9035.0,3404.0 C 9048.0,3401.0 9061.0,3385.0 9069.0,3365.0 C 9079.0,3337.0 9089.0,3328.0 9123.0,3319.0 C 9146.0,3313.0 9189.0,3299.0 9217.0,3288.0 L 9270.0,3268.0 L 9296.0,3299.0 L 9322.0,3330.0 L 9449.0,3330.0 C 9572.0,3330.0 9577.0,3329.0 9600.0,3305.0 C 9612.0,3292.0 9627.0,3283.0 9631.0,3286.0 C 9636.0,3289.0 9640.0,3316.0 9640.0,3346.0 C 9640.0,3396.0 9638.0,3402.0 9609.0,3419.0 C 9563.0,3447.0 9519.0,3452.0 9470.0,3435.0 C 9404.0,3412.0 9355.0,3415.0 9333.0,3445.0 C 9317.0,3468.0 9312.0,3469.0 9278.0,3460.0 C 9244.0,3450.0 9231.0,3453.0 9148.0,3488.0 C 9085.0,3514.0 9047.0,3524.0 9030.0,3520.0" fill="pink"/>
</svg>
