<?xml version="1.0" ?>
<svg xmlns="http://www.w3.org/2000/svg" xmlns:ev="http://www.w3.org/2001/xml-events" xmlns:xlink="http://www.w3.org/1999/xlink" baseProfile="full" height="600px" version="1.1" viewBox="-511.99258507015486 -1028.937664840104 11264.085748885911 12296.061049482236" width="550px">
	<defs/>
	<path d="M 4043.0,10233.0 C 4033.0,10230.0 4034.0,10221.0 4045.0,10194.0 C 4059.0,10159.0 4059.0,10159.0 4020.0,10123.0 C 3968.0,10077.0 3966.0,10045.0 4014.0,10025.0 C 4063.0,10004.0 4067.0,9991.0 4022.0,9997.0 C 3993.0,10001.0 3982.0,9998.0 3977.0,9987.0 C 3974.0,9978.0 3960.0,9953.0 3946.0,9931.0 C 3923.0,9895.0 3918.0,9891.0 3895.0,9900.0 C 3864.0,9912.0 3855.0,9897.0 3846.0,9820.0 C 3842.0,9784.0 3831.0,9754.0 3816.0,9735.0 L 3793.0,9706.0 L 3781.0,9758.0 C 3775.0,9787.0 3764.0,9823.0 3756.0,9838.0 C 3741.0,9866.0 3692.0,9917.0 3687.0,9909.0 C 3685.0,9907.0 3666.0,9880.0 3645.0,9850.0 C 3624.0,9820.0 3585.0,9770.0 3558.0,9739.0 L 3509.0,9682.0 L 3387.0,9676.0 C 3165.0,9664.0 3095.0,9660.0 3072.0,9654.0 C 3059.0,9652.0 3030.0,9632.0 3007.0,9611.0 C 2923.0,9535.0 2900.0,9527.0 2795.0,9532.0 C 2729.0,9536.0 2696.0,9533.0 2679.0,9524.0 C 2666.0,9517.0 2638.0,9511.0 2618.0,9510.0 C 2587.0,9510.0 2578.0,9505.0 2560.0,9475.0 C 2529.0,9425.0 2399.0,9340.0 2352.0,9340.0 C 2342.0,9340.0 2303.0,9324.0 2264.0,9305.0 C 2188.0,9266.0 2165.0,9263.0 2133.0,9285.0 C 2113.0,9299.0 2109.0,9297.0 2067.0,9244.0 C 2026.0,9192.0 2022.0,9182.0 2016.0,9114.0 C 2012.0,9073.0 2012.0,9025.0 2015.0,9006.0 C 2022.0,8974.0 2023.0,8973.0 2056.0,8980.0 C 2088.0,8987.0 2092.0,8986.0 2101.0,8963.0 C 2106.0,8950.0 2110.0,8936.0 2110.0,8932.0 C 2110.0,8929.0 2119.0,8917.0 2129.0,8906.0 C 2149.0,8884.0 2148.0,8859.0 2119.0,8748.0 C 2103.0,8686.0 2121.0,8627.0 2162.0,8602.0 C 2199.0,8580.0 2206.0,8551.0 2184.0,8509.0 C 2168.0,8477.0 2167.0,8476.0 2159.0,8498.0 C 2154.0,8510.0 2144.0,8520.0 2136.0,8520.0 C 2115.0,8520.0 2107.0,8445.0 2115.0,8311.0 C 2121.0,8209.0 2119.0,8188.0 2101.0,8136.0 C 2089.0,8103.0 2080.0,8069.0 2080.0,8060.0 C 2080.0,8050.0 2067.0,8037.0 2051.0,8030.0 C 2033.0,8023.0 2016.0,8004.0 2005.0,7979.0 C 1986.0,7937.0 1919.0,7870.0 1897.0,7870.0 C 1889.0,7870.0 1873.0,7847.0 1859.0,7818.0 C 1834.0,7763.0 1786.0,7711.0 1760.0,7710.0 C 1751.0,7710.0 1734.0,7703.0 1721.0,7694.0 C 1703.0,7681.0 1693.0,7680.0 1674.0,7689.0 C 1641.0,7704.0 1640.0,7703.0 1640.0,7680.0 C 1640.0,7670.0 1627.0,7646.0 1611.0,7628.0 C 1574.0,7584.0 1560.0,7557.0 1560.0,7525.0 C 1560.0,7491.0 1468.0,7403.0 1422.0,7394.0 C 1380.0,7386.0 1378.0,7381.0 1386.0,7320.0 C 1392.0,7274.0 1395.0,7270.0 1420.0,7270.0 C 1445.0,7270.0 1451.0,7262.0 1485.0,7183.0 C 1505.0,7134.0 1538.0,7069.0 1557.0,7038.0 L 1591.0,6980.0 L 1671.0,6980.0 C 1735.0,6980.0 1750.0,6977.0 1750.0,6965.0 C 1750.0,6953.0 1733.0,6950.0 1656.0,6950.0 C 1569.0,6950.0 1560.0,6952.0 1546.0,6972.0 C 1537.0,6984.0 1530.0,7004.0 1530.0,7017.0 C 1530.0,7129.0 1378.0,6896.0 1341.0,6727.0 C 1326.0,6659.0 1274.0,6538.0 1243.0,6500.0 C 1238.0,6495.0 1096.0,6488.0 1030.0,6489.0 C 1005.0,6490.0 975.0,6485.0 963.0,6479.0 C 946.0,6470.0 928.0,6469.0 895.0,6477.0 C 849.0,6487.0 849.0,6487.0 824.0,6451.0 C 811.0,6431.0 797.0,6399.0 794.0,6379.0 C 789.0,6352.0 780.0,6339.0 754.0,6325.0 C 735.0,6315.0 720.0,6303.0 720.0,6299.0 C 720.0,6294.0 730.0,6255.0 741.0,6213.0 C 760.0,6144.0 771.0,6124.0 840.0,6040.0 C 882.0,5988.0 932.0,5921.0 950.0,5891.0 L 983.0,5838.0 L 966.0,5786.0 C 957.0,5757.0 950.0,5719.0 950.0,5703.0 C 950.0,5682.0 938.0,5658.0 914.0,5629.0 C 883.0,5592.0 879.0,5580.0 882.0,5543.0 C 884.0,5508.0 882.0,5500.0 869.0,5500.0 C 858.0,5500.0 846.0,5484.0 836.0,5453.0 C 815.0,5391.0 816.0,5383.0 846.0,5343.0 C 860.0,5324.0 878.0,5286.0 885.0,5259.0 C 893.0,5231.0 910.0,5194.0 924.0,5176.0 C 938.0,5157.0 954.0,5121.0 961.0,5094.0 C 968.0,5067.0 976.0,5040.0 981.0,5035.0 C 985.0,5029.0 996.0,4991.0 1006.0,4950.0 C 1022.0,4876.0 1022.0,4876.0 1000.0,4858.0 C 980.0,4842.0 979.0,4837.0 990.0,4784.0 C 1002.0,4728.0 1002.0,4727.0 958.0,4641.0 C 924.0,4573.0 911.0,4556.0 896.0,4558.0 C 884.0,4560.0 865.0,4549.0 846.0,4528.0 C 828.0,4508.0 790.0,4484.0 757.0,4471.0 C 704.0,4449.0 698.0,4449.0 681.0,4464.0 C 671.0,4473.0 656.0,4480.0 646.0,4480.0 C 637.0,4480.0 620.0,4485.0 608.0,4491.0 C 552.0,4521.0 585.0,4446.0 651.0,4394.0 C 688.0,4365.0 703.0,4345.0 711.0,4315.0 C 728.0,4249.0 729.0,4247.0 754.0,4254.0 C 771.0,4258.0 783.0,4253.0 801.0,4233.0 C 839.0,4192.0 921.0,4160.0 991.0,4160.0 C 1024.0,4160.0 1061.0,4155.0 1073.0,4149.0 C 1112.0,4128.0 1310.0,3939.0 1388.0,3848.0 C 1451.0,3773.0 1468.0,3759.0 1500.0,3754.0 C 1545.0,3747.0 1548.0,3745.0 1583.0,3698.0 C 1598.0,3677.0 1617.0,3660.0 1624.0,3660.0 C 1630.0,3660.0 1657.0,3647.0 1683.0,3630.0 C 1773.0,3573.0 1829.0,3602.0 1788.0,3682.0 C 1777.0,3703.0 1762.0,3720.0 1754.0,3720.0 C 1735.0,3720.0 1736.0,3764.0 1756.0,3781.0 C 1768.0,3791.0 1775.0,3791.0 1788.0,3782.0 C 1798.0,3775.0 1811.0,3767.0 1817.0,3764.0 C 1830.0,3758.0 1877.0,3792.0 1933.0,3847.0 C 1974.0,3887.0 2060.0,4010.0 2060.0,4029.0 C 2060.0,4038.0 2073.0,4070.0 2089.0,4100.0 C 2105.0,4130.0 2121.0,4169.0 2124.0,4187.0 C 2133.0,4224.0 2140.0,4231.0 2200.0,4253.0 C 2255.0,4273.0 2270.0,4274.0 2270.0,4257.0 C 2270.0,4235.0 2225.0,4200.0 2197.0,4200.0 C 2174.0,4200.0 2169.0,4194.0 2160.0,4158.0 C 2154.0,4134.0 2145.0,4102.0 2140.0,4086.0 C 2118.0,4020.0 2133.0,3994.0 2174.0,4025.0 C 2202.0,4046.0 2237.0,4044.0 2250.0,4019.0 C 2257.0,4007.0 2268.0,4001.0 2276.0,4004.0 C 2284.0,4007.0 2290.0,4005.0 2290.0,4000.0 C 2290.0,3981.0 2269.0,3979.0 2241.0,3996.0 C 2213.0,4012.0 2211.0,4012.0 2181.0,3991.0 C 2164.0,3978.0 2142.0,3954.0 2134.0,3937.0 C 2125.0,3919.0 2111.0,3898.0 2104.0,3889.0 C 2080.0,3862.0 2102.0,3820.0 2139.0,3820.0 C 2155.0,3820.0 2170.0,3815.0 2172.0,3810.0 C 2176.0,3797.0 2303.0,3846.0 2324.0,3869.0 C 2332.0,3878.0 2352.0,3931.0 2367.0,3985.0 C 2392.0,4075.0 2395.0,4100.0 2394.0,4233.0 C 2393.0,4368.0 2391.0,4384.0 2372.0,4410.0 C 2355.0,4433.0 2350.0,4453.0 2350.0,4503.0 C 2350.0,4611.0 2356.0,4627.0 2405.0,4646.0 C 2434.0,4657.0 2450.0,4670.0 2454.0,4685.0 C 2458.0,4702.0 2470.0,4710.0 2496.0,4715.0 C 2541.0,4723.0 2548.0,4717.0 2521.0,4693.0 C 2509.0,4684.0 2500.0,4666.0 2500.0,4655.0 C 2500.0,4640.0 2489.0,4631.0 2458.0,4620.0 C 2418.0,4606.0 2415.0,4602.0 2407.0,4557.0 C 2401.0,4516.0 2403.0,4503.0 2420.0,4474.0 C 2442.0,4440.0 2446.0,4370.0 2438.0,4208.0 C 2436.0,4166.0 2440.0,4156.0 2468.0,4127.0 C 2490.0,4104.0 2500.0,4084.0 2500.0,4063.0 C 2500.0,4015.0 2509.0,4000.0 2539.0,4000.0 C 2580.0,4000.0 2610.0,3945.0 2610.0,3871.0 C 2610.0,3798.0 2599.0,3767.0 2555.0,3718.0 C 2525.0,3686.0 2520.0,3673.0 2520.0,3632.0 C 2520.0,3591.0 2515.0,3579.0 2492.0,3558.0 C 2475.0,3543.0 2458.0,3513.0 2450.0,3484.0 C 2442.0,3457.0 2428.0,3422.0 2418.0,3405.0 C 2408.0,3389.0 2400.0,3361.0 2400.0,3344.0 C 2400.0,3327.0 2393.0,3293.0 2385.0,3270.0 C 2377.0,3247.0 2370.0,3215.0 2370.0,3199.0 C 2370.0,3183.0 2352.0,3126.0 2331.0,3073.0 C 2310.0,3019.0 2286.0,2953.0 2277.0,2925.0 C 2267.0,2889.0 2248.0,2860.0 2211.0,2824.0 C 2181.0,2794.0 2160.0,2764.0 2160.0,2751.0 C 2160.0,2740.0 2154.0,2730.0 2147.0,2730.0 C 2138.0,2730.0 2136.0,2742.0 2138.0,2769.0 C 2142.0,2809.0 2127.0,2850.0 2109.0,2850.0 C 2104.0,2850.0 2092.0,2833.0 2083.0,2813.0 C 2075.0,2792.0 2053.0,2750.0 2034.0,2718.0 C 2003.0,2667.0 1996.0,2661.0 1957.0,2655.0 C 1934.0,2652.0 1885.0,2644.0 1848.0,2638.0 C 1795.0,2629.0 1777.0,2630.0 1766.0,2640.0 C 1744.0,2658.0 1720.0,2645.0 1720.0,2615.0 C 1720.0,2577.0 1702.0,2585.0 1698.0,2624.0 L 1695.0,2659.0 L 1667.0,2620.0 L 1639.0,2581.0 L 1677.0,2556.0 C 1698.0,2543.0 1732.0,2529.0 1753.0,2525.0 C 1784.0,2520.0 1790.0,2516.0 1784.0,2502.0 C 1780.0,2493.0 1775.0,2468.0 1772.0,2447.0 C 1768.0,2413.0 1770.0,2410.0 1794.0,2410.0 C 1823.0,2410.0 1826.0,2392.0 1811.0,2311.0 C 1803.0,2273.0 1805.0,2267.0 1821.0,2263.0 C 1846.0,2256.0 1857.0,2197.0 1841.0,2154.0 C 1832.0,2129.0 1832.0,2110.0 1840.0,2080.0 C 1848.0,2049.0 1848.0,2031.0 1838.0,2004.0 C 1826.0,1970.0 1827.0,1967.0 1852.0,1946.0 C 1881.0,1923.0 1900.0,1883.0 1900.0,1846.0 C 1900.0,1833.0 1909.0,1811.0 1920.0,1797.0 L 1941.0,1771.0 L 1913.0,1753.0 C 1898.0,1744.0 1870.0,1723.0 1852.0,1708.0 C 1834.0,1693.0 1811.0,1680.0 1801.0,1680.0 C 1790.0,1680.0 1769.0,1660.0 1749.0,1631.0 C 1702.0,1562.0 1677.0,1552.0 1634.0,1585.0 C 1615.0,1599.0 1600.0,1615.0 1600.0,1621.0 C 1600.0,1637.0 1524.0,1631.0 1477.0,1611.0 C 1442.0,1596.0 1430.0,1585.0 1425.0,1561.0 C 1422.0,1545.0 1412.0,1526.0 1404.0,1519.0 C 1384.0,1502.0 1387.0,1450.0 1410.0,1415.0 C 1422.0,1397.0 1430.0,1368.0 1430.0,1343.0 C 1430.0,1287.0 1457.0,1230.0 1485.0,1230.0 C 1496.0,1230.0 1523.0,1239.0 1544.0,1251.0 C 1567.0,1263.0 1596.0,1270.0 1617.0,1268.0 L 1652.0,1265.0 L 1565.0,1150.0 C 1517.0,1087.0 1467.0,1024.0 1454.0,1010.0 C 1433.0,987.0 1431.0,980.0 1439.0,932.0 C 1443.0,903.0 1449.0,878.0 1451.0,877.0 C 1453.0,875.0 1480.0,864.0 1510.0,852.0 C 1564.0,831.0 1567.0,830.0 1614.0,846.0 C 1642.0,856.0 1680.0,880.0 1701.0,901.0 C 1723.0,923.0 1745.0,940.0 1751.0,940.0 C 1757.0,940.0 1774.0,953.0 1788.0,968.0 C 1803.0,984.0 1822.0,1001.0 1831.0,1006.0 C 1839.0,1011.0 1866.0,1041.0 1889.0,1073.0 C 1919.0,1111.0 1939.0,1130.0 1954.0,1130.0 C 1981.0,1130.0 2111.0,1068.0 2128.0,1047.0 C 2136.0,1038.0 2171.0,1014.0 2206.0,995.0 C 2266.0,961.0 2273.0,960.0 2305.0,971.0 C 2339.0,983.0 2341.0,983.0 2375.0,950.0 C 2394.0,931.0 2420.0,901.0 2433.0,883.0 C 2445.0,865.0 2470.0,844.0 2489.0,837.0 C 2520.0,824.0 2530.0,825.0 2577.0,841.0 C 2606.0,852.0 2638.0,860.0 2649.0,860.0 C 2660.0,860.0 2673.0,866.0 2677.0,874.0 C 2681.0,881.0 2698.0,890.0 2715.0,893.0 C 2740.0,897.0 2752.0,890.0 2800.0,848.0 C 2860.0,793.0 2931.0,755.0 2961.0,763.0 C 2991.0,771.0 2995.0,734.0 2970.0,686.0 L 2947.0,644.0 L 3004.0,516.0 C 3050.0,412.0 3059.0,382.0 3054.0,355.0 C 3048.0,323.0 3050.0,319.0 3104.0,285.0 C 3145.0,259.0 3162.0,241.0 3168.0,218.0 C 3174.0,194.0 3187.0,181.0 3218.0,165.0 C 3240.0,154.0 3259.0,142.0 3260.0,137.0 C 3260.0,133.0 3271.0,112.0 3285.0,91.0 L 3311.0,53.0 L 3448.0,47.0 C 3553.0,43.0 3598.0,37.0 3640.0,21.0 C 3670.0,9.0 3698.0,0.0 3703.0,0.0 C 3707.0,0.0 3731.0,19.0 3755.0,41.0 C 3787.0,71.0 3800.0,90.0 3800.0,110.0 C 3800.0,125.0 3805.0,151.0 3811.0,169.0 C 3821.0,196.0 3826.0,200.0 3854.0,198.0 C 3900.0,195.0 3949.0,218.0 3956.0,245.0 C 3960.0,261.0 3954.0,275.0 3936.0,293.0 C 3905.0,324.0 3903.0,361.0 3929.0,422.0 C 3967.0,511.0 4141.0,640.0 4224.0,640.0 C 4271.0,640.0 4320.0,695.0 4320.0,748.0 C 4320.0,786.0 4351.0,850.0 4370.0,850.0 C 4375.0,850.0 4380.0,863.0 4380.0,878.0 C 4380.0,899.0 4373.0,908.0 4351.0,917.0 C 4329.0,925.0 4319.0,938.0 4311.0,966.0 C 4293.0,1030.0 4298.0,1066.0 4330.0,1117.0 C 4346.0,1143.0 4360.0,1170.0 4360.0,1177.0 C 4360.0,1184.0 4372.0,1213.0 4386.0,1240.0 C 4400.0,1267.0 4414.0,1307.0 4417.0,1329.0 C 4421.0,1356.0 4429.0,1371.0 4444.0,1378.0 C 4464.0,1387.0 4469.0,1403.0 4484.0,1511.0 C 4511.0,1707.0 4513.0,1713.0 4603.0,1810.0 C 4708.0,1923.0 4737.0,1966.0 4746.0,2025.0 C 4750.0,2052.0 4759.0,2090.0 4767.0,2109.0 C 4777.0,2131.0 4782.0,2180.0 4782.0,2248.0 C 4782.0,2324.0 4787.0,2366.0 4801.0,2407.0 C 4811.0,2438.0 4820.0,2471.0 4820.0,2480.0 C 4820.0,2502.0 4840.0,2510.0 4890.0,2510.0 C 4939.0,2510.0 4954.0,2491.0 4960.0,2421.0 C 4964.0,2380.0 4969.0,2364.0 4981.0,2362.0 C 5000.0,2358.0 5106.0,2434.0 5115.0,2458.0 C 5118.0,2468.0 5108.0,2487.0 5087.0,2509.0 C 5000.0,2600.0 5008.0,2626.0 5149.0,2713.0 C 5209.0,2749.0 5210.0,2751.0 5210.0,2795.0 C 5210.0,2839.0 5211.0,2839.0 5239.0,2834.0 C 5265.0,2829.0 5269.0,2832.0 5290.0,2875.0 C 5312.0,2920.0 5332.0,2943.0 5431.0,3037.0 C 5455.0,3060.0 5485.0,3088.0 5496.0,3100.0 C 5600.0,3206.0 5524.0,3175.0 6560.0,3532.0 L 7515.0,3862.0 L 7978.0,4210.0 L 8441.0,4559.0 L 8824.0,5017.0 C 9035.0,5269.0 9218.0,5480.0 9231.0,5486.0 C 9253.0,5496.0 9266.0,5540.0 9384.0,5981.0 C 9454.0,6247.0 9514.0,6467.0 9516.0,6469.0 C 9518.0,6471.0 9540.0,6454.0 9566.0,6430.0 C 9607.0,6393.0 9615.0,6389.0 9643.0,6395.0 C 9685.0,6405.0 9706.0,6406.0 9763.0,6397.0 C 9816.0,6389.0 9821.0,6397.0 9790.0,6441.0 C 9778.0,6456.0 9766.0,6493.0 9763.0,6522.0 C 9760.0,6551.0 9751.0,6585.0 9743.0,6596.0 C 9735.0,6608.0 9730.0,6633.0 9730.0,6651.0 C 9731.0,6670.0 9721.0,6713.0 9708.0,6747.0 C 9687.0,6806.0 9686.0,6809.0 9703.0,6828.0 C 9717.0,6843.0 9718.0,6853.0 9711.0,6873.0 C 9701.0,6900.0 9710.0,6918.0 9745.0,6937.0 C 9752.0,6942.0 9761.0,6970.0 9765.0,7001.0 L 9772.0,7057.0 L 9726.0,7104.0 C 9700.0,7129.0 9674.0,7150.0 9666.0,7150.0 C 9659.0,7150.0 9647.0,7161.0 9640.0,7175.0 C 9630.0,7195.0 9619.0,7200.0 9590.0,7200.0 C 9559.0,7200.0 9549.0,7206.0 9517.0,7248.0 C 9477.0,7301.0 9450.0,7366.0 9450.0,7411.0 C 9450.0,7427.0 9436.0,7471.0 9419.0,7509.0 C 9390.0,7573.0 9384.0,7581.0 9319.0,7619.0 C 9269.0,7649.0 9240.0,7660.0 9210.0,7660.0 L 9170.0,7660.0 L 9170.0,7719.0 L 9170.0,7779.0 L 9203.0,7773.0 C 9221.0,7770.0 9253.0,7773.0 9275.0,7779.0 C 9310.0,7788.0 9316.0,7787.0 9349.0,7761.0 C 9369.0,7745.0 9410.0,7720.0 9440.0,7705.0 L 9494.0,7678.0 L 9508.0,7699.0 C 9519.0,7715.0 9533.0,7720.0 9567.0,7720.0 C 9617.0,7720.0 9668.0,7739.0 9690.0,7765.0 C 9703.0,7781.0 9702.0,7785.0 9675.0,7805.0 C 9653.0,7823.0 9628.0,7830.0 9564.0,7835.0 C 9489.0,7842.0 9475.0,7846.0 9431.0,7879.0 C 9404.0,7899.0 9362.0,7927.0 9338.0,7943.0 C 9315.0,7958.0 9261.0,7994.0 9220.0,8023.0 L 9145.0,8076.0 L 9045.0,8069.0 C 8916.0,8059.0 8863.0,8074.0 8835.0,8126.0 C 8816.0,8162.0 8792.0,8176.0 8697.0,8207.0 C 8670.0,8216.0 8647.0,8228.0 8644.0,8234.0 C 8610.0,8335.0 8596.0,8361.0 8569.0,8377.0 C 8553.0,8387.0 8540.0,8400.0 8540.0,8407.0 C 8540.0,8414.0 8530.0,8439.0 8518.0,8464.0 C 8492.0,8518.0 8463.0,8534.0 8419.0,8518.0 C 8386.0,8506.0 8386.0,8506.0 8355.0,8564.0 C 8342.0,8589.0 8287.0,8608.0 8225.0,8609.0 C 8172.0,8611.0 8141.0,8628.0 8121.0,8668.0 C 8105.0,8699.0 8058.0,8698.0 8036.0,8666.0 C 8028.0,8652.0 7997.0,8629.0 7968.0,8613.0 L 7915.0,8585.0 L 7919.0,8468.0 L 7922.0,8351.0 L 7874.0,8344.0 C 7848.0,8340.0 7790.0,8340.0 7744.0,8344.0 C 7679.0,8349.0 7652.0,8347.0 7620.0,8334.0 C 7580.0,8318.0 7579.0,8318.0 7497.0,8353.0 C 7391.0,8399.0 7343.0,8406.0 7334.0,8378.0 C 7329.0,8360.0 7322.0,8358.0 7285.0,8363.0 C 7262.0,8367.0 7227.0,8365.0 7209.0,8359.0 C 7122.0,8332.0 7108.0,8331.0 7058.0,8351.0 C 7031.0,8361.0 6999.0,8370.0 6987.0,8370.0 C 6975.0,8370.0 6957.0,8377.0 6946.0,8385.0 C 6932.0,8396.0 6924.0,8396.0 6910.0,8388.0 C 6880.0,8369.0 6810.0,8405.0 6809.0,8439.0 C 6808.0,8487.0 6794.0,8504.0 6731.0,8530.0 C 6679.0,8552.0 6661.0,8556.0 6627.0,8549.0 C 6515.0,8527.0 6382.0,8550.0 6323.0,8601.0 C 6298.0,8622.0 6292.0,8636.0 6287.0,8684.0 C 6284.0,8715.0 6272.0,8757.0 6260.0,8777.0 C 6242.0,8808.0 6241.0,8817.0 6251.0,8842.0 C 6269.0,8887.0 6257.0,8967.0 6228.0,8997.0 C 6206.0,9019.0 6200.0,9020.0 6180.0,9010.0 C 6145.0,8991.0 6105.0,9005.0 6020.0,9067.0 C 5935.0,9128.0 5911.0,9165.0 5931.0,9202.0 C 5940.0,9218.0 5934.0,9228.0 5896.0,9266.0 L 5851.0,9311.0 L 5820.0,9295.0 C 5803.0,9286.0 5773.0,9280.0 5755.0,9281.0 C 5733.0,9283.0 5714.0,9278.0 5700.0,9265.0 C 5675.0,9242.0 5620.0,9243.0 5579.0,9267.0 C 5559.0,9279.0 5549.0,9295.0 5545.0,9322.0 C 5538.0,9362.0 5531.0,9367.0 5513.0,9349.0 C 5504.0,9340.0 5484.0,9346.0 5434.0,9369.0 C 5374.0,9397.0 5360.0,9400.0 5310.0,9394.0 C 5253.0,9388.0 5252.0,9388.0 5180.0,9439.0 C 5140.0,9467.0 5100.0,9490.0 5092.0,9490.0 C 5084.0,9490.0 5060.0,9510.0 5039.0,9534.0 C 5018.0,9558.0 4988.0,9582.0 4973.0,9588.0 C 4958.0,9593.0 4923.0,9606.0 4896.0,9615.0 C 4839.0,9636.0 4691.0,9766.0 4654.0,9828.0 C 4629.0,9869.0 4600.0,9881.0 4513.0,9881.0 C 4490.0,9881.0 4479.0,9887.0 4475.0,9901.0 C 4471.0,9911.0 4460.0,9920.0 4449.0,9920.0 C 4434.0,9920.0 4430.0,9927.0 4430.0,9951.0 C 4430.0,9981.0 4429.0,9982.0 4396.0,9976.0 C 4357.0,9968.0 4313.0,9985.0 4305.0,10011.0 C 4297.0,10035.0 4214.0,10110.0 4194.0,10110.0 C 4181.0,10110.0 4179.0,10116.0 4183.0,10139.0 C 4188.0,10164.0 4185.0,10170.0 4167.0,10176.0 C 4155.0,10180.0 4129.0,10196.0 4109.0,10211.0 C 4072.0,10240.0 4065.0,10243.0 4043.0,10233.0" fill="pink"/>
	<path d="M 3890.0,10095.0 C 3883.0,10087.0 3870.0,10080.0 3860.0,10080.0 C 3851.0,10080.0 3828.0,10062.0 3810.0,10039.0 C 3778.0,9999.0 3778.0,9997.0 3793.0,9965.0 C 3810.0,9930.0 3853.0,9911.0 3875.0,9930.0 C 3885.0,9938.0 3890.0,9938.0 3895.0,9930.0 C 3908.0,9909.0 3939.0,9950.0 3946.0,9996.0 C 3955.0,10058.0 3944.0,10110.0 3921.0,10110.0 C 3911.0,10110.0 3897.0,10103.0 3890.0,10095.0" fill="pink"/>
	<path d="M 3707.0,9943.0 C 3703.0,9939.0 3711.0,9925.0 3724.0,9911.0 C 3737.0,9897.0 3760.0,9860.0 3776.0,9830.0 C 3791.0,9800.0 3805.0,9773.0 3807.0,9770.0 C 3817.0,9759.0 3830.0,9799.0 3830.0,9841.0 C 3830.0,9888.0 3816.0,9910.0 3778.0,9923.0 C 3768.0,9927.0 3760.0,9934.0 3760.0,9940.0 C 3760.0,9951.0 3717.0,9954.0 3707.0,9943.0" fill="pink"/>
	<path d="M 2100.0,8580.0 C 2100.0,8567.0 2141.0,8530.0 2156.0,8530.0 C 2163.0,8530.0 2172.0,8535.0 2175.0,8540.0 C 2178.0,8546.0 2174.0,8550.0 2166.0,8550.0 C 2158.0,8550.0 2146.0,8559.0 2140.0,8570.0 C 2129.0,8590.0 2100.0,8598.0 2100.0,8580.0" fill="pink"/>
	<path d="M 457.0,5982.0 C 431.0,5979.0 429.0,5975.0 432.0,5942.0 C 435.0,5905.0 436.0,5905.0 483.0,5902.0 C 509.0,5900.0 530.0,5902.0 530.0,5905.0 C 530.0,5918.0 501.0,5978.0 494.0,5982.0 C 489.0,5984.0 472.0,5984.0 457.0,5982.0" fill="pink"/>
	<path d="M 2427.0,4091.0 C 2422.0,4070.0 2443.0,4030.0 2480.0,3992.0 C 2503.0,3968.0 2522.0,3969.0 2502.0,3993.0 C 2496.0,4000.0 2486.0,4030.0 2479.0,4058.0 C 2471.0,4097.0 2464.0,4110.0 2450.0,4110.0 C 2440.0,4110.0 2430.0,4101.0 2427.0,4091.0" fill="pink"/>
	<path d="M 2396.0,3938.0 C 2386.0,3892.0 2373.0,3843.0 2368.0,3829.0 C 2363.0,3815.0 2362.0,3791.0 2366.0,3777.0 C 2371.0,3753.0 2377.0,3750.0 2417.0,3750.0 C 2461.0,3750.0 2461.0,3750.0 2455.0,3779.0 C 2452.0,3794.0 2454.0,3827.0 2460.0,3852.0 C 2473.0,3903.0 2462.0,3959.0 2432.0,3998.0 C 2415.0,4020.0 2415.0,4019.0 2396.0,3938.0" fill="pink"/>
	<path d="M 2533.0,3918.0 C 2511.0,3897.0 2511.0,3897.0 2530.0,3860.0 C 2567.0,3788.0 2597.0,3800.0 2592.0,3883.0 C 2588.0,3947.0 2572.0,3957.0 2533.0,3918.0" fill="pink"/>
	<path d="M 2226.0,3799.0 C 2205.0,3782.0 2202.0,3775.0 2211.0,3764.0 C 2223.0,3750.0 2257.0,3746.0 2283.0,3756.0 C 2295.0,3760.0 2296.0,3767.0 2287.0,3791.0 C 2274.0,3826.0 2262.0,3827.0 2226.0,3799.0" fill="pink"/>
	<path d="M 2097.0,3708.0 C 2070.0,3703.0 2036.0,3690.0 2021.0,3679.0 C 2006.0,3668.0 1978.0,3655.0 1959.0,3650.0 C 1875.0,3628.0 1850.0,3615.0 1850.0,3594.0 C 1850.0,3583.0 1833.0,3549.0 1812.0,3519.0 C 1768.0,3456.0 1750.0,3375.0 1750.0,3236.0 C 1750.0,3160.0 1752.0,3150.0 1772.0,3136.0 C 1806.0,3112.0 1879.0,3115.0 1907.0,3142.0 C 1927.0,3160.0 1933.0,3162.0 1956.0,3151.0 C 1990.0,3136.0 2003.0,3147.0 2018.0,3208.0 C 2029.0,3249.0 2029.0,3261.0 2015.0,3286.0 C 2007.0,3302.0 1997.0,3330.0 1994.0,3348.0 C 1991.0,3366.0 1982.0,3380.0 1974.0,3380.0 C 1966.0,3380.0 1960.0,3389.0 1960.0,3401.0 C 1960.0,3442.0 2067.0,3465.0 2124.0,3435.0 C 2162.0,3415.0 2167.0,3416.0 2176.0,3443.0 C 2188.0,3482.0 2219.0,3512.0 2270.0,3536.0 C 2303.0,3551.0 2324.0,3568.0 2330.0,3585.0 C 2345.0,3624.0 2343.0,3628.0 2308.0,3635.0 C 2290.0,3639.0 2252.0,3660.0 2224.0,3681.0 C 2170.0,3723.0 2170.0,3723.0 2097.0,3708.0" fill="pink"/>
	<path d="M 2032.0,3418.0 C 2025.0,3411.0 2020.0,3396.0 2020.0,3383.0 C 2020.0,3349.0 2077.0,3335.0 2108.0,3363.0 C 2136.0,3389.0 2136.0,3392.0 2101.0,3413.0 C 2067.0,3433.0 2048.0,3434.0 2032.0,3418.0" fill="pink"/>
	<path d="M 2024.0,3329.0 C 2015.0,3313.0 2036.0,3296.0 2055.0,3304.0 C 2069.0,3309.0 2070.0,3313.0 2060.0,3325.0 C 2045.0,3343.0 2034.0,3344.0 2024.0,3329.0" fill="pink"/>
</svg>
