<?xml version="1.0" ?>
<svg xmlns="http://www.w3.org/2000/svg" xmlns:ev="http://www.w3.org/2001/xml-events" xmlns:xlink="http://www.w3.org/1999/xlink" baseProfile="full" height="366px" version="1.1" viewBox="-1027.001908158365 1370.8809623315956 12295.928479507675 7498.238075336809" width="600px">
	<defs/>
	<path d="M 6192.0,8213.0 C 6175.0,8188.0 6175.0,8181.0 6186.0,8155.0 C 6193.0,8139.0 6199.0,8115.0 6200.0,8102.0 C 6200.0,8090.0 6209.0,8062.0 6220.0,8040.0 C 6254.0,7973.0 6215.0,7907.0 6153.0,7931.0 C 6115.0,7945.0 6090.0,7969.0 6090.0,7992.0 C 6090.0,8004.0 6079.0,8015.0 6060.0,8021.0 C 6044.0,8027.0 6030.0,8036.0 6030.0,8041.0 C 6030.0,8046.0 6021.0,8050.0 6009.0,8050.0 C 5968.0,8050.0 5950.0,8068.0 5950.0,8111.0 C 5950.0,8149.0 5948.0,8151.0 5923.0,8148.0 C 5897.0,8145.0 5895.0,8142.0 5892.0,8092.0 C 5889.0,8036.0 5917.0,7961.0 5968.0,7892.0 C 6001.0,7847.0 5992.0,7817.0 5940.0,7796.0 C 5918.0,7787.0 5884.0,7780.0 5866.0,7780.0 C 5839.0,7780.0 5831.0,7775.0 5826.0,7756.0 C 5819.0,7726.0 5776.0,7710.0 5703.0,7710.0 C 5660.0,7710.0 5641.0,7716.0 5600.0,7743.0 C 5572.0,7761.0 5550.0,7783.0 5550.0,7793.0 C 5550.0,7818.0 5538.0,7814.0 5505.0,7780.0 C 5478.0,7751.0 5430.0,7739.0 5430.0,7760.0 C 5430.0,7773.0 5360.0,7850.0 5349.0,7850.0 C 5329.0,7850.0 5342.0,7804.0 5370.0,7775.0 L 5400.0,7744.0 L 5377.0,7709.0 C 5348.0,7665.0 5325.0,7662.0 5290.0,7695.0 C 5262.0,7721.0 5219.0,7738.0 5148.0,7747.0 C 5115.0,7751.0 5110.0,7749.0 5096.0,7722.0 C 5088.0,7706.0 5074.0,7690.0 5065.0,7686.0 C 5044.0,7678.0 4980.0,7710.0 4980.0,7729.0 C 4980.0,7738.0 4974.0,7757.0 4966.0,7772.0 C 4958.0,7787.0 4949.0,7812.0 4945.0,7829.0 C 4940.0,7852.0 4931.0,7861.0 4902.0,7871.0 C 4882.0,7877.0 4848.0,7894.0 4827.0,7908.0 C 4797.0,7928.0 4785.0,7931.0 4772.0,7923.0 C 4744.0,7906.0 4747.0,7871.0 4785.0,7774.0 C 4827.0,7668.0 4827.0,7622.0 4786.0,7595.0 C 4767.0,7582.0 4754.0,7581.0 4714.0,7590.0 C 4662.0,7602.0 4650.0,7612.0 4650.0,7647.0 C 4650.0,7659.0 4641.0,7674.0 4630.0,7680.0 C 4612.0,7689.0 4610.0,7688.0 4610.0,7664.0 C 4610.0,7639.0 4608.0,7638.0 4570.0,7643.0 C 4520.0,7649.0 4516.0,7630.0 4560.0,7592.0 C 4577.0,7577.0 4590.0,7560.0 4590.0,7553.0 C 4590.0,7529.0 4568.0,7529.0 4542.0,7553.0 C 4512.0,7581.0 4443.0,7613.0 4429.0,7604.0 C 4424.0,7601.0 4420.0,7592.0 4420.0,7584.0 C 4420.0,7574.0 4407.0,7570.0 4373.0,7570.0 C 4332.0,7570.0 4323.0,7574.0 4289.0,7611.0 C 4252.0,7651.0 4247.0,7653.0 4180.0,7658.0 C 4116.0,7662.0 4107.0,7661.0 4085.0,7640.0 C 4068.0,7624.0 4060.0,7606.0 4060.0,7584.0 C 4060.0,7558.0 4049.0,7540.0 4011.0,7502.0 C 3953.0,7442.0 3889.0,7416.0 3863.0,7443.0 C 3849.0,7457.0 3844.0,7457.0 3818.0,7444.0 C 3783.0,7426.0 3782.0,7412.0 3818.0,7404.0 C 3856.0,7394.0 3869.0,7372.0 3870.0,7318.0 C 3870.0,7254.0 3853.0,7255.0 3753.0,7323.0 C 3670.0,7380.0 3625.0,7400.0 3579.0,7400.0 C 3551.0,7400.0 3550.0,7398.0 3550.0,7351.0 C 3550.0,7302.0 3550.0,7302.0 3603.0,7272.0 C 3664.0,7238.0 3673.0,7228.0 3686.0,7180.0 C 3694.0,7150.0 3691.0,7137.0 3668.0,7090.0 C 3653.0,7060.0 3641.0,7043.0 3641.0,7052.0 C 3640.0,7061.0 3628.0,7078.0 3613.0,7090.0 C 3590.0,7108.0 3578.0,7110.0 3531.0,7105.0 C 3500.0,7101.0 3463.0,7090.0 3448.0,7080.0 C 3415.0,7056.0 3340.0,7060.0 3260.0,7090.0 C 3188.0,7117.0 3140.0,7117.0 3133.0,7090.0 C 3127.0,7068.0 3096.0,7063.0 3083.0,7083.0 C 3078.0,7090.0 3073.0,7074.0 3070.0,7041.0 C 3066.0,6997.0 3060.0,6983.0 3038.0,6967.0 L 3010.0,6946.0 L 2980.0,6968.0 L 2950.0,6990.0 L 2895.0,6945.0 C 2822.0,6886.0 2788.0,6884.0 2743.0,6937.0 L 2712.0,6975.0 L 2705.0,6935.0 C 2701.0,6913.0 2690.0,6882.0 2681.0,6867.0 C 2665.0,6839.0 2666.0,6836.0 2703.0,6770.0 C 2723.0,6732.0 2740.0,6691.0 2740.0,6680.0 C 2740.0,6668.0 2747.0,6646.0 2755.0,6630.0 C 2776.0,6589.0 2766.0,6550.0 2733.0,6550.0 C 2720.0,6550.0 2698.0,6538.0 2683.0,6524.0 C 2665.0,6506.0 2649.0,6500.0 2626.0,6502.0 C 2596.0,6505.0 2595.0,6504.0 2597.0,6465.0 C 2598.0,6443.0 2601.0,6411.0 2605.0,6393.0 C 2611.0,6366.0 2609.0,6361.0 2590.0,6358.0 C 2570.0,6355.0 2570.0,6352.0 2608.0,6294.0 C 2647.0,6234.0 2649.0,6233.0 2701.0,6228.0 C 2733.0,6225.0 2758.0,6216.0 2765.0,6206.0 C 2772.0,6197.0 2785.0,6190.0 2794.0,6190.0 C 2807.0,6190.0 2810.0,6200.0 2810.0,6240.0 C 2810.0,6268.0 2814.0,6290.0 2818.0,6290.0 C 2823.0,6290.0 2839.0,6277.0 2855.0,6260.0 C 2892.0,6222.0 2900.0,6222.0 2900.0,6262.0 L 2900.0,6295.0 L 2924.0,6270.0 C 2953.0,6240.0 2963.0,6210.0 2950.0,6190.0 C 2942.0,6177.0 2937.0,6177.0 2909.0,6193.0 C 2868.0,6216.0 2847.0,6215.0 2855.0,6191.0 C 2867.0,6152.0 2797.0,6132.0 2761.0,6164.0 C 2736.0,6187.0 2727.0,6184.0 2710.0,6148.0 C 2689.0,6103.0 2664.0,6090.0 2647.0,6114.0 C 2626.0,6143.0 2596.0,6127.0 2584.0,6080.0 C 2572.0,6037.0 2580.0,6020.0 2612.0,6020.0 C 2626.0,6020.0 2630.0,6012.0 2630.0,5987.0 C 2630.0,5961.0 2643.0,5940.0 2690.0,5887.0 C 2738.0,5833.0 2750.0,5812.0 2750.0,5786.0 C 2750.0,5742.0 2725.0,5732.0 2694.0,5761.0 L 2671.0,5782.0 L 2655.0,5726.0 C 2646.0,5694.0 2641.0,5662.0 2644.0,5654.0 C 2653.0,5631.0 2713.0,5610.0 2769.0,5610.0 C 2813.0,5610.0 2818.0,5613.0 2824.0,5635.0 C 2830.0,5658.0 2835.0,5660.0 2884.0,5660.0 C 2913.0,5660.0 2940.0,5657.0 2944.0,5653.0 C 2948.0,5649.0 2980.0,5647.0 3015.0,5648.0 C 3052.0,5650.0 3080.0,5647.0 3084.0,5641.0 C 3088.0,5635.0 3086.0,5613.0 3080.0,5591.0 C 3070.0,5554.0 3067.0,5552.0 3022.0,5546.0 C 2897.0,5531.0 2822.0,5528.0 2803.0,5538.0 C 2788.0,5546.0 2778.0,5546.0 2765.0,5536.0 C 2748.0,5524.0 2750.0,5521.0 2784.0,5494.0 C 2804.0,5478.0 2820.0,5462.0 2820.0,5458.0 C 2820.0,5453.0 2800.0,5450.0 2775.0,5450.0 C 2735.0,5450.0 2729.0,5447.0 2715.0,5419.0 C 2701.0,5392.0 2700.0,5383.0 2714.0,5337.0 C 2722.0,5308.0 2733.0,5254.0 2739.0,5216.0 C 2749.0,5150.0 2748.0,5146.0 2725.0,5118.0 C 2679.0,5063.0 2699.0,5020.0 2772.0,5020.0 C 2798.0,5020.0 2815.0,5009.0 2857.0,4968.0 C 2889.0,4936.0 2925.0,4911.0 2948.0,4905.0 L 2985.0,4894.0 L 2988.0,4765.0 C 2990.0,4652.0 2993.0,4633.0 3011.0,4614.0 C 3022.0,4603.0 3043.0,4560.0 3059.0,4519.0 C 3084.0,4452.0 3091.0,4443.0 3131.0,4423.0 C 3183.0,4397.0 3220.0,4394.0 3220.0,4415.0 C 3220.0,4423.0 3223.0,4430.0 3228.0,4430.0 C 3246.0,4429.0 3259.0,4412.0 3269.0,4373.0 C 3278.0,4340.0 3287.0,4329.0 3306.0,4324.0 C 3323.0,4320.0 3335.0,4322.0 3341.0,4331.0 C 3352.0,4350.0 3428.0,4343.0 3467.0,4319.0 C 3490.0,4304.0 3499.0,4303.0 3502.0,4312.0 C 3510.0,4336.0 3537.0,4302.0 3566.0,4232.0 C 3596.0,4158.0 3641.0,4105.0 3681.0,4095.0 C 3703.0,4089.0 3709.0,4094.0 3724.0,4129.0 C 3742.0,4168.0 3743.0,4169.0 3809.0,4175.0 C 3845.0,4178.0 3883.0,4182.0 3894.0,4183.0 C 3924.0,4186.0 3968.0,4312.0 3963.0,4381.0 C 3960.0,4411.0 3963.0,4447.0 3969.0,4463.0 L 3980.0,4490.0 L 4092.0,4490.0 C 4187.0,4490.0 4216.0,4486.0 4275.0,4465.0 C 4314.0,4452.0 4352.0,4440.0 4360.0,4440.0 C 4368.0,4440.0 4384.0,4425.0 4396.0,4407.0 C 4413.0,4381.0 4416.0,4366.0 4411.0,4325.0 C 4403.0,4263.0 4351.0,4183.0 4306.0,4165.0 C 4256.0,4144.0 4239.0,4118.0 4233.0,4052.0 C 4229.0,4008.0 4232.0,3980.0 4246.0,3944.0 C 4267.0,3889.0 4269.0,3812.0 4252.0,3675.0 C 4239.0,3570.0 4213.0,3488.0 4169.0,3417.0 C 4152.0,3390.0 4130.0,3333.0 4119.0,3291.0 C 4109.0,3249.0 4093.0,3198.0 4085.0,3177.0 C 4077.0,3157.0 4070.0,3122.0 4070.0,3100.0 C 4070.0,3064.0 4073.0,3059.0 4108.0,3044.0 C 4185.0,3012.0 4195.0,3013.0 4224.0,3062.0 C 4238.0,3087.0 4250.0,3116.0 4250.0,3128.0 C 4250.0,3155.0 4359.0,3253.0 4405.0,3267.0 C 4434.0,3276.0 4446.0,3275.0 4469.0,3262.0 C 4495.0,3247.0 4499.0,3248.0 4531.0,3268.0 C 4558.0,3284.0 4575.0,3287.0 4609.0,3283.0 C 4644.0,3278.0 4654.0,3280.0 4662.0,3294.0 C 4675.0,3318.0 4711.0,3330.0 4807.0,3345.0 C 4855.0,3353.0 4900.0,3366.0 4917.0,3378.0 C 4950.0,3402.0 5012.0,3420.0 5060.0,3420.0 C 5105.0,3421.0 5118.0,3432.0 5164.0,3507.0 C 5227.0,3612.0 5272.0,3633.0 5375.0,3602.0 C 5428.0,3586.0 5436.0,3580.0 5440.0,3554.0 C 5443.0,3538.0 5460.0,3495.0 5478.0,3458.0 C 5503.0,3409.0 5517.0,3390.0 5537.0,3385.0 C 5551.0,3382.0 5564.0,3381.0 5566.0,3383.0 C 5569.0,3385.0 5575.0,3415.0 5581.0,3448.0 C 5592.0,3509.0 5592.0,3510.0 5560.0,3550.0 C 5522.0,3597.0 5529.0,3616.0 5580.0,3605.0 C 5603.0,3600.0 5620.0,3584.0 5646.0,3545.0 C 5667.0,3514.0 5696.0,3485.0 5718.0,3474.0 C 5775.0,3445.0 5800.0,3419.0 5800.0,3390.0 C 5800.0,3350.0 5869.0,3320.0 5960.0,3320.0 L 6029.0,3320.0 L 6036.0,3275.0 C 6040.0,3248.0 6048.0,3230.0 6055.0,3230.0 C 6062.0,3230.0 6093.0,3210.0 6123.0,3185.0 C 6187.0,3133.0 6225.0,3126.0 6239.0,3164.0 C 6253.0,3199.0 6282.0,3206.0 6300.0,3178.0 C 6308.0,3165.0 6350.0,3118.0 6393.0,3074.0 C 6485.0,2978.0 6521.0,2962.0 6623.0,2975.0 C 6711.0,2986.0 6758.0,2986.0 6770.0,2974.0 C 6776.0,2968.0 6769.0,2943.0 6750.0,2901.0 C 6714.0,2825.0 6713.0,2799.0 6744.0,2746.0 C 6763.0,2713.0 6780.0,2700.0 6827.0,2681.0 C 6992.0,2614.0 6980.0,2622.0 6980.0,2576.0 C 6980.0,2543.0 6986.0,2528.0 7006.0,2509.0 C 7041.0,2476.0 7105.0,2356.0 7120.0,2294.0 L 7133.0,2243.0 L 7224.0,2208.0 C 7274.0,2189.0 7349.0,2167.0 7390.0,2159.0 L 7465.0,2145.0 L 7470.0,2095.0 C 7473.0,2068.0 7481.0,2035.0 7488.0,2022.0 L 7501.0,2000.0 L 7540.0,2020.0 C 7572.0,2036.0 7590.0,2039.0 7634.0,2034.0 L 7688.0,2028.0 L 7695.0,2068.0 C 7701.0,2103.0 7706.0,2110.0 7741.0,2124.0 C 7763.0,2133.0 7799.0,2140.0 7821.0,2140.0 C 7856.0,2140.0 7870.0,2147.0 7917.0,2190.0 C 7951.0,2221.0 7981.0,2240.0 7996.0,2240.0 C 8012.0,2240.0 8029.0,2252.0 8049.0,2280.0 C 8065.0,2303.0 8090.0,2330.0 8104.0,2341.0 L 8129.0,2361.0 L 8177.0,2337.0 C 8203.0,2324.0 8243.0,2307.0 8265.0,2300.0 C 8327.0,2280.0 8358.0,2256.0 8389.0,2208.0 C 8414.0,2168.0 8426.0,2160.0 8502.0,2132.0 C 8590.0,2099.0 8638.0,2094.0 8758.0,2106.0 C 8815.0,2112.0 8819.0,2114.0 8809.0,2132.0 C 8800.0,2149.0 8804.0,2158.0 8836.0,2191.0 C 8857.0,2212.0 8882.0,2232.0 8891.0,2235.0 C 8910.0,2242.0 8934.0,2339.0 8919.0,2355.0 C 8914.0,2360.0 8910.0,2385.0 8910.0,2411.0 C 8910.0,2448.0 8917.0,2466.0 8944.0,2502.0 C 8982.0,2551.0 9005.0,2560.0 9095.0,2560.0 C 9147.0,2560.0 9148.0,2560.0 9154.0,2594.0 C 9162.0,2633.0 9154.0,2675.0 9134.0,2705.0 C 9126.0,2716.0 9120.0,2747.0 9120.0,2775.0 C 9121.0,2819.0 9126.0,2830.0 9161.0,2869.0 C 9196.0,2908.0 9208.0,2915.0 9268.0,2926.0 C 9313.0,2935.0 9370.0,2938.0 9443.0,2933.0 C 9547.0,2927.0 9552.0,2928.0 9576.0,2951.0 C 9632.0,3003.0 9643.0,3056.0 9611.0,3119.0 C 9592.0,3156.0 9589.0,3157.0 9528.0,3164.0 C 9477.0,3169.0 9460.0,3176.0 9437.0,3198.0 C 9399.0,3236.0 9386.0,3295.0 9407.0,3331.0 C 9422.0,3356.0 9422.0,3360.0 9401.0,3389.0 C 9378.0,3422.0 9341.0,3430.0 9322.0,3408.0 C 9317.0,3401.0 9306.0,3376.0 9299.0,3353.0 C 9293.0,3329.0 9283.0,3310.0 9279.0,3310.0 C 9266.0,3310.0 9240.0,3447.0 9240.0,3519.0 C 9240.0,3558.0 9235.0,3610.0 9228.0,3635.0 C 9218.0,3672.0 9211.0,3682.0 9183.0,3691.0 C 9158.0,3699.0 9150.0,3707.0 9150.0,3726.0 C 9150.0,3753.0 9085.0,3933.0 9063.0,3967.0 C 9053.0,3982.0 9050.0,4002.0 9055.0,4029.0 C 9062.0,4072.0 9052.0,4099.0 8995.0,4185.0 C 8964.0,4231.0 8961.0,4243.0 8958.0,4327.0 C 8955.0,4396.0 8957.0,4421.0 8967.0,4424.0 C 8990.0,4433.0 8969.0,4458.0 8902.0,4500.0 C 8841.0,4539.0 8831.0,4542.0 8780.0,4538.0 C 8697.0,4532.0 8691.0,4542.0 8691.0,4717.0 C 8691.0,4834.0 8687.0,4866.0 8670.0,4909.0 C 8659.0,4939.0 8650.0,4984.0 8650.0,5016.0 C 8650.0,5060.0 8644.0,5080.0 8621.0,5113.0 C 8595.0,5153.0 8582.0,5199.0 8565.0,5328.0 C 8559.0,5372.0 8472.0,5557.0 8448.0,5577.0 C 8441.0,5583.0 8409.0,5596.0 8378.0,5606.0 C 8341.0,5617.0 8302.0,5640.0 8269.0,5669.0 L 8217.0,5714.0 L 8224.0,5812.0 C 8232.0,5936.0 8252.0,5979.0 8349.0,6077.0 C 8414.0,6143.0 8425.0,6150.0 8480.0,6161.0 C 8513.0,6167.0 8560.0,6185.0 8583.0,6200.0 C 8610.0,6217.0 8648.0,6230.0 8686.0,6235.0 C 8718.0,6239.0 8779.0,6251.0 8820.0,6262.0 C 8883.0,6278.0 8923.0,6281.0 9065.0,6279.0 C 9159.0,6278.0 9256.0,6280.0 9282.0,6284.0 C 9324.0,6291.0 9333.0,6289.0 9375.0,6260.0 L 9421.0,6228.0 L 9455.0,6255.0 C 9486.0,6278.0 9490.0,6286.0 9490.0,6327.0 C 9490.0,6354.0 9498.0,6385.0 9509.0,6404.0 C 9520.0,6421.0 9545.0,6489.0 9565.0,6555.0 C 9600.0,6666.0 9607.0,6679.0 9659.0,6735.0 C 9721.0,6802.0 9750.0,6871.0 9750.0,6954.0 C 9750.0,6995.0 9755.0,7007.0 9783.0,7034.0 C 9811.0,7063.0 9832.0,7071.0 9957.0,7100.0 L 10099.0,7133.0 L 10158.0,7200.0 C 10222.0,7271.0 10240.0,7313.0 10240.0,7393.0 C 10240.0,7439.0 10237.0,7443.0 10168.0,7513.0 C 10085.0,7597.0 10006.0,7654.0 9985.0,7646.0 C 9977.0,7643.0 9964.0,7625.0 9956.0,7606.0 C 9946.0,7582.0 9928.0,7564.0 9898.0,7549.0 C 9874.0,7537.0 9836.0,7510.0 9814.0,7490.0 C 9776.0,7455.0 9766.0,7451.0 9694.0,7445.0 C 9627.0,7438.0 9604.0,7441.0 9540.0,7460.0 C 9431.0,7493.0 9394.0,7499.0 9308.0,7500.0 C 9230.0,7500.0 9148.0,7518.0 8997.0,7567.0 L 8919.0,7592.0 L 8682.0,7570.0 C 8506.0,7554.0 8416.0,7550.0 8330.0,7555.0 C 8205.0,7562.0 8166.0,7576.0 8116.0,7629.0 C 8099.0,7646.0 8079.0,7660.0 8070.0,7660.0 C 8062.0,7660.0 8031.0,7676.0 8001.0,7695.0 C 7972.0,7714.0 7942.0,7730.0 7934.0,7730.0 C 7926.0,7730.0 7917.0,7743.0 7914.0,7760.0 C 7910.0,7780.0 7901.0,7790.0 7890.0,7790.0 C 7880.0,7790.0 7846.0,7804.0 7814.0,7821.0 C 7763.0,7847.0 7660.0,7879.0 7623.0,7880.0 C 7614.0,7880.0 7612.0,7870.0 7616.0,7850.0 C 7624.0,7815.0 7607.0,7790.0 7576.0,7790.0 C 7565.0,7790.0 7546.0,7783.0 7536.0,7775.0 C 7518.0,7761.0 7513.0,7762.0 7486.0,7788.0 C 7429.0,7841.0 7356.0,7880.0 7314.0,7880.0 C 7269.0,7880.0 7206.0,7907.0 7153.0,7947.0 C 7120.0,7973.0 7108.0,7975.0 7003.0,7981.0 C 6891.0,7986.0 6890.0,7987.0 6855.0,8020.0 C 6836.0,8039.0 6818.0,8061.0 6815.0,8071.0 C 6812.0,8080.0 6795.0,8090.0 6777.0,8094.0 C 6752.0,8099.0 6742.0,8096.0 6729.0,8079.0 C 6714.0,8058.0 6713.0,8058.0 6683.0,8097.0 C 6666.0,8118.0 6648.0,8132.0 6644.0,8127.0 C 6640.0,8123.0 6641.0,8096.0 6647.0,8067.0 C 6660.0,8005.0 6645.0,7970.0 6604.0,7970.0 C 6576.0,7970.0 6561.0,7995.0 6579.0,8013.0 C 6601.0,8035.0 6591.0,8058.0 6558.0,8065.0 C 6540.0,8069.0 6515.0,8078.0 6503.0,8086.0 L 6480.0,8100.0 L 6480.0,8016.0 C 6480.0,7949.0 6477.0,7931.0 6464.0,7926.0 C 6438.0,7916.0 6413.0,7919.0 6381.0,7938.0 C 6351.0,7954.0 6350.0,7958.0 6350.0,8021.0 C 6350.0,8065.0 6345.0,8091.0 6336.0,8099.0 C 6329.0,8105.0 6320.0,8128.0 6316.0,8150.0 C 6311.0,8181.0 6305.0,8190.0 6290.0,8190.0 C 6279.0,8190.0 6270.0,8196.0 6270.0,8203.0 C 6270.0,8214.0 6231.0,8240.0 6215.0,8240.0 C 6213.0,8240.0 6203.0,8228.0 6192.0,8213.0" fill="pink"/>
	<path d="M 4294.0,8003.0 C 4291.0,7982.0 4279.0,7955.0 4268.0,7943.0 C 4248.0,7922.0 4248.0,7922.0 4272.0,7909.0 C 4284.0,7903.0 4311.0,7884.0 4330.0,7868.0 C 4378.0,7829.0 4401.0,7830.0 4393.0,7873.0 C 4375.0,7964.0 4338.0,8038.0 4308.0,8040.0 C 4304.0,8040.0 4298.0,8023.0 4294.0,8003.0" fill="pink"/>
	<path d="M 3428.0,7271.0 C 3438.0,7199.0 3520.0,7177.0 3520.0,7245.0 C 3520.0,7284.0 3500.0,7300.0 3452.0,7300.0 C 3426.0,7300.0 3424.0,7297.0 3428.0,7271.0" fill="pink"/>
	<path d="M 3310.0,7246.0 C 3327.0,7222.0 3353.0,7197.0 3366.0,7191.0 C 3399.0,7177.0 3400.0,7177.0 3400.0,7198.0 C 3400.0,7215.0 3365.0,7248.0 3315.0,7277.0 C 3279.0,7299.0 3278.0,7291.0 3310.0,7246.0" fill="pink"/>
	<path d="M 1229.0,6479.0 C 1232.0,6390.0 1232.0,6388.0 1211.0,6399.0 C 1194.0,6409.0 1188.0,6406.0 1174.0,6385.0 C 1159.0,6362.0 1153.0,6360.0 1117.0,6365.0 C 1089.0,6370.0 1080.0,6369.0 1084.0,6361.0 C 1094.0,6345.0 1050.0,6230.0 1034.0,6230.0 C 1026.0,6230.0 1020.0,6219.0 1020.0,6205.0 C 1020.0,6185.0 1015.0,6180.0 995.0,6180.0 C 978.0,6180.0 966.0,6171.0 956.0,6152.0 C 948.0,6137.0 930.0,6119.0 916.0,6112.0 C 894.0,6102.0 890.0,6103.0 884.0,6122.0 C 878.0,6141.0 872.0,6142.0 810.0,6138.0 C 773.0,6135.0 733.0,6126.0 721.0,6118.0 C 685.0,6092.0 440.0,6113.0 440.0,6141.0 C 440.0,6159.0 423.0,6149.0 401.0,6119.0 L 378.0,6088.0 L 406.0,6059.0 C 424.0,6040.0 444.0,6030.0 462.0,6030.0 C 480.0,6030.0 490.0,6025.0 490.0,6015.0 C 490.0,6007.0 511.0,5986.0 537.0,5970.0 C 583.0,5941.0 589.0,5940.0 685.0,5942.0 C 762.0,5944.0 790.0,5949.0 809.0,5962.0 C 822.0,5972.0 850.0,5980.0 870.0,5980.0 C 903.0,5980.0 914.0,5973.0 964.0,5919.0 L 1020.0,5859.0 L 1020.0,5755.0 C 1020.0,5654.0 1021.0,5651.0 1048.0,5631.0 C 1074.0,5611.0 1074.0,5610.0 1056.0,5595.0 C 1045.0,5587.0 1038.0,5579.0 1041.0,5577.0 C 1043.0,5575.0 1062.0,5562.0 1082.0,5548.0 L 1120.0,5523.0 L 1083.0,5506.0 L 1047.0,5489.0 L 1090.0,5445.0 C 1141.0,5393.0 1178.0,5384.0 1273.0,5400.0 C 1345.0,5413.0 1361.0,5427.0 1390.0,5498.0 C 1397.0,5516.0 1416.0,5549.0 1431.0,5570.0 C 1447.0,5592.0 1460.0,5623.0 1460.0,5639.0 C 1460.0,5682.0 1484.0,5698.0 1520.0,5677.0 C 1535.0,5668.0 1558.0,5660.0 1569.0,5660.0 C 1593.0,5660.0 1594.0,5654.0 1575.0,5620.0 C 1551.0,5578.0 1558.0,5577.0 1609.0,5614.0 C 1636.0,5634.0 1669.0,5650.0 1683.0,5650.0 C 1708.0,5650.0 1709.0,5651.0 1708.0,5720.0 C 1708.0,5759.0 1707.0,5790.0 1706.0,5790.0 C 1705.0,5790.0 1689.0,5786.0 1670.0,5780.0 L 1635.0,5771.0 L 1660.0,5791.0 C 1679.0,5808.0 1693.0,5810.0 1726.0,5805.0 C 1751.0,5802.0 1771.0,5803.0 1775.0,5809.0 C 1778.0,5815.0 1794.0,5817.0 1809.0,5814.0 C 1832.0,5809.0 1839.0,5812.0 1844.0,5827.0 C 1849.0,5842.0 1859.0,5845.0 1897.0,5844.0 C 1939.0,5842.0 1945.0,5839.0 1953.0,5815.0 C 1961.0,5793.0 1967.0,5789.0 1993.0,5792.0 C 2010.0,5794.0 2025.0,5800.0 2027.0,5805.0 C 2029.0,5811.0 2012.0,5839.0 1990.0,5869.0 C 1942.0,5932.0 1936.0,5982.0 1973.0,6001.0 C 2005.0,6018.0 2005.0,6018.0 1980.0,6045.0 C 1952.0,6075.0 1940.0,6077.0 1940.0,6050.0 C 1940.0,6017.0 1887.0,6023.0 1856.0,6061.0 C 1831.0,6090.0 1822.0,6140.0 1828.0,6213.0 C 1829.0,6225.0 1822.0,6230.0 1802.0,6230.0 C 1744.0,6230.0 1701.0,6243.0 1695.0,6260.0 C 1687.0,6285.0 1647.0,6299.0 1559.0,6309.0 C 1517.0,6314.0 1470.0,6324.0 1454.0,6331.0 C 1427.0,6344.0 1425.0,6350.0 1418.0,6419.0 C 1415.0,6459.0 1407.0,6497.0 1401.0,6503.0 C 1395.0,6509.0 1366.0,6515.0 1336.0,6518.0 C 1295.0,6521.0 1276.0,6528.0 1259.0,6546.0 C 1247.0,6559.0 1234.0,6570.0 1231.0,6570.0 C 1228.0,6570.0 1227.0,6529.0 1229.0,6479.0" fill="pink"/>
	<path d="M 2173.0,6407.0 L 2110.0,6386.0 L 2110.0,6338.0 C 2110.0,6302.0 2115.0,6285.0 2132.0,6268.0 C 2145.0,6255.0 2162.0,6232.0 2170.0,6215.0 C 2178.0,6199.0 2193.0,6184.0 2203.0,6182.0 C 2228.0,6177.0 2270.0,6207.0 2270.0,6229.0 C 2270.0,6246.0 2288.0,6260.0 2310.0,6260.0 C 2315.0,6260.0 2324.0,6235.0 2330.0,6205.0 C 2341.0,6150.0 2342.0,6150.0 2378.0,6150.0 C 2411.0,6151.0 2413.0,6152.0 2398.0,6164.0 C 2371.0,6184.0 2376.0,6205.0 2413.0,6222.0 C 2442.0,6236.0 2447.0,6235.0 2475.0,6219.0 C 2492.0,6208.0 2510.0,6200.0 2516.0,6200.0 C 2540.0,6200.0 2540.0,6234.0 2517.0,6269.0 C 2504.0,6289.0 2490.0,6315.0 2486.0,6328.0 C 2475.0,6361.0 2446.0,6372.0 2386.0,6365.0 C 2337.0,6359.0 2331.0,6360.0 2287.0,6394.0 C 2261.0,6414.0 2239.0,6430.0 2237.0,6429.0 C 2236.0,6429.0 2207.0,6419.0 2173.0,6407.0" fill="pink"/>
	<path d="M 2134.0,5333.0 C 2121.0,5304.0 2121.0,5292.0 2130.0,5275.0 C 2139.0,5258.0 2139.0,5247.0 2130.0,5230.0 C 2120.0,5212.0 2113.0,5209.0 2079.0,5215.0 C 2031.0,5223.0 2022.0,5208.0 2040.0,5144.0 C 2055.0,5091.0 2087.0,5070.0 2151.0,5070.0 L 2192.0,5070.0 L 2188.0,5030.0 C 2186.0,5008.0 2188.0,4990.0 2193.0,4990.0 C 2197.0,4990.0 2223.0,4970.0 2249.0,4945.0 L 2298.0,4899.0 L 2304.0,4934.0 C 2309.0,4961.0 2317.0,4971.0 2342.0,4979.0 C 2394.0,4997.0 2434.0,4993.0 2460.0,4965.0 C 2484.0,4940.0 2484.0,4939.0 2466.0,4908.0 L 2447.0,4877.0 L 2471.0,4883.0 C 2484.0,4887.0 2503.0,4890.0 2514.0,4890.0 C 2529.0,4890.0 2531.0,4895.0 2527.0,4919.0 C 2523.0,4938.0 2526.0,4952.0 2535.0,4960.0 C 2554.0,4976.0 2554.0,5034.0 2536.0,5049.0 C 2514.0,5067.0 2480.0,5146.0 2480.0,5177.0 C 2480.0,5193.0 2485.0,5212.0 2490.0,5220.0 C 2505.0,5244.0 2454.0,5288.0 2385.0,5310.0 C 2352.0,5321.0 2300.0,5339.0 2270.0,5349.0 C 2240.0,5360.0 2200.0,5369.0 2182.0,5370.0 C 2153.0,5370.0 2147.0,5365.0 2134.0,5333.0" fill="pink"/>
	<path d="M 1142.0,5183.0 L 1091.0,5115.0 L 1008.0,5092.0 C 962.0,5080.0 906.0,5070.0 882.0,5070.0 C 859.0,5070.0 821.0,5064.0 799.0,5058.0 C 758.0,5045.0 758.0,5045.0 765.0,5005.0 C 781.0,4905.0 782.0,4869.0 770.0,4840.0 C 759.0,4813.0 753.0,4809.0 726.0,4812.0 C 696.0,4815.0 695.0,4817.0 685.0,4877.0 C 674.0,4948.0 638.0,4998.0 619.0,4970.0 C 614.0,4962.0 611.0,4945.0 613.0,4932.0 C 618.0,4906.0 594.0,4884.0 533.0,4856.0 C 480.0,4833.0 470.0,4807.0 470.0,4705.0 C 470.0,4641.0 467.0,4620.0 457.0,4620.0 C 433.0,4620.0 399.0,4666.0 385.0,4716.0 C 378.0,4743.0 364.0,4786.0 354.0,4813.0 C 334.0,4865.0 315.0,4875.0 211.0,4887.0 C 157.0,4893.0 157.0,4893.0 164.0,4869.0 C 168.0,4856.0 172.0,4838.0 173.0,4830.0 C 176.0,4809.0 128.0,4805.0 91.0,4825.0 L 60.0,4841.0 L 60.0,4811.0 C 60.0,4786.0 66.0,4780.0 110.0,4761.0 C 137.0,4749.0 160.0,4733.0 160.0,4725.0 C 160.0,4717.0 173.0,4696.0 189.0,4678.0 C 205.0,4659.0 221.0,4628.0 225.0,4608.0 C 231.0,4579.0 238.0,4569.0 262.0,4561.0 C 290.0,4551.0 291.0,4548.0 285.0,4510.0 C 280.0,4478.0 282.0,4464.0 296.0,4449.0 C 312.0,4431.0 312.0,4429.0 295.0,4410.0 C 277.0,4390.0 277.0,4390.0 243.0,4416.0 C 211.0,4440.0 210.0,4440.0 210.0,4420.0 C 210.0,4408.0 217.0,4385.0 226.0,4369.0 C 240.0,4341.0 240.0,4337.0 225.0,4320.0 C 208.0,4302.0 207.0,4302.0 174.0,4323.0 C 156.0,4335.0 135.0,4357.0 129.0,4373.0 C 123.0,4388.0 114.0,4400.0 109.0,4400.0 C 92.0,4400.0 90.0,4360.0 105.0,4330.0 L 121.0,4298.0 L 88.0,4302.0 C 47.0,4306.0 40.0,4285.0 65.0,4230.0 C 78.0,4201.0 99.0,4182.0 150.0,4151.0 C 187.0,4129.0 230.0,4108.0 244.0,4104.0 C 266.0,4099.0 270.0,4101.0 270.0,4119.0 C 270.0,4139.0 272.0,4140.0 297.0,4126.0 C 325.0,4112.0 333.0,4095.0 380.0,3968.0 C 397.0,3921.0 406.0,3910.0 424.0,3910.0 C 459.0,3910.0 541.0,3879.0 547.0,3864.0 C 550.0,3856.0 566.0,3850.0 585.0,3850.0 C 612.0,3850.0 619.0,3846.0 622.0,3825.0 C 625.0,3811.0 624.0,3797.0 620.0,3795.0 C 604.0,3785.0 551.0,3658.0 553.0,3637.0 C 556.0,3604.0 516.0,3602.0 495.0,3633.0 C 470.0,3672.0 446.0,3657.0 426.0,3589.0 C 415.0,3553.0 396.0,3519.0 379.0,3503.0 C 364.0,3488.0 354.0,3472.0 357.0,3468.0 C 366.0,3452.0 350.0,3410.0 335.0,3410.0 C 326.0,3410.0 320.0,3401.0 320.0,3386.0 C 320.0,3373.0 310.0,3356.0 298.0,3348.0 C 281.0,3337.0 277.0,3325.0 278.0,3291.0 C 280.0,3238.0 285.0,3230.0 315.0,3230.0 C 330.0,3230.0 340.0,3223.0 344.0,3208.0 C 347.0,3195.0 358.0,3174.0 369.0,3161.0 C 386.0,3139.0 389.0,3138.0 410.0,3153.0 C 422.0,3161.0 454.0,3197.0 480.0,3233.0 C 518.0,3282.0 539.0,3301.0 574.0,3314.0 L 619.0,3331.0 L 617.0,3389.0 C 616.0,3435.0 622.0,3458.0 643.0,3500.0 C 660.0,3532.0 670.0,3568.0 670.0,3594.0 C 670.0,3617.0 677.0,3646.0 686.0,3658.0 C 697.0,3673.0 704.0,3718.0 710.0,3793.0 C 721.0,3951.0 725.0,3958.0 815.0,4003.0 C 859.0,4025.0 913.0,4042.0 945.0,4046.0 C 986.0,4051.0 1001.0,4057.0 1005.0,4071.0 C 1015.0,4100.0 1056.0,4096.0 1064.0,4065.0 C 1073.0,4028.0 1103.0,4033.0 1123.0,4075.0 C 1140.0,4112.0 1170.0,4123.0 1170.0,4093.0 C 1171.0,4051.0 1185.0,4049.0 1244.0,4085.0 C 1306.0,4122.0 1329.0,4122.0 1327.0,4083.0 C 1325.0,4061.0 1330.0,4057.0 1355.0,4055.0 C 1372.0,4054.0 1400.0,4047.0 1417.0,4039.0 C 1446.0,4027.0 1452.0,4028.0 1467.0,4043.0 C 1482.0,4058.0 1482.0,4061.0 1468.0,4077.0 C 1439.0,4110.0 1408.0,4182.0 1418.0,4192.0 C 1433.0,4207.0 1480.0,4203.0 1545.0,4182.0 C 1578.0,4171.0 1608.0,4164.0 1612.0,4167.0 C 1617.0,4169.0 1623.0,4189.0 1626.0,4210.0 C 1630.0,4232.0 1639.0,4255.0 1646.0,4261.0 C 1654.0,4267.0 1660.0,4287.0 1660.0,4305.0 C 1660.0,4323.0 1666.0,4342.0 1673.0,4348.0 C 1683.0,4356.0 1690.0,4348.0 1703.0,4309.0 C 1718.0,4269.0 1725.0,4260.0 1744.0,4260.0 C 1771.0,4260.0 1776.0,4268.0 1785.0,4336.0 C 1789.0,4364.0 1802.0,4395.0 1814.0,4408.0 L 1835.0,4432.0 L 1802.0,4459.0 C 1769.0,4485.0 1769.0,4486.0 1788.0,4503.0 C 1817.0,4529.0 1864.0,4525.0 1878.0,4495.0 C 1885.0,4481.0 1901.0,4465.0 1915.0,4458.0 C 1946.0,4444.0 1974.0,4465.0 1991.0,4518.0 C 1998.0,4538.0 2011.0,4568.0 2021.0,4585.0 C 2032.0,4601.0 2040.0,4625.0 2040.0,4638.0 C 2040.0,4658.0 2044.0,4660.0 2063.0,4654.0 C 2075.0,4650.0 2088.0,4643.0 2091.0,4638.0 C 2095.0,4631.0 2105.0,4632.0 2118.0,4639.0 C 2139.0,4650.0 2148.0,4678.0 2152.0,4755.0 L 2155.0,4795.0 L 2175.0,4762.0 C 2191.0,4735.0 2200.0,4729.0 2223.0,4733.0 C 2242.0,4735.0 2250.0,4732.0 2250.0,4722.0 C 2250.0,4697.0 2288.0,4644.0 2315.0,4632.0 C 2343.0,4619.0 2345.0,4624.0 2325.0,4660.0 C 2317.0,4674.0 2311.0,4691.0 2310.0,4698.0 C 2310.0,4714.0 2340.0,4713.0 2363.0,4695.0 C 2385.0,4679.0 2430.0,4694.0 2430.0,4716.0 C 2430.0,4745.0 2336.0,4838.0 2290.0,4855.0 C 2265.0,4863.0 2220.0,4886.0 2190.0,4904.0 C 2142.0,4932.0 2134.0,4942.0 2122.0,4983.0 C 2109.0,5029.0 2108.0,5030.0 2070.0,5030.0 C 2037.0,5030.0 2018.0,5040.0 1959.0,5085.0 C 1920.0,5115.0 1881.0,5140.0 1871.0,5140.0 C 1862.0,5140.0 1842.0,5147.0 1826.0,5155.0 C 1811.0,5163.0 1786.0,5170.0 1771.0,5170.0 C 1756.0,5170.0 1735.0,5177.0 1722.0,5185.0 C 1706.0,5197.0 1687.0,5199.0 1648.0,5195.0 C 1560.0,5185.0 1555.0,5182.0 1542.0,5148.0 C 1535.0,5130.0 1522.0,5104.0 1512.0,5092.0 L 1494.0,5068.0 L 1463.0,5094.0 C 1429.0,5123.0 1392.0,5128.0 1384.0,5105.0 C 1380.0,5097.0 1366.0,5090.0 1350.0,5090.0 C 1328.0,5090.0 1311.0,5104.0 1265.0,5163.0 C 1233.0,5202.0 1204.0,5239.0 1200.0,5243.0 C 1196.0,5248.0 1170.0,5221.0 1142.0,5183.0" fill="pink"/>
	<path d="M 100.0,4548.0 C 86.0,4542.0 59.0,4535.0 40.0,4531.0 C 2.0,4524.0 -8.0,4505.0 12.0,4477.0 C 24.0,4462.0 32.0,4461.0 85.0,4471.0 C 118.0,4477.0 148.0,4485.0 153.0,4489.0 C 164.0,4500.0 150.0,4560.0 136.0,4559.0 C 130.0,4559.0 114.0,4554.0 100.0,4548.0" fill="pink"/>
	<path d="M 1090.0,3892.0 C 1090.0,3882.0 1083.0,3864.0 1074.0,3851.0 C 1059.0,3829.0 1059.0,3827.0 1078.0,3808.0 L 1098.0,3787.0 L 1134.0,3809.0 C 1154.0,3822.0 1170.0,3833.0 1170.0,3835.0 C 1170.0,3837.0 1161.0,3855.0 1149.0,3874.0 C 1127.0,3912.0 1090.0,3923.0 1090.0,3892.0" fill="pink"/>
	<path d="M 3474.0,3841.0 C 3451.0,3827.0 3441.0,3811.0 3433.0,3775.0 C 3419.0,3714.0 3426.0,3690.0 3457.0,3690.0 C 3476.0,3690.0 3485.0,3699.0 3502.0,3737.0 C 3513.0,3762.0 3525.0,3800.0 3527.0,3822.0 C 3533.0,3866.0 3522.0,3870.0 3474.0,3841.0" fill="pink"/>
	<path d="M 2253.0,2868.0 C 2247.0,2861.0 2245.0,2838.0 2247.0,2818.0 C 2251.0,2790.0 2257.0,2780.0 2270.0,2780.0 C 2280.0,2780.0 2295.0,2777.0 2304.0,2774.0 C 2317.0,2769.0 2320.0,2776.0 2320.0,2808.0 C 2320.0,2830.0 2317.0,2855.0 2314.0,2864.0 C 2307.0,2883.0 2267.0,2885.0 2253.0,2868.0" fill="pink"/>
</svg>
