<?xml version="1.0" ?>
<svg xmlns="http://www.w3.org/2000/svg" xmlns:ev="http://www.w3.org/2001/xml-events" xmlns:xlink="http://www.w3.org/1999/xlink" baseProfile="full" height="530px" version="1.1" viewBox="-1021.8138732477922 -298.11626182559235 12289.260905072897 10846.232523651184" width="600px">
	<defs/>
	<path d="M 9120.0,9604.0 C 8176.0,9566.0 5566.0,9511.0 5170.0,9520.0 C 5041.0,9523.0 4934.0,9525.0 4932.0,9524.0 C 4930.0,9523.0 4914.0,9464.0 4897.0,9393.0 C 4866.0,9269.0 4862.0,9259.0 4784.0,9140.0 C 4739.0,9071.0 4685.0,8981.0 4665.0,8940.0 C 4632.0,8875.0 4627.0,8855.0 4625.0,8787.0 C 4624.0,8719.0 4619.0,8700.0 4583.0,8627.0 C 4552.0,8566.0 4540.0,8528.0 4535.0,8476.0 C 4530.0,8423.0 4521.0,8396.0 4495.0,8356.0 C 4452.0,8289.0 4318.0,8168.0 4205.0,8095.0 C 4156.0,8063.0 4085.0,8016.0 4047.0,7991.0 C 3906.0,7895.0 3891.0,7889.0 3822.0,7893.0 L 3759.0,7898.0 L 3728.0,7851.0 C 3711.0,7826.0 3674.0,7781.0 3646.0,7753.0 C 3600.0,7705.0 3591.0,7700.0 3550.0,7699.0 C 3525.0,7698.0 3494.0,7695.0 3480.0,7691.0 C 3431.0,7678.0 3380.0,7547.0 3380.0,7436.0 C 3380.0,7388.0 3372.0,7359.0 3335.0,7275.0 C 3307.0,7214.0 3271.0,7153.0 3245.0,7123.0 C 3196.0,7067.0 3166.0,6998.0 3120.0,6830.0 C 3102.0,6767.0 3075.0,6695.0 3059.0,6670.0 C 3043.0,6644.0 3012.0,6576.0 2990.0,6517.0 L 2950.0,6410.0 L 2941.0,6137.0 C 2932.0,5866.0 2932.0,5865.0 2900.0,5775.0 C 2882.0,5726.0 2862.0,5674.0 2855.0,5660.0 C 2839.0,5630.0 2796.0,5589.0 2755.0,5566.0 C 2737.0,5555.0 2717.0,5529.0 2703.0,5499.0 C 2683.0,5454.0 2675.0,5447.0 2609.0,5415.0 C 2523.0,5374.0 2496.0,5350.0 2465.0,5290.0 C 2424.0,5209.0 2352.0,5122.0 2287.0,5073.0 C 2150.0,4971.0 2033.0,4869.0 1999.0,4823.0 C 1970.0,4784.0 1943.0,4765.0 1859.0,4722.0 C 1726.0,4653.0 1615.0,4550.0 1575.0,4456.0 C 1561.0,4422.0 1541.0,4378.0 1530.0,4358.0 C 1519.0,4338.0 1510.0,4311.0 1510.0,4298.0 C 1510.0,4279.0 1516.0,4284.0 1546.0,4325.0 C 1566.0,4353.0 1595.0,4402.0 1612.0,4435.0 C 1629.0,4468.0 1669.0,4521.0 1703.0,4554.0 C 1759.0,4609.0 1764.0,4611.0 1777.0,4594.0 C 1784.0,4584.0 1790.0,4552.0 1790.0,4522.0 C 1790.0,4461.0 1765.0,4417.0 1675.0,4319.0 C 1583.0,4219.0 1510.0,4106.0 1498.0,4044.0 C 1489.0,3998.0 1476.0,3976.0 1433.0,3926.0 C 1404.0,3893.0 1377.0,3854.0 1373.0,3840.0 C 1370.0,3826.0 1354.0,3799.0 1339.0,3779.0 C 1318.0,3752.0 1310.0,3731.0 1310.0,3701.0 C 1310.0,3665.0 1304.0,3654.0 1270.0,3621.0 C 1224.0,3578.0 1220.0,3563.0 1253.0,3558.0 C 1269.0,3556.0 1277.0,3545.0 1284.0,3518.0 C 1295.0,3472.0 1286.0,3451.0 1220.0,3381.0 C 1183.0,3340.0 1167.0,3330.0 1142.0,3330.0 C 1111.0,3330.0 1110.0,3328.0 1110.0,3289.0 C 1110.0,3261.0 1102.0,3238.0 1084.0,3214.0 C 1061.0,3184.0 1056.0,3163.0 1043.0,3044.0 C 1031.0,2929.0 1025.0,2902.0 1003.0,2869.0 C 989.0,2848.0 972.0,2830.0 964.0,2830.0 C 942.0,2830.0 920.0,2800.0 920.0,2769.0 C 920.0,2735.0 862.0,2608.0 831.0,2572.0 C 803.0,2540.0 717.0,2516.0 657.0,2524.0 C 607.0,2531.0 560.0,2514.0 560.0,2489.0 C 560.0,2483.0 543.0,2457.0 522.0,2431.0 C 465.0,2364.0 403.0,2250.0 379.0,2175.0 C 368.0,2139.0 339.0,2080.0 313.0,2044.0 C 269.0,1981.0 267.0,1976.0 260.0,1882.0 C 255.0,1829.0 247.0,1772.0 241.0,1755.0 C 236.0,1739.0 226.0,1691.0 219.0,1650.0 C 213.0,1609.0 197.0,1546.0 184.0,1511.0 C 170.0,1475.0 153.0,1401.0 145.0,1345.0 C 137.0,1289.0 120.0,1192.0 106.0,1129.0 C 92.0,1066.0 72.0,966.0 60.0,905.0 C 48.0,845.0 30.0,766.0 19.0,730.0 C -4.0,655.0 5.0,610.0 45.0,610.0 C 69.0,610.0 80.0,645.0 100.0,787.0 C 115.0,898.0 156.0,1059.0 184.0,1120.0 C 197.0,1150.0 214.0,1196.0 221.0,1223.0 L 232.0,1270.0 L 451.0,1270.0 C 571.0,1270.0 1125.0,1252.0 1682.0,1231.0 C 2663.0,1193.0 2734.0,1191.0 3918.0,1185.0 C 4855.0,1180.0 5140.0,1182.0 5140.0,1191.0 C 5140.0,1197.0 5122.0,1430.0 5101.0,1709.0 C 5079.0,1987.0 5056.0,2339.0 5050.0,2490.0 L 5038.0,2765.0 L 4993.0,2908.0 L 4948.0,3050.0 L 4986.0,3153.0 C 5010.0,3220.0 5044.0,3284.0 5082.0,3340.0 L 5141.0,3425.0 L 5398.0,3599.0 L 5655.0,3772.0 L 5790.0,3792.0 C 5936.0,3813.0 5950.0,3819.0 6130.0,3924.0 C 6218.0,3975.0 6245.0,3985.0 6295.0,3990.0 L 6355.0,3995.0 L 6352.0,4190.0 C 6334.0,5663.0 6318.0,7342.0 6322.0,7345.0 C 6325.0,7348.0 6700.0,7357.0 7156.0,7364.0 C 7852.0,7376.0 10227.0,7447.0 10239.0,7456.0 C 10242.0,7459.0 10158.0,9298.0 10143.0,9538.0 L 10137.0,9640.0 L 10041.0,9639.0 C 9988.0,9638.0 9574.0,9622.0 9120.0,9604.0" fill="pink"/>
</svg>
