<?xml version="1.0" ?>
<svg xmlns="http://www.w3.org/2000/svg" xmlns:ev="http://www.w3.org/2001/xml-events" xmlns:xlink="http://www.w3.org/1999/xlink" baseProfile="full" height="504px" version="1.1" viewBox="-1031.1507818866532 -41.721552044583746 12298.60785120269 10325.457093097857" width="600px">
	<defs/>
	<path d="M 2660.0,9406.0 C 2624.0,9399.0 2569.0,9380.0 2537.0,9364.0 C 2484.0,9338.0 2475.0,9328.0 2434.0,9255.0 C 2395.0,9186.0 2380.0,9169.0 2334.0,9141.0 C 2276.0,9106.0 2266.0,9091.0 2255.0,9016.0 C 2250.0,8986.0 2241.0,8966.0 2229.0,8960.0 C 2203.0,8945.0 2157.0,8948.0 2133.0,8965.0 C 2114.0,8978.0 2107.0,8978.0 2066.0,8963.0 L 2020.0,8946.0 L 2020.0,8883.0 L 2020.0,8820.0 L 1985.0,8820.0 L 1950.0,8820.0 L 1950.0,8875.0 C 1950.0,8905.0 1947.0,8930.0 1943.0,8930.0 C 1938.0,8930.0 1911.0,8920.0 1882.0,8908.0 C 1830.0,8885.0 1829.0,8884.0 1832.0,8845.0 C 1835.0,8806.0 1834.0,8805.0 1770.0,8769.0 L 1705.0,8732.0 L 1686.0,8769.0 C 1676.0,8789.0 1666.0,8807.0 1664.0,8809.0 C 1661.0,8812.0 1559.0,8781.0 1551.0,8774.0 C 1549.0,8772.0 1544.0,8734.0 1539.0,8689.0 C 1535.0,8645.0 1529.0,8606.0 1527.0,8603.0 C 1524.0,8601.0 1469.0,8589.0 1405.0,8577.0 L 1288.0,8555.0 L 1229.0,8488.0 L 1171.0,8420.0 L 1176.0,8307.0 L 1182.0,8195.0 L 1132.0,8123.0 C 1104.0,8083.0 1079.0,8037.0 1075.0,8021.0 C 1071.0,8004.0 1066.0,7990.0 1063.0,7990.0 C 1060.0,7990.0 1034.0,8004.0 1007.0,8021.0 L 956.0,8052.0 L 836.0,8017.0 L 716.0,7982.0 L 685.0,8006.0 C 663.0,8023.0 634.0,8032.0 591.0,8036.0 L 528.0,8043.0 L 535.0,7974.0 C 541.0,7912.0 539.0,7902.0 518.0,7871.0 L 494.0,7837.0 L 539.0,7703.0 C 583.0,7576.0 584.0,7568.0 567.0,7555.0 C 555.0,7546.0 547.0,7523.0 543.0,7486.0 C 537.0,7430.0 537.0,7430.0 482.0,7399.0 L 428.0,7367.0 L 436.0,7316.0 C 441.0,7288.0 443.0,7223.0 442.0,7173.0 C 439.0,7082.0 439.0,7080.0 471.0,7041.0 C 489.0,7018.0 515.0,6998.0 531.0,6995.0 C 547.0,6991.0 562.0,6985.0 564.0,6981.0 C 566.0,6978.0 560.0,6945.0 550.0,6910.0 C 535.0,6854.0 534.0,6841.0 546.0,6819.0 C 553.0,6804.0 564.0,6773.0 569.0,6749.0 C 579.0,6706.0 578.0,6704.0 540.0,6665.0 L 500.0,6625.0 L 452.0,6321.0 C 405.0,6029.0 402.0,6016.0 376.0,5995.0 C 355.0,5978.0 342.0,5949.0 314.0,5849.0 C 246.0,5605.0 221.0,5491.0 180.0,5230.0 L 138.0,4965.0 L 96.0,4930.0 C 74.0,4911.0 42.0,4884.0 27.0,4870.0 L -2.0,4844.0 L 34.0,4685.0 C 54.0,4597.0 97.0,4368.0 130.0,4175.0 C 169.0,3949.0 199.0,3801.0 216.0,3758.0 C 235.0,3709.0 241.0,3676.0 239.0,3628.0 C 237.0,3562.0 252.0,3517.0 293.0,3473.0 C 322.0,3441.0 341.0,3444.0 444.0,3494.0 L 535.0,3539.0 L 655.0,3541.0 C 795.0,3543.0 837.0,3533.0 908.0,3480.0 L 958.0,3442.0 L 1011.0,3474.0 C 1054.0,3500.0 1066.0,3512.0 1068.0,3536.0 C 1078.0,3636.0 1122.0,3718.0 1183.0,3753.0 C 1224.0,3775.0 1368.0,3777.0 1410.0,3755.0 C 1441.0,3739.0 1503.0,3639.0 1516.0,3585.0 C 1525.0,3546.0 1556.0,3513.0 1590.0,3505.0 C 1613.0,3500.0 1622.0,3489.0 1636.0,3450.0 C 1647.0,3418.0 1662.0,3398.0 1678.0,3390.0 C 1692.0,3384.0 1703.0,3381.0 1704.0,3382.0 C 1705.0,3384.0 1798.0,3635.0 1909.0,3940.0 C 2021.0,4245.0 2118.0,4498.0 2124.0,4502.0 C 2160.0,4526.0 2181.0,4509.0 2281.0,4376.0 C 2315.0,4331.0 2356.0,4287.0 2374.0,4278.0 C 2435.0,4246.0 2512.0,4228.0 2563.0,4234.0 C 2589.0,4238.0 2626.0,4238.0 2644.0,4234.0 C 2676.0,4229.0 2679.0,4224.0 2696.0,4164.0 C 2714.0,4101.0 2720.0,4095.0 2863.0,3955.0 L 3010.0,3810.0 L 3070.0,3810.0 C 3121.0,3810.0 3147.0,3818.0 3260.0,3869.0 C 3377.0,3923.0 3396.0,3928.0 3438.0,3924.0 C 3478.0,3919.0 3497.0,3924.0 3570.0,3958.0 C 3637.0,3989.0 3668.0,4011.0 3718.0,4063.0 C 3756.0,4103.0 3780.0,4137.0 3781.0,4152.0 C 3781.0,4164.0 3786.0,4190.0 3793.0,4209.0 C 3803.0,4238.0 3813.0,4245.0 3865.0,4261.0 C 3938.0,4285.0 3965.0,4286.0 4012.0,4271.0 C 4051.0,4258.0 4092.0,4203.0 4106.0,4144.0 C 4110.0,4128.0 4124.0,4102.0 4137.0,4087.0 C 4163.0,4055.0 4167.0,4008.0 4145.0,3990.0 C 4135.0,3982.0 4130.0,3960.0 4130.0,3929.0 C 4130.0,3890.0 4134.0,3880.0 4150.0,3875.0 C 4178.0,3866.0 4187.0,3874.0 4194.0,3914.0 C 4202.0,3953.0 4250.0,3990.0 4293.0,3990.0 C 4326.0,3990.0 4334.0,4004.0 4331.0,4053.0 C 4329.0,4088.0 4331.0,4091.0 4352.0,4088.0 C 4369.0,4086.0 4376.0,4077.0 4378.0,4058.0 C 4382.0,4024.0 4399.0,4019.0 4500.0,4017.0 C 4598.0,4015.0 4614.0,4026.0 4576.0,4070.0 C 4562.0,4087.0 4550.0,4105.0 4550.0,4108.0 C 4550.0,4140.0 4576.0,4194.0 4602.0,4215.0 C 4640.0,4247.0 4676.0,4244.0 4722.0,4205.0 C 4738.0,4191.0 4761.0,4180.0 4773.0,4180.0 C 4785.0,4180.0 4809.0,4171.0 4827.0,4161.0 C 4844.0,4150.0 4877.0,4136.0 4899.0,4130.0 C 4926.0,4123.0 4948.0,4108.0 4966.0,4085.0 C 4985.0,4060.0 5000.0,4050.0 5020.0,4050.0 C 5035.0,4050.0 5053.0,4043.0 5061.0,4034.0 C 5084.0,4006.0 5164.0,3972.0 5193.0,3977.0 C 5208.0,3980.0 5220.0,3986.0 5220.0,3991.0 C 5220.0,3995.0 5240.0,4013.0 5265.0,4030.0 C 5303.0,4056.0 5310.0,4066.0 5310.0,4094.0 C 5310.0,4133.0 5341.0,4170.0 5375.0,4170.0 C 5388.0,4170.0 5405.0,4173.0 5414.0,4176.0 C 5425.0,4180.0 5443.0,4154.0 5486.0,4068.0 C 5517.0,4006.0 5543.0,3954.0 5544.0,3953.0 C 5545.0,3951.0 5560.0,3956.0 5577.0,3962.0 C 5606.0,3973.0 5638.0,3962.0 6050.0,3795.0 L 6492.0,3616.0 L 6839.0,3193.0 C 7182.0,2774.0 7186.0,2770.0 7247.0,2743.0 C 7307.0,2717.0 7310.0,2714.0 7364.0,2620.0 C 7442.0,2485.0 7556.0,2376.0 7770.0,2232.0 L 7935.0,2121.0 L 8175.0,1857.0 C 8360.0,1654.0 8428.0,1586.0 8472.0,1560.0 C 8513.0,1536.0 8558.0,1493.0 8629.0,1410.0 C 8723.0,1302.0 8734.0,1292.0 8800.0,1265.0 C 8861.0,1239.0 8890.0,1217.0 9006.0,1107.0 L 9140.0,978.0 L 9188.0,1018.0 L 9236.0,1059.0 L 9320.0,1013.0 C 9366.0,988.0 9444.0,935.0 9494.0,895.0 L 9583.0,823.0 L 9664.0,858.0 C 9709.0,877.0 9751.0,897.0 9757.0,902.0 C 9780.0,920.0 9783.0,976.0 9764.0,1009.0 L 9746.0,1039.0 L 9801.0,1097.0 C 9831.0,1129.0 9864.0,1169.0 9875.0,1186.0 C 9890.0,1212.0 9901.0,1219.0 9936.0,1223.0 C 9959.0,1225.0 9989.0,1236.0 10003.0,1246.0 C 10016.0,1257.0 10074.0,1285.0 10131.0,1309.0 C 10188.0,1334.0 10237.0,1354.0 10238.0,1356.0 C 10240.0,1357.0 10232.0,1372.0 10220.0,1388.0 C 10204.0,1409.0 10194.0,1447.0 10183.0,1534.0 C 10169.0,1637.0 10164.0,1653.0 10146.0,1660.0 C 10134.0,1664.0 10103.0,1686.0 10077.0,1708.0 C 10032.0,1744.0 10026.0,1747.0 9999.0,1736.0 C 9982.0,1730.0 9974.0,1724.0 9980.0,1722.0 C 9985.0,1720.0 9990.0,1706.0 9990.0,1691.0 C 9990.0,1676.0 9995.0,1659.0 10002.0,1652.0 C 10017.0,1637.0 9986.0,1611.0 9954.0,1610.0 C 9942.0,1610.0 9927.0,1603.0 9920.0,1595.0 C 9900.0,1571.0 9866.0,1577.0 9835.0,1610.0 C 9819.0,1627.0 9800.0,1640.0 9793.0,1640.0 C 9786.0,1640.0 9780.0,1644.0 9780.0,1650.0 C 9780.0,1667.0 9739.0,1683.0 9727.0,1671.0 C 9712.0,1656.0 9688.0,1657.0 9666.0,1673.0 C 9653.0,1683.0 9643.0,1717.0 9630.0,1800.0 C 9606.0,1945.0 9600.0,1956.0 9541.0,1965.0 C 9479.0,1974.0 9466.0,1983.0 9431.0,2034.0 C 9414.0,2058.0 9378.0,2094.0 9350.0,2114.0 C 9317.0,2137.0 9300.0,2157.0 9300.0,2171.0 C 9300.0,2184.0 9292.0,2194.0 9279.0,2197.0 C 9263.0,2201.0 9260.0,2208.0 9264.0,2226.0 C 9275.0,2268.0 9235.0,2256.0 9209.0,2210.0 C 9192.0,2181.0 9182.0,2171.0 9170.0,2176.0 C 9162.0,2180.0 9125.0,2185.0 9087.0,2188.0 C 8999.0,2194.0 8981.0,2215.0 8975.0,2326.0 C 8972.0,2387.0 8966.0,2408.0 8947.0,2434.0 C 8933.0,2451.0 8917.0,2490.0 8910.0,2521.0 C 8900.0,2565.0 8891.0,2580.0 8865.0,2597.0 C 8837.0,2616.0 8832.0,2625.0 8827.0,2676.0 C 8823.0,2713.0 8814.0,2741.0 8801.0,2754.0 C 8790.0,2766.0 8758.0,2801.0 8728.0,2833.0 C 8666.0,2902.0 8634.0,2921.0 8603.0,2909.0 C 8569.0,2896.0 8575.0,2883.0 8619.0,2876.0 C 8679.0,2867.0 8711.0,2828.0 8669.0,2817.0 C 8648.0,2811.0 8649.0,2809.0 8684.0,2769.0 C 8704.0,2745.0 8720.0,2722.0 8720.0,2717.0 C 8720.0,2701.0 8646.0,2772.0 8629.0,2804.0 C 8603.0,2852.0 8573.0,2874.0 8536.0,2873.0 C 8506.0,2872.0 8499.0,2878.0 8456.0,2945.0 C 8401.0,3031.0 8295.0,3136.0 8254.0,3145.0 C 8183.0,3161.0 8105.0,3198.0 8060.0,3238.0 C 8021.0,3272.0 7999.0,3283.0 7955.0,3290.0 C 7871.0,3304.0 7876.0,3299.0 7766.0,3461.0 C 7741.0,3498.0 7690.0,3554.0 7653.0,3585.0 C 7607.0,3624.0 7576.0,3660.0 7556.0,3699.0 C 7532.0,3746.0 7357.0,3962.0 7226.0,4105.0 C 7206.0,4127.0 7175.0,4170.0 7158.0,4200.0 C 7139.0,4230.0 7105.0,4268.0 7080.0,4286.0 C 7055.0,4304.0 7014.0,4337.0 6989.0,4359.0 C 6957.0,4387.0 6934.0,4400.0 6913.0,4400.0 C 6897.0,4400.0 6875.0,4407.0 6864.0,4415.0 C 6853.0,4424.0 6822.0,4429.0 6787.0,4430.0 C 6736.0,4430.0 6728.0,4433.0 6718.0,4455.0 C 6697.0,4502.0 6636.0,4515.0 6444.0,4514.0 L 6273.0,4512.0 L 6256.0,4544.0 C 6243.0,4568.0 6240.0,4595.0 6242.0,4650.0 L 6245.0,4723.0 L 6202.0,4757.0 C 6155.0,4793.0 6111.0,4800.0 6090.0,4775.0 C 6083.0,4767.0 6074.0,4760.0 6069.0,4760.0 C 6055.0,4760.0 6048.0,4800.0 6059.0,4814.0 C 6082.0,4841.0 6061.0,4860.0 6009.0,4860.0 C 5962.0,4860.0 5959.0,4862.0 5953.0,4890.0 C 5946.0,4928.0 5921.0,4929.0 5896.0,4891.0 C 5885.0,4876.0 5868.0,4857.0 5857.0,4851.0 C 5841.0,4840.0 5834.0,4842.0 5814.0,4861.0 C 5801.0,4873.0 5790.0,4892.0 5790.0,4902.0 C 5790.0,4923.0 5789.0,4923.0 5756.0,4909.0 C 5740.0,4902.0 5730.0,4888.0 5728.0,4871.0 C 5724.0,4838.0 5698.0,4833.0 5685.0,4862.0 C 5671.0,4893.0 5657.0,4891.0 5647.0,4855.0 C 5642.0,4839.0 5634.0,4818.0 5630.0,4810.0 C 5619.0,4787.0 5570.0,4767.0 5527.0,4768.0 C 5474.0,4770.0 5356.0,4829.0 5352.0,4855.0 C 5342.0,4921.0 5318.0,4960.0 5270.0,4986.0 C 5221.0,5013.0 5200.0,5042.0 5200.0,5085.0 C 5200.0,5099.0 5192.0,5114.0 5180.0,5120.0 C 5169.0,5126.0 5160.0,5136.0 5160.0,5142.0 C 5160.0,5149.0 5150.0,5164.0 5138.0,5177.0 C 5121.0,5195.0 5119.0,5203.0 5128.0,5212.0 C 5145.0,5229.0 5143.0,5257.0 5125.0,5268.0 C 5111.0,5275.0 5113.0,5281.0 5135.0,5314.0 C 5197.0,5406.0 5141.0,5485.0 4937.0,5593.0 C 4881.0,5623.0 4871.0,5626.0 4839.0,5616.0 C 4819.0,5610.0 4788.0,5588.0 4770.0,5567.0 C 4740.0,5532.0 4736.0,5521.0 4732.0,5451.0 C 4730.0,5409.0 4733.0,5348.0 4740.0,5316.0 C 4750.0,5269.0 4755.0,5260.0 4768.0,5265.0 C 4812.0,5283.0 4814.0,5279.0 4829.0,5160.0 C 4843.0,5050.0 4840.0,4991.0 4821.0,4961.0 C 4813.0,4949.0 4805.0,4949.0 4768.0,4964.0 C 4745.0,4973.0 4712.0,4991.0 4696.0,5004.0 C 4669.0,5026.0 4667.0,5035.0 4659.0,5127.0 C 4652.0,5208.0 4644.0,5240.0 4616.0,5301.0 C 4597.0,5342.0 4573.0,5387.0 4562.0,5400.0 C 4552.0,5414.0 4533.0,5459.0 4520.0,5501.0 C 4493.0,5594.0 4439.0,5664.0 4381.0,5681.0 C 4348.0,5691.0 4334.0,5689.0 4286.0,5671.0 L 4230.0,5650.0 L 4215.0,5680.0 C 4206.0,5697.0 4200.0,5736.0 4200.0,5772.0 C 4200.0,5807.0 4194.0,5864.0 4186.0,5900.0 C 4178.0,5936.0 4169.0,5990.0 4165.0,6020.0 C 4155.0,6095.0 4138.0,6124.0 4088.0,6152.0 C 4052.0,6172.0 4044.0,6183.0 4025.0,6240.0 C 4012.0,6276.0 3986.0,6341.0 3965.0,6385.0 C 3945.0,6429.0 3900.0,6546.0 3865.0,6645.0 C 3802.0,6822.0 3768.0,6973.0 3696.0,7385.0 C 3666.0,7554.0 3596.0,7779.0 3508.0,7986.0 C 3417.0,8198.0 3388.0,8279.0 3370.0,8375.0 C 3362.0,8417.0 3349.0,8444.0 3329.0,8465.0 C 3310.0,8485.0 3297.0,8513.0 3290.0,8548.0 C 3285.0,8578.0 3258.0,8640.0 3229.0,8693.0 C 3200.0,8744.0 3158.0,8820.0 3135.0,8863.0 C 3112.0,8906.0 3070.0,8967.0 3042.0,8999.0 C 3014.0,9031.0 2972.0,9090.0 2948.0,9131.0 C 2902.0,9208.0 2742.0,9421.0 2731.0,9419.0 C 2728.0,9418.0 2696.0,9412.0 2660.0,9406.0" fill="pink"/>
	<path d="M 4991.0,6690.0 C 4982.0,6662.0 4983.0,6654.0 4996.0,6639.0 C 5013.0,6620.0 5009.0,6617.0 4945.0,6608.0 C 4917.0,6604.0 4913.0,6559.0 4939.0,6536.0 C 4955.0,6521.0 4961.0,6521.0 4980.0,6532.0 C 4999.0,6544.0 5004.0,6542.0 5023.0,6518.0 C 5044.0,6492.0 5063.0,6485.0 5104.0,6488.0 C 5119.0,6490.0 5121.0,6495.0 5115.0,6518.0 C 5112.0,6533.0 5102.0,6548.0 5095.0,6553.0 C 5066.0,6569.0 5049.0,6593.0 5058.0,6602.0 C 5070.0,6614.0 5134.0,6607.0 5177.0,6589.0 C 5206.0,6577.0 5212.0,6578.0 5227.0,6592.0 C 5252.0,6618.0 5228.0,6640.0 5175.0,6640.0 C 5140.0,6640.0 5131.0,6644.0 5127.0,6661.0 C 5122.0,6679.0 5117.0,6681.0 5076.0,6675.0 C 5050.0,6671.0 5030.0,6672.0 5030.0,6677.0 C 5030.0,6682.0 5024.0,6694.0 5017.0,6705.0 C 5004.0,6722.0 5002.0,6721.0 4991.0,6690.0" fill="pink"/>
	<path d="M 4097.0,6673.0 C 4093.0,6670.0 4090.0,6652.0 4090.0,6633.0 C 4090.0,6604.0 4093.0,6600.0 4115.0,6600.0 C 4150.0,6600.0 4155.0,6581.0 4136.0,6518.0 C 4128.0,6489.0 4123.0,6464.0 4125.0,6462.0 C 4127.0,6459.0 4141.0,6465.0 4155.0,6474.0 C 4186.0,6495.0 4189.0,6553.0 4161.0,6608.0 C 4140.0,6650.0 4107.0,6683.0 4097.0,6673.0" fill="pink"/>
	<path d="M 4933.0,6323.0 C 4909.0,6321.0 4890.0,6315.0 4890.0,6310.0 C 4890.0,6297.0 4936.0,6286.0 4950.0,6295.0 C 4963.0,6303.0 5020.0,6253.0 5020.0,6233.0 C 5020.0,6226.0 5009.0,6220.0 4995.0,6220.0 C 4973.0,6220.0 4970.0,6216.0 4970.0,6186.0 C 4970.0,6161.0 4975.0,6150.0 4988.0,6147.0 C 5002.0,6144.0 5001.0,6141.0 4980.0,6132.0 C 4958.0,6123.0 4951.0,6126.0 4925.0,6153.0 L 4895.0,6184.0 L 4889.0,6130.0 C 4886.0,6100.0 4885.0,6072.0 4887.0,6068.0 C 4893.0,6056.0 4926.0,6058.0 4955.0,6072.0 C 4980.0,6083.0 4985.0,6080.0 5042.0,6023.0 C 5089.0,5976.0 5101.0,5958.0 5096.0,5942.0 C 5087.0,5915.0 5043.0,5904.0 5020.0,5925.0 C 5011.0,5933.0 4996.0,5938.0 4988.0,5935.0 C 4978.0,5931.0 4970.0,5941.0 4960.0,5969.0 C 4953.0,5992.0 4936.0,6017.0 4923.0,6025.0 C 4882.0,6052.0 4863.0,6019.0 4900.0,5985.0 C 4911.0,5975.0 4920.0,5957.0 4920.0,5945.0 C 4920.0,5932.0 4927.0,5920.0 4935.0,5916.0 C 4943.0,5913.0 4950.0,5903.0 4950.0,5893.0 C 4950.0,5858.0 4967.0,5846.0 5009.0,5848.0 C 5032.0,5850.0 5059.0,5844.0 5073.0,5835.0 C 5092.0,5823.0 5103.0,5822.0 5131.0,5831.0 C 5150.0,5838.0 5169.0,5847.0 5175.0,5851.0 C 5192.0,5867.0 5216.0,5860.0 5245.0,5830.0 C 5261.0,5814.0 5278.0,5800.0 5283.0,5800.0 C 5288.0,5800.0 5289.0,5814.0 5285.0,5830.0 L 5278.0,5860.0 L 5342.0,5860.0 C 5388.0,5860.0 5413.0,5855.0 5435.0,5840.0 C 5474.0,5814.0 5507.0,5814.0 5515.0,5840.0 C 5522.0,5861.0 5550.0,5866.0 5578.0,5851.0 C 5588.0,5846.0 5607.0,5844.0 5622.0,5847.0 C 5645.0,5851.0 5648.0,5855.0 5640.0,5870.0 C 5634.0,5880.0 5630.0,5904.0 5630.0,5924.0 C 5630.0,5970.0 5612.0,5980.0 5586.0,5948.0 C 5564.0,5921.0 5520.0,5894.0 5520.0,5907.0 C 5520.0,5911.0 5532.0,5924.0 5547.0,5936.0 L 5574.0,5957.0 L 5546.0,5975.0 C 5523.0,5991.0 5517.0,5991.0 5509.0,5979.0 C 5502.0,5968.0 5500.0,5970.0 5500.0,5986.0 C 5500.0,6020.0 5468.0,6039.0 5402.0,6046.0 C 5343.0,6053.0 5340.0,6052.0 5329.0,6027.0 C 5312.0,5989.0 5331.0,5966.0 5366.0,5982.0 C 5384.0,5991.0 5394.0,5990.0 5402.0,5982.0 C 5411.0,5973.0 5409.0,5970.0 5394.0,5970.0 C 5384.0,5970.0 5370.0,5960.0 5365.0,5948.0 C 5354.0,5922.0 5312.0,5914.0 5259.0,5927.0 C 5227.0,5936.0 5225.0,5940.0 5205.0,6021.0 C 5180.0,6118.0 5169.0,6143.0 5137.0,6165.0 C 5120.0,6177.0 5115.0,6190.0 5115.0,6223.0 C 5115.0,6264.0 5114.0,6265.0 5068.0,6281.0 C 5042.0,6289.0 5012.0,6304.0 5002.0,6313.0 C 4992.0,6322.0 4982.0,6329.0 4979.0,6328.0 C 4977.0,6327.0 4956.0,6325.0 4933.0,6323.0" fill="pink"/>
	<path d="M 6226.0,5821.0 C 6207.0,5802.0 6202.0,5790.0 6210.0,5785.0 C 6216.0,5781.0 6222.0,5780.0 6224.0,5781.0 C 6267.0,5846.0 6268.0,5865.0 6226.0,5821.0" fill="pink"/>
	<path d="M 5411.0,5291.0 C 5394.0,5280.0 5409.0,5250.0 5431.0,5250.0 C 5443.0,5250.0 5450.0,5257.0 5450.0,5269.0 C 5450.0,5290.0 5429.0,5302.0 5411.0,5291.0" fill="pink"/>
	<path d="M 5433.0,5198.0 C 5391.0,5178.0 5409.0,5090.0 5455.0,5090.0 C 5477.0,5090.0 5479.0,5094.0 5477.0,5131.0 C 5476.0,5160.0 5481.0,5176.0 5493.0,5185.0 C 5526.0,5209.0 5477.0,5219.0 5433.0,5198.0" fill="pink"/>
	<path d="M 5520.0,4971.0 C 5520.0,4960.0 5516.0,4948.0 5510.0,4945.0 C 5495.0,4936.0 5498.0,4884.0 5515.0,4870.0 C 5535.0,4853.0 5560.0,4861.0 5584.0,4893.0 C 5604.0,4920.0 5604.0,4921.0 5586.0,4955.0 C 5564.0,4995.0 5520.0,5005.0 5520.0,4971.0" fill="pink"/>
</svg>
