<?xml version="1.0" ?>
<svg xmlns="http://www.w3.org/2000/svg" xmlns:ev="http://www.w3.org/2001/xml-events" xmlns:xlink="http://www.w3.org/1999/xlink" baseProfile="full" height="446px" version="1.1" viewBox="-1029.12 557.4523573536361 12298.24 9124.069341685159" width="600px">
	<defs/>
	<path d="M 1157.0,8887.0 C 1147.0,8864.0 1132.0,8849.0 1111.0,8842.0 C 1078.0,8830.0 1073.0,8834.0 1061.0,8875.0 L 1055.0,8899.0 L 1011.0,8869.0 C 986.0,8853.0 959.0,8841.0 951.0,8842.0 C 928.0,8846.0 910.0,8832.0 910.0,8810.0 C 910.0,8798.0 894.0,8780.0 870.0,8765.0 C 848.0,8751.0 823.0,8729.0 815.0,8716.0 C 804.0,8700.0 785.0,8689.0 760.0,8685.0 C 733.0,8680.0 721.0,8673.0 722.0,8662.0 C 722.0,8653.0 719.0,8628.0 715.0,8608.0 C 709.0,8578.0 710.0,8570.0 722.0,8570.0 C 731.0,8570.0 743.0,8563.0 750.0,8555.0 C 757.0,8547.0 773.0,8540.0 786.0,8540.0 C 807.0,8540.0 808.0,8537.0 803.0,8503.0 C 800.0,8482.0 795.0,8463.0 793.0,8460.0 C 791.0,8458.0 772.0,8475.0 752.0,8497.0 C 732.0,8520.0 706.0,8540.0 694.0,8542.0 C 682.0,8544.0 656.0,8530.0 629.0,8506.0 C 573.0,8457.0 513.0,8430.0 447.0,8423.0 C 403.0,8419.0 392.0,8421.0 376.0,8439.0 C 347.0,8471.0 305.0,8466.0 270.0,8428.0 C 252.0,8407.0 243.0,8387.0 246.0,8375.0 C 249.0,8359.0 240.0,8350.0 202.0,8332.0 C 176.0,8320.0 145.0,8310.0 133.0,8310.0 C 121.0,8310.0 98.0,8299.0 83.0,8285.0 C 57.0,8262.0 56.0,8259.0 72.0,8246.0 C 91.0,8232.0 86.0,8220.0 60.0,8220.0 C 51.0,8220.0 34.0,8210.0 22.0,8197.0 C 3.0,8177.0 0.0,8162.0 0.0,8089.0 C 0.0,7988.0 11.0,7963.0 34.0,8009.0 C 51.0,8041.0 57.0,8044.0 84.0,8034.0 C 105.0,8026.0 128.0,7924.0 112.0,7908.0 C 94.0,7890.0 97.0,7882.0 127.0,7867.0 C 160.0,7852.0 194.0,7855.0 210.0,7876.0 C 217.0,7884.0 231.0,7890.0 242.0,7890.0 C 260.0,7890.0 259.0,7887.0 233.0,7863.0 C 217.0,7847.0 198.0,7819.0 191.0,7800.0 C 184.0,7781.0 171.0,7748.0 163.0,7728.0 C 150.0,7697.0 149.0,7686.0 160.0,7660.0 C 178.0,7617.0 202.0,7622.0 242.0,7679.0 C 270.0,7719.0 279.0,7726.0 293.0,7719.0 C 316.0,7705.0 330.0,7716.0 330.0,7747.0 C 330.0,7772.0 330.0,7773.0 350.0,7755.0 C 361.0,7745.0 370.0,7732.0 370.0,7726.0 C 370.0,7715.0 334.0,7617.0 319.0,7587.0 C 314.0,7578.0 313.0,7552.0 316.0,7530.0 C 322.0,7491.0 324.0,7490.0 363.0,7490.0 L 403.0,7490.0 L 376.0,7465.0 C 362.0,7452.0 350.0,7432.0 350.0,7420.0 C 350.0,7409.0 332.0,7382.0 310.0,7360.0 C 266.0,7317.0 258.0,7300.0 292.0,7324.0 C 304.0,7333.0 324.0,7340.0 336.0,7340.0 C 348.0,7340.0 379.0,7349.0 405.0,7360.0 C 459.0,7383.0 470.0,7385.0 470.0,7368.0 C 470.0,7361.0 447.0,7340.0 420.0,7321.0 C 392.0,7302.0 370.0,7283.0 370.0,7278.0 C 370.0,7273.0 359.0,7264.0 345.0,7258.0 C 325.0,7249.0 322.0,7244.0 332.0,7233.0 C 341.0,7222.0 341.0,7216.0 329.0,7209.0 C 321.0,7204.0 309.0,7200.0 303.0,7200.0 C 293.0,7200.0 290.0,7173.0 290.0,7100.0 L 290.0,6999.0 L 318.0,7014.0 C 333.0,7022.0 354.0,7037.0 364.0,7049.0 C 375.0,7061.0 394.0,7070.0 406.0,7070.0 C 420.0,7070.0 442.0,7084.0 460.0,7104.0 C 479.0,7124.0 504.0,7140.0 523.0,7143.0 C 541.0,7146.0 575.0,7153.0 600.0,7159.0 C 625.0,7165.0 666.0,7174.0 693.0,7179.0 C 719.0,7183.0 749.0,7195.0 759.0,7204.0 C 777.0,7221.0 779.0,7221.0 799.0,7201.0 C 811.0,7189.0 825.0,7180.0 830.0,7180.0 C 842.0,7180.0 880.0,7143.0 880.0,7131.0 C 880.0,7126.0 867.0,7117.0 851.0,7110.0 C 824.0,7099.0 770.0,7033.0 770.0,7011.0 C 770.0,7006.0 779.0,6998.0 790.0,6995.0 C 805.0,6990.0 810.0,6980.0 810.0,6955.0 C 810.0,6886.0 884.0,6893.0 963.0,6968.0 L 1001.0,7005.0 L 1021.0,6978.0 L 1041.0,6950.0 L 1081.0,6971.0 C 1110.0,6986.0 1130.0,6989.0 1158.0,6984.0 C 1208.0,6975.0 1250.0,6953.0 1250.0,6935.0 C 1250.0,6912.0 1268.0,6917.0 1296.0,6947.0 L 1322.0,6975.0 L 1350.0,6940.0 C 1373.0,6912.0 1381.0,6907.0 1391.0,6918.0 C 1398.0,6924.0 1425.0,6930.0 1452.0,6930.0 C 1490.0,6930.0 1506.0,6936.0 1534.0,6960.0 C 1565.0,6987.0 1568.0,6994.0 1563.0,7030.0 L 1557.0,7070.0 L 1596.0,7070.0 C 1620.0,7070.0 1641.0,7063.0 1655.0,7050.0 C 1676.0,7030.0 1678.0,7030.0 1708.0,7047.0 C 1734.0,7062.0 1743.0,7063.0 1760.0,7053.0 C 1787.0,7035.0 1820.0,7037.0 1841.0,7056.0 C 1857.0,7070.0 1861.0,7070.0 1889.0,7049.0 C 1915.0,7030.0 1927.0,7028.0 1979.0,7033.0 L 2040.0,7040.0 L 2040.0,7006.0 C 2040.0,6986.0 2048.0,6966.0 2060.0,6955.0 C 2079.0,6937.0 2079.0,6937.0 2061.0,6906.0 C 2035.0,6863.0 2026.0,6803.0 2041.0,6769.0 L 2053.0,6740.0 L 2144.0,6746.0 L 2235.0,6752.0 L 2263.0,6706.0 L 2292.0,6660.0 L 2237.0,6562.0 C 2199.0,6495.0 2161.0,6445.0 2117.0,6402.0 C 2057.0,6345.0 2048.0,6340.0 2007.0,6340.0 C 1965.0,6340.0 1959.0,6337.0 1921.0,6289.0 C 1894.0,6255.0 1880.0,6227.0 1880.0,6208.0 C 1880.0,6191.0 1871.0,6165.0 1859.0,6149.0 C 1842.0,6125.0 1831.0,6120.0 1798.0,6120.0 C 1759.0,6120.0 1758.0,6119.0 1763.0,6091.0 C 1767.0,6075.0 1784.0,6038.0 1801.0,6010.0 C 1830.0,5963.0 1833.0,5951.0 1831.0,5886.0 C 1830.0,5846.0 1834.0,5801.0 1841.0,5787.0 C 1851.0,5766.0 1851.0,5751.0 1841.0,5719.0 C 1831.0,5687.0 1831.0,5675.0 1841.0,5664.0 C 1850.0,5653.0 1850.0,5640.0 1841.0,5611.0 C 1827.0,5563.0 1827.0,5535.0 1841.0,5512.0 C 1849.0,5499.0 1850.0,5476.0 1844.0,5436.0 L 1835.0,5378.0 L 1780.0,5356.0 C 1736.0,5338.0 1720.0,5326.0 1702.0,5292.0 C 1673.0,5240.0 1679.0,5214.0 1723.0,5206.0 C 1771.0,5197.0 1797.0,5131.0 1792.0,5028.0 C 1789.0,4955.0 1787.0,4951.0 1760.0,4940.0 C 1740.0,4932.0 1729.0,4919.0 1726.0,4899.0 C 1723.0,4883.0 1718.0,4857.0 1715.0,4841.0 C 1710.0,4819.0 1701.0,4811.0 1672.0,4802.0 C 1592.0,4778.0 1494.0,4767.0 1444.0,4777.0 C 1417.0,4783.0 1372.0,4785.0 1343.0,4783.0 L 1292.0,4778.0 L 1302.0,4747.0 C 1308.0,4728.0 1344.0,4684.0 1392.0,4639.0 L 1473.0,4563.0 L 1455.0,4532.0 C 1436.0,4501.0 1437.0,4500.0 1460.0,4450.0 C 1473.0,4422.0 1490.0,4394.0 1497.0,4388.0 C 1504.0,4382.0 1510.0,4362.0 1510.0,4343.0 C 1510.0,4316.0 1519.0,4299.0 1558.0,4260.0 C 1603.0,4215.0 1607.0,4213.0 1630.0,4225.0 C 1653.0,4237.0 1658.0,4236.0 1683.0,4212.0 C 1720.0,4177.0 1719.0,4129.0 1681.0,4071.0 C 1658.0,4036.0 1653.0,4022.0 1661.0,4003.0 C 1669.0,3981.0 1662.0,3974.0 1581.0,3914.0 C 1486.0,3845.0 1477.0,3831.0 1481.0,3754.0 C 1482.0,3732.0 1473.0,3696.0 1461.0,3670.0 C 1435.0,3614.0 1435.0,3590.0 1459.0,3583.0 C 1471.0,3580.0 1495.0,3546.0 1521.0,3494.0 C 1545.0,3447.0 1573.0,3402.0 1583.0,3392.0 C 1594.0,3383.0 1606.0,3365.0 1611.0,3352.0 C 1621.0,3326.0 1642.0,3324.0 1699.0,3345.0 L 1740.0,3359.0 L 1725.0,3336.0 C 1716.0,3323.0 1705.0,3284.0 1699.0,3249.0 C 1693.0,3214.0 1684.0,3182.0 1678.0,3179.0 C 1672.0,3175.0 1654.0,3177.0 1638.0,3182.0 C 1613.0,3191.0 1605.0,3189.0 1586.0,3171.0 C 1573.0,3159.0 1551.0,3150.0 1533.0,3150.0 C 1504.0,3150.0 1502.0,3148.0 1490.0,3088.0 C 1480.0,3034.0 1471.0,3019.0 1420.0,2966.0 C 1369.0,2912.0 1361.0,2899.0 1355.0,2851.0 C 1351.0,2821.0 1337.0,2776.0 1324.0,2752.0 C 1293.0,2695.0 1294.0,2689.0 1333.0,2665.0 L 1365.0,2645.0 L 1368.0,2512.0 L 1371.0,2380.0 L 1416.0,2380.0 C 1441.0,2380.0 1475.0,2387.0 1492.0,2396.0 C 1518.0,2410.0 1541.0,2411.0 1624.0,2405.0 C 1724.0,2398.0 1764.0,2386.0 1789.0,2356.0 C 1797.0,2347.0 1815.0,2340.0 1830.0,2340.0 C 1845.0,2340.0 1874.0,2327.0 1896.0,2309.0 C 1918.0,2292.0 1958.0,2267.0 1985.0,2253.0 C 2071.0,2209.0 2099.0,2181.0 2136.0,2104.0 C 2172.0,2028.0 2177.0,2001.0 2159.0,1983.0 C 2150.0,1974.0 2150.0,1960.0 2160.0,1926.0 C 2171.0,1885.0 2176.0,1880.0 2222.0,1863.0 C 2249.0,1854.0 2275.0,1841.0 2279.0,1835.0 C 2291.0,1820.0 2310.0,1735.0 2310.0,1696.0 C 2310.0,1677.0 2314.0,1659.0 2319.0,1655.0 C 2324.0,1652.0 2336.0,1628.0 2345.0,1601.0 C 2355.0,1569.0 2369.0,1549.0 2385.0,1542.0 C 2401.0,1534.0 2410.0,1522.0 2410.0,1507.0 C 2410.0,1470.0 2443.0,1446.0 2483.0,1454.0 C 2529.0,1463.0 2546.0,1454.0 2571.0,1411.0 C 2587.0,1381.0 2603.0,1370.0 2654.0,1352.0 C 2688.0,1340.0 2745.0,1327.0 2781.0,1324.0 C 2889.0,1313.0 2927.0,1345.0 3017.0,1517.0 C 3062.0,1604.0 3085.0,1636.0 3117.0,1659.0 C 3139.0,1675.0 3161.0,1693.0 3164.0,1699.0 C 3168.0,1704.0 3192.0,1712.0 3218.0,1716.0 C 3244.0,1719.0 3274.0,1728.0 3285.0,1734.0 C 3296.0,1740.0 3348.0,1745.0 3400.0,1745.0 L 3495.0,1745.0 L 3498.0,1772.0 C 3501.0,1795.0 3509.0,1801.0 3553.0,1815.0 C 3592.0,1828.0 3617.0,1845.0 3651.0,1883.0 L 3696.0,1933.0 L 3821.0,1954.0 C 3979.0,1979.0 4241.0,1981.0 4309.0,1956.0 C 4374.0,1932.0 4427.0,1935.0 4472.0,1966.0 C 4504.0,1988.0 4516.0,1991.0 4557.0,1986.0 C 4583.0,1983.0 4651.0,1977.0 4708.0,1974.0 C 4783.0,1969.0 4813.0,1964.0 4817.0,1954.0 C 4821.0,1944.0 4843.0,1940.0 4901.0,1940.0 C 4997.0,1940.0 5026.0,1952.0 5034.0,1994.0 C 5043.0,2042.0 5099.0,2070.0 5183.0,2070.0 C 5247.0,2070.0 5248.0,2070.0 5296.0,2020.0 C 5345.0,1970.0 5383.0,1957.0 5394.0,1985.0 C 5397.0,1993.0 5405.0,2000.0 5413.0,2000.0 C 5431.0,2000.0 5477.0,2056.0 5504.0,2111.0 C 5516.0,2135.0 5536.0,2159.0 5548.0,2165.0 C 5561.0,2171.0 5570.0,2184.0 5570.0,2198.0 C 5570.0,2210.0 5578.0,2237.0 5588.0,2258.0 C 5615.0,2310.0 5633.0,2386.0 5627.0,2411.0 C 5623.0,2427.0 5627.0,2434.0 5641.0,2437.0 C 5652.0,2440.0 5679.0,2469.0 5700.0,2500.0 C 5743.0,2564.0 5817.0,2620.0 5856.0,2620.0 C 5875.0,2620.0 5884.0,2627.0 5891.0,2650.0 C 5898.0,2667.0 5909.0,2680.0 5919.0,2680.0 C 5928.0,2680.0 5947.0,2693.0 5961.0,2709.0 C 5980.0,2731.0 5999.0,2739.0 6039.0,2745.0 C 6079.0,2750.0 6095.0,2749.0 6100.0,2739.0 C 6107.0,2729.0 6117.0,2729.0 6157.0,2739.0 C 6183.0,2746.0 6250.0,2755.0 6305.0,2759.0 C 6410.0,2767.0 6443.0,2778.0 6460.0,2810.0 C 6469.0,2826.0 6467.0,2831.0 6453.0,2836.0 C 6405.0,2851.0 6388.0,2862.0 6371.0,2891.0 L 6352.0,2922.0 L 6385.0,2956.0 C 6403.0,2974.0 6428.0,3015.0 6440.0,3046.0 C 6451.0,3077.0 6469.0,3115.0 6479.0,3129.0 C 6490.0,3143.0 6503.0,3175.0 6510.0,3200.0 C 6540.0,3317.0 6550.0,3339.0 6578.0,3342.0 C 6596.0,3344.0 6606.0,3352.0 6608.0,3365.0 C 6609.0,3376.0 6615.0,3409.0 6622.0,3438.0 C 6631.0,3481.0 6637.0,3490.0 6655.0,3490.0 C 6671.0,3490.0 6684.0,3503.0 6701.0,3536.0 C 6720.0,3573.0 6737.0,3588.0 6785.0,3612.0 C 6818.0,3629.0 6853.0,3649.0 6863.0,3658.0 C 6873.0,3667.0 6896.0,3679.0 6913.0,3685.0 C 6934.0,3692.0 6951.0,3708.0 6964.0,3735.0 C 6982.0,3770.0 6991.0,3776.0 7027.0,3781.0 C 7053.0,3784.0 7081.0,3797.0 7104.0,3818.0 C 7124.0,3836.0 7147.0,3850.0 7155.0,3850.0 C 7176.0,3850.0 7184.0,3869.0 7172.0,3893.0 C 7166.0,3905.0 7159.0,3927.0 7156.0,3942.0 C 7151.0,3966.0 7141.0,3972.0 7077.0,3990.0 C 6969.0,4022.0 6956.0,4028.0 6912.0,4073.0 C 6869.0,4117.0 6842.0,4190.0 6821.0,4316.0 C 6816.0,4343.0 6798.0,4393.0 6780.0,4426.0 C 6750.0,4481.0 6748.0,4490.0 6753.0,4561.0 C 6758.0,4633.0 6763.0,4647.0 6831.0,4776.0 C 6871.0,4853.0 6921.0,4935.0 6942.0,4959.0 C 6964.0,4984.0 6996.0,5036.0 7014.0,5074.0 C 7037.0,5122.0 7061.0,5156.0 7089.0,5178.0 C 7112.0,5196.0 7139.0,5228.0 7150.0,5248.0 C 7177.0,5297.0 7238.0,5373.0 7273.0,5400.0 C 7288.0,5412.0 7300.0,5430.0 7300.0,5441.0 C 7300.0,5467.0 7325.0,5516.0 7361.0,5560.0 C 7377.0,5579.0 7390.0,5607.0 7390.0,5622.0 C 7390.0,5658.0 7464.0,5716.0 7523.0,5725.0 C 7575.0,5734.0 7608.0,5751.0 7639.0,5784.0 C 7665.0,5812.0 7662.0,5840.0 7632.0,5840.0 C 7622.0,5840.0 7605.0,5849.0 7595.0,5860.0 C 7585.0,5871.0 7571.0,5880.0 7564.0,5880.0 C 7513.0,5880.0 7553.0,5942.0 7678.0,6056.0 C 7788.0,6156.0 7834.0,6178.0 7871.0,6144.0 C 7889.0,6128.0 7891.0,6128.0 7911.0,6154.0 C 7940.0,6190.0 7952.0,6196.0 8108.0,6240.0 C 8183.0,6261.0 8272.0,6289.0 8305.0,6301.0 C 8338.0,6312.0 8399.0,6325.0 8440.0,6330.0 C 8557.0,6341.0 8605.0,6369.0 8658.0,6458.0 C 8688.0,6507.0 8716.0,6540.0 8748.0,6562.0 C 8774.0,6579.0 8811.0,6606.0 8830.0,6621.0 C 8865.0,6649.0 8939.0,6680.0 9016.0,6700.0 C 9039.0,6705.0 9077.0,6725.0 9101.0,6743.0 C 9125.0,6761.0 9160.0,6782.0 9178.0,6789.0 C 9196.0,6797.0 9215.0,6811.0 9220.0,6820.0 C 9225.0,6830.0 9247.0,6847.0 9267.0,6857.0 C 9288.0,6868.0 9311.0,6889.0 9318.0,6904.0 C 9326.0,6919.0 9347.0,6937.0 9368.0,6945.0 C 9413.0,6963.0 9437.0,7020.0 9419.0,7067.0 C 9413.0,7082.0 9412.0,7115.0 9415.0,7141.0 C 9421.0,7185.0 9420.0,7188.0 9386.0,7214.0 C 9354.0,7238.0 9350.0,7246.0 9350.0,7286.0 C 9350.0,7334.0 9351.0,7334.0 9415.0,7331.0 C 9453.0,7329.0 9457.0,7331.0 9477.0,7369.0 L 9499.0,7409.0 L 9467.0,7428.0 C 9449.0,7439.0 9425.0,7451.0 9413.0,7454.0 C 9400.0,7458.0 9389.0,7472.0 9385.0,7491.0 C 9380.0,7511.0 9373.0,7520.0 9364.0,7516.0 C 9356.0,7513.0 9343.0,7523.0 9333.0,7541.0 C 9307.0,7585.0 9280.0,7587.0 9203.0,7551.0 C 9165.0,7533.0 9111.0,7517.0 9078.0,7513.0 C 9022.0,7507.0 9020.0,7506.0 9014.0,7475.0 C 9009.0,7445.0 9004.0,7442.0 8967.0,7437.0 C 8937.0,7434.0 8919.0,7438.0 8905.0,7450.0 C 8885.0,7467.0 8780.0,7523.0 8748.0,7534.0 C 8737.0,7537.0 8727.0,7532.0 8721.0,7521.0 C 8711.0,7504.0 8611.0,7470.0 8567.0,7470.0 C 8552.0,7470.0 8531.0,7486.0 8506.0,7516.0 C 8485.0,7541.0 8452.0,7568.0 8434.0,7576.0 C 8384.0,7597.0 8297.0,7594.0 8248.0,7569.0 C 8216.0,7553.0 8194.0,7549.0 8153.0,7552.0 C 8089.0,7558.0 8073.0,7569.0 8089.0,7598.0 C 8105.0,7629.0 8102.0,7726.0 8084.0,7763.0 C 8049.0,7832.0 8036.0,7839.0 7955.0,7833.0 C 7890.0,7828.0 7881.0,7829.0 7872.0,7847.0 C 7853.0,7881.0 7787.0,7920.0 7747.0,7920.0 C 7727.0,7920.0 7685.0,7931.0 7654.0,7945.0 C 7597.0,7970.0 7537.0,7977.0 7511.0,7961.0 C 7497.0,7952.0 7499.0,7864.0 7515.0,7826.0 C 7523.0,7808.0 7519.0,7807.0 7431.0,7813.0 C 7368.0,7817.0 7332.0,7824.0 7321.0,7834.0 C 7305.0,7848.0 7301.0,7848.0 7270.0,7825.0 L 7236.0,7800.0 L 7210.0,7825.0 C 7176.0,7858.0 7107.0,7859.0 7055.0,7829.0 C 7003.0,7798.0 6960.0,7809.0 6931.0,7860.0 C 6913.0,7892.0 6895.0,7907.0 6843.0,7930.0 C 6807.0,7947.0 6770.0,7960.0 6761.0,7960.0 C 6752.0,7960.0 6733.0,7946.0 6719.0,7929.0 L 6694.0,7898.0 L 6661.0,7915.0 C 6625.0,7933.0 6600.0,7929.0 6600.0,7905.0 C 6600.0,7897.0 6596.0,7890.0 6591.0,7890.0 C 6575.0,7890.0 6491.0,7992.0 6471.0,8035.0 C 6442.0,8097.0 6432.0,8102.0 6371.0,8088.0 C 6325.0,8078.0 6315.0,8079.0 6277.0,8097.0 C 6254.0,8108.0 6204.0,8130.0 6165.0,8144.0 C 6050.0,8188.0 6050.0,8188.0 6050.0,8213.0 C 6050.0,8233.0 6046.0,8236.0 6020.0,8232.0 C 5996.0,8229.0 5989.0,8222.0 5984.0,8194.0 C 5979.0,8164.0 5975.0,8160.0 5956.0,8166.0 C 5929.0,8174.0 5900.0,8200.0 5900.0,8215.0 C 5900.0,8221.0 5916.0,8241.0 5935.0,8260.0 C 5965.0,8289.0 5970.0,8300.0 5970.0,8339.0 C 5970.0,8365.0 5966.0,8390.0 5962.0,8397.0 C 5958.0,8404.0 5931.0,8414.0 5902.0,8421.0 C 5857.0,8430.0 5846.0,8429.0 5823.0,8415.0 C 5802.0,8401.0 5796.0,8400.0 5789.0,8411.0 C 5784.0,8419.0 5780.0,8431.0 5780.0,8438.0 C 5780.0,8453.0 5774.0,8453.0 5749.0,8439.0 C 5732.0,8430.0 5723.0,8435.0 5692.0,8469.0 C 5672.0,8491.0 5643.0,8513.0 5628.0,8519.0 C 5605.0,8528.0 5600.0,8526.0 5595.0,8509.0 C 5591.0,8499.0 5576.0,8483.0 5560.0,8475.0 C 5519.0,8454.0 5414.0,8430.0 5355.0,8429.0 C 5328.0,8429.0 5296.0,8425.0 5285.0,8421.0 C 5273.0,8416.0 5255.0,8418.0 5240.0,8425.0 C 5226.0,8432.0 5198.0,8441.0 5178.0,8445.0 C 5158.0,8449.0 5134.0,8461.0 5124.0,8471.0 C 5115.0,8481.0 5102.0,8490.0 5096.0,8490.0 C 5089.0,8490.0 5066.0,8499.0 5045.0,8510.0 C 5010.0,8528.0 5004.0,8529.0 4994.0,8515.0 C 4980.0,8496.0 4970.0,8496.0 4970.0,8514.0 C 4970.0,8522.0 4959.0,8542.0 4946.0,8557.0 C 4921.0,8585.0 4921.0,8585.0 4890.0,8568.0 C 4872.0,8558.0 4842.0,8550.0 4821.0,8550.0 C 4801.0,8550.0 4775.0,8543.0 4764.0,8535.0 C 4754.0,8527.0 4735.0,8520.0 4723.0,8520.0 C 4695.0,8520.0 4695.0,8516.0 4722.0,8477.0 L 4744.0,8447.0 L 4710.0,8454.0 C 4691.0,8457.0 4669.0,8467.0 4660.0,8475.0 C 4651.0,8483.0 4634.0,8490.0 4623.0,8490.0 C 4612.0,8490.0 4595.0,8501.0 4586.0,8515.0 C 4570.0,8539.0 4565.0,8540.0 4472.0,8540.0 C 4378.0,8540.0 4335.0,8550.0 4359.0,8564.0 C 4376.0,8575.0 4372.0,8584.0 4342.0,8602.0 C 4318.0,8616.0 4294.0,8618.0 4192.0,8614.0 C 4124.0,8612.0 4053.0,8603.0 4029.0,8595.0 C 4006.0,8587.0 3979.0,8580.0 3969.0,8580.0 C 3959.0,8580.0 3934.0,8570.0 3913.0,8558.0 C 3876.0,8536.0 3867.0,8535.0 3656.0,8537.0 C 3453.0,8539.0 3434.0,8540.0 3391.0,8561.0 C 3359.0,8577.0 3317.0,8585.0 3250.0,8590.0 C 3198.0,8594.0 3142.0,8602.0 3127.0,8609.0 C 3111.0,8615.0 3087.0,8620.0 3073.0,8620.0 C 3058.0,8620.0 3038.0,8627.0 3029.0,8636.0 C 3006.0,8656.0 2959.0,8667.0 2806.0,8685.0 C 2670.0,8701.0 2660.0,8704.0 2660.0,8723.0 C 2660.0,8731.0 2642.0,8751.0 2621.0,8768.0 L 2581.0,8800.0 L 2561.0,8766.0 C 2531.0,8718.0 2502.0,8701.0 2468.0,8712.0 C 2450.0,8718.0 2430.0,8718.0 2413.0,8712.0 C 2393.0,8705.0 2374.0,8707.0 2348.0,8717.0 C 2315.0,8730.0 2305.0,8730.0 2263.0,8717.0 C 2182.0,8692.0 2153.0,8689.0 1920.0,8689.0 C 1796.0,8689.0 1679.0,8686.0 1660.0,8682.0 C 1594.0,8667.0 1553.0,8685.0 1468.0,8766.0 C 1364.0,8865.0 1314.0,8884.0 1291.0,8834.0 L 1279.0,8807.0 L 1255.0,8841.0 C 1241.0,8859.0 1230.0,8882.0 1230.0,8892.0 C 1230.0,8902.0 1224.0,8910.0 1216.0,8910.0 C 1208.0,8910.0 1195.0,8913.0 1186.0,8916.0 C 1176.0,8920.0 1167.0,8911.0 1157.0,8887.0" fill="pink"/>
	<path d="M 10068.0,5183.0 C 10063.0,5165.0 10053.0,5161.0 9994.0,5155.0 C 9956.0,5152.0 9916.0,5148.0 9905.0,5147.0 C 9882.0,5145.0 9874.0,5108.0 9885.0,5053.0 L 9891.0,5019.0 L 9946.0,5026.0 C 9993.0,5031.0 10004.0,5030.0 10023.0,5012.0 C 10056.0,4982.0 10194.0,4910.0 10218.0,4910.0 C 10235.0,4910.0 10240.0,4916.0 10240.0,4938.0 C 10240.0,4986.0 10214.0,5057.0 10181.0,5099.0 C 10164.0,5120.0 10150.0,5145.0 10150.0,5154.0 C 10150.0,5166.0 10141.0,5170.0 10116.0,5170.0 C 10091.0,5170.0 10080.0,5175.0 10078.0,5188.0 C 10075.0,5202.0 10073.0,5201.0 10068.0,5183.0" fill="pink"/>
	<path d="M 9379.0,5060.0 C 9355.0,5046.0 9210.0,5000.0 9190.0,5000.0 C 9181.0,5000.0 9156.0,4987.0 9135.0,4970.0 C 9114.0,4954.0 9089.0,4940.0 9078.0,4940.0 C 9067.0,4940.0 9033.0,4916.0 9002.0,4887.0 C 8971.0,4857.0 8931.0,4828.0 8913.0,4821.0 C 8896.0,4814.0 8872.0,4798.0 8859.0,4784.0 C 8847.0,4771.0 8829.0,4760.0 8820.0,4760.0 C 8811.0,4760.0 8791.0,4747.0 8775.0,4730.0 C 8748.0,4702.0 8748.0,4700.0 8763.0,4676.0 C 8772.0,4663.0 8795.0,4646.0 8815.0,4639.0 C 8838.0,4630.0 8850.0,4620.0 8850.0,4608.0 C 8850.0,4574.0 8878.0,4577.0 8915.0,4614.0 C 8951.0,4650.0 8961.0,4654.0 9015.0,4650.0 C 9054.0,4647.0 9060.0,4637.0 9060.0,4569.0 C 9060.0,4493.0 9084.0,4470.0 9161.0,4470.0 C 9220.0,4470.0 9236.0,4461.0 9263.0,4418.0 C 9285.0,4383.0 9299.0,4383.0 9352.0,4416.0 C 9407.0,4451.0 9426.0,4473.0 9457.0,4540.0 C 9471.0,4570.0 9497.0,4615.0 9515.0,4640.0 C 9590.0,4745.0 9609.0,4821.0 9570.0,4860.0 C 9546.0,4884.0 9531.0,4885.0 9504.0,4865.0 C 9466.0,4836.0 9405.0,4856.0 9363.0,4910.0 C 9353.0,4922.0 9356.0,4926.0 9381.0,4933.0 C 9405.0,4939.0 9411.0,4946.0 9408.0,4963.0 C 9405.0,4982.0 9399.0,4985.0 9361.0,4985.0 C 9306.0,4985.0 9296.0,5005.0 9347.0,5013.0 C 9368.0,5017.0 9395.0,5027.0 9408.0,5035.0 C 9443.0,5060.0 9417.0,5083.0 9379.0,5060.0" fill="pink"/>
	<path d="M 8083.0,4211.0 C 8030.0,4202.0 7970.0,4162.0 7970.0,4134.0 C 7970.0,4123.0 7960.0,4108.0 7947.0,4101.0 C 7923.0,4088.0 7901.0,4030.0 7908.0,3997.0 C 7911.0,3981.0 7918.0,3979.0 7955.0,3984.0 C 7981.0,3988.0 8001.0,3987.0 8005.0,3980.0 C 8008.0,3975.0 8022.0,3970.0 8035.0,3970.0 C 8051.0,3970.0 8060.0,3977.0 8064.0,3994.0 C 8071.0,4024.0 8158.0,4115.0 8188.0,4124.0 C 8205.0,4130.0 8210.0,4139.0 8210.0,4164.0 C 8210.0,4219.0 8187.0,4228.0 8083.0,4211.0" fill="pink"/>
	<path d="M 8057.0,3889.0 C 8045.0,3882.0 8040.0,3866.0 8040.0,3834.0 C 8040.0,3793.0 8041.0,3790.0 8060.0,3800.0 C 8074.0,3807.0 8085.0,3807.0 8098.0,3799.0 C 8124.0,3783.0 8191.0,3796.0 8183.0,3815.0 C 8180.0,3823.0 8165.0,3830.0 8150.0,3830.0 C 8120.0,3830.0 8090.0,3852.0 8090.0,3875.0 C 8090.0,3895.0 8077.0,3900.0 8057.0,3889.0" fill="pink"/>
</svg>
