<?xml version="1.0" ?>
<svg xmlns="http://www.w3.org/2000/svg" xmlns:ev="http://www.w3.org/2001/xml-events" xmlns:xlink="http://www.w3.org/1999/xlink" baseProfile="full" height="479px" version="1.1" viewBox="-1027.648717329218 212.00405979963602 12294.459033829953 9815.057290832141" width="600px">
	<defs/>
	<path d="M 3141.0,9168.0 C 3131.0,9144.0 3086.0,9034.0 3040.0,8924.0 C 2969.0,8752.0 2954.0,8724.0 2942.0,8736.0 C 2935.0,8744.0 2921.0,8750.0 2911.0,8750.0 C 2900.0,8750.0 2886.0,8765.0 2875.0,8791.0 C 2852.0,8840.0 2811.0,8864.0 2764.0,8856.0 C 2726.0,8848.0 2680.0,8799.0 2680.0,8765.0 C 2680.0,8732.0 2648.0,8724.0 2603.0,8745.0 C 2583.0,8755.0 2539.0,8765.0 2505.0,8768.0 C 2415.0,8775.0 2377.0,8752.0 2300.0,8645.0 L 2239.0,8560.0 L 2256.0,8532.0 C 2272.0,8503.0 2271.0,8498.0 2170.0,8180.0 C 2060.0,7833.0 2062.0,7842.0 2086.0,7703.0 C 2094.0,7660.0 2071.0,7651.0 2029.0,7681.0 C 1999.0,7702.0 1994.0,7702.0 1931.0,7691.0 C 1774.0,7662.0 1770.0,7660.0 1764.0,7630.0 C 1761.0,7615.0 1716.0,7550.0 1664.0,7485.0 C 1568.0,7365.0 1562.0,7352.0 1529.0,7215.0 C 1518.0,7171.0 1505.0,7154.0 1427.0,7078.0 C 1345.0,6999.0 1338.0,6989.0 1345.0,6963.0 C 1349.0,6948.0 1354.0,6896.0 1357.0,6849.0 L 1362.0,6763.0 L 1321.0,6731.0 C 1270.0,6691.0 1268.0,6658.0 1309.0,6581.0 L 1337.0,6527.0 L 1303.0,6469.0 C 1275.0,6421.0 1271.0,6404.0 1276.0,6373.0 C 1285.0,6312.0 1260.0,6266.0 1210.0,6251.0 C 1187.0,6244.0 1167.0,6240.0 1166.0,6242.0 C 1092.0,6346.0 1067.0,6370.0 1035.0,6370.0 C 1002.0,6370.0 999.0,6366.0 919.0,6234.0 C 847.0,6113.0 839.0,6095.0 849.0,6074.0 C 855.0,6061.0 857.0,6037.0 854.0,6022.0 C 850.0,6003.0 855.0,5979.0 869.0,5952.0 C 896.0,5899.0 888.0,5859.0 844.0,5825.0 C 810.0,5799.0 810.0,5798.0 810.0,5720.0 C 810.0,5643.0 809.0,5639.0 762.0,5563.0 L 713.0,5485.0 L 725.0,5135.0 C 732.0,4943.0 735.0,4782.0 733.0,4778.0 C 731.0,4773.0 719.0,4770.0 706.0,4770.0 C 688.0,4770.0 681.0,4760.0 666.0,4715.0 C 646.0,4657.0 632.0,4647.0 546.0,4630.0 C 515.0,4624.0 501.0,4626.0 481.0,4640.0 C 467.0,4650.0 434.0,4660.0 409.0,4664.0 C 372.0,4668.0 357.0,4665.0 330.0,4646.0 C 302.0,4627.0 291.0,4625.0 261.0,4633.0 C 237.0,4639.0 211.0,4639.0 183.0,4631.0 L 142.0,4620.0 L 135.0,4545.0 C 128.0,4471.0 127.0,4469.0 82.0,4429.0 C 13.0,4369.0 -3.0,4337.0 2.0,4268.0 C 8.0,4191.0 27.0,4170.0 94.0,4170.0 C 130.0,4170.0 164.0,4161.0 208.0,4140.0 C 256.0,4117.0 276.0,4113.0 290.0,4120.0 C 318.0,4135.0 326.0,4133.0 363.0,4100.0 C 394.0,4073.0 399.0,4072.0 411.0,4086.0 C 428.0,4107.0 476.0,4097.0 510.0,4066.0 C 524.0,4053.0 547.0,4036.0 562.0,4029.0 C 603.0,4007.0 691.0,3885.0 710.0,3821.0 C 725.0,3771.0 731.0,3762.0 778.0,3735.0 C 806.0,3719.0 832.0,3696.0 836.0,3685.0 C 857.0,3611.0 886.0,3585.0 965.0,3566.0 C 1009.0,3555.0 1040.0,3522.0 1040.0,3485.0 C 1040.0,3441.0 1065.0,3409.0 1098.0,3412.0 C 1129.0,3414.0 1169.0,3395.0 1188.0,3368.0 C 1195.0,3358.0 1215.0,3343.0 1232.0,3334.0 C 1254.0,3323.0 1261.0,3313.0 1257.0,3299.0 C 1254.0,3288.0 1262.0,3248.0 1275.0,3211.0 C 1287.0,3174.0 1301.0,3123.0 1305.0,3099.0 C 1309.0,3074.0 1327.0,3035.0 1346.0,3009.0 C 1373.0,2973.0 1380.0,2953.0 1380.0,2919.0 C 1380.0,2889.0 1394.0,2840.0 1427.0,2763.0 C 1473.0,2656.0 1477.0,2650.0 1522.0,2625.0 C 1581.0,2593.0 1583.0,2589.0 1571.0,2544.0 C 1563.0,2516.0 1565.0,2501.0 1577.0,2475.0 L 1593.0,2442.0 L 1655.0,2472.0 L 1716.0,2503.0 L 1757.0,2477.0 C 1793.0,2454.0 1802.0,2452.0 1832.0,2462.0 C 1863.0,2471.0 1872.0,2469.0 1907.0,2446.0 C 1942.0,2423.0 1948.0,2413.0 1954.0,2373.0 C 1959.0,2332.0 1957.0,2323.0 1936.0,2301.0 C 1913.0,2276.0 1912.0,2272.0 1917.0,2155.0 C 1922.0,2041.0 1924.0,2033.0 1952.0,1998.0 C 1972.0,1972.0 1979.0,1954.0 1975.0,1940.0 C 1968.0,1917.0 2003.0,1860.0 2025.0,1860.0 C 2033.0,1860.0 2046.0,1847.0 2055.0,1831.0 C 2072.0,1798.0 2072.0,1798.0 2440.0,1781.0 L 2625.0,1772.0 L 2740.0,1717.0 C 2803.0,1686.0 2884.0,1640.0 2920.0,1613.0 C 2956.0,1586.0 3028.0,1535.0 3080.0,1500.0 C 3132.0,1466.0 3250.0,1382.0 3341.0,1314.0 L 3506.0,1190.0 L 3615.0,1174.0 C 3697.0,1162.0 3733.0,1161.0 3764.0,1169.0 C 3800.0,1178.0 3812.0,1176.0 3847.0,1159.0 C 3876.0,1145.0 3893.0,1142.0 3911.0,1149.0 C 3929.0,1155.0 3946.0,1152.0 3980.0,1135.0 C 4018.0,1116.0 4048.0,1112.0 4180.0,1106.0 C 4324.0,1099.0 4337.0,1097.0 4360.0,1075.0 C 4378.0,1058.0 4400.0,1051.0 4440.0,1048.0 C 4470.0,1045.0 4503.0,1040.0 4512.0,1036.0 C 4526.0,1030.0 4535.0,1038.0 4557.0,1074.0 C 4572.0,1099.0 4592.0,1120.0 4600.0,1120.0 C 4609.0,1120.0 4641.0,1166.0 4676.0,1228.0 L 4737.0,1335.0 L 4975.0,1458.0 C 5194.0,1572.0 5221.0,1583.0 5313.0,1601.0 L 5412.0,1620.0 L 5434.0,1592.0 C 5486.0,1526.0 5525.0,1489.0 5583.0,1454.0 L 5645.0,1416.0 L 5886.0,1412.0 L 6127.0,1408.0 L 6151.0,1475.0 C 6178.0,1553.0 6208.0,1580.0 6268.0,1580.0 C 6289.0,1580.0 6412.0,1589.0 6541.0,1600.0 C 6751.0,1618.0 6778.0,1622.0 6810.0,1644.0 C 6834.0,1660.0 6849.0,1680.0 6858.0,1709.0 C 6879.0,1781.0 6961.0,1850.0 7166.0,1972.0 C 7325.0,2066.0 7365.0,2085.0 7455.0,2111.0 L 7560.0,2140.0 L 7913.0,2140.0 L 8265.0,2141.0 L 8349.0,2233.0 C 8456.0,2350.0 10242.0,4441.0 10238.0,4444.0 C 10236.0,4445.0 10100.0,4443.0 9935.0,4438.0 L 9635.0,4430.0 L 8570.0,4756.0 L 7504.0,5083.0 L 7395.0,5205.0 C 7306.0,5303.0 7272.0,5333.0 7220.0,5361.0 C 7162.0,5391.0 7142.0,5411.0 7037.0,5540.0 C 6973.0,5620.0 6899.0,5714.0 6873.0,5750.0 C 6848.0,5786.0 6802.0,5846.0 6772.0,5884.0 C 6742.0,5922.0 6703.0,5985.0 6687.0,6024.0 C 6671.0,6063.0 6635.0,6127.0 6609.0,6167.0 C 6582.0,6207.0 6560.0,6244.0 6560.0,6250.0 C 6560.0,6256.0 6598.0,6317.0 6645.0,6385.0 C 6692.0,6453.0 6730.0,6510.0 6730.0,6513.0 C 6730.0,6516.0 6705.0,6522.0 6675.0,6525.0 C 6633.0,6531.0 6617.0,6538.0 6605.0,6556.0 C 6594.0,6573.0 6580.0,6580.0 6557.0,6580.0 C 6540.0,6580.0 6519.0,6584.0 6511.0,6589.0 C 6492.0,6601.0 6441.0,6583.0 6409.0,6553.0 C 6385.0,6531.0 6373.0,6529.0 6271.0,6525.0 C 6196.0,6523.0 6151.0,6517.0 6137.0,6507.0 C 6100.0,6483.0 6050.0,6481.0 5986.0,6503.0 L 5927.0,6523.0 L 5934.0,6672.0 C 5938.0,6765.0 5937.0,6835.0 5930.0,6859.0 C 5922.0,6889.0 5923.0,6907.0 5935.0,6940.0 C 5943.0,6963.0 5950.0,6998.0 5950.0,7016.0 C 5950.0,7035.0 5954.0,7050.0 5959.0,7050.0 C 5984.0,7050.0 6076.0,7160.0 6156.0,7285.0 C 6205.0,7362.0 6260.0,7438.0 6278.0,7454.0 C 6298.0,7472.0 6310.0,7491.0 6310.0,7507.0 C 6310.0,7521.0 6320.0,7548.0 6331.0,7567.0 L 6353.0,7602.0 L 6309.0,7647.0 C 6285.0,7671.0 6248.0,7701.0 6226.0,7712.0 C 6205.0,7723.0 6103.0,7817.0 6000.0,7920.0 C 5875.0,8046.0 5785.0,8127.0 5729.0,8165.0 C 5618.0,8240.0 5594.0,8264.0 5560.0,8330.0 C 5540.0,8370.0 5522.0,8390.0 5497.0,8402.0 C 5474.0,8413.0 5410.0,8482.0 5303.0,8612.0 L 5144.0,8805.0 L 4959.0,8877.0 C 4858.0,8917.0 4765.0,8948.0 4752.0,8946.0 C 4733.0,8943.0 4724.0,8952.0 4700.0,9000.0 C 4673.0,9053.0 4668.0,9058.0 4646.0,9052.0 C 4632.0,9048.0 4611.0,9029.0 4598.0,9010.0 C 4566.0,8963.0 4517.0,8957.0 4472.0,8995.0 C 4433.0,9028.0 4330.0,9070.0 4290.0,9070.0 C 4262.0,9070.0 4260.0,9068.0 4260.0,9030.0 C 4260.0,8981.0 4240.0,8969.0 4198.0,8993.0 C 4176.0,9006.0 4170.0,9006.0 4170.0,8996.0 C 4170.0,8988.0 4159.0,8979.0 4145.0,8976.0 C 4131.0,8972.0 4114.0,8958.0 4108.0,8944.0 C 4102.0,8931.0 4092.0,8921.0 4086.0,8923.0 C 4074.0,8927.0 4074.0,8940.0 4084.0,8980.0 C 4088.0,8997.0 4084.0,9016.0 4071.0,9037.0 C 4043.0,9082.0 4012.0,9099.0 3968.0,9093.0 C 3937.0,9089.0 3929.0,9083.0 3923.0,9059.0 C 3911.0,9017.0 3808.0,8940.0 3761.0,8940.0 C 3739.0,8940.0 3703.0,8927.0 3666.0,8906.0 C 3614.0,8876.0 3604.0,8874.0 3574.0,8883.0 C 3554.0,8889.0 3529.0,8909.0 3513.0,8929.0 C 3499.0,8949.0 3474.0,8979.0 3459.0,8995.0 C 3444.0,9012.0 3430.0,9036.0 3428.0,9050.0 C 3426.0,9070.0 3419.0,9076.0 3395.0,9077.0 C 3339.0,9082.0 3260.0,9101.0 3260.0,9110.0 C 3260.0,9123.0 3201.0,9189.0 3178.0,9201.0 C 3162.0,9210.0 3157.0,9205.0 3141.0,9168.0" fill="pink"/>
</svg>
