<?xml version="1.0" ?>
<svg xmlns="http://www.w3.org/2000/svg" xmlns:ev="http://www.w3.org/2001/xml-events" xmlns:xlink="http://www.w3.org/1999/xlink" baseProfile="full" height="600px" version="1.1" viewBox="1567.6210375376227 -1028.9839860646214 7109.067343880552 12296.614599637913" width="347px">
	<defs/>
	<path d="M 6320.0,10225.0 C 6306.0,10217.0 6281.0,10211.0 6264.0,10210.0 C 6247.0,10210.0 6227.0,10203.0 6219.0,10194.0 C 6212.0,10186.0 6193.0,10172.0 6176.0,10163.0 C 6159.0,10155.0 6129.0,10130.0 6109.0,10109.0 C 6064.0,10061.0 6022.0,10057.0 5966.0,10095.0 C 5911.0,10132.0 5878.0,10128.0 5837.0,10080.0 C 5818.0,10057.0 5788.0,10011.0 5769.0,9977.0 C 5751.0,9943.0 5720.0,9899.0 5699.0,9879.0 C 5671.0,9851.0 5661.0,9832.0 5657.0,9799.0 C 5650.0,9741.0 5618.0,9619.0 5574.0,9486.0 L 5538.0,9377.0 L 5545.0,9250.0 L 5552.0,9123.0 L 5520.0,9066.0 C 5490.0,9014.0 5484.0,9009.0 5460.0,9014.0 C 5437.0,9018.0 5424.0,9011.0 5387.0,8975.0 C 5349.0,8939.0 5337.0,8918.0 5319.0,8858.0 C 5291.0,8762.0 5276.0,8740.0 5242.0,8740.0 C 5213.0,8740.0 5173.0,8774.0 5152.0,8816.0 C 5145.0,8830.0 5124.0,8840.0 5088.0,8849.0 C 5003.0,8868.0 4952.0,8895.0 4929.0,8935.0 C 4917.0,8954.0 4900.0,8975.0 4890.0,8980.0 C 4875.0,8988.0 4869.0,8982.0 4851.0,8940.0 C 4840.0,8913.0 4830.0,8887.0 4830.0,8881.0 C 4830.0,8875.0 4820.0,8870.0 4808.0,8870.0 C 4773.0,8870.0 4698.0,8840.0 4659.0,8809.0 C 4618.0,8778.0 4610.0,8780.0 4610.0,8822.0 C 4610.0,8849.0 4609.0,8850.0 4554.0,8850.0 C 4495.0,8850.0 4463.0,8862.0 4442.0,8892.0 C 4432.0,8906.0 4416.0,8910.0 4374.0,8910.0 L 4320.0,8910.0 L 4320.0,8958.0 C 4320.0,8985.0 4313.0,9029.0 4304.0,9056.0 C 4296.0,9083.0 4283.0,9128.0 4275.0,9155.0 C 4262.0,9204.0 4175.0,9424.0 4151.0,9467.0 C 4132.0,9503.0 4070.0,9530.0 4029.0,9521.0 C 3984.0,9511.0 3940.0,9487.0 3916.0,9461.0 C 3900.0,9444.0 3898.0,9431.0 3903.0,9378.0 C 3913.0,9279.0 3892.0,9269.0 3826.0,9339.0 C 3798.0,9368.0 3796.0,9368.0 3769.0,9354.0 C 3745.0,9342.0 3720.0,9313.0 3720.0,9296.0 C 3720.0,9294.0 3738.0,9281.0 3759.0,9269.0 C 3801.0,9245.0 3810.0,9228.0 3810.0,9163.0 C 3810.0,9122.0 3811.0,9120.0 3840.0,9120.0 C 3880.0,9120.0 3927.0,9085.0 3940.0,9044.0 C 3946.0,9026.0 3960.0,9008.0 3970.0,9005.0 C 3984.0,9001.0 3990.0,8988.0 3992.0,8957.0 C 3995.0,8921.0 4001.0,8911.0 4040.0,8882.0 C 4066.0,8862.0 4088.0,8836.0 4093.0,8819.0 C 4099.0,8795.0 4105.0,8791.0 4124.0,8796.0 C 4153.0,8803.0 4168.0,8785.0 4172.0,8735.0 C 4175.0,8700.0 4179.0,8695.0 4205.0,8689.0 C 4222.0,8686.0 4282.0,8660.0 4340.0,8632.0 C 4427.0,8590.0 4448.0,8575.0 4464.0,8545.0 C 4475.0,8526.0 4495.0,8504.0 4509.0,8497.0 C 4551.0,8477.0 4581.0,8423.0 4574.0,8381.0 C 4570.0,8361.0 4567.0,8341.0 4566.0,8335.0 C 4566.0,8330.0 4581.0,8321.0 4600.0,8314.0 C 4630.0,8304.0 4636.0,8296.0 4644.0,8261.0 C 4650.0,8233.0 4662.0,8213.0 4682.0,8199.0 C 4705.0,8182.0 4710.0,8171.0 4710.0,8137.0 C 4710.0,8111.0 4703.0,8089.0 4691.0,8076.0 C 4663.0,8046.0 4644.0,7867.0 4661.0,7798.0 C 4672.0,7751.0 4671.0,7747.0 4647.0,7722.0 C 4634.0,7707.0 4620.0,7683.0 4618.0,7668.0 C 4613.0,7643.0 4616.0,7640.0 4638.0,7640.0 C 4678.0,7640.0 4730.0,7600.0 4729.0,7570.0 C 4728.0,7556.0 4733.0,7532.0 4739.0,7516.0 C 4754.0,7479.0 4737.0,7452.0 4690.0,7436.0 C 4657.0,7426.0 4655.0,7422.0 4656.0,7385.0 C 4657.0,7349.0 4705.0,7196.0 4780.0,6988.0 C 4796.0,6944.0 4804.0,6908.0 4799.0,6903.0 C 4794.0,6898.0 4784.0,6872.0 4776.0,6844.0 C 4750.0,6752.0 4712.0,6678.0 4669.0,6634.0 C 4631.0,6595.0 4627.0,6587.0 4638.0,6570.0 C 4654.0,6543.0 4653.0,6520.0 4634.0,6499.0 C 4622.0,6486.0 4621.0,6477.0 4629.0,6461.0 C 4635.0,6450.0 4640.0,6426.0 4640.0,6407.0 C 4640.0,6380.0 4652.0,6360.0 4705.0,6302.0 L 4770.0,6229.0 L 4770.0,6154.0 C 4770.0,6093.0 4774.0,6072.0 4791.0,6049.0 C 4811.0,6021.0 4811.0,6015.0 4800.0,5892.0 C 4794.0,5822.0 4785.0,5748.0 4781.0,5726.0 C 4776.0,5705.0 4774.0,5664.0 4777.0,5634.0 C 4782.0,5585.0 4784.0,5581.0 4796.0,5599.0 C 4816.0,5627.0 4840.0,5750.0 4841.0,5828.0 C 4842.0,5865.0 4845.0,5905.0 4848.0,5917.0 C 4855.0,5938.0 4857.0,5937.0 4910.0,5893.0 C 4998.0,5820.0 5047.0,5790.0 5077.0,5790.0 C 5098.0,5790.0 5123.0,5773.0 5178.0,5718.0 L 5251.0,5646.0 L 5246.0,5506.0 C 5243.0,5413.0 5236.0,5351.0 5226.0,5325.0 C 5203.0,5265.0 5206.0,5248.0 5250.0,5205.0 C 5293.0,5163.0 5299.0,5140.0 5275.0,5120.0 C 5263.0,5110.0 5254.0,5110.0 5234.0,5119.0 C 5201.0,5134.0 5200.0,5134.0 5200.0,5107.0 C 5200.0,5090.0 5209.0,5081.0 5234.0,5072.0 C 5301.0,5048.0 5290.0,4980.0 5220.0,4980.0 C 5187.0,4980.0 5180.0,4983.0 5180.0,5000.0 C 5180.0,5029.0 5125.0,5035.0 5049.0,5014.0 C 4976.0,4995.0 4936.0,4962.0 4859.0,4859.0 C 4815.0,4800.0 4810.0,4787.0 4810.0,4742.0 C 4810.0,4681.0 4801.0,4671.0 4689.0,4606.0 C 4611.0,4560.0 4610.0,4559.0 4610.0,4519.0 C 4610.0,4470.0 4566.0,4404.0 4509.0,4366.0 C 4488.0,4352.0 4459.0,4321.0 4445.0,4296.0 C 4431.0,4272.0 4411.0,4250.0 4401.0,4247.0 C 4389.0,4244.0 4378.0,4223.0 4365.0,4178.0 C 4350.0,4121.0 4343.0,4110.0 4311.0,4092.0 C 4291.0,4081.0 4265.0,4058.0 4252.0,4041.0 C 4240.0,4024.0 4226.0,4010.0 4222.0,4010.0 C 4218.0,4010.0 4205.0,4028.0 4192.0,4050.0 C 4167.0,4095.0 4164.0,4096.0 4113.0,4075.0 C 4094.0,4067.0 4067.0,4060.0 4054.0,4060.0 C 4033.0,4060.0 4030.0,4055.0 4030.0,4025.0 C 4030.0,3990.0 4030.0,3990.0 4075.0,3990.0 C 4113.0,3990.0 4122.0,3986.0 4131.0,3966.0 C 4139.0,3949.0 4139.0,3937.0 4131.0,3921.0 C 4121.0,3902.0 4111.0,3900.0 4044.0,3900.0 C 3970.0,3900.0 3969.0,3899.0 3959.0,3871.0 C 3953.0,3855.0 3932.0,3829.0 3911.0,3812.0 C 3881.0,3788.0 3874.0,3776.0 3877.0,3757.0 C 3880.0,3740.0 3873.0,3722.0 3850.0,3696.0 C 3818.0,3660.0 3818.0,3659.0 3829.0,3601.0 C 3842.0,3534.0 3837.0,3514.0 3801.0,3483.0 C 3767.0,3454.0 3700.0,3452.0 3676.0,3479.0 C 3667.0,3489.0 3642.0,3500.0 3622.0,3503.0 C 3575.0,3511.0 3465.0,3487.0 3440.0,3465.0 C 3422.0,3449.0 3422.0,3445.0 3435.0,3419.0 C 3443.0,3404.0 3450.0,3380.0 3450.0,3366.0 C 3450.0,3336.0 3322.0,3109.0 3281.0,3065.0 C 3262.0,3045.0 3251.0,3020.0 3247.0,2991.0 C 3244.0,2964.0 3232.0,2938.0 3216.0,2921.0 C 3192.0,2896.0 3191.0,2893.0 3207.0,2877.0 C 3227.0,2857.0 3226.0,2788.0 3204.0,2693.0 L 3190.0,2631.0 L 3220.0,2588.0 C 3236.0,2564.0 3256.0,2520.0 3263.0,2490.0 C 3276.0,2440.0 3275.0,2429.0 3256.0,2354.0 C 3231.0,2260.0 3237.0,2208.0 3282.0,2130.0 C 3327.0,2053.0 3332.0,1995.0 3302.0,1872.0 C 3280.0,1779.0 3277.0,1747.0 3279.0,1624.0 L 3282.0,1483.0 L 3251.0,1428.0 C 3234.0,1398.0 3220.0,1364.0 3220.0,1352.0 C 3220.0,1334.0 3214.0,1330.0 3186.0,1330.0 C 3156.0,1330.0 3151.0,1326.0 3145.0,1300.0 C 3141.0,1284.0 3134.0,1268.0 3129.0,1265.0 C 3114.0,1255.0 3118.0,1147.0 3135.0,1124.0 C 3143.0,1112.0 3154.0,1076.0 3159.0,1044.0 L 3168.0,985.0 L 3124.0,940.0 C 3100.0,915.0 3080.0,889.0 3080.0,884.0 C 3080.0,878.0 3090.0,860.0 3101.0,846.0 C 3120.0,822.0 3121.0,817.0 3108.0,804.0 C 3087.0,782.0 3097.0,740.0 3127.0,729.0 C 3158.0,717.0 3170.0,725.0 3170.0,755.0 C 3170.0,784.0 3186.0,796.0 3194.0,774.0 C 3203.0,751.0 3262.0,762.0 3305.0,795.0 C 3335.0,817.0 3380.0,829.0 3380.0,815.0 C 3380.0,812.0 3371.0,792.0 3360.0,770.0 C 3335.0,721.0 3335.0,719.0 3363.0,729.0 C 3393.0,741.0 3436.0,722.0 3477.0,679.0 C 3518.0,635.0 3532.0,598.0 3520.0,564.0 C 3499.0,508.0 3507.0,477.0 3558.0,427.0 C 3584.0,401.0 3613.0,380.0 3623.0,380.0 C 3633.0,380.0 3640.0,372.0 3640.0,360.0 C 3640.0,347.0 3633.0,340.0 3620.0,340.0 C 3605.0,340.0 3600.0,333.0 3600.0,314.0 C 3600.0,271.0 3622.0,210.0 3641.0,199.0 C 3651.0,194.0 3657.0,184.0 3654.0,177.0 C 3652.0,170.0 3669.0,154.0 3696.0,140.0 L 3742.0,115.0 L 3759.0,140.0 C 3796.0,195.0 3862.0,270.0 3874.0,270.0 C 3893.0,270.0 3930.0,226.0 3930.0,203.0 C 3930.0,191.0 3919.0,173.0 3905.0,162.0 C 3891.0,151.0 3880.0,135.0 3880.0,126.0 C 3880.0,106.0 3918.0,104.0 3926.0,124.0 C 3933.0,142.0 3968.0,133.0 3980.0,109.0 C 3989.0,94.0 3985.0,90.0 3956.0,85.0 C 3928.0,79.0 3920.0,71.0 3907.0,39.0 L 3892.0,0.0 L 3944.0,0.0 C 3991.0,0.0 4000.0,4.0 4045.0,45.0 C 4073.0,70.0 4102.0,92.0 4110.0,95.0 C 4138.0,103.0 4375.0,148.0 4455.0,160.0 C 4499.0,166.0 4551.0,178.0 4571.0,185.0 L 4608.0,199.0 L 4614.0,165.0 C 4621.0,131.0 4623.0,130.0 4665.0,130.0 C 4700.0,130.0 4710.0,134.0 4710.0,146.0 C 4710.0,155.0 4718.0,184.0 4727.0,210.0 C 4743.0,255.0 4747.0,259.0 4794.0,272.0 C 4833.0,282.0 4845.0,290.0 4850.0,309.0 L 4856.0,333.0 L 4872.0,308.0 C 4898.0,269.0 4943.0,263.0 4985.0,292.0 C 5007.0,306.0 5020.0,323.0 5020.0,337.0 C 5020.0,362.0 5034.0,366.0 5170.0,375.0 C 5252.0,381.0 5273.0,379.0 5317.0,361.0 C 5377.0,338.0 5387.0,343.0 5392.0,405.0 C 5394.0,438.0 5399.0,446.0 5418.0,448.0 C 5432.0,450.0 5447.0,444.0 5454.0,435.0 C 5465.0,419.0 5469.0,421.0 5493.0,449.0 C 5524.0,486.0 5563.0,490.0 5596.0,459.0 C 5614.0,442.0 5625.0,439.0 5647.0,446.0 C 5673.0,453.0 5673.0,454.0 5653.0,457.0 C 5626.0,462.0 5626.0,463.0 5645.0,500.0 C 5659.0,528.0 5660.0,528.0 5707.0,516.0 C 5754.0,504.0 5757.0,504.0 5858.0,552.0 C 5978.0,608.0 6050.0,616.0 6120.0,580.0 C 6156.0,562.0 6166.0,561.0 6230.0,571.0 C 6269.0,578.0 6302.0,581.0 6304.0,579.0 C 6313.0,570.0 6274.0,433.0 6252.0,394.0 C 6218.0,336.0 6169.0,322.0 5965.0,311.0 L 5846.0,305.0 L 5874.0,286.0 C 5910.0,263.0 6035.0,246.0 6120.0,254.0 C 6184.0,260.0 6185.0,260.0 6256.0,331.0 C 6317.0,391.0 6331.0,413.0 6349.0,466.0 C 6361.0,502.0 6370.0,550.0 6370.0,574.0 C 6370.0,639.0 6400.0,698.0 6463.0,757.0 C 6493.0,786.0 6535.0,839.0 6555.0,876.0 C 6575.0,912.0 6618.0,969.0 6649.0,1002.0 C 6701.0,1058.0 6712.0,1064.0 6756.0,1069.0 L 6805.0,1075.0 L 6811.0,1121.0 C 6825.0,1216.0 6886.0,1300.0 6960.0,1325.0 C 7008.0,1341.0 7060.0,1387.0 7060.0,1415.0 C 7060.0,1431.0 7139.0,1541.0 7196.0,1602.0 C 7220.0,1628.0 7240.0,1658.0 7240.0,1669.0 C 7240.0,1680.0 7253.0,1704.0 7269.0,1722.0 C 7285.0,1740.0 7300.0,1769.0 7304.0,1786.0 C 7308.0,1802.0 7331.0,1839.0 7355.0,1867.0 C 7383.0,1898.0 7400.0,1928.0 7400.0,1943.0 C 7400.0,1959.0 7410.0,1974.0 7428.0,1987.0 C 7490.0,2027.0 7580.0,2139.0 7621.0,2227.0 C 7654.0,2295.0 7681.0,2333.0 7745.0,2401.0 C 7819.0,2479.0 7878.0,2554.0 7934.0,2641.0 C 7955.0,2676.0 8030.0,2892.0 8030.0,2921.0 C 8030.0,2932.0 8041.0,2973.0 8055.0,3012.0 C 8069.0,3051.0 8080.0,3089.0 8080.0,3095.0 C 8080.0,3102.0 8046.0,3143.0 8005.0,3186.0 C 7944.0,3250.0 7930.0,3271.0 7930.0,3297.0 C 7930.0,3325.0 7920.0,3336.0 7845.0,3395.0 C 7798.0,3431.0 7739.0,3479.0 7715.0,3500.0 C 7687.0,3524.0 7656.0,3541.0 7632.0,3545.0 C 7540.0,3560.0 7510.0,3572.0 7510.0,3595.0 C 7510.0,3609.0 7479.0,3649.0 7423.0,3706.0 C 7374.0,3756.0 7325.0,3814.0 7313.0,3837.0 L 7291.0,3877.0 L 7335.0,3910.0 C 7363.0,3931.0 7384.0,3956.0 7391.0,3979.0 C 7398.0,3999.0 7423.0,4053.0 7447.0,4100.0 C 7494.0,4192.0 7498.0,4213.0 7475.0,4267.0 C 7466.0,4288.0 7462.0,4316.0 7465.0,4331.0 C 7471.0,4358.0 7451.0,4378.0 7351.0,4443.0 C 7287.0,4484.0 7257.0,4533.0 7249.0,4608.0 C 7244.0,4657.0 7246.0,4682.0 7256.0,4702.0 C 7274.0,4738.0 7276.0,4918.0 7258.0,4925.0 C 7251.0,4928.0 7211.0,4933.0 7170.0,4938.0 L 7095.0,4945.0 L 7078.0,5015.0 C 7047.0,5145.0 7058.0,5202.0 7121.0,5227.0 C 7143.0,5235.0 7160.0,5245.0 7160.0,5249.0 C 7159.0,5279.0 7123.0,5350.0 7098.0,5372.0 L 7066.0,5400.0 L 7088.0,5439.0 C 7104.0,5466.0 7110.0,5495.0 7110.0,5536.0 C 7110.0,5597.0 7119.0,5643.0 7141.0,5696.0 C 7153.0,5726.0 7152.0,5729.0 7125.0,5753.0 L 7096.0,5778.0 L 7169.0,5815.0 L 7243.0,5852.0 L 7237.0,5933.0 C 7229.0,6043.0 7167.0,6219.0 7110.0,6291.0 C 7088.0,6319.0 7070.0,6348.0 7070.0,6356.0 C 7070.0,6363.0 7052.0,6411.0 7031.0,6462.0 C 7007.0,6520.0 6988.0,6585.0 6981.0,6635.0 C 6972.0,6698.0 6963.0,6724.0 6938.0,6760.0 C 6920.0,6785.0 6882.0,6840.0 6854.0,6883.0 C 6804.0,6959.0 6802.0,6964.0 6795.0,7055.0 C 6788.0,7147.0 6788.0,7148.0 6820.0,7196.0 C 6857.0,7253.0 6961.0,7440.0 7002.0,7522.0 C 7020.0,7558.0 7043.0,7588.0 7064.0,7602.0 C 7104.0,7628.0 7120.0,7675.0 7120.0,7762.0 C 7120.0,7815.0 7120.0,7816.0 7041.0,7898.0 C 6970.0,7971.0 6958.0,7991.0 6917.0,8087.0 L 6872.0,8195.0 L 6779.0,8242.0 C 6727.0,8268.0 6671.0,8294.0 6653.0,8300.0 C 6611.0,8314.0 6598.0,8333.0 6595.0,8378.0 C 6593.0,8398.0 6585.0,8447.0 6576.0,8485.0 C 6567.0,8524.0 6555.0,8583.0 6549.0,8617.0 C 6539.0,8677.0 6539.0,8681.0 6568.0,8722.0 C 6584.0,8746.0 6609.0,8799.0 6624.0,8840.0 C 6640.0,8881.0 6661.0,8935.0 6671.0,8959.0 C 6682.0,8983.0 6688.0,9005.0 6685.0,9009.0 C 6681.0,9012.0 6654.0,9015.0 6625.0,9015.0 C 6596.0,9015.0 6569.0,9018.0 6565.0,9021.0 C 6553.0,9033.0 6609.0,9101.0 6665.0,9143.0 C 6727.0,9188.0 6730.0,9206.0 6689.0,9259.0 C 6658.0,9298.0 6671.0,9387.0 6717.0,9452.0 C 6736.0,9478.0 6758.0,9503.0 6765.0,9508.0 C 6772.0,9512.0 6791.0,9543.0 6808.0,9576.0 C 6843.0,9645.0 6843.0,9645.0 6795.0,9760.0 C 6761.0,9841.0 6757.0,9846.0 6712.0,9861.0 C 6692.0,9867.0 6666.0,9880.0 6655.0,9890.0 C 6644.0,9899.0 6613.0,9915.0 6586.0,9925.0 C 6550.0,9939.0 6513.0,9969.0 6438.0,10043.0 C 6332.0,10149.0 6334.0,10144.0 6356.0,10223.0 C 6362.0,10243.0 6353.0,10244.0 6320.0,10225.0" fill="pink"/>
	<path d="M 4946.0,5217.0 C 4930.0,5205.0 4929.0,5199.0 4939.0,5167.0 C 4946.0,5147.0 4964.0,5122.0 4979.0,5111.0 C 5006.0,5091.0 5007.0,5091.0 5037.0,5110.0 C 5075.0,5133.0 5086.0,5162.0 5070.0,5201.0 C 5059.0,5227.0 5053.0,5230.0 5011.0,5230.0 C 4985.0,5230.0 4956.0,5224.0 4946.0,5217.0" fill="pink"/>
	<path d="M 3266.0,3508.0 C 3270.0,3489.0 3287.0,3461.0 3306.0,3442.0 C 3340.0,3410.0 3360.0,3407.0 3360.0,3435.0 C 3360.0,3442.0 3370.0,3450.0 3383.0,3452.0 C 3401.0,3454.0 3406.0,3462.0 3408.0,3493.0 C 3411.0,3528.0 3399.0,3542.0 3385.0,3520.0 C 3375.0,3505.0 3333.0,3508.0 3326.0,3525.0 C 3323.0,3534.0 3308.0,3540.0 3291.0,3540.0 C 3262.0,3540.0 3261.0,3538.0 3266.0,3508.0" fill="pink"/>
	<path d="M 2356.0,727.0 C 2352.0,706.0 2355.0,691.0 2366.0,679.0 C 2380.0,664.0 2380.0,658.0 2370.0,645.0 C 2363.0,637.0 2347.0,630.0 2334.0,630.0 C 2320.0,630.0 2280.0,624.0 2245.0,618.0 C 2185.0,606.0 2179.0,603.0 2169.0,573.0 C 2155.0,528.0 2174.0,496.0 2204.0,515.0 C 2234.0,534.0 2270.0,518.0 2270.0,486.0 C 2270.0,455.0 2304.0,430.0 2345.0,430.0 C 2370.0,430.0 2380.0,422.0 2402.0,385.0 C 2420.0,356.0 2442.0,335.0 2466.0,325.0 C 2512.0,306.0 2510.0,306.0 2510.0,334.0 C 2510.0,347.0 2524.0,373.0 2540.0,390.0 C 2574.0,427.0 2576.0,453.0 2544.0,458.0 C 2530.0,460.0 2520.0,453.0 2512.0,435.0 C 2498.0,404.0 2490.0,404.0 2456.0,435.0 C 2425.0,464.0 2418.0,517.0 2448.0,505.0 C 2507.0,482.0 2519.0,486.0 2539.0,530.0 C 2550.0,554.0 2556.0,580.0 2552.0,589.0 C 2541.0,620.0 2465.0,695.0 2414.0,727.0 L 2362.0,758.0 L 2356.0,727.0" fill="pink"/>
</svg>
