<?xml version="1.0" ?>
<svg xmlns="http://www.w3.org/2000/svg" xmlns:ev="http://www.w3.org/2001/xml-events" xmlns:xlink="http://www.w3.org/1999/xlink" baseProfile="full" height="427px" version="1.1" viewBox="-1028.5041527413937 753.8950061960726 12290.880472063818 8727.705155281043" width="600px">
	<defs/>
	<path d="M 6713.0,8720.0 C 6684.0,8703.0 6656.0,8690.0 6651.0,8690.0 C 6645.0,8690.0 6603.0,8672.0 6557.0,8650.0 C 6508.0,8627.0 6466.0,8613.0 6454.0,8616.0 C 6442.0,8619.0 6428.0,8615.0 6421.0,8606.0 C 6413.0,8597.0 6402.0,8590.0 6396.0,8590.0 C 6374.0,8590.0 6340.0,8545.0 6340.0,8516.0 C 6340.0,8501.0 6336.0,8491.0 6330.0,8495.0 C 6325.0,8498.0 6320.0,8510.0 6320.0,8521.0 C 6320.0,8531.0 6316.0,8540.0 6310.0,8540.0 C 6305.0,8540.0 6300.0,8532.0 6300.0,8521.0 C 6300.0,8509.0 6291.0,8501.0 6273.0,8497.0 C 6236.0,8490.0 6231.0,8497.0 6255.0,8518.0 C 6266.0,8527.0 6284.0,8545.0 6294.0,8558.0 L 6313.0,8580.0 L 6281.0,8580.0 C 6257.0,8580.0 6247.0,8575.0 6243.0,8561.0 C 6240.0,8550.0 6224.0,8536.0 6206.0,8530.0 C 6176.0,8518.0 6080.0,8509.0 6080.0,8517.0 C 6080.0,8526.0 6125.0,8559.0 6138.0,8560.0 C 6158.0,8560.0 6151.0,8590.0 6131.0,8590.0 C 6120.0,8590.0 6108.0,8595.0 6105.0,8600.0 C 6096.0,8614.0 6060.0,8612.0 6062.0,8598.0 C 6064.0,8589.0 6052.0,8585.0 6027.0,8585.0 C 5999.0,8585.0 5983.0,8579.0 5970.0,8563.0 C 5944.0,8531.0 5937.0,8534.0 5944.0,8575.0 C 5951.0,8609.0 5950.0,8610.0 5930.0,8598.0 C 5918.0,8591.0 5904.0,8566.0 5898.0,8543.0 C 5887.0,8497.0 5871.0,8487.0 5863.0,8520.0 C 5857.0,8543.0 5855.0,8544.0 5828.0,8529.0 C 5813.0,8521.0 5811.0,8516.0 5820.0,8510.0 C 5837.0,8499.0 5823.0,8479.0 5803.0,8487.0 C 5794.0,8491.0 5784.0,8486.0 5778.0,8476.0 C 5769.0,8460.0 5767.0,8460.0 5754.0,8477.0 C 5747.0,8487.0 5740.0,8503.0 5740.0,8513.0 C 5740.0,8523.0 5732.0,8530.0 5720.0,8530.0 C 5696.0,8530.0 5695.0,8523.0 5716.0,8482.0 C 5733.0,8447.0 5725.0,8416.0 5706.0,8442.0 C 5700.0,8450.0 5687.0,8459.0 5678.0,8463.0 C 5668.0,8466.0 5660.0,8478.0 5660.0,8489.0 C 5660.0,8500.0 5656.0,8511.0 5651.0,8515.0 C 5638.0,8523.0 5633.0,8429.0 5645.0,8408.0 C 5658.0,8385.0 5644.0,8374.0 5624.0,8391.0 C 5614.0,8399.0 5610.0,8414.0 5613.0,8433.0 C 5617.0,8466.0 5603.0,8476.0 5564.0,8466.0 C 5538.0,8459.0 5538.0,8459.0 5557.0,8445.0 C 5568.0,8437.0 5580.0,8421.0 5583.0,8409.0 C 5588.0,8391.0 5586.0,8389.0 5562.0,8395.0 C 5547.0,8399.0 5532.0,8407.0 5527.0,8413.0 C 5522.0,8422.0 5516.0,8421.0 5507.0,8409.0 C 5495.0,8394.0 5493.0,8394.0 5471.0,8411.0 C 5443.0,8434.0 5426.0,8426.0 5433.0,8394.0 C 5436.0,8376.0 5430.0,8363.0 5408.0,8345.0 C 5392.0,8331.0 5382.0,8316.0 5385.0,8310.0 C 5396.0,8292.0 5358.0,8286.0 5345.0,8304.0 C 5334.0,8319.0 5332.0,8316.0 5325.0,8284.0 C 5321.0,8262.0 5323.0,8243.0 5329.0,8237.0 C 5335.0,8231.0 5340.0,8217.0 5339.0,8206.0 C 5339.0,8186.0 5338.0,8186.0 5323.0,8208.0 C 5315.0,8220.0 5304.0,8230.0 5300.0,8230.0 C 5296.0,8230.0 5289.0,8220.0 5286.0,8208.0 L 5279.0,8185.0 L 5268.0,8208.0 C 5254.0,8236.0 5249.0,8236.0 5220.0,8205.0 L 5197.0,8181.0 L 5234.0,8140.0 C 5254.0,8118.0 5270.0,8098.0 5270.0,8095.0 C 5270.0,8092.0 5254.0,8090.0 5235.0,8090.0 C 5215.0,8090.0 5201.0,8095.0 5203.0,8101.0 C 5204.0,8107.0 5197.0,8117.0 5187.0,8123.0 C 5173.0,8133.0 5166.0,8132.0 5157.0,8120.0 C 5134.0,8091.0 5093.0,8077.0 5047.0,8083.0 C 5022.0,8087.0 4999.0,8085.0 4993.0,8079.0 C 4985.0,8071.0 4980.0,8072.0 4976.0,8079.0 C 4972.0,8085.0 4960.0,8090.0 4949.0,8090.0 C 4938.0,8090.0 4916.0,8096.0 4901.0,8104.0 C 4875.0,8118.0 4869.0,8117.0 4804.0,8083.0 C 4729.0,8043.0 4665.0,8027.0 4582.0,8026.0 C 4535.0,8025.0 4524.0,8021.0 4496.0,7992.0 C 4466.0,7962.0 4461.0,7960.0 4437.0,7971.0 C 4412.0,7982.0 4369.0,7977.0 4318.0,7955.0 C 4305.0,7950.0 4300.0,7953.0 4300.0,7964.0 C 4300.0,7989.0 4262.0,7983.0 4234.0,7953.0 C 4221.0,7939.0 4207.0,7930.0 4203.0,7933.0 C 4193.0,7944.0 4170.0,7919.0 4170.0,7898.0 C 4170.0,7888.0 4177.0,7877.0 4185.0,7873.0 C 4197.0,7869.0 4193.0,7862.0 4168.0,7843.0 C 4131.0,7817.0 4114.0,7765.0 4133.0,7741.0 C 4143.0,7729.0 4142.0,7728.0 4125.0,7734.0 C 4114.0,7739.0 4097.0,7745.0 4088.0,7747.0 C 4078.0,7750.0 4070.0,7756.0 4070.0,7761.0 C 4070.0,7773.0 4019.0,7772.0 4001.0,7761.0 C 3992.0,7755.0 3989.0,7740.0 3992.0,7716.0 C 3995.0,7692.0 3992.0,7680.0 3983.0,7680.0 C 3976.0,7680.0 3965.0,7661.0 3959.0,7638.0 C 3952.0,7614.0 3942.0,7591.0 3937.0,7585.0 C 3931.0,7579.0 3930.0,7583.0 3934.0,7596.0 C 3945.0,7633.0 3931.0,7650.0 3889.0,7650.0 C 3858.0,7650.0 3844.0,7643.0 3815.0,7615.0 C 3796.0,7595.0 3780.0,7573.0 3780.0,7565.0 C 3780.0,7557.0 3755.0,7539.0 3725.0,7525.0 C 3648.0,7488.0 3574.0,7492.0 3551.0,7534.0 C 3532.0,7568.0 3519.0,7570.0 3505.0,7541.0 C 3487.0,7503.0 3441.0,7524.0 3456.0,7564.0 C 3463.0,7581.0 3434.0,7610.0 3411.0,7610.0 C 3385.0,7610.0 3327.0,7589.0 3311.0,7574.0 C 3299.0,7563.0 3299.0,7559.0 3313.0,7546.0 C 3322.0,7537.0 3332.0,7521.0 3335.0,7510.0 C 3343.0,7484.0 3367.0,7484.0 3375.0,7510.0 C 3379.0,7521.0 3390.0,7530.0 3402.0,7530.0 C 3417.0,7530.0 3420.0,7527.0 3413.0,7518.0 C 3408.0,7511.0 3396.0,7484.0 3386.0,7458.0 C 3373.0,7423.0 3363.0,7410.0 3349.0,7410.0 C 3336.0,7410.0 3330.0,7403.0 3330.0,7386.0 C 3330.0,7373.0 3323.0,7359.0 3314.0,7356.0 C 3289.0,7347.0 3287.0,7349.0 3301.0,7366.0 C 3312.0,7380.0 3311.0,7384.0 3295.0,7396.0 C 3278.0,7409.0 3273.0,7407.0 3248.0,7383.0 C 3233.0,7369.0 3218.0,7348.0 3214.0,7338.0 C 3211.0,7328.0 3205.0,7322.0 3200.0,7325.0 C 3185.0,7334.0 3181.0,7285.0 3195.0,7263.0 C 3203.0,7251.0 3212.0,7223.0 3216.0,7201.0 C 3221.0,7167.0 3227.0,7160.0 3251.0,7155.0 C 3283.0,7148.0 3346.0,7165.0 3371.0,7187.0 C 3401.0,7212.0 3504.0,7201.0 3520.0,7170.0 C 3527.0,7157.0 3525.0,7143.0 3513.0,7122.0 C 3497.0,7094.0 3497.0,7090.0 3514.0,7051.0 C 3524.0,7029.0 3541.0,7003.0 3551.0,6995.0 C 3560.0,6986.0 3589.0,6926.0 3614.0,6862.0 C 3640.0,6798.0 3673.0,6729.0 3689.0,6711.0 L 3718.0,6676.0 L 3796.0,6688.0 C 3839.0,6695.0 3884.0,6707.0 3897.0,6715.0 C 3920.0,6730.0 3929.0,6760.0 3911.0,6760.0 C 3896.0,6760.0 3869.0,6791.0 3875.0,6801.0 C 3879.0,6806.0 3890.0,6810.0 3901.0,6810.0 C 3924.0,6810.0 3940.0,6845.0 3933.0,6882.0 C 3929.0,6905.0 3932.0,6909.0 3959.0,6915.0 C 3976.0,6919.0 3990.0,6927.0 3990.0,6935.0 C 3990.0,6942.0 4001.0,6951.0 4015.0,6954.0 C 4029.0,6958.0 4045.0,6971.0 4049.0,6983.0 C 4064.0,7021.0 4084.0,7032.0 4121.0,7023.0 C 4148.0,7016.0 4162.0,7003.0 4177.0,6972.0 C 4177.0,6970.0 4188.0,6975.0 4200.0,6982.0 C 4223.0,6996.0 4222.0,6996.0 4266.0,6935.0 C 4276.0,6921.0 4290.0,6917.0 4315.0,6918.0 C 4339.0,6920.0 4356.0,6914.0 4370.0,6900.0 C 4395.0,6875.0 4415.0,6875.0 4463.0,6900.0 C 4483.0,6911.0 4511.0,6920.0 4524.0,6920.0 C 4550.0,6920.0 4563.0,6940.0 4554.0,6965.0 C 4550.0,6975.0 4534.0,6980.0 4510.0,6980.0 C 4488.0,6980.0 4468.0,6985.0 4465.0,6990.0 C 4453.0,7009.0 4441.0,7000.0 4434.0,6965.0 C 4431.0,6946.0 4424.0,6930.0 4419.0,6930.0 C 4404.0,6930.0 4405.0,6933.0 4484.0,7100.0 C 4501.0,7136.0 4558.0,7171.0 4595.0,7168.0 C 4622.0,7165.0 4628.0,7170.0 4655.0,7222.0 C 4676.0,7262.0 4694.0,7283.0 4713.0,7289.0 C 4728.0,7295.0 4749.0,7315.0 4761.0,7334.0 C 4788.0,7381.0 4833.0,7407.0 4900.0,7415.0 C 4947.0,7421.0 4966.0,7418.0 5021.0,7395.0 C 5058.0,7381.0 5100.0,7356.0 5115.0,7339.0 C 5133.0,7321.0 5154.0,7310.0 5171.0,7310.0 C 5202.0,7310.0 5219.0,7292.0 5200.0,7280.0 C 5193.0,7276.0 5190.0,7268.0 5193.0,7263.0 C 5196.0,7258.0 5175.0,7242.0 5146.0,7227.0 C 5117.0,7212.0 5078.0,7184.0 5060.0,7165.0 L 5027.0,7131.0 L 5051.0,7121.0 C 5068.0,7115.0 5080.0,7116.0 5091.0,7126.0 C 5099.0,7134.0 5117.0,7140.0 5131.0,7140.0 C 5144.0,7140.0 5195.0,7148.0 5244.0,7157.0 C 5332.0,7174.0 5333.0,7174.0 5371.0,7152.0 C 5415.0,7127.0 5447.0,7125.0 5474.0,7145.0 C 5486.0,7154.0 5516.0,7160.0 5548.0,7160.0 C 5577.0,7160.0 5610.0,7164.0 5620.0,7170.0 C 5645.0,7183.0 5670.0,7173.0 5670.0,7149.0 C 5670.0,7139.0 5673.0,7130.0 5677.0,7130.0 C 5687.0,7130.0 5813.0,7201.0 5835.0,7220.0 C 5867.0,7247.0 5925.0,7277.0 5960.0,7285.0 C 5980.0,7289.0 5994.0,7300.0 5997.0,7311.0 C 6004.0,7335.0 6041.0,7345.0 6069.0,7331.0 C 6082.0,7324.0 6109.0,7322.0 6139.0,7326.0 C 6183.0,7332.0 6193.0,7329.0 6234.0,7300.0 C 6265.0,7279.0 6290.0,7270.0 6308.0,7272.0 C 6329.0,7274.0 6336.0,7270.0 6338.0,7253.0 C 6342.0,7229.0 6385.0,7196.0 6401.0,7205.0 C 6406.0,7209.0 6418.0,7206.0 6427.0,7199.0 C 6441.0,7187.0 6442.0,7190.0 6435.0,7228.0 C 6429.0,7267.0 6430.0,7270.0 6450.0,7270.0 C 6464.0,7270.0 6474.0,7262.0 6477.0,7250.0 C 6484.0,7224.0 6501.0,7229.0 6517.0,7261.0 C 6529.0,7283.0 6527.0,7287.0 6502.0,7307.0 C 6487.0,7319.0 6461.0,7341.0 6443.0,7355.0 C 6425.0,7370.0 6413.0,7387.0 6416.0,7395.0 C 6419.0,7402.0 6417.0,7418.0 6410.0,7429.0 C 6401.0,7446.0 6390.0,7450.0 6350.0,7450.0 C 6294.0,7450.0 6282.0,7469.0 6325.0,7488.0 C 6339.0,7494.0 6350.0,7508.0 6350.0,7518.0 C 6350.0,7529.0 6359.0,7545.0 6370.0,7555.0 C 6381.0,7565.0 6390.0,7579.0 6390.0,7585.0 C 6390.0,7592.0 6401.0,7605.0 6415.0,7614.0 C 6430.0,7624.0 6440.0,7640.0 6440.0,7654.0 C 6440.0,7667.0 6447.0,7683.0 6455.0,7690.0 C 6463.0,7697.0 6470.0,7717.0 6470.0,7736.0 C 6470.0,7759.0 6477.0,7774.0 6492.0,7784.0 C 6518.0,7802.0 6542.0,7882.0 6534.0,7922.0 C 6529.0,7946.0 6525.0,7949.0 6502.0,7944.0 C 6487.0,7940.0 6457.0,7918.0 6435.0,7895.0 C 6405.0,7864.0 6378.0,7847.0 6330.0,7831.0 C 6251.0,7805.0 6225.0,7789.0 6146.0,7713.0 C 6113.0,7681.0 6073.0,7647.0 6059.0,7638.0 C 6045.0,7629.0 6019.0,7592.0 6002.0,7556.0 C 5985.0,7520.0 5966.0,7490.0 5960.0,7490.0 C 5955.0,7490.0 5950.0,7484.0 5950.0,7478.0 C 5950.0,7471.0 5929.0,7457.0 5904.0,7446.0 C 5872.0,7433.0 5847.0,7412.0 5818.0,7374.0 C 5788.0,7334.0 5768.0,7318.0 5740.0,7310.0 C 5713.0,7303.0 5695.0,7289.0 5680.0,7265.0 C 5655.0,7225.0 5653.0,7224.0 5630.0,7245.0 C 5615.0,7258.0 5602.0,7259.0 5549.0,7251.0 C 5515.0,7245.0 5484.0,7242.0 5482.0,7245.0 C 5479.0,7247.0 5484.0,7260.0 5492.0,7272.0 C 5507.0,7296.0 5505.0,7366.0 5489.0,7376.0 C 5475.0,7384.0 5478.0,7400.0 5494.0,7400.0 C 5501.0,7400.0 5528.0,7432.0 5553.0,7470.0 C 5583.0,7518.0 5613.0,7550.0 5644.0,7570.0 C 5687.0,7597.0 5703.0,7620.0 5680.0,7620.0 C 5675.0,7620.0 5682.0,7632.0 5695.0,7646.0 C 5712.0,7665.0 5718.0,7679.0 5714.0,7698.0 C 5708.0,7726.0 5739.0,7770.0 5763.0,7770.0 C 5770.0,7770.0 5783.0,7779.0 5793.0,7790.0 C 5802.0,7801.0 5819.0,7810.0 5830.0,7810.0 C 5840.0,7810.0 5854.0,7819.0 5860.0,7830.0 C 5870.0,7848.0 5967.0,7900.0 5991.0,7900.0 C 6018.0,7900.0 6095.0,7970.0 6117.0,8015.0 C 6130.0,8043.0 6150.0,8079.0 6160.0,8095.0 C 6171.0,8112.0 6184.0,8135.0 6190.0,8148.0 C 6195.0,8160.0 6210.0,8175.0 6224.0,8181.0 C 6239.0,8188.0 6252.0,8207.0 6260.0,8233.0 C 6266.0,8256.0 6283.0,8288.0 6296.0,8305.0 C 6309.0,8322.0 6323.0,8354.0 6328.0,8376.0 C 6333.0,8403.0 6342.0,8416.0 6355.0,8418.0 C 6366.0,8420.0 6401.0,8449.0 6433.0,8481.0 C 6495.0,8544.0 6518.0,8560.0 6547.0,8560.0 C 6558.0,8560.0 6579.0,8574.0 6596.0,8591.0 C 6612.0,8609.0 6657.0,8638.0 6695.0,8656.0 C 6734.0,8675.0 6772.0,8694.0 6780.0,8699.0 C 6788.0,8704.0 6803.0,8711.0 6813.0,8714.0 C 6822.0,8717.0 6830.0,8726.0 6830.0,8735.0 C 6830.0,8760.0 6770.0,8753.0 6713.0,8720.0" fill="pink"/>
	<path d="M 4577.0,8562.0 C 4557.0,8540.0 4555.0,8510.0 4574.0,8510.0 C 4581.0,8510.0 4599.0,8519.0 4614.0,8531.0 C 4635.0,8548.0 4638.0,8555.0 4629.0,8566.0 C 4613.0,8585.0 4596.0,8584.0 4577.0,8562.0" fill="pink"/>
	<path d="M 6792.0,7962.0 C 6712.0,7921.0 6657.0,7865.0 6646.0,7813.0 C 6638.0,7776.0 6651.0,7770.0 6683.0,7795.0 C 6704.0,7811.0 6730.0,7805.0 6730.0,7784.0 C 6730.0,7767.0 6750.0,7766.0 6802.0,7782.0 C 6854.0,7797.0 6865.0,7819.0 6845.0,7867.0 C 6829.0,7905.0 6829.0,7906.0 6871.0,7930.0 C 6880.0,7935.0 6890.0,7953.0 6892.0,7970.0 C 6898.0,8010.0 6884.0,8009.0 6792.0,7962.0" fill="pink"/>
	<path d="M 3426.0,7715.0 C 3415.0,7707.0 3398.0,7700.0 3388.0,7700.0 C 3378.0,7700.0 3370.0,7693.0 3370.0,7685.0 C 3370.0,7660.0 3446.0,7666.0 3507.0,7696.0 C 3536.0,7711.0 3560.0,7724.0 3560.0,7726.0 C 3560.0,7738.0 3442.0,7727.0 3426.0,7715.0" fill="pink"/>
	<path d="M 6534.0,7565.0 C 6530.0,7555.0 6520.0,7552.0 6506.0,7556.0 C 6477.0,7563.0 6456.0,7538.0 6465.0,7509.0 C 6471.0,7490.0 6469.0,7488.0 6452.0,7493.0 C 6429.0,7498.0 6404.0,7477.0 6415.0,7460.0 C 6423.0,7447.0 6466.0,7447.0 6493.0,7461.0 C 6536.0,7483.0 6570.0,7523.0 6570.0,7552.0 C 6570.0,7582.0 6544.0,7592.0 6534.0,7565.0" fill="pink"/>
	<path d="M 1092.0,7453.0 C 1098.0,7409.0 1103.0,7415.0 924.0,7245.0 C 844.0,7170.0 832.0,7162.0 827.0,7179.0 C 821.0,7205.0 800.0,7207.0 800.0,7182.0 C 800.0,7172.0 794.0,7158.0 788.0,7152.0 C 767.0,7131.0 799.0,7118.0 859.0,7125.0 C 920.0,7131.0 940.0,7143.0 940.0,7172.0 C 940.0,7182.0 987.0,7238.0 1050.0,7301.0 C 1111.0,7362.0 1160.0,7418.0 1160.0,7424.0 C 1160.0,7436.0 1128.0,7470.0 1101.0,7485.0 C 1090.0,7492.0 1088.0,7485.0 1092.0,7453.0" fill="pink"/>
	<path d="M 6922.0,7366.0 C 6893.0,7349.0 6855.0,7318.0 6837.0,7299.0 C 6819.0,7280.0 6788.0,7252.0 6768.0,7236.0 C 6748.0,7221.0 6719.0,7187.0 6704.0,7162.0 C 6689.0,7136.0 6662.0,7098.0 6644.0,7078.0 C 6626.0,7058.0 6606.0,7022.0 6600.0,7000.0 C 6592.0,6969.0 6567.0,6935.0 6504.0,6870.0 C 6458.0,6822.0 6420.0,6776.0 6420.0,6768.0 C 6420.0,6760.0 6429.0,6741.0 6441.0,6726.0 C 6455.0,6708.0 6460.0,6692.0 6456.0,6675.0 C 6451.0,6657.0 6455.0,6648.0 6471.0,6640.0 C 6488.0,6630.0 6498.0,6633.0 6529.0,6654.0 C 6549.0,6668.0 6572.0,6680.0 6579.0,6680.0 C 6602.0,6680.0 6655.0,6712.0 6691.0,6749.0 C 6775.0,6832.0 6819.0,6870.0 6834.0,6870.0 C 6842.0,6870.0 6864.0,6888.0 6881.0,6910.0 C 6907.0,6942.0 6920.0,6950.0 6947.0,6950.0 C 6978.0,6950.0 6980.0,6952.0 6980.0,6984.0 C 6980.0,7025.0 7013.0,7086.0 7039.0,7093.0 C 7053.0,7096.0 7056.0,7104.0 7053.0,7122.0 C 7049.0,7144.0 7053.0,7148.0 7081.0,7154.0 L 7114.0,7160.0 L 7072.0,7203.0 C 7037.0,7239.0 7030.0,7252.0 7030.0,7285.0 C 7030.0,7326.0 7003.0,7392.0 6985.0,7396.0 C 6980.0,7397.0 6951.0,7384.0 6922.0,7366.0" fill="pink"/>
	<path d="M 7413.0,7243.0 C 7416.0,7185.0 7419.0,7175.0 7436.0,7172.0 C 7446.0,7171.0 7461.0,7174.0 7469.0,7179.0 C 7480.0,7186.0 7479.0,7192.0 7465.0,7214.0 C 7455.0,7228.0 7450.0,7251.0 7452.0,7264.0 C 7456.0,7285.0 7436.0,7310.0 7415.0,7310.0 C 7412.0,7310.0 7411.0,7280.0 7413.0,7243.0" fill="pink"/>
	<path d="M 7186.0,7248.0 C 7168.0,7238.0 7168.0,7236.0 7184.0,7225.0 C 7199.0,7214.0 7198.0,7211.0 7175.0,7196.0 C 7161.0,7187.0 7150.0,7173.0 7150.0,7165.0 C 7150.0,7146.0 7192.0,7117.0 7201.0,7131.0 C 7205.0,7137.0 7222.0,7139.0 7245.0,7134.0 C 7282.0,7127.0 7283.0,7128.0 7277.0,7153.0 C 7272.0,7171.0 7275.0,7180.0 7286.0,7184.0 C 7310.0,7193.0 7340.0,7191.0 7340.0,7180.0 C 7340.0,7175.0 7345.0,7170.0 7350.0,7170.0 C 7356.0,7170.0 7360.0,7179.0 7360.0,7189.0 C 7360.0,7200.0 7365.0,7212.0 7370.0,7215.0 C 7383.0,7223.0 7383.0,7260.0 7370.0,7260.0 C 7364.0,7260.0 7344.0,7253.0 7325.0,7246.0 C 7295.0,7233.0 7287.0,7233.0 7263.0,7245.0 C 7230.0,7263.0 7212.0,7263.0 7186.0,7248.0" fill="pink"/>
	<path d="M 2730.0,7206.0 C 2730.0,7199.0 2736.0,7187.0 2744.0,7180.0 C 2752.0,7174.0 2757.0,7163.0 2754.0,7157.0 C 2749.0,7141.0 2831.0,7097.0 2843.0,7109.0 C 2848.0,7114.0 2849.0,7137.0 2845.0,7159.0 C 2839.0,7194.0 2835.0,7200.0 2819.0,7195.0 C 2808.0,7191.0 2786.0,7196.0 2768.0,7204.0 C 2730.0,7223.0 2730.0,7223.0 2730.0,7206.0" fill="pink"/>
	<path d="M 769.0,7084.0 C 762.0,7075.0 750.0,7053.0 745.0,7036.0 C 737.0,7012.0 730.0,7006.0 713.0,7008.0 C 695.0,7011.0 690.0,7005.0 685.0,6976.0 C 675.0,6926.0 701.0,6895.0 715.0,6940.0 C 718.0,6951.0 728.0,6960.0 736.0,6960.0 C 754.0,6960.0 790.0,6996.0 790.0,7014.0 C 790.0,7022.0 795.0,7032.0 800.0,7035.0 C 814.0,7043.0 813.0,7063.0 797.0,7084.0 C 785.0,7101.0 783.0,7101.0 769.0,7084.0" fill="pink"/>
	<path d="M 550.0,6856.0 C 534.0,6836.0 541.0,6796.0 563.0,6792.0 C 575.0,6790.0 580.0,6795.0 580.0,6810.0 C 580.0,6823.0 588.0,6834.0 600.0,6837.0 C 611.0,6840.0 620.0,6849.0 620.0,6856.0 C 620.0,6875.0 566.0,6874.0 550.0,6856.0" fill="pink"/>
	<path d="M 538.0,6760.0 C 515.0,6746.0 477.0,6683.0 485.0,6670.0 C 497.0,6651.0 520.0,6660.0 536.0,6693.0 C 546.0,6710.0 560.0,6730.0 568.0,6736.0 C 576.0,6742.0 580.0,6752.0 576.0,6758.0 C 567.0,6772.0 560.0,6773.0 538.0,6760.0" fill="pink"/>
	<path d="M 317.0,6541.0 C 298.0,6519.0 273.0,6482.0 262.0,6457.0 C 251.0,6433.0 237.0,6409.0 231.0,6406.0 C 225.0,6402.0 220.0,6390.0 220.0,6380.0 C 220.0,6370.0 209.0,6349.0 196.0,6333.0 C 175.0,6308.0 155.0,6239.0 169.0,6241.0 C 179.0,6241.0 260.0,6360.0 260.0,6374.0 C 260.0,6381.0 267.0,6394.0 276.0,6401.0 C 290.0,6412.0 294.0,6411.0 306.0,6396.0 C 318.0,6379.0 319.0,6379.0 326.0,6405.0 C 330.0,6423.0 349.0,6442.0 382.0,6462.0 C 434.0,6494.0 480.0,6563.0 458.0,6576.0 C 448.0,6583.0 441.0,6576.0 404.0,6525.0 C 384.0,6498.0 354.0,6517.0 358.0,6554.0 C 360.0,6568.0 359.0,6580.0 357.0,6580.0 C 354.0,6580.0 336.0,6562.0 317.0,6541.0" fill="pink"/>
	<path d="M 8950.0,6356.0 C 8950.0,6349.0 8957.0,6337.0 8965.0,6330.0 C 8973.0,6323.0 8980.0,6307.0 8980.0,6294.0 C 8980.0,6274.0 8985.0,6270.0 9009.0,6270.0 C 9025.0,6270.0 9052.0,6267.0 9069.0,6264.0 C 9114.0,6255.0 9111.0,6219.0 9061.0,6165.0 C 9032.0,6133.0 9020.0,6110.0 9015.0,6076.0 C 9005.0,6014.0 9015.0,5980.0 9041.0,5980.0 C 9060.0,5980.0 9062.0,5984.0 9056.0,6024.0 C 9048.0,6074.0 9058.0,6088.0 9120.0,6120.0 C 9233.0,6178.0 9207.0,6291.0 9077.0,6306.0 C 9028.0,6312.0 9015.0,6318.0 8997.0,6341.0 C 8975.0,6372.0 8950.0,6379.0 8950.0,6356.0" fill="pink"/>
	<path d="M 5232.0,6127.0 C 5194.0,6115.0 5183.0,6085.0 5199.0,6038.0 C 5207.0,6016.0 5209.0,5967.0 5204.0,5886.0 L 5197.0,5767.0 L 5236.0,5789.0 C 5298.0,5824.0 5316.0,5843.0 5345.0,5900.0 C 5370.0,5950.0 5372.0,5961.0 5367.0,6036.0 C 5365.0,6081.0 5359.0,6123.0 5356.0,6129.0 C 5347.0,6143.0 5276.0,6142.0 5232.0,6127.0" fill="pink"/>
	<path d="M 7.0,6116.0 C 3.0,6106.0 0.0,6072.0 0.0,6039.0 C 0.0,5987.0 2.0,5980.0 20.0,5980.0 C 30.0,5980.0 43.0,5987.0 48.0,5997.0 C 57.0,6012.0 58.0,6011.0 64.0,5993.0 C 68.0,5982.0 66.0,5961.0 60.0,5946.0 C 45.0,5905.0 47.0,5900.0 85.0,5900.0 C 125.0,5900.0 129.0,5913.0 106.0,5978.0 C 94.0,6013.0 94.0,6021.0 106.0,6039.0 C 115.0,6052.0 118.0,6069.0 114.0,6087.0 C 103.0,6132.0 99.0,6133.0 69.0,6104.0 C 53.0,6089.0 40.0,6081.0 40.0,6086.0 C 40.0,6092.0 34.0,6104.0 27.0,6114.0 C 14.0,6132.0 13.0,6132.0 7.0,6116.0" fill="pink"/>
	<path d="M 2480.0,5959.0 C 2480.0,5947.0 2460.0,5917.0 2434.0,5891.0 C 2392.0,5849.0 2387.0,5847.0 2375.0,5863.0 C 2365.0,5878.0 2361.0,5878.0 2351.0,5866.0 C 2342.0,5856.0 2314.0,5852.0 2237.0,5854.0 C 2181.0,5855.0 2129.0,5859.0 2123.0,5863.0 C 2114.0,5869.0 2110.0,5864.0 2110.0,5849.0 C 2110.0,5815.0 2061.0,5751.0 2023.0,5735.0 C 2005.0,5727.0 1990.0,5716.0 1990.0,5711.0 C 1990.0,5696.0 1924.0,5697.0 1882.0,5712.0 C 1851.0,5724.0 1846.0,5723.0 1831.0,5703.0 C 1815.0,5684.0 1812.0,5683.0 1788.0,5698.0 C 1764.0,5712.0 1760.0,5712.0 1734.0,5691.0 C 1715.0,5676.0 1703.0,5673.0 1696.0,5680.0 C 1691.0,5685.0 1670.0,5690.0 1651.0,5690.0 L 1615.0,5691.0 L 1640.0,5713.0 C 1660.0,5730.0 1666.0,5746.0 1668.0,5788.0 C 1671.0,5839.0 1670.0,5841.0 1650.0,5830.0 C 1638.0,5824.0 1624.0,5807.0 1618.0,5794.0 C 1608.0,5772.0 1601.0,5769.0 1575.0,5774.0 C 1531.0,5783.0 1502.0,5752.0 1518.0,5714.0 C 1537.0,5674.0 1533.0,5660.0 1503.0,5660.0 C 1487.0,5660.0 1468.0,5664.0 1460.0,5669.0 C 1435.0,5686.0 1429.0,5669.0 1451.0,5642.0 C 1471.0,5616.0 1471.0,5615.0 1453.0,5612.0 C 1430.0,5607.0 1390.0,5571.0 1390.0,5554.0 C 1390.0,5530.0 1368.0,5527.0 1341.0,5547.0 C 1327.0,5558.0 1293.0,5570.0 1266.0,5574.0 C 1222.0,5581.0 1215.0,5579.0 1199.0,5559.0 C 1183.0,5537.0 1181.0,5537.0 1157.0,5553.0 C 1134.0,5568.0 1131.0,5568.0 1115.0,5550.0 C 1105.0,5539.0 1090.0,5528.0 1080.0,5525.0 C 1071.0,5522.0 1058.0,5508.0 1052.0,5495.0 C 1038.0,5464.0 1008.0,5463.0 995.0,5492.0 C 989.0,5504.0 980.0,5515.0 973.0,5517.0 C 958.0,5522.0 940.0,5458.0 940.0,5398.0 C 940.0,5371.0 935.0,5348.0 928.0,5343.0 C 921.0,5339.0 910.0,5326.0 904.0,5316.0 C 899.0,5305.0 874.0,5291.0 849.0,5283.0 C 802.0,5269.0 758.0,5236.0 747.0,5206.0 C 741.0,5191.0 733.0,5189.0 700.0,5194.0 C 658.0,5201.0 652.0,5194.0 670.0,5159.0 C 678.0,5144.0 677.0,5140.0 665.0,5140.0 C 646.0,5140.0 645.0,5116.0 663.0,5101.0 C 671.0,5095.0 691.0,5087.0 709.0,5084.0 C 731.0,5079.0 742.0,5070.0 746.0,5054.0 C 750.0,5039.0 759.0,5030.0 772.0,5030.0 C 790.0,5030.0 792.0,5025.0 786.0,4999.0 C 783.0,4982.0 780.0,4956.0 780.0,4941.0 C 780.0,4919.0 769.0,4908.0 723.0,4880.0 C 648.0,4834.0 629.0,4812.0 632.0,4775.0 C 635.0,4748.0 631.0,4744.0 599.0,4736.0 C 576.0,4730.0 558.0,4717.0 547.0,4697.0 C 531.0,4671.0 526.0,4668.0 494.0,4673.0 C 431.0,4683.0 405.0,4672.0 383.0,4627.0 C 362.0,4581.0 363.0,4548.0 386.0,4557.0 C 394.0,4560.0 400.0,4556.0 400.0,4546.0 C 400.0,4537.0 393.0,4530.0 384.0,4530.0 C 376.0,4530.0 372.0,4525.0 375.0,4520.0 C 379.0,4514.0 370.0,4496.0 356.0,4479.0 C 326.0,4443.0 324.0,4428.0 347.0,4405.0 C 359.0,4392.0 360.0,4386.0 351.0,4381.0 C 342.0,4375.0 350.0,4359.0 379.0,4326.0 C 402.0,4300.0 420.0,4270.0 420.0,4259.0 C 420.0,4245.0 429.0,4238.0 451.0,4233.0 C 502.0,4223.0 519.0,4150.0 470.0,4150.0 C 445.0,4150.0 442.0,4112.0 468.0,4103.0 C 477.0,4100.0 499.0,4085.0 515.0,4070.0 C 546.0,4042.0 627.0,4020.0 701.0,4020.0 C 728.0,4020.0 740.0,4015.0 745.0,4003.0 C 755.0,3970.0 799.0,3930.0 827.0,3925.0 C 842.0,3923.0 914.0,3914.0 985.0,3905.0 C 1057.0,3896.0 1138.0,3883.0 1165.0,3875.0 C 1193.0,3867.0 1258.0,3851.0 1310.0,3839.0 C 1362.0,3827.0 1421.0,3812.0 1440.0,3805.0 C 1552.0,3766.0 1609.0,3750.0 1638.0,3750.0 C 1660.0,3750.0 1670.0,3745.0 1670.0,3735.0 C 1670.0,3727.0 1675.0,3720.0 1680.0,3720.0 C 1686.0,3720.0 1696.0,3708.0 1702.0,3694.0 L 1714.0,3669.0 L 1732.0,3692.0 L 1750.0,3715.0 L 1769.0,3692.0 C 1782.0,3677.0 1799.0,3670.0 1824.0,3670.0 C 1853.0,3670.0 1862.0,3675.0 1875.0,3700.0 C 1894.0,3737.0 1917.0,3739.0 1926.0,3705.0 C 1933.0,3676.0 1942.0,3674.0 1960.0,3695.0 C 1976.0,3714.0 2000.0,3715.0 2000.0,3696.0 C 2000.0,3680.0 2024.0,3668.0 2035.0,3678.0 C 2039.0,3682.0 2074.0,3685.0 2113.0,3686.0 C 2153.0,3686.0 2195.0,3692.0 2207.0,3698.0 C 2243.0,3718.0 2313.0,3713.0 2327.0,3690.0 C 2338.0,3674.0 2344.0,3672.0 2369.0,3681.0 C 2412.0,3696.0 2490.0,3768.0 2507.0,3807.0 C 2519.0,3837.0 2524.0,3840.0 2565.0,3840.0 C 2617.0,3840.0 2655.0,3869.0 2647.0,3901.0 C 2643.0,3915.0 2648.0,3922.0 2667.0,3926.0 C 2680.0,3930.0 2697.0,3927.0 2703.0,3921.0 C 2718.0,3906.0 2740.0,3907.0 2740.0,3923.0 C 2740.0,3940.0 2813.0,4020.0 2828.0,4020.0 C 2834.0,4020.0 2845.0,4011.0 2853.0,4000.0 C 2878.0,3964.0 2947.0,3998.0 2938.0,4042.0 C 2934.0,4062.0 3003.0,4055.0 3015.0,4034.0 C 3021.0,4025.0 3038.0,4002.0 3054.0,3983.0 L 3083.0,3949.0 L 3106.0,3971.0 C 3119.0,3984.0 3130.0,4001.0 3130.0,4010.0 C 3130.0,4031.0 3203.0,4083.0 3226.0,4078.0 C 3235.0,4077.0 3252.0,4063.0 3263.0,4048.0 C 3280.0,4025.0 3281.0,4018.0 3270.0,4005.0 C 3263.0,3997.0 3260.0,3987.0 3263.0,3984.0 C 3269.0,3978.0 3395.0,4007.0 3421.0,4020.0 C 3436.0,4029.0 3459.0,4069.0 3480.0,4127.0 C 3493.0,4163.0 3511.0,4162.0 3528.0,4124.0 C 3535.0,4111.0 3543.0,4100.0 3547.0,4100.0 C 3552.0,4100.0 3570.0,4119.0 3589.0,4141.0 C 3614.0,4171.0 3620.0,4184.0 3611.0,4193.0 C 3592.0,4212.0 3598.0,4229.0 3630.0,4249.0 C 3658.0,4266.0 3659.0,4268.0 3642.0,4283.0 C 3626.0,4298.0 3623.0,4296.0 3592.0,4260.0 C 3575.0,4239.0 3560.0,4212.0 3560.0,4201.0 C 3560.0,4174.0 3520.0,4171.0 3520.0,4198.0 C 3520.0,4207.0 3513.0,4224.0 3505.0,4234.0 C 3497.0,4245.0 3493.0,4263.0 3496.0,4277.0 C 3501.0,4294.0 3495.0,4306.0 3471.0,4327.0 C 3436.0,4358.0 3432.0,4375.0 3456.0,4384.0 C 3471.0,4390.0 3471.0,4392.0 3454.0,4411.0 C 3444.0,4422.0 3417.0,4439.0 3393.0,4450.0 C 3346.0,4470.0 3345.0,4472.0 3359.0,4498.0 C 3365.0,4507.0 3371.0,4527.0 3375.0,4543.0 C 3381.0,4573.0 3401.0,4578.0 3420.0,4556.0 C 3426.0,4548.0 3438.0,4544.0 3446.0,4547.0 C 3457.0,4551.0 3458.0,4556.0 3451.0,4563.0 C 3431.0,4583.0 3440.0,4607.0 3476.0,4635.0 C 3501.0,4654.0 3509.0,4665.0 3501.0,4673.0 C 3494.0,4680.0 3483.0,4680.0 3465.0,4672.0 C 3436.0,4659.0 3433.0,4666.0 3456.0,4691.0 C 3478.0,4715.0 3466.0,4730.0 3424.0,4730.0 C 3386.0,4730.0 3384.0,4734.0 3405.0,4783.0 C 3418.0,4814.0 3418.0,4819.0 3404.0,4824.0 C 3395.0,4827.0 3378.0,4827.0 3364.0,4824.0 C 3346.0,4819.0 3340.0,4822.0 3340.0,4834.0 C 3340.0,4844.0 3331.0,4850.0 3315.0,4850.0 C 3292.0,4850.0 3291.0,4852.0 3302.0,4875.0 C 3308.0,4889.0 3324.0,4907.0 3337.0,4915.0 C 3351.0,4925.0 3360.0,4940.0 3360.0,4957.0 C 3360.0,4971.0 3373.0,5011.0 3389.0,5045.0 C 3415.0,5099.0 3417.0,5110.0 3407.0,5142.0 C 3398.0,5169.0 3385.0,5183.0 3346.0,5203.0 C 3318.0,5217.0 3285.0,5232.0 3273.0,5235.0 C 3245.0,5243.0 3200.0,5295.0 3200.0,5321.0 C 3200.0,5346.0 3132.0,5380.0 3082.0,5380.0 C 3057.0,5380.0 3032.0,5389.0 3010.0,5405.0 C 2991.0,5419.0 2965.0,5430.0 2952.0,5430.0 C 2931.0,5430.0 2930.0,5432.0 2940.0,5445.0 C 2950.0,5457.0 2950.0,5460.0 2936.0,5460.0 C 2927.0,5460.0 2920.0,5467.0 2920.0,5476.0 C 2920.0,5485.0 2911.0,5494.0 2900.0,5497.0 C 2880.0,5502.0 2872.0,5520.0 2890.0,5520.0 C 2896.0,5520.0 2900.0,5527.0 2900.0,5535.0 C 2900.0,5553.0 2874.0,5555.0 2863.0,5538.0 C 2858.0,5530.0 2853.0,5542.0 2850.0,5570.0 C 2845.0,5611.0 2840.0,5618.0 2796.0,5648.0 C 2734.0,5689.0 2704.0,5687.0 2672.0,5640.0 C 2642.0,5595.0 2632.0,5592.0 2620.0,5625.0 C 2602.0,5673.0 2608.0,5716.0 2635.0,5734.0 C 2667.0,5755.0 2667.0,5785.0 2633.0,5854.0 C 2610.0,5901.0 2603.0,5909.0 2585.0,5904.0 C 2567.0,5900.0 2563.0,5903.0 2564.0,5922.0 C 2565.0,5937.0 2558.0,5946.0 2545.0,5948.0 C 2534.0,5950.0 2521.0,5958.0 2517.0,5966.0 C 2505.0,5988.0 2480.0,5983.0 2480.0,5959.0" fill="pink"/>
	<path d="M 9093.0,5943.0 C 9086.0,5941.0 9080.0,5930.0 9080.0,5920.0 C 9080.0,5906.0 9090.0,5899.0 9114.0,5894.0 C 9164.0,5885.0 9176.0,5897.0 9149.0,5926.0 C 9127.0,5950.0 9116.0,5953.0 9093.0,5943.0" fill="pink"/>
	<path d="M 8597.0,5692.0 C 8581.0,5675.0 8582.0,5672.0 8610.0,5645.0 C 8639.0,5617.0 8640.0,5617.0 8660.0,5635.0 C 8671.0,5645.0 8680.0,5666.0 8680.0,5682.0 C 8680.0,5707.0 8677.0,5710.0 8647.0,5710.0 C 8627.0,5710.0 8606.0,5702.0 8597.0,5692.0" fill="pink"/>
	<path d="M 4274.0,5682.0 C 4259.0,5673.0 4240.0,5635.0 4240.0,5617.0 C 4240.0,5594.0 4271.0,5588.0 4292.0,5607.0 C 4324.0,5636.0 4307.0,5705.0 4274.0,5682.0" fill="pink"/>
	<path d="M 9632.0,5493.0 C 9634.0,5483.0 9642.0,5475.0 9650.0,5475.0 C 9658.0,5475.0 9666.0,5483.0 9668.0,5493.0 C 9670.0,5505.0 9665.0,5510.0 9650.0,5510.0 C 9635.0,5510.0 9630.0,5505.0 9632.0,5493.0" fill="pink"/>
	<path d="M 3617.0,5353.0 C 3615.0,5348.0 3616.0,5334.0 3619.0,5321.0 C 3625.0,5300.0 3627.0,5299.0 3639.0,5314.0 C 3646.0,5322.0 3650.0,5337.0 3646.0,5345.0 C 3640.0,5361.0 3624.0,5365.0 3617.0,5353.0" fill="pink"/>
	<path d="M 4344.0,5295.0 C 4339.0,5276.0 4348.0,5254.0 4376.0,5208.0 C 4417.0,5143.0 4448.0,5118.0 4435.0,5161.0 C 4421.0,5205.0 4365.0,5320.0 4358.0,5320.0 C 4354.0,5320.0 4348.0,5309.0 4344.0,5295.0" fill="pink"/>
	<path d="M 3835.0,5213.0 C 3774.0,5183.0 3735.0,5073.0 3775.0,5040.0 C 3783.0,5033.0 3790.0,5020.0 3790.0,5011.0 C 3790.0,4986.0 3813.0,4941.0 3829.0,4935.0 C 3837.0,4932.0 3856.0,4938.0 3871.0,4949.0 C 3886.0,4960.0 3906.0,4967.0 3917.0,4964.0 C 3931.0,4960.0 3944.0,4967.0 3960.0,4987.0 C 3979.0,5011.0 3981.0,5025.0 3978.0,5081.0 C 3975.0,5137.0 3970.0,5152.0 3941.0,5188.0 C 3906.0,5233.0 3886.0,5238.0 3835.0,5213.0" fill="pink"/>
	<path d="M 9375.0,5177.0 C 9348.0,5156.0 9362.0,5110.0 9395.0,5110.0 C 9417.0,5110.0 9420.0,5114.0 9420.0,5150.0 C 9420.0,5193.0 9408.0,5200.0 9375.0,5177.0" fill="pink"/>
	<path d="M 3706.0,5003.0 C 3695.0,4992.0 3700.0,4963.0 3715.0,4950.0 C 3723.0,4943.0 3730.0,4928.0 3730.0,4916.0 C 3730.0,4888.0 3782.0,4837.0 3806.0,4842.0 C 3841.0,4848.0 3832.0,4877.0 3781.0,4925.0 C 3753.0,4951.0 3730.0,4979.0 3730.0,4986.0 C 3730.0,5001.0 3715.0,5012.0 3706.0,5003.0" fill="pink"/>
	<path d="M 8228.0,4994.0 C 8195.0,4977.0 8183.0,4938.0 8199.0,4904.0 C 8208.0,4884.0 8217.0,4880.0 8253.0,4880.0 C 8294.0,4880.0 8300.0,4883.0 8324.0,4920.0 C 8355.0,4967.0 8355.0,4972.0 8332.0,4993.0 C 8309.0,5014.0 8264.0,5014.0 8228.0,4994.0" fill="pink"/>
	<path d="M 4690.0,4879.0 C 4676.0,4854.0 4686.0,4804.0 4706.0,4796.0 C 4714.0,4793.0 4720.0,4797.0 4720.0,4804.0 C 4720.0,4813.0 4727.0,4816.0 4739.0,4813.0 C 4770.0,4805.0 4777.0,4846.0 4749.0,4876.0 C 4721.0,4905.0 4704.0,4906.0 4690.0,4879.0" fill="pink"/>
	<path d="M 5269.0,4863.0 C 5267.0,4832.0 5271.0,4816.0 5296.0,4763.0 C 5317.0,4717.0 5324.0,4710.0 5350.0,4710.0 C 5384.0,4710.0 5395.0,4734.0 5380.0,4776.0 C 5374.0,4792.0 5371.0,4819.0 5375.0,4836.0 C 5380.0,4865.0 5378.0,4868.0 5349.0,4874.0 C 5294.0,4885.0 5270.0,4881.0 5269.0,4863.0" fill="pink"/>
	<path d="M 4959.0,4465.0 C 4911.0,4439.0 4880.0,4362.0 4894.0,4305.0 C 4899.0,4285.0 4907.0,4280.0 4930.0,4280.0 C 4957.0,4280.0 4960.0,4283.0 4960.0,4310.0 C 4960.0,4340.0 4960.0,4340.0 4985.0,4324.0 C 5018.0,4303.0 5059.0,4233.0 5086.0,4156.0 C 5102.0,4107.0 5111.0,4094.0 5130.0,4092.0 C 5186.0,4083.0 5203.0,4160.0 5175.0,4287.0 C 5146.0,4415.0 5144.0,4418.0 5079.0,4450.0 C 5014.0,4483.0 4997.0,4486.0 4959.0,4465.0" fill="pink"/>
	<path d="M 8816.0,4440.0 L 8788.0,4422.0 L 8808.0,4402.0 C 8819.0,4391.0 8833.0,4372.0 8840.0,4361.0 C 8854.0,4334.0 8886.0,4334.0 8900.0,4360.0 C 8912.0,4382.0 8897.0,4450.0 8880.0,4450.0 C 8875.0,4450.0 8866.0,4452.0 8858.0,4454.0 C 8851.0,4457.0 8832.0,4450.0 8816.0,4440.0" fill="pink"/>
	<path d="M 9332.0,3884.0 C 9304.0,3865.0 9304.0,3859.0 9335.0,3826.0 C 9349.0,3811.0 9360.0,3795.0 9360.0,3790.0 C 9360.0,3786.0 9373.0,3777.0 9389.0,3772.0 C 9413.0,3763.0 9423.0,3766.0 9454.0,3788.0 C 9530.0,3841.0 9505.0,3900.0 9406.0,3900.0 C 9376.0,3900.0 9345.0,3894.0 9332.0,3884.0" fill="pink"/>
	<path d="M 9601.0,3586.0 C 9594.0,3578.0 9593.0,3569.0 9597.0,3567.0 C 9610.0,3559.0 9671.0,3574.0 9673.0,3585.0 C 9676.0,3601.0 9615.0,3603.0 9601.0,3586.0" fill="pink"/>
	<path d="M 2334.0,3468.0 C 2322.0,3462.0 2305.0,3440.0 2296.0,3417.0 C 2281.0,3380.0 2281.0,3375.0 2297.0,3358.0 C 2312.0,3341.0 2312.0,3340.0 2291.0,3340.0 C 2277.0,3340.0 2270.0,3335.0 2272.0,3328.0 C 2278.0,3309.0 2357.0,3306.0 2383.0,3323.0 C 2395.0,3331.0 2417.0,3340.0 2433.0,3344.0 C 2448.0,3347.0 2460.0,3356.0 2460.0,3364.0 C 2460.0,3386.0 2439.0,3440.0 2430.0,3440.0 C 2419.0,3440.0 2409.0,3410.0 2416.0,3399.0 C 2419.0,3394.0 2414.0,3390.0 2406.0,3390.0 C 2395.0,3390.0 2393.0,3398.0 2397.0,3423.0 C 2401.0,3451.0 2398.0,3458.0 2378.0,3467.0 C 2363.0,3474.0 2348.0,3474.0 2334.0,3468.0" fill="pink"/>
	<path d="M 10127.0,3306.0 C 10086.0,3295.0 10083.0,3277.0 10121.0,3272.0 C 10136.0,3270.0 10153.0,3277.0 10164.0,3289.0 C 10186.0,3313.0 10175.0,3319.0 10127.0,3306.0" fill="pink"/>
	<path d="M 1157.0,3142.0 C 1131.0,3113.0 1137.0,3085.0 1180.0,3035.0 C 1206.0,3005.0 1220.0,2979.0 1220.0,2961.0 C 1220.0,2933.0 1246.0,2900.0 1268.0,2900.0 C 1284.0,2900.0 1283.0,2915.0 1266.0,2948.0 C 1259.0,2963.0 1250.0,3007.0 1246.0,3045.0 C 1237.0,3149.0 1232.0,3160.0 1200.0,3160.0 C 1185.0,3160.0 1166.0,3152.0 1157.0,3142.0" fill="pink"/>
	<path d="M 6390.0,3025.0 C 6383.0,3017.0 6370.0,3010.0 6361.0,3010.0 C 6340.0,3010.0 6320.0,2991.0 6320.0,2972.0 C 6320.0,2950.0 6401.0,2770.0 6411.0,2770.0 C 6428.0,2770.0 6500.0,2883.0 6500.0,2910.0 C 6500.0,2916.0 6486.0,2918.0 6460.0,2914.0 C 6438.0,2910.0 6420.0,2911.0 6420.0,2914.0 C 6420.0,2918.0 6433.0,2935.0 6450.0,2953.0 C 6481.0,2986.0 6484.0,2997.0 6474.0,3024.0 C 6466.0,3045.0 6407.0,3045.0 6390.0,3025.0" fill="pink"/>
	<path d="M 10016.0,2803.0 C 10004.0,2791.0 10010.0,2770.0 10025.0,2770.0 C 10033.0,2770.0 10040.0,2776.0 10040.0,2784.0 C 10040.0,2801.0 10026.0,2812.0 10016.0,2803.0" fill="pink"/>
	<path d="M 9687.0,2363.0 C 9683.0,2360.0 9680.0,2351.0 9680.0,2343.0 C 9680.0,2334.0 9698.0,2330.0 9745.0,2330.0 C 9810.0,2330.0 9820.0,2336.0 9798.0,2358.0 C 9785.0,2371.0 9698.0,2375.0 9687.0,2363.0" fill="pink"/>
	<path d="M 9121.0,2317.0 C 9091.0,2302.0 9083.0,2282.0 9104.0,2274.0 C 9121.0,2267.0 9169.0,2299.0 9170.0,2318.0 C 9170.0,2333.0 9152.0,2333.0 9121.0,2317.0" fill="pink"/>
	<path d="M 3137.0,2242.0 C 3100.0,2203.0 3100.0,2157.0 3138.0,2144.0 C 3162.0,2136.0 3169.0,2139.0 3202.0,2170.0 C 3223.0,2189.0 3240.0,2214.0 3240.0,2226.0 C 3240.0,2276.0 3179.0,2286.0 3137.0,2242.0" fill="pink"/>
	<path d="M 6954.0,2135.0 C 6940.0,2126.0 6929.0,2101.0 6921.0,2060.0 C 6907.0,1990.0 6913.0,1960.0 6941.0,1960.0 C 6955.0,1960.0 6964.0,1974.0 6977.0,2020.0 C 7002.0,2104.0 7039.0,2099.0 7040.0,2011.0 C 7040.0,1990.0 7063.0,1961.0 7081.0,1960.0 C 7095.0,1960.0 7110.0,2015.0 7110.0,2065.0 C 7110.0,2116.0 7108.0,2120.0 7086.0,2120.0 C 7073.0,2120.0 7049.0,2127.0 7034.0,2135.0 C 6998.0,2154.0 6980.0,2154.0 6954.0,2135.0" fill="pink"/>
	<path d="M 9015.0,2123.0 C 8967.0,2114.0 8950.0,2097.0 8950.0,2062.0 C 8950.0,2026.0 8971.0,2001.0 9002.0,2000.0 C 9018.0,2000.0 9060.0,2060.0 9060.0,2084.0 C 9060.0,2106.0 9036.0,2127.0 9015.0,2123.0" fill="pink"/>
	<path d="M 2776.0,2104.0 C 2763.0,2095.0 2751.0,2094.0 2733.0,2101.0 C 2694.0,2116.0 2690.0,2112.0 2690.0,2065.0 C 2690.0,2032.0 2686.0,2020.0 2675.0,2020.0 C 2667.0,2020.0 2660.0,2027.0 2660.0,2036.0 C 2660.0,2048.0 2653.0,2051.0 2633.0,2047.0 C 2459.0,2015.0 2453.0,2012.0 2444.0,1934.0 C 2434.0,1844.0 2433.0,1841.0 2392.0,1834.0 C 2372.0,1830.0 2344.0,1819.0 2331.0,1809.0 C 2314.0,1795.0 2291.0,1790.0 2250.0,1790.0 C 2169.0,1790.0 2107.0,1766.0 2074.0,1722.0 C 2038.0,1674.0 2030.0,1669.0 2003.0,1675.0 C 1969.0,1683.0 1968.0,1666.0 2000.0,1635.0 C 2025.0,1611.0 2041.0,1606.0 2140.0,1594.0 C 2251.0,1580.0 2251.0,1580.0 2298.0,1605.0 C 2324.0,1619.0 2354.0,1640.0 2365.0,1652.0 L 2385.0,1675.0 L 2388.0,1623.0 C 2390.0,1580.0 2394.0,1570.0 2409.0,1570.0 C 2437.0,1570.0 2495.0,1655.0 2480.0,1675.0 C 2476.0,1681.0 2465.0,1709.0 2454.0,1738.0 C 2436.0,1790.0 2436.0,1792.0 2453.0,1805.0 C 2463.0,1812.0 2490.0,1821.0 2513.0,1825.0 C 2549.0,1830.0 2560.0,1839.0 2590.0,1881.0 C 2609.0,1908.0 2632.0,1930.0 2639.0,1930.0 C 2647.0,1930.0 2666.0,1942.0 2682.0,1957.0 C 2702.0,1976.0 2713.0,1980.0 2722.0,1972.0 C 2729.0,1966.0 2751.0,1960.0 2770.0,1958.0 C 2800.0,1956.0 2805.0,1951.0 2803.0,1933.0 C 2801.0,1915.0 2805.0,1910.0 2825.0,1910.0 C 2852.0,1910.0 2857.0,1892.0 2839.0,1858.0 C 2826.0,1834.0 2834.0,1823.0 2854.0,1839.0 C 2865.0,1848.0 2878.0,1849.0 2907.0,1841.0 C 2938.0,1832.0 2947.0,1833.0 2956.0,1845.0 C 2964.0,1856.0 2977.0,1858.0 2999.0,1854.0 C 3026.0,1848.0 3030.0,1850.0 3030.0,1869.0 C 3030.0,1893.0 3034.0,1894.0 3060.0,1880.0 C 3075.0,1872.0 3081.0,1874.0 3089.0,1889.0 C 3095.0,1900.0 3114.0,1911.0 3131.0,1915.0 C 3150.0,1919.0 3165.0,1931.0 3171.0,1947.0 C 3189.0,1994.0 3182.0,2010.0 3138.0,2030.0 C 3087.0,2053.0 3060.0,2055.0 3060.0,2036.0 C 3060.0,2029.0 3053.0,2017.0 3045.0,2010.0 C 3032.0,2000.0 3026.0,2000.0 3010.0,2015.0 C 2999.0,2025.0 2990.0,2041.0 2990.0,2050.0 C 2990.0,2062.0 2981.0,2066.0 2954.0,2066.0 C 2930.0,2066.0 2913.0,2073.0 2902.0,2087.0 C 2881.0,2113.0 2802.0,2124.0 2776.0,2104.0" fill="pink"/>
	<path d="M 9791.0,1721.0 C 9763.0,1683.0 9765.0,1658.0 9795.0,1632.0 C 9809.0,1620.0 9820.0,1606.0 9820.0,1600.0 C 9820.0,1585.0 9856.0,1588.0 9870.0,1605.0 C 9880.0,1617.0 9877.0,1622.0 9856.0,1631.0 C 9836.0,1641.0 9830.0,1650.0 9830.0,1676.0 C 9830.0,1694.0 9835.0,1712.0 9840.0,1715.0 C 9846.0,1718.0 9850.0,1728.0 9850.0,1736.0 C 9850.0,1761.0 9812.0,1751.0 9791.0,1721.0" fill="pink"/>
	<path d="M 6037.0,1683.0 C 6010.0,1679.0 6010.0,1677.0 6016.0,1631.0 C 6021.0,1595.0 6018.0,1576.0 6006.0,1558.0 C 5990.0,1533.0 5990.0,1533.0 6033.0,1516.0 C 6086.0,1496.0 6104.0,1496.0 6124.0,1515.0 C 6134.0,1525.0 6137.0,1541.0 6133.0,1564.0 C 6130.0,1583.0 6132.0,1600.0 6139.0,1604.0 C 6160.0,1618.0 6150.0,1649.0 6116.0,1669.0 C 6098.0,1681.0 6079.0,1689.0 6074.0,1689.0 C 6069.0,1688.0 6053.0,1685.0 6037.0,1683.0" fill="pink"/>
	<path d="M 10196.0,1648.0 C 10181.0,1610.0 10184.0,1600.0 10211.0,1600.0 C 10227.0,1600.0 10230.0,1607.0 10230.0,1640.0 C 10230.0,1688.0 10215.0,1692.0 10196.0,1648.0" fill="pink"/>
	<path d="M 2310.0,1555.0 C 2291.0,1533.0 2303.0,1514.0 2323.0,1534.0 C 2341.0,1553.0 2345.0,1570.0 2331.0,1570.0 C 2326.0,1570.0 2317.0,1563.0 2310.0,1555.0" fill="pink"/>
	<path d="M 10180.0,1506.0 C 10180.0,1489.0 10198.0,1481.0 10222.0,1488.0 C 10231.0,1490.0 10236.0,1498.0 10233.0,1506.0 C 10226.0,1524.0 10180.0,1524.0 10180.0,1506.0" fill="pink"/>
</svg>
