<?xml version="1.0" ?>
<svg xmlns="http://www.w3.org/2000/svg" xmlns:ev="http://www.w3.org/2001/xml-events" xmlns:xlink="http://www.w3.org/1999/xlink" baseProfile="full" height="600px" version="1.1" viewBox="1187.5835028885551 -1023.6511649447023 7861.83299422289 12289.82606169043" width="384px">
	<defs/>
	<path d="M 6920.0,10202.0 C 6907.0,10180.0 6883.0,10156.0 6864.0,10146.0 C 6834.0,10132.0 6830.0,10126.0 6830.0,10092.0 C 6830.0,10044.0 6870.0,10002.0 6952.0,9967.0 C 6983.0,9953.0 7016.0,9930.0 7026.0,9915.0 C 7042.0,9890.0 7042.0,9883.0 7027.0,9795.0 L 7010.0,9702.0 L 7060.0,9549.0 C 7087.0,9465.0 7107.0,9394.0 7106.0,9392.0 C 7100.0,9387.0 7058.0,9450.0 7007.0,9540.0 C 6965.0,9613.0 6958.0,9635.0 6954.0,9695.0 C 6946.0,9796.0 6926.0,9846.0 6888.0,9859.0 C 6871.0,9865.0 6849.0,9870.0 6840.0,9870.0 C 6810.0,9870.0 6760.0,9799.0 6739.0,9727.0 C 6732.0,9703.0 6737.0,9685.0 6765.0,9629.0 C 6784.0,9591.0 6800.0,9547.0 6800.0,9529.0 C 6800.0,9512.0 6814.0,9460.0 6830.0,9413.0 C 6860.0,9329.0 6860.0,9324.0 6859.0,9151.0 C 6857.0,8980.0 6858.0,8973.0 6883.0,8917.0 C 6907.0,8865.0 6909.0,8853.0 6900.0,8813.0 C 6894.0,8789.0 6879.0,8747.0 6866.0,8721.0 C 6843.0,8676.0 6842.0,8672.0 6855.0,8609.0 C 6873.0,8529.0 6873.0,8517.0 6858.0,8522.0 C 6851.0,8525.0 6841.0,8549.0 6835.0,8576.0 L 6825.0,8625.0 L 6755.0,8621.0 C 6716.0,8619.0 6683.0,8616.0 6681.0,8614.0 C 6679.0,8612.0 6685.0,8593.0 6694.0,8570.0 C 6704.0,8545.0 6710.0,8501.0 6710.0,8455.0 C 6710.0,8386.0 6713.0,8377.0 6743.0,8337.0 C 6761.0,8314.0 6802.0,8248.0 6834.0,8190.0 C 6867.0,8132.0 6911.0,8065.0 6933.0,8040.0 C 6954.0,8016.0 6988.0,7967.0 7007.0,7932.0 C 7040.0,7872.0 7081.0,7837.0 7097.0,7854.0 C 7101.0,7858.0 7106.0,7891.0 7108.0,7928.0 C 7112.0,7994.0 7111.0,7996.0 7063.0,8066.0 C 7021.0,8126.0 7014.0,8142.0 7018.0,8173.0 C 7021.0,8197.0 7016.0,8219.0 7006.0,8235.0 C 6997.0,8249.0 6990.0,8280.0 6990.0,8307.0 C 6990.0,8341.0 6984.0,8360.0 6968.0,8377.0 C 6948.0,8398.0 6948.0,8402.0 6961.0,8416.0 C 6975.0,8430.0 6979.0,8428.0 7001.0,8398.0 C 7046.0,8338.0 7068.0,8296.0 7075.0,8255.0 C 7086.0,8196.0 7135.0,8116.0 7178.0,8088.0 C 7200.0,8073.0 7224.0,8045.0 7234.0,8021.0 C 7257.0,7972.0 7288.0,7960.0 7402.0,7960.0 L 7479.0,7960.0 L 7505.0,7997.0 C 7536.0,8043.0 7536.0,8045.0 7505.0,8090.0 C 7480.0,8126.0 7480.0,8127.0 7491.0,8233.0 C 7500.0,8313.0 7500.0,8343.0 7491.0,8354.0 C 7485.0,8361.0 7446.0,8380.0 7405.0,8396.0 C 7341.0,8421.0 7320.0,8435.0 7257.0,8500.0 C 7193.0,8565.0 7179.0,8587.0 7151.0,8659.0 C 7134.0,8705.0 7121.0,8744.0 7123.0,8746.0 C 7125.0,8748.0 7140.0,8745.0 7156.0,8738.0 C 7174.0,8731.0 7204.0,8703.0 7230.0,8665.0 C 7255.0,8632.0 7300.0,8583.0 7332.0,8558.0 L 7389.0,8513.0 L 7482.0,8529.0 L 7575.0,8545.0 L 7588.0,8585.0 C 7596.0,8607.0 7604.0,8658.0 7607.0,8698.0 C 7612.0,8764.0 7611.0,8773.0 7590.0,8795.0 C 7576.0,8810.0 7555.0,8820.0 7539.0,8820.0 C 7517.0,8820.0 7507.0,8828.0 7490.0,8858.0 C 7471.0,8891.0 7459.0,8900.0 7401.0,8918.0 C 7337.0,8939.0 7332.0,8943.0 7257.0,9035.0 C 7214.0,9087.0 7181.0,9130.0 7183.0,9130.0 C 7185.0,9130.0 7224.0,9115.0 7271.0,9096.0 C 7403.0,9043.0 7560.0,8990.0 7586.0,8990.0 C 7613.0,8990.0 7615.0,9001.0 7600.0,9064.0 C 7592.0,9102.0 7594.0,9107.0 7652.0,9187.0 L 7712.0,9270.0 L 7632.0,9357.0 C 7531.0,9467.0 7503.0,9494.0 7497.0,9483.0 C 7494.0,9479.0 7487.0,9448.0 7480.0,9416.0 C 7469.0,9362.0 7427.0,9280.0 7411.0,9280.0 C 7386.0,9280.0 7381.0,9309.0 7387.0,9405.0 C 7394.0,9528.0 7377.0,9589.0 7330.0,9607.0 C 7310.0,9614.0 7289.0,9641.0 7256.0,9696.0 C 7211.0,9773.0 7210.0,9777.0 7210.0,9863.0 C 7210.0,9949.0 7209.0,9952.0 7156.0,10058.0 C 7107.0,10153.0 7096.0,10169.0 7050.0,10198.0 C 7022.0,10216.0 6986.0,10233.0 6971.0,10236.0 C 6946.0,10241.0 6940.0,10237.0 6920.0,10202.0" fill="pink"/>
	<path d="M 5820.0,9949.0 C 5820.0,9871.0 5893.0,9589.0 5961.0,9401.0 C 6021.0,9238.0 6130.0,9040.0 6208.0,8955.0 L 6262.0,8895.0 L 6257.0,8750.0 L 6252.0,8604.0 L 6361.0,8517.0 C 6421.0,8469.0 6473.0,8430.0 6477.0,8430.0 C 6482.0,8430.0 6497.0,8451.0 6512.0,8478.0 C 6534.0,8518.0 6539.0,8539.0 6541.0,8610.0 L 6543.0,8694.0 L 6494.0,8727.0 C 6436.0,8766.0 6414.0,8811.0 6374.0,8963.0 C 6352.0,9047.0 6325.0,9110.0 6213.0,9325.0 L 6078.0,9585.0 L 6062.0,9707.0 L 6046.0,9830.0 L 6010.0,9854.0 C 5990.0,9867.0 5954.0,9908.0 5931.0,9944.0 C 5892.0,10004.0 5885.0,10010.0 5854.0,10010.0 L 5820.0,10010.0 L 5820.0,9949.0" fill="pink"/>
	<path d="M 6370.0,9879.0 C 6343.0,9841.0 6341.0,9834.0 6347.0,9776.0 C 6350.0,9741.0 6348.0,9684.0 6341.0,9649.0 C 6334.0,9606.0 6333.0,9573.0 6340.0,9551.0 C 6345.0,9532.0 6352.0,9483.0 6356.0,9441.0 C 6361.0,9374.0 6368.0,9354.0 6415.0,9270.0 C 6444.0,9218.0 6482.0,9131.0 6500.0,9076.0 C 6518.0,9021.0 6559.0,8932.0 6593.0,8873.0 C 6646.0,8781.0 6659.0,8766.0 6699.0,8746.0 C 6740.0,8726.0 6750.0,8724.0 6790.0,8735.0 L 6835.0,8746.0 L 6846.0,8815.0 C 6857.0,8880.0 6856.0,8886.0 6830.0,8944.0 C 6814.0,8978.0 6792.0,9052.0 6780.0,9110.0 C 6760.0,9205.0 6747.0,9235.0 6650.0,9420.0 L 6542.0,9625.0 L 6541.0,9735.0 C 6540.0,9860.0 6539.0,9861.0 6447.0,9899.0 L 6399.0,9919.0 L 6370.0,9879.0" fill="pink"/>
	<path d="M 8049.0,9764.0 C 8031.0,9716.0 8019.0,9627.0 8026.0,9587.0 C 8029.0,9566.0 8048.0,9515.0 8067.0,9473.0 C 8097.0,9407.0 8104.0,9399.0 8123.0,9404.0 C 8135.0,9407.0 8173.0,9410.0 8206.0,9410.0 L 8267.0,9410.0 L 8284.0,9455.0 C 8301.0,9499.0 8303.0,9500.0 8346.0,9500.0 C 8370.0,9500.0 8390.0,9502.0 8390.0,9505.0 C 8390.0,9508.0 8381.0,9529.0 8369.0,9551.0 C 8354.0,9580.0 8352.0,9595.0 8359.0,9604.0 C 8367.0,9614.0 8365.0,9630.0 8353.0,9664.0 C 8338.0,9704.0 8332.0,9710.0 8307.0,9710.0 C 8291.0,9710.0 8267.0,9701.0 8253.0,9690.0 C 8212.0,9658.0 8194.0,9664.0 8186.0,9710.0 C 8179.0,9755.0 8153.0,9778.0 8096.0,9787.0 C 8064.0,9792.0 8059.0,9790.0 8049.0,9764.0" fill="pink"/>
	<path d="M 5031.0,9630.0 C 5016.0,9617.0 4993.0,9610.0 4964.0,9610.0 C 4921.0,9610.0 4920.0,9610.0 4909.0,9565.0 C 4901.0,9532.0 4885.0,9508.0 4846.0,9473.0 C 4802.0,9431.0 4784.0,9422.0 4718.0,9405.0 L 4641.0,9386.0 L 4598.0,9420.0 C 4574.0,9438.0 4549.0,9458.0 4543.0,9463.0 C 4534.0,9470.0 4522.0,9456.0 4501.0,9411.0 L 4472.0,9350.0 L 4490.0,9292.0 L 4508.0,9235.0 L 4561.0,9225.0 L 4614.0,9215.0 L 4611.0,9169.0 C 4609.0,9130.0 4615.0,9113.0 4644.0,9067.0 C 4673.0,9022.0 4680.0,9001.0 4680.0,8962.0 C 4680.0,8919.0 4686.0,8905.0 4725.0,8854.0 C 4770.0,8797.0 4770.0,8796.0 4770.0,8718.0 C 4770.0,8659.0 4774.0,8638.0 4784.0,8634.0 C 4792.0,8631.0 4812.0,8599.0 4829.0,8564.0 C 4860.0,8497.0 4894.0,8446.0 4943.0,8393.0 C 4967.0,8368.0 4978.0,8338.0 5000.0,8240.0 C 5016.0,8173.0 5030.0,8117.0 5032.0,8115.0 C 5034.0,8113.0 5056.0,8102.0 5082.0,8091.0 C 5121.0,8075.0 5131.0,8064.0 5153.0,8018.0 C 5168.0,7983.0 5196.0,7948.0 5229.0,7919.0 C 5273.0,7881.0 5280.0,7870.0 5279.0,7840.0 C 5278.0,7820.0 5276.0,7814.0 5273.0,7826.0 C 5267.0,7858.0 5148.0,7957.0 5018.0,8040.0 C 4925.0,8099.0 4900.0,8120.0 4900.0,8138.0 C 4900.0,8154.0 4906.0,8160.0 4923.0,8160.0 C 4953.0,8160.0 4967.0,8171.0 4978.0,8201.0 C 4987.0,8224.0 4979.0,8240.0 4898.0,8356.0 C 4771.0,8539.0 4697.0,8690.0 4661.0,8840.0 C 4637.0,8941.0 4623.0,8976.0 4571.0,9067.0 C 4525.0,9147.0 4497.0,9184.0 4464.0,9208.0 L 4419.0,9241.0 L 4377.0,9210.0 L 4335.0,9179.0 L 4326.0,9217.0 C 4320.0,9245.0 4305.0,9264.0 4269.0,9292.0 C 4207.0,9341.0 4171.0,9337.0 4138.0,9278.0 C 4118.0,9243.0 4115.0,9241.0 4108.0,9260.0 C 4097.0,9289.0 4016.0,9289.0 4000.0,9260.0 C 3994.0,9249.0 3984.0,9240.0 3977.0,9240.0 C 3970.0,9240.0 3955.0,9222.0 3942.0,9200.0 C 3922.0,9165.0 3921.0,9159.0 3935.0,9154.0 C 3946.0,9149.0 3950.0,9133.0 3950.0,9090.0 C 3950.0,9057.0 3946.0,9029.0 3940.0,9025.0 C 3935.0,9022.0 3931.0,8991.0 3930.0,8957.0 C 3930.0,8923.0 3929.0,8873.0 3928.0,8845.0 C 3925.0,8763.0 3937.0,8723.0 3971.0,8703.0 C 3999.0,8686.0 4000.0,8685.0 3981.0,8670.0 C 3967.0,8659.0 3955.0,8620.0 3935.0,8516.0 C 3918.0,8423.0 3899.0,8358.0 3879.0,8318.0 C 3851.0,8263.0 3850.0,8259.0 3866.0,8235.0 C 3881.0,8212.0 3881.0,8209.0 3862.0,8183.0 C 3851.0,8167.0 3839.0,8132.0 3835.0,8105.0 C 3831.0,8077.0 3824.0,8048.0 3819.0,8039.0 C 3813.0,8027.0 3819.0,8015.0 3842.0,7994.0 C 3858.0,7978.0 3894.0,7934.0 3920.0,7895.0 C 3990.0,7792.0 4074.0,7716.0 4138.0,7695.0 C 4166.0,7686.0 4190.0,7673.0 4190.0,7667.0 C 4190.0,7661.0 4201.0,7619.0 4215.0,7573.0 C 4241.0,7490.0 4241.0,7489.0 4317.0,7429.0 L 4392.0,7369.0 L 4489.0,7371.0 C 4542.0,7371.0 4601.0,7367.0 4620.0,7361.0 C 4639.0,7355.0 4685.0,7350.0 4722.0,7350.0 L 4788.0,7350.0 L 4854.0,7278.0 C 4899.0,7228.0 4925.0,7190.0 4934.0,7159.0 C 4942.0,7134.0 4958.0,7094.0 4970.0,7071.0 C 4989.0,7032.0 4991.0,7015.0 4989.0,6857.0 L 4987.0,6686.0 L 5014.0,6677.0 C 5034.0,6670.0 5043.0,6658.0 5051.0,6623.0 C 5066.0,6565.0 5091.0,6553.0 5162.0,6568.0 C 5288.0,6595.0 5283.0,6596.0 5319.0,6523.0 C 5346.0,6467.0 5353.0,6439.0 5362.0,6339.0 L 5373.0,6222.0 L 5466.0,6151.0 C 5559.0,6080.0 5621.0,6015.0 5823.0,5778.0 C 5886.0,5704.0 5941.0,5649.0 5955.0,5646.0 C 5968.0,5643.0 5994.0,5618.0 6014.0,5591.0 C 6046.0,5548.0 6054.0,5542.0 6097.0,5537.0 C 6124.0,5534.0 6153.0,5528.0 6162.0,5525.0 C 6173.0,5521.0 6191.0,5530.0 6216.0,5553.0 L 6254.0,5587.0 L 6233.0,5681.0 C 6215.0,5760.0 6213.0,5787.0 6220.0,5845.0 C 6235.0,5959.0 6237.0,5954.0 6160.0,6012.0 C 6105.0,6054.0 6089.0,6072.0 6084.0,6099.0 C 6080.0,6118.0 6065.0,6144.0 6051.0,6156.0 L 6025.0,6178.0 L 6052.0,6234.0 C 6070.0,6270.0 6090.0,6295.0 6110.0,6305.0 C 6144.0,6323.0 6146.0,6331.0 6125.0,6389.0 C 6111.0,6429.0 6111.0,6430.0 6136.0,6436.0 L 6161.0,6442.0 L 6141.0,6464.0 C 6130.0,6475.0 6112.0,6524.0 6100.0,6571.0 L 6078.0,6657.0 L 6028.0,6669.0 C 6000.0,6675.0 5972.0,6688.0 5965.0,6696.0 C 5954.0,6711.0 5945.0,6711.0 5855.0,6691.0 L 5757.0,6669.0 L 5671.0,6714.0 C 5613.0,6744.0 5577.0,6757.0 5560.0,6753.0 C 5542.0,6750.0 5528.0,6756.0 5512.0,6773.0 L 5489.0,6798.0 L 5534.0,6804.0 C 5572.0,6810.0 5588.0,6806.0 5639.0,6781.0 C 5672.0,6764.0 5707.0,6750.0 5715.0,6750.0 C 5724.0,6750.0 5770.0,6782.0 5818.0,6822.0 C 5866.0,6862.0 5907.0,6896.0 5909.0,6897.0 C 5912.0,6899.0 5873.0,6983.0 5824.0,7084.0 C 5736.0,7266.0 5735.0,7268.0 5695.0,7280.0 C 5673.0,7287.0 5632.0,7305.0 5605.0,7321.0 C 5542.0,7356.0 5520.0,7352.0 5458.0,7292.0 C 5415.0,7250.0 5408.0,7247.0 5354.0,7246.0 C 5308.0,7245.0 5295.0,7248.0 5292.0,7261.0 C 5290.0,7273.0 5299.0,7279.0 5329.0,7284.0 C 5360.0,7289.0 5377.0,7300.0 5406.0,7335.0 C 5434.0,7370.0 5449.0,7380.0 5473.0,7380.0 C 5489.0,7380.0 5522.0,7392.0 5546.0,7408.0 C 5585.0,7432.0 5590.0,7439.0 5590.0,7473.0 C 5590.0,7502.0 5581.0,7522.0 5555.0,7555.0 C 5535.0,7578.0 5512.0,7619.0 5503.0,7645.0 C 5492.0,7678.0 5478.0,7697.0 5458.0,7709.0 C 5442.0,7718.0 5405.0,7739.0 5377.0,7757.0 L 5325.0,7789.0 L 5355.0,7800.0 C 5416.0,7823.0 5433.0,7821.0 5505.0,7782.0 C 5572.0,7746.0 5577.0,7740.0 5620.0,7659.0 C 5693.0,7524.0 5764.0,7427.0 5839.0,7360.0 C 5884.0,7320.0 5922.0,7276.0 5942.0,7238.0 C 5963.0,7201.0 5992.0,7166.0 6021.0,7144.0 L 6067.0,7110.0 L 6073.0,7186.0 C 6079.0,7247.0 6085.0,7269.0 6110.0,7305.0 C 6146.0,7357.0 6146.0,7360.0 6120.0,7509.0 C 6102.0,7614.0 6094.0,7637.0 6035.0,7752.0 C 5976.0,7866.0 5958.0,7892.0 5864.0,7989.0 C 5765.0,8093.0 5740.0,8131.0 5740.0,8182.0 C 5740.0,8193.0 5748.0,8200.0 5758.0,8200.0 C 5771.0,8200.0 5796.0,8171.0 5833.0,8116.0 C 5873.0,8055.0 5906.0,8020.0 5954.0,7985.0 C 6017.0,7939.0 6022.0,7931.0 6105.0,7775.0 C 6178.0,7636.0 6190.0,7606.0 6190.0,7564.0 C 6190.0,7537.0 6201.0,7472.0 6215.0,7420.0 C 6229.0,7368.0 6240.0,7322.0 6240.0,7318.0 C 6240.0,7314.0 6226.0,7310.0 6208.0,7308.0 C 6179.0,7305.0 6175.0,7301.0 6164.0,7258.0 C 6154.0,7219.0 6155.0,7209.0 6166.0,7199.0 C 6175.0,7191.0 6180.0,7171.0 6179.0,7146.0 C 6177.0,7112.0 6192.0,7074.0 6264.0,6933.0 L 6350.0,6760.0 L 6389.0,6760.0 C 6411.0,6760.0 6432.0,6765.0 6435.0,6770.0 C 6439.0,6776.0 6441.0,6820.0 6441.0,6868.0 C 6441.0,6916.0 6447.0,6978.0 6454.0,7006.0 C 6465.0,7049.0 6465.0,7070.0 6454.0,7131.0 C 6434.0,7245.0 6434.0,7246.0 6470.0,7220.0 C 6515.0,7188.0 6589.0,7200.0 6650.0,7248.0 C 6675.0,7268.0 6697.0,7285.0 6699.0,7287.0 C 6707.0,7292.0 6616.0,7421.0 6591.0,7441.0 C 6576.0,7453.0 6563.0,7475.0 6560.0,7493.0 C 6555.0,7522.0 6548.0,7528.0 6473.0,7559.0 C 6408.0,7585.0 6390.0,7597.0 6390.0,7613.0 C 6390.0,7632.0 6394.0,7633.0 6503.0,7627.0 C 6610.0,7621.0 6620.0,7619.0 6715.0,7574.0 C 6863.0,7506.0 6857.0,7507.0 6863.0,7536.0 C 6867.0,7558.0 6859.0,7565.0 6776.0,7607.0 C 6711.0,7640.0 6663.0,7675.0 6610.0,7726.0 C 6548.0,7785.0 6524.0,7801.0 6470.0,7819.0 C 6418.0,7836.0 6393.0,7852.0 6351.0,7894.0 C 6316.0,7930.0 6286.0,7950.0 6265.0,7954.0 C 6217.0,7963.0 6150.0,8039.0 6150.0,8084.0 C 6150.0,8103.0 6155.0,8122.0 6160.0,8125.0 C 6166.0,8128.0 6170.0,8144.0 6170.0,8160.0 L 6170.0,8188.0 L 6283.0,8153.0 C 6344.0,8134.0 6454.0,8092.0 6525.0,8059.0 L 6655.0,8001.0 L 6673.0,8023.0 C 6686.0,8039.0 6689.0,8056.0 6686.0,8085.0 C 6683.0,8107.0 6678.0,8150.0 6674.0,8181.0 L 6668.0,8237.0 L 6499.0,8305.0 C 6331.0,8373.0 6328.0,8375.0 6274.0,8437.0 C 6209.0,8510.0 6194.0,8514.0 6117.0,8471.0 C 6029.0,8422.0 6025.0,8422.0 5967.0,8476.0 C 5920.0,8519.0 5872.0,8589.0 5870.0,8614.0 C 5870.0,8620.0 5885.0,8609.0 5904.0,8591.0 C 5943.0,8553.0 5958.0,8554.0 6032.0,8604.0 C 6070.0,8629.0 6081.0,8643.0 6090.0,8678.0 C 6096.0,8702.0 6098.0,8736.0 6094.0,8753.0 C 6085.0,8804.0 6024.0,8863.0 5935.0,8909.0 L 5854.0,8950.0 L 5767.0,8915.0 C 5719.0,8896.0 5677.0,8880.0 5674.0,8880.0 C 5671.0,8880.0 5670.0,8890.0 5673.0,8903.0 C 5676.0,8915.0 5683.0,8950.0 5690.0,8981.0 C 5701.0,9037.0 5702.0,9038.0 5745.0,9049.0 C 5808.0,9065.0 5807.0,9093.0 5739.0,9145.0 L 5689.0,9183.0 L 5637.0,9162.0 C 5603.0,9147.0 5563.0,9140.0 5523.0,9140.0 C 5467.0,9140.0 5460.0,9138.0 5441.0,9111.0 C 5424.0,9087.0 5411.0,9082.0 5363.0,9076.0 C 5331.0,9072.0 5300.0,9066.0 5294.0,9062.0 C 5288.0,9058.0 5276.0,9020.0 5267.0,8977.0 C 5252.0,8907.0 5224.0,8843.0 5213.0,8854.0 C 5211.0,8856.0 5217.0,8898.0 5226.0,8947.0 L 5243.0,9037.0 L 5216.0,9110.0 L 5189.0,9183.0 L 5260.0,9248.0 C 5302.0,9286.0 5360.0,9326.0 5401.0,9346.0 C 5439.0,9364.0 5470.0,9382.0 5470.0,9385.0 C 5470.0,9388.0 5428.0,9421.0 5378.0,9459.0 C 5327.0,9497.0 5257.0,9556.0 5223.0,9589.0 C 5162.0,9648.0 5159.0,9650.0 5108.0,9650.0 C 5070.0,9649.0 5048.0,9644.0 5031.0,9630.0" fill="pink"/>
	<path d="M 7967.0,9246.0 C 7947.0,9228.0 7921.0,9191.0 7910.0,9165.0 C 7899.0,9139.0 7880.0,9105.0 7869.0,9089.0 C 7851.0,9063.0 7843.0,9060.0 7790.0,9060.0 C 7734.0,9060.0 7730.0,9058.0 7696.0,9018.0 C 7647.0,8961.0 7647.0,8920.0 7695.0,8856.0 C 7715.0,8831.0 7735.0,8810.0 7740.0,8810.0 C 7760.0,8810.0 7778.0,8752.0 7783.0,8671.0 C 7788.0,8598.0 7792.0,8584.0 7814.0,8561.0 L 7840.0,8536.0 L 7905.0,8568.0 C 7941.0,8586.0 7985.0,8600.0 8004.0,8600.0 C 8022.0,8600.0 8051.0,8605.0 8069.0,8611.0 L 8100.0,8622.0 L 8100.0,8711.0 C 8100.0,8776.0 8104.0,8807.0 8116.0,8825.0 C 8138.0,8858.0 8127.0,8882.0 8072.0,8926.0 C 8046.0,8947.0 8021.0,8966.0 8017.0,8970.0 C 8013.0,8974.0 8012.0,8990.0 8016.0,9005.0 L 8023.0,9033.0 L 8118.0,9026.0 C 8170.0,9022.0 8222.0,9015.0 8235.0,9010.0 C 8257.0,9002.0 8257.0,9003.0 8257.0,9086.0 C 8257.0,9182.0 8249.0,9194.0 8183.0,9203.0 C 8137.0,9209.0 8080.0,9243.0 8080.0,9266.0 C 8080.0,9276.0 8068.0,9280.0 8042.0,9280.0 C 8013.0,9280.0 7995.0,9272.0 7967.0,9246.0" fill="pink"/>
	<path d="M 3680.0,7720.0 C 3581.0,7670.0 3530.0,7649.0 3488.0,7644.0 C 3425.0,7637.0 3420.0,7630.0 3420.0,7553.0 C 3420.0,7505.0 3402.0,7457.0 3386.0,7463.0 C 3380.0,7465.0 3335.0,7480.0 3286.0,7496.0 C 3220.0,7518.0 3195.0,7531.0 3187.0,7548.0 C 3179.0,7565.0 3169.0,7570.0 3138.0,7570.0 C 3109.0,7570.0 3084.0,7580.0 3042.0,7609.0 C 2991.0,7643.0 2981.0,7647.0 2940.0,7641.0 L 2895.0,7635.0 L 2889.0,7580.0 C 2885.0,7550.0 2885.0,7508.0 2888.0,7487.0 C 2892.0,7452.0 2898.0,7446.0 2936.0,7429.0 C 2979.0,7411.0 2980.0,7410.0 2980.0,7364.0 C 2980.0,7309.0 3003.0,7266.0 3069.0,7198.0 C 3096.0,7169.0 3123.0,7150.0 3137.0,7150.0 C 3149.0,7150.0 3163.0,7144.0 3167.0,7136.0 C 3181.0,7113.0 3257.0,7080.0 3332.0,7065.0 C 3372.0,7058.0 3430.0,7043.0 3460.0,7032.0 L 3515.0,7013.0 L 3532.0,6952.0 C 3541.0,6918.0 3546.0,6890.0 3543.0,6890.0 C 3540.0,6890.0 3516.0,6903.0 3490.0,6919.0 C 3446.0,6946.0 3440.0,6947.0 3396.0,6937.0 C 3353.0,6927.0 3348.0,6928.0 3322.0,6953.0 C 3276.0,6996.0 3250.0,6997.0 3186.0,6954.0 C 3141.0,6924.0 3132.0,6915.0 3144.0,6908.0 C 3153.0,6903.0 3160.0,6886.0 3160.0,6871.0 C 3160.0,6848.0 3165.0,6841.0 3189.0,6837.0 C 3210.0,6833.0 3219.0,6824.0 3223.0,6803.0 C 3232.0,6761.0 3337.0,6703.0 3430.0,6690.0 C 3477.0,6683.0 3507.0,6683.0 3520.0,6690.0 C 3535.0,6698.0 3544.0,6693.0 3573.0,6660.0 C 3605.0,6623.0 3608.0,6621.0 3641.0,6630.0 C 3688.0,6644.0 3685.0,6645.0 3721.0,6595.0 C 3739.0,6570.0 3761.0,6550.0 3772.0,6550.0 C 3782.0,6550.0 3790.0,6544.0 3790.0,6537.0 C 3790.0,6530.0 3824.0,6491.0 3865.0,6450.0 C 3933.0,6382.0 3941.0,6377.0 3962.0,6388.0 C 3975.0,6394.0 4016.0,6404.0 4054.0,6410.0 C 4091.0,6416.0 4140.0,6430.0 4161.0,6440.0 C 4182.0,6451.0 4215.0,6460.0 4234.0,6460.0 C 4285.0,6460.0 4340.0,6510.0 4340.0,6556.0 C 4340.0,6593.0 4321.0,6607.0 4240.0,6631.0 C 4156.0,6655.0 4145.0,6680.0 4220.0,6680.0 C 4268.0,6680.0 4270.0,6681.0 4270.0,6708.0 C 4271.0,6733.0 4271.0,6734.0 4282.0,6715.0 C 4300.0,6683.0 4310.0,6680.0 4414.0,6680.0 C 4504.0,6680.0 4516.0,6678.0 4546.0,6655.0 C 4589.0,6622.0 4604.0,6623.0 4633.0,6663.0 C 4653.0,6689.0 4659.0,6709.0 4662.0,6770.0 C 4665.0,6839.0 4669.0,6850.0 4703.0,6897.0 C 4723.0,6925.0 4740.0,6953.0 4740.0,6959.0 C 4740.0,6985.0 4659.0,7127.0 4628.0,7158.0 C 4596.0,7188.0 4586.0,7192.0 4490.0,7203.0 L 4386.0,7215.0 L 4297.0,7338.0 L 4208.0,7461.0 L 4081.0,7524.0 C 3917.0,7607.0 3912.0,7611.0 3904.0,7682.0 C 3897.0,7738.0 3898.0,7739.0 3925.0,7746.0 L 3953.0,7753.0 L 3931.0,7772.0 C 3886.0,7808.0 3829.0,7796.0 3680.0,7720.0" fill="pink"/>
	<path d="M 2192.0,7352.0 C 2169.0,7343.0 2147.0,7328.0 2144.0,7318.0 C 2141.0,7307.0 2129.0,7300.0 2115.0,7300.0 C 2102.0,7300.0 2078.0,7289.0 2062.0,7275.0 C 2046.0,7261.0 2004.0,7237.0 1969.0,7221.0 C 1934.0,7205.0 1892.0,7179.0 1876.0,7161.0 L 1847.0,7131.0 L 1901.0,7137.0 C 1933.0,7140.0 1964.0,7150.0 1976.0,7161.0 C 2005.0,7188.0 2058.0,7185.0 2102.0,7155.0 C 2137.0,7131.0 2147.0,7130.0 2270.0,7130.0 C 2363.0,7130.0 2411.0,7126.0 2436.0,7115.0 C 2456.0,7107.0 2501.0,7097.0 2537.0,7094.0 C 2597.0,7088.0 2603.0,7088.0 2597.0,7104.0 C 2593.0,7114.0 2590.0,7135.0 2590.0,7151.0 C 2590.0,7175.0 2586.0,7180.0 2567.0,7180.0 C 2552.0,7180.0 2522.0,7203.0 2480.0,7246.0 C 2444.0,7282.0 2399.0,7318.0 2380.0,7327.0 C 2345.0,7342.0 2249.0,7371.0 2240.0,7369.0 C 2237.0,7368.0 2216.0,7360.0 2192.0,7352.0" fill="pink"/>
	<path d="M 6410.0,6366.0 C 6410.0,6365.0 6424.0,6324.0 6440.0,6277.0 C 6463.0,6210.0 6470.0,6173.0 6470.0,6113.0 C 6470.0,5976.0 6479.0,5931.0 6509.0,5915.0 C 6539.0,5900.0 6612.0,5778.0 6631.0,5712.0 C 6642.0,5674.0 6688.0,5620.0 6709.0,5620.0 C 6726.0,5620.0 6758.0,5668.0 6768.0,5710.0 C 6779.0,5754.0 6779.0,5756.0 6730.0,5827.0 C 6682.0,5895.0 6680.0,5901.0 6680.0,5965.0 C 6680.0,6023.0 6677.0,6033.0 6660.0,6037.0 C 6646.0,6041.0 6640.0,6051.0 6640.0,6070.0 C 6640.0,6090.0 6628.0,6107.0 6592.0,6138.0 C 6550.0,6173.0 6541.0,6187.0 6522.0,6252.0 C 6502.0,6322.0 6499.0,6327.0 6455.0,6348.0 C 6430.0,6360.0 6410.0,6368.0 6410.0,6366.0" fill="pink"/>
	<path d="M 4964.0,6202.0 C 4955.0,6197.0 4955.0,6179.0 4962.0,6137.0 C 4972.0,6080.0 4973.0,6079.0 5059.0,6013.0 C 5106.0,5976.0 5157.0,5935.0 5172.0,5922.0 L 5199.0,5898.0 L 5174.0,5974.0 C 5161.0,6016.0 5150.0,6058.0 5150.0,6066.0 C 5150.0,6075.0 5122.0,6111.0 5088.0,6146.0 C 5028.0,6209.0 4996.0,6223.0 4964.0,6202.0" fill="pink"/>
	<path d="M 5314.0,5803.0 C 5317.0,5793.0 5322.0,5773.0 5326.0,5757.0 C 5329.0,5742.0 5345.0,5722.0 5360.0,5713.0 C 5376.0,5704.0 5397.0,5680.0 5408.0,5661.0 C 5420.0,5641.0 5449.0,5606.0 5473.0,5583.0 C 5497.0,5560.0 5522.0,5529.0 5529.0,5513.0 C 5544.0,5475.0 5595.0,5446.0 5621.0,5460.0 C 5645.0,5473.0 5645.0,5478.0 5620.0,5531.0 C 5609.0,5555.0 5600.0,5584.0 5600.0,5596.0 C 5600.0,5640.0 5548.0,5721.0 5488.0,5771.0 C 5432.0,5818.0 5426.0,5820.0 5369.0,5820.0 C 5316.0,5820.0 5309.0,5818.0 5314.0,5803.0" fill="pink"/>
	<path d="M 5215.0,5290.0 C 5199.0,5264.0 5222.0,5208.0 5270.0,5155.0 C 5297.0,5125.0 5329.0,5082.0 5341.0,5059.0 C 5359.0,5023.0 5360.0,5012.0 5351.0,4976.0 C 5340.0,4931.0 5354.0,4862.0 5391.0,4785.0 C 5401.0,4763.0 5410.0,4729.0 5410.0,4710.0 C 5410.0,4685.0 5419.0,4667.0 5442.0,4643.0 L 5474.0,4610.0 L 5442.0,4610.0 C 5424.0,4610.0 5410.0,4608.0 5410.0,4605.0 C 5410.0,4585.0 5456.0,4492.0 5485.0,4455.0 C 5504.0,4429.0 5523.0,4398.0 5526.0,4384.0 C 5531.0,4363.0 5577.0,4320.0 5594.0,4320.0 C 5597.0,4320.0 5600.0,4335.0 5600.0,4353.0 C 5601.0,4400.0 5645.0,4444.0 5713.0,4464.0 C 5782.0,4484.0 5780.0,4484.0 5780.0,4456.0 C 5780.0,4439.0 5795.0,4419.0 5830.0,4390.0 L 5880.0,4348.0 L 5880.0,4429.0 C 5880.0,4474.0 5883.0,4510.0 5886.0,4510.0 C 5889.0,4510.0 5910.0,4497.0 5933.0,4481.0 C 5956.0,4466.0 5990.0,4445.0 6008.0,4436.0 C 6032.0,4423.0 6049.0,4403.0 6068.0,4362.0 C 6090.0,4312.0 6093.0,4294.0 6091.0,4209.0 L 6088.0,4113.0 L 6133.0,4044.0 C 6157.0,4006.0 6185.0,3959.0 6195.0,3940.0 C 6205.0,3921.0 6238.0,3873.0 6269.0,3835.0 C 6300.0,3796.0 6333.0,3749.0 6344.0,3730.0 C 6354.0,3710.0 6385.0,3680.0 6413.0,3661.0 L 6464.0,3628.0 L 6528.0,3694.0 C 6591.0,3759.0 6592.0,3760.0 6585.0,3802.0 C 6580.0,3827.0 6562.0,3866.0 6539.0,3897.0 C 6517.0,3926.0 6500.0,3953.0 6500.0,3958.0 C 6500.0,3963.0 6516.0,3980.0 6535.0,3994.0 L 6570.0,4021.0 L 6570.0,4108.0 C 6570.0,4194.0 6570.0,4195.0 6538.0,4222.0 C 6520.0,4236.0 6507.0,4250.0 6510.0,4252.0 C 6513.0,4255.0 6549.0,4277.0 6591.0,4303.0 C 6665.0,4348.0 6667.0,4351.0 6674.0,4396.0 C 6677.0,4422.0 6678.0,4445.0 6675.0,4448.0 C 6673.0,4451.0 6648.0,4448.0 6621.0,4443.0 C 6567.0,4432.0 6560.0,4437.0 6560.0,4483.0 C 6560.0,4495.0 6538.0,4532.0 6512.0,4565.0 C 6486.0,4598.0 6445.0,4657.0 6421.0,4696.0 C 6381.0,4760.0 6374.0,4768.0 6331.0,4779.0 C 6306.0,4785.0 6268.0,4795.0 6248.0,4801.0 C 6223.0,4807.0 6205.0,4821.0 6193.0,4840.0 C 6179.0,4865.0 6169.0,4870.0 6139.0,4870.0 C 6087.0,4870.0 5993.0,4935.0 5952.0,4999.0 C 5892.0,5091.0 5801.0,5139.0 5687.0,5140.0 C 5654.0,5140.0 5638.0,5149.0 5587.0,5194.0 C 5527.0,5248.0 5526.0,5248.0 5446.0,5255.0 C 5372.0,5261.0 5281.0,5279.0 5239.0,5295.0 C 5229.0,5298.0 5219.0,5296.0 5215.0,5290.0" fill="pink"/>
	<path d="M 5637.0,3973.0 C 5633.0,3952.0 5630.0,3901.0 5630.0,3859.0 L 5630.0,3784.0 L 5715.0,3683.0 C 5761.0,3627.0 5803.0,3579.0 5807.0,3577.0 C 5821.0,3569.0 5940.0,3593.0 5940.0,3604.0 C 5940.0,3624.0 5871.0,3874.0 5851.0,3925.0 C 5834.0,3970.0 5829.0,3975.0 5799.0,3978.0 C 5759.0,3981.0 5682.0,3996.0 5659.0,4005.0 C 5646.0,4010.0 5641.0,4003.0 5637.0,3973.0" fill="pink"/>
	<path d="M 6050.0,3067.0 L 6050.0,2984.0 L 6118.0,2962.0 C 6156.0,2950.0 6190.0,2940.0 6193.0,2940.0 C 6197.0,2940.0 6192.0,2957.0 6182.0,2978.0 C 6171.0,2998.0 6155.0,3039.0 6145.0,3068.0 C 6131.0,3113.0 6122.0,3124.0 6094.0,3136.0 C 6076.0,3144.0 6058.0,3150.0 6055.0,3150.0 C 6052.0,3150.0 6050.0,3113.0 6050.0,3067.0" fill="pink"/>
	<path d="M 5202.0,2622.0 L 5089.0,2596.0 L 5096.0,2533.0 C 5102.0,2471.0 5102.0,2470.0 5078.0,2470.0 C 5043.0,2470.0 5025.0,2451.0 5006.0,2396.0 C 4985.0,2332.0 4993.0,2276.0 5026.0,2261.0 C 5045.0,2253.0 5050.0,2243.0 5050.0,2212.0 C 5050.0,2180.0 5045.0,2171.0 5025.0,2162.0 C 4993.0,2147.0 4993.0,2141.0 5033.0,2098.0 C 5056.0,2073.0 5077.0,2061.0 5108.0,2055.0 L 5150.0,2048.0 L 5125.0,2006.0 C 5093.0,1952.0 5093.0,1920.0 5125.0,1866.0 C 5143.0,1836.0 5162.0,1818.0 5189.0,1808.0 C 5220.0,1795.0 5236.0,1779.0 5270.0,1720.0 C 5293.0,1680.0 5323.0,1623.0 5335.0,1593.0 C 5347.0,1562.0 5378.0,1516.0 5406.0,1487.0 C 5433.0,1458.0 5460.0,1426.0 5467.0,1415.0 C 5486.0,1384.0 5483.0,1280.0 5462.0,1240.0 C 5449.0,1213.0 5445.0,1188.0 5448.0,1132.0 C 5452.0,1061.0 5452.0,1059.0 5484.0,1046.0 C 5525.0,1029.0 5550.0,991.0 5550.0,946.0 C 5550.0,924.0 5556.0,908.0 5566.0,902.0 C 5580.0,894.0 5581.0,887.0 5572.0,862.0 C 5563.0,836.0 5564.0,831.0 5585.0,822.0 C 5598.0,816.0 5620.0,789.0 5635.0,761.0 C 5656.0,724.0 5670.0,709.0 5692.0,705.0 C 5708.0,701.0 5726.0,688.0 5731.0,676.0 C 5737.0,663.0 5763.0,642.0 5788.0,629.0 C 5815.0,616.0 5875.0,563.0 5926.0,510.0 L 6018.0,415.0 L 6035.0,335.0 C 6050.0,264.0 6057.0,250.0 6098.0,208.0 C 6124.0,181.0 6148.0,160.0 6153.0,160.0 C 6180.0,160.0 6293.0,94.0 6343.0,50.0 C 6388.0,9.0 6403.0,0.0 6414.0,9.0 C 6424.0,17.0 6435.0,17.0 6455.0,10.0 C 6489.0,-3.0 6496.0,5.0 6505.0,71.0 C 6515.0,145.0 6486.0,259.0 6445.0,307.0 C 6396.0,364.0 6380.0,412.0 6380.0,497.0 L 6380.0,572.0 L 6353.0,566.0 C 6261.0,548.0 6250.0,548.0 6250.0,563.0 C 6250.0,571.0 6259.0,606.0 6270.0,641.0 C 6288.0,700.0 6288.0,704.0 6272.0,717.0 C 6249.0,735.0 6175.0,727.0 6110.0,699.0 C 6069.0,681.0 6054.0,668.0 6035.0,631.0 L 6011.0,585.0 L 6010.0,632.0 C 6010.0,672.0 6004.0,686.0 5977.0,717.0 C 5934.0,765.0 5897.0,820.0 5902.0,825.0 C 5904.0,828.0 5948.0,822.0 5999.0,814.0 L 6092.0,798.0 L 6139.0,844.0 C 6178.0,883.0 6192.0,890.0 6224.0,890.0 C 6255.0,890.0 6269.0,897.0 6296.0,926.0 C 6315.0,945.0 6330.0,967.0 6330.0,974.0 C 6330.0,993.0 6305.0,1012.0 6283.0,1010.0 C 6273.0,1009.0 6246.0,1008.0 6223.0,1009.0 C 6184.0,1010.0 6179.0,1014.0 6156.0,1052.0 C 6143.0,1076.0 6129.0,1106.0 6125.0,1119.0 C 6118.0,1142.0 6118.0,1142.0 6189.0,1138.0 C 6234.0,1136.0 6260.0,1138.0 6260.0,1145.0 C 6260.0,1150.0 6251.0,1173.0 6242.0,1195.0 C 6228.0,1225.0 6226.0,1241.0 6233.0,1261.0 C 6242.0,1284.0 6238.0,1295.0 6199.0,1351.0 C 6157.0,1412.0 6151.0,1415.0 6049.0,1459.0 C 5955.0,1500.0 5933.0,1515.0 5853.0,1590.0 C 5803.0,1637.0 5757.0,1685.0 5751.0,1697.0 C 5740.0,1718.0 5743.0,1718.0 5814.0,1687.0 C 5880.0,1659.0 5894.0,1648.0 5934.0,1593.0 C 5982.0,1527.0 5997.0,1520.0 6040.0,1545.0 C 6054.0,1553.0 6083.0,1560.0 6105.0,1560.0 C 6155.0,1560.0 6160.0,1564.0 6188.0,1623.0 L 6211.0,1672.0 L 6169.0,1708.0 C 6132.0,1742.0 6128.0,1750.0 6126.0,1797.0 C 6125.0,1829.0 6119.0,1855.0 6110.0,1864.0 C 6083.0,1889.0 5956.0,1920.0 5878.0,1920.0 C 5838.0,1920.0 5800.0,1924.0 5795.0,1928.0 C 5771.0,1945.0 5730.0,2011.0 5730.0,2032.0 C 5729.0,2045.0 5710.0,2076.0 5685.0,2103.0 L 5642.0,2150.0 L 5541.0,2150.0 C 5437.0,2150.0 5362.0,2139.0 5297.0,2114.0 C 5250.0,2096.0 5240.0,2096.0 5240.0,2114.0 C 5240.0,2122.0 5261.0,2135.0 5288.0,2144.0 C 5322.0,2156.0 5341.0,2169.0 5354.0,2192.0 C 5385.0,2243.0 5438.0,2296.0 5493.0,2331.0 C 5522.0,2349.0 5547.0,2365.0 5549.0,2367.0 C 5551.0,2368.0 5547.0,2377.0 5539.0,2386.0 C 5528.0,2399.0 5513.0,2401.0 5448.0,2395.0 C 5374.0,2388.0 5370.0,2389.0 5370.0,2408.0 C 5370.0,2421.0 5386.0,2441.0 5413.0,2460.0 C 5437.0,2477.0 5464.0,2504.0 5473.0,2519.0 L 5490.0,2548.0 L 5418.0,2599.0 C 5379.0,2627.0 5339.0,2649.0 5331.0,2649.0 C 5322.0,2648.0 5264.0,2636.0 5202.0,2622.0" fill="pink"/>
	<path d="M 6267.0,2503.0 C 6264.0,2498.0 6259.0,2474.0 6255.0,2448.0 L 6248.0,2400.0 L 6314.0,2400.0 C 6380.0,2400.0 6380.0,2400.0 6380.0,2428.0 C 6380.0,2464.0 6334.0,2510.0 6298.0,2510.0 C 6283.0,2510.0 6269.0,2507.0 6267.0,2503.0" fill="pink"/>
</svg>
