<?xml version="1.0" ?>
<svg xmlns="http://www.w3.org/2000/svg" xmlns:ev="http://www.w3.org/2001/xml-events" xmlns:xlink="http://www.w3.org/1999/xlink" baseProfile="full" height="575px" version="1.1" viewBox="-1029.12 -763.5512495058841 12298.24 11767.470113035204" width="600px">
	<defs/>
	<path d="M 4805.0,9979.0 C 4613.0,9936.0 4525.0,9905.0 4445.0,9852.0 L 4390.0,9816.0 L 4390.0,9763.0 C 4390.0,9733.0 4383.0,9693.0 4375.0,9673.0 C 4354.0,9624.0 4356.0,9593.0 4384.0,9533.0 C 4403.0,9494.0 4405.0,9480.0 4395.0,9477.0 C 4380.0,9471.0 4350.0,9387.0 4350.0,9349.0 C 4350.0,9334.0 4355.0,9320.0 4361.0,9318.0 C 4369.0,9315.0 4368.0,9304.0 4356.0,9283.0 C 4333.0,9238.0 4336.0,9229.0 4380.0,9196.0 C 4458.0,9138.0 4498.0,9050.0 4446.0,9050.0 C 4432.0,9050.0 4418.0,9055.0 4415.0,9060.0 C 4411.0,9066.0 4388.0,9081.0 4363.0,9094.0 L 4317.0,9117.0 L 4257.0,9053.0 C 4194.0,8987.0 4061.0,8871.0 4023.0,8851.0 C 4011.0,8845.0 3982.0,8840.0 3958.0,8841.0 C 3934.0,8842.0 3897.0,8835.0 3874.0,8827.0 C 3852.0,8819.0 3821.0,8814.0 3807.0,8817.0 C 3753.0,8828.0 3691.0,8810.0 3624.0,8764.0 C 3588.0,8739.0 3536.0,8710.0 3508.0,8699.0 C 3480.0,8688.0 3444.0,8670.0 3429.0,8659.0 C 3389.0,8631.0 3336.0,8519.0 3336.0,8462.0 L 3335.0,8416.0 L 3434.0,8398.0 C 3525.0,8382.0 3562.0,8368.0 3549.0,8355.0 C 3546.0,8353.0 3500.0,8342.0 3447.0,8331.0 C 3377.0,8317.0 3322.0,8297.0 3249.0,8261.0 C 3190.0,8231.0 3133.0,8210.0 3115.0,8210.0 C 3097.0,8210.0 3045.0,8228.0 2999.0,8249.0 C 2896.0,8297.0 2835.0,8310.0 2720.0,8310.0 C 2656.0,8310.0 2624.0,8315.0 2603.0,8327.0 C 2564.0,8349.0 2520.0,8338.0 2520.0,8307.0 C 2520.0,8269.0 2508.0,8262.0 2453.0,8267.0 C 2406.0,8272.0 2400.0,8275.0 2400.0,8295.0 C 2400.0,8307.0 2407.0,8331.0 2416.0,8349.0 C 2431.0,8380.0 2431.0,8382.0 2396.0,8446.0 C 2376.0,8481.0 2360.0,8518.0 2360.0,8527.0 C 2360.0,8537.0 2374.0,8559.0 2391.0,8576.0 C 2416.0,8601.0 2421.0,8614.0 2416.0,8634.0 C 2407.0,8670.0 2360.0,8676.0 2286.0,8650.0 C 2253.0,8639.0 2213.0,8630.0 2196.0,8630.0 C 2158.0,8630.0 2044.0,8665.0 2011.0,8687.0 C 1988.0,8702.0 1987.0,8702.0 1995.0,8679.0 C 1999.0,8666.0 2009.0,8597.0 2018.0,8525.0 L 2033.0,8395.0 L 2106.0,8317.0 C 2186.0,8232.0 2198.0,8207.0 2181.0,8159.0 C 2175.0,8141.0 2173.0,8104.0 2176.0,8074.0 C 2182.0,8030.0 2186.0,8020.0 2201.0,8020.0 C 2226.0,8020.0 2225.0,7997.0 2199.0,7855.0 C 2173.0,7720.0 2178.0,7704.0 2257.0,7650.0 C 2316.0,7611.0 2325.0,7584.0 2283.0,7574.0 C 2200.0,7556.0 2179.0,7548.0 2170.0,7530.0 C 2160.0,7512.0 2157.0,7511.0 2137.0,7524.0 C 2125.0,7532.0 2084.0,7544.0 2045.0,7550.0 C 1955.0,7566.0 1932.0,7580.0 1928.0,7625.0 L 1925.0,7661.0 L 1890.0,7631.0 L 1855.0,7602.0 L 1873.0,7551.0 C 1892.0,7497.0 1889.0,7468.0 1862.0,7438.0 C 1848.0,7421.0 1810.0,7413.0 1810.0,7426.0 C 1810.0,7430.0 1815.0,7450.0 1821.0,7471.0 C 1831.0,7504.0 1830.0,7513.0 1811.0,7544.0 C 1798.0,7564.0 1784.0,7580.0 1780.0,7580.0 C 1775.0,7580.0 1760.0,7569.0 1746.0,7555.0 C 1715.0,7524.0 1697.0,7523.0 1673.0,7553.0 C 1663.0,7565.0 1648.0,7575.0 1640.0,7575.0 C 1630.0,7575.0 1625.0,7584.0 1625.0,7602.0 C 1626.0,7625.0 1623.0,7627.0 1607.0,7619.0 C 1597.0,7613.0 1579.0,7610.0 1567.0,7612.0 C 1553.0,7614.0 1537.0,7605.0 1522.0,7588.0 C 1509.0,7573.0 1474.0,7547.0 1444.0,7530.0 C 1415.0,7513.0 1390.0,7494.0 1390.0,7489.0 C 1390.0,7484.0 1382.0,7480.0 1372.0,7480.0 C 1359.0,7480.0 1338.0,7509.0 1300.0,7578.0 C 1186.0,7786.0 1178.0,7796.0 1126.0,7791.0 C 1098.0,7788.0 1097.0,7789.0 1103.0,7825.0 C 1109.0,7860.0 1108.0,7861.0 1091.0,7846.0 C 1068.0,7825.0 1050.0,7826.0 1035.0,7847.0 C 1024.0,7862.0 1018.0,7861.0 971.0,7831.0 C 935.0,7808.0 913.0,7800.0 896.0,7804.0 C 876.0,7809.0 872.0,7805.0 861.0,7770.0 C 840.0,7700.0 759.0,7664.0 727.0,7710.0 C 719.0,7721.0 700.0,7733.0 683.0,7736.0 C 657.0,7741.0 651.0,7738.0 632.0,7706.0 C 609.0,7668.0 596.0,7663.0 556.0,7681.0 C 540.0,7689.0 530.0,7704.0 525.0,7727.0 C 520.0,7755.0 515.0,7760.0 502.0,7754.0 C 448.0,7731.0 360.0,7702.0 328.0,7696.0 C 297.0,7690.0 290.0,7692.0 290.0,7706.0 C 290.0,7717.0 285.0,7720.0 274.0,7716.0 C 265.0,7713.0 240.0,7707.0 217.0,7704.0 C 194.0,7700.0 164.0,7689.0 150.0,7680.0 C 119.0,7659.0 64.0,7640.0 35.0,7640.0 C 16.0,7640.0 12.0,7633.0 6.0,7594.0 C 3.0,7568.0 0.0,7528.0 0.0,7504.0 C 0.0,7461.0 1.0,7460.0 33.0,7460.0 C 50.0,7460.0 116.0,7471.0 178.0,7483.0 C 283.0,7504.0 290.0,7505.0 290.0,7488.0 C 290.0,7479.0 280.0,7465.0 268.0,7459.0 C 247.0,7448.0 248.0,7447.0 280.0,7434.0 C 305.0,7423.0 311.0,7415.0 307.0,7400.0 C 303.0,7385.0 307.0,7380.0 323.0,7380.0 C 354.0,7380.0 367.0,7369.0 380.0,7336.0 C 388.0,7315.0 387.0,7304.0 379.0,7294.0 C 363.0,7274.0 348.0,7277.0 306.0,7305.0 C 270.0,7329.0 172.0,7360.0 131.0,7360.0 C 114.0,7360.0 110.0,7354.0 110.0,7330.0 C 110.0,7300.0 110.0,7300.0 135.0,7316.0 C 159.0,7331.0 163.0,7331.0 203.0,7316.0 C 267.0,7291.0 288.0,7270.0 296.0,7223.0 C 304.0,7169.0 293.0,7164.0 157.0,7151.0 C 98.0,7145.0 39.0,7138.0 24.0,7134.0 C -14.0,7124.0 14.0,7110.0 72.0,7110.0 C 117.0,7110.0 121.0,7107.0 145.0,7070.0 C 159.0,7048.0 182.0,7001.0 197.0,6964.0 C 223.0,6902.0 223.0,6897.0 207.0,6885.0 C 191.0,6874.0 191.0,6872.0 206.0,6866.0 C 214.0,6863.0 244.0,6860.0 272.0,6860.0 L 322.0,6860.0 L 316.0,6894.0 C 311.0,6919.0 313.0,6929.0 325.0,6934.0 C 333.0,6937.0 340.0,6952.0 340.0,6968.0 C 340.0,7002.0 356.0,7020.0 387.0,7020.0 C 403.0,7020.0 410.0,7014.0 410.0,7001.0 C 410.0,6990.0 406.0,6978.0 400.0,6975.0 C 381.0,6963.0 390.0,6941.0 418.0,6926.0 C 444.0,6912.0 448.0,6913.0 463.0,6931.0 C 487.0,6959.0 495.0,6955.0 528.0,6902.0 C 552.0,6863.0 566.0,6851.0 601.0,6841.0 C 671.0,6820.0 763.0,6775.0 793.0,6747.0 L 820.0,6721.0 L 820.0,6755.0 L 820.0,6789.0 L 863.0,6771.0 C 895.0,6757.0 905.0,6747.0 906.0,6729.0 C 907.0,6682.0 909.0,6679.0 938.0,6682.0 C 960.0,6684.0 966.0,6690.0 968.0,6718.0 C 972.0,6758.0 996.0,6761.0 1034.0,6725.0 C 1071.0,6691.0 1068.0,6665.0 1022.0,6641.0 C 993.0,6626.0 993.0,6600.0 1023.0,6600.0 C 1036.0,6600.0 1051.0,6595.0 1057.0,6589.0 C 1075.0,6571.0 1115.0,6582.0 1118.0,6607.0 C 1120.0,6619.0 1127.0,6634.0 1135.0,6640.0 C 1146.0,6649.0 1152.0,6646.0 1163.0,6624.0 C 1177.0,6598.0 1182.0,6596.0 1246.0,6596.0 C 1312.0,6595.0 1315.0,6594.0 1325.0,6566.0 C 1333.0,6542.0 1331.0,6535.0 1309.0,6516.0 L 1283.0,6494.0 L 1359.0,6493.0 C 1410.0,6493.0 1447.0,6487.0 1468.0,6476.0 C 1502.0,6459.0 1510.0,6433.0 1485.0,6424.0 C 1474.0,6419.0 1473.0,6414.0 1482.0,6400.0 C 1493.0,6382.0 1490.0,6374.0 1446.0,6315.0 C 1441.0,6309.0 1440.0,6283.0 1444.0,6259.0 L 1451.0,6215.0 L 1515.0,6199.0 L 1580.0,6183.0 L 1609.0,6215.0 C 1652.0,6264.0 1675.0,6273.0 1739.0,6266.0 C 1800.0,6259.0 1816.0,6250.0 1873.0,6196.0 C 1913.0,6158.0 1972.0,6137.0 2067.0,6125.0 C 2115.0,6119.0 2119.0,6116.0 2110.0,6099.0 C 2090.0,6062.0 2063.0,6057.0 1988.0,6075.0 C 1939.0,6088.0 1896.0,6108.0 1844.0,6143.0 C 1791.0,6178.0 1757.0,6194.0 1725.0,6198.0 C 1670.0,6204.0 1652.0,6191.0 1652.0,6146.0 C 1652.0,6127.0 1649.0,6104.0 1646.0,6093.0 C 1641.0,6078.0 1647.0,6071.0 1676.0,6061.0 C 1713.0,6048.0 1810.0,5962.0 1810.0,5943.0 C 1810.0,5937.0 1799.0,5929.0 1786.0,5926.0 C 1757.0,5919.0 1660.0,5792.0 1660.0,5762.0 C 1660.0,5751.0 1677.0,5720.0 1697.0,5693.0 C 1717.0,5667.0 1751.0,5623.0 1772.0,5595.0 C 1793.0,5568.0 1818.0,5516.0 1829.0,5480.0 C 1844.0,5430.0 1859.0,5405.0 1892.0,5374.0 C 1941.0,5326.0 1998.0,5295.0 2053.0,5287.0 C 2073.0,5284.0 2103.0,5272.0 2118.0,5261.0 C 2159.0,5232.0 2200.0,5224.0 2200.0,5244.0 C 2200.0,5273.0 2230.0,5261.0 2247.0,5224.0 C 2261.0,5196.0 2268.0,5190.0 2285.0,5195.0 C 2325.0,5208.0 2343.0,5205.0 2362.0,5179.0 C 2389.0,5143.0 2379.0,5116.0 2324.0,5084.0 C 2284.0,5060.0 2281.0,5056.0 2293.0,5041.0 C 2319.0,5012.0 2390.0,4861.0 2390.0,4835.0 C 2390.0,4817.0 2385.0,4810.0 2370.0,4810.0 C 2353.0,4810.0 2352.0,4807.0 2360.0,4784.0 C 2378.0,4739.0 2372.0,4713.0 2344.0,4706.0 C 2314.0,4698.0 2317.0,4678.0 2357.0,4616.0 C 2391.0,4564.0 2372.0,4551.0 2312.0,4586.0 C 2263.0,4615.0 2255.0,4613.0 2264.0,4576.0 C 2268.0,4559.0 2285.0,4543.0 2315.0,4528.0 C 2369.0,4500.0 2540.0,4317.0 2570.0,4254.0 C 2584.0,4226.0 2595.0,4176.0 2600.0,4113.0 C 2613.0,3975.0 2624.0,3943.0 2686.0,3866.0 C 2716.0,3829.0 2740.0,3792.0 2740.0,3785.0 C 2740.0,3766.0 2727.0,3760.0 2710.0,3770.0 C 2699.0,3777.0 2692.0,3769.0 2680.0,3737.0 C 2671.0,3714.0 2660.0,3695.0 2655.0,3695.0 C 2650.0,3695.0 2642.0,3714.0 2638.0,3738.0 C 2634.0,3763.0 2618.0,3796.0 2599.0,3819.0 C 2563.0,3862.0 2534.0,3948.0 2521.0,4056.0 C 2514.0,4119.0 2506.0,4136.0 2458.0,4206.0 C 2358.0,4352.0 2345.0,4369.0 2333.0,4370.0 C 2309.0,4370.0 2289.0,4322.0 2280.0,4244.0 C 2267.0,4126.0 2251.0,4038.0 2219.0,3905.0 C 2203.0,3839.0 2185.0,3740.0 2180.0,3685.0 C 2174.0,3630.0 2166.0,3560.0 2161.0,3530.0 C 2156.0,3500.0 2153.0,3474.0 2155.0,3472.0 C 2157.0,3470.0 2165.0,3493.0 2174.0,3524.0 C 2190.0,3577.0 2210.0,3600.0 2243.0,3600.0 C 2263.0,3600.0 2360.0,3499.0 2360.0,3477.0 C 2360.0,3425.0 2318.0,3406.0 2255.0,3430.0 C 2238.0,3437.0 2222.0,3437.0 2210.0,3430.0 C 2181.0,3415.0 2153.0,3326.0 2131.0,3179.0 C 2120.0,3105.0 2084.0,2926.0 2051.0,2780.0 C 2019.0,2634.0 1989.0,2495.0 1985.0,2471.0 C 1967.0,2342.0 1821.0,2160.0 1735.0,2160.0 C 1717.0,2160.0 1717.0,2161.0 1731.0,2121.0 C 1740.0,2094.0 1747.0,2090.0 1776.0,2090.0 C 1800.0,2090.0 1819.0,2082.0 1835.0,2065.0 L 1860.0,2041.0 L 1860.0,2065.0 C 1860.0,2101.0 1900.0,2098.0 1961.0,2058.0 C 2004.0,2031.0 2010.0,2022.0 2010.0,1993.0 C 2010.0,1975.0 1996.0,1930.0 1980.0,1893.0 C 1963.0,1857.0 1950.0,1823.0 1950.0,1819.0 C 1950.0,1814.0 1963.0,1810.0 1979.0,1810.0 C 2001.0,1810.0 2010.0,1816.0 2020.0,1840.0 C 2046.0,1903.0 2100.0,1903.0 2100.0,1840.0 C 2100.0,1794.0 2129.0,1755.0 2178.0,1734.0 C 2258.0,1699.0 2368.0,1670.0 2421.0,1670.0 L 2476.0,1670.0 L 2498.0,1625.0 C 2510.0,1600.0 2531.0,1562.0 2545.0,1540.0 L 2570.0,1500.0 L 2724.0,1500.0 L 2877.0,1500.0 L 2924.0,1441.0 C 2970.0,1384.0 2973.0,1382.0 3003.0,1391.0 C 3021.0,1396.0 3079.0,1403.0 3132.0,1407.0 L 3230.0,1413.0 L 3241.0,1380.0 L 3253.0,1347.0 L 3267.0,1374.0 C 3283.0,1404.0 3296.0,1406.0 3328.0,1385.0 C 3343.0,1374.0 3368.0,1370.0 3412.0,1372.0 L 3475.0,1375.0 L 3472.0,1416.0 C 3470.0,1439.0 3476.0,1474.0 3484.0,1494.0 C 3501.0,1536.0 3522.0,1540.0 3578.0,1511.0 C 3598.0,1501.0 3653.0,1484.0 3700.0,1475.0 C 3764.0,1462.0 3793.0,1451.0 3818.0,1428.0 C 3851.0,1400.0 3854.0,1400.0 3925.0,1406.0 C 4014.0,1414.0 4050.0,1398.0 4050.0,1351.0 C 4050.0,1335.0 4058.0,1312.0 4068.0,1300.0 C 4084.0,1280.0 4089.0,1279.0 4109.0,1289.0 C 4127.0,1299.0 4151.0,1299.0 4222.0,1289.0 C 4318.0,1275.0 4330.0,1266.0 4330.0,1207.0 C 4330.0,1191.0 4339.0,1181.0 4359.0,1174.0 C 4377.0,1167.0 4398.0,1145.0 4415.0,1114.0 C 4488.0,986.0 4501.0,981.0 4616.0,1031.0 L 4687.0,1062.0 L 4786.0,1022.0 C 4884.0,982.0 4885.0,982.0 4935.0,997.0 C 4962.0,1005.0 5032.0,1036.0 5089.0,1066.0 C 5147.0,1096.0 5201.0,1120.0 5209.0,1120.0 C 5217.0,1120.0 5254.0,1104.0 5291.0,1085.0 C 5329.0,1066.0 5362.0,1050.0 5365.0,1050.0 C 5369.0,1050.0 5362.0,1063.0 5351.0,1079.0 C 5339.0,1095.0 5330.0,1114.0 5330.0,1122.0 C 5330.0,1130.0 5314.0,1151.0 5295.0,1170.0 L 5260.0,1204.0 L 5260.0,1319.0 C 5260.0,1402.0 5265.0,1454.0 5278.0,1500.0 C 5294.0,1554.0 5295.0,1570.0 5284.0,1595.0 C 5274.0,1620.0 5275.0,1630.0 5290.0,1661.0 C 5302.0,1684.0 5305.0,1701.0 5299.0,1711.0 C 5277.0,1747.0 5297.0,1794.0 5325.0,1770.0 C 5336.0,1761.0 5342.0,1765.0 5355.0,1791.0 C 5380.0,1838.0 5458.0,1918.0 5507.0,1947.0 C 5549.0,1972.0 5579.0,1974.0 5622.0,1956.0 C 5634.0,1950.0 5651.0,1960.0 5682.0,1993.0 C 5737.0,2050.0 5937.0,2212.0 5995.0,2245.0 C 6026.0,2264.0 6050.0,2270.0 6077.0,2268.0 C 6113.0,2265.0 6115.0,2263.0 6124.0,2221.0 C 6136.0,2165.0 6160.0,2155.0 6300.0,2145.0 C 6420.0,2137.0 6458.0,2122.0 6466.0,2080.0 C 6473.0,2046.0 6490.0,2040.0 6583.0,2040.0 L 6650.0,2040.0 L 6650.0,2070.0 C 6650.0,2124.0 6710.0,2161.0 6740.0,2125.0 C 6747.0,2117.0 6761.0,2110.0 6772.0,2110.0 C 6791.0,2110.0 6791.0,2111.0 6776.0,2135.0 C 6759.0,2161.0 6755.0,2217.0 6769.0,2239.0 C 6777.0,2251.0 6789.0,2248.0 6842.0,2222.0 C 6877.0,2204.0 6915.0,2190.0 6926.0,2190.0 C 6976.0,2190.0 6984.0,2121.0 6938.0,2087.0 C 6923.0,2076.0 6887.0,2065.0 6855.0,2061.0 C 6801.0,2055.0 6800.0,2054.0 6814.0,2035.0 C 6828.0,2015.0 6829.0,2015.0 6901.0,2034.0 C 6996.0,2058.0 7017.0,2057.0 7048.0,2027.0 C 7068.0,2007.0 7073.0,1991.0 7073.0,1956.0 L 7073.0,1910.0 L 7114.0,1910.0 C 7137.0,1910.0 7166.0,1903.0 7179.0,1894.0 C 7201.0,1878.0 7203.0,1878.0 7212.0,1894.0 C 7226.0,1919.0 7247.0,1913.0 7293.0,1871.0 C 7316.0,1850.0 7345.0,1830.0 7357.0,1826.0 C 7369.0,1822.0 7389.0,1803.0 7400.0,1785.0 C 7423.0,1748.0 7440.0,1748.0 7470.0,1784.0 C 7486.0,1804.0 7537.0,1804.0 7570.0,1785.0 C 7605.0,1765.0 7618.0,1767.0 7622.0,1792.0 C 7625.0,1814.0 7630.0,1815.0 7698.0,1814.0 C 7763.0,1814.0 7771.0,1816.0 7776.0,1835.0 C 7780.0,1852.0 7799.0,1860.0 7881.0,1880.0 C 7935.0,1893.0 7984.0,1906.0 7989.0,1909.0 C 7994.0,1913.0 8001.0,1930.0 8005.0,1947.0 C 8011.0,1975.0 8009.0,1980.0 7992.0,1980.0 C 7981.0,1980.0 7966.0,1987.0 7959.0,1996.0 C 7948.0,2010.0 7948.0,2014.0 7963.0,2024.0 C 7972.0,2031.0 7988.0,2057.0 7999.0,2083.0 C 8020.0,2133.0 8036.0,2145.0 8093.0,2155.0 C 8146.0,2165.0 8176.0,2193.0 8195.0,2250.0 C 8212.0,2301.0 8222.0,2308.0 8306.0,2325.0 C 8331.0,2330.0 8343.0,2342.0 8364.0,2380.0 C 8396.0,2439.0 8433.0,2470.0 8471.0,2470.0 C 8497.0,2470.0 8500.0,2473.0 8500.0,2503.0 C 8500.0,2567.0 8527.0,2580.0 8606.0,2555.0 C 8627.0,2548.0 8628.0,2551.0 8626.0,2635.0 C 8625.0,2720.0 8626.0,2722.0 8656.0,2750.0 C 8673.0,2765.0 8693.0,2779.0 8699.0,2781.0 C 8715.0,2787.0 8731.0,2923.0 8716.0,2932.0 C 8698.0,2944.0 8647.0,2941.0 8568.0,2924.0 C 8527.0,2916.0 8478.0,2911.0 8455.0,2915.0 C 8397.0,2923.0 8263.0,2993.0 8203.0,3045.0 C 8133.0,3107.0 8113.0,3153.0 8107.0,3272.0 L 8102.0,3369.0 L 8160.0,3461.0 C 8217.0,3549.0 8219.0,3554.0 8206.0,3584.0 C 8190.0,3623.0 8137.0,3660.0 8097.0,3660.0 C 8073.0,3660.0 8055.0,3671.0 8018.0,3711.0 C 7958.0,3775.0 7890.0,3876.0 7890.0,3902.0 C 7890.0,3932.0 7944.0,3980.0 7977.0,3980.0 C 7992.0,3980.0 8066.0,4003.0 8141.0,4032.0 L 8277.0,4085.0 L 8284.0,4155.0 C 8292.0,4234.0 8297.0,4227.0 8191.0,4293.0 C 8140.0,4325.0 8129.0,4337.0 8120.0,4370.0 C 8115.0,4392.0 8105.0,4428.0 8099.0,4451.0 C 8092.0,4481.0 8080.0,4496.0 8057.0,4508.0 C 8040.0,4518.0 8013.0,4538.0 7997.0,4553.0 C 7973.0,4576.0 7969.0,4586.0 7974.0,4612.0 C 7984.0,4662.0 8003.0,4684.0 8069.0,4719.0 C 8140.0,4757.0 8145.0,4773.0 8103.0,4838.0 C 8083.0,4869.0 8065.0,4883.0 8039.0,4890.0 C 8020.0,4895.0 7993.0,4911.0 7979.0,4926.0 C 7957.0,4950.0 7955.0,4959.0 7955.0,5058.0 C 7955.0,5127.0 7950.0,5173.0 7942.0,5188.0 C 7933.0,5203.0 7931.0,5225.0 7935.0,5251.0 L 7942.0,5290.0 L 7886.0,5290.0 C 7821.0,5290.0 7645.0,5237.0 7636.0,5215.0 C 7629.0,5196.0 7648.0,5140.0 7670.0,5115.0 C 7693.0,5089.0 7683.0,5064.0 7636.0,5022.0 C 7582.0,4975.0 7527.0,4950.0 7477.0,4950.0 C 7450.0,4950.0 7428.0,4944.0 7420.0,4935.0 C 7392.0,4901.0 7366.0,4930.0 7368.0,4994.0 C 7369.0,5016.0 7384.0,5039.0 7429.0,5084.0 C 7463.0,5118.0 7490.0,5150.0 7490.0,5155.0 C 7490.0,5160.0 7480.0,5188.0 7468.0,5217.0 C 7447.0,5268.0 7447.0,5270.0 7464.0,5315.0 C 7479.0,5354.0 7480.0,5366.0 7469.0,5392.0 C 7457.0,5422.0 7458.0,5424.0 7496.0,5458.0 C 7586.0,5539.0 7627.0,5578.0 7658.0,5614.0 C 7688.0,5649.0 7690.0,5655.0 7690.0,5731.0 C 7690.0,5775.0 7694.0,5819.0 7700.0,5829.0 C 7709.0,5847.0 7742.0,5863.0 7793.0,5874.0 C 7808.0,5878.0 7820.0,5887.0 7820.0,5896.0 C 7820.0,5904.0 7844.0,5937.0 7873.0,5968.0 C 7939.0,6038.0 8005.0,6127.0 8015.0,6160.0 C 8019.0,6174.0 8032.0,6195.0 8043.0,6208.0 C 8063.0,6230.0 8063.0,6230.0 8044.0,6230.0 C 7996.0,6230.0 7988.0,6274.0 8021.0,6350.0 C 8040.0,6394.0 8045.0,6399.0 8083.0,6405.0 C 8106.0,6409.0 8142.0,6421.0 8162.0,6431.0 C 8183.0,6442.0 8201.0,6450.0 8204.0,6450.0 C 8219.0,6450.0 8240.0,6415.0 8240.0,6390.0 C 8240.0,6335.0 8294.0,6346.0 8368.0,6417.0 C 8440.0,6486.0 8444.0,6500.0 8410.0,6586.0 L 8381.0,6657.0 L 8409.0,6792.0 C 8436.0,6923.0 8436.0,6927.0 8420.0,6976.0 C 8392.0,7056.0 8415.0,7169.0 8476.0,7259.0 C 8496.0,7289.0 8500.0,7307.0 8500.0,7368.0 C 8500.0,7412.0 8505.0,7449.0 8514.0,7463.0 C 8521.0,7475.0 8530.0,7508.0 8533.0,7537.0 C 8540.0,7594.0 8556.0,7633.0 8604.0,7698.0 C 8665.0,7782.0 8681.0,7799.0 8715.0,7811.0 C 8745.0,7822.0 8748.0,7827.0 8743.0,7852.0 C 8739.0,7873.0 8743.0,7887.0 8760.0,7905.0 L 8782.0,7928.0 L 8758.0,7943.0 C 8599.0,8042.0 8557.0,8059.0 8418.0,8075.0 C 8331.0,8085.0 8292.0,8094.0 8271.0,8109.0 C 8234.0,8136.0 8226.0,8135.0 8172.0,8104.0 C 8132.0,8080.0 8124.0,8079.0 8090.0,8089.0 C 8061.0,8097.0 8045.0,8097.0 8026.0,8089.0 C 7997.0,8076.0 7975.0,8087.0 7965.0,8121.0 C 7956.0,8149.0 7884.0,8148.0 7877.0,8120.0 C 7870.0,8091.0 7824.0,8094.0 7778.0,8127.0 C 7742.0,8151.0 7668.0,8253.0 7598.0,8372.0 C 7572.0,8418.0 7572.0,8418.0 7508.0,8422.0 C 7455.0,8426.0 7434.0,8422.0 7377.0,8397.0 L 7308.0,8368.0 L 7226.0,8419.0 L 7143.0,8470.0 L 7059.0,8445.0 C 6928.0,8407.0 6916.0,8409.0 6895.0,8480.0 C 6886.0,8510.0 6881.0,8515.0 6857.0,8512.0 C 6828.0,8508.0 6825.0,8512.0 6815.0,8572.0 C 6810.0,8605.0 6804.0,8612.0 6752.0,8636.0 C 6525.0,8742.0 6494.0,8764.0 6504.0,8806.0 C 6509.0,8826.0 6504.0,8840.0 6480.0,8866.0 C 6445.0,8907.0 6444.0,8918.0 6470.0,9002.0 C 6494.0,9080.0 6494.0,9079.0 6470.0,9073.0 C 6456.0,9069.0 6448.0,9056.0 6444.0,9030.0 C 6434.0,8970.0 6408.0,8937.0 6325.0,8881.0 C 6240.0,8824.0 6211.0,8819.0 6123.0,8845.0 C 6025.0,8874.0 5990.0,8931.0 6048.0,8967.0 C 6063.0,8976.0 6077.0,8985.0 6078.0,8986.0 C 6080.0,8987.0 6072.0,9002.0 6059.0,9019.0 C 6040.0,9045.0 6037.0,9060.0 6038.0,9128.0 C 6040.0,9198.0 6038.0,9209.0 6017.0,9229.0 C 5988.0,9256.0 5940.0,9270.0 5878.0,9270.0 C 5839.0,9270.0 5825.0,9265.0 5800.0,9240.0 C 5765.0,9205.0 5768.0,9207.0 5736.0,9221.0 C 5707.0,9234.0 5695.0,9267.0 5685.0,9354.0 C 5675.0,9438.0 5651.0,9460.0 5567.0,9460.0 C 5491.0,9460.0 5458.0,9480.0 5440.0,9538.0 C 5433.0,9558.0 5410.0,9609.0 5388.0,9650.0 L 5348.0,9725.0 L 5304.0,9721.0 C 5264.0,9718.0 5260.0,9716.0 5260.0,9691.0 C 5260.0,9676.0 5254.0,9655.0 5246.0,9645.0 C 5234.0,9628.0 5228.0,9630.0 5146.0,9689.0 C 5045.0,9762.0 5025.0,9794.0 5009.0,9907.0 C 4997.0,9996.0 4991.0,10020.0 4982.0,10019.0 C 4978.0,10018.0 4899.0,10001.0 4805.0,9979.0 M 4551.0,1113.0 C 4566.0,1072.0 4548.0,1040.0 4510.0,1040.0 C 4482.0,1040.0 4480.0,1042.0 4480.0,1078.0 C 4480.0,1141.0 4531.0,1166.0 4551.0,1113.0" fill="pink"/>
	<path d="M 10049.0,1898.0 C 10049.0,1896.0 10046.0,1870.0 10043.0,1840.0 C 10040.0,1810.0 10034.0,1778.0 10029.0,1768.0 C 10015.0,1743.0 10018.0,1714.0 10035.0,1700.0 C 10053.0,1685.0 10048.0,1645.0 10024.0,1598.0 C 10007.0,1566.0 9984.0,1563.0 9942.0,1587.0 C 9917.0,1601.0 9908.0,1602.0 9867.0,1590.0 C 9825.0,1579.0 9820.0,1574.0 9820.0,1549.0 C 9820.0,1513.0 9780.0,1486.0 9702.0,1468.0 C 9656.0,1458.0 9647.0,1452.0 9635.0,1423.0 C 9623.0,1395.0 9617.0,1390.0 9597.0,1395.0 C 9582.0,1399.0 9569.0,1395.0 9557.0,1382.0 C 9538.0,1361.0 9536.0,1347.0 9546.0,1287.0 C 9552.0,1250.0 9552.0,1249.0 9525.0,1256.0 C 9498.0,1263.0 9497.0,1262.0 9503.0,1229.0 C 9507.0,1210.0 9523.0,1183.0 9540.0,1168.0 C 9556.0,1153.0 9570.0,1138.0 9570.0,1136.0 C 9570.0,1133.0 9550.0,1117.0 9526.0,1101.0 C 9483.0,1071.0 9482.0,1069.0 9492.0,1034.0 C 9497.0,1014.0 9499.0,992.0 9496.0,984.0 C 9493.0,975.0 9497.0,970.0 9509.0,970.0 C 9533.0,970.0 9583.0,945.0 9603.0,923.0 C 9611.0,913.0 9621.0,893.0 9625.0,878.0 C 9630.0,857.0 9627.0,848.0 9611.0,838.0 C 9599.0,831.0 9590.0,817.0 9590.0,807.0 C 9590.0,797.0 9585.0,779.0 9579.0,768.0 C 9568.0,748.0 9569.0,747.0 9601.0,755.0 C 9657.0,768.0 9702.0,766.0 9712.0,750.0 C 9720.0,737.0 9707.0,702.0 9642.0,569.0 C 9641.0,566.0 9652.0,565.0 9667.0,567.0 C 9700.0,572.0 9800.0,526.0 9800.0,505.0 C 9800.0,498.0 9779.0,474.0 9754.0,452.0 C 9725.0,428.0 9709.0,407.0 9713.0,398.0 C 9716.0,390.0 9771.0,363.0 9836.0,338.0 C 9908.0,310.0 9959.0,284.0 9964.0,273.0 C 9969.0,263.0 9976.0,248.0 9980.0,240.0 C 9984.0,232.0 9995.0,224.0 10004.0,222.0 C 10016.0,219.0 10020.0,226.0 10020.0,247.0 C 10020.0,295.0 10041.0,354.0 10063.0,372.0 C 10081.0,387.0 10082.0,390.0 10068.0,390.0 C 10043.0,390.0 10038.0,406.0 10045.0,451.0 C 10052.0,489.0 10054.0,492.0 10080.0,488.0 C 10106.0,484.0 10109.0,487.0 10120.0,529.0 C 10127.0,554.0 10135.0,634.0 10139.0,705.0 L 10146.0,835.0 L 10193.0,923.0 C 10219.0,972.0 10240.0,1020.0 10240.0,1030.0 C 10240.0,1040.0 10229.0,1090.0 10216.0,1142.0 C 10202.0,1193.0 10187.0,1288.0 10181.0,1353.0 C 10172.0,1464.0 10170.0,1474.0 10136.0,1523.0 L 10101.0,1575.0 L 10094.0,1738.0 C 10088.0,1887.0 10086.0,1900.0 10069.0,1900.0 C 10058.0,1900.0 10050.0,1899.0 10049.0,1898.0" fill="pink"/>
</svg>
