<?xml version="1.0" ?>
<svg xmlns="http://www.w3.org/2000/svg" xmlns:ev="http://www.w3.org/2001/xml-events" xmlns:xlink="http://www.w3.org/1999/xlink" baseProfile="full" height="600px" version="1.1" viewBox="-672.1981644836362 -1029.3210000000001 11576.96277959475 12300.642" width="565px">
	<defs/>
	<path d="M 5095.0,10228.0 C 5051.0,10223.0 4996.0,10215.0 4972.0,10210.0 C 4943.0,10203.0 4891.0,10203.0 4814.0,10211.0 C 4679.0,10223.0 4664.0,10218.0 4674.0,10161.0 C 4678.0,10136.0 4675.0,10121.0 4663.0,10108.0 C 4649.0,10092.0 4648.0,10000.0 4652.0,9080.0 L 4657.0,8070.0 L 4421.0,8070.0 C 4291.0,8070.0 3715.0,8075.0 3140.0,8080.0 L 2096.0,8090.0 L 2060.0,8118.0 C 2001.0,8166.0 1981.0,8173.0 1924.0,8167.0 C 1889.0,8163.0 1859.0,8153.0 1838.0,8136.0 C 1793.0,8102.0 1721.0,8070.0 1688.0,8070.0 C 1663.0,8070.0 1661.0,8068.0 1671.0,8046.0 C 1677.0,8033.0 1692.0,8018.0 1705.0,8012.0 C 1724.0,8003.0 1728.0,7992.0 1734.0,7913.0 C 1737.0,7865.0 1744.0,7824.0 1749.0,7822.0 C 1786.0,7810.0 1791.0,7793.0 1800.0,7670.0 C 1806.0,7601.0 1814.0,7500.0 1819.0,7446.0 C 1827.0,7354.0 1826.0,7343.0 1804.0,7289.0 C 1791.0,7257.0 1780.0,7224.0 1780.0,7215.0 C 1780.0,7207.0 1775.0,7200.0 1770.0,7200.0 C 1751.0,7200.0 1739.0,7253.0 1746.0,7311.0 C 1750.0,7343.0 1750.0,7377.0 1746.0,7386.0 C 1740.0,7402.0 1738.0,7402.0 1721.0,7386.0 C 1703.0,7369.0 1701.0,7369.0 1690.0,7389.0 C 1684.0,7401.0 1669.0,7410.0 1656.0,7410.0 C 1643.0,7410.0 1618.0,7413.0 1599.0,7417.0 C 1571.0,7422.0 1569.0,7424.0 1585.0,7431.0 C 1596.0,7435.0 1629.0,7439.0 1658.0,7439.0 L 1710.0,7440.0 L 1710.0,7489.0 C 1710.0,7537.0 1709.0,7538.0 1676.0,7544.0 C 1633.0,7552.0 1594.0,7543.0 1557.0,7517.0 C 1535.0,7502.0 1519.0,7499.0 1487.0,7503.0 C 1453.0,7508.0 1441.0,7505.0 1422.0,7487.0 C 1407.0,7473.0 1381.0,7464.0 1347.0,7460.0 C 1288.0,7454.0 1283.0,7445.0 1281.0,7343.0 C 1280.0,7285.0 1282.0,7280.0 1302.0,7280.0 C 1314.0,7280.0 1331.0,7287.0 1340.0,7295.0 C 1356.0,7310.0 1361.0,7307.0 1398.0,7263.0 C 1433.0,7220.0 1485.0,7131.0 1556.0,6989.0 C 1569.0,6964.0 1587.0,6937.0 1596.0,6929.0 C 1617.0,6912.0 1681.0,6917.0 1696.0,6936.0 C 1706.0,6949.0 1712.0,6945.0 1736.0,6911.0 C 1771.0,6863.0 1876.0,6800.0 1921.0,6800.0 C 1941.0,6800.0 1969.0,6787.0 2001.0,6764.0 L 2050.0,6728.0 L 2160.0,6732.0 C 2221.0,6733.0 2270.0,6734.0 2270.0,6733.0 C 2270.0,6733.0 2249.0,6720.0 2223.0,6705.0 C 2196.0,6690.0 2166.0,6666.0 2154.0,6652.0 C 2140.0,6635.0 2131.0,6630.0 2126.0,6638.0 C 2122.0,6645.0 2101.0,6650.0 2079.0,6650.0 C 2045.0,6650.0 2040.0,6647.0 2040.0,6628.0 C 2040.0,6615.0 2054.0,6583.0 2070.0,6555.0 C 2086.0,6528.0 2100.0,6499.0 2100.0,6491.0 C 2100.0,6466.0 2069.0,6501.0 2048.0,6550.0 C 2020.0,6614.0 1993.0,6640.0 1953.0,6640.0 C 1934.0,6640.0 1903.0,6647.0 1883.0,6655.0 C 1838.0,6674.0 1813.0,6674.0 1776.0,6655.0 C 1744.0,6638.0 1730.0,6643.0 1730.0,6669.0 C 1730.0,6708.0 1666.0,6734.0 1612.0,6716.0 C 1590.0,6709.0 1589.0,6705.0 1596.0,6654.0 C 1602.0,6604.0 1601.0,6600.0 1582.0,6600.0 C 1566.0,6600.0 1561.0,6609.0 1555.0,6655.0 C 1550.0,6702.0 1544.0,6713.0 1510.0,6740.0 C 1465.0,6776.0 1425.0,6779.0 1393.0,6748.0 C 1380.0,6736.0 1370.0,6731.0 1370.0,6737.0 C 1370.0,6742.0 1379.0,6755.0 1391.0,6766.0 C 1410.0,6783.0 1411.0,6794.0 1408.0,6881.0 C 1405.0,6984.0 1389.0,7020.0 1349.0,7020.0 C 1325.0,7020.0 1277.0,6956.0 1284.0,6933.0 C 1287.0,6923.0 1296.0,6848.0 1305.0,6765.0 C 1314.0,6683.0 1328.0,6594.0 1337.0,6567.0 C 1347.0,6535.0 1350.0,6499.0 1346.0,6457.0 C 1343.0,6423.0 1341.0,6361.0 1341.0,6318.0 C 1341.0,6237.0 1326.0,6170.0 1290.0,6100.0 C 1270.0,6060.0 1268.0,6048.0 1275.0,5954.0 L 1282.0,5851.0 L 1231.0,5778.0 C 1204.0,5738.0 1154.0,5675.0 1121.0,5638.0 C 1088.0,5601.0 1059.0,5562.0 1055.0,5551.0 C 1052.0,5540.0 1027.0,5515.0 1001.0,5496.0 C 952.0,5460.0 930.0,5416.0 930.0,5353.0 C 930.0,5333.0 920.0,5314.0 900.0,5295.0 C 877.0,5273.0 870.0,5259.0 875.0,5242.0 C 879.0,5226.0 872.0,5209.0 850.0,5182.0 C 824.0,5151.0 820.0,5137.0 820.0,5089.0 C 820.0,5028.0 813.0,5000.0 799.0,5000.0 C 794.0,5000.0 790.0,5029.0 790.0,5064.0 C 790.0,5119.0 787.0,5131.0 767.0,5147.0 C 732.0,5175.0 700.0,5226.0 700.0,5254.0 C 700.0,5270.0 691.0,5285.0 675.0,5296.0 C 642.0,5318.0 615.0,5311.0 616.0,5280.0 C 617.0,5252.0 605.0,5240.0 573.0,5240.0 C 554.0,5240.0 551.0,5233.0 545.0,5185.0 C 541.0,5155.0 534.0,5130.0 529.0,5130.0 C 524.0,5130.0 520.0,5136.0 520.0,5143.0 C 520.0,5150.0 507.0,5166.0 492.0,5177.0 C 468.0,5195.0 461.0,5210.0 452.0,5269.0 C 436.0,5365.0 413.0,5420.0 389.0,5420.0 C 379.0,5420.0 370.0,5424.0 370.0,5429.0 C 370.0,5434.0 359.0,5441.0 345.0,5444.0 C 326.0,5449.0 320.0,5457.0 320.0,5476.0 C 320.0,5492.0 315.0,5500.0 308.0,5497.0 C 299.0,5494.0 296.0,5474.0 297.0,5437.0 C 299.0,5388.0 305.0,5370.0 345.0,5308.0 C 374.0,5264.0 395.0,5219.0 399.0,5191.0 C 404.0,5164.0 423.0,5119.0 447.0,5083.0 C 469.0,5049.0 493.0,5001.0 500.0,4976.0 C 508.0,4946.0 523.0,4922.0 540.0,4910.0 C 562.0,4894.0 568.0,4881.0 573.0,4835.0 C 579.0,4778.0 582.0,4773.0 721.0,4584.0 C 747.0,4549.0 754.0,4528.0 764.0,4443.0 C 772.0,4371.0 781.0,4336.0 798.0,4313.0 C 810.0,4296.0 820.0,4271.0 820.0,4257.0 C 820.0,4239.0 836.0,4216.0 871.0,4183.0 C 899.0,4157.0 938.0,4108.0 958.0,4075.0 C 978.0,4042.0 1029.0,3968.0 1071.0,3910.0 C 1141.0,3814.0 1149.0,3798.0 1168.0,3715.0 C 1180.0,3666.0 1189.0,3596.0 1189.0,3560.0 C 1189.0,3483.0 1210.0,3404.0 1231.0,3406.0 C 1239.0,3407.0 1254.0,3409.0 1265.0,3411.0 C 1278.0,3414.0 1285.0,3409.0 1288.0,3395.0 C 1294.0,3361.0 1350.0,3331.0 1350.0,3362.0 C 1350.0,3378.0 1401.0,3430.0 1416.0,3430.0 C 1423.0,3430.0 1443.0,3409.0 1461.0,3383.0 C 1491.0,3340.0 1494.0,3338.0 1501.0,3358.0 C 1507.0,3373.0 1518.0,3380.0 1537.0,3380.0 C 1560.0,3380.0 1571.0,3370.0 1602.0,3321.0 C 1635.0,3269.0 1638.0,3257.0 1629.0,3232.0 C 1620.0,3206.0 1623.0,3200.0 1665.0,3157.0 C 1702.0,3121.0 1711.0,3105.0 1708.0,3083.0 C 1703.0,3040.0 1678.0,3045.0 1647.0,3095.0 C 1623.0,3132.0 1613.0,3140.0 1588.0,3140.0 C 1559.0,3140.0 1558.0,3142.0 1564.0,3173.0 C 1584.0,3270.0 1585.0,3265.0 1542.0,3278.0 C 1520.0,3285.0 1491.0,3290.0 1478.0,3290.0 C 1464.0,3290.0 1441.0,3299.0 1426.0,3311.0 C 1405.0,3328.0 1400.0,3329.0 1400.0,3316.0 C 1400.0,3290.0 1352.0,3297.0 1292.0,3331.0 L 1238.0,3362.0 L 1258.0,3333.0 C 1269.0,3318.0 1288.0,3296.0 1300.0,3285.0 C 1313.0,3274.0 1349.0,3231.0 1380.0,3190.0 C 1412.0,3149.0 1459.0,3095.0 1485.0,3070.0 C 1511.0,3045.0 1576.0,2973.0 1630.0,2909.0 L 1727.0,2793.0 L 1734.0,2720.0 C 1743.0,2629.0 1775.0,2556.0 1830.0,2505.0 C 1861.0,2476.0 1869.0,2472.0 1860.0,2488.0 C 1854.0,2501.0 1881.0,2477.0 1922.0,2434.0 C 1962.0,2392.0 2038.0,2319.0 2090.0,2272.0 C 2142.0,2225.0 2204.0,2159.0 2227.0,2125.0 C 2257.0,2080.0 2306.0,2031.0 2397.0,1957.0 C 2467.0,1899.0 2570.0,1813.0 2625.0,1765.0 C 2680.0,1718.0 2749.0,1668.0 2778.0,1655.0 C 2819.0,1636.0 2882.0,1580.0 3063.0,1403.0 C 3190.0,1278.0 3310.0,1153.0 3328.0,1125.0 C 3353.0,1087.0 3370.0,1072.0 3401.0,1061.0 C 3432.0,1051.0 3449.0,1036.0 3471.0,1002.0 C 3487.0,977.0 3498.0,949.0 3496.0,940.0 C 3494.0,932.0 3489.0,899.0 3485.0,868.0 L 3479.0,812.0 L 3527.0,784.0 C 3660.0,707.0 3772.0,619.0 3907.0,482.0 C 4014.0,374.0 4052.0,328.0 4063.0,296.0 C 4079.0,251.0 4171.0,119.0 4239.0,45.0 C 4262.0,20.0 4282.0,0.0 4284.0,0.0 C 4286.0,0.0 4324.0,73.0 4369.0,163.0 C 4427.0,280.0 4469.0,349.0 4520.0,412.0 L 4590.0,500.0 L 4656.0,500.0 C 4755.0,500.0 4799.0,534.0 4815.0,623.0 L 4823.0,662.0 L 4879.0,656.0 C 4992.0,643.0 4983.0,650.0 5082.0,502.0 C 5132.0,426.0 5178.0,362.0 5183.0,358.0 C 5207.0,343.0 5360.0,311.0 5416.0,309.0 C 5461.0,308.0 5488.0,314.0 5529.0,333.0 C 5618.0,375.0 5620.0,393.0 5544.0,445.0 C 5436.0,519.0 5434.0,565.0 5527.0,766.0 C 5563.0,846.0 5602.0,916.0 5612.0,921.0 C 5623.0,927.0 5630.0,942.0 5630.0,958.0 C 5630.0,983.0 5625.0,986.0 5547.0,1008.0 C 5477.0,1028.0 5458.0,1038.0 5415.0,1080.0 C 5381.0,1112.0 5340.0,1139.0 5289.0,1161.0 C 5221.0,1190.0 5211.0,1197.0 5202.0,1228.0 C 5193.0,1255.0 5194.0,1269.0 5206.0,1291.0 L 5220.0,1320.0 L 5257.0,1302.0 C 5292.0,1286.0 5293.0,1286.0 5304.0,1304.0 C 5310.0,1315.0 5325.0,1334.0 5337.0,1347.0 C 5350.0,1360.0 5363.0,1383.0 5366.0,1398.0 C 5370.0,1413.0 5382.0,1432.0 5393.0,1441.0 C 5413.0,1457.0 5410.0,1462.0 5270.0,1643.0 L 5126.0,1829.0 L 5103.0,1791.0 C 5090.0,1769.0 5066.0,1747.0 5049.0,1740.0 C 5021.0,1728.0 5016.0,1728.0 5003.0,1746.0 C 4966.0,1797.0 4986.0,1869.0 5045.0,1897.0 C 5083.0,1915.0 5151.0,2051.0 5158.0,2122.0 C 5162.0,2165.0 5158.0,2176.0 5120.0,2235.0 C 5078.0,2299.0 5078.0,2302.0 5086.0,2353.0 C 5093.0,2393.0 5091.0,2421.0 5078.0,2470.0 C 5054.0,2564.0 5055.0,2580.0 5085.0,2580.0 C 5143.0,2580.0 5201.0,2556.0 5221.0,2523.0 C 5232.0,2506.0 5250.0,2488.0 5261.0,2485.0 C 5271.0,2481.0 5287.0,2465.0 5295.0,2449.0 L 5311.0,2420.0 L 5367.0,2475.0 C 5414.0,2521.0 5428.0,2529.0 5459.0,2529.0 C 5506.0,2528.0 5606.0,2552.0 5622.0,2568.0 C 5649.0,2595.0 5683.0,2581.0 5746.0,2519.0 L 5808.0,2457.0 L 6152.0,2540.0 C 6341.0,2585.0 6501.0,2628.0 6509.0,2634.0 C 6540.0,2658.0 6561.0,2729.0 6559.0,2798.0 C 6558.0,2851.0 6562.0,2872.0 6579.0,2900.0 C 6608.0,2948.0 6606.0,2976.0 6573.0,2992.0 C 6531.0,3012.0 6506.0,3072.0 6502.0,3165.0 C 6499.0,3212.0 6492.0,3253.0 6483.0,3267.0 C 6473.0,3282.0 6471.0,3300.0 6475.0,3320.0 C 6482.0,3350.0 6483.0,3351.0 6496.0,3332.0 C 6503.0,3321.0 6523.0,3307.0 6540.0,3302.0 C 6566.0,3293.0 6572.0,3294.0 6585.0,3313.0 C 6593.0,3325.0 6600.0,3348.0 6600.0,3365.0 C 6601.0,3390.0 6610.0,3402.0 6659.0,3437.0 C 6735.0,3493.0 6754.0,3492.0 6779.0,3435.0 C 6801.0,3385.0 6817.0,3380.0 6860.0,3410.0 L 6888.0,3430.0 L 6898.0,3402.0 C 6904.0,3387.0 6912.0,3365.0 6915.0,3353.0 C 6921.0,3330.0 6945.0,3324.0 7012.0,3329.0 C 7050.0,3332.0 7100.0,3304.0 7100.0,3280.0 C 7100.0,3269.0 7111.0,3253.0 7126.0,3244.0 C 7140.0,3234.0 7149.0,3221.0 7146.0,3213.0 C 7143.0,3205.0 7147.0,3183.0 7155.0,3163.0 C 7163.0,3144.0 7170.0,3115.0 7170.0,3099.0 C 7170.0,3079.0 7178.0,3066.0 7200.0,3053.0 C 7225.0,3039.0 7230.0,3030.0 7225.0,3011.0 C 7221.0,2996.0 7225.0,2981.0 7236.0,2969.0 C 7245.0,2959.0 7250.0,2944.0 7246.0,2934.0 C 7242.0,2924.0 7247.0,2909.0 7259.0,2896.0 C 7270.0,2884.0 7280.0,2864.0 7282.0,2850.0 C 7284.0,2831.0 7292.0,2824.0 7315.0,2822.0 C 7358.0,2817.0 7400.0,2774.0 7400.0,2735.0 C 7400.0,2711.0 7406.0,2700.0 7424.0,2692.0 L 7448.0,2681.0 L 7420.0,2623.0 C 7405.0,2591.0 7389.0,2554.0 7385.0,2540.0 C 7378.0,2517.0 7381.0,2518.0 7425.0,2554.0 L 7472.0,2593.0 L 7524.0,2575.0 C 7552.0,2565.0 7594.0,2547.0 7617.0,2533.0 C 7658.0,2510.0 7661.0,2510.0 7685.0,2526.0 C 7714.0,2545.0 7705.0,2547.0 7885.0,2482.0 C 7982.0,2447.0 8009.0,2441.0 8111.0,2436.0 L 8227.0,2431.0 L 8245.0,2471.0 C 8259.0,2500.0 8271.0,2513.0 8291.0,2517.0 C 8309.0,2520.0 8328.0,2536.0 8344.0,2560.0 C 8360.0,2585.0 8380.0,2601.0 8399.0,2605.0 C 8418.0,2609.0 8432.0,2621.0 8439.0,2639.0 C 8446.0,2654.0 8487.0,2702.0 8530.0,2745.0 C 8599.0,2814.0 8610.0,2829.0 8610.0,2860.0 C 8611.0,2885.0 8620.0,2906.0 8644.0,2933.0 L 8678.0,2971.0 L 8712.0,2931.0 C 8745.0,2892.0 8780.0,2805.0 8780.0,2762.0 C 8780.0,2750.0 8793.0,2726.0 8810.0,2707.0 C 8827.0,2687.0 8842.0,2656.0 8846.0,2632.0 C 8852.0,2593.0 8855.0,2590.0 8885.0,2590.0 C 8909.0,2590.0 8919.0,2584.0 8928.0,2565.0 C 8937.0,2545.0 8937.0,2540.0 8926.0,2540.0 C 8919.0,2540.0 8894.0,2517.0 8871.0,2490.0 C 8832.0,2443.0 8829.0,2436.0 8835.0,2399.0 C 8841.0,2364.0 8848.0,2357.0 8890.0,2335.0 L 8938.0,2311.0 L 8964.0,2331.0 C 8991.0,2352.0 9060.0,2369.0 9060.0,2354.0 C 9061.0,2325.0 9077.0,2320.0 9124.0,2336.0 C 9159.0,2348.0 9175.0,2349.0 9183.0,2341.0 C 9201.0,2323.0 9250.0,2328.0 9257.0,2348.0 C 9260.0,2357.0 9273.0,2376.0 9285.0,2390.0 C 9298.0,2404.0 9310.0,2431.0 9314.0,2451.0 C 9323.0,2499.0 9341.0,2513.0 9432.0,2540.0 L 9508.0,2562.0 L 9474.0,2597.0 C 9455.0,2615.0 9440.0,2635.0 9440.0,2640.0 C 9440.0,2644.0 9425.0,2653.0 9407.0,2659.0 C 9383.0,2667.0 9368.0,2682.0 9353.0,2713.0 L 9332.0,2756.0 L 9389.0,2788.0 C 9445.0,2819.0 9446.0,2819.0 9442.0,2860.0 C 9438.0,2895.0 9441.0,2902.0 9458.0,2907.0 C 9475.0,2911.0 9483.0,2927.0 9496.0,2987.0 C 9508.0,3042.0 9509.0,3065.0 9501.0,3073.0 C 9495.0,3079.0 9490.0,3108.0 9490.0,3137.0 L 9490.0,3190.0 L 9528.0,3190.0 C 9554.0,3190.0 9573.0,3197.0 9585.0,3210.0 C 9594.0,3220.0 9633.0,3241.0 9670.0,3255.0 C 9707.0,3269.0 9748.0,3292.0 9760.0,3305.0 C 9783.0,3329.0 9783.0,3331.0 9768.0,3363.0 C 9758.0,3385.0 9755.0,3402.0 9761.0,3411.0 C 9772.0,3428.0 9772.0,3487.0 9761.0,3515.0 C 9756.0,3528.0 9759.0,3547.0 9771.0,3570.0 C 9782.0,3589.0 9790.0,3610.0 9790.0,3618.0 C 9790.0,3626.0 9798.0,3628.0 9815.0,3624.0 C 9833.0,3620.0 9840.0,3622.0 9840.0,3632.0 C 9840.0,3651.0 9820.0,3670.0 9798.0,3670.0 C 9788.0,3670.0 9774.0,3683.0 9766.0,3699.0 C 9757.0,3715.0 9739.0,3741.0 9725.0,3758.0 L 9700.0,3788.0 L 9734.0,3794.0 C 9763.0,3800.0 9770.0,3806.0 9776.0,3833.0 C 9784.0,3871.0 9795.0,3880.0 9836.0,3880.0 C 9874.0,3880.0 9888.0,3905.0 9860.0,3920.0 C 9828.0,3937.0 9816.0,3969.0 9833.0,3988.0 C 9841.0,3997.0 9850.0,4016.0 9852.0,4030.0 C 9853.0,4044.0 9865.0,4059.0 9877.0,4065.0 C 9889.0,4070.0 9902.0,4086.0 9905.0,4100.0 C 9911.0,4121.0 9904.0,4132.0 9861.0,4172.0 C 9804.0,4224.0 9796.0,4258.0 9829.0,4294.0 C 9840.0,4306.0 9853.0,4340.0 9858.0,4370.0 C 9868.0,4420.0 9866.0,4429.0 9844.0,4467.0 C 9829.0,4494.0 9820.0,4524.0 9820.0,4553.0 C 9820.0,4582.0 9813.0,4606.0 9800.0,4623.0 C 9789.0,4637.0 9780.0,4656.0 9780.0,4665.0 C 9780.0,4674.0 9773.0,4695.0 9764.0,4711.0 C 9752.0,4735.0 9750.0,4758.0 9756.0,4821.0 C 9763.0,4900.0 9764.0,4902.0 9810.0,4950.0 C 9870.0,5012.0 9876.0,5033.0 9843.0,5076.0 C 9821.0,5106.0 9819.0,5116.0 9825.0,5157.0 C 9829.0,5187.0 9845.0,5225.0 9867.0,5256.0 C 9888.0,5287.0 9904.0,5325.0 9907.0,5351.0 C 9910.0,5375.0 9920.0,5403.0 9928.0,5413.0 C 9942.0,5429.0 9940.0,5434.0 9897.0,5478.0 C 9871.0,5504.0 9850.0,5534.0 9850.0,5543.0 C 9850.0,5553.0 9834.0,5570.0 9815.0,5581.0 C 9791.0,5596.0 9780.0,5609.0 9780.0,5625.0 C 9780.0,5643.0 9772.0,5651.0 9743.0,5661.0 C 9722.0,5668.0 9685.0,5684.0 9661.0,5697.0 C 9612.0,5723.0 9546.0,5727.0 9494.0,5708.0 C 9465.0,5698.0 9458.0,5699.0 9440.0,5715.0 C 9423.0,5730.0 9416.0,5731.0 9394.0,5722.0 C 9381.0,5715.0 9368.0,5710.0 9366.0,5710.0 C 9364.0,5710.0 9360.0,5743.0 9358.0,5783.0 C 9352.0,5864.0 9308.0,5970.0 9280.0,5970.0 C 9271.0,5970.0 9245.0,5984.0 9222.0,6001.0 C 9184.0,6029.0 9177.0,6031.0 9146.0,6020.0 C 9117.0,6011.0 9099.0,6012.0 9042.0,6029.0 C 8950.0,6057.0 8927.0,6056.0 8910.0,6025.0 L 8897.0,6000.0 L 8878.0,6027.0 C 8851.0,6068.0 8852.0,6202.0 8880.0,6237.0 C 8891.0,6251.0 8900.0,6273.0 8900.0,6285.0 C 8900.0,6297.0 8911.0,6317.0 8925.0,6330.0 C 8943.0,6347.0 8950.0,6364.0 8950.0,6391.0 C 8950.0,6412.0 8945.0,6432.0 8939.0,6436.0 C 8929.0,6442.0 8932.0,6466.0 8946.0,6503.0 C 8950.0,6514.0 8942.0,6520.0 8920.0,6525.0 L 8889.0,6532.0 L 8891.0,6598.0 C 8892.0,6645.0 8886.0,6683.0 8871.0,6724.0 C 8844.0,6801.0 8844.0,6811.0 8879.0,6844.0 C 8895.0,6859.0 8923.0,6905.0 8941.0,6946.0 C 8971.0,7016.0 8978.0,7024.0 9049.0,7073.0 C 9133.0,7131.0 9154.0,7162.0 9155.0,7230.0 C 9155.0,7275.0 9155.0,7275.0 9215.0,7304.0 C 9272.0,7331.0 9276.0,7332.0 9325.0,7320.0 C 9352.0,7313.0 9397.0,7307.0 9424.0,7308.0 C 9467.0,7309.0 9476.0,7313.0 9506.0,7348.0 C 9524.0,7369.0 9569.0,7406.0 9605.0,7430.0 C 9665.0,7469.0 9669.0,7474.0 9655.0,7490.0 C 9628.0,7520.0 9637.0,7557.0 9680.0,7596.0 C 9704.0,7618.0 9720.0,7641.0 9720.0,7654.0 C 9720.0,7677.0 9758.0,7720.0 9778.0,7720.0 C 9784.0,7720.0 9802.0,7739.0 9816.0,7762.0 C 9840.0,7799.0 9841.0,7807.0 9831.0,7836.0 C 9824.0,7854.0 9820.0,7888.0 9821.0,7912.0 C 9824.0,7962.0 9812.0,7987.0 9754.0,8055.0 C 9723.0,8092.0 9711.0,8116.0 9708.0,8144.0 C 9705.0,8181.0 9703.0,8184.0 9649.0,8203.0 C 9604.0,8219.0 9588.0,8231.0 9563.0,8269.0 C 9515.0,8341.0 9507.0,8378.0 9515.0,8492.0 L 9522.0,8592.0 L 9494.0,8621.0 C 9479.0,8637.0 9461.0,8650.0 9454.0,8650.0 C 9447.0,8650.0 9416.0,8664.0 9384.0,8681.0 L 9326.0,8711.0 L 9238.0,8700.0 L 9150.0,8688.0 L 9114.0,8719.0 C 9083.0,8746.0 9072.0,8750.0 9017.0,8750.0 C 8971.0,8751.0 8946.0,8756.0 8919.0,8773.0 C 8887.0,8792.0 8873.0,8794.0 8804.0,8790.0 L 8725.0,8785.0 L 8697.0,8733.0 L 8669.0,8680.0 L 8638.0,8696.0 C 8610.0,8711.0 8607.0,8710.0 8586.0,8691.0 C 8572.0,8678.0 8550.0,8670.0 8528.0,8670.0 C 8508.0,8670.0 8487.0,8663.0 8480.0,8655.0 C 8473.0,8646.0 8448.0,8635.0 8424.0,8629.0 C 8394.0,8621.0 8373.0,8607.0 8355.0,8584.0 C 8341.0,8565.0 8320.0,8550.0 8309.0,8550.0 C 8298.0,8550.0 8276.0,8541.0 8261.0,8529.0 L 8233.0,8508.0 L 8166.0,8535.0 C 8121.0,8553.0 8093.0,8559.0 8078.0,8554.0 C 8065.0,8550.0 8046.0,8547.0 8034.0,8549.0 C 8023.0,8550.0 8006.0,8542.0 7995.0,8530.0 C 7985.0,8519.0 7971.0,8510.0 7964.0,8510.0 C 7957.0,8510.0 7935.0,8496.0 7915.0,8479.0 C 7880.0,8448.0 7850.0,8442.0 7775.0,8449.0 C 7764.0,8450.0 7742.0,8448.0 7725.0,8445.0 C 7698.0,8439.0 7694.0,8442.0 7684.0,8473.0 C 7669.0,8522.0 7684.0,8550.0 7725.0,8550.0 C 7752.0,8550.0 7760.0,8555.0 7771.0,8582.0 C 7778.0,8599.0 7783.0,8623.0 7782.0,8634.0 C 7781.0,8646.0 7785.0,8669.0 7791.0,8686.0 C 7805.0,8730.0 7778.0,8804.0 7732.0,8853.0 C 7702.0,8884.0 7696.0,8897.0 7699.0,8925.0 C 7701.0,8957.0 7699.0,8960.0 7676.0,8960.0 C 7656.0,8960.0 7646.0,8969.0 7630.0,9001.0 C 7617.0,9025.0 7612.0,9049.0 7616.0,9058.0 C 7623.0,9076.0 7640.0,9212.0 7643.0,9273.0 C 7644.0,9297.0 7649.0,9310.0 7658.0,9310.0 C 7694.0,9310.0 7713.0,9442.0 7686.0,9516.0 C 7673.0,9555.0 7673.0,9556.0 7706.0,9594.0 C 7730.0,9621.0 7740.0,9643.0 7740.0,9666.0 C 7740.0,9693.0 7747.0,9703.0 7787.0,9729.0 C 7859.0,9777.0 7871.0,9805.0 7880.0,9945.0 C 7884.0,10011.0 7885.0,10070.0 7882.0,10075.0 C 7879.0,10081.0 7863.0,10102.0 7847.0,10122.0 C 7819.0,10158.0 7817.0,10158.0 7793.0,10143.0 C 7770.0,10128.0 7768.0,10128.0 7742.0,10154.0 C 7702.0,10192.0 7633.0,10190.0 7565.0,10150.0 C 7521.0,10124.0 7506.0,10120.0 7435.0,10120.0 C 7391.0,10120.0 7338.0,10124.0 7318.0,10129.0 C 7291.0,10135.0 7276.0,10134.0 7260.0,10123.0 C 7237.0,10106.0 7183.0,10109.0 7113.0,10131.0 C 7074.0,10143.0 7067.0,10142.0 7020.0,10120.0 C 6970.0,10097.0 6968.0,10097.0 6922.0,10113.0 C 6895.0,10123.0 6846.0,10130.0 6804.0,10130.0 C 6763.0,10130.0 6717.0,10136.0 6697.0,10145.0 C 6677.0,10153.0 6645.0,10160.0 6625.0,10160.0 C 6605.0,10160.0 6567.0,10171.0 6540.0,10185.0 C 6491.0,10210.0 6489.0,10210.0 6436.0,10195.0 L 6382.0,10179.0 L 6330.0,10211.0 L 6279.0,10242.0 L 6192.0,10206.0 C 6144.0,10186.0 6090.0,10170.0 6072.0,10170.0 C 6054.0,10170.0 6030.0,10165.0 6019.0,10160.0 C 6005.0,10152.0 5994.0,10154.0 5973.0,10168.0 C 5946.0,10186.0 5933.0,10187.0 5690.0,10178.0 C 5394.0,10168.0 5358.0,10171.0 5279.0,10211.0 C 5247.0,10227.0 5210.0,10239.0 5198.0,10238.0 C 5185.0,10238.0 5139.0,10233.0 5095.0,10228.0 M 2395.0,6743.0 C 2440.0,6737.0 2441.0,6736.0 2419.0,6724.0 C 2388.0,6707.0 2350.0,6707.0 2311.0,6723.0 C 2255.0,6747.0 2296.0,6757.0 2395.0,6743.0" fill="pink"/>
</svg>
