<?xml version="1.0" ?>
<svg xmlns="http://www.w3.org/2000/svg" xmlns:ev="http://www.w3.org/2001/xml-events" xmlns:xlink="http://www.w3.org/1999/xlink" baseProfile="full" height="600px" version="1.1" viewBox="1320.6809193273768 -1027.138600160899 7596.638161345247 12296.031775640657" width="371px">
	<defs/>
	<path d="M 5190.0,10215.0 C 5190.0,10191.0 5215.0,10170.0 5244.0,10170.0 C 5253.0,10170.0 5260.0,10179.0 5260.0,10190.0 C 5260.0,10203.0 5253.0,10210.0 5240.0,10210.0 C 5229.0,10210.0 5217.0,10217.0 5214.0,10225.0 C 5205.0,10249.0 5190.0,10243.0 5190.0,10215.0" fill="pink"/>
	<path d="M 5062.0,10162.0 C 5048.0,10148.0 5041.0,10121.0 5036.0,10050.0 C 5032.0,9999.0 5031.0,9956.0 5032.0,9954.0 C 5034.0,9952.0 5046.0,9953.0 5057.0,9956.0 C 5075.0,9961.0 5077.0,9965.0 5068.0,9984.0 C 5061.0,10002.0 5063.0,10014.0 5078.0,10039.0 L 5098.0,10072.0 L 5115.0,10046.0 C 5130.0,10024.0 5130.0,10015.0 5120.0,9991.0 C 5103.0,9949.0 5110.0,9916.0 5138.0,9912.0 C 5150.0,9910.0 5185.0,9920.0 5216.0,9934.0 L 5271.0,9959.0 L 5281.0,9932.0 C 5289.0,9910.0 5347.0,9860.0 5365.0,9860.0 C 5375.0,9860.0 5370.0,9899.0 5359.0,9906.0 C 5353.0,9909.0 5350.0,9923.0 5353.0,9936.0 C 5356.0,9956.0 5354.0,9958.0 5339.0,9950.0 C 5309.0,9934.0 5300.0,9939.0 5300.0,9970.0 C 5300.0,9999.0 5299.0,10000.0 5258.0,9994.0 C 5204.0,9987.0 5169.0,10008.0 5186.0,10037.0 C 5192.0,10047.0 5207.0,10059.0 5219.0,10065.0 C 5251.0,10080.0 5241.0,10100.0 5181.0,10142.0 C 5121.0,10184.0 5089.0,10189.0 5062.0,10162.0" fill="pink"/>
	<path d="M 4989.0,9879.0 C 4980.0,9861.0 4981.0,9855.0 4993.0,9849.0 C 5001.0,9844.0 5022.0,9817.0 5039.0,9790.0 C 5056.0,9762.0 5074.0,9740.0 5078.0,9740.0 C 5093.0,9740.0 5120.0,9775.0 5120.0,9794.0 C 5120.0,9816.0 5103.0,9849.0 5077.0,9878.0 C 5050.0,9907.0 5005.0,9907.0 4989.0,9879.0" fill="pink"/>
	<path d="M 5260.0,9752.0 C 5260.0,9736.0 5267.0,9715.0 5275.0,9704.0 C 5289.0,9686.0 5289.0,9687.0 5290.0,9717.0 C 5290.0,9734.0 5293.0,9755.0 5296.0,9764.0 C 5300.0,9776.0 5296.0,9780.0 5281.0,9780.0 C 5265.0,9780.0 5260.0,9774.0 5260.0,9752.0" fill="pink"/>
	<path d="M 5000.0,9561.0 C 5000.0,9555.0 5005.0,9548.0 5010.0,9545.0 C 5016.0,9542.0 5020.0,9526.0 5020.0,9510.0 L 5020.0,9481.0 L 4978.0,9500.0 C 4952.0,9512.0 4913.0,9520.0 4879.0,9520.0 C 4833.0,9520.0 4817.0,9515.0 4782.0,9489.0 C 4746.0,9463.0 4731.0,9458.0 4684.0,9459.0 C 4652.0,9459.0 4618.0,9466.0 4605.0,9474.0 C 4585.0,9487.0 4581.0,9487.0 4576.0,9475.0 C 4573.0,9467.0 4562.0,9460.0 4552.0,9460.0 C 4542.0,9460.0 4512.0,9446.0 4486.0,9429.0 C 4451.0,9405.0 4436.0,9400.0 4427.0,9409.0 C 4401.0,9435.0 4364.0,9411.0 4324.0,9344.0 C 4303.0,9310.0 4296.0,9340.0 4313.0,9386.0 C 4329.0,9429.0 4329.0,9431.0 4310.0,9450.0 C 4299.0,9461.0 4277.0,9470.0 4260.0,9470.0 C 4235.0,9470.0 4230.0,9466.0 4230.0,9447.0 C 4230.0,9433.0 4210.0,9404.0 4175.0,9370.0 C 4135.0,9331.0 4120.0,9321.0 4120.0,9334.0 C 4120.0,9344.0 4131.0,9365.0 4145.0,9382.0 C 4159.0,9398.0 4170.0,9418.0 4170.0,9425.0 C 4170.0,9439.0 4132.0,9480.0 4121.0,9480.0 C 4118.0,9480.0 4108.0,9463.0 4098.0,9442.0 L 4082.0,9405.0 L 4081.0,9436.0 C 4080.0,9466.0 4042.0,9520.0 4021.0,9520.0 C 4016.0,9520.0 4005.0,9523.0 3996.0,9526.0 C 3984.0,9531.0 3980.0,9526.0 3980.0,9507.0 C 3980.0,9493.0 3963.0,9462.0 3940.0,9434.0 C 3894.0,9378.0 3892.0,9370.0 3921.0,9345.0 L 3941.0,9326.0 L 3918.0,9308.0 C 3896.0,9291.0 3896.0,9289.0 3913.0,9276.0 C 3937.0,9257.0 3934.0,9247.0 3906.0,9254.0 C 3870.0,9263.0 3859.0,9242.0 3869.0,9182.0 C 3874.0,9149.0 3886.0,9120.0 3901.0,9104.0 C 3919.0,9084.0 3921.0,9080.0 3907.0,9086.0 C 3897.0,9090.0 3861.0,9085.0 3828.0,9075.0 C 3782.0,9061.0 3764.0,9059.0 3750.0,9068.0 C 3724.0,9084.0 3718.0,9071.0 3739.0,9041.0 C 3808.0,8944.0 3821.0,8850.0 3766.0,8850.0 C 3754.0,8850.0 3734.0,8859.0 3721.0,8871.0 C 3709.0,8883.0 3696.0,8889.0 3693.0,8886.0 C 3679.0,8872.0 3714.0,8827.0 3780.0,8773.0 C 3833.0,8730.0 3849.0,8711.0 3844.0,8697.0 C 3840.0,8685.0 3851.0,8665.0 3879.0,8635.0 C 3902.0,8610.0 3920.0,8583.0 3920.0,8573.0 C 3920.0,8562.0 3902.0,8575.0 3867.0,8612.0 C 3824.0,8657.0 3806.0,8668.0 3774.0,8672.0 C 3753.0,8675.0 3734.0,8676.0 3733.0,8675.0 C 3731.0,8674.0 3750.0,8658.0 3775.0,8640.0 C 3800.0,8621.0 3820.0,8600.0 3820.0,8593.0 C 3820.0,8573.0 3810.0,8577.0 3754.0,8614.0 L 3703.0,8649.0 L 3691.0,8624.0 C 3682.0,8603.0 3674.0,8599.0 3647.0,8602.0 C 3622.0,8604.0 3612.0,8612.0 3601.0,8638.0 C 3593.0,8655.0 3583.0,8670.0 3578.0,8670.0 C 3560.0,8670.0 3558.0,8637.0 3574.0,8604.0 C 3592.0,8566.0 3596.0,8490.0 3580.0,8490.0 C 3561.0,8490.0 3530.0,8530.0 3530.0,8554.0 C 3530.0,8597.0 3521.0,8607.0 3490.0,8602.0 C 3461.0,8598.0 3460.0,8596.0 3460.0,8541.0 C 3461.0,8487.0 3462.0,8484.0 3500.0,8458.0 C 3522.0,8443.0 3540.0,8423.0 3540.0,8415.0 C 3540.0,8397.0 3528.0,8396.0 3511.0,8413.0 C 3501.0,8423.0 3495.0,8420.0 3479.0,8401.0 C 3452.0,8368.0 3455.0,8355.0 3497.0,8304.0 C 3527.0,8269.0 3541.0,8260.0 3566.0,8260.0 C 3593.0,8260.0 3630.0,8235.0 3630.0,8217.0 C 3630.0,8213.0 3615.0,8210.0 3596.0,8210.0 C 3574.0,8210.0 3560.0,8204.0 3556.0,8194.0 C 3551.0,8181.0 3545.0,8182.0 3519.0,8204.0 C 3502.0,8219.0 3475.0,8237.0 3460.0,8245.0 L 3432.0,8260.0 L 3425.0,8197.0 C 3420.0,8150.0 3422.0,8128.0 3434.0,8105.0 C 3443.0,8089.0 3450.0,8068.0 3450.0,8059.0 C 3450.0,8051.0 3456.0,8035.0 3464.0,8025.0 C 3477.0,8006.0 3479.0,8007.0 3519.0,8033.0 L 3561.0,8061.0 L 3580.0,8038.0 L 3598.0,8015.0 L 3629.0,8044.0 C 3658.0,8071.0 3660.0,8072.0 3660.0,8053.0 C 3660.0,8028.0 3642.0,8012.0 3577.0,7980.0 C 3512.0,7948.0 3505.0,7930.0 3557.0,7930.0 C 3594.0,7930.0 3678.0,7888.0 3694.0,7861.0 C 3704.0,7845.0 3696.0,7847.0 3650.0,7871.0 C 3616.0,7889.0 3605.0,7891.0 3583.0,7881.0 C 3563.0,7872.0 3560.0,7867.0 3570.0,7855.0 C 3580.0,7844.0 3578.0,7834.0 3561.0,7807.0 L 3540.0,7773.0 L 3600.0,7744.0 C 3633.0,7728.0 3660.0,7711.0 3660.0,7707.0 C 3660.0,7693.0 3630.0,7688.0 3602.0,7698.0 C 3539.0,7722.0 3521.0,7722.0 3494.0,7695.0 C 3466.0,7667.0 3466.0,7648.0 3497.0,7640.0 C 3508.0,7637.0 3531.0,7618.0 3549.0,7598.0 C 3580.0,7563.0 3580.0,7561.0 3559.0,7555.0 C 3545.0,7550.0 3531.0,7555.0 3516.0,7569.0 C 3504.0,7581.0 3483.0,7590.0 3469.0,7590.0 C 3448.0,7590.0 3442.0,7581.0 3423.0,7522.0 C 3412.0,7485.0 3403.0,7454.0 3404.0,7452.0 C 3406.0,7451.0 3421.0,7455.0 3439.0,7461.0 C 3511.0,7486.0 3520.0,7430.0 3452.0,7380.0 C 3429.0,7363.0 3409.0,7342.0 3409.0,7332.0 C 3408.0,7323.0 3407.0,7311.0 3405.0,7305.0 C 3404.0,7300.0 3402.0,7291.0 3402.0,7286.0 C 3401.0,7281.0 3391.0,7285.0 3380.0,7295.0 C 3364.0,7310.0 3350.0,7312.0 3300.0,7307.0 C 3266.0,7303.0 3230.0,7296.0 3220.0,7290.0 C 3196.0,7277.0 3194.0,7235.0 3216.0,7226.0 C 3248.0,7214.0 3424.0,7220.0 3450.0,7235.0 C 3484.0,7254.0 3518.0,7253.0 3560.0,7230.0 L 3595.0,7211.0 L 3535.0,7210.0 C 3501.0,7210.0 3470.0,7206.0 3464.0,7200.0 C 3459.0,7195.0 3430.0,7186.0 3400.0,7180.0 C 3371.0,7174.0 3344.0,7168.0 3341.0,7165.0 C 3327.0,7151.0 3400.0,7074.0 3458.0,7042.0 C 3535.0,7000.0 3552.0,7003.0 3605.0,7072.0 C 3627.0,7101.0 3696.0,7178.0 3758.0,7244.0 C 3819.0,7309.0 3870.0,7367.0 3870.0,7371.0 C 3870.0,7376.0 3851.0,7384.0 3828.0,7390.0 C 3762.0,7407.0 3751.0,7413.0 3782.0,7417.0 C 3810.0,7421.0 3875.0,7407.0 3900.0,7391.0 C 3912.0,7383.0 3907.0,7371.0 3872.0,7319.0 C 3845.0,7280.0 3831.0,7251.0 3835.0,7240.0 C 3839.0,7227.0 3832.0,7216.0 3810.0,7204.0 C 3794.0,7194.0 3780.0,7183.0 3780.0,7179.0 C 3780.0,7176.0 3767.0,7153.0 3750.0,7129.0 C 3713.0,7074.0 3710.0,7039.0 3743.0,7048.0 C 3763.0,7053.0 3764.0,7052.0 3751.0,7037.0 C 3744.0,7028.0 3727.0,7020.0 3715.0,7020.0 C 3685.0,7020.0 3677.0,6997.0 3701.0,6982.0 C 3711.0,6975.0 3720.0,6966.0 3720.0,6962.0 C 3720.0,6957.0 3695.0,6936.0 3665.0,6915.0 C 3613.0,6880.0 3597.0,6860.0 3620.0,6860.0 C 3641.0,6860.0 3629.0,6826.0 3595.0,6789.0 C 3549.0,6738.0 3549.0,6720.0 3596.0,6720.0 C 3632.0,6720.0 3632.0,6720.0 3625.0,6688.0 C 3620.0,6670.0 3618.0,6630.0 3619.0,6599.0 C 3620.0,6558.0 3616.0,6538.0 3602.0,6519.0 C 3547.0,6449.0 3517.0,6356.0 3539.0,6321.0 C 3546.0,6310.0 3550.0,6311.0 3558.0,6326.0 C 3578.0,6362.0 3583.0,6329.0 3566.0,6275.0 C 3549.0,6221.0 3549.0,6219.0 3569.0,6186.0 C 3596.0,6142.0 3595.0,6114.0 3566.0,6087.0 C 3542.0,6064.0 3535.0,6032.0 3522.0,5884.0 C 3516.0,5819.0 3510.0,5795.0 3488.0,5764.0 C 3437.0,5691.0 3457.0,5612.0 3520.0,5630.0 C 3608.0,5655.0 3643.0,5706.0 3600.0,5745.0 C 3581.0,5762.0 3581.0,5763.0 3600.0,5789.0 C 3619.0,5817.0 3660.0,5964.0 3660.0,6008.0 C 3660.0,6071.0 3696.0,6138.0 3744.0,6165.0 C 3760.0,6174.0 3758.0,6183.0 3716.0,6269.0 C 3681.0,6341.0 3670.0,6375.0 3670.0,6412.0 C 3670.0,6459.0 3670.0,6459.0 3699.0,6454.0 C 3725.0,6448.0 3730.0,6453.0 3765.0,6510.0 C 3786.0,6545.0 3819.0,6582.0 3841.0,6597.0 C 3862.0,6611.0 3880.0,6626.0 3880.0,6630.0 C 3880.0,6633.0 3896.0,6655.0 3916.0,6678.0 C 3941.0,6708.0 3959.0,6720.0 3978.0,6720.0 L 4004.0,6720.0 L 3980.0,6703.0 C 3966.0,6694.0 3949.0,6678.0 3941.0,6667.0 C 3934.0,6657.0 3899.0,6616.0 3865.0,6577.0 C 3793.0,6497.0 3759.0,6435.0 3753.0,6376.0 C 3748.0,6328.0 3772.0,6274.0 3810.0,6251.0 C 3829.0,6240.0 3832.0,6240.0 3823.0,6250.0 C 3806.0,6269.0 3807.0,6295.0 3825.0,6330.0 C 3842.0,6363.0 3861.0,6368.0 3880.0,6345.0 C 3902.0,6318.0 3909.0,6329.0 3894.0,6366.0 C 3886.0,6386.0 3881.0,6405.0 3884.0,6408.0 C 3896.0,6419.0 3926.0,6379.0 3944.0,6330.0 C 3954.0,6303.0 3965.0,6280.0 3970.0,6280.0 C 3982.0,6280.0 4012.0,6370.0 4007.0,6391.0 C 4004.0,6401.0 4006.0,6410.0 4011.0,6410.0 C 4016.0,6410.0 4020.0,6456.0 4020.0,6513.0 C 4021.0,6614.0 4021.0,6615.0 4039.0,6593.0 L 4058.0,6570.0 L 4076.0,6597.0 C 4100.0,6634.0 4106.0,6610.0 4086.0,6559.0 C 4077.0,6536.0 4072.0,6510.0 4075.0,6499.0 C 4085.0,6469.0 4189.0,6381.0 4228.0,6370.0 C 4330.0,6342.0 4304.0,6320.0 4196.0,6343.0 C 4080.0,6367.0 4062.0,6366.0 4054.0,6335.0 C 4051.0,6321.0 4053.0,6274.0 4059.0,6230.0 C 4069.0,6167.0 4068.0,6146.0 4058.0,6128.0 C 4039.0,6093.0 4046.0,6081.0 4117.0,6010.0 C 4153.0,5974.0 4188.0,5929.0 4195.0,5910.0 C 4202.0,5891.0 4211.0,5867.0 4215.0,5857.0 C 4221.0,5843.0 4212.0,5829.0 4178.0,5797.0 C 4128.0,5750.0 4080.0,5670.0 4080.0,5633.0 C 4080.0,5604.0 4059.0,5561.0 4016.0,5500.0 C 3998.0,5475.0 3975.0,5425.0 3966.0,5388.0 C 3949.0,5326.0 3949.0,5319.0 3964.0,5274.0 C 3987.0,5207.0 3985.0,5190.0 3956.0,5190.0 C 3925.0,5190.0 3900.0,5224.0 3900.0,5267.0 C 3900.0,5312.0 3886.0,5308.0 3866.0,5259.0 C 3850.0,5221.0 3851.0,5216.0 3870.0,5172.0 C 3882.0,5146.0 3911.0,5105.0 3935.0,5080.0 C 3982.0,5032.0 4000.0,4996.0 4000.0,4951.0 C 4000.0,4925.0 4016.0,4900.0 4032.0,4900.0 C 4047.0,4900.0 4040.0,4937.0 4015.0,4994.0 C 3983.0,5067.0 3983.0,5083.0 4021.0,5114.0 C 4056.0,5143.0 4072.0,5146.0 4089.0,5126.0 C 4096.0,5118.0 4116.0,5109.0 4134.0,5106.0 C 4159.0,5101.0 4180.0,5085.0 4215.0,5042.0 C 4270.0,4976.0 4305.0,4950.0 4341.0,4950.0 C 4366.0,4950.0 4368.0,4954.0 4373.0,5007.0 C 4378.0,5054.0 4375.0,5071.0 4358.0,5102.0 C 4327.0,5157.0 4345.0,5170.0 4399.0,5134.0 C 4428.0,5115.0 4444.0,5110.0 4451.0,5117.0 C 4459.0,5125.0 4472.0,5116.0 4497.0,5089.0 C 4525.0,5058.0 4535.0,5052.0 4546.0,5061.0 C 4557.0,5070.0 4565.0,5069.0 4579.0,5056.0 C 4603.0,5035.0 4625.0,5043.0 4713.0,5108.0 C 4765.0,5146.0 4793.0,5159.0 4832.0,5164.0 L 4882.0,5171.0 L 4875.0,5226.0 L 4868.0,5282.0 L 4897.0,5276.0 C 4943.0,5267.0 5143.0,5264.0 5175.0,5273.0 C 5201.0,5279.0 5207.0,5277.0 5217.0,5255.0 C 5233.0,5220.0 5204.0,5204.0 5154.0,5220.0 C 5112.0,5234.0 5061.0,5225.0 5079.0,5207.0 C 5109.0,5177.0 5077.0,5140.0 5039.0,5161.0 C 5022.0,5170.0 5017.0,5166.0 4999.0,5125.0 C 4988.0,5099.0 4981.0,5072.0 4984.0,5064.0 C 4987.0,5057.0 4967.0,5018.0 4940.0,4978.0 C 4901.0,4920.0 4890.0,4897.0 4890.0,4865.0 C 4890.0,4842.0 4881.0,4807.0 4870.0,4786.0 L 4851.0,4747.0 L 4883.0,4710.0 C 4930.0,4654.0 4980.0,4567.0 5001.0,4505.0 C 5028.0,4422.0 5037.0,4410.0 5070.0,4410.0 C 5105.0,4410.0 5104.0,4412.0 5086.0,4369.0 C 5073.0,4339.0 5074.0,4332.0 5090.0,4300.0 C 5124.0,4233.0 5136.0,4232.0 5164.0,4293.0 C 5178.0,4323.0 5199.0,4355.0 5210.0,4365.0 C 5229.0,4382.0 5231.0,4382.0 5249.0,4366.0 C 5268.0,4349.0 5270.0,4349.0 5298.0,4381.0 L 5328.0,4415.0 L 5351.0,4367.0 L 5374.0,4320.0 L 5342.0,4275.0 C 5309.0,4228.0 5304.0,4211.0 5319.0,4195.0 C 5336.0,4177.0 5312.0,4144.0 5266.0,4119.0 L 5220.0,4095.0 L 5220.0,4014.0 C 5220.0,3915.0 5228.0,3905.0 5300.0,3915.0 C 5327.0,3919.0 5350.0,3919.0 5350.0,3917.0 C 5350.0,3914.0 5325.0,3888.0 5295.0,3859.0 C 5225.0,3793.0 5196.0,3747.0 5203.0,3712.0 C 5212.0,3662.0 5280.0,3515.0 5302.0,3497.0 C 5320.0,3482.0 5334.0,3479.0 5379.0,3485.0 L 5433.0,3492.0 L 5411.0,3461.0 C 5348.0,3374.0 5305.0,3390.0 5236.0,3527.0 C 5221.0,3556.0 5207.0,3580.0 5204.0,3580.0 C 5192.0,3580.0 5140.0,3545.0 5140.0,3538.0 C 5140.0,3533.0 5156.0,3498.0 5175.0,3460.0 C 5194.0,3422.0 5210.0,3381.0 5210.0,3370.0 C 5210.0,3352.0 5207.0,3351.0 5188.0,3361.0 C 5175.0,3368.0 5137.0,3401.0 5102.0,3434.0 L 5039.0,3494.0 L 4931.0,3457.0 L 4823.0,3419.0 L 4764.0,3439.0 C 4692.0,3465.0 4693.0,3465.0 4686.0,3437.0 C 4682.0,3420.0 4667.0,3410.0 4627.0,3397.0 C 4552.0,3373.0 4547.0,3374.0 4555.0,3410.0 C 4561.0,3439.0 4560.0,3440.0 4525.0,3440.0 C 4500.0,3440.0 4483.0,3447.0 4470.0,3462.0 C 4393.0,3551.0 4382.0,3560.0 4348.0,3559.0 C 4284.0,3557.0 4268.0,3547.0 4255.0,3502.0 C 4239.0,3449.0 4223.0,3429.0 4203.0,3437.0 C 4190.0,3442.0 4189.0,3440.0 4199.0,3421.0 C 4206.0,3409.0 4222.0,3395.0 4235.0,3390.0 C 4247.0,3385.0 4275.0,3360.0 4296.0,3335.0 C 4318.0,3310.0 4350.0,3280.0 4368.0,3269.0 C 4396.0,3251.0 4400.0,3243.0 4400.0,3207.0 C 4400.0,3169.0 4395.0,3161.0 4347.0,3119.0 C 4318.0,3093.0 4277.0,3063.0 4255.0,3052.0 C 4233.0,3041.0 4203.0,3019.0 4188.0,3003.0 C 4161.0,2975.0 4125.0,2902.0 4133.0,2893.0 C 4136.0,2891.0 4156.0,2898.0 4179.0,2909.0 C 4231.0,2936.0 4257.0,2936.0 4266.0,2908.0 C 4273.0,2887.0 4274.0,2888.0 4283.0,2920.0 C 4298.0,2980.0 4339.0,3012.0 4417.0,3025.0 C 4446.0,3030.0 4467.0,3027.0 4490.0,3015.0 C 4527.0,2996.0 4549.0,2955.0 4532.0,2938.0 C 4514.0,2920.0 4517.0,2904.0 4546.0,2860.0 C 4562.0,2836.0 4577.0,2823.0 4586.0,2827.0 C 4609.0,2835.0 4602.0,2817.0 4570.0,2782.0 C 4554.0,2764.0 4540.0,2738.0 4540.0,2724.0 C 4540.0,2685.0 4568.0,2640.0 4592.0,2640.0 C 4611.0,2640.0 4612.0,2638.0 4598.0,2623.0 C 4590.0,2613.0 4577.0,2585.0 4569.0,2560.0 C 4562.0,2535.0 4535.0,2475.0 4510.0,2425.0 C 4470.0,2346.0 4459.0,2332.0 4419.0,2310.0 C 4393.0,2296.0 4352.0,2266.0 4328.0,2244.0 C 4284.0,2203.0 4271.0,2198.0 4182.0,2185.0 C 4148.0,2179.0 4132.0,2170.0 4102.0,2133.0 C 4082.0,2109.0 4050.0,2080.0 4032.0,2068.0 C 4002.0,2049.0 3998.0,2049.0 3981.0,2064.0 C 3956.0,2087.0 3931.0,2084.0 3920.0,2056.0 C 3910.0,2029.0 3880.0,2006.0 3840.0,1995.0 C 3813.0,1987.0 3780.0,1962.0 3780.0,1948.0 C 3780.0,1944.0 3791.0,1940.0 3805.0,1940.0 C 3843.0,1940.0 3880.0,1919.0 3896.0,1889.0 C 3913.0,1855.0 3908.0,1840.0 3870.0,1818.0 C 3840.0,1801.0 3831.0,1777.0 3851.0,1764.0 C 3857.0,1761.0 3867.0,1763.0 3873.0,1769.0 C 3885.0,1781.0 3931.0,1783.0 3979.0,1774.0 C 4004.0,1769.0 4008.0,1765.0 3999.0,1754.0 C 3993.0,1746.0 3975.0,1740.0 3960.0,1740.0 C 3946.0,1740.0 3931.0,1737.0 3927.0,1734.0 C 3916.0,1723.0 3942.0,1682.0 3967.0,1671.0 C 4002.0,1655.0 4015.0,1657.0 4056.0,1685.0 C 4076.0,1699.0 4103.0,1710.0 4116.0,1710.0 C 4129.0,1710.0 4147.0,1721.0 4157.0,1735.0 C 4209.0,1809.0 4204.0,1806.0 4254.0,1792.0 C 4289.0,1783.0 4305.0,1783.0 4325.0,1792.0 C 4349.0,1803.0 4354.0,1801.0 4376.0,1772.0 C 4394.0,1749.0 4410.0,1740.0 4431.0,1740.0 C 4455.0,1740.0 4460.0,1736.0 4460.0,1717.0 C 4460.0,1704.0 4451.0,1685.0 4440.0,1675.0 C 4415.0,1653.0 4415.0,1638.0 4438.0,1617.0 C 4461.0,1596.0 4489.0,1596.0 4514.0,1615.0 C 4525.0,1623.0 4547.0,1630.0 4563.0,1630.0 C 4579.0,1630.0 4610.0,1640.0 4632.0,1652.0 C 4668.0,1673.0 4673.0,1673.0 4698.0,1659.0 C 4713.0,1651.0 4738.0,1621.0 4755.0,1592.0 C 4771.0,1564.0 4805.0,1525.0 4828.0,1508.0 C 4935.0,1428.0 4930.0,1430.0 4994.0,1430.0 C 5077.0,1431.0 5105.0,1446.0 5148.0,1509.0 L 5185.0,1564.0 L 5276.0,1586.0 C 5376.0,1610.0 5415.0,1627.0 5444.0,1659.0 C 5462.0,1679.0 5462.0,1684.0 5448.0,1772.0 C 5433.0,1863.0 5433.0,1866.0 5456.0,1933.0 C 5478.0,1997.0 5478.0,2004.0 5464.0,2032.0 C 5448.0,2062.0 5450.0,2077.0 5469.0,2066.0 C 5489.0,2053.0 5492.0,1994.0 5474.0,1935.0 C 5462.0,1892.0 5459.0,1855.0 5463.0,1797.0 C 5466.0,1754.0 5471.0,1716.0 5474.0,1713.0 C 5480.0,1707.0 5519.0,1735.0 5584.0,1792.0 C 5620.0,1823.0 5622.0,1828.0 5609.0,1847.0 C 5592.0,1875.0 5603.0,1886.0 5634.0,1872.0 C 5658.0,1861.0 5658.0,1860.0 5644.0,1831.0 C 5636.0,1814.0 5597.0,1766.0 5558.0,1723.0 C 5519.0,1680.0 5478.0,1625.0 5466.0,1601.0 C 5453.0,1574.0 5427.0,1543.0 5400.0,1523.0 C 5375.0,1505.0 5332.0,1470.0 5305.0,1446.0 C 5258.0,1405.0 5254.0,1398.0 5243.0,1335.0 C 5229.0,1255.0 5210.0,1229.0 5180.0,1248.0 C 5163.0,1258.0 5150.0,1256.0 5099.0,1234.0 L 5038.0,1209.0 L 4986.0,1234.0 C 4940.0,1257.0 4922.0,1260.0 4805.0,1261.0 C 4703.0,1263.0 4655.0,1259.0 4582.0,1242.0 C 4478.0,1219.0 4461.0,1206.0 4460.0,1148.0 C 4460.0,1127.0 4453.0,1092.0 4444.0,1070.0 C 4425.0,1023.0 4393.0,1010.0 4346.0,1029.0 C 4281.0,1055.0 4282.0,1056.0 4265.0,996.0 C 4253.0,956.0 4251.0,924.0 4255.0,884.0 L 4262.0,829.0 L 4191.0,758.0 C 4152.0,719.0 4120.0,681.0 4120.0,675.0 C 4120.0,656.0 4078.0,623.0 4029.0,602.0 C 3977.0,579.0 3950.0,548.0 3950.0,509.0 C 3950.0,492.0 3937.0,472.0 3910.0,447.0 C 3888.0,428.0 3870.0,403.0 3870.0,393.0 C 3870.0,367.0 3843.0,339.0 3752.0,273.0 C 3692.0,228.0 3674.0,219.0 3660.0,228.0 C 3640.0,240.0 3593.0,220.0 3549.0,179.0 C 3527.0,159.0 3520.0,143.0 3520.0,116.0 C 3520.0,96.0 3524.0,80.0 3529.0,80.0 C 3556.0,80.0 3600.0,105.0 3620.0,131.0 C 3639.0,157.0 3647.0,161.0 3672.0,156.0 C 3720.0,147.0 3778.0,99.0 3802.0,50.0 C 3813.0,25.0 3824.0,4.0 3825.0,2.0 C 3827.0,0.0 3848.0,13.0 3874.0,30.0 C 3921.0,62.0 3933.0,92.0 3905.0,108.0 C 3891.0,115.0 3892.0,121.0 3909.0,161.0 C 3920.0,185.0 3930.0,213.0 3930.0,223.0 C 3930.0,252.0 3954.0,237.0 3960.0,204.0 L 3965.0,175.0 L 3978.0,206.0 C 3992.0,239.0 4058.0,274.0 4086.0,263.0 C 4095.0,260.0 4100.0,264.0 4100.0,276.0 C 4100.0,305.0 4127.0,374.0 4139.0,378.0 C 4145.0,380.0 4157.0,374.0 4166.0,365.0 C 4175.0,357.0 4190.0,352.0 4199.0,355.0 C 4208.0,357.0 4254.0,368.0 4302.0,379.0 C 4387.0,397.0 4389.0,397.0 4432.0,378.0 C 4475.0,359.0 4475.0,359.0 4492.0,379.0 C 4511.0,403.0 4530.0,406.0 4530.0,387.0 C 4530.0,364.0 4563.0,342.0 4610.0,335.0 C 4682.0,324.0 4690.0,320.0 4708.0,282.0 C 4727.0,242.0 4744.0,235.0 4796.0,245.0 C 4828.0,251.0 4830.0,253.0 4830.0,290.0 C 4830.0,331.0 4840.0,346.0 4894.0,383.0 C 4926.0,405.0 4927.0,433.0 4898.0,453.0 L 4875.0,468.0 L 4902.0,480.0 C 4924.0,490.0 4927.0,496.0 4920.0,515.0 C 4914.0,531.0 4918.0,551.0 4935.0,588.0 C 4954.0,629.0 4965.0,640.0 4997.0,650.0 C 5018.0,657.0 5053.0,675.0 5075.0,690.0 C 5099.0,707.0 5140.0,722.0 5180.0,729.0 C 5216.0,736.0 5262.0,748.0 5282.0,757.0 L 5320.0,773.0 L 5412.0,727.0 C 5463.0,702.0 5524.0,670.0 5546.0,656.0 C 5586.0,631.0 5588.0,631.0 5593.0,650.0 C 5597.0,667.0 5607.0,670.0 5648.0,670.0 C 5721.0,670.0 5798.0,653.0 5827.0,630.0 C 5852.0,610.0 5854.0,610.0 5884.0,628.0 C 5927.0,653.0 5929.0,682.0 5889.0,701.0 C 5871.0,708.0 5854.0,721.0 5852.0,729.0 C 5848.0,740.0 5856.0,742.0 5890.0,737.0 C 5917.0,734.0 5941.0,736.0 5954.0,745.0 C 5984.0,763.0 6103.0,773.0 6133.0,759.0 C 6156.0,749.0 6168.0,753.0 6239.0,795.0 C 6284.0,821.0 6320.0,847.0 6320.0,851.0 C 6320.0,856.0 6302.0,876.0 6280.0,896.0 C 6207.0,964.0 6255.0,949.0 6336.0,879.0 C 6410.0,815.0 6428.0,806.0 6445.0,820.0 C 6468.0,839.0 6596.0,815.0 6631.0,785.0 L 6660.0,762.0 L 6693.0,795.0 C 6732.0,834.0 6782.0,850.0 6864.0,850.0 C 6897.0,850.0 6949.0,855.0 6981.0,862.0 C 7036.0,873.0 7040.0,872.0 7178.0,825.0 L 7318.0,776.0 L 7358.0,812.0 C 7397.0,847.0 7415.0,855.0 7513.0,880.0 C 7541.0,888.0 7581.0,909.0 7608.0,932.0 C 7653.0,970.0 7657.0,971.0 7709.0,965.0 C 7739.0,961.0 7769.0,956.0 7777.0,953.0 C 7787.0,949.0 7790.0,960.0 7790.0,1000.0 C 7790.0,1043.0 7795.0,1056.0 7818.0,1079.0 C 7833.0,1094.0 7868.0,1114.0 7895.0,1124.0 C 8003.0,1162.0 8031.0,1179.0 8046.0,1217.0 C 8059.0,1246.0 8059.0,1262.0 8051.0,1296.0 C 8036.0,1355.0 8036.0,1358.0 8066.0,1385.0 C 8089.0,1407.0 8091.0,1410.0 8075.0,1416.0 C 8048.0,1427.0 7889.0,1413.0 7841.0,1396.0 C 7817.0,1387.0 7787.0,1380.0 7774.0,1380.0 C 7755.0,1380.0 7752.0,1385.0 7753.0,1407.0 C 7755.0,1431.0 7748.0,1439.0 7708.0,1460.0 L 7661.0,1485.0 L 7632.0,1450.0 L 7603.0,1416.0 L 7575.0,1434.0 L 7548.0,1452.0 L 7586.0,1478.0 L 7625.0,1504.0 L 7581.0,1512.0 C 7547.0,1518.0 7520.0,1515.0 7472.0,1500.0 C 7403.0,1478.0 7359.0,1483.0 7313.0,1515.0 C 7279.0,1539.0 7285.0,1553.0 7322.0,1534.0 C 7391.0,1498.0 7408.0,1498.0 7446.0,1534.0 C 7485.0,1571.0 7553.0,1590.0 7646.0,1590.0 C 7693.0,1590.0 7701.0,1593.0 7728.0,1624.0 C 7757.0,1657.0 7790.0,1763.0 7776.0,1777.0 C 7773.0,1781.0 7753.0,1775.0 7731.0,1766.0 C 7698.0,1751.0 7690.0,1750.0 7671.0,1761.0 C 7660.0,1769.0 7650.0,1777.0 7650.0,1780.0 C 7650.0,1783.0 7689.0,1805.0 7736.0,1828.0 C 7816.0,1868.0 7824.0,1870.0 7840.0,1855.0 C 7864.0,1833.0 7899.0,1844.0 7947.0,1886.0 C 7981.0,1916.0 7983.0,1919.0 7963.0,1920.0 C 7936.0,1920.0 7936.0,1922.0 7955.0,1959.0 C 7969.0,1986.0 7968.0,1988.0 7947.0,1994.0 C 7935.0,1997.0 7912.0,2000.0 7896.0,2000.0 C 7872.0,2000.0 7869.0,2002.0 7880.0,2015.0 C 7887.0,2024.0 7909.0,2030.0 7933.0,2030.0 C 7971.0,2030.0 7972.0,2031.0 7957.0,2048.0 C 7937.0,2070.0 7936.0,2080.0 7953.0,2080.0 C 7959.0,2080.0 7977.0,2066.0 7991.0,2048.0 L 8017.0,2016.0 L 8057.0,2048.0 C 8098.0,2080.0 8159.0,2150.0 8177.0,2185.0 C 8183.0,2196.0 8191.0,2234.0 8195.0,2270.0 C 8202.0,2346.0 8224.0,2417.0 8257.0,2479.0 C 8274.0,2511.0 8280.0,2539.0 8280.0,2584.0 C 8280.0,2652.0 8265.0,2757.0 8248.0,2810.0 C 8236.0,2847.0 8103.0,2993.0 8060.0,3015.0 C 8004.0,3044.0 7605.0,3093.0 7542.0,3079.0 C 7496.0,3069.0 7481.0,3052.0 7469.0,2999.0 C 7456.0,2943.0 7416.0,2890.0 7387.0,2890.0 C 7374.0,2890.0 7344.0,2904.0 7320.0,2920.0 C 7295.0,2937.0 7256.0,2962.0 7233.0,2978.0 C 7210.0,2993.0 7190.0,3010.0 7190.0,3016.0 C 7190.0,3035.0 7288.0,3158.0 7327.0,3186.0 C 7401.0,3240.0 7403.0,3252.0 7364.0,3386.0 C 7311.0,3569.0 7257.0,3650.0 7141.0,3719.0 C 7102.0,3742.0 7050.0,3785.0 7022.0,3816.0 L 6972.0,3873.0 L 6901.0,3854.0 C 6843.0,3840.0 6825.0,3838.0 6812.0,3848.0 C 6764.0,3882.0 6738.0,3872.0 6729.0,3816.0 C 6720.0,3761.0 6710.0,3761.0 6710.0,3817.0 C 6710.0,3889.0 6749.0,3917.0 6815.0,3891.0 C 6827.0,3886.0 6860.0,3890.0 6900.0,3901.0 C 6936.0,3912.0 6971.0,3920.0 6979.0,3920.0 C 6986.0,3920.0 7015.0,3895.0 7043.0,3865.0 C 7093.0,3810.0 7093.0,3810.0 7152.0,3810.0 C 7185.0,3810.0 7220.0,3805.0 7231.0,3799.0 C 7251.0,3789.0 7251.0,3789.0 7234.0,3822.0 C 7225.0,3840.0 7186.0,3904.0 7148.0,3964.0 C 7050.0,4115.0 7028.0,4167.0 7032.0,4232.0 C 7035.0,4280.0 7038.0,4286.0 7067.0,4301.0 C 7097.0,4316.0 7098.0,4318.0 7082.0,4332.0 C 7073.0,4341.0 7050.0,4355.0 7033.0,4364.0 C 7015.0,4373.0 7000.0,4384.0 7000.0,4388.0 C 7000.0,4393.0 6978.0,4421.0 6952.0,4451.0 C 6925.0,4480.0 6898.0,4521.0 6891.0,4540.0 C 6885.0,4559.0 6869.0,4591.0 6856.0,4610.0 C 6843.0,4629.0 6830.0,4654.0 6826.0,4665.0 C 6823.0,4676.0 6787.0,4709.0 6746.0,4739.0 C 6691.0,4780.0 6645.0,4803.0 6566.0,4830.0 C 6447.0,4871.0 6407.0,4896.0 6402.0,4931.0 C 6400.0,4944.0 6380.0,4974.0 6359.0,4999.0 C 6314.0,5050.0 6290.0,5119.0 6290.0,5200.0 C 6290.0,5245.0 6284.0,5265.0 6264.0,5295.0 C 6250.0,5316.0 6229.0,5358.0 6218.0,5389.0 C 6187.0,5471.0 6147.0,5676.0 6148.0,5745.0 C 6151.0,5867.0 6068.0,6021.0 5972.0,6075.0 C 5954.0,6085.0 5925.0,6109.0 5909.0,6128.0 C 5882.0,6158.0 5876.0,6161.0 5855.0,6152.0 C 5835.0,6143.0 5832.0,6143.0 5837.0,6155.0 C 5840.0,6163.0 5848.0,6170.0 5856.0,6170.0 C 5877.0,6170.0 5873.0,6189.0 5836.0,6255.0 C 5801.0,6318.0 5770.0,6338.0 5705.0,6339.0 C 5667.0,6340.0 5534.0,6420.0 5502.0,6461.0 C 5481.0,6487.0 5473.0,6490.0 5420.0,6490.0 C 5369.0,6490.0 5359.0,6487.0 5341.0,6464.0 C 5329.0,6449.0 5320.0,6431.0 5320.0,6424.0 C 5320.0,6406.0 5247.0,6360.0 5219.0,6360.0 C 5207.0,6360.0 5181.0,6370.0 5161.0,6382.0 C 5142.0,6394.0 5116.0,6403.0 5104.0,6402.0 C 5077.0,6398.0 4887.0,6436.0 4832.0,6456.0 C 4809.0,6465.0 4792.0,6476.0 4796.0,6481.0 C 4806.0,6497.0 4890.0,6490.0 4940.0,6469.0 L 4988.0,6448.0 L 5018.0,6470.0 C 5035.0,6482.0 5068.0,6495.0 5093.0,6497.0 C 5133.0,6502.0 5140.0,6506.0 5145.0,6530.0 C 5153.0,6565.0 5213.0,6636.0 5253.0,6656.0 C 5279.0,6670.0 5289.0,6670.0 5322.0,6659.0 C 5353.0,6649.0 5365.0,6649.0 5386.0,6660.0 C 5418.0,6677.0 5490.0,6739.0 5490.0,6749.0 C 5490.0,6753.0 5463.0,6768.0 5431.0,6782.0 L 5371.0,6808.0 L 5368.0,6867.0 L 5365.0,6925.0 L 5329.0,6928.0 C 5295.0,6931.0 5248.0,6911.0 5133.0,6844.0 C 5086.0,6817.0 5083.0,6833.0 5125.0,6883.0 C 5180.0,6949.0 5209.0,6962.0 5305.0,6964.0 C 5378.0,6965.0 5391.0,6968.0 5429.0,6995.0 C 5494.0,7040.0 5560.0,7121.0 5560.0,7157.0 C 5560.0,7174.0 5566.0,7193.0 5574.0,7199.0 C 5582.0,7205.0 5591.0,7231.0 5594.0,7255.0 C 5600.0,7291.0 5610.0,7307.0 5646.0,7338.0 C 5700.0,7386.0 5762.0,7486.0 5758.0,7520.0 C 5757.0,7534.0 5775.0,7583.0 5798.0,7630.0 C 5838.0,7707.0 5840.0,7718.0 5834.0,7767.0 C 5829.0,7812.0 5832.0,7828.0 5857.0,7882.0 C 5874.0,7917.0 5917.0,7986.0 5954.0,8037.0 C 5990.0,8088.0 6020.0,8138.0 6020.0,8150.0 C 6020.0,8162.0 6013.0,8202.0 6005.0,8239.0 C 5988.0,8311.0 5971.0,8334.0 5896.0,8384.0 C 5851.0,8414.0 5820.0,8417.0 5785.0,8394.0 C 5764.0,8380.0 5755.0,8380.0 5731.0,8390.0 C 5707.0,8400.0 5696.0,8398.0 5663.0,8382.0 L 5624.0,8362.0 L 5482.0,8385.0 L 5339.0,8408.0 L 5282.0,8385.0 L 5225.0,8362.0 L 5160.0,8387.0 C 5042.0,8433.0 5035.0,8434.0 4986.0,8420.0 C 4961.0,8413.0 4940.0,8403.0 4940.0,8398.0 C 4940.0,8394.0 4928.0,8384.0 4913.0,8378.0 C 4897.0,8371.0 4877.0,8360.0 4868.0,8352.0 C 4856.0,8342.0 4850.0,8341.0 4850.0,8348.0 C 4850.0,8369.0 4821.0,8361.0 4764.0,8323.0 C 4717.0,8292.0 4697.0,8285.0 4644.0,8282.0 C 4608.0,8279.0 4583.0,8274.0 4586.0,8268.0 C 4589.0,8263.0 4589.0,8248.0 4586.0,8235.0 C 4572.0,8181.0 4400.0,8128.0 4355.0,8164.0 C 4338.0,8177.0 4337.0,8181.0 4350.0,8190.0 C 4358.0,8195.0 4384.0,8197.0 4407.0,8194.0 C 4447.0,8188.0 4449.0,8189.0 4474.0,8228.0 C 4488.0,8251.0 4505.0,8272.0 4513.0,8277.0 C 4528.0,8287.0 4590.0,8371.0 4590.0,8382.0 C 4590.0,8387.0 4576.0,8383.0 4559.0,8375.0 C 4540.0,8365.0 4518.0,8361.0 4500.0,8365.0 C 4476.0,8370.0 4462.0,8363.0 4406.0,8315.0 C 4347.0,8265.0 4340.0,8262.0 4340.0,8282.0 C 4340.0,8336.0 4415.0,8410.0 4470.0,8410.0 C 4484.0,8410.0 4519.0,8424.0 4549.0,8440.0 C 4579.0,8457.0 4605.0,8470.0 4608.0,8470.0 C 4610.0,8470.0 4610.0,8457.0 4607.0,8440.0 C 4595.0,8385.0 4617.0,8401.0 4671.0,8488.0 C 4738.0,8596.0 4739.0,8599.0 4706.0,8572.0 C 4683.0,8555.0 4675.0,8553.0 4654.0,8562.0 C 4637.0,8570.0 4623.0,8570.0 4606.0,8562.0 C 4588.0,8554.0 4569.0,8556.0 4519.0,8574.0 C 4453.0,8598.0 4375.0,8640.0 4398.0,8640.0 C 4406.0,8640.0 4439.0,8633.0 4473.0,8624.0 C 4556.0,8602.0 4590.0,8614.0 4590.0,8665.0 C 4590.0,8684.0 4586.0,8700.0 4580.0,8700.0 C 4575.0,8700.0 4570.0,8705.0 4570.0,8710.0 C 4570.0,8716.0 4574.0,8720.0 4580.0,8720.0 C 4597.0,8720.0 4687.0,8789.0 4704.0,8815.0 C 4713.0,8829.0 4764.0,8872.0 4817.0,8912.0 C 4881.0,8960.0 4927.0,9005.0 4954.0,9043.0 C 4984.0,9085.0 5016.0,9114.0 5073.0,9150.0 C 5186.0,9223.0 5219.0,9284.0 5182.0,9354.0 C 5154.0,9407.0 5154.0,9426.0 5185.0,9466.0 C 5199.0,9484.0 5214.0,9510.0 5220.0,9524.0 C 5228.0,9545.0 5226.0,9551.0 5209.0,9561.0 C 5193.0,9569.0 5184.0,9568.0 5169.0,9554.0 C 5151.0,9538.0 5149.0,9538.0 5132.0,9553.0 C 5112.0,9572.0 5000.0,9578.0 5000.0,9561.0 M 4370.0,8003.0 C 4340.0,7950.0 4217.0,7790.0 4211.0,7795.0 C 4206.0,7800.0 4324.0,7983.0 4354.0,8018.0 C 4385.0,8053.0 4394.0,8044.0 4370.0,8003.0 M 4185.0,6613.0 C 4194.0,6592.0 4216.0,6563.0 4235.0,6547.0 C 4274.0,6515.0 4279.0,6495.0 4251.0,6480.0 C 4218.0,6463.0 4211.0,6468.0 4204.0,6518.0 C 4200.0,6544.0 4189.0,6582.0 4179.0,6602.0 C 4159.0,6641.0 4157.0,6650.0 4165.0,6650.0 C 4168.0,6650.0 4177.0,6633.0 4185.0,6613.0 M 5780.0,6077.0 C 5780.0,6075.0 5770.0,6065.0 5758.0,6054.0 L 5735.0,6035.0 L 5754.0,6058.0 C 5772.0,6079.0 5780.0,6085.0 5780.0,6077.0" fill="pink"/>
	<path d="M 3128.0,9359.0 C 3084.0,9300.0 2960.0,9202.0 2897.0,9177.0 C 2812.0,9143.0 2803.0,9126.0 2835.0,9067.0 C 2865.0,9009.0 2846.0,9002.0 2800.0,9053.0 L 2770.0,9085.0 L 2776.0,9058.0 C 2784.0,9024.0 2750.0,9001.0 2729.0,9026.0 C 2722.0,9035.0 2707.0,9046.0 2696.0,9050.0 C 2678.0,9056.0 2671.0,9049.0 2648.0,9002.0 C 2614.0,8935.0 2610.0,8874.0 2640.0,8865.0 C 2655.0,8860.0 2660.0,8850.0 2660.0,8823.0 C 2660.0,8791.0 2658.0,8788.0 2635.0,8792.0 C 2603.0,8799.0 2604.0,8793.0 2638.0,8760.0 C 2657.0,8742.0 2683.0,8730.0 2712.0,8726.0 C 2737.0,8722.0 2765.0,8713.0 2775.0,8706.0 C 2797.0,8690.0 2789.0,8660.0 2762.0,8660.0 C 2744.0,8660.0 2640.0,8562.0 2640.0,8545.0 C 2641.0,8539.0 2657.0,8517.0 2676.0,8495.0 L 2711.0,8455.0 L 2728.0,8480.0 C 2751.0,8515.0 2802.0,8566.0 2820.0,8572.0 C 2832.0,8576.0 2833.0,8581.0 2823.0,8599.0 C 2793.0,8648.0 2818.0,8672.0 2870.0,8645.0 C 2901.0,8629.0 2902.0,8629.0 2896.0,8648.0 C 2892.0,8660.0 2897.0,8673.0 2909.0,8684.0 C 2925.0,8698.0 2932.0,8699.0 2948.0,8689.0 C 2976.0,8671.0 2995.0,8683.0 3020.0,8735.0 C 3034.0,8765.0 3047.0,8779.0 3056.0,8776.0 C 3084.0,8765.0 3093.0,8809.0 3076.0,8871.0 C 3061.0,8924.0 3061.0,8932.0 3075.0,8953.0 C 3083.0,8966.0 3088.0,8985.0 3084.0,8994.0 C 3079.0,9006.0 3084.0,9013.0 3098.0,9017.0 C 3115.0,9021.0 3118.0,9028.0 3113.0,9051.0 C 3109.0,9075.0 3116.0,9088.0 3158.0,9136.0 C 3203.0,9187.0 3207.0,9194.0 3194.0,9208.0 C 3185.0,9217.0 3181.0,9232.0 3184.0,9244.0 C 3202.0,9309.0 3202.0,9339.0 3184.0,9364.0 C 3160.0,9397.0 3155.0,9396.0 3128.0,9359.0" fill="pink"/>
	<path d="M 2531.0,8381.0 C 2511.0,8366.0 2502.0,8364.0 2482.0,8373.0 C 2464.0,8381.0 2457.0,8381.0 2450.0,8370.0 C 2446.0,8363.0 2433.0,8359.0 2421.0,8363.0 C 2404.0,8367.0 2396.0,8360.0 2379.0,8328.0 C 2359.0,8288.0 2359.0,8287.0 2377.0,8277.0 C 2407.0,8260.0 2460.0,8200.0 2460.0,8182.0 C 2459.0,8173.0 2453.0,8154.0 2445.0,8140.0 C 2433.0,8118.0 2434.0,8113.0 2447.0,8098.0 C 2462.0,8082.0 2462.0,8078.0 2445.0,8060.0 C 2431.0,8045.0 2429.0,8031.0 2434.0,7998.0 C 2438.0,7974.0 2436.0,7936.0 2429.0,7909.0 C 2419.0,7871.0 2419.0,7847.0 2429.0,7791.0 L 2442.0,7720.0 L 2475.0,7720.0 C 2493.0,7720.0 2515.0,7717.0 2524.0,7714.0 C 2537.0,7709.0 2538.0,7713.0 2526.0,7747.0 C 2490.0,7850.0 2490.0,7844.0 2526.0,7891.0 L 2559.0,7935.0 L 2535.0,7976.0 L 2510.0,8018.0 L 2535.0,8034.0 C 2556.0,8048.0 2558.0,8053.0 2549.0,8079.0 C 2541.0,8102.0 2542.0,8114.0 2554.0,8132.0 C 2563.0,8145.0 2579.0,8182.0 2590.0,8215.0 C 2605.0,8259.0 2607.0,8276.0 2598.0,8287.0 C 2589.0,8298.0 2593.0,8307.0 2613.0,8328.0 C 2649.0,8365.0 2647.0,8375.0 2601.0,8388.0 C 2554.0,8403.0 2560.0,8403.0 2531.0,8381.0" fill="pink"/>
	<path d="M 3091.0,8369.0 C 3068.0,8339.0 3068.0,8338.0 3085.0,8306.0 C 3099.0,8281.0 3100.0,8269.0 3092.0,8254.0 C 3083.0,8238.0 3085.0,8226.0 3101.0,8201.0 C 3123.0,8164.0 3119.0,8150.0 3091.0,8167.0 C 3080.0,8174.0 3068.0,8174.0 3058.0,8169.0 C 3046.0,8162.0 3030.0,8174.0 2990.0,8220.0 C 2961.0,8253.0 2934.0,8277.0 2929.0,8274.0 C 2912.0,8264.0 2920.0,8234.0 2945.0,8210.0 C 2973.0,8184.0 2979.0,8154.0 2955.0,8164.0 C 2944.0,8168.0 2940.0,8162.0 2940.0,8142.0 C 2940.0,8088.0 2925.0,8086.0 2892.0,8137.0 C 2864.0,8180.0 2860.0,8182.0 2860.0,8160.0 C 2860.0,8145.0 2865.0,8129.0 2872.0,8122.0 C 2881.0,8113.0 2879.0,8110.0 2862.0,8110.0 C 2839.0,8110.0 2832.0,8096.0 2850.0,8085.0 C 2855.0,8082.0 2863.0,8065.0 2868.0,8048.0 C 2874.0,8022.0 2883.0,8015.0 2920.0,8004.0 C 2945.0,7996.0 2965.0,7990.0 2966.0,7990.0 C 2966.0,7990.0 2965.0,8003.0 2962.0,8019.0 C 2957.0,8052.0 2974.0,8067.0 2995.0,8050.0 C 3003.0,8044.0 3014.0,8041.0 3020.0,8045.0 C 3026.0,8049.0 3030.0,8041.0 3030.0,8026.0 C 3030.0,8010.0 3036.0,8000.0 3044.0,8000.0 C 3063.0,8000.0 3117.0,7954.0 3109.0,7945.0 C 3105.0,7942.0 3091.0,7945.0 3076.0,7951.0 C 3014.0,7980.0 3021.0,7907.0 3087.0,7850.0 C 3105.0,7833.0 3125.0,7820.0 3130.0,7820.0 C 3136.0,7820.0 3140.0,7813.0 3140.0,7805.0 C 3140.0,7797.0 3144.0,7790.0 3149.0,7790.0 C 3154.0,7790.0 3174.0,7797.0 3193.0,7805.0 C 3213.0,7813.0 3239.0,7820.0 3251.0,7820.0 C 3269.0,7820.0 3272.0,7815.0 3268.0,7785.0 C 3266.0,7766.0 3265.0,7750.0 3267.0,7750.0 C 3268.0,7750.0 3281.0,7771.0 3294.0,7798.0 L 3318.0,7845.0 L 3331.0,7818.0 C 3342.0,7793.0 3347.0,7791.0 3382.0,7796.0 C 3403.0,7800.0 3420.0,7800.0 3420.0,7796.0 C 3420.0,7793.0 3402.0,7779.0 3381.0,7765.0 C 3355.0,7748.0 3340.0,7729.0 3336.0,7709.0 C 3333.0,7693.0 3327.0,7667.0 3324.0,7650.0 C 3314.0,7602.0 3342.0,7613.0 3404.0,7682.0 C 3460.0,7743.0 3469.0,7763.0 3450.0,7775.0 C 3434.0,7785.0 3446.0,7797.0 3477.0,7803.0 C 3503.0,7808.0 3540.0,7853.0 3540.0,7878.0 C 3540.0,7896.0 3488.0,7898.0 3443.0,7883.0 C 3400.0,7868.0 3396.0,7869.0 3359.0,7889.0 C 3334.0,7904.0 3312.0,7909.0 3298.0,7905.0 C 3281.0,7899.0 3278.0,7901.0 3283.0,7914.0 C 3288.0,7925.0 3281.0,7939.0 3265.0,7954.0 C 3251.0,7967.0 3237.0,7992.0 3234.0,8011.0 C 3230.0,8030.0 3223.0,8051.0 3217.0,8058.0 C 3210.0,8067.0 3211.0,8078.0 3220.0,8094.0 C 3228.0,8110.0 3231.0,8148.0 3229.0,8208.0 L 3225.0,8299.0 L 3175.0,8350.0 C 3148.0,8377.0 3123.0,8400.0 3120.0,8399.0 C 3117.0,8399.0 3104.0,8385.0 3091.0,8369.0" fill="pink"/>
	<path d="M 3080.0,7623.0 L 3050.0,7595.0 L 3090.0,7554.0 C 3125.0,7516.0 3130.0,7514.0 3143.0,7529.0 C 3167.0,7557.0 3170.0,7579.0 3152.0,7590.0 C 3137.0,7598.0 3137.0,7601.0 3150.0,7610.0 C 3163.0,7619.0 3162.0,7622.0 3146.0,7635.0 C 3119.0,7655.0 3115.0,7654.0 3080.0,7623.0" fill="pink"/>
	<path d="M 2371.0,7573.0 C 2342.0,7538.0 2330.0,7500.0 2348.0,7500.0 C 2363.0,7500.0 2420.0,7566.0 2420.0,7582.0 C 2420.0,7614.0 2401.0,7610.0 2371.0,7573.0" fill="pink"/>
	<path d="M 2970.0,7172.0 C 2943.0,7148.0 2929.0,7128.0 2931.0,7117.0 C 2934.0,7101.0 2941.0,7104.0 2976.0,7134.0 C 3014.0,7166.0 3039.0,7210.0 3020.0,7210.0 C 3016.0,7210.0 2993.0,7193.0 2970.0,7172.0" fill="pink"/>
	<path d="M 3213.0,7150.0 C 3200.0,7145.0 3190.0,7132.0 3190.0,7121.0 C 3190.0,7104.0 3186.0,7102.0 3167.0,7109.0 C 3146.0,7117.0 3144.0,7116.0 3147.0,7095.0 C 3150.0,7083.0 3147.0,7069.0 3141.0,7066.0 C 3124.0,7055.0 3128.0,7040.0 3148.0,7040.0 C 3157.0,7040.0 3187.0,7027.0 3214.0,7011.0 C 3260.0,6984.0 3266.0,6983.0 3291.0,6995.0 C 3320.0,7010.0 3330.0,7006.0 3330.0,6979.0 C 3330.0,6969.0 3311.0,6951.0 3284.0,6935.0 C 3242.0,6910.0 3209.0,6867.0 3222.0,6854.0 C 3226.0,6851.0 3246.0,6858.0 3269.0,6869.0 C 3319.0,6895.0 3330.0,6895.0 3330.0,6871.0 C 3330.0,6858.0 3309.0,6841.0 3261.0,6816.0 C 3185.0,6776.0 3168.0,6773.0 3150.0,6795.0 C 3117.0,6835.0 3083.0,6797.0 3114.0,6755.0 C 3128.0,6736.0 3129.0,6736.0 3164.0,6753.0 C 3184.0,6762.0 3217.0,6770.0 3238.0,6770.0 C 3292.0,6770.0 3345.0,6787.0 3379.0,6815.0 C 3415.0,6846.0 3420.0,6846.0 3420.0,6815.0 C 3420.0,6782.0 3438.0,6783.0 3480.0,6821.0 C 3500.0,6838.0 3507.0,6849.0 3497.0,6846.0 C 3482.0,6841.0 3479.0,6845.0 3482.0,6863.0 C 3484.0,6878.0 3492.0,6885.0 3507.0,6884.0 C 3523.0,6884.0 3530.0,6891.0 3534.0,6914.0 C 3543.0,6955.0 3509.0,6985.0 3428.0,7007.0 C 3374.0,7022.0 3364.0,7029.0 3328.0,7079.0 C 3268.0,7162.0 3258.0,7168.0 3213.0,7150.0" fill="pink"/>
	<path d="M 2750.0,7016.0 C 2699.0,7002.0 2690.0,6977.0 2728.0,6953.0 C 2749.0,6938.0 2750.0,6939.0 2750.0,6961.0 C 2750.0,6974.0 2762.0,6994.0 2778.0,7007.0 C 2793.0,7019.0 2803.0,7029.0 2800.0,7029.0 C 2797.0,7028.0 2775.0,7023.0 2750.0,7016.0" fill="pink"/>
	<path d="M 3415.0,6496.0 C 3326.0,6413.0 3325.0,6412.0 3344.0,6392.0 C 3362.0,6371.0 3362.0,6371.0 3337.0,6365.0 C 3299.0,6355.0 3278.0,6325.0 3276.0,6281.0 C 3275.0,6240.0 3300.0,6200.0 3327.0,6200.0 C 3343.0,6200.0 3513.0,6544.0 3508.0,6567.0 C 3506.0,6575.0 3468.0,6546.0 3415.0,6496.0" fill="pink"/>
	<path d="M 3185.0,6516.0 C 3169.0,6495.0 3160.0,6472.0 3162.0,6458.0 C 3165.0,6439.0 3170.0,6444.0 3194.0,6488.0 C 3227.0,6552.0 3223.0,6565.0 3185.0,6516.0" fill="pink"/>
	<path d="M 3172.0,6304.0 C 3148.0,6285.0 3120.0,6270.0 3110.0,6270.0 C 3072.0,6270.0 3042.0,6248.0 3036.0,6217.0 C 3032.0,6199.0 3034.0,6184.0 3041.0,6180.0 C 3048.0,6175.0 3045.0,6159.0 3030.0,6131.0 C 2991.0,6054.0 3010.0,6050.0 3074.0,6123.0 C 3120.0,6175.0 3136.0,6187.0 3147.0,6179.0 C 3164.0,6164.0 3163.0,6150.0 3144.0,6129.0 C 3129.0,6112.0 3129.0,6109.0 3149.0,6084.0 C 3176.0,6049.0 3176.0,6034.0 3145.0,6014.0 C 3108.0,5990.0 3114.0,5941.0 3153.0,5956.0 C 3161.0,5959.0 3172.0,5972.0 3178.0,5984.0 C 3185.0,5999.0 3204.0,6013.0 3232.0,6021.0 C 3303.0,6044.0 3307.0,6066.0 3265.0,6196.0 C 3246.0,6255.0 3230.0,6309.0 3230.0,6316.0 C 3230.0,6340.0 3215.0,6337.0 3172.0,6304.0" fill="pink"/>
	<path d="M 3761.0,6051.0 L 3728.0,6001.0 L 3739.0,5934.0 C 3762.0,5806.0 3789.0,5775.0 3863.0,5797.0 C 3889.0,5804.0 3896.0,5811.0 3898.0,5838.0 C 3900.0,5858.0 3897.0,5870.0 3890.0,5870.0 C 3882.0,5870.0 3880.0,5881.0 3884.0,5905.0 C 3889.0,5932.0 3887.0,5942.0 3875.0,5946.0 C 3865.0,5950.0 3860.0,5965.0 3860.0,5989.0 C 3860.0,6030.0 3830.0,6094.0 3809.0,6098.0 C 3801.0,6099.0 3780.0,6078.0 3761.0,6051.0" fill="pink"/>
	<path d="M 2926.0,5514.0 L 2836.0,5468.0 L 2783.0,5483.0 L 2729.0,5497.0 L 2696.0,5425.0 C 2660.0,5348.0 2638.0,5327.0 2605.0,5341.0 C 2577.0,5352.0 2516.0,5352.0 2486.0,5340.0 C 2456.0,5329.0 2447.0,5310.0 2429.0,5225.0 C 2415.0,5156.0 2405.0,5134.0 2378.0,5103.0 C 2367.0,5091.0 2355.0,5066.0 2351.0,5048.0 C 2345.0,5018.0 2338.0,5013.0 2270.0,4987.0 C 2210.0,4963.0 2192.0,4960.0 2177.0,4970.0 C 2162.0,4979.0 2154.0,4978.0 2139.0,4964.0 C 2112.0,4939.0 2115.0,4925.0 2156.0,4900.0 C 2180.0,4884.0 2200.0,4879.0 2221.0,4884.0 C 2243.0,4888.0 2250.0,4886.0 2250.0,4875.0 C 2250.0,4867.0 2246.0,4860.0 2241.0,4860.0 C 2236.0,4860.0 2214.0,4843.0 2193.0,4823.0 L 2155.0,4786.0 L 2185.0,4780.0 C 2209.0,4776.0 2214.0,4770.0 2212.0,4752.0 C 2210.0,4740.0 2213.0,4730.0 2218.0,4730.0 C 2229.0,4730.0 2285.0,4612.0 2278.0,4604.0 C 2274.0,4601.0 2246.0,4619.0 2215.0,4645.0 C 2151.0,4696.0 2123.0,4710.0 2079.0,4710.0 C 2037.0,4710.0 2043.0,4728.0 2092.0,4750.0 L 2134.0,4768.0 L 2095.0,4776.0 C 2057.0,4783.0 2054.0,4781.0 2007.0,4730.0 L 1958.0,4677.0 L 2029.0,4612.0 C 2099.0,4549.0 2150.0,4479.0 2150.0,4447.0 C 2150.0,4434.0 2160.0,4430.0 2194.0,4430.0 C 2232.0,4430.0 2245.0,4424.0 2288.0,4385.0 C 2315.0,4360.0 2343.0,4340.0 2348.0,4340.0 C 2354.0,4340.0 2372.0,4348.0 2388.0,4357.0 C 2416.0,4373.0 2418.0,4373.0 2446.0,4351.0 L 2475.0,4328.0 L 2480.0,4351.0 C 2487.0,4379.0 2510.0,4388.0 2511.0,4363.0 C 2511.0,4353.0 2517.0,4363.0 2524.0,4385.0 C 2531.0,4408.0 2545.0,4429.0 2558.0,4436.0 C 2593.0,4453.0 2594.0,4457.0 2571.0,4489.0 C 2545.0,4525.0 2551.0,4567.0 2585.0,4580.0 C 2598.0,4585.0 2620.0,4605.0 2635.0,4624.0 C 2650.0,4644.0 2667.0,4660.0 2673.0,4660.0 C 2679.0,4660.0 2705.0,4638.0 2730.0,4612.0 C 2764.0,4576.0 2779.0,4552.0 2783.0,4523.0 C 2787.0,4501.0 2803.0,4465.0 2820.0,4442.0 C 2846.0,4405.0 2853.0,4401.0 2869.0,4412.0 C 2910.0,4437.0 2940.0,4373.0 2921.0,4304.0 C 2910.0,4263.0 2921.0,4245.0 2950.0,4256.0 C 2958.0,4259.0 2990.0,4264.0 3021.0,4267.0 C 3068.0,4272.0 3080.0,4277.0 3088.0,4295.0 C 3097.0,4315.0 3104.0,4317.0 3147.0,4312.0 C 3177.0,4309.0 3206.0,4298.0 3223.0,4284.0 C 3239.0,4271.0 3256.0,4260.0 3262.0,4260.0 C 3268.0,4260.0 3278.0,4253.0 3284.0,4244.0 C 3295.0,4230.0 3302.0,4234.0 3346.0,4273.0 C 3394.0,4317.0 3395.0,4319.0 3395.0,4376.0 C 3395.0,4434.0 3395.0,4434.0 3435.0,4452.0 C 3482.0,4473.0 3521.0,4475.0 3539.0,4458.0 C 3567.0,4430.0 3631.0,4552.0 3606.0,4585.0 C 3596.0,4599.0 3590.0,4600.0 3567.0,4589.0 C 3552.0,4582.0 3538.0,4579.0 3535.0,4582.0 C 3532.0,4585.0 3534.0,4609.0 3540.0,4635.0 C 3552.0,4688.0 3545.0,4744.0 3524.0,4761.0 C 3505.0,4777.0 3506.0,4794.0 3529.0,4814.0 C 3547.0,4831.0 3550.0,4830.0 3588.0,4795.0 C 3635.0,4754.0 3647.0,4715.0 3630.0,4664.0 C 3621.0,4637.0 3621.0,4622.0 3630.0,4599.0 C 3647.0,4558.0 3658.0,4573.0 3669.0,4654.0 C 3678.0,4718.0 3677.0,4728.0 3648.0,4808.0 C 3609.0,4917.0 3592.0,4934.0 3534.0,4927.0 C 3509.0,4925.0 3473.0,4911.0 3452.0,4898.0 C 3391.0,4858.0 3380.0,4856.0 3380.0,4889.0 C 3380.0,4911.0 3395.0,4930.0 3451.0,4980.0 C 3513.0,5035.0 3521.0,5046.0 3515.0,5069.0 C 3506.0,5106.0 3491.0,5118.0 3498.0,5083.0 L 3503.0,5055.0 L 3472.0,5084.0 C 3455.0,5099.0 3439.0,5124.0 3435.0,5139.0 C 3431.0,5153.0 3406.0,5194.0 3379.0,5230.0 C 3341.0,5278.0 3330.0,5300.0 3335.0,5317.0 C 3339.0,5336.0 3335.0,5342.0 3314.0,5350.0 C 3289.0,5360.0 3289.0,5362.0 3295.0,5424.0 C 3302.0,5484.0 3301.0,5489.0 3278.0,5504.0 C 3236.0,5531.0 3170.0,5550.0 3092.0,5555.0 C 3016.0,5560.0 3014.0,5560.0 2926.0,5514.0" fill="pink"/>
</svg>
