<?xml version="1.0" ?>
<svg xmlns="http://www.w3.org/2000/svg" xmlns:ev="http://www.w3.org/2001/xml-events" xmlns:xlink="http://www.w3.org/1999/xlink" baseProfile="full" height="600px" version="1.1" viewBox="213.263239096814 -1030.7543907366307 9819.276772947878 12299.049855541594" width="480px">
	<defs/>
	<path d="M 6960.0,10223.0 C 6920.0,10212.0 6900.0,10211.0 6883.0,10219.0 C 6844.0,10237.0 6797.0,10232.0 6758.0,10205.0 C 6738.0,10191.0 6708.0,10180.0 6691.0,10180.0 C 6664.0,10180.0 6661.0,10177.0 6658.0,10144.0 C 6655.0,10110.0 6651.0,10107.0 6595.0,10083.0 C 6540.0,10061.0 6516.0,10042.0 6468.0,9983.0 C 6459.0,9971.0 6434.0,9959.0 6411.0,9955.0 C 6376.0,9949.0 6366.0,9942.0 6344.0,9904.0 C 6329.0,9879.0 6304.0,9852.0 6286.0,9844.0 C 6269.0,9835.0 6216.0,9798.0 6168.0,9763.0 C 6093.0,9706.0 6080.0,9692.0 6071.0,9655.0 C 6061.0,9617.0 6056.0,9612.0 6020.0,9602.0 C 5992.0,9595.0 5971.0,9595.0 5952.0,9602.0 C 5929.0,9611.0 5916.0,9608.0 5875.0,9588.0 C 5847.0,9574.0 5807.0,9560.0 5785.0,9556.0 C 5714.0,9543.0 5675.0,9509.0 5635.0,9423.0 C 5615.0,9380.0 5594.0,9324.0 5588.0,9298.0 L 5577.0,9251.0 L 5506.0,9230.0 C 5467.0,9218.0 5411.0,9196.0 5380.0,9180.0 L 5325.0,9152.0 L 5307.0,9069.0 C 5288.0,8979.0 5262.0,8931.0 5164.0,8810.0 C 5089.0,8716.0 5010.0,8644.0 4970.0,8631.0 C 4946.0,8624.0 4922.0,8604.0 4898.0,8572.0 L 4862.0,8523.0 L 4759.0,8505.0 C 4702.0,8495.0 4635.0,8478.0 4610.0,8466.0 C 4550.0,8438.0 4483.0,8385.0 4474.0,8357.0 C 4455.0,8294.0 4398.0,8224.0 4325.0,8176.0 C 4285.0,8148.0 4249.0,8117.0 4246.0,8106.0 C 4243.0,8094.0 4240.0,8039.0 4240.0,7983.0 C 4240.0,7887.0 4238.0,7877.0 4210.0,7832.0 C 4194.0,7805.0 4180.0,7777.0 4180.0,7769.0 C 4180.0,7762.0 4163.0,7705.0 4143.0,7644.0 L 4106.0,7532.0 L 4056.0,7508.0 C 4020.0,7492.0 3993.0,7468.0 3962.0,7427.0 L 3918.0,7369.0 L 3929.0,7312.0 C 3945.0,7233.0 3920.0,7109.0 3869.0,7015.0 C 3848.0,6977.0 3819.0,6902.0 3804.0,6850.0 C 3782.0,6772.0 3771.0,6749.0 3741.0,6720.0 C 3721.0,6701.0 3696.0,6667.0 3687.0,6645.0 C 3667.0,6600.0 3593.0,6545.0 3526.0,6526.0 C 3494.0,6517.0 3484.0,6509.0 3481.0,6490.0 C 3480.0,6476.0 3470.0,6454.0 3460.0,6440.0 C 3445.0,6419.0 3445.0,6410.0 3455.0,6380.0 C 3464.0,6352.0 3464.0,6339.0 3453.0,6313.0 C 3446.0,6295.0 3440.0,6265.0 3440.0,6246.0 C 3440.0,6227.0 3436.0,6200.0 3430.0,6186.0 C 3422.0,6163.0 3415.0,6160.0 3374.0,6160.0 C 3329.0,6160.0 3328.0,6160.0 3331.0,6127.0 C 3335.0,6084.0 3315.0,6036.0 3272.0,5981.0 C 3245.0,5948.0 3236.0,5926.0 3232.0,5886.0 C 3228.0,5845.0 3220.0,5827.0 3189.0,5791.0 C 3152.0,5750.0 3150.0,5743.0 3150.0,5684.0 C 3150.0,5621.0 3150.0,5620.0 3110.0,5594.0 C 3088.0,5579.0 3070.0,5563.0 3070.0,5558.0 C 3070.0,5552.0 3106.0,5514.0 3150.0,5472.0 C 3193.0,5429.0 3234.0,5383.0 3239.0,5368.0 C 3245.0,5353.0 3252.0,5300.0 3256.0,5249.0 L 3263.0,5158.0 L 3292.0,5164.0 C 3317.0,5169.0 3320.0,5167.0 3320.0,5144.0 C 3320.0,5130.0 3331.0,5099.0 3345.0,5076.0 L 3370.0,5033.0 L 3343.0,5021.0 C 3315.0,5008.0 3300.0,5018.0 3300.0,5052.0 C 3300.0,5075.0 3286.0,5082.0 3255.0,5074.0 C 3236.0,5069.0 3221.0,5051.0 3198.0,5006.0 C 3181.0,4973.0 3151.0,4927.0 3130.0,4904.0 C 3109.0,4881.0 3089.0,4848.0 3085.0,4829.0 C 3081.0,4810.0 3069.0,4778.0 3059.0,4758.0 C 3040.0,4722.0 3041.0,4720.0 3059.0,4688.0 C 3076.0,4659.0 3105.0,4550.0 3098.0,4545.0 C 3046.0,4512.0 3016.0,4501.0 2990.0,4507.0 L 2960.0,4512.0 L 2960.0,4458.0 C 2960.0,4427.0 2957.0,4382.0 2954.0,4357.0 C 2948.0,4313.0 2946.0,4311.0 2886.0,4285.0 C 2792.0,4244.0 2747.0,4221.0 2726.0,4205.0 C 2706.0,4190.0 2708.0,4171.0 2736.0,4063.0 C 2741.0,4043.0 2738.0,4040.0 2716.0,4040.0 C 2701.0,4040.0 2680.0,4045.0 2668.0,4051.0 C 2657.0,4057.0 2647.0,4060.0 2645.0,4058.0 C 2643.0,4056.0 2648.0,4026.0 2657.0,3992.0 C 2672.0,3930.0 2673.0,3930.0 2709.0,3930.0 C 2741.0,3930.0 2749.0,3924.0 2780.0,3877.0 C 2835.0,3795.0 2884.0,3756.0 2938.0,3750.0 C 2978.0,3746.0 2985.0,3741.0 2993.0,3715.0 C 2998.0,3699.0 3017.0,3665.0 3034.0,3640.0 C 3051.0,3615.0 3073.0,3569.0 3083.0,3538.0 L 3101.0,3480.0 L 3061.0,3423.0 C 3040.0,3391.0 3006.0,3349.0 2985.0,3330.0 C 2965.0,3311.0 2935.0,3271.0 2919.0,3242.0 C 2893.0,3198.0 2889.0,3183.0 2895.0,3149.0 C 2899.0,3127.0 2912.0,3097.0 2925.0,3082.0 C 2959.0,3042.0 2968.0,2994.0 2975.0,2814.0 C 2981.0,2670.0 2980.0,2652.0 2966.0,2647.0 C 2952.0,2641.0 2950.0,2628.0 2952.0,2573.0 C 2955.0,2511.0 2957.0,2505.0 2978.0,2502.0 C 2990.0,2500.0 3016.0,2504.0 3035.0,2510.0 C 3064.0,2520.0 3076.0,2534.0 3116.0,2610.0 C 3157.0,2687.0 3165.0,2697.0 3183.0,2691.0 C 3217.0,2678.0 3222.0,2646.0 3194.0,2619.0 C 3167.0,2594.0 3160.0,2540.0 3184.0,2540.0 C 3192.0,2540.0 3211.0,2525.0 3227.0,2507.0 C 3242.0,2488.0 3276.0,2459.0 3302.0,2442.0 C 3347.0,2411.0 3348.0,2408.0 3338.0,2380.0 C 3326.0,2343.0 3326.0,2344.0 3269.0,2335.0 L 3222.0,2328.0 L 3210.0,2364.0 C 3191.0,2423.0 3155.0,2430.0 3084.0,2388.0 C 3057.0,2372.0 3052.0,2363.0 3048.0,2320.0 C 3045.0,2292.0 3036.0,2262.0 3027.0,2252.0 C 2988.0,2209.0 2960.0,2019.0 2980.0,1935.0 C 2992.0,1884.0 2991.0,1876.0 2964.0,1788.0 L 2934.0,1696.0 L 2840.0,1630.0 C 2788.0,1594.0 2725.0,1558.0 2702.0,1551.0 C 2678.0,1544.0 2639.0,1521.0 2615.0,1499.0 L 2573.0,1460.0 L 2444.0,1460.0 C 2316.0,1461.0 2315.0,1461.0 2280.0,1490.0 C 2250.0,1516.0 2238.0,1520.0 2185.0,1520.0 L 2125.0,1520.0 L 2175.0,1475.0 C 2203.0,1451.0 2237.0,1428.0 2253.0,1425.0 C 2278.0,1419.0 2280.0,1414.0 2280.0,1372.0 C 2280.0,1331.0 2276.0,1322.0 2253.0,1309.0 C 2229.0,1294.0 2222.0,1294.0 2174.0,1307.0 C 2110.0,1326.0 2090.0,1320.0 2090.0,1282.0 C 2090.0,1241.0 2044.0,1200.0 1998.0,1200.0 C 1966.0,1200.0 1961.0,1197.0 1955.0,1170.0 C 1944.0,1122.0 1904.0,1081.0 1859.0,1074.0 C 1826.0,1068.0 1820.0,1064.0 1820.0,1044.0 C 1820.0,1024.0 1815.0,1020.0 1790.0,1020.0 C 1770.0,1020.0 1755.0,1012.0 1744.0,995.0 C 1735.0,980.0 1718.0,970.0 1705.0,970.0 C 1692.0,970.0 1641.0,949.0 1590.0,924.0 C 1501.0,880.0 1496.0,878.0 1436.0,885.0 C 1374.0,891.0 1373.0,891.0 1321.0,850.0 C 1269.0,809.0 1268.0,809.0 1242.0,826.0 C 1228.0,835.0 1214.0,839.0 1213.0,834.0 C 1188.0,772.0 1173.0,755.0 1131.0,745.0 C 1101.0,738.0 1078.0,724.0 1059.0,700.0 C 1030.0,666.0 1030.0,665.0 1049.0,647.0 C 1065.0,630.0 1073.0,629.0 1099.0,638.0 C 1126.0,648.0 1139.0,645.0 1196.0,620.0 C 1239.0,600.0 1278.0,590.0 1308.0,590.0 C 1334.0,590.0 1393.0,585.0 1440.0,579.0 C 1487.0,574.0 1543.0,567.0 1566.0,564.0 C 1600.0,560.0 1609.0,554.0 1621.0,527.0 C 1649.0,463.0 1740.0,494.0 1740.0,568.0 C 1741.0,617.0 1767.0,646.0 1818.0,655.0 C 1868.0,663.0 1965.0,644.0 2001.0,620.0 C 2018.0,607.0 2031.0,604.0 2041.0,611.0 C 2062.0,624.0 2106.0,622.0 2119.0,606.0 C 2127.0,596.0 2127.0,585.0 2120.0,566.0 C 2103.0,521.0 2108.0,502.0 2141.0,483.0 C 2160.0,472.0 2180.0,447.0 2192.0,420.0 L 2212.0,375.0 L 2226.0,407.0 C 2243.0,446.0 2254.0,453.0 2299.0,454.0 L 2335.0,455.0 L 2338.0,517.0 C 2343.0,628.0 2392.0,626.0 2406.0,514.0 C 2412.0,466.0 2415.0,460.0 2436.0,460.0 C 2459.0,460.0 2460.0,457.0 2460.0,398.0 C 2460.0,354.0 2455.0,331.0 2443.0,318.0 C 2427.0,300.0 2428.0,298.0 2451.0,274.0 L 2476.0,249.0 L 2509.0,352.0 C 2536.0,437.0 2543.0,480.0 2551.0,595.0 C 2562.0,776.0 2568.0,810.0 2590.0,810.0 C 2623.0,810.0 2639.0,776.0 2652.0,682.0 C 2666.0,579.0 2669.0,577.0 2751.0,601.0 C 2795.0,615.0 2811.0,606.0 2836.0,559.0 C 2849.0,534.0 2848.0,528.0 2825.0,488.0 C 2811.0,464.0 2800.0,432.0 2800.0,417.0 C 2800.0,399.0 2790.0,381.0 2773.0,365.0 C 2745.0,342.0 2745.0,341.0 2763.0,311.0 C 2779.0,284.0 2779.0,278.0 2766.0,252.0 C 2748.0,216.0 2699.0,20.0 2706.0,9.0 C 2720.0,-14.0 2780.0,4.0 2780.0,30.0 C 2780.0,51.0 2822.0,88.0 2856.0,96.0 C 2868.0,99.0 2880.0,110.0 2883.0,120.0 C 2886.0,133.0 2894.0,137.0 2909.0,133.0 C 2927.0,128.0 2930.0,132.0 2930.0,159.0 C 2930.0,183.0 2934.0,190.0 2949.0,190.0 C 2976.0,190.0 2991.0,168.0 2998.0,113.0 L 3005.0,65.0 L 3038.0,122.0 C 3075.0,188.0 3081.0,260.0 3054.0,312.0 C 3041.0,337.0 3039.0,358.0 3045.0,413.0 C 3048.0,451.0 3056.0,494.0 3062.0,509.0 C 3069.0,524.0 3072.0,582.0 3071.0,645.0 L 3068.0,756.0 L 3103.0,772.0 L 3138.0,789.0 L 3148.0,760.0 C 3163.0,719.0 3192.0,706.0 3229.0,725.0 C 3263.0,742.0 3296.0,745.0 3305.0,730.0 C 3316.0,713.0 3279.0,552.0 3260.0,535.0 C 3243.0,520.0 3243.0,516.0 3260.0,462.0 C 3270.0,431.0 3284.0,404.0 3291.0,402.0 C 3312.0,398.0 3359.0,463.0 3379.0,523.0 C 3392.0,562.0 3402.0,576.0 3418.0,578.0 C 3432.0,580.0 3440.0,589.0 3440.0,600.0 C 3440.0,633.0 3483.0,672.0 3526.0,679.0 C 3563.0,685.0 3565.0,687.0 3568.0,723.0 C 3571.0,757.0 3576.0,763.0 3616.0,782.0 L 3660.0,804.0 L 3660.0,863.0 C 3660.0,914.0 3657.0,925.0 3635.0,942.0 C 3621.0,953.0 3604.0,983.0 3595.0,1012.0 C 3578.0,1070.0 3575.0,1170.0 3590.0,1170.0 C 3604.0,1170.0 3632.0,1124.0 3639.0,1087.0 C 3645.0,1060.0 3650.0,1055.0 3672.0,1058.0 C 3732.0,1065.0 3835.0,984.0 3876.0,898.0 C 3903.0,841.0 3906.0,839.0 3935.0,844.0 C 3951.0,847.0 3975.0,862.0 3988.0,878.0 L 4011.0,905.0 L 4035.0,875.0 C 4055.0,851.0 4058.0,838.0 4053.0,805.0 C 4049.0,771.0 4054.0,752.0 4083.0,694.0 C 4105.0,650.0 4129.0,619.0 4148.0,608.0 C 4177.0,591.0 4178.0,591.0 4184.0,613.0 C 4187.0,625.0 4190.0,645.0 4190.0,658.0 C 4190.0,672.0 4198.0,684.0 4213.0,689.0 C 4242.0,700.0 4272.0,680.0 4373.0,581.0 L 4451.0,505.0 L 4449.0,595.0 C 4447.0,676.0 4449.0,685.0 4466.0,688.0 C 4498.0,694.0 4500.0,703.0 4486.0,785.0 C 4465.0,903.0 4459.0,914.0 4402.0,938.0 C 4340.0,965.0 4328.0,965.0 4305.0,940.0 C 4295.0,929.0 4281.0,920.0 4274.0,920.0 C 4249.0,920.0 4223.0,970.0 4207.0,1050.0 C 4198.0,1095.0 4181.0,1143.0 4170.0,1157.0 C 4141.0,1194.0 4151.0,1196.0 4202.0,1164.0 C 4305.0,1099.0 4348.0,1060.0 4354.0,1025.0 C 4362.0,984.0 4378.0,981.0 4410.0,1015.0 C 4428.0,1035.0 4443.0,1040.0 4479.0,1040.0 C 4504.0,1040.0 4530.0,1036.0 4536.0,1032.0 C 4550.0,1022.0 4606.0,857.0 4615.0,797.0 C 4621.0,756.0 4629.0,743.0 4672.0,707.0 C 4719.0,666.0 4721.0,664.0 4715.0,623.0 C 4710.0,586.0 4714.0,574.0 4751.0,515.0 C 4792.0,450.0 4792.0,447.0 4786.0,386.0 C 4782.0,349.0 4784.0,311.0 4791.0,292.0 C 4800.0,265.0 4807.0,260.0 4835.0,260.0 C 4875.0,260.0 4887.0,284.0 4869.0,324.0 C 4859.0,345.0 4860.0,353.0 4873.0,368.0 C 4883.0,378.0 4890.0,400.0 4890.0,417.0 C 4890.0,454.0 4926.0,490.0 4963.0,490.0 C 4993.0,490.0 4997.0,505.0 4977.0,535.0 C 4969.0,546.0 4960.0,570.0 4956.0,589.0 C 4951.0,619.0 4954.0,628.0 4981.0,656.0 L 5012.0,688.0 L 4973.0,700.0 C 4924.0,716.0 4884.0,754.0 4804.0,859.0 C 4747.0,933.0 4740.0,948.0 4740.0,988.0 C 4740.0,1026.0 4735.0,1038.0 4701.0,1071.0 C 4656.0,1117.0 4606.0,1124.0 4575.0,1090.0 C 4557.0,1070.0 4557.0,1070.0 4535.0,1102.0 C 4504.0,1148.0 4512.0,1161.0 4566.0,1153.0 C 4603.0,1148.0 4615.0,1151.0 4634.0,1169.0 C 4654.0,1188.0 4664.0,1190.0 4708.0,1184.0 L 4758.0,1178.0 L 4770.0,1214.0 C 4784.0,1258.0 4810.0,1262.0 4810.0,1221.0 C 4810.0,1205.0 4819.0,1163.0 4830.0,1128.0 C 4841.0,1094.0 4850.0,1064.0 4850.0,1063.0 C 4850.0,1061.0 4839.0,1060.0 4825.0,1060.0 C 4811.0,1060.0 4800.0,1056.0 4800.0,1052.0 C 4800.0,1037.0 4896.0,952.0 4945.0,925.0 C 4981.0,904.0 5015.0,895.0 5070.0,890.0 C 5144.0,883.0 5145.0,883.0 5190.0,832.0 C 5229.0,788.0 5238.0,783.0 5255.0,792.0 C 5281.0,807.0 5290.0,820.0 5290.0,847.0 C 5290.0,859.0 5298.0,882.0 5307.0,898.0 C 5329.0,937.0 5313.0,960.0 5263.0,960.0 C 5236.0,960.0 5226.0,966.0 5212.0,990.0 L 5195.0,1020.0 L 5079.0,1020.0 C 4963.0,1020.0 4962.0,1020.0 4944.0,1048.0 C 4933.0,1064.0 4924.0,1100.0 4922.0,1137.0 L 4918.0,1198.0 L 4958.0,1219.0 L 4999.0,1240.0 L 5062.0,1210.0 C 5105.0,1190.0 5140.0,1180.0 5173.0,1180.0 C 5210.0,1180.0 5231.0,1173.0 5265.0,1150.0 C 5347.0,1094.0 5465.0,1116.0 5503.0,1195.0 C 5524.0,1239.0 5550.0,1240.0 5587.0,1200.0 C 5612.0,1172.0 5618.0,1170.0 5685.0,1170.0 L 5756.0,1170.0 L 5807.0,1092.0 C 5835.0,1050.0 5863.0,1004.0 5870.0,990.0 C 5882.0,967.0 5884.0,966.0 5890.0,985.0 C 5900.0,1010.0 5893.0,1087.0 5874.0,1171.0 C 5865.0,1207.0 5860.0,1254.0 5862.0,1276.0 C 5864.0,1308.0 5870.0,1316.0 5893.0,1325.0 C 5916.0,1333.0 5929.0,1330.0 5960.0,1312.0 C 5981.0,1300.0 6001.0,1293.0 6003.0,1298.0 C 6006.0,1302.0 6011.0,1340.0 6015.0,1383.0 C 6020.0,1432.0 6028.0,1467.0 6038.0,1477.0 C 6052.0,1491.0 6056.0,1489.0 6081.0,1459.0 C 6096.0,1440.0 6125.0,1396.0 6144.0,1361.0 C 6178.0,1301.0 6180.0,1292.0 6180.0,1204.0 C 6180.0,1122.0 6182.0,1109.0 6199.0,1100.0 C 6228.0,1085.0 6228.0,1086.0 6217.0,1133.0 C 6208.0,1173.0 6210.0,1179.0 6245.0,1235.0 C 6266.0,1268.0 6284.0,1296.0 6286.0,1298.0 C 6287.0,1300.0 6302.0,1294.0 6319.0,1286.0 C 6335.0,1277.0 6353.0,1270.0 6358.0,1270.0 C 6394.0,1270.0 6364.0,1387.0 6327.0,1392.0 C 6314.0,1394.0 6301.0,1406.0 6295.0,1423.0 C 6286.0,1449.0 6289.0,1455.0 6320.0,1481.0 C 6362.0,1515.0 6411.0,1519.0 6440.0,1490.0 C 6451.0,1479.0 6460.0,1462.0 6460.0,1452.0 C 6460.0,1442.0 6480.0,1412.0 6504.0,1385.0 L 6548.0,1335.0 L 6570.0,1355.0 C 6582.0,1366.0 6598.0,1389.0 6605.0,1408.0 L 6619.0,1441.0 L 6657.0,1424.0 C 6722.0,1396.0 6725.0,1397.0 6753.0,1434.0 C 6768.0,1453.0 6780.0,1474.0 6780.0,1479.0 C 6780.0,1485.0 6760.0,1528.0 6735.0,1574.0 L 6689.0,1658.0 L 6746.0,1662.0 C 6800.0,1665.0 6802.0,1664.0 6815.0,1635.0 C 6822.0,1619.0 6839.0,1594.0 6854.0,1581.0 L 6880.0,1557.0 L 6880.0,1595.0 L 6880.0,1633.0 L 6949.0,1628.0 C 7001.0,1624.0 7022.0,1626.0 7033.0,1637.0 C 7045.0,1649.0 7052.0,1649.0 7082.0,1634.0 C 7105.0,1623.0 7123.0,1621.0 7133.0,1627.0 C 7147.0,1634.0 7138.0,1650.0 7079.0,1729.0 C 7038.0,1784.0 7011.0,1829.0 7014.0,1837.0 C 7017.0,1845.0 7020.0,1855.0 7020.0,1860.0 C 7020.0,1865.0 7033.0,1871.0 7049.0,1875.0 C 7072.0,1880.0 7087.0,1875.0 7119.0,1852.0 C 7156.0,1825.0 7164.0,1823.0 7195.0,1833.0 C 7220.0,1840.0 7237.0,1840.0 7255.0,1832.0 C 7279.0,1821.0 7280.0,1822.0 7280.0,1856.0 C 7280.0,1896.0 7301.0,1910.0 7332.0,1891.0 C 7350.0,1880.0 7356.0,1882.0 7381.0,1906.0 C 7414.0,1937.0 7414.0,1940.0 7399.0,2008.0 L 7389.0,2058.0 L 7322.0,2065.0 C 7225.0,2074.0 7180.0,2089.0 7180.0,2112.0 C 7180.0,2127.0 7188.0,2130.0 7234.0,2130.0 C 7313.0,2130.0 7316.0,2132.0 7312.0,2190.0 C 7310.0,2218.0 7311.0,2240.0 7314.0,2240.0 C 7318.0,2240.0 7363.0,2213.0 7416.0,2180.0 C 7468.0,2147.0 7517.0,2120.0 7525.0,2120.0 C 7551.0,2120.0 7551.0,2139.0 7524.0,2181.0 L 7498.0,2223.0 L 7530.0,2217.0 C 7556.0,2211.0 7563.0,2214.0 7567.0,2229.0 C 7576.0,2266.0 7617.0,2264.0 7671.0,2224.0 C 7710.0,2195.0 7724.0,2190.0 7733.0,2200.0 C 7742.0,2209.0 7737.0,2219.0 7709.0,2243.0 C 7675.0,2273.0 7674.0,2277.0 7684.0,2308.0 C 7701.0,2357.0 7743.0,2380.0 7820.0,2380.0 L 7885.0,2381.0 L 7833.0,2429.0 C 7782.0,2475.0 7780.0,2479.0 7780.0,2528.0 C 7780.0,2570.0 7784.0,2581.0 7801.0,2591.0 C 7819.0,2600.0 7831.0,2597.0 7871.0,2575.0 C 7931.0,2543.0 7964.0,2545.0 7968.0,2581.0 C 7971.0,2603.0 7966.0,2610.0 7940.0,2618.0 C 7918.0,2626.0 7908.0,2637.0 7904.0,2659.0 C 7899.0,2685.0 7889.0,2693.0 7839.0,2712.0 C 7793.0,2730.0 7780.0,2739.0 7780.0,2756.0 C 7780.0,2784.0 7804.0,2804.0 7830.0,2797.0 C 7848.0,2792.0 7924.0,2837.0 7941.0,2862.0 C 7944.0,2867.0 7964.0,2862.0 7986.0,2851.0 C 8070.0,2806.0 8085.0,2839.0 8015.0,2910.0 C 7966.0,2960.0 7952.0,3001.0 7964.0,3065.0 C 7969.0,3092.0 7978.0,3104.0 7998.0,3111.0 C 8022.0,3120.0 8028.0,3118.0 8048.0,3093.0 C 8117.0,3011.0 8118.0,3010.0 8154.0,3010.0 C 8186.0,3010.0 8190.0,3013.0 8190.0,3035.0 C 8190.0,3053.0 8185.0,3060.0 8171.0,3060.0 C 8136.0,3060.0 8120.0,3072.0 8120.0,3096.0 C 8120.0,3117.0 8125.0,3120.0 8160.0,3120.0 C 8181.0,3120.0 8211.0,3115.0 8225.0,3108.0 C 8259.0,3093.0 8265.0,3102.0 8245.0,3140.0 L 8228.0,3172.0 L 8259.0,3165.0 C 8287.0,3159.0 8289.0,3160.0 8282.0,3179.0 C 8278.0,3190.0 8256.0,3212.0 8233.0,3229.0 C 8197.0,3255.0 8190.0,3266.0 8190.0,3293.0 C 8190.0,3316.0 8198.0,3334.0 8215.0,3350.0 C 8238.0,3372.0 8239.0,3374.0 8224.0,3399.0 C 8210.0,3423.0 8210.0,3430.0 8224.0,3463.0 C 8237.0,3496.0 8237.0,3504.0 8224.0,3535.0 C 8202.0,3589.0 8207.0,3616.0 8250.0,3681.0 C 8286.0,3733.0 8294.0,3740.0 8324.0,3740.0 C 8351.0,3740.0 8364.0,3732.0 8387.0,3704.0 C 8409.0,3677.0 8425.0,3667.0 8457.0,3663.0 C 8497.0,3658.0 8499.0,3659.0 8514.0,3694.0 C 8527.0,3724.0 8534.0,3730.0 8559.0,3730.0 C 8605.0,3730.0 8600.0,3763.0 8548.0,3800.0 C 8479.0,3849.0 8470.0,3859.0 8470.0,3881.0 C 8470.0,3893.0 8459.0,3915.0 8446.0,3931.0 C 8418.0,3964.0 8403.0,4048.0 8419.0,4078.0 C 8427.0,4092.0 8426.0,4102.0 8415.0,4116.0 C 8407.0,4127.0 8400.0,4151.0 8400.0,4170.0 C 8400.0,4193.0 8388.0,4223.0 8365.0,4258.0 C 8345.0,4286.0 8325.0,4321.0 8320.0,4334.0 C 8315.0,4349.0 8300.0,4361.0 8281.0,4365.0 C 8250.0,4372.0 8250.0,4372.0 8250.0,4439.0 C 8250.0,4498.0 8253.0,4509.0 8275.0,4530.0 C 8293.0,4547.0 8300.0,4564.0 8300.0,4590.0 C 8300.0,4611.0 8303.0,4648.0 8306.0,4674.0 C 8312.0,4717.0 8315.0,4720.0 8342.0,4720.0 C 8368.0,4720.0 8371.0,4723.0 8368.0,4747.0 C 8366.0,4769.0 8358.0,4777.0 8326.0,4785.0 C 8297.0,4794.0 8283.0,4805.0 8268.0,4833.0 C 8258.0,4853.0 8243.0,4870.0 8235.0,4870.0 C 8223.0,4870.0 8220.0,4892.0 8220.0,4998.0 C 8220.0,5166.0 8225.0,5191.0 8269.0,5242.0 C 8302.0,5280.0 8305.0,5289.0 8305.0,5346.0 C 8306.0,5391.0 8311.0,5414.0 8323.0,5428.0 C 8332.0,5438.0 8340.0,5458.0 8340.0,5472.0 C 8340.0,5489.0 8348.0,5500.0 8365.0,5508.0 C 8382.0,5516.0 8390.0,5528.0 8390.0,5544.0 C 8390.0,5557.0 8408.0,5595.0 8431.0,5629.0 L 8472.0,5690.0 L 8523.0,5690.0 C 8552.0,5689.0 8586.0,5683.0 8600.0,5675.0 C 8616.0,5666.0 8655.0,5661.0 8709.0,5660.0 C 8781.0,5660.0 8797.0,5663.0 8816.0,5681.0 C 8828.0,5692.0 8860.0,5707.0 8887.0,5714.0 L 8937.0,5727.0 L 9031.0,5659.0 C 9083.0,5621.0 9130.0,5590.0 9136.0,5590.0 C 9143.0,5590.0 9150.0,5607.0 9152.0,5628.0 C 9155.0,5648.0 9164.0,5682.0 9174.0,5703.0 L 9190.0,5740.0 L 9163.0,5751.0 C 9147.0,5758.0 9108.0,5762.0 9075.0,5761.0 C 9042.0,5761.0 9009.0,5764.0 9001.0,5769.0 C 8980.0,5782.0 8920.0,5978.0 8920.0,6035.0 C 8920.0,6063.0 8913.0,6112.0 8906.0,6144.0 C 8893.0,6197.0 8894.0,6207.0 8909.0,6244.0 C 8924.0,6279.0 8925.0,6294.0 8917.0,6348.0 C 8909.0,6394.0 8909.0,6426.0 8918.0,6468.0 C 8948.0,6608.0 9000.0,6925.0 9000.0,6969.0 C 9000.0,7002.0 9009.0,7035.0 9030.0,7076.0 C 9053.0,7122.0 9058.0,7143.0 9054.0,7175.0 C 9051.0,7197.0 9055.0,7241.0 9064.0,7275.0 C 9073.0,7307.0 9080.0,7360.0 9080.0,7392.0 C 9080.0,7476.0 9098.0,7500.0 9161.0,7500.0 C 9210.0,7500.0 9210.0,7500.0 9210.0,7533.0 C 9210.0,7550.0 9203.0,7574.0 9195.0,7584.0 C 9185.0,7597.0 9180.0,7627.0 9180.0,7667.0 C 9180.0,7702.0 9173.0,7747.0 9165.0,7766.0 C 9154.0,7792.0 9152.0,7821.0 9157.0,7875.0 C 9162.0,7938.0 9159.0,7959.0 9140.0,8011.0 C 9119.0,8070.0 9118.0,8078.0 9130.0,8184.0 C 9143.0,8305.0 9156.0,8371.0 9176.0,8410.0 C 9182.0,8424.0 9186.0,8448.0 9183.0,8463.0 C 9179.0,8486.0 9173.0,8490.0 9146.0,8490.0 C 9101.0,8490.0 9043.0,8549.0 9059.0,8578.0 C 9066.0,8591.0 9066.0,8609.0 9060.0,8631.0 C 9054.0,8650.0 9050.0,8711.0 9050.0,8768.0 C 9050.0,8887.0 9035.0,8927.0 8971.0,8985.0 C 8921.0,9030.0 8892.0,9100.0 8878.0,9206.0 C 8865.0,9308.0 8873.0,9352.0 8931.0,9502.0 C 8954.0,9559.0 8974.0,9615.0 8977.0,9628.0 C 8981.0,9643.0 8990.0,9650.0 9005.0,9650.0 C 9055.0,9650.0 9060.0,9658.0 9060.0,9731.0 L 9060.0,9800.0 L 9006.0,9824.0 C 8976.0,9838.0 8946.0,9858.0 8940.0,9872.0 C 8933.0,9884.0 8916.0,9907.0 8902.0,9923.0 C 8880.0,9946.0 8868.0,9950.0 8823.0,9950.0 C 8762.0,9950.0 8719.0,9965.0 8673.0,10004.0 C 8635.0,10036.0 8551.0,10067.0 8541.0,10053.0 C 8533.0,10040.0 8319.0,10016.0 8281.0,10023.0 C 8256.0,10028.0 8247.0,10024.0 8228.0,10001.0 C 8212.0,9982.0 8186.0,9968.0 8140.0,9956.0 C 8104.0,9947.0 8035.0,9920.0 7985.0,9897.0 C 7904.0,9859.0 7888.0,9855.0 7819.0,9855.0 C 7760.0,9856.0 7736.0,9861.0 7706.0,9878.0 C 7660.0,9905.0 7638.0,9906.0 7615.0,9880.0 C 7593.0,9856.0 7517.0,9853.0 7467.0,9874.0 C 7449.0,9881.0 7368.0,9938.0 7285.0,10000.0 C 7203.0,10061.0 7125.0,10116.0 7114.0,10122.0 C 7099.0,10129.0 7091.0,10144.0 7087.0,10173.0 C 7081.0,10215.0 7059.0,10241.0 7031.0,10239.0 C 7022.0,10239.0 6990.0,10232.0 6960.0,10223.0" fill="pink"/>
	<path d="M 3643.0,702.0 C 3611.0,676.0 3610.0,674.0 3622.0,636.0 C 3633.0,600.0 3633.0,596.0 3608.0,575.0 C 3593.0,562.0 3571.0,545.0 3560.0,537.0 C 3548.0,529.0 3535.0,506.0 3530.0,487.0 C 3523.0,453.0 3524.0,452.0 3560.0,441.0 C 3581.0,435.0 3608.0,430.0 3622.0,430.0 C 3635.0,430.0 3662.0,419.0 3681.0,405.0 L 3715.0,379.0 L 3743.0,410.0 C 3758.0,427.0 3770.0,451.0 3770.0,465.0 C 3770.0,483.0 3775.0,490.0 3788.0,490.0 C 3811.0,490.0 3846.0,551.0 3837.0,574.0 C 3830.0,592.0 3805.0,596.0 3795.0,580.0 C 3792.0,575.0 3768.0,570.0 3742.0,570.0 L 3695.0,570.0 L 3722.0,593.0 C 3751.0,616.0 3769.0,655.0 3763.0,681.0 C 3760.0,695.0 3701.0,730.0 3682.0,730.0 C 3678.0,730.0 3660.0,717.0 3643.0,702.0" fill="pink"/>
	<path d="M 4128.0,513.0 C 4093.0,491.0 4077.0,455.0 4090.0,430.0 C 4103.0,405.0 4103.0,367.0 4089.0,336.0 C 4079.0,315.0 4081.0,307.0 4102.0,282.0 C 4115.0,266.0 4132.0,239.0 4139.0,222.0 C 4149.0,199.0 4168.0,183.0 4214.0,160.0 C 4288.0,124.0 4290.0,124.0 4283.0,151.0 C 4280.0,162.0 4283.0,190.0 4291.0,212.0 C 4308.0,264.0 4297.0,280.0 4232.0,304.0 C 4184.0,321.0 4180.0,325.0 4180.0,355.0 C 4180.0,376.0 4188.0,394.0 4205.0,410.0 C 4238.0,441.0 4238.0,482.0 4204.0,509.0 C 4172.0,534.0 4163.0,535.0 4128.0,513.0" fill="pink"/>
</svg>
