<?xml version="1.0" ?>
<svg xmlns="http://www.w3.org/2000/svg" xmlns:ev="http://www.w3.org/2001/xml-events" xmlns:xlink="http://www.w3.org/1999/xlink" baseProfile="full" height="600px" version="1.1" viewBox="447.37374274729996 -1029.12 9340.3150870324 12298.24" width="456px">
	<defs/>
	<path d="M 2830.0,10192.0 C 2653.0,10061.0 2571.0,9906.0 2570.0,9700.0 C 2569.0,9581.0 2551.0,9536.0 2472.0,9460.0 C 2441.0,9430.0 2383.0,9362.0 2344.0,9310.0 C 2284.0,9230.0 2270.0,9204.0 2255.0,9143.0 C 2240.0,9080.0 2235.0,9070.0 2216.0,9070.0 C 2161.0,9070.0 1946.0,8880.0 1883.0,8776.0 C 1863.0,8742.0 1811.0,8677.0 1768.0,8631.0 C 1702.0,8562.0 1680.0,8529.0 1634.0,8433.0 C 1604.0,8370.0 1553.0,8279.0 1521.0,8232.0 C 1441.0,8111.0 1441.0,8113.0 1425.0,7993.0 C 1417.0,7933.0 1403.0,7865.0 1394.0,7840.0 C 1375.0,7789.0 1362.0,7475.0 1374.0,7376.0 C 1381.0,7321.0 1383.0,7318.0 1425.0,7298.0 C 1464.0,7279.0 1470.0,7271.0 1479.0,7230.0 C 1489.0,7184.0 1488.0,7172.0 1469.0,7095.0 C 1460.0,7060.0 1462.0,7047.0 1484.0,7000.0 C 1533.0,6895.0 1527.0,6836.0 1461.0,6753.0 C 1415.0,6693.0 1414.0,6652.0 1455.0,6531.0 C 1474.0,6473.0 1490.0,6410.0 1490.0,6390.0 C 1490.0,6342.0 1507.0,6295.0 1542.0,6243.0 L 1570.0,6201.0 L 1570.0,6013.0 L 1570.0,5825.0 L 1600.0,5773.0 C 1625.0,5729.0 1637.0,5719.0 1682.0,5702.0 C 1728.0,5685.0 1736.0,5678.0 1741.0,5649.0 C 1747.0,5622.0 1740.0,5600.0 1700.0,5520.0 C 1654.0,5428.0 1652.0,5422.0 1662.0,5377.0 C 1671.0,5335.0 1677.0,5326.0 1730.0,5293.0 C 1784.0,5258.0 1789.0,5252.0 1809.0,5187.0 C 1839.0,5090.0 1893.0,4985.0 1945.0,4919.0 C 1981.0,4873.0 2001.0,4858.0 2049.0,4840.0 C 2112.0,4817.0 2120.0,4804.0 2120.0,4725.0 C 2120.0,4693.0 2121.0,4692.0 2173.0,4686.0 C 2304.0,4670.0 2297.0,4673.0 2334.0,4611.0 C 2385.0,4528.0 2410.0,4464.0 2410.0,4419.0 C 2410.0,4375.0 2433.0,4322.0 2460.0,4303.0 C 2470.0,4296.0 2483.0,4277.0 2490.0,4261.0 C 2497.0,4243.0 2514.0,4227.0 2533.0,4221.0 C 2559.0,4211.0 2567.0,4213.0 2588.0,4232.0 L 2612.0,4255.0 L 2635.0,4226.0 C 2670.0,4182.0 2675.0,4135.0 2651.0,4081.0 C 2637.0,4049.0 2623.0,3973.0 2606.0,3833.0 L 2582.0,3630.0 L 2533.0,3574.0 L 2485.0,3517.0 L 2482.0,3426.0 C 2478.0,3320.0 2462.0,3294.0 2397.0,3283.0 C 2373.0,3279.0 2342.0,3263.0 2316.0,3241.0 C 2293.0,3221.0 2262.0,3196.0 2246.0,3185.0 C 2227.0,3171.0 2215.0,3150.0 2209.0,3120.0 C 2198.0,3071.0 2165.0,3026.0 2131.0,3015.0 C 2113.0,3010.0 2110.0,3001.0 2110.0,2958.0 C 2110.0,2919.0 2104.0,2901.0 2085.0,2878.0 C 2068.0,2858.0 2060.0,2836.0 2060.0,2811.0 C 2060.0,2775.0 2063.0,2772.0 2105.0,2756.0 C 2160.0,2735.0 2169.0,2710.0 2146.0,2643.0 C 2124.0,2580.0 2126.0,2494.0 2151.0,2398.0 L 2171.0,2317.0 L 2146.0,2211.0 C 2124.0,2114.0 2107.0,2006.0 2096.0,1876.0 C 2092.0,1830.0 2088.0,1823.0 1986.0,1721.0 C 1883.0,1618.0 1880.0,1613.0 1880.0,1571.0 C 1880.0,1532.0 1869.0,1509.0 1796.0,1396.0 C 1750.0,1324.0 1689.0,1222.0 1660.0,1170.0 C 1598.0,1057.0 1539.0,972.0 1470.0,897.0 L 1420.0,842.0 L 1420.0,729.0 C 1420.0,629.0 1418.0,613.0 1398.0,584.0 C 1385.0,566.0 1357.0,543.0 1335.0,533.0 C 1313.0,523.0 1281.0,502.0 1263.0,486.0 C 1234.0,462.0 1230.0,452.0 1230.0,410.0 C 1230.0,364.0 1232.0,361.0 1307.0,290.0 L 1383.0,217.0 L 1507.0,223.0 L 1630.0,230.0 L 1654.0,182.0 C 1691.0,109.0 1736.0,84.0 1842.0,76.0 C 1915.0,71.0 1945.0,74.0 2032.0,95.0 C 2089.0,109.0 2141.0,120.0 2147.0,120.0 C 2154.0,120.0 2162.0,108.0 2166.0,93.0 C 2181.0,20.0 2215.0,0.0 2322.0,0.0 L 2378.0,0.0 L 2389.0,44.0 C 2395.0,69.0 2400.0,105.0 2400.0,124.0 C 2400.0,155.0 2404.0,160.0 2436.0,170.0 C 2455.0,177.0 2487.0,179.0 2506.0,175.0 C 2535.0,170.0 2548.0,174.0 2582.0,199.0 C 2605.0,216.0 2628.0,230.0 2633.0,230.0 C 2638.0,230.0 2668.0,242.0 2700.0,256.0 C 2760.0,283.0 2761.0,285.0 2803.0,391.0 C 2817.0,426.0 2820.0,428.0 2911.0,449.0 C 3109.0,495.0 3105.0,493.0 3130.0,555.0 L 3152.0,610.0 L 3197.0,610.0 C 3247.0,610.0 3253.0,605.0 3320.0,504.0 C 3352.0,456.0 3370.0,439.0 3403.0,426.0 C 3480.0,397.0 3615.0,411.0 3769.0,464.0 C 3810.0,478.0 3857.0,490.0 3874.0,490.0 C 3891.0,490.0 3935.0,501.0 3971.0,513.0 C 4029.0,533.0 4041.0,534.0 4069.0,523.0 C 4090.0,514.0 4106.0,497.0 4116.0,475.0 C 4123.0,457.0 4145.0,430.0 4163.0,416.0 C 4205.0,384.0 4249.0,383.0 4410.0,410.0 C 4524.0,430.0 4531.0,430.0 4562.0,414.0 C 4580.0,404.0 4622.0,391.0 4655.0,385.0 L 4715.0,375.0 L 4744.0,312.0 C 4773.0,251.0 4774.0,250.0 4814.0,250.0 C 4837.0,250.0 4877.0,243.0 4904.0,235.0 C 4932.0,226.0 4993.0,220.0 5044.0,220.0 L 5135.0,220.0 L 5197.0,151.0 C 5251.0,92.0 5266.0,80.0 5311.0,70.0 C 5361.0,58.0 5363.0,58.0 5453.0,100.0 C 5504.0,123.0 5552.0,145.0 5560.0,149.0 C 5568.0,153.0 5601.0,208.0 5632.0,272.0 C 5685.0,380.0 5693.0,390.0 5742.0,420.0 C 5771.0,438.0 5816.0,470.0 5841.0,491.0 C 5874.0,518.0 5906.0,534.0 5956.0,546.0 C 6026.0,563.0 6200.0,655.0 6200.0,675.0 C 6200.0,680.0 6224.0,735.0 6254.0,795.0 C 6299.0,888.0 6316.0,912.0 6365.0,954.0 C 6433.0,1013.0 6474.0,1073.0 6490.0,1141.0 C 6497.0,1170.0 6510.0,1195.0 6521.0,1201.0 C 6538.0,1210.0 6540.0,1223.0 6540.0,1328.0 L 6540.0,1445.0 L 6619.0,1577.0 C 6678.0,1676.0 6700.0,1725.0 6709.0,1771.0 C 6716.0,1805.0 6732.0,1849.0 6744.0,1869.0 C 6756.0,1889.0 6790.0,1948.0 6818.0,2001.0 C 6865.0,2088.0 6875.0,2100.0 6912.0,2114.0 L 6953.0,2131.0 L 6946.0,2202.0 C 6938.0,2295.0 6964.0,2377.0 7035.0,2480.0 C 7096.0,2568.0 7101.0,2588.0 7109.0,2779.0 L 7115.0,2923.0 L 7158.0,2938.0 C 7184.0,2946.0 7200.0,2958.0 7200.0,2968.0 C 7200.0,2976.0 7214.0,3013.0 7231.0,3049.0 C 7260.0,3112.0 7264.0,3116.0 7324.0,3143.0 L 7386.0,3171.0 L 7522.0,3393.0 C 7597.0,3515.0 7695.0,3680.0 7740.0,3760.0 C 7786.0,3840.0 7850.0,3946.0 7884.0,3995.0 C 7935.0,4071.0 7954.0,4113.0 8006.0,4265.0 L 8067.0,4445.0 L 8137.0,4468.0 L 8206.0,4490.0 L 8218.0,4549.0 C 8230.0,4605.0 8234.0,4611.0 8298.0,4663.0 C 8380.0,4731.0 8450.0,4804.0 8517.0,4891.0 C 8562.0,4949.0 8569.0,4966.0 8579.0,5028.0 C 8585.0,5067.0 8590.0,5116.0 8590.0,5137.0 C 8590.0,5173.0 8596.0,5180.0 8663.0,5237.0 C 8710.0,5276.0 8759.0,5307.0 8796.0,5321.0 C 8881.0,5352.0 8916.0,5381.0 8924.0,5427.0 C 8928.0,5448.0 8946.0,5510.0 8965.0,5565.0 C 9017.0,5720.0 9017.0,5721.0 8973.0,5750.0 C 8917.0,5788.0 8910.0,5798.0 8910.0,5843.0 C 8910.0,5904.0 8871.0,5977.0 8801.0,6045.0 C 8731.0,6113.0 8729.0,6123.0 8756.0,6256.0 L 8772.0,6334.0 L 8719.0,6381.0 C 8667.0,6426.0 8666.0,6429.0 8679.0,6454.0 C 8692.0,6477.0 8691.0,6483.0 8666.0,6520.0 C 8639.0,6561.0 8610.0,6654.0 8610.0,6700.0 C 8610.0,6751.0 8570.0,6864.0 8530.0,6924.0 C 8491.0,6984.0 8395.0,7072.0 8333.0,7103.0 C 8295.0,7123.0 8243.0,7125.0 8189.0,7108.0 L 8150.0,7097.0 L 8156.0,6888.0 C 8160.0,6774.0 8160.0,6680.0 8156.0,6680.0 C 8152.0,6680.0 8136.0,6687.0 8120.0,6695.0 C 8094.0,6708.0 8090.0,6716.0 8090.0,6753.0 C 8089.0,6821.0 8066.0,6906.0 8008.0,7053.0 C 7957.0,7183.0 7949.0,7196.0 7870.0,7285.0 C 7803.0,7361.0 7762.0,7396.0 7661.0,7464.0 C 7492.0,7577.0 7350.0,7696.0 7316.0,7753.0 C 7302.0,7779.0 7261.0,7829.0 7227.0,7865.0 C 7153.0,7942.0 7133.0,7946.0 7078.0,7893.0 L 7040.0,7856.0 L 7026.0,7891.0 C 6989.0,7978.0 6949.0,8017.0 6790.0,8116.0 C 6627.0,8217.0 6550.0,8278.0 6436.0,8398.0 C 6373.0,8464.0 6170.0,8624.0 6060.0,8695.0 C 5978.0,8747.0 5848.0,8888.0 5806.0,8970.0 C 5784.0,9011.0 5750.0,9068.0 5730.0,9095.0 C 5710.0,9123.0 5685.0,9161.0 5675.0,9180.0 C 5637.0,9255.0 5589.0,9302.0 5515.0,9335.0 C 5436.0,9371.0 5365.0,9383.0 5205.0,9384.0 C 5100.0,9385.0 5112.0,9382.0 4877.0,9468.0 C 4816.0,9490.0 4801.0,9491.0 4749.0,9483.0 C 4691.0,9474.0 4689.0,9474.0 4633.0,9512.0 C 4558.0,9562.0 4534.0,9567.0 4355.0,9575.0 C 4209.0,9582.0 4204.0,9583.0 4150.0,9615.0 C 4119.0,9634.0 4073.0,9651.0 4045.0,9655.0 C 4008.0,9660.0 3986.0,9671.0 3960.0,9695.0 C 3941.0,9713.0 3900.0,9740.0 3870.0,9755.0 C 3840.0,9770.0 3779.0,9815.0 3734.0,9855.0 L 3652.0,9928.0 L 3565.0,9941.0 C 3482.0,9953.0 3472.0,9957.0 3401.0,10010.0 C 3359.0,10041.0 3288.0,10098.0 3243.0,10136.0 C 3169.0,10199.0 3153.0,10208.0 3088.0,10223.0 C 3048.0,10233.0 2988.0,10240.0 2955.0,10240.0 C 2899.0,10240.0 2890.0,10236.0 2830.0,10192.0" fill="pink"/>
</svg>
