<?xml version="1.0" ?>
<svg xmlns="http://www.w3.org/2000/svg" xmlns:ev="http://www.w3.org/2001/xml-events" xmlns:xlink="http://www.w3.org/1999/xlink" baseProfile="full" height="498px" version="1.1" viewBox="-1027.4561421466356 27.046922455866593 12293.973844243374 10184.25469137788" width="600px">
	<defs/>
	<path d="M 9206.0,9344.0 C 9179.0,9329.0 9178.0,9326.0 9184.0,9277.0 C 9197.0,9178.0 9197.0,9177.0 9168.0,9162.0 C 9147.0,9153.0 9140.0,9141.0 9140.0,9122.0 C 9140.0,9107.0 9134.0,9085.0 9126.0,9074.0 C 9118.0,9063.0 9106.0,9017.0 9099.0,8972.0 C 9084.0,8876.0 9065.0,8849.0 9026.0,8870.0 C 8998.0,8885.0 8980.0,8875.0 8935.0,8821.0 L 8906.0,8788.0 L 8766.0,8795.0 C 8690.0,8799.0 8610.0,8808.0 8589.0,8815.0 C 8569.0,8823.0 8531.0,8832.0 8505.0,8836.0 C 8467.0,8841.0 8447.0,8853.0 8399.0,8897.0 C 8323.0,8968.0 8320.0,8995.0 8385.0,9052.0 C 8412.0,9076.0 8443.0,9118.0 8465.0,9163.0 C 8485.0,9202.0 8509.0,9244.0 8519.0,9255.0 C 8529.0,9266.0 8541.0,9285.0 8545.0,9298.0 C 8550.0,9316.0 8548.0,9320.0 8527.0,9320.0 C 8514.0,9320.0 8493.0,9308.0 8479.0,9294.0 C 8466.0,9280.0 8435.0,9257.0 8410.0,9244.0 C 8385.0,9231.0 8347.0,9207.0 8325.0,9191.0 C 8303.0,9175.0 8275.0,9159.0 8263.0,9155.0 C 8244.0,9150.0 8240.0,9153.0 8240.0,9170.0 C 8240.0,9206.0 8204.0,9246.0 8156.0,9264.0 L 8111.0,9281.0 L 8066.0,9251.0 C 8001.0,9206.0 7947.0,9197.0 7858.0,9215.0 C 7818.0,9224.0 7777.0,9233.0 7768.0,9236.0 C 7752.0,9241.0 7750.0,9234.0 7750.0,9191.0 L 7750.0,9142.0 L 7683.0,9135.0 C 7641.0,9132.0 7579.0,9115.0 7523.0,9093.0 C 7434.0,9058.0 7430.0,9056.0 7430.0,9026.0 C 7430.0,9009.0 7427.0,8985.0 7424.0,8973.0 C 7419.0,8955.0 7422.0,8950.0 7437.0,8950.0 C 7461.0,8950.0 7480.0,8931.0 7480.0,8908.0 C 7480.0,8891.0 7488.0,8890.0 7595.0,8897.0 L 7711.0,8903.0 L 7743.0,8872.0 C 7761.0,8854.0 7800.0,8832.0 7830.0,8822.0 L 7885.0,8803.0 L 7888.0,8755.0 C 7890.0,8729.0 7886.0,8695.0 7881.0,8681.0 C 7873.0,8662.0 7874.0,8633.0 7884.0,8573.0 L 7899.0,8490.0 L 7868.0,8425.0 C 7848.0,8382.0 7828.0,8355.0 7811.0,8345.0 C 7796.0,8338.0 7778.0,8324.0 7771.0,8316.0 C 7763.0,8307.0 7747.0,8300.0 7734.0,8300.0 C 7712.0,8300.0 7710.0,8296.0 7710.0,8254.0 C 7710.0,8208.0 7710.0,8208.0 7733.0,8224.0 C 7788.0,8263.0 7787.0,8264.0 7783.0,8202.0 C 7781.0,8171.0 7770.0,8106.0 7759.0,8059.0 C 7734.0,7948.0 7735.0,7936.0 7765.0,7916.0 C 7808.0,7888.0 7811.0,7869.0 7783.0,7808.0 C 7751.0,7736.0 7715.0,7718.0 7616.0,7722.0 L 7548.0,7725.0 L 7529.0,7800.0 C 7505.0,7896.0 7463.0,7939.0 7374.0,7958.0 L 7315.0,7970.0 L 7261.0,8066.0 L 7207.0,8163.0 L 7224.0,8209.0 C 7234.0,8234.0 7244.0,8289.0 7247.0,8332.0 L 7253.0,8408.0 L 7222.0,8424.0 C 7196.0,8438.0 7180.0,8438.0 7110.0,8428.0 C 7040.0,8418.0 7026.0,8413.0 7005.0,8388.0 C 6985.0,8365.0 6980.0,8347.0 6980.0,8306.0 C 6980.0,8257.0 6977.0,8251.0 6933.0,8208.0 C 6889.0,8165.0 6876.0,8159.0 6767.0,8130.0 C 6701.0,8113.0 6642.0,8101.0 6634.0,8104.0 C 6626.0,8107.0 6620.0,8124.0 6620.0,8146.0 C 6620.0,8169.0 6610.0,8199.0 6593.0,8226.0 C 6569.0,8264.0 6560.0,8270.0 6530.0,8270.0 C 6506.0,8270.0 6479.0,8259.0 6444.0,8235.0 L 6392.0,8199.0 L 6355.0,8225.0 C 6334.0,8239.0 6312.0,8250.0 6305.0,8250.0 C 6298.0,8250.0 6287.0,8257.0 6280.0,8265.0 C 6266.0,8282.0 6224.0,8285.0 6215.0,8270.0 C 6211.0,8264.0 6182.0,8246.0 6149.0,8230.0 C 6117.0,8213.0 6090.0,8196.0 6090.0,8192.0 C 6090.0,8174.0 6138.0,8140.0 6162.0,8140.0 C 6192.0,8140.0 6200.0,8125.0 6200.0,8064.0 C 6200.0,8005.0 6167.0,7955.0 6109.0,7925.0 C 6052.0,7895.0 6033.0,7905.0 6022.0,7970.0 C 6015.0,8009.0 6011.0,8015.0 5982.0,8024.0 C 5951.0,8033.0 5946.0,8030.0 5906.0,7991.0 C 5872.0,7957.0 5864.0,7944.0 5868.0,7921.0 C 5871.0,7895.0 5866.0,7889.0 5826.0,7865.0 C 5800.0,7850.0 5781.0,7833.0 5783.0,7826.0 C 5785.0,7820.0 5808.0,7813.0 5835.0,7810.0 C 5872.0,7806.0 5887.0,7799.0 5903.0,7778.0 C 5923.0,7751.0 5923.0,7750.0 5905.0,7690.0 L 5887.0,7630.0 L 5815.0,7630.0 C 5755.0,7630.0 5739.0,7626.0 5710.0,7605.0 C 5692.0,7592.0 5662.0,7576.0 5643.0,7569.0 C 5604.0,7557.0 5601.0,7538.0 5634.0,7521.0 C 5680.0,7496.0 5682.0,7470.0 5642.0,7406.0 L 5605.0,7347.0 L 5540.0,7353.0 C 5456.0,7360.0 5448.0,7364.0 5425.0,7406.0 C 5414.0,7426.0 5390.0,7453.0 5370.0,7466.0 L 5335.0,7491.0 L 5310.0,7462.0 C 5296.0,7446.0 5280.0,7425.0 5275.0,7415.0 C 5265.0,7399.0 5261.0,7400.0 5214.0,7429.0 C 5167.0,7458.0 5156.0,7460.0 5074.0,7460.0 C 5016.0,7459.0 4976.0,7454.0 4960.0,7445.0 C 4946.0,7437.0 4916.0,7431.0 4893.0,7430.0 C 4858.0,7430.0 4848.0,7435.0 4830.0,7459.0 C 4812.0,7486.0 4807.0,7488.0 4780.0,7479.0 C 4732.0,7462.0 4707.0,7347.0 4726.0,7230.0 L 4732.0,7194.0 L 4789.0,7253.0 L 4846.0,7312.0 L 4899.0,7301.0 C 4927.0,7295.0 4974.0,7290.0 5003.0,7290.0 C 5032.0,7290.0 5085.0,7283.0 5122.0,7274.0 C 5182.0,7259.0 5190.0,7255.0 5195.0,7229.0 C 5205.0,7183.0 5190.0,7121.0 5160.0,7087.0 C 5140.0,7063.0 5131.0,7040.0 5127.0,6995.0 C 5119.0,6921.0 5072.0,6775.0 5044.0,6735.0 C 5032.0,6718.0 5007.0,6649.0 4987.0,6580.0 C 4968.0,6511.0 4947.0,6443.0 4942.0,6429.0 C 4931.0,6400.0 4887.0,6380.0 4837.0,6380.0 C 4821.0,6380.0 4768.0,6362.0 4719.0,6340.0 C 4632.0,6301.0 4628.0,6300.0 4516.0,6300.0 C 4450.0,6300.0 4399.0,6304.0 4395.0,6310.0 C 4383.0,6330.0 4372.0,6319.0 4365.0,6280.0 C 4361.0,6258.0 4354.0,6238.0 4349.0,6235.0 C 4345.0,6232.0 4319.0,6241.0 4293.0,6255.0 C 4267.0,6269.0 4237.0,6280.0 4227.0,6280.0 C 4211.0,6280.0 4211.0,6278.0 4224.0,6252.0 C 4232.0,6236.0 4246.0,6218.0 4254.0,6211.0 C 4265.0,6202.0 4270.0,6180.0 4270.0,6141.0 C 4270.0,6089.0 4267.0,6083.0 4242.0,6068.0 C 4203.0,6045.0 4174.0,6055.0 4146.0,6102.0 C 4133.0,6123.0 4108.0,6151.0 4090.0,6164.0 C 4057.0,6186.0 4056.0,6188.0 4059.0,6249.0 L 4061.0,6312.0 L 4018.0,6305.0 C 3955.0,6294.0 3943.0,6285.0 3936.0,6241.0 L 3930.0,6200.0 L 3867.0,6207.0 C 3820.0,6211.0 3796.0,6220.0 3768.0,6242.0 C 3737.0,6267.0 3726.0,6270.0 3691.0,6264.0 C 3668.0,6260.0 3647.0,6253.0 3644.0,6248.0 C 3632.0,6229.0 3652.0,6187.0 3693.0,6146.0 C 3733.0,6107.0 3743.0,6102.0 3815.0,6091.0 C 3962.0,6067.0 3998.0,6011.0 4002.0,5803.0 L 4005.0,5675.0 L 3968.0,5609.0 C 3928.0,5539.0 3820.0,5428.0 3737.0,5373.0 C 3704.0,5352.0 3658.0,5334.0 3592.0,5319.0 C 3539.0,5307.0 3479.0,5289.0 3459.0,5279.0 C 3411.0,5255.0 3316.0,5240.0 3208.0,5240.0 C 3116.0,5240.0 3055.0,5257.0 2985.0,5302.0 C 2954.0,5322.0 2950.0,5330.0 2950.0,5367.0 C 2950.0,5407.0 2948.0,5410.0 2904.0,5429.0 L 2858.0,5450.0 L 2862.0,5497.0 L 2865.0,5544.0 L 2803.0,5559.0 C 2769.0,5568.0 2738.0,5578.0 2734.0,5583.0 C 2730.0,5587.0 2715.0,5590.0 2701.0,5590.0 L 2675.0,5590.0 L 2678.0,5503.0 L 2682.0,5415.0 L 2615.0,5376.0 C 2527.0,5325.0 2505.0,5284.0 2520.0,5203.0 C 2537.0,5108.0 2534.0,5094.0 2465.0,4975.0 C 2401.0,4866.0 2398.0,4862.0 2343.0,4838.0 C 2291.0,4815.0 2282.0,4814.0 2221.0,4825.0 C 2140.0,4839.0 2044.0,4888.0 1973.0,4953.0 L 1920.0,5002.0 L 1865.0,4981.0 C 1831.0,4968.0 1786.0,4960.0 1748.0,4960.0 C 1695.0,4960.0 1682.0,4956.0 1641.0,4926.0 C 1616.0,4907.0 1577.0,4868.0 1555.0,4839.0 C 1501.0,4770.0 1367.0,4670.0 1326.0,4670.0 C 1309.0,4670.0 1279.0,4667.0 1260.0,4664.0 C 1229.0,4659.0 1223.0,4661.0 1213.0,4683.0 C 1205.0,4700.0 1186.0,4713.0 1152.0,4724.0 C 1125.0,4733.0 1092.0,4752.0 1080.0,4765.0 C 1044.0,4804.0 975.0,4797.0 986.0,4756.0 C 989.0,4743.0 982.0,4693.0 970.0,4643.0 C 954.0,4572.0 943.0,4547.0 919.0,4525.0 C 903.0,4509.0 890.0,4488.0 890.0,4479.0 C 890.0,4463.0 902.0,4460.0 983.0,4458.0 C 1073.0,4455.0 1075.0,4454.0 1078.0,4430.0 C 1080.0,4416.0 1090.0,4396.0 1101.0,4384.0 C 1118.0,4366.0 1129.0,4364.0 1205.0,4368.0 C 1273.0,4372.0 1290.0,4370.0 1290.0,4359.0 C 1290.0,4351.0 1299.0,4339.0 1311.0,4332.0 C 1322.0,4325.0 1358.0,4264.0 1390.0,4197.0 L 1448.0,4075.0 L 1469.0,3872.0 C 1487.0,3700.0 1489.0,3658.0 1479.0,3587.0 C 1471.0,3532.0 1471.0,3485.0 1477.0,3445.0 C 1485.0,3391.0 1483.0,3379.0 1459.0,3320.0 C 1389.0,3148.0 1364.0,3106.0 1312.0,3067.0 L 1262.0,3029.0 L 1258.0,2942.0 C 1255.0,2859.0 1253.0,2852.0 1213.0,2794.0 C 1157.0,2713.0 1086.0,2650.0 995.0,2604.0 L 921.0,2565.0 L 869.0,2583.0 C 831.0,2597.0 804.0,2600.0 757.0,2595.0 C 723.0,2591.0 685.0,2592.0 673.0,2597.0 C 660.0,2602.0 636.0,2635.0 613.0,2680.0 C 581.0,2743.0 570.0,2756.0 545.0,2761.0 C 508.0,2768.0 480.0,2747.0 480.0,2712.0 C 480.0,2688.0 478.0,2687.0 428.0,2694.0 C 399.0,2697.0 356.0,2700.0 333.0,2700.0 C 292.0,2700.0 289.0,2702.0 265.0,2751.0 C 248.0,2783.0 241.0,2809.0 246.0,2822.0 C 253.0,2846.0 245.0,2842.0 184.0,2793.0 C 154.0,2769.0 133.0,2760.0 106.0,2760.0 C 65.0,2760.0 65.0,2759.0 85.0,2721.0 C 99.0,2694.0 97.0,2688.0 55.0,2600.0 C 3.0,2495.0 -11.0,2420.0 12.0,2374.0 C 34.0,2332.0 41.0,2270.0 29.0,2227.0 C 17.0,2182.0 32.0,2148.0 94.0,2086.0 C 117.0,2062.0 149.0,2018.0 165.0,1987.0 C 192.0,1936.0 196.0,1933.0 218.0,1941.0 C 232.0,1946.0 244.0,1949.0 245.0,1948.0 C 246.0,1946.0 257.0,1928.0 269.0,1908.0 C 289.0,1875.0 294.0,1871.0 322.0,1877.0 C 357.0,1884.0 380.0,1863.0 380.0,1824.0 C 380.0,1812.0 401.0,1760.0 426.0,1709.0 C 469.0,1622.0 473.0,1617.0 486.0,1635.0 C 494.0,1646.0 502.0,1664.0 504.0,1675.0 C 519.0,1755.0 526.0,1773.0 547.0,1781.0 C 565.0,1788.0 573.0,1783.0 590.0,1754.0 C 602.0,1736.0 617.0,1720.0 623.0,1720.0 C 629.0,1720.0 626.0,1714.0 616.0,1707.0 C 598.0,1694.0 599.0,1692.0 618.0,1653.0 C 630.0,1631.0 650.0,1606.0 664.0,1596.0 C 690.0,1580.0 690.0,1580.0 690.0,1610.0 C 690.0,1628.0 696.0,1643.0 705.0,1646.0 C 729.0,1656.0 776.0,1631.0 789.0,1603.0 C 801.0,1577.0 801.0,1577.0 816.0,1598.0 C 824.0,1609.0 846.0,1624.0 865.0,1630.0 C 884.0,1636.0 902.0,1650.0 905.0,1661.0 C 915.0,1691.0 973.0,1687.0 988.0,1656.0 C 996.0,1638.0 1014.0,1627.0 1055.0,1616.0 C 1125.0,1595.0 1169.0,1606.0 1236.0,1662.0 C 1318.0,1729.0 1340.0,1732.0 1370.0,1675.0 C 1390.0,1638.0 1428.0,1645.0 1457.0,1690.0 C 1469.0,1709.0 1505.0,1755.0 1537.0,1793.0 C 1586.0,1850.0 1599.0,1860.0 1627.0,1860.0 C 1658.0,1860.0 1660.0,1858.0 1660.0,1823.0 C 1660.0,1768.0 1672.0,1753.0 1707.0,1766.0 C 1728.0,1773.0 1737.0,1785.0 1744.0,1813.0 C 1753.0,1848.0 1756.0,1850.0 1792.0,1850.0 C 1847.0,1850.0 1890.0,1803.0 1890.0,1743.0 C 1890.0,1703.0 1892.0,1700.0 1928.0,1691.0 C 1948.0,1685.0 1981.0,1680.0 2001.0,1680.0 C 2021.0,1680.0 2052.0,1677.0 2069.0,1674.0 C 2098.0,1668.0 2100.0,1665.0 2100.0,1623.0 C 2100.0,1579.0 2101.0,1578.0 2129.0,1582.0 C 2152.0,1585.0 2161.0,1581.0 2175.0,1558.0 C 2193.0,1527.0 2204.0,1524.0 2240.0,1545.0 C 2254.0,1553.0 2283.0,1560.0 2305.0,1560.0 C 2327.0,1560.0 2356.0,1567.0 2370.0,1575.0 C 2412.0,1599.0 2462.0,1593.0 2508.0,1560.0 C 2531.0,1543.0 2550.0,1526.0 2550.0,1520.0 C 2550.0,1515.0 2564.0,1503.0 2582.0,1494.0 C 2609.0,1480.0 2621.0,1479.0 2665.0,1490.0 C 2709.0,1501.0 2721.0,1500.0 2746.0,1487.0 C 2788.0,1465.0 2800.0,1449.0 2808.0,1399.0 C 2815.0,1358.0 2819.0,1353.0 2875.0,1323.0 C 2946.0,1285.0 2954.0,1283.0 2940.0,1311.0 C 2918.0,1351.0 2934.0,1360.0 2986.0,1341.0 C 3023.0,1327.0 3041.0,1325.0 3069.0,1332.0 C 3138.0,1351.0 3239.0,1297.0 3281.0,1217.0 L 3301.0,1179.0 L 3333.0,1197.0 C 3354.0,1210.0 3367.0,1226.0 3370.0,1245.0 L 3375.0,1275.0 L 3399.0,1240.0 C 3413.0,1221.0 3425.0,1203.0 3428.0,1200.0 C 3430.0,1197.0 3437.0,1203.0 3444.0,1213.0 C 3465.0,1241.0 3567.0,1290.0 3604.0,1290.0 C 3653.0,1290.0 3660.0,1263.0 3621.0,1228.0 C 3599.0,1208.0 3590.0,1191.0 3590.0,1170.0 C 3590.0,1143.0 3596.0,1136.0 3632.0,1120.0 C 3656.0,1109.0 3694.0,1100.0 3717.0,1100.0 C 3755.0,1100.0 3762.0,1104.0 3799.0,1152.0 C 3828.0,1187.0 3837.0,1207.0 3830.0,1214.0 C 3814.0,1230.0 3818.0,1238.0 3848.0,1253.0 C 3893.0,1277.0 3948.0,1282.0 4006.0,1269.0 C 4058.0,1257.0 4073.0,1246.0 4105.0,1197.0 C 4114.0,1183.0 4124.0,1185.0 4185.0,1215.0 C 4244.0,1244.0 4258.0,1248.0 4278.0,1238.0 C 4293.0,1230.0 4300.0,1217.0 4301.0,1196.0 C 4301.0,1179.0 4307.0,1150.0 4314.0,1131.0 L 4326.0,1097.0 L 4346.0,1124.0 C 4361.0,1145.0 4378.0,1152.0 4429.0,1161.0 C 4464.0,1166.0 4502.0,1176.0 4513.0,1182.0 C 4539.0,1196.0 4593.0,1186.0 4629.0,1161.0 C 4657.0,1141.0 4657.0,1141.0 4675.0,1160.0 C 4705.0,1193.0 4734.0,1185.0 4777.0,1133.0 C 4798.0,1106.0 4821.0,1073.0 4827.0,1059.0 C 4834.0,1043.0 4857.0,1024.0 4884.0,1010.0 C 4924.0,991.0 4934.0,990.0 4967.0,1000.0 C 5024.0,1018.0 5027.0,1026.0 4994.0,1061.0 C 4970.0,1086.0 4965.0,1100.0 4965.0,1141.0 C 4965.0,1179.0 4960.0,1195.0 4946.0,1206.0 C 4932.0,1216.0 4926.0,1233.0 4925.0,1270.0 L 4923.0,1320.0 L 4957.0,1299.0 C 4986.0,1281.0 5000.0,1278.0 5048.0,1285.0 C 5079.0,1289.0 5150.0,1295.0 5205.0,1300.0 C 5260.0,1304.0 5315.0,1311.0 5328.0,1315.0 L 5350.0,1322.0 L 5325.0,1356.0 L 5300.0,1389.0 L 5326.0,1409.0 L 5352.0,1429.0 L 5385.0,1395.0 C 5419.0,1358.0 5440.0,1350.0 5440.0,1374.0 C 5440.0,1381.0 5449.0,1409.0 5461.0,1435.0 L 5482.0,1482.0 L 5461.0,1504.0 C 5439.0,1527.0 5434.0,1565.0 5450.0,1590.0 C 5456.0,1600.0 5471.0,1604.0 5496.0,1601.0 L 5532.0,1598.0 L 5525.0,1642.0 C 5521.0,1665.0 5510.0,1704.0 5499.0,1728.0 L 5481.0,1771.0 L 5503.0,1779.0 C 5525.0,1787.0 5535.0,1781.0 5636.0,1697.0 C 5666.0,1671.0 5669.0,1663.0 5672.0,1607.0 C 5674.0,1558.0 5678.0,1545.0 5693.0,1542.0 C 5708.0,1539.0 5710.0,1547.0 5710.0,1599.0 C 5710.0,1641.0 5714.0,1660.0 5723.0,1660.0 C 5798.0,1659.0 5978.0,1637.0 6006.0,1625.0 C 6051.0,1606.0 6088.0,1614.0 6120.0,1650.0 C 6152.0,1686.0 6181.0,1694.0 6206.0,1675.0 C 6225.0,1660.0 6225.0,1660.0 6205.0,1645.0 C 6186.0,1630.0 6186.0,1629.0 6210.0,1613.0 C 6224.0,1603.0 6246.0,1585.0 6259.0,1572.0 C 6276.0,1555.0 6286.0,1552.0 6293.0,1559.0 C 6322.0,1588.0 6384.0,1560.0 6405.0,1508.0 C 6420.0,1470.0 6420.0,1469.0 6394.0,1447.0 L 6368.0,1425.0 L 6389.0,1341.0 C 6415.0,1238.0 6446.0,1179.0 6485.0,1161.0 C 6534.0,1138.0 6549.0,1120.0 6556.0,1073.0 C 6559.0,1049.0 6573.0,1016.0 6586.0,1000.0 C 6604.0,980.0 6610.0,960.0 6610.0,926.0 C 6610.0,901.0 6612.0,880.0 6614.0,880.0 C 6641.0,880.0 6669.0,904.0 6675.0,932.0 C 6680.0,953.0 6699.0,979.0 6726.0,1003.0 C 6750.0,1024.0 6770.0,1048.0 6770.0,1055.0 C 6770.0,1062.0 6786.0,1080.0 6806.0,1095.0 C 6840.0,1121.0 6841.0,1122.0 6825.0,1147.0 C 6809.0,1170.0 6809.0,1175.0 6825.0,1216.0 C 6843.0,1264.0 6855.0,1266.0 6865.0,1220.0 C 6872.0,1187.0 6874.0,1185.0 6911.0,1177.0 C 6932.0,1172.0 6939.0,1175.0 6949.0,1196.0 C 6960.0,1221.0 6961.0,1221.0 6985.0,1206.0 C 7010.0,1190.0 7010.0,1190.0 7016.0,1229.0 C 7021.0,1259.0 7028.0,1270.0 7043.0,1272.0 C 7081.0,1278.0 7072.0,1300.0 7006.0,1368.0 C 6952.0,1424.0 6939.0,1445.0 6930.0,1486.0 C 6910.0,1578.0 6954.0,1625.0 6999.0,1561.0 C 7011.0,1545.0 7036.0,1522.0 7055.0,1510.0 C 7074.0,1499.0 7092.0,1480.0 7095.0,1470.0 C 7099.0,1456.0 7110.0,1450.0 7131.0,1450.0 C 7155.0,1450.0 7163.0,1456.0 7171.0,1480.0 C 7186.0,1520.0 7210.0,1519.0 7210.0,1479.0 C 7210.0,1452.0 7212.0,1449.0 7225.0,1460.0 C 7244.0,1476.0 7245.0,1564.0 7226.0,1617.0 C 7217.0,1643.0 7215.0,1662.0 7222.0,1673.0 C 7235.0,1698.0 7277.0,1694.0 7291.0,1668.0 C 7312.0,1627.0 7361.0,1570.0 7375.0,1570.0 C 7382.0,1570.0 7391.0,1583.0 7395.0,1600.0 C 7398.0,1616.0 7418.0,1646.0 7439.0,1667.0 C 7463.0,1691.0 7480.0,1719.0 7484.0,1742.0 C 7490.0,1772.0 7496.0,1781.0 7525.0,1790.0 C 7544.0,1796.0 7571.0,1815.0 7585.0,1832.0 C 7610.0,1862.0 7613.0,1862.0 7650.0,1851.0 C 7672.0,1845.0 7696.0,1830.0 7705.0,1818.0 C 7717.0,1800.0 7728.0,1796.0 7761.0,1799.0 C 7796.0,1801.0 7807.0,1797.0 7836.0,1769.0 C 7864.0,1742.0 7874.0,1738.0 7901.0,1744.0 C 7918.0,1747.0 7938.0,1757.0 7944.0,1766.0 C 7952.0,1776.0 7978.0,1784.0 8018.0,1787.0 L 8081.0,1793.0 L 8074.0,1764.0 C 8058.0,1696.0 8025.0,1625.0 7995.0,1591.0 C 7965.0,1558.0 7963.0,1551.0 7967.0,1504.0 C 7973.0,1443.0 7949.0,1359.0 7913.0,1316.0 C 7890.0,1289.0 7890.0,1287.0 7906.0,1269.0 C 7920.0,1254.0 7931.0,1251.0 7958.0,1256.0 C 7992.0,1263.0 7993.0,1262.0 7988.0,1234.0 C 7985.0,1218.0 7980.0,1197.0 7975.0,1188.0 C 7970.0,1175.0 7975.0,1167.0 7993.0,1159.0 C 8012.0,1150.0 8020.0,1137.0 8025.0,1108.0 C 8031.0,1077.0 8035.0,1070.0 8048.0,1075.0 C 8058.0,1079.0 8088.0,1086.0 8115.0,1092.0 C 8160.0,1101.0 8167.0,1106.0 8184.0,1142.0 C 8200.0,1175.0 8206.0,1181.0 8227.0,1177.0 C 8245.0,1174.0 8250.0,1176.0 8246.0,1186.0 C 8243.0,1194.0 8238.0,1206.0 8235.0,1212.0 C 8231.0,1224.0 8326.0,1290.0 8348.0,1290.0 C 8353.0,1290.0 8371.0,1275.0 8388.0,1256.0 C 8405.0,1237.0 8432.0,1214.0 8449.0,1206.0 L 8480.0,1189.0 L 8480.0,1245.0 C 8480.0,1276.0 8475.0,1310.0 8470.0,1321.0 C 8462.0,1335.0 8464.0,1348.0 8476.0,1372.0 C 8486.0,1391.0 8495.0,1438.0 8498.0,1483.0 C 8502.0,1557.0 8504.0,1561.0 8524.0,1555.0 C 8535.0,1552.0 8560.0,1547.0 8577.0,1543.0 C 8598.0,1539.0 8612.0,1530.0 8616.0,1516.0 C 8619.0,1505.0 8628.0,1488.0 8635.0,1480.0 C 8642.0,1472.0 8650.0,1456.0 8653.0,1445.0 C 8655.0,1434.0 8658.0,1449.0 8659.0,1478.0 C 8660.0,1510.0 8654.0,1540.0 8645.0,1554.0 C 8631.0,1575.0 8632.0,1580.0 8655.0,1615.0 C 8680.0,1651.0 8680.0,1653.0 8663.0,1674.0 C 8653.0,1685.0 8632.0,1707.0 8615.0,1721.0 C 8585.0,1748.0 8585.0,1749.0 8588.0,1840.0 C 8591.0,1947.0 8585.0,1961.0 8514.0,2012.0 C 8489.0,2030.0 8459.0,2062.0 8449.0,2082.0 L 8430.0,2120.0 L 8464.0,2158.0 C 8496.0,2193.0 8498.0,2198.0 8483.0,2212.0 C 8471.0,2224.0 8461.0,2226.0 8443.0,2219.0 C 8409.0,2206.0 8400.0,2215.0 8400.0,2261.0 C 8400.0,2283.0 8394.0,2311.0 8386.0,2323.0 C 8378.0,2335.0 8368.0,2376.0 8365.0,2413.0 L 8358.0,2481.0 L 8313.0,2502.0 C 8288.0,2514.0 8253.0,2538.0 8234.0,2555.0 C 8188.0,2598.0 8187.0,2649.0 8230.0,2708.0 C 8247.0,2731.0 8262.0,2750.0 8264.0,2750.0 C 8266.0,2750.0 8288.0,2739.0 8313.0,2725.0 L 8358.0,2699.0 L 8354.0,2742.0 C 8351.0,2766.0 8344.0,2808.0 8338.0,2837.0 C 8323.0,2908.0 8334.0,3035.0 8362.0,3107.0 C 8382.0,3158.0 8385.0,3189.0 8390.0,3377.0 C 8393.0,3493.0 8397.0,3590.0 8400.0,3592.0 C 8420.0,3608.0 8496.0,3621.0 8548.0,3618.0 C 8582.0,3617.0 8610.0,3618.0 8610.0,3622.0 C 8610.0,3626.0 8596.0,3645.0 8579.0,3665.0 C 8549.0,3699.0 8548.0,3704.0 8553.0,3758.0 C 8558.0,3806.0 8556.0,3822.0 8539.0,3850.0 C 8505.0,3907.0 8459.0,3949.0 8385.0,3992.0 C 8277.0,4055.0 8270.0,4063.0 8270.0,4132.0 C 8270.0,4178.0 8273.0,4190.0 8286.0,4190.0 C 8294.0,4190.0 8365.0,4208.0 8442.0,4231.0 C 8621.0,4282.0 8673.0,4289.0 8700.0,4265.0 C 8711.0,4255.0 8727.0,4223.0 8736.0,4193.0 C 8744.0,4164.0 8753.0,4140.0 8754.0,4140.0 C 8755.0,4140.0 8778.0,4147.0 8804.0,4156.0 C 8845.0,4170.0 8851.0,4176.0 8846.0,4194.0 C 8843.0,4205.0 8833.0,4245.0 8823.0,4282.0 L 8806.0,4350.0 L 8850.0,4395.0 C 8879.0,4424.0 8891.0,4443.0 8884.0,4450.0 C 8878.0,4456.0 8854.0,4441.0 8815.0,4406.0 C 8782.0,4377.0 8740.0,4345.0 8721.0,4335.0 L 8687.0,4318.0 L 8656.0,4353.0 C 8606.0,4410.0 8588.0,4415.0 8530.0,4385.0 C 8489.0,4364.0 8479.0,4362.0 8474.0,4374.0 C 8470.0,4384.0 8460.0,4386.0 8432.0,4379.0 C 8412.0,4374.0 8392.0,4370.0 8388.0,4370.0 C 8384.0,4370.0 8372.0,4391.0 8361.0,4416.0 C 8342.0,4457.0 8342.0,4464.0 8355.0,4490.0 C 8368.0,4515.0 8368.0,4523.0 8354.0,4556.0 C 8335.0,4603.0 8340.0,4673.0 8365.0,4700.0 C 8388.0,4725.0 8397.0,4725.0 8405.0,4700.0 C 8410.0,4684.0 8420.0,4680.0 8459.0,4680.0 C 8506.0,4680.0 8507.0,4679.0 8554.0,4615.0 C 8597.0,4556.0 8640.0,4517.0 8640.0,4537.0 C 8640.0,4541.0 8633.0,4570.0 8625.0,4600.0 C 8617.0,4630.0 8610.0,4656.0 8610.0,4658.0 C 8610.0,4659.0 8615.0,4660.0 8622.0,4660.0 C 8629.0,4660.0 8656.0,4639.0 8682.0,4614.0 C 8727.0,4569.0 8730.0,4567.0 8759.0,4580.0 C 8776.0,4587.0 8790.0,4597.0 8790.0,4603.0 C 8790.0,4608.0 8765.0,4649.0 8735.0,4694.0 C 8690.0,4761.0 8677.0,4792.0 8656.0,4875.0 C 8642.0,4931.0 8621.0,4997.0 8610.0,5023.0 C 8591.0,5066.0 8586.0,5070.0 8555.0,5070.0 C 8525.0,5070.0 8520.0,5073.0 8520.0,5093.0 C 8520.0,5106.0 8506.0,5129.0 8489.0,5146.0 C 8464.0,5170.0 8450.0,5175.0 8411.0,5175.0 C 8365.0,5175.0 8362.0,5177.0 8307.0,5240.0 L 8250.0,5305.0 L 8251.0,5385.0 C 8251.0,5521.0 8270.0,5598.0 8324.0,5684.0 C 8361.0,5743.0 8374.0,5776.0 8382.0,5828.0 C 8403.0,5959.0 8405.0,5964.0 8494.0,6054.0 C 8540.0,6100.0 8586.0,6141.0 8598.0,6144.0 C 8609.0,6148.0 8630.0,6168.0 8645.0,6190.0 C 8660.0,6212.0 8689.0,6242.0 8709.0,6257.0 C 8741.0,6282.0 8755.0,6286.0 8850.0,6291.0 C 8908.0,6294.0 8969.0,6302.0 8985.0,6308.0 C 9002.0,6314.0 9069.0,6331.0 9135.0,6346.0 C 9201.0,6360.0 9279.0,6380.0 9308.0,6391.0 C 9377.0,6415.0 9447.0,6415.0 9545.0,6390.0 C 9588.0,6379.0 9640.0,6370.0 9661.0,6370.0 C 9693.0,6370.0 9700.0,6374.0 9712.0,6400.0 C 9719.0,6417.0 9734.0,6433.0 9745.0,6436.0 C 9839.0,6462.0 9862.0,6498.0 9904.0,6681.0 C 9909.0,6704.0 9905.0,6709.0 9877.0,6721.0 C 9860.0,6728.0 9833.0,6742.0 9818.0,6752.0 C 9798.0,6766.0 9773.0,6770.0 9702.0,6770.0 L 9612.0,6770.0 L 9609.0,6808.0 C 9603.0,6861.0 9609.0,6890.0 9625.0,6890.0 C 9633.0,6890.0 9646.0,6905.0 9655.0,6923.0 C 9665.0,6945.0 9682.0,6960.0 9705.0,6969.0 C 9744.0,6983.0 9780.0,7023.0 9780.0,7052.0 C 9780.0,7064.0 9792.0,7076.0 9813.0,7085.0 C 9830.0,7092.0 9856.0,7110.0 9869.0,7124.0 C 9891.0,7147.0 9892.0,7155.0 9887.0,7217.0 C 9883.0,7253.0 9876.0,7288.0 9870.0,7294.0 C 9849.0,7315.0 9860.0,7352.0 9897.0,7386.0 C 9929.0,7416.0 9934.0,7426.0 9931.0,7458.0 C 9930.0,7478.0 9923.0,7504.0 9916.0,7515.0 C 9905.0,7532.0 9880.0,7616.0 9880.0,7635.0 C 9880.0,7638.0 9910.0,7637.0 9947.0,7634.0 C 10001.0,7628.0 10018.0,7622.0 10037.0,7601.0 C 10049.0,7587.0 10060.0,7563.0 10060.0,7548.0 C 10060.0,7515.0 10085.0,7510.0 10095.0,7541.0 C 10102.0,7561.0 10104.0,7561.0 10139.0,7527.0 C 10183.0,7485.0 10214.0,7472.0 10206.0,7498.0 C 10204.0,7507.0 10198.0,7526.0 10195.0,7540.0 C 10191.0,7554.0 10178.0,7575.0 10167.0,7587.0 C 10147.0,7609.0 10147.0,7614.0 10159.0,7720.0 C 10173.0,7846.0 10189.0,7911.0 10220.0,7975.0 C 10234.0,8003.0 10240.0,8031.0 10237.0,8048.0 C 10211.0,8188.0 10211.0,8192.0 10226.0,8228.0 C 10245.0,8274.0 10237.0,8312.0 10199.0,8355.0 C 10183.0,8373.0 10163.0,8407.0 10155.0,8430.0 C 10142.0,8467.0 10142.0,8476.0 10156.0,8508.0 L 10171.0,8545.0 L 10136.0,8575.0 C 10073.0,8629.0 10067.0,8693.0 10116.0,8771.0 L 10140.0,8810.0 L 10106.0,8878.0 C 10062.0,8965.0 10046.0,9024.0 10059.0,9048.0 C 10067.0,9063.0 10064.0,9072.0 10042.0,9093.0 C 10018.0,9116.0 10013.0,9117.0 9996.0,9104.0 C 9962.0,9080.0 9926.0,9086.0 9906.0,9122.0 L 9887.0,9153.0 L 9871.0,9112.0 C 9851.0,9062.0 9825.0,9041.0 9783.0,9040.0 C 9758.0,9040.0 9747.0,9033.0 9733.0,9010.0 C 9718.0,8985.0 9710.0,8980.0 9675.0,8980.0 C 9653.0,8980.0 9621.0,8988.0 9605.0,8998.0 C 9571.0,9019.0 9493.0,9045.0 9438.0,9055.0 C 9402.0,9061.0 9400.0,9063.0 9400.0,9099.0 C 9400.0,9126.0 9393.0,9143.0 9375.0,9160.0 C 9361.0,9173.0 9350.0,9188.0 9350.0,9193.0 C 9350.0,9198.0 9341.0,9215.0 9330.0,9231.0 C 9310.0,9257.0 9310.0,9261.0 9325.0,9284.0 C 9341.0,9308.0 9340.0,9309.0 9303.0,9334.0 C 9260.0,9364.0 9246.0,9365.0 9206.0,9344.0" fill="pink"/>
</svg>
