<?xml version="1.0" ?>
<svg xmlns="http://www.w3.org/2000/svg" xmlns:ev="http://www.w3.org/2001/xml-events" xmlns:xlink="http://www.w3.org/1999/xlink" baseProfile="full" height="600px" version="1.1" viewBox="1850.6812465237613 -1027.8764012012762 6540.637506952477 12295.245849925244" width="320px">
	<defs/>
	<path d="M 5725.0,10225.0 C 5709.0,10218.0 5661.0,10207.0 5619.0,10201.0 C 5483.0,10180.0 5445.0,10168.0 5442.0,10142.0 C 5439.0,10124.0 5436.0,10121.0 5425.0,10130.0 C 5408.0,10144.0 5390.0,10135.0 5390.0,10113.0 C 5390.0,10101.0 5383.0,10099.0 5360.0,10104.0 C 5336.0,10108.0 5330.0,10106.0 5330.0,10092.0 C 5330.0,10078.0 5328.0,10077.0 5321.0,10089.0 C 5313.0,10101.0 5310.0,10098.0 5304.0,10076.0 C 5299.0,10057.0 5294.0,10052.0 5287.0,10059.0 C 5271.0,10075.0 5257.0,10072.0 5264.0,10055.0 C 5267.0,10047.0 5264.0,10028.0 5258.0,10014.0 C 5241.0,9978.0 5196.0,9984.0 5192.0,10023.0 C 5189.0,10044.0 5184.0,10050.0 5163.0,10050.0 C 5147.0,10050.0 5136.0,10043.0 5133.0,10030.0 C 5130.0,10019.0 5119.0,10010.0 5109.0,10010.0 C 5086.0,10010.0 5086.0,10006.0 5107.0,9973.0 L 5124.0,9947.0 L 5094.0,9962.0 C 5057.0,9980.0 4994.0,9979.0 4998.0,9961.0 C 5000.0,9951.0 4993.0,9949.0 4975.0,9953.0 C 4957.0,9956.0 4940.0,9951.0 4923.0,9936.0 L 4899.0,9915.0 L 4922.0,9880.0 L 4946.0,9845.0 L 5074.0,9840.0 L 5203.0,9835.0 L 5233.0,9798.0 C 5269.0,9754.0 5264.0,9737.0 5227.0,9774.0 C 5199.0,9802.0 5198.0,9802.0 5095.0,9804.0 C 5057.0,9805.0 5017.0,9809.0 5008.0,9814.0 C 4974.0,9830.0 4979.0,9793.0 5019.0,9729.0 C 5041.0,9694.0 5062.0,9653.0 5065.0,9638.0 C 5071.0,9614.0 5069.0,9610.0 5052.0,9610.0 C 5037.0,9610.0 5025.0,9626.0 5004.0,9676.0 C 4972.0,9752.0 4951.0,9770.0 4893.0,9770.0 L 4851.0,9770.0 L 4869.0,9708.0 C 4879.0,9673.0 4906.0,9616.0 4929.0,9581.0 C 4965.0,9524.0 4970.0,9510.0 4970.0,9457.0 C 4970.0,9398.0 4970.0,9397.0 4950.0,9415.0 C 4939.0,9425.0 4930.0,9440.0 4930.0,9449.0 C 4930.0,9458.0 4899.0,9501.0 4862.0,9546.0 C 4825.0,9590.0 4784.0,9649.0 4771.0,9678.0 C 4748.0,9728.0 4717.0,9750.0 4672.0,9750.0 C 4656.0,9750.0 4656.0,9755.0 4676.0,9463.0 C 4681.0,9394.0 4679.0,9366.0 4670.0,9355.0 C 4658.0,9341.0 4655.0,9341.0 4639.0,9356.0 C 4628.0,9366.0 4615.0,9391.0 4609.0,9413.0 C 4599.0,9450.0 4534.0,9550.0 4511.0,9565.0 C 4505.0,9568.0 4492.0,9553.0 4480.0,9530.0 C 4469.0,9508.0 4449.0,9483.0 4435.0,9474.0 C 4416.0,9462.0 4410.0,9449.0 4410.0,9421.0 C 4409.0,9390.0 4408.0,9388.0 4398.0,9404.0 C 4384.0,9428.0 4402.0,9490.0 4430.0,9515.0 C 4442.0,9526.0 4450.0,9546.0 4450.0,9565.0 C 4450.0,9583.0 4457.0,9611.0 4465.0,9626.0 C 4483.0,9661.0 4484.0,9700.0 4468.0,9735.0 C 4457.0,9759.0 4452.0,9761.0 4421.0,9755.0 C 4401.0,9752.0 4330.0,9745.0 4263.0,9741.0 C 4195.0,9737.0 4136.0,9730.0 4130.0,9724.0 C 4123.0,9717.0 4128.0,9706.0 4145.0,9690.0 C 4164.0,9672.0 4170.0,9657.0 4169.0,9626.0 C 4169.0,9603.0 4165.0,9577.0 4161.0,9567.0 C 4155.0,9550.0 4153.0,9550.0 4141.0,9564.0 C 4133.0,9573.0 4131.0,9590.0 4134.0,9607.0 C 4139.0,9629.0 4134.0,9643.0 4112.0,9669.0 C 4088.0,9698.0 4080.0,9702.0 4053.0,9696.0 C 4009.0,9686.0 3991.0,9661.0 3980.0,9596.0 C 3975.0,9565.0 3964.0,9530.0 3956.0,9518.0 C 3947.0,9506.0 3940.0,9483.0 3940.0,9468.0 C 3940.0,9447.0 3933.0,9437.0 3914.0,9430.0 C 3892.0,9421.0 3883.0,9424.0 3852.0,9450.0 C 3832.0,9466.0 3808.0,9480.0 3800.0,9480.0 C 3791.0,9480.0 3753.0,9458.0 3714.0,9432.0 C 3676.0,9405.0 3614.0,9371.0 3576.0,9356.0 C 3538.0,9341.0 3493.0,9318.0 3476.0,9305.0 C 3459.0,9292.0 3434.0,9280.0 3420.0,9278.0 C 3398.0,9275.0 3394.0,9268.0 3386.0,9223.0 C 3379.0,9180.0 3380.0,9166.0 3394.0,9145.0 C 3403.0,9131.0 3417.0,9120.0 3424.0,9120.0 C 3432.0,9120.0 3440.0,9111.0 3443.0,9099.0 C 3447.0,9084.0 3455.0,9080.0 3477.0,9082.0 C 3501.0,9085.0 3505.0,9082.0 3505.0,9058.0 C 3506.0,9044.0 3511.0,9026.0 3518.0,9018.0 C 3528.0,9006.0 3521.0,8999.0 3479.0,8981.0 C 3433.0,8960.0 3430.0,8957.0 3444.0,8941.0 C 3453.0,8931.0 3460.0,8919.0 3460.0,8914.0 C 3460.0,8901.0 3367.0,8822.0 3319.0,8792.0 C 3272.0,8764.0 3266.0,8764.0 3174.0,8801.0 C 3104.0,8829.0 3093.0,8831.0 3057.0,8820.0 C 3035.0,8814.0 3007.0,8797.0 2995.0,8784.0 C 2975.0,8762.0 2968.0,8760.0 2949.0,8770.0 C 2915.0,8789.0 2840.0,8777.0 2819.0,8749.0 L 2802.0,8726.0 L 2783.0,8757.0 C 2746.0,8822.0 2665.0,8814.0 2590.0,8738.0 L 2557.0,8706.0 L 2564.0,8597.0 C 2572.0,8468.0 2585.0,8440.0 2636.0,8440.0 C 2679.0,8440.0 2680.0,8423.0 2638.0,8405.0 L 2605.0,8392.0 L 2635.0,8380.0 C 2701.0,8354.0 2706.0,8349.0 2663.0,8355.0 C 2639.0,8358.0 2620.0,8357.0 2620.0,8352.0 C 2620.0,8338.0 2643.0,8320.0 2662.0,8320.0 C 2672.0,8320.0 2687.0,8309.0 2696.0,8295.0 C 2716.0,8265.0 2770.0,8239.0 2820.0,8236.0 C 2844.0,8235.0 2872.0,8221.0 2908.0,8192.0 L 2961.0,8151.0 L 2933.0,8144.0 C 2918.0,8140.0 2898.0,8129.0 2889.0,8118.0 C 2874.0,8099.0 2873.0,8099.0 2820.0,8134.0 C 2768.0,8169.0 2693.0,8189.0 2670.0,8175.0 C 2662.0,8170.0 2667.0,8158.0 2686.0,8139.0 C 2701.0,8123.0 2710.0,8110.0 2706.0,8110.0 C 2687.0,8110.0 2651.0,8137.0 2605.0,8186.0 L 2555.0,8238.0 L 2501.0,8230.0 C 2417.0,8216.0 2400.0,8200.0 2400.0,8135.0 L 2400.0,8081.0 L 2440.0,8070.0 C 2468.0,8063.0 2478.0,8055.0 2474.0,8045.0 C 2470.0,8037.0 2479.0,8011.0 2493.0,7987.0 C 2513.0,7953.0 2530.0,7939.0 2565.0,7926.0 C 2590.0,7916.0 2610.0,7904.0 2610.0,7900.0 C 2610.0,7884.0 2591.0,7879.0 2572.0,7889.0 C 2545.0,7903.0 2432.0,7891.0 2425.0,7872.0 C 2422.0,7864.0 2427.0,7821.0 2437.0,7776.0 C 2454.0,7696.0 2455.0,7694.0 2523.0,7629.0 L 2592.0,7563.0 L 2585.0,7607.0 C 2578.0,7658.0 2598.0,7700.0 2630.0,7700.0 C 2647.0,7700.0 2650.0,7693.0 2650.0,7658.0 C 2651.0,7624.0 2653.0,7619.0 2661.0,7633.0 C 2666.0,7642.0 2683.0,7650.0 2697.0,7650.0 C 2717.0,7650.0 2721.0,7646.0 2715.0,7633.0 C 2704.0,7605.0 2697.0,7540.0 2704.0,7540.0 C 2708.0,7540.0 2720.0,7545.0 2731.0,7550.0 C 2748.0,7560.0 2750.0,7557.0 2750.0,7531.0 C 2750.0,7515.0 2755.0,7498.0 2760.0,7495.0 C 2766.0,7492.0 2770.0,7493.0 2770.0,7498.0 C 2770.0,7504.0 2782.0,7511.0 2796.0,7514.0 C 2810.0,7518.0 2833.0,7533.0 2847.0,7548.0 L 2873.0,7575.0 L 2866.0,7528.0 C 2862.0,7501.0 2863.0,7480.0 2867.0,7480.0 C 2885.0,7480.0 2909.0,7506.0 2912.0,7529.0 C 2914.0,7547.0 2924.0,7556.0 2945.0,7562.0 C 2984.0,7572.0 3000.0,7566.0 3000.0,7539.0 C 3000.0,7527.0 3008.0,7516.0 3018.0,7513.0 C 3027.0,7511.0 3044.0,7492.0 3055.0,7472.0 C 3071.0,7442.0 3083.0,7433.0 3120.0,7424.0 C 3158.0,7415.0 3165.0,7409.0 3171.0,7383.0 C 3178.0,7347.0 3211.0,7292.0 3240.0,7265.0 C 3252.0,7254.0 3260.0,7234.0 3260.0,7213.0 C 3260.0,7191.0 3272.0,7161.0 3295.0,7127.0 C 3339.0,7063.0 3344.0,6991.0 3308.0,6966.0 C 3289.0,6952.0 3288.0,6948.0 3300.0,6923.0 C 3307.0,6908.0 3314.0,6881.0 3315.0,6864.0 C 3317.0,6846.0 3336.0,6810.0 3359.0,6779.0 C 3406.0,6717.0 3411.0,6683.0 3379.0,6638.0 C 3360.0,6612.0 3358.0,6600.0 3364.0,6535.0 C 3371.0,6463.0 3370.0,6460.0 3345.0,6444.0 L 3319.0,6427.0 L 3340.0,6405.0 C 3366.0,6378.0 3366.0,6343.0 3340.0,6335.0 C 3301.0,6323.0 3298.0,6296.0 3330.0,6254.0 C 3365.0,6207.0 3366.0,6203.0 3340.0,6195.0 C 3322.0,6189.0 3321.0,6183.0 3326.0,6134.0 C 3332.0,6084.0 3331.0,6079.0 3306.0,6059.0 C 3291.0,6047.0 3280.0,6029.0 3280.0,6014.0 C 3280.0,5991.0 3283.0,5990.0 3315.0,5996.0 C 3355.0,6003.0 3361.0,5990.0 3328.0,5967.0 C 3309.0,5954.0 3307.0,5949.0 3316.0,5933.0 C 3324.0,5920.0 3325.0,5908.0 3318.0,5897.0 C 3310.0,5882.0 3306.0,5881.0 3280.0,5895.0 C 3246.0,5912.0 3245.0,5911.0 3234.0,5817.0 C 3228.0,5766.0 3230.0,5756.0 3249.0,5736.0 L 3271.0,5713.0 L 3246.0,5664.0 C 3233.0,5637.0 3219.0,5605.0 3215.0,5593.0 C 3209.0,5573.0 3212.0,5570.0 3240.0,5570.0 C 3257.0,5570.0 3281.0,5575.0 3293.0,5581.0 C 3308.0,5588.0 3305.0,5583.0 3285.0,5566.0 C 3211.0,5504.0 3209.0,5502.0 3221.0,5481.0 C 3238.0,5455.0 3227.0,5435.0 3183.0,5407.0 C 3145.0,5383.0 3144.0,5381.0 3145.0,5324.0 C 3145.0,5254.0 3153.0,5238.0 3184.0,5246.0 C 3201.0,5250.0 3214.0,5245.0 3228.0,5230.0 C 3241.0,5216.0 3265.0,5206.0 3294.0,5203.0 C 3346.0,5197.0 3373.0,5212.0 3368.0,5245.0 C 3363.0,5286.0 3430.0,5341.0 3483.0,5339.0 C 3495.0,5339.0 3499.0,5336.0 3493.0,5333.0 C 3486.0,5331.0 3480.0,5320.0 3480.0,5311.0 C 3480.0,5301.0 3469.0,5288.0 3455.0,5282.0 C 3429.0,5270.0 3421.0,5245.0 3443.0,5237.0 C 3449.0,5235.0 3468.0,5237.0 3483.0,5243.0 C 3503.0,5250.0 3524.0,5249.0 3552.0,5241.0 C 3599.0,5227.0 3598.0,5206.0 3549.0,5202.0 C 3515.0,5198.0 3490.0,5185.0 3490.0,5169.0 C 3490.0,5165.0 3520.0,5159.0 3558.0,5157.0 L 3625.0,5154.0 L 3553.0,5152.0 C 3509.0,5151.0 3479.0,5154.0 3474.0,5161.0 C 3463.0,5180.0 3450.0,5149.0 3450.0,5103.0 C 3450.0,5066.0 3453.0,5060.0 3471.0,5060.0 C 3483.0,5060.0 3501.0,5071.0 3512.0,5085.0 C 3523.0,5099.0 3539.0,5110.0 3547.0,5110.0 C 3560.0,5110.0 3559.0,5105.0 3541.0,5086.0 C 3495.0,5037.0 3546.0,5029.0 3603.0,5076.0 C 3634.0,5102.0 3660.0,5098.0 3660.0,5068.0 C 3660.0,5058.0 3656.0,5051.0 3651.0,5055.0 C 3646.0,5058.0 3625.0,5051.0 3605.0,5039.0 L 3568.0,5017.0 L 3605.0,5004.0 C 3642.0,4992.0 3680.0,4964.0 3680.0,4949.0 C 3680.0,4945.0 3666.0,4946.0 3649.0,4952.0 C 3602.0,4968.0 3605.0,4956.0 3660.0,4907.0 C 3692.0,4878.0 3710.0,4854.0 3710.0,4839.0 C 3710.0,4816.0 3710.0,4817.0 3681.0,4844.0 C 3665.0,4860.0 3647.0,4869.0 3641.0,4866.0 C 3622.0,4854.0 3628.0,4795.0 3650.0,4775.0 C 3671.0,4756.0 3676.0,4724.0 3661.0,4701.0 C 3645.0,4675.0 3599.0,4706.0 3508.0,4804.0 C 3428.0,4890.0 3417.0,4898.0 3361.0,4914.0 C 3328.0,4923.0 3298.0,4935.0 3295.0,4940.0 C 3284.0,4958.0 3214.0,4951.0 3196.0,4931.0 C 3180.0,4914.0 3181.0,4908.0 3214.0,4836.0 C 3249.0,4761.0 3250.0,4759.0 3313.0,4731.0 C 3384.0,4699.0 3402.0,4679.0 3425.0,4609.0 C 3437.0,4573.0 3449.0,4558.0 3475.0,4546.0 C 3493.0,4537.0 3512.0,4530.0 3517.0,4530.0 C 3522.0,4530.0 3540.0,4517.0 3558.0,4500.0 C 3576.0,4484.0 3597.0,4470.0 3603.0,4470.0 C 3609.0,4470.0 3600.0,4460.0 3582.0,4448.0 C 3552.0,4426.0 3550.0,4422.0 3552.0,4371.0 C 3555.0,4318.0 3556.0,4316.0 3589.0,4308.0 C 3620.0,4299.0 3621.0,4298.0 3606.0,4281.0 C 3597.0,4271.0 3590.0,4258.0 3590.0,4252.0 C 3590.0,4246.0 3584.0,4237.0 3577.0,4233.0 C 3544.0,4213.0 3520.0,4166.0 3520.0,4124.0 C 3520.0,4099.0 3515.0,4071.0 3508.0,4061.0 C 3499.0,4046.0 3501.0,4032.0 3518.0,3989.0 C 3538.0,3942.0 3539.0,3935.0 3525.0,3920.0 C 3513.0,3907.0 3497.0,3904.0 3452.0,3907.0 C 3366.0,3913.0 3350.0,3918.0 3350.0,3939.0 C 3350.0,3968.0 3318.0,4018.0 3297.0,4024.0 C 3286.0,4026.0 3268.0,4025.0 3257.0,4020.0 C 3245.0,4015.0 3240.0,4011.0 3247.0,4011.0 C 3253.0,4010.0 3266.0,4003.0 3275.0,3994.0 C 3295.0,3974.0 3280.0,3960.0 3238.0,3960.0 C 3223.0,3960.0 3208.0,3956.0 3205.0,3950.0 C 3202.0,3945.0 3187.0,3943.0 3172.0,3946.0 C 3157.0,3948.0 3139.0,3946.0 3131.0,3941.0 C 3119.0,3934.0 3122.0,3927.0 3143.0,3908.0 C 3164.0,3890.0 3168.0,3879.0 3163.0,3857.0 C 3158.0,3833.0 3154.0,3829.0 3134.0,3834.0 C 3114.0,3839.0 3110.0,3836.0 3110.0,3820.0 C 3110.0,3803.0 3106.0,3800.0 3089.0,3805.0 C 3068.0,3812.0 3067.0,3810.0 3072.0,3772.0 C 3078.0,3728.0 3060.0,3698.0 3020.0,3685.0 C 3007.0,3681.0 3000.0,3670.0 3000.0,3654.0 C 3000.0,3641.0 2996.0,3622.0 2991.0,3612.0 C 2986.0,3603.0 2970.0,3557.0 2955.0,3510.0 C 2940.0,3463.0 2919.0,3418.0 2909.0,3410.0 C 2890.0,3395.0 2890.0,3394.0 2909.0,3357.0 C 2920.0,3336.0 2941.0,3310.0 2957.0,3298.0 C 2972.0,3286.0 2987.0,3275.0 2989.0,3273.0 C 2992.0,3271.0 2984.0,3260.0 2972.0,3247.0 C 2942.0,3215.0 2945.0,3207.0 2980.0,3225.0 C 3019.0,3245.0 3030.0,3244.0 3030.0,3220.0 C 3030.0,3202.0 3027.0,3201.0 3010.0,3210.0 C 2969.0,3232.0 2917.0,3174.0 2876.0,3060.0 C 2852.0,2994.0 2850.0,2976.0 2855.0,2913.0 C 2860.0,2868.0 2867.0,2839.0 2875.0,2836.0 C 2889.0,2831.0 2889.0,2763.0 2875.0,2741.0 C 2868.0,2728.0 2883.0,2705.0 2918.0,2677.0 C 2930.0,2667.0 2940.0,2650.0 2940.0,2640.0 C 2940.0,2630.0 2945.0,2618.0 2950.0,2615.0 C 2956.0,2612.0 2960.0,2600.0 2960.0,2589.0 C 2960.0,2576.0 2967.0,2570.0 2981.0,2570.0 C 3001.0,2570.0 3001.0,2569.0 2987.0,2547.0 C 2961.0,2507.0 2962.0,2487.0 2990.0,2480.0 C 3018.0,2473.0 3030.0,2433.0 3008.0,2419.0 C 3001.0,2414.0 2996.0,2398.0 2998.0,2380.0 C 3001.0,2358.0 2996.0,2344.0 2983.0,2335.0 C 2968.0,2324.0 2967.0,2317.0 2976.0,2291.0 C 2986.0,2267.0 2985.0,2258.0 2974.0,2250.0 C 2953.0,2232.0 2929.0,2136.0 2936.0,2099.0 C 2940.0,2080.0 2954.0,2053.0 2968.0,2038.0 C 2990.0,2014.0 3007.0,1988.0 3026.0,1951.0 C 3030.0,1944.0 3026.0,1915.0 3017.0,1886.0 C 3001.0,1832.0 3004.0,1772.0 3025.0,1755.0 C 3031.0,1750.0 3040.0,1723.0 3044.0,1695.0 C 3059.0,1588.0 3062.0,1579.0 3086.0,1568.0 C 3101.0,1561.0 3110.0,1548.0 3110.0,1535.0 C 3110.0,1523.0 3119.0,1505.0 3130.0,1495.0 C 3144.0,1482.0 3147.0,1473.0 3140.0,1465.0 C 3132.0,1456.0 3135.0,1441.0 3147.0,1415.0 C 3165.0,1378.0 3165.0,1377.0 3143.0,1363.0 L 3121.0,1348.0 L 3146.0,1308.0 C 3160.0,1286.0 3181.0,1247.0 3192.0,1221.0 C 3202.0,1196.0 3221.0,1165.0 3232.0,1153.0 C 3249.0,1135.0 3252.0,1123.0 3247.0,1085.0 C 3241.0,1047.0 3245.0,1030.0 3266.0,990.0 C 3282.0,959.0 3289.0,933.0 3285.0,920.0 C 3281.0,906.0 3288.0,886.0 3309.0,854.0 C 3326.0,829.0 3340.0,796.0 3340.0,780.0 C 3340.0,756.0 3348.0,745.0 3380.0,725.0 C 3420.0,700.0 3437.0,667.0 3427.0,630.0 C 3423.0,614.0 3427.0,610.0 3446.0,610.0 C 3475.0,610.0 3499.0,573.0 3475.0,564.0 C 3456.0,556.0 3456.0,531.0 3476.0,502.0 C 3493.0,477.0 3527.0,473.0 3555.0,494.0 C 3569.0,504.0 3580.0,505.0 3593.0,498.0 C 3603.0,493.0 3634.0,487.0 3662.0,485.0 C 3700.0,482.0 3720.0,475.0 3740.0,455.0 C 3757.0,439.0 3784.0,426.0 3809.0,423.0 C 3844.0,418.0 3851.0,413.0 3860.0,384.0 C 3869.0,356.0 3878.0,350.0 3908.0,344.0 C 4020.0,325.0 4080.0,291.0 4030.0,275.0 C 4019.0,272.0 4010.0,266.0 4010.0,262.0 C 4011.0,247.0 4036.0,223.0 4058.0,216.0 C 4076.0,210.0 4080.0,201.0 4080.0,169.0 C 4080.0,135.0 4085.0,127.0 4119.0,105.0 C 4140.0,91.0 4173.0,78.0 4193.0,76.0 C 4236.0,72.0 4258.0,57.0 4262.0,27.0 C 4266.0,-3.0 4321.0,-8.0 4358.0,17.0 C 4373.0,27.0 4400.0,37.0 4419.0,40.0 C 4465.0,47.0 4492.0,85.0 4505.0,168.0 C 4515.0,222.0 4514.0,239.0 4503.0,255.0 C 4482.0,286.0 4487.0,295.0 4527.0,297.0 C 4570.0,299.0 4582.0,314.0 4576.0,358.0 C 4573.0,377.0 4577.0,408.0 4585.0,428.0 C 4599.0,468.0 4611.0,534.0 4614.0,590.0 C 4615.0,616.0 4620.0,626.0 4635.0,630.0 C 4649.0,634.0 4657.0,648.0 4661.0,674.0 C 4664.0,694.0 4677.0,723.0 4689.0,738.0 C 4701.0,753.0 4723.0,792.0 4738.0,825.0 L 4766.0,884.0 L 4749.0,960.0 C 4726.0,1053.0 4726.0,1064.0 4745.0,1056.0 C 4757.0,1052.0 4760.0,1061.0 4760.0,1105.0 C 4760.0,1149.0 4756.0,1162.0 4738.0,1174.0 C 4718.0,1188.0 4718.0,1190.0 4734.0,1190.0 C 4764.0,1190.0 4808.0,1222.0 4827.0,1257.0 C 4845.0,1291.0 4859.0,1300.0 4861.0,1278.0 C 4861.0,1271.0 4868.0,1279.0 4875.0,1296.0 C 4883.0,1313.0 4896.0,1332.0 4904.0,1339.0 C 4913.0,1347.0 4920.0,1357.0 4920.0,1362.0 C 4920.0,1368.0 4931.0,1385.0 4945.0,1402.0 C 4959.0,1418.0 4970.0,1438.0 4970.0,1445.0 C 4970.0,1452.0 4986.0,1477.0 5006.0,1501.0 C 5070.0,1578.0 5076.0,1599.0 5076.0,1753.0 L 5075.0,1891.0 L 5111.0,1900.0 C 5164.0,1914.0 5170.0,1953.0 5130.0,2024.0 C 5113.0,2053.0 5100.0,2088.0 5100.0,2101.0 C 5100.0,2141.0 5084.0,2157.0 5060.0,2142.0 C 5049.0,2136.0 5034.0,2130.0 5026.0,2130.0 C 5013.0,2130.0 5013.0,2134.0 5025.0,2164.0 C 5033.0,2183.0 5037.0,2206.0 5034.0,2214.0 C 5026.0,2234.0 5045.0,2234.0 5100.0,2215.0 C 5146.0,2199.0 5144.0,2198.0 5210.0,2248.0 C 5280.0,2302.0 5288.0,2338.0 5235.0,2372.0 C 5197.0,2397.0 5187.0,2426.0 5220.0,2415.0 C 5230.0,2412.0 5252.0,2416.0 5269.0,2424.0 C 5298.0,2439.0 5299.0,2439.0 5324.0,2410.0 C 5352.0,2376.0 5370.0,2388.0 5346.0,2425.0 C 5337.0,2438.0 5333.0,2456.0 5337.0,2465.0 C 5342.0,2479.0 5346.0,2477.0 5365.0,2454.0 C 5391.0,2421.0 5427.0,2419.0 5485.0,2446.0 C 5523.0,2465.0 5525.0,2467.0 5524.0,2512.0 C 5524.0,2538.0 5527.0,2557.0 5531.0,2554.0 C 5546.0,2545.0 5570.0,2609.0 5570.0,2658.0 C 5570.0,2684.0 5575.0,2711.0 5582.0,2718.0 C 5596.0,2732.0 5585.0,2746.0 5556.0,2752.0 C 5529.0,2756.0 5536.0,2776.0 5563.0,2773.0 C 5575.0,2771.0 5611.0,2767.0 5642.0,2764.0 L 5700.0,2757.0 L 5666.0,2720.0 C 5621.0,2670.0 5612.0,2652.0 5599.0,2588.0 C 5594.0,2559.0 5584.0,2523.0 5578.0,2507.0 C 5569.0,2485.0 5571.0,2476.0 5584.0,2462.0 C 5598.0,2446.0 5609.0,2445.0 5665.0,2451.0 C 5701.0,2456.0 5735.0,2462.0 5741.0,2465.0 C 5746.0,2469.0 5749.0,2488.0 5748.0,2507.0 C 5746.0,2529.0 5750.0,2545.0 5758.0,2547.0 C 5765.0,2550.0 5770.0,2543.0 5770.0,2530.0 C 5770.0,2515.0 5775.0,2510.0 5788.0,2512.0 C 5801.0,2514.0 5806.0,2529.0 5811.0,2578.0 C 5817.0,2641.0 5830.0,2674.0 5830.0,2629.0 C 5831.0,2616.0 5839.0,2589.0 5850.0,2570.0 C 5867.0,2538.0 5869.0,2537.0 5876.0,2555.0 C 5880.0,2566.0 5892.0,2581.0 5902.0,2588.0 C 5912.0,2595.0 5920.0,2612.0 5920.0,2626.0 C 5920.0,2642.0 5931.0,2661.0 5951.0,2677.0 C 5973.0,2696.0 5981.0,2710.0 5977.0,2727.0 C 5975.0,2739.0 5974.0,2750.0 5975.0,2750.0 C 5976.0,2750.0 5993.0,2743.0 6012.0,2735.0 C 6046.0,2721.0 6048.0,2722.0 6081.0,2753.0 C 6153.0,2823.0 6240.0,2971.0 6240.0,3025.0 C 6240.0,3060.0 6260.0,3097.0 6287.0,3115.0 C 6299.0,3124.0 6310.0,3139.0 6310.0,3150.0 C 6310.0,3160.0 6315.0,3172.0 6320.0,3175.0 C 6326.0,3178.0 6330.0,3217.0 6330.0,3261.0 C 6330.0,3337.0 6332.0,3343.0 6360.0,3372.0 C 6377.0,3388.0 6390.0,3405.0 6390.0,3410.0 C 6390.0,3431.0 6439.0,3470.0 6465.0,3470.0 L 6493.0,3470.0 L 6488.0,3533.0 C 6480.0,3628.0 6461.0,3680.0 6435.0,3680.0 C 6410.0,3680.0 6390.0,3700.0 6366.0,3747.0 C 6351.0,3777.0 6351.0,3779.0 6366.0,3773.0 C 6375.0,3770.0 6386.0,3773.0 6390.0,3780.0 C 6395.0,3788.0 6402.0,3781.0 6411.0,3756.0 C 6419.0,3733.0 6429.0,3721.0 6437.0,3724.0 C 6444.0,3727.0 6450.0,3723.0 6450.0,3714.0 C 6450.0,3690.0 6542.0,3606.0 6584.0,3591.0 C 6617.0,3580.0 6625.0,3580.0 6634.0,3591.0 C 6641.0,3599.0 6659.0,3604.0 6679.0,3602.0 C 6728.0,3597.0 6739.0,3613.0 6712.0,3650.0 L 6689.0,3680.0 L 6713.0,3680.0 C 6727.0,3680.0 6744.0,3671.0 6752.0,3659.0 L 6765.0,3638.0 L 6803.0,3660.0 C 6845.0,3685.0 6850.0,3697.0 6818.0,3702.0 C 6787.0,3706.0 6784.0,3728.0 6815.0,3736.0 C 6835.0,3741.0 6848.0,3737.0 6869.0,3716.0 C 6902.0,3685.0 6910.0,3683.0 6910.0,3710.0 C 6910.0,3722.0 6917.0,3730.0 6926.0,3730.0 C 6937.0,3730.0 6940.0,3735.0 6936.0,3746.0 C 6931.0,3759.0 6937.0,3761.0 6965.0,3759.0 C 6988.0,3756.0 7006.0,3762.0 7022.0,3776.0 C 7035.0,3788.0 7060.0,3805.0 7078.0,3816.0 C 7095.0,3826.0 7110.0,3840.0 7110.0,3848.0 C 7110.0,3858.0 7115.0,3858.0 7131.0,3849.0 C 7148.0,3840.0 7154.0,3842.0 7167.0,3859.0 C 7175.0,3871.0 7185.0,3880.0 7190.0,3880.0 C 7204.0,3880.0 7250.0,3926.0 7250.0,3939.0 C 7250.0,3946.0 7254.0,3949.0 7258.0,3946.0 C 7263.0,3943.0 7286.0,3959.0 7310.0,3980.0 C 7335.0,4002.0 7359.0,4020.0 7366.0,4020.0 C 7379.0,4020.0 7414.0,4057.0 7415.0,4073.0 C 7417.0,4101.0 7441.0,4140.0 7456.0,4140.0 C 7467.0,4140.0 7471.0,4146.0 7467.0,4160.0 C 7463.0,4175.0 7467.0,4180.0 7480.0,4180.0 C 7496.0,4180.0 7510.0,4198.0 7510.0,4221.0 C 7510.0,4226.0 7497.0,4230.0 7480.0,4230.0 C 7435.0,4230.0 7444.0,4248.0 7495.0,4262.0 C 7532.0,4272.0 7540.0,4278.0 7540.0,4297.0 C 7540.0,4310.0 7544.0,4320.0 7550.0,4320.0 C 7568.0,4320.0 7605.0,4364.0 7602.0,4382.0 C 7600.0,4394.0 7608.0,4403.0 7623.0,4409.0 C 7657.0,4422.0 7665.0,4438.0 7648.0,4458.0 C 7640.0,4467.0 7629.0,4482.0 7625.0,4490.0 C 7619.0,4502.0 7620.0,4503.0 7631.0,4493.0 C 7647.0,4477.0 7706.0,4476.0 7715.0,4490.0 C 7719.0,4496.0 7715.0,4512.0 7706.0,4525.0 C 7693.0,4544.0 7693.0,4549.0 7705.0,4553.0 C 7713.0,4557.0 7716.0,4567.0 7713.0,4579.0 C 7709.0,4593.0 7714.0,4602.0 7726.0,4607.0 C 7737.0,4611.0 7751.0,4622.0 7758.0,4632.0 C 7765.0,4642.0 7777.0,4650.0 7784.0,4650.0 C 7794.0,4650.0 7820.0,4702.0 7820.0,4723.0 C 7820.0,4726.0 7794.0,4717.0 7763.0,4702.0 C 7712.0,4678.0 7693.0,4675.0 7610.0,4676.0 C 7558.0,4676.0 7484.0,4684.0 7445.0,4693.0 C 7377.0,4708.0 7375.0,4708.0 7358.0,4688.0 L 7340.0,4668.0 L 7340.0,4689.0 C 7340.0,4701.0 7336.0,4710.0 7330.0,4710.0 C 7325.0,4710.0 7320.0,4706.0 7320.0,4700.0 C 7320.0,4695.0 7297.0,4673.0 7270.0,4653.0 C 7233.0,4626.0 7211.0,4616.0 7190.0,4618.0 C 7175.0,4620.0 7148.0,4614.0 7131.0,4606.0 C 7107.0,4593.0 7100.0,4582.0 7094.0,4545.0 C 7089.0,4505.0 7070.0,4471.0 7070.0,4499.0 C 7070.0,4517.0 7034.0,4511.0 7006.0,4489.0 C 6988.0,4475.0 6976.0,4471.0 6967.0,4478.0 C 6960.0,4483.0 6947.0,4489.0 6937.0,4491.0 C 6921.0,4495.0 6921.0,4497.0 6935.0,4518.0 C 6947.0,4534.0 6961.0,4540.0 6989.0,4540.0 C 7030.0,4540.0 7047.0,4550.0 7078.0,4596.0 C 7090.0,4614.0 7117.0,4635.0 7138.0,4643.0 C 7187.0,4663.0 7210.0,4688.0 7189.0,4701.0 C 7168.0,4714.0 7160.0,4713.0 7053.0,4675.0 C 6999.0,4656.0 6951.0,4639.0 6946.0,4637.0 C 6941.0,4636.0 6932.0,4644.0 6926.0,4655.0 C 6916.0,4673.0 6911.0,4674.0 6883.0,4665.0 C 6866.0,4659.0 6842.0,4646.0 6831.0,4636.0 C 6813.0,4619.0 6810.0,4619.0 6810.0,4633.0 C 6810.0,4653.0 6824.0,4666.0 6870.0,4688.0 C 6892.0,4699.0 6904.0,4712.0 6904.0,4723.0 C 6903.0,4732.0 6908.0,4740.0 6915.0,4740.0 C 6922.0,4740.0 6931.0,4759.0 6935.0,4786.0 C 6941.0,4825.0 6938.0,4836.0 6920.0,4856.0 L 6897.0,4879.0 L 6924.0,4886.0 C 6938.0,4889.0 6950.0,4897.0 6950.0,4902.0 C 6950.0,4908.0 6961.0,4905.0 6974.0,4897.0 C 6994.0,4883.0 7000.0,4883.0 7016.0,4895.0 C 7027.0,4903.0 7051.0,4910.0 7071.0,4910.0 C 7098.0,4910.0 7114.0,4918.0 7140.0,4945.0 C 7184.0,4991.0 7191.0,4982.0 7151.0,4931.0 C 7130.0,4905.0 7105.0,4886.0 7080.0,4879.0 C 7050.0,4870.0 7038.0,4859.0 7025.0,4829.0 C 7015.0,4808.0 6996.0,4781.0 6983.0,4768.0 C 6969.0,4755.0 6951.0,4732.0 6943.0,4716.0 C 6931.0,4692.0 6930.0,4686.0 6942.0,4679.0 C 6963.0,4665.0 6971.0,4668.0 7054.0,4710.0 C 7108.0,4738.0 7145.0,4750.0 7174.0,4750.0 C 7211.0,4750.0 7221.0,4756.0 7264.0,4799.0 L 7313.0,4848.0 L 7290.0,4894.0 C 7273.0,4930.0 7263.0,4940.0 7243.0,4940.0 C 7203.0,4940.0 7218.0,4972.0 7265.0,4985.0 C 7298.0,4995.0 7301.0,4997.0 7282.0,5002.0 C 7266.0,5007.0 7260.0,5016.0 7260.0,5037.0 L 7260.0,5065.0 L 7234.0,5035.0 L 7209.0,5005.0 L 7225.0,5037.0 C 7245.0,5080.0 7244.0,5103.0 7219.0,5126.0 C 7197.0,5146.0 7169.0,5147.0 7048.0,5135.0 C 6997.0,5129.0 6980.0,5131.0 6980.0,5140.0 C 6980.0,5149.0 6966.0,5151.0 6930.0,5148.0 C 6875.0,5142.0 6862.0,5154.0 6911.0,5165.0 C 6932.0,5170.0 6940.0,5176.0 6936.0,5187.0 C 6933.0,5195.0 6930.0,5203.0 6930.0,5206.0 C 6930.0,5208.0 6915.0,5216.0 6896.0,5224.0 C 6877.0,5232.0 6859.0,5247.0 6855.0,5259.0 C 6850.0,5277.0 6843.0,5279.0 6805.0,5274.0 L 6762.0,5268.0 L 6762.0,5304.0 C 6762.0,5324.0 6767.0,5340.0 6774.0,5340.0 C 6801.0,5340.0 6879.0,5305.0 6887.0,5289.0 C 6891.0,5280.0 6921.0,5249.0 6952.0,5220.0 L 7010.0,5168.0 L 7086.0,5178.0 C 7170.0,5189.0 7176.0,5188.0 7238.0,5146.0 C 7280.0,5118.0 7281.0,5117.0 7302.0,5136.0 C 7318.0,5151.0 7324.0,5152.0 7328.0,5142.0 C 7330.0,5134.0 7355.0,5099.0 7382.0,5064.0 C 7409.0,5028.0 7436.0,4984.0 7442.0,4967.0 C 7465.0,4901.0 7492.0,4872.0 7558.0,4846.0 C 7615.0,4824.0 7625.0,4823.0 7658.0,4834.0 C 7698.0,4848.0 7699.0,4852.0 7686.0,4930.0 L 7678.0,4975.0 L 7704.0,4941.0 C 7718.0,4922.0 7730.0,4901.0 7730.0,4895.0 C 7730.0,4888.0 7739.0,4875.0 7750.0,4865.0 C 7768.0,4848.0 7771.0,4849.0 7806.0,4870.0 L 7842.0,4893.0 L 7837.0,4954.0 C 7834.0,4987.0 7827.0,5016.0 7821.0,5018.0 C 7805.0,5023.0 7780.0,5074.0 7780.0,5100.0 C 7780.0,5111.0 7773.0,5123.0 7765.0,5126.0 C 7752.0,5132.0 7740.0,5164.0 7710.0,5278.0 C 7698.0,5326.0 7692.0,5329.0 7663.0,5298.0 C 7638.0,5271.0 7634.0,5254.0 7645.0,5217.0 C 7658.0,5169.0 7642.0,5176.0 7615.0,5230.0 L 7589.0,5282.0 L 7614.0,5319.0 C 7628.0,5339.0 7640.0,5361.0 7640.0,5368.0 C 7640.0,5387.0 7622.0,5382.0 7610.0,5360.0 C 7595.0,5332.0 7580.0,5335.0 7580.0,5368.0 L 7580.0,5395.0 L 7547.0,5356.0 C 7505.0,5306.0 7491.0,5322.0 7525.0,5382.0 C 7539.0,5405.0 7550.0,5437.0 7550.0,5452.0 C 7550.0,5480.0 7545.0,5483.0 7480.0,5495.0 C 7417.0,5507.0 7380.0,5521.0 7380.0,5535.0 C 7380.0,5542.0 7365.0,5551.0 7348.0,5555.0 C 7330.0,5558.0 7294.0,5568.0 7269.0,5577.0 C 7224.0,5593.0 7221.0,5592.0 7186.0,5571.0 C 7153.0,5550.0 7149.0,5550.0 7134.0,5564.0 C 7120.0,5579.0 7120.0,5580.0 7135.0,5580.0 C 7143.0,5580.0 7162.0,5587.0 7175.0,5596.0 C 7230.0,5632.0 7190.0,5717.0 7114.0,5727.0 C 7077.0,5732.0 7070.0,5729.0 7037.0,5695.0 C 7016.0,5674.0 7000.0,5652.0 6999.0,5646.0 C 6999.0,5640.0 6994.0,5648.0 6990.0,5663.0 C 6982.0,5688.0 6986.0,5696.0 7017.0,5723.0 C 7037.0,5741.0 7060.0,5759.0 7069.0,5764.0 C 7078.0,5769.0 7094.0,5781.0 7105.0,5790.0 C 7128.0,5810.0 7178.0,5821.0 7186.0,5809.0 C 7189.0,5804.0 7200.0,5804.0 7210.0,5810.0 C 7220.0,5815.0 7248.0,5820.0 7271.0,5820.0 C 7307.0,5820.0 7311.0,5818.0 7300.0,5805.0 C 7293.0,5796.0 7271.0,5790.0 7249.0,5790.0 C 7207.0,5790.0 7202.0,5784.0 7225.0,5754.0 C 7233.0,5744.0 7240.0,5721.0 7240.0,5703.0 C 7240.0,5663.0 7283.0,5634.0 7366.0,5619.0 C 7399.0,5613.0 7442.0,5597.0 7463.0,5584.0 C 7488.0,5567.0 7512.0,5560.0 7533.0,5562.0 C 7561.0,5565.0 7565.0,5569.0 7565.0,5595.0 C 7565.0,5623.0 7562.0,5625.0 7513.0,5634.0 C 7432.0,5648.0 7445.0,5680.0 7532.0,5680.0 C 7573.0,5680.0 7573.0,5680.0 7554.0,5701.0 C 7544.0,5712.0 7504.0,5736.0 7465.0,5755.0 C 7427.0,5773.0 7386.0,5795.0 7375.0,5803.0 C 7356.0,5819.0 7356.0,5819.0 7386.0,5820.0 C 7405.0,5820.0 7424.0,5812.0 7435.0,5800.0 C 7450.0,5784.0 7461.0,5781.0 7489.0,5786.0 C 7509.0,5790.0 7527.0,5794.0 7529.0,5796.0 C 7531.0,5798.0 7523.0,5814.0 7512.0,5833.0 C 7498.0,5857.0 7495.0,5872.0 7502.0,5884.0 C 7509.0,5897.0 7505.0,5902.0 7483.0,5911.0 C 7443.0,5927.0 7341.0,5908.0 7265.0,5871.0 C 7231.0,5854.0 7196.0,5840.0 7189.0,5840.0 C 7164.0,5841.0 7220.0,5876.0 7275.0,5895.0 C 7309.0,5906.0 7330.0,5920.0 7333.0,5931.0 C 7338.0,5948.0 7331.0,5950.0 7257.0,5951.0 L 7175.0,5953.0 L 7233.0,5960.0 C 7304.0,5969.0 7310.0,5974.0 7273.0,5993.0 C 7212.0,6024.0 7145.0,6022.0 7056.0,5985.0 C 7038.0,5977.0 7038.0,5978.0 7054.0,6002.0 C 7063.0,6016.0 7080.0,6030.0 7092.0,6033.0 C 7109.0,6038.0 7111.0,6042.0 7101.0,6054.0 C 7091.0,6066.0 7093.0,6069.0 7108.0,6074.0 C 7125.0,6080.0 7127.0,6087.0 7122.0,6125.0 C 7119.0,6154.0 7122.0,6175.0 7130.0,6185.0 C 7147.0,6206.0 7160.0,6188.0 7160.0,6144.0 C 7160.0,6107.0 7176.0,6092.0 7257.0,6051.0 C 7303.0,6028.0 7333.0,6020.0 7372.0,6020.0 C 7422.0,6020.0 7427.0,6022.0 7450.0,6057.0 C 7464.0,6077.0 7477.0,6102.0 7480.0,6114.0 C 7484.0,6129.0 7501.0,6138.0 7550.0,6150.0 C 7624.0,6167.0 7633.0,6182.0 7602.0,6234.0 C 7591.0,6252.0 7579.0,6281.0 7575.0,6298.0 C 7570.0,6325.0 7564.0,6329.0 7527.0,6333.0 C 7504.0,6335.0 7464.0,6346.0 7438.0,6356.0 C 7394.0,6373.0 7390.0,6373.0 7372.0,6357.0 C 7350.0,6337.0 7319.0,6334.0 7324.0,6353.0 C 7327.0,6359.0 7331.0,6377.0 7334.0,6393.0 C 7339.0,6416.0 7345.0,6420.0 7375.0,6420.0 C 7393.0,6420.0 7419.0,6416.0 7432.0,6411.0 C 7451.0,6404.0 7463.0,6410.0 7505.0,6446.0 C 7539.0,6476.0 7549.0,6490.0 7537.0,6490.0 C 7527.0,6490.0 7508.0,6502.0 7495.0,6516.0 C 7477.0,6536.0 7464.0,6541.0 7447.0,6536.0 C 7434.0,6533.0 7420.0,6533.0 7417.0,6537.0 C 7405.0,6548.0 7444.0,6569.0 7478.0,6570.0 C 7503.0,6570.0 7510.0,6566.0 7510.0,6550.0 C 7510.0,6533.0 7517.0,6530.0 7554.0,6530.0 C 7590.0,6530.0 7602.0,6535.0 7619.0,6556.0 C 7641.0,6583.0 7648.0,6650.0 7630.0,6650.0 C 7625.0,6650.0 7620.0,6655.0 7620.0,6660.0 C 7620.0,6666.0 7627.0,6670.0 7635.0,6670.0 C 7655.0,6670.0 7654.0,6699.0 7635.0,6707.0 C 7626.0,6710.0 7611.0,6705.0 7601.0,6696.0 C 7585.0,6681.0 7582.0,6681.0 7570.0,6695.0 C 7552.0,6717.0 7541.0,6714.0 7534.0,6685.0 C 7529.0,6664.0 7523.0,6661.0 7491.0,6662.0 C 7471.0,6663.0 7443.0,6660.0 7429.0,6656.0 C 7405.0,6649.0 7403.0,6650.0 7407.0,6674.0 C 7411.0,6691.0 7419.0,6700.0 7431.0,6700.0 C 7493.0,6700.0 7527.0,6760.0 7475.0,6780.0 C 7461.0,6785.0 7450.0,6794.0 7450.0,6800.0 C 7450.0,6817.0 7349.0,6812.0 7328.0,6793.0 C 7306.0,6773.0 7304.0,6787.0 7326.0,6818.0 C 7334.0,6830.0 7350.0,6840.0 7361.0,6840.0 C 7388.0,6840.0 7385.0,6852.0 7350.0,6875.0 C 7308.0,6903.0 7305.0,6919.0 7340.0,6927.0 C 7357.0,6930.0 7373.0,6937.0 7376.0,6941.0 C 7386.0,6958.0 7405.0,6949.0 7422.0,6919.0 C 7435.0,6897.0 7446.0,6889.0 7462.0,6892.0 C 7499.0,6897.0 7498.0,6956.0 7460.0,7031.0 C 7443.0,7065.0 7431.0,7099.0 7434.0,7106.0 C 7437.0,7115.0 7433.0,7120.0 7422.0,7120.0 C 7397.0,7120.0 7327.0,7218.0 7334.0,7244.0 C 7338.0,7260.0 7330.0,7273.0 7302.0,7295.0 C 7282.0,7312.0 7260.0,7324.0 7255.0,7322.0 C 7249.0,7321.0 7239.0,7340.0 7232.0,7364.0 C 7219.0,7415.0 7188.0,7449.0 7147.0,7457.0 C 7108.0,7465.0 7105.0,7480.0 7131.0,7531.0 C 7164.0,7596.0 7172.0,7600.0 7278.0,7593.0 L 7370.0,7587.0 L 7370.0,7617.0 C 7370.0,7664.0 7339.0,7742.0 7311.0,7767.0 C 7277.0,7796.0 7230.0,7798.0 7230.0,7770.0 C 7230.0,7744.0 7222.0,7745.0 7155.0,7774.0 C 7107.0,7796.0 7100.0,7802.0 7100.0,7827.0 L 7100.0,7855.0 L 7120.0,7830.0 C 7136.0,7809.0 7140.0,7808.0 7140.0,7823.0 C 7140.0,7833.0 7135.0,7851.0 7129.0,7862.0 C 7118.0,7882.0 7120.0,7883.0 7154.0,7877.0 C 7173.0,7874.0 7192.0,7876.0 7196.0,7881.0 C 7207.0,7900.0 7189.0,7941.0 7165.0,7952.0 C 7151.0,7958.0 7140.0,7968.0 7140.0,7974.0 C 7139.0,7994.0 7063.0,8021.0 7018.0,8018.0 L 6975.0,8015.0 L 6972.0,7933.0 C 6970.0,7868.0 6966.0,7850.0 6955.0,7850.0 C 6943.0,7850.0 6940.0,7866.0 6939.0,7918.0 C 6937.0,8022.0 6940.0,8033.0 6973.0,8068.0 L 7004.0,8100.0 L 6976.0,8100.0 C 6961.0,8100.0 6941.0,8096.0 6931.0,8090.0 C 6914.0,8081.0 6912.0,8088.0 6907.0,8178.0 C 6903.0,8231.0 6898.0,8286.0 6895.0,8300.0 C 6892.0,8314.0 6894.0,8332.0 6899.0,8340.0 C 6907.0,8352.0 6914.0,8352.0 6943.0,8342.0 C 7013.0,8317.0 7052.0,8365.0 7015.0,8430.0 C 7007.0,8444.0 7001.0,8469.0 7000.0,8487.0 C 7000.0,8504.0 6997.0,8526.0 6994.0,8534.0 C 6988.0,8549.0 6986.0,8549.0 6974.0,8533.0 C 6962.0,8517.0 6961.0,8519.0 6960.0,8552.0 C 6960.0,8583.0 6953.0,8594.0 6922.0,8620.0 C 6886.0,8648.0 6883.0,8655.0 6882.0,8705.0 C 6881.0,8758.0 6881.0,8759.0 6918.0,8777.0 C 6955.0,8795.0 6955.0,8796.0 6964.0,8873.0 C 6974.0,8968.0 6967.0,8980.0 6919.0,8945.0 C 6900.0,8932.0 6875.0,8916.0 6864.0,8911.0 C 6822.0,8892.0 6800.0,8851.0 6800.0,8794.0 C 6800.0,8764.0 6796.0,8740.0 6791.0,8740.0 C 6779.0,8740.0 6768.0,8831.0 6772.0,8899.0 L 6775.0,8954.0 L 6820.0,8955.0 C 6875.0,8956.0 6967.0,9001.0 6980.0,9033.0 C 6989.0,9056.0 7004.0,9109.0 7004.0,9124.0 C 7005.0,9129.0 6985.0,9139.0 6961.0,9146.0 C 6924.0,9157.0 6912.0,9157.0 6889.0,9144.0 C 6874.0,9137.0 6858.0,9126.0 6855.0,9120.0 C 6852.0,9115.0 6834.0,9110.0 6817.0,9111.0 C 6790.0,9111.0 6788.0,9113.0 6805.0,9120.0 C 6817.0,9124.0 6838.0,9146.0 6853.0,9169.0 C 6877.0,9205.0 6885.0,9210.0 6919.0,9210.0 C 6956.0,9210.0 6990.0,9233.0 6990.0,9258.0 C 6990.0,9264.0 6998.0,9271.0 7008.0,9274.0 C 7017.0,9277.0 7031.0,9289.0 7037.0,9299.0 C 7048.0,9316.0 7045.0,9323.0 7020.0,9350.0 C 6995.0,9377.0 6992.0,9385.0 7002.0,9403.0 C 7008.0,9415.0 7021.0,9431.0 7031.0,9440.0 C 7041.0,9448.0 7061.0,9495.0 7076.0,9545.0 L 7101.0,9635.0 L 7075.0,9657.0 C 7061.0,9670.0 7037.0,9682.0 7022.0,9685.0 C 7007.0,9688.0 6976.0,9695.0 6952.0,9700.0 C 6872.0,9719.0 6845.0,9708.0 6810.0,9642.0 C 6800.0,9621.0 6796.0,9620.0 6782.0,9633.0 C 6745.0,9664.0 6734.0,9666.0 6753.0,9637.0 C 6774.0,9605.0 6774.0,9600.0 6755.0,9600.0 C 6744.0,9600.0 6741.0,9588.0 6743.0,9548.0 C 6745.0,9490.0 6750.0,9495.0 6674.0,9491.0 C 6661.0,9490.0 6648.0,9478.0 6638.0,9458.0 L 6623.0,9425.0 L 6606.0,9482.0 C 6592.0,9532.0 6570.0,9560.0 6546.0,9560.0 C 6543.0,9560.0 6541.0,9521.0 6542.0,9473.0 C 6543.0,9382.0 6514.0,9239.0 6484.0,9193.0 C 6476.0,9181.0 6470.0,9147.0 6470.0,9117.0 C 6470.0,9080.0 6465.0,9058.0 6454.0,9049.0 C 6441.0,9038.0 6440.0,9040.0 6445.0,9066.0 C 6449.0,9082.0 6453.0,9101.0 6456.0,9108.0 C 6458.0,9115.0 6456.0,9130.0 6451.0,9143.0 C 6446.0,9157.0 6446.0,9173.0 6452.0,9183.0 C 6468.0,9213.0 6492.0,9403.0 6486.0,9455.0 C 6479.0,9509.0 6433.0,9657.0 6421.0,9665.0 C 6417.0,9667.0 6391.0,9661.0 6364.0,9651.0 C 6311.0,9630.0 6311.0,9630.0 6321.0,9535.0 C 6325.0,9496.0 6322.0,9493.0 6255.0,9430.0 C 6194.0,9373.0 6185.0,9368.0 6182.0,9386.0 C 6180.0,9398.0 6193.0,9428.0 6209.0,9453.0 C 6233.0,9487.0 6240.0,9509.0 6240.0,9544.0 L 6240.0,9590.0 L 6153.0,9584.0 C 6077.0,9579.0 6055.0,9573.0 5998.0,9541.0 C 5900.0,9489.0 5820.0,9428.0 5814.0,9403.0 C 5806.0,9373.0 5770.0,9372.0 5770.0,9401.0 C 5770.0,9438.0 5809.0,9488.0 5881.0,9546.0 C 5968.0,9615.0 6021.0,9640.0 6086.0,9640.0 C 6162.0,9640.0 6225.0,9663.0 6274.0,9708.0 C 6298.0,9730.0 6332.0,9751.0 6349.0,9755.0 C 6378.0,9761.0 6381.0,9765.0 6379.0,9793.0 C 6377.0,9815.0 6385.0,9838.0 6403.0,9865.0 C 6418.0,9887.0 6430.0,9908.0 6430.0,9911.0 C 6430.0,9920.0 6323.0,10000.0 6311.0,10000.0 C 6306.0,10000.0 6300.0,9996.0 6298.0,9991.0 C 6294.0,9978.0 6208.0,10001.0 6194.0,10019.0 C 6185.0,10030.0 6178.0,10025.0 6156.0,9989.0 L 6128.0,9945.0 L 6135.0,9992.0 C 6140.0,10033.0 6128.0,10082.0 6104.0,10109.0 C 6103.0,10111.0 6087.0,10096.0 6070.0,10076.0 L 6038.0,10040.0 L 5951.0,10040.0 C 5853.0,10040.0 5794.0,10019.0 5771.0,9978.0 C 5759.0,9954.0 5729.0,9940.0 5655.0,9925.0 L 5625.0,9918.0 L 5648.0,9942.0 C 5660.0,9956.0 5670.0,9972.0 5670.0,9978.0 C 5670.0,9987.0 5674.0,9987.0 5689.0,9978.0 C 5705.0,9968.0 5714.0,9972.0 5747.0,9998.0 C 5797.0,10037.0 5830.0,10050.0 5880.0,10050.0 C 5911.0,10050.0 5930.0,10059.0 5972.0,10093.0 C 6035.0,10145.0 6048.0,10184.0 6005.0,10200.0 C 5991.0,10205.0 5937.0,10210.0 5886.0,10210.0 C 5815.0,10210.0 5789.0,10214.0 5780.0,10225.0 C 5765.0,10243.0 5764.0,10243.0 5725.0,10225.0" fill="pink"/>
	<path d="M 4506.0,9698.0 C 4484.0,9668.0 4486.0,9647.0 4511.0,9624.0 C 4523.0,9614.0 4538.0,9593.0 4546.0,9578.0 C 4554.0,9562.0 4565.0,9550.0 4570.0,9550.0 C 4584.0,9550.0 4582.0,9597.0 4568.0,9623.0 C 4562.0,9635.0 4554.0,9660.0 4551.0,9679.0 C 4544.0,9721.0 4527.0,9728.0 4506.0,9698.0" fill="pink"/>
	<path d="M 3127.0,4757.0 L 3089.0,4748.0 L 3096.0,4701.0 C 3100.0,4675.0 3113.0,4642.0 3127.0,4626.0 C 3157.0,4590.0 3151.0,4584.0 3110.0,4605.0 C 3093.0,4614.0 3072.0,4619.0 3065.0,4616.0 C 3046.0,4609.0 3042.0,4569.0 3058.0,4537.0 C 3071.0,4510.0 3070.0,4509.0 3051.0,4520.0 C 3033.0,4529.0 3030.0,4528.0 3030.0,4508.0 C 3030.0,4475.0 3054.0,4445.0 3090.0,4430.0 C 3107.0,4423.0 3128.0,4403.0 3137.0,4386.0 C 3152.0,4357.0 3152.0,4356.0 3136.0,4369.0 C 3123.0,4380.0 3116.0,4380.0 3107.0,4371.0 C 3087.0,4351.0 3123.0,4307.0 3172.0,4292.0 C 3241.0,4271.0 3375.0,4297.0 3426.0,4342.0 C 3477.0,4387.0 3472.0,4455.0 3414.0,4490.0 C 3377.0,4514.0 3340.0,4567.0 3340.0,4598.0 C 3340.0,4623.0 3284.0,4690.0 3264.0,4690.0 C 3257.0,4690.0 3246.0,4698.0 3241.0,4709.0 C 3235.0,4719.0 3216.0,4736.0 3198.0,4747.0 C 3171.0,4762.0 3158.0,4764.0 3127.0,4757.0" fill="pink"/>
</svg>
