<?xml version="1.0" ?>
<svg xmlns="http://www.w3.org/2000/svg" xmlns:ev="http://www.w3.org/2001/xml-events" xmlns:xlink="http://www.w3.org/1999/xlink" baseProfile="full" height="493px" version="1.1" viewBox="-1029.3210000000001 73.779 12300.642 10091.442" width="600px">
	<defs/>
	<path d="M 2057.0,9263.0 C 2060.0,9227.0 2079.0,9167.0 2106.0,9105.0 L 2149.0,9006.0 L 2126.0,8985.0 C 2107.0,8968.0 2102.0,8949.0 2096.0,8882.0 C 2089.0,8802.0 2088.0,8800.0 2048.0,8765.0 C 2020.0,8741.0 1996.0,8730.0 1975.0,8730.0 C 1958.0,8730.0 1939.0,8725.0 1932.0,8718.0 C 1923.0,8709.0 1920.0,8712.0 1920.0,8733.0 C 1920.0,8759.0 1918.0,8760.0 1870.0,8760.0 C 1823.0,8760.0 1820.0,8758.0 1820.0,8735.0 C 1820.0,8712.0 1816.0,8710.0 1775.0,8710.0 C 1750.0,8710.0 1730.0,8707.0 1730.0,8703.0 C 1730.0,8698.0 1719.0,8682.0 1705.0,8666.0 C 1691.0,8650.0 1680.0,8629.0 1680.0,8619.0 C 1680.0,8610.0 1677.0,8595.0 1674.0,8586.0 C 1669.0,8574.0 1679.0,8569.0 1721.0,8564.0 C 1766.0,8558.0 1774.0,8553.0 1784.0,8529.0 C 1793.0,8504.0 1800.0,8500.0 1832.0,8500.0 C 1868.0,8500.0 1870.0,8498.0 1870.0,8468.0 C 1870.0,8439.0 1878.0,8430.0 1940.0,8387.0 L 2010.0,8339.0 L 2010.0,8211.0 C 2010.0,8141.0 2013.0,8050.0 2016.0,8009.0 L 2023.0,7934.0 L 1964.0,7916.0 C 1931.0,7906.0 1900.0,7895.0 1893.0,7893.0 C 1887.0,7891.0 1879.0,7898.0 1875.0,7909.0 C 1871.0,7923.0 1860.0,7930.0 1845.0,7930.0 C 1830.0,7930.0 1819.0,7937.0 1815.0,7950.0 C 1803.0,7989.0 1786.0,7972.0 1757.0,7888.0 C 1751.0,7872.0 1748.0,7872.0 1716.0,7885.0 C 1687.0,7897.0 1680.0,7897.0 1671.0,7886.0 C 1654.0,7866.0 1579.0,7860.0 1559.0,7877.0 C 1545.0,7889.0 1536.0,7888.0 1496.0,7868.0 L 1449.0,7845.0 L 1430.0,7870.0 C 1416.0,7889.0 1401.0,7895.0 1368.0,7897.0 C 1344.0,7898.0 1298.0,7902.0 1265.0,7905.0 L 1205.0,7912.0 L 1165.0,7855.0 C 1126.0,7799.0 1121.0,7795.0 982.0,7733.0 L 839.0,7668.0 L 754.0,7680.0 C 670.0,7692.0 669.0,7692.0 632.0,7666.0 C 554.0,7612.0 534.0,7583.0 426.0,7370.0 C 366.0,7252.0 305.0,7141.0 291.0,7124.0 C 277.0,7107.0 241.0,7059.0 213.0,7017.0 C 175.0,6962.0 148.0,6934.0 118.0,6919.0 C 28.0,6873.0 0.0,6849.0 0.0,6818.0 C 0.0,6780.0 14.0,6754.0 58.0,6708.0 C 87.0,6677.0 101.0,6670.0 132.0,6670.0 C 159.0,6670.0 172.0,6675.0 180.0,6690.0 C 190.0,6708.0 188.0,6710.0 160.0,6710.0 C 137.0,6710.0 130.0,6714.0 130.0,6729.0 C 130.0,6740.0 135.0,6752.0 140.0,6755.0 C 146.0,6758.0 150.0,6770.0 150.0,6781.0 C 150.0,6793.0 155.0,6800.0 163.0,6797.0 C 169.0,6795.0 190.0,6806.0 208.0,6823.0 C 243.0,6857.0 253.0,6843.0 223.0,6800.0 C 186.0,6748.0 211.0,6689.0 253.0,6728.0 C 283.0,6757.0 282.0,6836.0 250.0,6880.0 C 236.0,6900.0 231.0,6917.0 236.0,6928.0 C 240.0,6937.0 251.0,6968.0 261.0,6995.0 L 278.0,7045.0 L 279.0,6994.0 C 280.0,6947.0 282.0,6942.0 305.0,6938.0 C 338.0,6931.0 394.0,6960.0 398.0,6985.0 C 405.0,7032.0 412.0,7035.0 427.0,6998.0 C 447.0,6947.0 473.0,6948.0 522.0,7002.0 C 559.0,7043.0 570.0,7070.0 550.0,7070.0 C 545.0,7070.0 540.0,7083.0 540.0,7098.0 L 540.0,7127.0 L 585.0,7084.0 C 614.0,7056.0 628.0,7035.0 624.0,7025.0 C 621.0,7017.0 614.0,7010.0 610.0,7010.0 C 605.0,7010.0 578.0,6990.0 549.0,6965.0 C 520.0,6941.0 481.0,6915.0 461.0,6909.0 C 441.0,6903.0 409.0,6887.0 389.0,6873.0 C 358.0,6853.0 352.0,6842.0 347.0,6802.0 C 339.0,6728.0 374.0,6705.0 416.0,6758.0 L 439.0,6785.0 L 428.0,6740.0 C 422.0,6715.0 403.0,6678.0 387.0,6658.0 C 362.0,6627.0 359.0,6616.0 364.0,6586.0 C 369.0,6559.0 376.0,6550.0 390.0,6550.0 C 401.0,6550.0 410.0,6556.0 410.0,6563.0 C 410.0,6583.0 460.0,6626.0 503.0,6644.0 C 523.0,6652.0 540.0,6656.0 540.0,6653.0 C 540.0,6650.0 522.0,6631.0 500.0,6611.0 C 461.0,6576.0 460.0,6573.0 471.0,6542.0 C 480.0,6515.0 479.0,6506.0 466.0,6491.0 C 446.0,6469.0 445.0,6441.0 466.0,6433.0 C 491.0,6424.0 545.0,6485.0 617.0,6603.0 C 659.0,6671.0 689.0,6710.0 700.0,6710.0 C 709.0,6710.0 725.0,6719.0 735.0,6730.0 C 745.0,6741.0 766.0,6750.0 783.0,6750.0 L 813.0,6750.0 L 775.0,6720.0 C 754.0,6704.0 729.0,6690.0 719.0,6690.0 C 698.0,6690.0 685.0,6667.0 635.0,6547.0 C 616.0,6503.0 588.0,6454.0 574.0,6439.0 C 548.0,6412.0 548.0,6410.0 564.0,6385.0 C 584.0,6354.0 579.0,6343.0 537.0,6332.0 C 505.0,6324.0 505.0,6324.0 502.0,6252.0 L 499.0,6180.0 L 546.0,6180.0 C 579.0,6180.0 600.0,6186.0 614.0,6199.0 C 626.0,6210.0 648.0,6222.0 663.0,6225.0 L 691.0,6232.0 L 671.0,6194.0 C 661.0,6172.0 649.0,6138.0 646.0,6118.0 C 640.0,6085.0 642.0,6079.0 675.0,6054.0 C 729.0,6013.0 740.0,5985.0 737.0,5892.0 C 736.0,5848.0 738.0,5809.0 742.0,5805.0 C 746.0,5801.0 761.0,5805.0 775.0,5814.0 C 815.0,5840.0 871.0,5826.0 940.0,5770.0 C 982.0,5737.0 1006.0,5724.0 1020.0,5727.0 C 1043.0,5733.0 1045.0,5727.0 1030.0,5699.0 C 1014.0,5670.0 1034.0,5640.0 1070.0,5640.0 C 1086.0,5640.0 1102.0,5645.0 1105.0,5650.0 C 1108.0,5656.0 1121.0,5660.0 1132.0,5660.0 C 1152.0,5660.0 1152.0,5659.0 1136.0,5642.0 C 1121.0,5624.0 1121.0,5621.0 1143.0,5589.0 C 1160.0,5564.0 1174.0,5554.0 1199.0,5552.0 C 1245.0,5547.0 1270.0,5572.0 1270.0,5624.0 C 1270.0,5663.0 1272.0,5666.0 1317.0,5688.0 L 1365.0,5711.0 L 1339.0,5683.0 C 1317.0,5660.0 1311.0,5642.0 1307.0,5587.0 C 1305.0,5549.0 1305.0,5510.0 1307.0,5499.0 C 1311.0,5487.0 1339.0,5465.0 1379.0,5445.0 C 1469.0,5399.0 1539.0,5328.0 1575.0,5249.0 C 1610.0,5169.0 1608.0,5171.0 1628.0,5198.0 C 1638.0,5211.0 1667.0,5225.0 1698.0,5234.0 C 1738.0,5244.0 1759.0,5257.0 1781.0,5283.0 C 1806.0,5314.0 1851.0,5339.0 1850.0,5322.0 C 1849.0,5318.0 1837.0,5297.0 1822.0,5276.0 C 1804.0,5249.0 1773.0,5225.0 1725.0,5201.0 C 1687.0,5181.0 1663.0,5164.0 1671.0,5162.0 C 1680.0,5160.0 1695.0,5141.0 1703.0,5118.0 C 1719.0,5078.0 1720.0,5077.0 1761.0,5084.0 C 1783.0,5088.0 1816.0,5098.0 1832.0,5106.0 C 1869.0,5125.0 1884.0,5120.0 1903.0,5080.0 C 1918.0,5050.0 1918.0,5049.0 1894.0,5040.0 C 1873.0,5032.0 1870.0,5024.0 1870.0,4978.0 C 1870.0,4913.0 1855.0,4888.0 1762.0,4791.0 C 1722.0,4750.0 1692.0,4715.0 1694.0,4713.0 C 1701.0,4706.0 1755.0,4734.0 1781.0,4758.0 C 1799.0,4774.0 1827.0,4784.0 1866.0,4790.0 C 1899.0,4794.0 1928.0,4796.0 1931.0,4794.0 C 1934.0,4792.0 1935.0,4777.0 1932.0,4760.0 C 1926.0,4719.0 1952.0,4680.0 1981.0,4687.0 C 2000.0,4692.0 2001.0,4690.0 1992.0,4675.0 C 1985.0,4662.0 1986.0,4645.0 1996.0,4617.0 C 2016.0,4562.0 2027.0,4550.0 2064.0,4550.0 C 2099.0,4550.0 2121.0,4564.0 2138.0,4595.0 C 2148.0,4613.0 2149.0,4612.0 2150.0,4584.0 C 2150.0,4565.0 2142.0,4546.0 2130.0,4535.0 C 2114.0,4521.0 2110.0,4504.0 2110.0,4459.0 C 2110.0,4407.0 2113.0,4399.0 2138.0,4382.0 C 2163.0,4364.0 2168.0,4363.0 2193.0,4376.0 C 2213.0,4387.0 2220.0,4398.0 2220.0,4420.0 C 2220.0,4446.0 2227.0,4453.0 2273.0,4475.0 L 2325.0,4501.0 L 2287.0,4468.0 L 2249.0,4434.0 L 2252.0,4310.0 C 2255.0,4201.0 2257.0,4185.0 2272.0,4182.0 C 2284.0,4180.0 2293.0,4188.0 2300.0,4205.0 C 2318.0,4253.0 2393.0,4330.0 2420.0,4329.0 C 2444.0,4329.0 2444.0,4329.0 2423.0,4320.0 C 2396.0,4309.0 2372.0,4274.0 2364.0,4232.0 C 2358.0,4202.0 2359.0,4200.0 2386.0,4200.0 C 2412.0,4200.0 2410.0,4197.0 2361.0,4170.0 C 2331.0,4154.0 2288.0,4121.0 2265.0,4098.0 C 2224.0,4057.0 2223.0,4054.0 2236.0,4028.0 C 2244.0,4012.0 2252.0,4000.0 2255.0,4000.0 C 2257.0,4000.0 2295.0,4013.0 2339.0,4030.0 L 2419.0,4059.0 L 2440.0,4030.0 C 2458.0,4004.0 2468.0,4000.0 2506.0,4000.0 C 2537.0,4000.0 2562.0,4008.0 2589.0,4025.0 C 2639.0,4058.0 2722.0,4177.0 2714.0,4205.0 C 2711.0,4219.0 2720.0,4240.0 2742.0,4268.0 L 2775.0,4311.0 L 2850.0,4314.0 L 2925.0,4317.0 L 2968.0,4366.0 C 2992.0,4393.0 3018.0,4430.0 3025.0,4448.0 C 3034.0,4469.0 3046.0,4480.0 3059.0,4480.0 C 3096.0,4480.0 3190.0,4610.0 3190.0,4661.0 C 3190.0,4679.0 3208.0,4707.0 3245.0,4749.0 C 3275.0,4783.0 3300.0,4820.0 3300.0,4830.0 C 3300.0,4841.0 3316.0,4867.0 3335.0,4889.0 C 3354.0,4910.0 3389.0,4968.0 3411.0,5016.0 C 3434.0,5065.0 3453.0,5106.0 3455.0,5108.0 C 3459.0,5113.0 3804.0,5210.0 3817.0,5210.0 C 3823.0,5210.0 3831.0,5201.0 3835.0,5191.0 C 3839.0,5178.0 3866.0,5163.0 3914.0,5145.0 L 3987.0,5118.0 L 4126.0,5156.0 C 4202.0,5177.0 4270.0,5197.0 4276.0,5202.0 C 4283.0,5207.0 4291.0,5226.0 4294.0,5245.0 C 4298.0,5264.0 4304.0,5281.0 4308.0,5283.0 C 4312.0,5285.0 4515.0,5281.0 4760.0,5274.0 C 5005.0,5267.0 5229.0,5261.0 5258.0,5261.0 C 5310.0,5260.0 5311.0,5260.0 5329.0,5217.0 C 5339.0,5193.0 5351.0,5156.0 5354.0,5134.0 C 5360.0,5098.0 5366.0,5091.0 5413.0,5068.0 C 5460.0,5045.0 5472.0,5031.0 5528.0,4943.0 C 5562.0,4888.0 5597.0,4823.0 5606.0,4798.0 C 5617.0,4764.0 5629.0,4749.0 5651.0,4740.0 C 5683.0,4726.0 5700.0,4703.0 5700.0,4671.0 C 5700.0,4660.0 5709.0,4646.0 5720.0,4640.0 C 5735.0,4632.0 5740.0,4619.0 5740.0,4585.0 C 5740.0,4543.0 5742.0,4540.0 5772.0,4532.0 C 5802.0,4524.0 5804.0,4521.0 5802.0,4484.0 C 5799.0,4437.0 5849.0,4319.0 5877.0,4309.0 C 5887.0,4305.0 5906.0,4301.0 5920.0,4300.0 C 5936.0,4300.0 5966.0,4280.0 6001.0,4247.0 L 6056.0,4195.0 L 6052.0,4123.0 L 6048.0,4051.0 L 6004.0,4034.0 C 5979.0,4025.0 5957.0,4013.0 5954.0,4009.0 C 5951.0,4004.0 5943.0,3966.0 5936.0,3924.0 C 5921.0,3840.0 5918.0,3845.0 5995.0,3835.0 C 6023.0,3831.0 6066.0,3816.0 6092.0,3802.0 L 6140.0,3775.0 L 6140.0,3603.0 L 6140.0,3432.0 L 6166.0,3423.0 C 6188.0,3416.0 6198.0,3399.0 6226.0,3321.0 C 6245.0,3270.0 6257.0,3223.0 6252.0,3216.0 C 6207.0,3143.0 6171.0,3110.0 6103.0,3080.0 C 6032.0,3048.0 6031.0,3048.0 6021.0,2999.0 C 6015.0,2971.0 6010.0,2942.0 6010.0,2933.0 C 6010.0,2924.0 5993.0,2890.0 5971.0,2856.0 C 5892.0,2731.0 5879.0,2693.0 5931.0,2737.0 C 5946.0,2749.0 5956.0,2749.0 6008.0,2736.0 C 6123.0,2706.0 6129.0,2708.0 6245.0,2817.0 C 6374.0,2938.0 6416.0,2957.0 6497.0,2929.0 C 6548.0,2912.0 6552.0,2912.0 6620.0,2931.0 C 6689.0,2950.0 6800.0,2957.0 6800.0,2943.0 C 6801.0,2938.0 6814.0,2920.0 6830.0,2901.0 L 6859.0,2867.0 L 6924.0,2885.0 C 6963.0,2896.0 7007.0,2901.0 7034.0,2898.0 C 7077.0,2893.0 7080.0,2894.0 7136.0,2951.0 L 7193.0,3008.0 L 7226.0,2993.0 C 7255.0,2979.0 7260.0,2969.0 7276.0,2906.0 C 7285.0,2867.0 7297.0,2827.0 7302.0,2818.0 C 7314.0,2794.0 7347.0,2795.0 7362.0,2820.0 C 7369.0,2831.0 7383.0,2840.0 7392.0,2840.0 C 7408.0,2840.0 7408.0,2836.0 7396.0,2795.0 L 7382.0,2751.0 L 7415.0,2764.0 C 7447.0,2778.0 7448.0,2777.0 7464.0,2744.0 C 7475.0,2721.0 7486.0,2710.0 7498.0,2712.0 C 7513.0,2715.0 7515.0,2703.0 7518.0,2603.0 L 7521.0,2490.0 L 7561.0,2458.0 C 7601.0,2426.0 7602.0,2424.0 7595.0,2376.0 C 7592.0,2349.0 7586.0,2315.0 7583.0,2299.0 C 7579.0,2276.0 7583.0,2269.0 7611.0,2255.0 C 7630.0,2245.0 7646.0,2237.0 7648.0,2235.0 C 7649.0,2234.0 7643.0,2211.0 7635.0,2184.0 C 7624.0,2148.0 7622.0,2109.0 7627.0,2033.0 C 7632.0,1943.0 7636.0,1928.0 7656.0,1909.0 C 7678.0,1889.0 7680.0,1878.0 7680.0,1801.0 C 7680.0,1753.0 7689.0,1675.0 7700.0,1626.0 L 7720.0,1537.0 L 7658.0,1419.0 C 7607.0,1325.0 7589.0,1298.0 7563.0,1286.0 C 7527.0,1269.0 7524.0,1262.0 7543.0,1237.0 C 7554.0,1222.0 7562.0,1223.0 7644.0,1243.0 L 7732.0,1265.0 L 7754.0,1237.0 C 7769.0,1218.0 7785.0,1210.0 7808.0,1210.0 C 7825.0,1210.0 7855.0,1202.0 7874.0,1193.0 C 7904.0,1179.0 7910.0,1170.0 7916.0,1135.0 C 7921.0,1099.0 7934.0,1080.0 8009.0,1006.0 L 8097.0,919.0 L 8183.0,955.0 C 8266.0,989.0 8274.0,990.0 8350.0,984.0 L 8430.0,977.0 L 8430.0,1044.0 C 8430.0,1127.0 8450.0,1161.0 8548.0,1245.0 L 8619.0,1305.0 L 8619.0,1392.0 C 8620.0,1455.0 8626.0,1493.0 8641.0,1534.0 L 8663.0,1590.0 L 8751.0,1590.0 C 8800.0,1590.0 8840.0,1586.0 8840.0,1581.0 C 8840.0,1576.0 8855.0,1554.0 8873.0,1532.0 C 8890.0,1511.0 8914.0,1481.0 8925.0,1467.0 C 8936.0,1452.0 8957.0,1438.0 8972.0,1434.0 C 8996.0,1429.0 9001.0,1433.0 9025.0,1479.0 L 9050.0,1530.0 L 9108.0,1530.0 C 9223.0,1530.0 9235.0,1524.0 9291.0,1449.0 C 9319.0,1411.0 9345.0,1380.0 9349.0,1380.0 C 9352.0,1380.0 9404.0,1475.0 9464.0,1592.0 L 9573.0,1803.0 L 9561.0,1862.0 L 9549.0,1922.0 L 9617.0,2048.0 C 9682.0,2169.0 9687.0,2175.0 9730.0,2191.0 C 9780.0,2210.0 9780.0,2210.0 9747.0,2295.0 L 9724.0,2355.0 L 9611.0,2381.0 C 9549.0,2396.0 9494.0,2414.0 9489.0,2421.0 C 9479.0,2437.0 9473.0,2497.0 9465.0,2646.0 L 9459.0,2757.0 L 9495.0,2788.0 C 9516.0,2807.0 9542.0,2820.0 9558.0,2820.0 C 9573.0,2821.0 9596.0,2827.0 9610.0,2835.0 C 9625.0,2844.0 9664.0,2849.0 9707.0,2850.0 L 9779.0,2850.0 L 9820.0,2801.0 C 9842.0,2774.0 9879.0,2738.0 9900.0,2721.0 L 9940.0,2689.0 L 9967.0,2735.0 C 9983.0,2760.0 9997.0,2780.0 10000.0,2780.0 C 10003.0,2780.0 10021.0,2753.0 10041.0,2721.0 L 10078.0,2662.0 L 10150.0,2650.0 C 10189.0,2643.0 10223.0,2640.0 10225.0,2642.0 C 10227.0,2644.0 10232.0,2696.0 10236.0,2757.0 C 10242.0,2859.0 10241.0,2875.0 10220.0,2929.0 L 10198.0,2990.0 L 10220.0,3027.0 L 10242.0,3064.0 L 10206.0,3093.0 C 10187.0,3108.0 10150.0,3151.0 10124.0,3188.0 C 10067.0,3268.0 10069.0,3266.0 10014.0,3274.0 C 9954.0,3282.0 9907.0,3307.0 9914.0,3326.0 C 9917.0,3335.0 9920.0,3365.0 9920.0,3395.0 C 9920.0,3438.0 9923.0,3449.0 9939.0,3453.0 C 9954.0,3457.0 9960.0,3470.0 9965.0,3512.0 L 9972.0,3567.0 L 10028.0,3593.0 C 10060.0,3608.0 10102.0,3635.0 10124.0,3654.0 L 10163.0,3687.0 L 10047.0,3776.0 L 9932.0,3865.0 L 9952.0,3900.0 C 10044.0,4055.0 10080.0,4157.0 10049.0,4176.0 C 10042.0,4180.0 9984.0,4186.0 9920.0,4190.0 C 9768.0,4198.0 9726.0,4216.0 9687.0,4295.0 C 9662.0,4346.0 9660.0,4360.0 9660.0,4474.0 C 9660.0,4615.0 9675.0,4742.0 9700.0,4815.0 C 9717.0,4864.0 9717.0,4867.0 9699.0,4901.0 C 9675.0,4945.0 9676.0,4963.0 9700.0,4985.0 C 9719.0,5002.0 9719.0,5003.0 9701.0,5039.0 C 9691.0,5059.0 9680.0,5089.0 9677.0,5105.0 C 9672.0,5134.0 9675.0,5138.0 9758.0,5191.0 L 9845.0,5246.0 L 9876.0,5336.0 C 9894.0,5385.0 9919.0,5455.0 9933.0,5491.0 L 9958.0,5557.0 L 9879.0,5604.0 C 9810.0,5645.0 9799.0,5656.0 9788.0,5691.0 C 9782.0,5714.0 9771.0,5734.0 9766.0,5736.0 C 9760.0,5738.0 9724.0,5731.0 9687.0,5721.0 L 9619.0,5701.0 L 9609.0,5728.0 C 9518.0,5963.0 9512.0,5987.0 9499.0,6181.0 L 9487.0,6366.0 L 9530.0,6440.0 L 9573.0,6514.0 L 9555.0,6567.0 C 9545.0,6597.0 9531.0,6629.0 9524.0,6638.0 C 9518.0,6647.0 9470.0,6666.0 9419.0,6680.0 L 9325.0,6706.0 L 9220.0,6641.0 C 9053.0,6538.0 9067.0,6545.0 9033.0,6559.0 C 9001.0,6572.0 8980.0,6606.0 8980.0,6645.0 C 8980.0,6663.0 8988.0,6671.0 9015.0,6680.0 C 9058.0,6694.0 9074.0,6719.0 9060.0,6754.0 C 9051.0,6779.0 9053.0,6780.0 9090.0,6786.0 L 9130.0,6793.0 L 9130.0,6841.0 L 9130.0,6890.0 L 9190.0,6890.0 C 9265.0,6890.0 9297.0,6904.0 9305.0,6941.0 C 9311.0,6967.0 9317.0,6970.0 9363.0,6976.0 C 9431.0,6985.0 9464.0,7017.0 9454.0,7063.0 C 9443.0,7117.0 9421.0,7138.0 9349.0,7166.0 L 9280.0,7193.0 L 9268.0,7252.0 C 9255.0,7317.0 9267.0,7309.0 9130.0,7343.0 L 9075.0,7356.0 L 9035.0,7468.0 L 8995.0,7580.0 L 8935.0,7580.0 C 8882.0,7580.0 8870.0,7584.0 8837.0,7611.0 C 8801.0,7640.0 8801.0,7642.0 8815.0,7670.0 C 8847.0,7732.0 8873.0,7855.0 8874.0,7947.0 C 8875.0,8039.0 8875.0,8039.0 8840.0,8076.0 C 8821.0,8096.0 8791.0,8118.0 8775.0,8125.0 C 8748.0,8137.0 8742.0,8147.0 8728.0,8207.0 C 8719.0,8244.0 8714.0,8287.0 8717.0,8302.0 C 8721.0,8321.0 8717.0,8331.0 8703.0,8339.0 C 8645.0,8373.0 8645.0,8369.0 8694.0,8479.0 L 8739.0,8581.0 L 8658.0,8685.0 C 8613.0,8743.0 8574.0,8790.0 8570.0,8790.0 C 8566.0,8790.0 8474.0,8804.0 8365.0,8820.0 C 8256.0,8837.0 8166.0,8849.0 8165.0,8848.0 C 8159.0,8839.0 8130.0,8757.0 8132.0,8756.0 C 8134.0,8754.0 8164.0,8732.0 8200.0,8705.0 C 8236.0,8678.0 8266.0,8656.0 8268.0,8654.0 C 8270.0,8653.0 8252.0,8621.0 8228.0,8582.0 C 8196.0,8530.0 8175.0,8507.0 8148.0,8494.0 C 8111.0,8477.0 8111.0,8477.0 8069.0,8509.0 C 8033.0,8535.0 8024.0,8538.0 8011.0,8527.0 C 8002.0,8520.0 7969.0,8493.0 7937.0,8466.0 C 7891.0,8428.0 7864.0,8414.0 7799.0,8397.0 L 7719.0,8375.0 L 7673.0,8270.0 C 7648.0,8212.0 7626.0,8164.0 7625.0,8162.0 C 7623.0,8160.0 7585.0,8185.0 7539.0,8218.0 C 7420.0,8301.0 7339.0,8330.0 7224.0,8330.0 C 7146.0,8330.0 7131.0,8333.0 7115.0,8350.0 C 7105.0,8361.0 7052.0,8387.0 6996.0,8408.0 C 6910.0,8441.0 6859.0,8458.0 6728.0,8496.0 C 6715.0,8500.0 6712.0,8497.0 6716.0,8487.0 C 6719.0,8477.0 6705.0,8463.0 6673.0,8444.0 C 6647.0,8429.0 6607.0,8404.0 6586.0,8388.0 C 6533.0,8350.0 6441.0,8238.0 6426.0,8192.0 C 6416.0,8164.0 6397.0,8144.0 6343.0,8107.0 L 6273.0,8059.0 L 6238.0,8075.0 C 6210.0,8089.0 6195.0,8108.0 6162.0,8176.0 C 6126.0,8249.0 6120.0,8269.0 6120.0,8325.0 L 6120.0,8389.0 L 5978.0,8491.0 L 5837.0,8592.0 L 5806.0,8575.0 C 5733.0,8533.0 5715.0,8513.0 5701.0,8461.0 C 5690.0,8416.0 5681.0,8404.0 5635.0,8370.0 C 5597.0,8342.0 5581.0,8323.0 5576.0,8299.0 C 5555.0,8194.0 5554.0,8193.0 5498.0,8188.0 L 5446.0,8183.0 L 5401.0,8234.0 C 5279.0,8372.0 5205.0,8441.0 5167.0,8452.0 C 5124.0,8465.0 5105.0,8496.0 5113.0,8540.0 C 5116.0,8554.0 5114.0,8572.0 5109.0,8582.0 C 5098.0,8602.0 5115.0,8648.0 5143.0,8671.0 C 5153.0,8679.0 5161.0,8697.0 5160.0,8711.0 C 5155.0,8794.0 5157.0,8834.0 5166.0,8837.0 C 5172.0,8839.0 5186.0,8847.0 5196.0,8855.0 C 5214.0,8868.0 5214.0,8869.0 5197.0,8887.0 C 5182.0,8903.0 5164.0,8905.0 5064.0,8903.0 C 4971.0,8901.0 4928.0,8895.0 4840.0,8871.0 C 4739.0,8842.0 4729.0,8841.0 4692.0,8854.0 C 4662.0,8865.0 4641.0,8866.0 4609.0,8859.0 C 4570.0,8850.0 4563.0,8852.0 4508.0,8885.0 L 4450.0,8921.0 L 4338.0,8899.0 C 4242.0,8880.0 4221.0,8873.0 4200.0,8849.0 C 4179.0,8825.0 4151.0,8815.0 4023.0,8782.0 L 3871.0,8744.0 L 3864.0,8786.0 L 3858.0,8829.0 L 3786.0,8853.0 C 3723.0,8874.0 3706.0,8876.0 3654.0,8868.0 L 3595.0,8859.0 L 3560.0,8898.0 C 3526.0,8937.0 3523.0,8938.0 3440.0,8944.0 C 3388.0,8948.0 3351.0,8956.0 3345.0,8964.0 C 3339.0,8971.0 3325.0,8980.0 3312.0,8984.0 C 3299.0,8988.0 3257.0,9021.0 3218.0,9056.0 C 3118.0,9146.0 3090.0,9141.0 3090.0,9033.0 C 3090.0,8964.0 3081.0,8956.0 3034.0,8986.0 C 3018.0,8997.0 2997.0,9001.0 2971.0,8997.0 C 2939.0,8993.0 2928.0,8996.0 2911.0,9014.0 C 2884.0,9042.0 2885.0,9049.0 2915.0,9106.0 C 2958.0,9187.0 2943.0,9260.0 2886.0,9246.0 C 2873.0,9243.0 2849.0,9245.0 2833.0,9250.0 C 2813.0,9257.0 2795.0,9257.0 2778.0,9251.0 C 2759.0,9244.0 2747.0,9245.0 2733.0,9255.0 C 2696.0,9281.0 2648.0,9288.0 2608.0,9273.0 C 2573.0,9259.0 2569.0,9259.0 2538.0,9282.0 C 2508.0,9303.0 2491.0,9306.0 2350.0,9312.0 C 2265.0,9315.0 2163.0,9319.0 2123.0,9319.0 L 2051.0,9320.0 L 2057.0,9263.0" fill="pink"/>
</svg>
