<?xml version="1.0" ?>
<svg xmlns="http://www.w3.org/2000/svg" xmlns:ev="http://www.w3.org/2001/xml-events" xmlns:xlink="http://www.w3.org/1999/xlink" baseProfile="full" height="511px" version="1.1" viewBox="-1028.488611914087 -108.5661150537095 12295.543491363896 10460.95954610339" width="600px">
	<defs/>
	<path d="M 4340.0,9470.0 C 4332.0,9464.0 4315.0,9460.0 4302.0,9460.0 C 4275.0,9460.0 4227.0,9412.0 4197.0,9353.0 C 4162.0,9288.0 4079.0,9206.0 4032.0,9192.0 C 4009.0,9185.0 3978.0,9169.0 3963.0,9156.0 C 3947.0,9143.0 3919.0,9126.0 3899.0,9117.0 C 3871.0,9106.0 3861.0,9095.0 3856.0,9069.0 C 3845.0,9015.0 3824.0,8993.0 3758.0,8969.0 C 3711.0,8951.0 3677.0,8928.0 3615.0,8870.0 C 3571.0,8829.0 3522.0,8786.0 3506.0,8775.0 C 3485.0,8760.0 3477.0,8744.0 3473.0,8710.0 C 3470.0,8685.0 3454.0,8636.0 3439.0,8601.0 C 3423.0,8566.0 3410.0,8536.0 3410.0,8535.0 C 3410.0,8533.0 3418.0,8530.0 3429.0,8527.0 C 3442.0,8524.0 3448.0,8510.0 3452.0,8476.0 C 3456.0,8446.0 3466.0,8420.0 3480.0,8405.0 C 3500.0,8384.0 3501.0,8375.0 3495.0,8333.0 C 3484.0,8270.0 3487.0,8256.0 3521.0,8188.0 C 3537.0,8156.0 3550.0,8114.0 3550.0,8094.0 C 3550.0,8053.0 3579.0,8000.0 3614.0,7977.0 C 3626.0,7969.0 3681.0,7941.0 3735.0,7916.0 C 3805.0,7883.0 3828.0,7876.0 3815.0,7890.0 C 3805.0,7901.0 3800.0,7913.0 3803.0,7916.0 C 3813.0,7926.0 3857.0,7894.0 3923.0,7830.0 L 3982.0,7772.0 L 3975.0,7708.0 C 3967.0,7641.0 3947.0,7590.0 3928.0,7590.0 C 3921.0,7590.0 3931.0,7577.0 3950.0,7562.0 C 3972.0,7543.0 3980.0,7531.0 3972.0,7526.0 C 3948.0,7512.0 3959.0,7480.0 3993.0,7467.0 L 4025.0,7453.0 L 3945.0,7428.0 C 3901.0,7413.0 3852.0,7399.0 3835.0,7395.0 L 3805.0,7388.0 L 3834.0,7373.0 C 3858.0,7360.0 3861.0,7356.0 3848.0,7349.0 C 3839.0,7344.0 3829.0,7329.0 3826.0,7314.0 C 3821.0,7297.0 3814.0,7290.0 3805.0,7294.0 C 3760.0,7311.0 3637.0,7329.0 3622.0,7321.0 C 3613.0,7316.0 3574.0,7280.0 3536.0,7241.0 C 3490.0,7193.0 3470.0,7165.0 3474.0,7154.0 C 3488.0,7117.0 3492.0,7059.0 3481.0,7029.0 C 3473.0,7005.0 3473.0,6994.0 3481.0,6983.0 C 3490.0,6973.0 3490.0,6960.0 3482.0,6932.0 C 3458.0,6854.0 3364.0,6734.0 3352.0,6768.0 C 3350.0,6775.0 3345.0,6780.0 3341.0,6780.0 C 3337.0,6780.0 3338.0,6757.0 3344.0,6730.0 C 3354.0,6680.0 3354.0,6680.0 3315.0,6640.0 C 3285.0,6609.0 3273.0,6603.0 3259.0,6611.0 C 3235.0,6624.0 3228.0,6609.0 3242.0,6572.0 C 3259.0,6528.0 3246.0,6522.0 3203.0,6553.0 C 3172.0,6575.0 3164.0,6577.0 3157.0,6565.0 C 3145.0,6544.0 3121.0,6547.0 3112.0,6570.0 C 3104.0,6591.0 3104.0,6590.0 3070.0,6566.0 C 3003.0,6517.0 2992.0,6514.0 2966.0,6539.0 C 2939.0,6565.0 2906.0,6558.0 2915.0,6529.0 C 2919.0,6518.0 2913.0,6498.0 2902.0,6482.0 C 2891.0,6467.0 2873.0,6436.0 2861.0,6412.0 C 2843.0,6376.0 2828.0,6363.0 2777.0,6339.0 C 2706.0,6306.0 2693.0,6304.0 2662.0,6326.0 C 2637.0,6343.0 2633.0,6382.0 2655.0,6400.0 C 2674.0,6416.0 2675.0,6460.0 2655.0,6460.0 C 2648.0,6460.0 2624.0,6439.0 2603.0,6414.0 C 2546.0,6345.0 2488.0,6321.0 2460.0,6355.0 C 2447.0,6371.0 2446.0,6369.0 2486.0,6443.0 C 2494.0,6458.0 2499.0,6474.0 2496.0,6479.0 C 2492.0,6484.0 2460.0,6476.0 2424.0,6462.0 C 2351.0,6433.0 2335.0,6436.0 2311.0,6485.0 C 2298.0,6511.0 2299.0,6514.0 2331.0,6539.0 C 2393.0,6587.0 2401.0,6599.0 2390.0,6620.0 C 2385.0,6630.0 2380.0,6646.0 2380.0,6656.0 C 2380.0,6672.0 2382.0,6671.0 2401.0,6654.0 C 2439.0,6620.0 2443.0,6602.0 2420.0,6570.0 L 2399.0,6540.0 L 2429.0,6540.0 C 2462.0,6540.0 2474.0,6554.0 2484.0,6610.0 C 2497.0,6676.0 2512.0,6701.0 2557.0,6726.0 C 2602.0,6753.0 2626.0,6783.0 2615.0,6800.0 C 2603.0,6820.0 2485.0,6811.0 2415.0,6785.0 L 2347.0,6759.0 L 2316.0,6790.0 C 2298.0,6806.0 2274.0,6820.0 2263.0,6820.0 C 2251.0,6820.0 2228.0,6831.0 2212.0,6845.0 C 2191.0,6863.0 2170.0,6870.0 2142.0,6870.0 C 2111.0,6870.0 2097.0,6875.0 2086.0,6892.0 C 2071.0,6913.0 2072.0,6916.0 2096.0,6941.0 L 2122.0,6968.0 L 2059.0,6999.0 C 2025.0,7016.0 1989.0,7030.0 1979.0,7030.0 C 1963.0,7030.0 1867.0,7002.0 1828.0,6985.0 C 1815.0,6980.0 1808.0,6985.0 1800.0,7004.0 C 1794.0,7021.0 1783.0,7030.0 1770.0,7030.0 C 1758.0,7030.0 1752.0,7026.0 1755.0,7020.0 C 1758.0,7015.0 1755.0,7013.0 1748.0,7016.0 C 1741.0,7019.0 1726.0,7035.0 1715.0,7053.0 C 1704.0,7070.0 1680.0,7093.0 1662.0,7103.0 L 1630.0,7122.0 L 1608.0,7095.0 L 1586.0,7067.0 L 1556.0,7102.0 C 1500.0,7165.0 1435.0,7197.0 1327.0,7215.0 C 1196.0,7236.0 1150.0,7261.0 1150.0,7314.0 C 1150.0,7322.0 1115.0,7365.0 1072.0,7410.0 C 1017.0,7467.0 987.0,7490.0 970.0,7490.0 C 956.0,7490.0 918.0,7502.0 885.0,7515.0 C 811.0,7546.0 790.0,7547.0 790.0,7519.0 C 790.0,7492.0 738.0,7440.0 710.0,7440.0 C 699.0,7440.0 674.0,7447.0 654.0,7455.0 C 622.0,7468.0 614.0,7468.0 555.0,7446.0 C 519.0,7433.0 465.0,7408.0 435.0,7389.0 C 387.0,7360.0 380.0,7352.0 380.0,7324.0 C 380.0,7289.0 363.0,7271.0 306.0,7244.0 C 253.0,7218.0 243.0,7200.0 258.0,7157.0 C 287.0,7078.0 265.0,7035.0 180.0,7005.0 C 80.0,6970.0 67.0,6942.0 130.0,6891.0 C 152.0,6874.0 170.0,6853.0 170.0,6845.0 C 170.0,6837.0 153.0,6822.0 132.0,6811.0 C 72.0,6780.0 63.0,6754.0 84.0,6665.0 C 102.0,6590.0 102.0,6590.0 80.0,6554.0 C 63.0,6528.0 60.0,6516.0 69.0,6507.0 C 89.0,6487.0 81.0,6470.0 45.0,6453.0 C 7.0,6435.0 -10.0,6398.0 7.0,6371.0 C 13.0,6362.0 21.0,6321.0 25.0,6281.0 C 29.0,6238.0 42.0,6185.0 56.0,6156.0 C 69.0,6128.0 80.0,6091.0 80.0,6075.0 C 80.0,6052.0 92.0,6033.0 128.0,5997.0 C 154.0,5971.0 183.0,5950.0 193.0,5950.0 C 203.0,5950.0 210.0,5942.0 210.0,5932.0 C 210.0,5922.0 226.0,5895.0 246.0,5871.0 C 290.0,5821.0 316.0,5754.0 325.0,5673.0 C 331.0,5624.0 328.0,5598.0 306.0,5528.0 C 275.0,5425.0 274.0,5399.0 300.0,5375.0 C 317.0,5359.0 320.0,5344.0 320.0,5259.0 L 320.0,5160.0 L 348.0,5154.0 C 363.0,5151.0 382.0,5146.0 391.0,5144.0 C 416.0,5137.0 431.0,5010.0 411.0,4972.0 C 406.0,4962.0 407.0,4930.0 413.0,4895.0 C 422.0,4839.0 421.0,4831.0 396.0,4783.0 C 382.0,4754.0 370.0,4727.0 370.0,4722.0 C 370.0,4717.0 388.0,4705.0 411.0,4695.0 C 455.0,4675.0 500.0,4628.0 500.0,4603.0 C 500.0,4594.0 488.0,4571.0 473.0,4552.0 C 436.0,4503.0 426.0,4426.0 446.0,4341.0 C 457.0,4293.0 459.0,4270.0 451.0,4253.0 C 437.0,4222.0 437.0,4220.0 455.0,4220.0 C 476.0,4220.0 485.0,4193.0 471.0,4176.0 C 461.0,4165.0 463.0,4159.0 477.0,4151.0 C 494.0,4140.0 494.0,4139.0 477.0,4126.0 C 448.0,4104.0 459.0,4075.0 497.0,4075.0 C 540.0,4075.0 548.0,4063.0 523.0,4038.0 C 505.0,4021.0 503.0,4013.0 513.0,3993.0 C 521.0,3975.0 521.0,3964.0 512.0,3949.0 C 504.0,3937.0 502.0,3916.0 506.0,3894.0 C 511.0,3868.0 508.0,3854.0 495.0,3840.0 C 480.0,3824.0 480.0,3813.0 490.0,3743.0 C 508.0,3618.0 517.0,3600.0 601.0,3505.0 C 754.0,3335.0 762.0,3318.0 780.0,3140.0 C 786.0,3083.0 796.0,3027.0 803.0,3016.0 C 824.0,2979.0 1093.0,2725.0 1146.0,2692.0 C 1188.0,2665.0 1202.0,2649.0 1224.0,2600.0 C 1263.0,2514.0 1276.0,2442.0 1263.0,2387.0 C 1255.0,2348.0 1256.0,2336.0 1273.0,2307.0 C 1283.0,2289.0 1312.0,2263.0 1336.0,2249.0 L 1380.0,2225.0 L 1497.0,2254.0 C 1562.0,2270.0 1624.0,2288.0 1634.0,2293.0 C 1644.0,2298.0 1683.0,2332.0 1720.0,2369.0 C 1756.0,2405.0 1798.0,2441.0 1813.0,2449.0 C 1838.0,2462.0 1842.0,2462.0 1864.0,2441.0 L 1889.0,2418.0 L 1952.0,2469.0 C 2006.0,2513.0 2019.0,2520.0 2045.0,2515.0 C 2062.0,2512.0 2113.0,2504.0 2159.0,2499.0 L 2244.0,2488.0 L 2271.0,2522.0 C 2297.0,2553.0 2302.0,2555.0 2355.0,2553.0 C 2406.0,2550.0 2411.0,2552.0 2405.0,2568.0 C 2384.0,2617.0 2387.0,2638.0 2419.0,2654.0 C 2444.0,2667.0 2450.0,2677.0 2450.0,2702.0 C 2450.0,2743.0 2481.0,2791.0 2531.0,2826.0 C 2554.0,2841.0 2582.0,2869.0 2594.0,2887.0 C 2607.0,2905.0 2646.0,2942.0 2681.0,2968.0 C 2716.0,2995.0 2751.0,3024.0 2758.0,3033.0 C 2766.0,3042.0 2786.0,3054.0 2805.0,3060.0 C 2823.0,3066.0 2855.0,3092.0 2879.0,3120.0 C 2903.0,3148.0 2934.0,3173.0 2954.0,3180.0 C 2982.0,3189.0 2997.0,3206.0 3034.0,3268.0 C 3062.0,3316.0 3081.0,3364.0 3086.0,3395.0 C 3093.0,3450.0 3113.0,3484.0 3174.0,3547.0 L 3214.0,3590.0 L 3177.0,3662.0 C 3134.0,3745.0 3132.0,3769.0 3152.0,3968.0 C 3162.0,4078.0 3162.0,4097.0 3146.0,4148.0 C 3136.0,4179.0 3122.0,4215.0 3114.0,4228.0 C 3106.0,4241.0 3102.0,4259.0 3105.0,4270.0 C 3109.0,4283.0 3105.0,4290.0 3091.0,4295.0 C 3080.0,4298.0 3060.0,4310.0 3046.0,4321.0 C 3023.0,4339.0 3020.0,4348.0 3020.0,4409.0 C 3020.0,4485.0 3025.0,4493.0 3098.0,4529.0 C 3129.0,4545.0 3140.0,4556.0 3140.0,4574.0 C 3140.0,4600.0 3112.0,4630.0 3086.0,4630.0 C 3055.0,4630.0 3013.0,4659.0 2967.0,4711.0 L 2922.0,4763.0 L 2941.0,4799.0 C 2951.0,4819.0 2960.0,4839.0 2960.0,4845.0 C 2960.0,4850.0 2938.0,4869.0 2912.0,4885.0 C 2880.0,4906.0 2864.0,4923.0 2862.0,4940.0 C 2860.0,4954.0 2849.0,4988.0 2838.0,5017.0 C 2814.0,5076.0 2818.0,5094.0 2859.0,5118.0 C 2893.0,5137.0 2901.0,5156.0 2889.0,5188.0 C 2883.0,5205.0 2873.0,5210.0 2847.0,5210.0 L 2813.0,5210.0 L 2791.0,5293.0 C 2762.0,5405.0 2763.0,5419.0 2810.0,5478.0 C 2832.0,5505.0 2850.0,5530.0 2850.0,5533.0 C 2850.0,5535.0 2837.0,5554.0 2820.0,5575.0 C 2791.0,5612.0 2791.0,5613.0 2807.0,5641.0 C 2823.0,5668.0 2823.0,5670.0 2802.0,5692.0 C 2781.0,5715.0 2781.0,5718.0 2795.0,5778.0 C 2823.0,5898.0 2885.0,5984.0 2914.0,5944.0 C 2924.0,5931.0 2935.0,5929.0 2966.0,5934.0 C 3079.0,5953.0 3075.0,5954.0 3088.0,5925.0 L 3100.0,5898.0 L 3118.0,5921.0 C 3135.0,5941.0 3139.0,5942.0 3165.0,5929.0 C 3181.0,5921.0 3204.0,5899.0 3217.0,5880.0 C 3260.0,5812.0 3281.0,5790.0 3305.0,5790.0 C 3324.0,5790.0 3327.0,5794.0 3323.0,5811.0 C 3319.0,5826.0 3325.0,5838.0 3345.0,5854.0 L 3373.0,5877.0 L 3333.0,5883.0 C 3311.0,5887.0 3288.0,5896.0 3282.0,5903.0 C 3268.0,5919.0 3266.0,5962.0 3275.0,6011.0 C 3281.0,6040.0 3278.0,6051.0 3256.0,6077.0 C 3223.0,6116.0 3223.0,6135.0 3255.0,6156.0 C 3283.0,6174.0 3310.0,6169.0 3310.0,6144.0 C 3310.0,6135.0 3327.0,6107.0 3349.0,6081.0 C 3370.0,6056.0 3397.0,6016.0 3409.0,5992.0 C 3423.0,5964.0 3443.0,5944.0 3466.0,5933.0 C 3495.0,5919.0 3500.0,5912.0 3495.0,5893.0 C 3492.0,5879.0 3496.0,5859.0 3506.0,5845.0 C 3519.0,5825.0 3520.0,5817.0 3511.0,5806.0 C 3501.0,5794.0 3504.0,5788.0 3524.0,5775.0 C 3557.0,5753.0 3560.0,5726.0 3529.0,5735.0 L 3507.0,5742.0 L 3528.0,5714.0 C 3539.0,5698.0 3568.0,5674.0 3593.0,5661.0 L 3638.0,5636.0 L 3699.0,5664.0 C 3750.0,5687.0 3763.0,5689.0 3782.0,5679.0 C 3813.0,5663.0 3820.0,5651.0 3820.0,5609.0 L 3820.0,5572.0 L 3883.0,5561.0 C 3918.0,5555.0 3976.0,5550.0 4011.0,5550.0 C 4078.0,5550.0 4263.0,5496.0 4325.0,5458.0 C 4366.0,5434.0 4396.0,5435.0 4415.0,5463.0 C 4423.0,5476.0 4441.0,5492.0 4454.0,5499.0 C 4474.0,5510.0 4482.0,5509.0 4502.0,5496.0 C 4524.0,5481.0 4530.0,5481.0 4563.0,5495.0 C 4583.0,5503.0 4616.0,5527.0 4638.0,5549.0 C 4669.0,5581.0 4689.0,5590.0 4747.0,5604.0 C 4836.0,5624.0 4856.0,5624.0 4864.0,5605.0 C 4872.0,5584.0 4900.0,5586.0 4927.0,5612.0 C 4947.0,5630.0 4953.0,5632.0 4973.0,5621.0 C 5006.0,5603.0 5072.0,5630.0 5131.0,5685.0 C 5179.0,5730.0 5206.0,5740.0 5227.0,5719.0 C 5240.0,5706.0 5260.0,5715.0 5260.0,5735.0 C 5260.0,5764.0 5302.0,5780.0 5379.0,5780.0 L 5453.0,5780.0 L 5516.0,5840.0 C 5592.0,5913.0 5640.0,5936.0 5740.0,5945.0 C 5794.0,5950.0 5837.0,5962.0 5894.0,5987.0 C 5967.0,6020.0 5978.0,6022.0 6038.0,6016.0 C 6088.0,6011.0 6108.0,6013.0 6127.0,6025.0 C 6149.0,6040.0 6153.0,6040.0 6186.0,6019.0 C 6221.0,5998.0 6221.0,5998.0 6338.0,6014.0 C 6500.0,6038.0 6617.0,6068.0 6664.0,6099.0 C 6697.0,6121.0 6719.0,6126.0 6799.0,6131.0 C 6877.0,6136.0 6905.0,6142.0 6950.0,6165.0 C 7004.0,6193.0 7005.0,6193.0 7150.0,6187.0 C 7230.0,6184.0 7366.0,6170.0 7453.0,6156.0 C 7553.0,6139.0 7652.0,6130.0 7721.0,6130.0 L 7830.0,6130.0 L 7937.0,6075.0 C 8015.0,6035.0 8046.0,6024.0 8052.0,6033.0 C 8064.0,6052.0 8061.0,6055.0 7971.0,6114.0 C 7895.0,6165.0 7882.0,6170.0 7833.0,6170.0 C 7794.0,6170.0 7778.0,6174.0 7773.0,6186.0 C 7768.0,6199.0 7765.0,6198.0 7748.0,6181.0 C 7725.0,6156.0 7726.0,6156.0 7658.0,6179.0 C 7585.0,6204.0 7547.0,6224.0 7507.0,6259.0 C 7489.0,6275.0 7454.0,6293.0 7430.0,6300.0 C 7295.0,6336.0 7151.0,6449.0 7098.0,6559.0 C 7081.0,6595.0 7054.0,6641.0 7038.0,6660.0 C 7023.0,6679.0 7010.0,6703.0 7010.0,6713.0 C 7010.0,6767.0 6933.0,6857.0 6907.0,6831.0 C 6886.0,6810.0 6868.0,6818.0 6874.0,6848.0 C 6880.0,6873.0 6876.0,6877.0 6825.0,6904.0 C 6794.0,6920.0 6765.0,6941.0 6759.0,6951.0 C 6754.0,6962.0 6739.0,6970.0 6726.0,6970.0 C 6713.0,6970.0 6690.0,6984.0 6671.0,7005.0 C 6642.0,7037.0 6635.0,7040.0 6585.0,7040.0 C 6556.0,7040.0 6529.0,7044.0 6525.0,7050.0 C 6522.0,7055.0 6513.0,7057.0 6505.0,7053.0 C 6494.0,7049.0 6490.0,7056.0 6490.0,7079.0 C 6490.0,7113.0 6484.0,7116.0 6456.0,7095.0 C 6421.0,7068.0 6390.0,7077.0 6346.0,7124.0 L 6305.0,7169.0 L 6279.0,7149.0 L 6252.0,7130.0 L 6130.0,7165.0 C 6063.0,7185.0 6000.0,7198.0 5989.0,7195.0 C 5979.0,7192.0 5961.0,7177.0 5950.0,7163.0 L 5930.0,7137.0 L 5893.0,7179.0 L 5855.0,7221.0 L 5808.0,7204.0 C 5761.0,7186.0 5759.0,7186.0 5688.0,7209.0 C 5497.0,7270.0 5433.0,7319.0 5315.0,7494.0 C 5273.0,7555.0 5217.0,7637.0 5189.0,7675.0 C 5158.0,7719.0 5137.0,7760.0 5133.0,7785.0 C 5130.0,7807.0 5121.0,7833.0 5113.0,7842.0 C 5099.0,7857.0 5100.0,7871.0 5115.0,7959.0 C 5130.0,8043.0 5131.0,8064.0 5120.0,8090.0 C 5107.0,8120.0 5108.0,8123.0 5138.0,8151.0 C 5171.0,8182.0 5177.0,8204.0 5161.0,8230.0 C 5154.0,8240.0 5157.0,8248.0 5171.0,8258.0 C 5201.0,8279.0 5211.0,8313.0 5197.0,8349.0 C 5188.0,8373.0 5188.0,8385.0 5197.0,8399.0 C 5206.0,8413.0 5205.0,8423.0 5190.0,8444.0 C 5180.0,8460.0 5169.0,8499.0 5165.0,8533.0 C 5157.0,8607.0 5147.0,8628.0 5118.0,8632.0 C 5102.0,8634.0 5094.0,8643.0 5092.0,8660.0 C 5088.0,8700.0 5059.0,8831.0 5043.0,8882.0 C 5026.0,8938.0 4952.0,9010.0 4913.0,9010.0 C 4899.0,9010.0 4879.0,9021.0 4867.0,9036.0 C 4836.0,9073.0 4819.0,9088.0 4783.0,9113.0 C 4765.0,9125.0 4735.0,9148.0 4716.0,9164.0 C 4686.0,9187.0 4677.0,9190.0 4665.0,9180.0 C 4647.0,9165.0 4644.0,9173.0 4636.0,9254.0 C 4634.0,9286.0 4629.0,9314.0 4627.0,9317.0 C 4624.0,9319.0 4603.0,9316.0 4580.0,9309.0 C 4547.0,9299.0 4534.0,9299.0 4519.0,9308.0 C 4508.0,9315.0 4490.0,9318.0 4477.0,9315.0 C 4443.0,9306.0 4380.0,9336.0 4380.0,9361.0 C 4380.0,9372.0 4371.0,9389.0 4359.0,9399.0 C 4342.0,9413.0 4340.0,9419.0 4350.0,9444.0 C 4362.0,9477.0 4360.0,9483.0 4340.0,9470.0" fill="pink"/>
	<path d="M 2757.0,7403.0 L 2742.0,7365.0 L 2787.0,7352.0 C 2845.0,7335.0 2900.0,7350.0 2900.0,7383.0 C 2900.0,7401.0 2889.0,7409.0 2851.0,7423.0 C 2783.0,7447.0 2774.0,7445.0 2757.0,7403.0" fill="pink"/>
	<path d="M 10115.0,7389.0 C 10086.0,7382.0 10070.0,7371.0 10058.0,7349.0 C 10042.0,7323.0 10036.0,7319.0 10011.0,7325.0 C 9977.0,7332.0 9959.0,7324.0 9901.0,7275.0 C 9877.0,7256.0 9849.0,7240.0 9839.0,7240.0 C 9812.0,7240.0 9642.0,7148.0 9569.0,7095.0 C 9536.0,7071.0 9484.0,7037.0 9454.0,7019.0 C 9406.0,6992.0 9393.0,6989.0 9354.0,6995.0 C 9315.0,7001.0 9310.0,6999.0 9310.0,6981.0 C 9310.0,6942.0 9208.0,6891.0 9155.0,6904.0 C 9139.0,6908.0 9124.0,6900.0 9097.0,6872.0 C 9052.0,6826.0 9044.0,6803.0 9041.0,6715.0 L 9038.0,6645.0 L 9062.0,6667.0 C 9091.0,6694.0 9132.0,6710.0 9174.0,6710.0 C 9196.0,6710.0 9227.0,6725.0 9277.0,6760.0 C 9333.0,6800.0 9356.0,6810.0 9388.0,6810.0 C 9439.0,6810.0 9606.0,6852.0 9656.0,6878.0 C 9677.0,6889.0 9727.0,6924.0 9765.0,6954.0 C 9853.0,7025.0 10000.0,7101.0 10132.0,7144.0 C 10201.0,7167.0 10236.0,7183.0 10238.0,7194.0 C 10242.0,7212.0 10170.0,7401.0 10161.0,7399.0 C 10158.0,7398.0 10137.0,7394.0 10115.0,7389.0" fill="pink"/>
	<path d="M 6755.0,2972.0 C 6752.0,2968.0 6713.0,2963.0 6670.0,2959.0 C 6575.0,2952.0 6567.0,2947.0 6505.0,2839.0 C 6476.0,2788.0 6449.0,2755.0 6430.0,2745.0 C 6409.0,2734.0 6400.0,2722.0 6400.0,2704.0 C 6400.0,2650.0 6375.0,2624.0 6305.0,2605.0 L 6240.0,2587.0 L 6240.0,2467.0 L 6240.0,2346.0 L 6183.0,2290.0 C 6151.0,2260.0 6097.0,2220.0 6063.0,2202.0 C 6029.0,2184.0 5999.0,2166.0 5996.0,2161.0 C 5993.0,2157.0 6002.0,2101.0 6015.0,2038.0 C 6028.0,1974.0 6043.0,1879.0 6049.0,1827.0 C 6055.0,1767.0 6065.0,1722.0 6076.0,1705.0 C 6090.0,1683.0 6091.0,1674.0 6082.0,1659.0 C 6065.0,1632.0 6067.0,1623.0 6096.0,1585.0 C 6110.0,1567.0 6126.0,1535.0 6131.0,1515.0 C 6140.0,1484.0 6155.0,1470.0 6226.0,1424.0 C 6340.0,1349.0 6419.0,1315.0 6545.0,1285.0 C 6612.0,1269.0 6663.0,1251.0 6683.0,1236.0 C 6701.0,1222.0 6727.0,1209.0 6741.0,1205.0 C 6778.0,1196.0 6885.0,1217.0 6939.0,1244.0 C 6964.0,1257.0 7013.0,1270.0 7047.0,1274.0 C 7127.0,1283.0 7156.0,1293.0 7250.0,1346.0 C 7350.0,1403.0 7433.0,1468.0 7470.0,1519.0 C 7487.0,1541.0 7507.0,1560.0 7516.0,1560.0 C 7525.0,1560.0 7546.0,1575.0 7562.0,1592.0 C 7579.0,1610.0 7607.0,1629.0 7624.0,1635.0 C 7650.0,1643.0 7662.0,1660.0 7697.0,1730.0 C 7774.0,1884.0 7788.0,2019.0 7740.0,2142.0 C 7710.0,2219.0 7665.0,2269.0 7579.0,2320.0 C 7529.0,2349.0 7504.0,2371.0 7496.0,2391.0 C 7491.0,2407.0 7480.0,2420.0 7474.0,2420.0 C 7454.0,2420.0 7411.0,2460.0 7416.0,2474.0 C 7419.0,2481.0 7410.0,2494.0 7396.0,2503.0 C 7383.0,2512.0 7358.0,2545.0 7341.0,2575.0 C 7317.0,2621.0 7313.0,2635.0 7322.0,2650.0 C 7337.0,2673.0 7320.0,2695.0 7275.0,2714.0 C 7257.0,2722.0 7233.0,2741.0 7221.0,2758.0 C 7204.0,2782.0 7190.0,2790.0 7152.0,2795.0 C 7101.0,2802.0 7034.0,2837.0 6963.0,2894.0 C 6935.0,2917.0 6901.0,2933.0 6863.0,2941.0 C 6831.0,2947.0 6795.0,2959.0 6784.0,2966.0 C 6772.0,2973.0 6759.0,2976.0 6755.0,2972.0" fill="pink"/>
	<path d="M 2980.0,1367.0 C 2980.0,1324.0 2962.0,1280.0 2944.0,1280.0 C 2937.0,1280.0 2922.0,1296.0 2910.0,1315.0 L 2888.0,1350.0 L 2864.0,1328.0 C 2836.0,1301.0 2834.0,1287.0 2855.0,1270.0 C 2876.0,1253.0 2874.0,1221.0 2849.0,1181.0 C 2829.0,1148.0 2829.0,1148.0 2772.0,1154.0 C 2741.0,1158.0 2703.0,1163.0 2689.0,1166.0 C 2669.0,1170.0 2661.0,1166.0 2657.0,1151.0 C 2654.0,1140.0 2637.0,1122.0 2619.0,1111.0 C 2600.0,1099.0 2592.0,1090.0 2600.0,1090.0 C 2608.0,1090.0 2633.0,1076.0 2654.0,1060.0 C 2709.0,1018.0 2752.0,1019.0 2778.0,1063.0 C 2797.0,1096.0 2798.0,1097.0 2846.0,1089.0 C 2873.0,1085.0 2906.0,1079.0 2919.0,1074.0 C 2942.0,1067.0 2942.0,1067.0 2925.0,1093.0 C 2911.0,1115.0 2910.0,1125.0 2920.0,1155.0 C 2930.0,1184.0 2943.0,1196.0 2990.0,1220.0 C 3022.0,1236.0 3052.0,1255.0 3056.0,1262.0 C 3061.0,1271.0 3058.0,1271.0 3046.0,1261.0 C 3020.0,1239.0 3004.0,1261.0 3019.0,1298.0 C 3036.0,1338.0 3030.0,1370.0 3003.0,1388.0 C 2981.0,1402.0 2980.0,1402.0 2980.0,1367.0" fill="pink"/>
	<path d="M 2673.0,1306.0 C 2718.0,1275.0 2740.0,1273.0 2740.0,1300.0 C 2740.0,1315.0 2733.0,1320.0 2713.0,1320.0 C 2697.0,1320.0 2674.0,1323.0 2660.0,1327.0 C 2640.0,1332.0 2642.0,1328.0 2673.0,1306.0" fill="pink"/>
	<path d="M 2176.0,1217.0 C 2173.0,1203.0 2146.0,1176.0 2110.0,1151.0 C 2054.0,1112.0 2030.0,1075.0 2044.0,1052.0 C 2047.0,1047.0 2043.0,1023.0 2035.0,998.0 L 2022.0,952.0 L 2110.0,911.0 C 2159.0,888.0 2207.0,870.0 2217.0,870.0 C 2249.0,870.0 2277.0,897.0 2325.0,975.0 C 2371.0,1049.0 2392.0,1065.0 2404.0,1035.0 C 2407.0,1027.0 2419.0,1020.0 2430.0,1020.0 C 2445.0,1020.0 2450.0,1027.0 2450.0,1045.0 C 2450.0,1064.0 2443.0,1071.0 2413.0,1079.0 C 2392.0,1085.0 2371.0,1090.0 2366.0,1090.0 C 2361.0,1090.0 2349.0,1097.0 2339.0,1106.0 C 2322.0,1121.0 2322.0,1124.0 2337.0,1146.0 C 2346.0,1160.0 2351.0,1172.0 2349.0,1175.0 C 2347.0,1177.0 2316.0,1190.0 2280.0,1203.0 C 2244.0,1216.0 2208.0,1230.0 2199.0,1234.0 C 2187.0,1239.0 2181.0,1235.0 2176.0,1217.0" fill="pink"/>
	<path d="M 2721.0,830.0 L 2689.0,790.0 L 2727.0,790.0 C 2748.0,789.0 2782.0,783.0 2803.0,776.0 C 2837.0,764.0 2840.0,764.0 2840.0,780.0 C 2840.0,797.0 2776.0,870.0 2761.0,870.0 C 2757.0,870.0 2739.0,852.0 2721.0,830.0" fill="pink"/>
</svg>
