<?xml version="1.0" ?>
<svg xmlns="http://www.w3.org/2000/svg" xmlns:ev="http://www.w3.org/2001/xml-events" xmlns:xlink="http://www.w3.org/1999/xlink" baseProfile="full" height="420px" version="1.1" viewBox="-1028.2061919642858 821.0522482930678 12297.24274107143 8597.027060972192" width="600px">
	<defs/>
	<path d="M 2350.0,8685.0 C 2336.0,8677.0 2292.0,8663.0 2253.0,8654.0 L 2180.0,8638.0 L 2180.0,8574.0 C 2180.0,8527.0 2187.0,8493.0 2206.0,8447.0 C 2230.0,8391.0 2234.0,8364.0 2246.0,8170.0 C 2268.0,7793.0 2268.0,7774.0 2236.0,7701.0 C 2221.0,7665.0 2198.0,7622.0 2186.0,7606.0 C 2173.0,7589.0 2153.0,7551.0 2141.0,7523.0 L 2120.0,7470.0 L 2151.0,7408.0 C 2169.0,7373.0 2184.0,7334.0 2185.0,7320.0 C 2186.0,7306.0 2195.0,7256.0 2205.0,7208.0 C 2219.0,7141.0 2227.0,7121.0 2241.0,7117.0 C 2255.0,7113.0 2260.0,7103.0 2260.0,7079.0 C 2260.0,7061.0 2279.0,6960.0 2302.0,6855.0 C 2327.0,6737.0 2341.0,6653.0 2336.0,6637.0 C 2333.0,6623.0 2307.0,6582.0 2280.0,6546.0 C 2253.0,6510.0 2218.0,6457.0 2204.0,6427.0 C 2186.0,6391.0 2165.0,6365.0 2140.0,6350.0 C 2119.0,6337.0 2095.0,6312.0 2086.0,6293.0 C 2077.0,6275.0 2050.0,6245.0 2025.0,6228.0 C 2000.0,6210.0 1980.0,6193.0 1980.0,6188.0 C 1980.0,6184.0 2005.0,6173.0 2035.0,6165.0 C 2076.0,6153.0 2090.0,6144.0 2090.0,6130.0 C 2090.0,6113.0 2088.0,6113.0 2062.0,6126.0 C 2046.0,6133.0 2023.0,6141.0 2010.0,6142.0 C 1986.0,6145.0 1985.0,6142.0 1977.0,6070.0 C 1970.0,6010.0 1961.0,5981.0 1929.0,5925.0 C 1907.0,5887.0 1881.0,5846.0 1872.0,5835.0 C 1842.0,5800.0 1783.0,5760.0 1728.0,5739.0 C 1678.0,5720.0 1672.0,5714.0 1635.0,5644.0 C 1598.0,5575.0 1556.0,5530.0 1504.0,5502.0 C 1492.0,5496.0 1479.0,5479.0 1476.0,5465.0 C 1472.0,5451.0 1463.0,5440.0 1456.0,5440.0 C 1432.0,5440.0 1380.0,5390.0 1380.0,5366.0 C 1380.0,5352.0 1367.0,5337.0 1341.0,5321.0 L 1302.0,5296.0 L 1295.0,5182.0 L 1287.0,5068.0 L 1334.0,5021.0 C 1390.0,4964.0 1395.0,4939.0 1348.0,4946.0 C 1319.0,4951.0 1310.0,4946.0 1274.0,4908.0 C 1244.0,4878.0 1227.0,4848.0 1215.0,4806.0 C 1206.0,4774.0 1182.0,4724.0 1161.0,4696.0 C 1139.0,4667.0 1120.0,4628.0 1116.0,4605.0 C 1112.0,4583.0 1100.0,4533.0 1088.0,4494.0 L 1066.0,4422.0 L 1016.0,4416.0 C 955.0,4409.0 957.0,4412.0 925.0,4293.0 C 920.0,4277.0 773.0,4167.0 715.0,4137.0 C 686.0,4122.0 655.0,4096.0 640.0,4074.0 C 626.0,4053.0 591.0,4010.0 561.0,3978.0 C 501.0,3912.0 501.0,3919.0 549.0,3795.0 C 566.0,3751.0 580.0,3713.0 580.0,3711.0 C 580.0,3709.0 571.0,3710.0 561.0,3713.0 C 539.0,3718.0 530.0,3697.0 530.0,3638.0 C 530.0,3608.0 524.0,3596.0 497.0,3576.0 C 478.0,3561.0 460.0,3550.0 455.0,3550.0 C 434.0,3550.0 373.0,3481.0 355.0,3437.0 C 336.0,3390.0 330.0,3385.0 280.0,3368.0 C 216.0,3346.0 177.0,3314.0 199.0,3301.0 C 218.0,3289.0 209.0,3229.0 175.0,3150.0 C 157.0,3109.0 148.0,3070.0 149.0,3042.0 C 149.0,3019.0 146.0,3000.0 141.0,3000.0 C 136.0,3000.0 126.0,2983.0 119.0,2963.0 C 113.0,2942.0 96.0,2909.0 84.0,2890.0 C 71.0,2871.0 60.0,2851.0 60.0,2845.0 C 60.0,2840.0 46.0,2815.0 30.0,2791.0 C -3.0,2742.0 -8.0,2704.0 15.0,2660.0 C 26.0,2638.0 38.0,2630.0 58.0,2630.0 C 80.0,2630.0 93.0,2618.0 131.0,2562.0 C 176.0,2498.0 181.0,2494.0 240.0,2477.0 L 303.0,2459.0 L 329.0,2484.0 C 344.0,2499.0 366.0,2510.0 378.0,2510.0 C 414.0,2510.0 510.0,2543.0 510.0,2556.0 C 510.0,2563.0 525.0,2571.0 543.0,2575.0 C 560.0,2579.0 591.0,2594.0 610.0,2610.0 C 644.0,2636.0 647.0,2637.0 689.0,2624.0 C 728.0,2613.0 737.0,2613.0 760.0,2627.0 C 785.0,2642.0 789.0,2641.0 827.0,2616.0 C 850.0,2600.0 888.0,2587.0 918.0,2583.0 L 969.0,2577.0 L 1012.0,2497.0 C 1036.0,2453.0 1067.0,2405.0 1081.0,2391.0 C 1114.0,2358.0 1140.0,2282.0 1140.0,2216.0 C 1140.0,2181.0 1147.0,2157.0 1159.0,2140.0 L 1179.0,2115.0 L 1232.0,2139.0 C 1261.0,2152.0 1299.0,2162.0 1317.0,2161.0 C 1340.0,2160.0 1350.0,2165.0 1355.0,2179.0 C 1359.0,2193.0 1374.0,2202.0 1398.0,2206.0 C 1448.0,2215.0 1467.0,2226.0 1475.0,2250.0 C 1478.0,2261.0 1489.0,2270.0 1498.0,2270.0 C 1507.0,2270.0 1536.0,2280.0 1562.0,2292.0 C 1596.0,2308.0 1608.0,2319.0 1603.0,2330.0 C 1600.0,2338.0 1595.0,2357.0 1592.0,2372.0 C 1588.0,2397.0 1591.0,2400.0 1614.0,2400.0 C 1638.0,2400.0 1642.0,2406.0 1662.0,2475.0 C 1681.0,2541.0 1689.0,2554.0 1732.0,2589.0 C 1762.0,2613.0 1796.0,2631.0 1820.0,2635.0 C 1875.0,2644.0 1872.0,2667.0 1810.0,2708.0 C 1769.0,2736.0 1758.0,2740.0 1741.0,2730.0 C 1729.0,2724.0 1720.0,2712.0 1720.0,2704.0 C 1720.0,2677.0 1695.0,2695.0 1692.0,2724.0 C 1687.0,2768.0 1698.0,2803.0 1715.0,2796.0 C 1723.0,2793.0 1737.0,2787.0 1745.0,2784.0 C 1755.0,2780.0 1760.0,2784.0 1760.0,2794.0 C 1760.0,2813.0 1765.0,2814.0 1791.0,2800.0 C 1803.0,2793.0 1810.0,2779.0 1810.0,2761.0 C 1810.0,2739.0 1817.0,2730.0 1839.0,2720.0 C 1864.0,2710.0 1874.0,2712.0 1908.0,2729.0 C 1978.0,2765.0 2001.0,2800.0 1955.0,2800.0 C 1941.0,2800.0 1930.0,2801.0 1929.0,2803.0 C 1929.0,2804.0 1925.0,2843.0 1920.0,2890.0 C 1912.0,2974.0 1912.0,2975.0 1940.0,3005.0 C 1967.0,3033.0 2000.0,3112.0 2000.0,3147.0 C 2000.0,3159.0 2003.0,3160.0 2015.0,3150.0 C 2026.0,3141.0 2028.0,3123.0 2026.0,3082.0 C 2022.0,3036.0 2017.0,3023.0 1996.0,3007.0 C 1982.0,2997.0 1970.0,2980.0 1970.0,2970.0 C 1970.0,2961.0 1964.0,2947.0 1956.0,2941.0 C 1932.0,2921.0 1930.0,2879.0 1953.0,2848.0 C 1964.0,2833.0 1977.0,2820.0 1981.0,2820.0 C 1994.0,2820.0 2001.0,2853.0 1990.0,2864.0 C 1972.0,2882.0 1979.0,2900.0 2005.0,2900.0 C 2028.0,2900.0 2030.0,2896.0 2030.0,2855.0 C 2030.0,2819.0 2033.0,2810.0 2048.0,2810.0 C 2057.0,2810.0 2070.0,2814.0 2076.0,2818.0 C 2092.0,2828.0 2200.0,2961.0 2200.0,2970.0 C 2200.0,2977.0 2245.0,3000.0 2260.0,3000.0 C 2279.0,3000.0 2270.0,2978.0 2238.0,2945.0 C 2171.0,2877.0 2153.0,2854.0 2141.0,2824.0 C 2128.0,2791.0 2095.0,2770.0 2055.0,2770.0 C 2013.0,2770.0 2000.0,2759.0 1994.0,2718.0 C 1989.0,2689.0 1984.0,2680.0 1972.0,2685.0 C 1963.0,2688.0 1937.0,2671.0 1904.0,2640.0 C 1862.0,2600.0 1844.0,2590.0 1817.0,2590.0 C 1768.0,2590.0 1728.0,2546.0 1731.0,2494.0 C 1732.0,2473.0 1728.0,2435.0 1721.0,2410.0 C 1715.0,2385.0 1710.0,2362.0 1710.0,2358.0 C 1710.0,2353.0 1736.0,2350.0 1769.0,2350.0 C 1815.0,2350.0 1835.0,2355.0 1864.0,2375.0 C 1904.0,2402.0 1954.0,2407.0 2037.0,2391.0 C 2148.0,2369.0 2150.0,2369.0 2150.0,2389.0 C 2150.0,2399.0 2153.0,2410.0 2157.0,2413.0 C 2168.0,2425.0 2190.0,2399.0 2190.0,2374.0 C 2190.0,2345.0 2203.0,2337.0 2259.0,2334.0 C 2284.0,2333.0 2338.0,2326.0 2378.0,2320.0 C 2450.0,2308.0 2451.0,2309.0 2474.0,2333.0 C 2487.0,2347.0 2511.0,2365.0 2529.0,2374.0 C 2546.0,2383.0 2560.0,2395.0 2560.0,2400.0 C 2560.0,2405.0 2573.0,2407.0 2589.0,2404.0 C 2605.0,2401.0 2621.0,2403.0 2624.0,2409.0 C 2628.0,2414.0 2636.0,2454.0 2642.0,2497.0 C 2652.0,2563.0 2651.0,2579.0 2638.0,2604.0 C 2624.0,2631.0 2624.0,2636.0 2642.0,2667.0 C 2653.0,2685.0 2665.0,2702.0 2670.0,2705.0 C 2674.0,2707.0 2677.0,2673.0 2677.0,2627.0 C 2676.0,2582.0 2680.0,2526.0 2684.0,2502.0 C 2692.0,2465.0 2690.0,2454.0 2669.0,2427.0 C 2657.0,2410.0 2644.0,2380.0 2640.0,2360.0 L 2635.0,2325.0 L 2570.0,2319.0 C 2528.0,2316.0 2482.0,2303.0 2441.0,2283.0 L 2378.0,2253.0 L 2414.0,2232.0 C 2434.0,2220.0 2450.0,2205.0 2450.0,2198.0 C 2450.0,2191.0 2459.0,2196.0 2469.0,2209.0 C 2484.0,2229.0 2492.0,2232.0 2521.0,2226.0 C 2540.0,2222.0 2575.0,2217.0 2600.0,2214.0 C 2642.0,2209.0 2670.0,2201.0 2714.0,2178.0 C 2724.0,2173.0 2749.0,2171.0 2770.0,2175.0 C 2812.0,2182.0 2830.0,2169.0 2810.0,2145.0 C 2794.0,2126.0 2752.0,2126.0 2705.0,2146.0 C 2684.0,2154.0 2659.0,2159.0 2649.0,2157.0 C 2639.0,2154.0 2623.0,2158.0 2613.0,2166.0 C 2603.0,2173.0 2585.0,2180.0 2574.0,2180.0 C 2562.0,2180.0 2547.0,2187.0 2540.0,2195.0 C 2524.0,2214.0 2500.0,2214.0 2500.0,2196.0 C 2500.0,2188.0 2489.0,2169.0 2476.0,2154.0 C 2454.0,2127.0 2451.0,2127.0 2411.0,2138.0 C 2369.0,2151.0 2358.0,2166.0 2385.0,2176.0 C 2393.0,2180.0 2400.0,2185.0 2400.0,2189.0 C 2400.0,2203.0 2324.0,2220.0 2266.0,2220.0 C 2204.0,2220.0 2198.0,2212.0 2224.0,2162.0 C 2232.0,2146.0 2240.0,2096.0 2242.0,2047.0 C 2245.0,1965.0 2246.0,1960.0 2270.0,1952.0 C 2285.0,1946.0 2305.0,1947.0 2320.0,1952.0 C 2357.0,1966.0 2451.0,1950.0 2485.0,1925.0 C 2526.0,1894.0 2575.0,1870.0 2598.0,1870.0 C 2618.0,1870.0 2680.0,1811.0 2680.0,1792.0 C 2680.0,1785.0 2691.0,1757.0 2705.0,1730.0 C 2728.0,1684.0 2737.0,1678.0 2842.0,1624.0 C 2904.0,1593.0 2963.0,1561.0 2973.0,1552.0 C 2988.0,1538.0 2997.0,1538.0 3068.0,1554.0 C 3110.0,1563.0 3168.0,1571.0 3195.0,1573.0 L 3245.0,1575.0 L 3248.0,1625.0 C 3250.0,1652.0 3256.0,1680.0 3261.0,1686.0 C 3267.0,1693.0 3265.0,1708.0 3255.0,1726.0 C 3236.0,1762.0 3236.0,1799.0 3255.0,1824.0 C 3263.0,1835.0 3270.0,1856.0 3270.0,1872.0 L 3270.0,1900.0 L 5109.0,1902.0 C 6842.0,1905.0 6949.0,1906.0 6967.0,1922.0 C 6983.0,1937.0 7014.0,1941.0 7151.0,1946.0 C 7309.0,1952.0 7316.0,1953.0 7342.0,1977.0 C 7366.0,2000.0 7382.0,2004.0 7477.0,2012.0 C 7536.0,2017.0 7603.0,2027.0 7625.0,2034.0 C 7657.0,2044.0 7687.0,2044.0 7768.0,2035.0 C 7865.0,2024.0 7873.0,2021.0 7908.0,1988.0 C 7928.0,1969.0 7961.0,1941.0 7982.0,1926.0 L 8018.0,1899.0 L 8757.0,1905.0 C 9163.0,1908.0 9635.0,1913.0 9807.0,1916.0 L 10119.0,1922.0 L 10122.0,4744.0 L 10125.0,7565.0 L 10183.0,7677.0 C 10214.0,7739.0 10240.0,7791.0 10240.0,7793.0 C 10240.0,7796.0 10135.0,7800.0 10008.0,7804.0 C 9880.0,7807.0 9716.0,7816.0 9643.0,7823.0 C 9518.0,7834.0 9510.0,7836.0 9470.0,7868.0 C 9421.0,7908.0 9404.0,7907.0 9315.0,7852.0 L 9255.0,7815.0 L 6730.0,7810.0 L 4205.0,7805.0 L 4145.0,7778.0 C 4112.0,7763.0 4070.0,7750.0 4052.0,7750.0 C 4034.0,7750.0 4002.0,7741.0 3980.0,7730.0 C 3926.0,7702.0 3906.0,7705.0 3863.0,7744.0 C 3841.0,7763.0 3810.0,7780.0 3790.0,7783.0 C 3771.0,7786.0 3737.0,7794.0 3714.0,7801.0 C 3679.0,7812.0 3665.0,7811.0 3610.0,7794.0 C 3559.0,7779.0 3546.0,7770.0 3538.0,7748.0 C 3525.0,7713.0 3493.0,7711.0 3480.0,7744.0 C 3465.0,7784.0 3431.0,7799.0 3340.0,7805.0 C 3232.0,7813.0 3174.0,7833.0 3156.0,7869.0 C 3144.0,7892.0 3131.0,7898.0 3079.0,7908.0 C 3037.0,7916.0 3012.0,7916.0 3006.0,7910.0 C 3000.0,7904.0 2984.0,7900.0 2969.0,7900.0 C 2948.0,7900.0 2940.0,7907.0 2931.0,7930.0 C 2925.0,7948.0 2914.0,7960.0 2903.0,7960.0 C 2859.0,7960.0 2809.0,7982.0 2800.0,8005.0 C 2795.0,8018.0 2786.0,8031.0 2781.0,8035.0 C 2775.0,8038.0 2770.0,8048.0 2770.0,8055.0 C 2770.0,8082.0 2687.0,8158.0 2645.0,8168.0 C 2562.0,8190.0 2543.0,8187.0 2505.0,8150.0 C 2477.0,8123.0 2470.0,8120.0 2470.0,8134.0 C 2470.0,8144.0 2480.0,8170.0 2492.0,8192.0 L 2514.0,8231.0 L 2492.0,8293.0 C 2480.0,8327.0 2470.0,8372.0 2470.0,8393.0 C 2470.0,8435.0 2469.0,8436.0 2434.0,8414.0 C 2402.0,8392.0 2378.0,8409.0 2398.0,8440.0 C 2416.0,8469.0 2413.0,8477.0 2385.0,8484.0 L 2359.0,8491.0 L 2387.0,8514.0 C 2402.0,8527.0 2425.0,8540.0 2438.0,8544.0 C 2472.0,8555.0 2468.0,8608.0 2428.0,8658.0 C 2391.0,8704.0 2386.0,8705.0 2350.0,8685.0" fill="pink"/>
</svg>
