<?xml version="1.0" ?>
<svg xmlns="http://www.w3.org/2000/svg" xmlns:ev="http://www.w3.org/2001/xml-events" xmlns:xlink="http://www.w3.org/1999/xlink" baseProfile="full" height="416px" version="1.1" viewBox="-1020.6194024665757 858.4372299328876 12291.145754077563 8512.595304623388" width="600px">
	<defs/>
	<path d="M 1326.0,8644.0 C 1321.0,8631.0 1312.0,8629.0 1285.0,8633.0 C 1257.0,8638.0 1252.0,8636.0 1257.0,8623.0 C 1261.0,8613.0 1254.0,8600.0 1239.0,8589.0 C 1219.0,8574.0 1218.0,8570.0 1233.0,8570.0 C 1244.0,8570.0 1250.0,8562.0 1250.0,8546.0 C 1250.0,8531.0 1257.0,8520.0 1267.0,8518.0 C 1276.0,8516.0 1285.0,8504.0 1286.0,8490.0 C 1288.0,8476.0 1292.0,8450.0 1296.0,8431.0 C 1303.0,8398.0 1302.0,8397.0 1274.0,8405.0 C 1184.0,8427.0 1110.0,8419.0 1110.0,8385.0 C 1110.0,8378.0 1103.0,8364.0 1094.0,8355.0 C 1079.0,8340.0 1076.0,8341.0 1052.0,8356.0 C 1028.0,8372.0 1024.0,8371.0 971.0,8345.0 C 855.0,8287.0 859.0,8289.0 843.0,8302.0 C 835.0,8308.0 822.0,8326.0 814.0,8342.0 C 806.0,8357.0 795.0,8370.0 789.0,8370.0 C 783.0,8370.0 752.0,8385.0 721.0,8404.0 C 649.0,8447.0 506.0,8469.0 457.0,8445.0 C 440.0,8437.0 417.0,8430.0 405.0,8430.0 C 374.0,8430.0 288.0,8400.0 267.0,8382.0 C 248.0,8365.0 252.0,8341.0 281.0,8298.0 C 304.0,8266.0 305.0,8247.0 285.0,8230.0 C 272.0,8219.0 265.0,8221.0 243.0,8241.0 C 229.0,8254.0 211.0,8280.0 203.0,8299.0 C 185.0,8340.0 153.0,8369.0 123.0,8370.0 C 111.0,8370.0 94.0,8380.0 85.0,8393.0 L 69.0,8415.0 L 35.0,8375.0 C 2.0,8337.0 1.0,8335.0 22.0,8332.0 C 34.0,8330.0 58.0,8312.0 76.0,8293.0 C 110.0,8256.0 111.0,8240.0 78.0,8174.0 C 59.0,8138.0 48.0,8070.0 60.0,8070.0 C 66.0,8070.0 65.0,8059.0 60.0,8044.0 C 47.0,8011.0 46.0,8012.0 74.0,8017.0 C 110.0,8024.0 113.0,8006.0 80.0,7965.0 C 36.0,7910.0 60.0,7887.0 110.0,7935.0 C 133.0,7957.0 139.0,7959.0 168.0,7948.0 C 185.0,7941.0 203.0,7939.0 207.0,7943.0 C 221.0,7957.0 209.0,8024.0 190.0,8043.0 C 157.0,8073.0 164.0,8098.0 208.0,8102.0 L 245.0,8105.0 L 242.0,8153.0 C 238.0,8205.0 246.0,8210.0 290.0,8185.0 C 304.0,8177.0 327.0,8171.0 343.0,8170.0 C 365.0,8170.0 370.0,8166.0 370.0,8145.0 C 370.0,8117.0 373.0,8116.0 400.0,8130.0 C 429.0,8145.0 449.0,8132.0 462.0,8088.0 C 477.0,8039.0 513.0,8011.0 541.0,8028.0 C 551.0,8035.0 567.0,8040.0 575.0,8040.0 C 583.0,8040.0 590.0,8047.0 590.0,8055.0 C 590.0,8074.0 617.0,8074.0 650.0,8055.0 C 688.0,8034.0 737.0,8036.0 750.0,8060.0 C 756.0,8071.0 770.0,8080.0 780.0,8080.0 C 795.0,8080.0 800.0,8087.0 800.0,8105.0 C 800.0,8127.0 803.0,8129.0 830.0,8124.0 C 855.0,8118.0 860.0,8121.0 860.0,8137.0 C 860.0,8180.0 924.0,8207.0 950.0,8175.0 C 961.0,8162.0 958.0,8155.0 935.0,8130.0 C 908.0,8101.0 906.0,8065.0 933.0,8075.0 C 940.0,8078.0 956.0,8067.0 968.0,8050.0 C 997.0,8011.0 1020.0,8011.0 1020.0,8050.0 C 1020.0,8071.0 1025.0,8080.0 1037.0,8080.0 C 1046.0,8080.0 1062.0,8088.0 1072.0,8097.0 C 1090.0,8113.0 1094.0,8113.0 1118.0,8099.0 C 1138.0,8088.0 1145.0,8076.0 1146.0,8054.0 C 1148.0,7986.0 1173.0,7984.0 1243.0,8045.0 C 1297.0,8092.0 1329.0,8101.0 1350.0,8075.0 C 1368.0,8054.0 1427.0,8056.0 1439.0,8078.0 C 1444.0,8088.0 1446.0,8115.0 1443.0,8138.0 C 1438.0,8177.0 1439.0,8180.0 1461.0,8180.0 C 1474.0,8180.0 1491.0,8176.0 1499.0,8171.0 C 1508.0,8165.0 1527.0,8167.0 1552.0,8177.0 C 1573.0,8185.0 1597.0,8190.0 1605.0,8186.0 C 1622.0,8180.0 1626.0,8125.0 1610.0,8115.0 C 1605.0,8112.0 1600.0,8102.0 1600.0,8094.0 C 1600.0,8084.0 1612.0,8080.0 1641.0,8080.0 C 1663.0,8080.0 1689.0,8076.0 1699.0,8071.0 C 1711.0,8064.0 1734.0,8070.0 1780.0,8091.0 C 1866.0,8129.0 1890.0,8129.0 1890.0,8091.0 C 1890.0,8055.0 1855.0,8010.0 1827.0,8010.0 C 1815.0,8010.0 1787.0,7995.0 1765.0,7977.0 C 1734.0,7953.0 1725.0,7938.0 1725.0,7915.0 C 1725.0,7885.0 1724.0,7885.0 1655.0,7877.0 C 1517.0,7861.0 1519.0,7862.0 1453.0,7795.0 C 1419.0,7761.0 1382.0,7726.0 1370.0,7717.0 C 1352.0,7705.0 1350.0,7698.0 1359.0,7682.0 C 1367.0,7667.0 1366.0,7659.0 1354.0,7649.0 C 1331.0,7630.0 1349.0,7621.0 1426.0,7617.0 C 1465.0,7614.0 1506.0,7607.0 1519.0,7601.0 C 1542.0,7588.0 1560.0,7594.0 1560.0,7614.0 C 1560.0,7621.0 1568.0,7635.0 1579.0,7644.0 C 1604.0,7667.0 1644.0,7656.0 1671.0,7619.0 C 1682.0,7603.0 1702.0,7587.0 1715.0,7584.0 C 1753.0,7575.0 1767.0,7552.0 1747.0,7533.0 C 1734.0,7520.0 1726.0,7519.0 1706.0,7528.0 C 1686.0,7537.0 1673.0,7534.0 1628.0,7510.0 C 1599.0,7494.0 1546.0,7467.0 1510.0,7450.0 C 1433.0,7414.0 1352.0,7360.0 1345.0,7342.0 C 1336.0,7319.0 1349.0,7310.0 1376.0,7320.0 C 1423.0,7338.0 1472.0,7322.0 1505.0,7278.0 C 1533.0,7241.0 1538.0,7239.0 1570.0,7245.0 C 1627.0,7256.0 1643.0,7256.0 1647.0,7243.0 C 1649.0,7236.0 1636.0,7225.0 1618.0,7217.0 C 1600.0,7209.0 1577.0,7193.0 1566.0,7182.0 C 1550.0,7163.0 1549.0,7157.0 1560.0,7130.0 C 1578.0,7086.0 1603.0,7075.0 1636.0,7097.0 C 1661.0,7113.0 1664.0,7113.0 1705.0,7091.0 C 1736.0,7075.0 1760.0,7070.0 1796.0,7072.0 L 1845.0,7075.0 L 1843.0,7035.0 C 1841.0,6998.0 1842.0,6996.0 1855.0,7014.0 C 1863.0,7025.0 1870.0,7043.0 1870.0,7053.0 C 1870.0,7070.0 1875.0,7072.0 1901.0,7066.0 C 1919.0,7063.0 1939.0,7065.0 1946.0,7071.0 C 1954.0,7077.0 1967.0,7080.0 1975.0,7076.0 C 1985.0,7072.0 1990.0,7077.0 1990.0,7090.0 C 1990.0,7113.0 1991.0,7114.0 2041.0,7098.0 C 2076.0,7088.0 2083.0,7089.0 2103.0,7107.0 C 2115.0,7119.0 2143.0,7136.0 2165.0,7147.0 C 2201.0,7163.0 2205.0,7169.0 2208.0,7206.0 C 2211.0,7253.0 2192.0,7280.0 2156.0,7280.0 C 2144.0,7280.0 2125.0,7286.0 2115.0,7294.0 C 2097.0,7307.0 2097.0,7309.0 2114.0,7335.0 C 2127.0,7355.0 2129.0,7365.0 2121.0,7373.0 C 2105.0,7389.0 2108.0,7417.0 2126.0,7424.0 C 2162.0,7438.0 2186.0,7430.0 2197.0,7401.0 C 2208.0,7372.0 2208.0,7372.0 2288.0,7373.0 C 2362.0,7373.0 2369.0,7375.0 2372.0,7394.0 C 2374.0,7409.0 2382.0,7415.0 2400.0,7415.0 C 2422.0,7415.0 2425.0,7420.0 2428.0,7453.0 C 2431.0,7482.0 2435.0,7490.0 2451.0,7490.0 C 2498.0,7490.0 2531.0,7444.0 2499.0,7424.0 C 2476.0,7410.0 2533.0,7380.0 2582.0,7380.0 C 2641.0,7380.0 2660.0,7373.0 2660.0,7350.0 C 2660.0,7340.0 2667.0,7327.0 2675.0,7320.0 C 2695.0,7304.0 2819.0,7278.0 2833.0,7287.0 C 2840.0,7291.0 2885.0,7295.0 2935.0,7295.0 C 3045.0,7297.0 3242.0,7317.0 3291.0,7332.0 C 3313.0,7338.0 3334.0,7339.0 3341.0,7334.0 C 3349.0,7329.0 3364.0,7324.0 3375.0,7323.0 C 3386.0,7322.0 3413.0,7319.0 3435.0,7316.0 C 3457.0,7313.0 3491.0,7310.0 3511.0,7311.0 C 3537.0,7311.0 3561.0,7300.0 3603.0,7269.0 C 3662.0,7225.0 3670.0,7211.0 3646.0,7191.0 C 3636.0,7183.0 3616.0,7185.0 3565.0,7201.0 C 3508.0,7218.0 3493.0,7220.0 3471.0,7210.0 C 3457.0,7203.0 3420.0,7195.0 3390.0,7191.0 C 3343.0,7186.0 3335.0,7182.0 3330.0,7160.0 C 3325.0,7141.0 3318.0,7136.0 3299.0,7138.0 C 3245.0,7145.0 3182.0,7140.0 3135.0,7126.0 C 3108.0,7117.0 3063.0,7110.0 3035.0,7110.0 C 2982.0,7110.0 2896.0,7076.0 2871.0,7047.0 C 2862.0,7036.0 2842.0,7030.0 2814.0,7030.0 C 2790.0,7030.0 2770.0,7028.0 2770.0,7025.0 C 2770.0,7022.0 2785.0,7005.0 2804.0,6987.0 C 2843.0,6950.0 2860.0,6920.0 2860.0,6890.0 C 2860.0,6876.0 2868.0,6866.0 2881.0,6863.0 C 2895.0,6859.0 2900.0,6851.0 2897.0,6839.0 C 2891.0,6816.0 2908.0,6810.0 2938.0,6823.0 C 2956.0,6831.0 2969.0,6830.0 2993.0,6818.0 C 3011.0,6809.0 3037.0,6799.0 3052.0,6796.0 C 3088.0,6788.0 3162.0,6730.0 3178.0,6697.0 C 3194.0,6665.0 3209.0,6663.0 3243.0,6690.0 C 3278.0,6718.0 3292.0,6715.0 3288.0,6683.0 C 3286.0,6662.0 3274.0,6650.0 3242.0,6633.0 C 3218.0,6620.0 3192.0,6603.0 3184.0,6595.0 C 3175.0,6587.0 3154.0,6580.0 3137.0,6581.0 C 3081.0,6581.0 3036.0,6574.0 3012.0,6562.0 C 2999.0,6554.0 2976.0,6552.0 2956.0,6555.0 C 2936.0,6559.0 2920.0,6557.0 2916.0,6551.0 C 2912.0,6545.0 2894.0,6540.0 2877.0,6540.0 C 2833.0,6540.0 2786.0,6497.0 2800.0,6470.0 C 2806.0,6459.0 2808.0,6427.0 2804.0,6395.0 C 2797.0,6339.0 2806.0,6326.0 2830.0,6355.0 C 2837.0,6363.0 2851.0,6370.0 2861.0,6370.0 C 2871.0,6370.0 2882.0,6375.0 2885.0,6380.0 C 2895.0,6397.0 2924.0,6391.0 2938.0,6370.0 C 2950.0,6350.0 2950.0,6350.0 2982.0,6370.0 C 3021.0,6394.0 3090.0,6397.0 3090.0,6376.0 C 3090.0,6368.0 3074.0,6352.0 3055.0,6340.0 C 3036.0,6328.0 3020.0,6316.0 3020.0,6314.0 C 3020.0,6312.0 3043.0,6312.0 3072.0,6314.0 C 3113.0,6317.0 3125.0,6322.0 3131.0,6338.0 C 3135.0,6349.0 3146.0,6363.0 3156.0,6368.0 C 3179.0,6381.0 3261.0,6371.0 3282.0,6353.0 C 3305.0,6333.0 3330.0,6343.0 3330.0,6372.0 C 3330.0,6410.0 3344.0,6423.0 3378.0,6415.0 C 3421.0,6406.0 3450.0,6424.0 3450.0,6460.0 C 3450.0,6483.0 3455.0,6490.0 3470.0,6490.0 C 3486.0,6490.0 3489.0,6495.0 3484.0,6519.0 C 3477.0,6550.0 3494.0,6590.0 3513.0,6590.0 C 3520.0,6590.0 3531.0,6581.0 3538.0,6570.0 C 3556.0,6541.0 3579.0,6545.0 3591.0,6579.0 C 3599.0,6602.0 3608.0,6609.0 3638.0,6612.0 C 3689.0,6619.0 3697.0,6614.0 3705.0,6574.0 C 3709.0,6548.0 3721.0,6533.0 3752.0,6514.0 L 3792.0,6488.0 L 3761.0,6456.0 C 3744.0,6439.0 3730.0,6421.0 3730.0,6418.0 C 3730.0,6409.0 3823.0,6385.0 3846.0,6388.0 C 3857.0,6390.0 3879.0,6386.0 3894.0,6380.0 C 3917.0,6372.0 3926.0,6373.0 3947.0,6390.0 C 3961.0,6401.0 3977.0,6410.0 3982.0,6410.0 C 4000.0,6410.0 4060.0,6342.0 4060.0,6322.0 C 4060.0,6286.0 4096.0,6275.0 4142.0,6296.0 C 4179.0,6313.0 4184.0,6313.0 4213.0,6297.0 C 4231.0,6288.0 4256.0,6280.0 4270.0,6278.0 C 4302.0,6274.0 4309.0,6229.0 4285.0,6184.0 C 4269.0,6154.0 4269.0,6150.0 4285.0,6120.0 L 4302.0,6087.0 L 4264.0,6053.0 C 4242.0,6034.0 4210.0,6012.0 4193.0,6004.0 C 4152.0,5986.0 4152.0,5975.0 4190.0,5955.0 C 4207.0,5946.0 4220.0,5935.0 4220.0,5930.0 C 4220.0,5924.0 4248.0,5920.0 4283.0,5920.0 C 4340.0,5920.0 4349.0,5917.0 4375.0,5890.0 C 4391.0,5874.0 4412.0,5860.0 4422.0,5860.0 C 4432.0,5860.0 4444.0,5852.0 4447.0,5843.0 C 4458.0,5815.0 4502.0,5781.0 4537.0,5774.0 C 4556.0,5771.0 4570.0,5761.0 4573.0,5749.0 C 4576.0,5738.0 4587.0,5730.0 4599.0,5730.0 C 4610.0,5730.0 4625.0,5721.0 4632.0,5710.0 C 4640.0,5698.0 4656.0,5690.0 4673.0,5690.0 C 4709.0,5690.0 4740.0,5674.0 4740.0,5655.0 C 4740.0,5630.0 4785.0,5638.0 4809.0,5666.0 C 4830.0,5690.0 4837.0,5692.0 4880.0,5686.0 C 4941.0,5678.0 4955.0,5692.0 4946.0,5753.0 C 4940.0,5795.0 4941.0,5797.0 4974.0,5813.0 C 5014.0,5832.0 5098.0,5824.0 5128.0,5798.0 C 5137.0,5789.0 5167.0,5780.0 5194.0,5777.0 C 5228.0,5774.0 5248.0,5766.0 5259.0,5752.0 C 5271.0,5737.0 5289.0,5730.0 5324.0,5728.0 C 5351.0,5726.0 5375.0,5720.0 5377.0,5714.0 C 5384.0,5693.0 5350.0,5671.0 5302.0,5665.0 C 5276.0,5662.0 5247.0,5655.0 5237.0,5649.0 C 5227.0,5644.0 5215.0,5642.0 5209.0,5646.0 C 5203.0,5649.0 5180.0,5639.0 5157.0,5623.0 C 5134.0,5608.0 5109.0,5595.0 5101.0,5595.0 C 5093.0,5595.0 5085.0,5589.0 5082.0,5581.0 C 5078.0,5570.0 5084.0,5569.0 5106.0,5574.0 C 5122.0,5578.0 5149.0,5584.0 5166.0,5587.0 L 5196.0,5592.0 L 5195.0,5528.0 C 5194.0,5494.0 5191.0,5459.0 5189.0,5452.0 C 5187.0,5444.0 5195.0,5431.0 5207.0,5423.0 C 5226.0,5410.0 5230.0,5410.0 5234.0,5421.0 C 5247.0,5464.0 5251.0,5471.0 5265.0,5477.0 C 5274.0,5480.0 5293.0,5477.0 5308.0,5469.0 C 5323.0,5462.0 5338.0,5454.0 5343.0,5452.0 C 5347.0,5450.0 5350.0,5460.0 5350.0,5474.0 C 5350.0,5505.0 5363.0,5514.0 5397.0,5505.0 C 5419.0,5500.0 5421.0,5495.0 5415.0,5472.0 C 5395.0,5399.0 5420.0,5322.0 5460.0,5335.0 C 5469.0,5338.0 5496.0,5333.0 5520.0,5325.0 C 5559.0,5311.0 5565.0,5311.0 5580.0,5325.0 C 5604.0,5347.0 5618.0,5344.0 5635.0,5310.0 C 5644.0,5293.0 5655.0,5282.0 5660.0,5285.0 C 5665.0,5288.0 5678.0,5285.0 5690.0,5278.0 C 5715.0,5262.0 5717.0,5212.0 5693.0,5203.0 C 5683.0,5200.0 5668.0,5191.0 5660.0,5184.0 C 5652.0,5177.0 5632.0,5170.0 5615.0,5168.0 C 5588.0,5165.0 5585.0,5162.0 5587.0,5134.0 C 5589.0,5115.0 5583.0,5097.0 5575.0,5090.0 C 5567.0,5083.0 5560.0,5063.0 5560.0,5045.0 C 5560.0,5002.0 5551.0,4980.0 5534.0,4980.0 C 5519.0,4980.0 5516.0,4968.0 5527.0,4956.0 C 5531.0,4952.0 5535.0,4941.0 5535.0,4932.0 C 5535.0,4919.0 5542.0,4916.0 5562.0,4918.0 C 5579.0,4920.0 5602.0,4912.0 5621.0,4898.0 C 5644.0,4881.0 5663.0,4876.0 5698.0,4877.0 C 5734.0,4878.0 5752.0,4873.0 5778.0,4854.0 C 5807.0,4831.0 5813.0,4830.0 5844.0,4841.0 C 5885.0,4856.0 5910.0,4842.0 5910.0,4805.0 C 5910.0,4777.0 5927.0,4763.0 5965.0,4758.0 C 5988.0,4756.0 5995.0,4750.0 5996.0,4732.0 C 5997.0,4720.0 6000.0,4707.0 6003.0,4704.0 C 6011.0,4696.0 6043.0,4696.0 6066.0,4704.0 C 6080.0,4708.0 6095.0,4704.0 6110.0,4692.0 C 6133.0,4674.0 6134.0,4674.0 6152.0,4692.0 C 6179.0,4719.0 6269.0,4717.0 6299.0,4689.0 C 6312.0,4677.0 6320.0,4659.0 6318.0,4647.0 C 6315.0,4628.0 6309.0,4625.0 6280.0,4628.0 C 6245.0,4631.0 6245.0,4631.0 6243.0,4588.0 C 6242.0,4550.0 6247.0,4540.0 6288.0,4498.0 L 6333.0,4451.0 L 6361.0,4470.0 C 6395.0,4495.0 6407.0,4495.0 6415.0,4470.0 C 6427.0,4431.0 6450.0,4455.0 6450.0,4507.0 C 6450.0,4532.0 6451.0,4533.0 6500.0,4527.0 C 6540.0,4522.0 6550.0,4524.0 6550.0,4536.0 C 6550.0,4557.0 6574.0,4563.0 6612.0,4552.0 C 6695.0,4527.0 6698.0,4527.0 6702.0,4562.0 C 6704.0,4587.0 6710.0,4595.0 6725.0,4595.0 C 6737.0,4595.0 6746.0,4587.0 6748.0,4575.0 C 6755.0,4529.0 6761.0,4524.0 6776.0,4545.0 C 6789.0,4563.0 6793.0,4563.0 6823.0,4550.0 C 6840.0,4543.0 6890.0,4535.0 6933.0,4532.0 C 6999.0,4529.0 7010.0,4526.0 7010.0,4510.0 C 7010.0,4483.0 6987.0,4470.0 6946.0,4473.0 C 6919.0,4474.0 6905.0,4470.0 6896.0,4458.0 C 6876.0,4426.0 6900.0,4406.0 6966.0,4399.0 C 6998.0,4396.0 7049.0,4385.0 7078.0,4374.0 L 7130.0,4355.0 L 7126.0,4265.0 L 7122.0,4175.0 L 7068.0,4174.0 C 7000.0,4173.0 6994.0,4169.0 6987.0,4123.0 C 6984.0,4102.0 6979.0,4077.0 6975.0,4068.0 C 6970.0,4054.0 6981.0,4045.0 7033.0,4020.0 C 7068.0,4004.0 7102.0,3990.0 7109.0,3990.0 C 7115.0,3990.0 7126.0,3979.0 7132.0,3965.0 C 7141.0,3945.0 7151.0,3940.0 7178.0,3940.0 C 7202.0,3940.0 7220.0,3932.0 7237.0,3914.0 C 7255.0,3895.0 7268.0,3889.0 7293.0,3892.0 C 7324.0,3895.0 7325.0,3894.0 7327.0,3855.0 C 7330.0,3783.0 7341.0,3740.0 7357.0,3740.0 C 7368.0,3740.0 7370.0,3733.0 7366.0,3713.0 C 7361.0,3689.0 7369.0,3676.0 7415.0,3626.0 C 7445.0,3594.0 7470.0,3559.0 7470.0,3549.0 C 7470.0,3525.0 7508.0,3462.0 7530.0,3450.0 C 7540.0,3444.0 7559.0,3440.0 7573.0,3440.0 C 7603.0,3440.0 7636.0,3405.0 7645.0,3362.0 C 7650.0,3336.0 7648.0,3329.0 7633.0,3323.0 C 7594.0,3309.0 7590.0,3300.0 7607.0,3266.0 C 7615.0,3249.0 7638.0,3222.0 7656.0,3207.0 C 7677.0,3189.0 7690.0,3170.0 7690.0,3155.0 C 7690.0,3129.0 7705.0,3114.0 7715.0,3130.0 C 7725.0,3147.0 7740.0,3141.0 7740.0,3121.0 C 7740.0,3110.0 7745.0,3098.0 7751.0,3094.0 C 7757.0,3091.0 7759.0,3074.0 7756.0,3056.0 C 7751.0,3029.0 7755.0,3018.0 7781.0,2989.0 C 7809.0,2958.0 7811.0,2951.0 7805.0,2905.0 C 7802.0,2878.0 7792.0,2847.0 7783.0,2838.0 C 7763.0,2816.0 7774.0,2800.0 7810.0,2800.0 C 7847.0,2800.0 7855.0,2775.0 7831.0,2737.0 L 7811.0,2706.0 L 7856.0,2654.0 C 7880.0,2625.0 7900.0,2597.0 7900.0,2591.0 C 7900.0,2585.0 7913.0,2574.0 7930.0,2565.0 C 7947.0,2556.0 7960.0,2545.0 7960.0,2540.0 C 7960.0,2534.0 7969.0,2530.0 7979.0,2530.0 C 8008.0,2530.0 8050.0,2474.0 8050.0,2436.0 C 8050.0,2409.0 8044.0,2401.0 8018.0,2389.0 C 7970.0,2368.0 7971.0,2351.0 8019.0,2357.0 C 8054.0,2362.0 8060.0,2360.0 8060.0,2345.0 C 8060.0,2335.0 8053.0,2318.0 8043.0,2308.0 C 8019.0,2281.0 8035.0,2274.0 8077.0,2294.0 C 8119.0,2314.0 8134.0,2303.0 8126.0,2258.0 C 8121.0,2233.0 8123.0,2230.0 8150.0,2230.0 C 8178.0,2230.0 8180.0,2227.0 8180.0,2195.0 C 8180.0,2155.0 8185.0,2153.0 8213.0,2177.0 C 8231.0,2194.0 8232.0,2194.0 8246.0,2175.0 C 8254.0,2165.0 8260.0,2144.0 8260.0,2130.0 C 8260.0,2116.0 8266.0,2096.0 8273.0,2086.0 C 8285.0,2069.0 8287.0,2070.0 8298.0,2094.0 C 8312.0,2124.0 8350.0,2130.0 8350.0,2102.0 C 8350.0,2073.0 8404.0,2029.0 8451.0,2019.0 C 8509.0,2006.0 8560.0,1951.0 8560.0,1903.0 C 8560.0,1869.0 8561.0,1868.0 8595.0,1872.0 C 8620.0,1875.0 8635.0,1871.0 8646.0,1859.0 C 8661.0,1842.0 8660.0,1839.0 8641.0,1814.0 C 8625.0,1793.0 8623.0,1784.0 8631.0,1774.0 C 8647.0,1754.0 8670.0,1757.0 8670.0,1778.0 C 8670.0,1804.0 8716.0,1828.0 8738.0,1813.0 C 8747.0,1807.0 8754.0,1794.0 8752.0,1784.0 C 8750.0,1773.0 8748.0,1754.0 8747.0,1740.0 C 8745.0,1720.0 8739.0,1714.0 8712.0,1712.0 C 8688.0,1710.0 8676.0,1701.0 8665.0,1680.0 C 8646.0,1643.0 8646.0,1630.0 8665.0,1630.0 C 8674.0,1630.0 8680.0,1621.0 8680.0,1606.0 C 8680.0,1577.0 8715.0,1565.0 8754.0,1580.0 C 8771.0,1586.0 8789.0,1586.0 8807.0,1579.0 C 8850.0,1563.0 8863.0,1574.0 8855.0,1620.0 C 8849.0,1655.0 8850.0,1660.0 8868.0,1660.0 C 8889.0,1660.0 8900.0,1642.0 8900.0,1609.0 C 8900.0,1580.0 8951.0,1584.0 8989.0,1616.0 C 9025.0,1646.0 9026.0,1653.0 9000.0,1702.0 C 8984.0,1733.0 8983.0,1740.0 8995.0,1750.0 C 9005.0,1759.0 9015.0,1758.0 9038.0,1746.0 C 9084.0,1722.0 9095.0,1704.0 9081.0,1674.0 C 9075.0,1660.0 9070.0,1640.0 9070.0,1630.0 C 9070.0,1609.0 9094.0,1603.0 9105.0,1621.0 C 9110.0,1628.0 9119.0,1625.0 9132.0,1614.0 C 9148.0,1598.0 9153.0,1598.0 9160.0,1610.0 C 9172.0,1629.0 9170.0,1759.0 9158.0,1766.0 C 9154.0,1769.0 9150.0,1778.0 9150.0,1786.0 C 9150.0,1797.0 9158.0,1800.0 9178.0,1798.0 C 9202.0,1795.0 9205.0,1791.0 9208.0,1751.0 C 9210.0,1726.0 9218.0,1701.0 9226.0,1696.0 C 9234.0,1690.0 9248.0,1670.0 9258.0,1651.0 C 9281.0,1604.0 9296.0,1602.0 9314.0,1645.0 C 9323.0,1665.0 9334.0,1679.0 9339.0,1676.0 C 9351.0,1668.0 9360.0,1721.0 9350.0,1741.0 C 9345.0,1750.0 9325.0,1769.0 9305.0,1784.0 C 9272.0,1809.0 9254.0,1859.0 9283.0,1847.0 C 9369.0,1809.0 9419.0,1790.0 9435.0,1790.0 C 9464.0,1790.0 9502.0,1819.0 9493.0,1833.0 C 9488.0,1840.0 9485.0,1856.0 9485.0,1870.0 C 9485.0,1892.0 9480.0,1896.0 9445.0,1900.0 C 9413.0,1904.0 9404.0,1910.0 9402.0,1927.0 C 9398.0,1957.0 9342.0,2003.0 9321.0,1994.0 C 9312.0,1990.0 9296.0,1988.0 9285.0,1988.0 C 9274.0,1989.0 9256.0,1990.0 9246.0,1990.0 C 9235.0,1991.0 9208.0,1973.0 9186.0,1951.0 C 9141.0,1906.0 9100.0,1898.0 9064.0,1925.0 C 9054.0,1933.0 9032.0,1940.0 9017.0,1940.0 C 8983.0,1940.0 8969.0,1968.0 8994.0,1986.0 C 9009.0,1997.0 9020.0,1996.0 9059.0,1981.0 C 9110.0,1960.0 9145.0,1968.0 9156.0,2002.0 C 9159.0,2013.0 9175.0,2026.0 9191.0,2032.0 C 9231.0,2046.0 9228.0,2064.0 9188.0,2056.0 C 9165.0,2052.0 9146.0,2056.0 9123.0,2070.0 C 9096.0,2086.0 9077.0,2089.0 9001.0,2085.0 L 8912.0,2082.0 L 8886.0,2118.0 C 8872.0,2138.0 8864.0,2158.0 8869.0,2163.0 C 8874.0,2168.0 8909.0,2162.0 8949.0,2150.0 C 9003.0,2134.0 9025.0,2132.0 9040.0,2140.0 C 9069.0,2156.0 9065.0,2167.0 9021.0,2190.0 C 8999.0,2201.0 8977.0,2216.0 8973.0,2222.0 C 8958.0,2246.0 8901.0,2280.0 8877.0,2280.0 C 8865.0,2280.0 8850.0,2284.0 8844.0,2289.0 C 8839.0,2295.0 8809.0,2313.0 8777.0,2330.0 C 8733.0,2353.0 8711.0,2360.0 8689.0,2355.0 C 8667.0,2350.0 8658.0,2353.0 8654.0,2365.0 C 8648.0,2381.0 8658.0,2393.0 8685.0,2404.0 C 8691.0,2406.0 8690.0,2413.0 8683.0,2421.0 C 8663.0,2442.0 8668.0,2469.0 8693.0,2475.0 C 8717.0,2481.0 8813.0,2437.0 8890.0,2384.0 C 8966.0,2331.0 8998.0,2318.0 9019.0,2330.0 C 9064.0,2353.0 9115.0,2335.0 9090.0,2305.0 C 9072.0,2284.0 9091.0,2265.0 9169.0,2225.0 C 9205.0,2206.0 9249.0,2182.0 9265.0,2171.0 C 9300.0,2147.0 9375.0,2143.0 9403.0,2165.0 C 9423.0,2179.0 9444.0,2176.0 9470.0,2154.0 C 9478.0,2147.0 9496.0,2142.0 9510.0,2143.0 C 9524.0,2143.0 9544.0,2141.0 9555.0,2137.0 C 9569.0,2132.0 9585.0,2138.0 9605.0,2154.0 C 9631.0,2175.0 9633.0,2181.0 9622.0,2197.0 C 9598.0,2232.0 9598.0,2240.0 9620.0,2275.0 C 9650.0,2323.0 9676.0,2321.0 9691.0,2270.0 C 9705.0,2225.0 9725.0,2218.0 9734.0,2255.0 C 9743.0,2291.0 9762.0,2295.0 9809.0,2271.0 C 9840.0,2255.0 9855.0,2252.0 9874.0,2260.0 C 9888.0,2265.0 9905.0,2267.0 9912.0,2265.0 C 9919.0,2262.0 9950.0,2266.0 9980.0,2273.0 L 10035.0,2286.0 L 10032.0,2339.0 L 10029.0,2392.0 L 10069.0,2385.0 C 10106.0,2379.0 10111.0,2381.0 10121.0,2404.0 C 10131.0,2424.0 10130.0,2433.0 10119.0,2446.0 C 10107.0,2461.0 10108.0,2465.0 10128.0,2478.0 C 10140.0,2486.0 10150.0,2503.0 10150.0,2516.0 C 10150.0,2540.0 10142.0,2544.0 10106.0,2540.0 C 10096.0,2539.0 10079.0,2548.0 10069.0,2559.0 C 10046.0,2584.0 10032.0,2586.0 10024.0,2565.0 C 10016.0,2545.0 9982.0,2536.0 9965.0,2550.0 C 9957.0,2557.0 9950.0,2578.0 9950.0,2597.0 C 9950.0,2638.0 9928.0,2650.0 9900.0,2625.0 C 9883.0,2610.0 9876.0,2609.0 9854.0,2618.0 C 9830.0,2630.0 9829.0,2633.0 9836.0,2690.0 C 9841.0,2740.0 9840.0,2750.0 9827.0,2750.0 C 9819.0,2750.0 9809.0,2757.0 9806.0,2766.0 C 9802.0,2777.0 9792.0,2780.0 9772.0,2775.0 C 9753.0,2771.0 9739.0,2774.0 9731.0,2784.0 C 9724.0,2793.0 9690.0,2801.0 9645.0,2805.0 C 9557.0,2814.0 9529.0,2834.0 9548.0,2875.0 C 9558.0,2896.0 9555.0,2903.0 9527.0,2932.0 C 9499.0,2961.0 9487.0,2966.0 9430.0,2970.0 C 9366.0,2975.0 9365.0,2975.0 9365.0,3005.0 C 9365.0,3026.0 9372.0,3038.0 9390.0,3047.0 C 9420.0,3062.0 9518.0,3064.0 9556.0,3050.0 C 9571.0,3044.0 9587.0,3043.0 9591.0,3047.0 C 9604.0,3060.0 9584.0,3176.0 9561.0,3224.0 C 9536.0,3274.0 9536.0,3288.0 9555.0,3314.0 C 9565.0,3327.0 9566.0,3338.0 9560.0,3351.0 C 9554.0,3361.0 9550.0,3381.0 9550.0,3397.0 C 9550.0,3414.0 9536.0,3443.0 9514.0,3470.0 C 9495.0,3494.0 9476.0,3527.0 9473.0,3542.0 C 9470.0,3557.0 9461.0,3571.0 9453.0,3574.0 C 9442.0,3579.0 9440.0,3588.0 9445.0,3608.0 C 9455.0,3648.0 9469.0,3660.0 9507.0,3660.0 L 9541.0,3660.0 L 9534.0,3710.0 C 9528.0,3757.0 9529.0,3760.0 9555.0,3772.0 C 9583.0,3785.0 9584.0,3799.0 9564.0,3868.0 C 9559.0,3886.0 9561.0,3890.0 9582.0,3890.0 C 9595.0,3890.0 9611.0,3885.0 9618.0,3878.0 C 9637.0,3859.0 9640.0,3874.0 9629.0,3934.0 C 9622.0,3974.0 9622.0,4001.0 9629.0,4019.0 C 9634.0,4033.0 9640.0,4056.0 9642.0,4070.0 C 9644.0,4087.0 9655.0,4100.0 9678.0,4110.0 C 9703.0,4122.0 9709.0,4129.0 9704.0,4145.0 C 9701.0,4156.0 9697.0,4180.0 9696.0,4198.0 C 9694.0,4217.0 9687.0,4236.0 9679.0,4241.0 C 9661.0,4252.0 9650.0,4252.0 9650.0,4241.0 C 9650.0,4236.0 9641.0,4228.0 9629.0,4225.0 C 9613.0,4220.0 9610.0,4211.0 9612.0,4187.0 C 9615.0,4160.0 9611.0,4154.0 9590.0,4152.0 C 9577.0,4150.0 9551.0,4135.0 9532.0,4119.0 C 9514.0,4103.0 9490.0,4090.0 9479.0,4090.0 C 9468.0,4090.0 9443.0,4073.0 9422.0,4052.0 C 9402.0,4031.0 9364.0,4006.0 9337.0,3996.0 C 9287.0,3977.0 9286.0,3976.0 9275.0,3888.0 C 9267.0,3828.0 9253.0,3819.0 9223.0,3854.0 C 9196.0,3885.0 9192.0,3941.0 9215.0,3960.0 C 9234.0,3976.0 9234.0,3990.0 9216.0,3990.0 C 9208.0,3990.0 9187.0,4008.0 9170.0,4030.0 L 9138.0,4071.0 L 9103.0,4050.0 C 9054.0,4021.0 9003.0,4024.0 8968.0,4057.0 C 8947.0,4077.0 8940.0,4080.0 8940.0,4068.0 C 8940.0,4043.0 8859.0,4024.0 8823.0,4041.0 C 8784.0,4060.0 8757.0,4120.0 8756.0,4192.0 C 8755.0,4258.0 8771.0,4280.0 8821.0,4280.0 C 8855.0,4280.0 8864.0,4302.0 8849.0,4347.0 C 8843.0,4366.0 8841.0,4393.0 8845.0,4407.0 L 8851.0,4433.0 L 8937.0,4426.0 L 9023.0,4420.0 L 9054.0,4456.0 C 9082.0,4488.0 9092.0,4493.0 9150.0,4499.0 C 9186.0,4503.0 9221.0,4509.0 9228.0,4513.0 C 9250.0,4528.0 9230.0,4540.0 9185.0,4540.0 C 9151.0,4540.0 9133.0,4547.0 9108.0,4568.0 C 9090.0,4583.0 9063.0,4601.0 9049.0,4607.0 C 9018.0,4621.0 9000.0,4678.0 9011.0,4730.0 C 9024.0,4788.0 9002.0,4810.0 8930.0,4810.0 C 8879.0,4810.0 8869.0,4813.0 8852.0,4835.0 C 8840.0,4850.0 8826.0,4858.0 8817.0,4854.0 C 8808.0,4851.0 8790.0,4856.0 8776.0,4865.0 C 8752.0,4881.0 8749.0,4881.0 8724.0,4861.0 C 8704.0,4845.0 8694.0,4843.0 8678.0,4851.0 C 8668.0,4857.0 8656.0,4868.0 8653.0,4876.0 C 8647.0,4893.0 8620.0,4894.0 8585.0,4878.0 C 8563.0,4868.0 8557.0,4869.0 8544.0,4888.0 C 8535.0,4901.0 8518.0,4910.0 8503.0,4910.0 C 8488.0,4910.0 8458.0,4926.0 8429.0,4951.0 C 8368.0,5002.0 8358.0,5039.0 8389.0,5110.0 C 8401.0,5138.0 8408.0,5165.0 8405.0,5170.0 C 8402.0,5175.0 8409.0,5197.0 8422.0,5218.0 C 8444.0,5257.0 8444.0,5258.0 8424.0,5285.0 C 8383.0,5343.0 8379.0,5355.0 8384.0,5398.0 C 8387.0,5421.0 8397.0,5454.0 8405.0,5470.0 C 8423.0,5504.0 8409.0,5511.0 8374.0,5485.0 C 8348.0,5466.0 8311.0,5466.0 8288.0,5487.0 C 8271.0,5502.0 8268.0,5502.0 8240.0,5482.0 C 8224.0,5470.0 8197.0,5460.0 8180.0,5460.0 C 8163.0,5460.0 8142.0,5456.0 8132.0,5452.0 C 8123.0,5447.0 8100.0,5436.0 8083.0,5427.0 C 8054.0,5413.0 8049.0,5413.0 8035.0,5426.0 C 8016.0,5445.0 8016.0,5451.0 8035.0,5476.0 C 8043.0,5486.0 8050.0,5509.0 8050.0,5525.0 C 8050.0,5549.0 8060.0,5563.0 8100.0,5595.0 C 8128.0,5617.0 8153.0,5643.0 8156.0,5653.0 C 8159.0,5664.0 8178.0,5690.0 8197.0,5711.0 C 8231.0,5749.0 8232.0,5751.0 8215.0,5764.0 C 8196.0,5778.0 8147.0,5769.0 8134.0,5749.0 C 8131.0,5744.0 8120.0,5740.0 8109.0,5740.0 C 8090.0,5740.0 8089.0,5744.0 8095.0,5779.0 C 8103.0,5827.0 8091.0,5836.0 8049.0,5814.0 C 8023.0,5801.0 8016.0,5800.0 8009.0,5812.0 C 7992.0,5838.0 8001.0,5851.0 8058.0,5878.0 C 8105.0,5900.0 8116.0,5910.0 8118.0,5933.0 C 8121.0,5954.0 8117.0,5960.0 8102.0,5960.0 C 8091.0,5960.0 8077.0,5953.0 8070.0,5945.0 C 8041.0,5910.0 8014.0,5949.0 8039.0,5989.0 C 8045.0,5999.0 8044.0,6016.0 8035.0,6037.0 C 8025.0,6061.0 8024.0,6078.0 8030.0,6095.0 C 8036.0,6111.0 8036.0,6129.0 8030.0,6146.0 C 8018.0,6176.0 8024.0,6190.0 8049.0,6190.0 C 8076.0,6190.0 8082.0,6202.0 8063.0,6222.0 C 8042.0,6246.0 8032.0,6245.0 8028.0,6218.0 C 8025.0,6194.0 8013.0,6192.0 7960.0,6205.0 C 7940.0,6210.0 7933.0,6206.0 7925.0,6188.0 C 7912.0,6158.0 7879.0,6154.0 7856.0,6179.0 C 7832.0,6205.0 7842.0,6234.0 7886.0,6259.0 C 7920.0,6279.0 7924.0,6300.0 7895.0,6300.0 C 7882.0,6300.0 7868.0,6328.0 7871.0,6346.0 C 7875.0,6370.0 7868.0,6381.0 7843.0,6391.0 C 7820.0,6400.0 7814.0,6397.0 7794.0,6373.0 C 7774.0,6348.0 7770.0,6347.0 7745.0,6358.0 C 7723.0,6368.0 7719.0,6376.0 7723.0,6396.0 C 7727.0,6418.0 7722.0,6424.0 7693.0,6437.0 C 7661.0,6450.0 7656.0,6450.0 7638.0,6433.0 C 7619.0,6416.0 7616.0,6417.0 7556.0,6448.0 C 7521.0,6466.0 7474.0,6496.0 7452.0,6515.0 C 7430.0,6534.0 7409.0,6550.0 7406.0,6550.0 C 7392.0,6550.0 7402.0,6497.0 7423.0,6454.0 L 7445.0,6408.0 L 7423.0,6393.0 C 7387.0,6369.0 7393.0,6331.0 7440.0,6287.0 C 7469.0,6260.0 7480.0,6242.0 7480.0,6221.0 C 7480.0,6205.0 7487.0,6187.0 7495.0,6180.0 C 7506.0,6171.0 7510.0,6153.0 7508.0,6126.0 C 7505.0,6087.0 7506.0,6085.0 7537.0,6082.0 C 7579.0,6078.0 7598.0,6055.0 7582.0,6029.0 C 7565.0,6002.0 7567.0,5982.0 7590.0,5958.0 C 7601.0,5946.0 7610.0,5927.0 7610.0,5915.0 C 7610.0,5903.0 7619.0,5885.0 7630.0,5875.0 C 7641.0,5865.0 7650.0,5844.0 7650.0,5828.0 C 7650.0,5810.0 7655.0,5800.0 7664.0,5800.0 C 7685.0,5800.0 7721.0,5750.0 7718.0,5726.0 C 7716.0,5712.0 7705.0,5703.0 7685.0,5700.0 C 7658.0,5695.0 7655.0,5692.0 7658.0,5662.0 C 7662.0,5625.0 7644.0,5570.0 7628.0,5570.0 C 7622.0,5570.0 7604.0,5580.0 7587.0,5593.0 C 7564.0,5609.0 7541.0,5615.0 7503.0,5615.0 C 7443.0,5615.0 7434.0,5621.0 7449.0,5649.0 C 7459.0,5666.0 7454.0,5682.0 7420.0,5746.0 C 7398.0,5787.0 7364.0,5840.0 7344.0,5863.0 C 7324.0,5886.0 7300.0,5928.0 7291.0,5955.0 C 7276.0,6001.0 7272.0,6005.0 7242.0,6006.0 C 7224.0,6007.0 7204.0,6012.0 7197.0,6019.0 C 7178.0,6038.0 7168.0,6031.0 7172.0,6000.0 C 7174.0,5982.0 7169.0,5966.0 7158.0,5958.0 C 7141.0,5944.0 7100.0,5841.0 7100.0,5810.0 C 7100.0,5799.0 7096.0,5790.0 7091.0,5790.0 C 7079.0,5790.0 7019.0,5693.0 7021.0,5677.0 C 7027.0,5632.0 6996.0,5622.0 6940.0,5650.0 C 6898.0,5671.0 6891.0,5695.0 6926.0,5695.0 C 6947.0,5695.0 6975.0,5759.0 6990.0,5842.0 C 6995.0,5869.0 7002.0,5895.0 7005.0,5901.0 C 7013.0,5913.0 6991.0,5970.0 6979.0,5970.0 C 6974.0,5970.0 6970.0,5981.0 6970.0,5995.0 C 6970.0,6025.0 7010.0,6070.0 7037.0,6070.0 C 7050.0,6071.0 7045.0,6079.0 7016.0,6105.0 C 6985.0,6133.0 6979.0,6144.0 6984.0,6164.0 C 6989.0,6185.0 6983.0,6195.0 6950.0,6221.0 C 6907.0,6256.0 6902.0,6271.0 6925.0,6290.0 C 6938.0,6300.0 6948.0,6300.0 6980.0,6285.0 C 7011.0,6271.0 7023.0,6270.0 7034.0,6279.0 C 7058.0,6299.0 7081.0,6385.0 7085.0,6466.0 C 7088.0,6535.0 7087.0,6542.0 7067.0,6549.0 C 7055.0,6554.0 7036.0,6567.0 7026.0,6579.0 C 7015.0,6590.0 7004.0,6600.0 7000.0,6600.0 C 6997.0,6600.0 6983.0,6580.0 6971.0,6555.0 C 6956.0,6525.0 6942.0,6510.0 6930.0,6510.0 C 6904.0,6510.0 6887.0,6545.0 6894.0,6581.0 C 6899.0,6608.0 6897.0,6610.0 6871.0,6610.0 C 6855.0,6610.0 6837.0,6603.0 6830.0,6595.0 C 6823.0,6586.0 6810.0,6581.0 6801.0,6583.0 C 6772.0,6589.0 6730.0,6560.0 6715.0,6524.0 C 6706.0,6502.0 6695.0,6490.0 6687.0,6493.0 C 6680.0,6495.0 6656.0,6490.0 6632.0,6481.0 C 6600.0,6469.0 6581.0,6452.0 6557.0,6415.0 C 6531.0,6375.0 6519.0,6364.0 6493.0,6362.0 C 6466.0,6359.0 6459.0,6353.0 6448.0,6318.0 C 6430.0,6265.0 6388.0,6231.0 6365.0,6250.0 C 6349.0,6263.0 6349.0,6275.0 6364.0,6311.0 C 6369.0,6322.0 6365.0,6329.0 6351.0,6333.0 C 6337.0,6336.0 6320.0,6325.0 6291.0,6293.0 C 6266.0,6265.0 6245.0,6250.0 6236.0,6253.0 C 6227.0,6257.0 6220.0,6250.0 6216.0,6234.0 C 6208.0,6205.0 6165.0,6181.0 6149.0,6197.0 C 6143.0,6203.0 6142.0,6225.0 6147.0,6256.0 C 6155.0,6302.0 6158.0,6305.0 6200.0,6321.0 C 6262.0,6344.0 6260.0,6368.0 6194.0,6399.0 C 6157.0,6416.0 6134.0,6435.0 6115.0,6466.0 C 6099.0,6492.0 6078.0,6511.0 6062.0,6515.0 C 6024.0,6524.0 6010.0,6539.0 6010.0,6567.0 C 6010.0,6604.0 6039.0,6653.0 6056.0,6646.0 C 6065.0,6643.0 6087.0,6640.0 6105.0,6640.0 C 6126.0,6640.0 6156.0,6628.0 6190.0,6604.0 C 6228.0,6578.0 6248.0,6570.0 6266.0,6574.0 C 6282.0,6578.0 6290.0,6587.0 6288.0,6598.0 C 6286.0,6611.0 6293.0,6615.0 6320.0,6615.0 C 6341.0,6616.0 6370.0,6625.0 6388.0,6639.0 C 6416.0,6658.0 6420.0,6667.0 6420.0,6706.0 C 6420.0,6731.0 6425.0,6760.0 6430.0,6770.0 C 6439.0,6787.0 6444.0,6788.0 6466.0,6778.0 C 6482.0,6770.0 6494.0,6770.0 6498.0,6776.0 C 6502.0,6781.0 6517.0,6793.0 6532.0,6802.0 C 6566.0,6824.0 6575.0,6852.0 6557.0,6885.0 C 6547.0,6906.0 6546.0,6920.0 6554.0,6946.0 C 6570.0,6996.0 6598.0,7000.0 6642.0,6956.0 C 6702.0,6896.0 6764.0,6894.0 6758.0,6952.0 C 6754.0,6999.0 6778.0,6999.0 6883.0,6950.0 C 6931.0,6928.0 6977.0,6910.0 6985.0,6910.0 C 7004.0,6910.0 7004.0,6930.0 6985.0,6957.0 C 6974.0,6973.0 6971.0,6991.0 6976.0,7021.0 C 6983.0,7061.0 6982.0,7063.0 6959.0,7057.0 C 6946.0,7054.0 6921.0,7046.0 6903.0,7039.0 C 6873.0,7027.0 6868.0,7028.0 6809.0,7068.0 C 6775.0,7091.0 6743.0,7110.0 6738.0,7110.0 C 6733.0,7110.0 6732.0,7125.0 6736.0,7144.0 C 6742.0,7177.0 6740.0,7179.0 6704.0,7189.0 C 6672.0,7198.0 6660.0,7196.0 6621.0,7177.0 C 6583.0,7158.0 6568.0,7155.0 6537.0,7163.0 C 6502.0,7172.0 6498.0,7170.0 6461.0,7133.0 C 6423.0,7094.0 6376.0,7075.0 6344.0,7087.0 C 6335.0,7090.0 6323.0,7084.0 6314.0,7071.0 C 6306.0,7060.0 6293.0,7050.0 6286.0,7050.0 C 6279.0,7050.0 6265.0,7041.0 6254.0,7029.0 C 6230.0,7003.0 6187.0,6980.0 6162.0,6980.0 C 6151.0,6980.0 6132.0,6988.0 6120.0,6998.0 C 6102.0,7012.0 6085.0,7016.0 6051.0,7012.0 C 6008.0,7008.0 6003.0,7010.0 5992.0,7034.0 C 5985.0,7049.0 5980.0,7065.0 5980.0,7070.0 C 5980.0,7091.0 6014.0,7110.0 6053.0,7110.0 C 6076.0,7110.0 6104.0,7117.0 6114.0,7125.0 C 6125.0,7133.0 6145.0,7140.0 6159.0,7140.0 C 6187.0,7141.0 6227.0,7165.0 6213.0,7173.0 C 6209.0,7175.0 6162.0,7181.0 6110.0,7185.0 C 6058.0,7189.0 6009.0,7196.0 6003.0,7202.0 C 5996.0,7208.0 5990.0,7225.0 5990.0,7241.0 C 5990.0,7273.0 6017.0,7286.0 6070.0,7278.0 C 6096.0,7274.0 6100.0,7277.0 6100.0,7297.0 C 6100.0,7310.0 6093.0,7334.0 6085.0,7351.0 C 6076.0,7367.0 6072.0,7385.0 6075.0,7390.0 C 6086.0,7409.0 6127.0,7400.0 6151.0,7374.0 C 6185.0,7337.0 6221.0,7321.0 6254.0,7327.0 C 6280.0,7332.0 6282.0,7336.0 6277.0,7366.0 C 6271.0,7403.0 6288.0,7424.0 6333.0,7435.0 L 6361.0,7442.0 L 6343.0,7473.0 C 6327.0,7499.0 6318.0,7504.0 6280.0,7506.0 C 6249.0,7508.0 6227.0,7502.0 6208.0,7488.0 C 6184.0,7471.0 6179.0,7471.0 6174.0,7484.0 C 6171.0,7493.0 6178.0,7516.0 6190.0,7535.0 C 6221.0,7585.0 6206.0,7598.0 6152.0,7571.0 C 6107.0,7548.0 6077.0,7553.0 6043.0,7589.0 C 6027.0,7606.0 6020.0,7607.0 5983.0,7597.0 C 5937.0,7585.0 5910.0,7597.0 5910.0,7631.0 C 5910.0,7663.0 5891.0,7661.0 5868.0,7626.0 L 5845.0,7591.0 L 5812.0,7616.0 C 5784.0,7638.0 5775.0,7640.0 5747.0,7631.0 C 5730.0,7626.0 5702.0,7618.0 5685.0,7613.0 C 5660.0,7606.0 5654.0,7598.0 5648.0,7560.0 C 5642.0,7530.0 5644.0,7507.0 5652.0,7493.0 C 5660.0,7475.0 5661.0,7464.0 5652.0,7445.0 C 5645.0,7431.0 5640.0,7390.0 5640.0,7355.0 C 5640.0,7300.0 5637.0,7289.0 5618.0,7276.0 C 5586.0,7253.0 5544.0,7256.0 5520.0,7282.0 C 5499.0,7305.0 5497.0,7315.0 5500.0,7363.0 C 5501.0,7382.0 5495.0,7397.0 5481.0,7407.0 C 5469.0,7415.0 5460.0,7431.0 5460.0,7443.0 C 5460.0,7471.0 5486.0,7510.0 5505.0,7510.0 C 5514.0,7510.0 5521.0,7525.0 5525.0,7548.0 C 5528.0,7568.0 5533.0,7595.0 5536.0,7607.0 C 5538.0,7619.0 5536.0,7632.0 5530.0,7635.0 C 5525.0,7638.0 5520.0,7661.0 5520.0,7685.0 C 5520.0,7732.0 5517.0,7735.0 5445.0,7746.0 C 5419.0,7749.0 5389.0,7761.0 5379.0,7771.0 C 5352.0,7798.0 5293.0,7806.0 5271.0,7786.0 C 5246.0,7763.0 5241.0,7765.0 5186.0,7810.0 C 5132.0,7855.0 5135.0,7854.0 5110.0,7840.0 C 5096.0,7832.0 5085.0,7833.0 5070.0,7842.0 C 5053.0,7853.0 5047.0,7851.0 5025.0,7827.0 C 5008.0,7810.0 4989.0,7800.0 4970.0,7800.0 C 4935.0,7800.0 4904.0,7764.0 4922.0,7743.0 C 4928.0,7736.0 4941.0,7730.0 4951.0,7730.0 C 4973.0,7730.0 4974.0,7726.0 4960.0,7699.0 C 4954.0,7688.0 4939.0,7680.0 4925.0,7680.0 C 4911.0,7680.0 4891.0,7671.0 4881.0,7661.0 C 4871.0,7651.0 4844.0,7639.0 4822.0,7635.0 C 4800.0,7632.0 4774.0,7620.0 4764.0,7609.0 C 4755.0,7599.0 4741.0,7590.0 4733.0,7590.0 C 4686.0,7590.0 4634.0,7532.0 4659.0,7507.0 C 4681.0,7485.0 4671.0,7469.0 4638.0,7472.0 C 4613.0,7474.0 4602.0,7470.0 4595.0,7455.0 C 4579.0,7423.0 4513.0,7395.0 4481.0,7406.0 C 4451.0,7417.0 4450.0,7433.0 4474.0,7500.0 C 4498.0,7565.0 4512.0,7590.0 4525.0,7590.0 C 4541.0,7590.0 4577.0,7631.0 4582.0,7655.0 C 4584.0,7669.0 4597.0,7676.0 4629.0,7682.0 C 4655.0,7686.0 4684.0,7700.0 4700.0,7715.0 C 4714.0,7729.0 4731.0,7740.0 4738.0,7740.0 C 4745.0,7740.0 4750.0,7749.0 4750.0,7759.0 C 4750.0,7770.0 4755.0,7782.0 4760.0,7785.0 C 4775.0,7795.0 4772.0,7856.0 4755.0,7870.0 C 4736.0,7886.0 4736.0,7910.0 4755.0,7910.0 C 4780.0,7910.0 4793.0,7951.0 4780.0,7985.0 L 4768.0,8015.0 L 4750.0,7992.0 C 4726.0,7963.0 4710.0,7971.0 4710.0,8010.0 C 4710.0,8038.0 4708.0,8039.0 4686.0,8029.0 C 4657.0,8015.0 4626.0,7943.0 4635.0,7907.0 C 4644.0,7872.0 4624.0,7838.0 4597.0,7842.0 C 4578.0,7845.0 4575.0,7851.0 4575.0,7890.0 L 4575.0,7935.0 L 4520.0,7931.0 C 4451.0,7927.0 4430.0,7916.0 4430.0,7884.0 C 4430.0,7860.0 4427.0,7858.0 4398.0,7862.0 C 4380.0,7865.0 4358.0,7870.0 4350.0,7874.0 C 4338.0,7879.0 4332.0,7872.0 4325.0,7848.0 C 4319.0,7829.0 4303.0,7810.0 4285.0,7800.0 C 4265.0,7789.0 4253.0,7773.0 4249.0,7750.0 C 4245.0,7731.0 4233.0,7708.0 4222.0,7699.0 C 4211.0,7690.0 4195.0,7667.0 4187.0,7647.0 C 4178.0,7626.0 4159.0,7605.0 4141.0,7595.0 C 4103.0,7576.0 4100.0,7544.0 4134.0,7528.0 C 4164.0,7515.0 4176.0,7490.0 4158.0,7478.0 C 4139.0,7466.0 4083.0,7468.0 4061.0,7481.0 C 4047.0,7491.0 4035.0,7488.0 4002.0,7470.0 C 3950.0,7441.0 3927.0,7454.0 3932.0,7509.0 C 3935.0,7543.0 3937.0,7545.0 3973.0,7548.0 C 4004.0,7551.0 4010.0,7555.0 4010.0,7575.0 C 4010.0,7588.0 4006.0,7602.0 4000.0,7605.0 C 3995.0,7608.0 3990.0,7626.0 3990.0,7644.0 C 3990.0,7662.0 3981.0,7689.0 3970.0,7703.0 C 3947.0,7732.0 3945.0,7741.0 3962.0,7758.0 C 3968.0,7764.0 3974.0,7784.0 3974.0,7802.0 C 3975.0,7831.0 3979.0,7835.0 4031.0,7852.0 C 4067.0,7864.0 4091.0,7878.0 4097.0,7892.0 C 4102.0,7903.0 4122.0,7918.0 4140.0,7924.0 C 4159.0,7930.0 4173.0,7940.0 4170.0,7945.0 C 4163.0,7959.0 4073.0,7955.0 4055.0,7940.0 C 4046.0,7933.0 4033.0,7931.0 4023.0,7935.0 C 4013.0,7940.0 4001.0,7942.0 3997.0,7941.0 C 3977.0,7937.0 3949.0,7963.0 3952.0,7983.0 C 3954.0,7999.0 3963.0,8006.0 3985.0,8008.0 C 4022.0,8012.0 4044.0,8030.0 4011.0,8030.0 C 3978.0,8030.0 3986.0,8074.0 4020.0,8078.0 C 4068.0,8084.0 4071.0,8087.0 4058.0,8115.0 C 4048.0,8137.0 4042.0,8140.0 4021.0,8134.0 C 4006.0,8130.0 3966.0,8128.0 3931.0,8128.0 C 3853.0,8130.0 3837.0,8120.0 3852.0,8079.0 C 3860.0,8055.0 3859.0,8046.0 3846.0,8032.0 C 3835.0,8019.0 3832.0,8003.0 3836.0,7978.0 C 3841.0,7948.0 3839.0,7941.0 3822.0,7936.0 C 3792.0,7926.0 3700.0,7981.0 3700.0,8009.0 C 3700.0,8013.0 3685.0,8021.0 3668.0,8027.0 C 3636.0,8036.0 3635.0,8036.0 3633.0,8006.0 C 3632.0,7989.0 3636.0,7959.0 3642.0,7938.0 C 3651.0,7906.0 3650.0,7898.0 3631.0,7871.0 C 3619.0,7855.0 3601.0,7838.0 3590.0,7835.0 C 3575.0,7830.0 3570.0,7820.0 3570.0,7794.0 C 3570.0,7766.0 3566.0,7759.0 3553.0,7762.0 C 3540.0,7764.0 3533.0,7779.0 3528.0,7815.0 C 3522.0,7855.0 3514.0,7871.0 3486.0,7895.0 C 3456.0,7921.0 3451.0,7932.0 3448.0,7975.0 C 3445.0,8021.0 3443.0,8025.0 3418.0,8028.0 C 3398.0,8030.0 3390.0,8027.0 3390.0,8016.0 C 3390.0,7994.0 3351.0,7987.0 3265.0,7992.0 C 3205.0,7996.0 3184.0,8002.0 3156.0,8023.0 C 3137.0,8038.0 3108.0,8050.0 3092.0,8050.0 C 3076.0,8050.0 3057.0,8057.0 3050.0,8065.0 C 3035.0,8082.0 3025.0,8076.0 3006.0,8038.0 C 2992.0,8011.0 2944.0,7998.0 2852.0,7996.0 C 2797.0,7995.0 2787.0,7992.0 2767.0,7968.0 C 2745.0,7941.0 2745.0,7941.0 2705.0,7957.0 C 2670.0,7971.0 2613.0,7979.0 2545.0,7980.0 C 2534.0,7980.0 2509.0,7978.0 2489.0,7974.0 C 2442.0,7966.0 2403.0,7985.0 2421.0,8006.0 C 2427.0,8014.0 2439.0,8020.0 2446.0,8020.0 C 2455.0,8020.0 2460.0,8032.0 2460.0,8054.0 C 2460.0,8094.0 2477.0,8104.0 2520.0,8089.0 C 2543.0,8080.0 2559.0,8082.0 2594.0,8095.0 C 2621.0,8105.0 2647.0,8109.0 2661.0,8105.0 L 2684.0,8098.0 L 2662.0,8131.0 C 2650.0,8151.0 2628.0,8169.0 2610.0,8174.0 C 2556.0,8190.0 2581.0,8238.0 2648.0,8247.0 C 2688.0,8252.0 2690.0,8254.0 2674.0,8271.0 C 2665.0,8281.0 2643.0,8296.0 2624.0,8305.0 C 2584.0,8324.0 2581.0,8339.0 2615.0,8370.0 C 2633.0,8387.0 2646.0,8391.0 2668.0,8387.0 C 2687.0,8383.0 2711.0,8388.0 2733.0,8399.0 C 2759.0,8412.0 2783.0,8416.0 2819.0,8412.0 C 2860.0,8408.0 2871.0,8411.0 2876.0,8424.0 C 2880.0,8434.0 2894.0,8440.0 2911.0,8440.0 C 2945.0,8440.0 2963.0,8468.0 2954.0,8505.0 C 2946.0,8536.0 2917.0,8545.0 2844.0,8537.0 C 2803.0,8533.0 2790.0,8535.0 2790.0,8544.0 C 2790.0,8552.0 2784.0,8563.0 2776.0,8569.0 C 2766.0,8577.0 2757.0,8575.0 2737.0,8560.0 C 2723.0,8549.0 2707.0,8540.0 2701.0,8540.0 C 2695.0,8540.0 2690.0,8527.0 2690.0,8512.0 C 2690.0,8456.0 2647.0,8444.0 2598.0,8485.0 C 2582.0,8499.0 2564.0,8510.0 2559.0,8510.0 C 2546.0,8510.0 2506.0,8421.0 2506.0,8390.0 C 2505.0,8364.0 2503.0,8364.0 2440.0,8377.0 C 2407.0,8383.0 2383.0,8356.0 2378.0,8310.0 C 2375.0,8279.0 2372.0,8275.0 2343.0,8272.0 C 2321.0,8270.0 2306.0,8275.0 2291.0,8291.0 C 2276.0,8307.0 2257.0,8314.0 2226.0,8316.0 C 2173.0,8318.0 2163.0,8313.0 2159.0,8280.0 C 2154.0,8249.0 2119.0,8246.0 2106.0,8276.0 C 2101.0,8287.0 2084.0,8302.0 2069.0,8307.0 C 2048.0,8315.0 2043.0,8323.0 2047.0,8338.0 C 2050.0,8352.0 2045.0,8362.0 2032.0,8369.0 C 2003.0,8385.0 1900.0,8386.0 1849.0,8370.0 C 1794.0,8354.0 1751.0,8367.0 1730.0,8406.0 C 1712.0,8439.0 1697.0,8436.0 1677.0,8394.0 C 1662.0,8364.0 1656.0,8360.0 1637.0,8366.0 C 1625.0,8371.0 1606.0,8373.0 1595.0,8372.0 C 1584.0,8371.0 1562.0,8369.0 1545.0,8368.0 C 1505.0,8364.0 1501.0,8388.0 1535.0,8428.0 C 1555.0,8452.0 1559.0,8463.0 1551.0,8478.0 C 1544.0,8492.0 1546.0,8504.0 1561.0,8526.0 L 1580.0,8555.0 L 1532.0,8560.0 C 1506.0,8563.0 1468.0,8560.0 1445.0,8552.0 C 1410.0,8541.0 1369.0,8543.0 1382.0,8556.0 C 1390.0,8564.0 1356.0,8653.0 1344.0,8657.0 C 1337.0,8659.0 1330.0,8653.0 1326.0,8644.0" fill="pink"/>
	<path d="M 4245.0,4788.0 C 4228.0,4778.0 4207.0,4770.0 4197.0,4770.0 C 4183.0,4770.0 4181.0,4765.0 4187.0,4743.0 C 4191.0,4727.0 4194.0,4703.0 4194.0,4688.0 C 4193.0,4666.0 4197.0,4660.0 4214.0,4660.0 C 4237.0,4660.0 4293.0,4641.0 4327.0,4622.0 C 4339.0,4615.0 4356.0,4610.0 4364.0,4610.0 C 4386.0,4610.0 4384.0,4573.0 4362.0,4566.0 C 4352.0,4562.0 4331.0,4546.0 4315.0,4530.0 L 4286.0,4500.0 L 4318.0,4500.0 C 4335.0,4500.0 4352.0,4505.0 4356.0,4511.0 C 4359.0,4517.0 4373.0,4519.0 4387.0,4515.0 C 4425.0,4506.0 4477.0,4519.0 4483.0,4540.0 C 4487.0,4555.0 4497.0,4558.0 4534.0,4557.0 C 4565.0,4556.0 4585.0,4560.0 4596.0,4572.0 C 4611.0,4587.0 4611.0,4589.0 4589.0,4600.0 C 4576.0,4607.0 4545.0,4632.0 4520.0,4657.0 C 4495.0,4682.0 4431.0,4724.0 4375.0,4754.0 L 4274.0,4806.0 L 4245.0,4788.0" fill="pink"/>
	<path d="M 10084.0,2219.0 L 10056.0,2201.0 L 10093.0,2185.0 C 10129.0,2170.0 10141.0,2148.0 10120.0,2135.0 C 10115.0,2132.0 10110.0,2119.0 10110.0,2107.0 C 10110.0,2090.0 10119.0,2082.0 10151.0,2072.0 C 10203.0,2056.0 10212.0,2063.0 10221.0,2132.0 C 10225.0,2161.0 10232.0,2197.0 10235.0,2211.0 L 10242.0,2238.0 L 10177.0,2238.0 C 10130.0,2238.0 10104.0,2232.0 10084.0,2219.0" fill="pink"/>
</svg>
