<?xml version="1.0" ?>
<svg xmlns="http://www.w3.org/2000/svg" xmlns:ev="http://www.w3.org/2001/xml-events" xmlns:xlink="http://www.w3.org/1999/xlink" baseProfile="full" height="600px" version="1.1" viewBox="127.22896222769077 -1029.0053295655498 9989.495630206844 12298.114857617651" width="488px">
	<defs/>
	<path d="M 6838.0,10222.0 C 6790.0,10191.0 6650.0,10033.0 6650.0,10011.0 C 6650.0,9999.0 6636.0,9961.0 6619.0,9927.0 C 6558.0,9806.0 6490.0,9711.0 6358.0,9558.0 L 6311.0,9504.0 L 6295.0,9334.0 C 6286.0,9241.0 6277.0,9158.0 6275.0,9149.0 C 6272.0,9141.0 6279.0,9107.0 6291.0,9074.0 C 6304.0,9038.0 6315.0,8975.0 6320.0,8913.0 C 6324.0,8857.0 6332.0,8804.0 6339.0,8796.0 C 6348.0,8785.0 6346.0,8769.0 6329.0,8723.0 C 6317.0,8691.0 6305.0,8651.0 6303.0,8634.0 C 6300.0,8613.0 6280.0,8585.0 6244.0,8549.0 L 6190.0,8496.0 L 6190.0,8403.0 C 6190.0,8344.0 6186.0,8310.0 6179.0,8310.0 C 6173.0,8310.0 6146.0,8300.0 6119.0,8288.0 C 6078.0,8271.0 6057.0,8252.0 6009.0,8189.0 C 5961.0,8126.0 5950.0,8104.0 5950.0,8073.0 C 5950.0,8047.0 5940.0,8023.0 5920.0,7996.0 C 5904.0,7974.0 5887.0,7941.0 5884.0,7921.0 C 5875.0,7873.0 5840.0,7821.0 5813.0,7814.0 C 5801.0,7811.0 5780.0,7795.0 5766.0,7779.0 C 5752.0,7763.0 5735.0,7750.0 5730.0,7750.0 C 5724.0,7750.0 5720.0,7733.0 5720.0,7713.0 C 5720.0,7692.0 5713.0,7666.0 5705.0,7656.0 C 5697.0,7645.0 5690.0,7620.0 5690.0,7601.0 C 5690.0,7576.0 5682.0,7557.0 5662.0,7535.0 C 5646.0,7519.0 5628.0,7486.0 5621.0,7462.0 C 5613.0,7434.0 5589.0,7397.0 5555.0,7360.0 C 5480.0,7279.0 5475.0,7267.0 5488.0,7206.0 C 5494.0,7178.0 5501.0,7105.0 5503.0,7043.0 C 5507.0,6935.0 5509.0,6929.0 5539.0,6891.0 L 5570.0,6852.0 L 5499.0,6722.0 C 5429.0,6595.0 5427.0,6592.0 5351.0,6543.0 C 5282.0,6497.0 5268.0,6491.0 5202.0,6486.0 L 5130.0,6480.0 L 5086.0,6526.0 C 5044.0,6569.0 5039.0,6572.0 5003.0,6566.0 C 4982.0,6563.0 4927.0,6556.0 4880.0,6551.0 C 4833.0,6546.0 4784.0,6537.0 4769.0,6532.0 C 4720.0,6513.0 4655.0,6385.0 4672.0,6340.0 C 4677.0,6326.0 4680.0,6303.0 4677.0,6288.0 C 4673.0,6258.0 4684.0,6250.0 4730.0,6250.0 C 4775.0,6250.0 4808.0,6213.0 4811.0,6160.0 C 4814.0,6120.0 4808.0,6105.0 4761.0,6033.0 C 4712.0,5957.0 4702.0,5947.0 4615.0,5896.0 C 4500.0,5827.0 4413.0,5803.0 4354.0,5824.0 C 4319.0,5836.0 4315.0,5840.0 4318.0,5867.0 C 4320.0,5885.0 4315.0,5902.0 4305.0,5910.0 C 4292.0,5921.0 4286.0,5920.0 4269.0,5904.0 C 4258.0,5894.0 4242.0,5871.0 4235.0,5853.0 C 4224.0,5828.0 4214.0,5820.0 4185.0,5814.0 C 4163.0,5810.0 4138.0,5812.0 4122.0,5820.0 C 4060.0,5848.0 3817.0,5870.0 3780.0,5850.0 C 3763.0,5841.0 3754.0,5843.0 3729.0,5864.0 C 3696.0,5892.0 3667.0,5899.0 3676.0,5877.0 C 3681.0,5862.0 3641.0,5840.0 3610.0,5840.0 C 3599.0,5840.0 3575.0,5829.0 3555.0,5815.0 C 3463.0,5753.0 3351.0,5732.0 3232.0,5755.0 C 3199.0,5761.0 3188.0,5768.0 3184.0,5786.0 C 3177.0,5813.0 3170.0,5815.0 3148.0,5797.0 C 3138.0,5790.0 3130.0,5764.0 3128.0,5728.0 C 3125.0,5686.0 3116.0,5662.0 3096.0,5636.0 C 3071.0,5603.0 3065.0,5600.0 3018.0,5600.0 C 2976.0,5600.0 2952.0,5591.0 2867.0,5545.0 C 2737.0,5474.0 2704.0,5472.0 2663.0,5533.0 C 2628.0,5585.0 2598.0,5591.0 2547.0,5556.0 C 2527.0,5542.0 2475.0,5514.0 2433.0,5495.0 C 2363.0,5462.0 2349.0,5459.0 2300.0,5465.0 C 2270.0,5469.0 2211.0,5483.0 2170.0,5497.0 C 2116.0,5514.0 2085.0,5520.0 2060.0,5515.0 C 2041.0,5511.0 1894.0,5505.0 1733.0,5501.0 C 1403.0,5494.0 1442.0,5504.0 1320.0,5399.0 C 1290.0,5374.0 1245.0,5343.0 1220.0,5332.0 C 1155.0,5302.0 1108.0,5259.0 1120.0,5240.0 C 1128.0,5228.0 1135.0,5231.0 1162.0,5262.0 C 1180.0,5282.0 1212.0,5304.0 1234.0,5312.0 C 1256.0,5319.0 1290.0,5344.0 1314.0,5371.0 C 1389.0,5454.0 1421.0,5469.0 1542.0,5476.0 C 1630.0,5482.0 1653.0,5480.0 1673.0,5467.0 C 1689.0,5457.0 1701.0,5455.0 1711.0,5461.0 C 1719.0,5466.0 1742.0,5468.0 1763.0,5464.0 C 1788.0,5460.0 1800.0,5462.0 1800.0,5470.0 C 1800.0,5478.0 1814.0,5480.0 1848.0,5476.0 C 1985.0,5459.0 2010.0,5458.0 2010.0,5469.0 C 2010.0,5490.0 2030.0,5480.0 2045.0,5450.0 C 2060.0,5420.0 2060.0,5419.0 2030.0,5393.0 C 2009.0,5376.0 2002.0,5364.0 2009.0,5357.0 C 2016.0,5350.0 2035.0,5358.0 2069.0,5379.0 C 2110.0,5405.0 2123.0,5409.0 2139.0,5401.0 C 2150.0,5395.0 2216.0,5390.0 2290.0,5390.0 C 2418.0,5390.0 2421.0,5390.0 2430.0,5414.0 C 2443.0,5450.0 2490.0,5478.0 2566.0,5496.0 C 2630.0,5510.0 2635.0,5510.0 2647.0,5494.0 C 2669.0,5464.0 2662.0,5451.0 2609.0,5424.0 C 2565.0,5402.0 2559.0,5395.0 2563.0,5375.0 C 2572.0,5327.0 2551.0,5322.0 2343.0,5318.0 C 2238.0,5316.0 2149.0,5312.0 2146.0,5309.0 C 2143.0,5306.0 2139.0,5282.0 2138.0,5255.0 C 2135.0,5215.0 2138.0,5205.0 2152.0,5202.0 C 2167.0,5199.0 2170.0,5206.0 2170.0,5234.0 C 2170.0,5277.0 2179.0,5278.0 2235.0,5245.0 C 2276.0,5222.0 2278.0,5222.0 2308.0,5238.0 C 2324.0,5247.0 2350.0,5264.0 2365.0,5274.0 C 2380.0,5285.0 2415.0,5295.0 2445.0,5298.0 C 2498.0,5302.0 2498.0,5302.0 2509.0,5268.0 C 2515.0,5249.0 2518.0,5226.0 2514.0,5216.0 C 2511.0,5207.0 2515.0,5189.0 2524.0,5175.0 C 2544.0,5145.0 2545.0,5074.0 2526.0,5040.0 C 2519.0,5026.0 2500.0,4993.0 2485.0,4965.0 C 2471.0,4938.0 2454.0,4911.0 2450.0,4906.0 C 2437.0,4893.0 2412.0,4917.0 2395.0,4957.0 C 2387.0,4975.0 2374.0,4990.0 2366.0,4990.0 C 2358.0,4990.0 2344.0,5000.0 2336.0,5012.0 C 2323.0,5031.0 2317.0,5032.0 2295.0,5022.0 C 2281.0,5015.0 2257.0,5010.0 2241.0,5010.0 C 2216.0,5010.0 2214.0,5007.0 2218.0,4980.0 C 2222.0,4951.0 2221.0,4950.0 2186.0,4950.0 L 2149.0,4950.0 L 2152.0,4873.0 C 2154.0,4811.0 2158.0,4795.0 2170.0,4796.0 C 2178.0,4796.0 2212.0,4800.0 2245.0,4803.0 C 2302.0,4809.0 2306.0,4808.0 2326.0,4782.0 C 2341.0,4763.0 2350.0,4733.0 2355.0,4683.0 C 2361.0,4620.0 2360.0,4611.0 2344.0,4608.0 C 2333.0,4606.0 2311.0,4567.0 2280.0,4495.0 L 2233.0,4385.0 L 2256.0,4377.0 C 2288.0,4366.0 2297.0,4338.0 2267.0,4341.0 C 2255.0,4342.0 2226.0,4337.0 2202.0,4330.0 C 2179.0,4323.0 2158.0,4319.0 2156.0,4321.0 C 2145.0,4335.0 2040.0,4530.0 2040.0,4537.0 C 2040.0,4543.0 2049.0,4555.0 2060.0,4565.0 C 2071.0,4575.0 2080.0,4586.0 2080.0,4590.0 C 2080.0,4594.0 2057.0,4611.0 2029.0,4629.0 L 1978.0,4660.0 L 2012.0,4701.0 C 2078.0,4783.0 2078.0,4780.0 2031.0,4780.0 C 1993.0,4780.0 1970.0,4800.0 2008.0,4800.0 C 2017.0,4800.0 2038.0,4812.0 2054.0,4826.0 C 2078.0,4847.0 2081.0,4856.0 2076.0,4883.0 C 2065.0,4938.0 2045.0,4955.0 1995.0,4954.0 C 1970.0,4954.0 1950.0,4957.0 1950.0,4962.0 C 1950.0,4983.0 1913.0,4966.0 1891.0,4935.0 C 1871.0,4905.0 1869.0,4896.0 1879.0,4869.0 C 1903.0,4800.0 1884.0,4789.0 1844.0,4850.0 C 1821.0,4885.0 1819.0,4893.0 1829.0,4921.0 C 1835.0,4939.0 1840.0,4956.0 1840.0,4960.0 C 1840.0,4968.0 1760.0,4963.0 1681.0,4949.0 C 1646.0,4943.0 1623.0,4944.0 1615.0,4950.0 C 1607.0,4957.0 1598.0,4954.0 1585.0,4940.0 C 1570.0,4924.0 1558.0,4922.0 1501.0,4926.0 C 1393.0,4935.0 1313.0,4960.0 1243.0,5007.0 C 1165.0,5061.0 1083.0,5081.0 1044.0,5055.0 C 1027.0,5044.0 1009.0,5041.0 989.0,5045.0 C 961.0,5051.0 960.0,5050.0 969.0,5027.0 C 974.0,5014.0 983.0,4984.0 989.0,4962.0 C 995.0,4940.0 1021.0,4896.0 1045.0,4866.0 C 1081.0,4823.0 1098.0,4809.0 1128.0,4804.0 C 1148.0,4800.0 1181.0,4789.0 1201.0,4779.0 C 1221.0,4769.0 1260.0,4752.0 1288.0,4742.0 C 1316.0,4731.0 1360.0,4704.0 1387.0,4682.0 C 1440.0,4637.0 1433.0,4655.0 1484.0,4423.0 C 1493.0,4381.0 1504.0,4364.0 1539.0,4334.0 C 1579.0,4299.0 1584.0,4297.0 1613.0,4308.0 C 1640.0,4318.0 1647.0,4317.0 1664.0,4301.0 C 1674.0,4290.0 1683.0,4269.0 1684.0,4253.0 L 1685.0,4225.0 L 1765.0,4228.0 L 1846.0,4232.0 L 1895.0,4193.0 C 1968.0,4135.0 2002.0,4080.0 2008.0,4014.0 C 2012.0,3971.0 2018.0,3955.0 2038.0,3940.0 C 2060.0,3922.0 2062.0,3915.0 2057.0,3870.0 C 2054.0,3842.0 2040.0,3794.0 2026.0,3762.0 C 2013.0,3731.0 1999.0,3688.0 1995.0,3667.0 C 1991.0,3640.0 1972.0,3611.0 1930.0,3565.0 C 1898.0,3529.0 1851.0,3464.0 1826.0,3420.0 C 1781.0,3342.0 1780.0,3339.0 1780.0,3252.0 C 1780.0,3184.0 1775.0,3152.0 1760.0,3119.0 C 1749.0,3095.0 1740.0,3061.0 1740.0,3043.0 C 1740.0,3020.0 1734.0,3010.0 1719.0,3005.0 C 1705.0,3000.0 1701.0,2993.0 1706.0,2982.0 C 1710.0,2972.0 1715.0,2949.0 1718.0,2929.0 C 1721.0,2899.0 1717.0,2889.0 1699.0,2877.0 C 1673.0,2859.0 1630.0,2776.0 1630.0,2744.0 C 1630.0,2733.0 1621.0,2715.0 1611.0,2706.0 C 1599.0,2695.0 1590.0,2668.0 1585.0,2634.0 C 1581.0,2596.0 1573.0,2577.0 1560.0,2570.0 C 1549.0,2564.0 1535.0,2542.0 1529.0,2520.0 C 1517.0,2481.0 1467.0,2426.0 1411.0,2389.0 L 1387.0,2374.0 L 1417.0,2352.0 C 1456.0,2325.0 1528.0,2297.0 1563.0,2297.0 C 1583.0,2297.0 1592.0,2291.0 1596.0,2274.0 C 1600.0,2261.0 1607.0,2250.0 1614.0,2250.0 C 1644.0,2250.0 1695.0,2191.0 1710.0,2139.0 C 1721.0,2100.0 1731.0,2084.0 1745.0,2081.0 C 1790.0,2073.0 1806.0,2029.0 1771.0,2011.0 C 1747.0,1997.0 1739.0,1935.0 1757.0,1892.0 C 1774.0,1851.0 1825.0,1804.0 1868.0,1790.0 C 1892.0,1781.0 1900.0,1772.0 1900.0,1755.0 C 1900.0,1731.0 1883.0,1720.0 1846.0,1720.0 C 1832.0,1720.0 1819.0,1711.0 1812.0,1696.0 C 1803.0,1675.0 1806.0,1660.0 1833.0,1600.0 C 1862.0,1537.0 1869.0,1529.0 1903.0,1519.0 C 1923.0,1514.0 1940.0,1507.0 1940.0,1504.0 C 1940.0,1501.0 1931.0,1485.0 1919.0,1469.0 L 1899.0,1440.0 L 1919.0,1414.0 C 1931.0,1399.0 1940.0,1377.0 1940.0,1365.0 C 1940.0,1346.0 1945.0,1343.0 1984.0,1344.0 C 2036.0,1345.0 2044.0,1339.0 2036.0,1306.0 C 2032.0,1290.0 2018.0,1277.0 1997.0,1269.0 C 1958.0,1255.0 1920.0,1205.0 1920.0,1168.0 C 1920.0,1139.0 1957.0,1043.0 1978.0,1018.0 C 1989.0,1005.0 1998.0,1003.0 2017.0,1011.0 C 2050.0,1023.0 2052.0,1023.0 2042.0,1002.0 C 2037.0,993.0 2030.0,961.0 2026.0,931.0 C 2020.0,883.0 2021.0,875.0 2043.0,851.0 C 2078.0,814.0 2083.0,766.0 2058.0,704.0 L 2037.0,653.0 L 2080.0,595.0 C 2103.0,564.0 2143.0,524.0 2168.0,507.0 C 2193.0,489.0 2233.0,458.0 2257.0,438.0 C 2281.0,417.0 2308.0,400.0 2316.0,400.0 C 2326.0,400.0 2330.0,387.0 2330.0,350.0 C 2330.0,305.0 2334.0,295.0 2368.0,258.0 C 2402.0,222.0 2413.0,216.0 2461.0,212.0 C 2496.0,209.0 2528.0,213.0 2551.0,223.0 C 2596.0,242.0 2612.0,233.0 2634.0,177.0 C 2649.0,138.0 2655.0,132.0 2688.0,126.0 C 2708.0,123.0 2742.0,120.0 2763.0,120.0 C 2807.0,120.0 2878.0,82.0 2914.0,40.0 C 2937.0,12.0 2942.0,11.0 3059.0,4.0 C 3177.0,-3.0 3182.0,-2.0 3196.0,19.0 C 3208.0,36.0 3221.0,40.0 3264.0,40.0 C 3311.0,40.0 3322.0,44.0 3354.0,75.0 C 3400.0,118.0 3452.0,124.0 3471.0,87.0 C 3495.0,40.0 3522.0,20.0 3561.0,20.0 C 3618.0,20.0 3630.0,28.0 3630.0,65.0 C 3630.0,94.0 3635.0,100.0 3670.0,114.0 C 3692.0,123.0 3719.0,130.0 3728.0,130.0 C 3755.0,130.0 3785.0,167.0 3815.0,240.0 C 3830.0,275.0 3850.0,310.0 3860.0,317.0 C 3870.0,324.0 3878.0,341.0 3878.0,355.0 C 3878.0,369.0 3887.0,392.0 3900.0,405.0 C 3924.0,431.0 3960.0,444.0 3960.0,427.0 C 3960.0,421.0 3971.0,427.0 3985.0,440.0 C 3999.0,453.0 4010.0,474.0 4010.0,488.0 C 4010.0,510.0 4007.0,512.0 3974.0,505.0 C 3947.0,500.0 3933.0,503.0 3919.0,516.0 C 3909.0,525.0 3900.0,536.0 3900.0,540.0 C 3900.0,544.0 3928.0,553.0 3963.0,560.0 C 4005.0,569.0 4038.0,583.0 4066.0,606.0 C 4091.0,626.0 4125.0,642.0 4149.0,646.0 C 4171.0,650.0 4194.0,658.0 4199.0,664.0 C 4211.0,679.0 4202.0,720.0 4186.0,720.0 C 4180.0,721.0 4162.0,737.0 4147.0,758.0 L 4119.0,795.0 L 4141.0,813.0 C 4164.0,831.0 4164.0,831.0 4207.0,786.0 C 4230.0,761.0 4258.0,740.0 4269.0,740.0 C 4280.0,740.0 4319.0,763.0 4355.0,792.0 C 4420.0,844.0 4434.0,872.0 4408.0,898.0 C 4391.0,915.0 4405.0,924.0 4428.0,911.0 C 4440.0,905.0 4455.0,900.0 4463.0,900.0 C 4483.0,900.0 4510.0,981.0 4510.0,1039.0 C 4510.0,1082.0 4515.0,1090.0 4586.0,1169.0 C 4628.0,1215.0 4671.0,1273.0 4681.0,1298.0 C 4710.0,1364.0 4730.0,1467.0 4730.0,1540.0 C 4730.0,1576.0 4729.0,1644.0 4729.0,1693.0 C 4729.0,1752.0 4734.0,1795.0 4745.0,1825.0 C 4757.0,1855.0 4760.0,1881.0 4755.0,1907.0 C 4751.0,1928.0 4747.0,1979.0 4746.0,2020.0 C 4745.0,2077.0 4740.0,2103.0 4723.0,2130.0 C 4711.0,2149.0 4698.0,2187.0 4695.0,2213.0 C 4688.0,2257.0 4685.0,2261.0 4665.0,2256.0 C 4650.0,2252.0 4640.0,2255.0 4636.0,2265.0 C 4632.0,2276.0 4616.0,2280.0 4581.0,2280.0 C 4536.0,2280.0 4532.0,2282.0 4527.0,2306.0 C 4522.0,2335.0 4508.0,2334.0 4653.0,2314.0 C 4692.0,2308.0 4701.0,2311.0 4733.0,2340.0 C 4772.0,2374.0 4779.0,2390.0 4755.0,2390.0 C 4747.0,2390.0 4740.0,2397.0 4740.0,2405.0 C 4740.0,2413.0 4745.0,2420.0 4750.0,2420.0 C 4757.0,2420.0 4756.0,2428.0 4748.0,2442.0 C 4739.0,2458.0 4734.0,2537.0 4732.0,2705.0 C 4728.0,2921.0 4726.0,2948.0 4709.0,2972.0 C 4683.0,3007.0 4685.0,3048.0 4714.0,3091.0 C 4732.0,3117.0 4739.0,3144.0 4743.0,3196.0 C 4745.0,3234.0 4760.0,3308.0 4775.0,3360.0 C 4790.0,3412.0 4807.0,3473.0 4813.0,3495.0 C 4823.0,3527.0 4830.0,3536.0 4852.0,3538.0 C 4884.0,3542.0 4899.0,3570.0 4869.0,3570.0 C 4837.0,3570.0 4813.0,3587.0 4806.0,3616.0 C 4796.0,3656.0 4770.0,3690.0 4749.0,3690.0 C 4727.0,3690.0 4724.0,3712.0 4743.0,3729.0 C 4751.0,3735.0 4776.0,3747.0 4800.0,3755.0 C 4838.0,3768.0 4866.0,3789.0 4957.0,3869.0 C 4976.0,3886.0 4980.0,3899.0 4979.0,3945.0 C 4978.0,3990.0 4982.0,4007.0 5004.0,4038.0 C 5018.0,4059.0 5030.0,4088.0 5030.0,4102.0 C 5030.0,4123.0 5040.0,4134.0 5085.0,4159.0 C 5119.0,4178.0 5140.0,4197.0 5140.0,4208.0 C 5140.0,4248.0 5127.0,4270.0 5096.0,4280.0 C 5062.0,4291.0 5010.0,4362.0 5010.0,4399.0 C 5010.0,4417.0 5014.0,4420.0 5030.0,4415.0 C 5043.0,4411.0 5050.0,4413.0 5050.0,4422.0 C 5050.0,4438.0 5094.0,4482.0 5127.0,4499.0 C 5139.0,4505.0 5168.0,4510.0 5192.0,4510.0 C 5218.0,4510.0 5249.0,4518.0 5269.0,4531.0 C 5297.0,4548.0 5313.0,4551.0 5354.0,4546.0 C 5531.0,4526.0 5528.0,4526.0 5570.0,4554.0 C 5592.0,4568.0 5610.0,4587.0 5610.0,4595.0 C 5610.0,4646.0 5717.0,4796.0 5813.0,4882.0 C 5855.0,4919.0 5856.0,4919.0 5945.0,4920.0 C 5995.0,4920.0 6040.0,4924.0 6047.0,4928.0 C 6053.0,4932.0 6062.0,4948.0 6065.0,4963.0 C 6069.0,4978.0 6082.0,4996.0 6094.0,5003.0 C 6127.0,5021.0 6230.0,5137.0 6230.0,5156.0 C 6230.0,5165.0 6244.0,5186.0 6261.0,5203.0 C 6277.0,5221.0 6320.0,5265.0 6356.0,5303.0 C 6408.0,5356.0 6428.0,5370.0 6451.0,5370.0 C 6470.0,5370.0 6480.0,5375.0 6480.0,5385.0 C 6480.0,5407.0 6534.0,5430.0 6587.0,5430.0 L 6636.0,5430.0 L 6717.0,5523.0 C 6761.0,5573.0 6816.0,5626.0 6839.0,5640.0 C 6869.0,5659.0 6880.0,5672.0 6880.0,5690.0 C 6880.0,5715.0 6924.0,5760.0 6991.0,5803.0 C 7027.0,5827.0 7116.0,5939.0 7137.0,5988.0 C 7153.0,6025.0 7165.0,6035.0 7235.0,6070.0 C 7294.0,6101.0 7336.0,6114.0 7395.0,6122.0 C 7502.0,6136.0 7550.0,6156.0 7550.0,6187.0 C 7550.0,6204.0 7567.0,6222.0 7615.0,6257.0 C 7682.0,6305.0 7691.0,6322.0 7665.0,6356.0 C 7656.0,6368.0 7651.0,6398.0 7650.0,6436.0 C 7650.0,6491.0 7652.0,6498.0 7680.0,6518.0 C 7697.0,6531.0 7724.0,6540.0 7745.0,6540.0 C 7776.0,6540.0 7780.0,6543.0 7780.0,6565.0 C 7780.0,6580.0 7786.0,6590.0 7794.0,6590.0 C 7802.0,6590.0 7839.0,6615.0 7877.0,6645.0 C 7929.0,6687.0 7953.0,6700.0 7979.0,6700.0 C 8000.0,6700.0 8023.0,6709.0 8043.0,6726.0 C 8070.0,6749.0 8081.0,6752.0 8130.0,6748.0 C 8181.0,6743.0 8188.0,6745.0 8225.0,6776.0 C 8270.0,6813.0 8325.0,6835.0 8390.0,6845.0 C 8467.0,6856.0 8497.0,6883.0 8545.0,6984.0 C 8656.0,7220.0 8660.0,7231.0 8660.0,7286.0 C 8660.0,7331.0 8666.0,7350.0 8700.0,7405.0 C 8722.0,7441.0 8740.0,7475.0 8740.0,7480.0 C 8740.0,7486.0 8758.0,7510.0 8780.0,7534.0 C 8807.0,7564.0 8823.0,7591.0 8827.0,7617.0 C 8830.0,7638.0 8839.0,7659.0 8847.0,7663.0 C 8865.0,7674.0 8863.0,7708.0 8840.0,7800.0 C 8820.0,7877.0 8820.0,7878.0 8839.0,7951.0 C 8869.0,8067.0 8885.0,8097.0 8922.0,8110.0 C 8976.0,8128.0 9033.0,8189.0 9083.0,8281.0 C 9124.0,8357.0 9131.0,8377.0 9140.0,8464.0 C 9152.0,8565.0 9159.0,8584.0 9216.0,8655.0 C 9249.0,8697.0 9280.0,8774.0 9280.0,8814.0 C 9280.0,8830.0 9267.0,8846.0 9238.0,8865.0 L 9196.0,8893.0 L 9061.0,8887.0 C 8985.0,8883.0 8863.0,8886.0 8784.0,8892.0 C 8663.0,8902.0 8637.0,8901.0 8599.0,8888.0 C 8557.0,8874.0 8545.0,8874.0 8459.0,8890.0 C 8308.0,8919.0 8152.0,8967.0 8081.0,9006.0 C 8045.0,9026.0 8013.0,9044.0 8011.0,9046.0 C 8009.0,9048.0 7995.0,9101.0 7980.0,9165.0 C 7952.0,9285.0 7951.0,9286.0 7864.0,9380.0 C 7841.0,9405.0 7804.0,9454.0 7782.0,9490.0 C 7759.0,9526.0 7711.0,9582.0 7675.0,9614.0 C 7636.0,9648.0 7599.0,9692.0 7584.0,9721.0 C 7570.0,9749.0 7532.0,9808.0 7499.0,9852.0 C 7466.0,9897.0 7433.0,9947.0 7426.0,9965.0 C 7411.0,10000.0 7334.0,10054.0 7284.0,10065.0 C 7266.0,10068.0 7244.0,10080.0 7234.0,10092.0 C 7173.0,10159.0 6993.0,10240.0 6905.0,10240.0 C 6883.0,10240.0 6853.0,10232.0 6838.0,10222.0" fill="pink"/>
</svg>
