<?xml version="1.0" ?>
<svg xmlns="http://www.w3.org/2000/svg" xmlns:ev="http://www.w3.org/2001/xml-events" xmlns:xlink="http://www.w3.org/1999/xlink" baseProfile="full" height="396px" version="1.1" viewBox="-1024.4779078553654 1069.2085645309953 12293.173982130207 8097.254039489547" width="600px">
	<defs/>
	<path d="M 5030.0,8481.0 C 4991.0,8469.0 4935.0,8438.0 4793.0,8353.0 C 4721.0,8310.0 4626.0,8255.0 4582.0,8232.0 C 4499.0,8186.0 4365.0,8085.0 4295.0,8014.0 C 4273.0,7992.0 4237.0,7960.0 4215.0,7943.0 C 4168.0,7908.0 4022.0,7834.0 3930.0,7800.0 C 3894.0,7787.0 3847.0,7764.0 3825.0,7749.0 C 3732.0,7687.0 3490.0,7558.0 3419.0,7533.0 L 3343.0,7506.0 L 3174.0,7524.0 C 3081.0,7534.0 2969.0,7548.0 2925.0,7556.0 C 2753.0,7586.0 2688.0,7591.0 2560.0,7579.0 L 2435.0,7568.0 L 2265.0,7620.0 C 2172.0,7649.0 2089.0,7676.0 2081.0,7680.0 C 2073.0,7684.0 2026.0,7677.0 1976.0,7663.0 C 1806.0,7618.0 1743.0,7611.0 1608.0,7625.0 L 1542.0,7632.0 L 1427.0,7571.0 C 1363.0,7537.0 1285.0,7490.0 1253.0,7467.0 C 1221.0,7443.0 1178.0,7414.0 1156.0,7402.0 C 1135.0,7389.0 1085.0,7355.0 1046.0,7326.0 L 975.0,7273.0 L 768.0,7255.0 C 654.0,7245.0 533.0,7240.0 500.0,7243.0 C 459.0,7246.0 418.0,7242.0 368.0,7229.0 C 281.0,7207.0 217.0,7205.0 162.0,7224.0 C 100.0,7246.0 20.0,7248.0 8.0,7227.0 C 2.0,7215.0 3.0,7204.0 12.0,7192.0 C 41.0,7151.0 76.0,7114.0 102.0,7097.0 C 118.0,7088.0 130.0,7074.0 130.0,7066.0 C 130.0,7053.0 156.0,7026.0 236.0,6956.0 C 267.0,6929.0 287.0,6920.0 313.0,6920.0 C 377.0,6920.0 407.0,6898.0 476.0,6804.0 C 512.0,6755.0 544.0,6711.0 546.0,6705.0 C 548.0,6700.0 559.0,6670.0 570.0,6639.0 C 589.0,6585.0 593.0,6582.0 635.0,6571.0 C 683.0,6559.0 784.0,6557.0 842.0,6566.0 L 880.0,6573.0 L 880.0,6626.0 L 880.0,6679.0 L 839.0,6682.0 C 789.0,6686.0 768.0,6709.0 788.0,6740.0 C 794.0,6751.0 800.0,6776.0 800.0,6795.0 C 800.0,6833.0 813.0,6841.0 829.0,6812.0 C 835.0,6801.0 834.0,6782.0 824.0,6755.0 C 808.0,6706.0 817.0,6698.0 882.0,6706.0 C 908.0,6710.0 936.0,6710.0 945.0,6706.0 C 960.0,6701.0 959.0,6697.0 941.0,6674.0 C 898.0,6619.0 918.0,6600.0 1021.0,6600.0 C 1071.0,6600.0 1078.0,6603.0 1099.0,6631.0 C 1120.0,6659.0 1121.0,6667.0 1111.0,6700.0 C 1089.0,6773.0 1096.0,6800.0 1147.0,6852.0 L 1194.0,6900.0 L 1177.0,6934.0 C 1162.0,6967.0 1162.0,6970.0 1180.0,6992.0 C 1203.0,7021.0 1215.0,7011.0 1199.0,6976.0 C 1190.0,6956.0 1190.0,6944.0 1198.0,6925.0 C 1217.0,6883.0 1212.0,6868.0 1169.0,6830.0 C 1124.0,6791.0 1117.0,6764.0 1141.0,6714.0 C 1151.0,6694.0 1164.0,6684.0 1183.0,6682.0 C 1207.0,6679.0 1227.0,6695.0 1323.0,6790.0 C 1385.0,6851.0 1449.0,6909.0 1467.0,6919.0 C 1484.0,6930.0 1505.0,6949.0 1514.0,6961.0 C 1528.0,6982.0 1528.0,6985.0 1513.0,7002.0 C 1504.0,7012.0 1489.0,7020.0 1480.0,7020.0 C 1470.0,7020.0 1457.0,7033.0 1450.0,7050.0 C 1438.0,7078.0 1440.0,7083.0 1476.0,7124.0 C 1498.0,7148.0 1523.0,7169.0 1532.0,7169.0 C 1541.0,7170.0 1553.0,7177.0 1558.0,7186.0 C 1565.0,7198.0 1569.0,7199.0 1574.0,7191.0 C 1585.0,7174.0 1561.0,7150.0 1534.0,7150.0 C 1517.0,7150.0 1503.0,7138.0 1485.0,7110.0 C 1454.0,7061.0 1454.0,7050.0 1484.0,7050.0 C 1501.0,7050.0 1515.0,7039.0 1530.0,7015.0 C 1549.0,6984.0 1556.0,6980.0 1595.0,6980.0 C 1619.0,6980.0 1642.0,6985.0 1645.0,6990.0 C 1648.0,6996.0 1682.0,7000.0 1721.0,7000.0 C 1798.0,7000.0 1804.0,7008.0 1775.0,7064.0 C 1757.0,7099.0 1757.0,7101.0 1774.0,7094.0 C 1782.0,7091.0 1791.0,7078.0 1794.0,7064.0 C 1804.0,7024.0 1827.0,7037.0 1862.0,7102.0 C 1906.0,7185.0 1942.0,7205.0 2058.0,7213.0 C 2122.0,7217.0 2152.0,7214.0 2172.0,7204.0 C 2187.0,7196.0 2211.0,7190.0 2226.0,7190.0 C 2241.0,7190.0 2277.0,7176.0 2306.0,7159.0 C 2338.0,7141.0 2367.0,7131.0 2378.0,7134.0 C 2389.0,7138.0 2407.0,7132.0 2423.0,7120.0 C 2437.0,7109.0 2459.0,7100.0 2472.0,7100.0 C 2488.0,7100.0 2506.0,7084.0 2535.0,7044.0 C 2579.0,6982.0 2646.0,6920.0 2668.0,6920.0 C 2702.0,6920.0 2751.0,6885.0 2775.0,6844.0 C 2789.0,6820.0 2822.0,6780.0 2848.0,6755.0 C 2882.0,6722.0 2890.0,6710.0 2877.0,6710.0 C 2849.0,6710.0 2768.0,6783.0 2741.0,6832.0 C 2723.0,6866.0 2706.0,6881.0 2659.0,6903.0 C 2625.0,6919.0 2595.0,6941.0 2587.0,6956.0 C 2580.0,6969.0 2546.0,7005.0 2512.0,7035.0 C 2457.0,7082.0 2444.0,7089.0 2393.0,7095.0 C 2361.0,7099.0 2326.0,7108.0 2315.0,7115.0 C 2304.0,7121.0 2258.0,7143.0 2213.0,7163.0 C 2123.0,7203.0 2120.0,7203.0 1986.0,7166.0 C 1913.0,7147.0 1898.0,7133.0 1870.0,7065.0 C 1842.0,6997.0 1781.0,6950.0 1720.0,6950.0 C 1686.0,6950.0 1668.0,6942.0 1622.0,6906.0 C 1590.0,6882.0 1530.0,6841.0 1488.0,6816.0 C 1421.0,6775.0 1407.0,6762.0 1376.0,6706.0 C 1344.0,6647.0 1342.0,6637.0 1347.0,6585.0 C 1351.0,6546.0 1359.0,6525.0 1372.0,6516.0 C 1389.0,6504.0 1389.0,6502.0 1375.0,6496.0 C 1344.0,6484.0 1320.0,6508.0 1320.0,6549.0 C 1320.0,6573.0 1315.0,6590.0 1306.0,6593.0 C 1290.0,6600.0 1195.0,6545.0 1117.0,6483.0 C 1068.0,6445.0 1063.0,6437.0 1053.0,6382.0 C 1044.0,6337.0 1030.0,6307.0 991.0,6253.0 C 963.0,6215.0 940.0,6177.0 940.0,6169.0 C 940.0,6149.0 960.0,6130.0 982.0,6130.0 C 1010.0,6130.0 1030.0,6088.0 1037.0,6014.0 C 1043.0,5941.0 1059.0,5900.0 1093.0,5862.0 C 1112.0,5842.0 1120.0,5840.0 1166.0,5846.0 C 1207.0,5851.0 1225.0,5848.0 1259.0,5830.0 C 1308.0,5806.0 1355.0,5738.0 1365.0,5679.0 C 1378.0,5605.0 1495.0,5534.0 1625.0,5523.0 C 1695.0,5516.0 1753.0,5490.0 1788.0,5449.0 C 1838.0,5389.0 1872.0,5389.0 1891.0,5448.0 C 1905.0,5493.0 1924.0,5515.0 1973.0,5547.0 C 2014.0,5573.0 2026.0,5573.0 2219.0,5546.0 C 2261.0,5540.0 2303.0,5562.0 2368.0,5624.0 C 2437.0,5691.0 2449.0,5714.0 2427.0,5738.0 C 2419.0,5747.0 2406.0,5772.0 2399.0,5793.0 C 2389.0,5821.0 2376.0,5835.0 2345.0,5850.0 C 2322.0,5861.0 2299.0,5870.0 2293.0,5870.0 C 2287.0,5870.0 2280.0,5909.0 2276.0,5962.0 C 2272.0,6020.0 2264.0,6061.0 2254.0,6071.0 C 2229.0,6099.0 2238.0,6115.0 2265.0,6090.0 C 2296.0,6061.0 2314.0,6068.0 2345.0,6121.0 C 2360.0,6147.0 2371.0,6154.0 2388.0,6152.0 C 2417.0,6148.0 2414.0,6120.0 2382.0,6104.0 C 2340.0,6083.0 2323.0,6060.0 2311.0,6005.0 C 2294.0,5929.0 2303.0,5891.0 2341.0,5883.0 C 2361.0,5879.0 2377.0,5865.0 2394.0,5836.0 C 2407.0,5814.0 2432.0,5785.0 2448.0,5773.0 C 2476.0,5753.0 2479.0,5752.0 2492.0,5767.0 C 2503.0,5780.0 2503.0,5784.0 2492.0,5788.0 C 2468.0,5796.0 2425.0,5838.0 2433.0,5846.0 C 2437.0,5850.0 2450.0,5844.0 2463.0,5832.0 C 2475.0,5821.0 2497.0,5808.0 2512.0,5805.0 C 2536.0,5799.0 2542.0,5802.0 2557.0,5829.0 C 2570.0,5851.0 2587.0,5864.0 2615.0,5871.0 C 2637.0,5877.0 2661.0,5884.0 2669.0,5886.0 C 2678.0,5889.0 2680.0,5898.0 2676.0,5915.0 C 2672.0,5929.0 2675.0,5960.0 2681.0,5986.0 C 2695.0,6038.0 2683.0,6063.0 2655.0,6040.0 C 2644.0,6031.0 2636.0,6030.0 2628.0,6038.0 C 2620.0,6046.0 2627.0,6050.0 2653.0,6055.0 C 2706.0,6065.0 2713.0,6056.0 2706.0,5990.0 L 2699.0,5933.0 L 2752.0,5927.0 C 2787.0,5923.0 2822.0,5926.0 2854.0,5935.0 C 2914.0,5953.0 2944.0,5954.0 2970.0,5938.0 C 2995.0,5922.0 3005.0,5933.0 2990.0,5960.0 C 2970.0,5998.0 2985.0,6005.0 3008.0,5968.0 C 3025.0,5940.0 3030.0,5917.0 3030.0,5861.0 C 3030.0,5782.0 3034.0,5779.0 3085.0,5810.0 C 3111.0,5826.0 3123.0,5828.0 3145.0,5820.0 C 3181.0,5806.0 3180.0,5805.0 3180.0,5849.0 C 3180.0,5882.0 3187.0,5894.0 3228.0,5932.0 C 3300.0,6000.0 3312.0,6004.0 3363.0,5982.0 C 3413.0,5960.0 3425.0,5946.0 3437.0,5900.0 C 3446.0,5866.0 3448.0,5865.0 3494.0,5866.0 C 3522.0,5866.0 3539.0,5862.0 3537.0,5856.0 C 3531.0,5839.0 3439.0,5842.0 3429.0,5860.0 C 3425.0,5868.0 3413.0,5893.0 3403.0,5914.0 C 3373.0,5976.0 3363.0,5978.0 3276.0,5936.0 L 3198.0,5898.0 L 3201.0,5857.0 C 3205.0,5814.0 3175.0,5720.0 3159.0,5720.0 C 3154.0,5720.0 3150.0,5730.0 3150.0,5743.0 C 3150.0,5781.0 3133.0,5790.0 3089.0,5774.0 C 3059.0,5764.0 3044.0,5763.0 3025.0,5772.0 C 3003.0,5782.0 3000.0,5790.0 3000.0,5836.0 C 3000.0,5917.0 2962.0,5922.0 2832.0,5856.0 C 2752.0,5816.0 2670.0,5747.0 2670.0,5721.0 C 2670.0,5717.0 2659.0,5702.0 2646.0,5688.0 C 2632.0,5675.0 2614.0,5642.0 2605.0,5614.0 C 2581.0,5544.0 2543.0,5493.0 2493.0,5463.0 C 2469.0,5449.0 2450.0,5437.0 2450.0,5435.0 C 2450.0,5434.0 2437.0,5389.0 2420.0,5336.0 C 2404.0,5283.0 2389.0,5222.0 2386.0,5201.0 C 2383.0,5177.0 2368.0,5144.0 2346.0,5116.0 C 2300.0,5055.0 2293.0,5016.0 2315.0,4935.0 C 2325.0,4899.0 2337.0,4867.0 2341.0,4865.0 C 2345.0,4862.0 2362.0,4876.0 2378.0,4896.0 C 2413.0,4938.0 2493.0,4966.0 2535.0,4950.0 C 2555.0,4943.0 2562.0,4944.0 2569.0,4959.0 C 2575.0,4969.0 2577.0,4980.0 2574.0,4983.0 C 2570.0,4986.0 2566.0,5022.0 2565.0,5062.0 C 2562.0,5137.0 2575.0,5170.0 2607.0,5170.0 C 2614.0,5170.0 2620.0,5179.0 2620.0,5190.0 C 2620.0,5201.0 2616.0,5210.0 2612.0,5210.0 C 2597.0,5210.0 2580.0,5259.0 2580.0,5301.0 C 2580.0,5351.0 2596.0,5344.0 2605.0,5290.0 C 2609.0,5268.0 2614.0,5250.0 2618.0,5250.0 C 2621.0,5250.0 2634.0,5260.0 2647.0,5272.0 C 2676.0,5299.0 2688.0,5289.0 2666.0,5256.0 C 2657.0,5242.0 2650.0,5220.0 2650.0,5206.0 C 2650.0,5190.0 2638.0,5172.0 2614.0,5153.0 L 2578.0,5124.0 L 2590.0,5067.0 C 2603.0,5001.0 2632.0,4973.0 2675.0,4984.0 C 2702.0,4991.0 2703.0,4992.0 2719.0,5056.0 C 2725.0,5079.0 2741.0,5112.0 2755.0,5131.0 C 2850.0,5262.0 2853.0,5268.0 2847.0,5315.0 C 2843.0,5356.0 2846.0,5364.0 2874.0,5395.0 L 2906.0,5429.0 L 2968.0,5406.0 C 3003.0,5394.0 3037.0,5374.0 3046.0,5361.0 C 3060.0,5342.0 3070.0,5339.0 3105.0,5342.0 C 3137.0,5344.0 3146.0,5342.0 3139.0,5334.0 C 3118.0,5309.0 3079.0,5312.0 3046.0,5341.0 C 2991.0,5389.0 2926.0,5404.0 2897.0,5376.0 C 2889.0,5368.0 2880.0,5330.0 2876.0,5291.0 C 2871.0,5241.0 2862.0,5211.0 2844.0,5184.0 C 2830.0,5164.0 2812.0,5120.0 2803.0,5086.0 C 2795.0,5053.0 2781.0,5013.0 2774.0,4998.0 C 2751.0,4954.0 2756.0,4917.0 2786.0,4903.0 C 2819.0,4888.0 2835.0,4894.0 2892.0,4947.0 C 2918.0,4970.0 2944.0,4990.0 2951.0,4990.0 C 2957.0,4990.0 2990.0,5007.0 3024.0,5027.0 C 3106.0,5078.0 3180.0,5100.0 3268.0,5100.0 C 3347.0,5100.0 3350.0,5102.0 3408.0,5179.0 C 3422.0,5198.0 3441.0,5210.0 3454.0,5210.0 C 3467.0,5210.0 3498.0,5219.0 3522.0,5230.0 C 3557.0,5245.0 3571.0,5259.0 3585.0,5291.0 C 3609.0,5344.0 3732.0,5470.0 3760.0,5470.0 C 3796.0,5470.0 3830.0,5501.0 3860.0,5559.0 C 3892.0,5624.0 3914.0,5635.0 4024.0,5646.0 C 4086.0,5652.0 4098.0,5657.0 4135.0,5691.0 C 4158.0,5712.0 4189.0,5734.0 4204.0,5740.0 C 4264.0,5762.0 4429.0,5742.0 4488.0,5704.0 C 4500.0,5696.0 4527.0,5665.0 4547.0,5635.0 L 4583.0,5580.0 L 4638.0,5580.0 C 4681.0,5580.0 4702.0,5574.0 4730.0,5555.0 C 4779.0,5521.0 4900.0,5481.0 4925.0,5490.0 C 4936.0,5494.0 4971.0,5523.0 5003.0,5555.0 C 5043.0,5596.0 5060.0,5620.0 5060.0,5639.0 C 5060.0,5695.0 5164.0,5770.0 5243.0,5770.0 C 5269.0,5770.0 5292.0,5776.0 5299.0,5784.0 C 5320.0,5809.0 5404.0,5814.0 5455.0,5794.0 C 5492.0,5781.0 5506.0,5779.0 5526.0,5789.0 C 5567.0,5807.0 5588.0,5802.0 5650.0,5758.0 L 5710.0,5716.0 L 5740.0,5745.0 C 5780.0,5784.0 5791.0,5769.0 5751.0,5729.0 C 5730.0,5708.0 5714.0,5700.0 5702.0,5705.0 C 5693.0,5708.0 5664.0,5714.0 5638.0,5717.0 C 5598.0,5722.0 5590.0,5720.0 5578.0,5701.0 C 5569.0,5687.0 5555.0,5680.0 5534.0,5680.0 C 5499.0,5680.0 5490.0,5667.0 5490.0,5615.0 C 5490.0,5544.0 5469.0,5480.0 5427.0,5428.0 C 5373.0,5359.0 5365.0,5314.0 5392.0,5230.0 C 5403.0,5194.0 5417.0,5159.0 5423.0,5152.0 C 5429.0,5144.0 5455.0,5140.0 5494.0,5141.0 C 5575.0,5143.0 5639.0,5112.0 5670.0,5059.0 C 5682.0,5037.0 5702.0,5007.0 5716.0,4990.0 C 5745.0,4956.0 5802.0,4941.0 5825.0,4960.0 C 5837.0,4970.0 5840.0,4970.0 5840.0,4957.0 C 5840.0,4941.0 5773.0,4920.0 5721.0,4920.0 C 5697.0,4920.0 5687.0,4928.0 5663.0,4965.0 C 5613.0,5047.0 5608.0,5051.0 5540.0,5065.0 C 5504.0,5073.0 5456.0,5079.0 5433.0,5080.0 C 5364.0,5080.0 5343.0,5112.0 5349.0,5207.0 C 5350.0,5224.0 5344.0,5253.0 5334.0,5272.0 C 5323.0,5292.0 5316.0,5329.0 5316.0,5365.0 C 5315.0,5420.0 5319.0,5429.0 5353.0,5474.0 C 5374.0,5501.0 5400.0,5540.0 5410.0,5560.0 C 5428.0,5595.0 5428.0,5599.0 5412.0,5613.0 C 5403.0,5621.0 5375.0,5634.0 5350.0,5640.0 C 5305.0,5652.0 5305.0,5652.0 5280.0,5619.0 C 5238.0,5563.0 5159.0,5490.0 5134.0,5485.0 C 5121.0,5482.0 5099.0,5478.0 5086.0,5475.0 C 5073.0,5472.0 5039.0,5449.0 5011.0,5424.0 L 4959.0,5378.0 L 4862.0,5376.0 C 4784.0,5374.0 4757.0,5378.0 4726.0,5393.0 C 4695.0,5408.0 4682.0,5410.0 4668.0,5401.0 C 4658.0,5395.0 4618.0,5390.0 4578.0,5390.0 C 4515.0,5389.0 4497.0,5394.0 4445.0,5421.0 C 4384.0,5453.0 4384.0,5453.0 4325.0,5439.0 C 4269.0,5426.0 4263.0,5421.0 4192.0,5338.0 C 4126.0,5258.0 4115.0,5250.0 4084.0,5250.0 C 4065.0,5250.0 4036.0,5243.0 4021.0,5235.0 C 3978.0,5213.0 3815.0,5028.0 3791.0,4976.0 C 3780.0,4950.0 3756.0,4910.0 3737.0,4887.0 C 3693.0,4832.0 3686.0,4804.0 3712.0,4786.0 C 3730.0,4773.0 3732.0,4765.0 3726.0,4721.0 C 3720.0,4679.0 3722.0,4670.0 3735.0,4670.0 C 3743.0,4670.0 3750.0,4661.0 3750.0,4651.0 C 3750.0,4632.0 3768.0,4620.0 3797.0,4620.0 C 3821.0,4620.0 3839.0,4651.0 3840.0,4692.0 C 3840.0,4718.0 3846.0,4733.0 3862.0,4744.0 C 3884.0,4760.0 3926.0,4756.0 3945.0,4737.0 C 3952.0,4731.0 3946.0,4730.0 3928.0,4734.0 C 3907.0,4739.0 3900.0,4736.0 3895.0,4719.0 C 3891.0,4707.0 3894.0,4692.0 3903.0,4682.0 C 3922.0,4659.0 3930.0,4610.0 3919.0,4587.0 C 3913.0,4577.0 3912.0,4560.0 3915.0,4550.0 C 3920.0,4534.0 3930.0,4530.0 3969.0,4530.0 C 4026.0,4530.0 4038.0,4539.0 4079.0,4612.0 C 4100.0,4650.0 4120.0,4672.0 4135.0,4676.0 C 4172.0,4685.0 4189.0,4674.0 4158.0,4662.0 C 4143.0,4656.0 4126.0,4641.0 4119.0,4629.0 C 4109.0,4610.0 4111.0,4604.0 4131.0,4589.0 L 4155.0,4570.0 L 4118.0,4570.0 C 4075.0,4570.0 4071.0,4560.0 4101.0,4518.0 C 4126.0,4483.0 4116.0,4465.0 4090.0,4497.0 C 4064.0,4530.0 4043.0,4525.0 4030.0,4484.0 C 4020.0,4455.0 4020.0,4446.0 4031.0,4439.0 C 4038.0,4435.0 4042.0,4429.0 4040.0,4428.0 C 4037.0,4426.0 4023.0,4416.0 4008.0,4407.0 C 3987.0,4394.0 3980.0,4382.0 3980.0,4358.0 C 3980.0,4321.0 4007.0,4243.0 4028.0,4218.0 C 4036.0,4208.0 4040.0,4194.0 4037.0,4185.0 C 4033.0,4176.0 4040.0,4164.0 4058.0,4153.0 C 4073.0,4143.0 4088.0,4132.0 4091.0,4127.0 C 4095.0,4122.0 4101.0,4123.0 4105.0,4130.0 C 4109.0,4136.0 4100.0,4159.0 4085.0,4181.0 C 4064.0,4214.0 4060.0,4230.0 4062.0,4273.0 C 4066.0,4327.0 4070.0,4324.0 4092.0,4250.0 C 4101.0,4220.0 4111.0,4204.0 4124.0,4202.0 C 4139.0,4199.0 4141.0,4202.0 4134.0,4216.0 C 4130.0,4227.0 4126.0,4253.0 4125.0,4275.0 C 4125.0,4297.0 4121.0,4320.0 4117.0,4326.0 C 4109.0,4340.0 4118.0,4350.0 4138.0,4350.0 C 4146.0,4350.0 4159.0,4358.0 4167.0,4367.0 C 4180.0,4383.0 4181.0,4380.0 4177.0,4337.0 C 4170.0,4258.0 4202.0,4214.0 4256.0,4229.0 C 4295.0,4239.0 4300.0,4274.0 4266.0,4305.0 C 4252.0,4318.0 4240.0,4334.0 4240.0,4340.0 C 4240.0,4360.0 4287.0,4350.0 4310.0,4325.0 C 4323.0,4311.0 4339.0,4300.0 4347.0,4300.0 C 4365.0,4300.0 4364.0,4325.0 4345.0,4340.0 C 4326.0,4356.0 4300.0,4408.0 4300.0,4432.0 C 4300.0,4442.0 4297.0,4450.0 4293.0,4450.0 C 4288.0,4450.0 4276.0,4457.0 4266.0,4465.0 C 4250.0,4477.0 4249.0,4482.0 4260.0,4495.0 C 4269.0,4506.0 4269.0,4514.0 4262.0,4523.0 C 4255.0,4530.0 4255.0,4541.0 4260.0,4550.0 C 4274.0,4573.0 4300.0,4543.0 4300.0,4504.0 C 4300.0,4486.0 4305.0,4468.0 4310.0,4465.0 C 4316.0,4461.0 4332.0,4441.0 4345.0,4420.0 C 4370.0,4381.0 4411.0,4358.0 4418.0,4379.0 C 4420.0,4385.0 4429.0,4390.0 4437.0,4390.0 C 4447.0,4390.0 4450.0,4396.0 4446.0,4406.0 C 4443.0,4415.0 4440.0,4426.0 4440.0,4431.0 C 4440.0,4436.0 4432.0,4440.0 4422.0,4440.0 C 4408.0,4440.0 4403.0,4448.0 4402.0,4470.0 C 4401.0,4496.0 4404.0,4500.0 4421.0,4495.0 C 4437.0,4490.0 4440.0,4494.0 4440.0,4520.0 C 4440.0,4543.0 4435.0,4553.0 4420.0,4557.0 C 4396.0,4563.0 4393.0,4580.0 4416.0,4580.0 C 4430.0,4580.0 4432.0,4587.0 4427.0,4620.0 C 4421.0,4667.0 4430.0,4677.0 4454.0,4651.0 C 4466.0,4637.0 4473.0,4606.0 4477.0,4541.0 C 4481.0,4473.0 4486.0,4450.0 4497.0,4450.0 C 4517.0,4450.0 4528.0,4488.0 4519.0,4534.0 C 4515.0,4557.0 4514.0,4577.0 4516.0,4579.0 C 4518.0,4582.0 4533.0,4569.0 4548.0,4551.0 C 4566.0,4529.0 4582.0,4519.0 4595.0,4521.0 C 4626.0,4527.0 4626.0,4572.0 4595.0,4609.0 C 4580.0,4626.0 4573.0,4640.0 4580.0,4640.0 C 4601.0,4640.0 4586.0,4685.0 4565.0,4686.0 C 4520.0,4688.0 4510.0,4690.0 4510.0,4700.0 C 4510.0,4706.0 4518.0,4710.0 4528.0,4710.0 C 4558.0,4710.0 4561.0,4721.0 4540.0,4750.0 C 4519.0,4779.0 4514.0,4800.0 4528.0,4800.0 C 4540.0,4800.0 4555.0,4786.0 4574.0,4756.0 C 4596.0,4722.0 4604.0,4731.0 4614.0,4799.0 C 4623.0,4855.0 4638.0,4886.0 4652.0,4872.0 C 4659.0,4865.0 4659.0,4851.0 4652.0,4828.0 C 4630.0,4755.0 4632.0,4672.0 4655.0,4710.0 C 4658.0,4715.0 4669.0,4720.0 4678.0,4720.0 C 4691.0,4720.0 4689.0,4714.0 4667.0,4695.0 C 4634.0,4664.0 4632.0,4627.0 4662.0,4605.0 C 4683.0,4591.0 4685.0,4591.0 4692.0,4607.0 C 4695.0,4617.0 4699.0,4637.0 4699.0,4653.0 C 4700.0,4668.0 4704.0,4680.0 4709.0,4680.0 C 4714.0,4680.0 4722.0,4689.0 4725.0,4700.0 C 4728.0,4711.0 4738.0,4720.0 4746.0,4720.0 C 4754.0,4720.0 4760.0,4728.0 4760.0,4737.0 C 4760.0,4746.0 4767.0,4762.0 4777.0,4772.0 C 4792.0,4789.0 4792.0,4791.0 4777.0,4808.0 C 4753.0,4834.0 4756.0,4858.0 4783.0,4862.0 C 4801.0,4864.0 4806.0,4873.0 4810.0,4910.0 L 4816.0,4955.0 L 4830.0,4928.0 C 4839.0,4908.0 4851.0,4900.0 4869.0,4900.0 C 4906.0,4900.0 4916.0,4890.0 4918.0,4852.0 L 4920.0,4819.0 L 4891.0,4841.0 C 4875.0,4853.0 4856.0,4860.0 4849.0,4858.0 C 4843.0,4856.0 4831.0,4832.0 4824.0,4804.0 C 4812.0,4759.0 4812.0,4754.0 4831.0,4741.0 C 4859.0,4721.0 4855.0,4700.0 4823.0,4700.0 C 4799.0,4700.0 4791.0,4691.0 4767.0,4645.0 C 4745.0,4600.0 4742.0,4590.0 4756.0,4590.0 C 4765.0,4590.0 4770.0,4583.0 4768.0,4573.0 C 4766.0,4561.0 4748.0,4551.0 4716.0,4543.0 C 4666.0,4531.0 4644.0,4512.0 4659.0,4497.0 C 4669.0,4487.0 4738.0,4498.0 4746.0,4511.0 C 4749.0,4516.0 4761.0,4520.0 4774.0,4520.0 C 4800.0,4520.0 4830.0,4548.0 4830.0,4573.0 C 4830.0,4582.0 4835.0,4592.0 4840.0,4595.0 C 4846.0,4598.0 4850.0,4610.0 4850.0,4621.0 C 4850.0,4631.0 4855.0,4640.0 4861.0,4640.0 C 4868.0,4640.0 4869.0,4629.0 4865.0,4611.0 C 4860.0,4589.0 4864.0,4576.0 4879.0,4561.0 C 4917.0,4523.0 4940.0,4538.0 4940.0,4600.0 C 4940.0,4624.0 4945.0,4629.0 4968.0,4632.0 C 4993.0,4635.0 4995.0,4638.0 4996.0,4684.0 C 4997.0,4744.0 5014.0,4754.0 5030.0,4706.0 C 5036.0,4686.0 5045.0,4670.0 5050.0,4670.0 C 5055.0,4670.0 5070.0,4685.0 5084.0,4703.0 C 5098.0,4720.0 5110.0,4729.0 5110.0,4723.0 C 5110.0,4716.0 5117.0,4710.0 5125.0,4710.0 C 5134.0,4710.0 5137.0,4704.0 5134.0,4695.0 C 5130.0,4687.0 5123.0,4680.0 5116.0,4680.0 C 5110.0,4680.0 5095.0,4669.0 5082.0,4655.0 C 5069.0,4642.0 5041.0,4623.0 5020.0,4614.0 C 4996.0,4603.0 4977.0,4586.0 4970.0,4569.0 C 4953.0,4528.0 4965.0,4517.0 5016.0,4525.0 C 5052.0,4530.0 5060.0,4528.0 5060.0,4516.0 C 5060.0,4505.0 5069.0,4500.0 5088.0,4500.0 C 5121.0,4500.0 5140.0,4516.0 5140.0,4543.0 C 5140.0,4554.0 5153.0,4577.0 5169.0,4595.0 C 5193.0,4623.0 5199.0,4626.0 5204.0,4612.0 C 5207.0,4603.0 5212.0,4590.0 5215.0,4584.0 C 5218.0,4578.0 5212.0,4570.0 5200.0,4567.0 C 5188.0,4564.0 5180.0,4554.0 5180.0,4541.0 C 5180.0,4530.0 5171.0,4515.0 5160.0,4508.0 C 5149.0,4501.0 5140.0,4492.0 5140.0,4488.0 C 5140.0,4476.0 5208.0,4478.0 5215.0,4490.0 C 5228.0,4511.0 5239.0,4499.0 5234.0,4470.0 C 5226.0,4433.0 5235.0,4409.0 5253.0,4416.0 C 5261.0,4419.0 5282.0,4441.0 5299.0,4466.0 C 5331.0,4510.0 5359.0,4527.0 5344.0,4493.0 C 5340.0,4483.0 5337.0,4465.0 5337.0,4453.0 C 5338.0,4438.0 5330.0,4430.0 5313.0,4425.0 C 5297.0,4421.0 5290.0,4414.0 5294.0,4405.0 C 5297.0,4397.0 5295.0,4390.0 5290.0,4390.0 C 5273.0,4390.0 5279.0,4334.0 5298.0,4317.0 C 5324.0,4293.0 5408.0,4294.0 5426.0,4318.0 C 5437.0,4332.0 5442.0,4333.0 5459.0,4323.0 C 5487.0,4306.0 5486.0,4305.0 5503.0,4348.0 C 5522.0,4394.0 5546.0,4418.0 5561.0,4403.0 C 5568.0,4396.0 5568.0,4386.0 5559.0,4373.0 C 5542.0,4345.0 5554.0,4322.0 5591.0,4306.0 C 5610.0,4298.0 5618.0,4290.0 5611.0,4286.0 C 5605.0,4282.0 5600.0,4270.0 5600.0,4259.0 C 5600.0,4249.0 5596.0,4240.0 5590.0,4240.0 C 5585.0,4240.0 5580.0,4249.0 5580.0,4260.0 C 5580.0,4277.0 5573.0,4280.0 5540.0,4280.0 C 5513.0,4280.0 5498.0,4275.0 5491.0,4263.0 C 5482.0,4246.0 5480.0,4246.0 5468.0,4263.0 C 5459.0,4275.0 5445.0,4281.0 5430.0,4278.0 C 5411.0,4276.0 5403.0,4266.0 5394.0,4235.0 L 5383.0,4195.0 L 5376.0,4239.0 C 5370.0,4281.0 5369.0,4282.0 5351.0,4266.0 C 5335.0,4251.0 5332.0,4251.0 5327.0,4265.0 C 5323.0,4273.0 5311.0,4280.0 5300.0,4280.0 C 5285.0,4280.0 5280.0,4273.0 5279.0,4253.0 C 5277.0,4229.0 5277.0,4228.0 5273.0,4248.0 C 5267.0,4277.0 5242.0,4276.0 5228.0,4245.0 C 5216.0,4218.0 5204.0,4213.0 5197.0,4233.0 C 5189.0,4258.0 5163.0,4220.0 5157.0,4174.0 C 5152.0,4129.0 5137.0,4100.0 5124.0,4113.0 C 5120.0,4116.0 5123.0,4139.0 5130.0,4164.0 C 5143.0,4213.0 5138.0,4230.0 5110.0,4230.0 C 5099.0,4230.0 5086.0,4239.0 5079.0,4251.0 C 5069.0,4271.0 5070.0,4272.0 5107.0,4265.0 C 5151.0,4258.0 5200.0,4273.0 5200.0,4293.0 C 5200.0,4303.0 5208.0,4306.0 5225.0,4302.0 C 5266.0,4295.0 5256.0,4329.0 5202.0,4388.0 C 5136.0,4459.0 5091.0,4458.0 5119.0,4385.0 C 5125.0,4370.0 5122.0,4363.0 5106.0,4354.0 C 5077.0,4339.0 5069.0,4346.0 5080.0,4376.0 C 5088.0,4397.0 5086.0,4408.0 5068.0,4433.0 C 5040.0,4473.0 5032.0,4479.0 5010.0,4473.0 C 5000.0,4470.0 4973.0,4481.0 4950.0,4496.0 C 4911.0,4522.0 4907.0,4523.0 4895.0,4507.0 C 4888.0,4498.0 4874.0,4490.0 4863.0,4490.0 C 4807.0,4490.0 4818.0,4435.0 4881.0,4393.0 L 4924.0,4365.0 L 4897.0,4356.0 C 4866.0,4345.0 4861.0,4320.0 4890.0,4320.0 C 4901.0,4320.0 4910.0,4313.0 4910.0,4305.0 C 4910.0,4297.0 4901.0,4290.0 4890.0,4290.0 C 4875.0,4290.0 4870.0,4283.0 4870.0,4263.0 C 4869.0,4235.0 4869.0,4235.0 4857.0,4258.0 C 4847.0,4275.0 4842.0,4278.0 4832.0,4268.0 C 4823.0,4259.0 4820.0,4262.0 4820.0,4284.0 C 4820.0,4304.0 4814.0,4313.0 4799.0,4317.0 C 4779.0,4323.0 4779.0,4323.0 4798.0,4344.0 C 4833.0,4382.0 4833.0,4390.0 4804.0,4421.0 C 4774.0,4452.0 4757.0,4459.0 4766.0,4436.0 C 4769.0,4428.0 4767.0,4413.0 4762.0,4404.0 C 4753.0,4389.0 4751.0,4390.0 4735.0,4414.0 L 4718.0,4440.0 L 4691.0,4414.0 C 4669.0,4392.0 4664.0,4390.0 4662.0,4404.0 C 4657.0,4425.0 4611.0,4445.0 4597.0,4431.0 C 4591.0,4425.0 4592.0,4416.0 4601.0,4406.0 C 4609.0,4398.0 4621.0,4384.0 4628.0,4375.0 C 4635.0,4367.0 4650.0,4360.0 4660.0,4360.0 C 4681.0,4360.0 4688.0,4326.0 4670.0,4315.0 C 4657.0,4307.0 4666.0,4272.0 4686.0,4249.0 C 4704.0,4229.0 4692.0,4216.0 4672.0,4233.0 C 4660.0,4242.0 4656.0,4242.0 4653.0,4233.0 C 4646.0,4212.0 4630.0,4218.0 4630.0,4243.0 C 4629.0,4269.0 4608.0,4300.0 4591.0,4300.0 C 4584.0,4300.0 4582.0,4305.0 4586.0,4311.0 C 4595.0,4327.0 4569.0,4370.0 4550.0,4370.0 C 4541.0,4370.0 4527.0,4355.0 4519.0,4338.0 C 4511.0,4320.0 4496.0,4303.0 4485.0,4301.0 C 4444.0,4294.0 4409.0,4240.0 4445.0,4240.0 C 4454.0,4240.0 4474.0,4247.0 4489.0,4254.0 C 4527.0,4274.0 4563.0,4264.0 4556.0,4236.0 C 4552.0,4221.0 4557.0,4210.0 4571.0,4201.0 L 4592.0,4188.0 L 4571.0,4174.0 C 4547.0,4157.0 4544.0,4131.0 4563.0,4111.0 C 4573.0,4100.0 4571.0,4098.0 4553.0,4102.0 C 4537.0,4106.0 4530.0,4102.0 4526.0,4087.0 C 4522.0,4071.0 4518.0,4068.0 4509.0,4077.0 C 4501.0,4085.0 4502.0,4100.0 4515.0,4134.0 C 4532.0,4178.0 4530.0,4210.0 4511.0,4210.0 C 4506.0,4210.0 4500.0,4201.0 4497.0,4190.0 C 4494.0,4177.0 4487.0,4172.0 4476.0,4176.0 C 4464.0,4180.0 4460.0,4176.0 4460.0,4161.0 C 4460.0,4149.0 4456.0,4140.0 4450.0,4140.0 C 4445.0,4140.0 4440.0,4148.0 4440.0,4159.0 C 4440.0,4183.0 4415.0,4204.0 4394.0,4196.0 C 4382.0,4191.0 4380.0,4184.0 4385.0,4167.0 C 4393.0,4146.0 4393.0,4040.0 4386.0,4032.0 C 4375.0,4022.0 4320.0,4063.0 4320.0,4080.0 C 4320.0,4105.0 4283.0,4107.0 4265.0,4084.0 C 4255.0,4070.0 4250.0,4070.0 4231.0,4080.0 C 4212.0,4090.0 4205.0,4089.0 4193.0,4077.0 C 4180.0,4064.0 4181.0,4054.0 4203.0,3991.0 C 4217.0,3952.0 4224.0,3918.0 4219.0,3915.0 C 4211.0,3909.0 4151.0,3968.0 4150.0,3983.0 C 4150.0,3987.0 4143.0,3990.0 4135.0,3990.0 C 4124.0,3990.0 4120.0,3979.0 4120.0,3950.0 C 4120.0,3907.0 4101.0,3889.0 4077.0,3909.0 C 4067.0,3917.0 4057.0,3913.0 4036.0,3891.0 C 4000.0,3854.0 3973.0,3846.0 3965.0,3871.0 C 3957.0,3897.0 3944.0,3895.0 3924.0,3865.0 C 3901.0,3830.0 3912.0,3750.0 3941.0,3750.0 C 3967.0,3750.0 3967.0,3704.0 3941.0,3695.0 C 3913.0,3686.0 3850.0,3555.0 3850.0,3506.0 C 3850.0,3482.0 3839.0,3447.0 3819.0,3411.0 C 3794.0,3365.0 3790.0,3351.0 3798.0,3329.0 C 3807.0,3307.0 3817.0,3302.0 3861.0,3296.0 C 3922.0,3288.0 3940.0,3301.0 3940.0,3353.0 C 3940.0,3379.0 3942.0,3381.0 3968.0,3376.0 C 3990.0,3371.0 4004.0,3378.0 4043.0,3411.0 C 4069.0,3433.0 4090.0,3460.0 4090.0,3469.0 C 4090.0,3497.0 4123.0,3520.0 4162.0,3520.0 C 4189.0,3520.0 4211.0,3530.0 4248.0,3560.0 C 4311.0,3609.0 4330.0,3636.0 4330.0,3676.0 C 4330.0,3713.0 4357.0,3750.0 4404.0,3779.0 C 4443.0,3804.0 4490.0,3870.0 4490.0,3902.0 C 4491.0,3929.0 4545.0,3998.0 4556.0,3987.0 C 4561.0,3983.0 4559.0,3971.0 4553.0,3962.0 C 4546.0,3953.0 4522.0,3912.0 4500.0,3872.0 C 4476.0,3830.0 4449.0,3794.0 4435.0,3788.0 C 4382.0,3764.0 4341.0,3673.0 4341.0,3580.0 C 4340.0,3551.0 4347.0,3539.0 4380.0,3513.0 C 4401.0,3495.0 4425.0,3480.0 4433.0,3480.0 C 4449.0,3480.0 4472.0,3505.0 4487.0,3540.0 C 4493.0,3554.0 4538.0,3609.0 4588.0,3662.0 C 4638.0,3716.0 4681.0,3768.0 4685.0,3779.0 C 4693.0,3806.0 4720.0,3815.0 4720.0,3790.0 C 4720.0,3780.0 4715.0,3768.0 4710.0,3765.0 C 4695.0,3756.0 4595.0,3629.0 4580.0,3600.0 C 4552.0,3547.0 4478.0,3471.0 4443.0,3459.0 C 4412.0,3449.0 4403.0,3450.0 4369.0,3469.0 L 4331.0,3491.0 L 4273.0,3461.0 C 4207.0,3427.0 4185.0,3399.0 4133.0,3279.0 C 4090.0,3178.0 4085.0,3129.0 4117.0,3115.0 C 4129.0,3110.0 4146.0,3087.0 4155.0,3064.0 C 4181.0,2995.0 4210.0,2997.0 4252.0,3071.0 C 4264.0,3092.0 4280.0,3111.0 4289.0,3113.0 C 4328.0,3121.0 4425.0,3067.0 4415.0,3043.0 C 4413.0,3035.0 4418.0,3027.0 4428.0,3023.0 C 4437.0,3020.0 4469.0,3007.0 4498.0,2994.0 C 4544.0,2974.0 4550.0,2968.0 4550.0,2942.0 C 4550.0,2907.0 4563.0,2895.0 4608.0,2885.0 C 4637.0,2879.0 4645.0,2882.0 4673.0,2913.0 C 4715.0,2958.0 4777.0,2973.0 4880.0,2964.0 C 4936.0,2960.0 4959.0,2961.0 4965.0,2970.0 C 4969.0,2976.0 4967.0,3008.0 4960.0,3040.0 C 4952.0,3080.0 4950.0,3121.0 4956.0,3167.0 L 4964.0,3235.0 L 4971.0,3145.0 C 4974.0,3096.0 4980.0,3023.0 4984.0,2984.0 L 4992.0,2913.0 L 4945.0,2907.0 C 4920.0,2903.0 4878.0,2905.0 4852.0,2911.0 C 4784.0,2926.0 4763.0,2917.0 4750.0,2871.0 C 4735.0,2815.0 4746.0,2756.0 4788.0,2668.0 L 4824.0,2590.0 L 4800.0,2558.0 C 4787.0,2540.0 4773.0,2505.0 4769.0,2480.0 C 4765.0,2455.0 4757.0,2413.0 4751.0,2386.0 C 4745.0,2359.0 4741.0,2336.0 4742.0,2334.0 C 4744.0,2333.0 4797.0,2338.0 4860.0,2346.0 C 4968.0,2359.0 4979.0,2363.0 5038.0,2403.0 L 5102.0,2445.0 L 5096.0,2492.0 C 5091.0,2541.0 5098.0,2551.0 5120.0,2525.0 C 5141.0,2500.0 5150.0,2508.0 5150.0,2550.0 C 5150.0,2595.0 5159.0,2600.0 5178.0,2569.0 C 5187.0,2555.0 5195.0,2551.0 5202.0,2558.0 C 5207.0,2563.0 5229.0,2566.0 5250.0,2563.0 C 5295.0,2557.0 5312.0,2575.0 5281.0,2597.0 C 5235.0,2628.0 5190.0,2693.0 5204.0,2707.0 C 5207.0,2711.0 5227.0,2697.0 5248.0,2677.0 C 5303.0,2623.0 5312.0,2627.0 5308.0,2706.0 C 5305.0,2768.0 5307.0,2773.0 5329.0,2781.0 C 5349.0,2789.0 5351.0,2788.0 5345.0,2773.0 C 5341.0,2763.0 5335.0,2729.0 5332.0,2697.0 C 5329.0,2653.0 5331.0,2640.0 5341.0,2640.0 C 5361.0,2641.0 5420.0,2714.0 5463.0,2792.0 C 5496.0,2851.0 5499.0,2862.0 5488.0,2885.0 C 5470.0,2924.0 5491.0,2939.0 5526.0,2911.0 C 5559.0,2885.0 5580.0,2884.0 5580.0,2910.0 C 5580.0,2923.0 5585.0,2928.0 5595.0,2924.0 C 5604.0,2920.0 5610.0,2924.0 5610.0,2934.0 C 5610.0,2943.0 5606.0,2950.0 5600.0,2950.0 C 5595.0,2950.0 5593.0,2956.0 5596.0,2964.0 C 5600.0,2973.0 5580.0,2993.0 5541.0,3019.0 C 5475.0,3064.0 5465.0,3075.0 5476.0,3091.0 C 5480.0,3098.0 5521.0,3064.0 5580.0,3005.0 C 5662.0,2923.0 5678.0,2911.0 5689.0,2924.0 C 5699.0,2936.0 5697.0,2947.0 5679.0,2982.0 C 5658.0,3023.0 5658.0,3029.0 5670.0,3103.0 C 5683.0,3181.0 5674.0,3253.0 5647.0,3288.0 C 5634.0,3304.0 5643.0,3312.0 5664.0,3304.0 C 5673.0,3301.0 5683.0,3287.0 5686.0,3275.0 C 5690.0,3260.0 5697.0,3253.0 5706.0,3257.0 C 5714.0,3260.0 5720.0,3257.0 5720.0,3251.0 C 5720.0,3244.0 5713.0,3237.0 5705.0,3234.0 C 5697.0,3230.0 5690.0,3217.0 5690.0,3203.0 C 5690.0,3184.0 5694.0,3179.0 5706.0,3184.0 C 5719.0,3189.0 5721.0,3186.0 5715.0,3173.0 C 5687.0,3106.0 5686.0,2976.0 5714.0,2999.0 C 5721.0,3005.0 5735.0,3028.0 5745.0,3050.0 C 5770.0,3106.0 5774.0,3094.0 5750.0,3032.0 C 5739.0,3003.0 5730.0,2972.0 5730.0,2963.0 C 5730.0,2938.0 5764.0,2973.0 5806.0,3042.0 C 5846.0,3108.0 5857.0,3117.0 5835.0,3065.0 C 5827.0,3046.0 5813.0,3014.0 5804.0,2994.0 C 5796.0,2974.0 5791.0,2956.0 5793.0,2953.0 C 5796.0,2951.0 5812.0,2956.0 5829.0,2965.0 C 5857.0,2979.0 5875.0,2970.0 5849.0,2955.0 C 5843.0,2951.0 5841.0,2942.0 5844.0,2934.0 C 5848.0,2924.0 5840.0,2920.0 5814.0,2920.0 C 5784.0,2920.0 5779.0,2917.0 5785.0,2903.0 C 5790.0,2888.0 5789.0,2887.0 5779.0,2897.0 C 5772.0,2904.0 5758.0,2910.0 5749.0,2910.0 C 5721.0,2910.0 5636.0,2869.0 5618.0,2846.0 C 5597.0,2821.0 5595.0,2772.0 5614.0,2747.0 C 5626.0,2731.0 5632.0,2730.0 5652.0,2741.0 C 5677.0,2756.0 5810.0,2762.0 5810.0,2749.0 C 5810.0,2745.0 5803.0,2735.0 5795.0,2726.0 C 5787.0,2718.0 5780.0,2704.0 5780.0,2696.0 C 5780.0,2674.0 5763.0,2676.0 5750.0,2700.0 C 5741.0,2717.0 5729.0,2720.0 5672.0,2720.0 C 5616.0,2720.0 5598.0,2724.0 5567.0,2746.0 C 5546.0,2760.0 5527.0,2770.0 5526.0,2768.0 C 5524.0,2767.0 5510.0,2745.0 5495.0,2721.0 C 5473.0,2685.0 5470.0,2673.0 5479.0,2654.0 C 5485.0,2641.0 5494.0,2630.0 5500.0,2630.0 C 5506.0,2630.0 5522.0,2618.0 5536.0,2603.0 L 5560.0,2577.0 L 5588.0,2603.0 C 5604.0,2618.0 5619.0,2630.0 5623.0,2630.0 C 5636.0,2630.0 5609.0,2586.0 5584.0,2565.0 L 5560.0,2544.0 L 5585.0,2508.0 C 5598.0,2489.0 5621.0,2470.0 5635.0,2466.0 C 5659.0,2460.0 5671.0,2440.0 5650.0,2440.0 C 5634.0,2440.0 5560.0,2489.0 5560.0,2500.0 C 5560.0,2505.0 5542.0,2521.0 5520.0,2535.0 C 5497.0,2549.0 5475.0,2571.0 5470.0,2584.0 C 5457.0,2620.0 5439.0,2627.0 5422.0,2602.0 C 5414.0,2590.0 5401.0,2580.0 5394.0,2580.0 C 5373.0,2580.0 5353.0,2533.0 5368.0,2518.0 C 5385.0,2501.0 5383.0,2490.0 5362.0,2490.0 C 5352.0,2490.0 5333.0,2479.0 5320.0,2465.0 C 5307.0,2451.0 5285.0,2440.0 5270.0,2440.0 C 5235.0,2440.0 5220.0,2423.0 5220.0,2382.0 C 5220.0,2342.0 5235.0,2310.0 5255.0,2310.0 C 5263.0,2310.0 5270.0,2306.0 5270.0,2300.0 C 5270.0,2295.0 5246.0,2290.0 5216.0,2290.0 C 5133.0,2290.0 5133.0,2290.0 5139.0,2071.0 C 5140.0,2037.0 5133.0,2002.0 5120.0,1972.0 C 5098.0,1922.0 5101.0,1895.0 5133.0,1869.0 C 5148.0,1857.0 5161.0,1855.0 5180.0,1860.0 C 5194.0,1865.0 5216.0,1871.0 5230.0,1874.0 C 5274.0,1885.0 5303.0,1917.0 5304.0,1958.0 C 5305.0,1992.0 5308.0,1995.0 5335.0,1998.0 C 5359.0,2000.0 5362.0,1998.0 5349.0,1990.0 C 5340.0,1985.0 5329.0,1966.0 5326.0,1948.0 C 5317.0,1905.0 5285.0,1867.0 5233.0,1841.0 C 5183.0,1816.0 5176.0,1807.0 5184.0,1774.0 C 5193.0,1739.0 5258.0,1740.0 5296.0,1775.0 C 5311.0,1789.0 5330.0,1800.0 5339.0,1800.0 C 5348.0,1800.0 5364.0,1814.0 5375.0,1830.0 C 5386.0,1847.0 5403.0,1863.0 5412.0,1866.0 C 5422.0,1869.0 5452.0,1886.0 5479.0,1905.0 C 5506.0,1924.0 5540.0,1942.0 5554.0,1946.0 C 5569.0,1949.0 5594.0,1969.0 5611.0,1989.0 C 5676.0,2068.0 6047.0,2840.0 6225.0,3270.0 C 6320.0,3497.0 6328.0,3512.0 6454.0,3699.0 C 6545.0,3833.0 6602.0,3907.0 6641.0,3941.0 L 6696.0,3989.0 L 6796.0,3990.0 C 6855.0,3991.0 6921.0,3986.0 6960.0,3977.0 C 6996.0,3968.0 7061.0,3959.0 7105.0,3955.0 C 7182.0,3949.0 7187.0,3950.0 7233.0,3979.0 C 7259.0,3996.0 7285.0,4010.0 7290.0,4010.0 C 7295.0,4010.0 7309.0,4020.0 7322.0,4033.0 C 7335.0,4045.0 7460.0,4122.0 7600.0,4204.0 L 7855.0,4352.0 L 7945.0,4487.0 C 7995.0,4562.0 8038.0,4627.0 8041.0,4633.0 C 8045.0,4639.0 8059.0,4635.0 8077.0,4622.0 C 8104.0,4603.0 8108.0,4603.0 8162.0,4616.0 C 8217.0,4630.0 8221.0,4630.0 8269.0,4606.0 C 8311.0,4584.0 8330.0,4581.0 8395.0,4583.0 L 8472.0,4585.0 L 8518.0,4533.0 C 8551.0,4497.0 8577.0,4478.0 8605.0,4470.0 C 8643.0,4459.0 8649.0,4461.0 8725.0,4504.0 C 8769.0,4530.0 8812.0,4553.0 8822.0,4556.0 C 8831.0,4559.0 8861.0,4549.0 8889.0,4535.0 C 8917.0,4521.0 8948.0,4510.0 8959.0,4510.0 C 8970.0,4510.0 9013.0,4526.0 9055.0,4545.0 C 9119.0,4574.0 9133.0,4585.0 9146.0,4615.0 C 9166.0,4663.0 9180.0,4666.0 9233.0,4636.0 C 9290.0,4602.0 9370.0,4599.0 9370.0,4630.0 C 9370.0,4640.0 9378.0,4654.0 9388.0,4659.0 C 9410.0,4671.0 9450.0,4769.0 9450.0,4811.0 C 9450.0,4827.0 9441.0,4849.0 9430.0,4860.0 C 9413.0,4877.0 9412.0,4881.0 9425.0,4886.0 C 9456.0,4898.0 9469.0,4883.0 9463.0,4842.0 C 9458.0,4808.0 9462.0,4796.0 9486.0,4766.0 C 9515.0,4730.0 9543.0,4720.0 9556.0,4741.0 C 9560.0,4748.0 9568.0,4739.0 9577.0,4719.0 C 9594.0,4677.0 9627.0,4651.0 9662.0,4650.0 C 9688.0,4650.0 9710.0,4661.0 9811.0,4728.0 C 9839.0,4746.0 9867.0,4759.0 9873.0,4757.0 C 9880.0,4755.0 9893.0,4757.0 9903.0,4762.0 C 9924.0,4773.0 9925.0,4830.0 9906.0,4935.0 C 9895.0,4997.0 9896.0,5012.0 9912.0,5065.0 C 9929.0,5120.0 9930.0,5140.0 9920.0,5310.0 C 9910.0,5471.0 9911.0,5501.0 9924.0,5539.0 C 9933.0,5563.0 9940.0,5615.0 9940.0,5656.0 C 9940.0,5697.0 9945.0,5760.0 9952.0,5797.0 C 9958.0,5835.0 9960.0,5886.0 9956.0,5911.0 L 9949.0,5956.0 L 9856.0,5998.0 C 9804.0,6021.0 9758.0,6040.0 9754.0,6040.0 C 9750.0,6040.0 9734.0,6052.0 9719.0,6066.0 C 9704.0,6080.0 9670.0,6106.0 9644.0,6123.0 C 9614.0,6143.0 9594.0,6164.0 9592.0,6177.0 C 9590.0,6194.0 9574.0,6204.0 9524.0,6222.0 C 9455.0,6247.0 9456.0,6246.0 9424.0,6373.0 C 9420.0,6390.0 9401.0,6412.0 9376.0,6429.0 C 9341.0,6453.0 9325.0,6458.0 9260.0,6459.0 C 9219.0,6460.0 9182.0,6464.0 9178.0,6468.0 C 9175.0,6472.0 9163.0,6498.0 9152.0,6525.0 C 9129.0,6583.0 9133.0,6630.0 9160.0,6630.0 C 9189.0,6630.0 9228.0,6668.0 9246.0,6715.0 L 9263.0,6760.0 L 9339.0,6760.0 C 9385.0,6760.0 9433.0,6767.0 9463.0,6777.0 C 9509.0,6794.0 9510.0,6795.0 9510.0,6838.0 C 9510.0,6862.0 9506.0,6890.0 9500.0,6900.0 C 9493.0,6914.0 9495.0,6919.0 9510.0,6923.0 C 9526.0,6927.0 9530.0,6923.0 9530.0,6902.0 C 9531.0,6885.0 9540.0,6868.0 9557.0,6856.0 C 9583.0,6837.0 9584.0,6837.0 9596.0,6856.0 C 9603.0,6866.0 9616.0,6884.0 9625.0,6895.0 C 9639.0,6914.0 9640.0,6914.0 9630.0,6887.0 C 9625.0,6871.0 9620.0,6855.0 9620.0,6850.0 C 9620.0,6837.0 9726.0,6808.0 9749.0,6815.0 C 9759.0,6818.0 9778.0,6841.0 9791.0,6866.0 L 9815.0,6911.0 L 9866.0,6854.0 C 9915.0,6798.0 9917.0,6797.0 9944.0,6811.0 C 9967.0,6822.0 9979.0,6842.0 10005.0,6915.0 C 10045.0,7028.0 10058.0,7050.0 10092.0,7057.0 C 10145.0,7068.0 10159.0,7124.0 10163.0,7345.0 C 10165.0,7433.0 10169.0,7451.0 10193.0,7497.0 C 10208.0,7526.0 10225.0,7552.0 10230.0,7555.0 C 10236.0,7558.0 10240.0,7589.0 10240.0,7622.0 C 10240.0,7671.0 10232.0,7700.0 10199.0,7775.0 C 10177.0,7826.0 10148.0,7878.0 10134.0,7891.0 C 10121.0,7903.0 10110.0,7921.0 10110.0,7930.0 C 10110.0,7939.0 10103.0,7973.0 10094.0,8005.0 C 10060.0,8132.0 10049.0,8200.0 10042.0,8327.0 C 10038.0,8399.0 10031.0,8462.0 10027.0,8467.0 C 10012.0,8482.0 5076.0,8496.0 5030.0,8481.0 M 5100.0,3541.0 C 5099.0,3507.0 5078.0,3480.0 5051.0,3480.0 C 5024.0,3480.0 5024.0,3463.0 5050.0,3442.0 C 5093.0,3407.0 5084.0,3311.0 5040.0,3323.0 C 5028.0,3326.0 5016.0,3315.0 5001.0,3282.0 C 4973.0,3226.0 4961.0,3234.0 4984.0,3294.0 C 4997.0,3329.0 5007.0,3340.0 5030.0,3345.0 C 5073.0,3354.0 5074.0,3384.0 5034.0,3420.0 C 4991.0,3457.0 4990.0,3482.0 5033.0,3501.0 C 5060.0,3513.0 5065.0,3521.0 5068.0,3553.0 C 5071.0,3585.0 5074.0,3589.0 5086.0,3579.0 C 5094.0,3573.0 5100.0,3556.0 5100.0,3541.0" fill="pink"/>
	<path d="M 1196.0,5758.0 C 1193.0,5745.0 1186.0,5687.0 1180.0,5628.0 C 1167.0,5499.0 1127.0,5389.0 1078.0,5349.0 C 1049.0,5325.0 1048.0,5322.0 1066.0,5317.0 C 1124.0,5301.0 1161.0,5300.0 1181.0,5314.0 C 1205.0,5330.0 1251.0,5321.0 1282.0,5294.0 C 1295.0,5282.0 1319.0,5276.0 1363.0,5276.0 C 1441.0,5274.0 1487.0,5294.0 1505.0,5337.0 C 1514.0,5358.0 1531.0,5374.0 1554.0,5384.0 C 1574.0,5392.0 1590.0,5403.0 1590.0,5409.0 C 1590.0,5414.0 1567.0,5424.0 1539.0,5431.0 C 1501.0,5441.0 1481.0,5453.0 1462.0,5478.0 C 1438.0,5509.0 1435.0,5510.0 1391.0,5504.0 C 1346.0,5497.0 1345.0,5498.0 1363.0,5517.0 C 1389.0,5547.0 1384.0,5568.0 1337.0,5619.0 C 1314.0,5646.0 1282.0,5692.0 1267.0,5723.0 C 1237.0,5785.0 1205.0,5800.0 1196.0,5758.0" fill="pink"/>
	<path d="M 2140.0,5456.0 C 2140.0,5453.0 2144.0,5440.0 2150.0,5426.0 C 2164.0,5389.0 2147.0,5386.0 2126.0,5421.0 C 2109.0,5449.0 2104.0,5451.0 2071.0,5445.0 C 2051.0,5442.0 2018.0,5428.0 1998.0,5414.0 C 1977.0,5401.0 1952.0,5390.0 1942.0,5390.0 C 1932.0,5390.0 1903.0,5383.0 1877.0,5374.0 C 1837.0,5360.0 1829.0,5360.0 1808.0,5374.0 C 1795.0,5382.0 1764.0,5391.0 1739.0,5395.0 C 1695.0,5402.0 1692.0,5400.0 1670.0,5370.0 C 1649.0,5341.0 1648.0,5330.0 1653.0,5255.0 C 1656.0,5209.0 1666.0,5155.0 1675.0,5134.0 C 1688.0,5102.0 1692.0,5099.0 1703.0,5113.0 C 1714.0,5127.0 1724.0,5122.0 1795.0,5071.0 C 1871.0,5016.0 1875.0,5011.0 1873.0,4977.0 C 1871.0,4942.0 1871.0,4942.0 1903.0,4951.0 C 1920.0,4956.0 1955.0,4960.0 1980.0,4960.0 C 2023.0,4960.0 2027.0,4963.0 2057.0,5008.0 C 2103.0,5077.0 2120.0,5115.0 2120.0,5150.0 C 2120.0,5167.0 2132.0,5204.0 2147.0,5233.0 C 2171.0,5280.0 2232.0,5442.0 2227.0,5446.0 C 2221.0,5450.0 2140.0,5460.0 2140.0,5456.0" fill="pink"/>
	<path d="M 4283.0,3050.0 C 4259.0,3040.0 4240.0,3027.0 4240.0,3021.0 C 4240.0,3007.0 4211.0,2980.0 4194.0,2980.0 C 4186.0,2980.0 4170.0,2991.0 4158.0,3005.0 C 4146.0,3019.0 4132.0,3030.0 4127.0,3030.0 C 4116.0,3030.0 4081.0,2988.0 4080.0,2974.0 C 4080.0,2958.0 4177.0,2800.0 4209.0,2765.0 C 4224.0,2749.0 4251.0,2705.0 4270.0,2668.0 C 4298.0,2609.0 4307.0,2600.0 4336.0,2594.0 C 4354.0,2591.0 4373.0,2591.0 4379.0,2594.0 C 4385.0,2598.0 4399.0,2596.0 4409.0,2590.0 C 4427.0,2581.0 4432.0,2585.0 4450.0,2620.0 C 4469.0,2657.0 4469.0,2662.0 4455.0,2677.0 C 4445.0,2686.0 4441.0,2702.0 4444.0,2719.0 C 4447.0,2733.0 4452.0,2773.0 4455.0,2808.0 C 4460.0,2848.0 4466.0,2870.0 4475.0,2870.0 C 4482.0,2870.0 4493.0,2876.0 4499.0,2884.0 C 4516.0,2905.0 4486.0,2970.0 4459.0,2970.0 C 4447.0,2970.0 4423.0,2977.0 4404.0,2986.0 C 4372.0,3001.0 4371.0,3003.0 4386.0,3025.0 C 4402.0,3050.0 4403.0,3049.0 4340.0,3065.0 C 4332.0,3068.0 4306.0,3061.0 4283.0,3050.0" fill="pink"/>
	<path d="M 4516.0,2927.0 C 4521.0,2897.0 4518.0,2884.0 4503.0,2867.0 C 4486.0,2848.0 4483.0,2830.0 4482.0,2750.0 C 4482.0,2674.0 4478.0,2645.0 4460.0,2607.0 C 4436.0,2553.0 4439.0,2530.0 4470.0,2530.0 C 4482.0,2530.0 4505.0,2523.0 4522.0,2514.0 C 4543.0,2503.0 4555.0,2501.0 4559.0,2509.0 C 4564.0,2516.0 4577.0,2517.0 4601.0,2510.0 C 4649.0,2496.0 4690.0,2513.0 4690.0,2548.0 C 4690.0,2562.0 4697.0,2581.0 4705.0,2590.0 C 4714.0,2600.0 4725.0,2621.0 4729.0,2638.0 C 4736.0,2663.0 4734.0,2675.0 4714.0,2704.0 C 4698.0,2728.0 4690.0,2753.0 4690.0,2783.0 C 4690.0,2836.0 4675.0,2852.0 4617.0,2859.0 C 4585.0,2864.0 4571.0,2872.0 4555.0,2896.0 C 4508.0,2970.0 4510.0,2968.0 4516.0,2927.0" fill="pink"/>
	<path d="M 4849.0,2331.0 C 4823.0,2327.0 4787.0,2317.0 4769.0,2308.0 C 4750.0,2299.0 4710.0,2280.0 4679.0,2267.0 C 4631.0,2246.0 4620.0,2236.0 4610.0,2206.0 C 4601.0,2177.0 4601.0,2166.0 4611.0,2154.0 C 4621.0,2141.0 4625.0,2141.0 4640.0,2155.0 C 4656.0,2169.0 4658.0,2169.0 4663.0,2155.0 C 4667.0,2146.0 4664.0,2140.0 4656.0,2140.0 C 4635.0,2140.0 4627.0,2097.0 4646.0,2085.0 C 4655.0,2080.0 4679.0,2060.0 4698.0,2041.0 L 4733.0,2007.0 L 4751.0,2031.0 C 4761.0,2044.0 4786.0,2083.0 4806.0,2118.0 C 4826.0,2152.0 4861.0,2197.0 4883.0,2217.0 C 4917.0,2247.0 4924.0,2259.0 4924.0,2294.0 C 4925.0,2339.0 4921.0,2341.0 4849.0,2331.0" fill="pink"/>
</svg>
