<?xml version="1.0" ?>
<svg xmlns="http://www.w3.org/2000/svg" xmlns:ev="http://www.w3.org/2001/xml-events" xmlns:xlink="http://www.w3.org/1999/xlink" baseProfile="full" height="600px" version="1.1" viewBox="898.0474741774358 -1029.1107614609605 8440.132558575762 12298.129597160332" width="412px">
	<defs/>
	<path d="M 3481.0,10231.0 C 3470.0,10224.0 3488.0,10199.0 3563.0,10119.0 C 3617.0,10063.0 3672.0,9997.0 3686.0,9972.0 C 3710.0,9932.0 3711.0,9922.0 3704.0,9877.0 C 3695.0,9827.0 3695.0,9827.0 3640.0,9809.0 C 3610.0,9799.0 3573.0,9788.0 3558.0,9785.0 C 3519.0,9777.0 3486.0,9737.0 3466.0,9673.0 C 3444.0,9604.0 3415.0,9574.0 3362.0,9565.0 C 3339.0,9561.0 3300.0,9542.0 3269.0,9519.0 C 3240.0,9498.0 3206.0,9480.0 3193.0,9480.0 C 3175.0,9480.0 3161.0,9467.0 3137.0,9429.0 C 3117.0,9396.0 3075.0,9354.0 3017.0,9309.0 L 2927.0,9240.0 L 2846.0,9240.0 L 2765.0,9240.0 L 2718.0,9181.0 C 2682.0,9137.0 2670.0,9114.0 2670.0,9089.0 C 2670.0,9046.0 2567.0,8880.0 2541.0,8880.0 C 2519.0,8880.0 2490.0,8850.0 2490.0,8828.0 C 2490.0,8819.0 2500.0,8787.0 2511.0,8756.0 C 2529.0,8710.0 2537.0,8700.0 2556.0,8700.0 C 2574.0,8700.0 2580.0,8693.0 2586.0,8666.0 C 2590.0,8640.0 2599.0,8629.0 2620.0,8621.0 C 2644.0,8613.0 2650.0,8604.0 2655.0,8566.0 C 2661.0,8525.0 2659.0,8517.0 2631.0,8483.0 C 2614.0,8462.0 2600.0,8436.0 2600.0,8425.0 C 2600.0,8413.0 2630.0,8374.0 2675.0,8330.0 L 2749.0,8256.0 L 2764.0,8291.0 C 2791.0,8355.0 2804.0,8361.0 2914.0,8353.0 C 3008.0,8347.0 3013.0,8346.0 3061.0,8307.0 C 3090.0,8285.0 3109.0,8262.0 3106.0,8254.0 C 3103.0,8247.0 3096.0,8224.0 3091.0,8203.0 C 3085.0,8182.0 3065.0,8149.0 3046.0,8131.0 C 3020.0,8106.0 3009.0,8085.0 3004.0,8052.0 L 2997.0,8008.0 L 2957.0,8013.0 C 2924.0,8018.0 2911.0,8014.0 2887.0,7994.0 C 2871.0,7981.0 2850.0,7970.0 2840.0,7970.0 C 2830.0,7970.0 2803.0,7954.0 2780.0,7935.0 C 2757.0,7916.0 2732.0,7900.0 2724.0,7900.0 C 2680.0,7900.0 2617.0,7865.0 2567.0,7813.0 L 2513.0,7756.0 L 2462.0,7778.0 C 2430.0,7792.0 2391.0,7800.0 2356.0,7800.0 C 2326.0,7800.0 2289.0,7805.0 2274.0,7810.0 C 2240.0,7823.0 2224.0,7805.0 2245.0,7774.0 C 2257.0,7755.0 2256.0,7752.0 2214.0,7732.0 C 2189.0,7720.0 2156.0,7710.0 2140.0,7710.0 C 2124.0,7710.0 2108.0,7705.0 2104.0,7699.0 C 2101.0,7693.0 2088.0,7691.0 2076.0,7694.0 C 2065.0,7697.0 2031.0,7697.0 2002.0,7693.0 C 1935.0,7686.0 1880.0,7640.0 1880.0,7593.0 C 1880.0,7571.0 1874.0,7560.0 1855.0,7552.0 C 1834.0,7542.0 1830.0,7534.0 1830.0,7497.0 C 1830.0,7461.0 1836.0,7448.0 1865.0,7420.0 C 1884.0,7401.0 1900.0,7381.0 1900.0,7376.0 C 1900.0,7370.0 1909.0,7354.0 1919.0,7341.0 C 1932.0,7324.0 1936.0,7310.0 1930.0,7296.0 C 1916.0,7258.0 1908.0,7132.0 1919.0,7125.0 C 1925.0,7122.0 1930.0,7110.0 1930.0,7099.0 C 1930.0,7089.0 1937.0,7080.0 1945.0,7080.0 C 1967.0,7080.0 1984.0,7042.0 1970.0,7025.0 C 1962.0,7015.0 1962.0,7006.0 1969.0,6991.0 C 1984.0,6964.0 1985.0,6965.0 1940.0,6951.0 C 1908.0,6941.0 1897.0,6932.0 1881.0,6896.0 C 1864.0,6856.0 1859.0,6852.0 1816.0,6846.0 C 1773.0,6839.0 1766.0,6834.0 1736.0,6787.0 C 1718.0,6758.0 1693.0,6716.0 1682.0,6694.0 C 1668.0,6667.0 1651.0,6649.0 1632.0,6642.0 C 1607.0,6634.0 1603.0,6628.0 1607.0,6606.0 C 1615.0,6565.0 2513.0,5580.0 2543.0,5580.0 C 2549.0,5580.0 2579.0,5585.0 2610.0,5592.0 C 2658.0,5602.0 2673.0,5601.0 2708.0,5587.0 C 2736.0,5576.0 2764.0,5573.0 2799.0,5577.0 C 2826.0,5580.0 2870.0,5577.0 2897.0,5571.0 C 2944.0,5559.0 2945.0,5559.0 2967.0,5587.0 C 2985.0,5609.0 2992.0,5612.0 3002.0,5602.0 C 3019.0,5585.0 3086.0,5587.0 3118.0,5607.0 C 3133.0,5616.0 3159.0,5637.0 3176.0,5652.0 C 3203.0,5677.0 3214.0,5681.0 3256.0,5678.0 C 3298.0,5675.0 3305.0,5672.0 3308.0,5653.0 C 3312.0,5626.0 3311.0,5627.0 3346.0,5640.0 C 3369.0,5649.0 3377.0,5647.0 3397.0,5629.0 C 3409.0,5616.0 3420.0,5597.0 3420.0,5585.0 C 3420.0,5557.0 3485.0,5495.0 3537.0,5475.0 C 3593.0,5453.0 3609.0,5416.0 3586.0,5360.0 C 3577.0,5338.0 3570.0,5300.0 3570.0,5276.0 C 3570.0,5252.0 3564.0,5217.0 3556.0,5199.0 C 3548.0,5180.0 3539.0,5108.0 3535.0,5035.0 C 3529.0,4923.0 3525.0,4900.0 3505.0,4869.0 C 3492.0,4849.0 3475.0,4817.0 3467.0,4798.0 C 3456.0,4772.0 3444.0,4761.0 3413.0,4752.0 C 3364.0,4737.0 3355.0,4726.0 3347.0,4677.0 C 3341.0,4640.0 3343.0,4638.0 3377.0,4624.0 C 3410.0,4610.0 3414.0,4610.0 3435.0,4630.0 C 3457.0,4651.0 3459.0,4651.0 3485.0,4634.0 C 3501.0,4623.0 3545.0,4613.0 3594.0,4608.0 C 3754.0,4591.0 3771.0,4588.0 3777.0,4574.0 C 3780.0,4566.0 3796.0,4560.0 3817.0,4560.0 C 3843.0,4560.0 3876.0,4545.0 3941.0,4503.0 L 4029.0,4447.0 L 4004.0,4417.0 C 3984.0,4393.0 3950.0,4329.0 3950.0,4314.0 C 3950.0,4312.0 3957.0,4310.0 3965.0,4310.0 C 3977.0,4310.0 3978.0,4306.0 3970.0,4291.0 C 3938.0,4231.0 3974.0,4149.0 4040.0,4132.0 C 4074.0,4124.0 4075.0,4122.0 4078.0,4071.0 C 4081.0,4027.0 4087.0,4012.0 4110.0,3988.0 C 4126.0,3972.0 4145.0,3941.0 4151.0,3919.0 C 4161.0,3886.0 4169.0,3878.0 4199.0,3870.0 C 4263.0,3852.0 4267.0,3844.0 4223.0,3821.0 C 4179.0,3799.0 4160.0,3763.0 4160.0,3703.0 C 4160.0,3675.0 4154.0,3666.0 4129.0,3652.0 C 4057.0,3613.0 4040.0,3591.0 4040.0,3542.0 C 4040.0,3500.0 4036.0,3492.0 4006.0,3468.0 C 3987.0,3452.0 3965.0,3440.0 3957.0,3440.0 C 3950.0,3440.0 3933.0,3429.0 3920.0,3415.0 C 3902.0,3396.0 3886.0,3390.0 3854.0,3390.0 C 3806.0,3390.0 3800.0,3381.0 3800.0,3315.0 C 3800.0,3283.0 3807.0,3264.0 3825.0,3242.0 C 3847.0,3216.0 3849.0,3209.0 3839.0,3181.0 C 3833.0,3163.0 3830.0,3137.0 3833.0,3121.0 C 3842.0,3078.0 3822.0,3011.0 3789.0,2969.0 C 3772.0,2948.0 3756.0,2914.0 3753.0,2893.0 C 3750.0,2872.0 3739.0,2841.0 3728.0,2823.0 C 3716.0,2803.0 3710.0,2775.0 3711.0,2748.0 C 3712.0,2716.0 3703.0,2685.0 3676.0,2630.0 C 3652.0,2581.0 3640.0,2542.0 3640.0,2515.0 C 3640.0,2493.0 3628.0,2393.0 3613.0,2293.0 L 3586.0,2111.0 L 3613.0,2073.0 C 3628.0,2051.0 3640.0,2022.0 3640.0,2008.0 C 3640.0,1994.0 3647.0,1980.0 3654.0,1977.0 C 3689.0,1963.0 3740.0,1799.0 3740.0,1700.0 L 3740.0,1645.0 L 3813.0,1588.0 C 3858.0,1551.0 3895.0,1530.0 3911.0,1530.0 C 3957.0,1530.0 3972.0,1500.0 3983.0,1389.0 C 3991.0,1301.0 3990.0,1282.0 3976.0,1253.0 C 3962.0,1224.0 3961.0,1209.0 3970.0,1160.0 C 3979.0,1109.0 3978.0,1098.0 3961.0,1069.0 C 3950.0,1050.0 3939.0,1010.0 3935.0,979.0 L 3928.0,923.0 L 4009.0,918.0 C 4054.0,915.0 4093.0,910.0 4096.0,907.0 C 4100.0,903.0 4091.0,877.0 4077.0,848.0 L 4050.0,795.0 L 4085.0,761.0 C 4117.0,729.0 4121.0,727.0 4144.0,740.0 C 4186.0,762.0 4243.0,730.0 4292.0,657.0 C 4314.0,624.0 4341.0,595.0 4351.0,593.0 C 4362.0,590.0 4370.0,582.0 4370.0,574.0 C 4370.0,554.0 4430.0,490.0 4449.0,490.0 C 4458.0,490.0 4471.0,485.0 4478.0,478.0 C 4485.0,471.0 4505.0,461.0 4522.0,456.0 C 4546.0,448.0 4556.0,438.0 4558.0,420.0 C 4560.0,406.0 4579.0,377.0 4599.0,355.0 C 4620.0,333.0 4647.0,301.0 4659.0,283.0 C 4677.0,257.0 4697.0,246.0 4788.0,217.0 C 4847.0,197.0 4926.0,179.0 4964.0,176.0 C 5063.0,168.0 5119.0,138.0 5147.0,78.0 C 5173.0,23.0 5210.0,0.0 5270.0,0.0 C 5327.0,0.0 5377.0,24.0 5398.0,61.0 C 5439.0,137.0 5431.0,134.0 5570.0,117.0 C 5713.0,100.0 5732.0,104.0 5749.0,160.0 C 5765.0,215.0 5762.0,249.0 5736.0,303.0 C 5720.0,335.0 5716.0,353.0 5724.0,355.0 C 5730.0,357.0 5762.0,364.0 5795.0,370.0 C 5877.0,386.0 5900.0,402.0 5900.0,443.0 C 5900.0,465.0 5908.0,483.0 5923.0,497.0 C 5935.0,508.0 5950.0,525.0 5956.0,535.0 C 5966.0,553.0 5968.0,553.0 6002.0,537.0 C 6022.0,528.0 6045.0,520.0 6053.0,520.0 C 6061.0,520.0 6083.0,514.0 6102.0,506.0 C 6124.0,496.0 6141.0,495.0 6151.0,501.0 C 6158.0,506.0 6176.0,510.0 6190.0,510.0 C 6211.0,510.0 6218.0,503.0 6225.0,478.0 L 6235.0,445.0 L 6319.0,445.0 L 6402.0,445.0 L 6422.0,495.0 C 6433.0,523.0 6445.0,565.0 6449.0,590.0 C 6456.0,639.0 6460.0,640.0 6535.0,625.0 C 6559.0,620.0 6570.0,624.0 6589.0,644.0 C 6607.0,663.0 6624.0,670.0 6651.0,670.0 C 6676.0,670.0 6698.0,678.0 6717.0,694.0 C 6772.0,739.0 6787.0,743.0 6854.0,730.0 C 6887.0,723.0 6928.0,711.0 6944.0,703.0 C 6975.0,687.0 7018.0,691.0 7080.0,716.0 C 7112.0,729.0 7119.0,737.0 7126.0,773.0 C 7133.0,807.0 7142.0,818.0 7170.0,832.0 C 7216.0,855.0 7227.0,872.0 7235.0,932.0 C 7242.0,983.0 7267.0,1020.0 7295.0,1020.0 C 7303.0,1020.0 7319.0,1033.0 7331.0,1049.0 C 7366.0,1097.0 7398.0,1105.0 7460.0,1081.0 L 7514.0,1060.0 L 7565.0,1095.0 C 7616.0,1130.0 7705.0,1158.0 7734.0,1147.0 C 7743.0,1143.0 7757.0,1122.0 7766.0,1100.0 C 7788.0,1046.0 7821.0,1030.0 7911.0,1030.0 C 7965.0,1030.0 7988.0,1026.0 8002.0,1013.0 C 8019.0,998.0 8053.0,989.0 8164.0,973.0 C 8198.0,968.0 8207.0,971.0 8224.0,993.0 C 8241.0,1014.0 8259.0,1020.0 8325.0,1028.0 C 8393.0,1037.0 8413.0,1037.0 8458.0,1022.0 L 8512.0,1006.0 L 8568.0,1035.0 C 8600.0,1052.0 8627.0,1066.0 8629.0,1067.0 C 8638.0,1073.0 8606.0,1100.0 8591.0,1100.0 C 8569.0,1100.0 8500.0,1137.0 8469.0,1166.0 C 8447.0,1187.0 8434.0,1190.0 8368.0,1190.0 C 8300.0,1190.0 8291.0,1192.0 8285.0,1210.0 C 8281.0,1221.0 8248.0,1263.0 8210.0,1304.0 C 8141.0,1379.0 8137.0,1387.0 8126.0,1452.0 C 8121.0,1480.0 8109.0,1496.0 8075.0,1522.0 C 8034.0,1553.0 8031.0,1558.0 8030.0,1602.0 C 8030.0,1644.0 8027.0,1650.0 7996.0,1668.0 C 7971.0,1683.0 7961.0,1697.0 7957.0,1721.0 C 7949.0,1778.0 7923.0,1833.0 7896.0,1855.0 C 7882.0,1866.0 7870.0,1884.0 7870.0,1894.0 C 7870.0,1904.0 7856.0,1925.0 7839.0,1941.0 C 7814.0,1964.0 7809.0,1976.0 7812.0,2000.0 C 7816.0,2026.0 7812.0,2033.0 7783.0,2050.0 C 7763.0,2062.0 7750.0,2077.0 7750.0,2090.0 C 7750.0,2101.0 7741.0,2115.0 7730.0,2122.0 C 7718.0,2130.0 7710.0,2146.0 7710.0,2162.0 C 7710.0,2180.0 7702.0,2195.0 7686.0,2206.0 C 7672.0,2214.0 7660.0,2231.0 7658.0,2243.0 C 7656.0,2258.0 7647.0,2266.0 7630.0,2268.0 C 7595.0,2273.0 7575.0,2294.0 7560.0,2340.0 C 7548.0,2376.0 7549.0,2382.0 7565.0,2400.0 C 7583.0,2420.0 7583.0,2421.0 7560.0,2445.0 C 7540.0,2466.0 7538.0,2476.0 7543.0,2526.0 C 7549.0,2585.0 7538.0,2611.0 7459.0,2726.0 C 7434.0,2763.0 7431.0,2775.0 7430.0,2861.0 C 7429.0,2913.0 7431.0,2963.0 7435.0,2973.0 C 7440.0,2984.0 7436.0,2998.0 7428.0,3008.0 C 7419.0,3017.0 7410.0,3038.0 7406.0,3054.0 C 7400.0,3079.0 7396.0,3081.0 7372.0,3075.0 C 7337.0,3066.0 7302.0,3066.0 7266.0,3075.0 C 7240.0,3082.0 7237.0,3081.0 7242.0,3062.0 C 7247.0,3043.0 7241.0,3038.0 7194.0,3023.0 C 7148.0,3009.0 7135.0,3008.0 7098.0,3020.0 C 7074.0,3027.0 7021.0,3036.0 6980.0,3039.0 L 6905.0,3045.0 L 6907.0,3095.0 C 6913.0,3227.0 6911.0,3240.0 6883.0,3275.0 C 6868.0,3294.0 6843.0,3314.0 6828.0,3319.0 C 6811.0,3325.0 6800.0,3336.0 6800.0,3347.0 C 6800.0,3376.0 6748.0,3425.0 6696.0,3445.0 C 6647.0,3464.0 6620.0,3498.0 6620.0,3543.0 C 6620.0,3591.0 6577.0,3695.0 6540.0,3736.0 C 6519.0,3759.0 6499.0,3786.0 6496.0,3797.0 C 6493.0,3808.0 6456.0,3838.0 6416.0,3865.0 C 6351.0,3907.0 6340.0,3918.0 6332.0,3954.0 C 6313.0,4030.0 6298.0,4152.0 6305.0,4177.0 C 6308.0,4190.0 6332.0,4221.0 6359.0,4246.0 C 6385.0,4270.0 6419.0,4313.0 6435.0,4341.0 C 6459.0,4386.0 6462.0,4399.0 6457.0,4458.0 C 6453.0,4518.0 6456.0,4530.0 6481.0,4573.0 C 6497.0,4599.0 6510.0,4623.0 6510.0,4625.0 C 6510.0,4628.0 6535.0,4685.0 6565.0,4751.0 C 6595.0,4817.0 6620.0,4875.0 6620.0,4879.0 C 6620.0,4883.0 6604.0,4905.0 6585.0,4927.0 C 6566.0,4950.0 6550.0,4975.0 6550.0,4982.0 C 6550.0,4990.0 6534.0,5015.0 6515.0,5037.0 C 6469.0,5091.0 6470.0,5115.0 6521.0,5158.0 C 6543.0,5177.0 6573.0,5211.0 6587.0,5233.0 L 6612.0,5273.0 L 6669.0,5267.0 L 6726.0,5262.0 L 6746.0,5299.0 C 6769.0,5343.0 6823.0,5372.0 6865.0,5364.0 C 6894.0,5358.0 6917.0,5358.0 7005.0,5360.0 C 7027.0,5360.0 7059.0,5360.0 7075.0,5360.0 C 7092.0,5359.0 7143.0,5364.0 7190.0,5369.0 C 7237.0,5375.0 7304.0,5383.0 7340.0,5386.0 L 7406.0,5392.0 L 7369.0,5429.0 L 7332.0,5465.0 L 7354.0,5533.0 C 7375.0,5601.0 7399.0,5625.0 7423.0,5601.0 C 7429.0,5595.0 7451.0,5590.0 7471.0,5590.0 C 7509.0,5590.0 7520.0,5602.0 7520.0,5642.0 C 7520.0,5663.0 7455.0,5760.0 7440.0,5760.0 C 7421.0,5760.0 7410.0,5732.0 7420.0,5706.0 C 7427.0,5686.0 7426.0,5680.0 7416.0,5680.0 C 7393.0,5680.0 7381.0,5703.0 7378.0,5755.0 C 7375.0,5798.0 7372.0,5805.0 7352.0,5808.0 C 7334.0,5811.0 7331.0,5816.0 7336.0,5838.0 C 7340.0,5853.0 7357.0,5881.0 7375.0,5900.0 C 7398.0,5925.0 7409.0,5948.0 7413.0,5982.0 C 7417.0,6008.0 7433.0,6051.0 7451.0,6081.0 C 7517.0,6188.0 7530.0,6233.0 7530.0,6368.0 C 7530.0,6484.0 7531.0,6493.0 7555.0,6524.0 C 7578.0,6554.0 7581.0,6568.0 7582.0,6651.0 C 7583.0,6732.0 7579.0,6759.0 7551.0,6845.0 C 7504.0,6987.0 7483.0,7019.0 7389.0,7087.0 C 7345.0,7119.0 7294.0,7152.0 7277.0,7161.0 C 7121.0,7240.0 7078.0,7258.0 7060.0,7253.0 C 7049.0,7250.0 7040.0,7239.0 7040.0,7229.0 C 7040.0,7203.0 7035.0,7205.0 6995.0,7248.0 C 6976.0,7268.0 6949.0,7315.0 6935.0,7351.0 C 6910.0,7415.0 6907.0,7419.0 6820.0,7475.0 C 6767.0,7510.0 6720.0,7549.0 6703.0,7572.0 C 6669.0,7622.0 6603.0,7680.0 6548.0,7710.0 C 6522.0,7723.0 6490.0,7754.0 6468.0,7785.0 C 6447.0,7815.0 6409.0,7856.0 6383.0,7877.0 L 6337.0,7915.0 L 6226.0,7915.0 L 6115.0,7915.0 L 6036.0,7963.0 C 5966.0,8005.0 5951.0,8010.0 5898.0,8010.0 C 5784.0,8010.0 5664.0,7927.0 5630.0,7824.0 C 5624.0,7805.0 5615.0,7790.0 5610.0,7790.0 C 5605.0,7790.0 5584.0,7760.0 5563.0,7723.0 C 5528.0,7661.0 5525.0,7648.0 5524.0,7575.0 C 5522.0,7446.0 5512.0,7395.0 5483.0,7368.0 C 5459.0,7347.0 5458.0,7347.0 5465.0,7365.0 C 5470.0,7376.0 5477.0,7483.0 5481.0,7604.0 C 5488.0,7774.0 5494.0,7839.0 5510.0,7895.0 C 5521.0,7934.0 5530.0,7980.0 5530.0,7997.0 C 5530.0,8014.0 5537.0,8034.0 5546.0,8041.0 C 5566.0,8057.0 5654.0,8187.0 5664.0,8215.0 C 5668.0,8226.0 5668.0,8330.0 5664.0,8445.0 L 5657.0,8655.0 L 5622.0,8685.0 C 5519.0,8773.0 5474.0,8821.0 5437.0,8885.0 C 5385.0,8974.0 5310.0,9051.0 5282.0,9043.0 C 5267.0,9039.0 5255.0,9049.0 5229.0,9087.0 C 5165.0,9180.0 5094.0,9254.0 5023.0,9300.0 C 4983.0,9325.0 4933.0,9369.0 4911.0,9396.0 C 4889.0,9424.0 4852.0,9460.0 4828.0,9475.0 C 4804.0,9491.0 4765.0,9525.0 4740.0,9551.0 C 4708.0,9585.0 4668.0,9612.0 4600.0,9644.0 C 4548.0,9669.0 4471.0,9714.0 4430.0,9745.0 C 4390.0,9776.0 4291.0,9834.0 4211.0,9874.0 C 4130.0,9914.0 4008.0,9977.0 3939.0,10013.0 C 3801.0,10087.0 3770.0,10094.0 3770.0,10056.0 C 3770.0,10042.0 3777.0,10024.0 3786.0,10016.0 C 3799.0,10002.0 3799.0,10000.0 3786.0,10000.0 C 3759.0,10000.0 3697.0,10044.0 3645.0,10099.0 C 3497.0,10257.0 3508.0,10248.0 3481.0,10231.0" fill="pink"/>
</svg>
