<?xml version="1.0" ?>
<svg xmlns="http://www.w3.org/2000/svg" xmlns:ev="http://www.w3.org/2001/xml-events" xmlns:xlink="http://www.w3.org/1999/xlink" baseProfile="full" height="352px" version="1.1" viewBox="-1027.8547483173872 1522.087442109092 12295.070176409772 7202.376136189979" width="600px">
	<defs/>
	<path d="M 5760.0,8106.0 C 5760.0,8097.0 5753.0,8094.0 5741.0,8097.0 C 5722.0,8102.0 5716.0,8096.0 5660.0,8010.0 C 5619.0,7947.0 5623.0,7941.0 5675.0,7989.0 C 5699.0,8011.0 5726.0,8030.0 5734.0,8030.0 C 5742.0,8030.0 5755.0,8039.0 5763.0,8050.0 C 5770.0,8060.0 5787.0,8074.0 5801.0,8079.0 L 5825.0,8089.0 L 5803.0,8096.0 C 5790.0,8099.0 5780.0,8106.0 5780.0,8111.0 C 5780.0,8116.0 5776.0,8120.0 5770.0,8120.0 C 5765.0,8120.0 5760.0,8114.0 5760.0,8106.0" fill="pink"/>
	<path d="M 5288.0,7993.0 C 5295.0,7990.0 5304.0,7991.0 5307.0,7994.0 C 5311.0,7997.0 5305.0,8000.0 5294.0,7999.0 C 5283.0,7999.0 5280.0,7996.0 5288.0,7993.0" fill="pink"/>
	<path d="M 4990.0,7960.0 C 4940.0,7955.0 4890.0,7938.0 4771.0,7883.0 C 4596.0,7803.0 4550.0,7772.0 4550.0,7733.0 C 4550.0,7707.0 4551.0,7708.0 4588.0,7748.0 C 4611.0,7773.0 4636.0,7790.0 4649.0,7790.0 C 4661.0,7790.0 4730.0,7819.0 4803.0,7855.0 C 4876.0,7891.0 4944.0,7920.0 4955.0,7920.0 C 4966.0,7920.0 4998.0,7931.0 5025.0,7944.0 C 5053.0,7958.0 5071.0,7968.0 5065.0,7968.0 C 5060.0,7967.0 5026.0,7964.0 4990.0,7960.0" fill="pink"/>
	<path d="M 4070.0,7451.0 C 4062.0,7446.0 4035.0,7440.0 4010.0,7436.0 C 3964.0,7429.0 3920.0,7407.0 3920.0,7391.0 C 3920.0,7376.0 3971.0,7369.0 4004.0,7380.0 C 4021.0,7385.0 4048.0,7404.0 4064.0,7420.0 C 4093.0,7452.0 4096.0,7464.0 4070.0,7451.0" fill="pink"/>
	<path d="M 5545.0,7270.0 C 5556.0,7265.0 5581.0,7262.0 5600.0,7262.0 C 5632.0,7262.0 5633.0,7263.0 5610.0,7270.0 C 5596.0,7274.0 5572.0,7278.0 5555.0,7278.0 C 5530.0,7279.0 5528.0,7277.0 5545.0,7270.0" fill="pink"/>
	<path d="M 5677.0,7232.0 C 5695.0,7201.0 5695.0,7201.0 5714.0,7220.0 C 5737.0,7243.0 5734.0,7248.0 5691.0,7256.0 L 5659.0,7263.0 L 5677.0,7232.0" fill="pink"/>
	<path d="M 5829.0,7195.0 C 5821.0,7179.0 5803.0,7158.0 5788.0,7147.0 C 5765.0,7130.0 5757.0,7129.0 5732.0,7139.0 C 5705.0,7150.0 5695.0,7148.0 5629.0,7114.0 C 5557.0,7077.0 5552.0,7076.0 5415.0,7070.0 C 5236.0,7062.0 5204.0,7051.0 5121.0,6975.0 C 5052.0,6912.0 4934.0,6852.0 4902.0,6865.0 C 4894.0,6868.0 4881.0,6865.0 4874.0,6859.0 C 4864.0,6851.0 4842.0,6857.0 4781.0,6885.0 C 4711.0,6918.0 4698.0,6921.0 4669.0,6911.0 C 4650.0,6906.0 4610.0,6898.0 4580.0,6895.0 C 4550.0,6892.0 4493.0,6884.0 4453.0,6878.0 C 4400.0,6870.0 4366.0,6870.0 4318.0,6879.0 C 4258.0,6891.0 4252.0,6890.0 4201.0,6866.0 C 4171.0,6853.0 4116.0,6836.0 4080.0,6829.0 C 4020.0,6819.0 4001.0,6820.0 3919.0,6838.0 C 3867.0,6849.0 3776.0,6866.0 3715.0,6875.0 C 3595.0,6893.0 3478.0,6918.0 3359.0,6951.0 L 3284.0,6972.0 L 3245.0,6946.0 C 3224.0,6932.0 3203.0,6920.0 3198.0,6920.0 C 3193.0,6920.0 3174.0,6909.0 3156.0,6895.0 C 3110.0,6860.0 3079.0,6864.0 2981.0,6917.0 C 2893.0,6965.0 2890.0,6962.0 2958.0,6889.0 L 2992.0,6853.0 L 2963.0,6847.0 C 2948.0,6844.0 2930.0,6846.0 2923.0,6852.0 C 2915.0,6858.0 2904.0,6858.0 2891.0,6851.0 C 2847.0,6827.0 2837.0,6836.0 2842.0,6892.0 C 2846.0,6932.0 2853.0,6949.0 2874.0,6967.0 L 2901.0,6990.0 L 2877.0,7019.0 C 2855.0,7046.0 2851.0,7047.0 2837.0,7033.0 C 2823.0,7018.0 2815.0,7021.0 2756.0,7059.0 L 2690.0,7102.0 L 2659.0,7076.0 C 2624.0,7047.0 2622.0,7046.0 2584.0,7060.0 C 2548.0,7074.0 2459.0,7054.0 2412.0,7022.0 C 2390.0,7007.0 2366.0,7000.0 2347.0,7002.0 C 2311.0,7006.0 2300.0,6986.0 2329.0,6970.0 C 2363.0,6952.0 2355.0,6921.0 2313.0,6904.0 C 2292.0,6896.0 2267.0,6885.0 2258.0,6880.0 C 2248.0,6874.0 2224.0,6870.0 2205.0,6870.0 C 2177.0,6870.0 2170.0,6866.0 2170.0,6851.0 C 2170.0,6839.0 2152.0,6820.0 2122.0,6800.0 C 2093.0,6782.0 2066.0,6754.0 2057.0,6734.0 C 2029.0,6675.0 1994.0,6676.0 1917.0,6736.0 C 1867.0,6775.0 1859.0,6775.0 1836.0,6728.0 C 1830.0,6716.0 1815.0,6704.0 1803.0,6702.0 C 1791.0,6700.0 1776.0,6692.0 1770.0,6684.0 C 1763.0,6676.0 1747.0,6670.0 1733.0,6670.0 C 1719.0,6670.0 1707.0,6663.0 1704.0,6653.0 C 1687.0,6597.0 1657.0,6560.0 1575.0,6495.0 C 1526.0,6455.0 1448.0,6388.0 1403.0,6347.0 C 1358.0,6305.0 1301.0,6261.0 1278.0,6249.0 C 1254.0,6237.0 1197.0,6191.0 1150.0,6145.0 C 1082.0,6079.0 1045.0,6052.0 965.0,6012.0 C 889.0,5974.0 842.0,5941.0 770.0,5875.0 C 672.0,5786.0 618.0,5753.0 492.0,5705.0 C 381.0,5664.0 329.0,5624.0 314.0,5570.0 C 303.0,5532.0 303.0,5523.0 315.0,5510.0 C 323.0,5501.0 330.0,5485.0 330.0,5476.0 C 330.0,5446.0 280.0,5363.0 254.0,5351.0 C 221.0,5336.0 221.0,5285.0 255.0,5239.0 C 307.0,5167.0 319.0,5145.0 325.0,5108.0 C 330.0,5080.0 339.0,5066.0 356.0,5058.0 C 384.0,5045.0 385.0,5037.0 366.0,4983.0 C 358.0,4959.0 354.0,4925.0 357.0,4897.0 C 361.0,4863.0 358.0,4843.0 345.0,4824.0 C 329.0,4800.0 325.0,4799.0 271.0,4805.0 L 213.0,4812.0 L 135.0,4726.0 C 93.0,4679.0 52.0,4640.0 46.0,4640.0 C 39.0,4640.0 26.0,4624.0 17.0,4605.0 L 1.0,4571.0 L 36.0,4544.0 C 63.0,4523.0 87.0,4516.0 146.0,4510.0 C 217.0,4503.0 224.0,4500.0 264.0,4461.0 C 287.0,4439.0 312.0,4420.0 320.0,4420.0 C 328.0,4420.0 345.0,4435.0 358.0,4454.0 C 371.0,4473.0 394.0,4494.0 411.0,4500.0 C 447.0,4515.0 465.0,4503.0 491.0,4444.0 C 500.0,4421.0 514.0,4399.0 520.0,4395.0 C 526.0,4391.0 540.0,4369.0 551.0,4346.0 C 575.0,4295.0 643.0,4208.0 667.0,4198.0 C 677.0,4195.0 699.0,4191.0 716.0,4191.0 C 751.0,4190.0 814.0,4136.0 842.0,4082.0 C 864.0,4041.0 928.0,4011.0 991.0,4010.0 C 1037.0,4010.0 1037.0,4010.0 1044.0,3970.0 C 1048.0,3947.0 1063.0,3916.0 1081.0,3895.0 C 1111.0,3861.0 1115.0,3860.0 1160.0,3866.0 C 1209.0,3872.0 1253.0,3858.0 1279.0,3826.0 C 1287.0,3816.0 1308.0,3810.0 1332.0,3810.0 C 1373.0,3810.0 1430.0,3786.0 1430.0,3769.0 C 1430.0,3763.0 1425.0,3749.0 1419.0,3738.0 C 1410.0,3722.0 1411.0,3703.0 1419.0,3664.0 C 1437.0,3586.0 1450.0,3580.0 1520.0,3618.0 C 1588.0,3656.0 1606.0,3657.0 1636.0,3629.0 L 1659.0,3608.0 L 1742.0,3655.0 C 1847.0,3715.0 1858.0,3725.0 1866.0,3767.0 C 1869.0,3785.0 1880.0,3804.0 1889.0,3809.0 C 1898.0,3813.0 1957.0,3815.0 2021.0,3812.0 L 2138.0,3808.0 L 2186.0,3721.0 C 2212.0,3674.0 2235.0,3633.0 2236.0,3631.0 C 2238.0,3629.0 2252.0,3635.0 2267.0,3645.0 C 2303.0,3669.0 2407.0,3675.0 2470.0,3656.0 C 2512.0,3644.0 2521.0,3644.0 2539.0,3656.0 C 2566.0,3676.0 2590.0,3662.0 2629.0,3607.0 C 2645.0,3583.0 2675.0,3551.0 2694.0,3536.0 C 2714.0,3521.0 2730.0,3503.0 2730.0,3495.0 C 2730.0,3487.0 2712.0,3439.0 2690.0,3389.0 C 2659.0,3317.0 2650.0,3284.0 2650.0,3240.0 C 2650.0,3196.0 2645.0,3177.0 2625.0,3150.0 C 2606.0,3124.0 2600.0,3104.0 2600.0,3063.0 C 2600.0,3012.0 2601.0,3010.0 2628.0,3010.0 C 2668.0,3010.0 2698.0,2985.0 2706.0,2945.0 C 2714.0,2900.0 2704.0,2888.0 2624.0,2851.0 C 2562.0,2822.0 2548.0,2800.0 2590.0,2800.0 C 2600.0,2800.0 2623.0,2787.0 2641.0,2770.0 C 2673.0,2742.0 2674.0,2741.0 2687.0,2760.0 C 2695.0,2771.0 2711.0,2780.0 2724.0,2780.0 C 2765.0,2780.0 2817.0,2842.0 2800.0,2870.0 C 2784.0,2895.0 2789.0,2909.0 2821.0,2925.0 C 2860.0,2945.0 2866.0,2939.0 2853.0,2895.0 C 2843.0,2865.0 2845.0,2859.0 2863.0,2847.0 C 2881.0,2835.0 2883.0,2829.0 2874.0,2799.0 C 2868.0,2780.0 2858.0,2766.0 2851.0,2768.0 C 2831.0,2772.0 2810.0,2750.0 2810.0,2724.0 C 2810.0,2675.0 2895.0,2651.0 2922.0,2693.0 C 2931.0,2705.0 2961.0,2724.0 2991.0,2734.0 C 3080.0,2765.0 3156.0,2807.0 3178.0,2837.0 C 3195.0,2860.0 3200.0,2862.0 3214.0,2851.0 C 3235.0,2833.0 3234.0,2823.0 3211.0,2815.0 C 3200.0,2812.0 3190.0,2796.0 3186.0,2779.0 C 3182.0,2760.0 3173.0,2746.0 3160.0,2743.0 C 3150.0,2740.0 3138.0,2729.0 3135.0,2719.0 C 3131.0,2708.0 3111.0,2686.0 3089.0,2668.0 C 3068.0,2651.0 3050.0,2633.0 3050.0,2628.0 C 3050.0,2622.0 3066.0,2599.0 3084.0,2576.0 C 3125.0,2527.0 3169.0,2436.0 3171.0,2400.0 C 3172.0,2358.0 3183.0,2345.0 3219.0,2343.0 C 3260.0,2341.0 3285.0,2318.0 3285.0,2283.0 C 3285.0,2263.0 3297.0,2247.0 3335.0,2218.0 C 3374.0,2189.0 3385.0,2174.0 3385.0,2153.0 C 3385.0,2129.0 3389.0,2125.0 3410.0,2127.0 C 3424.0,2129.0 3476.0,2134.0 3525.0,2140.0 C 3645.0,2153.0 3720.0,2153.0 3775.0,2138.0 C 3814.0,2127.0 3821.0,2128.0 3832.0,2143.0 C 3839.0,2152.0 3863.0,2166.0 3885.0,2173.0 C 3910.0,2182.0 3939.0,2204.0 3965.0,2234.0 L 4005.0,2282.0 L 4006.0,2388.0 C 4007.0,2448.0 4013.0,2514.0 4021.0,2539.0 C 4038.0,2593.0 4090.0,2646.0 4140.0,2661.0 C 4173.0,2671.0 4182.0,2669.0 4234.0,2640.0 C 4285.0,2611.0 4293.0,2609.0 4320.0,2620.0 C 4369.0,2640.0 4375.0,2654.0 4360.0,2715.0 C 4353.0,2745.0 4344.0,2770.0 4340.0,2770.0 C 4337.0,2770.0 4326.0,2776.0 4316.0,2783.0 C 4299.0,2795.0 4299.0,2798.0 4316.0,2832.0 C 4332.0,2867.0 4332.0,2874.0 4316.0,2972.0 C 4306.0,3032.0 4290.0,3086.0 4279.0,3102.0 C 4262.0,3127.0 4262.0,3132.0 4275.0,3171.0 C 4295.0,3226.0 4295.0,3225.0 4260.0,3247.0 L 4230.0,3266.0 L 4250.0,3303.0 C 4263.0,3327.0 4270.0,3359.0 4270.0,3395.0 C 4270.0,3441.0 4273.0,3451.0 4293.0,3462.0 C 4305.0,3469.0 4385.0,3480.0 4470.0,3486.0 L 4625.0,3499.0 L 4672.0,3473.0 C 4714.0,3450.0 4722.0,3449.0 4750.0,3460.0 C 4777.0,3471.0 4785.0,3470.0 4815.0,3454.0 C 4844.0,3439.0 4855.0,3438.0 4880.0,3447.0 C 4903.0,3456.0 4912.0,3455.0 4921.0,3444.0 C 4927.0,3436.0 4940.0,3430.0 4950.0,3430.0 C 4981.0,3430.0 5023.0,3495.0 5022.0,3542.0 C 5022.0,3560.0 5030.0,3576.0 5046.0,3589.0 C 5091.0,3624.0 5220.0,3773.0 5220.0,3790.0 C 5220.0,3799.0 5234.0,3811.0 5254.0,3818.0 C 5286.0,3830.0 5288.0,3833.0 5283.0,3869.0 L 5278.0,3907.0 L 5364.0,3939.0 C 5456.0,3972.0 5517.0,3979.0 5526.0,3957.0 C 5528.0,3950.0 5524.0,3926.0 5516.0,3903.0 C 5502.0,3864.0 5503.0,3860.0 5525.0,3829.0 C 5537.0,3810.0 5569.0,3777.0 5596.0,3755.0 C 5684.0,3683.0 5678.0,3686.0 5704.0,3699.0 C 5716.0,3706.0 5740.0,3710.0 5756.0,3708.0 C 5778.0,3706.0 5786.0,3699.0 5788.0,3680.0 C 5790.0,3666.0 5796.0,3640.0 5801.0,3622.0 C 5812.0,3588.0 5818.0,3586.0 5903.0,3576.0 C 5941.0,3571.0 5950.0,3573.0 5950.0,3586.0 C 5950.0,3595.0 5941.0,3609.0 5929.0,3619.0 C 5909.0,3635.0 5908.0,3640.0 5919.0,3710.0 C 5926.0,3751.0 5932.0,3784.0 5933.0,3785.0 C 5934.0,3785.0 5961.0,3794.0 5993.0,3805.0 C 6025.0,3815.0 6060.0,3834.0 6070.0,3847.0 C 6080.0,3860.0 6092.0,3870.0 6097.0,3869.0 C 6129.0,3863.0 6156.0,3875.0 6196.0,3912.0 C 6237.0,3950.0 6242.0,3952.0 6253.0,3935.0 C 6272.0,3910.0 6302.0,3920.0 6321.0,3957.0 C 6330.0,3975.0 6340.0,3987.0 6344.0,3983.0 C 6347.0,3980.0 6368.0,3991.0 6390.0,4009.0 C 6423.0,4035.0 6434.0,4039.0 6445.0,4030.0 C 6470.0,4009.0 6517.0,4048.0 6511.0,4083.0 C 6510.0,4088.0 6519.0,4104.0 6530.0,4119.0 C 6543.0,4138.0 6549.0,4161.0 6547.0,4186.0 C 6545.0,4222.0 6547.0,4225.0 6571.0,4225.0 C 6587.0,4225.0 6608.0,4236.0 6622.0,4251.0 C 6646.0,4276.0 6652.0,4278.0 6731.0,4275.0 C 6777.0,4274.0 6827.0,4270.0 6843.0,4266.0 C 6867.0,4259.0 6872.0,4261.0 6885.0,4293.0 C 6898.0,4325.0 6898.0,4332.0 6882.0,4359.0 C 6873.0,4376.0 6859.0,4390.0 6853.0,4390.0 C 6846.0,4390.0 6840.0,4399.0 6840.0,4409.0 C 6840.0,4420.0 6830.0,4436.0 6818.0,4444.0 L 6797.0,4459.0 L 6845.0,4552.0 C 6872.0,4603.0 6904.0,4666.0 6917.0,4691.0 C 6938.0,4730.0 6940.0,4744.0 6932.0,4773.0 C 6915.0,4834.0 6960.0,4852.0 7003.0,4801.0 C 7027.0,4772.0 7027.0,4772.0 7057.0,4789.0 C 7088.0,4808.0 7127.0,4860.0 7110.0,4860.0 C 7105.0,4860.0 7100.0,4867.0 7100.0,4875.0 C 7100.0,4883.0 7105.0,4890.0 7110.0,4890.0 C 7126.0,4890.0 7121.0,4912.0 7100.0,4935.0 C 7075.0,4962.0 7083.0,4994.0 7112.0,4987.0 C 7129.0,4982.0 7131.0,4985.0 7126.0,5005.0 C 7121.0,5025.0 7130.0,5036.0 7185.0,5079.0 C 7220.0,5107.0 7256.0,5130.0 7264.0,5130.0 C 7273.0,5130.0 7291.0,5151.0 7306.0,5176.0 C 7329.0,5215.0 7337.0,5221.0 7359.0,5217.0 C 7373.0,5214.0 7401.0,5218.0 7420.0,5226.0 C 7469.0,5247.0 7496.0,5237.0 7550.0,5178.0 C 7589.0,5136.0 7596.0,5123.0 7587.0,5109.0 C 7579.0,5096.0 7586.0,5080.0 7626.0,5030.0 C 7652.0,4996.0 7676.0,4973.0 7678.0,4979.0 C 7683.0,4995.0 7748.0,4992.0 7798.0,4975.0 C 7822.0,4966.0 7869.0,4957.0 7902.0,4953.0 C 7953.0,4948.0 7961.0,4944.0 7957.0,4929.0 C 7949.0,4900.0 8029.0,4878.0 8068.0,4899.0 C 8077.0,4905.0 8096.0,4911.0 8110.0,4914.0 C 8126.0,4918.0 8151.0,4942.0 8178.0,4979.0 C 8212.0,5026.0 8224.0,5037.0 8241.0,5033.0 C 8256.0,5029.0 8260.0,5022.0 8256.0,5007.0 C 8252.0,4989.0 8255.0,4988.0 8291.0,4994.0 C 8325.0,5000.0 8330.0,4998.0 8330.0,4980.0 C 8330.0,4966.0 8337.0,4960.0 8354.0,4960.0 C 8393.0,4960.0 8402.0,4981.0 8385.0,5031.0 L 8369.0,5074.0 L 8401.0,5105.0 C 8430.0,5133.0 8432.0,5134.0 8443.0,5116.0 C 8490.0,5042.0 8509.0,5036.0 8591.0,5071.0 C 8640.0,5092.0 8649.0,5103.0 8630.0,5115.0 C 8610.0,5127.0 8621.0,5147.0 8655.0,5163.0 L 8690.0,5180.0 L 8690.0,5149.0 C 8690.0,5125.0 8694.0,5119.0 8705.0,5124.0 C 8713.0,5127.0 8727.0,5133.0 8735.0,5136.0 C 8744.0,5140.0 8750.0,5136.0 8750.0,5127.0 C 8750.0,5115.0 8759.0,5113.0 8789.0,5117.0 C 8811.0,5120.0 8830.0,5118.0 8834.0,5112.0 C 8839.0,5104.0 8847.0,5104.0 8864.0,5111.0 C 8881.0,5119.0 8893.0,5119.0 8908.0,5111.0 C 8925.0,5102.0 8929.0,5104.0 8935.0,5128.0 C 8946.0,5172.0 8987.0,5185.0 9021.0,5154.0 C 9038.0,5139.0 9043.0,5139.0 9084.0,5156.0 C 9118.0,5170.0 9128.0,5179.0 9124.0,5192.0 C 9120.0,5206.0 9126.0,5209.0 9159.0,5208.0 C 9188.0,5208.0 9208.0,5215.0 9230.0,5234.0 C 9248.0,5248.0 9267.0,5260.0 9274.0,5260.0 C 9281.0,5260.0 9291.0,5270.0 9297.0,5283.0 C 9310.0,5311.0 9391.0,5336.0 9420.0,5320.0 C 9436.0,5312.0 9440.0,5313.0 9440.0,5325.0 C 9440.0,5333.0 9458.0,5352.0 9480.0,5366.0 C 9528.0,5398.0 9574.0,5456.0 9566.0,5476.0 C 9562.0,5485.0 9569.0,5494.0 9585.0,5500.0 C 9599.0,5505.0 9610.0,5516.0 9610.0,5525.0 C 9610.0,5533.0 9622.0,5543.0 9637.0,5546.0 C 9658.0,5552.0 9668.0,5548.0 9685.0,5526.0 L 9707.0,5498.0 L 9749.0,5519.0 C 9780.0,5535.0 9790.0,5546.0 9790.0,5565.0 C 9790.0,5596.0 9793.0,5596.0 9837.0,5563.0 C 9862.0,5544.0 9875.0,5539.0 9878.0,5548.0 C 9886.0,5573.0 10008.0,5546.0 10002.0,5520.0 C 10000.0,5513.0 10007.0,5511.0 10019.0,5515.0 C 10040.0,5521.0 10167.0,5524.0 10210.0,5518.0 C 10226.0,5516.0 10235.0,5520.0 10238.0,5531.0 C 10240.0,5543.0 10234.0,5546.0 10212.0,5542.0 C 10164.0,5535.0 9980.0,5629.0 9980.0,5661.0 C 9980.0,5674.0 9850.0,5909.0 9840.0,5915.0 C 9836.0,5918.0 9829.0,5904.0 9826.0,5885.0 C 9821.0,5861.0 9815.0,5852.0 9805.0,5857.0 C 9787.0,5863.0 9785.0,5921.0 9802.0,5938.0 C 9820.0,5956.0 9807.0,5962.0 9675.0,6006.0 C 9557.0,6046.0 9466.0,6086.0 9354.0,6149.0 C 9301.0,6178.0 9279.0,6185.0 9271.0,6177.0 C 9254.0,6160.0 9258.0,6140.0 9280.0,6140.0 C 9290.0,6140.0 9315.0,6126.0 9334.0,6109.0 C 9354.0,6092.0 9374.0,6081.0 9380.0,6085.0 C 9386.0,6089.0 9398.0,6086.0 9406.0,6079.0 C 9415.0,6072.0 9438.0,6067.0 9458.0,6068.0 C 9482.0,6069.0 9509.0,6062.0 9534.0,6046.0 L 9574.0,6022.0 L 9542.0,6015.0 C 9525.0,6012.0 9487.0,6010.0 9459.0,6011.0 C 9414.0,6014.0 9406.0,6011.0 9399.0,5993.0 C 9395.0,5981.0 9371.0,5960.0 9346.0,5945.0 C 9298.0,5917.0 9293.0,5911.0 9310.0,5894.0 C 9318.0,5886.0 9309.0,5875.0 9281.0,5856.0 C 9243.0,5829.0 9241.0,5829.0 9216.0,5845.0 C 9186.0,5865.0 9175.0,5897.0 9183.0,5946.0 C 9191.0,5997.0 9172.0,5999.0 9081.0,5956.0 C 8967.0,5903.0 8942.0,5900.0 8896.0,5940.0 C 8876.0,5958.0 8857.0,5983.0 8854.0,5996.0 C 8849.0,6015.0 8840.0,6019.0 8807.0,6022.0 C 8775.0,6024.0 8765.0,6029.0 8766.0,6042.0 C 8767.0,6053.0 8754.0,6062.0 8723.0,6069.0 C 8659.0,6086.0 8600.0,6143.0 8593.0,6197.0 C 8588.0,6235.0 8590.0,6240.0 8614.0,6251.0 C 8644.0,6265.0 8646.0,6277.0 8624.0,6309.0 C 8610.0,6328.0 8610.0,6334.0 8621.0,6340.0 C 8631.0,6347.0 8632.0,6354.0 8621.0,6376.0 C 8612.0,6396.0 8606.0,6400.0 8601.0,6391.0 C 8596.0,6383.0 8584.0,6380.0 8571.0,6385.0 C 8553.0,6390.0 8550.0,6387.0 8550.0,6366.0 C 8550.0,6347.0 8545.0,6340.0 8531.0,6340.0 C 8519.0,6340.0 8510.0,6331.0 8506.0,6315.0 C 8498.0,6283.0 8480.0,6292.0 8480.0,6328.0 C 8479.0,6343.0 8466.0,6370.0 8450.0,6390.0 C 8411.0,6435.0 8410.0,6455.0 8448.0,6445.0 C 8463.0,6441.0 8492.0,6438.0 8513.0,6439.0 C 8535.0,6439.0 8560.0,6435.0 8571.0,6430.0 C 8585.0,6422.0 8594.0,6424.0 8612.0,6442.0 L 8634.0,6464.0 L 8606.0,6471.0 C 8590.0,6475.0 8569.0,6487.0 8558.0,6496.0 C 8539.0,6514.0 8539.0,6514.0 8559.0,6522.0 C 8586.0,6532.0 8587.0,6578.0 8560.0,6627.0 C 8549.0,6648.0 8540.0,6679.0 8540.0,6696.0 C 8540.0,6723.0 8528.0,6738.0 8463.0,6797.0 C 8304.0,6937.0 8316.0,6930.0 8247.0,6930.0 C 8185.0,6930.0 8037.0,6945.0 7996.0,6955.0 C 7985.0,6957.0 7981.0,6957.0 7988.0,6954.0 C 8007.0,6945.0 8002.0,6928.0 7970.0,6893.0 C 7950.0,6871.0 7928.0,6858.0 7902.0,6854.0 C 7868.0,6849.0 7862.0,6851.0 7846.0,6875.0 L 7828.0,6903.0 L 7803.0,6871.0 C 7774.0,6835.0 7767.0,6833.0 7740.0,6860.0 C 7718.0,6882.0 7712.0,6957.0 7730.0,6990.0 C 7742.0,7013.0 7739.0,7015.0 7662.0,7031.0 L 7600.0,7044.0 L 7567.0,7008.0 C 7510.0,6945.0 7444.0,6944.0 7416.0,7005.0 C 7400.0,7039.0 7400.0,7041.0 7420.0,7067.0 L 7441.0,7094.0 L 7418.0,7106.0 C 7405.0,7112.0 7342.0,7138.0 7278.0,7164.0 C 7107.0,7231.0 7043.0,7225.0 6960.0,7135.0 C 6902.0,7072.0 6806.0,7043.0 6625.0,7034.0 C 6554.0,7030.0 6480.0,7021.0 6461.0,7014.0 C 6390.0,6985.0 6328.0,7002.0 6122.0,7107.0 C 6043.0,7147.0 5974.0,7177.0 5969.0,7174.0 C 5964.0,7171.0 5952.0,7178.0 5942.0,7189.0 C 5932.0,7201.0 5907.0,7212.0 5884.0,7216.0 C 5845.0,7222.0 5841.0,7220.0 5829.0,7195.0" fill="pink"/>
	<path d="M 8580.0,6668.0 C 8580.0,6629.0 8588.0,6622.0 8606.0,6640.0 C 8620.0,6654.0 8664.0,6619.0 8680.0,6581.0 C 8695.0,6544.0 8687.0,6507.0 8658.0,6480.0 C 8646.0,6469.0 8641.0,6460.0 8647.0,6460.0 C 8671.0,6460.0 8690.0,6430.0 8680.0,6410.0 C 8672.0,6395.0 8674.0,6390.0 8691.0,6385.0 C 8714.0,6377.0 8730.0,6392.0 8730.0,6423.0 C 8730.0,6445.0 8730.0,6445.0 8799.0,6411.0 C 8837.0,6391.0 8861.0,6385.0 8867.0,6391.0 C 8876.0,6400.0 8952.0,6329.0 8961.0,6302.0 C 8964.0,6294.0 8974.0,6293.0 8992.0,6298.0 C 9017.0,6305.0 9014.0,6308.0 8913.0,6395.0 C 8855.0,6445.0 8756.0,6535.0 8694.0,6595.0 L 8580.0,6705.0 L 8580.0,6668.0" fill="pink"/>
	<path d="M 9199.0,6197.0 C 9214.0,6178.0 9245.0,6174.0 9255.0,6190.0 C 9258.0,6196.0 9255.0,6200.0 9248.0,6200.0 C 9241.0,6200.0 9224.0,6203.0 9210.0,6207.0 C 9188.0,6213.0 9186.0,6212.0 9199.0,6197.0" fill="pink"/>
	<path d="M 8790.0,6170.0 C 8769.0,6149.0 8767.0,6140.0 8775.0,6118.0 C 8779.0,6109.0 8792.0,6105.0 8814.0,6108.0 C 8833.0,6110.0 8858.0,6106.0 8871.0,6099.0 C 8884.0,6092.0 8919.0,6086.0 8948.0,6085.0 C 9004.0,6083.0 9023.0,6074.0 9001.0,6060.0 C 8990.0,6054.0 8999.0,6044.0 9035.0,6021.0 C 9089.0,5987.0 9102.0,5984.0 9119.0,6003.0 C 9127.0,6014.0 9102.0,6035.0 9001.0,6104.0 C 8930.0,6153.0 8867.0,6189.0 8861.0,6186.0 C 8855.0,6182.0 8850.0,6170.0 8850.0,6159.0 C 8850.0,6149.0 8844.0,6140.0 8836.0,6140.0 C 8814.0,6140.0 8806.0,6159.0 8820.0,6175.0 C 8839.0,6198.0 8814.0,6194.0 8790.0,6170.0" fill="pink"/>
	<path d="M 2807.0,2633.0 C 2803.0,2630.0 2800.0,2614.0 2800.0,2599.0 C 2800.0,2572.0 2802.0,2571.0 2833.0,2577.0 C 2875.0,2585.0 2875.0,2585.0 2862.0,2615.0 C 2851.0,2638.0 2822.0,2648.0 2807.0,2633.0" fill="pink"/>
</svg>
