<?xml version="1.0" ?>
<svg xmlns="http://www.w3.org/2000/svg" xmlns:ev="http://www.w3.org/2001/xml-events" xmlns:xlink="http://www.w3.org/1999/xlink" baseProfile="full" height="522px" version="1.1" viewBox="-1023.1702419164926 -213.91579424998918 12288.137788473901 10675.83158849998" width="600px">
	<defs/>
	<path d="M 4976.0,9515.0 C 4959.0,9477.0 4937.0,9451.0 4892.0,9417.0 C 4838.0,9375.0 4830.0,9364.0 4815.0,9312.0 C 4806.0,9281.0 4797.0,9249.0 4795.0,9243.0 C 4792.0,9234.0 4767.0,9230.0 4717.0,9230.0 C 4649.0,9230.0 4642.0,9232.0 4616.0,9259.0 L 4588.0,9288.0 L 4544.0,9265.0 C 4520.0,9252.0 4482.0,9239.0 4460.0,9235.0 C 4428.0,9230.0 4416.0,9222.0 4407.0,9202.0 C 4401.0,9187.0 4376.0,9153.0 4352.0,9125.0 L 4308.0,9075.0 L 4137.0,9030.0 L 3966.0,8984.0 L 3955.0,8935.0 C 3944.0,8880.0 3922.0,8866.0 3890.0,8895.0 C 3874.0,8909.0 3859.0,8911.0 3803.0,8906.0 C 3766.0,8902.0 3720.0,8899.0 3702.0,8900.0 C 3673.0,8900.0 3667.0,8895.0 3651.0,8859.0 C 3636.0,8826.0 3634.0,8811.0 3642.0,8788.0 C 3649.0,8768.0 3649.0,8756.0 3641.0,8746.0 C 3633.0,8736.0 3632.0,8730.0 3640.0,8725.0 C 3645.0,8722.0 3650.0,8704.0 3650.0,8687.0 C 3650.0,8639.0 3669.0,8619.0 3759.0,8576.0 C 3803.0,8554.0 3842.0,8528.0 3845.0,8519.0 C 3848.0,8509.0 3842.0,8484.0 3831.0,8463.0 C 3815.0,8430.0 3812.0,8411.0 3817.0,8341.0 L 3823.0,8259.0 L 3790.0,8225.0 C 3757.0,8191.0 3750.0,8165.0 3763.0,8118.0 C 3769.0,8096.0 3765.0,8088.0 3739.0,8069.0 L 3707.0,8047.0 L 3644.0,8080.0 C 3589.0,8110.0 3580.0,8112.0 3564.0,8100.0 C 3555.0,8092.0 3539.0,8086.0 3528.0,8088.0 C 3518.0,8090.0 3510.0,8085.0 3510.0,8078.0 C 3510.0,8071.0 3501.0,8059.0 3491.0,8053.0 C 3476.0,8044.0 3468.0,8044.0 3454.0,8055.0 C 3428.0,8074.0 3400.0,8048.0 3400.0,8004.0 L 3400.0,7972.0 L 3328.0,7960.0 C 3277.0,7951.0 3223.0,7931.0 3148.0,7894.0 C 3090.0,7865.0 3039.0,7836.0 3035.0,7830.0 C 3027.0,7817.0 3056.0,7770.0 3072.0,7770.0 C 3078.0,7770.0 3092.0,7763.0 3102.0,7754.0 C 3119.0,7738.0 3122.0,7739.0 3161.0,7764.0 C 3207.0,7795.0 3230.0,7787.0 3230.0,7743.0 C 3230.0,7722.0 3233.0,7720.0 3244.0,7729.0 C 3262.0,7744.0 3294.0,7698.0 3284.0,7668.0 C 3279.0,7651.0 3272.0,7648.0 3239.0,7653.0 C 3218.0,7656.0 3200.0,7654.0 3200.0,7649.0 C 3200.0,7644.0 3185.0,7640.0 3166.0,7640.0 C 3137.0,7640.0 3132.0,7636.0 3127.0,7611.0 C 3123.0,7593.0 3113.0,7581.0 3099.0,7577.0 L 3078.0,7571.0 L 3098.0,7546.0 C 3109.0,7532.0 3126.0,7488.0 3135.0,7450.0 C 3152.0,7379.0 3152.0,7379.0 3207.0,7351.0 L 3263.0,7323.0 L 3216.0,7285.0 L 3169.0,7247.0 L 3118.0,7263.0 L 3068.0,7279.0 L 3020.0,7234.0 C 2989.0,7205.0 2967.0,7192.0 2956.0,7196.0 C 2948.0,7199.0 2927.0,7197.0 2911.0,7192.0 C 2885.0,7183.0 2879.0,7185.0 2849.0,7216.0 C 2831.0,7234.0 2801.0,7255.0 2783.0,7261.0 C 2765.0,7267.0 2750.0,7278.0 2750.0,7286.0 C 2750.0,7304.0 2698.0,7330.0 2673.0,7324.0 C 2662.0,7321.0 2648.0,7325.0 2641.0,7334.0 C 2633.0,7343.0 2614.0,7350.0 2597.0,7350.0 C 2580.0,7350.0 2552.0,7361.0 2534.0,7375.0 C 2481.0,7416.0 2457.0,7405.0 2442.0,7335.0 C 2435.0,7300.0 2430.0,7294.0 2395.0,7284.0 C 2296.0,7256.0 2302.0,7255.0 2279.0,7303.0 C 2262.0,7338.0 2244.0,7355.0 2194.0,7384.0 C 2159.0,7404.0 2117.0,7420.0 2100.0,7420.0 C 2069.0,7420.0 2063.0,7433.0 2079.0,7459.0 C 2092.0,7479.0 2063.0,7520.0 2025.0,7535.0 C 1999.0,7546.0 1992.0,7558.0 1976.0,7615.0 C 1961.0,7667.0 1952.0,7684.0 1933.0,7691.0 C 1886.0,7709.0 1873.0,7702.0 1851.0,7650.0 C 1834.0,7611.0 1818.0,7593.0 1782.0,7570.0 C 1737.0,7543.0 1734.0,7538.0 1738.0,7506.0 C 1740.0,7487.0 1737.0,7456.0 1730.0,7436.0 C 1715.0,7391.0 1688.0,7382.0 1406.0,7330.0 C 1167.0,7287.0 1121.0,7286.0 1017.0,7321.0 C 985.0,7333.0 952.0,7339.0 944.0,7336.0 C 936.0,7333.0 922.0,7315.0 913.0,7295.0 C 897.0,7262.0 893.0,7260.0 850.0,7260.0 C 818.0,7260.0 794.0,7253.0 768.0,7235.0 C 748.0,7221.0 726.0,7210.0 721.0,7210.0 C 715.0,7210.0 691.0,7223.0 668.0,7239.0 C 632.0,7264.0 610.0,7270.0 537.0,7278.0 C 453.0,7286.0 446.0,7285.0 388.0,7259.0 L 326.0,7232.0 L 271.0,7256.0 C 240.0,7270.0 178.0,7301.0 133.0,7326.0 C 87.0,7350.0 49.0,7370.0 47.0,7370.0 C 45.0,7370.0 34.0,7357.0 22.0,7340.0 C 0.0,7311.0 0.0,7310.0 19.0,7291.0 C 30.0,7280.0 43.0,7246.0 50.0,7213.0 C 56.0,7181.0 65.0,7146.0 69.0,7135.0 C 94.0,7073.0 102.0,7036.0 91.0,7032.0 C 72.0,7026.0 79.0,6984.0 104.0,6961.0 C 121.0,6945.0 136.0,6939.0 152.0,6943.0 C 190.0,6953.0 205.0,6936.0 173.0,6921.0 L 145.0,6908.0 L 167.0,6893.0 L 189.0,6879.0 L 168.0,6858.0 C 150.0,6840.0 150.0,6837.0 164.0,6821.0 C 182.0,6801.0 185.0,6764.0 170.0,6755.0 C 158.0,6748.0 156.0,6687.0 167.0,6676.0 C 172.0,6672.0 180.0,6645.0 185.0,6617.0 L 195.0,6565.0 L 275.0,6566.0 C 350.0,6567.0 351.0,6567.0 295.0,6561.0 C 262.0,6558.0 226.0,6549.0 215.0,6542.0 C 195.0,6530.0 196.0,6529.0 221.0,6507.0 C 243.0,6489.0 247.0,6479.0 243.0,6453.0 C 239.0,6427.0 241.0,6420.0 255.0,6420.0 C 282.0,6420.0 326.0,6384.0 340.0,6350.0 C 347.0,6334.0 358.0,6320.0 365.0,6320.0 C 372.0,6320.0 389.0,6302.0 404.0,6280.0 C 419.0,6257.0 438.0,6240.0 449.0,6240.0 C 466.0,6240.0 489.0,6212.0 530.0,6141.0 C 538.0,6127.0 544.0,6097.0 544.0,6075.0 C 544.0,6033.0 563.0,6008.0 588.0,6018.0 C 598.0,6021.0 601.0,6018.0 598.0,6009.0 C 595.0,6001.0 582.0,5996.0 566.0,5997.0 C 535.0,5999.0 532.0,5985.0 559.0,5970.0 C 570.0,5965.0 582.0,5950.0 585.0,5939.0 C 590.0,5924.0 595.0,5921.0 600.0,5930.0 C 605.0,5938.0 609.0,5937.0 614.0,5925.0 C 617.0,5916.0 618.0,5905.0 615.0,5900.0 C 608.0,5889.0 629.0,5875.0 671.0,5861.0 C 703.0,5851.0 708.0,5844.0 714.0,5810.0 C 723.0,5755.0 745.0,5758.0 748.0,5815.0 C 749.0,5851.0 745.0,5862.0 728.0,5875.0 C 709.0,5888.0 708.0,5890.0 723.0,5890.0 C 733.0,5890.0 753.0,5881.0 768.0,5871.0 C 803.0,5846.0 867.0,5835.0 886.0,5851.0 C 898.0,5861.0 898.0,5865.0 880.0,5877.0 C 869.0,5885.0 860.0,5897.0 861.0,5903.0 C 862.0,5910.0 860.0,5923.0 855.0,5933.0 C 850.0,5945.0 853.0,5955.0 864.0,5963.0 C 872.0,5970.0 881.0,5984.0 883.0,5995.0 C 887.0,6024.0 930.0,6110.0 940.0,6110.0 C 945.0,6110.0 963.0,6139.0 980.0,6175.0 C 1002.0,6221.0 1015.0,6238.0 1025.0,6233.0 C 1046.0,6226.0 1044.0,6213.0 1022.0,6207.0 C 1001.0,6202.0 985.0,6160.0 1003.0,6160.0 C 1010.0,6161.0 1028.0,6171.0 1044.0,6184.0 C 1070.0,6205.0 1075.0,6206.0 1099.0,6194.0 C 1138.0,6173.0 1150.0,6177.0 1165.0,6213.0 C 1175.0,6238.0 1176.0,6257.0 1168.0,6295.0 C 1152.0,6376.0 1157.0,6416.0 1185.0,6444.0 C 1199.0,6458.0 1213.0,6483.0 1216.0,6499.0 C 1220.0,6517.0 1227.0,6527.0 1235.0,6524.0 C 1254.0,6516.0 1287.0,6593.0 1304.0,6683.0 C 1332.0,6826.0 1360.0,6917.0 1386.0,6941.0 C 1399.0,6953.0 1410.0,6969.0 1410.0,6975.0 C 1410.0,6981.0 1420.0,6996.0 1432.0,7007.0 L 1455.0,7027.0 L 1575.0,6988.0 C 1654.0,6962.0 1702.0,6941.0 1716.0,6925.0 C 1735.0,6905.0 1809.0,6860.0 1825.0,6860.0 C 1835.0,6860.0 1830.0,6896.0 1818.0,6908.0 C 1802.0,6924.0 1820.0,6923.0 1841.0,6907.0 C 1850.0,6900.0 1859.0,6879.0 1862.0,6860.0 C 1865.0,6841.0 1869.0,6818.0 1871.0,6810.0 C 1873.0,6800.0 1868.0,6795.0 1855.0,6794.0 C 1810.0,6792.0 1809.0,6791.0 1820.0,6771.0 C 1835.0,6741.0 1832.0,6735.0 1810.0,6755.0 C 1791.0,6772.0 1791.0,6771.0 1795.0,6736.0 C 1798.0,6716.0 1802.0,6685.0 1804.0,6666.0 C 1807.0,6644.0 1802.0,6623.0 1789.0,6604.0 C 1779.0,6588.0 1770.0,6565.0 1770.0,6553.0 C 1770.0,6534.0 1767.0,6533.0 1741.0,6543.0 C 1703.0,6557.0 1676.0,6546.0 1683.0,6519.0 C 1687.0,6503.0 1682.0,6496.0 1660.0,6489.0 C 1607.0,6470.0 1613.0,6436.0 1682.0,6370.0 C 1744.0,6311.0 1833.0,6285.0 1875.0,6313.0 C 1892.0,6325.0 1900.0,6325.0 1928.0,6313.0 C 1961.0,6299.0 1970.0,6274.0 1948.0,6252.0 C 1940.0,6244.0 1943.0,6236.0 1961.0,6221.0 C 1974.0,6210.0 1992.0,6201.0 2000.0,6200.0 C 2008.0,6200.0 2038.0,6188.0 2065.0,6173.0 C 2093.0,6158.0 2133.0,6144.0 2155.0,6141.0 C 2190.0,6136.0 2195.0,6131.0 2198.0,6107.0 C 2200.0,6091.0 2209.0,6076.0 2218.0,6073.0 C 2227.0,6069.0 2246.0,6058.0 2259.0,6048.0 C 2294.0,6021.0 2318.0,6024.0 2312.0,6055.0 C 2308.0,6080.0 2263.0,6120.0 2241.0,6120.0 C 2235.0,6120.0 2230.0,6124.0 2230.0,6129.0 C 2230.0,6134.0 2221.0,6140.0 2210.0,6143.0 C 2196.0,6146.0 2190.0,6157.0 2190.0,6174.0 C 2190.0,6201.0 2195.0,6203.0 2242.0,6200.0 C 2275.0,6198.0 2283.0,6211.0 2274.0,6254.0 C 2270.0,6278.0 2261.0,6291.0 2246.0,6296.0 C 2215.0,6305.0 2170.0,6351.0 2170.0,6373.0 C 2170.0,6409.0 2151.0,6431.0 2125.0,6424.0 C 2090.0,6415.0 2062.0,6428.0 2045.0,6460.0 C 2026.0,6497.0 2026.0,6534.0 2045.0,6550.0 C 2062.0,6564.0 2048.0,6600.0 2026.0,6600.0 C 2018.0,6600.0 2007.0,6607.0 1999.0,6616.0 C 1990.0,6627.0 1977.0,6630.0 1958.0,6626.0 C 1943.0,6623.0 1930.0,6625.0 1930.0,6630.0 C 1930.0,6636.0 1937.0,6640.0 1945.0,6640.0 C 1966.0,6640.0 1964.0,6650.0 1930.0,6703.0 C 1898.0,6755.0 1887.0,6813.0 1915.0,6790.0 C 1923.0,6783.0 1930.0,6772.0 1930.0,6765.0 C 1930.0,6755.0 2000.0,6693.0 2080.0,6634.0 C 2096.0,6622.0 2122.0,6602.0 2137.0,6589.0 C 2153.0,6576.0 2201.0,6554.0 2244.0,6540.0 C 2289.0,6526.0 2324.0,6509.0 2327.0,6500.0 C 2330.0,6492.0 2343.0,6463.0 2355.0,6435.0 C 2398.0,6344.0 2420.0,6289.0 2420.0,6273.0 C 2420.0,6264.0 2428.0,6251.0 2437.0,6244.0 C 2462.0,6227.0 2461.0,6104.0 2437.0,6070.0 C 2428.0,6056.0 2420.0,6034.0 2420.0,6020.0 C 2420.0,6006.0 2415.0,5989.0 2409.0,5983.0 C 2389.0,5963.0 2386.0,5841.0 2404.0,5772.0 C 2412.0,5738.0 2417.0,5698.0 2414.0,5683.0 C 2407.0,5649.0 2418.0,5624.0 2470.0,5545.0 C 2491.0,5512.0 2522.0,5460.0 2539.0,5429.0 C 2555.0,5398.0 2585.0,5360.0 2604.0,5344.0 C 2709.0,5259.0 2774.0,5199.0 2795.0,5169.0 C 2821.0,5130.0 2906.0,5056.0 2943.0,5039.0 C 2957.0,5033.0 2992.0,4999.0 3022.0,4963.0 C 3078.0,4895.0 3180.0,4829.0 3250.0,4815.0 C 3270.0,4811.0 3304.0,4791.0 3330.0,4766.0 C 3386.0,4714.0 3412.0,4700.0 3449.0,4700.0 C 3485.0,4700.0 3505.0,4676.0 3502.0,4639.0 C 3499.0,4614.0 3505.0,4606.0 3547.0,4581.0 C 3629.0,4530.0 3643.0,4519.0 3632.0,4508.0 C 3626.0,4502.0 3612.0,4504.0 3592.0,4514.0 C 3553.0,4534.0 3524.0,4534.0 3517.0,4516.0 C 3512.0,4503.0 3505.0,4503.0 3470.0,4517.0 C 3447.0,4526.0 3425.0,4541.0 3420.0,4551.0 C 3412.0,4565.0 3418.0,4570.0 3456.0,4579.0 C 3491.0,4588.0 3500.0,4594.0 3496.0,4606.0 C 3493.0,4615.0 3490.0,4630.0 3490.0,4641.0 C 3490.0,4654.0 3483.0,4660.0 3469.0,4660.0 C 3458.0,4660.0 3426.0,4670.0 3399.0,4681.0 C 3361.0,4698.0 3346.0,4700.0 3337.0,4691.0 C 3318.0,4672.0 3291.0,4678.0 3236.0,4715.0 C 3207.0,4734.0 3177.0,4750.0 3170.0,4750.0 C 3163.0,4750.0 3159.0,4753.0 3163.0,4756.0 C 3171.0,4765.0 3115.0,4810.0 3096.0,4810.0 C 3087.0,4810.0 3080.0,4815.0 3080.0,4820.0 C 3080.0,4826.0 3074.0,4830.0 3066.0,4830.0 C 3036.0,4830.0 3039.0,4808.0 3074.0,4775.0 C 3112.0,4739.0 3120.0,4720.0 3095.0,4720.0 C 3076.0,4720.0 3076.0,4716.0 3095.0,4680.0 C 3122.0,4628.0 3073.0,4649.0 2988.0,4727.0 C 2962.0,4751.0 2936.0,4770.0 2930.0,4770.0 C 2919.0,4770.0 2926.0,4729.0 2941.0,4698.0 C 2958.0,4666.0 2952.0,4657.0 2919.0,4664.0 C 2886.0,4670.0 2822.0,4720.0 2827.0,4736.0 C 2828.0,4741.0 2818.0,4754.0 2803.0,4764.0 C 2773.0,4786.0 2650.0,4831.0 2638.0,4824.0 C 2625.0,4816.0 2629.0,4786.0 2646.0,4761.0 C 2661.0,4740.0 2667.0,4738.0 2725.0,4745.0 C 2786.0,4751.0 2788.0,4751.0 2794.0,4726.0 C 2797.0,4713.0 2798.0,4696.0 2795.0,4688.0 C 2790.0,4675.0 2818.0,4641.0 2854.0,4616.0 C 2871.0,4604.0 2872.0,4602.0 2856.0,4571.0 L 2839.0,4539.0 L 2900.0,4480.0 C 2934.0,4448.0 2957.0,4421.0 2951.0,4419.0 C 2935.0,4413.0 2995.0,4344.0 3028.0,4328.0 C 3043.0,4321.0 3061.0,4300.0 3069.0,4283.0 C 3077.0,4265.0 3092.0,4247.0 3103.0,4244.0 C 3118.0,4239.0 3120.0,4236.0 3109.0,4229.0 C 3099.0,4223.0 3105.0,4217.0 3132.0,4205.0 C 3153.0,4197.0 3174.0,4190.0 3179.0,4190.0 C 3185.0,4190.0 3214.0,4160.0 3243.0,4123.0 C 3323.0,4023.0 3423.0,3931.0 3459.0,3924.0 C 3477.0,3920.0 3497.0,3906.0 3508.0,3889.0 C 3531.0,3852.0 3623.0,3784.0 3669.0,3769.0 C 3689.0,3763.0 3712.0,3752.0 3720.0,3745.0 C 3728.0,3738.0 3744.0,3730.0 3755.0,3727.0 C 3766.0,3725.0 3758.0,3723.0 3737.0,3723.0 C 3685.0,3723.0 3683.0,3716.0 3727.0,3689.0 C 3748.0,3676.0 3776.0,3654.0 3790.0,3639.0 C 3810.0,3619.0 3832.0,3610.0 3888.0,3600.0 C 3940.0,3591.0 3969.0,3580.0 3997.0,3558.0 C 4027.0,3535.0 4041.0,3530.0 4065.0,3534.0 C 4084.0,3538.0 4090.0,3537.0 4081.0,3531.0 C 4062.0,3519.0 4076.0,3501.0 4117.0,3484.0 C 4135.0,3476.0 4154.0,3462.0 4157.0,3452.0 C 4160.0,3443.0 4177.0,3422.0 4194.0,3405.0 L 4225.0,3375.0 L 4194.0,3372.0 C 4163.0,3369.0 4163.0,3368.0 4171.0,3332.0 C 4176.0,3312.0 4180.0,3275.0 4180.0,3252.0 C 4180.0,3217.0 4184.0,3207.0 4200.0,3203.0 C 4225.0,3196.0 4227.0,3170.0 4203.0,3170.0 C 4190.0,3169.0 4200.0,3156.0 4233.0,3125.0 C 4263.0,3097.0 4276.0,3080.0 4266.0,3080.0 C 4244.0,3080.0 4246.0,3061.0 4268.0,3054.0 C 4277.0,3051.0 4293.0,3044.0 4303.0,3039.0 C 4313.0,3034.0 4325.0,3032.0 4331.0,3036.0 C 4337.0,3039.0 4352.0,3032.0 4364.0,3021.0 C 4391.0,2995.0 4520.0,2979.0 4520.0,3001.0 C 4520.0,3009.0 4533.0,3011.0 4565.0,3007.0 C 4603.0,3001.0 4611.0,3003.0 4620.0,3021.0 C 4630.0,3038.0 4626.0,3043.0 4586.0,3061.0 C 4560.0,3072.0 4540.0,3082.0 4540.0,3084.0 C 4540.0,3086.0 4558.0,3083.0 4581.0,3077.0 C 4610.0,3070.0 4636.0,3070.0 4671.0,3078.0 C 4709.0,3087.0 4725.0,3087.0 4740.0,3077.0 C 4771.0,3058.0 4764.0,3051.0 4713.0,3048.0 L 4665.0,3045.0 L 4693.0,3026.0 C 4717.0,3010.0 4728.0,3008.0 4759.0,3016.0 C 4779.0,3022.0 4806.0,3023.0 4820.0,3019.0 C 4860.0,3008.0 4990.0,3009.0 4990.0,3020.0 C 4990.0,3026.0 4984.0,3030.0 4978.0,3030.0 C 4971.0,3030.0 4943.0,3041.0 4915.0,3055.0 C 4888.0,3068.0 4852.0,3080.0 4835.0,3080.0 C 4804.0,3080.0 4760.0,3100.0 4789.0,3100.0 C 4797.0,3100.0 4832.0,3112.0 4867.0,3126.0 C 4929.0,3150.0 4934.0,3151.0 5028.0,3140.0 C 5130.0,3128.0 5175.0,3110.0 5103.0,3110.0 C 5079.0,3110.0 5057.0,3104.0 5050.0,3095.0 C 5043.0,3087.0 5030.0,3080.0 5021.0,3080.0 C 5008.0,3079.0 5008.0,3078.0 5024.0,3068.0 C 5034.0,3062.0 5083.0,3057.0 5131.0,3056.0 C 5214.0,3054.0 5222.0,3052.0 5267.0,3020.0 C 5401.0,2925.0 5410.0,2920.0 5462.0,2920.0 C 5503.0,2920.0 5516.0,2916.0 5530.0,2897.0 C 5554.0,2867.0 5639.0,2842.0 5759.0,2831.0 L 5853.0,2822.0 L 5957.0,2714.0 C 6014.0,2654.0 6065.0,2597.0 6071.0,2587.0 C 6077.0,2577.0 6095.0,2564.0 6110.0,2558.0 C 6126.0,2553.0 6142.0,2540.0 6145.0,2529.0 C 6153.0,2505.0 6266.0,2390.0 6283.0,2390.0 C 6290.0,2390.0 6304.0,2376.0 6313.0,2360.0 C 6325.0,2340.0 6339.0,2330.0 6355.0,2330.0 C 6396.0,2330.0 6482.0,2292.0 6533.0,2253.0 C 6560.0,2232.0 6620.0,2180.0 6667.0,2137.0 C 6724.0,2084.0 6757.0,2061.0 6768.0,2064.0 C 6780.0,2068.0 6789.0,2062.0 6795.0,2047.0 C 6801.0,2035.0 6814.0,2023.0 6825.0,2021.0 C 6850.0,2017.0 6860.0,2002.0 6860.0,1969.0 C 6860.0,1933.0 6928.0,1850.0 6957.0,1850.0 C 6969.0,1850.0 6984.0,1841.0 6990.0,1830.0 C 6996.0,1819.0 7010.0,1806.0 7021.0,1799.0 C 7039.0,1790.0 7040.0,1790.0 7031.0,1808.0 C 7021.0,1827.0 7028.0,1830.0 7150.0,1860.0 C 7236.0,1881.0 7280.0,1897.0 7280.0,1906.0 C 7280.0,1954.0 7253.0,2025.0 7211.0,2089.0 L 7162.0,2162.0 L 6994.0,2254.0 L 6825.0,2345.0 L 6804.0,2405.0 L 6783.0,2464.0 L 6714.0,2487.0 L 6645.0,2510.0 L 6592.0,2644.0 L 6539.0,2778.0 L 6560.0,2860.0 C 6572.0,2905.0 6580.0,2943.0 6578.0,2945.0 C 6576.0,2946.0 6549.0,2962.0 6518.0,2979.0 C 6476.0,3003.0 6451.0,3010.0 6418.0,3009.0 C 6369.0,3007.0 6351.0,3016.0 6228.0,3110.0 C 6168.0,3156.0 6115.0,3210.0 6044.0,3298.0 C 5926.0,3444.0 5787.0,3560.0 5682.0,3600.0 L 5616.0,3625.0 L 5587.0,3695.0 C 5563.0,3755.0 5551.0,3770.0 5509.0,3798.0 C 5480.0,3817.0 5447.0,3851.0 5429.0,3880.0 C 5412.0,3907.0 5380.0,3943.0 5357.0,3960.0 C 5334.0,3976.0 5299.0,4016.0 5279.0,4047.0 C 5246.0,4101.0 5238.0,4107.0 5174.0,4130.0 C 5110.0,4154.0 5104.0,4158.0 5091.0,4197.0 C 5077.0,4236.0 5073.0,4239.0 5029.0,4245.0 C 4990.0,4250.0 4975.0,4260.0 4933.0,4303.0 C 4905.0,4332.0 4877.0,4372.0 4870.0,4393.0 C 4863.0,4415.0 4828.0,4465.0 4789.0,4508.0 C 4742.0,4561.0 4720.0,4593.0 4720.0,4611.0 C 4720.0,4625.0 4709.0,4670.0 4695.0,4711.0 C 4671.0,4780.0 4670.0,4789.0 4682.0,4849.0 L 4694.0,4913.0 L 4665.0,4936.0 C 4649.0,4949.0 4623.0,4962.0 4608.0,4966.0 C 4575.0,4973.0 4574.0,4975.0 4599.0,5006.0 C 4618.0,5030.0 4617.0,5030.0 4566.0,5164.0 L 4514.0,5299.0 L 4425.0,5367.0 C 4345.0,5428.0 4329.0,5446.0 4267.0,5547.0 L 4197.0,5659.0 L 4120.0,5653.0 L 4042.0,5647.0 L 3987.0,5691.0 C 3941.0,5727.0 3928.0,5745.0 3911.0,5794.0 L 3891.0,5852.0 L 3937.0,5894.0 L 3984.0,5937.0 L 3945.0,6005.0 C 3883.0,6116.0 3875.0,6203.0 3927.0,6216.0 C 3949.0,6222.0 3951.0,6226.0 3945.0,6264.0 C 3941.0,6286.0 3927.0,6329.0 3914.0,6359.0 L 3890.0,6413.0 L 3914.0,6439.0 C 3952.0,6479.0 3957.0,6504.0 3944.0,6586.0 L 3933.0,6661.0 L 3962.0,6685.0 C 3978.0,6699.0 3997.0,6710.0 4004.0,6710.0 C 4011.0,6710.0 4025.0,6718.0 4034.0,6729.0 C 4049.0,6745.0 4056.0,6746.0 4092.0,6737.0 C 4126.0,6729.0 4134.0,6729.0 4142.0,6743.0 C 4157.0,6770.0 4195.0,6764.0 4206.0,6733.0 L 4215.0,6707.0 L 4248.0,6735.0 C 4280.0,6762.0 4283.0,6762.0 4308.0,6748.0 C 4323.0,6740.0 4347.0,6730.0 4363.0,6726.0 C 4392.0,6719.0 4396.0,6709.0 4380.0,6679.0 C 4372.0,6664.0 4373.0,6660.0 4384.0,6660.0 C 4393.0,6660.0 4414.0,6647.0 4431.0,6632.0 C 4457.0,6609.0 4464.0,6593.0 4471.0,6546.0 C 4481.0,6473.0 4508.0,6440.0 4559.0,6440.0 C 4591.0,6440.0 4603.0,6432.0 4660.0,6370.0 C 4722.0,6302.0 4728.0,6299.0 4788.0,6289.0 C 4822.0,6283.0 4870.0,6281.0 4895.0,6284.0 C 4938.0,6291.0 4939.0,6292.0 4946.0,6336.0 C 4950.0,6362.0 4967.0,6403.0 4985.0,6430.0 C 5007.0,6463.0 5014.0,6482.0 5009.0,6493.0 C 5002.0,6505.0 5014.0,6516.0 5062.0,6542.0 C 5122.0,6575.0 5124.0,6578.0 5147.0,6645.0 C 5176.0,6732.0 5204.0,6763.0 5245.0,6757.0 C 5261.0,6754.0 5292.0,6757.0 5313.0,6763.0 C 5347.0,6772.0 5359.0,6770.0 5430.0,6740.0 C 5492.0,6715.0 5519.0,6709.0 5548.0,6713.0 C 5572.0,6717.0 5612.0,6711.0 5665.0,6696.0 C 5759.0,6668.0 5777.0,6673.0 5782.0,6728.0 C 5785.0,6760.0 5789.0,6765.0 5812.0,6768.0 C 5830.0,6770.0 5840.0,6779.0 5844.0,6796.0 C 5848.0,6809.0 5858.0,6820.0 5867.0,6820.0 C 5876.0,6820.0 5894.0,6830.0 5907.0,6841.0 C 5925.0,6859.0 5932.0,6861.0 5944.0,6851.0 C 5955.0,6842.0 5957.0,6832.0 5949.0,6814.0 C 5933.0,6771.0 5938.0,6760.0 5970.0,6760.0 C 5994.0,6760.0 6000.0,6764.0 6000.0,6783.0 C 6000.0,6804.0 6001.0,6804.0 6018.0,6778.0 C 6035.0,6752.0 6037.0,6751.0 6054.0,6768.0 C 6071.0,6784.0 6072.0,6784.0 6066.0,6763.0 C 6060.0,6744.0 6063.0,6741.0 6087.0,6743.0 C 6109.0,6745.0 6116.0,6740.0 6118.0,6724.0 C 6120.0,6708.0 6148.0,6691.0 6233.0,6651.0 C 6335.0,6604.0 6351.0,6600.0 6417.0,6600.0 L 6490.0,6600.0 L 6508.0,6636.0 C 6520.0,6659.0 6530.0,6669.0 6534.0,6661.0 C 6538.0,6655.0 6550.0,6650.0 6561.0,6650.0 C 6571.0,6650.0 6580.0,6643.0 6580.0,6635.0 C 6580.0,6627.0 6587.0,6620.0 6595.0,6620.0 C 6603.0,6620.0 6610.0,6616.0 6610.0,6610.0 C 6610.0,6577.0 6769.0,6554.0 6799.0,6583.0 C 6809.0,6593.0 6815.0,6591.0 6830.0,6573.0 C 6840.0,6560.0 6855.0,6550.0 6864.0,6550.0 C 6873.0,6550.0 6880.0,6542.0 6880.0,6531.0 C 6880.0,6506.0 6957.0,6496.0 6970.0,6519.0 C 6977.0,6533.0 6981.0,6533.0 6997.0,6517.0 C 7010.0,6506.0 7019.0,6503.0 7027.0,6511.0 C 7034.0,6518.0 7045.0,6517.0 7062.0,6510.0 C 7083.0,6500.0 7095.0,6502.0 7138.0,6524.0 C 7166.0,6538.0 7193.0,6550.0 7198.0,6550.0 C 7203.0,6550.0 7271.0,6510.0 7349.0,6460.0 C 7427.0,6411.0 7495.0,6370.0 7501.0,6370.0 C 7506.0,6370.0 7544.0,6389.0 7585.0,6412.0 C 7651.0,6449.0 7660.0,6457.0 7660.0,6482.0 C 7660.0,6505.0 7664.0,6510.0 7684.0,6510.0 C 7701.0,6510.0 7711.0,6519.0 7720.0,6541.0 C 7738.0,6584.0 7769.0,6594.0 7799.0,6566.0 C 7816.0,6551.0 7824.0,6549.0 7827.0,6558.0 C 7833.0,6575.0 7875.0,6573.0 7890.0,6555.0 C 7897.0,6547.0 7900.0,6533.0 7896.0,6525.0 C 7892.0,6515.0 7903.0,6498.0 7926.0,6478.0 C 7959.0,6449.0 7966.0,6447.0 8033.0,6449.0 C 8113.0,6451.0 8135.0,6466.0 8125.0,6510.0 C 8120.0,6534.0 8124.0,6537.0 8170.0,6554.0 C 8198.0,6564.0 8222.0,6571.0 8224.0,6569.0 C 8226.0,6567.0 8232.0,6556.0 8237.0,6546.0 C 8251.0,6520.0 8327.0,6501.0 8416.0,6500.0 L 8488.0,6500.0 L 8524.0,6456.0 C 8554.0,6419.0 8568.0,6410.0 8605.0,6404.0 C 8630.0,6401.0 8653.0,6394.0 8656.0,6389.0 C 8666.0,6373.0 8680.0,6379.0 8692.0,6405.0 C 8700.0,6424.0 8700.0,6433.0 8690.0,6445.0 C 8674.0,6464.0 8690.0,6465.0 8716.0,6445.0 C 8740.0,6427.0 8750.0,6426.0 8750.0,6443.0 C 8750.0,6451.0 8764.0,6455.0 8790.0,6455.0 C 8832.0,6455.0 8837.0,6451.0 8818.0,6432.0 C 8809.0,6423.0 8815.0,6417.0 8843.0,6405.0 C 8890.0,6385.0 8890.0,6385.0 8890.0,6419.0 C 8890.0,6460.0 8914.0,6477.0 8928.0,6446.0 C 8934.0,6433.0 8936.0,6413.0 8934.0,6403.0 C 8930.0,6389.0 8941.0,6373.0 8975.0,6345.0 C 9014.0,6313.0 9021.0,6303.0 9015.0,6282.0 C 9009.0,6258.0 9009.0,6258.0 9065.0,6265.0 L 9120.0,6271.0 L 9120.0,6225.0 C 9120.0,6200.0 9124.0,6171.0 9129.0,6161.0 C 9137.0,6147.0 9134.0,6145.0 9106.0,6148.0 C 9074.0,6152.0 9074.0,6152.0 9078.0,6110.0 C 9082.0,6073.0 9086.0,6067.0 9130.0,6045.0 C 9156.0,6032.0 9184.0,6010.0 9194.0,5996.0 C 9210.0,5970.0 9213.0,5970.0 9330.0,5970.0 L 9449.0,5970.0 L 9456.0,6021.0 C 9464.0,6084.0 9488.0,6097.0 9565.0,6082.0 C 9613.0,6072.0 9616.0,6073.0 9651.0,6105.0 C 9671.0,6123.0 9702.0,6141.0 9720.0,6145.0 C 9750.0,6152.0 9752.0,6154.0 9745.0,6188.0 C 9735.0,6239.0 9735.0,6240.0 9679.0,6240.0 C 9624.0,6240.0 9626.0,6232.0 9652.0,6333.0 C 9657.0,6354.0 9658.0,6380.0 9655.0,6390.0 C 9652.0,6401.0 9654.0,6418.0 9660.0,6430.0 C 9669.0,6446.0 9666.0,6457.0 9645.0,6487.0 C 9602.0,6552.0 9611.0,6574.0 9674.0,6555.0 L 9717.0,6542.0 L 9758.0,6594.0 C 9796.0,6643.0 9798.0,6648.0 9782.0,6663.0 C 9770.0,6676.0 9769.0,6683.0 9777.0,6691.0 C 9786.0,6700.0 9809.0,6698.0 9870.0,6682.0 C 9950.0,6662.0 9950.0,6662.0 9961.0,6682.0 C 9970.0,6699.0 9978.0,6701.0 10008.0,6695.0 C 10029.0,6691.0 10056.0,6678.0 10070.0,6664.0 C 10084.0,6651.0 10110.0,6637.0 10128.0,6634.0 C 10169.0,6626.0 10230.0,6637.0 10236.0,6655.0 C 10239.0,6662.0 10232.0,6690.0 10220.0,6717.0 L 10199.0,6767.0 L 10072.0,6786.0 L 9945.0,6806.0 L 9939.0,6835.0 C 9936.0,6855.0 9929.0,6864.0 9919.0,6861.0 C 9853.0,6845.0 9792.0,6851.0 9731.0,6878.0 C 9673.0,6903.0 9665.0,6911.0 9653.0,6947.0 C 9640.0,6986.0 9637.0,6988.0 9577.0,7000.0 C 9493.0,7017.0 9440.0,7051.0 9440.0,7089.0 C 9440.0,7114.0 9445.0,7119.0 9490.0,7131.0 L 9540.0,7145.0 L 9510.0,7192.0 C 9490.0,7224.0 9480.0,7253.0 9480.0,7279.0 C 9480.0,7316.0 9482.0,7318.0 9518.0,7324.0 C 9538.0,7327.0 9572.0,7330.0 9592.0,7330.0 C 9619.0,7330.0 9633.0,7336.0 9645.0,7352.0 C 9659.0,7373.0 9659.0,7376.0 9638.0,7392.0 C 9625.0,7402.0 9598.0,7415.0 9578.0,7420.0 C 9558.0,7426.0 9538.0,7435.0 9534.0,7441.0 C 9528.0,7452.0 9428.0,7446.0 9394.0,7433.0 C 9385.0,7430.0 9380.0,7435.0 9380.0,7448.0 C 9380.0,7484.0 9369.0,7500.0 9344.0,7500.0 C 9312.0,7500.0 9313.0,7525.0 9345.0,7546.0 C 9368.0,7561.0 9369.0,7563.0 9352.0,7587.0 C 9336.0,7613.0 9336.0,7613.0 9363.0,7608.0 C 9386.0,7604.0 9390.0,7606.0 9390.0,7625.0 C 9390.0,7637.0 9399.0,7655.0 9410.0,7665.0 C 9440.0,7692.0 9434.0,7715.0 9390.0,7752.0 L 9349.0,7784.0 L 9387.0,7807.0 C 9452.0,7846.0 9470.0,7885.0 9420.0,7878.0 C 9403.0,7875.0 9387.0,7877.0 9384.0,7882.0 C 9381.0,7886.0 9363.0,7890.0 9343.0,7890.0 C 9304.0,7890.0 9236.0,7926.0 9246.0,7942.0 C 9250.0,7948.0 9270.0,7949.0 9294.0,7946.0 C 9336.0,7939.0 9337.0,7940.0 9347.0,7975.0 C 9356.0,8004.0 9355.0,8014.0 9341.0,8031.0 C 9325.0,8051.0 9324.0,8051.0 9287.0,8034.0 C 9238.0,8010.0 9225.0,8023.0 9239.0,8077.0 C 9248.0,8110.0 9255.0,8119.0 9280.0,8124.0 C 9313.0,8130.0 9317.0,8145.0 9295.0,8174.0 C 9275.0,8200.0 9276.0,8207.0 9300.0,8215.0 C 9322.0,8222.0 9328.0,8260.0 9308.0,8260.0 C 9301.0,8259.0 9284.0,8253.0 9270.0,8245.0 C 9256.0,8237.0 9232.0,8231.0 9215.0,8230.0 C 9195.0,8230.0 9179.0,8221.0 9164.0,8203.0 L 9142.0,8176.0 L 9039.0,8208.0 C 8952.0,8236.0 8934.0,8239.0 8925.0,8227.0 C 8820.0,8084.0 8750.0,8005.0 8709.0,7984.0 C 8681.0,7970.0 8654.0,7963.0 8641.0,7967.0 C 8623.0,7971.0 8608.0,7962.0 8570.0,7925.0 C 8518.0,7874.0 8497.0,7870.0 8423.0,7901.0 C 8395.0,7912.0 8389.0,7912.0 8373.0,7898.0 C 8350.0,7877.0 8281.0,7887.0 8190.0,7924.0 C 8113.0,7956.0 7979.0,7967.0 7959.0,7944.0 C 7940.0,7921.0 7874.0,7927.0 7830.0,7955.0 C 7795.0,7977.0 7779.0,7980.0 7696.0,7980.0 C 7617.0,7980.0 7595.0,7976.0 7565.0,7959.0 C 7545.0,7947.0 7528.0,7939.0 7526.0,7941.0 C 7525.0,7943.0 7513.0,7960.0 7500.0,7978.0 C 7480.0,8008.0 7473.0,8011.0 7447.0,8006.0 C 7424.0,8001.0 7386.0,8012.0 7298.0,8046.0 L 7181.0,8091.0 L 7163.0,8147.0 C 7137.0,8230.0 7089.0,8261.0 6946.0,8290.0 C 6885.0,8302.0 6825.0,8314.0 6813.0,8317.0 C 6795.0,8321.0 6788.0,8316.0 6780.0,8295.0 C 6769.0,8267.0 6764.0,8267.0 6691.0,8298.0 L 6655.0,8313.0 L 6690.0,8325.0 C 6723.0,8336.0 6724.0,8337.0 6702.0,8344.0 C 6686.0,8350.0 6681.0,8357.0 6685.0,8370.0 C 6693.0,8396.0 6632.0,8410.0 6615.0,8386.0 C 6598.0,8364.0 6595.0,8365.0 6571.0,8405.0 C 6557.0,8429.0 6543.0,8440.0 6528.0,8440.0 C 6506.0,8440.0 6506.0,8441.0 6535.0,8464.0 L 6565.0,8488.0 L 6528.0,8495.0 C 6497.0,8501.0 6490.0,8506.0 6490.0,8526.0 C 6490.0,8544.0 6485.0,8550.0 6468.0,8550.0 C 6447.0,8550.0 6447.0,8550.0 6466.0,8571.0 C 6484.0,8592.0 6484.0,8592.0 6457.0,8612.0 C 6442.0,8623.0 6430.0,8638.0 6430.0,8645.0 C 6430.0,8652.0 6414.0,8664.0 6395.0,8670.0 C 6363.0,8680.0 6360.0,8685.0 6360.0,8718.0 L 6360.0,8755.0 L 6174.0,8835.0 C 5990.0,8914.0 5988.0,8916.0 5929.0,8982.0 C 5882.0,9035.0 5870.0,9055.0 5870.0,9082.0 C 5870.0,9127.0 5820.0,9202.0 5772.0,9230.0 C 5740.0,9249.0 5729.0,9251.0 5692.0,9242.0 C 5657.0,9234.0 5647.0,9235.0 5643.0,9246.0 C 5640.0,9254.0 5624.0,9260.0 5605.0,9260.0 C 5575.0,9260.0 5570.0,9265.0 5551.0,9310.0 C 5536.0,9344.0 5522.0,9362.0 5506.0,9366.0 C 5489.0,9370.0 5484.0,9377.0 5487.0,9394.0 C 5491.0,9413.0 5484.0,9420.0 5442.0,9438.0 C 5382.0,9464.0 5377.0,9464.0 5342.0,9446.0 C 5318.0,9433.0 5309.0,9434.0 5258.0,9455.0 C 5227.0,9468.0 5189.0,9492.0 5173.0,9509.0 C 5150.0,9535.0 5132.0,9543.0 5073.0,9554.0 L 5000.0,9568.0 L 4976.0,9515.0" fill="pink"/>
	<path d="M 1399.0,6608.0 C 1387.0,6584.0 1371.0,6561.0 1364.0,6555.0 C 1348.0,6543.0 1357.0,6491.0 1376.0,6483.0 C 1384.0,6480.0 1390.0,6470.0 1390.0,6460.0 C 1390.0,6440.0 1412.0,6419.0 1458.0,6396.0 C 1489.0,6380.0 1491.0,6376.0 1489.0,6330.0 C 1487.0,6286.0 1490.0,6277.0 1525.0,6238.0 C 1546.0,6214.0 1572.0,6192.0 1582.0,6188.0 C 1592.0,6184.0 1600.0,6176.0 1600.0,6170.0 C 1600.0,6164.0 1593.0,6164.0 1580.0,6172.0 C 1565.0,6182.0 1558.0,6182.0 1548.0,6172.0 C 1538.0,6162.0 1539.0,6153.0 1553.0,6128.0 C 1569.0,6100.0 1569.0,6095.0 1556.0,6082.0 C 1534.0,6060.0 1485.0,6083.0 1450.0,6132.0 C 1420.0,6174.0 1415.0,6172.0 1394.0,6114.0 C 1385.0,6088.0 1386.0,6081.0 1400.0,6072.0 C 1410.0,6066.0 1420.0,6049.0 1423.0,6033.0 C 1438.0,5957.0 1442.0,5942.0 1452.0,5907.0 C 1459.0,5884.0 1468.0,5871.0 1476.0,5874.0 C 1496.0,5882.0 1507.0,5860.0 1513.0,5800.0 C 1517.0,5769.0 1526.0,5740.0 1535.0,5734.0 C 1545.0,5726.0 1550.0,5706.0 1550.0,5671.0 C 1550.0,5621.0 1549.0,5619.0 1528.0,5625.0 C 1515.0,5629.0 1501.0,5636.0 1496.0,5641.0 C 1474.0,5661.0 1460.0,5649.0 1460.0,5611.0 C 1460.0,5550.0 1471.0,5512.0 1495.0,5488.0 C 1532.0,5450.0 1542.0,5424.0 1525.0,5410.0 C 1503.0,5392.0 1506.0,5343.0 1529.0,5330.0 C 1558.0,5315.0 1580.0,5318.0 1580.0,5338.0 C 1581.0,5361.0 1630.0,5302.0 1630.0,5278.0 C 1630.0,5269.0 1642.0,5252.0 1658.0,5241.0 C 1690.0,5216.0 1698.0,5209.0 1729.0,5176.0 C 1756.0,5146.0 1810.0,5139.0 1810.0,5166.0 C 1810.0,5183.0 1735.0,5260.0 1719.0,5260.0 C 1700.0,5260.0 1627.0,5344.0 1606.0,5389.0 C 1594.0,5414.0 1580.0,5442.0 1575.0,5450.0 C 1570.0,5458.0 1565.0,5494.0 1564.0,5529.0 L 1562.0,5593.0 L 1599.0,5554.0 C 1620.0,5533.0 1640.0,5506.0 1644.0,5494.0 C 1650.0,5475.0 1721.0,5420.0 1741.0,5420.0 C 1746.0,5420.0 1750.0,5427.0 1750.0,5435.0 C 1750.0,5443.0 1766.0,5456.0 1785.0,5464.0 C 1836.0,5486.0 1828.0,5508.0 1773.0,5501.0 C 1765.0,5500.0 1760.0,5512.0 1760.0,5533.0 C 1760.0,5554.0 1754.0,5570.0 1746.0,5573.0 C 1738.0,5576.0 1720.0,5599.0 1705.0,5624.0 C 1681.0,5664.0 1679.0,5674.0 1689.0,5702.0 C 1704.0,5746.0 1703.0,5752.0 1674.0,5795.0 C 1657.0,5821.0 1654.0,5831.0 1664.0,5827.0 C 1682.0,5820.0 1684.0,5826.0 1680.0,5890.0 C 1679.0,5915.0 1671.0,5946.0 1663.0,5959.0 C 1653.0,5975.0 1650.0,5994.0 1654.0,6019.0 C 1658.0,6039.0 1663.0,6071.0 1666.0,6090.0 C 1676.0,6157.0 1680.0,6170.0 1695.0,6170.0 C 1711.0,6170.0 1715.0,6206.0 1702.0,6228.0 C 1697.0,6235.0 1679.0,6239.0 1660.0,6238.0 C 1624.0,6235.0 1627.0,6230.0 1535.0,6418.0 C 1502.0,6485.0 1500.0,6494.0 1506.0,6554.0 C 1512.0,6613.0 1511.0,6618.0 1489.0,6634.0 C 1448.0,6662.0 1423.0,6655.0 1399.0,6608.0" fill="pink"/>
	<path d="M 2164.0,6023.0 C 2161.0,6010.0 2153.0,6000.0 2148.0,6000.0 C 2142.0,6000.0 2143.0,5993.0 2150.0,5985.0 C 2157.0,5977.0 2176.0,5970.0 2192.0,5970.0 C 2223.0,5970.0 2222.0,5979.0 2186.0,6025.0 C 2170.0,6045.0 2170.0,6045.0 2164.0,6023.0" fill="pink"/>
	<path d="M 2121.0,5942.0 C 2114.0,5928.0 2103.0,5924.0 2078.0,5928.0 L 2045.0,5932.0 L 2083.0,5895.0 C 2123.0,5855.0 2128.0,5848.0 2105.0,5856.0 C 2095.0,5860.0 2090.0,5856.0 2090.0,5846.0 C 2090.0,5834.0 2084.0,5831.0 2065.0,5836.0 C 2051.0,5839.0 2033.0,5839.0 2023.0,5836.0 C 2009.0,5830.0 2012.0,5824.0 2041.0,5794.0 C 2071.0,5763.0 2080.0,5759.0 2120.0,5761.0 C 2175.0,5764.0 2196.0,5753.0 2257.0,5692.0 C 2311.0,5638.0 2365.0,5612.0 2374.0,5635.0 C 2383.0,5660.0 2312.0,5755.0 2240.0,5814.0 C 2168.0,5873.0 2159.0,5888.0 2185.0,5910.0 C 2199.0,5922.0 2199.0,5925.0 2184.0,5941.0 C 2162.0,5965.0 2134.0,5965.0 2121.0,5942.0" fill="pink"/>
	<path d="M 2281.0,5949.0 L 2256.0,5939.0 L 2279.0,5924.0 C 2296.0,5912.0 2304.0,5911.0 2315.0,5920.0 C 2323.0,5926.0 2326.0,5938.0 2323.0,5946.0 C 2317.0,5962.0 2314.0,5962.0 2281.0,5949.0" fill="pink"/>
	<path d="M 1412.0,5818.0 C 1398.0,5804.0 1396.0,5770.0 1409.0,5770.0 C 1418.0,5770.0 1434.0,5819.0 1427.0,5826.0 C 1425.0,5828.0 1418.0,5824.0 1412.0,5818.0" fill="pink"/>
	<path d="M 2140.0,5617.0 C 2140.0,5610.0 2156.0,5585.0 2175.0,5563.0 C 2194.0,5540.0 2210.0,5517.0 2210.0,5511.0 C 2210.0,5496.0 2329.0,5366.0 2346.0,5362.0 C 2354.0,5360.0 2360.0,5352.0 2360.0,5344.0 C 2360.0,5325.0 2386.0,5283.0 2424.0,5242.0 C 2449.0,5215.0 2452.0,5206.0 2443.0,5191.0 C 2434.0,5176.0 2437.0,5169.0 2465.0,5147.0 C 2484.0,5132.0 2506.0,5120.0 2515.0,5120.0 C 2557.0,5120.0 2650.0,5024.0 2650.0,4980.0 C 2650.0,4959.0 2709.0,4943.0 2721.0,4962.0 C 2726.0,4970.0 2735.0,4969.0 2754.0,4956.0 C 2785.0,4936.0 2785.0,4935.0 2759.0,4909.0 C 2742.0,4892.0 2741.0,4886.0 2752.0,4873.0 C 2759.0,4864.0 2765.0,4852.0 2765.0,4845.0 C 2765.0,4825.0 2866.0,4740.0 2889.0,4740.0 C 2918.0,4740.0 2906.0,4765.0 2861.0,4795.0 C 2819.0,4824.0 2822.0,4825.0 2880.0,4805.0 C 2929.0,4788.0 2959.0,4786.0 2980.0,4800.0 C 2993.0,4809.0 2991.0,4813.0 2970.0,4829.0 C 2956.0,4840.0 2949.0,4852.0 2953.0,4856.0 C 2957.0,4860.0 2968.0,4856.0 2978.0,4847.0 C 3002.0,4825.0 3030.0,4825.0 3030.0,4846.0 C 3030.0,4868.0 2965.0,4928.0 2935.0,4936.0 C 2921.0,4939.0 2908.0,4951.0 2905.0,4961.0 C 2901.0,4972.0 2884.0,4987.0 2867.0,4996.0 C 2849.0,5005.0 2821.0,5027.0 2803.0,5044.0 C 2716.0,5129.0 2662.0,5162.0 2675.0,5120.0 C 2678.0,5109.0 2678.0,5100.0 2673.0,5100.0 C 2660.0,5101.0 2606.0,5152.0 2576.0,5193.0 C 2560.0,5213.0 2543.0,5230.0 2536.0,5230.0 C 2521.0,5231.0 2452.0,5290.0 2467.0,5290.0 C 2473.0,5290.0 2482.0,5284.0 2489.0,5277.0 C 2495.0,5269.0 2524.0,5251.0 2555.0,5236.0 C 2585.0,5220.0 2610.0,5204.0 2610.0,5200.0 C 2610.0,5195.0 2637.0,5183.0 2671.0,5171.0 L 2732.0,5151.0 L 2715.0,5178.0 C 2684.0,5227.0 2659.0,5248.0 2626.0,5254.0 C 2593.0,5260.0 2568.0,5287.0 2537.0,5347.0 C 2516.0,5387.0 2470.0,5420.0 2424.0,5427.0 C 2388.0,5433.0 2387.0,5432.0 2392.0,5406.0 L 2397.0,5379.0 L 2373.0,5402.0 C 2287.0,5482.0 2260.0,5511.0 2260.0,5520.0 C 2260.0,5534.0 2166.0,5630.0 2152.0,5630.0 C 2145.0,5630.0 2140.0,5624.0 2140.0,5617.0" fill="pink"/>
	<path d="M 1317.0,5572.0 C 1303.0,5556.0 1290.0,5528.0 1287.0,5504.0 C 1283.0,5467.0 1285.0,5462.0 1314.0,5442.0 C 1332.0,5430.0 1349.0,5420.0 1353.0,5420.0 C 1367.0,5420.0 1359.0,5448.0 1340.0,5465.0 C 1315.0,5487.0 1314.0,5528.0 1338.0,5537.0 C 1370.0,5549.0 1381.0,5584.0 1356.0,5593.0 C 1349.0,5596.0 1331.0,5586.0 1317.0,5572.0" fill="pink"/>
	<path d="M 1360.0,5232.0 C 1360.0,5215.0 1389.0,5198.0 1407.0,5204.0 C 1416.0,5208.0 1420.0,5214.0 1414.0,5219.0 C 1399.0,5233.0 1360.0,5242.0 1360.0,5232.0" fill="pink"/>
	<path d="M 2195.0,4980.0 C 2200.0,4952.0 2198.0,4934.0 2189.0,4923.0 C 2177.0,4910.0 2180.0,4904.0 2205.0,4884.0 C 2244.0,4853.0 2290.0,4852.0 2290.0,4881.0 C 2290.0,4892.0 2283.0,4908.0 2275.0,4916.0 C 2266.0,4926.0 2263.0,4941.0 2267.0,4960.0 C 2274.0,4998.0 2256.0,5020.0 2218.0,5020.0 C 2189.0,5020.0 2188.0,5019.0 2195.0,4980.0" fill="pink"/>
	<path d="M 2017.0,4986.0 C 2014.0,4978.0 2021.0,4960.0 2033.0,4946.0 C 2045.0,4933.0 2063.0,4910.0 2073.0,4896.0 C 2083.0,4882.0 2097.0,4870.0 2105.0,4870.0 C 2125.0,4870.0 2124.0,4899.0 2105.0,4906.0 C 2097.0,4910.0 2090.0,4924.0 2090.0,4940.0 C 2090.0,4956.0 2087.0,4975.0 2084.0,4984.0 C 2076.0,5004.0 2024.0,5005.0 2017.0,4986.0" fill="pink"/>
	<path d="M 1880.0,4876.0 C 1880.0,4860.0 1926.0,4822.0 1977.0,4796.0 C 2026.0,4772.0 2035.0,4777.0 2002.0,4810.0 C 1985.0,4827.0 1968.0,4840.0 1964.0,4840.0 C 1960.0,4840.0 1942.0,4851.0 1924.0,4865.0 C 1886.0,4894.0 1880.0,4895.0 1880.0,4876.0" fill="pink"/>
	<path d="M 2060.0,4742.0 C 2060.0,4728.0 2083.0,4710.0 2102.0,4710.0 C 2126.0,4710.0 2125.0,4727.0 2101.0,4740.0 C 2078.0,4752.0 2060.0,4753.0 2060.0,4742.0" fill="pink"/>
	<path d="M 2163.0,4735.0 C 2145.0,4716.0 2147.0,4706.0 2170.0,4685.0 C 2181.0,4675.0 2190.0,4672.0 2190.0,4678.0 C 2190.0,4685.0 2204.0,4690.0 2220.0,4690.0 C 2241.0,4690.0 2250.0,4685.0 2250.0,4673.0 C 2250.0,4645.0 2302.0,4550.0 2317.0,4550.0 C 2330.0,4550.0 2330.0,4554.0 2315.0,4576.0 C 2297.0,4605.0 2300.0,4619.0 2320.0,4595.0 C 2327.0,4587.0 2338.0,4580.0 2345.0,4580.0 C 2352.0,4580.0 2363.0,4573.0 2371.0,4564.0 C 2384.0,4548.0 2425.0,4552.0 2445.0,4571.0 C 2457.0,4584.0 2422.0,4613.0 2403.0,4606.0 C 2382.0,4598.0 2310.0,4642.0 2277.0,4684.0 C 2260.0,4705.0 2232.0,4729.0 2213.0,4736.0 C 2174.0,4753.0 2178.0,4753.0 2163.0,4735.0" fill="pink"/>
	<path d="M 2500.0,4534.0 C 2500.0,4505.0 2623.0,4390.0 2655.0,4390.0 C 2658.0,4390.0 2660.0,4396.0 2660.0,4403.0 C 2660.0,4418.0 2565.0,4520.0 2551.0,4520.0 C 2546.0,4520.0 2537.0,4527.0 2530.0,4535.0 C 2514.0,4554.0 2500.0,4554.0 2500.0,4534.0" fill="pink"/>
	<path d="M 2350.0,4489.0 C 2350.0,4482.0 2359.0,4466.0 2371.0,4454.0 L 2391.0,4433.0 L 2363.0,4432.0 C 2348.0,4432.0 2325.0,4438.0 2313.0,4446.0 C 2300.0,4454.0 2290.0,4457.0 2290.0,4452.0 C 2290.0,4437.0 2372.0,4389.0 2387.0,4395.0 C 2412.0,4404.0 2585.0,4235.0 2652.0,4135.0 C 2719.0,4037.0 2834.0,3912.0 2905.0,3861.0 C 2947.0,3831.0 2950.0,3830.0 2950.0,3849.0 C 2950.0,3863.0 2944.0,3870.0 2932.0,3870.0 C 2922.0,3870.0 2903.0,3881.0 2890.0,3895.0 L 2867.0,3920.0 L 2889.0,3920.0 C 2901.0,3920.0 2926.0,3909.0 2944.0,3895.0 C 2962.0,3881.0 2979.0,3870.0 2982.0,3870.0 C 2985.0,3870.0 2987.0,3883.0 2988.0,3900.0 C 2988.0,3920.0 2983.0,3931.0 2971.0,3935.0 C 2961.0,3938.0 2927.0,3963.0 2896.0,3990.0 C 2864.0,4018.0 2835.0,4040.0 2830.0,4040.0 C 2826.0,4040.0 2813.0,4055.0 2802.0,4074.0 C 2789.0,4096.0 2769.0,4112.0 2746.0,4120.0 C 2709.0,4132.0 2660.0,4197.0 2646.0,4253.0 C 2643.0,4268.0 2635.0,4280.0 2630.0,4280.0 C 2624.0,4280.0 2620.0,4287.0 2620.0,4295.0 C 2620.0,4304.0 2614.0,4310.0 2608.0,4308.0 C 2587.0,4304.0 2517.0,4342.0 2513.0,4361.0 C 2510.0,4371.0 2495.0,4384.0 2479.0,4390.0 C 2463.0,4397.0 2450.0,4408.0 2450.0,4415.0 C 2450.0,4421.0 2433.0,4440.0 2413.0,4456.0 C 2360.0,4498.0 2350.0,4503.0 2350.0,4489.0 M 2860.0,3950.0 C 2869.0,3934.0 2868.0,3932.0 2855.0,3936.0 C 2847.0,3940.0 2840.0,3948.0 2840.0,3956.0 C 2840.0,3976.0 2847.0,3973.0 2860.0,3950.0" fill="pink"/>
	<path d="M 2420.0,4479.0 C 2420.0,4474.0 2427.0,4470.0 2435.0,4470.0 C 2442.0,4470.0 2453.0,4464.0 2457.0,4456.0 C 2466.0,4441.0 2510.0,4424.0 2510.0,4437.0 C 2510.0,4455.0 2493.0,4468.0 2458.0,4478.0 C 2435.0,4484.0 2420.0,4485.0 2420.0,4479.0" fill="pink"/>
	<path d="M 2630.0,4476.0 C 2630.0,4456.0 2675.0,4426.0 2694.0,4433.0 C 2703.0,4437.0 2713.0,4428.0 2721.0,4409.0 C 2727.0,4392.0 2744.0,4371.0 2758.0,4362.0 C 2771.0,4353.0 2815.0,4313.0 2855.0,4272.0 C 2914.0,4211.0 2933.0,4198.0 2951.0,4203.0 C 2974.0,4209.0 2989.0,4197.0 3061.0,4109.0 C 3127.0,4029.0 3230.0,3930.0 3248.0,3930.0 C 3257.0,3930.0 3276.0,3921.0 3290.0,3910.0 C 3304.0,3899.0 3330.0,3890.0 3348.0,3890.0 C 3394.0,3890.0 3387.0,3915.0 3330.0,3955.0 C 3305.0,3972.0 3279.0,4000.0 3271.0,4018.0 C 3263.0,4035.0 3247.0,4053.0 3236.0,4056.0 C 3224.0,4059.0 3199.0,4074.0 3180.0,4089.0 C 3161.0,4104.0 3125.0,4129.0 3101.0,4144.0 C 3044.0,4180.0 2944.0,4278.0 2932.0,4310.0 C 2925.0,4327.0 2909.0,4339.0 2882.0,4347.0 C 2859.0,4354.0 2829.0,4371.0 2813.0,4386.0 C 2737.0,4456.0 2701.0,4478.0 2690.0,4461.0 C 2685.0,4452.0 2680.0,4451.0 2676.0,4459.0 C 2672.0,4465.0 2660.0,4475.0 2649.0,4480.0 C 2634.0,4488.0 2630.0,4487.0 2630.0,4476.0" fill="pink"/>
	<path d="M 2725.0,4273.0 C 2736.0,4226.0 2870.0,4108.0 2870.0,4145.0 C 2870.0,4169.0 2858.0,4190.0 2845.0,4190.0 C 2838.0,4190.0 2811.0,4215.0 2785.0,4245.0 C 2733.0,4306.0 2714.0,4315.0 2725.0,4273.0" fill="pink"/>
	<path d="M 3040.0,3881.0 C 3040.0,3876.0 3050.0,3868.0 3063.0,3865.0 C 3075.0,3861.0 3103.0,3841.0 3125.0,3820.0 C 3204.0,3746.0 3250.0,3727.0 3202.0,3788.0 C 3186.0,3808.0 3170.0,3837.0 3167.0,3851.0 C 3161.0,3873.0 3156.0,3876.0 3130.0,3872.0 C 3112.0,3869.0 3100.0,3872.0 3100.0,3879.0 C 3100.0,3885.0 3087.0,3890.0 3070.0,3890.0 C 3054.0,3890.0 3040.0,3886.0 3040.0,3881.0" fill="pink"/>
	<path d="M 3005.0,3816.0 C 3026.0,3778.0 3028.0,3770.0 3014.0,3770.0 C 3006.0,3770.0 3000.0,3764.0 3002.0,3758.0 C 3005.0,3750.0 3025.0,3745.0 3049.0,3744.0 C 3085.0,3743.0 3097.0,3737.0 3125.0,3707.0 C 3144.0,3686.0 3164.0,3670.0 3170.0,3670.0 C 3175.0,3670.0 3220.0,3648.0 3268.0,3620.0 C 3316.0,3593.0 3361.0,3570.0 3368.0,3570.0 C 3397.0,3570.0 3375.0,3588.0 3310.0,3620.0 C 3261.0,3644.0 3233.0,3665.0 3216.0,3691.0 C 3199.0,3715.0 3167.0,3741.0 3120.0,3767.0 C 3059.0,3799.0 3049.0,3808.0 3053.0,3827.0 C 3056.0,3843.0 3052.0,3850.0 3041.0,3850.0 C 3032.0,3850.0 3015.0,3853.0 3002.0,3856.0 L 2979.0,3863.0 L 3005.0,3816.0" fill="pink"/>
	<path d="M 3570.0,3775.0 C 3570.0,3759.0 3622.0,3691.0 3639.0,3685.0 C 3649.0,3682.0 3663.0,3666.0 3670.0,3650.0 C 3680.0,3626.0 3689.0,3620.0 3711.0,3620.0 C 3727.0,3620.0 3740.0,3623.0 3740.0,3626.0 C 3740.0,3644.0 3697.0,3698.0 3680.0,3703.0 C 3669.0,3706.0 3655.0,3722.0 3649.0,3739.0 C 3640.0,3763.0 3633.0,3769.0 3620.0,3765.0 C 3610.0,3762.0 3599.0,3764.0 3595.0,3770.0 C 3589.0,3780.0 3570.0,3784.0 3570.0,3775.0" fill="pink"/>
	<path d="M 3950.0,3553.0 C 3950.0,3541.0 3957.0,3530.0 3965.0,3527.0 C 3988.0,3518.0 3991.0,3536.0 3970.0,3555.0 C 3951.0,3572.0 3950.0,3572.0 3950.0,3553.0" fill="pink"/>
	<path d="M 3904.0,3534.0 C 3907.0,3525.0 3910.0,3514.0 3910.0,3509.0 C 3910.0,3504.0 3917.0,3500.0 3925.0,3500.0 C 3943.0,3500.0 3943.0,3505.0 3930.0,3531.0 C 3917.0,3554.0 3895.0,3557.0 3904.0,3534.0" fill="pink"/>
	<path d="M 3784.0,3486.0 C 3798.0,3467.0 3810.0,3444.0 3810.0,3436.0 C 3810.0,3427.0 3819.0,3420.0 3830.0,3420.0 C 3861.0,3420.0 3855.0,3456.0 3818.0,3490.0 C 3772.0,3531.0 3751.0,3529.0 3784.0,3486.0" fill="pink"/>
	<path d="M 3867.0,3486.0 C 3864.0,3478.0 3875.0,3467.0 3896.0,3457.0 C 3942.0,3434.0 3940.0,3464.0 3893.0,3488.0 C 3877.0,3497.0 3871.0,3497.0 3867.0,3486.0" fill="pink"/>
	<path d="M 4027.0,3486.0 C 4010.0,3473.0 4012.0,3470.0 4047.0,3441.0 C 4076.0,3417.0 4086.0,3413.0 4088.0,3424.0 C 4090.0,3433.0 4086.0,3445.0 4080.0,3452.0 C 4074.0,3459.0 4064.0,3473.0 4057.0,3482.0 C 4047.0,3497.0 4042.0,3497.0 4027.0,3486.0" fill="pink"/>
	<path d="M 3740.0,3455.0 C 3764.0,3430.0 3790.0,3422.0 3790.0,3440.0 C 3790.0,3449.0 3739.0,3480.0 3724.0,3480.0 C 3720.0,3480.0 3727.0,3469.0 3740.0,3455.0" fill="pink"/>
	<path d="M 3636.0,3415.0 C 3640.0,3407.0 3650.0,3400.0 3659.0,3400.0 C 3669.0,3400.0 3689.0,3387.0 3705.0,3370.0 C 3732.0,3342.0 3799.0,3321.0 3830.0,3332.0 C 3846.0,3337.0 3741.0,3407.0 3708.0,3414.0 C 3692.0,3417.0 3669.0,3422.0 3655.0,3425.0 C 3636.0,3429.0 3632.0,3427.0 3636.0,3415.0" fill="pink"/>
	<path d="M 4448.0,2952.0 C 4432.0,2950.0 4420.0,2945.0 4420.0,2940.0 C 4420.0,2931.0 4479.0,2921.0 4485.0,2930.0 C 4493.0,2943.0 4474.0,2955.0 4448.0,2952.0" fill="pink"/>
	<path d="M 4536.0,2934.0 C 4504.0,2901.0 4503.0,2890.0 4534.0,2890.0 C 4555.0,2890.0 4619.0,2908.0 4629.0,2916.0 C 4638.0,2924.0 4596.0,2960.0 4580.0,2960.0 C 4570.0,2960.0 4551.0,2948.0 4536.0,2934.0" fill="pink"/>
	<path d="M 4693.0,2863.0 C 4666.0,2858.0 4667.0,2858.0 4681.0,2828.0 C 4691.0,2804.0 4772.0,2767.0 4817.0,2765.0 C 4828.0,2765.0 4852.0,2750.0 4868.0,2732.0 C 4887.0,2712.0 4908.0,2700.0 4924.0,2700.0 C 4939.0,2700.0 4959.0,2694.0 4970.0,2688.0 C 5003.0,2667.0 5016.0,2692.0 4988.0,2723.0 C 4896.0,2826.0 4898.0,2824.0 4882.0,2804.0 C 4868.0,2786.0 4868.0,2786.0 4873.0,2808.0 C 4877.0,2825.0 4874.0,2830.0 4857.0,2830.0 C 4846.0,2830.0 4829.0,2837.0 4820.0,2845.0 C 4802.0,2861.0 4730.0,2871.0 4693.0,2863.0" fill="pink"/>
	<path d="M 5070.0,2807.0 C 5070.0,2799.0 5077.0,2780.0 5085.0,2764.0 C 5098.0,2739.0 5098.0,2734.0 5085.0,2720.0 C 5077.0,2711.0 5073.0,2701.0 5076.0,2697.0 C 5079.0,2694.0 5079.0,2686.0 5075.0,2680.0 C 5070.0,2672.0 5064.0,2672.0 5054.0,2681.0 C 5046.0,2687.0 5036.0,2690.0 5033.0,2686.0 C 5018.0,2672.0 5048.0,2645.0 5094.0,2630.0 C 5120.0,2621.0 5156.0,2600.0 5174.0,2583.0 C 5202.0,2555.0 5219.0,2549.0 5307.0,2534.0 C 5393.0,2520.0 5429.0,2519.0 5566.0,2528.0 C 5759.0,2542.0 5800.0,2548.0 5807.0,2566.0 C 5810.0,2574.0 5817.0,2580.0 5822.0,2580.0 C 5838.0,2580.0 5859.0,2612.0 5860.0,2636.0 C 5860.0,2652.0 5848.0,2664.0 5818.0,2680.0 C 5794.0,2693.0 5766.0,2704.0 5755.0,2705.0 C 5744.0,2706.0 5732.0,2708.0 5728.0,2709.0 C 5723.0,2709.0 5720.0,2716.0 5720.0,2724.0 C 5720.0,2744.0 5625.0,2757.0 5605.0,2740.0 C 5597.0,2733.0 5590.0,2732.0 5590.0,2737.0 C 5590.0,2758.0 5381.0,2795.0 5210.0,2805.0 C 5174.0,2806.0 5128.0,2811.0 5108.0,2815.0 C 5078.0,2821.0 5070.0,2819.0 5070.0,2807.0" fill="pink"/>
	<path d="M 5252.0,2467.0 C 5225.0,2453.0 5229.0,2435.0 5259.0,2436.0 C 5270.0,2436.0 5280.0,2433.0 5280.0,2428.0 C 5280.0,2423.0 5292.0,2408.0 5306.0,2395.0 L 5333.0,2370.0 L 5307.0,2370.0 C 5293.0,2370.0 5280.0,2374.0 5278.0,2378.0 C 5277.0,2382.0 5261.0,2396.0 5244.0,2407.0 C 5216.0,2427.0 5207.0,2428.0 5159.0,2419.0 C 5129.0,2414.0 5072.0,2407.0 5032.0,2403.0 C 4962.0,2398.0 4960.0,2397.0 4976.0,2379.0 C 4985.0,2368.0 4999.0,2360.0 5007.0,2360.0 C 5015.0,2360.0 5038.0,2351.0 5060.0,2340.0 C 5082.0,2329.0 5110.0,2320.0 5124.0,2320.0 C 5137.0,2320.0 5170.0,2309.0 5197.0,2296.0 C 5271.0,2260.0 5448.0,2229.0 5545.0,2236.0 C 5595.0,2240.0 5670.0,2236.0 5745.0,2226.0 C 5886.0,2207.0 6228.0,2204.0 6313.0,2221.0 C 6400.0,2239.0 6371.0,2256.0 6241.0,2264.0 C 6181.0,2268.0 6115.0,2276.0 6094.0,2282.0 C 6040.0,2296.0 5905.0,2308.0 5710.0,2316.0 L 5545.0,2322.0 L 5512.0,2358.0 C 5494.0,2379.0 5475.0,2406.0 5469.0,2419.0 C 5461.0,2440.0 5455.0,2442.0 5420.0,2436.0 C 5393.0,2432.0 5380.0,2434.0 5380.0,2441.0 C 5380.0,2447.0 5374.0,2450.0 5368.0,2447.0 C 5361.0,2444.0 5347.0,2439.0 5338.0,2435.0 C 5326.0,2430.0 5321.0,2435.0 5318.0,2452.0 C 5315.0,2478.0 5288.0,2484.0 5252.0,2467.0" fill="pink"/>
	<path d="M 4917.0,2346.0 C 4914.0,2338.0 4925.0,2326.0 4946.0,2316.0 C 4989.0,2296.0 5020.0,2295.0 5020.0,2315.0 C 5020.0,2323.0 5011.0,2330.0 5000.0,2330.0 C 4988.0,2330.0 4966.0,2337.0 4950.0,2345.0 C 4927.0,2357.0 4921.0,2357.0 4917.0,2346.0" fill="pink"/>
	<path d="M 4475.0,2140.0 C 4411.0,2111.0 4387.0,2057.0 4444.0,2067.0 C 4464.0,2071.0 4470.0,2068.0 4470.0,2054.0 C 4470.0,2045.0 4463.0,2029.0 4454.0,2019.0 C 4426.0,1988.0 4446.0,1977.0 4521.0,1984.0 C 4558.0,1987.0 4601.0,1995.0 4615.0,2000.0 C 4629.0,2006.0 4653.0,2010.0 4668.0,2011.0 C 4687.0,2011.0 4704.0,2023.0 4728.0,2052.0 C 4781.0,2119.0 4769.0,2143.0 4692.0,2120.0 C 4665.0,2113.0 4659.0,2114.0 4663.0,2124.0 C 4667.0,2133.0 4658.0,2140.0 4638.0,2144.0 C 4594.0,2153.0 4498.0,2150.0 4475.0,2140.0" fill="pink"/>
	<path d="M 6064.0,2045.0 C 6076.0,2016.0 6077.0,2010.0 6066.0,2010.0 C 6054.0,2010.0 6035.0,1981.0 6042.0,1975.0 C 6044.0,1974.0 6081.0,1961.0 6125.0,1946.0 C 6192.0,1924.0 6223.0,1920.0 6315.0,1920.0 C 6425.0,1920.0 6425.0,1920.0 6474.0,1885.0 C 6501.0,1866.0 6539.0,1845.0 6559.0,1839.0 C 6579.0,1832.0 6609.0,1816.0 6626.0,1803.0 C 6650.0,1785.0 6670.0,1780.0 6713.0,1780.0 C 6761.0,1780.0 6771.0,1777.0 6789.0,1753.0 C 6801.0,1738.0 6808.0,1719.0 6805.0,1709.0 C 6800.0,1694.0 6828.0,1682.0 7007.0,1624.0 C 7121.0,1586.0 7227.0,1548.0 7242.0,1538.0 C 7256.0,1528.0 7279.0,1520.0 7292.0,1520.0 C 7309.0,1520.0 7321.0,1512.0 7328.0,1495.0 C 7341.0,1466.0 7360.0,1462.0 7360.0,1488.0 C 7360.0,1498.0 7344.0,1521.0 7325.0,1540.0 C 7306.0,1558.0 7292.0,1575.0 7294.0,1578.0 C 7300.0,1584.0 7343.0,1560.0 7363.0,1539.0 C 7386.0,1514.0 7407.0,1515.0 7415.0,1540.0 C 7419.0,1551.0 7426.0,1557.0 7432.0,1554.0 C 7438.0,1550.0 7456.0,1547.0 7471.0,1548.0 C 7489.0,1548.0 7500.0,1544.0 7500.0,1535.0 C 7500.0,1513.0 7541.0,1489.0 7557.0,1502.0 C 7567.0,1510.0 7570.0,1505.0 7570.0,1479.0 C 7570.0,1447.0 7576.0,1441.0 7668.0,1384.0 C 7799.0,1301.0 7827.0,1287.0 7833.0,1303.0 C 7835.0,1310.0 7841.0,1306.0 7849.0,1292.0 C 7858.0,1276.0 7870.0,1270.0 7898.0,1269.0 C 7920.0,1268.0 7927.0,1266.0 7915.0,1263.0 C 7860.0,1249.0 7849.0,1241.0 7859.0,1222.0 C 7866.0,1208.0 7885.0,1201.0 7926.0,1197.0 C 7963.0,1193.0 7995.0,1182.0 8020.0,1165.0 C 8051.0,1144.0 8062.0,1141.0 8078.0,1149.0 C 8093.0,1157.0 8102.0,1155.0 8119.0,1136.0 C 8142.0,1111.0 8147.0,1084.0 8128.0,1077.0 C 8098.0,1067.0 8215.0,971.0 8345.0,899.0 C 8389.0,875.0 8441.0,841.0 8461.0,823.0 C 8481.0,805.0 8507.0,790.0 8518.0,790.0 C 8530.0,790.0 8559.0,767.0 8588.0,735.0 C 8616.0,705.0 8641.0,680.0 8644.0,680.0 C 8647.0,680.0 8650.0,690.0 8650.0,703.0 C 8650.0,716.0 8655.0,731.0 8661.0,737.0 C 8669.0,745.0 8646.0,767.0 8581.0,816.0 C 8524.0,860.0 8493.0,891.0 8495.0,900.0 C 8497.0,908.0 8502.0,935.0 8505.0,960.0 C 8511.0,1003.0 8509.0,1008.0 8460.0,1065.0 C 8432.0,1098.0 8399.0,1128.0 8387.0,1132.0 C 8344.0,1144.0 8299.0,1140.0 8259.0,1120.0 C 8219.0,1099.0 8200.0,1100.0 8200.0,1124.0 C 8200.0,1132.0 8167.0,1164.0 8128.0,1196.0 C 8088.0,1228.0 8003.0,1297.0 7940.0,1350.0 C 7796.0,1471.0 7698.0,1536.0 7638.0,1551.0 C 7598.0,1561.0 7590.0,1566.0 7590.0,1586.0 C 7590.0,1602.0 7581.0,1614.0 7561.0,1624.0 C 7538.0,1636.0 7532.0,1648.0 7526.0,1687.0 C 7515.0,1768.0 7443.0,1820.0 7409.0,1770.0 C 7396.0,1751.0 7393.0,1751.0 7340.0,1765.0 C 7267.0,1785.0 7248.0,1784.0 7205.0,1758.0 L 7168.0,1737.0 L 7113.0,1764.0 C 7040.0,1800.0 7034.0,1790.0 7104.0,1749.0 C 7135.0,1731.0 7162.0,1710.0 7164.0,1703.0 C 7173.0,1682.0 7149.0,1688.0 7130.0,1713.0 C 7120.0,1725.0 7083.0,1746.0 7047.0,1759.0 C 7011.0,1771.0 6979.0,1788.0 6976.0,1796.0 C 6973.0,1804.0 6961.0,1810.0 6950.0,1810.0 C 6932.0,1810.0 6931.0,1807.0 6941.0,1789.0 C 6951.0,1769.0 6950.0,1768.0 6929.0,1775.0 C 6916.0,1779.0 6888.0,1784.0 6868.0,1787.0 C 6836.0,1791.0 6830.0,1796.0 6830.0,1816.0 C 6830.0,1843.0 6798.0,1880.0 6775.0,1880.0 C 6767.0,1880.0 6708.0,1905.0 6644.0,1935.0 C 6580.0,1965.0 6516.0,1990.0 6503.0,1990.0 C 6490.0,1990.0 6466.0,1997.0 6449.0,2005.0 C 6425.0,2018.0 6398.0,2019.0 6300.0,2014.0 L 6180.0,2007.0 L 6134.0,2044.0 C 6108.0,2064.0 6078.0,2080.0 6068.0,2080.0 C 6051.0,2080.0 6051.0,2078.0 6064.0,2045.0" fill="pink"/>
	<path d="M 5417.0,1953.0 C 5391.0,1946.0 5402.0,1925.0 5432.0,1924.0 C 5445.0,1924.0 5463.0,1918.0 5472.0,1910.0 C 5485.0,1897.0 5483.0,1892.0 5453.0,1862.0 C 5434.0,1844.0 5420.0,1824.0 5423.0,1817.0 C 5425.0,1810.0 5448.0,1805.0 5481.0,1804.0 C 5511.0,1803.0 5549.0,1797.0 5565.0,1791.0 C 5582.0,1784.0 5634.0,1774.0 5683.0,1769.0 C 5731.0,1764.0 5778.0,1755.0 5788.0,1749.0 C 5809.0,1736.0 5888.0,1757.0 5949.0,1791.0 C 5986.0,1813.0 5987.0,1812.0 6166.0,1778.0 C 6267.0,1758.0 6281.0,1757.0 6330.0,1771.0 C 6392.0,1787.0 6404.0,1805.0 6360.0,1815.0 C 6341.0,1819.0 6324.0,1832.0 6315.0,1850.0 C 6300.0,1880.0 6256.0,1900.0 6206.0,1900.0 C 6189.0,1900.0 6163.0,1906.0 6148.0,1914.0 C 6115.0,1931.0 5972.0,1926.0 5883.0,1903.0 C 5801.0,1882.0 5648.0,1897.0 5587.0,1932.0 C 5575.0,1939.0 5554.0,1946.0 5540.0,1947.0 C 5526.0,1949.0 5497.0,1952.0 5475.0,1954.0 C 5453.0,1957.0 5427.0,1956.0 5417.0,1953.0 M 5527.0,1884.0 C 5524.0,1881.0 5515.0,1880.0 5508.0,1883.0 C 5500.0,1886.0 5503.0,1889.0 5514.0,1889.0 C 5525.0,1890.0 5531.0,1887.0 5527.0,1884.0" fill="pink"/>
	<path d="M 6654.0,1545.0 C 6644.0,1537.0 6627.0,1530.0 6618.0,1530.0 C 6597.0,1530.0 6595.0,1520.0 6613.0,1498.0 C 6625.0,1481.0 6708.0,1454.0 6717.0,1464.0 C 6720.0,1467.0 6735.0,1463.0 6751.0,1455.0 C 6766.0,1447.0 6793.0,1440.0 6810.0,1440.0 C 6827.0,1440.0 6853.0,1431.0 6868.0,1421.0 C 6886.0,1408.0 6938.0,1394.0 7022.0,1381.0 C 7105.0,1368.0 7165.0,1353.0 7198.0,1336.0 C 7240.0,1315.0 7253.0,1312.0 7283.0,1321.0 C 7334.0,1335.0 7336.0,1346.0 7293.0,1360.0 C 7272.0,1367.0 7241.0,1380.0 7223.0,1391.0 C 7205.0,1401.0 7164.0,1412.0 7130.0,1416.0 C 7096.0,1420.0 7070.0,1427.0 7070.0,1434.0 C 7070.0,1440.0 7049.0,1451.0 7023.0,1457.0 C 6996.0,1464.0 6932.0,1481.0 6881.0,1495.0 C 6829.0,1509.0 6768.0,1520.0 6747.0,1520.0 C 6715.0,1520.0 6710.0,1522.0 6719.0,1534.0 C 6728.0,1545.0 6727.0,1549.0 6714.0,1554.0 C 6690.0,1563.0 6676.0,1561.0 6654.0,1545.0" fill="pink"/>
	<path d="M 5699.0,1484.0 C 5689.0,1471.0 5712.0,1446.0 5723.0,1457.0 C 5727.0,1460.0 5730.0,1456.0 5730.0,1448.0 C 5730.0,1439.0 5725.0,1430.0 5718.0,1428.0 C 5711.0,1425.0 5715.0,1415.0 5729.0,1401.0 C 5745.0,1385.0 5758.0,1380.0 5773.0,1385.0 C 5818.0,1399.0 5850.0,1402.0 5850.0,1392.0 C 5850.0,1371.0 5890.0,1393.0 5910.0,1425.0 C 5947.0,1485.0 5943.0,1488.0 5819.0,1492.0 C 5746.0,1494.0 5705.0,1491.0 5699.0,1484.0" fill="pink"/>
</svg>
