<?xml version="1.0" ?>
<svg xmlns="http://www.w3.org/2000/svg" xmlns:ev="http://www.w3.org/2001/xml-events" xmlns:xlink="http://www.w3.org/1999/xlink" baseProfile="full" height="454px" version="1.1" viewBox="-1021.5961212287277 473.276706537475 12295.485635252797 9293.490988514277" width="600px">
	<defs/>
	<path d="M 5810.0,8981.0 C 5747.0,8977.0 5690.0,8971.0 5684.0,8967.0 C 5677.0,8963.0 5641.0,8956.0 5602.0,8950.0 C 5563.0,8945.0 5506.0,8931.0 5475.0,8919.0 C 5421.0,8899.0 5419.0,8897.0 5436.0,8879.0 C 5447.0,8867.0 5466.0,8860.0 5492.0,8860.0 C 5513.0,8860.0 5579.0,8844.0 5638.0,8825.0 C 5707.0,8803.0 5775.0,8788.0 5830.0,8784.0 C 5932.0,8777.0 6072.0,8747.0 6155.0,8715.0 C 6188.0,8703.0 6246.0,8689.0 6283.0,8686.0 C 6321.0,8682.0 6362.0,8673.0 6373.0,8666.0 C 6387.0,8657.0 6444.0,8650.0 6523.0,8645.0 L 6651.0,8638.0 L 6636.0,8667.0 C 6618.0,8702.0 6557.0,8760.0 6505.0,8792.0 C 6483.0,8806.0 6400.0,8838.0 6320.0,8865.0 C 6240.0,8891.0 6133.0,8930.0 6081.0,8951.0 C 6030.0,8973.0 5974.0,8989.0 5956.0,8988.0 C 5939.0,8987.0 5873.0,8984.0 5810.0,8981.0" fill="pink"/>
	<path d="M 5923.0,8450.0 C 5912.0,8434.0 5903.0,8432.0 5862.0,8437.0 C 5821.0,8442.0 5810.0,8439.0 5785.0,8418.0 C 5759.0,8396.0 5752.0,8394.0 5717.0,8403.0 C 5651.0,8420.0 5460.0,8374.0 5460.0,8341.0 C 5460.0,8308.0 5446.0,8308.0 5419.0,8341.0 L 5392.0,8374.0 L 5341.0,8362.0 C 5313.0,8356.0 5269.0,8353.0 5243.0,8356.0 C 5197.0,8361.0 5196.0,8361.0 5220.0,8346.0 L 5245.0,8332.0 L 5218.0,8320.0 C 5196.0,8310.0 5188.0,8311.0 5164.0,8328.0 C 5142.0,8343.0 5102.0,8352.0 5000.0,8364.0 C 4701.0,8398.0 4697.0,8398.0 4635.0,8340.0 C 4599.0,8306.0 4454.0,8207.0 4402.0,8181.0 C 4382.0,8171.0 4329.0,8152.0 4284.0,8140.0 C 4239.0,8128.0 4174.0,8101.0 4140.0,8081.0 L 4076.0,8043.0 L 4037.0,8060.0 C 4006.0,8074.0 3990.0,8076.0 3963.0,8068.0 C 3944.0,8063.0 3912.0,8061.0 3891.0,8065.0 C 3858.0,8070.0 3852.0,8068.0 3832.0,8040.0 C 3806.0,8005.0 3812.0,7986.0 3846.0,7994.0 C 3859.0,7998.0 3888.0,7996.0 3911.0,7991.0 C 3950.0,7982.0 3955.0,7983.0 3981.0,8011.0 C 3996.0,8027.0 4013.0,8040.0 4019.0,8040.0 C 4034.0,8040.0 4033.0,8038.0 4008.0,7992.0 C 3982.0,7947.0 3930.0,7900.0 3906.0,7900.0 C 3896.0,7900.0 3877.0,7894.0 3861.0,7886.0 C 3844.0,7877.0 3829.0,7875.0 3819.0,7881.0 C 3797.0,7895.0 3796.0,7894.0 3744.0,7818.0 L 3695.0,7745.0 L 3692.0,7618.0 L 3688.0,7490.0 L 3723.0,7449.0 C 3776.0,7388.0 3890.0,7301.0 3935.0,7288.0 C 3957.0,7281.0 3980.0,7271.0 3985.0,7264.0 C 3996.0,7252.0 4177.0,7260.0 4289.0,7278.0 C 4330.0,7285.0 4360.0,7286.0 4371.0,7279.0 C 4381.0,7274.0 4409.0,7270.0 4434.0,7270.0 C 4475.0,7270.0 4482.0,7273.0 4500.0,7303.0 C 4511.0,7320.0 4520.0,7345.0 4520.0,7357.0 C 4520.0,7397.0 4556.0,7395.0 4606.0,7352.0 C 4672.0,7293.0 4860.0,7225.0 4860.0,7259.0 C 4860.0,7265.0 4869.0,7279.0 4880.0,7290.0 C 4922.0,7332.0 5059.0,7310.0 5153.0,7246.0 C 5243.0,7185.0 5276.0,7173.0 5299.0,7194.0 C 5316.0,7209.0 5340.0,7216.0 5340.0,7205.0 C 5340.0,7202.0 5334.0,7191.0 5328.0,7180.0 C 5317.0,7164.0 5319.0,7158.0 5335.0,7145.0 C 5346.0,7137.0 5363.0,7132.0 5373.0,7134.0 C 5384.0,7137.0 5390.0,7132.0 5390.0,7119.0 C 5390.0,7097.0 5434.0,7073.0 5530.0,7041.0 C 5566.0,7029.0 5618.0,7006.0 5645.0,6990.0 C 5673.0,6973.0 5702.0,6956.0 5710.0,6951.0 C 5718.0,6946.0 5751.0,6935.0 5782.0,6925.0 C 5818.0,6914.0 5851.0,6895.0 5871.0,6874.0 C 5889.0,6855.0 5913.0,6840.0 5924.0,6840.0 C 5951.0,6840.0 6072.0,6713.0 6100.0,6655.0 C 6135.0,6583.0 6233.0,6550.0 6261.0,6601.0 C 6272.0,6622.0 6310.0,6627.0 6310.0,6608.0 C 6310.0,6602.0 6318.0,6604.0 6329.0,6614.0 C 6340.0,6624.0 6357.0,6630.0 6367.0,6628.0 C 6382.0,6625.0 6385.0,6616.0 6382.0,6571.0 C 6380.0,6525.0 6383.0,6514.0 6410.0,6484.0 C 6426.0,6465.0 6440.0,6445.0 6440.0,6440.0 C 6440.0,6435.0 6424.0,6419.0 6405.0,6404.0 C 6375.0,6382.0 6367.0,6380.0 6354.0,6391.0 C 6346.0,6398.0 6341.0,6411.0 6343.0,6421.0 C 6346.0,6432.0 6341.0,6440.0 6328.0,6443.0 C 6315.0,6447.0 6310.0,6456.0 6312.0,6472.0 C 6314.0,6485.0 6311.0,6496.0 6305.0,6497.0 C 6300.0,6498.0 6296.0,6482.0 6297.0,6462.0 C 6298.0,6442.0 6296.0,6431.0 6293.0,6438.0 C 6291.0,6444.0 6284.0,6448.0 6279.0,6444.0 C 6261.0,6433.0 6271.0,6412.0 6299.0,6400.0 C 6340.0,6383.0 6344.0,6365.0 6313.0,6319.0 C 6280.0,6270.0 6248.0,6260.0 6210.0,6289.0 C 6173.0,6316.0 6166.0,6316.0 6141.0,6284.0 C 6113.0,6248.0 6112.0,6190.0 6140.0,6190.0 C 6154.0,6190.0 6160.0,6183.0 6160.0,6166.0 C 6160.0,6131.0 6183.0,6117.0 6226.0,6124.0 C 6270.0,6133.0 6294.0,6117.0 6279.0,6089.0 C 6273.0,6077.0 6273.0,6070.0 6279.0,6070.0 C 6284.0,6070.0 6296.0,6056.0 6304.0,6038.0 C 6319.0,6010.0 6319.0,6004.0 6305.0,5983.0 C 6292.0,5964.0 6286.0,5962.0 6270.0,5970.0 C 6259.0,5976.0 6250.0,5986.0 6249.0,5993.0 C 6249.0,6000.0 6244.0,5995.0 6237.0,5982.0 C 6229.0,5963.0 6229.0,5957.0 6240.0,5950.0 C 6248.0,5945.0 6251.0,5938.0 6247.0,5934.0 C 6244.0,5930.0 6235.0,5932.0 6228.0,5937.0 C 6221.0,5943.0 6196.0,5950.0 6172.0,5954.0 C 6133.0,5960.0 6129.0,5959.0 6134.0,5942.0 C 6138.0,5931.0 6134.0,5918.0 6125.0,5910.0 C 6117.0,5903.0 6110.0,5882.0 6110.0,5861.0 C 6110.0,5841.0 6103.0,5814.0 6094.0,5801.0 C 6082.0,5785.0 6081.0,5775.0 6088.0,5768.0 C 6096.0,5760.0 6103.0,5765.0 6111.0,5783.0 C 6124.0,5812.0 6148.0,5818.0 6168.0,5798.0 C 6186.0,5780.0 6183.0,5770.0 6160.0,5770.0 C 6150.0,5770.0 6124.0,5759.0 6104.0,5745.0 C 6081.0,5729.0 6060.0,5722.0 6048.0,5726.0 C 6031.0,5731.0 6030.0,5729.0 6039.0,5713.0 C 6044.0,5702.0 6056.0,5687.0 6065.0,5680.0 C 6074.0,5672.0 6098.0,5634.0 6117.0,5596.0 C 6136.0,5557.0 6160.0,5517.0 6169.0,5506.0 C 6193.0,5478.0 6252.0,5443.0 6298.0,5429.0 C 6374.0,5407.0 6395.0,5369.0 6366.0,5312.0 C 6332.0,5247.0 6268.0,5221.0 6186.0,5239.0 C 6135.0,5250.0 6123.0,5249.0 6064.0,5230.0 C 5972.0,5199.0 5940.0,5170.0 5940.0,5115.0 C 5940.0,5053.0 5966.0,5026.0 6058.0,4996.0 C 6172.0,4957.0 6251.0,4872.0 6274.0,4763.0 C 6282.0,4726.0 6332.0,4690.0 6373.0,4690.0 C 6414.0,4690.0 6520.0,4624.0 6592.0,4553.0 C 6657.0,4489.0 6672.0,4465.0 6684.0,4408.0 C 6688.0,4390.0 6697.0,4380.0 6708.0,4380.0 C 6733.0,4380.0 6817.0,4279.0 6847.0,4213.0 C 6861.0,4181.0 6881.0,4146.0 6891.0,4135.0 C 6902.0,4124.0 6921.0,4101.0 6935.0,4083.0 C 6966.0,4045.0 7014.0,4027.0 7089.0,4027.0 C 7125.0,4026.0 7159.0,4019.0 7185.0,4006.0 C 7218.0,3988.0 7228.0,3975.0 7248.0,3922.0 C 7262.0,3887.0 7281.0,3855.0 7293.0,3849.0 C 7304.0,3843.0 7352.0,3835.0 7399.0,3832.0 C 7471.0,3828.0 7490.0,3823.0 7514.0,3803.0 C 7553.0,3770.0 7604.0,3746.0 7672.0,3726.0 C 7757.0,3702.0 7776.0,3652.0 7716.0,3606.0 C 7697.0,3592.0 7670.0,3559.0 7655.0,3533.0 C 7626.0,3481.0 7627.0,3450.0 7656.0,3395.0 C 7665.0,3379.0 7673.0,3348.0 7674.0,3328.0 C 7675.0,3298.0 7671.0,3290.0 7655.0,3288.0 C 7638.0,3285.0 7635.0,3278.0 7637.0,3243.0 C 7638.0,3207.0 7634.0,3197.0 7609.0,3175.0 C 7569.0,3142.0 7533.0,3143.0 7484.0,3180.0 C 7419.0,3227.0 7396.0,3233.0 7365.0,3208.0 C 7350.0,3196.0 7326.0,3188.0 7312.0,3188.0 C 7297.0,3189.0 7205.0,3191.0 7107.0,3192.0 L 6928.0,3195.0 L 6907.0,3221.0 C 6870.0,3266.0 6811.0,3273.0 6716.0,3246.0 C 6624.0,3219.0 6560.0,3151.0 6534.0,3054.0 C 6497.0,2910.0 6433.0,2804.0 6373.0,2785.0 C 6360.0,2782.0 6350.0,2773.0 6350.0,2766.0 C 6350.0,2759.0 6336.0,2753.0 6318.0,2753.0 C 6300.0,2752.0 6264.0,2751.0 6239.0,2750.0 C 6214.0,2750.0 6181.0,2754.0 6166.0,2760.0 C 6150.0,2766.0 6117.0,2768.0 6091.0,2764.0 C 6053.0,2759.0 6036.0,2763.0 5996.0,2784.0 C 5958.0,2804.0 5933.0,2810.0 5884.0,2810.0 C 5828.0,2810.0 5818.0,2807.0 5780.0,2775.0 C 5740.0,2741.0 5699.0,2731.0 5674.0,2748.0 C 5655.0,2760.0 5646.0,2802.0 5661.0,2811.0 C 5668.0,2815.0 5672.0,2821.0 5670.0,2823.0 C 5667.0,2825.0 5598.0,2843.0 5515.0,2863.0 C 5371.0,2897.0 5360.0,2898.0 5255.0,2890.0 C 5137.0,2882.0 5071.0,2868.0 5060.0,2850.0 C 5056.0,2844.0 5038.0,2835.0 5019.0,2830.0 C 5000.0,2825.0 4975.0,2818.0 4964.0,2815.0 C 4948.0,2810.0 4934.0,2816.0 4911.0,2839.0 C 4894.0,2856.0 4875.0,2870.0 4869.0,2870.0 C 4864.0,2870.0 4855.0,2881.0 4850.0,2895.0 C 4838.0,2925.0 4805.0,2942.0 4712.0,2965.0 C 4635.0,2983.0 4612.0,2982.0 4540.0,2955.0 C 4506.0,2942.0 4480.0,2940.0 4430.0,2945.0 C 4394.0,2949.0 4336.0,2955.0 4300.0,2958.0 C 4251.0,2963.0 4222.0,2973.0 4185.0,2997.0 C 4157.0,3014.0 4122.0,3031.0 4105.0,3035.0 C 4089.0,3038.0 4053.0,3047.0 4025.0,3055.0 C 3962.0,3072.0 3883.0,3088.0 3803.0,3100.0 C 3768.0,3105.0 3722.0,3114.0 3701.0,3120.0 C 3674.0,3127.0 3654.0,3127.0 3635.0,3120.0 C 3616.0,3113.0 3590.0,3113.0 3552.0,3120.0 C 3453.0,3138.0 3409.0,3133.0 3339.0,3096.0 C 3259.0,3054.0 3121.0,3025.0 3064.0,3038.0 C 3037.0,3044.0 3011.0,3043.0 2982.0,3035.0 C 2944.0,3023.0 2937.0,3024.0 2915.0,3042.0 C 2884.0,3066.0 2883.0,3099.0 2911.0,3134.0 C 2936.0,3165.0 2929.0,3178.0 2884.0,3183.0 C 2868.0,3185.0 2849.0,3189.0 2843.0,3193.0 C 2836.0,3197.0 2828.0,3195.0 2824.0,3189.0 C 2819.0,3181.0 2816.0,3181.0 2810.0,3189.0 C 2805.0,3198.0 2796.0,3198.0 2775.0,3190.0 C 2755.0,3183.0 2744.0,3183.0 2734.0,3191.0 C 2727.0,3197.0 2716.0,3198.0 2709.0,3194.0 C 2702.0,3190.0 2699.0,3192.0 2702.0,3201.0 C 2705.0,3209.0 2720.0,3215.0 2736.0,3215.0 C 2752.0,3215.0 2784.0,3221.0 2807.0,3228.0 C 2850.0,3241.0 2873.0,3260.0 2846.0,3260.0 C 2837.0,3260.0 2830.0,3265.0 2830.0,3270.0 C 2830.0,3287.0 2873.0,3281.0 2908.0,3260.0 C 2943.0,3238.0 2980.0,3234.0 2996.0,3250.0 C 3002.0,3256.0 3033.0,3255.0 3085.0,3246.0 C 3129.0,3238.0 3173.0,3236.0 3185.0,3240.0 C 3208.0,3249.0 3280.0,3324.0 3280.0,3340.0 C 3280.0,3371.0 3082.0,3357.0 2992.0,3319.0 C 2945.0,3299.0 2934.0,3298.0 2883.0,3309.0 C 2799.0,3326.0 2779.0,3323.0 2724.0,3288.0 C 2682.0,3260.0 2678.0,3255.0 2698.0,3252.0 C 2710.0,3250.0 2720.0,3245.0 2720.0,3241.0 C 2720.0,3230.0 2570.0,3179.0 2559.0,3186.0 C 2553.0,3189.0 2543.0,3187.0 2536.0,3181.0 C 2516.0,3164.0 2477.0,3172.0 2457.0,3198.0 C 2434.0,3226.0 2278.0,3302.0 2266.0,3290.0 C 2261.0,3285.0 2249.0,3286.0 2240.0,3293.0 C 2227.0,3301.0 2198.0,3301.0 2141.0,3294.0 C 2067.0,3285.0 2060.0,3286.0 2060.0,3302.0 C 2060.0,3313.0 2052.0,3320.0 2040.0,3320.0 C 2029.0,3320.0 2020.0,3327.0 2020.0,3335.0 C 2020.0,3344.0 2014.0,3347.0 2005.0,3344.0 C 1995.0,3340.0 1990.0,3344.0 1990.0,3358.0 C 1990.0,3387.0 1972.0,3395.0 1951.0,3376.0 C 1935.0,3362.0 1931.0,3363.0 1896.0,3388.0 C 1860.0,3414.0 1851.0,3415.0 1741.0,3416.0 C 1629.0,3417.0 1517.0,3435.0 1467.0,3461.0 C 1411.0,3491.0 1310.0,3574.0 1310.0,3591.0 C 1310.0,3602.0 1300.0,3612.0 1285.0,3616.0 C 1272.0,3619.0 1256.0,3628.0 1249.0,3636.0 C 1243.0,3644.0 1227.0,3650.0 1215.0,3650.0 C 1203.0,3650.0 1177.0,3656.0 1159.0,3664.0 C 1140.0,3671.0 1087.0,3683.0 1040.0,3690.0 C 971.0,3700.0 944.0,3700.0 895.0,3689.0 C 862.0,3682.0 825.0,3677.0 813.0,3678.0 C 798.0,3680.0 781.0,3668.0 759.0,3640.0 C 721.0,3594.0 707.0,3591.0 684.0,3625.0 C 664.0,3655.0 630.0,3658.0 623.0,3630.0 C 617.0,3607.0 618.0,3607.0 587.0,3619.0 C 559.0,3630.0 503.0,3614.0 439.0,3577.0 C 406.0,3558.0 397.0,3557.0 369.0,3567.0 C 340.0,3578.0 336.0,3577.0 318.0,3555.0 C 307.0,3541.0 292.0,3530.0 284.0,3530.0 C 258.0,3530.0 201.0,3485.0 195.0,3460.0 C 190.0,3441.0 194.0,3431.0 214.0,3415.0 C 228.0,3403.0 240.0,3388.0 240.0,3380.0 C 240.0,3360.0 192.0,3259.0 173.0,3238.0 C 164.0,3228.0 161.0,3220.0 165.0,3220.0 C 170.0,3220.0 163.0,3208.0 149.0,3194.0 C 133.0,3177.0 126.0,3160.0 128.0,3139.0 C 131.0,3118.0 123.0,3099.0 101.0,3071.0 C 70.0,3032.0 62.0,3010.0 79.0,3010.0 C 102.0,3010.0 101.0,2967.0 77.0,2932.0 C 35.0,2870.0 2.0,2791.0 8.0,2765.0 C 12.0,2744.0 22.0,2734.0 33.0,2742.0 C 42.0,2748.0 83.0,2714.0 95.0,2689.0 C 108.0,2664.0 109.0,2652.0 100.0,2624.0 C 91.0,2598.0 91.0,2586.0 100.0,2575.0 C 107.0,2567.0 109.0,2549.0 106.0,2532.0 C 97.0,2496.0 120.0,2475.0 182.0,2461.0 C 241.0,2448.0 280.0,2430.0 281.0,2416.0 C 282.0,2410.0 283.0,2396.0 284.0,2385.0 C 285.0,2372.0 293.0,2364.0 308.0,2362.0 C 321.0,2360.0 346.0,2344.0 363.0,2325.0 C 388.0,2299.0 412.0,2288.0 480.0,2271.0 C 527.0,2259.0 576.0,2250.0 589.0,2250.0 C 602.0,2250.0 651.0,2270.0 697.0,2295.0 C 768.0,2334.0 788.0,2340.0 838.0,2340.0 C 887.0,2340.0 900.0,2336.0 920.0,2315.0 C 939.0,2295.0 953.0,2290.0 992.0,2290.0 C 1037.0,2290.0 1044.0,2287.0 1095.0,2235.0 C 1126.0,2205.0 1159.0,2180.0 1169.0,2180.0 C 1202.0,2180.0 1374.0,2097.0 1402.0,2068.0 C 1416.0,2053.0 1435.0,2040.0 1445.0,2040.0 C 1463.0,2040.0 1520.0,1982.0 1520.0,1963.0 C 1520.0,1956.0 1525.0,1950.0 1531.0,1950.0 C 1537.0,1950.0 1555.0,1939.0 1572.0,1925.0 C 1588.0,1911.0 1607.0,1900.0 1615.0,1900.0 C 1622.0,1900.0 1630.0,1893.0 1634.0,1885.0 C 1637.0,1877.0 1651.0,1865.0 1664.0,1859.0 C 1678.0,1852.0 1693.0,1835.0 1699.0,1819.0 C 1706.0,1797.0 1716.0,1791.0 1742.0,1788.0 C 1769.0,1786.0 1776.0,1780.0 1778.0,1760.0 C 1782.0,1729.0 1837.0,1670.0 1862.0,1670.0 C 1884.0,1670.0 1920.0,1614.0 1920.0,1579.0 C 1920.0,1562.0 1934.0,1539.0 1960.0,1512.0 C 1990.0,1481.0 2000.0,1464.0 2000.0,1438.0 C 2000.0,1418.0 2012.0,1388.0 2029.0,1362.0 C 2045.0,1338.0 2056.0,1310.0 2053.0,1301.0 C 2044.0,1268.0 2110.0,1252.0 2260.0,1252.0 C 2415.0,1252.0 2464.0,1262.0 2455.0,1291.0 C 2451.0,1304.0 2453.0,1310.0 2464.0,1310.0 C 2496.0,1310.0 2480.0,1349.0 2435.0,1380.0 C 2410.0,1397.0 2381.0,1429.0 2370.0,1450.0 C 2359.0,1472.0 2336.0,1497.0 2320.0,1505.0 C 2304.0,1513.0 2283.0,1534.0 2274.0,1551.0 C 2260.0,1580.0 2260.0,1586.0 2275.0,1625.0 C 2302.0,1697.0 2446.0,1811.0 2544.0,1838.0 C 2574.0,1847.0 2694.0,1921.0 2710.0,1941.0 C 2713.0,1945.0 2730.0,1951.0 2748.0,1955.0 C 2768.0,1959.0 2780.0,1967.0 2777.0,1974.0 C 2774.0,1981.0 2778.0,2000.0 2786.0,2018.0 C 2798.0,2046.0 2804.0,2050.0 2839.0,2050.0 C 2861.0,2050.0 2880.0,2045.0 2882.0,2038.0 C 2889.0,2017.0 2937.0,2045.0 2955.0,2080.0 C 2968.0,2106.0 2974.0,2109.0 2986.0,2099.0 C 3008.0,2081.0 3003.0,2065.0 2960.0,2019.0 C 2915.0,1970.0 2908.0,1945.0 2943.0,1955.0 C 2993.0,1970.0 3015.0,1995.0 3018.0,2042.0 C 3021.0,2085.0 3023.0,2088.0 3053.0,2094.0 C 3120.0,2108.0 3135.0,2106.0 3138.0,2083.0 C 3140.0,2070.0 3134.0,2057.0 3122.0,2051.0 C 3100.0,2039.0 3077.0,1984.0 3086.0,1968.0 C 3094.0,1956.0 3156.0,1965.0 3176.0,1981.0 C 3184.0,1988.0 3188.0,2001.0 3184.0,2016.0 C 3175.0,2053.0 3198.0,2045.0 3214.0,2005.0 C 3230.0,1967.0 3258.0,1959.0 3280.0,1985.0 C 3291.0,1998.0 3287.0,2008.0 3260.0,2047.0 C 3221.0,2101.0 3227.0,2122.0 3286.0,2131.0 C 3338.0,2140.0 3355.0,2129.0 3375.0,2075.0 C 3392.0,2031.0 3394.0,2030.0 3436.0,2030.0 C 3483.0,2030.0 3510.0,2038.0 3510.0,2051.0 C 3510.0,2056.0 3503.0,2060.0 3495.0,2060.0 C 3472.0,2060.0 3477.0,2076.0 3507.0,2100.0 C 3522.0,2112.0 3545.0,2120.0 3560.0,2119.0 C 3574.0,2117.0 3595.0,2122.0 3608.0,2129.0 C 3621.0,2136.0 3636.0,2139.0 3643.0,2137.0 C 3650.0,2135.0 3660.0,2140.0 3666.0,2149.0 C 3675.0,2161.0 3681.0,2162.0 3692.0,2153.0 C 3700.0,2146.0 3716.0,2143.0 3728.0,2147.0 C 3741.0,2150.0 3750.0,2148.0 3750.0,2141.0 C 3750.0,2134.0 3766.0,2122.0 3785.0,2114.0 C 3829.0,2096.0 3832.0,2096.0 3828.0,2117.0 C 3826.0,2128.0 3836.0,2139.0 3852.0,2148.0 C 3868.0,2155.0 3883.0,2172.0 3886.0,2186.0 C 3891.0,2205.0 3899.0,2210.0 3921.0,2210.0 C 3953.0,2210.0 3972.0,2184.0 3951.0,2170.0 C 3936.0,2162.0 3997.0,2120.0 4024.0,2120.0 C 4049.0,2120.0 4043.0,2091.0 4010.0,2060.0 C 3973.0,2026.0 3958.0,1970.0 3985.0,1970.0 C 3995.0,1970.0 4011.0,1977.0 4021.0,1986.0 C 4035.0,1999.0 4043.0,1999.0 4060.0,1990.0 C 4078.0,1980.0 4094.0,1982.0 4144.0,1998.0 C 4270.0,2040.0 4310.0,2039.0 4330.0,1989.0 C 4342.0,1962.0 4347.0,1959.0 4389.0,1959.0 C 4414.0,1959.0 4491.0,1956.0 4560.0,1951.0 C 4661.0,1945.0 4697.0,1939.0 4745.0,1918.0 C 4850.0,1872.0 4946.0,1853.0 5153.0,1834.0 C 5188.0,1830.0 5223.0,1833.0 5240.0,1840.0 C 5264.0,1850.0 5272.0,1849.0 5297.0,1831.0 C 5332.0,1806.0 5429.0,1780.0 5490.0,1780.0 C 5537.0,1780.0 5618.0,1757.0 5655.0,1734.0 C 5666.0,1727.0 5693.0,1719.0 5715.0,1715.0 C 5737.0,1711.0 5768.0,1704.0 5783.0,1698.0 C 5804.0,1690.0 5817.0,1690.0 5836.0,1701.0 C 5857.0,1712.0 5868.0,1712.0 5906.0,1697.0 C 5939.0,1685.0 5957.0,1683.0 5976.0,1690.0 C 5990.0,1696.0 6017.0,1700.0 6035.0,1700.0 C 6064.0,1700.0 6071.0,1704.0 6076.0,1725.0 C 6083.0,1754.0 6093.0,1755.0 6148.0,1736.0 C 6170.0,1728.0 6191.0,1724.0 6194.0,1727.0 C 6197.0,1731.0 6189.0,1748.0 6175.0,1766.0 C 6151.0,1797.0 6151.0,1799.0 6169.0,1821.0 C 6187.0,1843.0 6188.0,1843.0 6229.0,1827.0 C 6275.0,1808.0 6335.0,1805.0 6345.0,1820.0 C 6348.0,1825.0 6365.0,1829.0 6383.0,1828.0 C 6401.0,1827.0 6426.0,1833.0 6439.0,1839.0 C 6452.0,1846.0 6475.0,1849.0 6491.0,1846.0 C 6506.0,1843.0 6535.0,1847.0 6554.0,1855.0 C 6586.0,1869.0 6595.0,1868.0 6667.0,1846.0 C 6710.0,1832.0 6756.0,1822.0 6770.0,1822.0 C 6784.0,1822.0 6816.0,1814.0 6841.0,1804.0 C 6885.0,1787.0 6889.0,1787.0 6914.0,1803.0 C 6944.0,1823.0 6949.0,1864.0 6923.0,1878.0 C 6914.0,1884.0 6901.0,1910.0 6894.0,1936.0 C 6883.0,1978.0 6884.0,1987.0 6897.0,2003.0 C 6922.0,2029.0 6956.0,2023.0 6999.0,1985.0 C 7020.0,1966.0 7041.0,1950.0 7046.0,1950.0 C 7051.0,1950.0 7073.0,1960.0 7095.0,1971.0 C 7127.0,1988.0 7138.0,1990.0 7153.0,1981.0 C 7165.0,1973.0 7176.0,1972.0 7183.0,1978.0 C 7190.0,1984.0 7218.0,1990.0 7245.0,1993.0 C 7273.0,1996.0 7345.0,2004.0 7405.0,2011.0 C 7466.0,2019.0 7567.0,2025.0 7631.0,2025.0 C 7730.0,2024.0 7751.0,2022.0 7779.0,2004.0 C 7810.0,1984.0 7815.0,1984.0 7873.0,1998.0 C 7929.0,2011.0 7944.0,2010.0 8026.0,1994.0 C 8113.0,1977.0 8119.0,1977.0 8186.0,1995.0 C 8226.0,2005.0 8299.0,2014.0 8360.0,2016.0 C 8418.0,2017.0 8492.0,2025.0 8526.0,2033.0 C 8608.0,2053.0 8729.0,2043.0 8744.0,2015.0 C 8774.0,1961.0 8858.0,1910.0 8868.0,1938.0 C 8874.0,1956.0 8898.0,1952.0 8929.0,1930.0 C 8945.0,1917.0 8991.0,1903.0 9041.0,1894.0 C 9154.0,1875.0 9152.0,1875.0 9197.0,1827.0 C 9219.0,1804.0 9263.0,1767.0 9294.0,1745.0 C 9326.0,1723.0 9399.0,1659.0 9456.0,1604.0 C 9541.0,1520.0 9560.0,1497.0 9560.0,1473.0 C 9560.0,1448.0 9574.0,1432.0 9654.0,1367.0 C 9706.0,1325.0 9751.0,1290.0 9754.0,1290.0 C 9757.0,1290.0 9760.0,1297.0 9760.0,1305.0 C 9760.0,1313.0 9770.0,1329.0 9783.0,1340.0 C 9795.0,1352.0 9806.0,1373.0 9807.0,1388.0 C 9808.0,1403.0 9811.0,1441.0 9813.0,1473.0 C 9818.0,1523.0 9816.0,1530.0 9802.0,1528.0 C 9781.0,1524.0 9773.0,1574.0 9790.0,1595.0 C 9804.0,1612.0 9785.0,1653.0 9746.0,1689.0 C 9732.0,1703.0 9720.0,1719.0 9720.0,1726.0 C 9720.0,1733.0 9707.0,1747.0 9691.0,1756.0 C 9636.0,1788.0 9648.0,1889.0 9713.0,1954.0 C 9727.0,1968.0 9741.0,1993.0 9745.0,2010.0 C 9749.0,2026.0 9760.0,2045.0 9770.0,2050.0 C 9781.0,2056.0 9786.0,2067.0 9783.0,2078.0 C 9777.0,2101.0 9839.0,2207.0 9863.0,2213.0 C 9874.0,2217.0 9880.0,2228.0 9880.0,2248.0 C 9880.0,2264.0 9887.0,2283.0 9895.0,2290.0 C 9903.0,2297.0 9910.0,2312.0 9910.0,2323.0 C 9910.0,2334.0 9923.0,2367.0 9939.0,2396.0 C 9956.0,2424.0 9966.0,2450.0 9963.0,2453.0 C 9960.0,2456.0 9945.0,2457.0 9930.0,2453.0 C 9908.0,2449.0 9899.0,2453.0 9890.0,2470.0 C 9881.0,2487.0 9873.0,2490.0 9851.0,2485.0 C 9822.0,2479.0 9719.0,2517.0 9706.0,2539.0 C 9702.0,2545.0 9688.0,2550.0 9675.0,2550.0 C 9661.0,2550.0 9635.0,2566.0 9610.0,2590.0 C 9587.0,2612.0 9551.0,2634.0 9530.0,2640.0 C 9490.0,2651.0 9469.0,2674.0 9477.0,2698.0 C 9484.0,2716.0 9421.0,2780.0 9397.0,2780.0 C 9367.0,2780.0 9260.0,2831.0 9260.0,2846.0 C 9260.0,2853.0 9251.0,2862.0 9240.0,2865.0 C 9211.0,2874.0 9198.0,2906.0 9205.0,2950.0 C 9210.0,2981.0 9217.0,2991.0 9241.0,2999.0 C 9257.0,3004.0 9270.0,3011.0 9270.0,3015.0 C 9270.0,3023.0 9126.0,3009.0 9116.0,2999.0 C 9099.0,2984.0 9082.0,2989.0 9045.0,3021.0 C 9015.0,3047.0 9010.0,3058.0 9010.0,3095.0 C 9010.0,3123.0 9003.0,3146.0 8988.0,3165.0 C 8969.0,3189.0 8963.0,3191.0 8926.0,3186.0 C 8904.0,3182.0 8882.0,3172.0 8877.0,3165.0 C 8865.0,3144.0 8846.0,3147.0 8813.0,3174.0 C 8798.0,3187.0 8768.0,3205.0 8747.0,3213.0 C 8727.0,3222.0 8710.0,3235.0 8709.0,3242.0 C 8706.0,3274.0 8713.0,3305.0 8727.0,3327.0 C 8741.0,3348.0 8740.0,3352.0 8714.0,3383.0 C 8698.0,3401.0 8676.0,3432.0 8666.0,3451.0 C 8647.0,3487.0 8647.0,3488.0 8666.0,3526.0 C 8676.0,3547.0 8697.0,3571.0 8712.0,3579.0 C 8749.0,3600.0 8781.0,3583.0 8821.0,3521.0 C 8857.0,3466.0 8869.0,3457.0 8891.0,3471.0 C 8902.0,3478.0 8901.0,3482.0 8885.0,3494.0 C 8858.0,3514.0 8875.0,3541.0 8920.0,3553.0 C 8939.0,3558.0 8969.0,3575.0 8987.0,3591.0 C 9026.0,3625.0 9063.0,3628.0 9083.0,3600.0 C 9091.0,3589.0 9099.0,3583.0 9103.0,3586.0 C 9106.0,3589.0 9118.0,3586.0 9131.0,3580.0 C 9150.0,3569.0 9160.0,3571.0 9188.0,3586.0 C 9222.0,3604.0 9222.0,3604.0 9240.0,3582.0 C 9252.0,3567.0 9260.0,3564.0 9263.0,3572.0 C 9270.0,3591.0 9304.0,3568.0 9308.0,3541.0 C 9312.0,3514.0 9336.0,3514.0 9350.0,3540.0 C 9356.0,3551.0 9371.0,3560.0 9384.0,3560.0 C 9415.0,3560.0 9470.0,3540.0 9470.0,3529.0 C 9470.0,3513.0 9498.0,3519.0 9504.0,3536.0 C 9509.0,3548.0 9518.0,3551.0 9540.0,3547.0 C 9572.0,3540.0 9589.0,3555.0 9571.0,3573.0 C 9565.0,3579.0 9560.0,3608.0 9560.0,3637.0 C 9560.0,3708.0 9590.0,3767.0 9636.0,3786.0 C 9655.0,3794.0 9670.0,3806.0 9670.0,3814.0 C 9670.0,3831.0 9701.0,3851.0 9763.0,3875.0 C 9801.0,3889.0 9810.0,3897.0 9810.0,3916.0 C 9810.0,3929.0 9818.0,3948.0 9828.0,3958.0 C 9840.0,3971.0 9845.0,3992.0 9845.0,4040.0 C 9846.0,4081.0 9852.0,4118.0 9863.0,4139.0 C 9873.0,4159.0 9877.0,4182.0 9874.0,4197.0 C 9870.0,4211.0 9873.0,4232.0 9880.0,4246.0 C 9891.0,4266.0 9891.0,4273.0 9878.0,4287.0 C 9856.0,4312.0 9848.0,4359.0 9860.0,4399.0 C 9870.0,4436.0 9865.0,4454.0 9850.0,4430.0 C 9837.0,4409.0 9799.0,4446.0 9805.0,4474.0 C 9809.0,4492.0 9801.0,4499.0 9751.0,4521.0 L 9692.0,4548.0 L 9686.0,4606.0 C 9682.0,4639.0 9679.0,4680.0 9679.0,4698.0 C 9679.0,4727.0 9676.0,4730.0 9647.0,4730.0 C 9597.0,4730.0 9525.0,4755.0 9522.0,4774.0 C 9518.0,4790.0 9484.0,4796.0 9464.0,4782.0 C 9458.0,4778.0 9451.0,4767.0 9447.0,4757.0 C 9443.0,4746.0 9433.0,4740.0 9423.0,4742.0 C 9411.0,4744.0 9401.0,4736.0 9393.0,4718.0 C 9380.0,4688.0 9356.0,4681.0 9346.0,4705.0 C 9343.0,4713.0 9336.0,4720.0 9330.0,4720.0 C 9325.0,4720.0 9320.0,4713.0 9320.0,4705.0 C 9320.0,4697.0 9311.0,4690.0 9300.0,4690.0 C 9276.0,4690.0 9273.0,4722.0 9295.0,4740.0 C 9303.0,4747.0 9310.0,4763.0 9310.0,4777.0 C 9310.0,4790.0 9317.0,4815.0 9326.0,4832.0 C 9339.0,4858.0 9346.0,4861.0 9370.0,4857.0 C 9394.0,4852.0 9399.0,4855.0 9404.0,4875.0 C 9413.0,4909.0 9471.0,4936.0 9499.0,4918.0 C 9516.0,4907.0 9524.0,4908.0 9551.0,4924.0 C 9581.0,4942.0 9584.0,4942.0 9595.0,4926.0 C 9614.0,4901.0 9633.0,4906.0 9626.0,4934.0 C 9622.0,4949.0 9626.0,4962.0 9635.0,4970.0 C 9643.0,4977.0 9650.0,4989.0 9650.0,4996.0 C 9650.0,5003.0 9662.0,5017.0 9678.0,5027.0 C 9693.0,5036.0 9719.0,5057.0 9737.0,5073.0 C 9754.0,5089.0 9773.0,5099.0 9779.0,5096.0 C 9785.0,5092.0 9795.0,5094.0 9802.0,5099.0 C 9809.0,5105.0 9831.0,5123.0 9851.0,5140.0 C 9871.0,5156.0 9895.0,5170.0 9904.0,5170.0 C 9918.0,5170.0 9918.0,5173.0 9908.0,5189.0 C 9898.0,5205.0 9899.0,5212.0 9913.0,5228.0 C 9933.0,5250.0 9934.0,5263.0 9918.0,5290.0 C 9907.0,5307.0 9908.0,5312.0 9920.0,5320.0 C 9944.0,5336.0 9990.0,5332.0 9990.0,5315.0 C 9990.0,5295.0 10000.0,5296.0 10026.0,5321.0 C 10045.0,5338.0 10051.0,5340.0 10068.0,5329.0 C 10085.0,5319.0 10091.0,5319.0 10104.0,5329.0 C 10130.0,5351.0 10181.0,5452.0 10171.0,5464.0 C 10156.0,5484.0 10161.0,5544.0 10180.0,5575.0 C 10192.0,5595.0 10197.0,5615.0 10193.0,5630.0 C 10188.0,5648.0 10193.0,5659.0 10216.0,5676.0 L 10245.0,5699.0 L 10210.0,5735.0 C 10191.0,5755.0 10164.0,5773.0 10150.0,5777.0 C 10136.0,5780.0 10119.0,5787.0 10113.0,5792.0 C 10106.0,5798.0 10093.0,5799.0 10084.0,5796.0 C 10075.0,5792.0 10057.0,5796.0 10044.0,5805.0 C 10029.0,5814.0 10010.0,5818.0 9991.0,5814.0 C 9953.0,5806.0 9938.0,5818.0 9903.0,5881.0 C 9883.0,5919.0 9873.0,5929.0 9858.0,5924.0 C 9835.0,5917.0 9765.0,5956.0 9744.0,5988.0 C 9734.0,6003.0 9731.0,6022.0 9735.0,6040.0 C 9740.0,6064.0 9737.0,6072.0 9716.0,6085.0 C 9702.0,6095.0 9690.0,6110.0 9690.0,6120.0 C 9690.0,6131.0 9678.0,6142.0 9660.0,6149.0 C 9644.0,6154.0 9630.0,6163.0 9630.0,6169.0 C 9630.0,6181.0 9685.0,6200.0 9719.0,6200.0 C 9752.0,6200.0 9769.0,6211.0 9784.0,6241.0 C 9791.0,6255.0 9805.0,6265.0 9817.0,6265.0 C 9829.0,6265.0 9848.0,6275.0 9860.0,6288.0 C 9877.0,6306.0 9891.0,6311.0 9921.0,6309.0 C 9971.0,6305.0 9978.0,6314.0 9956.0,6355.0 C 9939.0,6386.0 9939.0,6392.0 9952.0,6412.0 C 9962.0,6428.0 9964.0,6440.0 9958.0,6450.0 C 9951.0,6461.0 9957.0,6484.0 9979.0,6530.0 C 10009.0,6592.0 10009.0,6595.0 9991.0,6615.0 C 9981.0,6626.0 9966.0,6656.0 9956.0,6682.0 C 9941.0,6722.0 9941.0,6735.0 9951.0,6770.0 C 9963.0,6808.0 9962.0,6812.0 9937.0,6838.0 C 9922.0,6854.0 9910.0,6876.0 9910.0,6888.0 C 9910.0,6900.0 9901.0,6915.0 9890.0,6922.0 C 9879.0,6929.0 9870.0,6944.0 9870.0,6956.0 C 9870.0,6967.0 9857.0,6989.0 9841.0,7004.0 C 9816.0,7028.0 9813.0,7035.0 9823.0,7051.0 C 9833.0,7067.0 9831.0,7072.0 9812.0,7085.0 C 9788.0,7103.0 9783.0,7129.0 9802.0,7148.0 C 9811.0,7157.0 9812.0,7165.0 9804.0,7178.0 C 9798.0,7187.0 9787.0,7219.0 9780.0,7248.0 C 9769.0,7295.0 9770.0,7303.0 9785.0,7320.0 C 9811.0,7349.0 9795.0,7424.0 9762.0,7428.0 C 9737.0,7432.0 9700.0,7494.0 9700.0,7534.0 C 9700.0,7561.0 9706.0,7559.0 9563.0,7580.0 C 9524.0,7585.0 9477.0,7590.0 9461.0,7590.0 C 9431.0,7590.0 9430.0,7589.0 9430.0,7545.0 C 9430.0,7512.0 9434.0,7500.0 9445.0,7500.0 C 9473.0,7500.0 9538.0,7468.0 9545.0,7452.0 C 9549.0,7442.0 9544.0,7430.0 9534.0,7423.0 C 9524.0,7416.0 9516.0,7396.0 9516.0,7378.0 C 9515.0,7347.0 9490.0,7324.0 9490.0,7355.0 C 9490.0,7364.0 9480.0,7384.0 9468.0,7400.0 C 9449.0,7426.0 9442.0,7429.0 9400.0,7426.0 C 9374.0,7424.0 9341.0,7415.0 9326.0,7405.0 C 9300.0,7388.0 9299.0,7388.0 9275.0,7410.0 C 9262.0,7422.0 9247.0,7429.0 9241.0,7425.0 C 9235.0,7422.0 9230.0,7423.0 9230.0,7429.0 C 9230.0,7434.0 9235.0,7442.0 9242.0,7446.0 C 9249.0,7451.0 9246.0,7456.0 9232.0,7461.0 C 9220.0,7466.0 9210.0,7473.0 9210.0,7479.0 C 9210.0,7495.0 9246.0,7498.0 9279.0,7484.0 C 9307.0,7472.0 9313.0,7473.0 9330.0,7490.0 C 9349.0,7509.0 9362.0,7514.0 9386.0,7511.0 C 9402.0,7509.0 9412.0,7570.0 9399.0,7586.0 C 9393.0,7594.0 9373.0,7600.0 9356.0,7600.0 C 9339.0,7600.0 9298.0,7607.0 9265.0,7616.0 C 9232.0,7624.0 9177.0,7634.0 9144.0,7638.0 C 9091.0,7645.0 9081.0,7643.0 9071.0,7628.0 C 9061.0,7613.0 9058.0,7614.0 9031.0,7641.0 C 9004.0,7667.0 8996.0,7670.0 8963.0,7664.0 C 8908.0,7654.0 8900.0,7644.0 8900.0,7584.0 L 8900.0,7530.0 L 8863.0,7531.0 C 8787.0,7531.0 8734.0,7525.0 8712.0,7512.0 C 8693.0,7501.0 8684.0,7501.0 8660.0,7512.0 C 8633.0,7523.0 8632.0,7526.0 8646.0,7541.0 C 8657.0,7554.0 8671.0,7557.0 8696.0,7553.0 L 8730.0,7547.0 L 8725.0,7600.0 C 8721.0,7650.0 8700.0,7685.0 8691.0,7657.0 C 8689.0,7650.0 8676.0,7632.0 8664.0,7617.0 C 8651.0,7601.0 8640.0,7582.0 8640.0,7575.0 C 8640.0,7559.0 8604.0,7536.0 8591.0,7544.0 C 8586.0,7547.0 8580.0,7559.0 8577.0,7570.0 C 8573.0,7587.0 8577.0,7590.0 8600.0,7590.0 C 8620.0,7590.0 8631.0,7596.0 8635.0,7610.0 C 8638.0,7621.0 8646.0,7630.0 8651.0,7630.0 C 8656.0,7630.0 8660.0,7635.0 8660.0,7640.0 C 8660.0,7656.0 8608.0,7651.0 8588.0,7633.0 C 8576.0,7622.0 8570.0,7621.0 8570.0,7629.0 C 8570.0,7638.0 8561.0,7640.0 8540.0,7635.0 C 8498.0,7626.0 8424.0,7661.0 8408.0,7697.0 C 8393.0,7731.0 8382.0,7740.0 8351.0,7740.0 C 8332.0,7740.0 8330.0,7737.0 8340.0,7725.0 C 8360.0,7701.0 8343.0,7691.0 8304.0,7703.0 C 8277.0,7711.0 8264.0,7711.0 8249.0,7702.0 C 8225.0,7687.0 8167.0,7687.0 8152.0,7702.0 C 8143.0,7711.0 8140.0,7710.0 8140.0,7697.0 C 8140.0,7688.0 8136.0,7680.0 8130.0,7680.0 C 8125.0,7680.0 8120.0,7682.0 8120.0,7685.0 C 8120.0,7694.0 8144.0,7734.0 8156.0,7745.0 C 8163.0,7750.0 8171.0,7779.0 8174.0,7808.0 C 8182.0,7867.0 8177.0,7870.0 8094.0,7849.0 C 8060.0,7840.0 8047.0,7840.0 8035.0,7850.0 C 8013.0,7868.0 7987.0,7854.0 7993.0,7829.0 C 7998.0,7811.0 7995.0,7809.0 7974.0,7813.0 C 7954.0,7816.0 7950.0,7813.0 7950.0,7794.0 C 7950.0,7762.0 7937.0,7757.0 7890.0,7771.0 C 7857.0,7781.0 7842.0,7781.0 7814.0,7771.0 C 7784.0,7760.0 7775.0,7761.0 7754.0,7775.0 L 7729.0,7791.0 L 7745.0,7760.0 C 7760.0,7730.0 7760.0,7727.0 7744.0,7716.0 C 7728.0,7704.0 7729.0,7703.0 7750.0,7697.0 C 7765.0,7693.0 7769.0,7687.0 7764.0,7678.0 C 7759.0,7671.0 7755.0,7643.0 7755.0,7615.0 C 7755.0,7571.0 7752.0,7565.0 7733.0,7562.0 C 7700.0,7557.0 7665.0,7598.0 7650.0,7659.0 C 7641.0,7699.0 7640.0,7714.0 7649.0,7723.0 C 7658.0,7732.0 7663.0,7732.0 7669.0,7721.0 C 7675.0,7712.0 7680.0,7711.0 7684.0,7719.0 C 7688.0,7725.0 7688.0,7730.0 7683.0,7730.0 C 7679.0,7730.0 7665.0,7752.0 7653.0,7778.0 C 7636.0,7814.0 7615.0,7837.0 7566.0,7873.0 C 7512.0,7911.0 7500.0,7925.0 7500.0,7947.0 L 7500.0,7975.0 L 7487.0,7950.0 C 7465.0,7906.0 7401.0,7911.0 7351.0,7960.0 C 7334.0,7977.0 7319.0,7986.0 7315.0,7980.0 C 7300.0,7956.0 7220.0,7977.0 7220.0,8005.0 C 7220.0,8026.0 7207.0,8024.0 7192.0,8000.0 C 7176.0,7973.0 7166.0,7975.0 7135.0,8007.0 C 7108.0,8037.0 7101.0,8028.0 7125.0,7996.0 C 7149.0,7964.0 7142.0,7957.0 7110.0,7980.0 C 7094.0,7992.0 7080.0,8007.0 7080.0,8015.0 C 7080.0,8022.0 7074.0,8039.0 7067.0,8053.0 C 7055.0,8076.0 7052.0,8077.0 7039.0,8064.0 C 7026.0,8051.0 7015.0,8057.0 6953.0,8114.0 C 6914.0,8149.0 6884.0,8180.0 6886.0,8183.0 C 6889.0,8186.0 6875.0,8198.0 6855.0,8210.0 C 6836.0,8222.0 6815.0,8241.0 6809.0,8252.0 C 6799.0,8270.0 6792.0,8271.0 6752.0,8265.0 C 6661.0,8251.0 6629.0,8254.0 6606.0,8281.0 C 6594.0,8295.0 6579.0,8305.0 6574.0,8303.0 C 6568.0,8301.0 6555.0,8309.0 6545.0,8320.0 C 6535.0,8331.0 6517.0,8340.0 6504.0,8340.0 C 6491.0,8340.0 6479.0,8344.0 6476.0,8349.0 C 6473.0,8354.0 6456.0,8360.0 6438.0,8363.0 C 6420.0,8365.0 6380.0,8378.0 6350.0,8390.0 C 6320.0,8402.0 6275.0,8416.0 6250.0,8421.0 C 6226.0,8426.0 6175.0,8440.0 6138.0,8452.0 C 6079.0,8471.0 6064.0,8472.0 6027.0,8463.0 C 6001.0,8456.0 5981.0,8455.0 5976.0,8461.0 C 5960.0,8476.0 5936.0,8471.0 5923.0,8450.0 M 5726.0,8365.0 C 5744.0,8352.0 5743.0,8351.0 5708.0,8350.0 C 5681.0,8350.0 5670.0,8354.0 5670.0,8365.0 C 5670.0,8384.0 5700.0,8384.0 5726.0,8365.0 M 9690.0,7493.0 C 9690.0,7488.0 9679.0,7475.0 9666.0,7462.0 C 9651.0,7448.0 9643.0,7431.0 9645.0,7415.0 C 9647.0,7397.0 9642.0,7390.0 9630.0,7390.0 C 9609.0,7390.0 9596.0,7416.0 9611.0,7426.0 C 9617.0,7429.0 9620.0,7443.0 9617.0,7457.0 C 9614.0,7474.0 9616.0,7480.0 9625.0,7476.0 C 9632.0,7474.0 9646.0,7478.0 9657.0,7485.0 C 9677.0,7501.0 9690.0,7504.0 9690.0,7493.0 M 6460.0,6338.0 C 6460.0,6315.0 6444.0,6299.0 6427.0,6306.0 C 6407.0,6313.0 6406.0,6322.0 6422.0,6338.0 C 6438.0,6354.0 6460.0,6353.0 6460.0,6338.0 M 6515.0,6304.0 C 6538.0,6248.0 6535.0,6233.0 6500.0,6234.0 C 6480.0,6235.0 6468.0,6242.0 6461.0,6258.0 C 6450.0,6282.0 6459.0,6287.0 6478.0,6268.0 C 6487.0,6259.0 6490.0,6259.0 6490.0,6271.0 C 6490.0,6279.0 6485.0,6291.0 6480.0,6296.0 C 6468.0,6308.0 6477.0,6340.0 6491.0,6340.0 C 6496.0,6340.0 6507.0,6324.0 6515.0,6304.0 M 6390.0,6210.0 C 6390.0,6205.0 6388.0,6200.0 6386.0,6200.0 C 6383.0,6200.0 6378.0,6205.0 6375.0,6210.0 C 6372.0,6216.0 6374.0,6220.0 6379.0,6220.0 C 6385.0,6220.0 6390.0,6216.0 6390.0,6210.0 M 6687.0,6186.0 C 6683.0,6177.0 6675.0,6170.0 6668.0,6170.0 C 6659.0,6170.0 6659.0,6173.0 6667.0,6181.0 C 6673.0,6187.0 6676.0,6200.0 6673.0,6209.0 C 6668.0,6222.0 6670.0,6222.0 6680.0,6213.0 C 6687.0,6207.0 6690.0,6194.0 6687.0,6186.0 M 6200.0,6169.0 C 6200.0,6164.0 6196.0,6160.0 6190.0,6160.0 C 6185.0,6160.0 6180.0,6167.0 6180.0,6176.0 C 6180.0,6184.0 6185.0,6188.0 6190.0,6185.0 C 6196.0,6182.0 6200.0,6175.0 6200.0,6169.0 M 6394.0,6154.0 C 6412.0,6147.0 6416.0,6106.0 6398.0,6112.0 C 6392.0,6114.0 6383.0,6126.0 6379.0,6138.0 C 6370.0,6162.0 6371.0,6163.0 6394.0,6154.0 M 6340.0,6140.0 C 6340.0,6135.0 6335.0,6130.0 6329.0,6130.0 C 6324.0,6130.0 6322.0,6135.0 6325.0,6140.0 C 6328.0,6146.0 6333.0,6150.0 6336.0,6150.0 C 6338.0,6150.0 6340.0,6146.0 6340.0,6140.0 M 6220.0,4940.0 C 6220.0,4935.0 6218.0,4930.0 6216.0,4930.0 C 6213.0,4930.0 6208.0,4935.0 6205.0,4940.0 C 6202.0,4946.0 6204.0,4950.0 6209.0,4950.0 C 6215.0,4950.0 6220.0,4946.0 6220.0,4940.0 M 8911.0,4584.0 C 8926.0,4568.0 8929.0,4561.0 8918.0,4565.0 C 8909.0,4569.0 8899.0,4567.0 8895.0,4561.0 C 8892.0,4555.0 8881.0,4550.0 8872.0,4550.0 C 8851.0,4549.0 8800.0,4506.0 8800.0,4489.0 C 8800.0,4482.0 8786.0,4489.0 8770.0,4505.0 C 8753.0,4521.0 8743.0,4537.0 8747.0,4540.0 C 8752.0,4544.0 8783.0,4557.0 8818.0,4571.0 C 8852.0,4584.0 8880.0,4598.0 8880.0,4602.0 C 8880.0,4615.0 8885.0,4612.0 8911.0,4584.0 M 8997.0,4548.0 C 8994.0,4540.0 8991.0,4543.0 8991.0,4554.0 C 8990.0,4565.0 8993.0,4571.0 8996.0,4567.0 C 8999.0,4564.0 9000.0,4555.0 8997.0,4548.0 M 9207.0,4535.0 C 9203.0,4527.0 9190.0,4520.0 9178.0,4521.0 L 9155.0,4521.0 L 9178.0,4530.0 C 9190.0,4535.0 9200.0,4545.0 9200.0,4551.0 C 9200.0,4558.0 9203.0,4561.0 9206.0,4557.0 C 9210.0,4554.0 9210.0,4544.0 9207.0,4535.0 M 9243.0,4532.0 C 9233.0,4522.0 9223.0,4515.0 9221.0,4516.0 C 9215.0,4521.0 9241.0,4550.0 9251.0,4550.0 C 9256.0,4550.0 9252.0,4542.0 9243.0,4532.0 M 9000.0,4501.0 C 9000.0,4468.0 8988.0,4449.0 8973.0,4458.0 C 8955.0,4469.0 8968.0,4540.0 8986.0,4533.0 C 8994.0,4530.0 9000.0,4516.0 9000.0,4501.0 M 9057.0,4482.0 C 9044.0,4468.0 9043.0,4461.0 9052.0,4452.0 C 9068.0,4436.0 9060.0,4431.0 9026.0,4437.0 L 8997.0,4443.0 L 9031.0,4471.0 C 9070.0,4504.0 9080.0,4508.0 9057.0,4482.0 M 9232.0,4455.0 C 9241.0,4451.0 9245.0,4439.0 9242.0,4422.0 C 9239.0,4400.0 9233.0,4395.0 9207.0,4392.0 C 9153.0,4388.0 9142.0,4385.0 9123.0,4367.0 C 9105.0,4352.0 9104.0,4352.0 9102.0,4380.0 C 9100.0,4412.0 9099.0,4412.0 9185.0,4414.0 C 9209.0,4415.0 9215.0,4419.0 9214.0,4438.0 C 9213.0,4463.0 9213.0,4462.0 9232.0,4455.0 M 8400.0,3575.0 C 8418.0,3556.0 8431.0,3537.0 8427.0,3534.0 C 8417.0,3524.0 8317.0,3544.0 8313.0,3557.0 C 8309.0,3568.0 8347.0,3610.0 8360.0,3610.0 C 8363.0,3610.0 8381.0,3594.0 8400.0,3575.0 M 5123.0,2713.0 C 5127.0,2703.0 5140.0,2682.0 5152.0,2667.0 C 5175.0,2639.0 5175.0,2638.0 5156.0,2624.0 C 5132.0,2607.0 5076.0,2596.0 5054.0,2604.0 C 5040.0,2609.0 5041.0,2613.0 5059.0,2636.0 C 5071.0,2651.0 5080.0,2668.0 5080.0,2675.0 C 5080.0,2682.0 5087.0,2691.0 5096.0,2694.0 C 5105.0,2698.0 5110.0,2707.0 5106.0,2715.0 C 5103.0,2723.0 5104.0,2730.0 5109.0,2730.0 C 5114.0,2730.0 5120.0,2722.0 5123.0,2713.0 M 5340.0,2675.0 C 5340.0,2665.0 5330.0,2660.0 5314.0,2660.0 C 5292.0,2660.0 5289.0,2662.0 5300.0,2675.0 C 5307.0,2683.0 5319.0,2690.0 5326.0,2690.0 C 5334.0,2690.0 5340.0,2683.0 5340.0,2675.0 M 2270.0,2330.0 C 2270.0,2325.0 2266.0,2320.0 2260.0,2320.0 C 2255.0,2320.0 2250.0,2325.0 2250.0,2330.0 C 2250.0,2336.0 2255.0,2340.0 2260.0,2340.0 C 2266.0,2340.0 2270.0,2336.0 2270.0,2330.0 M 2440.0,2290.0 C 2440.0,2285.0 2436.0,2280.0 2430.0,2280.0 C 2425.0,2280.0 2420.0,2285.0 2420.0,2290.0 C 2420.0,2296.0 2425.0,2300.0 2430.0,2300.0 C 2436.0,2300.0 2440.0,2296.0 2440.0,2290.0 M 4192.0,2094.0 C 4211.0,2082.0 4197.0,2074.0 4158.0,2074.0 C 4124.0,2075.0 4114.0,2079.0 4112.0,2094.0 C 4108.0,2111.0 4112.0,2112.0 4146.0,2105.0 C 4168.0,2101.0 4188.0,2096.0 4192.0,2094.0" fill="pink"/>
	<path d="M 4468.0,4779.0 C 4384.0,4772.0 4330.0,4747.0 4266.0,4686.0 C 4237.0,4660.0 4230.0,4645.0 4230.0,4616.0 C 4230.0,4577.0 4242.0,4561.0 4313.0,4507.0 C 4334.0,4492.0 4368.0,4455.0 4389.0,4426.0 C 4412.0,4396.0 4440.0,4370.0 4454.0,4366.0 C 4467.0,4363.0 4488.0,4344.0 4500.0,4325.0 C 4520.0,4292.0 4525.0,4290.0 4575.0,4290.0 C 4605.0,4290.0 4651.0,4282.0 4677.0,4271.0 C 4703.0,4261.0 4748.0,4249.0 4777.0,4245.0 C 4813.0,4240.0 4848.0,4225.0 4894.0,4196.0 C 4930.0,4172.0 4977.0,4150.0 5000.0,4146.0 C 5027.0,4142.0 5044.0,4133.0 5047.0,4122.0 C 5055.0,4097.0 5156.0,4013.0 5214.0,3985.0 C 5272.0,3958.0 5384.0,3940.0 5501.0,3940.0 C 5568.0,3940.0 5594.0,3935.0 5656.0,3909.0 C 5714.0,3885.0 5741.0,3879.0 5771.0,3883.0 C 5803.0,3887.0 5810.0,3885.0 5806.0,3874.0 C 5802.0,3863.0 5810.0,3860.0 5840.0,3860.0 C 5876.0,3860.0 5880.0,3857.0 5880.0,3835.0 C 5880.0,3809.0 5932.0,3752.0 5939.0,3771.0 C 5941.0,3777.0 5937.0,3787.0 5931.0,3793.0 C 5916.0,3808.0 5917.0,3820.0 5935.0,3820.0 C 5944.0,3820.0 5954.0,3811.0 5958.0,3799.0 C 5965.0,3781.0 5968.0,3780.0 5978.0,3793.0 C 5987.0,3804.0 5986.0,3811.0 5970.0,3825.0 C 5934.0,3858.0 5947.0,3891.0 6003.0,3905.0 C 6035.0,3913.0 6035.0,3911.0 6011.0,3952.0 C 6001.0,3970.0 5990.0,4008.0 5987.0,4036.0 C 5983.0,4075.0 5970.0,4103.0 5939.0,4150.0 C 5898.0,4209.0 5836.0,4270.0 5816.0,4270.0 C 5811.0,4270.0 5799.0,4276.0 5791.0,4283.0 C 5767.0,4303.0 5638.0,4350.0 5614.0,4348.0 C 5582.0,4345.0 5361.0,4441.0 5326.0,4474.0 C 5309.0,4490.0 5261.0,4519.0 5220.0,4537.0 C 5179.0,4556.0 5139.0,4577.0 5132.0,4583.0 C 5104.0,4606.0 5012.0,4633.0 4940.0,4640.0 C 4864.0,4647.0 4817.0,4666.0 4670.0,4747.0 C 4605.0,4783.0 4571.0,4788.0 4468.0,4779.0" fill="pink"/>
	<path d="M 2535.0,3559.0 C 2490.0,3533.0 2450.0,3486.0 2450.0,3459.0 C 2450.0,3432.0 2472.0,3400.0 2491.0,3400.0 C 2497.0,3400.0 2520.0,3391.0 2542.0,3380.0 C 2565.0,3369.0 2591.0,3360.0 2600.0,3360.0 C 2609.0,3360.0 2620.0,3356.0 2626.0,3350.0 C 2639.0,3337.0 2728.0,3380.0 2761.0,3416.0 C 2816.0,3477.0 2806.0,3497.0 2705.0,3536.0 C 2624.0,3567.0 2563.0,3575.0 2535.0,3559.0" fill="pink"/>
	<path d="M 2760.0,1545.0 C 2760.0,1536.0 2776.0,1513.0 2795.0,1496.0 C 2814.0,1478.0 2830.0,1459.0 2830.0,1454.0 C 2831.0,1449.0 2844.0,1430.0 2860.0,1411.0 C 2885.0,1382.0 2894.0,1378.0 2932.0,1380.0 C 2990.0,1382.0 2989.0,1382.0 3111.0,1374.0 C 3215.0,1367.0 3218.0,1368.0 3230.0,1389.0 C 3239.0,1408.0 3239.0,1415.0 3226.0,1429.0 C 3217.0,1439.0 3210.0,1451.0 3210.0,1457.0 C 3210.0,1472.0 3152.0,1520.0 3134.0,1520.0 C 3126.0,1520.0 3095.0,1506.0 3065.0,1489.0 C 3000.0,1453.0 2954.0,1455.0 2913.0,1496.0 C 2900.0,1509.0 2884.0,1518.0 2879.0,1514.0 C 2873.0,1511.0 2858.0,1518.0 2846.0,1529.0 C 2832.0,1542.0 2817.0,1548.0 2806.0,1544.0 C 2797.0,1541.0 2783.0,1543.0 2775.0,1550.0 C 2763.0,1560.0 2760.0,1559.0 2760.0,1545.0" fill="pink"/>
</svg>
