<?xml version="1.0" ?>
<svg xmlns="http://www.w3.org/2000/svg" xmlns:ev="http://www.w3.org/2001/xml-events" xmlns:xlink="http://www.w3.org/1999/xlink" baseProfile="full" height="376px" version="1.1" viewBox="-1018.6190176703765 1275.0539720746856 12281.102589256605 7688.223681526519" width="600px">
	<defs/>
	<path d="M 8006.0,8304.0 C 7997.0,8296.0 7990.0,8284.0 7990.0,8279.0 C 7990.0,8273.0 7971.0,8272.0 7943.0,8275.0 C 7879.0,8284.0 7850.0,8271.0 7836.0,8229.0 C 7827.0,8200.0 7820.0,8194.0 7791.0,8192.0 C 7773.0,8190.0 7753.0,8193.0 7747.0,8199.0 C 7732.0,8214.0 7699.0,8212.0 7676.0,8195.0 C 7665.0,8187.0 7646.0,8180.0 7634.0,8180.0 C 7621.0,8180.0 7602.0,8166.0 7586.0,8145.0 C 7556.0,8106.0 7535.0,8100.0 7527.0,8129.0 C 7516.0,8172.0 7450.0,8189.0 7359.0,8174.0 C 7328.0,8169.0 7320.0,8172.0 7298.0,8198.0 C 7278.0,8222.0 7264.0,8228.0 7218.0,8232.0 C 7176.0,8235.0 7154.0,8243.0 7130.0,8263.0 C 7094.0,8294.0 7081.0,8295.0 7025.0,8274.0 C 7003.0,8265.0 6969.0,8259.0 6949.0,8260.0 C 6928.0,8260.0 6908.0,8254.0 6900.0,8245.0 C 6893.0,8237.0 6880.0,8230.0 6871.0,8230.0 C 6848.0,8230.0 6785.0,8207.0 6767.0,8191.0 C 6756.0,8182.0 6746.0,8182.0 6733.0,8189.0 C 6721.0,8195.0 6708.0,8195.0 6699.0,8189.0 C 6692.0,8184.0 6674.0,8180.0 6661.0,8180.0 C 6639.0,8180.0 6638.0,8178.0 6644.0,8135.0 C 6649.0,8104.0 6647.0,8085.0 6638.0,8075.0 C 6595.0,8027.0 6576.0,8000.0 6564.0,7969.0 C 6561.0,7960.0 6548.0,7948.0 6535.0,7942.0 C 6518.0,7934.0 6514.0,7926.0 6517.0,7906.0 C 6520.0,7892.0 6517.0,7873.0 6510.0,7866.0 C 6504.0,7858.0 6499.0,7843.0 6500.0,7833.0 C 6503.0,7804.0 6501.0,7792.0 6488.0,7778.0 C 6468.0,7757.0 6450.0,7722.0 6450.0,7705.0 C 6450.0,7697.0 6442.0,7686.0 6432.0,7681.0 C 6422.0,7676.0 6399.0,7649.0 6380.0,7621.0 C 6361.0,7593.0 6340.0,7570.0 6333.0,7570.0 C 6326.0,7570.0 6306.0,7577.0 6287.0,7586.0 C 6254.0,7602.0 6254.0,7602.0 6217.0,7565.0 C 6185.0,7533.0 6177.0,7530.0 6144.0,7536.0 C 6103.0,7544.0 6087.0,7530.0 6097.0,7493.0 C 6100.0,7480.0 6098.0,7470.0 6092.0,7470.0 C 6080.0,7470.0 6006.0,7399.0 6005.0,7387.0 C 6005.0,7371.0 5974.0,7361.0 5944.0,7366.0 C 5926.0,7369.0 5909.0,7367.0 5906.0,7361.0 C 5902.0,7355.0 5884.0,7343.0 5865.0,7334.0 C 5846.0,7325.0 5830.0,7314.0 5830.0,7309.0 C 5830.0,7294.0 5791.0,7260.0 5775.0,7260.0 C 5765.0,7260.0 5760.0,7268.0 5761.0,7283.0 C 5765.0,7325.0 5760.0,7337.0 5735.0,7348.0 C 5703.0,7363.0 5670.0,7363.0 5670.0,7350.0 C 5670.0,7344.0 5664.0,7340.0 5658.0,7342.0 C 5651.0,7343.0 5634.0,7338.0 5622.0,7331.0 C 5591.0,7314.0 5583.0,7324.0 5597.0,7360.0 C 5608.0,7388.0 5606.0,7392.0 5572.0,7420.0 C 5531.0,7454.0 5512.0,7457.0 5496.0,7434.0 C 5485.0,7420.0 5481.0,7420.0 5447.0,7436.0 C 5425.0,7446.0 5407.0,7463.0 5404.0,7476.0 C 5394.0,7515.0 5307.0,7519.0 5295.0,7481.0 C 5289.0,7462.0 5240.0,7430.0 5216.0,7430.0 C 5207.0,7430.0 5200.0,7422.0 5200.0,7411.0 C 5200.0,7400.0 5191.0,7389.0 5180.0,7385.0 C 5165.0,7380.0 5161.0,7370.0 5161.0,7342.0 C 5163.0,7280.0 5149.0,7215.0 5129.0,7189.0 C 5111.0,7167.0 5109.0,7166.0 5099.0,7183.0 C 5086.0,7206.0 5065.0,7205.0 5040.0,7180.0 C 5023.0,7163.0 5007.0,7160.0 4933.0,7160.0 C 4835.0,7160.0 4780.0,7138.0 4780.0,7100.0 C 4780.0,7081.0 4778.0,7080.0 4753.0,7093.0 C 4708.0,7116.0 4592.0,7132.0 4523.0,7124.0 C 4479.0,7120.0 4455.0,7121.0 4445.0,7130.0 C 4435.0,7139.0 4430.0,7139.0 4430.0,7131.0 C 4430.0,7125.0 4424.0,7120.0 4416.0,7120.0 C 4409.0,7120.0 4396.0,7113.0 4389.0,7104.0 C 4380.0,7093.0 4366.0,7090.0 4343.0,7093.0 C 4325.0,7096.0 4308.0,7095.0 4305.0,7090.0 C 4302.0,7085.0 4280.0,7081.0 4257.0,7082.0 C 4203.0,7085.0 4150.0,7064.0 4150.0,7039.0 C 4150.0,7029.0 4146.0,7018.0 4140.0,7015.0 C 4135.0,7012.0 4130.0,6994.0 4130.0,6975.0 C 4130.0,6944.0 4127.0,6941.0 4091.0,6935.0 C 4050.0,6928.0 4032.0,6906.0 4050.0,6885.0 C 4064.0,6868.0 4065.0,6824.0 4051.0,6774.0 C 4036.0,6717.0 4049.0,6682.0 4093.0,6656.0 C 4125.0,6638.0 4170.0,6584.0 4170.0,6563.0 C 4170.0,6560.0 4149.0,6560.0 4123.0,6563.0 C 4066.0,6569.0 4020.0,6550.0 3996.0,6509.0 C 3987.0,6493.0 3972.0,6480.0 3963.0,6480.0 C 3954.0,6480.0 3937.0,6472.0 3926.0,6461.0 C 3891.0,6430.0 3844.0,6419.0 3790.0,6431.0 C 3753.0,6439.0 3731.0,6438.0 3694.0,6427.0 C 3648.0,6414.0 3643.0,6414.0 3618.0,6433.0 C 3592.0,6452.0 3589.0,6452.0 3572.0,6437.0 C 3562.0,6428.0 3530.0,6416.0 3502.0,6410.0 C 3473.0,6405.0 3442.0,6396.0 3432.0,6392.0 C 3403.0,6376.0 3329.0,6369.0 3315.0,6380.0 C 3309.0,6385.0 3274.0,6392.0 3239.0,6395.0 C 3204.0,6397.0 3141.0,6406.0 3100.0,6414.0 C 3007.0,6433.0 2965.0,6434.0 2940.0,6418.0 C 2925.0,6408.0 2913.0,6408.0 2889.0,6417.0 C 2865.0,6426.0 2852.0,6426.0 2836.0,6418.0 C 2803.0,6400.0 2607.0,6399.0 2541.0,6416.0 C 2455.0,6438.0 2451.0,6440.0 2445.0,6461.0 C 2441.0,6471.0 2424.0,6488.0 2407.0,6497.0 C 2373.0,6514.0 2330.0,6555.0 2330.0,6571.0 C 2330.0,6581.0 2319.0,6583.0 2277.0,6580.0 C 2253.0,6579.0 2247.0,6585.0 2227.0,6629.0 C 2209.0,6672.0 2199.0,6682.0 2169.0,6690.0 C 2121.0,6703.0 2084.0,6734.0 2076.0,6766.0 C 2067.0,6802.0 2039.0,6838.0 1962.0,6913.0 C 1903.0,6970.0 1896.0,6974.0 1859.0,6971.0 C 1814.0,6968.0 1780.0,6990.0 1780.0,7022.0 C 1780.0,7033.0 1773.0,7040.0 1760.0,7040.0 C 1727.0,7040.0 1632.0,6997.0 1593.0,6963.0 C 1560.0,6936.0 1557.0,6929.0 1566.0,6913.0 C 1574.0,6900.0 1575.0,6888.0 1568.0,6877.0 C 1563.0,6867.0 1562.0,6851.0 1565.0,6840.0 C 1573.0,6816.0 1532.0,6720.0 1514.0,6720.0 C 1493.0,6720.0 1420.0,6696.0 1420.0,6689.0 C 1420.0,6686.0 1431.0,6673.0 1445.0,6660.0 C 1459.0,6647.0 1470.0,6630.0 1470.0,6622.0 C 1470.0,6613.0 1478.0,6598.0 1487.0,6588.0 C 1502.0,6571.0 1502.0,6568.0 1488.0,6554.0 C 1475.0,6541.0 1475.0,6531.0 1489.0,6461.0 C 1498.0,6418.0 1511.0,6375.0 1519.0,6366.0 C 1531.0,6352.0 1528.0,6350.0 1489.0,6350.0 C 1464.0,6350.0 1412.0,6341.0 1372.0,6330.0 C 1333.0,6319.0 1280.0,6310.0 1256.0,6310.0 C 1212.0,6310.0 1212.0,6310.0 1205.0,6350.0 C 1198.0,6389.0 1198.0,6389.0 1174.0,6374.0 C 1158.0,6363.0 1150.0,6348.0 1150.0,6329.0 L 1150.0,6300.0 L 1082.0,6300.0 L 1014.0,6300.0 L 994.0,6362.0 C 975.0,6422.0 974.0,6424.0 921.0,6441.0 C 892.0,6451.0 861.0,6465.0 854.0,6471.0 C 836.0,6486.0 730.0,6476.0 719.0,6458.0 C 714.0,6451.0 710.0,6434.0 710.0,6421.0 C 710.0,6397.0 685.0,6371.0 662.0,6370.0 C 655.0,6370.0 634.0,6359.0 616.0,6345.0 C 598.0,6331.0 580.0,6323.0 577.0,6327.0 C 568.0,6336.0 530.0,6295.0 530.0,6277.0 C 530.0,6269.0 549.0,6257.0 573.0,6250.0 C 596.0,6242.0 620.0,6232.0 627.0,6227.0 C 634.0,6222.0 643.0,6221.0 648.0,6224.0 C 654.0,6227.0 684.0,6212.0 716.0,6190.0 C 768.0,6155.0 776.0,6152.0 790.0,6165.0 C 799.0,6173.0 818.0,6180.0 832.0,6180.0 C 852.0,6180.0 860.0,6173.0 870.0,6148.0 C 876.0,6130.0 885.0,6108.0 890.0,6099.0 C 894.0,6091.0 894.0,6076.0 888.0,6067.0 C 877.0,6047.0 885.0,6030.0 905.0,6030.0 C 917.0,6030.0 930.0,6006.0 936.0,5971.0 C 939.0,5954.0 911.0,5924.0 882.0,5915.0 C 863.0,5909.0 860.0,5904.0 866.0,5875.0 C 873.0,5837.0 848.0,5780.0 824.0,5780.0 C 816.0,5780.0 807.0,5773.0 804.0,5765.0 C 800.0,5757.0 791.0,5750.0 783.0,5750.0 C 776.0,5750.0 758.0,5738.0 745.0,5724.0 C 728.0,5706.0 715.0,5700.0 700.0,5705.0 C 689.0,5709.0 666.0,5705.0 648.0,5696.0 C 618.0,5681.0 616.0,5681.0 597.0,5700.0 C 587.0,5712.0 571.0,5720.0 562.0,5718.0 C 548.0,5715.0 546.0,5704.0 548.0,5664.0 C 550.0,5628.0 547.0,5610.0 536.0,5600.0 C 514.0,5582.0 516.0,5569.0 545.0,5545.0 C 577.0,5520.0 591.0,5450.0 574.0,5400.0 C 568.0,5381.0 558.0,5365.0 554.0,5365.0 C 534.0,5364.0 522.0,5348.0 516.0,5310.0 C 512.0,5283.0 505.0,5270.0 494.0,5270.0 C 467.0,5270.0 480.0,5216.0 508.0,5212.0 C 537.0,5208.0 556.0,5164.0 539.0,5143.0 C 519.0,5119.0 542.0,5105.0 581.0,5119.0 C 624.0,5134.0 627.0,5133.0 633.0,5108.0 C 638.0,5092.0 629.0,5078.0 600.0,5051.0 C 579.0,5031.0 558.0,5003.0 555.0,4989.0 C 549.0,4965.0 552.0,4961.0 584.0,4950.0 C 631.0,4935.0 630.0,4913.0 583.0,4904.0 C 538.0,4896.0 510.0,4883.0 510.0,4870.0 C 510.0,4864.0 519.0,4860.0 530.0,4860.0 C 541.0,4860.0 550.0,4854.0 550.0,4846.0 C 550.0,4838.0 559.0,4828.0 570.0,4825.0 C 593.0,4818.0 595.0,4807.0 577.0,4792.0 C 569.0,4785.0 559.0,4785.0 550.0,4790.0 C 542.0,4796.0 520.0,4797.0 503.0,4794.0 C 480.0,4790.0 470.0,4792.0 470.0,4800.0 C 470.0,4809.0 460.0,4810.0 436.0,4806.0 C 415.0,4802.0 399.0,4804.0 395.0,4810.0 C 391.0,4816.0 381.0,4818.0 371.0,4814.0 C 348.0,4804.0 290.0,4803.0 290.0,4812.0 C 290.0,4816.0 286.0,4820.0 280.0,4820.0 C 275.0,4820.0 270.0,4814.0 270.0,4806.0 C 270.0,4799.0 263.0,4787.0 255.0,4780.0 C 247.0,4773.0 240.0,4761.0 240.0,4753.0 C 240.0,4726.0 182.0,4678.0 153.0,4682.0 C 130.0,4685.0 125.0,4680.0 113.0,4643.0 C 105.0,4619.0 94.0,4600.0 88.0,4600.0 C 82.0,4600.0 60.0,4582.0 39.0,4561.0 C 7.0,4527.0 3.0,4520.0 16.0,4509.0 C 28.0,4499.0 50.0,4499.0 124.0,4509.0 C 233.0,4524.0 264.0,4519.0 307.0,4480.0 C 337.0,4453.0 339.0,4447.0 333.0,4405.0 C 329.0,4370.0 323.0,4360.0 309.0,4360.0 C 289.0,4360.0 282.0,4326.0 299.0,4316.0 C 303.0,4313.0 305.0,4299.0 302.0,4285.0 C 300.0,4270.0 304.0,4252.0 313.0,4242.0 C 322.0,4233.0 333.0,4212.0 339.0,4196.0 C 346.0,4178.0 355.0,4170.0 365.0,4173.0 C 374.0,4177.0 380.0,4171.0 382.0,4153.0 C 384.0,4132.0 393.0,4124.0 418.0,4118.0 C 461.0,4106.0 461.0,4063.0 418.0,4047.0 C 386.0,4035.0 399.0,4003.0 460.0,3944.0 C 493.0,3911.0 525.0,3872.0 531.0,3857.0 C 538.0,3841.0 553.0,3824.0 566.0,3820.0 C 585.0,3812.0 589.0,3801.0 595.0,3745.0 C 602.0,3682.0 605.0,3677.0 634.0,3664.0 C 651.0,3656.0 672.0,3646.0 680.0,3641.0 C 688.0,3636.0 702.0,3629.0 710.0,3625.0 C 787.0,3593.0 815.0,3565.0 866.0,3463.0 C 869.0,3456.0 881.0,3450.0 891.0,3450.0 C 901.0,3450.0 910.0,3444.0 910.0,3437.0 C 910.0,3420.0 965.0,3397.0 988.0,3404.0 C 999.0,3408.0 1012.0,3404.0 1020.0,3395.0 C 1027.0,3387.0 1040.0,3380.0 1049.0,3380.0 C 1087.0,3380.0 1114.0,3333.0 1121.0,3254.0 C 1126.0,3203.0 1134.0,3172.0 1147.0,3158.0 C 1168.0,3134.0 1247.0,3080.0 1261.0,3080.0 C 1266.0,3080.0 1270.0,3071.0 1270.0,3060.0 C 1270.0,3047.0 1277.0,3040.0 1288.0,3040.0 C 1298.0,3040.0 1321.0,3029.0 1340.0,3015.0 C 1359.0,3001.0 1378.0,2990.0 1382.0,2990.0 C 1387.0,2990.0 1414.0,2974.0 1443.0,2955.0 C 1471.0,2936.0 1500.0,2920.0 1507.0,2920.0 C 1531.0,2920.0 1581.0,2856.0 1575.0,2833.0 C 1567.0,2801.0 1579.0,2780.0 1606.0,2780.0 C 1630.0,2780.0 1635.0,2769.0 1632.0,2728.0 C 1631.0,2718.0 1636.0,2713.0 1643.0,2716.0 C 1651.0,2719.0 1662.0,2710.0 1668.0,2695.0 C 1675.0,2681.0 1687.0,2667.0 1695.0,2664.0 C 1703.0,2660.0 1710.0,2647.0 1710.0,2634.0 C 1710.0,2620.0 1717.0,2607.0 1725.0,2603.0 C 1738.0,2598.0 1738.0,2595.0 1720.0,2583.0 C 1703.0,2571.0 1701.0,2565.0 1711.0,2554.0 C 1717.0,2546.0 1731.0,2540.0 1741.0,2540.0 C 1752.0,2540.0 1760.0,2533.0 1760.0,2523.0 C 1761.0,2493.0 1797.0,2458.0 1820.0,2465.0 C 1842.0,2472.0 1848.0,2452.0 1829.0,2433.0 C 1822.0,2426.0 1820.0,2414.0 1824.0,2405.0 C 1828.0,2393.0 1837.0,2390.0 1859.0,2395.0 C 1879.0,2399.0 1889.0,2397.0 1893.0,2387.0 C 1896.0,2379.0 1914.0,2373.0 1934.0,2372.0 C 1964.0,2371.0 1970.0,2374.0 1970.0,2390.0 C 1970.0,2411.0 2003.0,2419.0 2014.0,2401.0 C 2019.0,2393.0 2041.0,2388.0 2143.0,2375.0 C 2163.0,2372.0 2196.0,2360.0 2215.0,2348.0 C 2247.0,2326.0 2290.0,2259.0 2290.0,2229.0 C 2290.0,2200.0 2329.0,2150.0 2352.0,2150.0 C 2403.0,2150.0 2451.0,2137.0 2460.0,2120.0 C 2469.0,2104.0 2504.0,2091.0 2557.0,2087.0 C 2571.0,2086.0 2581.0,2076.0 2585.0,2062.0 C 2588.0,2050.0 2595.0,2040.0 2600.0,2040.0 C 2606.0,2040.0 2610.0,2034.0 2610.0,2026.0 C 2610.0,2000.0 2633.0,1996.0 2650.0,2018.0 C 2664.0,2035.0 2681.0,2039.0 2756.0,2043.0 C 2837.0,2047.0 2848.0,2045.0 2871.0,2025.0 C 2886.0,2013.0 2919.0,2000.0 2946.0,1996.0 C 2986.0,1991.0 2997.0,1993.0 3015.0,2010.0 C 3039.0,2032.0 3080.0,2036.0 3098.0,2018.0 C 3107.0,2009.0 3113.0,2009.0 3122.0,2018.0 C 3142.0,2038.0 3166.0,2032.0 3210.0,1995.0 C 3233.0,1976.0 3255.0,1960.0 3258.0,1960.0 C 3262.0,1960.0 3293.0,1958.0 3328.0,1956.0 C 3374.0,1953.0 3390.0,1955.0 3390.0,1965.0 C 3390.0,1984.0 3418.0,1991.0 3440.0,1977.0 C 3451.0,1971.0 3460.0,1958.0 3460.0,1949.0 C 3460.0,1930.0 3480.0,1920.0 3516.0,1920.0 C 3535.0,1920.0 3542.0,1926.0 3547.0,1950.0 C 3551.0,1971.0 3558.0,1980.0 3572.0,1980.0 C 3585.0,1980.0 3596.0,1991.0 3603.0,2009.0 C 3612.0,2034.0 3616.0,2036.0 3632.0,2027.0 C 3646.0,2018.0 3654.0,2018.0 3668.0,2027.0 C 3677.0,2034.0 3700.0,2046.0 3718.0,2054.0 C 3735.0,2062.0 3750.0,2073.0 3750.0,2077.0 C 3750.0,2081.0 3763.0,2099.0 3778.0,2115.0 C 3793.0,2132.0 3812.0,2160.0 3819.0,2178.0 C 3828.0,2198.0 3839.0,2210.0 3852.0,2210.0 C 3863.0,2210.0 3868.0,2214.0 3864.0,2221.0 C 3861.0,2227.0 3866.0,2249.0 3876.0,2271.0 C 3897.0,2314.0 3928.0,2322.0 3964.0,2295.0 C 3975.0,2287.0 3992.0,2280.0 4002.0,2280.0 C 4012.0,2280.0 4020.0,2276.0 4020.0,2270.0 C 4020.0,2259.0 4073.0,2230.0 4094.0,2230.0 C 4103.0,2230.0 4110.0,2242.0 4112.0,2263.0 C 4115.0,2291.0 4118.0,2295.0 4147.0,2296.0 C 4165.0,2296.0 4193.0,2308.0 4215.0,2324.0 C 4244.0,2347.0 4258.0,2351.0 4283.0,2345.0 C 4301.0,2342.0 4337.0,2336.0 4364.0,2333.0 L 4413.0,2328.0 L 4407.0,2358.0 C 4398.0,2402.0 4438.0,2434.0 4491.0,2425.0 L 4528.0,2419.0 L 4519.0,2465.0 C 4511.0,2506.0 4513.0,2515.0 4537.0,2551.0 C 4558.0,2583.0 4569.0,2590.0 4589.0,2588.0 C 4611.0,2585.0 4616.0,2578.0 4623.0,2539.0 C 4631.0,2494.0 4633.0,2492.0 4671.0,2486.0 C 4693.0,2482.0 4719.0,2484.0 4728.0,2489.0 C 4738.0,2494.0 4773.0,2495.0 4808.0,2491.0 C 4863.0,2485.0 4870.0,2486.0 4864.0,2499.0 C 4861.0,2508.0 4856.0,2520.0 4854.0,2525.0 C 4852.0,2531.0 4877.0,2552.0 4910.0,2574.0 C 4958.0,2605.0 4973.0,2610.0 4985.0,2600.0 C 4993.0,2593.0 5009.0,2591.0 5022.0,2595.0 C 5050.0,2604.0 5130.0,2679.0 5130.0,2697.0 C 5130.0,2704.0 5148.0,2719.0 5170.0,2730.0 C 5215.0,2753.0 5229.0,2775.0 5211.0,2793.0 C 5195.0,2809.0 5197.0,2830.0 5215.0,2830.0 C 5223.0,2830.0 5245.0,2847.0 5265.0,2867.0 C 5292.0,2895.0 5303.0,2901.0 5312.0,2892.0 C 5330.0,2874.0 5381.0,2877.0 5402.0,2897.0 C 5413.0,2907.0 5434.0,2913.0 5451.0,2912.0 C 5482.0,2909.0 5546.0,2874.0 5569.0,2846.0 C 5576.0,2837.0 5590.0,2830.0 5600.0,2830.0 C 5610.0,2830.0 5623.0,2823.0 5630.0,2815.0 C 5647.0,2794.0 5677.0,2796.0 5710.0,2820.0 C 5725.0,2831.0 5746.0,2841.0 5756.0,2843.0 C 5783.0,2847.0 5834.0,2876.0 5849.0,2894.0 C 5863.0,2910.0 5916.0,2915.0 5956.0,2904.0 C 5968.0,2901.0 5983.0,2884.0 5991.0,2867.0 C 6008.0,2829.0 6048.0,2817.0 6056.0,2847.0 C 6059.0,2858.0 6070.0,2872.0 6081.0,2878.0 C 6098.0,2889.0 6105.0,2887.0 6131.0,2865.0 C 6163.0,2838.0 6190.0,2834.0 6220.0,2850.0 C 6245.0,2863.0 6270.0,2853.0 6270.0,2829.0 C 6270.0,2818.0 6277.0,2810.0 6288.0,2810.0 C 6297.0,2810.0 6318.0,2803.0 6334.0,2795.0 C 6366.0,2778.0 6368.0,2779.0 6384.0,2812.0 C 6390.0,2825.0 6410.0,2840.0 6427.0,2845.0 C 6444.0,2851.0 6467.0,2863.0 6478.0,2873.0 C 6495.0,2888.0 6499.0,2889.0 6509.0,2876.0 C 6516.0,2868.0 6527.0,2863.0 6535.0,2866.0 C 6542.0,2869.0 6564.0,2864.0 6585.0,2856.0 C 6606.0,2847.0 6635.0,2840.0 6649.0,2840.0 C 6682.0,2840.0 6720.0,2877.0 6720.0,2908.0 C 6720.0,2927.0 6726.0,2930.0 6758.0,2930.0 C 6788.0,2930.0 6803.0,2923.0 6830.0,2895.0 C 6849.0,2876.0 6868.0,2860.0 6873.0,2860.0 C 6877.0,2860.0 6895.0,2847.0 6913.0,2830.0 L 6944.0,2801.0 L 6956.0,2830.0 C 6967.0,2856.0 6972.0,2858.0 7002.0,2854.0 C 7032.0,2849.0 7037.0,2852.0 7059.0,2891.0 C 7072.0,2915.0 7083.0,2947.0 7082.0,2962.0 C 7081.0,2986.0 7085.0,2990.0 7107.0,2990.0 C 7132.0,2990.0 7132.0,2992.0 7126.0,3036.0 C 7120.0,3085.0 7140.0,3143.0 7163.0,3138.0 C 7170.0,3137.0 7184.0,3141.0 7195.0,3147.0 C 7224.0,3163.0 7300.0,3174.0 7300.0,3162.0 C 7300.0,3157.0 7317.0,3145.0 7337.0,3137.0 C 7371.0,3124.0 7376.0,3124.0 7387.0,3139.0 C 7398.0,3153.0 7401.0,3153.0 7415.0,3133.0 C 7432.0,3109.0 7482.0,3102.0 7510.0,3120.0 C 7520.0,3126.0 7531.0,3124.0 7545.0,3111.0 C 7576.0,3083.0 7608.0,3078.0 7620.0,3101.0 C 7626.0,3111.0 7637.0,3120.0 7645.0,3120.0 C 7654.0,3120.0 7661.0,3136.0 7666.0,3165.0 C 7669.0,3190.0 7677.0,3211.0 7684.0,3212.0 C 7690.0,3212.0 7713.0,3214.0 7735.0,3214.0 C 7774.0,3215.0 7775.0,3216.0 7772.0,3248.0 C 7770.0,3269.0 7776.0,3289.0 7789.0,3306.0 C 7803.0,3324.0 7807.0,3340.0 7803.0,3364.0 C 7800.0,3384.0 7804.0,3409.0 7814.0,3428.0 C 7829.0,3458.0 7834.0,3460.0 7883.0,3460.0 L 7935.0,3460.0 L 7960.0,3511.0 C 7982.0,3558.0 7982.0,3563.0 7967.0,3572.0 C 7958.0,3577.0 7950.0,3589.0 7950.0,3600.0 C 7950.0,3612.0 7942.0,3620.0 7928.0,3622.0 C 7907.0,3625.0 7905.0,3630.0 7907.0,3686.0 C 7908.0,3735.0 7914.0,3757.0 7938.0,3795.0 C 7963.0,3835.0 7966.0,3847.0 7957.0,3862.0 C 7947.0,3877.0 7949.0,3888.0 7965.0,3917.0 C 7987.0,3957.0 8030.0,3976.0 8061.0,3960.0 C 8087.0,3945.0 8120.0,3948.0 8120.0,3964.0 C 8120.0,3972.0 8135.0,3990.0 8153.0,4004.0 L 8185.0,4030.0 L 8163.0,4045.0 C 8138.0,4062.0 8132.0,4096.0 8153.0,4098.0 C 8159.0,4099.0 8183.0,4101.0 8204.0,4102.0 C 8236.0,4104.0 8247.0,4111.0 8261.0,4135.0 C 8286.0,4178.0 8284.0,4205.0 8255.0,4224.0 C 8228.0,4242.0 8221.0,4284.0 8244.0,4293.0 C 8259.0,4299.0 8276.0,4370.0 8272.0,4406.0 C 8270.0,4422.0 8282.0,4433.0 8324.0,4453.0 C 8358.0,4470.0 8381.0,4488.0 8386.0,4502.0 C 8390.0,4515.0 8397.0,4528.0 8403.0,4532.0 C 8410.0,4536.0 8407.0,4548.0 8396.0,4565.0 C 8376.0,4596.0 8382.0,4640.0 8406.0,4640.0 C 8414.0,4640.0 8437.0,4656.0 8457.0,4676.0 C 8489.0,4709.0 8494.0,4719.0 8497.0,4771.0 C 8499.0,4821.0 8497.0,4831.0 8480.0,4840.0 C 8452.0,4855.0 8455.0,4873.0 8490.0,4898.0 C 8508.0,4912.0 8521.0,4933.0 8526.0,4955.0 C 8533.0,4996.0 8566.0,5026.0 8621.0,5040.0 C 8655.0,5049.0 8660.0,5055.0 8665.0,5088.0 C 8675.0,5149.0 8689.0,5174.0 8725.0,5203.0 C 8751.0,5224.0 8760.0,5239.0 8760.0,5260.0 C 8760.0,5277.0 8755.0,5290.0 8749.0,5290.0 C 8731.0,5290.0 8747.0,5350.0 8776.0,5392.0 C 8797.0,5422.0 8800.0,5433.0 8791.0,5444.0 C 8781.0,5455.0 8785.0,5469.0 8807.0,5512.0 C 8823.0,5541.0 8843.0,5584.0 8852.0,5606.0 C 8866.0,5641.0 8874.0,5649.0 8905.0,5654.0 C 8924.0,5658.0 8944.0,5658.0 8949.0,5655.0 C 8978.0,5638.0 9024.0,5766.0 9000.0,5795.0 C 8993.0,5803.0 8991.0,5810.0 8995.0,5810.0 C 8998.0,5810.0 8992.0,5825.0 8981.0,5844.0 C 8965.0,5870.0 8961.0,5888.0 8965.0,5926.0 C 8971.0,5987.0 8987.0,6004.0 9043.0,6009.0 C 9047.0,6010.0 9048.0,6021.0 9044.0,6035.0 C 9039.0,6055.0 9042.0,6060.0 9062.0,6065.0 C 9074.0,6069.0 9097.0,6089.0 9112.0,6111.0 C 9134.0,6141.0 9146.0,6150.0 9170.0,6150.0 C 9203.0,6150.0 9215.0,6166.0 9225.0,6225.0 C 9229.0,6247.0 9238.0,6274.0 9245.0,6286.0 C 9253.0,6298.0 9260.0,6322.0 9262.0,6341.0 C 9264.0,6367.0 9270.0,6375.0 9290.0,6380.0 C 9311.0,6385.0 9315.0,6392.0 9318.0,6427.0 C 9320.0,6455.0 9325.0,6467.0 9333.0,6464.0 C 9340.0,6462.0 9363.0,6475.0 9384.0,6495.0 C 9415.0,6523.0 9426.0,6528.0 9441.0,6519.0 C 9451.0,6514.0 9475.0,6510.0 9492.0,6511.0 C 9510.0,6511.0 9534.0,6509.0 9545.0,6505.0 C 9566.0,6499.0 9568.0,6503.0 9570.0,6558.0 C 9573.0,6622.0 9581.0,6639.0 9610.0,6645.0 C 9635.0,6650.0 9650.0,6645.0 9692.0,6615.0 C 9743.0,6578.0 9745.0,6578.0 9812.0,6584.0 C 9885.0,6591.0 9950.0,6616.0 9950.0,6637.0 C 9950.0,6644.0 9954.0,6650.0 9959.0,6650.0 C 9964.0,6650.0 9971.0,6668.0 9975.0,6690.0 C 9982.0,6729.0 9987.0,6734.0 10023.0,6730.0 C 10047.0,6728.0 10080.0,6758.0 10080.0,6782.0 C 10080.0,6792.0 10076.0,6800.0 10072.0,6800.0 C 10067.0,6800.0 10063.0,6814.0 10063.0,6830.0 C 10063.0,6854.0 10068.0,6860.0 10085.0,6860.0 C 10097.0,6860.0 10115.0,6869.0 10125.0,6880.0 C 10135.0,6891.0 10153.0,6900.0 10165.0,6900.0 C 10181.0,6900.0 10193.0,6914.0 10215.0,6960.0 C 10246.0,7025.0 10242.0,7042.0 10193.0,7061.0 C 10166.0,7071.0 10150.0,7102.0 10168.0,7108.0 C 10216.0,7124.0 10223.0,7189.0 10185.0,7250.0 C 10171.0,7272.0 10156.0,7290.0 10151.0,7290.0 C 10147.0,7290.0 10139.0,7304.0 10134.0,7322.0 C 10126.0,7347.0 10117.0,7356.0 10093.0,7361.0 C 10075.0,7364.0 10057.0,7363.0 10050.0,7356.0 C 10044.0,7350.0 10024.0,7347.0 10004.0,7349.0 C 9979.0,7351.0 9960.0,7345.0 9935.0,7326.0 C 9904.0,7302.0 9898.0,7301.0 9850.0,7310.0 C 9783.0,7323.0 9780.0,7325.0 9780.0,7366.0 C 9780.0,7402.0 9767.0,7434.0 9743.0,7458.0 C 9736.0,7465.0 9730.0,7484.0 9730.0,7499.0 C 9730.0,7520.0 9722.0,7531.0 9691.0,7549.0 C 9665.0,7563.0 9647.0,7582.0 9639.0,7604.0 L 9627.0,7638.0 L 9553.0,7636.0 C 9504.0,7634.0 9476.0,7629.0 9470.0,7621.0 C 9466.0,7613.0 9457.0,7609.0 9450.0,7612.0 C 9436.0,7616.0 9380.0,7715.0 9380.0,7734.0 C 9380.0,7742.0 9373.0,7753.0 9366.0,7760.0 C 9358.0,7766.0 9350.0,7790.0 9348.0,7813.0 C 9345.0,7853.0 9343.0,7855.0 9303.0,7864.0 C 9270.0,7872.0 9258.0,7880.0 9249.0,7902.0 C 9240.0,7924.0 9240.0,7934.0 9249.0,7943.0 C 9268.0,7962.0 9262.0,7990.0 9239.0,7990.0 C 9228.0,7990.0 9210.0,7994.0 9200.0,8000.0 C 9178.0,8012.0 9090.0,7977.0 9090.0,7956.0 C 9090.0,7928.0 9051.0,7908.0 8990.0,7905.0 C 8955.0,7903.0 8930.0,7906.0 8930.0,7912.0 C 8930.0,7929.0 8794.0,7897.0 8769.0,7874.0 C 8761.0,7866.0 8751.0,7862.0 8748.0,7865.0 C 8745.0,7868.0 8727.0,7864.0 8708.0,7856.0 C 8689.0,7848.0 8664.0,7843.0 8652.0,7846.0 C 8635.0,7851.0 8631.0,7847.0 8628.0,7823.0 C 8625.0,7798.0 8622.0,7795.0 8590.0,7797.0 C 8510.0,7802.0 8449.0,7823.0 8435.0,7849.0 C 8428.0,7863.0 8410.0,7886.0 8396.0,7899.0 C 8382.0,7913.0 8370.0,7933.0 8370.0,7945.0 C 8370.0,7956.0 8355.0,7988.0 8338.0,8016.0 C 8320.0,8043.0 8298.0,8088.0 8289.0,8115.0 L 8274.0,8165.0 L 8226.0,8162.0 C 8174.0,8159.0 8140.0,8178.0 8140.0,8211.0 C 8140.0,8239.0 8129.0,8260.0 8114.0,8260.0 C 8107.0,8260.0 8085.0,8274.0 8067.0,8290.0 C 8027.0,8325.0 8026.0,8325.0 8006.0,8304.0" fill="pink"/>
</svg>
