<?xml version="1.0" ?>
<svg xmlns="http://www.w3.org/2000/svg" xmlns:ev="http://www.w3.org/2001/xml-events" xmlns:xlink="http://www.w3.org/1999/xlink" baseProfile="full" height="220px" version="1.1" viewBox="-1026.2391316422195 2871.9680294094046 12295.096044618178 4495.2986858535005" width="600px">
	<defs/>
	<path d="M 42.0,6983.0 C 27.0,6977.0 36.0,6960.0 56.0,6960.0 C 64.0,6960.0 70.0,6967.0 70.0,6975.0 C 70.0,6990.0 64.0,6992.0 42.0,6983.0" fill="pink"/>
	<path d="M 7.0,6938.0 C 13.0,6931.0 20.0,6904.0 22.0,6879.0 C 30.0,6803.0 79.0,6732.0 204.0,6616.0 C 295.0,6531.0 323.0,6510.0 347.0,6510.0 C 376.0,6510.0 440.0,6457.0 440.0,6434.0 C 440.0,6428.0 449.0,6415.0 461.0,6404.0 C 510.0,6360.0 570.0,6268.0 570.0,6237.0 C 570.0,6206.0 575.0,6203.0 669.0,6158.0 L 768.0,6111.0 L 798.0,6048.0 C 814.0,6013.0 840.0,5940.0 855.0,5885.0 C 887.0,5767.0 902.0,5740.0 966.0,5689.0 C 1048.0,5625.0 1159.0,5491.0 1175.0,5438.0 C 1183.0,5412.0 1209.0,5362.0 1233.0,5328.0 C 1292.0,5244.0 1322.0,5183.0 1315.0,5160.0 C 1304.0,5126.0 1321.0,5090.0 1356.0,5072.0 C 1375.0,5062.0 1405.0,5030.0 1429.0,4993.0 C 1453.0,4956.0 1486.0,4920.0 1512.0,4904.0 C 1576.0,4863.0 1600.0,4839.0 1600.0,4816.0 C 1600.0,4795.0 1709.0,4696.0 1774.0,4657.0 C 1791.0,4646.0 1819.0,4625.0 1835.0,4610.0 C 1852.0,4594.0 1884.0,4574.0 1908.0,4565.0 C 1935.0,4554.0 1956.0,4537.0 1965.0,4519.0 C 1986.0,4479.0 2115.0,4350.0 2134.0,4350.0 C 2154.0,4350.0 2154.0,4351.0 2133.0,4395.0 C 2124.0,4414.0 2119.0,4432.0 2122.0,4436.0 C 2131.0,4445.0 2164.0,4432.0 2204.0,4405.0 C 2239.0,4381.0 2240.0,4381.0 2250.0,4400.0 C 2264.0,4427.0 2283.0,4425.0 2331.0,4393.0 C 2354.0,4378.0 2374.0,4371.0 2379.0,4376.0 C 2384.0,4381.0 2395.0,4436.0 2405.0,4499.0 C 2421.0,4597.0 2421.0,4622.0 2411.0,4676.0 C 2401.0,4725.0 2401.0,4747.0 2410.0,4775.0 C 2420.0,4804.0 2420.0,4817.0 2410.0,4835.0 C 2399.0,4855.0 2401.0,4867.0 2420.0,4912.0 L 2442.0,4965.0 L 2412.0,5020.0 C 2341.0,5155.0 2346.0,5150.0 2275.0,5150.0 C 2196.0,5150.0 2180.0,5156.0 2180.0,5185.0 C 2180.0,5201.0 2169.0,5215.0 2145.0,5229.0 C 2103.0,5253.0 2105.0,5250.0 2090.0,5362.0 L 2078.0,5448.0 L 2047.0,5448.0 C 1987.0,5448.0 1921.0,5467.0 1885.0,5495.0 L 1848.0,5522.0 L 1891.0,5566.0 C 1933.0,5609.0 1933.0,5611.0 1892.0,5622.0 C 1873.0,5627.0 1907.0,5670.0 1931.0,5670.0 C 1974.0,5670.0 1932.0,5752.0 1871.0,5786.0 L 1826.0,5811.0 L 1792.0,5775.0 C 1736.0,5718.0 1727.0,5732.0 1770.0,5810.0 L 1808.0,5880.0 L 1767.0,5910.0 C 1722.0,5943.0 1705.0,5947.0 1697.0,5926.0 C 1689.0,5905.0 1653.0,5918.0 1646.0,5943.0 C 1643.0,5955.0 1645.0,5967.0 1650.0,5968.0 C 1664.0,5973.0 1662.0,6004.0 1648.0,6018.0 C 1641.0,6025.0 1614.0,6030.0 1586.0,6030.0 L 1537.0,6030.0 L 1556.0,6009.0 L 1575.0,5987.0 L 1550.0,6000.0 C 1508.0,6022.0 1471.0,6057.0 1480.0,6066.0 C 1488.0,6075.0 1493.0,6103.0 1491.0,6127.0 C 1488.0,6161.0 1410.0,6147.0 1410.0,6112.0 C 1410.0,6100.0 1404.0,6104.0 1390.0,6124.0 C 1370.0,6156.0 1302.0,6202.0 1288.0,6194.0 C 1284.0,6191.0 1280.0,6178.0 1280.0,6164.0 C 1280.0,6113.0 1220.0,6147.0 1180.0,6222.0 C 1163.0,6254.0 1143.0,6280.0 1137.0,6279.0 C 1110.0,6276.0 1100.0,6281.0 1100.0,6299.0 C 1100.0,6327.0 980.0,6434.0 889.0,6487.0 C 846.0,6512.0 810.0,6536.0 810.0,6540.0 C 810.0,6544.0 788.0,6559.0 760.0,6574.0 C 719.0,6597.0 710.0,6606.0 710.0,6629.0 C 710.0,6645.0 700.0,6666.0 685.0,6680.0 C 671.0,6693.0 656.0,6715.0 652.0,6730.0 C 648.0,6744.0 622.0,6776.0 594.0,6802.0 C 546.0,6848.0 542.0,6849.0 512.0,6838.0 C 487.0,6828.0 473.0,6829.0 446.0,6838.0 C 424.0,6846.0 393.0,6848.0 361.0,6844.0 C 287.0,6834.0 248.0,6846.0 196.0,6892.0 C 145.0,6936.0 74.0,6954.0 45.0,6930.0 C 33.0,6920.0 29.0,6921.0 24.0,6934.0 C 21.0,6943.0 13.0,6950.0 8.0,6950.0 C 1.0,6950.0 1.0,6946.0 7.0,6938.0" fill="pink"/>
	<path d="M 7054.0,6678.0 C 7042.0,6659.0 7043.0,6560.0 7055.0,6560.0 C 7061.0,6560.0 7074.0,6576.0 7084.0,6595.0 C 7100.0,6624.0 7101.0,6633.0 7090.0,6660.0 C 7077.0,6692.0 7066.0,6697.0 7054.0,6678.0" fill="pink"/>
	<path d="M 4669.0,6644.0 C 4604.0,6625.0 4586.0,6607.0 4571.0,6552.0 C 4562.0,6515.0 4561.0,6496.0 4569.0,6481.0 C 4577.0,6466.0 4577.0,6453.0 4566.0,6428.0 C 4558.0,6410.0 4549.0,6387.0 4546.0,6377.0 C 4543.0,6368.0 4528.0,6357.0 4513.0,6354.0 C 4491.0,6350.0 4480.0,6338.0 4466.0,6303.0 C 4450.0,6265.0 4449.0,6257.0 4461.0,6249.0 C 4472.0,6243.0 4467.0,6234.0 4438.0,6210.0 C 4411.0,6188.0 4399.0,6169.0 4395.0,6142.0 C 4392.0,6122.0 4380.0,6086.0 4369.0,6064.0 C 4347.0,6020.0 4324.0,6010.0 4239.0,6010.0 C 4214.0,6010.0 4197.0,6003.0 4182.0,5985.0 C 4152.0,5951.0 4109.0,5953.0 4035.0,5990.0 C 3988.0,6013.0 3961.0,6019.0 3912.0,6020.0 C 3840.0,6020.0 3813.0,6009.0 3800.0,5974.0 C 3794.0,5958.0 3771.0,5941.0 3733.0,5924.0 C 3682.0,5902.0 3670.0,5900.0 3634.0,5909.0 C 3598.0,5918.0 3584.0,5916.0 3531.0,5895.0 C 3498.0,5881.0 3463.0,5870.0 3454.0,5870.0 C 3445.0,5870.0 3414.0,5894.0 3386.0,5923.0 C 3357.0,5951.0 3318.0,5987.0 3298.0,6002.0 C 3278.0,6017.0 3252.0,6050.0 3240.0,6075.0 C 3228.0,6100.0 3212.0,6120.0 3205.0,6120.0 C 3198.0,6120.0 3181.0,6101.0 3167.0,6078.0 C 3153.0,6054.0 3133.0,6028.0 3122.0,6019.0 C 3109.0,6008.0 3100.0,5983.0 3095.0,5949.0 C 3091.0,5919.0 3083.0,5889.0 3078.0,5883.0 C 3072.0,5875.0 3070.0,5845.0 3075.0,5806.0 C 3080.0,5755.0 3085.0,5741.0 3100.0,5737.0 C 3111.0,5734.0 3127.0,5716.0 3136.0,5696.0 C 3152.0,5663.0 3152.0,5659.0 3137.0,5642.0 C 3111.0,5614.0 3116.0,5575.0 3147.0,5550.0 C 3166.0,5535.0 3171.0,5527.0 3162.0,5521.0 C 3153.0,5516.0 3154.0,5509.0 3166.0,5492.0 C 3177.0,5476.0 3187.0,5471.0 3206.0,5476.0 C 3232.0,5483.0 3241.0,5463.0 3215.0,5454.0 C 3206.0,5450.0 3200.0,5435.0 3200.0,5413.0 L 3200.0,5378.0 L 3244.0,5404.0 L 3288.0,5430.0 L 3314.0,5399.0 C 3344.0,5363.0 3345.0,5354.0 3324.0,5300.0 C 3309.0,5263.0 3309.0,5258.0 3323.0,5247.0 C 3342.0,5232.0 3370.0,5134.0 3370.0,5080.0 C 3370.0,5057.0 3375.0,5030.0 3380.0,5019.0 C 3390.0,5001.0 3392.0,5001.0 3415.0,5016.0 C 3438.0,5031.0 3442.0,5030.0 3488.0,5004.0 L 3537.0,4977.0 L 3624.0,5004.0 C 3673.0,5019.0 3714.0,5029.0 3717.0,5026.0 C 3720.0,5024.0 3724.0,4993.0 3727.0,4958.0 C 3735.0,4871.0 3744.0,4863.0 3787.0,4901.0 C 3811.0,4921.0 3828.0,4929.0 3839.0,4924.0 C 3897.0,4899.0 3982.0,4927.0 4001.0,4977.0 L 4011.0,5004.0 L 4037.0,4976.0 C 4058.0,4953.0 4068.0,4949.0 4096.0,4955.0 C 4128.0,4961.0 4130.0,4960.0 4130.0,4931.0 C 4130.0,4894.0 4151.0,4886.0 4225.0,4895.0 C 4307.0,4906.0 4328.0,4897.0 4335.0,4852.0 C 4338.0,4832.0 4345.0,4798.0 4351.0,4778.0 L 4361.0,4740.0 L 4408.0,4764.0 C 4434.0,4777.0 4491.0,4802.0 4535.0,4819.0 C 4579.0,4837.0 4625.0,4858.0 4637.0,4865.0 C 4658.0,4879.0 4659.0,4878.0 4670.0,4824.0 L 4682.0,4768.0 L 4703.0,4787.0 C 4736.0,4814.0 4741.0,4823.0 4737.0,4847.0 C 4735.0,4859.0 4739.0,4871.0 4746.0,4874.0 C 4765.0,4881.0 4764.0,4910.0 4745.0,4910.0 C 4736.0,4910.0 4730.0,4919.0 4730.0,4934.0 C 4730.0,4947.0 4725.0,4960.0 4719.0,4962.0 C 4712.0,4964.0 4715.0,4978.0 4729.0,5000.0 C 4740.0,5019.0 4750.0,5052.0 4750.0,5073.0 C 4750.0,5103.0 4754.0,5110.0 4767.0,5108.0 C 4791.0,5104.0 4805.0,5161.0 4783.0,5177.0 C 4775.0,5184.0 4763.0,5191.0 4758.0,5192.0 C 4752.0,5194.0 4751.0,5215.0 4755.0,5244.0 C 4762.0,5287.0 4772.0,5302.0 4853.0,5386.0 C 4920.0,5457.0 4947.0,5479.0 4961.0,5475.0 C 4971.0,5471.0 4988.0,5474.0 5000.0,5480.0 C 5026.0,5494.0 5029.0,5570.0 5004.0,5591.0 C 4991.0,5601.0 4989.0,5615.0 4994.0,5655.0 C 5008.0,5775.0 5053.0,5867.0 5092.0,5854.0 C 5104.0,5851.0 5116.0,5853.0 5120.0,5860.0 C 5126.0,5870.0 5138.0,5870.0 5173.0,5861.0 C 5241.0,5844.0 5294.0,5847.0 5313.0,5868.0 C 5323.0,5878.0 5330.0,5891.0 5329.0,5896.0 C 5328.0,5908.0 5196.0,6015.0 5137.0,6051.0 C 5082.0,6085.0 5073.0,6102.0 5088.0,6142.0 C 5097.0,6168.0 5094.0,6184.0 5062.0,6265.0 C 5034.0,6336.0 5019.0,6362.0 4997.0,6375.0 C 4953.0,6401.0 4973.0,6425.0 5023.0,6405.0 C 5058.0,6391.0 5041.0,6434.0 5002.0,6457.0 L 4965.0,6479.0 L 5013.0,6480.0 C 5064.0,6480.0 5069.0,6488.0 5046.0,6530.0 C 5034.0,6551.0 5034.0,6556.0 5048.0,6566.0 C 5061.0,6575.0 5068.0,6575.0 5078.0,6567.0 C 5089.0,6558.0 5091.0,6562.0 5088.0,6586.0 C 5084.0,6623.0 5045.0,6632.0 5023.0,6601.0 C 5015.0,6589.0 5004.0,6580.0 4998.0,6580.0 C 4991.0,6580.0 4991.0,6584.0 4999.0,6593.0 C 5007.0,6604.0 5001.0,6611.0 4972.0,6627.0 C 4942.0,6644.0 4913.0,6649.0 4822.0,6652.0 C 4754.0,6654.0 4693.0,6651.0 4669.0,6644.0" fill="pink"/>
	<path d="M 2899.0,6591.0 L 2876.0,6572.0 L 2895.0,6531.0 C 2906.0,6509.0 2922.0,6490.0 2930.0,6490.0 C 2970.0,6490.0 2982.0,6542.0 2954.0,6585.0 C 2934.0,6615.0 2929.0,6616.0 2899.0,6591.0" fill="pink"/>
	<path d="M 6805.0,6500.0 C 6802.0,6495.0 6806.0,6483.0 6815.0,6473.0 C 6823.0,6463.0 6836.0,6446.0 6843.0,6436.0 C 6866.0,6404.0 6883.0,6426.0 6864.0,6463.0 C 6841.0,6506.0 6818.0,6521.0 6805.0,6500.0" fill="pink"/>
	<path d="M 5065.0,6460.0 C 5068.0,6455.0 5075.0,6450.0 5081.0,6450.0 C 5086.0,6450.0 5090.0,6455.0 5090.0,6460.0 C 5090.0,6466.0 5083.0,6470.0 5074.0,6470.0 C 5066.0,6470.0 5062.0,6466.0 5065.0,6460.0" fill="pink"/>
	<path d="M 2495.0,6411.0 C 2492.0,6406.0 2494.0,6399.0 2500.0,6395.0 C 2505.0,6392.0 2510.0,6396.0 2510.0,6404.0 C 2510.0,6422.0 2504.0,6425.0 2495.0,6411.0" fill="pink"/>
	<path d="M 2364.0,6338.0 C 2367.0,6325.0 2370.0,6311.0 2370.0,6306.0 C 2370.0,6300.0 2376.0,6305.0 2384.0,6316.0 C 2394.0,6329.0 2395.0,6339.0 2388.0,6347.0 C 2371.0,6368.0 2357.0,6362.0 2364.0,6338.0" fill="pink"/>
	<path d="M 3061.0,6331.0 C 3051.0,6314.0 3052.0,6310.0 3064.0,6310.0 C 3084.0,6310.0 3091.0,6323.0 3080.0,6339.0 C 3074.0,6350.0 3070.0,6348.0 3061.0,6331.0" fill="pink"/>
	<path d="M 140.0,6315.0 C 123.0,6294.0 149.0,6265.0 199.0,6249.0 C 219.0,6243.0 247.0,6226.0 262.0,6212.0 C 278.0,6198.0 295.0,6190.0 304.0,6193.0 C 329.0,6203.0 323.0,6215.0 280.0,6244.0 C 258.0,6258.0 240.0,6277.0 240.0,6285.0 C 240.0,6293.0 232.0,6300.0 222.0,6300.0 C 212.0,6300.0 195.0,6307.0 184.0,6315.0 C 160.0,6333.0 155.0,6333.0 140.0,6315.0" fill="pink"/>
	<path d="M 7405.0,6220.0 C 7390.0,6204.0 7373.0,6193.0 7368.0,6196.0 C 7355.0,6205.0 7359.0,6190.0 7375.0,6174.0 C 7383.0,6165.0 7390.0,6150.0 7390.0,6139.0 C 7390.0,6111.0 7414.0,6116.0 7455.0,6151.0 C 7506.0,6196.0 7502.0,6250.0 7446.0,6250.0 C 7439.0,6250.0 7421.0,6237.0 7405.0,6220.0" fill="pink"/>
	<path d="M 471.0,6171.0 C 460.0,6164.0 462.0,6160.0 479.0,6151.0 C 497.0,6141.0 500.0,6142.0 500.0,6160.0 C 500.0,6182.0 493.0,6185.0 471.0,6171.0" fill="pink"/>
	<path d="M 7275.0,6169.0 C 7265.0,6154.0 7278.0,6144.0 7291.0,6157.0 C 7298.0,6164.0 7298.0,6170.0 7292.0,6174.0 C 7286.0,6177.0 7278.0,6175.0 7275.0,6169.0" fill="pink"/>
	<path d="M 7276.0,6120.0 C 7257.0,6098.0 7238.0,6068.0 7234.0,6053.0 C 7231.0,6037.0 7220.0,5999.0 7210.0,5967.0 L 7191.0,5910.0 L 7217.0,5886.0 C 7237.0,5868.0 7241.0,5856.0 7236.0,5837.0 C 7233.0,5823.0 7237.0,5785.0 7245.0,5754.0 C 7253.0,5722.0 7260.0,5679.0 7260.0,5659.0 C 7260.0,5638.0 7267.0,5617.0 7276.0,5609.0 C 7284.0,5602.0 7300.0,5579.0 7311.0,5558.0 C 7330.0,5521.0 7404.0,5461.0 7416.0,5473.0 C 7420.0,5476.0 7407.0,5497.0 7388.0,5520.0 C 7339.0,5577.0 7306.0,5678.0 7320.0,5731.0 C 7333.0,5779.0 7350.0,5781.0 7445.0,5746.0 C 7481.0,5733.0 7510.0,5725.0 7510.0,5729.0 C 7510.0,5748.0 7457.0,5809.0 7430.0,5820.0 C 7392.0,5836.0 7395.0,5846.0 7451.0,5885.0 C 7486.0,5910.0 7496.0,5924.0 7498.0,5950.0 C 7503.0,6002.0 7493.0,6030.0 7467.0,6030.0 C 7434.0,6030.0 7381.0,5994.0 7368.0,5963.0 C 7347.0,5915.0 7308.0,5860.0 7295.0,5860.0 C 7288.0,5860.0 7277.0,5867.0 7270.0,5875.0 C 7260.0,5886.0 7265.0,5895.0 7294.0,5920.0 C 7316.0,5940.0 7334.0,5967.0 7341.0,5992.0 C 7350.0,6028.0 7349.0,6036.0 7329.0,6063.0 C 7308.0,6091.0 7308.0,6094.0 7324.0,6120.0 C 7344.0,6154.0 7344.0,6160.0 7326.0,6160.0 C 7319.0,6160.0 7296.0,6142.0 7276.0,6120.0" fill="pink"/>
	<path d="M 6630.0,6017.0 C 6612.0,5976.0 6579.0,5950.0 6545.0,5950.0 C 6537.0,5950.0 6507.0,5929.0 6479.0,5904.0 C 6438.0,5868.0 6422.0,5859.0 6401.0,5863.0 C 6387.0,5865.0 6342.0,5873.0 6302.0,5881.0 C 6237.0,5893.0 6228.0,5892.0 6214.0,5878.0 C 6198.0,5863.0 6195.0,5863.0 6170.0,5881.0 C 6144.0,5901.0 6025.0,5924.0 6008.0,5914.0 C 6003.0,5911.0 5993.0,5913.0 5986.0,5919.0 C 5976.0,5927.0 5964.0,5927.0 5946.0,5920.0 C 5899.0,5902.0 5880.0,5907.0 5880.0,5936.0 C 5880.0,5959.0 5877.0,5961.0 5855.0,5956.0 C 5839.0,5952.0 5821.0,5955.0 5809.0,5963.0 C 5777.0,5986.0 5741.0,5972.0 5724.0,5931.0 C 5697.0,5867.0 5640.0,5824.0 5640.0,5868.0 C 5640.0,5878.0 5637.0,5889.0 5634.0,5893.0 C 5626.0,5901.0 5550.0,5823.0 5550.0,5806.0 C 5550.0,5798.0 5545.0,5788.0 5540.0,5785.0 C 5519.0,5772.0 5498.0,5718.0 5509.0,5707.0 C 5528.0,5688.0 5522.0,5667.0 5500.0,5673.0 C 5478.0,5679.0 5471.0,5655.0 5492.0,5648.0 C 5514.0,5640.0 5482.0,5531.0 5437.0,5460.0 C 5397.0,5398.0 5395.0,5393.0 5395.0,5315.0 C 5395.0,5247.0 5392.0,5230.0 5373.0,5206.0 C 5360.0,5190.0 5350.0,5168.0 5350.0,5156.0 C 5350.0,5126.0 5323.0,5090.0 5300.0,5090.0 C 5276.0,5090.0 5269.0,5060.0 5288.0,5038.0 C 5300.0,5023.0 5300.0,5018.0 5287.0,4999.0 C 5271.0,4977.0 5273.0,4934.0 5292.0,4897.0 C 5305.0,4871.0 5346.0,4858.0 5370.0,4872.0 C 5396.0,4889.0 5424.0,4862.0 5444.0,4802.0 C 5465.0,4741.0 5464.0,4719.0 5435.0,4598.0 C 5402.0,4460.0 5402.0,4446.0 5444.0,4421.0 C 5483.0,4397.0 5503.0,4395.0 5519.0,4414.0 C 5533.0,4431.0 5621.0,4442.0 5638.0,4428.0 C 5655.0,4414.0 5653.0,4438.0 5635.0,4470.0 C 5615.0,4505.0 5617.0,4554.0 5639.0,4599.0 C 5657.0,4633.0 5657.0,4640.0 5644.0,4665.0 C 5626.0,4700.0 5626.0,4794.0 5644.0,4823.0 C 5658.0,4845.0 5653.0,4878.0 5616.0,4995.0 C 5611.0,5011.0 5620.0,5021.0 5660.0,5048.0 C 5712.0,5082.0 5739.0,5087.0 5771.0,5070.0 C 5801.0,5054.0 5797.0,4977.0 5765.0,4938.0 C 5751.0,4922.0 5740.0,4904.0 5740.0,4900.0 C 5740.0,4888.0 5853.0,4794.0 5891.0,4775.0 C 5918.0,4760.0 5919.0,4758.0 5905.0,4737.0 C 5897.0,4724.0 5888.0,4694.0 5884.0,4669.0 C 5879.0,4627.0 5880.0,4624.0 5910.0,4608.0 C 5947.0,4587.0 6042.0,4582.0 6022.0,4602.0 C 5983.0,4641.0 6043.0,4686.0 6121.0,4676.0 C 6164.0,4670.0 6170.0,4672.0 6189.0,4696.0 C 6216.0,4731.0 6216.0,4748.0 6186.0,4761.0 C 6173.0,4767.0 6146.0,4792.0 6126.0,4816.0 C 6106.0,4840.0 6083.0,4860.0 6075.0,4860.0 C 6055.0,4860.0 6049.0,4875.0 6059.0,4902.0 C 6065.0,4914.0 6069.0,4921.0 6070.0,4915.0 C 6070.0,4910.0 6077.0,4920.0 6085.0,4938.0 C 6098.0,4968.0 6098.0,4974.0 6085.0,4987.0 C 6077.0,4995.0 6070.0,5009.0 6070.0,5018.0 C 6070.0,5028.0 6058.0,5041.0 6043.0,5048.0 C 6010.0,5063.0 5920.0,5184.0 5920.0,5214.0 C 5920.0,5236.0 5955.0,5262.0 6023.0,5290.0 C 6047.0,5300.0 6083.0,5333.0 6123.0,5380.0 C 6157.0,5421.0 6198.0,5461.0 6212.0,5470.0 C 6238.0,5484.0 6241.0,5483.0 6269.0,5456.0 L 6300.0,5427.0 L 6315.0,5464.0 C 6335.0,5510.0 6330.0,5524.0 6290.0,5545.0 C 6265.0,5558.0 6253.0,5559.0 6220.0,5549.0 C 6187.0,5539.0 6181.0,5533.0 6186.0,5518.0 C 6191.0,5501.0 6187.0,5500.0 6128.0,5506.0 C 6074.0,5511.0 6057.0,5509.0 6022.0,5491.0 C 5976.0,5468.0 5930.0,5464.0 5912.0,5482.0 C 5903.0,5491.0 5886.0,5479.0 5837.0,5425.0 C 5781.0,5364.0 5771.0,5357.0 5747.0,5364.0 C 5731.0,5368.0 5705.0,5390.0 5683.0,5420.0 C 5663.0,5447.0 5634.0,5474.0 5619.0,5480.0 C 5599.0,5489.0 5587.0,5505.0 5576.0,5538.0 C 5547.0,5622.0 5562.0,5704.0 5615.0,5757.0 C 5653.0,5795.0 5667.0,5797.0 5728.0,5773.0 C 5769.0,5758.0 5776.0,5758.0 5845.0,5774.0 C 5899.0,5787.0 5924.0,5789.0 5938.0,5781.0 C 5951.0,5774.0 6002.0,5773.0 6083.0,5777.0 C 6199.0,5783.0 6211.0,5781.0 6249.0,5761.0 C 6272.0,5750.0 6304.0,5740.0 6320.0,5740.0 C 6336.0,5740.0 6351.0,5736.0 6354.0,5731.0 C 6360.0,5722.0 6444.0,5733.0 6495.0,5750.0 C 6536.0,5764.0 6620.0,5852.0 6685.0,5950.0 C 6731.0,6019.0 6732.0,6022.0 6715.0,6040.0 C 6705.0,6051.0 6686.0,6060.0 6673.0,6060.0 C 6654.0,6060.0 6645.0,6050.0 6630.0,6017.0" fill="pink"/>
	<path d="M 478.0,5996.0 L 451.0,5985.0 L 481.0,5932.0 C 498.0,5904.0 525.0,5872.0 541.0,5863.0 C 557.0,5853.0 573.0,5835.0 576.0,5823.0 C 585.0,5789.0 616.0,5794.0 629.0,5831.0 C 647.0,5882.0 643.0,5892.0 584.0,5953.0 C 525.0,6013.0 520.0,6015.0 478.0,5996.0" fill="pink"/>
	<path d="M 2073.0,5933.0 C 2037.0,5915.0 2029.0,5890.0 2059.0,5890.0 C 2069.0,5890.0 2083.0,5883.0 2090.0,5875.0 C 2108.0,5853.0 2129.0,5857.0 2136.0,5884.0 C 2142.0,5908.0 2126.0,5951.0 2112.0,5949.0 C 2108.0,5949.0 2090.0,5941.0 2073.0,5933.0" fill="pink"/>
	<path d="M 1980.0,5925.0 C 1968.0,5910.0 1974.0,5890.0 1991.0,5890.0 C 1997.0,5890.0 2010.0,5880.0 2020.0,5868.0 C 2030.0,5855.0 2042.0,5848.0 2046.0,5852.0 C 2050.0,5857.0 2045.0,5869.0 2035.0,5880.0 C 2025.0,5891.0 2020.0,5908.0 2023.0,5920.0 C 2029.0,5944.0 1999.0,5948.0 1980.0,5925.0" fill="pink"/>
	<path d="M 1840.0,5911.0 C 1840.0,5905.0 1845.0,5898.0 1850.0,5895.0 C 1856.0,5892.0 1860.0,5896.0 1860.0,5904.0 C 1860.0,5913.0 1856.0,5920.0 1850.0,5920.0 C 1845.0,5920.0 1840.0,5916.0 1840.0,5911.0" fill="pink"/>
	<path d="M 1840.0,5850.0 C 1840.0,5835.0 1847.0,5830.0 1867.0,5830.0 C 1892.0,5830.0 1893.0,5830.0 1875.0,5850.0 C 1865.0,5861.0 1853.0,5870.0 1848.0,5870.0 C 1844.0,5870.0 1840.0,5861.0 1840.0,5850.0" fill="pink"/>
	<path d="M 7206.0,5692.0 C 7204.0,5688.0 7205.0,5678.0 7211.0,5670.0 C 7218.0,5658.0 7220.0,5660.0 7220.0,5678.0 C 7220.0,5701.0 7215.0,5706.0 7206.0,5692.0" fill="pink"/>
	<path d="M 2096.0,5661.0 C 2070.0,5633.0 2091.0,5614.0 2141.0,5618.0 C 2165.0,5621.0 2180.0,5618.0 2180.0,5611.0 C 2180.0,5605.0 2185.0,5600.0 2190.0,5600.0 C 2213.0,5600.0 2197.0,5631.0 2163.0,5655.0 C 2118.0,5685.0 2118.0,5685.0 2096.0,5661.0" fill="pink"/>
	<path d="M 7630.0,5672.0 C 7630.0,5659.0 7665.0,5630.0 7680.0,5630.0 C 7689.0,5630.0 7685.0,5639.0 7670.0,5655.0 C 7646.0,5680.0 7630.0,5687.0 7630.0,5672.0" fill="pink"/>
	<path d="M 7878.0,5655.0 C 7862.0,5646.0 7850.0,5634.0 7850.0,5627.0 C 7850.0,5610.0 7908.0,5579.0 7916.0,5591.0 C 7919.0,5597.0 7927.0,5594.0 7934.0,5584.0 C 7945.0,5570.0 7952.0,5569.0 7980.0,5578.0 C 7998.0,5585.0 8025.0,5590.0 8040.0,5590.0 C 8076.0,5590.0 8087.0,5617.0 8061.0,5643.0 C 8035.0,5670.0 7917.0,5677.0 7878.0,5655.0" fill="pink"/>
	<path d="M 744.0,5624.0 C 748.0,5615.0 746.0,5602.0 740.0,5595.0 C 725.0,5576.0 743.0,5568.0 765.0,5584.0 C 779.0,5594.0 781.0,5600.0 771.0,5618.0 C 757.0,5643.0 735.0,5648.0 744.0,5624.0" fill="pink"/>
	<path d="M 7140.0,5585.0 C 7140.0,5560.0 7144.0,5550.0 7155.0,5550.0 C 7164.0,5550.0 7183.0,5538.0 7198.0,5523.0 C 7234.0,5486.0 7286.0,5468.0 7301.0,5486.0 C 7313.0,5501.0 7305.0,5520.0 7287.0,5520.0 C 7280.0,5520.0 7269.0,5524.0 7261.0,5529.0 C 7249.0,5537.0 7249.0,5541.0 7259.0,5554.0 C 7279.0,5578.0 7257.0,5599.0 7215.0,5595.0 C 7193.0,5593.0 7180.0,5596.0 7176.0,5606.0 C 7173.0,5614.0 7164.0,5620.0 7155.0,5620.0 C 7144.0,5620.0 7140.0,5610.0 7140.0,5585.0" fill="pink"/>
	<path d="M 2073.0,5592.0 C 2047.0,5588.0 2045.0,5575.0 2063.0,5543.0 L 2076.0,5520.0 L 2103.0,5546.0 C 2118.0,5559.0 2130.0,5573.0 2130.0,5575.0 C 2130.0,5585.0 2093.0,5596.0 2073.0,5592.0" fill="pink"/>
	<path d="M 8290.0,5593.0 C 8282.0,5589.0 8253.0,5572.0 8227.0,5554.0 C 8200.0,5536.0 8162.0,5518.0 8142.0,5514.0 C 8093.0,5505.0 8070.0,5493.0 8070.0,5474.0 C 8070.0,5453.0 8041.0,5400.0 8030.0,5400.0 C 8024.0,5400.0 8020.0,5415.0 8020.0,5434.0 C 8020.0,5462.0 8016.0,5469.0 7998.0,5472.0 C 7985.0,5474.0 7976.0,5481.0 7978.0,5488.0 C 7980.0,5498.0 7968.0,5500.0 7933.0,5498.0 C 7884.0,5495.0 7862.0,5473.0 7899.0,5463.0 C 7910.0,5460.0 7922.0,5450.0 7925.0,5440.0 C 7928.0,5430.0 7944.0,5404.0 7960.0,5382.0 C 7991.0,5339.0 8040.0,5319.0 8065.0,5340.0 C 8075.0,5348.0 8092.0,5347.0 8136.0,5336.0 C 8193.0,5321.0 8210.0,5309.0 8210.0,5280.0 C 8210.0,5262.0 8240.0,5213.0 8270.0,5182.0 C 8286.0,5165.0 8299.0,5160.0 8317.0,5165.0 C 8331.0,5168.0 8348.0,5166.0 8356.0,5159.0 C 8364.0,5153.0 8380.0,5151.0 8392.0,5155.0 C 8405.0,5158.0 8451.0,5165.0 8495.0,5170.0 C 8539.0,5174.0 8591.0,5181.0 8610.0,5186.0 C 8642.0,5193.0 8644.0,5192.0 8631.0,5177.0 C 8622.0,5166.0 8621.0,5160.0 8629.0,5160.0 C 8653.0,5160.0 8638.0,5133.0 8605.0,5117.0 C 8557.0,5094.0 8535.0,5096.0 8518.0,5122.0 L 8503.0,5145.0 L 8455.0,5105.0 C 8382.0,5043.0 8385.0,5044.0 8345.0,5063.0 C 8301.0,5084.0 8287.0,5084.0 8249.0,5064.0 C 8224.0,5052.0 8221.0,5046.0 8231.0,5034.0 C 8237.0,5026.0 8252.0,5020.0 8264.0,5020.0 C 8295.0,5020.0 8346.0,4985.0 8362.0,4953.0 C 8370.0,4937.0 8383.0,4926.0 8391.0,4928.0 C 8400.0,4929.0 8412.0,4919.0 8418.0,4906.0 C 8427.0,4885.0 8426.0,4880.0 8407.0,4867.0 C 8388.0,4855.0 8387.0,4850.0 8399.0,4837.0 C 8406.0,4828.0 8410.0,4815.0 8407.0,4808.0 C 8405.0,4801.0 8411.0,4785.0 8422.0,4773.0 C 8441.0,4753.0 8444.0,4752.0 8485.0,4767.0 C 8536.0,4784.0 8547.0,4795.0 8552.0,4834.0 C 8557.0,4884.0 8580.0,4887.0 8635.0,4846.0 C 8704.0,4793.0 8741.0,4775.0 8750.0,4790.0 C 8759.0,4805.0 8791.0,4790.0 8817.0,4757.0 C 8856.0,4709.0 8907.0,4687.0 9007.0,4679.0 C 9078.0,4673.0 9107.0,4666.0 9127.0,4650.0 C 9141.0,4639.0 9164.0,4630.0 9177.0,4630.0 C 9191.0,4630.0 9233.0,4613.0 9271.0,4593.0 C 9328.0,4562.0 9342.0,4558.0 9349.0,4569.0 C 9357.0,4581.0 9372.0,4575.0 9430.0,4540.0 C 9540.0,4474.0 9580.0,4442.0 9580.0,4421.0 C 9580.0,4410.0 9587.0,4400.0 9596.0,4398.0 C 9605.0,4396.0 9620.0,4367.0 9634.0,4327.0 C 9646.0,4290.0 9669.0,4247.0 9684.0,4231.0 C 9711.0,4203.0 9711.0,4200.0 9700.0,4164.0 C 9687.0,4127.0 9688.0,4125.0 9721.0,4098.0 C 9747.0,4076.0 9750.0,4070.0 9736.0,4070.0 C 9717.0,4070.0 9717.0,4069.0 9736.0,4049.0 C 9754.0,4029.0 9754.0,4029.0 9727.0,4035.0 C 9650.0,4055.0 9569.0,3996.0 9510.0,3879.0 C 9474.0,3809.0 9476.0,3785.0 9515.0,3800.0 C 9528.0,3805.0 9564.0,3809.0 9592.0,3809.0 C 9621.0,3809.0 9661.0,3810.0 9680.0,3812.0 C 9699.0,3813.0 9727.0,3810.0 9742.0,3806.0 C 9763.0,3800.0 9769.0,3802.0 9774.0,3818.0 C 9784.0,3848.0 9828.0,3874.0 9845.0,3860.0 C 9854.0,3852.0 9878.0,3851.0 9913.0,3855.0 C 9986.0,3864.0 10010.0,3850.0 10137.0,3727.0 L 10240.0,3627.0 L 10240.0,3880.0 C 10240.0,4127.0 10239.0,4134.0 10218.0,4157.0 C 10197.0,4179.0 10197.0,4181.0 10213.0,4215.0 C 10228.0,4247.0 10230.0,4298.0 10230.0,4674.0 L 10230.0,5098.0 L 10181.0,5119.0 C 10154.0,5130.0 10119.0,5140.0 10103.0,5140.0 C 10088.0,5141.0 10064.0,5147.0 10050.0,5154.0 C 10037.0,5162.0 10012.0,5166.0 9995.0,5163.0 C 9973.0,5159.0 9936.0,5171.0 9860.0,5204.0 C 9803.0,5230.0 9749.0,5257.0 9740.0,5264.0 C 9723.0,5279.0 9544.0,5340.0 9517.0,5340.0 C 9507.0,5340.0 9472.0,5326.0 9439.0,5309.0 C 9379.0,5279.0 9378.0,5278.0 9384.0,5245.0 C 9388.0,5227.0 9387.0,5209.0 9382.0,5206.0 C 9377.0,5203.0 9342.0,5198.0 9304.0,5195.0 C 9202.0,5186.0 9193.0,5183.0 9186.0,5156.0 C 9183.0,5143.0 9162.0,5112.0 9140.0,5089.0 C 9118.0,5065.0 9100.0,5041.0 9100.0,5035.0 C 9100.0,5029.0 9076.0,5003.0 9046.0,4977.0 C 9000.0,4937.0 8985.0,4930.0 8950.0,4930.0 C 8900.0,4930.0 8855.0,4968.0 8865.0,5000.0 C 8870.0,5015.0 8867.0,5020.0 8851.0,5020.0 C 8835.0,5020.0 8830.0,5029.0 8824.0,5065.0 C 8819.0,5100.0 8814.0,5110.0 8799.0,5110.0 C 8788.0,5110.0 8780.0,5103.0 8780.0,5095.0 C 8780.0,5069.0 8766.0,5078.0 8739.0,5123.0 C 8700.0,5185.0 8692.0,5275.0 8721.0,5332.0 L 8743.0,5374.0 L 8709.0,5437.0 C 8673.0,5503.0 8675.0,5502.0 8578.0,5515.0 C 8550.0,5519.0 8516.0,5533.0 8490.0,5551.0 C 8438.0,5589.0 8335.0,5610.0 8290.0,5593.0" fill="pink"/>
	<path d="M 7750.0,5580.0 C 7750.0,5575.0 7757.0,5570.0 7765.0,5570.0 C 7773.0,5570.0 7780.0,5575.0 7780.0,5580.0 C 7780.0,5586.0 7773.0,5590.0 7765.0,5590.0 C 7757.0,5590.0 7750.0,5586.0 7750.0,5580.0" fill="pink"/>
	<path d="M 7152.0,5528.0 C 7144.0,5520.0 7143.0,5513.0 7151.0,5503.0 C 7167.0,5484.0 7180.0,5487.0 7180.0,5509.0 C 7180.0,5534.0 7167.0,5543.0 7152.0,5528.0" fill="pink"/>
	<path d="M 8980.0,5520.0 C 8980.0,5515.0 8997.0,5502.0 9018.0,5491.0 C 9038.0,5480.0 9068.0,5455.0 9083.0,5436.0 C 9105.0,5408.0 9118.0,5400.0 9143.0,5400.0 C 9173.0,5400.0 9200.0,5414.0 9200.0,5431.0 C 9200.0,5434.0 9187.0,5440.0 9170.0,5443.0 C 9151.0,5447.0 9136.0,5460.0 9126.0,5478.0 C 9115.0,5500.0 9099.0,5510.0 9066.0,5519.0 C 9011.0,5533.0 8980.0,5533.0 8980.0,5520.0" fill="pink"/>
	<path d="M 790.0,5451.0 C 774.0,5420.0 778.0,5397.0 809.0,5348.0 C 842.0,5296.0 875.0,5270.0 907.0,5270.0 C 952.0,5270.0 951.0,5300.0 903.0,5388.0 C 863.0,5461.0 855.0,5470.0 830.0,5470.0 C 811.0,5470.0 797.0,5463.0 790.0,5451.0" fill="pink"/>
	<path d="M 8853.0,5454.0 C 8846.0,5435.0 8873.0,5410.0 8902.0,5410.0 C 8925.0,5410.0 8925.0,5423.0 8903.0,5442.0 C 8871.0,5469.0 8860.0,5472.0 8853.0,5454.0" fill="pink"/>
	<path d="M 6215.0,5411.0 C 6190.0,5406.0 6184.0,5399.0 6182.0,5372.0 C 6178.0,5333.0 6202.0,5319.0 6230.0,5345.0 C 6249.0,5362.0 6250.0,5362.0 6269.0,5339.0 L 6288.0,5315.0 L 6314.0,5339.0 C 6341.0,5365.0 6348.0,5394.0 6329.0,5406.0 C 6323.0,5409.0 6313.0,5407.0 6307.0,5401.0 C 6291.0,5385.0 6270.0,5387.0 6270.0,5405.0 C 6270.0,5421.0 6263.0,5422.0 6215.0,5411.0" fill="pink"/>
	<path d="M 7225.0,5410.0 C 7218.0,5399.0 7243.0,5386.0 7260.0,5392.0 C 7266.0,5394.0 7261.0,5401.0 7251.0,5407.0 C 7238.0,5415.0 7229.0,5416.0 7225.0,5410.0" fill="pink"/>
	<path d="M 7735.0,5410.0 C 7738.0,5405.0 7748.0,5400.0 7756.0,5400.0 C 7764.0,5400.0 7770.0,5405.0 7770.0,5410.0 C 7770.0,5416.0 7761.0,5420.0 7749.0,5420.0 C 7738.0,5420.0 7732.0,5416.0 7735.0,5410.0" fill="pink"/>
	<path d="M 7216.0,5356.0 C 7185.0,5326.0 7184.0,5316.0 7211.0,5289.0 C 7226.0,5274.0 7237.0,5271.0 7253.0,5277.0 C 7265.0,5281.0 7299.0,5285.0 7328.0,5285.0 C 7393.0,5285.0 7395.0,5299.0 7337.0,5339.0 C 7272.0,5383.0 7246.0,5387.0 7216.0,5356.0" fill="pink"/>
	<path d="M 2370.0,5332.0 C 2370.0,5327.0 2359.0,5325.0 2345.0,5328.0 C 2316.0,5333.0 2290.0,5315.0 2290.0,5291.0 C 2290.0,5282.0 2276.0,5263.0 2258.0,5248.0 C 2240.0,5234.0 2229.0,5218.0 2233.0,5214.0 C 2237.0,5209.0 2269.0,5204.0 2304.0,5202.0 C 2365.0,5198.0 2368.0,5197.0 2393.0,5157.0 C 2408.0,5134.0 2420.0,5102.0 2420.0,5084.0 C 2420.0,5045.0 2441.0,5020.0 2501.0,4986.0 L 2548.0,4960.0 L 2570.0,5017.0 C 2583.0,5049.0 2598.0,5081.0 2603.0,5088.0 C 2615.0,5103.0 2615.0,5104.0 2563.0,5118.0 C 2496.0,5138.0 2480.0,5157.0 2457.0,5250.0 C 2435.0,5333.0 2434.0,5335.0 2403.0,5338.0 C 2385.0,5340.0 2370.0,5337.0 2370.0,5332.0" fill="pink"/>
	<path d="M 8995.0,5311.0 C 9001.0,5305.0 9029.0,5296.0 9058.0,5290.0 C 9087.0,5285.0 9123.0,5271.0 9140.0,5259.0 C 9161.0,5243.0 9173.0,5240.0 9182.0,5247.0 C 9189.0,5253.0 9217.0,5257.0 9243.0,5257.0 C 9297.0,5257.0 9323.0,5272.0 9294.0,5288.0 C 9283.0,5293.0 9232.0,5301.0 9180.0,5304.0 C 9128.0,5308.0 9063.0,5313.0 9035.0,5316.0 C 8999.0,5320.0 8988.0,5319.0 8995.0,5311.0" fill="pink"/>
	<path d="M 6526.0,5294.0 C 6507.0,5276.0 6507.0,5278.0 6520.0,5246.0 C 6531.0,5216.0 6557.0,5213.0 6601.0,5236.0 C 6624.0,5247.0 6635.0,5248.0 6645.0,5240.0 C 6655.0,5232.0 6669.0,5232.0 6700.0,5240.0 C 6731.0,5248.0 6749.0,5248.0 6769.0,5240.0 C 6788.0,5232.0 6804.0,5232.0 6824.0,5240.0 C 6866.0,5255.0 6869.0,5253.0 6863.0,5214.0 C 6858.0,5185.0 6860.0,5178.0 6871.0,5182.0 C 6879.0,5184.0 6886.0,5198.0 6888.0,5211.0 C 6890.0,5230.0 6901.0,5240.0 6928.0,5250.0 L 6965.0,5264.0 L 6935.0,5271.0 C 6919.0,5275.0 6874.0,5278.0 6835.0,5279.0 C 6797.0,5279.0 6730.0,5287.0 6687.0,5295.0 C 6587.0,5314.0 6545.0,5314.0 6526.0,5294.0" fill="pink"/>
	<path d="M 7778.0,5284.0 C 7752.0,5276.0 7728.0,5265.0 7725.0,5260.0 C 7718.0,5248.0 7792.0,5210.0 7822.0,5210.0 C 7851.0,5210.0 7874.0,5225.0 7866.0,5238.0 C 7863.0,5244.0 7865.0,5250.0 7871.0,5252.0 C 7878.0,5254.0 7880.0,5265.0 7876.0,5278.0 C 7867.0,5304.0 7846.0,5305.0 7778.0,5284.0" fill="pink"/>
	<path d="M 1080.0,5111.0 C 1080.0,5084.0 1104.0,5040.0 1118.0,5042.0 C 1128.0,5044.0 1136.0,5034.0 1141.0,5015.0 C 1146.0,4998.0 1163.0,4971.0 1180.0,4955.0 L 1210.0,4926.0 L 1210.0,4963.0 C 1210.0,4993.0 1201.0,5009.0 1154.0,5059.0 C 1101.0,5116.0 1080.0,5131.0 1080.0,5111.0" fill="pink"/>
	<path d="M 2796.0,5095.0 C 2781.0,5056.0 2779.0,4984.0 2792.0,4967.0 C 2804.0,4951.0 2810.0,4950.0 2833.0,4961.0 C 2854.0,4970.0 2863.0,4970.0 2874.0,4961.0 C 2886.0,4951.0 2894.0,4956.0 2919.0,4991.0 C 2936.0,5014.0 2950.0,5037.0 2950.0,5041.0 C 2950.0,5046.0 2931.0,5063.0 2908.0,5080.0 C 2863.0,5113.0 2806.0,5121.0 2796.0,5095.0" fill="pink"/>
	<path d="M 7622.0,5040.0 C 7597.0,5024.0 7590.0,5023.0 7580.0,5035.0 C 7572.0,5045.0 7547.0,5047.0 7475.0,5043.0 C 7383.0,5037.0 7379.0,5036.0 7342.0,5001.0 C 7305.0,4966.0 7304.0,4963.0 7315.0,4930.0 L 7327.0,4895.0 L 7346.0,4932.0 L 7365.0,4969.0 L 7405.0,4934.0 C 7430.0,4912.0 7440.0,4897.0 7433.0,4894.0 C 7426.0,4891.0 7420.0,4882.0 7420.0,4874.0 C 7420.0,4859.0 7453.0,4856.0 7485.0,4870.0 C 7504.0,4877.0 7504.0,4878.0 7487.0,4885.0 C 7470.0,4892.0 7470.0,4894.0 7491.0,4916.0 C 7513.0,4940.0 7540.0,4947.0 7554.0,4933.0 C 7558.0,4928.0 7580.0,4920.0 7603.0,4914.0 C 7636.0,4906.0 7653.0,4906.0 7681.0,4917.0 C 7717.0,4931.0 7719.0,4930.0 7840.0,4870.0 C 7907.0,4836.0 7963.0,4810.0 7965.0,4812.0 C 7966.0,4814.0 7971.0,4829.0 7974.0,4847.0 C 7980.0,4874.0 7977.0,4884.0 7951.0,4911.0 C 7934.0,4929.0 7920.0,4948.0 7920.0,4955.0 C 7920.0,4979.0 7874.0,5010.0 7838.0,5010.0 C 7818.0,5010.0 7791.0,5014.0 7777.0,5019.0 C 7764.0,5024.0 7731.0,5035.0 7703.0,5043.0 C 7656.0,5057.0 7650.0,5057.0 7622.0,5040.0" fill="pink"/>
	<path d="M 7315.0,5020.0 C 7312.0,5015.0 7316.0,5010.0 7324.0,5010.0 C 7333.0,5010.0 7340.0,5015.0 7340.0,5020.0 C 7340.0,5026.0 7336.0,5030.0 7331.0,5030.0 C 7325.0,5030.0 7318.0,5026.0 7315.0,5020.0" fill="pink"/>
	<path d="M 6973.0,4990.0 C 6921.0,4979.0 6890.0,4963.0 6890.0,4946.0 C 6890.0,4925.0 6942.0,4863.0 6985.0,4836.0 C 7034.0,4804.0 7058.0,4803.0 7120.0,4835.0 C 7166.0,4858.0 7170.0,4863.0 7170.0,4895.0 C 7170.0,4924.0 7166.0,4930.0 7149.0,4930.0 C 7138.0,4930.0 7131.0,4934.0 7134.0,4939.0 C 7138.0,4944.0 7126.0,4960.0 7109.0,4974.0 C 7077.0,5001.0 7049.0,5005.0 6973.0,4990.0" fill="pink"/>
	<path d="M 7265.0,4960.0 C 7262.0,4955.0 7266.0,4950.0 7274.0,4950.0 C 7283.0,4950.0 7290.0,4955.0 7290.0,4960.0 C 7290.0,4966.0 7286.0,4970.0 7281.0,4970.0 C 7275.0,4970.0 7268.0,4966.0 7265.0,4960.0" fill="pink"/>
	<path d="M 7215.0,4940.0 C 7212.0,4935.0 7218.0,4930.0 7230.0,4930.0 C 7242.0,4930.0 7248.0,4935.0 7245.0,4940.0 C 7242.0,4946.0 7235.0,4950.0 7230.0,4950.0 C 7225.0,4950.0 7218.0,4946.0 7215.0,4940.0" fill="pink"/>
	<path d="M 7385.0,4890.0 C 7381.0,4884.0 7382.0,4874.0 7388.0,4868.0 C 7394.0,4862.0 7400.0,4862.0 7405.0,4870.0 C 7409.0,4876.0 7408.0,4886.0 7402.0,4892.0 C 7396.0,4898.0 7390.0,4898.0 7385.0,4890.0" fill="pink"/>
	<path d="M 7145.0,4810.0 C 7148.0,4805.0 7153.0,4800.0 7156.0,4800.0 C 7158.0,4800.0 7160.0,4805.0 7160.0,4810.0 C 7160.0,4816.0 7155.0,4820.0 7149.0,4820.0 C 7144.0,4820.0 7142.0,4816.0 7145.0,4810.0" fill="pink"/>
	<path d="M 6214.0,4775.0 C 6206.0,4755.0 6227.0,4730.0 6251.0,4730.0 C 6270.0,4730.0 6286.0,4763.0 6275.0,4780.0 C 6265.0,4796.0 6220.0,4792.0 6214.0,4775.0" fill="pink"/>
	<path d="M 8550.0,4730.0 C 8558.0,4725.0 8570.0,4720.0 8575.0,4720.0 C 8581.0,4720.0 8578.0,4725.0 8570.0,4730.0 C 8562.0,4735.0 8551.0,4740.0 8545.0,4740.0 C 8540.0,4740.0 8542.0,4735.0 8550.0,4730.0" fill="pink"/>
	<path d="M 6202.0,4678.0 C 6197.0,4671.0 6189.0,4649.0 6185.0,4630.0 C 6178.0,4598.0 6177.0,4597.0 6169.0,4618.0 C 6159.0,4644.0 6151.0,4645.0 6106.0,4626.0 C 6076.0,4614.0 6072.0,4607.0 6067.0,4564.0 C 6064.0,4537.0 6060.0,4506.0 6058.0,4495.0 C 6055.0,4478.0 6061.0,4475.0 6090.0,4475.0 C 6122.0,4475.0 6125.0,4472.0 6125.0,4447.0 C 6126.0,4399.0 6174.0,4383.0 6190.0,4425.0 C 6195.0,4439.0 6216.0,4460.0 6235.0,4472.0 L 6271.0,4493.0 L 6244.0,4521.0 C 6220.0,4546.0 6218.0,4554.0 6226.0,4578.0 C 6233.0,4597.0 6242.0,4604.0 6257.0,4603.0 C 6277.0,4601.0 6278.0,4603.0 6268.0,4633.0 C 6255.0,4672.0 6241.0,4690.0 6225.0,4690.0 C 6218.0,4690.0 6208.0,4684.0 6202.0,4678.0" fill="pink"/>
	<path d="M 5961.0,4537.0 C 5945.0,4521.0 5948.0,4495.0 5968.0,4477.0 C 5993.0,4454.0 6007.0,4456.0 6013.0,4482.0 C 6024.0,4521.0 5986.0,4562.0 5961.0,4537.0" fill="pink"/>
	<path d="M 6341.0,4496.0 C 6332.0,4486.0 6332.0,4480.0 6340.0,4475.0 C 6356.0,4465.0 6371.0,4482.0 6361.0,4498.0 C 6355.0,4508.0 6351.0,4508.0 6341.0,4496.0" fill="pink"/>
	<path d="M 1574.0,4474.0 C 1577.0,4465.0 1580.0,4456.0 1580.0,4454.0 C 1580.0,4445.0 1629.0,4451.0 1636.0,4461.0 C 1644.0,4475.0 1622.0,4490.0 1591.0,4490.0 C 1574.0,4490.0 1569.0,4486.0 1574.0,4474.0" fill="pink"/>
	<path d="M 8458.0,4455.0 C 8430.0,4413.0 8412.0,4350.0 8427.0,4350.0 C 8440.0,4350.0 8493.0,4465.0 8488.0,4481.0 C 8485.0,4490.0 8474.0,4480.0 8458.0,4455.0" fill="pink"/>
	<path d="M 8752.0,4430.0 C 8734.0,4408.0 8724.0,4389.0 8730.0,4385.0 C 8741.0,4378.0 8744.0,4337.0 8733.0,4327.0 C 8730.0,4323.0 8721.0,4325.0 8714.0,4331.0 C 8696.0,4346.0 8693.0,4336.0 8685.0,4233.0 C 8680.0,4161.0 8681.0,4151.0 8697.0,4142.0 C 8722.0,4127.0 8765.0,4155.0 8787.0,4200.0 C 8797.0,4219.0 8805.0,4240.0 8805.0,4245.0 C 8805.0,4251.0 8816.0,4264.0 8829.0,4276.0 C 8850.0,4294.0 8851.0,4299.0 8839.0,4317.0 C 8829.0,4333.0 8829.0,4342.0 8838.0,4352.0 C 8854.0,4372.0 8823.0,4470.0 8801.0,4470.0 C 8792.0,4470.0 8770.0,4452.0 8752.0,4430.0" fill="pink"/>
	<path d="M 8370.0,4385.0 C 8370.0,4361.0 8375.0,4350.0 8385.0,4350.0 C 8400.0,4350.0 8405.0,4376.0 8394.0,4404.0 C 8383.0,4432.0 8370.0,4421.0 8370.0,4385.0" fill="pink"/>
	<path d="M 5646.0,4375.0 C 5637.0,4350.0 5650.0,4249.0 5661.0,4256.0 C 5672.0,4262.0 5672.0,4347.0 5661.0,4374.0 C 5654.0,4393.0 5653.0,4393.0 5646.0,4375.0" fill="pink"/>
	<path d="M 2387.0,4259.0 C 2335.0,4145.0 2336.0,4127.0 2395.0,4149.0 C 2426.0,4160.0 2433.0,4159.0 2459.0,4141.0 C 2475.0,4129.0 2500.0,4120.0 2514.0,4120.0 C 2533.0,4120.0 2540.0,4115.0 2540.0,4101.0 C 2540.0,4090.0 2536.0,4078.0 2530.0,4075.0 C 2525.0,4072.0 2520.0,4061.0 2520.0,4051.0 C 2520.0,4036.0 2532.0,4032.0 2598.0,4026.0 C 2693.0,4018.0 2761.0,4001.0 2868.0,3959.0 L 2952.0,3926.0 L 2998.0,3944.0 C 3046.0,3963.0 3164.0,3967.0 3185.0,3951.0 C 3190.0,3946.0 3220.0,3940.0 3252.0,3936.0 C 3283.0,3933.0 3339.0,3916.0 3377.0,3899.0 C 3447.0,3867.0 3546.0,3830.0 3562.0,3830.0 C 3567.0,3830.0 3568.0,3835.0 3565.0,3840.0 C 3557.0,3853.0 3554.0,3853.0 3625.0,3831.0 C 3668.0,3817.0 3692.0,3815.0 3710.0,3822.0 C 3727.0,3828.0 3765.0,3826.0 3832.0,3814.0 C 3916.0,3799.0 3938.0,3799.0 3984.0,3810.0 C 4034.0,3822.0 4042.0,3821.0 4129.0,3791.0 C 4180.0,3774.0 4235.0,3760.0 4251.0,3760.0 C 4267.0,3760.0 4280.0,3756.0 4280.0,3750.0 C 4280.0,3736.0 4319.0,3718.0 4337.0,3724.0 C 4349.0,3729.0 4346.0,3737.0 4321.0,3765.0 C 4287.0,3804.0 4282.0,3831.0 4305.0,3850.0 C 4317.0,3860.0 4320.0,3860.0 4320.0,3846.0 C 4320.0,3826.0 4356.0,3803.0 4402.0,3795.0 C 4449.0,3786.0 4474.0,3759.0 4466.0,3725.0 C 4458.0,3693.0 4473.0,3692.0 4488.0,3724.0 C 4494.0,3737.0 4518.0,3758.0 4542.0,3771.0 C 4591.0,3799.0 4600.0,3820.0 4571.0,3849.0 C 4544.0,3876.0 4487.0,3885.0 4439.0,3870.0 C 4383.0,3851.0 4325.0,3869.0 4317.0,3908.0 C 4313.0,3929.0 4299.0,3942.0 4264.0,3960.0 C 4219.0,3982.0 4212.0,3982.0 4161.0,3971.0 C 4049.0,3946.0 4039.0,3947.0 3970.0,3983.0 C 3935.0,4002.0 3905.0,4021.0 3903.0,4026.0 C 3901.0,4032.0 3909.0,4046.0 3920.0,4058.0 C 3938.0,4077.0 3947.0,4079.0 3988.0,4072.0 C 4073.0,4059.0 4122.0,4064.0 4184.0,4093.0 C 4270.0,4133.0 4250.0,4144.0 4089.0,4146.0 C 3986.0,4147.0 3957.0,4145.0 3953.0,4134.0 C 3946.0,4116.0 3926.0,4116.0 3911.0,4134.0 C 3904.0,4142.0 3873.0,4151.0 3842.0,4154.0 C 3725.0,4165.0 3688.0,4172.0 3683.0,4186.0 C 3677.0,4203.0 3656.0,4204.0 3631.0,4188.0 C 3614.0,4178.0 3606.0,4181.0 3571.0,4213.0 C 3548.0,4233.0 3526.0,4250.0 3521.0,4250.0 C 3517.0,4250.0 3496.0,4225.0 3476.0,4195.0 C 3455.0,4162.0 3430.0,4138.0 3416.0,4134.0 C 3403.0,4131.0 3355.0,4136.0 3310.0,4145.0 C 3262.0,4155.0 3213.0,4159.0 3190.0,4155.0 C 3167.0,4151.0 3143.0,4153.0 3130.0,4160.0 C 3116.0,4167.0 3105.0,4168.0 3097.0,4162.0 C 3089.0,4156.0 3073.0,4156.0 3050.0,4164.0 C 3023.0,4172.0 3014.0,4181.0 3012.0,4202.0 C 3010.0,4218.0 2994.0,4242.0 2974.0,4259.0 C 2945.0,4285.0 2937.0,4288.0 2920.0,4278.0 C 2905.0,4268.0 2894.0,4269.0 2865.0,4283.0 C 2845.0,4292.0 2821.0,4300.0 2812.0,4300.0 C 2802.0,4300.0 2786.0,4306.0 2775.0,4314.0 C 2746.0,4334.0 2653.0,4340.0 2639.0,4324.0 C 2624.0,4306.0 2606.0,4306.0 2591.0,4324.0 C 2585.0,4331.0 2556.0,4340.0 2527.0,4343.0 C 2499.0,4347.0 2466.0,4352.0 2455.0,4355.0 C 2437.0,4361.0 2428.0,4348.0 2387.0,4259.0" fill="pink"/>
	<path d="M 8831.0,4209.0 C 8818.0,4192.0 8811.0,4176.0 8815.0,4172.0 C 8823.0,4164.0 8859.0,4209.0 8860.0,4228.0 C 8860.0,4244.0 8859.0,4243.0 8831.0,4209.0" fill="pink"/>
	<path d="M 4500.0,4140.0 C 4508.0,4135.0 4526.0,4131.0 4540.0,4131.0 C 4563.0,4131.0 4563.0,4132.0 4545.0,4140.0 C 4534.0,4145.0 4516.0,4149.0 4505.0,4149.0 C 4488.0,4150.0 4488.0,4148.0 4500.0,4140.0" fill="pink"/>
	<path d="M 5690.0,4101.0 C 5690.0,4087.0 5708.0,4078.0 5721.0,4086.0 C 5729.0,4090.0 5728.0,4095.0 5719.0,4101.0 C 5701.0,4112.0 5690.0,4112.0 5690.0,4101.0" fill="pink"/>
	<path d="M 4280.0,4085.0 C 4287.0,4077.0 4296.0,4070.0 4301.0,4070.0 C 4306.0,4070.0 4310.0,4077.0 4310.0,4085.0 C 4310.0,4094.0 4301.0,4100.0 4289.0,4100.0 C 4271.0,4100.0 4270.0,4098.0 4280.0,4085.0" fill="pink"/>
	<path d="M 7454.0,4089.0 C 7451.0,4083.0 7454.0,4074.0 7461.0,4069.0 C 7483.0,4055.0 7490.0,4058.0 7490.0,4080.0 C 7490.0,4101.0 7466.0,4107.0 7454.0,4089.0" fill="pink"/>
	<path d="M 8118.0,4081.0 C 8104.0,4070.0 8078.0,4038.0 8059.0,4011.0 C 8040.0,3983.0 8019.0,3962.0 8013.0,3965.0 C 8006.0,3967.0 8000.0,3965.0 8000.0,3960.0 C 8000.0,3954.0 8007.0,3950.0 8015.0,3950.0 C 8025.0,3950.0 8030.0,3940.0 8030.0,3921.0 C 8030.0,3900.0 8036.0,3891.0 8052.0,3887.0 C 8064.0,3883.0 8075.0,3882.0 8076.0,3883.0 C 8130.0,3959.0 8150.0,3997.0 8150.0,4024.0 C 8150.0,4042.0 8155.0,4061.0 8160.0,4066.0 C 8168.0,4074.0 8167.0,4080.0 8157.0,4088.0 C 8146.0,4098.0 8137.0,4096.0 8118.0,4081.0" fill="pink"/>
	<path d="M 8185.0,4090.0 C 8182.0,4085.0 8188.0,4076.0 8199.0,4071.0 C 8225.0,4056.0 8230.0,4057.0 8224.0,4074.0 C 8217.0,4092.0 8192.0,4102.0 8185.0,4090.0" fill="pink"/>
	<path d="M 5760.0,4070.0 C 5760.0,4065.0 5772.0,4060.0 5786.0,4060.0 C 5800.0,4060.0 5809.0,4064.0 5805.0,4070.0 C 5802.0,4076.0 5790.0,4080.0 5779.0,4080.0 C 5769.0,4080.0 5760.0,4076.0 5760.0,4070.0" fill="pink"/>
	<path d="M 8010.0,4014.0 C 8010.0,3997.0 8032.0,4000.0 8038.0,4018.0 C 8040.0,4025.0 8035.0,4030.0 8026.0,4030.0 C 8017.0,4030.0 8010.0,4023.0 8010.0,4014.0" fill="pink"/>
	<path d="M 7190.0,3985.0 C 7190.0,3968.0 7192.0,3967.0 7214.0,3976.0 C 7232.0,3983.0 7226.0,4000.0 7204.0,4000.0 C 7196.0,4000.0 7190.0,3993.0 7190.0,3985.0" fill="pink"/>
	<path d="M 6970.0,3974.0 C 6951.0,3966.0 6923.0,3961.0 6908.0,3964.0 C 6886.0,3968.0 6877.0,3964.0 6860.0,3941.0 C 6830.0,3897.0 6834.0,3890.0 6892.0,3890.0 C 6929.0,3890.0 6963.0,3899.0 7013.0,3922.0 L 7082.0,3954.0 L 7060.0,3972.0 C 7033.0,3994.0 7016.0,3994.0 6970.0,3974.0" fill="pink"/>
	<path d="M 7686.0,3932.0 C 7683.0,3927.0 7692.0,3912.0 7706.0,3899.0 C 7731.0,3875.0 7732.0,3875.0 7746.0,3895.0 C 7754.0,3905.0 7759.0,3919.0 7757.0,3925.0 C 7753.0,3938.0 7694.0,3944.0 7686.0,3932.0" fill="pink"/>
	<path d="M 5040.0,3871.0 C 4987.0,3860.0 4978.0,3853.0 4991.0,3828.0 C 5000.0,3812.0 4999.0,3805.0 4989.0,3799.0 C 4969.0,3787.0 4959.0,3788.0 4939.0,3806.0 C 4923.0,3821.0 4918.0,3820.0 4881.0,3799.0 C 4858.0,3787.0 4838.0,3769.0 4836.0,3761.0 C 4819.0,3697.0 4820.0,3689.0 4844.0,3665.0 C 4873.0,3636.0 4887.0,3634.0 4916.0,3654.0 C 4927.0,3662.0 4956.0,3668.0 4981.0,3669.0 C 5028.0,3669.0 5155.0,3704.0 5165.0,3720.0 C 5174.0,3735.0 5190.0,3732.0 5190.0,3715.0 C 5190.0,3688.0 5293.0,3695.0 5341.0,3725.0 C 5363.0,3739.0 5378.0,3755.0 5374.0,3761.0 C 5370.0,3769.0 5365.0,3768.0 5359.0,3759.0 C 5348.0,3740.0 5332.0,3758.0 5328.0,3795.0 C 5325.0,3822.0 5321.0,3825.0 5290.0,3826.0 C 5271.0,3826.0 5247.0,3830.0 5237.0,3835.0 C 5226.0,3839.0 5209.0,3837.0 5193.0,3829.0 C 5170.0,3816.0 5166.0,3818.0 5142.0,3848.0 C 5114.0,3881.0 5104.0,3883.0 5040.0,3871.0" fill="pink"/>
	<path d="M 7290.0,3872.0 C 7290.0,3855.0 7329.0,3828.0 7345.0,3833.0 C 7353.0,3837.0 7360.0,3849.0 7360.0,3860.0 C 7360.0,3876.0 7354.0,3880.0 7325.0,3880.0 C 7306.0,3880.0 7290.0,3876.0 7290.0,3872.0" fill="pink"/>
	<path d="M 5331.0,3856.0 C 5322.0,3846.0 5322.0,3840.0 5330.0,3835.0 C 5347.0,3825.0 5367.0,3847.0 5354.0,3860.0 C 5346.0,3868.0 5339.0,3866.0 5331.0,3856.0" fill="pink"/>
	<path d="M 6175.0,3860.0 C 6172.0,3855.0 6174.0,3850.0 6179.0,3850.0 C 6198.0,3850.0 6191.0,3833.0 6166.0,3822.0 C 6153.0,3816.0 6126.0,3797.0 6106.0,3780.0 L 6070.0,3748.0 L 6025.0,3765.0 C 5991.0,3778.0 5966.0,3781.0 5923.0,3776.0 C 5871.0,3770.0 5859.0,3773.0 5775.0,3810.0 L 5683.0,3850.0 L 5626.0,3835.0 C 5553.0,3816.0 5534.0,3806.0 5514.0,3774.0 C 5501.0,3755.0 5500.0,3744.0 5508.0,3726.0 C 5518.0,3704.0 5521.0,3703.0 5622.0,3708.0 C 5705.0,3712.0 5733.0,3709.0 5758.0,3696.0 C 5787.0,3681.0 5792.0,3681.0 5830.0,3696.0 C 5859.0,3708.0 5885.0,3711.0 5921.0,3706.0 C 5952.0,3702.0 5977.0,3703.0 5984.0,3709.0 C 5991.0,3715.0 6041.0,3729.0 6094.0,3739.0 C 6148.0,3750.0 6209.0,3768.0 6230.0,3779.0 C 6268.0,3799.0 6268.0,3799.0 6282.0,3779.0 C 6292.0,3763.0 6302.0,3761.0 6328.0,3766.0 C 6345.0,3770.0 6360.0,3778.0 6360.0,3785.0 C 6360.0,3792.0 6369.0,3800.0 6379.0,3803.0 C 6389.0,3805.0 6403.0,3817.0 6409.0,3828.0 C 6420.0,3848.0 6418.0,3848.0 6337.0,3846.0 C 6291.0,3844.0 6248.0,3840.0 6242.0,3836.0 C 6236.0,3833.0 6226.0,3839.0 6220.0,3850.0 C 6209.0,3871.0 6185.0,3877.0 6175.0,3860.0" fill="pink"/>
	<path d="M 6536.0,3826.0 L 6521.0,3788.0 L 6568.0,3795.0 C 6664.0,3809.0 6700.0,3821.0 6700.0,3841.0 C 6700.0,3861.0 6690.0,3863.0 6593.0,3864.0 C 6553.0,3865.0 6550.0,3863.0 6536.0,3826.0" fill="pink"/>
	<path d="M 7970.0,3840.0 C 7943.0,3802.0 7956.0,3802.0 8000.0,3840.0 C 8032.0,3866.0 8033.0,3869.0 8013.0,3870.0 C 8000.0,3870.0 7983.0,3858.0 7970.0,3840.0" fill="pink"/>
	<path d="M 6468.0,3833.0 C 6425.0,3804.0 6422.0,3795.0 6450.0,3780.0 C 6475.0,3767.0 6486.0,3773.0 6506.0,3812.0 C 6528.0,3854.0 6512.0,3863.0 6468.0,3833.0" fill="pink"/>
	<path d="M 7534.0,3845.0 C 7544.0,3837.0 7558.0,3834.0 7563.0,3837.0 C 7569.0,3841.0 7565.0,3847.0 7554.0,3851.0 C 7523.0,3863.0 7514.0,3860.0 7534.0,3845.0" fill="pink"/>
	<path d="M 4695.0,3829.0 C 4672.0,3811.0 4669.0,3802.0 4675.0,3774.0 C 4679.0,3748.0 4677.0,3739.0 4662.0,3731.0 C 4651.0,3725.0 4639.0,3724.0 4635.0,3728.0 C 4630.0,3732.0 4630.0,3730.0 4634.0,3723.0 C 4637.0,3717.0 4660.0,3704.0 4685.0,3695.0 C 4735.0,3675.0 4780.0,3681.0 4780.0,3707.0 C 4780.0,3716.0 4791.0,3742.0 4804.0,3765.0 C 4831.0,3811.0 4828.0,3824.0 4787.0,3839.0 C 4746.0,3855.0 4726.0,3853.0 4695.0,3829.0" fill="pink"/>
	<path d="M 5410.0,3766.0 C 5410.0,3752.0 5415.0,3738.0 5420.0,3735.0 C 5426.0,3732.0 5430.0,3735.0 5430.0,3743.0 C 5430.0,3751.0 5437.0,3761.0 5446.0,3764.0 C 5466.0,3772.0 5455.0,3790.0 5429.0,3790.0 C 5415.0,3790.0 5410.0,3783.0 5410.0,3766.0" fill="pink"/>
	<path d="M 4547.0,3743.0 C 4534.0,3731.0 4540.0,3720.0 4560.0,3720.0 C 4573.0,3720.0 4578.0,3725.0 4574.0,3735.0 C 4567.0,3751.0 4557.0,3754.0 4547.0,3743.0" fill="pink"/>
	<path d="M 5466.0,3735.0 C 5463.0,3726.0 5466.0,3720.0 5475.0,3720.0 C 5491.0,3720.0 5495.0,3736.0 5481.0,3744.0 C 5476.0,3747.0 5470.0,3743.0 5466.0,3735.0" fill="pink"/>
	<path d="M 6646.0,3686.0 C 6631.0,3673.0 6575.0,3648.0 6523.0,3630.0 C 6423.0,3596.0 6360.0,3549.0 6360.0,3510.0 C 6360.0,3499.0 6344.0,3473.0 6325.0,3451.0 C 6306.0,3430.0 6290.0,3402.0 6290.0,3390.0 C 6290.0,3368.0 6291.0,3368.0 6308.0,3383.0 C 6330.0,3403.0 6372.0,3405.0 6399.0,3388.0 C 6414.0,3379.0 6428.0,3379.0 6462.0,3389.0 C 6525.0,3407.0 6576.0,3443.0 6653.0,3522.0 C 6713.0,3585.0 6720.0,3596.0 6715.0,3621.0 C 6710.0,3642.0 6713.0,3652.0 6724.0,3656.0 C 6745.0,3664.0 6744.0,3686.0 6723.0,3693.0 C 6713.0,3695.0 6698.0,3700.0 6690.0,3704.0 C 6682.0,3707.0 6662.0,3699.0 6646.0,3686.0" fill="pink"/>
	<path d="M 5350.0,3581.0 C 5331.0,3571.0 5314.0,3558.0 5312.0,3552.0 C 5308.0,3538.0 5353.0,3517.0 5447.0,3490.0 C 5501.0,3475.0 5529.0,3460.0 5559.0,3431.0 C 5582.0,3409.0 5613.0,3389.0 5629.0,3385.0 C 5664.0,3378.0 5714.0,3400.0 5731.0,3431.0 C 5745.0,3458.0 5724.0,3481.0 5626.0,3548.0 C 5556.0,3596.0 5554.0,3596.0 5469.0,3598.0 C 5404.0,3599.0 5376.0,3595.0 5350.0,3581.0" fill="pink"/>
	<path d="M 5950.0,3345.0 C 5938.0,3331.0 5939.0,3327.0 5950.0,3320.0 C 5967.0,3309.0 6003.0,3327.0 5997.0,3343.0 C 5991.0,3362.0 5965.0,3363.0 5950.0,3345.0" fill="pink"/>
	<path d="M 6245.0,3318.0 C 6149.0,3256.0 6162.0,3226.0 6263.0,3276.0 C 6292.0,3291.0 6316.0,3303.0 6317.0,3304.0 C 6318.0,3305.0 6316.0,3317.0 6312.0,3331.0 L 6305.0,3357.0 L 6245.0,3318.0" fill="pink"/>
</svg>
