<?xml version="1.0" ?>
<svg xmlns="http://www.w3.org/2000/svg" xmlns:ev="http://www.w3.org/2001/xml-events" xmlns:xlink="http://www.w3.org/1999/xlink" baseProfile="full" height="600px" version="1.1" viewBox="958.1448768142808 -1032.3020445242348 8334.679139560922 12300.415477349312" width="407px">
	<defs/>
	<path d="M 6450.0,10237.0 C 6450.0,10234.0 6473.0,10224.0 6500.0,10215.0 C 6547.0,10199.0 6567.0,10180.0 6536.0,10180.0 C 6513.0,10180.0 6508.0,10162.0 6520.0,10124.0 C 6529.0,10098.0 6550.0,10075.0 6602.0,10038.0 C 6667.0,9991.0 6671.0,9985.0 6654.0,9973.0 C 6626.0,9953.0 6586.0,9957.0 6560.0,9985.0 C 6540.0,10006.0 6539.0,10010.0 6553.0,10016.0 C 6567.0,10021.0 6564.0,10026.0 6541.0,10046.0 C 6502.0,10078.0 6483.0,10076.0 6431.0,10035.0 C 6380.0,9995.0 6382.0,9995.0 6351.0,10017.0 C 6328.0,10032.0 6326.0,10032.0 6314.0,10015.0 C 6305.0,10004.0 6287.0,9996.0 6268.0,9996.0 C 6245.0,9995.0 6234.0,9990.0 6232.0,9978.0 C 6230.0,9967.0 6235.0,9960.0 6244.0,9960.0 C 6265.0,9960.0 6264.0,9931.0 6244.0,9909.0 C 6228.0,9892.0 6229.0,9890.0 6255.0,9880.0 L 6283.0,9869.0 L 6252.0,9837.0 C 6203.0,9787.0 6203.0,9786.0 6330.0,9587.0 L 6373.0,9518.0 L 6341.0,9493.0 C 6310.0,9468.0 6309.0,9467.0 6329.0,9454.0 C 6340.0,9446.0 6354.0,9424.0 6360.0,9404.0 C 6375.0,9361.0 6364.0,9346.0 6310.0,9333.0 C 6287.0,9327.0 6271.0,9315.0 6262.0,9297.0 C 6253.0,9279.0 6241.0,9270.0 6225.0,9270.0 C 6209.0,9270.0 6185.0,9253.0 6153.0,9218.0 C 6071.0,9131.0 6048.0,9110.0 6039.0,9116.0 C 6016.0,9130.0 6035.0,9170.0 6100.0,9244.0 C 6139.0,9287.0 6170.0,9327.0 6170.0,9331.0 C 6170.0,9348.0 6150.0,9349.0 6110.0,9335.0 C 6057.0,9316.0 6060.0,9316.0 6060.0,9345.0 C 6060.0,9358.0 6068.0,9374.0 6078.0,9379.0 C 6116.0,9399.0 6229.0,9517.0 6235.0,9542.0 C 6241.0,9565.0 6235.0,9578.0 6197.0,9622.0 C 6173.0,9651.0 6149.0,9686.0 6145.0,9698.0 C 6138.0,9721.0 6136.0,9719.0 6090.0,9668.0 C 6063.0,9639.0 6041.0,9621.0 6040.0,9628.0 C 6040.0,9649.0 6066.0,9704.0 6084.0,9719.0 C 6099.0,9732.0 6099.0,9734.0 6084.0,9751.0 C 6069.0,9768.0 6069.0,9771.0 6084.0,9794.0 C 6093.0,9808.0 6100.0,9827.0 6100.0,9837.0 C 6100.0,9864.0 6053.0,9960.0 6040.0,9960.0 C 6033.0,9960.0 6010.0,9944.0 5987.0,9925.0 C 5964.0,9905.0 5935.0,9890.0 5921.0,9890.0 C 5903.0,9889.0 5884.0,9876.0 5859.0,9847.0 C 5823.0,9805.0 5823.0,9805.0 5840.0,9777.0 C 5851.0,9760.0 5860.0,9753.0 5864.0,9759.0 C 5876.0,9777.0 5901.0,9771.0 5907.0,9750.0 C 5914.0,9723.0 5930.0,9725.0 5930.0,9753.0 C 5931.0,9774.0 5931.0,9774.0 5951.0,9748.0 C 5962.0,9732.0 5978.0,9720.0 5986.0,9720.0 C 5994.0,9720.0 6000.0,9711.0 6000.0,9700.0 C 6000.0,9689.0 6007.0,9677.0 6015.0,9674.0 C 6035.0,9666.0 6034.0,9645.0 6009.0,9565.0 C 5994.0,9514.0 5985.0,9500.0 5972.0,9502.0 C 5959.0,9505.0 5955.0,9517.0 5954.0,9560.0 C 5954.0,9634.0 5954.0,9634.0 5924.0,9670.0 C 5904.0,9693.0 5895.0,9698.0 5889.0,9689.0 C 5883.0,9679.0 5877.0,9679.0 5863.0,9693.0 C 5853.0,9702.0 5835.0,9707.0 5825.0,9704.0 C 5799.0,9697.0 5766.0,9751.0 5774.0,9786.0 C 5779.0,9805.0 5776.0,9810.0 5762.0,9810.0 C 5752.0,9810.0 5738.0,9816.0 5732.0,9822.0 C 5722.0,9832.0 5717.0,9832.0 5710.0,9820.0 C 5693.0,9793.0 5699.0,9770.0 5728.0,9757.0 C 5779.0,9735.0 5783.0,9705.0 5743.0,9624.0 L 5717.0,9570.0 L 5693.0,9592.0 L 5670.0,9614.0 L 5692.0,9638.0 C 5710.0,9658.0 5712.0,9664.0 5701.0,9668.0 C 5693.0,9671.0 5675.0,9684.0 5662.0,9697.0 C 5644.0,9715.0 5634.0,9718.0 5627.0,9711.0 C 5610.0,9694.0 5570.0,9698.0 5563.0,9716.0 C 5560.0,9725.0 5562.0,9741.0 5569.0,9752.0 C 5586.0,9780.0 5574.0,9790.0 5524.0,9790.0 C 5481.0,9790.0 5480.0,9789.0 5480.0,9758.0 C 5480.0,9724.0 5448.0,9660.0 5431.0,9660.0 C 5426.0,9660.0 5420.0,9666.0 5418.0,9672.0 C 5415.0,9681.0 5406.0,9680.0 5387.0,9667.0 C 5372.0,9658.0 5342.0,9650.0 5317.0,9650.0 C 5284.0,9650.0 5268.0,9644.0 5252.0,9627.0 C 5228.0,9602.0 5222.0,9602.0 5083.0,9625.0 C 5042.0,9632.0 5040.0,9631.0 5040.0,9609.0 C 5040.0,9596.0 5033.0,9567.0 5026.0,9545.0 C 5018.0,9523.0 5009.0,9479.0 5005.0,9448.0 C 5000.0,9409.0 4993.0,9390.0 4984.0,9390.0 C 4976.0,9390.0 4964.0,9375.0 4957.0,9358.0 C 4937.0,9311.0 4914.0,9294.0 4894.0,9311.0 C 4880.0,9322.0 4876.0,9322.0 4865.0,9307.0 C 4859.0,9298.0 4850.0,9293.0 4847.0,9296.0 C 4844.0,9300.0 4842.0,9290.0 4843.0,9274.0 C 4845.0,9249.0 4841.0,9245.0 4815.0,9242.0 C 4779.0,9238.0 4770.0,9226.0 4770.0,9183.0 C 4770.0,9146.0 4785.0,9132.0 4798.0,9156.0 C 4807.0,9171.0 4812.0,9170.0 4846.0,9142.0 C 4868.0,9124.0 4896.0,9102.0 4910.0,9091.0 L 4935.0,9072.0 L 4874.0,9054.0 C 4825.0,9039.0 4814.0,9032.0 4818.0,9018.0 C 4820.0,9008.0 4817.0,9000.0 4811.0,9000.0 C 4787.0,9000.0 4802.0,8982.0 4851.0,8951.0 C 4910.0,8914.0 4910.0,8915.0 4903.0,8939.0 C 4896.0,8968.0 4912.0,8971.0 4955.0,8947.0 C 4985.0,8930.0 4995.0,8918.0 4995.0,8900.0 C 4995.0,8883.0 4990.0,8876.0 4980.0,8879.0 C 4972.0,8882.0 4952.0,8884.0 4935.0,8884.0 C 4908.0,8885.0 4905.0,8881.0 4902.0,8854.0 C 4898.0,8812.0 4866.0,8782.0 4845.0,8800.0 C 4833.0,8810.0 4826.0,8809.0 4806.0,8797.0 C 4787.0,8784.0 4776.0,8783.0 4753.0,8792.0 C 4727.0,8802.0 4717.0,8800.0 4679.0,8777.0 C 4644.0,8756.0 4640.0,8750.0 4658.0,8750.0 C 4673.0,8750.0 4680.0,8744.0 4680.0,8730.0 C 4680.0,8718.0 4686.0,8710.0 4693.0,8711.0 C 4708.0,8713.0 4770.0,8688.0 4770.0,8679.0 C 4770.0,8665.0 4715.0,8637.0 4687.0,8638.0 C 4659.0,8639.0 4659.0,8638.0 4676.0,8619.0 C 4693.0,8600.0 4692.0,8600.0 4614.0,8601.0 C 4553.0,8603.0 4522.0,8598.0 4477.0,8581.0 C 4445.0,8568.0 4416.0,8552.0 4413.0,8544.0 C 4410.0,8536.0 4402.0,8530.0 4395.0,8530.0 C 4377.0,8530.0 4340.0,8482.0 4340.0,8459.0 C 4340.0,8433.0 4291.0,8398.0 4266.0,8406.0 C 4246.0,8412.0 4246.0,8412.0 4268.0,8391.0 C 4293.0,8366.0 4295.0,8359.0 4278.0,8342.0 C 4264.0,8328.0 4257.0,8332.0 4367.0,8275.0 C 4429.0,8243.0 4457.0,8223.0 4453.0,8214.0 C 4446.0,8194.0 4490.0,8196.0 4504.0,8216.0 C 4515.0,8230.0 4519.0,8229.0 4547.0,8206.0 C 4584.0,8175.0 4598.0,8174.0 4643.0,8200.0 C 4662.0,8211.0 4694.0,8221.0 4716.0,8223.0 C 4751.0,8225.0 4755.0,8223.0 4760.0,8195.0 C 4765.0,8165.0 4765.0,8165.0 4798.0,8223.0 C 4816.0,8254.0 4833.0,8280.0 4836.0,8280.0 C 4839.0,8280.0 4840.0,8264.0 4838.0,8245.0 C 4834.0,8206.0 4833.0,8206.0 4859.0,8222.0 C 4885.0,8238.0 4910.0,8225.0 4910.0,8195.0 C 4910.0,8169.0 4911.0,8170.0 4956.0,8214.0 C 5007.0,8266.0 5044.0,8280.0 5066.0,8258.0 C 5079.0,8245.0 5079.0,8240.0 5065.0,8214.0 C 5037.0,8161.0 5049.0,8161.0 5142.0,8216.0 C 5240.0,8274.0 5245.0,8276.0 5255.0,8259.0 C 5260.0,8252.0 5269.0,8255.0 5281.0,8266.0 C 5304.0,8287.0 5319.0,8276.0 5302.0,8250.0 C 5293.0,8236.0 5293.0,8230.0 5303.0,8227.0 C 5312.0,8224.0 5310.0,8213.0 5296.0,8186.0 C 5276.0,8148.0 5260.0,8139.0 5260.0,8167.0 C 5260.0,8176.0 5247.0,8163.0 5230.0,8137.0 C 5214.0,8112.0 5192.0,8085.0 5181.0,8078.0 C 5166.0,8069.0 5163.0,8059.0 5167.0,8038.0 C 5172.0,8015.0 5166.0,8004.0 5134.0,7974.0 C 5112.0,7954.0 5096.0,7934.0 5098.0,7928.0 C 5100.0,7922.0 5091.0,7893.0 5079.0,7864.0 C 5061.0,7821.0 5052.0,7810.0 5033.0,7810.0 C 5021.0,7810.0 4977.0,7797.0 4935.0,7780.0 C 4858.0,7749.0 4806.0,7742.0 4795.0,7760.0 C 4784.0,7777.0 4770.0,7771.0 4770.0,7750.0 C 4770.0,7719.0 4734.0,7655.0 4705.0,7632.0 C 4691.0,7620.0 4665.0,7608.0 4647.0,7604.0 C 4629.0,7601.0 4596.0,7580.0 4573.0,7559.0 C 4549.0,7537.0 4521.0,7520.0 4510.0,7520.0 C 4499.0,7520.0 4481.0,7511.0 4469.0,7499.0 C 4449.0,7479.0 4449.0,7478.0 4466.0,7458.0 C 4480.0,7443.0 4492.0,7440.0 4517.0,7444.0 C 4614.0,7461.0 4614.0,7461.0 4668.0,7430.0 C 4712.0,7404.0 4719.0,7396.0 4709.0,7384.0 C 4694.0,7366.0 4670.0,7366.0 4644.0,7385.0 C 4622.0,7400.0 4610.0,7396.0 4610.0,7375.0 C 4610.0,7368.0 4628.0,7360.0 4651.0,7357.0 C 4688.0,7352.0 4740.0,7318.0 4740.0,7299.0 C 4740.0,7283.0 4665.0,7268.0 4609.0,7273.0 C 4553.0,7278.0 4550.0,7277.0 4550.0,7256.0 C 4550.0,7228.0 4611.0,7169.0 4669.0,7140.0 C 4708.0,7121.0 4711.0,7116.0 4696.0,7108.0 C 4686.0,7102.0 4663.0,7100.0 4644.0,7103.0 C 4625.0,7106.0 4610.0,7105.0 4610.0,7099.0 C 4610.0,7082.0 4593.0,7090.0 4553.0,7128.0 C 4531.0,7149.0 4510.0,7177.0 4507.0,7191.0 C 4498.0,7227.0 4461.0,7263.0 4441.0,7254.0 C 4374.0,7226.0 4374.0,7226.0 4341.0,7249.0 L 4310.0,7271.0 L 4273.0,7241.0 C 4252.0,7224.0 4226.0,7210.0 4215.0,7210.0 C 4183.0,7210.0 4092.0,7259.0 4085.0,7280.0 C 4077.0,7304.0 4059.0,7310.0 3979.0,7317.0 C 3901.0,7324.0 3860.0,7316.0 3860.0,7295.0 C 3860.0,7286.0 3843.0,7239.0 3823.0,7190.0 C 3794.0,7121.0 3780.0,7098.0 3763.0,7094.0 C 3750.0,7090.0 3740.0,7080.0 3740.0,7070.0 C 3740.0,7042.0 3729.0,7019.0 3719.0,7026.0 C 3714.0,7029.0 3712.0,7041.0 3716.0,7053.0 C 3720.0,7070.0 3712.0,7084.0 3683.0,7112.0 C 3630.0,7161.0 3580.0,7220.0 3580.0,7232.0 C 3580.0,7237.0 3584.0,7250.0 3590.0,7260.0 C 3598.0,7275.0 3596.0,7277.0 3582.0,7273.0 C 3562.0,7268.0 3540.0,7304.0 3540.0,7340.0 C 3540.0,7353.0 3533.0,7360.0 3520.0,7360.0 C 3510.0,7360.0 3480.0,7367.0 3454.0,7376.0 L 3408.0,7392.0 L 3380.0,7358.0 C 3352.0,7325.0 3352.0,7325.0 3331.0,7344.0 C 3317.0,7357.0 3294.0,7364.0 3262.0,7364.0 C 3236.0,7365.0 3210.0,7369.0 3204.0,7373.0 C 3197.0,7377.0 3178.0,7375.0 3161.0,7369.0 C 3138.0,7361.0 3126.0,7361.0 3117.0,7369.0 C 3107.0,7377.0 3100.0,7376.0 3092.0,7368.0 C 3083.0,7359.0 3076.0,7360.0 3063.0,7373.0 C 3040.0,7393.0 2965.0,7397.0 2923.0,7379.0 C 2893.0,7367.0 2885.0,7368.0 2823.0,7397.0 C 2729.0,7441.0 2687.0,7447.0 2650.0,7420.0 C 2633.0,7408.0 2620.0,7394.0 2620.0,7387.0 C 2620.0,7381.0 2635.0,7361.0 2653.0,7342.0 C 2670.0,7323.0 2681.0,7306.0 2675.0,7304.0 C 2670.0,7302.0 2649.0,7292.0 2630.0,7282.0 C 2597.0,7266.0 2595.0,7262.0 2590.0,7202.0 C 2583.0,7117.0 2560.0,7096.0 2481.0,7102.0 L 2427.0,7107.0 L 2459.0,7081.0 C 2488.0,7057.0 2502.0,7020.0 2482.0,7020.0 C 2470.0,7020.0 2470.0,6901.0 2481.0,6894.0 C 2486.0,6891.0 2490.0,6878.0 2490.0,6864.0 C 2490.0,6840.0 2480.0,6833.0 2427.0,6816.0 C 2410.0,6810.0 2410.0,6807.0 2435.0,6779.0 C 2449.0,6761.0 2459.0,6741.0 2456.0,6734.0 C 2449.0,6715.0 2485.0,6716.0 2515.0,6736.0 C 2532.0,6747.0 2540.0,6762.0 2540.0,6781.0 C 2540.0,6800.0 2545.0,6810.0 2555.0,6810.0 C 2563.0,6810.0 2574.0,6819.0 2580.0,6830.0 C 2588.0,6846.0 2597.0,6849.0 2613.0,6844.0 C 2643.0,6835.0 2645.0,6833.0 2630.0,6815.0 C 2622.0,6805.0 2621.0,6800.0 2629.0,6800.0 C 2650.0,6800.0 2640.0,6780.0 2615.0,6774.0 C 2580.0,6765.0 2548.0,6717.0 2542.0,6665.0 C 2538.0,6626.0 2541.0,6617.0 2568.0,6590.0 C 2585.0,6574.0 2608.0,6560.0 2620.0,6560.0 C 2648.0,6560.0 2656.0,6534.0 2635.0,6510.0 C 2615.0,6488.0 2622.0,6454.0 2650.0,6447.0 C 2661.0,6444.0 2674.0,6448.0 2681.0,6456.0 C 2696.0,6475.0 2710.0,6464.0 2710.0,6434.0 C 2710.0,6401.0 2688.0,6394.0 2637.0,6411.0 C 2572.0,6432.0 2523.0,6416.0 2534.0,6377.0 C 2537.0,6366.0 2531.0,6341.0 2521.0,6321.0 C 2511.0,6301.0 2500.0,6268.0 2497.0,6247.0 C 2492.0,6213.0 2494.0,6208.0 2518.0,6199.0 C 2555.0,6184.0 2638.0,6211.0 2681.0,6251.0 C 2707.0,6275.0 2719.0,6280.0 2739.0,6275.0 C 2772.0,6267.0 2786.0,6267.0 2839.0,6276.0 C 2871.0,6281.0 2884.0,6279.0 2891.0,6269.0 C 2899.0,6257.0 2901.0,6257.0 2909.0,6269.0 C 2922.0,6290.0 3047.0,6275.0 3060.0,6250.0 C 3078.0,6217.0 3038.0,6130.0 3004.0,6130.0 C 2995.0,6130.0 2992.0,6118.0 2994.0,6093.0 C 2998.0,6054.0 3013.0,6042.0 3063.0,6041.0 C 3117.0,6039.0 3079.0,5997.0 3004.0,5974.0 C 2965.0,5963.0 2949.0,5962.0 2927.0,5971.0 C 2903.0,5981.0 2891.0,5979.0 2850.0,5960.0 C 2804.0,5939.0 2797.0,5938.0 2760.0,5950.0 C 2725.0,5962.0 2715.0,5961.0 2684.0,5947.0 C 2665.0,5938.0 2625.0,5927.0 2595.0,5924.0 C 2565.0,5920.0 2540.0,5916.0 2540.0,5914.0 C 2540.0,5913.0 2545.0,5899.0 2550.0,5884.0 C 2558.0,5863.0 2556.0,5843.0 2539.0,5793.0 C 2523.0,5744.0 2521.0,5726.0 2530.0,5715.0 C 2536.0,5707.0 2539.0,5688.0 2535.0,5668.0 C 2529.0,5635.0 2530.0,5634.0 2626.0,5572.0 C 2716.0,5514.0 2727.0,5510.0 2781.0,5510.0 C 2813.0,5510.0 2850.0,5514.0 2864.0,5520.0 C 2884.0,5527.0 2890.0,5526.0 2890.0,5516.0 C 2890.0,5493.0 2867.0,5482.0 2796.0,5472.0 C 2730.0,5463.0 2724.0,5464.0 2672.0,5491.0 C 2604.0,5527.0 2555.0,5529.0 2525.0,5496.0 L 2502.0,5471.0 L 2436.0,5493.0 C 2366.0,5515.0 2339.0,5511.0 2332.0,5477.0 C 2328.0,5458.0 2378.0,5430.0 2416.0,5430.0 C 2439.0,5430.0 2441.0,5427.0 2436.0,5405.0 C 2432.0,5391.0 2434.0,5380.0 2440.0,5380.0 C 2445.0,5380.0 2450.0,5373.0 2450.0,5365.0 C 2450.0,5354.0 2443.0,5351.0 2425.0,5356.0 C 2410.0,5360.0 2400.0,5358.0 2400.0,5351.0 C 2400.0,5329.0 2379.0,5341.0 2359.0,5374.0 C 2340.0,5407.0 2336.0,5409.0 2275.0,5412.0 L 2211.0,5415.0 L 2232.0,5393.0 L 2253.0,5370.0 L 2229.0,5370.0 C 2216.0,5370.0 2192.0,5377.0 2177.0,5385.0 C 2146.0,5401.0 2117.0,5393.0 2107.0,5366.0 C 2100.0,5349.0 2108.0,5340.0 2129.0,5340.0 C 2138.0,5340.0 2160.0,5318.0 2178.0,5290.0 C 2206.0,5247.0 2218.0,5238.0 2264.0,5225.0 C 2294.0,5216.0 2327.0,5201.0 2339.0,5191.0 C 2363.0,5170.0 2367.0,5140.0 2346.0,5140.0 C 2339.0,5140.0 2320.0,5122.0 2306.0,5099.0 C 2281.0,5062.0 2277.0,5060.0 2262.0,5073.0 C 2253.0,5081.0 2232.0,5090.0 2215.0,5094.0 C 2188.0,5099.0 2181.0,5095.0 2152.0,5055.0 C 2131.0,5026.0 2126.0,5013.0 2136.0,5017.0 C 2147.0,5021.0 2158.0,5016.0 2167.0,5004.0 C 2179.0,4988.0 2184.0,4987.0 2213.0,4999.0 C 2274.0,5024.0 2286.0,5023.0 2308.0,4995.0 C 2319.0,4981.0 2330.0,4965.0 2332.0,4960.0 C 2334.0,4954.0 2361.0,4941.0 2392.0,4930.0 C 2463.0,4905.0 2500.0,4914.0 2500.0,4958.0 C 2500.0,4998.0 2527.0,5032.0 2552.0,5024.0 C 2565.0,5020.0 2579.0,5025.0 2594.0,5039.0 C 2619.0,5062.0 2650.0,5059.0 2650.0,5033.0 C 2650.0,5022.0 2657.0,5019.0 2675.0,5022.0 C 2706.0,5028.0 2717.0,5015.0 2717.0,4968.0 L 2718.0,4930.0 L 2649.0,4910.0 C 2581.0,4889.0 2561.0,4877.0 2579.0,4865.0 C 2591.0,4858.0 2583.0,4834.0 2556.0,4798.0 C 2534.0,4767.0 2535.0,4766.0 2568.0,4756.0 C 2586.0,4750.0 2590.0,4753.0 2590.0,4769.0 C 2590.0,4796.0 2595.0,4796.0 2639.0,4761.0 C 2700.0,4714.0 2717.0,4707.0 2754.0,4720.0 C 2780.0,4728.0 2791.0,4740.0 2804.0,4773.0 C 2825.0,4828.0 2917.0,4942.0 2937.0,4938.0 C 2964.0,4933.0 2976.0,4904.0 2964.0,4872.0 C 2955.0,4848.0 2956.0,4841.0 2969.0,4833.0 C 2983.0,4823.0 2982.0,4821.0 2960.0,4812.0 C 2935.0,4801.0 2935.0,4801.0 2966.0,4801.0 L 2997.0,4800.0 L 2996.0,4862.0 L 2995.0,4925.0 L 3039.0,4928.0 C 3088.0,4932.0 3092.0,4914.0 3047.0,4892.0 C 3011.0,4875.0 3013.0,4863.0 3055.0,4839.0 C 3089.0,4819.0 3094.0,4800.0 3064.0,4800.0 C 3056.0,4800.0 3050.0,4791.0 3050.0,4780.0 C 3050.0,4763.0 3045.0,4761.0 3026.0,4766.0 C 2985.0,4776.0 2978.0,4763.0 3000.0,4720.0 C 3026.0,4669.0 3025.0,4663.0 2990.0,4617.0 C 2960.0,4576.0 2960.0,4555.0 2991.0,4545.0 C 3021.0,4535.0 3030.0,4548.0 3030.0,4599.0 C 3030.0,4632.0 3036.0,4655.0 3049.0,4671.0 C 3068.0,4695.0 3068.0,4695.0 3089.0,4676.0 L 3110.0,4657.0 L 3088.0,4633.0 L 3066.0,4610.0 L 3090.0,4567.0 C 3102.0,4544.0 3116.0,4521.0 3121.0,4516.0 C 3125.0,4511.0 3160.0,4517.0 3199.0,4529.0 C 3292.0,4557.0 3379.0,4568.0 3590.0,4579.0 C 3744.0,4587.0 3774.0,4591.0 3830.0,4614.0 C 3885.0,4637.0 3898.0,4638.0 3930.0,4629.0 C 3958.0,4621.0 3973.0,4621.0 3989.0,4629.0 C 4011.0,4641.0 4050.0,4636.0 4050.0,4621.0 C 4050.0,4617.0 4034.0,4605.0 4015.0,4594.0 C 3993.0,4582.0 3985.0,4573.0 3993.0,4568.0 C 4001.0,4563.0 3998.0,4554.0 3982.0,4538.0 C 3962.0,4516.0 3961.0,4512.0 3976.0,4492.0 C 3994.0,4466.0 4005.0,4465.0 4044.0,4485.0 C 4091.0,4510.0 4094.0,4502.0 4056.0,4460.0 C 4015.0,4415.0 4011.0,4384.0 4040.0,4347.0 C 4058.0,4325.0 4067.0,4290.0 4056.0,4290.0 C 4054.0,4290.0 4029.0,4306.0 4000.0,4325.0 C 3964.0,4349.0 3937.0,4360.0 3911.0,4360.0 C 3884.0,4360.0 3879.0,4357.0 3890.0,4350.0 C 3898.0,4345.0 3915.0,4340.0 3928.0,4340.0 C 3953.0,4340.0 3959.0,4310.0 3936.0,4291.0 C 3925.0,4282.0 3914.0,4285.0 3885.0,4305.0 C 3864.0,4319.0 3836.0,4330.0 3823.0,4330.0 C 3801.0,4330.0 3800.0,4329.0 3814.0,4314.0 C 3829.0,4300.0 3837.0,4260.0 3825.0,4260.0 C 3822.0,4260.0 3811.0,4265.0 3800.0,4272.0 C 3784.0,4283.0 3777.0,4280.0 3752.0,4257.0 C 3737.0,4242.0 3715.0,4230.0 3704.0,4230.0 C 3694.0,4230.0 3651.0,4250.0 3610.0,4274.0 C 3544.0,4313.0 3533.0,4317.0 3515.0,4306.0 C 3504.0,4299.0 3494.0,4280.0 3492.0,4264.0 C 3486.0,4202.0 3461.0,4154.0 3425.0,4137.0 C 3405.0,4128.0 3387.0,4112.0 3384.0,4103.0 C 3382.0,4093.0 3366.0,4058.0 3349.0,4026.0 C 3327.0,3982.0 3322.0,3965.0 3331.0,3959.0 C 3340.0,3954.0 3334.0,3944.0 3312.0,3925.0 C 3294.0,3910.0 3280.0,3889.0 3280.0,3876.0 C 3280.0,3864.0 3267.0,3836.0 3250.0,3814.0 C 3218.0,3772.0 3211.0,3750.0 3235.0,3770.0 C 3248.0,3781.0 3255.0,3781.0 3276.0,3770.0 C 3297.0,3758.0 3305.0,3759.0 3335.0,3773.0 C 3373.0,3791.0 3395.0,3788.0 3405.0,3762.0 C 3410.0,3750.0 3392.0,3727.0 3341.0,3680.0 C 3300.0,3642.0 3270.0,3607.0 3270.0,3596.0 C 3270.0,3585.0 3263.0,3568.0 3254.0,3558.0 C 3240.0,3543.0 3239.0,3538.0 3251.0,3524.0 C 3263.0,3509.0 3262.0,3505.0 3242.0,3492.0 C 3230.0,3484.0 3220.0,3469.0 3220.0,3459.0 C 3220.0,3449.0 3211.0,3438.0 3200.0,3435.0 C 3184.0,3430.0 3180.0,3420.0 3180.0,3385.0 C 3180.0,3292.0 3123.0,3216.0 3082.0,3253.0 C 3059.0,3274.0 3037.0,3274.0 3001.0,3255.0 C 2970.0,3239.0 2955.0,3214.0 2971.0,3204.0 C 2977.0,3201.0 2970.0,3188.0 2955.0,3175.0 C 2939.0,3159.0 2930.0,3140.0 2930.0,3120.0 C 2930.0,3093.0 2927.0,3090.0 2899.0,3090.0 C 2877.0,3090.0 2856.0,3078.0 2817.0,3041.0 C 2788.0,3015.0 2750.0,2985.0 2733.0,2976.0 C 2715.0,2967.0 2693.0,2946.0 2685.0,2930.0 C 2674.0,2909.0 2647.0,2889.0 2597.0,2864.0 C 2525.0,2827.0 2507.0,2813.0 2516.0,2798.0 C 2526.0,2782.0 2569.0,2790.0 2581.0,2811.0 C 2590.0,2829.0 2598.0,2831.0 2635.0,2825.0 C 2671.0,2820.0 2688.0,2824.0 2730.0,2845.0 C 2767.0,2864.0 2790.0,2869.0 2811.0,2865.0 C 2835.0,2860.0 2840.0,2862.0 2840.0,2877.0 C 2840.0,2888.0 2836.0,2900.0 2830.0,2906.0 C 2811.0,2925.0 2837.0,2937.0 2917.0,2947.0 C 2970.0,2954.0 3012.0,2966.0 3035.0,2980.0 C 3071.0,3002.0 3071.0,3002.0 3052.0,3024.0 C 3016.0,3064.0 3016.0,3070.0 3054.0,3070.0 C 3084.0,3070.0 3089.0,3067.0 3092.0,3043.0 C 3094.0,3023.0 3105.0,3009.0 3131.0,2995.0 C 3151.0,2984.0 3191.0,2960.0 3221.0,2943.0 C 3251.0,2925.0 3281.0,2910.0 3288.0,2910.0 C 3295.0,2910.0 3341.0,2930.0 3390.0,2955.0 C 3439.0,2980.0 3490.0,3000.0 3502.0,3000.0 C 3521.0,3000.0 3517.0,2993.0 3471.0,2946.0 C 3415.0,2889.0 3412.0,2870.0 3459.0,2870.0 C 3482.0,2870.0 3491.0,2877.0 3504.0,2904.0 C 3513.0,2923.0 3520.0,2943.0 3520.0,2949.0 C 3520.0,2956.0 3547.0,2960.0 3596.0,2960.0 C 3670.0,2960.0 3672.0,2961.0 3721.0,3002.0 C 3748.0,3026.0 3770.0,3051.0 3770.0,3058.0 C 3770.0,3065.0 3777.0,3073.0 3785.0,3076.0 C 3792.0,3079.0 3807.0,3103.0 3816.0,3128.0 C 3826.0,3154.0 3844.0,3188.0 3857.0,3203.0 C 3870.0,3219.0 3880.0,3244.0 3880.0,3259.0 C 3880.0,3274.0 3888.0,3294.0 3898.0,3302.0 C 3924.0,3325.0 4017.0,3370.0 4024.0,3363.0 C 4036.0,3351.0 4030.0,3330.0 4011.0,3314.0 C 3993.0,3298.0 3993.0,3297.0 4018.0,3275.0 C 4043.0,3253.0 4044.0,3252.0 4027.0,3227.0 C 4018.0,3212.0 4010.0,3183.0 4010.0,3161.0 L 4010.0,3121.0 L 4071.0,3142.0 L 4133.0,3163.0 L 4196.0,3140.0 C 4230.0,3128.0 4286.0,3116.0 4319.0,3113.0 C 4354.0,3110.0 4380.0,3102.0 4380.0,3096.0 C 4380.0,3090.0 4348.0,3075.0 4308.0,3062.0 C 4242.0,3041.0 4236.0,3041.0 4219.0,3056.0 C 4203.0,3071.0 4196.0,3071.0 4131.0,3056.0 C 4093.0,3047.0 4045.0,3040.0 4026.0,3040.0 C 3996.0,3040.0 3986.0,3034.0 3961.0,2999.0 C 3944.0,2977.0 3930.0,2954.0 3928.0,2948.0 C 3926.0,2942.0 3908.0,2945.0 3883.0,2958.0 C 3843.0,2979.0 3842.0,2979.0 3825.0,2960.0 C 3816.0,2950.0 3776.0,2930.0 3736.0,2916.0 C 3697.0,2903.0 3614.0,2873.0 3552.0,2851.0 C 3490.0,2828.0 3428.0,2810.0 3415.0,2810.0 C 3383.0,2810.0 3360.0,2820.0 3360.0,2834.0 C 3360.0,2842.0 3340.0,2845.0 3293.0,2842.0 C 3235.0,2839.0 3222.0,2835.0 3204.0,2813.0 C 3185.0,2791.0 3181.0,2790.0 3173.0,2804.0 C 3166.0,2817.0 3158.0,2818.0 3126.0,2809.0 C 3094.0,2800.0 3078.0,2802.0 3030.0,2820.0 C 2994.0,2833.0 2963.0,2839.0 2950.0,2835.0 C 2921.0,2826.0 2892.0,2760.0 2884.0,2684.0 C 2875.0,2609.0 2867.0,2593.0 2826.0,2576.0 C 2807.0,2568.0 2782.0,2552.0 2770.0,2540.0 C 2758.0,2528.0 2709.0,2500.0 2663.0,2478.0 C 2587.0,2442.0 2575.0,2439.0 2549.0,2450.0 C 2525.0,2460.0 2516.0,2460.0 2495.0,2446.0 C 2449.0,2416.0 2470.0,2397.0 2559.0,2387.0 C 2627.0,2379.0 2654.0,2357.0 2645.0,2315.0 C 2642.0,2299.0 2636.0,2263.0 2632.0,2235.0 C 2627.0,2208.0 2619.0,2175.0 2612.0,2163.0 C 2595.0,2133.0 2597.0,2128.0 2620.0,2135.0 C 2644.0,2143.0 2646.0,2133.0 2623.0,2108.0 C 2601.0,2084.0 2607.0,2080.0 2674.0,2076.0 C 2716.0,2074.0 2736.0,2068.0 2755.0,2050.0 C 2769.0,2037.0 2780.0,2024.0 2780.0,2020.0 C 2780.0,2017.0 2755.0,2006.0 2725.0,1995.0 C 2674.0,1978.0 2668.0,1978.0 2653.0,1992.0 C 2639.0,2007.0 2634.0,2005.0 2593.0,1974.0 C 2569.0,1955.0 2539.0,1940.0 2527.0,1940.0 C 2457.0,1940.0 2376.0,1991.0 2343.0,2053.0 L 2328.0,2084.0 L 2308.0,2057.0 C 2282.0,2021.0 2211.0,1980.0 2175.0,1980.0 C 2159.0,1980.0 2139.0,1973.0 2129.0,1964.0 C 2101.0,1939.0 2086.0,1957.0 2108.0,1988.0 C 2121.0,2007.0 2126.0,2026.0 2122.0,2053.0 C 2117.0,2096.0 2103.0,2100.0 2071.0,2066.0 C 2057.0,2051.0 2042.0,2044.0 2026.0,2047.0 C 2003.0,2052.0 1930.0,2014.0 1915.0,1990.0 C 1911.0,1984.0 1885.0,1968.0 1857.0,1955.0 C 1828.0,1942.0 1813.0,1931.0 1823.0,1931.0 C 1846.0,1930.0 1845.0,1917.0 1820.0,1895.0 C 1797.0,1874.0 1794.0,1854.0 1812.0,1847.0 C 1831.0,1840.0 1808.0,1806.0 1783.0,1802.0 C 1761.0,1799.0 1715.0,1851.0 1728.0,1865.0 C 1732.0,1869.0 1723.0,1866.0 1707.0,1859.0 C 1677.0,1845.0 1675.0,1839.0 1691.0,1823.0 C 1700.0,1814.0 1699.0,1805.0 1686.0,1786.0 C 1677.0,1771.0 1666.0,1760.0 1661.0,1760.0 C 1655.0,1760.0 1656.0,1744.0 1662.0,1724.0 C 1667.0,1704.0 1669.0,1677.0 1666.0,1665.0 C 1656.0,1627.0 1679.0,1618.0 1736.0,1637.0 C 1780.0,1651.0 1786.0,1656.0 1782.0,1675.0 C 1779.0,1691.0 1785.0,1702.0 1800.0,1710.0 C 1819.0,1720.0 1826.0,1718.0 1849.0,1697.0 C 1863.0,1683.0 1893.0,1669.0 1915.0,1665.0 L 1955.0,1659.0 L 1925.0,1676.0 C 1885.0,1698.0 1885.0,1697.0 1900.0,1715.0 C 1917.0,1736.0 1953.0,1734.0 1975.0,1710.0 C 1985.0,1699.0 2005.0,1690.0 2020.0,1690.0 C 2035.0,1690.0 2053.0,1683.0 2060.0,1675.0 C 2076.0,1656.0 2089.0,1656.0 2112.0,1677.0 C 2128.0,1691.0 2134.0,1691.0 2155.0,1680.0 C 2176.0,1669.0 2182.0,1669.0 2197.0,1682.0 C 2220.0,1701.0 2385.0,1744.0 2400.0,1735.0 C 2406.0,1731.0 2432.0,1737.0 2458.0,1748.0 C 2520.0,1775.0 2636.0,1786.0 2684.0,1770.0 C 2711.0,1762.0 2724.0,1761.0 2734.0,1769.0 C 2750.0,1782.0 2761.0,1773.0 2753.0,1754.0 C 2750.0,1746.0 2739.0,1740.0 2728.0,1740.0 C 2712.0,1740.0 2709.0,1735.0 2712.0,1715.0 C 2717.0,1692.0 2714.0,1690.0 2678.0,1690.0 C 2653.0,1690.0 2626.0,1681.0 2600.0,1664.0 C 2578.0,1649.0 2554.0,1640.0 2546.0,1643.0 C 2537.0,1647.0 2521.0,1637.0 2506.0,1619.0 C 2486.0,1596.0 2482.0,1584.0 2490.0,1570.0 C 2498.0,1556.0 2495.0,1551.0 2477.0,1546.0 C 2465.0,1543.0 2424.0,1518.0 2387.0,1491.0 C 2329.0,1448.0 2316.0,1443.0 2300.0,1453.0 C 2272.0,1470.0 2146.0,1428.0 2123.0,1394.0 C 2113.0,1379.0 2101.0,1371.0 2092.0,1375.0 C 2083.0,1378.0 2071.0,1372.0 2063.0,1360.0 C 2055.0,1348.0 2042.0,1341.0 2034.0,1344.0 C 2009.0,1353.0 1970.0,1329.0 1970.0,1304.0 C 1970.0,1280.0 1949.0,1259.0 1942.0,1278.0 C 1937.0,1293.0 1910.0,1281.0 1910.0,1264.0 C 1910.0,1256.0 1920.0,1250.0 1935.0,1250.0 C 1949.0,1250.0 1960.0,1245.0 1960.0,1240.0 C 1960.0,1234.0 1987.0,1244.0 2019.0,1262.0 C 2074.0,1293.0 2101.0,1296.0 2085.0,1270.0 C 2082.0,1264.0 2051.0,1246.0 2018.0,1229.0 C 1962.0,1201.0 1959.0,1198.0 1974.0,1181.0 C 1995.0,1158.0 1997.0,1112.0 1976.0,1129.0 C 1965.0,1138.0 1947.0,1133.0 1892.0,1105.0 C 1853.0,1086.0 1810.0,1070.0 1796.0,1070.0 C 1769.0,1070.0 1761.0,1056.0 1781.0,1044.0 C 1787.0,1041.0 1790.0,1027.0 1787.0,1013.0 C 1784.0,995.0 1786.0,990.0 1796.0,994.0 C 1804.0,997.0 1822.0,995.0 1836.0,989.0 C 1862.0,980.0 1863.0,978.0 1858.0,910.0 C 1853.0,845.0 1854.0,841.0 1871.0,851.0 C 1901.0,867.0 1960.0,929.0 1960.0,945.0 C 1960.0,953.0 1971.0,967.0 1985.0,976.0 C 2007.0,990.0 2017.0,991.0 2050.0,981.0 C 2122.0,960.0 2143.0,890.0 2094.0,839.0 L 2067.0,811.0 L 2133.0,779.0 C 2195.0,748.0 2201.0,747.0 2239.0,760.0 C 2262.0,767.0 2280.0,780.0 2283.0,791.0 C 2287.0,805.0 2297.0,810.0 2322.0,810.0 C 2345.0,810.0 2373.0,821.0 2406.0,845.0 C 2433.0,864.0 2470.0,883.0 2487.0,886.0 C 2513.0,891.0 2520.0,897.0 2520.0,916.0 C 2520.0,929.0 2525.0,940.0 2530.0,940.0 C 2536.0,940.0 2540.0,936.0 2540.0,931.0 C 2540.0,926.0 2555.0,916.0 2574.0,910.0 C 2605.0,900.0 2611.0,901.0 2634.0,925.0 C 2661.0,952.0 2680.0,957.0 2680.0,938.0 C 2680.0,931.0 2690.0,937.0 2701.0,953.0 C 2737.0,1000.0 2799.0,1029.0 2901.0,1044.0 C 2953.0,1052.0 3010.0,1064.0 3028.0,1071.0 C 3046.0,1077.0 3063.0,1080.0 3067.0,1077.0 C 3078.0,1066.0 3056.0,1047.0 3003.0,1024.0 C 2974.0,1011.0 2947.0,993.0 2944.0,985.0 C 2940.0,976.0 2911.0,966.0 2865.0,959.0 C 2797.0,947.0 2790.0,944.0 2759.0,904.0 C 2740.0,881.0 2709.0,854.0 2690.0,844.0 L 2655.0,827.0 L 2688.0,818.0 C 2723.0,809.0 2726.0,802.0 2708.0,777.0 C 2697.0,763.0 2689.0,762.0 2661.0,770.0 C 2624.0,780.0 2610.0,776.0 2610.0,755.0 C 2610.0,747.0 2597.0,734.0 2580.0,725.0 C 2552.0,710.0 2550.0,711.0 2550.0,729.0 C 2550.0,748.0 2549.0,748.0 2513.0,729.0 C 2492.0,719.0 2469.0,710.0 2460.0,710.0 C 2441.0,710.0 2400.0,682.0 2400.0,669.0 C 2400.0,664.0 2414.0,660.0 2430.0,660.0 C 2466.0,660.0 2466.0,659.0 2438.0,611.0 C 2415.0,571.0 2389.0,556.0 2325.0,546.0 C 2303.0,542.0 2272.0,537.0 2255.0,533.0 L 2226.0,527.0 L 2263.0,513.0 C 2304.0,496.0 2306.0,493.0 2286.0,446.0 C 2271.0,409.0 2225.0,385.0 2185.0,392.0 C 2165.0,396.0 2160.0,393.0 2160.0,378.0 C 2160.0,365.0 2164.0,361.0 2172.0,367.0 C 2184.0,374.0 2197.0,376.0 2265.0,381.0 C 2276.0,382.0 2300.0,376.0 2317.0,369.0 C 2348.0,356.0 2351.0,357.0 2384.0,389.0 C 2411.0,415.0 2424.0,421.0 2450.0,418.0 C 2480.0,415.0 2483.0,418.0 2484.0,442.0 C 2486.0,473.0 2510.0,502.0 2537.0,506.0 C 2547.0,507.0 2598.0,513.0 2650.0,519.0 C 2702.0,525.0 2747.0,535.0 2748.0,540.0 C 2750.0,546.0 2760.0,550.0 2771.0,550.0 C 2785.0,550.0 2790.0,557.0 2790.0,575.0 C 2790.0,605.0 2815.0,609.0 2823.0,579.0 C 2828.0,562.0 2832.0,560.0 2849.0,569.0 C 2877.0,585.0 2900.0,583.0 2900.0,564.0 C 2900.0,551.0 2906.0,553.0 2933.0,571.0 C 2950.0,584.0 2980.0,606.0 2998.0,622.0 C 3016.0,637.0 3040.0,650.0 3050.0,650.0 C 3067.0,650.0 3070.0,657.0 3070.0,700.0 C 3070.0,760.0 3088.0,767.0 3113.0,715.0 C 3135.0,669.0 3173.0,650.0 3198.0,673.0 C 3230.0,702.0 3240.0,694.0 3240.0,635.0 C 3240.0,582.0 3239.0,580.0 3198.0,556.0 C 3174.0,542.0 3117.0,517.0 3071.0,500.0 C 2914.0,443.0 2721.0,327.0 2672.0,262.0 L 2647.0,229.0 L 2701.0,250.0 C 2820.0,297.0 2922.0,344.0 2964.0,370.0 C 2988.0,386.0 3029.0,402.0 3054.0,405.0 C 3099.0,412.0 3100.0,412.0 3100.0,386.0 C 3100.0,364.0 3096.0,360.0 3071.0,360.0 C 3035.0,360.0 2920.0,267.0 2920.0,238.0 C 2920.0,224.0 2896.0,208.0 2828.0,175.0 C 2718.0,123.0 2644.0,75.0 2659.0,66.0 C 2665.0,62.0 2670.0,45.0 2670.0,28.0 L 2670.0,-3.0 L 2695.0,20.0 C 2718.0,42.0 2721.0,42.0 2738.0,27.0 C 2755.0,11.0 2758.0,13.0 2793.0,48.0 C 2813.0,69.0 2830.0,91.0 2830.0,97.0 C 2830.0,104.0 2846.0,114.0 2865.0,121.0 C 2884.0,128.0 2900.0,140.0 2900.0,147.0 C 2900.0,170.0 2933.0,161.0 2956.0,133.0 C 2977.0,106.0 2979.0,106.0 2997.0,123.0 C 3008.0,132.0 3031.0,140.0 3048.0,140.0 C 3076.0,140.0 3080.0,144.0 3080.0,165.0 C 3080.0,197.0 3106.0,209.0 3124.0,185.0 C 3135.0,170.0 3141.0,169.0 3179.0,181.0 C 3230.0,196.0 3245.0,218.0 3224.0,248.0 C 3206.0,274.0 3216.0,277.0 3242.0,253.0 C 3256.0,241.0 3263.0,239.0 3272.0,248.0 C 3288.0,264.0 3320.0,244.0 3320.0,217.0 C 3320.0,205.0 3313.0,185.0 3305.0,174.0 C 3287.0,147.0 3295.0,139.0 3327.0,151.0 C 3359.0,163.0 3365.0,158.0 3349.0,131.0 C 3332.0,105.0 3342.0,95.0 3369.0,110.0 C 3387.0,119.0 3390.0,118.0 3390.0,101.0 C 3390.0,90.0 3381.0,79.0 3370.0,75.0 C 3349.0,68.0 3344.0,55.0 3358.0,46.0 C 3363.0,43.0 3390.0,52.0 3419.0,66.0 C 3465.0,87.0 3470.0,92.0 3460.0,105.0 C 3443.0,126.0 3456.0,137.0 3480.0,122.0 C 3494.0,113.0 3500.0,113.0 3503.0,123.0 C 3506.0,132.0 3511.0,132.0 3521.0,124.0 C 3529.0,119.0 3547.0,109.0 3561.0,103.0 C 3586.0,92.0 3590.0,94.0 3619.0,135.0 C 3636.0,159.0 3653.0,192.0 3656.0,209.0 C 3664.0,246.0 3680.0,250.0 3680.0,216.0 C 3680.0,184.0 3700.0,178.0 3729.0,201.0 C 3752.0,220.0 3752.0,221.0 3734.0,235.0 C 3724.0,243.0 3712.0,250.0 3708.0,250.0 C 3703.0,250.0 3700.0,264.0 3700.0,280.0 L 3700.0,310.0 L 3751.0,275.0 C 3803.0,239.0 3820.0,233.0 3820.0,249.0 C 3820.0,258.0 3851.0,266.0 3921.0,276.0 C 3952.0,281.0 3960.0,278.0 3981.0,253.0 C 4001.0,229.0 4009.0,225.0 4023.0,234.0 C 4036.0,242.0 4043.0,242.0 4049.0,232.0 C 4055.0,222.0 4068.0,234.0 4094.0,277.0 C 4127.0,329.0 4130.0,340.0 4125.0,380.0 L 4118.0,425.0 L 4153.0,385.0 C 4185.0,348.0 4190.0,346.0 4210.0,358.0 C 4229.0,370.0 4235.0,369.0 4255.0,350.0 C 4268.0,338.0 4284.0,331.0 4290.0,335.0 C 4296.0,339.0 4307.0,335.0 4313.0,327.0 C 4320.0,318.0 4337.0,308.0 4353.0,304.0 C 4377.0,299.0 4380.0,301.0 4380.0,323.0 C 4380.0,337.0 4387.0,356.0 4396.0,365.0 C 4409.0,377.0 4410.0,384.0 4400.0,395.0 C 4390.0,407.0 4390.0,413.0 4400.0,425.0 C 4407.0,433.0 4410.0,450.0 4406.0,465.0 C 4401.0,486.0 4403.0,490.0 4421.0,490.0 C 4433.0,490.0 4448.0,482.0 4455.0,473.0 C 4467.0,457.0 4473.0,457.0 4514.0,468.0 C 4584.0,486.0 4598.0,484.0 4620.0,448.0 C 4641.0,414.0 4648.0,416.0 4630.0,451.0 C 4621.0,466.0 4625.0,481.0 4647.0,519.0 C 4670.0,561.0 4672.0,571.0 4661.0,584.0 C 4646.0,602.0 4617.0,605.0 4590.0,590.0 C 4564.0,576.0 4532.0,606.0 4524.0,650.0 L 4518.0,685.0 L 4547.0,651.0 C 4573.0,622.0 4580.0,618.0 4609.0,625.0 C 4629.0,629.0 4646.0,627.0 4655.0,620.0 C 4666.0,611.0 4670.0,611.0 4670.0,619.0 C 4670.0,641.0 4699.0,630.0 4720.0,600.0 C 4732.0,583.0 4748.0,570.0 4756.0,570.0 C 4776.0,570.0 4774.0,578.0 4743.0,618.0 L 4717.0,653.0 L 4746.0,646.0 C 4762.0,642.0 4783.0,639.0 4793.0,639.0 C 4802.0,639.0 4810.0,631.0 4811.0,622.0 C 4811.0,611.0 4814.0,610.0 4817.0,618.0 C 4819.0,624.0 4828.0,630.0 4837.0,630.0 C 4845.0,630.0 4863.0,639.0 4877.0,650.0 C 4891.0,661.0 4912.0,670.0 4924.0,670.0 C 4959.0,670.0 5001.0,721.0 5007.0,771.0 C 5010.0,795.0 5021.0,831.0 5031.0,851.0 L 5049.0,888.0 L 5024.0,894.0 C 5005.0,899.0 5000.0,905.0 5005.0,920.0 C 5010.0,937.0 5007.0,940.0 4981.0,940.0 C 4948.0,940.0 4945.0,945.0 4958.0,982.0 C 4963.0,995.0 4964.0,1016.0 4960.0,1030.0 C 4955.0,1051.0 4949.0,1054.0 4920.0,1052.0 C 4872.0,1049.0 4862.0,1058.0 4868.0,1102.0 L 4872.0,1139.0 L 4905.0,1115.0 C 4939.0,1088.0 4976.0,1082.0 4983.0,1103.0 C 4986.0,1112.0 4991.0,1112.0 5000.0,1104.0 C 5008.0,1096.0 5009.0,1090.0 5001.0,1086.0 C 4988.0,1077.0 4986.0,994.0 4999.0,986.0 C 5004.0,983.0 5024.0,987.0 5044.0,995.0 C 5083.0,1011.0 5166.0,1015.0 5174.0,1001.0 C 5177.0,996.0 5166.0,987.0 5150.0,980.0 C 5129.0,971.0 5120.0,961.0 5120.0,945.0 C 5120.0,932.0 5113.0,919.0 5104.0,916.0 C 5091.0,911.0 5090.0,907.0 5100.0,895.0 C 5107.0,887.0 5110.0,873.0 5106.0,865.0 C 5102.0,853.0 5106.0,851.0 5126.0,856.0 C 5140.0,860.0 5169.0,857.0 5191.0,850.0 C 5229.0,837.0 5232.0,838.0 5259.0,864.0 C 5282.0,886.0 5304.0,894.0 5376.0,905.0 C 5425.0,913.0 5470.0,920.0 5475.0,920.0 C 5481.0,920.0 5477.0,927.0 5468.0,934.0 C 5444.0,952.0 5446.0,984.0 5473.0,1014.0 C 5491.0,1034.0 5513.0,1042.0 5584.0,1054.0 C 5633.0,1063.0 5675.0,1071.0 5677.0,1074.0 C 5680.0,1076.0 5668.0,1089.0 5650.0,1101.0 L 5619.0,1124.0 L 5672.0,1171.0 L 5725.0,1217.0 L 5714.0,1269.0 C 5708.0,1298.0 5707.0,1323.0 5711.0,1326.0 C 5724.0,1333.0 5750.0,1288.0 5750.0,1258.0 C 5750.0,1227.0 5775.0,1220.0 5810.0,1242.0 C 5826.0,1252.0 5835.0,1251.0 5859.0,1237.0 C 5904.0,1210.0 5920.0,1215.0 5920.0,1254.0 C 5920.0,1299.0 5936.0,1310.0 6021.0,1322.0 C 6108.0,1335.0 6130.0,1353.0 6130.0,1412.0 C 6130.0,1436.0 6137.0,1461.0 6147.0,1472.0 C 6161.0,1487.0 6161.0,1490.0 6148.0,1490.0 C 6127.0,1490.0 6050.0,1548.0 6050.0,1564.0 C 6050.0,1571.0 6069.0,1590.0 6091.0,1605.0 L 6133.0,1632.0 L 6156.0,1604.0 C 6173.0,1582.0 6179.0,1579.0 6180.0,1592.0 C 6180.0,1611.0 6226.0,1650.0 6248.0,1650.0 C 6257.0,1650.0 6294.0,1666.0 6332.0,1685.0 C 6369.0,1705.0 6412.0,1721.0 6427.0,1721.0 C 6443.0,1722.0 6526.0,1723.0 6613.0,1723.0 L 6772.0,1725.0 L 6792.0,1753.0 C 6803.0,1768.0 6820.0,1780.0 6831.0,1780.0 C 6843.0,1780.0 6847.0,1785.0 6844.0,1795.0 C 6839.0,1806.0 6845.0,1810.0 6866.0,1810.0 C 6900.0,1809.0 6941.0,1783.0 6924.0,1772.0 C 6918.0,1768.0 6911.0,1752.0 6908.0,1737.0 C 6903.0,1714.0 6905.0,1710.0 6919.0,1716.0 C 6928.0,1721.0 6956.0,1724.0 6981.0,1725.0 C 7024.0,1725.0 7030.0,1728.0 7064.0,1773.0 C 7099.0,1819.0 7100.0,1823.0 7085.0,1841.0 C 7071.0,1856.0 7070.0,1865.0 7079.0,1891.0 C 7095.0,1938.0 7093.0,1959.0 7065.0,1991.0 C 7052.0,2007.0 7043.0,2027.0 7046.0,2035.0 C 7051.0,2046.0 7045.0,2050.0 7025.0,2050.0 C 6999.0,2050.0 6998.0,2051.0 7013.0,2068.0 C 7025.0,2081.0 7028.0,2096.0 7024.0,2121.0 C 7019.0,2148.0 7023.0,2159.0 7041.0,2175.0 L 7063.0,2195.0 L 7057.0,2172.0 C 7053.0,2160.0 7047.0,2141.0 7044.0,2131.0 C 7040.0,2117.0 7046.0,2107.0 7064.0,2095.0 C 7082.0,2083.0 7090.0,2069.0 7090.0,2049.0 C 7090.0,2028.0 7104.0,2006.0 7141.0,1968.0 C 7196.0,1910.0 7228.0,1860.0 7209.0,1860.0 C 7201.0,1860.0 7200.0,1847.0 7204.0,1818.0 C 7208.0,1795.0 7212.0,1774.0 7214.0,1772.0 C 7221.0,1766.0 7308.0,1830.0 7314.0,1846.0 C 7324.0,1872.0 7321.0,1898.0 7308.0,1903.0 C 7292.0,1908.0 7345.0,1988.0 7375.0,2004.0 C 7386.0,2010.0 7400.0,2022.0 7407.0,2030.0 C 7416.0,2042.0 7421.0,2043.0 7432.0,2032.0 C 7442.0,2022.0 7442.0,2016.0 7432.0,2002.0 C 7363.0,1906.0 7364.0,1898.0 7441.0,1918.0 C 7519.0,1937.0 7557.0,1926.0 7628.0,1864.0 L 7681.0,1817.0 L 7753.0,1839.0 C 7793.0,1850.0 7835.0,1860.0 7848.0,1860.0 C 7863.0,1860.0 7870.0,1866.0 7870.0,1880.0 C 7870.0,1905.0 7875.0,1905.0 7917.0,1879.0 L 7952.0,1857.0 L 7982.0,1889.0 C 8018.0,1928.0 8038.0,1914.0 8014.0,1867.0 C 7997.0,1835.0 7997.0,1833.0 8025.0,1828.0 C 8041.0,1826.0 8046.0,1832.0 8050.0,1867.0 C 8054.0,1890.0 8068.0,1926.0 8083.0,1946.0 C 8111.0,1986.0 8106.0,2012.0 8071.0,2003.0 C 8059.0,2000.0 8043.0,2011.0 8021.0,2036.0 C 8004.0,2057.0 7990.0,2080.0 7990.0,2086.0 C 7990.0,2092.0 7970.0,2111.0 7945.0,2129.0 C 7911.0,2153.0 7899.0,2169.0 7894.0,2197.0 C 7888.0,2227.0 7881.0,2235.0 7849.0,2248.0 C 7827.0,2256.0 7810.0,2266.0 7810.0,2270.0 C 7810.0,2285.0 7870.0,2341.0 7879.0,2335.0 C 7885.0,2332.0 7887.0,2316.0 7884.0,2301.0 C 7877.0,2268.0 7894.0,2252.0 7915.0,2270.0 C 7930.0,2282.0 7990.0,2280.0 8023.0,2265.0 C 8040.0,2258.0 8041.0,2261.0 8035.0,2304.0 C 8024.0,2372.0 8045.0,2417.0 8167.0,2587.0 C 8314.0,2794.0 8310.0,2782.0 8277.0,2883.0 C 8262.0,2929.0 8250.0,2979.0 8250.0,2996.0 C 8250.0,3032.0 8274.0,3084.0 8333.0,3180.0 C 8378.0,3252.0 8380.0,3257.0 8380.0,3332.0 C 8380.0,3419.0 8403.0,3477.0 8465.0,3540.0 C 8497.0,3573.0 8547.0,3685.0 8581.0,3798.0 L 8594.0,3842.0 L 8555.0,3874.0 L 8517.0,3906.0 L 8528.0,4009.0 C 8546.0,4160.0 8543.0,4207.0 8514.0,4275.0 C 8500.0,4308.0 8486.0,4344.0 8483.0,4355.0 C 8481.0,4366.0 8464.0,4419.0 8447.0,4474.0 L 8416.0,4573.0 L 8437.0,4612.0 C 8452.0,4639.0 8455.0,4652.0 8447.0,4655.0 C 8361.0,4685.0 8314.0,4706.0 8299.0,4721.0 C 8274.0,4746.0 8264.0,4790.0 8281.0,4801.0 C 8292.0,4807.0 8290.0,4814.0 8272.0,4833.0 C 8242.0,4865.0 8243.0,4884.0 8276.0,4876.0 C 8296.0,4871.0 8316.0,4879.0 8370.0,4915.0 L 8439.0,4961.0 L 8411.0,5022.0 C 8386.0,5075.0 8377.0,5086.0 8344.0,5097.0 C 8322.0,5105.0 8299.0,5117.0 8291.0,5125.0 C 8278.0,5138.0 8281.0,5142.0 8314.0,5155.0 C 8337.0,5165.0 8364.0,5169.0 8380.0,5165.0 C 8402.0,5160.0 8411.0,5163.0 8419.0,5179.0 C 8438.0,5215.0 8432.0,5220.0 8371.0,5220.0 C 8338.0,5220.0 8309.0,5224.0 8306.0,5229.0 C 8299.0,5239.0 8340.0,5257.0 8393.0,5266.0 C 8443.0,5274.0 8460.0,5293.0 8460.0,5338.0 C 8459.0,5391.0 8441.0,5416.0 8381.0,5453.0 C 8351.0,5471.0 8320.0,5499.0 8311.0,5515.0 C 8302.0,5532.0 8285.0,5558.0 8274.0,5572.0 C 8238.0,5618.0 8216.0,5714.0 8215.0,5830.0 C 8215.0,5912.0 8219.0,5942.0 8233.0,5968.0 C 8247.0,5993.0 8248.0,6000.0 8237.0,6000.0 C 8216.0,6000.0 8190.0,6034.0 8190.0,6062.0 C 8190.0,6076.0 8196.0,6106.0 8204.0,6128.0 C 8217.0,6165.0 8217.0,6170.0 8201.0,6184.0 C 8191.0,6193.0 8170.0,6200.0 8154.0,6200.0 C 8112.0,6200.0 8050.0,6240.0 8029.0,6280.0 C 8008.0,6318.0 8003.0,6424.0 8020.0,6435.0 C 8026.0,6438.0 8030.0,6453.0 8030.0,6467.0 C 8030.0,6482.0 8040.0,6500.0 8055.0,6512.0 C 8085.0,6536.0 8079.0,6550.0 8039.0,6550.0 C 8005.0,6550.0 8002.0,6560.0 8029.0,6584.0 C 8043.0,6597.0 8053.0,6598.0 8074.0,6590.0 C 8089.0,6585.0 8112.0,6580.0 8124.0,6580.0 C 8137.0,6580.0 8155.0,6571.0 8164.0,6561.0 C 8186.0,6537.0 8301.0,6490.0 8338.0,6490.0 C 8353.0,6490.0 8382.0,6502.0 8403.0,6516.0 L 8441.0,6541.0 L 8418.0,6570.0 C 8405.0,6586.0 8389.0,6599.0 8382.0,6599.0 C 8375.0,6600.0 8316.0,6652.0 8251.0,6715.0 L 8133.0,6830.0 L 8116.0,6805.0 C 8098.0,6778.0 8071.0,6773.0 8052.0,6792.0 C 8043.0,6801.0 8040.0,6797.0 8040.0,6774.0 C 8040.0,6709.0 7947.0,6668.0 7894.0,6709.0 L 7868.0,6730.0 L 7838.0,6705.0 C 7814.0,6685.0 7798.0,6680.0 7751.0,6680.0 C 7706.0,6680.0 7689.0,6676.0 7675.0,6660.0 C 7648.0,6630.0 7625.0,6636.0 7585.0,6682.0 C 7559.0,6713.0 7551.0,6731.0 7555.0,6745.0 C 7559.0,6756.0 7564.0,6788.0 7566.0,6815.0 C 7569.0,6843.0 7580.0,6886.0 7592.0,6911.0 C 7619.0,6972.0 7608.0,7007.0 7554.0,7037.0 C 7506.0,7065.0 7503.0,7065.0 7495.0,7040.0 C 7485.0,7009.0 7452.0,7016.0 7395.0,7059.0 C 7351.0,7092.0 7338.0,7110.0 7315.0,7167.0 C 7299.0,7209.0 7276.0,7245.0 7257.0,7262.0 L 7225.0,7288.0 L 7243.0,7319.0 C 7259.0,7347.0 7259.0,7352.0 7245.0,7387.0 C 7236.0,7408.0 7218.0,7436.0 7206.0,7450.0 C 7193.0,7464.0 7173.0,7493.0 7162.0,7515.0 C 7140.0,7560.0 7112.0,7588.0 7060.0,7619.0 C 7005.0,7652.0 6987.0,7647.0 6940.0,7583.0 C 6883.0,7505.0 6831.0,7451.0 6797.0,7434.0 C 6782.0,7426.0 6772.0,7414.0 6776.0,7409.0 C 6779.0,7403.0 6773.0,7385.0 6762.0,7370.0 L 6741.0,7342.0 L 6776.0,7305.0 C 6819.0,7259.0 6847.0,7207.0 6831.0,7202.0 C 6817.0,7197.0 6817.0,7173.0 6831.0,7168.0 C 6840.0,7165.0 6840.0,7159.0 6831.0,7143.0 C 6817.0,7116.0 6784.0,7105.0 6765.0,7120.0 C 6743.0,7138.0 6693.0,7114.0 6674.0,7077.0 C 6665.0,7061.0 6658.0,7026.0 6658.0,7001.0 C 6659.0,6940.0 6625.0,6879.0 6585.0,6866.0 C 6568.0,6861.0 6544.0,6852.0 6531.0,6846.0 C 6511.0,6837.0 6505.0,6838.0 6492.0,6858.0 C 6484.0,6870.0 6470.0,6880.0 6460.0,6880.0 C 6451.0,6880.0 6428.0,6885.0 6411.0,6891.0 C 6386.0,6900.0 6380.0,6907.0 6383.0,6921.0 C 6392.0,6956.0 6354.0,6942.0 6326.0,6900.0 C 6300.0,6860.0 6277.0,6850.0 6264.0,6871.0 C 6260.0,6878.0 6243.0,6880.0 6220.0,6876.0 C 6196.0,6872.0 6177.0,6875.0 6164.0,6885.0 C 6154.0,6893.0 6135.0,6900.0 6123.0,6900.0 C 6099.0,6900.0 6060.0,6943.0 6060.0,6970.0 C 6060.0,6992.0 6043.0,7006.0 6007.0,7015.0 C 5990.0,7020.0 5978.0,7031.0 5974.0,7045.0 C 5969.0,7065.0 5958.0,7070.0 5898.0,7080.0 C 5836.0,7091.0 5824.0,7090.0 5796.0,7075.0 C 5732.0,7040.0 5694.0,7092.0 5683.0,7230.0 L 5677.0,7309.0 L 5626.0,7324.0 C 5566.0,7342.0 5539.0,7367.0 5510.0,7433.0 C 5494.0,7470.0 5484.0,7480.0 5465.0,7480.0 C 5449.0,7480.0 5423.0,7501.0 5377.0,7553.0 C 5287.0,7654.0 5238.0,7721.0 5244.0,7735.0 C 5246.0,7742.0 5236.0,7753.0 5222.0,7760.0 C 5191.0,7774.0 5192.0,7775.0 5291.0,7804.0 C 5375.0,7828.0 5411.0,7857.0 5447.0,7930.0 C 5485.0,8005.0 5509.0,8021.0 5548.0,7998.0 C 5584.0,7977.0 5679.0,7960.0 5704.0,7970.0 C 5730.0,7980.0 5763.0,8016.0 5783.0,8055.0 C 5799.0,8087.0 5833.0,8115.0 5895.0,8148.0 C 5956.0,8180.0 5961.0,8185.0 5954.0,8203.0 C 5949.0,8218.0 5946.0,8218.0 5923.0,8200.0 C 5890.0,8174.0 5885.0,8174.0 5828.0,8211.0 C 5791.0,8235.0 5776.0,8240.0 5767.0,8231.0 C 5748.0,8212.0 5721.0,8219.0 5706.0,8249.0 C 5697.0,8265.0 5682.0,8280.0 5671.0,8283.0 C 5645.0,8289.0 5623.0,8327.0 5617.0,8376.0 C 5613.0,8415.0 5614.0,8418.0 5639.0,8424.0 C 5654.0,8427.0 5677.0,8446.0 5694.0,8469.0 C 5710.0,8491.0 5730.0,8512.0 5738.0,8515.0 C 5746.0,8518.0 5776.0,8505.0 5804.0,8485.0 C 5832.0,8466.0 5861.0,8450.0 5867.0,8450.0 C 5874.0,8450.0 5901.0,8463.0 5927.0,8479.0 C 5954.0,8495.0 5999.0,8518.0 6029.0,8530.0 C 6075.0,8548.0 6090.0,8549.0 6138.0,8540.0 C 6168.0,8535.0 6195.0,8532.0 6197.0,8534.0 C 6199.0,8536.0 6196.0,8549.0 6190.0,8564.0 C 6167.0,8626.0 6176.0,8649.0 6254.0,8730.0 C 6339.0,8817.0 6349.0,8845.0 6331.0,8940.0 C 6316.0,9015.0 6323.0,9040.0 6365.0,9068.0 C 6399.0,9090.0 6400.0,9091.0 6400.0,9161.0 C 6400.0,9239.0 6414.0,9276.0 6463.0,9328.0 C 6487.0,9353.0 6502.0,9360.0 6531.0,9360.0 C 6552.0,9360.0 6572.0,9365.0 6575.0,9370.0 C 6580.0,9378.0 6586.0,9377.0 6596.0,9369.0 C 6607.0,9360.0 6610.0,9362.0 6610.0,9378.0 C 6610.0,9390.0 6619.0,9404.0 6630.0,9410.0 C 6642.0,9416.0 6671.0,9454.0 6697.0,9493.0 C 6722.0,9533.0 6754.0,9578.0 6769.0,9594.0 C 6799.0,9627.0 6967.0,9740.0 6985.0,9740.0 C 6992.0,9740.0 7008.0,9748.0 7021.0,9758.0 C 7034.0,9768.0 7064.0,9784.0 7088.0,9795.0 C 7137.0,9816.0 7161.0,9844.0 7153.0,9869.0 C 7143.0,9896.0 7118.0,9910.0 7077.0,9910.0 C 7053.0,9910.0 7026.0,9918.0 7007.0,9932.0 C 6989.0,9945.0 6969.0,9954.0 6962.0,9952.0 C 6955.0,9950.0 6922.0,9963.0 6889.0,9981.0 C 6829.0,10013.0 6779.0,10065.0 6766.0,10108.0 C 6757.0,10137.0 6618.0,10208.0 6546.0,10220.0 C 6518.0,10225.0 6485.0,10232.0 6473.0,10236.0 C 6460.0,10239.0 6450.0,10240.0 6450.0,10237.0" fill="pink"/>
	<path d="M 2324.0,7296.0 C 2281.0,7276.0 2272.0,7267.0 2266.0,7239.0 C 2262.0,7219.0 2264.0,7204.0 2270.0,7202.0 C 2275.0,7200.0 2280.0,7190.0 2280.0,7180.0 C 2280.0,7170.0 2287.0,7160.0 2295.0,7156.0 C 2318.0,7147.0 2313.0,7131.0 2275.0,7097.0 C 2246.0,7072.0 2240.0,7059.0 2240.0,7027.0 C 2240.0,6988.0 2240.0,6988.0 2271.0,6994.0 C 2288.0,6997.0 2307.0,7000.0 2312.0,7000.0 C 2317.0,7000.0 2320.0,7012.0 2318.0,7028.0 C 2316.0,7050.0 2319.0,7055.0 2335.0,7053.0 C 2375.0,7048.0 2383.0,7058.0 2362.0,7085.0 L 2342.0,7111.0 L 2366.0,7137.0 C 2389.0,7162.0 2391.0,7162.0 2404.0,7145.0 C 2417.0,7127.0 2418.0,7127.0 2429.0,7146.0 C 2440.0,7165.0 2440.0,7165.0 2455.0,7146.0 C 2464.0,7134.0 2470.0,7131.0 2470.0,7139.0 C 2470.0,7147.0 2478.0,7150.0 2490.0,7147.0 C 2504.0,7143.0 2513.0,7150.0 2525.0,7173.0 C 2546.0,7216.0 2544.0,7226.0 2510.0,7240.0 C 2494.0,7247.0 2459.0,7268.0 2433.0,7286.0 C 2406.0,7305.0 2383.0,7320.0 2380.0,7319.0 C 2377.0,7319.0 2352.0,7308.0 2324.0,7296.0" fill="pink"/>
	<path d="M 2214.0,6913.0 C 2205.0,6893.0 2196.0,6862.0 2193.0,6844.0 C 2188.0,6815.0 2191.0,6810.0 2220.0,6795.0 C 2275.0,6767.0 2300.0,6793.0 2259.0,6836.0 C 2235.0,6861.0 2240.0,6896.0 2265.0,6886.0 C 2282.0,6880.0 2284.0,6889.0 2270.0,6924.0 C 2256.0,6961.0 2232.0,6956.0 2214.0,6913.0" fill="pink"/>
	<path d="M 2251.0,6569.0 C 2230.0,6541.0 2224.0,6538.0 2186.0,6543.0 C 2164.0,6546.0 2138.0,6551.0 2129.0,6554.0 C 2107.0,6564.0 2044.0,6484.0 2060.0,6466.0 C 2072.0,6451.0 2140.0,6455.0 2174.0,6472.0 C 2188.0,6480.0 2195.0,6478.0 2202.0,6466.0 C 2210.0,6451.0 2214.0,6451.0 2237.0,6470.0 C 2256.0,6485.0 2267.0,6487.0 2281.0,6480.0 C 2307.0,6465.0 2331.0,6428.0 2321.0,6416.0 C 2309.0,6401.0 2298.0,6335.0 2306.0,6327.0 C 2310.0,6323.0 2318.0,6328.0 2325.0,6337.0 C 2342.0,6360.0 2368.0,6347.0 2385.0,6308.0 C 2392.0,6290.0 2410.0,6264.0 2425.0,6250.0 C 2447.0,6229.0 2453.0,6228.0 2461.0,6240.0 C 2466.0,6248.0 2468.0,6267.0 2466.0,6282.0 C 2463.0,6296.0 2467.0,6321.0 2474.0,6337.0 C 2482.0,6352.0 2490.0,6380.0 2494.0,6399.0 C 2499.0,6426.0 2497.0,6431.0 2485.0,6426.0 C 2477.0,6423.0 2463.0,6417.0 2455.0,6414.0 C 2443.0,6409.0 2440.0,6418.0 2440.0,6462.0 C 2440.0,6510.0 2443.0,6517.0 2465.0,6526.0 L 2489.0,6535.0 L 2462.0,6568.0 L 2435.0,6600.0 L 2392.0,6579.0 L 2349.0,6557.0 L 2326.0,6579.0 C 2295.0,6608.0 2278.0,6605.0 2251.0,6569.0" fill="pink"/>
	<path d="M 2368.0,6044.0 C 2341.0,6031.0 2320.0,6015.0 2320.0,6010.0 C 2320.0,5993.0 2431.0,5998.0 2451.0,6016.0 C 2469.0,6032.0 2468.0,6033.0 2446.0,6051.0 C 2417.0,6074.0 2425.0,6074.0 2368.0,6044.0" fill="pink"/>
	<path d="M 2130.0,5310.0 C 2130.0,5305.0 2135.0,5300.0 2140.0,5300.0 C 2146.0,5300.0 2150.0,5305.0 2150.0,5310.0 C 2150.0,5316.0 2146.0,5320.0 2140.0,5320.0 C 2135.0,5320.0 2130.0,5316.0 2130.0,5310.0" fill="pink"/>
	<path d="M 2862.0,4627.0 C 2836.0,4612.0 2832.0,4605.0 2841.0,4594.0 C 2847.0,4586.0 2849.0,4573.0 2846.0,4564.0 C 2836.0,4539.0 2858.0,4520.0 2896.0,4520.0 L 2930.0,4520.0 L 2930.0,4575.0 C 2930.0,4643.0 2912.0,4657.0 2862.0,4627.0" fill="pink"/>
	<path d="M 3760.0,4320.0 C 3751.0,4314.0 3750.0,4310.0 3757.0,4310.0 C 3763.0,4310.0 3772.0,4315.0 3775.0,4320.0 C 3783.0,4332.0 3779.0,4332.0 3760.0,4320.0" fill="pink"/>
	<path d="M 2691.0,4303.0 C 2672.0,4299.0 2683.0,4292.0 2743.0,4265.0 C 2785.0,4247.0 2844.0,4219.0 2874.0,4201.0 C 2943.0,4162.0 2951.0,4162.0 2915.0,4200.0 C 2892.0,4224.0 2889.0,4232.0 2899.0,4244.0 C 2918.0,4266.0 2840.0,4288.0 2799.0,4273.0 C 2772.0,4262.0 2768.0,4264.0 2758.0,4286.0 C 2747.0,4310.0 2739.0,4312.0 2691.0,4303.0" fill="pink"/>
	<path d="M 3006.0,4155.0 C 2985.0,4123.0 2986.0,4110.0 3008.0,4110.0 C 3031.0,4110.0 3060.0,4140.0 3060.0,4163.0 C 3060.0,4189.0 3025.0,4183.0 3006.0,4155.0" fill="pink"/>
	<path d="M 3100.0,4075.0 C 3100.0,4067.0 3106.0,4060.0 3114.0,4060.0 C 3121.0,4060.0 3133.0,4067.0 3140.0,4075.0 C 3151.0,4088.0 3148.0,4090.0 3126.0,4090.0 C 3110.0,4090.0 3100.0,4085.0 3100.0,4075.0" fill="pink"/>
	<path d="M 1773.0,1149.0 C 1749.0,1132.0 1730.0,1111.0 1730.0,1100.0 C 1730.0,1084.0 1738.0,1085.0 1813.0,1117.0 C 1858.0,1136.0 1902.0,1158.0 1910.0,1166.0 C 1922.0,1178.0 1917.0,1180.0 1870.0,1180.0 C 1825.0,1179.0 1807.0,1173.0 1773.0,1149.0" fill="pink"/>
</svg>
