<?xml version="1.0" ?>
<svg xmlns="http://www.w3.org/2000/svg" xmlns:ev="http://www.w3.org/2001/xml-events" xmlns:xlink="http://www.w3.org/1999/xlink" baseProfile="full" height="600px" version="1.1" viewBox="-667.3948431723536 -1026.3660841834635 11573.411163061575 12290.60568396085" width="565px">
	<defs/>
	<path d="M 4040.0,10225.0 C 4026.0,10217.0 4000.0,10211.0 3982.0,10210.0 C 3918.0,10210.0 3863.0,10188.0 3809.0,10144.0 C 3752.0,10097.0 3685.0,10067.0 3610.0,10055.0 C 3585.0,10051.0 3521.0,10026.0 3468.0,9999.0 L 3371.0,9950.0 L 3354.0,9894.0 C 3345.0,9861.0 3324.0,9823.0 3305.0,9802.0 C 3274.0,9768.0 3270.0,9766.0 3184.0,9760.0 C 3113.0,9755.0 3080.0,9747.0 3026.0,9722.0 C 2943.0,9683.0 2896.0,9682.0 2815.0,9715.0 C 2782.0,9729.0 2724.0,9745.0 2685.0,9751.0 C 2647.0,9757.0 2599.0,9770.0 2579.0,9780.0 C 2533.0,9804.0 2510.0,9806.0 2427.0,9796.0 C 2362.0,9788.0 2359.0,9786.0 2345.0,9753.0 C 2324.0,9703.0 2326.0,9677.0 2355.0,9650.0 C 2371.0,9635.0 2380.0,9615.0 2380.0,9596.0 C 2380.0,9579.0 2387.0,9556.0 2395.0,9546.0 C 2417.0,9516.0 2413.0,9488.0 2383.0,9464.0 C 2356.0,9443.0 2356.0,9440.0 2367.0,9399.0 C 2377.0,9361.0 2376.0,9349.0 2359.0,9311.0 C 2349.0,9287.0 2340.0,9260.0 2340.0,9251.0 C 2340.0,9242.0 2368.0,9207.0 2403.0,9174.0 C 2504.0,9077.0 2505.0,9076.0 2559.0,9079.0 C 2613.0,9081.0 2606.0,9090.0 2626.0,8990.0 C 2631.0,8964.0 2638.0,8958.0 2683.0,8946.0 C 2712.0,8938.0 2752.0,8929.0 2773.0,8925.0 C 2816.0,8918.0 2822.0,8897.0 2791.0,8859.0 C 2776.0,8840.0 2761.0,8835.0 2707.0,8832.0 C 2645.0,8828.0 2640.0,8826.0 2612.0,8790.0 C 2595.0,8770.0 2567.0,8747.0 2549.0,8740.0 L 2517.0,8727.0 L 2522.0,8604.0 C 2527.0,8467.0 2521.0,8442.0 2473.0,8408.0 C 2456.0,8395.0 2412.0,8348.0 2376.0,8302.0 C 2326.0,8239.0 2310.0,8212.0 2310.0,8187.0 C 2310.0,8130.0 2301.0,8116.0 2254.0,8096.0 C 2196.0,8072.0 2147.0,8010.0 2049.0,7839.0 C 1972.0,7705.0 1964.0,7698.0 1885.0,7685.0 C 1821.0,7674.0 1793.0,7655.0 1775.0,7607.0 C 1765.0,7580.0 1741.0,7549.0 1715.0,7527.0 C 1661.0,7482.0 1614.0,7400.0 1605.0,7337.0 C 1601.0,7311.0 1593.0,7287.0 1588.0,7284.0 C 1583.0,7281.0 1558.0,7286.0 1534.0,7295.0 C 1503.0,7307.0 1476.0,7310.0 1447.0,7306.0 C 1424.0,7302.0 1364.0,7297.0 1313.0,7294.0 L 1221.0,7288.0 L 1218.0,7337.0 C 1215.0,7384.0 1214.0,7385.0 1180.0,7388.0 C 1126.0,7392.0 1078.0,7347.0 1044.0,7260.0 C 1019.0,7196.0 1010.0,7185.0 948.0,7139.0 C 911.0,7111.0 880.0,7082.0 880.0,7076.0 C 880.0,7069.0 871.0,7055.0 859.0,7044.0 C 847.0,7034.0 829.0,7013.0 819.0,6998.0 C 794.0,6963.0 807.0,6926.0 852.0,6907.0 C 870.0,6899.0 896.0,6881.0 910.0,6866.0 C 931.0,6843.0 940.0,6840.0 971.0,6845.0 C 1002.0,6850.0 1010.0,6848.0 1023.0,6829.0 C 1040.0,6805.0 1037.0,6764.0 1014.0,6718.0 C 990.0,6671.0 997.0,6631.0 1041.0,6558.0 L 1082.0,6490.0 L 1136.0,6490.0 C 1189.0,6490.0 1190.0,6490.0 1190.0,6460.0 C 1190.0,6444.0 1201.0,6396.0 1215.0,6353.0 C 1229.0,6310.0 1240.0,6259.0 1240.0,6239.0 C 1240.0,6211.0 1246.0,6200.0 1265.0,6190.0 C 1287.0,6178.0 1289.0,6172.0 1284.0,6141.0 C 1281.0,6121.0 1269.0,6097.0 1258.0,6087.0 C 1241.0,6073.0 1239.0,6065.0 1247.0,6048.0 C 1254.0,6032.0 1252.0,6018.0 1241.0,5998.0 C 1227.0,5974.0 1218.0,5970.0 1183.0,5970.0 C 1147.0,5970.0 1139.0,5974.0 1135.0,5993.0 C 1129.0,6015.0 1128.0,6015.0 1035.0,6006.0 C 957.0,5998.0 939.0,5993.0 934.0,5978.0 C 925.0,5950.0 864.0,5954.0 816.0,5988.0 C 775.0,6016.0 775.0,6016.0 535.0,6023.0 L 485.0,6025.0 L 482.0,5979.0 C 479.0,5936.0 477.0,5932.0 448.0,5926.0 C 431.0,5923.0 399.0,5920.0 375.0,5920.0 C 329.0,5920.0 293.0,5893.0 303.0,5865.0 C 311.0,5845.0 425.0,5845.0 460.0,5865.0 C 492.0,5883.0 500.0,5883.0 500.0,5866.0 C 500.0,5858.0 483.0,5846.0 463.0,5839.0 C 442.0,5833.0 419.0,5823.0 413.0,5817.0 C 389.0,5799.0 399.0,5741.0 440.0,5660.0 C 475.0,5591.0 484.0,5580.0 506.0,5580.0 C 521.0,5580.0 554.0,5564.0 579.0,5545.0 C 635.0,5505.0 688.0,5491.0 790.0,5492.0 C 859.0,5493.0 868.0,5495.0 897.0,5523.0 C 925.0,5549.0 934.0,5552.0 974.0,5548.0 C 999.0,5545.0 1023.0,5547.0 1029.0,5553.0 C 1036.0,5560.0 1041.0,5558.0 1046.0,5546.0 C 1056.0,5519.0 1000.0,5439.0 942.0,5399.0 C 904.0,5372.0 877.0,5361.0 836.0,5357.0 C 805.0,5354.0 770.0,5344.0 758.0,5336.0 C 723.0,5311.0 663.0,5316.0 628.0,5345.0 C 612.0,5359.0 593.0,5370.0 586.0,5370.0 C 568.0,5370.0 550.0,5349.0 550.0,5328.0 C 550.0,5303.0 624.0,5185.0 675.0,5130.0 C 697.0,5105.0 732.0,5060.0 753.0,5030.0 C 773.0,5000.0 848.0,4907.0 919.0,4824.0 C 1035.0,4689.0 1053.0,4672.0 1087.0,4667.0 C 1113.0,4662.0 1132.0,4665.0 1149.0,4676.0 C 1166.0,4688.0 1186.0,4691.0 1222.0,4687.0 C 1263.0,4682.0 1283.0,4686.0 1348.0,4714.0 C 1390.0,4733.0 1435.0,4751.0 1447.0,4754.0 C 1459.0,4758.0 1478.0,4772.0 1489.0,4786.0 C 1502.0,4802.0 1518.0,4810.0 1540.0,4810.0 C 1578.0,4810.0 1609.0,4842.0 1610.0,4883.0 C 1610.0,4902.0 1622.0,4921.0 1650.0,4946.0 C 1697.0,4989.0 1701.0,5022.0 1670.0,5093.0 L 1649.0,5139.0 L 1676.0,5202.0 C 1700.0,5261.0 1714.0,5279.0 1733.0,5280.0 C 1737.0,5280.0 1740.0,5274.0 1740.0,5268.0 C 1740.0,5240.0 1757.0,5228.0 1777.0,5238.0 C 1788.0,5244.0 1802.0,5245.0 1810.0,5240.0 C 1821.0,5233.0 1817.0,5225.0 1791.0,5201.0 C 1763.0,5175.0 1759.0,5165.0 1765.0,5142.0 C 1768.0,5127.0 1772.0,5099.0 1774.0,5080.0 C 1775.0,5061.0 1782.0,5034.0 1789.0,5021.0 C 1800.0,5001.0 1808.0,4998.0 1838.0,5003.0 C 1859.0,5006.0 1883.0,5011.0 1894.0,5016.0 C 1908.0,5021.0 1911.0,5019.0 1908.0,5009.0 C 1903.0,4995.0 1882.0,4986.0 1828.0,4975.0 C 1807.0,4971.0 1794.0,4957.0 1775.0,4920.0 C 1744.0,4858.0 1743.0,4833.0 1774.0,4819.0 C 1795.0,4809.0 1799.0,4799.0 1805.0,4736.0 C 1808.0,4697.0 1818.0,4654.0 1827.0,4642.0 C 1845.0,4613.0 1838.0,4580.0 1805.0,4528.0 C 1791.0,4508.0 1776.0,4472.0 1770.0,4448.0 C 1749.0,4355.0 1767.0,4192.0 1804.0,4152.0 C 1822.0,4132.0 1821.0,4130.0 1795.0,4095.0 C 1768.0,4061.0 1768.0,4059.0 1785.0,4040.0 C 1795.0,4029.0 1816.0,4020.0 1832.0,4020.0 C 1857.0,4020.0 1860.0,4016.0 1860.0,3989.0 C 1860.0,3973.0 1851.0,3942.0 1841.0,3922.0 C 1802.0,3846.0 1800.0,3825.0 1826.0,3786.0 C 1846.0,3757.0 1849.0,3746.0 1840.0,3730.0 C 1831.0,3713.0 1833.0,3702.0 1849.0,3676.0 C 1864.0,3652.0 1870.0,3626.0 1870.0,3581.0 C 1870.0,3527.0 1874.0,3513.0 1905.0,3468.0 C 1940.0,3418.0 1945.0,3392.0 1920.0,3398.0 C 1913.0,3399.0 1911.0,3394.0 1914.0,3383.0 C 1933.0,3321.0 1941.0,3256.0 1950.0,3111.0 L 1960.0,2947.0 L 2035.0,2832.0 C 2094.0,2742.0 2110.0,2710.0 2110.0,2681.0 C 2110.0,2653.0 2119.0,2633.0 2150.0,2596.0 C 2172.0,2570.0 2190.0,2537.0 2190.0,2525.0 C 2190.0,2510.0 2201.0,2493.0 2220.0,2480.0 C 2258.0,2453.0 2306.0,2352.0 2315.0,2280.0 C 2319.0,2250.0 2333.0,2206.0 2346.0,2183.0 C 2364.0,2152.0 2370.0,2126.0 2370.0,2083.0 C 2370.0,2051.0 2375.0,2007.0 2380.0,1985.0 C 2386.0,1963.0 2395.0,1911.0 2400.0,1870.0 C 2407.0,1821.0 2422.0,1771.0 2444.0,1725.0 C 2463.0,1687.0 2485.0,1630.0 2494.0,1600.0 C 2505.0,1563.0 2542.0,1499.0 2610.0,1401.0 C 2665.0,1322.0 2710.0,1253.0 2710.0,1247.0 C 2710.0,1242.0 2725.0,1203.0 2744.0,1160.0 C 2763.0,1118.0 2781.0,1061.0 2785.0,1034.0 C 2795.0,960.0 2810.0,920.0 2847.0,865.0 C 2867.0,835.0 2880.0,803.0 2880.0,784.0 C 2880.0,759.0 2892.0,742.0 2939.0,697.0 C 3009.0,630.0 3043.0,555.0 2995.0,573.0 C 2987.0,577.0 2980.0,591.0 2980.0,605.0 C 2980.0,625.0 2975.0,630.0 2955.0,630.0 C 2930.0,630.0 2922.0,616.0 2940.0,605.0 C 2946.0,602.0 2950.0,570.0 2950.0,534.0 C 2950.0,477.0 2954.0,463.0 2981.0,424.0 C 2998.0,399.0 3023.0,351.0 3037.0,317.0 C 3068.0,240.0 3160.0,142.0 3244.0,97.0 C 3277.0,79.0 3312.0,52.0 3324.0,33.0 C 3351.0,-9.0 3373.0,-8.0 3421.0,35.0 C 3443.0,54.0 3470.0,70.0 3482.0,70.0 C 3495.0,70.0 3525.0,93.0 3562.0,131.0 C 3615.0,187.0 3620.0,196.0 3620.0,238.0 C 3620.0,272.0 3628.0,298.0 3652.0,337.0 C 3688.0,396.0 3710.0,408.0 3813.0,420.0 C 3854.0,425.0 3889.0,435.0 3900.0,445.0 C 3921.0,464.0 3972.0,460.0 4022.0,434.0 C 4065.0,412.0 4090.0,416.0 4090.0,445.0 C 4090.0,466.0 4082.0,472.0 4024.0,490.0 C 3988.0,501.0 3952.0,510.0 3944.0,510.0 C 3928.0,510.0 3910.0,541.0 3910.0,568.0 C 3910.0,578.0 3925.0,607.0 3943.0,631.0 C 3987.0,688.0 4050.0,802.0 4050.0,823.0 C 4050.0,836.0 4060.0,839.0 4103.0,839.0 C 4131.0,838.0 4162.0,839.0 4170.0,839.0 C 4178.0,840.0 4197.0,838.0 4212.0,834.0 C 4236.0,829.0 4241.0,832.0 4256.0,864.0 C 4271.0,895.0 4272.0,908.0 4262.0,962.0 C 4253.0,1006.0 4253.0,1051.0 4259.0,1109.0 C 4267.0,1186.0 4266.0,1197.0 4246.0,1234.0 C 4219.0,1286.0 4217.0,1427.0 4242.0,1475.0 C 4251.0,1492.0 4261.0,1523.0 4265.0,1544.0 C 4270.0,1570.0 4280.0,1585.0 4297.0,1593.0 C 4323.0,1605.0 4358.0,1666.0 4396.0,1767.0 C 4415.0,1817.0 4420.0,1850.0 4420.0,1920.0 C 4420.0,2008.0 4420.0,2009.0 4386.0,2037.0 C 4368.0,2052.0 4347.0,2075.0 4341.0,2088.0 C 4326.0,2116.0 4334.0,2202.0 4357.0,2275.0 C 4376.0,2333.0 4375.0,2396.0 4355.0,2445.0 C 4337.0,2486.0 4336.0,2582.0 4351.0,2648.0 C 4357.0,2674.0 4378.0,2731.0 4397.0,2776.0 C 4436.0,2863.0 4457.0,2882.0 4533.0,2895.0 L 4572.0,2901.0 L 4565.0,2976.0 C 4560.0,3026.0 4561.0,3050.0 4568.0,3050.0 C 4588.0,3050.0 4610.0,3006.0 4610.0,2965.0 C 4610.0,2919.0 4624.0,2900.0 4655.0,2900.0 C 4683.0,2900.0 4701.0,2921.0 4739.0,2996.0 C 4783.0,3082.0 4785.0,3084.0 4885.0,3075.0 L 4970.0,3068.0 L 5034.0,3120.0 C 5098.0,3170.0 5150.0,3224.0 5150.0,3240.0 C 5150.0,3244.0 5137.0,3253.0 5120.0,3260.0 C 5100.0,3268.0 5090.0,3279.0 5090.0,3294.0 C 5090.0,3328.0 5146.0,3398.0 5180.0,3405.0 C 5196.0,3408.0 5219.0,3419.0 5232.0,3429.0 C 5245.0,3439.0 5289.0,3464.0 5330.0,3484.0 C 5443.0,3540.0 5466.0,3559.0 5519.0,3635.0 C 5572.0,3711.0 5656.0,3788.0 5708.0,3809.0 C 5730.0,3818.0 5758.0,3848.0 5795.0,3901.0 C 5826.0,3944.0 5869.0,3993.0 5893.0,4012.0 C 5946.0,4053.0 5947.0,4054.0 5955.0,4108.0 C 5959.0,4135.0 5975.0,4169.0 5997.0,4198.0 C 6028.0,4239.0 6040.0,4247.0 6089.0,4258.0 C 6151.0,4272.0 6184.0,4295.0 6162.0,4309.0 C 6155.0,4313.0 6138.0,4315.0 6124.0,4312.0 C 6105.0,4309.0 6100.0,4312.0 6100.0,4327.0 C 6100.0,4375.0 6180.0,4401.0 6218.0,4367.0 C 6242.0,4345.0 6272.0,4346.0 6318.0,4369.0 C 6338.0,4379.0 6371.0,4391.0 6390.0,4395.0 C 6467.0,4411.0 6509.0,4444.0 6584.0,4543.0 C 6609.0,4577.0 6620.0,4602.0 6620.0,4626.0 C 6620.0,4654.0 6626.0,4664.0 6650.0,4678.0 C 6687.0,4699.0 6688.0,4723.0 6654.0,4755.0 L 6627.0,4780.0 L 6640.0,4872.0 C 6650.0,4951.0 6657.0,4972.0 6686.0,5011.0 C 6721.0,5059.0 6745.0,5070.0 6817.0,5070.0 C 6864.0,5070.0 6965.0,5132.0 6986.0,5173.0 C 6996.0,5190.0 7006.0,5247.0 7010.0,5305.0 C 7018.0,5394.0 7023.0,5413.0 7049.0,5455.0 C 7065.0,5481.0 7088.0,5509.0 7098.0,5516.0 C 7116.0,5528.0 7118.0,5527.0 7122.0,5506.0 C 7128.0,5479.0 7117.0,5456.0 7084.0,5420.0 C 7054.0,5388.0 7039.0,5264.0 7060.0,5225.0 C 7068.0,5209.0 7071.0,5182.0 7067.0,5146.0 C 7061.0,5084.0 7075.0,5063.0 7098.0,5098.0 C 7106.0,5110.0 7123.0,5120.0 7136.0,5120.0 C 7154.0,5120.0 7159.0,5126.0 7162.0,5151.0 C 7166.0,5190.0 7191.0,5210.0 7214.0,5191.0 C 7225.0,5182.0 7230.0,5161.0 7230.0,5129.0 C 7230.0,5077.0 7249.0,5062.0 7269.0,5098.0 C 7276.0,5110.0 7291.0,5115.0 7322.0,5115.0 C 7358.0,5115.0 7365.0,5118.0 7368.0,5136.0 C 7370.0,5152.0 7363.0,5159.0 7338.0,5166.0 C 7311.0,5174.0 7304.0,5181.0 7302.0,5208.0 C 7299.0,5236.0 7302.0,5240.0 7323.0,5240.0 C 7346.0,5240.0 7347.0,5243.0 7343.0,5293.0 C 7341.0,5321.0 7334.0,5367.0 7329.0,5394.0 C 7324.0,5421.0 7322.0,5470.0 7326.0,5502.0 L 7333.0,5560.0 L 7301.0,5560.0 C 7267.0,5560.0 7266.0,5562.0 7269.0,5631.0 C 7271.0,5671.0 7269.0,5677.0 7246.0,5688.0 C 7231.0,5694.0 7220.0,5708.0 7220.0,5719.0 C 7220.0,5729.0 7208.0,5764.0 7193.0,5796.0 C 7169.0,5848.0 7168.0,5858.0 7178.0,5897.0 C 7185.0,5921.0 7190.0,5969.0 7190.0,6003.0 L 7190.0,6066.0 L 7135.0,6093.0 C 7104.0,6108.0 7067.0,6120.0 7051.0,6120.0 C 7003.0,6120.0 6970.0,6191.0 7005.0,6220.0 C 7013.0,6227.0 7020.0,6243.0 7020.0,6256.0 C 7020.0,6276.0 7025.0,6280.0 7049.0,6280.0 C 7083.0,6280.0 7097.0,6295.0 7102.0,6335.0 L 7105.0,6365.0 L 7171.0,6362.0 C 7221.0,6360.0 7240.0,6363.0 7250.0,6375.0 C 7261.0,6388.0 7259.0,6395.0 7236.0,6419.0 C 7221.0,6434.0 7206.0,6460.0 7201.0,6476.0 C 7195.0,6501.0 7188.0,6505.0 7152.0,6508.0 C 7123.0,6510.0 7109.0,6516.0 7105.0,6529.0 C 7094.0,6565.0 7052.0,6600.0 7021.0,6600.0 C 6981.0,6600.0 6976.0,6612.0 7000.0,6652.0 C 7011.0,6670.0 7020.0,6693.0 7020.0,6702.0 C 7020.0,6711.0 7038.0,6731.0 7060.0,6747.0 C 7102.0,6777.0 7111.0,6810.0 7089.0,6852.0 C 7083.0,6863.0 7081.0,6874.0 7084.0,6877.0 C 7094.0,6887.0 7176.0,6850.0 7200.0,6825.0 C 7228.0,6795.0 7270.0,6791.0 7270.0,6819.0 C 7270.0,6854.0 7316.0,6833.0 7336.0,6788.0 C 7357.0,6742.0 7403.0,6700.0 7433.0,6700.0 C 7444.0,6700.0 7464.0,6710.0 7477.0,6722.0 C 7491.0,6735.0 7504.0,6740.0 7510.0,6734.0 C 7515.0,6729.0 7531.0,6669.0 7545.0,6600.0 C 7569.0,6482.0 7573.0,6473.0 7607.0,6444.0 C 7637.0,6417.0 7656.0,6411.0 7729.0,6400.0 C 7816.0,6388.0 8149.0,6391.0 8242.0,6405.0 C 8285.0,6411.0 8293.0,6409.0 8350.0,6370.0 L 8411.0,6329.0 L 8382.0,6295.0 C 8360.0,6271.0 8351.0,6247.0 8346.0,6207.0 C 8339.0,6156.0 8335.0,6148.0 8272.0,6088.0 C 8235.0,6053.0 8187.0,6016.0 8165.0,6006.0 C 8119.0,5985.0 8073.0,5934.0 8060.0,5891.0 C 8054.0,5868.0 8057.0,5855.0 8076.0,5826.0 C 8096.0,5797.0 8100.0,5779.0 8100.0,5720.0 C 8100.0,5634.0 8112.0,5605.0 8140.0,5620.0 C 8151.0,5626.0 8160.0,5640.0 8160.0,5650.0 C 8160.0,5681.0 8178.0,5674.0 8185.0,5640.0 C 8192.0,5608.0 8215.0,5601.0 8251.0,5620.0 C 8267.0,5629.0 8270.0,5642.0 8270.0,5697.0 C 8270.0,5761.0 8271.0,5764.0 8310.0,5801.0 C 8336.0,5826.0 8350.0,5848.0 8350.0,5865.0 C 8350.0,5888.0 8353.0,5890.0 8400.0,5890.0 C 8461.0,5890.0 8465.0,5885.0 8486.0,5748.0 C 8495.0,5691.0 8517.0,5605.0 8535.0,5555.0 C 8553.0,5506.0 8575.0,5439.0 8584.0,5407.0 C 8594.0,5372.0 8608.0,5347.0 8618.0,5343.0 C 8627.0,5339.0 8652.0,5326.0 8674.0,5312.0 C 8718.0,5285.0 8736.0,5293.0 8721.0,5332.0 C 8713.0,5353.0 8716.0,5364.0 8735.0,5390.0 C 8757.0,5420.0 8758.0,5424.0 8744.0,5462.0 C 8736.0,5486.0 8730.0,5540.0 8730.0,5592.0 C 8730.0,5670.0 8733.0,5684.0 8750.0,5698.0 C 8761.0,5708.0 8774.0,5736.0 8779.0,5763.0 C 8784.0,5789.0 8796.0,5820.0 8806.0,5831.0 C 8827.0,5854.0 8832.0,5951.0 8816.0,6004.0 C 8808.0,6031.0 8809.0,6033.0 8830.0,6027.0 C 8843.0,6024.0 8866.0,6028.0 8883.0,6036.0 C 8911.0,6051.0 8913.0,6050.0 8939.0,6026.0 C 8962.0,6004.0 8970.0,6002.0 8995.0,6009.0 C 9063.0,6029.0 9062.0,6028.0 9055.0,6089.0 C 9049.0,6141.0 9052.0,6150.0 9090.0,6225.0 C 9113.0,6269.0 9148.0,6322.0 9167.0,6344.0 C 9200.0,6380.0 9202.0,6386.0 9197.0,6433.0 C 9192.0,6468.0 9183.0,6492.0 9165.0,6510.0 C 9125.0,6551.0 9132.0,6579.0 9192.0,6620.0 C 9221.0,6639.0 9252.0,6669.0 9261.0,6685.0 C 9287.0,6729.0 9301.0,6833.0 9294.0,6930.0 C 9288.0,7036.0 9300.0,7067.0 9347.0,7062.0 C 9373.0,7059.0 9383.0,7065.0 9405.0,7094.0 C 9420.0,7114.0 9441.0,7130.0 9452.0,7130.0 C 9465.0,7130.0 9476.0,7141.0 9483.0,7159.0 C 9489.0,7176.0 9504.0,7191.0 9516.0,7194.0 C 9528.0,7197.0 9562.0,7226.0 9591.0,7257.0 C 9644.0,7314.0 9646.0,7315.0 9682.0,7306.0 C 9713.0,7298.0 9723.0,7300.0 9740.0,7315.0 C 9759.0,7332.0 9765.0,7333.0 9793.0,7321.0 C 9839.0,7302.0 9887.0,7296.0 9894.0,7309.0 C 9898.0,7315.0 9881.0,7342.0 9856.0,7368.0 C 9830.0,7395.0 9810.0,7424.0 9810.0,7432.0 C 9810.0,7441.0 9831.0,7465.0 9858.0,7486.0 C 9933.0,7546.0 9939.0,7557.0 9937.0,7627.0 C 9936.0,7686.0 9934.0,7690.0 9910.0,7695.0 C 9895.0,7698.0 9868.0,7700.0 9849.0,7699.0 C 9830.0,7698.0 9797.0,7706.0 9773.0,7718.0 C 9720.0,7745.0 9688.0,7746.0 9665.0,7720.0 C 9655.0,7709.0 9639.0,7700.0 9628.0,7700.0 C 9613.0,7700.0 9610.0,7708.0 9610.0,7757.0 C 9610.0,7807.0 9614.0,7818.0 9641.0,7846.0 L 9671.0,7877.0 L 9633.0,7909.0 C 9608.0,7930.0 9587.0,7940.0 9573.0,7937.0 C 9560.0,7935.0 9544.0,7940.0 9533.0,7952.0 C 9515.0,7972.0 9522.0,7986.0 9554.0,7992.0 C 9591.0,7998.0 9580.0,8015.0 9525.0,8038.0 C 9449.0,8069.0 9421.0,8066.0 9367.0,8025.0 C 9338.0,8003.0 9310.0,7990.0 9291.0,7990.0 C 9268.0,7990.0 9260.0,7985.0 9260.0,7972.0 C 9260.0,7961.0 9252.0,7946.0 9243.0,7937.0 C 9218.0,7916.0 9125.0,7932.0 9090.0,7965.0 C 9045.0,8007.0 9014.0,8006.0 8992.0,7963.0 C 8985.0,7951.0 8960.0,7934.0 8936.0,7925.0 C 8902.0,7912.0 8891.0,7902.0 8886.0,7880.0 C 8882.0,7858.0 8874.0,7851.0 8854.0,7848.0 C 8834.0,7846.0 8824.0,7837.0 8816.0,7815.0 C 8793.0,7753.0 8781.0,7740.0 8744.0,7740.0 C 8674.0,7740.0 8590.0,7688.0 8590.0,7644.0 C 8590.0,7599.0 8570.0,7575.0 8520.0,7557.0 C 8493.0,7547.0 8460.0,7527.0 8447.0,7512.0 C 8433.0,7497.0 8409.0,7470.0 8394.0,7453.0 C 8369.0,7425.0 8355.0,7419.0 8290.0,7409.0 C 8241.0,7402.0 8208.0,7391.0 8194.0,7378.0 C 8175.0,7361.0 8165.0,7360.0 8129.0,7367.0 C 8091.0,7374.0 8085.0,7379.0 8082.0,7403.0 C 8079.0,7424.0 8071.0,7432.0 8041.0,7440.0 C 8020.0,7446.0 7997.0,7457.0 7990.0,7465.0 C 7975.0,7483.0 7954.0,7484.0 7943.0,7467.0 C 7939.0,7460.0 7923.0,7447.0 7908.0,7438.0 C 7885.0,7423.0 7880.0,7423.0 7870.0,7435.0 C 7854.0,7454.0 7810.0,7454.0 7774.0,7435.0 C 7747.0,7421.0 7745.0,7422.0 7741.0,7438.0 C 7737.0,7460.0 7710.0,7490.0 7695.0,7490.0 C 7688.0,7490.0 7675.0,7499.0 7666.0,7509.0 C 7636.0,7542.0 7587.0,7544.0 7534.0,7516.0 C 7508.0,7502.0 7465.0,7486.0 7438.0,7479.0 C 7394.0,7467.0 7386.0,7460.0 7360.0,7414.0 C 7341.0,7381.0 7330.0,7348.0 7330.0,7324.0 C 7330.0,7288.0 7325.0,7281.0 7263.0,7233.0 C 7177.0,7167.0 7167.0,7172.0 7171.0,7284.0 C 7173.0,7342.0 7170.0,7371.0 7160.0,7388.0 C 7143.0,7414.0 7105.0,7417.0 7074.0,7396.0 C 7063.0,7388.0 7031.0,7380.0 7005.0,7378.0 L 6956.0,7375.0 L 6943.0,7310.0 C 6936.0,7274.0 6923.0,7208.0 6914.0,7162.0 L 6899.0,7079.0 L 6924.0,7049.0 C 6955.0,7013.0 6957.0,6974.0 6930.0,6940.0 C 6918.0,6924.0 6910.0,6899.0 6910.0,6873.0 C 6910.0,6831.0 6910.0,6831.0 6884.0,6842.0 C 6864.0,6851.0 6857.0,6851.0 6850.0,6840.0 C 6845.0,6832.0 6820.0,6827.0 6782.0,6826.0 C 6749.0,6825.0 6715.0,6819.0 6707.0,6811.0 C 6687.0,6795.0 6650.0,6805.0 6632.0,6831.0 C 6616.0,6854.0 6574.0,6856.0 6566.0,6835.0 C 6559.0,6815.0 6543.0,6816.0 6474.0,6844.0 C 6403.0,6872.0 6257.0,6895.0 6201.0,6885.0 C 6162.0,6879.0 6161.0,6879.0 6152.0,6912.0 C 6142.0,6952.0 6112.0,6960.0 6064.0,6934.0 C 6031.0,6916.0 6030.0,6916.0 6006.0,6939.0 C 5988.0,6956.0 5974.0,6961.0 5957.0,6956.0 C 5939.0,6952.0 5926.0,6958.0 5904.0,6981.0 C 5818.0,7072.0 5667.0,7170.0 5613.0,7170.0 C 5606.0,7170.0 5586.0,7160.0 5569.0,7148.0 C 5543.0,7129.0 5536.0,7127.0 5507.0,7138.0 C 5462.0,7154.0 5451.0,7153.0 5406.0,7129.0 L 5368.0,7109.0 L 5314.0,7134.0 C 5284.0,7148.0 5244.0,7160.0 5225.0,7160.0 C 5199.0,7160.0 5187.0,7167.0 5170.0,7191.0 C 5149.0,7219.0 5144.0,7221.0 5093.0,7219.0 C 5040.0,7216.0 5036.0,7218.0 4983.0,7264.0 C 4934.0,7308.0 4926.0,7311.0 4904.0,7301.0 C 4862.0,7282.0 4844.0,7288.0 4784.0,7338.0 C 4739.0,7376.0 4724.0,7396.0 4716.0,7429.0 C 4706.0,7468.0 4701.0,7473.0 4645.0,7495.0 C 4612.0,7509.0 4572.0,7529.0 4556.0,7541.0 C 4533.0,7558.0 4519.0,7561.0 4480.0,7557.0 C 4440.0,7552.0 4430.0,7555.0 4413.0,7573.0 C 4403.0,7585.0 4378.0,7607.0 4359.0,7622.0 L 4325.0,7650.0 L 4353.0,7671.0 C 4381.0,7692.0 4381.0,7694.0 4374.0,7769.0 C 4368.0,7842.0 4369.0,7847.0 4394.0,7877.0 C 4408.0,7894.0 4420.0,7917.0 4420.0,7929.0 C 4420.0,7943.0 4432.0,7955.0 4457.0,7967.0 C 4481.0,7979.0 4501.0,7998.0 4511.0,8020.0 C 4521.0,8039.0 4540.0,8066.0 4554.0,8079.0 C 4608.0,8130.0 4582.0,8163.0 4431.0,8235.0 L 4369.0,8264.0 L 4371.0,8305.0 C 4374.0,8356.0 4366.0,8370.0 4333.0,8370.0 C 4318.0,8370.0 4296.0,8380.0 4283.0,8392.0 C 4267.0,8407.0 4241.0,8416.0 4197.0,8421.0 C 4144.0,8427.0 4131.0,8433.0 4106.0,8462.0 C 4091.0,8480.0 4071.0,8511.0 4063.0,8530.0 C 4032.0,8601.0 3998.0,8618.0 3959.0,8579.0 C 3932.0,8552.0 3926.0,8559.0 3939.0,8608.0 C 3948.0,8638.0 3947.0,8655.0 3936.0,8681.0 C 3928.0,8700.0 3919.0,8734.0 3915.0,8758.0 C 3910.0,8786.0 3902.0,8804.0 3890.0,8808.0 C 3865.0,8818.0 3822.0,8882.0 3815.0,8923.0 C 3810.0,8946.0 3814.0,8968.0 3824.0,8988.0 C 3854.0,9045.0 3890.0,9047.0 3919.0,8993.0 C 3925.0,8980.0 3949.0,8961.0 3972.0,8949.0 L 4013.0,8928.0 L 4084.0,8978.0 C 4156.0,9029.0 4173.0,9057.0 4154.0,9098.0 C 4150.0,9108.0 4142.0,9133.0 4136.0,9154.0 C 4126.0,9191.0 4121.0,9195.0 4077.0,9206.0 C 4021.0,9220.0 3990.0,9244.0 3990.0,9273.0 C 3990.0,9285.0 3980.0,9305.0 3968.0,9318.0 C 3949.0,9337.0 3945.0,9352.0 3946.0,9397.0 C 3948.0,9446.0 3951.0,9454.0 3981.0,9480.0 C 4006.0,9500.0 4030.0,9509.0 4068.0,9513.0 C 4098.0,9516.0 4124.0,9521.0 4126.0,9523.0 C 4129.0,9525.0 4137.0,9560.0 4144.0,9599.0 C 4160.0,9680.0 4180.0,9710.0 4220.0,9710.0 C 4250.0,9710.0 4300.0,9744.0 4300.0,9765.0 C 4300.0,9772.0 4316.0,9809.0 4335.0,9846.0 C 4354.0,9883.0 4370.0,9927.0 4370.0,9944.0 C 4370.0,9961.0 4379.0,9989.0 4390.0,10005.0 C 4416.0,10044.0 4416.0,10080.0 4391.0,10080.0 C 4381.0,10080.0 4353.0,10073.0 4330.0,10065.0 C 4307.0,10057.0 4286.0,10050.0 4285.0,10050.0 C 4284.0,10050.0 4277.0,10063.0 4270.0,10079.0 C 4262.0,10100.0 4249.0,10111.0 4227.0,10116.0 C 4184.0,10125.0 4160.0,10148.0 4160.0,10180.0 C 4160.0,10195.0 4154.0,10213.0 4146.0,10219.0 C 4123.0,10238.0 4067.0,10242.0 4040.0,10225.0" fill="pink"/>
</svg>
