<?xml version="1.0" ?>
<svg xmlns="http://www.w3.org/2000/svg" xmlns:ev="http://www.w3.org/2001/xml-events" xmlns:xlink="http://www.w3.org/1999/xlink" baseProfile="full" height="600px" version="1.1" viewBox="-1013.4117606354962 -1031.2173220226734 12253.736285734278 12299.403022380406" width="598px">
	<defs/>
	<path d="M 4123.0,10228.0 C 4110.0,10222.0 4098.0,10208.0 4094.0,10198.0 C 4091.0,10187.0 4076.0,10164.0 4061.0,10147.0 C 4046.0,10129.0 4014.0,10082.0 3990.0,10043.0 C 3951.0,9979.0 3941.0,9969.0 3910.0,9964.0 C 3891.0,9961.0 3857.0,9952.0 3835.0,9944.0 C 3812.0,9936.0 3782.0,9930.0 3767.0,9930.0 C 3742.0,9930.0 3740.0,9927.0 3740.0,9893.0 C 3739.0,9857.0 3724.0,9839.0 3471.0,9575.0 L 3202.0,9295.0 L 2984.0,9255.0 L 2767.0,9215.0 L 2708.0,9109.0 L 2650.0,9004.0 L 2628.0,8809.0 L 2606.0,8615.0 L 2662.0,8510.0 L 2718.0,8405.0 L 2725.0,8257.0 L 2732.0,8109.0 L 2674.0,8022.0 C 2619.0,7939.0 2617.0,7932.0 2613.0,7860.0 C 2609.0,7803.0 2600.0,7765.0 2573.0,7700.0 L 2537.0,7615.0 L 2548.0,7342.0 L 2560.0,7068.0 L 2519.0,7009.0 C 2497.0,6976.0 2443.0,6876.0 2399.0,6787.0 C 2355.0,6698.0 2307.0,6613.0 2292.0,6598.0 C 2272.0,6579.0 475.0,5626.0 54.0,5412.0 L 12.0,5391.0 L 57.0,5213.0 C 81.0,5115.0 141.0,4879.0 190.0,4689.0 C 240.0,4498.0 280.0,4336.0 280.0,4327.0 C 280.0,4317.0 265.0,4310.0 235.0,4306.0 C 201.0,4300.0 190.0,4294.0 190.0,4280.0 C 190.0,4262.0 228.0,4068.0 233.0,4064.0 C 234.0,4063.0 285.0,4072.0 346.0,4084.0 L 457.0,4107.0 L 484.0,4053.0 C 498.0,4024.0 510.0,3996.0 510.0,3991.0 C 510.0,3986.0 478.0,3954.0 439.0,3921.0 C 396.0,3884.0 374.0,3858.0 382.0,3855.0 C 389.0,3853.0 674.0,3790.0 1015.0,3717.0 L 1636.0,3583.0 L 2144.0,3217.0 L 2652.0,2852.0 L 2992.0,2689.0 L 3332.0,2525.0 L 3644.0,2232.0 C 3905.0,1985.0 4039.0,1869.0 4480.0,1511.0 C 4891.0,1176.0 6067.0,224.0 6127.0,178.0 C 6142.0,166.0 6560.0,122.0 7305.0,54.0 L 7925.0,-2.0 L 7965.0,18.0 C 7987.0,30.0 8030.0,50.0 8060.0,63.0 C 8128.0,93.0 8247.0,220.0 8305.0,325.0 C 8327.0,364.0 8357.0,407.0 8373.0,422.0 C 8389.0,437.0 8416.0,487.0 8436.0,535.0 C 8455.0,582.0 8490.0,653.0 8515.0,692.0 C 8541.0,734.0 8560.0,777.0 8560.0,793.0 C 8560.0,809.0 8569.0,834.0 8579.0,849.0 C 8589.0,863.0 8613.0,918.0 8631.0,970.0 C 8663.0,1062.0 8742.0,1218.0 8764.0,1232.0 C 8770.0,1236.0 8797.0,1244.0 8825.0,1251.0 C 8852.0,1257.0 8887.0,1273.0 8901.0,1287.0 C 8927.0,1311.0 8927.0,1311.0 9126.0,1308.0 L 9325.0,1305.0 L 9462.0,1251.0 L 9599.0,1197.0 L 9631.0,1225.0 C 9661.0,1249.0 9670.0,1252.0 9725.0,1248.0 C 9771.0,1245.0 9799.0,1236.0 9845.0,1210.0 C 9955.0,1146.0 10109.0,1115.0 10185.0,1140.0 C 10219.0,1151.0 10221.0,1153.0 10206.0,1169.0 C 10197.0,1178.0 10166.0,1189.0 10138.0,1195.0 L 10087.0,1205.0 L 10063.0,1275.0 C 10049.0,1314.0 10038.0,1367.0 10038.0,1395.0 C 10038.0,1442.0 10034.0,1448.0 9967.0,1522.0 C 9906.0,1590.0 9893.0,1600.0 9863.0,1600.0 C 9810.0,1600.0 9793.0,1614.0 9785.0,1666.0 C 9775.0,1732.0 9772.0,1738.0 9737.0,1745.0 C 9719.0,1749.0 9686.0,1761.0 9663.0,1772.0 L 9620.0,1792.0 L 9620.0,1929.0 C 9620.0,2005.0 9617.0,2149.0 9613.0,2250.0 L 9607.0,2433.0 L 9435.0,2428.0 L 9263.0,2423.0 L 9256.0,2483.0 C 9253.0,2516.0 9250.0,2634.0 9250.0,2745.0 L 9250.0,2947.0 L 9325.0,3170.0 C 9367.0,3293.0 9398.0,3401.0 9395.0,3411.0 C 9392.0,3421.0 9374.0,3442.0 9355.0,3459.0 C 9336.0,3476.0 9320.0,3496.0 9320.0,3504.0 C 9320.0,3513.0 9311.0,3524.0 9299.0,3530.0 C 9288.0,3536.0 9263.0,3567.0 9243.0,3598.0 C 9223.0,3629.0 9192.0,3673.0 9173.0,3695.0 C 9155.0,3717.0 9128.0,3750.0 9113.0,3768.0 C 9097.0,3787.0 9073.0,3806.0 9058.0,3812.0 C 9035.0,3820.0 9030.0,3828.0 9030.0,3854.0 C 9030.0,3872.0 9034.0,3890.0 9039.0,3895.0 C 9045.0,3901.0 9025.0,3934.0 8986.0,3982.0 C 8940.0,4037.0 8921.0,4069.0 8916.0,4099.0 C 8909.0,4148.0 8858.0,4210.0 8826.0,4210.0 C 8814.0,4210.0 8795.0,4216.0 8784.0,4224.0 C 8767.0,4237.0 8763.0,4236.0 8745.0,4221.0 C 8734.0,4211.0 8705.0,4200.0 8680.0,4197.0 C 8638.0,4192.0 8631.0,4195.0 8545.0,4254.0 C 8458.0,4315.0 8373.0,4396.0 8336.0,4451.0 C 8327.0,4466.0 8306.0,4480.0 8290.0,4484.0 C 8273.0,4487.0 8231.0,4514.0 8195.0,4544.0 C 8160.0,4575.0 8111.0,4609.0 8088.0,4621.0 C 8065.0,4633.0 8021.0,4661.0 7992.0,4684.0 C 7963.0,4706.0 7926.0,4734.0 7911.0,4746.0 C 7875.0,4772.0 7761.0,4793.0 7651.0,4794.0 C 7547.0,4795.0 7533.0,4808.0 7567.0,4870.0 L 7588.0,4910.0 L 7552.0,4940.0 C 7532.0,4956.0 7511.0,4970.0 7506.0,4970.0 C 7502.0,4970.0 7503.0,4977.0 7510.0,4985.0 C 7517.0,4993.0 7532.0,5000.0 7545.0,5000.0 C 7557.0,5000.0 7584.0,5015.0 7605.0,5034.0 C 7644.0,5067.0 7644.0,5067.0 7627.0,5093.0 C 7618.0,5108.0 7610.0,5131.0 7610.0,5144.0 C 7610.0,5159.0 7602.0,5174.0 7591.0,5179.0 C 7553.0,5200.0 7490.0,5291.0 7490.0,5325.0 C 7490.0,5366.0 7414.0,5464.0 7390.0,5454.0 C 7382.0,5450.0 7360.0,5445.0 7343.0,5442.0 C 7302.0,5437.0 7298.0,5460.0 7334.0,5494.0 C 7358.0,5515.0 7358.0,5518.0 7345.0,5556.0 C 7333.0,5592.0 7328.0,5596.0 7288.0,5601.0 C 7254.0,5606.0 7239.0,5603.0 7217.0,5587.0 C 7186.0,5566.0 7174.0,5571.0 7168.0,5610.0 C 7166.0,5626.0 7147.0,5648.0 7113.0,5674.0 C 7074.0,5703.0 7060.0,5719.0 7060.0,5738.0 C 7060.0,5752.0 7045.0,5781.0 7026.0,5804.0 C 7008.0,5827.0 6983.0,5865.0 6970.0,5890.0 C 6927.0,5975.0 6912.0,5990.0 6871.0,5990.0 C 6848.0,5990.0 6827.0,5996.0 6819.0,6006.0 C 6807.0,6020.0 6809.0,6025.0 6832.0,6044.0 C 6848.0,6057.0 6860.0,6080.0 6865.0,6105.0 C 6874.0,6159.0 6893.0,6191.0 6930.0,6218.0 C 6955.0,6237.0 6960.0,6247.0 6956.0,6265.0 C 6953.0,6278.0 6957.0,6304.0 6965.0,6324.0 C 6983.0,6366.0 6984.0,6392.0 6969.0,6442.0 C 6960.0,6476.0 6955.0,6481.0 6919.0,6486.0 C 6885.0,6492.0 6876.0,6499.0 6860.0,6531.0 C 6831.0,6587.0 6833.0,6628.0 6865.0,6636.0 C 6898.0,6644.0 6920.0,6687.0 6920.0,6744.0 C 6920.0,6798.0 6931.0,6807.0 6968.0,6782.0 C 6988.0,6767.0 7012.0,6762.0 7064.0,6762.0 L 7132.0,6761.0 L 7128.0,6809.0 C 7125.0,6841.0 7111.0,6878.0 7087.0,6916.0 L 7052.0,6974.0 L 7071.0,7012.0 C 7081.0,7032.0 7090.0,7055.0 7090.0,7062.0 C 7090.0,7069.0 7108.0,7083.0 7130.0,7092.0 C 7168.0,7108.0 7170.0,7110.0 7170.0,7154.0 C 7170.0,7179.0 7172.0,7200.0 7174.0,7200.0 C 7176.0,7200.0 7197.0,7193.0 7221.0,7185.0 C 7278.0,7164.0 7282.0,7170.0 7285.0,7280.0 C 7285.0,7320.0 7292.0,7345.0 7310.0,7372.0 C 7324.0,7392.0 7339.0,7409.0 7343.0,7410.0 C 7347.0,7410.0 7368.0,7399.0 7388.0,7385.0 L 7424.0,7360.0 L 7450.0,7385.0 C 7464.0,7399.0 7487.0,7410.0 7501.0,7410.0 C 7557.0,7410.0 7565.0,7418.0 7561.0,7466.0 C 7559.0,7491.0 7563.0,7517.0 7569.0,7523.0 C 7596.0,7550.0 7567.0,7610.0 7526.0,7610.0 C 7512.0,7610.0 7509.0,7615.0 7514.0,7633.0 C 7517.0,7645.0 7523.0,7674.0 7526.0,7697.0 C 7532.0,7736.0 7530.0,7740.0 7506.0,7752.0 C 7491.0,7758.0 7469.0,7782.0 7458.0,7804.0 C 7447.0,7827.0 7425.0,7863.0 7410.0,7885.0 C 7394.0,7909.0 7381.0,7944.0 7378.0,7972.0 C 7373.0,8014.0 7375.0,8019.0 7394.0,8022.0 C 7412.0,8025.0 7415.0,8031.0 7412.0,8070.0 C 7411.0,8095.0 7412.0,8126.0 7415.0,8138.0 C 7420.0,8160.0 7424.0,8161.0 7470.0,8155.0 C 7513.0,8149.0 7520.0,8151.0 7530.0,8169.0 C 7539.0,8186.0 7550.0,8190.0 7594.0,8190.0 C 7651.0,8190.0 7664.0,8199.0 7694.0,8257.0 C 7718.0,8304.0 7715.0,8340.0 7688.0,8340.0 C 7676.0,8340.0 7657.0,8331.0 7645.0,8320.0 C 7618.0,8295.0 7558.0,8302.0 7544.0,8333.0 C 7539.0,8344.0 7523.0,8362.0 7509.0,8373.0 C 7485.0,8390.0 7481.0,8391.0 7445.0,8375.0 C 7423.0,8366.0 7394.0,8362.0 7379.0,8365.0 C 7360.0,8369.0 7351.0,8366.0 7347.0,8355.0 C 7343.0,8345.0 7330.0,8340.0 7311.0,8342.0 C 7295.0,8343.0 7275.0,8338.0 7266.0,8331.0 C 7257.0,8323.0 7240.0,8321.0 7221.0,8325.0 C 7204.0,8328.0 7189.0,8327.0 7185.0,8321.0 C 7182.0,8315.0 7169.0,8310.0 7156.0,8310.0 C 7140.0,8310.0 7128.0,8322.0 7112.0,8356.0 C 7080.0,8421.0 7036.0,8473.0 6971.0,8522.0 L 6916.0,8563.0 L 6836.0,8552.0 C 6764.0,8542.0 6700.0,8544.0 6700.0,8557.0 C 6700.0,8559.0 6709.0,8578.0 6720.0,8600.0 C 6745.0,8648.0 6745.0,8658.0 6720.0,8690.0 C 6706.0,8708.0 6700.0,8731.0 6700.0,8770.0 C 6700.0,8823.0 6698.0,8826.0 6669.0,8837.0 C 6642.0,8848.0 6640.0,8851.0 6650.0,8871.0 C 6659.0,8887.0 6659.0,8902.0 6652.0,8929.0 C 6646.0,8949.0 6639.0,8980.0 6636.0,8998.0 C 6628.0,9043.0 6598.0,9081.0 6579.0,9069.0 C 6562.0,9058.0 6500.0,9057.0 6484.0,9068.0 C 6470.0,9076.0 6380.0,9209.0 6380.0,9220.0 C 6380.0,9224.0 6393.0,9247.0 6410.0,9271.0 C 6447.0,9325.0 6447.0,9349.0 6414.0,9411.0 C 6386.0,9462.0 6348.0,9486.0 6262.0,9509.0 C 6228.0,9519.0 6220.0,9525.0 6220.0,9545.0 C 6220.0,9558.0 6231.0,9582.0 6245.0,9598.0 C 6283.0,9643.0 6291.0,9674.0 6273.0,9700.0 C 6262.0,9716.0 6259.0,9734.0 6264.0,9767.0 C 6271.0,9817.0 6255.0,9839.0 6215.0,9840.0 C 6202.0,9840.0 6185.0,9856.0 6167.0,9887.0 C 6143.0,9926.0 6140.0,9937.0 6149.0,9957.0 C 6155.0,9970.0 6160.0,9983.0 6160.0,9985.0 C 6160.0,9988.0 6122.0,9990.0 6075.0,9990.0 C 6000.0,9990.0 5982.0,9986.0 5932.0,9961.0 C 5900.0,9945.0 5857.0,9913.0 5837.0,9891.0 C 5804.0,9855.0 5795.0,9850.0 5755.0,9850.0 C 5710.0,9850.0 5710.0,9850.0 5710.0,9816.0 C 5710.0,9767.0 5701.0,9750.0 5676.0,9750.0 C 5645.0,9751.0 5627.0,9768.0 5590.0,9833.0 C 5561.0,9884.0 5559.0,9894.0 5569.0,9917.0 C 5576.0,9931.0 5592.0,9951.0 5605.0,9962.0 C 5635.0,9985.0 5637.0,10022.0 5614.0,10080.0 C 5601.0,10113.0 5587.0,10126.0 5547.0,10147.0 C 5504.0,10169.0 5487.0,10172.0 5435.0,10167.0 C 5376.0,10163.0 5371.0,10160.0 5325.0,10111.0 C 5271.0,10054.0 5217.0,10030.0 5182.0,10049.0 C 5171.0,10055.0 5125.0,10060.0 5080.0,10060.0 C 5025.0,10060.0 4989.0,10065.0 4968.0,10076.0 C 4950.0,10086.0 4923.0,10090.0 4901.0,10087.0 C 4860.0,10082.0 4783.0,10116.0 4737.0,10158.0 C 4713.0,10181.0 4706.0,10183.0 4680.0,10173.0 C 4655.0,10163.0 4646.0,10166.0 4613.0,10190.0 C 4571.0,10220.0 4468.0,10248.0 4462.0,10230.0 C 4460.0,10225.0 4447.0,10220.0 4433.0,10220.0 C 4419.0,10220.0 4386.0,10212.0 4360.0,10203.0 C 4314.0,10187.0 4309.0,10187.0 4256.0,10203.0 C 4225.0,10213.0 4200.0,10225.0 4200.0,10231.0 C 4200.0,10243.0 4151.0,10241.0 4123.0,10228.0" fill="pink"/>
</svg>
