<?xml version="1.0" ?>
<svg xmlns="http://www.w3.org/2000/svg" xmlns:ev="http://www.w3.org/2001/xml-events" xmlns:xlink="http://www.w3.org/1999/xlink" baseProfile="full" height="522px" version="1.1" viewBox="-1029.213347451992 -229.85738058750724 12299.355525272062 10695.40847374563" width="600px">
	<defs/>
	<path d="M 214.0,9502.0 C 191.0,9465.0 169.0,9426.0 166.0,9414.0 C 162.0,9401.0 129.0,9377.0 80.0,9350.0 C 21.0,9318.0 0.0,9302.0 0.0,9287.0 C 0.0,9276.0 13.0,9224.0 29.0,9171.0 L 59.0,9075.0 L 60.0,8780.0 C 62.0,8503.0 61.0,8482.0 41.0,8433.0 L 21.0,8382.0 L 77.0,8339.0 C 137.0,8293.0 234.0,8178.0 250.0,8134.0 C 256.0,8120.0 263.0,8017.0 267.0,7907.0 L 273.0,7705.0 L 313.0,7632.0 C 343.0,7577.0 369.0,7545.0 415.0,7507.0 L 478.0,7455.0 L 490.0,7380.0 C 497.0,7339.0 514.0,7277.0 527.0,7243.0 C 547.0,7192.0 559.0,7177.0 593.0,7157.0 C 669.0,7113.0 750.0,7090.0 859.0,7082.0 L 963.0,7075.0 L 910.0,7006.0 L 857.0,6937.0 L 863.0,6820.0 L 868.0,6702.0 L 823.0,6659.0 C 751.0,6588.0 672.0,6469.0 654.0,6401.0 C 638.0,6344.0 634.0,6339.0 600.0,6330.0 C 579.0,6324.0 558.0,6314.0 552.0,6307.0 C 539.0,6291.0 520.0,6176.0 520.0,6116.0 C 520.0,6078.0 514.0,6060.0 490.0,6030.0 C 437.0,5963.0 426.0,5896.0 456.0,5822.0 C 468.0,5790.0 479.0,5781.0 509.0,5771.0 C 531.0,5765.0 555.0,5762.0 563.0,5766.0 C 575.0,5770.0 587.0,5756.0 608.0,5713.0 C 625.0,5681.0 656.0,5624.0 679.0,5585.0 C 714.0,5526.0 720.0,5507.0 720.0,5460.0 C 720.0,5410.0 723.0,5401.0 752.0,5373.0 C 770.0,5356.0 818.0,5321.0 858.0,5297.0 C 898.0,5272.0 943.0,5236.0 959.0,5216.0 C 975.0,5196.0 1023.0,5154.0 1064.0,5124.0 C 1127.0,5078.0 1157.0,5064.0 1234.0,5043.0 C 1322.0,5019.0 1330.0,5015.0 1357.0,4976.0 C 1373.0,4954.0 1399.0,4904.0 1415.0,4865.0 C 1431.0,4827.0 1455.0,4779.0 1470.0,4760.0 C 1519.0,4695.0 1556.0,4625.0 1573.0,4567.0 C 1588.0,4512.0 1588.0,4503.0 1569.0,4407.0 C 1559.0,4351.0 1547.0,4247.0 1544.0,4175.0 L 1539.0,4045.0 L 1602.0,4014.0 L 1665.0,3983.0 L 1680.0,3894.0 C 1696.0,3798.0 1729.0,3733.0 1798.0,3655.0 C 1841.0,3607.0 2038.0,3450.0 2055.0,3450.0 C 2062.0,3450.0 2075.0,3468.0 2084.0,3490.0 C 2096.0,3521.0 2107.0,3532.0 2128.0,3536.0 C 2153.0,3541.0 2158.0,3548.0 2168.0,3600.0 C 2177.0,3641.0 2177.0,3666.0 2170.0,3686.0 C 2148.0,3742.0 2221.0,3748.0 2287.0,3694.0 C 2324.0,3663.0 2333.0,3648.0 2352.0,3583.0 C 2369.0,3525.0 2380.0,3505.0 2400.0,3495.0 C 2414.0,3488.0 2436.0,3470.0 2449.0,3456.0 C 2463.0,3442.0 2478.0,3430.0 2484.0,3430.0 C 2490.0,3430.0 2513.0,3416.0 2534.0,3400.0 L 2574.0,3370.0 L 2604.0,3399.0 C 2656.0,3447.0 2713.0,3480.0 2746.0,3480.0 C 2785.0,3480.0 2836.0,3420.0 2854.0,3352.0 C 2868.0,3299.0 2974.0,3146.0 3018.0,3116.0 C 3059.0,3089.0 3085.0,3043.0 3115.0,2949.0 L 3141.0,2865.0 L 3239.0,2780.0 C 3336.0,2696.0 3337.0,2694.0 3348.0,2635.0 C 3355.0,2602.0 3385.0,2514.0 3416.0,2440.0 C 3447.0,2366.0 3485.0,2272.0 3502.0,2232.0 C 3529.0,2167.0 3541.0,2152.0 3623.0,2080.0 L 3715.0,2000.0 L 3807.0,2000.0 C 3900.0,2000.0 3901.0,2000.0 4008.0,1946.0 C 4067.0,1916.0 4145.0,1870.0 4182.0,1843.0 C 4240.0,1801.0 4254.0,1783.0 4290.0,1713.0 L 4332.0,1632.0 L 4393.0,1615.0 C 4568.0,1568.0 4683.0,1524.0 4719.0,1492.0 C 4742.0,1471.0 4751.0,1457.0 4743.0,1454.0 C 4735.0,1450.0 4748.0,1428.0 4781.0,1391.0 L 4831.0,1333.0 L 4923.0,1348.0 C 5049.0,1367.0 5161.0,1358.0 5210.0,1326.0 C 5266.0,1289.0 5386.0,1257.0 5440.0,1263.0 C 5511.0,1271.0 5599.0,1315.0 5638.0,1360.0 C 5669.0,1397.0 5675.0,1400.0 5723.0,1400.0 C 5819.0,1400.0 5888.0,1436.0 5923.0,1506.0 C 5937.0,1533.0 5955.0,1542.0 6087.0,1590.0 C 6168.0,1619.0 6259.0,1654.0 6289.0,1667.0 C 6376.0,1705.0 6419.0,1699.0 6541.0,1635.0 L 6646.0,1581.0 L 6707.0,1478.0 C 6749.0,1406.0 6770.0,1360.0 6775.0,1325.0 C 6786.0,1244.0 6835.0,1134.0 6923.0,990.0 L 7006.0,855.0 L 7140.0,850.0 C 7227.0,846.0 7286.0,839.0 7305.0,830.0 C 7328.0,819.0 7384.0,815.0 7540.0,814.0 C 7778.0,813.0 7857.0,800.0 7928.0,750.0 C 7969.0,721.0 7974.0,720.0 7983.0,735.0 C 8013.0,789.0 8056.0,803.0 8108.0,776.0 C 8168.0,746.0 8343.0,727.0 8525.0,732.0 C 8695.0,737.0 8699.0,737.0 8730.0,763.0 C 8747.0,778.0 8766.0,790.0 8771.0,790.0 C 8776.0,790.0 8797.0,774.0 8818.0,755.0 C 8851.0,726.0 8866.0,720.0 8926.0,714.0 C 8964.0,710.0 9025.0,697.0 9062.0,684.0 C 9099.0,672.0 9137.0,664.0 9147.0,666.0 C 9157.0,668.0 9208.0,675.0 9260.0,680.0 C 9312.0,685.0 9371.0,692.0 9390.0,696.0 L 9425.0,702.0 L 9427.0,808.0 C 9430.0,929.0 9453.0,1100.0 9476.0,1175.0 C 9485.0,1203.0 9515.0,1272.0 9543.0,1330.0 C 9605.0,1458.0 9697.0,1564.0 9758.0,1575.0 C 9796.0,1582.0 9865.0,1618.0 9950.0,1675.0 C 9984.0,1698.0 10017.0,1711.0 10055.0,1715.0 C 10107.0,1722.0 10114.0,1726.0 10166.0,1784.0 C 10247.0,1872.0 10256.0,1910.0 10223.0,2004.0 C 10199.0,2070.0 10166.0,2090.0 10080.0,2090.0 C 9971.0,2090.0 9973.0,2089.0 9966.0,2188.0 C 9957.0,2322.0 9878.0,2611.0 9843.0,2642.0 C 9804.0,2675.0 9740.0,2699.0 9635.0,2718.0 C 9543.0,2735.0 9505.0,2749.0 9405.0,2799.0 C 9245.0,2879.0 9180.0,2937.0 9108.0,3067.0 C 9078.0,3121.0 9044.0,3187.0 9034.0,3213.0 C 9013.0,3267.0 8967.0,3310.0 8855.0,3382.0 C 8816.0,3407.0 8773.0,3444.0 8757.0,3467.0 L 8729.0,3507.0 L 8748.0,3556.0 C 8833.0,3772.0 8864.0,3837.0 8898.0,3874.0 C 9000.0,3986.0 9027.0,4031.0 9048.0,4130.0 C 9079.0,4271.0 9084.0,4340.0 9071.0,4412.0 C 9053.0,4507.0 9016.0,4566.0 8950.0,4605.0 C 8896.0,4638.0 8894.0,4638.0 8828.0,4628.0 C 8768.0,4618.0 8757.0,4619.0 8705.0,4640.0 C 8627.0,4672.0 8537.0,4740.0 8520.0,4780.0 C 8506.0,4813.0 8505.0,4836.0 8510.0,5016.0 C 8512.0,5109.0 8510.0,5122.0 8482.0,5186.0 C 8411.0,5349.0 8370.0,5463.0 8370.0,5500.0 C 8370.0,5547.0 8391.0,5651.0 8420.0,5744.0 C 8443.0,5818.0 8441.0,5898.0 8415.0,5924.0 C 8408.0,5931.0 8378.0,5940.0 8349.0,5943.0 C 8320.0,5947.0 8293.0,5953.0 8290.0,5957.0 C 8286.0,5962.0 8280.0,6024.0 8276.0,6095.0 L 8270.0,6225.0 L 8360.0,6273.0 L 8450.0,6321.0 L 8450.0,6403.0 C 8450.0,6480.0 8453.0,6492.0 8502.0,6605.0 L 8555.0,6725.0 L 8552.0,6895.0 C 8551.0,6989.0 8555.0,7119.0 8561.0,7185.0 C 8570.0,7296.0 8570.0,7308.0 8551.0,7350.0 C 8529.0,7402.0 8515.0,7470.0 8498.0,7625.0 L 8485.0,7735.0 L 8440.0,7747.0 C 8415.0,7753.0 8349.0,7759.0 8293.0,7759.0 L 8190.0,7760.0 L 8093.0,7812.0 C 8039.0,7840.0 7973.0,7880.0 7945.0,7900.0 C 7876.0,7951.0 7822.0,7979.0 7701.0,8030.0 C 7644.0,8054.0 7597.0,8079.0 7595.0,8085.0 C 7577.0,8153.0 7549.0,8203.0 7503.0,8251.0 C 7450.0,8307.0 7449.0,8307.0 7367.0,8319.0 C 7265.0,8333.0 7211.0,8333.0 7156.0,8319.0 C 7117.0,8309.0 7103.0,8312.0 7009.0,8344.0 C 6952.0,8363.0 6824.0,8402.0 6726.0,8430.0 L 6546.0,8482.0 L 6446.0,8576.0 L 6345.0,8671.0 L 6210.0,8666.0 C 6032.0,8659.0 6023.0,8656.0 6011.0,8612.0 C 6005.0,8593.0 5988.0,8564.0 5974.0,8548.0 C 5949.0,8523.0 5940.0,8520.0 5881.0,8521.0 C 5845.0,8521.0 5799.0,8527.0 5780.0,8534.0 C 5753.0,8544.0 5731.0,8544.0 5670.0,8534.0 C 5537.0,8511.0 5527.0,8506.0 5448.0,8419.0 C 5356.0,8318.0 5156.0,8156.0 5082.0,8123.0 C 5051.0,8109.0 4983.0,8087.0 4931.0,8074.0 C 4879.0,8062.0 4832.0,8046.0 4826.0,8040.0 C 4810.0,8024.0 4819.0,7962.0 4845.0,7910.0 C 4859.0,7883.0 4875.0,7829.0 4881.0,7790.0 C 4894.0,7711.0 4890.0,7700.0 4839.0,7700.0 C 4825.0,7700.0 4789.0,7693.0 4760.0,7684.0 C 4719.0,7672.0 4686.0,7670.0 4623.0,7675.0 C 4577.0,7679.0 4540.0,7685.0 4540.0,7689.0 C 4540.0,7693.0 4571.0,7702.0 4610.0,7709.0 C 4681.0,7722.0 4691.0,7729.0 4666.0,7749.0 C 4656.0,7758.0 4636.0,7755.0 4584.0,7736.0 C 4431.0,7682.0 4281.0,7641.0 4216.0,7634.0 C 4162.0,7629.0 4116.0,7614.0 4014.0,7569.0 C 3886.0,7511.0 3880.0,7510.0 3794.0,7510.0 C 3643.0,7510.0 3539.0,7534.0 3430.0,7592.0 C 3320.0,7651.0 3140.0,7760.0 3092.0,7796.0 C 3071.0,7812.0 3047.0,7849.0 3024.0,7899.0 C 2991.0,7971.0 2985.0,7978.0 2948.0,7989.0 C 2922.0,7997.0 2879.0,7999.0 2821.0,7995.0 C 2738.0,7988.0 2731.0,7989.0 2674.0,8018.0 C 2642.0,8034.0 2592.0,8051.0 2564.0,8055.0 C 2520.0,8061.0 2506.0,8068.0 2462.0,8113.0 C 2415.0,8160.0 2407.0,8176.0 2369.0,8290.0 C 2333.0,8398.0 2326.0,8432.0 2320.0,8540.0 C 2316.0,8609.0 2309.0,8672.0 2306.0,8680.0 C 2301.0,8691.0 2283.0,8695.0 2231.0,8695.0 C 2169.0,8695.0 2160.0,8698.0 2142.0,8720.0 C 2131.0,8734.0 2095.0,8758.0 2062.0,8774.0 C 2029.0,8790.0 1997.0,8813.0 1990.0,8825.0 C 1983.0,8837.0 1956.0,8858.0 1929.0,8870.0 C 1902.0,8883.0 1880.0,8899.0 1880.0,8905.0 C 1880.0,8921.0 1915.0,8951.0 1982.0,8994.0 L 2040.0,9030.0 L 2009.0,9113.0 C 1984.0,9182.0 1980.0,9204.0 1985.0,9251.0 L 1991.0,9307.0 L 1920.0,9353.0 C 1857.0,9395.0 1845.0,9400.0 1793.0,9400.0 C 1705.0,9400.0 1590.0,9357.0 1500.0,9292.0 C 1438.0,9247.0 1412.0,9219.0 1355.0,9133.0 C 1245.0,8970.0 1255.0,8979.0 1162.0,8965.0 C 1038.0,8947.0 862.0,8962.0 730.0,9001.0 L 624.0,9032.0 L 545.0,9163.0 C 457.0,9306.0 274.0,9570.0 262.0,9570.0 C 258.0,9569.0 236.0,9539.0 214.0,9502.0" fill="pink"/>
</svg>
