<?xml version="1.0" ?>
<svg xmlns="http://www.w3.org/2000/svg" xmlns:ev="http://www.w3.org/2001/xml-events" xmlns:xlink="http://www.w3.org/1999/xlink" baseProfile="full" height="404px" version="1.1" viewBox="-1029.0026472155455 983.2851422829468 12296.837605033532 8276.881118930583" width="600px">
	<defs/>
	<path d="M 7747.0,8543.0 C 7732.0,8506.0 7690.0,8456.0 7663.0,8442.0 C 7646.0,8433.0 7638.0,8436.0 7610.0,8465.0 C 7574.0,8502.0 7550.0,8501.0 7550.0,8463.0 C 7550.0,8441.0 7548.0,8439.0 7535.0,8450.0 C 7527.0,8457.0 7520.0,8471.0 7520.0,8480.0 C 7520.0,8490.0 7517.0,8505.0 7514.0,8514.0 C 7504.0,8541.0 7470.0,8514.0 7470.0,8480.0 C 7470.0,8460.0 7465.0,8450.0 7455.0,8450.0 C 7445.0,8450.0 7440.0,8460.0 7440.0,8478.0 L 7440.0,8505.0 L 7420.0,8472.0 C 7396.0,8433.0 7396.0,8432.0 7416.0,8428.0 C 7441.0,8423.0 7459.0,8340.0 7460.0,8234.0 C 7460.0,8165.0 7464.0,8139.0 7475.0,8130.0 C 7483.0,8123.0 7490.0,8107.0 7490.0,8094.0 C 7490.0,8080.0 7504.0,8044.0 7522.0,8014.0 C 7547.0,7968.0 7551.0,7954.0 7542.0,7939.0 C 7528.0,7918.0 7494.0,7791.0 7484.0,7725.0 L 7477.0,7678.0 L 7455.0,7706.0 L 7433.0,7734.0 L 7397.0,7711.0 C 7373.0,7696.0 7353.0,7691.0 7336.0,7696.0 C 7311.0,7702.0 7310.0,7701.0 7310.0,7651.0 C 7310.0,7599.0 7302.0,7589.0 7280.0,7615.0 C 7262.0,7637.0 7254.0,7634.0 7240.0,7600.0 C 7227.0,7568.0 7210.0,7569.0 7210.0,7601.0 C 7210.0,7629.0 7190.0,7633.0 7129.0,7617.0 C 7083.0,7605.0 7075.0,7601.0 7078.0,7582.0 C 7080.0,7566.0 7076.0,7560.0 7062.0,7560.0 C 7045.0,7560.0 7040.0,7571.0 7031.0,7623.0 C 7015.0,7716.0 7002.0,7755.0 6978.0,7785.0 C 6960.0,7808.0 6952.0,7811.0 6921.0,7805.0 C 6901.0,7801.0 6875.0,7789.0 6862.0,7777.0 C 6843.0,7759.0 6836.0,7758.0 6819.0,7768.0 C 6802.0,7779.0 6796.0,7777.0 6775.0,7756.0 C 6750.0,7731.0 6741.0,7690.0 6760.0,7690.0 C 6766.0,7690.0 6770.0,7676.0 6770.0,7658.0 C 6770.0,7634.0 6760.0,7618.0 6724.0,7584.0 C 6689.0,7553.0 6676.0,7532.0 6670.0,7501.0 C 6666.0,7478.0 6667.0,7460.0 6671.0,7460.0 C 6687.0,7460.0 6680.0,7423.0 6661.0,7406.0 C 6651.0,7397.0 6640.0,7376.0 6637.0,7360.0 C 6629.0,7323.0 6605.0,7311.0 6527.0,7303.0 L 6464.0,7298.0 L 6468.0,7261.0 L 6471.0,7225.0 L 6443.0,7257.0 C 6428.0,7275.0 6403.0,7292.0 6388.0,7296.0 C 6362.0,7302.0 6360.0,7306.0 6360.0,7349.0 C 6359.0,7374.0 6354.0,7407.0 6347.0,7422.0 C 6332.0,7456.0 6221.0,7572.0 6210.0,7565.0 C 6201.0,7560.0 6150.0,7615.0 6150.0,7631.0 C 6150.0,7650.0 6109.0,7680.0 6084.0,7680.0 C 6070.0,7680.0 6046.0,7671.0 6032.0,7659.0 L 6006.0,7639.0 L 5987.0,7676.0 C 5970.0,7709.0 5966.0,7711.0 5958.0,7696.0 C 5949.0,7679.0 5947.0,7680.0 5925.0,7700.0 C 5906.0,7717.0 5895.0,7720.0 5870.0,7715.0 C 5848.0,7710.0 5835.0,7712.0 5830.0,7720.0 C 5821.0,7735.0 5770.0,7653.0 5770.0,7623.0 C 5770.0,7612.0 5777.0,7583.0 5785.0,7560.0 C 5793.0,7537.0 5800.0,7501.0 5800.0,7481.0 C 5800.0,7419.0 5825.0,7344.0 5864.0,7287.0 C 5897.0,7239.0 5900.0,7230.0 5889.0,7212.0 C 5878.0,7195.0 5879.0,7187.0 5894.0,7165.0 C 5907.0,7146.0 5914.0,7141.0 5920.0,7150.0 C 5935.0,7174.0 6003.0,7053.0 6021.0,6971.0 C 6030.0,6928.0 6028.0,6911.0 6009.0,6852.0 L 5987.0,6784.0 L 6009.0,6687.0 C 6035.0,6568.0 6035.0,6560.0 6011.0,6560.0 C 5991.0,6560.0 5980.0,6578.0 5980.0,6612.0 C 5980.0,6623.0 5965.0,6654.0 5947.0,6679.0 C 5922.0,6714.0 5912.0,6740.0 5907.0,6782.0 C 5904.0,6814.0 5894.0,6850.0 5886.0,6862.0 C 5875.0,6877.0 5870.0,6906.0 5870.0,6948.0 C 5870.0,7007.0 5868.0,7012.0 5840.0,7028.0 C 5817.0,7041.0 5806.0,7059.0 5791.0,7110.0 C 5762.0,7202.0 5746.0,7223.0 5706.0,7216.0 C 5680.0,7211.0 5669.0,7215.0 5651.0,7234.0 C 5639.0,7247.0 5616.0,7260.0 5600.0,7264.0 L 5571.0,7269.0 L 5573.0,7362.0 C 5575.0,7464.0 5556.0,7550.0 5537.0,7531.0 C 5531.0,7525.0 5506.0,7520.0 5482.0,7520.0 L 5438.0,7520.0 L 5464.0,7564.0 L 5490.0,7609.0 L 5465.0,7636.0 C 5451.0,7651.0 5440.0,7671.0 5440.0,7681.0 C 5440.0,7697.0 5437.0,7698.0 5413.0,7688.0 C 5397.0,7681.0 5376.0,7668.0 5364.0,7658.0 C 5338.0,7635.0 5316.0,7634.0 5325.0,7658.0 C 5328.0,7667.0 5337.0,7695.0 5343.0,7718.0 C 5353.0,7757.0 5353.0,7763.0 5335.0,7776.0 C 5303.0,7800.0 5280.0,7794.0 5280.0,7762.0 C 5280.0,7733.0 5228.0,7650.0 5211.0,7650.0 C 5205.0,7650.0 5205.0,7662.0 5210.0,7681.0 C 5224.0,7727.0 5208.0,7751.0 5169.0,7743.0 C 5120.0,7734.0 5084.0,7692.0 5067.0,7628.0 L 5052.0,7572.0 L 5086.0,7524.0 C 5104.0,7498.0 5117.0,7473.0 5114.0,7469.0 C 5108.0,7458.0 5074.0,7474.0 5044.0,7502.0 C 5023.0,7521.0 5023.0,7521.0 5017.0,7499.0 C 5011.0,7477.0 5011.0,7477.0 4978.0,7505.0 C 4949.0,7530.0 4940.0,7532.0 4892.0,7527.0 C 4862.0,7524.0 4817.0,7511.0 4792.0,7498.0 C 4739.0,7472.0 4742.0,7485.0 4756.0,7327.0 C 4760.0,7276.0 4757.0,7247.0 4745.0,7212.0 L 4728.0,7164.0 L 4758.0,7105.0 C 4774.0,7072.0 4793.0,7026.0 4800.0,7003.0 C 4812.0,6965.0 4811.0,6958.0 4796.0,6941.0 C 4783.0,6927.0 4780.0,6913.0 4785.0,6887.0 C 4790.0,6862.0 4787.0,6845.0 4776.0,6828.0 C 4767.0,6816.0 4760.0,6795.0 4760.0,6783.0 C 4760.0,6770.0 4751.0,6751.0 4739.0,6739.0 L 4718.0,6718.0 L 4673.0,6761.0 L 4628.0,6805.0 L 4635.0,6768.0 L 4642.0,6732.0 L 4587.0,6752.0 C 4527.0,6774.0 4510.0,6797.0 4510.0,6858.0 C 4510.0,6878.0 4497.0,6931.0 4482.0,6975.0 C 4457.0,7048.0 4452.0,7056.0 4410.0,7080.0 C 4385.0,7094.0 4356.0,7105.0 4346.0,7105.0 C 4333.0,7105.0 4324.0,7117.0 4315.0,7146.0 C 4308.0,7169.0 4290.0,7204.0 4275.0,7225.0 C 4253.0,7252.0 4250.0,7264.0 4259.0,7269.0 C 4274.0,7278.0 4263.0,7302.0 4211.0,7380.0 C 4194.0,7405.0 4180.0,7435.0 4180.0,7447.0 C 4180.0,7459.0 4176.0,7472.0 4170.0,7475.0 C 4165.0,7478.0 4160.0,7491.0 4160.0,7504.0 C 4160.0,7516.0 4147.0,7539.0 4130.0,7555.0 C 4114.0,7571.0 4100.0,7590.0 4100.0,7597.0 C 4100.0,7622.0 4050.0,7624.0 4018.0,7600.0 C 4001.0,7588.0 3970.0,7575.0 3949.0,7573.0 C 3923.0,7569.0 3903.0,7559.0 3890.0,7542.0 C 3874.0,7522.0 3867.0,7520.0 3855.0,7530.0 C 3835.0,7547.0 3817.0,7534.0 3830.0,7510.0 C 3837.0,7498.0 3835.0,7477.0 3825.0,7442.0 C 3811.0,7396.0 3811.0,7389.0 3830.0,7349.0 C 3841.0,7325.0 3850.0,7291.0 3850.0,7273.0 C 3850.0,7256.0 3866.0,7191.0 3885.0,7129.0 C 3905.0,7067.0 3920.0,6998.0 3919.0,6976.0 C 3919.0,6953.0 3930.0,6897.0 3944.0,6851.0 C 3975.0,6751.0 3976.0,6725.0 3950.0,6682.0 C 3939.0,6664.0 3930.0,6633.0 3930.0,6612.0 C 3929.0,6554.0 3911.0,6489.0 3885.0,6448.0 C 3867.0,6420.0 3862.0,6403.0 3866.0,6380.0 C 3874.0,6343.0 3851.0,6306.0 3839.0,6337.0 C 3835.0,6347.0 3831.0,6370.0 3831.0,6388.0 C 3830.0,6415.0 3826.0,6420.0 3805.0,6420.0 C 3764.0,6420.0 3758.0,6385.0 3792.0,6348.0 C 3807.0,6331.0 3820.0,6312.0 3820.0,6306.0 C 3820.0,6287.0 3762.0,6200.0 3744.0,6193.0 C 3721.0,6185.0 3662.0,6247.0 3649.0,6292.0 C 3638.0,6335.0 3625.0,6341.0 3616.0,6308.0 C 3612.0,6290.0 3608.0,6288.0 3598.0,6298.0 C 3589.0,6307.0 3589.0,6333.0 3598.0,6418.0 C 3614.0,6562.0 3613.0,6584.0 3592.0,6603.0 C 3575.0,6618.0 3572.0,6618.0 3544.0,6602.0 C 3528.0,6593.0 3476.0,6545.0 3429.0,6495.0 L 3345.0,6405.0 L 3316.0,6278.0 L 3287.0,6152.0 L 3325.0,6023.0 C 3345.0,5953.0 3364.0,5888.0 3367.0,5879.0 C 3372.0,5861.0 3339.0,5847.0 3314.0,5857.0 C 3294.0,5865.0 3266.0,5923.0 3245.0,6000.0 C 3235.0,6036.0 3222.0,6074.0 3217.0,6085.0 C 3197.0,6124.0 3192.0,6061.0 3207.0,5945.0 C 3219.0,5846.0 3219.0,5831.0 3204.0,5799.0 C 3195.0,5779.0 3191.0,5753.0 3194.0,5742.0 C 3198.0,5730.0 3196.0,5713.0 3189.0,5703.0 C 3180.0,5688.0 3183.0,5660.0 3203.0,5571.0 C 3229.0,5457.0 3229.0,5430.0 3205.0,5430.0 C 3197.0,5430.0 3189.0,5450.0 3185.0,5483.0 C 3177.0,5549.0 3156.0,5614.0 3113.0,5709.0 C 3082.0,5777.0 3080.0,5788.0 3089.0,5825.0 C 3096.0,5855.0 3096.0,5885.0 3088.0,5931.0 C 3082.0,5966.0 3076.0,6009.0 3076.0,6025.0 C 3075.0,6043.0 3066.0,6062.0 3054.0,6072.0 C 3042.0,6082.0 3027.0,6104.0 3020.0,6122.0 C 3012.0,6140.0 3006.0,6156.0 3004.0,6158.0 C 3003.0,6160.0 2969.0,6141.0 2927.0,6115.0 C 2861.0,6075.0 2820.0,6060.0 2820.0,6075.0 C 2820.0,6078.0 2852.0,6117.0 2891.0,6162.0 C 2982.0,6268.0 2992.0,6287.0 2988.0,6358.0 C 2985.0,6412.0 2984.0,6415.0 2957.0,6418.0 C 2934.0,6421.0 2920.0,6412.0 2883.0,6371.0 C 2856.0,6341.0 2832.0,6324.0 2824.0,6327.0 C 2800.0,6336.0 2808.0,6357.0 2856.0,6416.0 L 2902.0,6472.0 L 2873.0,6502.0 C 2844.0,6533.0 2848.0,6533.0 2745.0,6515.0 C 2701.0,6507.0 2650.0,6541.0 2650.0,6578.0 C 2650.0,6593.0 2643.0,6616.0 2634.0,6629.0 C 2618.0,6651.0 2618.0,6653.0 2634.0,6662.0 C 2672.0,6683.0 2645.0,6744.0 2577.0,6787.0 C 2543.0,6809.0 2539.0,6814.0 2554.0,6822.0 C 2585.0,6839.0 2623.0,6827.0 2645.0,6793.0 C 2656.0,6775.0 2678.0,6740.0 2694.0,6715.0 C 2725.0,6664.0 2740.0,6656.0 2816.0,6647.0 L 2867.0,6641.0 L 2879.0,6681.0 C 2886.0,6703.0 2898.0,6723.0 2906.0,6726.0 C 2955.0,6741.0 2955.0,6739.0 2925.0,6770.0 C 2903.0,6793.0 2894.0,6797.0 2883.0,6788.0 C 2873.0,6780.0 2865.0,6782.0 2850.0,6795.0 C 2823.0,6819.0 2825.0,6827.0 2859.0,6835.0 C 2896.0,6843.0 2977.0,6903.0 2984.0,6927.0 C 3005.0,7002.0 3003.0,7005.0 2958.0,7016.0 C 2911.0,7026.0 2904.0,7046.0 2949.0,7044.0 C 2972.0,7043.0 2980.0,7049.0 2994.0,7077.0 C 3015.0,7121.0 3015.0,7123.0 2984.0,7160.0 C 2967.0,7180.0 2954.0,7187.0 2946.0,7182.0 C 2937.0,7175.0 2859.0,7173.0 2840.0,7179.0 C 2837.0,7180.0 2849.0,7192.0 2865.0,7206.0 C 2895.0,7230.0 2895.0,7231.0 2869.0,7221.0 C 2851.0,7214.0 2839.0,7215.0 2831.0,7223.0 C 2823.0,7231.0 2811.0,7229.0 2785.0,7217.0 C 2765.0,7208.0 2743.0,7200.0 2734.0,7200.0 C 2721.0,7200.0 2692.0,7246.0 2701.0,7253.0 C 2713.0,7263.0 2910.0,7320.0 2939.0,7322.0 L 2973.0,7325.0 L 2945.0,7358.0 C 2921.0,7387.0 2912.0,7391.0 2886.0,7385.0 C 2779.0,7363.0 2750.0,7370.0 2750.0,7416.0 C 2750.0,7428.0 2745.0,7442.0 2740.0,7445.0 C 2720.0,7457.0 2743.0,7472.0 2771.0,7466.0 C 2805.0,7459.0 2806.0,7463.0 2780.0,7505.0 C 2761.0,7536.0 2758.0,7537.0 2729.0,7527.0 C 2705.0,7518.0 2700.0,7511.0 2705.0,7495.0 C 2724.0,7435.0 2723.0,7430.0 2679.0,7388.0 C 2629.0,7340.0 2615.0,7352.0 2655.0,7410.0 C 2677.0,7442.0 2680.0,7452.0 2670.0,7470.0 L 2658.0,7492.0 L 2644.0,7471.0 C 2622.0,7441.0 2615.0,7444.0 2593.0,7498.0 C 2577.0,7535.0 2575.0,7550.0 2584.0,7569.0 C 2592.0,7588.0 2591.0,7595.0 2575.0,7606.0 C 2557.0,7619.0 2557.0,7622.0 2573.0,7655.0 C 2595.0,7700.0 2594.0,7703.0 2569.0,7695.0 C 2550.0,7689.0 2548.0,7691.0 2554.0,7714.0 C 2559.0,7734.0 2556.0,7742.0 2543.0,7746.0 C 2533.0,7749.0 2517.0,7756.0 2506.0,7762.0 C 2493.0,7769.0 2485.0,7768.0 2480.0,7760.0 C 2475.0,7752.0 2463.0,7760.0 2444.0,7784.0 C 2412.0,7824.0 2396.0,7828.0 2368.0,7803.0 C 2332.0,7771.0 2337.0,7801.0 2374.0,7839.0 C 2406.0,7871.0 2410.0,7881.0 2401.0,7897.0 C 2380.0,7937.0 2365.0,7942.0 2325.0,7923.0 L 2287.0,7905.0 L 2267.0,7931.0 L 2248.0,7958.0 L 2219.0,7926.0 L 2191.0,7895.0 L 2200.0,7928.0 C 2210.0,7964.0 2205.0,7967.0 2171.0,7944.0 C 2150.0,7929.0 2147.0,7929.0 2133.0,7943.0 C 2120.0,7956.0 2119.0,7964.0 2129.0,7988.0 C 2139.0,8012.0 2139.0,8022.0 2128.0,8039.0 C 2117.0,8056.0 2117.0,8064.0 2129.0,8082.0 C 2141.0,8101.0 2140.0,8105.0 2123.0,8119.0 C 2112.0,8128.0 2096.0,8152.0 2086.0,8173.0 C 2077.0,8193.0 2063.0,8210.0 2055.0,8210.0 C 2025.0,8210.0 1989.0,8256.0 1967.0,8324.0 C 1955.0,8363.0 1938.0,8396.0 1930.0,8398.0 C 1918.0,8402.0 1917.0,8400.0 1928.0,8389.0 C 1945.0,8371.0 1943.0,8339.0 1924.0,8311.0 L 1908.0,8288.0 L 1844.0,8351.0 C 1786.0,8408.0 1780.0,8412.0 1780.0,8390.0 C 1779.0,8375.0 1762.0,8346.0 1735.0,8317.0 L 1691.0,8270.0 L 1670.0,8309.0 C 1641.0,8360.0 1541.0,8412.0 1514.0,8389.0 C 1498.0,8377.0 1497.0,8377.0 1503.0,8393.0 C 1508.0,8406.0 1504.0,8410.0 1488.0,8410.0 C 1471.0,8410.0 1469.0,8407.0 1478.0,8398.0 C 1490.0,8386.0 1481.0,8360.0 1452.0,8327.0 C 1438.0,8311.0 1436.0,8311.0 1418.0,8327.0 C 1404.0,8340.0 1397.0,8341.0 1388.0,8332.0 C 1379.0,8323.0 1380.0,8317.0 1395.0,8307.0 C 1416.0,8291.0 1408.0,8270.0 1380.0,8270.0 C 1367.0,8270.0 1360.0,8278.0 1358.0,8298.0 C 1356.0,8317.0 1349.0,8326.0 1333.0,8328.0 C 1305.0,8332.0 1304.0,8326.0 1331.0,8284.0 C 1345.0,8260.0 1359.0,8250.0 1376.0,8250.0 C 1397.0,8250.0 1400.0,8246.0 1400.0,8212.0 C 1400.0,8191.0 1405.0,8169.0 1412.0,8162.0 C 1421.0,8153.0 1417.0,8150.0 1395.0,8150.0 C 1378.0,8150.0 1357.0,8143.0 1346.0,8135.0 C 1330.0,8123.0 1323.0,8123.0 1289.0,8141.0 C 1243.0,8164.0 1238.0,8152.0 1277.0,8115.0 C 1323.0,8071.0 1378.0,8038.0 1404.0,8038.0 C 1417.0,8038.0 1448.0,8045.0 1473.0,8055.0 C 1507.0,8068.0 1519.0,8078.0 1524.0,8098.0 C 1527.0,8113.0 1548.0,8140.0 1570.0,8158.0 C 1605.0,8187.0 1611.0,8189.0 1617.0,8174.0 C 1621.0,8162.0 1615.0,8149.0 1597.0,8134.0 C 1570.0,8111.0 1562.0,8076.0 1580.0,8065.0 C 1596.0,8055.0 1640.0,8087.0 1658.0,8122.0 C 1686.0,8173.0 1707.0,8190.0 1745.0,8190.0 C 1786.0,8190.0 1791.0,8174.0 1755.0,8158.0 C 1740.0,8151.0 1728.0,8135.0 1724.0,8116.0 C 1721.0,8099.0 1711.0,8073.0 1704.0,8058.0 C 1691.0,8033.0 1692.0,8031.0 1722.0,8021.0 C 1775.0,8002.0 1798.0,8008.0 1841.0,8050.0 C 1885.0,8092.0 1900.0,8094.0 1900.0,8056.0 C 1900.0,8041.0 1887.0,8023.0 1865.0,8006.0 C 1846.0,7991.0 1830.0,7975.0 1830.0,7971.0 C 1830.0,7953.0 1861.0,7951.0 1901.0,7965.0 C 1949.0,7982.0 1996.0,7984.0 2005.0,7970.0 C 2013.0,7957.0 1872.0,7887.0 1849.0,7893.0 C 1827.0,7899.0 1826.0,7896.0 1842.0,7870.0 C 1852.0,7855.0 1852.0,7848.0 1842.0,7838.0 C 1831.0,7827.0 1823.0,7831.0 1801.0,7856.0 C 1783.0,7876.0 1759.0,7890.0 1734.0,7894.0 C 1713.0,7898.0 1687.0,7908.0 1676.0,7916.0 C 1647.0,7936.0 1586.0,7933.0 1534.0,7910.0 C 1510.0,7899.0 1478.0,7885.0 1464.0,7880.0 C 1442.0,7871.0 1439.0,7866.0 1445.0,7842.0 C 1462.0,7773.0 1532.0,7702.0 1612.0,7675.0 C 1690.0,7647.0 1815.0,7582.0 1827.0,7561.0 C 1845.0,7533.0 1900.0,7524.0 1938.0,7544.0 C 1982.0,7567.0 1992.0,7545.0 1954.0,7511.0 C 1938.0,7496.0 1919.0,7467.0 1913.0,7446.0 C 1902.0,7410.0 1903.0,7406.0 1926.0,7388.0 C 1960.0,7361.0 1969.0,7340.0 1986.0,7253.0 C 1994.0,7211.0 2007.0,7169.0 2015.0,7160.0 C 2034.0,7138.0 2034.0,7116.0 2015.0,7124.0 C 2004.0,7128.0 2000.0,7122.0 2000.0,7102.0 C 2000.0,7055.0 1950.0,6969.0 1881.0,6899.0 C 1810.0,6828.0 1761.0,6797.0 1728.0,6802.0 C 1711.0,6804.0 1718.0,6813.0 1764.0,6844.0 C 1872.0,6918.0 1920.0,7001.0 1920.0,7115.0 C 1920.0,7178.0 1918.0,7186.0 1898.0,7195.0 C 1886.0,7201.0 1873.0,7216.0 1869.0,7230.0 C 1865.0,7244.0 1862.0,7249.0 1861.0,7241.0 C 1860.0,7233.0 1851.0,7209.0 1841.0,7186.0 C 1802.0,7102.0 1780.0,7041.0 1780.0,7015.0 C 1780.0,6985.0 1754.0,6930.0 1740.0,6930.0 C 1723.0,6930.0 1729.0,6973.0 1759.0,7078.0 C 1804.0,7234.0 1805.0,7252.0 1778.0,7309.0 C 1766.0,7337.0 1749.0,7359.0 1742.0,7360.0 C 1734.0,7360.0 1721.0,7378.0 1712.0,7400.0 C 1699.0,7432.0 1691.0,7440.0 1676.0,7436.0 C 1665.0,7433.0 1650.0,7436.0 1643.0,7442.0 C 1636.0,7448.0 1630.0,7451.0 1630.0,7449.0 C 1629.0,7447.0 1625.0,7388.0 1621.0,7318.0 C 1613.0,7208.0 1608.0,7184.0 1585.0,7141.0 C 1542.0,7064.0 1525.0,7095.0 1555.0,7194.0 C 1563.0,7221.0 1570.0,7262.0 1570.0,7284.0 L 1570.0,7325.0 L 1532.0,7258.0 C 1512.0,7222.0 1478.0,7172.0 1458.0,7148.0 C 1427.0,7112.0 1420.0,7108.0 1414.0,7123.0 C 1410.0,7135.0 1421.0,7158.0 1450.0,7196.0 C 1490.0,7249.0 1491.0,7252.0 1475.0,7270.0 C 1458.0,7289.0 1458.0,7301.0 1476.0,7373.0 C 1486.0,7414.0 1469.0,7405.0 1427.0,7347.0 C 1407.0,7319.0 1372.0,7275.0 1350.0,7250.0 C 1290.0,7181.0 1298.0,7229.0 1362.0,7326.0 C 1410.0,7398.0 1415.0,7410.0 1415.0,7462.0 C 1414.0,7503.0 1409.0,7524.0 1396.0,7539.0 C 1385.0,7551.0 1374.0,7560.0 1371.0,7560.0 C 1367.0,7560.0 1352.0,7536.0 1338.0,7507.0 C 1315.0,7459.0 1308.0,7453.0 1281.0,7453.0 C 1256.0,7453.0 1250.0,7457.0 1250.0,7475.0 C 1250.0,7488.0 1260.0,7504.0 1272.0,7512.0 C 1289.0,7524.0 1295.0,7537.0 1295.0,7568.0 C 1295.0,7615.0 1272.0,7645.0 1220.0,7666.0 C 1201.0,7674.0 1178.0,7693.0 1169.0,7709.0 C 1157.0,7730.0 1136.0,7743.0 1089.0,7759.0 C 1012.0,7785.0 992.0,7785.0 960.0,7760.0 C 946.0,7749.0 930.0,7740.0 924.0,7740.0 C 913.0,7740.0 870.0,7698.0 870.0,7687.0 C 870.0,7683.0 882.0,7680.0 898.0,7680.0 C 940.0,7680.0 984.0,7651.0 1029.0,7594.0 C 1052.0,7565.0 1070.0,7539.0 1070.0,7536.0 C 1070.0,7524.0 1015.0,7558.0 968.0,7599.0 C 919.0,7643.0 910.0,7646.0 882.0,7630.0 C 873.0,7625.0 852.0,7615.0 836.0,7610.0 L 807.0,7599.0 L 840.0,7565.0 C 859.0,7546.0 900.0,7511.0 932.0,7488.0 C 964.0,7465.0 990.0,7441.0 990.0,7436.0 C 990.0,7431.0 997.0,7418.0 1006.0,7408.0 C 1038.0,7374.0 995.0,7377.0 919.0,7416.0 C 835.0,7458.0 747.0,7490.0 716.0,7490.0 C 704.0,7490.0 686.0,7478.0 676.0,7463.0 C 659.0,7440.0 658.0,7432.0 669.0,7392.0 C 675.0,7368.0 692.0,7333.0 707.0,7314.0 C 747.0,7261.0 909.0,7130.0 934.0,7130.0 C 946.0,7130.0 971.0,7114.0 990.0,7096.0 C 1013.0,7071.0 1038.0,7058.0 1072.0,7051.0 C 1127.0,7039.0 1240.0,6985.0 1240.0,6970.0 C 1240.0,6953.0 1184.0,6959.0 1158.0,6980.0 C 1142.0,6992.0 1109.0,7002.0 1065.0,7006.0 C 1016.0,7011.0 991.0,7019.0 969.0,7037.0 C 947.0,7056.0 934.0,7060.0 908.0,7055.0 C 880.0,7050.0 860.0,7057.0 780.0,7104.0 C 728.0,7135.0 680.0,7160.0 673.0,7160.0 C 649.0,7160.0 620.0,7121.0 620.0,7088.0 C 620.0,7049.0 672.0,6943.0 718.0,6890.0 C 762.0,6838.0 895.0,6784.0 943.0,6798.0 C 961.0,6804.0 1002.0,6809.0 1035.0,6810.0 C 1136.0,6813.0 1144.0,6814.0 1177.0,6838.0 C 1214.0,6864.0 1237.0,6861.0 1263.0,6825.0 L 1280.0,6801.0 L 1245.0,6794.0 C 1210.0,6788.0 1210.0,6787.0 1225.0,6764.0 C 1246.0,6731.0 1231.0,6725.0 1120.0,6724.0 C 1003.0,6724.0 930.0,6712.0 930.0,6695.0 C 930.0,6680.0 980.0,6636.0 1020.0,6615.0 C 1043.0,6603.0 1058.0,6603.0 1104.0,6612.0 C 1134.0,6619.0 1163.0,6620.0 1167.0,6616.0 C 1177.0,6606.0 1142.0,6580.0 1118.0,6580.0 C 1108.0,6580.0 1100.0,6573.0 1100.0,6565.0 C 1100.0,6555.0 1090.0,6550.0 1070.0,6550.0 C 1040.0,6550.0 1040.0,6550.0 1056.0,6524.0 C 1072.0,6501.0 1072.0,6498.0 1057.0,6482.0 C 1042.0,6467.0 1039.0,6468.0 1016.0,6489.0 C 995.0,6509.0 992.0,6509.0 986.0,6494.0 C 981.0,6481.0 977.0,6479.0 968.0,6488.0 C 950.0,6506.0 944.0,6503.0 930.0,6470.0 C 923.0,6453.0 910.0,6440.0 900.0,6440.0 C 876.0,6440.0 866.0,6494.0 884.0,6528.0 C 901.0,6560.0 886.0,6600.0 857.0,6600.0 C 842.0,6600.0 839.0,6605.0 844.0,6624.0 C 849.0,6646.0 842.0,6652.0 756.0,6694.0 C 704.0,6719.0 649.0,6751.0 634.0,6765.0 C 614.0,6784.0 603.0,6787.0 589.0,6780.0 C 565.0,6767.0 560.0,6767.0 566.0,6783.0 C 571.0,6797.0 555.0,6814.0 520.0,6835.0 C 511.0,6840.0 485.0,6858.0 462.0,6873.0 C 429.0,6897.0 418.0,6900.0 401.0,6890.0 C 374.0,6876.0 373.0,6832.0 398.0,6753.0 C 428.0,6658.0 450.0,6633.0 567.0,6556.0 C 642.0,6507.0 678.0,6476.0 684.0,6458.0 C 698.0,6419.0 684.0,6412.0 652.0,6442.0 C 592.0,6499.0 529.0,6530.0 473.0,6530.0 L 421.0,6530.0 L 448.0,6485.0 C 463.0,6461.0 478.0,6440.0 481.0,6440.0 C 485.0,6440.0 519.0,6409.0 557.0,6372.0 C 614.0,6315.0 634.0,6302.0 669.0,6296.0 C 705.0,6290.0 710.0,6287.0 700.0,6275.0 C 693.0,6267.0 680.0,6260.0 670.0,6260.0 C 660.0,6260.0 647.0,6253.0 640.0,6245.0 C 633.0,6237.0 624.0,6230.0 619.0,6230.0 C 601.0,6230.0 530.0,6303.0 530.0,6321.0 C 530.0,6336.0 523.0,6340.0 499.0,6340.0 C 457.0,6340.0 434.0,6354.0 368.0,6418.0 C 327.0,6458.0 294.0,6480.0 250.0,6496.0 C 195.0,6516.0 190.0,6516.0 190.0,6500.0 C 190.0,6491.0 181.0,6475.0 170.0,6465.0 C 154.0,6451.0 150.0,6434.0 150.0,6390.0 C 150.0,6328.0 142.0,6316.0 96.0,6304.0 C 70.0,6298.0 1.0,6235.0 0.0,6217.0 C 0.0,6213.0 11.0,6205.0 24.0,6198.0 C 43.0,6190.0 58.0,6191.0 89.0,6204.0 C 115.0,6214.0 166.0,6221.0 227.0,6222.0 C 334.0,6225.0 375.0,6212.0 416.0,6163.0 C 435.0,6141.0 440.0,6140.0 458.0,6151.0 C 475.0,6162.0 482.0,6161.0 505.0,6146.0 C 528.0,6131.0 530.0,6124.0 524.0,6097.0 C 510.0,6034.0 512.0,6027.0 554.0,6017.0 C 584.0,6010.0 612.0,6012.0 667.0,6025.0 C 740.0,6042.0 741.0,6042.0 771.0,6096.0 C 800.0,6146.0 803.0,6149.0 833.0,6143.0 C 851.0,6140.0 867.0,6136.0 869.0,6134.0 C 871.0,6132.0 909.0,6149.0 953.0,6171.0 C 1036.0,6213.0 1036.0,6213.0 1133.0,6190.0 C 1189.0,6176.0 1203.0,6180.0 1225.0,6213.0 C 1239.0,6236.0 1239.0,6241.0 1225.0,6278.0 C 1210.0,6314.0 1210.0,6321.0 1223.0,6347.0 C 1231.0,6362.0 1247.0,6384.0 1259.0,6394.0 C 1280.0,6413.0 1280.0,6413.0 1280.0,6384.0 C 1280.0,6344.0 1289.0,6334.0 1337.0,6320.0 C 1373.0,6309.0 1383.0,6309.0 1404.0,6323.0 C 1418.0,6332.0 1431.0,6353.0 1435.0,6372.0 C 1446.0,6427.0 1461.0,6470.0 1470.0,6470.0 C 1474.0,6470.0 1486.0,6450.0 1496.0,6426.0 C 1514.0,6384.0 1516.0,6382.0 1532.0,6397.0 C 1544.0,6408.0 1550.0,6428.0 1550.0,6457.0 C 1550.0,6480.0 1553.0,6500.0 1556.0,6500.0 C 1559.0,6500.0 1571.0,6489.0 1582.0,6475.0 C 1608.0,6442.0 1620.0,6443.0 1620.0,6480.0 C 1620.0,6514.0 1634.0,6518.0 1662.0,6493.0 C 1679.0,6478.0 1682.0,6478.0 1704.0,6499.0 C 1725.0,6518.0 1728.0,6519.0 1740.0,6505.0 C 1751.0,6492.0 1748.0,6483.0 1720.0,6449.0 C 1689.0,6410.0 1688.0,6407.0 1700.0,6363.0 C 1706.0,6338.0 1719.0,6303.0 1728.0,6286.0 L 1745.0,6255.0 L 1748.0,6300.0 C 1750.0,6324.0 1756.0,6350.0 1761.0,6357.0 C 1767.0,6364.0 1768.0,6393.0 1764.0,6429.0 C 1761.0,6463.0 1761.0,6490.0 1764.0,6490.0 C 1780.0,6490.0 1809.0,6401.0 1808.0,6356.0 C 1807.0,6299.0 1816.0,6287.0 1830.0,6326.0 C 1839.0,6347.0 1838.0,6376.0 1830.0,6433.0 C 1820.0,6505.0 1822.0,6530.0 1838.0,6530.0 C 1865.0,6530.0 1900.0,6395.0 1900.0,6293.0 C 1900.0,6228.0 1905.0,6221.0 1942.0,6241.0 C 1959.0,6250.0 1961.0,6258.0 1955.0,6296.0 C 1948.0,6345.0 1959.0,6354.0 1980.0,6315.0 C 1987.0,6301.0 1996.0,6290.0 2000.0,6290.0 C 2003.0,6290.0 2021.0,6310.0 2038.0,6335.0 C 2070.0,6380.0 2090.0,6386.0 2090.0,6351.0 C 2090.0,6341.0 2080.0,6321.0 2069.0,6306.0 C 2045.0,6276.0 2049.0,6265.0 2078.0,6274.0 C 2114.0,6286.0 2149.0,6320.0 2168.0,6363.0 C 2181.0,6392.0 2200.0,6412.0 2228.0,6428.0 C 2251.0,6441.0 2270.0,6448.0 2270.0,6445.0 C 2270.0,6441.0 2256.0,6421.0 2240.0,6400.0 C 2223.0,6379.0 2199.0,6337.0 2185.0,6307.0 C 2159.0,6248.0 2129.0,6220.0 2093.0,6220.0 C 2058.0,6220.0 1990.0,6189.0 1990.0,6174.0 C 1990.0,6166.0 1999.0,6160.0 2010.0,6160.0 C 2021.0,6160.0 2047.0,6144.0 2069.0,6125.0 C 2090.0,6106.0 2112.0,6090.0 2118.0,6090.0 C 2124.0,6090.0 2130.0,6085.0 2132.0,6078.0 C 2138.0,6060.0 2155.0,6075.0 2193.0,6133.0 C 2217.0,6169.0 2227.0,6193.0 2223.0,6210.0 C 2218.0,6238.0 2235.0,6290.0 2249.0,6290.0 C 2254.0,6290.0 2269.0,6273.0 2281.0,6253.0 C 2294.0,6233.0 2306.0,6222.0 2308.0,6228.0 C 2315.0,6251.0 2338.0,6240.0 2385.0,6189.0 C 2414.0,6158.0 2430.0,6133.0 2426.0,6124.0 C 2423.0,6115.0 2424.0,6112.0 2430.0,6115.0 C 2436.0,6119.0 2465.0,6111.0 2495.0,6099.0 L 2550.0,6076.0 L 2581.0,6099.0 C 2608.0,6119.0 2616.0,6121.0 2638.0,6110.0 L 2665.0,6098.0 L 2630.0,6069.0 C 2611.0,6053.0 2568.0,6027.0 2535.0,6010.0 L 2475.0,5981.0 L 2458.0,6002.0 C 2444.0,6021.0 2440.0,6022.0 2425.0,6010.0 C 2416.0,6003.0 2411.0,5988.0 2413.0,5978.0 C 2416.0,5967.0 2413.0,5960.0 2404.0,5960.0 C 2396.0,5960.0 2390.0,5953.0 2390.0,5945.0 C 2390.0,5936.0 2378.0,5925.0 2364.0,5920.0 C 2349.0,5914.0 2327.0,5901.0 2314.0,5891.0 C 2301.0,5880.0 2281.0,5874.0 2271.0,5877.0 C 2248.0,5883.0 2220.0,5847.0 2227.0,5821.0 C 2230.0,5807.0 2223.0,5800.0 2199.0,5791.0 C 2182.0,5785.0 2159.0,5780.0 2149.0,5780.0 C 2140.0,5780.0 2118.0,5768.0 2101.0,5754.0 C 2078.0,5735.0 2063.0,5730.0 2045.0,5734.0 C 2031.0,5738.0 2020.0,5736.0 2020.0,5731.0 C 2020.0,5726.0 2007.0,5708.0 1990.0,5692.0 C 1974.0,5675.0 1960.0,5655.0 1960.0,5646.0 C 1960.0,5638.0 1950.0,5630.0 1938.0,5628.0 C 1926.0,5626.0 1907.0,5610.0 1897.0,5592.0 L 1877.0,5559.0 L 1905.0,5530.0 L 1932.0,5502.0 L 1901.0,5484.0 C 1885.0,5474.0 1873.0,5463.0 1876.0,5458.0 C 1885.0,5445.0 1929.0,5449.0 1955.0,5466.0 C 1978.0,5481.0 1981.0,5480.0 2022.0,5447.0 C 2079.0,5402.0 2102.0,5390.0 2140.0,5390.0 C 2157.0,5390.0 2193.0,5379.0 2221.0,5364.0 C 2271.0,5339.0 2272.0,5339.0 2323.0,5356.0 C 2387.0,5377.0 2484.0,5469.0 2497.0,5521.0 C 2505.0,5551.0 2510.0,5555.0 2544.0,5558.0 C 2624.0,5565.0 2646.0,5489.0 2590.0,5395.0 C 2574.0,5368.0 2560.0,5337.0 2560.0,5328.0 C 2560.0,5319.0 2549.0,5298.0 2535.0,5282.0 L 2511.0,5253.0 L 2535.0,5242.0 C 2566.0,5228.0 2567.0,5199.0 2537.0,5165.0 C 2517.0,5142.0 2512.0,5140.0 2483.0,5150.0 C 2460.0,5158.0 2446.0,5158.0 2431.0,5151.0 C 2416.0,5143.0 2395.0,5144.0 2348.0,5155.0 C 2271.0,5173.0 2233.0,5174.0 2227.0,5158.0 C 2224.0,5148.0 2218.0,5148.0 2199.0,5156.0 C 2186.0,5162.0 2150.0,5175.0 2119.0,5184.0 C 2088.0,5193.0 2057.0,5207.0 2050.0,5215.0 C 2040.0,5228.0 2034.0,5227.0 2006.0,5213.0 C 1985.0,5201.0 1954.0,5196.0 1908.0,5197.0 C 1843.0,5198.0 1840.0,5197.0 1810.0,5164.0 C 1774.0,5123.0 1774.0,5121.0 1801.0,5075.0 C 1828.0,5030.0 1818.0,5018.0 1782.0,5053.0 C 1766.0,5068.0 1749.0,5080.0 1743.0,5080.0 C 1736.0,5080.0 1722.0,5094.0 1710.0,5111.0 C 1697.0,5128.0 1682.0,5139.0 1674.0,5136.0 C 1655.0,5129.0 1656.0,5154.0 1675.0,5170.0 C 1691.0,5183.0 1696.0,5230.0 1681.0,5230.0 C 1676.0,5230.0 1667.0,5223.0 1660.0,5215.0 C 1652.0,5205.0 1639.0,5202.0 1627.0,5206.0 C 1615.0,5210.0 1604.0,5207.0 1599.0,5199.0 C 1585.0,5176.0 1589.0,5170.0 1615.0,5170.0 C 1664.0,5170.0 1639.0,5139.0 1569.0,5115.0 C 1545.0,5106.0 1516.0,5090.0 1504.0,5079.0 C 1485.0,5062.0 1482.0,5061.0 1470.0,5075.0 C 1451.0,5098.0 1423.0,5093.0 1404.0,5065.0 C 1388.0,5040.0 1388.0,5038.0 1410.0,5015.0 C 1433.0,4991.0 1433.0,4989.0 1417.0,4955.0 C 1397.0,4912.0 1376.0,4909.0 1382.0,4949.0 C 1385.0,4968.0 1382.0,4976.0 1374.0,4973.0 C 1368.0,4971.0 1360.0,4979.0 1357.0,4990.0 C 1347.0,5028.0 1330.0,5001.0 1330.0,4949.0 C 1330.0,4891.0 1317.0,4887.0 1289.0,4935.0 C 1277.0,4954.0 1264.0,4970.0 1259.0,4970.0 C 1254.0,4970.0 1261.0,4992.0 1275.0,5020.0 C 1308.0,5085.0 1307.0,5093.0 1265.0,5106.0 C 1214.0,5122.0 1203.0,5105.0 1220.0,5036.0 C 1244.0,4934.0 1213.0,4894.0 1136.0,4932.0 C 1095.0,4951.0 1092.0,4956.0 1097.0,4982.0 C 1101.0,5003.0 1099.0,5010.0 1087.0,5010.0 C 1077.0,5010.0 1074.0,5004.0 1077.0,4991.0 C 1081.0,4973.0 1077.0,4972.0 1023.0,4976.0 C 966.0,4981.0 965.0,4980.0 945.0,4948.0 C 933.0,4929.0 911.0,4911.0 892.0,4904.0 C 874.0,4899.0 853.0,4884.0 844.0,4872.0 C 817.0,4833.0 726.0,4851.0 668.0,4907.0 C 642.0,4932.0 638.0,4933.0 600.0,4921.0 C 576.0,4914.0 544.0,4893.0 522.0,4870.0 C 502.0,4848.0 477.0,4830.0 468.0,4830.0 C 447.0,4830.0 447.0,4829.0 461.0,4770.0 C 467.0,4745.0 480.0,4715.0 491.0,4704.0 C 502.0,4692.0 524.0,4655.0 540.0,4622.0 C 562.0,4575.0 578.0,4556.0 613.0,4536.0 L 658.0,4509.0 L 707.0,4529.0 C 734.0,4539.0 767.0,4546.0 782.0,4543.0 C 813.0,4537.0 823.0,4550.0 830.0,4610.0 C 834.0,4650.0 839.0,4657.0 874.0,4674.0 C 912.0,4693.0 913.0,4693.0 956.0,4671.0 C 981.0,4660.0 1006.0,4650.0 1013.0,4650.0 C 1019.0,4650.0 1035.0,4668.0 1048.0,4690.0 C 1069.0,4727.0 1074.0,4730.0 1113.0,4730.0 C 1158.0,4730.0 1339.0,4684.0 1355.0,4669.0 C 1369.0,4655.0 1396.0,4658.0 1410.0,4675.0 C 1420.0,4687.0 1426.0,4687.0 1449.0,4676.0 C 1484.0,4658.0 1615.0,4659.0 1659.0,4678.0 C 1682.0,4687.0 1696.0,4688.0 1698.0,4682.0 C 1700.0,4676.0 1707.0,4673.0 1714.0,4676.0 C 1720.0,4678.0 1736.0,4667.0 1748.0,4650.0 C 1761.0,4634.0 1775.0,4620.0 1780.0,4620.0 C 1786.0,4620.0 1803.0,4634.0 1819.0,4652.0 C 1843.0,4679.0 1850.0,4682.0 1863.0,4672.0 C 1874.0,4662.0 1880.0,4663.0 1890.0,4675.0 C 1900.0,4687.0 1906.0,4688.0 1916.0,4679.0 C 1927.0,4670.0 1933.0,4670.0 1944.0,4679.0 C 1965.0,4696.0 1981.0,4670.0 1974.0,4631.0 C 1968.0,4602.0 1969.0,4600.0 1998.0,4600.0 C 2044.0,4600.0 2060.0,4590.0 2060.0,4564.0 C 2060.0,4533.0 2022.0,4457.0 2011.0,4465.0 C 2006.0,4468.0 1999.0,4463.0 1996.0,4454.0 C 1985.0,4426.0 1989.0,4419.0 2009.0,4429.0 C 2025.0,4438.0 2029.0,4436.0 2034.0,4415.0 C 2038.0,4401.0 2036.0,4381.0 2030.0,4371.0 C 2023.0,4357.0 2024.0,4350.0 2033.0,4347.0 C 2040.0,4344.0 2035.0,4334.0 2017.0,4320.0 L 1989.0,4298.0 L 2010.0,4275.0 C 2022.0,4262.0 2031.0,4244.0 2030.0,4234.0 C 2020.0,4145.0 2039.0,4119.0 2081.0,4161.0 C 2102.0,4182.0 2102.0,4182.0 2114.0,4162.0 C 2120.0,4152.0 2133.0,4131.0 2143.0,4117.0 C 2159.0,4094.0 2160.0,4086.0 2149.0,4057.0 C 2139.0,4028.0 2139.0,4019.0 2152.0,4001.0 C 2161.0,3989.0 2165.0,3969.0 2162.0,3958.0 C 2158.0,3939.0 2160.0,3938.0 2181.0,3945.0 C 2194.0,3949.0 2217.0,3953.0 2231.0,3954.0 C 2255.0,3955.0 2260.0,3962.0 2279.0,4021.0 C 2291.0,4058.0 2298.0,4095.0 2294.0,4104.0 C 2286.0,4124.0 2307.0,4150.0 2331.0,4150.0 C 2347.0,4150.0 2348.0,4146.0 2338.0,4119.0 C 2323.0,4076.0 2334.0,4073.0 2375.0,4109.0 C 2395.0,4126.0 2415.0,4140.0 2420.0,4140.0 C 2425.0,4140.0 2449.0,4154.0 2473.0,4171.0 C 2498.0,4188.0 2535.0,4204.0 2560.0,4207.0 L 2604.0,4213.0 L 2567.0,4168.0 C 2535.0,4128.0 2532.0,4121.0 2545.0,4110.0 C 2565.0,4093.0 2564.0,4080.0 2543.0,4080.0 C 2533.0,4080.0 2509.0,4074.0 2490.0,4067.0 C 2391.0,4030.0 2371.0,4006.0 2340.0,3885.0 C 2325.0,3828.0 2323.0,3803.0 2331.0,3788.0 C 2337.0,3778.0 2344.0,3770.0 2348.0,3772.0 C 2352.0,3774.0 2367.0,3782.0 2382.0,3789.0 C 2398.0,3797.0 2416.0,3799.0 2427.0,3795.0 C 2437.0,3790.0 2452.0,3786.0 2460.0,3786.0 C 2469.0,3785.0 2475.0,3775.0 2475.0,3760.0 C 2475.0,3734.0 2453.0,3724.0 2395.0,3720.0 C 2373.0,3719.0 2355.0,3707.0 2328.0,3674.0 C 2307.0,3649.0 2290.0,3625.0 2290.0,3621.0 C 2290.0,3617.0 2306.0,3605.0 2325.0,3595.0 C 2357.0,3577.0 2361.0,3577.0 2393.0,3592.0 C 2430.0,3610.0 2570.0,3723.0 2583.0,3746.0 C 2587.0,3754.0 2614.0,3772.0 2642.0,3786.0 C 2688.0,3809.0 2698.0,3811.0 2730.0,3801.0 C 2751.0,3795.0 2786.0,3790.0 2808.0,3790.0 C 2830.0,3790.0 2871.0,3785.0 2899.0,3778.0 L 2949.0,3767.0 L 2909.0,3727.0 C 2871.0,3688.0 2868.0,3688.0 2819.0,3694.0 C 2791.0,3698.0 2758.0,3707.0 2746.0,3715.0 C 2727.0,3728.0 2721.0,3727.0 2690.0,3708.0 C 2656.0,3687.0 2655.0,3687.0 2678.0,3677.0 C 2720.0,3658.0 2701.0,3644.0 2641.0,3649.0 C 2601.0,3653.0 2560.0,3629.0 2539.0,3591.0 C 2528.0,3571.0 2503.0,3530.0 2484.0,3500.0 C 2445.0,3438.0 2442.0,3425.0 2470.0,3442.0 C 2496.0,3458.0 2525.0,3441.0 2524.0,3411.0 C 2524.0,3395.0 2530.0,3390.0 2549.0,3389.0 C 2563.0,3389.0 2584.0,3385.0 2595.0,3381.0 C 2614.0,3373.0 2614.0,3373.0 2592.0,3361.0 C 2563.0,3345.0 2564.0,3330.0 2595.0,3330.0 C 2638.0,3330.0 2623.0,3303.0 2565.0,3275.0 C 2535.0,3260.0 2510.0,3246.0 2510.0,3245.0 C 2510.0,3243.0 2517.0,3234.0 2526.0,3226.0 C 2540.0,3211.0 2540.0,3210.0 2522.0,3210.0 C 2511.0,3210.0 2495.0,3221.0 2486.0,3235.0 C 2472.0,3256.0 2466.0,3258.0 2443.0,3249.0 C 2424.0,3242.0 2415.0,3243.0 2409.0,3251.0 C 2405.0,3258.0 2394.0,3260.0 2384.0,3256.0 C 2368.0,3250.0 2371.0,3244.0 2405.0,3215.0 C 2438.0,3187.0 2441.0,3181.0 2425.0,3180.0 C 2409.0,3180.0 2408.0,3178.0 2419.0,3171.0 C 2442.0,3156.0 2414.0,3129.0 2385.0,3136.0 C 2357.0,3143.0 2345.0,3127.0 2365.0,3110.0 C 2387.0,3092.0 2383.0,3074.0 2354.0,3051.0 C 2337.0,3037.0 2313.0,3030.0 2287.0,3030.0 C 2253.0,3030.0 2239.0,3023.0 2208.0,2993.0 L 2171.0,2957.0 L 2137.0,2974.0 C 2104.0,2992.0 2103.0,2992.0 2051.0,2966.0 C 2012.0,2946.0 1995.0,2930.0 1984.0,2903.0 C 1968.0,2866.0 1969.0,2866.0 1886.0,2886.0 C 1867.0,2891.0 1855.0,2888.0 1849.0,2879.0 C 1835.0,2858.0 1823.0,2883.0 1815.0,2949.0 C 1809.0,2996.0 1801.0,3013.0 1765.0,3054.0 C 1707.0,3119.0 1690.0,3113.0 1690.0,3028.0 C 1690.0,2982.0 1685.0,2957.0 1670.0,2935.0 C 1659.0,2919.0 1650.0,2900.0 1650.0,2894.0 C 1650.0,2871.0 1679.0,2847.0 1715.0,2841.0 C 1762.0,2834.0 1771.0,2814.0 1735.0,2798.0 C 1721.0,2792.0 1702.0,2772.0 1695.0,2756.0 C 1687.0,2739.0 1675.0,2718.0 1669.0,2709.0 C 1659.0,2696.0 1661.0,2687.0 1679.0,2662.0 C 1699.0,2633.0 1700.0,2629.0 1685.0,2601.0 C 1677.0,2584.0 1670.0,2565.0 1670.0,2557.0 C 1670.0,2532.0 1700.0,2529.0 1728.0,2550.0 C 1752.0,2567.0 1760.0,2568.0 1799.0,2558.0 C 1837.0,2548.0 1845.0,2549.0 1855.0,2563.0 C 1862.0,2573.0 1873.0,2580.0 1881.0,2580.0 C 1889.0,2581.0 1906.0,2587.0 1920.0,2595.0 C 1937.0,2604.0 1949.0,2605.0 1957.0,2598.0 C 1966.0,2591.0 1977.0,2597.0 1996.0,2619.0 C 2021.0,2649.0 2024.0,2650.0 2046.0,2635.0 C 2059.0,2627.0 2076.0,2620.0 2084.0,2620.0 C 2092.0,2620.0 2112.0,2612.0 2129.0,2603.0 C 2154.0,2588.0 2164.0,2587.0 2191.0,2597.0 C 2216.0,2607.0 2226.0,2606.0 2245.0,2594.0 C 2263.0,2582.0 2277.0,2582.0 2321.0,2591.0 C 2411.0,2609.0 2474.0,2631.0 2491.0,2650.0 C 2502.0,2662.0 2528.0,2671.0 2569.0,2676.0 C 2626.0,2682.0 2630.0,2681.0 2630.0,2662.0 C 2630.0,2596.0 2668.0,2594.0 2747.0,2657.0 C 2779.0,2682.0 2810.0,2707.0 2817.0,2712.0 C 2823.0,2717.0 2851.0,2730.0 2879.0,2740.0 L 2930.0,2758.0 L 2960.0,2734.0 L 2989.0,2709.0 L 2992.0,2741.0 C 2997.0,2790.0 3034.0,2812.0 3124.0,2818.0 C 3168.0,2821.0 3200.0,2819.0 3200.0,2813.0 C 3200.0,2792.0 3173.0,2780.0 3127.0,2780.0 C 3084.0,2780.0 3079.0,2778.0 3086.0,2763.0 C 3090.0,2753.0 3094.0,2730.0 3095.0,2711.0 C 3097.0,2681.0 3104.0,2673.0 3165.0,2634.0 C 3203.0,2610.0 3252.0,2585.0 3274.0,2580.0 C 3334.0,2565.0 3357.0,2553.0 3400.0,2519.0 C 3452.0,2477.0 3478.0,2484.0 3520.0,2552.0 C 3551.0,2602.0 3551.0,2605.0 3536.0,2631.0 C 3517.0,2663.0 3515.0,2691.0 3532.0,2708.0 C 3549.0,2725.0 3555.0,2723.0 3568.0,2695.0 C 3588.0,2651.0 3583.0,2542.0 3560.0,2504.0 L 3539.0,2472.0 L 3597.0,2416.0 C 3659.0,2357.0 3670.0,2350.0 3670.0,2376.0 C 3670.0,2398.0 3704.0,2444.0 3735.0,2464.0 C 3770.0,2487.0 3766.0,2470.0 3724.0,2415.0 C 3692.0,2372.0 3690.0,2365.0 3700.0,2340.0 C 3707.0,2324.0 3752.0,2273.0 3801.0,2225.0 C 3850.0,2178.0 3890.0,2135.0 3890.0,2130.0 C 3890.0,2114.0 4019.0,2029.0 4088.0,1999.0 C 4163.0,1967.0 4246.0,1962.0 4374.0,1980.0 C 4442.0,1990.0 4445.0,1990.0 4467.0,1965.0 C 4495.0,1936.0 4561.0,1900.0 4588.0,1900.0 C 4599.0,1900.0 4613.0,1907.0 4620.0,1915.0 C 4636.0,1935.0 4650.0,1934.0 4650.0,1913.0 C 4650.0,1899.0 4654.0,1900.0 4674.0,1919.0 C 4690.0,1934.0 4703.0,1939.0 4712.0,1934.0 C 4719.0,1929.0 4733.0,1927.0 4743.0,1928.0 C 4757.0,1931.0 4760.0,1923.0 4760.0,1876.0 L 4760.0,1821.0 L 4874.0,1765.0 C 4936.0,1735.0 4990.0,1710.0 4994.0,1710.0 C 4997.0,1710.0 5000.0,1717.0 5000.0,1725.0 C 5000.0,1752.0 5029.0,1753.0 5063.0,1728.0 C 5090.0,1707.0 5100.0,1705.0 5128.0,1713.0 C 5152.0,1720.0 5177.0,1719.0 5223.0,1707.0 C 5377.0,1666.0 5366.0,1666.0 5507.0,1716.0 C 5577.0,1741.0 5675.0,1768.0 5724.0,1775.0 C 5772.0,1783.0 5814.0,1791.0 5817.0,1794.0 C 5820.0,1797.0 5810.0,1834.0 5796.0,1877.0 C 5766.0,1968.0 5765.0,1970.0 5784.0,1970.0 C 5805.0,1970.0 5847.0,1911.0 5866.0,1856.0 C 5875.0,1831.0 5884.0,1810.0 5887.0,1810.0 C 5906.0,1810.0 6064.0,1917.0 6093.0,1950.0 C 6135.0,1996.0 6173.0,2067.0 6190.0,2130.0 C 6196.0,2155.0 6219.0,2205.0 6241.0,2241.0 C 6285.0,2315.0 6285.0,2326.0 6237.0,2377.0 C 6188.0,2430.0 6216.0,2428.0 6269.0,2376.0 L 6318.0,2327.0 L 6352.0,2348.0 C 6370.0,2359.0 6396.0,2380.0 6409.0,2394.0 C 6422.0,2407.0 6438.0,2416.0 6446.0,2413.0 C 6453.0,2410.0 6474.0,2417.0 6492.0,2428.0 C 6510.0,2439.0 6542.0,2451.0 6563.0,2454.0 C 6584.0,2458.0 6606.0,2470.0 6613.0,2480.0 C 6627.0,2504.0 6640.0,2506.0 6640.0,2485.0 C 6640.0,2465.0 6664.0,2466.0 6680.0,2485.0 C 6690.0,2497.0 6695.0,2498.0 6701.0,2489.0 C 6705.0,2481.0 6723.0,2480.0 6755.0,2484.0 C 6801.0,2491.0 6801.0,2492.0 6784.0,2511.0 C 6769.0,2528.0 6768.0,2535.0 6778.0,2564.0 C 6785.0,2582.0 6790.0,2614.0 6790.0,2636.0 C 6791.0,2657.0 6797.0,2689.0 6804.0,2705.0 C 6816.0,2731.0 6819.0,2732.0 6825.0,2717.0 C 6830.0,2705.0 6839.0,2701.0 6851.0,2705.0 C 6867.0,2710.0 6870.0,2706.0 6870.0,2680.0 C 6870.0,2663.0 6874.0,2651.0 6879.0,2655.0 C 6892.0,2662.0 6950.0,2748.0 6950.0,2759.0 C 6950.0,2768.0 6993.0,2810.0 7002.0,2810.0 C 7006.0,2810.0 7011.0,2792.0 7015.0,2770.0 C 7019.0,2748.0 7025.0,2732.0 7030.0,2735.0 C 7034.0,2738.0 7043.0,2727.0 7048.0,2710.0 C 7058.0,2684.0 7062.0,2681.0 7088.0,2686.0 C 7117.0,2692.0 7118.0,2690.0 7130.0,2640.0 C 7137.0,2612.0 7149.0,2586.0 7156.0,2583.0 C 7164.0,2580.0 7170.0,2571.0 7170.0,2563.0 C 7170.0,2554.0 7187.0,2565.0 7210.0,2589.0 C 7233.0,2612.0 7255.0,2630.0 7260.0,2630.0 C 7266.0,2630.0 7270.0,2637.0 7270.0,2645.0 C 7270.0,2655.0 7280.0,2660.0 7304.0,2660.0 C 7342.0,2660.0 7413.0,2709.0 7511.0,2802.0 C 7560.0,2848.0 7569.0,2862.0 7574.0,2903.0 C 7581.0,2949.0 7582.0,2950.0 7616.0,2950.0 C 7640.0,2950.0 7666.0,2960.0 7696.0,2982.0 C 7736.0,3010.0 7739.0,3015.0 7725.0,3030.0 C 7712.0,3044.0 7714.0,3048.0 7739.0,3063.0 C 7761.0,3076.0 7769.0,3077.0 7773.0,3068.0 C 7776.0,3060.0 7799.0,3076.0 7834.0,3110.0 C 7865.0,3140.0 7888.0,3171.0 7885.0,3178.0 C 7877.0,3198.0 7928.0,3244.0 7944.0,3231.0 C 7953.0,3223.0 7972.0,3229.0 8016.0,3255.0 C 8048.0,3275.0 8082.0,3298.0 8090.0,3308.0 C 8099.0,3317.0 8119.0,3332.0 8135.0,3340.0 C 8152.0,3349.0 8176.0,3372.0 8189.0,3392.0 C 8209.0,3423.0 8215.0,3427.0 8231.0,3417.0 C 8246.0,3408.0 8258.0,3410.0 8295.0,3428.0 C 8320.0,3440.0 8348.0,3450.0 8358.0,3450.0 C 8367.0,3450.0 8382.0,3455.0 8390.0,3460.0 C 8402.0,3467.0 8402.0,3472.0 8392.0,3482.0 C 8386.0,3488.0 8380.0,3501.0 8380.0,3509.0 C 8380.0,3520.0 8384.0,3520.0 8399.0,3506.0 C 8417.0,3489.0 8420.0,3489.0 8454.0,3505.0 C 8474.0,3515.0 8487.0,3527.0 8484.0,3532.0 C 8480.0,3537.0 8483.0,3553.0 8491.0,3566.0 C 8501.0,3585.0 8501.0,3593.0 8492.0,3602.0 C 8476.0,3618.0 8477.0,3647.0 8493.0,3653.0 C 8503.0,3656.0 8503.0,3662.0 8493.0,3679.0 C 8477.0,3705.0 8476.0,3730.0 8491.0,3730.0 C 8508.0,3730.0 8560.0,3673.0 8560.0,3653.0 C 8560.0,3638.0 8562.0,3637.0 8570.0,3650.0 C 8579.0,3663.0 8583.0,3662.0 8600.0,3641.0 C 8611.0,3628.0 8620.0,3610.0 8620.0,3599.0 C 8620.0,3578.0 8642.0,3561.0 8648.0,3578.0 C 8650.0,3585.0 8663.0,3577.0 8677.0,3560.0 C 8704.0,3527.0 8727.0,3522.0 8736.0,3545.0 C 8740.0,3553.0 8749.0,3560.0 8757.0,3560.0 C 8779.0,3560.0 8825.0,3531.0 8840.0,3507.0 C 8850.0,3490.0 8850.0,3485.0 8836.0,3474.0 C 8816.0,3460.0 8830.0,3447.0 8854.0,3456.0 C 8869.0,3462.0 8930.0,3541.0 8930.0,3554.0 C 8930.0,3557.0 8921.0,3560.0 8910.0,3560.0 C 8899.0,3560.0 8887.0,3567.0 8884.0,3575.0 C 8877.0,3593.0 8935.0,3663.0 8964.0,3670.0 C 8993.0,3678.0 8996.0,3707.0 8970.0,3735.0 C 8952.0,3755.0 8950.0,3761.0 8960.0,3780.0 C 8972.0,3802.0 8973.0,3802.0 8994.0,3765.0 C 9005.0,3744.0 9020.0,3725.0 9026.0,3723.0 C 9032.0,3721.0 9056.0,3748.0 9079.0,3784.0 C 9102.0,3819.0 9128.0,3851.0 9136.0,3854.0 C 9169.0,3867.0 9214.0,3859.0 9246.0,3835.0 C 9285.0,3805.0 9290.0,3804.0 9290.0,3828.0 C 9290.0,3837.0 9297.0,3854.0 9305.0,3864.0 C 9316.0,3879.0 9317.0,3887.0 9308.0,3897.0 C 9300.0,3907.0 9303.0,3922.0 9324.0,3960.0 C 9350.0,4007.0 9350.0,4011.0 9335.0,4034.0 C 9326.0,4048.0 9321.0,4064.0 9325.0,4070.0 C 9335.0,4086.0 9302.0,4094.0 9284.0,4080.0 C 9262.0,4061.0 9249.0,4080.0 9244.0,4135.0 C 9238.0,4213.0 9266.0,4236.0 9333.0,4211.0 C 9362.0,4200.0 9400.0,4221.0 9400.0,4249.0 C 9400.0,4259.0 9382.0,4284.0 9359.0,4305.0 C 9328.0,4334.0 9321.0,4345.0 9332.0,4351.0 C 9358.0,4368.0 9424.0,4360.0 9464.0,4335.0 C 9496.0,4316.0 9506.0,4314.0 9521.0,4323.0 C 9549.0,4341.0 9544.0,4353.0 9497.0,4375.0 C 9464.0,4391.0 9448.0,4408.0 9425.0,4452.0 C 9408.0,4484.0 9381.0,4523.0 9365.0,4540.0 C 9341.0,4565.0 9338.0,4574.0 9347.0,4589.0 C 9356.0,4604.0 9354.0,4611.0 9337.0,4629.0 C 9321.0,4645.0 9319.0,4650.0 9331.0,4650.0 C 9355.0,4650.0 9455.0,4535.0 9473.0,4488.0 C 9476.0,4478.0 9494.0,4461.0 9512.0,4449.0 C 9568.0,4414.0 9696.0,4437.0 9757.0,4494.0 L 9792.0,4526.0 L 9746.0,4570.0 C 9721.0,4595.0 9700.0,4623.0 9700.0,4634.0 C 9700.0,4650.0 9705.0,4652.0 9735.0,4647.0 C 9754.0,4644.0 9772.0,4646.0 9775.0,4651.0 C 9779.0,4656.0 9795.0,4658.0 9811.0,4655.0 C 9828.0,4652.0 9860.0,4655.0 9882.0,4661.0 L 9924.0,4672.0 L 9893.0,4687.0 C 9856.0,4704.0 9824.0,4737.0 9833.0,4747.0 C 9837.0,4750.0 9865.0,4747.0 9895.0,4740.0 C 9948.0,4727.0 9951.0,4728.0 9975.0,4750.0 C 9989.0,4763.0 10000.0,4784.0 10000.0,4796.0 C 10000.0,4826.0 9936.0,4864.0 9853.0,4883.0 C 9779.0,4900.0 9740.0,4923.0 9740.0,4950.0 C 9740.0,4961.0 9741.0,4970.0 9743.0,4970.0 C 9744.0,4970.0 9767.0,4963.0 9794.0,4955.0 C 9821.0,4947.0 9861.0,4940.0 9883.0,4940.0 C 9907.0,4940.0 9933.0,4932.0 9951.0,4919.0 C 9976.0,4902.0 9989.0,4899.0 10026.0,4905.0 C 10082.0,4913.0 10083.0,4933.0 10028.0,4949.0 C 9998.0,4958.0 9965.0,4983.0 9916.0,5032.0 C 9854.0,5094.0 9840.0,5103.0 9791.0,5112.0 C 9760.0,5118.0 9702.0,5125.0 9661.0,5126.0 C 9613.0,5128.0 9582.0,5134.0 9572.0,5144.0 C 9548.0,5168.0 9565.0,5179.0 9614.0,5168.0 C 9649.0,5161.0 9665.0,5162.0 9689.0,5174.0 C 9705.0,5183.0 9733.0,5190.0 9750.0,5190.0 L 9781.0,5190.0 L 9758.0,5229.0 C 9746.0,5251.0 9738.0,5271.0 9741.0,5275.0 C 9745.0,5278.0 9770.0,5266.0 9798.0,5248.0 C 9827.0,5230.0 9868.0,5204.0 9891.0,5190.0 C 9914.0,5176.0 9946.0,5147.0 9962.0,5125.0 C 9994.0,5082.0 10013.0,5073.0 10076.0,5071.0 C 10131.0,5070.0 10155.0,5088.0 10147.0,5127.0 C 10142.0,5154.0 10146.0,5162.0 10190.0,5199.0 C 10244.0,5244.0 10252.0,5269.0 10220.0,5291.0 C 10202.0,5303.0 10201.0,5309.0 10211.0,5341.0 C 10219.0,5365.0 10219.0,5383.0 10213.0,5395.0 C 10205.0,5409.0 10198.0,5402.0 10168.0,5349.0 C 10131.0,5281.0 10104.0,5259.0 10112.0,5304.0 C 10117.0,5327.0 10114.0,5330.0 10089.0,5330.0 C 10056.0,5330.0 10053.0,5337.0 10078.0,5356.0 C 10094.0,5369.0 10094.0,5369.0 10078.0,5370.0 C 10068.0,5370.0 10060.0,5375.0 10060.0,5380.0 C 10060.0,5386.0 10051.0,5390.0 10039.0,5390.0 C 10002.0,5390.0 10021.0,5423.0 10064.0,5432.0 C 10114.0,5443.0 10130.0,5456.0 10130.0,5487.0 C 10130.0,5511.0 10129.0,5511.0 10038.0,5510.0 C 9987.0,5510.0 9925.0,5510.0 9900.0,5511.0 C 9875.0,5513.0 9834.0,5510.0 9808.0,5505.0 C 9768.0,5499.0 9760.0,5500.0 9760.0,5512.0 C 9760.0,5537.0 9878.0,5570.0 9969.0,5570.0 C 10068.0,5570.0 10102.0,5582.0 10133.0,5628.0 C 10177.0,5695.0 10175.0,5702.0 10118.0,5728.0 C 10077.0,5746.0 10064.0,5748.0 10052.0,5738.0 C 10044.0,5731.0 10007.0,5725.0 9966.0,5725.0 C 9910.0,5725.0 9883.0,5719.0 9836.0,5697.0 C 9804.0,5682.0 9775.0,5672.0 9772.0,5674.0 C 9761.0,5686.0 9782.0,5729.0 9802.0,5736.0 C 9815.0,5740.0 9842.0,5755.0 9864.0,5769.0 C 9892.0,5787.0 9922.0,5797.0 9963.0,5800.0 C 10045.0,5807.0 10047.0,5824.0 9971.0,5858.0 C 9937.0,5873.0 9911.0,5889.0 9913.0,5895.0 C 9915.0,5900.0 9947.0,5905.0 9984.0,5905.0 C 10043.0,5906.0 10054.0,5909.0 10078.0,5933.0 C 10102.0,5957.0 10103.0,5963.0 10092.0,5981.0 C 10080.0,5999.0 10081.0,6005.0 10099.0,6021.0 C 10119.0,6040.0 10119.0,6042.0 10104.0,6081.0 C 10088.0,6120.0 10088.0,6122.0 10109.0,6144.0 C 10139.0,6176.0 10147.0,6232.0 10125.0,6250.0 C 10115.0,6258.0 10100.0,6265.0 10091.0,6265.0 C 10082.0,6265.0 10074.0,6275.0 10072.0,6287.0 C 10067.0,6324.0 10041.0,6323.0 10019.0,6285.0 C 10007.0,6266.0 9992.0,6250.0 9985.0,6250.0 C 9961.0,6250.0 9940.0,6281.0 9940.0,6315.0 C 9940.0,6339.0 9935.0,6349.0 9920.0,6353.0 C 9892.0,6360.0 9884.0,6388.0 9904.0,6403.0 C 9928.0,6421.0 9914.0,6447.0 9878.0,6452.0 C 9855.0,6456.0 9839.0,6449.0 9802.0,6418.0 C 9747.0,6373.0 9730.0,6370.0 9729.0,6408.0 C 9728.0,6424.0 9726.0,6428.0 9723.0,6418.0 C 9721.0,6408.0 9715.0,6400.0 9710.0,6400.0 C 9697.0,6400.0 9678.0,6429.0 9685.0,6440.0 C 9688.0,6445.0 9684.0,6450.0 9675.0,6450.0 C 9648.0,6450.0 9576.0,6490.0 9553.0,6518.0 L 9530.0,6545.0 L 9440.0,6455.0 C 9359.0,6374.0 9350.0,6368.0 9350.0,6392.0 C 9350.0,6408.0 9366.0,6438.0 9393.0,6470.0 C 9416.0,6499.0 9446.0,6538.0 9459.0,6557.0 L 9483.0,6591.0 L 9454.0,6623.0 C 9395.0,6686.0 9396.0,6682.0 9429.0,6760.0 C 9446.0,6800.0 9460.0,6835.0 9460.0,6840.0 C 9460.0,6848.0 9357.0,6830.0 9350.0,6820.0 C 9339.0,6805.0 9300.0,6790.0 9271.0,6790.0 C 9216.0,6790.0 9146.0,6766.0 9082.0,6726.0 L 9018.0,6687.0 L 8998.0,6708.0 L 8977.0,6728.0 L 8999.0,6765.0 C 9026.0,6812.0 9026.0,6816.0 8994.0,6791.0 C 8979.0,6779.0 8963.0,6770.0 8959.0,6770.0 C 8942.0,6770.0 8950.0,6797.0 8975.0,6820.0 C 8990.0,6834.0 9006.0,6868.0 9017.0,6911.0 C 9030.0,6963.0 9040.0,6982.0 9056.0,6987.0 C 9092.0,7000.0 9175.0,7105.0 9193.0,7161.0 C 9219.0,7240.0 9215.0,7282.0 9173.0,7367.0 C 9120.0,7476.0 9080.0,7488.0 9039.0,7408.0 C 9004.0,7339.0 8982.0,7333.0 8954.0,7385.0 C 8938.0,7416.0 8931.0,7420.0 8908.0,7415.0 C 8893.0,7411.0 8869.0,7415.0 8853.0,7423.0 C 8836.0,7432.0 8817.0,7434.0 8805.0,7430.0 C 8770.0,7417.0 8760.0,7436.0 8777.0,7480.0 C 8797.0,7530.0 8789.0,7554.0 8753.0,7547.0 C 8719.0,7541.0 8680.0,7566.0 8680.0,7595.0 C 8680.0,7622.0 8706.0,7646.0 8746.0,7654.0 C 8762.0,7658.0 8806.0,7687.0 8842.0,7720.0 C 8939.0,7808.0 8944.0,7853.0 8863.0,7915.0 L 8818.0,7949.0 L 8881.0,7990.0 C 8916.0,8012.0 8956.0,8033.0 8970.0,8037.0 C 8984.0,8040.0 9011.0,8060.0 9030.0,8080.0 C 9052.0,8104.0 9087.0,8125.0 9125.0,8139.0 C 9158.0,8150.0 9203.0,8169.0 9225.0,8179.0 L 9265.0,8199.0 L 9232.0,8199.0 C 9214.0,8200.0 9182.0,8191.0 9160.0,8180.0 C 9109.0,8154.0 9103.0,8154.0 9046.0,8190.0 C 9004.0,8217.0 8994.0,8220.0 8966.0,8210.0 C 8921.0,8195.0 8862.0,8144.0 8845.0,8104.0 C 8823.0,8050.0 8742.0,7963.0 8698.0,7945.0 C 8677.0,7937.0 8638.0,7930.0 8612.0,7930.0 C 8586.0,7930.0 8559.0,7925.0 8552.0,7918.0 C 8537.0,7903.0 8537.0,7859.0 8551.0,7810.0 C 8561.0,7778.0 8559.0,7767.0 8536.0,7721.0 L 8509.0,7669.0 L 8479.0,7687.0 C 8462.0,7697.0 8443.0,7718.0 8436.0,7734.0 C 8428.0,7753.0 8413.0,7766.0 8390.0,7774.0 C 8368.0,7781.0 8354.0,7793.0 8352.0,7805.0 C 8350.0,7816.0 8339.0,7835.0 8327.0,7848.0 C 8309.0,7867.0 8305.0,7868.0 8298.0,7856.0 C 8292.0,7846.0 8276.0,7841.0 8254.0,7842.0 C 8209.0,7844.0 8181.0,7878.0 8198.0,7914.0 C 8207.0,7935.0 8206.0,7936.0 8184.0,7932.0 C 8171.0,7930.0 8160.0,7932.0 8160.0,7938.0 C 8160.0,7944.0 8150.0,7950.0 8138.0,7952.0 C 8102.0,7957.0 8105.0,7992.0 8143.0,8015.0 C 8202.0,8052.0 8229.0,8148.0 8201.0,8223.0 C 8193.0,8243.0 8182.0,8250.0 8153.0,8255.0 C 8069.0,8269.0 8061.0,8272.0 8066.0,8284.0 C 8069.0,8293.0 8058.0,8296.0 8028.0,8296.0 L 7985.0,8295.0 L 7974.0,8349.0 C 7964.0,8390.0 7964.0,8407.0 7973.0,8421.0 C 7980.0,8432.0 7988.0,8440.0 7991.0,8440.0 C 7995.0,8440.0 7993.0,8451.0 7987.0,8465.0 C 7980.0,8479.0 7969.0,8490.0 7963.0,8490.0 C 7956.0,8490.0 7950.0,8498.0 7950.0,8508.0 C 7949.0,8528.0 7904.0,8564.0 7890.0,8555.0 C 7884.0,8552.0 7880.0,8542.0 7880.0,8534.0 C 7880.0,8516.0 7878.0,8516.0 7838.0,8539.0 C 7777.0,8574.0 7761.0,8575.0 7747.0,8543.0" fill="pink"/>
	<path d="M 2306.0,6183.0 C 2300.0,6169.0 2301.0,6168.0 2311.0,6177.0 C 2318.0,6184.0 2321.0,6192.0 2318.0,6195.0 C 2315.0,6198.0 2309.0,6193.0 2306.0,6183.0" fill="pink"/>
	<path d="M 8567.0,3600.0 C 8564.0,3588.0 8567.0,3580.0 8575.0,3580.0 C 8583.0,3580.0 8586.0,3588.0 8583.0,3600.0 C 8580.0,3611.0 8576.0,3620.0 8575.0,3620.0 C 8574.0,3620.0 8570.0,3611.0 8567.0,3600.0" fill="pink"/>
</svg>
