<?xml version="1.0" ?>
<svg xmlns="http://www.w3.org/2000/svg" xmlns:ev="http://www.w3.org/2001/xml-events" xmlns:xlink="http://www.w3.org/1999/xlink" baseProfile="full" height="600px" version="1.1" viewBox="222.58103897571846 -1022.2974250872479 9794.729755427652 12289.316849793646" width="479px">
	<defs/>
	<path d="M 4826.0,10195.0 C 4777.0,10170.0 4725.0,10150.0 4710.0,10150.0 C 4695.0,10150.0 4651.0,10162.0 4614.0,10177.0 C 4558.0,10198.0 4527.0,10204.0 4455.0,10204.0 C 4329.0,10205.0 4303.0,10198.0 4234.0,10139.0 C 4159.0,10074.0 4126.0,10060.0 4046.0,10060.0 C 3992.0,10060.0 3971.0,10066.0 3913.0,10095.0 C 3820.0,10144.0 3804.0,10139.0 3797.0,10059.0 C 3794.0,10019.0 3784.0,9987.0 3771.0,9969.0 C 3743.0,9931.0 3745.0,9915.0 3780.0,9890.0 C 3823.0,9860.0 3820.0,9834.0 3773.0,9826.0 C 3707.0,9816.0 3684.0,9819.0 3656.0,9845.0 C 3618.0,9880.0 3590.0,9877.0 3548.0,9833.0 C 3499.0,9780.0 3497.0,9768.0 3530.0,9723.0 C 3560.0,9685.0 3567.0,9656.0 3551.0,9646.0 C 3532.0,9634.0 3533.0,9599.0 3552.0,9575.0 C 3575.0,9545.0 3569.0,9513.0 3535.0,9498.0 C 3514.0,9488.0 3505.0,9493.0 3458.0,9535.0 C 3429.0,9561.0 3399.0,9595.0 3391.0,9611.0 C 3371.0,9654.0 3343.0,9656.0 3257.0,9620.0 C 3215.0,9603.0 3169.0,9590.0 3154.0,9592.0 C 3113.0,9597.0 3091.0,9635.0 3083.0,9713.0 C 3076.0,9789.0 3053.0,9830.0 3017.0,9830.0 C 2997.0,9830.0 2993.0,9822.0 2982.0,9754.0 C 2966.0,9650.0 2934.0,9585.0 2870.0,9525.0 C 2753.0,9416.0 2763.0,9433.0 2755.0,9334.0 C 2751.0,9285.0 2743.0,9239.0 2738.0,9233.0 C 2708.0,9196.0 2652.0,9236.0 2594.0,9336.0 C 2569.0,9378.0 2568.0,9385.0 2579.0,9416.0 C 2586.0,9435.0 2589.0,9454.0 2585.0,9459.0 C 2582.0,9464.0 2556.0,9476.0 2527.0,9484.0 C 2462.0,9503.0 2430.0,9525.0 2430.0,9551.0 C 2430.0,9578.0 2407.0,9621.0 2380.0,9643.0 C 2357.0,9662.0 2356.0,9692.0 2377.0,9784.0 L 2383.0,9813.0 L 2339.0,9806.0 C 2307.0,9801.0 2284.0,9788.0 2255.0,9761.0 C 2233.0,9740.0 2194.0,9710.0 2167.0,9695.0 L 2120.0,9668.0 L 2141.0,9634.0 C 2171.0,9585.0 2161.0,9561.0 2083.0,9494.0 C 2045.0,9462.0 1996.0,9418.0 1972.0,9396.0 L 1930.0,9356.0 L 1857.0,9392.0 L 1784.0,9429.0 L 1734.0,9414.0 C 1707.0,9406.0 1632.0,9394.0 1568.0,9388.0 C 1462.0,9377.0 1447.0,9378.0 1414.0,9394.0 C 1377.0,9411.0 1377.0,9411.0 1299.0,9379.0 C 1224.0,9349.0 1220.0,9346.0 1220.0,9316.0 C 1220.0,9292.0 1229.0,9275.0 1256.0,9249.0 C 1305.0,9202.0 1320.0,9170.0 1320.0,9108.0 C 1320.0,9058.0 1322.0,9054.0 1357.0,9030.0 C 1416.0,8990.0 1460.0,8949.0 1460.0,8933.0 C 1460.0,8925.0 1449.0,8904.0 1435.0,8886.0 C 1418.0,8863.0 1410.0,8840.0 1410.0,8812.0 C 1410.0,8772.0 1409.0,8771.0 1383.0,8776.0 C 1365.0,8779.0 1326.0,8771.0 1280.0,8754.0 C 1239.0,8739.0 1172.0,8724.0 1131.0,8720.0 C 1087.0,8715.0 1054.0,8707.0 1049.0,8699.0 C 1037.0,8681.0 1043.0,8639.0 1069.0,8565.0 C 1092.0,8501.0 1105.0,8487.0 1188.0,8439.0 C 1245.0,8405.0 1270.0,8369.0 1270.0,8318.0 C 1270.0,8291.0 1261.0,8275.0 1225.0,8240.0 C 1200.0,8215.0 1168.0,8179.0 1155.0,8159.0 C 1133.0,8128.0 1131.0,8120.0 1141.0,8091.0 C 1150.0,8064.0 1149.0,8051.0 1130.0,8008.0 C 1109.0,7958.0 1109.0,7956.0 1126.0,7911.0 C 1149.0,7851.0 1231.0,7771.0 1311.0,7731.0 C 1369.0,7702.0 1380.0,7700.0 1481.0,7700.0 C 1649.0,7700.0 1680.0,7678.0 1635.0,7591.0 C 1621.0,7563.0 1610.0,7529.0 1610.0,7515.0 C 1610.0,7496.0 1601.0,7484.0 1579.0,7472.0 C 1519.0,7439.0 1500.0,7419.0 1500.0,7390.0 C 1500.0,7319.0 1530.0,7314.0 1692.0,7360.0 C 1867.0,7409.0 1875.0,7413.0 1931.0,7496.0 C 2003.0,7603.0 2034.0,7635.0 2084.0,7654.0 C 2123.0,7669.0 2131.0,7677.0 2153.0,7730.0 C 2174.0,7777.0 2187.0,7793.0 2217.0,7808.0 C 2369.0,7886.0 2547.0,7876.0 2639.0,7784.0 C 2665.0,7758.0 2680.0,7735.0 2677.0,7726.0 C 2674.0,7718.0 2678.0,7706.0 2686.0,7700.0 C 2697.0,7690.0 2704.0,7692.0 2719.0,7711.0 L 2739.0,7735.0 L 2782.0,7695.0 C 2805.0,7673.0 2827.0,7652.0 2830.0,7649.0 C 2833.0,7646.0 2850.0,7635.0 2869.0,7625.0 C 2888.0,7616.0 2946.0,7574.0 2999.0,7532.0 C 3052.0,7491.0 3101.0,7452.0 3108.0,7447.0 C 3117.0,7440.0 3125.0,7443.0 3135.0,7456.0 C 3148.0,7475.0 3149.0,7474.0 3172.0,7453.0 C 3186.0,7440.0 3205.0,7430.0 3216.0,7430.0 C 3239.0,7430.0 3310.0,7361.0 3310.0,7339.0 C 3310.0,7331.0 3321.0,7309.0 3334.0,7291.0 C 3363.0,7252.0 3368.0,7226.0 3384.0,7035.0 C 3396.0,6889.0 3398.0,6881.0 3443.0,6780.0 C 3469.0,6722.0 3499.0,6658.0 3510.0,6638.0 C 3535.0,6592.0 3535.0,6566.0 3510.0,6438.0 C 3485.0,6310.0 3485.0,6314.0 3515.0,6334.0 C 3548.0,6356.0 3566.0,6354.0 3617.0,6325.0 C 3649.0,6306.0 3660.0,6293.0 3660.0,6275.0 C 3660.0,6262.0 3656.0,6248.0 3650.0,6245.0 C 3645.0,6242.0 3640.0,6221.0 3640.0,6200.0 C 3640.0,6179.0 3635.0,6158.0 3629.0,6155.0 C 3613.0,6144.0 3649.0,6110.0 3677.0,6110.0 C 3741.0,6110.0 3849.0,6026.0 3872.0,5958.0 C 3878.0,5940.0 3894.0,5912.0 3907.0,5896.0 C 3923.0,5877.0 3929.0,5861.0 3924.0,5846.0 C 3915.0,5815.0 3890.0,5790.0 3868.0,5790.0 C 3845.0,5790.0 3845.0,5778.0 3870.0,5749.0 L 3890.0,5725.0 L 3909.0,5749.0 C 3924.0,5769.0 3934.0,5772.0 3961.0,5767.0 C 4113.0,5742.0 4239.0,5629.0 4344.0,5423.0 C 4365.0,5380.0 4375.0,5370.0 4396.0,5370.0 C 4413.0,5370.0 4431.0,5359.0 4448.0,5338.0 C 4463.0,5320.0 4505.0,5276.0 4541.0,5240.0 C 4624.0,5157.0 4630.0,5150.0 4650.0,5087.0 C 4664.0,5042.0 4673.0,5031.0 4713.0,5010.0 C 4770.0,4978.0 4865.0,4872.0 4906.0,4794.0 C 4933.0,4741.0 4940.0,4735.0 4971.0,4732.0 C 4990.0,4730.0 5014.0,4720.0 5025.0,4710.0 C 5036.0,4700.0 5069.0,4682.0 5097.0,4670.0 C 5136.0,4653.0 5157.0,4636.0 5180.0,4602.0 C 5196.0,4577.0 5210.0,4548.0 5210.0,4538.0 C 5210.0,4511.0 5247.0,4515.0 5288.0,4547.0 C 5307.0,4561.0 5343.0,4577.0 5368.0,4581.0 C 5411.0,4590.0 5415.0,4588.0 5472.0,4545.0 C 5505.0,4520.0 5536.0,4500.0 5541.0,4500.0 C 5545.0,4500.0 5566.0,4509.0 5587.0,4520.0 C 5618.0,4535.0 5633.0,4537.0 5664.0,4530.0 C 5686.0,4525.0 5707.0,4523.0 5711.0,4526.0 C 5743.0,4545.0 5910.0,4150.0 5910.0,4057.0 C 5910.0,4012.0 5926.0,4008.0 5935.0,4050.0 C 5943.0,4085.0 5947.0,4086.0 5972.0,4063.0 C 5990.0,4047.0 5993.0,4047.0 6021.0,4062.0 C 6058.0,4084.0 6071.0,4079.0 6115.0,4024.0 C 6135.0,4000.0 6162.0,3977.0 6175.0,3974.0 C 6221.0,3962.0 6214.0,3927.0 6150.0,3862.0 C 6127.0,3838.0 6110.0,3817.0 6112.0,3815.0 C 6114.0,3814.0 6160.0,3827.0 6215.0,3845.0 C 6270.0,3863.0 6349.0,3881.0 6390.0,3885.0 L 6466.0,3892.0 L 6502.0,3833.0 C 6604.0,3667.0 6615.0,3620.0 6571.0,3538.0 L 6540.0,3481.0 L 6576.0,3474.0 C 6598.0,3470.0 6619.0,3457.0 6632.0,3439.0 C 6648.0,3417.0 6657.0,3413.0 6667.0,3421.0 C 6684.0,3436.0 6768.0,3366.0 6795.0,3316.0 C 6806.0,3295.0 6820.0,3282.0 6827.0,3285.0 C 6834.0,3287.0 6840.0,3285.0 6840.0,3280.0 C 6840.0,3275.0 6851.0,3263.0 6865.0,3254.0 C 6890.0,3238.0 6892.0,3238.0 6938.0,3277.0 C 7004.0,3332.0 7005.0,3332.0 7045.0,3316.0 C 7095.0,3295.0 7130.0,3265.0 7163.0,3218.0 C 7186.0,3183.0 7190.0,3167.0 7190.0,3110.0 C 7190.0,3035.0 7209.0,2971.0 7264.0,2862.0 C 7288.0,2815.0 7310.0,2785.0 7326.0,2778.0 C 7377.0,2755.0 7410.0,2640.0 7410.0,2487.0 L 7410.0,2390.0 L 7471.0,2268.0 C 7530.0,2150.0 7532.0,2145.0 7520.0,2106.0 C 7514.0,2085.0 7496.0,2054.0 7481.0,2039.0 C 7453.0,2011.0 7453.0,2011.0 7409.0,2027.0 C 7352.0,2048.0 7325.0,2040.0 7273.0,1989.0 C 7234.0,1952.0 7216.0,1916.0 7239.0,1922.0 C 7250.0,1926.0 7300.0,1854.0 7300.0,1834.0 C 7300.0,1812.0 7215.0,1647.0 7185.0,1611.0 C 7170.0,1594.0 7138.0,1568.0 7114.0,1554.0 C 7076.0,1532.0 7072.0,1526.0 7081.0,1509.0 C 7088.0,1494.0 7087.0,1469.0 7074.0,1414.0 L 7058.0,1339.0 L 7086.0,1308.0 C 7133.0,1258.0 7169.0,1240.0 7198.0,1251.0 C 7212.0,1256.0 7249.0,1258.0 7282.0,1254.0 C 7331.0,1248.0 7344.0,1250.0 7361.0,1266.0 C 7398.0,1299.0 7440.0,1368.0 7440.0,1395.0 C 7440.0,1411.0 7458.0,1445.0 7487.0,1483.0 C 7577.0,1601.0 7607.0,1627.0 7681.0,1655.0 C 7719.0,1670.0 7757.0,1691.0 7765.0,1703.0 C 7788.0,1736.0 7786.0,1942.0 7763.0,1981.0 C 7746.0,2009.0 7746.0,2012.0 7765.0,2046.0 C 7801.0,2113.0 7881.0,2175.0 7975.0,2209.0 C 8076.0,2246.0 8075.0,2245.0 8141.0,2221.0 L 8191.0,2201.0 L 8211.0,2248.0 L 8231.0,2294.0 L 8204.0,2348.0 C 8178.0,2398.0 8177.0,2405.0 8189.0,2449.0 C 8198.0,2486.0 8198.0,2503.0 8189.0,2523.0 C 8180.0,2543.0 8180.0,2563.0 8189.0,2606.0 C 8204.0,2681.0 8204.0,2677.0 8170.0,2695.0 C 8153.0,2704.0 8134.0,2722.0 8128.0,2735.0 C 8121.0,2750.0 8087.0,2776.0 8044.0,2800.0 C 8005.0,2821.0 7963.0,2852.0 7952.0,2867.0 C 7934.0,2892.0 7925.0,2895.0 7856.0,2898.0 C 7784.0,2902.0 7778.0,2904.0 7756.0,2934.0 C 7691.0,3020.0 7688.0,3061.0 7740.0,3134.0 C 7778.0,3187.0 7800.0,3257.0 7800.0,3325.0 C 7800.0,3362.0 7805.0,3382.0 7817.0,3391.0 C 7826.0,3399.0 7844.0,3430.0 7857.0,3460.0 C 7871.0,3490.0 7892.0,3529.0 7904.0,3545.0 C 7917.0,3562.0 7932.0,3591.0 7938.0,3610.0 C 7966.0,3694.0 8034.0,3757.0 8122.0,3781.0 C 8188.0,3798.0 8256.0,3754.0 8248.0,3698.0 C 8246.0,3681.0 8260.0,3669.0 8330.0,3632.0 C 8377.0,3607.0 8434.0,3577.0 8457.0,3565.0 C 8495.0,3544.0 8509.0,3543.0 8604.0,3547.0 L 8710.0,3553.0 L 8743.0,3517.0 C 8761.0,3497.0 8791.0,3452.0 8810.0,3416.0 C 8843.0,3355.0 8844.0,3350.0 8832.0,3316.0 C 8820.0,3282.0 8820.0,3276.0 8844.0,3236.0 C 8880.0,3174.0 9074.0,3032.0 9106.0,3044.0 C 9117.0,3048.0 9120.0,3070.0 9120.0,3134.0 C 9120.0,3232.0 9127.0,3254.0 9171.0,3304.0 C 9210.0,3349.0 9208.0,3369.0 9143.0,3500.0 C 9101.0,3584.0 9083.0,3608.0 8980.0,3710.0 C 8917.0,3773.0 8855.0,3839.0 8843.0,3855.0 C 8831.0,3872.0 8820.0,3879.0 8820.0,3873.0 C 8820.0,3848.0 8792.0,3860.0 8782.0,3889.0 C 8774.0,3910.0 8763.0,3920.0 8738.0,3925.0 C 8703.0,3933.0 8648.0,3958.0 8640.0,3970.0 C 8637.0,3975.0 8600.0,3996.0 8557.0,4018.0 C 8468.0,4065.0 8339.0,4160.0 8301.0,4208.0 C 8287.0,4226.0 8246.0,4258.0 8210.0,4280.0 C 8135.0,4325.0 7951.0,4400.0 7916.0,4400.0 C 7902.0,4400.0 7870.0,4416.0 7844.0,4437.0 C 7817.0,4457.0 7767.0,4482.0 7730.0,4493.0 C 7655.0,4515.0 7579.0,4552.0 7561.0,4574.0 C 7553.0,4583.0 7539.0,4590.0 7528.0,4590.0 C 7517.0,4590.0 7483.0,4614.0 7452.0,4643.0 C 7421.0,4672.0 7371.0,4711.0 7342.0,4729.0 C 7284.0,4766.0 7266.0,4791.0 7275.0,4821.0 C 7279.0,4832.0 7324.0,4872.0 7375.0,4911.0 C 7512.0,5014.0 7526.0,5044.0 7466.0,5115.0 L 7433.0,5154.0 L 7338.0,5132.0 C 7248.0,5112.0 7241.0,5111.0 7187.0,5127.0 C 7135.0,5141.0 7122.0,5141.0 7029.0,5127.0 C 6936.0,5112.0 6925.0,5112.0 6897.0,5127.0 C 6880.0,5135.0 6837.0,5145.0 6802.0,5148.0 C 6742.0,5153.0 6736.0,5156.0 6676.0,5210.0 C 6630.0,5252.0 6596.0,5273.0 6549.0,5289.0 C 6481.0,5312.0 6440.0,5343.0 6440.0,5371.0 C 6440.0,5383.0 6425.0,5396.0 6398.0,5408.0 C 6369.0,5420.0 6323.0,5461.0 6260.0,5530.0 C 6208.0,5587.0 6142.0,5648.0 6114.0,5666.0 C 6044.0,5711.0 6014.0,5749.0 5965.0,5855.0 C 5907.0,5979.0 5873.0,6091.0 5865.0,6180.0 C 5856.0,6284.0 5838.0,6342.0 5768.0,6494.0 C 5716.0,6604.0 5706.0,6636.0 5702.0,6693.0 L 5698.0,6760.0 L 5571.0,6844.0 C 5473.0,6909.0 5405.0,6966.0 5265.0,7100.0 C 5167.0,7195.0 5048.0,7304.0 5002.0,7344.0 C 4956.0,7383.0 4910.0,7428.0 4900.0,7445.0 C 4875.0,7485.0 4819.0,7702.0 4819.0,7755.0 C 4820.0,7841.0 4820.0,7877.0 4819.0,7929.0 C 4817.0,8000.0 4842.0,8035.0 4894.0,8034.0 C 4918.0,8033.0 4930.0,8037.0 4930.0,8046.0 C 4930.0,8080.0 4953.0,8108.0 4979.0,8107.0 C 5003.0,8105.0 5005.0,8109.0 5014.0,8163.0 C 5022.0,8216.0 5020.0,8224.0 5002.0,8243.0 C 4984.0,8261.0 4977.0,8262.0 4955.0,8252.0 C 4916.0,8234.0 4910.0,8237.0 4910.0,8274.0 C 4910.0,8338.0 4896.0,8436.0 4891.0,8413.0 L 4885.0,8390.0 L 4852.0,8416.0 C 4812.0,8448.0 4787.0,8494.0 4795.0,8521.0 C 4801.0,8540.0 4809.0,8541.0 4858.0,8523.0 C 4866.0,8519.0 4870.0,8529.0 4870.0,8554.0 C 4870.0,8623.0 4922.0,8711.0 4986.0,8751.0 C 5014.0,8768.0 5023.0,8770.0 5036.0,8759.0 C 5047.0,8750.0 5054.0,8750.0 5062.0,8758.0 C 5069.0,8765.0 5087.0,8770.0 5103.0,8770.0 C 5128.0,8770.0 5131.0,8767.0 5128.0,8743.0 C 5126.0,8724.0 5117.0,8713.0 5100.0,8708.0 C 5082.0,8702.0 5085.0,8701.0 5114.0,8705.0 C 5135.0,8707.0 5182.0,8724.0 5219.0,8741.0 C 5259.0,8761.0 5305.0,8775.0 5335.0,8777.0 C 5444.0,8784.0 5450.0,8785.0 5465.0,8808.0 C 5480.0,8829.0 5480.0,8830.0 5456.0,8830.0 C 5425.0,8830.0 5424.0,8838.0 5451.0,8884.0 C 5464.0,8907.0 5476.0,8917.0 5486.0,8913.0 C 5494.0,8910.0 5508.0,8915.0 5518.0,8923.0 C 5533.0,8937.0 5543.0,8936.0 5615.0,8915.0 C 5698.0,8891.0 5715.0,8875.0 5688.0,8843.0 C 5676.0,8828.0 5677.0,8828.0 5698.0,8839.0 C 5711.0,8846.0 5729.0,8865.0 5738.0,8881.0 C 5760.0,8919.0 5779.0,8918.0 5830.0,8875.0 C 5886.0,8828.0 5910.0,8797.0 5910.0,8770.0 C 5910.0,8753.0 5915.0,8749.0 5938.0,8752.0 C 5959.0,8754.0 5966.0,8761.0 5968.0,8782.0 C 5972.0,8818.0 5960.0,8834.0 5878.0,8905.0 C 5840.0,8938.0 5810.0,8971.0 5810.0,8979.0 C 5810.0,8988.0 5819.0,9009.0 5830.0,9025.0 C 5859.0,9068.0 5856.0,9098.0 5823.0,9110.0 C 5778.0,9126.0 5747.0,9144.0 5743.0,9157.0 C 5740.0,9164.0 5764.0,9197.0 5796.0,9230.0 C 5827.0,9263.0 5851.0,9292.0 5849.0,9293.0 C 5847.0,9295.0 5802.0,9309.0 5750.0,9325.0 C 5698.0,9340.0 5649.0,9357.0 5642.0,9363.0 C 5633.0,9370.0 5630.0,9392.0 5632.0,9429.0 L 5635.0,9485.0 L 5714.0,9527.0 C 5802.0,9574.0 5922.0,9651.0 5917.0,9656.0 C 5915.0,9658.0 5833.0,9673.0 5734.0,9690.0 C 5634.0,9707.0 5529.0,9727.0 5499.0,9736.0 C 5469.0,9745.0 5387.0,9767.0 5315.0,9786.0 C 5171.0,9824.0 5071.0,9868.0 5040.0,9907.0 C 5008.0,9948.0 4996.0,10008.0 5009.0,10058.0 C 5019.0,10098.0 5018.0,10104.0 4997.0,10130.0 C 4984.0,10145.0 4970.0,10177.0 4966.0,10199.0 C 4958.0,10253.0 4941.0,10252.0 4826.0,10195.0 M 4938.0,7208.0 C 4948.0,7198.0 4955.0,7198.0 4969.0,7207.0 C 4985.0,7217.0 4989.0,7216.0 4994.0,7204.0 C 5004.0,7178.0 5001.0,7150.0 4984.0,7125.0 C 4969.0,7102.0 4968.0,7102.0 4924.0,7117.0 C 4875.0,7133.0 4867.0,7157.0 4896.0,7198.0 C 4913.0,7223.0 4921.0,7225.0 4938.0,7208.0" fill="pink"/>
	<path d="M 3412.0,6220.0 C 3404.0,6206.0 3389.0,6200.0 3366.0,6200.0 C 3348.0,6200.0 3327.0,6193.0 3320.0,6185.0 C 3306.0,6168.0 3280.0,6165.0 3280.0,6180.0 C 3280.0,6186.0 3265.0,6190.0 3246.0,6190.0 C 3218.0,6190.0 3212.0,6186.0 3208.0,6165.0 C 3203.0,6143.0 3207.0,6139.0 3243.0,6129.0 C 3274.0,6121.0 3289.0,6121.0 3307.0,6131.0 C 3327.0,6142.0 3333.0,6142.0 3341.0,6130.0 C 3349.0,6117.0 3351.0,6117.0 3360.0,6130.0 C 3367.0,6142.0 3372.0,6142.0 3381.0,6133.0 C 3391.0,6123.0 3398.0,6128.0 3417.0,6155.0 C 3439.0,6187.0 3449.0,6240.0 3432.0,6240.0 C 3428.0,6240.0 3419.0,6231.0 3412.0,6220.0" fill="pink"/>
	<path d="M 2320.0,4773.0 C 2320.0,4768.0 2327.0,4756.0 2335.0,4746.0 C 2368.0,4703.0 2336.0,4657.0 2272.0,4656.0 C 2232.0,4655.0 2172.0,4613.0 2097.0,4533.0 C 2061.0,4494.0 2052.0,4490.0 2009.0,4490.0 C 1973.0,4490.0 1944.0,4480.0 1886.0,4450.0 C 1845.0,4428.0 1804.0,4410.0 1795.0,4410.0 C 1771.0,4410.0 1661.0,4468.0 1634.0,4495.0 C 1620.0,4509.0 1613.0,4525.0 1616.0,4534.0 C 1620.0,4544.0 1617.0,4550.0 1606.0,4550.0 C 1593.0,4550.0 1592.0,4546.0 1602.0,4525.0 C 1612.0,4503.0 1609.0,4490.0 1575.0,4425.0 C 1536.0,4348.0 1536.0,4335.0 1573.0,4335.0 C 1608.0,4335.0 1606.0,4299.0 1570.0,4267.0 C 1552.0,4251.0 1541.0,4231.0 1541.0,4217.0 L 1543.0,4195.0 L 1547.0,4217.0 C 1553.0,4249.0 1580.0,4234.0 1580.0,4198.0 L 1580.0,4169.0 L 1606.0,4189.0 C 1645.0,4220.0 1660.0,4216.0 1653.0,4177.0 C 1650.0,4154.0 1655.0,4133.0 1670.0,4107.0 C 1690.0,4074.0 1692.0,4061.0 1686.0,4000.0 C 1681.0,3952.0 1682.0,3930.0 1690.0,3930.0 C 1695.0,3930.0 1708.0,3915.0 1717.0,3896.0 C 1732.0,3864.0 1732.0,3859.0 1716.0,3826.0 C 1702.0,3797.0 1701.0,3783.0 1709.0,3752.0 C 1728.0,3686.0 1724.0,3675.0 1678.0,3656.0 C 1654.0,3646.0 1641.0,3636.0 1648.0,3633.0 C 1657.0,3630.0 1659.0,3614.0 1654.0,3578.0 C 1648.0,3533.0 1649.0,3528.0 1665.0,3532.0 C 1676.0,3534.0 1687.0,3548.0 1692.0,3566.0 C 1701.0,3600.0 1727.0,3617.0 1744.0,3600.0 C 1751.0,3593.0 1750.0,3580.0 1742.0,3557.0 C 1733.0,3532.0 1733.0,3515.0 1741.0,3493.0 C 1749.0,3469.0 1748.0,3454.0 1736.0,3427.0 C 1723.0,3395.0 1723.0,3391.0 1737.0,3386.0 C 1750.0,3381.0 1750.0,3377.0 1739.0,3363.0 C 1728.0,3350.0 1728.0,3346.0 1738.0,3343.0 C 1755.0,3337.0 1753.0,3301.0 1735.0,3293.0 C 1726.0,3290.0 1710.0,3296.0 1700.0,3305.0 C 1674.0,3328.0 1671.0,3324.0 1664.0,3259.0 C 1660.0,3229.0 1648.0,3189.0 1637.0,3170.0 C 1626.0,3151.0 1609.0,3106.0 1599.0,3071.0 C 1582.0,3008.0 1582.0,3006.0 1601.0,2982.0 C 1626.0,2949.0 1625.0,2941.0 1589.0,2904.0 L 1559.0,2873.0 L 1575.0,2832.0 C 1584.0,2810.0 1599.0,2790.0 1609.0,2787.0 C 1619.0,2785.0 1630.0,2770.0 1633.0,2753.0 C 1636.0,2736.0 1649.0,2718.0 1664.0,2710.0 C 1687.0,2698.0 1689.0,2692.0 1684.0,2662.0 C 1679.0,2634.0 1681.0,2624.0 1696.0,2613.0 C 1711.0,2602.0 1713.0,2595.0 1703.0,2570.0 C 1695.0,2548.0 1695.0,2537.0 1705.0,2524.0 C 1716.0,2508.0 1718.0,2508.0 1729.0,2529.0 C 1736.0,2541.0 1753.0,2555.0 1767.0,2561.0 C 1789.0,2569.0 1797.0,2567.0 1820.0,2545.0 C 1839.0,2527.0 1850.0,2522.0 1855.0,2530.0 C 1860.0,2538.0 1866.0,2536.0 1875.0,2523.0 C 1887.0,2507.0 1890.0,2507.0 1927.0,2533.0 C 1976.0,2567.0 2028.0,2620.0 2031.0,2640.0 C 2032.0,2648.0 2030.0,2676.0 2026.0,2703.0 C 2021.0,2731.0 2022.0,2767.0 2028.0,2792.0 C 2037.0,2826.0 2036.0,2838.0 2025.0,2851.0 C 2010.0,2867.0 2005.0,2890.0 2016.0,2890.0 C 2032.0,2890.0 2078.0,2855.0 2096.0,2829.0 C 2112.0,2804.0 2120.0,2801.0 2147.0,2806.0 C 2198.0,2816.0 2236.0,2801.0 2290.0,2754.0 C 2324.0,2722.0 2345.0,2710.0 2358.0,2714.0 C 2371.0,2719.0 2380.0,2713.0 2390.0,2695.0 C 2397.0,2681.0 2407.0,2670.0 2411.0,2670.0 C 2419.0,2670.0 2450.0,2744.0 2450.0,2766.0 C 2450.0,2774.0 2461.0,2792.0 2475.0,2806.0 C 2499.0,2830.0 2509.0,2860.0 2493.0,2860.0 C 2488.0,2860.0 2479.0,2864.0 2472.0,2869.0 C 2461.0,2875.0 2466.0,2889.0 2495.0,2928.0 C 2524.0,2969.0 2531.0,2987.0 2529.0,3018.0 C 2527.0,3038.0 2529.0,3060.0 2532.0,3065.0 C 2543.0,3083.0 2561.0,3200.0 2555.0,3211.0 C 2551.0,3216.0 2553.0,3227.0 2559.0,3234.0 C 2573.0,3250.0 2600.0,3356.0 2600.0,3394.0 C 2600.0,3410.0 2607.0,3431.0 2616.0,3441.0 C 2629.0,3455.0 2629.0,3462.0 2619.0,3478.0 C 2609.0,3495.0 2609.0,3503.0 2623.0,3524.0 C 2646.0,3558.0 2645.0,3565.0 2610.0,3634.0 C 2589.0,3676.0 2580.0,3707.0 2580.0,3743.0 C 2580.0,3790.0 2582.0,3795.0 2639.0,3849.0 C 2671.0,3880.0 2709.0,3928.0 2723.0,3955.0 C 2748.0,4005.0 2748.0,4006.0 2729.0,4029.0 C 2714.0,4047.0 2710.0,4068.0 2710.0,4121.0 C 2710.0,4170.0 2706.0,4191.0 2696.0,4197.0 C 2688.0,4201.0 2676.0,4227.0 2669.0,4253.0 C 2657.0,4297.0 2657.0,4302.0 2677.0,4322.0 L 2699.0,4344.0 L 2677.0,4355.0 C 2662.0,4362.0 2655.0,4375.0 2655.0,4393.0 C 2656.0,4415.0 2652.0,4418.0 2634.0,4414.0 C 2608.0,4407.0 2570.0,4417.0 2570.0,4430.0 C 2570.0,4435.0 2590.0,4453.0 2615.0,4471.0 L 2661.0,4504.0 L 2633.0,4516.0 C 2611.0,4525.0 2602.0,4525.0 2589.0,4514.0 C 2557.0,4485.0 2549.0,4528.0 2580.0,4567.0 C 2602.0,4595.0 2604.0,4608.0 2590.0,4630.0 C 2582.0,4642.0 2577.0,4641.0 2556.0,4621.0 L 2532.0,4598.0 L 2515.0,4623.0 C 2506.0,4637.0 2500.0,4656.0 2502.0,4666.0 C 2504.0,4680.0 2494.0,4687.0 2457.0,4698.0 C 2421.0,4708.0 2405.0,4719.0 2397.0,4739.0 C 2389.0,4755.0 2379.0,4764.0 2368.0,4762.0 C 2359.0,4760.0 2349.0,4764.0 2345.0,4769.0 C 2338.0,4782.0 2320.0,4784.0 2320.0,4773.0" fill="pink"/>
	<path d="M 6950.0,1601.0 C 6941.0,1598.0 6914.0,1581.0 6890.0,1564.0 C 6819.0,1515.0 6805.0,1513.0 6753.0,1551.0 L 6707.0,1583.0 L 6712.0,1551.0 C 6716.0,1524.0 6711.0,1514.0 6674.0,1480.0 C 6650.0,1458.0 6623.0,1440.0 6613.0,1440.0 C 6604.0,1440.0 6572.0,1457.0 6543.0,1477.0 C 6494.0,1511.0 6487.0,1513.0 6457.0,1503.0 C 6439.0,1497.0 6405.0,1488.0 6380.0,1485.0 C 6355.0,1481.0 6321.0,1466.0 6300.0,1449.0 C 6250.0,1409.0 6193.0,1391.0 6071.0,1379.0 C 5942.0,1366.0 5939.0,1366.0 5865.0,1380.0 C 5781.0,1396.0 5712.0,1389.0 5651.0,1356.0 C 5607.0,1333.0 5591.0,1330.0 5554.0,1336.0 C 5499.0,1344.0 5454.0,1380.0 5429.0,1435.0 L 5411.0,1475.0 L 5343.0,1475.0 C 5290.0,1475.0 5275.0,1478.0 5273.0,1490.0 C 5262.0,1574.0 5260.0,1580.0 5232.0,1580.0 C 5217.0,1580.0 5196.0,1573.0 5186.0,1565.0 C 5160.0,1545.0 5131.0,1546.0 5108.0,1567.0 C 5089.0,1584.0 5088.0,1583.0 5069.0,1560.0 C 5059.0,1546.0 5051.0,1524.0 5052.0,1510.0 C 5055.0,1489.0 5047.0,1481.0 5000.0,1458.0 C 4970.0,1443.0 4935.0,1431.0 4923.0,1431.0 C 4896.0,1430.0 4843.0,1473.0 4835.0,1503.0 C 4831.0,1515.0 4824.0,1537.0 4818.0,1553.0 L 4807.0,1581.0 L 4773.0,1540.0 C 4754.0,1518.0 4718.0,1488.0 4694.0,1474.0 C 4633.0,1438.0 4589.0,1372.0 4597.0,1326.0 C 4600.0,1306.0 4596.0,1272.0 4587.0,1245.0 C 4578.0,1220.0 4573.0,1194.0 4575.0,1187.0 C 4577.0,1180.0 4584.0,1156.0 4590.0,1132.0 C 4599.0,1098.0 4607.0,1087.0 4634.0,1076.0 C 4659.0,1066.0 4671.0,1052.0 4680.0,1025.0 C 4695.0,980.0 4725.0,966.0 4783.0,980.0 C 4806.0,985.0 4848.0,990.0 4877.0,990.0 C 4927.0,990.0 4931.0,988.0 4962.0,946.0 C 4989.0,909.0 5003.0,899.0 5043.0,891.0 C 5096.0,879.0 5150.0,854.0 5150.0,841.0 C 5150.0,827.0 5260.0,712.0 5294.0,691.0 C 5312.0,679.0 5340.0,670.0 5355.0,670.0 C 5377.0,670.0 5396.0,656.0 5439.0,609.0 C 5498.0,545.0 5535.0,520.0 5571.0,520.0 C 5584.0,520.0 5606.0,505.0 5625.0,483.0 C 5656.0,447.0 5659.0,446.0 5690.0,457.0 C 5713.0,466.0 5728.0,466.0 5746.0,458.0 C 5764.0,450.0 5777.0,450.0 5796.0,459.0 C 5819.0,469.0 5831.0,467.0 5888.0,440.0 C 5975.0,399.0 6016.0,367.0 6024.0,333.0 C 6028.0,318.0 6045.0,290.0 6062.0,271.0 C 6079.0,252.0 6103.0,213.0 6116.0,184.0 C 6137.0,136.0 6144.0,130.0 6194.0,111.0 C 6281.0,79.0 6326.0,70.0 6450.0,62.0 L 6565.0,55.0 L 6568.0,28.0 C 6571.0,3.0 6573.0,2.0 6596.0,12.0 C 6619.0,23.0 6620.0,27.0 6614.0,69.0 C 6610.0,94.0 6607.0,129.0 6607.0,147.0 C 6609.0,215.0 6703.0,340.0 6755.0,340.0 C 6775.0,341.0 6775.0,341.0 6755.0,356.0 C 6737.0,370.0 6737.0,373.0 6751.0,383.0 C 6766.0,392.0 6765.0,398.0 6739.0,433.0 C 6723.0,455.0 6713.0,476.0 6715.0,481.0 C 6718.0,485.0 6711.0,491.0 6700.0,495.0 C 6689.0,498.0 6676.0,509.0 6670.0,519.0 C 6663.0,534.0 6667.0,540.0 6696.0,554.0 C 6727.0,568.0 6730.0,573.0 6719.0,586.0 C 6712.0,595.0 6685.0,612.0 6659.0,625.0 C 6616.0,647.0 6611.0,654.0 6601.0,700.0 C 6582.0,787.0 6587.0,828.0 6619.0,869.0 C 6653.0,912.0 6673.0,956.0 6689.0,1025.0 C 6696.0,1053.0 6717.0,1096.0 6739.0,1125.0 C 6760.0,1152.0 6801.0,1217.0 6829.0,1267.0 C 6858.0,1318.0 6903.0,1386.0 6930.0,1417.0 C 6958.0,1449.0 6980.0,1482.0 6980.0,1490.0 C 6980.0,1499.0 6992.0,1523.0 7006.0,1543.0 C 7020.0,1564.0 7030.0,1583.0 7028.0,1584.0 C 7016.0,1595.0 6962.0,1606.0 6950.0,1601.0" fill="pink"/>
</svg>
