<?xml version="1.0" ?>
<svg xmlns="http://www.w3.org/2000/svg" xmlns:ev="http://www.w3.org/2001/xml-events" xmlns:xlink="http://www.w3.org/1999/xlink" baseProfile="full" height="245px" version="1.1" viewBox="-1029.0828086173378 2612.9437121119317 12297.7955537256 5014.075478030297" width="600px">
	<defs/>
	<path d="M 2356.0,7195.0 C 2319.0,7187.0 2277.0,7174.0 2264.0,7165.0 C 2251.0,7157.0 2231.0,7150.0 2219.0,7150.0 C 2207.0,7150.0 2174.0,7139.0 2146.0,7126.0 C 2078.0,7094.0 2030.0,7027.0 2030.0,6965.0 C 2030.0,6941.0 2026.0,6918.0 2020.0,6915.0 C 2014.0,6912.0 2013.0,6884.0 2017.0,6848.0 L 2023.0,6787.0 L 1971.0,6793.0 C 1942.0,6797.0 1911.0,6805.0 1902.0,6812.0 C 1894.0,6819.0 1858.0,6827.0 1822.0,6830.0 C 1771.0,6834.0 1755.0,6839.0 1746.0,6855.0 C 1740.0,6866.0 1734.0,6877.0 1732.0,6879.0 C 1729.0,6884.0 1588.0,6852.0 1535.0,6834.0 C 1513.0,6827.0 1485.0,6823.0 1473.0,6826.0 C 1461.0,6829.0 1412.0,6827.0 1364.0,6820.0 C 1286.0,6810.0 1276.0,6811.0 1258.0,6827.0 C 1242.0,6842.0 1237.0,6842.0 1230.0,6830.0 C 1224.0,6822.0 1220.0,6812.0 1220.0,6808.0 C 1220.0,6803.0 1216.0,6800.0 1210.0,6800.0 C 1205.0,6800.0 1200.0,6811.0 1200.0,6825.0 C 1200.0,6842.0 1195.0,6850.0 1182.0,6850.0 C 1173.0,6850.0 1159.0,6859.0 1152.0,6870.0 C 1133.0,6901.0 1051.0,6898.0 1011.0,6864.0 C 983.0,6841.0 980.0,6834.0 986.0,6802.0 C 992.0,6771.0 991.0,6768.0 976.0,6773.0 C 966.0,6777.0 952.0,6780.0 944.0,6780.0 C 936.0,6780.0 930.0,6788.0 930.0,6798.0 C 930.0,6835.0 895.0,6853.0 814.0,6858.0 C 731.0,6863.0 693.0,6851.0 688.0,6817.0 C 686.0,6803.0 672.0,6792.0 644.0,6783.0 C 612.0,6772.0 599.0,6761.0 589.0,6737.0 C 582.0,6719.0 570.0,6701.0 563.0,6697.0 C 556.0,6693.0 550.0,6680.0 550.0,6670.0 C 550.0,6656.0 543.0,6650.0 526.0,6650.0 C 493.0,6650.0 448.0,6612.0 455.0,6590.0 C 467.0,6553.0 453.0,6545.0 389.0,6548.0 C 323.0,6552.0 310.0,6545.0 310.0,6503.0 C 310.0,6490.0 301.0,6471.0 290.0,6460.0 C 279.0,6449.0 268.0,6429.0 264.0,6415.0 C 255.0,6379.0 242.0,6375.0 216.0,6399.0 C 184.0,6430.0 156.0,6425.0 125.0,6385.0 C 100.0,6352.0 97.0,6320.0 118.0,6320.0 C 123.0,6320.0 127.0,6299.0 128.0,6273.0 C 128.0,6246.0 132.0,6183.0 135.0,6132.0 L 142.0,6038.0 L 106.0,6004.0 C 86.0,5985.0 63.0,5970.0 55.0,5970.0 C 36.0,5970.0 0.0,5913.0 0.0,5884.0 C 0.0,5861.0 66.0,5755.0 98.0,5726.0 C 110.0,5716.0 154.0,5693.0 197.0,5676.0 C 269.0,5647.0 280.0,5645.0 345.0,5652.0 C 450.0,5664.0 469.0,5658.0 508.0,5601.0 C 531.0,5567.0 554.0,5547.0 582.0,5535.0 C 621.0,5520.0 623.0,5520.0 689.0,5550.0 C 765.0,5585.0 882.0,5620.0 923.0,5620.0 C 939.0,5620.0 966.0,5609.0 985.0,5595.0 C 1016.0,5571.0 1022.0,5570.0 1078.0,5579.0 C 1111.0,5584.0 1152.0,5596.0 1169.0,5604.0 C 1210.0,5626.0 1249.0,5624.0 1276.0,5599.0 C 1294.0,5582.0 1302.0,5580.0 1319.0,5589.0 C 1368.0,5616.0 1505.0,5561.0 1516.0,5510.0 C 1519.0,5496.0 1530.0,5465.0 1541.0,5440.0 C 1562.0,5392.0 1582.0,5282.0 1582.0,5215.0 C 1582.0,5171.0 1596.0,5156.0 1652.0,5140.0 C 1673.0,5134.0 1694.0,5121.0 1699.0,5111.0 C 1705.0,5101.0 1724.0,5087.0 1742.0,5080.0 C 1795.0,5059.0 1850.0,5001.0 1862.0,4952.0 C 1868.0,4927.0 1884.0,4900.0 1900.0,4886.0 C 1915.0,4874.0 1931.0,4848.0 1935.0,4829.0 C 1939.0,4810.0 1950.0,4786.0 1960.0,4775.0 C 1970.0,4764.0 1981.0,4745.0 1985.0,4732.0 C 1994.0,4702.0 2018.0,4691.0 2090.0,4683.0 C 2140.0,4678.0 2154.0,4680.0 2170.0,4695.0 C 2188.0,4711.0 2195.0,4712.0 2224.0,4702.0 C 2242.0,4695.0 2266.0,4690.0 2278.0,4690.0 C 2291.0,4690.0 2318.0,4679.0 2340.0,4665.0 C 2363.0,4651.0 2394.0,4637.0 2410.0,4633.0 C 2427.0,4630.0 2440.0,4622.0 2440.0,4615.0 C 2440.0,4608.0 2456.0,4590.0 2476.0,4575.0 C 2508.0,4551.0 2512.0,4543.0 2507.0,4514.0 C 2504.0,4496.0 2492.0,4469.0 2481.0,4453.0 C 2462.0,4427.0 2461.0,4419.0 2470.0,4335.0 C 2476.0,4286.0 2485.0,4244.0 2490.0,4242.0 C 2495.0,4240.0 2518.0,4226.0 2542.0,4210.0 C 2566.0,4193.0 2590.0,4180.0 2596.0,4180.0 C 2616.0,4180.0 2660.0,4128.0 2660.0,4104.0 C 2660.0,4052.0 2689.0,4004.0 2735.0,3982.0 C 2760.0,3970.0 2780.0,3956.0 2780.0,3950.0 C 2780.0,3945.0 2789.0,3940.0 2799.0,3940.0 C 2810.0,3940.0 2827.0,3925.0 2839.0,3905.0 C 2850.0,3886.0 2875.0,3862.0 2895.0,3853.0 C 2915.0,3844.0 2930.0,3829.0 2930.0,3819.0 C 2930.0,3792.0 2955.0,3789.0 3014.0,3810.0 C 3061.0,3826.0 3102.0,3828.0 3326.0,3830.0 C 3469.0,3830.0 3629.0,3833.0 3684.0,3836.0 L 3782.0,3841.0 L 3864.0,3789.0 C 3973.0,3719.0 4007.0,3716.0 4118.0,3765.0 C 4222.0,3810.0 4311.0,3830.0 4418.0,3830.0 L 4502.0,3830.0 L 4582.0,3775.0 C 4627.0,3744.0 4673.0,3720.0 4687.0,3720.0 C 4721.0,3720.0 4879.0,3623.0 4890.0,3596.0 C 4907.0,3550.0 5022.0,3435.0 5079.0,3408.0 C 5110.0,3392.0 5141.0,3380.0 5147.0,3380.0 C 5154.0,3380.0 5176.0,3345.0 5195.0,3302.0 C 5231.0,3224.0 5232.0,3223.0 5285.0,3206.0 C 5323.0,3194.0 5346.0,3180.0 5366.0,3153.0 C 5385.0,3128.0 5419.0,3105.0 5484.0,3075.0 C 5571.0,3034.0 5579.0,3032.0 5645.0,3037.0 C 5707.0,3042.0 5721.0,3047.0 5768.0,3082.0 C 5819.0,3120.0 5820.0,3122.0 5820.0,3170.0 C 5820.0,3198.0 5816.0,3220.0 5811.0,3220.0 C 5792.0,3220.0 5740.0,3272.0 5740.0,3291.0 C 5740.0,3301.0 5745.0,3310.0 5750.0,3310.0 C 5763.0,3310.0 5763.0,3337.0 5749.0,3345.0 C 5744.0,3349.0 5724.0,3345.0 5705.0,3336.0 C 5687.0,3327.0 5651.0,3317.0 5625.0,3314.0 C 5587.0,3308.0 5575.0,3311.0 5557.0,3328.0 C 5544.0,3340.0 5513.0,3351.0 5483.0,3355.0 C 5433.0,3361.0 5430.0,3364.0 5430.0,3390.0 C 5430.0,3410.0 5439.0,3425.0 5458.0,3439.0 C 5501.0,3469.0 5508.0,3468.0 5527.0,3431.0 C 5537.0,3412.0 5555.0,3393.0 5568.0,3389.0 C 5588.0,3381.0 5590.0,3384.0 5592.0,3415.0 C 5593.0,3434.0 5594.0,3458.0 5594.0,3467.0 C 5595.0,3477.0 5585.0,3486.0 5572.0,3490.0 C 5543.0,3496.0 5542.0,3514.0 5570.0,3518.0 C 5585.0,3521.0 5590.0,3529.0 5590.0,3550.0 C 5590.0,3590.0 5622.0,3611.0 5663.0,3599.0 C 5734.0,3579.0 5766.0,3595.0 5708.0,3621.0 C 5660.0,3642.0 5653.0,3684.0 5685.0,3748.0 C 5699.0,3777.0 5710.0,3815.0 5710.0,3838.0 C 5710.0,3874.0 5716.0,3885.0 5761.0,3930.0 C 5831.0,4000.0 5853.0,4013.0 5889.0,4005.0 C 5912.0,4000.0 5924.0,4004.0 5939.0,4019.0 C 5961.0,4041.0 5980.0,4046.0 5980.0,4030.0 C 5980.0,4010.0 6020.0,4021.0 6036.0,4045.0 C 6055.0,4074.0 6070.0,4069.0 6070.0,4034.0 C 6070.0,4005.0 6081.0,4003.0 6105.0,4030.0 C 6121.0,4048.0 6124.0,4048.0 6154.0,4034.0 C 6194.0,4013.0 6248.0,3963.0 6266.0,3928.0 C 6284.0,3894.0 6285.0,3839.0 6268.0,3841.0 C 6235.0,3845.0 6230.0,3839.0 6230.0,3790.0 C 6230.0,3738.0 6245.0,3725.0 6270.0,3755.0 C 6289.0,3777.0 6362.0,3774.0 6393.0,3750.0 C 6419.0,3729.0 6470.0,3723.0 6470.0,3740.0 C 6470.0,3745.0 6477.0,3747.0 6485.0,3744.0 C 6493.0,3740.0 6502.0,3745.0 6506.0,3754.0 C 6515.0,3778.0 6561.0,3775.0 6567.0,3750.0 C 6570.0,3739.0 6579.0,3730.0 6586.0,3730.0 C 6594.0,3730.0 6600.0,3724.0 6600.0,3716.0 C 6600.0,3700.0 6625.0,3705.0 6720.0,3738.0 C 6767.0,3755.0 6778.0,3763.0 6795.0,3799.0 C 6806.0,3823.0 6821.0,3840.0 6831.0,3840.0 C 6842.0,3840.0 6853.0,3853.0 6859.0,3873.0 C 6872.0,3911.0 6928.0,4005.0 6958.0,4038.0 L 6979.0,4060.0 L 6957.0,4060.0 C 6923.0,4060.0 6907.0,4075.0 6915.0,4099.0 C 6920.0,4116.0 6929.0,4120.0 6961.0,4120.0 C 6999.0,4120.0 7000.0,4121.0 7000.0,4153.0 C 7000.0,4176.0 7008.0,4194.0 7025.0,4210.0 C 7039.0,4223.0 7050.0,4244.0 7050.0,4256.0 C 7050.0,4269.0 7059.0,4284.0 7069.0,4290.0 C 7080.0,4295.0 7099.0,4314.0 7111.0,4332.0 L 7134.0,4363.0 L 7102.0,4357.0 C 7071.0,4351.0 7070.0,4352.0 7076.0,4378.0 C 7080.0,4393.0 7094.0,4426.0 7109.0,4452.0 C 7130.0,4491.0 7140.0,4500.0 7162.0,4500.0 C 7200.0,4500.0 7220.0,4490.0 7220.0,4471.0 C 7220.0,4448.0 7297.0,4376.0 7340.0,4359.0 C 7377.0,4345.0 7472.0,4342.0 7555.0,4354.0 C 7601.0,4361.0 7609.0,4359.0 7655.0,4328.0 C 7682.0,4310.0 7706.0,4287.0 7708.0,4277.0 C 7711.0,4262.0 7700.0,4260.0 7586.0,4260.0 L 7460.0,4260.0 L 7434.0,4231.0 C 7412.0,4206.0 7404.0,4203.0 7383.0,4211.0 C 7369.0,4216.0 7337.0,4225.0 7311.0,4230.0 C 7286.0,4236.0 7255.0,4245.0 7244.0,4251.0 C 7226.0,4260.0 7216.0,4258.0 7190.0,4239.0 L 7158.0,4215.0 L 7222.0,4209.0 C 7256.0,4206.0 7321.0,4193.0 7364.0,4182.0 C 7471.0,4152.0 7484.0,4153.0 7516.0,4195.0 L 7542.0,4230.0 L 7627.0,4230.0 C 7673.0,4230.0 7719.0,4234.0 7729.0,4240.0 C 7741.0,4246.0 7766.0,4246.0 7801.0,4239.0 C 7831.0,4233.0 7883.0,4225.0 7918.0,4221.0 C 7968.0,4214.0 7988.0,4206.0 8013.0,4182.0 C 8031.0,4166.0 8055.0,4149.0 8066.0,4146.0 C 8078.0,4142.0 8093.0,4126.0 8100.0,4110.0 C 8112.0,4080.0 8116.0,4078.0 8155.0,4076.0 C 8170.0,4075.0 8177.0,4065.0 8182.0,4035.0 C 8186.0,4013.0 8198.0,3967.0 8210.0,3934.0 C 8230.0,3879.0 8236.0,3871.0 8268.0,3862.0 C 8289.0,3856.0 8338.0,3848.0 8378.0,3845.0 C 8418.0,3842.0 8467.0,3833.0 8487.0,3825.0 C 8528.0,3808.0 8560.0,3806.0 8560.0,3820.0 C 8560.0,3825.0 8546.0,3836.0 8528.0,3843.0 C 8510.0,3850.0 8500.0,3859.0 8506.0,3863.0 C 8512.0,3866.0 8540.0,3858.0 8569.0,3844.0 C 8603.0,3829.0 8640.0,3820.0 8673.0,3820.0 C 8721.0,3819.0 8723.0,3818.0 8706.0,3805.0 C 8693.0,3795.0 8663.0,3790.0 8623.0,3790.0 C 8574.0,3790.0 8560.0,3787.0 8560.0,3775.0 C 8560.0,3763.0 8575.0,3760.0 8639.0,3760.0 C 8715.0,3760.0 8719.0,3761.0 8743.0,3790.0 C 8757.0,3806.0 8770.0,3824.0 8772.0,3830.0 C 8777.0,3845.0 8943.0,3875.0 9102.0,3890.0 L 9229.0,3902.0 L 9309.0,3871.0 C 9353.0,3854.0 9403.0,3840.0 9420.0,3840.0 C 9440.0,3840.0 9450.0,3835.0 9450.0,3825.0 C 9450.0,3801.0 9501.0,3806.0 9507.0,3830.0 C 9510.0,3841.0 9516.0,3850.0 9521.0,3850.0 C 9526.0,3850.0 9530.0,3870.0 9530.0,3895.0 C 9530.0,3934.0 9533.0,3940.0 9555.0,3946.0 C 9589.0,3954.0 9613.0,3934.0 9605.0,3902.0 C 9602.0,3889.0 9604.0,3873.0 9609.0,3866.0 C 9622.0,3850.0 9690.0,3858.0 9697.0,3876.0 C 9700.0,3884.0 9711.0,3890.0 9721.0,3890.0 C 9732.0,3890.0 9743.0,3896.0 9746.0,3904.0 C 9755.0,3928.0 9805.0,3941.0 9827.0,3925.0 C 9843.0,3913.0 9849.0,3915.0 9877.0,3936.0 C 9900.0,3953.0 9921.0,3960.0 9955.0,3960.0 C 9994.0,3960.0 10002.0,3964.0 10012.0,3986.0 C 10019.0,4000.0 10036.0,4018.0 10051.0,4026.0 C 10083.0,4042.0 10146.0,4045.0 10155.0,4030.0 C 10165.0,4013.0 10207.0,4019.0 10214.0,4038.0 C 10217.0,4047.0 10225.0,4063.0 10232.0,4073.0 C 10242.0,4086.0 10242.0,4094.0 10233.0,4108.0 C 10226.0,4117.0 10214.0,4140.0 10206.0,4158.0 C 10194.0,4184.0 10185.0,4190.0 10161.0,4190.0 C 10144.0,4190.0 10130.0,4195.0 10130.0,4201.0 C 10130.0,4208.0 10113.0,4211.0 10085.0,4208.0 C 10060.0,4206.0 10040.0,4208.0 10040.0,4212.0 C 10040.0,4216.0 10027.0,4234.0 10010.0,4253.0 C 9994.0,4272.0 9984.0,4291.0 9989.0,4296.0 C 9993.0,4301.0 10002.0,4324.0 10009.0,4348.0 C 10020.0,4388.0 10020.0,4392.0 9998.0,4411.0 C 9985.0,4422.0 9963.0,4435.0 9949.0,4441.0 C 9917.0,4453.0 9900.0,4488.0 9900.0,4541.0 C 9900.0,4575.0 9895.0,4584.0 9870.0,4598.0 C 9848.0,4610.0 9840.0,4623.0 9840.0,4642.0 C 9840.0,4657.0 9834.0,4673.0 9826.0,4677.0 C 9818.0,4681.0 9810.0,4707.0 9807.0,4735.0 C 9797.0,4843.0 9731.0,4974.0 9659.0,5031.0 C 9625.0,5058.0 9620.0,5067.0 9620.0,5104.0 C 9620.0,5142.0 9617.0,5148.0 9585.0,5163.0 C 9553.0,5178.0 9550.0,5183.0 9550.0,5223.0 C 9550.0,5278.0 9527.0,5314.0 9500.0,5300.0 C 9477.0,5288.0 9470.0,5287.0 9470.0,5299.0 C 9470.0,5318.0 9413.0,5368.0 9383.0,5374.0 C 9366.0,5378.0 9349.0,5388.0 9346.0,5396.0 C 9339.0,5413.0 9310.0,5415.0 9310.0,5398.0 C 9310.0,5389.0 9307.0,5389.0 9298.0,5398.0 C 9291.0,5405.0 9270.0,5410.0 9250.0,5410.0 C 9230.0,5410.0 9209.0,5415.0 9204.0,5420.0 C 9197.0,5427.0 9185.0,5428.0 9167.0,5421.0 C 9146.0,5413.0 9140.0,5414.0 9140.0,5424.0 C 9140.0,5431.0 9122.0,5445.0 9101.0,5455.0 C 9065.0,5471.0 9060.0,5471.0 9039.0,5456.0 C 8989.0,5421.0 8926.0,5446.0 8892.0,5513.0 C 8880.0,5538.0 8864.0,5562.0 8857.0,5567.0 C 8843.0,5579.0 8760.0,5572.0 8760.0,5559.0 C 8760.0,5554.0 8747.0,5550.0 8731.0,5550.0 C 8714.0,5550.0 8698.0,5546.0 8695.0,5540.0 C 8686.0,5525.0 8654.0,5528.0 8640.0,5545.0 C 8625.0,5563.0 8591.0,5564.0 8558.0,5549.0 C 8514.0,5530.0 8444.0,5566.0 8381.0,5640.0 C 8351.0,5676.0 8320.0,5707.0 8313.0,5708.0 C 8305.0,5710.0 8281.0,5705.0 8259.0,5696.0 C 8189.0,5668.0 8138.0,5675.0 8071.0,5720.0 C 8039.0,5742.0 7992.0,5784.0 7967.0,5814.0 L 7921.0,5867.0 L 7807.0,5882.0 C 7723.0,5893.0 7684.0,5903.0 7662.0,5919.0 C 7631.0,5941.0 7585.0,5947.0 7575.0,5930.0 C 7572.0,5925.0 7551.0,5916.0 7530.0,5910.0 C 7474.0,5895.0 7435.0,5917.0 7406.0,5980.0 C 7393.0,6007.0 7366.0,6050.0 7345.0,6075.0 C 7317.0,6110.0 7310.0,6124.0 7319.0,6133.0 C 7334.0,6148.0 7333.0,6193.0 7318.0,6208.0 C 7311.0,6215.0 7299.0,6220.0 7289.0,6220.0 C 7258.0,6220.0 7176.0,6272.0 7113.0,6330.0 C 7055.0,6384.0 7006.0,6410.0 6959.0,6410.0 C 6937.0,6410.0 6910.0,6442.0 6910.0,6469.0 C 6910.0,6482.0 6918.0,6514.0 6927.0,6541.0 C 6952.0,6610.0 6942.0,6617.0 6810.0,6625.0 L 6705.0,6632.0 L 6665.0,6597.0 C 6627.0,6564.0 6625.0,6563.0 6591.0,6577.0 C 6572.0,6585.0 6544.0,6589.0 6528.0,6586.0 C 6508.0,6582.0 6485.0,6587.0 6457.0,6602.0 C 6422.0,6620.0 6409.0,6621.0 6377.0,6613.0 C 6342.0,6603.0 6338.0,6604.0 6328.0,6625.0 C 6320.0,6642.0 6301.0,6653.0 6255.0,6665.0 C 6197.0,6681.0 6190.0,6681.0 6169.0,6666.0 C 6156.0,6657.0 6134.0,6650.0 6120.0,6650.0 C 6106.0,6650.0 6080.0,6641.0 6061.0,6629.0 C 6034.0,6613.0 6018.0,6610.0 5975.0,6615.0 C 5941.0,6620.0 5920.0,6618.0 5916.0,6611.0 C 5904.0,6592.0 5867.0,6599.0 5841.0,6624.0 C 5826.0,6638.0 5787.0,6655.0 5750.0,6664.0 C 5698.0,6677.0 5679.0,6688.0 5655.0,6717.0 C 5630.0,6745.0 5610.0,6757.0 5555.0,6772.0 C 5516.0,6782.0 5472.0,6793.0 5455.0,6796.0 C 5391.0,6807.0 5380.0,6811.0 5380.0,6824.0 C 5380.0,6840.0 5338.0,6860.0 5303.0,6860.0 C 5289.0,6860.0 5261.0,6864.0 5241.0,6869.0 C 5202.0,6879.0 5013.0,6917.0 4967.0,6923.0 C 4948.0,6926.0 4936.0,6922.0 4930.0,6910.0 C 4917.0,6886.0 4722.0,6873.0 4682.0,6894.0 C 4650.0,6910.0 4534.0,6915.0 4525.0,6900.0 C 4517.0,6887.0 4493.0,6887.0 4477.0,6900.0 C 4391.0,6970.0 4372.0,6975.0 4329.0,6934.0 L 4303.0,6909.0 L 4273.0,6938.0 C 4245.0,6966.0 4241.0,6967.0 4173.0,6963.0 C 4118.0,6959.0 4097.0,6961.0 4079.0,6974.0 C 4065.0,6984.0 4036.0,6990.0 4005.0,6990.0 C 3974.0,6990.0 3941.0,6998.0 3917.0,7010.0 C 3882.0,7029.0 3868.0,7030.0 3748.0,7024.0 C 3642.0,7018.0 3615.0,7014.0 3601.0,6999.0 C 3585.0,6982.0 3583.0,6982.0 3538.0,7010.0 C 3486.0,7042.0 3440.0,7058.0 3440.0,7042.0 C 3440.0,7037.0 3447.0,7027.0 3455.0,7020.0 C 3501.0,6982.0 3422.0,6978.0 3373.0,7016.0 C 3346.0,7037.0 3323.0,7044.0 3272.0,7047.0 C 3210.0,7052.0 3206.0,7051.0 3225.0,7036.0 C 3244.0,7021.0 3244.0,7021.0 3212.0,7020.0 C 3173.0,7020.0 3153.0,7029.0 3084.0,7082.0 C 3037.0,7117.0 3026.0,7121.0 2936.0,7130.0 C 2883.0,7135.0 2826.0,7147.0 2811.0,7155.0 C 2730.0,7197.0 2474.0,7219.0 2356.0,7195.0" fill="pink"/>
</svg>
