<?xml version="1.0" ?>
<svg xmlns="http://www.w3.org/2000/svg" xmlns:ev="http://www.w3.org/2001/xml-events" xmlns:xlink="http://www.w3.org/1999/xlink" baseProfile="full" height="600px" version="1.1" viewBox="-196.6828472775959 -1021.9970027393124 10637.031073270544 12289.375193357486" width="520px">
	<defs/>
	<path d="M 7537.0,10205.0 C 7519.0,10167.0 7479.0,10150.0 7455.0,10170.0 C 7434.0,10187.0 7423.0,10175.0 7428.0,10142.0 C 7430.0,10126.0 7425.0,10092.0 7416.0,10066.0 L 7400.0,10019.0 L 7438.0,9942.0 C 7459.0,9900.0 7492.0,9830.0 7510.0,9787.0 C 7542.0,9713.0 7543.0,9708.0 7531.0,9661.0 C 7522.0,9625.0 7521.0,9606.0 7529.0,9591.0 C 7545.0,9562.0 7543.0,9538.0 7520.0,9489.0 C 7504.0,9452.0 7500.0,9423.0 7500.0,9307.0 C 7500.0,9169.0 7500.0,9169.0 7473.0,9145.0 C 7457.0,9132.0 7433.0,9116.0 7418.0,9110.0 C 7404.0,9103.0 7386.0,9085.0 7379.0,9069.0 C 7362.0,9026.0 7374.0,8897.0 7400.0,8855.0 C 7440.0,8790.0 7421.0,8714.0 7349.0,8662.0 C 7310.0,8633.0 7305.0,8632.0 7280.0,8645.0 C 7266.0,8652.0 7248.0,8665.0 7242.0,8673.0 C 7228.0,8689.0 7176.0,8684.0 7160.0,8665.0 C 7146.0,8649.0 7086.0,8676.0 7072.0,8706.0 C 7060.0,8731.0 6972.0,8754.0 6953.0,8738.0 C 6946.0,8732.0 6940.0,8731.0 6940.0,8735.0 C 6940.0,8748.0 6908.0,8716.0 6900.0,8695.0 C 6892.0,8674.0 6913.0,8620.0 6929.0,8620.0 C 6934.0,8620.0 6954.0,8597.0 6974.0,8570.0 L 7010.0,8519.0 L 6984.0,8495.0 C 6970.0,8482.0 6945.0,8459.0 6929.0,8443.0 C 6912.0,8428.0 6896.0,8403.0 6893.0,8388.0 C 6888.0,8364.0 6883.0,8360.0 6854.0,8360.0 C 6828.0,8360.0 6816.0,8354.0 6803.0,8333.0 C 6780.0,8297.0 6770.0,8290.0 6740.0,8290.0 C 6704.0,8290.0 6663.0,8228.0 6677.0,8197.0 C 6689.0,8171.0 6679.0,8088.0 6661.0,8066.0 C 6643.0,8045.0 6658.0,8002.0 6691.0,7983.0 C 6707.0,7973.0 6722.0,7958.0 6725.0,7949.0 C 6731.0,7931.0 6783.0,7888.0 6812.0,7877.0 C 6821.0,7874.0 6834.0,7852.0 6840.0,7829.0 C 6850.0,7792.0 6848.0,7778.0 6821.0,7696.0 C 6804.0,7645.0 6790.0,7587.0 6790.0,7567.0 C 6790.0,7516.0 6818.0,7450.0 6840.0,7450.0 C 6850.0,7450.0 6870.0,7447.0 6886.0,7444.0 C 6911.0,7439.0 6916.0,7442.0 6927.0,7469.0 C 6934.0,7489.0 6945.0,7500.0 6957.0,7500.0 C 6996.0,7500.0 7015.0,7526.0 7015.0,7577.0 C 7015.0,7619.0 7018.0,7626.0 7043.0,7638.0 C 7058.0,7645.0 7080.0,7664.0 7091.0,7680.0 C 7109.0,7704.0 7116.0,7707.0 7137.0,7699.0 C 7150.0,7694.0 7185.0,7690.0 7213.0,7690.0 C 7242.0,7690.0 7273.0,7683.0 7283.0,7675.0 C 7300.0,7663.0 7306.0,7665.0 7341.0,7688.0 C 7362.0,7703.0 7379.0,7720.0 7380.0,7726.0 C 7380.0,7742.0 7315.0,7790.0 7293.0,7790.0 C 7271.0,7790.0 7200.0,7855.0 7200.0,7875.0 C 7200.0,7883.0 7194.0,7893.0 7187.0,7897.0 C 7180.0,7901.0 7166.0,7918.0 7156.0,7933.0 C 7140.0,7960.0 7137.0,7960.0 7121.0,7946.0 C 7084.0,7913.0 7033.0,7931.0 6953.0,8004.0 C 6865.0,8084.0 6957.0,8229.0 7084.0,8210.0 C 7130.0,8203.0 7199.0,8156.0 7248.0,8098.0 C 7277.0,8064.0 7287.0,8063.0 7295.0,8093.0 C 7306.0,8127.0 7341.0,8160.0 7366.0,8160.0 C 7379.0,8160.0 7395.0,8168.0 7402.0,8178.0 C 7409.0,8187.0 7447.0,8217.0 7485.0,8243.0 C 7548.0,8285.0 7561.0,8290.0 7611.0,8290.0 C 7650.0,8290.0 7674.0,8284.0 7691.0,8272.0 C 7704.0,8261.0 7737.0,8245.0 7764.0,8234.0 C 7792.0,8224.0 7847.0,8194.0 7888.0,8168.0 C 7998.0,8095.0 8134.0,8030.0 8174.0,8030.0 C 8226.0,8030.0 8300.0,7994.0 8353.0,7942.0 L 8400.0,7896.0 L 8400.0,7930.0 C 8400.0,7949.0 8407.0,7988.0 8416.0,8015.0 C 8425.0,8046.0 8429.0,8081.0 8425.0,8107.0 C 8415.0,8176.0 8444.0,8253.0 8526.0,8377.0 C 8567.0,8438.0 8613.0,8496.0 8628.0,8506.0 C 8643.0,8516.0 8682.0,8549.0 8715.0,8580.0 C 8764.0,8627.0 8783.0,8639.0 8821.0,8644.0 C 8846.0,8648.0 8878.0,8646.0 8892.0,8641.0 C 8906.0,8636.0 8952.0,8634.0 8994.0,8637.0 L 9070.0,8643.0 L 9070.0,8677.0 C 9070.0,8704.0 9075.0,8712.0 9096.0,8720.0 C 9132.0,8734.0 9142.0,8732.0 9136.0,8713.0 C 9133.0,8703.0 9135.0,8689.0 9139.0,8681.0 C 9153.0,8660.0 9215.0,8705.0 9235.0,8750.0 C 9248.0,8778.0 9261.0,8789.0 9303.0,8804.0 C 9332.0,8814.0 9370.0,8825.0 9388.0,8827.0 C 9415.0,8831.0 9425.0,8840.0 9445.0,8881.0 C 9463.0,8916.0 9482.0,8935.0 9510.0,8950.0 C 9551.0,8971.0 9560.0,8985.0 9538.0,8992.0 C 9511.0,9001.0 9477.0,8986.0 9430.0,8943.0 C 9391.0,8908.0 9376.0,8900.0 9358.0,8905.0 C 9324.0,8916.0 9300.0,8940.0 9300.0,8964.0 C 9300.0,8976.0 9293.0,8994.0 9285.0,9004.0 C 9277.0,9015.0 9267.0,9045.0 9264.0,9071.0 C 9259.0,9111.0 9253.0,9120.0 9229.0,9130.0 C 9183.0,9150.0 9168.0,9182.0 9176.0,9248.0 C 9179.0,9279.0 9193.0,9331.0 9206.0,9362.0 C 9219.0,9394.0 9230.0,9426.0 9230.0,9433.0 C 9230.0,9441.0 9239.0,9459.0 9250.0,9473.0 C 9271.0,9499.0 9276.0,9555.0 9260.0,9580.0 C 9253.0,9592.0 9248.0,9592.0 9232.0,9576.0 C 9221.0,9567.0 9206.0,9544.0 9199.0,9527.0 C 9192.0,9509.0 9160.0,9467.0 9128.0,9433.0 C 9096.0,9399.0 9070.0,9367.0 9070.0,9361.0 C 9070.0,9356.0 9051.0,9338.0 9028.0,9322.0 C 8986.0,9293.0 8983.0,9293.0 8900.0,9300.0 C 8797.0,9309.0 8784.0,9314.0 8764.0,9351.0 C 8746.0,9386.0 8735.0,9388.0 8725.0,9358.0 C 8717.0,9336.0 8717.0,9336.0 8713.0,9362.0 C 8708.0,9391.0 8704.0,9394.0 8616.0,9409.0 C 8536.0,9424.0 8534.0,9423.0 8561.0,9400.0 L 8585.0,9381.0 L 8549.0,9380.0 C 8515.0,9380.0 8480.0,9403.0 8480.0,9426.0 C 8480.0,9431.0 8453.0,9445.0 8419.0,9458.0 C 8311.0,9500.0 8145.0,9616.0 8028.0,9732.0 C 7968.0,9790.0 7920.0,9844.0 7920.0,9852.0 C 7920.0,9877.0 7831.0,9997.0 7797.0,10019.0 C 7779.0,10030.0 7741.0,10063.0 7713.0,10092.0 C 7685.0,10121.0 7638.0,10166.0 7608.0,10192.0 L 7553.0,10239.0 L 7537.0,10205.0" fill="pink"/>
	<path d="M 7136.0,10143.0 C 7145.0,10094.0 7158.0,10068.0 7173.0,10073.0 C 7204.0,10083.0 7178.0,10180.0 7144.0,10180.0 C 7132.0,10180.0 7130.0,10172.0 7136.0,10143.0" fill="pink"/>
	<path d="M 7234.0,10029.0 C 7221.0,10014.0 7219.0,10007.0 7228.0,9998.0 C 7235.0,9991.0 7240.0,9976.0 7240.0,9963.0 C 7240.0,9932.0 7279.0,9932.0 7308.0,9963.0 C 7335.0,9991.0 7335.0,10002.0 7313.0,10022.0 C 7283.0,10047.0 7253.0,10050.0 7234.0,10029.0" fill="pink"/>
	<path d="M 6533.0,7980.0 C 6505.0,7968.0 6496.0,7937.0 6513.0,7905.0 C 6525.0,7881.0 6528.0,7880.0 6540.0,7894.0 C 6554.0,7911.0 6572.0,7990.0 6561.0,7989.0 C 6558.0,7989.0 6545.0,7985.0 6533.0,7980.0" fill="pink"/>
	<path d="M 7237.0,7476.0 C 7204.0,7403.0 7191.0,7308.0 7210.0,7285.0 C 7221.0,7271.0 7228.0,7273.0 7266.0,7295.0 C 7289.0,7309.0 7318.0,7320.0 7330.0,7320.0 C 7341.0,7320.0 7362.0,7331.0 7376.0,7345.0 C 7390.0,7359.0 7405.0,7370.0 7410.0,7370.0 C 7415.0,7370.0 7429.0,7351.0 7441.0,7328.0 C 7462.0,7287.0 7462.0,7284.0 7447.0,7235.0 C 7438.0,7208.0 7429.0,7174.0 7426.0,7160.0 C 7423.0,7146.0 7416.0,7128.0 7411.0,7120.0 C 7403.0,7108.0 7399.0,7108.0 7382.0,7123.0 C 7372.0,7132.0 7360.0,7140.0 7356.0,7140.0 C 7353.0,7140.0 7332.0,7152.0 7310.0,7166.0 C 7288.0,7181.0 7267.0,7191.0 7264.0,7188.0 C 7261.0,7185.0 7254.0,7161.0 7247.0,7134.0 C 7240.0,7108.0 7231.0,7085.0 7225.0,7084.0 C 7203.0,7077.0 7179.0,7110.0 7170.0,7156.0 C 7142.0,7308.0 7131.0,7324.0 7069.0,7314.0 C 7044.0,7310.0 7030.0,7313.0 7020.0,7324.0 C 7005.0,7344.0 6990.0,7345.0 6990.0,7326.0 C 6990.0,7319.0 6981.0,7301.0 6969.0,7287.0 L 6949.0,7261.0 L 6971.0,7230.0 C 6984.0,7214.0 6999.0,7200.0 7004.0,7199.0 C 7010.0,7199.0 7004.0,7194.0 6991.0,7189.0 C 6969.0,7180.0 6968.0,7176.0 6974.0,7126.0 C 6980.0,7078.0 6979.0,7070.0 6955.0,7041.0 C 6936.0,7020.0 6916.0,7008.0 6889.0,7004.0 C 6856.0,6998.0 6844.0,6989.0 6810.0,6942.0 L 6771.0,6887.0 L 6791.0,6862.0 C 6801.0,6848.0 6810.0,6824.0 6810.0,6807.0 C 6810.0,6788.0 6820.0,6766.0 6835.0,6750.0 L 6861.0,6723.0 L 6845.0,6649.0 C 6837.0,6608.0 6830.0,6566.0 6830.0,6554.0 C 6830.0,6527.0 6770.0,6470.0 6742.0,6470.0 C 6724.0,6470.0 6720.0,6464.0 6720.0,6442.0 C 6720.0,6410.0 6754.0,6387.0 6780.0,6401.0 C 6788.0,6405.0 6803.0,6411.0 6813.0,6414.0 C 6825.0,6418.0 6830.0,6430.0 6831.0,6457.0 C 6831.0,6478.0 6834.0,6488.0 6837.0,6480.0 C 6840.0,6472.0 6849.0,6459.0 6858.0,6453.0 C 6872.0,6441.0 6872.0,6440.0 6856.0,6440.0 C 6832.0,6440.0 6841.0,6400.0 6876.0,6355.0 C 6896.0,6328.0 6900.0,6312.0 6900.0,6254.0 C 6900.0,6126.0 6889.0,6053.0 6866.0,6029.0 C 6847.0,6008.0 6800.0,5850.0 6800.0,5807.0 C 6800.0,5769.0 6766.0,5683.0 6735.0,5645.0 C 6695.0,5596.0 6665.0,5536.0 6655.0,5490.0 C 6651.0,5471.0 6642.0,5446.0 6635.0,5434.0 C 6626.0,5421.0 6622.0,5387.0 6623.0,5344.0 C 6625.0,5294.0 6620.0,5262.0 6606.0,5232.0 C 6596.0,5209.0 6584.0,5190.0 6580.0,5190.0 C 6576.0,5190.0 6525.0,5158.0 6466.0,5119.0 C 6343.0,5037.0 6290.0,4981.0 6290.0,4935.0 C 6290.0,4917.0 6279.0,4889.0 6264.0,4869.0 C 6250.0,4850.0 6228.0,4812.0 6215.0,4783.0 C 6196.0,4741.0 6177.0,4720.0 6121.0,4680.0 C 6083.0,4652.0 6044.0,4617.0 6035.0,4603.0 C 6020.0,4581.0 6013.0,4578.0 5975.0,4582.0 C 5934.0,4587.0 5929.0,4585.0 5884.0,4539.0 C 5845.0,4499.0 5829.0,4490.0 5802.0,4490.0 C 5783.0,4490.0 5751.0,4480.0 5732.0,4468.0 C 5713.0,4456.0 5674.0,4441.0 5646.0,4435.0 C 5601.0,4425.0 5594.0,4420.0 5590.0,4394.0 C 5587.0,4376.0 5569.0,4349.0 5543.0,4326.0 L 5501.0,4289.0 L 5441.0,4310.0 L 5381.0,4332.0 L 5382.0,4374.0 C 5383.0,4396.0 5390.0,4422.0 5397.0,4431.0 C 5409.0,4445.0 5408.0,4453.0 5394.0,4484.0 C 5374.0,4524.0 5368.0,4527.0 5350.0,4505.0 C 5330.0,4481.0 5300.0,4504.0 5300.0,4544.0 C 5300.0,4580.0 5323.0,4598.0 5345.0,4580.0 C 5359.0,4569.0 5390.0,4577.0 5390.0,4591.0 C 5390.0,4597.0 5413.0,4615.0 5440.0,4632.0 C 5484.0,4659.0 5490.0,4667.0 5490.0,4697.0 C 5490.0,4723.0 5495.0,4733.0 5510.0,4737.0 C 5534.0,4743.0 5538.0,4788.0 5515.0,4796.0 C 5495.0,4804.0 5432.0,4783.0 5387.0,4752.0 C 5367.0,4738.0 5326.0,4721.0 5298.0,4714.0 C 5234.0,4697.0 5215.0,4680.0 5196.0,4622.0 C 5176.0,4564.0 5176.0,4542.0 5196.0,4538.0 C 5207.0,4536.0 5214.0,4523.0 5216.0,4500.0 C 5217.0,4481.0 5222.0,4438.0 5225.0,4404.0 C 5231.0,4351.0 5229.0,4337.0 5207.0,4294.0 C 5165.0,4212.0 5034.0,4035.0 4985.0,3994.0 C 4929.0,3947.0 4921.0,3939.0 4868.0,3875.0 C 4812.0,3807.0 4798.0,3772.0 4816.0,3746.0 C 4824.0,3735.0 4830.0,3718.0 4830.0,3709.0 C 4830.0,3700.0 4841.0,3685.0 4854.0,3676.0 C 4887.0,3655.0 4894.0,3628.0 4876.0,3588.0 C 4864.0,3560.0 4862.0,3559.0 4861.0,3578.0 C 4860.0,3601.0 4853.0,3604.0 4826.0,3594.0 C 4816.0,3590.0 4810.0,3576.0 4810.0,3553.0 L 4810.0,3517.0 L 4770.0,3523.0 C 4737.0,3527.0 4731.0,3526.0 4740.0,3515.0 C 4756.0,3495.0 4733.0,3461.0 4708.0,3468.0 C 4694.0,3471.0 4687.0,3466.0 4683.0,3451.0 C 4679.0,3437.0 4670.0,3430.0 4653.0,3430.0 C 4632.0,3430.0 4631.0,3433.0 4640.0,3450.0 C 4651.0,3470.0 4650.0,3470.0 4615.0,3453.0 C 4584.0,3438.0 4578.0,3438.0 4570.0,3450.0 C 4564.0,3458.0 4560.0,3461.0 4560.0,3456.0 C 4560.0,3451.0 4549.0,3457.0 4535.0,3470.0 C 4511.0,3492.0 4508.0,3493.0 4493.0,3477.0 C 4480.0,3464.0 4479.0,3458.0 4490.0,3446.0 C 4500.0,3433.0 4500.0,3430.0 4486.0,3430.0 C 4469.0,3430.0 4430.0,3464.0 4430.0,3479.0 C 4430.0,3484.0 4424.0,3490.0 4418.0,3493.0 C 4408.0,3496.0 4408.0,3500.0 4416.0,3511.0 C 4430.0,3528.0 4440.0,3579.0 4433.0,3597.0 C 4426.0,3615.0 4356.0,3614.0 4340.0,3595.0 C 4333.0,3587.0 4321.0,3580.0 4314.0,3580.0 C 4307.0,3580.0 4293.0,3569.0 4284.0,3555.0 C 4266.0,3527.0 4244.0,3524.0 4207.0,3543.0 C 4193.0,3551.0 4146.0,3557.0 4102.0,3558.0 C 4019.0,3561.0 3949.0,3539.0 3905.0,3499.0 C 3890.0,3486.0 3862.0,3479.0 3810.0,3475.0 C 3769.0,3472.0 3700.0,3464.0 3658.0,3458.0 C 3599.0,3450.0 3573.0,3450.0 3551.0,3460.0 C 3526.0,3470.0 3516.0,3468.0 3482.0,3451.0 C 3435.0,3427.0 3375.0,3421.0 3358.0,3438.0 C 3337.0,3459.0 3326.0,3451.0 3346.0,3429.0 L 3365.0,3407.0 L 3325.0,3414.0 C 3278.0,3423.0 3276.0,3425.0 3284.0,3445.0 C 3289.0,3458.0 3301.0,3465.0 3359.0,3486.0 C 3367.0,3488.0 3370.0,3494.0 3366.0,3497.0 C 3357.0,3507.0 3236.0,3518.0 3230.0,3511.0 C 3216.0,3495.0 3155.0,3470.0 3129.0,3470.0 C 3113.0,3470.0 3078.0,3458.0 3050.0,3443.0 C 3010.0,3420.0 3000.0,3410.0 3000.0,3388.0 C 3000.0,3356.0 2945.0,3298.0 2887.0,3269.0 C 2867.0,3258.0 2850.0,3246.0 2850.0,3241.0 C 2850.0,3220.0 2797.0,3171.0 2754.0,3151.0 C 2729.0,3139.0 2666.0,3089.0 2616.0,3039.0 C 2565.0,2990.0 2516.0,2950.0 2507.0,2950.0 C 2464.0,2950.0 2401.0,2907.0 2332.0,2831.0 C 2255.0,2745.0 2240.0,2739.0 2189.0,2766.0 C 2147.0,2787.0 2086.0,2776.0 2038.0,2737.0 C 1998.0,2705.0 1990.0,2680.0 2015.0,2660.0 C 2038.0,2641.0 2034.0,2599.0 2009.0,2593.0 C 1991.0,2588.0 1989.0,2582.0 1994.0,2551.0 C 1997.0,2531.0 2000.0,2507.0 2000.0,2498.0 C 2000.0,2488.0 2007.0,2480.0 2015.0,2480.0 C 2047.0,2480.0 2019.0,2448.0 1985.0,2445.0 C 1980.0,2445.0 1969.0,2441.0 1963.0,2437.0 C 1955.0,2432.0 1943.0,2437.0 1933.0,2450.0 C 1913.0,2473.0 1890.0,2476.0 1872.0,2457.0 C 1865.0,2451.0 1838.0,2440.0 1812.0,2435.0 C 1767.0,2425.0 1765.0,2423.0 1762.0,2388.0 C 1760.0,2361.0 1750.0,2343.0 1725.0,2321.0 C 1695.0,2295.0 1693.0,2290.0 1706.0,2282.0 C 1727.0,2270.0 1708.0,2257.0 1669.0,2256.0 C 1649.0,2255.0 1637.0,2262.0 1629.0,2278.0 C 1613.0,2306.0 1606.0,2306.0 1592.0,2275.0 C 1586.0,2261.0 1574.0,2250.0 1565.0,2250.0 C 1546.0,2250.0 1545.0,2231.0 1565.0,2224.0 C 1589.0,2215.0 1583.0,2203.0 1549.0,2191.0 C 1499.0,2174.0 1469.0,2177.0 1463.0,2200.0 C 1456.0,2228.0 1422.0,2225.0 1408.0,2195.0 C 1402.0,2181.0 1391.0,2170.0 1383.0,2170.0 C 1371.0,2170.0 1372.0,2166.0 1384.0,2148.0 C 1393.0,2136.0 1400.0,2110.0 1400.0,2090.0 L 1399.0,2055.0 L 1377.0,2083.0 C 1364.0,2098.0 1347.0,2110.0 1338.0,2110.0 C 1330.0,2110.0 1317.0,2117.0 1310.0,2125.0 C 1303.0,2133.0 1293.0,2137.0 1288.0,2134.0 C 1279.0,2128.0 1260.0,2086.0 1256.0,2063.0 C 1255.0,2056.0 1251.0,2047.0 1247.0,2044.0 C 1233.0,2029.0 1241.0,2012.0 1265.0,2006.0 C 1280.0,2002.0 1295.0,1989.0 1300.0,1974.0 C 1306.0,1960.0 1314.0,1951.0 1319.0,1955.0 C 1325.0,1958.0 1334.0,1951.0 1340.0,1940.0 C 1346.0,1929.0 1366.0,1914.0 1385.0,1906.0 C 1424.0,1890.0 1445.0,1854.0 1453.0,1792.0 L 1458.0,1749.0 L 1433.0,1765.0 C 1418.0,1775.0 1399.0,1779.0 1384.0,1776.0 C 1358.0,1769.0 1354.0,1780.0 1370.0,1809.0 C 1381.0,1830.0 1343.0,1892.0 1309.0,1911.0 C 1284.0,1924.0 1286.0,1926.0 1273.0,1866.0 C 1259.0,1805.0 1268.0,1781.0 1314.0,1743.0 C 1334.0,1728.0 1350.0,1709.0 1350.0,1702.0 C 1350.0,1695.0 1357.0,1687.0 1365.0,1684.0 C 1377.0,1679.0 1375.0,1672.0 1355.0,1642.0 C 1327.0,1601.0 1323.0,1570.0 1345.0,1570.0 C 1354.0,1570.0 1360.0,1579.0 1360.0,1594.0 C 1360.0,1612.0 1366.0,1619.0 1382.0,1622.0 C 1395.0,1624.0 1410.0,1637.0 1417.0,1651.0 C 1435.0,1688.0 1449.0,1697.0 1500.0,1705.0 C 1538.0,1710.0 1547.0,1708.0 1557.0,1692.0 C 1566.0,1677.0 1565.0,1667.0 1554.0,1645.0 C 1541.0,1619.0 1544.0,1575.0 1558.0,1582.0 C 1562.0,1584.0 1583.0,1594.0 1605.0,1603.0 C 1640.0,1619.0 1690.0,1675.0 1690.0,1699.0 C 1690.0,1704.0 1680.0,1720.0 1668.0,1735.0 C 1649.0,1760.0 1642.0,1762.0 1598.0,1757.0 C 1546.0,1750.0 1539.0,1757.0 1570.0,1785.0 C 1594.0,1807.0 1596.0,1850.0 1575.0,1891.0 C 1560.0,1920.0 1560.0,1922.0 1589.0,1950.0 C 1612.0,1973.0 1619.0,1976.0 1624.0,1965.0 C 1627.0,1957.0 1638.0,1950.0 1648.0,1950.0 C 1670.0,1950.0 1700.0,1893.0 1700.0,1851.0 C 1700.0,1834.0 1710.0,1814.0 1725.0,1800.0 C 1739.0,1787.0 1764.0,1755.0 1781.0,1729.0 C 1810.0,1683.0 1811.0,1680.0 1795.0,1656.0 C 1786.0,1643.0 1768.0,1624.0 1754.0,1615.0 C 1718.0,1591.0 1724.0,1579.0 1770.0,1586.0 C 1797.0,1591.0 1810.0,1589.0 1810.0,1581.0 C 1810.0,1575.0 1804.0,1567.0 1796.0,1564.0 C 1788.0,1561.0 1779.0,1538.0 1775.0,1510.0 C 1771.0,1483.0 1763.0,1459.0 1756.0,1457.0 C 1749.0,1454.0 1738.0,1432.0 1731.0,1407.0 C 1724.0,1383.0 1702.0,1341.0 1681.0,1314.0 C 1651.0,1275.0 1638.0,1265.0 1614.0,1265.0 C 1565.0,1265.0 1560.0,1256.0 1560.0,1166.0 C 1560.0,1104.0 1556.0,1079.0 1545.0,1070.0 C 1524.0,1053.0 1525.0,1049.0 1565.0,1006.0 C 1593.0,975.0 1600.0,959.0 1600.0,926.0 C 1600.0,904.0 1603.0,875.0 1606.0,863.0 C 1615.0,830.0 1571.0,790.0 1523.0,789.0 C 1489.0,789.0 1487.0,788.0 1507.0,778.0 C 1522.0,771.0 1528.0,759.0 1528.0,739.0 C 1527.0,694.0 1544.0,683.0 1625.0,675.0 C 1689.0,669.0 1700.0,666.0 1700.0,649.0 C 1700.0,630.0 1727.0,610.0 1754.0,610.0 C 1762.0,610.0 1772.0,622.0 1778.0,638.0 C 1785.0,659.0 1781.0,677.0 1758.0,725.0 C 1720.0,807.0 1721.0,848.0 1767.0,923.0 C 1787.0,957.0 1805.0,986.0 1806.0,988.0 C 1807.0,990.0 1824.0,984.0 1844.0,976.0 C 1882.0,960.0 1887.0,946.0 1869.0,907.0 C 1858.0,883.0 1857.0,883.0 1831.0,898.0 C 1799.0,916.0 1767.0,908.0 1777.0,884.0 C 1781.0,874.0 1791.0,870.0 1806.0,873.0 C 1829.0,877.0 1830.0,874.0 1830.0,827.0 C 1830.0,798.0 1836.0,770.0 1844.0,761.0 C 1863.0,740.0 1867.0,700.0 1852.0,673.0 C 1845.0,661.0 1840.0,642.0 1840.0,630.0 C 1840.0,618.0 1829.0,595.0 1815.0,578.0 C 1801.0,562.0 1790.0,542.0 1790.0,535.0 C 1790.0,514.0 1806.0,509.0 1820.0,525.0 C 1827.0,533.0 1856.0,547.0 1884.0,555.0 C 1922.0,566.0 1939.0,578.0 1952.0,600.0 C 1962.0,617.0 1985.0,637.0 2004.0,645.0 C 2043.0,661.0 2055.0,675.0 2040.0,685.0 C 2034.0,689.0 2033.0,696.0 2036.0,702.0 C 2040.0,708.0 2035.0,719.0 2025.0,726.0 C 2010.0,738.0 2008.0,744.0 2018.0,765.0 C 2034.0,801.0 2091.0,800.0 2114.0,764.0 C 2127.0,746.0 2138.0,740.0 2157.0,742.0 C 2179.0,744.0 2185.0,753.0 2197.0,795.0 C 2205.0,823.0 2223.0,860.0 2238.0,879.0 C 2261.0,909.0 2264.0,925.0 2270.0,1025.0 C 2274.0,1114.0 2280.0,1143.0 2298.0,1174.0 C 2310.0,1194.0 2320.0,1222.0 2320.0,1236.0 C 2320.0,1276.0 2382.0,1412.0 2403.0,1418.0 C 2414.0,1421.0 2419.0,1428.0 2415.0,1438.0 C 2412.0,1446.0 2415.0,1457.0 2422.0,1461.0 C 2432.0,1468.0 2433.0,1473.0 2423.0,1489.0 C 2408.0,1512.0 2416.0,1540.0 2436.0,1540.0 C 2444.0,1540.0 2454.0,1550.0 2459.0,1563.0 C 2466.0,1581.0 2520.0,1634.0 2588.0,1690.0 C 2594.0,1696.0 2600.0,1711.0 2600.0,1723.0 C 2600.0,1736.0 2605.0,1751.0 2612.0,1758.0 C 2620.0,1766.0 2617.0,1772.0 2596.0,1780.0 C 2581.0,1785.0 2564.0,1790.0 2559.0,1790.0 C 2543.0,1790.0 2550.0,1810.0 2575.0,1836.0 C 2589.0,1850.0 2600.0,1865.0 2600.0,1869.0 C 2600.0,1874.0 2580.0,1881.0 2555.0,1884.0 C 2502.0,1892.0 2493.0,1903.0 2514.0,1935.0 C 2548.0,1986.0 2539.0,1992.0 2440.0,1988.0 C 2346.0,1985.0 2340.0,1987.0 2340.0,2031.0 C 2340.0,2045.0 2347.0,2050.0 2365.0,2050.0 C 2380.0,2050.0 2406.0,2065.0 2430.0,2086.0 C 2467.0,2120.0 2470.0,2126.0 2470.0,2176.0 C 2470.0,2228.0 2469.0,2230.0 2427.0,2255.0 C 2371.0,2287.0 2355.0,2287.0 2314.0,2250.0 C 2274.0,2215.0 2217.0,2202.0 2193.0,2221.0 C 2184.0,2229.0 2159.0,2240.0 2137.0,2245.0 C 2105.0,2253.0 2095.0,2261.0 2087.0,2285.0 C 2082.0,2302.0 2071.0,2322.0 2064.0,2331.0 C 2048.0,2349.0 2045.0,2406.0 2060.0,2415.0 C 2074.0,2424.0 2072.0,2467.0 2058.0,2473.0 C 2049.0,2476.0 2051.0,2484.0 2066.0,2500.0 C 2093.0,2527.0 2119.0,2521.0 2143.0,2481.0 C 2154.0,2462.0 2170.0,2451.0 2192.0,2447.0 C 2220.0,2442.0 2229.0,2446.0 2252.0,2472.0 C 2266.0,2489.0 2283.0,2499.0 2289.0,2496.0 C 2295.0,2492.0 2308.0,2494.0 2318.0,2499.0 C 2331.0,2506.0 2340.0,2506.0 2348.0,2498.0 C 2355.0,2491.0 2373.0,2493.0 2409.0,2506.0 C 2473.0,2529.0 2510.0,2517.0 2503.0,2476.0 C 2497.0,2447.0 2511.0,2442.0 2530.0,2465.0 C 2548.0,2487.0 2558.0,2484.0 2575.0,2450.0 C 2584.0,2433.0 2597.0,2420.0 2604.0,2420.0 C 2611.0,2420.0 2634.0,2407.0 2655.0,2390.0 C 2676.0,2374.0 2694.0,2360.0 2695.0,2360.0 C 2696.0,2360.0 2695.0,2372.0 2692.0,2386.0 C 2689.0,2404.0 2695.0,2419.0 2715.0,2440.0 C 2734.0,2460.0 2741.0,2475.0 2737.0,2490.0 C 2734.0,2502.0 2736.0,2524.0 2741.0,2538.0 C 2747.0,2553.0 2752.0,2582.0 2752.0,2603.0 C 2752.0,2635.0 2759.0,2646.0 2792.0,2673.0 C 2822.0,2697.0 2842.0,2705.0 2871.0,2705.0 C 2905.0,2705.0 2910.0,2702.0 2910.0,2683.0 C 2910.0,2669.0 2904.0,2660.0 2895.0,2660.0 C 2887.0,2660.0 2880.0,2656.0 2880.0,2650.0 C 2880.0,2645.0 2873.0,2640.0 2864.0,2640.0 C 2842.0,2640.0 2851.0,2606.0 2874.0,2602.0 C 2884.0,2600.0 2895.0,2602.0 2899.0,2608.0 C 2903.0,2614.0 2923.0,2614.0 2958.0,2607.0 C 3010.0,2596.0 3010.0,2596.0 3048.0,2632.0 C 3076.0,2659.0 3099.0,2670.0 3148.0,2680.0 C 3183.0,2687.0 3214.0,2698.0 3216.0,2704.0 C 3219.0,2711.0 3250.0,2716.0 3297.0,2717.0 C 3371.0,2719.0 3375.0,2720.0 3406.0,2754.0 C 3443.0,2794.0 3443.0,2794.0 3470.0,2780.0 C 3484.0,2772.0 3498.0,2775.0 3527.0,2791.0 L 3564.0,2812.0 L 3596.0,2778.0 C 3622.0,2749.0 3630.0,2745.0 3644.0,2756.0 C 3653.0,2762.0 3669.0,2766.0 3679.0,2763.0 C 3689.0,2760.0 3713.0,2772.0 3738.0,2793.0 C 3770.0,2820.0 3776.0,2830.0 3767.0,2840.0 C 3757.0,2850.0 3759.0,2852.0 3773.0,2846.0 C 3797.0,2838.0 3842.0,2849.0 3837.0,2863.0 C 3833.0,2877.0 3872.0,2914.0 3906.0,2928.0 C 3922.0,2934.0 3964.0,2943.0 4000.0,2948.0 C 4036.0,2953.0 4072.0,2960.0 4081.0,2964.0 C 4090.0,2968.0 4114.0,2959.0 4141.0,2940.0 C 4165.0,2924.0 4190.0,2910.0 4197.0,2910.0 C 4204.0,2910.0 4226.0,2898.0 4247.0,2884.0 C 4279.0,2862.0 4292.0,2859.0 4329.0,2864.0 C 4354.0,2867.0 4383.0,2879.0 4395.0,2890.0 C 4423.0,2916.0 4487.0,2916.0 4518.0,2891.0 C 4541.0,2871.0 4547.0,2845.0 4530.0,2835.0 C 4525.0,2832.0 4520.0,2818.0 4520.0,2804.0 C 4520.0,2790.0 4514.0,2780.0 4506.0,2780.0 C 4499.0,2780.0 4477.0,2758.0 4459.0,2730.0 C 4437.0,2698.0 4418.0,2680.0 4404.0,2680.0 C 4393.0,2680.0 4369.0,2669.0 4351.0,2656.0 C 4320.0,2633.0 4319.0,2631.0 4338.0,2621.0 C 4363.0,2607.0 4371.0,2555.0 4353.0,2519.0 C 4345.0,2503.0 4342.0,2481.0 4345.0,2469.0 C 4349.0,2457.0 4346.0,2442.0 4338.0,2432.0 C 4312.0,2402.0 4319.0,2373.0 4356.0,2349.0 C 4375.0,2338.0 4397.0,2315.0 4406.0,2298.0 C 4419.0,2274.0 4424.0,2271.0 4436.0,2281.0 C 4448.0,2291.0 4455.0,2289.0 4473.0,2272.0 C 4490.0,2254.0 4492.0,2246.0 4484.0,2232.0 C 4458.0,2191.0 4576.0,2110.0 4661.0,2110.0 C 4673.0,2110.0 4688.0,2103.0 4695.0,2094.0 C 4705.0,2080.0 4710.0,2081.0 4736.0,2107.0 C 4752.0,2123.0 4772.0,2141.0 4780.0,2146.0 C 4788.0,2151.0 4813.0,2193.0 4835.0,2240.0 C 4877.0,2329.0 4926.0,2400.0 4948.0,2400.0 C 4954.0,2400.0 4960.0,2407.0 4960.0,2415.0 C 4960.0,2423.0 4967.0,2430.0 4976.0,2430.0 C 4989.0,2430.0 4991.0,2437.0 4986.0,2465.0 C 4980.0,2496.0 4981.0,2500.0 5001.0,2500.0 C 5018.0,2500.0 5021.0,2504.0 5016.0,2523.0 C 5008.0,2556.0 5035.0,2590.0 5068.0,2590.0 C 5083.0,2590.0 5106.0,2598.0 5120.0,2607.0 C 5133.0,2616.0 5154.0,2624.0 5168.0,2625.0 C 5181.0,2625.0 5200.0,2636.0 5209.0,2649.0 C 5227.0,2673.0 5227.0,2673.0 5233.0,2651.0 C 5238.0,2629.0 5264.0,2622.0 5275.0,2640.0 C 5285.0,2655.0 5300.0,2652.0 5300.0,2634.0 C 5300.0,2603.0 5325.0,2627.0 5328.0,2661.0 C 5329.0,2680.0 5336.0,2705.0 5342.0,2717.0 C 5351.0,2736.0 5349.0,2742.0 5324.0,2764.0 C 5308.0,2777.0 5282.0,2791.0 5266.0,2794.0 C 5250.0,2798.0 5222.0,2811.0 5204.0,2825.0 C 5186.0,2839.0 5167.0,2850.0 5161.0,2850.0 C 5156.0,2850.0 5144.0,2870.0 5134.0,2895.0 C 5117.0,2939.0 5118.0,2941.0 5138.0,2963.0 C 5165.0,2993.0 5210.0,3078.0 5210.0,3102.0 C 5210.0,3112.0 5218.0,3124.0 5228.0,3127.0 C 5237.0,3131.0 5256.0,3142.0 5269.0,3152.0 C 5303.0,3178.0 5312.0,3163.0 5296.0,3110.0 C 5288.0,3084.0 5286.0,3057.0 5291.0,3045.0 C 5295.0,3034.0 5299.0,3010.0 5299.0,2992.0 C 5300.0,2958.0 5315.0,2920.0 5328.0,2920.0 C 5332.0,2920.0 5341.0,2924.0 5349.0,2929.0 C 5360.0,2936.0 5359.0,2942.0 5345.0,2964.0 C 5332.0,2983.0 5331.0,2994.0 5338.0,3003.0 C 5345.0,3011.0 5345.0,3021.0 5340.0,3030.0 C 5334.0,3040.0 5336.0,3051.0 5347.0,3063.0 C 5366.0,3084.0 5380.0,3070.0 5380.0,3030.0 C 5380.0,3015.0 5385.0,2999.0 5392.0,2992.0 C 5407.0,2977.0 5464.0,2977.0 5507.0,2992.0 C 5536.0,3002.0 5543.0,3002.0 5551.0,2990.0 C 5575.0,2952.0 5531.0,2906.0 5458.0,2891.0 C 5426.0,2884.0 5400.0,2857.0 5413.0,2843.0 C 5417.0,2839.0 5471.0,2853.0 5533.0,2873.0 C 5595.0,2893.0 5657.0,2910.0 5671.0,2910.0 C 5703.0,2910.0 5713.0,2919.0 5699.0,2936.0 C 5693.0,2943.0 5691.0,2954.0 5695.0,2960.0 C 5702.0,2972.0 5737.0,2932.0 5732.0,2918.0 C 5731.0,2913.0 5775.0,2910.0 5830.0,2910.0 C 5906.0,2910.0 5941.0,2905.0 5980.0,2890.0 C 6055.0,2860.0 6070.0,2863.0 6064.0,2903.0 C 6059.0,2929.0 6065.0,2944.0 6094.0,2982.0 C 6114.0,3008.0 6130.0,3036.0 6130.0,3044.0 C 6130.0,3053.0 6152.0,3074.0 6178.0,3092.0 C 6217.0,3118.0 6227.0,3129.0 6227.0,3152.0 C 6227.0,3192.0 6246.0,3207.0 6311.0,3214.0 C 6363.0,3221.0 6368.0,3219.0 6384.0,3196.0 C 6405.0,3163.0 6404.0,3157.0 6378.0,3145.0 C 6357.0,3136.0 6355.0,3130.0 6358.0,3069.0 C 6361.0,3028.0 6358.0,3000.0 6351.0,2996.0 C 6332.0,2984.0 6339.0,2932.0 6364.0,2903.0 C 6388.0,2875.0 6388.0,2875.0 6432.0,2891.0 C 6472.0,2906.0 6477.0,2911.0 6498.0,2971.0 C 6511.0,3006.0 6527.0,3041.0 6535.0,3050.0 C 6542.0,3058.0 6553.0,3078.0 6559.0,3093.0 C 6568.0,3117.0 6567.0,3124.0 6551.0,3138.0 C 6525.0,3161.0 6516.0,3205.0 6535.0,3220.0 C 6543.0,3227.0 6550.0,3241.0 6550.0,3252.0 C 6550.0,3284.0 6581.0,3320.0 6631.0,3345.0 C 6672.0,3366.0 6685.0,3368.0 6726.0,3361.0 C 6777.0,3351.0 6800.0,3330.0 6800.0,3294.0 C 6800.0,3282.0 6807.0,3269.0 6816.0,3266.0 C 6825.0,3262.0 6833.0,3261.0 6834.0,3262.0 C 6835.0,3264.0 6842.0,3282.0 6849.0,3303.0 C 6860.0,3336.0 6860.0,3344.0 6846.0,3359.0 C 6837.0,3369.0 6829.0,3398.0 6828.0,3426.0 C 6825.0,3470.0 6827.0,3475.0 6847.0,3478.0 C 6859.0,3480.0 6875.0,3491.0 6883.0,3504.0 C 6896.0,3523.0 6896.0,3529.0 6884.0,3545.0 C 6862.0,3575.0 6867.0,3590.0 6898.0,3590.0 C 6914.0,3590.0 6935.0,3597.0 6946.0,3605.0 C 6973.0,3626.0 7001.0,3623.0 7034.0,3597.0 C 7061.0,3575.0 7062.0,3571.0 7054.0,3534.0 C 7047.0,3505.0 7034.0,3489.0 7002.0,3467.0 C 6979.0,3451.0 6960.0,3433.0 6960.0,3426.0 C 6960.0,3418.0 6947.0,3407.0 6930.0,3400.0 L 6901.0,3388.0 L 6922.0,3360.0 C 6939.0,3337.0 6941.0,3325.0 6934.0,3289.0 C 6930.0,3265.0 6927.0,3226.0 6929.0,3202.0 C 6931.0,3169.0 6927.0,3155.0 6913.0,3145.0 C 6900.0,3134.0 6899.0,3131.0 6909.0,3130.0 C 6917.0,3130.0 6932.0,3123.0 6942.0,3113.0 C 6958.0,3099.0 6964.0,3099.0 6985.0,3110.0 C 6999.0,3117.0 7010.0,3132.0 7010.0,3143.0 C 7010.0,3171.0 7099.0,3250.0 7131.0,3250.0 C 7156.0,3250.0 7227.0,3291.0 7242.0,3314.0 C 7246.0,3320.0 7250.0,3363.0 7250.0,3409.0 C 7250.0,3455.0 7255.0,3510.0 7261.0,3531.0 C 7275.0,3575.0 7348.0,3643.0 7395.0,3654.0 C 7412.0,3658.0 7438.0,3666.0 7453.0,3672.0 L 7481.0,3683.0 L 7447.0,3719.0 C 7395.0,3773.0 7300.0,3967.0 7300.0,4018.0 C 7300.0,4040.0 7304.0,4061.0 7308.0,4064.0 C 7313.0,4067.0 7315.0,4083.0 7312.0,4099.0 C 7303.0,4163.0 7386.0,4438.0 7415.0,4440.0 C 7421.0,4440.0 7440.0,4461.0 7458.0,4485.0 L 7490.0,4529.0 L 7490.0,4750.0 C 7490.0,4992.0 7483.0,5038.0 7437.0,5113.0 C 7412.0,5154.0 7409.0,5167.0 7413.0,5218.0 C 7418.0,5289.0 7440.0,5346.0 7469.0,5366.0 C 7481.0,5375.0 7489.0,5388.0 7486.0,5395.0 C 7481.0,5410.0 7503.0,5434.0 7513.0,5424.0 C 7516.0,5421.0 7532.0,5427.0 7548.0,5439.0 C 7591.0,5469.0 7631.0,5466.0 7663.0,5430.0 C 7682.0,5409.0 7699.0,5400.0 7722.0,5400.0 L 7753.0,5400.0 L 7733.0,5423.0 C 7696.0,5464.0 7680.0,5537.0 7705.0,5547.0 C 7715.0,5550.0 7717.0,5556.0 7712.0,5564.0 C 7707.0,5570.0 7700.0,5594.0 7696.0,5616.0 C 7692.0,5647.0 7694.0,5661.0 7705.0,5670.0 C 7714.0,5677.0 7718.0,5691.0 7715.0,5700.0 C 7712.0,5710.0 7721.0,5740.0 7735.0,5766.0 C 7756.0,5805.0 7759.0,5819.0 7751.0,5837.0 C 7742.0,5857.0 7743.0,5860.0 7760.0,5860.0 C 7773.0,5860.0 7784.0,5870.0 7790.0,5885.0 C 7795.0,5899.0 7808.0,5910.0 7817.0,5910.0 C 7828.0,5910.0 7840.0,5923.0 7848.0,5943.0 C 7856.0,5960.0 7866.0,5985.0 7871.0,5998.0 C 7876.0,6010.0 7887.0,6023.0 7895.0,6026.0 C 7909.0,6032.0 7908.0,6034.0 7893.0,6046.0 C 7882.0,6054.0 7879.0,6063.0 7885.0,6067.0 C 7891.0,6072.0 7896.0,6093.0 7898.0,6114.0 C 7899.0,6135.0 7907.0,6158.0 7916.0,6164.0 C 7925.0,6171.0 7931.0,6183.0 7929.0,6191.0 C 7927.0,6198.0 7930.0,6216.0 7934.0,6229.0 C 7943.0,6254.0 7925.0,6300.0 7906.0,6300.0 C 7896.0,6300.0 7892.0,6381.0 7901.0,6405.0 C 7905.0,6417.0 7866.0,6522.0 7844.0,6555.0 C 7835.0,6569.0 7821.0,6580.0 7814.0,6580.0 C 7805.0,6580.0 7800.0,6591.0 7800.0,6608.0 C 7800.0,6623.0 7781.0,6681.0 7758.0,6738.0 C 7714.0,6846.0 7674.0,6894.0 7621.0,6902.0 C 7600.0,6905.0 7592.0,6918.0 7565.0,7000.0 C 7534.0,7094.0 7533.0,7094.0 7522.0,7062.0 C 7507.0,7019.0 7500.0,7022.0 7500.0,7071.0 C 7500.0,7104.0 7504.0,7113.0 7521.0,7117.0 C 7540.0,7122.0 7541.0,7127.0 7533.0,7174.0 C 7529.0,7202.0 7527.0,7283.0 7529.0,7354.0 L 7532.0,7483.0 L 7497.0,7461.0 C 7478.0,7450.0 7456.0,7440.0 7447.0,7440.0 C 7439.0,7440.0 7412.0,7460.0 7388.0,7484.0 C 7355.0,7518.0 7336.0,7529.0 7305.0,7533.0 L 7265.0,7537.0 L 7237.0,7476.0" fill="pink"/>
	<path d="M 6076.0,5295.0 C 6054.0,5270.0 6031.0,5250.0 6023.0,5250.0 C 6015.0,5250.0 6010.0,5238.0 6010.0,5221.0 C 6010.0,5205.0 6006.0,5180.0 6001.0,5166.0 C 5994.0,5148.0 5995.0,5138.0 6006.0,5130.0 C 6013.0,5123.0 6020.0,5121.0 6020.0,5126.0 C 6020.0,5130.0 6025.0,5129.0 6031.0,5123.0 C 6042.0,5112.0 6027.0,5051.0 6007.0,5023.0 C 5996.0,5007.0 6012.0,5006.0 6057.0,5019.0 C 6096.0,5030.0 6150.0,5089.0 6167.0,5139.0 C 6184.0,5188.0 6184.0,5189.0 6150.0,5188.0 C 6109.0,5187.0 6104.0,5195.0 6118.0,5233.0 C 6131.0,5270.0 6134.0,5340.0 6123.0,5340.0 C 6118.0,5340.0 6097.0,5319.0 6076.0,5295.0" fill="pink"/>
	<path d="M 3325.0,3998.0 C 3298.0,3920.0 3329.0,3882.0 3384.0,3924.0 C 3427.0,3956.0 3425.0,3987.0 3381.0,4006.0 C 3337.0,4024.0 3334.0,4024.0 3325.0,3998.0" fill="pink"/>
	<path d="M 3207.0,3882.0 C 3197.0,3872.0 3190.0,3860.0 3190.0,3857.0 C 3190.0,3842.0 3228.0,3851.0 3244.0,3869.0 C 3259.0,3886.0 3259.0,3888.0 3245.0,3894.0 C 3223.0,3902.0 3225.0,3903.0 3207.0,3882.0" fill="pink"/>
	<path d="M 3255.0,3849.0 C 3251.0,3843.0 3251.0,3836.0 3254.0,3833.0 C 3262.0,3825.0 3290.0,3838.0 3290.0,3850.0 C 3290.0,3863.0 3263.0,3863.0 3255.0,3849.0" fill="pink"/>
	<path d="M 3210.0,3816.0 C 3210.0,3814.0 3217.0,3807.0 3225.0,3800.0 C 3237.0,3790.0 3240.0,3790.0 3240.0,3804.0 C 3240.0,3813.0 3233.0,3820.0 3225.0,3820.0 C 3217.0,3820.0 3210.0,3818.0 3210.0,3816.0" fill="pink"/>
	<path d="M 1204.0,2989.0 C 1194.0,2977.0 1175.0,2964.0 1163.0,2959.0 C 1139.0,2950.0 1132.0,2916.0 1150.0,2905.0 C 1158.0,2900.0 1158.0,2894.0 1150.0,2885.0 C 1144.0,2878.0 1142.0,2866.0 1145.0,2859.0 C 1147.0,2851.0 1137.0,2829.0 1121.0,2810.0 L 1092.0,2775.0 L 1123.0,2765.0 C 1144.0,2758.0 1163.0,2757.0 1177.0,2763.0 C 1195.0,2771.0 1197.0,2778.0 1193.0,2806.0 C 1188.0,2834.0 1193.0,2844.0 1219.0,2870.0 C 1255.0,2907.0 1265.0,2939.0 1253.0,2976.0 C 1241.0,3012.0 1228.0,3015.0 1204.0,2989.0" fill="pink"/>
	<path d="M 4265.0,2828.0 C 4231.0,2810.0 4189.0,2766.0 4170.0,2730.0 C 4160.0,2711.0 4143.0,2686.0 4131.0,2676.0 C 4110.0,2657.0 4101.0,2600.0 4120.0,2600.0 C 4126.0,2600.0 4130.0,2593.0 4130.0,2584.0 C 4130.0,2565.0 4162.0,2570.0 4220.0,2598.0 C 4248.0,2612.0 4254.0,2620.0 4252.0,2640.0 C 4245.0,2703.0 4249.0,2730.0 4270.0,2758.0 C 4283.0,2775.0 4290.0,2798.0 4288.0,2813.0 C 4285.0,2835.0 4282.0,2837.0 4265.0,2828.0" fill="pink"/>
	<path d="M 3853.0,2813.0 C 3821.0,2809.0 3804.0,2780.0 3834.0,2780.0 C 3841.0,2780.0 3852.0,2774.0 3858.0,2768.0 C 3864.0,2761.0 3883.0,2755.0 3902.0,2755.0 C 3932.0,2755.0 3935.0,2758.0 3938.0,2788.0 C 3942.0,2823.0 3939.0,2824.0 3853.0,2813.0" fill="pink"/>
	<path d="M 1074.0,2714.0 C 1048.0,2653.0 1051.0,2629.0 1083.0,2617.0 C 1108.0,2609.0 1114.0,2611.0 1128.0,2631.0 C 1137.0,2644.0 1143.0,2663.0 1142.0,2674.0 C 1140.0,2684.0 1149.0,2703.0 1161.0,2716.0 L 1183.0,2740.0 L 1153.0,2740.0 C 1136.0,2740.0 1114.0,2743.0 1106.0,2746.0 C 1094.0,2751.0 1086.0,2742.0 1074.0,2714.0" fill="pink"/>
	<path d="M 3667.0,2696.0 C 3659.0,2675.0 3575.0,2620.0 3552.0,2620.0 C 3541.0,2620.0 3525.0,2617.0 3516.0,2614.0 C 3502.0,2609.0 3502.0,2605.0 3515.0,2580.0 C 3537.0,2538.0 3534.0,2524.0 3493.0,2479.0 L 3456.0,2438.0 L 3396.0,2443.0 C 3346.0,2448.0 3331.0,2445.0 3308.0,2428.0 C 3271.0,2402.0 3236.0,2410.0 3221.0,2448.0 C 3205.0,2487.0 3163.0,2530.0 3141.0,2530.0 C 3117.0,2530.0 3043.0,2465.0 3035.0,2437.0 C 3032.0,2425.0 3025.0,2406.0 3020.0,2395.0 C 3015.0,2384.0 3009.0,2362.0 3005.0,2347.0 C 3002.0,2330.0 2976.0,2297.0 2943.0,2267.0 C 2912.0,2238.0 2873.0,2202.0 2857.0,2187.0 C 2841.0,2171.0 2783.0,2137.0 2729.0,2109.0 C 2674.0,2082.0 2630.0,2055.0 2630.0,2049.0 C 2630.0,2037.0 2666.0,2046.0 2695.0,2066.0 C 2706.0,2074.0 2722.0,2080.0 2731.0,2080.0 C 2740.0,2080.0 2759.0,2089.0 2773.0,2100.0 C 2808.0,2128.0 2832.0,2126.0 2825.0,2098.0 C 2823.0,2085.0 2819.0,2059.0 2818.0,2040.0 C 2815.0,2009.0 2818.0,2005.0 2845.0,2000.0 C 2862.0,1997.0 2875.0,1990.0 2875.0,1985.0 C 2875.0,1979.0 2878.0,1970.0 2882.0,1964.0 C 2886.0,1958.0 2887.0,1944.0 2883.0,1932.0 C 2879.0,1914.0 2874.0,1912.0 2859.0,1921.0 C 2830.0,1936.0 2821.0,1902.0 2848.0,1881.0 C 2874.0,1861.0 2863.0,1834.0 2831.0,1843.0 C 2817.0,1846.0 2810.0,1843.0 2810.0,1834.0 C 2810.0,1826.0 2818.0,1820.0 2828.0,1820.0 C 2839.0,1820.0 2855.0,1811.0 2865.0,1800.0 C 2875.0,1789.0 2878.0,1780.0 2872.0,1780.0 C 2860.0,1780.0 2855.0,1748.0 2866.0,1737.0 C 2870.0,1734.0 2883.0,1738.0 2897.0,1747.0 C 2915.0,1759.0 2924.0,1760.0 2933.0,1751.0 C 2939.0,1745.0 2952.0,1740.0 2962.0,1740.0 C 2985.0,1740.0 2985.0,1729.0 2961.0,1680.0 L 2942.0,1640.0 L 2973.0,1640.0 C 2991.0,1640.0 3011.0,1636.0 3019.0,1631.0 C 3029.0,1625.0 3041.0,1626.0 3054.0,1636.0 C 3081.0,1655.0 3083.0,1654.0 3119.0,1624.0 C 3146.0,1602.0 3151.0,1600.0 3156.0,1615.0 C 3160.0,1624.0 3157.0,1641.0 3151.0,1653.0 C 3142.0,1671.0 3142.0,1688.0 3154.0,1733.0 C 3172.0,1804.0 3176.0,1810.0 3200.0,1810.0 C 3213.0,1810.0 3227.0,1824.0 3240.0,1850.0 C 3251.0,1872.0 3265.0,1890.0 3270.0,1890.0 C 3286.0,1890.0 3310.0,1946.0 3310.0,1983.0 C 3310.0,2017.0 3325.0,2040.0 3347.0,2040.0 C 3354.0,2040.0 3378.0,2053.0 3400.0,2069.0 C 3422.0,2085.0 3469.0,2106.0 3506.0,2116.0 C 3567.0,2132.0 3574.0,2132.0 3623.0,2117.0 C 3676.0,2100.0 3691.0,2088.0 3779.0,1990.0 C 3813.0,1952.0 3830.0,1940.0 3833.0,1950.0 C 3875.0,2102.0 3919.0,2182.0 3977.0,2210.0 C 3994.0,2218.0 4019.0,2236.0 4032.0,2250.0 C 4045.0,2264.0 4071.0,2287.0 4090.0,2302.0 C 4117.0,2323.0 4122.0,2331.0 4111.0,2338.0 C 4100.0,2346.0 4101.0,2352.0 4115.0,2374.0 C 4132.0,2400.0 4132.0,2400.0 4096.0,2433.0 C 4056.0,2470.0 4050.0,2502.0 4077.0,2532.0 C 4092.0,2549.0 4092.0,2552.0 4065.0,2580.0 C 4043.0,2603.0 4033.0,2607.0 4019.0,2599.0 C 4005.0,2592.0 3992.0,2594.0 3971.0,2605.0 C 3954.0,2613.0 3935.0,2620.0 3927.0,2620.0 C 3920.0,2620.0 3899.0,2635.0 3881.0,2654.0 C 3862.0,2673.0 3841.0,2686.0 3834.0,2683.0 C 3826.0,2680.0 3820.0,2684.0 3820.0,2694.0 C 3820.0,2707.0 3816.0,2709.0 3801.0,2700.0 C 3776.0,2687.0 3703.0,2687.0 3695.0,2700.0 C 3686.0,2714.0 3673.0,2712.0 3667.0,2696.0" fill="pink"/>
	<path d="M 3174.0,2656.0 C 3171.0,2648.0 3170.0,2629.0 3172.0,2614.0 C 3175.0,2587.0 3176.0,2587.0 3193.0,2604.0 C 3214.0,2626.0 3216.0,2670.0 3195.0,2670.0 C 3186.0,2670.0 3177.0,2664.0 3174.0,2656.0" fill="pink"/>
	<path d="M 3117.0,2643.0 C 3107.0,2640.0 3101.0,2633.0 3103.0,2627.0 C 3109.0,2607.0 3128.0,2608.0 3140.0,2629.0 C 3151.0,2650.0 3149.0,2651.0 3117.0,2643.0" fill="pink"/>
	<path d="M 2882.0,2563.0 C 2884.0,2552.0 2896.0,2544.0 2915.0,2542.0 C 2945.0,2538.0 2945.0,2538.0 2926.0,2559.0 C 2903.0,2585.0 2877.0,2587.0 2882.0,2563.0" fill="pink"/>
	<path d="M 2745.0,2430.0 C 2728.0,2411.0 2727.0,2408.0 2743.0,2393.0 C 2756.0,2380.0 2763.0,2379.0 2771.0,2387.0 C 2778.0,2394.0 2795.0,2397.0 2809.0,2394.0 C 2828.0,2390.0 2841.0,2395.0 2855.0,2411.0 L 2875.0,2433.0 L 2840.0,2428.0 C 2819.0,2425.0 2797.0,2428.0 2784.0,2436.0 C 2766.0,2449.0 2761.0,2448.0 2745.0,2430.0" fill="pink"/>
	<path d="M 1322.0,2398.0 C 1311.0,2364.0 1311.0,2355.0 1322.0,2349.0 C 1346.0,2333.0 1370.0,2340.0 1382.0,2365.0 C 1392.0,2387.0 1390.0,2394.0 1370.0,2415.0 C 1357.0,2429.0 1344.0,2440.0 1341.0,2440.0 C 1337.0,2440.0 1329.0,2421.0 1322.0,2398.0" fill="pink"/>
	<path d="M 1216.0,2121.0 C 1205.0,2109.0 1191.0,2100.0 1184.0,2100.0 C 1177.0,2100.0 1168.0,2085.0 1165.0,2068.0 C 1161.0,2050.0 1151.0,2027.0 1142.0,2017.0 C 1119.0,1991.0 1135.0,1985.0 1172.0,2007.0 C 1195.0,2020.0 1210.0,2041.0 1223.0,2074.0 C 1244.0,2132.0 1242.0,2149.0 1216.0,2121.0" fill="pink"/>
	<path d="M 952.0,1893.0 C 934.0,1867.0 931.0,1854.0 936.0,1821.0 C 943.0,1775.0 957.0,1768.0 966.0,1804.0 C 969.0,1817.0 985.0,1837.0 1001.0,1849.0 C 1035.0,1874.0 1043.0,1907.0 1011.0,1890.0 C 984.0,1876.0 982.0,1877.0 978.0,1903.0 C 975.0,1924.0 974.0,1923.0 952.0,1893.0" fill="pink"/>
	<path d="M 901.0,1821.0 C 885.0,1811.0 895.0,1790.0 916.0,1790.0 C 924.0,1790.0 930.0,1799.0 930.0,1810.0 C 930.0,1832.0 923.0,1835.0 901.0,1821.0" fill="pink"/>
	<path d="M 850.0,1791.0 C 850.0,1781.0 880.0,1767.0 887.0,1774.0 C 890.0,1777.0 889.0,1783.0 885.0,1789.0 C 877.0,1802.0 850.0,1804.0 850.0,1791.0" fill="pink"/>
	<path d="M 800.0,1756.0 C 800.0,1749.0 807.0,1737.0 816.0,1729.0 C 829.0,1719.0 833.0,1719.0 841.0,1731.0 C 856.0,1756.0 851.0,1770.0 825.0,1770.0 C 810.0,1770.0 800.0,1764.0 800.0,1756.0" fill="pink"/>
	<path d="M 771.0,1734.0 C 763.0,1721.0 757.0,1719.0 754.0,1728.0 C 746.0,1746.0 722.0,1743.0 712.0,1723.0 C 707.0,1713.0 700.0,1690.0 697.0,1672.0 C 690.0,1637.0 691.0,1636.0 748.0,1626.0 C 776.0,1621.0 783.0,1624.0 787.0,1640.0 C 791.0,1655.0 798.0,1659.0 811.0,1655.0 C 835.0,1647.0 837.0,1681.0 814.0,1701.0 C 805.0,1708.0 794.0,1723.0 790.0,1734.0 C 783.0,1754.0 783.0,1754.0 771.0,1734.0" fill="pink"/>
	<path d="M 896.0,1733.0 C 887.0,1724.0 889.0,1700.0 899.0,1700.0 C 911.0,1700.0 921.0,1728.0 911.0,1734.0 C 906.0,1737.0 900.0,1737.0 896.0,1733.0" fill="pink"/>
	<path d="M 1686.0,1583.0 C 1695.0,1545.0 1708.0,1533.0 1716.0,1555.0 C 1724.0,1574.0 1711.0,1601.0 1691.0,1608.0 C 1683.0,1611.0 1681.0,1604.0 1686.0,1583.0" fill="pink"/>
	<path d="M 1475.0,1541.0 C 1472.0,1539.0 1470.0,1526.0 1470.0,1514.0 C 1470.0,1501.0 1466.0,1488.0 1460.0,1485.0 C 1445.0,1476.0 1447.0,1390.0 1463.0,1390.0 C 1469.0,1390.0 1466.0,1384.0 1455.0,1378.0 C 1426.0,1362.0 1426.0,1362.0 1443.0,1345.0 C 1452.0,1337.0 1468.0,1330.0 1479.0,1330.0 C 1494.0,1330.0 1500.0,1324.0 1500.0,1306.0 C 1500.0,1278.0 1524.0,1255.0 1546.0,1264.0 C 1556.0,1268.0 1560.0,1280.0 1558.0,1302.0 C 1556.0,1327.0 1550.0,1336.0 1533.0,1338.0 C 1502.0,1343.0 1504.0,1357.0 1541.0,1391.0 C 1568.0,1416.0 1572.0,1427.0 1573.0,1477.0 L 1575.0,1535.0 L 1527.0,1540.0 C 1501.0,1544.0 1477.0,1544.0 1475.0,1541.0" fill="pink"/>
	<path d="M 1650.0,1519.0 C 1650.0,1513.0 1642.0,1511.0 1631.0,1515.0 C 1608.0,1522.0 1587.0,1498.0 1592.0,1469.0 C 1594.0,1452.0 1603.0,1447.0 1632.0,1445.0 C 1652.0,1444.0 1673.0,1446.0 1677.0,1449.0 C 1689.0,1458.0 1709.0,1518.0 1702.0,1524.0 C 1692.0,1534.0 1650.0,1530.0 1650.0,1519.0" fill="pink"/>
	<path d="M 1354.0,1094.0 C 1357.0,1085.0 1360.0,1076.0 1360.0,1074.0 C 1360.0,1062.0 1389.0,1072.0 1394.0,1086.0 C 1403.0,1109.0 1402.0,1110.0 1374.0,1110.0 C 1354.0,1110.0 1349.0,1106.0 1354.0,1094.0" fill="pink"/>
	<path d="M 1279.0,1033.0 C 1271.0,1031.0 1256.0,1016.0 1247.0,1001.0 C 1227.0,967.0 1226.0,960.0 1241.0,960.0 C 1254.0,960.0 1310.0,1018.0 1310.0,1031.0 C 1310.0,1040.0 1306.0,1041.0 1279.0,1033.0" fill="pink"/>
	<path d="M 1996.0,382.0 C 1970.0,352.0 1930.0,263.0 1930.0,233.0 C 1930.0,219.0 1919.0,195.0 1905.0,178.0 C 1881.0,149.0 1874.0,117.0 1886.0,86.0 C 1891.0,74.0 1896.0,73.0 1916.0,82.0 C 1934.0,91.0 1940.0,101.0 1940.0,126.0 C 1940.0,149.0 1950.0,170.0 1970.0,193.0 C 1987.0,212.0 2000.0,235.0 2000.0,244.0 C 2000.0,254.0 2005.0,270.0 2011.0,281.0 C 2016.0,292.0 2020.0,323.0 2018.0,351.0 C 2015.0,402.0 2015.0,402.0 1996.0,382.0" fill="pink"/>
	<path d="M 1652.0,139.0 C 1616.0,122.0 1611.0,116.0 1615.0,95.0 C 1618.0,81.0 1622.0,59.0 1625.0,45.0 C 1629.0,27.0 1640.0,18.0 1667.0,11.0 C 1707.0,0.0 1730.0,8.0 1754.0,42.0 C 1778.0,76.0 1773.0,94.0 1732.0,127.0 L 1694.0,158.0 L 1652.0,139.0" fill="pink"/>
</svg>
