<?xml version="1.0" ?>
<svg xmlns="http://www.w3.org/2000/svg" xmlns:ev="http://www.w3.org/2001/xml-events" xmlns:xlink="http://www.w3.org/1999/xlink" baseProfile="full" height="272px" version="1.1" viewBox="-1031.3210000000001 2332.0555385825232 12300.642 5564.123537009721" width="600px">
	<defs/>
	<path d="M 9117.0,7407.0 C 9062.0,7380.0 9054.0,7378.0 8917.0,7378.0 C 8804.0,7378.0 8756.0,7382.0 8685.0,7399.0 C 8553.0,7431.0 8495.0,7435.0 8424.0,7416.0 C 8390.0,7407.0 8332.0,7400.0 8295.0,7400.0 C 8259.0,7400.0 8220.0,7396.0 8210.0,7390.0 C 8200.0,7384.0 8081.0,7378.0 7945.0,7376.0 C 7742.0,7373.0 7695.0,7369.0 7675.0,7356.0 C 7662.0,7347.0 7637.0,7340.0 7620.0,7340.0 C 7603.0,7340.0 7563.0,7332.0 7530.0,7323.0 C 7473.0,7308.0 7466.0,7308.0 7416.0,7323.0 C 7387.0,7332.0 7350.0,7340.0 7333.0,7340.0 C 7316.0,7340.0 7292.0,7348.0 7279.0,7358.0 C 7240.0,7388.0 7228.0,7389.0 7078.0,7374.0 C 6912.0,7357.0 6889.0,7350.0 6897.0,7321.0 C 6902.0,7302.0 6898.0,7300.0 6857.0,7300.0 C 6822.0,7300.0 6808.0,7295.0 6801.0,7281.0 C 6792.0,7265.0 6774.0,7261.0 6688.0,7255.0 C 6609.0,7249.0 6580.0,7243.0 6558.0,7227.0 C 6532.0,7208.0 6516.0,7206.0 6265.0,7206.0 L 5999.0,7205.0 L 5980.0,7180.0 C 5969.0,7166.0 5960.0,7147.0 5960.0,7137.0 C 5960.0,7128.0 5949.0,7102.0 5935.0,7081.0 C 5896.0,7023.0 5871.0,7019.0 5618.0,7030.0 C 5499.0,7034.0 5384.0,7036.0 5363.0,7033.0 C 5320.0,7027.0 5270.0,7048.0 5192.0,7103.0 C 5159.0,7127.0 5136.0,7135.0 5090.0,7138.0 C 5056.0,7140.0 5025.0,7148.0 5019.0,7156.0 C 5012.0,7164.0 4988.0,7170.0 4961.0,7170.0 C 4936.0,7170.0 4884.0,7182.0 4845.0,7196.0 C 4807.0,7210.0 4763.0,7224.0 4748.0,7227.0 C 4733.0,7230.0 4703.0,7247.0 4681.0,7266.0 C 4652.0,7291.0 4632.0,7300.0 4606.0,7300.0 C 4581.0,7300.0 4570.0,7305.0 4570.0,7314.0 C 4570.0,7346.0 4414.0,7400.0 4323.0,7400.0 C 4297.0,7400.0 4287.0,7395.0 4283.0,7380.0 C 4277.0,7357.0 4271.0,7355.0 4160.0,7340.0 C 4088.0,7330.0 4070.0,7330.0 4040.0,7343.0 L 4005.0,7358.0 L 3960.0,7310.0 L 3915.0,7262.0 L 3848.0,7262.0 C 3798.0,7262.0 3774.0,7258.0 3754.0,7244.0 C 3693.0,7200.0 3674.0,7190.0 3655.0,7190.0 C 3617.0,7190.0 3573.0,7153.0 3546.0,7099.0 C 3525.0,7055.0 3520.0,7032.0 3520.0,6968.0 C 3520.0,6898.0 3516.0,6882.0 3484.0,6817.0 C 3448.0,6746.0 3447.0,6744.0 3453.0,6655.0 C 3460.0,6538.0 3485.0,6475.0 3530.0,6465.0 C 3560.0,6458.0 3561.0,6457.0 3544.0,6439.0 C 3530.0,6423.0 3513.0,6420.0 3446.0,6420.0 L 3364.0,6420.0 L 3296.0,6477.0 L 3228.0,6533.0 L 3074.0,6521.0 C 2924.0,6510.0 2918.0,6510.0 2891.0,6530.0 C 2872.0,6543.0 2846.0,6550.0 2816.0,6550.0 C 2782.0,6550.0 2754.0,6559.0 2712.0,6583.0 C 2659.0,6612.0 2648.0,6615.0 2560.0,6616.0 C 2497.0,6617.0 2450.0,6623.0 2420.0,6635.0 C 2382.0,6649.0 2360.0,6651.0 2280.0,6644.0 C 2153.0,6633.0 2008.0,6637.0 1937.0,6655.0 C 1832.0,6682.0 1796.0,6676.0 1677.0,6615.0 C 1618.0,6585.0 1545.0,6553.0 1515.0,6545.0 C 1455.0,6530.0 1351.0,6449.0 1324.0,6397.0 C 1315.0,6380.0 1291.0,6361.0 1266.0,6350.0 C 1207.0,6325.0 1199.0,6295.0 1246.0,6272.0 C 1277.0,6258.0 1280.0,6252.0 1278.0,6219.0 C 1277.0,6188.0 1286.0,6171.0 1344.0,6096.0 C 1411.0,6010.0 1411.0,6010.0 1449.0,6016.0 C 1484.0,6022.0 1489.0,6019.0 1518.0,5984.0 C 1567.0,5925.0 1574.0,5938.0 1413.0,5793.0 C 1376.0,5759.0 1317.0,5709.0 1283.0,5681.0 C 1249.0,5653.0 1205.0,5610.0 1184.0,5586.0 C 1164.0,5562.0 1130.0,5534.0 1109.0,5525.0 C 1086.0,5514.0 1069.0,5499.0 1066.0,5485.0 C 1062.0,5468.0 1026.0,5442.0 935.0,5390.0 L 810.0,5319.0 L 810.0,5279.0 C 810.0,5257.0 817.0,5228.0 826.0,5215.0 C 840.0,5194.0 850.0,5190.0 894.0,5190.0 C 936.0,5190.0 958.0,5183.0 1004.0,5155.0 C 1036.0,5136.0 1066.0,5120.0 1070.0,5120.0 C 1074.0,5120.0 1107.0,5136.0 1144.0,5155.0 C 1224.0,5197.0 1288.0,5202.0 1320.0,5170.0 C 1337.0,5153.0 1340.0,5137.0 1340.0,5055.0 C 1340.0,4996.0 1344.0,4960.0 1350.0,4960.0 C 1356.0,4960.0 1379.0,4969.0 1401.0,4980.0 L 1441.0,5001.0 L 1469.0,4980.0 C 1507.0,4954.0 1528.0,4955.0 1572.0,4985.0 C 1617.0,5015.0 1621.0,5015.0 1695.0,4990.0 C 1727.0,4979.0 1763.0,4970.0 1776.0,4970.0 C 1791.0,4970.0 1812.0,4954.0 1837.0,4925.0 C 1857.0,4900.0 1881.0,4880.0 1890.0,4880.0 C 1920.0,4880.0 1940.0,4933.0 1940.0,5012.0 L 1940.0,5086.0 L 1975.0,5103.0 C 2010.0,5120.0 2010.0,5120.0 2010.0,5096.0 C 2010.0,5073.0 2038.0,5040.0 2057.0,5040.0 C 2063.0,5040.0 2070.0,5058.0 2074.0,5079.0 C 2079.0,5112.0 2087.0,5123.0 2125.0,5147.0 C 2177.0,5179.0 2181.0,5199.0 2144.0,5243.0 C 2116.0,5276.0 2123.0,5290.0 2171.0,5290.0 C 2185.0,5290.0 2202.0,5296.0 2209.0,5303.0 C 2220.0,5313.0 2221.0,5306.0 2216.0,5263.0 C 2210.0,5218.0 2212.0,5210.0 2229.0,5200.0 C 2242.0,5193.0 2251.0,5193.0 2255.0,5200.0 C 2267.0,5220.0 2289.0,5210.0 2295.0,5182.0 C 2298.0,5166.0 2314.0,5144.0 2329.0,5132.0 L 2358.0,5111.0 L 2344.0,5048.0 C 2337.0,5013.0 2331.0,4977.0 2330.0,4968.0 C 2330.0,4936.0 2363.0,4929.0 2474.0,4938.0 L 2580.0,4946.0 L 2586.0,4912.0 C 2590.0,4894.0 2590.0,4866.0 2586.0,4850.0 L 2580.0,4820.0 L 2648.0,4820.0 C 2691.0,4820.0 2739.0,4828.0 2779.0,4841.0 L 2842.0,4862.0 L 2923.0,4840.0 C 3025.0,4811.0 3047.0,4800.0 3088.0,4757.0 C 3120.0,4724.0 3122.0,4723.0 3171.0,4732.0 C 3214.0,4740.0 3233.0,4737.0 3302.0,4714.0 C 3381.0,4688.0 3384.0,4688.0 3416.0,4705.0 C 3439.0,4717.0 3453.0,4719.0 3466.0,4712.0 C 3475.0,4707.0 3495.0,4706.0 3509.0,4709.0 C 3544.0,4719.0 3584.0,4708.0 3588.0,4687.0 C 3591.0,4672.0 3581.0,4670.0 3508.0,4670.0 L 3424.0,4670.0 L 3368.0,4620.0 C 3332.0,4588.0 3301.0,4547.0 3279.0,4505.0 L 3245.0,4439.0 L 3208.0,4445.0 C 3157.0,4454.0 3147.0,4445.0 3166.0,4409.0 C 3174.0,4392.0 3179.0,4376.0 3176.0,4373.0 C 3173.0,4369.0 3142.0,4364.0 3108.0,4361.0 C 3048.0,4355.0 3042.0,4357.0 2985.0,4391.0 C 2928.0,4426.0 2820.0,4453.0 2820.0,4432.0 C 2820.0,4418.0 2860.0,4380.0 2875.0,4380.0 C 2892.0,4380.0 2895.0,4359.0 2880.0,4344.0 C 2875.0,4339.0 2867.0,4310.0 2863.0,4280.0 C 2856.0,4235.0 2851.0,4224.0 2834.0,4222.0 C 2807.0,4218.0 2750.0,4265.0 2750.0,4291.0 C 2750.0,4349.0 2636.0,4265.0 2613.0,4190.0 C 2607.0,4171.0 2588.0,4124.0 2572.0,4085.0 L 2543.0,4015.0 L 2494.0,4014.0 C 2464.0,4012.0 2430.0,4003.0 2408.0,3991.0 C 2359.0,3962.0 2250.0,3951.0 2231.0,3974.0 C 2220.0,3987.0 2199.0,3990.0 2129.0,3990.0 C 2051.0,3990.0 2039.0,3992.0 2030.0,4010.0 C 2022.0,4024.0 2009.0,4030.0 1982.0,4030.0 C 1962.0,4031.0 1934.0,4037.0 1920.0,4045.0 C 1880.0,4068.0 1763.0,4064.0 1699.0,4038.0 C 1631.0,4011.0 1620.0,3997.0 1620.0,3939.0 C 1620.0,3897.0 1624.0,3889.0 1668.0,3848.0 C 1694.0,3824.0 1723.0,3799.0 1733.0,3794.0 C 1754.0,3782.0 1774.0,3707.0 1766.0,3673.0 C 1761.0,3654.0 1755.0,3652.0 1725.0,3657.0 C 1702.0,3661.0 1682.0,3657.0 1665.0,3646.0 C 1636.0,3627.0 1634.0,3636.0 1655.0,3687.0 C 1678.0,3742.0 1674.0,3775.0 1640.0,3803.0 C 1617.0,3823.0 1610.0,3837.0 1610.0,3865.0 L 1610.0,3902.0 L 1506.0,3898.0 C 1403.0,3895.0 1402.0,3894.0 1362.0,3858.0 C 1340.0,3838.0 1313.0,3819.0 1302.0,3816.0 C 1288.0,3811.0 1276.0,3792.0 1265.0,3759.0 C 1245.0,3701.0 1185.0,3645.0 1169.0,3671.0 C 1164.0,3679.0 1160.0,3697.0 1160.0,3711.0 C 1160.0,3743.0 1150.0,3747.0 1067.0,3756.0 C 1018.0,3761.0 990.0,3757.0 933.0,3740.0 L 862.0,3719.0 L 823.0,3743.0 C 784.0,3768.0 664.0,3799.0 527.0,3821.0 L 450.0,3833.0 L 399.0,3801.0 C 371.0,3784.0 341.0,3770.0 332.0,3770.0 C 302.0,3770.0 232.0,3736.0 219.0,3715.0 C 212.0,3704.0 203.0,3675.0 200.0,3651.0 C 196.0,3611.0 192.0,3606.0 158.0,3594.0 C 122.0,3582.0 121.0,3582.0 94.0,3621.0 C 79.0,3643.0 62.0,3659.0 56.0,3657.0 C 50.0,3655.0 42.0,3629.0 39.0,3599.0 C 36.0,3569.0 26.0,3529.0 16.0,3509.0 L -2.0,3473.0 L 30.0,3411.0 C 60.0,3351.0 61.0,3343.0 55.0,3276.0 C 45.0,3168.0 39.0,3170.0 347.0,3170.0 C 500.0,3170.0 616.0,3175.0 652.0,3182.0 C 703.0,3193.0 714.0,3192.0 739.0,3177.0 C 779.0,3153.0 799.0,3156.0 840.0,3189.0 L 874.0,3218.0 L 914.0,3198.0 C 945.0,3182.0 958.0,3180.0 977.0,3189.0 C 1011.0,3204.0 1101.0,3202.0 1124.0,3185.0 C 1138.0,3174.0 1141.0,3163.0 1136.0,3136.0 C 1133.0,3116.0 1127.0,3084.0 1124.0,3064.0 C 1119.0,3034.0 1122.0,3024.0 1146.0,2999.0 C 1180.0,2964.0 1225.0,2960.0 1264.0,2991.0 C 1278.0,3002.0 1333.0,3029.0 1386.0,3050.0 C 1439.0,3071.0 1492.0,3098.0 1504.0,3109.0 C 1536.0,3139.0 1674.0,3200.0 1711.0,3200.0 C 1737.0,3200.0 1754.0,3188.0 1805.0,3134.0 C 1866.0,3071.0 1870.0,3069.0 1927.0,3063.0 C 2013.0,3055.0 2040.0,3026.0 2040.0,2944.0 C 2040.0,2870.0 2058.0,2846.0 2091.0,2876.0 C 2109.0,2892.0 2116.0,2893.0 2157.0,2882.0 C 2197.0,2871.0 2204.0,2871.0 2216.0,2887.0 C 2223.0,2897.0 2230.0,2908.0 2230.0,2913.0 C 2231.0,2934.0 2285.0,2914.0 2373.0,2860.0 C 2426.0,2827.0 2481.0,2800.0 2493.0,2800.0 C 2520.0,2800.0 2554.0,2832.0 2569.0,2872.0 C 2583.0,2909.0 2632.0,2942.0 2720.0,2975.0 C 2788.0,2999.0 2813.0,3003.0 2995.0,3010.0 C 3105.0,3015.0 3253.0,3026.0 3324.0,3035.0 C 3451.0,3050.0 3454.0,3051.0 3546.0,3105.0 C 3626.0,3152.0 3646.0,3160.0 3690.0,3160.0 C 3718.0,3160.0 3751.0,3153.0 3764.0,3145.0 C 3786.0,3131.0 3788.0,3132.0 3819.0,3170.0 C 3842.0,3199.0 3859.0,3210.0 3878.0,3210.0 C 3893.0,3210.0 3924.0,3219.0 3946.0,3229.0 C 3978.0,3244.0 3990.0,3255.0 3995.0,3279.0 C 3999.0,3296.0 4013.0,3323.0 4026.0,3339.0 L 4050.0,3368.0 L 4034.0,3480.0 L 4019.0,3592.0 L 4042.0,3617.0 C 4055.0,3631.0 4093.0,3661.0 4128.0,3683.0 C 4194.0,3727.0 4211.0,3753.0 4247.0,3865.0 C 4268.0,3929.0 4286.0,3950.0 4323.0,3950.0 C 4341.0,3950.0 4371.0,3964.0 4400.0,3985.0 C 4456.0,4026.0 4522.0,4039.0 4579.0,4020.0 C 4613.0,4009.0 4623.0,4010.0 4666.0,4029.0 C 4693.0,4041.0 4726.0,4062.0 4740.0,4074.0 C 4754.0,4087.0 4788.0,4109.0 4815.0,4123.0 C 4843.0,4138.0 4876.0,4165.0 4890.0,4184.0 C 4907.0,4208.0 4933.0,4226.0 4975.0,4242.0 C 5021.0,4260.0 5036.0,4271.0 5038.0,4288.0 C 5043.0,4323.0 5082.0,4336.0 5144.0,4323.0 C 5206.0,4310.0 5285.0,4317.0 5302.0,4337.0 C 5312.0,4349.0 5309.0,4357.0 5283.0,4379.0 C 5255.0,4401.0 5210.0,4490.0 5210.0,4520.0 C 5210.0,4538.0 5254.0,4530.0 5299.0,4505.0 L 5343.0,4479.0 L 5458.0,4511.0 C 5608.0,4553.0 5756.0,4631.0 5786.0,4685.0 C 5824.0,4752.0 5850.0,4770.0 5893.0,4763.0 C 5924.0,4758.0 5932.0,4752.0 5937.0,4730.0 C 5940.0,4714.0 5955.0,4686.0 5972.0,4666.0 C 5999.0,4633.0 6006.0,4630.0 6056.0,4630.0 C 6107.0,4630.0 6110.0,4628.0 6110.0,4606.0 C 6110.0,4592.0 6101.0,4575.0 6089.0,4567.0 C 6069.0,4553.0 6069.0,4551.0 6085.0,4496.0 C 6094.0,4465.0 6104.0,4440.0 6106.0,4440.0 C 6109.0,4440.0 6129.0,4449.0 6151.0,4461.0 C 6189.0,4480.0 6193.0,4480.0 6210.0,4465.0 C 6234.0,4443.0 6276.0,4455.0 6302.0,4491.0 C 6320.0,4515.0 6331.0,4520.0 6364.0,4520.0 C 6394.0,4520.0 6409.0,4525.0 6418.0,4540.0 C 6425.0,4552.0 6436.0,4557.0 6445.0,4554.0 C 6464.0,4546.0 6540.0,4574.0 6592.0,4607.0 C 6613.0,4619.0 6632.0,4630.0 6635.0,4630.0 C 6637.0,4630.0 6647.0,4616.0 6655.0,4599.0 L 6671.0,4569.0 L 6705.0,4594.0 C 6723.0,4608.0 6751.0,4620.0 6767.0,4620.0 C 6789.0,4621.0 6812.0,4639.0 6880.0,4712.0 L 6965.0,4803.0 L 6962.0,4889.0 C 6960.0,4956.0 6955.0,4981.0 6940.0,5002.0 C 6929.0,5017.0 6920.0,5032.0 6920.0,5036.0 C 6920.0,5040.0 6940.0,5067.0 6965.0,5096.0 C 6990.0,5124.0 7010.0,5158.0 7010.0,5170.0 C 7010.0,5209.0 7042.0,5247.0 7094.0,5272.0 C 7121.0,5284.0 7157.0,5306.0 7172.0,5318.0 C 7197.0,5339.0 7204.0,5341.0 7232.0,5331.0 C 7260.0,5321.0 7266.0,5322.0 7290.0,5345.0 C 7313.0,5367.0 7324.0,5370.0 7396.0,5370.0 C 7445.0,5370.0 7481.0,5375.0 7488.0,5382.0 C 7495.0,5389.0 7526.0,5395.0 7558.0,5396.0 C 7589.0,5398.0 7634.0,5405.0 7657.0,5414.0 C 7686.0,5424.0 7720.0,5427.0 7772.0,5423.0 C 7838.0,5418.0 7852.0,5420.0 7918.0,5449.0 C 7960.0,5466.0 8008.0,5479.0 8028.0,5479.0 C 8048.0,5478.0 8095.0,5490.0 8133.0,5504.0 C 8188.0,5525.0 8218.0,5530.0 8293.0,5530.0 C 8429.0,5530.0 8449.0,5544.0 8522.0,5689.0 C 8554.0,5751.0 8589.0,5829.0 8601.0,5861.0 C 8616.0,5901.0 8628.0,5920.0 8639.0,5920.0 C 8648.0,5920.0 8677.0,5942.0 8704.0,5969.0 C 8742.0,6007.0 8762.0,6019.0 8794.0,6024.0 C 8825.0,6029.0 8842.0,6039.0 8863.0,6065.0 C 8878.0,6084.0 8925.0,6126.0 8968.0,6158.0 C 9010.0,6191.0 9089.0,6258.0 9142.0,6307.0 C 9238.0,6397.0 9239.0,6398.0 9298.0,6402.0 C 9352.0,6406.0 9362.0,6411.0 9411.0,6453.0 C 9463.0,6499.0 9510.0,6514.0 9525.0,6490.0 C 9528.0,6485.0 9549.0,6476.0 9572.0,6469.0 C 9651.0,6448.0 9730.0,6506.0 9782.0,6621.0 C 9791.0,6643.0 9810.0,6665.0 9824.0,6671.0 C 9837.0,6678.0 9854.0,6696.0 9861.0,6712.0 C 9881.0,6760.0 9933.0,6787.0 10034.0,6800.0 C 10104.0,6809.0 10130.0,6817.0 10153.0,6836.0 C 10169.0,6850.0 10195.0,6867.0 10211.0,6876.0 C 10234.0,6888.0 10240.0,6897.0 10240.0,6925.0 C 10240.0,6943.0 10237.0,6961.0 10232.0,6964.0 C 10228.0,6966.0 10205.0,6965.0 10180.0,6960.0 L 10135.0,6952.0 L 10058.0,7026.0 C 9996.0,7085.0 9974.0,7100.0 9950.0,7100.0 C 9933.0,7100.0 9906.0,7107.0 9890.0,7115.0 C 9849.0,7136.0 9665.0,7130.0 9629.0,7107.0 C 9615.0,7098.0 9584.0,7087.0 9559.0,7084.0 C 9523.0,7079.0 9507.0,7083.0 9468.0,7105.0 C 9441.0,7120.0 9420.0,7135.0 9420.0,7139.0 C 9420.0,7160.0 9338.0,7238.0 9310.0,7244.0 C 9293.0,7247.0 9262.0,7264.0 9240.0,7281.0 C 9207.0,7307.0 9201.0,7320.0 9195.0,7364.0 C 9191.0,7392.0 9185.0,7420.0 9181.0,7426.0 C 9177.0,7432.0 9155.0,7426.0 9117.0,7407.0" fill="pink"/>
</svg>
