<?xml version="1.0" ?>
<svg xmlns="http://www.w3.org/2000/svg" xmlns:ev="http://www.w3.org/2001/xml-events" xmlns:xlink="http://www.w3.org/1999/xlink" baseProfile="full" height="500px" version="1.1" viewBox="-1029.5639173384657 9.324341356941659 12294.28440267609 10238.117403253133" width="600px">
	<defs/>
	<path d="M 9994.0,9355.0 C 9986.0,9336.0 9976.0,9320.0 9972.0,9320.0 C 9968.0,9320.0 9944.0,9301.0 9919.0,9277.0 C 9878.0,9239.0 9873.0,9229.0 9861.0,9165.0 L 9849.0,9095.0 L 9789.0,9098.0 C 9732.0,9102.0 9728.0,9104.0 9693.0,9146.0 C 9663.0,9181.0 9649.0,9190.0 9624.0,9190.0 C 9575.0,9190.0 9543.0,9174.0 9536.0,9147.0 C 9533.0,9133.0 9521.0,9120.0 9510.0,9117.0 C 9495.0,9113.0 9490.0,9104.0 9490.0,9077.0 C 9490.0,9057.0 9486.0,9030.0 9480.0,9016.0 C 9472.0,8994.0 9464.0,8990.0 9433.0,8990.0 C 9397.0,8990.0 9394.0,8987.0 9370.0,8938.0 C 9349.0,8893.0 9337.0,8881.0 9290.0,8858.0 C 9219.0,8823.0 9199.0,8824.0 9160.0,8860.0 C 9123.0,8895.0 9070.0,8902.0 9070.0,8873.0 C 9070.0,8863.0 9060.0,8834.0 9048.0,8809.0 C 9031.0,8775.0 9017.0,8760.0 8995.0,8753.0 C 8969.0,8745.0 8965.0,8739.0 8965.0,8710.0 L 8965.0,8675.0 L 8888.0,8675.0 C 8840.0,8675.0 8807.0,8670.0 8799.0,8663.0 C 8792.0,8656.0 8779.0,8650.0 8770.0,8650.0 C 8762.0,8650.0 8744.0,8643.0 8732.0,8634.0 C 8710.0,8619.0 8707.0,8619.0 8686.0,8639.0 C 8674.0,8651.0 8659.0,8660.0 8653.0,8660.0 C 8648.0,8660.0 8635.0,8675.0 8626.0,8693.0 C 8616.0,8710.0 8593.0,8736.0 8575.0,8750.0 C 8554.0,8766.0 8539.0,8787.0 8535.0,8807.0 C 8529.0,8842.0 8487.0,8882.0 8465.0,8874.0 C 8444.0,8866.0 8328.0,8910.0 8298.0,8938.0 C 8283.0,8952.0 8270.0,8974.0 8268.0,8989.0 C 8266.0,9008.0 8259.0,9016.0 8240.0,9018.0 C 8180.0,9025.0 8170.0,9030.0 8170.0,9056.0 C 8170.0,9082.0 8096.0,9180.0 8077.0,9180.0 C 8072.0,9180.0 8046.0,9163.0 8021.0,9143.0 C 7996.0,9123.0 7974.0,9105.0 7972.0,9105.0 C 7971.0,9104.0 7974.0,9091.0 7980.0,9076.0 C 7989.0,9052.0 7988.0,9050.0 7971.0,9060.0 C 7960.0,9065.0 7940.0,9070.0 7926.0,9070.0 C 7903.0,9070.0 7900.0,9066.0 7900.0,9038.0 C 7900.0,9020.0 7893.0,8986.0 7884.0,8963.0 C 7870.0,8927.0 7863.0,8920.0 7840.0,8920.0 C 7825.0,8920.0 7793.0,8913.0 7769.0,8905.0 C 7728.0,8890.0 7725.0,8890.0 7710.0,8909.0 C 7702.0,8920.0 7676.0,8933.0 7654.0,8939.0 C 7631.0,8945.0 7601.0,8959.0 7586.0,8971.0 L 7560.0,8991.0 L 7560.0,8952.0 C 7560.0,8845.0 7414.0,8663.0 7386.0,8735.0 C 7380.0,8752.0 7339.0,8755.0 7323.0,8739.0 C 7315.0,8731.0 7310.0,8731.0 7306.0,8739.0 C 7302.0,8745.0 7284.0,8750.0 7265.0,8750.0 C 7238.0,8750.0 7231.0,8746.0 7228.0,8728.0 C 7226.0,8714.0 7215.0,8704.0 7195.0,8698.0 C 7171.0,8692.0 7161.0,8695.0 7139.0,8716.0 C 7119.0,8735.0 7106.0,8740.0 7090.0,8735.0 C 7076.0,8731.0 7071.0,8723.0 7074.0,8713.0 C 7077.0,8705.0 7080.0,8688.0 7080.0,8676.0 C 7080.0,8662.0 7089.0,8649.0 7103.0,8643.0 C 7123.0,8633.0 7128.0,8622.0 7134.0,8569.0 C 7139.0,8520.0 7148.0,8493.0 7175.0,8453.0 C 7209.0,8402.0 7212.0,8400.0 7255.0,8400.0 L 7300.0,8400.0 L 7300.0,8361.0 C 7300.0,8280.0 7340.0,8221.0 7436.0,8164.0 C 7454.0,8153.0 7454.0,8151.0 7433.0,8107.0 C 7414.0,8068.0 7405.0,8059.0 7368.0,8049.0 C 7344.0,8043.0 7313.0,8032.0 7298.0,8024.0 C 7271.0,8010.0 7270.0,8006.0 7270.0,7934.0 L 7270.0,7858.0 L 7203.0,7865.0 C 7165.0,7869.0 7124.0,7878.0 7110.0,7885.0 C 7093.0,7893.0 7057.0,7896.0 6998.0,7892.0 L 6910.0,7888.0 L 6833.0,7954.0 C 6790.0,7990.0 6744.0,8023.0 6730.0,8027.0 C 6716.0,8030.0 6685.0,8047.0 6660.0,8065.0 C 6570.0,8130.0 6446.0,8180.0 6375.0,8180.0 C 6344.0,8180.0 6328.0,8186.0 6310.0,8205.0 C 6289.0,8227.0 6278.0,8230.0 6216.0,8230.0 C 6069.0,8231.0 5950.0,8254.0 5837.0,8305.0 C 5780.0,8330.0 5721.0,8364.0 5708.0,8378.0 C 5685.0,8404.0 5626.0,8526.0 5584.0,8635.0 C 5566.0,8682.0 5562.0,8685.0 5530.0,8685.0 C 5496.0,8685.0 5495.0,8684.0 5483.0,8631.0 C 5476.0,8600.0 5455.0,8553.0 5433.0,8521.0 L 5394.0,8465.0 L 5333.0,8465.0 C 5273.0,8465.0 5269.0,8467.0 5226.0,8509.0 C 5195.0,8539.0 5176.0,8569.0 5163.0,8610.0 C 5145.0,8667.0 5145.0,8670.0 5162.0,8703.0 L 5180.0,8738.0 L 5125.0,8769.0 C 5095.0,8786.0 5058.0,8800.0 5043.0,8800.0 C 4967.0,8800.0 4854.0,8824.0 4830.0,8845.0 C 4796.0,8876.0 4766.0,8884.0 4751.0,8866.0 C 4727.0,8838.0 4673.0,8827.0 4624.0,8840.0 C 4588.0,8850.0 4574.0,8850.0 4555.0,8840.0 C 4542.0,8833.0 4520.0,8830.0 4505.0,8832.0 C 4474.0,8838.0 4386.0,8794.0 4351.0,8754.0 C 4327.0,8726.0 4332.0,8726.0 4207.0,8746.0 C 4176.0,8751.0 4167.0,8748.0 4152.0,8730.0 L 4133.0,8707.0 L 4103.0,8729.0 C 4067.0,8756.0 3989.0,8769.0 3932.0,8757.0 C 3882.0,8747.0 3624.0,8752.0 3597.0,8764.0 C 3583.0,8771.0 3577.0,8768.0 3573.0,8751.0 C 3566.0,8723.0 3515.0,8722.0 3500.0,8750.0 C 3485.0,8779.0 3448.0,8775.0 3418.0,8741.0 C 3389.0,8709.0 3311.0,8693.0 3266.0,8710.0 C 3218.0,8728.0 3143.0,8723.0 3127.0,8701.0 C 3115.0,8682.0 3111.0,8682.0 3069.0,8696.0 C 3045.0,8704.0 3011.0,8717.0 2993.0,8725.0 C 2952.0,8745.0 2920.0,8744.0 2903.0,8723.0 C 2890.0,8706.0 2889.0,8706.0 2874.0,8728.0 C 2862.0,8744.0 2848.0,8750.0 2821.0,8750.0 C 2801.0,8750.0 2775.0,8756.0 2764.0,8764.0 C 2753.0,8772.0 2728.0,8780.0 2709.0,8782.0 C 2673.0,8785.0 2669.0,8795.0 2685.0,8853.0 L 2692.0,8880.0 L 2630.0,8880.0 C 2576.0,8880.0 2564.0,8877.0 2544.0,8855.0 C 2516.0,8825.0 2491.0,8823.0 2448.0,8850.0 C 2414.0,8870.0 2368.0,8875.0 2310.0,8864.0 C 2284.0,8858.0 2274.0,8849.0 2260.0,8814.0 C 2250.0,8791.0 2232.0,8767.0 2221.0,8761.0 C 2195.0,8746.0 2193.0,8747.0 2187.0,8770.0 C 2179.0,8799.0 2134.0,8807.0 2107.0,8782.0 C 2070.0,8749.0 2044.0,8740.0 1979.0,8740.0 C 1945.0,8740.0 1872.0,8731.0 1816.0,8721.0 C 1760.0,8710.0 1686.0,8696.0 1650.0,8690.0 C 1554.0,8674.0 1468.0,8629.0 1418.0,8568.0 C 1339.0,8473.0 1323.0,8460.0 1290.0,8460.0 C 1272.0,8460.0 1245.0,8449.0 1224.0,8434.0 C 1196.0,8412.0 1190.0,8401.0 1190.0,8370.0 C 1190.0,8346.0 1183.0,8327.0 1170.0,8315.0 C 1159.0,8305.0 1150.0,8286.0 1150.0,8273.0 C 1150.0,8259.0 1141.0,8237.0 1130.0,8223.0 C 1115.0,8203.0 1110.0,8182.0 1110.0,8134.0 C 1110.0,8071.0 1110.0,8070.0 1072.0,8051.0 C 1038.0,8033.0 932.0,7930.0 832.0,7818.0 C 791.0,7771.0 790.0,7769.0 790.0,7696.0 L 790.0,7621.0 L 745.0,7590.0 C 720.0,7573.0 674.0,7547.0 642.0,7533.0 C 611.0,7519.0 551.0,7484.0 509.0,7457.0 L 433.0,7407.0 L 444.0,7372.0 C 452.0,7343.0 464.0,7333.0 510.0,7311.0 L 565.0,7286.0 L 521.0,7273.0 C 497.0,7266.0 457.0,7244.0 432.0,7223.0 L 386.0,7185.0 L 290.0,7185.0 C 238.0,7185.0 167.0,7189.0 133.0,7194.0 C 72.0,7203.0 56.0,7198.0 0.0,7152.0 C -3.0,7150.0 3.0,7144.0 13.0,7139.0 C 53.0,7116.0 63.0,7073.0 56.0,6945.0 C 51.0,6837.0 53.0,6810.0 80.0,6670.0 C 97.0,6585.0 113.0,6481.0 117.0,6440.0 C 123.0,6360.0 148.0,6309.0 229.0,6210.0 C 249.0,6185.0 274.0,6152.0 284.0,6135.0 C 294.0,6119.0 314.0,6093.0 328.0,6078.0 L 353.0,6051.0 L 326.0,6039.0 C 303.0,6028.0 300.0,6021.0 300.0,5973.0 C 300.0,5943.0 307.0,5905.0 316.0,5888.0 C 327.0,5867.0 330.0,5845.0 326.0,5819.0 C 322.0,5793.0 326.0,5769.0 340.0,5738.0 C 366.0,5680.0 366.0,5609.0 340.0,5585.0 C 324.0,5570.0 320.0,5554.0 320.0,5495.0 C 320.0,5417.0 325.0,5411.0 387.0,5410.0 C 400.0,5410.0 437.0,5385.0 475.0,5351.0 C 511.0,5318.0 550.0,5288.0 561.0,5285.0 C 572.0,5281.0 591.0,5257.0 604.0,5232.0 C 618.0,5206.0 661.0,5148.0 702.0,5103.0 C 808.0,4983.0 828.0,4957.0 835.0,4927.0 C 844.0,4892.0 834.0,4850.0 816.0,4850.0 C 793.0,4850.0 770.0,4815.0 770.0,4779.0 C 770.0,4760.0 761.0,4721.0 750.0,4692.0 C 739.0,4663.0 730.0,4622.0 730.0,4601.0 C 730.0,4579.0 725.0,4539.0 718.0,4511.0 C 702.0,4440.0 719.0,4373.0 775.0,4291.0 C 815.0,4232.0 821.0,4215.0 831.0,4135.0 C 842.0,4054.0 847.0,4040.0 882.0,3998.0 C 910.0,3964.0 920.0,3942.0 920.0,3916.0 C 920.0,3851.0 950.0,3789.0 1021.0,3704.0 L 1090.0,3623.0 L 1090.0,3497.0 C 1090.0,3384.0 1092.0,3372.0 1109.0,3367.0 C 1122.0,3364.0 1129.0,3350.0 1134.0,3319.0 C 1142.0,3265.0 1172.0,3176.0 1189.0,3157.0 C 1195.0,3149.0 1212.0,3139.0 1225.0,3136.0 C 1241.0,3132.0 1250.0,3122.0 1250.0,3110.0 C 1250.0,3100.0 1261.0,3074.0 1275.0,3054.0 C 1309.0,3003.0 1307.0,2984.0 1260.0,2952.0 C 1238.0,2937.0 1218.0,2917.0 1215.0,2908.0 C 1212.0,2899.0 1216.0,2858.0 1224.0,2818.0 C 1233.0,2775.0 1237.0,2720.0 1234.0,2685.0 C 1228.0,2626.0 1229.0,2625.0 1260.0,2607.0 C 1277.0,2598.0 1297.0,2590.0 1304.0,2590.0 C 1318.0,2590.0 1349.0,2649.0 1360.0,2698.0 C 1368.0,2730.0 1354.0,2782.0 1334.0,2803.0 C 1321.0,2816.0 1319.0,2932.0 1331.0,2947.0 C 1345.0,2963.0 1382.0,2964.0 1398.0,2948.0 C 1405.0,2941.0 1410.0,2924.0 1410.0,2909.0 C 1410.0,2895.0 1417.0,2863.0 1425.0,2840.0 C 1444.0,2785.0 1444.0,2721.0 1425.0,2700.0 C 1416.0,2690.0 1396.0,2652.0 1380.0,2614.0 L 1351.0,2545.0 L 1377.0,2540.0 C 1410.0,2534.0 1459.0,2457.0 1475.0,2386.0 C 1486.0,2338.0 1485.0,2333.0 1456.0,2287.0 C 1426.0,2239.0 1426.0,2237.0 1443.0,2208.0 C 1463.0,2174.0 1466.0,2086.0 1449.0,2030.0 C 1437.0,1990.0 1448.0,1958.0 1496.0,1894.0 C 1516.0,1867.0 1527.0,1862.0 1580.0,1857.0 C 1640.0,1850.0 1642.0,1851.0 1694.0,1890.0 C 1739.0,1924.0 1754.0,1930.0 1795.0,1930.0 C 1845.0,1930.0 1930.0,1891.0 1930.0,1868.0 C 1930.0,1861.0 1947.0,1860.0 1983.0,1864.0 C 2054.0,1873.0 2102.0,1890.0 2097.0,1904.0 C 2095.0,1910.0 2087.0,1938.0 2080.0,1965.0 C 2069.0,2009.0 2069.0,2020.0 2084.0,2047.0 C 2093.0,2065.0 2100.0,2089.0 2100.0,2101.0 C 2100.0,2113.0 2109.0,2137.0 2119.0,2154.0 C 2129.0,2171.0 2141.0,2199.0 2145.0,2217.0 C 2148.0,2234.0 2158.0,2251.0 2166.0,2254.0 C 2174.0,2257.0 2180.0,2271.0 2180.0,2285.0 C 2180.0,2307.0 2177.0,2310.0 2153.0,2304.0 C 2128.0,2297.0 2127.0,2298.0 2142.0,2318.0 C 2167.0,2355.0 2244.0,2417.0 2272.0,2423.0 C 2318.0,2435.0 2347.0,2416.0 2380.0,2350.0 C 2410.0,2291.0 2411.0,2290.0 2453.0,2290.0 C 2513.0,2290.0 2545.0,2257.0 2537.0,2203.0 C 2529.0,2153.0 2552.0,2050.0 2578.0,2012.0 C 2602.0,1979.0 2640.0,1868.0 2640.0,1832.0 C 2640.0,1819.0 2624.0,1790.0 2605.0,1767.0 C 2569.0,1725.0 2555.0,1680.0 2562.0,1630.0 L 2567.0,1600.0 L 2496.0,1600.0 C 2441.0,1600.0 2414.0,1594.0 2375.0,1575.0 C 2311.0,1544.0 2299.0,1533.0 2278.0,1488.0 C 2268.0,1468.0 2244.0,1432.0 2223.0,1409.0 C 2195.0,1377.0 2189.0,1366.0 2200.0,1362.0 C 2208.0,1359.0 2235.0,1337.0 2261.0,1313.0 C 2286.0,1290.0 2312.0,1270.0 2318.0,1270.0 C 2323.0,1270.0 2337.0,1254.0 2349.0,1234.0 L 2370.0,1199.0 L 2400.0,1216.0 C 2416.0,1226.0 2431.0,1232.0 2434.0,1229.0 C 2437.0,1227.0 2447.0,1191.0 2458.0,1150.0 L 2477.0,1075.0 L 2531.0,1067.0 C 2561.0,1062.0 2596.0,1056.0 2610.0,1054.0 C 2623.0,1051.0 2678.0,1005.0 2732.0,953.0 C 2841.0,846.0 2837.0,847.0 2908.0,910.0 C 2939.0,939.0 2940.0,941.0 2940.0,1027.0 C 2940.0,1141.0 2936.0,1154.0 2893.0,1174.0 C 2860.0,1190.0 2859.0,1192.0 2872.0,1213.0 C 2931.0,1303.0 2942.0,1332.0 2937.0,1371.0 L 2932.0,1410.0 L 2971.0,1410.0 C 3007.0,1410.0 3010.0,1408.0 3020.0,1372.0 C 3033.0,1323.0 3066.0,1292.0 3122.0,1275.0 C 3147.0,1268.0 3201.0,1248.0 3243.0,1230.0 C 3323.0,1197.0 3329.0,1196.0 3471.0,1216.0 C 3498.0,1219.0 3526.0,1217.0 3538.0,1211.0 C 3554.0,1203.0 3568.0,1205.0 3602.0,1220.0 C 3625.0,1231.0 3657.0,1240.0 3671.0,1240.0 C 3705.0,1240.0 3747.0,1195.0 3755.0,1147.0 C 3759.0,1126.0 3769.0,1102.0 3777.0,1095.0 C 3796.0,1075.0 3840.0,1076.0 3868.0,1096.0 C 3890.0,1111.0 3893.0,1110.0 3933.0,1070.0 C 3995.0,1007.0 4077.0,955.0 4092.0,968.0 C 4109.0,981.0 4146.0,967.0 4162.0,940.0 C 4179.0,913.0 4186.0,915.0 4198.0,950.0 C 4205.0,969.0 4222.0,985.0 4247.0,997.0 C 4276.0,1011.0 4288.0,1024.0 4298.0,1055.0 C 4305.0,1077.0 4319.0,1102.0 4329.0,1110.0 C 4339.0,1118.0 4350.0,1133.0 4354.0,1144.0 C 4359.0,1160.0 4368.0,1162.0 4410.0,1158.0 C 4445.0,1154.0 4463.0,1157.0 4471.0,1166.0 C 4486.0,1184.0 4533.0,1183.0 4594.0,1165.0 C 4627.0,1155.0 4687.0,1150.0 4776.0,1150.0 L 4909.0,1150.0 L 4943.0,1184.0 C 4961.0,1203.0 4994.0,1249.0 5015.0,1286.0 C 5045.0,1337.0 5067.0,1361.0 5110.0,1388.0 C 5140.0,1407.0 5206.0,1451.0 5257.0,1484.0 L 5349.0,1545.0 L 5350.0,1592.0 C 5350.0,1633.0 5347.0,1641.0 5321.0,1656.0 C 5296.0,1671.0 5292.0,1681.0 5286.0,1732.0 C 5283.0,1764.0 5271.0,1808.0 5260.0,1830.0 C 5232.0,1886.0 5235.0,1903.0 5280.0,1944.0 C 5324.0,1983.0 5338.0,1988.0 5346.0,1965.0 C 5352.0,1949.0 5395.0,1936.0 5472.0,1925.0 C 5497.0,1922.0 5524.0,1912.0 5530.0,1905.0 C 5537.0,1897.0 5552.0,1890.0 5564.0,1890.0 C 5610.0,1889.0 5728.0,1859.0 5773.0,1835.0 C 5817.0,1813.0 5824.0,1812.0 5849.0,1824.0 C 5892.0,1847.0 5971.0,1955.0 5977.0,2000.0 C 5983.0,2044.0 5986.0,2046.0 6016.0,2026.0 C 6027.0,2018.0 6047.0,2012.0 6060.0,2012.0 C 6074.0,2011.0 6108.0,2008.0 6135.0,2005.0 C 6175.0,1999.0 6203.0,2004.0 6280.0,2028.0 C 6332.0,2045.0 6395.0,2064.0 6420.0,2070.0 C 6445.0,2076.0 6488.0,2097.0 6515.0,2115.0 C 6543.0,2134.0 6584.0,2151.0 6610.0,2155.0 C 6635.0,2159.0 6662.0,2164.0 6672.0,2166.0 C 6684.0,2170.0 6693.0,2158.0 6706.0,2123.0 C 6716.0,2097.0 6738.0,2055.0 6755.0,2030.0 C 6809.0,1954.0 6822.0,1923.0 6819.0,1867.0 C 6816.0,1816.0 6816.0,1816.0 6855.0,1798.0 C 6877.0,1789.0 6916.0,1780.0 6942.0,1780.0 L 6989.0,1780.0 L 6983.0,1814.0 C 6979.0,1842.0 6981.0,1849.0 6999.0,1855.0 C 7013.0,1859.0 7020.0,1870.0 7020.0,1888.0 C 7020.0,1913.0 7022.0,1913.0 7073.0,1864.0 C 7101.0,1836.0 7150.0,1792.0 7181.0,1767.0 L 7237.0,1720.0 L 7331.0,1720.0 C 7394.0,1719.0 7433.0,1715.0 7450.0,1705.0 C 7488.0,1683.0 7490.0,1686.0 7490.0,1743.0 C 7490.0,1798.0 7476.0,1829.0 7417.0,1903.0 C 7396.0,1930.0 7390.0,1944.0 7398.0,1952.0 C 7405.0,1959.0 7406.0,1983.0 7403.0,2013.0 L 7397.0,2063.0 L 7454.0,2057.0 C 7505.0,2052.0 7511.0,2053.0 7505.0,2068.0 C 7501.0,2077.0 7494.0,2113.0 7490.0,2148.0 C 7483.0,2199.0 7475.0,2219.0 7445.0,2255.0 C 7425.0,2280.0 7404.0,2300.0 7399.0,2300.0 C 7393.0,2300.0 7372.0,2289.0 7352.0,2275.0 C 7318.0,2252.0 7314.0,2251.0 7307.0,2267.0 C 7303.0,2277.0 7281.0,2295.0 7260.0,2308.0 C 7238.0,2320.0 7204.0,2344.0 7185.0,2361.0 C 7157.0,2386.0 7150.0,2399.0 7150.0,2430.0 C 7150.0,2464.0 7147.0,2468.0 7119.0,2474.0 C 7102.0,2477.0 7072.0,2480.0 7053.0,2480.0 C 7031.0,2480.0 7006.0,2490.0 6984.0,2506.0 C 6955.0,2528.0 6950.0,2539.0 6950.0,2572.0 C 6950.0,2622.0 6918.0,2670.0 6885.0,2670.0 C 6855.0,2670.0 6851.0,2683.0 6866.0,2739.0 C 6872.0,2764.0 6875.0,2810.0 6873.0,2840.0 C 6869.0,2883.0 6871.0,2899.0 6884.0,2909.0 C 6904.0,2926.0 6905.0,2973.0 6886.0,3003.0 C 6877.0,3017.0 6872.0,3053.0 6872.0,3098.0 C 6872.0,3161.0 6869.0,3175.0 6849.0,3196.0 C 6837.0,3209.0 6819.0,3220.0 6809.0,3220.0 C 6784.0,3220.0 6752.0,3252.0 6749.0,3280.0 C 6747.0,3299.0 6760.0,3320.0 6804.0,3364.0 L 6862.0,3423.0 L 6905.0,3402.0 C 6928.0,3391.0 6967.0,3379.0 6992.0,3375.0 C 7033.0,3369.0 7037.0,3370.0 7048.0,3395.0 C 7055.0,3409.0 7060.0,3429.0 7060.0,3440.0 C 7060.0,3450.0 7069.0,3461.0 7080.0,3465.0 C 7112.0,3475.0 7140.0,3524.0 7140.0,3569.0 C 7140.0,3600.0 7145.0,3612.0 7161.0,3621.0 C 7192.0,3637.0 7249.0,3625.0 7281.0,3594.0 C 7317.0,3560.0 7396.0,3543.0 7420.0,3565.0 C 7439.0,3583.0 7476.0,3585.0 7486.0,3569.0 C 7489.0,3563.0 7521.0,3545.0 7556.0,3529.0 C 7591.0,3514.0 7620.0,3497.0 7620.0,3491.0 C 7620.0,3476.0 7685.0,3440.0 7714.0,3440.0 C 7729.0,3440.0 7755.0,3447.0 7772.0,3456.0 C 7799.0,3470.0 7811.0,3471.0 7859.0,3460.0 C 7890.0,3453.0 7924.0,3439.0 7936.0,3429.0 C 7956.0,3410.0 7957.0,3410.0 7979.0,3434.0 C 8004.0,3460.0 8003.0,3463.0 7959.0,3520.0 C 7919.0,3572.0 7917.0,3598.0 7945.0,3669.0 C 7961.0,3706.0 7968.0,3740.0 7964.0,3754.0 C 7960.0,3772.0 7965.0,3782.0 7982.0,3796.0 L 8006.0,3814.0 L 7964.0,3922.0 C 7941.0,3981.0 7927.0,4030.0 7933.0,4030.0 C 7939.0,4030.0 7952.0,4038.0 7963.0,4047.0 C 7979.0,4062.0 7983.0,4063.0 7991.0,4050.0 C 8018.0,4004.0 8016.0,4005.0 8071.0,4019.0 C 8110.0,4029.0 8125.0,4030.0 8128.0,4021.0 C 8130.0,4014.0 8170.0,4010.0 8250.0,4010.0 C 8347.0,4010.0 8369.0,4013.0 8374.0,4025.0 C 8379.0,4039.0 8383.0,4039.0 8409.0,4025.0 C 8467.0,3996.0 8492.0,4008.0 8533.0,4085.0 C 8548.0,4113.0 8582.0,4159.0 8608.0,4189.0 L 8656.0,4243.0 L 8727.0,4226.0 C 8821.0,4205.0 8868.0,4206.0 8930.0,4230.0 C 8958.0,4241.0 8996.0,4250.0 9015.0,4250.0 C 9042.0,4250.0 9052.0,4256.0 9069.0,4283.0 C 9080.0,4301.0 9112.0,4338.0 9140.0,4366.0 C 9167.0,4393.0 9190.0,4421.0 9190.0,4428.0 C 9190.0,4434.0 9197.0,4440.0 9205.0,4440.0 C 9213.0,4440.0 9220.0,4449.0 9220.0,4459.0 C 9220.0,4470.0 9235.0,4487.0 9255.0,4500.0 C 9274.0,4512.0 9298.0,4532.0 9307.0,4544.0 C 9338.0,4583.0 9374.0,4600.0 9516.0,4639.0 C 9718.0,4696.0 9727.0,4697.0 9771.0,4657.0 C 9790.0,4640.0 9817.0,4606.0 9830.0,4582.0 L 9854.0,4539.0 L 9882.0,4572.0 C 9897.0,4590.0 9910.0,4617.0 9910.0,4631.0 C 9910.0,4653.0 9918.0,4660.0 9957.0,4675.0 C 10009.0,4695.0 10084.0,4759.0 10106.0,4801.0 C 10114.0,4817.0 10120.0,4849.0 10120.0,4873.0 C 10120.0,4897.0 10129.0,4943.0 10141.0,4976.0 C 10152.0,5008.0 10163.0,5062.0 10166.0,5095.0 C 10168.0,5128.0 10172.0,5184.0 10175.0,5220.0 C 10180.0,5272.0 10178.0,5294.0 10161.0,5329.0 C 10144.0,5368.0 10143.0,5377.0 10155.0,5400.0 C 10166.0,5421.0 10166.0,5430.0 10155.0,5450.0 C 10148.0,5464.0 10134.0,5525.0 10124.0,5585.0 C 10107.0,5689.0 10104.0,5699.0 10051.0,5779.0 L 9995.0,5863.0 L 9996.0,6004.0 L 9997.0,6145.0 L 10054.0,6304.0 C 10086.0,6392.0 10129.0,6499.0 10151.0,6542.0 C 10172.0,6585.0 10195.0,6644.0 10201.0,6672.0 C 10207.0,6701.0 10218.0,6737.0 10226.0,6751.0 C 10236.0,6770.0 10238.0,6814.0 10234.0,6926.0 L 10229.0,7075.0 L 10182.0,7174.0 C 10157.0,7228.0 10133.0,7297.0 10129.0,7326.0 C 10125.0,7355.0 10105.0,7414.0 10083.0,7457.0 C 10049.0,7526.0 10039.0,7539.0 9990.0,7567.0 C 9960.0,7585.0 9929.0,7603.0 9923.0,7607.0 C 9913.0,7613.0 9913.0,7631.0 9920.0,7680.0 C 9928.0,7733.0 9926.0,7747.0 9914.0,7762.0 C 9899.0,7777.0 9900.0,7781.0 9914.0,7802.0 C 9935.0,7831.0 9935.0,7876.0 9914.0,7884.0 C 9902.0,7888.0 9899.0,7901.0 9901.0,7935.0 C 9905.0,7996.0 9880.0,8021.0 9808.0,8028.0 C 9779.0,8031.0 9746.0,8040.0 9734.0,8049.0 C 9716.0,8062.0 9714.0,8072.0 9718.0,8140.0 C 9722.0,8213.0 9721.0,8218.0 9697.0,8237.0 C 9664.0,8263.0 9668.0,8281.0 9731.0,8382.0 C 9798.0,8489.0 9829.0,8612.0 9795.0,8640.0 C 9772.0,8659.0 9777.0,8680.0 9815.0,8734.0 C 9834.0,8761.0 9854.0,8797.0 9860.0,8814.0 C 9869.0,8842.0 9875.0,8846.0 9898.0,8843.0 C 9935.0,8838.0 9943.0,8846.0 9969.0,8915.0 C 10013.0,9032.0 10027.0,9095.0 10022.0,9156.0 C 10019.0,9207.0 10021.0,9218.0 10039.0,9234.0 C 10056.0,9250.0 10060.0,9265.0 10060.0,9322.0 C 10060.0,9388.0 10059.0,9390.0 10034.0,9390.0 C 10015.0,9390.0 10006.0,9382.0 9994.0,9355.0" fill="pink"/>
</svg>
