<?xml version="1.0" ?>
<svg xmlns="http://www.w3.org/2000/svg" xmlns:ev="http://www.w3.org/2001/xml-events" xmlns:xlink="http://www.w3.org/1999/xlink" baseProfile="full" height="503px" version="1.1" viewBox="-1027.7490769879844 -35.09080652853743 12298.926525636136 10305.886820200749" width="600px">
	<defs/>
	<path d="M 450.0,9371.0 C 409.0,9349.0 351.0,9309.0 322.0,9283.0 L 268.0,9235.0 L 258.0,9140.0 L 248.0,9045.0 L 180.0,8975.0 C 135.0,8929.0 99.0,8880.0 74.0,8830.0 C 38.0,8758.0 36.0,8748.0 19.0,8565.0 C 0.0,8363.0 -4.0,8095.0 9.0,7918.0 L 17.0,7812.0 L 119.0,7671.0 C 292.0,7429.0 375.0,7334.0 451.0,7292.0 C 502.0,7264.0 540.0,7230.0 615.0,7145.0 C 669.0,7085.0 765.0,6980.0 828.0,6913.0 L 944.0,6790.0 L 1054.0,6790.0 L 1165.0,6789.0 L 1314.0,6847.0 L 1462.0,6905.0 L 1503.0,6965.0 C 1525.0,6998.0 1568.0,7053.0 1598.0,7088.0 C 1637.0,7133.0 1658.0,7168.0 1671.0,7211.0 C 1696.0,7292.0 1696.0,7299.0 1655.0,7380.0 C 1627.0,7436.0 1612.0,7454.0 1580.0,7470.0 C 1552.0,7484.0 1540.0,7497.0 1539.0,7513.0 C 1539.0,7525.0 1535.0,7562.0 1530.0,7595.0 C 1524.0,7643.0 1526.0,7669.0 1542.0,7725.0 C 1572.0,7830.0 1634.0,7946.0 1669.0,7965.0 C 1685.0,7973.0 1728.0,8002.0 1763.0,8029.0 L 1828.0,8079.0 L 1848.0,8030.0 L 1868.0,7982.0 L 1954.0,7975.0 L 2039.0,7968.0 L 2083.0,7921.0 C 2106.0,7896.0 2138.0,7859.0 2153.0,7839.0 C 2167.0,7820.0 2191.0,7797.0 2205.0,7790.0 C 2224.0,7780.0 2235.0,7759.0 2251.0,7706.0 C 2267.0,7650.0 2281.0,7625.0 2318.0,7588.0 L 2364.0,7540.0 L 2453.0,7540.0 C 2521.0,7540.0 2550.0,7536.0 2580.0,7520.0 C 2615.0,7502.0 2620.0,7495.0 2620.0,7465.0 L 2620.0,7430.0 L 2673.0,7430.0 C 2735.0,7430.0 2770.0,7409.0 2857.0,7319.0 C 2896.0,7278.0 2917.0,7244.0 2944.0,7176.0 L 2980.0,7086.0 L 2980.0,6804.0 L 2980.0,6523.0 L 3028.0,6505.0 C 3054.0,6495.0 3101.0,6474.0 3133.0,6458.0 L 3191.0,6429.0 L 3224.0,6457.0 C 3247.0,6478.0 3278.0,6490.0 3340.0,6504.0 C 3430.0,6523.0 3470.0,6548.0 3470.0,6584.0 C 3470.0,6605.0 3575.0,6701.0 3605.0,6708.0 C 3638.0,6716.0 3658.0,6691.0 3665.0,6635.0 C 3671.0,6587.0 3676.0,6578.0 3705.0,6560.0 C 3732.0,6543.0 3755.0,6540.0 3852.0,6540.0 L 3966.0,6540.0 L 4040.0,6485.0 L 4114.0,6430.0 L 4211.0,6430.0 L 4309.0,6430.0 L 4345.0,6313.0 C 4365.0,6248.0 4382.0,6191.0 4384.0,6186.0 C 4385.0,6181.0 4419.0,6165.0 4460.0,6149.0 C 4552.0,6115.0 4656.0,6111.0 4772.0,6139.0 L 4849.0,6157.0 L 5042.0,6119.0 L 5234.0,6080.0 L 5364.0,5981.0 C 5477.0,5896.0 5508.0,5878.0 5590.0,5850.0 C 5674.0,5821.0 5693.0,5810.0 5750.0,5755.0 C 5791.0,5716.0 5835.0,5685.0 5870.0,5670.0 C 5997.0,5618.0 6206.0,5504.0 6294.0,5439.0 C 6380.0,5376.0 6392.0,5370.0 6437.0,5370.0 L 6486.0,5370.0 L 6523.0,5283.0 C 6557.0,5204.0 6568.0,5189.0 6630.0,5137.0 L 6698.0,5080.0 L 6778.0,5115.0 C 6822.0,5134.0 6861.0,5150.0 6864.0,5150.0 C 6868.0,5150.0 6880.0,5129.0 6891.0,5104.0 C 6901.0,5078.0 6944.0,5020.0 6985.0,4975.0 C 7058.0,4895.0 7060.0,4891.0 7060.0,4841.0 L 7060.0,4788.0 L 7094.0,4809.0 C 7115.0,4822.0 7144.0,4830.0 7172.0,4830.0 C 7213.0,4830.0 7224.0,4824.0 7311.0,4750.0 C 7363.0,4706.0 7437.0,4641.0 7475.0,4606.0 C 7514.0,4571.0 7572.0,4529.0 7605.0,4512.0 C 7671.0,4478.0 7710.0,4430.0 7750.0,4328.0 C 7770.0,4279.0 7778.0,4270.0 7804.0,4264.0 C 7868.0,4251.0 7954.0,4192.0 8013.0,4121.0 C 8045.0,4082.0 8079.0,4049.0 8088.0,4046.0 C 8101.0,4041.0 8182.0,3926.0 8229.0,3843.0 C 8233.0,3836.0 8263.0,3825.0 8296.0,3819.0 C 8328.0,3813.0 8384.0,3792.0 8419.0,3773.0 L 8482.0,3737.0 L 8476.0,3679.0 L 8469.0,3621.0 L 8517.0,3618.0 C 8564.0,3615.0 8565.0,3614.0 8597.0,3555.0 C 8619.0,3513.0 8654.0,3473.0 8717.0,3417.0 C 8765.0,3374.0 8808.0,3333.0 8811.0,3327.0 C 8815.0,3320.0 8821.0,3292.0 8825.0,3264.0 L 8831.0,3213.0 L 8899.0,3196.0 L 8967.0,3178.0 L 9008.0,3107.0 C 9067.0,3004.0 9143.0,2922.0 9327.0,2760.0 L 9489.0,2617.0 L 9529.0,2498.0 C 9572.0,2370.0 9574.0,2367.0 9731.0,2190.0 C 9767.0,2149.0 9831.0,2064.0 9873.0,2001.0 L 9948.0,1887.0 L 9911.0,1783.0 C 9877.0,1688.0 9869.0,1675.0 9826.0,1641.0 C 9800.0,1620.0 9748.0,1568.0 9711.0,1525.0 C 9673.0,1482.0 9608.0,1417.0 9565.0,1380.0 L 9488.0,1313.0 L 9413.0,1342.0 C 9325.0,1375.0 9227.0,1453.0 9140.0,1556.0 C 9082.0,1625.0 8852.0,1829.0 8797.0,1859.0 C 8779.0,1869.0 8721.0,1901.0 8667.0,1931.0 C 8573.0,1981.0 8567.0,1987.0 8539.0,2042.0 C 8519.0,2081.0 8500.0,2105.0 8477.0,2116.0 C 8378.0,2166.0 8269.0,2244.0 8232.0,2293.0 C 8209.0,2321.0 8158.0,2377.0 8118.0,2416.0 C 8049.0,2484.0 8041.0,2489.0 7970.0,2505.0 C 7889.0,2525.0 7816.0,2571.0 7730.0,2659.0 C 7705.0,2684.0 7649.0,2734.0 7605.0,2770.0 L 7526.0,2834.0 L 7345.0,2872.0 C 7246.0,2892.0 7164.0,2910.0 7163.0,2910.0 C 7162.0,2910.0 7130.0,2954.0 7093.0,3008.0 C 7037.0,3089.0 7021.0,3120.0 7007.0,3182.0 L 6989.0,3258.0 L 6920.0,3305.0 C 6860.0,3346.0 6843.0,3353.0 6778.0,3361.0 C 6738.0,3365.0 6660.0,3370.0 6605.0,3370.0 L 6505.0,3371.0 L 6341.0,3498.0 L 6177.0,3625.0 L 6142.0,3709.0 C 6106.0,3792.0 6105.0,3793.0 6020.0,3850.0 C 5956.0,3893.0 5898.0,3920.0 5791.0,3959.0 L 5648.0,4010.0 L 5517.0,4011.0 C 5304.0,4012.0 5226.0,4022.0 5109.0,4064.0 C 5007.0,4100.0 5004.0,4103.0 4948.0,4169.0 C 4894.0,4233.0 4890.0,4242.0 4890.0,4288.0 C 4890.0,4334.0 4887.0,4341.0 4847.0,4377.0 C 4823.0,4399.0 4786.0,4423.0 4764.0,4430.0 C 4743.0,4437.0 4710.0,4453.0 4692.0,4465.0 C 4663.0,4485.0 4654.0,4486.0 4610.0,4477.0 C 4563.0,4468.0 4557.0,4463.0 4493.0,4380.0 C 4431.0,4300.0 4418.0,4289.0 4350.0,4256.0 L 4275.0,4221.0 L 4020.0,4215.0 C 3880.0,4211.0 3743.0,4208.0 3715.0,4208.0 C 3688.0,4207.0 3613.0,4210.0 3550.0,4215.0 L 3435.0,4223.0 L 3374.0,4192.0 C 3323.0,4166.0 3294.0,4160.0 3194.0,4150.0 L 3075.0,4139.0 L 3028.0,4093.0 C 2986.0,4051.0 2981.0,4042.0 2975.0,3986.0 C 2965.0,3890.0 2965.0,3890.0 2923.0,3902.0 C 2903.0,3907.0 2850.0,3937.0 2804.0,3967.0 C 2721.0,4022.0 2720.0,4024.0 2720.0,4064.0 C 2720.0,4096.0 2728.0,4115.0 2755.0,4149.0 C 2774.0,4173.0 2790.0,4195.0 2790.0,4197.0 C 2790.0,4199.0 2777.0,4227.0 2760.0,4260.0 C 2726.0,4326.0 2710.0,4334.0 2610.0,4328.0 L 2556.0,4325.0 L 2547.0,4283.0 C 2543.0,4259.0 2532.0,4239.0 2522.0,4235.0 C 2513.0,4231.0 2422.0,4225.0 2319.0,4222.0 L 2134.0,4217.0 L 2115.0,4246.0 C 2105.0,4262.0 2053.0,4320.0 2000.0,4375.0 C 1947.0,4430.0 1887.0,4503.0 1867.0,4538.0 C 1833.0,4596.0 1830.0,4608.0 1830.0,4678.0 C 1830.0,4753.0 1828.0,4758.0 1784.0,4829.0 C 1759.0,4870.0 1710.0,4940.0 1676.0,4986.0 C 1642.0,5031.0 1603.0,5096.0 1589.0,5130.0 C 1569.0,5183.0 1553.0,5203.0 1485.0,5264.0 C 1348.0,5385.0 1337.0,5403.0 1291.0,5588.0 C 1257.0,5720.0 1250.0,5766.0 1250.0,5844.0 L 1250.0,5940.0 L 1357.0,6154.0 L 1464.0,6368.0 L 1522.0,6396.0 L 1580.0,6424.0 L 1580.0,6483.0 C 1580.0,6536.0 1561.0,6590.0 1525.0,6638.0 C 1524.0,6639.0 1497.0,6645.0 1466.0,6651.0 L 1408.0,6661.0 L 1317.0,6602.0 C 1187.0,6517.0 1143.0,6505.0 1000.0,6517.0 L 885.0,6527.0 L 815.0,6495.0 C 731.0,6456.0 629.0,6358.0 572.0,6261.0 C 535.0,6198.0 535.0,6197.0 441.0,6160.0 L 347.0,6123.0 L 309.0,6049.0 L 271.0,5975.0 L 271.0,5805.0 L 270.0,5635.0 L 338.0,5549.0 C 382.0,5492.0 443.0,5431.0 515.0,5373.0 C 576.0,5323.0 697.0,5206.0 785.0,5112.0 L 945.0,4941.0 L 1078.0,4683.0 L 1212.0,4425.0 L 1433.0,4262.0 C 1648.0,4104.0 1657.0,4096.0 1702.0,4022.0 L 1750.0,3945.0 L 2262.0,3798.0 L 2775.0,3651.0 L 3040.0,3616.0 C 3294.0,3581.0 3318.0,3580.0 3600.0,3580.0 C 3951.0,3580.0 4257.0,3594.0 4433.0,3619.0 L 4561.0,3636.0 L 4678.0,3551.0 C 4742.0,3505.0 4828.0,3440.0 4869.0,3408.0 C 4910.0,3376.0 4953.0,3347.0 4964.0,3345.0 C 4976.0,3342.0 5046.0,3329.0 5120.0,3315.0 C 5223.0,3296.0 5364.0,3254.0 5710.0,3139.0 L 6165.0,2988.0 L 6605.0,2773.0 C 6847.0,2655.0 7235.0,2460.0 7467.0,2339.0 L 7889.0,2118.0 L 8172.0,1867.0 C 8328.0,1728.0 8592.0,1503.0 8759.0,1366.0 C 9018.0,1155.0 9092.0,1100.0 9263.0,994.0 C 9373.0,926.0 9477.0,868.0 9494.0,866.0 C 9511.0,863.0 9621.0,854.0 9739.0,845.0 L 9953.0,828.0 L 10076.0,876.0 L 10200.0,923.0 L 10200.0,1005.0 C 10200.0,1061.0 10206.0,1105.0 10221.0,1148.0 L 10242.0,1211.0 L 10222.0,1268.0 C 10205.0,1314.0 10200.0,1359.0 10196.0,1501.0 L 10191.0,1677.0 L 10100.0,1910.0 C 10025.0,2102.0 9966.0,2227.0 9775.0,2599.0 C 9383.0,3362.0 9467.0,3236.0 9085.0,3641.0 C 8801.0,3943.0 8697.0,4045.0 8333.0,4376.0 C 8084.0,4602.0 7743.0,4899.0 7503.0,5098.0 L 7095.0,5436.0 L 6670.0,5700.0 L 6245.0,5964.0 L 5295.0,6453.0 C 4555.0,6834.0 4256.0,6994.0 3945.0,7175.0 C 3725.0,7302.0 3466.0,7451.0 3370.0,7506.0 C 3224.0,7588.0 3136.0,7649.0 2845.0,7869.0 C 2653.0,8015.0 2425.0,8195.0 2340.0,8269.0 C 1947.0,8614.0 1861.0,8677.0 1540.0,8862.0 C 1414.0,8935.0 1093.0,9161.0 1076.0,9189.0 C 1073.0,9193.0 999.0,9227.0 911.0,9265.0 C 769.0,9327.0 750.0,9337.0 745.0,9361.0 C 737.0,9396.0 723.0,9401.0 615.0,9406.0 C 526.0,9410.0 524.0,9410.0 450.0,9371.0" fill="pink"/>
</svg>
