<?xml version="1.0" ?>
<svg xmlns="http://www.w3.org/2000/svg" xmlns:ev="http://www.w3.org/2001/xml-events" xmlns:xlink="http://www.w3.org/1999/xlink" baseProfile="full" height="483px" version="1.1" viewBox="-1024.283443434235 176.48212581596272 12291.726139026057 9891.041608697098" width="600px">
	<defs/>
	<path d="M 882.0,9214.0 C 858.0,9195.0 833.0,9187.0 788.0,9182.0 C 736.0,9178.0 722.0,9172.0 702.0,9148.0 C 687.0,9130.0 669.0,9120.0 652.0,9120.0 C 637.0,9120.0 587.0,9106.0 541.0,9088.0 C 464.0,9057.0 455.0,9051.0 418.0,8996.0 C 352.0,8900.0 330.0,8834.0 330.0,8732.0 C 330.0,8656.0 327.0,8641.0 310.0,8625.0 C 286.0,8603.0 285.0,8586.0 306.0,8529.0 C 326.0,8473.0 370.0,8193.0 370.0,8119.0 C 370.0,8084.0 361.0,8041.0 346.0,8003.0 C 333.0,7970.0 317.0,7905.0 310.0,7859.0 C 299.0,7786.0 300.0,7768.0 314.0,7721.0 C 337.0,7642.0 335.0,7569.0 306.0,7512.0 C 249.0,7397.0 246.0,7377.0 259.0,7138.0 C 265.0,7018.0 273.0,6892.0 277.0,6857.0 L 282.0,6794.0 L 222.0,6718.0 C 183.0,6669.0 131.0,6583.0 80.0,6479.0 C -12.0,6296.0 -14.0,6282.0 41.0,6188.0 C 61.0,6154.0 70.0,6126.0 70.0,6095.0 C 70.0,6007.0 140.0,5903.0 237.0,5845.0 C 264.0,5829.0 273.0,5813.0 295.0,5741.0 C 352.0,5552.0 369.0,5520.0 437.0,5469.0 C 471.0,5444.0 529.0,5407.0 567.0,5388.0 C 647.0,5346.0 715.0,5337.0 965.0,5336.0 L 1125.0,5335.0 L 1177.0,5300.0 C 1211.0,5277.0 1236.0,5250.0 1250.0,5221.0 C 1262.0,5197.0 1302.0,5133.0 1341.0,5080.0 L 1410.0,4982.0 L 1475.0,4969.0 C 1537.0,4957.0 1542.0,4954.0 1570.0,4909.0 C 1587.0,4884.0 1644.0,4825.0 1698.0,4780.0 L 1795.0,4698.0 L 1856.0,4702.0 C 1926.0,4706.0 2010.0,4744.0 2025.0,4777.0 C 2031.0,4792.0 2047.0,4801.0 2073.0,4805.0 C 2118.0,4813.0 2130.0,4835.0 2130.0,4913.0 C 2130.0,4974.0 2133.0,4979.0 2181.0,5008.0 C 2200.0,5020.0 2225.0,5039.0 2235.0,5050.0 C 2253.0,5070.0 2253.0,5071.0 2232.0,5093.0 C 2221.0,5105.0 2209.0,5131.0 2205.0,5150.0 C 2200.0,5178.0 2189.0,5192.0 2155.0,5213.0 C 2121.0,5235.0 2111.0,5248.0 2105.0,5277.0 C 2095.0,5331.0 2067.0,5380.0 2021.0,5425.0 C 1990.0,5455.0 1980.0,5472.0 1980.0,5496.0 C 1980.0,5521.0 1972.0,5535.0 1946.0,5557.0 C 1909.0,5587.0 1879.0,5647.0 1824.0,5800.0 C 1792.0,5890.0 1790.0,5902.0 1790.0,6030.0 C 1790.0,6237.0 1751.0,6351.0 1638.0,6479.0 L 1590.0,6534.0 L 1590.0,6621.0 L 1590.0,6708.0 L 1555.0,6729.0 C 1529.0,6744.0 1520.0,6756.0 1520.0,6775.0 C 1520.0,6804.0 1476.0,6851.0 1420.0,6880.0 C 1390.0,6895.0 1381.0,6908.0 1362.0,6967.0 C 1350.0,7005.0 1340.0,7061.0 1340.0,7091.0 C 1340.0,7127.0 1333.0,7156.0 1321.0,7177.0 C 1303.0,7206.0 1302.0,7222.0 1307.0,7372.0 C 1313.0,7533.0 1314.0,7536.0 1347.0,7596.0 C 1368.0,7634.0 1382.0,7677.0 1385.0,7706.0 C 1387.0,7733.0 1394.0,7814.0 1401.0,7885.0 C 1412.0,8010.0 1411.0,8017.0 1390.0,8070.0 C 1357.0,8154.0 1351.0,8315.0 1379.0,8394.0 C 1391.0,8427.0 1400.0,8471.0 1400.0,8493.0 C 1400.0,8523.0 1409.0,8547.0 1434.0,8584.0 L 1468.0,8635.0 L 1463.0,8757.0 L 1457.0,8878.0 L 1398.0,8951.0 C 1333.0,9030.0 1320.0,9055.0 1320.0,9100.0 C 1320.0,9138.0 1293.0,9155.0 1204.0,9176.0 C 1166.0,9184.0 1101.0,9202.0 1059.0,9216.0 C 961.0,9247.0 924.0,9247.0 882.0,9214.0" fill="pink"/>
	<path d="M 9589.0,3693.0 C 9575.0,3691.0 9536.0,3665.0 9501.0,3635.0 C 9467.0,3605.0 9433.0,3580.0 9427.0,3580.0 C 9420.0,3580.0 9398.0,3575.0 9377.0,3569.0 C 9309.0,3550.0 9293.0,3456.0 9355.0,3428.0 C 9369.0,3422.0 9380.0,3408.0 9380.0,3398.0 C 9380.0,3388.0 9387.0,3363.0 9395.0,3343.0 C 9410.0,3306.0 9410.0,3306.0 9376.0,3271.0 C 9340.0,3234.0 9318.0,3185.0 9306.0,3115.0 C 9302.0,3093.0 9292.0,3058.0 9283.0,3038.0 C 9268.0,3001.0 9265.0,3000.0 9217.0,3000.0 C 9169.0,3000.0 9164.0,2997.0 9096.0,2933.0 C 9054.0,2893.0 8997.0,2851.0 8956.0,2830.0 C 8891.0,2797.0 8879.0,2795.0 8777.0,2792.0 C 8691.0,2789.0 8661.0,2784.0 8636.0,2769.0 C 8618.0,2758.0 8586.0,2750.0 8560.0,2750.0 C 8535.0,2749.0 8504.0,2743.0 8490.0,2735.0 C 8476.0,2727.0 8442.0,2721.0 8414.0,2720.0 C 8367.0,2720.0 8359.0,2723.0 8321.0,2761.0 L 8280.0,2803.0 L 8207.0,2797.0 C 8168.0,2794.0 8100.0,2798.0 8057.0,2804.0 C 7990.0,2815.0 7974.0,2821.0 7942.0,2852.0 C 7922.0,2871.0 7883.0,2902.0 7856.0,2920.0 C 7812.0,2950.0 7803.0,2952.0 7755.0,2946.0 C 7726.0,2943.0 7695.0,2937.0 7686.0,2934.0 C 7659.0,2924.0 7668.0,2890.0 7703.0,2872.0 C 7720.0,2863.0 7759.0,2831.0 7788.0,2803.0 C 7817.0,2774.0 7846.0,2750.0 7852.0,2750.0 C 7859.0,2750.0 7884.0,2733.0 7909.0,2712.0 C 7998.0,2638.0 8084.0,2587.0 8288.0,2488.0 L 8495.0,2388.0 L 8650.0,2392.0 L 8805.0,2397.0 L 8910.0,2338.0 C 9032.0,2269.0 9103.0,2205.0 9135.0,2135.0 C 9162.0,2075.0 9222.0,2017.0 9272.0,2000.0 C 9311.0,1988.0 9378.0,1920.0 9427.0,1844.0 C 9458.0,1795.0 9536.0,1753.0 9649.0,1724.0 C 9718.0,1706.0 9726.0,1701.0 9775.0,1645.0 C 9833.0,1577.0 9880.0,1473.0 9880.0,1409.0 C 9880.0,1353.0 9902.0,1320.0 9961.0,1288.0 C 10030.0,1249.0 10092.0,1250.0 10147.0,1290.0 C 10182.0,1316.0 10189.0,1327.0 10199.0,1377.0 C 10213.0,1451.0 10203.0,1767.0 10185.0,1830.0 C 10178.0,1855.0 10169.0,1934.0 10166.0,2007.0 C 10159.0,2150.0 10163.0,2163.0 10216.0,2176.0 C 10244.0,2183.0 10245.0,2186.0 10226.0,2231.0 C 10214.0,2260.0 10199.0,2337.0 10174.0,2488.0 C 10171.0,2506.0 10155.0,2537.0 10137.0,2557.0 C 10107.0,2591.0 10105.0,2600.0 10098.0,2689.0 C 10089.0,2822.0 10078.0,2854.0 10033.0,2877.0 C 10001.0,2893.0 9992.0,2905.0 9968.0,2970.0 C 9948.0,3026.0 9941.0,3064.0 9941.0,3119.0 C 9940.0,3183.0 9936.0,3198.0 9914.0,3227.0 C 9900.0,3246.0 9878.0,3279.0 9865.0,3301.0 L 9842.0,3342.0 L 9863.0,3406.0 L 9884.0,3471.0 L 9860.0,3518.0 C 9846.0,3543.0 9811.0,3595.0 9782.0,3632.0 L 9729.0,3700.0 L 9672.0,3699.0 C 9641.0,3698.0 9603.0,3695.0 9589.0,3693.0" fill="pink"/>
	<path d="M 3280.0,2300.0 C 3274.0,2288.0 3259.0,2280.0 3244.0,2280.0 C 3205.0,2280.0 3145.0,2245.0 3131.0,2213.0 C 3124.0,2198.0 3116.0,2151.0 3113.0,2108.0 C 3107.0,2035.0 3109.0,2030.0 3140.0,1978.0 C 3162.0,1943.0 3179.0,1898.0 3189.0,1845.0 L 3205.0,1765.0 L 3250.0,1759.0 C 3344.0,1745.0 3399.0,1708.0 3429.0,1637.0 L 3450.0,1589.0 L 3430.0,1550.0 C 3419.0,1528.0 3410.0,1499.0 3410.0,1485.0 C 3410.0,1460.0 3410.0,1460.0 3445.0,1474.0 C 3478.0,1488.0 3481.0,1488.0 3511.0,1463.0 C 3542.0,1437.0 3544.0,1436.0 3676.0,1439.0 C 3790.0,1441.0 3810.0,1439.0 3810.0,1426.0 C 3810.0,1385.0 3875.0,1364.0 3897.0,1399.0 C 3910.0,1420.0 3935.0,1418.0 4013.0,1389.0 C 4049.0,1376.0 4053.0,1377.0 4068.0,1397.0 C 4077.0,1409.0 4101.0,1422.0 4121.0,1425.0 C 4155.0,1431.0 4162.0,1428.0 4228.0,1371.0 C 4267.0,1337.0 4301.0,1310.0 4304.0,1310.0 C 4306.0,1310.0 4310.0,1322.0 4312.0,1336.0 C 4317.0,1378.0 4344.0,1389.0 4383.0,1365.0 C 4406.0,1351.0 4440.0,1344.0 4505.0,1340.0 C 4589.0,1335.0 4595.0,1333.0 4598.0,1313.0 C 4602.0,1289.0 4614.0,1283.0 4625.0,1300.0 C 4635.0,1317.0 4657.0,1311.0 4688.0,1285.0 C 4713.0,1264.0 4728.0,1260.0 4783.0,1260.0 C 4846.0,1260.0 4888.0,1246.0 5013.0,1182.0 C 5017.0,1180.0 5020.0,1190.0 5020.0,1204.0 C 5020.0,1219.0 5027.0,1233.0 5035.0,1236.0 C 5046.0,1241.0 5050.0,1258.0 5050.0,1303.0 C 5050.0,1358.0 5046.0,1369.0 5001.0,1440.0 C 4973.0,1482.0 4941.0,1538.0 4929.0,1563.0 C 4905.0,1613.0 4867.0,1639.0 4785.0,1663.0 C 4757.0,1671.0 4702.0,1694.0 4662.0,1714.0 C 4623.0,1734.0 4576.0,1750.0 4558.0,1750.0 C 4516.0,1751.0 4494.0,1764.0 4441.0,1822.0 C 4417.0,1848.0 4374.0,1881.0 4345.0,1896.0 C 4309.0,1913.0 4288.0,1931.0 4280.0,1951.0 C 4273.0,1967.0 4260.0,1980.0 4250.0,1980.0 C 4240.0,1980.0 4209.0,1988.0 4181.0,1997.0 C 4143.0,2009.0 4125.0,2021.0 4114.0,2042.0 C 4106.0,2057.0 4076.0,2088.0 4046.0,2110.0 C 3996.0,2148.0 3989.0,2150.0 3923.0,2150.0 C 3858.0,2150.0 3846.0,2154.0 3759.0,2200.0 C 3688.0,2237.0 3654.0,2250.0 3622.0,2250.0 C 3594.0,2250.0 3568.0,2258.0 3549.0,2271.0 C 3522.0,2290.0 3517.0,2291.0 3471.0,2277.0 L 3421.0,2263.0 L 3409.0,2291.0 C 3398.0,2318.0 3394.0,2320.0 3344.0,2320.0 C 3301.0,2320.0 3289.0,2316.0 3280.0,2300.0" fill="pink"/>
	<path d="M 3750.0,1126.0 C 3750.0,1047.0 3760.0,1008.0 3779.0,1012.0 C 3791.0,1014.0 3794.0,1026.0 3792.0,1060.0 C 3787.0,1143.0 3779.0,1180.0 3764.0,1180.0 C 3754.0,1180.0 3750.0,1166.0 3750.0,1126.0" fill="pink"/>
	<path d="M 3470.0,1120.0 C 3458.0,1112.0 3459.0,1103.0 3482.0,1058.0 L 3509.0,1005.0 L 3509.0,1068.0 C 3510.0,1131.0 3503.0,1141.0 3470.0,1120.0" fill="pink"/>
</svg>
