<?xml version="1.0" ?>
<svg xmlns="http://www.w3.org/2000/svg" xmlns:ev="http://www.w3.org/2001/xml-events" xmlns:xlink="http://www.w3.org/1999/xlink" baseProfile="full" height="600px" version="1.1" viewBox="-760.1857778851502 -1024.4721781462922 11769.218314401736 12291.544136112325" width="575px">
	<defs/>
	<path d="M 1566.0,10219.0 C 1487.0,10202.0 1472.0,10195.0 1431.0,10157.0 C 1396.0,10124.0 1373.0,10111.0 1340.0,10106.0 C 1316.0,10102.0 1288.0,10092.0 1278.0,10083.0 C 1264.0,10070.0 1250.0,10069.0 1208.0,10075.0 C 1179.0,10080.0 1126.0,10083.0 1091.0,10082.0 C 1038.0,10080.0 1024.0,10076.0 1005.0,10055.0 C 976.0,10025.0 942.0,10016.0 884.0,10024.0 C 853.0,10028.0 840.0,10026.0 840.0,10017.0 C 840.0,10011.0 835.0,9988.0 830.0,9968.0 C 820.0,9933.0 815.0,9930.0 750.0,9909.0 C 688.0,9889.0 680.0,9883.0 674.0,9856.0 C 671.0,9839.0 657.0,9811.0 644.0,9793.0 C 631.0,9776.0 620.0,9750.0 620.0,9736.0 C 620.0,9717.0 614.0,9710.0 592.0,9705.0 C 577.0,9702.0 552.0,9684.0 537.0,9665.0 C 517.0,9640.0 495.0,9627.0 451.0,9615.0 L 393.0,9598.0 L 387.0,9542.0 C 382.0,9498.0 375.0,9480.0 356.0,9464.0 C 343.0,9452.0 326.0,9423.0 320.0,9399.0 C 313.0,9375.0 299.0,9338.0 289.0,9317.0 C 272.0,9284.0 270.0,9272.0 280.0,9223.0 C 285.0,9192.0 290.0,9111.0 290.0,9044.0 C 290.0,8921.0 290.0,8920.0 254.0,8856.0 C 214.0,8783.0 215.0,8757.0 258.0,8742.0 C 273.0,8736.0 331.0,8706.0 387.0,8673.0 L 489.0,8614.0 L 599.0,8447.0 C 660.0,8355.0 714.0,8280.0 719.0,8280.0 C 736.0,8280.0 752.0,8202.0 745.0,8155.0 C 741.0,8130.0 743.0,8097.0 750.0,8076.0 C 760.0,8044.0 765.0,8040.0 796.0,8040.0 C 823.0,8040.0 832.0,8035.0 839.0,8017.0 C 845.0,8003.0 865.0,7989.0 896.0,7977.0 C 942.0,7961.0 948.0,7954.0 993.0,7875.0 C 1035.0,7801.0 1048.0,7786.0 1091.0,7765.0 C 1118.0,7751.0 1159.0,7718.0 1182.0,7692.0 C 1331.0,7527.0 1347.0,7515.0 1489.0,7455.0 C 1563.0,7424.0 1662.0,7383.0 1709.0,7365.0 C 1756.0,7347.0 1809.0,7325.0 1825.0,7316.0 C 1842.0,7307.0 1861.0,7300.0 1869.0,7300.0 C 1884.0,7300.0 1964.0,7257.0 2095.0,7180.0 C 2139.0,7154.0 2198.0,7125.0 2225.0,7116.0 C 2275.0,7100.0 2275.0,7099.0 2318.0,7007.0 C 2344.0,6951.0 2360.0,6901.0 2360.0,6878.0 C 2360.0,6850.0 2368.0,6832.0 2393.0,6804.0 C 2410.0,6784.0 2441.0,6736.0 2460.0,6696.0 L 2495.0,6625.0 L 2567.0,6603.0 C 2607.0,6591.0 2658.0,6567.0 2681.0,6550.0 C 2706.0,6532.0 2736.0,6520.0 2754.0,6520.0 C 2800.0,6520.0 2862.0,6481.0 2873.0,6445.0 C 2878.0,6429.0 2892.0,6405.0 2903.0,6393.0 C 2921.0,6372.0 2925.0,6372.0 2951.0,6385.0 C 2998.0,6410.0 3036.0,6404.0 3080.0,6364.0 L 3119.0,6328.0 L 3208.0,6335.0 L 3297.0,6342.0 L 3338.0,6306.0 C 3378.0,6270.0 3379.0,6269.0 3409.0,6284.0 C 3448.0,6305.0 3605.0,6305.0 3680.0,6285.0 C 3710.0,6277.0 3755.0,6270.0 3780.0,6270.0 C 3823.0,6270.0 3826.0,6268.0 3835.0,6238.0 C 3843.0,6214.0 3852.0,6204.0 3875.0,6199.0 C 3892.0,6195.0 3919.0,6186.0 3937.0,6179.0 C 3966.0,6167.0 3972.0,6168.0 3992.0,6187.0 C 4020.0,6212.0 4074.0,6208.0 4107.0,6177.0 C 4129.0,6158.0 4131.0,6158.0 4173.0,6174.0 C 4211.0,6188.0 4220.0,6198.0 4234.0,6234.0 C 4250.0,6275.0 4255.0,6279.0 4298.0,6288.0 C 4383.0,6307.0 4685.0,6311.0 4790.0,6295.0 C 4842.0,6287.0 4888.0,6280.0 4893.0,6280.0 C 4897.0,6280.0 4900.0,6254.0 4900.0,6223.0 L 4900.0,6165.0 L 4993.0,6068.0 C 5054.0,6005.0 5097.0,5968.0 5120.0,5960.0 C 5158.0,5948.0 5415.0,5920.0 5495.0,5920.0 C 5562.0,5920.0 5612.0,5887.0 5628.0,5832.0 C 5642.0,5785.0 5662.0,5766.0 5690.0,5773.0 C 5704.0,5777.0 5716.0,5770.0 5731.0,5749.0 C 5746.0,5728.0 5760.0,5720.0 5781.0,5720.0 C 5813.0,5720.0 5951.0,5653.0 6098.0,5567.0 C 6174.0,5523.0 6198.0,5503.0 6227.0,5459.0 C 6247.0,5429.0 6294.0,5371.0 6332.0,5329.0 C 6391.0,5262.0 6400.0,5247.0 6400.0,5213.0 C 6400.0,5161.0 6426.0,5061.0 6449.0,5030.0 C 6458.0,5016.0 6472.0,4990.0 6478.0,4972.0 C 6493.0,4929.0 6474.0,4889.0 6425.0,4857.0 C 6398.0,4840.0 6390.0,4828.0 6390.0,4804.0 C 6390.0,4769.0 6420.0,4724.0 6450.0,4715.0 C 6479.0,4706.0 6479.0,4601.0 6450.0,4575.0 C 6434.0,4561.0 6430.0,4544.0 6430.0,4500.0 L 6430.0,4442.0 L 6390.0,4426.0 C 6368.0,4417.0 6344.0,4410.0 6337.0,4410.0 C 6331.0,4410.0 6302.0,4399.0 6274.0,4386.0 L 6222.0,4362.0 L 6243.0,4288.0 L 6264.0,4215.0 L 6322.0,4188.0 C 6379.0,4162.0 6380.0,4160.0 6380.0,4121.0 C 6380.0,4092.0 6385.0,4078.0 6399.0,4071.0 C 6414.0,4063.0 6416.0,4052.0 6413.0,4008.0 C 6411.0,3979.0 6404.0,3939.0 6399.0,3919.0 C 6389.0,3888.0 6392.0,3875.0 6417.0,3815.0 C 6446.0,3747.0 6448.0,3745.0 6489.0,3738.0 C 6529.0,3731.0 6536.0,3734.0 6587.0,3771.0 C 6641.0,3811.0 6642.0,3813.0 6634.0,3848.0 C 6630.0,3869.0 6626.0,3936.0 6625.0,3997.0 C 6625.0,4084.0 6628.0,4114.0 6640.0,4128.0 C 6661.0,4155.0 6774.0,4213.0 6796.0,4208.0 C 6806.0,4206.0 6837.0,4172.0 6865.0,4133.0 C 6910.0,4068.0 6919.0,4060.0 6948.0,4060.0 C 6979.0,4060.0 6980.0,4062.0 6980.0,4098.0 C 6980.0,4128.0 6987.0,4143.0 7014.0,4169.0 C 7033.0,4188.0 7055.0,4200.0 7066.0,4198.0 C 7080.0,4196.0 7086.0,4202.0 7088.0,4223.0 C 7092.0,4258.0 7137.0,4280.0 7205.0,4280.0 L 7250.0,4280.0 L 7250.0,4236.0 C 7250.0,4201.0 7255.0,4189.0 7274.0,4176.0 C 7297.0,4161.0 7302.0,4162.0 7347.0,4181.0 C 7402.0,4204.0 7410.0,4214.0 7410.0,4257.0 C 7410.0,4282.0 7401.0,4297.0 7365.0,4328.0 C 7324.0,4364.0 7320.0,4372.0 7320.0,4413.0 L 7320.0,4458.0 L 7368.0,4464.0 C 7465.0,4478.0 7466.0,4478.0 7479.0,4521.0 C 7488.0,4550.0 7500.0,4565.0 7523.0,4576.0 C 7553.0,4590.0 7555.0,4594.0 7552.0,4638.0 C 7550.0,4664.0 7543.0,4690.0 7536.0,4695.0 C 7529.0,4701.0 7513.0,4733.0 7499.0,4767.0 C 7484.0,4807.0 7468.0,4832.0 7453.0,4839.0 C 7437.0,4847.0 7430.0,4858.0 7430.0,4879.0 C 7430.0,4921.0 7411.0,4935.0 7330.0,4955.0 C 7259.0,4972.0 7258.0,4974.0 7207.0,5041.0 C 7170.0,5091.0 7149.0,5110.0 7133.0,5110.0 C 7119.0,5110.0 7110.0,5104.0 7110.0,5095.0 C 7110.0,5086.0 7101.0,5054.0 7090.0,5023.0 C 7079.0,4991.0 7070.0,4956.0 7070.0,4944.0 C 7070.0,4908.0 7041.0,4891.0 6988.0,4897.0 C 6947.0,4902.0 6940.0,4906.0 6929.0,4933.0 C 6921.0,4951.0 6917.0,4977.0 6919.0,4992.0 C 6920.0,5007.0 6916.0,5029.0 6909.0,5042.0 C 6884.0,5090.0 6815.0,5163.0 6781.0,5177.0 C 6741.0,5194.0 6713.0,5224.0 6705.0,5261.0 C 6699.0,5288.0 6665.0,5310.0 6628.0,5310.0 C 6617.0,5310.0 6581.0,5319.0 6549.0,5331.0 C 6495.0,5351.0 6492.0,5353.0 6502.0,5375.0 C 6510.0,5394.0 6508.0,5405.0 6491.0,5433.0 C 6480.0,5452.0 6470.0,5477.0 6470.0,5488.0 C 6470.0,5512.0 6401.0,5570.0 6372.0,5570.0 C 6337.0,5570.0 6320.0,5581.0 6320.0,5604.0 C 6320.0,5639.0 6272.0,5677.0 6218.0,5685.0 C 6187.0,5690.0 6170.0,5697.0 6170.0,5706.0 C 6170.0,5716.0 6157.0,5720.0 6130.0,5720.0 C 6097.0,5720.0 6088.0,5724.0 6078.0,5745.0 C 6071.0,5760.0 6055.0,5772.0 6036.0,5776.0 C 5980.0,5788.0 5950.0,5810.0 5926.0,5858.0 C 5913.0,5884.0 5899.0,5927.0 5895.0,5953.0 C 5889.0,5990.0 5882.0,6003.0 5856.0,6019.0 L 5825.0,6039.0 L 5799.0,6014.0 C 5776.0,5992.0 5770.0,5991.0 5742.0,6001.0 C 5688.0,6020.0 5677.0,6055.0 5675.0,6221.0 C 5673.0,6360.0 5672.0,6369.0 5648.0,6401.0 C 5623.0,6434.0 5623.0,6436.0 5636.0,6500.0 C 5644.0,6536.0 5648.0,6570.0 5646.0,6576.0 C 5644.0,6581.0 5615.0,6594.0 5582.0,6605.0 C 5542.0,6617.0 5510.0,6634.0 5489.0,6656.0 L 5456.0,6690.0 L 5450.0,6830.0 L 5444.0,6971.0 L 5338.0,7078.0 C 5227.0,7191.0 5197.0,7235.0 5155.0,7345.0 C 5141.0,7382.0 5121.0,7428.0 5110.0,7445.0 C 5099.0,7463.0 5090.0,7489.0 5090.0,7503.0 C 5090.0,7542.0 5073.0,7578.0 5051.0,7585.0 C 5040.0,7588.0 5029.0,7603.0 5025.0,7619.0 C 5022.0,7634.0 4995.0,7670.0 4965.0,7700.0 C 4931.0,7733.0 4910.0,7764.0 4906.0,7784.0 C 4901.0,7808.0 4881.0,7832.0 4824.0,7879.0 C 4764.0,7930.0 4631.0,8077.0 4542.0,8191.0 C 4533.0,8203.0 4532.0,8215.0 4539.0,8233.0 C 4548.0,8257.0 4545.0,8261.0 4500.0,8290.0 C 4467.0,8311.0 4449.0,8330.0 4445.0,8349.0 C 4442.0,8365.0 4428.0,8388.0 4414.0,8400.0 C 4399.0,8415.0 4390.0,8435.0 4390.0,8454.0 C 4389.0,8500.0 4367.0,8531.0 4324.0,8549.0 C 4259.0,8576.0 4182.0,8641.0 4171.0,8679.0 C 4155.0,8732.0 4113.0,8770.0 4070.0,8770.0 C 4038.0,8770.0 4031.0,8775.0 4012.0,8809.0 C 4000.0,8830.0 3990.0,8864.0 3990.0,8884.0 C 3990.0,8923.0 3973.0,8935.0 3903.0,8947.0 C 3882.0,8951.0 3861.0,8964.0 3845.0,8986.0 C 3823.0,9015.0 3813.0,9020.0 3779.0,9020.0 C 3757.0,9020.0 3712.0,9032.0 3677.0,9049.0 C 3629.0,9070.0 3611.0,9085.0 3596.0,9114.0 C 3585.0,9135.0 3569.0,9150.0 3559.0,9150.0 C 3527.0,9150.0 3411.0,9198.0 3367.0,9230.0 C 3313.0,9269.0 2960.0,9642.0 2912.0,9712.0 C 2866.0,9777.0 2808.0,9810.0 2735.0,9810.0 C 2702.0,9810.0 2675.0,9817.0 2655.0,9830.0 C 2638.0,9841.0 2608.0,9850.0 2587.0,9850.0 C 2564.0,9850.0 2523.0,9863.0 2482.0,9884.0 C 2430.0,9910.0 2411.0,9926.0 2398.0,9954.0 C 2383.0,9985.0 2375.0,9990.0 2347.0,9990.0 C 2329.0,9990.0 2305.0,9983.0 2294.0,9975.0 C 2284.0,9967.0 2268.0,9960.0 2261.0,9960.0 C 2253.0,9960.0 2234.0,9948.0 2219.0,9934.0 L 2191.0,9907.0 L 2148.0,9925.0 C 2093.0,9947.0 2080.0,9958.0 2080.0,9984.0 C 2079.0,10024.0 2043.0,10087.0 2007.0,10109.0 C 1988.0,10121.0 1969.0,10141.0 1966.0,10154.0 C 1955.0,10200.0 1903.0,10220.0 1801.0,10220.0 C 1747.0,10220.0 1710.0,10224.0 1710.0,10230.0 C 1710.0,10244.0 1669.0,10241.0 1566.0,10219.0" fill="pink"/>
	<path d="M 8478.0,3570.0 C 8441.0,3548.0 8267.0,3510.0 8157.0,3500.0 C 8044.0,3490.0 8036.0,3491.0 8004.0,3510.0 C 7965.0,3535.0 7938.0,3530.0 7922.0,3495.0 C 7916.0,3482.0 7892.0,3461.0 7869.0,3449.0 C 7829.0,3429.0 7827.0,3427.0 7847.0,3416.0 L 7868.0,3405.0 L 7845.0,3348.0 C 7825.0,3298.0 7801.0,3268.0 7746.0,3222.0 C 7737.0,3215.0 7730.0,3200.0 7730.0,3190.0 C 7730.0,3179.0 7712.0,3151.0 7690.0,3129.0 C 7668.0,3106.0 7648.0,3078.0 7646.0,3066.0 C 7644.0,3055.0 7637.0,3018.0 7631.0,2984.0 C 7625.0,2951.0 7620.0,2915.0 7620.0,2903.0 C 7620.0,2889.0 7608.0,2877.0 7580.0,2865.0 C 7544.0,2849.0 7540.0,2843.0 7540.0,2810.0 C 7540.0,2789.0 7534.0,2767.0 7526.0,2760.0 C 7518.0,2754.0 7484.0,2708.0 7450.0,2659.0 C 7373.0,2547.0 7341.0,2453.0 7310.0,2255.0 C 7288.0,2108.0 7288.0,2103.0 7305.0,2030.0 C 7315.0,1989.0 7328.0,1899.0 7335.0,1830.0 L 7348.0,1705.0 L 7314.0,1669.0 L 7279.0,1633.0 L 7281.0,1468.0 C 7282.0,1332.0 7280.0,1298.0 7266.0,1272.0 C 7256.0,1253.0 7242.0,1240.0 7231.0,1240.0 C 7216.0,1240.0 7212.0,1230.0 7208.0,1183.0 L 7203.0,1126.0 L 7265.0,1065.0 C 7318.0,1012.0 7328.0,997.0 7332.0,959.0 C 7338.0,905.0 7385.0,807.0 7445.0,722.0 C 7490.0,659.0 7490.0,658.0 7490.0,574.0 L 7490.0,490.0 L 7525.0,476.0 C 7548.0,466.0 7564.0,450.0 7574.0,427.0 C 7583.0,404.0 7598.0,389.0 7619.0,382.0 C 7643.0,374.0 7650.0,365.0 7650.0,346.0 C 7650.0,325.0 7662.0,315.0 7725.0,283.0 C 7766.0,263.0 7800.0,240.0 7800.0,233.0 C 7800.0,226.0 7809.0,211.0 7820.0,200.0 C 7831.0,189.0 7840.0,167.0 7840.0,150.0 C 7840.0,124.0 7845.0,120.0 7882.0,109.0 C 7906.0,103.0 7942.0,89.0 7962.0,79.0 C 7982.0,69.0 8009.0,60.0 8021.0,60.0 C 8034.0,60.0 8053.0,52.0 8064.0,42.0 C 8076.0,32.0 8099.0,18.0 8117.0,11.0 C 8146.0,-1.0 8155.0,1.0 8219.0,30.0 C 8257.0,48.0 8291.0,69.0 8294.0,77.0 C 8299.0,89.0 8306.0,88.0 8335.0,70.0 C 8367.0,50.0 8375.0,49.0 8419.0,60.0 C 8465.0,71.0 8468.0,74.0 8480.0,116.0 C 8491.0,153.0 8499.0,164.0 8529.0,176.0 C 8549.0,184.0 8575.0,189.0 8587.0,187.0 C 8600.0,185.0 8620.0,193.0 8637.0,206.0 C 8659.0,225.0 8677.0,229.0 8727.0,230.0 C 8785.0,230.0 8793.0,233.0 8829.0,266.0 L 8869.0,301.0 L 8958.0,299.0 C 9044.0,297.0 9051.0,299.0 9104.0,331.0 C 9254.0,421.0 9287.0,427.0 9392.0,385.0 C 9426.0,371.0 9457.0,360.0 9462.0,360.0 C 9481.0,360.0 9547.0,411.0 9563.0,439.0 C 9572.0,455.0 9610.0,486.0 9647.0,508.0 C 9741.0,564.0 9773.0,608.0 9782.0,690.0 C 9792.0,790.0 9805.0,857.0 9817.0,872.0 C 9823.0,879.0 9831.0,908.0 9834.0,935.0 C 9846.0,1018.0 9850.0,1026.0 9886.0,1043.0 C 9916.0,1058.0 9920.0,1064.0 9920.0,1098.0 C 9920.0,1124.0 9927.0,1143.0 9940.0,1155.0 C 9956.0,1170.0 9960.0,1186.0 9960.0,1245.0 C 9960.0,1292.0 9955.0,1323.0 9945.0,1336.0 C 9929.0,1357.0 9925.0,1400.0 9939.0,1400.0 C 9964.0,1400.0 9980.0,1434.0 9980.0,1487.0 C 9980.0,1531.0 9984.0,1545.0 10002.0,1559.0 L 10024.0,1577.0 L 9997.0,1622.0 C 9983.0,1647.0 9957.0,1712.0 9939.0,1766.0 C 9910.0,1857.0 9909.0,1868.0 9920.0,1910.0 C 9947.0,2011.0 9945.0,2064.0 9907.0,2158.0 C 9859.0,2278.0 9846.0,2347.0 9859.0,2411.0 C 9865.0,2438.0 9870.0,2483.0 9870.0,2509.0 C 9870.0,2549.0 9867.0,2559.0 9850.0,2563.0 C 9834.0,2567.0 9830.0,2577.0 9830.0,2613.0 C 9830.0,2638.0 9834.0,2670.0 9839.0,2683.0 C 9847.0,2704.0 9844.0,2712.0 9818.0,2736.0 C 9802.0,2752.0 9779.0,2782.0 9768.0,2803.0 C 9756.0,2828.0 9737.0,2847.0 9715.0,2856.0 C 9680.0,2870.0 9623.0,2941.0 9604.0,2995.0 C 9597.0,3014.0 9585.0,3026.0 9572.0,3028.0 C 9544.0,3032.0 9528.0,3062.0 9536.0,3095.0 C 9544.0,3127.0 9528.0,3147.0 9475.0,3171.0 C 9453.0,3181.0 9427.0,3195.0 9418.0,3202.0 C 9404.0,3212.0 9395.0,3211.0 9368.0,3199.0 C 9338.0,3185.0 9331.0,3185.0 9300.0,3198.0 C 9281.0,3207.0 9240.0,3216.0 9210.0,3219.0 C 9156.0,3225.0 9155.0,3226.0 9098.0,3300.0 C 9066.0,3341.0 9038.0,3387.0 9035.0,3402.0 C 9031.0,3417.0 9013.0,3449.0 8994.0,3474.0 C 8968.0,3508.0 8951.0,3521.0 8922.0,3526.0 C 8902.0,3530.0 8871.0,3544.0 8853.0,3557.0 C 8826.0,3578.0 8818.0,3580.0 8800.0,3570.0 C 8764.0,3551.0 8562.0,3548.0 8537.0,3565.0 C 8512.0,3582.0 8501.0,3583.0 8478.0,3570.0" fill="pink"/>
</svg>
