<?xml version="1.0" ?>
<svg xmlns="http://www.w3.org/2000/svg" xmlns:ev="http://www.w3.org/2001/xml-events" xmlns:xlink="http://www.w3.org/1999/xlink" baseProfile="full" height="600px" version="1.1" viewBox="-457.3280332942516 -1020.5118416993547 11149.852488279641 12287.49279368818" width="545px">
	<defs/>
	<path d="M 8603.0,10228.0 C 8590.0,10222.0 8580.0,10209.0 8580.0,10199.0 C 8580.0,10187.0 8567.0,10175.0 8545.0,10166.0 L 8510.0,10151.0 L 8531.0,10116.0 C 8550.0,10084.0 8550.0,10079.0 8536.0,10074.0 C 8525.0,10070.0 8520.0,10055.0 8520.0,10031.0 C 8520.0,10011.0 8510.0,9975.0 8499.0,9950.0 C 8488.0,9925.0 8470.0,9874.0 8460.0,9835.0 C 8449.0,9797.0 8434.0,9744.0 8426.0,9718.0 C 8412.0,9674.0 8412.0,9670.0 8431.0,9645.0 C 8454.0,9617.0 8450.0,9563.0 8424.0,9553.0 C 8408.0,9547.0 8406.0,9512.0 8420.0,9475.0 C 8427.0,9456.0 8426.0,9443.0 8416.0,9427.0 C 8407.0,9414.0 8399.0,9359.0 8395.0,9288.0 C 8389.0,9193.0 8384.0,9165.0 8368.0,9145.0 C 8343.0,9113.0 8291.0,9111.0 8265.0,9140.0 C 8255.0,9151.0 8236.0,9160.0 8223.0,9160.0 C 8204.0,9160.0 8200.0,9155.0 8200.0,9131.0 C 8200.0,9115.0 8193.0,9097.0 8185.0,9090.0 C 8177.0,9083.0 8170.0,9066.0 8170.0,9051.0 C 8170.0,9000.0 8151.0,8997.0 8104.0,9040.0 C 8080.0,9062.0 8054.0,9080.0 8047.0,9080.0 C 8039.0,9080.0 8025.0,9089.0 8015.0,9100.0 C 8005.0,9111.0 7987.0,9120.0 7975.0,9120.0 C 7964.0,9120.0 7949.0,9125.0 7943.0,9131.0 C 7935.0,9139.0 7927.0,9138.0 7912.0,9129.0 C 7894.0,9118.0 7888.0,9119.0 7873.0,9133.0 C 7855.0,9148.0 7853.0,9147.0 7827.0,9115.0 C 7812.0,9096.0 7800.0,9070.0 7800.0,9056.0 C 7800.0,9036.0 7792.0,9029.0 7758.0,9018.0 C 7707.0,9001.0 7680.0,8960.0 7701.0,8933.0 C 7712.0,8920.0 7711.0,8915.0 7692.0,8900.0 C 7680.0,8890.0 7670.0,8871.0 7670.0,8856.0 C 7670.0,8843.0 7665.0,8828.0 7660.0,8825.0 C 7643.0,8814.0 7618.0,8758.0 7627.0,8751.0 C 7632.0,8748.0 7646.0,8731.0 7658.0,8714.0 C 7683.0,8678.0 7673.0,8660.0 7628.0,8660.0 C 7604.0,8660.0 7600.0,8656.0 7600.0,8630.0 C 7600.0,8607.0 7596.0,8600.0 7580.0,8600.0 C 7568.0,8600.0 7555.0,8590.0 7548.0,8575.0 C 7536.0,8548.0 7521.0,8543.0 7502.0,8562.0 C 7483.0,8581.0 7436.0,8540.0 7432.0,8502.0 C 7429.0,8472.0 7427.0,8470.0 7386.0,8470.0 C 7362.0,8470.0 7338.0,8464.0 7333.0,8458.0 C 7327.0,8451.0 7320.0,8418.0 7317.0,8386.0 C 7314.0,8353.0 7305.0,8323.0 7298.0,8319.0 C 7276.0,8304.0 7221.0,8309.0 7182.0,8329.0 C 7162.0,8339.0 7123.0,8350.0 7096.0,8354.0 C 7053.0,8359.0 7044.0,8357.0 7011.0,8331.0 C 6960.0,8291.0 6937.0,8286.0 6915.0,8310.0 C 6889.0,8338.0 6853.0,8335.0 6821.0,8301.0 C 6801.0,8279.0 6782.0,8271.0 6738.0,8266.0 C 6677.0,8258.0 6641.0,8270.0 6606.0,8309.0 C 6588.0,8328.0 6576.0,8330.0 6452.0,8330.0 C 6324.0,8330.0 6317.0,8329.0 6288.0,8305.0 C 6268.0,8288.0 6246.0,8280.0 6221.0,8280.0 C 6194.0,8280.0 6177.0,8273.0 6160.0,8255.0 C 6138.0,8232.0 6135.0,8231.0 6114.0,8245.0 C 6101.0,8253.0 6086.0,8260.0 6080.0,8260.0 C 6064.0,8260.0 6068.0,8208.0 6091.0,8144.0 C 6109.0,8093.0 6111.0,8071.0 6106.0,7973.0 L 6100.0,7862.0 L 6130.0,7851.0 C 6155.0,7843.0 6160.0,7836.0 6160.0,7809.0 C 6160.0,7782.0 6177.0,7761.0 6285.0,7655.0 C 6404.0,7538.0 6410.0,7530.0 6410.0,7492.0 C 6410.0,7445.0 6375.0,7344.0 6348.0,7314.0 C 6338.0,7302.0 6327.0,7275.0 6323.0,7254.0 C 6315.0,7197.0 6285.0,7153.0 6245.0,7140.0 C 6226.0,7134.0 6210.0,7124.0 6210.0,7119.0 C 6210.0,7113.0 6199.0,7098.0 6185.0,7085.0 C 6155.0,7054.0 6120.0,7052.0 6120.0,7080.0 C 6120.0,7096.0 6113.0,7100.0 6090.0,7100.0 C 6074.0,7100.0 6060.0,7105.0 6060.0,7110.0 C 6060.0,7116.0 6047.0,7120.0 6031.0,7120.0 C 6015.0,7120.0 5997.0,7127.0 5990.0,7136.0 C 5970.0,7160.0 5942.0,7171.0 5886.0,7180.0 C 5858.0,7184.0 5827.0,7191.0 5818.0,7195.0 C 5803.0,7201.0 5800.0,7197.0 5800.0,7166.0 L 5800.0,7129.0 L 5753.0,7134.0 C 5630.0,7147.0 5529.0,7150.0 5512.0,7141.0 C 5500.0,7134.0 5479.0,7136.0 5444.0,7147.0 C 5355.0,7174.0 5340.0,7182.0 5327.0,7209.0 C 5315.0,7233.0 5310.0,7235.0 5260.0,7232.0 C 5230.0,7230.0 5201.0,7224.0 5195.0,7219.0 C 5179.0,7204.0 5145.0,7209.0 5127.0,7230.0 C 5107.0,7253.0 5092.0,7255.0 5067.0,7235.0 C 5051.0,7223.0 5044.0,7224.0 5017.0,7241.0 C 4999.0,7251.0 4970.0,7260.0 4951.0,7260.0 C 4923.0,7260.0 4919.0,7262.0 4930.0,7275.0 C 4940.0,7287.0 4937.0,7290.0 4913.0,7296.0 C 4898.0,7300.0 4873.0,7312.0 4858.0,7323.0 C 4842.0,7335.0 4813.0,7344.0 4788.0,7345.0 C 4734.0,7347.0 4689.0,7368.0 4712.0,7381.0 C 4721.0,7386.0 4731.0,7401.0 4734.0,7415.0 C 4738.0,7431.0 4747.0,7440.0 4760.0,7440.0 C 4771.0,7440.0 4780.0,7447.0 4780.0,7455.0 C 4780.0,7463.0 4772.0,7470.0 4762.0,7470.0 C 4743.0,7470.0 4680.0,7529.0 4680.0,7546.0 C 4680.0,7552.0 4664.0,7571.0 4645.0,7590.0 C 4605.0,7629.0 4602.0,7640.0 4630.0,7640.0 C 4641.0,7640.0 4650.0,7644.0 4650.0,7648.0 C 4650.0,7680.0 4524.0,7794.0 4474.0,7806.0 C 4455.0,7811.0 4452.0,7815.0 4460.0,7830.0 C 4473.0,7855.0 4473.0,7857.0 4454.0,7864.0 C 4432.0,7872.0 4340.0,7813.0 4340.0,7791.0 C 4340.0,7763.0 4320.0,7700.0 4311.0,7700.0 C 4306.0,7700.0 4299.0,7711.0 4296.0,7725.0 C 4287.0,7761.0 4272.0,7747.0 4264.0,7695.0 C 4257.0,7643.0 4235.0,7635.0 4225.0,7680.0 C 4218.0,7711.0 4170.0,7751.0 4123.0,7765.0 C 4088.0,7775.0 4093.0,7736.0 4130.0,7708.0 L 4160.0,7686.0 L 4123.0,7647.0 C 4080.0,7602.0 4042.0,7584.0 4026.0,7600.0 C 4008.0,7618.0 3991.0,7611.0 3984.0,7583.0 C 3974.0,7540.0 3952.0,7510.0 3930.0,7510.0 C 3905.0,7510.0 3905.0,7507.0 3930.0,7435.0 C 3950.0,7377.0 3950.0,7376.0 3931.0,7356.0 C 3920.0,7344.0 3905.0,7308.0 3896.0,7276.0 C 3888.0,7243.0 3871.0,7203.0 3859.0,7186.0 L 3837.0,7157.0 L 3858.0,7092.0 C 3874.0,7043.0 3877.0,7023.0 3868.0,7013.0 C 3854.0,6996.0 3832.0,6996.0 3814.0,7015.0 C 3805.0,7023.0 3795.0,7030.0 3790.0,7030.0 C 3777.0,7030.0 3686.0,6920.0 3657.0,6869.0 C 3642.0,6844.0 3630.0,6814.0 3630.0,6803.0 C 3630.0,6789.0 3620.0,6779.0 3600.0,6771.0 C 3584.0,6766.0 3570.0,6755.0 3570.0,6748.0 C 3570.0,6740.0 3561.0,6717.0 3550.0,6695.0 C 3539.0,6673.0 3530.0,6650.0 3530.0,6644.0 C 3530.0,6637.0 3515.0,6627.0 3496.0,6620.0 C 3478.0,6614.0 3453.0,6598.0 3440.0,6585.0 C 3422.0,6566.0 3413.0,6563.0 3399.0,6571.0 C 3382.0,6580.0 3380.0,6577.0 3380.0,6546.0 C 3380.0,6512.0 3378.0,6511.0 3335.0,6504.0 C 3282.0,6496.0 3276.0,6491.0 3290.0,6455.0 C 3299.0,6431.0 3297.0,6424.0 3275.0,6404.0 C 3261.0,6391.0 3250.0,6374.0 3250.0,6366.0 C 3250.0,6358.0 3240.0,6345.0 3228.0,6339.0 C 3196.0,6323.0 3197.0,6324.0 3210.0,6300.0 C 3219.0,6282.0 3216.0,6273.0 3190.0,6240.0 C 3169.0,6214.0 3150.0,6200.0 3135.0,6200.0 C 3121.0,6200.0 3102.0,6187.0 3086.0,6168.0 C 3071.0,6150.0 3055.0,6129.0 3049.0,6123.0 C 3035.0,6105.0 3003.0,6107.0 2996.0,6125.0 C 2988.0,6148.0 2935.0,6143.0 2894.0,6115.0 C 2852.0,6086.0 2832.0,6084.0 2824.0,6105.0 C 2814.0,6129.0 2772.0,6123.0 2754.0,6095.0 C 2745.0,6081.0 2732.0,6070.0 2725.0,6070.0 C 2702.0,6070.0 2600.0,5980.0 2600.0,5959.0 C 2600.0,5949.0 2611.0,5930.0 2625.0,5918.0 C 2638.0,5907.0 2647.0,5893.0 2644.0,5888.0 C 2635.0,5873.0 2536.0,5879.0 2512.0,5896.0 C 2483.0,5916.0 2465.0,5903.0 2443.0,5848.0 C 2427.0,5809.0 2413.0,5802.0 2379.0,5820.0 C 2363.0,5829.0 2360.0,5827.0 2360.0,5810.0 C 2360.0,5795.0 2352.0,5788.0 2331.0,5784.0 C 2306.0,5779.0 2301.0,5772.0 2298.0,5746.0 C 2296.0,5720.0 2290.0,5714.0 2267.0,5712.0 C 2241.0,5709.0 2240.0,5706.0 2246.0,5674.0 C 2252.0,5640.0 2243.0,5631.0 2223.0,5651.0 C 2216.0,5658.0 2188.0,5662.0 2159.0,5661.0 C 2123.0,5661.0 2101.0,5665.0 2088.0,5677.0 C 2073.0,5690.0 2065.0,5691.0 2044.0,5681.0 C 2023.0,5672.0 2019.0,5665.0 2024.0,5645.0 C 2030.0,5621.0 2029.0,5620.0 1979.0,5620.0 C 1939.0,5620.0 1921.0,5614.0 1896.0,5595.0 C 1804.0,5519.0 1759.0,5491.0 1720.0,5483.0 C 1682.0,5476.0 1675.0,5470.0 1664.0,5438.0 C 1653.0,5404.0 1653.0,5400.0 1676.0,5379.0 C 1712.0,5345.0 1708.0,5329.0 1665.0,5341.0 C 1638.0,5349.0 1625.0,5347.0 1606.0,5335.0 C 1576.0,5315.0 1536.0,5324.0 1523.0,5352.0 C 1515.0,5371.0 1509.0,5367.0 1461.0,5306.0 C 1426.0,5262.0 1409.0,5233.0 1413.0,5221.0 C 1417.0,5204.0 1413.0,5203.0 1379.0,5207.0 C 1348.0,5212.0 1332.0,5207.0 1301.0,5187.0 C 1266.0,5164.0 1261.0,5155.0 1258.0,5118.0 L 1255.0,5075.0 L 1161.0,5029.0 C 1057.0,4977.0 1017.0,4944.0 890.0,4797.0 C 843.0,4743.0 788.0,4687.0 767.0,4673.0 C 712.0,4635.0 680.0,4593.0 680.0,4559.0 C 680.0,4543.0 685.0,4530.0 690.0,4530.0 C 713.0,4530.0 697.0,4493.0 654.0,4450.0 C 629.0,4425.0 584.0,4377.0 553.0,4342.0 C 499.0,4283.0 496.0,4277.0 499.0,4232.0 C 500.0,4206.0 494.0,4166.0 486.0,4142.0 C 469.0,4094.0 474.0,4070.0 500.0,4070.0 C 520.0,4070.0 530.0,4089.0 530.0,4125.0 C 530.0,4137.0 536.0,4150.0 543.0,4153.0 C 558.0,4158.0 580.0,4252.0 580.0,4305.0 C 580.0,4339.0 602.0,4366.0 619.0,4355.0 C 637.0,4344.0 687.0,4378.0 701.0,4411.0 L 714.0,4444.0 L 722.0,4415.0 C 731.0,4380.0 717.0,4352.0 685.0,4344.0 C 666.0,4339.0 660.0,4331.0 660.0,4309.0 C 660.0,4293.0 668.0,4272.0 679.0,4261.0 C 689.0,4251.0 700.0,4231.0 704.0,4215.0 C 709.0,4195.0 716.0,4189.0 730.0,4193.0 C 745.0,4197.0 753.0,4189.0 766.0,4154.0 C 785.0,4105.0 787.0,4104.0 810.0,4125.0 C 825.0,4138.0 832.0,4137.0 878.0,4115.0 C 907.0,4101.0 944.0,4090.0 960.0,4090.0 L 991.0,4090.0 L 974.0,4059.0 C 957.0,4025.0 965.0,4010.0 1003.0,4010.0 C 1015.0,4010.0 1020.0,4002.0 1020.0,3981.0 C 1020.0,3964.0 1016.0,3948.0 1010.0,3945.0 C 993.0,3934.0 999.0,3920.0 1021.0,3920.0 C 1035.0,3920.0 1045.0,3910.0 1053.0,3890.0 C 1061.0,3868.0 1069.0,3862.0 1082.0,3866.0 C 1096.0,3870.0 1100.0,3866.0 1100.0,3846.0 C 1100.0,3832.0 1095.0,3818.0 1090.0,3815.0 C 1084.0,3812.0 1080.0,3799.0 1080.0,3786.0 C 1080.0,3774.0 1075.0,3759.0 1069.0,3753.0 C 1058.0,3742.0 1067.0,3670.0 1080.0,3670.0 C 1084.0,3670.0 1110.0,3690.0 1136.0,3715.0 C 1173.0,3749.0 1193.0,3760.0 1217.0,3760.0 C 1248.0,3760.0 1249.0,3761.0 1240.0,3785.0 C 1232.0,3806.0 1234.0,3812.0 1248.0,3817.0 C 1279.0,3829.0 1291.0,3860.0 1265.0,3860.0 C 1257.0,3860.0 1250.0,3867.0 1250.0,3875.0 C 1250.0,3883.0 1254.0,3890.0 1259.0,3890.0 C 1276.0,3890.0 1280.0,3940.0 1265.0,3970.0 C 1235.0,4028.0 1256.0,4025.0 1299.0,3965.0 C 1326.0,3927.0 1336.0,3920.0 1365.0,3920.0 C 1389.0,3920.0 1403.0,3914.0 1410.0,3900.0 C 1416.0,3889.0 1430.0,3880.0 1441.0,3880.0 C 1455.0,3880.0 1466.0,3867.0 1479.0,3838.0 C 1489.0,3814.0 1507.0,3789.0 1518.0,3783.0 C 1536.0,3772.0 1541.0,3773.0 1553.0,3790.0 C 1570.0,3814.0 1583.0,3803.0 1594.0,3756.0 C 1600.0,3730.0 1602.0,3729.0 1619.0,3744.0 C 1642.0,3765.0 1647.0,3764.0 1653.0,3739.0 C 1658.0,3722.0 1664.0,3720.0 1693.0,3725.0 C 1734.0,3733.0 1780.0,3708.0 1780.0,3678.0 C 1780.0,3652.0 1809.0,3610.0 1827.0,3610.0 C 1835.0,3610.0 1850.0,3615.0 1861.0,3621.0 C 1881.0,3631.0 1881.0,3631.0 1860.0,3666.0 C 1834.0,3707.0 1840.0,3710.0 1875.0,3674.0 C 1901.0,3649.0 1902.0,3648.0 1922.0,3666.0 C 1933.0,3677.0 1948.0,3698.0 1955.0,3715.0 C 1968.0,3744.0 1968.0,3742.0 1969.0,3675.0 C 1970.0,3612.0 1973.0,3601.0 2001.0,3567.0 C 2036.0,3524.0 2082.0,3516.0 2100.0,3549.0 C 2105.0,3560.0 2124.0,3571.0 2141.0,3575.0 C 2158.0,3579.0 2186.0,3595.0 2204.0,3610.0 C 2236.0,3639.0 2299.0,3663.0 2287.0,3643.0 C 2272.0,3619.0 2351.0,3612.0 2370.0,3635.0 C 2377.0,3643.0 2390.0,3650.0 2399.0,3650.0 C 2420.0,3649.0 2372.0,3611.0 2350.0,3610.0 C 2273.0,3609.0 2201.0,3545.0 2220.0,3496.0 C 2228.0,3474.0 2227.0,3470.0 2210.0,3470.0 C 2179.0,3470.0 2165.0,3434.0 2185.0,3404.0 C 2198.0,3384.0 2199.0,3376.0 2189.0,3364.0 C 2183.0,3356.0 2172.0,3350.0 2164.0,3350.0 C 2157.0,3350.0 2144.0,3340.0 2135.0,3328.0 C 2120.0,3306.0 2121.0,3304.0 2141.0,3287.0 C 2161.0,3271.0 2165.0,3271.0 2180.0,3285.0 C 2201.0,3304.0 2226.0,3304.0 2234.0,3285.0 C 2241.0,3266.0 2284.0,3266.0 2300.0,3285.0 C 2314.0,3302.0 2340.0,3305.0 2340.0,3290.0 C 2340.0,3285.0 2332.0,3271.0 2323.0,3260.0 C 2310.0,3245.0 2293.0,3240.0 2253.0,3240.0 C 2203.0,3240.0 2200.0,3239.0 2200.0,3215.0 C 2200.0,3200.0 2206.0,3190.0 2214.0,3190.0 C 2234.0,3190.0 2245.0,3171.0 2232.0,3158.0 C 2227.0,3153.0 2225.0,3140.0 2227.0,3129.0 C 2231.0,3114.0 2238.0,3111.0 2254.0,3116.0 C 2274.0,3122.0 2274.0,3122.0 2252.0,3097.0 C 2233.0,3077.0 2229.0,3065.0 2235.0,3039.0 C 2241.0,3011.0 2240.0,3008.0 2225.0,3014.0 C 2202.0,3022.0 2180.0,3003.0 2180.0,2975.0 C 2180.0,2958.0 2175.0,2953.0 2162.0,2956.0 C 2137.0,2963.0 2076.0,2897.0 2083.0,2871.0 C 2086.0,2857.0 2083.0,2850.0 2074.0,2850.0 C 2055.0,2850.0 2018.0,2773.0 2025.0,2749.0 C 2029.0,2739.0 2036.0,2730.0 2041.0,2730.0 C 2046.0,2730.0 2050.0,2721.0 2050.0,2711.0 C 2050.0,2700.0 2055.0,2688.0 2060.0,2685.0 C 2084.0,2670.0 2068.0,2658.0 2030.0,2663.0 C 1993.0,2668.0 1990.0,2666.0 1990.0,2645.0 C 1990.0,2632.0 1983.0,2620.0 1975.0,2617.0 C 1967.0,2613.0 1949.0,2592.0 1934.0,2570.0 C 1913.0,2539.0 1909.0,2524.0 1916.0,2512.0 C 1924.0,2500.0 1919.0,2490.0 1893.0,2467.0 C 1855.0,2433.0 1830.0,2391.0 1830.0,2360.0 C 1830.0,2348.0 1820.0,2325.0 1809.0,2308.0 C 1790.0,2283.0 1788.0,2268.0 1792.0,2206.0 C 1795.0,2166.0 1800.0,2128.0 1804.0,2122.0 C 1808.0,2115.0 1830.0,2110.0 1853.0,2110.0 C 1895.0,2110.0 1896.0,2109.0 1909.0,2063.0 C 1918.0,2033.0 1938.0,2000.0 1962.0,1976.0 C 1997.0,1941.0 2003.0,1938.0 2037.0,1945.0 C 2058.0,1948.0 2090.0,1960.0 2108.0,1971.0 C 2126.0,1981.0 2158.0,1990.0 2179.0,1990.0 C 2206.0,1990.0 2223.0,1997.0 2240.0,2015.0 L 2264.0,2040.0 L 2289.0,2016.0 C 2303.0,2003.0 2331.0,1990.0 2352.0,1987.0 C 2416.0,1977.0 2490.0,1915.0 2490.0,1870.0 C 2490.0,1849.0 2460.0,1862.0 2448.0,1888.0 C 2439.0,1906.0 2426.0,1916.0 2408.0,1918.0 C 2384.0,1921.0 2380.0,1917.0 2374.0,1886.0 C 2366.0,1841.0 2347.0,1838.0 2352.0,1882.0 C 2355.0,1912.0 2351.0,1917.0 2305.0,1942.0 C 2244.0,1975.0 2243.0,1975.0 2235.0,1949.0 C 2229.0,1930.0 2223.0,1928.0 2180.0,1934.0 C 2144.0,1939.0 2130.0,1937.0 2120.0,1925.0 C 2113.0,1917.0 2101.0,1910.0 2094.0,1910.0 C 2086.0,1910.0 2080.0,1907.0 2080.0,1903.0 C 2080.0,1898.0 2071.0,1884.0 2060.0,1870.0 L 2041.0,1845.0 L 2016.0,1869.0 C 1994.0,1890.0 1988.0,1891.0 1955.0,1880.0 C 1935.0,1873.0 1905.0,1871.0 1888.0,1874.0 C 1858.0,1880.0 1857.0,1880.0 1863.0,1845.0 C 1866.0,1826.0 1865.0,1810.0 1861.0,1810.0 C 1857.0,1810.0 1839.0,1826.0 1820.0,1845.0 C 1801.0,1864.0 1781.0,1880.0 1775.0,1880.0 C 1764.0,1880.0 1771.0,1769.0 1784.0,1740.0 C 1789.0,1727.0 1783.0,1725.0 1750.0,1728.0 C 1713.0,1732.0 1710.0,1730.0 1710.0,1708.0 C 1710.0,1694.0 1707.0,1680.0 1704.0,1677.0 C 1692.0,1666.0 1660.0,1690.0 1660.0,1710.0 C 1660.0,1724.0 1649.0,1732.0 1623.0,1739.0 C 1560.0,1757.0 1549.0,1754.0 1556.0,1723.0 C 1568.0,1674.0 1579.0,1650.0 1590.0,1650.0 C 1595.0,1650.0 1600.0,1632.0 1600.0,1609.0 C 1600.0,1576.0 1594.0,1562.0 1570.0,1540.0 C 1554.0,1525.0 1540.0,1503.0 1540.0,1491.0 C 1540.0,1479.0 1536.0,1470.0 1530.0,1470.0 C 1525.0,1470.0 1520.0,1477.0 1520.0,1485.0 C 1520.0,1518.0 1501.0,1496.0 1474.0,1433.0 C 1458.0,1395.0 1428.0,1348.0 1406.0,1326.0 C 1369.0,1289.0 1368.0,1286.0 1378.0,1251.0 C 1384.0,1231.0 1391.0,1189.0 1393.0,1157.0 C 1395.0,1119.0 1404.0,1090.0 1417.0,1072.0 C 1440.0,1041.0 1477.0,1031.0 1486.0,1054.0 C 1493.0,1072.0 1535.0,1076.0 1545.0,1060.0 C 1548.0,1055.0 1542.0,1050.0 1531.0,1050.0 C 1520.0,1050.0 1503.0,1039.0 1492.0,1025.0 C 1470.0,997.0 1450.0,992.0 1450.0,1015.0 C 1450.0,1023.0 1443.0,1030.0 1435.0,1030.0 C 1427.0,1030.0 1411.0,1039.0 1399.0,1051.0 L 1378.0,1072.0 L 1343.0,1038.0 C 1324.0,1020.0 1304.0,994.0 1299.0,981.0 C 1291.0,962.0 1284.0,959.0 1262.0,963.0 C 1241.0,967.0 1228.0,962.0 1202.0,937.0 C 1177.0,912.0 1158.0,904.0 1117.0,900.0 C 1073.0,896.0 1065.0,892.0 1062.0,873.0 C 1059.0,851.0 1070.0,845.0 1165.0,821.0 C 1216.0,808.0 1363.0,829.0 1387.0,853.0 C 1402.0,868.0 1407.0,867.0 1449.0,836.0 C 1550.0,763.0 1585.0,748.0 1637.0,756.0 C 1663.0,759.0 1697.0,769.0 1712.0,776.0 C 1760.0,800.0 1924.0,794.0 1959.0,767.0 C 1970.0,758.0 1967.0,751.0 1944.0,733.0 C 1919.0,713.0 1917.0,708.0 1928.0,690.0 C 1944.0,663.0 1943.0,660.0 1920.0,660.0 C 1907.0,660.0 1900.0,667.0 1900.0,679.0 C 1900.0,709.0 1875.0,723.0 1838.0,714.0 C 1820.0,710.0 1789.0,708.0 1769.0,709.0 C 1737.0,710.0 1732.0,707.0 1728.0,685.0 C 1724.0,668.0 1732.0,645.0 1752.0,614.0 C 1776.0,576.0 1784.0,570.0 1803.0,576.0 C 1825.0,583.0 1825.0,583.0 1806.0,561.0 C 1790.0,544.0 1780.0,541.0 1751.0,546.0 C 1731.0,550.0 1702.0,559.0 1686.0,567.0 C 1660.0,581.0 1655.0,580.0 1631.0,562.0 C 1616.0,551.0 1590.0,539.0 1573.0,536.0 C 1556.0,532.0 1539.0,522.0 1536.0,513.0 C 1528.0,494.0 1545.0,473.0 1554.0,489.0 C 1565.0,506.0 1583.0,502.0 1576.0,484.0 C 1566.0,459.0 1598.0,430.0 1634.0,430.0 C 1653.0,430.0 1670.0,423.0 1677.0,412.0 C 1683.0,402.0 1712.0,388.0 1742.0,381.0 C 1807.0,365.0 1855.0,376.0 1892.0,415.0 C 1915.0,440.0 1944.0,447.0 1954.0,431.0 C 1957.0,426.0 1969.0,424.0 1980.0,427.0 C 1996.0,431.0 2000.0,427.0 2001.0,406.0 C 2002.0,392.0 2003.0,376.0 2004.0,371.0 C 2005.0,366.0 1986.0,348.0 1963.0,331.0 C 1914.0,296.0 1908.0,275.0 1945.0,268.0 C 1959.0,265.0 1970.0,266.0 1970.0,270.0 C 1970.0,274.0 1983.0,280.0 2000.0,282.0 C 2026.0,286.0 2030.0,284.0 2030.0,263.0 L 2030.0,239.0 L 2060.0,260.0 C 2077.0,272.0 2100.0,299.0 2111.0,321.0 C 2122.0,343.0 2134.0,359.0 2138.0,357.0 C 2142.0,354.0 2163.0,344.0 2184.0,334.0 L 2223.0,316.0 L 2244.0,343.0 C 2256.0,358.0 2274.0,370.0 2284.0,370.0 C 2298.0,370.0 2300.0,365.0 2295.0,342.0 C 2291.0,321.0 2294.0,309.0 2310.0,295.0 C 2322.0,284.0 2330.0,282.0 2330.0,289.0 C 2330.0,296.0 2335.0,298.0 2341.0,294.0 C 2349.0,290.0 2347.0,283.0 2337.0,273.0 C 2324.0,260.0 2319.0,260.0 2292.0,274.0 C 2244.0,299.0 2215.0,294.0 2176.0,255.0 C 2156.0,236.0 2131.0,220.0 2119.0,220.0 C 2099.0,220.0 2098.0,219.0 2114.0,195.0 C 2123.0,181.0 2127.0,170.0 2122.0,170.0 C 2118.0,170.0 2097.0,147.0 2077.0,120.0 C 2041.0,71.0 2040.0,69.0 2055.0,41.0 C 2077.0,-2.0 2085.0,-3.0 2099.0,36.0 C 2116.0,83.0 2162.0,103.0 2229.0,94.0 L 2276.0,88.0 L 2293.0,131.0 C 2301.0,155.0 2310.0,184.0 2312.0,194.0 C 2317.0,223.0 2337.0,224.0 2344.0,195.0 C 2351.0,168.0 2377.0,161.0 2386.0,185.0 C 2395.0,208.0 2419.0,203.0 2430.0,175.0 C 2437.0,157.0 2447.0,150.0 2465.0,150.0 C 2490.0,150.0 2490.0,150.0 2490.0,239.0 C 2490.0,302.0 2494.0,330.0 2503.0,332.0 C 2515.0,337.0 2521.0,367.0 2520.0,428.0 C 2520.0,468.0 2525.0,468.0 2545.0,430.0 C 2568.0,386.0 2610.0,388.0 2646.0,435.0 C 2676.0,474.0 2672.0,494.0 2640.0,465.0 C 2620.0,447.0 2620.0,447.0 2620.0,483.0 C 2620.0,509.0 2624.0,520.0 2635.0,520.0 C 2643.0,520.0 2650.0,525.0 2650.0,531.0 C 2650.0,538.0 2638.0,541.0 2621.0,538.0 C 2598.0,535.0 2594.0,537.0 2598.0,552.0 C 2600.0,562.0 2599.0,577.0 2596.0,587.0 C 2590.0,601.0 2585.0,599.0 2562.0,572.0 L 2535.0,541.0 L 2498.0,566.0 C 2454.0,594.0 2425.0,634.0 2433.0,654.0 C 2439.0,669.0 2496.0,670.0 2535.0,656.0 C 2587.0,637.0 2620.0,619.0 2620.0,610.0 C 2620.0,605.0 2625.0,600.0 2630.0,600.0 C 2636.0,600.0 2640.0,609.0 2640.0,620.0 C 2640.0,648.0 2672.0,646.0 2718.0,615.0 C 2738.0,601.0 2760.0,590.0 2767.0,590.0 C 2783.0,590.0 2784.0,568.0 2769.0,553.0 C 2762.0,546.0 2760.0,530.0 2764.0,515.0 C 2770.0,493.0 2775.0,489.0 2796.0,493.0 C 2816.0,496.0 2819.0,494.0 2815.0,479.0 C 2811.0,467.0 2823.0,448.0 2857.0,417.0 C 2884.0,392.0 2910.0,357.0 2915.0,338.0 C 2923.0,311.0 2930.0,305.0 2954.0,305.0 C 2969.0,304.0 2988.0,296.0 2995.0,287.0 C 3002.0,278.0 3015.0,270.0 3024.0,270.0 C 3039.0,270.0 3039.0,273.0 3025.0,300.0 C 3017.0,316.0 3010.0,337.0 3010.0,346.0 C 3010.0,356.0 3002.0,372.0 2993.0,382.0 C 2980.0,397.0 2978.0,405.0 2987.0,418.0 C 3003.0,444.0 3011.0,439.0 3053.0,380.0 C 3097.0,317.0 3106.0,311.0 3124.0,336.0 C 3136.0,352.0 3138.0,348.0 3145.0,300.0 C 3149.0,270.0 3168.0,216.0 3188.0,178.0 C 3220.0,118.0 3228.0,109.0 3262.0,99.0 C 3283.0,94.0 3305.0,92.0 3310.0,95.0 C 3325.0,104.0 3322.0,176.0 3306.0,214.0 C 3290.0,252.0 3299.0,276.0 3336.0,290.0 C 3353.0,297.0 3360.0,307.0 3360.0,325.0 C 3360.0,349.0 3362.0,350.0 3382.0,338.0 C 3395.0,331.0 3413.0,327.0 3424.0,329.0 C 3434.0,330.0 3455.0,326.0 3471.0,320.0 C 3497.0,309.0 3504.0,310.0 3538.0,334.0 C 3559.0,348.0 3585.0,360.0 3597.0,360.0 C 3608.0,360.0 3620.0,367.0 3624.0,375.0 C 3631.0,394.0 3670.0,395.0 3670.0,376.0 C 3670.0,357.0 3709.0,310.0 3734.0,299.0 C 3745.0,294.0 3784.0,265.0 3820.0,235.0 C 3906.0,162.0 3933.0,155.0 4006.0,185.0 C 4058.0,206.0 4065.0,213.0 4083.0,257.0 C 4102.0,305.0 4107.0,404.0 4094.0,478.0 C 4089.0,506.0 4091.0,510.0 4109.0,510.0 C 4121.0,510.0 4147.0,519.0 4167.0,530.0 C 4188.0,541.0 4212.0,550.0 4221.0,550.0 C 4230.0,550.0 4264.0,578.0 4297.0,613.0 C 4348.0,666.0 4360.0,685.0 4369.0,730.0 C 4380.0,782.0 4385.0,788.0 4450.0,838.0 C 4519.0,890.0 4520.0,892.0 4520.0,938.0 C 4520.0,981.0 4525.0,990.0 4574.0,1043.0 C 4603.0,1074.0 4633.0,1100.0 4641.0,1100.0 C 4649.0,1100.0 4677.0,1122.0 4704.0,1149.0 C 4749.0,1194.0 4755.0,1197.0 4781.0,1188.0 C 4805.0,1180.0 4817.0,1182.0 4853.0,1203.0 C 4890.0,1225.0 4902.0,1227.0 4936.0,1220.0 C 4993.0,1206.0 5043.0,1208.0 5066.0,1224.0 C 5083.0,1236.0 5096.0,1236.0 5162.0,1220.0 C 5203.0,1210.0 5247.0,1197.0 5259.0,1190.0 C 5278.0,1180.0 5288.0,1183.0 5329.0,1209.0 C 5382.0,1243.0 5436.0,1249.0 5513.0,1228.0 C 5549.0,1219.0 5569.0,1220.0 5623.0,1233.0 C 5716.0,1257.0 5734.0,1255.0 5765.0,1219.0 L 5791.0,1187.0 L 5831.0,1205.0 C 5852.0,1215.0 5875.0,1229.0 5881.0,1236.0 C 5889.0,1246.0 5899.0,1246.0 5932.0,1234.0 C 5954.0,1226.0 6015.0,1213.0 6066.0,1204.0 L 6160.0,1188.0 L 6269.0,1265.0 C 6386.0,1347.0 6433.0,1389.0 6476.0,1452.0 C 6501.0,1487.0 6505.0,1505.0 6513.0,1608.0 C 6518.0,1673.0 6525.0,1732.0 6529.0,1740.0 C 6533.0,1748.0 6551.0,1764.0 6568.0,1775.0 C 6597.0,1793.0 6599.0,1800.0 6600.0,1849.0 L 6600.0,1904.0 L 6525.0,1977.0 C 6483.0,2017.0 6447.0,2050.0 6445.0,2050.0 C 6442.0,2050.0 6440.0,2043.0 6440.0,2035.0 C 6440.0,2024.0 6429.0,2020.0 6400.0,2020.0 C 6361.0,2020.0 6358.0,2023.0 6317.0,2088.0 C 6293.0,2125.0 6262.0,2161.0 6247.0,2169.0 C 6231.0,2177.0 6220.0,2193.0 6218.0,2209.0 C 6215.0,2233.0 6207.0,2237.0 6133.0,2257.0 C 6040.0,2281.0 5995.0,2308.0 5986.0,2345.0 C 5982.0,2361.0 5973.0,2370.0 5961.0,2370.0 C 5948.0,2370.0 5940.0,2379.0 5935.0,2400.0 C 5931.0,2416.0 5925.0,2430.0 5921.0,2430.0 C 5917.0,2430.0 5892.0,2446.0 5867.0,2466.0 C 5831.0,2494.0 5820.0,2509.0 5820.0,2531.0 C 5820.0,2549.0 5811.0,2566.0 5791.0,2582.0 C 5775.0,2595.0 5746.0,2638.0 5726.0,2678.0 C 5689.0,2752.0 5667.0,2767.0 5640.0,2735.0 C 5633.0,2726.0 5611.0,2720.0 5587.0,2720.0 C 5556.0,2720.0 5536.0,2729.0 5498.0,2757.0 C 5459.0,2788.0 5443.0,2794.0 5412.0,2791.0 C 5392.0,2789.0 5368.0,2784.0 5359.0,2779.0 C 5346.0,2772.0 5336.0,2780.0 5316.0,2811.0 C 5290.0,2850.0 5288.0,2851.0 5265.0,2836.0 C 5244.0,2822.0 5238.0,2823.0 5187.0,2851.0 C 5143.0,2874.0 5129.0,2888.0 5119.0,2917.0 C 5104.0,2963.0 5113.0,3040.0 5135.0,3056.0 C 5149.0,3066.0 5151.0,3077.0 5145.0,3106.0 C 5139.0,3140.0 5140.0,3142.0 5154.0,3131.0 C 5163.0,3123.0 5170.0,3110.0 5170.0,3100.0 C 5170.0,3085.0 5188.0,3070.0 5207.0,3070.0 C 5209.0,3070.0 5209.0,3084.0 5205.0,3101.0 C 5198.0,3131.0 5198.0,3131.0 5234.0,3125.0 C 5267.0,3118.0 5270.0,3120.0 5270.0,3142.0 C 5270.0,3156.0 5261.0,3175.0 5249.0,3186.0 C 5233.0,3201.0 5225.0,3202.0 5210.0,3192.0 C 5183.0,3176.0 5141.0,3177.0 5134.0,3194.0 C 5127.0,3212.0 5167.0,3253.0 5184.0,3247.0 C 5192.0,3244.0 5207.0,3255.0 5219.0,3271.0 C 5250.0,3313.0 5270.0,3309.0 5270.0,3261.0 C 5270.0,3222.0 5310.0,3120.0 5338.0,3088.0 C 5346.0,3078.0 5364.0,3070.0 5377.0,3070.0 C 5399.0,3070.0 5400.0,3073.0 5395.0,3108.0 C 5383.0,3182.0 5367.0,3246.0 5349.0,3293.0 C 5336.0,3326.0 5330.0,3367.0 5330.0,3426.0 C 5330.0,3517.0 5342.0,3553.0 5388.0,3602.0 C 5412.0,3628.0 5412.0,3630.0 5396.0,3664.0 C 5387.0,3682.0 5380.0,3703.0 5380.0,3709.0 C 5380.0,3715.0 5362.0,3720.0 5340.0,3720.0 C 5306.0,3720.0 5300.0,3723.0 5294.0,3746.0 C 5290.0,3760.0 5290.0,3799.0 5293.0,3832.0 C 5298.0,3884.0 5303.0,3897.0 5334.0,3929.0 C 5354.0,3949.0 5370.0,3975.0 5370.0,3987.0 C 5370.0,4013.0 5452.0,4090.0 5480.0,4090.0 C 5491.0,4090.0 5507.0,4079.0 5516.0,4065.0 C 5529.0,4045.0 5535.0,4042.0 5546.0,4051.0 C 5554.0,4057.0 5560.0,4068.0 5560.0,4074.0 C 5560.0,4081.0 5570.0,4096.0 5583.0,4108.0 C 5601.0,4125.0 5619.0,4130.0 5658.0,4130.0 C 5708.0,4130.0 5711.0,4132.0 5716.0,4158.0 C 5721.0,4184.0 5728.0,4188.0 5785.0,4199.0 C 5846.0,4211.0 5848.0,4213.0 5855.0,4246.0 C 5858.0,4265.0 5857.0,4288.0 5851.0,4297.0 C 5837.0,4323.0 5864.0,4370.0 5894.0,4370.0 C 5917.0,4370.0 5969.0,4418.0 6006.0,4475.0 C 6021.0,4498.0 6028.0,4501.0 6059.0,4496.0 C 6079.0,4492.0 6122.0,4487.0 6155.0,4484.0 C 6192.0,4480.0 6223.0,4471.0 6235.0,4460.0 C 6253.0,4444.0 6258.0,4443.0 6280.0,4455.0 C 6294.0,4463.0 6317.0,4469.0 6332.0,4470.0 C 6361.0,4470.0 6380.0,4494.0 6380.0,4529.0 C 6380.0,4574.0 6424.0,4564.0 6445.0,4514.0 C 6463.0,4469.0 6482.0,4471.0 6504.0,4519.0 C 6529.0,4576.0 6582.0,4620.0 6627.0,4620.0 C 6655.0,4620.0 6670.0,4628.0 6696.0,4655.0 C 6718.0,4679.0 6738.0,4690.0 6757.0,4690.0 C 6777.0,4690.0 6797.0,4701.0 6819.0,4724.0 C 6838.0,4743.0 6877.0,4767.0 6910.0,4779.0 C 6975.0,4803.0 6987.0,4814.0 6996.0,4857.0 C 7001.0,4882.0 6997.0,4891.0 6975.0,4908.0 C 6961.0,4919.0 6945.0,4930.0 6940.0,4932.0 C 6935.0,4934.0 6933.0,4952.0 6937.0,4973.0 C 6941.0,5001.0 6948.0,5012.0 6966.0,5016.0 C 6978.0,5019.0 6996.0,5030.0 7006.0,5041.0 C 7016.0,5052.0 7041.0,5063.0 7062.0,5066.0 C 7083.0,5070.0 7103.0,5077.0 7106.0,5081.0 C 7109.0,5086.0 7121.0,5090.0 7133.0,5090.0 C 7169.0,5089.0 7297.0,5162.0 7315.0,5193.0 C 7346.0,5246.0 7393.0,5291.0 7441.0,5315.0 C 7467.0,5329.0 7492.0,5345.0 7495.0,5351.0 C 7500.0,5357.0 7515.0,5359.0 7535.0,5356.0 C 7563.0,5350.0 7572.0,5354.0 7599.0,5385.0 C 7616.0,5405.0 7630.0,5425.0 7630.0,5431.0 C 7630.0,5437.0 7644.0,5455.0 7660.0,5472.0 C 7677.0,5488.0 7690.0,5510.0 7690.0,5521.0 C 7690.0,5532.0 7706.0,5575.0 7725.0,5617.0 C 7748.0,5666.0 7760.0,5708.0 7760.0,5735.0 C 7760.0,5774.0 7763.0,5779.0 7791.0,5789.0 C 7837.0,5805.0 7843.0,5803.0 7862.0,5770.0 C 7885.0,5729.0 7897.0,5732.0 7911.0,5783.0 C 7918.0,5809.0 7937.0,5839.0 7962.0,5863.0 C 7992.0,5891.0 8000.0,5905.0 7995.0,5921.0 C 7989.0,5940.0 7990.0,5941.0 8010.0,5930.0 C 8029.0,5920.0 8041.0,5923.0 8090.0,5949.0 C 8124.0,5967.0 8163.0,5980.0 8184.0,5980.0 C 8204.0,5980.0 8220.0,5983.0 8220.0,5988.0 C 8220.0,5992.0 8231.0,6008.0 8243.0,6024.0 C 8269.0,6056.0 8338.0,6073.0 8443.0,6074.0 C 8474.0,6074.0 8500.0,6076.0 8500.0,6079.0 C 8501.0,6085.0 8507.0,6113.0 8532.0,6226.0 C 8545.0,6283.0 8545.0,6288.0 8528.0,6299.0 C 8488.0,6324.0 8481.0,6376.0 8478.0,6675.0 C 8477.0,6783.0 8487.0,6877.0 8501.0,6886.0 C 8506.0,6889.0 8510.0,6904.0 8510.0,6919.0 C 8510.0,6935.0 8521.0,6963.0 8533.0,6982.0 C 8547.0,7001.0 8559.0,7039.0 8563.0,7068.0 C 8569.0,7119.0 8569.0,7120.0 8542.0,7120.0 C 8521.0,7120.0 8497.0,7139.0 8433.0,7206.0 L 8350.0,7293.0 L 8350.0,7364.0 C 8350.0,7407.0 8360.0,7475.0 8375.0,7535.0 C 8396.0,7616.0 8407.0,7641.0 8434.0,7670.0 C 8475.0,7712.0 8490.0,7741.0 8490.0,7773.0 C 8490.0,7811.0 8510.0,7859.0 8531.0,7871.0 C 8545.0,7878.0 8558.0,7876.0 8579.0,7865.0 C 8630.0,7839.0 8636.0,7844.0 8645.0,7913.0 C 8650.0,7947.0 8652.0,7995.0 8651.0,8019.0 C 8650.0,8063.0 8673.0,8130.0 8689.0,8130.0 C 8694.0,8130.0 8711.0,8123.0 8726.0,8115.0 C 8753.0,8101.0 8755.0,8102.0 8758.0,8118.0 C 8760.0,8127.0 8766.0,8139.0 8771.0,8144.0 C 8776.0,8150.0 8780.0,8163.0 8780.0,8174.0 C 8780.0,8205.0 8814.0,8340.0 8822.0,8340.0 C 8826.0,8340.0 8836.0,8333.0 8844.0,8324.0 C 8857.0,8312.0 8861.0,8311.0 8864.0,8322.0 C 8866.0,8329.0 8873.0,8355.0 8880.0,8379.0 C 8890.0,8417.0 8893.0,8421.0 8902.0,8406.0 C 8916.0,8382.0 8930.0,8402.0 8930.0,8446.0 C 8930.0,8473.0 8934.0,8478.0 8962.0,8484.0 C 8986.0,8489.0 8999.0,8485.0 9015.0,8470.0 C 9042.0,8445.0 9050.0,8445.0 9050.0,8470.0 C 9050.0,8482.0 9043.0,8490.0 9034.0,8490.0 C 9006.0,8490.0 9024.0,8525.0 9057.0,8534.0 C 9076.0,8540.0 9090.0,8552.0 9093.0,8564.0 C 9108.0,8627.0 9142.0,8696.0 9176.0,8731.0 C 9197.0,8752.0 9217.0,8770.0 9221.0,8770.0 C 9225.0,8770.0 9230.0,8753.0 9232.0,8733.0 C 9236.0,8686.0 9257.0,8679.0 9271.0,8719.0 C 9277.0,8736.0 9288.0,8750.0 9295.0,8750.0 C 9302.0,8750.0 9311.0,8766.0 9314.0,8785.0 C 9319.0,8811.0 9326.0,8820.0 9340.0,8820.0 C 9362.0,8820.0 9366.0,8840.0 9349.0,8857.0 C 9341.0,8865.0 9342.0,8873.0 9351.0,8888.0 C 9361.0,8904.0 9361.0,8914.0 9352.0,8934.0 C 9338.0,8965.0 9354.0,8970.0 9386.0,8945.0 C 9414.0,8924.0 9432.0,8927.0 9456.0,8958.0 C 9476.0,8982.0 9481.0,8983.0 9499.0,8973.0 C 9533.0,8952.0 9542.0,8957.0 9535.0,8990.0 C 9530.0,9014.0 9532.0,9020.0 9546.0,9020.0 C 9560.0,9020.0 9562.0,9013.0 9557.0,8980.0 C 9552.0,8941.0 9553.0,8940.0 9581.0,8940.0 C 9603.0,8940.0 9610.0,8945.0 9610.0,8959.0 C 9610.0,8969.0 9616.0,8980.0 9624.0,8983.0 C 9632.0,8986.0 9641.0,8999.0 9643.0,9012.0 C 9646.0,9025.0 9647.0,9018.0 9646.0,8998.0 C 9644.0,8978.0 9638.0,8955.0 9632.0,8948.0 C 9623.0,8937.0 9626.0,8928.0 9646.0,8907.0 C 9672.0,8879.0 9707.0,8872.0 9741.0,8890.0 C 9767.0,8904.0 9765.0,8922.0 9735.0,8958.0 C 9708.0,8990.0 9704.0,9011.0 9720.0,9040.0 C 9735.0,9068.0 9684.0,9170.0 9655.0,9170.0 C 9602.0,9170.0 9590.0,9181.0 9590.0,9224.0 C 9590.0,9251.0 9579.0,9284.0 9559.0,9320.0 C 9543.0,9350.0 9524.0,9405.0 9518.0,9441.0 C 9510.0,9487.0 9500.0,9511.0 9487.0,9519.0 C 9456.0,9539.0 9437.0,9515.0 9443.0,9463.0 C 9447.0,9428.0 9443.0,9417.0 9424.0,9399.0 C 9393.0,9370.0 9381.0,9381.0 9372.0,9446.0 C 9366.0,9486.0 9361.0,9495.0 9344.0,9495.0 C 9319.0,9495.0 9180.0,9618.0 9180.0,9641.0 C 9180.0,9651.0 9169.0,9667.0 9157.0,9677.0 C 9119.0,9707.0 9111.0,9732.0 9104.0,9839.0 C 9097.0,9933.0 9099.0,9943.0 9121.0,9985.0 C 9145.0,10031.0 9145.0,10031.0 9125.0,10047.0 C 9109.0,10059.0 9087.0,10061.0 9020.0,10057.0 C 8973.0,10055.0 8929.0,10055.0 8923.0,10057.0 C 8907.0,10063.0 8906.0,10090.0 8921.0,10090.0 C 8928.0,10090.0 8930.0,10100.0 8926.0,10116.0 C 8922.0,10130.0 8924.0,10148.0 8930.0,10155.0 C 8961.0,10192.0 8894.0,10216.0 8846.0,10185.0 C 8828.0,10173.0 8809.0,10171.0 8754.0,10177.0 C 8696.0,10184.0 8685.0,10188.0 8681.0,10205.0 C 8675.0,10240.0 8645.0,10248.0 8603.0,10228.0 M 9670.0,9075.0 C 9670.0,9074.0 9663.0,9067.0 9655.0,9060.0 C 9642.0,9050.0 9640.0,9051.0 9640.0,9068.0 C 9640.0,9083.0 9645.0,9088.0 9655.0,9084.0 C 9663.0,9080.0 9670.0,9077.0 9670.0,9075.0 M 2225.0,190.0 C 2228.0,185.0 2227.0,180.0 2222.0,180.0 C 2217.0,180.0 2197.0,177.0 2179.0,174.0 C 2145.0,168.0 2145.0,168.0 2170.0,183.0 C 2200.0,201.0 2217.0,203.0 2225.0,190.0" fill="pink"/>
	<path d="M 1442.0,3670.0 C 1436.0,3654.0 1420.0,3635.0 1406.0,3629.0 C 1378.0,3616.0 1363.0,3590.0 1385.0,3590.0 C 1406.0,3590.0 1415.0,3549.0 1396.0,3538.0 C 1377.0,3527.0 1374.0,3480.0 1393.0,3480.0 C 1400.0,3480.0 1426.0,3500.0 1450.0,3525.0 C 1474.0,3550.0 1500.0,3570.0 1507.0,3570.0 C 1526.0,3570.0 1523.0,3600.0 1503.0,3623.0 C 1486.0,3641.0 1486.0,3642.0 1503.0,3655.0 C 1526.0,3672.0 1524.0,3686.0 1498.0,3694.0 C 1459.0,3704.0 1452.0,3701.0 1442.0,3670.0" fill="pink"/>
	<path d="M 1068.0,3617.0 C 1033.0,3589.0 1033.0,3580.0 1067.0,3580.0 C 1081.0,3580.0 1102.0,3573.0 1112.0,3563.0 C 1129.0,3548.0 1131.0,3548.0 1150.0,3565.0 C 1209.0,3618.0 1130.0,3668.0 1068.0,3617.0" fill="pink"/>
	<path d="M 1168.0,3559.0 C 1146.0,3547.0 1144.0,3500.0 1165.0,3500.0 C 1173.0,3500.0 1182.0,3511.0 1186.0,3525.0 C 1195.0,3560.0 1189.0,3571.0 1168.0,3559.0" fill="pink"/>
	<path d="M 1288.0,1669.0 C 1268.0,1655.0 1260.0,1639.0 1260.0,1619.0 C 1260.0,1587.0 1274.0,1581.0 1288.0,1606.0 C 1298.0,1625.0 1362.0,1617.0 1381.0,1594.0 C 1387.0,1586.0 1399.0,1580.0 1406.0,1580.0 C 1428.0,1580.0 1422.0,1620.0 1394.0,1657.0 C 1364.0,1696.0 1329.0,1700.0 1288.0,1669.0" fill="pink"/>
</svg>
