<?xml version="1.0" ?>
<svg xmlns="http://www.w3.org/2000/svg" xmlns:ev="http://www.w3.org/2001/xml-events" xmlns:xlink="http://www.w3.org/1999/xlink" baseProfile="full" height="600px" version="1.1" viewBox="1731.7068823175928 -1028.98794 6774.3622712780525 12298.095879999999" width="331px">
	<defs/>
	<path d="M 6039.0,10223.0 C 6029.0,10212.0 6025.0,10177.0 6024.0,10111.0 C 6024.0,9999.0 6003.0,9935.0 5944.0,9863.0 C 5863.0,9764.0 5676.0,9640.0 5608.0,9640.0 C 5593.0,9640.0 5537.0,9650.0 5483.0,9661.0 L 5386.0,9683.0 L 5332.0,9655.0 C 5275.0,9625.0 5264.0,9626.0 5208.0,9672.0 L 5180.0,9694.0 L 5079.0,9676.0 C 4981.0,9659.0 4975.0,9659.0 4924.0,9676.0 L 4871.0,9694.0 L 4816.0,9657.0 C 4785.0,9637.0 4755.0,9620.0 4749.0,9620.0 C 4743.0,9620.0 4706.0,9634.0 4667.0,9651.0 C 4599.0,9681.0 4593.0,9682.0 4550.0,9670.0 C 4470.0,9648.0 4459.0,9647.0 4418.0,9666.0 C 4378.0,9684.0 4377.0,9684.0 4316.0,9662.0 C 4283.0,9650.0 4243.0,9640.0 4228.0,9640.0 C 4194.0,9640.0 4026.0,9509.0 3986.0,9452.0 C 3971.0,9430.0 3956.0,9393.0 3953.0,9370.0 C 3948.0,9333.0 3940.0,9322.0 3885.0,9279.0 C 3831.0,9237.0 3820.0,9222.0 3800.0,9168.0 C 3768.0,9080.0 3673.0,8987.0 3592.0,8964.0 C 3560.0,8955.0 3531.0,8942.0 3525.0,8936.0 C 3520.0,8929.0 3516.0,8886.0 3518.0,8842.0 L 3522.0,8760.0 L 3548.0,8766.0 L 3575.0,8773.0 L 3542.0,8738.0 L 3509.0,8703.0 L 3516.0,8624.0 C 3519.0,8579.0 3517.0,8525.0 3511.0,8500.0 L 3501.0,8455.0 L 3562.0,8398.0 C 3596.0,8366.0 3627.0,8340.0 3632.0,8340.0 C 3636.0,8340.0 3640.0,8336.0 3640.0,8330.0 C 3640.0,8311.0 3611.0,8320.0 3547.0,8360.0 C 3512.0,8382.0 3478.0,8412.0 3472.0,8426.0 C 3465.0,8440.0 3460.0,8482.0 3460.0,8520.0 C 3460.0,8559.0 3457.0,8590.0 3453.0,8590.0 C 3448.0,8589.0 3434.0,8583.0 3420.0,8575.0 C 3387.0,8556.0 3346.0,8556.0 3309.0,8575.0 C 3282.0,8589.0 3279.0,8589.0 3273.0,8574.0 C 3257.0,8531.0 3287.0,8395.0 3338.0,8280.0 C 3366.0,8217.0 3392.0,8148.0 3395.0,8128.0 C 3401.0,8096.0 3406.0,8090.0 3427.0,8090.0 C 3452.0,8090.0 3452.0,8090.0 3416.0,8050.0 C 3396.0,8028.0 3380.0,8007.0 3380.0,8002.0 C 3380.0,7998.0 3396.0,7984.0 3416.0,7970.0 C 3449.0,7948.0 3452.0,7943.0 3447.0,7908.0 C 3442.0,7868.0 3454.0,7850.0 3473.0,7869.0 C 3488.0,7884.0 3500.0,7883.0 3538.0,7860.0 L 3571.0,7840.0 L 3551.0,7811.0 C 3539.0,7795.0 3530.0,7776.0 3530.0,7768.0 C 3530.0,7760.0 3559.0,7738.0 3595.0,7719.0 C 3665.0,7682.0 3673.0,7665.0 3619.0,7666.0 C 3600.0,7666.0 3583.0,7664.0 3580.0,7661.0 C 3569.0,7648.0 3498.0,7620.0 3490.0,7625.0 C 3479.0,7632.0 3473.0,7560.0 3478.0,7488.0 C 3482.0,7439.0 3485.0,7431.0 3497.0,7441.0 C 3522.0,7463.0 3534.0,7437.0 3522.0,7388.0 L 3511.0,7345.0 L 3563.0,7403.0 C 3619.0,7466.0 3653.0,7476.0 3698.0,7444.0 C 3729.0,7422.0 3726.0,7405.0 3681.0,7370.0 C 3645.0,7341.0 3643.0,7336.0 3647.0,7296.0 C 3651.0,7268.0 3647.0,7243.0 3636.0,7222.0 C 3619.0,7190.0 3619.0,7190.0 3646.0,7190.0 C 3660.0,7190.0 3685.0,7182.0 3701.0,7173.0 C 3726.0,7158.0 3728.0,7154.0 3715.0,7140.0 C 3702.0,7126.0 3708.0,7117.0 3763.0,7059.0 C 3845.0,6973.0 3858.0,6966.0 3901.0,6988.0 C 3928.0,7001.0 3936.0,7012.0 3938.0,7038.0 C 3941.0,7072.0 3949.0,7077.0 3968.0,7058.0 C 3987.0,7039.0 3982.0,6995.0 3957.0,6972.0 C 3945.0,6960.0 3904.0,6937.0 3868.0,6920.0 C 3799.0,6890.0 3777.0,6867.0 3765.0,6817.0 C 3753.0,6771.0 3741.0,6777.0 3725.0,6837.0 C 3689.0,6964.0 3668.0,7018.0 3642.0,7049.0 C 3618.0,7078.0 3605.0,7084.0 3550.0,7092.0 C 3492.0,7100.0 3484.0,7099.0 3472.0,7082.0 C 3460.0,7064.0 3458.0,7065.0 3422.0,7099.0 C 3401.0,7119.0 3351.0,7155.0 3311.0,7179.0 L 3238.0,7222.0 L 3210.0,7189.0 C 3180.0,7152.0 3181.0,7143.0 3223.0,7098.0 C 3241.0,7079.0 3244.0,7070.0 3235.0,7066.0 C 3227.0,7063.0 3220.0,7051.0 3218.0,7038.0 C 3215.0,7018.0 3211.0,7021.0 3187.0,7062.0 C 3155.0,7118.0 3135.0,7130.0 3083.0,7130.0 C 3041.0,7129.0 2969.0,7102.0 3005.0,7101.0 C 3037.0,7100.0 3072.0,7070.0 3065.0,7052.0 C 3061.0,7041.0 3071.0,7025.0 3097.0,7004.0 L 3135.0,6972.0 L 3117.0,6936.0 C 3108.0,6915.0 3086.0,6891.0 3070.0,6882.0 C 3054.0,6873.0 3040.0,6860.0 3040.0,6855.0 C 3040.0,6849.0 3033.0,6834.0 3024.0,6822.0 C 3010.0,6801.0 3006.0,6800.0 2991.0,6814.0 C 2976.0,6827.0 2975.0,6825.0 2975.0,6792.0 C 2975.0,6752.0 2952.0,6738.0 2925.0,6760.0 C 2902.0,6779.0 2905.0,6864.0 2929.0,6881.0 C 2947.0,6895.0 2947.0,6896.0 2930.0,6935.0 L 2913.0,6975.0 L 2890.0,6923.0 C 2861.0,6857.0 2811.0,6841.0 2794.0,6892.0 C 2790.0,6905.0 2785.0,6909.0 2779.0,6903.0 C 2773.0,6897.0 2774.0,6883.0 2782.0,6866.0 C 2792.0,6842.0 2792.0,6837.0 2777.0,6829.0 C 2755.0,6816.0 2755.0,6803.0 2779.0,6795.0 C 2802.0,6788.0 2814.0,6760.0 2801.0,6747.0 C 2794.0,6740.0 2782.0,6741.0 2764.0,6749.0 C 2740.0,6760.0 2734.0,6758.0 2708.0,6733.0 C 2667.0,6694.0 2658.0,6674.0 2666.0,6637.0 L 2672.0,6606.0 L 2687.0,6633.0 C 2701.0,6661.0 2701.0,6661.0 2731.0,6643.0 C 2776.0,6616.0 2793.0,6594.0 2785.0,6571.0 C 2780.0,6555.0 2770.0,6550.0 2744.0,6550.0 C 2720.0,6550.0 2710.0,6545.0 2710.0,6535.0 C 2710.0,6511.0 2734.0,6517.0 2791.0,6555.0 C 2847.0,6593.0 2870.0,6594.0 2870.0,6559.0 C 2870.0,6547.0 2886.0,6520.0 2905.0,6499.0 C 2943.0,6457.0 2950.0,6419.0 2925.0,6386.0 C 2906.0,6361.0 2906.0,6330.0 2925.0,6330.0 C 2952.0,6330.0 2972.0,6271.0 2977.0,6172.0 C 2982.0,6093.0 2987.0,6071.0 3008.0,6039.0 C 3030.0,6005.0 3038.0,6000.0 3072.0,6000.0 C 3096.0,6000.0 3110.0,6005.0 3110.0,6013.0 C 3110.0,6019.0 3078.0,6131.0 3040.0,6260.0 C 2973.0,6486.0 2959.0,6552.0 2979.0,6565.0 C 2999.0,6577.0 3020.0,6526.0 3020.0,6467.0 C 3020.0,6429.0 3024.0,6408.0 3033.0,6406.0 C 3039.0,6404.0 3059.0,6398.0 3077.0,6393.0 C 3113.0,6381.0 3120.0,6389.0 3120.0,6444.0 C 3120.0,6480.0 3144.0,6520.0 3166.0,6520.0 C 3180.0,6520.0 3185.0,6486.0 3183.0,6418.0 C 3182.0,6402.0 3186.0,6390.0 3191.0,6390.0 C 3206.0,6390.0 3201.0,6368.0 3184.0,6355.0 C 3169.0,6345.0 3170.0,6337.0 3189.0,6269.0 C 3201.0,6227.0 3210.0,6166.0 3210.0,6132.0 C 3210.0,6086.0 3214.0,6068.0 3225.0,6064.0 C 3243.0,6057.0 3244.0,6028.0 3228.0,5982.0 C 3217.0,5953.0 3217.0,5946.0 3228.0,5942.0 C 3248.0,5936.0 3310.0,5880.0 3310.0,5868.0 C 3310.0,5863.0 3297.0,5854.0 3280.0,5849.0 C 3263.0,5843.0 3250.0,5834.0 3250.0,5828.0 C 3250.0,5823.0 3264.0,5799.0 3280.0,5776.0 L 3311.0,5734.0 L 3290.0,5626.0 C 3278.0,5566.0 3270.0,5517.0 3272.0,5515.0 C 3274.0,5514.0 3293.0,5503.0 3315.0,5492.0 C 3372.0,5464.0 3440.0,5388.0 3440.0,5353.0 C 3441.0,5314.0 3504.0,5230.0 3532.0,5230.0 C 3544.0,5230.0 3566.0,5242.0 3581.0,5256.0 C 3607.0,5281.0 3770.0,5345.0 3770.0,5330.0 C 3770.0,5316.0 3723.0,5280.0 3677.0,5260.0 C 3650.0,5248.0 3626.0,5232.0 3623.0,5224.0 C 3614.0,5200.0 3589.0,5192.0 3449.0,5170.0 C 3375.0,5158.0 3313.0,5146.0 3311.0,5144.0 C 3309.0,5142.0 3329.0,5136.0 3354.0,5129.0 C 3408.0,5116.0 3423.0,5095.0 3418.0,5042.0 C 3415.0,5010.0 3418.0,5005.0 3437.0,5002.0 C 3449.0,5000.0 3473.0,5006.0 3491.0,5015.0 C 3519.0,5030.0 3531.0,5030.0 3581.0,5020.0 C 3635.0,5008.0 3641.0,5009.0 3674.0,5029.0 C 3694.0,5042.0 3719.0,5050.0 3731.0,5048.0 C 3751.0,5045.0 3749.0,5041.0 3707.0,4998.0 C 3669.0,4958.0 3654.0,4950.0 3612.0,4944.0 C 3539.0,4935.0 3529.0,4925.0 3564.0,4895.0 C 3580.0,4882.0 3611.0,4864.0 3632.0,4854.0 C 3665.0,4839.0 3670.0,4833.0 3670.0,4803.0 C 3670.0,4765.0 3657.0,4761.0 3620.0,4790.0 C 3601.0,4805.0 3579.0,4810.0 3523.0,4810.0 L 3451.0,4810.0 L 3430.0,4763.0 C 3404.0,4703.0 3359.0,4656.0 3303.0,4629.0 C 3259.0,4608.0 3180.0,4528.0 3180.0,4504.0 C 3180.0,4497.0 3192.0,4478.0 3206.0,4461.0 C 3236.0,4425.0 3255.0,4423.0 3342.0,4446.0 C 3419.0,4465.0 3448.0,4462.0 3473.0,4428.0 C 3494.0,4399.0 3490.0,4356.0 3468.0,4378.0 C 3450.0,4396.0 3423.0,4392.0 3407.0,4370.0 C 3397.0,4355.0 3375.0,4348.0 3323.0,4341.0 C 3284.0,4336.0 3244.0,4327.0 3233.0,4322.0 C 3204.0,4306.0 3164.0,4250.0 3124.0,4168.0 C 3097.0,4112.0 3090.0,4087.0 3094.0,4060.0 C 3098.0,4032.0 3095.0,4022.0 3081.0,4013.0 C 3070.0,4006.0 3055.0,3979.0 3046.0,3953.0 C 3037.0,3927.0 3009.0,3874.0 2985.0,3836.0 C 2960.0,3798.0 2940.0,3762.0 2940.0,3756.0 C 2940.0,3749.0 2947.0,3734.0 2956.0,3721.0 C 2969.0,3702.0 2979.0,3699.0 3005.0,3703.0 C 3037.0,3708.0 3038.0,3707.0 3044.0,3668.0 C 3049.0,3635.0 3063.0,3615.0 3112.0,3568.0 L 3173.0,3508.0 L 3161.0,3470.0 C 3149.0,3431.0 3101.0,3370.0 3081.0,3370.0 C 3067.0,3370.0 3067.0,3387.0 3080.0,3395.0 C 3094.0,3404.0 3049.0,3480.0 3030.0,3480.0 C 3021.0,3480.0 3004.0,3487.0 2992.0,3496.0 C 2974.0,3508.0 2970.0,3521.0 2970.0,3562.0 C 2970.0,3602.0 2967.0,3610.0 2957.0,3602.0 C 2950.0,3596.0 2925.0,3590.0 2900.0,3588.0 C 2857.0,3585.0 2844.0,3574.0 2827.0,3526.0 C 2825.0,3521.0 2815.0,3523.0 2804.0,3530.0 C 2779.0,3546.0 2718.0,3536.0 2699.0,3514.0 C 2688.0,3501.0 2692.0,3493.0 2726.0,3465.0 C 2747.0,3446.0 2775.0,3431.0 2787.0,3430.0 C 2800.0,3430.0 2819.0,3421.0 2831.0,3409.0 L 2852.0,3388.0 L 2874.0,3409.0 C 2886.0,3421.0 2906.0,3430.0 2918.0,3430.0 C 2936.0,3430.0 2940.0,3436.0 2940.0,3461.0 C 2940.0,3485.0 2943.0,3491.0 2956.0,3486.0 C 2965.0,3483.0 2974.0,3480.0 2976.0,3480.0 C 2978.0,3480.0 2980.0,3464.0 2980.0,3445.0 C 2980.0,3412.0 2982.0,3410.0 3014.0,3410.0 C 3036.0,3410.0 3050.0,3404.0 3054.0,3394.0 C 3061.0,3375.0 3062.0,3377.0 3033.0,3361.0 C 3018.0,3353.0 3010.0,3340.0 3010.0,3322.0 C 3010.0,3296.0 3012.0,3295.0 3054.0,3298.0 L 3098.0,3302.0 L 3084.0,3243.0 C 3066.0,3166.0 3067.0,3128.0 3087.0,3085.0 L 3104.0,3050.0 L 3067.0,3012.0 C 3047.0,2991.0 3030.0,2964.0 3030.0,2952.0 C 3030.0,2925.0 3031.0,2925.0 3080.0,2950.0 C 3129.0,2975.0 3141.0,2975.0 3191.0,2950.0 L 3231.0,2929.0 L 3250.0,2952.0 L 3269.0,2975.0 L 3270.0,2944.0 C 3270.0,2914.0 3245.0,2880.0 3223.0,2880.0 C 3217.0,2880.0 3207.0,2887.0 3200.0,2895.0 C 3193.0,2903.0 3173.0,2910.0 3156.0,2910.0 C 3116.0,2910.0 3033.0,2873.0 3046.0,2861.0 C 3051.0,2856.0 3088.0,2842.0 3128.0,2830.0 C 3201.0,2809.0 3240.0,2783.0 3240.0,2755.0 C 3240.0,2747.0 3249.0,2736.0 3260.0,2730.0 C 3292.0,2713.0 3283.0,2700.0 3240.0,2700.0 C 3218.0,2700.0 3200.0,2696.0 3200.0,2690.0 C 3200.0,2685.0 3194.0,2680.0 3186.0,2680.0 C 3173.0,2680.0 3160.0,2706.0 3145.0,2758.0 C 3142.0,2770.0 3131.0,2780.0 3122.0,2780.0 C 3113.0,2780.0 3096.0,2783.0 3085.0,2786.0 C 3069.0,2790.0 3061.0,2783.0 3047.0,2755.0 C 3020.0,2698.0 3025.0,2686.0 3096.0,2629.0 C 3173.0,2568.0 3170.0,2547.0 3088.0,2578.0 C 3022.0,2602.0 2997.0,2637.0 2980.0,2727.0 C 2964.0,2812.0 2945.0,2860.0 2927.0,2860.0 C 2910.0,2860.0 2870.0,2756.0 2870.0,2713.0 C 2870.0,2696.0 2879.0,2671.0 2891.0,2656.0 C 2904.0,2640.0 2910.0,2621.0 2907.0,2608.0 C 2899.0,2580.0 2938.0,2543.0 2984.0,2535.0 C 3005.0,2530.0 3029.0,2517.0 3041.0,2502.0 C 3056.0,2482.0 3063.0,2479.0 3069.0,2489.0 C 3080.0,2507.0 3112.0,2496.0 3149.0,2460.0 C 3175.0,2437.0 3180.0,2424.0 3180.0,2387.0 C 3180.0,2363.0 3183.0,2328.0 3186.0,2311.0 C 3192.0,2285.0 3197.0,2280.0 3221.0,2280.0 C 3247.0,2280.0 3250.0,2277.0 3250.0,2246.0 C 3250.0,2227.0 3245.0,2208.0 3240.0,2205.0 C 3234.0,2202.0 3223.0,2185.0 3214.0,2169.0 C 3200.0,2140.0 3200.0,2140.0 3218.0,2151.0 C 3254.0,2173.0 3270.0,2156.0 3270.0,2095.0 C 3270.0,2065.0 3272.0,2040.0 3275.0,2040.0 C 3278.0,2040.0 3294.0,2050.0 3310.0,2061.0 C 3326.0,2073.0 3345.0,2080.0 3354.0,2077.0 C 3375.0,2069.0 3382.0,2084.0 3389.0,2154.0 L 3395.0,2215.0 L 3461.0,2250.0 C 3543.0,2293.0 3560.0,2308.0 3553.0,2326.0 C 3550.0,2333.0 3555.0,2343.0 3564.0,2346.0 C 3594.0,2358.0 3621.0,2428.0 3627.0,2509.0 C 3634.0,2607.0 3642.0,2622.0 3663.0,2577.0 C 3675.0,2552.0 3680.0,2515.0 3680.0,2446.0 L 3680.0,2351.0 L 3717.0,2325.0 C 3761.0,2296.0 3786.0,2293.0 3812.0,2317.0 C 3827.0,2330.0 3835.0,2331.0 3856.0,2322.0 C 3889.0,2306.0 3887.0,2306.0 3895.0,2340.0 C 3900.0,2365.0 3906.0,2370.0 3921.0,2365.0 C 3938.0,2359.0 3940.0,2364.0 3940.0,2418.0 C 3940.0,2464.0 3944.0,2481.0 3960.0,2495.0 C 3975.0,2509.0 3977.0,2516.0 3968.0,2527.0 C 3960.0,2537.0 3960.0,2547.0 3969.0,2566.0 C 3975.0,2580.0 3980.0,2599.0 3980.0,2609.0 C 3980.0,2621.0 4005.0,2644.0 4047.0,2671.0 C 4085.0,2695.0 4132.0,2730.0 4152.0,2748.0 C 4184.0,2777.0 4192.0,2780.0 4211.0,2770.0 C 4245.0,2751.0 4276.0,2772.0 4305.0,2834.0 C 4337.0,2901.0 4352.0,2908.0 4383.0,2869.0 L 4406.0,2839.0 L 4432.0,2860.0 C 4467.0,2887.0 4477.0,2885.0 4495.0,2850.0 C 4514.0,2813.0 4514.0,2777.0 4494.0,2734.0 C 4480.0,2705.0 4473.0,2700.0 4444.0,2700.0 C 4411.0,2700.0 4410.0,2701.0 4410.0,2740.0 C 4410.0,2762.0 4406.0,2780.0 4400.0,2780.0 C 4383.0,2780.0 4357.0,2717.0 4356.0,2673.0 C 4355.0,2633.0 4353.0,2630.0 4328.0,2630.0 C 4308.0,2630.0 4300.0,2635.0 4299.0,2648.0 C 4299.0,2658.0 4292.0,2651.0 4282.0,2629.0 C 4273.0,2610.0 4246.0,2572.0 4223.0,2545.0 C 4199.0,2519.0 4180.0,2494.0 4180.0,2490.0 C 4180.0,2487.0 4191.0,2473.0 4205.0,2460.0 C 4229.0,2438.0 4233.0,2437.0 4263.0,2449.0 C 4344.0,2482.0 4356.0,2477.0 4437.0,2375.0 L 4468.0,2335.0 L 4492.0,2356.0 C 4504.0,2368.0 4534.0,2387.0 4557.0,2399.0 C 4592.0,2417.0 4630.0,2461.0 4630.0,2485.0 C 4630.0,2488.0 4617.0,2490.0 4600.0,2490.0 C 4571.0,2490.0 4560.0,2503.0 4580.0,2515.0 C 4586.0,2518.0 4590.0,2526.0 4590.0,2531.0 C 4590.0,2537.0 4577.0,2532.0 4561.0,2520.0 C 4529.0,2498.0 4526.0,2500.0 4516.0,2542.0 C 4511.0,2564.0 4515.0,2573.0 4534.0,2585.0 C 4556.0,2600.0 4561.0,2599.0 4604.0,2578.0 C 4643.0,2560.0 4654.0,2558.0 4670.0,2568.0 C 4686.0,2578.0 4691.0,2577.0 4700.0,2560.0 C 4717.0,2529.0 4750.0,2551.0 4750.0,2593.0 C 4750.0,2620.0 4745.0,2628.0 4719.0,2637.0 C 4696.0,2646.0 4690.0,2653.0 4694.0,2668.0 C 4699.0,2682.0 4688.0,2695.0 4646.0,2724.0 C 4608.0,2750.0 4589.0,2770.0 4585.0,2791.0 C 4581.0,2807.0 4574.0,2822.0 4569.0,2825.0 C 4552.0,2836.0 4560.0,2867.0 4583.0,2883.0 C 4605.0,2898.0 4605.0,2898.0 4585.0,2914.0 C 4565.0,2930.0 4565.0,2930.0 4586.0,2948.0 L 4607.0,2965.0 L 4578.0,2994.0 C 4546.0,3026.0 4547.0,3038.0 4580.0,3020.0 C 4599.0,3010.0 4607.0,3012.0 4632.0,3030.0 C 4653.0,3046.0 4672.0,3051.0 4703.0,3048.0 C 4744.0,3045.0 4745.0,3046.0 4748.0,3078.0 C 4750.0,3095.0 4755.0,3110.0 4759.0,3110.0 C 4763.0,3110.0 4781.0,3095.0 4799.0,3076.0 C 4828.0,3046.0 4832.0,3037.0 4826.0,3008.0 C 4821.0,2980.0 4823.0,2973.0 4842.0,2965.0 C 4862.0,2956.0 4909.0,2888.0 4910.0,2868.0 C 4910.0,2865.0 4899.0,2848.0 4885.0,2832.0 C 4867.0,2810.0 4864.0,2800.0 4873.0,2791.0 C 4882.0,2782.0 4882.0,2775.0 4872.0,2760.0 C 4866.0,2749.0 4860.0,2727.0 4860.0,2710.0 C 4860.0,2684.0 4864.0,2680.0 4888.0,2680.0 C 4903.0,2680.0 4926.0,2673.0 4938.0,2664.0 C 4964.0,2646.0 4964.0,2646.0 4945.0,2721.0 C 4928.0,2787.0 4931.0,2798.0 4978.0,2844.0 L 5009.0,2872.0 L 5036.0,2851.0 C 5086.0,2812.0 5140.0,2835.0 5140.0,2896.0 C 5140.0,2912.0 5147.0,2950.0 5155.0,2980.0 C 5163.0,3010.0 5170.0,3041.0 5170.0,3048.0 C 5170.0,3063.0 5074.0,3065.0 5065.0,3050.0 C 5056.0,3036.0 4984.0,3000.0 4965.0,3000.0 C 4944.0,3000.0 4889.0,3089.0 4891.0,3120.0 C 4892.0,3134.0 4889.0,3153.0 4885.0,3163.0 C 4870.0,3198.0 4895.0,3205.0 4949.0,3181.0 C 4976.0,3170.0 5004.0,3160.0 5011.0,3160.0 C 5018.0,3160.0 5046.0,3185.0 5075.0,3215.0 C 5132.0,3276.0 5154.0,3282.0 5200.0,3248.0 C 5228.0,3228.0 5231.0,3228.0 5248.0,3243.0 C 5270.0,3263.0 5297.0,3265.0 5302.0,3248.0 C 5311.0,3222.0 5359.0,3258.0 5385.0,3311.0 L 5411.0,3362.0 L 5431.0,3341.0 C 5445.0,3326.0 5463.0,3320.0 5495.0,3320.0 C 5548.0,3320.0 5553.0,3334.0 5514.0,3380.0 C 5484.0,3416.0 5492.0,3440.0 5528.0,3421.0 C 5561.0,3404.0 5567.0,3408.0 5574.0,3450.0 C 5578.0,3478.0 5585.0,3490.0 5596.0,3490.0 C 5610.0,3490.0 5611.0,3483.0 5605.0,3452.0 C 5601.0,3432.0 5598.0,3404.0 5599.0,3390.0 C 5602.0,3351.0 5602.0,3267.0 5598.0,3240.0 C 5595.0,3217.0 5599.0,3215.0 5644.0,3209.0 C 5681.0,3205.0 5698.0,3197.0 5714.0,3177.0 C 5726.0,3162.0 5745.0,3150.0 5757.0,3150.0 C 5785.0,3150.0 5830.0,3187.0 5830.0,3211.0 C 5830.0,3227.0 5837.0,3230.0 5881.0,3230.0 C 5928.0,3230.0 5932.0,3228.0 5942.0,3200.0 C 5954.0,3165.0 5974.0,3165.0 5978.0,3201.0 C 5982.0,3233.0 6001.0,3280.0 6010.0,3280.0 C 6030.0,3280.0 6080.0,3195.0 6080.0,3160.0 C 6080.0,3142.0 6076.0,3140.0 6045.0,3146.0 C 6015.0,3151.0 6010.0,3149.0 6010.0,3134.0 C 6010.0,3119.0 6018.0,3115.0 6043.0,3115.0 C 6060.0,3115.0 6094.0,3111.0 6116.0,3107.0 L 6157.0,3100.0 L 6169.0,3161.0 C 6178.0,3204.0 6178.0,3225.0 6171.0,3234.0 C 6163.0,3244.0 6165.0,3252.0 6180.0,3265.0 C 6199.0,3282.0 6199.0,3283.0 6174.0,3303.0 C 6142.0,3328.0 6156.0,3340.0 6217.0,3340.0 C 6270.0,3340.0 6281.0,3357.0 6246.0,3387.0 C 6211.0,3417.0 6196.0,3416.0 6138.0,3379.0 C 6111.0,3362.0 6086.0,3350.0 6083.0,3354.0 C 6079.0,3357.0 6084.0,3376.0 6093.0,3395.0 C 6115.0,3441.0 6169.0,3468.0 6205.0,3452.0 C 6247.0,3433.0 6252.0,3438.0 6230.0,3480.0 C 6203.0,3533.0 6204.0,3539.0 6243.0,3537.0 C 6260.0,3536.0 6295.0,3539.0 6320.0,3543.0 C 6359.0,3549.0 6369.0,3547.0 6393.0,3525.0 C 6421.0,3500.0 6421.0,3499.0 6405.0,3474.0 C 6385.0,3443.0 6387.0,3441.0 6428.0,3452.0 C 6470.0,3463.0 6470.0,3485.0 6425.0,3574.0 C 6387.0,3648.0 6381.0,3699.0 6406.0,3724.0 C 6431.0,3750.0 6450.0,3744.0 6444.0,3713.0 C 6437.0,3676.0 6472.0,3596.0 6488.0,3612.0 C 6496.0,3620.0 6503.0,3620.0 6514.0,3611.0 C 6522.0,3604.0 6543.0,3600.0 6561.0,3602.0 C 6595.0,3605.0 6597.0,3603.0 6616.0,3531.0 C 6619.0,3522.0 6630.0,3520.0 6653.0,3524.0 C 6755.0,3543.0 6755.0,3543.0 6787.0,3516.0 C 6804.0,3502.0 6830.0,3490.0 6844.0,3490.0 C 6865.0,3490.0 6873.0,3498.0 6886.0,3530.0 C 6905.0,3577.0 6924.0,3573.0 6918.0,3523.0 C 6915.0,3495.0 6916.0,3491.0 6925.0,3503.0 C 6931.0,3512.0 6949.0,3520.0 6966.0,3522.0 C 6993.0,3525.0 6995.0,3522.0 6998.0,3490.0 C 7003.0,3441.0 7015.0,3433.0 7036.0,3466.0 C 7046.0,3482.0 7056.0,3497.0 7058.0,3500.0 C 7059.0,3502.0 7065.0,3498.0 7069.0,3491.0 C 7076.0,3480.0 7081.0,3483.0 7090.0,3501.0 C 7108.0,3535.0 7151.0,3580.0 7167.0,3580.0 C 7174.0,3580.0 7180.0,3571.0 7180.0,3560.0 C 7180.0,3549.0 7186.0,3540.0 7194.0,3540.0 C 7202.0,3540.0 7216.0,3537.0 7224.0,3534.0 C 7238.0,3528.0 7240.0,3535.0 7234.0,3584.0 L 7227.0,3640.0 L 7283.0,3640.0 C 7332.0,3640.0 7341.0,3643.0 7364.0,3671.0 C 7378.0,3688.0 7402.0,3722.0 7416.0,3747.0 C 7439.0,3784.0 7441.0,3795.0 7431.0,3813.0 C 7421.0,3831.0 7422.0,3842.0 7434.0,3865.0 C 7443.0,3882.0 7450.0,3905.0 7450.0,3918.0 C 7450.0,3933.0 7456.0,3940.0 7470.0,3940.0 C 7481.0,3940.0 7507.0,3956.0 7529.0,3975.0 C 7550.0,3994.0 7575.0,4010.0 7584.0,4010.0 C 7598.0,4010.0 7599.0,4014.0 7590.0,4030.0 C 7582.0,4045.0 7582.0,4060.0 7592.0,4085.0 C 7601.0,4111.0 7601.0,4130.0 7594.0,4159.0 C 7584.0,4195.0 7585.0,4199.0 7606.0,4209.0 C 7637.0,4223.0 7655.0,4287.0 7635.0,4310.0 C 7627.0,4319.0 7620.0,4334.0 7620.0,4343.0 C 7620.0,4374.0 7651.0,4348.0 7679.0,4292.0 L 7707.0,4237.0 L 7730.0,4321.0 C 7757.0,4418.0 7759.0,4462.0 7740.0,4506.0 C 7728.0,4535.0 7730.0,4546.0 7769.0,4650.0 C 7797.0,4726.0 7809.0,4772.0 7805.0,4789.0 C 7801.0,4808.0 7808.0,4832.0 7830.0,4870.0 C 7860.0,4926.0 7869.0,4975.0 7849.0,4982.0 C 7840.0,4985.0 7841.0,4992.0 7851.0,5007.0 C 7861.0,5024.0 7861.0,5034.0 7852.0,5055.0 C 7841.0,5078.0 7843.0,5084.0 7863.0,5103.0 C 7876.0,5115.0 7890.0,5141.0 7894.0,5160.0 C 7897.0,5179.0 7910.0,5213.0 7921.0,5235.0 C 7940.0,5270.0 7941.0,5280.0 7931.0,5318.0 C 7924.0,5341.0 7916.0,5360.0 7912.0,5360.0 C 7908.0,5360.0 7890.0,5339.0 7871.0,5315.0 C 7824.0,5251.0 7760.0,5190.0 7742.0,5190.0 C 7734.0,5190.0 7705.0,5212.0 7679.0,5239.0 C 7621.0,5298.0 7614.0,5334.0 7658.0,5352.0 C 7729.0,5382.0 7737.0,5416.0 7685.0,5456.0 C 7658.0,5476.0 7650.0,5490.0 7650.0,5514.0 C 7650.0,5532.0 7643.0,5555.0 7635.0,5566.0 C 7616.0,5591.0 7616.0,5610.0 7635.0,5624.0 C 7647.0,5633.0 7648.0,5642.0 7640.0,5670.0 C 7635.0,5689.0 7630.0,5736.0 7630.0,5774.0 C 7630.0,5833.0 7636.0,5855.0 7669.0,5929.0 C 7734.0,6069.0 7747.0,6206.0 7705.0,6290.0 C 7667.0,6365.0 7671.0,6402.0 7728.0,6484.0 C 7771.0,6547.0 7775.0,6557.0 7775.0,6614.0 C 7775.0,6663.0 7767.0,6693.0 7737.0,6763.0 C 7708.0,6829.0 7696.0,6874.0 7689.0,6938.0 C 7678.0,7052.0 7678.0,7167.0 7690.0,7209.0 C 7698.0,7238.0 7696.0,7248.0 7671.0,7284.0 C 7598.0,7390.0 7561.0,7495.0 7580.0,7541.0 C 7598.0,7584.0 7587.0,7610.0 7521.0,7678.0 C 7474.0,7727.0 7460.0,7749.0 7450.0,7792.0 C 7440.0,7832.0 7425.0,7857.0 7388.0,7896.0 C 7362.0,7924.0 7340.0,7953.0 7340.0,7961.0 C 7340.0,7969.0 7313.0,8016.0 7280.0,8065.0 C 7223.0,8150.0 7207.0,8190.0 7230.0,8190.0 C 7252.0,8190.0 7237.0,8217.0 7179.0,8277.0 C 7121.0,8337.0 7118.0,8343.0 7125.0,8376.0 C 7132.0,8417.0 7132.0,8417.0 6979.0,8596.0 C 6873.0,8720.0 6829.0,8780.0 6761.0,8890.0 C 6732.0,8937.0 6665.0,9035.0 6611.0,9107.0 C 6478.0,9291.0 6444.0,9349.0 6436.0,9411.0 C 6426.0,9486.0 6300.0,9778.0 6238.0,9868.0 C 6222.0,9892.0 6211.0,9918.0 6214.0,9925.0 C 6217.0,9933.0 6211.0,9944.0 6200.0,9950.0 C 6188.0,9956.0 6177.0,9980.0 6170.0,10017.0 C 6150.0,10112.0 6090.0,10240.0 6064.0,10240.0 C 6058.0,10240.0 6046.0,10233.0 6039.0,10223.0" fill="pink"/>
	<path d="M 3046.0,8678.0 C 3011.0,8647.0 2994.0,8561.0 3014.0,8521.0 C 3022.0,8506.0 3036.0,8488.0 3044.0,8481.0 C 3053.0,8474.0 3069.0,8452.0 3081.0,8433.0 L 3102.0,8399.0 L 3076.0,8371.0 C 3062.0,8356.0 3050.0,8335.0 3050.0,8323.0 C 3050.0,8287.0 3076.0,8276.0 3167.0,8275.0 C 3246.0,8273.0 3253.0,8275.0 3267.0,8297.0 C 3281.0,8319.0 3281.0,8330.0 3261.0,8436.0 C 3232.0,8592.0 3208.0,8654.0 3166.0,8680.0 C 3122.0,8706.0 3078.0,8706.0 3046.0,8678.0" fill="pink"/>
	<path d="M 2810.0,8654.0 C 2804.0,8640.0 2800.0,8619.0 2800.0,8608.0 C 2800.0,8592.0 2804.0,8589.0 2823.0,8595.0 C 2835.0,8598.0 2863.0,8606.0 2885.0,8611.0 C 2958.0,8629.0 2969.0,8654.0 2913.0,8669.0 C 2848.0,8687.0 2821.0,8683.0 2810.0,8654.0" fill="pink"/>
	<path d="M 2916.0,8541.0 C 2904.0,8522.0 2919.0,8474.0 2951.0,8430.0 C 2976.0,8395.0 2983.0,8391.0 3000.0,8400.0 C 3028.0,8415.0 3025.0,8442.0 2992.0,8471.0 C 2977.0,8485.0 2955.0,8509.0 2944.0,8525.0 C 2930.0,8544.0 2921.0,8549.0 2916.0,8541.0" fill="pink"/>
	<path d="M 3214.0,8103.0 C 3198.0,8083.0 3180.0,8075.0 3135.0,8069.0 C 3072.0,8061.0 3022.0,8025.0 3033.0,7996.0 C 3040.0,7980.0 3110.0,7940.0 3134.0,7940.0 C 3142.0,7940.0 3166.0,7960.0 3188.0,7985.0 C 3210.0,8010.0 3231.0,8030.0 3234.0,8030.0 C 3238.0,8030.0 3264.0,8040.0 3291.0,8051.0 C 3332.0,8069.0 3338.0,8075.0 3328.0,8087.0 C 3321.0,8095.0 3307.0,8106.0 3295.0,8110.0 C 3243.0,8129.0 3235.0,8128.0 3214.0,8103.0" fill="pink"/>
	<path d="M 3335.0,7649.0 C 3327.0,7637.0 3311.0,7530.0 3317.0,7530.0 C 3320.0,7530.0 3329.0,7537.0 3338.0,7546.0 C 3348.0,7557.0 3355.0,7559.0 3358.0,7551.0 C 3363.0,7537.0 3397.0,7537.0 3405.0,7551.0 C 3410.0,7558.0 3419.0,7555.0 3431.0,7544.0 C 3449.0,7528.0 3450.0,7528.0 3450.0,7544.0 C 3450.0,7561.0 3364.0,7660.0 3349.0,7660.0 C 3345.0,7660.0 3338.0,7655.0 3335.0,7649.0" fill="pink"/>
	<path d="M 3147.0,7643.0 C 3143.0,7640.0 3140.0,7624.0 3140.0,7608.0 C 3140.0,7576.0 3159.0,7571.0 3189.0,7597.0 C 3204.0,7609.0 3207.0,7618.0 3199.0,7632.0 C 3189.0,7650.0 3160.0,7656.0 3147.0,7643.0" fill="pink"/>
	<path d="M 2601.0,7608.0 C 2595.0,7591.0 2598.0,7578.0 2613.0,7558.0 C 2639.0,7523.0 2663.0,7522.0 2684.0,7555.0 C 2701.0,7580.0 2701.0,7581.0 2665.0,7595.0 C 2646.0,7604.0 2630.0,7615.0 2630.0,7620.0 C 2630.0,7639.0 2609.0,7630.0 2601.0,7608.0" fill="pink"/>
	<path d="M 2633.0,3585.0 C 2630.0,3576.0 2606.0,3558.0 2579.0,3544.0 C 2537.0,3523.0 2530.0,3515.0 2530.0,3491.0 C 2530.0,3452.0 2577.0,3416.0 2614.0,3426.0 C 2638.0,3432.0 2640.0,3437.0 2640.0,3483.0 C 2640.0,3522.0 2645.0,3539.0 2662.0,3557.0 C 2681.0,3577.0 2682.0,3582.0 2670.0,3590.0 C 2649.0,3604.0 2640.0,3602.0 2633.0,3585.0" fill="pink"/>
	<path d="M 2695.0,3426.0 L 2665.0,3413.0 L 2708.0,3400.0 C 2754.0,3386.0 2770.0,3392.0 2754.0,3417.0 C 2740.0,3440.0 2730.0,3441.0 2695.0,3426.0" fill="pink"/>
	<path d="M 6570.0,3351.0 C 6570.0,3314.0 6538.0,3275.0 6489.0,3250.0 C 6468.0,3239.0 6450.0,3227.0 6450.0,3224.0 C 6450.0,3221.0 6461.0,3205.0 6475.0,3188.0 C 6513.0,3143.0 6507.0,3113.0 6464.0,3132.0 C 6446.0,3141.0 6434.0,3140.0 6415.0,3130.0 C 6393.0,3118.0 6387.0,3119.0 6366.0,3139.0 C 6337.0,3166.0 6310.0,3161.0 6280.0,3123.0 C 6252.0,3087.0 6255.0,3069.0 6295.0,3030.0 C 6314.0,3011.0 6330.0,3001.0 6330.0,3006.0 C 6330.0,3012.0 6348.0,3027.0 6371.0,3039.0 L 6411.0,3062.0 L 6436.0,3039.0 C 6466.0,3011.0 6466.0,2999.0 6435.0,2962.0 C 6410.0,2932.0 6410.0,2931.0 6430.0,2925.0 C 6453.0,2918.0 6455.0,2908.0 6439.0,2879.0 C 6431.0,2862.0 6432.0,2856.0 6446.0,2845.0 C 6462.0,2834.0 6462.0,2830.0 6450.0,2815.0 C 6438.0,2801.0 6438.0,2797.0 6451.0,2789.0 C 6461.0,2783.0 6471.0,2788.0 6487.0,2808.0 C 6513.0,2839.0 6516.0,2860.0 6498.0,2879.0 C 6487.0,2889.0 6490.0,2896.0 6512.0,2915.0 C 6527.0,2928.0 6542.0,2950.0 6546.0,2964.0 C 6551.0,2986.0 6555.0,2988.0 6572.0,2979.0 C 6597.0,2965.0 6628.0,2976.0 6612.0,2992.0 C 6592.0,3012.0 6599.0,3043.0 6628.0,3066.0 L 6655.0,3088.0 L 6629.0,3083.0 C 6597.0,3077.0 6582.0,3104.0 6603.0,3129.0 C 6628.0,3157.0 6630.0,3203.0 6609.0,3249.0 C 6588.0,3298.0 6585.0,3331.0 6601.0,3347.0 C 6614.0,3360.0 6605.0,3380.0 6584.0,3380.0 C 6575.0,3380.0 6570.0,3370.0 6570.0,3351.0" fill="pink"/>
	<path d="M 2642.0,3362.0 C 2633.0,3355.0 2634.0,3349.0 2650.0,3335.0 C 2661.0,3325.0 2670.0,3311.0 2670.0,3303.0 C 2670.0,3296.0 2677.0,3290.0 2685.0,3290.0 C 2696.0,3290.0 2700.0,3301.0 2700.0,3330.0 C 2700.0,3365.0 2697.0,3370.0 2678.0,3370.0 C 2665.0,3370.0 2649.0,3366.0 2642.0,3362.0" fill="pink"/>
	<path d="M 2946.0,3255.0 C 2953.0,3231.0 2987.0,3194.0 2995.0,3202.0 C 2998.0,3205.0 3003.0,3223.0 3006.0,3241.0 C 3012.0,3274.0 3011.0,3275.0 2976.0,3275.0 C 2945.0,3275.0 2941.0,3272.0 2946.0,3255.0" fill="pink"/>
	<path d="M 2558.0,3202.0 C 2554.0,3187.0 2542.0,3178.0 2521.0,3174.0 C 2497.0,3169.0 2490.0,3162.0 2490.0,3144.0 C 2490.0,3132.0 2495.0,3118.0 2500.0,3115.0 C 2506.0,3112.0 2510.0,3100.0 2510.0,3089.0 C 2510.0,3066.0 2521.0,3065.0 2559.0,3085.0 C 2595.0,3103.0 2601.0,3135.0 2580.0,3185.0 C 2565.0,3220.0 2563.0,3222.0 2558.0,3202.0" fill="pink"/>
	<path d="M 5321.0,3173.0 C 5305.0,3153.0 5281.0,3118.0 5269.0,3095.0 L 5247.0,3053.0 L 5278.0,2985.0 C 5313.0,2912.0 5316.0,2894.0 5298.0,2888.0 C 5288.0,2884.0 5288.0,2878.0 5297.0,2857.0 C 5307.0,2835.0 5316.0,2830.0 5346.0,2830.0 C 5380.0,2830.0 5381.0,2831.0 5375.0,2859.0 C 5367.0,2897.0 5392.0,2922.0 5434.0,2918.0 C 5464.0,2915.0 5465.0,2913.0 5465.0,2868.0 C 5466.0,2815.0 5484.0,2785.0 5500.0,2810.0 C 5509.0,2823.0 5511.0,2823.0 5519.0,2810.0 C 5528.0,2798.0 5530.0,2798.0 5535.0,2812.0 C 5539.0,2821.0 5549.0,2826.0 5560.0,2823.0 C 5576.0,2819.0 5581.0,2829.0 5595.0,2894.0 C 5608.0,2952.0 5609.0,2974.0 5601.0,2984.0 C 5581.0,3007.0 5538.0,3009.0 5498.0,2989.0 C 5451.0,2965.0 5434.0,2965.0 5427.0,2990.0 C 5424.0,3003.0 5413.0,3010.0 5397.0,3010.0 C 5375.0,3010.0 5372.0,3015.0 5366.0,3062.0 C 5359.0,3110.0 5361.0,3116.0 5384.0,3133.0 C 5412.0,3153.0 5417.0,3179.0 5398.0,3198.0 C 5377.0,3219.0 5352.0,3211.0 5321.0,3173.0" fill="pink"/>
	<path d="M 2910.0,3153.0 C 2909.0,3117.0 2891.0,3093.0 2858.0,3085.0 C 2843.0,3081.0 2823.0,3069.0 2813.0,3058.0 C 2795.0,3037.0 2795.0,3037.0 2845.0,3044.0 C 2873.0,3048.0 2908.0,3058.0 2924.0,3066.0 C 2960.0,3083.0 2979.0,3071.0 2972.0,3034.0 C 2969.0,3018.0 2973.0,3004.0 2981.0,2999.0 C 3006.0,2984.0 3010.0,2989.0 3010.0,3034.0 C 3010.0,3075.0 3008.0,3079.0 2981.0,3085.0 C 2953.0,3091.0 2952.0,3093.0 2961.0,3118.0 C 2970.0,3140.0 2968.0,3147.0 2948.0,3162.0 C 2917.0,3186.0 2910.0,3184.0 2910.0,3153.0" fill="pink"/>
	<path d="M 5513.0,3158.0 C 5502.0,3145.0 5485.0,3123.0 5476.0,3108.0 C 5460.0,3083.0 5460.0,3080.0 5475.0,3056.0 C 5488.0,3037.0 5501.0,3030.0 5525.0,3030.0 C 5543.0,3030.0 5578.0,3027.0 5604.0,3024.0 C 5643.0,3018.0 5650.0,3020.0 5650.0,3034.0 C 5650.0,3043.0 5643.0,3053.0 5635.0,3056.0 C 5627.0,3060.0 5620.0,3068.0 5620.0,3075.0 C 5620.0,3081.0 5611.0,3095.0 5599.0,3106.0 C 5582.0,3122.0 5577.0,3122.0 5569.0,3110.0 C 5562.0,3099.0 5561.0,3108.0 5565.0,3138.0 C 5571.0,3175.0 5569.0,3180.0 5553.0,3180.0 C 5542.0,3180.0 5524.0,3170.0 5513.0,3158.0" fill="pink"/>
	<path d="M 6174.0,3086.0 C 6131.0,3050.0 6125.0,3041.0 6139.0,3033.0 C 6154.0,3023.0 6153.0,3021.0 6138.0,3003.0 C 6114.0,2977.0 6115.0,2959.0 6142.0,2925.0 C 6166.0,2894.0 6174.0,2901.0 6185.0,2966.0 C 6190.0,3000.0 6188.0,3009.0 6174.0,3014.0 C 6158.0,3020.0 6158.0,3022.0 6179.0,3033.0 C 6194.0,3041.0 6208.0,3061.0 6215.0,3088.0 C 6222.0,3111.0 6227.0,3130.0 6226.0,3129.0 C 6226.0,3129.0 6202.0,3109.0 6174.0,3086.0" fill="pink"/>
	<path d="M 2568.0,3020.0 C 2573.0,2987.0 2576.0,2985.0 2616.0,3000.0 C 2642.0,3010.0 2642.0,3011.0 2625.0,3030.0 C 2615.0,3041.0 2597.0,3050.0 2585.0,3050.0 C 2567.0,3050.0 2564.0,3045.0 2568.0,3020.0" fill="pink"/>
	<path d="M 2416.0,2943.0 C 2412.0,2938.0 2385.0,2930.0 2357.0,2925.0 C 2314.0,2916.0 2304.0,2911.0 2302.0,2891.0 C 2294.0,2838.0 2319.0,2803.0 2355.0,2816.0 C 2364.0,2820.0 2368.0,2830.0 2365.0,2844.0 C 2360.0,2861.0 2367.0,2869.0 2397.0,2885.0 C 2421.0,2898.0 2436.0,2913.0 2438.0,2928.0 C 2441.0,2950.0 2430.0,2957.0 2416.0,2943.0" fill="pink"/>
	<path d="M 2601.0,2868.0 C 2596.0,2855.0 2596.0,2841.0 2601.0,2836.0 C 2606.0,2830.0 2610.0,2818.0 2610.0,2808.0 C 2610.0,2787.0 2614.0,2786.0 2641.0,2803.0 C 2658.0,2813.0 2663.0,2812.0 2675.0,2797.0 C 2691.0,2774.0 2723.0,2778.0 2728.0,2803.0 C 2733.0,2826.0 2703.0,2860.0 2680.0,2860.0 C 2670.0,2860.0 2657.0,2867.0 2650.0,2875.0 C 2632.0,2897.0 2611.0,2893.0 2601.0,2868.0" fill="pink"/>
	<path d="M 2367.0,2789.0 C 2352.0,2772.0 2340.0,2754.0 2340.0,2750.0 C 2340.0,2746.0 2356.0,2733.0 2375.0,2722.0 L 2409.0,2701.0 L 2430.0,2734.0 C 2456.0,2778.0 2455.0,2794.0 2425.0,2808.0 C 2411.0,2815.0 2398.0,2820.0 2397.0,2820.0 C 2395.0,2820.0 2382.0,2806.0 2367.0,2789.0" fill="pink"/>
	<path d="M 5141.0,2713.0 C 5114.0,2691.0 5098.0,2627.0 5114.0,2606.0 C 5128.0,2586.0 5181.0,2567.0 5191.0,2577.0 C 5196.0,2582.0 5202.0,2612.0 5206.0,2644.0 C 5212.0,2695.0 5211.0,2705.0 5195.0,2716.0 C 5171.0,2734.0 5167.0,2734.0 5141.0,2713.0" fill="pink"/>
	<path d="M 2475.0,2606.0 C 2465.0,2540.0 2490.0,2504.0 2529.0,2529.0 C 2542.0,2537.0 2541.0,2546.0 2525.0,2594.0 C 2514.0,2625.0 2500.0,2650.0 2494.0,2650.0 C 2487.0,2650.0 2478.0,2631.0 2475.0,2606.0" fill="pink"/>
	<path d="M 2552.0,2633.0 C 2542.0,2629.0 2543.0,2624.0 2556.0,2609.0 C 2577.0,2586.0 2570.0,2518.0 2544.0,2489.0 C 2515.0,2457.0 2536.0,2456.0 2582.0,2487.0 C 2620.0,2513.0 2625.0,2520.0 2622.0,2551.0 C 2619.0,2588.0 2574.0,2641.0 2552.0,2633.0" fill="pink"/>
	<path d="M 2862.0,2493.0 C 2864.0,2460.0 2862.0,2456.0 2835.0,2447.0 C 2770.0,2426.0 2646.0,2316.0 2619.0,2257.0 C 2606.0,2229.0 2621.0,2190.0 2645.0,2190.0 C 2652.0,2190.0 2672.0,2179.0 2688.0,2165.0 C 2705.0,2151.0 2725.0,2140.0 2733.0,2140.0 C 2741.0,2140.0 2773.0,2151.0 2804.0,2165.0 C 2865.0,2192.0 2890.0,2196.0 2906.0,2180.0 C 2913.0,2173.0 2915.0,2179.0 2912.0,2199.0 C 2909.0,2222.0 2913.0,2231.0 2930.0,2240.0 C 2948.0,2249.0 2954.0,2249.0 2960.0,2240.0 C 2966.0,2231.0 2973.0,2236.0 2983.0,2256.0 C 3006.0,2301.0 3032.0,2398.0 3026.0,2417.0 C 3023.0,2427.0 3001.0,2447.0 2977.0,2462.0 C 2953.0,2477.0 2925.0,2499.0 2915.0,2510.0 C 2905.0,2521.0 2888.0,2530.0 2878.0,2530.0 C 2862.0,2530.0 2859.0,2524.0 2862.0,2493.0" fill="pink"/>
	<path d="M 5101.0,2476.0 L 5078.0,2451.0 L 5134.0,2415.0 C 5216.0,2363.0 5231.0,2372.0 5180.0,2440.0 C 5158.0,2470.0 5136.0,2496.0 5131.0,2498.0 C 5127.0,2499.0 5113.0,2489.0 5101.0,2476.0" fill="pink"/>
	<path d="M 4671.0,2467.0 C 4663.0,2456.0 4663.0,2443.0 4673.0,2414.0 C 4684.0,2384.0 4693.0,2374.0 4713.0,2372.0 C 4728.0,2370.0 4747.0,2373.0 4756.0,2378.0 C 4770.0,2386.0 4768.0,2390.0 4741.0,2406.0 C 4724.0,2416.0 4710.0,2432.0 4710.0,2441.0 C 4710.0,2467.0 4685.0,2483.0 4671.0,2467.0" fill="pink"/>
	<path d="M 4255.0,2360.0 C 4244.0,2355.0 4221.0,2351.0 4203.0,2351.0 C 4161.0,2350.0 4157.0,2340.0 4181.0,2301.0 C 4199.0,2272.0 4205.0,2268.0 4232.0,2274.0 C 4249.0,2277.0 4275.0,2280.0 4290.0,2280.0 C 4312.0,2280.0 4319.0,2286.0 4324.0,2308.0 C 4328.0,2323.0 4333.0,2343.0 4336.0,2353.0 C 4340.0,2367.0 4335.0,2370.0 4308.0,2369.0 C 4290.0,2369.0 4266.0,2365.0 4255.0,2360.0" fill="pink"/>
	<path d="M 4698.0,2339.0 C 4674.0,2326.0 4675.0,2313.0 4700.0,2305.0 C 4711.0,2301.0 4727.0,2285.0 4736.0,2269.0 C 4748.0,2245.0 4755.0,2240.0 4773.0,2246.0 C 4785.0,2249.0 4799.0,2256.0 4803.0,2260.0 C 4818.0,2274.0 4799.0,2311.0 4767.0,2331.0 C 4731.0,2352.0 4722.0,2354.0 4698.0,2339.0" fill="pink"/>
	<path d="M 3682.0,2271.0 C 3629.0,2241.0 3590.0,2180.0 3624.0,2180.0 C 3632.0,2180.0 3640.0,2173.0 3642.0,2164.0 C 3645.0,2150.0 3649.0,2151.0 3672.0,2169.0 C 3686.0,2181.0 3707.0,2190.0 3718.0,2190.0 C 3764.0,2190.0 3790.0,2220.0 3755.0,2234.0 C 3747.0,2237.0 3740.0,2251.0 3740.0,2265.0 C 3740.0,2294.0 3727.0,2296.0 3682.0,2271.0" fill="pink"/>
	<path d="M 3480.0,2197.0 C 3449.0,2182.0 3444.0,2151.0 3465.0,2110.0 C 3486.0,2070.0 3556.0,2020.0 3592.0,2020.0 C 3607.0,2020.0 3620.0,2021.0 3620.0,2023.0 C 3620.0,2039.0 3546.0,2188.0 3533.0,2197.0 C 3512.0,2213.0 3511.0,2213.0 3480.0,2197.0" fill="pink"/>
	<path d="M 3801.0,2191.0 C 3793.0,2176.0 3795.0,2171.0 3816.0,2161.0 C 3853.0,2145.0 3900.0,2147.0 3907.0,2166.0 C 3922.0,2205.0 3821.0,2229.0 3801.0,2191.0" fill="pink"/>
	<path d="M 3735.0,2120.0 C 3732.0,2115.0 3715.0,2107.0 3697.0,2102.0 C 3650.0,2090.0 3656.0,2066.0 3706.0,2062.0 C 3736.0,2060.0 3750.0,2053.0 3756.0,2039.0 C 3765.0,2021.0 3767.0,2021.0 3802.0,2050.0 C 3838.0,2080.0 3839.0,2082.0 3822.0,2099.0 C 3802.0,2120.0 3744.0,2134.0 3735.0,2120.0" fill="pink"/>
	<path d="M 2504.0,2046.0 C 2495.0,2022.0 2528.0,1990.0 2562.0,1990.0 C 2586.0,1990.0 2590.0,1994.0 2590.0,2020.0 C 2590.0,2042.0 2585.0,2050.0 2573.0,2050.0 C 2563.0,2050.0 2545.0,2053.0 2533.0,2056.0 C 2517.0,2060.0 2508.0,2057.0 2504.0,2046.0" fill="pink"/>
	<path d="M 3310.0,1848.0 C 3310.0,1824.0 3316.0,1807.0 3328.0,1800.0 C 3342.0,1791.0 3339.0,1790.0 3313.0,1794.0 C 3287.0,1798.0 3277.0,1795.0 3260.0,1773.0 C 3236.0,1743.0 3237.0,1707.0 3262.0,1702.0 C 3271.0,1700.0 3294.0,1713.0 3313.0,1729.0 C 3332.0,1746.0 3355.0,1760.0 3364.0,1760.0 C 3384.0,1760.0 3385.0,1779.0 3366.0,1786.0 C 3346.0,1794.0 3358.0,1820.0 3380.0,1820.0 C 3390.0,1820.0 3400.0,1827.0 3404.0,1835.0 C 3415.0,1864.0 3399.0,1878.0 3354.0,1882.0 L 3310.0,1885.0 L 3310.0,1848.0" fill="pink"/>
	<path d="M 3792.0,1826.0 C 3778.0,1795.0 3801.0,1760.0 3836.0,1760.0 C 3863.0,1760.0 3864.0,1761.0 3849.0,1813.0 C 3837.0,1856.0 3809.0,1863.0 3792.0,1826.0" fill="pink"/>
	<path d="M 3595.0,639.0 C 3557.0,628.0 3509.0,621.0 3488.0,622.0 C 3468.0,623.0 3446.0,619.0 3438.0,614.0 C 3431.0,608.0 3382.0,598.0 3328.0,592.0 C 3239.0,582.0 3206.0,573.0 3000.0,499.0 C 2964.0,486.0 2941.0,471.0 2935.0,457.0 C 2929.0,445.0 2915.0,434.0 2902.0,432.0 C 2890.0,430.0 2873.0,417.0 2866.0,402.0 C 2858.0,387.0 2827.0,352.0 2797.0,324.0 C 2698.0,232.0 2698.0,157.0 2798.0,74.0 C 2829.0,48.0 2861.0,20.0 2867.0,11.0 C 2874.0,3.0 2881.0,-2.0 2883.0,1.0 C 2885.0,3.0 2899.0,21.0 2913.0,41.0 C 2940.0,76.0 2941.0,77.0 3028.0,83.0 C 3086.0,87.0 3134.0,85.0 3172.0,76.0 C 3221.0,64.0 3231.0,64.0 3250.0,77.0 C 3267.0,89.0 3279.0,90.0 3321.0,80.0 C 3363.0,70.0 3373.0,70.0 3393.0,84.0 C 3405.0,93.0 3430.0,112.0 3449.0,125.0 C 3468.0,139.0 3495.0,150.0 3509.0,150.0 C 3552.0,150.0 3606.0,169.0 3625.0,190.0 C 3638.0,204.0 3656.0,210.0 3687.0,210.0 C 3723.0,210.0 3730.0,213.0 3730.0,230.0 C 3730.0,241.0 3741.0,257.0 3754.0,265.0 C 3767.0,274.0 3781.0,291.0 3784.0,303.0 C 3787.0,315.0 3807.0,345.0 3830.0,368.0 C 3852.0,392.0 3870.0,421.0 3870.0,433.0 C 3870.0,445.0 3858.0,485.0 3843.0,522.0 C 3824.0,573.0 3812.0,590.0 3798.0,590.0 C 3774.0,590.0 3744.0,606.0 3707.0,636.0 C 3691.0,649.0 3675.0,660.0 3672.0,659.0 C 3668.0,659.0 3634.0,650.0 3595.0,639.0" fill="pink"/>
</svg>
