<?xml version="1.0" ?>
<svg xmlns="http://www.w3.org/2000/svg" xmlns:ev="http://www.w3.org/2001/xml-events" xmlns:xlink="http://www.w3.org/1999/xlink" baseProfile="full" height="254px" version="1.1" viewBox="-1028.1381165897467 2528.3429250763265 12294.778345740819 5198.8027288762105" width="600px">
	<defs/>
	<path d="M 890.0,7274.0 C 871.0,7266.0 835.0,7255.0 810.0,7249.0 C 785.0,7244.0 736.0,7221.0 700.0,7200.0 C 664.0,7178.0 607.0,7152.0 573.0,7142.0 C 540.0,7131.0 499.0,7114.0 483.0,7103.0 C 468.0,7092.0 440.0,7079.0 421.0,7075.0 C 402.0,7071.0 364.0,7050.0 337.0,7029.0 C 310.0,7007.0 276.0,6987.0 262.0,6984.0 C 162.0,6960.0 122.0,6914.0 55.0,6747.0 C -11.0,6583.0 -15.0,6545.0 33.0,6513.0 C 104.0,6464.0 132.0,6459.0 269.0,6466.0 C 384.0,6472.0 405.0,6471.0 471.0,6451.0 C 512.0,6439.0 564.0,6415.0 587.0,6399.0 C 610.0,6383.0 648.0,6363.0 670.0,6355.0 C 739.0,6331.0 841.0,6245.0 914.0,6150.0 C 956.0,6096.0 1005.0,5971.0 1043.0,5818.0 C 1051.0,5786.0 1071.0,5739.0 1088.0,5712.0 C 1129.0,5644.0 1145.0,5503.0 1130.0,5325.0 C 1125.0,5255.0 1118.0,5195.0 1116.0,5192.0 C 1101.0,5166.0 1067.0,4951.0 1060.0,4835.0 C 1055.0,4758.0 1045.0,4669.0 1038.0,4636.0 C 1023.0,4572.0 1033.0,4428.0 1053.0,4421.0 C 1069.0,4415.0 1104.0,4375.0 1117.0,4348.0 C 1123.0,4336.0 1133.0,4285.0 1139.0,4237.0 C 1146.0,4188.0 1153.0,4135.0 1157.0,4119.0 C 1161.0,4097.0 1159.0,4090.0 1147.0,4090.0 C 1138.0,4090.0 1126.0,4081.0 1120.0,4071.0 C 1107.0,4046.0 1107.0,4010.0 1120.0,4010.0 C 1143.0,4010.0 1127.0,3989.0 1074.0,3948.0 C 1011.0,3899.0 934.0,3784.0 874.0,3652.0 L 837.0,3569.0 L 850.0,3502.0 C 857.0,3465.0 869.0,3421.0 876.0,3404.0 C 885.0,3382.0 888.0,3346.0 884.0,3289.0 L 878.0,3205.0 L 914.0,3168.0 C 940.0,3140.0 957.0,3130.0 980.0,3130.0 C 998.0,3130.0 1023.0,3121.0 1037.0,3110.0 C 1051.0,3099.0 1075.0,3090.0 1090.0,3090.0 C 1105.0,3090.0 1126.0,3080.0 1140.0,3065.0 C 1171.0,3032.0 1211.0,3033.0 1263.0,3068.0 C 1326.0,3111.0 1466.0,3185.0 1545.0,3218.0 C 1584.0,3233.0 1647.0,3267.0 1687.0,3293.0 C 1731.0,3321.0 1792.0,3349.0 1847.0,3366.0 C 1895.0,3380.0 1983.0,3417.0 2042.0,3448.0 L 2149.0,3503.0 L 2269.0,3504.0 C 2409.0,3505.0 2416.0,3501.0 2427.0,3425.0 C 2432.0,3386.0 2466.0,3312.0 2496.0,3271.0 C 2498.0,3269.0 2522.0,3277.0 2549.0,3289.0 C 2618.0,3318.0 2689.0,3317.0 2736.0,3285.0 C 2779.0,3256.0 2814.0,3254.0 2887.0,3277.0 C 2929.0,3290.0 2947.0,3292.0 2973.0,3283.0 C 2990.0,3277.0 3075.0,3272.0 3160.0,3271.0 C 3305.0,3270.0 3321.0,3268.0 3404.0,3240.0 C 3484.0,3213.0 3499.0,3204.0 3570.0,3136.0 C 3613.0,3096.0 3657.0,3059.0 3668.0,3056.0 C 3682.0,3051.0 3703.0,3058.0 3729.0,3075.0 C 3761.0,3094.0 3783.0,3100.0 3829.0,3100.0 C 3884.0,3100.0 3889.0,3098.0 3914.0,3065.0 C 3929.0,3045.0 3969.0,3015.0 4003.0,2997.0 C 4059.0,2968.0 4073.0,2965.0 4145.0,2966.0 C 4189.0,2967.0 4257.0,2975.0 4296.0,2983.0 C 4352.0,2996.0 4375.0,2997.0 4403.0,2988.0 C 4433.0,2979.0 4443.0,2979.0 4457.0,2992.0 C 4469.0,3003.0 4507.0,3010.0 4574.0,3015.0 C 4661.0,3022.0 4686.0,3028.0 4774.0,3067.0 C 4829.0,3092.0 4892.0,3126.0 4915.0,3143.0 C 4937.0,3159.0 5065.0,3284.0 5200.0,3420.0 C 5426.0,3648.0 5451.0,3670.0 5525.0,3707.0 C 5569.0,3729.0 5627.0,3755.0 5653.0,3765.0 C 5679.0,3775.0 5706.0,3791.0 5713.0,3800.0 C 5720.0,3809.0 5754.0,3838.0 5789.0,3863.0 C 5845.0,3905.0 5858.0,3910.0 5904.0,3910.0 C 5932.0,3910.0 5965.0,3916.0 5976.0,3924.0 C 5987.0,3932.0 6064.0,3961.0 6148.0,3989.0 L 6301.0,4040.0 L 6437.0,4040.0 C 6570.0,4040.0 6574.0,4039.0 6609.0,4013.0 C 6657.0,3976.0 6724.0,3969.0 6820.0,3990.0 C 6861.0,3999.0 6914.0,4017.0 6937.0,4028.0 C 6960.0,4040.0 6987.0,4050.0 6998.0,4050.0 C 7008.0,4050.0 7040.0,4066.0 7070.0,4085.0 C 7100.0,4104.0 7132.0,4120.0 7140.0,4120.0 C 7149.0,4120.0 7165.0,4126.0 7176.0,4134.0 C 7187.0,4142.0 7225.0,4160.0 7260.0,4176.0 C 7319.0,4200.0 7340.0,4203.0 7475.0,4208.0 C 7558.0,4210.0 7630.0,4216.0 7636.0,4221.0 C 7642.0,4226.0 7676.0,4227.0 7711.0,4224.0 C 7772.0,4217.0 7779.0,4214.0 7869.0,4141.0 C 8079.0,3970.0 8093.0,3964.0 8162.0,4000.0 C 8194.0,4017.0 8208.0,4019.0 8229.0,4011.0 C 8243.0,4006.0 8298.0,4000.0 8351.0,3998.0 C 8436.0,3995.0 8453.0,3991.0 8489.0,3967.0 C 8528.0,3941.0 8534.0,3940.0 8588.0,3949.0 C 8723.0,3972.0 8849.0,3982.0 8910.0,3975.0 C 8946.0,3971.0 9037.0,3969.0 9113.0,3970.0 C 9246.0,3971.0 9256.0,3973.0 9368.0,4011.0 C 9432.0,4033.0 9539.0,4077.0 9605.0,4109.0 C 9671.0,4142.0 9742.0,4173.0 9762.0,4180.0 C 9789.0,4188.0 9814.0,4210.0 9856.0,4263.0 C 9888.0,4303.0 9951.0,4373.0 9996.0,4420.0 C 10066.0,4493.0 10078.0,4511.0 10084.0,4550.0 C 10088.0,4574.0 10103.0,4615.0 10119.0,4640.0 C 10174.0,4730.0 10225.0,4910.0 10236.0,5050.0 C 10244.0,5151.0 10224.0,5465.0 10205.0,5525.0 C 10189.0,5578.0 10105.0,5699.0 10075.0,5710.0 C 10063.0,5714.0 10040.0,5735.0 10024.0,5756.0 C 10008.0,5776.0 9969.0,5819.0 9938.0,5850.0 C 9869.0,5919.0 9871.0,5919.0 9630.0,5910.0 C 9501.0,5904.0 9426.0,5906.0 9345.0,5917.0 C 9285.0,5925.0 9165.0,5936.0 9080.0,5941.0 C 8995.0,5946.0 8894.0,5953.0 8857.0,5956.0 C 8804.0,5961.0 8784.0,5958.0 8764.0,5945.0 C 8700.0,5904.0 8664.0,5899.0 8414.0,5899.0 C 8236.0,5900.0 8162.0,5896.0 8134.0,5886.0 C 8112.0,5879.0 8066.0,5870.0 8031.0,5866.0 C 7995.0,5862.0 7938.0,5846.0 7902.0,5829.0 C 7733.0,5753.0 7488.0,5708.0 7230.0,5706.0 C 7036.0,5705.0 6956.0,5722.0 6627.0,5832.0 L 6449.0,5891.0 L 6302.0,5884.0 C 6204.0,5880.0 6148.0,5873.0 6133.0,5864.0 C 6121.0,5856.0 6078.0,5839.0 6038.0,5826.0 C 5998.0,5812.0 5932.0,5790.0 5892.0,5776.0 C 5807.0,5747.0 5761.0,5751.0 5618.0,5799.0 C 5535.0,5827.0 5336.0,5930.0 5274.0,5977.0 C 5257.0,5989.0 5236.0,6000.0 5228.0,6000.0 C 5207.0,6000.0 5029.0,6141.0 4898.0,6262.0 C 4836.0,6319.0 4738.0,6403.0 4680.0,6449.0 C 4622.0,6495.0 4570.0,6539.0 4565.0,6545.0 C 4552.0,6561.0 4420.0,6355.0 4420.0,6319.0 C 4420.0,6289.0 4435.0,6264.0 4444.0,6278.0 C 4447.0,6284.0 4458.0,6286.0 4469.0,6283.0 C 4484.0,6279.0 4488.0,6286.0 4493.0,6329.0 C 4496.0,6356.0 4507.0,6394.0 4517.0,6412.0 L 4535.0,6445.0 L 4538.0,6383.0 C 4540.0,6336.0 4535.0,6308.0 4519.0,6270.0 C 4507.0,6243.0 4493.0,6220.0 4488.0,6220.0 C 4483.0,6220.0 4461.0,6229.0 4438.0,6241.0 C 4379.0,6271.0 4367.0,6250.0 4424.0,6216.0 C 4454.0,6199.0 4470.0,6182.0 4470.0,6170.0 C 4470.0,6159.0 4466.0,6150.0 4460.0,6150.0 C 4455.0,6150.0 4442.0,6131.0 4432.0,6108.0 C 4401.0,6038.0 4393.0,6035.0 4249.0,6036.0 C 4146.0,6037.0 4123.0,6035.0 4127.0,6024.0 C 4132.0,6009.0 4219.0,5980.0 4257.0,5980.0 C 4270.0,5980.0 4280.0,5977.0 4280.0,5973.0 C 4280.0,5968.0 4284.0,5959.0 4289.0,5951.0 C 4297.0,5939.0 4304.0,5942.0 4330.0,5963.0 C 4368.0,5995.0 4396.0,5998.0 4403.0,5970.0 C 4412.0,5937.0 4428.0,5947.0 4441.0,5993.0 C 4447.0,6016.0 4456.0,6042.0 4460.0,6050.0 C 4465.0,6058.0 4484.0,6096.0 4501.0,6133.0 C 4524.0,6180.0 4538.0,6199.0 4547.0,6195.0 C 4555.0,6192.0 4566.0,6190.0 4571.0,6190.0 C 4576.0,6190.0 4589.0,6170.0 4600.0,6145.0 C 4621.0,6095.0 4641.0,6088.0 4658.0,6124.0 C 4664.0,6138.0 4680.0,6150.0 4698.0,6153.0 C 4724.0,6158.0 4734.0,6153.0 4774.0,6113.0 C 4825.0,6063.0 4830.0,6040.0 4799.0,6009.0 C 4776.0,5986.0 4756.0,5988.0 4752.0,6016.0 C 4746.0,6058.0 4638.0,6102.0 4624.0,6067.0 C 4622.0,6060.0 4626.0,6037.0 4635.0,6017.0 C 4644.0,5994.0 4650.0,5949.0 4650.0,5894.0 L 4650.0,5807.0 L 4608.0,5760.0 C 4545.0,5690.0 4508.0,5636.0 4519.0,5632.0 C 4525.0,5630.0 4554.0,5634.0 4584.0,5640.0 C 4637.0,5651.0 4661.0,5668.0 4673.0,5703.0 C 4682.0,5729.0 4699.0,5724.0 4705.0,5693.0 C 4725.0,5602.0 4746.0,5555.0 4768.0,5552.0 C 4787.0,5549.0 4790.0,5553.0 4790.0,5583.0 C 4790.0,5604.0 4797.0,5624.0 4810.0,5635.0 C 4821.0,5645.0 4830.0,5663.0 4830.0,5675.0 C 4830.0,5699.0 4855.0,5716.0 4865.0,5700.0 C 4869.0,5694.0 4884.0,5690.0 4899.0,5690.0 C 4915.0,5690.0 4936.0,5680.0 4950.0,5665.0 L 4973.0,5640.0 L 4947.0,5593.0 C 4933.0,5566.0 4914.0,5546.0 4906.0,5546.0 C 4884.0,5548.0 4875.0,5484.0 4894.0,5456.0 C 4914.0,5425.0 4919.0,5238.0 4901.0,5216.0 C 4881.0,5192.0 4895.0,5150.0 4924.0,5150.0 C 4949.0,5150.0 4964.0,5121.0 4953.0,5094.0 C 4941.0,5061.0 4884.0,5090.0 4864.0,5140.0 C 4855.0,5162.0 4846.0,5180.0 4843.0,5180.0 C 4820.0,5180.0 4782.0,5146.0 4777.0,5121.0 C 4768.0,5076.0 4703.0,5016.0 4635.0,4989.0 C 4588.0,4970.0 4554.0,4965.0 4480.0,4964.0 C 4428.0,4963.0 4377.0,4962.0 4368.0,4961.0 C 4358.0,4960.0 4333.0,4944.0 4311.0,4925.0 C 4267.0,4885.0 4261.0,4884.0 4218.0,4906.0 C 4196.0,4917.0 4185.0,4919.0 4177.0,4911.0 C 4171.0,4905.0 4138.0,4900.0 4104.0,4900.0 C 4046.0,4900.0 4040.0,4902.0 4021.0,4929.0 C 4009.0,4945.0 4000.0,4962.0 4000.0,4968.0 C 4000.0,4986.0 3974.0,4999.0 3917.0,5008.0 C 3856.0,5018.0 3847.0,5014.0 3837.0,4972.0 C 3833.0,4957.0 3838.0,4947.0 3851.0,4940.0 C 3869.0,4930.0 3879.0,4880.0 3862.0,4880.0 C 3858.0,4880.0 3846.0,4835.0 3836.0,4780.0 C 3823.0,4705.0 3812.0,4672.0 3793.0,4650.0 C 3773.0,4626.0 3770.0,4614.0 3775.0,4589.0 C 3783.0,4554.0 3771.0,4540.0 3733.0,4540.0 C 3714.0,4540.0 3710.0,4534.0 3710.0,4510.0 C 3710.0,4450.0 3762.0,4386.0 3788.0,4412.0 C 3795.0,4419.0 3800.0,4430.0 3800.0,4438.0 C 3800.0,4445.0 3810.0,4474.0 3821.0,4501.0 C 3841.0,4548.0 3844.0,4550.0 3881.0,4550.0 C 3907.0,4550.0 3927.0,4543.0 3940.0,4530.0 C 3965.0,4505.0 3965.0,4498.0 3940.0,4482.0 C 3926.0,4473.0 3920.0,4459.0 3920.0,4432.0 C 3920.0,4403.0 3911.0,4382.0 3884.0,4348.0 C 3845.0,4297.0 3823.0,4288.0 3768.0,4296.0 C 3737.0,4301.0 3726.0,4297.0 3692.0,4271.0 C 3671.0,4253.0 3636.0,4235.0 3615.0,4229.0 C 3579.0,4219.0 3576.0,4220.0 3536.0,4258.0 C 3485.0,4309.0 3453.0,4306.0 3416.0,4250.0 C 3387.0,4206.0 3213.0,4079.0 3141.0,4049.0 C 3112.0,4037.0 3087.0,4017.0 3076.0,3999.0 C 3056.0,3965.0 3024.0,3961.0 2989.0,3988.0 C 2952.0,4016.0 2899.0,4035.0 2855.0,4036.0 C 2833.0,4036.0 2764.0,4037.0 2702.0,4038.0 L 2589.0,4040.0 L 2569.0,4075.0 C 2557.0,4094.0 2542.0,4110.0 2534.0,4110.0 C 2527.0,4110.0 2506.0,4083.0 2488.0,4051.0 C 2461.0,4003.0 2448.0,3989.0 2418.0,3979.0 L 2380.0,3967.0 L 2380.0,3873.0 C 2380.0,3818.0 2376.0,3780.0 2370.0,3780.0 C 2364.0,3780.0 2360.0,3817.0 2360.0,3870.0 C 2360.0,3973.0 2353.0,3979.0 2287.0,3935.0 L 2250.0,3909.0 L 2250.0,3937.0 C 2250.0,3989.0 2209.0,4063.0 2152.0,4110.0 C 2123.0,4135.0 2071.0,4181.0 2036.0,4213.0 C 2002.0,4244.0 1964.0,4270.0 1953.0,4270.0 C 1885.0,4270.0 1839.0,4318.0 1879.0,4347.0 C 1895.0,4357.0 1899.0,4368.0 1894.0,4383.0 C 1881.0,4423.0 1796.0,4552.0 1769.0,4571.0 C 1736.0,4594.0 1710.0,4596.0 1710.0,4574.0 C 1710.0,4564.0 1716.0,4560.0 1724.0,4563.0 C 1732.0,4566.0 1742.0,4558.0 1749.0,4544.0 C 1766.0,4505.0 1762.0,4494.0 1740.0,4518.0 C 1728.0,4530.0 1709.0,4540.0 1696.0,4540.0 C 1683.0,4540.0 1665.0,4549.0 1655.0,4560.0 C 1645.0,4571.0 1627.0,4581.0 1616.0,4581.0 C 1597.0,4582.0 1597.0,4583.0 1614.0,4587.0 C 1624.0,4590.0 1643.0,4586.0 1656.0,4579.0 C 1669.0,4572.0 1682.0,4569.0 1685.0,4572.0 C 1693.0,4580.0 1650.0,4630.0 1634.0,4630.0 C 1608.0,4630.0 1618.0,4678.0 1646.0,4693.0 C 1693.0,4718.0 1711.0,4826.0 1675.0,4870.0 C 1668.0,4878.0 1660.0,4893.0 1657.0,4903.0 C 1649.0,4924.0 1621.0,4925.0 1606.0,4904.0 C 1598.0,4893.0 1586.0,4891.0 1567.0,4895.0 C 1542.0,4902.0 1540.0,4906.0 1540.0,4949.0 C 1540.0,4990.0 1545.0,5000.0 1579.0,5034.0 C 1618.0,5072.0 1619.0,5074.0 1604.0,5102.0 C 1585.0,5138.0 1589.0,5165.0 1614.0,5165.0 C 1628.0,5165.0 1637.0,5178.0 1647.0,5212.0 C 1666.0,5279.0 1680.0,5281.0 1673.0,5215.0 C 1668.0,5167.0 1669.0,5160.0 1683.0,5166.0 C 1692.0,5169.0 1704.0,5188.0 1711.0,5208.0 C 1717.0,5227.0 1731.0,5258.0 1742.0,5276.0 C 1754.0,5297.0 1757.0,5311.0 1751.0,5315.0 C 1744.0,5319.0 1746.0,5330.0 1756.0,5345.0 C 1782.0,5385.0 1768.0,5400.0 1705.0,5400.0 C 1673.0,5400.0 1650.0,5404.0 1650.0,5411.0 C 1650.0,5417.0 1658.0,5419.0 1669.0,5415.0 C 1682.0,5411.0 1693.0,5416.0 1703.0,5430.0 C 1715.0,5448.0 1719.0,5449.0 1730.0,5435.0 C 1737.0,5427.0 1750.0,5420.0 1760.0,5420.0 C 1774.0,5420.0 1778.0,5431.0 1782.0,5483.0 C 1785.0,5518.0 1782.0,5552.0 1776.0,5562.0 C 1768.0,5575.0 1769.0,5583.0 1778.0,5592.0 C 1795.0,5609.0 1793.0,5655.0 1774.0,5671.0 C 1739.0,5700.0 1570.0,5970.0 1551.0,6028.0 C 1536.0,6074.0 1460.0,6205.0 1423.0,6249.0 C 1422.0,6252.0 1410.0,6244.0 1397.0,6233.0 C 1365.0,6204.0 1336.0,6190.0 1303.0,6190.0 C 1288.0,6189.0 1253.0,6183.0 1225.0,6176.0 C 1184.0,6165.0 1175.0,6159.0 1177.0,6141.0 C 1179.0,6126.0 1173.0,6119.0 1154.0,6114.0 C 1120.0,6105.0 1114.0,6114.0 1134.0,6145.0 C 1155.0,6177.0 1182.0,6188.0 1265.0,6196.0 C 1329.0,6203.0 1332.0,6204.0 1361.0,6246.0 C 1395.0,6296.0 1397.0,6316.0 1370.0,6345.0 C 1338.0,6379.0 1216.0,6591.0 1203.0,6635.0 C 1191.0,6676.0 1195.0,6740.0 1212.0,6773.0 C 1219.0,6787.0 1216.0,6790.0 1190.0,6790.0 C 1174.0,6790.0 1160.0,6795.0 1160.0,6801.0 C 1160.0,6807.0 1167.0,6810.0 1175.0,6806.0 C 1196.0,6799.0 1220.0,6809.0 1220.0,6826.0 C 1220.0,6834.0 1203.0,6843.0 1178.0,6847.0 L 1135.0,6855.0 L 1175.0,6860.0 C 1202.0,6863.0 1216.0,6870.0 1218.0,6883.0 C 1221.0,6897.0 1214.0,6900.0 1186.0,6900.0 C 1166.0,6900.0 1150.0,6904.0 1150.0,6909.0 C 1150.0,6914.0 1170.0,6915.0 1195.0,6912.0 C 1240.0,6907.0 1250.0,6915.0 1228.0,6939.0 C 1220.0,6946.0 1231.0,6944.0 1252.0,6934.0 C 1300.0,6912.0 1309.0,6890.0 1271.0,6890.0 C 1248.0,6890.0 1241.0,6885.0 1237.0,6864.0 C 1232.0,6838.0 1233.0,6838.0 1274.0,6843.0 C 1430.0,6865.0 1438.0,6864.0 1589.0,6820.0 C 1668.0,6798.0 1744.0,6780.0 1759.0,6782.0 C 1799.0,6787.0 1798.0,6824.0 1753.0,6897.0 C 1689.0,7001.0 1661.0,7024.0 1519.0,7096.0 C 1446.0,7132.0 1354.0,7184.0 1313.0,7212.0 C 1273.0,7239.0 1216.0,7268.0 1187.0,7276.0 C 1116.0,7295.0 936.0,7294.0 890.0,7274.0 M 1188.0,6980.0 C 1201.0,6964.0 1208.0,6950.0 1206.0,6950.0 C 1185.0,6950.0 1100.0,6973.0 1100.0,6979.0 C 1100.0,6993.0 1124.0,7010.0 1145.0,7010.0 C 1157.0,7010.0 1176.0,6997.0 1188.0,6980.0" fill="pink"/>
	<path d="M 4066.0,5275.0 C 4053.0,5261.0 4039.0,5250.0 4034.0,5250.0 C 4030.0,5250.0 4016.0,5240.0 4003.0,5228.0 C 3980.0,5206.0 3979.0,5206.0 3946.0,5224.0 C 3921.0,5237.0 3902.0,5240.0 3866.0,5235.0 C 3841.0,5231.0 3817.0,5224.0 3814.0,5218.0 C 3811.0,5213.0 3820.0,5194.0 3834.0,5175.0 L 3861.0,5140.0 L 3840.0,5101.0 C 3809.0,5039.0 3812.0,5035.0 3880.0,5035.0 C 3913.0,5036.0 3940.0,5032.0 3940.0,5028.0 C 3940.0,5011.0 3996.0,5021.0 4023.0,5043.0 C 4046.0,5061.0 4052.0,5075.0 4057.0,5125.0 C 4061.0,5164.0 4073.0,5203.0 4092.0,5236.0 C 4117.0,5280.0 4118.0,5288.0 4105.0,5294.0 C 4095.0,5297.0 4080.0,5290.0 4066.0,5275.0" fill="pink"/>
</svg>
