<?xml version="1.0" ?>
<svg xmlns="http://www.w3.org/2000/svg" xmlns:ev="http://www.w3.org/2001/xml-events" xmlns:xlink="http://www.w3.org/1999/xlink" baseProfile="full" height="340px" version="1.1" viewBox="-1022.5631288319141 1638.8314914251437 12281.061846144436 6954.611738967076" width="600px">
	<defs/>
	<path d="M 5567.0,8003.0 C 5563.0,8000.0 5560.0,7988.0 5560.0,7978.0 C 5560.0,7956.0 5542.0,7955.0 5518.0,7977.0 C 5501.0,7992.0 5500.0,7992.0 5500.0,7972.0 C 5500.0,7961.0 5495.0,7948.0 5490.0,7945.0 C 5484.0,7941.0 5482.0,7930.0 5485.0,7920.0 C 5489.0,7906.0 5483.0,7901.0 5453.0,7894.0 C 5432.0,7890.0 5409.0,7888.0 5401.0,7889.0 C 5391.0,7891.0 5389.0,7883.0 5394.0,7857.0 C 5398.0,7834.0 5396.0,7819.0 5389.0,7815.0 C 5381.0,7809.0 5381.0,7805.0 5391.0,7800.0 C 5415.0,7785.0 5381.0,7760.0 5338.0,7760.0 C 5310.0,7760.0 5293.0,7754.0 5281.0,7739.0 C 5272.0,7727.0 5252.0,7716.0 5238.0,7715.0 C 5224.0,7713.0 5203.0,7707.0 5192.0,7701.0 C 5181.0,7695.0 5163.0,7690.0 5152.0,7690.0 C 5141.0,7690.0 5100.0,7677.0 5060.0,7660.0 C 5020.0,7644.0 4976.0,7630.0 4962.0,7630.0 C 4948.0,7630.0 4922.0,7619.0 4903.0,7604.0 C 4872.0,7580.0 4870.0,7580.0 4870.0,7599.0 C 4870.0,7629.0 4854.0,7633.0 4831.0,7609.0 C 4815.0,7592.0 4803.0,7588.0 4777.0,7593.0 C 4747.0,7598.0 4738.0,7594.0 4711.0,7566.0 C 4690.0,7544.0 4680.0,7524.0 4680.0,7502.0 C 4680.0,7472.0 4679.0,7471.0 4655.0,7482.0 C 4636.0,7491.0 4626.0,7489.0 4605.0,7476.0 C 4587.0,7464.0 4558.0,7458.0 4512.0,7458.0 C 4438.0,7458.0 4400.0,7442.0 4400.0,7410.0 C 4400.0,7388.0 4380.0,7384.0 4363.0,7401.0 C 4354.0,7410.0 4343.0,7410.0 4319.0,7401.0 C 4302.0,7395.0 4272.0,7390.0 4255.0,7390.0 C 4237.0,7390.0 4217.0,7383.0 4210.0,7375.0 C 4203.0,7367.0 4186.0,7360.0 4171.0,7360.0 C 4157.0,7360.0 4126.0,7351.0 4103.0,7340.0 C 4069.0,7325.0 4061.0,7316.0 4063.0,7298.0 C 4064.0,7284.0 4059.0,7275.0 4048.0,7272.0 C 4034.0,7269.0 4030.0,7275.0 4030.0,7299.0 C 4030.0,7329.0 4028.0,7330.0 3988.0,7330.0 C 3963.0,7330.0 3939.0,7323.0 3928.0,7313.0 C 3911.0,7298.0 3909.0,7298.0 3896.0,7316.0 C 3884.0,7331.0 3877.0,7333.0 3854.0,7325.0 C 3829.0,7316.0 3822.0,7318.0 3805.0,7337.0 C 3777.0,7369.0 3738.0,7359.0 3742.0,7321.0 C 3745.0,7298.0 3742.0,7295.0 3718.0,7298.0 C 3685.0,7301.0 3679.0,7275.0 3710.0,7265.0 C 3736.0,7257.0 3735.0,7240.0 3709.0,7195.0 C 3683.0,7151.0 3690.0,7141.0 3751.0,7133.0 C 3801.0,7127.0 3831.0,7105.0 3823.0,7083.0 C 3819.0,7072.0 3806.0,7069.0 3779.0,7072.0 C 3745.0,7075.0 3740.0,7073.0 3740.0,7055.0 C 3740.0,7044.0 3744.0,7029.0 3748.0,7022.0 C 3764.0,6998.0 3824.0,6960.0 3849.0,6959.0 C 3886.0,6958.0 3958.0,6876.0 3940.0,6855.0 C 3931.0,6844.0 3924.0,6844.0 3911.0,6852.0 C 3899.0,6859.0 3888.0,6860.0 3875.0,6853.0 C 3862.0,6845.0 3845.0,6848.0 3812.0,6863.0 C 3768.0,6882.0 3765.0,6882.0 3733.0,6865.0 C 3715.0,6855.0 3700.0,6841.0 3700.0,6834.0 C 3700.0,6820.0 3634.0,6760.0 3619.0,6760.0 C 3605.0,6760.0 3619.0,6717.0 3636.0,6707.0 C 3644.0,6703.0 3650.0,6691.0 3650.0,6681.0 C 3650.0,6671.0 3661.0,6653.0 3675.0,6640.0 C 3711.0,6606.0 3707.0,6571.0 3662.0,6527.0 C 3636.0,6502.0 3615.0,6490.0 3595.0,6490.0 C 3577.0,6489.0 3551.0,6477.0 3530.0,6460.0 C 3511.0,6443.0 3485.0,6430.0 3473.0,6430.0 C 3460.0,6430.0 3450.0,6424.0 3450.0,6417.0 C 3450.0,6399.0 3471.0,6380.0 3491.0,6380.0 C 3500.0,6380.0 3510.0,6371.0 3513.0,6361.0 C 3516.0,6350.0 3530.0,6339.0 3549.0,6335.0 C 3580.0,6328.0 3580.0,6328.0 3564.0,6299.0 C 3544.0,6259.0 3560.0,6236.0 3602.0,6245.0 C 3626.0,6251.0 3639.0,6244.0 3687.0,6204.0 C 3725.0,6171.0 3751.0,6156.0 3769.0,6157.0 C 3787.0,6158.0 3803.0,6148.0 3823.0,6124.0 C 3839.0,6105.0 3847.0,6090.0 3842.0,6090.0 C 3836.0,6090.0 3822.0,6048.0 3809.0,5996.0 L 3787.0,5902.0 L 3716.0,5873.0 C 3651.0,5846.0 3641.0,5845.0 3593.0,5855.0 C 3541.0,5865.0 3500.0,5892.0 3500.0,5916.0 C 3500.0,5923.0 3491.0,5934.0 3480.0,5940.0 C 3463.0,5949.0 3457.0,5944.0 3429.0,5895.0 C 3412.0,5865.0 3395.0,5840.0 3392.0,5840.0 C 3388.0,5840.0 3376.0,5847.0 3366.0,5855.0 C 3355.0,5863.0 3336.0,5870.0 3323.0,5870.0 C 3293.0,5870.0 3183.0,5923.0 3148.0,5954.0 C 3133.0,5967.0 3117.0,5996.0 3111.0,6017.0 C 3103.0,6046.0 3092.0,6060.0 3067.0,6072.0 C 3045.0,6082.0 3028.0,6085.0 3018.0,6079.0 C 3008.0,6073.0 2992.0,6075.0 2974.0,6085.0 C 2932.0,6107.0 2911.0,6104.0 2904.0,6075.0 C 2896.0,6041.0 2861.0,6042.0 2820.0,6077.0 C 2795.0,6097.0 2771.0,6106.0 2722.0,6112.0 C 2679.0,6117.0 2654.0,6116.0 2650.0,6109.0 C 2646.0,6103.0 2632.0,6102.0 2617.0,6106.0 C 2596.0,6111.0 2590.0,6108.0 2590.0,6097.0 C 2590.0,6086.0 2578.0,6080.0 2553.0,6078.0 C 2517.0,6075.0 2515.0,6073.0 2507.0,6030.0 C 2500.0,5994.0 2492.0,5980.0 2465.0,5962.0 C 2420.0,5933.0 2404.0,5934.0 2369.0,5969.0 C 2353.0,5986.0 2332.0,6001.0 2322.0,6004.0 C 2300.0,6011.0 2270.0,6061.0 2270.0,6089.0 C 2270.0,6105.0 2262.0,6112.0 2241.0,6116.0 C 2225.0,6119.0 2202.0,6135.0 2190.0,6152.0 C 2178.0,6168.0 2161.0,6180.0 2152.0,6178.0 C 2138.0,6175.0 2135.0,6161.0 2135.0,6090.0 C 2135.0,6008.0 2134.0,6005.0 2111.0,6002.0 C 2090.0,5999.0 2088.0,6001.0 2095.0,6027.0 C 2109.0,6082.0 2103.0,6107.0 2067.0,6152.0 C 2045.0,6178.0 2030.0,6208.0 2028.0,6230.0 C 2025.0,6260.0 2020.0,6266.0 1983.0,6280.0 C 1926.0,6301.0 1903.0,6325.0 1895.0,6370.0 C 1887.0,6420.0 1873.0,6438.0 1824.0,6459.0 C 1797.0,6471.0 1777.0,6474.0 1762.0,6469.0 C 1748.0,6464.0 1732.0,6465.0 1721.0,6472.0 C 1708.0,6480.0 1694.0,6480.0 1673.0,6472.0 C 1644.0,6463.0 1642.0,6464.0 1624.0,6498.0 C 1614.0,6519.0 1603.0,6549.0 1600.0,6565.0 C 1596.0,6591.0 1591.0,6595.0 1565.0,6592.0 C 1549.0,6591.0 1524.0,6589.0 1510.0,6589.0 C 1464.0,6589.0 1440.0,6570.0 1440.0,6533.0 C 1440.0,6495.0 1431.0,6492.0 1405.0,6520.0 C 1395.0,6531.0 1374.0,6540.0 1359.0,6540.0 C 1325.0,6540.0 1311.0,6559.0 1333.0,6574.0 C 1359.0,6594.0 1323.0,6630.0 1272.0,6637.0 C 1244.0,6641.0 1226.0,6650.0 1219.0,6662.0 C 1205.0,6688.0 1190.0,6675.0 1190.0,6638.0 C 1190.0,6608.0 1189.0,6607.0 1171.0,6624.0 C 1147.0,6646.0 1130.0,6637.0 1130.0,6605.0 C 1130.0,6575.0 1053.0,6510.0 1018.0,6510.0 C 1004.0,6510.0 976.0,6497.0 955.0,6480.0 C 912.0,6446.0 916.0,6447.0 873.0,6459.0 C 829.0,6472.0 812.0,6452.0 830.0,6410.0 C 837.0,6393.0 841.0,6378.0 839.0,6377.0 C 837.0,6376.0 814.0,6365.0 788.0,6352.0 C 761.0,6340.0 740.0,6325.0 740.0,6319.0 C 740.0,6307.0 682.0,6311.0 646.0,6326.0 C 631.0,6332.0 629.0,6330.0 634.0,6312.0 C 638.0,6301.0 645.0,6254.0 650.0,6208.0 C 655.0,6163.0 662.0,6109.0 666.0,6090.0 C 673.0,6047.0 653.0,6025.0 599.0,6015.0 C 566.0,6009.0 560.0,6011.0 527.0,6050.0 C 503.0,6079.0 487.0,6111.0 479.0,6147.0 C 464.0,6213.0 421.0,6282.0 384.0,6299.0 C 364.0,6308.0 349.0,6308.0 324.0,6300.0 C 292.0,6289.0 290.0,6286.0 290.0,6242.0 C 290.0,6212.0 282.0,6181.0 267.0,6155.0 C 247.0,6120.0 240.0,6115.0 213.0,6118.0 C 175.0,6122.0 162.0,6103.0 142.0,6020.0 C 135.0,5990.0 127.0,5955.0 123.0,5942.0 C 119.0,5926.0 126.0,5908.0 146.0,5882.0 C 188.0,5828.0 182.0,5787.0 129.0,5760.0 C 99.0,5744.0 90.0,5734.0 90.0,5713.0 C 90.0,5698.0 76.0,5669.0 57.0,5646.0 C 3.0,5580.0 -4.0,5563.0 14.0,5535.0 C 23.0,5522.0 51.0,5505.0 79.0,5495.0 C 135.0,5477.0 144.0,5468.0 154.0,5425.0 C 158.0,5409.0 171.0,5387.0 183.0,5377.0 L 205.0,5358.0 L 178.0,5364.0 C 147.0,5371.0 145.0,5366.0 165.0,5330.0 C 173.0,5316.0 179.0,5293.0 180.0,5279.0 C 180.0,5262.0 189.0,5246.0 205.0,5236.0 C 228.0,5221.0 230.0,5221.0 230.0,5235.0 C 230.0,5253.0 260.0,5248.0 295.0,5224.0 C 306.0,5216.0 333.0,5210.0 356.0,5210.0 L 397.0,5210.0 L 435.0,5123.0 C 457.0,5076.0 484.0,5025.0 495.0,5011.0 C 528.0,4971.0 641.0,4750.0 635.0,4740.0 C 626.0,4726.0 604.0,4728.0 572.0,4744.0 C 541.0,4759.0 500.0,4749.0 500.0,4726.0 C 500.0,4706.0 519.0,4701.0 634.0,4688.0 C 690.0,4682.0 739.0,4673.0 744.0,4669.0 C 759.0,4656.0 699.0,4646.0 679.0,4659.0 C 654.0,4674.0 635.0,4673.0 621.0,4657.0 C 607.0,4639.0 637.0,4611.0 705.0,4578.0 C 777.0,4542.0 823.0,4537.0 873.0,4560.0 C 896.0,4570.0 931.0,4582.0 951.0,4585.0 C 971.0,4588.0 997.0,4601.0 1010.0,4615.0 L 1033.0,4640.0 L 993.0,4640.0 C 971.0,4640.0 950.0,4643.0 947.0,4647.0 C 935.0,4658.0 960.0,4678.0 980.0,4673.0 C 992.0,4670.0 1000.0,4673.0 1000.0,4680.0 C 1000.0,4687.0 1007.0,4690.0 1015.0,4687.0 C 1023.0,4683.0 1032.0,4685.0 1035.0,4690.0 C 1039.0,4697.0 1048.0,4696.0 1060.0,4690.0 C 1073.0,4683.0 1081.0,4684.0 1090.0,4695.0 C 1096.0,4702.0 1107.0,4707.0 1114.0,4704.0 C 1121.0,4701.0 1134.0,4710.0 1143.0,4724.0 C 1155.0,4741.0 1172.0,4751.0 1203.0,4755.0 C 1261.0,4764.0 1307.0,4744.0 1364.0,4684.0 C 1401.0,4646.0 1411.0,4640.0 1416.0,4653.0 C 1421.0,4667.0 1426.0,4664.0 1444.0,4637.0 C 1467.0,4603.0 1500.0,4589.0 1500.0,4613.0 C 1500.0,4620.0 1511.0,4632.0 1525.0,4638.0 C 1539.0,4644.0 1550.0,4654.0 1550.0,4659.0 C 1550.0,4664.0 1571.0,4660.0 1598.0,4650.0 C 1624.0,4639.0 1658.0,4628.0 1674.0,4625.0 L 1702.0,4619.0 L 1696.0,4539.0 C 1690.0,4471.0 1691.0,4460.0 1704.0,4460.0 C 1742.0,4460.0 1712.0,4341.0 1664.0,4305.0 C 1626.0,4276.0 1613.0,4245.0 1630.0,4225.0 C 1640.0,4212.0 1637.0,4210.0 1611.0,4210.0 C 1594.0,4210.0 1580.0,4206.0 1580.0,4200.0 C 1580.0,4187.0 1465.0,4187.0 1417.0,4201.0 C 1385.0,4210.0 1374.0,4208.0 1352.0,4193.0 C 1337.0,4184.0 1320.0,4177.0 1314.0,4178.0 C 1299.0,4181.0 1264.0,4140.0 1253.0,4105.0 C 1247.0,4086.0 1236.0,4074.0 1222.0,4072.0 C 1194.0,4068.0 1193.0,4040.0 1220.0,4017.0 C 1231.0,4008.0 1240.0,3992.0 1240.0,3981.0 C 1240.0,3945.0 1252.0,3930.0 1280.0,3930.0 C 1296.0,3930.0 1312.0,3925.0 1315.0,3920.0 C 1319.0,3913.0 1306.0,3910.0 1278.0,3910.0 C 1254.0,3911.0 1227.0,3910.0 1218.0,3910.0 C 1209.0,3909.0 1188.0,3919.0 1171.0,3931.0 C 1148.0,3948.0 1133.0,3951.0 1105.0,3947.0 C 1084.0,3943.0 1060.0,3946.0 1049.0,3953.0 C 1034.0,3962.0 1027.0,3961.0 1010.0,3943.0 C 982.0,3913.0 985.0,3889.0 1019.0,3856.0 C 1041.0,3835.0 1055.0,3829.0 1073.0,3833.0 C 1101.0,3841.0 1140.0,3816.0 1140.0,3792.0 C 1140.0,3782.0 1146.0,3766.0 1154.0,3755.0 C 1161.0,3744.0 1170.0,3719.0 1174.0,3700.0 C 1177.0,3681.0 1194.0,3645.0 1211.0,3620.0 C 1235.0,3584.0 1241.0,3566.0 1239.0,3530.0 C 1238.0,3505.0 1238.0,3479.0 1239.0,3473.0 C 1240.0,3458.0 1305.0,3416.0 1341.0,3407.0 C 1359.0,3402.0 1374.0,3386.0 1391.0,3351.0 L 1415.0,3301.0 L 1466.0,3300.0 C 1502.0,3300.0 1520.0,3296.0 1524.0,3285.0 C 1528.0,3275.0 1538.0,3272.0 1560.0,3276.0 C 1588.0,3282.0 1591.0,3279.0 1609.0,3238.0 L 1629.0,3194.0 L 1599.0,3105.0 C 1567.0,3011.0 1567.0,3002.0 1591.0,2879.0 L 1603.0,2813.0 L 1649.0,2839.0 C 1730.0,2885.0 1826.0,2910.0 1920.0,2910.0 L 2006.0,2910.0 L 2073.0,2854.0 C 2110.0,2824.0 2140.0,2792.0 2140.0,2784.0 C 2140.0,2776.0 2174.0,2720.0 2216.0,2660.0 L 2292.0,2550.0 L 2354.0,2550.0 L 2417.0,2550.0 L 2424.0,2648.0 C 2427.0,2701.0 2433.0,2978.0 2436.0,3262.0 L 2443.0,3780.0 L 2474.0,3786.0 C 2491.0,3789.0 2642.0,3819.0 2810.0,3853.0 L 3114.0,3915.0 L 3125.0,3957.0 C 3139.0,4014.0 3148.0,4021.0 3216.0,4024.0 C 3249.0,4025.0 3281.0,4029.0 3288.0,4034.0 C 3299.0,4040.0 3298.0,4035.0 3287.0,4013.0 C 3258.0,3958.0 3309.0,3932.0 3345.0,3983.0 C 3353.0,3995.0 3360.0,3999.0 3360.0,3992.0 C 3360.0,3985.0 3365.0,3982.0 3370.0,3985.0 C 3381.0,3992.0 3377.0,4093.0 3365.0,4143.0 C 3358.0,4169.0 3360.0,4171.0 3381.0,4168.0 C 3402.0,4165.0 3405.0,4159.0 3408.0,4113.0 C 3410.0,4081.0 3417.0,4057.0 3427.0,4048.0 C 3440.0,4038.0 3444.0,4038.0 3447.0,4048.0 C 3453.0,4065.0 3485.0,4063.0 3500.0,4045.0 C 3507.0,4037.0 3510.0,4020.0 3506.0,4006.0 C 3502.0,3991.0 3505.0,3978.0 3512.0,3974.0 C 3529.0,3963.0 3495.0,3952.0 3445.0,3951.0 C 3392.0,3949.0 3381.0,3941.0 3387.0,3906.0 C 3392.0,3880.0 3395.0,3878.0 3429.0,3884.0 C 3524.0,3901.0 3570.0,3903.0 3574.0,3889.0 C 3576.0,3881.0 3590.0,3822.0 3605.0,3758.0 C 3628.0,3657.0 3630.0,3637.0 3620.0,3605.0 C 3609.0,3571.0 3610.0,3566.0 3633.0,3542.0 C 3646.0,3527.0 3718.0,3434.0 3793.0,3334.0 L 3928.0,3154.0 L 4101.0,3176.0 L 4275.0,3198.0 L 4437.0,3172.0 L 4599.0,3146.0 L 4650.0,3170.0 L 4702.0,3194.0 L 4722.0,3170.0 C 4733.0,3156.0 4747.0,3138.0 4754.0,3129.0 C 4760.0,3120.0 4778.0,3109.0 4795.0,3103.0 C 4818.0,3096.0 4835.0,3075.0 4874.0,3001.0 C 4907.0,2941.0 4928.0,2911.0 4937.0,2915.0 C 4944.0,2918.0 4957.0,2923.0 4965.0,2926.0 C 4978.0,2931.0 4980.0,2913.0 4980.0,2792.0 C 4980.0,2635.0 4977.0,2640.0 5061.0,2640.0 L 5096.0,2640.0 L 5108.0,2565.0 C 5122.0,2475.0 5159.0,2395.0 5192.0,2386.0 C 5205.0,2383.0 5265.0,2380.0 5326.0,2380.0 C 5399.0,2380.0 5452.0,2375.0 5482.0,2364.0 L 5528.0,2349.0 L 5519.0,2312.0 C 5513.0,2283.0 5515.0,2271.0 5528.0,2257.0 C 5556.0,2226.0 5579.0,2218.0 5621.0,2225.0 L 5660.0,2232.0 L 5660.0,2280.0 C 5660.0,2326.0 5662.0,2328.0 5698.0,2343.0 C 5740.0,2361.0 5790.0,2404.0 5790.0,2424.0 C 5790.0,2442.0 5856.0,2500.0 5875.0,2500.0 C 5883.0,2500.0 5901.0,2518.0 5916.0,2539.0 C 5930.0,2561.0 5953.0,2581.0 5966.0,2584.0 C 5983.0,2589.0 5992.0,2600.0 5997.0,2620.0 C 6000.0,2636.0 6009.0,2655.0 6016.0,2661.0 C 6024.0,2667.0 6030.0,2679.0 6030.0,2687.0 C 6030.0,2707.0 6055.0,2713.0 6079.0,2700.0 C 6097.0,2691.0 6104.0,2694.0 6131.0,2725.0 C 6148.0,2744.0 6168.0,2760.0 6175.0,2760.0 C 6199.0,2760.0 6248.0,2810.0 6260.0,2845.0 C 6272.0,2880.0 6318.0,2922.0 6360.0,2935.0 C 6374.0,2939.0 6393.0,2950.0 6403.0,2959.0 C 6434.0,2985.0 6609.0,2976.0 6679.0,2944.0 C 6723.0,2924.0 6742.0,2921.0 6781.0,2926.0 C 6817.0,2931.0 6836.0,2928.0 6854.0,2916.0 C 6882.0,2898.0 6917.0,2895.0 6940.0,2910.0 C 6952.0,2918.0 6953.0,2923.0 6942.0,2937.0 C 6918.0,2971.0 6917.0,2982.0 6934.0,3010.0 C 6943.0,3026.0 6950.0,3051.0 6950.0,3067.0 C 6950.0,3085.0 6959.0,3105.0 6973.0,3117.0 C 7005.0,3146.0 7083.0,3170.0 7125.0,3163.0 C 7153.0,3159.0 7160.0,3161.0 7160.0,3174.0 C 7160.0,3197.0 7180.0,3194.0 7257.0,3161.0 C 7373.0,3112.0 7471.0,3090.0 7569.0,3090.0 C 7650.0,3090.0 7659.0,3092.0 7665.0,3110.0 C 7672.0,3132.0 7678.0,3133.0 7800.0,3135.0 C 7856.0,3136.0 7888.0,3142.0 7925.0,3159.0 C 7968.0,3180.0 7983.0,3182.0 8040.0,3175.0 C 8115.0,3166.0 8115.0,3166.0 8275.0,3180.0 C 8441.0,3194.0 8436.0,3194.0 8523.0,3192.0 C 8598.0,3190.0 8602.0,3189.0 8644.0,3150.0 C 8685.0,3112.0 8691.0,3110.0 8751.0,3110.0 C 8797.0,3110.0 8829.0,3103.0 8865.0,3087.0 L 8915.0,3063.0 L 8915.0,3158.0 C 8915.0,3219.0 8919.0,3255.0 8926.0,3257.0 C 8932.0,3259.0 8946.0,3267.0 8956.0,3275.0 C 8973.0,3287.0 8973.0,3292.0 8962.0,3310.0 C 8955.0,3322.0 8950.0,3333.0 8952.0,3333.0 C 8997.0,3355.0 9016.0,3369.0 9018.0,3384.0 C 9025.0,3418.0 9010.0,3466.0 8975.0,3520.0 C 8956.0,3550.0 8940.0,3582.0 8940.0,3591.0 C 8940.0,3600.0 8933.0,3613.0 8925.0,3620.0 C 8917.0,3627.0 8910.0,3646.0 8910.0,3662.0 C 8910.0,3678.0 8903.0,3707.0 8894.0,3728.0 C 8885.0,3750.0 8880.0,3785.0 8882.0,3815.0 L 8885.0,3865.0 L 8832.0,3865.0 C 8735.0,3865.0 8749.0,3918.0 8855.0,3950.0 C 8877.0,3956.0 8927.0,3970.0 8965.0,3980.0 C 9004.0,3990.0 9069.0,4014.0 9109.0,4034.0 L 9184.0,4070.0 L 9205.0,4050.0 C 9222.0,4034.0 9243.0,4029.0 9299.0,4027.0 C 9380.0,4023.0 9390.0,4031.0 9390.0,4094.0 C 9390.0,4128.0 9388.0,4130.0 9359.0,4130.0 L 9328.0,4130.0 L 9335.0,4188.0 C 9339.0,4219.0 9341.0,4270.0 9341.0,4300.0 C 9340.0,4338.0 9352.0,4398.0 9380.0,4492.0 C 9402.0,4567.0 9420.0,4639.0 9420.0,4653.0 C 9420.0,4698.0 9439.0,4701.0 9526.0,4674.0 C 9597.0,4651.0 9615.0,4649.0 9703.0,4654.0 C 9756.0,4657.0 9800.0,4657.0 9800.0,4653.0 C 9800.0,4648.0 9804.0,4639.0 9808.0,4632.0 C 9814.0,4623.0 9833.0,4628.0 9884.0,4655.0 C 9921.0,4674.0 9958.0,4690.0 9966.0,4690.0 C 9973.0,4690.0 9982.0,4702.0 9986.0,4718.0 C 9989.0,4733.0 9993.0,4751.0 9995.0,4757.0 C 9997.0,4764.0 9993.0,4791.0 9984.0,4817.0 C 9960.0,4897.0 9950.0,4998.0 9962.0,5059.0 C 9974.0,5123.0 9998.0,5150.0 10042.0,5150.0 C 10078.0,5150.0 10130.0,5176.0 10130.0,5194.0 C 10130.0,5201.0 10136.0,5213.0 10144.0,5219.0 C 10153.0,5226.0 10157.0,5252.0 10158.0,5295.0 C 10158.0,5366.0 10170.0,5390.0 10205.0,5390.0 C 10242.0,5390.0 10240.0,5400.0 10194.0,5449.0 C 10133.0,5514.0 10117.0,5545.0 10133.0,5571.0 C 10143.0,5587.0 10142.0,5592.0 10130.0,5600.0 C 10108.0,5614.0 10104.0,5613.0 10092.0,5585.0 C 10086.0,5572.0 10067.0,5554.0 10051.0,5545.0 C 10034.0,5537.0 10018.0,5519.0 10014.0,5505.0 C 10009.0,5486.0 10004.0,5482.0 9991.0,5489.0 C 9954.0,5508.0 9909.0,5510.0 9883.0,5493.0 C 9858.0,5477.0 9857.0,5477.0 9836.0,5502.0 C 9791.0,5558.0 9752.0,5616.0 9746.0,5635.0 C 9740.0,5657.0 9662.0,5710.0 9637.0,5710.0 C 9616.0,5710.0 9590.0,5748.0 9590.0,5780.0 C 9590.0,5800.0 9569.0,5827.0 9507.0,5887.0 L 9425.0,5968.0 L 9356.0,5975.0 C 9298.0,5981.0 9286.0,5980.0 9278.0,5966.0 C 9273.0,5957.0 9256.0,5950.0 9240.0,5950.0 C 9221.0,5950.0 9210.0,5945.0 9210.0,5936.0 C 9210.0,5904.0 9088.0,5884.0 9033.0,5907.0 C 9011.0,5916.0 8984.0,5919.0 8963.0,5915.0 C 8930.0,5909.0 8930.0,5910.0 8930.0,5946.0 L 8930.0,5983.0 L 8893.0,5977.0 C 8872.0,5973.0 8845.0,5973.0 8832.0,5976.0 C 8811.0,5982.0 8810.0,5986.0 8816.0,6031.0 C 8822.0,6073.0 8820.0,6080.0 8806.0,6080.0 C 8797.0,6080.0 8771.0,6089.0 8748.0,6101.0 C 8711.0,6120.0 8706.0,6120.0 8698.0,6106.0 C 8693.0,6097.0 8681.0,6090.0 8671.0,6090.0 C 8646.0,6090.0 8635.0,6049.0 8656.0,6033.0 C 8669.0,6023.0 8667.0,6017.0 8636.0,5987.0 C 8615.0,5966.0 8599.0,5956.0 8596.0,5963.0 C 8594.0,5970.0 8591.0,5965.0 8591.0,5953.0 C 8590.0,5919.0 8576.0,5925.0 8550.0,5973.0 C 8455.0,6142.0 8195.0,6569.0 8078.0,6749.0 L 7936.0,6965.0 L 7743.0,7154.0 C 7637.0,7257.0 7550.0,7346.0 7550.0,7351.0 C 7550.0,7356.0 7561.0,7360.0 7573.0,7360.0 C 7600.0,7360.0 7624.0,7401.0 7615.0,7430.0 C 7612.0,7441.0 7615.0,7450.0 7625.0,7454.0 C 7633.0,7457.0 7640.0,7464.0 7640.0,7470.0 C 7640.0,7487.0 7610.0,7481.0 7583.0,7460.0 C 7552.0,7436.0 7527.0,7435.0 7490.0,7456.0 C 7464.0,7472.0 7462.0,7472.0 7441.0,7451.0 C 7427.0,7437.0 7407.0,7430.0 7384.0,7430.0 C 7364.0,7430.0 7333.0,7421.0 7316.0,7411.0 C 7294.0,7397.0 7280.0,7394.0 7270.0,7400.0 C 7247.0,7414.0 7240.0,7412.0 7240.0,7390.0 C 7240.0,7365.0 7156.0,7306.0 7115.0,7303.0 C 7028.0,7296.0 6980.0,7286.0 6979.0,7276.0 C 6978.0,7270.0 6979.0,7248.0 6980.0,7228.0 C 6981.0,7198.0 6978.0,7191.0 6966.0,7196.0 C 6958.0,7199.0 6950.0,7211.0 6948.0,7223.0 C 6946.0,7238.0 6937.0,7246.0 6920.0,7249.0 C 6906.0,7250.0 6892.0,7256.0 6889.0,7261.0 C 6880.0,7276.0 6821.0,7290.0 6814.0,7278.0 C 6810.0,7273.0 6794.0,7270.0 6776.0,7273.0 C 6754.0,7276.0 6739.0,7272.0 6723.0,7258.0 L 6702.0,7238.0 L 6666.0,7266.0 C 6627.0,7297.0 6623.0,7313.0 6642.0,7357.0 C 6663.0,7403.0 6677.0,7413.0 6715.0,7406.0 L 6750.0,7399.0 L 6750.0,7445.0 C 6750.0,7486.0 6748.0,7490.0 6726.0,7490.0 C 6713.0,7490.0 6697.0,7483.0 6690.0,7475.0 C 6682.0,7465.0 6660.0,7460.0 6628.0,7460.0 C 6583.0,7460.0 6574.0,7464.0 6542.0,7497.0 C 6510.0,7529.0 6435.0,7570.0 6406.0,7570.0 C 6402.0,7570.0 6401.0,7559.0 6404.0,7545.0 C 6409.0,7526.0 6407.0,7522.0 6395.0,7526.0 C 6387.0,7530.0 6373.0,7527.0 6365.0,7520.0 C 6344.0,7503.0 6336.0,7513.0 6349.0,7539.0 C 6356.0,7552.0 6357.0,7561.0 6350.0,7565.0 C 6345.0,7568.0 6340.0,7579.0 6340.0,7589.0 C 6340.0,7606.0 6311.0,7640.0 6297.0,7640.0 C 6293.0,7640.0 6290.0,7609.0 6290.0,7572.0 C 6290.0,7508.0 6288.0,7502.0 6265.0,7492.0 C 6248.0,7484.0 6240.0,7472.0 6240.0,7456.0 C 6240.0,7429.0 6213.0,7417.0 6186.0,7432.0 C 6175.0,7438.0 6158.0,7438.0 6138.0,7431.0 C 6121.0,7425.0 6106.0,7421.0 6105.0,7422.0 C 6104.0,7424.0 6096.0,7436.0 6087.0,7450.0 C 6061.0,7487.0 6065.0,7510.0 6096.0,7510.0 C 6120.0,7510.0 6122.0,7513.0 6115.0,7538.0 C 6110.0,7553.0 6107.0,7593.0 6106.0,7628.0 C 6105.0,7680.0 6101.0,7694.0 6084.0,7708.0 C 6050.0,7734.0 6040.0,7764.0 6040.0,7830.0 C 6040.0,7881.0 6035.0,7897.0 6014.0,7926.0 C 5977.0,7974.0 5931.0,7969.0 5884.0,7913.0 C 5860.0,7884.0 5847.0,7888.0 5778.0,7942.0 C 5743.0,7969.0 5736.0,7971.0 5687.0,7965.0 C 5637.0,7959.0 5631.0,7960.0 5613.0,7984.0 C 5592.0,8010.0 5579.0,8016.0 5567.0,8003.0" fill="pink"/>
	<path d="M 3192.0,3949.0 C 3185.0,3939.0 3180.0,3916.0 3180.0,3898.0 C 3180.0,3871.0 3191.0,3855.0 3247.0,3803.0 C 3300.0,3753.0 3316.0,3743.0 3327.0,3752.0 C 3337.0,3760.0 3339.0,3775.0 3334.0,3804.0 C 3325.0,3859.0 3317.0,3870.0 3309.0,3840.0 C 3303.0,3822.0 3302.0,3829.0 3303.0,3864.0 C 3305.0,3906.0 3301.0,3915.0 3278.0,3933.0 C 3248.0,3955.0 3229.0,3950.0 3250.0,3925.0 C 3261.0,3912.0 3258.0,3910.0 3235.0,3910.0 C 3211.0,3910.0 3208.0,3913.0 3212.0,3935.0 C 3219.0,3967.0 3208.0,3975.0 3192.0,3949.0" fill="pink"/>
</svg>
