<?xml version="1.0" ?>
<svg xmlns="http://www.w3.org/2000/svg" xmlns:ev="http://www.w3.org/2001/xml-events" xmlns:xlink="http://www.w3.org/1999/xlink" baseProfile="full" height="600px" version="1.1" viewBox="819.817339065308 -1023.8930017284547 8591.028618793556 12289.42764394376" width="420px">
	<defs/>
	<path d="M 3638.0,10227.0 C 3588.0,10211.0 3567.0,10180.0 3580.0,10145.0 C 3589.0,10122.0 3585.0,10113.0 3548.0,10069.0 C 3525.0,10042.0 3495.0,10017.0 3481.0,10014.0 C 3430.0,10003.0 3428.0,10001.0 3433.0,9967.0 C 3435.0,9950.0 3444.0,9920.0 3451.0,9902.0 C 3464.0,9872.0 3463.0,9868.0 3447.0,9859.0 C 3425.0,9846.0 3425.0,9827.0 3450.0,9764.0 C 3463.0,9729.0 3467.0,9700.0 3463.0,9676.0 C 3458.0,9644.0 3461.0,9636.0 3481.0,9622.0 C 3494.0,9613.0 3513.0,9607.0 3523.0,9608.0 C 3534.0,9610.0 3540.0,9605.0 3540.0,9591.0 C 3540.0,9579.0 3536.0,9570.0 3530.0,9570.0 C 3512.0,9570.0 3520.0,9552.0 3540.0,9547.0 C 3553.0,9544.0 3560.0,9533.0 3560.0,9517.0 C 3560.0,9504.0 3567.0,9487.0 3575.0,9480.0 C 3588.0,9470.0 3587.0,9463.0 3570.0,9429.0 C 3558.0,9406.0 3550.0,9371.0 3550.0,9338.0 C 3550.0,9293.0 3554.0,9281.0 3581.0,9254.0 C 3618.0,9216.0 3612.0,9200.0 3563.0,9200.0 L 3528.0,9200.0 L 3535.0,9154.0 C 3541.0,9114.0 3539.0,9106.0 3521.0,9093.0 C 3509.0,9085.0 3500.0,9069.0 3500.0,9057.0 C 3500.0,9045.0 3492.0,9019.0 3481.0,9000.0 C 3448.0,8937.0 3446.0,8921.0 3472.0,8884.0 C 3484.0,8866.0 3500.0,8850.0 3506.0,8850.0 C 3524.0,8850.0 3550.0,8815.0 3550.0,8792.0 C 3550.0,8776.0 3543.0,8771.0 3518.0,8768.0 C 3489.0,8765.0 3485.0,8761.0 3482.0,8734.0 C 3479.0,8706.0 3476.0,8704.0 3448.0,8708.0 C 3427.0,8711.0 3412.0,8723.0 3397.0,8747.0 C 3378.0,8780.0 3374.0,8782.0 3333.0,8777.0 C 3298.0,8773.0 3290.0,8775.0 3294.0,8786.0 C 3297.0,8794.0 3302.0,8806.0 3305.0,8813.0 C 3314.0,8833.0 3227.0,8870.0 3171.0,8870.0 C 3144.0,8870.0 3093.0,8861.0 3058.0,8850.0 C 2974.0,8824.0 2963.0,8825.0 2945.0,8859.0 C 2930.0,8888.0 2934.0,8943.0 2955.0,9032.0 C 2961.0,9053.0 2957.0,9061.0 2936.0,9075.0 C 2905.0,9096.0 2903.0,9115.0 2930.0,9155.0 C 2957.0,9196.0 2956.0,9241.0 2926.0,9269.0 L 2902.0,9291.0 L 2880.0,9255.0 C 2848.0,9203.0 2750.0,9141.0 2668.0,9120.0 C 2630.0,9110.0 2585.0,9091.0 2567.0,9077.0 C 2521.0,9042.0 2498.0,9038.0 2457.0,9055.0 C 2390.0,9083.0 2386.0,9080.0 2330.0,8963.0 C 2263.0,8822.0 2231.0,8782.0 2182.0,8778.0 C 2150.0,8775.0 2144.0,8771.0 2140.0,8745.0 C 2137.0,8729.0 2125.0,8696.0 2112.0,8672.0 C 2094.0,8639.0 2092.0,8625.0 2100.0,8610.0 C 2112.0,8587.0 2111.0,8587.0 2164.0,8600.0 C 2216.0,8612.0 2241.0,8599.0 2208.0,8578.0 C 2195.0,8570.0 2168.0,8557.0 2148.0,8549.0 C 2113.0,8537.0 2105.0,8538.0 2058.0,8559.0 C 1982.0,8593.0 1946.0,8596.0 1916.0,8573.0 C 1903.0,8562.0 1870.0,8545.0 1843.0,8535.0 C 1747.0,8499.0 1688.0,8420.0 1644.0,8265.0 C 1615.0,8164.0 1610.0,8153.0 1576.0,8131.0 C 1541.0,8107.0 1540.0,8105.0 1540.0,8045.0 C 1540.0,7974.0 1552.0,7953.0 1598.0,7944.0 C 1630.0,7938.0 1630.0,7938.0 1630.0,7978.0 C 1630.0,8015.0 1633.0,8019.0 1658.0,8022.0 C 1676.0,8024.0 1686.0,8032.0 1688.0,8045.0 C 1691.0,8068.0 1741.0,8100.0 1774.0,8100.0 C 1815.0,8100.0 1837.0,8073.0 1855.0,8003.0 C 1865.0,7965.0 1891.0,7900.0 1913.0,7858.0 C 1951.0,7783.0 1974.0,7763.0 1986.0,7795.0 C 1995.0,7817.0 2020.0,7813.0 2020.0,7790.0 C 2020.0,7778.0 2014.0,7757.0 2006.0,7742.0 C 1999.0,7727.0 1990.0,7700.0 1986.0,7681.0 C 1983.0,7662.0 1969.0,7632.0 1956.0,7615.0 C 1942.0,7598.0 1930.0,7568.0 1928.0,7549.0 C 1926.0,7523.0 1917.0,7511.0 1890.0,7493.0 C 1855.0,7472.0 1845.0,7462.0 1809.0,7421.0 C 1779.0,7387.0 1782.0,7258.0 1816.0,7177.0 C 1861.0,7069.0 1901.0,7042.0 1951.0,7084.0 L 1982.0,7110.0 L 2012.0,7085.0 C 2028.0,7071.0 2049.0,7060.0 2059.0,7060.0 C 2069.0,7060.0 2085.0,7051.0 2095.0,7040.0 C 2105.0,7029.0 2118.0,7020.0 2124.0,7020.0 C 2131.0,7020.0 2169.0,7050.0 2209.0,7086.0 L 2281.0,7153.0 L 2348.0,7142.0 C 2407.0,7132.0 2419.0,7126.0 2450.0,7091.0 C 2490.0,7046.0 2547.0,7031.0 2590.0,7055.0 C 2610.0,7066.0 2619.0,7066.0 2640.0,7055.0 C 2662.0,7043.0 2666.0,7036.0 2662.0,7006.0 C 2658.0,6970.0 2614.0,6920.0 2586.0,6920.0 C 2568.0,6920.0 2551.0,6856.0 2557.0,6810.0 C 2560.0,6788.0 2566.0,6770.0 2569.0,6770.0 C 2573.0,6770.0 2574.0,6712.0 2572.0,6642.0 L 2568.0,6513.0 L 2609.0,6478.0 L 2650.0,6443.0 L 2625.0,6409.0 C 2611.0,6390.0 2592.0,6362.0 2583.0,6346.0 C 2573.0,6329.0 2553.0,6304.0 2537.0,6290.0 C 2514.0,6268.0 2507.0,6249.0 2494.0,6169.0 C 2486.0,6117.0 2481.0,6063.0 2484.0,6049.0 C 2488.0,6029.0 2482.0,6016.0 2462.0,5998.0 C 2447.0,5984.0 2427.0,5970.0 2417.0,5967.0 C 2408.0,5963.0 2395.0,5950.0 2389.0,5936.0 C 2377.0,5911.0 2342.0,5890.0 2310.0,5890.0 C 2297.0,5890.0 2290.0,5883.0 2290.0,5871.0 C 2290.0,5860.0 2279.0,5838.0 2266.0,5823.0 L 2241.0,5793.0 L 2265.0,5743.0 C 2278.0,5714.0 2297.0,5689.0 2308.0,5686.0 C 2334.0,5677.0 2344.0,5651.0 2325.0,5644.0 C 2304.0,5635.0 2304.0,5544.0 2326.0,5536.0 C 2339.0,5531.0 2337.0,5525.0 2316.0,5497.0 C 2288.0,5461.0 2279.0,5397.0 2298.0,5378.0 C 2307.0,5369.0 2300.0,5360.0 2265.0,5338.0 C 2233.0,5318.0 2218.0,5301.0 2214.0,5281.0 C 2209.0,5260.0 2196.0,5247.0 2155.0,5227.0 C 2110.0,5205.0 2102.0,5197.0 2096.0,5165.0 C 2092.0,5145.0 2083.0,5127.0 2076.0,5124.0 C 2068.0,5121.0 2059.0,5104.0 2055.0,5087.0 C 2047.0,5053.0 2045.0,5044.0 2034.0,4965.0 C 2030.0,4936.0 2019.0,4905.0 2006.0,4891.0 C 1985.0,4868.0 1985.0,4868.0 2005.0,4856.0 C 2016.0,4850.0 2056.0,4812.0 2094.0,4773.0 C 2132.0,4733.0 2167.0,4700.0 2172.0,4700.0 C 2177.0,4700.0 2186.0,4714.0 2191.0,4730.0 C 2200.0,4754.0 2208.0,4760.0 2230.0,4760.0 C 2252.0,4760.0 2272.0,4775.0 2323.0,4831.0 C 2377.0,4888.0 2396.0,4902.0 2427.0,4907.0 C 2474.0,4914.0 2493.0,4928.0 2487.0,4952.0 C 2482.0,4968.0 2487.0,4970.0 2518.0,4968.0 C 2539.0,4966.0 2558.0,4961.0 2561.0,4957.0 C 2564.0,4952.0 2590.0,4961.0 2619.0,4977.0 C 2660.0,4999.0 2669.0,5009.0 2666.0,5025.0 C 2659.0,5053.0 2670.0,5066.0 2705.0,5073.0 C 2792.0,5090.0 2842.0,5115.0 2871.0,5156.0 C 2886.0,5178.0 2902.0,5209.0 2906.0,5224.0 C 2909.0,5238.0 2916.0,5252.0 2920.0,5255.0 C 2925.0,5258.0 2954.0,5248.0 2985.0,5233.0 C 3023.0,5214.0 3045.0,5209.0 3054.0,5215.0 C 3061.0,5221.0 3100.0,5247.0 3140.0,5273.0 C 3180.0,5300.0 3224.0,5335.0 3237.0,5351.0 C 3278.0,5399.0 3347.0,5382.0 3363.0,5321.0 C 3367.0,5302.0 3389.0,5261.0 3410.0,5230.0 C 3440.0,5186.0 3457.0,5171.0 3487.0,5162.0 C 3508.0,5156.0 3535.0,5138.0 3547.0,5123.0 C 3585.0,5070.0 3648.0,5035.0 3714.0,5030.0 C 3770.0,5025.0 3775.0,5023.0 3785.0,4996.0 C 3793.0,4972.0 3791.0,4965.0 3772.0,4950.0 C 3760.0,4940.0 3750.0,4922.0 3750.0,4909.0 C 3750.0,4879.0 3798.0,4830.0 3827.0,4830.0 C 3846.0,4830.0 3850.0,4835.0 3850.0,4864.0 C 3850.0,4894.0 3854.0,4898.0 3882.0,4904.0 C 3900.0,4907.0 3923.0,4919.0 3935.0,4929.0 C 3946.0,4939.0 3969.0,4950.0 3985.0,4953.0 C 4002.0,4956.0 4035.0,4966.0 4060.0,4975.0 C 4122.0,4998.0 4177.0,4996.0 4205.0,4970.0 C 4223.0,4953.0 4232.0,4950.0 4248.0,4959.0 C 4278.0,4975.0 4304.0,5021.0 4310.0,5070.0 C 4314.0,5103.0 4321.0,5117.0 4337.0,5126.0 C 4375.0,5144.0 4397.0,5170.0 4404.0,5201.0 C 4411.0,5238.0 4461.0,5270.0 4512.0,5270.0 C 4532.0,5270.0 4555.0,5273.0 4564.0,5276.0 C 4578.0,5281.0 4577.0,5285.0 4560.0,5307.0 C 4549.0,5321.0 4540.0,5337.0 4540.0,5341.0 C 4540.0,5346.0 4557.0,5366.0 4578.0,5385.0 C 4609.0,5414.0 4620.0,5419.0 4645.0,5414.0 C 4662.0,5411.0 4706.0,5404.0 4743.0,5399.0 C 4815.0,5390.0 4913.0,5343.0 4976.0,5287.0 C 5001.0,5266.0 5023.0,5257.0 5065.0,5253.0 C 5115.0,5248.0 5123.0,5244.0 5137.0,5216.0 C 5159.0,5174.0 5170.0,5169.0 5201.0,5187.0 C 5243.0,5212.0 5273.0,5198.0 5323.0,5128.0 C 5358.0,5077.0 5370.0,5051.0 5379.0,4995.0 C 5389.0,4939.0 5401.0,4909.0 5441.0,4848.0 C 5470.0,4804.0 5498.0,4747.0 5507.0,4713.0 C 5517.0,4674.0 5533.0,4643.0 5555.0,4620.0 C 5573.0,4601.0 5611.0,4538.0 5639.0,4480.0 C 5700.0,4354.0 5702.0,4351.0 5762.0,4316.0 C 5788.0,4301.0 5838.0,4260.0 5873.0,4225.0 C 5924.0,4174.0 5944.0,4145.0 5970.0,4084.0 C 5999.0,4014.0 6001.0,4001.0 5995.0,3941.0 C 5985.0,3843.0 5934.0,3702.0 5893.0,3659.0 L 5859.0,3623.0 L 5855.0,3457.0 C 5851.0,3312.0 5848.0,3284.0 5828.0,3238.0 C 5814.0,3205.0 5806.0,3165.0 5805.0,3130.0 C 5805.0,3080.0 5809.0,3070.0 5847.0,3022.0 C 5879.0,2982.0 5891.0,2957.0 5896.0,2919.0 C 5902.0,2878.0 5909.0,2864.0 5937.0,2843.0 C 5984.0,2807.0 6020.0,2733.0 6020.0,2673.0 C 6020.0,2577.0 6076.0,2529.0 6277.0,2455.0 C 6341.0,2431.0 6397.0,2406.0 6401.0,2399.0 C 6406.0,2390.0 6393.0,2375.0 6359.0,2353.0 C 6332.0,2334.0 6310.0,2313.0 6310.0,2304.0 C 6310.0,2296.0 6318.0,2273.0 6329.0,2252.0 C 6339.0,2232.0 6351.0,2200.0 6355.0,2182.0 C 6362.0,2148.0 6400.0,2120.0 6439.0,2120.0 C 6495.0,2120.0 6553.0,2055.0 6581.0,1963.0 C 6593.0,1921.0 6592.0,1920.0 6557.0,1881.0 C 6535.0,1857.0 6519.0,1827.0 6515.0,1803.0 C 6501.0,1724.0 6496.0,1715.0 6454.0,1709.0 C 6406.0,1702.0 6360.0,1683.0 6360.0,1672.0 C 6360.0,1652.0 6408.0,1620.0 6438.0,1620.0 C 6466.0,1620.0 6470.0,1616.0 6470.0,1595.0 C 6470.0,1577.0 6463.0,1567.0 6444.0,1559.0 C 6429.0,1554.0 6396.0,1532.0 6370.0,1510.0 C 6308.0,1458.0 6299.0,1421.0 6338.0,1375.0 C 6353.0,1356.0 6371.0,1341.0 6378.0,1341.0 C 6384.0,1340.0 6390.0,1332.0 6390.0,1321.0 C 6390.0,1311.0 6402.0,1286.0 6416.0,1265.0 C 6443.0,1225.0 6438.0,1210.0 6395.0,1210.0 C 6377.0,1210.0 6375.0,1205.0 6378.0,1175.0 C 6381.0,1149.0 6378.0,1139.0 6366.0,1134.0 C 6355.0,1130.0 6352.0,1121.0 6355.0,1110.0 C 6359.0,1096.0 6355.0,1091.0 6338.0,1088.0 C 6317.0,1085.0 6314.0,1078.0 6308.0,1008.0 C 6304.0,966.0 6296.0,913.0 6290.0,891.0 C 6283.0,865.0 6283.0,843.0 6290.0,826.0 C 6299.0,802.0 6295.0,796.0 6230.0,744.0 C 6191.0,713.0 6160.0,682.0 6160.0,675.0 C 6160.0,664.0 6121.0,654.0 6048.0,646.0 C 6033.0,645.0 6015.0,638.0 6007.0,631.0 C 5999.0,625.0 5986.0,622.0 5977.0,626.0 C 5969.0,629.0 5959.0,627.0 5955.0,621.0 C 5952.0,615.0 5938.0,610.0 5926.0,610.0 C 5907.0,610.0 5901.0,603.0 5897.0,577.0 C 5894.0,557.0 5897.0,542.0 5905.0,538.0 C 5912.0,534.0 5921.0,518.0 5924.0,504.0 C 5933.0,471.0 5990.0,382.0 6018.0,356.0 C 6037.0,339.0 6050.0,338.0 6149.0,344.0 C 6239.0,350.0 6263.0,349.0 6289.0,336.0 C 6306.0,327.0 6320.0,313.0 6320.0,304.0 C 6320.0,294.0 6326.0,291.0 6339.0,295.0 C 6349.0,298.0 6362.0,295.0 6368.0,288.0 C 6374.0,281.0 6399.0,266.0 6424.0,255.0 C 6454.0,242.0 6470.0,229.0 6470.0,217.0 C 6470.0,194.0 6484.0,167.0 6531.0,104.0 C 6568.0,53.0 6570.0,52.0 6633.0,46.0 C 6669.0,42.0 6715.0,30.0 6735.0,19.0 C 6771.0,0.0 6773.0,0.0 6786.0,17.0 C 6793.0,27.0 6800.0,42.0 6800.0,50.0 C 6800.0,77.0 6829.0,107.0 6860.0,113.0 C 6899.0,121.0 6899.0,142.0 6860.0,187.0 C 6836.0,214.0 6830.0,230.0 6830.0,265.0 C 6830.0,304.0 6826.0,311.0 6801.0,324.0 C 6769.0,341.0 6760.0,358.0 6760.0,401.0 C 6760.0,418.0 6755.0,440.0 6749.0,451.0 C 6738.0,473.0 6746.0,512.0 6758.0,495.0 C 6772.0,475.0 6823.0,458.0 6830.0,471.0 C 6835.0,479.0 6856.0,480.0 6898.0,475.0 C 6931.0,471.0 6967.0,471.0 6978.0,474.0 C 6996.0,480.0 7026.0,534.0 7032.0,574.0 C 7035.0,591.0 7038.0,591.0 7066.0,566.0 C 7092.0,545.0 7108.0,540.0 7152.0,540.0 C 7209.0,540.0 7230.0,552.0 7230.0,583.0 C 7230.0,599.0 7235.0,601.0 7256.0,596.0 C 7279.0,590.0 7282.0,592.0 7278.0,608.0 C 7273.0,624.0 7281.0,631.0 7313.0,644.0 C 7361.0,663.0 7370.0,656.0 7370.0,598.0 C 7370.0,568.0 7374.0,561.0 7392.0,558.0 C 7407.0,556.0 7417.0,545.0 7424.0,523.0 C 7429.0,505.0 7437.0,490.0 7441.0,490.0 C 7446.0,490.0 7459.0,481.0 7470.0,470.0 C 7481.0,459.0 7500.0,450.0 7513.0,450.0 C 7532.0,450.0 7538.0,442.0 7548.0,405.0 C 7555.0,380.0 7575.0,343.0 7593.0,324.0 C 7623.0,291.0 7629.0,289.0 7649.0,300.0 C 7671.0,311.0 7699.0,310.0 7748.0,295.0 C 7762.0,290.0 7770.0,292.0 7770.0,300.0 C 7770.0,315.0 7861.0,399.0 7878.0,400.0 C 7884.0,400.0 7890.0,396.0 7890.0,392.0 C 7890.0,387.0 7896.0,376.0 7903.0,366.0 C 7916.0,349.0 7920.0,350.0 7991.0,383.0 C 8032.0,403.0 8074.0,420.0 8085.0,422.0 C 8097.0,424.0 8106.0,434.0 8108.0,448.0 C 8110.0,460.0 8122.0,481.0 8136.0,495.0 C 8149.0,508.0 8160.0,524.0 8160.0,530.0 C 8160.0,546.0 8208.0,511.0 8215.0,489.0 C 8221.0,471.0 8267.0,440.0 8288.0,440.0 C 8292.0,440.0 8306.0,460.0 8318.0,485.0 C 8332.0,515.0 8348.0,532.0 8364.0,536.0 C 8378.0,539.0 8401.0,558.0 8416.0,577.0 C 8439.0,607.0 8441.0,616.0 8431.0,632.0 C 8421.0,648.0 8422.0,654.0 8436.0,664.0 C 8450.0,675.0 8451.0,679.0 8439.0,698.0 C 8421.0,727.0 8435.0,749.0 8483.0,773.0 C 8523.0,792.0 8531.0,815.0 8502.0,824.0 C 8492.0,828.0 8469.0,844.0 8452.0,861.0 C 8427.0,885.0 8420.0,901.0 8420.0,930.0 C 8420.0,966.0 8421.0,968.0 8461.0,973.0 C 8485.0,976.0 8511.0,974.0 8522.0,967.0 C 8538.0,957.0 8544.0,959.0 8561.0,979.0 C 8571.0,992.0 8580.0,1011.0 8580.0,1021.0 C 8580.0,1032.0 8590.0,1045.0 8603.0,1051.0 C 8615.0,1056.0 8634.0,1081.0 8645.0,1105.0 C 8656.0,1130.0 8670.0,1150.0 8677.0,1150.0 C 8703.0,1150.0 8690.0,1200.0 8654.0,1240.0 C 8623.0,1274.0 8619.0,1285.0 8624.0,1311.0 C 8632.0,1352.0 8617.0,1377.0 8580.0,1385.0 C 8544.0,1393.0 8536.0,1404.0 8549.0,1428.0 C 8565.0,1457.0 8521.0,1497.0 8464.0,1506.0 C 8414.0,1513.0 8411.0,1517.0 8389.0,1604.0 C 8380.0,1640.0 8369.0,1657.0 8348.0,1669.0 C 8326.0,1682.0 8320.0,1692.0 8320.0,1721.0 C 8320.0,1748.0 8313.0,1763.0 8289.0,1784.0 C 8261.0,1809.0 8260.0,1813.0 8274.0,1829.0 C 8283.0,1839.0 8290.0,1860.0 8290.0,1876.0 C 8290.0,1904.0 8293.0,1906.0 8368.0,1928.0 C 8411.0,1940.0 8460.0,1950.0 8478.0,1950.0 C 8512.0,1950.0 8517.0,1954.0 8556.0,2014.0 C 8577.0,2046.0 8580.0,2060.0 8575.0,2091.0 L 8568.0,2130.0 L 8510.0,2130.0 L 8451.0,2130.0 L 8425.0,2174.0 C 8405.0,2208.0 8388.0,2223.0 8354.0,2236.0 C 8299.0,2257.0 8288.0,2277.0 8296.0,2337.0 C 8304.0,2402.0 8276.0,2435.0 8202.0,2445.0 C 8151.0,2452.0 8144.0,2457.0 8092.0,2520.0 C 8037.0,2587.0 8025.0,2637.0 8056.0,2671.0 C 8071.0,2688.0 8070.0,2691.0 8050.0,2719.0 C 8023.0,2758.0 8007.0,2758.0 7981.0,2718.0 C 7970.0,2700.0 7952.0,2679.0 7941.0,2672.0 C 7929.0,2665.0 7920.0,2653.0 7920.0,2646.0 C 7920.0,2617.0 7885.0,2624.0 7853.0,2659.0 C 7819.0,2696.0 7802.0,2754.0 7820.0,2774.0 C 7835.0,2793.0 7823.0,2820.0 7784.0,2857.0 L 7750.0,2889.0 L 7750.0,3012.0 C 7750.0,3089.0 7756.0,3156.0 7765.0,3190.0 C 7785.0,3265.0 7784.0,3279.0 7760.0,3273.0 C 7748.0,3270.0 7729.0,3278.0 7709.0,3294.0 C 7692.0,3308.0 7675.0,3320.0 7670.0,3320.0 C 7656.0,3320.0 7641.0,3376.0 7651.0,3391.0 C 7663.0,3411.0 7662.0,3420.0 7647.0,3420.0 C 7632.0,3420.0 7610.0,3461.0 7610.0,3489.0 C 7610.0,3499.0 7603.0,3513.0 7595.0,3520.0 C 7577.0,3535.0 7575.0,3567.0 7593.0,3573.0 C 7602.0,3576.0 7600.0,3582.0 7588.0,3597.0 C 7578.0,3608.0 7570.0,3629.0 7570.0,3643.0 C 7570.0,3675.0 7541.0,3681.0 7533.0,3650.0 C 7530.0,3639.0 7520.0,3630.0 7510.0,3630.0 C 7492.0,3630.0 7460.0,3660.0 7460.0,3677.0 C 7460.0,3682.0 7449.0,3693.0 7435.0,3700.0 C 7421.0,3707.0 7410.0,3721.0 7410.0,3730.0 C 7410.0,3739.0 7397.0,3756.0 7381.0,3768.0 C 7352.0,3789.0 7328.0,3826.0 7274.0,3925.0 C 7206.0,4052.0 7138.0,4149.0 7104.0,4165.0 C 7081.0,4176.0 7070.0,4188.0 7070.0,4203.0 C 7070.0,4215.0 7054.0,4245.0 7035.0,4269.0 C 6995.0,4319.0 6996.0,4315.0 7011.0,4342.0 C 7021.0,4361.0 7018.0,4367.0 6989.0,4391.0 L 6955.0,4419.0 L 6971.0,4462.0 C 6980.0,4486.0 6990.0,4513.0 6995.0,4522.0 C 6999.0,4534.0 6994.0,4547.0 6976.0,4565.0 C 6962.0,4579.0 6950.0,4599.0 6950.0,4610.0 C 6950.0,4620.0 6937.0,4649.0 6920.0,4673.0 C 6900.0,4702.0 6890.0,4730.0 6890.0,4754.0 C 6890.0,4785.0 6886.0,4792.0 6858.0,4804.0 C 6827.0,4817.0 6824.0,4816.0 6805.0,4794.0 C 6780.0,4765.0 6753.0,4763.0 6724.0,4791.0 C 6706.0,4807.0 6703.0,4819.0 6708.0,4856.0 C 6713.0,4899.0 6712.0,4900.0 6682.0,4900.0 C 6661.0,4900.0 6651.0,4906.0 6647.0,4920.0 C 6644.0,4931.0 6628.0,4948.0 6611.0,4957.0 C 6577.0,4977.0 6571.0,5004.0 6597.0,5032.0 C 6612.0,5049.0 6611.0,5051.0 6581.0,5061.0 C 6564.0,5067.0 6545.0,5080.0 6540.0,5090.0 C 6524.0,5120.0 6528.0,5209.0 6547.0,5243.0 C 6578.0,5300.0 6591.0,5310.0 6611.0,5299.0 C 6628.0,5290.0 6630.0,5293.0 6630.0,5323.0 C 6630.0,5342.0 6623.0,5363.0 6615.0,5370.0 C 6607.0,5377.0 6600.0,5391.0 6600.0,5401.0 C 6600.0,5414.0 6593.0,5420.0 6577.0,5420.0 C 6564.0,5420.0 6532.0,5431.0 6506.0,5444.0 C 6480.0,5457.0 6443.0,5471.0 6424.0,5474.0 C 6400.0,5479.0 6390.0,5486.0 6390.0,5499.0 C 6390.0,5530.0 6358.0,5550.0 6318.0,5544.0 C 6289.0,5539.0 6278.0,5542.0 6264.0,5559.0 C 6254.0,5570.0 6235.0,5580.0 6223.0,5580.0 C 6206.0,5580.0 6196.0,5590.0 6186.0,5615.0 C 6176.0,5637.0 6160.0,5654.0 6143.0,5661.0 C 6103.0,5676.0 6012.0,5768.0 6005.0,5802.0 C 5998.0,5833.0 5966.0,5855.0 5934.0,5851.0 C 5911.0,5849.0 5880.0,5887.0 5880.0,5918.0 C 5880.0,5930.0 5868.0,5940.0 5845.0,5949.0 C 5825.0,5956.0 5800.0,5975.0 5788.0,5991.0 C 5776.0,6007.0 5757.0,6020.0 5745.0,6020.0 C 5719.0,6020.0 5700.0,6038.0 5707.0,6056.0 C 5710.0,6064.0 5707.0,6070.0 5701.0,6070.0 C 5695.0,6070.0 5690.0,6078.0 5690.0,6089.0 C 5690.0,6100.0 5678.0,6112.0 5661.0,6120.0 C 5645.0,6126.0 5620.0,6145.0 5604.0,6161.0 C 5581.0,6185.0 5568.0,6190.0 5530.0,6190.0 C 5482.0,6190.0 5440.0,6211.0 5440.0,6236.0 C 5440.0,6244.0 5433.0,6250.0 5425.0,6250.0 C 5417.0,6250.0 5410.0,6259.0 5410.0,6270.0 C 5410.0,6284.0 5403.0,6290.0 5389.0,6290.0 C 5378.0,6290.0 5372.0,6295.0 5375.0,6300.0 C 5378.0,6306.0 5390.0,6310.0 5400.0,6310.0 C 5410.0,6310.0 5432.0,6322.0 5449.0,6336.0 C 5466.0,6350.0 5496.0,6364.0 5517.0,6366.0 C 5583.0,6376.0 5607.0,6389.0 5613.0,6420.0 C 5617.0,6437.0 5628.0,6451.0 5640.0,6455.0 C 5671.0,6465.0 5665.0,6509.0 5625.0,6566.0 C 5591.0,6614.0 5584.0,6642.0 5596.0,6674.0 C 5605.0,6696.0 5637.0,6694.0 5650.0,6670.0 C 5661.0,6649.0 5725.0,6641.0 5732.0,6660.0 C 5740.0,6685.0 5900.0,6667.0 5900.0,6641.0 C 5900.0,6635.0 5923.0,6634.0 5954.0,6637.0 C 6007.0,6642.0 6009.0,6642.0 6024.0,6611.0 C 6033.0,6594.0 6045.0,6580.0 6050.0,6580.0 C 6055.0,6580.0 6071.0,6568.0 6085.0,6554.0 C 6106.0,6534.0 6119.0,6529.0 6153.0,6531.0 C 6176.0,6532.0 6204.0,6529.0 6216.0,6522.0 C 6235.0,6512.0 6239.0,6515.0 6258.0,6559.0 C 6285.0,6621.0 6335.0,6663.0 6362.0,6647.0 C 6378.0,6637.0 6383.0,6638.0 6391.0,6653.0 C 6397.0,6663.0 6413.0,6670.0 6429.0,6670.0 C 6445.0,6670.0 6463.0,6677.0 6470.0,6685.0 C 6488.0,6707.0 6473.0,6755.0 6443.0,6769.0 C 6422.0,6778.0 6420.0,6783.0 6430.0,6795.0 C 6454.0,6824.0 6574.0,6880.0 6612.0,6880.0 L 6650.0,6880.0 L 6650.0,6924.0 C 6650.0,6949.0 6655.0,6972.0 6660.0,6975.0 C 6666.0,6979.0 6663.0,6991.0 6650.0,7007.0 C 6626.0,7038.0 6625.0,7048.0 6646.0,7071.0 C 6660.0,7087.0 6660.0,7089.0 6638.0,7095.0 C 6625.0,7099.0 6600.0,7116.0 6582.0,7132.0 C 6553.0,7157.0 6540.0,7161.0 6497.0,7160.0 C 6433.0,7158.0 6375.0,7172.0 6376.0,7188.0 C 6377.0,7195.0 6378.0,7213.0 6379.0,7229.0 C 6380.0,7249.0 6387.0,7261.0 6400.0,7265.0 C 6428.0,7274.0 6425.0,7307.0 6393.0,7339.0 C 6377.0,7355.0 6357.0,7379.0 6347.0,7393.0 C 6333.0,7414.0 6321.0,7420.0 6292.0,7420.0 C 6272.0,7421.0 6237.0,7428.0 6215.0,7436.0 C 6193.0,7445.0 6165.0,7454.0 6153.0,7457.0 C 6126.0,7463.0 6096.0,7495.0 6104.0,7509.0 C 6108.0,7515.0 6136.0,7527.0 6166.0,7537.0 C 6210.0,7551.0 6225.0,7552.0 6240.0,7542.0 C 6273.0,7522.0 6298.0,7528.0 6314.0,7559.0 C 6323.0,7575.0 6348.0,7604.0 6370.0,7622.0 C 6392.0,7641.0 6410.0,7664.0 6410.0,7672.0 C 6410.0,7681.0 6379.0,7707.0 6341.0,7730.0 C 6286.0,7763.0 6270.0,7778.0 6265.0,7801.0 C 6260.0,7822.0 6248.0,7836.0 6224.0,7847.0 C 6205.0,7856.0 6190.0,7869.0 6190.0,7876.0 C 6190.0,7883.0 6182.0,7891.0 6172.0,7894.0 C 6162.0,7898.0 6140.0,7928.0 6124.0,7963.0 C 6098.0,8018.0 6091.0,8025.0 6067.0,8023.0 C 6047.0,8022.0 6040.0,8026.0 6040.0,8039.0 C 6040.0,8061.0 5988.0,8100.0 5957.0,8100.0 C 5945.0,8100.0 5929.0,8105.0 5923.0,8111.0 C 5907.0,8127.0 5842.0,8113.0 5828.0,8090.0 C 5819.0,8076.0 5809.0,8072.0 5792.0,8077.0 C 5770.0,8082.0 5678.0,8059.0 5636.0,8038.0 C 5623.0,8031.0 5615.0,8032.0 5610.0,8040.0 C 5605.0,8048.0 5592.0,8050.0 5576.0,8046.0 C 5557.0,8041.0 5550.0,8033.0 5550.0,8016.0 C 5550.0,8003.0 5543.0,7990.0 5535.0,7986.0 C 5525.0,7982.0 5522.0,7972.0 5526.0,7950.0 C 5532.0,7921.0 5531.0,7920.0 5498.0,7920.0 C 5464.0,7920.0 5462.0,7918.0 5456.0,7880.0 C 5451.0,7846.0 5446.0,7840.0 5425.0,7840.0 C 5411.0,7840.0 5400.0,7846.0 5400.0,7853.0 C 5400.0,7860.0 5378.0,7889.0 5352.0,7918.0 C 5317.0,7956.0 5296.0,7970.0 5277.0,7970.0 C 5245.0,7970.0 5210.0,8002.0 5210.0,8030.0 C 5210.0,8052.0 5194.0,8055.0 5157.0,8041.0 C 5138.0,8034.0 5121.0,8039.0 5071.0,8065.0 C 5036.0,8084.0 5002.0,8096.0 4995.0,8094.0 C 4988.0,8091.0 4979.0,8093.0 4975.0,8099.0 C 4972.0,8105.0 4962.0,8110.0 4954.0,8110.0 C 4928.0,8110.0 4840.0,8191.0 4841.0,8214.0 C 4841.0,8225.0 4827.0,8272.0 4809.0,8316.0 C 4783.0,8379.0 4770.0,8400.0 4749.0,8407.0 C 4729.0,8415.0 4722.0,8426.0 4717.0,8456.0 C 4713.0,8477.0 4703.0,8508.0 4695.0,8524.0 C 4687.0,8539.0 4680.0,8565.0 4680.0,8580.0 C 4680.0,8612.0 4657.0,8640.0 4631.0,8640.0 C 4621.0,8640.0 4607.0,8646.0 4601.0,8654.0 C 4592.0,8665.0 4598.0,8670.0 4635.0,8681.0 C 4675.0,8693.0 4680.0,8698.0 4680.0,8723.0 C 4680.0,8740.0 4694.0,8769.0 4715.0,8797.0 C 4763.0,8860.0 4762.0,8875.0 4713.0,8843.0 C 4687.0,8826.0 4686.0,8826.0 4693.0,8843.0 C 4697.0,8853.0 4700.0,8866.0 4700.0,8871.0 C 4700.0,8876.0 4708.0,8884.0 4718.0,8888.0 C 4727.0,8892.0 4759.0,8921.0 4789.0,8952.0 L 4842.0,9010.0 L 4838.0,9071.0 C 4833.0,9141.0 4817.0,9160.0 4763.0,9160.0 L 4730.0,9160.0 L 4730.0,9235.0 C 4730.0,9302.0 4728.0,9310.0 4711.0,9310.0 C 4695.0,9310.0 4691.0,9300.0 4685.0,9258.0 C 4678.0,9203.0 4658.0,9178.0 4596.0,9144.0 C 4573.0,9131.0 4563.0,9131.0 4540.0,9140.0 L 4511.0,9152.0 L 4511.0,9250.0 C 4511.0,9314.0 4507.0,9356.0 4498.0,9369.0 C 4487.0,9387.0 4487.0,9392.0 4499.0,9399.0 C 4520.0,9412.0 4498.0,9443.0 4441.0,9479.0 C 4389.0,9513.0 4373.0,9537.0 4390.0,9554.0 C 4408.0,9572.0 4401.0,9595.0 4370.0,9625.0 C 4354.0,9641.0 4340.0,9664.0 4340.0,9677.0 C 4340.0,9689.0 4331.0,9704.0 4321.0,9710.0 C 4310.0,9715.0 4298.0,9729.0 4295.0,9740.0 C 4292.0,9751.0 4283.0,9760.0 4277.0,9760.0 C 4270.0,9760.0 4260.0,9770.0 4255.0,9783.0 C 4249.0,9795.0 4235.0,9809.0 4223.0,9815.0 C 4211.0,9820.0 4199.0,9833.0 4196.0,9843.0 C 4194.0,9854.0 4187.0,9859.0 4181.0,9856.0 C 4169.0,9848.0 4112.0,9958.0 4085.0,10038.0 C 4076.0,10067.0 4057.0,10104.0 4044.0,10120.0 C 4023.0,10145.0 4016.0,10147.0 3990.0,10140.0 C 3974.0,10135.0 3935.0,10132.0 3904.0,10132.0 C 3851.0,10133.0 3838.0,10127.0 3827.0,10096.0 C 3825.0,10090.0 3810.0,10096.0 3793.0,10108.0 C 3771.0,10123.0 3759.0,10144.0 3748.0,10182.0 C 3735.0,10230.0 3731.0,10235.0 3704.0,10237.0 C 3688.0,10238.0 3658.0,10234.0 3638.0,10227.0" fill="pink"/>
</svg>
