<?xml version="1.0" ?>
<svg xmlns="http://www.w3.org/2000/svg" xmlns:ev="http://www.w3.org/2001/xml-events" xmlns:xlink="http://www.w3.org/1999/xlink" baseProfile="full" height="600px" version="1.1" viewBox="354.3109949581079 -1028.9839860646214 9533.074827365162 12296.614599637913" width="466px">
	<defs/>
	<path d="M 7474.0,10223.0 C 7447.0,10210.0 7441.0,10199.0 7431.0,10152.0 C 7425.0,10122.0 7419.0,10065.0 7419.0,10026.0 C 7417.0,9899.0 7416.0,9898.0 7331.0,9881.0 C 7261.0,9868.0 7253.0,9868.0 7180.0,9889.0 C 7119.0,9907.0 7098.0,9909.0 7081.0,9901.0 C 7070.0,9895.0 7049.0,9892.0 7036.0,9896.0 C 7021.0,9900.0 7000.0,9895.0 6982.0,9884.0 C 6953.0,9867.0 6951.0,9867.0 6905.0,9894.0 C 6859.0,9922.0 6858.0,9922.0 6774.0,9910.0 C 6702.0,9900.0 6686.0,9900.0 6667.0,9913.0 C 6645.0,9927.0 6593.0,9932.0 6443.0,9932.0 C 6414.0,9932.0 6368.0,9924.0 6340.0,9915.0 C 6298.0,9901.0 6262.0,9899.0 6147.0,9902.0 C 5987.0,9908.0 5896.0,9930.0 5823.0,9981.0 C 5791.0,10004.0 5771.0,10010.0 5731.0,10010.0 C 5687.0,10010.0 5680.0,10007.0 5680.0,9991.0 C 5680.0,9980.0 5701.0,9905.0 5728.0,9823.0 L 5775.0,9675.0 L 5773.0,9515.0 C 5771.0,9427.0 5765.0,9324.0 5759.0,9287.0 C 5748.0,9220.0 5747.0,9217.0 5703.0,9192.0 C 5678.0,9177.0 5633.0,9145.0 5602.0,9121.0 C 5570.0,9098.0 5532.0,9071.0 5515.0,9063.0 C 5499.0,9054.0 5450.0,9016.0 5407.0,8978.0 C 5303.0,8887.0 5269.0,8865.0 5180.0,8835.0 C 5114.0,8812.0 5090.0,8810.0 4975.0,8810.0 C 4904.0,8811.0 4837.0,8809.0 4828.0,8805.0 C 4796.0,8792.0 4805.0,8733.0 4845.0,8689.0 C 4884.0,8646.0 4885.0,8635.0 4868.0,8560.0 C 4855.0,8505.0 4837.0,8486.0 4749.0,8440.0 C 4700.0,8414.0 4550.0,8314.0 4514.0,8282.0 C 4488.0,8260.0 4450.0,8188.0 4450.0,8161.0 C 4450.0,8151.0 4435.0,8109.0 4416.0,8069.0 C 4398.0,8028.0 4375.0,7974.0 4366.0,7948.0 C 4346.0,7893.0 4324.0,7884.0 4245.0,7899.0 C 4206.0,7906.0 4189.0,7905.0 4165.0,7893.0 C 4127.0,7873.0 4120.0,7863.0 4120.0,7820.0 C 4120.0,7793.0 4108.0,7770.0 4069.0,7721.0 L 4017.0,7658.0 L 4030.0,7576.0 C 4060.0,7390.0 4060.0,7393.0 3984.0,7267.0 C 3929.0,7178.0 3912.0,7140.0 3898.0,7075.0 C 3882.0,7000.0 3882.0,6990.0 3897.0,6908.0 C 3910.0,6841.0 3918.0,6819.0 3932.0,6814.0 C 3947.0,6810.0 3950.0,6798.0 3950.0,6753.0 C 3950.0,6704.0 3954.0,6693.0 3985.0,6659.0 L 4020.0,6620.0 L 4000.0,6569.0 C 3988.0,6541.0 3975.0,6473.0 3970.0,6419.0 C 3961.0,6327.0 3957.0,6315.0 3910.0,6232.0 C 3866.0,6154.0 3860.0,6137.0 3860.0,6086.0 C 3860.0,6030.0 3862.0,6026.0 3910.0,5973.0 C 3945.0,5934.0 3960.0,5910.0 3960.0,5890.0 C 3960.0,5865.0 3954.0,5860.0 3910.0,5845.0 C 3824.0,5816.0 3772.0,5736.0 3701.0,5517.0 C 3686.0,5474.0 3660.0,5426.0 3627.0,5383.0 C 3566.0,5304.0 3529.0,5290.0 3421.0,5302.0 C 3340.0,5311.0 3123.0,5312.0 3093.0,5304.0 C 3059.0,5295.0 3062.0,5234.0 3100.0,5167.0 C 3134.0,5106.0 3137.0,5072.0 3120.0,4880.0 C 3103.0,4685.0 3085.0,4615.0 3032.0,4541.0 C 2964.0,4446.0 2941.0,4380.0 2940.0,4290.0 C 2940.0,4197.0 2901.0,4069.0 2862.0,4036.0 C 2815.0,3996.0 2810.0,3988.0 2810.0,3956.0 C 2810.0,3886.0 2790.0,3816.0 2761.0,3785.0 C 2695.0,3714.0 2675.0,3654.0 2651.0,3458.0 C 2644.0,3393.0 2635.0,3369.0 2598.0,3308.0 C 2570.0,3262.0 2547.0,3207.0 2535.0,3160.0 C 2517.0,3085.0 2426.0,2890.0 2329.0,2720.0 C 2271.0,2617.0 2184.0,2540.0 2127.0,2540.0 C 2085.0,2540.0 2076.0,2530.0 2060.0,2460.0 C 2053.0,2430.0 2028.0,2359.0 2004.0,2302.0 C 1938.0,2150.0 1888.0,1965.0 1883.0,1850.0 L 1878.0,1755.0 L 1791.0,1585.0 L 1705.0,1415.0 L 1656.0,1402.0 C 1608.0,1388.0 1608.0,1388.0 1613.0,1353.0 C 1617.0,1334.0 1629.0,1299.0 1641.0,1276.0 C 1653.0,1254.0 1670.0,1222.0 1679.0,1205.0 C 1704.0,1158.0 1699.0,1003.0 1671.0,918.0 C 1640.0,826.0 1572.0,738.0 1522.0,727.0 C 1471.0,716.0 1431.0,667.0 1430.0,614.0 C 1430.0,524.0 1425.0,517.0 1301.0,415.0 C 1196.0,330.0 1182.0,314.0 1168.0,271.0 L 1153.0,222.0 L 1214.0,217.0 C 1247.0,213.0 1352.0,208.0 1445.0,204.0 C 1539.0,200.0 1638.0,191.0 1665.0,184.0 C 1710.0,172.0 1716.0,173.0 1725.0,188.0 C 1731.0,197.0 1748.0,217.0 1763.0,232.0 L 1792.0,260.0 L 1843.0,234.0 C 1890.0,210.0 1900.0,208.0 1974.0,215.0 C 2017.0,219.0 2083.0,231.0 2118.0,242.0 C 2169.0,258.0 2197.0,260.0 2247.0,255.0 L 2310.0,248.0 L 2310.0,201.0 C 2310.0,158.0 2314.0,150.0 2360.0,105.0 C 2396.0,69.0 2410.0,48.0 2410.0,28.0 L 2410.0,0.0 L 2508.0,0.0 C 2580.0,0.0 2611.0,4.0 2628.0,16.0 C 2643.0,27.0 2684.0,33.0 2761.0,37.0 L 2871.0,43.0 L 2887.0,83.0 C 2899.0,111.0 2918.0,132.0 2956.0,156.0 L 3009.0,190.0 L 3134.0,190.0 L 3259.0,190.0 L 3269.0,228.0 C 3274.0,248.0 3282.0,283.0 3287.0,305.0 C 3294.0,338.0 3301.0,346.0 3329.0,354.0 C 3372.0,366.0 3396.0,416.0 3411.0,526.0 C 3417.0,569.0 3428.0,620.0 3436.0,639.0 C 3455.0,684.0 3454.0,814.0 3434.0,922.0 L 3418.0,1010.0 L 3445.0,1057.0 C 3460.0,1084.0 3481.0,1129.0 3491.0,1158.0 C 3501.0,1188.0 3523.0,1228.0 3540.0,1247.0 C 3577.0,1288.0 3590.0,1319.0 3590.0,1363.0 C 3590.0,1414.0 3601.0,1422.0 3637.0,1400.0 C 3664.0,1384.0 3669.0,1374.0 3675.0,1326.0 C 3682.0,1274.0 3685.0,1269.0 3729.0,1241.0 C 3771.0,1215.0 3836.0,1190.0 3867.0,1190.0 C 3875.0,1190.0 3877.0,1206.0 3873.0,1242.0 L 3868.0,1295.0 L 3932.0,1329.0 C 3990.0,1360.0 4002.0,1363.0 4052.0,1357.0 L 4107.0,1350.0 L 4158.0,1414.0 C 4203.0,1470.0 4216.0,1480.0 4263.0,1494.0 C 4326.0,1512.0 4335.0,1521.0 4344.0,1575.0 C 4349.0,1599.0 4364.0,1628.0 4383.0,1647.0 C 4412.0,1678.0 4419.0,1680.0 4479.0,1680.0 C 4541.0,1680.0 4552.0,1684.0 4665.0,1746.0 C 4808.0,1824.0 4854.0,1865.0 4876.0,1934.0 C 4903.0,2019.0 4978.0,2145.0 5013.0,2165.0 C 5031.0,2175.0 5095.0,2216.0 5155.0,2256.0 C 5216.0,2296.0 5288.0,2338.0 5316.0,2349.0 C 5356.0,2366.0 5377.0,2385.0 5418.0,2440.0 C 5447.0,2478.0 5499.0,2531.0 5534.0,2557.0 C 5570.0,2583.0 5602.0,2611.0 5605.0,2619.0 C 5608.0,2627.0 5613.0,2666.0 5617.0,2706.0 C 5622.0,2775.0 5621.0,2782.0 5596.0,2814.0 C 5569.0,2850.0 5566.0,2866.0 5576.0,2919.0 C 5581.0,2944.0 5587.0,2950.0 5609.0,2950.0 C 5623.0,2950.0 5663.0,2959.0 5697.0,2969.0 C 5732.0,2980.0 5783.0,2991.0 5812.0,2994.0 C 5845.0,2998.0 5900.0,3018.0 5957.0,3047.0 C 6039.0,3089.0 6051.0,3099.0 6065.0,3133.0 C 6074.0,3155.0 6099.0,3193.0 6120.0,3219.0 C 6153.0,3258.0 6160.0,3274.0 6160.0,3308.0 C 6160.0,3344.0 6156.0,3352.0 6131.0,3364.0 C 6102.0,3379.0 6049.0,3441.0 6037.0,3472.0 C 6034.0,3482.0 6015.0,3491.0 5988.0,3495.0 C 5964.0,3499.0 5925.0,3513.0 5900.0,3525.0 C 5755.0,3600.0 5698.0,3620.0 5626.0,3620.0 C 5567.0,3620.0 5550.0,3624.0 5526.0,3644.0 L 5496.0,3667.0 L 5519.0,3722.0 C 5538.0,3770.0 5548.0,3781.0 5599.0,3809.0 C 5680.0,3855.0 5700.0,3898.0 5700.0,4025.0 L 5700.0,4120.0 L 5771.0,4177.0 C 5832.0,4227.0 5849.0,4249.0 5896.0,4338.0 L 5952.0,4440.0 L 5999.0,4440.0 C 6065.0,4440.0 6095.0,4473.0 6121.0,4574.0 C 6132.0,4616.0 6161.0,4688.0 6187.0,4735.0 L 6233.0,4820.0 L 6265.0,4800.0 C 6310.0,4772.0 6378.0,4782.0 6416.0,4821.0 C 6440.0,4846.0 6451.0,4850.0 6497.0,4850.0 C 6549.0,4850.0 6550.0,4850.0 6582.0,4900.0 C 6619.0,4956.0 6653.0,4973.0 6711.0,4964.0 C 6743.0,4959.0 6755.0,4950.0 6781.0,4909.0 C 6805.0,4871.0 6820.0,4858.0 6848.0,4851.0 C 6928.0,4831.0 6956.0,4830.0 6975.0,4845.0 C 6986.0,4853.0 7004.0,4860.0 7015.0,4860.0 C 7028.0,4860.0 7046.0,4878.0 7065.0,4908.0 C 7082.0,4934.0 7110.0,4962.0 7128.0,4972.0 C 7160.0,4987.0 7165.0,4987.0 7213.0,4970.0 C 7242.0,4960.0 7291.0,4938.0 7324.0,4921.0 C 7356.0,4904.0 7387.0,4890.0 7394.0,4890.0 C 7400.0,4890.0 7446.0,4874.0 7495.0,4854.0 C 7570.0,4824.0 7602.0,4818.0 7686.0,4813.0 L 7786.0,4807.0 L 7843.0,4845.0 L 7900.0,4883.0 L 7900.0,4951.0 L 7900.0,5018.0 L 7863.0,5031.0 C 7842.0,5038.0 7809.0,5061.0 7789.0,5082.0 C 7754.0,5120.0 7753.0,5121.0 7664.0,5127.0 C 7557.0,5134.0 7534.0,5147.0 7519.0,5207.0 C 7508.0,5249.0 7504.0,5252.0 7434.0,5285.0 C 7393.0,5303.0 7357.0,5325.0 7354.0,5333.0 C 7351.0,5342.0 7365.0,5369.0 7386.0,5397.0 C 7406.0,5423.0 7451.0,5504.0 7486.0,5575.0 C 7556.0,5722.0 7594.0,5769.0 7762.0,5924.0 C 7829.0,5986.0 7874.0,6036.0 7882.0,6056.0 C 7891.0,6082.0 7900.0,6090.0 7924.0,6092.0 C 7954.0,6095.0 7955.0,6097.0 7958.0,6148.0 C 7961.0,6203.0 7969.0,6209.0 8015.0,6191.0 C 8030.0,6185.0 8047.0,6191.0 8080.0,6215.0 C 8124.0,6247.0 8126.0,6248.0 8160.0,6233.0 C 8186.0,6222.0 8222.0,6219.0 8303.0,6222.0 L 8411.0,6227.0 L 8457.0,6272.0 L 8503.0,6318.0 L 8501.0,6387.0 C 8499.0,6470.0 8518.0,6522.0 8579.0,6595.0 C 8601.0,6622.0 8620.0,6652.0 8620.0,6660.0 C 8620.0,6676.0 8700.0,6718.0 8771.0,6740.0 C 8803.0,6749.0 8808.0,6756.0 8814.0,6788.0 C 8817.0,6808.0 8820.0,6836.0 8820.0,6850.0 C 8820.0,6870.0 8831.0,6881.0 8877.0,6905.0 C 8934.0,6935.0 8935.0,6936.0 8978.0,7036.0 C 9018.0,7126.0 9026.0,7139.0 9054.0,7147.0 C 9080.0,7154.0 9085.0,7161.0 9088.0,7191.0 C 9091.0,7223.0 9086.0,7232.0 9039.0,7274.0 C 9011.0,7299.0 8984.0,7320.0 8979.0,7320.0 C 8974.0,7320.0 8970.0,7328.0 8970.0,7338.0 C 8970.0,7348.0 8950.0,7388.0 8925.0,7428.0 C 8882.0,7497.0 8880.0,7504.0 8880.0,7575.0 C 8880.0,7648.0 8881.0,7652.0 8918.0,7693.0 C 8994.0,7779.0 8991.0,7771.0 8976.0,7820.0 L 8963.0,7865.0 L 8867.0,7894.0 C 8765.0,7925.0 8760.0,7930.0 8760.0,8006.0 C 8760.0,8025.0 8753.0,8032.0 8729.0,8037.0 C 8693.0,8044.0 8681.0,8066.0 8655.0,8180.0 L 8637.0,8255.0 L 8699.0,8379.0 C 8775.0,8530.0 8775.0,8544.0 8692.0,8588.0 C 8661.0,8604.0 8607.0,8626.0 8574.0,8635.0 C 8507.0,8654.0 8490.0,8673.0 8490.0,8734.0 C 8490.0,8765.0 8485.0,8769.0 8386.0,8824.0 C 8288.0,8880.0 8282.0,8885.0 8261.0,8934.0 C 8250.0,8962.0 8233.0,9008.0 8225.0,9036.0 L 8210.0,9088.0 L 8002.0,9092.0 C 7804.0,9096.0 7794.0,9095.0 7760.0,9075.0 C 7679.0,9025.0 7688.0,9022.0 7635.0,9116.0 C 7609.0,9163.0 7591.0,9204.0 7594.0,9208.0 C 7598.0,9212.0 7676.0,9260.0 7768.0,9316.0 L 7935.0,9416.0 L 7935.0,9557.0 C 7935.0,9686.0 7937.0,9701.0 7956.0,9727.0 L 7977.0,9755.0 L 8031.0,9705.0 C 8088.0,9652.0 8145.0,9621.0 8159.0,9636.0 C 8167.0,9646.0 8220.0,9838.0 8220.0,9859.0 C 8220.0,9869.0 8199.0,9870.0 8131.0,9865.0 C 8049.0,9858.0 8038.0,9860.0 7987.0,9883.0 C 7957.0,9897.0 7908.0,9915.0 7878.0,9924.0 C 7833.0,9937.0 7812.0,9952.0 7753.0,10013.0 C 7711.0,10056.0 7679.0,10099.0 7675.0,10116.0 C 7659.0,10188.0 7647.0,10211.0 7620.0,10225.0 C 7583.0,10244.0 7514.0,10243.0 7474.0,10223.0" fill="pink"/>
</svg>
