<?xml version="1.0" ?>
<svg xmlns="http://www.w3.org/2000/svg" xmlns:ev="http://www.w3.org/2001/xml-events" xmlns:xlink="http://www.w3.org/1999/xlink" baseProfile="full" height="600px" version="1.1" viewBox="2041.8128260559622 -1027.239291575928 6155.060882594049 12294.68617720399" width="301px">
	<defs/>
	<path d="M 5793.0,10173.0 C 5771.0,10135.0 5749.0,10094.0 5745.0,10080.0 C 5731.0,10032.0 5669.0,9931.0 5650.0,9925.0 C 5638.0,9921.0 5628.0,9902.0 5620.0,9870.0 C 5609.0,9823.0 5607.0,9821.0 5582.0,9831.0 C 5534.0,9849.0 5420.0,9870.0 5366.0,9870.0 C 5316.0,9870.0 5314.0,9869.0 5302.0,9837.0 C 5278.0,9770.0 5293.0,9746.0 5339.0,9779.0 C 5374.0,9804.0 5398.0,9805.0 5448.0,9784.0 C 5519.0,9755.0 5570.0,9689.0 5570.0,9628.0 C 5571.0,9567.0 5595.0,9495.0 5616.0,9492.0 C 5626.0,9491.0 5651.0,9485.0 5670.0,9480.0 C 5689.0,9475.0 5717.0,9468.0 5733.0,9465.0 C 5763.0,9459.0 5771.0,9426.0 5744.0,9416.0 C 5729.0,9410.0 5729.0,9408.0 5744.0,9385.0 C 5763.0,9357.0 5765.0,9340.0 5749.0,9340.0 C 5743.0,9340.0 5717.0,9322.0 5691.0,9300.0 C 5665.0,9278.0 5639.0,9260.0 5633.0,9260.0 C 5617.0,9260.0 5604.0,9303.0 5618.0,9308.0 C 5624.0,9310.0 5644.0,9321.0 5662.0,9333.0 C 5709.0,9365.0 5712.0,9408.0 5670.0,9444.0 C 5612.0,9493.0 5585.0,9478.0 5570.0,9388.0 C 5556.0,9308.0 5541.0,9295.0 5457.0,9288.0 C 5387.0,9282.0 5354.0,9260.0 5332.0,9205.0 C 5312.0,9153.0 5313.0,9154.0 5293.0,9172.0 C 5279.0,9183.0 5253.0,9187.0 5185.0,9186.0 C 5097.0,9185.0 5095.0,9185.0 5086.0,9158.0 C 5078.0,9137.0 5080.0,9126.0 5093.0,9112.0 C 5114.0,9088.0 5115.0,9031.0 5094.0,9002.0 C 5079.0,8980.0 5079.0,8977.0 5100.0,8955.0 C 5117.0,8937.0 5121.0,8922.0 5119.0,8879.0 C 5117.0,8842.0 5122.0,8814.0 5135.0,8790.0 C 5149.0,8764.0 5155.0,8719.0 5162.0,8610.0 C 5172.0,8441.0 5169.0,8409.0 5136.0,8349.0 C 5117.0,8316.0 5096.0,8297.0 5055.0,8275.0 C 5006.0,8248.0 4998.0,8240.0 4988.0,8202.0 C 4979.0,8164.0 4971.0,8156.0 4926.0,8133.0 C 4898.0,8119.0 4848.0,8083.0 4816.0,8055.0 C 4762.0,8006.0 4752.0,8001.0 4694.0,7995.0 C 4615.0,7987.0 4590.0,7994.0 4590.0,8025.0 C 4590.0,8074.0 4545.0,8091.0 4471.0,8070.0 C 4446.0,8063.0 4432.0,8064.0 4422.0,8072.0 C 4411.0,8082.0 4405.0,8080.0 4394.0,8065.0 C 4369.0,8031.0 4399.0,7966.0 4451.0,7939.0 C 4472.0,7929.0 4491.0,7911.0 4495.0,7900.0 C 4503.0,7875.0 4546.0,7873.0 4571.0,7896.0 C 4594.0,7917.0 4612.0,7905.0 4610.0,7872.0 C 4606.0,7815.0 4610.0,7799.0 4633.0,7791.0 C 4650.0,7784.0 4663.0,7788.0 4688.0,7807.0 C 4728.0,7837.0 4743.0,7828.0 4738.0,7779.0 C 4736.0,7751.0 4730.0,7744.0 4710.0,7742.0 C 4696.0,7740.0 4680.0,7733.0 4675.0,7726.0 C 4667.0,7715.0 4655.0,7716.0 4615.0,7728.0 C 4587.0,7736.0 4548.0,7742.0 4527.0,7742.0 C 4491.0,7742.0 4487.0,7745.0 4470.0,7786.0 C 4453.0,7825.0 4447.0,7830.0 4415.0,7832.0 C 4396.0,7833.0 4373.0,7834.0 4364.0,7834.0 C 4354.0,7835.0 4343.0,7822.0 4336.0,7804.0 C 4330.0,7787.0 4304.0,7754.0 4278.0,7731.0 C 4238.0,7694.0 4228.0,7690.0 4215.0,7700.0 C 4203.0,7710.0 4194.0,7710.0 4174.0,7701.0 C 4152.0,7691.0 4149.0,7684.0 4151.0,7652.0 C 4153.0,7628.0 4145.0,7597.0 4130.0,7566.0 L 4107.0,7517.0 L 4130.0,7473.0 C 4161.0,7415.0 4165.0,7320.0 4139.0,7275.0 C 4124.0,7249.0 4122.0,7237.0 4130.0,7216.0 C 4135.0,7202.0 4144.0,7190.0 4149.0,7190.0 C 4153.0,7190.0 4160.0,7176.0 4164.0,7158.0 C 4169.0,7134.0 4173.0,7129.0 4182.0,7138.0 C 4210.0,7166.0 4259.0,7140.0 4260.0,7096.0 C 4260.0,7085.0 4248.0,7063.0 4233.0,7048.0 C 4192.0,7005.0 4142.0,7009.0 4036.0,7064.0 C 3891.0,7138.0 3880.0,7134.0 3880.0,7005.0 C 3880.0,6935.0 3878.0,6926.0 3855.0,6908.0 C 3834.0,6892.0 3830.0,6880.0 3830.0,6834.0 C 3830.0,6799.0 3823.0,6765.0 3810.0,6740.0 C 3783.0,6687.0 3785.0,6659.0 3818.0,6628.0 C 3838.0,6609.0 3859.0,6601.0 3898.0,6598.0 C 3927.0,6595.0 3956.0,6588.0 3962.0,6582.0 C 3978.0,6566.0 3894.0,6546.0 3850.0,6555.0 C 3760.0,6573.0 3758.0,6572.0 3731.0,6492.0 L 3707.0,6419.0 L 3633.0,6378.0 C 3573.0,6343.0 3558.0,6330.0 3549.0,6301.0 C 3512.0,6185.0 3455.0,6051.0 3434.0,6029.0 C 3413.0,6007.0 3410.0,5997.0 3416.0,5966.0 C 3423.0,5923.0 3401.0,5890.0 3365.0,5890.0 C 3339.0,5890.0 3314.0,5865.0 3299.0,5822.0 L 3288.0,5790.0 L 3200.0,5790.0 L 3111.0,5790.0 L 3091.0,5735.0 C 3065.0,5666.0 3065.0,5663.0 3090.0,5650.0 C 3119.0,5634.0 3115.0,5594.0 3080.0,5550.0 C 3059.0,5523.0 3050.0,5501.0 3050.0,5474.0 C 3050.0,5448.0 3039.0,5419.0 3020.0,5388.0 C 2995.0,5348.0 2983.0,5338.0 2947.0,5329.0 C 2889.0,5315.0 2838.0,5252.0 2842.0,5200.0 C 2845.0,5171.0 2850.0,5164.0 2878.0,5156.0 C 2920.0,5144.0 2920.0,5118.0 2877.0,5086.0 C 2833.0,5052.0 2797.0,4982.0 2775.0,4890.0 C 2766.0,4849.0 2747.0,4798.0 2733.0,4777.0 C 2720.0,4756.0 2696.0,4706.0 2681.0,4665.0 C 2664.0,4623.0 2633.0,4567.0 2605.0,4534.0 L 2559.0,4476.0 L 2563.0,4216.0 L 2567.0,3955.0 L 2620.0,3928.0 C 2649.0,3912.0 2684.0,3900.0 2699.0,3900.0 C 2727.0,3900.0 2752.0,3878.0 2804.0,3806.0 C 2832.0,3769.0 2834.0,3768.0 2874.0,3775.0 C 2935.0,3786.0 2979.0,3785.0 2992.0,3772.0 C 2998.0,3766.0 3006.0,3738.0 3010.0,3709.0 C 3015.0,3670.0 3013.0,3654.0 3000.0,3637.0 C 2977.0,3607.0 2961.0,3559.0 2945.0,3468.0 C 2934.0,3406.0 2920.0,3373.0 2875.0,3298.0 C 2824.0,3214.0 2819.0,3201.0 2825.0,3165.0 C 2836.0,3094.0 2850.0,3075.0 2896.0,3072.0 C 2922.0,3070.0 2945.0,3061.0 2955.0,3050.0 C 2971.0,3033.0 2971.0,3025.0 2960.0,2983.0 C 2939.0,2905.0 2912.0,2871.0 2761.0,2730.0 C 2554.0,2535.0 2554.0,2534.0 2714.0,2395.0 C 2842.0,2285.0 2840.0,2288.0 2840.0,2135.0 C 2840.0,2063.0 2840.0,2063.0 2883.0,2024.0 C 2911.0,1997.0 2946.0,1978.0 2988.0,1966.0 C 3038.0,1950.0 3050.0,1943.0 3050.0,1926.0 C 3050.0,1913.0 3086.0,1869.0 3144.0,1811.0 C 3220.0,1735.0 3241.0,1708.0 3251.0,1671.0 C 3260.0,1639.0 3289.0,1594.0 3347.0,1523.0 L 3430.0,1421.0 L 3488.0,1418.0 L 3545.0,1415.0 L 3572.0,1364.0 C 3593.0,1325.0 3609.0,1309.0 3642.0,1295.0 C 3666.0,1285.0 3706.0,1257.0 3731.0,1233.0 C 3763.0,1202.0 3788.0,1188.0 3816.0,1183.0 C 3837.0,1180.0 3870.0,1166.0 3888.0,1153.0 C 3918.0,1130.0 3926.0,1129.0 3996.0,1135.0 C 4068.0,1142.0 4072.0,1141.0 4099.0,1116.0 C 4131.0,1085.0 4186.0,1073.0 4228.0,1088.0 C 4247.0,1094.0 4316.0,1095.0 4426.0,1090.0 C 4610.0,1081.0 4620.0,1077.0 4620.0,1017.0 C 4620.0,997.0 4633.0,973.0 4660.0,943.0 C 4691.0,907.0 4700.0,889.0 4700.0,860.0 C 4700.0,834.0 4707.0,817.0 4726.0,799.0 C 4740.0,786.0 4761.0,758.0 4771.0,738.0 C 4788.0,705.0 4795.0,700.0 4825.0,700.0 C 4844.0,700.0 4860.0,695.0 4860.0,689.0 C 4860.0,681.0 4879.0,680.0 4923.0,684.0 C 4997.0,692.0 5019.0,680.0 5075.0,607.0 L 5111.0,560.0 L 5243.0,560.0 C 5323.0,560.0 5398.0,554.0 5435.0,545.0 C 5468.0,537.0 5519.0,531.0 5548.0,530.0 C 5587.0,530.0 5600.0,526.0 5600.0,515.0 C 5600.0,487.0 5622.0,452.0 5647.0,441.0 C 5661.0,434.0 5692.0,413.0 5717.0,393.0 C 5765.0,354.0 5763.0,360.0 5739.0,268.0 C 5732.0,239.0 5712.0,217.0 5655.0,169.0 C 5564.0,94.0 5557.0,68.0 5621.0,49.0 C 5652.0,39.0 5666.0,39.0 5680.0,48.0 C 5691.0,54.0 5716.0,62.0 5737.0,66.0 C 5771.0,71.0 5779.0,68.0 5809.0,36.0 C 5847.0,-4.0 5856.0,-6.0 5879.0,14.0 C 5888.0,21.0 5922.0,32.0 5954.0,38.0 C 6025.0,52.0 6038.0,62.0 6046.0,106.0 C 6054.0,148.0 6035.0,179.0 5978.0,220.0 C 5951.0,240.0 5927.0,270.0 5908.0,308.0 C 5876.0,373.0 5874.0,392.0 5895.0,410.0 C 5904.0,417.0 5927.0,454.0 5946.0,491.0 C 5970.0,537.0 5988.0,560.0 6000.0,560.0 C 6010.0,560.0 6028.0,569.0 6041.0,579.0 C 6064.0,597.0 6065.0,605.0 6065.0,712.0 C 6065.0,855.0 6081.0,891.0 6189.0,982.0 C 6200.0,991.0 6220.0,1037.0 6235.0,1087.0 C 6270.0,1204.0 6273.0,1210.0 6330.0,1244.0 C 6401.0,1287.0 6402.0,1300.0 6334.0,1300.0 C 6285.0,1300.0 6279.0,1302.0 6270.0,1326.0 C 6254.0,1366.0 6258.0,1380.0 6288.0,1397.0 C 6304.0,1406.0 6324.0,1426.0 6332.0,1441.0 C 6343.0,1459.0 6358.0,1470.0 6377.0,1472.0 C 6399.0,1474.0 6406.0,1481.0 6408.0,1503.0 C 6411.0,1529.0 6414.0,1531.0 6443.0,1525.0 C 6480.0,1517.0 6510.0,1493.0 6510.0,1473.0 C 6510.0,1461.0 6521.0,1460.0 6563.0,1465.0 C 6627.0,1473.0 6660.0,1452.0 6678.0,1391.0 C 6685.0,1369.0 6694.0,1348.0 6699.0,1346.0 C 6704.0,1343.0 6723.0,1370.0 6741.0,1407.0 C 6780.0,1483.0 6804.0,1504.0 6824.0,1478.0 C 6842.0,1453.0 6884.0,1446.0 6899.0,1464.0 C 6909.0,1476.0 6908.0,1496.0 6891.0,1570.0 C 6879.0,1620.0 6872.0,1665.0 6875.0,1670.0 C 6878.0,1676.0 6899.0,1680.0 6920.0,1680.0 C 6956.0,1680.0 6961.0,1683.0 6979.0,1721.0 L 6999.0,1762.0 L 6975.0,1798.0 C 6955.0,1827.0 6953.0,1837.0 6963.0,1847.0 C 6972.0,1857.0 6984.0,1857.0 7010.0,1849.0 C 7060.0,1834.0 7105.0,1852.0 7095.0,1883.0 C 7077.0,1940.0 7078.0,1958.0 7099.0,1969.0 C 7129.0,1985.0 7125.0,2010.0 7091.0,2023.0 C 7055.0,2036.0 7050.0,2058.0 7050.0,2186.0 C 7050.0,2278.0 7051.0,2281.0 7076.0,2290.0 C 7092.0,2296.0 7108.0,2317.0 7122.0,2347.0 C 7140.0,2388.0 7143.0,2415.0 7144.0,2571.0 C 7145.0,2747.0 7145.0,2748.0 7170.0,2768.0 C 7186.0,2781.0 7218.0,2791.0 7255.0,2795.0 C 7288.0,2798.0 7331.0,2805.0 7350.0,2809.0 L 7385.0,2817.0 L 7345.0,2835.0 C 7316.0,2848.0 7291.0,2851.0 7250.0,2847.0 C 7197.0,2841.0 7194.0,2842.0 7178.0,2871.0 C 7167.0,2890.0 7150.0,2903.0 7130.0,2906.0 C 7094.0,2914.0 7091.0,2935.0 7125.0,2944.0 C 7165.0,2954.0 7158.0,2988.0 7115.0,2996.0 C 7078.0,3003.0 7070.0,3019.0 7095.0,3040.0 C 7107.0,3050.0 7124.0,3048.0 7182.0,3030.0 C 7289.0,2998.0 7350.0,3013.0 7350.0,3071.0 C 7350.0,3095.0 7341.0,3104.0 7291.0,3132.0 C 7229.0,3166.0 7212.0,3191.0 7236.0,3211.0 C 7249.0,3222.0 7285.0,3220.0 7335.0,3205.0 C 7352.0,3200.0 7355.0,3204.0 7355.0,3236.0 C 7355.0,3270.0 7358.0,3274.0 7388.0,3282.0 C 7427.0,3292.0 7428.0,3308.0 7395.0,3344.0 C 7365.0,3377.0 7365.0,3374.0 7391.0,3417.0 C 7411.0,3449.0 7412.0,3456.0 7400.0,3510.0 C 7390.0,3558.0 7390.0,3576.0 7400.0,3600.0 C 7407.0,3617.0 7410.0,3644.0 7406.0,3663.0 C 7401.0,3692.0 7403.0,3698.0 7425.0,3708.0 C 7459.0,3724.0 7457.0,3740.0 7420.0,3740.0 C 7395.0,3740.0 7390.0,3744.0 7390.0,3765.0 C 7390.0,3784.0 7382.0,3793.0 7356.0,3804.0 C 7338.0,3812.0 7320.0,3822.0 7316.0,3828.0 C 7310.0,3838.0 7400.0,3850.0 7486.0,3850.0 C 7556.0,3850.0 7570.0,3857.0 7570.0,3891.0 C 7570.0,3909.0 7577.0,3923.0 7590.0,3930.0 C 7632.0,3952.0 7602.0,4008.0 7552.0,4001.0 C 7537.0,4000.0 7506.0,3980.0 7481.0,3958.0 C 7445.0,3927.0 7431.0,3920.0 7410.0,3925.0 C 7377.0,3934.0 7376.0,3935.0 7390.0,3960.0 C 7399.0,3977.0 7398.0,3985.0 7386.0,3999.0 C 7366.0,4021.0 7366.0,4044.0 7385.0,4060.0 C 7393.0,4067.0 7400.0,4081.0 7400.0,4091.0 C 7400.0,4116.0 7438.0,4140.0 7477.0,4140.0 C 7518.0,4140.0 7526.0,4154.0 7494.0,4169.0 C 7455.0,4186.0 7410.0,4182.0 7352.0,4155.0 C 7276.0,4120.0 7189.0,4120.0 7137.0,4155.0 C 7100.0,4181.0 7086.0,4220.0 7115.0,4220.0 C 7123.0,4220.0 7137.0,4232.0 7147.0,4248.0 C 7157.0,4263.0 7175.0,4283.0 7187.0,4293.0 C 7216.0,4317.0 7216.0,4324.0 7185.0,4338.0 C 7160.0,4349.0 7160.0,4351.0 7175.0,4380.0 C 7183.0,4396.0 7199.0,4414.0 7209.0,4420.0 C 7238.0,4435.0 7286.0,4432.0 7301.0,4414.0 C 7315.0,4397.0 7352.0,4377.0 7388.0,4366.0 C 7414.0,4357.0 7419.0,4380.0 7395.0,4400.0 C 7371.0,4420.0 7378.0,4438.0 7414.0,4450.0 C 7459.0,4464.0 7467.0,4487.0 7438.0,4517.0 C 7419.0,4537.0 7418.0,4542.0 7430.0,4550.0 C 7438.0,4555.0 7455.0,4557.0 7467.0,4554.0 C 7500.0,4545.0 7510.0,4594.0 7481.0,4621.0 C 7456.0,4645.0 7455.0,4649.0 7476.0,4678.0 C 7486.0,4692.0 7501.0,4700.0 7521.0,4700.0 C 7548.0,4700.0 7551.0,4702.0 7543.0,4723.0 C 7536.0,4743.0 7535.0,4773.0 7540.0,4836.0 C 7543.0,4870.0 7529.0,4882.0 7485.0,4882.0 C 7447.0,4882.0 7410.0,4908.0 7410.0,4934.0 C 7410.0,4944.0 7401.0,4948.0 7383.0,4947.0 C 7360.0,4945.0 7355.0,4950.0 7347.0,4983.0 C 7341.0,5009.0 7330.0,5024.0 7314.0,5030.0 C 7296.0,5037.0 7290.0,5047.0 7290.0,5069.0 C 7290.0,5118.0 7308.0,5143.0 7371.0,5179.0 C 7424.0,5210.0 7430.0,5217.0 7430.0,5245.0 C 7430.0,5275.0 7425.0,5280.0 7360.0,5311.0 L 7291.0,5345.0 L 7290.0,5421.0 C 7290.0,5552.0 7333.0,5630.0 7407.0,5630.0 C 7447.0,5630.0 7480.0,5641.0 7480.0,5653.0 C 7480.0,5658.0 7496.0,5682.0 7515.0,5705.0 C 7537.0,5733.0 7552.0,5763.0 7556.0,5791.0 C 7560.0,5815.0 7570.0,5843.0 7578.0,5853.0 C 7591.0,5868.0 7591.0,5878.0 7581.0,5924.0 C 7571.0,5971.0 7571.0,5983.0 7584.0,6009.0 C 7593.0,6025.0 7608.0,6041.0 7619.0,6045.0 C 7637.0,6050.0 7638.0,6059.0 7634.0,6148.0 C 7627.0,6277.0 7625.0,6287.0 7596.0,6294.0 C 7561.0,6303.0 7551.0,6340.0 7579.0,6358.0 C 7603.0,6375.0 7606.0,6393.0 7586.0,6409.0 C 7578.0,6416.0 7570.0,6442.0 7567.0,6468.0 C 7565.0,6494.0 7559.0,6524.0 7555.0,6536.0 C 7550.0,6554.0 7553.0,6558.0 7578.0,6563.0 C 7605.0,6569.0 7609.0,6574.0 7615.0,6621.0 C 7619.0,6650.0 7631.0,6687.0 7641.0,6704.0 C 7651.0,6721.0 7660.0,6745.0 7660.0,6757.0 C 7660.0,6769.0 7665.0,6782.0 7670.0,6785.0 C 7685.0,6794.0 7682.0,6830.0 7665.0,6836.0 C 7657.0,6840.0 7650.0,6855.0 7650.0,6871.0 C 7650.0,6893.0 7640.0,6906.0 7604.0,6931.0 L 7557.0,6963.0 L 7581.0,6981.0 C 7594.0,6991.0 7608.0,7000.0 7613.0,7000.0 C 7617.0,7000.0 7620.0,7010.0 7620.0,7023.0 C 7620.0,7035.0 7629.0,7065.0 7641.0,7089.0 C 7662.0,7136.0 7660.0,7160.0 7636.0,7160.0 C 7628.0,7160.0 7607.0,7174.0 7590.0,7192.0 C 7568.0,7214.0 7545.0,7226.0 7516.0,7229.0 L 7475.0,7235.0 L 7465.0,7302.0 C 7460.0,7339.0 7449.0,7375.0 7443.0,7382.0 C 7436.0,7388.0 7430.0,7401.0 7430.0,7409.0 C 7430.0,7418.0 7416.0,7454.0 7400.0,7488.0 C 7383.0,7523.0 7370.0,7559.0 7370.0,7568.0 C 7370.0,7578.0 7363.0,7594.0 7355.0,7604.0 C 7332.0,7634.0 7337.0,7666.0 7368.0,7689.0 C 7422.0,7730.0 7423.0,7731.0 7416.0,7778.0 C 7413.0,7803.0 7403.0,7831.0 7395.0,7840.0 C 7387.0,7849.0 7380.0,7865.0 7380.0,7876.0 C 7380.0,7905.0 7361.0,7920.0 7325.0,7920.0 C 7307.0,7920.0 7286.0,7928.0 7277.0,7938.0 C 7263.0,7953.0 7263.0,7961.0 7273.0,7992.0 C 7280.0,8013.0 7293.0,8037.0 7302.0,8047.0 C 7322.0,8070.0 7334.0,8164.0 7321.0,8189.0 C 7313.0,8203.0 7294.0,8210.0 7248.0,8215.0 C 7144.0,8227.0 7109.0,8266.0 7175.0,8297.0 C 7211.0,8314.0 7222.0,8343.0 7195.0,8354.0 C 7187.0,8357.0 7180.0,8368.0 7180.0,8379.0 C 7180.0,8389.0 7167.0,8410.0 7150.0,8423.0 C 7134.0,8437.0 7120.0,8452.0 7120.0,8455.0 C 7120.0,8459.0 7163.0,8460.0 7214.0,8458.0 C 7326.0,8454.0 7320.0,8446.0 7320.0,8593.0 L 7320.0,8691.0 L 7355.0,8705.0 C 7391.0,8721.0 7410.0,8746.0 7403.0,8768.0 C 7394.0,8794.0 7310.0,8870.0 7275.0,8884.0 C 7248.0,8896.0 7240.0,8905.0 7240.0,8925.0 C 7240.0,8954.0 7219.0,9000.0 7183.0,9046.0 C 7166.0,9069.0 7148.0,9079.0 7118.0,9084.0 C 7088.0,9089.0 7063.0,9103.0 7029.0,9135.0 C 6973.0,9187.0 6927.0,9195.0 6894.0,9159.0 C 6882.0,9146.0 6867.0,9140.0 6852.0,9143.0 C 6834.0,9146.0 6816.0,9135.0 6774.0,9096.0 C 6742.0,9065.0 6720.0,9035.0 6720.0,9023.0 C 6720.0,8991.0 6691.0,8986.0 6678.0,9015.0 C 6668.0,9037.0 6671.0,9049.0 6698.0,9101.0 C 6734.0,9171.0 6736.0,9184.0 6715.0,9233.0 C 6691.0,9290.0 6695.0,9314.0 6731.0,9327.0 C 6772.0,9343.0 6767.0,9372.0 6722.0,9381.0 C 6678.0,9390.0 6675.0,9395.0 6694.0,9422.0 C 6703.0,9434.0 6710.0,9453.0 6710.0,9463.0 C 6710.0,9478.0 6705.0,9481.0 6688.0,9476.0 C 6675.0,9473.0 6656.0,9470.0 6644.0,9470.0 C 6632.0,9470.0 6619.0,9460.0 6612.0,9445.0 C 6582.0,9379.0 6480.0,9452.0 6480.0,9539.0 C 6480.0,9567.0 6475.0,9583.0 6465.0,9586.0 C 6457.0,9590.0 6450.0,9602.0 6450.0,9615.0 C 6450.0,9650.0 6424.0,9664.0 6355.0,9666.0 C 6321.0,9667.0 6288.0,9670.0 6281.0,9674.0 C 6275.0,9678.0 6270.0,9697.0 6270.0,9717.0 C 6270.0,9751.0 6271.0,9752.0 6301.0,9746.0 C 6321.0,9742.0 6344.0,9747.0 6368.0,9759.0 C 6405.0,9778.0 6406.0,9778.0 6429.0,9759.0 C 6453.0,9740.0 6453.0,9740.0 6489.0,9766.0 C 6509.0,9781.0 6531.0,9800.0 6538.0,9808.0 C 6558.0,9833.0 6552.0,9874.0 6525.0,9900.0 C 6494.0,9929.0 6492.0,9981.0 6520.0,10028.0 C 6540.0,10060.0 6540.0,10060.0 6520.0,10060.0 C 6508.0,10060.0 6495.0,10070.0 6488.0,10085.0 C 6475.0,10113.0 6476.0,10113.0 6433.0,10101.0 C 6403.0,10092.0 6400.0,10093.0 6390.0,10125.0 C 6381.0,10154.0 6373.0,10159.0 6338.0,10165.0 C 6299.0,10172.0 6294.0,10170.0 6270.0,10140.0 C 6239.0,10102.0 6210.0,10104.0 6210.0,10144.0 C 6210.0,10158.0 6206.0,10180.0 6200.0,10194.0 C 6191.0,10219.0 6187.0,10220.0 6113.0,10220.0 C 6070.0,10219.0 6010.0,10213.0 5979.0,10206.0 C 5926.0,10193.0 5923.0,10194.0 5896.0,10216.0 C 5853.0,10254.0 5837.0,10247.0 5793.0,10173.0" fill="pink"/>
</svg>
