<?xml version="1.0" ?>
<svg xmlns="http://www.w3.org/2000/svg" xmlns:ev="http://www.w3.org/2001/xml-events" xmlns:xlink="http://www.w3.org/1999/xlink" baseProfile="full" height="600px" version="1.1" viewBox="2034.2189880092626 -1022.2924081632652 6175.685556680062 12290.788897959183" width="302px">
	<defs/>
	<path d="M 4410.0,10168.0 C 4410.0,10048.0 4377.0,9875.0 4337.0,9776.0 C 4317.0,9727.0 4286.0,9635.0 4270.0,9571.0 C 4218.0,9374.0 4170.0,9241.0 4095.0,9083.0 C 4002.0,8890.0 3832.0,8577.0 3767.0,8480.0 C 3739.0,8439.0 3699.0,8369.0 3677.0,8325.0 C 3656.0,8281.0 3626.0,8230.0 3610.0,8210.0 C 3573.0,8163.0 3554.0,8123.0 3546.0,8076.0 C 3542.0,8054.0 3525.0,8020.0 3509.0,8001.0 C 3483.0,7969.0 3480.0,7959.0 3480.0,7890.0 C 3480.0,7781.0 3453.0,7583.0 3431.0,7525.0 C 3405.0,7458.0 3370.0,7381.0 3258.0,7145.0 C 3205.0,7035.0 3137.0,6881.0 3105.0,6802.0 C 3056.0,6679.0 3047.0,6644.0 3035.0,6542.0 C 3011.0,6345.0 3016.0,6146.0 3050.0,5898.0 C 3092.0,5593.0 3138.0,5404.0 3200.0,5280.0 C 3215.0,5250.0 3231.0,5200.0 3235.0,5170.0 C 3240.0,5135.0 3260.0,5080.0 3291.0,5020.0 C 3317.0,4968.0 3349.0,4896.0 3362.0,4860.0 C 3375.0,4824.0 3424.0,4734.0 3471.0,4660.0 C 3572.0,4501.0 3692.0,4277.0 3721.0,4194.0 C 3751.0,4106.0 3807.0,3855.0 3815.0,3770.0 C 3819.0,3729.0 3835.0,3640.0 3851.0,3573.0 C 3883.0,3437.0 3919.0,3230.0 3950.0,3005.0 C 3962.0,2923.0 3990.0,2785.0 4013.0,2700.0 L 4055.0,2545.0 L 4055.0,2315.0 C 4055.0,2098.0 4054.0,2081.0 4031.0,2015.0 C 4006.0,1944.0 3954.0,1852.0 3891.0,1769.0 C 3854.0,1720.0 3702.0,1592.0 3520.0,1455.0 C 3462.0,1412.0 3361.0,1331.0 3295.0,1275.0 C 3113.0,1122.0 3066.0,1088.0 2935.0,1020.0 C 2869.0,985.0 2760.0,920.0 2692.0,876.0 C 2581.0,803.0 2568.0,791.0 2559.0,756.0 C 2546.0,710.0 2556.0,561.0 2575.0,510.0 C 2582.0,491.0 2599.0,446.0 2613.0,410.0 C 2626.0,374.0 2643.0,303.0 2650.0,252.0 L 2663.0,159.0 L 2693.0,162.0 L 2724.0,165.0 L 2721.0,231.0 C 2718.0,305.0 2722.0,310.0 2790.0,329.0 C 2815.0,336.0 2843.0,344.0 2853.0,346.0 C 2868.0,351.0 2870.0,345.0 2868.0,293.0 C 2866.0,243.0 2872.0,223.0 2906.0,150.0 C 2942.0,75.0 2983.0,19.0 2994.0,31.0 C 2995.0,33.0 3029.0,96.0 3068.0,170.0 C 3173.0,368.0 3192.0,385.0 3262.0,349.0 C 3286.0,337.0 3319.0,314.0 3336.0,298.0 C 3357.0,278.0 3376.0,269.0 3391.0,272.0 C 3411.0,274.0 3417.0,285.0 3430.0,336.0 L 3445.0,398.0 L 3473.0,383.0 C 3507.0,366.0 3550.0,365.0 3712.0,378.0 C 3857.0,390.0 3901.0,408.0 3920.0,463.0 C 3945.0,536.0 3962.0,546.0 4133.0,585.0 C 4220.0,604.0 4316.0,632.0 4347.0,645.0 C 4377.0,659.0 4415.0,670.0 4431.0,670.0 C 4450.0,670.0 4466.0,680.0 4483.0,702.0 C 4508.0,733.0 4556.0,753.0 4636.0,767.0 C 4668.0,772.0 4720.0,750.0 4830.0,685.0 C 4860.0,667.0 4906.0,644.0 4931.0,635.0 C 4970.0,621.0 4983.0,609.0 5004.0,570.0 C 5018.0,543.0 5050.0,501.0 5074.0,475.0 C 5121.0,426.0 5132.0,390.0 5145.0,240.0 C 5156.0,123.0 5169.0,75.0 5198.0,48.0 C 5249.0,0.0 5344.0,-8.0 5387.0,31.0 C 5459.0,95.0 5506.0,119.0 5594.0,134.0 C 5643.0,143.0 5697.0,159.0 5717.0,171.0 C 5749.0,191.0 5767.0,194.0 5884.0,194.0 L 6015.0,195.0 L 6095.0,242.0 C 6139.0,267.0 6194.0,293.0 6217.0,300.0 C 6243.0,308.0 6262.0,321.0 6269.0,336.0 C 6284.0,370.0 6320.0,389.0 6391.0,402.0 C 6440.0,410.0 6461.0,420.0 6485.0,444.0 C 6501.0,461.0 6538.0,484.0 6565.0,495.0 C 6608.0,512.0 6616.0,520.0 6624.0,552.0 C 6631.0,582.0 6641.0,592.0 6669.0,603.0 C 6702.0,616.0 6707.0,616.0 6729.0,599.0 C 6785.0,554.0 6840.0,587.0 6898.0,699.0 C 6921.0,745.0 6940.0,791.0 6940.0,803.0 C 6940.0,815.0 6956.0,870.0 6975.0,925.0 C 7020.0,1054.0 7020.0,1091.0 6975.0,1166.0 C 6928.0,1243.0 6926.0,1256.0 6941.0,1340.0 L 6953.0,1410.0 L 7002.0,1410.0 C 7028.0,1410.0 7077.0,1401.0 7111.0,1389.0 C 7144.0,1377.0 7173.0,1370.0 7174.0,1371.0 C 7176.0,1373.0 7208.0,1420.0 7245.0,1475.0 C 7283.0,1530.0 7315.0,1576.0 7316.0,1578.0 C 7317.0,1580.0 7382.0,1588.0 7461.0,1596.0 C 7636.0,1614.0 7640.0,1617.0 7640.0,1709.0 C 7640.0,1758.0 7647.0,1789.0 7665.0,1828.0 C 7707.0,1919.0 7697.0,2091.0 7640.0,2254.0 C 7616.0,2323.0 7449.0,2650.0 7396.0,2730.0 C 7376.0,2760.0 7359.0,2787.0 7358.0,2790.0 C 7356.0,2793.0 7341.0,2806.0 7324.0,2818.0 C 7277.0,2850.0 7274.0,2880.0 7309.0,2948.0 C 7349.0,3025.0 7369.0,3098.0 7377.0,3197.0 C 7383.0,3277.0 7384.0,3280.0 7441.0,3357.0 C 7488.0,3419.0 7510.0,3439.0 7549.0,3456.0 C 7605.0,3481.0 7627.0,3513.0 7637.0,3585.0 C 7640.0,3609.0 7654.0,3644.0 7667.0,3662.0 L 7691.0,3695.0 L 7662.0,3701.0 C 7647.0,3704.0 7590.0,3737.0 7536.0,3773.0 C 7483.0,3810.0 7432.0,3840.0 7424.0,3840.0 C 7395.0,3840.0 7380.0,3904.0 7380.0,4025.0 C 7380.0,4119.0 7376.0,4148.0 7361.0,4178.0 C 7351.0,4198.0 7337.0,4234.0 7331.0,4257.0 C 7320.0,4295.0 7322.0,4303.0 7344.0,4338.0 C 7357.0,4359.0 7377.0,4406.0 7388.0,4442.0 L 7408.0,4508.0 L 7374.0,4541.0 C 7338.0,4575.0 7283.0,4678.0 7265.0,4743.0 L 7255.0,4781.0 L 7168.0,4715.0 C 7120.0,4678.0 7078.0,4640.0 7075.0,4631.0 C 7069.0,4610.0 6996.0,4590.0 6924.0,4590.0 C 6806.0,4590.0 6734.0,4666.0 6699.0,4827.0 C 6677.0,4929.0 6662.0,4968.0 6635.0,4990.0 C 6624.0,4999.0 6621.0,5012.0 6626.0,5034.0 C 6645.0,5139.0 6497.0,5304.0 6260.0,5440.0 C 6219.0,5464.0 6138.0,5521.0 6081.0,5567.0 C 5963.0,5662.0 5943.0,5667.0 5860.0,5625.0 C 5817.0,5603.0 5797.0,5600.0 5713.0,5600.0 C 5630.0,5600.0 5607.0,5604.0 5561.0,5625.0 L 5507.0,5650.0 L 5514.0,5692.0 C 5522.0,5740.0 5535.0,5760.0 5559.0,5760.0 C 5568.0,5760.0 5586.0,5769.0 5600.0,5780.0 C 5614.0,5791.0 5631.0,5800.0 5638.0,5800.0 C 5645.0,5800.0 5671.0,5831.0 5695.0,5870.0 C 5720.0,5908.0 5745.0,5942.0 5750.0,5945.0 C 5766.0,5955.0 5762.0,6245.0 5745.0,6325.0 C 5737.0,6364.0 5730.0,6437.0 5730.0,6488.0 L 5730.0,6581.0 L 5838.0,6698.0 C 5941.0,6810.0 5946.0,6819.0 5972.0,6900.0 C 6019.0,7048.0 6069.0,7181.0 6091.0,7211.0 C 6102.0,7227.0 6108.0,7245.0 6104.0,7252.0 C 6100.0,7259.0 6052.0,7307.0 5999.0,7358.0 C 5912.0,7440.0 5901.0,7456.0 5890.0,7501.0 C 5883.0,7529.0 5865.0,7566.0 5851.0,7584.0 C 5836.0,7601.0 5817.0,7631.0 5810.0,7649.0 C 5802.0,7668.0 5784.0,7698.0 5770.0,7714.0 C 5756.0,7731.0 5722.0,7783.0 5695.0,7829.0 C 5643.0,7915.0 5641.0,7918.0 5551.0,7945.0 C 5512.0,7957.0 5478.0,7978.0 5428.0,8023.0 C 5355.0,8089.0 5330.0,8098.0 5234.0,8099.0 C 5202.0,8100.0 5178.0,8105.0 5170.0,8114.0 C 5161.0,8125.0 5152.0,8127.0 5133.0,8119.0 C 5119.0,8114.0 5105.0,8112.0 5102.0,8115.0 C 5093.0,8124.0 5178.0,8327.0 5223.0,8405.0 C 5292.0,8525.0 5385.0,8662.0 5454.0,8745.0 C 5562.0,8875.0 5565.0,8963.0 5466.0,9095.0 C 5437.0,9133.0 5399.0,9193.0 5381.0,9227.0 C 5325.0,9332.0 4983.0,9653.0 4877.0,9700.0 C 4851.0,9712.0 4825.0,9731.0 4819.0,9743.0 C 4813.0,9755.0 4793.0,9781.0 4776.0,9800.0 C 4747.0,9831.0 4699.0,9953.0 4688.0,10024.0 C 4686.0,10037.0 4673.0,10047.0 4652.0,10052.0 C 4631.0,10058.0 4589.0,10091.0 4531.0,10150.0 C 4482.0,10200.0 4435.0,10240.0 4426.0,10240.0 C 4413.0,10240.0 4410.0,10227.0 4410.0,10168.0" fill="pink"/>
</svg>
