<?xml version="1.0" ?>
<svg xmlns="http://www.w3.org/2000/svg" xmlns:ev="http://www.w3.org/2001/xml-events" xmlns:xlink="http://www.w3.org/1999/xlink" baseProfile="full" height="600px" version="1.1" viewBox="1611.2062936727984 -1031.3210000000001 7014.314475926418 12300.642" width="343px">
	<defs/>
	<path d="M 3473.0,10224.0 C 3451.0,10167.0 3547.0,10102.0 3655.0,10100.0 L 3715.0,10099.0 L 3820.0,9978.0 C 3884.0,9904.0 3982.0,9809.0 4072.0,9732.0 C 4154.0,9663.0 4218.0,9605.0 4217.0,9603.0 C 4207.0,9594.0 4094.0,9651.0 4005.0,9711.0 C 3934.0,9758.0 3899.0,9789.0 3883.0,9816.0 C 3871.0,9838.0 3840.0,9875.0 3815.0,9900.0 C 3790.0,9925.0 3753.0,9971.0 3733.0,10004.0 C 3697.0,10062.0 3697.0,10062.0 3657.0,10057.0 C 3628.0,10053.0 3604.0,10058.0 3566.0,10076.0 C 3538.0,10089.0 3496.0,10104.0 3473.0,10110.0 C 3433.0,10120.0 3431.0,10122.0 3419.0,10175.0 C 3405.0,10237.0 3407.0,10236.0 3314.0,10216.0 C 3264.0,10205.0 3238.0,10206.0 3157.0,10218.0 L 3060.0,10233.0 L 3007.0,10183.0 C 2979.0,10156.0 2938.0,10122.0 2918.0,10106.0 L 2881.0,10078.0 L 2913.0,10022.0 C 2930.0,9991.0 2947.0,9948.0 2950.0,9926.0 L 2955.0,9886.0 L 3020.0,9872.0 C 3074.0,9861.0 3093.0,9851.0 3130.0,9814.0 C 3156.0,9789.0 3201.0,9760.0 3235.0,9746.0 C 3268.0,9733.0 3320.0,9708.0 3350.0,9691.0 C 3380.0,9674.0 3413.0,9660.0 3424.0,9660.0 C 3439.0,9660.0 3437.0,9666.0 3410.0,9696.0 C 3393.0,9716.0 3381.0,9735.0 3384.0,9737.0 C 3387.0,9740.0 3413.0,9726.0 3442.0,9706.0 C 3471.0,9685.0 3517.0,9653.0 3544.0,9634.0 C 3600.0,9595.0 3616.0,9592.0 3625.0,9621.0 C 3630.0,9637.0 3622.0,9652.0 3591.0,9684.0 C 3547.0,9729.0 3538.0,9760.0 3569.0,9760.0 C 3602.0,9760.0 3848.0,9621.0 3979.0,9528.0 C 4104.0,9440.0 4114.0,9436.0 4160.0,9449.0 C 4177.0,9455.0 4191.0,9452.0 4203.0,9441.0 C 4219.0,9427.0 4223.0,9427.0 4231.0,9440.0 C 4254.0,9479.0 4259.0,9483.0 4281.0,9477.0 C 4303.0,9471.0 4643.0,9261.0 4665.0,9239.0 C 4670.0,9234.0 4661.0,9230.0 4640.0,9230.0 C 4603.0,9230.0 4537.0,9257.0 4492.0,9289.0 C 4477.0,9299.0 4427.0,9324.0 4380.0,9345.0 C 4306.0,9378.0 4286.0,9382.0 4226.0,9381.0 C 4186.0,9380.0 4144.0,9372.0 4126.0,9363.0 C 4008.0,9302.0 3811.0,9268.0 3796.0,9306.0 C 3785.0,9334.0 3790.0,9347.0 3815.0,9358.0 C 3845.0,9372.0 3841.0,9381.0 3788.0,9442.0 C 3756.0,9479.0 3753.0,9480.0 3655.0,9491.0 C 3561.0,9501.0 3548.0,9505.0 3444.0,9561.0 C 3354.0,9609.0 3324.0,9620.0 3286.0,9620.0 C 3243.0,9620.0 3240.0,9618.0 3249.0,9601.0 C 3260.0,9581.0 3420.0,9478.0 3501.0,9440.0 C 3539.0,9421.0 3551.0,9409.0 3568.0,9368.0 L 3589.0,9318.0 L 3542.0,9299.0 C 3501.0,9282.0 3492.0,9272.0 3472.0,9227.0 L 3449.0,9174.0 L 3350.0,9141.0 L 3250.0,9109.0 L 3250.0,9017.0 L 3250.0,8925.0 L 3323.0,8879.0 L 3396.0,8833.0 L 3408.0,8767.0 C 3419.0,8705.0 3418.0,8692.0 3395.0,8598.0 C 3378.0,8529.0 3358.0,8478.0 3336.0,8445.0 C 3311.0,8408.0 3296.0,8364.0 3275.0,8275.0 C 3260.0,8209.0 3244.0,8148.0 3239.0,8139.0 C 3235.0,8130.0 3210.0,8117.0 3184.0,8110.0 C 3151.0,8100.0 3113.0,8075.0 3050.0,8021.0 C 3003.0,7979.0 2949.0,7938.0 2933.0,7928.0 L 2902.0,7912.0 L 2901.0,7716.0 L 2901.0,7521.0 L 2937.0,7444.0 L 2972.0,7367.0 L 2959.0,7231.0 C 2948.0,7110.0 2944.0,7091.0 2920.0,7058.0 C 2903.0,7035.0 2890.0,7001.0 2886.0,6970.0 C 2879.0,6921.0 2878.0,6919.0 2820.0,6890.0 L 2760.0,6860.0 L 2760.0,6757.0 C 2760.0,6657.0 2759.0,6654.0 2729.0,6617.0 C 2700.0,6581.0 2698.0,6575.0 2702.0,6517.0 C 2706.0,6464.0 2703.0,6447.0 2680.0,6400.0 C 2659.0,6358.0 2651.0,6323.0 2645.0,6250.0 C 2638.0,6167.0 2634.0,6149.0 2607.0,6111.0 L 2577.0,6066.0 L 2598.0,6029.0 C 2612.0,6004.0 2620.0,5974.0 2620.0,5943.0 C 2620.0,5917.0 2625.0,5879.0 2630.0,5860.0 C 2640.0,5828.0 2637.0,5817.0 2599.0,5738.0 L 2556.0,5651.0 L 2604.0,5589.0 C 2650.0,5530.0 2651.0,5526.0 2645.0,5480.0 C 2637.0,5420.0 2614.0,5406.0 2536.0,5412.0 C 2491.0,5416.0 2473.0,5423.0 2450.0,5445.0 C 2409.0,5485.0 2404.0,5507.0 2429.0,5541.0 C 2455.0,5576.0 2455.0,5582.0 2431.0,5604.0 C 2417.0,5616.0 2411.0,5641.0 2406.0,5706.0 C 2401.0,5779.0 2403.0,5798.0 2420.0,5837.0 C 2431.0,5862.0 2440.0,5903.0 2440.0,5928.0 C 2440.0,5966.0 2446.0,5980.0 2471.0,6006.0 C 2491.0,6027.0 2503.0,6051.0 2507.0,6079.0 C 2512.0,6118.0 2511.0,6121.0 2481.0,6131.0 C 2464.0,6137.0 2450.0,6148.0 2450.0,6156.0 C 2450.0,6164.0 2469.0,6207.0 2491.0,6253.0 L 2532.0,6335.0 L 2477.0,6275.0 C 2439.0,6233.0 2417.0,6199.0 2405.0,6161.0 C 2396.0,6131.0 2370.0,6082.0 2348.0,6052.0 L 2308.0,5998.0 L 2317.0,5894.0 C 2322.0,5833.0 2322.0,5786.0 2317.0,5781.0 C 2300.0,5764.0 2361.0,5461.0 2441.0,5155.0 C 2523.0,4839.0 2560.0,4631.0 2560.0,4479.0 C 2560.0,4408.0 2558.0,4399.0 2545.0,4410.0 C 2536.0,4418.0 2530.0,4418.0 2530.0,4412.0 C 2530.0,4406.0 2559.0,4209.0 2595.0,3973.0 C 2654.0,3589.0 2660.0,3536.0 2654.0,3453.0 C 2647.0,3362.0 2648.0,3360.0 2673.0,3340.0 C 2699.0,3320.0 2720.0,3252.0 2720.0,3190.0 C 2720.0,3139.0 2705.0,3156.0 2669.0,3247.0 C 2648.0,3300.0 2628.0,3336.0 2618.0,3338.0 C 2606.0,3340.0 2617.0,3293.0 2671.0,3113.0 C 2729.0,2922.0 2740.0,2873.0 2740.0,2813.0 C 2740.0,2749.0 2736.0,2734.0 2709.0,2690.0 L 2678.0,2640.0 L 2706.0,2473.0 C 2730.0,2324.0 2742.0,2282.0 2807.0,2105.0 C 2851.0,1988.0 2895.0,1887.0 2914.0,1860.0 C 2938.0,1828.0 2960.0,1771.0 2994.0,1654.0 C 3039.0,1499.0 3040.0,1492.0 3026.0,1453.0 C 3012.0,1414.0 3013.0,1411.0 3035.0,1390.0 C 3051.0,1375.0 3062.0,1348.0 3070.0,1303.0 C 3084.0,1222.0 3108.0,1156.0 3150.0,1088.0 C 3180.0,1039.0 3182.0,1031.0 3177.0,969.0 C 3172.0,907.0 3173.0,900.0 3196.0,879.0 C 3210.0,866.0 3229.0,827.0 3241.0,786.0 C 3253.0,747.0 3277.0,695.0 3295.0,670.0 C 3316.0,642.0 3331.0,607.0 3335.0,578.0 C 3341.0,536.0 3347.0,528.0 3386.0,505.0 C 3410.0,491.0 3430.0,475.0 3430.0,470.0 C 3430.0,465.0 3442.0,454.0 3458.0,446.0 C 3473.0,438.0 3511.0,400.0 3544.0,361.0 C 3591.0,304.0 3608.0,290.0 3631.0,290.0 C 3671.0,290.0 3706.0,274.0 3755.0,234.0 C 3788.0,207.0 3813.0,197.0 3861.0,189.0 C 3896.0,183.0 3939.0,170.0 3957.0,159.0 C 3981.0,144.0 3998.0,141.0 4025.0,146.0 C 4057.0,152.0 4065.0,149.0 4096.0,119.0 C 4125.0,91.0 4136.0,86.0 4172.0,89.0 C 4194.0,90.0 4222.0,96.0 4232.0,101.0 C 4255.0,113.0 4280.0,97.0 4280.0,70.0 C 4280.0,44.0 4299.0,40.0 4434.0,40.0 C 4531.0,40.0 4569.0,36.0 4618.0,19.0 L 4679.0,-2.0 L 4739.0,44.0 L 4798.0,90.0 L 4882.0,90.0 C 4959.0,90.0 4969.0,92.0 4990.0,115.0 C 5003.0,129.0 5019.0,140.0 5026.0,140.0 C 5033.0,140.0 5048.0,153.0 5059.0,169.0 C 5070.0,184.0 5092.0,200.0 5108.0,203.0 C 5123.0,206.0 5161.0,229.0 5192.0,255.0 C 5246.0,299.0 5250.0,301.0 5297.0,294.0 C 5343.0,288.0 5346.0,289.0 5355.0,315.0 C 5364.0,339.0 5384.0,349.0 5530.0,402.0 C 5676.0,455.0 5712.0,464.0 5845.0,481.0 C 5928.0,491.0 6000.0,500.0 6007.0,500.0 C 6013.0,500.0 6027.0,513.0 6036.0,529.0 C 6050.0,552.0 6066.0,562.0 6109.0,572.0 C 6157.0,584.0 6167.0,590.0 6182.0,620.0 C 6214.0,686.0 6240.0,700.0 6240.0,650.0 C 6240.0,634.0 6243.0,620.0 6247.0,620.0 C 6250.0,620.0 6274.0,633.0 6299.0,649.0 C 6331.0,669.0 6364.0,680.0 6407.0,684.0 C 6480.0,692.0 6569.0,729.0 6625.0,774.0 C 6647.0,792.0 6688.0,819.0 6715.0,835.0 C 6743.0,851.0 6790.0,884.0 6820.0,910.0 C 6850.0,935.0 6898.0,972.0 6926.0,993.0 C 6954.0,1013.0 6995.0,1051.0 7016.0,1076.0 C 7044.0,1111.0 7073.0,1132.0 7129.0,1157.0 C 7170.0,1176.0 7219.0,1204.0 7237.0,1221.0 C 7256.0,1237.0 7289.0,1259.0 7311.0,1270.0 C 7400.0,1316.0 7488.0,1417.0 7618.0,1624.0 C 7743.0,1822.0 7760.0,1858.0 7760.0,1918.0 C 7760.0,1936.0 7767.0,1961.0 7775.0,1974.0 C 7783.0,1986.0 7808.0,2039.0 7831.0,2091.0 C 7865.0,2170.0 7872.0,2195.0 7871.0,2248.0 C 7869.0,2302.0 7873.0,2316.0 7899.0,2353.0 C 7920.0,2384.0 7930.0,2412.0 7935.0,2459.0 C 7938.0,2495.0 7952.0,2544.0 7965.0,2570.0 C 7978.0,2595.0 7993.0,2651.0 7999.0,2694.0 C 8005.0,2736.0 8017.0,2784.0 8026.0,2801.0 C 8039.0,2827.0 8040.0,2845.0 8030.0,2928.0 C 8024.0,2981.0 8012.0,3050.0 8005.0,3080.0 C 7994.0,3124.0 7993.0,3173.0 8000.0,3326.0 C 8005.0,3431.0 8012.0,3523.0 8015.0,3532.0 C 8034.0,3581.0 7893.0,4045.0 7860.0,4045.0 C 7851.0,4045.0 7838.0,4023.0 7826.0,3985.0 C 7815.0,3953.0 7805.0,3930.0 7804.0,3935.0 C 7802.0,3941.0 7796.0,3964.0 7790.0,3987.0 C 7780.0,4027.0 7778.0,4029.0 7753.0,4019.0 C 7721.0,4007.0 7715.0,4012.0 7731.0,4037.0 C 7740.0,4053.0 7738.0,4064.0 7720.0,4100.0 L 7698.0,4144.0 L 7719.0,4161.0 L 7740.0,4179.0 L 7719.0,4194.0 C 7699.0,4208.0 7698.0,4215.0 7704.0,4272.0 C 7712.0,4351.0 7690.0,4419.0 7642.0,4461.0 C 7606.0,4493.0 7580.0,4499.0 7580.0,4475.0 C 7580.0,4467.0 7576.0,4460.0 7571.0,4460.0 C 7559.0,4460.0 7550.0,4485.0 7550.0,4519.0 C 7550.0,4538.0 7535.0,4561.0 7496.0,4600.0 C 7464.0,4631.0 7440.0,4664.0 7438.0,4679.0 C 7436.0,4698.0 7427.0,4706.0 7401.0,4713.0 C 7379.0,4718.0 7364.0,4718.0 7357.0,4711.0 C 7343.0,4697.0 7329.0,4697.0 7294.0,4710.0 L 7267.0,4721.0 L 7291.0,4746.0 C 7313.0,4770.0 7320.0,4772.0 7373.0,4766.0 C 7444.0,4759.0 7445.0,4758.0 7471.0,4709.0 L 7491.0,4669.0 L 7523.0,4687.0 C 7546.0,4701.0 7556.0,4714.0 7558.0,4736.0 C 7561.0,4763.0 7552.0,4775.0 7490.0,4830.0 C 7451.0,4865.0 7406.0,4912.0 7390.0,4935.0 C 7369.0,4966.0 7352.0,4979.0 7327.0,4984.0 C 7299.0,4989.0 7290.0,4999.0 7262.0,5055.0 C 7225.0,5130.0 7218.0,5204.0 7246.0,5225.0 C 7261.0,5235.0 7257.0,5241.0 7217.0,5274.0 C 7192.0,5294.0 7169.0,5317.0 7167.0,5324.0 C 7164.0,5332.0 7173.0,5353.0 7187.0,5373.0 C 7208.0,5403.0 7210.0,5411.0 7200.0,5430.0 C 7190.0,5448.0 7183.0,5451.0 7155.0,5446.0 C 7127.0,5440.0 7119.0,5443.0 7110.0,5460.0 C 7104.0,5472.0 7089.0,5480.0 7074.0,5480.0 C 7055.0,5480.0 7048.0,5486.0 7043.0,5510.0 C 7040.0,5528.0 7022.0,5554.0 6999.0,5574.0 C 6962.0,5605.0 6960.0,5610.0 6960.0,5662.0 C 6960.0,5712.0 6957.0,5718.0 6934.0,5729.0 C 6910.0,5740.0 6904.0,5738.0 6880.0,5715.0 C 6842.0,5678.0 6824.0,5683.0 6795.0,5739.0 C 6782.0,5766.0 6761.0,5791.0 6750.0,5795.0 C 6734.0,5800.0 6730.0,5810.0 6731.0,5838.0 C 6734.0,5933.0 6743.0,5930.0 6790.0,5822.0 C 6814.0,5766.0 6836.0,5720.0 6840.0,5720.0 C 6843.0,5720.0 6851.0,5725.0 6857.0,5731.0 C 6871.0,5745.0 6863.0,5915.0 6847.0,5945.0 C 6841.0,5956.0 6813.0,6053.0 6785.0,6160.0 L 6734.0,6355.0 L 6698.0,6358.0 C 6649.0,6362.0 6627.0,6395.0 6636.0,6450.0 C 6640.0,6472.0 6645.0,6490.0 6649.0,6490.0 C 6652.0,6490.0 6663.0,6470.0 6673.0,6445.0 C 6686.0,6414.0 6698.0,6400.0 6711.0,6400.0 C 6721.0,6400.0 6730.0,6405.0 6730.0,6411.0 C 6730.0,6416.0 6712.0,6489.0 6690.0,6573.0 C 6658.0,6690.0 6644.0,6730.0 6625.0,6745.0 C 6612.0,6756.0 6594.0,6780.0 6586.0,6798.0 C 6569.0,6831.0 6556.0,6838.0 6544.0,6819.0 C 6541.0,6813.0 6524.0,6802.0 6506.0,6795.0 C 6479.0,6783.0 6476.0,6778.0 6479.0,6745.0 C 6481.0,6716.0 6476.0,6702.0 6454.0,6679.0 C 6422.0,6645.0 6411.0,6644.0 6325.0,6666.0 C 6264.0,6681.0 6260.0,6684.0 6254.0,6715.0 C 6249.0,6743.0 6241.0,6751.0 6200.0,6768.0 L 6152.0,6788.0 L 6119.0,6764.0 C 6091.0,6743.0 6084.0,6742.0 6072.0,6754.0 C 6060.0,6766.0 6061.0,6772.0 6075.0,6794.0 C 6104.0,6838.0 6121.0,6841.0 6179.0,6814.0 C 6208.0,6801.0 6242.0,6790.0 6255.0,6790.0 C 6285.0,6790.0 6294.0,6823.0 6269.0,6846.0 C 6257.0,6857.0 6250.0,6877.0 6250.0,6902.0 C 6250.0,6936.0 6253.0,6940.0 6275.0,6940.0 C 6296.0,6940.0 6301.0,6934.0 6306.0,6901.0 C 6312.0,6864.0 6314.0,6862.0 6336.0,6872.0 C 6372.0,6889.0 6368.0,6934.0 6325.0,6998.0 C 6305.0,7026.0 6283.0,7050.0 6275.0,7050.0 C 6248.0,7050.0 6259.0,7067.0 6290.0,7073.0 C 6316.0,7079.0 6320.0,7084.0 6320.0,7112.0 C 6320.0,7138.0 6312.0,7151.0 6285.0,7173.0 C 6266.0,7188.0 6236.0,7228.0 6219.0,7261.0 C 6195.0,7309.0 6186.0,7319.0 6176.0,7311.0 C 6159.0,7297.0 6150.0,7325.0 6150.0,7391.0 C 6150.0,7437.0 6149.0,7438.0 6076.0,7493.0 C 6013.0,7541.0 5995.0,7561.0 5959.0,7628.0 C 5924.0,7693.0 5909.0,7711.0 5872.0,7731.0 C 5831.0,7753.0 5825.0,7761.0 5806.0,7821.0 C 5788.0,7878.0 5776.0,7895.0 5724.0,7944.0 C 5690.0,7975.0 5660.0,8000.0 5656.0,8000.0 C 5653.0,8000.0 5650.0,7990.0 5650.0,7977.0 C 5650.0,7947.0 5614.0,7914.0 5573.0,7905.0 C 5514.0,7893.0 5473.0,7945.0 5522.0,7971.0 C 5536.0,7979.0 5540.0,7985.0 5532.0,7988.0 C 5526.0,7990.0 5520.0,8004.0 5520.0,8019.0 C 5520.0,8041.0 5508.0,8055.0 5455.0,8093.0 C 5419.0,8119.0 5390.0,8144.0 5390.0,8150.0 C 5390.0,8155.0 5409.0,8160.0 5433.0,8160.0 C 5470.0,8160.0 5481.0,8154.0 5515.0,8120.0 C 5556.0,8078.0 5586.0,8069.0 5597.0,8096.0 C 5601.0,8106.0 5587.0,8128.0 5557.0,8158.0 C 5526.0,8189.0 5499.0,8232.0 5476.0,8285.0 C 5442.0,8362.0 5440.0,8365.0 5410.0,8362.0 C 5382.0,8359.0 5380.0,8361.0 5380.0,8389.0 C 5380.0,8418.0 5378.0,8420.0 5341.0,8420.0 C 5297.0,8420.0 5271.0,8440.0 5293.0,8458.0 C 5303.0,8466.0 5319.0,8465.0 5355.0,8455.0 C 5381.0,8447.0 5405.0,8442.0 5407.0,8444.0 C 5409.0,8445.0 5376.0,8517.0 5334.0,8604.0 C 5278.0,8719.0 5253.0,8760.0 5240.0,8760.0 C 5230.0,8760.0 5214.0,8763.0 5205.0,8767.0 C 5191.0,8772.0 5189.0,8769.0 5195.0,8750.0 C 5202.0,8727.0 5201.0,8727.0 5164.0,8756.0 C 5142.0,8773.0 5111.0,8792.0 5093.0,8799.0 C 5067.0,8810.0 5040.0,8849.0 5040.0,8876.0 C 5040.0,8889.0 5081.0,8875.0 5114.0,8850.0 C 5145.0,8827.0 5156.0,8823.0 5172.0,8831.0 C 5189.0,8840.0 5173.0,8860.0 5020.0,9020.0 C 4881.0,9165.0 4823.0,9217.0 4717.0,9294.0 C 4644.0,9346.0 4467.0,9480.0 4322.0,9592.0 L 4059.0,9796.0 L 3925.0,9968.0 C 3834.0,10086.0 3786.0,10156.0 3775.0,10190.0 L 3758.0,10240.0 L 3619.0,10240.0 C 3500.0,10240.0 3478.0,10238.0 3473.0,10224.0" fill="pink"/>
	<path d="M 2754.0,10059.0 C 2739.0,10051.0 2731.0,10032.0 2722.0,9979.0 C 2705.0,9883.0 2706.0,9875.0 2738.0,9838.0 C 2754.0,9820.0 2770.0,9794.0 2773.0,9780.0 C 2790.0,9717.0 2827.0,9700.0 2952.0,9700.0 L 3055.0,9700.0 L 2985.0,9751.0 C 2946.0,9779.0 2912.0,9809.0 2909.0,9818.0 C 2906.0,9826.0 2884.0,9838.0 2859.0,9844.0 L 2815.0,9855.0 L 2812.0,9919.0 C 2810.0,9954.0 2814.0,9996.0 2820.0,10013.0 C 2825.0,10030.0 2827.0,10047.0 2823.0,10051.0 C 2808.0,10065.0 2775.0,10068.0 2754.0,10059.0" fill="pink"/>
	<path d="M 2607.0,9632.0 C 2600.0,9575.0 2612.0,9562.0 2675.0,9558.0 L 2730.0,9555.0 L 2730.0,9593.0 C 2730.0,9629.0 2728.0,9631.0 2702.0,9629.0 C 2685.0,9627.0 2662.0,9635.0 2643.0,9648.0 L 2612.0,9670.0 L 2607.0,9632.0" fill="pink"/>
	<path d="M 2200.0,9456.0 L 2200.0,9392.0 L 2244.0,9366.0 C 2343.0,9308.0 2405.0,9325.0 2388.0,9406.0 C 2379.0,9449.0 2364.0,9460.0 2314.0,9460.0 C 2302.0,9460.0 2276.0,9474.0 2255.0,9490.0 C 2234.0,9507.0 2213.0,9520.0 2209.0,9520.0 C 2204.0,9520.0 2200.0,9491.0 2200.0,9456.0" fill="pink"/>
	<path d="M 2403.0,8333.0 C 2322.0,8330.0 2310.0,8327.0 2310.0,8311.0 C 2310.0,8290.0 2363.0,8262.0 2465.0,8230.0 C 2560.0,8199.0 2691.0,8119.0 2736.0,8064.0 L 2773.0,8019.0 L 2799.0,8044.0 L 2824.0,8070.0 L 2785.0,8110.0 L 2745.0,8151.0 L 2798.0,8144.0 C 2826.0,8141.0 2850.0,8140.0 2850.0,8143.0 C 2850.0,8145.0 2816.0,8174.0 2773.0,8205.0 C 2702.0,8259.0 2534.0,8343.0 2507.0,8338.0 C 2500.0,8337.0 2453.0,8334.0 2403.0,8333.0" fill="pink"/>
</svg>
