<?xml version="1.0" ?>
<svg xmlns="http://www.w3.org/2000/svg" xmlns:ev="http://www.w3.org/2001/xml-events" xmlns:xlink="http://www.w3.org/1999/xlink" baseProfile="full" height="600px" version="1.1" viewBox="-870.2559745860517 -1026.5563352272727 11990.750913391395 12295.44221590909" width="586px">
	<defs/>
	<path d="M 4212.0,10215.0 C 4201.0,10201.0 4189.0,10172.0 4185.0,10150.0 C 4179.0,10112.0 4177.0,10110.0 4109.0,10089.0 C 4062.0,10074.0 4036.0,10070.0 4028.0,10077.0 C 4021.0,10083.0 3994.0,10090.0 3969.0,10093.0 C 3929.0,10098.0 3913.0,10094.0 3847.0,10061.0 C 3797.0,10037.0 3757.0,10009.0 3734.0,9982.0 C 3711.0,9955.0 3690.0,9940.0 3675.0,9940.0 C 3662.0,9940.0 3644.0,9929.0 3633.0,9915.0 C 3615.0,9890.0 3614.0,9889.0 3577.0,9905.0 L 3540.0,9920.0 L 3540.0,10009.0 L 3540.0,10098.0 L 3506.0,10119.0 C 3479.0,10136.0 3456.0,10140.0 3388.0,10140.0 C 3314.0,10140.0 3301.0,10137.0 3284.0,10119.0 C 3245.0,10076.0 3182.0,10039.0 3156.0,10046.0 C 3143.0,10049.0 3129.0,10047.0 3126.0,10041.0 C 3122.0,10035.0 3103.0,10030.0 3083.0,10030.0 L 3047.0,10030.0 L 3053.0,9988.0 C 3057.0,9957.0 3053.0,9935.0 3036.0,9901.0 C 3007.0,9844.0 2990.0,9767.0 2990.0,9694.0 C 2990.0,9648.0 2984.0,9631.0 2959.0,9593.0 C 2918.0,9535.0 2911.0,9481.0 2938.0,9443.0 C 2963.0,9408.0 2975.0,9338.0 2961.0,9312.0 C 2955.0,9301.0 2927.0,9277.0 2898.0,9258.0 C 2845.0,9225.0 2844.0,9225.0 2735.0,9227.0 C 2577.0,9230.0 2539.0,9219.0 2461.0,9148.0 C 2425.0,9116.0 2389.0,9073.0 2380.0,9052.0 C 2368.0,9025.0 2346.0,9004.0 2303.0,8978.0 L 2243.0,8940.0 L 2236.0,8763.0 C 2221.0,8342.0 2220.0,8330.0 2196.0,8330.0 C 2184.0,8330.0 2163.0,8322.0 2150.0,8313.0 C 2094.0,8275.0 1976.0,8163.0 1947.0,8120.0 C 1792.0,7891.0 1582.0,7680.0 1510.0,7680.0 C 1473.0,7680.0 1420.0,7652.0 1347.0,7591.0 C 1277.0,7534.0 1130.0,7434.0 1049.0,7388.0 C 1019.0,7372.0 999.0,7347.0 970.0,7295.0 C 949.0,7257.0 913.0,7207.0 891.0,7185.0 C 860.0,7156.0 850.0,7138.0 850.0,7115.0 C 850.0,7084.0 848.0,7082.0 757.0,7051.0 C 630.0,7007.0 557.0,6963.0 550.0,6924.0 C 546.0,6908.0 522.0,6867.0 496.0,6833.0 C 449.0,6773.0 449.0,6772.0 455.0,6713.0 C 462.0,6657.0 461.0,6654.0 437.0,6643.0 C 398.0,6625.0 376.0,6586.0 383.0,6546.0 C 387.0,6519.0 383.0,6506.0 359.0,6477.0 C 343.0,6457.0 321.0,6439.0 311.0,6435.0 C 285.0,6427.0 256.0,6358.0 264.0,6324.0 C 273.0,6291.0 259.0,6281.0 205.0,6279.0 C 183.0,6279.0 157.0,6275.0 147.0,6271.0 C 129.0,6265.0 129.0,6263.0 145.0,6250.0 C 154.0,6243.0 183.0,6205.0 210.0,6166.0 C 246.0,6114.0 275.0,6085.0 315.0,6061.0 C 402.0,6008.0 426.0,5943.0 399.0,5835.0 C 389.0,5797.0 391.0,5787.0 409.0,5753.0 C 427.0,5722.0 443.0,5710.0 498.0,5688.0 C 535.0,5673.0 590.0,5654.0 621.0,5646.0 C 652.0,5637.0 721.0,5607.0 774.0,5580.0 C 827.0,5552.0 970.0,5489.0 1092.0,5440.0 C 1213.0,5390.0 1334.0,5338.0 1359.0,5323.0 C 1384.0,5308.0 1425.0,5286.0 1450.0,5274.0 C 1475.0,5262.0 1552.0,5205.0 1621.0,5147.0 C 1742.0,5045.0 1748.0,5038.0 1785.0,4958.0 C 1815.0,4895.0 1824.0,4862.0 1824.0,4820.0 L 1825.0,4765.0 L 1793.0,4766.0 C 1775.0,4767.0 1760.0,4764.0 1760.0,4760.0 C 1760.0,4755.0 1783.0,4731.0 1811.0,4706.0 C 1849.0,4672.0 1870.0,4660.0 1894.0,4660.0 C 1912.0,4660.0 1949.0,4645.0 1982.0,4626.0 C 2054.0,4582.0 2239.0,4514.0 2310.0,4505.0 C 2403.0,4493.0 2620.0,4421.0 2676.0,4383.0 C 2712.0,4359.0 2736.0,4349.0 2756.0,4352.0 L 2785.0,4355.0 L 2747.0,4392.0 C 2726.0,4413.0 2691.0,4435.0 2670.0,4441.0 C 2648.0,4448.0 2623.0,4461.0 2614.0,4472.0 C 2598.0,4489.0 2598.0,4490.0 2621.0,4490.0 C 2635.0,4490.0 2650.0,4486.0 2656.0,4481.0 C 2672.0,4465.0 2779.0,4410.0 2794.0,4410.0 C 2802.0,4410.0 2812.0,4400.0 2816.0,4388.0 C 2820.0,4375.0 2839.0,4351.0 2859.0,4333.0 L 2895.0,4301.0 L 2863.0,4300.0 C 2823.0,4300.0 2822.0,4289.0 2858.0,4255.0 C 2893.0,4222.0 2954.0,4195.0 3027.0,4180.0 C 3082.0,4169.0 3090.0,4163.0 3200.0,4055.0 C 3275.0,3981.0 3331.0,3934.0 3360.0,3922.0 C 3385.0,3911.0 3424.0,3886.0 3448.0,3867.0 C 3472.0,3847.0 3513.0,3823.0 3540.0,3813.0 L 3588.0,3796.0 L 3599.0,3721.0 L 3611.0,3646.0 L 3682.0,3581.0 C 3721.0,3545.0 3768.0,3504.0 3786.0,3490.0 C 3804.0,3476.0 3849.0,3440.0 3887.0,3409.0 C 3924.0,3378.0 3975.0,3342.0 4000.0,3329.0 C 4031.0,3312.0 4053.0,3290.0 4070.0,3259.0 C 4110.0,3186.0 4206.0,3088.0 4325.0,2999.0 C 4386.0,2954.0 4460.0,2894.0 4490.0,2865.0 C 4520.0,2837.0 4578.0,2792.0 4618.0,2765.0 C 4665.0,2734.0 4690.0,2711.0 4690.0,2698.0 C 4690.0,2662.0 4718.0,2610.0 4738.0,2610.0 C 4771.0,2610.0 4850.0,2570.0 4892.0,2532.0 C 4914.0,2512.0 4945.0,2470.0 4960.0,2439.0 C 5002.0,2357.0 5099.0,2249.0 5188.0,2186.0 C 5230.0,2156.0 5274.0,2123.0 5284.0,2111.0 C 5295.0,2099.0 5344.0,2067.0 5392.0,2039.0 C 5467.0,1996.0 5479.0,1986.0 5465.0,1976.0 C 5455.0,1969.0 5452.0,1958.0 5455.0,1948.0 C 5465.0,1924.0 5549.0,1870.0 5577.0,1870.0 C 5592.0,1870.0 5627.0,1845.0 5676.0,1800.0 C 5718.0,1761.0 5778.0,1716.0 5809.0,1700.0 C 5841.0,1684.0 5882.0,1659.0 5900.0,1643.0 C 6011.0,1550.0 6085.0,1510.0 6225.0,1465.0 C 6302.0,1441.0 6376.0,1419.0 6390.0,1416.0 C 6430.0,1408.0 6590.0,1303.0 6645.0,1249.0 C 6688.0,1207.0 6704.0,1199.0 6754.0,1189.0 C 6863.0,1169.0 7052.0,1090.0 7116.0,1037.0 C 7132.0,1024.0 7168.0,1006.0 7195.0,996.0 C 7264.0,971.0 7341.0,926.0 7370.0,894.0 C 7443.0,816.0 7591.0,731.0 7685.0,714.0 C 7767.0,700.0 7823.0,669.0 7895.0,602.0 C 7941.0,558.0 7979.0,530.0 8006.0,522.0 C 8031.0,515.0 8109.0,510.0 8204.0,510.0 L 8361.0,510.0 L 8493.0,454.0 C 8566.0,423.0 8667.0,382.0 8718.0,364.0 C 8770.0,345.0 8843.0,316.0 8882.0,300.0 C 8921.0,283.0 8966.0,270.0 8984.0,270.0 C 9031.0,270.0 9042.0,257.0 9048.0,201.0 L 9053.0,150.0 L 9089.0,150.0 C 9119.0,150.0 9131.0,144.0 9148.0,120.0 C 9165.0,97.0 9179.0,90.0 9204.0,90.0 C 9222.0,90.0 9265.0,79.0 9299.0,65.0 C 9348.0,45.0 9371.0,41.0 9409.0,46.0 C 9447.0,51.0 9465.0,48.0 9499.0,31.0 C 9556.0,2.0 9622.0,-5.0 9708.0,10.0 C 9796.0,25.0 9801.0,40.0 9734.0,97.0 C 9689.0,135.0 9688.0,136.0 9697.0,175.0 C 9712.0,243.0 9706.0,408.0 9685.0,502.0 C 9666.0,586.0 9666.0,591.0 9683.0,620.0 C 9705.0,656.0 9705.0,687.0 9688.0,905.0 C 9675.0,1068.0 9673.0,1077.0 9642.0,1126.0 C 9611.0,1176.0 9610.0,1181.0 9610.0,1289.0 C 9610.0,1390.0 9612.0,1400.0 9628.0,1400.0 C 9639.0,1400.0 9655.0,1409.0 9665.0,1420.0 C 9675.0,1431.0 9694.0,1440.0 9707.0,1440.0 C 9727.0,1440.0 9730.0,1445.0 9730.0,1481.0 C 9730.0,1507.0 9722.0,1534.0 9705.0,1558.0 C 9682.0,1592.0 9680.0,1603.0 9680.0,1710.0 C 9680.0,1773.0 9684.0,1830.0 9688.0,1836.0 C 9702.0,1858.0 9762.0,1881.0 9797.0,1878.0 C 9836.0,1875.0 9856.0,1894.0 9889.0,1967.0 C 9908.0,2008.0 9908.0,2009.0 9886.0,2096.0 C 9865.0,2180.0 9865.0,2187.0 9879.0,2247.0 C 9894.0,2305.0 9897.0,2310.0 9923.0,2310.0 C 9938.0,2310.0 9962.0,2317.0 9976.0,2326.0 C 9989.0,2335.0 10002.0,2341.0 10003.0,2339.0 C 10005.0,2337.0 10011.0,2324.0 10017.0,2310.0 L 10028.0,2285.0 L 10043.0,2320.0 C 10051.0,2339.0 10072.0,2365.0 10088.0,2377.0 L 10117.0,2399.0 L 10103.0,2482.0 C 10095.0,2527.0 10087.0,2567.0 10084.0,2569.0 C 10082.0,2571.0 10071.0,2561.0 10059.0,2546.0 L 10038.0,2520.0 L 10006.0,2562.0 C 9963.0,2618.0 9951.0,2697.0 9983.0,2702.0 C 10001.0,2705.0 10006.0,2716.0 10016.0,2785.0 C 10022.0,2830.0 10035.0,2889.0 10044.0,2918.0 C 10058.0,2958.0 10059.0,2977.0 10052.0,2999.0 C 10040.0,3032.0 10045.0,3040.0 10072.0,3040.0 C 10097.0,3040.0 10094.0,3058.0 10062.0,3106.0 C 10047.0,3128.0 10026.0,3173.0 10016.0,3206.0 C 10005.0,3238.0 9984.0,3300.0 9969.0,3343.0 C 9947.0,3403.0 9943.0,3426.0 9950.0,3446.0 C 9956.0,3460.0 9960.0,3523.0 9960.0,3585.0 C 9960.0,3711.0 9956.0,3720.0 9891.0,3720.0 C 9864.0,3720.0 9860.0,3715.0 9845.0,3670.0 C 9825.0,3611.0 9816.0,3613.0 9780.0,3690.0 C 9767.0,3717.0 9754.0,3740.0 9751.0,3740.0 C 9748.0,3740.0 9725.0,3727.0 9700.0,3710.0 L 9656.0,3681.0 L 9622.0,3745.0 C 9595.0,3796.0 9581.0,3811.0 9555.0,3820.0 C 9506.0,3836.0 9416.0,3887.0 9395.0,3910.0 C 9366.0,3942.0 9342.0,3936.0 9334.0,3895.0 C 9330.0,3873.0 9322.0,3860.0 9312.0,3860.0 C 9293.0,3860.0 9143.0,3959.0 9116.0,3989.0 C 9096.0,4011.0 9094.0,4037.0 9105.0,4111.0 C 9111.0,4149.0 9108.0,4165.0 9085.0,4211.0 C 9070.0,4241.0 9052.0,4268.0 9046.0,4272.0 C 9040.0,4276.0 9011.0,4280.0 8983.0,4280.0 C 8920.0,4280.0 8920.0,4279.0 8950.0,4421.0 C 8982.0,4571.0 8981.0,4573.0 8905.0,4615.0 C 8865.0,4638.0 8833.0,4664.0 8819.0,4687.0 C 8792.0,4731.0 8727.0,4760.0 8655.0,4760.0 C 8621.0,4760.0 8598.0,4765.0 8590.0,4775.0 C 8570.0,4799.0 8514.0,4804.0 8444.0,4786.0 C 8392.0,4773.0 8375.0,4772.0 8364.0,4781.0 C 8352.0,4791.0 8343.0,4787.0 8317.0,4762.0 C 8299.0,4745.0 8269.0,4728.0 8250.0,4723.0 C 8206.0,4711.0 8113.0,4730.0 8074.0,4757.0 C 8058.0,4769.0 8009.0,4788.0 7965.0,4800.0 C 7913.0,4814.0 7875.0,4832.0 7855.0,4850.0 C 7805.0,4896.0 7669.0,4931.0 7616.0,4911.0 C 7595.0,4902.0 7584.0,4903.0 7574.0,4911.0 C 7562.0,4921.0 7562.0,4924.0 7575.0,4934.0 C 7589.0,4944.0 7588.0,4952.0 7571.0,5005.0 L 7551.0,5065.0 L 7577.0,5092.0 C 7599.0,5115.0 7601.0,5122.0 7590.0,5135.0 C 7583.0,5143.0 7568.0,5150.0 7556.0,5150.0 C 7544.0,5150.0 7521.0,5164.0 7505.0,5180.0 C 7489.0,5197.0 7466.0,5210.0 7454.0,5210.0 C 7436.0,5210.0 7430.0,5201.0 7420.0,5160.0 C 7411.0,5121.0 7404.0,5110.0 7391.0,5114.0 C 7382.0,5117.0 7364.0,5122.0 7350.0,5125.0 C 7336.0,5129.0 7313.0,5149.0 7297.0,5171.0 C 7257.0,5230.0 7217.0,5250.0 7143.0,5250.0 C 7087.0,5250.0 7080.0,5252.0 7080.0,5270.0 C 7080.0,5283.0 7087.0,5290.0 7100.0,5290.0 C 7123.0,5290.0 7170.0,5355.0 7170.0,5387.0 C 7170.0,5404.0 7176.0,5410.0 7191.0,5410.0 C 7228.0,5410.0 7250.0,5429.0 7250.0,5460.0 C 7250.0,5494.0 7249.0,5494.0 7285.0,5480.0 C 7310.0,5471.0 7313.0,5473.0 7328.0,5509.0 C 7341.0,5540.0 7353.0,5551.0 7382.0,5560.0 C 7407.0,5567.0 7420.0,5577.0 7420.0,5588.0 C 7421.0,5605.0 7454.0,5633.0 7517.0,5670.0 C 7538.0,5682.0 7550.0,5699.0 7555.0,5722.0 C 7560.0,5744.0 7580.0,5771.0 7616.0,5803.0 C 7654.0,5837.0 7670.0,5859.0 7670.0,5877.0 C 7670.0,5893.0 7677.0,5904.0 7690.0,5907.0 C 7709.0,5912.0 7730.0,5962.0 7730.0,6004.0 C 7730.0,6015.0 7738.0,6047.0 7747.0,6077.0 C 7763.0,6129.0 7763.0,6130.0 7742.0,6153.0 C 7716.0,6181.0 7714.0,6212.0 7736.0,6245.0 C 7749.0,6264.0 7751.0,6283.0 7746.0,6324.0 C 7739.0,6374.0 7741.0,6379.0 7760.0,6385.0 C 7792.0,6395.0 7840.0,6468.0 7840.0,6505.0 C 7840.0,6522.0 7829.0,6570.0 7815.0,6610.0 C 7787.0,6694.0 7782.0,6784.0 7805.0,6814.0 C 7825.0,6840.0 7825.0,6916.0 7805.0,6923.0 C 7797.0,6927.0 7760.0,6952.0 7721.0,6981.0 L 7652.0,7033.0 L 7645.0,7094.0 C 7635.0,7196.0 7630.0,7209.0 7602.0,7222.0 C 7580.0,7233.0 7573.0,7246.0 7563.0,7290.0 C 7557.0,7320.0 7551.0,7371.0 7551.0,7402.0 C 7550.0,7433.0 7545.0,7471.0 7539.0,7487.0 C 7533.0,7502.0 7524.0,7557.0 7519.0,7609.0 C 7512.0,7693.0 7507.0,7709.0 7470.0,7772.0 C 7429.0,7840.0 7426.0,7842.0 7337.0,7884.0 C 7286.0,7908.0 7228.0,7943.0 7207.0,7961.0 C 7171.0,7993.0 7169.0,8000.0 7158.0,8083.0 L 7147.0,8170.0 L 7054.0,8170.0 C 6947.0,8170.0 6898.0,8155.0 6833.0,8103.0 C 6797.0,8074.0 6790.0,8062.0 6776.0,8001.0 C 6754.0,7903.0 6755.0,7804.0 6779.0,7758.0 L 6799.0,7722.0 L 6739.0,7651.0 C 6706.0,7612.0 6675.0,7580.0 6669.0,7580.0 C 6652.0,7580.0 6615.0,7529.0 6610.0,7497.0 C 6606.0,7470.0 6600.0,7465.0 6575.0,7462.0 C 6549.0,7460.0 6538.0,7448.0 6500.0,7383.0 C 6475.0,7341.0 6453.0,7303.0 6452.0,7299.0 C 6450.0,7294.0 6463.0,7272.0 6481.0,7249.0 L 6513.0,7208.0 L 6492.0,7164.0 C 6476.0,7133.0 6463.0,7119.0 6443.0,7114.0 C 6427.0,7111.0 6398.0,7104.0 6377.0,7099.0 C 6337.0,7089.0 6320.0,7093.0 6320.0,7114.0 C 6320.0,7121.0 6309.0,7137.0 6296.0,7149.0 C 6273.0,7171.0 6271.0,7171.0 6246.0,7155.0 C 6232.0,7145.0 6220.0,7134.0 6220.0,7129.0 C 6220.0,7125.0 6206.0,7105.0 6189.0,7086.0 C 6165.0,7058.0 6149.0,7050.0 6112.0,7045.0 C 6033.0,7035.0 6023.0,7031.0 5980.0,6995.0 C 5946.0,6967.0 5930.0,6960.0 5894.0,6960.0 C 5870.0,6960.0 5850.0,6962.0 5850.0,6965.0 C 5850.0,6969.0 5857.0,6984.0 5865.0,7000.0 C 5880.0,7028.0 5879.0,7029.0 5835.0,7057.0 C 5803.0,7077.0 5790.0,7092.0 5790.0,7108.0 C 5790.0,7127.0 5785.0,7130.0 5753.0,7130.0 C 5684.0,7130.0 5634.0,7177.0 5609.0,7264.0 C 5603.0,7284.0 5604.0,7306.0 5612.0,7327.0 C 5634.0,7386.0 5596.0,7401.0 5465.0,7386.0 L 5405.0,7379.0 L 5385.0,7422.0 L 5365.0,7465.0 L 5293.0,7468.0 C 5227.0,7471.0 5220.0,7469.0 5209.0,7448.0 C 5183.0,7398.0 5130.0,7395.0 5103.0,7441.0 L 5085.0,7472.0 L 5025.0,7405.0 L 4965.0,7339.0 L 4966.0,7409.0 C 4967.0,7489.0 4991.0,7537.0 5053.0,7584.0 C 5084.0,7608.0 5120.0,7687.0 5120.0,7730.0 C 5120.0,7738.0 5131.0,7755.0 5144.0,7769.0 C 5159.0,7785.0 5178.0,7829.0 5192.0,7879.0 C 5216.0,7961.0 5216.0,7963.0 5198.0,7998.0 C 5188.0,8018.0 5180.0,8043.0 5180.0,8053.0 C 5180.0,8075.0 5205.0,8166.0 5227.0,8227.0 C 5245.0,8276.0 5238.0,8333.0 5212.0,8352.0 C 5203.0,8359.0 5182.0,8383.0 5165.0,8405.0 C 5149.0,8427.0 5124.0,8455.0 5109.0,8467.0 C 5087.0,8485.0 5081.0,8503.0 5072.0,8572.0 C 5055.0,8692.0 5057.0,8768.0 5079.0,8816.0 C 5110.0,8884.0 5114.0,8934.0 5093.0,8970.0 C 5078.0,8996.0 5070.0,9001.0 5046.0,8997.0 C 5022.0,8994.0 5020.0,8995.0 5033.0,9005.0 C 5047.0,9015.0 5047.0,9020.0 5025.0,9056.0 C 5005.0,9089.0 5001.0,9108.0 5000.0,9177.0 C 5000.0,9268.0 5009.0,9258.0 4907.0,9276.0 C 4882.0,9280.0 4863.0,9292.0 4850.0,9310.0 L 4830.0,9339.0 L 4852.0,9385.0 C 4870.0,9423.0 4872.0,9435.0 4863.0,9459.0 C 4855.0,9483.0 4855.0,9491.0 4868.0,9504.0 C 4882.0,9518.0 4883.0,9524.0 4870.0,9553.0 C 4849.0,9602.0 4852.0,9655.0 4878.0,9683.0 C 4890.0,9696.0 4900.0,9711.0 4900.0,9717.0 C 4900.0,9735.0 4866.0,9757.0 4827.0,9764.0 C 4801.0,9769.0 4774.0,9786.0 4742.0,9817.0 L 4695.0,9862.0 L 4649.0,9846.0 C 4623.0,9837.0 4593.0,9830.0 4581.0,9830.0 C 4569.0,9830.0 4546.0,9823.0 4530.0,9815.0 C 4493.0,9796.0 4493.0,9801.0 4531.0,9870.0 C 4569.0,9940.0 4565.0,9988.0 4516.0,10025.0 C 4484.0,10049.0 4436.0,10057.0 4414.0,10042.0 C 4408.0,10038.0 4394.0,10008.0 4384.0,9976.0 L 4364.0,9917.0 L 4332.0,9991.0 C 4306.0,10051.0 4300.0,10074.0 4305.0,10105.0 C 4311.0,10139.0 4307.0,10152.0 4280.0,10193.0 C 4262.0,10219.0 4244.0,10240.0 4240.0,10240.0 C 4235.0,10240.0 4222.0,10229.0 4212.0,10215.0" fill="pink"/>
</svg>
