<?xml version="1.0" ?>
<svg xmlns="http://www.w3.org/2000/svg" xmlns:ev="http://www.w3.org/2001/xml-events" xmlns:xlink="http://www.w3.org/1999/xlink" baseProfile="full" height="598px" version="1.1" viewBox="-1028.3922318200293 -1010.4441332369042 12297.445770482376 12254.132905377062" width="600px">
	<defs/>
	<path d="M 6760.0,10211.0 C 6760.0,10200.0 6667.0,10109.0 6620.0,10075.0 C 6594.0,10055.0 6578.0,10050.0 6556.0,10054.0 C 6540.0,10058.0 6521.0,10055.0 6513.0,10048.0 C 6502.0,10039.0 6491.0,10039.0 6465.0,10049.0 C 6439.0,10058.0 6426.0,10058.0 6409.0,10049.0 C 6393.0,10041.0 6386.0,10041.0 6380.0,10050.0 C 6374.0,10059.0 6367.0,10059.0 6352.0,10051.0 C 6341.0,10045.0 6316.0,10040.0 6298.0,10040.0 C 6279.0,10040.0 6255.0,10033.0 6244.0,10025.0 C 6217.0,10005.0 6192.0,10007.0 6178.0,10030.0 C 6158.0,10061.0 6068.0,10058.0 6028.0,10025.0 C 6012.0,10011.0 5987.0,10000.0 5974.0,10000.0 C 5960.0,10000.0 5931.0,9991.0 5909.0,9979.0 C 5869.0,9959.0 5867.0,9959.0 5848.0,9977.0 C 5829.0,9994.0 5828.0,9994.0 5814.0,9975.0 C 5806.0,9965.0 5800.0,9939.0 5800.0,9918.0 C 5800.0,9887.0 5796.0,9880.0 5781.0,9880.0 C 5769.0,9880.0 5744.0,9857.0 5716.0,9821.0 C 5680.0,9774.0 5670.0,9753.0 5670.0,9723.0 C 5670.0,9689.0 5664.0,9679.0 5624.0,9646.0 L 5579.0,9608.0 L 5556.0,9629.0 L 5534.0,9650.0 L 5500.0,9615.0 C 5459.0,9573.0 5433.0,9570.0 5420.0,9606.0 C 5408.0,9637.0 5398.0,9632.0 5339.0,9566.0 L 5302.0,9526.0 L 5261.0,9553.0 C 5239.0,9568.0 5211.0,9580.0 5200.0,9580.0 C 5187.0,9580.0 5180.0,9587.0 5180.0,9599.0 C 5180.0,9613.0 5167.0,9622.0 5131.0,9634.0 C 5067.0,9655.0 5050.0,9654.0 5050.0,9631.0 C 5050.0,9605.0 5008.0,9580.0 4950.0,9573.0 C 4903.0,9568.0 4901.0,9569.0 4894.0,9594.0 C 4887.0,9624.0 4870.0,9629.0 4870.0,9601.0 C 4870.0,9590.0 4867.0,9575.0 4864.0,9566.0 C 4859.0,9553.0 4855.0,9554.0 4841.0,9572.0 L 4823.0,9593.0 L 4792.0,9547.0 C 4773.0,9520.0 4764.0,9499.0 4770.0,9495.0 C 4782.0,9487.0 4783.0,9450.0 4771.0,9450.0 C 4766.0,9450.0 4752.0,9458.0 4739.0,9469.0 L 4716.0,9487.0 L 4667.0,9434.0 C 4640.0,9404.0 4610.0,9380.0 4600.0,9380.0 C 4587.0,9380.0 4579.0,9370.0 4575.0,9348.0 C 4566.0,9308.0 4553.0,9291.0 4524.0,9280.0 C 4509.0,9274.0 4496.0,9254.0 4485.0,9218.0 C 4475.0,9189.0 4461.0,9161.0 4454.0,9157.0 C 4446.0,9153.0 4440.0,9141.0 4440.0,9132.0 C 4439.0,9098.0 4397.0,9063.0 4349.0,9056.0 C 4307.0,9050.0 4302.0,9046.0 4292.0,9013.0 C 4283.0,8983.0 4283.0,8973.0 4295.0,8960.0 C 4303.0,8951.0 4310.0,8939.0 4310.0,8934.0 C 4309.0,8919.0 4266.0,8875.0 4233.0,8855.0 C 4205.0,8839.0 4203.0,8834.0 4208.0,8794.0 L 4213.0,8750.0 L 4174.0,8751.0 C 4152.0,8751.0 4119.0,8757.0 4100.0,8764.0 C 4068.0,8776.0 4064.0,8775.0 4050.0,8754.0 L 4035.0,8731.0 L 3984.0,8764.0 C 3942.0,8790.0 3925.0,8795.0 3891.0,8792.0 C 3858.0,8789.0 3850.0,8784.0 3850.0,8768.0 C 3850.0,8736.0 3831.0,8710.0 3807.0,8710.0 C 3737.0,8709.0 3718.0,8681.0 3751.0,8626.0 L 3772.0,8590.0 L 3751.0,8561.0 C 3726.0,8526.0 3687.0,8515.0 3648.0,8531.0 C 3625.0,8540.0 3620.0,8549.0 3620.0,8576.0 C 3620.0,8608.0 3618.0,8610.0 3585.0,8610.0 C 3556.0,8610.0 3550.0,8606.0 3550.0,8590.0 C 3550.0,8579.0 3542.0,8567.0 3533.0,8563.0 C 3523.0,8560.0 3501.0,8544.0 3483.0,8527.0 L 3452.0,8498.0 L 3404.0,8514.0 C 3378.0,8523.0 3347.0,8538.0 3336.0,8548.0 C 3319.0,8563.0 3211.0,8610.0 3194.0,8610.0 C 3192.0,8610.0 3190.0,8597.0 3190.0,8581.0 C 3190.0,8563.0 3198.0,8547.0 3211.0,8538.0 C 3232.0,8525.0 3232.0,8523.0 3216.0,8493.0 C 3207.0,8475.0 3200.0,8452.0 3200.0,8440.0 C 3200.0,8422.0 3194.0,8420.0 3145.0,8420.0 C 3092.0,8420.0 3090.0,8419.0 3055.0,8374.0 C 3032.0,8342.0 3020.0,8316.0 3020.0,8294.0 C 3020.0,8249.0 3011.0,8230.0 2989.0,8230.0 C 2965.0,8230.0 2965.0,8228.0 2990.0,8180.0 C 3012.0,8137.0 3014.0,8122.0 3001.0,8101.0 C 2993.0,8089.0 2983.0,8090.0 2940.0,8109.0 C 2877.0,8136.0 2869.0,8131.0 2862.0,8060.0 C 2858.0,8016.0 2855.0,8010.0 2838.0,8016.0 C 2820.0,8021.0 2820.0,8020.0 2835.0,7985.0 C 2843.0,7964.0 2850.0,7946.0 2850.0,7945.0 C 2850.0,7943.0 2830.0,7935.0 2806.0,7927.0 C 2767.0,7914.0 2760.0,7914.0 2749.0,7926.0 C 2736.0,7942.0 2714.0,7945.0 2706.0,7932.0 C 2703.0,7927.0 2711.0,7909.0 2723.0,7892.0 C 2739.0,7868.0 2751.0,7861.0 2766.0,7865.0 C 2782.0,7868.0 2791.0,7861.0 2808.0,7831.0 L 2830.0,7792.0 L 2795.0,7770.0 C 2765.0,7752.0 2755.0,7750.0 2729.0,7759.0 C 2693.0,7772.0 2680.0,7752.0 2700.0,7715.0 C 2720.0,7678.0 2694.0,7586.0 2662.0,7582.0 C 2644.0,7579.0 2640.0,7572.0 2640.0,7544.0 C 2640.0,7515.0 2636.0,7510.0 2613.0,7505.0 C 2597.0,7502.0 2572.0,7496.0 2557.0,7492.0 L 2529.0,7485.0 L 2554.0,7438.0 L 2578.0,7392.0 L 2556.0,7371.0 C 2539.0,7355.0 2521.0,7350.0 2483.0,7350.0 C 2425.0,7350.0 2405.0,7334.0 2389.0,7275.0 C 2380.0,7245.0 2371.0,7235.0 2335.0,7219.0 C 2312.0,7209.0 2285.0,7189.0 2276.0,7176.0 C 2252.0,7138.0 2220.0,7111.0 2178.0,7093.0 C 2157.0,7084.0 2144.0,7072.0 2148.0,7066.0 C 2151.0,7060.0 2154.0,7039.0 2155.0,7020.0 C 2155.0,6985.0 2155.0,6985.0 2197.0,6988.0 C 2235.0,6991.0 2240.0,6988.0 2254.0,6961.0 C 2263.0,6945.0 2270.0,6927.0 2270.0,6923.0 C 2270.0,6918.0 2243.0,6897.0 2210.0,6876.0 C 2178.0,6855.0 2148.0,6831.0 2145.0,6822.0 C 2143.0,6812.0 2119.0,6793.0 2092.0,6778.0 C 2066.0,6763.0 2036.0,6742.0 2026.0,6731.0 C 2013.0,6716.0 2000.0,6712.0 1979.0,6717.0 C 1916.0,6729.0 1882.0,6703.0 1900.0,6655.0 C 1905.0,6641.0 1907.0,6617.0 1904.0,6601.0 C 1899.0,6577.0 1888.0,6567.0 1840.0,6547.0 L 1783.0,6522.0 L 1775.0,6435.0 C 1769.0,6360.0 1766.0,6350.0 1752.0,6356.0 C 1682.0,6385.0 1681.0,6385.0 1665.0,6365.0 C 1652.0,6347.0 1653.0,6343.0 1679.0,6320.0 C 1695.0,6306.0 1712.0,6278.0 1718.0,6258.0 C 1728.0,6221.0 1727.0,6219.0 1688.0,6186.0 C 1665.0,6166.0 1634.0,6150.0 1616.0,6148.0 C 1589.0,6145.0 1585.0,6141.0 1579.0,6108.0 C 1573.0,6070.0 1510.0,5983.0 1481.0,5972.0 C 1443.0,5958.0 1440.0,5914.0 1472.0,5853.0 C 1498.0,5805.0 1493.0,5795.0 1439.0,5785.0 C 1410.0,5780.0 1398.0,5783.0 1374.0,5804.0 C 1344.0,5829.0 1343.0,5829.0 1315.0,5810.0 C 1299.0,5800.0 1271.0,5768.0 1253.0,5739.0 C 1226.0,5696.0 1220.0,5676.0 1220.0,5633.0 C 1220.0,5585.0 1218.0,5580.0 1195.0,5574.0 C 1178.0,5570.0 1163.0,5573.0 1151.0,5584.0 C 1122.0,5611.0 1078.0,5604.0 1042.0,5567.0 C 1024.0,5549.0 1010.0,5524.0 1010.0,5512.0 C 1010.0,5482.0 956.0,5467.0 918.0,5486.0 C 883.0,5504.0 870.0,5504.0 870.0,5485.0 C 870.0,5477.0 857.0,5464.0 841.0,5456.0 C 825.0,5447.0 810.0,5431.0 807.0,5419.0 C 801.0,5398.0 799.0,5397.0 693.0,5404.0 C 589.0,5411.0 582.0,5410.0 525.0,5384.0 C 435.0,5343.0 391.0,5304.0 384.0,5258.0 C 378.0,5226.0 370.0,5216.0 334.0,5196.0 L 291.0,5172.0 L 271.0,5206.0 C 238.0,5262.0 228.0,5252.0 215.0,5155.0 C 211.0,5128.0 202.0,5095.0 194.0,5083.0 C 180.0,5061.0 179.0,5061.0 150.0,5079.0 C 134.0,5088.0 110.0,5112.0 97.0,5131.0 C 85.0,5150.0 64.0,5166.0 52.0,5168.0 C 31.0,5171.0 30.0,5168.0 32.0,5106.0 C 33.0,5057.0 29.0,5036.0 17.0,5022.0 C -3.0,5000.0 -5.0,4941.0 13.0,4918.0 C 19.0,4909.0 43.0,4891.0 66.0,4877.0 C 96.0,4859.0 113.0,4838.0 129.0,4801.0 C 146.0,4761.0 167.0,4737.0 229.0,4688.0 C 272.0,4653.0 321.0,4618.0 336.0,4609.0 C 362.0,4595.0 396.0,4520.0 625.0,3979.0 C 767.0,3641.0 890.0,3340.0 898.0,3310.0 C 915.0,3243.0 922.0,3234.0 961.0,3226.0 C 978.0,3223.0 1004.0,3211.0 1020.0,3200.0 C 1035.0,3189.0 1055.0,3180.0 1064.0,3180.0 C 1074.0,3180.0 1080.0,3171.0 1080.0,3158.0 C 1080.0,3117.0 1115.0,3075.0 1163.0,3056.0 C 1215.0,3036.0 1204.0,3067.0 1271.0,2753.0 L 1303.0,2601.0 L 1345.0,2594.0 C 1395.0,2587.0 1596.0,2594.0 1627.0,2604.0 C 1650.0,2612.0 1653.0,2607.0 1665.0,2538.0 C 1670.0,2505.0 1668.0,2500.0 1647.0,2495.0 C 1622.0,2488.0 1588.0,2441.0 1580.0,2400.0 C 1576.0,2382.0 1567.0,2374.0 1549.0,2372.0 C 1524.0,2369.0 1523.0,2366.0 1517.0,2287.0 C 1507.0,2165.0 1509.0,1995.0 1520.0,1966.0 C 1527.0,1948.0 1537.0,1940.0 1554.0,1940.0 C 1576.0,1940.0 1579.0,1935.0 1584.0,1882.0 C 1597.0,1759.0 1597.0,1755.0 1575.0,1750.0 C 1560.0,1745.0 1555.0,1736.0 1555.0,1711.0 C 1555.0,1657.0 1579.0,1650.0 1646.0,1683.0 C 1678.0,1699.0 1725.0,1714.0 1752.0,1717.0 C 1791.0,1722.0 1804.0,1728.0 1812.0,1746.0 C 1822.0,1768.0 1880.0,1787.0 1900.0,1775.0 C 1923.0,1761.0 1942.0,1703.0 1947.0,1631.0 C 1952.0,1561.0 1955.0,1552.0 1988.0,1518.0 C 2008.0,1497.0 2032.0,1480.0 2042.0,1480.0 C 2053.0,1480.0 2065.0,1467.0 2074.0,1445.0 C 2089.0,1411.0 2089.0,1411.0 2161.0,1408.0 L 2234.0,1405.0 L 2267.0,1362.0 C 2293.0,1327.0 2300.0,1309.0 2300.0,1273.0 C 2300.0,1237.0 2307.0,1218.0 2336.0,1179.0 C 2371.0,1131.0 2373.0,1130.0 2426.0,1130.0 C 2480.0,1130.0 2480.0,1130.0 2480.0,1099.0 C 2480.0,1077.0 2491.0,1055.0 2516.0,1028.0 C 2548.0,992.0 2551.0,984.0 2549.0,937.0 C 2545.0,869.0 2557.0,850.0 2632.0,806.0 C 2667.0,786.0 2730.0,744.0 2772.0,714.0 C 2842.0,665.0 2851.0,655.0 2861.0,614.0 C 2870.0,578.0 2879.0,567.0 2905.0,556.0 C 2927.0,546.0 2950.0,522.0 2976.0,480.0 C 3012.0,421.0 3019.0,416.0 3124.0,363.0 L 3234.0,308.0 L 3423.0,315.0 C 3599.0,322.0 3615.0,324.0 3647.0,346.0 C 3684.0,371.0 3766.0,388.0 3779.0,374.0 C 3784.0,369.0 3795.0,335.0 3805.0,298.0 C 3826.0,218.0 3867.0,174.0 3951.0,141.0 C 4001.0,121.0 4009.0,121.0 4039.0,133.0 C 4070.0,146.0 4075.0,145.0 4126.0,118.0 L 4179.0,89.0 L 4307.0,104.0 C 4428.0,118.0 4436.0,118.0 4460.0,101.0 C 4474.0,91.0 4507.0,68.0 4533.0,49.0 L 4581.0,15.0 L 4600.0,40.0 C 4622.0,69.0 4627.0,158.0 4609.0,193.0 C 4602.0,204.0 4597.0,249.0 4598.0,293.0 L 4598.0,372.0 L 4651.0,406.0 C 4680.0,425.0 4710.0,440.0 4717.0,440.0 C 4724.0,440.0 4741.0,457.0 4755.0,479.0 C 4775.0,508.0 4781.0,530.0 4781.0,571.0 C 4781.0,613.0 4789.0,640.0 4816.0,691.0 C 4841.0,741.0 4848.0,765.0 4844.0,788.0 C 4840.0,806.0 4844.0,829.0 4854.0,848.0 C 4876.0,890.0 4874.0,917.0 4850.0,925.0 C 4837.0,929.0 4830.0,940.0 4830.0,955.0 C 4830.0,971.0 4819.0,985.0 4793.0,1001.0 L 4757.0,1024.0 L 4808.0,1069.0 C 4851.0,1107.0 4860.0,1121.0 4860.0,1148.0 C 4860.0,1180.0 4860.0,1180.0 4913.0,1180.0 C 4941.0,1181.0 4976.0,1187.0 4990.0,1195.0 C 5004.0,1203.0 5027.0,1209.0 5041.0,1210.0 C 5055.0,1210.0 5077.0,1221.0 5090.0,1235.0 C 5103.0,1249.0 5130.0,1263.0 5150.0,1266.0 C 5185.0,1272.0 5187.0,1274.0 5208.0,1343.0 C 5220.0,1383.0 5230.0,1422.0 5230.0,1430.0 C 5231.0,1438.0 5237.0,1454.0 5245.0,1464.0 C 5254.0,1476.0 5260.0,1506.0 5260.0,1536.0 C 5260.0,1580.0 5256.0,1590.0 5235.0,1604.0 C 5215.0,1617.0 5210.0,1629.0 5210.0,1659.0 C 5210.0,1694.0 5207.0,1699.0 5173.0,1713.0 C 5148.0,1723.0 5126.0,1743.0 5110.0,1769.0 C 5094.0,1796.0 5078.0,1810.0 5061.0,1812.0 C 5043.0,1814.0 5028.0,1827.0 5012.0,1857.0 C 4989.0,1899.0 4989.0,1900.0 5009.0,1900.0 C 5020.0,1900.0 5035.0,1910.0 5041.0,1922.0 C 5048.0,1935.0 5070.0,1964.0 5091.0,1987.0 C 5113.0,2011.0 5130.0,2034.0 5130.0,2040.0 C 5130.0,2045.0 5139.0,2050.0 5151.0,2050.0 C 5163.0,2050.0 5187.0,2057.0 5206.0,2066.0 C 5234.0,2079.0 5243.0,2080.0 5255.0,2070.0 C 5264.0,2063.0 5304.0,2055.0 5345.0,2052.0 C 5417.0,2048.0 5420.0,2048.0 5420.0,2069.0 C 5420.0,2112.0 5438.0,2128.0 5509.0,2146.0 L 5577.0,2164.0 L 5583.0,2233.0 C 5586.0,2272.0 5595.0,2310.0 5604.0,2319.0 C 5612.0,2328.0 5623.0,2355.0 5630.0,2380.0 C 5644.0,2433.0 5672.0,2467.0 5710.0,2475.0 C 5745.0,2483.0 5766.0,2506.0 5775.0,2549.0 L 5782.0,2583.0 L 5830.0,2577.0 C 5857.0,2574.0 5897.0,2562.0 5919.0,2551.0 C 5976.0,2522.0 6066.0,2523.0 6159.0,2555.0 C 6254.0,2587.0 6334.0,2626.0 6357.0,2652.0 C 6374.0,2672.0 6381.0,2672.0 6515.0,2665.0 C 6592.0,2661.0 6683.0,2658.0 6716.0,2659.0 C 6750.0,2660.0 6803.0,2654.0 6833.0,2645.0 C 6888.0,2629.0 6889.0,2629.0 6940.0,2655.0 C 6969.0,2670.0 7048.0,2706.0 7117.0,2735.0 L 7242.0,2789.0 L 7290.0,2770.0 C 7350.0,2747.0 7400.0,2757.0 7431.0,2799.0 C 7451.0,2826.0 7455.0,2828.0 7509.0,2823.0 C 7547.0,2819.0 7575.0,2822.0 7591.0,2831.0 C 7604.0,2838.0 7633.0,2846.0 7654.0,2849.0 C 7688.0,2854.0 7695.0,2860.0 7704.0,2888.0 C 7718.0,2928.0 7721.0,2930.0 7830.0,2966.0 C 7877.0,2981.0 7924.0,3001.0 7936.0,3009.0 C 7947.0,3018.0 7985.0,3046.0 8019.0,3073.0 C 8059.0,3102.0 8092.0,3120.0 8110.0,3120.0 C 8125.0,3120.0 8149.0,3129.0 8163.0,3140.0 C 8179.0,3152.0 8203.0,3160.0 8228.0,3160.0 C 8264.0,3160.0 8271.0,3164.0 8291.0,3198.0 C 8326.0,3256.0 8350.0,3278.0 8406.0,3304.0 C 8436.0,3318.0 8465.0,3340.0 8475.0,3357.0 C 8492.0,3386.0 8503.0,3394.0 8616.0,3456.0 C 8667.0,3485.0 8681.0,3488.0 8708.0,3481.0 C 8747.0,3469.0 8751.0,3475.0 8759.0,3547.0 C 8764.0,3597.0 8768.0,3604.0 8800.0,3620.0 C 8819.0,3630.0 8860.0,3644.0 8890.0,3651.0 C 8973.0,3669.0 9033.0,3724.0 9003.0,3753.0 C 9000.0,3757.0 8998.0,3787.0 8999.0,3820.0 C 9001.0,3877.0 9000.0,3880.0 8978.0,3880.0 C 8947.0,3880.0 8936.0,3889.0 8915.0,3930.0 C 8888.0,3984.0 8830.0,4039.0 8793.0,4046.0 C 8763.0,4052.0 8736.0,4070.0 8758.0,4070.0 C 8764.0,4070.0 8778.0,4081.0 8791.0,4095.0 C 8804.0,4108.0 8823.0,4120.0 8832.0,4120.0 C 8856.0,4120.0 8878.0,4194.0 8863.0,4220.0 C 8839.0,4257.0 8838.0,4303.0 8860.0,4345.0 C 8884.0,4392.0 8886.0,4430.0 8865.0,4430.0 C 8841.0,4430.0 8847.0,4449.0 8875.0,4462.0 C 8894.0,4471.0 8899.0,4478.0 8894.0,4494.0 C 8891.0,4506.0 8886.0,4522.0 8884.0,4531.0 C 8881.0,4541.0 8887.0,4549.0 8900.0,4553.0 C 8924.0,4559.0 8926.0,4587.0 8905.0,4636.0 C 8887.0,4681.0 8901.0,4718.0 8939.0,4722.0 C 8964.0,4725.0 8965.0,4728.0 8968.0,4793.0 C 8971.0,4860.0 8971.0,4860.0 9000.0,4860.0 C 9018.0,4860.0 9034.0,4868.0 9044.0,4881.0 C 9053.0,4894.0 9065.0,4900.0 9074.0,4897.0 C 9084.0,4893.0 9095.0,4901.0 9107.0,4921.0 C 9117.0,4938.0 9142.0,4961.0 9163.0,4971.0 C 9188.0,4984.0 9200.0,4997.0 9200.0,5011.0 C 9200.0,5029.0 9203.0,5030.0 9215.0,5020.0 C 9227.0,5010.0 9236.0,5012.0 9263.0,5029.0 C 9291.0,5046.0 9313.0,5050.0 9387.0,5050.0 C 9448.0,5050.0 9481.0,5054.0 9487.0,5063.0 C 9496.0,5074.0 9517.0,5215.0 9523.0,5300.0 C 9525.0,5333.0 9527.0,5335.0 9567.0,5340.0 C 9654.0,5350.0 9679.0,5415.0 9615.0,5467.0 C 9582.0,5493.0 9580.0,5497.0 9590.0,5530.0 C 9599.0,5560.0 9596.0,5569.0 9574.0,5604.0 C 9552.0,5636.0 9550.0,5647.0 9559.0,5662.0 C 9576.0,5690.0 9572.0,5741.0 9550.0,5765.0 C 9533.0,5784.0 9532.0,5789.0 9544.0,5805.0 C 9556.0,5822.0 9562.0,5823.0 9593.0,5813.0 C 9633.0,5801.0 9640.0,5804.0 9640.0,5834.0 C 9640.0,5846.0 9647.0,5866.0 9656.0,5878.0 C 9668.0,5896.0 9675.0,5898.0 9691.0,5890.0 C 9706.0,5881.0 9712.0,5883.0 9717.0,5896.0 C 9722.0,5909.0 9732.0,5911.0 9776.0,5905.0 C 9812.0,5901.0 9830.0,5902.0 9830.0,5909.0 C 9830.0,5915.0 9836.0,5920.0 9844.0,5920.0 C 9852.0,5920.0 9860.0,5930.0 9862.0,5942.0 C 9864.0,5958.0 9874.0,5966.0 9897.0,5971.0 C 9914.0,5974.0 9940.0,5987.0 9955.0,5999.0 C 9970.0,6010.0 9988.0,6020.0 9996.0,6020.0 C 10003.0,6020.0 10015.0,6039.0 10023.0,6063.0 C 10035.0,6099.0 10041.0,6105.0 10064.0,6103.0 C 10089.0,6101.0 10090.0,6103.0 10090.0,6156.0 C 10090.0,6205.0 10092.0,6210.0 10113.0,6210.0 C 10168.0,6210.0 10176.0,6218.0 10188.0,6288.0 C 10194.0,6325.0 10196.0,6381.0 10193.0,6413.0 C 10187.0,6469.0 10187.0,6470.0 10214.0,6470.0 C 10236.0,6470.0 10240.0,6474.0 10240.0,6501.0 C 10240.0,6519.0 10228.0,6549.0 10211.0,6573.0 C 10184.0,6612.0 10181.0,6625.0 10175.0,6732.0 C 10167.0,6859.0 10160.0,6875.0 10106.0,6882.0 C 10071.0,6886.0 10061.0,6906.0 10089.0,6915.0 C 10124.0,6926.0 10117.0,6974.0 10076.0,7007.0 C 10048.0,7028.0 10043.0,7037.0 10051.0,7052.0 C 10058.0,7064.0 10056.0,7079.0 10046.0,7098.0 C 10034.0,7121.0 10018.0,7131.0 9972.0,7144.0 C 9940.0,7153.0 9897.0,7160.0 9876.0,7160.0 C 9844.0,7160.0 9838.0,7164.0 9829.0,7190.0 C 9822.0,7207.0 9811.0,7220.0 9801.0,7220.0 C 9768.0,7220.0 9762.0,7239.0 9767.0,7323.0 C 9771.0,7384.0 9777.0,7410.0 9791.0,7426.0 C 9802.0,7438.0 9810.0,7461.0 9810.0,7482.0 C 9810.0,7511.0 9794.0,7538.0 9719.0,7636.0 L 9629.0,7755.0 L 9562.0,7767.0 C 9495.0,7779.0 9495.0,7779.0 9452.0,7749.0 C 9402.0,7713.0 9376.0,7714.0 9372.0,7752.0 C 9370.0,7771.0 9356.0,7787.0 9324.0,7807.0 C 9300.0,7822.0 9280.0,7840.0 9280.0,7847.0 C 9280.0,7877.0 9256.0,7910.0 9233.0,7910.0 C 9212.0,7910.0 9210.0,7914.0 9210.0,7964.0 C 9210.0,8013.0 9207.0,8021.0 9175.0,8049.0 C 9155.0,8066.0 9133.0,8080.0 9125.0,8080.0 C 9117.0,8080.0 9110.0,8087.0 9110.0,8095.0 C 9110.0,8116.0 9069.0,8130.0 9012.0,8130.0 C 8967.0,8130.0 8964.0,8132.0 8932.0,8179.0 C 8908.0,8214.0 8890.0,8230.0 8868.0,8234.0 C 8841.0,8239.0 8838.0,8243.0 8843.0,8268.0 C 8848.0,8293.0 8841.0,8305.0 8782.0,8363.0 C 8733.0,8411.0 8703.0,8431.0 8673.0,8440.0 C 8632.0,8450.0 8630.0,8453.0 8630.0,8489.0 L 8630.0,8526.0 L 8556.0,8550.0 C 8496.0,8569.0 8479.0,8578.0 8470.0,8599.0 C 8464.0,8614.0 8443.0,8645.0 8422.0,8669.0 C 8388.0,8709.0 8382.0,8712.0 8362.0,8701.0 C 8347.0,8693.0 8340.0,8680.0 8340.0,8661.0 C 8340.0,8633.0 8338.0,8632.0 8288.0,8628.0 C 8239.0,8624.0 8231.0,8627.0 8178.0,8664.0 C 8129.0,8699.0 8121.0,8710.0 8120.0,8737.0 C 8120.0,8762.0 8113.0,8773.0 8090.0,8787.0 C 8055.0,8807.0 8052.0,8830.0 8080.0,8855.0 C 8094.0,8868.0 8097.0,8877.0 8090.0,8884.0 C 8085.0,8889.0 8080.0,8909.0 8080.0,8926.0 C 8080.0,8944.0 8076.0,8961.0 8071.0,8964.0 C 8066.0,8968.0 8055.0,8990.0 8047.0,9014.0 C 8033.0,9055.0 8033.0,9059.0 8053.0,9079.0 L 8074.0,9100.0 L 8053.0,9121.0 C 8035.0,9139.0 8034.0,9147.0 8042.0,9172.0 C 8048.0,9188.0 8051.0,9202.0 8049.0,9204.0 C 8047.0,9205.0 8012.0,9226.0 7972.0,9250.0 L 7899.0,9293.0 L 7857.0,9252.0 C 7833.0,9229.0 7811.0,9210.0 7808.0,9210.0 C 7805.0,9210.0 7786.0,9232.0 7767.0,9258.0 C 7736.0,9302.0 7727.0,9308.0 7684.0,9314.0 C 7643.0,9319.0 7630.0,9316.0 7584.0,9290.0 C 7554.0,9274.0 7521.0,9260.0 7511.0,9260.0 C 7488.0,9260.0 7470.0,9288.0 7470.0,9324.0 C 7470.0,9338.0 7465.0,9361.0 7458.0,9375.0 C 7448.0,9398.0 7450.0,9408.0 7476.0,9455.0 L 7505.0,9509.0 L 7470.0,9545.0 C 7442.0,9574.0 7429.0,9580.0 7395.0,9580.0 C 7361.0,9580.0 7348.0,9586.0 7319.0,9616.0 C 7286.0,9651.0 7283.0,9652.0 7230.0,9646.0 L 7174.0,9639.0 L 7118.0,9694.0 C 7059.0,9752.0 7058.0,9756.0 7045.0,9890.0 C 7036.0,9984.0 7029.0,10001.0 6961.0,10072.0 C 6875.0,10164.0 6760.0,10243.0 6760.0,10211.0" fill="pink"/>
</svg>
