<?xml version="1.0" ?>
<svg xmlns="http://www.w3.org/2000/svg" xmlns:ev="http://www.w3.org/2001/xml-events" xmlns:xlink="http://www.w3.org/1999/xlink" baseProfile="full" height="470px" version="1.1" viewBox="-1026.9759444444444 311.39032448917294 12299.174111111111 9621.775699719185" width="600px">
	<defs/>
	<path d="M 6713.0,9109.0 C 6686.0,9092.0 6680.0,9082.0 6680.0,9052.0 C 6680.0,9019.0 6679.0,9018.0 6666.0,9035.0 C 6653.0,9054.0 6650.0,9053.0 6600.0,9022.0 C 6572.0,9004.0 6537.0,8990.0 6522.0,8990.0 C 6472.0,8990.0 6455.0,8979.0 6426.0,8930.0 C 6409.0,8902.0 6387.0,8879.0 6374.0,8876.0 C 6328.0,8864.0 6269.0,8801.0 6231.0,8725.0 L 6195.0,8649.0 L 6093.0,8614.0 L 5991.0,8579.0 L 5910.0,8620.0 C 5866.0,8642.0 5810.0,8663.0 5786.0,8666.0 C 5747.0,8672.0 5736.0,8668.0 5664.0,8623.0 C 5621.0,8596.0 5559.0,8564.0 5527.0,8551.0 L 5470.0,8528.0 L 5387.0,8554.0 C 5326.0,8573.0 5282.0,8597.0 5215.0,8645.0 C 5166.0,8681.0 5109.0,8721.0 5090.0,8735.0 C 5057.0,8758.0 5042.0,8760.0 4907.0,8766.0 L 4760.0,8773.0 L 4760.0,8800.0 L 4760.0,8828.0 L 4695.0,8822.0 C 4645.0,8819.0 4620.0,8821.0 4591.0,8835.0 L 4553.0,8852.0 L 4489.0,8805.0 C 4444.0,8772.0 4420.0,8760.0 4406.0,8765.0 C 4394.0,8768.0 4347.0,8777.0 4300.0,8785.0 C 4253.0,8792.0 4159.0,8818.0 4090.0,8843.0 C 3969.0,8885.0 3963.0,8886.0 3910.0,8875.0 C 3880.0,8869.0 3831.0,8855.0 3802.0,8845.0 C 3755.0,8828.0 3750.0,8823.0 3750.0,8796.0 C 3750.0,8769.0 3741.0,8759.0 3678.0,8718.0 C 3594.0,8664.0 3590.0,8664.0 3530.0,8744.0 C 3498.0,8787.0 3490.0,8805.0 3490.0,8840.0 C 3490.0,8878.0 3485.0,8888.0 3441.0,8929.0 C 3356.0,9009.0 3337.0,9021.0 3301.0,9010.0 C 3268.0,9001.0 3203.0,8954.0 3158.0,8908.0 C 3141.0,8890.0 3122.0,8880.0 3103.0,8880.0 C 3086.0,8880.0 3047.0,8871.0 3014.0,8860.0 C 2941.0,8834.0 2910.0,8840.0 2862.0,8890.0 C 2837.0,8915.0 2799.0,8938.0 2742.0,8960.0 L 2660.0,8992.0 L 2562.0,8980.0 C 2505.0,8973.0 2404.0,8969.0 2315.0,8972.0 C 2180.0,8976.0 2155.0,8980.0 2069.0,9008.0 C 1948.0,9048.0 1824.0,9053.0 1775.0,9019.0 C 1713.0,8977.0 1568.0,8909.0 1517.0,8899.0 C 1479.0,8891.0 1454.0,8878.0 1425.0,8850.0 C 1403.0,8829.0 1372.0,8808.0 1355.0,8804.0 C 1339.0,8800.0 1300.0,8785.0 1270.0,8770.0 C 1220.0,8746.0 1208.0,8744.0 1138.0,8749.0 C 1056.0,8755.0 998.0,8748.0 992.0,8731.0 C 981.0,8699.0 941.0,8655.0 915.0,8647.0 C 899.0,8642.0 850.0,8611.0 807.0,8578.0 L 728.0,8518.0 L 652.0,8529.0 C 567.0,8542.0 565.0,8541.0 556.0,8475.0 C 550.0,8437.0 543.0,8430.0 471.0,8381.0 L 392.0,8328.0 L 380.0,8251.0 C 355.0,8080.0 347.0,8057.0 315.0,8048.0 C 298.0,8044.0 249.0,8045.0 202.0,8052.0 C 129.0,8063.0 116.0,8062.0 92.0,8048.0 C 68.0,8033.0 64.0,8023.0 59.0,7963.0 C 55.0,7926.0 52.0,7850.0 51.0,7795.0 C 50.0,7722.0 43.0,7670.0 24.0,7600.0 C 0.0,7512.0 -1.0,7496.0 6.0,7385.0 C 10.0,7319.0 12.0,7206.0 11.0,7135.0 C 8.0,7016.0 10.0,7000.0 33.0,6950.0 C 46.0,6920.0 67.0,6886.0 79.0,6876.0 C 114.0,6844.0 150.0,6751.0 175.0,6625.0 C 188.0,6558.0 213.0,6474.0 230.0,6437.0 C 251.0,6389.0 268.0,6325.0 285.0,6227.0 C 315.0,6044.0 311.0,5959.0 268.0,5881.0 C 240.0,5830.0 207.0,5740.0 216.0,5740.0 C 218.0,5740.0 239.0,5752.0 262.0,5766.0 C 302.0,5791.0 304.0,5792.0 317.0,5774.0 C 324.0,5764.0 330.0,5742.0 330.0,5725.0 C 330.0,5707.0 339.0,5667.0 350.0,5635.0 C 376.0,5561.0 376.0,5534.0 350.0,5527.0 C 334.0,5523.0 330.0,5513.0 330.0,5480.0 C 330.0,5442.0 332.0,5439.0 353.0,5446.0 C 365.0,5450.0 391.0,5463.0 410.0,5476.0 C 457.0,5509.0 528.0,5509.0 556.0,5478.0 C 597.0,5431.0 629.0,5372.0 635.0,5329.0 C 642.0,5285.0 642.0,5284.0 703.0,5262.0 C 737.0,5250.0 784.0,5240.0 807.0,5240.0 C 831.0,5240.0 871.0,5232.0 898.0,5222.0 C 964.0,5197.0 1095.0,5106.0 1116.0,5071.0 C 1135.0,5040.0 1207.0,5000.0 1246.0,5000.0 C 1262.0,5000.0 1281.0,4989.0 1298.0,4968.0 C 1313.0,4951.0 1356.0,4922.0 1398.0,4903.0 C 1459.0,4875.0 1483.0,4870.0 1544.0,4870.0 C 1586.0,4870.0 1623.0,4865.0 1633.0,4857.0 C 1643.0,4850.0 1654.0,4822.0 1659.0,4791.0 C 1669.0,4731.0 1692.0,4706.0 1748.0,4695.0 C 1787.0,4688.0 1811.0,4704.0 1830.0,4751.0 C 1837.0,4767.0 1852.0,4783.0 1865.0,4786.0 C 1886.0,4791.0 2109.0,4786.0 2367.0,4774.0 C 2495.0,4769.0 2499.0,4769.0 2537.0,4793.0 C 2598.0,4833.0 2634.0,4836.0 2679.0,4807.0 L 2717.0,4781.0 L 2722.0,4693.0 C 2725.0,4645.0 2733.0,4581.0 2740.0,4552.0 C 2750.0,4506.0 2756.0,4497.0 2792.0,4479.0 C 2824.0,4463.0 2842.0,4460.0 2881.0,4465.0 C 2928.0,4472.0 2929.0,4471.0 2936.0,4444.0 C 2940.0,4428.0 2953.0,4408.0 2964.0,4399.0 C 2981.0,4385.0 2982.0,4380.0 2971.0,4366.0 C 2952.0,4343.0 2965.0,4332.0 3069.0,4281.0 L 3159.0,4237.0 L 3162.0,4151.0 C 3164.0,4104.0 3162.0,4030.0 3156.0,3986.0 L 3147.0,3908.0 L 3106.0,3890.0 C 3080.0,3879.0 3053.0,3856.0 3032.0,3826.0 C 3014.0,3801.0 2993.0,3780.0 2985.0,3780.0 C 2977.0,3780.0 2959.0,3776.0 2945.0,3770.0 C 2919.0,3760.0 2919.0,3760.0 2936.0,3731.0 C 2953.0,3702.0 2953.0,3701.0 2922.0,3675.0 C 2892.0,3650.0 2890.0,3643.0 2890.0,3587.0 C 2890.0,3553.0 2885.0,3487.0 2879.0,3440.0 C 2873.0,3393.0 2867.0,3319.0 2865.0,3275.0 C 2864.0,3231.0 2855.0,3166.0 2846.0,3130.0 C 2821.0,3026.0 2825.0,2970.0 2863.0,2892.0 C 2882.0,2855.0 2913.0,2782.0 2933.0,2730.0 C 2984.0,2600.0 2983.0,2600.0 3014.0,2629.0 C 3027.0,2642.0 3044.0,2664.0 3050.0,2680.0 C 3059.0,2701.0 3070.0,2709.0 3098.0,2714.0 C 3161.0,2724.0 3199.0,2721.0 3238.0,2701.0 C 3258.0,2691.0 3301.0,2675.0 3332.0,2666.0 C 3381.0,2652.0 3389.0,2646.0 3395.0,2620.0 C 3403.0,2584.0 3419.0,2574.0 3483.0,2565.0 C 3536.0,2557.0 3539.0,2551.0 3509.0,2524.0 C 3464.0,2483.0 3466.0,2474.0 3529.0,2436.0 C 3569.0,2411.0 3600.0,2400.0 3626.0,2400.0 C 3648.0,2400.0 3674.0,2393.0 3684.0,2385.0 C 3695.0,2377.0 3712.0,2370.0 3721.0,2370.0 C 3732.0,2370.0 3750.0,2350.0 3767.0,2318.0 C 3791.0,2274.0 3801.0,2265.0 3840.0,2254.0 C 3865.0,2246.0 3910.0,2240.0 3941.0,2240.0 C 4006.0,2240.0 4015.0,2234.0 4066.0,2155.0 C 4087.0,2122.0 4131.0,2068.0 4163.0,2035.0 L 4221.0,1975.0 L 4273.0,1768.0 C 4321.0,1574.0 4323.0,1560.0 4308.0,1543.0 C 4298.0,1533.0 4282.0,1496.0 4271.0,1462.0 L 4252.0,1399.0 L 4276.0,1383.0 C 4294.0,1371.0 4300.0,1359.0 4300.0,1330.0 L 4300.0,1293.0 L 4374.0,1272.0 C 4430.0,1255.0 4462.0,1239.0 4501.0,1205.0 C 4549.0,1164.0 4558.0,1161.0 4589.0,1166.0 C 4609.0,1170.0 4647.0,1184.0 4673.0,1197.0 C 4714.0,1217.0 4726.0,1219.0 4758.0,1210.0 C 4812.0,1195.0 4817.0,1197.0 4829.0,1230.0 C 4841.0,1265.0 4845.0,1266.0 4888.0,1240.0 C 4925.0,1217.0 4954.0,1221.0 5055.0,1260.0 C 5104.0,1279.0 5107.0,1279.0 5165.0,1262.0 C 5211.0,1249.0 5245.0,1246.0 5311.0,1250.0 C 5396.0,1255.0 5397.0,1255.0 5450.0,1303.0 C 5486.0,1335.0 5508.0,1349.0 5519.0,1344.0 C 5528.0,1341.0 5562.0,1328.0 5595.0,1317.0 C 5670.0,1291.0 5677.0,1286.0 5686.0,1247.0 C 5693.0,1216.0 5737.0,1140.0 5749.0,1140.0 C 5752.0,1140.0 5772.0,1145.0 5792.0,1150.0 C 5823.0,1159.0 5834.0,1158.0 5855.0,1144.0 C 5869.0,1135.0 5898.0,1124.0 5920.0,1120.0 C 5959.0,1113.0 5959.0,1113.0 6077.0,1224.0 C 6142.0,1286.0 6213.0,1347.0 6235.0,1359.0 C 6257.0,1372.0 6287.0,1396.0 6301.0,1413.0 C 6326.0,1442.0 6331.0,1443.0 6391.0,1441.0 C 6432.0,1440.0 6465.0,1445.0 6482.0,1454.0 C 6508.0,1468.0 6511.0,1467.0 6525.0,1447.0 C 6533.0,1435.0 6540.0,1413.0 6540.0,1398.0 C 6540.0,1365.0 6545.0,1364.0 6605.0,1390.0 C 6631.0,1401.0 6671.0,1410.0 6695.0,1410.0 C 6736.0,1410.0 6739.0,1412.0 6754.0,1450.0 C 6764.0,1476.0 6770.0,1520.0 6770.0,1572.0 C 6770.0,1648.0 6767.0,1660.0 6730.0,1731.0 L 6690.0,1808.0 L 6718.0,1818.0 C 6736.0,1824.0 6752.0,1841.0 6764.0,1869.0 C 6782.0,1907.0 6786.0,1910.0 6822.0,1910.0 C 6844.0,1910.0 6895.0,1924.0 6935.0,1941.0 L 7009.0,1972.0 L 7066.0,1926.0 C 7128.0,1875.0 7125.0,1876.0 7184.0,1891.0 C 7220.0,1900.0 7240.0,1917.0 7319.0,2006.0 C 7413.0,2112.0 7438.0,2158.0 7455.0,2258.0 C 7461.0,2295.0 7465.0,2300.0 7489.0,2300.0 C 7504.0,2300.0 7539.0,2293.0 7566.0,2285.0 C 7610.0,2272.0 7624.0,2272.0 7698.0,2287.0 C 7768.0,2300.0 7784.0,2307.0 7798.0,2329.0 C 7841.0,2397.0 7883.0,2440.0 7907.0,2440.0 C 7933.0,2440.0 7978.0,2396.0 8052.0,2298.0 L 8088.0,2249.0 L 8049.0,2213.0 L 8009.0,2177.0 L 8031.0,2154.0 L 8053.0,2131.0 L 8027.0,2121.0 C 7996.0,2109.0 7983.0,2071.0 8000.0,2039.0 C 8007.0,2027.0 8017.0,1997.0 8024.0,1973.0 C 8030.0,1948.0 8038.0,1929.0 8043.0,1929.0 C 8047.0,1930.0 8103.0,1930.0 8169.0,1930.0 C 8285.0,1930.0 8288.0,1930.0 8325.0,1960.0 C 8346.0,1976.0 8372.0,1990.0 8383.0,1990.0 C 8394.0,1990.0 8422.0,2001.0 8446.0,2015.0 C 8494.0,2043.0 8494.0,2046.0 8506.0,2213.0 L 8512.0,2312.0 L 8475.0,2366.0 C 8454.0,2396.0 8425.0,2429.0 8410.0,2440.0 C 8392.0,2453.0 8379.0,2475.0 8371.0,2505.0 L 8360.0,2550.0 L 8281.0,2509.0 C 8198.0,2465.0 8151.0,2458.0 8098.0,2479.0 C 8071.0,2489.0 8070.0,2493.0 8070.0,2555.0 C 8070.0,2617.0 8074.0,2629.0 8141.0,2758.0 C 8198.0,2870.0 8211.0,2901.0 8207.0,2930.0 C 8202.0,2970.0 8223.0,3103.0 8240.0,3140.0 C 8247.0,3155.0 8271.0,3174.0 8300.0,3186.0 C 8366.0,3216.0 8420.0,3294.0 8420.0,3361.0 C 8420.0,3422.0 8397.0,3484.0 8360.0,3526.0 C 8318.0,3574.0 8318.0,3635.0 8361.0,3713.0 L 8392.0,3770.0 L 8371.0,3832.0 C 8337.0,3932.0 8348.0,4010.0 8394.0,4010.0 C 8401.0,4010.0 8420.0,4020.0 8435.0,4032.0 C 8460.0,4052.0 8462.0,4057.0 8456.0,4104.0 C 8453.0,4132.0 8447.0,4182.0 8445.0,4215.0 L 8439.0,4275.0 L 8499.0,4320.0 C 8547.0,4356.0 8562.0,4374.0 8575.0,4413.0 C 8600.0,4486.0 8641.0,4503.0 8795.0,4504.0 L 8915.0,4505.0 L 9010.0,4554.0 C 9062.0,4581.0 9107.0,4607.0 9109.0,4613.0 C 9111.0,4619.0 9136.0,4658.0 9165.0,4700.0 C 9199.0,4750.0 9219.0,4791.0 9224.0,4820.0 C 9228.0,4845.0 9235.0,4888.0 9240.0,4915.0 C 9245.0,4943.0 9249.0,4988.0 9249.0,5016.0 C 9250.0,5063.0 9254.0,5071.0 9285.0,5099.0 C 9324.0,5133.0 9366.0,5139.0 9430.0,5120.0 C 9449.0,5114.0 9494.0,5106.0 9529.0,5101.0 C 9592.0,5093.0 9592.0,5093.0 9602.0,5121.0 C 9616.0,5163.0 9641.0,5165.0 9717.0,5129.0 C 9791.0,5095.0 9854.0,5079.0 9885.0,5086.0 C 9896.0,5089.0 9916.0,5107.0 9929.0,5127.0 C 9949.0,5159.0 9952.0,5172.0 9948.0,5230.0 C 9944.0,5285.0 9947.0,5304.0 9964.0,5337.0 C 9994.0,5395.0 10056.0,5460.0 10093.0,5472.0 C 10134.0,5486.0 10193.0,5529.0 10221.0,5564.0 L 10243.0,5592.0 L 10223.0,5618.0 C 10193.0,5658.0 10163.0,5670.0 10087.0,5670.0 C 10033.0,5670.0 10012.0,5674.0 9993.0,5690.0 C 9960.0,5716.0 9905.0,5716.0 9845.0,5690.0 L 9798.0,5670.0 L 9708.0,5695.0 C 9628.0,5717.0 9591.0,5738.0 9590.0,5763.0 C 9590.0,5767.0 9610.0,5807.0 9634.0,5853.0 C 9658.0,5898.0 9684.0,5960.0 9690.0,5990.0 C 9706.0,6059.0 9734.0,6121.0 9758.0,6144.0 C 9777.0,6160.0 9777.0,6162.0 9754.0,6218.0 C 9716.0,6310.0 9724.0,6355.0 9785.0,6412.0 C 9831.0,6454.0 9839.0,6491.0 9840.0,6657.0 L 9840.0,6788.0 L 9813.0,6794.0 C 9797.0,6797.0 9756.0,6805.0 9720.0,6811.0 C 9684.0,6818.0 9635.0,6834.0 9611.0,6848.0 C 9577.0,6868.0 9550.0,6875.0 9498.0,6877.0 C 9432.0,6879.0 9428.0,6881.0 9362.0,6934.0 C 9264.0,7012.0 9140.0,7188.0 9140.0,7251.0 C 9140.0,7259.0 9122.0,7290.0 9101.0,7319.0 C 9072.0,7358.0 9040.0,7384.0 8978.0,7419.0 C 8912.0,7457.0 8885.0,7479.0 8847.0,7530.0 C 8817.0,7570.0 8782.0,7604.0 8752.0,7620.0 C 8646.0,7680.0 8462.0,7815.0 8407.0,7876.0 C 8374.0,7911.0 8312.0,7968.0 8268.0,8002.0 C 8186.0,8065.0 8150.0,8118.0 8150.0,8174.0 C 8150.0,8208.0 8110.0,8222.0 8035.0,8214.0 C 7974.0,8208.0 7971.0,8208.0 7924.0,8244.0 L 7876.0,8281.0 L 7846.0,8252.0 L 7815.0,8223.0 L 7660.0,8232.0 C 7539.0,8238.0 7494.0,8245.0 7455.0,8261.0 C 7422.0,8275.0 7369.0,8286.0 7300.0,8291.0 C 7242.0,8296.0 7184.0,8302.0 7170.0,8306.0 C 7123.0,8319.0 7081.0,8358.0 7069.0,8403.0 C 7048.0,8481.0 6999.0,8575.0 6956.0,8620.0 C 6917.0,8661.0 6911.0,8675.0 6886.0,8778.0 C 6857.0,8894.0 6772.0,9121.0 6755.0,9127.0 C 6749.0,9128.0 6730.0,9120.0 6713.0,9109.0" fill="pink"/>
</svg>
