<?xml version="1.0" ?>
<svg xmlns="http://www.w3.org/2000/svg" xmlns:ev="http://www.w3.org/2001/xml-events" xmlns:xlink="http://www.w3.org/1999/xlink" baseProfile="full" height="600px" version="1.1" viewBox="787.4710400470123 -1027.5865518194007 8667.887159165342 12295.07914762463" width="423px">
	<defs/>
	<path d="M 4035.0,10209.0 C 3964.0,10184.0 3941.0,10180.0 3838.0,10180.0 C 3710.0,10180.0 3675.0,10172.0 3644.0,10134.0 C 3622.0,10108.0 3623.0,10084.0 3651.0,9960.0 C 3661.0,9918.0 3660.0,9914.0 3636.0,9895.0 C 3597.0,9864.0 3577.0,9756.0 3596.0,9681.0 C 3617.0,9601.0 3610.0,9583.0 3544.0,9553.0 C 3502.0,9534.0 3460.0,9525.0 3376.0,9518.0 C 3179.0,9502.0 3171.0,9498.0 3082.0,9415.0 C 3039.0,9375.0 2996.0,9327.0 2987.0,9308.0 C 2968.0,9271.0 2910.0,8960.0 2910.0,8895.0 C 2910.0,8857.0 2906.0,8850.0 2873.0,8828.0 C 2852.0,8814.0 2819.0,8798.0 2800.0,8791.0 C 2780.0,8785.0 2741.0,8756.0 2713.0,8727.0 C 2673.0,8686.0 2660.0,8664.0 2650.0,8623.0 C 2635.0,8559.0 2643.0,8532.0 2700.0,8452.0 C 2722.0,8420.0 2740.0,8389.0 2740.0,8382.0 C 2740.0,8375.0 2716.0,8323.0 2686.0,8267.0 C 2656.0,8211.0 2627.0,8149.0 2621.0,8129.0 C 2613.0,8103.0 2600.0,8089.0 2572.0,8076.0 C 2552.0,8066.0 2497.0,8034.0 2450.0,8004.0 C 2358.0,7946.0 2310.0,7891.0 2310.0,7842.0 C 2310.0,7794.0 2336.0,7724.0 2378.0,7657.0 C 2400.0,7622.0 2425.0,7571.0 2433.0,7544.0 C 2446.0,7500.0 2446.0,7491.0 2430.0,7454.0 C 2411.0,7409.0 2364.0,7370.0 2331.0,7370.0 C 2294.0,7370.0 2202.0,7330.0 2188.0,7307.0 C 2180.0,7295.0 2168.0,7263.0 2161.0,7235.0 C 2154.0,7208.0 2142.0,7177.0 2133.0,7168.0 C 2119.0,7153.0 2115.0,7154.0 2075.0,7182.0 C 2026.0,7217.0 1980.0,7221.0 1931.0,7195.0 C 1895.0,7177.0 1892.0,7169.0 1880.0,7044.0 C 1870.0,6941.0 1862.0,6905.0 1837.0,6855.0 C 1829.0,6839.0 1815.0,6766.0 1805.0,6694.0 L 1788.0,6564.0 L 1741.0,6535.0 C 1716.0,6519.0 1653.0,6463.0 1602.0,6410.0 C 1523.0,6329.0 1510.0,6311.0 1515.0,6290.0 C 1523.0,6259.0 1548.0,6239.0 1608.0,6218.0 C 1759.0,6164.0 1884.0,6003.0 1839.0,5919.0 C 1822.0,5885.0 1811.0,5880.0 1754.0,5880.0 C 1713.0,5880.0 1699.0,5875.0 1680.0,5855.0 C 1657.0,5830.0 1656.0,5824.0 1659.0,5712.0 C 1666.0,5498.0 1667.0,5503.0 1629.0,5464.0 C 1595.0,5429.0 1595.0,5428.0 1596.0,5342.0 C 1597.0,5294.0 1602.0,5242.0 1609.0,5227.0 C 1615.0,5211.0 1620.0,5158.0 1620.0,5108.0 C 1620.0,5058.0 1625.0,4988.0 1631.0,4954.0 C 1641.0,4898.0 1646.0,4889.0 1676.0,4871.0 C 1717.0,4847.0 1777.0,4850.0 1852.0,4881.0 C 1945.0,4919.0 1980.0,4899.0 1980.0,4808.0 C 1980.0,4742.0 1995.0,4693.0 2021.0,4680.0 C 2031.0,4674.0 2059.0,4639.0 2084.0,4602.0 C 2108.0,4565.0 2142.0,4516.0 2158.0,4493.0 C 2175.0,4468.0 2192.0,4426.0 2199.0,4389.0 C 2210.0,4337.0 2219.0,4319.0 2252.0,4286.0 L 2292.0,4246.0 L 2285.0,4140.0 C 2277.0,4012.0 2276.0,3871.0 2283.0,3864.0 C 2285.0,3861.0 2328.0,3856.0 2377.0,3853.0 C 2447.0,3849.0 2478.0,3851.0 2519.0,3865.0 L 2572.0,3882.0 L 2644.0,3846.0 C 2713.0,3811.0 2717.0,3807.0 2743.0,3747.0 C 2773.0,3678.0 2778.0,3605.0 2758.0,3538.0 C 2747.0,3502.0 2729.0,3481.0 2685.0,3455.0 C 2666.0,3443.0 2641.0,3339.0 2640.0,3264.0 C 2640.0,3221.0 2645.0,3208.0 2675.0,3173.0 C 2701.0,3142.0 2722.0,3129.0 2759.0,3120.0 C 2811.0,3108.0 2958.0,3027.0 2965.0,3007.0 C 2988.0,2945.0 3008.0,2647.0 2994.0,2592.0 C 2990.0,2577.0 2957.0,2552.0 2896.0,2516.0 C 2771.0,2442.0 2763.0,2431.0 2744.0,2324.0 C 2732.0,2253.0 2725.0,2232.0 2707.0,2221.0 C 2695.0,2213.0 2658.0,2178.0 2625.0,2144.0 C 2592.0,2110.0 2544.0,2072.0 2517.0,2060.0 C 2460.0,2033.0 2457.0,2029.0 2465.0,1987.0 C 2470.0,1959.0 2482.0,1948.0 2538.0,1914.0 C 2575.0,1893.0 2629.0,1864.0 2658.0,1850.0 C 2709.0,1827.0 2711.0,1824.0 2706.0,1796.0 C 2698.0,1758.0 2697.0,1757.0 2648.0,1751.0 C 2613.0,1746.0 2601.0,1738.0 2579.0,1706.0 C 2565.0,1685.0 2536.0,1658.0 2516.0,1648.0 C 2487.0,1633.0 2473.0,1615.0 2450.0,1566.0 C 2424.0,1506.0 2418.0,1501.0 2347.0,1462.0 C 2276.0,1423.0 2271.0,1417.0 2241.0,1355.0 C 2197.0,1260.0 2204.0,1222.0 2284.0,1118.0 C 2318.0,1074.0 2370.0,1006.0 2400.0,966.0 C 2544.0,776.0 2557.0,763.0 2638.0,734.0 C 2679.0,719.0 2756.0,697.0 2809.0,685.0 C 2897.0,665.0 2909.0,665.0 2954.0,678.0 C 2991.0,689.0 3044.0,691.0 3174.0,688.0 L 3346.0,684.0 L 3392.0,652.0 C 3429.0,627.0 3449.0,620.0 3488.0,620.0 C 3533.0,620.0 3543.0,616.0 3589.0,574.0 L 3640.0,528.0 L 3638.0,356.0 C 3637.0,239.0 3641.0,163.0 3651.0,115.0 C 3664.0,49.0 3667.0,44.0 3702.0,27.0 C 3737.0,10.0 3743.0,10.0 3794.0,24.0 C 3871.0,47.0 3923.0,45.0 3946.0,19.0 C 3962.0,1.0 3973.0,-1.0 4010.0,3.0 C 4035.0,6.0 4076.0,20.0 4100.0,34.0 C 4157.0,66.0 4180.0,67.0 4210.0,35.0 C 4233.0,11.0 4274.0,2.0 4295.0,18.0 C 4301.0,22.0 4327.0,58.0 4354.0,97.0 L 4402.0,170.0 L 4489.0,170.0 C 4568.0,170.0 4580.0,167.0 4621.0,141.0 C 4646.0,125.0 4680.0,91.0 4699.0,61.0 C 4728.0,17.0 4736.0,10.0 4764.0,10.0 C 4782.0,10.0 4805.0,16.0 4815.0,24.0 C 4832.0,36.0 4833.0,41.0 4822.0,64.0 C 4798.0,117.0 4812.0,221.0 4849.0,264.0 C 4862.0,279.0 4874.0,281.0 4922.0,276.0 L 4979.0,270.0 L 4999.0,326.0 C 5011.0,356.0 5020.0,389.0 5020.0,398.0 C 5020.0,408.0 5032.0,430.0 5048.0,448.0 C 5072.0,478.0 5088.0,484.0 5205.0,512.0 C 5277.0,529.0 5337.0,545.0 5340.0,547.0 C 5343.0,550.0 5344.0,586.0 5343.0,629.0 C 5341.0,679.0 5345.0,712.0 5353.0,724.0 C 5373.0,752.0 5431.0,760.0 5680.0,770.0 C 5886.0,778.0 5925.0,783.0 5995.0,805.0 C 6091.0,835.0 6115.0,836.0 6177.0,811.0 C 6203.0,801.0 6242.0,790.0 6263.0,786.0 C 6283.0,782.0 6300.0,774.0 6300.0,769.0 C 6300.0,763.0 6329.0,728.0 6365.0,691.0 C 6414.0,640.0 6430.0,616.0 6430.0,594.0 C 6430.0,578.0 6439.0,545.0 6450.0,521.0 C 6461.0,497.0 6470.0,469.0 6470.0,458.0 C 6470.0,427.0 6519.0,370.0 6546.0,370.0 C 6560.0,370.0 6596.0,361.0 6628.0,349.0 C 6669.0,334.0 6706.0,328.0 6761.0,329.0 L 6838.0,331.0 L 6880.0,278.0 C 6903.0,249.0 6927.0,214.0 6933.0,201.0 C 6943.0,180.0 6949.0,179.0 6990.0,184.0 C 7031.0,189.0 7039.0,187.0 7079.0,155.0 C 7111.0,129.0 7129.0,122.0 7146.0,126.0 C 7164.0,131.0 7178.0,125.0 7202.0,101.0 C 7240.0,64.0 7272.0,53.0 7309.0,66.0 C 7345.0,79.0 7347.0,111.0 7314.0,149.0 C 7289.0,179.0 7288.0,185.0 7294.0,253.0 C 7315.0,501.0 7314.0,538.0 7281.0,665.0 C 7265.0,731.0 7239.0,818.0 7225.0,859.0 C 7199.0,938.0 7192.0,1047.0 7209.0,1121.0 C 7214.0,1141.0 7246.0,1195.0 7281.0,1241.0 C 7359.0,1343.0 7380.0,1384.0 7380.0,1429.0 C 7380.0,1459.0 7370.0,1473.0 7300.0,1540.0 C 7225.0,1612.0 7220.0,1619.0 7220.0,1658.0 C 7220.0,1704.0 7246.0,1737.0 7290.0,1746.0 C 7353.0,1759.0 7360.0,1767.0 7360.0,1819.0 C 7360.0,1849.0 7355.0,1872.0 7345.0,1880.0 C 7329.0,1893.0 7332.0,1930.0 7356.0,1996.0 C 7369.0,2033.0 7375.0,2038.0 7428.0,2053.0 C 7459.0,2062.0 7501.0,2072.0 7520.0,2075.0 C 7572.0,2085.0 7597.0,2105.0 7637.0,2168.0 C 7657.0,2199.0 7688.0,2245.0 7707.0,2269.0 C 7725.0,2293.0 7745.0,2331.0 7751.0,2354.0 C 7773.0,2433.0 7812.0,2524.0 7839.0,2560.0 C 7891.0,2625.0 7923.0,2701.0 7928.0,2771.0 C 7932.0,2835.0 7932.0,2837.0 7900.0,2864.0 C 7882.0,2879.0 7854.0,2894.0 7839.0,2897.0 C 7780.0,2909.0 7794.0,2995.0 7863.0,3045.0 C 7886.0,3062.0 7959.0,3127.0 8025.0,3190.0 C 8137.0,3297.0 8205.0,3352.0 8276.0,3395.0 C 8292.0,3404.0 8341.0,3460.0 8384.0,3518.0 C 8472.0,3636.0 8486.0,3680.0 8456.0,3744.0 C 8447.0,3763.0 8440.0,3794.0 8440.0,3814.0 C 8440.0,3855.0 8450.0,3858.0 8507.0,3835.0 C 8556.0,3814.0 8560.0,3816.0 8560.0,3850.0 C 8560.0,3872.0 8548.0,3894.0 8517.0,3928.0 C 8435.0,4017.0 8429.0,4031.0 8436.0,4105.0 C 8442.0,4165.0 8445.0,4172.0 8476.0,4190.0 C 8494.0,4202.0 8532.0,4236.0 8560.0,4267.0 C 8607.0,4318.0 8611.0,4327.0 8606.0,4359.0 C 8603.0,4379.0 8592.0,4401.0 8581.0,4410.0 C 8551.0,4433.0 8541.0,4488.0 8558.0,4530.0 C 8568.0,4555.0 8570.0,4583.0 8566.0,4632.0 C 8557.0,4714.0 8566.0,4732.0 8624.0,4754.0 C 8706.0,4785.0 8747.0,4880.0 8721.0,4977.0 C 8707.0,5027.0 8701.0,5032.0 8662.0,5024.0 C 8639.0,5019.0 8630.0,5011.0 8625.0,4990.0 C 8622.0,4975.0 8606.0,4950.0 8590.0,4935.0 C 8553.0,4900.0 8517.0,4907.0 8489.0,4954.0 C 8459.0,5006.0 8400.0,5040.0 8341.0,5040.0 C 8297.0,5040.0 8292.0,5043.0 8286.0,5065.0 C 8279.0,5092.0 8261.0,5104.0 8214.0,5114.0 C 8185.0,5120.0 8179.0,5117.0 8154.0,5081.0 C 8136.0,5057.0 8106.0,5032.0 8078.0,5019.0 C 8037.0,5000.0 8021.0,4998.0 7954.0,5004.0 C 7889.0,5009.0 7864.0,5017.0 7796.0,5054.0 C 7751.0,5077.0 7691.0,5103.0 7662.0,5110.0 C 7617.0,5120.0 7602.0,5131.0 7557.0,5182.0 C 7528.0,5214.0 7484.0,5254.0 7458.0,5271.0 C 7412.0,5301.0 7399.0,5321.0 7365.0,5412.0 C 7354.0,5443.0 7333.0,5472.0 7306.0,5493.0 C 7246.0,5542.0 7227.0,5550.0 7170.0,5550.0 C 7127.0,5550.0 7110.0,5544.0 7064.0,5513.0 C 7034.0,5492.0 7007.0,5467.0 7004.0,5457.0 C 6992.0,5421.0 6958.0,5409.0 6902.0,5421.0 C 6873.0,5427.0 6848.0,5435.0 6845.0,5440.0 C 6842.0,5445.0 6835.0,5499.0 6829.0,5560.0 C 6822.0,5629.0 6806.0,5709.0 6786.0,5772.0 C 6752.0,5882.0 6753.0,5880.0 6668.0,5895.0 C 6647.0,5898.0 6624.0,5907.0 6616.0,5916.0 C 6593.0,5939.0 6464.0,5990.0 6391.0,6005.0 C 6329.0,6018.0 6321.0,6023.0 6265.0,6083.0 C 6070.0,6291.0 6021.0,6372.0 6013.0,6501.0 C 6007.0,6584.0 6007.0,6586.0 5959.0,6641.0 C 5913.0,6694.0 5911.0,6699.0 5921.0,6729.0 C 5927.0,6746.0 5941.0,6765.0 5952.0,6771.0 C 5976.0,6784.0 5970.0,6808.0 5929.0,6867.0 C 5913.0,6890.0 5897.0,6922.0 5894.0,6939.0 C 5890.0,6957.0 5883.0,6973.0 5877.0,6977.0 C 5872.0,6980.0 5831.0,6982.0 5786.0,6981.0 C 5691.0,6979.0 5654.0,6991.0 5593.0,7048.0 C 5559.0,7079.0 5550.0,7095.0 5550.0,7120.0 C 5550.0,7145.0 5540.0,7163.0 5506.0,7197.0 C 5467.0,7236.0 5459.0,7252.0 5444.0,7316.0 C 5431.0,7375.0 5430.0,7393.0 5440.0,7405.0 C 5462.0,7431.0 5414.0,7510.0 5360.0,7537.0 C 5335.0,7549.0 5305.0,7560.0 5292.0,7560.0 C 5271.0,7560.0 5242.0,7587.0 5188.0,7656.0 C 5164.0,7686.0 5170.0,7730.0 5198.0,7730.0 C 5224.0,7730.0 5292.0,7796.0 5288.0,7816.0 C 5286.0,7825.0 5276.0,7838.0 5265.0,7844.0 C 5254.0,7850.0 5242.0,7860.0 5238.0,7865.0 C 5225.0,7882.0 5229.0,7931.0 5247.0,7960.0 L 5263.0,7989.0 L 5205.0,8067.0 C 5139.0,8154.0 5121.0,8195.0 5120.0,8260.0 C 5120.0,8285.0 5113.0,8331.0 5106.0,8364.0 C 5094.0,8414.0 5094.0,8428.0 5107.0,8466.0 C 5136.0,8552.0 5109.0,8598.0 5046.0,8567.0 C 5014.0,8552.0 5009.0,8552.0 4995.0,8566.0 C 4977.0,8585.0 4977.0,8580.0 4996.0,8660.0 C 5004.0,8696.0 5027.0,8753.0 5046.0,8788.0 C 5073.0,8839.0 5078.0,8855.0 5070.0,8871.0 C 5062.0,8886.0 5064.0,8901.0 5080.0,8936.0 C 5091.0,8963.0 5100.0,9004.0 5100.0,9033.0 C 5100.0,9074.0 5105.0,9089.0 5126.0,9111.0 C 5163.0,9149.0 5180.0,9233.0 5180.0,9376.0 C 5180.0,9518.0 5178.0,9522.0 5072.0,9597.0 C 5035.0,9623.0 5003.0,9645.0 5001.0,9646.0 C 4999.0,9648.0 5012.0,9672.0 5029.0,9699.0 C 5061.0,9749.0 5062.0,9750.0 5055.0,9842.0 C 5046.0,9969.0 5029.0,10013.0 4973.0,10052.0 C 4929.0,10081.0 4921.0,10083.0 4810.0,10088.0 L 4693.0,10093.0 L 4672.0,10065.0 C 4660.0,10050.0 4648.0,10023.0 4644.0,10004.0 C 4633.0,9944.0 4603.0,9930.0 4484.0,9930.0 C 4384.0,9930.0 4379.0,9931.0 4321.0,9965.0 C 4288.0,9985.0 4258.0,10004.0 4255.0,10009.0 C 4252.0,10014.0 4246.0,10059.0 4241.0,10110.0 C 4234.0,10172.0 4225.0,10208.0 4214.0,10221.0 C 4190.0,10248.0 4132.0,10244.0 4035.0,10209.0" fill="pink"/>
</svg>
