<?xml version="1.0" ?>
<svg xmlns="http://www.w3.org/2000/svg" xmlns:ev="http://www.w3.org/2001/xml-events" xmlns:xlink="http://www.w3.org/1999/xlink" baseProfile="full" height="356px" version="1.1" viewBox="-1027.3976122230733 1481.4528224626165 12299.634286487879 7279.863344765433" width="600px">
	<defs/>
	<path d="M 5971.0,8132.0 C 5963.0,8117.0 5967.0,8106.0 5990.0,8079.0 C 6026.0,8037.0 6031.0,7972.0 6001.0,7934.0 L 5982.0,7910.0 L 5951.0,7960.0 C 5934.0,7987.0 5917.0,8028.0 5914.0,8050.0 C 5900.0,8136.0 5848.0,8160.0 5753.0,8124.0 C 5713.0,8108.0 5710.0,8104.0 5685.0,8029.0 L 5658.0,7950.0 L 5591.0,7950.0 C 5534.0,7950.0 5514.0,7945.0 5465.0,7918.0 C 5417.0,7892.0 5402.0,7888.0 5381.0,7897.0 C 5366.0,7902.0 5338.0,7905.0 5317.0,7902.0 C 5285.0,7898.0 5273.0,7889.0 5239.0,7844.0 C 5202.0,7795.0 5196.0,7792.0 5173.0,7801.0 C 5152.0,7809.0 5143.0,7807.0 5123.0,7789.0 L 5100.0,7766.0 L 5071.0,7794.0 L 5042.0,7821.0 L 4964.0,7783.0 C 4887.0,7746.0 4885.0,7744.0 4877.0,7700.0 C 4865.0,7640.0 4846.0,7618.0 4813.0,7631.0 C 4800.0,7636.0 4776.0,7640.0 4760.0,7640.0 C 4733.0,7640.0 4732.0,7638.0 4727.0,7578.0 C 4709.0,7358.0 4719.0,7173.0 4757.0,7019.0 C 4773.0,6957.0 4773.0,6951.0 4757.0,6927.0 C 4736.0,6895.0 4734.0,6808.0 4754.0,6754.0 C 4761.0,6732.0 4770.0,6672.0 4774.0,6620.0 C 4778.0,6568.0 4788.0,6506.0 4796.0,6482.0 C 4805.0,6455.0 4810.0,6397.0 4810.0,6322.0 C 4810.0,6234.0 4814.0,6199.0 4825.0,6184.0 C 4833.0,6174.0 4840.0,6143.0 4840.0,6115.0 C 4840.0,6042.0 4789.0,5962.0 4654.0,5825.0 C 4535.0,5704.0 4437.0,5628.0 4335.0,5578.0 C 4281.0,5551.0 4269.0,5541.0 4264.0,5515.0 C 4253.0,5463.0 4197.0,5427.0 4060.0,5382.0 C 3926.0,5339.0 3760.0,5312.0 3696.0,5324.0 C 3663.0,5330.0 3653.0,5340.0 3612.0,5405.0 C 3561.0,5485.0 3524.0,5510.0 3432.0,5524.0 C 3375.0,5532.0 3323.0,5560.0 3282.0,5602.0 C 3255.0,5631.0 3245.0,5654.0 3224.0,5746.0 C 3210.0,5806.0 3189.0,5882.0 3178.0,5915.0 C 3168.0,5948.0 3154.0,6007.0 3149.0,6045.0 C 3143.0,6085.0 3126.0,6143.0 3108.0,6180.0 C 3087.0,6224.0 3078.0,6258.0 3079.0,6286.0 C 3081.0,6327.0 3080.0,6328.0 3033.0,6344.0 C 3007.0,6353.0 2953.0,6381.0 2913.0,6408.0 C 2848.0,6449.0 2830.0,6469.0 2755.0,6575.0 C 2699.0,6656.0 2654.0,6708.0 2619.0,6735.0 C 2534.0,6799.0 2434.0,6897.0 2402.0,6948.0 C 2386.0,6974.0 2365.0,7019.0 2355.0,7048.0 C 2339.0,7098.0 2339.0,7108.0 2354.0,7190.0 C 2363.0,7238.0 2370.0,7290.0 2370.0,7305.0 L 2370.0,7332.0 L 2313.0,7325.0 C 2243.0,7316.0 2141.0,7277.0 2034.0,7216.0 C 1990.0,7191.0 1904.0,7148.0 1843.0,7121.0 C 1782.0,7093.0 1690.0,7048.0 1638.0,7020.0 L 1543.0,6970.0 L 1436.0,6970.0 C 1333.0,6970.0 1325.0,6968.0 1230.0,6929.0 L 1132.0,6888.0 L 1116.0,6823.0 C 1085.0,6700.0 1011.0,6567.0 953.0,6528.0 C 938.0,6519.0 902.0,6466.0 870.0,6408.0 C 839.0,6351.0 793.0,6277.0 768.0,6242.0 L 722.0,6179.0 L 715.0,5955.0 C 711.0,5832.0 710.0,5724.0 713.0,5716.0 C 716.0,5708.0 706.0,5653.0 690.0,5593.0 L 662.0,5485.0 L 577.0,5405.0 C 531.0,5361.0 486.0,5313.0 477.0,5298.0 C 467.0,5283.0 406.0,5227.0 341.0,5175.0 C 275.0,5122.0 215.0,5068.0 206.0,5055.0 C 193.0,5036.0 190.0,5003.0 190.0,4898.0 C 190.0,4725.0 156.0,4541.0 108.0,4448.0 L 75.0,4385.0 L 74.0,4225.0 C 72.0,4080.0 70.0,4058.0 45.0,3985.0 C 20.0,3910.0 18.0,3898.0 25.0,3795.0 C 30.0,3708.0 28.0,3676.0 16.0,3641.0 C -7.0,3577.0 -4.0,3542.0 40.0,3397.0 C 61.0,3324.0 82.0,3235.0 86.0,3199.0 C 90.0,3162.0 96.0,3127.0 100.0,3121.0 C 105.0,3113.0 125.0,3115.0 171.0,3130.0 C 206.0,3141.0 249.0,3150.0 266.0,3150.0 C 304.0,3150.0 347.0,3192.0 361.0,3246.0 C 371.0,3281.0 370.0,3286.0 346.0,3305.0 L 320.0,3326.0 L 372.0,3349.0 C 410.0,3365.0 437.0,3386.0 465.0,3423.0 C 496.0,3462.0 523.0,3483.0 583.0,3512.0 C 625.0,3533.0 660.0,3554.0 660.0,3559.0 C 660.0,3563.0 678.0,3588.0 701.0,3614.0 C 734.0,3651.0 748.0,3660.0 774.0,3660.0 C 797.0,3660.0 815.0,3669.0 839.0,3694.0 C 881.0,3737.0 902.0,3742.0 986.0,3731.0 L 1052.0,3721.0 L 1104.0,3759.0 C 1188.0,3822.0 1210.0,3830.0 1303.0,3830.0 L 1388.0,3830.0 L 1419.0,3868.0 C 1485.0,3949.0 1482.0,3947.0 1588.0,3952.0 C 1682.0,3956.0 1687.0,3955.0 1733.0,3927.0 C 1782.0,3897.0 1840.0,3888.0 1980.0,3890.0 C 2005.0,3890.0 2071.0,3887.0 2128.0,3884.0 L 2231.0,3878.0 L 2287.0,3830.0 C 2351.0,3776.0 2420.0,3749.0 2445.0,3770.0 C 2460.0,3783.0 2641.0,3780.0 2671.0,3766.0 C 2683.0,3761.0 2697.0,3775.0 2730.0,3832.0 C 2754.0,3872.0 2773.0,3906.0 2774.0,3907.0 C 2775.0,3907.0 2791.0,3911.0 2811.0,3915.0 L 2846.0,3922.0 L 2864.0,3839.0 C 2885.0,3741.0 2919.0,3685.0 2966.0,3670.0 C 2997.0,3659.0 3005.0,3662.0 3060.0,3695.0 C 3093.0,3715.0 3127.0,3744.0 3134.0,3759.0 C 3148.0,3785.0 3155.0,3787.0 3256.0,3799.0 L 3363.0,3811.0 L 3419.0,3777.0 C 3549.0,3698.0 3612.0,3691.0 3715.0,3744.0 C 3774.0,3774.0 3795.0,3780.0 3850.0,3780.0 C 3931.0,3780.0 3944.0,3772.0 3935.0,3732.0 C 3928.0,3699.0 3944.0,3680.0 3963.0,3699.0 C 3979.0,3715.0 4060.0,3712.0 4090.0,3695.0 C 4104.0,3687.0 4140.0,3680.0 4170.0,3680.0 C 4214.0,3680.0 4234.0,3674.0 4269.0,3650.0 C 4293.0,3633.0 4318.0,3620.0 4324.0,3620.0 C 4331.0,3620.0 4344.0,3607.0 4353.0,3590.0 C 4363.0,3574.0 4387.0,3548.0 4407.0,3533.0 L 4442.0,3506.0 L 4489.0,3524.0 C 4514.0,3534.0 4562.0,3550.0 4595.0,3561.0 C 4627.0,3572.0 4662.0,3588.0 4672.0,3597.0 C 4688.0,3611.0 4692.0,3610.0 4720.0,3586.0 C 4741.0,3569.0 4763.0,3560.0 4788.0,3560.0 C 4810.0,3560.0 4832.0,3552.0 4845.0,3540.0 L 4867.0,3520.0 L 4906.0,3540.0 C 4927.0,3551.0 4964.0,3565.0 4987.0,3570.0 C 5041.0,3583.0 5090.0,3624.0 5090.0,3656.0 C 5090.0,3672.0 5098.0,3684.0 5114.0,3691.0 C 5133.0,3700.0 5139.0,3712.0 5145.0,3756.0 C 5152.0,3811.0 5152.0,3812.0 5215.0,3825.0 C 5234.0,3828.0 5251.0,3841.0 5261.0,3859.0 C 5275.0,3882.0 5286.0,3888.0 5330.0,3894.0 C 5359.0,3898.0 5392.0,3908.0 5404.0,3916.0 C 5415.0,3924.0 5434.0,3930.0 5446.0,3930.0 C 5469.0,3930.0 5480.0,3947.0 5480.0,3981.0 C 5480.0,4001.0 5481.0,4001.0 5510.0,3984.0 C 5530.0,3972.0 5546.0,3948.0 5561.0,3911.0 C 5573.0,3880.0 5591.0,3842.0 5601.0,3825.0 C 5611.0,3809.0 5622.0,3766.0 5625.0,3730.0 C 5632.0,3670.0 5636.0,3661.0 5681.0,3615.0 C 5730.0,3565.0 5760.0,3502.0 5775.0,3418.0 C 5781.0,3386.0 5788.0,3379.0 5838.0,3357.0 C 5925.0,3319.0 5937.0,3317.0 5949.0,3337.0 C 5975.0,3382.0 5976.0,3383.0 6001.0,3370.0 C 6014.0,3363.0 6046.0,3337.0 6072.0,3313.0 C 6119.0,3270.0 6121.0,3269.0 6171.0,3276.0 C 6207.0,3281.0 6244.0,3277.0 6296.0,3264.0 L 6370.0,3246.0 L 6400.0,3275.0 L 6429.0,3303.0 L 6470.0,3267.0 C 6514.0,3226.0 6539.0,3222.0 6593.0,3245.0 C 6613.0,3253.0 6631.0,3260.0 6634.0,3260.0 C 6636.0,3260.0 6641.0,3232.0 6645.0,3198.0 C 6655.0,3117.0 6672.0,3092.0 6740.0,3063.0 C 6777.0,3046.0 6823.0,3011.0 6880.0,2956.0 C 6945.0,2893.0 6987.0,2862.0 7057.0,2826.0 C 7110.0,2800.0 7155.0,2770.0 7161.0,2757.0 C 7205.0,2671.0 7246.0,2628.0 7331.0,2579.0 C 7417.0,2529.0 7419.0,2528.0 7430.0,2477.0 C 7437.0,2448.0 7458.0,2398.0 7476.0,2364.0 C 7502.0,2317.0 7519.0,2299.0 7549.0,2285.0 C 7596.0,2264.0 7635.0,2226.0 7650.0,2186.0 C 7660.0,2160.0 7663.0,2158.0 7699.0,2164.0 C 7740.0,2170.0 7781.0,2157.0 7834.0,2121.0 C 7851.0,2110.0 7881.0,2098.0 7903.0,2094.0 C 7937.0,2089.0 7954.0,2094.0 8027.0,2131.0 L 8111.0,2175.0 L 8143.0,2157.0 C 8161.0,2146.0 8186.0,2131.0 8201.0,2123.0 C 8225.0,2109.0 8228.0,2110.0 8261.0,2142.0 C 8280.0,2160.0 8311.0,2186.0 8329.0,2200.0 C 8356.0,2220.0 8364.0,2236.0 8372.0,2279.0 C 8380.0,2327.0 8390.0,2343.0 8453.0,2411.0 C 8518.0,2482.0 8528.0,2490.0 8563.0,2490.0 C 8607.0,2490.0 8645.0,2508.0 8679.0,2544.0 C 8722.0,2590.0 8752.0,2580.0 8860.0,2485.0 L 8955.0,2402.0 L 9017.0,2446.0 L 9079.0,2491.0 L 9132.0,2463.0 C 9178.0,2439.0 9199.0,2435.0 9296.0,2432.0 L 9407.0,2428.0 L 9424.0,2469.0 C 9433.0,2494.0 9440.0,2539.0 9440.0,2583.0 C 9440.0,2662.0 9476.0,2818.0 9505.0,2867.0 C 9529.0,2908.0 9553.0,2921.0 9616.0,2927.0 C 9668.0,2933.0 9670.0,2934.0 9670.0,2963.0 C 9670.0,2984.0 9680.0,3004.0 9700.0,3025.0 C 9730.0,3056.0 9730.0,3056.0 9710.0,3075.0 C 9685.0,3098.0 9684.0,3110.0 9708.0,3110.0 C 9718.0,3110.0 9737.0,3121.0 9750.0,3135.0 C 9763.0,3149.0 9781.0,3160.0 9790.0,3160.0 C 9800.0,3160.0 9829.0,3191.0 9858.0,3233.0 C 9917.0,3318.0 9922.0,3323.0 9973.0,3341.0 C 9993.0,3348.0 10010.0,3360.0 10010.0,3366.0 C 10010.0,3373.0 10024.0,3381.0 10040.0,3385.0 C 10057.0,3389.0 10070.0,3398.0 10070.0,3406.0 C 10070.0,3413.0 10085.0,3427.0 10103.0,3436.0 C 10158.0,3464.0 10179.0,3490.0 10191.0,3547.0 C 10202.0,3594.0 10201.0,3603.0 10187.0,3617.0 C 10173.0,3632.0 10174.0,3638.0 10207.0,3699.0 L 10243.0,3765.0 L 10186.0,3877.0 C 10127.0,3996.0 10115.0,4057.0 10141.0,4114.0 C 10152.0,4136.0 10148.0,4144.0 10107.0,4192.0 C 10083.0,4221.0 10059.0,4259.0 10056.0,4277.0 C 10052.0,4294.0 10038.0,4320.0 10024.0,4335.0 C 9994.0,4368.0 9994.0,4378.0 10025.0,4420.0 C 10039.0,4439.0 10050.0,4462.0 10050.0,4471.0 C 10050.0,4499.0 9997.0,4530.0 9951.0,4530.0 C 9915.0,4530.0 9907.0,4534.0 9885.0,4568.0 C 9871.0,4590.0 9855.0,4631.0 9851.0,4661.0 C 9846.0,4691.0 9837.0,4728.0 9831.0,4744.0 C 9813.0,4789.0 9762.0,4854.0 9730.0,4874.0 C 9691.0,4897.0 9692.0,4920.0 9736.0,5013.0 C 9758.0,5059.0 9770.0,5099.0 9768.0,5117.0 C 9765.0,5142.0 9761.0,5145.0 9733.0,5142.0 C 9706.0,5140.0 9693.0,5148.0 9655.0,5186.0 C 9629.0,5211.0 9595.0,5253.0 9579.0,5280.0 C 9563.0,5306.0 9543.0,5331.0 9535.0,5334.0 C 9509.0,5344.0 9468.0,5439.0 9474.0,5475.0 C 9481.0,5512.0 9473.0,5540.0 9455.0,5540.0 C 9432.0,5540.0 9408.0,5577.0 9418.0,5597.0 C 9424.0,5607.0 9434.0,5634.0 9441.0,5657.0 C 9452.0,5696.0 9451.0,5703.0 9428.0,5748.0 C 9405.0,5792.0 9404.0,5798.0 9419.0,5807.0 C 9432.0,5815.0 9433.0,5820.0 9422.0,5833.0 C 9410.0,5847.0 9416.0,5853.0 9467.0,5879.0 L 9526.0,5908.0 L 9539.0,5992.0 C 9546.0,6038.0 9561.0,6112.0 9572.0,6156.0 L 9593.0,6238.0 L 9573.0,6286.0 C 9554.0,6330.0 9547.0,6336.0 9508.0,6346.0 C 9471.0,6355.0 9462.0,6362.0 9442.0,6401.0 C 9423.0,6438.0 9410.0,6449.0 9357.0,6473.0 C 9323.0,6488.0 9277.0,6518.0 9255.0,6540.0 C 9218.0,6575.0 9194.0,6586.0 9083.0,6616.0 C 9062.0,6621.0 9068.0,6680.0 9095.0,6745.0 C 9128.0,6826.0 9128.0,6863.0 9093.0,6885.0 C 9068.0,6902.0 9064.0,6902.0 9013.0,6886.0 C 8984.0,6877.0 8939.0,6869.0 8913.0,6870.0 C 8886.0,6871.0 8850.0,6868.0 8832.0,6864.0 C 8806.0,6859.0 8791.0,6863.0 8759.0,6884.0 C 8730.0,6904.0 8698.0,6913.0 8642.0,6920.0 C 8552.0,6930.0 8535.0,6935.0 8495.0,6965.0 C 8478.0,6977.0 8450.0,6991.0 8433.0,6994.0 C 8415.0,6998.0 8392.0,7012.0 8382.0,7025.0 C 8365.0,7046.0 8362.0,7047.0 8332.0,7034.0 C 8290.0,7017.0 8244.0,7032.0 8236.0,7066.0 C 8226.0,7106.0 8208.0,7097.0 8165.0,7028.0 C 8131.0,6974.0 8106.0,6960.0 8046.0,6960.0 C 8010.0,6960.0 7992.0,6952.0 7940.0,6913.0 C 7893.0,6878.0 7874.0,6856.0 7868.0,6833.0 C 7861.0,6807.0 7854.0,6800.0 7834.0,6800.0 C 7818.0,6800.0 7807.0,6807.0 7801.0,6822.0 C 7793.0,6843.0 7793.0,6843.0 7774.0,6823.0 C 7764.0,6812.0 7750.0,6795.0 7745.0,6785.0 C 7727.0,6754.0 7681.0,6785.0 7660.0,6843.0 C 7650.0,6870.0 7637.0,6897.0 7631.0,6904.0 C 7625.0,6911.0 7590.0,6920.0 7553.0,6923.0 C 7507.0,6928.0 7476.0,6937.0 7451.0,6954.0 C 7431.0,6967.0 7402.0,6984.0 7385.0,6991.0 C 7368.0,6999.0 7348.0,7021.0 7338.0,7040.0 C 7329.0,7059.0 7307.0,7105.0 7290.0,7141.0 C 7273.0,7178.0 7235.0,7238.0 7206.0,7276.0 L 7153.0,7345.0 L 7071.0,7364.0 L 6989.0,7383.0 L 6996.0,7449.0 C 6999.0,7485.0 7009.0,7522.0 7016.0,7531.0 C 7031.0,7547.0 7033.0,7588.0 7022.0,7628.0 L 7015.0,7651.0 L 6981.0,7625.0 C 6895.0,7562.0 6709.0,7622.0 6690.0,7719.0 C 6683.0,7756.0 6620.0,7771.0 6578.0,7747.0 C 6549.0,7730.0 6549.0,7731.0 6483.0,7775.0 C 6444.0,7800.0 6412.0,7831.0 6405.0,7847.0 C 6395.0,7871.0 6381.0,7879.0 6316.0,7898.0 C 6242.0,7919.0 6238.0,7922.0 6221.0,7963.0 C 6209.0,7991.0 6184.0,8020.0 6149.0,8047.0 C 6119.0,8070.0 6082.0,8102.0 6066.0,8119.0 C 6032.0,8155.0 5986.0,8161.0 5971.0,8132.0" fill="pink"/>
</svg>
