<?xml version="1.0" ?>
<svg xmlns="http://www.w3.org/2000/svg" xmlns:ev="http://www.w3.org/2001/xml-events" xmlns:xlink="http://www.w3.org/1999/xlink" baseProfile="full" height="471px" version="1.1" viewBox="-1029.12 299.1653880238797 12298.24 9648.56453016518" width="600px">
	<defs/>
	<path d="M 6590.0,9128.0 C 6571.0,9123.0 6539.0,9103.0 6520.0,9085.0 C 6479.0,9046.0 6443.0,9030.0 6392.0,9030.0 C 6372.0,9029.0 6344.0,9023.0 6330.0,9015.0 C 6316.0,9007.0 6278.0,9001.0 6244.0,9000.0 L 6182.0,9000.0 L 6170.0,8933.0 C 6154.0,8834.0 6125.0,8741.0 6065.0,8595.0 C 6036.0,8524.0 6009.0,8443.0 6005.0,8415.0 C 6001.0,8388.0 5978.0,8326.0 5954.0,8279.0 C 5929.0,8229.0 5902.0,8153.0 5889.0,8099.0 C 5865.0,7996.0 5856.0,7975.0 5767.0,7821.0 C 5734.0,7764.0 5657.0,7623.0 5595.0,7509.0 C 5463.0,7265.0 5394.0,7177.0 5295.0,7128.0 C 5262.0,7111.0 5224.0,7090.0 5210.0,7080.0 C 5196.0,7070.0 5156.0,7050.0 5120.0,7035.0 C 5084.0,7020.0 5039.0,6993.0 5020.0,6975.0 C 5001.0,6957.0 4970.0,6938.0 4951.0,6931.0 C 4932.0,6925.0 4902.0,6909.0 4884.0,6895.0 C 4863.0,6879.0 4838.0,6870.0 4816.0,6870.0 C 4789.0,6870.0 4764.0,6858.0 4712.0,6820.0 C 4674.0,6793.0 4637.0,6770.0 4629.0,6770.0 C 4621.0,6770.0 4566.0,6749.0 4505.0,6724.0 C 4445.0,6699.0 4372.0,6672.0 4343.0,6665.0 C 4307.0,6656.0 4271.0,6635.0 4222.0,6596.0 C 4179.0,6561.0 4143.0,6540.0 4128.0,6540.0 C 4098.0,6540.0 4041.0,6482.0 4009.0,6418.0 C 3998.0,6394.0 3962.0,6348.0 3930.0,6315.0 C 3899.0,6282.0 3844.0,6221.0 3808.0,6180.0 C 3734.0,6093.0 3658.0,6020.0 3546.0,5930.0 L 3468.0,5866.0 L 3473.0,5815.0 C 3476.0,5788.0 3473.0,5744.0 3467.0,5717.0 C 3459.0,5683.0 3460.0,5666.0 3468.0,5658.0 C 3485.0,5641.0 3471.0,5510.0 3448.0,5478.0 C 3438.0,5463.0 3423.0,5432.0 3415.0,5409.0 C 3405.0,5382.0 3374.0,5339.0 3332.0,5295.0 C 3244.0,5204.0 3125.0,5052.0 3115.0,5020.0 C 3111.0,5006.0 3100.0,4981.0 3090.0,4964.0 C 3081.0,4947.0 3067.0,4916.0 3060.0,4895.0 C 3053.0,4874.0 3033.0,4832.0 3015.0,4803.0 C 2987.0,4757.0 2984.0,4743.0 2988.0,4700.0 C 2991.0,4671.0 2985.0,4622.0 2975.0,4580.0 C 2957.0,4508.0 2957.0,4447.0 2976.0,4243.0 C 2982.0,4176.0 2981.0,4169.0 2951.0,4116.0 C 2929.0,4078.0 2920.0,4050.0 2922.0,4028.0 C 2925.0,3999.0 2929.0,3995.0 2957.0,3992.0 C 2981.0,3990.0 3002.0,3975.0 3041.0,3932.0 C 3093.0,3875.0 3145.0,3778.0 3136.0,3755.0 C 3134.0,3748.0 3124.0,3692.0 3115.0,3630.0 C 3087.0,3441.0 2987.0,3248.0 2880.0,3177.0 C 2829.0,3143.0 2752.0,3029.0 2732.0,2959.0 C 2719.0,2911.0 2655.0,2825.0 2560.0,2725.0 C 2518.0,2681.0 2458.0,2611.0 2428.0,2570.0 C 2335.0,2444.0 2303.0,2420.0 2125.0,2339.0 C 2037.0,2300.0 1937.0,2247.0 1903.0,2223.0 C 1824.0,2167.0 1650.0,1993.0 1600.0,1920.0 C 1542.0,1835.0 1491.0,1803.0 1255.0,1703.0 C 1118.0,1644.0 999.0,1611.0 850.0,1589.0 C 809.0,1583.0 728.0,1567.0 672.0,1554.0 C 609.0,1540.0 537.0,1530.0 491.0,1530.0 C 403.0,1530.0 315.0,1516.0 252.0,1493.0 C 218.0,1480.0 204.0,1467.0 180.0,1424.0 C 148.0,1369.0 100.0,1321.0 50.0,1295.0 C 25.0,1282.0 0.0,1253.0 0.0,1237.0 C 0.0,1235.0 120.0,1230.0 268.0,1227.0 C 415.0,1223.0 814.0,1206.0 1155.0,1190.0 C 1784.0,1159.0 3879.0,1097.0 3892.0,1109.0 C 3910.0,1125.0 3921.0,1512.0 3911.0,1775.0 C 3905.0,1924.0 3900.0,2057.0 3900.0,2071.0 C 3900.0,2093.0 3914.0,2106.0 3983.0,2151.0 C 4028.0,2180.0 4101.0,2236.0 4145.0,2275.0 C 4189.0,2314.0 4245.0,2360.0 4270.0,2377.0 C 4295.0,2394.0 4323.0,2417.0 4334.0,2428.0 C 4344.0,2440.0 4375.0,2457.0 4404.0,2466.0 C 4435.0,2476.0 4478.0,2504.0 4513.0,2534.0 C 4546.0,2562.0 4596.0,2606.0 4625.0,2632.0 C 4654.0,2657.0 4688.0,2681.0 4701.0,2685.0 C 4713.0,2689.0 4745.0,2708.0 4771.0,2727.0 C 4813.0,2757.0 4830.0,2762.0 4895.0,2767.0 L 4970.0,2773.0 L 5020.0,2836.0 C 5054.0,2879.0 5099.0,2919.0 5161.0,2961.0 L 5252.0,3022.0 L 5319.0,2996.0 C 5361.0,2979.0 5405.0,2970.0 5440.0,2970.0 C 5470.0,2970.0 5538.0,2959.0 5590.0,2945.0 L 5685.0,2921.0 L 5717.0,2951.0 C 5752.0,2986.0 5780.0,3076.0 5780.0,3155.0 L 5780.0,3201.0 L 5808.0,3186.0 C 5845.0,3167.0 5985.0,3172.0 6028.0,3194.0 C 6051.0,3206.0 6074.0,3209.0 6112.0,3204.0 C 6151.0,3200.0 6190.0,3205.0 6261.0,3224.0 C 6313.0,3238.0 6405.0,3254.0 6466.0,3260.0 C 6546.0,3268.0 6580.0,3276.0 6595.0,3289.0 C 6606.0,3300.0 6649.0,3330.0 6691.0,3356.0 C 6748.0,3392.0 6785.0,3426.0 6832.0,3485.0 C 6943.0,3623.0 7018.0,3733.0 7045.0,3796.0 L 7072.0,3858.0 L 7188.0,3906.0 C 7253.0,3932.0 7322.0,3965.0 7344.0,3978.0 C 7377.0,3998.0 7390.0,4001.0 7435.0,3995.0 L 7488.0,3989.0 L 7537.0,4041.0 C 7574.0,4080.0 7602.0,4099.0 7646.0,4114.0 C 7700.0,4133.0 7709.0,4141.0 7750.0,4204.0 L 7796.0,4272.0 L 7960.0,4306.0 C 8106.0,4336.0 8128.0,4343.0 8154.0,4369.0 C 8181.0,4396.0 8183.0,4402.0 8174.0,4442.0 C 8167.0,4477.0 8161.0,4486.0 8140.0,4488.0 C 8126.0,4490.0 8101.0,4507.0 8084.0,4527.0 L 8052.0,4564.0 L 8019.0,4535.0 L 7985.0,4507.0 L 7982.0,4530.0 C 7979.0,4544.0 7985.0,4559.0 7996.0,4567.0 C 8012.0,4578.0 8012.0,4585.0 8001.0,4636.0 L 7988.0,4692.0 L 8019.0,4724.0 C 8036.0,4742.0 8050.0,4759.0 8050.0,4763.0 C 8050.0,4767.0 8032.0,4779.0 8010.0,4790.0 L 7970.0,4810.0 L 7970.0,4913.0 C 7970.0,5018.0 7973.0,5027.0 8015.0,5062.0 C 8034.0,5078.0 8041.0,5078.0 8095.0,5065.0 C 8180.0,5045.0 8254.0,5046.0 8298.0,5069.0 C 8353.0,5097.0 8438.0,5130.0 8500.0,5147.0 C 8568.0,5165.0 8627.0,5195.0 8661.0,5227.0 C 8686.0,5250.0 8687.0,5256.0 8682.0,5316.0 C 8677.0,5379.0 8678.0,5382.0 8710.0,5415.0 C 8734.0,5439.0 8754.0,5450.0 8789.0,5455.0 C 8814.0,5458.0 8907.0,5477.0 8995.0,5497.0 L 9155.0,5533.0 L 9340.0,5521.0 C 9442.0,5515.0 9661.0,5510.0 9828.0,5510.0 L 10132.0,5510.0 L 10125.0,5543.0 C 10121.0,5560.0 10107.0,5601.0 10093.0,5633.0 C 10072.0,5679.0 10068.0,5700.0 10073.0,5740.0 C 10081.0,5810.0 10093.0,5827.0 10140.0,5835.0 C 10173.0,5841.0 10186.0,5850.0 10210.0,5885.0 C 10227.0,5909.0 10240.0,5931.0 10240.0,5933.0 C 10240.0,5936.0 10174.0,5983.0 10093.0,6039.0 C 9894.0,6175.0 9856.0,6211.0 9840.0,6277.0 C 9833.0,6308.0 9831.0,6350.0 9835.0,6384.0 C 9842.0,6436.0 9840.0,6443.0 9814.0,6477.0 C 9798.0,6498.0 9773.0,6534.0 9758.0,6557.0 C 9743.0,6580.0 9722.0,6603.0 9711.0,6609.0 C 9679.0,6627.0 9672.0,6735.0 9699.0,6806.0 C 9710.0,6837.0 9720.0,6878.0 9720.0,6897.0 C 9720.0,6936.0 9669.0,7034.0 9644.0,7044.0 C 9633.0,7048.0 9629.0,7064.0 9630.0,7102.0 C 9630.0,7131.0 9627.0,7188.0 9624.0,7228.0 C 9620.0,7271.0 9622.0,7331.0 9630.0,7376.0 C 9644.0,7467.0 9636.0,7505.0 9578.0,7617.0 C 9557.0,7658.0 9540.0,7700.0 9540.0,7711.0 C 9540.0,7722.0 9552.0,7749.0 9567.0,7771.0 L 9594.0,7812.0 L 9526.0,7874.0 L 9458.0,7935.0 L 9488.0,7985.0 C 9505.0,8013.0 9522.0,8046.0 9525.0,8060.0 C 9531.0,8084.0 9526.0,8088.0 9464.0,8114.0 C 9401.0,8140.0 9375.0,8161.0 9340.0,8219.0 C 9329.0,8236.0 9304.0,8251.0 9261.0,8264.0 C 9199.0,8285.0 9197.0,8286.0 9181.0,8335.0 L 9165.0,8385.0 L 9076.0,8417.0 L 8986.0,8449.0 L 8965.0,8426.0 C 8952.0,8412.0 8922.0,8398.0 8891.0,8391.0 C 8843.0,8381.0 8832.0,8383.0 8732.0,8415.0 C 8673.0,8434.0 8619.0,8454.0 8612.0,8458.0 C 8605.0,8463.0 8597.0,8484.0 8594.0,8506.0 C 8591.0,8527.0 8579.0,8577.0 8568.0,8615.0 C 8556.0,8654.0 8545.0,8692.0 8543.0,8700.0 C 8540.0,8709.0 8521.0,8682.0 8499.0,8638.0 C 8467.0,8575.0 8455.0,8560.0 8437.0,8560.0 C 8423.0,8560.0 8397.0,8542.0 8370.0,8514.0 L 8325.0,8468.0 L 8230.0,8474.0 C 8159.0,8478.0 8114.0,8487.0 8051.0,8510.0 C 7973.0,8539.0 7966.0,8540.0 7943.0,8525.0 C 7930.0,8516.0 7915.0,8498.0 7910.0,8484.0 C 7902.0,8463.0 7894.0,8460.0 7855.0,8460.0 C 7817.0,8460.0 7810.0,8463.0 7810.0,8480.0 C 7810.0,8496.0 7803.0,8500.0 7777.0,8500.0 C 7759.0,8500.0 7727.0,8491.0 7705.0,8480.0 C 7683.0,8469.0 7657.0,8460.0 7645.0,8460.0 C 7634.0,8460.0 7600.0,8448.0 7570.0,8433.0 C 7503.0,8401.0 7428.0,8401.0 7300.0,8431.0 C 7163.0,8464.0 7117.0,8481.0 7085.0,8510.0 C 7069.0,8525.0 7017.0,8563.0 6970.0,8593.0 C 6880.0,8651.0 6723.0,8798.0 6704.0,8840.0 C 6660.0,8940.0 6647.0,9044.0 6674.0,9082.0 C 6683.0,9094.0 6690.0,9108.0 6690.0,9111.0 C 6690.0,9117.0 6630.0,9143.0 6626.0,9139.0 C 6625.0,9139.0 6609.0,9134.0 6590.0,9128.0" fill="pink"/>
</svg>
