<?xml version="1.0" ?>
<svg xmlns="http://www.w3.org/2000/svg" xmlns:ev="http://www.w3.org/2001/xml-events" xmlns:xlink="http://www.w3.org/1999/xlink" baseProfile="full" height="600px" version="1.1" viewBox="-3.9267430896452424 -1030.2205000000001 10255.915917075743 12299.441" width="501px">
	<defs/>
	<path d="M 8733.0,10222.0 C 8721.0,10213.0 8705.0,10181.0 8696.0,10152.0 L 8681.0,10098.0 L 8728.0,10052.0 C 8754.0,10026.0 8788.0,9986.0 8804.0,9962.0 L 8833.0,9920.0 L 8805.0,9855.0 C 8780.0,9794.0 8764.0,9778.0 8601.0,9629.0 L 8425.0,9468.0 L 8289.0,9474.0 L 8152.0,9480.0 L 8084.0,9412.0 C 7953.0,9284.0 7973.0,9292.0 7747.0,9284.0 L 7550.0,9277.0 L 7449.0,9215.0 C 7394.0,9180.0 7315.0,9140.0 7273.0,9125.0 C 7202.0,9099.0 7191.0,9097.0 7081.0,9103.0 C 7016.0,9106.0 6957.0,9110.0 6950.0,9112.0 C 6941.0,9114.0 6925.0,9073.0 6897.0,8975.0 C 6875.0,8898.0 6855.0,8833.0 6854.0,8832.0 C 6853.0,8830.0 6822.0,8821.0 6785.0,8811.0 L 6719.0,8795.0 L 6631.0,8579.0 C 6557.0,8397.0 6531.0,8346.0 6465.0,8249.0 L 6388.0,8135.0 L 6382.0,7925.0 L 6377.0,7715.0 L 6330.0,7620.0 C 6304.0,7568.0 6273.0,7494.0 6260.0,7455.0 C 6248.0,7417.0 6220.0,7338.0 6198.0,7280.0 C 6164.0,7191.0 6149.0,7166.0 6101.0,7117.0 C 6070.0,7085.0 6006.0,7029.0 5958.0,6994.0 L 5871.0,6929.0 L 5805.0,6800.0 C 5742.0,6675.0 5736.0,6668.0 5569.0,6491.0 C 5412.0,6325.0 5395.0,6310.0 5356.0,6305.0 C 5317.0,6299.0 5312.0,6293.0 5256.0,6209.0 C 5224.0,6160.0 5193.0,6120.0 5189.0,6120.0 C 5184.0,6120.0 5095.0,6177.0 4990.0,6246.0 L 4801.0,6373.0 L 4703.0,6313.0 C 4649.0,6280.0 4591.0,6245.0 4573.0,6236.0 C 4555.0,6227.0 4505.0,6185.0 4461.0,6141.0 C 4373.0,6055.0 4367.0,6039.0 4397.0,5975.0 L 4414.0,5939.0 L 4324.0,5849.0 C 4201.0,5725.0 4109.0,5662.0 4037.0,5654.0 L 3983.0,5648.0 L 3412.0,5146.0 C 3099.0,4871.0 2630.0,4465.0 2371.0,4245.0 L 1900.0,3845.0 L 1900.0,3800.0 C 1900.0,3775.0 1913.0,3715.0 1929.0,3665.0 L 1958.0,3575.0 L 1909.0,3530.0 C 1860.0,3486.0 1860.0,3484.0 1860.0,3426.0 C 1860.0,3375.0 1867.0,3356.0 1914.0,3266.0 L 1968.0,3165.0 L 1949.0,3115.0 C 1934.0,3077.0 1926.0,3021.0 1918.0,2880.0 C 1909.0,2733.0 1903.0,2693.0 1891.0,2683.0 C 1882.0,2677.0 1835.0,2669.0 1785.0,2665.0 C 1718.0,2659.0 1687.0,2652.0 1666.0,2637.0 C 1646.0,2623.0 1600.0,2610.0 1529.0,2599.0 L 1421.0,2582.0 L 1328.0,2509.0 C 1239.0,2440.0 1226.0,2424.0 1045.0,2171.0 C 940.0,2026.0 855.0,1901.0 855.0,1894.0 C 855.0,1887.0 1044.0,1754.0 1275.0,1598.0 C 1691.0,1319.0 1703.0,1309.0 2523.0,658.0 L 3352.0,-1.0 L 3388.0,32.0 C 3409.0,49.0 3568.0,199.0 3744.0,364.0 L 4062.0,665.0 L 4479.0,922.0 C 4708.0,1064.0 4896.0,1185.0 4897.0,1192.0 C 4899.0,1199.0 4896.0,1211.0 4891.0,1218.0 C 4885.0,1228.0 4836.0,1207.0 4682.0,1126.0 C 4572.0,1068.0 4478.0,1020.0 4473.0,1021.0 C 4465.0,1021.0 4437.0,1058.0 4308.0,1233.0 C 4242.0,1323.0 4241.0,1327.0 4240.0,1386.0 C 4240.0,1438.0 4243.0,1450.0 4262.0,1462.0 C 4277.0,1472.0 4281.0,1482.0 4277.0,1494.0 C 4270.0,1510.0 4251.0,1511.0 3972.0,1504.0 L 3675.0,1497.0 L 3656.0,1568.0 C 3636.0,1648.0 3633.0,1650.0 3533.0,1650.0 L 3470.0,1650.0 L 3470.0,1820.0 L 3470.0,1989.0 L 3510.0,2000.0 C 3532.0,2005.0 3568.0,2015.0 3590.0,2020.0 C 3630.0,2031.0 3645.0,2043.0 3636.0,2058.0 C 3633.0,2063.0 3558.0,2058.0 3468.0,2049.0 C 3235.0,2024.0 3244.0,2023.0 3221.0,2068.0 L 3201.0,2106.0 L 3341.0,2226.0 C 3418.0,2291.0 3485.0,2346.0 3488.0,2347.0 C 3492.0,2349.0 3525.0,2328.0 3561.0,2301.0 C 3612.0,2263.0 3629.0,2245.0 3634.0,2219.0 L 3641.0,2185.0 L 3668.0,2217.0 L 3694.0,2249.0 L 3741.0,2223.0 C 3786.0,2197.0 3789.0,2192.0 3836.0,2076.0 C 3875.0,1981.0 3892.0,1951.0 3921.0,1928.0 L 3956.0,1900.0 L 4025.0,1944.0 C 4108.0,1999.0 4179.0,2024.0 4225.0,2016.0 C 4260.0,2009.0 4264.0,2003.0 4276.0,1935.0 C 4283.0,1896.0 4342.0,1809.0 4391.0,1764.0 C 4404.0,1752.0 4433.0,1739.0 4455.0,1736.0 C 4508.0,1727.0 4588.0,1701.0 4595.0,1690.0 C 4598.0,1686.0 4589.0,1627.0 4575.0,1560.0 C 4561.0,1492.0 4550.0,1435.0 4550.0,1433.0 C 4550.0,1431.0 4562.0,1436.0 4578.0,1444.0 C 4602.0,1456.0 4608.0,1471.0 4635.0,1581.0 L 4666.0,1705.0 L 4780.0,1706.0 L 4895.0,1706.0 L 4985.0,1753.0 C 5035.0,1779.0 5113.0,1832.0 5160.0,1871.0 C 5207.0,1909.0 5273.0,1955.0 5308.0,1972.0 C 5343.0,1989.0 5378.0,2015.0 5386.0,2029.0 C 5395.0,2044.0 5427.0,2073.0 5457.0,2094.0 L 5513.0,2133.0 L 5580.0,2124.0 C 5636.0,2116.0 5658.0,2118.0 5720.0,2136.0 C 5783.0,2153.0 5799.0,2163.0 5831.0,2200.0 C 5870.0,2245.0 5890.0,2302.0 5890.0,2366.0 C 5890.0,2413.0 5942.0,2500.0 6029.0,2600.0 C 6066.0,2641.0 6113.0,2699.0 6134.0,2728.0 L 6173.0,2782.0 L 6154.0,2856.0 C 6136.0,2929.0 6136.0,2930.0 6158.0,2997.0 C 6190.0,3099.0 6189.0,3125.0 6147.0,3197.0 C 6118.0,3245.0 6103.0,3260.0 6080.0,3265.0 C 6063.0,3269.0 6050.0,3273.0 6050.0,3275.0 C 6050.0,3276.0 6027.0,3389.0 6000.0,3524.0 C 5972.0,3659.0 5950.0,3772.0 5950.0,3775.0 C 5950.0,3778.0 5939.0,3780.0 5926.0,3780.0 L 5903.0,3780.0 L 5946.0,3563.0 C 5970.0,3444.0 5990.0,3339.0 5990.0,3330.0 C 5990.0,3318.0 5951.0,3307.0 5798.0,3277.0 C 5692.0,3256.0 5600.0,3239.0 5594.0,3240.0 C 5588.0,3240.0 5579.0,3255.0 5574.0,3273.0 C 5559.0,3323.0 5536.0,3314.0 5532.0,3258.0 C 5529.0,3218.0 5526.0,3210.0 5509.0,3210.0 C 5493.0,3210.0 5490.0,3217.0 5490.0,3250.0 C 5490.0,3288.0 5489.0,3290.0 5459.0,3290.0 L 5427.0,3290.0 L 5433.0,3240.0 L 5439.0,3190.0 L 5405.0,3190.0 L 5370.0,3190.0 L 5370.0,3245.0 C 5370.0,3275.0 5368.0,3300.0 5365.0,3300.0 C 5363.0,3300.0 5349.0,3295.0 5334.0,3288.0 C 5309.0,3276.0 5308.0,3274.0 5314.0,3218.0 C 5321.0,3164.0 5320.0,3160.0 5298.0,3155.0 C 5224.0,3138.0 5177.0,3130.0 5175.0,3132.0 C 5173.0,3134.0 5163.0,3168.0 5151.0,3209.0 C 5131.0,3283.0 5131.0,3283.0 5150.0,3311.0 C 5161.0,3326.0 5170.0,3340.0 5170.0,3343.0 C 5170.0,3347.0 5067.0,3340.0 5062.0,3334.0 C 5060.0,3333.0 5065.0,3319.0 5074.0,3303.0 C 5083.0,3288.0 5098.0,3238.0 5109.0,3192.0 L 5128.0,3110.0 L 5106.0,3105.0 C 5072.0,3097.0 4918.0,3070.0 4911.0,3070.0 C 4907.0,3070.0 4895.0,3124.0 4885.0,3190.0 C 4868.0,3304.0 4865.0,3310.0 4843.0,3310.0 C 4815.0,3310.0 4815.0,3311.0 4845.0,3175.0 C 4858.0,3115.0 4866.0,3062.0 4862.0,3058.0 C 4848.0,3045.0 4698.0,3018.0 4691.0,3027.0 C 4639.0,3106.0 4620.0,3142.0 4610.0,3179.0 C 4603.0,3204.0 4572.0,3277.0 4539.0,3341.0 L 4481.0,3459.0 L 4526.0,3476.0 C 4582.0,3497.0 4593.0,3520.0 4591.0,3618.0 C 4590.0,3660.0 4593.0,3690.0 4599.0,3690.0 C 4612.0,3690.0 4617.0,3669.0 4625.0,3582.0 C 4632.0,3510.0 4632.0,3510.0 4662.0,3510.0 C 4685.0,3510.0 4690.0,3514.0 4686.0,3528.0 C 4671.0,3575.0 4651.0,3693.0 4656.0,3701.0 C 4659.0,3706.0 4688.0,3710.0 4720.0,3710.0 L 4778.0,3710.0 L 4790.0,3638.0 C 4804.0,3544.0 4811.0,3528.0 4829.0,3539.0 C 4841.0,3547.0 4839.0,3579.0 4811.0,3757.0 C 4770.0,4020.0 4773.0,4007.0 4744.0,4013.0 C 4715.0,4018.0 4714.0,4004.0 4734.0,3893.0 L 4747.0,3822.0 L 4696.0,3812.0 C 4668.0,3806.0 4642.0,3804.0 4639.0,3806.0 C 4636.0,3808.0 4625.0,3848.0 4615.0,3895.0 C 4605.0,3942.0 4593.0,3983.0 4588.0,3986.0 C 4565.0,4001.0 4563.0,3969.0 4581.0,3881.0 C 4591.0,3829.0 4599.0,3785.0 4597.0,3784.0 C 4595.0,3782.0 4579.0,3777.0 4562.0,3774.0 L 4530.0,3768.0 L 4530.0,3811.0 C 4530.0,3835.0 4527.0,3865.0 4524.0,3876.0 C 4518.0,3900.0 4467.0,3925.0 4408.0,3935.0 C 4375.0,3940.0 4370.0,3945.0 4363.0,3978.0 C 4359.0,3998.0 4356.0,4089.0 4356.0,4180.0 C 4355.0,4361.0 4363.0,4400.0 4408.0,4443.0 C 4435.0,4468.0 4447.0,4470.0 5089.0,4545.0 C 5448.0,4587.0 5744.0,4619.0 5746.0,4617.0 C 5748.0,4615.0 5768.0,4515.0 5790.0,4395.0 C 5812.0,4275.0 5831.0,4175.0 5834.0,4173.0 C 5836.0,4171.0 5848.0,4174.0 5862.0,4180.0 L 5886.0,4191.0 L 5849.0,4423.0 C 5799.0,4730.0 5798.0,4710.0 5860.0,4710.0 C 5904.0,4710.0 5932.0,4721.0 6068.0,4791.0 C 6154.0,4836.0 6242.0,4883.0 6262.0,4897.0 C 6295.0,4919.0 6307.0,4922.0 6349.0,4916.0 C 6395.0,4910.0 6398.0,4911.0 6423.0,4943.0 C 6443.0,4970.0 6462.0,4980.0 6517.0,4995.0 C 6605.0,5018.0 6660.0,5066.0 6660.0,5120.0 C 6660.0,5144.0 6667.0,5163.0 6680.0,5175.0 C 6692.0,5185.0 6705.0,5222.0 6716.0,5269.0 C 6725.0,5311.0 6738.0,5367.0 6746.0,5394.0 C 6754.0,5421.0 6760.0,5462.0 6760.0,5484.0 C 6760.0,5507.0 6769.0,5549.0 6780.0,5578.0 C 6791.0,5607.0 6800.0,5647.0 6800.0,5668.0 C 6800.0,5688.0 6811.0,5750.0 6824.0,5805.0 C 6838.0,5860.0 6864.0,5986.0 6884.0,6085.0 C 6921.0,6278.0 6939.0,6329.0 7006.0,6430.0 C 7030.0,6466.0 7066.0,6536.0 7086.0,6585.0 C 7127.0,6684.0 7201.0,6786.0 7305.0,6885.0 C 7362.0,6939.0 7371.0,6954.0 7400.0,7035.0 C 7428.0,7113.0 7432.0,7137.0 7431.0,7217.0 C 7429.0,7306.0 7430.0,7310.0 7462.0,7353.0 C 7485.0,7385.0 7512.0,7406.0 7552.0,7424.0 C 7586.0,7440.0 7621.0,7466.0 7639.0,7489.0 C 7656.0,7510.0 7670.0,7530.0 7670.0,7533.0 C 7670.0,7535.0 7658.0,7540.0 7643.0,7543.0 C 7623.0,7547.0 7605.0,7539.0 7567.0,7509.0 C 7506.0,7460.0 7490.0,7459.0 7490.0,7504.0 C 7490.0,7573.0 7511.0,7648.0 7555.0,7736.0 C 7610.0,7845.0 7656.0,7893.0 7733.0,7920.0 C 7805.0,7945.0 7842.0,7945.0 7865.0,7920.0 C 7881.0,7902.0 7910.0,7892.0 7910.0,7905.0 C 7910.0,7908.0 7901.0,7927.0 7890.0,7947.0 C 7879.0,7968.0 7870.0,7990.0 7870.0,7997.0 C 7870.0,8004.0 7918.0,8047.0 7976.0,8092.0 C 8034.0,8138.0 8091.0,8183.0 8103.0,8193.0 C 8125.0,8210.0 8304.0,8260.0 8346.0,8260.0 C 8358.0,8260.0 8372.0,8255.0 8375.0,8249.0 C 8388.0,8229.0 8351.0,8155.0 8320.0,8137.0 C 8304.0,8127.0 8285.0,8110.0 8280.0,8099.0 C 8271.0,8083.0 8273.0,8080.0 8291.0,8080.0 C 8303.0,8080.0 8330.0,8085.0 8351.0,8092.0 C 8386.0,8102.0 8392.0,8109.0 8412.0,8162.0 C 8429.0,8211.0 8440.0,8225.0 8470.0,8240.0 C 8491.0,8251.0 8510.0,8266.0 8513.0,8274.0 C 8520.0,8292.0 8491.0,8305.0 8476.0,8290.0 C 8453.0,8267.0 8423.0,8280.0 8400.0,8324.0 L 8377.0,8367.0 L 8399.0,8403.0 C 8411.0,8423.0 8449.0,8464.0 8482.0,8495.0 C 8538.0,8545.0 8547.0,8550.0 8590.0,8550.0 L 8637.0,8550.0 L 8736.0,8373.0 L 8835.0,8195.0 L 8918.0,8138.0 C 8986.0,8092.0 9014.0,8080.0 9067.0,8070.0 L 9133.0,8059.0 L 9261.0,8106.0 L 9388.0,8154.0 L 9393.0,8194.0 C 9396.0,8226.0 9290.0,8918.0 9265.0,9026.0 C 9262.0,9038.0 9235.0,9065.0 9204.0,9086.0 L 9147.0,9125.0 L 9155.0,9240.0 C 9164.0,9383.0 9164.0,9402.0 9155.0,9572.0 C 9147.0,9706.0 9148.0,9711.0 9173.0,9767.0 C 9214.0,9861.0 9214.0,9878.0 9177.0,9935.0 C 9131.0,10007.0 9057.0,10072.0 8970.0,10115.0 C 8929.0,10136.0 8867.0,10172.0 8832.0,10196.0 C 8797.0,10220.0 8766.0,10240.0 8762.0,10240.0 C 8758.0,10240.0 8745.0,10232.0 8733.0,10222.0" fill="pink"/>
</svg>
