<?xml version="1.0" ?>
<svg xmlns="http://www.w3.org/2000/svg" xmlns:ev="http://www.w3.org/2001/xml-events" xmlns:xlink="http://www.w3.org/1999/xlink" baseProfile="full" height="600px" version="1.1" viewBox="327.88252867001324 -1024.5242271478332 9574.234942659974 12292.166134628253" width="468px">
	<defs/>
	<path d="M 3193.0,10195.0 C 3153.0,10170.0 3074.0,10132.0 3018.0,10109.0 C 2959.0,10085.0 2904.0,10056.0 2889.0,10040.0 L 2863.0,10013.0 L 2846.0,10041.0 C 2831.0,10067.0 2823.0,10070.0 2778.0,10070.0 C 2684.0,10070.0 2662.0,10057.0 2578.0,9950.0 L 2501.0,9853.0 L 2419.0,9847.0 L 2336.0,9840.0 L 2199.0,9912.0 C 2116.0,9955.0 2056.0,9981.0 2046.0,9977.0 C 2034.0,9972.0 2030.0,9956.0 2030.0,9905.0 L 2030.0,9840.0 L 1986.0,9840.0 C 1959.0,9840.0 1934.0,9833.0 1918.0,9821.0 C 1894.0,9802.0 1894.0,9802.0 1822.0,9836.0 C 1778.0,9856.0 1723.0,9893.0 1682.0,9930.0 C 1614.0,9991.0 1600.0,9999.0 1600.0,9978.0 C 1600.0,9971.0 1595.0,9948.0 1589.0,9928.0 C 1579.0,9891.0 1578.0,9890.0 1530.0,9890.0 C 1474.0,9890.0 1466.0,9875.0 1496.0,9831.0 C 1508.0,9814.0 1509.0,9805.0 1501.0,9797.0 C 1495.0,9791.0 1490.0,9751.0 1490.0,9704.0 L 1490.0,9621.0 L 1433.0,9614.0 C 1401.0,9610.0 1375.0,9611.0 1373.0,9616.0 C 1371.0,9621.0 1351.0,9659.0 1327.0,9700.0 C 1289.0,9767.0 1281.0,9775.0 1252.0,9778.0 L 1220.0,9781.0 L 1220.0,9732.0 C 1220.0,9676.0 1200.0,9650.0 1157.0,9650.0 C 1130.0,9650.0 1130.0,9649.0 1130.0,9580.0 C 1130.0,9516.0 1132.0,9510.0 1150.0,9510.0 C 1162.0,9510.0 1175.0,9500.0 1182.0,9485.0 C 1195.0,9456.0 1207.0,9454.0 1232.0,9476.0 C 1248.0,9492.0 1251.0,9491.0 1269.0,9469.0 L 1287.0,9446.0 L 1305.0,9480.0 L 1322.0,9514.0 L 1342.0,9487.0 C 1360.0,9462.0 1367.0,9460.0 1430.0,9460.0 C 1517.0,9460.0 1527.0,9456.0 1551.0,9409.0 C 1562.0,9387.0 1577.0,9370.0 1585.0,9370.0 C 1605.0,9370.0 1690.0,9287.0 1690.0,9268.0 C 1690.0,9220.0 1715.0,9207.0 1745.0,9240.0 C 1755.0,9251.0 1771.0,9260.0 1782.0,9260.0 C 1796.0,9260.0 1800.0,9252.0 1800.0,9226.0 C 1800.0,9195.0 1805.0,9189.0 1855.0,9160.0 C 1886.0,9142.0 1909.0,9123.0 1907.0,9116.0 C 1905.0,9110.0 1884.0,9104.0 1861.0,9102.0 C 1819.0,9099.0 1819.0,9098.0 1835.0,9080.0 C 1847.0,9067.0 1873.0,9058.0 1912.0,9054.0 C 1968.0,9048.0 1973.0,9045.0 1986.0,9014.0 C 1994.0,8996.0 2000.0,8963.0 2000.0,8942.0 C 2000.0,8870.0 2012.0,8842.0 2071.0,8775.0 C 2131.0,8708.0 2138.0,8692.0 2119.0,8673.0 C 2105.0,8659.0 2154.0,8620.0 2186.0,8620.0 C 2207.0,8620.0 2210.0,8615.0 2210.0,8585.0 C 2210.0,8561.0 2216.0,8548.0 2230.0,8540.0 C 2243.0,8533.0 2250.0,8519.0 2250.0,8501.0 C 2250.0,8485.0 2257.0,8453.0 2265.0,8430.0 C 2273.0,8407.0 2280.0,8370.0 2280.0,8349.0 C 2280.0,8309.0 2310.0,8276.0 2357.0,8264.0 C 2379.0,8258.0 2380.0,8254.0 2380.0,8169.0 L 2380.0,8079.0 L 2414.0,8059.0 C 2449.0,8039.0 2454.0,8008.0 2424.0,7996.0 C 2405.0,7989.0 2406.0,7935.0 2427.0,7902.0 C 2437.0,7887.0 2470.0,7846.0 2502.0,7810.0 C 2550.0,7756.0 2560.0,7739.0 2560.0,7709.0 C 2560.0,7678.0 2556.0,7671.0 2530.0,7660.0 C 2513.0,7653.0 2497.0,7644.0 2495.0,7639.0 C 2492.0,7635.0 2507.0,7602.0 2528.0,7567.0 C 2550.0,7532.0 2571.0,7493.0 2575.0,7481.0 C 2579.0,7468.0 2597.0,7441.0 2614.0,7421.0 C 2654.0,7377.0 2735.0,7261.0 2743.0,7237.0 C 2747.0,7227.0 2772.0,7205.0 2800.0,7188.0 C 2846.0,7160.0 2852.0,7151.0 2870.0,7092.0 C 2883.0,7052.0 2899.0,7021.0 2915.0,7008.0 C 2937.0,6991.0 2940.0,6981.0 2940.0,6924.0 C 2940.0,6851.0 2943.0,6848.0 3045.0,6829.0 C 3086.0,6822.0 3102.0,6812.0 3132.0,6778.0 C 3165.0,6740.0 3169.0,6729.0 3170.0,6682.0 C 3170.0,6653.0 3175.0,6620.0 3181.0,6609.0 C 3186.0,6598.0 3192.0,6561.0 3193.0,6526.0 C 3195.0,6474.0 3200.0,6458.0 3223.0,6431.0 C 3238.0,6413.0 3250.0,6394.0 3250.0,6389.0 C 3250.0,6384.0 3267.0,6357.0 3287.0,6329.0 C 3335.0,6266.0 3450.0,6185.0 3507.0,6175.0 C 3530.0,6172.0 3553.0,6163.0 3558.0,6157.0 C 3577.0,6133.0 3586.0,6084.0 3579.0,6046.0 C 3573.0,6009.0 3576.0,6003.0 3618.0,5958.0 C 3652.0,5921.0 3667.0,5895.0 3681.0,5843.0 C 3692.0,5806.0 3700.0,5762.0 3700.0,5747.0 C 3700.0,5726.0 3712.0,5706.0 3740.0,5678.0 C 3768.0,5650.0 3780.0,5629.0 3780.0,5609.0 C 3780.0,5586.0 3787.0,5577.0 3818.0,5561.0 C 3876.0,5531.0 3998.0,5418.0 3999.0,5393.0 C 4000.0,5376.0 4015.0,5366.0 4086.0,5341.0 C 4133.0,5324.0 4179.0,5310.0 4189.0,5310.0 C 4231.0,5310.0 4389.0,5018.0 4413.0,4895.0 C 4422.0,4853.0 4425.0,4805.0 4421.0,4775.0 C 4411.0,4699.0 4456.0,4550.0 4504.0,4501.0 C 4538.0,4466.0 4540.0,4460.0 4540.0,4400.0 C 4539.0,4340.0 4544.0,4326.0 4601.0,4215.0 C 4650.0,4119.0 4664.0,4082.0 4669.0,4030.0 C 4673.0,3994.0 4684.0,3950.0 4694.0,3931.0 C 4711.0,3899.0 4711.0,3896.0 4691.0,3840.0 C 4679.0,3808.0 4670.0,3759.0 4670.0,3728.0 C 4670.0,3696.0 4660.0,3643.0 4645.0,3600.0 L 4620.0,3526.0 L 4654.0,3491.0 C 4710.0,3431.0 4728.0,3340.0 4690.0,3305.0 C 4676.0,3292.0 4670.0,3274.0 4670.0,3242.0 C 4670.0,3207.0 4663.0,3188.0 4636.0,3151.0 C 4570.0,3060.0 4556.0,3011.0 4582.0,2956.0 C 4591.0,2936.0 4589.0,2917.0 4575.0,2865.0 C 4557.0,2796.0 4560.0,2798.0 4470.0,2787.0 C 4461.0,2786.0 4451.0,2763.0 4442.0,2725.0 C 4435.0,2692.0 4423.0,2662.0 4415.0,2657.0 C 4404.0,2651.0 4406.0,2637.0 4426.0,2578.0 C 4452.0,2501.0 4458.0,2385.0 4440.0,2320.0 C 4435.0,2301.0 4406.0,2242.0 4377.0,2190.0 C 4328.0,2104.0 4324.0,2092.0 4331.0,2055.0 C 4336.0,2033.0 4339.0,1990.0 4340.0,1961.0 C 4340.0,1930.0 4352.0,1868.0 4367.0,1821.0 C 4393.0,1740.0 4394.0,1725.0 4393.0,1560.0 C 4392.0,1464.0 4390.0,1354.0 4388.0,1315.0 C 4386.0,1248.0 4388.0,1240.0 4439.0,1135.0 L 4492.0,1025.0 L 4486.0,840.0 C 4482.0,738.0 4474.0,643.0 4468.0,628.0 C 4459.0,603.0 4452.0,600.0 4411.0,600.0 C 4376.0,600.0 4357.0,593.0 4332.0,572.0 C 4299.0,545.0 4299.0,544.0 4310.0,497.0 C 4323.0,446.0 4384.0,380.0 4418.0,380.0 C 4454.0,380.0 4478.0,338.0 4500.0,240.0 C 4532.0,90.0 4542.0,67.0 4583.0,30.0 C 4616.0,1.0 4623.0,-1.0 4636.0,11.0 C 4644.0,19.0 4659.0,56.0 4670.0,94.0 C 4695.0,184.0 4730.0,241.0 4774.0,264.0 C 4810.0,283.0 4813.0,283.0 4913.0,266.0 C 4975.0,255.0 5037.0,237.0 5071.0,220.0 C 5126.0,192.0 5127.0,192.0 5197.0,205.0 C 5320.0,228.0 5347.0,240.0 5361.0,272.0 C 5370.0,295.0 5370.0,308.0 5356.0,345.0 C 5346.0,370.0 5334.0,392.0 5329.0,395.0 C 5312.0,406.0 5320.0,430.0 5340.0,430.0 C 5351.0,430.0 5374.0,443.0 5392.0,459.0 C 5423.0,487.0 5424.0,489.0 5407.0,507.0 C 5394.0,523.0 5390.0,545.0 5390.0,613.0 C 5390.0,667.0 5386.0,700.0 5380.0,700.0 C 5359.0,700.0 5320.0,753.0 5320.0,780.0 C 5320.0,813.0 5365.0,897.0 5390.0,910.0 C 5400.0,916.0 5421.0,920.0 5437.0,920.0 C 5480.0,920.0 5487.0,930.0 5495.0,1000.0 C 5505.0,1091.0 5516.0,1100.0 5610.0,1100.0 C 5683.0,1100.0 5687.0,1101.0 5718.0,1133.0 C 5746.0,1161.0 5750.0,1173.0 5750.0,1218.0 C 5750.0,1266.0 5752.0,1270.0 5774.0,1270.0 C 5799.0,1270.0 5917.0,1351.0 5926.0,1374.0 C 5930.0,1384.0 5901.0,1600.0 5884.0,1681.0 C 5880.0,1703.0 5885.0,1709.0 5927.0,1728.0 C 5964.0,1745.0 6376.0,1890.0 6386.0,1890.0 C 6388.0,1890.0 6396.0,1897.0 6404.0,1906.0 C 6426.0,1928.0 6424.0,1984.0 6396.0,2076.0 C 6359.0,2201.0 6356.0,2227.0 6378.0,2234.0 C 6433.0,2252.0 6550.0,2436.0 6550.0,2505.0 C 6550.0,2543.0 6544.0,2552.0 6450.0,2645.0 L 6350.0,2745.0 L 6350.0,2797.0 C 6350.0,2826.0 6355.0,2860.0 6361.0,2873.0 C 6369.0,2891.0 6368.0,2918.0 6356.0,2982.0 C 6339.0,3072.0 6310.0,3281.0 6310.0,3312.0 C 6310.0,3322.0 6345.0,3367.0 6387.0,3413.0 C 6467.0,3499.0 6547.0,3552.0 6617.0,3565.0 C 6638.0,3568.0 6704.0,3598.0 6763.0,3631.0 C 6822.0,3663.0 6883.0,3690.0 6898.0,3690.0 C 6913.0,3690.0 6938.0,3680.0 6953.0,3667.0 L 6981.0,3645.0 L 6982.0,3465.0 C 6983.0,3293.0 6982.0,3283.0 6960.0,3246.0 C 6930.0,3197.0 6917.0,3123.0 6937.0,3115.0 C 6973.0,3102.0 6998.0,3112.0 7045.0,3160.0 C 7082.0,3197.0 7105.0,3212.0 7132.0,3217.0 L 7170.0,3223.0 L 7170.0,3301.0 C 7170.0,3400.0 7190.0,3455.0 7231.0,3469.0 C 7258.0,3478.0 7260.0,3477.0 7266.0,3452.0 C 7269.0,3437.0 7286.0,3395.0 7303.0,3358.0 C 7330.0,3297.0 7336.0,3290.0 7361.0,3290.0 C 7388.0,3290.0 7390.0,3293.0 7390.0,3330.0 C 7390.0,3367.0 7397.0,3376.0 7476.0,3455.0 C 7524.0,3502.0 7567.0,3540.0 7572.0,3540.0 C 7578.0,3540.0 7594.0,3533.0 7609.0,3524.0 C 7634.0,3509.0 7636.0,3504.0 7630.0,3463.0 C 7620.0,3400.0 7633.0,3340.0 7661.0,3319.0 C 7675.0,3308.0 7707.0,3300.0 7738.0,3298.0 L 7791.0,3295.0 L 7809.0,3244.0 C 7836.0,3162.0 7853.0,3144.0 7911.0,3130.0 L 7962.0,3117.0 L 7997.0,3152.0 C 8026.0,3181.0 8031.0,3194.0 8033.0,3236.0 C 8034.0,3263.0 8031.0,3292.0 8027.0,3300.0 C 8021.0,3312.0 8033.0,3319.0 8080.0,3333.0 C 8146.0,3352.0 8145.0,3351.0 8155.0,3424.0 L 8162.0,3473.0 L 8281.0,3354.0 L 8400.0,3235.0 L 8380.0,3171.0 C 8369.0,3135.0 8362.0,3106.0 8363.0,3105.0 C 8364.0,3105.0 8382.0,3097.0 8403.0,3087.0 C 8471.0,3056.0 8498.0,3063.0 8558.0,3126.0 L 8611.0,3183.0 L 8821.0,3188.0 L 9031.0,3193.0 L 9066.0,3244.0 C 9085.0,3272.0 9100.0,3301.0 9100.0,3308.0 C 9100.0,3324.0 9069.0,3336.0 9002.0,3345.0 C 8966.0,3350.0 8945.0,3358.0 8937.0,3371.0 C 8930.0,3382.0 8914.0,3390.0 8899.0,3390.0 C 8884.0,3390.0 8857.0,3397.0 8837.0,3405.0 C 8794.0,3423.0 8783.0,3456.0 8811.0,3486.0 C 8835.0,3512.0 8830.0,3528.0 8785.0,3559.0 L 8749.0,3583.0 L 8725.0,3560.0 L 8700.0,3536.0 L 8672.0,3563.0 C 8657.0,3578.0 8631.0,3594.0 8614.0,3600.0 C 8593.0,3608.0 8577.0,3624.0 8562.0,3656.0 C 8550.0,3680.0 8540.0,3707.0 8540.0,3715.0 C 8540.0,3741.0 8612.0,3790.0 8662.0,3796.0 C 8720.0,3804.0 8721.0,3809.0 8686.0,3954.0 C 8662.0,4053.0 8662.0,4053.0 8681.0,4097.0 C 8696.0,4133.0 8700.0,4166.0 8700.0,4264.0 C 8700.0,4373.0 8696.0,4401.0 8665.0,4515.0 C 8645.0,4586.0 8625.0,4649.0 8619.0,4657.0 C 8603.0,4675.0 8573.0,4673.0 8566.0,4653.0 C 8561.0,4640.0 8553.0,4648.0 8536.0,4686.0 C 8523.0,4713.0 8496.0,4747.0 8477.0,4762.0 C 8444.0,4787.0 8433.0,4790.0 8358.0,4790.0 C 8312.0,4790.0 8253.0,4796.0 8225.0,4803.0 C 8176.0,4815.0 8174.0,4817.0 8140.0,4888.0 C 8107.0,4956.0 8104.0,4960.0 8071.0,4960.0 C 8018.0,4960.0 7959.0,4980.0 7907.0,5017.0 C 7878.0,5038.0 7842.0,5053.0 7813.0,5057.0 L 7767.0,5063.0 L 7773.0,5136.0 C 7780.0,5213.0 7811.0,5309.0 7841.0,5349.0 C 7856.0,5368.0 7860.0,5390.0 7860.0,5457.0 L 7860.0,5541.0 L 7825.0,5556.0 C 7767.0,5580.0 7734.0,5575.0 7703.0,5535.0 C 7688.0,5516.0 7671.0,5500.0 7665.0,5501.0 C 7654.0,5501.0 7570.0,5615.0 7570.0,5629.0 C 7570.0,5640.0 7655.0,5676.0 7703.0,5685.0 C 7773.0,5698.0 7789.0,5779.0 7745.0,5888.0 C 7721.0,5948.0 7712.0,6032.0 7728.0,6057.0 C 7732.0,6063.0 7748.0,6072.0 7763.0,6075.0 C 7798.0,6084.0 7810.0,6107.0 7810.0,6162.0 C 7809.0,6202.0 7787.0,6327.0 7779.0,6334.0 C 7718.0,6385.0 7684.0,6400.0 7630.0,6400.0 L 7572.0,6400.0 L 7555.0,6328.0 C 7533.0,6235.0 7517.0,6220.0 7436.0,6220.0 L 7375.0,6220.0 L 7338.0,6278.0 C 7302.0,6333.0 7300.0,6341.0 7300.0,6418.0 C 7300.0,6498.0 7300.0,6500.0 7270.0,6515.0 C 7254.0,6523.0 7226.0,6530.0 7207.0,6530.0 C 7174.0,6530.0 7172.0,6533.0 7161.0,6574.0 C 7155.0,6599.0 7150.0,6628.0 7150.0,6638.0 C 7150.0,6652.0 7137.0,6663.0 7110.0,6674.0 C 7088.0,6683.0 7065.0,6690.0 7058.0,6690.0 C 7042.0,6690.0 7021.0,6722.0 7020.0,6748.0 C 7020.0,6776.0 6983.0,6778.0 6949.0,6752.0 C 6936.0,6741.0 6914.0,6730.0 6900.0,6727.0 C 6879.0,6722.0 6872.0,6726.0 6857.0,6751.0 C 6848.0,6768.0 6840.0,6801.0 6840.0,6824.0 C 6840.0,6862.0 6833.0,6874.0 6786.0,6927.0 C 6736.0,6981.0 6731.0,6992.0 6725.0,7046.0 L 6719.0,7105.0 L 6799.0,7191.0 C 6842.0,7238.0 6886.0,7294.0 6895.0,7316.0 C 6922.0,7377.0 6933.0,7523.0 6915.0,7567.0 C 6907.0,7587.0 6900.0,7621.0 6900.0,7644.0 C 6900.0,7678.0 6906.0,7692.0 6931.0,7716.0 C 6963.0,7746.0 7000.0,7809.0 7000.0,7833.0 C 7000.0,7855.0 6970.0,7876.0 6913.0,7895.0 C 6862.0,7911.0 6860.0,7913.0 6860.0,7947.0 C 6860.0,7976.0 6873.0,7999.0 6930.0,8071.0 C 7023.0,8189.0 7022.0,8203.0 6923.0,8235.0 C 6860.0,8255.0 6841.0,8281.0 6830.0,8360.0 C 6820.0,8428.0 6802.0,8467.0 6753.0,8521.0 C 6719.0,8558.0 6715.0,8560.0 6656.0,8560.0 C 6623.0,8560.0 6585.0,8557.0 6572.0,8554.0 C 6550.0,8548.0 6549.0,8544.0 6555.0,8486.0 C 6560.0,8430.0 6559.0,8424.0 6537.0,8408.0 C 6523.0,8398.0 6483.0,8389.0 6434.0,8385.0 L 6355.0,8379.0 L 6221.0,8540.0 C 6090.0,8697.0 6088.0,8701.0 6081.0,8760.0 C 6076.0,8799.0 6066.0,8828.0 6053.0,8842.0 C 6042.0,8855.0 6030.0,8883.0 6026.0,8905.0 C 6010.0,9002.0 6012.0,8998.0 5963.0,9006.0 C 5938.0,9010.0 5899.0,9023.0 5876.0,9036.0 C 5844.0,9054.0 5820.0,9060.0 5768.0,9060.0 C 5711.0,9060.0 5697.0,9064.0 5671.0,9086.0 C 5628.0,9122.0 5540.0,9143.0 5470.0,9135.0 C 5425.0,9130.0 5398.0,9117.0 5316.0,9063.0 L 5217.0,8998.0 L 5223.0,8920.0 C 5231.0,8824.0 5219.0,8815.0 5164.0,8871.0 L 5125.0,8911.0 L 5128.0,9036.0 L 5131.0,9160.0 L 5104.0,9160.0 C 5060.0,9160.0 5013.0,9124.0 4998.0,9079.0 C 4988.0,9049.0 4976.0,9034.0 4953.0,9025.0 C 4922.0,9012.0 4920.0,9013.0 4895.0,9046.0 C 4870.0,9079.0 4870.0,9080.0 4886.0,9112.0 C 4895.0,9130.0 4927.0,9172.0 4957.0,9205.0 C 5014.0,9268.0 5017.0,9283.0 4990.0,9354.0 C 4977.0,9389.0 4913.0,9404.0 4860.0,9385.0 C 4837.0,9377.0 4810.0,9370.0 4800.0,9370.0 C 4790.0,9370.0 4758.0,9354.0 4729.0,9335.0 C 4687.0,9306.0 4671.0,9300.0 4646.0,9306.0 C 4591.0,9317.0 4580.0,9328.0 4580.0,9368.0 C 4580.0,9416.0 4572.0,9425.0 4531.0,9434.0 C 4501.0,9439.0 4493.0,9436.0 4469.0,9410.0 C 4446.0,9386.0 4433.0,9380.0 4399.0,9380.0 L 4358.0,9380.0 L 4364.0,9418.0 C 4397.0,9631.0 4382.0,9652.0 4189.0,9666.0 L 4085.0,9673.0 L 4023.0,9729.0 C 3988.0,9760.0 3956.0,9798.0 3950.0,9813.0 C 3936.0,9854.0 3895.0,9899.0 3843.0,9932.0 C 3818.0,9948.0 3764.0,9995.0 3723.0,10037.0 L 3648.0,10112.0 L 3597.0,10106.0 C 3568.0,10102.0 3516.0,10090.0 3482.0,10079.0 L 3418.0,10058.0 L 3343.0,10096.0 L 3268.0,10135.0 L 3274.0,10188.0 C 3277.0,10216.0 3277.0,10240.0 3273.0,10239.0 C 3268.0,10239.0 3233.0,10219.0 3193.0,10195.0" fill="pink"/>
</svg>
