<?xml version="1.0" ?>
<svg xmlns="http://www.w3.org/2000/svg" xmlns:ev="http://www.w3.org/2001/xml-events" xmlns:xlink="http://www.w3.org/1999/xlink" baseProfile="full" height="600px" version="1.1" viewBox="-90.17700762820743 -1030.808603782823 10414.923234638067 12298.4458274813" width="509px">
	<defs/>
	<path d="M 3350.0,10225.0 C 3336.0,10217.0 3318.0,10211.0 3309.0,10210.0 C 3287.0,10210.0 3253.0,10170.0 3244.0,10135.0 C 3235.0,10095.0 3215.0,10074.0 3182.0,10067.0 C 3128.0,10056.0 3003.0,9990.0 2986.0,9965.0 C 2970.0,9940.0 2970.0,9936.0 2986.0,9887.0 C 2995.0,9858.0 3007.0,9827.0 3012.0,9817.0 C 3021.0,9799.0 3023.0,9799.0 3041.0,9816.0 C 3051.0,9825.0 3060.0,9845.0 3060.0,9859.0 C 3060.0,9873.0 3064.0,9892.0 3070.0,9900.0 C 3078.0,9912.0 3083.0,9912.0 3113.0,9898.0 C 3147.0,9882.0 3148.0,9879.0 3155.0,9811.0 C 3159.0,9772.0 3159.0,9718.0 3155.0,9691.0 C 3148.0,9637.0 3157.0,9627.0 3216.0,9632.0 C 3258.0,9634.0 3306.0,9606.0 3315.0,9573.0 L 3322.0,9545.0 L 3339.0,9568.0 C 3355.0,9590.0 3357.0,9590.0 3372.0,9573.0 C 3381.0,9563.0 3409.0,9515.0 3436.0,9466.0 C 3482.0,9380.0 3484.0,9373.0 3487.0,9284.0 C 3489.0,9233.0 3495.0,9179.0 3500.0,9165.0 C 3506.0,9150.0 3510.0,9129.0 3510.0,9117.0 C 3510.0,9101.0 3524.0,9087.0 3559.0,9068.0 C 3602.0,9045.0 3608.0,9036.0 3613.0,9003.0 C 3616.0,8982.0 3630.0,8932.0 3644.0,8891.0 C 3683.0,8781.0 3682.0,8780.0 3605.0,8780.0 C 3560.0,8780.0 3527.0,8774.0 3502.0,8761.0 C 3467.0,8743.0 3463.0,8736.0 3436.0,8643.0 C 3420.0,8589.0 3403.0,8526.0 3397.0,8503.0 C 3385.0,8452.0 3352.0,8440.0 3297.0,8466.0 C 3265.0,8481.0 3262.0,8486.0 3267.0,8516.0 C 3276.0,8571.0 3255.0,8607.0 3201.0,8626.0 C 3145.0,8647.0 3110.0,8677.0 3110.0,8704.0 C 3110.0,8716.0 3122.0,8750.0 3136.0,8780.0 C 3166.0,8844.0 3163.0,8910.0 3129.0,8910.0 C 3119.0,8910.0 3078.0,8944.0 3038.0,8986.0 L 2965.0,9062.0 L 2870.0,9058.0 C 2794.0,9055.0 2761.0,9049.0 2705.0,9026.0 C 2667.0,9010.0 2634.0,8996.0 2632.0,8995.0 C 2631.0,8994.0 2637.0,8974.0 2645.0,8950.0 C 2653.0,8927.0 2660.0,8906.0 2660.0,8905.0 C 2660.0,8897.0 2396.0,8754.0 2235.0,8675.0 C 2185.0,8650.0 2135.0,8612.0 2060.0,8542.0 L 1956.0,8443.0 L 2013.0,8378.0 C 2044.0,8342.0 2070.0,8310.0 2070.0,8306.0 C 2070.0,8303.0 2022.0,8264.0 1963.0,8220.0 L 1856.0,8141.0 L 1833.0,8043.0 C 1821.0,7989.0 1811.0,7932.0 1810.0,7917.0 C 1810.0,7902.0 1801.0,7871.0 1790.0,7849.0 L 1769.0,7810.0 L 1789.0,7567.0 C 1800.0,7434.0 1812.0,7287.0 1816.0,7240.0 L 1822.0,7155.0 L 1752.0,7133.0 C 1689.0,7112.0 1662.0,7110.0 1488.0,7110.0 L 1294.0,7110.0 L 1228.0,7055.0 C 1177.0,7011.0 1161.0,6992.0 1157.0,6965.0 C 1154.0,6946.0 1138.0,6914.0 1122.0,6893.0 C 1083.0,6842.0 1048.0,6710.0 1040.0,6585.0 C 1034.0,6487.0 1035.0,6483.0 1066.0,6420.0 C 1083.0,6384.0 1100.0,6337.0 1104.0,6315.0 C 1108.0,6293.0 1113.0,6263.0 1116.0,6248.0 C 1120.0,6227.0 1116.0,6219.0 1091.0,6204.0 C 1066.0,6189.0 1062.0,6182.0 1067.0,6159.0 C 1076.0,6114.0 1063.0,6080.0 1038.0,6080.0 C 1026.0,6080.0 1003.0,6068.0 988.0,6053.0 C 966.0,6032.0 960.0,6017.0 960.0,5982.0 C 960.0,5958.0 965.0,5930.0 970.0,5919.0 C 979.0,5904.0 976.0,5893.0 955.0,5866.0 C 931.0,5834.0 930.0,5830.0 942.0,5781.0 C 951.0,5741.0 951.0,5721.0 942.0,5698.0 C 932.0,5672.0 934.0,5660.0 950.0,5622.0 C 961.0,5598.0 970.0,5565.0 970.0,5550.0 C 970.0,5502.0 998.0,5451.0 1040.0,5425.0 C 1064.0,5410.0 1080.0,5392.0 1080.0,5381.0 C 1080.0,5361.0 1124.0,5320.0 1145.0,5320.0 C 1151.0,5320.0 1165.0,5310.0 1176.0,5299.0 C 1205.0,5267.0 1275.0,5240.0 1332.0,5240.0 C 1379.0,5240.0 1382.0,5239.0 1376.0,5218.0 C 1373.0,5205.0 1370.0,5178.0 1370.0,5158.0 C 1370.0,5129.0 1362.0,5111.0 1335.0,5081.0 C 1311.0,5054.0 1300.0,5033.0 1300.0,5011.0 C 1300.0,4977.0 1334.0,4900.0 1350.0,4900.0 C 1365.0,4900.0 1407.0,4837.0 1415.0,4803.0 C 1421.0,4772.0 1420.0,4770.0 1395.0,4770.0 C 1353.0,4770.0 1224.0,4694.0 1211.0,4662.0 C 1196.0,4627.0 1220.0,4564.0 1275.0,4493.0 C 1316.0,4440.0 1323.0,4385.0 1291.0,4375.0 C 1268.0,4368.0 1220.0,4379.0 1220.0,4391.0 C 1220.0,4409.0 1155.0,4440.0 1118.0,4440.0 C 1086.0,4440.0 1070.0,4429.0 985.0,4353.0 L 889.0,4265.0 L 894.0,4218.0 C 900.0,4159.0 879.0,4054.0 851.0,4003.0 C 839.0,3982.0 819.0,3930.0 806.0,3888.0 L 782.0,3811.0 L 855.0,3763.0 C 916.0,3723.0 938.0,3700.0 991.0,3621.0 C 1062.0,3518.0 1158.0,3432.0 1179.0,3453.0 C 1197.0,3471.0 1192.0,3486.0 1157.0,3512.0 C 1139.0,3526.0 1118.0,3549.0 1110.0,3564.0 C 1098.0,3588.0 1098.0,3595.0 1115.0,3626.0 C 1130.0,3653.0 1137.0,3659.0 1154.0,3654.0 C 1166.0,3650.0 1181.0,3639.0 1188.0,3629.0 C 1204.0,3605.0 1281.0,3594.0 1320.0,3610.0 C 1347.0,3621.0 1353.0,3619.0 1413.0,3576.0 C 1449.0,3551.0 1487.0,3530.0 1498.0,3530.0 C 1510.0,3530.0 1522.0,3525.0 1525.0,3520.0 C 1532.0,3509.0 1574.0,3513.0 1646.0,3531.0 C 1673.0,3538.0 1696.0,3553.0 1709.0,3571.0 C 1721.0,3587.0 1739.0,3600.0 1750.0,3600.0 C 1760.0,3600.0 1772.0,3605.0 1775.0,3610.0 C 1779.0,3616.0 1799.0,3632.0 1821.0,3646.0 C 1850.0,3664.0 1860.0,3677.0 1860.0,3696.0 C 1860.0,3709.0 1869.0,3738.0 1880.0,3759.0 L 1899.0,3797.0 L 1874.0,3809.0 C 1860.0,3815.0 1838.0,3820.0 1825.0,3820.0 C 1803.0,3820.0 1770.0,3843.0 1770.0,3859.0 C 1770.0,3875.0 1838.0,3930.0 1858.0,3930.0 C 1872.0,3930.0 1885.0,3939.0 1892.0,3955.0 C 1898.0,3969.0 1911.0,3980.0 1922.0,3980.0 C 1938.0,3980.0 1940.0,3972.0 1940.0,3917.0 C 1940.0,3837.0 1955.0,3816.0 2021.0,3800.0 C 2064.0,3790.0 2077.0,3790.0 2108.0,3803.0 C 2128.0,3812.0 2169.0,3821.0 2198.0,3825.0 C 2255.0,3831.0 2271.0,3819.0 2251.0,3783.0 C 2244.0,3770.0 2244.0,3740.0 2251.0,3690.0 C 2259.0,3637.0 2258.0,3610.0 2250.0,3589.0 C 2240.0,3566.0 2241.0,3552.0 2254.0,3514.0 C 2272.0,3461.0 2274.0,3440.0 2261.0,3440.0 C 2257.0,3440.0 2242.0,3477.0 2230.0,3521.0 C 2193.0,3651.0 2120.0,3726.0 2015.0,3745.0 C 1993.0,3749.0 1967.0,3760.0 1957.0,3769.0 C 1940.0,3784.0 1937.0,3783.0 1924.0,3765.0 C 1916.0,3755.0 1910.0,3738.0 1910.0,3728.0 C 1910.0,3718.0 1903.0,3699.0 1895.0,3687.0 C 1883.0,3667.0 1882.0,3658.0 1895.0,3618.0 C 1902.0,3593.0 1906.0,3570.0 1903.0,3567.0 C 1901.0,3564.0 1926.0,3519.0 1959.0,3466.0 C 2019.0,3372.0 2029.0,3350.0 2010.0,3350.0 C 2005.0,3350.0 1998.0,3334.0 1994.0,3315.0 C 1991.0,3296.0 1986.0,3280.0 1984.0,3280.0 C 1981.0,3280.0 1962.0,3291.0 1940.0,3305.0 C 1918.0,3319.0 1889.0,3330.0 1875.0,3330.0 C 1840.0,3330.0 1734.0,3372.0 1675.0,3409.0 C 1620.0,3444.0 1572.0,3460.0 1522.0,3460.0 C 1504.0,3460.0 1476.0,3470.0 1460.0,3482.0 C 1432.0,3502.0 1427.0,3503.0 1375.0,3490.0 C 1314.0,3475.0 1303.0,3467.0 1290.0,3422.0 C 1283.0,3395.0 1284.0,3391.0 1303.0,3388.0 C 1316.0,3386.0 1326.0,3375.0 1330.0,3360.0 C 1333.0,3345.0 1349.0,3328.0 1370.0,3318.0 C 1404.0,3301.0 1418.0,3271.0 1398.0,3259.0 C 1391.0,3255.0 1401.0,3240.0 1424.0,3220.0 C 1444.0,3202.0 1460.0,3184.0 1460.0,3179.0 C 1460.0,3148.0 1546.0,3097.0 1619.0,3085.0 C 1656.0,3079.0 1660.0,3080.0 1660.0,3099.0 C 1660.0,3129.0 1697.0,3126.0 1712.0,3095.0 C 1726.0,3063.0 1731.0,3063.0 1759.0,3101.0 C 1779.0,3128.0 1781.0,3136.0 1771.0,3158.0 C 1764.0,3172.0 1763.0,3186.0 1767.0,3191.0 C 1771.0,3195.0 1803.0,3200.0 1837.0,3202.0 L 1898.0,3205.0 L 1911.0,3167.0 C 1918.0,3146.0 1933.0,3121.0 1945.0,3111.0 C 1985.0,3081.0 1990.0,3019.0 1952.0,3039.0 C 1924.0,3053.0 1914.0,3042.0 1918.0,3000.0 C 1922.0,2965.0 1925.0,2961.0 1953.0,2958.0 C 1979.0,2956.0 1987.0,2949.0 1996.0,2922.0 C 2001.0,2905.0 2011.0,2885.0 2018.0,2878.0 C 2027.0,2869.0 2025.0,2864.0 2013.0,2855.0 C 1999.0,2844.0 1999.0,2840.0 2014.0,2808.0 C 2023.0,2789.0 2044.0,2760.0 2060.0,2745.0 C 2077.0,2729.0 2090.0,2710.0 2090.0,2703.0 C 2090.0,2696.0 2099.0,2690.0 2109.0,2690.0 C 2120.0,2690.0 2141.0,2673.0 2157.0,2653.0 C 2172.0,2632.0 2199.0,2601.0 2215.0,2585.0 C 2232.0,2568.0 2257.0,2539.0 2272.0,2521.0 C 2308.0,2478.0 2334.0,2482.0 2338.0,2533.0 C 2342.0,2576.0 2351.0,2580.0 2374.0,2545.0 C 2395.0,2514.0 2408.0,2513.0 2420.0,2544.0 C 2433.0,2579.0 2447.0,2584.0 2477.0,2565.0 C 2498.0,2551.0 2516.0,2549.0 2572.0,2555.0 C 2611.0,2558.0 2646.0,2557.0 2653.0,2552.0 C 2660.0,2547.0 2685.0,2540.0 2709.0,2537.0 C 2737.0,2534.0 2762.0,2523.0 2778.0,2507.0 C 2805.0,2480.0 2830.0,2391.0 2830.0,2322.0 C 2830.0,2293.0 2837.0,2269.0 2850.0,2253.0 C 2861.0,2239.0 2870.0,2218.0 2870.0,2208.0 C 2870.0,2182.0 2954.0,2103.0 3007.0,2080.0 C 3030.0,2070.0 3056.0,2050.0 3066.0,2036.0 C 3075.0,2022.0 3090.0,2010.0 3100.0,2010.0 C 3126.0,2010.0 3145.0,1982.0 3141.0,1948.0 C 3139.0,1923.0 3147.0,1910.0 3192.0,1868.0 C 3221.0,1841.0 3258.0,1812.0 3273.0,1804.0 C 3298.0,1790.0 3304.0,1790.0 3325.0,1804.0 C 3347.0,1818.0 3348.0,1818.0 3354.0,1788.0 C 3357.0,1771.0 3360.0,1748.0 3360.0,1736.0 C 3360.0,1724.0 3366.0,1705.0 3374.0,1695.0 C 3386.0,1678.0 3391.0,1677.0 3415.0,1688.0 C 3434.0,1697.0 3445.0,1698.0 3449.0,1691.0 C 3457.0,1679.0 3512.0,1676.0 3560.0,1685.0 C 3590.0,1690.0 3597.0,1688.0 3609.0,1668.0 C 3617.0,1655.0 3626.0,1632.0 3630.0,1615.0 C 3634.0,1595.0 3648.0,1577.0 3673.0,1561.0 C 3723.0,1528.0 3755.0,1462.0 3739.0,1426.0 C 3730.0,1407.0 3719.0,1400.0 3698.0,1400.0 C 3683.0,1400.0 3670.0,1395.0 3670.0,1390.0 C 3670.0,1371.0 3815.0,1233.0 3857.0,1212.0 C 3912.0,1183.0 3970.0,1112.0 3970.0,1072.0 C 3970.0,1055.0 3976.0,1037.0 3983.0,1033.0 C 4004.0,1020.0 4009.0,996.0 3994.0,975.0 C 3984.0,961.0 3983.0,953.0 3992.0,943.0 C 4001.0,932.0 4001.0,920.0 3991.0,894.0 C 3983.0,872.0 3981.0,841.0 3985.0,810.0 C 3990.0,770.0 3989.0,760.0 3974.0,752.0 C 3945.0,736.0 3963.0,679.0 4010.0,641.0 C 4057.0,604.0 4059.0,593.0 4024.0,584.0 L 3998.0,577.0 L 4047.0,528.0 C 4073.0,501.0 4124.0,462.0 4160.0,442.0 C 4196.0,422.0 4261.0,382.0 4305.0,353.0 C 4352.0,322.0 4387.0,305.0 4391.0,311.0 C 4395.0,318.0 4451.0,304.0 4550.0,273.0 L 4702.0,225.0 L 4817.0,113.0 C 4953.0,-21.0 4980.0,-31.0 4980.0,49.0 C 4980.0,76.0 4987.0,116.0 4995.0,140.0 C 5008.0,178.0 5008.0,184.0 4992.0,205.0 C 4983.0,218.0 4958.0,237.0 4936.0,247.0 C 4836.0,292.0 4824.0,329.0 4901.0,356.0 C 4929.0,367.0 4955.0,381.0 4958.0,388.0 C 4966.0,409.0 4938.0,451.0 4898.0,477.0 C 4853.0,508.0 4847.0,522.0 4861.0,570.0 C 4872.0,605.0 4877.0,609.0 4914.0,615.0 C 5001.0,629.0 5030.0,640.0 5030.0,660.0 C 5030.0,671.0 5021.0,688.0 5009.0,699.0 C 4990.0,717.0 4989.0,722.0 5000.0,755.0 C 5013.0,793.0 5011.0,832.0 4990.0,955.0 C 4972.0,1060.0 4992.0,1249.0 5028.0,1315.0 C 5040.0,1337.0 5050.0,1357.0 5050.0,1360.0 C 5050.0,1384.0 4899.0,1435.0 4882.0,1418.0 C 4872.0,1408.0 4847.0,1424.0 4746.0,1510.0 C 4693.0,1555.0 4666.0,1570.0 4637.0,1570.0 C 4620.0,1570.0 4609.0,1580.0 4597.0,1605.0 C 4585.0,1630.0 4574.0,1640.0 4558.0,1640.0 C 4545.0,1640.0 4530.0,1648.0 4523.0,1659.0 C 4517.0,1669.0 4498.0,1680.0 4482.0,1683.0 C 4464.0,1687.0 4449.0,1697.0 4445.0,1709.0 C 4442.0,1720.0 4423.0,1744.0 4404.0,1762.0 C 4384.0,1780.0 4362.0,1807.0 4354.0,1822.0 C 4346.0,1838.0 4333.0,1850.0 4326.0,1850.0 C 4309.0,1850.0 4287.0,1883.0 4270.0,1935.0 C 4263.0,1957.0 4252.0,1978.0 4245.0,1982.0 C 4238.0,1987.0 4227.0,2012.0 4220.0,2039.0 C 4214.0,2066.0 4200.0,2096.0 4190.0,2105.0 C 4172.0,2121.0 4172.0,2122.0 4193.0,2143.0 L 4214.0,2164.0 L 4184.0,2173.0 C 4168.0,2179.0 4143.0,2191.0 4128.0,2201.0 C 4114.0,2212.0 4093.0,2220.0 4083.0,2220.0 C 4072.0,2220.0 4055.0,2229.0 4045.0,2240.0 C 4025.0,2262.0 3980.0,2266.0 3948.0,2249.0 C 3920.0,2234.0 3840.0,2246.0 3840.0,2266.0 C 3840.0,2274.0 3847.0,2283.0 3855.0,2286.0 C 3877.0,2295.0 3873.0,2315.0 3846.0,2329.0 C 3832.0,2337.0 3818.0,2358.0 3810.0,2382.0 C 3800.0,2417.0 3801.0,2429.0 3816.0,2462.0 C 3832.0,2497.0 3832.0,2501.0 3817.0,2518.0 C 3807.0,2528.0 3800.0,2548.0 3800.0,2561.0 C 3800.0,2578.0 3780.0,2606.0 3735.0,2650.0 C 3680.0,2704.0 3673.0,2716.0 3688.0,2721.0 C 3721.0,2733.0 3760.0,2719.0 3776.0,2688.0 C 3784.0,2672.0 3800.0,2656.0 3811.0,2651.0 C 3823.0,2647.0 3851.0,2613.0 3874.0,2574.0 C 3902.0,2527.0 3922.0,2504.0 3937.0,2502.0 C 3956.0,2499.0 3958.0,2494.0 3953.0,2469.0 C 3943.0,2420.0 3982.0,2431.0 4024.0,2490.0 C 4059.0,2539.0 4087.0,2549.0 4077.0,2509.0 C 4074.0,2497.0 4077.0,2490.0 4086.0,2490.0 C 4094.0,2490.0 4110.0,2469.0 4121.0,2443.0 L 4142.0,2395.0 L 4161.0,2433.0 C 4178.0,2465.0 4185.0,2470.0 4217.0,2470.0 C 4237.0,2470.0 4262.0,2478.0 4272.0,2487.0 C 4289.0,2502.0 4293.0,2502.0 4326.0,2487.0 C 4345.0,2477.0 4371.0,2472.0 4384.0,2476.0 C 4397.0,2479.0 4411.0,2477.0 4414.0,2471.0 C 4418.0,2465.0 4440.0,2460.0 4463.0,2460.0 C 4493.0,2460.0 4520.0,2450.0 4559.0,2425.0 C 4609.0,2393.0 4617.0,2391.0 4670.0,2397.0 C 4728.0,2403.0 4772.0,2389.0 4799.0,2356.0 C 4816.0,2335.0 4830.0,2336.0 4830.0,2356.0 C 4830.0,2365.0 4846.0,2395.0 4865.0,2421.0 C 4905.0,2478.0 4905.0,2476.0 4884.0,2484.0 C 4875.0,2488.0 4854.0,2478.0 4832.0,2460.0 L 4795.0,2430.0 L 4789.0,2462.0 C 4786.0,2480.0 4780.0,2507.0 4776.0,2521.0 C 4771.0,2540.0 4774.0,2552.0 4786.0,2565.0 C 4803.0,2581.0 4804.0,2581.0 4817.0,2564.0 C 4824.0,2554.0 4828.0,2540.0 4826.0,2534.0 C 4823.0,2527.0 4838.0,2515.0 4861.0,2506.0 C 4897.0,2492.0 4903.0,2492.0 4935.0,2507.0 C 4958.0,2518.0 4970.0,2531.0 4970.0,2544.0 C 4971.0,2556.0 4977.0,2576.0 4985.0,2590.0 C 4993.0,2604.0 4999.0,2632.0 5000.0,2653.0 C 5000.0,2687.0 5002.0,2690.0 5028.0,2690.0 C 5053.0,2690.0 5060.0,2698.0 5084.0,2749.0 C 5107.0,2796.0 5120.0,2811.0 5151.0,2824.0 C 5194.0,2843.0 5196.0,2851.0 5178.0,2929.0 C 5168.0,2973.0 5169.0,2982.0 5184.0,2999.0 C 5193.0,3009.0 5206.0,3035.0 5211.0,3056.0 C 5225.0,3106.0 5294.0,3178.0 5336.0,3186.0 C 5403.0,3198.0 5471.0,3290.0 5525.0,3442.0 C 5538.0,3479.0 5551.0,3495.0 5591.0,3520.0 C 5627.0,3544.0 5640.0,3558.0 5640.0,3576.0 C 5640.0,3590.0 5650.0,3606.0 5664.0,3615.0 C 5681.0,3626.0 5691.0,3645.0 5695.0,3673.0 C 5700.0,3702.0 5721.0,3740.0 5761.0,3794.0 C 5813.0,3865.0 5820.0,3879.0 5820.0,3921.0 L 5820.0,3968.0 L 5905.0,4016.0 C 5951.0,4042.0 6003.0,4077.0 6019.0,4094.0 C 6052.0,4128.0 6055.0,4146.0 6044.0,4261.0 C 6036.0,4345.0 6048.0,4370.0 6161.0,4510.0 C 6207.0,4568.0 6252.0,4625.0 6261.0,4637.0 C 6271.0,4651.0 6289.0,4660.0 6315.0,4662.0 C 6350.0,4665.0 6356.0,4670.0 6379.0,4714.0 C 6396.0,4745.0 6426.0,4780.0 6463.0,4808.0 C 6514.0,4848.0 6523.0,4852.0 6545.0,4842.0 C 6558.0,4836.0 6577.0,4816.0 6586.0,4798.0 C 6595.0,4780.0 6618.0,4749.0 6637.0,4729.0 C 6671.0,4693.0 6671.0,4692.0 6659.0,4652.0 C 6647.0,4612.0 6648.0,4610.0 6704.0,4518.0 C 6735.0,4466.0 6760.0,4418.0 6760.0,4409.0 C 6760.0,4399.0 6743.0,4389.0 6710.0,4381.0 C 6671.0,4371.0 6659.0,4363.0 6654.0,4344.0 C 6650.0,4331.0 6653.0,4313.0 6660.0,4305.0 C 6669.0,4294.0 6669.0,4283.0 6661.0,4259.0 C 6640.0,4200.0 6648.0,4110.0 6680.0,4020.0 C 6720.0,3912.0 6724.0,3904.0 6761.0,3883.0 C 6778.0,3873.0 6805.0,3843.0 6821.0,3817.0 C 6846.0,3776.0 6862.0,3764.0 6926.0,3734.0 C 6967.0,3715.0 7006.0,3700.0 7013.0,3700.0 C 7020.0,3700.0 7044.0,3723.0 7068.0,3750.0 C 7108.0,3796.0 7115.0,3800.0 7155.0,3800.0 C 7193.0,3800.0 7202.0,3804.0 7217.0,3828.0 C 7226.0,3843.0 7235.0,3857.0 7237.0,3859.0 C 7238.0,3861.0 7257.0,3851.0 7279.0,3837.0 C 7316.0,3812.0 7319.0,3812.0 7334.0,3829.0 C 7343.0,3839.0 7350.0,3855.0 7350.0,3866.0 C 7350.0,3907.0 7362.0,3930.0 7383.0,3930.0 C 7395.0,3930.0 7419.0,3944.0 7437.0,3962.0 C 7468.0,3992.0 7471.0,3993.0 7507.0,3982.0 C 7528.0,3976.0 7596.0,3966.0 7657.0,3960.0 C 7811.0,3946.0 7806.0,3942.0 7826.0,4092.0 L 7832.0,4139.0 L 7918.0,4167.0 C 7991.0,4191.0 8005.0,4199.0 8014.0,4223.0 C 8023.0,4247.0 8029.0,4251.0 8052.0,4246.0 C 8093.0,4238.0 8116.0,4278.0 8135.0,4391.0 C 8163.0,4552.0 8180.0,4623.0 8210.0,4695.0 C 8227.0,4736.0 8241.0,4787.0 8242.0,4819.0 L 8245.0,4872.0 L 8195.0,4901.0 C 8155.0,4923.0 8123.0,4932.0 8045.0,4940.0 C 7920.0,4954.0 7892.0,4963.0 7806.0,5013.0 C 7718.0,5065.0 7676.0,5120.0 7685.0,5170.0 C 7697.0,5239.0 7741.0,5306.0 7841.0,5408.0 C 7955.0,5523.0 7971.0,5530.0 8133.0,5530.0 L 8224.0,5530.0 L 8305.0,5476.0 L 8385.0,5421.0 L 8576.0,5415.0 L 8767.0,5408.0 L 8779.0,5440.0 C 8794.0,5485.0 8793.0,5524.0 8775.0,5567.0 C 8755.0,5615.0 8756.0,5673.0 8779.0,5718.0 C 8797.0,5753.0 8805.0,5758.0 8891.0,5785.0 C 8946.0,5803.0 9002.0,5828.0 9028.0,5848.0 L 9071.0,5880.0 L 9144.0,5861.0 L 9218.0,5843.0 L 9246.0,5865.0 C 9266.0,5880.0 9302.0,5891.0 9360.0,5900.0 C 9407.0,5907.0 9448.0,5914.0 9451.0,5916.0 C 9455.0,5918.0 9451.0,5947.0 9443.0,5980.0 C 9429.0,6032.0 9425.0,6040.0 9404.0,6040.0 C 9371.0,6040.0 9340.0,6092.0 9340.0,6150.0 C 9339.0,6208.0 9330.0,6222.0 9240.0,6307.0 C 9199.0,6346.0 9145.0,6405.0 9120.0,6439.0 C 9079.0,6494.0 9068.0,6502.0 8998.0,6529.0 C 8956.0,6546.0 8902.0,6564.0 8878.0,6570.0 C 8854.0,6577.0 8750.0,6617.0 8645.0,6660.0 C 8458.0,6737.0 8454.0,6738.0 8395.0,6730.0 C 8361.0,6726.0 8321.0,6716.0 8305.0,6708.0 C 8278.0,6694.0 8269.0,6694.0 8213.0,6710.0 C 8142.0,6729.0 8089.0,6766.0 8056.0,6818.0 C 8034.0,6853.0 8033.0,6860.0 8041.0,6940.0 C 8046.0,6987.0 8052.0,7030.0 8054.0,7036.0 C 8057.0,7045.0 8031.0,7100.0 8015.0,7118.0 C 8013.0,7120.0 7980.0,7130.0 7940.0,7140.0 C 7849.0,7163.0 7767.0,7222.0 7749.0,7277.0 C 7743.0,7298.0 7716.0,7338.0 7690.0,7366.0 C 7655.0,7405.0 7636.0,7440.0 7612.0,7507.0 C 7574.0,7612.0 7541.0,7650.0 7489.0,7650.0 C 7459.0,7649.0 7449.0,7642.0 7403.0,7581.0 C 7355.0,7518.0 7348.0,7513.0 7298.0,7502.0 C 7174.0,7476.0 7187.0,7474.0 7161.0,7527.0 C 7104.0,7647.0 7057.0,7686.0 6870.0,7770.0 C 6646.0,7871.0 6426.0,7940.0 6325.0,7940.0 C 6301.0,7940.0 6271.0,7944.0 6258.0,7949.0 C 6229.0,7960.0 6160.0,8048.0 6092.0,8160.0 C 6039.0,8247.0 5995.0,8292.0 5925.0,8328.0 C 5892.0,8344.0 5882.0,8357.0 5869.0,8397.0 C 5860.0,8423.0 5809.0,8508.0 5755.0,8585.0 C 5702.0,8662.0 5645.0,8750.0 5630.0,8780.0 C 5609.0,8821.0 5588.0,8845.0 5547.0,8873.0 C 5516.0,8894.0 5479.0,8928.0 5463.0,8948.0 C 5448.0,8969.0 5393.0,9029.0 5341.0,9083.0 C 5273.0,9153.0 5240.0,9180.0 5223.0,9180.0 C 5190.0,9180.0 5066.0,9253.0 5010.0,9305.0 C 4949.0,9362.0 4882.0,9406.0 4637.0,9549.0 C 4482.0,9639.0 4415.0,9684.0 4379.0,9723.0 L 4329.0,9775.0 L 4333.0,9883.0 C 4336.0,9983.0 4338.0,9992.0 4363.0,10018.0 C 4390.0,10046.0 4398.0,10074.0 4381.0,10084.0 C 4358.0,10098.0 4225.0,10122.0 4126.0,10130.0 L 4016.0,10138.0 L 3973.0,10109.0 C 3913.0,10067.0 3868.0,10050.0 3820.0,10050.0 C 3798.0,10050.0 3769.0,10044.0 3757.0,10036.0 C 3745.0,10028.0 3715.0,10019.0 3690.0,10015.0 C 3653.0,10010.0 3641.0,10002.0 3622.0,9974.0 C 3609.0,9954.0 3592.0,9940.0 3580.0,9940.0 C 3562.0,9940.0 3560.0,9947.0 3560.0,9998.0 C 3560.0,10048.0 3555.0,10061.0 3525.0,10100.0 C 3505.0,10125.0 3480.0,10160.0 3469.0,10178.0 C 3457.0,10195.0 3440.0,10210.0 3430.0,10210.0 C 3420.0,10210.0 3407.0,10217.0 3400.0,10225.0 C 3385.0,10243.0 3382.0,10243.0 3350.0,10225.0" fill="pink"/>
</svg>
