<?xml version="1.0" ?>
<svg xmlns="http://www.w3.org/2000/svg" xmlns:ev="http://www.w3.org/2001/xml-events" xmlns:xlink="http://www.w3.org/1999/xlink" baseProfile="full" height="600px" version="1.1" viewBox="1978.1066526638822 -1027.3228920103777 6286.11301670483 12296.278776287563" width="307px">
	<defs/>
	<path d="M 6813.0,10212.0 C 6804.0,10197.0 6782.0,10173.0 6764.0,10160.0 C 6726.0,10132.0 6722.0,10120.0 6749.0,10120.0 C 6778.0,10120.0 6796.0,10092.0 6782.0,10069.0 C 6775.0,10059.0 6770.0,10041.0 6770.0,10030.0 C 6770.0,10017.0 6763.0,10010.0 6750.0,10010.0 C 6739.0,10010.0 6727.0,10003.0 6724.0,9995.0 C 6720.0,9987.0 6708.0,9980.0 6696.0,9980.0 C 6668.0,9980.0 6634.0,9943.0 6632.0,9912.0 C 6632.0,9899.0 6624.0,9877.0 6615.0,9863.0 L 6598.0,9838.0 L 6571.0,9864.0 C 6538.0,9896.0 6489.0,9907.0 6472.0,9887.0 C 6462.0,9875.0 6463.0,9871.0 6475.0,9866.0 C 6483.0,9863.0 6490.0,9856.0 6490.0,9849.0 C 6490.0,9831.0 6542.0,9775.0 6556.0,9778.0 C 6565.0,9780.0 6567.0,9770.0 6563.0,9742.0 C 6560.0,9718.0 6562.0,9700.0 6569.0,9696.0 C 6575.0,9692.0 6580.0,9677.0 6580.0,9662.0 C 6580.0,9647.0 6587.0,9625.0 6595.0,9613.0 C 6616.0,9583.0 6606.0,9522.0 6563.0,9432.0 C 6537.0,9378.0 6528.0,9345.0 6527.0,9302.0 C 6527.0,9270.0 6520.0,9239.0 6513.0,9232.0 C 6506.0,9225.0 6500.0,9209.0 6500.0,9196.0 C 6500.0,9160.0 6479.0,9142.0 6416.0,9126.0 C 6339.0,9106.0 6319.0,9116.0 6298.0,9183.0 L 6282.0,9235.0 L 6281.0,9187.0 C 6281.0,9161.0 6287.0,9123.0 6295.0,9103.0 C 6315.0,9057.0 6314.0,9047.0 6293.0,9058.0 C 6283.0,9064.0 6269.0,9064.0 6258.0,9059.0 C 6248.0,9054.0 6231.0,9045.0 6220.0,9040.0 C 6206.0,9033.0 6200.0,9033.0 6200.0,9041.0 C 6200.0,9047.0 6195.0,9050.0 6189.0,9048.0 C 6182.0,9046.0 6176.0,9009.0 6173.0,8960.0 C 6170.0,8884.0 6166.0,8872.0 6143.0,8852.0 C 6120.0,8831.0 6116.0,8830.0 6101.0,8844.0 C 6091.0,8853.0 6076.0,8886.0 6066.0,8917.0 C 6056.0,8949.0 6036.0,8987.0 6021.0,9001.0 C 6007.0,9015.0 5990.0,9035.0 5983.0,9046.0 C 5971.0,9064.0 5970.0,9064.0 5957.0,9048.0 C 5940.0,9026.0 5930.0,9025.0 5930.0,9045.0 C 5930.0,9053.0 5926.0,9060.0 5920.0,9060.0 C 5915.0,9060.0 5910.0,9053.0 5910.0,9045.0 C 5910.0,9036.0 5898.0,9018.0 5884.0,9005.0 C 5863.0,8985.0 5859.0,8974.0 5863.0,8948.0 C 5865.0,8929.0 5861.0,8903.0 5853.0,8887.0 C 5841.0,8862.0 5841.0,8852.0 5854.0,8806.0 C 5870.0,8753.0 5883.0,8740.0 5921.0,8740.0 C 5947.0,8740.0 5945.0,8724.0 5916.0,8704.0 C 5886.0,8685.0 5891.0,8666.0 5930.0,8650.0 C 5965.0,8635.0 5973.0,8607.0 5954.0,8561.0 C 5946.0,8542.0 5942.0,8520.0 5945.0,8512.0 C 5948.0,8505.0 5943.0,8489.0 5935.0,8477.0 C 5920.0,8456.0 5920.0,8457.0 5920.0,8490.0 C 5921.0,8509.0 5927.0,8536.0 5935.0,8550.0 C 5956.0,8587.0 5953.0,8597.0 5918.0,8609.0 C 5880.0,8623.0 5871.0,8616.0 5894.0,8591.0 C 5906.0,8578.0 5909.0,8564.0 5904.0,8545.0 C 5898.0,8520.0 5894.0,8519.0 5856.0,8522.0 C 5834.0,8525.0 5809.0,8528.0 5801.0,8531.0 C 5792.0,8533.0 5783.0,8523.0 5776.0,8500.0 C 5770.0,8481.0 5754.0,8449.0 5742.0,8430.0 C 5726.0,8405.0 5722.0,8388.0 5727.0,8370.0 C 5730.0,8356.0 5734.0,8332.0 5735.0,8315.0 C 5739.0,8256.0 5738.0,8257.0 5771.0,8264.0 C 5790.0,8267.0 5809.0,8265.0 5817.0,8259.0 C 5827.0,8250.0 5837.0,8250.0 5856.0,8260.0 C 5879.0,8273.0 5883.0,8271.0 5909.0,8244.0 C 5939.0,8214.0 5958.0,8170.0 5942.0,8170.0 C 5937.0,8170.0 5928.0,8181.0 5922.0,8195.0 C 5908.0,8225.0 5890.0,8228.0 5890.0,8200.0 C 5890.0,8189.0 5886.0,8180.0 5880.0,8180.0 C 5875.0,8180.0 5870.0,8186.0 5870.0,8193.0 C 5870.0,8203.0 5802.0,8250.0 5787.0,8250.0 C 5779.0,8250.0 5703.0,8145.0 5675.0,8095.0 C 5660.0,8068.0 5641.0,8036.0 5634.0,8025.0 C 5626.0,8014.0 5620.0,7993.0 5620.0,7978.0 C 5620.0,7960.0 5614.0,7949.0 5600.0,7945.0 C 5589.0,7942.0 5580.0,7930.0 5580.0,7920.0 C 5580.0,7909.0 5567.0,7894.0 5550.0,7885.0 L 5520.0,7869.0 L 5520.0,7922.0 C 5520.0,7962.0 5527.0,7987.0 5548.0,8023.0 C 5573.0,8064.0 5576.0,8077.0 5570.0,8120.0 C 5560.0,8195.0 5549.0,8200.0 5498.0,8155.0 C 5420.0,8085.0 5400.0,8030.0 5457.0,8045.0 C 5475.0,8049.0 5481.0,8047.0 5478.0,8038.0 C 5475.0,8031.0 5458.0,8021.0 5439.0,8016.0 C 5411.0,8009.0 5401.0,7999.0 5385.0,7962.0 C 5373.0,7936.0 5345.0,7900.0 5316.0,7876.0 C 5290.0,7854.0 5264.0,7825.0 5259.0,7812.0 C 5249.0,7787.0 5266.0,7740.0 5286.0,7740.0 C 5293.0,7740.0 5308.0,7719.0 5320.0,7694.0 C 5332.0,7669.0 5351.0,7643.0 5361.0,7637.0 C 5389.0,7620.0 5384.0,7610.0 5347.0,7610.0 C 5329.0,7610.0 5297.0,7601.0 5275.0,7590.0 C 5253.0,7579.0 5228.0,7570.0 5218.0,7570.0 C 5207.0,7570.0 5200.0,7563.0 5200.0,7550.0 C 5200.0,7539.0 5196.0,7530.0 5191.0,7530.0 C 5177.0,7530.0 5197.0,7601.0 5219.0,7629.0 C 5231.0,7643.0 5246.0,7667.0 5254.0,7681.0 C 5269.0,7706.0 5268.0,7708.0 5235.0,7726.0 C 5211.0,7739.0 5200.0,7752.0 5200.0,7767.0 C 5200.0,7798.0 5185.0,7803.0 5151.0,7785.0 C 5116.0,7768.0 5015.0,7686.0 4950.0,7624.0 C 4925.0,7600.0 4884.0,7572.0 4859.0,7562.0 C 4793.0,7533.0 4750.0,7478.0 4750.0,7420.0 C 4750.0,7395.0 4743.0,7364.0 4734.0,7352.0 C 4716.0,7326.0 4723.0,7310.0 4751.0,7310.0 C 4763.0,7310.0 4780.0,7300.0 4791.0,7288.0 C 4811.0,7263.0 4817.0,7239.0 4798.0,7258.0 C 4780.0,7276.0 4760.0,7273.0 4760.0,7252.0 C 4760.0,7228.0 4723.0,7226.0 4715.0,7250.0 C 4712.0,7260.0 4698.0,7284.0 4685.0,7303.0 C 4668.0,7329.0 4665.0,7340.0 4674.0,7343.0 C 4682.0,7346.0 4685.0,7360.0 4682.0,7378.0 C 4679.0,7404.0 4673.0,7409.0 4640.0,7415.0 C 4599.0,7422.0 4571.0,7412.0 4533.0,7377.0 C 4507.0,7354.0 4501.0,7317.0 4525.0,7326.0 C 4534.0,7330.0 4540.0,7326.0 4540.0,7318.0 C 4540.0,7292.0 4483.0,7308.0 4476.0,7335.0 C 4468.0,7366.0 4438.0,7375.0 4402.0,7356.0 C 4373.0,7341.0 4295.0,7344.0 4284.0,7361.0 C 4276.0,7375.0 4260.0,7372.0 4260.0,7357.0 C 4260.0,7349.0 4251.0,7335.0 4241.0,7326.0 C 4227.0,7313.0 4223.0,7300.0 4227.0,7271.0 C 4230.0,7248.0 4228.0,7230.0 4221.0,7226.0 C 4215.0,7222.0 4213.0,7208.0 4216.0,7194.0 C 4221.0,7176.0 4218.0,7170.0 4206.0,7170.0 C 4195.0,7170.0 4190.0,7179.0 4190.0,7201.0 L 4190.0,7232.0 L 4143.0,7226.0 C 4051.0,7213.0 4040.0,7209.0 4040.0,7189.0 C 4040.0,7179.0 4045.0,7170.0 4050.0,7170.0 C 4073.0,7170.0 4057.0,7151.0 4020.0,7132.0 C 3977.0,7111.0 3966.0,7113.0 3980.0,7140.0 C 3992.0,7163.0 3981.0,7230.0 3963.0,7237.0 C 3936.0,7248.0 3870.0,7208.0 3836.0,7159.0 C 3817.0,7133.0 3788.0,7104.0 3771.0,7094.0 C 3754.0,7084.0 3740.0,7072.0 3740.0,7068.0 C 3740.0,7064.0 3732.0,7060.0 3723.0,7060.0 C 3714.0,7060.0 3698.0,7053.0 3688.0,7044.0 C 3676.0,7032.0 3667.0,7030.0 3658.0,7037.0 C 3651.0,7043.0 3600.0,7050.0 3545.0,7054.0 C 3490.0,7057.0 3432.0,7061.0 3416.0,7063.0 C 3389.0,7065.0 3386.0,7062.0 3369.0,7001.0 L 3351.0,6937.0 L 3380.0,6903.0 C 3416.0,6863.0 3417.0,6850.0 3389.0,6800.0 C 3371.0,6768.0 3369.0,6756.0 3377.0,6718.0 C 3387.0,6674.0 3386.0,6672.0 3354.0,6646.0 C 3335.0,6631.0 3320.0,6611.0 3320.0,6600.0 C 3320.0,6590.0 3315.0,6578.0 3310.0,6575.0 C 3304.0,6571.0 3293.0,6552.0 3285.0,6533.0 C 3276.0,6513.0 3260.0,6487.0 3249.0,6476.0 C 3217.0,6444.0 3160.0,6350.0 3160.0,6329.0 C 3160.0,6319.0 3151.0,6306.0 3140.0,6300.0 C 3129.0,6294.0 3120.0,6285.0 3120.0,6279.0 C 3120.0,6273.0 3102.0,6239.0 3080.0,6202.0 C 3057.0,6165.0 3032.0,6111.0 3024.0,6081.0 C 3009.0,6032.0 3009.0,6025.0 3026.0,5989.0 C 3035.0,5967.0 3054.0,5935.0 3067.0,5918.0 C 3094.0,5880.0 3096.0,5855.0 3073.0,5783.0 C 3057.0,5731.0 3057.0,5727.0 3080.0,5632.0 C 3094.0,5577.0 3103.0,5509.0 3102.0,5475.0 C 3101.0,5398.0 3123.0,5330.0 3160.0,5296.0 C 3177.0,5282.0 3190.0,5264.0 3190.0,5257.0 C 3190.0,5250.0 3206.0,5207.0 3225.0,5162.0 C 3252.0,5098.0 3257.0,5074.0 3250.0,5056.0 C 3245.0,5043.0 3236.0,5005.0 3230.0,4971.0 C 3220.0,4913.0 3220.0,4908.0 3247.0,4863.0 C 3262.0,4836.0 3284.0,4801.0 3297.0,4784.0 C 3310.0,4767.0 3320.0,4750.0 3320.0,4745.0 C 3320.0,4741.0 3340.0,4707.0 3365.0,4670.0 C 3418.0,4588.0 3421.0,4557.0 3386.0,4475.0 C 3351.0,4393.0 3343.0,4350.0 3362.0,4336.0 C 3381.0,4321.0 3420.0,4256.0 3420.0,4238.0 C 3420.0,4229.0 3414.0,4217.0 3406.0,4211.0 C 3398.0,4204.0 3389.0,4188.0 3386.0,4174.0 C 3382.0,4160.0 3365.0,4134.0 3347.0,4116.0 C 3329.0,4099.0 3293.0,4040.0 3267.0,3987.0 C 3241.0,3934.0 3215.0,3890.0 3210.0,3890.0 C 3205.0,3890.0 3185.0,3869.0 3165.0,3844.0 C 3140.0,3811.0 3130.0,3787.0 3130.0,3762.0 C 3130.0,3722.0 3086.0,3640.0 3065.0,3640.0 C 3031.0,3640.0 2969.0,3538.0 2959.0,3465.0 C 2946.0,3369.0 2930.0,3305.0 2911.0,3280.0 C 2896.0,3259.0 2883.0,3254.0 2824.0,3250.0 C 2784.0,3246.0 2739.0,3236.0 2718.0,3225.0 C 2687.0,3208.0 2679.0,3198.0 2670.0,3157.0 C 2657.0,3094.0 2657.0,3065.0 2674.0,3002.0 C 2686.0,2955.0 2686.0,2950.0 2670.0,2950.0 C 2661.0,2950.0 2639.0,2929.0 2621.0,2903.0 C 2593.0,2863.0 2589.0,2850.0 2593.0,2813.0 C 2595.0,2789.0 2594.0,2770.0 2589.0,2770.0 C 2584.0,2770.0 2580.0,2777.0 2580.0,2786.0 C 2580.0,2800.0 2577.0,2800.0 2565.0,2790.0 C 2557.0,2783.0 2550.0,2768.0 2550.0,2757.0 C 2550.0,2746.0 2543.0,2729.0 2535.0,2720.0 C 2500.0,2681.0 2507.0,2560.0 2544.0,2560.0 C 2552.0,2560.0 2560.0,2553.0 2564.0,2545.0 C 2568.0,2534.0 2562.0,2530.0 2541.0,2530.0 C 2515.0,2530.0 2512.0,2526.0 2507.0,2493.0 C 2505.0,2472.0 2507.0,2450.0 2511.0,2444.0 C 2525.0,2427.0 2550.0,2338.0 2550.0,2305.0 C 2551.0,2289.0 2561.0,2231.0 2574.0,2177.0 C 2598.0,2071.0 2619.0,2036.0 2726.0,1922.0 C 2772.0,1873.0 2778.0,1861.0 2783.0,1812.0 C 2786.0,1782.0 2786.0,1745.0 2784.0,1730.0 C 2779.0,1708.0 2787.0,1695.0 2833.0,1651.0 C 2883.0,1603.0 2888.0,1595.0 2879.0,1573.0 C 2873.0,1556.0 2873.0,1543.0 2880.0,1535.0 C 2893.0,1519.0 2882.0,1510.0 2849.0,1510.0 C 2808.0,1510.0 2805.0,1483.0 2820.0,1294.0 C 2827.0,1205.0 2829.0,1127.0 2826.0,1121.0 C 2822.0,1115.0 2822.0,1066.0 2826.0,1013.0 L 2833.0,916.0 L 2937.0,808.0 C 3027.0,715.0 3040.0,698.0 3030.0,681.0 C 3013.0,649.0 3018.0,627.0 3055.0,570.0 C 3074.0,540.0 3092.0,500.0 3096.0,482.0 C 3099.0,464.0 3107.0,446.0 3114.0,442.0 C 3120.0,438.0 3130.0,426.0 3136.0,415.0 C 3143.0,403.0 3160.0,394.0 3181.0,392.0 C 3199.0,390.0 3231.0,375.0 3251.0,359.0 C 3271.0,343.0 3292.0,330.0 3297.0,330.0 C 3302.0,330.0 3310.0,311.0 3316.0,288.0 L 3325.0,245.0 L 3420.0,238.0 C 3472.0,234.0 3559.0,219.0 3612.0,204.0 C 3701.0,179.0 3710.0,174.0 3727.0,142.0 C 3741.0,115.0 3761.0,100.0 3818.0,74.0 C 3875.0,48.0 3890.0,36.0 3890.0,19.0 C 3890.0,1.0 3894.0,-1.0 3918.0,4.0 C 3933.0,7.0 3995.0,13.0 4055.0,16.0 C 4175.0,23.0 4217.0,38.0 4280.0,94.0 C 4335.0,143.0 4567.0,262.0 4625.0,271.0 C 4653.0,275.0 4720.0,291.0 4776.0,306.0 C 4875.0,333.0 4878.0,333.0 4929.0,316.0 C 4979.0,300.0 4981.0,300.0 5023.0,321.0 C 5046.0,333.0 5086.0,360.0 5112.0,381.0 C 5154.0,416.0 5162.0,419.0 5180.0,408.0 C 5199.0,396.0 5204.0,398.0 5226.0,423.0 C 5240.0,439.0 5263.0,455.0 5278.0,459.0 C 5297.0,465.0 5305.0,473.0 5304.0,488.0 C 5304.0,500.0 5309.0,510.0 5317.0,510.0 C 5325.0,510.0 5330.0,522.0 5330.0,539.0 C 5330.0,555.0 5341.0,581.0 5353.0,597.0 C 5367.0,613.0 5380.0,645.0 5383.0,673.0 C 5387.0,699.0 5399.0,738.0 5409.0,759.0 C 5420.0,780.0 5439.0,838.0 5451.0,886.0 C 5463.0,935.0 5477.0,980.0 5481.0,985.0 C 5506.0,1018.0 5565.0,1150.0 5556.0,1153.0 C 5550.0,1155.0 5554.0,1166.0 5566.0,1176.0 C 5598.0,1206.0 5648.0,1328.0 5659.0,1405.0 C 5677.0,1530.0 5686.0,1564.0 5731.0,1665.0 C 5763.0,1739.0 5775.0,1779.0 5776.0,1820.0 C 5777.0,1851.0 5785.0,1891.0 5795.0,1910.0 C 5816.0,1951.0 5840.0,2060.0 5864.0,2225.0 C 5874.0,2291.0 5886.0,2352.0 5890.0,2361.0 C 5904.0,2388.0 5950.0,2526.0 5950.0,2540.0 C 5950.0,2547.0 5977.0,2610.0 6011.0,2679.0 C 6044.0,2748.0 6079.0,2832.0 6087.0,2865.0 C 6095.0,2898.0 6106.0,2933.0 6112.0,2943.0 C 6117.0,2952.0 6130.0,2995.0 6140.0,3036.0 C 6151.0,3078.0 6169.0,3127.0 6180.0,3145.0 C 6191.0,3163.0 6204.0,3204.0 6209.0,3236.0 C 6214.0,3268.0 6228.0,3328.0 6240.0,3369.0 C 6258.0,3429.0 6260.0,3444.0 6248.0,3452.0 C 6238.0,3459.0 6238.0,3462.0 6252.0,3471.0 C 6271.0,3482.0 6299.0,3566.0 6356.0,3790.0 C 6379.0,3879.0 6408.0,3965.0 6432.0,4013.0 C 6470.0,4090.0 6528.0,4235.0 6535.0,4275.0 C 6537.0,4286.0 6547.0,4338.0 6555.0,4390.0 C 6566.0,4449.0 6584.0,4511.0 6605.0,4555.0 C 6624.0,4594.0 6643.0,4644.0 6649.0,4665.0 C 6679.0,4792.0 6702.0,4863.0 6729.0,4920.0 C 6773.0,5013.0 6807.0,5102.0 6842.0,5209.0 C 6858.0,5261.0 6882.0,5320.0 6894.0,5339.0 C 6907.0,5360.0 6921.0,5408.0 6928.0,5455.0 C 6936.0,5506.0 6947.0,5541.0 6960.0,5555.0 C 6972.0,5568.0 6976.0,5580.0 6970.0,5590.0 C 6957.0,5613.0 6975.0,5726.0 7006.0,5815.0 C 7032.0,5891.0 7033.0,5898.0 7020.0,5960.0 C 7013.0,5996.0 7007.0,6037.0 7007.0,6053.0 C 7007.0,6069.0 7002.0,6080.0 6994.0,6080.0 C 6985.0,6080.0 6980.0,6091.0 6980.0,6109.0 C 6980.0,6126.0 6976.0,6142.0 6970.0,6145.0 C 6951.0,6157.0 6960.0,6200.0 6995.0,6270.0 C 7014.0,6308.0 7030.0,6348.0 7030.0,6358.0 C 7030.0,6369.0 7043.0,6406.0 7059.0,6442.0 C 7093.0,6515.0 7113.0,6529.0 7203.0,6537.0 C 7270.0,6544.0 7276.0,6558.0 7225.0,6590.0 C 7185.0,6615.0 7178.0,6653.0 7210.0,6670.0 C 7221.0,6676.0 7230.0,6687.0 7230.0,6694.0 C 7230.0,6701.0 7241.0,6723.0 7253.0,6742.0 C 7277.0,6777.0 7298.0,6880.0 7282.0,6880.0 C 7263.0,6880.0 7259.0,6958.0 7276.0,7000.0 C 7295.0,7046.0 7288.0,7061.0 7236.0,7087.0 C 7219.0,7095.0 7197.0,7112.0 7188.0,7124.0 C 7166.0,7151.0 7165.0,7228.0 7186.0,7258.0 C 7194.0,7270.0 7197.0,7280.0 7192.0,7280.0 C 7186.0,7280.0 7179.0,7291.0 7176.0,7304.0 C 7173.0,7317.0 7160.0,7350.0 7148.0,7377.0 C 7137.0,7403.0 7126.0,7439.0 7125.0,7455.0 C 7124.0,7472.0 7120.0,7492.0 7117.0,7500.0 C 7112.0,7509.0 7121.0,7534.0 7139.0,7562.0 C 7167.0,7606.0 7170.0,7608.0 7230.0,7615.0 C 7264.0,7619.0 7294.0,7619.0 7298.0,7616.0 C 7301.0,7612.0 7303.0,7584.0 7302.0,7554.0 C 7300.0,7504.0 7302.0,7499.0 7324.0,7490.0 C 7346.0,7482.0 7348.0,7476.0 7343.0,7446.0 C 7339.0,7417.0 7342.0,7407.0 7364.0,7387.0 C 7383.0,7370.0 7390.0,7353.0 7390.0,7327.0 C 7390.0,7299.0 7397.0,7287.0 7421.0,7268.0 C 7438.0,7255.0 7461.0,7236.0 7473.0,7225.0 C 7504.0,7196.0 7539.0,7204.0 7556.0,7245.0 C 7563.0,7264.0 7574.0,7281.0 7579.0,7285.0 C 7591.0,7292.0 7620.0,7349.0 7620.0,7366.0 C 7620.0,7373.0 7640.0,7421.0 7666.0,7472.0 C 7718.0,7581.0 7744.0,7684.0 7734.0,7750.0 C 7727.0,7804.0 7691.0,7876.0 7656.0,7909.0 C 7642.0,7923.0 7630.0,7941.0 7630.0,7950.0 C 7630.0,7959.0 7621.0,7984.0 7609.0,8005.0 C 7574.0,8072.0 7549.0,8146.0 7556.0,8163.0 C 7559.0,8172.0 7552.0,8196.0 7539.0,8217.0 C 7515.0,8255.0 7511.0,8302.0 7520.0,8432.0 C 7522.0,8461.0 7518.0,8485.0 7510.0,8495.0 C 7502.0,8504.0 7496.0,8544.0 7494.0,8593.0 C 7489.0,8740.0 7474.0,8885.0 7462.0,8907.0 C 7455.0,8919.0 7450.0,8938.0 7450.0,8950.0 C 7450.0,8961.0 7444.0,8981.0 7436.0,8993.0 C 7428.0,9005.0 7417.0,9048.0 7410.0,9089.0 C 7402.0,9136.0 7391.0,9169.0 7378.0,9182.0 C 7367.0,9193.0 7361.0,9204.0 7363.0,9207.0 C 7366.0,9210.0 7359.0,9233.0 7348.0,9258.0 C 7333.0,9293.0 7330.0,9318.0 7334.0,9353.0 C 7338.0,9390.0 7334.0,9411.0 7318.0,9446.0 C 7306.0,9470.0 7290.0,9490.0 7284.0,9490.0 C 7277.0,9490.0 7272.0,9498.0 7272.0,9508.0 C 7273.0,9526.0 7206.0,9630.0 7186.0,9642.0 C 7178.0,9647.0 7169.0,9640.0 7162.0,9625.0 C 7145.0,9588.0 7125.0,9594.0 7124.0,9635.0 C 7124.0,9659.0 7115.0,9679.0 7098.0,9698.0 C 7071.0,9726.0 7046.0,9810.0 7069.0,9796.0 C 7083.0,9787.0 7084.0,9833.0 7071.0,9858.0 C 7065.0,9867.0 7059.0,9887.0 7055.0,9903.0 C 7050.0,9927.0 7045.0,9930.0 7012.0,9930.0 C 6975.0,9930.0 6973.0,9932.0 6959.0,9977.0 C 6944.0,10027.0 6910.0,10051.0 6910.0,10011.0 C 6910.0,9986.0 6890.0,9973.0 6879.0,9991.0 C 6873.0,10002.0 6868.0,10002.0 6858.0,9992.0 C 6844.0,9978.0 6810.0,9976.0 6810.0,9990.0 C 6810.0,9996.0 6819.0,10000.0 6829.0,10000.0 C 6856.0,10000.0 6866.0,10021.0 6847.0,10035.0 C 6829.0,10048.0 6824.0,10080.0 6839.0,10080.0 C 6844.0,10080.0 6853.0,10073.0 6860.0,10065.0 C 6870.0,10053.0 6875.0,10052.0 6881.0,10062.0 C 6887.0,10071.0 6894.0,10070.0 6911.0,10055.0 L 6933.0,10035.0 L 6925.0,10065.0 C 6920.0,10082.0 6917.0,10107.0 6918.0,10122.0 C 6919.0,10137.0 6913.0,10151.0 6905.0,10154.0 C 6897.0,10157.0 6890.0,10169.0 6890.0,10180.0 C 6890.0,10201.0 6857.0,10240.0 6840.0,10240.0 C 6834.0,10240.0 6822.0,10227.0 6813.0,10212.0 M 6795.0,10149.0 C 6806.0,10132.0 6794.0,10128.0 6780.0,10145.0 C 6772.0,10154.0 6772.0,10160.0 6778.0,10160.0 C 6784.0,10160.0 6792.0,10155.0 6795.0,10149.0 M 3355.0,300.0 C 3373.0,281.0 3372.0,280.0 3353.0,280.0 C 3341.0,280.0 3330.0,288.0 3327.0,300.0 C 3324.0,311.0 3325.0,320.0 3329.0,320.0 C 3334.0,320.0 3345.0,311.0 3355.0,300.0" fill="pink"/>
	<path d="M 6130.0,9274.0 C 6130.0,9251.0 6127.0,9248.0 6100.0,9252.0 C 6071.0,9256.0 6070.0,9255.0 6070.0,9218.0 C 6070.0,9167.0 6097.0,9140.0 6150.0,9140.0 L 6191.0,9140.0 L 6186.0,9178.0 C 6170.0,9293.0 6168.0,9300.0 6149.0,9300.0 C 6135.0,9300.0 6130.0,9293.0 6130.0,9274.0" fill="pink"/>
	<path d="M 6170.0,9100.0 C 6170.0,9095.0 6180.0,9086.0 6192.0,9079.0 C 6210.0,9069.0 6212.0,9070.0 6207.0,9085.0 C 6203.0,9094.0 6200.0,9104.0 6200.0,9106.0 C 6200.0,9108.0 6193.0,9110.0 6185.0,9110.0 C 6177.0,9110.0 6170.0,9106.0 6170.0,9100.0" fill="pink"/>
	<path d="M 7351.0,6615.0 C 7339.0,6584.0 7330.0,6556.0 7330.0,6551.0 C 7330.0,6547.0 7319.0,6533.0 7305.0,6520.0 C 7291.0,6507.0 7280.0,6485.0 7280.0,6470.0 C 7280.0,6456.0 7276.0,6440.0 7271.0,6435.0 C 7253.0,6417.0 7230.0,6351.0 7239.0,6345.0 C 7257.0,6335.0 7390.0,6598.0 7390.0,6644.0 C 7390.0,6681.0 7370.0,6666.0 7351.0,6615.0" fill="pink"/>
</svg>
