<?xml version="1.0" ?>
<svg xmlns="http://www.w3.org/2000/svg" xmlns:ev="http://www.w3.org/2001/xml-events" xmlns:xlink="http://www.w3.org/1999/xlink" baseProfile="full" height="471px" version="1.1" viewBox="-1027.78463936033 297.47479115902036 12297.874013513636 9639.10402976572" width="600px">
	<defs/>
	<path d="M 7138.0,9087.0 C 7040.0,9042.0 7030.0,9035.0 7030.0,9010.0 C 7030.0,8965.0 6993.0,8940.0 6925.0,8940.0 C 6866.0,8940.0 6865.0,8939.0 6809.0,8884.0 C 6754.0,8829.0 6751.0,8828.0 6719.0,8839.0 C 6684.0,8851.0 6665.0,8843.0 6655.0,8809.0 C 6650.0,8793.0 6642.0,8791.0 6592.0,8796.0 C 6544.0,8801.0 6523.0,8797.0 6458.0,8772.0 C 6390.0,8746.0 6376.0,8743.0 6331.0,8752.0 C 6291.0,8759.0 6274.0,8758.0 6249.0,8744.0 L 6217.0,8728.0 L 6151.0,8793.0 C 6096.0,8847.0 6078.0,8859.0 6043.0,8863.0 C 6015.0,8866.0 5981.0,8883.0 5938.0,8914.0 C 5883.0,8953.0 5869.0,8958.0 5844.0,8951.0 C 5815.0,8944.0 5815.0,8942.0 5814.0,8870.0 L 5813.0,8797.0 L 5769.0,8774.0 C 5718.0,8747.0 5700.0,8745.0 5700.0,8764.0 C 5700.0,8779.0 5657.0,8790.0 5594.0,8790.0 C 5560.0,8790.0 5550.0,8794.0 5545.0,8810.0 C 5537.0,8836.0 5481.0,8860.0 5458.0,8848.0 C 5448.0,8843.0 5437.0,8827.0 5434.0,8812.0 C 5430.0,8797.0 5417.0,8766.0 5403.0,8743.0 C 5380.0,8701.0 5377.0,8700.0 5330.0,8700.0 C 5290.0,8700.0 5280.0,8697.0 5280.0,8684.0 C 5280.0,8675.0 5260.0,8650.0 5235.0,8628.0 C 5197.0,8595.0 5190.0,8582.0 5190.0,8552.0 C 5190.0,8494.0 5179.0,8484.0 5132.0,8498.0 C 5067.0,8518.0 5018.0,8513.0 4987.0,8485.0 C 4972.0,8471.0 4960.0,8454.0 4960.0,8448.0 C 4960.0,8441.0 4948.0,8424.0 4934.0,8409.0 L 4908.0,8382.0 L 4862.0,8411.0 C 4831.0,8430.0 4803.0,8440.0 4776.0,8440.0 C 4753.0,8441.0 4724.0,8447.0 4710.0,8455.0 C 4696.0,8463.0 4670.0,8469.0 4652.0,8470.0 C 4633.0,8470.0 4617.0,8476.0 4614.0,8485.0 C 4610.0,8494.0 4595.0,8500.0 4576.0,8500.0 C 4559.0,8500.0 4536.0,8507.0 4526.0,8515.0 C 4499.0,8536.0 4485.0,8534.0 4442.0,8505.0 C 4411.0,8485.0 4399.0,8482.0 4374.0,8489.0 C 4353.0,8495.0 4338.0,8494.0 4325.0,8484.0 C 4315.0,8476.0 4289.0,8470.0 4268.0,8470.0 C 4235.0,8470.0 4230.0,8473.0 4230.0,8493.0 C 4230.0,8530.0 4182.0,8565.0 4094.0,8594.0 C 4029.0,8615.0 4008.0,8619.0 3986.0,8610.0 C 3971.0,8605.0 3948.0,8600.0 3934.0,8600.0 C 3914.0,8600.0 3910.0,8595.0 3910.0,8567.0 C 3910.0,8549.0 3903.0,8524.0 3894.0,8512.0 C 3879.0,8490.0 3880.0,8486.0 3905.0,8449.0 C 3919.0,8426.0 3929.0,8406.0 3926.0,8402.0 C 3920.0,8396.0 3886.0,8406.0 3809.0,8435.0 C 3779.0,8447.0 3752.0,8451.0 3729.0,8446.0 C 3700.0,8441.0 3690.0,8431.0 3662.0,8380.0 C 3643.0,8347.0 3622.0,8320.0 3614.0,8320.0 C 3606.0,8320.0 3590.0,8301.0 3579.0,8277.0 C 3560.0,8238.0 3555.0,8234.0 3527.0,8238.0 L 3497.0,8243.0 L 3503.0,8194.0 C 3508.0,8150.0 3505.0,8141.0 3470.0,8092.0 C 3440.0,8050.0 3433.0,8034.0 3439.0,8017.0 C 3446.0,7999.0 3437.0,7979.0 3393.0,7917.0 L 3339.0,7839.0 L 3354.0,7792.0 C 3370.0,7748.0 3369.0,7746.0 3348.0,7723.0 C 3336.0,7710.0 3321.0,7700.0 3315.0,7700.0 C 3308.0,7700.0 3295.0,7690.0 3284.0,7679.0 C 3266.0,7659.0 3258.0,7658.0 3177.0,7664.0 C 3055.0,7672.0 3054.0,7673.0 3047.0,7769.0 C 3041.0,7849.0 3040.0,7851.0 2950.0,7998.0 C 2901.0,8080.0 2860.0,8156.0 2860.0,8166.0 C 2860.0,8181.0 2840.0,8192.0 2770.0,8217.0 C 2683.0,8248.0 2678.0,8248.0 2642.0,8234.0 C 2622.0,8225.0 2593.0,8207.0 2579.0,8194.0 C 2565.0,8181.0 2527.0,8160.0 2495.0,8147.0 C 2442.0,8126.0 2435.0,8121.0 2422.0,8082.0 C 2403.0,8025.0 2346.0,7987.0 2177.0,7920.0 C 2068.0,7877.0 2043.0,7871.0 2016.0,7878.0 C 1990.0,7886.0 1978.0,7883.0 1950.0,7864.0 C 1931.0,7851.0 1910.0,7840.0 1903.0,7840.0 C 1896.0,7840.0 1890.0,7830.0 1890.0,7818.0 C 1889.0,7805.0 1870.0,7774.0 1847.0,7748.0 L 1805.0,7701.0 L 1700.0,7685.0 C 1608.0,7671.0 1591.0,7666.0 1564.0,7639.0 C 1539.0,7615.0 1516.0,7605.0 1449.0,7592.0 C 1377.0,7577.0 1365.0,7572.0 1362.0,7553.0 C 1360.0,7541.0 1338.0,7512.0 1312.0,7489.0 C 1273.0,7452.0 1267.0,7441.0 1269.0,7411.0 C 1270.0,7384.0 1264.0,7370.0 1239.0,7344.0 L 1207.0,7311.0 L 1212.0,7194.0 C 1217.0,7081.0 1219.0,7075.0 1244.0,7055.0 C 1259.0,7043.0 1274.0,7020.0 1279.0,7004.0 C 1289.0,6967.0 1276.0,6909.0 1255.0,6898.0 C 1242.0,6890.0 1245.0,6882.0 1276.0,6844.0 C 1308.0,6806.0 1311.0,6796.0 1306.0,6765.0 C 1302.0,6745.0 1292.0,6726.0 1284.0,6723.0 C 1277.0,6720.0 1270.0,6708.0 1270.0,6696.0 C 1270.0,6669.0 1262.0,6659.0 1224.0,6633.0 C 1204.0,6618.0 1185.0,6590.0 1169.0,6549.0 C 1144.0,6485.0 1141.0,6483.0 1054.0,6456.0 C 1027.0,6448.0 997.0,6438.0 988.0,6435.0 C 976.0,6430.0 969.0,6438.0 960.0,6467.0 C 953.0,6488.0 945.0,6508.0 941.0,6512.0 C 938.0,6515.0 911.0,6514.0 881.0,6508.0 C 834.0,6498.0 824.0,6492.0 793.0,6448.0 C 773.0,6421.0 750.0,6400.0 740.0,6400.0 C 728.0,6400.0 710.0,6420.0 689.0,6456.0 L 657.0,6512.0 L 606.0,6506.0 C 578.0,6503.0 543.0,6500.0 529.0,6500.0 C 510.0,6500.0 495.0,6489.0 473.0,6458.0 C 444.0,6416.0 443.0,6412.0 445.0,6315.0 C 448.0,6231.0 453.0,6203.0 478.0,6140.0 L 508.0,6065.0 L 487.0,6043.0 C 476.0,6030.0 452.0,6018.0 435.0,6014.0 C 417.0,6011.0 388.0,6000.0 371.0,5989.0 C 343.0,5972.0 340.0,5965.0 340.0,5924.0 C 340.0,5887.0 333.0,5868.0 305.0,5829.0 C 283.0,5800.0 265.0,5760.0 258.0,5726.0 C 247.0,5674.0 248.0,5670.0 273.0,5631.0 C 297.0,5594.0 300.0,5582.0 300.0,5499.0 C 300.0,5430.0 296.0,5402.0 285.0,5390.0 C 271.0,5374.0 271.0,5368.0 290.0,5321.0 C 301.0,5293.0 310.0,5259.0 310.0,5246.0 C 310.0,5234.0 321.0,5213.0 335.0,5200.0 C 360.0,5176.0 371.0,5147.0 390.0,5054.0 C 395.0,5027.0 402.0,4996.0 405.0,4985.0 C 410.0,4968.0 396.0,4953.0 330.0,4902.0 C 276.0,4860.0 240.0,4840.0 222.0,4840.0 C 206.0,4840.0 185.0,4833.0 174.0,4825.0 C 164.0,4817.0 134.0,4810.0 109.0,4810.0 C 68.0,4810.0 61.0,4807.0 56.0,4787.0 C 53.0,4774.0 55.0,4748.0 60.0,4729.0 C 75.0,4679.0 73.0,4674.0 34.0,4651.0 C 5.0,4634.0 -1.0,4625.0 2.0,4603.0 C 4.0,4583.0 12.0,4574.0 30.0,4570.0 C 45.0,4567.0 60.0,4552.0 69.0,4533.0 C 79.0,4511.0 92.0,4499.0 112.0,4495.0 C 155.0,4485.0 210.0,4399.0 210.0,4340.0 C 210.0,4315.0 217.0,4286.0 225.0,4276.0 C 233.0,4265.0 240.0,4246.0 240.0,4233.0 C 240.0,4198.0 269.0,4160.0 295.0,4160.0 C 311.0,4160.0 334.0,4141.0 368.0,4102.0 C 430.0,4030.0 440.0,4000.0 411.0,3964.0 C 398.0,3948.0 390.0,3923.0 390.0,3900.0 C 390.0,3853.0 364.0,3794.0 327.0,3758.0 C 312.0,3743.0 300.0,3720.0 300.0,3706.0 C 300.0,3691.0 292.0,3676.0 279.0,3669.0 C 261.0,3660.0 254.0,3662.0 231.0,3684.0 C 197.0,3716.0 177.0,3711.0 163.0,3665.0 C 153.0,3635.0 155.0,3629.0 181.0,3604.0 C 207.0,3579.0 210.0,3570.0 210.0,3508.0 C 210.0,3468.0 217.0,3424.0 226.0,3402.0 C 239.0,3370.0 240.0,3357.0 229.0,3312.0 C 217.0,3261.0 217.0,3259.0 245.0,3230.0 C 273.0,3201.0 273.0,3201.0 260.0,3140.0 L 247.0,3079.0 L 279.0,3047.0 C 306.0,3018.0 310.0,3007.0 310.0,2958.0 L 310.0,2901.0 L 364.0,2877.0 C 404.0,2858.0 419.0,2846.0 424.0,2825.0 C 428.0,2810.0 444.0,2781.0 460.0,2761.0 C 476.0,2741.0 493.0,2709.0 496.0,2690.0 C 500.0,2671.0 516.0,2629.0 531.0,2598.0 L 560.0,2541.0 L 540.0,2494.0 C 516.0,2440.0 519.0,2429.0 564.0,2377.0 C 592.0,2343.0 607.0,2336.0 676.0,2319.0 C 719.0,2309.0 759.0,2301.0 763.0,2300.0 C 768.0,2300.0 769.0,2328.0 766.0,2363.0 C 761.0,2416.0 764.0,2431.0 785.0,2470.0 C 837.0,2566.0 851.0,2602.0 848.0,2633.0 C 845.0,2660.0 850.0,2667.0 885.0,2688.0 C 921.0,2709.0 934.0,2711.0 1021.0,2707.0 C 1089.0,2704.0 1125.0,2698.0 1146.0,2686.0 C 1177.0,2667.0 1285.0,2509.0 1296.0,2466.0 C 1302.0,2442.0 1342.0,2420.0 1379.0,2420.0 C 1413.0,2420.0 1417.0,2401.0 1399.0,2347.0 C 1375.0,2277.0 1375.0,2215.0 1399.0,2181.0 C 1416.0,2157.0 1420.0,2129.0 1426.0,1987.0 L 1433.0,1820.0 L 1402.0,1752.0 C 1384.0,1715.0 1366.0,1662.0 1361.0,1634.0 C 1356.0,1607.0 1344.0,1568.0 1336.0,1548.0 C 1327.0,1527.0 1320.0,1497.0 1320.0,1480.0 C 1320.0,1435.0 1293.0,1390.0 1259.0,1378.0 C 1243.0,1373.0 1230.0,1365.0 1230.0,1361.0 C 1230.0,1357.0 1266.0,1345.0 1310.0,1333.0 L 1390.0,1312.0 L 1434.0,1351.0 C 1459.0,1373.0 1482.0,1401.0 1486.0,1413.0 C 1489.0,1425.0 1512.0,1456.0 1537.0,1481.0 L 1582.0,1528.0 L 1686.0,1470.0 L 1789.0,1412.0 L 1815.0,1432.0 C 1833.0,1446.0 1849.0,1450.0 1866.0,1446.0 C 1879.0,1442.0 1899.0,1444.0 1909.0,1449.0 C 1925.0,1458.0 1942.0,1444.0 2025.0,1359.0 C 2127.0,1254.0 2154.0,1235.0 2184.0,1252.0 C 2200.0,1261.0 2199.0,1264.0 2173.0,1287.0 L 2146.0,1313.0 L 2168.0,1321.0 C 2180.0,1326.0 2190.0,1333.0 2190.0,1338.0 C 2190.0,1354.0 2155.0,1379.0 2115.0,1392.0 C 2085.0,1402.0 2074.0,1412.0 2068.0,1435.0 C 2058.0,1474.0 2031.0,1490.0 1958.0,1500.0 C 1901.0,1508.0 1861.0,1535.0 1860.0,1567.0 C 1860.0,1588.0 1901.0,1675.0 1921.0,1693.0 C 1932.0,1703.0 1965.0,1747.0 1996.0,1791.0 C 2053.0,1872.0 2065.0,1879.0 2113.0,1861.0 C 2133.0,1853.0 2142.0,1856.0 2161.0,1876.0 C 2192.0,1909.0 2204.0,1906.0 2226.0,1858.0 C 2248.0,1810.0 2265.0,1800.0 2273.0,1830.0 C 2283.0,1870.0 2309.0,1865.0 2361.0,1814.0 C 2397.0,1779.0 2410.0,1758.0 2410.0,1737.0 C 2410.0,1700.0 2434.0,1653.0 2478.0,1608.0 C 2507.0,1577.0 2515.0,1560.0 2522.0,1509.0 C 2531.0,1439.0 2555.0,1384.0 2602.0,1322.0 C 2629.0,1286.0 2634.0,1271.0 2632.0,1232.0 C 2631.0,1199.0 2637.0,1173.0 2653.0,1145.0 L 2676.0,1105.0 L 2735.0,1108.0 C 2790.0,1112.0 2799.0,1115.0 2840.0,1156.0 C 2875.0,1190.0 2893.0,1200.0 2919.0,1200.0 C 2937.0,1200.0 2959.0,1204.0 2969.0,1209.0 C 2995.0,1223.0 3121.0,1181.0 3170.0,1141.0 L 3210.0,1109.0 L 3249.0,1129.0 C 3270.0,1140.0 3364.0,1168.0 3457.0,1191.0 L 3625.0,1233.0 L 3742.0,1326.0 L 3858.0,1419.0 L 3950.0,1389.0 C 4035.0,1360.0 4042.0,1359.0 4059.0,1374.0 C 4075.0,1389.0 4092.0,1390.0 4178.0,1384.0 L 4278.0,1377.0 L 4356.0,1272.0 L 4434.0,1167.0 L 4501.0,1173.0 C 4565.0,1178.0 4573.0,1182.0 4674.0,1254.0 C 4749.0,1307.0 4790.0,1330.0 4810.0,1330.0 C 4847.0,1330.0 4864.0,1359.0 4856.0,1410.0 C 4851.0,1442.0 4855.0,1454.0 4884.0,1492.0 C 4903.0,1517.0 4933.0,1543.0 4950.0,1550.0 C 4978.0,1562.0 4987.0,1561.0 5028.0,1540.0 C 5054.0,1528.0 5100.0,1507.0 5130.0,1495.0 C 5183.0,1475.0 5188.0,1474.0 5254.0,1489.0 L 5323.0,1503.0 L 5356.0,1576.0 C 5379.0,1624.0 5390.0,1664.0 5390.0,1694.0 C 5390.0,1718.0 5393.0,1746.0 5396.0,1755.0 C 5400.0,1764.0 5438.0,1791.0 5481.0,1816.0 C 5549.0,1855.0 5560.0,1866.0 5560.0,1889.0 C 5560.0,1910.0 5573.0,1925.0 5628.0,1965.0 C 5687.0,2009.0 5695.0,2019.0 5698.0,2051.0 C 5701.0,2083.0 5705.0,2088.0 5733.0,2094.0 C 5750.0,2097.0 5775.0,2107.0 5788.0,2116.0 C 5811.0,2131.0 5812.0,2135.0 5805.0,2216.0 C 5798.0,2298.0 5799.0,2302.0 5825.0,2336.0 C 5840.0,2356.0 5900.0,2410.0 5958.0,2455.0 C 6049.0,2527.0 6070.0,2540.0 6114.0,2545.0 C 6164.0,2552.0 6353.0,2622.0 6378.0,2642.0 C 6384.0,2648.0 6390.0,2663.0 6390.0,2675.0 C 6390.0,2726.0 6399.0,2731.0 6441.0,2703.0 C 6462.0,2689.0 6482.0,2670.0 6485.0,2661.0 C 6488.0,2652.0 6527.0,2624.0 6571.0,2598.0 C 6634.0,2560.0 6661.0,2550.0 6695.0,2550.0 C 6738.0,2550.0 6741.0,2552.0 6810.0,2635.0 C 6849.0,2682.0 6882.0,2720.0 6883.0,2720.0 C 6884.0,2720.0 6917.0,2729.0 6955.0,2740.0 C 6994.0,2751.0 7062.0,2764.0 7107.0,2770.0 L 7189.0,2779.0 L 7317.0,2721.0 L 7445.0,2663.0 L 7452.0,2620.0 C 7464.0,2551.0 7493.0,2543.0 7564.0,2589.0 C 7599.0,2611.0 7627.0,2619.0 7686.0,2624.0 L 7763.0,2631.0 L 7816.0,2579.0 L 7868.0,2528.0 L 7976.0,2538.0 C 8036.0,2544.0 8135.0,2559.0 8195.0,2573.0 C 8256.0,2587.0 8333.0,2601.0 8366.0,2604.0 L 8427.0,2609.0 L 8445.0,2565.0 C 8454.0,2540.0 8464.0,2520.0 8467.0,2520.0 C 8470.0,2520.0 8502.0,2537.0 8539.0,2557.0 C 8603.0,2591.0 8610.0,2600.0 8673.0,2701.0 C 8710.0,2760.0 8740.0,2819.0 8740.0,2833.0 C 8740.0,2854.0 8748.0,2861.0 8784.0,2873.0 L 8827.0,2888.0 L 8911.0,2783.0 L 8995.0,2678.0 L 9035.0,2684.0 C 9085.0,2692.0 9140.0,2748.0 9140.0,2792.0 C 9140.0,2807.0 9140.0,2823.0 9141.0,2828.0 C 9142.0,2837.0 9122.0,2847.0 9090.0,2854.0 C 9071.0,2858.0 9060.0,2871.0 9046.0,2907.0 C 9036.0,2933.0 9015.0,2980.0 9000.0,3010.0 C 8984.0,3041.0 8969.0,3082.0 8965.0,3102.0 C 8958.0,3137.0 8961.0,3141.0 9022.0,3200.0 C 9086.0,3262.0 9088.0,3263.0 9147.0,3245.0 C 9173.0,3237.0 9174.0,3241.0 9190.0,3379.0 C 9198.0,3447.0 9198.0,3476.0 9190.0,3486.0 C 9176.0,3502.0 9196.0,3605.0 9217.0,3626.0 C 9225.0,3633.0 9247.0,3642.0 9266.0,3646.0 C 9295.0,3651.0 9304.0,3659.0 9317.0,3691.0 C 9338.0,3744.0 9371.0,3752.0 9410.0,3715.0 C 9439.0,3688.0 9440.0,3687.0 9459.0,3704.0 C 9490.0,3732.0 9553.0,3741.0 9726.0,3744.0 L 9888.0,3746.0 L 9940.0,3791.0 L 9993.0,3837.0 L 9991.0,3945.0 C 9989.0,4033.0 9984.0,4064.0 9965.0,4112.0 L 9941.0,4170.0 L 9991.0,4224.0 C 10047.0,4286.0 10052.0,4312.0 10016.0,4368.0 C 10001.0,4391.0 9987.0,4435.0 9979.0,4482.0 C 9966.0,4558.0 9967.0,4560.0 9989.0,4584.0 L 10012.0,4609.0 L 9985.0,4691.0 C 9958.0,4772.0 9958.0,4774.0 9975.0,4807.0 C 9990.0,4834.0 9992.0,4854.0 9987.0,4922.0 C 9981.0,5000.0 9979.0,5005.0 9945.0,5032.0 L 9910.0,5061.0 L 9910.0,5195.0 C 9910.0,5325.0 9910.0,5328.0 9935.0,5344.0 C 9948.0,5353.0 9973.0,5360.0 9990.0,5360.0 C 10020.0,5360.0 10024.0,5365.0 10082.0,5488.0 C 10126.0,5582.0 10155.0,5628.0 10192.0,5666.0 L 10241.0,5717.0 L 10173.0,5866.0 L 10104.0,6015.0 L 10032.0,6024.0 C 9963.0,6032.0 9960.0,6034.0 9960.0,6060.0 C 9960.0,6077.0 9937.0,6120.0 9895.0,6178.0 C 9845.0,6248.0 9830.0,6277.0 9830.0,6303.0 C 9830.0,6323.0 9808.0,6389.0 9782.0,6452.0 C 9733.0,6565.0 9733.0,6565.0 9697.0,6568.0 L 9660.0,6571.0 L 9660.0,6641.0 C 9660.0,6706.0 9657.0,6717.0 9618.0,6783.0 L 9575.0,6855.0 L 9570.0,7025.0 C 9566.0,7119.0 9559.0,7209.0 9552.0,7225.0 C 9546.0,7242.0 9538.0,7272.0 9535.0,7293.0 L 9529.0,7330.0 L 9451.0,7330.0 L 9372.0,7330.0 L 9325.0,7385.0 L 9278.0,7440.0 L 9250.0,7416.0 L 9221.0,7393.0 L 9126.0,7415.0 C 9042.0,7435.0 9023.0,7443.0 8977.0,7483.0 C 8931.0,7523.0 8918.0,7528.0 8860.0,7534.0 C 8762.0,7545.0 8731.0,7558.0 8656.0,7621.0 C 8602.0,7667.0 8577.0,7681.0 8541.0,7686.0 C 8503.0,7692.0 8478.0,7708.0 8385.0,7785.0 C 8325.0,7835.0 8259.0,7886.0 8239.0,7898.0 C 8219.0,7910.0 8183.0,7941.0 8159.0,7967.0 C 8120.0,8010.0 8113.0,8025.0 8096.0,8103.0 L 8077.0,8192.0 L 8016.0,8222.0 L 7955.0,8252.0 L 7896.0,8377.0 C 7844.0,8484.0 7832.0,8503.0 7803.0,8515.0 C 7777.0,8526.0 7762.0,8545.0 7729.0,8612.0 C 7690.0,8691.0 7683.0,8699.0 7613.0,8744.0 C 7557.0,8781.0 7306.0,8977.0 7247.0,9030.0 C 7243.0,9033.0 7247.0,9054.0 7255.0,9075.0 C 7269.0,9106.0 7269.0,9115.0 7258.0,9125.0 C 7248.0,9135.0 7224.0,9128.0 7138.0,9087.0" fill="pink"/>
</svg>
