<?xml version="1.0" ?>
<svg xmlns="http://www.w3.org/2000/svg" xmlns:ev="http://www.w3.org/2001/xml-events" xmlns:xlink="http://www.w3.org/1999/xlink" baseProfile="full" height="600px" version="1.1" viewBox="2326.364559500538 -1021.7114246087331 5590.7987860562425 12288.958822154516" width="273px">
	<defs/>
	<path d="M 5540.0,10233.0 C 5518.0,10224.0 5510.0,10209.0 5510.0,10169.0 C 5510.0,10145.0 5503.0,10127.0 5489.0,10114.0 C 5442.0,10071.0 5425.0,9984.0 5461.0,9962.0 C 5492.0,9942.0 5483.0,9899.0 5445.0,9887.0 C 5404.0,9874.0 5330.0,9822.0 5330.0,9807.0 C 5330.0,9800.0 5314.0,9786.0 5293.0,9775.0 C 5255.0,9754.0 5230.0,9710.0 5230.0,9665.0 C 5230.0,9648.0 5253.0,9614.0 5300.0,9560.0 C 5361.0,9491.0 5369.0,9478.0 5360.0,9460.0 C 5347.0,9435.0 5329.0,9435.0 5280.0,9460.0 C 5258.0,9471.0 5234.0,9480.0 5226.0,9480.0 C 5217.0,9480.0 5210.0,9492.0 5208.0,9513.0 C 5206.0,9540.0 5197.0,9549.0 5158.0,9570.0 C 5112.0,9594.0 5111.0,9594.0 5075.0,9577.0 C 5053.0,9567.0 5015.0,9560.0 4978.0,9560.0 C 4908.0,9560.0 4895.0,9553.0 4781.0,9442.0 C 4672.0,9338.0 4646.0,9316.0 4630.0,9315.0 C 4622.0,9315.0 4614.0,9305.0 4612.0,9293.0 C 4609.0,9275.0 4602.0,9270.0 4580.0,9270.0 C 4562.0,9270.0 4547.0,9262.0 4536.0,9245.0 C 4517.0,9216.0 4478.0,9194.0 4428.0,9185.0 C 4409.0,9181.0 4376.0,9164.0 4355.0,9147.0 L 4318.0,9117.0 L 4322.0,9030.0 C 4325.0,8971.0 4332.0,8931.0 4346.0,8903.0 C 4369.0,8858.0 4365.0,8846.0 4306.0,8783.0 C 4279.0,8753.0 4277.0,8748.0 4287.0,8716.0 C 4299.0,8678.0 4296.0,8670.0 4268.0,8670.0 C 4256.0,8670.0 4236.0,8649.0 4212.0,8610.0 C 4183.0,8563.0 4170.0,8550.0 4150.0,8550.0 C 4129.0,8550.0 4121.0,8541.0 4103.0,8495.0 C 4076.0,8430.0 4074.0,8407.0 4096.0,8389.0 C 4120.0,8369.0 4140.0,8324.0 4140.0,8291.0 C 4140.0,8274.0 4127.0,8238.0 4110.0,8212.0 C 4094.0,8185.0 4080.0,8158.0 4080.0,8152.0 C 4080.0,8145.0 4069.0,8133.0 4055.0,8124.0 C 4041.0,8115.0 4030.0,8099.0 4030.0,8089.0 C 4030.0,8079.0 4021.0,8066.0 4010.0,8060.0 C 3998.0,8054.0 3979.0,8025.0 3966.0,7996.0 C 3953.0,7966.0 3938.0,7940.0 3932.0,7936.0 C 3926.0,7933.0 3903.0,7874.0 3880.0,7805.0 C 3857.0,7736.0 3833.0,7680.0 3826.0,7680.0 C 3820.0,7680.0 3797.0,7689.0 3775.0,7700.0 C 3753.0,7711.0 3719.0,7720.0 3699.0,7720.0 C 3670.0,7720.0 3660.0,7725.0 3655.0,7740.0 C 3647.0,7765.0 3584.0,7768.0 3554.0,7745.0 C 3525.0,7723.0 3505.0,7727.0 3472.0,7760.0 C 3447.0,7784.0 3437.0,7788.0 3418.0,7781.0 C 3391.0,7771.0 3392.0,7757.0 3421.0,7687.0 C 3443.0,7635.0 3461.0,7515.0 3449.0,7503.0 C 3438.0,7491.0 3418.0,7374.0 3416.0,7309.0 C 3414.0,7234.0 3399.0,7216.0 3345.0,7225.0 L 3303.0,7231.0 L 3296.0,7148.0 C 3285.0,7033.0 3288.0,6986.0 3306.0,6903.0 C 3328.0,6808.0 3316.0,6773.0 3259.0,6764.0 C 3222.0,6758.0 3220.0,6756.0 3220.0,6721.0 C 3220.0,6701.0 3216.0,6680.0 3212.0,6673.0 C 3200.0,6654.0 3155.0,6670.0 3135.0,6701.0 C 3118.0,6726.0 3109.0,6730.0 3080.0,6728.0 C 3047.0,6725.0 3045.0,6723.0 3048.0,6692.0 C 3049.0,6674.0 3043.0,6649.0 3035.0,6637.0 C 3018.0,6612.0 3015.0,6479.0 3029.0,6388.0 C 3042.0,6314.0 3033.0,6260.0 3010.0,6260.0 C 3000.0,6260.0 2987.0,6266.0 2981.0,6274.0 C 2974.0,6282.0 2958.0,6291.0 2945.0,6294.0 C 2931.0,6298.0 2920.0,6307.0 2920.0,6315.0 C 2920.0,6332.0 2880.0,6344.0 2852.0,6336.0 C 2842.0,6332.0 2824.0,6321.0 2813.0,6311.0 C 2795.0,6294.0 2793.0,6285.0 2801.0,6246.0 C 2806.0,6221.0 2807.0,6194.0 2805.0,6188.0 C 2802.0,6181.0 2815.0,6126.0 2834.0,6065.0 C 2864.0,5964.0 2870.0,5954.0 2901.0,5938.0 C 2923.0,5926.0 2942.0,5904.0 2957.0,5873.0 C 2970.0,5847.0 2989.0,5817.0 3000.0,5805.0 C 3011.0,5794.0 3025.0,5769.0 3031.0,5750.0 C 3066.0,5650.0 3121.0,5608.0 3164.0,5649.0 L 3187.0,5671.0 L 3204.0,5645.0 C 3214.0,5629.0 3216.0,5620.0 3209.0,5620.0 C 3195.0,5620.0 3207.0,5492.0 3222.0,5473.0 C 3240.0,5450.0 3249.0,5459.0 3252.0,5503.0 L 3255.0,5545.0 L 3284.0,5515.0 C 3308.0,5489.0 3312.0,5488.0 3306.0,5507.0 C 3302.0,5519.0 3302.0,5540.0 3306.0,5554.0 C 3311.0,5576.0 3318.0,5580.0 3346.0,5580.0 C 3403.0,5580.0 3420.0,5553.0 3420.0,5465.0 C 3420.0,5392.0 3421.0,5390.0 3444.0,5390.0 C 3460.0,5390.0 3471.0,5397.0 3475.0,5409.0 C 3483.0,5434.0 3519.0,5480.0 3531.0,5480.0 C 3545.0,5480.0 3542.0,5454.0 3525.0,5440.0 C 3501.0,5420.0 3507.0,5402.0 3540.0,5395.0 C 3567.0,5389.0 3570.0,5385.0 3570.0,5350.0 C 3570.0,5322.0 3575.0,5310.0 3588.0,5306.0 C 3597.0,5303.0 3619.0,5289.0 3635.0,5275.0 L 3665.0,5249.0 L 3630.0,5256.0 C 3611.0,5259.0 3588.0,5269.0 3579.0,5276.0 C 3558.0,5294.0 3530.0,5284.0 3530.0,5258.0 C 3530.0,5247.0 3541.0,5225.0 3555.0,5208.0 C 3569.0,5192.0 3580.0,5170.0 3580.0,5160.0 C 3580.0,5143.0 3584.0,5142.0 3611.0,5152.0 C 3627.0,5158.0 3643.0,5160.0 3646.0,5157.0 C 3655.0,5148.0 3630.0,5110.0 3615.0,5110.0 C 3591.0,5110.0 3503.0,5168.0 3485.0,5196.0 C 3469.0,5221.0 3468.0,5221.0 3449.0,5204.0 C 3439.0,5195.0 3430.0,5182.0 3430.0,5177.0 C 3430.0,5172.0 3450.0,5145.0 3475.0,5119.0 C 3504.0,5088.0 3520.0,5062.0 3520.0,5045.0 C 3520.0,5031.0 3528.0,5013.0 3538.0,5005.0 C 3547.0,4997.0 3576.0,4972.0 3601.0,4950.0 C 3626.0,4928.0 3655.0,4910.0 3665.0,4910.0 C 3681.0,4910.0 3682.0,4918.0 3676.0,4990.0 C 3672.0,5034.0 3672.0,5070.0 3677.0,5069.0 C 3701.0,5065.0 3710.0,5073.0 3711.0,5098.0 C 3712.0,5123.0 3713.0,5123.0 3722.0,5090.0 C 3735.0,5045.0 3736.0,5015.0 3726.0,4964.0 C 3720.0,4931.0 3723.0,4919.0 3738.0,4900.0 C 3754.0,4880.0 3760.0,4878.0 3773.0,4888.0 C 3792.0,4904.0 3804.0,4888.0 3796.0,4856.0 C 3792.0,4840.0 3797.0,4827.0 3810.0,4815.0 C 3821.0,4805.0 3830.0,4786.0 3830.0,4773.0 C 3830.0,4744.0 3843.0,4718.0 3883.0,4667.0 C 3911.0,4631.0 3912.0,4628.0 3895.0,4610.0 C 3878.0,4591.0 3878.0,4589.0 3903.0,4566.0 C 3930.0,4541.0 3947.0,4470.0 3936.0,4426.0 C 3933.0,4412.0 3934.0,4398.0 3940.0,4395.0 C 3945.0,4392.0 3950.0,4370.0 3950.0,4346.0 C 3950.0,4323.0 3955.0,4299.0 3962.0,4292.0 C 3969.0,4285.0 3975.0,4238.0 3977.0,4170.0 C 3979.0,4082.0 3977.0,4058.0 3965.0,4054.0 C 3957.0,4051.0 3954.0,4042.0 3957.0,4033.0 C 3961.0,4024.0 3956.0,4012.0 3945.0,4004.0 C 3932.0,3994.0 3925.0,3971.0 3921.0,3919.0 C 3916.0,3869.0 3909.0,3844.0 3897.0,3835.0 C 3888.0,3828.0 3880.0,3816.0 3880.0,3807.0 C 3880.0,3774.0 3840.0,3625.0 3830.0,3622.0 C 3825.0,3620.0 3820.0,3612.0 3820.0,3603.0 C 3820.0,3595.0 3814.0,3574.0 3806.0,3557.0 C 3791.0,3522.0 3778.0,3379.0 3788.0,3364.0 C 3792.0,3359.0 3803.0,3349.0 3813.0,3341.0 C 3829.0,3328.0 3836.0,3332.0 3880.0,3375.0 C 3908.0,3402.0 3930.0,3432.0 3930.0,3442.0 C 3930.0,3453.0 3941.0,3465.0 3955.0,3470.0 C 3969.0,3475.0 3992.0,3492.0 4005.0,3507.0 L 4029.0,3535.0 L 4030.0,3500.0 C 4030.0,3468.0 4023.0,3458.0 3960.0,3405.0 C 3922.0,3372.0 3890.0,3342.0 3890.0,3339.0 C 3890.0,3335.0 3887.0,3325.0 3884.0,3317.0 C 3881.0,3308.0 3887.0,3300.0 3902.0,3297.0 C 3919.0,3292.0 3932.0,3298.0 3953.0,3320.0 C 3986.0,3355.0 3994.0,3358.0 3985.0,3330.0 C 3981.0,3316.0 3984.0,3308.0 3995.0,3304.0 C 4004.0,3300.0 4016.0,3287.0 4021.0,3274.0 C 4033.0,3242.0 4056.0,3244.0 4075.0,3277.0 C 4083.0,3293.0 4101.0,3319.0 4115.0,3335.0 C 4136.0,3360.0 4142.0,3363.0 4150.0,3350.0 C 4157.0,3339.0 4152.0,3329.0 4130.0,3310.0 C 4099.0,3285.0 4089.0,3240.0 4113.0,3240.0 C 4121.0,3240.0 4137.0,3229.0 4149.0,3216.0 C 4163.0,3202.0 4179.0,3194.0 4190.0,3197.0 C 4210.0,3202.0 4240.0,3266.0 4240.0,3304.0 C 4240.0,3329.0 4275.0,3380.0 4292.0,3380.0 C 4298.0,3380.0 4298.0,3374.0 4290.0,3365.0 C 4271.0,3343.0 4284.0,3231.0 4307.0,3214.0 C 4322.0,3203.0 4326.0,3204.0 4329.0,3218.0 C 4331.0,3227.0 4342.0,3244.0 4355.0,3256.0 C 4367.0,3267.0 4381.0,3296.0 4385.0,3321.0 L 4394.0,3365.0 L 4398.0,3322.0 C 4400.0,3291.0 4396.0,3273.0 4381.0,3254.0 C 4365.0,3234.0 4363.0,3223.0 4370.0,3209.0 C 4385.0,3182.0 4396.0,3178.0 4443.0,3185.0 C 4478.0,3191.0 4491.0,3200.0 4521.0,3238.0 C 4540.0,3264.0 4573.0,3315.0 4594.0,3352.0 C 4634.0,3426.0 4666.0,3450.0 4724.0,3450.0 C 4752.0,3450.0 4770.0,3460.0 4810.0,3495.0 C 4838.0,3520.0 4867.0,3540.0 4875.0,3540.0 C 4898.0,3540.0 4902.0,3558.0 4886.0,3582.0 C 4876.0,3596.0 4870.0,3626.0 4870.0,3658.0 C 4870.0,3687.0 4865.0,3720.0 4860.0,3731.0 C 4852.0,3746.0 4853.0,3750.0 4863.0,3750.0 C 4872.0,3750.0 4879.0,3736.0 4883.0,3712.0 C 4896.0,3620.0 4926.0,3593.0 5004.0,3604.0 C 5084.0,3616.0 5138.0,3662.0 5192.0,3765.0 C 5234.0,3843.0 5239.0,3860.0 5234.0,3895.0 C 5230.0,3917.0 5225.0,3939.0 5222.0,3945.0 C 5219.0,3950.0 5215.0,3988.0 5214.0,4030.0 C 5211.0,4103.0 5212.0,4104.0 5228.0,4080.0 C 5237.0,4066.0 5266.0,4035.0 5292.0,4011.0 C 5319.0,3987.0 5340.0,3961.0 5340.0,3955.0 C 5340.0,3948.0 5346.0,3937.0 5354.0,3931.0 C 5362.0,3925.0 5370.0,3894.0 5372.0,3860.0 C 5375.0,3824.0 5383.0,3794.0 5393.0,3782.0 C 5402.0,3772.0 5410.0,3754.0 5410.0,3743.0 C 5410.0,3732.0 5424.0,3711.0 5440.0,3697.0 C 5457.0,3682.0 5470.0,3660.0 5470.0,3647.0 C 5470.0,3603.0 5483.0,3596.0 5531.0,3611.0 C 5574.0,3625.0 5640.0,3625.0 5640.0,3612.0 C 5640.0,3608.0 5632.0,3595.0 5622.0,3582.0 C 5606.0,3561.0 5601.0,3560.0 5577.0,3571.0 C 5556.0,3581.0 5547.0,3580.0 5534.0,3569.0 C 5513.0,3551.0 5521.0,3484.0 5548.0,3457.0 C 5573.0,3432.0 5590.0,3442.0 5590.0,3481.0 C 5590.0,3505.0 5594.0,3511.0 5608.0,3508.0 C 5637.0,3503.0 5634.0,3461.0 5601.0,3408.0 C 5584.0,3381.0 5570.0,3353.0 5570.0,3346.0 C 5570.0,3340.0 5593.0,3312.0 5620.0,3285.0 C 5690.0,3216.0 5703.0,3169.0 5692.0,3026.0 C 5685.0,2930.0 5686.0,2917.0 5701.0,2909.0 C 5710.0,2904.0 5723.0,2887.0 5728.0,2871.0 C 5736.0,2847.0 5735.0,2839.0 5723.0,2828.0 C 5710.0,2818.0 5709.0,2801.0 5714.0,2732.0 C 5722.0,2632.0 5735.0,2607.0 5770.0,2614.0 C 5795.0,2618.0 5795.0,2618.0 5797.0,2547.0 C 5799.0,2469.0 5815.0,2414.0 5853.0,2354.0 C 5885.0,2302.0 5890.0,2272.0 5876.0,2231.0 C 5863.0,2193.0 5876.0,2081.0 5903.0,2005.0 L 5917.0,1965.0 L 5928.0,2000.0 C 5934.0,2019.0 5942.0,2059.0 5945.0,2089.0 C 5953.0,2150.0 5970.0,2141.0 5970.0,2074.0 C 5970.0,2042.0 5976.0,2028.0 6001.0,2004.0 C 6036.0,1972.0 6080.0,1883.0 6080.0,1846.0 C 6080.0,1794.0 6092.0,1760.0 6111.0,1760.0 C 6123.0,1760.0 6132.0,1750.0 6136.0,1732.0 C 6140.0,1717.0 6148.0,1698.0 6155.0,1690.0 C 6169.0,1674.0 6176.0,1632.0 6185.0,1530.0 C 6190.0,1464.0 6178.0,1385.0 6156.0,1340.0 C 6149.0,1326.0 6147.0,1304.0 6150.0,1290.0 C 6154.0,1276.0 6153.0,1260.0 6148.0,1253.0 C 6123.0,1222.0 6169.0,1183.0 6197.0,1211.0 C 6203.0,1217.0 6216.0,1220.0 6225.0,1218.0 C 6240.0,1215.0 6240.0,1212.0 6220.0,1188.0 C 6200.0,1162.0 6200.0,1159.0 6214.0,1138.0 C 6223.0,1126.0 6230.0,1108.0 6230.0,1098.0 C 6230.0,1071.0 6184.0,1075.0 6158.0,1105.0 C 6146.0,1119.0 6131.0,1130.0 6125.0,1130.0 C 6109.0,1130.0 6080.0,1097.0 6080.0,1078.0 C 6080.0,1051.0 6124.0,1020.0 6163.0,1020.0 C 6193.0,1020.0 6200.0,1016.0 6200.0,1001.0 C 6200.0,990.0 6195.0,978.0 6190.0,975.0 C 6173.0,965.0 6179.0,954.0 6206.0,941.0 C 6236.0,928.0 6266.0,934.0 6274.0,956.0 C 6279.0,968.0 6282.0,968.0 6298.0,953.0 C 6315.0,936.0 6314.0,935.0 6288.0,923.0 C 6258.0,910.0 6252.0,882.0 6270.0,835.0 C 6278.0,813.0 6276.0,803.0 6260.0,783.0 C 6241.0,759.0 6241.0,755.0 6255.0,734.0 C 6276.0,702.0 6274.0,663.0 6250.0,633.0 C 6225.0,601.0 6224.0,574.0 6248.0,560.0 C 6264.0,550.0 6264.0,550.0 6248.0,540.0 C 6238.0,534.0 6230.0,520.0 6230.0,510.0 C 6230.0,497.0 6218.0,485.0 6195.0,476.0 C 6172.0,466.0 6160.0,454.0 6160.0,441.0 C 6160.0,409.0 6149.0,391.0 6134.0,397.0 C 6114.0,404.0 6115.0,320.0 6135.0,241.0 C 6150.0,184.0 6150.0,179.0 6130.0,140.0 L 6109.0,100.0 L 6140.0,55.0 C 6181.0,-4.0 6188.0,-7.0 6196.0,35.0 C 6200.0,58.0 6214.0,80.0 6236.0,98.0 C 6260.0,118.0 6272.0,139.0 6280.0,175.0 C 6286.0,202.0 6296.0,231.0 6303.0,239.0 C 6310.0,247.0 6315.0,282.0 6315.0,317.0 C 6315.0,380.0 6316.0,383.0 6352.0,412.0 C 6373.0,428.0 6399.0,462.0 6409.0,486.0 C 6420.0,510.0 6434.0,530.0 6440.0,530.0 C 6458.0,530.0 6529.0,613.0 6536.0,643.0 C 6539.0,658.0 6559.0,691.0 6580.0,715.0 C 6601.0,739.0 6626.0,780.0 6635.0,807.0 C 6644.0,833.0 6657.0,867.0 6662.0,883.0 C 6668.0,898.0 6678.0,910.0 6685.0,910.0 C 6697.0,910.0 6760.0,974.0 6760.0,986.0 C 6760.0,988.0 6753.0,1002.0 6744.0,1015.0 C 6735.0,1028.0 6729.0,1052.0 6730.0,1067.0 C 6734.0,1123.0 6729.0,1140.0 6702.0,1172.0 C 6665.0,1216.0 6623.0,1368.0 6640.0,1400.0 C 6658.0,1433.0 6643.0,1458.0 6599.0,1472.0 C 6554.0,1485.0 6492.0,1549.0 6484.0,1590.0 C 6482.0,1604.0 6473.0,1635.0 6464.0,1660.0 C 6435.0,1743.0 6435.0,1758.0 6464.0,1771.0 C 6499.0,1787.0 6504.0,1812.0 6490.0,1901.0 C 6483.0,1942.0 6475.0,2000.0 6470.0,2030.0 C 6466.0,2060.0 6449.0,2111.0 6432.0,2142.0 C 6415.0,2173.0 6398.0,2215.0 6394.0,2235.0 C 6391.0,2254.0 6384.0,2270.0 6380.0,2270.0 C 6375.0,2270.0 6343.0,2295.0 6308.0,2325.0 C 6273.0,2355.0 6226.0,2388.0 6202.0,2397.0 C 6165.0,2411.0 6159.0,2417.0 6154.0,2452.0 C 6147.0,2495.0 6116.0,2540.0 6095.0,2540.0 C 6087.0,2540.0 6075.0,2550.0 6069.0,2562.0 C 6062.0,2575.0 6040.0,2604.0 6019.0,2627.0 C 5984.0,2665.0 5980.0,2675.0 5980.0,2722.0 C 5980.0,2759.0 5974.0,2783.0 5960.0,2800.0 C 5937.0,2829.0 5937.0,2833.0 5950.0,2882.0 C 5959.0,2914.0 5965.0,2919.0 5999.0,2925.0 C 6030.0,2930.0 6040.0,2937.0 6045.0,2957.0 C 6050.0,2980.0 6054.0,2982.0 6091.0,2977.0 C 6127.0,2972.0 6132.0,2974.0 6141.0,2998.0 C 6148.0,3017.0 6149.0,3046.0 6142.0,3090.0 C 6130.0,3164.0 6137.0,3349.0 6152.0,3368.0 C 6158.0,3375.0 6185.0,3380.0 6215.0,3380.0 L 6268.0,3380.0 L 6293.0,3454.0 L 6318.0,3528.0 L 6291.0,3554.0 C 6255.0,3588.0 6243.0,3587.0 6223.0,3545.0 C 6200.0,3497.0 6183.0,3501.0 6174.0,3555.0 C 6171.0,3580.0 6150.0,3629.0 6129.0,3664.0 C 6094.0,3722.0 6091.0,3731.0 6101.0,3759.0 C 6125.0,3827.0 6092.0,3882.0 6020.0,3897.0 C 5998.0,3901.0 5988.0,3910.0 5984.0,3929.0 C 5980.0,3943.0 5956.0,3978.0 5930.0,4005.0 C 5904.0,4033.0 5875.0,4069.0 5867.0,4085.0 C 5858.0,4102.0 5806.0,4160.0 5751.0,4215.0 C 5695.0,4270.0 5650.0,4322.0 5650.0,4332.0 C 5650.0,4342.0 5658.0,4366.0 5667.0,4385.0 C 5684.0,4420.0 5684.0,4423.0 5667.0,4452.0 C 5658.0,4468.0 5650.0,4491.0 5650.0,4503.0 C 5650.0,4515.0 5641.0,4540.0 5630.0,4558.0 C 5614.0,4584.0 5604.0,4590.0 5576.0,4590.0 C 5538.0,4590.0 5510.0,4618.0 5510.0,4656.0 C 5510.0,4667.0 5501.0,4685.0 5490.0,4695.0 C 5472.0,4712.0 5462.0,4740.0 5475.0,4740.0 C 5478.0,4740.0 5498.0,4731.0 5519.0,4720.0 C 5557.0,4701.0 5558.0,4701.0 5575.0,4720.0 C 5587.0,4734.0 5600.0,4737.0 5625.0,4733.0 C 5651.0,4729.0 5660.0,4732.0 5674.0,4751.0 C 5683.0,4764.0 5690.0,4790.0 5690.0,4810.0 C 5690.0,4830.0 5697.0,4856.0 5706.0,4868.0 C 5714.0,4880.0 5717.0,4890.0 5713.0,4890.0 C 5708.0,4890.0 5689.0,4904.0 5670.0,4921.0 L 5636.0,4952.0 L 5667.0,4965.0 C 5702.0,4980.0 5738.0,5056.0 5725.0,5087.0 C 5707.0,5128.0 5735.0,5290.0 5761.0,5290.0 C 5782.0,5290.0 5830.0,5344.0 5836.0,5376.0 L 5842.0,5410.0 L 5909.0,5375.0 C 5967.0,5344.0 5981.0,5341.0 6005.0,5350.0 C 6020.0,5356.0 6048.0,5358.0 6067.0,5354.0 C 6094.0,5349.0 6108.0,5352.0 6131.0,5369.0 C 6173.0,5400.0 6235.0,5420.0 6291.0,5420.0 L 6339.0,5420.0 L 6345.0,5478.0 C 6348.0,5509.0 6356.0,5546.0 6363.0,5560.0 C 6375.0,5584.0 6381.0,5585.0 6461.0,5586.0 C 6566.0,5587.0 6604.0,5606.0 6597.0,5654.0 C 6595.0,5671.0 6590.0,5693.0 6585.0,5703.0 C 6579.0,5718.0 6585.0,5720.0 6639.0,5720.0 C 6689.0,5720.0 6710.0,5726.0 6762.0,5754.0 L 6823.0,5789.0 L 6871.0,5765.0 L 6918.0,5741.0 L 6935.0,5830.0 C 6952.0,5919.0 6953.0,5921.0 7000.0,5955.0 C 7041.0,5985.0 7056.0,5990.0 7102.0,5990.0 C 7144.0,5990.0 7161.0,5995.0 7174.0,6009.0 C 7191.0,6028.0 7191.0,6029.0 7156.0,6035.0 C 7125.0,6041.0 7120.0,6046.0 7120.0,6071.0 C 7120.0,6090.0 7125.0,6100.0 7135.0,6100.0 C 7154.0,6100.0 7200.0,6168.0 7200.0,6197.0 C 7200.0,6235.0 7211.0,6250.0 7234.0,6245.0 C 7250.0,6240.0 7277.0,6259.0 7351.0,6324.0 L 7447.0,6409.0 L 7435.0,6467.0 C 7429.0,6499.0 7419.0,6524.0 7414.0,6523.0 C 7409.0,6521.0 7376.0,6510.0 7340.0,6498.0 C 7304.0,6486.0 7269.0,6475.0 7263.0,6474.0 C 7256.0,6472.0 7250.0,6457.0 7250.0,6441.0 C 7250.0,6399.0 7241.0,6381.0 7211.0,6366.0 C 7159.0,6339.0 7123.0,6337.0 7101.0,6359.0 C 7079.0,6381.0 7045.0,6386.0 7021.0,6371.0 C 7012.0,6365.0 6992.0,6369.0 6963.0,6383.0 C 6927.0,6400.0 6920.0,6408.0 6922.0,6429.0 C 6925.0,6451.0 6919.0,6456.0 6885.0,6468.0 C 6829.0,6486.0 6821.0,6500.0 6832.0,6558.0 C 6841.0,6609.0 6838.0,6635.0 6815.0,6664.0 C 6805.0,6678.0 6797.0,6680.0 6788.0,6673.0 C 6767.0,6656.0 6698.0,6670.0 6693.0,6691.0 C 6688.0,6707.0 6678.0,6710.0 6619.0,6710.0 C 6582.0,6710.0 6539.0,6705.0 6524.0,6700.0 C 6504.0,6692.0 6488.0,6692.0 6467.0,6701.0 C 6440.0,6713.0 6438.0,6716.0 6443.0,6754.0 C 6446.0,6777.0 6465.0,6830.0 6485.0,6873.0 C 6520.0,6948.0 6521.0,6954.0 6510.0,7002.0 C 6502.0,7044.0 6502.0,7056.0 6514.0,7069.0 C 6522.0,7078.0 6533.0,7097.0 6539.0,7113.0 C 6545.0,7128.0 6556.0,7140.0 6565.0,7140.0 C 6575.0,7140.0 6580.0,7150.0 6580.0,7174.0 C 6580.0,7193.0 6583.0,7215.0 6586.0,7224.0 C 6590.0,7236.0 6586.0,7240.0 6571.0,7240.0 C 6559.0,7240.0 6536.0,7250.0 6519.0,7262.0 C 6490.0,7283.0 6488.0,7284.0 6476.0,7268.0 C 6458.0,7243.0 6409.0,7243.0 6353.0,7267.0 C 6327.0,7279.0 6297.0,7291.0 6287.0,7294.0 C 6273.0,7299.0 6271.0,7304.0 6280.0,7320.0 C 6295.0,7349.0 6267.0,7442.0 6236.0,7462.0 C 6228.0,7467.0 6229.0,7473.0 6238.0,7482.0 C 6262.0,7506.0 6252.0,7547.0 6210.0,7592.0 C 6149.0,7659.0 6145.0,7716.0 6201.0,7745.0 C 6229.0,7760.0 6267.0,7806.0 6259.0,7815.0 C 6256.0,7817.0 6237.0,7815.0 6215.0,7810.0 C 6162.0,7797.0 6103.0,7798.0 6080.0,7810.0 C 6053.0,7825.0 5875.0,7802.0 5826.0,7778.0 C 5805.0,7767.0 5764.0,7739.0 5735.0,7715.0 C 5666.0,7659.0 5644.0,7652.0 5617.0,7679.0 L 5596.0,7699.0 L 5633.0,7753.0 C 5671.0,7807.0 5681.0,7856.0 5656.0,7866.0 C 5648.0,7869.0 5645.0,7880.0 5647.0,7894.0 C 5653.0,7922.0 5635.0,7960.0 5616.0,7960.0 C 5586.0,7960.0 5577.0,7988.0 5585.0,8057.0 C 5592.0,8126.0 5608.0,8151.0 5668.0,8190.0 C 5689.0,8204.0 5689.0,8208.0 5678.0,8237.0 C 5668.0,8264.0 5669.0,8280.0 5680.0,8327.0 C 5695.0,8383.0 5696.0,8385.0 5742.0,8398.0 C 5811.0,8417.0 5871.0,8491.0 5885.0,8573.0 C 5892.0,8614.0 5910.0,8621.0 5947.0,8595.0 C 5968.0,8580.0 5970.0,8582.0 6012.0,8656.0 C 6054.0,8730.0 6055.0,8731.0 6091.0,8729.0 C 6126.0,8726.0 6160.0,8742.0 6160.0,8761.0 C 6160.0,8765.0 6142.0,8790.0 6120.0,8815.0 C 6098.0,8840.0 6080.0,8865.0 6080.0,8870.0 C 6080.0,8875.0 6098.0,8896.0 6120.0,8916.0 C 6166.0,8959.0 6168.0,8966.0 6139.0,8975.0 C 6124.0,8980.0 6119.0,8988.0 6124.0,9003.0 C 6127.0,9015.0 6139.0,9061.0 6151.0,9105.0 C 6173.0,9188.0 6173.0,9218.0 6150.0,9370.0 C 6144.0,9406.0 6138.0,9491.0 6136.0,9560.0 C 6134.0,9629.0 6132.0,9693.0 6131.0,9703.0 C 6130.0,9715.0 6122.0,9720.0 6101.0,9720.0 C 6080.0,9720.0 6069.0,9726.0 6065.0,9740.0 C 6057.0,9765.0 6000.0,9769.0 6000.0,9745.0 C 6000.0,9737.0 5987.0,9716.0 5970.0,9698.0 L 5941.0,9665.0 L 5940.0,9693.0 C 5940.0,9708.0 5932.0,9737.0 5921.0,9758.0 C 5911.0,9778.0 5900.0,9816.0 5896.0,9841.0 C 5892.0,9867.0 5883.0,9896.0 5875.0,9906.0 C 5867.0,9917.0 5860.0,9946.0 5860.0,9971.0 C 5860.0,10009.0 5854.0,10024.0 5831.0,10049.0 C 5814.0,10067.0 5798.0,10090.0 5795.0,10101.0 C 5786.0,10129.0 5733.0,10153.0 5694.0,10147.0 C 5662.0,10142.0 5661.0,10143.0 5658.0,10178.0 C 5655.0,10211.0 5652.0,10215.0 5628.0,10215.0 C 5612.0,10216.0 5595.0,10221.0 5588.0,10228.0 C 5575.0,10241.0 5564.0,10242.0 5540.0,10233.0" fill="pink"/>
	<path d="M 3457.0,4933.0 C 3435.0,4929.0 3430.0,4925.0 3436.0,4912.0 C 3439.0,4903.0 3445.0,4885.0 3447.0,4873.0 C 3450.0,4859.0 3460.0,4850.0 3471.0,4850.0 C 3482.0,4850.0 3490.0,4845.0 3490.0,4840.0 C 3490.0,4834.0 3502.0,4825.0 3517.0,4819.0 C 3537.0,4811.0 3547.0,4813.0 3558.0,4824.0 C 3589.0,4855.0 3543.0,4944.0 3498.0,4939.0 C 3491.0,4938.0 3472.0,4935.0 3457.0,4933.0" fill="pink"/>
	<path d="M 6020.0,1435.0 C 6015.0,1421.0 6006.0,1410.0 6000.0,1410.0 C 5987.0,1410.0 5987.0,1373.0 6000.0,1365.0 C 6006.0,1362.0 6010.0,1343.0 6010.0,1324.0 C 6010.0,1286.0 6011.0,1285.0 6056.0,1302.0 C 6089.0,1314.0 6100.0,1333.0 6100.0,1382.0 C 6100.0,1402.0 6096.0,1408.0 6085.0,1404.0 C 6075.0,1400.0 6070.0,1404.0 6070.0,1417.0 C 6070.0,1437.0 6052.0,1460.0 6038.0,1460.0 C 6033.0,1460.0 6025.0,1449.0 6020.0,1435.0" fill="pink"/>
	<path d="M 5834.0,1295.0 C 5826.0,1261.0 5834.0,1254.0 5866.0,1268.0 C 5893.0,1281.0 5891.0,1293.0 5860.0,1310.0 C 5843.0,1319.0 5839.0,1316.0 5834.0,1295.0" fill="pink"/>
	<path d="M 5890.0,1221.0 C 5903.0,1196.0 5923.0,1193.0 5918.0,1217.0 C 5916.0,1227.0 5907.0,1236.0 5897.0,1238.0 C 5881.0,1241.0 5880.0,1239.0 5890.0,1221.0" fill="pink"/>
	<path d="M 5870.0,973.0 C 5870.0,942.0 5885.0,912.0 5896.0,922.0 C 5905.0,932.0 5891.0,1000.0 5880.0,1000.0 C 5874.0,1000.0 5870.0,988.0 5870.0,973.0" fill="pink"/>
	<path d="M 5997.0,984.0 C 5989.0,970.0 5960.0,850.0 5960.0,829.0 C 5960.0,795.0 5988.0,809.0 6010.0,855.0 C 6026.0,888.0 6030.0,908.0 6025.0,932.0 C 6016.0,973.0 6004.0,995.0 5997.0,984.0" fill="pink"/>
	<path d="M 6070.0,938.0 C 6070.0,909.0 6074.0,880.0 6078.0,873.0 C 6085.0,862.0 6140.0,836.0 6145.0,842.0 C 6146.0,844.0 6150.0,873.0 6153.0,908.0 C 6158.0,968.0 6157.0,972.0 6133.0,981.0 C 6079.0,1001.0 6070.0,995.0 6070.0,938.0" fill="pink"/>
</svg>
