<?xml version="1.0" ?>
<svg xmlns="http://www.w3.org/2000/svg" xmlns:ev="http://www.w3.org/2001/xml-events" xmlns:xlink="http://www.w3.org/1999/xlink" baseProfile="full" height="301px" version="1.1" viewBox="-1029.0224788127423 2046.6396688535053 12297.074597553268 6161.047192905235" width="600px">
	<defs/>
	<path d="M 3549.0,7630.0 C 3525.0,7563.0 3496.0,7534.0 3443.0,7524.0 C 3413.0,7518.0 3405.0,7510.0 3389.0,7472.0 C 3362.0,7410.0 3352.0,7398.0 3331.0,7409.0 C 3305.0,7423.0 3275.0,7392.0 3260.0,7335.0 C 3253.0,7308.0 3238.0,7273.0 3228.0,7258.0 C 3206.0,7226.0 3205.0,7173.0 3226.0,7149.0 C 3235.0,7139.0 3244.0,7118.0 3246.0,7102.0 C 3251.0,7058.0 3287.0,6982.0 3309.0,6968.0 C 3327.0,6957.0 3328.0,6949.0 3323.0,6890.0 C 3316.0,6822.0 3272.0,6730.0 3245.0,6730.0 C 3238.0,6730.0 3221.0,6721.0 3208.0,6710.0 C 3189.0,6696.0 3174.0,6692.0 3148.0,6696.0 C 3111.0,6702.0 3080.0,6683.0 3080.0,6654.0 C 3080.0,6638.0 3023.0,6610.0 2992.0,6610.0 C 2982.0,6610.0 2967.0,6621.0 2960.0,6635.0 C 2952.0,6649.0 2924.0,6674.0 2896.0,6691.0 C 2848.0,6721.0 2845.0,6721.0 2814.0,6707.0 C 2786.0,6693.0 2781.0,6693.0 2776.0,6706.0 C 2773.0,6714.0 2761.0,6720.0 2750.0,6720.0 C 2738.0,6720.0 2713.0,6732.0 2694.0,6746.0 C 2667.0,6767.0 2653.0,6771.0 2628.0,6766.0 C 2606.0,6762.0 2591.0,6765.0 2578.0,6777.0 C 2563.0,6791.0 2556.0,6791.0 2536.0,6780.0 C 2521.0,6772.0 2498.0,6770.0 2473.0,6774.0 C 2452.0,6778.0 2413.0,6784.0 2385.0,6787.0 C 2328.0,6793.0 2313.0,6802.0 2308.0,6833.0 C 2305.0,6852.0 2297.0,6856.0 2245.0,6860.0 C 2192.0,6864.0 2185.0,6868.0 2182.0,6888.0 C 2180.0,6900.0 2170.0,6915.0 2159.0,6920.0 C 2142.0,6929.0 2140.0,6942.0 2140.0,7025.0 C 2140.0,7082.0 2136.0,7121.0 2129.0,7126.0 C 2123.0,7129.0 2084.0,7136.0 2041.0,7141.0 C 1999.0,7146.0 1949.0,7156.0 1930.0,7163.0 C 1870.0,7188.0 1796.0,7210.0 1777.0,7210.0 C 1756.0,7210.0 1743.0,7237.0 1758.0,7252.0 C 1773.0,7267.0 1755.0,7300.0 1731.0,7300.0 C 1721.0,7300.0 1705.0,7291.0 1695.0,7280.0 C 1669.0,7252.0 1659.0,7255.0 1621.0,7305.0 C 1583.0,7356.0 1573.0,7360.0 1561.0,7326.0 C 1548.0,7293.0 1524.0,7287.0 1453.0,7301.0 C 1397.0,7312.0 1389.0,7312.0 1364.0,7294.0 C 1350.0,7284.0 1328.0,7270.0 1317.0,7263.0 C 1306.0,7257.0 1294.0,7246.0 1289.0,7239.0 C 1283.0,7229.0 1259.0,7226.0 1202.0,7229.0 C 1140.0,7231.0 1121.0,7228.0 1111.0,7216.0 C 1103.0,7207.0 1087.0,7200.0 1074.0,7200.0 C 1061.0,7200.0 1046.0,7191.0 1040.0,7180.0 C 1033.0,7166.0 1019.0,7160.0 996.0,7160.0 C 978.0,7160.0 941.0,7153.0 914.0,7145.0 C 887.0,7137.0 855.0,7130.0 843.0,7130.0 C 831.0,7130.0 815.0,7121.0 807.0,7109.0 C 797.0,7096.0 777.0,7086.0 748.0,7083.0 C 681.0,7074.0 667.0,7063.0 673.0,7027.0 C 679.0,6983.0 672.0,6970.0 645.0,6970.0 C 632.0,6970.0 609.0,6965.0 595.0,6958.0 C 576.0,6949.0 567.0,6949.0 558.0,6958.0 C 539.0,6977.0 510.0,6972.0 510.0,6951.0 C 510.0,6922.0 437.0,6905.0 427.0,6933.0 C 424.0,6942.0 416.0,6942.0 392.0,6934.0 C 366.0,6924.0 359.0,6925.0 344.0,6941.0 C 331.0,6956.0 313.0,6960.0 268.0,6960.0 C 196.0,6960.0 174.0,6949.0 165.0,6910.0 C 161.0,6894.0 153.0,6880.0 147.0,6880.0 C 140.0,6880.0 116.0,6872.0 93.0,6863.0 C 49.0,6844.0 24.0,6810.0 42.0,6792.0 C 56.0,6778.0 43.0,6760.0 19.0,6760.0 C 4.0,6760.0 0.0,6753.0 0.0,6721.0 C 0.0,6688.0 5.0,6679.0 35.0,6659.0 C 68.0,6636.0 69.0,6635.0 51.0,6615.0 C 18.0,6579.0 21.0,6567.0 69.0,6531.0 C 94.0,6512.0 117.0,6492.0 119.0,6486.0 C 121.0,6481.0 134.0,6466.0 147.0,6454.0 C 163.0,6440.0 173.0,6418.0 175.0,6393.0 C 178.0,6363.0 188.0,6346.0 227.0,6310.0 C 253.0,6285.0 283.0,6253.0 292.0,6238.0 C 311.0,6209.0 363.0,6192.0 384.0,6209.0 C 401.0,6223.0 460.0,6212.0 460.0,6195.0 C 460.0,6188.0 469.0,6162.0 480.0,6136.0 C 501.0,6091.0 506.0,6087.0 560.0,6086.0 C 580.0,6085.0 586.0,6079.0 588.0,6057.0 C 590.0,6039.0 603.0,6022.0 625.0,6007.0 C 662.0,5983.0 668.0,5964.0 675.0,5854.0 C 678.0,5815.0 687.0,5764.0 695.0,5740.0 C 703.0,5717.0 710.0,5689.0 710.0,5679.0 C 710.0,5670.0 722.0,5652.0 738.0,5640.0 C 772.0,5613.0 784.0,5550.0 780.0,5425.0 C 779.0,5393.0 772.0,5380.0 745.0,5357.0 L 711.0,5329.0 L 717.0,5245.0 C 721.0,5182.0 720.0,5160.0 711.0,5160.0 C 705.0,5160.0 677.0,5139.0 649.0,5114.0 C 610.0,5077.0 596.0,5054.0 581.0,5006.0 C 564.0,4951.0 564.0,4943.0 577.0,4928.0 C 587.0,4917.0 590.0,4901.0 587.0,4883.0 C 579.0,4843.0 608.0,4770.0 632.0,4770.0 C 643.0,4770.0 671.0,4757.0 695.0,4740.0 C 719.0,4724.0 750.0,4710.0 764.0,4710.0 C 778.0,4710.0 791.0,4706.0 795.0,4701.0 C 806.0,4682.0 863.0,4661.0 921.0,4654.0 C 954.0,4650.0 991.0,4640.0 1003.0,4630.0 C 1045.0,4597.0 1117.0,4577.0 1171.0,4582.0 C 1210.0,4586.0 1231.0,4583.0 1254.0,4569.0 C 1271.0,4560.0 1308.0,4548.0 1335.0,4544.0 C 1363.0,4541.0 1410.0,4525.0 1440.0,4510.0 C 1512.0,4473.0 1670.0,4330.0 1693.0,4279.0 C 1703.0,4258.0 1721.0,4235.0 1733.0,4229.0 C 1745.0,4222.0 1767.0,4202.0 1783.0,4184.0 C 1798.0,4166.0 1835.0,4137.0 1866.0,4119.0 C 1916.0,4091.0 1928.0,4088.0 1986.0,4092.0 C 2021.0,4094.0 2050.0,4093.0 2050.0,4090.0 C 2050.0,4087.0 2041.0,4074.0 2030.0,4060.0 C 2019.0,4046.0 2010.0,4019.0 2010.0,4000.0 C 2010.0,3971.0 2016.0,3961.0 2043.0,3944.0 C 2073.0,3924.0 2080.0,3910.0 2113.0,3799.0 C 2134.0,3730.0 2150.0,3654.0 2150.0,3627.0 C 2150.0,3583.0 2157.0,3568.0 2219.0,3477.0 C 2265.0,3409.0 2290.0,3361.0 2295.0,3334.0 L 2301.0,3293.0 L 2362.0,3286.0 C 2447.0,3277.0 2528.0,3278.0 2548.0,3289.0 C 2560.0,3294.0 2622.0,3280.0 2740.0,3244.0 C 2873.0,3204.0 2975.0,3181.0 3165.0,3150.0 L 3415.0,3108.0 L 3490.0,3124.0 C 3536.0,3134.0 3583.0,3138.0 3611.0,3134.0 C 3638.0,3130.0 3665.0,3132.0 3678.0,3139.0 C 3718.0,3160.0 3871.0,3135.0 4047.0,3077.0 L 4209.0,3024.0 L 4258.0,2959.0 C 4303.0,2901.0 4314.0,2893.0 4373.0,2873.0 C 4409.0,2860.0 4460.0,2850.0 4486.0,2850.0 C 4525.0,2850.0 4555.0,2838.0 4657.0,2784.0 C 4821.0,2697.0 4902.0,2670.0 4999.0,2670.0 C 5041.0,2670.0 5092.0,2675.0 5113.0,2681.0 C 5171.0,2697.0 5187.0,2687.0 5186.0,2637.0 L 5185.0,2595.0 L 5249.0,2592.0 C 5285.0,2590.0 5323.0,2582.0 5336.0,2573.0 C 5359.0,2558.0 5362.0,2559.0 5410.0,2604.0 C 5437.0,2629.0 5464.0,2650.0 5471.0,2650.0 C 5477.0,2650.0 5509.0,2666.0 5542.0,2686.0 C 5657.0,2756.0 6017.0,2917.0 6088.0,2930.0 C 6125.0,2937.0 6168.0,2952.0 6185.0,2965.0 C 6230.0,2998.0 6255.0,3003.0 6289.0,2985.0 C 6315.0,2972.0 6331.0,2971.0 6385.0,2980.0 C 6420.0,2986.0 6462.0,2995.0 6477.0,3001.0 C 6492.0,3006.0 6516.0,3008.0 6530.0,3005.0 C 6573.0,2993.0 6749.0,2997.0 6764.0,3009.0 C 6773.0,3016.0 6797.0,3018.0 6834.0,3014.0 C 6868.0,3010.0 6895.0,3011.0 6902.0,3018.0 C 6909.0,3024.0 6933.0,3031.0 6955.0,3035.0 C 6978.0,3040.0 7020.0,3061.0 7054.0,3086.0 C 7092.0,3114.0 7124.0,3130.0 7143.0,3130.0 C 7189.0,3130.0 7298.0,3196.0 7314.0,3234.0 C 7321.0,3251.0 7339.0,3276.0 7354.0,3289.0 C 7368.0,3303.0 7380.0,3319.0 7380.0,3326.0 C 7380.0,3333.0 7406.0,3374.0 7439.0,3418.0 C 7485.0,3480.0 7507.0,3501.0 7541.0,3514.0 C 7565.0,3524.0 7599.0,3545.0 7617.0,3561.0 C 7636.0,3577.0 7657.0,3590.0 7664.0,3590.0 C 7671.0,3590.0 7689.0,3608.0 7704.0,3630.0 C 7718.0,3652.0 7743.0,3676.0 7759.0,3684.0 C 7775.0,3693.0 7790.0,3710.0 7792.0,3724.0 C 7799.0,3759.0 7744.0,3839.0 7677.0,3891.0 C 7599.0,3953.0 7574.0,4016.0 7605.0,4070.0 C 7613.0,4084.0 7619.0,4113.0 7620.0,4134.0 C 7620.0,4156.0 7635.0,4208.0 7653.0,4251.0 C 7694.0,4348.0 7728.0,4370.0 7836.0,4370.0 C 7905.0,4370.0 7907.0,4369.0 7943.0,4331.0 C 7985.0,4286.0 7990.0,4284.0 8168.0,4270.0 L 8302.0,4259.0 L 8344.0,4298.0 C 8367.0,4319.0 8404.0,4346.0 8426.0,4359.0 C 8450.0,4372.0 8474.0,4396.0 8483.0,4415.0 C 8492.0,4433.0 8519.0,4471.0 8544.0,4499.0 C 8575.0,4533.0 8590.0,4560.0 8590.0,4578.0 C 8590.0,4598.0 8600.0,4611.0 8625.0,4628.0 C 8656.0,4650.0 8663.0,4651.0 8695.0,4640.0 C 8725.0,4630.0 8739.0,4631.0 8773.0,4643.0 C 8796.0,4652.0 8835.0,4662.0 8860.0,4665.0 C 8926.0,4676.0 8969.0,4701.0 8993.0,4746.0 C 9006.0,4768.0 9038.0,4800.0 9069.0,4821.0 C 9135.0,4865.0 9143.0,4879.0 9129.0,4919.0 C 9114.0,4962.0 9123.0,5001.0 9164.0,5069.0 C 9222.0,5164.0 9294.0,5210.0 9385.0,5210.0 C 9437.0,5211.0 9460.0,5229.0 9460.0,5269.0 C 9460.0,5334.0 9488.0,5355.0 9535.0,5324.0 C 9567.0,5303.0 9588.0,5312.0 9601.0,5350.0 C 9607.0,5366.0 9618.0,5380.0 9626.0,5380.0 C 9634.0,5380.0 9660.0,5400.0 9685.0,5424.0 C 9726.0,5465.0 9730.0,5467.0 9749.0,5453.0 C 9767.0,5441.0 9777.0,5441.0 9806.0,5450.0 C 9825.0,5457.0 9851.0,5460.0 9862.0,5457.0 C 9876.0,5453.0 9884.0,5457.0 9887.0,5471.0 C 9892.0,5490.0 9938.0,5498.0 9954.0,5483.0 C 9958.0,5478.0 9980.0,5470.0 10003.0,5465.0 C 10036.0,5456.0 10054.0,5458.0 10094.0,5472.0 C 10122.0,5481.0 10157.0,5489.0 10173.0,5490.0 C 10190.0,5490.0 10200.0,5495.0 10200.0,5505.0 C 10200.0,5513.0 10209.0,5524.0 10220.0,5530.0 C 10249.0,5545.0 10245.0,5584.0 10207.0,5660.0 C 10179.0,5716.0 10165.0,5732.0 10105.0,5772.0 C 10066.0,5798.0 10020.0,5833.0 10001.0,5850.0 C 9981.0,5868.0 9956.0,5880.0 9940.0,5880.0 C 9916.0,5880.0 9911.0,5885.0 9906.0,5913.0 C 9900.0,5946.0 9898.0,5947.0 9833.0,5956.0 C 9768.0,5965.0 9766.0,5966.0 9740.0,6010.0 L 9714.0,6055.0 L 9635.0,6058.0 C 9585.0,6060.0 9547.0,6056.0 9532.0,6048.0 C 9515.0,6039.0 9502.0,6039.0 9480.0,6047.0 L 9451.0,6058.0 L 9395.0,5949.0 L 9340.0,5841.0 L 9265.0,5875.0 C 9161.0,5922.0 9113.0,5928.0 9076.0,5897.0 C 9050.0,5876.0 9041.0,5874.0 9006.0,5882.0 C 8972.0,5890.0 8963.0,5888.0 8955.0,5875.0 C 8926.0,5825.0 8888.0,5780.0 8877.0,5780.0 C 8871.0,5781.0 8837.0,5803.0 8803.0,5831.0 C 8744.0,5878.0 8740.0,5883.0 8740.0,5922.0 C 8740.0,5957.0 8746.0,5971.0 8776.0,6001.0 L 8813.0,6038.0 L 8800.0,6102.0 C 8789.0,6163.0 8790.0,6170.0 8814.0,6230.0 C 8828.0,6265.0 8840.0,6305.0 8840.0,6319.0 C 8840.0,6333.0 8867.0,6448.0 8900.0,6575.0 L 8959.0,6804.0 L 8938.0,6827.0 C 8926.0,6840.0 8908.0,6850.0 8899.0,6850.0 C 8889.0,6850.0 8865.0,6858.0 8846.0,6867.0 C 8816.0,6881.0 8804.0,6881.0 8771.0,6872.0 C 8749.0,6865.0 8721.0,6847.0 8708.0,6831.0 C 8687.0,6807.0 8675.0,6802.0 8612.0,6797.0 L 8539.0,6791.0 L 8508.0,6826.0 C 8438.0,6903.0 8338.0,6942.0 8284.0,6912.0 C 8268.0,6904.0 8257.0,6904.0 8236.0,6915.0 C 8201.0,6934.0 8180.0,6925.0 8130.0,6868.0 C 8107.0,6841.0 8081.0,6820.0 8072.0,6820.0 C 8062.0,6820.0 8013.0,6780.0 7963.0,6732.0 C 7872.0,6647.0 7870.0,6643.0 7870.0,6599.0 C 7870.0,6554.0 7869.0,6553.0 7830.0,6540.0 C 7808.0,6533.0 7785.0,6521.0 7779.0,6514.0 C 7772.0,6505.0 7754.0,6503.0 7726.0,6506.0 C 7692.0,6511.0 7677.0,6508.0 7647.0,6487.0 C 7602.0,6456.0 7498.0,6420.0 7455.0,6420.0 C 7438.0,6420.0 7415.0,6413.0 7403.0,6405.0 C 7391.0,6397.0 7375.0,6393.0 7367.0,6396.0 C 7349.0,6403.0 7295.0,6376.0 7287.0,6357.0 C 7281.0,6341.0 7165.0,6270.0 7145.0,6270.0 C 7137.0,6270.0 7115.0,6277.0 7096.0,6287.0 C 7065.0,6301.0 7059.0,6302.0 7038.0,6288.0 C 7008.0,6268.0 6865.0,6266.0 6849.0,6286.0 C 6842.0,6294.0 6828.0,6297.0 6810.0,6293.0 C 6788.0,6289.0 6776.0,6293.0 6758.0,6312.0 C 6728.0,6345.0 6690.0,6354.0 6663.0,6335.0 C 6651.0,6327.0 6634.0,6323.0 6626.0,6326.0 C 6617.0,6329.0 6580.0,6327.0 6543.0,6320.0 L 6476.0,6307.0 L 6430.0,6357.0 C 6405.0,6385.0 6373.0,6411.0 6357.0,6414.0 C 6326.0,6421.0 6290.0,6472.0 6290.0,6508.0 C 6290.0,6575.0 6236.0,6610.0 6130.0,6610.0 C 6079.0,6610.0 6076.0,6612.0 6006.0,6679.0 C 5967.0,6716.0 5925.0,6753.0 5913.0,6759.0 C 5901.0,6765.0 5858.0,6770.0 5818.0,6769.0 C 5765.0,6768.0 5731.0,6774.0 5692.0,6789.0 C 5663.0,6801.0 5620.0,6810.0 5597.0,6810.0 C 5574.0,6810.0 5537.0,6817.0 5513.0,6826.0 C 5471.0,6842.0 5470.0,6842.0 5440.0,6816.0 C 5408.0,6789.0 5325.0,6760.0 5281.0,6760.0 C 5236.0,6760.0 5190.0,6742.0 5154.0,6711.0 C 5118.0,6679.0 5089.0,6673.0 5045.0,6690.0 C 5026.0,6697.0 5006.0,6697.0 4980.0,6689.0 C 4949.0,6679.0 4938.0,6680.0 4920.0,6693.0 C 4904.0,6704.0 4891.0,6706.0 4874.0,6700.0 C 4855.0,6692.0 4848.0,6695.0 4839.0,6713.0 C 4822.0,6744.0 4799.0,6759.0 4767.0,6760.0 C 4752.0,6760.0 4723.0,6770.0 4702.0,6783.0 C 4682.0,6795.0 4656.0,6810.0 4645.0,6816.0 C 4634.0,6822.0 4624.0,6836.0 4622.0,6846.0 C 4620.0,6858.0 4606.0,6871.0 4588.0,6878.0 C 4559.0,6889.0 4558.0,6892.0 4563.0,6929.0 C 4567.0,6960.0 4564.0,6973.0 4549.0,6986.0 C 4534.0,6999.0 4533.0,7006.0 4542.0,7017.0 C 4551.0,7028.0 4551.0,7040.0 4541.0,7067.0 C 4534.0,7086.0 4527.0,7138.0 4526.0,7181.0 C 4525.0,7224.0 4520.0,7264.0 4515.0,7269.0 C 4495.0,7289.0 4363.0,7332.0 4325.0,7332.0 C 4296.0,7331.0 4274.0,7338.0 4245.0,7360.0 C 4223.0,7376.0 4166.0,7410.0 4118.0,7435.0 C 4048.0,7471.0 4020.0,7480.0 3980.0,7480.0 C 3918.0,7480.0 3867.0,7500.0 3846.0,7532.0 C 3836.0,7548.0 3809.0,7563.0 3773.0,7574.0 C 3741.0,7584.0 3704.0,7603.0 3690.0,7617.0 C 3662.0,7645.0 3594.0,7690.0 3580.0,7690.0 C 3575.0,7690.0 3561.0,7663.0 3549.0,7630.0" fill="pink"/>
</svg>
