<?xml version="1.0" ?>
<svg xmlns="http://www.w3.org/2000/svg" xmlns:ev="http://www.w3.org/2001/xml-events" xmlns:xlink="http://www.w3.org/1999/xlink" baseProfile="full" height="600px" version="1.1" viewBox="-13.858865793418772 -1027.609853536754 10272.136733793364 12297.683265877004" width="502px">
	<defs/>
	<path d="M 4703.0,10168.0 C 4610.0,10101.0 4598.0,10088.0 4552.0,10010.0 C 4524.0,9963.0 4455.0,9826.0 4399.0,9705.0 C 4330.0,9556.0 4258.0,9422.0 4176.0,9288.0 L 4055.0,9092.0 L 3984.0,9085.0 C 3917.0,9078.0 3905.0,9081.0 3736.0,9135.0 C 3558.0,9192.0 3558.0,9192.0 3203.0,9234.0 L 2848.0,9276.0 L 2591.0,9158.0 C 2450.0,9094.0 2331.0,9039.0 2327.0,9038.0 C 2323.0,9036.0 2339.0,8980.0 2362.0,8913.0 C 2402.0,8801.0 2407.0,8791.0 2427.0,8796.0 C 2445.0,8801.0 2450.0,8797.0 2456.0,8776.0 C 2461.0,8755.0 2467.0,8750.0 2489.0,8752.0 C 2510.0,8754.0 2516.0,8750.0 2518.0,8731.0 C 2522.0,8702.0 2504.0,8689.0 2471.0,8697.0 C 2449.0,8702.0 2448.0,8701.0 2454.0,8674.0 C 2458.0,8658.0 2463.0,8644.0 2465.0,8642.0 C 2467.0,8640.0 2486.0,8648.0 2509.0,8659.0 C 2531.0,8671.0 2551.0,8680.0 2554.0,8680.0 C 2556.0,8680.0 2564.0,8663.0 2571.0,8643.0 C 2582.0,8609.0 2581.0,8605.0 2556.0,8584.0 C 2538.0,8567.0 2530.0,8551.0 2530.0,8527.0 C 2530.0,8483.0 2557.0,8405.0 2588.0,8357.0 C 2611.0,8322.0 2612.0,8319.0 2596.0,8302.0 C 2578.0,8281.0 2584.0,8270.0 2614.0,8270.0 C 2644.0,8270.0 2696.0,8134.0 2676.0,8110.0 C 2658.0,8089.0 2667.0,8070.0 2696.0,8070.0 C 2716.0,8070.0 2722.0,8062.0 2736.0,8014.0 C 2753.0,7956.0 2748.0,7941.0 2713.0,7940.0 C 2695.0,7940.0 2697.0,7932.0 2728.0,7875.0 C 2753.0,7829.0 2758.0,7825.0 2797.0,7822.0 C 2832.0,7819.0 2840.0,7814.0 2850.0,7789.0 C 2864.0,7756.0 2861.0,7756.0 2919.0,7774.0 C 2979.0,7791.0 2988.0,7815.0 2932.0,7807.0 C 2895.0,7801.0 2880.0,7809.0 2880.0,7835.0 C 2880.0,7840.0 3002.0,7880.0 3017.0,7880.0 C 3024.0,7880.0 3038.0,7864.0 3047.0,7845.0 C 3056.0,7825.0 3069.0,7811.0 3074.0,7813.0 C 3080.0,7815.0 3142.0,7834.0 3212.0,7856.0 C 3307.0,7885.0 3340.0,7899.0 3340.0,7911.0 C 3340.0,7926.0 3334.0,7926.0 3278.0,7914.0 C 3197.0,7897.0 3200.0,7897.0 3200.0,7919.0 C 3200.0,7941.0 3184.0,7935.0 3573.0,8052.0 C 3740.0,8103.0 3780.0,8118.0 3780.0,8132.0 C 3780.0,8154.0 3769.0,8154.0 3706.0,8135.0 C 3640.0,8115.0 3640.0,8115.0 3640.0,8154.0 C 3640.0,8188.0 3640.0,8188.0 3710.0,8205.0 C 3751.0,8215.0 3780.0,8227.0 3780.0,8235.0 C 3780.0,8245.0 3762.0,8243.0 3703.0,8229.0 C 3660.0,8220.0 3624.0,8212.0 3623.0,8213.0 C 3623.0,8214.0 3614.0,8244.0 3605.0,8279.0 C 3594.0,8323.0 3592.0,8345.0 3599.0,8350.0 C 3605.0,8353.0 3641.0,8364.0 3679.0,8374.0 C 3739.0,8390.0 3772.0,8412.0 3756.0,8427.0 C 3754.0,8429.0 3697.0,8420.0 3629.0,8407.0 C 3508.0,8384.0 3505.0,8383.0 3502.0,8402.0 C 3500.0,8413.0 3500.0,8423.0 3502.0,8425.0 C 3504.0,8427.0 3541.0,8435.0 3585.0,8442.0 C 3664.0,8455.0 3664.0,8455.0 3673.0,8491.0 L 3681.0,8527.0 L 3787.0,8545.0 C 3889.0,8561.0 3893.0,8561.0 3911.0,8543.0 C 3926.0,8528.0 4160.0,7812.0 4160.0,7781.0 C 4160.0,7775.0 4152.0,7766.0 4141.0,7761.0 C 4131.0,7755.0 3856.0,7665.0 3530.0,7560.0 C 3203.0,7455.0 2933.0,7367.0 2928.0,7364.0 C 2924.0,7361.0 2920.0,7330.0 2920.0,7295.0 L 2920.0,7231.0 L 3015.0,7165.0 L 3109.0,7099.0 L 3262.0,7148.0 L 3415.0,7197.0 L 3428.0,7168.0 C 3435.0,7151.0 3446.0,7140.0 3453.0,7143.0 C 3567.0,7185.0 3579.0,7185.0 3593.0,7145.0 C 3595.0,7140.0 3628.0,7145.0 3672.0,7157.0 L 3748.0,7178.0 L 3776.0,7083.0 L 3804.0,6989.0 L 3847.0,6996.0 C 3883.0,7001.0 3889.0,7000.0 3884.0,6987.0 C 3881.0,6977.0 3857.0,6970.0 3812.0,6965.0 C 3775.0,6961.0 3647.0,6938.0 3526.0,6914.0 L 3307.0,6870.0 L 3273.0,6900.0 C 3255.0,6917.0 3233.0,6930.0 3225.0,6930.0 C 3182.0,6930.0 3108.0,6903.0 3075.0,6875.0 C 3043.0,6849.0 3036.0,6836.0 3030.0,6792.0 C 3027.0,6763.0 3028.0,6739.0 3033.0,6737.0 C 3038.0,6736.0 3038.0,6718.0 3031.0,6695.0 C 3015.0,6638.0 3017.0,6593.0 3035.0,6586.0 C 3061.0,6576.0 3027.0,6522.0 2993.0,6518.0 C 2967.0,6515.0 2965.0,6511.0 2944.0,6395.0 C 2931.0,6329.0 2916.0,6259.0 2911.0,6240.0 C 2895.0,6187.0 2897.0,6180.0 2930.0,6180.0 C 2949.0,6180.0 2960.0,6175.0 2960.0,6166.0 C 2960.0,6159.0 2963.0,6138.0 2966.0,6121.0 C 2972.0,6094.0 2970.0,6090.0 2952.0,6090.0 C 2924.0,6090.0 2912.0,6036.0 2934.0,6011.0 C 2955.0,5988.0 2955.0,5960.0 2934.0,5960.0 C 2920.0,5960.0 2918.0,5953.0 2923.0,5920.0 C 2928.0,5880.0 2928.0,5880.0 2894.0,5880.0 C 2857.0,5880.0 2859.0,5884.0 2826.0,5740.0 C 2804.0,5646.0 2804.0,5640.0 2841.0,5640.0 C 2872.0,5640.0 2873.0,5640.0 2866.0,5598.0 C 2863.0,5574.0 2850.0,5513.0 2839.0,5463.0 C 2820.0,5378.0 2816.0,5370.0 2795.0,5370.0 C 2764.0,5370.0 2757.0,5355.0 2736.0,5250.0 C 2726.0,5203.0 2716.0,5157.0 2714.0,5148.0 C 2709.0,5133.0 2715.0,5130.0 2751.0,5130.0 C 2792.0,5130.0 2792.0,5130.0 2786.0,5099.0 C 2783.0,5082.0 2780.0,5064.0 2780.0,5059.0 C 2780.0,5054.0 2774.0,5050.0 2766.0,5050.0 C 2746.0,5050.0 2740.0,5027.0 2740.0,4959.0 C 2740.0,4901.0 2740.0,4900.0 2711.0,4900.0 C 2684.0,4900.0 2681.0,4896.0 2670.0,4850.0 C 2656.0,4791.0 2661.0,4773.0 2692.0,4768.0 C 2725.0,4764.0 2729.0,4730.0 2697.0,4730.0 C 2678.0,4730.0 2669.0,4722.0 2657.0,4693.0 C 2642.0,4655.0 2642.0,4655.0 2667.0,4652.0 C 2685.0,4649.0 2690.0,4643.0 2688.0,4627.0 C 2685.0,4604.0 2672.0,4602.0 2614.0,4615.0 L 2583.0,4622.0 L 2566.0,4556.0 C 2557.0,4520.0 2550.0,4486.0 2550.0,4480.0 C 2550.0,4475.0 2568.0,4470.0 2590.0,4470.0 C 2612.0,4470.0 2630.0,4465.0 2630.0,4460.0 C 2630.0,4454.0 2619.0,4428.0 2606.0,4401.0 C 2587.0,4365.0 2573.0,4351.0 2550.0,4344.0 C 2528.0,4338.0 2514.0,4325.0 2504.0,4302.0 C 2491.0,4269.0 2491.0,4269.0 2520.0,4258.0 C 2553.0,4247.0 2555.0,4242.0 2539.0,4170.0 C 2528.0,4117.0 2520.0,4113.0 2474.0,4130.0 C 2459.0,4136.0 2445.0,4139.0 2443.0,4136.0 C 2441.0,4134.0 2430.0,4095.0 2419.0,4050.0 C 2394.0,3946.0 2314.0,3791.0 2285.0,3790.0 C 2272.0,3789.0 2245.0,3763.0 2210.0,3717.0 C 1832.0,3218.0 1769.0,3129.0 1780.0,3115.0 C 1790.0,3103.0 1785.0,3090.0 1754.0,3049.0 C 1719.0,3001.0 1718.0,2997.0 1734.0,2984.0 C 1760.0,2966.0 1745.0,2948.0 1714.0,2960.0 C 1684.0,2972.0 1684.0,2972.0 1533.0,2776.0 C 1474.0,2699.0 1389.0,2572.0 1344.0,2494.0 L 1261.0,2351.0 L 1281.0,2325.0 C 1296.0,2307.0 1300.0,2292.0 1295.0,2270.0 C 1289.0,2243.0 1293.0,2238.0 1354.0,2198.0 C 1390.0,2174.0 1420.0,2152.0 1420.0,2148.0 C 1420.0,2144.0 1404.0,2114.0 1384.0,2080.0 C 1365.0,2047.0 1344.0,2006.0 1338.0,1990.0 C 1331.0,1968.0 1322.0,1960.0 1304.0,1960.0 C 1271.0,1960.0 1251.0,1921.0 1275.0,1904.0 C 1299.0,1886.0 1288.0,1861.0 1258.0,1867.0 C 1239.0,1871.0 1231.0,1866.0 1222.0,1845.0 C 1205.0,1809.0 1207.0,1800.0 1232.0,1773.0 C 1257.0,1746.0 1250.0,1745.0 1168.0,1764.0 L 1112.0,1778.0 L 1102.0,1738.0 C 1091.0,1694.0 1086.0,1698.0 1177.0,1671.0 C 1232.0,1655.0 1235.0,1652.0 1242.0,1614.0 L 1250.0,1574.0 L 1346.0,1558.0 C 1399.0,1548.0 1444.0,1539.0 1447.0,1537.0 C 1449.0,1534.0 1446.0,1503.0 1439.0,1467.0 L 1427.0,1402.0 L 1376.0,1420.0 C 1290.0,1450.0 1290.0,1450.0 1290.0,1484.0 C 1290.0,1544.0 1280.0,1560.0 1245.0,1560.0 C 1186.0,1560.0 1150.0,1549.0 1150.0,1530.0 C 1150.0,1496.0 1094.0,1492.0 1001.0,1520.0 C 941.0,1539.0 931.0,1545.0 915.0,1578.0 C 905.0,1598.0 896.0,1611.0 894.0,1605.0 C 892.0,1600.0 879.0,1556.0 866.0,1508.0 C 844.0,1427.0 843.0,1413.0 851.0,1298.0 C 867.0,1089.0 874.0,1062.0 951.0,907.0 C 1022.0,766.0 1089.0,671.0 1119.0,669.0 C 1128.0,669.0 1130.0,666.0 1124.0,664.0 C 1107.0,657.0 1123.0,595.0 1161.0,525.0 C 1181.0,487.0 1216.0,445.0 1254.0,412.0 C 1315.0,359.0 1455.0,274.0 1530.0,244.0 L 1570.0,228.0 L 1570.0,156.0 C 1570.0,117.0 1566.0,79.0 1561.0,71.0 C 1547.0,49.0 1564.0,5.0 1588.0,2.0 C 1617.0,-2.0 1650.0,17.0 1650.0,38.0 C 1650.0,47.0 1641.0,69.0 1630.0,85.0 C 1618.0,103.0 1610.0,132.0 1610.0,159.0 L 1610.0,202.0 L 1657.0,195.0 C 1683.0,191.0 1729.0,176.0 1760.0,160.0 C 1815.0,132.0 2028.0,80.0 2240.0,43.0 C 2398.0,16.0 2717.0,18.0 2955.0,49.0 C 3208.0,81.0 3372.0,136.0 3691.0,296.0 C 3869.0,385.0 3957.0,452.0 4195.0,681.0 C 4267.0,750.0 4337.0,813.0 4350.0,820.0 C 4363.0,827.0 4433.0,844.0 4504.0,857.0 C 4576.0,870.0 4648.0,889.0 4664.0,899.0 C 4681.0,909.0 4753.0,934.0 4823.0,954.0 C 4928.0,984.0 4984.0,993.0 5124.0,1005.0 C 5218.0,1012.0 5306.0,1023.0 5320.0,1028.0 C 5392.0,1056.0 5574.0,1175.0 5729.0,1296.0 C 5733.0,1300.0 5677.0,1349.0 5668.0,1350.0 C 5664.0,1350.0 5611.0,1308.0 5550.0,1257.0 C 5488.0,1207.0 5429.0,1157.0 5417.0,1148.0 C 5397.0,1132.0 4962.0,1026.0 4710.0,975.0 C 4663.0,965.0 4595.0,947.0 4559.0,934.0 C 4478.0,905.0 4441.0,904.0 4309.0,930.0 C 4109.0,970.0 4008.0,1001.0 3898.0,1057.0 C 3804.0,1104.0 3789.0,1116.0 3782.0,1143.0 C 3771.0,1186.0 3729.0,1216.0 3702.0,1201.0 C 3683.0,1191.0 3673.0,1197.0 3610.0,1256.0 C 3473.0,1386.0 3336.0,1583.0 3269.0,1746.0 L 3248.0,1799.0 L 3279.0,1841.0 C 3295.0,1864.0 3307.0,1886.0 3305.0,1891.0 C 3302.0,1895.0 3280.0,1911.0 3256.0,1926.0 L 3212.0,1954.0 L 3205.0,2042.0 C 3201.0,2091.0 3201.0,2176.0 3205.0,2231.0 C 3212.0,2325.0 3217.0,2344.0 3284.0,2508.0 L 3355.0,2684.0 L 3407.0,2700.0 C 3435.0,2708.0 3462.0,2718.0 3465.0,2722.0 C 3469.0,2725.0 3466.0,2746.0 3459.0,2769.0 C 3449.0,2804.0 3449.0,2815.0 3465.0,2850.0 C 3478.0,2879.0 3488.0,2889.0 3499.0,2885.0 C 3519.0,2877.0 4273.0,2452.0 4295.0,2436.0 C 4311.0,2425.0 4311.0,2419.0 4300.0,2385.0 C 4288.0,2349.0 4289.0,2346.0 4311.0,2329.0 C 4324.0,2319.0 4354.0,2301.0 4377.0,2288.0 C 4418.0,2266.0 4419.0,2266.0 4474.0,2283.0 C 4525.0,2299.0 4530.0,2304.0 4530.0,2330.0 C 4530.0,2367.0 4543.0,2374.0 4578.0,2356.0 C 4605.0,2342.0 4609.0,2343.0 4638.0,2363.0 C 4656.0,2375.0 4670.0,2393.0 4670.0,2404.0 C 4670.0,2414.0 4684.0,2446.0 4700.0,2475.0 C 4728.0,2524.0 4737.0,2531.0 4806.0,2560.0 C 4848.0,2577.0 4883.0,2590.0 4885.0,2588.0 C 4886.0,2586.0 4894.0,2564.0 4903.0,2538.0 C 4917.0,2495.0 4917.0,2490.0 4903.0,2490.0 C 4895.0,2490.0 4890.0,2484.0 4893.0,2477.0 C 4896.0,2471.0 4995.0,2225.0 5113.0,1932.0 C 5232.0,1638.0 5330.0,1396.0 5333.0,1394.0 C 5335.0,1392.0 5457.0,1444.0 5605.0,1510.0 C 5753.0,1576.0 5879.0,1630.0 5886.0,1630.0 C 5892.0,1630.0 5903.0,1623.0 5911.0,1614.0 C 5922.0,1601.0 5907.0,1582.0 5801.0,1476.0 C 5684.0,1359.0 5680.0,1353.0 5698.0,1337.0 C 5721.0,1316.0 5744.0,1315.0 5761.0,1336.0 C 5769.0,1345.0 5854.0,1426.0 5950.0,1514.0 L 6125.0,1676.0 L 6418.0,1793.0 C 6578.0,1857.0 6714.0,1910.0 6719.0,1910.0 C 6738.0,1910.0 6762.0,1819.0 6756.0,1767.0 C 6753.0,1738.0 6753.0,1710.0 6757.0,1704.0 C 6770.0,1686.0 6802.0,1679.0 6816.0,1691.0 C 6842.0,1712.0 6832.0,1770.0 6789.0,1848.0 C 6767.0,1888.0 6750.0,1923.0 6752.0,1924.0 C 6754.0,1926.0 6892.0,1982.0 7060.0,2050.0 C 7228.0,2117.0 7624.0,2279.0 7940.0,2410.0 L 8515.0,2647.0 L 8870.0,2664.0 C 9379.0,2688.0 9382.0,2688.0 9378.0,2714.0 C 9374.0,2738.0 9405.0,2738.0 8855.0,2711.0 L 8505.0,2693.0 L 8332.0,2622.0 C 8237.0,2582.0 8156.0,2550.0 8151.0,2550.0 C 8146.0,2550.0 8133.0,2562.0 8123.0,2576.0 L 8104.0,2602.0 L 8000.0,2570.0 C 7943.0,2553.0 7891.0,2536.0 7884.0,2533.0 C 7876.0,2530.0 7866.0,2545.0 7857.0,2577.0 C 7847.0,2611.0 7836.0,2629.0 7817.0,2638.0 C 7803.0,2645.0 7789.0,2662.0 7785.0,2678.0 C 7782.0,2693.0 7733.0,2914.0 7676.0,3170.0 C 7592.0,3543.0 7574.0,3639.0 7582.0,3660.0 C 7592.0,3684.0 7593.0,3682.0 7612.0,3627.0 C 7632.0,3570.0 7632.0,3569.0 7664.0,3576.0 C 7727.0,3591.0 7734.0,3588.0 7750.0,3542.0 C 7765.0,3499.0 7764.0,3498.0 7741.0,3479.0 C 7675.0,3425.0 7716.0,3236.0 7808.0,3175.0 C 7845.0,3151.0 7848.0,3150.0 7893.0,3164.0 C 7935.0,3176.0 7940.0,3176.0 7940.0,3163.0 C 7940.0,3154.0 7933.0,3142.0 7925.0,3136.0 C 7913.0,3127.0 7912.0,3118.0 7924.0,3075.0 C 7937.0,3025.0 7937.0,3025.0 7977.0,3027.0 C 8017.0,3028.0 8017.0,3028.0 8027.0,2984.0 C 8037.0,2940.0 8037.0,2939.0 8009.0,2924.0 C 7993.0,2916.0 7980.0,2904.0 7980.0,2898.0 C 7980.0,2875.0 8013.0,2770.0 8020.0,2770.0 C 8024.0,2770.0 8046.0,2777.0 8069.0,2785.0 C 8113.0,2800.0 8241.0,2800.0 8327.0,2785.0 L 8369.0,2778.0 L 8396.0,2833.0 C 8422.0,2886.0 8425.0,2888.0 8453.0,2883.0 C 8507.0,2872.0 8473.0,2899.0 8374.0,2945.0 C 8283.0,2988.0 8281.0,2989.0 8251.0,3049.0 C 8234.0,3082.0 8220.0,3113.0 8220.0,3118.0 C 8220.0,3123.0 8243.0,3137.0 8270.0,3150.0 C 8298.0,3163.0 8320.0,3179.0 8320.0,3187.0 C 8320.0,3204.0 8312.0,3203.0 8260.0,3185.0 C 8206.0,3166.0 8190.0,3166.0 8190.0,3185.0 C 8190.0,3198.0 8156.0,3276.0 8145.0,3288.0 C 8143.0,3290.0 8132.0,3286.0 8120.0,3280.0 C 8099.0,3269.0 8098.0,3269.0 8105.0,3309.0 C 8111.0,3348.0 8111.0,3350.0 8086.0,3350.0 C 8070.0,3350.0 8060.0,3356.0 8060.0,3365.0 C 8060.0,3373.0 8067.0,3380.0 8076.0,3380.0 C 8094.0,3380.0 8093.0,3385.0 8048.0,3502.0 C 8025.0,3563.0 8014.0,3579.0 7994.0,3584.0 C 7971.0,3590.0 7959.0,3620.0 7981.0,3620.0 C 8002.0,3620.0 7985.0,3665.0 7963.0,3668.0 C 7927.0,3673.0 7936.0,3684.0 8000.0,3715.0 C 8033.0,3731.0 8060.0,3746.0 8060.0,3748.0 C 8060.0,3751.0 8031.0,3809.0 7995.0,3876.0 C 7936.0,3987.0 7930.0,4005.0 7930.0,4057.0 C 7930.0,4089.0 7935.0,4133.0 7940.0,4154.0 C 7952.0,4209.0 7938.0,4225.0 7793.0,4316.0 C 7725.0,4358.0 7670.0,4399.0 7670.0,4406.0 C 7670.0,4413.0 7675.0,4430.0 7681.0,4444.0 L 7693.0,4469.0 L 7744.0,4434.0 C 7772.0,4415.0 7798.0,4400.0 7802.0,4400.0 C 7811.0,4400.0 7900.0,4524.0 7900.0,4537.0 C 7900.0,4542.0 7878.0,4563.0 7850.0,4584.0 L 7800.0,4622.0 L 7822.0,4654.0 C 7977.0,4872.0 7991.0,4888.0 8033.0,4889.0 C 8047.0,4890.0 8049.0,4886.0 8040.0,4871.0 C 8035.0,4860.0 8030.0,4847.0 8030.0,4841.0 C 8030.0,4832.0 8618.0,4530.0 8634.0,4530.0 C 8639.0,4530.0 8926.0,5059.0 8939.0,5093.0 C 8945.0,5108.0 8946.0,5120.0 8942.0,5120.0 C 8930.0,5120.0 8870.0,5062.0 8870.0,5051.0 C 8870.0,5045.0 8861.0,5040.0 8850.0,5040.0 C 8836.0,5040.0 8820.0,5025.0 8802.0,4994.0 C 8787.0,4969.0 8767.0,4935.0 8757.0,4919.0 L 8740.0,4889.0 L 8670.0,4927.0 C 8628.0,4950.0 8600.0,4971.0 8600.0,4981.0 C 8600.0,4998.0 8665.0,5035.0 8711.0,5044.0 C 8748.0,5052.0 8875.0,5147.0 8875.0,5168.0 C 8875.0,5177.0 8880.0,5184.0 8886.0,5183.0 C 8892.0,5182.0 8911.0,5216.0 8929.0,5259.0 C 8966.0,5349.0 8962.0,5346.0 9117.0,5390.0 C 9176.0,5407.0 9255.0,5434.0 9291.0,5451.0 C 9347.0,5478.0 9361.0,5489.0 9378.0,5525.0 L 9398.0,5567.0 L 9378.0,5661.0 C 9363.0,5731.0 9055.0,6743.0 9024.0,6825.0 C 9020.0,6833.0 9036.0,6842.0 9069.0,6850.0 C 9102.0,6858.0 9120.0,6867.0 9120.0,6877.0 C 9120.0,6885.0 9107.0,6938.0 9091.0,6994.0 C 9036.0,7182.0 9026.0,7292.0 9040.0,7558.0 C 9047.0,7686.0 9049.0,7818.0 9045.0,7851.0 C 9040.0,7897.0 9041.0,7914.0 9051.0,7920.0 C 9094.0,7947.0 9048.0,8309.0 8978.0,8500.0 C 8908.0,8688.0 8781.0,8850.0 8601.0,8979.0 C 8488.0,9060.0 8297.0,9141.0 8091.0,9195.0 C 8022.0,9213.0 7832.0,9278.0 7670.0,9340.0 C 7349.0,9462.0 7326.0,9470.0 7293.0,9475.0 C 7271.0,9478.0 6316.0,9850.0 5835.0,10043.0 C 5698.0,10098.0 5533.0,10158.0 5470.0,10177.0 C 5356.0,10212.0 5354.0,10212.0 5223.0,10206.0 C 5116.0,10201.0 5086.0,10202.0 5068.0,10214.0 C 5053.0,10223.0 5003.0,10231.0 4925.0,10234.0 L 4805.0,10241.0 L 4703.0,10168.0 M 2947.0,1713.0 C 2943.0,1692.0 2938.0,1644.0 2934.0,1605.0 C 2927.0,1540.0 2924.0,1532.0 2880.0,1485.0 C 2828.0,1430.0 2814.0,1400.0 2828.0,1373.0 C 2834.0,1362.0 2834.0,1329.0 2828.0,1287.0 C 2817.0,1203.0 2828.0,1182.0 2902.0,1160.0 C 2954.0,1145.0 2955.0,1143.0 2957.0,1105.0 C 2959.0,1083.0 2964.0,1042.0 2970.0,1014.0 C 2979.0,974.0 2978.0,957.0 2965.0,927.0 C 2943.0,874.0 2945.0,771.0 2970.0,740.0 C 2981.0,726.0 2990.0,699.0 2990.0,678.0 C 2990.0,644.0 2986.0,639.0 2948.0,622.0 C 2901.0,601.0 2760.0,484.0 2760.0,467.0 C 2760.0,461.0 2767.0,448.0 2777.0,438.0 C 2792.0,421.0 2791.0,420.0 2760.0,420.0 L 2727.0,420.0 L 2751.0,394.0 C 2774.0,369.0 2774.0,368.0 2753.0,379.0 C 2725.0,393.0 2720.0,393.0 2720.0,376.0 C 2720.0,369.0 2730.0,355.0 2743.0,347.0 C 2758.0,336.0 2760.0,331.0 2750.0,331.0 C 2742.0,331.0 2726.0,337.0 2716.0,345.0 C 2697.0,360.0 2680.0,357.0 2680.0,339.0 C 2680.0,334.0 2695.0,321.0 2713.0,310.0 C 2747.0,289.0 2746.0,288.0 2690.0,286.0 L 2655.0,285.0 L 2658.0,239.0 L 2662.0,193.0 L 2536.0,166.0 C 2424.0,141.0 2395.0,139.0 2277.0,142.0 C 2156.0,146.0 2133.0,150.0 1990.0,193.0 C 1600.0,309.0 1448.0,383.0 1347.0,509.0 C 1293.0,576.0 1230.0,678.0 1230.0,699.0 C 1230.0,719.0 1256.0,711.0 1377.0,657.0 C 1460.0,619.0 1496.0,597.0 1498.0,584.0 C 1508.0,534.0 1562.0,508.0 1615.0,529.0 C 1627.0,534.0 1643.0,532.0 1655.0,525.0 C 1690.0,503.0 1756.0,499.0 1832.0,515.0 C 1926.0,535.0 1967.0,572.0 2011.0,679.0 C 2061.0,797.0 2072.0,867.0 2059.0,967.0 C 2053.0,1014.0 2051.0,1065.0 2054.0,1082.0 C 2064.0,1133.0 2121.0,1170.0 2262.0,1216.0 C 2340.0,1241.0 2352.0,1248.0 2382.0,1289.0 C 2419.0,1338.0 2460.0,1446.0 2460.0,1492.0 C 2460.0,1517.0 2463.0,1520.0 2485.0,1514.0 C 2514.0,1507.0 2519.0,1526.0 2494.0,1545.0 C 2469.0,1562.0 2483.0,1602.0 2524.0,1633.0 C 2549.0,1652.0 2581.0,1663.0 2651.0,1674.0 C 2736.0,1688.0 2918.0,1735.0 2929.0,1746.0 C 2944.0,1760.0 2952.0,1745.0 2947.0,1713.0" fill="pink"/>
</svg>
