<?xml version="1.0" ?>
<svg xmlns="http://www.w3.org/2000/svg" xmlns:ev="http://www.w3.org/2001/xml-events" xmlns:xlink="http://www.w3.org/1999/xlink" baseProfile="full" height="600px" version="1.1" viewBox="-67.42436327621442 -1029.0039797060974 10373.11696246915 12296.853528627093" width="507px">
	<defs/>
	<path d="M 2132.0,10220.0 C 2114.0,10209.0 2090.0,10200.0 2079.0,10200.0 C 2068.0,10200.0 2040.0,10190.0 2017.0,10178.0 C 1985.0,10161.0 1961.0,10157.0 1916.0,10159.0 C 1853.0,10162.0 1829.0,10150.0 1672.0,10043.0 C 1637.0,10019.0 1599.0,10000.0 1588.0,10000.0 C 1577.0,10000.0 1545.0,9984.0 1518.0,9965.0 C 1480.0,9937.0 1453.0,9927.0 1394.0,9918.0 C 1322.0,9907.0 1317.0,9904.0 1288.0,9864.0 C 1272.0,9841.0 1250.0,9820.0 1240.0,9817.0 C 1228.0,9814.0 1217.0,9796.0 1210.0,9769.0 C 1203.0,9745.0 1187.0,9705.0 1175.0,9679.0 C 1151.0,9633.0 1090.0,9570.0 1067.0,9570.0 C 1060.0,9570.0 1047.0,9544.0 1037.0,9513.0 C 1027.0,9482.0 1006.0,9440.0 990.0,9419.0 C 968.0,9392.0 960.0,9371.0 960.0,9343.0 C 960.0,9311.0 955.0,9301.0 936.0,9292.0 C 923.0,9286.0 910.0,9271.0 907.0,9258.0 C 891.0,9196.0 840.0,9067.0 825.0,9050.0 C 810.0,9033.0 809.0,9026.0 818.0,9004.0 C 834.0,8971.0 833.0,8931.0 815.0,8900.0 C 795.0,8865.0 797.0,8842.0 820.0,8813.0 C 831.0,8799.0 840.0,8779.0 840.0,8768.0 C 840.0,8757.0 855.0,8741.0 875.0,8729.0 L 910.0,8708.0 L 889.0,8682.0 C 862.0,8647.0 870.0,8619.0 929.0,8553.0 C 963.0,8515.0 980.0,8486.0 988.0,8449.0 C 1006.0,8375.0 1039.0,8303.0 1060.0,8297.0 C 1069.0,8295.0 1090.0,8269.0 1106.0,8240.0 C 1135.0,8188.0 1136.0,8186.0 1214.0,8163.0 C 1258.0,8151.0 1301.0,8140.0 1310.0,8140.0 C 1321.0,8140.0 1350.0,8097.0 1395.0,8013.0 C 1432.0,7942.0 1470.0,7875.0 1478.0,7863.0 C 1486.0,7850.0 1543.0,7807.0 1606.0,7765.0 C 1704.0,7701.0 1726.0,7681.0 1760.0,7629.0 C 1782.0,7595.0 1800.0,7562.0 1800.0,7556.0 C 1800.0,7551.0 1819.0,7527.0 1842.0,7503.0 C 1881.0,7464.0 1884.0,7456.0 1896.0,7372.0 L 1910.0,7282.0 L 1851.0,7159.0 C 1783.0,7016.0 1730.0,6837.0 1730.0,6753.0 C 1730.0,6721.0 1737.0,6673.0 1745.0,6646.0 C 1753.0,6619.0 1760.0,6584.0 1760.0,6569.0 C 1760.0,6519.0 1830.0,6359.0 1893.0,6266.0 C 1926.0,6216.0 1985.0,6119.0 2023.0,6050.0 C 2101.0,5909.0 2228.0,5714.0 2259.0,5688.0 C 2271.0,5678.0 2280.0,5660.0 2280.0,5649.0 C 2280.0,5621.0 2343.0,5543.0 2386.0,5518.0 C 2412.0,5503.0 2421.0,5488.0 2435.0,5436.0 C 2452.0,5375.0 2454.0,5372.0 2494.0,5361.0 C 2516.0,5354.0 2563.0,5337.0 2598.0,5322.0 C 2653.0,5299.0 2664.0,5289.0 2680.0,5254.0 C 2690.0,5231.0 2701.0,5193.0 2705.0,5169.0 C 2709.0,5145.0 2720.0,5116.0 2729.0,5105.0 C 2739.0,5094.0 2757.0,5068.0 2770.0,5047.0 C 2785.0,5022.0 2797.0,5011.0 2807.0,5014.0 C 2815.0,5018.0 2832.0,5023.0 2844.0,5026.0 C 2870.0,5032.0 3052.0,4970.0 3125.0,4929.0 C 3153.0,4914.0 3193.0,4897.0 3215.0,4891.0 C 3248.0,4882.0 3276.0,4857.0 3372.0,4751.0 C 3449.0,4666.0 3504.0,4596.0 3530.0,4547.0 C 3559.0,4494.0 3580.0,4468.0 3605.0,4454.0 C 3624.0,4444.0 3645.0,4423.0 3651.0,4407.0 C 3658.0,4391.0 3675.0,4364.0 3688.0,4348.0 L 3712.0,4319.0 L 3746.0,4345.0 L 3781.0,4372.0 L 3812.0,4352.0 L 3843.0,4332.0 L 3897.0,4367.0 C 3943.0,4398.0 3960.0,4404.0 4025.0,4408.0 C 4098.0,4412.0 4099.0,4412.0 4140.0,4377.0 C 4163.0,4358.0 4190.0,4340.0 4201.0,4337.0 C 4218.0,4332.0 4220.0,4337.0 4220.0,4383.0 L 4220.0,4433.0 L 4246.0,4410.0 L 4271.0,4386.0 L 4296.0,4418.0 C 4310.0,4436.0 4330.0,4450.0 4341.0,4450.0 C 4359.0,4450.0 4360.0,4442.0 4360.0,4345.0 L 4360.0,4240.0 L 4423.0,4247.0 C 4457.0,4250.0 4487.0,4254.0 4489.0,4256.0 C 4491.0,4258.0 4479.0,4270.0 4464.0,4284.0 C 4440.0,4305.0 4437.0,4311.0 4450.0,4319.0 C 4458.0,4325.0 4485.0,4327.0 4510.0,4324.0 C 4547.0,4319.0 4562.0,4311.0 4596.0,4274.0 C 4635.0,4231.0 4638.0,4230.0 4697.0,4230.0 C 4733.0,4230.0 4760.0,4235.0 4762.0,4241.0 C 4764.0,4247.0 4757.0,4295.0 4747.0,4347.0 C 4732.0,4426.0 4731.0,4447.0 4741.0,4472.0 C 4751.0,4496.0 4757.0,4500.0 4778.0,4495.0 C 4791.0,4492.0 4836.0,4495.0 4877.0,4502.0 C 4949.0,4514.0 4955.0,4517.0 5010.0,4571.0 L 5068.0,4628.0 L 5104.0,4616.0 C 5154.0,4599.0 5164.0,4587.0 5151.0,4563.0 C 5144.0,4549.0 5144.0,4540.0 5152.0,4532.0 C 5161.0,4523.0 5158.0,4514.0 5142.0,4497.0 C 5130.0,4484.0 5120.0,4470.0 5120.0,4466.0 C 5120.0,4462.0 5147.0,4433.0 5180.0,4402.0 C 5242.0,4342.0 5247.0,4329.0 5234.0,4261.0 C 5229.0,4235.0 5223.0,4230.0 5200.0,4230.0 C 5185.0,4230.0 5165.0,4221.0 5155.0,4210.0 C 5144.0,4198.0 5124.0,4190.0 5104.0,4190.0 L 5072.0,4190.0 L 5064.0,4123.0 C 5058.0,4062.0 5059.0,4055.0 5079.0,4039.0 C 5102.0,4020.0 5138.0,4024.0 5147.0,4046.0 C 5157.0,4072.0 5179.0,4060.0 5200.0,4020.0 C 5211.0,3998.0 5232.0,3973.0 5246.0,3964.0 C 5282.0,3940.0 5308.0,3882.0 5299.0,3845.0 C 5282.0,3770.0 5289.0,3717.0 5325.0,3661.0 L 5360.0,3606.0 L 5335.0,3580.0 C 5321.0,3566.0 5310.0,3549.0 5310.0,3542.0 C 5310.0,3527.0 5352.0,3526.0 5367.0,3541.0 C 5374.0,3548.0 5407.0,3550.0 5461.0,3546.0 C 5584.0,3538.0 5593.0,3538.0 5615.0,3541.0 C 5631.0,3545.0 5636.0,3536.0 5645.0,3477.0 C 5658.0,3401.0 5659.0,3399.0 5703.0,3384.0 C 5723.0,3377.0 5736.0,3366.0 5738.0,3352.0 C 5740.0,3341.0 5748.0,3326.0 5756.0,3320.0 C 5772.0,3306.0 5775.0,3274.0 5760.0,3265.0 C 5755.0,3262.0 5743.0,3271.0 5734.0,3285.0 C 5721.0,3305.0 5710.0,3310.0 5674.0,3310.0 C 5624.0,3310.0 5621.0,3302.0 5652.0,3260.0 C 5679.0,3223.0 5666.0,3205.0 5609.0,3195.0 C 5566.0,3188.0 5538.0,3168.0 5446.0,3081.0 L 5388.0,3025.0 L 5394.0,3077.0 C 5402.0,3138.0 5391.0,3149.0 5351.0,3121.0 C 5329.0,3105.0 5321.0,3090.0 5316.0,3050.0 C 5312.0,3018.0 5303.0,2997.0 5294.0,2993.0 C 5271.0,2984.0 5230.0,3007.0 5230.0,3028.0 C 5230.0,3039.0 5221.0,3059.0 5209.0,3074.0 C 5193.0,3094.0 5180.0,3100.0 5150.0,3100.0 C 5098.0,3100.0 5063.0,3083.0 5056.0,3054.0 C 5050.0,3031.0 5020.0,3019.0 5020.0,3040.0 C 5020.0,3046.0 5004.0,3050.0 4985.0,3050.0 C 4954.0,3050.0 4950.0,3053.0 4950.0,3075.0 C 4950.0,3098.0 4947.0,3100.0 4900.0,3100.0 C 4864.0,3100.0 4841.0,3107.0 4814.0,3125.0 C 4794.0,3139.0 4767.0,3150.0 4754.0,3150.0 C 4707.0,3150.0 4676.0,3251.0 4719.0,3265.0 C 4730.0,3268.0 4750.0,3280.0 4764.0,3291.0 C 4785.0,3307.0 4790.0,3320.0 4790.0,3353.0 C 4790.0,3376.0 4787.0,3405.0 4784.0,3417.0 C 4776.0,3445.0 4754.0,3442.0 4654.0,3395.0 C 4615.0,3377.0 4577.0,3366.0 4571.0,3370.0 C 4564.0,3374.0 4556.0,3403.0 4553.0,3435.0 C 4548.0,3479.0 4543.0,3494.0 4529.0,3497.0 C 4519.0,3500.0 4510.0,3513.0 4508.0,3529.0 C 4505.0,3553.0 4503.0,3550.0 4482.0,3506.0 C 4470.0,3479.0 4460.0,3443.0 4459.0,3426.0 C 4458.0,3387.0 4449.0,3361.0 4429.0,3332.0 C 4414.0,3311.0 4411.0,3311.0 4373.0,3324.0 C 4336.0,3337.0 4331.0,3336.0 4302.0,3318.0 C 4277.0,3303.0 4270.0,3289.0 4264.0,3252.0 C 4259.0,3220.0 4244.0,3188.0 4217.0,3153.0 C 4195.0,3124.0 4175.0,3100.0 4171.0,3100.0 C 4168.0,3100.0 4133.0,3107.0 4095.0,3115.0 C 3984.0,3138.0 3984.0,3138.0 3871.0,3048.0 C 3772.0,2967.0 3769.0,2964.0 3775.0,2932.0 C 3778.0,2914.0 3784.0,2892.0 3787.0,2883.0 C 3792.0,2871.0 3785.0,2869.0 3744.0,2871.0 L 3695.0,2875.0 L 3698.0,2828.0 C 3701.0,2783.0 3700.0,2780.0 3667.0,2766.0 C 3641.0,2756.0 3631.0,2744.0 3627.0,2720.0 C 3623.0,2703.0 3611.0,2676.0 3600.0,2660.0 C 3588.0,2643.0 3580.0,2616.0 3580.0,2593.0 C 3580.0,2563.0 3570.0,2538.0 3538.0,2491.0 C 3514.0,2454.0 3500.0,2426.0 3506.0,2420.0 C 3527.0,2400.0 3616.0,2373.0 3640.0,2380.0 C 3654.0,2384.0 3700.0,2390.0 3743.0,2394.0 L 3820.0,2401.0 L 3822.0,2373.0 C 3825.0,2322.0 3819.0,2277.0 3804.0,2249.0 C 3793.0,2227.0 3781.0,2220.0 3744.0,2214.0 C 3707.0,2209.0 3700.0,2205.0 3706.0,2191.0 C 3710.0,2182.0 3715.0,2159.0 3718.0,2138.0 C 3722.0,2105.0 3728.0,2099.0 3783.0,2069.0 C 3823.0,2048.0 3845.0,2041.0 3848.0,2048.0 C 3850.0,2055.0 3860.0,2060.0 3869.0,2060.0 C 3906.0,2060.0 3917.0,2029.0 3929.0,1897.0 C 3935.0,1827.0 3940.0,1765.0 3940.0,1760.0 C 3940.0,1755.0 3922.0,1746.0 3900.0,1740.0 C 3863.0,1730.0 3860.0,1726.0 3860.0,1695.0 C 3860.0,1646.0 3866.0,1635.0 3925.0,1590.0 C 3975.0,1551.0 3981.0,1549.0 4059.0,1546.0 C 4104.0,1544.0 4147.0,1537.0 4155.0,1530.0 C 4163.0,1523.0 4170.0,1502.0 4170.0,1483.0 C 4170.0,1430.0 4193.0,1389.0 4252.0,1335.0 C 4289.0,1301.0 4324.0,1279.0 4362.0,1267.0 C 4434.0,1245.0 4445.0,1245.0 4464.0,1275.0 C 4473.0,1289.0 4489.0,1300.0 4500.0,1300.0 C 4530.0,1300.0 4587.0,1356.0 4614.0,1413.0 C 4627.0,1442.0 4644.0,1503.0 4651.0,1548.0 L 4664.0,1632.0 L 4761.0,1680.0 C 4814.0,1707.0 4913.0,1745.0 4981.0,1765.0 C 5085.0,1796.0 5117.0,1801.0 5178.0,1798.0 C 5239.0,1795.0 5254.0,1791.0 5263.0,1775.0 C 5290.0,1725.0 5356.0,1669.0 5392.0,1663.0 C 5426.0,1658.0 5431.0,1660.0 5440.0,1684.0 C 5445.0,1699.0 5450.0,1723.0 5450.0,1738.0 C 5451.0,1771.0 5471.0,1800.0 5494.0,1800.0 C 5504.0,1800.0 5510.0,1792.0 5510.0,1777.0 C 5510.0,1764.0 5523.0,1741.0 5539.0,1726.0 C 5556.0,1709.0 5570.0,1684.0 5574.0,1661.0 C 5579.0,1630.0 5590.0,1615.0 5633.0,1583.0 C 5661.0,1561.0 5700.0,1541.0 5718.0,1538.0 C 5747.0,1534.0 5753.0,1537.0 5762.0,1559.0 C 5768.0,1576.0 5768.0,1603.0 5761.0,1640.0 C 5755.0,1670.0 5749.0,1711.0 5747.0,1730.0 C 5743.0,1764.0 5743.0,1764.0 5759.0,1741.0 C 5829.0,1641.0 5872.0,1623.0 5878.0,1690.0 C 5880.0,1709.0 5887.0,1732.0 5895.0,1740.0 C 5902.0,1748.0 5911.0,1774.0 5915.0,1798.0 C 5927.0,1874.0 5981.0,1869.0 6020.0,1788.0 C 6042.0,1742.0 6044.0,1728.0 6037.0,1683.0 C 6030.0,1637.0 6031.0,1626.0 6050.0,1599.0 C 6068.0,1574.0 6077.0,1570.0 6099.0,1575.0 C 6158.0,1588.0 6179.0,1602.0 6185.0,1631.0 C 6191.0,1659.0 6193.0,1660.0 6253.0,1660.0 C 6349.0,1660.0 6360.0,1654.0 6360.0,1609.0 C 6360.0,1576.0 6365.0,1568.0 6390.0,1555.0 C 6406.0,1547.0 6432.0,1540.0 6448.0,1540.0 C 6464.0,1540.0 6492.0,1535.0 6509.0,1529.0 C 6533.0,1520.0 6544.0,1520.0 6553.0,1529.0 C 6579.0,1555.0 6751.0,1534.0 6844.0,1493.0 C 6876.0,1479.0 6928.0,1466.0 6959.0,1463.0 C 7015.0,1458.0 7015.0,1458.0 7071.0,1507.0 C 7121.0,1551.0 7134.0,1558.0 7186.0,1563.0 C 7234.0,1568.0 7248.0,1574.0 7264.0,1595.0 L 7283.0,1621.0 L 7310.0,1595.0 C 7333.0,1573.0 7341.0,1570.0 7358.0,1579.0 C 7386.0,1594.0 7387.0,1594.0 7398.0,1562.0 C 7405.0,1541.0 7404.0,1527.0 7394.0,1509.0 C 7387.0,1496.0 7381.0,1473.0 7380.0,1459.0 C 7380.0,1421.0 7449.0,1332.0 7529.0,1266.0 C 7568.0,1234.0 7608.0,1196.0 7619.0,1182.0 L 7638.0,1156.0 L 7679.0,1183.0 C 7701.0,1198.0 7728.0,1210.0 7737.0,1210.0 C 7766.0,1210.0 7777.0,1223.0 7789.0,1268.0 C 7801.0,1311.0 7838.0,1361.0 7900.0,1415.0 C 7967.0,1474.0 8062.0,1575.0 8071.0,1598.0 C 8082.0,1626.0 8114.0,1627.0 8157.0,1600.0 C 8188.0,1582.0 8194.0,1581.0 8254.0,1594.0 L 8318.0,1607.0 L 8344.0,1517.0 L 8369.0,1427.0 L 8340.0,1393.0 C 8306.0,1355.0 8304.0,1347.0 8325.0,1330.0 C 8356.0,1305.0 8339.0,1299.0 8251.0,1306.0 L 8162.0,1313.0 L 8150.0,1269.0 C 8142.0,1239.0 8141.0,1216.0 8148.0,1193.0 L 8158.0,1160.0 L 8097.0,1160.0 C 8058.0,1161.0 8028.0,1166.0 8016.0,1175.0 C 7990.0,1195.0 7970.0,1194.0 7941.0,1171.0 L 7917.0,1152.0 L 7962.0,1088.0 C 8022.0,1003.0 8027.0,973.0 7994.0,908.0 C 7980.0,879.0 7962.0,839.0 7954.0,817.0 C 7946.0,795.0 7917.0,737.0 7889.0,689.0 C 7839.0,601.0 7838.0,600.0 7799.0,600.0 C 7761.0,600.0 7760.0,599.0 7760.0,565.0 C 7760.0,535.0 7765.0,529.0 7803.0,511.0 C 7826.0,500.0 7866.0,471.0 7893.0,446.0 C 7937.0,405.0 7939.0,400.0 7929.0,376.0 C 7919.0,355.0 7920.0,344.0 7935.0,317.0 C 7945.0,297.0 7951.0,272.0 7948.0,257.0 C 7944.0,237.0 7947.0,230.0 7958.0,230.0 C 7966.0,230.0 7987.0,221.0 8004.0,211.0 C 8021.0,201.0 8049.0,189.0 8067.0,185.0 C 8103.0,178.0 8118.0,142.0 8098.0,111.0 C 8091.0,100.0 8088.0,89.0 8090.0,87.0 C 8111.0,69.0 8226.0,0.0 8236.0,0.0 C 8242.0,0.0 8264.0,13.0 8285.0,30.0 C 8326.0,63.0 8370.0,69.0 8390.0,45.0 C 8408.0,23.0 8423.0,26.0 8455.0,60.0 C 8471.0,76.0 8492.0,90.0 8501.0,90.0 C 8542.0,90.0 8550.0,100.0 8544.0,144.0 C 8537.0,192.0 8541.0,203.0 8606.0,301.0 C 8630.0,338.0 8650.0,373.0 8650.0,378.0 C 8650.0,400.0 8705.0,440.0 8733.0,440.0 C 8749.0,440.0 8781.0,426.0 8806.0,408.0 L 8850.0,376.0 L 8880.0,405.0 C 8914.0,438.0 8918.0,450.0 8893.0,450.0 C 8883.0,450.0 8858.0,455.0 8837.0,461.0 C 8805.0,470.0 8795.0,479.0 8779.0,515.0 C 8768.0,539.0 8746.0,570.0 8728.0,585.0 C 8701.0,608.0 8696.0,620.0 8692.0,667.0 L 8687.0,723.0 L 8716.0,717.0 C 8777.0,705.0 8838.0,671.0 8844.0,645.0 C 8848.0,628.0 8861.0,617.0 8889.0,609.0 C 8938.0,594.0 8955.0,600.0 8975.0,641.0 C 8990.0,669.0 8997.0,747.0 8988.0,777.0 C 8983.0,795.0 9049.0,869.0 9088.0,889.0 C 9126.0,909.0 9124.0,905.0 9185.0,1074.0 C 9195.0,1100.0 9216.0,1138.0 9234.0,1157.0 L 9265.0,1193.0 L 9242.0,1208.0 C 9205.0,1232.0 9215.0,1262.0 9279.0,1323.0 C 9328.0,1370.0 9345.0,1380.0 9374.0,1380.0 C 9442.0,1380.0 9432.0,1426.0 9361.0,1436.0 L 9314.0,1442.0 L 9295.0,1521.0 L 9277.0,1600.0 L 9214.0,1600.0 C 9136.0,1600.0 9123.0,1620.0 9166.0,1675.0 C 9194.0,1712.0 9217.0,1719.0 9239.0,1698.0 C 9250.0,1688.0 9253.0,1688.0 9257.0,1698.0 C 9260.0,1704.0 9275.0,1710.0 9292.0,1710.0 C 9323.0,1710.0 9330.0,1716.0 9408.0,1809.0 L 9437.0,1844.0 L 9394.0,1907.0 C 9370.0,1942.0 9348.0,1983.0 9345.0,1998.0 C 9326.0,2090.0 9306.0,2140.0 9288.0,2140.0 C 9278.0,2140.0 9270.0,2136.0 9270.0,2130.0 C 9270.0,2108.0 9249.0,2122.0 9223.0,2161.0 C 9201.0,2195.0 9197.0,2212.0 9198.0,2265.0 C 9198.0,2300.0 9203.0,2337.0 9208.0,2346.0 C 9214.0,2357.0 9214.0,2375.0 9209.0,2394.0 C 9204.0,2411.0 9200.0,2441.0 9200.0,2462.0 C 9200.0,2569.0 9106.0,2606.0 9024.0,2530.0 C 8997.0,2505.0 8971.0,2490.0 8955.0,2490.0 C 8933.0,2490.0 8930.0,2494.0 8930.0,2524.0 C 8930.0,2546.0 8939.0,2569.0 8954.0,2587.0 C 8968.0,2605.0 8979.0,2633.0 8983.0,2664.0 C 8991.0,2738.0 9046.0,2770.0 9096.0,2731.0 C 9111.0,2719.0 9126.0,2710.0 9131.0,2710.0 C 9135.0,2710.0 9141.0,2745.0 9143.0,2788.0 C 9145.0,2830.0 9151.0,2876.0 9154.0,2890.0 C 9159.0,2906.0 9156.0,2922.0 9147.0,2934.0 C 9133.0,2953.0 9132.0,2953.0 9085.0,2926.0 C 9031.0,2896.0 9015.0,2898.0 8982.0,2941.0 C 8963.0,2965.0 8961.0,2970.0 8975.0,2970.0 C 8995.0,2970.0 9063.0,3004.0 9084.0,3025.0 C 9093.0,3034.0 9100.0,3058.0 9100.0,3079.0 C 9100.0,3122.0 9071.0,3155.0 9003.0,3189.0 C 8945.0,3218.0 8890.0,3268.0 8890.0,3292.0 C 8890.0,3303.0 8901.0,3325.0 8915.0,3342.0 C 8929.0,3358.0 8940.0,3378.0 8940.0,3385.0 C 8940.0,3393.0 8949.0,3404.0 8960.0,3410.0 C 8989.0,3425.0 9046.0,3519.0 9054.0,3565.0 C 9059.0,3592.0 9075.0,3619.0 9102.0,3646.0 L 9142.0,3687.0 L 9098.0,3694.0 C 9034.0,3704.0 8997.0,3684.0 8900.0,3586.0 C 8854.0,3539.0 8812.0,3500.0 8807.0,3500.0 C 8803.0,3500.0 8788.0,3507.0 8775.0,3516.0 L 8750.0,3532.0 L 8795.0,3582.0 C 8820.0,3610.0 8840.0,3636.0 8840.0,3641.0 C 8840.0,3654.0 8808.0,3652.0 8760.0,3635.0 C 8666.0,3602.0 8641.0,3626.0 8715.0,3678.0 C 8764.0,3712.0 8777.0,3746.0 8738.0,3737.0 C 8725.0,3734.0 8687.0,3728.0 8653.0,3724.0 L 8591.0,3718.0 L 8575.0,3775.0 C 8566.0,3806.0 8560.0,3834.0 8563.0,3836.0 C 8566.0,3839.0 8613.0,3846.0 8669.0,3852.0 C 8765.0,3863.0 8770.0,3864.0 8770.0,3887.0 C 8770.0,3915.0 8738.0,3930.0 8681.0,3930.0 C 8604.0,3930.0 8604.0,3982.0 8681.0,3995.0 C 8715.0,4001.0 8747.0,4020.0 8722.0,4020.0 C 8700.0,4020.0 8660.0,4070.0 8660.0,4098.0 C 8660.0,4114.0 8651.0,4139.0 8640.0,4153.0 C 8629.0,4167.0 8617.0,4192.0 8614.0,4209.0 C 8610.0,4226.0 8605.0,4240.0 8602.0,4240.0 C 8600.0,4240.0 8580.0,4225.0 8559.0,4206.0 C 8519.0,4169.0 8467.0,4153.0 8422.0,4165.0 C 8407.0,4169.0 8369.0,4175.0 8337.0,4178.0 C 8275.0,4185.0 8274.0,4186.0 8231.0,4280.0 C 8224.0,4294.0 8213.0,4316.0 8205.0,4330.0 C 8191.0,4354.0 8192.0,4355.0 8220.0,4364.0 C 8243.0,4371.0 8250.0,4379.0 8250.0,4397.0 C 8250.0,4434.0 8236.0,4453.0 8164.0,4511.0 C 8090.0,4572.0 8055.0,4626.0 8073.0,4651.0 C 8080.0,4660.0 8103.0,4676.0 8125.0,4688.0 C 8147.0,4699.0 8181.0,4722.0 8200.0,4739.0 C 8235.0,4769.0 8235.0,4769.0 8210.0,4770.0 C 8196.0,4770.0 8166.0,4779.0 8145.0,4790.0 C 8108.0,4809.0 8103.0,4809.0 8067.0,4795.0 C 8043.0,4785.0 8015.0,4782.0 7990.0,4786.0 L 7950.0,4793.0 L 7950.0,4751.0 C 7950.0,4711.0 7949.0,4710.0 7916.0,4710.0 C 7883.0,4710.0 7881.0,4712.0 7870.0,4760.0 C 7863.0,4788.0 7854.0,4810.0 7850.0,4810.0 C 7845.0,4810.0 7825.0,4801.0 7806.0,4789.0 C 7778.0,4773.0 7761.0,4770.0 7730.0,4775.0 C 7672.0,4785.0 7645.0,4810.0 7644.0,4857.0 C 7644.0,4878.0 7641.0,4902.0 7637.0,4910.0 C 7631.0,4922.0 7641.0,4932.0 7672.0,4949.0 C 7739.0,4986.0 7760.0,5009.0 7760.0,5046.0 C 7760.0,5068.0 7754.0,5083.0 7741.0,5089.0 C 7731.0,5095.0 7720.0,5112.0 7717.0,5127.0 C 7712.0,5153.0 7662.0,5245.0 7626.0,5296.0 C 7616.0,5311.0 7595.0,5319.0 7561.0,5324.0 C 7527.0,5328.0 7507.0,5337.0 7501.0,5349.0 C 7488.0,5372.0 7496.0,5380.0 7532.0,5380.0 C 7562.0,5380.0 7569.0,5397.0 7548.0,5419.0 C 7537.0,5430.0 7538.0,5431.0 7550.0,5425.0 C 7558.0,5420.0 7577.0,5407.0 7592.0,5397.0 C 7615.0,5380.0 7630.0,5378.0 7694.0,5383.0 C 7735.0,5386.0 7774.0,5391.0 7780.0,5395.0 C 7785.0,5398.0 7790.0,5424.0 7790.0,5451.0 C 7790.0,5479.0 7795.0,5510.0 7800.0,5520.0 C 7812.0,5543.0 7837.0,5537.0 7845.0,5509.0 C 7853.0,5484.0 7896.0,5484.0 7910.0,5509.0 C 7915.0,5520.0 7920.0,5547.0 7920.0,5569.0 C 7920.0,5592.0 7929.0,5632.0 7939.0,5660.0 L 7958.0,5710.0 L 7927.0,5710.0 C 7851.0,5710.0 7780.0,5675.0 7780.0,5638.0 C 7780.0,5613.0 7738.0,5614.0 7715.0,5640.0 C 7703.0,5654.0 7684.0,5660.0 7656.0,5660.0 C 7623.0,5660.0 7609.0,5667.0 7579.0,5696.0 C 7526.0,5748.0 7486.0,5750.0 7364.0,5710.0 C 7259.0,5675.0 7222.0,5647.0 7200.0,5585.0 C 7193.0,5564.0 7173.0,5544.0 7136.0,5522.0 C 7045.0,5468.0 7036.0,5469.0 6953.0,5547.0 C 6891.0,5606.0 6881.0,5621.0 6875.0,5660.0 C 6866.0,5717.0 6844.0,5740.0 6763.0,5780.0 C 6708.0,5808.0 6699.0,5815.0 6704.0,5834.0 C 6707.0,5845.0 6710.0,5869.0 6710.0,5885.0 C 6710.0,5911.0 6716.0,5917.0 6753.0,5933.0 C 6790.0,5948.0 6797.0,5956.0 6809.0,5996.0 C 6821.0,6036.0 6828.0,6044.0 6868.0,6061.0 C 6921.0,6084.0 6937.0,6081.0 6946.0,6045.0 C 6952.0,6021.0 6956.0,6020.0 7021.0,6020.0 C 7107.0,6020.0 7110.0,6033.0 7040.0,6085.0 C 7005.0,6111.0 6990.0,6129.0 6990.0,6145.0 C 6990.0,6174.0 7037.0,6214.0 7059.0,6204.0 C 7068.0,6201.0 7096.0,6195.0 7123.0,6193.0 C 7166.0,6188.0 7170.0,6189.0 7170.0,6208.0 C 7170.0,6225.0 7180.0,6232.0 7213.0,6240.0 C 7236.0,6246.0 7274.0,6257.0 7298.0,6265.0 C 7339.0,6279.0 7340.0,6278.0 7340.0,6255.0 C 7340.0,6195.0 7398.0,6225.0 7437.0,6305.0 C 7462.0,6355.0 7467.0,6360.0 7497.0,6360.0 C 7525.0,6360.0 7532.0,6365.0 7547.0,6398.0 C 7559.0,6422.0 7564.0,6452.0 7562.0,6483.0 C 7559.0,6530.0 7558.0,6532.0 7533.0,6525.0 C 7519.0,6522.0 7493.0,6503.0 7475.0,6484.0 L 7442.0,6449.0 L 7409.0,6469.0 C 7390.0,6480.0 7358.0,6510.0 7336.0,6535.0 L 7298.0,6581.0 L 7305.0,6691.0 L 7312.0,6800.0 L 7267.0,6800.0 C 7224.0,6800.0 7222.0,6799.0 7206.0,6756.0 C 7190.0,6714.0 7181.0,6707.0 7092.0,6659.0 L 6995.0,6608.0 L 6958.0,6650.0 C 6903.0,6712.0 6906.0,6738.0 6976.0,6784.0 C 7020.0,6813.0 7030.0,6825.0 7025.0,6840.0 C 7020.0,6855.0 7025.0,6863.0 7044.0,6872.0 C 7076.0,6886.0 7077.0,6895.0 7045.0,6916.0 C 7007.0,6941.0 6975.0,6927.0 6927.0,6865.0 C 6904.0,6835.0 6880.0,6810.0 6873.0,6810.0 C 6867.0,6810.0 6846.0,6832.0 6826.0,6859.0 C 6792.0,6904.0 6763.0,6930.0 6716.0,6955.0 C 6694.0,6966.0 6662.0,7049.0 6661.0,7098.0 C 6660.0,7115.0 6662.0,7130.0 6664.0,7130.0 C 6666.0,7130.0 6690.0,7134.0 6719.0,7140.0 C 6755.0,7147.0 6777.0,7146.0 6795.0,7138.0 C 6826.0,7124.0 6830.0,7128.0 6837.0,7179.0 C 6842.0,7212.0 6840.0,7220.0 6827.0,7220.0 C 6818.0,7220.0 6788.0,7225.0 6760.0,7231.0 L 6710.0,7242.0 L 6710.0,7298.0 C 6710.0,7351.0 6712.0,7356.0 6739.0,7372.0 C 6756.0,7381.0 6780.0,7410.0 6794.0,7438.0 C 6818.0,7485.0 6823.0,7489.0 6870.0,7499.0 C 6898.0,7505.0 6951.0,7510.0 6988.0,7510.0 C 7044.0,7510.0 7067.0,7504.0 7127.0,7476.0 C 7167.0,7457.0 7232.0,7419.0 7273.0,7391.0 C 7347.0,7342.0 7347.0,7341.0 7359.0,7282.0 C 7374.0,7207.0 7388.0,7193.0 7423.0,7220.0 C 7440.0,7233.0 7463.0,7240.0 7494.0,7240.0 C 7535.0,7240.0 7540.0,7237.0 7546.0,7214.0 C 7552.0,7190.0 7556.0,7188.0 7592.0,7194.0 C 7614.0,7198.0 7645.0,7207.0 7661.0,7215.0 C 7676.0,7223.0 7711.0,7230.0 7737.0,7230.0 C 7763.0,7230.0 7780.0,7234.0 7773.0,7238.0 C 7767.0,7242.0 7759.0,7262.0 7755.0,7284.0 C 7749.0,7315.0 7741.0,7325.0 7714.0,7336.0 C 7696.0,7344.0 7663.0,7350.0 7642.0,7350.0 C 7594.0,7350.0 7565.0,7369.0 7574.0,7396.0 C 7579.0,7414.0 7649.0,7450.0 7678.0,7450.0 C 7685.0,7450.0 7703.0,7462.0 7717.0,7476.0 C 7732.0,7491.0 7757.0,7508.0 7774.0,7515.0 C 7824.0,7536.0 7867.0,7589.0 7874.0,7639.0 L 7881.0,7683.0 L 7829.0,7676.0 C 7800.0,7672.0 7765.0,7666.0 7750.0,7663.0 C 7709.0,7655.0 7656.0,7705.0 7665.0,7743.0 C 7671.0,7766.0 7677.0,7770.0 7706.0,7770.0 C 7737.0,7770.0 7740.0,7773.0 7740.0,7800.0 C 7740.0,7824.0 7747.0,7833.0 7780.0,7850.0 C 7838.0,7879.0 7855.0,7875.0 7916.0,7819.0 C 7959.0,7777.0 7970.0,7761.0 7970.0,7735.0 C 7970.0,7698.0 7999.0,7679.0 8042.0,7687.0 C 8056.0,7690.0 8078.0,7687.0 8090.0,7680.0 C 8121.0,7664.0 8152.0,7692.0 8148.0,7734.0 C 8145.0,7760.0 8140.0,7765.0 8103.0,7775.0 C 8048.0,7788.0 8038.0,7800.0 8030.0,7860.0 C 8025.0,7902.0 8026.0,7910.0 8040.0,7910.0 C 8062.0,7910.0 8114.0,7959.0 8128.0,7992.0 C 8142.0,8025.0 8138.0,8028.0 8035.0,8075.0 C 7969.0,8105.0 7952.0,8110.0 7932.0,8101.0 C 7901.0,8087.0 7900.0,8087.0 7900.0,8109.0 C 7900.0,8138.0 7874.0,8155.0 7847.0,8143.0 C 7835.0,8137.0 7780.0,8090.0 7725.0,8038.0 C 7636.0,7954.0 7617.0,7941.0 7550.0,7918.0 C 7509.0,7903.0 7454.0,7890.0 7429.0,7887.0 C 7361.0,7881.0 7295.0,7844.0 7213.0,7767.0 L 7141.0,7699.0 L 7104.0,7739.0 C 7069.0,7779.0 7066.0,7780.0 7003.0,7780.0 C 6956.0,7780.0 6932.0,7775.0 6912.0,7761.0 C 6897.0,7750.0 6854.0,7734.0 6815.0,7725.0 C 6696.0,7696.0 6640.0,7658.0 6561.0,7551.0 L 6510.0,7483.0 L 6510.0,7371.0 L 6510.0,7260.0 L 6448.0,7260.0 C 6322.0,7260.0 6300.0,7276.0 6300.0,7368.0 C 6300.0,7393.0 6290.0,7430.0 6275.0,7460.0 C 6261.0,7487.0 6250.0,7525.0 6250.0,7545.0 C 6250.0,7590.0 6215.0,7659.0 6151.0,7742.0 C 6124.0,7777.0 6088.0,7832.0 6070.0,7863.0 C 6043.0,7912.0 6034.0,7920.0 6009.0,7920.0 C 5991.0,7920.0 5980.0,7925.0 5980.0,7933.0 C 5980.0,7941.0 5967.0,7966.0 5950.0,7988.0 C 5914.0,8037.0 5914.0,8040.0 5940.0,8040.0 C 5967.0,8040.0 5967.0,8079.0 5939.0,8113.0 C 5920.0,8138.0 5915.0,8139.0 5859.0,8133.0 C 5807.0,8128.0 5800.0,8129.0 5800.0,8145.0 C 5800.0,8154.0 5787.0,8174.0 5770.0,8190.0 C 5743.0,8215.0 5742.0,8221.0 5750.0,8251.0 C 5769.0,8315.0 5765.0,8323.0 5720.0,8315.0 C 5669.0,8306.0 5658.0,8315.0 5614.0,8401.0 C 5583.0,8464.0 5566.0,8482.0 5470.0,8559.0 C 5449.0,8576.0 5447.0,8581.0 5458.0,8597.0 C 5464.0,8607.0 5473.0,8622.0 5476.0,8630.0 C 5479.0,8638.0 5487.0,8659.0 5495.0,8675.0 C 5529.0,8750.0 5518.0,8777.0 5457.0,8767.0 C 5439.0,8764.0 5414.0,8768.0 5400.0,8775.0 C 5377.0,8787.0 5372.0,8786.0 5349.0,8764.0 L 5322.0,8739.0 L 5264.0,8771.0 C 5190.0,8813.0 5176.0,8831.0 5169.0,8903.0 C 5164.0,8954.0 5158.0,8966.0 5121.0,9004.0 C 5081.0,9045.0 5074.0,9048.0 5008.0,9054.0 C 4942.0,9061.0 4939.0,9062.0 4954.0,9079.0 C 4972.0,9099.0 4975.0,9136.0 4960.0,9145.0 C 4954.0,9149.0 4952.0,9160.0 4955.0,9170.0 C 4959.0,9184.0 4951.0,9195.0 4923.0,9214.0 C 4892.0,9235.0 4874.0,9240.0 4822.0,9240.0 L 4759.0,9240.0 L 4732.0,9285.0 C 4717.0,9309.0 4696.0,9333.0 4685.0,9336.0 C 4654.0,9347.0 4603.0,9342.0 4571.0,9325.0 C 4552.0,9315.0 4514.0,9310.0 4464.0,9310.0 L 4387.0,9310.0 L 4304.0,9373.0 C 4237.0,9423.0 4220.0,9441.0 4215.0,9469.0 L 4209.0,9502.0 L 4156.0,9496.0 C 4107.0,9489.0 4101.0,9491.0 4055.0,9526.0 C 4016.0,9556.0 3999.0,9563.0 3968.0,9561.0 C 3921.0,9559.0 3880.0,9584.0 3880.0,9616.0 C 3880.0,9629.0 3867.0,9653.0 3850.0,9670.0 C 3834.0,9687.0 3820.0,9705.0 3820.0,9710.0 C 3820.0,9716.0 3806.0,9720.0 3790.0,9720.0 C 3746.0,9720.0 3678.0,9758.0 3580.0,9837.0 C 3533.0,9874.0 3463.0,9927.0 3425.0,9954.0 C 3386.0,9981.0 3340.0,10017.0 3322.0,10034.0 C 3291.0,10063.0 3283.0,10065.0 3202.0,10068.0 C 3119.0,10072.0 3110.0,10074.0 2997.0,10131.0 C 2880.0,10189.0 2879.0,10189.0 2830.0,10178.0 C 2781.0,10167.0 2779.0,10167.0 2738.0,10201.0 L 2695.0,10235.0 L 2430.0,10238.0 C 2178.0,10240.0 2163.0,10240.0 2132.0,10220.0" fill="pink"/>
	<path d="M 7632.0,6388.0 C 7634.0,6372.0 7650.0,6358.0 7687.0,6340.0 C 7716.0,6326.0 7740.0,6310.0 7740.0,6303.0 C 7740.0,6296.0 7752.0,6279.0 7768.0,6265.0 L 7795.0,6239.0 L 7812.0,6260.0 C 7823.0,6274.0 7850.0,6285.0 7889.0,6292.0 C 7943.0,6302.0 7952.0,6302.0 7970.0,6285.0 C 7989.0,6268.0 7992.0,6268.0 8007.0,6282.0 C 8031.0,6306.0 8017.0,6348.0 7982.0,6356.0 C 7967.0,6359.0 7936.0,6371.0 7912.0,6382.0 C 7882.0,6396.0 7859.0,6400.0 7837.0,6396.0 C 7749.0,6379.0 7713.0,6378.0 7676.0,6394.0 C 7627.0,6414.0 7628.0,6414.0 7632.0,6388.0" fill="pink"/>
	<path d="M 7836.0,5069.0 C 7817.0,5042.0 7816.0,5026.0 7830.0,5000.0 C 7840.0,4981.0 7841.0,4981.0 7874.0,5001.0 C 7919.0,5027.0 7927.0,5048.0 7895.0,5056.0 C 7881.0,5059.0 7866.0,5069.0 7861.0,5077.0 C 7854.0,5090.0 7850.0,5089.0 7836.0,5069.0" fill="pink"/>
	<path d="M 8506.0,4629.0 C 8479.0,4607.0 8445.0,4581.0 8431.0,4571.0 L 8405.0,4552.0 L 8443.0,4545.0 C 8473.0,4539.0 8485.0,4542.0 8501.0,4556.0 C 8517.0,4571.0 8534.0,4574.0 8572.0,4572.0 L 8621.0,4568.0 L 8595.0,4619.0 C 8581.0,4647.0 8566.0,4670.0 8562.0,4670.0 C 8558.0,4669.0 8533.0,4651.0 8506.0,4629.0" fill="pink"/>
	<path d="M 9103.0,843.0 C 9079.0,829.0 9060.0,811.0 9060.0,803.0 C 9060.0,777.0 9079.0,753.0 9111.0,740.0 C 9139.0,728.0 9144.0,728.0 9157.0,746.0 C 9172.0,765.0 9168.0,846.0 9152.0,861.0 C 9148.0,865.0 9126.0,857.0 9103.0,843.0" fill="pink"/>
</svg>
