<?xml version="1.0" ?>
<svg xmlns="http://www.w3.org/2000/svg" xmlns:ev="http://www.w3.org/2001/xml-events" xmlns:xlink="http://www.w3.org/1999/xlink" baseProfile="full" height="600px" version="1.1" viewBox="-805.7160963271783 -1031.0079865390983 11847.253416647012 12296.901411278179" width="579px">
	<defs/>
	<path d="M 7460.0,10233.0 C 7460.0,10219.0 7298.0,9175.0 7295.0,9172.0 C 7293.0,9170.0 6750.0,9218.0 6087.0,9279.0 C 5424.0,9340.0 4869.0,9390.0 4853.0,9390.0 L 4825.0,9390.0 L 4757.0,8993.0 C 4720.0,8774.0 4642.0,8292.0 4584.0,7921.0 C 4527.0,7550.0 4479.0,7246.0 4477.0,7245.0 C 4476.0,7244.0 4414.0,7222.0 4340.0,7197.0 C 4213.0,7153.0 4201.0,7151.0 4134.0,7156.0 L 4063.0,7163.0 L 3866.0,7049.0 C 3684.0,6945.0 3664.0,6931.0 3609.0,6866.0 L 3549.0,6795.0 L 3555.0,6641.0 C 3560.0,6506.0 3556.0,6429.0 3519.0,6041.0 C 3497.0,5796.0 3476.0,5593.0 3475.0,5592.0 C 3473.0,5590.0 2973.0,5627.0 2363.0,5674.0 C 1754.0,5721.0 1180.0,5764.0 1088.0,5770.0 C 934.0,5779.0 913.0,5783.0 806.0,5820.0 C 701.0,5856.0 681.0,5860.0 591.0,5860.0 L 492.0,5860.0 L 450.0,5788.0 C 427.0,5748.0 390.0,5673.0 369.0,5621.0 C 335.0,5539.0 330.0,5518.0 330.0,5448.0 C 330.0,5370.0 330.0,5369.0 353.0,5376.0 C 383.0,5385.0 379.0,5379.0 405.0,5467.0 C 417.0,5511.0 442.0,5572.0 460.0,5604.0 C 499.0,5673.0 504.0,5669.0 526.0,5545.0 C 549.0,5412.0 575.0,5342.0 632.0,5255.0 L 685.0,5175.0 L 688.0,5234.0 C 691.0,5288.0 692.0,5292.0 713.0,5286.0 C 725.0,5283.0 738.0,5280.0 742.0,5280.0 C 757.0,5280.0 790.0,5200.0 790.0,5163.0 C 790.0,5088.0 816.0,5014.0 863.0,4947.0 C 915.0,4874.0 922.0,4834.0 891.0,4794.0 C 880.0,4781.0 869.0,4746.0 865.0,4717.0 C 859.0,4673.0 851.0,4659.0 814.0,4625.0 C 783.0,4596.0 770.0,4576.0 770.0,4557.0 C 770.0,4537.0 775.0,4530.0 790.0,4530.0 C 813.0,4530.0 813.0,4528.0 799.0,4475.0 C 791.0,4446.0 766.0,4412.0 703.0,4349.0 C 639.0,4284.0 619.0,4257.0 622.0,4240.0 L 625.0,4218.0 L 652.0,4239.0 C 670.0,4253.0 681.0,4257.0 685.0,4249.0 C 689.0,4243.0 701.0,4240.0 711.0,4243.0 C 728.0,4248.0 728.0,4246.0 714.0,4225.0 C 693.0,4193.0 648.0,4177.0 596.0,4182.0 L 553.0,4187.0 L 561.0,4141.0 C 576.0,4061.0 578.0,4055.0 636.0,3975.0 C 668.0,3931.0 699.0,3873.0 707.0,3845.0 C 725.0,3785.0 732.0,3566.0 732.0,3165.0 C 731.0,2883.0 731.0,2871.0 702.0,2739.0 C 673.0,2605.0 671.0,2600.0 575.0,2431.0 C 519.0,2332.0 460.0,2213.0 435.0,2148.0 C 412.0,2086.0 363.0,1974.0 326.0,1900.0 C 271.0,1792.0 250.0,1737.0 220.0,1618.0 C 199.0,1537.0 184.0,1470.0 186.0,1470.0 C 189.0,1470.0 203.0,1476.0 218.0,1484.0 C 256.0,1504.0 289.0,1543.0 343.0,1630.0 C 384.0,1698.0 394.0,1707.0 439.0,1724.0 C 507.0,1748.0 566.0,1738.0 626.0,1692.0 C 672.0,1657.0 673.0,1657.0 751.0,1663.0 C 799.0,1667.0 852.0,1679.0 891.0,1695.0 C 961.0,1723.0 1006.0,1725.0 1188.0,1710.0 C 1292.0,1702.0 1304.0,1703.0 1333.0,1720.0 C 1379.0,1748.0 1558.0,1748.0 1650.0,1720.0 C 1694.0,1707.0 1744.0,1700.0 1805.0,1700.0 C 1946.0,1700.0 1964.0,1695.0 1991.0,1646.0 C 2003.0,1624.0 2039.0,1578.0 2071.0,1545.0 C 2139.0,1472.0 2150.0,1453.0 2150.0,1402.0 C 2150.0,1359.0 2162.0,1350.0 2227.0,1350.0 C 2256.0,1350.0 2263.0,1344.0 2284.0,1301.0 L 2309.0,1253.0 L 2407.0,1231.0 C 2461.0,1218.0 2512.0,1207.0 2520.0,1204.0 C 2528.0,1202.0 2554.0,1183.0 2577.0,1163.0 C 2612.0,1131.0 2636.0,1089.0 2721.0,905.0 C 2777.0,784.0 2827.0,680.0 2832.0,673.0 C 2837.0,667.0 2853.0,659.0 2868.0,655.0 C 2883.0,652.0 2914.0,630.0 2938.0,607.0 C 2978.0,568.0 2980.0,563.0 2980.0,508.0 C 2980.0,426.0 3015.0,358.0 3076.0,322.0 C 3185.0,257.0 3275.0,178.0 3323.0,105.0 L 3371.0,32.0 L 3485.0,15.0 L 3599.0,-2.0 L 3682.0,45.0 C 3728.0,71.0 3766.0,93.0 3767.0,94.0 C 3767.0,94.0 3763.0,130.0 3756.0,172.0 L 3744.0,250.0 L 3830.0,412.0 C 3916.0,573.0 3917.0,575.0 3971.0,603.0 C 4000.0,618.0 4041.0,647.0 4062.0,667.0 L 4098.0,702.0 L 4139.0,674.0 C 4179.0,646.0 4180.0,644.0 4180.0,585.0 L 4180.0,525.0 L 4342.0,381.0 L 4505.0,237.0 L 4591.0,329.0 L 4678.0,420.0 L 4728.0,420.0 C 4780.0,420.0 4790.0,429.0 4790.0,471.0 C 4790.0,488.0 4798.0,490.0 4866.0,490.0 C 4907.0,490.0 4972.0,495.0 5009.0,501.0 L 5078.0,511.0 L 5218.0,454.0 L 5358.0,397.0 L 5516.0,406.0 L 5675.0,415.0 L 5678.0,482.0 L 5681.0,549.0 L 5732.0,580.0 C 5759.0,597.0 5783.0,610.0 5785.0,608.0 C 5786.0,606.0 5778.0,575.0 5767.0,537.0 C 5756.0,500.0 5749.0,468.0 5751.0,466.0 C 5755.0,462.0 8686.0,239.0 8725.0,240.0 C 8743.0,240.0 8755.0,278.0 8838.0,583.0 C 8888.0,771.0 8930.0,931.0 8930.0,937.0 C 8930.0,943.0 8892.0,979.0 8846.0,1015.0 L 8762.0,1082.0 L 8756.0,1143.0 C 8750.0,1213.0 8726.0,8189.0 8731.0,8194.0 C 8733.0,8196.0 9003.0,8180.0 9330.0,8159.0 C 9657.0,8139.0 9953.0,8120.0 9988.0,8118.0 C 10022.0,8116.0 10050.0,8117.0 10050.0,8120.0 C 10049.0,8123.0 9994.0,8168.0 9927.0,8220.0 C 9860.0,8272.0 9607.0,8480.0 9365.0,8681.0 C 8898.0,9068.0 7494.0,10221.0 7473.0,10234.0 C 7466.0,10238.0 7460.0,10238.0 7460.0,10233.0" fill="pink"/>
</svg>
