<?xml version="1.0" ?>
<svg xmlns="http://www.w3.org/2000/svg" xmlns:ev="http://www.w3.org/2001/xml-events" xmlns:xlink="http://www.w3.org/1999/xlink" baseProfile="full" height="522px" version="1.1" viewBox="-1023.9406672775947 -217.10472051714203 12287.408342395043 10681.277796008759" width="600px">
	<defs/>
	<path d="M 1037.0,9563.0 C 1033.0,9560.0 1030.0,9549.0 1030.0,9539.0 C 1030.0,9529.0 1021.0,9516.0 1011.0,9510.0 C 986.0,9497.0 913.0,9497.0 905.0,9510.0 C 897.0,9523.0 748.0,9513.0 662.0,9494.0 C 584.0,9477.0 514.0,9442.0 443.0,9383.0 C 394.0,9344.0 383.0,9339.0 356.0,9345.0 C 308.0,9357.0 281.0,9354.0 259.0,9334.0 C 244.0,9320.0 236.0,9319.0 217.0,9328.0 C 205.0,9334.0 165.0,9338.0 127.0,9337.0 C 38.0,9333.0 25.0,9320.0 11.0,9216.0 C 1.0,9149.0 2.0,9133.0 15.0,9114.0 C 31.0,9089.0 35.0,9050.0 21.0,9050.0 C 17.0,9050.0 15.0,9039.0 18.0,9025.0 C 21.0,9008.0 29.0,9000.0 44.0,9000.0 C 55.0,9000.0 74.0,8993.0 84.0,8985.0 C 95.0,8977.0 111.0,8972.0 120.0,8975.0 C 130.0,8978.0 149.0,8966.0 169.0,8946.0 C 199.0,8915.0 202.0,8907.0 197.0,8873.0 C 193.0,8853.0 196.0,8819.0 202.0,8799.0 C 211.0,8766.0 210.0,8758.0 190.0,8728.0 C 177.0,8710.0 156.0,8685.0 143.0,8672.0 C 114.0,8643.0 112.0,8590.0 140.0,8565.0 C 152.0,8554.0 160.0,8534.0 160.0,8514.0 C 160.0,8484.0 163.0,8481.0 201.0,8475.0 C 239.0,8468.0 241.0,8466.0 238.0,8437.0 C 235.0,8407.0 232.0,8405.0 192.0,8402.0 L 150.0,8399.0 L 150.0,8324.0 C 150.0,8243.0 134.0,8199.0 86.0,8147.0 C 72.0,8132.0 60.0,8114.0 60.0,8108.0 C 60.0,8103.0 74.0,8080.0 91.0,8059.0 C 117.0,8025.0 127.0,8020.0 161.0,8020.0 C 187.0,8020.0 212.0,8012.0 231.0,7998.0 C 260.0,7976.0 262.0,7976.0 274.0,7993.0 C 284.0,8006.0 302.0,8010.0 357.0,8010.0 C 408.0,8010.0 431.0,8014.0 440.0,8025.0 C 456.0,8044.0 499.0,8044.0 520.0,8025.0 C 529.0,8017.0 560.0,8007.0 590.0,8003.0 C 635.0,7996.0 646.0,7990.0 660.0,7965.0 C 672.0,7943.0 687.0,7933.0 718.0,7927.0 C 745.0,7922.0 760.0,7913.0 760.0,7904.0 C 760.0,7879.0 788.0,7877.0 825.0,7899.0 C 873.0,7927.0 892.0,7925.0 859.0,7896.0 C 844.0,7883.0 829.0,7863.0 825.0,7851.0 C 820.0,7835.0 811.0,7830.0 784.0,7830.0 C 746.0,7830.0 742.0,7822.0 768.0,7799.0 C 777.0,7790.0 798.0,7762.0 813.0,7735.0 C 838.0,7693.0 844.0,7688.0 870.0,7692.0 C 903.0,7697.0 909.0,7688.0 903.0,7644.0 C 897.0,7607.0 911.0,7595.0 940.0,7610.0 C 956.0,7619.0 962.0,7618.0 966.0,7606.0 C 974.0,7585.0 1008.0,7576.0 1024.0,7589.0 C 1032.0,7596.0 1068.0,7607.0 1104.0,7614.0 C 1174.0,7629.0 1192.0,7626.0 1278.0,7589.0 C 1301.0,7578.0 1329.0,7570.0 1338.0,7570.0 C 1348.0,7570.0 1361.0,7565.0 1367.0,7559.0 C 1373.0,7553.0 1423.0,7544.0 1477.0,7540.0 C 1531.0,7536.0 1590.0,7527.0 1608.0,7521.0 C 1631.0,7514.0 1658.0,7514.0 1691.0,7520.0 C 1730.0,7528.0 1749.0,7526.0 1779.0,7514.0 C 1816.0,7500.0 1819.0,7495.0 1825.0,7449.0 C 1831.0,7408.0 1837.0,7397.0 1860.0,7385.0 C 1876.0,7377.0 1907.0,7370.0 1929.0,7370.0 C 1963.0,7370.0 1973.0,7364.0 2003.0,7328.0 L 2038.0,7286.0 L 2077.0,7328.0 C 2102.0,7355.0 2127.0,7372.0 2150.0,7376.0 C 2169.0,7380.0 2215.0,7401.0 2252.0,7424.0 L 2319.0,7465.0 L 2316.0,7508.0 C 2314.0,7531.0 2305.0,7559.0 2295.0,7570.0 C 2285.0,7581.0 2281.0,7590.0 2287.0,7590.0 C 2293.0,7590.0 2308.0,7569.0 2322.0,7543.0 C 2342.0,7504.0 2353.0,7494.0 2386.0,7484.0 C 2408.0,7477.0 2441.0,7465.0 2459.0,7455.0 C 2495.0,7437.0 2520.0,7447.0 2520.0,7481.0 C 2520.0,7509.0 2534.0,7512.0 2604.0,7499.0 L 2669.0,7487.0 L 2720.0,7533.0 C 2769.0,7577.0 2800.0,7592.0 2800.0,7571.0 C 2800.0,7565.0 2796.0,7558.0 2790.0,7555.0 C 2776.0,7546.0 2778.0,7530.0 2793.0,7530.0 C 2799.0,7530.0 2831.0,7548.0 2863.0,7570.0 C 2894.0,7592.0 2929.0,7610.0 2940.0,7610.0 C 2951.0,7610.0 2960.0,7615.0 2960.0,7620.0 C 2960.0,7626.0 2971.0,7636.0 2985.0,7642.0 C 3014.0,7655.0 3023.0,7678.0 3014.0,7714.0 C 3009.0,7734.0 3003.0,7739.0 2989.0,7735.0 C 2949.0,7722.0 2975.0,7782.0 3017.0,7799.0 C 3046.0,7810.0 3137.0,7810.0 3156.0,7797.0 C 3166.0,7791.0 3265.0,7788.0 3445.0,7787.0 C 3478.0,7787.0 3499.0,7782.0 3506.0,7772.0 C 3516.0,7758.0 3523.0,7758.0 3560.0,7769.0 C 3592.0,7778.0 3605.0,7789.0 3613.0,7811.0 C 3624.0,7840.0 3625.0,7840.0 3686.0,7834.0 C 3747.0,7828.0 3748.0,7828.0 3781.0,7862.0 C 3831.0,7913.0 3881.0,7941.0 3903.0,7929.0 C 3916.0,7921.0 3920.0,7923.0 3920.0,7933.0 C 3920.0,7941.0 3934.0,7953.0 3951.0,7960.0 C 3980.0,7972.0 3981.0,7975.0 3975.0,8014.0 C 3968.0,8060.0 3902.0,8200.0 3882.0,8213.0 C 3875.0,8218.0 3853.0,8237.0 3832.0,8257.0 C 3812.0,8276.0 3770.0,8316.0 3740.0,8344.0 C 3710.0,8373.0 3669.0,8409.0 3650.0,8425.0 C 3631.0,8440.0 3604.0,8476.0 3590.0,8504.0 C 3568.0,8548.0 3560.0,8555.0 3532.0,8558.0 C 3513.0,8560.0 3488.0,8554.0 3473.0,8545.0 C 3448.0,8528.0 3447.0,8528.0 3411.0,8567.0 C 3391.0,8589.0 3366.0,8610.0 3355.0,8614.0 C 3339.0,8618.0 3334.0,8629.0 3333.0,8658.0 C 3332.0,8678.0 3331.0,8702.0 3329.0,8710.0 C 3328.0,8719.0 3330.0,8738.0 3334.0,8754.0 C 3340.0,8778.0 3335.0,8787.0 3304.0,8817.0 C 3270.0,8849.0 3262.0,8852.0 3221.0,8847.0 C 3196.0,8844.0 3171.0,8835.0 3165.0,8826.0 C 3158.0,8817.0 3145.0,8810.0 3136.0,8810.0 C 3127.0,8810.0 3102.0,8801.0 3080.0,8790.0 C 3033.0,8766.0 3030.0,8766.0 3030.0,8784.0 C 3030.0,8792.0 3014.0,8815.0 2995.0,8836.0 C 2976.0,8856.0 2960.0,8877.0 2960.0,8881.0 C 2960.0,8886.0 2951.0,8890.0 2941.0,8890.0 C 2930.0,8890.0 2906.0,8899.0 2887.0,8910.0 C 2853.0,8930.0 2841.0,8953.0 2840.0,8995.0 C 2839.0,9020.0 2781.0,9049.0 2745.0,9042.0 C 2725.0,9039.0 2712.0,9023.0 2690.0,8980.0 C 2663.0,8927.0 2658.0,8922.0 2620.0,8916.0 C 2585.0,8910.0 2571.0,8914.0 2534.0,8937.0 C 2510.0,8952.0 2490.0,8970.0 2490.0,8976.0 C 2490.0,8995.0 2445.0,9030.0 2399.0,9045.0 C 2354.0,9060.0 2300.0,9102.0 2300.0,9121.0 C 2300.0,9127.0 2291.0,9153.0 2279.0,9180.0 C 2265.0,9213.0 2249.0,9232.0 2230.0,9240.0 C 2214.0,9247.0 2194.0,9260.0 2184.0,9271.0 C 2175.0,9281.0 2156.0,9290.0 2143.0,9290.0 C 2130.0,9290.0 2109.0,9297.0 2096.0,9305.0 C 2066.0,9325.0 2046.0,9316.0 2021.0,9274.0 C 1979.0,9203.0 1942.0,9221.0 1938.0,9313.0 C 1935.0,9374.0 1934.0,9375.0 1898.0,9393.0 C 1868.0,9406.0 1851.0,9408.0 1820.0,9401.0 C 1785.0,9393.0 1778.0,9395.0 1770.0,9410.0 C 1757.0,9434.0 1757.0,9467.0 1770.0,9475.0 C 1776.0,9478.0 1780.0,9490.0 1780.0,9501.0 C 1780.0,9530.0 1729.0,9526.0 1700.0,9495.0 L 1677.0,9471.0 L 1661.0,9492.0 C 1644.0,9513.0 1601.0,9524.0 1490.0,9536.0 C 1460.0,9539.0 1423.0,9546.0 1409.0,9551.0 C 1392.0,9558.0 1374.0,9557.0 1355.0,9550.0 C 1333.0,9542.0 1324.0,9543.0 1310.0,9555.0 C 1288.0,9575.0 1246.0,9574.0 1225.0,9554.0 C 1202.0,9530.0 1121.0,9529.0 1091.0,9552.0 C 1066.0,9571.0 1048.0,9575.0 1037.0,9563.0" fill="pink"/>
	<path d="M 4017.0,7536.0 C 4024.0,7469.0 4010.0,7458.0 3969.0,7499.0 C 3952.0,7516.0 3932.0,7530.0 3924.0,7530.0 C 3916.0,7530.0 3907.0,7537.0 3904.0,7545.0 C 3900.0,7553.0 3888.0,7560.0 3875.0,7560.0 C 3858.0,7560.0 3848.0,7550.0 3836.0,7520.0 C 3827.0,7498.0 3813.0,7480.0 3805.0,7480.0 C 3794.0,7480.0 3790.0,7491.0 3790.0,7520.0 C 3790.0,7567.0 3775.0,7572.0 3730.0,7539.0 C 3708.0,7522.0 3694.0,7519.0 3667.0,7524.0 C 3638.0,7529.0 3632.0,7527.0 3627.0,7510.0 C 3624.0,7499.0 3631.0,7474.0 3641.0,7453.0 C 3651.0,7433.0 3660.0,7402.0 3660.0,7384.0 C 3660.0,7360.0 3668.0,7346.0 3694.0,7326.0 C 3713.0,7312.0 3730.0,7290.0 3732.0,7278.0 C 3734.0,7263.0 3742.0,7255.0 3755.0,7254.0 C 3766.0,7253.0 3782.0,7250.0 3792.0,7246.0 C 3819.0,7234.0 3797.0,7182.0 3738.0,7123.0 C 3710.0,7094.0 3689.0,7068.0 3693.0,7064.0 C 3696.0,7061.0 3721.0,7063.0 3748.0,7070.0 C 3775.0,7076.0 3824.0,7080.0 3856.0,7078.0 C 3889.0,7077.0 3922.0,7080.0 3930.0,7085.0 C 3938.0,7091.0 3984.0,7095.0 4032.0,7096.0 C 4079.0,7096.0 4124.0,7101.0 4132.0,7107.0 C 4153.0,7123.0 4238.0,7141.0 4264.0,7134.0 C 4301.0,7125.0 4330.0,7138.0 4330.0,7164.0 C 4330.0,7176.0 4341.0,7197.0 4355.0,7210.0 C 4379.0,7233.0 4390.0,7280.0 4370.0,7280.0 C 4357.0,7280.0 4310.0,7332.0 4310.0,7347.0 C 4310.0,7366.0 4217.0,7440.0 4192.0,7440.0 C 4156.0,7440.0 4110.0,7468.0 4110.0,7490.0 C 4110.0,7513.0 4044.0,7590.0 4025.0,7590.0 C 4015.0,7590.0 4013.0,7577.0 4017.0,7536.0" fill="pink"/>
	<path d="M 3514.0,7399.0 C 3511.0,7393.0 3499.0,7390.0 3489.0,7393.0 C 3459.0,7401.0 3464.0,7354.0 3495.0,7334.0 C 3519.0,7318.0 3522.0,7319.0 3539.0,7334.0 C 3557.0,7350.0 3561.0,7350.0 3589.0,7336.0 C 3626.0,7316.0 3630.0,7316.0 3630.0,7335.0 C 3630.0,7343.0 3621.0,7355.0 3610.0,7362.0 C 3599.0,7369.0 3590.0,7380.0 3590.0,7386.0 C 3590.0,7409.0 3527.0,7419.0 3514.0,7399.0" fill="pink"/>
	<path d="M 3660.0,7274.0 C 3660.0,7265.0 3667.0,7260.0 3677.0,7262.0 C 3702.0,7267.0 3705.0,7290.0 3681.0,7290.0 C 3669.0,7290.0 3660.0,7284.0 3660.0,7274.0" fill="pink"/>
	<path d="M 4762.0,6878.0 C 4755.0,6871.0 4750.0,6857.0 4750.0,6847.0 C 4750.0,6833.0 4746.0,6830.0 4733.0,6835.0 C 4688.0,6855.0 4665.0,6851.0 4637.0,6822.0 C 4609.0,6793.0 4609.0,6793.0 4626.0,6757.0 C 4640.0,6727.0 4649.0,6721.0 4679.0,6718.0 C 4707.0,6716.0 4715.0,6711.0 4715.0,6695.0 C 4715.0,6684.0 4708.0,6674.0 4700.0,6673.0 C 4692.0,6672.0 4663.0,6668.0 4637.0,6665.0 C 4595.0,6659.0 4587.0,6655.0 4578.0,6629.0 C 4570.0,6605.0 4563.0,6600.0 4534.0,6600.0 C 4504.0,6600.0 4497.0,6605.0 4489.0,6629.0 C 4477.0,6664.0 4459.0,6673.0 4426.0,6660.0 C 4400.0,6651.0 4380.0,6601.0 4380.0,6549.0 C 4380.0,6514.0 4373.0,6510.0 4342.0,6526.0 C 4327.0,6534.0 4296.0,6540.0 4273.0,6540.0 C 4238.0,6540.0 4230.0,6537.0 4230.0,6522.0 C 4230.0,6505.0 4225.0,6505.0 4166.0,6513.0 C 4109.0,6522.0 4098.0,6521.0 4066.0,6502.0 L 4030.0,6481.0 L 4001.0,6505.0 C 3970.0,6532.0 3894.0,6540.0 3874.0,6520.0 C 3857.0,6503.0 3798.0,6550.0 3788.0,6588.0 C 3779.0,6621.0 3760.0,6624.0 3760.0,6592.0 C 3760.0,6583.0 3753.0,6562.0 3745.0,6546.0 C 3725.0,6508.0 3735.0,6498.0 3811.0,6476.0 C 3886.0,6455.0 3906.0,6433.0 3890.0,6386.0 C 3880.0,6355.0 3876.0,6351.0 3859.0,6361.0 C 3827.0,6378.0 3804.0,6363.0 3755.0,6294.0 C 3717.0,6242.0 3704.0,6230.0 3681.0,6230.0 C 3661.0,6230.0 3650.0,6223.0 3642.0,6205.0 C 3636.0,6191.0 3625.0,6180.0 3619.0,6180.0 C 3613.0,6180.0 3610.0,6173.0 3613.0,6165.0 C 3617.0,6157.0 3615.0,6148.0 3610.0,6145.0 C 3604.0,6141.0 3600.0,6131.0 3600.0,6121.0 C 3600.0,6111.0 3593.0,6097.0 3585.0,6090.0 C 3574.0,6081.0 3573.0,6074.0 3580.0,6065.0 C 3588.0,6056.0 3584.0,6048.0 3565.0,6036.0 C 3551.0,6027.0 3540.0,6012.0 3540.0,6002.0 C 3540.0,5983.0 3601.0,5920.0 3637.0,5901.0 C 3674.0,5882.0 3726.0,5888.0 3758.0,5915.0 C 3786.0,5938.0 3789.0,5939.0 3876.0,5930.0 C 3925.0,5925.0 3966.0,5920.0 3968.0,5920.0 C 3969.0,5920.0 3970.0,5909.0 3970.0,5896.0 C 3970.0,5883.0 3981.0,5856.0 3995.0,5836.0 C 4026.0,5790.0 4030.0,5730.0 4001.0,5730.0 C 3969.0,5730.0 3967.0,5711.0 3995.0,5674.0 C 4020.0,5641.0 4025.0,5639.0 4064.0,5645.0 C 4102.0,5651.0 4104.0,5650.0 4085.0,5635.0 C 4036.0,5598.0 4018.0,5576.0 4031.0,5572.0 C 4064.0,5562.0 4070.0,5549.0 4054.0,5525.0 C 4035.0,5496.0 4049.0,5464.0 4086.0,5450.0 C 4099.0,5445.0 4110.0,5432.0 4110.0,5422.0 C 4110.0,5402.0 4081.0,5370.0 4062.0,5370.0 C 4041.0,5370.0 4020.0,5338.0 4020.0,5306.0 C 4020.0,5288.0 4011.0,5261.0 4000.0,5247.0 C 3987.0,5230.0 3981.0,5210.0 3983.0,5184.0 L 3985.0,5145.0 L 3940.0,5145.0 C 3915.0,5144.0 3880.0,5136.0 3863.0,5127.0 C 3828.0,5109.0 3797.0,5060.0 3802.0,5032.0 C 3803.0,5023.0 3801.0,5010.0 3797.0,5004.0 C 3794.0,4998.0 3801.0,4977.0 3813.0,4959.0 C 3832.0,4931.0 3842.0,4925.0 3875.0,4924.0 C 3897.0,4923.0 3940.0,4915.0 3971.0,4906.0 C 4018.0,4892.0 4029.0,4884.0 4043.0,4855.0 C 4058.0,4824.0 4075.0,4814.0 4104.0,4819.0 C 4109.0,4820.0 4131.0,4818.0 4151.0,4815.0 C 4198.0,4807.0 4206.0,4787.0 4184.0,4734.0 C 4168.0,4696.0 4168.0,4696.0 4195.0,4674.0 C 4218.0,4656.0 4220.0,4650.0 4211.0,4631.0 C 4198.0,4607.0 4182.0,4605.0 4146.0,4621.0 C 4117.0,4635.0 4070.0,4625.0 4070.0,4606.0 C 4070.0,4599.0 4079.0,4581.0 4090.0,4567.0 C 4107.0,4545.0 4116.0,4542.0 4147.0,4547.0 L 4183.0,4553.0 L 4177.0,4510.0 C 4173.0,4478.0 4177.0,4456.0 4191.0,4428.0 C 4215.0,4382.0 4210.0,4370.0 4166.0,4370.0 C 4142.0,4370.0 4123.0,4379.0 4096.0,4406.0 C 4069.0,4432.0 4052.0,4441.0 4032.0,4439.0 C 4017.0,4437.0 3999.0,4439.0 3993.0,4443.0 C 3985.0,4448.0 3966.0,4441.0 3947.0,4425.0 C 3913.0,4400.0 3913.0,4399.0 3906.0,4295.0 C 3899.0,4180.0 3905.0,4156.0 3945.0,4146.0 C 3960.0,4142.0 3970.0,4133.0 3970.0,4122.0 C 3970.0,4111.0 3984.0,4097.0 4005.0,4087.0 C 4028.0,4076.0 4040.0,4063.0 4040.0,4050.0 C 4040.0,4022.0 4068.0,3968.0 4091.0,3952.0 C 4117.0,3934.0 4115.0,3914.0 4088.0,3906.0 C 4052.0,3897.0 3969.0,3899.0 3925.0,3911.0 C 3854.0,3930.0 3820.0,3933.0 3805.0,3920.0 C 3783.0,3902.0 3796.0,3861.0 3838.0,3818.0 L 3873.0,3781.0 L 3843.0,3733.0 C 3826.0,3707.0 3809.0,3675.0 3805.0,3662.0 C 3794.0,3623.0 3817.0,3576.0 3866.0,3539.0 C 3917.0,3501.0 3958.0,3431.0 3992.0,3322.0 C 4011.0,3260.0 4014.0,3225.0 4011.0,3116.0 C 4010.0,3087.0 4016.0,3070.0 4034.0,3051.0 C 4047.0,3037.0 4079.0,2992.0 4105.0,2952.0 C 4133.0,2907.0 4167.0,2870.0 4191.0,2855.0 C 4212.0,2841.0 4230.0,2823.0 4230.0,2816.0 C 4230.0,2785.0 4294.0,2760.0 4389.0,2753.0 C 4448.0,2749.0 4480.0,2743.0 4480.0,2735.0 C 4480.0,2729.0 4467.0,2711.0 4450.0,2695.0 L 4420.0,2666.0 L 4448.0,2648.0 C 4463.0,2638.0 4488.0,2630.0 4504.0,2630.0 C 4524.0,2630.0 4548.0,2615.0 4589.0,2578.0 C 4649.0,2524.0 4673.0,2491.0 4683.0,2449.0 C 4687.0,2432.0 4710.0,2410.0 4752.0,2382.0 C 4787.0,2360.0 4840.0,2317.0 4870.0,2286.0 C 4900.0,2255.0 4949.0,2219.0 4979.0,2205.0 C 5008.0,2190.0 5057.0,2154.0 5086.0,2124.0 C 5130.0,2080.0 5149.0,2068.0 5192.0,2058.0 C 5221.0,2051.0 5248.0,2040.0 5253.0,2034.0 C 5257.0,2027.0 5302.0,2001.0 5353.0,1977.0 C 5403.0,1953.0 5453.0,1924.0 5464.0,1912.0 C 5474.0,1900.0 5498.0,1886.0 5516.0,1880.0 C 5553.0,1867.0 5560.0,1843.0 5539.0,1797.0 C 5530.0,1776.0 5532.0,1767.0 5551.0,1741.0 C 5570.0,1716.0 5581.0,1710.0 5612.0,1710.0 C 5644.0,1710.0 5657.0,1703.0 5683.0,1675.0 C 5713.0,1642.0 5720.0,1639.0 5765.0,1641.0 C 5804.0,1643.0 5841.0,1633.0 5930.0,1598.0 C 6041.0,1555.0 6045.0,1552.0 6043.0,1524.0 C 6042.0,1507.0 6048.0,1487.0 6060.0,1475.0 C 6070.0,1464.0 6080.0,1439.0 6082.0,1420.0 C 6085.0,1386.0 6086.0,1385.0 6144.0,1373.0 C 6176.0,1367.0 6216.0,1352.0 6231.0,1341.0 C 6254.0,1324.0 6264.0,1322.0 6279.0,1330.0 C 6308.0,1345.0 6388.0,1343.0 6397.0,1326.0 C 6407.0,1308.0 6483.0,1302.0 6502.0,1317.0 C 6526.0,1337.0 6570.0,1320.0 6588.0,1284.0 C 6596.0,1265.0 6609.0,1250.0 6617.0,1250.0 C 6624.0,1250.0 6634.0,1241.0 6640.0,1230.0 C 6652.0,1208.0 6680.0,1204.0 6697.0,1221.0 C 6706.0,1230.0 6722.0,1226.0 6763.0,1207.0 C 6793.0,1193.0 6826.0,1184.0 6837.0,1186.0 C 6850.0,1190.0 6860.0,1184.0 6868.0,1168.0 C 6887.0,1134.0 6971.0,1089.0 6994.0,1102.0 C 7007.0,1109.0 7019.0,1108.0 7035.0,1100.0 C 7068.0,1082.0 7103.0,1094.0 7134.0,1135.0 C 7166.0,1176.0 7184.0,1179.0 7206.0,1145.0 C 7221.0,1123.0 7229.0,1120.0 7285.0,1120.0 C 7347.0,1120.0 7349.0,1119.0 7381.0,1079.0 C 7423.0,1025.0 7514.0,966.0 7543.0,974.0 C 7558.0,978.0 7573.0,971.0 7591.0,954.0 C 7616.0,930.0 7623.0,929.0 7691.0,933.0 C 7732.0,936.0 7779.0,941.0 7795.0,945.0 C 7819.0,950.0 7830.0,947.0 7844.0,931.0 C 7862.0,912.0 7870.0,911.0 7987.0,917.0 C 8066.0,921.0 8118.0,919.0 8133.0,913.0 C 8145.0,907.0 8190.0,890.0 8234.0,875.0 C 8277.0,861.0 8355.0,824.0 8408.0,794.0 C 8461.0,764.0 8510.0,740.0 8516.0,740.0 C 8522.0,740.0 8535.0,731.0 8544.0,721.0 C 8570.0,692.0 8659.0,681.0 8887.0,678.0 C 9074.0,676.0 9090.0,677.0 9110.0,695.0 C 9124.0,707.0 9143.0,713.0 9163.0,712.0 C 9205.0,708.0 9280.0,763.0 9280.0,797.0 C 9280.0,822.0 9290.0,826.0 9307.0,809.0 C 9321.0,795.0 9380.0,827.0 9380.0,850.0 C 9380.0,858.0 9421.0,906.0 9470.0,955.0 C 9520.0,1004.0 9560.0,1048.0 9560.0,1052.0 C 9560.0,1070.0 9539.0,1055.0 9452.0,974.0 C 9382.0,909.0 9360.0,893.0 9360.0,908.0 C 9360.0,919.0 9363.0,930.0 9368.0,932.0 C 9384.0,939.0 9470.0,1040.0 9470.0,1052.0 C 9470.0,1073.0 9381.0,1169.0 9362.0,1168.0 C 9353.0,1168.0 9333.0,1171.0 9318.0,1175.0 C 9267.0,1189.0 9273.0,1156.0 9334.0,1088.0 C 9365.0,1054.0 9390.0,1024.0 9390.0,1021.0 C 9390.0,1017.0 9381.0,1009.0 9371.0,1003.0 C 9353.0,992.0 9340.0,1001.0 9248.0,1084.0 C 9162.0,1164.0 9143.0,1177.0 9127.0,1168.0 C 9115.0,1162.0 9110.0,1151.0 9113.0,1139.0 C 9117.0,1126.0 9113.0,1120.0 9102.0,1120.0 C 9074.0,1120.0 9057.0,1137.0 9062.0,1158.0 C 9065.0,1170.0 9059.0,1192.0 9046.0,1211.0 C 9001.0,1280.0 9000.0,1284.0 9015.0,1300.0 C 9028.0,1312.0 9032.0,1312.0 9044.0,1295.0 C 9057.0,1276.0 9059.0,1277.0 9095.0,1304.0 C 9127.0,1329.0 9131.0,1336.0 9126.0,1363.0 C 9118.0,1404.0 9093.0,1440.0 9074.0,1440.0 C 9062.0,1440.0 9059.0,1446.0 9064.0,1463.0 C 9067.0,1475.0 9070.0,1493.0 9070.0,1504.0 C 9070.0,1520.0 9075.0,1521.0 9114.0,1516.0 C 9146.0,1511.0 9168.0,1513.0 9189.0,1524.0 C 9237.0,1549.0 9263.0,1544.0 9281.0,1507.0 C 9290.0,1487.0 9313.0,1467.0 9340.0,1453.0 C 9393.0,1425.0 9418.0,1424.0 9427.0,1448.0 C 9431.0,1457.0 9442.0,1476.0 9452.0,1489.0 C 9469.0,1511.0 9469.0,1515.0 9455.0,1536.0 C 9447.0,1549.0 9440.0,1570.0 9440.0,1582.0 C 9440.0,1595.0 9433.0,1634.0 9426.0,1670.0 C 9414.0,1725.0 9414.0,1740.0 9426.0,1767.0 C 9441.0,1805.0 9446.0,1806.0 9479.0,1783.0 C 9502.0,1767.0 9502.0,1766.0 9484.0,1760.0 C 9467.0,1754.0 9468.0,1751.0 9495.0,1737.0 C 9553.0,1705.0 9608.0,1646.0 9631.0,1590.0 C 9643.0,1560.0 9660.0,1529.0 9668.0,1523.0 C 9679.0,1514.0 9683.0,1495.0 9681.0,1456.0 C 9679.0,1403.0 9679.0,1401.0 9707.0,1398.0 C 9731.0,1395.0 9735.0,1390.0 9738.0,1362.0 C 9740.0,1343.0 9737.0,1316.0 9732.0,1300.0 C 9723.0,1276.0 9725.0,1269.0 9745.0,1250.0 C 9762.0,1234.0 9770.0,1213.0 9774.0,1166.0 C 9784.0,1081.0 9786.0,1078.0 9843.0,1097.0 C 9881.0,1109.0 9890.0,1116.0 9884.0,1129.0 C 9880.0,1138.0 9876.0,1156.0 9875.0,1170.0 C 9874.0,1185.0 9865.0,1199.0 9852.0,1205.0 C 9827.0,1216.0 9821.0,1246.0 9846.0,1236.0 C 9876.0,1225.0 9897.0,1247.0 9904.0,1297.0 C 9907.0,1323.0 9917.0,1358.0 9925.0,1374.0 C 9942.0,1406.0 9941.0,1408.0 9908.0,1424.0 C 9892.0,1433.0 9886.0,1443.0 9888.0,1461.0 C 9890.0,1474.0 9892.0,1497.0 9892.0,1512.0 C 9893.0,1530.0 9897.0,1537.0 9906.0,1533.0 C 9916.0,1529.0 9920.0,1539.0 9920.0,1569.0 C 9920.0,1608.0 9918.0,1610.0 9890.0,1610.0 C 9852.0,1610.0 9820.0,1644.0 9820.0,1686.0 C 9820.0,1732.0 9842.0,1735.0 9891.0,1695.0 C 9939.0,1654.0 9954.0,1651.0 9945.0,1683.0 C 9936.0,1711.0 9892.0,1770.0 9879.0,1770.0 C 9874.0,1770.0 9870.0,1783.0 9870.0,1799.0 C 9870.0,1821.0 9876.0,1830.0 9899.0,1840.0 C 9924.0,1850.0 9935.0,1849.0 9973.0,1832.0 C 9997.0,1821.0 10027.0,1798.0 10039.0,1781.0 C 10060.0,1752.0 10090.0,1739.0 10090.0,1759.0 C 10090.0,1764.0 10099.0,1770.0 10110.0,1773.0 C 10135.0,1779.0 10146.0,1808.0 10133.0,1829.0 C 10128.0,1837.0 10106.0,1854.0 10084.0,1865.0 C 10032.0,1892.0 10023.0,1921.0 10044.0,1994.0 C 10058.0,2042.0 10066.0,2054.0 10091.0,2063.0 C 10152.0,2086.0 10112.0,2107.0 10014.0,2104.0 C 9946.0,2101.0 9943.0,2102.0 9927.0,2129.0 C 9894.0,2185.0 9916.0,2250.0 9968.0,2250.0 C 10004.0,2250.0 10017.0,2260.0 10021.0,2290.0 C 10024.0,2311.0 10031.0,2316.0 10068.0,2320.0 C 10108.0,2325.0 10113.0,2328.0 10125.0,2363.0 C 10143.0,2415.0 10166.0,2438.0 10204.0,2442.0 C 10241.0,2446.0 10247.0,2473.0 10212.0,2478.0 C 10200.0,2480.0 10184.0,2490.0 10177.0,2501.0 C 10170.0,2512.0 10143.0,2537.0 10116.0,2556.0 C 10066.0,2593.0 10036.0,2595.0 10001.0,2567.0 C 9988.0,2556.0 9879.0,2529.0 9872.0,2535.0 C 9870.0,2537.0 9876.0,2552.0 9885.0,2569.0 C 9898.0,2595.0 9905.0,2599.0 9925.0,2594.0 C 9943.0,2590.0 9960.0,2595.0 9985.0,2614.0 C 10004.0,2629.0 10032.0,2640.0 10047.0,2640.0 C 10096.0,2640.0 10200.0,2652.0 10205.0,2659.0 C 10207.0,2663.0 10193.0,2686.0 10173.0,2710.0 C 10154.0,2735.0 10126.0,2775.0 10112.0,2800.0 C 10078.0,2859.0 9996.0,2953.0 9965.0,2970.0 C 9950.0,2978.0 9940.0,2992.0 9940.0,3005.0 C 9940.0,3017.0 9932.0,3034.0 9923.0,3042.0 C 9905.0,3057.0 9789.0,3114.0 9758.0,3124.0 C 9749.0,3127.0 9732.0,3149.0 9721.0,3174.0 C 9706.0,3208.0 9695.0,3221.0 9673.0,3225.0 C 9624.0,3236.0 9620.0,3239.0 9620.0,3261.0 C 9620.0,3296.0 9582.0,3339.0 9538.0,3352.0 C 9513.0,3359.0 9476.0,3385.0 9441.0,3418.0 C 9410.0,3448.0 9362.0,3487.0 9335.0,3505.0 C 9307.0,3523.0 9278.0,3545.0 9271.0,3554.0 C 9255.0,3573.0 9243.0,3574.0 9209.0,3556.0 C 9186.0,3544.0 9182.0,3545.0 9172.0,3560.0 C 9166.0,3570.0 9144.0,3583.0 9123.0,3590.0 C 9102.0,3596.0 9043.0,3622.0 8992.0,3646.0 C 8906.0,3687.0 8860.0,3700.0 8860.0,3683.0 C 8860.0,3671.0 8893.0,3619.0 8934.0,3566.0 C 8977.0,3510.0 8978.0,3500.0 8945.0,3500.0 C 8931.0,3500.0 8920.0,3505.0 8920.0,3510.0 C 8920.0,3532.0 8888.0,3532.0 8865.0,3510.0 L 8841.0,3488.0 L 8891.0,3423.0 C 8918.0,3388.0 8940.0,3355.0 8940.0,3350.0 C 8940.0,3346.0 8925.0,3347.0 8908.0,3352.0 C 8834.0,3376.0 8822.0,3386.0 8759.0,3463.0 C 8727.0,3501.0 8703.0,3509.0 8682.0,3488.0 C 8673.0,3479.0 8680.0,3467.0 8713.0,3435.0 C 8749.0,3401.0 8760.0,3382.0 8773.0,3327.0 C 8792.0,3252.0 8794.0,3212.0 8780.0,3190.0 C 8773.0,3179.0 8770.0,3190.0 8770.0,3227.0 C 8770.0,3270.0 8764.0,3286.0 8737.0,3322.0 C 8719.0,3346.0 8701.0,3372.0 8698.0,3381.0 C 8694.0,3390.0 8671.0,3405.0 8646.0,3413.0 C 8600.0,3429.0 8600.0,3429.0 8600.0,3406.0 C 8600.0,3393.0 8611.0,3367.0 8624.0,3348.0 C 8637.0,3329.0 8650.0,3297.0 8654.0,3278.0 C 8658.0,3258.0 8669.0,3231.0 8680.0,3217.0 C 8704.0,3187.0 8706.0,3128.0 8685.0,3110.0 C 8672.0,3099.0 8670.0,3104.0 8670.0,3145.0 C 8670.0,3183.0 8664.0,3200.0 8639.0,3231.0 C 8613.0,3264.0 8602.0,3270.0 8572.0,3270.0 C 8551.0,3270.0 8517.0,3260.0 8495.0,3249.0 C 8463.0,3232.0 8452.0,3230.0 8437.0,3240.0 C 8415.0,3254.0 8400.0,3240.0 8400.0,3205.0 C 8400.0,3193.0 8387.0,3178.0 8370.0,3168.0 C 8343.0,3153.0 8340.0,3146.0 8340.0,3100.0 C 8340.0,3064.0 8336.0,3050.0 8326.0,3050.0 C 8319.0,3050.0 8301.0,3041.0 8286.0,3029.0 C 8266.0,3013.0 8260.0,3012.0 8260.0,3023.0 C 8260.0,3032.0 8266.0,3041.0 8273.0,3044.0 C 8281.0,3047.0 8279.0,3053.0 8266.0,3064.0 C 8239.0,3086.0 8210.0,3084.0 8183.0,3058.0 C 8159.0,3035.0 8152.0,3047.0 8170.0,3081.0 C 8182.0,3103.0 8229.0,3107.0 8261.0,3088.0 C 8278.0,3077.0 8283.0,3078.0 8296.0,3095.0 C 8309.0,3112.0 8308.0,3116.0 8285.0,3138.0 C 8271.0,3150.0 8260.0,3167.0 8260.0,3174.0 C 8260.0,3181.0 8249.0,3192.0 8235.0,3198.0 C 8207.0,3211.0 8200.0,3236.0 8227.0,3226.0 C 8266.0,3211.0 8333.0,3232.0 8378.0,3273.0 C 8418.0,3311.0 8497.0,3421.0 8513.0,3463.0 C 8516.0,3472.0 8531.0,3485.0 8545.0,3490.0 C 8559.0,3495.0 8582.0,3520.0 8597.0,3544.0 C 8619.0,3580.0 8635.0,3593.0 8675.0,3608.0 C 8721.0,3626.0 8725.0,3630.0 8731.0,3666.0 C 8734.0,3687.0 8746.0,3724.0 8758.0,3747.0 C 8786.0,3800.0 8786.0,3826.0 8759.0,3841.0 C 8733.0,3854.0 8694.0,3837.0 8684.0,3808.0 C 8677.0,3785.0 8638.0,3775.0 8612.0,3789.0 C 8585.0,3803.0 8588.0,3804.0 8545.0,3770.0 C 8524.0,3754.0 8496.0,3740.0 8483.0,3740.0 C 8468.0,3740.0 8444.0,3726.0 8423.0,3705.0 C 8404.0,3686.0 8384.0,3670.0 8379.0,3670.0 C 8374.0,3670.0 8370.0,3666.0 8370.0,3662.0 C 8370.0,3646.0 8265.0,3540.0 8251.0,3540.0 C 8243.0,3540.0 8224.0,3528.0 8209.0,3514.0 L 8182.0,3488.0 L 8183.0,3536.0 L 8185.0,3585.0 L 8127.0,3582.0 C 8094.0,3581.0 8058.0,3573.0 8044.0,3563.0 C 8019.0,3547.0 8018.0,3547.0 8022.0,3570.0 C 8026.0,3604.0 8107.0,3633.0 8171.0,3625.0 C 8235.0,3617.0 8266.0,3631.0 8272.0,3669.0 C 8277.0,3706.0 8256.0,3730.0 8187.0,3760.0 C 8140.0,3781.0 8135.0,3786.0 8145.0,3813.0 C 8150.0,3825.0 8159.0,3824.0 8205.0,3809.0 C 8234.0,3800.0 8269.0,3784.0 8283.0,3775.0 C 8319.0,3752.0 8364.0,3741.0 8383.0,3752.0 C 8393.0,3757.0 8409.0,3779.0 8421.0,3801.0 C 8440.0,3839.0 8440.0,3843.0 8425.0,3866.0 C 8411.0,3888.0 8403.0,3890.0 8329.0,3890.0 C 8282.0,3890.0 8235.0,3884.0 8215.0,3876.0 C 8171.0,3857.0 8162.0,3871.0 8190.0,3910.0 C 8214.0,3943.0 8235.0,3956.0 8327.0,3989.0 L 8389.0,4012.0 L 8455.0,3956.0 C 8524.0,3898.0 8572.0,3880.0 8609.0,3899.0 C 8623.0,3907.0 8630.0,3920.0 8630.0,3938.0 C 8630.0,3961.0 8624.0,3968.0 8598.0,3975.0 C 8576.0,3982.0 8558.0,3998.0 8540.0,4029.0 C 8513.0,4076.0 8501.0,4085.0 8456.0,4095.0 C 8430.0,4100.0 8428.0,4104.0 8434.0,4133.0 C 8447.0,4202.0 8446.0,4204.0 8414.0,4215.0 C 8397.0,4220.0 8377.0,4230.0 8369.0,4236.0 C 8361.0,4242.0 8338.0,4251.0 8316.0,4254.0 C 8292.0,4259.0 8267.0,4273.0 8248.0,4293.0 C 8219.0,4324.0 8219.0,4325.0 8204.0,4305.0 C 8196.0,4294.0 8187.0,4274.0 8184.0,4260.0 C 8174.0,4215.0 8171.0,4210.0 8150.0,4210.0 C 8138.0,4210.0 8119.0,4205.0 8108.0,4199.0 C 8089.0,4189.0 8088.0,4190.0 8092.0,4231.0 C 8095.0,4268.0 8092.0,4277.0 8062.0,4306.0 C 8043.0,4324.0 8021.0,4341.0 8012.0,4343.0 C 8002.0,4345.0 8005.0,4346.0 8018.0,4344.0 C 8030.0,4342.0 8051.0,4337.0 8063.0,4334.0 C 8097.0,4326.0 8116.0,4350.0 8124.0,4412.0 C 8130.0,4461.0 8128.0,4467.0 8103.0,4488.0 L 8075.0,4511.0 L 8110.0,4541.0 C 8138.0,4565.0 8142.0,4572.0 8130.0,4580.0 C 8122.0,4585.0 8111.0,4585.0 8105.0,4581.0 C 8100.0,4576.0 8070.0,4570.0 8040.0,4567.0 C 8010.0,4564.0 7975.0,4559.0 7963.0,4555.0 C 7923.0,4542.0 7938.0,4564.0 7987.0,4590.0 C 8045.0,4621.0 8064.0,4658.0 8035.0,4690.0 C 8024.0,4702.0 8004.0,4710.0 7985.0,4710.0 C 7965.0,4710.0 7950.0,4716.0 7946.0,4725.0 C 7943.0,4733.0 7932.0,4740.0 7921.0,4740.0 C 7911.0,4740.0 7877.0,4761.0 7846.0,4787.0 C 7803.0,4823.0 7790.0,4841.0 7790.0,4862.0 C 7790.0,4886.0 7784.0,4891.0 7738.0,4904.0 C 7612.0,4939.0 7584.0,4941.0 7518.0,4919.0 C 7467.0,4901.0 7443.0,4898.0 7376.0,4904.0 C 7331.0,4907.0 7274.0,4917.0 7248.0,4927.0 C 7209.0,4941.0 7200.0,4948.0 7200.0,4968.0 C 7200.0,4997.0 7170.0,5050.0 7153.0,5050.0 C 7147.0,5050.0 7137.0,5044.0 7133.0,5037.0 C 7129.0,5029.0 7117.0,5020.0 7107.0,5017.0 C 7090.0,5011.0 7089.0,5017.0 7090.0,5083.0 C 7091.0,5173.0 7082.0,5221.0 7062.0,5238.0 C 7041.0,5254.0 7035.0,5253.0 7016.0,5234.0 C 7006.0,5225.0 7000.0,5201.0 7000.0,5176.0 C 7000.0,5140.0 6996.0,5131.0 6975.0,5122.0 C 6951.0,5111.0 6950.0,5112.0 6950.0,5140.0 C 6950.0,5156.0 6946.0,5172.0 6940.0,5175.0 C 6935.0,5178.0 6930.0,5189.0 6930.0,5200.0 C 6930.0,5210.0 6915.0,5227.0 6895.0,5239.0 C 6860.0,5260.0 6852.0,5274.0 6870.0,5285.0 C 6886.0,5295.0 6882.0,5330.0 6865.0,5330.0 C 6857.0,5330.0 6836.0,5344.0 6818.0,5360.0 C 6786.0,5391.0 6766.0,5397.0 6755.0,5380.0 C 6751.0,5374.0 6724.0,5387.0 6690.0,5410.0 C 6658.0,5432.0 6619.0,5450.0 6605.0,5450.0 C 6591.0,5450.0 6566.0,5460.0 6550.0,5472.0 C 6521.0,5493.0 6520.0,5493.0 6500.0,5475.0 C 6489.0,5465.0 6480.0,5446.0 6480.0,5434.0 C 6480.0,5407.0 6372.0,5290.0 6348.0,5290.0 C 6340.0,5290.0 6319.0,5271.0 6302.0,5248.0 C 6284.0,5224.0 6255.0,5187.0 6235.0,5165.0 L 6200.0,5125.0 L 6226.0,5200.0 C 6241.0,5241.0 6260.0,5282.0 6269.0,5291.0 C 6304.0,5324.0 6313.0,5364.0 6296.0,5405.0 C 6274.0,5457.0 6276.0,5503.0 6300.0,5525.0 C 6313.0,5537.0 6320.0,5556.0 6320.0,5582.0 C 6320.0,5625.0 6338.0,5639.0 6373.0,5623.0 C 6403.0,5609.0 6420.0,5617.0 6420.0,5646.0 C 6420.0,5668.0 6416.0,5670.0 6377.0,5670.0 C 6297.0,5670.0 6097.0,5551.0 6086.0,5497.0 C 6078.0,5458.0 6018.0,5400.0 5997.0,5411.0 C 5989.0,5416.0 5958.0,5417.0 5928.0,5412.0 C 5881.0,5406.0 5874.0,5401.0 5865.0,5375.0 C 5850.0,5331.0 5841.0,5320.0 5820.0,5320.0 C 5810.0,5320.0 5800.0,5315.0 5798.0,5309.0 C 5795.0,5300.0 5779.0,5302.0 5741.0,5315.0 C 5712.0,5324.0 5680.0,5330.0 5669.0,5327.0 C 5657.0,5324.0 5650.0,5327.0 5650.0,5336.0 C 5650.0,5353.0 5651.0,5353.0 5611.0,5339.0 C 5594.0,5333.0 5580.0,5324.0 5580.0,5320.0 C 5580.0,5308.0 5511.0,5270.0 5489.0,5270.0 C 5466.0,5270.0 5390.0,5224.0 5390.0,5210.0 C 5390.0,5204.0 5376.0,5200.0 5360.0,5200.0 C 5343.0,5200.0 5315.0,5193.0 5299.0,5184.0 C 5271.0,5170.0 5267.0,5170.0 5249.0,5186.0 C 5239.0,5195.0 5230.0,5214.0 5230.0,5227.0 C 5230.0,5253.0 5295.0,5330.0 5316.0,5330.0 C 5336.0,5330.0 5373.0,5392.0 5358.0,5401.0 C 5350.0,5406.0 5359.0,5422.0 5383.0,5449.0 C 5423.0,5494.0 5432.0,5538.0 5405.0,5560.0 C 5385.0,5576.0 5389.0,5609.0 5412.0,5624.0 C 5427.0,5633.0 5435.0,5629.0 5459.0,5602.0 C 5496.0,5562.0 5521.0,5561.0 5544.0,5601.0 C 5561.0,5630.0 5561.0,5632.0 5545.0,5650.0 C 5529.0,5668.0 5529.0,5672.0 5550.0,5716.0 L 5573.0,5763.0 L 5549.0,5807.0 C 5527.0,5848.0 5526.0,5852.0 5543.0,5861.0 C 5585.0,5885.0 5532.0,5917.0 5480.0,5898.0 C 5455.0,5890.0 5446.0,5891.0 5431.0,5904.0 C 5411.0,5922.0 5387.0,5924.0 5361.0,5910.0 C 5347.0,5903.0 5338.0,5906.0 5324.0,5921.0 C 5313.0,5933.0 5293.0,5948.0 5279.0,5956.0 C 5257.0,5967.0 5250.0,5967.0 5231.0,5954.0 C 5220.0,5946.0 5210.0,5933.0 5210.0,5926.0 C 5210.0,5918.0 5200.0,5910.0 5188.0,5906.0 C 5170.0,5901.0 5157.0,5908.0 5133.0,5935.0 C 5115.0,5954.0 5100.0,5979.0 5100.0,5990.0 C 5100.0,6022.0 5072.0,6026.0 5042.0,5998.0 C 5023.0,5980.0 4983.0,5964.0 4911.0,5946.0 C 4854.0,5932.0 4793.0,5911.0 4776.0,5901.0 C 4757.0,5889.0 4717.0,5879.0 4670.0,5875.0 C 4629.0,5871.0 4578.0,5862.0 4557.0,5854.0 C 4491.0,5829.0 4454.0,5835.0 4417.0,5877.0 C 4372.0,5928.0 4343.0,5979.0 4335.0,6021.0 C 4329.0,6055.0 4331.0,6059.0 4364.0,6079.0 C 4383.0,6091.0 4402.0,6110.0 4405.0,6120.0 C 4409.0,6133.0 4419.0,6139.0 4433.0,6138.0 C 4460.0,6136.0 4520.0,6170.0 4520.0,6187.0 C 4520.0,6195.0 4533.0,6203.0 4549.0,6206.0 C 4568.0,6210.0 4588.0,6226.0 4605.0,6249.0 C 4619.0,6270.0 4648.0,6297.0 4670.0,6309.0 C 4704.0,6328.0 4710.0,6336.0 4710.0,6365.0 C 4710.0,6409.0 4735.0,6425.0 4815.0,6434.0 C 4854.0,6438.0 4887.0,6449.0 4911.0,6465.0 C 4930.0,6479.0 4953.0,6490.0 4962.0,6490.0 C 4978.0,6490.0 5012.0,6538.0 5025.0,6579.0 C 5030.0,6596.0 5026.0,6602.0 5003.0,6611.0 C 4988.0,6617.0 4967.0,6629.0 4957.0,6638.0 C 4938.0,6655.0 4870.0,6794.0 4870.0,6816.0 C 4870.0,6823.0 4861.0,6832.0 4850.0,6835.0 C 4839.0,6839.0 4817.0,6852.0 4802.0,6865.0 C 4780.0,6883.0 4770.0,6886.0 4762.0,6878.0 M 8251.0,2973.0 C 8239.0,2953.0 8237.0,2959.0 8246.0,2985.0 C 8250.0,2994.0 8255.0,2999.0 8257.0,2996.0 C 8260.0,2994.0 8257.0,2983.0 8251.0,2973.0" fill="pink"/>
</svg>
