<?xml version="1.0" ?>
<svg xmlns="http://www.w3.org/2000/svg" xmlns:ev="http://www.w3.org/2001/xml-events" xmlns:xlink="http://www.w3.org/1999/xlink" baseProfile="full" height="600px" version="1.1" viewBox="-76.49431360674043 -1028.7803750536798 10397.193265668122 12296.83700824237" width="508px">
	<defs/>
	<path d="M 5766.0,10199.0 C 5720.0,10162.0 5715.0,10160.0 5669.0,10166.0 C 5622.0,10172.0 5619.0,10171.0 5569.0,10126.0 C 5516.0,10078.0 5500.0,10073.0 5453.0,10091.0 L 5425.0,10101.0 L 5447.0,10078.0 C 5465.0,10059.0 5468.0,10048.0 5462.0,10025.0 C 5452.0,9988.0 5419.0,9970.0 5363.0,9970.0 C 5316.0,9970.0 5315.0,9969.0 5332.0,9941.0 C 5341.0,9926.0 5334.0,9909.0 5286.0,9837.0 C 5254.0,9789.0 5230.0,9743.0 5232.0,9734.0 C 5234.0,9724.0 5259.0,9705.0 5287.0,9691.0 C 5345.0,9663.0 5348.0,9656.0 5324.0,9621.0 C 5308.0,9598.0 5305.0,9598.0 5196.0,9605.0 C 5135.0,9609.0 5082.0,9615.0 5079.0,9619.0 C 5075.0,9622.0 5070.0,9639.0 5067.0,9656.0 C 5062.0,9682.0 5067.0,9694.0 5101.0,9731.0 C 5167.0,9803.0 5149.0,9820.0 5020.0,9810.0 C 4942.0,9803.0 4931.0,9805.0 4887.0,9827.0 C 4819.0,9861.0 4801.0,9855.0 4782.0,9798.0 L 4767.0,9751.0 L 4804.0,9717.0 C 4843.0,9679.0 4870.0,9626.0 4870.0,9583.0 C 4870.0,9543.0 4824.0,9459.0 4769.0,9396.0 C 4733.0,9357.0 4711.0,9317.0 4686.0,9251.0 C 4638.0,9126.0 4626.0,9106.0 4574.0,9058.0 C 4530.0,9017.0 4482.0,8996.0 4404.0,8983.0 C 4386.0,8980.0 4358.0,8963.0 4339.0,8944.0 C 4307.0,8911.0 4305.0,8904.0 4302.0,8830.0 C 4298.0,8763.0 4295.0,8750.0 4279.0,8745.0 C 4260.0,8739.0 4250.0,8712.0 4252.0,8675.0 C 4257.0,8607.0 4228.0,8544.0 4142.0,8436.0 C 4106.0,8389.0 4118.0,8301.0 4168.0,8257.0 C 4185.0,8242.0 4196.0,8240.0 4237.0,8248.0 C 4264.0,8252.0 4292.0,8254.0 4299.0,8252.0 C 4315.0,8247.0 4257.0,8220.0 4229.0,8220.0 C 4218.0,8220.0 4204.0,8207.0 4195.0,8189.0 C 4184.0,8170.0 4162.0,8151.0 4134.0,8139.0 C 4083.0,8116.0 4072.0,8090.0 4090.0,8035.0 C 4099.0,8009.0 4112.0,7994.0 4138.0,7982.0 C 4179.0,7963.0 4192.0,7951.0 4183.0,7937.0 C 4177.0,7926.0 4209.0,7890.0 4226.0,7890.0 C 4233.0,7890.0 4243.0,7875.0 4250.0,7856.0 C 4260.0,7826.0 4266.0,7822.0 4319.0,7810.0 C 4352.0,7803.0 4383.0,7801.0 4390.0,7805.0 C 4404.0,7814.0 4440.0,7783.0 4440.0,7762.0 C 4440.0,7749.0 4437.0,7750.0 4420.0,7765.0 C 4407.0,7777.0 4393.0,7780.0 4376.0,7776.0 C 4359.0,7772.0 4328.0,7780.0 4281.0,7801.0 L 4211.0,7832.0 L 4133.0,7790.0 C 3946.0,7687.0 3910.0,7635.0 3902.0,7449.0 C 3897.0,7318.0 3909.0,7260.0 3941.0,7260.0 C 3951.0,7260.0 3960.0,7256.0 3960.0,7250.0 C 3960.0,7236.0 3997.0,7237.0 4006.0,7252.0 C 4015.0,7266.0 4040.0,7234.0 4040.0,7209.0 C 4040.0,7197.0 4049.0,7190.0 4068.0,7188.0 C 4120.0,7182.0 4089.0,7165.0 4029.0,7167.0 C 3987.0,7168.0 3962.0,7174.0 3948.0,7186.0 C 3927.0,7206.0 3929.0,7208.0 3892.0,7147.0 C 3883.0,7132.0 3865.0,7117.0 3853.0,7114.0 C 3841.0,7111.0 3824.0,7100.0 3815.0,7090.0 C 3801.0,7074.0 3800.0,7068.0 3813.0,7038.0 C 3838.0,6979.0 3921.0,6964.0 4000.0,7005.0 C 4024.0,7017.0 4029.0,7017.0 4033.0,7006.0 C 4037.0,6997.0 4030.0,6990.0 4015.0,6986.0 C 3979.0,6977.0 3930.0,6931.0 3930.0,6907.0 C 3930.0,6874.0 3920.0,6865.0 3866.0,6847.0 C 3795.0,6823.0 3792.0,6824.0 3797.0,6873.0 C 3801.0,6913.0 3800.0,6916.0 3764.0,6932.0 C 3714.0,6955.0 3698.0,6945.0 3658.0,6861.0 C 3629.0,6799.0 3622.0,6791.0 3596.0,6791.0 C 3569.0,6790.0 3568.0,6788.0 3573.0,6753.0 C 3576.0,6732.0 3582.0,6706.0 3585.0,6694.0 C 3590.0,6680.0 3580.0,6659.0 3553.0,6623.0 C 3532.0,6594.0 3509.0,6563.0 3502.0,6553.0 C 3492.0,6538.0 3491.0,6546.0 3496.0,6601.0 L 3502.0,6667.0 L 3465.0,6698.0 C 3409.0,6743.0 3372.0,6747.0 3303.0,6712.0 C 3271.0,6696.0 3196.0,6661.0 3136.0,6635.0 C 3075.0,6609.0 2984.0,6566.0 2933.0,6539.0 C 2876.0,6509.0 2827.0,6490.0 2806.0,6490.0 C 2777.0,6490.0 2771.0,6485.0 2755.0,6450.0 C 2745.0,6429.0 2723.0,6397.0 2704.0,6381.0 C 2686.0,6364.0 2669.0,6342.0 2665.0,6331.0 C 2662.0,6319.0 2653.0,6310.0 2647.0,6310.0 C 2640.0,6310.0 2624.0,6299.0 2610.0,6285.0 C 2596.0,6271.0 2558.0,6242.0 2524.0,6221.0 C 2490.0,6199.0 2455.0,6167.0 2443.0,6147.0 C 2431.0,6128.0 2394.0,6093.0 2360.0,6070.0 C 2326.0,6047.0 2297.0,6023.0 2294.0,6016.0 C 2291.0,6009.0 2297.0,5981.0 2308.0,5954.0 C 2319.0,5923.0 2323.0,5896.0 2319.0,5880.0 C 2315.0,5866.0 2312.0,5827.0 2311.0,5792.0 C 2309.0,5694.0 2303.0,5687.0 2214.0,5692.0 L 2139.0,5695.0 L 2088.0,5607.0 C 2044.0,5532.0 2036.0,5510.0 2030.0,5446.0 C 2024.0,5385.0 2015.0,5357.0 1976.0,5286.0 C 1925.0,5191.0 1924.0,5174.0 1967.0,5111.0 C 1980.0,5092.0 1988.0,5069.0 1985.0,5061.0 C 1981.0,5052.0 1969.0,5016.0 1958.0,4980.0 C 1947.0,4944.0 1919.0,4875.0 1895.0,4825.0 C 1872.0,4776.0 1847.0,4719.0 1840.0,4700.0 C 1832.0,4681.0 1803.0,4634.0 1776.0,4595.0 C 1749.0,4557.0 1712.0,4491.0 1696.0,4450.0 C 1668.0,4382.0 1665.0,4365.0 1666.0,4270.0 C 1667.0,4187.0 1672.0,4148.0 1692.0,4085.0 C 1706.0,4041.0 1721.0,3978.0 1724.0,3945.0 C 1737.0,3832.0 1751.0,3810.0 1840.0,3763.0 C 1883.0,3739.0 1928.0,3720.0 1939.0,3720.0 C 1952.0,3720.0 1965.0,3710.0 1972.0,3695.0 C 1986.0,3663.0 2008.0,3663.0 2069.0,3697.0 C 2123.0,3728.0 2141.0,3724.0 2116.0,3688.0 C 2107.0,3676.0 2100.0,3656.0 2100.0,3645.0 C 2100.0,3626.0 2094.0,3624.0 2053.0,3624.0 C 2008.0,3625.0 2005.0,3623.0 2002.0,3598.0 C 2000.0,3584.0 1992.0,3566.0 1983.0,3558.0 C 1969.0,3547.0 1968.0,3549.0 1975.0,3578.0 L 1982.0,3611.0 L 1944.0,3595.0 C 1858.0,3559.0 1736.0,3470.0 1714.0,3427.0 C 1706.0,3412.0 1695.0,3345.0 1690.0,3277.0 C 1684.0,3210.0 1677.0,3136.0 1674.0,3114.0 C 1669.0,3076.0 1671.0,3071.0 1700.0,3050.0 C 1717.0,3038.0 1735.0,3017.0 1740.0,3004.0 C 1747.0,2986.0 1757.0,2980.0 1778.0,2980.0 C 1814.0,2980.0 1830.0,2963.0 1830.0,2925.0 C 1830.0,2860.0 1871.0,2844.0 1905.0,2896.0 C 1940.0,2950.0 1953.0,2910.0 1919.0,2850.0 C 1898.0,2813.0 1897.0,2812.0 1825.0,2808.0 C 1783.0,2805.0 1737.0,2795.0 1714.0,2784.0 C 1675.0,2765.0 1675.0,2765.0 1667.0,2690.0 C 1657.0,2603.0 1667.0,2570.0 1704.0,2570.0 C 1717.0,2570.0 1733.0,2563.0 1740.0,2555.0 C 1747.0,2547.0 1768.0,2540.0 1786.0,2540.0 C 1813.0,2540.0 1820.0,2536.0 1820.0,2520.0 C 1820.0,2497.0 1842.0,2494.0 1860.0,2515.0 C 1871.0,2528.0 1874.0,2528.0 1887.0,2514.0 C 1897.0,2504.0 1917.0,2500.0 1944.0,2502.0 C 1977.0,2504.0 1987.0,2501.0 1995.0,2483.0 C 2001.0,2472.0 2011.0,2456.0 2017.0,2448.0 C 2026.0,2437.0 2016.0,2428.0 1967.0,2402.0 C 1933.0,2385.0 1894.0,2366.0 1880.0,2361.0 C 1866.0,2356.0 1848.0,2341.0 1841.0,2326.0 C 1829.0,2304.0 1829.0,2295.0 1843.0,2259.0 C 1853.0,2234.0 1856.0,2212.0 1851.0,2206.0 C 1846.0,2200.0 1846.0,2186.0 1851.0,2175.0 C 1865.0,2139.0 1860.0,2086.0 1840.0,2052.0 C 1829.0,2034.0 1820.0,2006.0 1820.0,1990.0 C 1820.0,1962.0 1798.0,1930.0 1779.0,1930.0 C 1774.0,1930.0 1770.0,1916.0 1770.0,1899.0 C 1770.0,1869.0 1672.0,1678.0 1645.0,1655.0 C 1620.0,1634.0 1523.0,1514.0 1480.0,1451.0 L 1435.0,1385.0 L 1381.0,1382.0 C 1351.0,1380.0 1322.0,1384.0 1317.0,1389.0 C 1311.0,1395.0 1291.0,1400.0 1273.0,1400.0 C 1254.0,1400.0 1228.0,1407.0 1215.0,1416.0 C 1195.0,1429.0 1182.0,1430.0 1140.0,1421.0 C 1112.0,1415.0 1082.0,1410.0 1075.0,1410.0 C 1055.0,1410.0 1055.0,1483.0 1075.0,1500.0 C 1093.0,1515.0 1095.0,1550.0 1078.0,1550.0 C 1071.0,1550.0 1056.0,1553.0 1044.0,1556.0 C 1025.0,1561.0 1016.0,1543.0 943.0,1363.0 C 898.0,1254.0 852.0,1130.0 841.0,1087.0 C 829.0,1045.0 812.0,994.0 804.0,974.0 C 787.0,934.0 790.0,926.0 830.0,905.0 C 853.0,893.0 869.0,892.0 907.0,900.0 C 948.0,909.0 959.0,917.0 982.0,953.0 C 997.0,976.0 1013.0,1007.0 1019.0,1021.0 C 1028.0,1046.0 1033.0,1047.0 1124.0,1054.0 C 1176.0,1058.0 1234.0,1058.0 1253.0,1055.0 C 1282.0,1049.0 1290.0,1052.0 1304.0,1071.0 C 1320.0,1094.0 1320.0,1094.0 1320.0,1073.0 C 1320.0,1062.0 1327.0,1047.0 1335.0,1040.0 C 1357.0,1022.0 1353.0,1007.0 1328.0,1013.0 C 1312.0,1017.0 1322.0,1005.0 1358.0,973.0 C 1387.0,948.0 1442.0,884.0 1480.0,830.0 C 1524.0,769.0 1562.0,727.0 1585.0,714.0 C 1616.0,697.0 1620.0,691.0 1620.0,655.0 C 1620.0,622.0 1626.0,608.0 1651.0,584.0 C 1679.0,557.0 1687.0,555.0 1775.0,552.0 C 1868.0,548.0 1870.0,548.0 1899.0,577.0 C 1915.0,594.0 1933.0,624.0 1939.0,646.0 C 1951.0,690.0 1966.0,717.0 1974.0,709.0 C 1977.0,706.0 1975.0,688.0 1970.0,669.0 C 1964.0,651.0 1960.0,611.0 1960.0,582.0 C 1960.0,534.0 1962.0,528.0 1993.0,510.0 C 2010.0,499.0 2041.0,485.0 2060.0,479.0 C 2079.0,472.0 2114.0,454.0 2137.0,439.0 C 2160.0,423.0 2184.0,410.0 2190.0,410.0 C 2196.0,410.0 2213.0,401.0 2228.0,390.0 C 2244.0,379.0 2280.0,368.0 2315.0,364.0 C 2367.0,358.0 2381.0,351.0 2422.0,315.0 C 2459.0,282.0 2482.0,270.0 2528.0,261.0 C 2560.0,255.0 2599.0,252.0 2616.0,255.0 C 2641.0,260.0 2648.0,256.0 2665.0,228.0 C 2677.0,209.0 2708.0,184.0 2740.0,167.0 C 2793.0,140.0 2799.0,139.0 2898.0,145.0 C 2962.0,149.0 3018.0,158.0 3043.0,169.0 C 3066.0,179.0 3102.0,190.0 3124.0,194.0 C 3179.0,204.0 3283.0,312.0 3278.0,352.0 C 3273.0,385.0 3279.0,386.0 3331.0,359.0 C 3370.0,340.0 3374.0,339.0 3411.0,354.0 C 3466.0,376.0 3470.0,375.0 3470.0,331.0 C 3470.0,310.0 3476.0,288.0 3483.0,283.0 C 3500.0,269.0 3590.0,240.0 3615.0,240.0 C 3627.0,240.0 3657.0,222.0 3681.0,199.0 C 3808.0,81.0 4001.0,43.0 4182.0,100.0 C 4278.0,130.0 4334.0,127.0 4423.0,84.0 C 4515.0,41.0 4566.0,40.0 4589.0,82.0 C 4603.0,106.0 4603.0,112.0 4587.0,146.0 C 4577.0,166.0 4571.0,184.0 4574.0,187.0 C 4576.0,189.0 4592.0,162.0 4609.0,125.0 C 4634.0,73.0 4650.0,53.0 4687.0,30.0 C 4737.0,-2.0 4761.0,-5.0 4868.0,6.0 C 4914.0,11.0 4929.0,17.0 4933.0,30.0 C 4938.0,50.0 5049.0,80.0 5117.0,80.0 C 5178.0,80.0 5196.0,89.0 5208.0,125.0 C 5219.0,153.0 5226.0,159.0 5263.0,164.0 C 5286.0,167.0 5339.0,170.0 5380.0,169.0 C 5460.0,169.0 5488.0,177.0 5533.0,212.0 C 5557.0,231.0 5575.0,235.0 5663.0,237.0 C 5719.0,239.0 5767.0,240.0 5770.0,240.0 C 5773.0,240.0 5807.0,270.0 5845.0,306.0 C 6034.0,483.0 6029.0,480.0 6120.0,490.0 C 6181.0,497.0 6214.0,506.0 6247.0,527.0 C 6326.0,576.0 6334.0,580.0 6363.0,580.0 C 6380.0,580.0 6401.0,591.0 6417.0,606.0 C 6449.0,638.0 6496.0,653.0 6521.0,640.0 C 6549.0,624.0 6573.0,628.0 6641.0,659.0 C 6677.0,675.0 6732.0,696.0 6765.0,705.0 C 6833.0,725.0 6932.0,776.0 7005.0,831.0 C 7055.0,868.0 7197.0,933.0 7210.0,925.0 C 7214.0,923.0 7228.0,932.0 7241.0,946.0 C 7269.0,976.0 7351.0,1020.0 7379.0,1020.0 C 7402.0,1020.0 7415.0,1059.0 7395.0,1066.0 C 7387.0,1069.0 7376.0,1069.0 7370.0,1065.0 C 7353.0,1055.0 7359.0,1075.0 7383.0,1111.0 C 7395.0,1130.0 7416.0,1150.0 7430.0,1155.0 C 7522.0,1193.0 7531.0,1202.0 7559.0,1280.0 C 7585.0,1353.0 7588.0,1356.0 7646.0,1387.0 C 7678.0,1405.0 7715.0,1420.0 7728.0,1420.0 C 7746.0,1420.0 7750.0,1426.0 7750.0,1450.0 C 7750.0,1481.0 7786.0,1521.0 7851.0,1563.0 L 7880.0,1582.0 L 7851.0,1606.0 C 7835.0,1619.0 7809.0,1630.0 7793.0,1630.0 C 7756.0,1630.0 7720.0,1655.0 7720.0,1682.0 C 7720.0,1700.0 7724.0,1702.0 7765.0,1696.0 C 7807.0,1689.0 7825.0,1699.0 7800.0,1715.0 C 7795.0,1718.0 7790.0,1726.0 7790.0,1732.0 C 7790.0,1738.0 7808.0,1726.0 7830.0,1706.0 C 7872.0,1669.0 7899.0,1662.0 7945.0,1680.0 C 7968.0,1689.0 7977.0,1686.0 8002.0,1665.0 C 8018.0,1651.0 8038.0,1640.0 8045.0,1640.0 C 8064.0,1640.0 8148.0,1731.0 8178.0,1783.0 C 8204.0,1828.0 8223.0,1935.0 8214.0,1985.0 C 8209.0,2011.0 8201.0,2019.0 8162.0,2033.0 C 8098.0,2056.0 8064.0,2090.0 8049.0,2141.0 C 8039.0,2178.0 8036.0,2181.0 8031.0,2163.0 C 8026.0,2146.0 8021.0,2143.0 8010.0,2150.0 C 8002.0,2155.0 7986.0,2160.0 7976.0,2160.0 C 7958.0,2160.0 7958.0,2159.0 7973.0,2142.0 C 7998.0,2114.0 7994.0,2108.0 7961.0,2124.0 C 7937.0,2137.0 7932.0,2147.0 7926.0,2189.0 C 7922.0,2217.0 7922.0,2251.0 7926.0,2265.0 C 7931.0,2284.0 7926.0,2300.0 7912.0,2320.0 C 7900.0,2335.0 7883.0,2372.0 7873.0,2402.0 C 7856.0,2452.0 7852.0,2456.0 7832.0,2449.0 C 7817.0,2443.0 7802.0,2445.0 7789.0,2453.0 C 7773.0,2463.0 7768.0,2462.0 7760.0,2450.0 C 7748.0,2431.0 7717.0,2448.0 7711.0,2476.0 C 7704.0,2516.0 7681.0,2529.0 7629.0,2523.0 C 7596.0,2519.0 7580.0,2521.0 7580.0,2529.0 C 7580.0,2535.0 7586.0,2540.0 7594.0,2540.0 C 7601.0,2540.0 7615.0,2552.0 7625.0,2566.0 C 7640.0,2589.0 7646.0,2591.0 7683.0,2584.0 C 7720.0,2578.0 7723.0,2579.0 7712.0,2593.0 C 7701.0,2606.0 7703.0,2619.0 7725.0,2669.0 C 7746.0,2721.0 7750.0,2744.0 7750.0,2834.0 C 7750.0,2913.0 7754.0,2942.0 7765.0,2953.0 C 7778.0,2966.0 7776.0,2970.0 7754.0,2985.0 C 7736.0,2997.0 7730.0,3008.0 7732.0,3028.0 C 7735.0,3053.0 7738.0,3055.0 7783.0,3053.0 C 7819.0,3051.0 7830.0,3054.0 7830.0,3065.0 C 7830.0,3073.0 7835.0,3080.0 7840.0,3080.0 C 7846.0,3080.0 7850.0,3071.0 7850.0,3060.0 C 7850.0,3049.0 7861.0,3033.0 7876.0,3024.0 C 7906.0,3004.0 7930.0,2961.0 7930.0,2925.0 C 7930.0,2903.0 7934.0,2900.0 7965.0,2900.0 C 7985.0,2900.0 8018.0,2909.0 8040.0,2920.0 C 8065.0,2933.0 8099.0,2940.0 8135.0,2940.0 L 8192.0,2940.0 L 8268.0,3018.0 C 8310.0,3060.0 8357.0,3115.0 8372.0,3140.0 C 8387.0,3165.0 8417.0,3210.0 8439.0,3240.0 C 8472.0,3285.0 8480.0,3303.0 8480.0,3341.0 L 8480.0,3387.0 L 8593.0,3386.0 C 8701.0,3385.0 8707.0,3386.0 8769.0,3418.0 L 8832.0,3451.0 L 8825.0,3538.0 C 8821.0,3586.0 8816.0,3627.0 8814.0,3629.0 C 8812.0,3632.0 8804.0,3628.0 8798.0,3622.0 C 8781.0,3605.0 8770.0,3607.0 8770.0,3628.0 C 8770.0,3667.0 8784.0,3673.0 8840.0,3660.0 C 8881.0,3650.0 8904.0,3650.0 8953.0,3660.0 C 9053.0,3681.0 9069.0,3698.0 9034.0,3748.0 C 9021.0,3767.0 9010.0,3770.0 8951.0,3770.0 C 8877.0,3770.0 8859.0,3782.0 8885.0,3817.0 C 8895.0,3829.0 8899.0,3865.0 8900.0,3933.0 L 8900.0,4031.0 L 8965.0,4060.0 C 9054.0,4100.0 9068.0,4128.0 9053.0,4242.0 C 9044.0,4308.0 9037.0,4328.0 9020.0,4340.0 C 8905.0,4421.0 8901.0,4454.0 8998.0,4532.0 C 9010.0,4542.0 9020.0,4559.0 9020.0,4570.0 C 9020.0,4589.0 9020.0,4589.0 9055.0,4569.0 C 9074.0,4557.0 9090.0,4543.0 9090.0,4538.0 C 9090.0,4532.0 9096.0,4530.0 9104.0,4533.0 C 9112.0,4536.0 9126.0,4530.0 9136.0,4519.0 C 9164.0,4488.0 9211.0,4497.0 9230.0,4537.0 C 9238.0,4554.0 9254.0,4571.0 9265.0,4574.0 C 9281.0,4578.0 9282.0,4582.0 9272.0,4592.0 C 9266.0,4598.0 9260.0,4618.0 9260.0,4635.0 C 9260.0,4654.0 9252.0,4674.0 9240.0,4685.0 C 9229.0,4695.0 9215.0,4721.0 9209.0,4743.0 C 9200.0,4777.0 9201.0,4785.0 9219.0,4804.0 C 9237.0,4824.0 9260.0,4871.0 9260.0,4890.0 C 9260.0,4895.0 9251.0,4902.0 9240.0,4905.0 C 9214.0,4913.0 9214.0,4940.0 9240.0,4940.0 C 9251.0,4940.0 9263.0,4947.0 9267.0,4955.0 C 9270.0,4964.0 9286.0,4978.0 9302.0,4986.0 C 9330.0,5001.0 9331.0,5003.0 9328.0,5068.0 C 9325.0,5126.0 9322.0,5135.0 9305.0,5139.0 C 9277.0,5144.0 9231.0,5190.0 9253.0,5190.0 C 9275.0,5190.0 9312.0,5264.0 9308.0,5298.0 C 9303.0,5338.0 9236.0,5373.0 9190.0,5360.0 C 9152.0,5349.0 9147.0,5351.0 9156.0,5374.0 C 9160.0,5385.0 9174.0,5390.0 9202.0,5390.0 C 9238.0,5390.0 9240.0,5391.0 9226.0,5406.0 C 9217.0,5414.0 9210.0,5428.0 9210.0,5436.0 C 9210.0,5453.0 9196.0,5454.0 9170.0,5438.0 C 9153.0,5427.0 9148.0,5428.0 9140.0,5440.0 C 9135.0,5448.0 9132.0,5461.0 9135.0,5468.0 C 9138.0,5476.0 9140.0,5495.0 9140.0,5511.0 C 9140.0,5539.0 9142.0,5540.0 9184.0,5540.0 C 9209.0,5540.0 9231.0,5544.0 9234.0,5549.0 C 9237.0,5553.0 9266.0,5560.0 9297.0,5564.0 C 9394.0,5575.0 9450.0,5628.0 9450.0,5708.0 C 9450.0,5767.0 9429.0,5812.0 9386.0,5845.0 C 9367.0,5860.0 9337.0,5894.0 9320.0,5921.0 C 9298.0,5958.0 9284.0,5970.0 9266.0,5970.0 C 9232.0,5970.0 9220.0,5990.0 9201.0,6077.0 C 9184.0,6159.0 9173.0,6171.0 9108.0,6185.0 C 9091.0,6188.0 9075.0,6202.0 9066.0,6219.0 C 9039.0,6270.0 8999.0,6310.0 8949.0,6336.0 C 8913.0,6354.0 8899.0,6367.0 8894.0,6388.0 C 8891.0,6403.0 8884.0,6426.0 8879.0,6439.0 C 8873.0,6453.0 8866.0,6502.0 8863.0,6549.0 C 8859.0,6626.0 8854.0,6640.0 8823.0,6687.0 C 8797.0,6726.0 8789.0,6746.0 8794.0,6765.0 C 8797.0,6779.0 8803.0,6800.0 8806.0,6813.0 C 8814.0,6847.0 8789.0,6872.0 8740.0,6879.0 C 8701.0,6885.0 8696.0,6888.0 8681.0,6928.0 C 8668.0,6964.0 8655.0,6977.0 8608.0,7003.0 C 8553.0,7033.0 8550.0,7033.0 8532.0,7017.0 C 8513.0,6999.0 8512.0,6960.0 8531.0,6960.0 C 8550.0,6960.0 8580.0,6894.0 8580.0,6853.0 C 8580.0,6790.0 8560.0,6798.0 8505.0,6880.0 C 8464.0,6943.0 8419.0,6982.0 8405.0,6968.0 C 8402.0,6966.0 8404.0,6950.0 8409.0,6933.0 C 8419.0,6898.0 8415.0,6890.0 8388.0,6890.0 C 8376.0,6890.0 8370.0,6897.0 8370.0,6911.0 C 8370.0,6927.0 8366.0,6930.0 8350.0,6925.0 C 8332.0,6919.0 8330.0,6922.0 8335.0,6943.0 C 8341.0,6967.0 8320.0,7000.0 8300.0,7000.0 C 8291.0,7000.0 8260.0,7051.0 8260.0,7065.0 C 8260.0,7068.0 8271.0,7068.0 8285.0,7064.0 C 8299.0,7061.0 8316.0,7063.0 8324.0,7069.0 C 8332.0,7076.0 8349.0,7078.0 8363.0,7075.0 C 8396.0,7066.0 8403.0,7081.0 8385.0,7124.0 C 8377.0,7143.0 8370.0,7173.0 8370.0,7190.0 C 8370.0,7225.0 8364.0,7227.0 8330.0,7200.0 C 8316.0,7189.0 8290.0,7180.0 8272.0,7180.0 C 8254.0,7180.0 8229.0,7175.0 8218.0,7169.0 C 8203.0,7161.0 8196.0,7161.0 8190.0,7170.0 C 8184.0,7179.0 8177.0,7179.0 8162.0,7171.0 C 8151.0,7165.0 8135.0,7163.0 8126.0,7166.0 C 8107.0,7173.0 8097.0,7200.0 8113.0,7200.0 C 8120.0,7200.0 8137.0,7207.0 8153.0,7215.0 C 8177.0,7227.0 8186.0,7227.0 8221.0,7214.0 C 8274.0,7196.0 8306.0,7196.0 8314.0,7215.0 C 8321.0,7235.0 8311.0,7260.0 8295.0,7260.0 C 8288.0,7260.0 8272.0,7269.0 8259.0,7279.0 L 8235.0,7298.0 L 8275.0,7315.0 C 8297.0,7325.0 8336.0,7334.0 8361.0,7335.0 C 8391.0,7336.0 8418.0,7345.0 8439.0,7361.0 C 8473.0,7386.0 8473.0,7385.0 8454.0,7478.0 C 8449.0,7504.0 8453.0,7519.0 8475.0,7552.0 C 8510.0,7604.0 8505.0,7645.0 8457.0,7729.0 C 8437.0,7762.0 8416.0,7807.0 8410.0,7828.0 C 8405.0,7849.0 8391.0,7875.0 8379.0,7886.0 C 8367.0,7896.0 8349.0,7922.0 8339.0,7943.0 C 8321.0,7978.0 8317.0,7980.0 8272.0,7980.0 C 8213.0,7981.0 8161.0,7992.0 8092.0,8018.0 C 8048.0,8035.0 8018.0,8039.0 7924.0,8037.0 C 7820.0,8035.0 7810.0,8037.0 7810.0,8053.0 C 7810.0,8081.0 7779.0,8122.0 7766.0,8112.0 C 7725.0,8080.0 7673.0,8102.0 7666.0,8155.0 C 7664.0,8172.0 7659.0,8192.0 7656.0,8201.0 C 7647.0,8222.0 7580.0,8233.0 7546.0,8220.0 C 7511.0,8207.0 7512.0,8226.0 7548.0,8243.0 C 7563.0,8251.0 7587.0,8260.0 7602.0,8264.0 C 7622.0,8268.0 7628.0,8275.0 7623.0,8287.0 C 7618.0,8300.0 7621.0,8302.0 7642.0,8297.0 C 7662.0,8292.0 7669.0,8295.0 7678.0,8314.0 C 7691.0,8343.0 7685.0,8350.0 7650.0,8350.0 C 7633.0,8350.0 7617.0,8342.0 7608.0,8328.0 C 7591.0,8302.0 7570.0,8311.0 7570.0,8345.0 C 7570.0,8362.0 7561.0,8374.0 7540.0,8385.0 C 7524.0,8394.0 7510.0,8407.0 7510.0,8415.0 C 7510.0,8424.0 7501.0,8438.0 7490.0,8447.0 C 7479.0,8457.0 7470.0,8472.0 7470.0,8482.0 C 7470.0,8500.0 7379.0,8550.0 7345.0,8550.0 C 7331.0,8550.0 7329.0,8556.0 7333.0,8578.0 C 7336.0,8595.0 7332.0,8612.0 7322.0,8623.0 C 7309.0,8638.0 7308.0,8645.0 7318.0,8660.0 C 7339.0,8694.0 7333.0,8710.0 7301.0,8704.0 C 7280.0,8700.0 7271.0,8702.0 7266.0,8715.0 C 7263.0,8724.0 7262.0,8735.0 7265.0,8740.0 C 7268.0,8744.0 7260.0,8750.0 7249.0,8753.0 C 7231.0,8758.0 7229.0,8764.0 7235.0,8787.0 C 7238.0,8802.0 7247.0,8818.0 7253.0,8822.0 C 7273.0,8834.0 7230.0,8870.0 7196.0,8870.0 C 7154.0,8870.0 7131.0,8885.0 7148.0,8902.0 C 7154.0,8908.0 7160.0,8922.0 7160.0,8931.0 C 7160.0,8942.0 7173.0,8953.0 7195.0,8960.0 C 7239.0,8975.0 7231.0,8990.0 7179.0,8990.0 C 7146.0,8990.0 7138.0,8994.0 7130.0,9016.0 C 7114.0,9057.0 7118.0,9065.0 7144.0,9041.0 C 7167.0,9020.0 7168.0,9020.0 7172.0,9037.0 C 7175.0,9047.0 7171.0,9062.0 7164.0,9070.0 C 7157.0,9079.0 7153.0,9096.0 7156.0,9108.0 C 7161.0,9126.0 7166.0,9128.0 7181.0,9119.0 C 7208.0,9105.0 7225.0,9118.0 7207.0,9138.0 C 7187.0,9162.0 7179.0,9188.0 7190.0,9195.0 C 7195.0,9198.0 7191.0,9221.0 7182.0,9247.0 C 7170.0,9280.0 7157.0,9297.0 7135.0,9306.0 C 7119.0,9313.0 7092.0,9331.0 7075.0,9345.0 L 7045.0,9371.0 L 7087.0,9365.0 C 7141.0,9357.0 7145.0,9365.0 7134.0,9468.0 L 7125.0,9545.0 L 7088.0,9542.0 C 7059.0,9539.0 7050.0,9542.0 7050.0,9554.0 C 7050.0,9562.0 7041.0,9572.0 7030.0,9575.0 C 6996.0,9586.0 7007.0,9603.0 7044.0,9597.0 C 7063.0,9594.0 7088.0,9594.0 7100.0,9597.0 C 7120.0,9602.0 7122.0,9608.0 7118.0,9666.0 C 7115.0,9714.0 7118.0,9731.0 7128.0,9735.0 C 7179.0,9755.0 7063.0,9800.0 6961.0,9800.0 C 6885.0,9800.0 6781.0,9825.0 6779.0,9844.0 C 6778.0,9850.0 6777.0,9869.0 6776.0,9885.0 C 6775.0,9913.0 6772.0,9915.0 6740.0,9913.0 C 6685.0,9910.0 6676.0,9907.0 6650.0,9880.0 C 6628.0,9858.0 6625.0,9857.0 6622.0,9873.0 C 6620.0,9883.0 6625.0,9902.0 6634.0,9915.0 C 6657.0,9950.0 6654.0,9970.0 6627.0,9970.0 C 6599.0,9970.0 6570.0,9941.0 6570.0,9914.0 C 6570.0,9866.0 6527.0,9859.0 6437.0,9890.0 C 6406.0,9901.0 6373.0,9910.0 6363.0,9910.0 C 6350.0,9910.0 6349.0,9913.0 6358.0,9922.0 C 6376.0,9940.0 6373.0,9954.0 6348.0,9965.0 C 6336.0,9971.0 6316.0,9993.0 6304.0,10015.0 C 6287.0,10045.0 6276.0,10055.0 6258.0,10053.0 C 6216.0,10050.0 6209.0,10056.0 6225.0,10087.0 C 6245.0,10125.0 6244.0,10139.0 6218.0,10161.0 C 6199.0,10176.0 6178.0,10179.0 6085.0,10180.0 C 5984.0,10180.0 5970.0,10182.0 5912.0,10210.0 C 5877.0,10227.0 5841.0,10240.0 5832.0,10239.0 C 5822.0,10239.0 5793.0,10221.0 5766.0,10199.0" fill="pink"/>
</svg>
