<?xml version="1.0" ?>
<svg xmlns="http://www.w3.org/2000/svg" xmlns:ev="http://www.w3.org/2001/xml-events" xmlns:xlink="http://www.w3.org/1999/xlink" baseProfile="full" height="600px" version="1.1" viewBox="4140.07987627402 -1029.12 1955.12992748116 12298.24" width="96px">
	<defs/>
	<path d="M 4656.0,10219.0 C 4609.0,10182.0 4628.0,10140.0 4713.0,10092.0 C 4744.0,10074.0 4777.0,10045.0 4793.0,10021.0 C 4821.0,9980.0 4849.0,9969.0 4867.0,9993.0 C 4872.0,9999.0 4884.0,10026.0 4894.0,10051.0 C 4910.0,10095.0 4910.0,10100.0 4894.0,10134.0 C 4884.0,10154.0 4873.0,10170.0 4868.0,10170.0 C 4864.0,10170.0 4843.0,10186.0 4821.0,10205.0 C 4788.0,10235.0 4776.0,10240.0 4733.0,10240.0 C 4697.0,10240.0 4675.0,10234.0 4656.0,10219.0" fill="pink"/>
	<path d="M 5093.0,10027.0 C 5059.0,10009.0 5031.0,9990.0 5031.0,9985.0 C 5030.0,9979.0 5017.0,9960.0 5001.0,9943.0 C 4965.0,9903.0 4890.0,9888.0 4860.0,9915.0 C 4843.0,9931.0 4841.0,9931.0 4831.0,9911.0 C 4825.0,9900.0 4815.0,9867.0 4810.0,9838.0 C 4804.0,9809.0 4781.0,9748.0 4759.0,9702.0 C 4730.0,9645.0 4719.0,9612.0 4723.0,9593.0 C 4726.0,9578.0 4724.0,9555.0 4719.0,9542.0 C 4713.0,9525.0 4713.0,9513.0 4722.0,9503.0 C 4729.0,9495.0 4734.0,9449.0 4736.0,9389.0 C 4738.0,9273.0 4749.0,9249.0 4809.0,9231.0 C 4867.0,9214.0 4880.0,9189.0 4884.0,9085.0 C 4887.0,9010.0 4891.0,8995.0 4908.0,8981.0 C 4921.0,8971.0 4934.0,8944.0 4941.0,8912.0 C 4949.0,8871.0 4961.0,8851.0 4990.0,8824.0 C 5036.0,8781.0 5090.0,8660.0 5090.0,8599.0 C 5090.0,8569.0 5100.0,8541.0 5126.0,8499.0 C 5145.0,8466.0 5165.0,8440.0 5168.0,8440.0 C 5172.0,8440.0 5183.0,8425.0 5193.0,8408.0 C 5219.0,8360.0 5276.0,8301.0 5304.0,8294.0 C 5335.0,8287.0 5435.0,8318.0 5457.0,8342.0 C 5466.0,8352.0 5475.0,8384.0 5478.0,8414.0 C 5482.0,8459.0 5489.0,8476.0 5521.0,8515.0 C 5543.0,8541.0 5560.0,8571.0 5560.0,8581.0 C 5560.0,8591.0 5545.0,8617.0 5527.0,8637.0 C 5509.0,8658.0 5486.0,8687.0 5477.0,8702.0 C 5465.0,8721.0 5449.0,8731.0 5423.0,8735.0 C 5353.0,8746.0 5338.0,8754.0 5314.0,8800.0 C 5288.0,8849.0 5285.0,8889.0 5301.0,8971.0 C 5312.0,9024.0 5311.0,9026.0 5276.0,9079.0 C 5256.0,9108.0 5240.0,9143.0 5240.0,9156.0 C 5240.0,9195.0 5183.0,9248.0 5125.0,9262.0 C 5020.0,9288.0 4993.0,9326.0 4989.0,9450.0 C 4987.0,9555.0 5014.0,9656.0 5050.0,9675.0 C 5063.0,9682.0 5090.0,9715.0 5110.0,9749.0 C 5149.0,9814.0 5200.0,9875.0 5221.0,9882.0 C 5235.0,9887.0 5234.0,9891.0 5197.0,10015.0 C 5190.0,10037.0 5178.0,10056.0 5170.0,10057.0 C 5162.0,10058.0 5127.0,10045.0 5093.0,10027.0" fill="pink"/>
	<path d="M 4464.0,9319.0 C 4440.0,9313.0 4420.0,9302.0 4416.0,9292.0 C 4413.0,9283.0 4394.0,9253.0 4375.0,9225.0 C 4355.0,9198.0 4337.0,9164.0 4333.0,9150.0 C 4330.0,9136.0 4322.0,9118.0 4315.0,9110.0 C 4307.0,9100.0 4305.0,9087.0 4310.0,9074.0 C 4321.0,9045.0 4336.0,9037.0 4364.0,9044.0 C 4382.0,9048.0 4389.0,9059.0 4393.0,9091.0 C 4401.0,9149.0 4456.0,9256.0 4491.0,9282.0 C 4507.0,9294.0 4520.0,9310.0 4520.0,9317.0 C 4520.0,9332.0 4521.0,9331.0 4464.0,9319.0" fill="pink"/>
	<path d="M 4796.0,8616.0 C 4781.0,8586.0 4759.0,8553.0 4748.0,8543.0 C 4708.0,8507.0 4690.0,8455.0 4690.0,8374.0 C 4690.0,8304.0 4686.0,8290.0 4655.0,8233.0 C 4614.0,8159.0 4613.0,8150.0 4640.0,8150.0 C 4653.0,8150.0 4664.0,8140.0 4670.0,8124.0 C 4676.0,8109.0 4690.0,8086.0 4701.0,8072.0 C 4718.0,8049.0 4720.0,8037.0 4715.0,7978.0 C 4710.0,7923.0 4711.0,7910.0 4723.0,7910.0 C 4740.0,7910.0 4914.0,8001.0 4940.0,8023.0 C 4987.0,8063.0 4979.0,8261.0 4921.0,8498.0 C 4878.0,8668.0 4878.0,8670.0 4851.0,8670.0 C 4828.0,8670.0 4819.0,8662.0 4796.0,8616.0" fill="pink"/>
	<path d="M 5508.0,8199.0 C 5493.0,8193.0 5478.0,8180.0 5475.0,8170.0 C 5472.0,8160.0 5450.0,8136.0 5426.0,8117.0 C 5397.0,8092.0 5380.0,8069.0 5371.0,8038.0 C 5364.0,8014.0 5352.0,7985.0 5344.0,7973.0 C 5327.0,7945.0 5338.0,7938.0 5387.0,7946.0 C 5411.0,7949.0 5438.0,7947.0 5457.0,7938.0 C 5496.0,7922.0 5559.0,7847.0 5567.0,7808.0 C 5574.0,7774.0 5599.0,7771.0 5653.0,7800.0 C 5673.0,7811.0 5700.0,7820.0 5712.0,7820.0 C 5725.0,7820.0 5741.0,7824.0 5749.0,7829.0 C 5770.0,7843.0 5790.0,7911.0 5784.0,7950.0 C 5773.0,8019.0 5762.0,8034.0 5693.0,8070.0 C 5656.0,8089.0 5621.0,8114.0 5616.0,8125.0 C 5593.0,8167.0 5558.0,8210.0 5547.0,8209.0 C 5540.0,8209.0 5523.0,8204.0 5508.0,8199.0" fill="pink"/>
	<path d="M 4858.0,7938.0 C 4769.0,7901.0 4762.0,7896.0 4771.0,7878.0 C 4781.0,7860.0 4791.0,7859.0 4886.0,7862.0 C 4977.0,7865.0 4992.0,7868.0 5011.0,7887.0 L 5033.0,7909.0 L 5006.0,7944.0 C 4991.0,7964.0 4974.0,7980.0 4967.0,7979.0 C 4960.0,7979.0 4911.0,7961.0 4858.0,7938.0" fill="pink"/>
	<path d="M 5000.0,7860.0 C 4986.0,7856.0 4919.0,7851.0 4850.0,7851.0 C 4781.0,7850.0 4720.0,7846.0 4715.0,7842.0 C 4709.0,7838.0 4703.0,7808.0 4702.0,7775.0 C 4700.0,7732.0 4693.0,7707.0 4677.0,7685.0 C 4651.0,7650.0 4644.0,7540.0 4667.0,7540.0 C 4674.0,7540.0 4680.0,7531.0 4680.0,7519.0 C 4680.0,7508.0 4690.0,7490.0 4701.0,7481.0 C 4719.0,7466.0 4733.0,7465.0 4784.0,7472.0 C 4874.0,7484.0 4917.0,7512.0 5051.0,7645.0 C 5165.0,7758.0 5171.0,7766.0 5165.0,7796.0 C 5155.0,7849.0 5070.0,7882.0 5000.0,7860.0" fill="pink"/>
	<path d="M 5490.0,7430.0 C 5479.0,7423.0 5478.0,7418.0 5487.0,7409.0 C 5501.0,7395.0 5540.0,7407.0 5540.0,7426.0 C 5540.0,7442.0 5512.0,7444.0 5490.0,7430.0" fill="pink"/>
	<path d="M 4730.0,7370.0 C 4689.0,7329.0 4712.0,7300.0 4787.0,7300.0 C 4871.0,7300.0 4960.0,7355.0 4919.0,7381.0 C 4911.0,7386.0 4870.0,7390.0 4828.0,7390.0 C 4763.0,7390.0 4747.0,7387.0 4730.0,7370.0" fill="pink"/>
	<path d="M 5417.0,7167.0 C 5394.0,7149.0 5390.0,7140.0 5395.0,7117.0 C 5403.0,7086.0 5426.0,7083.0 5509.0,7102.0 C 5566.0,7115.0 5577.0,7139.0 5538.0,7164.0 C 5494.0,7191.0 5448.0,7192.0 5417.0,7167.0" fill="pink"/>
	<path d="M 5500.0,7082.0 C 5471.0,7069.0 5399.0,6982.0 5389.0,6948.0 C 5384.0,6930.0 5375.0,6870.0 5370.0,6815.0 C 5365.0,6760.0 5356.0,6693.0 5350.0,6665.0 C 5315.0,6510.0 5407.0,6371.0 5543.0,6370.0 C 5601.0,6370.0 5640.0,6416.0 5640.0,6486.0 C 5640.0,6518.0 5648.0,6532.0 5698.0,6582.0 C 5729.0,6614.0 5762.0,6640.0 5772.0,6640.0 C 5791.0,6640.0 5860.0,6730.0 5860.0,6755.0 C 5860.0,6773.0 5767.0,6870.0 5749.0,6870.0 C 5739.0,6870.0 5665.0,6968.0 5638.0,7018.0 C 5611.0,7068.0 5540.0,7101.0 5500.0,7082.0" fill="pink"/>
	<path d="M 4867.0,6722.0 C 4845.0,6698.0 4846.0,6677.0 4868.0,6657.0 C 4906.0,6623.0 4960.0,6647.0 4960.0,6697.0 C 4960.0,6720.0 4955.0,6729.0 4938.0,6734.0 C 4900.0,6744.0 4884.0,6741.0 4867.0,6722.0" fill="pink"/>
	<path d="M 4627.0,6693.0 C 4587.0,6687.0 4560.0,6638.0 4560.0,6573.0 C 4560.0,6545.0 4556.0,6519.0 4551.0,6516.0 C 4526.0,6500.0 4513.0,6306.0 4532.0,6233.0 C 4537.0,6212.0 4518.0,5921.0 4509.0,5892.0 C 4501.0,5868.0 4502.0,5848.0 4514.0,5812.0 C 4522.0,5786.0 4534.0,5738.0 4540.0,5705.0 C 4554.0,5636.0 4564.0,5620.0 4594.0,5620.0 C 4605.0,5620.0 4624.0,5613.0 4634.0,5605.0 C 4667.0,5580.0 4713.0,5587.0 4773.0,5627.0 C 4837.0,5669.0 4852.0,5694.0 4880.0,5809.0 C 4899.0,5884.0 4899.0,5899.0 4888.0,6047.0 C 4882.0,6134.0 4876.0,6250.0 4875.0,6305.0 C 4874.0,6417.0 4859.0,6490.0 4829.0,6529.0 C 4758.0,6623.0 4685.0,6700.0 4669.0,6699.0 C 4661.0,6698.0 4642.0,6695.0 4627.0,6693.0" fill="pink"/>
	<path d="M 5428.0,6323.0 C 5383.0,6295.0 5361.0,6214.0 5360.0,6078.0 C 5360.0,5961.0 5379.0,5921.0 5433.0,5920.0 C 5477.0,5920.0 5520.0,5955.0 5520.0,5991.0 C 5520.0,6003.0 5541.0,6056.0 5567.0,6109.0 C 5607.0,6190.0 5614.0,6214.0 5614.0,6263.0 C 5614.0,6303.0 5610.0,6324.0 5600.0,6330.0 C 5574.0,6347.0 5458.0,6341.0 5428.0,6323.0" fill="pink"/>
	<path d="M 5367.0,5693.0 C 5310.0,5618.0 5260.0,5522.0 5260.0,5488.0 C 5260.0,5460.0 5283.0,5440.0 5316.0,5440.0 C 5350.0,5440.0 5427.0,5372.0 5448.0,5322.0 C 5473.0,5264.0 5487.0,5251.0 5532.0,5244.0 C 5561.0,5239.0 5568.0,5242.0 5577.0,5263.0 C 5590.0,5290.0 5638.0,5309.0 5695.0,5310.0 C 5740.0,5311.0 5883.0,5334.0 5896.0,5343.0 C 5903.0,5347.0 5914.0,5373.0 5920.0,5402.0 C 5931.0,5445.0 5931.0,5455.0 5918.0,5464.0 C 5910.0,5470.0 5901.0,5483.0 5897.0,5493.0 C 5888.0,5516.0 5886.0,5515.0 5779.0,5475.0 C 5728.0,5455.0 5679.0,5442.0 5668.0,5445.0 C 5658.0,5449.0 5643.0,5464.0 5635.0,5480.0 C 5627.0,5496.0 5608.0,5522.0 5594.0,5537.0 C 5570.0,5562.0 5568.0,5571.0 5573.0,5623.0 C 5576.0,5654.0 5576.0,5689.0 5573.0,5700.0 C 5565.0,5730.0 5519.0,5750.0 5461.0,5750.0 C 5412.0,5750.0 5410.0,5749.0 5367.0,5693.0" fill="pink"/>
	<path d="M 4736.0,5335.0 C 4667.0,5316.0 4653.0,5299.0 4668.0,5257.0 C 4675.0,5239.0 4680.0,5216.0 4680.0,5206.0 C 4680.0,5196.0 4692.0,5169.0 4706.0,5145.0 C 4729.0,5105.0 4730.0,5097.0 4719.0,5066.0 C 4708.0,5036.0 4709.0,5028.0 4724.0,5005.0 C 4740.0,4981.0 4747.0,4979.0 4783.0,4983.0 C 4839.0,4989.0 4910.0,5017.0 4937.0,5042.0 C 4949.0,5054.0 4967.0,5083.0 4976.0,5107.0 C 4992.0,5149.0 4992.0,5155.0 4975.0,5208.0 C 4952.0,5284.0 4928.0,5314.0 4880.0,5334.0 C 4832.0,5353.0 4803.0,5353.0 4736.0,5335.0" fill="pink"/>
	<path d="M 5426.0,5205.0 C 5419.0,5186.0 5433.0,5148.0 5453.0,5132.0 C 5465.0,5122.0 5473.0,5124.0 5498.0,5145.0 C 5536.0,5177.0 5531.0,5194.0 5481.0,5209.0 C 5433.0,5223.0 5433.0,5223.0 5426.0,5205.0" fill="pink"/>
	<path d="M 5423.0,5080.0 C 5410.0,5075.0 5400.0,5065.0 5399.0,5058.0 C 5399.0,5051.0 5397.0,4953.0 5396.0,4840.0 C 5394.0,4727.0 5390.0,4617.0 5386.0,4595.0 C 5379.0,4563.0 5382.0,4550.0 5397.0,4531.0 C 5424.0,4497.0 5468.0,4508.0 5477.0,4550.0 C 5485.0,4593.0 5567.0,4650.0 5619.0,4650.0 C 5662.0,4650.0 5690.0,4676.0 5690.0,4715.0 C 5690.0,4726.0 5703.0,4760.0 5720.0,4790.0 C 5737.0,4822.0 5749.0,4861.0 5750.0,4883.0 C 5750.0,4904.0 5757.0,4935.0 5766.0,4951.0 C 5774.0,4968.0 5780.0,4984.0 5777.0,4986.0 C 5775.0,4988.0 5747.0,4995.0 5715.0,5001.0 C 5678.0,5008.0 5640.0,5023.0 5614.0,5042.0 C 5557.0,5083.0 5472.0,5100.0 5423.0,5080.0" fill="pink"/>
	<path d="M 4821.0,4909.0 C 4791.0,4904.0 4758.0,4892.0 4748.0,4883.0 C 4721.0,4859.0 4691.0,4771.0 4700.0,4740.0 C 4704.0,4726.0 4704.0,4706.0 4699.0,4695.0 C 4686.0,4660.0 4689.0,4541.0 4705.0,4511.0 C 4713.0,4495.0 4733.0,4477.0 4749.0,4470.0 C 4775.0,4460.0 4786.0,4460.0 4822.0,4475.0 C 4867.0,4492.0 4927.0,4533.0 4946.0,4559.0 C 4963.0,4581.0 4974.0,4838.0 4960.0,4875.0 C 4942.0,4923.0 4928.0,4926.0 4821.0,4909.0" fill="pink"/>
	<path d="M 4946.0,4274.0 C 4886.0,4255.0 4830.0,4220.0 4800.0,4183.0 C 4780.0,4158.0 4778.0,4148.0 4784.0,4085.0 C 4787.0,4047.0 4797.0,4002.0 4805.0,3985.0 C 4813.0,3969.0 4826.0,3930.0 4834.0,3899.0 C 4853.0,3829.0 4887.0,3794.0 4948.0,3781.0 C 4992.0,3772.0 5000.0,3773.0 5065.0,3807.0 C 5104.0,3826.0 5158.0,3859.0 5185.0,3880.0 C 5213.0,3900.0 5260.0,3935.0 5290.0,3957.0 C 5320.0,3979.0 5357.0,4009.0 5372.0,4023.0 C 5397.0,4046.0 5398.0,4050.0 5388.0,4091.0 C 5382.0,4115.0 5370.0,4144.0 5360.0,4155.0 C 5351.0,4166.0 5337.0,4186.0 5328.0,4200.0 C 5315.0,4221.0 5304.0,4226.0 5261.0,4228.0 C 5226.0,4229.0 5191.0,4240.0 5153.0,4260.0 C 5089.0,4294.0 5027.0,4298.0 4946.0,4274.0" fill="pink"/>
	<path d="M 5651.0,3719.0 C 5638.0,3714.0 5622.0,3703.0 5616.0,3696.0 C 5610.0,3688.0 5583.0,3679.0 5556.0,3675.0 C 5521.0,3670.0 5482.0,3652.0 5419.0,3612.0 C 5371.0,3580.0 5312.0,3543.0 5287.0,3528.0 C 5245.0,3504.0 5242.0,3499.0 5238.0,3453.0 C 5233.0,3392.0 5266.0,3323.0 5311.0,3296.0 C 5355.0,3270.0 5422.0,3269.0 5450.0,3295.0 C 5465.0,3309.0 5487.0,3315.0 5517.0,3315.0 C 5561.0,3315.0 5564.0,3317.0 5601.0,3370.0 L 5639.0,3425.0 L 5629.0,3505.0 C 5615.0,3610.0 5622.0,3655.0 5656.0,3691.0 C 5687.0,3724.0 5686.0,3732.0 5651.0,3719.0" fill="pink"/>
	<path d="M 5216.0,2109.0 C 5183.0,2087.0 5155.0,2068.0 5152.0,2066.0 C 5144.0,2057.0 5180.0,2003.0 5214.0,1972.0 C 5250.0,1939.0 5256.0,1925.0 5242.0,1904.0 C 5232.0,1888.0 5107.0,1813.0 5084.0,1808.0 C 5074.0,1806.0 5056.0,1791.0 5046.0,1775.0 C 5035.0,1758.0 5010.0,1737.0 4990.0,1728.0 C 4925.0,1696.0 4904.0,1633.0 4925.0,1531.0 C 4932.0,1495.0 4943.0,1452.0 4949.0,1437.0 C 4955.0,1421.0 4960.0,1396.0 4960.0,1381.0 C 4960.0,1362.0 4969.0,1347.0 4990.0,1332.0 C 5006.0,1320.0 5022.0,1310.0 5026.0,1310.0 C 5029.0,1310.0 5049.0,1295.0 5070.0,1278.0 C 5091.0,1260.0 5128.0,1234.0 5152.0,1221.0 C 5202.0,1194.0 5189.0,1191.0 5317.0,1263.0 C 5354.0,1285.0 5400.0,1304.0 5420.0,1307.0 C 5488.0,1316.0 5501.0,1321.0 5538.0,1353.0 C 5558.0,1371.0 5587.0,1394.0 5602.0,1403.0 C 5638.0,1426.0 5670.0,1489.0 5670.0,1537.0 C 5669.0,1559.0 5659.0,1592.0 5645.0,1615.0 C 5631.0,1637.0 5611.0,1673.0 5601.0,1695.0 C 5590.0,1717.0 5563.0,1752.0 5541.0,1774.0 C 5519.0,1795.0 5503.0,1816.0 5506.0,1821.0 C 5515.0,1836.0 5489.0,1989.0 5471.0,2023.0 C 5429.0,2104.0 5406.0,2130.0 5370.0,2135.0 C 5279.0,2150.0 5276.0,2149.0 5216.0,2109.0" fill="pink"/>
	<path d="M 5466.0,531.0 C 5459.0,521.0 5494.0,488.0 5503.0,496.0 C 5511.0,504.0 5492.0,540.0 5480.0,540.0 C 5475.0,540.0 5469.0,536.0 5466.0,531.0" fill="pink"/>
	<path d="M 5137.0,154.0 C 5098.0,134.0 5087.0,132.0 5065.0,142.0 C 5051.0,148.0 5040.0,157.0 5040.0,162.0 C 5040.0,166.0 5033.0,170.0 5025.0,170.0 C 5006.0,170.0 5006.0,151.0 5024.0,125.0 C 5031.0,114.0 5041.0,94.0 5045.0,80.0 C 5054.0,49.0 5099.0,0.0 5118.0,0.0 C 5141.0,0.0 5189.0,59.0 5200.0,102.0 C 5206.0,123.0 5213.0,147.0 5216.0,154.0 C 5225.0,178.0 5184.0,178.0 5137.0,154.0" fill="pink"/>
</svg>
