<?xml version="1.0" ?>
<svg xmlns="http://www.w3.org/2000/svg" xmlns:ev="http://www.w3.org/2001/xml-events" xmlns:xlink="http://www.w3.org/1999/xlink" baseProfile="full" height="600px" version="1.1" viewBox="2771.650532623025 -1027.093625 4693.761805320337 12294.937249999999" width="230px">
	<defs/>
	<path d="M 3733.0,10219.0 C 3704.0,10201.0 3700.0,10193.0 3700.0,10155.0 C 3700.0,10114.0 3702.0,10110.0 3735.0,10099.0 C 3774.0,10084.0 3775.0,10083.0 3758.0,10029.0 C 3750.0,10000.0 3750.0,9981.0 3758.0,9952.0 C 3768.0,9920.0 3778.0,9910.0 3825.0,9887.0 C 3855.0,9872.0 3882.0,9860.0 3884.0,9860.0 C 3887.0,9860.0 3891.0,9874.0 3895.0,9890.0 C 3900.0,9915.0 3907.0,9920.0 3930.0,9920.0 C 3946.0,9920.0 3964.0,9922.0 3972.0,9925.0 C 3980.0,9928.0 3994.0,9914.0 4008.0,9890.0 C 4025.0,9859.0 4029.0,9842.0 4024.0,9811.0 C 4018.0,9771.0 4019.0,9769.0 4104.0,9677.0 L 4190.0,9583.0 L 4170.0,9469.0 C 4159.0,9406.0 4148.0,9346.0 4145.0,9334.0 C 4142.0,9318.0 4156.0,9301.0 4213.0,9255.0 C 4306.0,9179.0 4389.0,9100.0 4401.0,9078.0 C 4407.0,9066.0 4407.0,9045.0 4400.0,9019.0 C 4391.0,8988.0 4392.0,8960.0 4401.0,8907.0 C 4413.0,8844.0 4421.0,8826.0 4485.0,8741.0 C 4524.0,8688.0 4559.0,8640.0 4563.0,8633.0 C 4567.0,8626.0 4542.0,8598.0 4498.0,8561.0 C 4458.0,8528.0 4394.0,8461.0 4356.0,8413.0 L 4287.0,8325.0 L 4200.0,8328.0 C 4116.0,8332.0 4112.0,8331.0 4093.0,8306.0 C 4079.0,8289.0 4062.0,8280.0 4045.0,8280.0 C 4021.0,8280.0 3991.0,8258.0 3990.0,8240.0 C 3990.0,8237.0 4006.0,8226.0 4025.0,8216.0 L 4060.0,8197.0 L 4055.0,8136.0 L 4049.0,8075.0 L 4113.0,7976.0 L 4177.0,7878.0 L 4098.0,7732.0 C 4055.0,7652.0 4020.0,7576.0 4020.0,7563.0 C 4020.0,7537.0 4008.0,7533.0 3990.0,7554.0 C 3981.0,7565.0 3973.0,7566.0 3956.0,7559.0 C 3935.0,7549.0 3934.0,7545.0 3943.0,7499.0 C 3952.0,7455.0 3950.0,7443.0 3930.0,7400.0 C 3903.0,7342.0 3909.0,7327.0 3961.0,7332.0 C 3996.0,7335.0 4000.0,7333.0 4015.0,7300.0 C 4028.0,7271.0 4029.0,7253.0 4022.0,7205.0 C 4014.0,7155.0 4015.0,7138.0 4032.0,7093.0 L 4053.0,7040.0 L 4027.0,7007.0 C 4002.0,6974.0 4002.0,6973.0 4018.0,6928.0 C 4033.0,6885.0 4033.0,6880.0 4011.0,6804.0 C 3998.0,6761.0 3977.0,6706.0 3964.0,6683.0 C 3933.0,6628.0 3933.0,6597.0 3966.0,6575.0 C 3988.0,6561.0 3991.0,6553.0 3986.0,6525.0 C 3980.0,6497.0 3987.0,6478.0 4022.0,6414.0 C 4046.0,6372.0 4070.0,6336.0 4075.0,6334.0 C 4081.0,6333.0 4124.0,6326.0 4173.0,6320.0 C 4228.0,6312.0 4260.0,6303.0 4260.0,6296.0 C 4260.0,6289.0 4247.0,6271.0 4231.0,6256.0 C 4214.0,6240.0 4200.0,6216.0 4198.0,6202.0 C 4196.0,6183.0 4186.0,6174.0 4161.0,6165.0 C 4136.0,6157.0 4123.0,6145.0 4116.0,6122.0 C 4098.0,6070.0 4083.0,6062.0 4016.0,6069.0 L 3957.0,6076.0 L 3891.0,6025.0 C 3825.0,5973.0 3825.0,5973.0 3800.0,5991.0 C 3786.0,6001.0 3751.0,6010.0 3720.0,6012.0 L 3665.0,6016.0 L 3592.0,5914.0 C 3529.0,5825.0 3520.0,5807.0 3520.0,5769.0 C 3520.0,5705.0 3529.0,5682.0 3555.0,5676.0 C 3593.0,5666.0 3597.0,5596.0 3566.0,5459.0 C 3542.0,5352.0 3541.0,5341.0 3555.0,5291.0 L 3569.0,5236.0 L 3533.0,5188.0 C 3511.0,5157.0 3488.0,5105.0 3469.0,5044.0 C 3435.0,4931.0 3438.0,4936.0 3401.0,4921.0 C 3382.0,4913.0 3367.0,4895.0 3357.0,4870.0 C 3344.0,4837.0 3332.0,4826.0 3283.0,4804.0 C 3251.0,4790.0 3212.0,4775.0 3195.0,4771.0 C 3168.0,4765.0 3165.0,4761.0 3168.0,4729.0 C 3173.0,4689.0 3179.0,4684.0 3237.0,4675.0 C 3273.0,4670.0 3284.0,4662.0 3309.0,4626.0 L 3338.0,4584.0 L 3294.0,4557.0 C 3255.0,4534.0 3251.0,4527.0 3260.0,4511.0 C 3266.0,4499.0 3293.0,4485.0 3329.0,4475.0 L 3387.0,4458.0 L 3425.0,4381.0 C 3447.0,4334.0 3474.0,4296.0 3491.0,4284.0 C 3512.0,4270.0 3521.0,4254.0 3526.0,4222.0 C 3536.0,4158.0 3583.0,4140.0 3623.0,4185.0 C 3638.0,4202.0 3662.0,4213.0 3695.0,4219.0 C 3722.0,4224.0 3745.0,4228.0 3746.0,4227.0 C 3746.0,4226.0 3760.0,4207.0 3778.0,4184.0 C 3798.0,4157.0 3822.0,4140.0 3848.0,4132.0 C 3898.0,4117.0 3915.0,4082.0 3906.0,4013.0 C 3898.0,3957.0 3920.0,3913.0 3969.0,3884.0 C 3993.0,3870.0 4007.0,3846.0 4039.0,3765.0 C 4076.0,3669.0 4082.0,3660.0 4168.0,3575.0 C 4250.0,3493.0 4258.0,3481.0 4265.0,3437.0 C 4270.0,3395.0 4276.0,3387.0 4305.0,3373.0 C 4336.0,3358.0 4341.0,3358.0 4364.0,3374.0 C 4387.0,3388.0 4390.0,3398.0 4390.0,3444.0 C 4390.0,3489.0 4393.0,3498.0 4410.0,3503.0 C 4425.0,3507.0 4439.0,3497.0 4464.0,3468.0 L 4498.0,3428.0 L 4515.0,3454.0 C 4525.0,3468.0 4556.0,3493.0 4585.0,3510.0 L 4638.0,3540.0 L 4730.0,3527.0 C 4821.0,3513.0 4822.0,3513.0 4832.0,3535.0 C 4841.0,3555.0 4852.0,3558.0 4924.0,3564.0 C 4968.0,3568.0 5040.0,3579.0 5083.0,3589.0 C 5159.0,3607.0 5161.0,3607.0 5174.0,3588.0 C 5182.0,3577.0 5229.0,3524.0 5280.0,3469.0 L 5372.0,3370.0 L 5369.0,3292.0 C 5366.0,3214.0 5381.0,3137.0 5401.0,3124.0 C 5409.0,3120.0 5410.0,3090.0 5406.0,3036.0 C 5400.0,2961.0 5401.0,2950.0 5429.0,2886.0 L 5458.0,2816.0 L 5434.0,2781.0 C 5414.0,2751.0 5410.0,2733.0 5410.0,2673.0 C 5410.0,2634.0 5417.0,2571.0 5426.0,2533.0 L 5442.0,2465.0 L 5386.0,2413.0 C 5355.0,2384.0 5330.0,2354.0 5330.0,2346.0 C 5330.0,2338.0 5314.0,2319.0 5296.0,2305.0 C 5233.0,2257.0 5220.0,2223.0 5227.0,2126.0 L 5233.0,2042.0 L 5186.0,1967.0 C 5150.0,1909.0 5120.0,1877.0 5064.0,1834.0 L 4990.0,1777.0 L 4990.0,1704.0 C 4990.0,1633.0 4990.0,1631.0 5018.0,1625.0 C 5036.0,1621.0 5068.0,1593.0 5111.0,1542.0 C 5147.0,1500.0 5180.0,1459.0 5184.0,1453.0 C 5188.0,1445.0 5179.0,1425.0 5160.0,1402.0 L 5130.0,1364.0 L 5156.0,1262.0 L 5183.0,1160.0 L 5252.0,1138.0 C 5330.0,1113.0 5353.0,1087.0 5365.0,1011.0 C 5373.0,965.0 5410.0,921.0 5443.0,920.0 C 5452.0,920.0 5460.0,913.0 5460.0,904.0 C 5460.0,895.0 5509.0,840.0 5569.0,782.0 C 5656.0,695.0 5678.0,668.0 5684.0,638.0 C 5689.0,609.0 5704.0,589.0 5751.0,548.0 C 5786.0,518.0 5823.0,475.0 5836.0,448.0 C 5856.0,408.0 5866.0,400.0 5897.0,394.0 C 5919.0,390.0 5940.0,392.0 5952.0,399.0 C 5972.0,412.0 5983.0,408.0 6018.0,377.0 C 6035.0,361.0 6040.0,346.0 6040.0,307.0 C 6040.0,266.0 6035.0,254.0 6011.0,231.0 C 5995.0,216.0 5964.0,196.0 5941.0,186.0 C 5894.0,164.0 5882.0,139.0 5903.0,106.0 C 5912.0,93.0 5920.0,68.0 5922.0,49.0 C 5925.0,19.0 5929.0,15.0 5965.0,8.0 C 5987.0,3.0 6045.0,1.0 6095.0,2.0 L 6185.0,5.0 L 6185.0,103.0 C 6185.0,158.0 6182.0,204.0 6178.0,207.0 C 6163.0,216.0 6171.0,273.0 6196.0,336.0 C 6217.0,389.0 6220.0,406.0 6211.0,433.0 C 6206.0,450.0 6198.0,487.0 6194.0,514.0 C 6188.0,556.0 6179.0,571.0 6136.0,614.0 C 6108.0,642.0 6076.0,682.0 6065.0,702.0 L 6046.0,740.0 L 6080.0,769.0 C 6099.0,786.0 6128.0,802.0 6143.0,805.0 C 6175.0,813.0 6190.0,842.0 6190.0,900.0 C 6190.0,922.0 6199.0,954.0 6210.0,972.0 C 6220.0,990.0 6227.0,1013.0 6224.0,1025.0 C 6222.0,1036.0 6226.0,1077.0 6234.0,1115.0 C 6247.0,1175.0 6255.0,1190.0 6287.0,1218.0 C 6365.0,1286.0 6397.0,1303.0 6435.0,1296.0 C 6454.0,1292.0 6474.0,1281.0 6480.0,1270.0 C 6491.0,1249.0 6536.0,1243.0 6568.0,1259.0 C 6577.0,1264.0 6626.0,1280.0 6675.0,1295.0 C 6725.0,1310.0 6776.0,1332.0 6790.0,1345.0 C 6804.0,1357.0 6834.0,1379.0 6857.0,1393.0 C 6911.0,1427.0 6915.0,1434.0 6894.0,1469.0 C 6877.0,1498.0 6877.0,1507.0 6898.0,1677.0 C 6910.0,1775.0 6936.0,1948.0 6956.0,2060.0 L 6993.0,2265.0 L 6972.0,2355.0 C 6960.0,2404.0 6946.0,2475.0 6940.0,2512.0 L 6930.0,2580.0 L 7000.0,2729.0 C 7038.0,2811.0 7070.0,2884.0 7070.0,2892.0 C 7070.0,2911.0 6999.0,2934.0 6966.0,2926.0 L 6939.0,2919.0 L 6960.0,2957.0 C 6971.0,2978.0 6989.0,3010.0 6999.0,3028.0 C 7014.0,3054.0 7018.0,3078.0 7016.0,3140.0 L 7013.0,3219.0 L 6819.0,3474.0 C 6660.0,3683.0 6622.0,3740.0 6604.0,3793.0 C 6587.0,3842.0 6552.0,3898.0 6452.0,4031.0 C 6273.0,4271.0 5867.0,4775.0 5855.0,4773.0 C 5841.0,4770.0 5818.0,4660.0 5823.0,4618.0 C 5826.0,4595.0 5822.0,4574.0 5813.0,4561.0 C 5805.0,4549.0 5802.0,4534.0 5806.0,4528.0 C 5811.0,4521.0 5815.0,4508.0 5815.0,4498.0 C 5818.0,4468.0 5861.0,4439.0 5895.0,4446.0 C 6019.0,4469.0 6064.0,4459.0 6080.0,4401.0 C 6085.0,4381.0 6090.0,4361.0 6090.0,4357.0 C 6090.0,4352.0 6098.0,4336.0 6109.0,4322.0 C 6127.0,4295.0 6140.0,4241.0 6146.0,4166.0 C 6148.0,4145.0 6162.0,4102.0 6177.0,4071.0 C 6197.0,4031.0 6204.0,4003.0 6202.0,3974.0 C 6200.0,3951.0 6203.0,3929.0 6209.0,3925.0 C 6215.0,3922.0 6220.0,3906.0 6220.0,3891.0 C 6220.0,3875.0 6227.0,3857.0 6235.0,3850.0 C 6244.0,3842.0 6250.0,3821.0 6250.0,3794.0 C 6250.0,3761.0 6255.0,3748.0 6270.0,3740.0 C 6283.0,3733.0 6290.0,3719.0 6290.0,3700.0 C 6290.0,3681.0 6297.0,3667.0 6310.0,3660.0 C 6339.0,3644.0 6335.0,3608.0 6300.0,3575.0 C 6274.0,3550.0 6268.0,3548.0 6260.0,3560.0 C 6255.0,3568.0 6250.0,3578.0 6250.0,3583.0 C 6250.0,3587.0 6239.0,3596.0 6225.0,3602.0 C 6211.0,3608.0 6197.0,3624.0 6194.0,3637.0 C 6190.0,3650.0 6168.0,3674.0 6144.0,3691.0 C 6112.0,3713.0 6099.0,3729.0 6094.0,3755.0 C 6087.0,3796.0 6035.0,3865.0 6012.0,3866.0 C 6002.0,3866.0 5984.0,3872.0 5970.0,3878.0 C 5956.0,3884.0 5938.0,3891.0 5929.0,3893.0 C 5913.0,3898.0 5890.0,3984.0 5890.0,4037.0 C 5890.0,4053.0 5879.0,4067.0 5856.0,4081.0 C 5837.0,4092.0 5817.0,4114.0 5810.0,4130.0 C 5798.0,4159.0 5775.0,4175.0 5759.0,4164.0 C 5754.0,4161.0 5761.0,4145.0 5775.0,4128.0 C 5803.0,4095.0 5800.0,4074.0 5770.0,4090.0 C 5749.0,4101.0 5729.0,4083.0 5748.0,4071.0 C 5764.0,4062.0 5810.0,3991.0 5810.0,3977.0 C 5810.0,3970.0 5798.0,3958.0 5783.0,3950.0 C 5759.0,3936.0 5754.0,3925.0 5745.0,3861.0 L 5735.0,3788.0 L 5680.0,3770.0 C 5650.0,3759.0 5615.0,3751.0 5602.0,3750.0 C 5583.0,3750.0 5581.0,3753.0 5590.0,3769.0 C 5606.0,3800.0 5603.0,3807.0 5550.0,3839.0 C 5520.0,3857.0 5495.0,3882.0 5489.0,3898.0 C 5483.0,3913.0 5466.0,3939.0 5450.0,3955.0 C 5425.0,3981.0 5420.0,3998.0 5409.0,4084.0 L 5397.0,4184.0 L 5427.0,4209.0 C 5460.0,4238.0 5490.0,4292.0 5490.0,4324.0 C 5490.0,4336.0 5497.0,4356.0 5506.0,4368.0 C 5514.0,4380.0 5520.0,4400.0 5519.0,4413.0 C 5517.0,4425.0 5524.0,4448.0 5535.0,4464.0 C 5554.0,4493.0 5554.0,4493.0 5532.0,4508.0 C 5520.0,4516.0 5510.0,4531.0 5510.0,4541.0 C 5510.0,4552.0 5504.0,4560.0 5497.0,4560.0 C 5477.0,4560.0 5453.0,4591.0 5445.0,4627.0 C 5439.0,4659.0 5420.0,4683.0 5420.0,4659.0 C 5420.0,4651.0 5414.0,4653.0 5402.0,4663.0 C 5386.0,4677.0 5379.0,4678.0 5351.0,4667.0 C 5322.0,4657.0 5317.0,4657.0 5308.0,4673.0 C 5303.0,4683.0 5285.0,4706.0 5269.0,4724.0 C 5253.0,4743.0 5237.0,4773.0 5234.0,4791.0 C 5230.0,4810.0 5217.0,4836.0 5205.0,4850.0 C 5173.0,4885.0 5146.0,4963.0 5155.0,4992.0 C 5160.0,5004.0 5173.0,5029.0 5186.0,5046.0 C 5215.0,5083.0 5217.0,5133.0 5193.0,5200.0 C 5177.0,5244.0 5177.0,5251.0 5195.0,5324.0 C 5210.0,5390.0 5211.0,5407.0 5200.0,5439.0 C 5191.0,5467.0 5191.0,5482.0 5199.0,5498.0 C 5214.0,5525.0 5213.0,5530.0 5195.0,5530.0 C 5186.0,5530.0 5180.0,5539.0 5180.0,5554.0 C 5180.0,5567.0 5171.0,5589.0 5160.0,5603.0 C 5139.0,5630.0 5132.0,5714.0 5150.0,5725.0 C 5168.0,5736.0 5161.0,5756.0 5135.0,5768.0 C 5122.0,5774.0 5098.0,5797.0 5082.0,5819.0 C 5045.0,5870.0 5031.0,5977.0 5056.0,6016.0 C 5067.0,6032.0 5070.0,6052.0 5066.0,6077.0 C 5063.0,6098.0 5057.0,6134.0 5054.0,6158.0 C 5047.0,6201.0 5018.0,6233.0 4988.0,6229.0 C 4959.0,6226.0 4939.0,6231.0 4945.0,6240.0 C 4949.0,6246.0 4938.0,6263.0 4923.0,6279.0 C 4907.0,6295.0 4888.0,6326.0 4882.0,6348.0 C 4875.0,6371.0 4866.0,6391.0 4861.0,6394.0 C 4847.0,6403.0 4869.0,6509.0 4899.0,6574.0 C 4920.0,6619.0 4926.0,6646.0 4923.0,6676.0 C 4919.0,6710.0 4923.0,6721.0 4948.0,6748.0 C 4965.0,6766.0 4983.0,6780.0 4989.0,6780.0 C 4994.0,6780.0 5007.0,6789.0 5017.0,6799.0 C 5027.0,6809.0 5044.0,6820.0 5055.0,6822.0 C 5072.0,6825.0 5075.0,6833.0 5072.0,6867.0 C 5071.0,6890.0 5074.0,6911.0 5080.0,6915.0 C 5085.0,6918.0 5090.0,6932.0 5090.0,6945.0 C 5090.0,6962.0 5096.0,6970.0 5112.0,6972.0 C 5124.0,6974.0 5148.0,6994.0 5165.0,7017.0 C 5181.0,7040.0 5209.0,7064.0 5226.0,7070.0 C 5272.0,7086.0 5284.0,7116.0 5277.0,7203.0 C 5273.0,7258.0 5265.0,7290.0 5243.0,7328.0 C 5219.0,7371.0 5217.0,7382.0 5228.0,7397.0 C 5250.0,7430.0 5253.0,7442.0 5242.0,7461.0 C 5235.0,7471.0 5230.0,7499.0 5230.0,7521.0 C 5230.0,7549.0 5221.0,7579.0 5203.0,7609.0 C 5180.0,7648.0 5178.0,7658.0 5187.0,7692.0 C 5195.0,7721.0 5194.0,7734.0 5184.0,7747.0 C 5166.0,7771.0 5167.0,7818.0 5185.0,7837.0 C 5197.0,7848.0 5200.0,7871.0 5199.0,7923.0 C 5198.0,7963.0 5198.0,8079.0 5198.0,8182.0 C 5199.0,8290.0 5195.0,8381.0 5189.0,8396.0 C 5182.0,8416.0 5183.0,8437.0 5191.0,8472.0 C 5202.0,8513.0 5202.0,8522.0 5187.0,8538.0 C 5162.0,8565.0 5166.0,8585.0 5201.0,8614.0 C 5227.0,8636.0 5231.0,8644.0 5225.0,8671.0 C 5217.0,8707.0 5235.0,8750.0 5258.0,8750.0 C 5266.0,8750.0 5279.0,8742.0 5287.0,8733.0 C 5300.0,8716.0 5301.0,8717.0 5295.0,8740.0 C 5291.0,8754.0 5285.0,8785.0 5283.0,8809.0 C 5279.0,8844.0 5267.0,8867.0 5229.0,8912.0 C 5202.0,8945.0 5180.0,8977.0 5180.0,8985.0 C 5180.0,8993.0 5162.0,9011.0 5140.0,9025.0 C 5119.0,9038.0 5096.0,9060.0 5089.0,9072.0 C 5082.0,9085.0 5062.0,9110.0 5044.0,9127.0 C 4995.0,9176.0 4980.0,9201.0 4980.0,9237.0 C 4980.0,9278.0 4942.0,9353.0 4907.0,9380.0 C 4882.0,9400.0 4880.0,9406.0 4886.0,9449.0 C 4890.0,9484.0 4888.0,9506.0 4876.0,9529.0 C 4866.0,9547.0 4862.0,9569.0 4865.0,9579.0 C 4868.0,9589.0 4866.0,9619.0 4860.0,9645.0 C 4850.0,9690.0 4851.0,9695.0 4875.0,9720.0 L 4902.0,9748.0 L 4858.0,9778.0 C 4835.0,9795.0 4799.0,9825.0 4780.0,9845.0 C 4761.0,9866.0 4732.0,9890.0 4717.0,9900.0 C 4690.0,9917.0 4684.0,9917.0 4634.0,9903.0 C 4583.0,9888.0 4578.0,9888.0 4529.0,9908.0 C 4482.0,9928.0 4476.0,9928.0 4443.0,9915.0 C 4377.0,9887.0 4297.0,9901.0 4281.0,9942.0 C 4276.0,9955.0 4245.0,9994.0 4212.0,10030.0 C 4163.0,10083.0 4150.0,10093.0 4138.0,10083.0 C 4128.0,10074.0 4093.0,10072.0 4025.0,10075.0 L 3926.0,10079.0 L 3846.0,10159.0 L 3765.0,10239.0 L 3733.0,10219.0" fill="pink"/>
</svg>
