<?xml version="1.0" ?>
<svg xmlns="http://www.w3.org/2000/svg" xmlns:ev="http://www.w3.org/2001/xml-events" xmlns:xlink="http://www.w3.org/1999/xlink" baseProfile="full" height="418px" version="1.1" viewBox="-1029.12 843.2247805658232 12298.24 8550.102633210121" width="600px">
	<defs/>
	<path d="M 0.0,8673.0 C 0.0,8647.0 71.0,8467.0 93.0,8439.0 C 119.0,8406.0 119.0,8380.0 93.0,8380.0 C 82.0,8380.0 80.0,8374.0 85.0,8358.0 C 89.0,8345.0 94.0,8317.0 97.0,8295.0 C 100.0,8273.0 108.0,8248.0 115.0,8240.0 C 139.0,8213.0 170.0,8129.0 170.0,8091.0 C 170.0,8064.0 180.0,8041.0 211.0,8000.0 C 240.0,7961.0 250.0,7940.0 245.0,7926.0 C 241.0,7914.0 236.0,7883.0 233.0,7856.0 C 228.0,7811.0 228.0,7808.0 248.0,7814.0 C 279.0,7824.0 288.0,7797.0 294.0,7682.0 C 300.0,7567.0 315.0,7528.0 361.0,7504.0 C 378.0,7496.0 411.0,7471.0 434.0,7450.0 C 456.0,7430.0 485.0,7410.0 497.0,7406.0 C 518.0,7399.0 526.0,7389.0 594.0,7282.0 C 613.0,7253.0 640.0,7218.0 654.0,7205.0 C 668.0,7192.0 680.0,7174.0 680.0,7166.0 C 680.0,7158.0 701.0,7126.0 726.0,7095.0 C 769.0,7043.0 772.0,7036.0 766.0,6997.0 C 762.0,6974.0 759.0,6929.0 759.0,6898.0 C 759.0,6866.0 754.0,6840.0 749.0,6840.0 C 744.0,6840.0 740.0,6847.0 740.0,6855.0 C 740.0,6863.0 733.0,6870.0 725.0,6870.0 C 717.0,6870.0 710.0,6862.0 710.0,6851.0 C 710.0,6841.0 703.0,6827.0 695.0,6820.0 C 677.0,6805.0 692.0,6770.0 716.0,6770.0 C 724.0,6770.0 734.0,6760.0 739.0,6748.0 C 750.0,6718.0 743.0,6712.0 725.0,6736.0 C 710.0,6755.0 710.0,6755.0 716.0,6735.0 C 720.0,6724.0 730.0,6707.0 738.0,6697.0 C 746.0,6688.0 750.0,6677.0 747.0,6673.0 C 737.0,6663.0 700.0,6701.0 700.0,6721.0 C 700.0,6731.0 691.0,6742.0 680.0,6745.0 C 669.0,6748.0 660.0,6760.0 660.0,6771.0 C 660.0,6793.0 642.0,6795.0 606.0,6779.0 C 587.0,6770.0 577.0,6770.0 566.0,6779.0 C 551.0,6792.0 430.0,6823.0 423.0,6817.0 C 415.0,6808.0 452.0,6739.0 468.0,6733.0 C 477.0,6729.0 497.0,6715.0 511.0,6701.0 C 525.0,6687.0 548.0,6667.0 563.0,6658.0 C 582.0,6645.0 590.0,6629.0 595.0,6592.0 C 600.0,6552.0 607.0,6540.0 628.0,6529.0 C 643.0,6522.0 664.0,6516.0 675.0,6515.0 C 686.0,6515.0 699.0,6505.0 705.0,6493.0 C 710.0,6481.0 735.0,6462.0 761.0,6452.0 C 799.0,6436.0 813.0,6422.0 839.0,6376.0 L 872.0,6320.0 L 900.0,6340.0 C 921.0,6355.0 934.0,6358.0 947.0,6352.0 C 957.0,6347.0 979.0,6337.0 995.0,6329.0 C 1016.0,6318.0 1028.0,6304.0 1034.0,6277.0 C 1039.0,6257.0 1048.0,6240.0 1054.0,6240.0 C 1066.0,6239.0 1120.0,6195.0 1120.0,6186.0 C 1120.0,6172.0 1198.0,6110.0 1222.0,6105.0 C 1271.0,6094.0 1335.0,5943.0 1333.0,5840.0 C 1333.0,5780.0 1324.0,5704.0 1316.0,5692.0 C 1313.0,5687.0 1304.0,5656.0 1295.0,5624.0 C 1282.0,5573.0 1282.0,5564.0 1295.0,5544.0 C 1304.0,5530.0 1325.0,5518.0 1345.0,5514.0 C 1373.0,5509.0 1384.0,5501.0 1395.0,5474.0 C 1404.0,5453.0 1418.0,5438.0 1434.0,5434.0 C 1448.0,5431.0 1460.0,5422.0 1460.0,5414.0 C 1460.0,5407.0 1474.0,5391.0 1490.0,5378.0 C 1507.0,5366.0 1520.0,5351.0 1520.0,5345.0 C 1520.0,5334.0 1573.0,5290.0 1585.0,5290.0 C 1601.0,5290.0 1703.0,5188.0 1730.0,5146.0 C 1747.0,5120.0 1767.0,5097.0 1775.0,5094.0 C 1784.0,5090.0 1797.0,5076.0 1804.0,5062.0 C 1812.0,5047.0 1835.0,5030.0 1861.0,5020.0 C 1908.0,5001.0 1912.0,4994.0 1945.0,4855.0 C 1958.0,4800.0 1969.0,4779.0 1993.0,4759.0 C 2023.0,4733.0 2025.0,4733.0 2057.0,4749.0 C 2074.0,4758.0 2093.0,4775.0 2099.0,4788.0 C 2105.0,4800.0 2119.0,4810.0 2130.0,4810.0 C 2158.0,4810.0 2190.0,4828.0 2190.0,4843.0 C 2190.0,4850.0 2198.0,4872.0 2209.0,4892.0 L 2227.0,4929.0 L 2199.0,4972.0 C 2183.0,4995.0 2162.0,5018.0 2150.0,5022.0 C 2136.0,5027.0 2130.0,5038.0 2130.0,5058.0 C 2130.0,5073.0 2119.0,5101.0 2105.0,5120.0 C 2090.0,5140.0 2080.0,5167.0 2080.0,5187.0 C 2080.0,5212.0 2076.0,5220.0 2062.0,5220.0 C 2053.0,5220.0 2029.0,5240.0 2010.0,5265.0 C 1975.0,5310.0 1941.0,5328.0 1920.0,5315.0 C 1913.0,5311.0 1910.0,5299.0 1913.0,5289.0 C 1916.0,5279.0 1912.0,5263.0 1904.0,5253.0 C 1895.0,5241.0 1891.0,5239.0 1890.0,5249.0 C 1890.0,5258.0 1882.0,5260.0 1865.0,5256.0 C 1838.0,5249.0 1829.0,5261.0 1798.0,5340.0 C 1776.0,5395.0 1775.0,5434.0 1795.0,5450.0 C 1803.0,5457.0 1810.0,5473.0 1810.0,5487.0 C 1810.0,5511.0 1768.0,5603.0 1744.0,5630.0 C 1737.0,5639.0 1728.0,5673.0 1724.0,5705.0 C 1718.0,5754.0 1711.0,5770.0 1682.0,5800.0 C 1632.0,5851.0 1617.0,5887.0 1615.0,5960.0 C 1612.0,6028.0 1594.0,6138.0 1579.0,6178.0 C 1574.0,6191.0 1570.0,6209.0 1570.0,6219.0 C 1570.0,6229.0 1558.0,6247.0 1544.0,6261.0 C 1529.0,6274.0 1511.0,6301.0 1503.0,6320.0 C 1490.0,6350.0 1487.0,6352.0 1478.0,6336.0 C 1471.0,6324.0 1471.0,6311.0 1478.0,6296.0 C 1509.0,6229.0 1511.0,6218.0 1493.0,6222.0 C 1482.0,6224.0 1471.0,6243.0 1462.0,6275.0 C 1454.0,6303.0 1437.0,6338.0 1423.0,6354.0 C 1401.0,6381.0 1400.0,6384.0 1415.0,6406.0 C 1430.0,6429.0 1429.0,6430.0 1410.0,6430.0 C 1385.0,6430.0 1357.0,6474.0 1329.0,6557.0 C 1315.0,6600.0 1299.0,6628.0 1277.0,6645.0 C 1184.0,6720.0 1185.0,6719.0 1185.0,6804.0 C 1185.0,6847.0 1181.0,6884.0 1177.0,6887.0 C 1172.0,6890.0 1171.0,6903.0 1175.0,6917.0 C 1184.0,6955.0 1173.0,6977.0 1141.0,6983.0 C 1122.0,6987.0 1109.0,6997.0 1105.0,7012.0 C 1089.0,7064.0 1054.0,7130.0 1042.0,7130.0 C 1035.0,7130.0 1024.0,7141.0 1018.0,7155.0 C 1010.0,7173.0 1001.0,7179.0 989.0,7175.0 C 970.0,7169.0 971.0,7166.0 955.0,7273.0 C 952.0,7292.0 934.0,7324.0 915.0,7346.0 C 895.0,7367.0 877.0,7395.0 874.0,7408.0 C 870.0,7420.0 855.0,7437.0 839.0,7445.0 C 824.0,7453.0 799.0,7480.0 785.0,7504.0 C 769.0,7532.0 750.0,7550.0 737.0,7552.0 C 721.0,7554.0 714.0,7563.0 712.0,7582.0 C 710.0,7597.0 700.0,7616.0 690.0,7623.0 C 660.0,7644.0 646.0,7717.0 663.0,7765.0 C 678.0,7807.0 675.0,7965.0 660.0,7985.0 C 655.0,7991.0 649.0,8033.0 645.0,8080.0 C 642.0,8127.0 637.0,8180.0 634.0,8198.0 C 630.0,8221.0 633.0,8230.0 643.0,8230.0 C 679.0,8230.0 664.0,8299.0 614.0,8365.0 C 572.0,8420.0 588.0,8425.0 645.0,8374.0 C 675.0,8347.0 726.0,8302.0 758.0,8274.0 C 855.0,8187.0 925.0,8165.0 948.0,8215.0 C 962.0,8246.0 970.0,8246.0 1004.0,8217.0 C 1020.0,8203.0 1033.0,8179.0 1037.0,8156.0 C 1040.0,8135.0 1048.0,8117.0 1054.0,8115.0 C 1159.0,8084.0 1191.0,8053.0 1183.0,7990.0 C 1174.0,7921.0 1196.0,7801.0 1226.0,7757.0 C 1250.0,7721.0 1254.0,7702.0 1260.0,7615.0 C 1266.0,7527.0 1271.0,7504.0 1308.0,7421.0 C 1331.0,7369.0 1350.0,7322.0 1350.0,7317.0 C 1350.0,7312.0 1364.0,7292.0 1380.0,7273.0 C 1397.0,7254.0 1416.0,7218.0 1423.0,7193.0 C 1434.0,7151.0 1455.0,7125.0 1506.0,7093.0 C 1524.0,7082.0 1524.0,7081.0 1503.0,7081.0 C 1473.0,7080.0 1474.0,7063.0 1504.0,7039.0 C 1517.0,7029.0 1533.0,7008.0 1539.0,6992.0 C 1552.0,6962.0 1596.0,6930.0 1627.0,6930.0 C 1642.0,6930.0 1650.0,6916.0 1664.0,6870.0 C 1674.0,6838.0 1688.0,6806.0 1695.0,6800.0 C 1702.0,6794.0 1710.0,6776.0 1713.0,6760.0 C 1718.0,6738.0 1727.0,6729.0 1747.0,6724.0 C 1762.0,6720.0 1784.0,6709.0 1796.0,6698.0 C 1814.0,6682.0 1819.0,6681.0 1829.0,6694.0 C 1846.0,6714.0 1904.0,6693.0 1894.0,6670.0 C 1876.0,6632.0 1878.0,6579.0 1899.0,6545.0 C 1915.0,6517.0 1916.0,6510.0 1905.0,6510.0 C 1882.0,6510.0 1887.0,6482.0 1913.0,6469.0 C 1925.0,6462.0 1956.0,6440.0 1981.0,6419.0 C 2014.0,6391.0 2037.0,6380.0 2060.0,6380.0 C 2080.0,6380.0 2098.0,6373.0 2106.0,6363.0 C 2124.0,6339.0 2123.0,6330.0 2105.0,6330.0 C 2081.0,6330.0 2087.0,6311.0 2128.0,6258.0 L 2165.0,6209.0 L 2220.0,6212.0 L 2275.0,6214.0 L 2310.0,6147.0 C 2329.0,6110.0 2353.0,6077.0 2363.0,6074.0 C 2387.0,6066.0 2385.0,6031.0 2360.0,6033.0 C 2349.0,6034.0 2338.0,6040.0 2336.0,6047.0 C 2326.0,6073.0 2311.0,6059.0 2291.0,6005.0 C 2279.0,5974.0 2270.0,5925.0 2270.0,5896.0 C 2270.0,5838.0 2274.0,5833.0 2363.0,5753.0 C 2399.0,5720.0 2440.0,5709.0 2440.0,5732.0 C 2440.0,5738.0 2450.0,5734.0 2462.0,5723.0 C 2498.0,5690.0 2618.0,5611.0 2623.0,5616.0 C 2626.0,5619.0 2636.0,5607.0 2647.0,5590.0 C 2657.0,5572.0 2681.0,5550.0 2702.0,5539.0 C 2765.0,5507.0 2786.0,5429.0 2727.0,5444.0 C 2687.0,5454.0 2688.0,5438.0 2729.0,5390.0 C 2761.0,5353.0 2770.0,5347.0 2782.0,5358.0 C 2794.0,5368.0 2800.0,5368.0 2809.0,5356.0 C 2815.0,5349.0 2834.0,5340.0 2850.0,5336.0 C 2867.0,5333.0 2880.0,5326.0 2880.0,5320.0 C 2880.0,5307.0 2864.0,5307.0 2839.0,5321.0 C 2828.0,5327.0 2814.0,5330.0 2808.0,5328.0 C 2791.0,5322.0 2900.0,5240.0 2924.0,5240.0 C 2954.0,5240.0 3019.0,5169.0 3063.0,5089.0 C 3083.0,5052.0 3107.0,5020.0 3115.0,5016.0 C 3123.0,5013.0 3130.0,5004.0 3130.0,4995.0 C 3130.0,4987.0 3152.0,4951.0 3179.0,4917.0 C 3206.0,4882.0 3232.0,4842.0 3235.0,4827.0 C 3240.0,4809.0 3249.0,4800.0 3262.0,4800.0 C 3292.0,4800.0 3345.0,4754.0 3365.0,4710.0 C 3380.0,4677.0 3389.0,4669.0 3419.0,4664.0 C 3476.0,4655.0 3478.0,4653.0 3490.0,4610.0 C 3498.0,4579.0 3498.0,4565.0 3490.0,4555.0 C 3482.0,4545.0 3482.0,4526.0 3489.0,4484.0 C 3495.0,4452.0 3500.0,4413.0 3500.0,4396.0 C 3500.0,4379.0 3514.0,4338.0 3530.0,4305.0 C 3546.0,4272.0 3560.0,4239.0 3560.0,4232.0 C 3560.0,4212.0 3599.0,4160.0 3614.0,4160.0 C 3637.0,4160.0 3658.0,4127.0 3650.0,4105.0 C 3645.0,4094.0 3641.0,4068.0 3641.0,4047.0 C 3640.0,4001.0 3630.0,3980.0 3579.0,3919.0 C 3539.0,3871.0 3533.0,3860.0 3549.0,3860.0 C 3563.0,3860.0 3640.0,3807.0 3640.0,3798.0 C 3640.0,3786.0 3576.0,3760.0 3548.0,3760.0 C 3535.0,3760.0 3509.0,3746.0 3490.0,3729.0 L 3456.0,3697.0 L 3488.0,3670.0 C 3506.0,3656.0 3520.0,3636.0 3520.0,3627.0 C 3520.0,3618.0 3536.0,3585.0 3555.0,3553.0 C 3574.0,3521.0 3590.0,3488.0 3590.0,3479.0 C 3590.0,3470.0 3600.0,3460.0 3613.0,3456.0 C 3625.0,3453.0 3640.0,3440.0 3646.0,3428.0 C 3695.0,3331.0 3714.0,3303.0 3740.0,3289.0 C 3756.0,3280.0 3776.0,3267.0 3784.0,3261.0 C 3805.0,3243.0 3921.0,3200.0 3931.0,3206.0 C 3936.0,3209.0 3940.0,3200.0 3940.0,3186.0 C 3940.0,3156.0 3953.0,3148.0 4040.0,3125.0 C 4113.0,3105.0 4154.0,3073.0 4170.0,3024.0 C 4176.0,3006.0 4189.0,2988.0 4198.0,2985.0 C 4207.0,2982.0 4226.0,2963.0 4240.0,2943.0 C 4253.0,2922.0 4271.0,2898.0 4280.0,2890.0 C 4297.0,2873.0 4395.0,2840.0 4428.0,2840.0 C 4440.0,2840.0 4459.0,2829.0 4472.0,2816.0 C 4490.0,2798.0 4509.0,2791.0 4556.0,2787.0 C 4589.0,2785.0 4639.0,2772.0 4668.0,2760.0 C 4713.0,2741.0 4724.0,2739.0 4749.0,2750.0 C 4774.0,2760.0 4783.0,2759.0 4802.0,2746.0 C 4814.0,2737.0 4832.0,2730.0 4841.0,2730.0 C 4851.0,2730.0 4877.0,2708.0 4900.0,2681.0 C 4922.0,2653.0 4950.0,2628.0 4960.0,2625.0 C 4970.0,2622.0 4982.0,2611.0 4985.0,2600.0 C 4988.0,2590.0 5015.0,2570.0 5046.0,2555.0 C 5076.0,2540.0 5108.0,2517.0 5117.0,2504.0 C 5125.0,2491.0 5139.0,2480.0 5147.0,2480.0 C 5155.0,2480.0 5174.0,2474.0 5188.0,2467.0 C 5258.0,2431.0 5290.0,2419.0 5355.0,2401.0 C 5394.0,2391.0 5450.0,2373.0 5480.0,2360.0 C 5510.0,2348.0 5545.0,2336.0 5558.0,2333.0 C 5570.0,2330.0 5585.0,2319.0 5591.0,2309.0 C 5606.0,2280.0 5641.0,2266.0 5692.0,2269.0 C 5718.0,2270.0 5762.0,2264.0 5789.0,2256.0 C 5816.0,2248.0 5840.0,2243.0 5842.0,2246.0 C 5845.0,2248.0 5864.0,2241.0 5885.0,2230.0 C 5907.0,2219.0 5936.0,2210.0 5950.0,2210.0 C 5967.0,2210.0 5989.0,2196.0 6017.0,2166.0 C 6048.0,2133.0 6074.0,2117.0 6117.0,2104.0 C 6149.0,2094.0 6183.0,2087.0 6193.0,2088.0 C 6204.0,2089.0 6225.0,2081.0 6240.0,2070.0 C 6311.0,2020.0 6390.0,1989.0 6458.0,1986.0 C 6495.0,1985.0 6535.0,1978.0 6547.0,1972.0 C 6559.0,1965.0 6580.0,1960.0 6593.0,1960.0 C 6607.0,1960.0 6642.0,1948.0 6671.0,1933.0 C 6717.0,1909.0 6735.0,1905.0 6808.0,1906.0 C 6880.0,1907.0 6899.0,1911.0 6952.0,1939.0 C 6985.0,1956.0 7020.0,1970.0 7029.0,1970.0 C 7069.0,1971.0 7221.0,2032.0 7240.0,2055.0 C 7262.0,2082.0 7311.0,2103.0 7368.0,2111.0 C 7398.0,2115.0 7424.0,2121.0 7427.0,2124.0 C 7437.0,2134.0 7418.0,2150.0 7395.0,2150.0 C 7359.0,2150.0 7357.0,2166.0 7391.0,2180.0 C 7415.0,2190.0 7426.0,2190.0 7445.0,2180.0 C 7457.0,2173.0 7473.0,2171.0 7479.0,2174.0 C 7493.0,2183.0 7530.0,2172.0 7530.0,2159.0 C 7530.0,2154.0 7519.0,2152.0 7506.0,2156.0 C 7488.0,2160.0 7479.0,2157.0 7470.0,2141.0 C 7460.0,2121.0 7462.0,2120.0 7500.0,2120.0 C 7523.0,2120.0 7581.0,2104.0 7631.0,2085.0 C 7735.0,2045.0 7730.0,2046.0 7730.0,2063.0 C 7730.0,2069.0 7696.0,2088.0 7655.0,2103.0 C 7609.0,2120.0 7580.0,2137.0 7580.0,2146.0 C 7580.0,2165.0 7577.0,2165.0 7661.0,2125.0 C 7702.0,2106.0 7745.0,2090.0 7757.0,2090.0 C 7776.0,2090.0 7779.0,2086.0 7775.0,2068.0 C 7771.0,2048.0 7779.0,2041.0 7825.0,2018.0 C 7861.0,2001.0 7880.0,1995.0 7880.0,2004.0 C 7880.0,2010.0 7875.0,2021.0 7868.0,2028.0 C 7861.0,2035.0 7860.0,2040.0 7865.0,2040.0 C 7873.0,2040.0 7961.0,1959.0 8106.0,1819.0 C 8128.0,1797.0 8162.0,1775.0 8182.0,1770.0 C 8205.0,1763.0 8226.0,1747.0 8243.0,1722.0 C 8268.0,1687.0 8394.0,1560.0 8405.0,1560.0 C 8418.0,1560.0 8440.0,1625.0 8440.0,1665.0 C 8440.0,1691.0 8448.0,1725.0 8457.0,1741.0 C 8474.0,1770.0 8474.0,1771.0 8448.0,1797.0 L 8422.0,1823.0 L 8502.0,1985.0 L 8583.0,2146.0 L 8814.0,2158.0 C 8941.0,2165.0 9048.0,2174.0 9051.0,2178.0 C 9055.0,2182.0 9060.0,2210.0 9062.0,2239.0 L 9065.0,2294.0 L 9030.0,2301.0 C 8991.0,2309.0 8960.0,2342.0 8960.0,2375.0 C 8960.0,2391.0 8945.0,2407.0 8901.0,2434.0 C 8869.0,2454.0 8838.0,2470.0 8833.0,2470.0 C 8827.0,2470.0 8804.0,2492.0 8781.0,2520.0 C 8751.0,2555.0 8730.0,2571.0 8705.0,2576.0 C 8644.0,2587.0 8667.0,2600.0 8750.0,2600.0 L 8830.0,2600.0 L 8830.0,2710.0 L 8830.0,2819.0 L 8863.0,2825.0 C 8912.0,2833.0 9286.0,2860.0 9360.0,2860.0 C 9466.0,2860.0 9500.0,2869.0 9500.0,2895.0 C 9500.0,2924.0 9526.0,2934.0 9553.0,2915.0 C 9565.0,2907.0 9580.0,2900.0 9586.0,2900.0 C 9592.0,2900.0 9622.0,2954.0 9653.0,3020.0 C 9688.0,3093.0 9715.0,3140.0 9724.0,3140.0 C 9754.0,3140.0 9789.0,3163.0 9794.0,3186.0 C 9798.0,3199.0 9809.0,3214.0 9820.0,3220.0 C 9833.0,3227.0 9840.0,3241.0 9840.0,3261.0 C 9840.0,3281.0 9844.0,3290.0 9853.0,3287.0 C 9861.0,3285.0 9865.0,3261.0 9865.0,3219.0 C 9865.0,3159.0 9866.0,3155.0 9893.0,3146.0 C 9913.0,3139.0 9920.0,3130.0 9920.0,3110.0 C 9920.0,3095.0 9928.0,3075.0 9939.0,3066.0 C 9957.0,3050.0 9958.0,3050.0 9969.0,3081.0 C 9975.0,3098.0 9987.0,3152.0 9995.0,3200.0 C 10003.0,3248.0 10017.0,3309.0 10025.0,3336.0 C 10033.0,3363.0 10040.0,3394.0 10040.0,3406.0 C 10040.0,3417.0 10049.0,3435.0 10060.0,3445.0 C 10071.0,3455.0 10080.0,3467.0 10080.0,3472.0 C 10080.0,3485.0 10046.0,3481.0 10023.0,3465.0 C 10007.0,3454.0 10001.0,3453.0 9997.0,3463.0 C 9991.0,3480.0 10008.0,3510.0 10023.0,3510.0 C 10031.0,3510.0 10049.0,3523.0 10064.0,3539.0 C 10086.0,3562.0 10090.0,3573.0 10084.0,3595.0 C 10077.0,3621.0 10076.0,3622.0 10064.0,3605.0 C 10056.0,3594.0 10050.0,3592.0 10050.0,3598.0 C 10050.0,3607.0 10041.0,3606.0 10019.0,3594.0 L 9987.0,3578.0 L 9994.0,3607.0 C 9998.0,3622.0 10012.0,3651.0 10026.0,3671.0 C 10043.0,3696.0 10050.0,3720.0 10050.0,3753.0 C 10050.0,3780.0 10060.0,3826.0 10074.0,3860.0 C 10087.0,3893.0 10096.0,3928.0 10093.0,3940.0 C 10089.0,3954.0 10093.0,3960.0 10103.0,3960.0 C 10126.0,3960.0 10180.0,4009.0 10180.0,4031.0 C 10180.0,4041.0 10194.0,4071.0 10210.0,4097.0 C 10234.0,4134.0 10240.0,4155.0 10240.0,4197.0 C 10240.0,4230.0 10234.0,4257.0 10225.0,4268.0 C 10216.0,4277.0 10199.0,4297.0 10187.0,4312.0 C 10165.0,4340.0 10123.0,4354.0 10120.0,4335.0 C 10115.0,4305.0 10097.0,4300.0 10011.0,4307.0 C 9964.0,4310.0 9908.0,4319.0 9886.0,4327.0 C 9841.0,4342.0 9744.0,4345.0 9735.0,4330.0 C 9732.0,4325.0 9713.0,4320.0 9693.0,4320.0 C 9648.0,4320.0 9540.0,4279.0 9540.0,4263.0 C 9540.0,4256.0 9532.0,4250.0 9523.0,4250.0 C 9513.0,4250.0 9491.0,4242.0 9475.0,4231.0 C 9456.0,4220.0 9414.0,4210.0 9361.0,4206.0 C 9255.0,4196.0 9187.0,4178.0 9092.0,4135.0 C 8952.0,4070.0 8947.0,4059.0 8940.0,3830.0 C 8935.0,3665.0 8934.0,3653.0 8910.0,3615.0 C 8891.0,3584.0 8884.0,3557.0 8879.0,3492.0 L 8874.0,3409.0 L 8814.0,3349.0 C 8782.0,3316.0 8727.0,3271.0 8693.0,3248.0 C 8652.0,3222.0 8630.0,3201.0 8630.0,3188.0 C 8630.0,3172.0 8635.0,3170.0 8665.0,3176.0 C 8695.0,3181.0 8700.0,3180.0 8700.0,3162.0 C 8700.0,3151.0 8707.0,3137.0 8715.0,3130.0 C 8739.0,3110.0 8733.0,3104.0 8695.0,3108.0 C 8667.0,3111.0 8655.0,3107.0 8630.0,3081.0 C 8608.0,3059.0 8589.0,3050.0 8566.0,3050.0 C 8549.0,3050.0 8529.0,3045.0 8522.0,3038.0 C 8513.0,3029.0 8510.0,3030.0 8510.0,3043.0 C 8510.0,3053.0 8496.0,3066.0 8478.0,3074.0 C 8447.0,3088.0 8446.0,3088.0 8470.0,3090.0 C 8493.0,3091.0 8494.0,3092.0 8477.0,3104.0 C 8452.0,3124.0 8265.0,3136.0 8245.0,3120.0 C 8237.0,3113.0 8233.0,3104.0 8236.0,3099.0 C 8239.0,3094.0 8228.0,3090.0 8212.0,3090.0 C 8192.0,3090.0 8167.0,3078.0 8141.0,3056.0 C 8098.0,3020.0 8045.0,3005.0 7979.0,3011.0 C 7960.0,3013.0 7932.0,3010.0 7915.0,3006.0 C 7899.0,3002.0 7868.0,2994.0 7848.0,2989.0 C 7821.0,2982.0 7810.0,2974.0 7810.0,2960.0 C 7810.0,2943.0 7775.0,2922.0 7764.0,2933.0 C 7761.0,2936.0 7723.0,2927.0 7679.0,2914.0 C 7579.0,2883.0 7487.0,2883.0 7481.0,2915.0 C 7479.0,2926.0 7469.0,2941.0 7459.0,2948.0 C 7448.0,2955.0 7440.0,2968.0 7440.0,2976.0 C 7440.0,2998.0 7402.0,3030.0 7376.0,3030.0 C 7361.0,3030.0 7344.0,3041.0 7332.0,3057.0 C 7313.0,3083.0 7307.0,3085.0 7233.0,3086.0 C 7190.0,3086.0 7145.0,3092.0 7132.0,3099.0 C 7094.0,3119.0 7085.0,3106.0 7116.0,3076.0 C 7145.0,3048.0 7145.0,3048.0 7120.0,3055.0 C 7106.0,3059.0 7078.0,3064.0 7058.0,3067.0 C 7037.0,3070.0 7020.0,3078.0 7020.0,3085.0 C 7020.0,3091.0 7010.0,3102.0 6998.0,3108.0 C 6979.0,3117.0 6978.0,3119.0 6993.0,3119.0 C 7003.0,3120.0 7020.0,3115.0 7032.0,3109.0 C 7075.0,3086.0 7061.0,3114.0 7002.0,3170.0 C 6968.0,3202.0 6940.0,3234.0 6940.0,3241.0 C 6940.0,3248.0 6924.0,3271.0 6904.0,3291.0 C 6876.0,3320.0 6862.0,3347.0 6844.0,3412.0 C 6825.0,3477.0 6813.0,3501.0 6787.0,3525.0 C 6768.0,3542.0 6750.0,3568.0 6746.0,3584.0 C 6742.0,3599.0 6731.0,3614.0 6721.0,3617.0 C 6709.0,3620.0 6704.0,3628.0 6707.0,3640.0 C 6712.0,3660.0 6655.0,3710.0 6627.0,3710.0 C 6617.0,3710.0 6610.0,3716.0 6610.0,3723.0 C 6610.0,3730.0 6597.0,3749.0 6581.0,3764.0 C 6565.0,3780.0 6542.0,3814.0 6530.0,3841.0 C 6519.0,3868.0 6503.0,3890.0 6495.0,3890.0 C 6487.0,3890.0 6483.0,3896.0 6486.0,3904.0 C 6489.0,3912.0 6485.0,3932.0 6476.0,3947.0 C 6468.0,3962.0 6454.0,3999.0 6444.0,4029.0 C 6435.0,4059.0 6417.0,4099.0 6404.0,4118.0 C 6391.0,4137.0 6375.0,4171.0 6369.0,4194.0 C 6363.0,4217.0 6354.0,4243.0 6349.0,4252.0 C 6344.0,4262.0 6340.0,4282.0 6340.0,4297.0 C 6339.0,4333.0 6304.0,4381.0 6292.0,4362.0 C 6285.0,4351.0 6280.0,4352.0 6266.0,4365.0 C 6244.0,4387.0 6246.0,4392.0 6273.0,4388.0 C 6294.0,4385.0 6295.0,4388.0 6295.0,4465.0 C 6295.0,4509.0 6299.0,4551.0 6304.0,4559.0 C 6310.0,4568.0 6308.0,4577.0 6297.0,4585.0 C 6285.0,4594.0 6283.0,4603.0 6290.0,4626.0 C 6294.0,4642.0 6299.0,4647.0 6299.0,4638.0 C 6300.0,4615.0 6320.0,4604.0 6331.0,4621.0 C 6342.0,4639.0 6343.0,4687.0 6331.0,4694.0 C 6327.0,4697.0 6320.0,4720.0 6317.0,4745.0 C 6313.0,4786.0 6316.0,4813.0 6335.0,4897.0 C 6339.0,4915.0 6336.0,4920.0 6319.0,4920.0 C 6301.0,4920.0 6299.0,4924.0 6305.0,4943.0 C 6309.0,4955.0 6310.0,4974.0 6309.0,4985.0 C 6307.0,4996.0 6306.0,5056.0 6307.0,5118.0 C 6307.0,5179.0 6305.0,5230.0 6301.0,5230.0 C 6297.0,5230.0 6289.0,5225.0 6282.0,5218.0 C 6273.0,5209.0 6270.0,5216.0 6270.0,5250.0 C 6270.0,5284.0 6273.0,5291.0 6282.0,5282.0 C 6305.0,5259.0 6311.0,5270.0 6309.0,5330.0 C 6308.0,5363.0 6312.0,5395.0 6318.0,5403.0 C 6327.0,5413.0 6326.0,5421.0 6316.0,5436.0 C 6307.0,5447.0 6304.0,5466.0 6307.0,5482.0 C 6310.0,5498.0 6307.0,5517.0 6299.0,5526.0 C 6288.0,5539.0 6289.0,5543.0 6304.0,5552.0 C 6318.0,5560.0 6319.0,5565.0 6309.0,5576.0 C 6293.0,5596.0 6304.0,5604.0 6328.0,5589.0 C 6356.0,5571.0 6384.0,5584.0 6370.0,5609.0 C 6365.0,5620.0 6360.0,5631.0 6360.0,5634.0 C 6360.0,5643.0 6383.0,5641.0 6400.0,5630.0 C 6412.0,5622.0 6411.0,5616.0 6393.0,5583.0 C 6381.0,5562.0 6369.0,5528.0 6365.0,5508.0 C 6359.0,5477.0 6361.0,5470.0 6374.0,5470.0 C 6383.0,5470.0 6392.0,5482.0 6396.0,5498.0 C 6399.0,5513.0 6412.0,5548.0 6425.0,5575.0 C 6437.0,5603.0 6459.0,5658.0 6474.0,5697.0 C 6498.0,5761.0 6500.0,5774.0 6490.0,5805.0 C 6478.0,5843.0 6448.0,5853.0 6432.0,5824.0 C 6424.0,5810.0 6416.0,5812.0 6364.0,5838.0 C 6320.0,5860.0 6282.0,5870.0 6214.0,5877.0 C 6140.0,5885.0 6107.0,5895.0 6038.0,5928.0 C 5991.0,5951.0 5932.0,5974.0 5907.0,5981.0 C 5882.0,5987.0 5855.0,5999.0 5847.0,6009.0 C 5825.0,6034.0 5720.0,6245.0 5720.0,6264.0 C 5720.0,6273.0 5713.0,6296.0 5705.0,6316.0 C 5695.0,6341.0 5693.0,6358.0 5701.0,6377.0 C 5709.0,6398.0 5706.0,6408.0 5685.0,6436.0 C 5671.0,6455.0 5653.0,6470.0 5646.0,6470.0 C 5630.0,6470.0 5550.0,6555.0 5550.0,6571.0 C 5550.0,6578.0 5526.0,6609.0 5498.0,6640.0 C 5423.0,6722.0 5423.0,6722.0 5405.0,6785.0 C 5396.0,6816.0 5382.0,6844.0 5374.0,6847.0 C 5366.0,6850.0 5338.0,6896.0 5311.0,6949.0 C 5285.0,7002.0 5252.0,7057.0 5239.0,7071.0 C 5226.0,7085.0 5207.0,7111.0 5198.0,7129.0 C 5188.0,7147.0 5166.0,7167.0 5146.0,7175.0 C 5127.0,7183.0 5109.0,7199.0 5105.0,7210.0 C 5102.0,7221.0 5091.0,7230.0 5082.0,7230.0 C 5072.0,7230.0 5059.0,7239.0 5053.0,7249.0 C 5039.0,7272.0 4963.0,7290.0 4881.0,7290.0 C 4848.0,7290.0 4810.0,7297.0 4794.0,7305.0 C 4755.0,7325.0 4733.0,7324.0 4720.0,7301.0 C 4714.0,7290.0 4695.0,7279.0 4672.0,7275.0 C 4622.0,7267.0 4585.0,7220.0 4567.0,7143.0 C 4560.0,7110.0 4545.0,7074.0 4534.0,7063.0 C 4524.0,7052.0 4505.0,7031.0 4492.0,7016.0 C 4475.0,6996.0 4463.0,6990.0 4447.0,6994.0 C 4435.0,6997.0 4417.0,7000.0 4408.0,7000.0 C 4398.0,7000.0 4378.0,7014.0 4363.0,7030.0 C 4349.0,7047.0 4327.0,7060.0 4316.0,7060.0 C 4304.0,7060.0 4279.0,7071.0 4259.0,7084.0 C 4240.0,7097.0 4206.0,7115.0 4185.0,7124.0 C 4164.0,7133.0 4128.0,7158.0 4104.0,7180.0 C 4080.0,7202.0 4056.0,7220.0 4051.0,7220.0 C 4046.0,7220.0 4025.0,7248.0 4003.0,7283.0 C 3973.0,7330.0 3961.0,7364.0 3951.0,7420.0 C 3945.0,7461.0 3932.0,7508.0 3924.0,7524.0 C 3917.0,7540.0 3910.0,7559.0 3910.0,7567.0 C 3910.0,7600.0 3876.0,7641.0 3823.0,7674.0 C 3772.0,7705.0 3690.0,7789.0 3690.0,7810.0 C 3690.0,7815.0 3678.0,7822.0 3663.0,7828.0 C 3647.0,7833.0 3606.0,7865.0 3570.0,7899.0 C 3535.0,7932.0 3503.0,7960.0 3500.0,7960.0 C 3497.0,7960.0 3481.0,7982.0 3465.0,8010.0 C 3449.0,8037.0 3427.0,8063.0 3415.0,8066.0 C 3404.0,8070.0 3388.0,8078.0 3380.0,8086.0 C 3369.0,8095.0 3304.0,8102.0 3160.0,8109.0 C 3047.0,8115.0 2925.0,8122.0 2888.0,8125.0 L 2820.0,8130.0 L 2820.0,8040.0 C 2820.0,7991.0 2816.0,7950.0 2812.0,7950.0 C 2804.0,7950.0 2298.0,7995.0 1985.0,8023.0 L 1845.0,8036.0 L 1485.0,8221.0 C 1287.0,8322.0 1034.0,8448.0 923.0,8499.0 C 811.0,8551.0 720.0,8598.0 720.0,8603.0 C 720.0,8609.0 730.0,8624.0 742.0,8637.0 C 754.0,8650.0 762.0,8662.0 759.0,8664.0 C 750.0,8672.0 0.0,8682.0 0.0,8673.0" fill="pink"/>
</svg>
