<?xml version="1.0" ?>
<svg xmlns="http://www.w3.org/2000/svg" xmlns:ev="http://www.w3.org/2001/xml-events" xmlns:xlink="http://www.w3.org/1999/xlink" baseProfile="full" height="600px" version="1.1" viewBox="87.93635863681482 -1025.193018061279 10053.587016494474 12292.638503272405" width="491px">
	<defs/>
	<path d="M 1955.0,10228.0 C 1933.0,10160.0 1918.0,10070.0 1924.0,10026.0 C 1929.0,9983.0 1926.0,9972.0 1908.0,9953.0 C 1888.0,9932.0 1887.0,9926.0 1898.0,9886.0 C 1912.0,9833.0 1897.0,9774.0 1863.0,9747.0 C 1843.0,9731.0 1840.0,9720.0 1840.0,9652.0 C 1840.0,9577.0 1842.0,9572.0 1891.0,9490.0 C 1919.0,9443.0 1950.0,9396.0 1961.0,9385.0 C 1971.0,9373.0 1989.0,9338.0 2000.0,9306.0 C 2011.0,9274.0 2041.0,9216.0 2068.0,9176.0 C 2123.0,9096.0 2182.0,8954.0 2198.0,8865.0 C 2204.0,8832.0 2214.0,8753.0 2220.0,8690.0 C 2229.0,8594.0 2229.0,8562.0 2216.0,8495.0 C 2196.0,8392.0 2196.0,8356.0 2217.0,8334.0 C 2234.0,8317.0 2233.0,8317.0 2201.0,8323.0 L 2167.0,8330.0 L 2174.0,8243.0 C 2179.0,8181.0 2188.0,8140.0 2206.0,8100.0 C 2235.0,8040.0 2247.0,7942.0 2236.0,7867.0 C 2229.0,7818.0 2218.0,7811.0 2168.0,7818.0 C 2145.0,7822.0 2138.0,7830.0 2128.0,7864.0 C 2106.0,7943.0 2085.0,7953.0 1899.0,7974.0 L 1853.0,7979.0 L 1857.0,7902.0 C 1859.0,7860.0 1865.0,7806.0 1870.0,7783.0 C 1876.0,7760.0 1880.0,7722.0 1880.0,7698.0 C 1880.0,7646.0 1898.0,7618.0 1952.0,7584.0 C 1982.0,7565.0 2000.0,7560.0 2024.0,7564.0 C 2052.0,7569.0 2061.0,7580.0 2098.0,7655.0 C 2138.0,7736.0 2142.0,7740.0 2172.0,7740.0 C 2190.0,7740.0 2229.0,7726.0 2258.0,7710.0 L 2310.0,7680.0 L 2310.0,7527.0 C 2310.0,7360.0 2302.0,7318.0 2249.0,7220.0 C 2227.0,7178.0 2220.0,7155.0 2226.0,7138.0 C 2237.0,7103.0 2263.0,7071.0 2281.0,7070.0 C 2292.0,7070.0 2299.0,7057.0 2304.0,7029.0 C 2319.0,6936.0 2356.0,6894.0 2389.0,6934.0 C 2407.0,6955.0 2441.0,6942.0 2499.0,6891.0 L 2554.0,6843.0 L 2531.0,6782.0 L 2508.0,6722.0 L 2531.0,6691.0 C 2553.0,6661.0 2557.0,6660.0 2624.0,6660.0 L 2694.0,6660.0 L 2674.0,6639.0 C 2656.0,6621.0 2650.0,6620.0 2633.0,6631.0 C 2601.0,6651.0 2584.0,6636.0 2566.0,6571.0 C 2551.0,6519.0 2551.0,6507.0 2563.0,6478.0 C 2571.0,6460.0 2587.0,6436.0 2599.0,6426.0 C 2620.0,6407.0 2620.0,6407.0 2620.0,6433.0 C 2620.0,6464.0 2622.0,6465.0 2660.0,6445.0 C 2693.0,6428.0 2710.0,6402.0 2710.0,6368.0 L 2710.0,6346.0 L 2694.0,6368.0 C 2684.0,6383.0 2669.0,6390.0 2646.0,6390.0 C 2602.0,6390.0 2586.0,6369.0 2593.0,6323.0 C 2601.0,6278.0 2627.0,6250.0 2670.0,6241.0 L 2702.0,6235.0 L 2672.0,6197.0 C 2654.0,6175.0 2639.0,6141.0 2635.0,6117.0 C 2622.0,6028.0 2619.0,6020.0 2595.0,6014.0 C 2572.0,6008.0 2572.0,6006.0 2572.0,5875.0 C 2573.0,5754.0 2571.0,5740.0 2551.0,5711.0 C 2539.0,5694.0 2524.0,5680.0 2519.0,5680.0 C 2514.0,5680.0 2510.0,5654.0 2510.0,5621.0 C 2510.0,5569.0 2512.0,5562.0 2533.0,5556.0 C 2545.0,5553.0 2558.0,5550.0 2562.0,5550.0 C 2565.0,5550.0 2574.0,5574.0 2581.0,5603.0 C 2594.0,5660.0 2619.0,5689.0 2633.0,5664.0 C 2644.0,5645.0 2669.0,5646.0 2692.0,5667.0 C 2705.0,5679.0 2713.0,5681.0 2721.0,5673.0 C 2729.0,5665.0 2720.0,5656.0 2689.0,5639.0 C 2665.0,5627.0 2642.0,5612.0 2638.0,5606.0 C 2627.0,5590.0 2628.0,5546.0 2640.0,5514.0 C 2648.0,5493.0 2654.0,5490.0 2662.0,5498.0 C 2690.0,5526.0 2779.0,5493.0 2853.0,5427.0 C 2894.0,5389.0 2898.0,5370.0 2878.0,5292.0 C 2862.0,5225.0 2843.0,5200.0 2810.0,5200.0 C 2787.0,5200.0 2780.0,5195.0 2775.0,5170.0 C 2764.0,5120.0 2780.0,5040.0 2811.0,4989.0 C 2844.0,4937.0 2847.0,4935.0 2914.0,4925.0 C 2952.0,4919.0 2961.0,4913.0 2966.0,4894.0 C 2970.0,4880.0 2970.0,4861.0 2967.0,4851.0 C 2964.0,4838.0 2974.0,4821.0 2999.0,4797.0 C 3039.0,4759.0 3139.0,4690.0 3155.0,4690.0 C 3160.0,4690.0 3173.0,4670.0 3183.0,4645.0 C 3197.0,4613.0 3208.0,4600.0 3222.0,4600.0 C 3245.0,4600.0 3343.0,4510.0 3376.0,4458.0 C 3389.0,4438.0 3416.0,4380.0 3436.0,4329.0 C 3457.0,4279.0 3497.0,4202.0 3527.0,4159.0 C 3556.0,4115.0 3580.0,4069.0 3580.0,4055.0 C 3580.0,4036.0 3587.0,4029.0 3608.0,4024.0 C 3664.0,4010.0 3725.0,3953.0 3781.0,3864.0 C 3792.0,3846.0 3810.0,3828.0 3821.0,3825.0 C 3850.0,3815.0 3870.0,3761.0 3870.0,3692.0 C 3870.0,3603.0 3879.0,3574.0 3919.0,3527.0 C 3939.0,3504.0 3961.0,3468.0 3967.0,3447.0 C 3977.0,3413.0 3976.0,3407.0 3957.0,3386.0 C 3928.0,3355.0 3864.0,3344.0 3850.0,3368.0 C 3826.0,3411.0 3826.0,3411.0 3777.0,3394.0 L 3730.0,3378.0 L 3755.0,3348.0 C 3785.0,3312.0 3786.0,3304.0 3760.0,3265.0 C 3732.0,3223.0 3732.0,3140.0 3760.0,3115.0 C 3771.0,3105.0 3793.0,3077.0 3808.0,3053.0 C 3837.0,3007.0 3896.0,2970.0 3942.0,2970.0 C 3956.0,2970.0 3988.0,2961.0 4013.0,2950.0 C 4050.0,2933.0 4060.0,2924.0 4065.0,2897.0 C 4081.0,2815.0 4098.0,2794.0 4209.0,2723.0 C 4289.0,2671.0 4340.0,2646.0 4417.0,2622.0 C 4473.0,2604.0 4522.0,2585.0 4526.0,2579.0 C 4536.0,2562.0 4619.0,2530.0 4652.0,2530.0 C 4672.0,2530.0 4692.0,2520.0 4712.0,2500.0 C 4739.0,2473.0 4742.0,2464.0 4736.0,2430.0 C 4731.0,2396.0 4733.0,2389.0 4752.0,2379.0 C 4792.0,2359.0 4840.0,2307.0 4840.0,2284.0 C 4840.0,2272.0 4849.0,2241.0 4860.0,2216.0 L 4879.0,2170.0 L 4945.0,2170.0 C 5009.0,2170.0 5012.0,2169.0 5050.0,2130.0 C 5082.0,2097.0 5096.0,2090.0 5127.0,2090.0 C 5162.0,2089.0 5168.0,2085.0 5209.0,2025.0 C 5283.0,1914.0 5391.0,1815.0 5429.0,1822.0 C 5439.0,1824.0 5455.0,1818.0 5464.0,1811.0 C 5483.0,1795.0 5575.0,1760.0 5597.0,1760.0 C 5604.0,1760.0 5631.0,1746.0 5657.0,1730.0 C 5683.0,1713.0 5710.0,1700.0 5717.0,1700.0 C 5724.0,1700.0 5753.0,1686.0 5781.0,1669.0 C 5829.0,1639.0 5835.0,1638.0 5905.0,1643.0 C 5970.0,1649.0 5979.0,1647.0 5996.0,1629.0 C 6006.0,1617.0 6027.0,1602.0 6042.0,1594.0 C 6061.0,1584.0 6072.0,1567.0 6080.0,1537.0 C 6096.0,1471.0 6120.0,1432.0 6191.0,1354.0 C 6228.0,1313.0 6279.0,1254.0 6305.0,1222.0 L 6353.0,1163.0 L 6434.0,1157.0 C 6541.0,1149.0 6581.0,1136.0 6630.0,1095.0 C 6652.0,1077.0 6679.0,1058.0 6690.0,1055.0 C 6701.0,1051.0 6710.0,1040.0 6710.0,1030.0 C 6710.0,1005.0 6797.0,936.0 6847.0,919.0 C 6868.0,913.0 6902.0,892.0 6923.0,874.0 C 6943.0,855.0 6968.0,840.0 6979.0,840.0 C 6989.0,840.0 7008.0,832.0 7021.0,821.0 C 7034.0,811.0 7088.0,784.0 7141.0,761.0 C 7201.0,735.0 7249.0,706.0 7271.0,684.0 C 7310.0,643.0 7365.0,617.0 7392.0,626.0 C 7404.0,630.0 7418.0,622.0 7437.0,600.0 C 7451.0,583.0 7487.0,558.0 7517.0,545.0 C 7561.0,525.0 7574.0,513.0 7590.0,478.0 C 7601.0,454.0 7610.0,426.0 7610.0,415.0 C 7610.0,404.0 7625.0,383.0 7643.0,369.0 C 7690.0,331.0 7735.0,216.0 7725.0,155.0 C 7720.0,116.0 7722.0,106.0 7746.0,75.0 C 7761.0,55.0 7786.0,30.0 7802.0,19.0 C 7829.0,-1.0 7832.0,-1.0 7850.0,15.0 C 7864.0,28.0 7885.0,31.0 7944.0,29.0 L 8019.0,27.0 L 8058.0,86.0 C 8079.0,118.0 8121.0,184.0 8152.0,231.0 L 8209.0,318.0 L 8292.0,313.0 C 8365.0,308.0 8383.0,311.0 8436.0,333.0 L 8498.0,358.0 L 8543.0,306.0 L 8587.0,255.0 L 8721.0,258.0 C 8872.0,261.0 8903.0,252.0 8908.0,207.0 C 8910.0,187.0 8918.0,178.0 8938.0,174.0 C 8953.0,170.0 8978.0,156.0 8993.0,143.0 C 9015.0,125.0 9033.0,120.0 9077.0,120.0 C 9127.0,120.0 9136.0,123.0 9164.0,152.0 C 9181.0,170.0 9201.0,197.0 9207.0,213.0 C 9216.0,232.0 9227.0,240.0 9245.0,240.0 C 9261.0,240.0 9270.0,246.0 9270.0,255.0 C 9270.0,264.0 9277.0,273.0 9285.0,276.0 C 9308.0,285.0 9303.0,348.0 9274.0,421.0 C 9260.0,456.0 9241.0,532.0 9230.0,590.0 C 9213.0,689.0 9164.0,835.0 9106.0,960.0 C 9092.0,990.0 9080.0,1023.0 9080.0,1032.0 C 9080.0,1043.0 9066.0,1056.0 9046.0,1064.0 C 9001.0,1083.0 8990.0,1106.0 8990.0,1178.0 C 8990.0,1248.0 8957.0,1331.0 8848.0,1530.0 C 8802.0,1616.0 8764.0,1672.0 8739.0,1694.0 C 8695.0,1731.0 8692.0,1745.0 8720.0,1775.0 C 8740.0,1797.0 8740.0,1797.0 8721.0,1822.0 C 8708.0,1838.0 8700.0,1866.0 8698.0,1901.0 C 8696.0,1946.0 8692.0,1956.0 8675.0,1958.0 C 8651.0,1962.0 8582.0,2047.0 8547.0,2116.0 C 8533.0,2144.0 8515.0,2172.0 8506.0,2179.0 C 8486.0,2196.0 8476.0,2248.0 8489.0,2264.0 C 8496.0,2273.0 8494.0,2290.0 8480.0,2326.0 C 8443.0,2424.0 8425.0,2445.0 8327.0,2499.0 C 8277.0,2527.0 8218.0,2555.0 8196.0,2561.0 C 8145.0,2575.0 8010.0,2678.0 7969.0,2734.0 C 7952.0,2759.0 7920.0,2793.0 7899.0,2810.0 C 7877.0,2827.0 7860.0,2849.0 7860.0,2858.0 C 7860.0,2867.0 7846.0,2904.0 7829.0,2940.0 L 7798.0,3005.0 L 7810.0,3130.0 C 7824.0,3271.0 7818.0,3562.0 7797.0,3755.0 L 7784.0,3875.0 L 7816.0,3997.0 C 7834.0,4064.0 7853.0,4126.0 7858.0,4136.0 C 7873.0,4164.0 7840.0,4219.0 7783.0,4261.0 C 7749.0,4287.0 7719.0,4323.0 7679.0,4391.0 C 7606.0,4515.0 7586.0,4573.0 7604.0,4609.0 C 7612.0,4623.0 7636.0,4691.0 7658.0,4760.0 C 7707.0,4913.0 7740.0,4975.0 7780.0,4989.0 L 7810.0,4999.0 L 7791.0,5042.0 C 7781.0,5066.0 7761.0,5110.0 7748.0,5140.0 L 7723.0,5195.0 L 7750.0,5277.0 C 7765.0,5322.0 7784.0,5370.0 7793.0,5384.0 C 7803.0,5398.0 7810.0,5429.0 7810.0,5455.0 C 7810.0,5497.0 7812.0,5500.0 7833.0,5495.0 C 7870.0,5485.0 7890.0,5511.0 7915.0,5599.0 L 7940.0,5684.0 L 7915.0,5738.0 C 7901.0,5768.0 7890.0,5806.0 7890.0,5822.0 C 7890.0,5838.0 7883.0,5865.0 7874.0,5882.0 C 7855.0,5918.0 7862.0,5967.0 7890.0,6003.0 C 7918.0,6038.0 7916.0,6096.0 7885.0,6155.0 C 7861.0,6199.0 7859.0,6212.0 7861.0,6309.0 C 7863.0,6368.0 7861.0,6420.0 7858.0,6426.0 C 7854.0,6431.0 7847.0,6471.0 7841.0,6514.0 C 7831.0,6587.0 7823.0,6604.0 7756.0,6714.0 C 7715.0,6781.0 7630.0,6939.0 7567.0,7065.0 C 7504.0,7192.0 7425.0,7346.0 7391.0,7409.0 C 7358.0,7471.0 7323.0,7546.0 7314.0,7574.0 C 7288.0,7652.0 7248.0,7703.0 7147.0,7784.0 C 7096.0,7824.0 7042.0,7872.0 7025.0,7889.0 C 7009.0,7907.0 6943.0,7948.0 6880.0,7981.0 C 6782.0,8032.0 6742.0,8061.0 6615.0,8173.0 C 6531.0,8248.0 6440.0,8339.0 6405.0,8383.0 C 6369.0,8430.0 6327.0,8471.0 6300.0,8487.0 C 6275.0,8501.0 6223.0,8542.0 6184.0,8576.0 C 6120.0,8633.0 6110.0,8647.0 6087.0,8712.0 C 6073.0,8752.0 6056.0,8812.0 6050.0,8845.0 C 6034.0,8930.0 6019.0,8966.0 5961.0,9050.0 C 5894.0,9147.0 5815.0,9196.0 5712.0,9206.0 C 5646.0,9212.0 5526.0,9244.0 5503.0,9262.0 C 5497.0,9267.0 5488.0,9285.0 5485.0,9301.0 C 5481.0,9317.0 5475.0,9330.0 5470.0,9330.0 C 5457.0,9330.0 5380.0,9246.0 5380.0,9232.0 C 5380.0,9225.0 5387.0,9190.0 5396.0,9155.0 L 5412.0,9091.0 L 5363.0,9031.0 C 5337.0,8998.0 5293.0,8955.0 5267.0,8934.0 C 5241.0,8914.0 5220.0,8893.0 5220.0,8887.0 C 5220.0,8881.0 5193.0,8842.0 5160.0,8799.0 C 5092.0,8712.0 5086.0,8681.0 5125.0,8640.0 L 5149.0,8614.0 L 5130.0,8582.0 C 5118.0,8563.0 5102.0,8550.0 5090.0,8550.0 C 5057.0,8550.0 4923.0,8414.0 4915.0,8374.0 C 4906.0,8324.0 4881.0,8331.0 4840.0,8395.0 C 4811.0,8441.0 4800.0,8450.0 4776.0,8450.0 C 4760.0,8450.0 4732.0,8441.0 4713.0,8429.0 L 4680.0,8408.0 L 4682.0,8437.0 C 4683.0,8456.0 4672.0,8484.0 4648.0,8520.0 C 4628.0,8550.0 4604.0,8594.0 4595.0,8618.0 C 4584.0,8646.0 4572.0,8660.0 4560.0,8660.0 C 4548.0,8660.0 4537.0,8672.0 4530.0,8693.0 C 4524.0,8710.0 4504.0,8742.0 4486.0,8763.0 C 4454.0,8799.0 4451.0,8800.0 4438.0,8782.0 C 4431.0,8772.0 4391.0,8741.0 4350.0,8715.0 C 4280.0,8670.0 4271.0,8667.0 4193.0,8662.0 L 4110.0,8657.0 L 4085.0,8614.0 C 4059.0,8570.0 4011.0,8544.0 3945.0,8538.0 C 3924.0,8536.0 3908.0,8524.0 3886.0,8493.0 C 3858.0,8453.0 3857.0,8449.0 3869.0,8409.0 C 3885.0,8355.0 3871.0,8320.0 3821.0,8292.0 C 3800.0,8280.0 3758.0,8250.0 3728.0,8225.0 C 3663.0,8172.0 3630.0,8166.0 3630.0,8208.0 C 3630.0,8249.0 3578.0,8351.0 3539.0,8385.0 C 3520.0,8402.0 3486.0,8423.0 3464.0,8433.0 C 3408.0,8458.0 3391.0,8490.0 3414.0,8525.0 C 3425.0,8542.0 3429.0,8561.0 3425.0,8579.0 C 3422.0,8595.0 3424.0,8627.0 3430.0,8652.0 C 3440.0,8689.0 3447.0,8699.0 3474.0,8708.0 C 3492.0,8715.0 3518.0,8720.0 3532.0,8720.0 C 3548.0,8720.0 3561.0,8728.0 3568.0,8743.0 C 3575.0,8755.0 3589.0,8777.0 3600.0,8791.0 C 3621.0,8816.0 3621.0,8817.0 3604.0,8878.0 L 3587.0,8940.0 L 3613.0,8993.0 C 3628.0,9022.0 3640.0,9051.0 3640.0,9057.0 C 3640.0,9075.0 3606.0,9090.0 3567.0,9090.0 C 3519.0,9090.0 3501.0,9113.0 3522.0,9148.0 C 3531.0,9163.0 3548.0,9180.0 3561.0,9187.0 C 3593.0,9204.0 3611.0,9242.0 3604.0,9280.0 C 3594.0,9328.0 3569.0,9339.0 3485.0,9333.0 C 3419.0,9328.0 3410.0,9329.0 3374.0,9354.0 L 3335.0,9381.0 L 3302.0,9345.0 C 3273.0,9313.0 3265.0,9310.0 3237.0,9316.0 C 3219.0,9319.0 3199.0,9327.0 3192.0,9333.0 C 3183.0,9340.0 3171.0,9339.0 3153.0,9331.0 C 3118.0,9315.0 3108.0,9328.0 3121.0,9374.0 C 3135.0,9423.0 3127.0,9451.0 3088.0,9495.0 C 3059.0,9529.0 3058.0,9534.0 3063.0,9590.0 C 3071.0,9665.0 3059.0,9700.0 3026.0,9700.0 C 2996.0,9700.0 2980.0,9725.0 2980.0,9774.0 C 2980.0,9823.0 2962.0,9821.0 2888.0,9765.0 C 2822.0,9715.0 2792.0,9710.0 2750.0,9740.0 C 2699.0,9777.0 2630.0,9800.0 2574.0,9800.0 C 2522.0,9800.0 2519.0,9801.0 2514.0,9829.0 C 2507.0,9861.0 2489.0,9870.0 2423.0,9870.0 C 2369.0,9870.0 2335.0,9884.0 2290.0,9923.0 C 2270.0,9941.0 2239.0,9963.0 2221.0,9973.0 C 2196.0,9986.0 2190.0,9994.0 2196.0,10008.0 C 2217.0,10055.0 2211.0,10105.0 2177.0,10165.0 C 2141.0,10228.0 2122.0,10240.0 2085.0,10220.0 C 2066.0,10210.0 2053.0,10211.0 2014.0,10224.0 C 1957.0,10243.0 1960.0,10243.0 1955.0,10228.0" fill="pink"/>
	<path d="M 1247.0,9805.0 C 1239.0,9798.0 1229.0,9775.0 1226.0,9755.0 C 1219.0,9721.0 1218.0,9720.0 1172.0,9720.0 C 1146.0,9720.0 1100.0,9726.0 1070.0,9734.0 C 1040.0,9741.0 996.0,9750.0 973.0,9753.0 L 930.0,9758.0 L 930.0,9709.0 C 930.0,9662.0 932.0,9660.0 970.0,9640.0 C 991.0,9629.0 1018.0,9620.0 1030.0,9620.0 C 1045.0,9620.0 1050.0,9613.0 1052.0,9593.0 C 1053.0,9577.0 1055.0,9540.0 1057.0,9510.0 C 1060.0,9445.0 1065.0,9365.0 1068.0,9330.0 L 1071.0,9305.0 L 1090.0,9329.0 C 1103.0,9344.0 1110.0,9367.0 1110.0,9395.0 C 1110.0,9433.0 1114.0,9440.0 1150.0,9464.0 C 1172.0,9478.0 1197.0,9501.0 1206.0,9515.0 C 1227.0,9547.0 1257.0,9547.0 1291.0,9514.0 C 1316.0,9490.0 1322.0,9488.0 1379.0,9495.0 C 1413.0,9499.0 1440.0,9504.0 1440.0,9506.0 C 1440.0,9509.0 1431.0,9528.0 1420.0,9550.0 C 1398.0,9594.0 1395.0,9637.0 1411.0,9674.0 C 1417.0,9687.0 1420.0,9710.0 1416.0,9724.0 C 1411.0,9745.0 1403.0,9749.0 1367.0,9752.0 C 1328.0,9755.0 1325.0,9757.0 1322.0,9788.0 C 1319.0,9816.0 1315.0,9820.0 1290.0,9820.0 C 1274.0,9820.0 1255.0,9813.0 1247.0,9805.0" fill="pink"/>
	<path d="M 1238.0,9448.0 C 1200.0,9426.0 1180.0,9379.0 1180.0,9311.0 C 1180.0,9285.0 1184.0,9280.0 1205.0,9280.0 C 1225.0,9280.0 1235.0,9291.0 1260.0,9340.0 C 1287.0,9394.0 1301.0,9470.0 1283.0,9470.0 C 1278.0,9470.0 1258.0,9460.0 1238.0,9448.0" fill="pink"/>
</svg>
