<?xml version="1.0" ?>
<svg xmlns="http://www.w3.org/2000/svg" xmlns:ev="http://www.w3.org/2001/xml-events" xmlns:xlink="http://www.w3.org/1999/xlink" baseProfile="full" height="600px" version="1.1" viewBox="1216.845106853743 -1027.986487427321 7813.545665826796 12284.694242788184" width="382px">
	<defs/>
	<path d="M 8231.0,10198.0 C 8210.0,10174.0 8189.0,10160.0 8174.0,10160.0 C 8137.0,10160.0 8088.0,10136.0 8062.0,10106.0 C 8038.0,10077.0 7952.0,10022.0 7905.0,10004.0 C 7746.0,9943.0 7706.0,9930.0 7686.0,9930.0 C 7674.0,9930.0 7653.0,9919.0 7640.0,9905.0 C 7627.0,9892.0 7594.0,9868.0 7566.0,9853.0 C 7519.0,9827.0 7506.0,9825.0 7399.0,9825.0 C 7289.0,9825.0 7281.0,9823.0 7243.0,9797.0 C 7222.0,9782.0 7192.0,9770.0 7176.0,9770.0 C 7139.0,9770.0 7098.0,9747.0 7066.0,9709.0 C 7028.0,9664.0 6982.0,9666.0 6936.0,9715.0 C 6895.0,9759.0 6857.0,9770.0 6740.0,9775.0 C 6638.0,9779.0 6627.0,9773.0 6590.0,9690.0 C 6566.0,9635.0 6556.0,9624.0 6504.0,9594.0 C 6448.0,9562.0 6440.0,9560.0 6355.0,9562.0 C 6296.0,9562.0 6257.0,9568.0 6241.0,9577.0 C 6226.0,9587.0 6206.0,9590.0 6184.0,9585.0 C 6165.0,9582.0 6141.0,9584.0 6130.0,9590.0 C 6115.0,9598.0 6105.0,9598.0 6096.0,9591.0 C 6083.0,9580.0 6047.0,9582.0 6010.0,9598.0 C 5988.0,9607.0 5981.0,9604.0 5953.0,9574.0 C 5899.0,9516.0 5817.0,9492.0 5789.0,9526.0 C 5778.0,9540.0 5762.0,9541.0 5683.0,9535.0 L 5590.0,9528.0 L 5590.0,9553.0 C 5590.0,9588.0 5573.0,9630.0 5559.0,9630.0 C 5552.0,9630.0 5538.0,9638.0 5528.0,9647.0 C 5517.0,9657.0 5497.0,9665.0 5482.0,9666.0 C 5464.0,9667.0 5456.0,9672.0 5458.0,9682.0 C 5461.0,9703.0 5442.0,9716.0 5398.0,9724.0 C 5367.0,9730.0 5359.0,9727.0 5350.0,9710.0 C 5344.0,9699.0 5329.0,9688.0 5317.0,9685.0 C 5304.0,9681.0 5290.0,9669.0 5285.0,9657.0 C 5268.0,9619.0 5224.0,9605.0 5160.0,9618.0 C 5129.0,9625.0 5043.0,9630.0 4968.0,9630.0 L 4832.0,9630.0 L 4825.0,9563.0 C 4818.0,9484.0 4801.0,9411.0 4787.0,9392.0 C 4781.0,9384.0 4774.0,9360.0 4771.0,9337.0 C 4767.0,9309.0 4758.0,9292.0 4745.0,9285.0 C 4734.0,9280.0 4715.0,9266.0 4704.0,9255.0 C 4693.0,9244.0 4675.0,9230.0 4665.0,9225.0 C 4650.0,9216.0 4649.0,9211.0 4659.0,9192.0 C 4667.0,9176.0 4668.0,9164.0 4660.0,9151.0 C 4655.0,9140.0 4650.0,9118.0 4650.0,9103.0 C 4650.0,9087.0 4645.0,9069.0 4639.0,9063.0 C 4630.0,9054.0 4634.0,9043.0 4654.0,9020.0 C 4668.0,9003.0 4680.0,8980.0 4680.0,8970.0 C 4680.0,8959.0 4685.0,8940.0 4692.0,8926.0 C 4701.0,8905.0 4699.0,8885.0 4681.0,8820.0 C 4662.0,8748.0 4661.0,8737.0 4674.0,8706.0 C 4684.0,8681.0 4687.0,8649.0 4683.0,8590.0 C 4678.0,8518.0 4679.0,8506.0 4699.0,8480.0 C 4710.0,8464.0 4720.0,8442.0 4720.0,8430.0 C 4720.0,8419.0 4793.0,8317.0 4882.0,8203.0 C 4971.0,8088.0 5057.0,7971.0 5073.0,7941.0 C 5088.0,7911.0 5141.0,7835.0 5191.0,7772.0 L 5280.0,7656.0 L 5280.0,7593.0 C 5280.0,7557.0 5285.0,7520.0 5290.0,7510.0 C 5298.0,7495.0 5293.0,7476.0 5267.0,7423.0 L 5233.0,7355.0 L 5247.0,7290.0 C 5264.0,7213.0 5258.0,7104.0 5234.0,7040.0 C 5223.0,7011.0 5216.0,6959.0 5214.0,6895.0 L 5212.0,6795.0 L 5155.0,6766.0 C 5107.0,6741.0 5086.0,6736.0 5019.0,6735.0 C 4976.0,6734.0 4936.0,6730.0 4932.0,6724.0 C 4918.0,6709.0 4902.0,6660.0 4885.0,6578.0 C 4875.0,6531.0 4863.0,6500.0 4856.0,6500.0 C 4849.0,6500.0 4836.0,6492.0 4828.0,6483.0 C 4809.0,6461.0 4818.0,6431.0 4853.0,6403.0 C 4885.0,6379.0 4896.0,6324.0 4880.0,6275.0 C 4872.0,6250.0 4871.0,6235.0 4879.0,6227.0 C 4885.0,6219.0 4885.0,6209.0 4880.0,6200.0 C 4874.0,6192.0 4870.0,6170.0 4870.0,6153.0 C 4870.0,6117.0 4857.0,6113.0 4792.0,6126.0 C 4768.0,6131.0 4761.0,6139.0 4756.0,6163.0 C 4751.0,6189.0 4755.0,6199.0 4785.0,6230.0 C 4804.0,6250.0 4820.0,6271.0 4820.0,6278.0 C 4820.0,6293.0 4774.0,6323.0 4761.0,6316.0 C 4747.0,6307.0 4720.0,6320.0 4720.0,6336.0 C 4720.0,6344.0 4709.0,6355.0 4696.0,6360.0 C 4669.0,6370.0 4640.0,6406.0 4640.0,6430.0 C 4640.0,6438.0 4608.0,6477.0 4570.0,6517.0 C 4531.0,6557.0 4500.0,6596.0 4500.0,6603.0 C 4500.0,6622.0 4470.0,6648.0 4433.0,6661.0 C 4407.0,6670.0 4400.0,6679.0 4390.0,6720.0 C 4380.0,6761.0 4381.0,6772.0 4394.0,6793.0 C 4415.0,6824.0 4409.0,6838.0 4355.0,6879.0 C 4318.0,6906.0 4310.0,6918.0 4310.0,6944.0 C 4310.0,6970.0 4317.0,6979.0 4351.0,6998.0 C 4400.0,7026.0 4436.0,7095.0 4426.0,7142.0 C 4420.0,7175.0 4433.0,7208.0 4462.0,7228.0 C 4472.0,7235.0 4480.0,7247.0 4480.0,7254.0 C 4480.0,7261.0 4489.0,7275.0 4501.0,7286.0 C 4517.0,7301.0 4521.0,7313.0 4517.0,7345.0 C 4515.0,7367.0 4517.0,7411.0 4523.0,7443.0 C 4529.0,7481.0 4529.0,7504.0 4522.0,7513.0 C 4513.0,7524.0 4508.0,7577.0 4508.0,7681.0 C 4508.0,7723.0 4503.0,7732.0 4446.0,7795.0 C 4385.0,7862.0 4382.0,7864.0 4356.0,7852.0 C 4341.0,7846.0 4310.0,7840.0 4286.0,7840.0 C 4260.0,7840.0 4238.0,7834.0 4230.0,7825.0 C 4222.0,7815.0 4213.0,7813.0 4201.0,7819.0 C 4182.0,7830.0 4118.0,7810.0 4091.0,7786.0 C 4074.0,7771.0 4072.0,7771.0 4067.0,7785.0 C 4056.0,7812.0 4024.0,7803.0 4014.0,7768.0 C 4003.0,7729.0 3984.0,7721.0 3975.0,7752.0 C 3971.0,7765.0 3949.0,7795.0 3925.0,7820.0 C 3902.0,7845.0 3875.0,7888.0 3865.0,7915.0 C 3855.0,7943.0 3834.0,7980.0 3818.0,7998.0 C 3803.0,8016.0 3790.0,8041.0 3790.0,8054.0 C 3790.0,8067.0 3781.0,8085.0 3770.0,8095.0 C 3749.0,8114.0 3704.0,8111.0 3646.0,8084.0 C 3629.0,8077.0 3457.0,8030.0 3263.0,7980.0 C 2987.0,7909.0 2900.0,7883.0 2863.0,7860.0 C 2837.0,7843.0 2805.0,7830.0 2791.0,7830.0 C 2762.0,7830.0 2740.0,7819.0 2683.0,7778.0 C 2651.0,7755.0 2612.0,7744.0 2450.0,7714.0 C 2256.0,7678.0 2254.0,7677.0 2068.0,7593.0 C 1885.0,7510.0 1880.0,7507.0 1874.0,7474.0 C 1867.0,7434.0 1880.0,7396.0 1928.0,7324.0 C 1955.0,7282.0 1960.0,7266.0 1955.0,7239.0 C 1952.0,7220.0 1949.0,7196.0 1950.0,7185.0 C 1951.0,7174.0 1954.0,7104.0 1958.0,7030.0 L 1965.0,6895.0 L 2101.0,6892.0 C 2220.0,6890.0 2240.0,6887.0 2254.0,6871.0 C 2271.0,6852.0 2272.0,6852.0 2307.0,6876.0 C 2332.0,6893.0 2357.0,6900.0 2390.0,6900.0 C 2433.0,6900.0 2442.0,6896.0 2492.0,6847.0 C 2539.0,6802.0 2557.0,6792.0 2619.0,6776.0 C 2675.0,6761.0 2704.0,6747.0 2743.0,6713.0 C 2772.0,6689.0 2798.0,6660.0 2802.0,6649.0 C 2814.0,6618.0 2886.0,6593.0 2985.0,6585.0 C 3062.0,6580.0 3090.0,6572.0 3178.0,6533.0 L 3280.0,6487.0 L 3280.0,6450.0 C 3280.0,6413.0 3281.0,6413.0 3326.0,6406.0 C 3352.0,6403.0 3388.0,6400.0 3406.0,6400.0 C 3425.0,6400.0 3440.0,6398.0 3440.0,6395.0 C 3440.0,6376.0 3382.0,6279.0 3368.0,6274.0 C 3350.0,6269.0 3350.0,6267.0 3370.0,6235.0 C 3381.0,6217.0 3397.0,6165.0 3405.0,6121.0 C 3413.0,6077.0 3424.0,6031.0 3430.0,6019.0 C 3439.0,6003.0 3438.0,5995.0 3427.0,5982.0 C 3397.0,5945.0 3388.0,5906.0 3404.0,5870.0 C 3421.0,5827.0 3406.0,5722.0 3379.0,5703.0 C 3366.0,5694.0 3364.0,5680.0 3367.0,5648.0 C 3370.0,5624.0 3367.0,5594.0 3362.0,5580.0 C 3355.0,5561.0 3357.0,5543.0 3371.0,5507.0 C 3382.0,5481.0 3390.0,5449.0 3390.0,5437.0 C 3390.0,5425.0 3397.0,5402.0 3405.0,5387.0 C 3418.0,5361.0 3418.0,5356.0 3405.0,5337.0 C 3397.0,5325.0 3390.0,5307.0 3390.0,5297.0 C 3390.0,5287.0 3385.0,5282.0 3379.0,5285.0 C 3366.0,5294.0 3313.0,5272.0 3306.0,5255.0 C 3304.0,5248.0 3313.0,5220.0 3327.0,5193.0 C 3353.0,5145.0 3353.0,5144.0 3335.0,5117.0 C 3322.0,5097.0 3310.0,5090.0 3284.0,5090.0 C 3235.0,5090.0 3198.0,5071.0 3202.0,5046.0 C 3204.0,5034.0 3198.0,5020.0 3190.0,5013.0 C 3166.0,4994.0 3191.0,4964.0 3229.0,4968.0 C 3256.0,4970.0 3260.0,4967.0 3260.0,4946.0 C 3260.0,4932.0 3264.0,4919.0 3270.0,4915.0 C 3275.0,4912.0 3276.0,4900.0 3271.0,4887.0 C 3266.0,4875.0 3259.0,4842.0 3255.0,4813.0 C 3251.0,4783.0 3241.0,4755.0 3230.0,4745.0 C 3220.0,4736.0 3208.0,4714.0 3205.0,4698.0 C 3199.0,4674.0 3203.0,4663.0 3225.0,4640.0 C 3247.0,4617.0 3250.0,4606.0 3245.0,4579.0 C 3240.0,4547.0 3242.0,4543.0 3294.0,4508.0 C 3348.0,4471.0 3348.0,4470.0 3339.0,4433.0 C 3335.0,4412.0 3328.0,4374.0 3325.0,4348.0 C 3321.0,4316.0 3313.0,4299.0 3302.0,4295.0 C 3263.0,4282.0 3218.0,4233.0 3214.0,4200.0 C 3212.0,4181.0 3206.0,4164.0 3202.0,4161.0 C 3197.0,4158.0 3168.0,4121.0 3137.0,4078.0 C 3096.0,4023.0 3073.0,4000.0 3052.0,3995.0 C 3036.0,3992.0 3011.0,3976.0 2996.0,3961.0 L 2969.0,3933.0 L 2980.0,3851.0 L 2991.0,3770.0 L 2940.0,3708.0 C 2913.0,3673.0 2890.0,3639.0 2890.0,3632.0 C 2890.0,3625.0 2901.0,3597.0 2915.0,3570.0 C 2939.0,3522.0 2940.0,3520.0 2920.0,3520.0 C 2908.0,3520.0 2829.0,3453.0 2718.0,3348.0 C 2617.0,3253.0 2451.0,3097.0 2347.0,3001.0 C 2131.0,2801.0 2150.0,2847.0 2175.0,2600.0 C 2192.0,2428.0 2194.0,2289.0 2180.0,2238.0 C 2170.0,2204.0 2173.0,2192.0 2203.0,2127.0 C 2228.0,2073.0 2239.0,2032.0 2245.0,1974.0 C 2252.0,1897.0 2253.0,1894.0 2296.0,1855.0 L 2340.0,1814.0 L 2340.0,1732.0 C 2340.0,1673.0 2345.0,1640.0 2357.0,1617.0 C 2378.0,1577.0 2376.0,1508.0 2350.0,1310.0 C 2339.0,1230.0 2321.0,1084.0 2310.0,985.0 C 2298.0,886.0 2280.0,781.0 2269.0,750.0 C 2243.0,676.0 2251.0,619.0 2293.0,584.0 L 2323.0,559.0 L 2315.0,472.0 C 2306.0,374.0 2306.0,336.0 2317.0,161.0 C 2327.0,4.0 2316.0,11.0 2551.0,4.0 L 2707.0,0.0 L 2739.0,70.0 C 2757.0,111.0 2770.0,157.0 2770.0,181.0 C 2770.0,245.0 2808.0,450.0 2830.0,502.0 C 2855.0,560.0 2855.0,560.0 2830.0,560.0 C 2804.0,560.0 2776.0,515.0 2777.0,474.0 C 2778.0,432.0 2770.0,431.0 2748.0,470.0 C 2737.0,489.0 2720.0,503.0 2701.0,506.0 C 2677.0,511.0 2671.0,518.0 2666.0,552.0 C 2662.0,574.0 2653.0,602.0 2644.0,615.0 C 2630.0,637.0 2631.0,640.0 2664.0,673.0 C 2688.0,697.0 2697.0,714.0 2693.0,728.0 C 2690.0,739.0 2692.0,756.0 2698.0,766.0 C 2707.0,781.0 2709.0,780.0 2723.0,754.0 L 2738.0,725.0 L 2745.0,755.0 C 2768.0,866.0 2787.0,891.0 2892.0,954.0 C 3016.0,1026.0 3331.0,1153.0 3540.0,1214.0 C 3888.0,1316.0 4127.0,1396.0 4205.0,1438.0 C 4261.0,1468.0 4285.0,1489.0 4330.0,1547.0 C 4360.0,1586.0 4397.0,1628.0 4413.0,1640.0 C 4452.0,1671.0 4500.0,1744.0 4500.0,1775.0 C 4500.0,1790.0 4512.0,1821.0 4526.0,1845.0 C 4543.0,1874.0 4550.0,1900.0 4548.0,1922.0 C 4544.0,1963.0 4515.0,1973.0 4506.0,1936.0 C 4498.0,1905.0 4483.0,1902.0 4478.0,1930.0 C 4473.0,1965.0 4456.0,1957.0 4448.0,1915.0 C 4437.0,1859.0 4432.0,1848.0 4421.0,1854.0 C 4416.0,1858.0 4418.0,1882.0 4427.0,1913.0 C 4435.0,1941.0 4445.0,1981.0 4450.0,2000.0 C 4455.0,2025.0 4458.0,2028.0 4459.0,2012.0 C 4461.0,1967.0 4480.0,2002.0 4480.0,2051.0 C 4480.0,2087.0 4490.0,2125.0 4515.0,2181.0 C 4536.0,2230.0 4550.0,2277.0 4550.0,2302.0 C 4550.0,2334.0 4560.0,2356.0 4595.0,2407.0 C 4646.0,2479.0 4653.0,2496.0 4629.0,2492.0 C 4606.0,2489.0 4600.0,2518.0 4600.0,2626.0 C 4600.0,2685.0 4605.0,2730.0 4615.0,2754.0 C 4623.0,2774.0 4633.0,2823.0 4636.0,2863.0 C 4641.0,2922.0 4639.0,2943.0 4625.0,2970.0 L 4607.0,3004.0 L 4579.0,2972.0 C 4531.0,2918.0 4523.0,2927.0 4524.0,3038.0 C 4524.0,3091.0 4523.0,3155.0 4521.0,3180.0 C 4520.0,3205.0 4521.0,3242.0 4525.0,3262.0 C 4531.0,3292.0 4527.0,3309.0 4505.0,3347.0 C 4480.0,3392.0 4479.0,3401.0 4484.0,3485.0 L 4489.0,3575.0 L 4474.0,3527.0 C 4466.0,3501.0 4455.0,3482.0 4449.0,3485.0 C 4436.0,3493.0 4438.0,3520.0 4451.0,3520.0 C 4464.0,3520.0 4453.0,3582.0 4438.0,3591.0 C 4433.0,3594.0 4442.0,3611.0 4459.0,3628.0 C 4496.0,3664.0 4500.0,3685.0 4468.0,3676.0 C 4455.0,3673.0 4427.0,3668.0 4405.0,3665.0 L 4365.0,3659.0 L 4407.0,3677.0 C 4430.0,3687.0 4454.0,3700.0 4459.0,3705.0 C 4474.0,3721.0 4443.0,3871.0 4420.0,3895.0 C 4400.0,3914.0 4400.0,3914.0 4400.0,3893.0 C 4400.0,3881.0 4392.0,3870.0 4380.0,3867.0 C 4364.0,3863.0 4360.0,3867.0 4360.0,3889.0 C 4360.0,3906.0 4349.0,3928.0 4330.0,3946.0 C 4314.0,3962.0 4300.0,3985.0 4300.0,3998.0 C 4300.0,4011.0 4296.0,4019.0 4291.0,4016.0 C 4278.0,4008.0 4268.0,4040.0 4279.0,4054.0 C 4284.0,4060.0 4297.0,4088.0 4308.0,4116.0 C 4327.0,4164.0 4328.0,4168.0 4312.0,4185.0 C 4296.0,4201.0 4297.0,4202.0 4327.0,4195.0 C 4353.0,4190.0 4360.0,4192.0 4360.0,4204.0 C 4360.0,4212.0 4355.0,4222.0 4349.0,4226.0 C 4342.0,4230.0 4341.0,4247.0 4344.0,4269.0 C 4348.0,4289.0 4352.0,4315.0 4354.0,4327.0 C 4355.0,4340.0 4364.0,4358.0 4374.0,4369.0 C 4390.0,4387.0 4390.0,4389.0 4365.0,4418.0 C 4327.0,4463.0 4335.0,4467.0 4381.0,4425.0 C 4418.0,4392.0 4426.0,4389.0 4459.0,4395.0 C 4506.0,4404.0 4613.0,4463.0 4669.0,4512.0 C 4693.0,4533.0 4716.0,4550.0 4721.0,4550.0 C 4725.0,4550.0 4732.0,4559.0 4735.0,4570.0 C 4738.0,4581.0 4747.0,4590.0 4755.0,4590.0 C 4762.0,4590.0 4813.0,4635.0 4867.0,4690.0 C 4921.0,4746.0 4989.0,4807.0 5018.0,4827.0 C 5046.0,4847.0 5070.0,4866.0 5070.0,4870.0 C 5070.0,4874.0 5096.0,4885.0 5128.0,4895.0 C 5159.0,4906.0 5193.0,4923.0 5202.0,4935.0 C 5214.0,4948.0 5220.0,4950.0 5220.0,4941.0 C 5220.0,4931.0 5229.0,4929.0 5255.0,4933.0 C 5294.0,4939.0 5298.0,4935.0 5273.0,4907.0 C 5256.0,4889.0 5256.0,4888.0 5280.0,4891.0 C 5297.0,4894.0 5306.0,4902.0 5308.0,4918.0 C 5312.0,4942.0 5330.0,4949.0 5330.0,4925.0 C 5330.0,4901.0 5344.0,4908.0 5364.0,4940.0 C 5373.0,4957.0 5380.0,4983.0 5379.0,4998.0 C 5376.0,5024.0 5404.0,5080.0 5420.0,5080.0 C 5433.0,5080.0 5730.0,5364.0 5730.0,5376.0 C 5730.0,5379.0 5720.0,5379.0 5708.0,5375.0 C 5685.0,5369.0 5685.0,5369.0 5709.0,5388.0 C 5722.0,5399.0 5740.0,5406.0 5749.0,5403.0 C 5758.0,5401.0 5772.0,5411.0 5782.0,5427.0 C 5864.0,5558.0 5891.0,5595.0 5914.0,5607.0 C 5939.0,5620.0 5943.0,5628.0 5941.0,5660.0 C 5941.0,5670.0 5942.0,5671.0 5946.0,5663.0 C 5953.0,5646.0 5977.0,5646.0 5987.0,5663.0 C 5991.0,5669.0 6022.0,5688.0 6055.0,5704.0 C 6088.0,5720.0 6122.0,5737.0 6130.0,5741.0 C 6138.0,5746.0 6152.0,5753.0 6160.0,5756.0 C 6208.0,5776.0 6280.0,5814.0 6309.0,5835.0 C 6328.0,5849.0 6353.0,5860.0 6365.0,5860.0 C 6377.0,5860.0 6410.0,5867.0 6438.0,5875.0 C 6484.0,5889.0 6490.0,5894.0 6490.0,5918.0 C 6490.0,5956.0 6506.0,5978.0 6513.0,5951.0 C 6519.0,5926.0 6542.0,5924.0 6613.0,5944.0 C 6642.0,5952.0 6677.0,5961.0 6692.0,5964.0 C 6708.0,5968.0 6719.0,5976.0 6717.0,5982.0 C 6716.0,5990.0 6734.0,5995.0 6770.0,5997.0 C 6806.0,5999.0 6829.0,6005.0 6837.0,6015.0 C 6844.0,6026.0 6850.0,6027.0 6855.0,6021.0 C 6864.0,6005.0 6931.0,6008.0 6960.0,6025.0 C 6974.0,6033.0 7003.0,6040.0 7025.0,6040.0 C 7075.0,6040.0 7100.0,6054.0 7083.0,6071.0 C 7073.0,6081.0 7074.0,6088.0 7087.0,6102.0 C 7096.0,6112.0 7107.0,6120.0 7112.0,6120.0 C 7117.0,6120.0 7134.0,6130.0 7150.0,6141.0 C 7173.0,6159.0 7176.0,6166.0 7168.0,6180.0 C 7156.0,6199.0 7165.0,6250.0 7180.0,6250.0 C 7185.0,6250.0 7187.0,6237.0 7184.0,6221.0 C 7181.0,6205.0 7182.0,6190.0 7187.0,6187.0 C 7200.0,6179.0 7330.0,6236.0 7359.0,6263.0 C 7373.0,6276.0 7417.0,6304.0 7455.0,6324.0 C 7540.0,6370.0 7546.0,6375.0 7533.0,6392.0 C 7527.0,6399.0 7520.0,6424.0 7517.0,6448.0 C 7512.0,6487.0 7513.0,6490.0 7536.0,6490.0 C 7550.0,6490.0 7563.0,6497.0 7566.0,6505.0 C 7574.0,6524.0 7585.0,6524.0 7604.0,6505.0 C 7625.0,6484.0 7641.0,6494.0 7673.0,6548.0 C 7688.0,6574.0 7710.0,6610.0 7722.0,6629.0 C 7744.0,6663.0 7735.0,6664.0 7698.0,6632.0 C 7688.0,6624.0 7680.0,6622.0 7680.0,6628.0 C 7680.0,6633.0 7697.0,6651.0 7719.0,6667.0 C 7782.0,6714.0 7891.0,6813.0 7903.0,6836.0 C 7910.0,6848.0 7939.0,6876.0 7968.0,6899.0 C 8004.0,6928.0 8020.0,6948.0 8020.0,6964.0 C 8020.0,6978.0 8030.0,6994.0 8045.0,7004.0 C 8090.0,7033.0 8108.0,7117.0 8077.0,7148.0 C 8067.0,7157.0 8060.0,7159.0 8060.0,7153.0 C 8060.0,7139.0 8034.0,7129.0 8016.0,7136.0 C 8008.0,7139.0 8004.0,7148.0 8007.0,7156.0 C 8013.0,7173.0 8087.0,7206.0 8108.0,7202.0 C 8125.0,7198.0 8123.0,7241.0 8104.0,7268.0 C 8096.0,7280.0 8093.0,7290.0 8098.0,7290.0 C 8104.0,7290.0 8110.0,7284.0 8113.0,7276.0 C 8117.0,7265.0 8180.0,7246.0 8180.0,7256.0 C 8180.0,7274.0 8153.0,7310.0 8139.0,7310.0 C 8104.0,7310.0 8111.0,7328.0 8149.0,7334.0 C 8204.0,7343.0 8229.0,7367.0 8232.0,7415.0 C 8233.0,7437.0 8228.0,7465.0 8222.0,7476.0 C 8213.0,7494.0 8213.0,7500.0 8225.0,7510.0 C 8240.0,7522.0 8246.0,7560.0 8233.0,7560.0 C 8230.0,7560.0 8218.0,7553.0 8208.0,7543.0 C 8197.0,7533.0 8190.0,7531.0 8190.0,7539.0 C 8190.0,7545.0 8201.0,7556.0 8215.0,7562.0 C 8236.0,7571.0 8240.0,7580.0 8238.0,7604.0 C 8234.0,7646.0 8199.0,7652.0 8173.0,7615.0 C 8163.0,7601.0 8147.0,7579.0 8137.0,7567.0 C 8119.0,7545.0 8119.0,7545.0 8126.0,7580.0 C 8130.0,7599.0 8133.0,7626.0 8132.0,7638.0 C 8130.0,7656.0 8138.0,7665.0 8160.0,7673.0 C 8190.0,7684.0 8195.0,7696.0 8190.0,7750.0 C 8187.0,7786.0 8169.0,7792.0 8143.0,7768.0 C 8123.0,7750.0 8120.0,7749.0 8120.0,7763.0 C 8120.0,7772.0 8113.0,7780.0 8105.0,7780.0 C 8083.0,7780.0 8087.0,7807.0 8110.0,7820.0 C 8121.0,7826.0 8129.0,7834.0 8128.0,7838.0 C 8127.0,7842.0 8132.0,7858.0 8139.0,7874.0 C 8147.0,7893.0 8147.0,7907.0 8141.0,7913.0 C 8135.0,7919.0 8137.0,7931.0 8147.0,7946.0 C 8159.0,7965.0 8160.0,7976.0 8152.0,7998.0 C 8146.0,8013.0 8138.0,8057.0 8135.0,8096.0 C 8129.0,8161.0 8130.0,8169.0 8149.0,8182.0 C 8169.0,8196.0 8169.0,8197.0 8135.0,8210.0 C 8116.0,8218.0 8100.0,8225.0 8100.0,8227.0 C 8100.0,8228.0 8114.0,8252.0 8130.0,8278.0 C 8157.0,8323.0 8160.0,8335.0 8160.0,8412.0 C 8160.0,8465.0 8166.0,8511.0 8175.0,8533.0 C 8198.0,8590.0 8195.0,8602.0 8158.0,8598.0 C 8132.0,8596.0 8126.0,8591.0 8128.0,8576.0 C 8130.0,8566.0 8126.0,8554.0 8119.0,8549.0 C 8096.0,8535.0 8080.0,8551.0 8080.0,8591.0 C 8080.0,8631.0 8080.0,8631.0 8135.0,8634.0 C 8146.0,8635.0 8156.0,8643.0 8158.0,8654.0 C 8163.0,8679.0 8182.0,8698.0 8196.0,8693.0 C 8213.0,8687.0 8231.0,8715.0 8224.0,8734.0 C 8220.0,8744.0 8211.0,8749.0 8204.0,8746.0 C 8195.0,8743.0 8190.0,8748.0 8190.0,8759.0 C 8190.0,8769.0 8198.0,8781.0 8207.0,8784.0 C 8220.0,8790.0 8221.0,8793.0 8212.0,8799.0 C 8205.0,8803.0 8198.0,8824.0 8197.0,8844.0 C 8195.0,8879.0 8193.0,8881.0 8169.0,8876.0 C 8148.0,8872.0 8141.0,8875.0 8137.0,8891.0 C 8133.0,8907.0 8140.0,8916.0 8166.0,8932.0 C 8202.0,8953.0 8210.0,8970.0 8185.0,8970.0 C 8175.0,8970.0 8170.0,8980.0 8170.0,9000.0 C 8170.0,9017.0 8163.0,9033.0 8153.0,9039.0 C 8143.0,9044.0 8139.0,9052.0 8143.0,9056.0 C 8148.0,9061.0 8155.0,9058.0 8159.0,9051.0 C 8169.0,9035.0 8176.0,9046.0 8178.0,9080.0 C 8180.0,9105.0 8195.0,9214.0 8207.0,9278.0 C 8210.0,9297.0 8207.0,9322.0 8201.0,9334.0 C 8194.0,9346.0 8190.0,9360.0 8191.0,9366.0 C 8192.0,9371.0 8190.0,9382.0 8186.0,9392.0 C 8182.0,9401.0 8183.0,9423.0 8188.0,9442.0 C 8194.0,9464.0 8193.0,9481.0 8186.0,9492.0 C 8179.0,9504.0 8180.0,9516.0 8189.0,9537.0 C 8220.0,9601.0 8222.0,9609.0 8216.0,9625.0 C 8213.0,9634.0 8206.0,9639.0 8201.0,9635.0 C 8195.0,9632.0 8182.0,9637.0 8170.0,9647.0 C 8149.0,9666.0 8144.0,9680.0 8160.0,9680.0 C 8165.0,9680.0 8180.0,9691.0 8194.0,9705.0 C 8208.0,9719.0 8227.0,9730.0 8236.0,9730.0 C 8248.0,9730.0 8251.0,9736.0 8248.0,9754.0 C 8245.0,9770.0 8251.0,9788.0 8266.0,9807.0 C 8293.0,9839.0 8297.0,9870.0 8274.0,9870.0 C 8263.0,9870.0 8260.0,9878.0 8262.0,9902.0 C 8264.0,9926.0 8274.0,9940.0 8297.0,9955.0 C 8315.0,9966.0 8329.0,9980.0 8330.0,9986.0 C 8330.0,9997.0 8285.0,10015.0 8268.0,10012.0 C 8263.0,10011.0 8260.0,10018.0 8260.0,10028.0 C 8260.0,10050.0 8299.0,10070.0 8343.0,10070.0 L 8375.0,10071.0 L 8347.0,10091.0 C 8328.0,10106.0 8321.0,10118.0 8325.0,10131.0 C 8330.0,10145.0 8326.0,10150.0 8311.0,10150.0 C 8300.0,10150.0 8288.0,10155.0 8285.0,10160.0 C 8282.0,10166.0 8284.0,10170.0 8289.0,10170.0 C 8295.0,10170.0 8300.0,10181.0 8300.0,10195.0 C 8300.0,10210.0 8294.0,10220.0 8286.0,10220.0 C 8278.0,10220.0 8270.0,10223.0 8268.0,10228.0 C 8267.0,10232.0 8250.0,10219.0 8231.0,10198.0" fill="pink"/>
</svg>
