<?xml version="1.0" ?>
<svg xmlns="http://www.w3.org/2000/svg" xmlns:ev="http://www.w3.org/2001/xml-events" xmlns:xlink="http://www.w3.org/1999/xlink" baseProfile="full" height="549px" version="1.1" viewBox="-1028.1143241392328 -500.5701739991164 12296.094563685272 11240.13577668753" width="600px">
	<defs/>
	<path d="M 914.0,9762.0 C 859.0,9741.0 800.0,9714.0 782.0,9702.0 C 740.0,9671.0 613.0,9620.0 582.0,9620.0 C 568.0,9620.0 531.0,9615.0 500.0,9608.0 C 445.0,9597.0 444.0,9597.0 369.0,9638.0 C 326.0,9662.0 281.0,9680.0 264.0,9679.0 C 248.0,9679.0 188.0,9660.0 131.0,9637.0 C 6.0,9587.0 11.0,9596.0 3.0,9400.0 C -2.0,9270.0 -1.0,9257.0 35.0,9090.0 C 71.0,8924.0 75.0,8914.0 105.0,8887.0 C 128.0,8869.0 147.0,8836.0 166.0,8787.0 C 205.0,8684.0 234.0,8626.0 293.0,8538.0 C 335.0,8474.0 351.0,8458.0 387.0,8445.0 C 425.0,8430.0 440.0,8415.0 502.0,8322.0 C 579.0,8208.0 788.0,7849.0 974.0,7512.0 C 1070.0,7339.0 1105.0,7262.0 1189.0,7043.0 C 1286.0,6791.0 1294.0,6775.0 1398.0,6613.0 C 1545.0,6385.0 1704.0,6087.0 1696.0,6055.0 C 1691.0,6035.0 1704.0,6019.0 1778.0,5948.0 C 1849.0,5882.0 1876.0,5848.0 1913.0,5779.0 C 1941.0,5725.0 1978.0,5674.0 2011.0,5643.0 C 2066.0,5590.0 2063.0,5597.0 2090.0,5425.0 C 2095.0,5392.0 2100.0,5330.0 2100.0,5287.0 C 2100.0,5212.0 2099.0,5210.0 2080.0,5220.0 C 2066.0,5228.0 2054.0,5228.0 2040.0,5220.0 C 2014.0,5206.0 2014.0,5173.0 2041.0,4992.0 C 2061.0,4862.0 2061.0,4846.0 2048.0,4811.0 C 2034.0,4777.0 2035.0,4769.0 2052.0,4726.0 C 2062.0,4700.0 2077.0,4635.0 2085.0,4581.0 C 2093.0,4527.0 2102.0,4476.0 2105.0,4469.0 C 2108.0,4461.0 2102.0,4429.0 2091.0,4397.0 C 2071.0,4340.0 2071.0,4340.0 2091.0,4224.0 C 2102.0,4161.0 2124.0,4076.0 2140.0,4036.0 C 2156.0,3995.0 2176.0,3934.0 2185.0,3900.0 C 2194.0,3865.0 2218.0,3812.0 2239.0,3781.0 C 2313.0,3672.0 2327.0,3634.0 2335.0,3519.0 C 2341.0,3429.0 2339.0,3407.0 2325.0,3379.0 C 2310.0,3351.0 2309.0,3337.0 2319.0,3279.0 C 2325.0,3242.0 2330.0,3153.0 2330.0,3083.0 L 2330.0,2954.0 L 2370.0,2871.0 C 2412.0,2783.0 2422.0,2730.0 2394.0,2730.0 C 2381.0,2730.0 2379.0,2722.0 2385.0,2688.0 C 2402.0,2576.0 2400.0,2580.0 2452.0,2548.0 C 2495.0,2521.0 2507.0,2506.0 2550.0,2419.0 C 2578.0,2365.0 2600.0,2318.0 2600.0,2316.0 C 2600.0,2313.0 2588.0,2310.0 2573.0,2308.0 C 2546.0,2305.0 2545.0,2302.0 2542.0,2247.0 C 2539.0,2197.0 2543.0,2183.0 2564.0,2156.0 C 2583.0,2131.0 2592.0,2102.0 2600.0,2034.0 C 2619.0,1893.0 2662.0,1784.0 2762.0,1624.0 C 2825.0,1522.0 2850.0,1473.0 2850.0,1450.0 C 2850.0,1425.0 2863.0,1403.0 2909.0,1351.0 C 2942.0,1314.0 2972.0,1270.0 2977.0,1253.0 C 2982.0,1232.0 3010.0,1198.0 3060.0,1154.0 C 3177.0,1048.0 3490.0,718.0 3504.0,685.0 L 3517.0,655.0 L 3552.0,693.0 C 3585.0,729.0 3590.0,731.0 3666.0,737.0 C 3779.0,745.0 3786.0,752.0 3810.0,885.0 C 3816.0,917.0 3827.0,940.0 3840.0,949.0 C 3851.0,956.0 3860.0,970.0 3860.0,979.0 C 3860.0,988.0 3869.0,1014.0 3879.0,1036.0 C 3894.0,1068.0 3906.0,1081.0 3935.0,1090.0 C 3991.0,1109.0 4017.0,1097.0 4031.0,1047.0 C 4046.0,990.0 4051.0,986.0 4119.0,965.0 C 4197.0,942.0 4208.0,920.0 4169.0,863.0 C 4134.0,812.0 4132.0,781.0 4165.0,750.0 C 4180.0,736.0 4194.0,706.0 4201.0,674.0 C 4215.0,614.0 4226.0,609.0 4302.0,632.0 C 4339.0,643.0 4342.0,642.0 4373.0,612.0 C 4401.0,585.0 4417.0,579.0 4478.0,571.0 C 4550.0,562.0 4561.0,557.0 4610.0,514.0 C 4639.0,489.0 4684.0,482.0 4837.0,478.0 C 4941.0,476.0 4951.0,477.0 4973.0,498.0 C 4988.0,512.0 5009.0,520.0 5031.0,520.0 C 5050.0,520.0 5089.0,527.0 5119.0,535.0 C 5190.0,553.0 5257.0,542.0 5282.0,507.0 C 5337.0,432.0 5332.0,434.0 5397.0,448.0 C 5430.0,454.0 5470.0,460.0 5486.0,460.0 C 5529.0,460.0 5540.0,476.0 5533.0,526.0 C 5525.0,586.0 5539.0,600.0 5606.0,600.0 C 5656.0,600.0 5660.0,602.0 5676.0,632.0 C 5711.0,702.0 5763.0,760.0 5790.0,760.0 C 5851.0,760.0 6035.0,824.0 6060.0,855.0 C 6071.0,868.0 6104.0,1792.0 6150.0,3390.0 C 6167.0,3970.0 6189.0,4738.0 6200.0,5095.0 C 6211.0,5453.0 6220.0,5771.0 6220.0,5803.0 L 6220.0,5862.0 L 6588.0,5859.0 C 6946.0,5856.0 6955.0,5856.0 6957.0,5875.0 C 6969.0,5978.0 7070.0,8454.0 7070.0,8633.0 L 7070.0,8658.0 L 7243.0,8665.0 C 7395.0,8671.0 7447.0,8678.0 7685.0,8726.0 C 8028.0,8796.0 8861.0,8952.0 8866.0,8948.0 C 8867.0,8946.0 8878.0,8907.0 8890.0,8860.0 C 8903.0,8808.0 8925.0,8754.0 8946.0,8723.0 C 8975.0,8678.0 8980.0,8662.0 8980.0,8612.0 C 8980.0,8566.0 8984.0,8549.0 8999.0,8536.0 C 9029.0,8509.0 9077.0,8523.0 9097.0,8565.0 C 9109.0,8591.0 9127.0,8604.0 9175.0,8625.0 C 9228.0,8647.0 9240.0,8657.0 9256.0,8692.0 C 9299.0,8788.0 9323.0,8813.0 9446.0,8891.0 L 9565.0,8966.0 L 9697.0,8978.0 C 9785.0,8986.0 9846.0,8997.0 9882.0,9011.0 C 9919.0,9026.0 9970.0,9035.0 10052.0,9040.0 C 10161.0,9047.0 10172.0,9050.0 10204.0,9076.0 C 10223.0,9092.0 10239.0,9108.0 10239.0,9112.0 C 10240.0,9115.0 10222.0,9141.0 10201.0,9168.0 C 10164.0,9214.0 10154.0,9220.0 10065.0,9250.0 C 9977.0,9279.0 9963.0,9281.0 9888.0,9275.0 C 9812.0,9268.0 9802.0,9270.0 9675.0,9310.0 L 9542.0,9353.0 L 9289.0,9297.0 C 9149.0,9266.0 8977.0,9230.0 8905.0,9216.0 C 8834.0,9202.0 8631.0,9159.0 8455.0,9121.0 C 8090.0,9040.0 7475.0,8920.0 7426.0,8920.0 C 7407.0,8920.0 7373.0,8928.0 7349.0,8937.0 C 7312.0,8952.0 7273.0,8954.0 7115.0,8954.0 C 7011.0,8953.0 6897.0,8948.0 6863.0,8942.0 C 6803.0,8932.0 6798.0,8933.0 6713.0,8967.0 C 6585.0,9019.0 6536.0,9030.0 6429.0,9030.0 C 6336.0,9030.0 5784.0,9076.0 5770.0,9085.0 C 5766.0,9087.0 5717.0,9094.0 5660.0,9099.0 C 5506.0,9114.0 5479.0,9130.0 5279.0,9332.0 L 5113.0,9500.0 L 3514.0,9500.0 L 1914.0,9500.0 L 1880.0,9475.0 C 1817.0,9428.0 1698.0,9447.0 1612.0,9517.0 C 1574.0,9548.0 1550.0,9560.0 1527.0,9560.0 C 1487.0,9560.0 1479.0,9566.0 1448.0,9615.0 C 1434.0,9637.0 1398.0,9682.0 1367.0,9715.0 L 1312.0,9775.0 L 1230.0,9773.0 C 1174.0,9772.0 1138.0,9776.0 1119.0,9786.0 C 1075.0,9808.0 1023.0,9802.0 914.0,9762.0" fill="pink"/>
</svg>
