<?xml version="1.0" ?>
<svg xmlns="http://www.w3.org/2000/svg" xmlns:ev="http://www.w3.org/2001/xml-events" xmlns:xlink="http://www.w3.org/1999/xlink" baseProfile="full" height="554px" version="1.1" viewBox="-1030.7015884031152 -554.4777912850047 12302.148666671643 11348.810807401109" width="600px">
	<defs/>
	<path d="M 1197.0,9827.0 C 1169.0,9810.0 1162.0,9809.0 1140.0,9821.0 C 1118.0,9834.0 1107.0,9834.0 1059.0,9820.0 C 1028.0,9812.0 996.0,9799.0 987.0,9792.0 C 977.0,9783.0 960.0,9781.0 941.0,9785.0 C 920.0,9789.0 901.0,9786.0 881.0,9774.0 C 857.0,9760.0 846.0,9759.0 828.0,9767.0 C 799.0,9780.0 733.0,9797.0 653.0,9812.0 C 603.0,9822.0 586.0,9821.0 567.0,9811.0 L 542.0,9798.0 L 612.0,9731.0 C 651.0,9695.0 689.0,9664.0 696.0,9662.0 C 714.0,9658.0 714.0,9650.0 695.0,9623.0 C 681.0,9603.0 682.0,9598.0 705.0,9564.0 C 719.0,9543.0 728.0,9519.0 725.0,9511.0 C 721.0,9502.0 714.0,9470.0 708.0,9440.0 C 702.0,9410.0 683.0,9365.0 667.0,9341.0 C 637.0,9297.0 610.0,9216.0 610.0,9169.0 C 610.0,9149.0 593.0,9126.0 545.0,9081.0 C 476.0,9017.0 460.0,8977.0 500.0,8967.0 C 530.0,8959.0 535.0,8914.0 517.0,8825.0 C 506.0,8767.0 503.0,8717.0 507.0,8645.0 C 512.0,8554.0 510.0,8537.0 486.0,8468.0 C 472.0,8426.0 460.0,8381.0 460.0,8367.0 C 460.0,8321.0 428.0,8186.0 411.0,8162.0 C 402.0,8150.0 378.0,8130.0 357.0,8119.0 C 321.0,8100.0 317.0,8100.0 301.0,8114.0 C 275.0,8138.0 223.0,8134.0 186.0,8105.0 C 164.0,8089.0 140.0,8080.0 115.0,8080.0 C 85.0,8080.0 70.0,8073.0 39.0,8041.0 C -9.0,7993.0 -15.0,7950.0 26.0,7950.0 C 42.0,7950.0 60.0,7960.0 72.0,7975.0 C 100.0,8011.0 123.0,8007.0 143.0,7963.0 C 177.0,7888.0 179.0,7887.0 263.0,7901.0 C 331.0,7912.0 339.0,7912.0 363.0,7894.0 C 383.0,7880.0 389.0,7866.0 390.0,7838.0 C 390.0,7818.0 395.0,7798.0 402.0,7794.0 C 424.0,7780.0 515.0,7791.0 570.0,7815.0 C 600.0,7828.0 636.0,7842.0 650.0,7845.0 C 672.0,7851.0 671.0,7849.0 643.0,7830.0 C 621.0,7815.0 610.0,7800.0 610.0,7784.0 C 610.0,7751.0 625.0,7754.0 676.0,7795.0 C 699.0,7814.0 728.0,7830.0 739.0,7830.0 C 752.0,7830.0 765.0,7840.0 772.0,7855.0 C 783.0,7879.0 825.0,7900.0 863.0,7900.0 C 878.0,7900.0 881.0,7895.0 876.0,7875.0 C 869.0,7847.0 872.0,7846.0 917.0,7859.0 C 974.0,7875.0 978.0,7863.0 995.0,7593.0 C 1013.0,7325.0 1015.0,7338.0 949.0,7245.0 C 914.0,7197.0 877.0,7105.0 860.0,7030.0 C 850.0,6984.0 842.0,6970.0 814.0,6952.0 C 771.0,6924.0 769.0,6891.0 808.0,6869.0 C 829.0,6857.0 840.0,6839.0 850.0,6805.0 C 862.0,6761.0 861.0,6748.0 837.0,6646.0 C 822.0,6585.0 810.0,6523.0 810.0,6509.0 C 810.0,6494.0 798.0,6473.0 781.0,6456.0 L 751.0,6427.0 L 772.0,6410.0 C 794.0,6393.0 794.0,6393.0 754.0,6380.0 C 700.0,6362.0 670.0,6341.0 670.0,6321.0 C 670.0,6294.0 681.0,6289.0 706.0,6305.0 C 727.0,6319.0 730.0,6318.0 740.0,6299.0 C 748.0,6285.0 757.0,6281.0 768.0,6285.0 C 777.0,6289.0 790.0,6294.0 797.0,6297.0 C 804.0,6300.0 810.0,6277.0 815.0,6224.0 C 821.0,6161.0 826.0,6147.0 841.0,6143.0 C 869.0,6135.0 865.0,6103.0 827.0,6019.0 C 808.0,5978.0 787.0,5927.0 780.0,5905.0 C 765.0,5855.0 746.0,5840.0 700.0,5840.0 C 661.0,5840.0 586.0,5796.0 593.0,5777.0 C 595.0,5770.0 615.0,5752.0 637.0,5735.0 C 659.0,5719.0 691.0,5684.0 708.0,5658.0 C 734.0,5619.0 737.0,5611.0 723.0,5606.0 C 709.0,5600.0 709.0,5598.0 723.0,5582.0 C 731.0,5573.0 742.0,5547.0 746.0,5525.0 C 750.0,5503.0 774.0,5449.0 801.0,5405.0 C 844.0,5333.0 850.0,5317.0 856.0,5246.0 C 860.0,5202.0 871.0,5148.0 881.0,5126.0 C 891.0,5103.0 900.0,5063.0 900.0,5037.0 C 900.0,4994.0 894.0,4979.0 850.0,4917.0 C 816.0,4870.0 800.0,4836.0 800.0,4816.0 C 800.0,4755.0 780.0,4715.0 717.0,4648.0 C 673.0,4600.0 647.0,4580.0 630.0,4580.0 C 608.0,4580.0 602.0,4571.0 578.0,4505.0 C 555.0,4440.0 553.0,4425.0 563.0,4388.0 C 574.0,4342.0 604.0,4290.0 653.0,4226.0 C 674.0,4200.0 686.0,4170.0 692.0,4132.0 C 697.0,4101.0 714.0,4053.0 730.0,4025.0 C 748.0,3994.0 764.0,3945.0 771.0,3902.0 C 781.0,3843.0 786.0,3830.0 801.0,3830.0 C 836.0,3830.0 820.0,3806.0 734.0,3724.0 C 659.0,3654.0 649.0,3640.0 652.0,3614.0 C 655.0,3586.0 657.0,3585.0 720.0,3580.0 C 776.0,3576.0 786.0,3572.0 799.0,3549.0 C 815.0,3520.0 807.0,3470.0 787.0,3470.0 C 779.0,3470.0 750.0,3463.0 722.0,3455.0 C 675.0,3441.0 670.0,3437.0 670.0,3410.0 C 670.0,3385.0 674.0,3380.0 694.0,3380.0 C 708.0,3380.0 731.0,3375.0 745.0,3370.0 C 763.0,3363.0 778.0,3363.0 792.0,3371.0 C 819.0,3385.0 827.0,3375.0 807.0,3352.0 C 786.0,3329.0 786.0,3311.0 805.0,3283.0 C 819.0,3263.0 819.0,3257.0 801.0,3222.0 L 781.0,3183.0 L 805.0,3144.0 C 819.0,3122.0 830.0,3089.0 830.0,3068.0 C 830.0,3025.0 845.0,3020.0 894.0,3045.0 C 909.0,3053.0 924.0,3060.0 926.0,3060.0 C 928.0,3060.0 930.0,3038.0 930.0,3012.0 C 930.0,2985.0 935.0,2938.0 941.0,2907.0 L 953.0,2850.0 L 994.0,2856.0 C 1016.0,2860.0 1039.0,2866.0 1044.0,2871.0 C 1054.0,2880.0 1073.0,2837.0 1090.0,2770.0 C 1095.0,2751.0 1110.0,2708.0 1123.0,2674.0 L 1147.0,2614.0 L 1123.0,2547.0 C 1104.0,2496.0 1086.0,2470.0 1044.0,2430.0 C 989.0,2378.0 979.0,2352.0 1005.0,2330.0 C 1031.0,2308.0 1022.0,2294.0 943.0,2239.0 C 900.0,2210.0 843.0,2166.0 817.0,2141.0 C 777.0,2103.0 770.0,2092.0 775.0,2071.0 C 780.0,2050.0 775.0,2039.0 739.0,2009.0 L 696.0,1973.0 L 733.0,1961.0 C 773.0,1947.0 775.0,1944.0 760.0,1906.0 C 755.0,1892.0 753.0,1873.0 756.0,1865.0 C 763.0,1848.0 796.0,1845.0 805.0,1860.0 C 808.0,1866.0 821.0,1870.0 833.0,1870.0 C 846.0,1870.0 866.0,1877.0 878.0,1886.0 C 899.0,1901.0 902.0,1900.0 929.0,1871.0 C 966.0,1831.0 996.0,1830.0 1005.0,1869.0 C 1012.0,1902.0 1031.0,1910.0 1102.0,1910.0 C 1178.0,1910.0 1249.0,1929.0 1261.0,1952.0 C 1271.0,1971.0 1279.0,1972.0 1366.0,1967.0 C 1446.0,1962.0 1468.0,1957.0 1527.0,1927.0 C 1638.0,1870.0 1738.0,1840.0 1816.0,1840.0 C 1844.0,1840.0 1893.0,1835.0 1924.0,1828.0 L 1982.0,1817.0 L 2016.0,1746.0 C 2035.0,1707.0 2058.0,1666.0 2068.0,1654.0 C 2093.0,1623.0 2198.0,1584.0 2219.0,1597.0 C 2228.0,1603.0 2269.0,1613.0 2309.0,1620.0 C 2381.0,1632.0 2383.0,1632.0 2407.0,1607.0 C 2427.0,1588.0 2430.0,1578.0 2422.0,1564.0 C 2408.0,1538.0 2427.0,1490.0 2451.0,1490.0 C 2484.0,1490.0 2545.0,1453.0 2558.0,1426.0 C 2567.0,1406.0 2566.0,1393.0 2554.0,1363.0 C 2539.0,1329.0 2539.0,1325.0 2557.0,1314.0 C 2595.0,1288.0 2620.0,1255.0 2620.0,1231.0 C 2620.0,1218.0 2629.0,1193.0 2640.0,1175.0 C 2658.0,1147.0 2659.0,1130.0 2655.0,1039.0 C 2650.0,910.0 2660.0,874.0 2711.0,838.0 C 2732.0,823.0 2750.0,804.0 2750.0,796.0 C 2750.0,776.0 2723.0,757.0 2704.0,764.0 C 2684.0,772.0 2661.0,754.0 2649.0,721.0 C 2641.0,702.0 2646.0,687.0 2672.0,644.0 C 2698.0,600.0 2708.0,591.0 2725.0,596.0 C 2736.0,600.0 2747.0,607.0 2748.0,611.0 C 2757.0,634.0 2770.0,604.0 2770.0,559.0 C 2770.0,508.0 2793.0,470.0 2825.0,470.0 C 2833.0,470.0 2840.0,461.0 2840.0,449.0 C 2840.0,408.0 2858.0,390.0 2893.0,397.0 C 2910.0,400.0 2929.0,409.0 2933.0,417.0 C 2937.0,424.0 2950.0,430.0 2960.0,430.0 C 2984.0,430.0 2988.0,471.0 2965.0,490.0 C 2948.0,504.0 2945.0,552.0 2961.0,581.0 C 2969.0,597.0 2978.0,600.0 2999.0,595.0 C 3021.0,590.0 3035.0,597.0 3073.0,631.0 C 3124.0,675.0 3150.0,677.0 3150.0,636.0 C 3150.0,613.0 3166.0,600.0 3196.0,600.0 C 3204.0,600.0 3210.0,610.0 3210.0,621.0 C 3210.0,641.0 3214.0,642.0 3263.0,636.0 C 3291.0,633.0 3338.0,630.0 3367.0,628.0 C 3418.0,626.0 3420.0,627.0 3454.0,671.0 C 3503.0,736.0 3529.0,750.0 3600.0,750.0 C 3676.0,750.0 3705.0,763.0 3690.0,790.0 C 3681.0,806.0 3684.0,812.0 3707.0,824.0 L 3735.0,838.0 L 3688.0,861.0 C 3661.0,874.0 3639.0,892.0 3636.0,904.0 C 3628.0,932.0 3629.0,1026.0 3637.0,1074.0 C 3643.0,1111.0 3644.0,1112.0 3679.0,1106.0 C 3699.0,1103.0 3720.0,1093.0 3727.0,1083.0 C 3767.0,1024.0 3760.0,1026.0 3825.0,1049.0 C 3858.0,1061.0 3900.0,1070.0 3920.0,1070.0 C 3939.0,1070.0 3991.0,1079.0 4035.0,1090.0 C 4101.0,1107.0 4119.0,1116.0 4142.0,1145.0 C 4158.0,1163.0 4179.0,1182.0 4190.0,1185.0 C 4207.0,1191.0 4210.0,1200.0 4210.0,1261.0 C 4210.0,1341.0 4215.0,1344.0 4297.0,1311.0 C 4369.0,1283.0 4392.0,1282.0 4426.0,1309.0 L 4455.0,1332.0 L 4460.0,1283.0 C 4463.0,1257.0 4469.0,1229.0 4473.0,1222.0 C 4486.0,1203.0 4500.0,1218.0 4500.0,1250.0 C 4500.0,1266.0 4504.0,1282.0 4510.0,1285.0 C 4516.0,1288.0 4520.0,1284.0 4520.0,1276.0 C 4520.0,1255.0 4532.0,1256.0 4563.0,1280.0 C 4597.0,1307.0 4625.0,1307.0 4610.0,1281.0 C 4596.0,1253.0 4595.0,1253.0 4648.0,1228.0 C 4690.0,1208.0 4712.0,1205.0 4858.0,1203.0 C 4966.0,1202.0 5027.0,1197.0 5036.0,1189.0 C 5055.0,1173.0 5054.0,1143.0 5033.0,1132.0 C 5007.0,1117.0 5025.0,1093.0 5067.0,1087.0 C 5088.0,1084.0 5170.0,1076.0 5250.0,1069.0 C 5330.0,1062.0 5406.0,1051.0 5420.0,1044.0 C 5434.0,1037.0 5475.0,1026.0 5510.0,1020.0 C 5593.0,1005.0 5720.0,945.0 5789.0,889.0 C 5818.0,865.0 5851.0,839.0 5860.0,832.0 C 5881.0,816.0 5930.0,826.0 5930.0,846.0 C 5930.0,864.0 5968.0,883.0 5988.0,875.0 C 5997.0,872.0 6039.0,849.0 6081.0,823.0 C 6150.0,782.0 6159.0,772.0 6179.0,725.0 C 6200.0,674.0 6201.0,670.0 6185.0,646.0 C 6170.0,623.0 6161.0,620.0 6110.0,620.0 C 6053.0,620.0 6050.0,619.0 6016.0,576.0 C 5973.0,524.0 5971.0,512.0 6008.0,505.0 C 6023.0,502.0 6055.0,494.0 6080.0,487.0 C 6105.0,481.0 6166.0,474.0 6217.0,473.0 C 6277.0,472.0 6319.0,466.0 6339.0,456.0 C 6355.0,447.0 6374.0,440.0 6380.0,440.0 C 6398.0,440.0 6520.0,566.0 6520.0,584.0 C 6520.0,593.0 6532.0,602.0 6548.0,606.0 C 6563.0,610.0 6585.0,621.0 6597.0,632.0 C 6608.0,643.0 6636.0,654.0 6659.0,657.0 C 6696.0,662.0 6700.0,666.0 6700.0,690.0 C 6700.0,722.0 6725.0,787.0 6747.0,812.0 C 6759.0,826.0 6761.0,837.0 6753.0,868.0 C 6743.0,906.0 6753.0,950.0 6772.0,950.0 C 6776.0,950.0 6780.0,969.0 6780.0,992.0 C 6780.0,1023.0 6790.0,1051.0 6821.0,1103.0 C 6843.0,1140.0 6870.0,1174.0 6879.0,1178.0 C 6907.0,1189.0 6970.0,1248.0 6970.0,1263.0 C 6970.0,1274.0 6987.0,1276.0 7049.0,1272.0 L 7127.0,1268.0 L 7207.0,1324.0 L 7288.0,1380.0 L 7389.0,1380.0 C 7512.0,1380.0 7605.0,1357.0 7738.0,1294.0 C 7821.0,1255.0 7838.0,1250.0 7903.0,1250.0 C 7958.0,1250.0 7982.0,1255.0 8005.0,1270.0 C 8022.0,1281.0 8047.0,1290.0 8061.0,1290.0 C 8076.0,1290.0 8093.0,1297.0 8100.0,1305.0 C 8118.0,1326.0 8140.0,1324.0 8168.0,1298.0 L 8192.0,1275.0 L 8215.0,1304.0 C 8242.0,1338.0 8287.0,1348.0 8459.0,1357.0 C 8572.0,1362.0 8633.0,1347.0 8645.0,1309.0 C 8652.0,1287.0 8668.0,1284.0 8676.0,1304.0 C 8679.0,1312.0 8689.0,1316.0 8701.0,1313.0 C 8728.0,1306.0 8727.0,1346.0 8699.0,1360.0 C 8680.0,1371.0 8680.0,1373.0 8694.0,1389.0 C 8703.0,1399.0 8710.0,1414.0 8710.0,1423.0 C 8710.0,1445.0 8747.0,1469.0 8792.0,1476.0 C 8812.0,1480.0 8839.0,1493.0 8851.0,1506.0 C 8863.0,1519.0 8882.0,1530.0 8892.0,1530.0 C 8916.0,1530.0 8970.0,1454.0 8970.0,1418.0 C 8970.0,1387.0 8973.0,1385.0 9001.0,1401.0 C 9017.0,1409.0 9110.0,1540.0 9110.0,1554.0 C 9110.0,1556.0 9094.0,1567.0 9075.0,1579.0 C 9036.0,1602.0 9031.0,1619.0 9058.0,1643.0 C 9070.0,1654.0 9080.0,1656.0 9090.0,1650.0 C 9114.0,1635.0 9120.0,1638.0 9120.0,1665.0 C 9120.0,1682.0 9129.0,1694.0 9151.0,1705.0 C 9186.0,1723.0 9187.0,1753.0 9153.0,1758.0 C 9120.0,1763.0 9103.0,1790.0 9091.0,1854.0 C 9079.0,1917.0 9065.0,1934.0 9012.0,1949.0 C 8993.0,1955.0 8956.0,1979.0 8930.0,2004.0 C 8903.0,2029.0 8874.0,2050.0 8865.0,2050.0 C 8842.0,2050.0 8741.0,2148.0 8719.0,2192.0 C 8705.0,2220.0 8693.0,2230.0 8676.0,2230.0 C 8663.0,2230.0 8642.0,2239.0 8629.0,2249.0 C 8607.0,2266.0 8605.0,2275.0 8606.0,2347.0 C 8608.0,2455.0 8630.0,2527.0 8685.0,2610.0 C 8772.0,2741.0 8867.0,2790.0 9036.0,2790.0 C 9155.0,2790.0 9222.0,2772.0 9328.0,2713.0 L 9392.0,2678.0 L 9516.0,2685.0 C 9602.0,2690.0 9644.0,2689.0 9653.0,2681.0 C 9663.0,2673.0 9673.0,2677.0 9695.0,2700.0 C 9711.0,2717.0 9730.0,2730.0 9738.0,2730.0 C 9780.0,2730.0 9836.0,2759.0 9889.0,2807.0 C 9922.0,2836.0 9957.0,2860.0 9967.0,2860.0 C 9978.0,2860.0 10001.0,2876.0 10020.0,2895.0 C 10039.0,2915.0 10064.0,2930.0 10076.0,2930.0 C 10108.0,2930.0 10114.0,2946.0 10089.0,2968.0 C 10065.0,2991.0 10019.0,3003.0 10006.0,2989.0 C 10000.0,2984.0 9993.0,2980.0 9988.0,2980.0 C 9977.0,2980.0 9958.0,3058.0 9965.0,3079.0 C 9973.0,3104.0 10037.0,3114.0 10067.0,3095.0 C 10096.0,3076.0 10100.0,3076.0 10100.0,3098.0 C 10100.0,3108.0 10111.0,3123.0 10125.0,3130.0 C 10147.0,3142.0 10149.0,3148.0 10144.0,3179.0 C 10136.0,3227.0 10114.0,3243.0 10067.0,3237.0 C 10038.0,3233.0 10028.0,3236.0 10020.0,3250.0 C 10003.0,3283.0 10008.0,3345.0 10030.0,3365.0 C 10051.0,3384.0 10056.0,3429.0 10041.0,3459.0 C 10026.0,3486.0 10043.0,3505.0 10067.0,3489.0 C 10078.0,3482.0 10094.0,3479.0 10103.0,3483.0 C 10117.0,3488.0 10117.0,3495.0 10102.0,3551.0 C 10087.0,3613.0 10087.0,3614.0 10113.0,3664.0 C 10136.0,3710.0 10166.0,3867.0 10154.0,3879.0 C 10152.0,3881.0 10137.0,3883.0 10120.0,3883.0 C 10086.0,3883.0 10079.0,3905.0 10110.0,3913.0 C 10138.0,3920.0 10136.0,3958.0 10108.0,3962.0 C 10087.0,3965.0 10085.0,3971.0 10082.0,4036.0 C 10080.0,4095.0 10082.0,4109.0 10099.0,4124.0 C 10114.0,4138.0 10123.0,4139.0 10139.0,4131.0 C 10150.0,4125.0 10161.0,4120.0 10164.0,4120.0 C 10176.0,4120.0 10169.0,4148.0 10155.0,4160.0 C 10131.0,4180.0 10137.0,4209.0 10167.0,4221.0 C 10210.0,4237.0 10230.0,4260.0 10230.0,4292.0 C 10230.0,4316.0 10224.0,4324.0 10200.0,4333.0 C 10179.0,4341.0 10170.0,4351.0 10170.0,4367.0 C 10170.0,4380.0 10162.0,4391.0 10150.0,4395.0 C 10134.0,4400.0 10130.0,4410.0 10130.0,4443.0 C 10130.0,4466.0 10123.0,4497.0 10116.0,4512.0 C 10108.0,4527.0 10105.0,4542.0 10109.0,4545.0 C 10114.0,4547.0 10120.0,4561.0 10122.0,4574.0 C 10126.0,4594.0 10121.0,4601.0 10099.0,4610.0 C 10066.0,4624.0 10057.0,4647.0 10065.0,4694.0 C 10070.0,4720.0 10068.0,4730.0 10055.0,4737.0 C 10037.0,4747.0 10038.0,4781.0 10056.0,4883.0 C 10061.0,4915.0 10060.0,4920.0 10043.0,4920.0 C 10032.0,4920.0 10016.0,4928.0 10007.0,4938.0 C 9992.0,4954.0 9991.0,4971.0 9999.0,5075.0 L 10008.0,5194.0 L 10058.0,5240.0 C 10085.0,5265.0 10137.0,5303.0 10174.0,5325.0 L 10242.0,5365.0 L 10238.0,5448.0 C 10236.0,5518.0 10232.0,5534.0 10215.0,5546.0 C 10197.0,5560.0 10195.0,5559.0 10192.0,5541.0 C 10189.0,5522.0 10182.0,5520.0 10114.0,5520.0 C 10057.0,5520.0 10038.0,5524.0 10034.0,5535.0 C 10030.0,5543.0 10022.0,5550.0 10014.0,5550.0 C 9997.0,5550.0 9996.0,5566.0 10011.0,5609.0 C 10017.0,5626.0 10019.0,5652.0 10016.0,5666.0 C 10010.0,5690.0 10006.0,5691.0 9952.0,5688.0 L 9895.0,5685.0 L 9892.0,5643.0 C 9889.0,5600.0 9880.0,5593.0 9846.0,5606.0 C 9836.0,5610.0 9830.0,5624.0 9830.0,5641.0 C 9830.0,5659.0 9823.0,5673.0 9810.0,5680.0 C 9794.0,5689.0 9792.0,5694.0 9802.0,5709.0 C 9818.0,5736.0 9805.0,5764.0 9782.0,5751.0 C 9772.0,5746.0 9725.0,5732.0 9677.0,5720.0 C 9598.0,5700.0 9589.0,5700.0 9561.0,5714.0 C 9544.0,5723.0 9519.0,5750.0 9504.0,5775.0 C 9485.0,5809.0 9472.0,5820.0 9454.0,5820.0 C 9441.0,5820.0 9390.0,5840.0 9342.0,5863.0 C 9294.0,5887.0 9220.0,5919.0 9178.0,5935.0 C 9102.0,5962.0 9051.0,6003.0 9000.0,6076.0 C 8978.0,6107.0 8907.0,6140.0 8863.0,6140.0 C 8835.0,6140.0 8821.0,6146.0 8812.0,6160.0 C 8803.0,6175.0 8795.0,6178.0 8782.0,6172.0 C 8755.0,6157.0 8631.0,6159.0 8594.0,6175.0 C 8565.0,6187.0 8555.0,6187.0 8525.0,6174.0 C 8468.0,6151.0 8409.0,6156.0 8327.0,6194.0 C 8287.0,6212.0 8231.0,6230.0 8204.0,6234.0 C 8177.0,6238.0 8147.0,6249.0 8136.0,6258.0 C 8125.0,6268.0 8099.0,6275.0 8071.0,6276.0 C 8020.0,6278.0 7995.0,6282.0 7900.0,6310.0 C 7751.0,6353.0 7644.0,6363.0 7605.0,6337.0 C 7573.0,6316.0 7507.0,6300.0 7422.0,6293.0 C 7357.0,6288.0 7321.0,6292.0 7219.0,6315.0 C 7151.0,6330.0 7079.0,6351.0 7058.0,6361.0 C 7004.0,6388.0 6932.0,6454.0 6878.0,6525.0 L 6831.0,6588.0 L 6742.0,6609.0 C 6693.0,6621.0 6644.0,6630.0 6634.0,6630.0 C 6623.0,6630.0 6605.0,6636.0 6594.0,6643.0 C 6582.0,6649.0 6553.0,6666.0 6529.0,6679.0 C 6456.0,6719.0 6400.0,6771.0 6373.0,6824.0 C 6339.0,6891.0 6279.0,6979.0 6246.0,7009.0 C 6232.0,7023.0 6215.0,7052.0 6209.0,7074.0 C 6202.0,7100.0 6185.0,7126.0 6161.0,7147.0 C 6140.0,7164.0 6109.0,7207.0 6090.0,7242.0 C 6072.0,7277.0 6044.0,7323.0 6028.0,7345.0 C 6009.0,7372.0 5997.0,7404.0 5993.0,7438.0 C 5988.0,7485.0 5990.0,7493.0 6009.0,7506.0 C 6022.0,7516.0 6030.0,7532.0 6030.0,7551.0 C 6030.0,7575.0 6026.0,7580.0 6005.0,7580.0 C 5976.0,7580.0 5980.0,7598.0 6017.0,7643.0 C 6030.0,7659.0 6040.0,7677.0 6040.0,7683.0 C 6040.0,7702.0 5981.0,7731.0 5956.0,7724.0 C 5939.0,7720.0 5913.0,7731.0 5862.0,7764.0 C 5823.0,7789.0 5790.0,7816.0 5787.0,7822.0 C 5785.0,7829.0 5789.0,7848.0 5797.0,7863.0 C 5805.0,7878.0 5808.0,7900.0 5805.0,7910.0 C 5800.0,7927.0 5790.0,7929.0 5715.0,7927.0 C 5599.0,7924.0 5589.0,7937.0 5656.0,7998.0 C 5693.0,8033.0 5705.0,8051.0 5702.0,8068.0 C 5697.0,8098.0 5676.0,8096.0 5602.0,8058.0 L 5539.0,8025.0 L 5542.0,7963.0 L 5545.0,7902.0 L 5510.0,7897.0 C 5464.0,7891.0 5443.0,7902.0 5464.0,7919.0 C 5485.0,7936.0 5484.0,7979.0 5464.0,7987.0 C 5455.0,7990.0 5435.0,7986.0 5420.0,7976.0 C 5380.0,7953.0 5369.0,7955.0 5327.0,7998.0 L 5289.0,8037.0 L 5330.0,8065.0 C 5374.0,8096.0 5375.0,8097.0 5356.0,8123.0 C 5344.0,8139.0 5338.0,8139.0 5295.0,8128.0 C 5251.0,8116.0 5246.0,8117.0 5236.0,8135.0 C 5230.0,8145.0 5215.0,8163.0 5204.0,8174.0 C 5186.0,8190.0 5185.0,8196.0 5195.0,8205.0 C 5206.0,8213.0 5206.0,8224.0 5192.0,8267.0 C 5178.0,8311.0 5169.0,8322.0 5136.0,8337.0 C 5107.0,8350.0 5092.0,8366.0 5072.0,8407.0 C 5045.0,8462.0 5030.0,8474.0 5030.0,8440.0 C 5030.0,8429.0 5028.0,8420.0 5025.0,8420.0 C 5007.0,8420.0 4967.0,8458.0 4955.0,8486.0 C 4939.0,8524.0 4915.0,8531.0 4905.0,8500.0 C 4897.0,8475.0 4831.0,8440.0 4793.0,8440.0 C 4778.0,8440.0 4754.0,8449.0 4740.0,8460.0 C 4726.0,8471.0 4709.0,8480.0 4703.0,8480.0 C 4694.0,8480.0 4692.0,8490.0 4697.0,8510.0 C 4702.0,8535.0 4699.0,8540.0 4683.0,8540.0 C 4672.0,8540.0 4646.0,8528.0 4625.0,8514.0 C 4588.0,8489.0 4587.0,8489.0 4566.0,8509.0 C 4540.0,8533.0 4495.0,8546.0 4485.0,8530.0 C 4481.0,8523.0 4466.0,8530.0 4444.0,8550.0 C 4403.0,8585.0 4399.0,8586.0 4375.0,8560.0 C 4357.0,8540.0 4357.0,8541.0 4314.0,8580.0 C 4269.0,8621.0 4252.0,8626.0 4188.0,8611.0 C 4152.0,8603.0 4150.0,8604.0 4115.0,8648.0 C 4077.0,8697.0 3953.0,8786.0 3909.0,8795.0 C 3874.0,8803.0 3785.0,8905.0 3740.0,8989.0 C 3698.0,9068.0 3663.0,9085.0 3604.0,9057.0 C 3560.0,9036.0 3560.0,9036.0 3560.0,9060.0 C 3560.0,9085.0 3531.0,9098.0 3519.0,9079.0 C 3510.0,9066.0 3513.0,9021.0 3526.0,8975.0 C 3530.0,8960.0 3523.0,8950.0 3501.0,8937.0 C 3462.0,8914.0 3273.0,8913.0 3210.0,8935.0 C 3178.0,8946.0 3123.0,8950.0 2993.0,8950.0 C 2836.0,8950.0 2815.0,8952.0 2778.0,8971.0 C 2734.0,8993.0 2701.0,9026.0 2700.0,9048.0 C 2700.0,9066.0 2666.0,9063.0 2639.0,9042.0 C 2610.0,9019.0 2556.0,9000.0 2521.0,9000.0 C 2507.0,9000.0 2475.0,8992.0 2450.0,8984.0 C 2385.0,8960.0 2227.0,8960.0 2175.0,8984.0 C 2153.0,8994.0 2099.0,9004.0 2055.0,9007.0 L 1975.0,9013.0 L 1939.0,9059.0 C 1920.0,9084.0 1884.0,9118.0 1860.0,9135.0 C 1819.0,9164.0 1814.0,9165.0 1696.0,9165.0 C 1581.0,9166.0 1572.0,9167.0 1515.0,9196.0 L 1455.0,9227.0 L 1452.0,9285.0 C 1450.0,9319.0 1457.0,9380.0 1469.0,9432.0 C 1498.0,9554.0 1497.0,9556.0 1445.0,9588.0 C 1415.0,9606.0 1401.0,9622.0 1400.0,9636.0 C 1400.0,9648.0 1388.0,9673.0 1373.0,9692.0 C 1357.0,9712.0 1332.0,9752.0 1315.0,9783.0 C 1281.0,9848.0 1250.0,9859.0 1197.0,9827.0" fill="pink"/>
</svg>
