<?xml version="1.0" ?>
<svg xmlns="http://www.w3.org/2000/svg" xmlns:ev="http://www.w3.org/2001/xml-events" xmlns:xlink="http://www.w3.org/1999/xlink" baseProfile="full" height="594px" version="1.1" viewBox="-1023.918315160181 -935.7564769529317 12247.819079061679 12120.612948787222" width="600px">
	<defs/>
	<path d="M 9691.0,10146.0 C 9661.0,10115.0 9571.0,10068.0 9557.0,10077.0 C 9550.0,10081.0 9527.0,10099.0 9504.0,10117.0 C 9481.0,10135.0 9460.0,10150.0 9456.0,10150.0 C 9453.0,10150.0 9450.0,10122.0 9450.0,10088.0 L 9450.0,10025.0 L 9384.0,9966.0 C 9338.0,9925.0 9305.0,9904.0 9273.0,9896.0 C 9235.0,9886.0 9225.0,9879.0 9216.0,9854.0 L 9205.0,9823.0 L 9155.0,9840.0 C 9107.0,9856.0 9103.0,9856.0 9047.0,9837.0 L 8989.0,9818.0 L 8995.0,9779.0 C 9000.0,9748.0 8999.0,9740.0 8987.0,9740.0 C 8948.0,9740.0 8773.0,9676.0 8755.0,9655.0 C 8744.0,9642.0 8711.0,9619.0 8683.0,9604.0 L 8630.0,9575.0 L 8572.0,9607.0 L 8513.0,9639.0 L 8497.0,9587.0 C 8470.0,9502.0 8461.0,9494.0 8407.0,9509.0 C 8383.0,9516.0 8353.0,9519.0 8341.0,9515.0 C 8327.0,9511.0 8311.0,9516.0 8294.0,9529.0 C 8275.0,9544.0 8253.0,9550.0 8216.0,9550.0 C 8168.0,9550.0 8163.0,9553.0 8141.0,9587.0 L 8117.0,9624.0 L 8098.0,9600.0 C 8079.0,9576.0 8078.0,9542.0 8094.0,9499.0 C 8101.0,9483.0 8066.0,9462.0 7986.0,9434.0 L 7948.0,9420.0 L 7876.0,9485.0 L 7803.0,9549.0 L 7782.0,9511.0 C 7770.0,9490.0 7760.0,9458.0 7760.0,9441.0 C 7760.0,9423.0 7750.0,9391.0 7738.0,9370.0 L 7715.0,9330.0 L 7638.0,9330.0 L 7560.0,9330.0 L 7560.0,9374.0 C 7560.0,9399.0 7555.0,9422.0 7549.0,9426.0 C 7543.0,9429.0 7505.0,9400.0 7461.0,9358.0 C 7361.0,9260.0 7281.0,9198.0 7261.0,9204.0 C 7252.0,9207.0 7228.0,9212.0 7207.0,9216.0 C 7178.0,9221.0 7163.0,9231.0 7147.0,9256.0 C 7133.0,9277.0 7114.0,9292.0 7095.0,9295.0 C 7079.0,9299.0 7016.0,9313.0 6956.0,9327.0 C 6870.0,9347.0 6842.0,9350.0 6828.0,9341.0 C 6818.0,9335.0 6798.0,9333.0 6782.0,9337.0 C 6753.0,9344.0 6670.0,9421.0 6670.0,9441.0 C 6670.0,9448.0 6644.0,9506.0 6613.0,9571.0 L 6555.0,9689.0 L 6515.0,9690.0 C 6493.0,9690.0 6429.0,9675.0 6373.0,9658.0 L 6271.0,9625.0 L 6253.0,9575.0 C 6237.0,9531.0 6231.0,9525.0 6194.0,9515.0 C 6147.0,9503.0 6062.0,9431.0 6036.0,9382.0 C 6027.0,9364.0 6008.0,9344.0 5994.0,9338.0 C 5975.0,9329.0 5970.0,9320.0 5972.0,9301.0 C 5974.0,9280.0 5982.0,9274.0 6013.0,9269.0 C 6062.0,9261.0 6064.0,9257.0 6046.0,9221.0 C 6037.0,9205.0 6030.0,9173.0 6030.0,9151.0 C 6030.0,9115.0 6026.0,9107.0 5993.0,9086.0 C 5934.0,9047.0 5908.0,9045.0 5863.0,9073.0 C 5836.0,9090.0 5815.0,9096.0 5792.0,9092.0 C 5775.0,9090.0 5760.0,9085.0 5760.0,9081.0 C 5760.0,9078.0 5767.0,9042.0 5777.0,9002.0 L 5794.0,8928.0 L 5757.0,8897.0 C 5714.0,8860.0 5637.0,8715.0 5646.0,8688.0 C 5649.0,8678.0 5669.0,8665.0 5691.0,8659.0 C 5724.0,8649.0 5732.0,8641.0 5742.0,8607.0 L 5754.0,8567.0 L 5697.0,8515.0 C 5639.0,8462.0 5610.0,8450.0 5538.0,8450.0 C 5516.0,8450.0 5467.0,8443.0 5429.0,8433.0 C 5369.0,8419.0 5357.0,8412.0 5336.0,8380.0 C 5321.0,8357.0 5300.0,8340.0 5279.0,8334.0 C 5254.0,8327.0 5243.0,8316.0 5237.0,8295.0 C 5232.0,8278.0 5205.0,8217.0 5178.0,8159.0 L 5127.0,8053.0 L 5046.0,8012.0 C 5002.0,7990.0 4957.0,7969.0 4948.0,7966.0 C 4933.0,7962.0 4910.0,7905.0 4910.0,7873.0 C 4910.0,7867.0 4889.0,7858.0 4863.0,7854.0 C 4799.0,7845.0 4721.0,7805.0 4688.0,7765.0 C 4670.0,7743.0 4648.0,7730.0 4623.0,7725.0 C 4601.0,7721.0 4570.0,7705.0 4550.0,7686.0 C 4528.0,7664.0 4501.0,7650.0 4476.0,7647.0 C 4454.0,7643.0 4433.0,7635.0 4428.0,7628.0 C 4424.0,7621.0 4420.0,7587.0 4420.0,7553.0 C 4420.0,7494.0 4421.0,7491.0 4455.0,7470.0 C 4493.0,7447.0 4492.0,7433.0 4450.0,7395.0 C 4429.0,7376.0 4428.0,7376.0 4411.0,7399.0 C 4394.0,7421.0 4392.0,7422.0 4362.0,7406.0 C 4321.0,7385.0 4321.0,7385.0 4256.0,7428.0 C 4208.0,7459.0 4197.0,7472.0 4187.0,7507.0 C 4177.0,7544.0 4172.0,7551.0 4142.0,7556.0 C 4124.0,7560.0 4091.0,7560.0 4070.0,7557.0 C 4034.0,7552.0 4029.0,7555.0 4012.0,7584.0 C 4001.0,7602.0 3952.0,7645.0 3902.0,7680.0 C 3850.0,7717.0 3805.0,7758.0 3795.0,7777.0 C 3778.0,7808.0 3778.0,7810.0 3799.0,7836.0 C 3810.0,7851.0 3820.0,7873.0 3820.0,7885.0 C 3820.0,7907.0 3817.0,7908.0 3758.0,7903.0 C 3723.0,7900.0 3684.0,7889.0 3670.0,7880.0 C 3656.0,7870.0 3627.0,7853.0 3605.0,7842.0 C 3578.0,7829.0 3557.0,7807.0 3541.0,7777.0 C 3528.0,7752.0 3503.0,7724.0 3486.0,7715.0 C 3447.0,7693.0 3432.0,7675.0 3366.0,7575.0 C 3308.0,7487.0 3263.0,7438.0 3207.0,7400.0 C 3177.0,7380.0 3170.0,7369.0 3170.0,7342.0 C 3170.0,7317.0 3158.0,7293.0 3125.0,7251.0 L 3079.0,7193.0 L 2994.0,7187.0 C 2915.0,7181.0 2904.0,7183.0 2858.0,7206.0 C 2822.0,7224.0 2804.0,7228.0 2797.0,7221.0 C 2779.0,7203.0 2762.0,7208.0 2708.0,7245.0 C 2637.0,7294.0 2619.0,7297.0 2566.0,7266.0 C 2526.0,7243.0 2508.0,7239.0 2403.0,7235.0 C 2216.0,7228.0 2191.0,7223.0 2148.0,7182.0 C 2122.0,7158.0 2110.0,7137.0 2110.0,7119.0 C 2110.0,7104.0 2103.0,7076.0 2095.0,7057.0 C 2073.0,7003.0 2076.0,6979.0 2115.0,6940.0 L 2150.0,6904.0 L 2136.0,6834.0 C 2124.0,6769.0 2124.0,6760.0 2141.0,6729.0 C 2154.0,6705.0 2159.0,6673.0 2160.0,6621.0 C 2160.0,6559.0 2164.0,6539.0 2187.0,6501.0 C 2212.0,6458.0 2213.0,6453.0 2202.0,6401.0 C 2195.0,6370.0 2187.0,6335.0 2184.0,6323.0 C 2179.0,6305.0 2183.0,6298.0 2202.0,6291.0 C 2233.0,6279.0 2241.0,6245.0 2233.0,6164.0 C 2226.0,6087.0 2203.0,6060.0 2144.0,6060.0 C 2110.0,6060.0 2093.0,6067.0 2065.0,6091.0 C 2034.0,6119.0 2026.0,6121.0 1988.0,6115.0 C 1964.0,6111.0 1922.0,6099.0 1893.0,6088.0 C 1824.0,6063.0 1766.0,5988.0 1751.0,5905.0 C 1737.0,5828.0 1737.0,5820.0 1755.0,5826.0 C 1773.0,5833.0 1774.0,5823.0 1759.0,5746.0 C 1751.0,5703.0 1752.0,5685.0 1761.0,5674.0 C 1770.0,5663.0 1763.0,5652.0 1722.0,5615.0 C 1683.0,5580.0 1671.0,5562.0 1666.0,5530.0 C 1661.0,5496.0 1656.0,5490.0 1635.0,5490.0 C 1622.0,5490.0 1582.0,5470.0 1546.0,5445.0 L 1481.0,5399.0 L 1444.0,5415.0 C 1415.0,5427.0 1365.0,5430.0 1205.0,5430.0 L 1002.0,5430.0 L 889.0,5383.0 C 738.0,5321.0 710.0,5304.0 710.0,5274.0 C 710.0,5253.0 715.0,5250.0 748.0,5250.0 C 768.0,5249.0 796.0,5243.0 809.0,5236.0 L 832.0,5223.0 L 809.0,5217.0 C 745.0,5200.0 673.0,5210.0 596.0,5246.0 C 530.0,5277.0 520.0,5286.0 520.0,5309.0 C 519.0,5337.0 494.0,5389.0 445.0,5463.0 C 429.0,5488.0 410.0,5516.0 405.0,5525.0 C 398.0,5537.0 376.0,5543.0 327.0,5547.0 C 262.0,5553.0 260.0,5554.0 251.0,5584.0 L 243.0,5615.0 L 231.0,5572.0 C 211.0,5502.0 185.0,5469.0 123.0,5436.0 C 74.0,5410.0 61.0,5396.0 37.0,5348.0 C 21.0,5317.0 6.0,5272.0 3.0,5248.0 C -2.0,5206.0 0.0,5202.0 36.0,5173.0 C 58.0,5156.0 122.0,5113.0 178.0,5076.0 C 235.0,5039.0 303.0,4990.0 328.0,4966.0 C 434.0,4869.0 472.0,4865.0 435.0,4954.0 C 428.0,4969.0 436.0,4967.0 473.0,4941.0 C 525.0,4906.0 530.0,4895.0 500.0,4885.0 C 489.0,4882.0 480.0,4875.0 480.0,4870.0 C 480.0,4859.0 673.0,4638.0 726.0,4589.0 C 748.0,4569.0 792.0,4534.0 825.0,4510.0 C 858.0,4486.0 944.0,4410.0 1015.0,4340.0 C 1087.0,4271.0 1173.0,4194.0 1208.0,4170.0 C 1280.0,4120.0 1283.0,4105.0 1214.0,4144.0 C 1164.0,4172.0 1156.0,4172.0 1166.0,4147.0 C 1176.0,4119.0 1531.0,3876.0 1796.0,3714.0 L 2058.0,3555.0 L 2129.0,3400.0 C 2168.0,3315.0 2206.0,3228.0 2213.0,3207.0 C 2220.0,3187.0 2247.0,3144.0 2273.0,3112.0 C 2370.0,2995.0 2420.0,2919.0 2420.0,2890.0 C 2420.0,2868.0 2435.0,2847.0 2488.0,2797.0 C 2531.0,2755.0 2576.0,2696.0 2614.0,2633.0 C 2683.0,2519.0 2733.0,2462.0 2810.0,2411.0 C 2948.0,2320.0 2958.0,2310.0 2980.0,2239.0 L 3000.0,2173.0 L 3088.0,2141.0 C 3148.0,2119.0 3205.0,2088.0 3275.0,2039.0 C 3330.0,2000.0 3383.0,1963.0 3392.0,1957.0 C 3402.0,1950.0 3410.0,1939.0 3410.0,1932.0 C 3410.0,1906.0 3502.0,1811.0 3544.0,1795.0 C 3584.0,1779.0 3604.0,1761.0 3762.0,1606.0 C 3829.0,1540.0 3846.0,1529.0 3884.0,1524.0 C 3923.0,1518.0 3932.0,1511.0 3969.0,1462.0 C 3991.0,1432.0 4064.0,1349.0 4130.0,1279.0 C 4238.0,1165.0 4250.0,1148.0 4250.0,1115.0 C 4250.0,1063.0 4274.0,1014.0 4307.0,996.0 C 4337.0,981.0 4487.0,940.0 4512.0,940.0 C 4538.0,940.0 4622.0,1061.0 4645.0,1131.0 C 4666.0,1198.0 4688.0,1233.0 4722.0,1251.0 C 4742.0,1262.0 4788.0,1238.0 4876.0,1169.0 C 4945.0,1114.0 5030.0,1079.0 5175.0,1043.0 C 5230.0,1029.0 5503.0,931.0 5781.0,824.0 C 6059.0,716.0 6297.0,626.0 6309.0,623.0 C 6324.0,619.0 6350.0,633.0 6405.0,674.0 C 6484.0,734.0 6797.0,930.0 6813.0,930.0 C 6818.0,930.0 6835.0,919.0 6850.0,907.0 C 6884.0,878.0 6985.0,855.0 7040.0,864.0 C 7078.0,870.0 7084.0,867.0 7113.0,836.0 C 7138.0,810.0 7157.0,800.0 7193.0,795.0 C 7228.0,789.0 7261.0,773.0 7316.0,734.0 C 7357.0,705.0 7412.0,674.0 7439.0,666.0 L 7488.0,652.0 L 7526.0,691.0 C 7571.0,737.0 7580.0,739.0 7580.0,705.0 C 7580.0,691.0 7593.0,653.0 7610.0,621.0 C 7643.0,555.0 7664.0,539.0 7783.0,490.0 C 7841.0,466.0 7864.0,451.0 7875.0,429.0 C 7894.0,393.0 7894.0,376.0 7875.0,360.0 C 7851.0,340.0 7857.0,325.0 7898.0,303.0 C 7940.0,279.0 8159.0,220.0 8205.0,220.0 C 8256.0,220.0 8308.0,239.0 8315.0,260.0 C 8320.0,276.0 8325.0,278.0 8348.0,269.0 C 8380.0,257.0 8463.0,178.0 8491.0,133.0 C 8504.0,112.0 8525.0,97.0 8553.0,87.0 C 8590.0,75.0 8599.0,75.0 8643.0,92.0 C 8669.0,102.0 8695.0,108.0 8699.0,106.0 C 8703.0,103.0 8722.0,116.0 8740.0,135.0 C 8762.0,158.0 8783.0,170.0 8801.0,170.0 C 8819.0,170.0 8837.0,180.0 8853.0,200.0 C 8874.0,224.0 8887.0,230.0 8918.0,230.0 C 8942.0,230.0 8967.0,238.0 8983.0,250.0 C 9001.0,265.0 9023.0,270.0 9064.0,270.0 C 9094.0,270.0 9131.0,275.0 9145.0,282.0 C 9170.0,293.0 9170.0,294.0 9170.0,415.0 C 9170.0,483.0 9167.0,552.0 9164.0,570.0 C 9157.0,604.0 9154.0,604.0 9067.0,587.0 C 9061.0,586.0 9054.0,595.0 9052.0,607.0 C 9050.0,619.0 9033.0,640.0 9014.0,655.0 C 8949.0,705.0 8904.0,779.0 8842.0,940.0 C 8809.0,1025.0 8765.0,1149.0 8744.0,1215.0 C 8709.0,1327.0 8706.0,1345.0 8702.0,1481.0 L 8698.0,1627.0 L 8734.0,1698.0 C 8770.0,1769.0 8771.0,1770.0 8811.0,1770.0 C 8851.0,1770.0 8851.0,1770.0 8881.0,1837.0 C 8898.0,1873.0 8916.0,1931.0 8921.0,1964.0 C 8937.0,2070.0 8937.0,2070.0 8973.0,2070.0 C 9000.0,2070.0 9013.0,2079.0 9043.0,2115.0 C 9076.0,2154.0 9086.0,2160.0 9120.0,2160.0 C 9180.0,2160.0 9195.0,2189.0 9186.0,2287.0 C 9180.0,2346.0 9168.0,2388.0 9134.0,2466.0 C 9108.0,2527.0 9090.0,2583.0 9090.0,2606.0 C 9089.0,2706.0 9052.0,2770.0 8994.0,2770.0 C 8956.0,2770.0 8946.0,2745.0 8956.0,2680.0 C 8962.0,2641.0 8962.0,2640.0 8932.0,2640.0 C 8891.0,2640.0 8836.0,2688.0 8804.0,2751.0 C 8774.0,2811.0 8774.0,2828.0 8802.0,2832.0 C 8817.0,2834.0 8826.0,2845.0 8833.0,2870.0 C 8845.0,2917.0 8857.0,2930.0 8891.0,2930.0 C 8906.0,2930.0 8921.0,2934.0 8924.0,2938.0 C 8926.0,2942.0 8925.0,3004.0 8922.0,3074.0 L 8915.0,3203.0 L 8885.0,3214.0 C 8864.0,3222.0 8855.0,3230.0 8858.0,3242.0 C 8861.0,3257.0 8872.0,3260.0 8920.0,3260.0 C 8985.0,3260.0 8985.0,3261.0 8996.0,3338.0 C 9001.0,3377.0 8998.0,3395.0 8980.0,3429.0 C 8959.0,3470.0 8958.0,3471.0 8921.0,3465.0 C 8885.0,3459.0 8882.0,3461.0 8876.0,3486.0 C 8867.0,3518.0 8868.0,3519.0 8911.0,3521.0 C 8953.0,3524.0 9010.0,3489.0 9010.0,3460.0 C 9010.0,3450.0 9022.0,3432.0 9036.0,3421.0 C 9062.0,3401.0 9062.0,3399.0 9047.0,3368.0 C 9039.0,3350.0 9029.0,3314.0 9025.0,3288.0 C 9019.0,3246.0 9021.0,3238.0 9048.0,3203.0 C 9065.0,3182.0 9084.0,3143.0 9091.0,3117.0 C 9097.0,3091.0 9105.0,3072.0 9109.0,3075.0 C 9112.0,3079.0 9115.0,3206.0 9115.0,3358.0 L 9115.0,3635.0 L 9144.0,3710.0 C 9159.0,3751.0 9190.0,3808.0 9211.0,3837.0 C 9232.0,3866.0 9250.0,3901.0 9250.0,3915.0 C 9250.0,3937.0 9246.0,3940.0 9216.0,3940.0 C 9181.0,3940.0 9181.0,3940.0 9158.0,3863.0 C 9141.0,3806.0 9129.0,3784.0 9116.0,3782.0 C 9101.0,3779.0 9099.0,3782.0 9105.0,3796.0 C 9110.0,3807.0 9114.0,3833.0 9114.0,3855.0 L 9115.0,3895.0 L 9071.0,3892.0 C 9042.0,3890.0 9021.0,3895.0 9010.0,3905.0 C 8986.0,3927.0 8976.0,3984.0 8991.0,4012.0 C 9005.0,4038.0 9005.0,4066.0 8990.0,4160.0 L 8979.0,4225.0 L 8939.0,4222.0 L 8900.0,4218.0 L 8900.0,4278.0 C 8900.0,4364.0 8922.0,4390.0 8998.0,4390.0 C 9049.0,4390.0 9062.0,4395.0 9123.0,4436.0 C 9160.0,4461.0 9190.0,4489.0 9190.0,4496.0 C 9190.0,4504.0 9198.0,4513.0 9208.0,4517.0 C 9273.0,4541.0 9299.0,4590.0 9275.0,4647.0 C 9268.0,4664.0 9256.0,4713.0 9249.0,4755.0 C 9238.0,4827.0 9235.0,4833.0 9203.0,4848.0 C 9166.0,4866.0 9163.0,4875.0 9186.0,4901.0 C 9198.0,4915.0 9199.0,4923.0 9190.0,4940.0 C 9184.0,4952.0 9180.0,4962.0 9182.0,4963.0 C 9184.0,4964.0 9199.0,4978.0 9216.0,4993.0 C 9246.0,5020.0 9249.0,5021.0 9296.0,5009.0 C 9359.0,4994.0 9410.0,4956.0 9410.0,4925.0 C 9410.0,4912.0 9399.0,4889.0 9386.0,4873.0 C 9369.0,4853.0 9363.0,4836.0 9367.0,4818.0 C 9370.0,4804.0 9367.0,4721.0 9361.0,4633.0 C 9347.0,4445.0 9339.0,4430.0 9258.0,4430.0 L 9210.0,4430.0 L 9210.0,4317.0 C 9210.0,4208.0 9211.0,4202.0 9240.0,4156.0 C 9271.0,4108.0 9273.0,4070.0 9245.0,4070.0 C 9232.0,4070.0 9220.0,4040.0 9220.0,4003.0 C 9220.0,3974.0 9256.0,3972.0 9303.0,3997.0 C 9325.0,4009.0 9368.0,4016.0 9437.0,4020.0 C 9493.0,4023.0 9542.0,4029.0 9546.0,4033.0 C 9550.0,4037.0 9554.0,4076.0 9554.0,4120.0 C 9554.0,4188.0 9550.0,4205.0 9532.0,4228.0 C 9519.0,4243.0 9492.0,4290.0 9471.0,4332.0 C 9435.0,4404.0 9431.0,4418.0 9425.0,4525.0 C 9419.0,4614.0 9421.0,4660.0 9434.0,4728.0 C 9443.0,4776.0 9454.0,4869.0 9459.0,4935.0 C 9464.0,5008.0 9475.0,5073.0 9486.0,5102.0 C 9502.0,5142.0 9503.0,5155.0 9492.0,5202.0 C 9424.0,5509.0 9377.0,5770.0 9360.0,5940.0 C 9341.0,6124.0 9341.0,6145.0 9355.0,6278.0 C 9380.0,6521.0 9388.0,6560.0 9425.0,6620.0 C 9457.0,6674.0 9458.0,6678.0 9463.0,6815.0 C 9466.0,6924.0 9473.0,6976.0 9494.0,7053.0 C 9511.0,7119.0 9520.0,7175.0 9520.0,7228.0 C 9520.0,7283.0 9528.0,7334.0 9549.0,7408.0 C 9566.0,7465.0 9582.0,7532.0 9586.0,7558.0 C 9595.0,7623.0 9613.0,7655.0 9684.0,7731.0 C 9769.0,7822.0 9876.0,7966.0 9919.0,8047.0 C 9939.0,8084.0 9979.0,8152.0 10008.0,8198.0 C 10037.0,8243.0 10070.0,8305.0 10081.0,8334.0 C 10092.0,8364.0 10117.0,8410.0 10137.0,8436.0 L 10174.0,8484.0 L 10171.0,8605.0 C 10169.0,8717.0 10166.0,8730.0 10135.0,8800.0 C 10116.0,8841.0 10098.0,8900.0 10094.0,8930.0 C 10090.0,8962.0 10064.0,9038.0 10033.0,9110.0 C 9969.0,9255.0 9920.0,9437.0 9920.0,9527.0 C 9920.0,9582.0 9918.0,9590.0 9901.0,9590.0 C 9889.0,9590.0 9871.0,9572.0 9851.0,9540.0 C 9832.0,9510.0 9813.0,9490.0 9802.0,9490.0 C 9792.0,9490.0 9767.0,9507.0 9747.0,9528.0 C 9714.0,9562.0 9710.0,9571.0 9710.0,9618.0 C 9710.0,9667.0 9708.0,9670.0 9685.0,9670.0 C 9654.0,9670.0 9654.0,9672.0 9690.0,9745.0 C 9706.0,9778.0 9720.0,9810.0 9720.0,9815.0 C 9720.0,9826.0 9858.0,9901.0 9878.0,9900.0 C 9885.0,9900.0 9890.0,9886.0 9890.0,9863.0 C 9890.0,9842.0 9899.0,9812.0 9909.0,9796.0 C 9925.0,9773.0 9926.0,9763.0 9917.0,9749.0 C 9910.0,9738.0 9896.0,9730.0 9884.0,9730.0 C 9857.0,9730.0 9847.0,9708.0 9864.0,9684.0 C 9871.0,9675.0 9875.0,9658.0 9872.0,9648.0 C 9868.0,9631.0 9872.0,9629.0 9900.0,9632.0 C 9936.0,9635.0 9936.0,9635.0 10022.0,9820.0 C 10057.0,9895.0 10096.0,9962.0 10137.0,10012.0 L 10199.0,10089.0 L 10077.0,10083.0 L 9954.0,10077.0 L 9942.0,10104.0 C 9931.0,10128.0 9926.0,10130.0 9866.0,10130.0 C 9811.0,10130.0 9799.0,10133.0 9790.0,10150.0 C 9774.0,10179.0 9720.0,10177.0 9691.0,10146.0" fill="pink"/>
</svg>
