<?xml version="1.0" ?>
<svg xmlns="http://www.w3.org/2000/svg" xmlns:ev="http://www.w3.org/2001/xml-events" xmlns:xlink="http://www.w3.org/1999/xlink" baseProfile="full" height="600px" version="1.1" viewBox="-139.67367147998402 -1025.478830992581 10527.552322198631 12293.637108877618" width="514px">
	<defs/>
	<path d="M 7390.0,10215.0 C 7361.0,10199.0 7328.0,10191.0 7297.0,10190.0 C 7227.0,10190.0 7090.0,10152.0 7053.0,10124.0 C 7023.0,10101.0 7008.0,10060.0 7029.0,10060.0 C 7034.0,10060.0 7042.0,10051.0 7045.0,10040.0 C 7053.0,10013.0 7068.0,10015.0 7100.0,10045.0 C 7120.0,10064.0 7145.0,10072.0 7224.0,10084.0 C 7294.0,10095.0 7329.0,10105.0 7344.0,10119.0 C 7356.0,10130.0 7383.0,10147.0 7405.0,10156.0 C 7459.0,10178.0 7500.0,10208.0 7500.0,10226.0 C 7500.0,10248.0 7441.0,10242.0 7390.0,10215.0" fill="pink"/>
	<path d="M 8571.0,10076.0 C 8559.0,10062.0 8537.0,10060.0 8431.0,10062.0 L 8305.0,10065.0 L 8160.0,10002.0 C 8047.0,9953.0 7997.0,9937.0 7935.0,9929.0 C 7891.0,9924.0 7830.0,9915.0 7799.0,9910.0 C 7769.0,9904.0 7724.0,9900.0 7701.0,9900.0 C 7670.0,9900.0 7643.0,9891.0 7611.0,9871.0 C 7527.0,9820.0 7505.0,9816.0 7409.0,9834.0 C 7362.0,9843.0 7302.0,9850.0 7275.0,9850.0 L 7226.0,9850.0 L 7255.0,9820.0 C 7281.0,9793.0 7282.0,9790.0 7264.0,9790.0 C 7253.0,9790.0 7235.0,9797.0 7224.0,9805.0 C 7196.0,9827.0 7190.0,9823.0 7190.0,9786.0 C 7190.0,9743.0 7219.0,9720.0 7272.0,9720.0 L 7310.0,9720.0 L 7304.0,9680.0 C 7297.0,9636.0 7293.0,9639.0 7381.0,9621.0 C 7431.0,9610.0 7442.0,9603.0 7476.0,9560.0 C 7498.0,9533.0 7526.0,9509.0 7540.0,9505.0 C 7562.0,9499.0 7563.0,9497.0 7547.0,9489.0 C 7526.0,9477.0 7477.0,9508.0 7458.0,9546.0 C 7449.0,9565.0 7428.0,9578.0 7386.0,9592.0 C 7322.0,9613.0 7300.0,9611.0 7300.0,9583.0 C 7299.0,9573.0 7288.0,9587.0 7273.0,9614.0 L 7248.0,9664.0 L 7234.0,9639.0 C 7224.0,9621.0 7221.0,9619.0 7220.0,9633.0 C 7220.0,9654.0 7192.0,9656.0 7183.0,9634.0 C 7180.0,9626.0 7188.0,9608.0 7201.0,9593.0 L 7225.0,9567.0 L 7200.0,9573.0 C 7186.0,9577.0 7170.0,9580.0 7163.0,9580.0 C 7156.0,9580.0 7148.0,9597.0 7145.0,9618.0 C 7141.0,9638.0 7134.0,9675.0 7128.0,9700.0 C 7120.0,9736.0 7121.0,9752.0 7133.0,9781.0 C 7158.0,9841.0 7150.0,9844.0 6988.0,9837.0 C 6841.0,9830.0 6782.0,9818.0 6600.0,9762.0 C 6509.0,9733.0 6166.0,9563.0 6059.0,9492.0 C 6027.0,9471.0 5996.0,9460.0 5949.0,9455.0 C 5874.0,9447.0 5840.0,9425.0 5786.0,9352.0 C 5766.0,9324.0 5711.0,9275.0 5658.0,9237.0 C 5607.0,9200.0 5555.0,9162.0 5543.0,9153.0 C 5512.0,9128.0 5491.0,9053.0 5480.0,8929.0 C 5469.0,8808.0 5461.0,8782.0 5420.0,8730.0 C 5383.0,8684.0 5379.0,8623.0 5410.0,8580.0 C 5440.0,8538.0 5421.0,8535.0 5378.0,8577.0 C 5357.0,8597.0 5338.0,8611.0 5335.0,8608.0 C 5328.0,8601.0 5394.0,8466.0 5421.0,8432.0 C 5435.0,8413.0 5437.0,8397.0 5433.0,8337.0 C 5429.0,8283.0 5431.0,8256.0 5442.0,8235.0 C 5451.0,8218.0 5460.0,8184.0 5464.0,8159.0 C 5470.0,8117.0 5469.0,8112.0 5450.0,8107.0 C 5430.0,8102.0 5429.0,8097.0 5435.0,8045.0 L 5442.0,7989.0 L 5391.0,7942.0 C 5363.0,7916.0 5340.0,7888.0 5340.0,7880.0 C 5341.0,7853.0 5364.0,7822.0 5410.0,7786.0 C 5459.0,7747.0 5508.0,7739.0 5530.0,7765.0 C 5547.0,7786.0 5616.0,7784.0 5648.0,7762.0 C 5726.0,7708.0 5825.0,7695.0 5862.0,7732.0 C 5875.0,7745.0 5892.0,7753.0 5902.0,7752.0 C 5911.0,7750.0 5932.0,7756.0 5949.0,7764.0 C 5986.0,7784.0 6000.0,7784.0 6000.0,7765.0 C 6000.0,7742.0 6034.0,7730.0 6100.0,7730.0 C 6156.0,7730.0 6160.0,7729.0 6151.0,7711.0 C 6143.0,7698.0 6126.0,7691.0 6086.0,7688.0 C 6039.0,7684.0 6028.0,7679.0 6003.0,7650.0 C 5988.0,7632.0 5972.0,7608.0 5968.0,7598.0 C 5964.0,7588.0 5943.0,7554.0 5921.0,7522.0 L 5882.0,7464.0 L 5875.0,7264.0 L 5868.0,7065.0 L 5907.0,7011.0 C 5928.0,6981.0 5970.0,6938.0 6000.0,6914.0 L 6055.0,6871.0 L 6175.0,6869.0 C 6287.0,6867.0 6303.0,6869.0 6410.0,6902.0 C 6473.0,6922.0 6563.0,6943.0 6609.0,6950.0 C 6696.0,6963.0 6696.0,6964.0 6753.0,7031.0 C 6768.0,7048.0 6770.0,7048.0 6809.0,7027.0 C 6832.0,7015.0 6849.0,6998.0 6849.0,6990.0 C 6849.0,6982.0 6832.0,6961.0 6811.0,6943.0 C 6777.0,6914.0 6768.0,6911.0 6675.0,6905.0 C 6584.0,6900.0 6491.0,6882.0 6433.0,6859.0 C 6415.0,6852.0 6410.0,6842.0 6410.0,6816.0 C 6410.0,6797.0 6404.0,6779.0 6398.0,6776.0 C 6388.0,6771.0 6388.0,6769.0 6398.0,6764.0 C 6418.0,6755.0 6455.0,6663.0 6470.0,6589.0 C 6483.0,6525.0 6482.0,6520.0 6454.0,6439.0 C 6398.0,6277.0 6250.0,6092.0 6150.0,6059.0 C 6131.0,6052.0 6096.0,6030.0 6072.0,6009.0 C 6048.0,5988.0 6017.0,5970.0 6002.0,5968.0 C 5985.0,5966.0 5968.0,5953.0 5955.0,5934.0 C 5944.0,5917.0 5918.0,5890.0 5897.0,5875.0 C 5854.0,5845.0 5828.0,5794.0 5809.0,5707.0 C 5798.0,5658.0 5790.0,5643.0 5756.0,5615.0 C 5721.0,5587.0 5696.0,5578.0 5583.0,5554.0 L 5451.0,5527.0 L 5394.0,5576.0 C 5345.0,5617.0 5328.0,5626.0 5286.0,5630.0 C 5237.0,5635.0 5234.0,5637.0 5207.0,5687.0 C 5173.0,5751.0 5138.0,5765.0 5038.0,5757.0 C 5000.0,5754.0 4944.0,5755.0 4912.0,5760.0 C 4861.0,5768.0 4850.0,5774.0 4810.0,5820.0 C 4773.0,5861.0 4759.0,5870.0 4732.0,5870.0 C 4713.0,5870.0 4685.0,5862.0 4670.0,5853.0 C 4646.0,5839.0 4639.0,5839.0 4626.0,5850.0 C 4617.0,5857.0 4611.0,5870.0 4612.0,5879.0 C 4614.0,5891.0 4606.0,5896.0 4580.0,5898.0 C 4537.0,5902.0 4486.0,5939.0 4495.0,5960.0 C 4498.0,5968.0 4524.0,5986.0 4551.0,5999.0 C 4588.0,6016.0 4609.0,6035.0 4631.0,6069.0 C 4647.0,6095.0 4671.0,6122.0 4685.0,6128.0 C 4699.0,6134.0 4710.0,6148.0 4710.0,6158.0 C 4710.0,6183.0 4803.0,6270.0 4830.0,6270.0 C 4858.0,6270.0 4855.0,6296.0 4823.0,6334.0 C 4807.0,6351.0 4788.0,6377.0 4779.0,6390.0 L 4762.0,6415.0 L 4767.0,6388.0 C 4773.0,6358.0 4747.0,6264.0 4725.0,6236.0 C 4713.0,6220.0 4708.0,6219.0 4695.0,6230.0 C 4686.0,6238.0 4669.0,6261.0 4658.0,6283.0 C 4637.0,6325.0 4643.0,6340.0 4683.0,6340.0 C 4696.0,6340.0 4700.0,6349.0 4700.0,6381.0 C 4700.0,6406.0 4709.0,6436.0 4721.0,6456.0 L 4741.0,6490.0 L 4715.0,6514.0 C 4695.0,6532.0 4685.0,6557.0 4673.0,6617.0 C 4665.0,6660.0 4652.0,6702.0 4645.0,6710.0 C 4627.0,6731.0 4590.0,6848.0 4590.0,6882.0 C 4590.0,6898.0 4597.0,6925.0 4606.0,6942.0 C 4621.0,6971.0 4624.0,6972.0 4670.0,6967.0 C 4699.0,6963.0 4722.0,6966.0 4729.0,6973.0 C 4744.0,6988.0 4810.0,6956.0 4817.0,6930.0 C 4821.0,6914.0 4831.0,6910.0 4867.0,6910.0 C 4905.0,6910.0 4922.0,6918.0 4982.0,6962.0 C 5052.0,7014.0 5070.0,7039.0 5070.0,7086.0 C 5070.0,7125.0 5112.0,7160.0 5157.0,7160.0 C 5189.0,7160.0 5199.0,7165.0 5212.0,7188.0 C 5227.0,7214.0 5227.0,7216.0 5204.0,7243.0 C 5191.0,7259.0 5180.0,7284.0 5180.0,7300.0 C 5180.0,7358.0 5163.0,7377.0 5105.0,7385.0 C 5075.0,7388.0 5046.0,7398.0 5039.0,7406.0 C 5033.0,7414.0 5015.0,7420.0 4999.0,7420.0 C 4977.0,7420.0 4967.0,7413.0 4955.0,7390.0 C 4943.0,7366.0 4933.0,7360.0 4907.0,7360.0 C 4861.0,7360.0 4835.0,7382.0 4820.0,7434.0 C 4808.0,7477.0 4810.0,7574.0 4826.0,7662.0 C 4835.0,7714.0 4792.0,7829.0 4735.0,7904.0 C 4710.0,7938.0 4685.0,7986.0 4676.0,8020.0 C 4660.0,8075.0 4658.0,8078.0 4622.0,8084.0 C 4525.0,8100.0 4472.0,8085.0 4436.0,8030.0 C 4422.0,8008.0 4387.0,7977.0 4359.0,7961.0 C 4317.0,7937.0 4303.0,7934.0 4277.0,7941.0 C 4259.0,7945.0 4228.0,7952.0 4207.0,7955.0 C 4151.0,7964.0 4090.0,8022.0 4090.0,8066.0 C 4090.0,8085.0 4095.0,8108.0 4101.0,8118.0 C 4109.0,8131.0 4110.0,8146.0 4103.0,8166.0 C 4092.0,8200.0 4056.0,8208.0 3990.0,8190.0 C 3931.0,8174.0 3910.0,8136.0 3910.0,8040.0 C 3910.0,7963.0 3864.0,7712.0 3836.0,7631.0 C 3827.0,7607.0 3805.0,7562.0 3786.0,7531.0 C 3758.0,7484.0 3752.0,7462.0 3747.0,7395.0 C 3744.0,7351.0 3734.0,7294.0 3725.0,7268.0 C 3711.0,7229.0 3710.0,7206.0 3718.0,7133.0 C 3726.0,7054.0 3725.0,7043.0 3708.0,7021.0 C 3694.0,7002.0 3690.0,6980.0 3690.0,6915.0 C 3690.0,6867.0 3684.0,6815.0 3675.0,6790.0 C 3667.0,6767.0 3655.0,6718.0 3649.0,6682.0 C 3644.0,6645.0 3626.0,6573.0 3611.0,6520.0 C 3595.0,6468.0 3579.0,6398.0 3576.0,6365.0 C 3563.0,6260.0 3531.0,6149.0 3468.0,5995.0 C 3403.0,5838.0 3177.0,5399.0 3107.0,5295.0 C 3046.0,5204.0 2956.0,5088.0 2925.0,5060.0 C 2910.0,5046.0 2872.0,5004.0 2841.0,4965.0 C 2810.0,4927.0 2739.0,4850.0 2682.0,4796.0 C 2624.0,4739.0 2573.0,4681.0 2563.0,4659.0 C 2553.0,4635.0 2539.0,4620.0 2529.0,4620.0 C 2498.0,4620.0 2460.0,4597.0 2460.0,4579.0 C 2460.0,4568.0 2493.0,4541.0 2552.0,4505.0 C 2603.0,4473.0 2663.0,4433.0 2685.0,4416.0 C 2752.0,4362.0 2846.0,4301.0 2873.0,4295.0 C 2887.0,4291.0 2908.0,4278.0 2920.0,4265.0 L 2941.0,4242.0 L 2883.0,4255.0 C 2851.0,4261.0 2808.0,4277.0 2788.0,4289.0 L 2750.0,4312.0 L 2750.0,4283.0 L 2750.0,4255.0 L 2710.0,4300.0 C 2688.0,4325.0 2657.0,4362.0 2643.0,4384.0 C 2609.0,4432.0 2574.0,4447.0 2549.0,4424.0 C 2533.0,4409.0 2530.0,4409.0 2530.0,4422.0 C 2530.0,4438.0 2493.0,4490.0 2482.0,4490.0 C 2457.0,4489.0 2451.0,4472.0 2459.0,4422.0 C 2466.0,4376.0 2465.0,4370.0 2449.0,4370.0 C 2418.0,4370.0 2393.0,4419.0 2398.0,4470.0 C 2400.0,4495.0 2407.0,4520.0 2412.0,4527.0 C 2423.0,4541.0 2388.0,4580.0 2364.0,4580.0 C 2291.0,4580.0 2265.0,4448.0 2316.0,4336.0 C 2339.0,4286.0 2340.0,4277.0 2329.0,4246.0 C 2318.0,4214.0 2319.0,4209.0 2343.0,4180.0 C 2383.0,4133.0 2390.0,4084.0 2365.0,4027.0 C 2359.0,4013.0 2363.0,4010.0 2388.0,4010.0 C 2405.0,4010.0 2423.0,4004.0 2427.0,3996.0 C 2436.0,3981.0 2500.0,3960.0 2538.0,3960.0 C 2575.0,3960.0 2736.0,3851.0 2759.0,3810.0 C 2789.0,3756.0 2819.0,3735.0 2895.0,3710.0 C 2934.0,3697.0 3003.0,3668.0 3050.0,3645.0 C 3097.0,3622.0 3160.0,3595.0 3190.0,3586.0 C 3220.0,3576.0 3265.0,3561.0 3290.0,3553.0 C 3449.0,3498.0 3488.0,3500.0 3581.0,3566.0 C 3616.0,3590.0 3658.0,3618.0 3674.0,3628.0 C 3690.0,3637.0 3718.0,3658.0 3736.0,3674.0 L 3770.0,3702.0 L 3770.0,3666.0 C 3770.0,3646.0 3773.0,3630.0 3778.0,3630.0 C 3792.0,3630.0 3885.0,3688.0 3904.0,3709.0 C 3933.0,3741.0 3942.0,3734.0 3923.0,3695.0 C 3898.0,3642.0 3916.0,3641.0 3964.0,3693.0 C 4010.0,3743.0 4032.0,3753.0 4023.0,3720.0 C 4018.0,3701.0 4021.0,3700.0 4061.0,3706.0 C 4085.0,3709.0 4111.0,3714.0 4118.0,3716.0 C 4128.0,3719.0 4129.0,3714.0 4124.0,3698.0 C 4119.0,3680.0 4121.0,3678.0 4136.0,3685.0 C 4147.0,3689.0 4167.0,3695.0 4183.0,3698.0 C 4217.0,3703.0 4221.0,3677.0 4188.0,3659.0 L 4167.0,3647.0 L 4189.0,3636.0 L 4211.0,3624.0 L 4190.0,3605.0 C 4178.0,3594.0 4171.0,3578.0 4173.0,3568.0 C 4178.0,3552.0 4171.0,3550.0 4126.0,3550.0 C 4097.0,3550.0 4049.0,3557.0 4019.0,3566.0 C 3985.0,3577.0 3929.0,3583.0 3865.0,3582.0 C 3765.0,3582.0 3765.0,3582.0 3660.0,3532.0 C 3554.0,3481.0 3457.0,3450.0 3402.0,3450.0 C 3386.0,3450.0 3353.0,3457.0 3330.0,3465.0 C 3285.0,3481.0 3233.0,3484.0 3181.0,3474.0 C 3157.0,3469.0 3142.0,3455.0 3115.0,3410.0 C 3084.0,3359.0 3073.0,3350.0 2998.0,3314.0 C 2922.0,3278.0 2907.0,3275.0 2816.0,3272.0 C 2724.0,3268.0 2714.0,3270.0 2651.0,3298.0 C 2554.0,3343.0 2515.0,3348.0 2484.0,3319.0 C 2455.0,3292.0 2453.0,3269.0 2479.0,3246.0 C 2490.0,3236.0 2501.0,3217.0 2505.0,3203.0 C 2511.0,3179.0 2512.0,3178.0 2578.0,3185.0 C 2627.0,3189.0 2649.0,3188.0 2661.0,3178.0 C 2679.0,3164.0 2710.0,3090.0 2710.0,3062.0 C 2710.0,3053.0 2726.0,3035.0 2745.0,3022.0 C 2787.0,2996.0 2788.0,2979.0 2759.0,2891.0 C 2739.0,2832.0 2739.0,2828.0 2755.0,2810.0 C 2765.0,2799.0 2781.0,2788.0 2791.0,2785.0 C 2802.0,2781.0 2810.0,2772.0 2810.0,2763.0 C 2810.0,2755.0 2818.0,2736.0 2829.0,2722.0 C 2839.0,2707.0 2858.0,2671.0 2870.0,2643.0 C 2896.0,2583.0 2888.0,2560.0 2841.0,2560.0 C 2827.0,2560.0 2800.0,2556.0 2782.0,2551.0 C 2764.0,2545.0 2693.0,2540.0 2625.0,2538.0 L 2501.0,2535.0 L 2456.0,2579.0 C 2431.0,2604.0 2395.0,2653.0 2376.0,2689.0 C 2315.0,2805.0 2257.0,2852.0 2147.0,2876.0 C 2104.0,2886.0 2070.0,2898.0 2070.0,2905.0 C 2070.0,2912.0 2061.0,2925.0 2051.0,2934.0 C 2033.0,2950.0 2011.0,2952.0 1843.0,2948.0 C 1642.0,2945.0 1638.0,2944.0 1566.0,2886.0 C 1521.0,2850.0 1485.0,2855.0 1475.0,2899.0 C 1472.0,2915.0 1460.0,2936.0 1449.0,2946.0 C 1412.0,2980.0 1360.0,3057.0 1360.0,3079.0 C 1360.0,3122.0 1387.0,3111.0 1458.0,3040.0 C 1522.0,2977.0 1529.0,2967.0 1523.0,2940.0 C 1516.0,2902.0 1527.0,2902.0 1575.0,2940.0 C 1596.0,2957.0 1625.0,2974.0 1639.0,2977.0 C 1675.0,2987.0 1817.0,2986.0 1862.0,2976.0 C 1890.0,2969.0 1909.0,2972.0 1937.0,2985.0 C 1958.0,2995.0 1978.0,3007.0 1981.0,3012.0 C 1985.0,3018.0 1971.0,3054.0 1951.0,3094.0 L 1914.0,3165.0 L 1790.0,3163.0 C 1721.0,3161.0 1620.0,3158.0 1565.0,3155.0 C 1510.0,3151.0 1411.0,3148.0 1345.0,3146.0 C 1205.0,3143.0 1230.0,3154.0 1014.0,3010.0 C 991.0,2994.0 962.0,2979.0 949.0,2975.0 C 888.0,2956.0 872.0,2904.0 913.0,2860.0 C 926.0,2846.0 966.0,2816.0 1001.0,2792.0 C 1056.0,2757.0 1073.0,2738.0 1110.0,2674.0 C 1165.0,2578.0 1184.0,2565.0 1275.0,2565.0 C 1337.0,2565.0 1350.0,2569.0 1394.0,2597.0 C 1450.0,2634.0 1480.0,2640.0 1474.0,2612.0 C 1469.0,2591.0 1477.0,2580.0 1513.0,2557.0 C 1530.0,2546.0 1540.0,2531.0 1540.0,2516.0 C 1540.0,2483.0 1572.0,2459.0 1627.0,2449.0 C 1653.0,2444.0 1680.0,2434.0 1685.0,2426.0 C 1691.0,2419.0 1709.0,2406.0 1726.0,2397.0 C 1743.0,2388.0 1762.0,2374.0 1769.0,2366.0 C 1786.0,2345.0 1809.0,2346.0 1833.0,2367.0 C 1846.0,2380.0 1870.0,2385.0 1912.0,2386.0 C 1981.0,2387.0 1982.0,2388.0 2006.0,2480.0 C 2026.0,2556.0 2058.0,2596.0 2113.0,2611.0 C 2155.0,2622.0 2142.0,2630.0 2273.0,2519.0 C 2372.0,2436.0 2436.0,2399.0 2502.0,2388.0 C 2561.0,2377.0 2569.0,2378.0 2596.0,2397.0 C 2614.0,2410.0 2647.0,2419.0 2684.0,2422.0 L 2742.0,2427.0 L 2757.0,2393.0 C 2767.0,2367.0 2768.0,2355.0 2760.0,2345.0 C 2741.0,2323.0 2846.0,2304.0 2906.0,2319.0 C 2954.0,2331.0 2969.0,2325.0 2970.0,2294.0 C 2970.0,2283.0 3042.0,2239.0 3079.0,2228.0 C 3093.0,2224.0 3118.0,2227.0 3141.0,2237.0 C 3178.0,2251.0 3180.0,2255.0 3180.0,2295.0 C 3180.0,2325.0 3174.0,2342.0 3159.0,2356.0 C 3113.0,2398.0 3099.0,2456.0 3121.0,2518.0 C 3129.0,2543.0 3128.0,2553.0 3114.0,2575.0 C 3105.0,2589.0 3099.0,2602.0 3101.0,2604.0 C 3103.0,2606.0 3179.0,2633.0 3269.0,2664.0 L 3434.0,2721.0 L 3462.0,2693.0 L 3490.0,2665.0 L 3465.0,2612.0 C 3433.0,2543.0 3433.0,2515.0 3465.0,2494.0 C 3488.0,2479.0 3492.0,2479.0 3508.0,2492.0 C 3539.0,2519.0 3576.0,2522.0 3612.0,2500.0 C 3648.0,2478.0 3694.0,2474.0 3734.0,2490.0 C 3755.0,2498.0 3760.0,2506.0 3760.0,2533.0 C 3760.0,2573.0 3772.0,2590.0 3828.0,2624.0 C 3852.0,2639.0 3881.0,2667.0 3892.0,2686.0 C 3917.0,2729.0 3957.0,2750.0 4025.0,2757.0 C 4093.0,2764.0 4137.0,2746.0 4149.0,2705.0 C 4168.0,2642.0 4169.0,2623.0 4155.0,2603.0 C 4147.0,2592.0 4136.0,2562.0 4129.0,2536.0 C 4120.0,2499.0 4114.0,2490.0 4101.0,2495.0 C 4074.0,2506.0 4012.0,2513.0 3996.0,2507.0 C 3972.0,2497.0 3996.0,2453.0 4029.0,2447.0 C 4103.0,2432.0 4179.0,2429.0 4218.0,2439.0 C 4259.0,2451.0 4260.0,2450.0 4291.0,2415.0 C 4308.0,2396.0 4329.0,2380.0 4337.0,2380.0 C 4361.0,2380.0 4498.0,2508.0 4519.0,2549.0 C 4530.0,2569.0 4543.0,2604.0 4549.0,2627.0 C 4556.0,2651.0 4572.0,2678.0 4587.0,2690.0 L 4613.0,2711.0 L 4639.0,2686.0 C 4653.0,2672.0 4677.0,2659.0 4691.0,2655.0 C 4714.0,2649.0 4718.0,2641.0 4728.0,2586.0 C 4744.0,2502.0 4743.0,2449.0 4725.0,2426.0 C 4703.0,2397.0 4707.0,2356.0 4733.0,2323.0 C 4778.0,2268.0 4840.0,2159.0 4848.0,2122.0 L 4856.0,2085.0 L 4945.0,2072.0 C 5016.0,2062.0 5040.0,2054.0 5059.0,2035.0 C 5082.0,2012.0 5083.0,2008.0 5073.0,1953.0 C 5067.0,1921.0 5065.0,1891.0 5069.0,1887.0 C 5081.0,1875.0 5301.0,1900.0 5333.0,1917.0 C 5355.0,1928.0 5368.0,1929.0 5389.0,1921.0 C 5403.0,1915.0 5434.0,1906.0 5457.0,1901.0 C 5496.0,1893.0 5501.0,1894.0 5515.0,1917.0 C 5524.0,1931.0 5553.0,1951.0 5580.0,1962.0 C 5609.0,1974.0 5630.0,1990.0 5633.0,2002.0 C 5638.0,2019.0 5644.0,2021.0 5672.0,2015.0 C 5716.0,2005.0 5713.0,2008.0 5766.0,1939.0 C 5807.0,1886.0 5813.0,1872.0 5817.0,1817.0 C 5823.0,1744.0 5830.0,1737.0 5925.0,1715.0 C 5964.0,1706.0 6002.0,1696.0 6011.0,1694.0 C 6020.0,1691.0 6034.0,1675.0 6041.0,1658.0 C 6063.0,1605.0 6101.0,1590.0 6217.0,1590.0 L 6318.0,1590.0 L 6330.0,1553.0 C 6337.0,1532.0 6346.0,1511.0 6350.0,1507.0 C 6354.0,1502.0 6381.0,1510.0 6409.0,1524.0 L 6460.0,1550.0 L 6469.0,1528.0 C 6491.0,1467.0 6490.0,1455.0 6459.0,1425.0 C 6414.0,1383.0 6405.0,1352.0 6430.0,1325.0 C 6456.0,1297.0 6456.0,1293.0 6420.0,1275.0 C 6396.0,1262.0 6391.0,1255.0 6396.0,1236.0 C 6404.0,1201.0 6376.0,1142.0 6349.0,1138.0 C 6335.0,1136.0 6318.0,1121.0 6306.0,1101.0 L 6286.0,1067.0 L 6318.0,1040.0 C 6358.0,1007.0 6356.0,1000.0 6284.0,903.0 C 6217.0,813.0 6215.0,780.0 6275.0,768.0 C 6306.0,763.0 6304.0,739.0 6263.0,666.0 C 6233.0,612.0 6218.0,595.0 6188.0,583.0 C 6163.0,573.0 6148.0,559.0 6140.0,537.0 C 6133.0,519.0 6125.0,497.0 6122.0,488.0 C 6118.0,479.0 6099.0,460.0 6080.0,447.0 C 6047.0,425.0 6045.0,421.0 6045.0,364.0 C 6045.0,297.0 6064.0,263.0 6117.0,233.0 C 6164.0,208.0 6169.0,170.0 6144.0,58.0 C 6139.0,35.0 6141.0,30.0 6157.0,30.0 C 6168.0,30.0 6185.0,36.0 6195.0,44.0 C 6212.0,56.0 6217.0,56.0 6238.0,39.0 C 6269.0,15.0 6276.0,20.0 6284.0,69.0 C 6293.0,126.0 6313.0,128.0 6372.0,75.0 L 6422.0,30.0 L 6462.0,51.0 C 6493.0,67.0 6505.0,69.0 6516.0,59.0 C 6529.0,48.0 6560.0,50.0 6607.0,65.0 C 6624.0,71.0 6629.0,67.0 6632.0,48.0 C 6634.0,31.0 6640.0,26.0 6655.0,29.0 C 6666.0,31.0 6708.0,35.0 6748.0,37.0 C 6814.0,41.0 6825.0,39.0 6845.0,20.0 C 6864.0,2.0 6874.0,0.0 6896.0,7.0 C 6911.0,12.0 6927.0,26.0 6931.0,37.0 C 6943.0,69.0 6902.0,141.0 6862.0,160.0 C 6842.0,169.0 6830.0,182.0 6830.0,195.0 C 6830.0,213.0 6835.0,215.0 6884.0,212.0 C 6949.0,208.0 6960.0,224.0 6932.0,281.0 L 6913.0,319.0 L 6947.0,357.0 C 6979.0,392.0 6983.0,393.0 7012.0,382.0 C 7030.0,376.0 7044.0,371.0 7044.0,373.0 C 7045.0,374.0 7053.0,392.0 7064.0,412.0 C 7082.0,447.0 7082.0,451.0 7066.0,475.0 C 7053.0,494.0 7050.0,512.0 7055.0,539.0 C 7058.0,559.0 7057.0,588.0 7051.0,603.0 C 7041.0,630.0 6980.0,675.0 6944.0,682.0 C 6929.0,684.0 6923.0,697.0 6918.0,740.0 C 6911.0,793.0 6912.0,796.0 6940.0,821.0 C 6970.0,846.0 6970.0,847.0 6950.0,865.0 C 6934.0,879.0 6923.0,881.0 6893.0,875.0 C 6872.0,870.0 6824.0,866.0 6785.0,864.0 C 6746.0,863.0 6698.0,855.0 6678.0,846.0 C 6657.0,837.0 6631.0,830.0 6618.0,830.0 C 6597.0,830.0 6597.0,830.0 6623.0,858.0 L 6650.0,886.0 L 6619.0,949.0 C 6603.0,985.0 6573.0,1035.0 6554.0,1062.0 L 6518.0,1110.0 L 6552.0,1110.0 C 6605.0,1110.0 6626.0,1120.0 6636.0,1148.0 C 6646.0,1175.0 6646.0,1175.0 6675.0,1123.0 C 6698.0,1083.0 6711.0,1070.0 6728.0,1070.0 C 6758.0,1070.0 6794.0,1109.0 6824.0,1175.0 C 6849.0,1231.0 6897.0,1272.0 6994.0,1320.0 C 7035.0,1341.0 7046.0,1352.0 7057.0,1386.0 C 7067.0,1415.0 7078.0,1430.0 7093.0,1433.0 C 7105.0,1436.0 7145.0,1451.0 7183.0,1466.0 C 7257.0,1497.0 7266.0,1514.0 7228.0,1552.0 L 7206.0,1574.0 L 7228.0,1588.0 C 7240.0,1596.0 7250.0,1609.0 7250.0,1616.0 C 7250.0,1633.0 7219.0,1627.0 7152.0,1598.0 C 7107.0,1579.0 7073.0,1576.0 7046.0,1586.0 C 7024.0,1594.0 7023.0,1712.0 7045.0,1730.0 C 7064.0,1746.0 7064.0,1763.0 7044.0,1801.0 C 7029.0,1832.0 7029.0,1832.0 7069.0,1873.0 C 7159.0,1966.0 7199.0,2018.0 7228.0,2083.0 C 7249.0,2129.0 7264.0,2150.0 7277.0,2150.0 C 7305.0,2151.0 7384.0,2295.0 7375.0,2329.0 C 7371.0,2343.0 7368.0,2372.0 7368.0,2393.0 C 7368.0,2427.0 7366.0,2430.0 7339.0,2430.0 C 7304.0,2430.0 7291.0,2454.0 7313.0,2478.0 C 7341.0,2509.0 7345.0,2631.0 7321.0,2754.0 C 7309.0,2813.0 7297.0,2867.0 7293.0,2874.0 C 7289.0,2880.0 7241.0,2941.0 7187.0,3009.0 L 7088.0,3133.0 L 7094.0,3179.0 C 7097.0,3204.0 7103.0,3251.0 7106.0,3282.0 L 7112.0,3338.0 L 7074.0,3358.0 C 7052.0,3368.0 7011.0,3385.0 6981.0,3396.0 C 6922.0,3417.0 6910.0,3435.0 6910.0,3500.0 C 6910.0,3526.0 6916.0,3542.0 6926.0,3548.0 C 6941.0,3557.0 6941.0,3560.0 6924.0,3588.0 C 6903.0,3624.0 6829.0,3660.0 6776.0,3660.0 C 6757.0,3660.0 6740.0,3666.0 6738.0,3672.0 C 6730.0,3694.0 6752.0,3749.0 6770.0,3755.0 C 6786.0,3760.0 6801.0,3784.0 6814.0,3823.0 C 6821.0,3845.0 6791.0,3907.0 6757.0,3938.0 C 6717.0,3975.0 6736.0,4020.0 6792.0,4020.0 C 6833.0,4020.0 6901.0,4049.0 6935.0,4081.0 C 6974.0,4118.0 6991.0,4117.0 7053.0,4079.0 C 7097.0,4052.0 7111.0,4048.0 7157.0,4052.0 C 7186.0,4055.0 7213.0,4060.0 7216.0,4063.0 C 7223.0,4070.0 7185.0,4166.0 7166.0,4189.0 C 7160.0,4197.0 7140.0,4209.0 7123.0,4217.0 C 7085.0,4233.0 7081.0,4247.0 7113.0,4255.0 C 7229.0,4281.0 7245.0,4280.0 7255.0,4242.0 C 7258.0,4227.0 7273.0,4203.0 7287.0,4188.0 C 7319.0,4155.0 7403.0,4141.0 7451.0,4161.0 C 7481.0,4173.0 7484.0,4172.0 7514.0,4138.0 C 7549.0,4099.0 7589.0,4079.0 7617.0,4086.0 C 7629.0,4090.0 7652.0,4077.0 7682.0,4051.0 C 7707.0,4028.0 7738.0,4010.0 7750.0,4010.0 C 7771.0,4010.0 7772.0,4013.0 7767.0,4067.0 C 7764.0,4099.0 7759.0,4135.0 7755.0,4148.0 C 7749.0,4165.0 7752.0,4170.0 7764.0,4170.0 C 7773.0,4170.0 7783.0,4163.0 7786.0,4155.0 C 7790.0,4146.0 7805.0,4140.0 7826.0,4140.0 C 7844.0,4140.0 7878.0,4133.0 7900.0,4124.0 C 7948.0,4104.0 7968.0,4110.0 7972.0,4145.0 C 7974.0,4167.0 7984.0,4175.0 8031.0,4190.0 C 8062.0,4201.0 8120.0,4227.0 8161.0,4249.0 C 8202.0,4270.0 8275.0,4300.0 8324.0,4315.0 C 8402.0,4338.0 8416.0,4340.0 8438.0,4328.0 C 8452.0,4321.0 8482.0,4315.0 8506.0,4315.0 C 8541.0,4315.0 8555.0,4321.0 8585.0,4350.0 C 8631.0,4394.0 8642.0,4415.0 8649.0,4465.0 C 8655.0,4502.0 8659.0,4506.0 8698.0,4518.0 C 8738.0,4531.0 8740.0,4534.0 8740.0,4570.0 C 8740.0,4601.0 8733.0,4614.0 8701.0,4643.0 C 8679.0,4663.0 8648.0,4686.0 8632.0,4694.0 C 8615.0,4703.0 8592.0,4725.0 8581.0,4744.0 C 8563.0,4772.0 8550.0,4780.0 8509.0,4789.0 C 8482.0,4795.0 8450.0,4800.0 8440.0,4800.0 C 8423.0,4800.0 8420.0,4807.0 8420.0,4849.0 C 8420.0,4894.0 8423.0,4902.0 8453.0,4924.0 C 8472.0,4939.0 8497.0,4950.0 8508.0,4950.0 C 8528.0,4950.0 8530.0,4955.0 8530.0,5009.0 C 8530.0,5102.0 8528.0,5100.0 8639.0,5100.0 C 8718.0,5100.0 8741.0,5104.0 8770.0,5121.0 C 8819.0,5150.0 8830.0,5168.0 8830.0,5216.0 C 8830.0,5253.0 8835.0,5263.0 8872.0,5294.0 C 8897.0,5316.0 8924.0,5330.0 8941.0,5330.0 C 8976.0,5330.0 9026.0,5385.0 9065.0,5468.0 C 9090.0,5522.0 9097.0,5530.0 9115.0,5525.0 C 9180.0,5505.0 9211.0,5498.0 9217.0,5504.0 C 9232.0,5519.0 9221.0,5572.0 9196.0,5608.0 C 9132.0,5701.0 9141.0,5810.0 9220.0,5895.0 C 9246.0,5922.0 9249.0,5933.0 9252.0,6015.0 L 9255.0,6105.0 L 9208.0,6130.0 C 9167.0,6152.0 9155.0,6167.0 9111.0,6250.0 C 9084.0,6302.0 9055.0,6346.0 9046.0,6348.0 C 9038.0,6350.0 9011.0,6333.0 8986.0,6310.0 L 8941.0,6268.0 L 8848.0,6299.0 C 8797.0,6316.0 8719.0,6334.0 8675.0,6339.0 C 8598.0,6347.0 8568.0,6357.0 8490.0,6401.0 C 8471.0,6411.0 8445.0,6420.0 8434.0,6420.0 C 8417.0,6420.0 8410.0,6429.0 8401.0,6464.0 C 8395.0,6489.0 8390.0,6524.0 8390.0,6543.0 C 8390.0,6561.0 8383.0,6598.0 8374.0,6624.0 C 8356.0,6678.0 8360.0,6688.0 8394.0,6672.0 C 8423.0,6659.0 8430.0,6665.0 8430.0,6701.0 C 8430.0,6727.0 8433.0,6730.0 8480.0,6736.0 C 8508.0,6740.0 8530.0,6745.0 8529.0,6749.0 C 8529.0,6752.0 8510.0,6769.0 8487.0,6785.0 C 8428.0,6828.0 8420.0,6869.0 8450.0,6966.0 C 8463.0,7007.0 8484.0,7049.0 8496.0,7061.0 C 8518.0,7082.0 8520.0,7082.0 8585.0,7065.0 C 8636.0,7052.0 8659.0,7051.0 8682.0,7059.0 C 8721.0,7073.0 8787.0,7073.0 8795.0,7060.0 C 8798.0,7055.0 8813.0,7050.0 8827.0,7050.0 C 8841.0,7050.0 8858.0,7044.0 8864.0,7036.0 C 8870.0,7028.0 8893.0,7019.0 8915.0,7015.0 C 8948.0,7010.0 8961.0,7013.0 8989.0,7034.0 C 9022.0,7058.0 9024.0,7059.0 9059.0,7043.0 C 9079.0,7035.0 9102.0,7026.0 9111.0,7023.0 C 9131.0,7017.0 9175.0,7072.0 9184.0,7115.0 C 9188.0,7132.0 9195.0,7261.0 9200.0,7403.0 L 9209.0,7661.0 L 9238.0,7713.0 C 9258.0,7749.0 9269.0,7786.0 9274.0,7833.0 C 9281.0,7903.0 9311.0,7965.0 9397.0,8083.0 C 9423.0,8118.0 9437.0,8153.0 9451.0,8217.0 C 9461.0,8265.0 9470.0,8314.0 9470.0,8326.0 C 9470.0,8338.0 9477.0,8353.0 9485.0,8360.0 C 9512.0,8382.0 9513.0,8437.0 9490.0,8563.0 C 9477.0,8630.0 9457.0,8727.0 9444.0,8778.0 L 9422.0,8871.0 L 9446.0,8926.0 C 9460.0,8958.0 9475.0,9019.0 9481.0,9068.0 C 9494.0,9178.0 9494.0,9189.0 9481.0,9223.0 C 9472.0,9247.0 9465.0,9250.0 9427.0,9250.0 C 9365.0,9250.0 9292.0,9275.0 9238.0,9315.0 L 9191.0,9350.0 L 9188.0,9417.0 L 9185.0,9485.0 L 9103.0,9488.0 C 9027.0,9491.0 9014.0,9494.0 8948.0,9532.0 C 8908.0,9555.0 8858.0,9587.0 8837.0,9604.0 C 8774.0,9655.0 8727.0,9769.0 8713.0,9902.0 C 8707.0,9962.0 8704.0,9968.0 8645.0,10028.0 C 8591.0,10085.0 8583.0,10090.0 8571.0,10076.0" fill="pink"/>
	<path d="M 5942.0,10050.0 C 5909.0,10023.0 5901.0,9957.0 5926.0,9929.0 C 5936.0,9917.0 5958.0,9903.0 5975.0,9896.0 C 6017.0,9878.0 6098.0,9900.0 6123.0,9935.0 C 6144.0,9964.0 6161.0,9965.0 6272.0,9948.0 C 6345.0,9937.0 6354.0,9938.0 6437.0,9963.0 C 6485.0,9978.0 6559.0,9998.0 6600.0,10008.0 C 6656.0,10022.0 6676.0,10031.0 6678.0,10044.0 C 6682.0,10062.0 6675.0,10062.0 6569.0,10055.0 C 6507.0,10051.0 6445.0,10043.0 6431.0,10038.0 C 6399.0,10025.0 6080.0,10012.0 6073.0,10023.0 C 6068.0,10032.0 5984.0,10070.0 5972.0,10070.0 C 5968.0,10069.0 5954.0,10061.0 5942.0,10050.0" fill="pink"/>
	<path d="M 5740.0,10001.0 C 5732.0,9996.0 5613.0,9953.0 5475.0,9906.0 C 5247.0,9827.0 5216.0,9819.0 5125.0,9813.0 C 5002.0,9806.0 4984.0,9799.0 4975.0,9762.0 C 4972.0,9745.0 4953.0,9718.0 4934.0,9701.0 C 4897.0,9667.0 4894.0,9654.0 4912.0,9615.0 C 4921.0,9594.0 4930.0,9590.0 4966.0,9590.0 C 5003.0,9590.0 5012.0,9594.0 5031.0,9623.0 C 5066.0,9674.0 5079.0,9680.0 5153.0,9680.0 L 5223.0,9680.0 L 5309.0,9744.0 C 5393.0,9806.0 5396.0,9807.0 5472.0,9813.0 C 5558.0,9819.0 5580.0,9828.0 5632.0,9878.0 C 5659.0,9904.0 5674.0,9911.0 5691.0,9907.0 C 5738.0,9895.0 5816.0,9966.0 5795.0,10000.0 C 5787.0,10012.0 5760.0,10012.0 5740.0,10001.0" fill="pink"/>
	<path d="M 4689.0,9440.0 C 4639.0,9425.0 4450.0,9319.0 4435.0,9297.0 C 4427.0,9285.0 4420.0,9267.0 4420.0,9257.0 C 4420.0,9245.0 4400.0,9230.0 4355.0,9209.0 C 4319.0,9192.0 4288.0,9174.0 4284.0,9169.0 C 4281.0,9164.0 4268.0,9160.0 4254.0,9160.0 C 4232.0,9160.0 4229.0,9156.0 4232.0,9133.0 C 4235.0,9106.0 4238.0,9105.0 4292.0,9102.0 L 4349.0,9099.0 L 4417.0,9161.0 C 4497.0,9235.0 4502.0,9242.0 4498.0,9277.0 C 4495.0,9301.0 4500.0,9305.0 4551.0,9320.0 C 4582.0,9330.0 4623.0,9349.0 4641.0,9363.0 C 4660.0,9376.0 4690.0,9391.0 4708.0,9395.0 C 4740.0,9402.0 4770.0,9423.0 4770.0,9441.0 C 4770.0,9452.0 4726.0,9452.0 4689.0,9440.0" fill="pink"/>
	<path d="M 4178.0,8962.0 C 4159.0,8941.0 4111.0,8871.0 4070.0,8805.0 C 4030.0,8739.0 3976.0,8654.0 3951.0,8615.0 C 3910.0,8551.0 3905.0,8538.0 3899.0,8465.0 C 3895.0,8421.0 3890.0,8372.0 3886.0,8355.0 C 3876.0,8309.0 3908.0,8278.0 3970.0,8272.0 C 4015.0,8268.0 4020.0,8269.0 4020.0,8288.0 C 4020.0,8300.0 4016.0,8312.0 4010.0,8315.0 C 4005.0,8318.0 4000.0,8330.0 4000.0,8340.0 C 4000.0,8358.0 4002.0,8358.0 4035.0,8344.0 C 4079.0,8326.0 4076.0,8325.0 4090.0,8359.0 C 4097.0,8376.0 4120.0,8398.0 4148.0,8413.0 C 4174.0,8427.0 4214.0,8458.0 4237.0,8482.0 C 4275.0,8521.0 4282.0,8536.0 4311.0,8650.0 C 4347.0,8789.0 4346.0,8823.0 4305.0,8884.0 C 4292.0,8903.0 4282.0,8931.0 4283.0,8946.0 C 4285.0,8968.0 4279.0,8975.0 4249.0,8985.0 C 4213.0,8998.0 4212.0,8997.0 4178.0,8962.0" fill="pink"/>
	<path d="M 5880.0,6834.0 C 5831.0,6811.0 5784.0,6778.0 5745.0,6741.0 C 5692.0,6690.0 5679.0,6682.0 5637.0,6677.0 C 5571.0,6670.0 5550.0,6649.0 5550.0,6587.0 C 5550.0,6511.0 5528.0,6489.0 5381.0,6418.0 C 5278.0,6367.0 5242.0,6344.0 5180.0,6285.0 C 5139.0,6246.0 5054.0,6182.0 4993.0,6142.0 C 4931.0,6102.0 4880.0,6065.0 4880.0,6060.0 C 4880.0,6054.0 4857.0,6039.0 4830.0,6025.0 C 4802.0,6011.0 4777.0,5993.0 4774.0,5985.0 C 4765.0,5961.0 4815.0,5865.0 4849.0,5841.0 C 4881.0,5818.0 4881.0,5818.0 4945.0,5835.0 C 5008.0,5852.0 5011.0,5852.0 5063.0,5833.0 C 5092.0,5821.0 5151.0,5789.0 5194.0,5761.0 C 5237.0,5733.0 5279.0,5710.0 5287.0,5710.0 C 5295.0,5710.0 5332.0,5678.0 5370.0,5639.0 C 5430.0,5576.0 5441.0,5568.0 5476.0,5567.0 C 5529.0,5565.0 5646.0,5599.0 5693.0,5629.0 C 5760.0,5672.0 5795.0,5770.0 5776.0,5857.0 C 5764.0,5910.0 5781.0,5927.0 5860.0,5940.0 C 5916.0,5949.0 5930.0,5955.0 5930.0,5970.0 C 5930.0,5979.0 5947.0,6006.0 5968.0,6029.0 C 5997.0,6061.0 6029.0,6080.0 6113.0,6115.0 C 6173.0,6140.0 6230.0,6160.0 6239.0,6160.0 C 6248.0,6160.0 6272.0,6181.0 6291.0,6206.0 C 6310.0,6231.0 6337.0,6269.0 6352.0,6289.0 C 6367.0,6309.0 6393.0,6363.0 6411.0,6410.0 C 6439.0,6486.0 6441.0,6504.0 6438.0,6582.0 C 6435.0,6648.0 6429.0,6674.0 6416.0,6689.0 C 6393.0,6715.0 6256.0,6781.0 6205.0,6791.0 C 6128.0,6806.0 6042.0,6835.0 6023.0,6853.0 C 5994.0,6878.0 5963.0,6874.0 5880.0,6834.0" fill="pink"/>
	<path d="M 2094.0,4021.0 C 2060.0,4005.0 2018.0,3989.0 1999.0,3985.0 C 1914.0,3966.0 1882.0,3897.0 1935.0,3845.0 C 1961.0,3818.0 1975.0,3814.0 1985.0,3830.0 C 1988.0,3836.0 2009.0,3840.0 2031.0,3840.0 C 2067.0,3840.0 2070.0,3838.0 2060.0,3821.0 C 2045.0,3792.0 2047.0,3790.0 2085.0,3790.0 C 2123.0,3790.0 2128.0,3800.0 2105.0,3840.0 C 2093.0,3862.0 2094.0,3867.0 2107.0,3883.0 C 2129.0,3907.0 2181.0,3904.0 2221.0,3877.0 C 2254.0,3855.0 2255.0,3851.0 2258.0,3785.0 C 2261.0,3703.0 2281.0,3653.0 2337.0,3591.0 C 2375.0,3548.0 2377.0,3547.0 2454.0,3541.0 C 2529.0,3535.0 2534.0,3533.0 2565.0,3497.0 C 2589.0,3469.0 2605.0,3460.0 2629.0,3460.0 C 2646.0,3460.0 2703.0,3439.0 2758.0,3412.0 C 2852.0,3365.0 2857.0,3363.0 2924.0,3368.0 C 2990.0,3372.0 2998.0,3375.0 3057.0,3423.0 C 3106.0,3463.0 3120.0,3479.0 3120.0,3501.0 C 3120.0,3530.0 3131.0,3526.0 2985.0,3546.0 C 2952.0,3551.0 2927.0,3564.0 2886.0,3599.0 C 2855.0,3624.0 2799.0,3668.0 2760.0,3695.0 C 2710.0,3731.0 2688.0,3754.0 2682.0,3775.0 C 2674.0,3803.0 2669.0,3805.0 2619.0,3811.0 C 2578.0,3816.0 2551.0,3826.0 2508.0,3857.0 C 2476.0,3879.0 2438.0,3903.0 2422.0,3909.0 C 2407.0,3916.0 2386.0,3934.0 2377.0,3950.0 C 2365.0,3970.0 2349.0,3980.0 2322.0,3985.0 C 2295.0,3989.0 2280.0,3999.0 2268.0,4020.0 C 2253.0,4047.0 2246.0,4050.0 2203.0,4050.0 C 2171.0,4050.0 2135.0,4040.0 2094.0,4021.0" fill="pink"/>
	<path d="M 1925.0,3679.0 C 1903.0,3675.0 1829.0,3671.0 1760.0,3670.0 C 1600.0,3669.0 1545.0,3652.0 1513.0,3594.0 C 1476.0,3529.0 1484.0,3449.0 1531.0,3425.0 C 1570.0,3404.0 1587.0,3406.0 1654.0,3440.0 C 1722.0,3475.0 1798.0,3481.0 1821.0,3454.0 C 1830.0,3443.0 1844.0,3440.0 1868.0,3443.0 C 1897.0,3448.0 1903.0,3445.0 1920.0,3417.0 C 1931.0,3399.0 1940.0,3373.0 1940.0,3359.0 C 1940.0,3324.0 1998.0,3250.0 2027.0,3250.0 C 2039.0,3250.0 2052.0,3255.0 2055.0,3260.0 C 2065.0,3276.0 2076.0,3272.0 2123.0,3236.0 C 2164.0,3205.0 2170.0,3203.0 2216.0,3210.0 C 2322.0,3227.0 2420.0,3271.0 2420.0,3300.0 C 2420.0,3311.0 2429.0,3328.0 2440.0,3337.0 C 2465.0,3359.0 2466.0,3382.0 2442.0,3403.0 C 2420.0,3423.0 2317.0,3460.0 2284.0,3460.0 C 2257.0,3460.0 2242.0,3485.0 2214.0,3573.0 C 2188.0,3656.0 2179.0,3662.0 2096.0,3647.0 L 2028.0,3636.0 L 2006.0,3663.0 C 1994.0,3678.0 1980.0,3689.0 1975.0,3689.0 C 1969.0,3688.0 1947.0,3684.0 1925.0,3679.0" fill="pink"/>
	<path d="M 2336.0,3165.0 C 2322.0,3150.0 2302.0,3140.0 2286.0,3140.0 C 2247.0,3140.0 2190.0,3113.0 2190.0,3095.0 C 2190.0,3086.0 2215.0,3053.0 2245.0,3022.0 C 2276.0,2991.0 2310.0,2950.0 2323.0,2933.0 C 2335.0,2915.0 2352.0,2897.0 2360.0,2894.0 C 2387.0,2883.0 2524.0,2860.0 2568.0,2860.0 C 2606.0,2860.0 2613.0,2856.0 2631.0,2825.0 C 2660.0,2777.0 2681.0,2791.0 2715.0,2880.0 C 2744.0,2956.0 2742.0,2976.0 2704.0,3018.0 C 2691.0,3033.0 2668.0,3070.0 2652.0,3100.0 L 2624.0,3155.0 L 2549.0,3155.0 C 2495.0,3155.0 2468.0,3160.0 2450.0,3173.0 C 2414.0,3198.0 2364.0,3195.0 2336.0,3165.0" fill="pink"/>
	<path d="M 1015.0,2430.0 C 981.0,2414.0 937.0,2401.0 914.0,2401.0 C 859.0,2400.0 811.0,2383.0 778.0,2352.0 C 744.0,2321.0 744.0,2313.0 771.0,2249.0 L 792.0,2200.0 L 765.0,2164.0 C 738.0,2128.0 737.0,2125.0 750.0,2081.0 C 757.0,2056.0 766.0,2017.0 769.0,1995.0 C 774.0,1960.0 785.0,1948.0 853.0,1893.0 C 915.0,1844.0 937.0,1832.0 958.0,1835.0 C 973.0,1837.0 1007.0,1842.0 1033.0,1845.0 C 1088.0,1852.0 1093.0,1860.0 1104.0,1951.0 L 1111.0,2008.0 L 1169.0,2014.0 C 1218.0,2020.0 1230.0,2025.0 1249.0,2050.0 C 1261.0,2067.0 1276.0,2080.0 1283.0,2080.0 C 1290.0,2080.0 1360.0,2044.0 1439.0,2000.0 C 1572.0,1926.0 1588.0,1920.0 1640.0,1920.0 L 1697.0,1920.0 L 1709.0,1863.0 C 1715.0,1832.0 1720.0,1797.0 1720.0,1786.0 C 1720.0,1774.0 1731.0,1758.0 1743.0,1749.0 C 1773.0,1727.0 1926.0,1705.0 2020.0,1709.0 C 2090.0,1711.0 2096.0,1713.0 2135.0,1749.0 C 2157.0,1769.0 2197.0,1801.0 2223.0,1819.0 C 2264.0,1847.0 2276.0,1851.0 2309.0,1845.0 C 2372.0,1835.0 2430.0,1872.0 2582.0,2022.0 C 2753.0,2190.0 2777.0,2222.0 2761.0,2256.0 C 2755.0,2270.0 2750.0,2290.0 2750.0,2301.0 C 2750.0,2313.0 2746.0,2318.0 2739.0,2315.0 C 2733.0,2311.0 2732.0,2296.0 2735.0,2279.0 C 2739.0,2263.0 2740.0,2250.0 2737.0,2250.0 C 2735.0,2250.0 2716.0,2264.0 2695.0,2280.0 C 2669.0,2301.0 2653.0,2307.0 2646.0,2300.0 C 2641.0,2295.0 2619.0,2290.0 2598.0,2290.0 C 2568.0,2290.0 2560.0,2286.0 2560.0,2272.0 C 2560.0,2261.0 2570.0,2248.0 2583.0,2242.0 C 2603.0,2232.0 2604.0,2231.0 2585.0,2231.0 C 2574.0,2231.0 2556.0,2237.0 2546.0,2245.0 C 2535.0,2253.0 2516.0,2260.0 2503.0,2260.0 C 2483.0,2260.0 2482.0,2257.0 2490.0,2234.0 C 2507.0,2191.0 2502.0,2191.0 2456.0,2236.0 C 2432.0,2261.0 2403.0,2280.0 2391.0,2280.0 C 2347.0,2280.0 2302.0,2308.0 2276.0,2352.0 C 2250.0,2397.0 2212.0,2426.0 2170.0,2432.0 C 2150.0,2434.0 2144.0,2430.0 2142.0,2410.0 C 2140.0,2396.0 2135.0,2381.0 2130.0,2375.0 C 2126.0,2370.0 2120.0,2348.0 2116.0,2328.0 C 2109.0,2290.0 2109.0,2290.0 2060.0,2290.0 C 2015.0,2290.0 2007.0,2286.0 1974.0,2250.0 C 1923.0,2195.0 1829.0,2171.0 1800.0,2205.0 C 1793.0,2213.0 1777.0,2220.0 1764.0,2220.0 C 1750.0,2220.0 1731.0,2225.0 1720.0,2232.0 C 1705.0,2242.0 1694.0,2241.0 1665.0,2227.0 C 1633.0,2212.0 1626.0,2211.0 1597.0,2225.0 C 1579.0,2233.0 1537.0,2262.0 1503.0,2289.0 C 1449.0,2330.0 1432.0,2338.0 1381.0,2344.0 C 1333.0,2350.0 1313.0,2358.0 1280.0,2385.0 C 1242.0,2417.0 1127.0,2461.0 1089.0,2459.0 C 1081.0,2459.0 1048.0,2446.0 1015.0,2430.0" fill="pink"/>
</svg>
