<?xml version="1.0" ?>
<svg xmlns="http://www.w3.org/2000/svg" xmlns:ev="http://www.w3.org/2001/xml-events" xmlns:xlink="http://www.w3.org/1999/xlink" baseProfile="full" height="577px" version="1.1" viewBox="-1031.4215 -791.2290898807034 12301.843 11819.53407856844" width="600px">
	<defs/>
	<path d="M 5120.0,9971.0 L 4865.0,9903.0 L 4684.0,9738.0 C 4540.0,9606.0 4489.0,9552.0 4430.0,9469.0 C 4373.0,9388.0 4297.0,9307.0 4091.0,9106.0 C 3945.0,8963.0 3665.0,8688.0 3470.0,8494.0 C 3202.0,8228.0 3092.0,8126.0 3022.0,8077.0 C 2946.0,8025.0 2919.0,7999.0 2882.0,7943.0 C 2825.0,7858.0 2770.0,7809.0 2480.0,7580.0 C 2356.0,7482.0 2232.0,7376.0 2205.0,7345.0 C 2173.0,7307.0 2052.0,7209.0 1856.0,7062.0 C 1501.0,6796.0 832.0,6254.0 707.0,6131.0 C 578.0,6004.0 435.0,5776.0 285.0,5455.0 C 166.0,5200.0 118.0,5065.0 47.0,4775.0 L 12.0,4635.0 L 5.0,4200.0 L -2.0,3765.0 L 38.0,3595.0 C 61.0,3498.0 94.0,3308.0 115.0,3152.0 L 153.0,2879.0 L 200.0,2840.0 C 245.0,2802.0 252.0,2800.0 312.0,2800.0 C 370.0,2800.0 379.0,2797.0 404.0,2771.0 L 431.0,2742.0 L 400.0,2681.0 L 369.0,2619.0 L 416.0,2456.0 L 462.0,2293.0 L 726.0,2021.0 C 952.0,1788.0 990.0,1744.0 995.0,1712.0 C 999.0,1692.0 1003.0,1670.0 1005.0,1664.0 C 1007.0,1658.0 1206.0,1511.0 1448.0,1337.0 L 1887.0,1021.0 L 2074.0,974.0 L 2261.0,927.0 L 2368.0,842.0 C 2427.0,795.0 2480.0,753.0 2486.0,748.0 C 2493.0,743.0 2612.0,699.0 2751.0,649.0 C 2937.0,584.0 3148.0,521.0 3535.0,416.0 L 4065.0,272.0 L 4503.0,235.0 L 4941.0,198.0 L 5038.0,238.0 C 5153.0,285.0 5285.0,317.0 5553.0,365.0 L 5751.0,400.0 L 5953.0,494.0 C 6121.0,571.0 6200.0,616.0 6425.0,760.0 C 6574.0,856.0 6897.0,1054.0 7144.0,1202.0 L 7594.0,1470.0 L 7649.0,1464.0 C 7680.0,1461.0 7717.0,1457.0 7731.0,1455.0 C 7751.0,1452.0 7780.0,1467.0 7852.0,1518.0 C 7926.0,1570.0 7975.0,1596.0 8079.0,1635.0 L 8211.0,1685.0 L 8376.0,1881.0 L 8540.0,2078.0 L 8540.0,2202.0 C 8540.0,2295.0 8535.0,2347.0 8520.0,2406.0 C 8504.0,2465.0 8497.0,2539.0 8490.0,2700.0 C 8485.0,2818.0 8474.0,3016.0 8464.0,3140.0 C 8454.0,3275.0 8450.0,3412.0 8453.0,3482.0 C 8459.0,3599.0 8460.0,3601.0 8538.0,3812.0 C 8582.0,3929.0 8623.0,4050.0 8630.0,4080.0 C 8636.0,4110.0 8661.0,4198.0 8685.0,4275.0 C 8709.0,4352.0 8745.0,4478.0 8764.0,4555.0 C 8799.0,4695.0 8878.0,4937.0 8905.0,4991.0 C 8913.0,5006.0 8925.0,5042.0 8931.0,5070.0 C 8938.0,5101.0 8956.0,5139.0 8978.0,5168.0 C 8998.0,5194.0 9054.0,5287.0 9103.0,5375.0 C 9181.0,5516.0 9202.0,5546.0 9280.0,5625.0 C 9365.0,5711.0 9374.0,5717.0 9456.0,5745.0 C 9542.0,5775.0 9544.0,5776.0 9600.0,5850.0 C 9632.0,5891.0 9715.0,5988.0 9785.0,6065.0 C 9855.0,6142.0 9961.0,6265.0 10021.0,6337.0 C 10110.0,6445.0 10130.0,6476.0 10130.0,6502.0 C 10130.0,6520.0 10142.0,6553.0 10155.0,6575.0 C 10176.0,6608.0 10180.0,6628.0 10180.0,6693.0 C 10180.0,6760.0 10184.0,6779.0 10211.0,6831.0 L 10241.0,6892.0 L 10234.0,7034.0 L 10228.0,7175.0 L 10158.0,7365.0 C 10096.0,7536.0 10087.0,7569.0 10073.0,7690.0 L 10056.0,7825.0 L 10015.0,7870.0 C 9977.0,7911.0 9967.0,7933.0 9914.0,8103.0 L 9855.0,8291.0 L 9778.0,8336.0 C 9707.0,8378.0 9686.0,8399.0 9526.0,8588.0 C 9270.0,8892.0 9173.0,8984.0 8960.0,9123.0 L 8784.0,9237.0 L 8756.0,9311.0 C 8740.0,9352.0 8726.0,9386.0 8725.0,9388.0 C 8724.0,9389.0 8636.0,9422.0 8530.0,9460.0 C 8340.0,9529.0 8336.0,9531.0 8253.0,9602.0 C 8207.0,9642.0 8153.0,9688.0 8134.0,9704.0 C 8110.0,9724.0 8020.0,9760.0 7830.0,9825.0 L 7561.0,9918.0 L 6967.0,9934.0 C 6411.0,9949.0 6365.0,9952.0 6258.0,9974.0 C 6169.0,9993.0 6068.0,10003.0 5785.0,10019.0 C 5587.0,10031.0 5414.0,10040.0 5400.0,10039.0 C 5386.0,10039.0 5260.0,10008.0 5120.0,9971.0" fill="pink"/>
</svg>
