<?xml version="1.0" ?>
<svg xmlns="http://www.w3.org/2000/svg" xmlns:ev="http://www.w3.org/2001/xml-events" xmlns:xlink="http://www.w3.org/1999/xlink" baseProfile="full" height="600px" version="1.1" viewBox="39.27352972017445 -1024.5749796498892 10162.458895641246 12292.188596601105" width="497px">
	<defs/>
	<path d="M 5640.0,10233.0 C 5595.0,10226.0 5490.0,10189.0 5484.0,10178.0 C 5474.0,10161.0 5272.0,10070.0 5246.0,10070.0 C 5233.0,10070.0 5205.0,10064.0 5184.0,10056.0 C 5160.0,10048.0 5070.0,10040.0 4949.0,10036.0 C 4841.0,10032.0 4735.0,10024.0 4714.0,10018.0 C 4693.0,10013.0 4641.0,10003.0 4600.0,9996.0 C 4559.0,9989.0 4514.0,9979.0 4500.0,9973.0 C 4486.0,9966.0 4454.0,9958.0 4427.0,9955.0 C 4393.0,9950.0 4375.0,9942.0 4364.0,9926.0 C 4356.0,9912.0 4324.0,9893.0 4290.0,9881.0 C 4257.0,9869.0 4218.0,9849.0 4203.0,9836.0 C 4187.0,9823.0 4161.0,9805.0 4143.0,9797.0 C 4126.0,9788.0 4109.0,9771.0 4105.0,9760.0 C 4102.0,9749.0 4079.0,9728.0 4054.0,9714.0 C 4026.0,9697.0 4002.0,9673.0 3989.0,9648.0 C 3978.0,9626.0 3955.0,9601.0 3937.0,9592.0 C 3919.0,9583.0 3874.0,9543.0 3835.0,9504.0 C 3797.0,9465.0 3731.0,9412.0 3689.0,9387.0 C 3627.0,9348.0 3598.0,9321.0 3534.0,9240.0 C 3491.0,9185.0 3442.0,9114.0 3425.0,9082.0 C 3409.0,9050.0 3373.0,8994.0 3347.0,8957.0 C 3320.0,8920.0 3292.0,8869.0 3285.0,8842.0 C 3268.0,8780.0 3219.0,8673.0 3172.0,8597.0 C 3054.0,8404.0 2822.0,8111.0 2733.0,8043.0 C 2715.0,8029.0 2690.0,8001.0 2678.0,7981.0 C 2644.0,7924.0 2568.0,7838.0 2402.0,7667.0 C 2222.0,7480.0 2155.0,7388.0 2158.0,7330.0 C 2160.0,7307.0 2153.0,7275.0 2142.0,7253.0 C 2109.0,7188.0 2107.0,7144.0 2135.0,7035.0 C 2151.0,6970.0 2160.0,6907.0 2160.0,6854.0 C 2160.0,6769.0 2176.0,6713.0 2210.0,6675.0 C 2239.0,6644.0 2272.0,6542.0 2279.0,6464.0 C 2282.0,6425.0 2290.0,6387.0 2296.0,6379.0 C 2303.0,6371.0 2311.0,6349.0 2314.0,6330.0 C 2322.0,6291.0 2347.0,6187.0 2381.0,6062.0 C 2401.0,5985.0 2402.0,5965.0 2397.0,5767.0 C 2390.0,5525.0 2376.0,5442.0 2329.0,5368.0 C 2286.0,5302.0 2241.0,5209.0 2240.0,5188.0 C 2240.0,5157.0 2002.0,4980.0 1905.0,4939.0 C 1868.0,4923.0 1825.0,4900.0 1810.0,4887.0 C 1794.0,4875.0 1758.0,4852.0 1730.0,4835.0 C 1701.0,4819.0 1649.0,4786.0 1614.0,4763.0 C 1579.0,4739.0 1547.0,4720.0 1543.0,4720.0 C 1540.0,4720.0 1519.0,4705.0 1496.0,4687.0 C 1473.0,4668.0 1426.0,4640.0 1390.0,4625.0 C 1354.0,4609.0 1316.0,4588.0 1305.0,4578.0 C 1293.0,4568.0 1269.0,4557.0 1251.0,4554.0 C 1230.0,4549.0 1203.0,4531.0 1178.0,4504.0 C 1156.0,4480.0 1120.0,4450.0 1097.0,4436.0 C 1040.0,4403.0 992.0,4350.0 936.0,4259.0 C 881.0,4169.0 878.0,4131.0 915.0,4025.0 C 929.0,3987.0 940.0,3948.0 940.0,3939.0 C 940.0,3920.0 1032.0,3789.0 1101.0,3710.0 C 1128.0,3679.0 1162.0,3627.0 1177.0,3593.0 C 1199.0,3546.0 1232.0,3504.0 1324.0,3411.0 C 1389.0,3344.0 1456.0,3282.0 1473.0,3274.0 C 1572.0,3222.0 1754.0,3082.0 1902.0,2943.0 C 1938.0,2908.0 1974.0,2880.0 1980.0,2880.0 C 2017.0,2880.0 2320.0,2545.0 2320.0,2505.0 C 2320.0,2497.0 2334.0,2482.0 2350.0,2470.0 C 2367.0,2458.0 2389.0,2432.0 2399.0,2412.0 C 2410.0,2391.0 2439.0,2355.0 2465.0,2330.0 C 2520.0,2277.0 2600.0,2136.0 2600.0,2093.0 C 2600.0,2076.0 2609.0,2043.0 2620.0,2019.0 C 2648.0,1956.0 2648.0,1813.0 2620.0,1777.0 C 2609.0,1763.0 2600.0,1738.0 2600.0,1722.0 C 2600.0,1705.0 2590.0,1666.0 2578.0,1635.0 C 2561.0,1591.0 2549.0,1575.0 2521.0,1560.0 C 2467.0,1532.0 2432.0,1499.0 2412.0,1460.0 C 2403.0,1441.0 2379.0,1416.0 2360.0,1404.0 C 2341.0,1392.0 2316.0,1372.0 2305.0,1361.0 C 2294.0,1349.0 2261.0,1315.0 2232.0,1285.0 C 2166.0,1217.0 2159.0,1197.0 2169.0,1115.0 C 2180.0,1020.0 2200.0,1002.0 2370.0,928.0 L 2445.0,896.0 L 2665.0,895.0 C 2853.0,895.0 2891.0,898.0 2929.0,913.0 C 2971.0,930.0 2974.0,930.0 3026.0,910.0 C 3056.0,899.0 3099.0,890.0 3120.0,890.0 C 3142.0,890.0 3160.0,886.0 3160.0,880.0 C 3160.0,857.0 3222.0,803.0 3262.0,791.0 C 3286.0,783.0 3331.0,755.0 3365.0,726.0 C 3428.0,671.0 3525.0,597.0 3573.0,567.0 C 3588.0,557.0 3612.0,528.0 3627.0,502.0 C 3648.0,463.0 3666.0,447.0 3719.0,419.0 C 3775.0,389.0 3792.0,374.0 3832.0,313.0 C 3858.0,274.0 3898.0,229.0 3921.0,213.0 C 3943.0,198.0 3989.0,161.0 4022.0,133.0 C 4063.0,97.0 4091.0,80.0 4110.0,80.0 C 4125.0,80.0 4146.0,70.0 4160.0,55.0 C 4173.0,41.0 4193.0,30.0 4206.0,30.0 C 4218.0,30.0 4241.0,23.0 4256.0,15.0 C 4290.0,-4.0 4408.0,3.0 4452.0,26.0 C 4467.0,34.0 4490.0,40.0 4504.0,40.0 C 4518.0,40.0 4617.0,85.0 4724.0,140.0 C 4833.0,196.0 4931.0,240.0 4947.0,240.0 C 4992.0,240.0 5053.0,260.0 5082.0,285.0 C 5097.0,298.0 5129.0,311.0 5152.0,315.0 C 5176.0,319.0 5211.0,329.0 5230.0,337.0 C 5249.0,346.0 5306.0,356.0 5357.0,361.0 C 5408.0,365.0 5469.0,375.0 5492.0,383.0 C 5516.0,391.0 5576.0,401.0 5625.0,405.0 C 5675.0,409.0 5726.0,418.0 5740.0,425.0 C 5755.0,432.0 5819.0,439.0 5895.0,442.0 C 6017.0,446.0 6028.0,448.0 6074.0,475.0 C 6111.0,496.0 6128.0,515.0 6143.0,549.0 C 6162.0,593.0 6174.0,613.0 6248.0,728.0 C 6266.0,757.0 6301.0,822.0 6326.0,873.0 C 6386.0,998.0 6412.0,1045.0 6436.0,1072.0 C 6448.0,1085.0 6466.0,1113.0 6477.0,1135.0 C 6488.0,1157.0 6505.0,1190.0 6516.0,1209.0 C 6542.0,1253.0 6782.0,1493.0 6830.0,1522.0 C 6871.0,1547.0 6971.0,1625.0 7035.0,1681.0 C 7057.0,1701.0 7104.0,1736.0 7140.0,1760.0 C 7176.0,1784.0 7230.0,1829.0 7260.0,1861.0 C 7290.0,1892.0 7334.0,1927.0 7358.0,1939.0 C 7381.0,1951.0 7411.0,1977.0 7424.0,1998.0 C 7459.0,2052.0 7534.0,2130.0 7552.0,2130.0 C 7577.0,2130.0 7607.0,2173.0 7613.0,2219.0 C 7617.0,2250.0 7628.0,2273.0 7653.0,2299.0 C 7671.0,2319.0 7715.0,2376.0 7750.0,2425.0 C 7785.0,2475.0 7838.0,2541.0 7869.0,2573.0 C 7922.0,2629.0 8058.0,2730.0 8079.0,2730.0 C 8085.0,2730.0 8113.0,2750.0 8143.0,2774.0 C 8172.0,2798.0 8206.0,2823.0 8218.0,2829.0 C 8230.0,2835.0 8249.0,2857.0 8260.0,2878.0 C 8271.0,2898.0 8309.0,2954.0 8343.0,3002.0 C 8377.0,3049.0 8419.0,3107.0 8435.0,3131.0 C 8452.0,3154.0 8479.0,3188.0 8496.0,3205.0 C 8514.0,3222.0 8538.0,3257.0 8550.0,3281.0 C 8562.0,3305.0 8593.0,3348.0 8619.0,3375.0 C 8646.0,3403.0 8679.0,3447.0 8694.0,3473.0 C 8709.0,3499.0 8741.0,3543.0 8766.0,3571.0 C 8790.0,3598.0 8810.0,3625.0 8810.0,3630.0 C 8810.0,3634.0 8830.0,3662.0 8854.0,3690.0 C 8882.0,3722.0 8902.0,3759.0 8910.0,3788.0 C 8918.0,3822.0 8935.0,3849.0 8970.0,3885.0 C 8997.0,3913.0 9034.0,3959.0 9052.0,3987.0 C 9070.0,4015.0 9103.0,4065.0 9126.0,4097.0 C 9148.0,4129.0 9170.0,4172.0 9173.0,4194.0 C 9176.0,4215.0 9196.0,4264.0 9216.0,4304.0 C 9236.0,4343.0 9263.0,4395.0 9276.0,4420.0 C 9345.0,4553.0 9374.0,4832.0 9329.0,4930.0 C 9318.0,4955.0 9300.0,4998.0 9289.0,5027.0 C 9278.0,5055.0 9254.0,5098.0 9235.0,5122.0 C 9216.0,5145.0 9200.0,5170.0 9200.0,5176.0 C 9200.0,5182.0 9186.0,5199.0 9170.0,5213.0 C 9154.0,5228.0 9140.0,5247.0 9140.0,5255.0 C 9140.0,5264.0 9123.0,5289.0 9101.0,5313.0 C 9080.0,5336.0 9044.0,5391.0 9021.0,5435.0 C 8998.0,5479.0 8970.0,5531.0 8959.0,5550.0 C 8948.0,5569.0 8921.0,5623.0 8899.0,5670.0 C 8877.0,5717.0 8853.0,5766.0 8845.0,5780.0 C 8837.0,5794.0 8828.0,5817.0 8825.0,5832.0 C 8822.0,5848.0 8806.0,5867.0 8785.0,5880.0 C 8766.0,5892.0 8750.0,5908.0 8750.0,5916.0 C 8750.0,5924.0 8734.0,5947.0 8715.0,5969.0 C 8696.0,5990.0 8680.0,6013.0 8680.0,6019.0 C 8680.0,6026.0 8671.0,6049.0 8660.0,6070.0 C 8649.0,6092.0 8633.0,6138.0 8624.0,6173.0 C 8616.0,6207.0 8603.0,6249.0 8595.0,6265.0 C 8587.0,6282.0 8578.0,6316.0 8575.0,6342.0 C 8571.0,6372.0 8559.0,6401.0 8544.0,6419.0 C 8529.0,6437.0 8515.0,6470.0 8510.0,6502.0 C 8505.0,6531.0 8492.0,6581.0 8481.0,6612.0 C 8469.0,6644.0 8460.0,6692.0 8460.0,6719.0 C 8460.0,6753.0 8452.0,6781.0 8435.0,6811.0 C 8404.0,6866.0 8404.0,6905.0 8434.0,6967.0 C 8447.0,6993.0 8466.0,7038.0 8476.0,7066.0 C 8494.0,7117.0 8493.0,7121.0 8473.0,7248.0 C 8455.0,7352.0 8445.0,7390.0 8419.0,7436.0 C 8401.0,7468.0 8383.0,7514.0 8379.0,7539.0 C 8365.0,7623.0 8343.0,7683.0 8313.0,7719.0 C 8297.0,7739.0 8265.0,7794.0 8242.0,7842.0 C 8219.0,7889.0 8196.0,7931.0 8190.0,7935.0 C 8185.0,7938.0 8180.0,7953.0 8180.0,7968.0 C 8180.0,7983.0 8169.0,8027.0 8155.0,8065.0 C 8142.0,8104.0 8130.0,8149.0 8130.0,8166.0 C 8130.0,8182.0 8125.0,8201.0 8118.0,8208.0 C 8112.0,8214.0 8105.0,8257.0 8102.0,8302.0 C 8099.0,8362.0 8092.0,8391.0 8079.0,8409.0 C 8065.0,8426.0 8060.0,8449.0 8060.0,8495.0 C 8060.0,8536.0 8053.0,8573.0 8040.0,8601.0 C 8014.0,8658.0 8013.0,8772.0 8038.0,8832.0 C 8062.0,8893.0 8063.0,9207.0 8039.0,9260.0 C 8030.0,9279.0 8015.0,9321.0 8006.0,9352.0 C 7987.0,9417.0 7936.0,9498.0 7890.0,9536.0 C 7873.0,9551.0 7852.0,9576.0 7843.0,9594.0 C 7820.0,9640.0 7791.0,9668.0 7759.0,9675.0 C 7743.0,9679.0 7718.0,9696.0 7705.0,9715.0 C 7684.0,9742.0 7661.0,9754.0 7582.0,9780.0 C 7529.0,9797.0 7468.0,9823.0 7448.0,9837.0 C 7387.0,9878.0 7304.0,9902.0 7188.0,9910.0 C 7084.0,9918.0 7079.0,9919.0 7038.0,9954.0 C 7001.0,9986.0 6990.0,9990.0 6941.0,9990.0 C 6844.0,9990.0 6771.0,10007.0 6750.0,10033.0 C 6740.0,10046.0 6712.0,10062.0 6688.0,10069.0 C 6664.0,10076.0 6625.0,10089.0 6600.0,10098.0 C 6575.0,10106.0 6519.0,10117.0 6475.0,10121.0 C 6286.0,10140.0 6171.0,10165.0 6154.0,10191.0 C 6151.0,10196.0 6114.0,10200.0 6072.0,10200.0 C 6017.0,10200.0 5983.0,10206.0 5951.0,10220.0 C 5898.0,10244.0 5862.0,10245.0 5799.0,10223.0 C 5754.0,10207.0 5749.0,10207.0 5715.0,10223.0 C 5695.0,10232.0 5676.0,10239.0 5672.0,10239.0 C 5668.0,10238.0 5654.0,10235.0 5640.0,10233.0" fill="pink"/>
</svg>
