<?xml version="1.0" ?>
<svg xmlns="http://www.w3.org/2000/svg" xmlns:ev="http://www.w3.org/2001/xml-events" xmlns:xlink="http://www.w3.org/1999/xlink" baseProfile="full" height="600px" version="1.1" viewBox="301.6766940840713 -1027.320536047334 9635.551342935185 12294.66133127212" width="471px">
	<defs/>
	<path d="M 5445.0,10230.0 C 5440.0,10222.0 5425.0,10221.0 5403.0,10225.0 C 5377.0,10230.0 5363.0,10227.0 5349.0,10214.0 C 5332.0,10199.0 5324.0,10198.0 5296.0,10208.0 C 5250.0,10225.0 5233.0,10223.0 5227.0,10199.0 C 5223.0,10184.0 5232.0,10169.0 5262.0,10142.0 C 5376.0,10039.0 5432.0,9975.0 5478.0,9895.0 C 5497.0,9862.0 5519.0,9828.0 5526.0,9819.0 C 5544.0,9799.0 5570.0,9713.0 5570.0,9674.0 C 5570.0,9639.0 5548.0,9615.0 5525.0,9624.0 C 5495.0,9635.0 5497.0,9599.0 5528.0,9567.0 C 5545.0,9549.0 5568.0,9513.0 5581.0,9485.0 C 5595.0,9453.0 5622.0,9419.0 5656.0,9390.0 C 5685.0,9365.0 5709.0,9338.0 5709.0,9329.0 C 5710.0,9320.0 5717.0,9307.0 5725.0,9300.0 C 5733.0,9293.0 5740.0,9280.0 5740.0,9271.0 C 5740.0,9261.0 5790.0,9196.0 5851.0,9126.0 C 5983.0,8972.0 6112.0,8783.0 6132.0,8715.0 C 6145.0,8668.0 6148.0,8665.0 6180.0,8663.0 C 6199.0,8661.0 6223.0,8666.0 6232.0,8674.0 C 6248.0,8686.0 6249.0,8690.0 6235.0,8718.0 C 6226.0,8734.0 6213.0,8750.0 6206.0,8753.0 C 6198.0,8756.0 6177.0,8780.0 6159.0,8806.0 C 6136.0,8840.0 6132.0,8852.0 6144.0,8847.0 C 6154.0,8843.0 6165.0,8840.0 6170.0,8840.0 C 6174.0,8840.0 6197.0,8824.0 6220.0,8805.0 C 6281.0,8754.0 6330.0,8758.0 6275.0,8810.0 C 6248.0,8835.0 6242.0,8860.0 6263.0,8860.0 C 6270.0,8860.0 6284.0,8844.0 6294.0,8825.0 C 6305.0,8806.0 6319.0,8790.0 6326.0,8790.0 C 6333.0,8790.0 6344.0,8781.0 6350.0,8770.0 C 6356.0,8759.0 6368.0,8750.0 6376.0,8750.0 C 6385.0,8750.0 6390.0,8745.0 6388.0,8738.0 C 6380.0,8716.0 6364.0,8719.0 6350.0,8745.0 C 6334.0,8775.0 6305.0,8779.0 6313.0,8750.0 C 6316.0,8739.0 6314.0,8730.0 6309.0,8730.0 C 6304.0,8730.0 6300.0,8714.0 6300.0,8695.0 C 6300.0,8666.0 6304.0,8659.0 6327.0,8654.0 C 6341.0,8650.0 6361.0,8652.0 6371.0,8659.0 C 6381.0,8665.0 6392.0,8670.0 6395.0,8670.0 C 6398.0,8670.0 6400.0,8625.0 6400.0,8570.0 C 6400.0,8478.0 6399.0,8470.0 6381.0,8470.0 C 6353.0,8470.0 6344.0,8491.0 6365.0,8506.0 C 6382.0,8519.0 6381.0,8521.0 6348.0,8534.0 C 6326.0,8543.0 6310.0,8558.0 6307.0,8572.0 C 6303.0,8585.0 6294.0,8604.0 6287.0,8615.0 C 6274.0,8631.0 6270.0,8632.0 6256.0,8621.0 C 6247.0,8614.0 6240.0,8611.0 6240.0,8616.0 C 6240.0,8629.0 6220.0,8597.0 6220.0,8583.0 C 6220.0,8577.0 6241.0,8548.0 6266.0,8518.0 C 6329.0,8444.0 6389.0,8332.0 6402.0,8263.0 C 6422.0,8154.0 6449.0,8117.0 6480.0,8155.0 C 6487.0,8164.0 6499.0,8169.0 6507.0,8166.0 C 6514.0,8163.0 6520.0,8167.0 6520.0,8175.0 C 6520.0,8193.0 6563.0,8216.0 6615.0,8224.0 C 6645.0,8228.0 6650.0,8227.0 6633.0,8220.0 C 6620.0,8215.0 6610.0,8208.0 6610.0,8205.0 C 6610.0,8186.0 6633.0,8160.0 6649.0,8160.0 C 6659.0,8160.0 6683.0,8154.0 6701.0,8146.0 C 6736.0,8131.0 6733.0,8128.0 6678.0,8116.0 C 6636.0,8107.0 6588.0,8061.0 6596.0,8038.0 C 6600.0,8023.0 6598.0,8019.0 6589.0,8022.0 C 6581.0,8025.0 6574.0,8041.0 6572.0,8058.0 C 6570.0,8076.0 6565.0,8090.0 6559.0,8090.0 C 6554.0,8090.0 6551.0,8100.0 6553.0,8113.0 C 6555.0,8132.0 6550.0,8135.0 6518.0,8138.0 C 6497.0,8140.0 6480.0,8137.0 6480.0,8133.0 C 6480.0,8128.0 6500.0,8074.0 6525.0,8013.0 C 6549.0,7952.0 6578.0,7871.0 6589.0,7833.0 C 6599.0,7796.0 6619.0,7726.0 6634.0,7677.0 C 6648.0,7629.0 6660.0,7579.0 6660.0,7566.0 C 6660.0,7546.0 6664.0,7544.0 6686.0,7548.0 C 6700.0,7550.0 6714.0,7559.0 6717.0,7566.0 C 6725.0,7588.0 6749.0,7583.0 6743.0,7561.0 C 6740.0,7547.0 6726.0,7541.0 6694.0,7537.0 C 6629.0,7530.0 6618.0,7517.0 6626.0,7456.0 C 6635.0,7387.0 6648.0,7371.0 6671.0,7402.0 C 6687.0,7422.0 6690.0,7423.0 6695.0,7408.0 C 6704.0,7384.0 6693.0,7370.0 6664.0,7370.0 C 6644.0,7370.0 6640.0,7365.0 6640.0,7339.0 L 6640.0,7309.0 L 6670.0,7327.0 C 6693.0,7340.0 6703.0,7341.0 6711.0,7333.0 C 6733.0,7311.0 6702.0,7288.0 6656.0,7291.0 C 6580.0,7297.0 6574.0,7290.0 6578.0,7205.0 C 6581.0,7147.0 6579.0,7125.0 6567.0,7112.0 C 6557.0,7100.0 6550.0,7060.0 6545.0,6980.0 C 6541.0,6917.0 6532.0,6834.0 6524.0,6795.0 C 6510.0,6730.0 6505.0,6720.0 6447.0,6663.0 L 6386.0,6600.0 L 6320.0,6600.0 C 6265.0,6600.0 6248.0,6596.0 6210.0,6570.0 C 6185.0,6554.0 6158.0,6540.0 6149.0,6540.0 C 6140.0,6540.0 6127.0,6534.0 6121.0,6526.0 C 6115.0,6519.0 6083.0,6501.0 6051.0,6486.0 C 6002.0,6464.0 5988.0,6452.0 5971.0,6417.0 C 5959.0,6393.0 5950.0,6366.0 5950.0,6357.0 C 5950.0,6326.0 5983.0,6255.0 6017.0,6213.0 C 6062.0,6157.0 6105.0,6133.0 6170.0,6125.0 C 6276.0,6114.0 6334.0,6091.0 6360.0,6053.0 C 6373.0,6034.0 6396.0,6011.0 6410.0,6002.0 C 6424.0,5994.0 6449.0,5972.0 6467.0,5953.0 C 6485.0,5934.0 6509.0,5920.0 6522.0,5920.0 C 6535.0,5920.0 6556.0,5913.0 6568.0,5904.0 C 6582.0,5895.0 6602.0,5890.0 6618.0,5893.0 C 6666.0,5902.0 6743.0,5864.0 6803.0,5802.0 C 6925.0,5673.0 6949.0,5554.0 6897.0,5335.0 C 6878.0,5256.0 6826.0,5150.0 6789.0,5114.0 C 6773.0,5099.0 6760.0,5077.0 6760.0,5066.0 C 6759.0,5037.0 6740.0,5006.0 6708.0,4980.0 C 6692.0,4968.0 6680.0,4952.0 6680.0,4943.0 C 6680.0,4935.0 6646.0,4895.0 6604.0,4856.0 C 6520.0,4777.0 6512.0,4749.0 6561.0,4721.0 C 6584.0,4708.0 6594.0,4708.0 6629.0,4720.0 C 6658.0,4729.0 6670.0,4739.0 6670.0,4752.0 C 6670.0,4763.0 6666.0,4769.0 6661.0,4765.0 C 6656.0,4762.0 6648.0,4765.0 6645.0,4771.0 C 6637.0,4784.0 6668.0,4809.0 6693.0,4810.0 C 6715.0,4810.0 6716.0,4769.0 6695.0,4736.0 C 6684.0,4719.0 6682.0,4706.0 6689.0,4688.0 C 6703.0,4651.0 6726.0,4647.0 6773.0,4674.0 C 6817.0,4698.0 6862.0,4702.0 6882.0,4682.0 C 6889.0,4675.0 6900.0,4670.0 6908.0,4670.0 C 6919.0,4670.0 6921.0,4661.0 6916.0,4631.0 C 6909.0,4584.0 6930.0,4516.0 6954.0,4512.0 C 6976.0,4507.0 7065.0,4545.0 7106.0,4576.0 C 7123.0,4589.0 7142.0,4600.0 7148.0,4600.0 C 7155.0,4600.0 7177.0,4615.0 7198.0,4634.0 C 7219.0,4653.0 7248.0,4672.0 7263.0,4675.0 C 7277.0,4679.0 7308.0,4703.0 7332.0,4728.0 C 7355.0,4754.0 7387.0,4783.0 7402.0,4792.0 C 7417.0,4802.0 7430.0,4815.0 7430.0,4822.0 C 7430.0,4829.0 7445.0,4854.0 7464.0,4877.0 C 7482.0,4900.0 7505.0,4940.0 7515.0,4967.0 C 7525.0,4993.0 7547.0,5031.0 7565.0,5050.0 C 7583.0,5069.0 7601.0,5101.0 7605.0,5120.0 C 7617.0,5175.0 7658.0,5250.0 7678.0,5250.0 C 7688.0,5251.0 7712.0,5277.0 7734.0,5311.0 C 7757.0,5347.0 7784.0,5376.0 7799.0,5381.0 C 7853.0,5400.0 7858.0,5410.0 7889.0,5544.0 C 7893.0,5563.0 7911.0,5584.0 7939.0,5605.0 C 8000.0,5647.0 8018.0,5675.0 8031.0,5745.0 C 8037.0,5778.0 8055.0,5830.0 8071.0,5861.0 C 8087.0,5892.0 8100.0,5928.0 8100.0,5941.0 C 8100.0,5965.0 8113.0,5990.0 8158.0,6049.0 L 8181.0,6080.0 L 8142.0,6080.0 C 8092.0,6080.0 8070.0,6103.0 8070.0,6158.0 C 8070.0,6193.0 8067.0,6200.0 8050.0,6200.0 C 8011.0,6200.0 8031.0,6277.0 8085.0,6338.0 C 8109.0,6364.0 8130.0,6397.0 8132.0,6410.0 C 8136.0,6441.0 8203.0,6479.0 8313.0,6515.0 C 8375.0,6535.0 8412.0,6540.0 8490.0,6540.0 C 8551.0,6540.0 8591.0,6536.0 8596.0,6529.0 C 8600.0,6523.0 8615.0,6520.0 8632.0,6524.0 C 8665.0,6530.0 8680.0,6510.0 8660.0,6485.0 C 8649.0,6472.0 8651.0,6442.0 8666.0,6388.0 C 8674.0,6359.0 8690.0,6367.0 8706.0,6408.0 C 8715.0,6428.0 8731.0,6455.0 8742.0,6467.0 C 8762.0,6489.0 8759.0,6510.0 8736.0,6510.0 C 8708.0,6510.0 8703.0,6535.0 8712.0,6635.0 C 8717.0,6689.0 8726.0,6740.0 8731.0,6746.0 C 8736.0,6753.0 8738.0,6769.0 8735.0,6782.0 C 8728.0,6809.0 8762.0,6850.0 8775.0,6831.0 C 8786.0,6811.0 8817.0,6819.0 8828.0,6845.0 C 8835.0,6860.0 8848.0,6870.0 8860.0,6870.0 C 8871.0,6870.0 8880.0,6874.0 8880.0,6878.0 C 8880.0,6883.0 8898.0,6904.0 8920.0,6926.0 C 8946.0,6951.0 8960.0,6974.0 8960.0,6991.0 C 8960.0,7006.0 8971.0,7026.0 8987.0,7040.0 L 9014.0,7063.0 L 8991.0,7072.0 C 8973.0,7078.0 8970.0,7083.0 8979.0,7094.0 C 8985.0,7101.0 8987.0,7110.0 8983.0,7113.0 C 8980.0,7117.0 8983.0,7126.0 8989.0,7134.0 C 8997.0,7144.0 8998.0,7150.0 8990.0,7155.0 C 8975.0,7164.0 8978.0,7196.0 8995.0,7210.0 C 9009.0,7222.0 9009.0,7225.0 8995.0,7240.0 C 8974.0,7263.0 8976.0,7275.0 9002.0,7292.0 C 9023.0,7306.0 9024.0,7309.0 9010.0,7334.0 C 8998.0,7358.0 8998.0,7364.0 9013.0,7389.0 C 9022.0,7405.0 9030.0,7429.0 9030.0,7443.0 C 9030.0,7467.0 9098.0,7581.0 9120.0,7595.0 C 9125.0,7598.0 9130.0,7610.0 9130.0,7620.0 C 9130.0,7644.0 9085.0,7668.0 9025.0,7677.0 C 8988.0,7682.0 8979.0,7687.0 8974.0,7706.0 C 8970.0,7720.0 8960.0,7730.0 8951.0,7730.0 C 8941.0,7730.0 8930.0,7733.0 8926.0,7737.0 C 8922.0,7741.0 8885.0,7745.0 8844.0,7745.0 C 8772.0,7746.0 8768.0,7745.0 8752.0,7718.0 C 8743.0,7703.0 8724.0,7688.0 8709.0,7685.0 C 8694.0,7681.0 8679.0,7672.0 8676.0,7664.0 C 8673.0,7656.0 8662.0,7650.0 8651.0,7650.0 C 8640.0,7650.0 8628.0,7646.0 8625.0,7640.0 C 8622.0,7635.0 8610.0,7630.0 8598.0,7630.0 C 8585.0,7630.0 8580.0,7625.0 8583.0,7616.0 C 8586.0,7607.0 8579.0,7595.0 8564.0,7586.0 C 8551.0,7577.0 8540.0,7561.0 8540.0,7550.0 C 8540.0,7540.0 8532.0,7529.0 8522.0,7526.0 C 8513.0,7523.0 8494.0,7502.0 8480.0,7480.0 C 8467.0,7459.0 8438.0,7429.0 8417.0,7415.0 C 8384.0,7394.0 8367.0,7390.0 8300.0,7390.0 C 8236.0,7390.0 8219.0,7387.0 8211.0,7373.0 C 8203.0,7358.0 8198.0,7358.0 8174.0,7369.0 C 8153.0,7378.0 8149.0,7383.0 8159.0,7390.0 C 8179.0,7402.0 8121.0,7430.0 8077.0,7430.0 C 8059.0,7430.0 8035.0,7437.0 8024.0,7445.0 C 8014.0,7453.0 7998.0,7460.0 7990.0,7460.0 C 7970.0,7460.0 7839.0,7523.0 7780.0,7560.0 C 7755.0,7575.0 7719.0,7591.0 7700.0,7595.0 C 7681.0,7599.0 7642.0,7620.0 7614.0,7641.0 C 7563.0,7678.0 7535.0,7683.0 7566.0,7649.0 C 7575.0,7639.0 7579.0,7626.0 7575.0,7621.0 C 7565.0,7604.0 7552.0,7608.0 7554.0,7628.0 C 7555.0,7639.0 7549.0,7644.0 7537.0,7642.0 C 7527.0,7640.0 7499.0,7649.0 7475.0,7661.0 C 7428.0,7685.0 7404.0,7724.0 7415.0,7759.0 C 7419.0,7771.0 7417.0,7780.0 7411.0,7780.0 C 7405.0,7780.0 7400.0,7787.0 7400.0,7795.0 C 7400.0,7803.0 7405.0,7810.0 7411.0,7810.0 C 7425.0,7810.0 7414.0,7880.0 7392.0,7929.0 C 7383.0,7949.0 7373.0,8006.0 7369.0,8055.0 C 7361.0,8164.0 7351.0,8222.0 7339.0,8235.0 C 7334.0,8240.0 7330.0,8256.0 7330.0,8271.0 C 7330.0,8308.0 7309.0,8323.0 7276.0,8310.0 C 7262.0,8305.0 7250.0,8296.0 7250.0,8290.0 C 7250.0,8285.0 7245.0,8280.0 7240.0,8280.0 C 7213.0,8280.0 7280.0,8359.0 7308.0,8360.0 C 7316.0,8360.0 7320.0,8369.0 7318.0,8383.0 C 7315.0,8406.0 7295.0,8409.0 7238.0,8395.0 C 7200.0,8385.0 7148.0,8424.0 7157.0,8457.0 C 7166.0,8495.0 7121.0,8573.0 7096.0,8564.0 C 7089.0,8561.0 7077.0,8566.0 7070.0,8575.0 C 7063.0,8583.0 7045.0,8590.0 7029.0,8590.0 C 7004.0,8590.0 7000.0,8586.0 7000.0,8561.0 C 7000.0,8540.0 7009.0,8525.0 7035.0,8506.0 C 7064.0,8483.0 7069.0,8474.0 7069.0,8437.0 C 7070.0,8348.0 7071.0,8339.0 7085.0,8350.0 C 7094.0,8358.0 7099.0,8356.0 7104.0,8344.0 C 7113.0,8321.0 7112.0,8320.0 7086.0,8320.0 C 7047.0,8320.0 7046.0,8284.0 7084.0,8215.0 C 7102.0,8182.0 7120.0,8137.0 7123.0,8115.0 C 7126.0,8093.0 7131.0,8068.0 7135.0,8058.0 C 7140.0,8047.0 7133.0,8037.0 7113.0,8026.0 C 7044.0,7989.0 7038.0,7988.0 7013.0,8011.0 C 6994.0,8030.0 6990.0,8043.0 6990.0,8092.0 C 6990.0,8140.0 6985.0,8158.0 6965.0,8185.0 C 6937.0,8221.0 6882.0,8236.0 6846.0,8217.0 C 6830.0,8209.0 6828.0,8211.0 6834.0,8225.0 C 6837.0,8235.0 6835.0,8249.0 6829.0,8256.0 C 6816.0,8272.0 6765.0,8275.0 6775.0,8260.0 C 6788.0,8240.0 6751.0,8251.0 6736.0,8272.0 C 6722.0,8291.0 6720.0,8291.0 6714.0,8277.0 C 6706.0,8256.0 6690.0,8255.0 6690.0,8274.0 C 6690.0,8293.0 6591.0,8307.0 6580.0,8290.0 C 6574.0,8281.0 6569.0,8284.0 6560.0,8300.0 C 6547.0,8325.0 6552.0,8336.0 6572.0,8324.0 C 6587.0,8315.0 6660.0,8311.0 6660.0,8319.0 C 6660.0,8323.0 6649.0,8352.0 6635.0,8385.0 L 6611.0,8445.0 L 6645.0,8463.0 C 6688.0,8485.0 6691.0,8503.0 6650.0,8488.0 C 6605.0,8473.0 6586.0,8484.0 6594.0,8522.0 C 6597.0,8539.0 6595.0,8559.0 6589.0,8566.0 C 6580.0,8577.0 6584.0,8582.0 6604.0,8590.0 C 6633.0,8601.0 6638.0,8618.0 6615.0,8626.0 C 6592.0,8635.0 6614.0,8657.0 6653.0,8666.0 C 6684.0,8672.0 6684.0,8673.0 6661.0,8681.0 C 6646.0,8687.0 6640.0,8695.0 6644.0,8705.0 C 6647.0,8713.0 6653.0,8726.0 6656.0,8734.0 C 6659.0,8743.0 6654.0,8751.0 6641.0,8755.0 C 6611.0,8764.0 6564.0,8824.0 6515.0,8912.0 C 6510.0,8922.0 6498.0,8930.0 6488.0,8930.0 C 6479.0,8930.0 6462.0,8942.0 6450.0,8958.0 C 6431.0,8981.0 6429.0,8993.0 6434.0,9042.0 C 6440.0,9103.0 6435.0,9110.0 6380.0,9110.0 C 6360.0,9110.0 6351.0,9116.0 6346.0,9133.0 C 6336.0,9169.0 6339.0,9171.0 6373.0,9150.0 C 6390.0,9139.0 6411.0,9130.0 6418.0,9130.0 C 6425.0,9130.0 6442.0,9118.0 6455.0,9104.0 C 6470.0,9088.0 6486.0,9080.0 6495.0,9084.0 C 6512.0,9090.0 6515.0,9106.0 6500.0,9115.0 C 6486.0,9124.0 6488.0,9177.0 6503.0,9183.0 C 6510.0,9186.0 6508.0,9189.0 6498.0,9189.0 C 6472.0,9190.0 6459.0,9223.0 6466.0,9274.0 C 6472.0,9312.0 6470.0,9320.0 6456.0,9320.0 C 6446.0,9320.0 6440.0,9328.0 6440.0,9344.0 C 6440.0,9357.0 6433.0,9370.0 6425.0,9374.0 C 6417.0,9377.0 6410.0,9391.0 6410.0,9405.0 C 6410.0,9423.0 6405.0,9430.0 6392.0,9430.0 C 6367.0,9430.0 6358.0,9440.0 6370.0,9455.0 C 6376.0,9462.0 6369.0,9477.0 6350.0,9500.0 C 6327.0,9527.0 6322.0,9540.0 6327.0,9564.0 C 6330.0,9581.0 6337.0,9601.0 6343.0,9608.0 C 6350.0,9617.0 6347.0,9620.0 6331.0,9620.0 C 6318.0,9620.0 6310.0,9614.0 6310.0,9604.0 C 6310.0,9592.0 6304.0,9589.0 6285.0,9594.0 C 6265.0,9599.0 6259.0,9596.0 6254.0,9575.0 C 6249.0,9553.0 6243.0,9550.0 6216.0,9552.0 C 6195.0,9554.0 6183.0,9561.0 6179.0,9575.0 C 6175.0,9589.0 6166.0,9594.0 6149.0,9593.0 C 6129.0,9590.0 6125.0,9595.0 6123.0,9616.0 C 6122.0,9635.0 6125.0,9639.0 6133.0,9631.0 C 6146.0,9618.0 6187.0,9616.0 6195.0,9629.0 C 6204.0,9644.0 6158.0,9670.0 6123.0,9670.0 C 6098.0,9670.0 6090.0,9674.0 6090.0,9688.0 C 6090.0,9708.0 6061.0,9740.0 6043.0,9740.0 C 6037.0,9740.0 6027.0,9747.0 6020.0,9755.0 C 6011.0,9766.0 5998.0,9769.0 5979.0,9765.0 C 5959.0,9760.0 5946.0,9764.0 5931.0,9779.0 C 5919.0,9791.0 5901.0,9800.0 5891.0,9800.0 C 5880.0,9800.0 5868.0,9805.0 5865.0,9810.0 C 5862.0,9816.0 5848.0,9820.0 5835.0,9820.0 C 5817.0,9820.0 5809.0,9813.0 5804.0,9796.0 C 5797.0,9766.0 5775.0,9756.0 5750.0,9770.0 C 5706.0,9794.0 5701.0,9853.0 5741.0,9863.0 C 5762.0,9869.0 5762.0,9869.0 5743.0,9894.0 C 5721.0,9925.0 5714.0,9926.0 5707.0,9900.0 C 5704.0,9888.0 5693.0,9880.0 5681.0,9880.0 C 5651.0,9880.0 5645.0,9856.0 5666.0,9820.0 C 5687.0,9785.0 5677.0,9757.0 5641.0,9752.0 C 5611.0,9747.0 5603.0,9777.0 5624.0,9813.0 C 5633.0,9829.0 5639.0,9843.0 5638.0,9844.0 C 5636.0,9845.0 5623.0,9851.0 5607.0,9858.0 C 5589.0,9866.0 5578.0,9880.0 5574.0,9899.0 C 5571.0,9914.0 5550.0,9949.0 5529.0,9976.0 C 5507.0,10003.0 5482.0,10042.0 5472.0,10063.0 C 5460.0,10088.0 5445.0,10104.0 5422.0,10112.0 C 5401.0,10120.0 5391.0,10129.0 5395.0,10138.0 C 5398.0,10145.0 5400.0,10157.0 5400.0,10163.0 C 5400.0,10169.0 5410.0,10164.0 5423.0,10152.0 C 5451.0,10126.0 5460.0,10132.0 5460.0,10177.0 C 5460.0,10200.0 5465.0,10210.0 5476.0,10210.0 C 5496.0,10210.0 5489.0,10234.0 5468.0,10238.0 C 5459.0,10240.0 5449.0,10236.0 5445.0,10230.0 M 5954.0,9715.0 C 5950.0,9707.0 5943.0,9700.0 5938.0,9700.0 C 5932.0,9700.0 5933.0,9706.0 5940.0,9715.0 C 5947.0,9723.0 5954.0,9730.0 5956.0,9730.0 C 5958.0,9730.0 5957.0,9723.0 5954.0,9715.0 M 5749.0,9413.0 C 5736.0,9397.0 5722.0,9381.0 5718.0,9376.0 C 5713.0,9370.0 5710.0,9376.0 5710.0,9387.0 C 5710.0,9412.0 5735.0,9440.0 5757.0,9440.0 C 5770.0,9440.0 5769.0,9434.0 5749.0,9413.0" fill="pink"/>
	<path d="M 7011.0,8927.0 C 7005.0,8921.0 7000.0,8906.0 7000.0,8893.0 C 7000.0,8880.0 6996.0,8870.0 6991.0,8870.0 C 6987.0,8870.0 6983.0,8860.0 6984.0,8848.0 C 6985.0,8835.0 6992.0,8825.0 7000.0,8825.0 C 7009.0,8825.0 7014.0,8817.0 7012.0,8807.0 C 7008.0,8786.0 7098.0,8698.0 7120.0,8702.0 C 7144.0,8707.0 7144.0,8747.0 7121.0,8762.0 C 7099.0,8775.0 7093.0,8805.0 7110.0,8815.0 C 7127.0,8825.0 7121.0,8840.0 7097.0,8851.0 C 7084.0,8857.0 7067.0,8877.0 7060.0,8896.0 C 7045.0,8933.0 7028.0,8944.0 7011.0,8927.0" fill="pink"/>
	<path d="M 6817.0,8823.0 C 6813.0,8820.0 6810.0,8808.0 6810.0,8798.0 C 6810.0,8772.0 6834.0,8781.0 6838.0,8808.0 C 6841.0,8829.0 6830.0,8837.0 6817.0,8823.0" fill="pink"/>
	<path d="M 6720.0,8382.0 C 6720.0,8377.0 6709.0,8368.0 6695.0,8362.0 C 6666.0,8349.0 6662.0,8330.0 6688.0,8330.0 C 6705.0,8330.0 6750.0,8368.0 6750.0,8383.0 C 6750.0,8387.0 6743.0,8390.0 6735.0,8390.0 C 6727.0,8390.0 6720.0,8386.0 6720.0,8382.0" fill="pink"/>
	<path d="M 6868.0,8373.0 C 6858.0,8371.0 6850.0,8364.0 6850.0,8359.0 C 6850.0,8354.0 6840.0,8350.0 6828.0,8351.0 C 6793.0,8354.0 6770.0,8351.0 6770.0,8343.0 C 6770.0,8330.0 6859.0,8297.0 6875.0,8304.0 C 6885.0,8307.0 6890.0,8303.0 6890.0,8291.0 C 6890.0,8281.0 6897.0,8267.0 6905.0,8260.0 C 6918.0,8249.0 6920.0,8252.0 6920.0,8279.0 C 6920.0,8296.0 6915.0,8310.0 6909.0,8310.0 C 6903.0,8310.0 6900.0,8324.0 6902.0,8342.0 C 6905.0,8374.0 6898.0,8381.0 6868.0,8373.0" fill="pink"/>
	<path d="M 7440.0,7779.0 C 7440.0,7770.0 7447.0,7757.0 7455.0,7750.0 C 7463.0,7743.0 7470.0,7727.0 7470.0,7714.0 C 7470.0,7684.0 7513.0,7659.0 7532.0,7678.0 C 7542.0,7688.0 7533.0,7702.0 7492.0,7743.0 C 7459.0,7776.0 7440.0,7789.0 7440.0,7779.0" fill="pink"/>
	<path d="M 5188.0,5369.0 C 5158.0,5347.0 5150.0,5324.0 5175.0,5334.0 C 5197.0,5342.0 5193.0,5322.0 5171.0,5310.0 C 5146.0,5297.0 5137.0,5297.0 5145.0,5310.0 C 5148.0,5316.0 5145.0,5320.0 5137.0,5320.0 C 5129.0,5320.0 5089.0,5290.0 5048.0,5253.0 C 5007.0,5215.0 4951.0,5169.0 4924.0,5150.0 L 4875.0,5115.0 L 4870.0,4960.0 C 4867.0,4874.0 4859.0,4792.0 4852.0,4777.0 C 4845.0,4761.0 4840.0,4734.0 4840.0,4716.0 C 4840.0,4697.0 4833.0,4676.0 4823.0,4669.0 C 4814.0,4661.0 4781.0,4619.0 4749.0,4575.0 C 4717.0,4531.0 4682.0,4487.0 4673.0,4477.0 C 4644.0,4447.0 4589.0,4423.0 4532.0,4416.0 C 4440.0,4404.0 4432.0,4398.0 4437.0,4347.0 C 4442.0,4310.0 4439.0,4299.0 4421.0,4284.0 C 4407.0,4271.0 4400.0,4254.0 4400.0,4228.0 C 4400.0,4207.0 4396.0,4190.0 4390.0,4190.0 C 4385.0,4190.0 4380.0,4181.0 4380.0,4170.0 C 4380.0,4158.0 4371.0,4140.0 4361.0,4129.0 C 4347.0,4114.0 4341.0,4090.0 4338.0,4040.0 C 4335.0,3981.0 4330.0,3966.0 4303.0,3932.0 C 4285.0,3910.0 4268.0,3879.0 4264.0,3864.0 C 4251.0,3808.0 4177.0,3699.0 4108.0,3632.0 C 4069.0,3595.0 4031.0,3553.0 4022.0,3538.0 C 4013.0,3522.0 4002.0,3510.0 3997.0,3510.0 C 3992.0,3510.0 3967.0,3492.0 3940.0,3469.0 C 3910.0,3444.0 3868.0,3421.0 3829.0,3409.0 C 3795.0,3398.0 3746.0,3376.0 3721.0,3360.0 C 3697.0,3343.0 3672.0,3330.0 3666.0,3330.0 C 3654.0,3330.0 3600.0,3280.0 3600.0,3268.0 C 3600.0,3264.0 3608.0,3260.0 3618.0,3260.0 C 3633.0,3259.0 3633.0,3258.0 3616.0,3245.0 C 3605.0,3237.0 3590.0,3230.0 3583.0,3230.0 C 3565.0,3230.0 3462.0,3152.0 3450.0,3130.0 C 3445.0,3120.0 3423.0,3110.0 3401.0,3106.0 C 3362.0,3100.0 3318.0,3062.0 3306.0,3022.0 C 3298.0,2999.0 3212.0,2944.0 3190.0,2948.0 C 3181.0,2949.0 3167.0,2944.0 3160.0,2935.0 C 3153.0,2927.0 3134.0,2920.0 3118.0,2920.0 C 3088.0,2920.0 2984.0,2864.0 2915.0,2810.0 C 2893.0,2793.0 2862.0,2769.0 2845.0,2756.0 C 2829.0,2743.0 2799.0,2725.0 2780.0,2715.0 C 2761.0,2705.0 2728.0,2682.0 2707.0,2664.0 C 2676.0,2635.0 2662.0,2630.0 2621.0,2630.0 C 2586.0,2630.0 2570.0,2634.0 2566.0,2645.0 C 2561.0,2659.0 2555.0,2658.0 2521.0,2640.0 C 2499.0,2629.0 2470.0,2620.0 2458.0,2620.0 C 2415.0,2620.0 2395.0,2609.0 2370.0,2572.0 C 2337.0,2523.0 2306.0,2495.0 2243.0,2459.0 C 2186.0,2426.0 2182.0,2419.0 2204.0,2400.0 C 2226.0,2383.0 2212.0,2360.0 2180.0,2360.0 C 2161.0,2360.0 2149.0,2354.0 2145.0,2342.0 C 2142.0,2331.0 2129.0,2318.0 2116.0,2312.0 C 2088.0,2300.0 2031.0,2229.0 2037.0,2214.0 C 2045.0,2192.0 2021.0,2150.0 2001.0,2150.0 C 1967.0,2150.0 1910.0,2118.0 1910.0,2099.0 C 1910.0,2088.0 1901.0,2080.0 1888.0,2078.0 C 1873.0,2076.0 1864.0,2067.0 1862.0,2053.0 C 1860.0,2039.0 1852.0,2030.0 1840.0,2030.0 C 1830.0,2030.0 1820.0,2023.0 1816.0,2015.0 C 1813.0,2007.0 1803.0,2000.0 1793.0,2000.0 C 1783.0,1999.0 1764.0,1991.0 1752.0,1980.0 C 1728.0,1961.0 1728.0,1960.0 1745.0,1910.0 C 1754.0,1883.0 1760.0,1855.0 1758.0,1848.0 C 1755.0,1841.0 1748.0,1857.0 1741.0,1882.0 C 1720.0,1958.0 1675.0,1955.0 1622.0,1876.0 L 1592.0,1831.0 L 1613.0,1816.0 C 1634.0,1801.0 1634.0,1801.0 1606.0,1812.0 C 1581.0,1823.0 1576.0,1822.0 1560.0,1802.0 C 1550.0,1790.0 1537.0,1780.0 1532.0,1780.0 C 1527.0,1780.0 1516.0,1773.0 1509.0,1764.0 C 1498.0,1750.0 1500.0,1745.0 1523.0,1728.0 C 1538.0,1717.0 1550.0,1704.0 1550.0,1699.0 C 1550.0,1694.0 1541.0,1699.0 1529.0,1711.0 C 1518.0,1722.0 1503.0,1729.0 1497.0,1727.0 C 1483.0,1723.0 1481.0,1657.0 1494.0,1621.0 C 1507.0,1584.0 1481.0,1606.0 1464.0,1647.0 L 1449.0,1681.0 L 1430.0,1658.0 C 1414.0,1638.0 1413.0,1633.0 1426.0,1619.0 C 1446.0,1597.0 1444.0,1592.0 1416.0,1597.0 C 1385.0,1603.0 1350.0,1584.0 1350.0,1560.0 C 1350.0,1550.0 1344.0,1535.0 1337.0,1528.0 C 1330.0,1521.0 1318.0,1499.0 1310.0,1480.0 C 1302.0,1461.0 1293.0,1443.0 1288.0,1440.0 C 1284.0,1436.0 1277.0,1420.0 1274.0,1402.0 C 1266.0,1361.0 1288.0,1351.0 1333.0,1375.0 C 1351.0,1384.0 1375.0,1390.0 1385.0,1388.0 C 1399.0,1385.0 1389.0,1378.0 1353.0,1366.0 C 1312.0,1352.0 1300.0,1344.0 1299.0,1327.0 C 1298.0,1310.0 1297.0,1309.0 1293.0,1322.0 C 1290.0,1334.0 1279.0,1340.0 1261.0,1340.0 C 1205.0,1340.0 1176.0,1321.0 1146.0,1267.0 L 1118.0,1215.0 L 1159.0,1254.0 L 1199.0,1293.0 L 1209.0,1269.0 C 1217.0,1247.0 1214.0,1244.0 1185.0,1235.0 C 1141.0,1222.0 1126.0,1205.0 1165.0,1214.0 C 1182.0,1217.0 1211.0,1223.0 1230.0,1226.0 C 1249.0,1229.0 1272.0,1234.0 1280.0,1237.0 C 1288.0,1240.0 1329.0,1244.0 1370.0,1246.0 C 1439.0,1250.0 1443.0,1249.0 1426.0,1235.0 C 1413.0,1225.0 1385.0,1220.0 1344.0,1220.0 C 1310.0,1220.0 1266.0,1213.0 1247.0,1205.0 C 1227.0,1197.0 1199.0,1190.0 1186.0,1190.0 C 1153.0,1190.0 1110.0,1151.0 1109.0,1120.0 C 1108.0,1106.0 1115.0,1078.0 1124.0,1057.0 C 1139.0,1024.0 1143.0,1020.0 1168.0,1026.0 C 1183.0,1030.0 1204.0,1041.0 1216.0,1051.0 C 1227.0,1062.0 1249.0,1070.0 1266.0,1070.0 L 1295.0,1069.0 L 1265.0,1054.0 C 1226.0,1033.0 1210.0,1012.0 1210.0,982.0 C 1210.0,963.0 1213.0,960.0 1223.0,969.0 C 1233.0,977.0 1240.0,976.0 1248.0,968.0 C 1257.0,959.0 1263.0,961.0 1274.0,976.0 C 1288.0,994.0 1289.0,994.0 1295.0,977.0 C 1303.0,958.0 1285.0,930.0 1265.0,930.0 C 1257.0,930.0 1250.0,935.0 1248.0,941.0 C 1246.0,948.0 1239.0,946.0 1231.0,936.0 C 1201.0,900.0 1325.0,829.0 1369.0,857.0 C 1380.0,864.0 1396.0,863.0 1422.0,854.0 C 1442.0,847.0 1492.0,839.0 1532.0,835.0 C 1572.0,832.0 1631.0,827.0 1663.0,824.0 C 1718.0,819.0 1720.0,820.0 1720.0,843.0 C 1720.0,905.0 1812.0,921.0 1883.0,871.0 C 1938.0,833.0 1964.0,804.0 1951.0,795.0 C 1935.0,786.0 1938.0,770.0 1955.0,770.0 C 1963.0,770.0 1970.0,761.0 1970.0,751.0 C 1970.0,736.0 1979.0,731.0 2018.0,728.0 C 2047.0,725.0 2070.0,728.0 2078.0,735.0 C 2089.0,745.0 2101.0,745.0 2127.0,737.0 C 2157.0,728.0 2164.0,729.0 2175.0,743.0 C 2186.0,759.0 2190.0,759.0 2226.0,744.0 C 2277.0,723.0 2298.0,703.0 2316.0,661.0 C 2334.0,619.0 2334.0,622.0 2308.0,618.0 C 2286.0,615.0 2286.0,613.0 2321.0,576.0 C 2357.0,537.0 2357.0,537.0 2425.0,539.0 C 2463.0,540.0 2509.0,548.0 2528.0,556.0 C 2547.0,564.0 2591.0,570.0 2626.0,570.0 C 2681.0,570.0 2690.0,567.0 2690.0,552.0 C 2690.0,510.0 2711.0,499.0 2799.0,497.0 C 2868.0,496.0 2884.0,499.0 2895.0,513.0 C 2906.0,528.0 2908.0,529.0 2914.0,515.0 C 2920.0,498.0 2955.0,495.0 2965.0,510.0 C 2968.0,516.0 2986.0,520.0 3003.0,520.0 C 3053.0,520.0 3101.0,537.0 3118.0,561.0 C 3130.0,578.0 3140.0,581.0 3166.0,577.0 C 3187.0,573.0 3203.0,576.0 3210.0,585.0 C 3216.0,593.0 3235.0,602.0 3252.0,605.0 C 3269.0,609.0 3284.0,620.0 3287.0,629.0 C 3289.0,639.0 3307.0,653.0 3326.0,660.0 C 3351.0,670.0 3359.0,678.0 3355.0,689.0 C 3351.0,698.0 3346.0,717.0 3343.0,731.0 C 3339.0,754.0 3342.0,758.0 3369.0,763.0 C 3404.0,770.0 3586.0,893.0 3600.0,920.0 C 3606.0,930.0 3610.0,950.0 3610.0,965.0 C 3610.0,1025.0 3733.0,1091.0 3853.0,1095.0 C 3912.0,1097.0 3924.0,1101.0 3945.0,1124.0 C 3973.0,1154.0 3979.0,1200.0 3955.0,1200.0 C 3946.0,1200.0 3937.0,1207.0 3933.0,1216.0 C 3930.0,1224.0 3916.0,1236.0 3903.0,1241.0 C 3879.0,1250.0 3879.0,1251.0 3894.0,1273.0 C 3903.0,1285.0 3914.0,1304.0 3919.0,1315.0 C 3924.0,1327.0 3936.0,1342.0 3945.0,1350.0 C 3973.0,1373.0 4020.0,1447.0 4020.0,1469.0 C 4020.0,1480.0 4028.0,1493.0 4038.0,1499.0 C 4052.0,1507.0 4053.0,1512.0 4043.0,1529.0 C 4036.0,1541.0 4030.0,1558.0 4030.0,1567.0 C 4031.0,1595.0 4068.0,1672.0 4095.0,1700.0 C 4108.0,1714.0 4134.0,1741.0 4153.0,1760.0 C 4187.0,1795.0 4230.0,1853.0 4230.0,1864.0 C 4230.0,1867.0 4215.0,1874.0 4198.0,1879.0 L 4165.0,1888.0 L 4202.0,1889.0 C 4236.0,1890.0 4240.0,1893.0 4245.0,1923.0 C 4251.0,1952.0 4252.0,2014.0 4249.0,2122.0 C 4248.0,2148.0 4258.0,2175.0 4278.0,2209.0 C 4295.0,2236.0 4310.0,2275.0 4312.0,2296.0 C 4315.0,2329.0 4325.0,2342.0 4390.0,2399.0 C 4449.0,2451.0 4465.0,2470.0 4463.0,2490.0 C 4462.0,2504.0 4464.0,2507.0 4467.0,2498.0 C 4469.0,2488.0 4476.0,2480.0 4482.0,2480.0 C 4497.0,2480.0 4660.0,2573.0 4660.0,2582.0 C 4660.0,2586.0 4666.0,2587.0 4673.0,2585.0 C 4679.0,2582.0 4718.0,2596.0 4758.0,2615.0 C 4911.0,2688.0 5023.0,2725.0 5125.0,2735.0 C 5158.0,2738.0 5205.0,2746.0 5228.0,2752.0 C 5262.0,2761.0 5274.0,2760.0 5279.0,2751.0 C 5289.0,2735.0 5386.0,2690.0 5411.0,2690.0 C 5434.0,2690.0 5436.0,2703.0 5415.0,2720.0 C 5398.0,2734.0 5394.0,2810.0 5410.0,2810.0 C 5416.0,2810.0 5421.0,2802.0 5422.0,2793.0 C 5423.0,2783.0 5424.0,2766.0 5425.0,2755.0 C 5426.0,2744.0 5428.0,2729.0 5429.0,2723.0 C 5431.0,2704.0 5471.0,2708.0 5497.0,2728.0 C 5516.0,2743.0 5550.0,2815.0 5550.0,2841.0 C 5550.0,2854.0 5453.0,2900.0 5392.0,2916.0 C 5352.0,2927.0 5328.0,2928.0 5301.0,2920.0 C 5256.0,2908.0 5250.0,2908.0 5250.0,2920.0 C 5250.0,2926.0 5263.0,2930.0 5278.0,2930.0 C 5316.0,2930.0 5324.0,2940.0 5303.0,2962.0 C 5282.0,2986.0 5273.0,3141.0 5290.0,3209.0 C 5308.0,3284.0 5345.0,3314.0 5467.0,3354.0 C 5496.0,3364.0 5526.0,3380.0 5533.0,3390.0 C 5540.0,3400.0 5564.0,3416.0 5587.0,3425.0 C 5610.0,3434.0 5632.0,3451.0 5638.0,3466.0 C 5645.0,3479.0 5654.0,3490.0 5660.0,3490.0 C 5665.0,3490.0 5670.0,3499.0 5670.0,3511.0 C 5670.0,3522.0 5681.0,3546.0 5694.0,3563.0 C 5734.0,3617.0 5801.0,3760.0 5795.0,3779.0 C 5791.0,3792.0 5802.0,3808.0 5830.0,3834.0 C 5870.0,3870.0 5894.0,3878.0 5905.0,3860.0 C 5916.0,3843.0 5928.0,3858.0 5923.0,3883.0 C 5918.0,3910.0 5931.0,3928.0 6023.0,4017.0 C 6070.0,4064.0 6080.0,4079.0 6080.0,4107.0 C 6080.0,4133.0 6090.0,4152.0 6123.0,4188.0 C 6188.0,4258.0 6310.0,4410.0 6310.0,4421.0 C 6310.0,4426.0 6296.0,4430.0 6280.0,4430.0 C 6244.0,4430.0 6230.0,4457.0 6230.0,4525.0 C 6230.0,4562.0 6227.0,4569.0 6206.0,4574.0 C 6147.0,4589.0 6134.0,4642.0 6175.0,4696.0 C 6189.0,4714.0 6200.0,4733.0 6200.0,4739.0 C 6200.0,4745.0 6205.0,4750.0 6210.0,4750.0 C 6216.0,4750.0 6220.0,4743.0 6220.0,4735.0 C 6220.0,4727.0 6227.0,4720.0 6235.0,4720.0 C 6243.0,4720.0 6250.0,4725.0 6250.0,4730.0 C 6250.0,4736.0 6255.0,4740.0 6261.0,4740.0 C 6277.0,4740.0 6299.0,4771.0 6300.0,4792.0 C 6300.0,4802.0 6315.0,4820.0 6334.0,4832.0 C 6357.0,4847.0 6370.0,4864.0 6373.0,4885.0 C 6379.0,4922.0 6377.0,4924.0 6351.0,4909.0 C 6337.0,4899.0 6334.0,4892.0 6341.0,4883.0 C 6349.0,4874.0 6346.0,4869.0 6328.0,4865.0 C 6315.0,4861.0 6299.0,4860.0 6294.0,4862.0 C 6289.0,4864.0 6271.0,4853.0 6255.0,4838.0 C 6239.0,4822.0 6216.0,4810.0 6205.0,4810.0 C 6194.0,4809.0 6174.0,4803.0 6160.0,4795.0 C 6146.0,4787.0 6124.0,4781.0 6111.0,4780.0 C 6064.0,4780.0 6115.0,4815.0 6180.0,4828.0 C 6246.0,4842.0 6264.0,4861.0 6234.0,4886.0 C 6216.0,4900.0 6217.0,4901.0 6243.0,4895.0 C 6266.0,4890.0 6273.0,4893.0 6277.0,4910.0 C 6280.0,4921.0 6286.0,4930.0 6291.0,4930.0 C 6303.0,4930.0 6302.0,4957.0 6290.0,4965.0 C 6284.0,4969.0 6273.0,4966.0 6265.0,4960.0 C 6253.0,4950.0 6250.0,4951.0 6250.0,4969.0 C 6250.0,4980.0 6256.0,4990.0 6263.0,4991.0 C 6269.0,4991.0 6262.0,4996.0 6245.0,5001.0 C 6223.0,5007.0 6212.0,5005.0 6198.0,4993.0 C 6181.0,4978.0 6180.0,4979.0 6180.0,5008.0 C 6180.0,5043.0 6161.0,5051.0 6153.0,5020.0 C 6147.0,4998.0 6139.0,4995.0 6124.0,5010.0 C 6118.0,5016.0 6109.0,5013.0 6098.0,5001.0 C 6084.0,4985.0 6084.0,4979.0 6095.0,4970.0 C 6104.0,4962.0 6110.0,4962.0 6115.0,4970.0 C 6124.0,4985.0 6140.0,4982.0 6140.0,4965.0 C 6140.0,4957.0 6136.0,4950.0 6130.0,4950.0 C 6125.0,4950.0 6123.0,4943.0 6126.0,4935.0 C 6130.0,4926.0 6126.0,4920.0 6117.0,4920.0 C 6109.0,4920.0 6100.0,4926.0 6097.0,4933.0 C 6094.0,4941.0 6084.0,4937.0 6066.0,4921.0 C 6038.0,4895.0 6029.0,4835.0 6053.0,4827.0 C 6059.0,4825.0 6051.0,4816.0 6033.0,4807.0 C 5993.0,4786.0 5968.0,4785.0 5998.0,4806.0 C 6023.0,4823.0 6027.0,4858.0 6005.0,4866.0 C 5983.0,4875.0 5987.0,4890.0 6010.0,4890.0 C 6021.0,4890.0 6034.0,4898.0 6037.0,4908.0 C 6041.0,4917.0 6053.0,4933.0 6065.0,4943.0 C 6085.0,4961.0 6084.0,4961.0 6046.0,4956.0 C 6025.0,4953.0 6002.0,4943.0 5995.0,4933.0 C 5983.0,4917.0 5981.0,4918.0 5982.0,4948.0 C 5983.0,4976.0 5986.0,4980.0 6010.0,4980.0 C 6040.0,4980.0 6100.0,5025.0 6100.0,5048.0 C 6100.0,5057.0 6107.0,5059.0 6120.0,5055.0 C 6134.0,5050.0 6140.0,5053.0 6140.0,5064.0 C 6140.0,5090.0 6104.0,5083.0 6067.0,5050.0 C 6048.0,5034.0 6030.0,5020.0 6026.0,5020.0 C 6011.0,5020.0 6022.0,5070.0 6043.0,5093.0 C 6099.0,5158.0 6105.0,5169.0 6101.0,5202.0 C 6096.0,5251.0 6089.0,5256.0 6074.0,5221.0 C 6064.0,5196.0 6056.0,5190.0 6042.0,5194.0 C 6000.0,5208.0 5944.0,5067.0 5981.0,5044.0 C 5994.0,5036.0 5945.0,4990.0 5923.0,4990.0 C 5916.0,4990.0 5910.0,4979.0 5910.0,4966.0 C 5910.0,4953.0 5903.0,4936.0 5894.0,4929.0 C 5881.0,4918.0 5877.0,4919.0 5869.0,4933.0 C 5855.0,4958.0 5843.0,4954.0 5806.0,4915.0 C 5787.0,4896.0 5763.0,4880.0 5752.0,4880.0 C 5713.0,4880.0 5679.0,4857.0 5673.0,4828.0 C 5669.0,4808.0 5658.0,4797.0 5634.0,4788.0 C 5615.0,4781.0 5600.0,4770.0 5600.0,4763.0 C 5600.0,4756.0 5596.0,4750.0 5590.0,4750.0 C 5585.0,4750.0 5580.0,4755.0 5580.0,4760.0 C 5580.0,4766.0 5569.0,4775.0 5555.0,4780.0 C 5542.0,4785.0 5523.0,4804.0 5514.0,4822.0 C 5505.0,4840.0 5488.0,4861.0 5478.0,4868.0 C 5465.0,4877.0 5462.0,4886.0 5468.0,4893.0 C 5478.0,4906.0 5477.0,4977.0 5466.0,4987.0 C 5454.0,4999.0 5460.0,5010.0 5478.0,5010.0 C 5493.0,5010.0 5497.0,5018.0 5498.0,5055.0 C 5498.0,5085.0 5493.0,5103.0 5483.0,5108.0 C 5475.0,5113.0 5468.0,5121.0 5468.0,5126.0 C 5465.0,5153.0 5456.0,5170.0 5444.0,5170.0 C 5436.0,5170.0 5430.0,5165.0 5430.0,5158.0 C 5430.0,5152.0 5427.0,5150.0 5424.0,5153.0 C 5420.0,5156.0 5408.0,5153.0 5396.0,5145.0 C 5370.0,5126.0 5330.0,5126.0 5330.0,5144.0 C 5330.0,5152.0 5314.0,5167.0 5295.0,5179.0 C 5275.0,5190.0 5257.0,5208.0 5254.0,5217.0 C 5251.0,5227.0 5244.0,5243.0 5239.0,5253.0 C 5233.0,5264.0 5233.0,5270.0 5240.0,5270.0 C 5245.0,5270.0 5250.0,5282.0 5250.0,5298.0 C 5250.0,5313.0 5259.0,5336.0 5269.0,5349.0 C 5293.0,5380.0 5369.0,5389.0 5423.0,5367.0 C 5467.0,5348.0 5472.0,5353.0 5430.0,5375.0 C 5410.0,5385.0 5372.0,5390.0 5308.0,5390.0 C 5230.0,5389.0 5211.0,5386.0 5188.0,5369.0 M 2079.0,2131.0 C 2086.0,2126.0 2091.0,2117.0 2088.0,2110.0 C 2086.0,2103.0 2078.0,2106.0 2066.0,2119.0 C 2047.0,2140.0 2054.0,2147.0 2079.0,2131.0 M 1500.0,1568.0 C 1500.0,1555.0 1457.0,1562.0 1453.0,1576.0 C 1451.0,1583.0 1459.0,1586.0 1475.0,1583.0 C 1489.0,1580.0 1500.0,1573.0 1500.0,1568.0 M 3914.0,1175.0 C 3904.0,1167.0 3889.0,1160.0 3883.0,1160.0 C 3876.0,1160.0 3870.0,1153.0 3870.0,1145.0 C 3870.0,1137.0 3862.0,1130.0 3853.0,1130.0 C 3839.0,1131.0 3843.0,1138.0 3868.0,1160.0 C 3886.0,1177.0 3908.0,1190.0 3917.0,1190.0 C 3932.0,1190.0 3931.0,1188.0 3914.0,1175.0 M 2379.0,661.0 C 2387.0,646.0 2386.0,641.0 2372.0,638.0 C 2358.0,634.0 2354.0,638.0 2356.0,654.0 C 2360.0,688.0 2364.0,689.0 2379.0,661.0 M 2388.0,571.0 C 2392.0,544.0 2376.0,550.0 2359.0,581.0 C 2350.0,599.0 2351.0,601.0 2367.0,598.0 C 2377.0,596.0 2386.0,584.0 2388.0,571.0" fill="pink"/>
	<path d="M 1982.0,474.0 C 1968.0,464.0 1960.0,448.0 1960.0,429.0 C 1960.0,413.0 1955.0,400.0 1948.0,400.0 C 1941.0,400.0 1951.0,385.0 1969.0,367.0 C 1998.0,336.0 2000.0,331.0 1989.0,307.0 C 1982.0,292.0 1971.0,280.0 1963.0,280.0 C 1955.0,280.0 1950.0,267.0 1950.0,241.0 C 1950.0,204.0 1949.0,202.0 1911.0,196.0 C 1868.0,189.0 1858.0,174.0 1866.0,130.0 C 1872.0,104.0 1869.0,99.0 1836.0,83.0 C 1804.0,68.0 1799.0,62.0 1802.0,35.0 C 1805.0,10.0 1810.0,4.0 1834.0,2.0 C 1853.0,0.0 1866.0,4.0 1872.0,14.0 C 1877.0,22.0 1887.0,27.0 1895.0,23.0 C 1905.0,20.0 1924.0,32.0 1945.0,54.0 C 1976.0,87.0 1983.0,90.0 2014.0,84.0 C 2040.0,80.0 2056.0,83.0 2077.0,97.0 C 2107.0,118.0 2182.0,140.0 2224.0,140.0 C 2241.0,140.0 2250.0,145.0 2250.0,156.0 C 2250.0,168.0 2256.0,171.0 2271.0,167.0 C 2287.0,163.0 2290.0,164.0 2282.0,172.0 C 2274.0,180.0 2275.0,187.0 2286.0,197.0 C 2307.0,218.0 2303.0,239.0 2277.0,245.0 C 2264.0,249.0 2250.0,250.0 2244.0,249.0 C 2239.0,248.0 2228.0,248.0 2220.0,249.0 C 2209.0,250.0 2208.0,252.0 2218.0,258.0 C 2226.0,263.0 2212.0,271.0 2180.0,280.0 C 2153.0,287.0 2130.0,297.0 2130.0,302.0 C 2130.0,317.0 2160.0,323.0 2175.0,310.0 C 2193.0,295.0 2263.0,306.0 2257.0,323.0 C 2255.0,329.0 2238.0,342.0 2219.0,353.0 C 2178.0,375.0 2150.0,406.0 2150.0,430.0 C 2150.0,460.0 2115.0,481.0 2058.0,485.0 C 2020.0,488.0 1997.0,485.0 1982.0,474.0" fill="pink"/>
</svg>
