<?xml version="1.0" ?>
<svg xmlns="http://www.w3.org/2000/svg" xmlns:ev="http://www.w3.org/2001/xml-events" xmlns:xlink="http://www.w3.org/1999/xlink" baseProfile="full" height="600px" version="1.1" viewBox="-294.2265808070341 -1023.4770047473213 10833.679189282311 12289.95031989893" width="529px">
	<defs/>
	<path d="M 5128.0,10228.0 C 5102.0,10222.0 5072.0,10208.0 5059.0,10194.0 C 5027.0,10160.0 5022.0,10074.0 5045.0,9965.0 L 5063.0,9881.0 L 5035.0,9838.0 C 5001.0,9787.0 4987.0,9724.0 5003.0,9695.0 C 5009.0,9684.0 5019.0,9646.0 5026.0,9610.0 C 5037.0,9551.0 5037.0,9543.0 5017.0,9505.0 C 4987.0,9446.0 4967.0,9358.0 4983.0,9348.0 C 5004.0,9335.0 5089.0,9339.0 5127.0,9355.0 C 5163.0,9370.0 5165.0,9370.0 5182.0,9348.0 C 5192.0,9335.0 5203.0,9314.0 5206.0,9300.0 C 5209.0,9286.0 5218.0,9254.0 5226.0,9228.0 C 5250.0,9147.0 5249.0,9145.0 5163.0,9115.0 C 5103.0,9094.0 5055.0,9086.0 4955.0,9080.0 C 4884.0,9075.0 4805.0,9064.0 4781.0,9056.0 C 4757.0,9047.0 4729.0,9040.0 4719.0,9040.0 C 4709.0,9040.0 4689.0,9029.0 4674.0,9016.0 L 4646.0,8993.0 L 4687.0,8967.0 C 4710.0,8952.0 4731.0,8931.0 4735.0,8919.0 C 4739.0,8908.0 4739.0,8862.0 4735.0,8817.0 C 4728.0,8741.0 4722.0,8725.0 4633.0,8547.0 C 4561.0,8401.0 4523.0,8309.0 4470.0,8151.0 C 4433.0,8038.0 4392.0,7920.0 4380.0,7890.0 C 4362.0,7844.0 4357.0,7805.0 4351.0,7660.0 C 4346.0,7546.0 4346.0,7478.0 4353.0,7465.0 C 4359.0,7454.0 4482.0,7250.0 4627.0,7012.0 L 4890.0,6579.0 L 4675.0,5911.0 C 4556.0,5543.0 4380.0,4987.0 4282.0,4674.0 L 4104.0,4107.0 L 3780.0,3992.0 C 3108.0,3755.0 2129.0,3426.0 1382.0,3184.0 C 677.0,2957.0 609.0,2933.0 613.0,2915.0 C 615.0,2904.0 804.0,2439.0 1033.0,1883.0 C 1263.0,1326.0 1450.0,863.0 1450.0,855.0 C 1450.0,846.0 1470.0,828.0 1494.0,813.0 L 1538.0,786.0 L 1700.0,401.0 C 1789.0,189.0 1865.0,12.0 1869.0,7.0 C 1879.0,-3.0 1999.0,25.0 2091.0,60.0 C 2189.0,98.0 2326.0,116.0 2384.0,100.0 C 2440.0,84.0 2466.0,96.0 2525.0,165.0 C 2579.0,229.0 2634.0,259.0 2696.0,260.0 C 2719.0,260.0 2765.0,263.0 2799.0,266.0 C 2860.0,273.0 2861.0,274.0 2895.0,324.0 C 2954.0,414.0 2957.0,414.0 3441.0,426.0 L 3697.0,432.0 L 3704.0,406.0 C 3708.0,388.0 3726.0,372.0 3762.0,354.0 C 3809.0,330.0 3819.0,328.0 3865.0,337.0 C 3942.0,353.0 4102.0,401.0 4130.0,418.0 C 4178.0,448.0 4310.0,585.0 4321.0,617.0 C 4328.0,640.0 4340.0,652.0 4366.0,660.0 C 4399.0,671.0 4400.0,673.0 4394.0,710.0 C 4390.0,737.0 4393.0,763.0 4405.0,792.0 C 4446.0,892.0 4444.0,914.0 4389.0,978.0 C 4344.0,1029.0 4343.0,1052.0 4381.0,1116.0 C 4413.0,1169.0 4506.0,1260.0 4529.0,1260.0 C 4534.0,1260.0 4544.0,1279.0 4551.0,1303.0 C 4557.0,1326.0 4573.0,1363.0 4586.0,1385.0 C 4611.0,1429.0 4641.0,1444.0 4780.0,1483.0 C 4893.0,1514.0 4921.0,1519.0 5084.0,1530.0 C 5171.0,1536.0 5255.0,1546.0 5269.0,1552.0 C 5283.0,1557.0 5385.0,1563.0 5495.0,1564.0 L 5695.0,1567.0 L 5700.0,1599.0 C 5703.0,1620.0 5715.0,1636.0 5735.0,1649.0 C 5752.0,1659.0 5777.0,1688.0 5790.0,1714.0 C 5810.0,1751.0 5820.0,1760.0 5842.0,1760.0 C 5883.0,1760.0 5920.0,1814.0 5920.0,1874.0 C 5920.0,1910.0 5929.0,1937.0 5955.0,1984.0 C 5980.0,2029.0 5990.0,2059.0 5990.0,2091.0 C 5990.0,2115.0 5999.0,2164.0 6010.0,2198.0 C 6021.0,2233.0 6030.0,2288.0 6030.0,2319.0 C 6030.0,2375.0 6032.0,2378.0 6078.0,2421.0 C 6104.0,2446.0 6144.0,2489.0 6168.0,2518.0 C 6252.0,2619.0 6337.0,2663.0 6605.0,2747.0 C 6649.0,2760.0 6721.0,2786.0 6765.0,2803.0 C 6844.0,2834.0 6847.0,2834.0 7060.0,2838.0 C 7260.0,2841.0 7277.0,2843.0 7297.0,2862.0 C 7312.0,2876.0 7326.0,2881.0 7344.0,2876.0 C 7363.0,2871.0 7373.0,2876.0 7389.0,2896.0 C 7415.0,2930.0 7415.0,2956.0 7389.0,2999.0 C 7373.0,3026.0 7370.0,3043.0 7374.0,3074.0 C 7380.0,3113.0 7379.0,3116.0 7351.0,3126.0 C 7326.0,3136.0 7320.0,3146.0 7310.0,3193.0 C 7300.0,3244.0 7301.0,3256.0 7324.0,3330.0 C 7338.0,3375.0 7350.0,3419.0 7350.0,3428.0 C 7350.0,3437.0 7325.0,3482.0 7295.0,3528.0 L 7240.0,3610.0 L 7237.0,3722.0 C 7235.0,3831.0 7236.0,3836.0 7263.0,3876.0 C 7300.0,3930.0 7325.0,3999.0 7339.0,4085.0 C 7346.0,4124.0 7357.0,4184.0 7365.0,4220.0 C 7374.0,4256.0 7380.0,4314.0 7380.0,4350.0 C 7380.0,4430.0 7405.0,4472.0 7480.0,4521.0 C 7529.0,4552.0 7530.0,4555.0 7530.0,4601.0 C 7530.0,4646.0 7533.0,4651.0 7585.0,4697.0 C 7636.0,4742.0 7640.0,4748.0 7640.0,4790.0 C 7641.0,4846.0 7662.0,4875.0 7719.0,4895.0 C 7767.0,4912.0 7847.0,4915.0 7869.0,4901.0 C 7881.0,4893.0 7882.0,4887.0 7871.0,4864.0 C 7864.0,4849.0 7855.0,4814.0 7849.0,4786.0 C 7844.0,4759.0 7833.0,4728.0 7824.0,4719.0 C 7814.0,4707.0 7810.0,4692.0 7814.0,4677.0 C 7820.0,4650.0 7851.0,4640.0 7927.0,4640.0 C 7951.0,4640.0 7982.0,4633.0 7996.0,4623.0 C 8010.0,4614.0 8041.0,4604.0 8065.0,4600.0 C 8107.0,4594.0 8110.0,4595.0 8121.0,4622.0 C 8127.0,4638.0 8144.0,4660.0 8158.0,4671.0 C 8180.0,4688.0 8187.0,4709.0 8207.0,4807.0 C 8232.0,4932.0 8254.0,4985.0 8301.0,5032.0 C 8317.0,5048.0 8330.0,5066.0 8330.0,5071.0 C 8330.0,5076.0 8348.0,5089.0 8370.0,5100.0 C 8407.0,5119.0 8410.0,5123.0 8410.0,5163.0 L 8409.0,5205.0 L 8380.0,5170.0 C 8340.0,5123.0 8340.0,5155.0 8380.0,5205.0 C 8397.0,5226.0 8410.0,5251.0 8410.0,5262.0 C 8410.0,5272.0 8425.0,5294.0 8444.0,5311.0 C 8468.0,5332.0 8482.0,5355.0 8490.0,5391.0 C 8503.0,5444.0 8557.0,5516.0 8653.0,5609.0 C 8679.0,5635.0 8711.0,5672.0 8723.0,5692.0 C 8755.0,5745.0 8848.0,5825.0 8977.0,5910.0 C 9079.0,5977.0 9091.0,5987.0 9104.0,6028.0 C 9113.0,6052.0 9136.0,6095.0 9157.0,6123.0 C 9202.0,6185.0 9239.0,6273.0 9240.0,6316.0 C 9240.0,6346.0 9267.0,6394.0 9316.0,6453.0 C 9329.0,6469.0 9340.0,6487.0 9340.0,6494.0 C 9340.0,6501.0 9363.0,6529.0 9391.0,6555.0 C 9438.0,6599.0 9442.0,6606.0 9436.0,6638.0 C 9433.0,6659.0 9436.0,6683.0 9445.0,6701.0 C 9453.0,6716.0 9460.0,6736.0 9460.0,6746.0 C 9460.0,6755.0 9492.0,6805.0 9532.0,6858.0 L 9603.0,6954.0 L 9611.0,7044.0 C 9616.0,7094.0 9623.0,7156.0 9628.0,7182.0 C 9634.0,7213.0 9634.0,7244.0 9627.0,7270.0 C 9617.0,7305.0 9610.0,7312.0 9578.0,7322.0 C 9552.0,7330.0 9533.0,7330.0 9518.0,7323.0 C 9500.0,7315.0 9485.0,7320.0 9440.0,7347.0 C 9391.0,7377.0 9380.0,7380.0 9336.0,7374.0 C 9290.0,7368.0 9286.0,7370.0 9246.0,7407.0 C 9224.0,7429.0 9191.0,7456.0 9174.0,7468.0 C 9157.0,7479.0 9101.0,7532.0 9048.0,7585.0 C 8956.0,7678.0 8952.0,7685.0 8931.0,7758.0 C 8905.0,7848.0 8873.0,7886.0 8788.0,7932.0 C 8750.0,7952.0 8730.0,7969.0 8730.0,7981.0 C 8730.0,7991.0 8710.0,8022.0 8685.0,8050.0 C 8660.0,8078.0 8640.0,8107.0 8640.0,8115.0 C 8640.0,8123.0 8627.0,8151.0 8610.0,8176.0 C 8594.0,8202.0 8577.0,8238.0 8574.0,8257.0 C 8570.0,8280.0 8558.0,8296.0 8535.0,8310.0 C 8476.0,8346.0 8390.0,8448.0 8390.0,8480.0 C 8390.0,8512.0 8351.0,8550.0 8318.0,8550.0 C 8292.0,8550.0 8224.0,8601.0 8183.0,8653.0 C 8177.0,8661.0 8149.0,8673.0 8121.0,8680.0 C 8074.0,8691.0 8068.0,8690.0 8038.0,8669.0 C 8012.0,8650.0 7988.0,8645.0 7916.0,8640.0 L 7826.0,8635.0 L 7761.0,8674.0 C 7672.0,8728.0 7581.0,8750.0 7446.0,8750.0 C 7342.0,8750.0 7335.0,8751.0 7309.0,8776.0 C 7277.0,8806.0 7228.0,8819.0 7142.0,8820.0 C 7091.0,8820.0 7067.0,8826.0 7011.0,8855.0 C 6973.0,8874.0 6904.0,8899.0 6858.0,8910.0 C 6643.0,8962.0 6517.0,9019.0 6347.0,9137.0 L 6249.0,9205.0 L 6171.0,9345.0 C 6094.0,9484.0 6093.0,9485.0 6021.0,9530.0 C 5958.0,9570.0 5943.0,9585.0 5895.0,9663.0 C 5864.0,9712.0 5829.0,9766.0 5815.0,9784.0 C 5780.0,9830.0 5726.0,9950.0 5695.0,10053.0 C 5669.0,10138.0 5668.0,10140.0 5642.0,10134.0 C 5627.0,10130.0 5607.0,10123.0 5598.0,10119.0 C 5589.0,10114.0 5561.0,10110.0 5537.0,10110.0 C 5481.0,10110.0 5445.0,10083.0 5429.0,10029.0 C 5420.0,9999.0 5412.0,9990.0 5395.0,9990.0 C 5382.0,9990.0 5367.0,9983.0 5360.0,9975.0 C 5340.0,9950.0 5319.0,9958.0 5273.0,10005.0 C 5233.0,10047.0 5230.0,10054.0 5230.0,10105.0 C 5230.0,10134.0 5235.0,10162.0 5240.0,10165.0 C 5258.0,10176.0 5250.0,10207.0 5225.0,10224.0 C 5198.0,10242.0 5195.0,10242.0 5128.0,10228.0" fill="pink"/>
	<path d="M 8533.0,4921.0 C 8489.0,4884.0 8470.0,4847.0 8470.0,4803.0 C 8470.0,4765.0 8427.0,4714.0 8388.0,4706.0 C 8360.0,4700.0 8351.0,4690.0 8328.0,4642.0 C 8304.0,4590.0 8302.0,4578.0 8307.0,4498.0 C 8313.0,4401.0 8326.0,4378.0 8355.0,4410.0 C 8365.0,4421.0 8381.0,4430.0 8391.0,4430.0 C 8401.0,4430.0 8416.0,4443.0 8424.0,4459.0 C 8432.0,4474.0 8450.0,4495.0 8464.0,4504.0 C 8488.0,4519.0 8490.0,4527.0 8490.0,4585.0 C 8490.0,4666.0 8523.0,4725.0 8573.0,4736.0 C 8662.0,4754.0 8689.0,4848.0 8626.0,4918.0 C 8588.0,4960.0 8578.0,4961.0 8533.0,4921.0" fill="pink"/>
</svg>
