<?xml version="1.0" ?>
<svg xmlns="http://www.w3.org/2000/svg" xmlns:ev="http://www.w3.org/2001/xml-events" xmlns:xlink="http://www.w3.org/1999/xlink" baseProfile="full" height="248px" version="1.1" viewBox="-1028.6245403075427 2581.5874030162613 12292.319133426454 5077.583119140332" width="600px">
	<defs/>
	<path d="M 5879.0,7216.0 C 5764.0,7191.0 5747.0,7180.0 5756.0,7135.0 C 5761.0,7105.0 5757.0,7097.0 5713.0,7053.0 C 5687.0,7027.0 5658.0,6991.0 5649.0,6974.0 C 5639.0,6956.0 5615.0,6934.0 5589.0,6921.0 C 5565.0,6909.0 5535.0,6891.0 5523.0,6881.0 C 5498.0,6860.0 5493.0,6821.0 5512.0,6802.0 C 5521.0,6793.0 5521.0,6787.0 5513.0,6779.0 C 5504.0,6770.0 5495.0,6771.0 5478.0,6782.0 C 5434.0,6810.0 5401.0,6812.0 5363.0,6789.0 C 5332.0,6769.0 5328.0,6763.0 5333.0,6734.0 C 5337.0,6710.0 5333.0,6697.0 5320.0,6685.0 C 5297.0,6664.0 5282.0,6672.0 5264.0,6716.0 C 5256.0,6735.0 5243.0,6750.0 5234.0,6750.0 C 5226.0,6750.0 5165.0,6693.0 5098.0,6624.0 C 5031.0,6555.0 4964.0,6492.0 4950.0,6485.0 C 4920.0,6469.0 4725.0,6419.0 4582.0,6389.0 C 4529.0,6379.0 4475.0,6361.0 4458.0,6349.0 C 4442.0,6337.0 4400.0,6319.0 4367.0,6308.0 C 4333.0,6298.0 4260.0,6268.0 4205.0,6241.0 C 4150.0,6214.0 4089.0,6189.0 4069.0,6186.0 C 4048.0,6182.0 4022.0,6167.0 4004.0,6149.0 C 3988.0,6131.0 3920.0,6071.0 3852.0,6014.0 C 3756.0,5933.0 3722.0,5910.0 3699.0,5910.0 C 3666.0,5910.0 3620.0,5890.0 3601.0,5866.0 C 3594.0,5858.0 3574.0,5848.0 3557.0,5845.0 C 3539.0,5841.0 3496.0,5822.0 3462.0,5803.0 C 3388.0,5762.0 3300.0,5743.0 3120.0,5729.0 C 3051.0,5723.0 2980.0,5715.0 2962.0,5710.0 C 2940.0,5704.0 2901.0,5706.0 2847.0,5716.0 C 2802.0,5723.0 2727.0,5730.0 2680.0,5730.0 C 2602.0,5730.0 2591.0,5733.0 2543.0,5763.0 C 2492.0,5795.0 2268.0,6033.0 2247.0,6078.0 C 2242.0,6090.0 2228.0,6100.0 2218.0,6100.0 C 2208.0,6100.0 2195.0,6111.0 2189.0,6124.0 C 2178.0,6147.0 2145.0,6160.0 2095.0,6160.0 C 2082.0,6160.0 2066.0,6170.0 2057.0,6184.0 C 2042.0,6206.0 2043.0,6210.0 2061.0,6244.0 L 2080.0,6280.0 L 2056.0,6280.0 C 2042.0,6280.0 2024.0,6290.0 2013.0,6305.0 C 2003.0,6319.0 1980.0,6333.0 1960.0,6337.0 C 1931.0,6342.0 1927.0,6341.0 1936.0,6329.0 C 1942.0,6321.0 1950.0,6305.0 1952.0,6293.0 C 1958.0,6272.0 1955.0,6271.0 1909.0,6277.0 C 1864.0,6282.0 1860.0,6281.0 1860.0,6262.0 C 1860.0,6249.0 1877.0,6231.0 1911.0,6209.0 C 1948.0,6186.0 1968.0,6164.0 1981.0,6134.0 C 1997.0,6098.0 2006.0,6091.0 2037.0,6085.0 C 2058.0,6082.0 2092.0,6068.0 2113.0,6054.0 C 2144.0,6034.0 2150.0,6024.0 2150.0,5996.0 C 2150.0,5968.0 2145.0,5960.0 2120.0,5950.0 C 2096.0,5940.0 2083.0,5940.0 2064.0,5949.0 C 2050.0,5955.0 2024.0,5960.0 2005.0,5960.0 C 1976.0,5960.0 1969.0,5964.0 1964.0,5985.0 C 1955.0,6022.0 1929.0,6016.0 1887.0,5965.0 C 1866.0,5940.0 1843.0,5920.0 1836.0,5920.0 C 1829.0,5920.0 1816.0,5938.0 1807.0,5960.0 C 1794.0,5993.0 1787.0,6000.0 1765.0,6000.0 C 1747.0,6000.0 1736.0,5994.0 1733.0,5981.0 C 1728.0,5961.0 1671.0,5940.0 1624.0,5940.0 C 1587.0,5941.0 1559.0,5957.0 1525.0,5998.0 C 1504.0,6023.0 1491.0,6030.0 1462.0,6030.0 C 1418.0,6030.0 1345.0,6051.0 1328.0,6068.0 C 1319.0,6077.0 1320.0,6088.0 1330.0,6119.0 C 1341.0,6154.0 1341.0,6165.0 1326.0,6202.0 C 1303.0,6263.0 1305.0,6285.0 1336.0,6299.0 C 1358.0,6308.0 1367.0,6308.0 1386.0,6295.0 C 1399.0,6287.0 1418.0,6280.0 1430.0,6280.0 C 1447.0,6280.0 1450.0,6286.0 1450.0,6323.0 C 1450.0,6359.0 1444.0,6372.0 1417.0,6398.0 L 1384.0,6430.0 L 1355.0,6400.0 C 1337.0,6381.0 1316.0,6370.0 1299.0,6370.0 C 1284.0,6370.0 1259.0,6365.0 1244.0,6360.0 C 1206.0,6345.0 1184.0,6355.0 1123.0,6413.0 C 1083.0,6451.0 1070.0,6470.0 1070.0,6491.0 C 1070.0,6517.0 1074.0,6520.0 1100.0,6520.0 C 1137.0,6520.0 1141.0,6549.0 1109.0,6581.0 C 1087.0,6603.0 1087.0,6615.0 1110.0,6698.0 C 1125.0,6749.0 1116.0,6763.0 1031.0,6818.0 C 1001.0,6837.0 937.0,6888.0 889.0,6931.0 C 841.0,6975.0 799.0,7010.0 796.0,7010.0 C 794.0,7010.0 790.0,6998.0 788.0,6983.0 C 785.0,6958.0 781.0,6955.0 754.0,6958.0 C 725.0,6961.0 722.0,6959.0 716.0,6921.0 C 713.0,6898.0 706.0,6880.0 702.0,6880.0 C 690.0,6880.0 628.0,6920.0 585.0,6955.0 C 563.0,6973.0 520.0,7001.0 489.0,7019.0 C 443.0,7045.0 423.0,7050.0 369.0,7050.0 C 218.0,7050.0 190.0,7026.0 231.0,6938.0 C 243.0,6912.0 252.0,6888.0 249.0,6886.0 C 247.0,6884.0 218.0,6869.0 186.0,6853.0 L 126.0,6825.0 L 128.0,6655.0 C 129.0,6562.0 133.0,6410.0 136.0,6318.0 L 143.0,6152.0 L 173.0,6146.0 C 204.0,6140.0 286.0,6082.0 329.0,6036.0 C 344.0,6020.0 369.0,6008.0 396.0,6004.0 C 436.0,5998.0 440.0,5995.0 460.0,5944.0 L 482.0,5890.0 L 459.0,5843.0 C 437.0,5800.0 426.0,5790.0 342.0,5747.0 C 251.0,5700.0 247.0,5696.0 223.0,5642.0 C 192.0,5571.0 197.0,5536.0 254.0,5450.0 C 295.0,5388.0 297.0,5381.0 308.0,5270.0 C 324.0,5102.0 319.0,5074.0 260.0,5028.0 C 233.0,5007.0 185.0,4982.0 152.0,4972.0 C 82.0,4949.0 0.0,4896.0 0.0,4872.0 C 0.0,4844.0 71.0,4782.0 111.0,4775.0 C 145.0,4769.0 151.0,4761.0 203.0,4665.0 L 259.0,4562.0 L 252.0,4475.0 C 247.0,4428.0 247.0,4387.0 250.0,4385.0 C 253.0,4383.0 270.0,4388.0 288.0,4396.0 C 322.0,4410.0 324.0,4420.0 300.0,4490.0 C 295.0,4504.0 289.0,4554.0 285.0,4602.0 C 280.0,4681.0 281.0,4693.0 304.0,4737.0 C 327.0,4784.0 332.0,4787.0 407.0,4813.0 C 473.0,4835.0 505.0,4840.0 615.0,4842.0 L 745.0,4845.0 L 818.0,4808.0 C 858.0,4787.0 902.0,4770.0 915.0,4770.0 C 949.0,4770.0 963.0,4802.0 955.0,4861.0 C 949.0,4902.0 951.0,4910.0 964.0,4910.0 C 973.0,4910.0 982.0,4899.0 985.0,4885.0 C 1006.0,4781.0 1007.0,4781.0 1072.0,4808.0 C 1101.0,4820.0 1142.0,4830.0 1163.0,4830.0 C 1193.0,4830.0 1200.0,4834.0 1200.0,4849.0 C 1200.0,4863.0 1210.0,4870.0 1235.0,4874.0 C 1278.0,4882.0 1290.0,4876.0 1290.0,4844.0 C 1290.0,4825.0 1295.0,4820.0 1313.0,4820.0 C 1343.0,4820.0 1370.0,4849.0 1370.0,4882.0 C 1370.0,4904.0 1375.0,4908.0 1405.0,4912.0 C 1457.0,4918.0 1468.0,4899.0 1436.0,4857.0 C 1405.0,4816.0 1403.0,4797.0 1429.0,4773.0 C 1443.0,4760.0 1446.0,4750.0 1440.0,4740.0 C 1419.0,4708.0 1428.0,4690.0 1465.0,4690.0 C 1498.0,4690.0 1502.0,4686.0 1520.0,4645.0 C 1534.0,4613.0 1545.0,4600.0 1560.0,4600.0 C 1575.0,4600.0 1580.0,4607.0 1580.0,4624.0 C 1580.0,4638.0 1575.0,4652.0 1569.0,4656.0 C 1546.0,4670.0 1594.0,4683.0 1670.0,4685.0 C 1712.0,4686.0 1752.0,4690.0 1758.0,4694.0 C 1764.0,4697.0 1773.0,4694.0 1777.0,4685.0 C 1782.0,4677.0 1799.0,4668.0 1816.0,4664.0 C 1845.0,4659.0 1849.0,4661.0 1866.0,4697.0 C 1878.0,4720.0 1893.0,4736.0 1906.0,4738.0 C 1926.0,4741.0 1927.0,4739.0 1917.0,4700.0 C 1903.0,4651.0 1909.0,4646.0 1990.0,4630.0 C 2020.0,4624.0 2080.0,4607.0 2122.0,4594.0 C 2210.0,4565.0 2246.0,4568.0 2235.0,4603.0 C 2231.0,4615.0 2226.0,4641.0 2223.0,4660.0 L 2217.0,4695.0 L 2242.0,4665.0 C 2274.0,4626.0 2290.0,4596.0 2290.0,4572.0 C 2290.0,4562.0 2308.0,4539.0 2330.0,4521.0 C 2352.0,4504.0 2370.0,4485.0 2370.0,4480.0 C 2370.0,4475.0 2355.0,4470.0 2338.0,4468.0 C 2309.0,4465.0 2305.0,4462.0 2305.0,4435.0 C 2305.0,4411.0 2310.0,4404.0 2328.0,4402.0 C 2341.0,4400.0 2355.0,4388.0 2360.0,4376.0 C 2365.0,4363.0 2376.0,4350.0 2384.0,4347.0 C 2393.0,4343.0 2400.0,4333.0 2400.0,4323.0 C 2400.0,4313.0 2409.0,4294.0 2419.0,4281.0 C 2434.0,4261.0 2438.0,4260.0 2443.0,4274.0 C 2452.0,4297.0 2469.0,4294.0 2481.0,4266.0 C 2489.0,4249.0 2489.0,4237.0 2481.0,4222.0 C 2467.0,4195.0 2493.0,4130.0 2522.0,4122.0 C 2542.0,4117.0 2542.0,4112.0 2538.0,4003.0 C 2535.0,3941.0 2534.0,3890.0 2536.0,3890.0 C 2537.0,3890.0 2551.0,3895.0 2567.0,3901.0 C 2611.0,3919.0 2670.0,3928.0 2676.0,3918.0 C 2679.0,3913.0 2667.0,3896.0 2650.0,3880.0 L 2619.0,3851.0 L 2649.0,3836.0 C 2666.0,3827.0 2692.0,3820.0 2707.0,3820.0 C 2722.0,3820.0 2769.0,3809.0 2810.0,3796.0 C 2851.0,3783.0 2922.0,3769.0 2968.0,3765.0 C 3031.0,3759.0 3053.0,3753.0 3060.0,3740.0 C 3065.0,3730.0 3084.0,3720.0 3102.0,3716.0 C 3120.0,3713.0 3142.0,3700.0 3150.0,3689.0 C 3176.0,3656.0 3194.0,3674.0 3208.0,3745.0 C 3227.0,3846.0 3226.0,3849.0 3182.0,3843.0 C 3154.0,3839.0 3141.0,3843.0 3127.0,3858.0 C 3110.0,3877.0 3110.0,3877.0 3144.0,3883.0 C 3164.0,3886.0 3195.0,3901.0 3215.0,3916.0 C 3258.0,3949.0 3261.0,3990.0 3226.0,4067.0 C 3202.0,4118.0 3202.0,4118.0 3222.0,4123.0 C 3234.0,4127.0 3262.0,4118.0 3290.0,4102.0 C 3331.0,4079.0 3341.0,4077.0 3364.0,4088.0 L 3390.0,4100.0 L 3374.0,4140.0 C 3357.0,4183.0 3360.0,4200.0 3383.0,4182.0 C 3391.0,4175.0 3401.0,4175.0 3410.0,4180.0 C 3446.0,4203.0 3453.0,4193.0 3447.0,4125.0 C 3445.0,4088.0 3436.0,4052.0 3427.0,4042.0 C 3398.0,4009.0 3397.0,3983.0 3425.0,3961.0 C 3440.0,3950.0 3461.0,3938.0 3471.0,3935.0 C 3486.0,3930.0 3488.0,3925.0 3480.0,3915.0 C 3474.0,3908.0 3472.0,3890.0 3476.0,3876.0 C 3479.0,3861.0 3477.0,3844.0 3470.0,3835.0 C 3452.0,3813.0 3467.0,3780.0 3496.0,3780.0 C 3514.0,3780.0 3523.0,3771.0 3534.0,3746.0 C 3543.0,3724.0 3558.0,3709.0 3579.0,3702.0 C 3599.0,3695.0 3610.0,3684.0 3610.0,3672.0 C 3610.0,3661.0 3619.0,3641.0 3630.0,3627.0 C 3652.0,3600.0 3656.0,3575.0 3640.0,3565.0 C 3628.0,3558.0 3637.0,3513.0 3656.0,3486.0 C 3663.0,3475.0 3677.0,3433.0 3686.0,3393.0 C 3696.0,3347.0 3712.0,3308.0 3727.0,3290.0 C 3756.0,3255.0 3751.0,3223.0 3713.0,3214.0 C 3692.0,3208.0 3689.0,3203.0 3693.0,3176.0 C 3695.0,3159.0 3691.0,3136.0 3683.0,3124.0 C 3665.0,3096.0 3676.0,3070.0 3706.0,3070.0 C 3725.0,3070.0 3730.0,3065.0 3730.0,3046.0 C 3730.0,3013.0 3782.0,2998.0 3830.0,3018.0 C 3857.0,3029.0 3889.0,3031.0 3972.0,3025.0 C 4074.0,3019.0 4082.0,3020.0 4136.0,3044.0 C 4178.0,3063.0 4209.0,3070.0 4256.0,3070.0 C 4291.0,3070.0 4322.0,3075.0 4326.0,3081.0 C 4330.0,3088.0 4347.0,3090.0 4371.0,3086.0 C 4392.0,3083.0 4411.0,3084.0 4415.0,3090.0 C 4424.0,3105.0 4512.0,3101.0 4534.0,3085.0 C 4559.0,3066.0 4580.0,3082.0 4580.0,3121.0 C 4580.0,3151.0 4637.0,3220.0 4662.0,3220.0 C 4670.0,3220.0 4685.0,3229.0 4695.0,3240.0 C 4712.0,3258.0 4711.0,3261.0 4686.0,3304.0 C 4672.0,3328.0 4660.0,3353.0 4660.0,3358.0 C 4660.0,3363.0 4683.0,3381.0 4710.0,3399.0 C 4760.0,3432.0 4761.0,3432.0 4858.0,3427.0 C 4911.0,3424.0 4972.0,3418.0 4993.0,3414.0 C 5021.0,3410.0 5037.0,3412.0 5058.0,3426.0 C 5073.0,3436.0 5105.0,3447.0 5130.0,3451.0 C 5240.0,3469.0 5311.0,3514.0 5327.0,3578.0 C 5332.0,3600.0 5326.0,3610.0 5287.0,3644.0 C 5248.0,3678.0 5239.0,3692.0 5234.0,3730.0 C 5228.0,3773.0 5217.0,3787.0 5031.0,3976.0 C 4872.0,4139.0 4824.0,4181.0 4779.0,4202.0 C 4729.0,4225.0 4718.0,4236.0 4686.0,4294.0 C 4643.0,4370.0 4609.0,4398.0 4545.0,4407.0 C 4500.0,4413.0 4498.0,4414.0 4464.0,4481.0 C 4432.0,4545.0 4430.0,4556.0 4430.0,4646.0 C 4430.0,4735.0 4432.0,4746.0 4457.0,4779.0 C 4511.0,4852.0 4563.0,4900.0 4590.0,4900.0 C 4605.0,4900.0 4660.0,4907.0 4714.0,4915.0 C 4798.0,4927.0 4827.0,4937.0 4939.0,4994.0 C 5010.0,5030.0 5110.0,5086.0 5161.0,5120.0 C 5212.0,5153.0 5269.0,5183.0 5287.0,5186.0 C 5312.0,5191.0 5320.0,5198.0 5325.0,5221.0 C 5329.0,5240.0 5349.0,5262.0 5383.0,5287.0 C 5412.0,5307.0 5455.0,5341.0 5480.0,5361.0 C 5505.0,5381.0 5554.0,5411.0 5590.0,5427.0 C 5690.0,5472.0 5780.0,5542.0 5780.0,5575.0 C 5780.0,5578.0 5763.0,5567.0 5742.0,5551.0 C 5691.0,5509.0 5652.0,5503.0 5579.0,5525.0 C 5512.0,5546.0 5503.0,5569.0 5558.0,5582.0 C 5575.0,5586.0 5604.0,5593.0 5622.0,5598.0 C 5650.0,5604.0 5655.0,5612.0 5668.0,5658.0 L 5683.0,5711.0 L 5653.0,5743.0 C 5597.0,5802.0 5597.0,5808.0 5647.0,5872.0 C 5684.0,5921.0 5696.0,5930.0 5723.0,5930.0 C 5769.0,5930.0 5800.0,5940.0 5800.0,5955.0 C 5800.0,5971.0 5832.0,5980.0 5894.0,5980.0 C 5942.0,5980.0 5944.0,5981.0 6017.0,6059.0 C 6105.0,6154.0 6170.0,6190.0 6253.0,6190.0 C 6283.0,6190.0 6327.0,6197.0 6351.0,6205.0 C 6385.0,6217.0 6433.0,6220.0 6558.0,6219.0 C 6709.0,6217.0 6722.0,6215.0 6751.0,6194.0 C 6769.0,6181.0 6823.0,6162.0 6881.0,6149.0 C 6955.0,6132.0 6999.0,6116.0 7048.0,6086.0 C 7108.0,6049.0 7119.0,6037.0 7151.0,5975.0 C 7186.0,5906.0 7187.0,5905.0 7225.0,5906.0 C 7247.0,5907.0 7266.0,5912.0 7267.0,5917.0 C 7269.0,5923.0 7276.0,5935.0 7283.0,5944.0 C 7294.0,5960.0 7301.0,5955.0 7343.0,5897.0 C 7402.0,5817.0 7417.0,5804.0 7465.0,5787.0 C 7491.0,5778.0 7506.0,5766.0 7510.0,5751.0 C 7515.0,5731.0 7516.0,5730.0 7538.0,5745.0 C 7550.0,5754.0 7560.0,5767.0 7560.0,5775.0 C 7560.0,5797.0 7597.0,5813.0 7604.0,5795.0 C 7607.0,5787.0 7603.0,5777.0 7595.0,5772.0 C 7570.0,5758.0 7566.0,5707.0 7588.0,5686.0 C 7607.0,5669.0 7609.0,5669.0 7635.0,5686.0 C 7661.0,5703.0 7663.0,5703.0 7676.0,5686.0 C 7683.0,5675.0 7691.0,5663.0 7692.0,5658.0 C 7694.0,5653.0 7714.0,5646.0 7736.0,5643.0 C 7769.0,5639.0 7779.0,5632.0 7798.0,5599.0 C 7825.0,5552.0 7827.0,5520.0 7801.0,5520.0 C 7791.0,5520.0 7777.0,5513.0 7770.0,5505.0 C 7759.0,5492.0 7761.0,5486.0 7778.0,5467.0 C 7790.0,5455.0 7802.0,5425.0 7806.0,5400.0 C 7815.0,5338.0 7833.0,5306.0 7879.0,5269.0 C 7901.0,5252.0 7921.0,5226.0 7925.0,5211.0 C 7937.0,5163.0 7978.0,5110.0 8005.0,5110.0 C 8024.0,5110.0 8031.0,5117.0 8039.0,5148.0 C 8052.0,5194.0 8053.0,5225.0 8040.0,5264.0 C 8020.0,5328.0 8000.0,5431.0 8005.0,5440.0 C 8016.0,5458.0 8040.0,5437.0 8050.0,5402.0 C 8055.0,5381.0 8060.0,5346.0 8060.0,5323.0 C 8060.0,5278.0 8069.0,5270.0 8090.0,5295.0 C 8100.0,5307.0 8100.0,5316.0 8090.0,5339.0 C 8061.0,5409.0 8115.0,5434.0 8157.0,5370.0 C 8169.0,5351.0 8187.0,5324.0 8196.0,5311.0 L 8213.0,5287.0 L 8225.0,5326.0 C 8231.0,5348.0 8242.0,5375.0 8249.0,5385.0 C 8260.0,5404.0 8261.0,5403.0 8257.0,5380.0 C 8255.0,5366.0 8251.0,5349.0 8249.0,5341.0 C 8244.0,5321.0 8277.0,5315.0 8297.0,5331.0 C 8312.0,5344.0 8311.0,5392.0 8294.0,5448.0 C 8289.0,5466.0 8292.0,5470.0 8308.0,5470.0 C 8336.0,5470.0 8342.0,5458.0 8342.0,5396.0 C 8343.0,5334.0 8328.0,5303.0 8298.0,5298.0 C 8273.0,5295.0 8255.0,5239.0 8273.0,5221.0 C 8307.0,5187.0 8400.0,5260.0 8400.0,5320.0 C 8400.0,5345.0 8404.0,5350.0 8425.0,5350.0 C 8439.0,5350.0 8468.0,5338.0 8490.0,5324.0 C 8512.0,5309.0 8533.0,5299.0 8536.0,5302.0 C 8539.0,5305.0 8529.0,5337.0 8514.0,5374.0 C 8500.0,5410.0 8490.0,5447.0 8494.0,5455.0 C 8502.0,5477.0 8530.0,5462.0 8530.0,5435.0 C 8530.0,5423.0 8539.0,5405.0 8550.0,5395.0 C 8560.0,5386.0 8575.0,5361.0 8581.0,5341.0 C 8588.0,5321.0 8600.0,5300.0 8608.0,5294.0 C 8622.0,5284.0 8621.0,5282.0 8602.0,5276.0 C 8573.0,5266.0 8574.0,5244.0 8606.0,5224.0 C 8635.0,5205.0 8660.0,5161.0 8660.0,5130.0 C 8660.0,5118.0 8672.0,5093.0 8686.0,5075.0 C 8714.0,5038.0 8759.0,5020.0 8821.0,5020.0 C 8874.0,5020.0 9014.0,4919.0 9046.0,4858.0 C 9073.0,4806.0 9031.0,4825.0 8955.0,4899.0 C 8903.0,4950.0 8874.0,4970.0 8847.0,4975.0 C 8789.0,4986.0 8786.0,4977.0 8835.0,4940.0 C 8881.0,4906.0 8881.0,4905.0 8856.0,4902.0 C 8841.0,4900.0 8814.0,4907.0 8796.0,4918.0 C 8778.0,4929.0 8746.0,4943.0 8724.0,4950.0 C 8683.0,4963.0 8640.0,4996.0 8640.0,5014.0 C 8640.0,5020.0 8630.0,5055.0 8619.0,5092.0 C 8604.0,5137.0 8591.0,5161.0 8579.0,5165.0 C 8568.0,5169.0 8560.0,5181.0 8560.0,5193.0 C 8559.0,5258.0 8525.0,5286.0 8514.0,5230.0 C 8506.0,5194.0 8490.0,5190.0 8490.0,5224.0 C 8490.0,5250.0 8466.0,5275.0 8451.0,5265.0 C 8445.0,5262.0 8431.0,5227.0 8419.0,5187.0 C 8408.0,5147.0 8387.0,5096.0 8373.0,5072.0 L 8349.0,5029.0 L 8314.0,5049.0 C 8295.0,5061.0 8277.0,5070.0 8276.0,5070.0 C 8274.0,5070.0 8261.0,5052.0 8246.0,5030.0 C 8221.0,4993.0 8220.0,4986.0 8231.0,4950.0 C 8238.0,4928.0 8251.0,4903.0 8262.0,4894.0 C 8291.0,4867.0 8286.0,4806.0 8249.0,4748.0 C 8232.0,4721.0 8208.0,4698.0 8196.0,4696.0 C 8132.0,4683.0 8113.0,4683.0 8090.0,4695.0 C 8061.0,4712.0 8016.0,4714.0 7991.0,4700.0 C 7976.0,4692.0 7974.0,4684.0 7980.0,4653.0 C 7983.0,4632.0 7991.0,4606.0 7997.0,4595.0 C 8003.0,4584.0 8011.0,4555.0 8015.0,4531.0 C 8025.0,4468.0 8052.0,4414.0 8094.0,4372.0 C 8207.0,4257.0 8275.0,4141.0 8265.0,4083.0 C 8258.0,4043.0 8281.0,4004.0 8318.0,3995.0 C 8362.0,3984.0 8427.0,3909.0 8435.0,3858.0 C 8439.0,3835.0 8451.0,3801.0 8461.0,3784.0 C 8489.0,3738.0 8578.0,3658.0 8642.0,3621.0 C 8688.0,3595.0 8707.0,3576.0 8736.0,3528.0 C 8774.0,3462.0 8930.0,3290.0 8962.0,3278.0 C 8972.0,3274.0 8995.0,3260.0 9013.0,3247.0 C 9071.0,3204.0 9078.0,3205.0 9085.0,3258.0 C 9088.0,3284.0 9095.0,3325.0 9101.0,3350.0 C 9107.0,3375.0 9119.0,3423.0 9126.0,3458.0 C 9142.0,3530.0 9198.0,3615.0 9253.0,3649.0 C 9307.0,3682.0 9311.0,3718.0 9280.0,3870.0 C 9262.0,3958.0 9262.0,3971.0 9275.0,4003.0 C 9288.0,4035.0 9292.0,4037.0 9321.0,4031.0 C 9350.0,4025.0 9356.0,4018.0 9374.0,3962.0 C 9390.0,3915.0 9411.0,3883.0 9463.0,3825.0 C 9524.0,3757.0 9535.0,3750.0 9568.0,3750.0 C 9597.0,3750.0 9609.0,3756.0 9623.0,3778.0 C 9634.0,3793.0 9676.0,3823.0 9718.0,3846.0 C 9788.0,3884.0 9797.0,3892.0 9839.0,3963.0 C 9871.0,4016.0 9893.0,4043.0 9913.0,4049.0 C 9950.0,4062.0 9955.0,4082.0 9937.0,4139.0 C 9926.0,4173.0 9924.0,4199.0 9930.0,4223.0 C 9936.0,4250.0 9934.0,4262.0 9924.0,4271.0 C 9900.0,4291.0 9908.0,4316.0 9957.0,4373.0 C 9991.0,4415.0 10024.0,4439.0 10082.0,4469.0 C 10126.0,4492.0 10175.0,4510.0 10190.0,4510.0 C 10209.0,4510.0 10223.0,4517.0 10230.0,4531.0 C 10239.0,4548.0 10237.0,4557.0 10216.0,4585.0 C 10184.0,4626.0 10130.0,4773.0 10130.0,4817.0 C 10130.0,4868.0 10048.0,5023.0 10008.0,5048.0 C 9954.0,5081.0 9923.0,5122.0 9911.0,5175.0 C 9904.0,5203.0 9881.0,5262.0 9858.0,5307.0 C 9822.0,5382.0 9813.0,5392.0 9766.0,5417.0 L 9715.0,5445.0 L 9712.0,5512.0 C 9710.0,5569.0 9712.0,5582.0 9730.0,5600.0 C 9741.0,5611.0 9759.0,5620.0 9770.0,5620.0 C 9781.0,5620.0 9790.0,5625.0 9790.0,5630.0 C 9790.0,5654.0 9758.0,5700.0 9719.0,5733.0 C 9686.0,5761.0 9666.0,5770.0 9621.0,5776.0 C 9575.0,5781.0 9558.0,5789.0 9526.0,5819.0 C 9505.0,5839.0 9481.0,5869.0 9474.0,5887.0 C 9466.0,5904.0 9448.0,5925.0 9433.0,5932.0 C 9417.0,5939.0 9394.0,5966.0 9380.0,5992.0 C 9339.0,6068.0 9323.0,6080.0 9269.0,6080.0 C 9225.0,6080.0 9219.0,6083.0 9194.0,6118.0 C 9179.0,6138.0 9154.0,6172.0 9138.0,6192.0 C 9119.0,6216.0 9110.0,6241.0 9110.0,6264.0 C 9110.0,6304.0 9096.0,6321.0 9030.0,6360.0 C 9002.0,6377.0 8981.0,6399.0 8968.0,6428.0 C 8949.0,6467.0 8852.0,6560.0 8829.0,6560.0 C 8815.0,6560.0 8818.0,6542.0 8837.0,6512.0 L 8854.0,6485.0 L 8829.0,6506.0 C 8816.0,6518.0 8787.0,6537.0 8765.0,6548.0 C 8743.0,6559.0 8714.0,6580.0 8701.0,6594.0 C 8653.0,6645.0 8558.0,6698.0 8492.0,6710.0 C 8457.0,6716.0 8416.0,6726.0 8402.0,6731.0 C 8387.0,6737.0 8337.0,6748.0 8291.0,6756.0 C 8241.0,6765.0 8149.0,6793.0 8069.0,6825.0 C 7994.0,6855.0 7927.0,6880.0 7921.0,6880.0 C 7915.0,6880.0 7903.0,6891.0 7894.0,6905.0 C 7882.0,6924.0 7869.0,6930.0 7841.0,6930.0 C 7821.0,6930.0 7776.0,6937.0 7740.0,6946.0 C 7692.0,6957.0 7652.0,6959.0 7587.0,6954.0 C 7504.0,6948.0 7498.0,6949.0 7462.0,6973.0 C 7431.0,6995.0 7414.0,6999.0 7365.0,6998.0 C 7332.0,6998.0 7297.0,6993.0 7288.0,6988.0 C 7278.0,6983.0 7251.0,6975.0 7228.0,6970.0 C 7204.0,6965.0 7161.0,6955.0 7132.0,6949.0 C 7082.0,6938.0 7078.0,6938.0 7058.0,6960.0 C 7038.0,6981.0 7031.0,6982.0 6921.0,6979.0 L 6805.0,6975.0 L 6802.0,7023.0 C 6798.0,7080.0 6811.0,7100.0 6852.0,7100.0 C 6900.0,7100.0 6960.0,7141.0 6960.0,7174.0 C 6960.0,7177.0 6898.0,7176.0 6823.0,7173.0 C 6717.0,7169.0 6678.0,7163.0 6655.0,7150.0 C 6601.0,7118.0 6556.0,7117.0 6482.0,7143.0 C 6428.0,7163.0 6395.0,7168.0 6310.0,7168.0 C 6252.0,7168.0 6189.0,7173.0 6170.0,7179.0 C 6151.0,7185.0 6104.0,7190.0 6067.0,7190.0 C 6005.0,7190.0 5999.0,7192.0 6005.0,7209.0 C 6014.0,7237.0 5987.0,7239.0 5879.0,7216.0" fill="pink"/>
	<path d="M 1230.0,6769.0 C 1201.0,6757.0 1190.0,6743.0 1190.0,6713.0 C 1190.0,6689.0 1243.0,6640.0 1270.0,6640.0 C 1279.0,6640.0 1293.0,6633.0 1300.0,6625.0 C 1311.0,6612.0 1315.0,6612.0 1321.0,6622.0 C 1343.0,6656.0 1322.0,6753.0 1290.0,6770.0 C 1268.0,6782.0 1263.0,6782.0 1230.0,6769.0" fill="pink"/>
	<path d="M 1437.0,6614.0 C 1434.0,6610.0 1442.0,6599.0 1455.0,6588.0 C 1472.0,6575.0 1479.0,6559.0 1479.0,6537.0 C 1479.0,6519.0 1483.0,6489.0 1488.0,6470.0 L 1498.0,6435.0 L 1511.0,6466.0 C 1518.0,6483.0 1538.0,6505.0 1557.0,6515.0 C 1597.0,6537.0 1599.0,6557.0 1563.0,6566.0 C 1547.0,6570.0 1519.0,6584.0 1500.0,6597.0 C 1465.0,6620.0 1448.0,6625.0 1437.0,6614.0" fill="pink"/>
	<path d="M 1231.0,6517.0 C 1216.0,6498.0 1239.0,6400.0 1259.0,6400.0 C 1288.0,6400.0 1340.0,6441.0 1340.0,6465.0 C 1340.0,6511.0 1259.0,6549.0 1231.0,6517.0" fill="pink"/>
	<path d="M 1514.0,6412.0 C 1490.0,6396.0 1512.0,6260.0 1540.0,6260.0 C 1544.0,6260.0 1555.0,6257.0 1563.0,6254.0 C 1574.0,6250.0 1582.0,6259.0 1590.0,6284.0 C 1600.0,6316.0 1599.0,6326.0 1580.0,6364.0 C 1569.0,6388.0 1552.0,6411.0 1544.0,6414.0 C 1525.0,6421.0 1527.0,6421.0 1514.0,6412.0" fill="pink"/>
	<path d="M 1657.0,6314.0 C 1648.0,6304.0 1668.0,6272.0 1690.0,6260.0 C 1711.0,6249.0 1750.0,6262.0 1750.0,6280.0 C 1750.0,6297.0 1670.0,6326.0 1657.0,6314.0" fill="pink"/>
	<path d="M 6983.0,5330.0 C 6952.0,5318.0 6955.0,5300.0 6991.0,5272.0 L 7020.0,5248.0 L 7020.0,5278.0 C 7020.0,5295.0 7023.0,5315.0 7026.0,5324.0 C 7033.0,5342.0 7018.0,5344.0 6983.0,5330.0" fill="pink"/>
	<path d="M 7084.0,5288.0 C 7057.0,5275.0 7050.0,5242.0 7050.0,5123.0 C 7050.0,5032.0 7051.0,5026.0 7080.0,4994.0 C 7096.0,4976.0 7112.0,4945.0 7116.0,4925.0 C 7122.0,4889.0 7128.0,4886.0 7167.0,4896.0 L 7190.0,4902.0 L 7170.0,4930.0 C 7159.0,4946.0 7150.0,4969.0 7150.0,4982.0 C 7150.0,5002.0 7157.0,5008.0 7192.0,5016.0 C 7223.0,5023.0 7239.0,5033.0 7252.0,5055.0 C 7269.0,5085.0 7269.0,5088.0 7235.0,5190.0 L 7202.0,5295.0 L 7153.0,5297.0 C 7127.0,5298.0 7095.0,5294.0 7084.0,5288.0" fill="pink"/>
	<path d="M 6750.0,5191.0 C 6750.0,5176.0 6801.0,5140.0 6821.0,5140.0 C 6845.0,5140.0 6847.0,5185.0 6824.0,5194.0 C 6800.0,5203.0 6750.0,5201.0 6750.0,5191.0" fill="pink"/>
	<path d="M 6794.0,5020.0 C 6772.0,5011.0 6763.0,4985.0 6753.0,4899.0 C 6749.0,4858.0 6751.0,4852.0 6774.0,4836.0 L 6800.0,4819.0 L 6820.0,4865.0 C 6831.0,4890.0 6846.0,4913.0 6854.0,4916.0 C 6880.0,4926.0 6880.0,4949.0 6853.0,4990.0 C 6824.0,5033.0 6825.0,5033.0 6794.0,5020.0" fill="pink"/>
	<path d="M 2190.0,3674.0 C 2160.0,3644.0 2128.0,3618.0 2118.0,3614.0 C 2109.0,3611.0 2098.0,3599.0 2095.0,3587.0 C 2091.0,3575.0 2068.0,3546.0 2042.0,3524.0 L 1996.0,3482.0 L 2034.0,3427.0 C 2061.0,3387.0 2084.0,3367.0 2112.0,3355.0 C 2145.0,3342.0 2156.0,3330.0 2172.0,3291.0 C 2189.0,3252.0 2201.0,3238.0 2238.0,3221.0 C 2281.0,3200.0 2417.0,3171.0 2473.0,3170.0 C 2498.0,3170.0 2500.0,3173.0 2500.0,3209.0 C 2500.0,3230.0 2495.0,3261.0 2489.0,3279.0 C 2478.0,3309.0 2476.0,3310.0 2422.0,3310.0 C 2373.0,3311.0 2363.0,3314.0 2346.0,3336.0 C 2320.0,3373.0 2329.0,3453.0 2365.0,3486.0 C 2396.0,3515.0 2398.0,3546.0 2368.0,3556.0 C 2333.0,3566.0 2310.0,3591.0 2310.0,3617.0 C 2310.0,3646.0 2276.0,3716.0 2258.0,3722.0 C 2251.0,3725.0 2220.0,3703.0 2190.0,3674.0" fill="pink"/>
	<path d="M 3345.0,3622.0 C 3334.0,3618.0 3300.0,3599.0 3270.0,3579.0 C 3240.0,3559.0 3204.0,3539.0 3190.0,3535.0 C 3132.0,3518.0 3124.0,3490.0 3177.0,3490.0 C 3202.0,3490.0 3235.0,3503.0 3281.0,3531.0 C 3327.0,3558.0 3355.0,3570.0 3369.0,3565.0 C 3402.0,3555.0 3479.0,3594.0 3480.0,3623.0 C 3480.0,3632.0 3373.0,3631.0 3345.0,3622.0" fill="pink"/>
	<path d="M 2137.0,3123.0 C 2124.0,3109.0 2124.0,3104.0 2143.0,3071.0 C 2154.0,3051.0 2165.0,3033.0 2167.0,3031.0 C 2173.0,3023.0 2218.0,3071.0 2223.0,3090.0 C 2226.0,3103.0 2218.0,3112.0 2190.0,3123.0 C 2156.0,3136.0 2150.0,3136.0 2137.0,3123.0" fill="pink"/>
</svg>
