<?xml version="1.0" ?>
<svg xmlns="http://www.w3.org/2000/svg" xmlns:ev="http://www.w3.org/2001/xml-events" xmlns:xlink="http://www.w3.org/1999/xlink" baseProfile="full" height="600px" version="1.1" viewBox="915.0188762300678 -1027.492436876065 8408.59599831233 12292.832359830778" width="411px">
	<defs/>
	<path d="M 5087.0,10226.0 C 5084.0,10218.0 5067.0,10204.0 5049.0,10195.0 C 5022.0,10181.0 5011.0,10180.0 4976.0,10190.0 C 4882.0,10216.0 4803.0,10179.0 4882.0,10146.0 C 4922.0,10129.0 4951.0,10098.0 4978.0,10044.0 C 4990.0,10021.0 5015.0,9990.0 5035.0,9974.0 C 5071.0,9945.0 5071.0,9944.0 5057.0,9911.0 C 5044.0,9881.0 5045.0,9871.0 5061.0,9816.0 C 5086.0,9734.0 5080.0,9716.0 5029.0,9723.0 C 4977.0,9730.0 4971.0,9720.0 4923.0,9541.0 L 4885.0,9398.0 L 4695.0,9194.0 C 4581.0,9071.0 4466.0,8958.0 4406.0,8911.0 L 4307.0,8832.0 L 3946.0,8711.0 L 3585.0,8589.0 L 3533.0,8522.0 C 3505.0,8485.0 3465.0,8434.0 3445.0,8408.0 C 3413.0,8367.0 3410.0,8359.0 3420.0,8340.0 C 3430.0,8321.0 3429.0,8314.0 3412.0,8298.0 C 3392.0,8278.0 3392.0,8278.0 3369.0,8309.0 C 3342.0,8345.0 3313.0,8349.0 3301.0,8318.0 C 3297.0,8305.0 3290.0,8259.0 3287.0,8215.0 C 3281.0,8139.0 3279.0,8133.0 3243.0,8100.0 C 3209.0,8068.0 3204.0,8059.0 3199.0,8000.0 C 3196.0,7964.0 3184.0,7913.0 3172.0,7885.0 C 3161.0,7858.0 3148.0,7804.0 3143.0,7765.0 C 3136.0,7700.0 3133.0,7694.0 3100.0,7673.0 C 3016.0,7620.0 3008.0,7610.0 3015.0,7570.0 C 3021.0,7536.0 3019.0,7532.0 2995.0,7526.0 C 2973.0,7520.0 2959.0,7501.0 2935.0,7443.0 C 2934.0,7441.0 2900.0,7447.0 2859.0,7456.0 C 2761.0,7476.0 2722.0,7512.0 2685.0,7619.0 C 2665.0,7676.0 2649.0,7703.0 2622.0,7726.0 C 2589.0,7754.0 2582.0,7756.0 2551.0,7748.0 C 2523.0,7740.0 2510.0,7742.0 2480.0,7759.0 C 2459.0,7771.0 2434.0,7780.0 2424.0,7780.0 C 2413.0,7780.0 2385.0,7796.0 2361.0,7815.0 L 2316.0,7851.0 L 2265.0,7800.0 C 2221.0,7756.0 2209.0,7750.0 2173.0,7750.0 C 2112.0,7750.0 2103.0,7772.0 2142.0,7827.0 C 2175.0,7872.0 2174.0,7898.0 2141.0,7907.0 C 2127.0,7910.0 2119.0,7924.0 2115.0,7951.0 C 2104.0,8014.0 2127.0,8030.0 2194.0,8004.0 C 2204.0,8000.0 2210.0,8003.0 2210.0,8013.0 C 2210.0,8022.0 2225.0,8033.0 2244.0,8040.0 L 2279.0,8051.0 L 2273.0,8138.0 C 2270.0,8186.0 2261.0,8234.0 2254.0,8245.0 C 2246.0,8256.0 2240.0,8273.0 2240.0,8284.0 C 2240.0,8295.0 2231.0,8314.0 2219.0,8326.0 L 2198.0,8348.0 L 2169.0,8316.0 C 2153.0,8298.0 2119.0,8275.0 2093.0,8265.0 C 1974.0,8220.0 1885.0,8148.0 1876.0,8090.0 C 1871.0,8056.0 1866.0,8052.0 1835.0,8046.0 C 1807.0,8040.0 1800.0,8035.0 1800.0,8015.0 C 1800.0,7998.0 1780.0,7975.0 1725.0,7930.0 C 1651.0,7870.0 1650.0,7868.0 1650.0,7822.0 C 1650.0,7796.0 1643.0,7750.0 1635.0,7720.0 C 1627.0,7690.0 1620.0,7654.0 1620.0,7641.0 C 1620.0,7617.0 1661.0,7559.0 1729.0,7487.0 L 1765.0,7449.0 L 1743.0,7407.0 C 1699.0,7322.0 1701.0,7312.0 1777.0,7239.0 C 1814.0,7203.0 1857.0,7166.0 1871.0,7156.0 C 1919.0,7126.0 1915.0,7000.0 1866.0,6968.0 C 1849.0,6956.0 1775.0,6959.0 1763.0,6971.0 C 1739.0,6995.0 1711.0,6886.0 1730.0,6841.0 C 1739.0,6817.0 1760.0,6801.0 1880.0,6724.0 C 1899.0,6711.0 1940.0,6698.0 1970.0,6694.0 C 2000.0,6691.0 2038.0,6678.0 2055.0,6666.0 C 2072.0,6655.0 2139.0,6618.0 2204.0,6585.0 C 2334.0,6520.0 2382.0,6480.0 2410.0,6416.0 C 2420.0,6394.0 2442.0,6362.0 2460.0,6345.0 C 2508.0,6300.0 2606.0,6160.0 2620.0,6115.0 C 2627.0,6093.0 2650.0,6056.0 2671.0,6032.0 C 2694.0,6005.0 2711.0,5974.0 2715.0,5950.0 C 2722.0,5910.0 2822.0,5771.0 2844.0,5770.0 C 2857.0,5769.0 2983.0,5577.0 3010.0,5517.0 C 3020.0,5494.0 3046.0,5461.0 3068.0,5443.0 C 3111.0,5408.0 3127.0,5362.0 3109.0,5328.0 C 3100.0,5312.0 3104.0,5299.0 3132.0,5257.0 C 3169.0,5201.0 3190.0,5150.0 3190.0,5115.0 C 3190.0,5099.0 3199.0,5089.0 3220.0,5080.0 C 3237.0,5073.0 3250.0,5063.0 3250.0,5058.0 C 3250.0,5053.0 3261.0,5038.0 3274.0,5025.0 C 3291.0,5008.0 3304.0,4973.0 3320.0,4905.0 C 3339.0,4821.0 3346.0,4807.0 3374.0,4785.0 C 3405.0,4762.0 3408.0,4754.0 3413.0,4688.0 C 3418.0,4631.0 3426.0,4606.0 3453.0,4561.0 C 3472.0,4530.0 3494.0,4485.0 3501.0,4460.0 C 3514.0,4415.0 3570.0,4332.0 3641.0,4254.0 C 3699.0,4189.0 3752.0,4070.0 3761.0,3981.0 C 3765.0,3939.0 3769.0,3904.0 3769.0,3903.0 C 3770.0,3902.0 3791.0,3889.0 3818.0,3873.0 C 3910.0,3820.0 3929.0,3798.0 3989.0,3674.0 C 4020.0,3608.0 4054.0,3525.0 4064.0,3488.0 L 4082.0,3420.0 L 4166.0,3363.0 C 4246.0,3309.0 4250.0,3305.0 4250.0,3269.0 C 4250.0,3240.0 4262.0,3214.0 4306.0,3151.0 C 4336.0,3106.0 4370.0,3066.0 4380.0,3060.0 C 4392.0,3054.0 4400.0,3034.0 4405.0,3000.0 C 4409.0,2968.0 4422.0,2938.0 4441.0,2914.0 C 4457.0,2894.0 4470.0,2871.0 4470.0,2863.0 C 4470.0,2855.0 4490.0,2827.0 4515.0,2801.0 C 4540.0,2774.0 4567.0,2732.0 4576.0,2707.0 C 4590.0,2665.0 4590.0,2656.0 4576.0,2606.0 C 4567.0,2576.0 4560.0,2540.0 4560.0,2525.0 C 4560.0,2501.0 4557.0,2498.0 4535.0,2502.0 C 4500.0,2509.0 4487.0,2466.0 4518.0,2444.0 C 4532.0,2434.0 4541.0,2414.0 4545.0,2376.0 C 4551.0,2328.0 4556.0,2319.0 4589.0,2298.0 C 4615.0,2281.0 4625.0,2268.0 4625.0,2248.0 C 4625.0,2229.0 4637.0,2211.0 4669.0,2184.0 C 4714.0,2145.0 4749.0,2083.0 4750.0,2043.0 C 4750.0,2030.0 4756.0,2020.0 4764.0,2020.0 C 4771.0,2020.0 4800.0,2002.0 4828.0,1980.0 C 4856.0,1958.0 4895.0,1933.0 4917.0,1924.0 C 4968.0,1903.0 5007.0,1865.0 5036.0,1808.0 C 5050.0,1781.0 5073.0,1754.0 5089.0,1745.0 C 5111.0,1734.0 5117.0,1725.0 5113.0,1710.0 C 5110.0,1699.0 5112.0,1690.0 5117.0,1690.0 C 5123.0,1690.0 5152.0,1665.0 5184.0,1635.0 C 5215.0,1605.0 5264.0,1568.0 5293.0,1554.0 C 5321.0,1539.0 5371.0,1510.0 5403.0,1489.0 C 5435.0,1467.0 5473.0,1447.0 5488.0,1444.0 C 5503.0,1440.0 5533.0,1421.0 5555.0,1400.0 C 5602.0,1356.0 5650.0,1336.0 5687.0,1343.0 C 5710.0,1347.0 5728.0,1336.0 5810.0,1260.0 L 5905.0,1172.0 L 5980.0,1161.0 C 6095.0,1143.0 6130.0,1131.0 6190.0,1089.0 C 6221.0,1068.0 6253.0,1050.0 6261.0,1050.0 C 6270.0,1050.0 6287.0,1039.0 6300.0,1025.0 C 6313.0,1011.0 6331.0,1000.0 6341.0,1000.0 C 6350.0,1000.0 6395.0,984.0 6440.0,965.0 C 6485.0,946.0 6531.0,930.0 6543.0,930.0 C 6571.0,930.0 6649.0,906.0 6688.0,886.0 C 6707.0,876.0 6721.0,860.0 6725.0,841.0 C 6729.0,821.0 6739.0,810.0 6756.0,806.0 C 6770.0,802.0 6804.0,781.0 6832.0,760.0 C 6859.0,738.0 6890.0,720.0 6900.0,720.0 C 6911.0,720.0 6933.0,702.0 6950.0,681.0 C 6970.0,656.0 6993.0,640.0 7013.0,636.0 C 7031.0,633.0 7073.0,616.0 7107.0,598.0 C 7163.0,570.0 7173.0,561.0 7200.0,507.0 C 7216.0,474.0 7230.0,432.0 7230.0,414.0 C 7230.0,388.0 7237.0,376.0 7268.0,354.0 C 7289.0,339.0 7318.0,310.0 7333.0,289.0 C 7355.0,259.0 7368.0,251.0 7406.0,245.0 C 7447.0,239.0 7462.0,229.0 7524.0,168.0 C 7563.0,129.0 7627.0,77.0 7665.0,52.0 C 7726.0,12.0 7743.0,6.0 7800.0,2.0 C 7848.0,-1.0 7881.0,4.0 7930.0,20.0 C 8013.0,48.0 8040.0,68.0 8069.0,124.0 L 8092.0,169.0 L 8071.0,247.0 C 8052.0,317.0 8052.0,326.0 8066.0,347.0 C 8078.0,366.0 8089.0,370.0 8119.0,369.0 C 8147.0,367.0 8166.0,373.0 8192.0,393.0 C 8223.0,417.0 8229.0,428.0 8235.0,476.0 C 8241.0,524.0 8239.0,534.0 8223.0,545.0 C 8175.0,580.0 8172.0,584.0 8181.0,615.0 C 8187.0,636.0 8203.0,653.0 8239.0,672.0 C 8265.0,687.0 8296.0,712.0 8305.0,727.0 C 8315.0,743.0 8345.0,780.0 8372.0,811.0 C 8398.0,841.0 8420.0,873.0 8420.0,881.0 C 8420.0,889.0 8441.0,906.0 8466.0,919.0 C 8510.0,943.0 8511.0,945.0 8505.0,980.0 C 8498.0,1019.0 8511.0,1036.0 8588.0,1097.0 L 8612.0,1115.0 L 8567.0,1148.0 C 8532.0,1173.0 8511.0,1180.0 8477.0,1180.0 C 8448.0,1180.0 8425.0,1186.0 8413.0,1198.0 C 8392.0,1216.0 8326.0,1414.0 8316.0,1485.0 C 8309.0,1540.0 8354.0,1636.0 8404.0,1675.0 C 8451.0,1711.0 8454.0,1752.0 8411.0,1774.0 C 8395.0,1783.0 8368.0,1807.0 8351.0,1828.0 C 8325.0,1862.0 8322.0,1871.0 8329.0,1901.0 C 8334.0,1920.0 8341.0,1947.0 8344.0,1962.0 C 8348.0,1980.0 8358.0,1990.0 8373.0,1992.0 C 8391.0,1994.0 8396.0,2002.0 8398.0,2033.0 C 8400.0,2059.0 8408.0,2075.0 8425.0,2086.0 C 8438.0,2094.0 8451.0,2112.0 8454.0,2125.0 C 8457.0,2138.0 8478.0,2163.0 8500.0,2180.0 C 8533.0,2206.0 8540.0,2218.0 8540.0,2246.0 C 8540.0,2276.0 8545.0,2282.0 8578.0,2297.0 C 8598.0,2307.0 8616.0,2315.0 8618.0,2316.0 C 8624.0,2319.0 8586.0,2397.0 8563.0,2427.0 C 8546.0,2449.0 8536.0,2480.0 8529.0,2527.0 C 8518.0,2619.0 8517.0,2615.0 8543.0,2647.0 C 8564.0,2673.0 8565.0,2682.0 8562.0,2808.0 C 8560.0,2880.0 8554.0,2940.0 8549.0,2940.0 C 8544.0,2940.0 8463.0,2906.0 8369.0,2864.0 L 8197.0,2788.0 L 8071.0,2853.0 C 7933.0,2924.0 7774.0,2980.0 7708.0,2980.0 L 7667.0,2980.0 L 7690.0,2956.0 L 7713.0,2931.0 L 7686.0,2924.0 C 7631.0,2911.0 7426.0,2945.0 7386.0,2974.0 C 7369.0,2987.0 7333.0,3003.0 7305.0,3010.0 C 7278.0,3017.0 7237.0,3033.0 7215.0,3045.0 C 7190.0,3059.0 7149.0,3070.0 7107.0,3073.0 C 6999.0,3083.0 6946.0,3134.0 6957.0,3218.0 C 6965.0,3276.0 6939.0,3329.0 6884.0,3371.0 C 6860.0,3389.0 6837.0,3413.0 6834.0,3424.0 C 6825.0,3452.0 6781.0,3510.0 6769.0,3510.0 C 6749.0,3510.0 6699.0,3552.0 6689.0,3576.0 C 6684.0,3592.0 6685.0,3629.0 6692.0,3678.0 C 6702.0,3743.0 6710.0,3765.0 6747.0,3817.0 C 6783.0,3868.0 6790.0,3887.0 6789.0,3918.0 C 6787.0,3947.0 6794.0,3967.0 6819.0,4004.0 C 6852.0,4051.0 6852.0,4052.0 6837.0,4096.0 C 6821.0,4146.0 6823.0,4147.0 6891.0,4123.0 C 6964.0,4097.0 7037.0,4115.0 7139.0,4185.0 C 7193.0,4223.0 7228.0,4240.0 7249.0,4240.0 C 7321.0,4240.0 7423.0,4320.0 7496.0,4432.0 C 7532.0,4488.0 7540.0,4509.0 7540.0,4546.0 C 7540.0,4588.0 7544.0,4595.0 7593.0,4640.0 C 7640.0,4683.0 7649.0,4698.0 7669.0,4765.0 C 7683.0,4813.0 7688.0,4853.0 7685.0,4873.0 C 7680.0,4898.0 7683.0,4910.0 7699.0,4924.0 C 7722.0,4945.0 7718.0,4960.0 7689.0,4960.0 C 7661.0,4960.0 7499.0,4849.0 7458.0,4801.0 C 7439.0,4778.0 7418.0,4760.0 7413.0,4760.0 C 7407.0,4760.0 7374.0,4741.0 7340.0,4718.0 C 7306.0,4696.0 7259.0,4673.0 7236.0,4668.0 C 7214.0,4663.0 7104.0,4656.0 6993.0,4653.0 L 6790.0,4647.0 L 6790.0,4707.0 C 6790.0,4753.0 6786.0,4771.0 6771.0,4784.0 C 6761.0,4794.0 6747.0,4821.0 6741.0,4846.0 C 6728.0,4897.0 6700.0,4930.0 6669.0,4930.0 C 6657.0,4930.0 6632.0,4939.0 6614.0,4951.0 C 6586.0,4968.0 6553.0,4973.0 6418.0,4981.0 C 6328.0,4987.0 6252.0,4995.0 6248.0,4998.0 C 6244.0,5002.0 6255.0,5023.0 6271.0,5045.0 C 6333.0,5131.0 6340.0,5145.0 6340.0,5190.0 C 6340.0,5228.0 6332.0,5247.0 6289.0,5308.0 C 6261.0,5347.0 6231.0,5380.0 6222.0,5380.0 C 6194.0,5380.0 6150.0,5431.0 6150.0,5463.0 C 6150.0,5486.0 6137.0,5505.0 6091.0,5549.0 C 6042.0,5596.0 6030.0,5615.0 6015.0,5668.0 C 6000.0,5718.0 5989.0,5737.0 5959.0,5761.0 C 5913.0,5798.0 5901.0,5836.0 5929.0,5863.0 C 5945.0,5879.0 5946.0,5887.0 5938.0,5906.0 C 5931.0,5920.0 5918.0,5930.0 5906.0,5930.0 C 5893.0,5930.0 5863.0,5951.0 5835.0,5980.0 C 5797.0,6019.0 5789.0,6033.0 5798.0,6042.0 C 5805.0,6049.0 5810.0,6066.0 5810.0,6081.0 C 5810.0,6115.0 5829.0,6135.0 5876.0,6150.0 C 5929.0,6168.0 5941.0,6216.0 5904.0,6261.0 C 5892.0,6274.0 5894.0,6288.0 5916.0,6352.0 C 5937.0,6416.0 5948.0,6434.0 5989.0,6468.0 C 6060.0,6528.0 6131.0,6570.0 6161.0,6570.0 C 6190.0,6570.0 6234.0,6600.0 6252.0,6633.0 C 6258.0,6645.0 6262.0,6682.0 6261.0,6715.0 C 6260.0,6767.0 6256.0,6779.0 6232.0,6801.0 L 6204.0,6826.0 L 6222.0,6866.0 C 6232.0,6887.0 6240.0,6912.0 6240.0,6921.0 C 6240.0,6930.0 6265.0,6959.0 6295.0,6984.0 C 6363.0,7043.0 6381.0,7092.0 6357.0,7157.0 C 6341.0,7199.0 6342.0,7200.0 6366.0,7229.0 C 6385.0,7252.0 6390.0,7269.0 6390.0,7313.0 C 6390.0,7375.0 6392.0,7378.0 6475.0,7411.0 C 6508.0,7424.0 6544.0,7444.0 6555.0,7456.0 C 6566.0,7468.0 6591.0,7483.0 6610.0,7490.0 C 6658.0,7508.0 6668.0,7517.0 6675.0,7551.0 C 6679.0,7570.0 6688.0,7580.0 6700.0,7580.0 C 6732.0,7580.0 6829.0,7620.0 6842.0,7639.0 C 6849.0,7648.0 6882.0,7673.0 6915.0,7693.0 C 6970.0,7727.0 6982.0,7730.0 7050.0,7730.0 C 7091.0,7730.0 7147.0,7737.0 7174.0,7745.0 C 7201.0,7753.0 7236.0,7760.0 7251.0,7760.0 C 7267.0,7760.0 7283.0,7767.0 7289.0,7777.0 C 7297.0,7792.0 7304.0,7793.0 7352.0,7783.0 C 7394.0,7774.0 7410.0,7775.0 7432.0,7786.0 C 7447.0,7794.0 7469.0,7800.0 7482.0,7800.0 C 7499.0,7800.0 7511.0,7811.0 7525.0,7837.0 C 7568.0,7917.0 7574.0,7921.0 7659.0,7921.0 C 7701.0,7920.0 7744.0,7920.0 7755.0,7921.0 C 7801.0,7921.0 7840.0,7907.0 7840.0,7890.0 C 7840.0,7868.0 7910.0,7836.0 7938.0,7845.0 C 7951.0,7848.0 7969.0,7844.0 7985.0,7834.0 C 7999.0,7825.0 8012.0,7819.0 8014.0,7821.0 C 8015.0,7823.0 8026.0,7841.0 8039.0,7862.0 L 8061.0,7898.0 L 8006.0,7929.0 C 7944.0,7965.0 7935.0,7974.0 7926.0,8015.0 C 7922.0,8031.0 7904.0,8060.0 7887.0,8080.0 C 7869.0,8099.0 7847.0,8125.0 7838.0,8138.0 L 7822.0,8162.0 L 7782.0,8137.0 C 7737.0,8108.0 7680.0,8109.0 7642.0,8140.0 L 7619.0,8159.0 L 7805.0,8447.0 C 7984.0,8726.0 7990.0,8735.0 7968.0,8745.0 C 7937.0,8758.0 7900.0,8791.0 7900.0,8804.0 C 7900.0,8810.0 7855.0,8832.0 7799.0,8853.0 C 7727.0,8881.0 7685.0,8904.0 7649.0,8936.0 C 7563.0,9012.0 7556.0,9015.0 7517.0,8992.0 C 7499.0,8980.0 7436.0,8961.0 7376.0,8949.0 C 7276.0,8929.0 7266.0,8929.0 7258.0,8944.0 C 7253.0,8953.0 7241.0,8960.0 7231.0,8960.0 C 7221.0,8960.0 7202.0,8968.0 7189.0,8979.0 C 7176.0,8989.0 7141.0,9008.0 7112.0,9020.0 C 7049.0,9047.0 7051.0,9048.0 6927.0,8951.0 C 6852.0,8893.0 6831.0,8881.0 6792.0,8878.0 C 6766.0,8875.0 6735.0,8877.0 6722.0,8882.0 C 6688.0,8894.0 6585.0,8892.0 6556.0,8879.0 C 6537.0,8870.0 6527.0,8870.0 6517.0,8878.0 C 6508.0,8886.0 6494.0,8885.0 6465.0,8875.0 C 6443.0,8867.0 6418.0,8861.0 6410.0,8861.0 C 6402.0,8861.0 6366.0,8887.0 6330.0,8919.0 C 6268.0,8975.0 6266.0,8979.0 6278.0,9004.0 C 6296.0,9045.0 6292.0,9122.0 6268.0,9185.0 C 6248.0,9238.0 6245.0,9241.0 6219.0,9235.0 C 6179.0,9226.0 6128.0,9238.0 6095.0,9264.0 C 6069.0,9285.0 6067.0,9293.0 6065.0,9356.0 C 6065.0,9402.0 6058.0,9433.0 6047.0,9451.0 C 6024.0,9486.0 5952.0,9536.0 5912.0,9545.0 C 5894.0,9548.0 5875.0,9560.0 5870.0,9571.0 C 5864.0,9581.0 5853.0,9590.0 5845.0,9590.0 C 5837.0,9590.0 5813.0,9606.0 5791.0,9625.0 C 5763.0,9651.0 5744.0,9660.0 5717.0,9660.0 C 5689.0,9660.0 5677.0,9667.0 5655.0,9696.0 C 5637.0,9719.0 5629.0,9739.0 5633.0,9756.0 C 5636.0,9771.0 5629.0,9791.0 5614.0,9812.0 C 5601.0,9829.0 5590.0,9850.0 5590.0,9858.0 C 5590.0,9881.0 5548.0,9949.0 5530.0,9955.0 C 5522.0,9958.0 5507.0,9973.0 5498.0,9988.0 C 5488.0,10005.0 5466.0,10022.0 5442.0,10029.0 C 5413.0,10039.0 5399.0,10052.0 5381.0,10086.0 C 5359.0,10126.0 5354.0,10130.0 5319.0,10130.0 C 5290.0,10130.0 5277.0,10136.0 5263.0,10156.0 C 5253.0,10170.0 5217.0,10193.0 5185.0,10206.0 C 5100.0,10242.0 5093.0,10243.0 5087.0,10226.0" fill="pink"/>
</svg>
