<?xml version="1.0" ?>
<svg xmlns="http://www.w3.org/2000/svg" xmlns:ev="http://www.w3.org/2001/xml-events" xmlns:xlink="http://www.w3.org/1999/xlink" baseProfile="full" height="600px" version="1.1" viewBox="-45.01222021067804 -1024.520840372097 10329.648475694406 12293.252665903006" width="505px">
	<defs/>
	<path d="M 4705.0,10211.0 C 4678.0,10195.0 4644.0,10170.0 4631.0,10156.0 C 4607.0,10130.0 4607.0,10130.0 4626.0,10115.0 C 4657.0,10091.0 4685.0,10100.0 4685.0,10135.0 C 4685.0,10173.0 4705.0,10171.0 4764.0,10129.0 C 4794.0,10106.0 4812.0,10100.0 4832.0,10104.0 C 4847.0,10107.0 4862.0,10104.0 4866.0,10098.0 C 4871.0,10091.0 4903.0,10089.0 4966.0,10093.0 C 5049.0,10098.0 5061.0,10096.0 5082.0,10078.0 C 5100.0,10062.0 5114.0,10059.0 5149.0,10064.0 C 5196.0,10070.0 5232.0,10055.0 5298.0,9998.0 C 5356.0,9948.0 5411.0,9918.0 5433.0,9924.0 C 5445.0,9927.0 5458.0,9923.0 5465.0,9913.0 C 5476.0,9899.0 5479.0,9899.0 5504.0,9915.0 L 5531.0,9933.0 L 5504.0,9961.0 C 5489.0,9976.0 5463.0,9992.0 5446.0,9996.0 C 5429.0,10000.0 5390.0,10027.0 5355.0,10060.0 C 5251.0,10158.0 5175.0,10200.0 5101.0,10200.0 C 5080.0,10200.0 5060.0,10204.0 5055.0,10209.0 C 5047.0,10216.0 4822.0,10241.0 4770.0,10240.0 C 4762.0,10240.0 4733.0,10227.0 4705.0,10211.0" fill="pink"/>
	<path d="M 4566.0,10089.0 C 4527.0,10058.0 4533.0,10025.0 4576.0,10036.0 C 4591.0,10040.0 4596.0,10050.0 4597.0,10076.0 C 4598.0,10095.0 4597.0,10110.0 4595.0,10110.0 C 4594.0,10110.0 4581.0,10101.0 4566.0,10089.0" fill="pink"/>
	<path d="M 4435.0,9920.0 C 4432.0,9914.0 4441.0,9905.0 4455.0,9900.0 C 4503.0,9882.0 4525.0,9891.0 4498.0,9918.0 C 4483.0,9933.0 4444.0,9934.0 4435.0,9920.0" fill="pink"/>
	<path d="M 5745.0,9862.0 C 5733.0,9850.0 5742.0,9822.0 5764.0,9801.0 C 5782.0,9784.0 5789.0,9782.0 5793.0,9792.0 C 5797.0,9801.0 5799.0,9800.0 5799.0,9788.0 C 5800.0,9763.0 5820.0,9756.0 5834.0,9775.0 C 5846.0,9791.0 5850.0,9791.0 5902.0,9775.0 C 5957.0,9757.0 6023.0,9761.0 6004.0,9780.0 C 5991.0,9793.0 5752.0,9869.0 5745.0,9862.0" fill="pink"/>
	<path d="M 6200.0,9701.0 C 6183.0,9667.0 6188.0,9640.0 6211.0,9640.0 C 6242.0,9640.0 6320.0,9599.0 6332.0,9576.0 C 6338.0,9566.0 6340.0,9536.0 6337.0,9511.0 C 6331.0,9458.0 6343.0,9430.0 6371.0,9430.0 C 6414.0,9430.0 6425.0,9557.0 6387.0,9625.0 C 6343.0,9703.0 6227.0,9751.0 6200.0,9701.0" fill="pink"/>
	<path d="M 6451.0,9281.0 C 6414.0,9271.0 6413.0,9250.0 6449.0,9250.0 C 6478.0,9250.0 6480.0,9248.0 6474.0,9223.0 C 6470.0,9207.0 6460.0,9189.0 6451.0,9182.0 C 6437.0,9170.0 6437.0,9169.0 6453.0,9174.0 C 6463.0,9177.0 6480.0,9180.0 6491.0,9180.0 C 6502.0,9180.0 6510.0,9187.0 6510.0,9198.0 C 6510.0,9225.0 6490.0,9290.0 6482.0,9289.0 C 6478.0,9288.0 6464.0,9285.0 6451.0,9281.0" fill="pink"/>
	<path d="M 6472.0,9131.0 C 6461.0,9125.0 6462.0,9120.0 6475.0,9106.0 C 6484.0,9097.0 6499.0,9090.0 6508.0,9089.0 C 6519.0,9089.0 6520.0,9087.0 6513.0,9083.0 C 6493.0,9075.0 6498.0,9060.0 6520.0,9060.0 C 6546.0,9060.0 6554.0,9079.0 6541.0,9113.0 C 6530.0,9141.0 6499.0,9149.0 6472.0,9131.0" fill="pink"/>
	<path d="M 6540.0,8900.0 C 6540.0,8895.0 6554.0,8890.0 6570.0,8890.0 C 6587.0,8890.0 6600.0,8895.0 6600.0,8900.0 C 6600.0,8906.0 6587.0,8910.0 6570.0,8910.0 C 6554.0,8910.0 6540.0,8906.0 6540.0,8900.0" fill="pink"/>
	<path d="M 6579.0,8801.0 L 6555.0,8782.0 L 6583.0,8771.0 C 6618.0,8757.0 6630.0,8764.0 6630.0,8796.0 C 6630.0,8825.0 6611.0,8827.0 6579.0,8801.0" fill="pink"/>
	<path d="M 6580.0,8730.0 C 6571.0,8714.0 6572.0,8709.0 6584.0,8704.0 C 6610.0,8694.0 6635.0,8704.0 6635.0,8725.0 C 6635.0,8753.0 6595.0,8757.0 6580.0,8730.0" fill="pink"/>
	<path d="M 6606.0,8579.0 C 6575.0,8554.0 6576.0,8538.0 6611.0,8530.0 C 6639.0,8523.0 6659.0,8543.0 6660.0,8578.0 C 6660.0,8606.0 6641.0,8606.0 6606.0,8579.0" fill="pink"/>
	<path d="M 6638.0,8443.0 C 6611.0,8436.0 6616.0,8420.0 6645.0,8420.0 C 6661.0,8420.0 6670.0,8426.0 6670.0,8435.0 C 6670.0,8450.0 6668.0,8451.0 6638.0,8443.0" fill="pink"/>
	<path d="M 6640.0,8375.0 L 6605.0,8362.0 L 6633.0,8355.0 C 6668.0,8346.0 6667.0,8325.0 6629.0,8289.0 L 6598.0,8260.0 L 6640.0,8260.0 C 6676.0,8260.0 6681.0,8258.0 6670.0,8245.0 C 6655.0,8227.0 6665.0,8210.0 6691.0,8210.0 C 6709.0,8210.0 6710.0,8215.0 6705.0,8278.0 C 6697.0,8362.0 6692.0,8390.0 6682.0,8389.0 C 6678.0,8389.0 6659.0,8383.0 6640.0,8375.0" fill="pink"/>
	<path d="M 6645.0,8169.0 C 6641.0,8164.0 6645.0,8151.0 6654.0,8141.0 C 6666.0,8128.0 6667.0,8121.0 6658.0,8112.0 C 6649.0,8103.0 6650.0,8100.0 6662.0,8100.0 C 6670.0,8100.0 6683.0,8093.0 6690.0,8085.0 C 6700.0,8073.0 6698.0,8069.0 6679.0,8061.0 C 6655.0,8053.0 6655.0,8053.0 6690.0,8031.0 C 6709.0,8020.0 6729.0,8010.0 6734.0,8010.0 C 6744.0,8010.0 6737.0,8065.0 6719.0,8133.0 C 6708.0,8175.0 6704.0,8180.0 6679.0,8180.0 C 6664.0,8180.0 6648.0,8175.0 6645.0,8169.0" fill="pink"/>
	<path d="M 6685.0,7991.0 C 6677.0,7977.0 6757.0,7720.0 6777.0,7699.0 C 6785.0,7690.0 6806.0,7651.0 6824.0,7612.0 C 6850.0,7559.0 6864.0,7541.0 6884.0,7536.0 C 6898.0,7533.0 6910.0,7525.0 6910.0,7519.0 C 6910.0,7513.0 6934.0,7480.0 6964.0,7446.0 C 6994.0,7412.0 7022.0,7372.0 7025.0,7357.0 C 7029.0,7341.0 7050.0,7315.0 7070.0,7298.0 C 7091.0,7282.0 7114.0,7255.0 7120.0,7239.0 C 7127.0,7223.0 7138.0,7210.0 7144.0,7210.0 C 7162.0,7210.0 7253.0,7110.0 7275.0,7066.0 C 7286.0,7045.0 7304.0,7024.0 7316.0,7020.0 C 7328.0,7015.0 7347.0,6999.0 7359.0,6983.0 C 7383.0,6951.0 7383.0,6951.0 7433.0,6909.0 C 7461.0,6886.0 7470.0,6871.0 7468.0,6851.0 C 7465.0,6816.0 7477.0,6798.0 7498.0,6804.0 C 7509.0,6808.0 7524.0,6797.0 7540.0,6774.0 C 7554.0,6755.0 7577.0,6733.0 7593.0,6724.0 C 7608.0,6716.0 7620.0,6705.0 7620.0,6700.0 C 7620.0,6695.0 7654.0,6652.0 7694.0,6605.0 C 7735.0,6558.0 7777.0,6506.0 7787.0,6490.0 C 7796.0,6473.0 7807.0,6460.0 7811.0,6460.0 C 7829.0,6460.0 7941.0,6373.0 8038.0,6285.0 C 8125.0,6205.0 8150.0,6177.0 8160.0,6144.0 C 8168.0,6117.0 8182.0,6097.0 8201.0,6086.0 C 8230.0,6069.0 8230.0,6069.0 8230.0,6092.0 C 8230.0,6105.0 8233.0,6124.0 8236.0,6136.0 C 8240.0,6150.0 8231.0,6169.0 8206.0,6198.0 C 8187.0,6222.0 8169.0,6248.0 8166.0,6258.0 C 8163.0,6268.0 8146.0,6284.0 8129.0,6294.0 C 8068.0,6330.0 7826.0,6561.0 7799.0,6608.0 C 7785.0,6634.0 7739.0,6691.0 7697.0,6735.0 C 7655.0,6779.0 7611.0,6831.0 7598.0,6851.0 C 7585.0,6871.0 7561.0,6897.0 7543.0,6909.0 C 7504.0,6934.0 7120.0,7355.0 7040.0,7460.0 C 7009.0,7501.0 6975.0,7542.0 6965.0,7550.0 C 6956.0,7557.0 6935.0,7591.0 6918.0,7624.0 C 6901.0,7658.0 6877.0,7699.0 6865.0,7715.0 C 6852.0,7732.0 6839.0,7756.0 6835.0,7770.0 C 6831.0,7784.0 6817.0,7821.0 6804.0,7852.0 C 6791.0,7884.0 6780.0,7920.0 6780.0,7933.0 C 6780.0,7946.0 6774.0,7963.0 6768.0,7972.0 C 6752.0,7992.0 6694.0,8005.0 6685.0,7991.0" fill="pink"/>
	<path d="M 5625.0,7239.0 C 5618.0,7207.0 5573.0,7158.0 5499.0,7101.0 C 5452.0,7066.0 5436.0,7064.0 5297.0,7086.0 C 5260.0,7092.0 5260.0,7092.0 5270.0,7065.0 C 5285.0,7024.0 5282.0,7004.0 5255.0,6971.0 C 5241.0,6955.0 5222.0,6921.0 5214.0,6897.0 C 5196.0,6844.0 5132.0,6790.0 5085.0,6790.0 C 5035.0,6790.0 5023.0,6773.0 5017.0,6697.0 C 5013.0,6640.0 5006.0,6620.0 4975.0,6573.0 C 4955.0,6543.0 4930.0,6515.0 4919.0,6513.0 C 4909.0,6510.0 4900.0,6502.0 4900.0,6495.0 C 4900.0,6488.0 4890.0,6475.0 4878.0,6467.0 C 4860.0,6454.0 4858.0,6449.0 4868.0,6442.0 C 4891.0,6426.0 4855.0,6356.0 4814.0,6337.0 C 4771.0,6316.0 4681.0,6315.0 4635.0,6334.0 C 4604.0,6347.0 4600.0,6353.0 4600.0,6385.0 C 4600.0,6410.0 4595.0,6422.0 4583.0,6426.0 C 4573.0,6429.0 4539.0,6443.0 4508.0,6458.0 C 4452.0,6483.0 4450.0,6485.0 4450.0,6522.0 C 4450.0,6550.0 4445.0,6562.0 4433.0,6567.0 C 4423.0,6570.0 4395.0,6581.0 4371.0,6593.0 C 4335.0,6609.0 4326.0,6611.0 4319.0,6599.0 C 4314.0,6591.0 4313.0,6576.0 4316.0,6565.0 C 4331.0,6516.0 4331.0,6468.0 4316.0,6436.0 C 4307.0,6417.0 4300.0,6396.0 4300.0,6389.0 C 4300.0,6382.0 4292.0,6368.0 4283.0,6358.0 C 4270.0,6343.0 4268.0,6335.0 4277.0,6322.0 C 4298.0,6288.0 4301.0,6245.0 4285.0,6207.0 C 4273.0,6179.0 4272.0,6165.0 4280.0,6150.0 C 4289.0,6134.0 4287.0,6123.0 4269.0,6099.0 C 4226.0,6038.0 4140.0,6024.0 4032.0,6061.0 C 3976.0,6080.0 3970.0,6084.0 3977.0,6104.0 C 3996.0,6161.0 3971.0,6217.0 3910.0,6248.0 C 3886.0,6260.0 3853.0,6270.0 3837.0,6270.0 C 3817.0,6270.0 3798.0,6280.0 3779.0,6301.0 C 3763.0,6319.0 3747.0,6330.0 3744.0,6327.0 C 3731.0,6314.0 3764.0,6232.0 3796.0,6200.0 C 3814.0,6180.0 3833.0,6150.0 3836.0,6131.0 C 3841.0,6108.0 3853.0,6092.0 3876.0,6078.0 C 3914.0,6056.0 3918.0,6047.0 3935.0,5954.0 C 3949.0,5874.0 3971.0,5833.0 4002.0,5828.0 C 4016.0,5826.0 4027.0,5810.0 4040.0,5770.0 C 4068.0,5682.0 4072.0,5658.0 4059.0,5650.0 C 4050.0,5644.0 4052.0,5636.0 4064.0,5619.0 C 4084.0,5590.0 4085.0,5512.0 4066.0,5466.0 C 4047.0,5421.0 3982.0,5350.0 3960.0,5350.0 C 3950.0,5350.0 3921.0,5341.0 3895.0,5330.0 C 3849.0,5310.0 3774.0,5304.0 3755.0,5318.0 C 3749.0,5322.0 3737.0,5337.0 3727.0,5352.0 C 3717.0,5368.0 3694.0,5384.0 3670.0,5391.0 C 3648.0,5398.0 3623.0,5414.0 3615.0,5427.0 C 3596.0,5455.0 3584.0,5456.0 3577.0,5431.0 C 3572.0,5409.0 3494.0,5380.0 3441.0,5380.0 C 3421.0,5380.0 3377.0,5390.0 3343.0,5402.0 C 3295.0,5419.0 3268.0,5437.0 3219.0,5486.0 L 3158.0,5548.0 L 3156.0,5613.0 C 3155.0,5674.0 3153.0,5679.0 3130.0,5685.0 C 3102.0,5692.0 3091.0,5706.0 3090.0,5735.0 C 3089.0,5746.0 3083.0,5769.0 3076.0,5785.0 L 3062.0,5815.0 L 3051.0,5788.0 C 3045.0,5772.0 3035.0,5760.0 3029.0,5760.0 C 3023.0,5760.0 3020.0,5753.0 3024.0,5745.0 C 3027.0,5736.0 3024.0,5730.0 3015.0,5730.0 C 2997.0,5730.0 2996.0,5718.0 3013.0,5701.0 C 3023.0,5691.0 3019.0,5684.0 2995.0,5664.0 C 2979.0,5651.0 2955.0,5640.0 2942.0,5640.0 C 2911.0,5640.0 2860.0,5667.0 2860.0,5685.0 C 2860.0,5707.0 2832.0,5729.0 2811.0,5723.0 C 2801.0,5720.0 2789.0,5723.0 2786.0,5729.0 C 2773.0,5750.0 2745.0,5739.0 2729.0,5707.0 C 2721.0,5690.0 2704.0,5671.0 2692.0,5665.0 C 2673.0,5657.0 2671.0,5650.0 2676.0,5620.0 C 2683.0,5583.0 2705.0,5547.0 2738.0,5517.0 C 2756.0,5501.0 2757.0,5494.0 2747.0,5473.0 C 2737.0,5451.0 2739.0,5445.0 2755.0,5431.0 C 2766.0,5422.0 2780.0,5402.0 2785.0,5385.0 C 2794.0,5361.0 2801.0,5355.0 2825.0,5355.0 C 2842.0,5355.0 2860.0,5352.0 2867.0,5347.0 C 2873.0,5343.0 2884.0,5342.0 2892.0,5345.0 C 2899.0,5348.0 2912.0,5337.0 2922.0,5320.0 C 2937.0,5295.0 2945.0,5290.0 2979.0,5290.0 C 3007.0,5290.0 3023.0,5284.0 3033.0,5270.0 C 3040.0,5260.0 3068.0,5242.0 3094.0,5230.0 C 3139.0,5211.0 3250.0,5112.0 3250.0,5091.0 C 3250.0,5086.0 3257.0,5077.0 3265.0,5070.0 C 3273.0,5063.0 3280.0,5048.0 3280.0,5037.0 C 3280.0,5005.0 3312.0,4900.0 3321.0,4900.0 C 3326.0,4900.0 3350.0,4884.0 3376.0,4865.0 C 3401.0,4846.0 3430.0,4830.0 3440.0,4830.0 C 3450.0,4830.0 3472.0,4819.0 3488.0,4805.0 C 3505.0,4791.0 3522.0,4780.0 3528.0,4780.0 C 3534.0,4780.0 3567.0,4767.0 3602.0,4750.0 C 3636.0,4734.0 3673.0,4720.0 3684.0,4720.0 C 3694.0,4720.0 3719.0,4710.0 3739.0,4698.0 C 3767.0,4680.0 3786.0,4676.0 3830.0,4679.0 C 3860.0,4680.0 3890.0,4686.0 3897.0,4692.0 C 3903.0,4697.0 3925.0,4698.0 3944.0,4694.0 C 3967.0,4690.0 3986.0,4692.0 3994.0,4699.0 C 4004.0,4707.0 4053.0,4710.0 4147.0,4709.0 C 4359.0,4706.0 4367.0,4706.0 4380.0,4730.0 C 4386.0,4741.0 4399.0,4750.0 4409.0,4750.0 C 4419.0,4750.0 4433.0,4756.0 4439.0,4764.0 C 4445.0,4772.0 4463.0,4780.0 4478.0,4783.0 C 4583.0,4803.0 4641.0,4861.0 4644.0,4951.0 C 4645.0,4997.0 4643.0,5002.0 4600.0,5040.0 C 4572.0,5064.0 4545.0,5079.0 4528.0,5080.0 C 4511.0,5080.0 4499.0,5087.0 4495.0,5099.0 C 4492.0,5109.0 4481.0,5125.0 4470.0,5135.0 C 4459.0,5145.0 4450.0,5164.0 4450.0,5178.0 C 4450.0,5191.0 4440.0,5210.0 4428.0,5220.0 C 4415.0,5230.0 4394.0,5269.0 4381.0,5308.0 C 4360.0,5368.0 4358.0,5383.0 4368.0,5405.0 C 4379.0,5429.0 4378.0,5432.0 4360.0,5437.0 C 4336.0,5444.0 4336.0,5442.0 4360.0,5490.0 C 4371.0,5512.0 4380.0,5544.0 4380.0,5562.0 C 4380.0,5582.0 4389.0,5603.0 4405.0,5620.0 C 4419.0,5635.0 4440.0,5666.0 4453.0,5691.0 C 4470.0,5725.0 4480.0,5734.0 4497.0,5733.0 C 4512.0,5731.0 4528.0,5742.0 4546.0,5766.0 C 4561.0,5785.0 4587.0,5808.0 4604.0,5817.0 C 4621.0,5826.0 4638.0,5838.0 4642.0,5844.0 C 4646.0,5850.0 4677.0,5890.0 4711.0,5932.0 C 4772.0,6008.0 4820.0,6040.0 4854.0,6027.0 C 4872.0,6020.0 4885.0,6030.0 4904.0,6067.0 C 4913.0,6085.0 4933.0,6108.0 4948.0,6117.0 C 4963.0,6127.0 4979.0,6141.0 4983.0,6148.0 C 4988.0,6155.0 5006.0,6174.0 5023.0,6188.0 C 5040.0,6203.0 5077.0,6236.0 5105.0,6261.0 C 5132.0,6287.0 5170.0,6311.0 5187.0,6315.0 C 5211.0,6320.0 5238.0,6343.0 5289.0,6400.0 C 5327.0,6443.0 5359.0,6482.0 5361.0,6487.0 C 5363.0,6493.0 5377.0,6503.0 5391.0,6511.0 C 5406.0,6519.0 5441.0,6538.0 5470.0,6553.0 C 5507.0,6574.0 5526.0,6578.0 5533.0,6571.0 C 5539.0,6565.0 5563.0,6560.0 5587.0,6560.0 C 5622.0,6560.0 5643.0,6551.0 5702.0,6510.0 C 5766.0,6467.0 5777.0,6463.0 5789.0,6475.0 C 5802.0,6488.0 5801.0,6493.0 5782.0,6513.0 C 5756.0,6540.0 5753.0,6590.0 5774.0,6665.0 C 5791.0,6728.0 5841.0,6829.0 5869.0,6854.0 C 5881.0,6865.0 5890.0,6879.0 5890.0,6887.0 C 5890.0,6903.0 5888.0,6903.0 5857.0,6889.0 C 5838.0,6880.0 5826.0,6882.0 5802.0,6894.0 C 5785.0,6903.0 5758.0,6910.0 5742.0,6910.0 C 5703.0,6910.0 5684.0,6927.0 5660.0,6983.0 C 5639.0,7033.0 5634.0,7079.0 5648.0,7096.0 C 5658.0,7108.0 5651.0,7270.0 5640.0,7270.0 C 5635.0,7270.0 5629.0,7256.0 5625.0,7239.0" fill="pink"/>
	<path d="M 8274.0,6036.0 C 8247.0,6013.0 8247.0,6012.0 8262.0,5988.0 C 8277.0,5965.0 8286.0,5962.0 8367.0,5958.0 C 8445.0,5954.0 8460.0,5950.0 8500.0,5923.0 C 8557.0,5884.0 8600.0,5844.0 8600.0,5830.0 C 8600.0,5825.0 8606.0,5820.0 8614.0,5820.0 C 8622.0,5820.0 8637.0,5809.0 8647.0,5795.0 C 8667.0,5768.0 8949.0,5603.0 8990.0,5594.0 C 9004.0,5591.0 9035.0,5584.0 9058.0,5578.0 C 9094.0,5569.0 9104.0,5570.0 9111.0,5581.0 C 9126.0,5605.0 9121.0,5618.0 9093.0,5623.0 C 9019.0,5637.0 8970.0,5654.0 8915.0,5684.0 C 8789.0,5753.0 8755.0,5775.0 8740.0,5794.0 C 8732.0,5806.0 8715.0,5824.0 8701.0,5835.0 C 8688.0,5846.0 8654.0,5876.0 8626.0,5901.0 C 8533.0,5984.0 8391.0,6060.0 8328.0,6060.0 C 8313.0,6060.0 8289.0,6049.0 8274.0,6036.0" fill="pink"/>
	<path d="M 9183.0,5603.0 C 9163.0,5600.0 9146.0,5591.0 9139.0,5579.0 C 9133.0,5567.0 9130.0,5557.0 9132.0,5556.0 C 9134.0,5555.0 9151.0,5546.0 9170.0,5537.0 C 9202.0,5522.0 9205.0,5522.0 9208.0,5537.0 C 9211.0,5549.0 9220.0,5551.0 9253.0,5546.0 C 9302.0,5538.0 9314.0,5529.0 9330.0,5490.0 C 9337.0,5473.0 9348.0,5460.0 9355.0,5460.0 C 9362.0,5460.0 9373.0,5453.0 9380.0,5445.0 C 9409.0,5410.0 9433.0,5476.0 9411.0,5533.0 C 9404.0,5552.0 9384.0,5563.0 9321.0,5583.0 C 9277.0,5598.0 9235.0,5609.0 9228.0,5608.0 C 9221.0,5608.0 9200.0,5605.0 9183.0,5603.0" fill="pink"/>
	<path d="M 7237.0,5313.0 C 7234.0,5309.0 7229.0,5283.0 7225.0,5255.0 C 7216.0,5195.0 7180.0,5120.0 7151.0,5103.0 C 7140.0,5096.0 7122.0,5073.0 7111.0,5053.0 C 7101.0,5032.0 7075.0,5005.0 7053.0,4992.0 C 6880.0,4888.0 6884.0,4889.0 6792.0,4883.0 C 6744.0,4880.0 6692.0,4871.0 6675.0,4862.0 C 6626.0,4838.0 6500.0,4757.0 6500.0,4750.0 C 6500.0,4739.0 6386.0,4653.0 6347.0,4634.0 C 6310.0,4616.0 6297.0,4590.0 6325.0,4590.0 C 6334.0,4590.0 6353.0,4582.0 6367.0,4573.0 C 6387.0,4560.0 6424.0,4553.0 6504.0,4549.0 C 6565.0,4545.0 6639.0,4536.0 6668.0,4529.0 C 6735.0,4512.0 6747.0,4519.0 6783.0,4593.0 C 6801.0,4629.0 6829.0,4664.0 6862.0,4692.0 C 6891.0,4716.0 6948.0,4767.0 6989.0,4806.0 C 7040.0,4853.0 7086.0,4887.0 7127.0,4905.0 C 7187.0,4932.0 7192.0,4932.0 7266.0,4921.0 C 7307.0,4915.0 7350.0,4905.0 7360.0,4900.0 C 7370.0,4894.0 7381.0,4890.0 7384.0,4890.0 C 7386.0,4890.0 7387.0,4924.0 7385.0,4966.0 C 7383.0,5028.0 7376.0,5053.0 7348.0,5107.0 C 7330.0,5143.0 7306.0,5179.0 7295.0,5186.0 C 7281.0,5196.0 7274.0,5216.0 7270.0,5257.0 C 7266.0,5308.0 7250.0,5334.0 7237.0,5313.0" fill="pink"/>
	<path d="M 1904.0,4874.0 C 1907.0,4865.0 1910.0,4845.0 1910.0,4829.0 C 1910.0,4811.0 1915.0,4800.0 1923.0,4800.0 C 1931.0,4800.0 1942.0,4789.0 1948.0,4775.0 C 1955.0,4761.0 1967.0,4747.0 1975.0,4744.0 C 1984.0,4740.0 1990.0,4725.0 1990.0,4705.0 C 1990.0,4679.0 1980.0,4661.0 1943.0,4623.0 C 1916.0,4597.0 1891.0,4566.0 1885.0,4556.0 C 1874.0,4535.0 1862.0,4528.0 1809.0,4511.0 C 1742.0,4490.0 1725.0,4496.0 1685.0,4550.0 C 1665.0,4578.0 1644.0,4600.0 1640.0,4600.0 C 1635.0,4600.0 1622.0,4610.0 1611.0,4621.0 C 1596.0,4637.0 1584.0,4641.0 1566.0,4636.0 C 1532.0,4628.0 1528.0,4592.0 1556.0,4536.0 C 1564.0,4520.0 1570.0,4501.0 1570.0,4494.0 C 1570.0,4471.0 1533.0,4469.0 1496.0,4490.0 C 1456.0,4514.0 1420.0,4509.0 1420.0,4480.0 C 1420.0,4456.0 1464.0,4422.0 1506.0,4414.0 C 1548.0,4406.0 1590.0,4368.0 1590.0,4338.0 C 1589.0,4305.0 1565.0,4242.0 1544.0,4218.0 C 1534.0,4207.0 1505.0,4185.0 1480.0,4168.0 L 1435.0,4138.0 L 1357.0,4149.0 C 1263.0,4162.0 1240.0,4173.0 1240.0,4205.0 C 1240.0,4226.0 1235.0,4230.0 1211.0,4230.0 C 1195.0,4230.0 1177.0,4237.0 1170.0,4245.0 C 1152.0,4267.0 1131.0,4263.0 1120.0,4235.0 C 1115.0,4222.0 1093.0,4199.0 1070.0,4184.0 C 1038.0,4163.0 1032.0,4154.0 1041.0,4144.0 C 1047.0,4136.0 1057.0,4130.0 1062.0,4130.0 C 1068.0,4130.0 1084.0,4117.0 1100.0,4100.0 C 1120.0,4079.0 1126.0,4064.0 1122.0,4045.0 C 1117.0,4018.0 1076.0,3990.0 1042.0,3990.0 C 990.0,3990.0 881.0,3913.0 897.0,3887.0 C 900.0,3883.0 896.0,3873.0 890.0,3865.0 C 881.0,3854.0 881.0,3842.0 890.0,3816.0 C 905.0,3768.0 895.0,3743.0 854.0,3725.0 C 819.0,3710.0 810.0,3684.0 832.0,3662.0 C 849.0,3645.0 870.0,3647.0 870.0,3666.0 C 870.0,3677.0 876.0,3681.0 890.0,3677.0 C 900.0,3674.0 917.0,3678.0 927.0,3685.0 C 937.0,3693.0 954.0,3697.0 965.0,3694.0 C 978.0,3691.0 993.0,3697.0 1004.0,3709.0 C 1015.0,3721.0 1033.0,3730.0 1045.0,3730.0 C 1058.0,3730.0 1075.0,3741.0 1083.0,3754.0 C 1101.0,3781.0 1149.0,3797.0 1160.0,3779.0 C 1169.0,3765.0 1230.0,3771.0 1296.0,3793.0 C 1325.0,3803.0 1367.0,3786.0 1375.0,3761.0 C 1383.0,3734.0 1400.0,3734.0 1407.0,3760.0 C 1410.0,3771.0 1419.0,3780.0 1426.0,3780.0 C 1434.0,3780.0 1440.0,3790.0 1440.0,3805.0 C 1440.0,3834.0 1440.0,3834.0 1475.0,3818.0 C 1495.0,3809.0 1506.0,3810.0 1525.0,3820.0 C 1548.0,3832.0 1605.0,3831.0 1714.0,3814.0 C 1741.0,3809.0 1755.0,3812.0 1761.0,3821.0 C 1773.0,3841.0 1832.0,3833.0 1885.0,3804.0 C 1956.0,3767.0 1975.0,3771.0 2005.0,3829.0 C 2031.0,3881.0 2062.0,3910.0 2092.0,3910.0 C 2101.0,3910.0 2112.0,3919.0 2115.0,3931.0 C 2119.0,3942.0 2133.0,3956.0 2146.0,3962.0 C 2173.0,3975.0 2178.0,3995.0 2155.0,4004.0 C 2147.0,4007.0 2140.0,4017.0 2140.0,4026.0 C 2140.0,4035.0 2127.0,4057.0 2112.0,4075.0 C 2084.0,4106.0 2083.0,4109.0 2086.0,4217.0 C 2087.0,4280.0 2093.0,4338.0 2100.0,4351.0 C 2121.0,4392.0 2163.0,4430.0 2186.0,4430.0 C 2198.0,4430.0 2213.0,4436.0 2219.0,4444.0 C 2233.0,4460.0 2223.0,4490.0 2205.0,4490.0 C 2183.0,4490.0 2160.0,4519.0 2160.0,4546.0 C 2160.0,4559.0 2171.0,4588.0 2185.0,4609.0 C 2198.0,4631.0 2212.0,4660.0 2216.0,4674.0 C 2219.0,4688.0 2228.0,4704.0 2236.0,4711.0 C 2258.0,4729.0 2253.0,4748.0 2221.0,4765.0 C 2204.0,4773.0 2185.0,4788.0 2178.0,4798.0 C 2163.0,4817.0 2060.0,4890.0 2046.0,4890.0 C 2041.0,4890.0 2032.0,4884.0 2026.0,4876.0 C 2020.0,4868.0 2005.0,4859.0 1994.0,4856.0 C 1978.0,4851.0 1971.0,4854.0 1967.0,4870.0 C 1963.0,4885.0 1954.0,4890.0 1930.0,4890.0 C 1905.0,4890.0 1899.0,4887.0 1904.0,4874.0" fill="pink"/>
	<path d="M 8841.0,4224.0 C 8831.0,4202.0 8833.0,4193.0 8849.0,4167.0 C 8862.0,4146.0 8867.0,4125.0 8863.0,4105.0 C 8859.0,4081.0 8860.0,4077.0 8870.0,4087.0 C 8882.0,4098.0 8884.0,4118.0 8880.0,4184.0 C 8878.0,4201.0 8884.0,4218.0 8894.0,4225.0 C 8913.0,4239.0 8905.0,4250.0 8875.0,4250.0 C 8861.0,4250.0 8849.0,4240.0 8841.0,4224.0" fill="pink"/>
	<path d="M 1835.0,3662.0 C 1832.0,3659.0 1830.0,3650.0 1830.0,3642.0 C 1830.0,3618.0 1790.0,3570.0 1770.0,3570.0 C 1760.0,3570.0 1743.0,3557.0 1734.0,3541.0 C 1724.0,3525.0 1707.0,3507.0 1696.0,3502.0 C 1677.0,3494.0 1676.0,3486.0 1679.0,3412.0 C 1682.0,3332.0 1681.0,3330.0 1656.0,3320.0 C 1620.0,3307.0 1613.0,3283.0 1638.0,3259.0 C 1663.0,3236.0 1679.0,3235.0 1707.0,3255.0 C 1728.0,3270.0 1731.0,3268.0 1764.0,3233.0 C 1785.0,3210.0 1800.0,3185.0 1800.0,3169.0 C 1800.0,3155.0 1806.0,3135.0 1814.0,3124.0 C 1829.0,3105.0 1829.0,3105.0 1844.0,3125.0 C 1854.0,3138.0 1857.0,3156.0 1854.0,3177.0 C 1849.0,3205.0 1851.0,3209.0 1880.0,3215.0 C 1907.0,3221.0 1911.0,3226.0 1907.0,3246.0 C 1905.0,3260.0 1907.0,3273.0 1912.0,3276.0 C 1917.0,3279.0 1932.0,3300.0 1947.0,3323.0 C 1971.0,3361.0 1972.0,3368.0 1964.0,3439.0 C 1960.0,3481.0 1956.0,3529.0 1955.0,3545.0 C 1953.0,3592.0 1930.0,3660.0 1917.0,3661.0 C 1910.0,3661.0 1891.0,3663.0 1873.0,3664.0 C 1855.0,3666.0 1838.0,3665.0 1835.0,3662.0" fill="pink"/>
	<path d="M 8796.0,3541.0 C 8793.0,3537.0 8788.0,3508.0 8784.0,3477.0 C 8778.0,3429.0 8781.0,3417.0 8800.0,3388.0 C 8813.0,3370.0 8824.0,3354.0 8824.0,3354.0 C 8825.0,3353.0 8835.0,3349.0 8848.0,3346.0 C 8869.0,3339.0 8870.0,3341.0 8870.0,3398.0 C 8870.0,3490.0 8822.0,3583.0 8796.0,3541.0" fill="pink"/>
	<path d="M 6213.0,3103.0 C 6193.0,3090.0 6190.0,3079.0 6190.0,3023.0 C 6190.0,2963.0 6191.0,2959.0 6212.0,2962.0 C 6228.0,2964.0 6238.0,2978.0 6251.0,3015.0 C 6284.0,3110.0 6270.0,3143.0 6213.0,3103.0" fill="pink"/>
	<path d="M 6284.0,2832.0 C 6269.0,2784.0 6260.0,2772.0 6233.0,2767.0 C 6192.0,2759.0 6166.0,2676.0 6175.0,2585.0 C 6184.0,2508.0 6212.0,2475.0 6286.0,2456.0 C 6327.0,2446.0 6339.0,2437.0 6362.0,2399.0 C 6426.0,2295.0 6436.0,2230.0 6399.0,2154.0 C 6383.0,2120.0 6367.0,2105.0 6324.0,2084.0 C 6294.0,2070.0 6270.0,2054.0 6270.0,2049.0 C 6270.0,2044.0 6292.0,2040.0 6319.0,2040.0 C 6360.0,2040.0 6370.0,2044.0 6375.0,2060.0 C 6378.0,2071.0 6392.0,2083.0 6406.0,2086.0 C 6419.0,2089.0 6430.0,2098.0 6430.0,2106.0 C 6430.0,2124.0 6470.0,2150.0 6500.0,2150.0 C 6542.0,2150.0 6598.0,2170.0 6604.0,2187.0 C 6608.0,2196.0 6603.0,2211.0 6595.0,2220.0 C 6581.0,2236.0 6580.0,2242.0 6594.0,2273.0 C 6602.0,2293.0 6620.0,2319.0 6634.0,2331.0 C 6651.0,2346.0 6660.0,2364.0 6660.0,2384.0 C 6660.0,2401.0 6677.0,2448.0 6697.0,2488.0 C 6730.0,2551.0 6738.0,2560.0 6762.0,2560.0 C 6794.0,2560.0 6800.0,2582.0 6775.0,2606.0 C 6737.0,2645.0 6779.0,2721.0 6861.0,2763.0 C 6891.0,2778.0 6927.0,2790.0 6942.0,2790.0 C 6975.0,2790.0 7000.0,2799.0 7000.0,2811.0 C 7000.0,2816.0 6994.0,2820.0 6987.0,2820.0 C 6979.0,2820.0 6960.0,2826.0 6944.0,2834.0 C 6908.0,2852.0 6866.0,2844.0 6730.0,2795.0 C 6651.0,2767.0 6624.0,2767.0 6588.0,2798.0 C 6542.0,2838.0 6529.0,2841.0 6402.0,2845.0 C 6303.0,2848.0 6288.0,2846.0 6284.0,2832.0" fill="pink"/>
	<path d="M 6038.0,2009.0 C 6015.0,1996.0 6015.0,1980.0 6038.0,1980.0 C 6048.0,1980.0 6065.0,1973.0 6076.0,1965.0 C 6086.0,1957.0 6101.0,1950.0 6108.0,1950.0 C 6123.0,1950.0 6190.0,2001.0 6190.0,2013.0 C 6190.0,2024.0 6058.0,2021.0 6038.0,2009.0" fill="pink"/>
	<path d="M 8655.0,1650.0 C 8617.0,1629.0 8575.0,1611.0 8562.0,1610.0 C 8550.0,1610.0 8524.0,1595.0 8505.0,1576.0 C 8487.0,1557.0 8453.0,1532.0 8431.0,1519.0 C 8398.0,1501.0 8393.0,1494.0 8401.0,1479.0 C 8410.0,1462.0 8414.0,1463.0 8459.0,1495.0 C 8486.0,1514.0 8514.0,1530.0 8522.0,1530.0 C 8530.0,1530.0 8545.0,1539.0 8555.0,1550.0 C 8565.0,1561.0 8582.0,1570.0 8592.0,1570.0 C 8634.0,1570.0 8740.0,1646.0 8740.0,1677.0 C 8740.0,1696.0 8732.0,1694.0 8655.0,1650.0" fill="pink"/>
	<path d="M 4090.0,1522.0 C 4090.0,1506.0 4115.0,1490.0 4140.0,1490.0 C 4164.0,1490.0 4164.0,1491.0 4132.0,1510.0 C 4096.0,1532.0 4090.0,1534.0 4090.0,1522.0" fill="pink"/>
	<path d="M 4184.0,1326.0 C 4188.0,1305.0 4186.0,1289.0 4180.0,1285.0 C 4174.0,1281.0 4170.0,1270.0 4172.0,1261.0 C 4174.0,1251.0 4169.0,1236.0 4161.0,1227.0 C 4149.0,1212.0 4152.0,1210.0 4193.0,1210.0 C 4230.0,1210.0 4246.0,1204.0 4273.0,1180.0 C 4292.0,1164.0 4312.0,1150.0 4317.0,1150.0 C 4332.0,1150.0 4407.0,1067.0 4415.0,1041.0 C 4426.0,1004.0 4461.0,950.0 4470.0,955.0 C 4475.0,958.0 4467.0,988.0 4453.0,1022.0 C 4437.0,1062.0 4430.0,1094.0 4434.0,1112.0 C 4439.0,1138.0 4438.0,1140.0 4404.0,1140.0 C 4354.0,1140.0 4316.0,1165.0 4292.0,1216.0 C 4280.0,1240.0 4255.0,1277.0 4235.0,1298.0 C 4216.0,1320.0 4200.0,1343.0 4200.0,1349.0 C 4200.0,1355.0 4195.0,1360.0 4189.0,1360.0 C 4182.0,1360.0 4180.0,1348.0 4184.0,1326.0" fill="pink"/>
	<path d="M 5267.0,712.0 C 5258.0,702.0 5250.0,689.0 5250.0,683.0 C 5250.0,677.0 5244.0,667.0 5236.0,661.0 C 5218.0,646.0 5211.0,606.0 5222.0,586.0 C 5238.0,557.0 5270.0,567.0 5286.0,606.0 C 5295.0,627.0 5308.0,649.0 5316.0,657.0 C 5335.0,676.0 5334.0,683.0 5307.0,708.0 C 5284.0,730.0 5283.0,730.0 5267.0,712.0" fill="pink"/>
	<path d="M 4800.0,323.0 C 4717.0,279.0 4714.0,279.0 4667.0,290.0 C 4611.0,304.0 4602.0,300.0 4618.0,265.0 C 4626.0,248.0 4638.0,240.0 4654.0,240.0 C 4691.0,240.0 4723.0,190.0 4710.0,155.0 C 4705.0,141.0 4700.0,105.0 4700.0,76.0 C 4700.0,31.0 4703.0,22.0 4723.0,11.0 C 4741.0,1.0 4751.0,2.0 4775.0,14.0 C 4792.0,23.0 4810.0,30.0 4815.0,30.0 C 4821.0,30.0 4836.0,42.0 4849.0,55.0 C 4861.0,69.0 4876.0,77.0 4881.0,74.0 C 4887.0,71.0 4898.0,74.0 4906.0,81.0 C 4927.0,99.0 4923.0,321.0 4900.0,348.0 C 4886.0,366.0 4882.0,365.0 4800.0,323.0" fill="pink"/>
</svg>
