<?xml version="1.0" ?>
<svg xmlns="http://www.w3.org/2000/svg" xmlns:ev="http://www.w3.org/2001/xml-events" xmlns:xlink="http://www.w3.org/1999/xlink" baseProfile="full" height="350px" version="1.1" viewBox="-1024.8604983681012 1538.9881447886812 12292.430831593376 7160.966447250257" width="600px">
	<defs/>
	<path d="M 3920.0,8093.0 C 3889.0,8082.0 3860.0,8046.0 3860.0,8019.0 C 3860.0,8003.0 3852.0,7987.0 3838.0,7978.0 C 3816.0,7963.0 3816.0,7962.0 3833.0,7937.0 C 3852.0,7907.0 3865.0,7905.0 3921.0,7922.0 C 3948.0,7930.0 3960.0,7939.0 3960.0,7952.0 C 3960.0,7976.0 3983.0,7975.0 4073.0,7947.0 C 4136.0,7927.0 4151.0,7925.0 4181.0,7935.0 C 4200.0,7942.0 4236.0,7951.0 4260.0,7955.0 C 4285.0,7959.0 4318.0,7973.0 4333.0,7986.0 C 4349.0,7999.0 4375.0,8010.0 4391.0,8010.0 C 4417.0,8010.0 4420.0,8013.0 4420.0,8043.0 L 4420.0,8076.0 L 4338.0,8072.0 C 4288.0,8070.0 4219.0,8074.0 4165.0,8084.0 C 4078.0,8099.0 3951.0,8104.0 3920.0,8093.0" fill="pink"/>
	<path d="M 4683.0,7908.0 C 4677.0,7901.0 4667.0,7885.0 4661.0,7873.0 C 4652.0,7854.0 4653.0,7849.0 4670.0,7840.0 C 4685.0,7832.0 4697.0,7833.0 4719.0,7845.0 C 4757.0,7864.0 4763.0,7875.0 4750.0,7900.0 C 4738.0,7922.0 4698.0,7927.0 4683.0,7908.0" fill="pink"/>
	<path d="M 6253.0,7798.0 C 6202.0,7772.0 6192.0,7751.0 6219.0,7730.0 C 6230.0,7722.0 6242.0,7703.0 6245.0,7688.0 C 6255.0,7647.0 6319.0,7610.0 6379.0,7610.0 C 6446.0,7610.0 6477.0,7625.0 6484.0,7662.0 C 6498.0,7735.0 6496.0,7738.0 6406.0,7781.0 C 6360.0,7802.0 6316.0,7820.0 6309.0,7819.0 C 6301.0,7819.0 6276.0,7809.0 6253.0,7798.0" fill="pink"/>
	<path d="M 6706.0,7633.0 C 6675.0,7607.0 6650.0,7583.0 6650.0,7580.0 C 6650.0,7577.0 6670.0,7567.0 6695.0,7557.0 C 6729.0,7542.0 6753.0,7540.0 6797.0,7544.0 L 6855.0,7551.0 L 6955.0,7472.0 C 7010.0,7428.0 7073.0,7387.0 7094.0,7380.0 C 7116.0,7373.0 7162.0,7348.0 7196.0,7324.0 C 7231.0,7301.0 7267.0,7279.0 7277.0,7276.0 C 7287.0,7273.0 7318.0,7243.0 7345.0,7209.0 C 7373.0,7175.0 7416.0,7131.0 7442.0,7111.0 C 7486.0,7075.0 7494.0,7073.0 7581.0,7067.0 C 7632.0,7063.0 7674.0,7059.0 7675.0,7057.0 C 7676.0,7056.0 7738.0,6978.0 7813.0,6883.0 C 8019.0,6623.0 8015.0,6630.0 8034.0,6470.0 C 8048.0,6356.0 8056.0,6328.0 8082.0,6280.0 C 8099.0,6250.0 8127.0,6213.0 8145.0,6198.0 L 8177.0,6171.0 L 8211.0,6196.0 C 8251.0,6225.0 8278.0,6280.0 8279.0,6332.0 C 8280.0,6352.0 8291.0,6390.0 8304.0,6417.0 C 8317.0,6443.0 8331.0,6480.0 8334.0,6497.0 C 8339.0,6527.0 8336.0,6531.0 8295.0,6556.0 C 8270.0,6570.0 8229.0,6608.0 8204.0,6640.0 C 8155.0,6702.0 8082.0,6768.0 8013.0,6812.0 C 7959.0,6847.0 7803.0,6996.0 7795.0,7020.0 C 7792.0,7030.0 7769.0,7046.0 7746.0,7055.0 C 7714.0,7067.0 7692.0,7086.0 7664.0,7125.0 C 7619.0,7187.0 7574.0,7217.0 7469.0,7254.0 C 7428.0,7269.0 7371.0,7297.0 7343.0,7318.0 C 7152.0,7459.0 7107.0,7487.0 7059.0,7495.0 C 7006.0,7503.0 6853.0,7598.0 6821.0,7642.0 C 6807.0,7663.0 6788.0,7680.0 6779.0,7680.0 C 6770.0,7680.0 6737.0,7659.0 6706.0,7633.0" fill="pink"/>
	<path d="M 108.0,6387.0 C 111.0,5135.0 111.0,5134.0 90.0,5115.0 C 79.0,5105.0 70.0,5084.0 70.0,5067.0 C 70.0,5050.0 54.0,5008.0 34.0,4973.0 C -1.0,4910.0 -1.0,4908.0 11.0,4859.0 C 21.0,4822.0 35.0,4799.0 67.0,4769.0 L 110.0,4730.0 L 111.0,4347.0 C 112.0,4137.0 116.0,3781.0 119.0,3555.0 L 125.0,3145.0 L 177.0,3136.0 C 225.0,3128.0 231.0,3129.0 259.0,3153.0 C 311.0,3196.0 341.0,3197.0 418.0,3155.0 C 485.0,3118.0 485.0,3118.0 546.0,3129.0 C 580.0,3135.0 633.0,3140.0 664.0,3140.0 C 696.0,3140.0 758.0,3149.0 803.0,3161.0 C 915.0,3190.0 989.0,3178.0 1116.0,3109.0 L 1208.0,3060.0 L 1349.0,3140.0 C 1464.0,3206.0 1503.0,3223.0 1566.0,3235.0 C 1608.0,3243.0 1656.0,3258.0 1674.0,3268.0 C 1705.0,3286.0 1705.0,3286.0 1708.0,3380.0 L 1711.0,3474.0 L 1653.0,3532.0 C 1558.0,3629.0 1478.0,3681.0 1412.0,3689.0 C 1378.0,3693.0 1336.0,3707.0 1309.0,3723.0 C 1272.0,3745.0 1251.0,3750.0 1196.0,3750.0 C 1159.0,3750.0 1131.0,3754.0 1134.0,3759.0 C 1143.0,3774.0 1258.0,3793.0 1300.0,3786.0 C 1322.0,3783.0 1361.0,3770.0 1386.0,3758.0 L 1431.0,3735.0 L 1508.0,3762.0 C 1556.0,3779.0 1617.0,3791.0 1670.0,3795.0 C 1770.0,3802.0 1868.0,3819.0 1876.0,3831.0 C 1887.0,3849.0 1835.0,3921.0 1796.0,3943.0 C 1774.0,3955.0 1747.0,3980.0 1736.0,3999.0 L 1717.0,4032.0 L 1741.0,4025.0 C 1754.0,4021.0 1779.0,4007.0 1796.0,3994.0 C 1821.0,3974.0 1839.0,3970.0 1891.0,3970.0 C 1927.0,3970.0 1961.0,3965.0 1966.0,3960.0 C 1972.0,3954.0 1991.0,3953.0 2009.0,3956.0 C 2034.0,3961.0 2040.0,3967.0 2037.0,3981.0 C 2033.0,3996.0 2037.0,3998.0 2065.0,3993.0 C 2092.0,3989.0 2099.0,3991.0 2105.0,4009.0 C 2110.0,4025.0 2089.0,4062.0 2016.0,4169.0 C 1963.0,4246.0 1917.0,4316.0 1914.0,4325.0 C 1900.0,4360.0 1951.0,4316.0 1985.0,4264.0 C 2015.0,4217.0 2025.0,4210.0 2117.0,4171.0 C 2237.0,4119.0 2268.0,4119.0 2285.0,4170.0 C 2300.0,4215.0 2319.0,4218.0 2355.0,4180.0 C 2377.0,4157.0 2392.0,4150.0 2422.0,4150.0 L 2461.0,4150.0 L 2435.0,4193.0 C 2401.0,4252.0 2403.0,4271.0 2439.0,4236.0 L 2468.0,4209.0 L 2475.0,4246.0 L 2482.0,4284.0 L 2502.0,4252.0 C 2525.0,4216.0 2536.0,4213.0 2562.0,4237.0 C 2579.0,4252.0 2581.0,4252.0 2598.0,4237.0 C 2608.0,4228.0 2630.0,4218.0 2646.0,4214.0 C 2670.0,4209.0 2678.0,4212.0 2686.0,4229.0 C 2692.0,4243.0 2699.0,4247.0 2709.0,4241.0 C 2720.0,4234.0 2720.0,4226.0 2710.0,4195.0 C 2700.0,4165.0 2700.0,4155.0 2711.0,4145.0 C 2724.0,4132.0 2906.0,4090.0 2948.0,4090.0 C 2959.0,4090.0 2991.0,4074.0 3020.0,4055.0 C 3068.0,4022.0 3077.0,4020.0 3151.0,4020.0 C 3215.0,4020.0 3244.0,4014.0 3305.0,3990.0 C 3347.0,3973.0 3402.0,3955.0 3428.0,3950.0 C 3454.0,3944.0 3485.0,3938.0 3496.0,3935.0 C 3508.0,3932.0 3523.0,3916.0 3531.0,3898.0 C 3538.0,3880.0 3565.0,3843.0 3590.0,3815.0 C 3616.0,3787.0 3646.0,3738.0 3659.0,3705.0 C 3676.0,3663.0 3703.0,3624.0 3749.0,3575.0 C 3902.0,3413.0 3896.0,3422.0 3881.0,3398.0 C 3869.0,3379.0 3873.0,3372.0 3935.0,3310.0 C 3981.0,3264.0 4015.0,3238.0 4050.0,3226.0 C 4096.0,3209.0 4099.0,3207.0 4093.0,3180.0 C 4085.0,3137.0 4096.0,3105.0 4124.0,3092.0 C 4138.0,3086.0 4159.0,3061.0 4171.0,3038.0 C 4199.0,2983.0 4198.0,2983.0 4213.0,3003.0 C 4224.0,3019.0 4234.0,3014.0 4317.0,2955.0 C 4422.0,2881.0 4494.0,2796.0 4505.0,2734.0 C 4515.0,2682.0 4516.0,2680.0 4585.0,2621.0 C 4634.0,2579.0 4652.0,2570.0 4683.0,2570.0 C 4709.0,2570.0 4735.0,2560.0 4765.0,2540.0 C 4802.0,2514.0 4818.0,2510.0 4873.0,2510.0 C 4929.0,2510.0 4940.0,2513.0 4952.0,2532.0 C 4967.0,2554.0 4967.0,2554.0 5007.0,2536.0 C 5029.0,2527.0 5055.0,2505.0 5064.0,2489.0 C 5079.0,2464.0 5087.0,2460.0 5108.0,2464.0 C 5123.0,2467.0 5165.0,2474.0 5202.0,2480.0 C 5239.0,2486.0 5280.0,2494.0 5293.0,2499.0 C 5313.0,2507.0 5328.0,2500.0 5386.0,2460.0 C 5424.0,2433.0 5460.0,2411.0 5467.0,2410.0 C 5473.0,2410.0 5506.0,2422.0 5539.0,2436.0 L 5599.0,2462.0 L 5650.0,2431.0 C 5689.0,2407.0 5712.0,2400.0 5751.0,2400.0 C 5779.0,2400.0 5811.0,2393.0 5824.0,2385.0 C 5839.0,2375.0 5884.0,2367.0 5951.0,2363.0 C 6031.0,2359.0 6066.0,2352.0 6101.0,2334.0 C 6126.0,2322.0 6164.0,2309.0 6186.0,2305.0 C 6245.0,2295.0 6250.0,2292.0 6243.0,2274.0 C 6238.0,2262.0 6229.0,2259.0 6200.0,2264.0 C 6175.0,2268.0 6159.0,2265.0 6152.0,2257.0 C 6144.0,2247.0 6163.0,2232.0 6234.0,2192.0 C 6322.0,2143.0 6330.0,2140.0 6399.0,2140.0 C 6457.0,2140.0 6486.0,2146.0 6544.0,2170.0 C 6686.0,2229.0 6685.0,2248.0 6540.0,2311.0 C 6484.0,2334.0 6440.0,2359.0 6440.0,2367.0 C 6440.0,2385.0 6495.0,2388.0 6586.0,2374.0 C 6620.0,2369.0 6639.0,2373.0 6686.0,2396.0 C 6742.0,2422.0 6743.0,2424.0 6715.0,2427.0 C 6626.0,2436.0 6600.0,2442.0 6600.0,2453.0 C 6600.0,2462.0 6587.0,2464.0 6560.0,2462.0 C 6483.0,2454.0 6431.0,2469.0 6386.0,2510.0 C 6347.0,2546.0 6341.0,2548.0 6254.0,2555.0 L 6163.0,2562.0 L 6090.0,2635.0 C 6032.0,2694.0 6019.0,2712.0 6025.0,2729.0 C 6030.0,2747.0 6039.0,2750.0 6090.0,2750.0 C 6138.0,2750.0 6154.0,2754.0 6179.0,2776.0 C 6196.0,2790.0 6210.0,2805.0 6210.0,2810.0 C 6210.0,2814.0 6186.0,2831.0 6158.0,2848.0 C 6108.0,2875.0 6096.0,2877.0 5962.0,2883.0 L 5819.0,2889.0 L 5743.0,2937.0 C 5701.0,2963.0 5663.0,2987.0 5659.0,2990.0 C 5654.0,2993.0 5648.0,3013.0 5645.0,3035.0 C 5639.0,3073.0 5643.0,3079.0 5699.0,3148.0 L 5760.0,3222.0 L 5743.0,3251.0 C 5731.0,3271.0 5715.0,3282.0 5690.0,3286.0 C 5671.0,3289.0 5637.0,3296.0 5615.0,3301.0 C 5579.0,3308.0 5572.0,3306.0 5545.0,3280.0 C 5519.0,3255.0 5506.0,3250.0 5467.0,3250.0 C 5434.0,3250.0 5418.0,3245.0 5414.0,3235.0 C 5405.0,3212.0 5339.0,3217.0 5268.0,3245.0 L 5205.0,3270.0 L 5177.0,3390.0 L 5149.0,3509.0 L 5099.0,3547.0 C 5034.0,3596.0 4990.0,3664.0 4990.0,3716.0 C 4989.0,3737.0 4977.0,3793.0 4962.0,3840.0 L 4934.0,3925.0 L 4872.0,3940.0 C 4822.0,3952.0 4808.0,3960.0 4804.0,3977.0 C 4798.0,4000.0 4786.0,4004.0 4694.0,4015.0 L 4642.0,4022.0 L 4611.0,4090.0 C 4572.0,4174.0 4549.0,4195.0 4383.0,4296.0 L 4253.0,4375.0 L 4246.0,4464.0 C 4240.0,4545.0 4236.0,4558.0 4205.0,4600.0 C 4187.0,4625.0 4159.0,4652.0 4145.0,4660.0 C 4120.0,4674.0 4119.0,4677.0 4125.0,4730.0 C 4135.0,4826.0 4140.0,4840.0 4164.0,4846.0 C 4177.0,4849.0 4269.0,4847.0 4370.0,4841.0 C 4545.0,4831.0 4555.0,4832.0 4586.0,4850.0 C 4603.0,4861.0 4633.0,4870.0 4652.0,4870.0 C 4672.0,4870.0 4703.0,4877.0 4723.0,4885.0 L 4758.0,4899.0 L 4745.0,4957.0 C 4737.0,4989.0 4726.0,5041.0 4720.0,5072.0 C 4711.0,5119.0 4703.0,5133.0 4677.0,5149.0 C 4659.0,5160.0 4629.0,5194.0 4610.0,5225.0 C 4585.0,5264.0 4556.0,5293.0 4513.0,5321.0 C 4420.0,5382.0 4383.0,5392.0 4305.0,5380.0 C 4234.0,5369.0 4218.0,5374.0 4113.0,5440.0 C 4082.0,5460.0 4053.0,5470.0 4028.0,5470.0 C 3998.0,5470.0 3965.0,5486.0 3876.0,5540.0 C 3783.0,5597.0 3755.0,5610.0 3721.0,5610.0 C 3693.0,5610.0 3656.0,5622.0 3607.0,5647.0 C 3550.0,5676.0 3509.0,5689.0 3410.0,5705.0 L 3285.0,5726.0 L 3282.0,5764.0 C 3279.0,5796.0 3284.0,5808.0 3310.0,5835.0 L 3342.0,5868.0 L 3331.0,6000.0 L 3321.0,6132.0 L 3237.0,6219.0 C 3191.0,6266.0 3129.0,6331.0 3099.0,6362.0 C 3046.0,6419.0 3043.0,6420.0 2972.0,6430.0 C 2905.0,6439.0 2892.0,6445.0 2830.0,6494.0 C 2792.0,6523.0 2736.0,6575.0 2705.0,6609.0 C 2666.0,6651.0 2640.0,6670.0 2624.0,6670.0 C 2567.0,6670.0 2526.0,6698.0 2490.0,6762.0 C 2446.0,6839.0 2429.0,6845.0 2271.0,6832.0 L 2156.0,6823.0 L 2074.0,6895.0 C 2027.0,6937.0 1980.0,6971.0 1962.0,6975.0 C 1945.0,6978.0 1923.0,6992.0 1913.0,7006.0 C 1886.0,7043.0 1600.0,7140.0 1519.0,7140.0 C 1470.0,7140.0 1403.0,7158.0 1162.0,7236.0 C 889.0,7325.0 862.0,7336.0 825.0,7371.0 C 789.0,7405.0 778.0,7410.0 736.0,7410.0 C 699.0,7410.0 679.0,7416.0 655.0,7435.0 C 637.0,7448.0 578.0,7476.0 524.0,7496.0 C 469.0,7517.0 385.0,7554.0 335.0,7580.0 C 261.0,7619.0 232.0,7629.0 175.0,7634.0 L 105.0,7640.0 L 108.0,6387.0" fill="pink"/>
	<path d="M 6750.0,7432.0 C 6716.0,7416.0 6709.0,7392.0 6740.0,7398.0 C 6758.0,7402.0 6816.0,7402.0 6845.0,7398.0 C 6875.0,7393.0 6875.0,7425.0 6845.0,7438.0 C 6810.0,7454.0 6791.0,7453.0 6750.0,7432.0" fill="pink"/>
	<path d="M 7640.0,6575.0 C 7626.0,6567.0 7603.0,6561.0 7589.0,6560.0 C 7568.0,6560.0 7561.0,6554.0 7557.0,6530.0 C 7551.0,6503.0 7547.0,6500.0 7512.0,6500.0 C 7482.0,6500.0 7467.0,6507.0 7440.0,6535.0 L 7406.0,6570.0 L 7316.0,6569.0 C 7181.0,6568.0 7181.0,6569.0 7240.0,6480.0 C 7268.0,6439.0 7290.0,6395.0 7290.0,6382.0 C 7290.0,6370.0 7297.0,6349.0 7305.0,6336.0 C 7318.0,6316.0 7347.0,6093.0 7338.0,6084.0 C 7336.0,6083.0 7285.0,6076.0 7225.0,6070.0 C 7164.0,6064.0 7092.0,6049.0 7064.0,6039.0 C 7019.0,6021.0 7006.0,6009.0 6956.0,5937.0 C 6913.0,5874.0 6900.0,5846.0 6900.0,5818.0 C 6900.0,5760.0 6876.0,5741.0 6793.0,5734.0 C 6723.0,5727.0 6720.0,5726.0 6694.0,5689.0 L 6668.0,5651.0 L 6589.0,5690.0 C 6546.0,5712.0 6505.0,5730.0 6498.0,5730.0 C 6491.0,5730.0 6467.0,5716.0 6446.0,5700.0 C 6383.0,5652.0 6359.0,5658.0 6299.0,5738.0 C 6253.0,5800.0 6249.0,5808.0 6253.0,5852.0 C 6255.0,5881.0 6267.0,5915.0 6284.0,5940.0 C 6315.0,5988.0 6315.0,5986.0 6288.0,5993.0 C 6248.0,6004.0 6192.0,5959.0 6150.0,5884.0 L 6112.0,5816.0 L 6140.0,5771.0 L 6168.0,5726.0 L 6112.0,5684.0 C 6059.0,5644.0 6054.0,5642.0 6025.0,5654.0 C 5961.0,5681.0 5928.0,5681.0 5881.0,5655.0 C 5844.0,5633.0 5825.0,5630.0 5748.0,5630.0 C 5662.0,5630.0 5656.0,5631.0 5590.0,5670.0 C 5552.0,5692.0 5517.0,5710.0 5511.0,5710.0 C 5505.0,5710.0 5475.0,5699.0 5444.0,5685.0 C 5403.0,5667.0 5383.0,5663.0 5370.0,5670.0 C 5346.0,5683.0 5269.0,5683.0 5234.0,5670.0 C 5210.0,5661.0 5202.0,5663.0 5168.0,5691.0 C 5106.0,5740.0 5066.0,5719.0 5049.0,5625.0 C 5043.0,5591.0 5046.0,5580.0 5072.0,5542.0 C 5107.0,5491.0 5149.0,5470.0 5265.0,5445.0 C 5331.0,5430.0 5353.0,5420.0 5395.0,5385.0 C 5423.0,5362.0 5464.0,5333.0 5488.0,5321.0 C 5512.0,5309.0 5539.0,5286.0 5548.0,5269.0 C 5557.0,5253.0 5568.0,5240.0 5571.0,5240.0 C 5574.0,5240.0 5591.0,5251.0 5610.0,5265.0 C 5638.0,5286.0 5655.0,5290.0 5709.0,5290.0 C 5791.0,5290.0 5822.0,5273.0 5880.0,5194.0 L 5923.0,5135.0 L 6069.0,5136.0 C 6149.0,5137.0 6237.0,5142.0 6263.0,5149.0 C 6290.0,5155.0 6316.0,5158.0 6322.0,5154.0 C 6327.0,5151.0 6354.0,5142.0 6381.0,5135.0 C 6428.0,5122.0 6434.0,5123.0 6488.0,5148.0 C 6519.0,5162.0 6566.0,5186.0 6591.0,5202.0 C 6622.0,5221.0 6651.0,5230.0 6679.0,5230.0 C 6715.0,5230.0 6723.0,5234.0 6738.0,5261.0 C 6769.0,5317.0 6774.0,5320.0 6852.0,5334.0 C 6919.0,5345.0 6942.0,5355.0 7024.0,5409.0 C 7076.0,5444.0 7142.0,5496.0 7171.0,5527.0 C 7219.0,5577.0 7221.0,5582.0 7206.0,5599.0 C 7197.0,5609.0 7190.0,5626.0 7190.0,5638.0 C 7190.0,5658.0 7193.0,5659.0 7293.0,5654.0 C 7366.0,5650.0 7398.0,5645.0 7406.0,5634.0 C 7428.0,5606.0 7473.0,5619.0 7568.0,5680.0 L 7660.0,5739.0 L 7660.0,5783.0 C 7660.0,5825.0 7657.0,5828.0 7601.0,5869.0 C 7536.0,5916.0 7523.0,5946.0 7542.0,6001.0 L 7553.0,6033.0 L 7640.0,6027.0 L 7727.0,6020.0 L 7783.0,6091.0 C 7848.0,6173.0 7861.0,6222.0 7837.0,6293.0 C 7827.0,6324.0 7825.0,6350.0 7831.0,6386.0 C 7844.0,6466.0 7842.0,6479.0 7816.0,6491.0 C 7799.0,6499.0 7787.0,6499.0 7772.0,6491.0 C 7751.0,6480.0 7740.0,6492.0 7740.0,6530.0 C 7740.0,6543.0 7681.0,6592.0 7667.0,6590.0 C 7666.0,6589.0 7654.0,6583.0 7640.0,6575.0" fill="pink"/>
	<path d="M 3421.0,6295.0 C 3401.0,6265.0 3398.0,6254.0 3406.0,6232.0 C 3416.0,6204.0 3430.0,6202.0 3488.0,6215.0 C 3509.0,6220.0 3511.0,6225.0 3508.0,6273.0 C 3505.0,6323.0 3504.0,6325.0 3475.0,6328.0 C 3450.0,6330.0 3441.0,6324.0 3421.0,6295.0" fill="pink"/>
	<path d="M 9303.0,5978.0 C 9291.0,5965.0 9277.0,5939.0 9272.0,5920.0 C 9264.0,5889.0 9268.0,5875.0 9301.0,5808.0 L 9340.0,5731.0 L 9370.0,5741.0 C 9397.0,5751.0 9400.0,5756.0 9400.0,5795.0 C 9400.0,5860.0 9380.0,5940.0 9357.0,5972.0 C 9332.0,6006.0 9329.0,6006.0 9303.0,5978.0" fill="pink"/>
	<path d="M 4188.0,5883.0 C 4155.0,5862.0 4144.0,5805.0 4169.0,5776.0 C 4194.0,5746.0 4261.0,5720.0 4282.0,5731.0 C 4313.0,5748.0 4306.0,5814.0 4268.0,5861.0 C 4233.0,5905.0 4226.0,5906.0 4188.0,5883.0" fill="pink"/>
	<path d="M 4691.0,5697.0 C 4671.0,5687.0 4669.0,5681.0 4673.0,5646.0 C 4678.0,5614.0 4691.0,5594.0 4751.0,5534.0 L 4824.0,5460.0 L 4852.0,5487.0 C 4875.0,5509.0 4880.0,5522.0 4880.0,5562.0 C 4880.0,5606.0 4877.0,5611.0 4843.0,5633.0 C 4736.0,5700.0 4716.0,5708.0 4691.0,5697.0" fill="pink"/>
	<path d="M 9440.0,5680.0 C 9440.0,5668.0 9433.0,5646.0 9425.0,5630.0 C 9408.0,5597.0 9402.0,5488.0 9414.0,5422.0 C 9421.0,5386.0 9429.0,5375.0 9463.0,5353.0 C 9486.0,5339.0 9534.0,5300.0 9570.0,5268.0 C 9606.0,5235.0 9653.0,5199.0 9675.0,5188.0 C 9703.0,5174.0 9720.0,5157.0 9732.0,5129.0 C 9749.0,5089.0 9749.0,5089.0 9724.0,5078.0 C 9705.0,5069.0 9700.0,5059.0 9700.0,5032.0 C 9700.0,5003.0 9710.0,4989.0 9776.0,4927.0 C 9818.0,4887.0 9878.0,4842.0 9909.0,4826.0 C 9963.0,4798.0 9968.0,4797.0 10079.0,4803.0 C 10209.0,4809.0 10228.0,4819.0 10237.0,4886.0 C 10246.0,4952.0 10225.0,4999.0 10145.0,5095.0 C 10087.0,5164.0 10049.0,5197.0 9980.0,5242.0 C 9919.0,5281.0 9880.0,5315.0 9855.0,5349.0 C 9831.0,5383.0 9810.0,5401.0 9789.0,5405.0 C 9756.0,5412.0 9737.0,5443.0 9726.0,5504.0 C 9718.0,5548.0 9670.0,5624.0 9645.0,5634.0 C 9636.0,5637.0 9613.0,5640.0 9594.0,5640.0 C 9575.0,5640.0 9533.0,5654.0 9500.0,5670.0 C 9442.0,5699.0 9440.0,5699.0 9440.0,5680.0" fill="pink"/>
	<path d="M 6920.0,3689.0 C 6906.0,3684.0 6887.0,3667.0 6878.0,3652.0 C 6861.0,3624.0 6862.0,3623.0 6891.0,3606.0 C 6914.0,3592.0 6920.0,3582.0 6920.0,3555.0 C 6920.0,3535.0 6914.0,3517.0 6905.0,3512.0 C 6892.0,3505.0 6893.0,3500.0 6915.0,3480.0 C 6930.0,3465.0 6944.0,3460.0 6949.0,3466.0 C 6954.0,3471.0 6962.0,3526.0 6965.0,3588.0 C 6973.0,3709.0 6973.0,3709.0 6920.0,3689.0" fill="pink"/>
	<path d="M 7930.0,3296.0 C 7930.0,3294.0 7950.0,3282.0 7975.0,3270.0 C 8005.0,3256.0 8028.0,3235.0 8043.0,3210.0 C 8060.0,3180.0 8074.0,3169.0 8108.0,3159.0 C 8147.0,3148.0 8156.0,3149.0 8196.0,3168.0 C 8220.0,3180.0 8240.0,3194.0 8240.0,3199.0 C 8240.0,3219.0 8157.0,3278.0 8115.0,3289.0 C 8074.0,3299.0 7930.0,3305.0 7930.0,3296.0" fill="pink"/>
	<path d="M 6355.0,3168.0 C 6287.0,3132.0 6263.0,3076.0 6294.0,3021.0 C 6308.0,2996.0 6385.0,2940.0 6405.0,2940.0 C 6413.0,2940.0 6420.0,2963.0 6424.0,2999.0 C 6429.0,3045.0 6426.0,3069.0 6410.0,3114.0 C 6385.0,3178.0 6382.0,3182.0 6355.0,3168.0" fill="pink"/>
	<path d="M 6490.0,3021.0 C 6490.0,2995.0 6498.0,2980.0 6525.0,2956.0 L 6559.0,2925.0 L 6528.0,2893.0 C 6479.0,2843.0 6496.0,2836.0 6628.0,2851.0 C 6735.0,2863.0 6738.0,2863.0 6766.0,2841.0 C 6791.0,2821.0 6795.0,2821.0 6803.0,2836.0 C 6809.0,2846.0 6808.0,2861.0 6802.0,2875.0 C 6796.0,2888.0 6794.0,2908.0 6797.0,2920.0 C 6806.0,2955.0 6756.0,3000.0 6707.0,3000.0 C 6683.0,3000.0 6656.0,3008.0 6637.0,3022.0 C 6617.0,3037.0 6584.0,3047.0 6548.0,3050.0 L 6490.0,3056.0 L 6490.0,3021.0" fill="pink"/>
	<path d="M 6734.0,2749.0 C 6737.0,2732.0 6740.0,2713.0 6740.0,2708.0 C 6740.0,2703.0 6753.0,2694.0 6769.0,2689.0 C 6787.0,2683.0 6801.0,2669.0 6804.0,2654.0 C 6808.0,2640.0 6820.0,2605.0 6831.0,2575.0 C 6849.0,2526.0 6854.0,2520.0 6880.0,2520.0 C 6896.0,2520.0 6933.0,2511.0 6961.0,2500.0 C 6989.0,2488.0 7014.0,2481.0 7015.0,2482.0 C 7026.0,2493.0 7070.0,2618.0 7070.0,2636.0 C 7070.0,2687.0 7006.0,2679.0 6995.0,2628.0 C 6981.0,2567.0 6943.0,2563.0 6912.0,2619.0 C 6900.0,2640.0 6868.0,2675.0 6841.0,2695.0 C 6814.0,2716.0 6786.0,2743.0 6779.0,2756.0 C 6772.0,2769.0 6758.0,2780.0 6747.0,2780.0 C 6730.0,2780.0 6728.0,2775.0 6734.0,2749.0" fill="pink"/>
</svg>
