<?xml version="1.0" ?>
<svg xmlns="http://www.w3.org/2000/svg" xmlns:ev="http://www.w3.org/2001/xml-events" xmlns:xlink="http://www.w3.org/1999/xlink" baseProfile="full" height="600px" version="1.1" viewBox="1004.4012309860456 -1028.1284815587603 8236.973077967894 12296.34918265987" width="402px">
	<defs/>
	<path d="M 4742.0,10224.0 C 4711.0,10203.0 4728.0,10174.0 4780.0,10159.0 C 4815.0,10148.0 4822.0,10149.0 4840.0,10165.0 C 4865.0,10187.0 4865.0,10202.0 4842.0,10223.0 C 4819.0,10244.0 4771.0,10245.0 4742.0,10224.0" fill="pink"/>
	<path d="M 4606.0,10044.0 C 4599.0,10016.0 4615.0,9980.0 4634.0,9980.0 C 4650.0,9980.0 4660.0,10012.0 4653.0,10039.0 C 4645.0,10069.0 4613.0,10072.0 4606.0,10044.0" fill="pink"/>
	<path d="M 5050.0,9923.0 C 5026.0,9893.0 5027.0,9862.0 5052.0,9846.0 C 5073.0,9834.0 5101.0,9856.0 5124.0,9903.0 C 5135.0,9927.0 5136.0,9936.0 5127.0,9942.0 C 5103.0,9957.0 5071.0,9949.0 5050.0,9923.0" fill="pink"/>
	<path d="M 4694.0,9899.0 C 4678.0,9882.0 4678.0,9877.0 4690.0,9870.0 C 4719.0,9852.0 4747.0,9859.0 4752.0,9885.0 C 4755.0,9898.0 4755.0,9912.0 4752.0,9915.0 C 4740.0,9926.0 4712.0,9919.0 4694.0,9899.0" fill="pink"/>
	<path d="M 4310.0,9676.0 C 4279.0,9644.0 4258.0,9630.0 4239.0,9630.0 C 4206.0,9630.0 4202.0,9620.0 4195.0,9517.0 C 4186.0,9402.0 4173.0,9349.0 4129.0,9255.0 C 4108.0,9210.0 4084.0,9148.0 4076.0,9118.0 C 4068.0,9087.0 4055.0,9048.0 4046.0,9032.0 C 4023.0,8988.0 4026.0,8945.0 4055.0,8891.0 C 4087.0,8831.0 4100.0,8751.0 4100.0,8617.0 L 4100.0,8508.0 L 4066.0,8469.0 L 4033.0,8430.0 L 4037.0,8242.0 C 4042.0,8058.0 4042.0,8054.0 4070.0,8008.0 C 4099.0,7961.0 4096.0,7940.0 4060.0,7940.0 C 4051.0,7940.0 4029.0,7927.0 4010.0,7910.0 C 3956.0,7865.0 3880.0,7873.0 3880.0,7925.0 C 3880.0,7953.0 3856.0,7978.0 3788.0,8022.0 C 3750.0,8046.0 3740.0,8058.0 3740.0,8079.0 C 3740.0,8094.0 3734.0,8114.0 3727.0,8123.0 C 3716.0,8139.0 3713.0,8139.0 3694.0,8125.0 C 3675.0,8112.0 3672.0,8098.0 3667.0,8003.0 C 3664.0,7943.0 3659.0,7883.0 3655.0,7869.0 C 3649.0,7848.0 3654.0,7840.0 3684.0,7819.0 C 3725.0,7791.0 3729.0,7772.0 3734.0,7570.0 C 3737.0,7433.0 3739.0,7425.0 3805.0,7340.0 C 3842.0,7291.0 3848.0,7277.0 3854.0,7215.0 C 3866.0,7087.0 3872.0,7055.0 3888.0,7038.0 C 3907.0,7016.0 3939.0,7015.0 3969.0,7036.0 C 3998.0,7057.0 4017.0,7042.0 4000.0,7010.0 C 3981.0,6975.0 3996.0,6932.0 4030.0,6925.0 C 4052.0,6920.0 4067.0,6906.0 4087.0,6868.0 C 4122.0,6806.0 4168.0,6774.0 4195.0,6794.0 C 4221.0,6813.0 4228.0,6912.0 4206.0,6964.0 C 4190.0,7002.0 4190.0,7004.0 4211.0,7026.0 L 4233.0,7049.0 L 4274.0,7020.0 C 4297.0,7004.0 4350.0,6981.0 4393.0,6969.0 C 4459.0,6950.0 4473.0,6942.0 4491.0,6913.0 C 4509.0,6885.0 4511.0,6874.0 4501.0,6854.0 C 4490.0,6829.0 4447.0,6820.0 4435.0,6840.0 C 4422.0,6861.0 4401.0,6849.0 4394.0,6816.0 C 4390.0,6791.0 4368.0,6762.0 4313.0,6709.0 L 4238.0,6636.0 L 4253.0,6502.0 C 4262.0,6428.0 4271.0,6366.0 4274.0,6362.0 C 4282.0,6354.0 4330.0,6401.0 4330.0,6417.0 C 4330.0,6439.0 4376.0,6432.0 4408.0,6405.0 C 4427.0,6389.0 4442.0,6364.0 4449.0,6334.0 C 4458.0,6299.0 4464.0,6290.0 4473.0,6299.0 C 4492.0,6318.0 4516.0,6312.0 4559.0,6276.0 C 4605.0,6238.0 4684.0,6214.0 4733.0,6225.0 C 4751.0,6228.0 4789.0,6234.0 4818.0,6237.0 C 4864.0,6241.0 4870.0,6244.0 4870.0,6265.0 C 4870.0,6278.0 4860.0,6297.0 4847.0,6307.0 C 4811.0,6336.0 4824.0,6357.0 4887.0,6371.0 C 4918.0,6378.0 4956.0,6395.0 4972.0,6408.0 C 4998.0,6430.0 5007.0,6432.0 5058.0,6426.0 C 5133.0,6417.0 5231.0,6359.0 5302.0,6281.0 C 5348.0,6230.0 5364.0,6220.0 5427.0,6200.0 C 5523.0,6170.0 5551.0,6136.0 5562.0,6036.0 C 5570.0,5958.0 5591.0,5931.0 5642.0,5930.0 C 5681.0,5930.0 5694.0,5959.0 5685.0,6029.0 C 5677.0,6097.0 5660.0,6135.0 5614.0,6189.0 C 5582.0,6226.0 5579.0,6234.0 5581.0,6287.0 C 5582.0,6326.0 5576.0,6362.0 5561.0,6398.0 C 5550.0,6427.0 5540.0,6457.0 5540.0,6465.0 C 5540.0,6497.0 5582.0,6477.0 5653.0,6411.0 C 5694.0,6373.0 5737.0,6337.0 5749.0,6330.0 C 5761.0,6324.0 5782.0,6294.0 5795.0,6264.0 C 5816.0,6216.0 5822.0,6210.0 5849.0,6210.0 C 5866.0,6210.0 5892.0,6199.0 5912.0,6183.0 C 5972.0,6134.0 6095.0,6016.0 6116.0,5985.0 C 6136.0,5958.0 6137.0,5953.0 6123.0,5927.0 C 6115.0,5911.0 6110.0,5885.0 6112.0,5868.0 C 6115.0,5839.0 6119.0,5835.0 6166.0,5825.0 C 6194.0,5819.0 6232.0,5802.0 6251.0,5788.0 C 6270.0,5774.0 6302.0,5760.0 6323.0,5757.0 C 6343.0,5754.0 6372.0,5742.0 6387.0,5731.0 L 6413.0,5710.0 L 6464.0,5753.0 C 6532.0,5811.0 6534.0,5812.0 6575.0,5804.0 C 6631.0,5794.0 6617.0,5740.0 6559.0,5740.0 C 6509.0,5740.0 6500.0,5731.0 6500.0,5681.0 C 6500.0,5622.0 6511.0,5606.0 6552.0,5606.0 C 6579.0,5605.0 6586.0,5601.0 6588.0,5581.0 C 6592.0,5554.0 6618.0,5510.0 6630.0,5510.0 C 6634.0,5510.0 6654.0,5536.0 6675.0,5567.0 C 6718.0,5631.0 6731.0,5699.0 6710.0,5749.0 C 6701.0,5773.0 6701.0,5783.0 6715.0,5810.0 C 6724.0,5827.0 6730.0,5858.0 6728.0,5878.0 C 6726.0,5908.0 6720.0,5916.0 6703.0,5918.0 C 6686.0,5921.0 6680.0,5916.0 6680.0,5901.0 C 6680.0,5890.0 6673.0,5874.0 6664.0,5866.0 C 6650.0,5851.0 6646.0,5852.0 6619.0,5881.0 C 6593.0,5909.0 6585.0,5912.0 6538.0,5910.0 C 6438.0,5906.0 6431.0,5914.0 6471.0,5991.0 C 6482.0,6014.0 6490.0,6033.0 6488.0,6034.0 C 6486.0,6035.0 6473.0,6044.0 6458.0,6053.0 C 6439.0,6065.0 6430.0,6079.0 6430.0,6096.0 C 6430.0,6133.0 6375.0,6200.0 6344.0,6200.0 C 6328.0,6200.0 6316.0,6209.0 6305.0,6230.0 C 6270.0,6298.0 6296.0,6315.0 6439.0,6315.0 L 6544.0,6315.0 L 6562.0,6346.0 L 6581.0,6378.0 L 6446.0,6444.0 C 6372.0,6480.0 6306.0,6510.0 6299.0,6510.0 C 6292.0,6510.0 6279.0,6503.0 6270.0,6495.0 C 6256.0,6483.0 6247.0,6482.0 6219.0,6492.0 C 6179.0,6505.0 6170.0,6516.0 6170.0,6553.0 C 6170.0,6586.0 6154.0,6588.0 6093.0,6563.0 C 6049.0,6545.0 6035.0,6520.0 6069.0,6520.0 C 6095.0,6520.0 6098.0,6506.0 6091.0,6422.0 C 6082.0,6326.0 6059.0,6309.0 5992.0,6350.0 C 5961.0,6369.0 5959.0,6373.0 5965.0,6413.0 C 5976.0,6483.0 5949.0,6563.0 5897.0,6618.0 C 5865.0,6653.0 5851.0,6677.0 5846.0,6709.0 C 5841.0,6745.0 5837.0,6751.0 5822.0,6744.0 C 5813.0,6739.0 5744.0,6736.0 5670.0,6735.0 L 5535.0,6735.0 L 5488.0,6701.0 C 5449.0,6673.0 5440.0,6661.0 5440.0,6636.0 C 5440.0,6600.0 5418.0,6563.0 5374.0,6526.0 C 5327.0,6487.0 5242.0,6489.0 5157.0,6531.0 C 5083.0,6568.0 5040.0,6606.0 5040.0,6634.0 C 5040.0,6646.0 5029.0,6678.0 5017.0,6705.0 C 5004.0,6733.0 4990.0,6771.0 4986.0,6790.0 C 4983.0,6809.0 4969.0,6840.0 4955.0,6860.0 C 4925.0,6904.0 4931.0,6940.0 4971.0,6964.0 C 5005.0,6984.0 5006.0,6990.0 4980.0,7013.0 C 4969.0,7022.0 4960.0,7039.0 4960.0,7050.0 C 4960.0,7060.0 4947.0,7084.0 4931.0,7102.0 C 4916.0,7120.0 4897.0,7153.0 4890.0,7175.0 C 4883.0,7197.0 4872.0,7222.0 4865.0,7230.0 C 4858.0,7238.0 4849.0,7259.0 4846.0,7276.0 C 4842.0,7293.0 4825.0,7320.0 4809.0,7336.0 C 4759.0,7383.0 4735.0,7440.0 4765.0,7440.0 C 4773.0,7440.0 4791.0,7457.0 4804.0,7478.0 C 4817.0,7498.0 4836.0,7523.0 4846.0,7532.0 C 4915.0,7593.0 4919.0,7599.0 4925.0,7644.0 C 4931.0,7680.0 4929.0,7695.0 4916.0,7709.0 C 4893.0,7735.0 4896.0,7767.0 4929.0,7835.0 C 4971.0,7919.0 4991.0,7939.0 5058.0,7959.0 C 5090.0,7969.0 5136.0,7991.0 5160.0,8009.0 C 5211.0,8046.0 5220.0,8038.0 5191.0,7981.0 C 5145.0,7891.0 5177.0,7886.0 5253.0,7971.0 C 5300.0,8023.0 5309.0,8038.0 5312.0,8078.0 C 5321.0,8175.0 5361.0,8297.0 5402.0,8348.0 C 5450.0,8407.0 5499.0,8525.0 5506.0,8595.0 C 5512.0,8652.0 5510.0,8661.0 5486.0,8696.0 C 5472.0,8717.0 5460.0,8743.0 5460.0,8753.0 C 5460.0,8783.0 5410.0,8840.0 5384.0,8840.0 C 5344.0,8840.0 5291.0,8933.0 5279.0,9025.0 C 5275.0,9058.0 5268.0,9098.0 5264.0,9113.0 C 5261.0,9129.0 5262.0,9158.0 5268.0,9178.0 C 5274.0,9199.0 5283.0,9249.0 5289.0,9290.0 C 5298.0,9349.0 5307.0,9371.0 5329.0,9395.0 C 5394.0,9464.0 5399.0,9493.0 5358.0,9552.0 C 5348.0,9567.0 5333.0,9595.0 5325.0,9614.0 C 5301.0,9671.0 5260.0,9659.0 5260.0,9596.0 C 5260.0,9564.0 5190.0,9500.0 5144.0,9489.0 C 5079.0,9474.0 5042.0,9479.0 4982.0,9509.0 C 4951.0,9524.0 4894.0,9548.0 4855.0,9560.0 C 4817.0,9573.0 4742.0,9610.0 4690.0,9643.0 L 4595.0,9702.0 L 4510.0,9705.0 C 4463.0,9706.0 4409.0,9710.0 4390.0,9714.0 C 4358.0,9721.0 4352.0,9718.0 4310.0,9676.0" fill="pink"/>
	<path d="M 5124.0,7205.0 C 5112.0,7197.0 5100.0,7193.0 5098.0,7196.0 C 5095.0,7198.0 5087.0,7194.0 5081.0,7186.0 C 5066.0,7168.0 5086.0,7115.0 5119.0,7086.0 C 5133.0,7073.0 5140.0,7055.0 5140.0,7030.0 C 5140.0,6996.0 5152.0,6980.0 5177.0,6980.0 C 5180.0,6980.0 5180.0,7004.0 5177.0,7033.0 C 5175.0,7061.0 5177.0,7109.0 5183.0,7138.0 C 5194.0,7187.0 5193.0,7193.0 5175.0,7206.0 C 5152.0,7223.0 5149.0,7223.0 5124.0,7205.0" fill="pink"/>
	<path d="M 6688.0,6598.0 C 6673.0,6587.0 6673.0,6574.0 6681.0,6494.0 L 6691.0,6402.0 L 6655.0,6331.0 C 6636.0,6291.0 6622.0,6255.0 6625.0,6250.0 C 6633.0,6237.0 6676.0,6237.0 6700.0,6250.0 C 6713.0,6257.0 6728.0,6257.0 6746.0,6249.0 C 6762.0,6244.0 6791.0,6242.0 6812.0,6245.0 C 6845.0,6251.0 6852.0,6257.0 6870.0,6297.0 C 6881.0,6322.0 6890.0,6361.0 6890.0,6383.0 C 6890.0,6417.0 6883.0,6431.0 6840.0,6476.0 C 6813.0,6505.0 6790.0,6537.0 6790.0,6548.0 C 6790.0,6572.0 6750.0,6610.0 6724.0,6610.0 C 6713.0,6610.0 6697.0,6604.0 6688.0,6598.0" fill="pink"/>
	<path d="M 5106.0,6194.0 C 5103.0,6185.0 5100.0,6171.0 5100.0,6161.0 C 5100.0,6152.0 5087.0,6131.0 5070.0,6115.0 C 5054.0,6099.0 5040.0,6083.0 5040.0,6078.0 C 5040.0,6074.0 5069.0,6051.0 5104.0,6028.0 C 5142.0,6002.0 5171.0,5975.0 5178.0,5958.0 C 5184.0,5943.0 5192.0,5930.0 5197.0,5930.0 C 5201.0,5930.0 5222.0,5945.0 5242.0,5964.0 C 5310.0,6027.0 5315.0,6123.0 5250.0,6136.0 C 5227.0,6141.0 5220.0,6148.0 5220.0,6166.0 C 5220.0,6192.0 5209.0,6196.0 5179.0,6180.0 C 5163.0,6171.0 5160.0,6173.0 5160.0,6190.0 C 5160.0,6215.0 5115.0,6218.0 5106.0,6194.0" fill="pink"/>
	<path d="M 4407.0,6140.0 C 4376.0,6115.0 4310.0,6114.0 4190.0,6135.0 C 4056.0,6159.0 4058.0,6159.0 4040.0,6082.0 C 4031.0,6047.0 4036.0,6044.0 4105.0,6038.0 C 4129.0,6036.0 4136.0,6030.0 4138.0,6010.0 C 4140.0,5991.0 4164.0,5968.0 4230.0,5920.0 C 4278.0,5884.0 4321.0,5846.0 4324.0,5835.0 C 4327.0,5824.0 4335.0,5775.0 4342.0,5726.0 L 4354.0,5637.0 L 4412.0,5582.0 C 4460.0,5536.0 4470.0,5521.0 4470.0,5494.0 C 4470.0,5450.0 4547.0,5347.0 4590.0,5331.0 C 4607.0,5326.0 4624.0,5310.0 4629.0,5297.0 C 4634.0,5284.0 4652.0,5267.0 4670.0,5260.0 C 4698.0,5249.0 4703.0,5249.0 4723.0,5268.0 C 4735.0,5279.0 4761.0,5292.0 4780.0,5297.0 C 4809.0,5305.0 4817.0,5313.0 4827.0,5346.0 C 4833.0,5367.0 4839.0,5399.0 4839.0,5417.0 C 4840.0,5437.0 4851.0,5462.0 4869.0,5482.0 C 4884.0,5500.0 4903.0,5525.0 4909.0,5538.0 C 4924.0,5567.0 4914.0,5619.0 4889.0,5643.0 C 4862.0,5669.0 4863.0,5773.0 4890.0,5818.0 C 4919.0,5865.0 4916.0,5898.0 4883.0,5911.0 C 4815.0,5938.0 4792.0,5954.0 4777.0,5985.0 C 4756.0,6029.0 4670.0,6080.0 4617.0,6080.0 C 4580.0,6080.0 4521.0,6104.0 4468.0,6141.0 C 4436.0,6164.0 4438.0,6164.0 4407.0,6140.0" fill="pink"/>
	<path d="M 5864.0,5895.0 C 5856.0,5874.0 5866.0,5863.0 5898.0,5857.0 C 5918.0,5853.0 5939.0,5835.0 5962.0,5803.0 C 6003.0,5746.0 6055.0,5714.0 6093.0,5724.0 C 6128.0,5732.0 6127.0,5744.0 6088.0,5772.0 C 6070.0,5784.0 6030.0,5820.0 6000.0,5852.0 C 5952.0,5903.0 5940.0,5910.0 5907.0,5910.0 C 5883.0,5910.0 5867.0,5905.0 5864.0,5895.0" fill="pink"/>
	<path d="M 6331.0,5624.0 L 6296.0,5609.0 L 6333.0,5572.0 C 6353.0,5552.0 6378.0,5514.0 6389.0,5488.0 C 6406.0,5448.0 6433.0,5420.0 6454.0,5420.0 C 6457.0,5420.0 6460.0,5438.0 6460.0,5460.0 C 6460.0,5488.0 6455.0,5502.0 6441.0,5510.0 C 6430.0,5515.0 6413.0,5545.0 6403.0,5577.0 C 6392.0,5608.0 6380.0,5635.0 6374.0,5636.0 C 6369.0,5638.0 6350.0,5632.0 6331.0,5624.0" fill="pink"/>
	<path d="M 7203.0,5563.0 C 7199.0,5553.0 7192.0,5542.0 7188.0,5539.0 C 7176.0,5531.0 6893.0,5536.0 6858.0,5545.0 C 6844.0,5549.0 6822.0,5547.0 6810.0,5540.0 C 6788.0,5528.0 6788.0,5528.0 6808.0,5507.0 C 6837.0,5475.0 6857.0,5430.0 6863.0,5381.0 C 6871.0,5314.0 6948.0,5247.0 7046.0,5221.0 C 7078.0,5212.0 7090.0,5203.0 7104.0,5173.0 C 7135.0,5108.0 7180.0,5060.0 7239.0,5031.0 C 7270.0,5016.0 7302.0,5005.0 7310.0,5007.0 C 7323.0,5010.0 7325.0,5000.0 7320.0,4946.0 C 7315.0,4889.0 7310.0,4876.0 7281.0,4846.0 L 7248.0,4812.0 L 7279.0,4796.0 C 7296.0,4787.0 7314.0,4771.0 7320.0,4760.0 C 7326.0,4749.0 7351.0,4716.0 7376.0,4687.0 C 7484.0,4560.0 7496.0,4555.0 7647.0,4563.0 L 7760.0,4569.0 L 7822.0,4530.0 C 7855.0,4508.0 7892.0,4490.0 7904.0,4490.0 C 7920.0,4490.0 7909.0,4504.0 7857.0,4554.0 C 7820.0,4589.0 7790.0,4623.0 7790.0,4628.0 C 7790.0,4634.0 7780.0,4640.0 7768.0,4642.0 C 7751.0,4644.0 7746.0,4651.0 7748.0,4665.0 C 7764.0,4758.0 7765.0,4751.0 7721.0,4789.0 L 7679.0,4825.0 L 7663.0,4950.0 C 7648.0,5068.0 7645.0,5112.0 7650.0,5170.0 C 7651.0,5184.0 7648.0,5223.0 7644.0,5258.0 C 7638.0,5315.0 7634.0,5324.0 7597.0,5355.0 C 7575.0,5374.0 7553.0,5390.0 7548.0,5390.0 C 7544.0,5390.0 7540.0,5405.0 7540.0,5424.0 C 7540.0,5449.0 7530.0,5469.0 7503.0,5499.0 C 7468.0,5538.0 7459.0,5542.0 7400.0,5550.0 C 7364.0,5554.0 7322.0,5563.0 7307.0,5569.0 C 7263.0,5586.0 7210.0,5583.0 7203.0,5563.0" fill="pink"/>
	<path d="M 5253.0,5526.0 C 5225.0,5508.0 5221.0,5499.0 5220.0,5462.0 C 5220.0,5438.0 5212.0,5405.0 5203.0,5389.0 C 5188.0,5364.0 5187.0,5354.0 5198.0,5315.0 C 5205.0,5290.0 5210.0,5257.0 5210.0,5242.0 C 5210.0,5225.0 5220.0,5204.0 5234.0,5191.0 L 5258.0,5168.0 L 5265.0,5257.0 C 5269.0,5305.0 5279.0,5379.0 5288.0,5420.0 C 5315.0,5550.0 5310.0,5565.0 5253.0,5526.0" fill="pink"/>
	<path d="M 6110.0,5530.0 C 6089.0,5517.0 6094.0,5311.0 6116.0,5294.0 C 6124.0,5288.0 6130.0,5279.0 6130.0,5274.0 C 6130.0,5266.0 6099.0,5216.0 6057.0,5157.0 C 6040.0,5133.0 6040.0,5129.0 6055.0,5101.0 C 6063.0,5084.0 6072.0,5070.0 6075.0,5070.0 C 6089.0,5070.0 6172.0,5173.0 6191.0,5213.0 C 6211.0,5254.0 6217.0,5260.0 6245.0,5260.0 C 6268.0,5260.0 6285.0,5250.0 6311.0,5224.0 C 6356.0,5176.0 6476.0,5096.0 6642.0,5002.0 L 6699.0,4969.0 L 6691.0,4997.0 C 6686.0,5013.0 6673.0,5044.0 6661.0,5067.0 C 6650.0,5090.0 6640.0,5120.0 6640.0,5133.0 C 6640.0,5146.0 6628.0,5167.0 6614.0,5181.0 C 6600.0,5194.0 6581.0,5222.0 6573.0,5243.0 C 6561.0,5273.0 6546.0,5287.0 6500.0,5310.0 C 6468.0,5326.0 6431.0,5353.0 6417.0,5370.0 C 6402.0,5387.0 6354.0,5420.0 6309.0,5444.0 L 6227.0,5488.0 L 6189.0,5464.0 C 6151.0,5440.0 6151.0,5440.0 6140.0,5461.0 C 6134.0,5472.0 6132.0,5494.0 6135.0,5511.0 C 6142.0,5541.0 6135.0,5546.0 6110.0,5530.0" fill="pink"/>
	<path d="M 5536.0,5451.0 C 5517.0,5430.0 5517.0,5429.0 5540.0,5405.0 C 5553.0,5391.0 5568.0,5380.0 5574.0,5380.0 C 5580.0,5380.0 5602.0,5369.0 5622.0,5355.0 C 5665.0,5326.0 5685.0,5324.0 5698.0,5346.0 C 5710.0,5368.0 5702.0,5402.0 5677.0,5434.0 C 5646.0,5472.0 5564.0,5482.0 5536.0,5451.0" fill="pink"/>
	<path d="M 3732.0,5277.0 L 3710.0,5254.0 L 3735.0,5230.0 C 3749.0,5217.0 3760.0,5197.0 3760.0,5186.0 C 3760.0,5174.0 3777.0,5145.0 3798.0,5121.0 C 3836.0,5077.0 3837.0,5077.0 3860.0,5093.0 C 3886.0,5111.0 3925.0,5116.0 3934.0,5101.0 C 3952.0,5072.0 4070.0,5085.0 4070.0,5116.0 C 4070.0,5124.0 4052.0,5149.0 4030.0,5171.0 C 3997.0,5205.0 3981.0,5213.0 3943.0,5218.0 C 3912.0,5221.0 3876.0,5236.0 3836.0,5262.0 C 3804.0,5283.0 3772.0,5300.0 3765.0,5300.0 C 3759.0,5300.0 3744.0,5290.0 3732.0,5277.0" fill="pink"/>
	<path d="M 3712.0,5073.0 C 3732.0,5028.0 3782.0,4940.0 3790.0,4935.0 C 3795.0,4932.0 3797.0,4910.0 3793.0,4883.0 L 3787.0,4837.0 L 3819.0,4856.0 C 3859.0,4879.0 3866.0,4892.0 3875.0,4951.0 C 3882.0,4996.0 3881.0,4997.0 3853.0,5003.0 C 3836.0,5006.0 3804.0,5025.0 3781.0,5044.0 C 3743.0,5076.0 3703.0,5092.0 3712.0,5073.0" fill="pink"/>
	<path d="M 5182.0,5058.0 C 5177.0,5051.0 5169.0,5024.0 5165.0,4999.0 C 5158.0,4953.0 5159.0,4952.0 5210.0,4904.0 L 5262.0,4856.0 L 5255.0,4709.0 C 5250.0,4606.0 5251.0,4536.0 5261.0,4475.0 L 5274.0,4387.0 L 5242.0,4361.0 C 5195.0,4322.0 5188.0,4292.0 5202.0,4194.0 C 5211.0,4128.0 5211.0,4097.0 5202.0,4053.0 C 5196.0,4022.0 5192.0,3995.0 5194.0,3992.0 C 5197.0,3990.0 5212.0,3991.0 5229.0,3995.0 C 5253.0,4000.0 5258.0,4006.0 5257.0,4027.0 C 5255.0,4048.0 5267.0,4063.0 5313.0,4101.0 C 5377.0,4153.0 5438.0,4178.0 5580.0,4209.0 C 5704.0,4237.0 5765.0,4275.0 5781.0,4333.0 C 5796.0,4393.0 5876.0,4471.0 5956.0,4505.0 C 5999.0,4523.0 6020.0,4538.0 6020.0,4549.0 C 6020.0,4618.0 6044.0,4789.0 6057.0,4808.0 C 6065.0,4821.0 6069.0,4834.0 6065.0,4838.0 C 6054.0,4849.0 5966.0,4819.0 5920.0,4789.0 L 5875.0,4759.0 L 5872.0,4784.0 C 5870.0,4801.0 5855.0,4819.0 5832.0,4835.0 C 5789.0,4865.0 5773.0,4866.0 5747.0,4843.0 C 5733.0,4830.0 5711.0,4825.0 5665.0,4825.0 C 5610.0,4825.0 5597.0,4829.0 5573.0,4851.0 C 5541.0,4881.0 5416.0,4953.0 5320.0,4997.0 C 5284.0,5014.0 5246.0,5037.0 5236.0,5048.0 C 5214.0,5073.0 5197.0,5076.0 5182.0,5058.0" fill="pink"/>
	<path d="M 6915.0,4911.0 C 6899.0,4859.0 6956.0,4792.0 7006.0,4804.0 C 7028.0,4810.0 7031.0,4815.0 7028.0,4848.0 C 7026.0,4877.0 7018.0,4889.0 6991.0,4907.0 C 6950.0,4935.0 6923.0,4936.0 6915.0,4911.0" fill="pink"/>
	<path d="M 6843.0,4803.0 C 6846.0,4793.0 6853.0,4763.0 6860.0,4735.0 C 6867.0,4708.0 6881.0,4664.0 6892.0,4638.0 C 6907.0,4605.0 6911.0,4582.0 6906.0,4556.0 C 6899.0,4519.0 6924.0,4405.0 6942.0,4394.0 C 6947.0,4391.0 6964.0,4385.0 6980.0,4380.0 C 7009.0,4372.0 7011.0,4373.0 7036.0,4421.0 L 7061.0,4471.0 L 7106.0,4438.0 C 7165.0,4396.0 7164.0,4398.0 7192.0,4299.0 L 7217.0,4213.0 L 7193.0,4186.0 C 7166.0,4154.0 7165.0,4138.0 7185.0,4080.0 C 7193.0,4057.0 7200.0,4005.0 7200.0,3966.0 C 7200.0,3876.0 7217.0,3846.0 7264.0,3853.0 C 7289.0,3857.0 7300.0,3852.0 7321.0,3827.0 C 7336.0,3809.0 7351.0,3800.0 7358.0,3804.0 C 7377.0,3815.0 7372.0,3882.0 7350.0,3915.0 C 7325.0,3953.0 7325.0,3961.0 7351.0,3994.0 L 7372.0,4021.0 L 7397.0,3986.0 C 7425.0,3944.0 7457.0,3939.0 7507.0,3970.0 L 7540.0,3990.0 L 7518.0,4042.0 C 7507.0,4071.0 7489.0,4123.0 7479.0,4158.0 C 7466.0,4205.0 7449.0,4235.0 7411.0,4277.0 C 7357.0,4338.0 7355.0,4344.0 7345.0,4480.0 C 7337.0,4596.0 7314.0,4689.0 7285.0,4725.0 C 7263.0,4753.0 7261.0,4754.0 7248.0,4737.0 C 7240.0,4727.0 7203.0,4710.0 7165.0,4699.0 C 7054.0,4668.0 7010.0,4676.0 7010.0,4725.0 C 7010.0,4756.0 6991.0,4771.0 6967.0,4759.0 C 6951.0,4750.0 6943.0,4754.0 6918.0,4784.0 C 6898.0,4808.0 6880.0,4820.0 6863.0,4820.0 C 6844.0,4820.0 6839.0,4816.0 6843.0,4803.0" fill="pink"/>
	<path d="M 3648.0,4712.0 C 3597.0,4681.0 3616.0,4667.0 3694.0,4676.0 C 3744.0,4682.0 3750.0,4685.0 3750.0,4706.0 C 3750.0,4727.0 3745.0,4730.0 3713.0,4730.0 C 3692.0,4730.0 3663.0,4722.0 3648.0,4712.0" fill="pink"/>
	<path d="M 3430.0,4645.0 C 3430.0,4627.0 3425.0,4620.0 3410.0,4620.0 C 3387.0,4620.0 3372.0,4562.0 3388.0,4535.0 C 3399.0,4515.0 3383.0,4460.0 3363.0,4447.0 C 3339.0,4432.0 3350.0,4391.0 3396.0,4325.0 C 3434.0,4271.0 3441.0,4254.0 3435.0,4232.0 L 3428.0,4205.0 L 3407.0,4231.0 C 3395.0,4245.0 3377.0,4260.0 3368.0,4263.0 C 3359.0,4266.0 3346.0,4287.0 3339.0,4309.0 C 3328.0,4346.0 3313.0,4359.0 3298.0,4345.0 C 3293.0,4339.0 3318.0,4246.0 3344.0,4175.0 L 3358.0,4135.0 L 3311.0,4085.0 C 3286.0,4058.0 3255.0,4022.0 3242.0,4006.0 C 3224.0,3983.0 3217.0,3980.0 3206.0,3989.0 C 3181.0,4010.0 3115.0,3957.0 3086.0,3894.0 C 3069.0,3856.0 3050.0,3833.0 3025.0,3819.0 C 3003.0,3805.0 2991.0,3792.0 2994.0,3784.0 C 2997.0,3776.0 3002.0,3764.0 3005.0,3758.0 C 3008.0,3751.0 3006.0,3738.0 3000.0,3730.0 C 2993.0,3718.0 2988.0,3718.0 2978.0,3728.0 C 2956.0,3750.0 2943.0,3741.0 2901.0,3676.0 C 2876.0,3638.0 2804.0,3560.0 2724.0,3484.0 C 2635.0,3401.0 2581.0,3341.0 2565.0,3310.0 C 2552.0,3285.0 2534.0,3258.0 2526.0,3251.0 C 2517.0,3243.0 2510.0,3227.0 2510.0,3214.0 C 2510.0,3191.0 2507.0,3190.0 2447.0,3190.0 C 2391.0,3190.0 2380.0,3187.0 2359.0,3164.0 C 2346.0,3150.0 2325.0,3134.0 2313.0,3129.0 C 2301.0,3125.0 2282.0,3104.0 2272.0,3084.0 C 2260.0,3062.0 2241.0,3043.0 2223.0,3036.0 C 2193.0,3025.0 1974.0,2796.0 1927.0,2725.0 C 1910.0,2701.0 1900.0,2672.0 1900.0,2650.0 C 1900.0,2631.0 1891.0,2600.0 1880.0,2582.0 C 1859.0,2549.0 1854.0,2520.0 1868.0,2520.0 C 1872.0,2520.0 1896.0,2540.0 1920.0,2565.0 C 1960.0,2605.0 1969.0,2610.0 2010.0,2610.0 C 2065.0,2610.0 2101.0,2641.0 2123.0,2705.0 C 2136.0,2742.0 2146.0,2750.0 2259.0,2812.0 C 2407.0,2893.0 2434.0,2915.0 2482.0,2994.0 C 2530.0,3072.0 2542.0,3080.0 2608.0,3080.0 C 2660.0,3080.0 2663.0,3082.0 2720.0,3138.0 C 2752.0,3170.0 2789.0,3204.0 2802.0,3212.0 C 2816.0,3221.0 2843.0,3259.0 2863.0,3297.0 C 2884.0,3338.0 2910.0,3372.0 2927.0,3382.0 C 2955.0,3398.0 2956.0,3401.0 2952.0,3462.0 C 2948.0,3517.0 2949.0,3523.0 2962.0,3512.0 C 2976.0,3501.0 2979.0,3507.0 2985.0,3555.0 C 2991.0,3609.0 2993.0,3611.0 3052.0,3652.0 C 3090.0,3677.0 3138.0,3699.0 3179.0,3709.0 L 3245.0,3726.0 L 3290.0,3812.0 C 3356.0,3939.0 3376.0,3956.0 3461.0,3962.0 C 3536.0,3968.0 3555.0,3979.0 3585.0,4033.0 C 3602.0,4066.0 3602.0,4066.0 3571.0,4117.0 C 3550.0,4151.0 3540.0,4180.0 3540.0,4206.0 C 3540.0,4231.0 3531.0,4258.0 3515.0,4282.0 C 3488.0,4322.0 3484.0,4357.0 3502.0,4406.0 C 3510.0,4429.0 3510.0,4449.0 3502.0,4481.0 C 3493.0,4516.0 3494.0,4529.0 3507.0,4550.0 C 3522.0,4576.0 3521.0,4580.0 3495.0,4624.0 C 3464.0,4676.0 3430.0,4688.0 3430.0,4645.0" fill="pink"/>
	<path d="M 6634.0,4653.0 C 6630.0,4643.0 6617.0,4610.0 6603.0,4580.0 C 6588.0,4547.0 6576.0,4497.0 6573.0,4455.0 C 6569.0,4396.0 6560.0,4370.0 6518.0,4290.0 C 6490.0,4238.0 6445.0,4139.0 6416.0,4070.0 C 6388.0,4001.0 6329.0,3887.0 6286.0,3815.0 C 6186.0,3651.0 6165.0,3564.0 6186.0,3406.0 L 6193.0,3359.0 L 6231.0,3396.0 C 6262.0,3426.0 6270.0,3441.0 6270.0,3470.0 C 6270.0,3496.0 6281.0,3523.0 6310.0,3563.0 C 6337.0,3602.0 6361.0,3657.0 6386.0,3737.0 C 6433.0,3887.0 6482.0,3956.0 6567.0,3991.0 C 6605.0,4006.0 6631.0,4025.0 6650.0,4051.0 L 6677.0,4089.0 L 6663.0,4177.0 C 6651.0,4253.0 6651.0,4272.0 6665.0,4332.0 C 6673.0,4369.0 6680.0,4436.0 6680.0,4482.0 C 6681.0,4528.0 6685.0,4585.0 6690.0,4610.0 C 6694.0,4635.0 6698.0,4655.0 6697.0,4656.0 C 6696.0,4657.0 6683.0,4660.0 6667.0,4664.0 C 6646.0,4669.0 6638.0,4666.0 6634.0,4653.0" fill="pink"/>
	<path d="M 6075.0,4399.0 C 6047.0,4389.0 6008.0,4381.0 5988.0,4380.0 C 5961.0,4380.0 5944.0,4373.0 5925.0,4353.0 C 5901.0,4328.0 5899.0,4319.0 5904.0,4271.0 C 5909.0,4219.0 5908.0,4217.0 5864.0,4170.0 C 5840.0,4144.0 5820.0,4114.0 5820.0,4104.0 C 5820.0,4093.0 5829.0,4054.0 5840.0,4016.0 C 5850.0,3978.0 5862.0,3921.0 5866.0,3890.0 C 5872.0,3839.0 5869.0,3827.0 5851.0,3801.0 C 5837.0,3781.0 5820.0,3770.0 5805.0,3770.0 C 5789.0,3770.0 5775.0,3760.0 5764.0,3741.0 C 5749.0,3715.0 5738.0,3711.0 5673.0,3701.0 C 5632.0,3695.0 5588.0,3690.0 5575.0,3690.0 C 5556.0,3690.0 5549.0,3683.0 5541.0,3653.0 C 5535.0,3632.0 5530.0,3592.0 5530.0,3564.0 C 5530.0,3514.0 5532.0,3511.0 5621.0,3409.0 C 5686.0,3334.0 5719.0,3304.0 5738.0,3302.0 C 5794.0,3295.0 5844.0,3245.0 5901.0,3141.0 C 5925.0,3096.0 5943.0,3074.0 5957.0,3072.0 C 6021.0,3063.0 6130.0,3128.0 6130.0,3176.0 C 6130.0,3189.0 6139.0,3214.0 6150.0,3232.0 C 6187.0,3292.0 6170.0,3342.0 6088.0,3418.0 L 6045.0,3459.0 L 6063.0,3508.0 C 6073.0,3539.0 6080.0,3587.0 6080.0,3636.0 C 6080.0,3722.0 6090.0,3750.0 6154.0,3854.0 C 6181.0,3899.0 6190.0,3925.0 6190.0,3957.0 C 6190.0,4002.0 6208.0,4047.0 6233.0,4069.0 C 6242.0,4075.0 6266.0,4127.0 6288.0,4183.0 C 6364.0,4377.0 6355.0,4405.0 6210.0,4412.0 C 6145.0,4415.0 6112.0,4412.0 6075.0,4399.0" fill="pink"/>
	<path d="M 5651.0,4178.0 C 5591.0,4105.0 5583.0,4082.0 5602.0,4043.0 C 5614.0,4019.0 5621.0,4015.0 5650.0,4018.0 C 5686.0,4020.0 5720.0,4050.0 5720.0,4078.0 C 5720.0,4087.0 5730.0,4114.0 5741.0,4138.0 C 5758.0,4172.0 5761.0,4189.0 5754.0,4209.0 C 5737.0,4256.0 5708.0,4247.0 5651.0,4178.0" fill="pink"/>
	<path d="M 7782.0,4077.0 C 7746.0,4060.0 7722.0,4003.0 7719.0,3924.0 C 7716.0,3869.0 7719.0,3849.0 7732.0,3837.0 C 7740.0,3828.0 7751.0,3799.0 7755.0,3773.0 C 7763.0,3715.0 7784.0,3680.0 7809.0,3680.0 C 7835.0,3680.0 7840.0,3699.0 7840.0,3794.0 C 7840.0,3864.0 7837.0,3880.0 7820.0,3895.0 C 7797.0,3916.0 7794.0,3957.0 7815.0,3984.0 C 7830.0,4004.0 7835.0,4047.0 7824.0,4074.0 C 7817.0,4092.0 7813.0,4093.0 7782.0,4077.0" fill="pink"/>
	<path d="M 6795.0,3866.0 C 6784.0,3859.0 6759.0,3848.0 6739.0,3841.0 C 6707.0,3831.0 6702.0,3824.0 6696.0,3791.0 C 6688.0,3737.0 6662.0,3710.0 6584.0,3670.0 C 6546.0,3651.0 6513.0,3634.0 6511.0,3633.0 C 6509.0,3631.0 6515.0,3610.0 6525.0,3585.0 C 6543.0,3536.0 6540.0,3526.0 6495.0,3488.0 L 6475.0,3470.0 L 6497.0,3470.0 C 6509.0,3470.0 6531.0,3475.0 6547.0,3481.0 C 6562.0,3487.0 6646.0,3492.0 6732.0,3493.0 L 6889.0,3495.0 L 6937.0,3541.0 C 6970.0,3574.0 6997.0,3590.0 7023.0,3594.0 C 7058.0,3601.0 7061.0,3604.0 7054.0,3623.0 C 7050.0,3635.0 7045.0,3673.0 7044.0,3708.0 C 7042.0,3786.0 7029.0,3803.0 6980.0,3795.0 C 6945.0,3789.0 6942.0,3791.0 6930.0,3821.0 C 6909.0,3870.0 6836.0,3895.0 6795.0,3866.0" fill="pink"/>
	<path d="M 7470.0,3845.0 C 7470.0,3811.0 7496.0,3773.0 7532.0,3754.0 C 7570.0,3734.0 7576.0,3741.0 7562.0,3788.0 C 7549.0,3830.0 7528.0,3854.0 7493.0,3864.0 C 7473.0,3870.0 7470.0,3868.0 7470.0,3845.0" fill="pink"/>
	<path d="M 8083.0,3783.0 C 8045.0,3747.0 8020.0,3712.0 8020.0,3693.0 C 8020.0,3679.0 8128.0,3610.0 8153.0,3607.0 C 8171.0,3605.0 8176.0,3611.0 8178.0,3638.0 C 8180.0,3662.0 8177.0,3670.0 8166.0,3670.0 C 8146.0,3670.0 8146.0,3674.0 8165.0,3710.0 C 8179.0,3737.0 8179.0,3743.0 8166.0,3768.0 C 8138.0,3822.0 8127.0,3824.0 8083.0,3783.0" fill="pink"/>
	<path d="M 7642.0,3654.0 C 7620.0,3639.0 7619.0,3633.0 7626.0,3572.0 C 7630.0,3531.0 7645.0,3479.0 7667.0,3432.0 C 7710.0,3338.0 7740.0,3229.0 7740.0,3169.0 C 7740.0,3134.0 7735.0,3118.0 7717.0,3102.0 C 7674.0,3062.0 7583.0,3079.0 7547.0,3133.0 C 7536.0,3150.0 7519.0,3159.0 7496.0,3162.0 L 7460.0,3166.0 L 7460.0,3124.0 C 7460.0,3052.0 7448.0,2990.0 7434.0,2990.0 C 7404.0,2990.0 7371.0,3014.0 7351.0,3051.0 C 7332.0,3085.0 7324.0,3090.0 7293.0,3090.0 C 7244.0,3090.0 7180.0,3070.0 7180.0,3054.0 C 7180.0,3047.0 7185.0,3029.0 7192.0,3015.0 C 7201.0,2996.0 7200.0,2981.0 7190.0,2949.0 C 7178.0,2914.0 7178.0,2899.0 7191.0,2850.0 C 7209.0,2781.0 7200.0,2755.0 7158.0,2746.0 C 7094.0,2733.0 7054.0,2739.0 7030.0,2765.0 C 7001.0,2796.0 6960.0,2797.0 6932.0,2768.0 C 6921.0,2755.0 6897.0,2714.0 6880.0,2675.0 C 6850.0,2609.0 6849.0,2603.0 6864.0,2573.0 L 6879.0,2542.0 L 6792.0,2530.0 C 6657.0,2512.0 6651.0,2511.0 6644.0,2487.0 C 6641.0,2472.0 6620.0,2457.0 6583.0,2441.0 C 6552.0,2427.0 6513.0,2401.0 6497.0,2383.0 C 6480.0,2365.0 6463.0,2350.0 6458.0,2350.0 C 6439.0,2350.0 6453.0,2380.0 6486.0,2410.0 C 6518.0,2438.0 6525.0,2452.0 6544.0,2538.0 L 6567.0,2635.0 L 6546.0,2697.0 C 6525.0,2764.0 6504.0,2781.0 6445.0,2779.0 C 6405.0,2778.0 6344.0,2793.0 6290.0,2818.0 C 6239.0,2842.0 6230.0,2839.0 6229.0,2802.0 C 6229.0,2782.0 6217.0,2766.0 6180.0,2738.0 C 6136.0,2704.0 6124.0,2700.0 6073.0,2700.0 C 6008.0,2700.0 5950.0,2673.0 5950.0,2643.0 C 5949.0,2633.0 5943.0,2607.0 5935.0,2586.0 C 5925.0,2557.0 5924.0,2541.0 5932.0,2526.0 C 5949.0,2495.0 5906.0,2465.0 5823.0,2450.0 C 5786.0,2443.0 5693.0,2413.0 5618.0,2383.0 C 5543.0,2354.0 5468.0,2327.0 5451.0,2324.0 C 5430.0,2319.0 5409.0,2302.0 5381.0,2265.0 L 5342.0,2213.0 L 5362.0,2130.0 C 5385.0,2041.0 5386.0,2046.0 5334.0,2015.0 C 5322.0,2007.0 5316.0,1987.0 5312.0,1945.0 C 5309.0,1912.0 5301.0,1876.0 5294.0,1865.0 C 5286.0,1854.0 5280.0,1838.0 5280.0,1829.0 C 5280.0,1820.0 5266.0,1807.0 5249.0,1800.0 C 5208.0,1783.0 5196.0,1748.0 5210.0,1690.0 C 5229.0,1615.0 5254.0,1593.0 5337.0,1580.0 C 5377.0,1574.0 5414.0,1571.0 5419.0,1574.0 C 5424.0,1577.0 5431.0,1596.0 5435.0,1617.0 C 5439.0,1637.0 5450.0,1671.0 5461.0,1692.0 C 5471.0,1712.0 5480.0,1745.0 5480.0,1763.0 C 5480.0,1782.0 5487.0,1803.0 5495.0,1810.0 C 5503.0,1817.0 5517.0,1847.0 5526.0,1876.0 C 5538.0,1920.0 5549.0,1936.0 5586.0,1962.0 C 5621.0,1987.0 5630.0,1999.0 5630.0,2023.0 C 5630.0,2044.0 5624.0,2053.0 5609.0,2057.0 C 5589.0,2063.0 5589.0,2063.0 5611.0,2086.0 C 5623.0,2099.0 5639.0,2110.0 5645.0,2110.0 C 5651.0,2110.0 5667.0,2121.0 5679.0,2134.0 C 5704.0,2160.0 5773.0,2174.0 5802.0,2159.0 C 5816.0,2151.0 5820.0,2137.0 5820.0,2091.0 C 5820.0,2037.0 5823.0,2029.0 5850.0,2006.0 C 5876.0,1984.0 5884.0,1982.0 5906.0,1992.0 C 5924.0,2001.0 5933.0,2001.0 5942.0,1992.0 C 5950.0,1984.0 5961.0,1987.0 5982.0,2005.0 C 5998.0,2019.0 6016.0,2030.0 6021.0,2030.0 C 6026.0,2030.0 6030.0,2043.0 6030.0,2058.0 C 6030.0,2085.0 6064.0,2130.0 6075.0,2118.0 C 6078.0,2116.0 6083.0,2100.0 6086.0,2083.0 C 6091.0,2057.0 6088.0,2051.0 6070.0,2045.0 C 6050.0,2039.0 6050.0,2037.0 6065.0,2020.0 C 6078.0,2005.0 6092.0,2003.0 6133.0,2007.0 L 6185.0,2011.0 L 6203.0,1971.0 C 6213.0,1949.0 6235.0,1921.0 6251.0,1909.0 C 6280.0,1889.0 6282.0,1889.0 6301.0,1905.0 C 6327.0,1930.0 6326.0,1935.0 6280.0,1987.0 L 6240.0,2033.0 L 6275.0,2071.0 C 6294.0,2093.0 6310.0,2112.0 6310.0,2115.0 C 6310.0,2118.0 6303.0,2137.0 6295.0,2157.0 C 6268.0,2221.0 6270.0,2223.0 6363.0,2215.0 C 6431.0,2209.0 6451.0,2203.0 6480.0,2180.0 C 6521.0,2147.0 6602.0,2109.0 6684.0,2084.0 C 6737.0,2068.0 6747.0,2059.0 6789.0,2003.0 C 6826.0,1952.0 6840.0,1941.0 6864.0,1940.0 C 6890.0,1940.0 6892.0,1938.0 6885.0,1913.0 C 6882.0,1897.0 6847.0,1843.0 6808.0,1792.0 C 6770.0,1740.0 6732.0,1683.0 6724.0,1665.0 C 6717.0,1646.0 6706.0,1629.0 6700.0,1625.0 C 6694.0,1621.0 6683.0,1602.0 6674.0,1582.0 L 6659.0,1545.0 L 6697.0,1513.0 L 6736.0,1481.0 L 6726.0,1406.0 L 6717.0,1331.0 L 6758.0,1263.0 C 6780.0,1226.0 6827.0,1168.0 6862.0,1134.0 C 6923.0,1075.0 6932.0,1070.0 7143.0,987.0 C 7403.0,884.0 7440.0,878.0 7496.0,934.0 C 7519.0,957.0 7530.0,977.0 7530.0,997.0 C 7530.0,1035.0 7570.0,1061.0 7595.0,1040.0 C 7625.0,1015.0 7631.0,993.0 7615.0,963.0 C 7607.0,948.0 7600.0,931.0 7600.0,927.0 C 7600.0,922.0 7590.0,910.0 7578.0,901.0 C 7551.0,878.0 7558.0,849.0 7604.0,788.0 C 7624.0,762.0 7640.0,729.0 7642.0,709.0 C 7647.0,654.0 7674.0,659.0 7747.0,732.0 C 7791.0,776.0 7814.0,807.0 7821.0,835.0 C 7827.0,857.0 7849.0,893.0 7870.0,916.0 C 7895.0,943.0 7911.0,973.0 7920.0,1009.0 C 7933.0,1064.0 7931.0,1081.0 7898.0,1232.0 L 7877.0,1330.0 L 7815.0,1369.0 C 7748.0,1410.0 7707.0,1458.0 7696.0,1504.0 C 7684.0,1554.0 7776.0,1709.0 7818.0,1710.0 C 7846.0,1710.0 7880.0,1758.0 7880.0,1797.0 C 7880.0,1831.0 7887.0,1843.0 7935.0,1890.0 L 7990.0,1944.0 L 7990.0,1903.0 C 7990.0,1867.0 7995.0,1858.0 8035.0,1826.0 C 8060.0,1805.0 8080.0,1781.0 8080.0,1772.0 C 8080.0,1763.0 8089.0,1723.0 8101.0,1684.0 C 8118.0,1628.0 8128.0,1610.0 8151.0,1596.0 C 8179.0,1579.0 8180.0,1576.0 8180.0,1501.0 C 8180.0,1407.0 8201.0,1338.0 8246.0,1288.0 C 8276.0,1254.0 8279.0,1253.0 8284.0,1273.0 C 8287.0,1285.0 8290.0,1352.0 8290.0,1421.0 C 8290.0,1520.0 8287.0,1550.0 8275.0,1560.0 C 8259.0,1573.0 8244.0,1637.0 8254.0,1647.0 C 8257.0,1651.0 8276.0,1635.0 8296.0,1612.0 C 8346.0,1553.0 8367.0,1557.0 8360.0,1625.0 C 8359.0,1636.0 8354.0,1649.0 8349.0,1654.0 C 8334.0,1671.0 8339.0,1680.0 8364.0,1680.0 C 8400.0,1680.0 8435.0,1714.0 8455.0,1767.0 C 8465.0,1793.0 8490.0,1841.0 8512.0,1872.0 C 8559.0,1942.0 8563.0,1993.0 8525.0,2038.0 C 8503.0,2064.0 8500.0,2077.0 8500.0,2147.0 L 8500.0,2227.0 L 8461.0,2245.0 C 8439.0,2254.0 8407.0,2277.0 8390.0,2295.0 L 8358.0,2328.0 L 8379.0,2392.0 C 8391.0,2427.0 8404.0,2483.0 8407.0,2518.0 L 8413.0,2580.0 L 8376.0,2580.0 C 8331.0,2580.0 8320.0,2601.0 8344.0,2640.0 C 8364.0,2676.0 8364.0,2695.0 8343.0,2732.0 C 8319.0,2772.0 8265.0,2803.0 8210.0,2810.0 C 8159.0,2816.0 8142.0,2843.0 8182.0,2856.0 C 8195.0,2860.0 8226.0,2884.0 8251.0,2910.0 C 8276.0,2936.0 8303.0,2959.0 8310.0,2962.0 C 8320.0,2965.0 8306.0,2997.0 8260.0,3076.0 C 8206.0,3168.0 8195.0,3194.0 8192.0,3243.0 C 8188.0,3297.0 8186.0,3300.0 8161.0,3300.0 C 8147.0,3301.0 8123.0,3306.0 8108.0,3313.0 C 8075.0,3328.0 8030.0,3392.0 8030.0,3425.0 C 8030.0,3444.0 8017.0,3456.0 7967.0,3485.0 C 7932.0,3504.0 7898.0,3520.0 7892.0,3520.0 C 7887.0,3520.0 7837.0,3554.0 7782.0,3595.0 C 7727.0,3636.0 7678.0,3670.0 7673.0,3670.0 C 7668.0,3670.0 7654.0,3663.0 7642.0,3654.0" fill="pink"/>
	<path d="M 7143.0,3248.0 C 7137.0,3241.0 7129.0,3219.0 7125.0,3199.0 C 7119.0,3168.0 7122.0,3160.0 7141.0,3146.0 C 7189.0,3113.0 7230.0,3134.0 7230.0,3192.0 C 7230.0,3205.0 7224.0,3224.0 7218.0,3233.0 C 7200.0,3255.0 7156.0,3264.0 7143.0,3248.0" fill="pink"/>
	<path d="M 6347.0,3205.0 C 6320.0,3172.0 6319.0,3170.0 6336.0,3145.0 C 6349.0,3126.0 6361.0,3120.0 6390.0,3120.0 C 6411.0,3120.0 6437.0,3128.0 6449.0,3138.0 L 6471.0,3155.0 L 6429.0,3198.0 C 6406.0,3221.0 6385.0,3240.0 6381.0,3239.0 C 6378.0,3239.0 6362.0,3223.0 6347.0,3205.0" fill="pink"/>
	<path d="M 1940.0,2469.0 C 1931.0,2453.0 1931.0,2445.0 1939.0,2437.0 C 1951.0,2425.0 1970.0,2443.0 1970.0,2467.0 C 1970.0,2489.0 1951.0,2491.0 1940.0,2469.0" fill="pink"/>
	<path d="M 1724.0,2310.0 C 1675.0,2291.0 1692.0,2209.0 1747.0,2195.0 C 1777.0,2188.0 1773.0,2185.0 1787.0,2233.0 C 1807.0,2300.0 1780.0,2333.0 1724.0,2310.0" fill="pink"/>
	<path d="M 5247.0,1440.0 C 5221.0,1424.0 5187.0,1410.0 5171.0,1410.0 C 5156.0,1410.0 5136.0,1402.0 5127.0,1392.0 C 5111.0,1375.0 5113.0,1372.0 5156.0,1336.0 L 5201.0,1298.0 L 5154.0,1248.0 C 5113.0,1204.0 5109.0,1196.0 5122.0,1183.0 C 5136.0,1170.0 5151.0,1175.0 5258.0,1227.0 C 5341.0,1267.0 5383.0,1293.0 5394.0,1312.0 C 5406.0,1331.0 5425.0,1343.0 5456.0,1351.0 C 5519.0,1367.0 5512.0,1386.0 5438.0,1399.0 C 5388.0,1408.0 5371.0,1415.0 5352.0,1440.0 C 5323.0,1478.0 5306.0,1478.0 5247.0,1440.0" fill="pink"/>
	<path d="M 4546.0,953.0 C 4512.0,928.0 4509.0,922.0 4514.0,891.0 C 4520.0,849.0 4520.0,850.0 4571.0,839.0 C 4603.0,831.0 4624.0,833.0 4662.0,846.0 C 4697.0,857.0 4727.0,860.0 4762.0,856.0 C 4790.0,852.0 4826.0,854.0 4844.0,860.0 C 4872.0,869.0 4876.0,874.0 4872.0,899.0 C 4868.0,931.0 4861.0,934.0 4767.0,946.0 C 4732.0,950.0 4706.0,958.0 4703.0,966.0 C 4700.0,976.0 4680.0,980.0 4641.0,980.0 C 4596.0,980.0 4577.0,975.0 4546.0,953.0" fill="pink"/>
	<path d="M 3893.0,414.0 C 3828.0,382.0 3730.0,297.0 3730.0,272.0 C 3730.0,254.0 3872.0,298.0 3899.0,324.0 C 3919.0,344.0 3937.0,350.0 3968.0,350.0 C 4017.0,350.0 4027.0,364.0 4013.0,413.0 C 4001.0,456.0 3980.0,456.0 3893.0,414.0" fill="pink"/>
	<path d="M 3493.0,83.0 C 3493.0,45.0 3498.0,12.0 3504.0,8.0 C 3527.0,-8.0 3538.0,2.0 3544.0,46.0 C 3548.0,80.0 3546.0,99.0 3533.0,121.0 C 3505.0,169.0 3492.0,157.0 3493.0,83.0" fill="pink"/>
</svg>
