<?xml version="1.0" ?>
<svg xmlns="http://www.w3.org/2000/svg" xmlns:ev="http://www.w3.org/2001/xml-events" xmlns:xlink="http://www.w3.org/1999/xlink" baseProfile="full" height="569px" version="1.1" viewBox="-1026.7641342155237 -704.1170511201383 12291.156790572131 11638.234102240276" width="600px">
	<defs/>
	<path d="M 8631.0,9919.0 C 8604.0,9886.0 8593.0,9880.0 8574.0,9884.0 C 8558.0,9888.0 8530.0,9880.0 8490.0,9860.0 C 8457.0,9844.0 8417.0,9830.0 8401.0,9830.0 C 8380.0,9830.0 8366.0,9823.0 8355.0,9806.0 C 8330.0,9769.0 8301.0,9768.0 8194.0,9801.0 C 8099.0,9831.0 8091.0,9832.0 7990.0,9825.0 C 7932.0,9820.0 7840.0,9816.0 7785.0,9815.0 C 7730.0,9814.0 7665.0,9808.0 7640.0,9802.0 C 7615.0,9797.0 7543.0,9789.0 7480.0,9785.0 C 7417.0,9781.0 7356.0,9772.0 7345.0,9765.0 C 7334.0,9758.0 7290.0,9742.0 7248.0,9731.0 C 7205.0,9719.0 7162.0,9703.0 7153.0,9695.0 C 7072.0,9626.0 7051.0,9610.0 7039.0,9610.0 C 7031.0,9610.0 7001.0,9594.0 6973.0,9575.0 C 6944.0,9556.0 6917.0,9540.0 6912.0,9540.0 C 6907.0,9540.0 6895.0,9531.0 6886.0,9521.0 C 6870.0,9503.0 6870.0,9501.0 6886.0,9492.0 C 6895.0,9487.0 6900.0,9478.0 6896.0,9472.0 C 6887.0,9457.0 6847.0,9471.0 6827.0,9497.0 C 6805.0,9524.0 6782.0,9527.0 6772.0,9503.0 C 6754.0,9462.0 6725.0,9423.0 6694.0,9400.0 C 6676.0,9386.0 6656.0,9365.0 6649.0,9353.0 C 6642.0,9340.0 6633.0,9330.0 6628.0,9330.0 C 6616.0,9330.0 6518.0,9251.0 6502.0,9229.0 C 6491.0,9213.0 6493.0,9207.0 6522.0,9181.0 C 6540.0,9164.0 6565.0,9150.0 6578.0,9150.0 C 6594.0,9150.0 6600.0,9144.0 6600.0,9129.0 C 6600.0,9117.0 6610.0,9100.0 6623.0,9090.0 C 6636.0,9080.0 6655.0,9055.0 6665.0,9033.0 C 6676.0,9012.0 6692.0,8990.0 6700.0,8983.0 C 6713.0,8973.0 6713.0,8967.0 6701.0,8935.0 C 6694.0,8915.0 6690.0,8897.0 6692.0,8896.0 C 6693.0,8894.0 6709.0,8885.0 6726.0,8877.0 C 6754.0,8863.0 6758.0,8855.0 6763.0,8808.0 C 6767.0,8767.0 6764.0,8748.0 6749.0,8724.0 C 6722.0,8680.0 6725.0,8659.0 6761.0,8629.0 L 6793.0,8603.0 L 6752.0,8558.0 C 6717.0,8520.0 6710.0,8506.0 6710.0,8471.0 C 6710.0,8432.0 6707.0,8428.0 6672.0,8412.0 C 6610.0,8384.0 6561.0,8340.0 6540.0,8294.0 C 6528.0,8265.0 6515.0,8250.0 6503.0,8250.0 C 6471.0,8250.0 6441.0,8222.0 6438.0,8187.0 C 6436.0,8161.0 6430.0,8154.0 6409.0,8152.0 C 6388.0,8150.0 6381.0,8142.0 6376.0,8118.0 C 6369.0,8083.0 6401.0,8026.0 6448.0,7989.0 C 6472.0,7971.0 6472.0,7969.0 6455.0,7944.0 C 6443.0,7926.0 6440.0,7908.0 6445.0,7880.0 C 6450.0,7850.0 6447.0,7835.0 6428.0,7807.0 C 6391.0,7749.0 6256.0,7698.0 6149.0,7701.0 C 6124.0,7702.0 6090.0,7696.0 6074.0,7687.0 C 6048.0,7673.0 6042.0,7674.0 6015.0,7688.0 C 5999.0,7696.0 5953.0,7706.0 5913.0,7710.0 C 5874.0,7714.0 5823.0,7726.0 5800.0,7738.0 C 5763.0,7756.0 5754.0,7757.0 5722.0,7746.0 C 5679.0,7731.0 5662.0,7688.0 5680.0,7636.0 C 5693.0,7596.0 5765.0,7526.0 5805.0,7513.0 C 5824.0,7507.0 5836.0,7496.0 5838.0,7482.0 C 5840.0,7470.0 5846.0,7460.0 5851.0,7460.0 C 5857.0,7460.0 5860.0,7442.0 5859.0,7420.0 C 5856.0,7387.0 5861.0,7375.0 5887.0,7348.0 C 5938.0,7295.0 5948.0,7220.0 5905.0,7220.0 C 5899.0,7220.0 5876.0,7207.0 5854.0,7190.0 C 5833.0,7174.0 5810.0,7160.0 5804.0,7160.0 C 5798.0,7160.0 5783.0,7148.0 5769.0,7134.0 C 5731.0,7093.0 5712.0,7087.0 5601.0,7084.0 C 5508.0,7081.0 5492.0,7078.0 5457.0,7054.0 C 5420.0,7030.0 5418.0,7026.0 5423.0,6987.0 C 5425.0,6964.0 5431.0,6935.0 5435.0,6924.0 C 5440.0,6907.0 5437.0,6901.0 5418.0,6896.0 C 5405.0,6893.0 5387.0,6879.0 5377.0,6865.0 C 5360.0,6842.0 5360.0,6839.0 5376.0,6815.0 C 5390.0,6794.0 5391.0,6780.0 5384.0,6742.0 C 5376.0,6700.0 5371.0,6694.0 5340.0,6684.0 C 5318.0,6677.0 5297.0,6659.0 5282.0,6635.0 C 5261.0,6602.0 5260.0,6594.0 5271.0,6571.0 C 5278.0,6557.0 5287.0,6489.0 5291.0,6420.0 C 5295.0,6351.0 5301.0,6279.0 5305.0,6260.0 C 5311.0,6227.0 5309.0,6223.0 5262.0,6187.0 C 5228.0,6161.0 5208.0,6136.0 5196.0,6106.0 C 5181.0,6066.0 5173.0,6059.0 5110.0,6031.0 C 5071.0,6014.0 5029.0,6000.0 5016.0,6000.0 C 4981.0,6000.0 4943.0,6035.0 4936.0,6075.0 C 4930.0,6103.0 4925.0,6110.0 4906.0,6110.0 C 4893.0,6110.0 4871.0,6119.0 4856.0,6131.0 L 4830.0,6151.0 L 4798.0,6127.0 C 4768.0,6105.0 4759.0,6104.0 4702.0,6109.0 C 4658.0,6114.0 4634.0,6122.0 4619.0,6137.0 L 4598.0,6158.0 L 4524.0,6083.0 C 4459.0,6016.0 4447.0,6008.0 4424.0,6014.0 C 4401.0,6020.0 4389.0,6014.0 4346.0,5971.0 C 4295.0,5921.0 4294.0,5920.0 4256.0,5931.0 C 4235.0,5937.0 4216.0,5940.0 4214.0,5937.0 C 4212.0,5935.0 4216.0,5911.0 4222.0,5883.0 L 4234.0,5833.0 L 4267.0,5847.0 C 4312.0,5865.0 4350.0,5855.0 4350.0,5824.0 C 4350.0,5807.0 4344.0,5800.0 4331.0,5800.0 C 4321.0,5800.0 4302.0,5792.0 4289.0,5781.0 C 4238.0,5742.0 4137.0,5718.0 4028.0,5720.0 C 3881.0,5723.0 3867.0,5726.0 3874.0,5756.0 C 3881.0,5780.0 3880.0,5781.0 3828.0,5774.0 C 3788.0,5769.0 3767.0,5760.0 3740.0,5735.0 C 3721.0,5717.0 3697.0,5700.0 3687.0,5697.0 C 3677.0,5693.0 3661.0,5670.0 3650.0,5644.0 C 3614.0,5562.0 3595.0,5543.0 3534.0,5529.0 C 3469.0,5514.0 3474.0,5523.0 3429.0,5345.0 L 3396.0,5220.0 L 3419.0,5196.0 C 3440.0,5174.0 3441.0,5166.0 3435.0,5108.0 C 3431.0,5073.0 3417.0,5014.0 3404.0,4976.0 C 3372.0,4884.0 3373.0,4871.0 3417.0,4833.0 L 3455.0,4801.0 L 3425.0,4772.0 C 3399.0,4746.0 3338.0,4724.0 3002.0,4621.0 C 2695.0,4526.0 2605.0,4502.0 2590.0,4510.0 C 2565.0,4524.0 2294.0,4523.0 2229.0,4509.0 C 2200.0,4503.0 2156.0,4487.0 2130.0,4474.0 C 2103.0,4461.0 2077.0,4450.0 2072.0,4450.0 C 2066.0,4450.0 2058.0,4434.0 2054.0,4415.0 C 2047.0,4376.0 2043.0,4374.0 2015.0,4394.0 C 2004.0,4401.0 1934.0,4422.0 1860.0,4439.0 L 1725.0,4471.0 L 1355.0,4429.0 L 985.0,4388.0 L 497.0,4554.0 C 228.0,4645.0 6.0,4720.0 3.0,4720.0 C -13.0,4720.0 130.0,4538.0 214.0,4453.0 C 309.0,4355.0 314.0,4348.0 311.0,4312.0 C 310.0,4286.0 314.0,4269.0 325.0,4260.0 C 334.0,4253.0 338.0,4239.0 335.0,4229.0 C 331.0,4216.0 337.0,4207.0 359.0,4196.0 C 382.0,4184.0 390.0,4171.0 395.0,4139.0 C 404.0,4087.0 547.0,3872.0 604.0,3827.0 C 660.0,3782.0 756.0,3741.0 853.0,3722.0 C 932.0,3705.0 936.0,3703.0 1004.0,3636.0 L 1074.0,3567.0 L 1134.0,3578.0 C 1167.0,3584.0 1196.0,3588.0 1198.0,3586.0 C 1200.0,3583.0 1197.0,3544.0 1191.0,3498.0 C 1183.0,3431.0 1184.0,3411.0 1195.0,3393.0 C 1204.0,3380.0 1215.0,3309.0 1224.0,3202.0 C 1236.0,3055.0 1236.0,3024.0 1223.0,2970.0 C 1215.0,2935.0 1211.0,2901.0 1214.0,2895.0 C 1216.0,2888.0 1212.0,2874.0 1205.0,2863.0 C 1182.0,2834.0 1186.0,2810.0 1214.0,2810.0 C 1226.0,2810.0 1251.0,2805.0 1268.0,2799.0 C 1291.0,2791.0 1309.0,2792.0 1345.0,2804.0 C 1416.0,2829.0 1469.0,2825.0 1502.0,2793.0 C 1528.0,2768.0 1529.0,2765.0 1513.0,2748.0 C 1493.0,2725.0 1482.0,2614.0 1499.0,2597.0 C 1515.0,2581.0 1513.0,2573.0 1487.0,2566.0 C 1468.0,2562.0 1463.0,2550.0 1453.0,2485.0 C 1446.0,2443.0 1438.0,2405.0 1435.0,2399.0 C 1426.0,2385.0 1378.0,2388.0 1329.0,2406.0 C 1276.0,2425.0 1202.0,2419.0 1157.0,2392.0 C 1139.0,2381.0 1093.0,2367.0 1053.0,2361.0 C 1014.0,2354.0 973.0,2342.0 963.0,2335.0 C 953.0,2327.0 935.0,2320.0 922.0,2320.0 C 910.0,2320.0 897.0,2313.0 895.0,2305.0 C 892.0,2297.0 887.0,2282.0 884.0,2273.0 C 880.0,2263.0 878.0,2242.0 879.0,2226.0 C 882.0,2195.0 885.0,2196.0 813.0,2216.0 C 796.0,2221.0 791.0,2217.0 785.0,2192.0 C 781.0,2170.0 772.0,2161.0 752.0,2157.0 C 737.0,2154.0 697.0,2142.0 664.0,2130.0 L 602.0,2108.0 L 585.0,2016.0 C 576.0,1966.0 566.0,1900.0 563.0,1870.0 C 557.0,1809.0 546.0,1790.0 519.0,1790.0 C 505.0,1790.0 500.0,1783.0 500.0,1762.0 C 500.0,1747.0 505.0,1729.0 512.0,1722.0 C 520.0,1714.0 520.0,1707.0 513.0,1698.0 C 507.0,1691.0 497.0,1630.0 491.0,1562.0 C 482.0,1461.0 475.0,1432.0 455.0,1400.0 L 431.0,1361.0 L 458.0,1356.0 C 473.0,1353.0 502.0,1348.0 522.0,1344.0 C 564.0,1337.0 567.0,1330.0 544.0,1295.0 C 521.0,1260.0 532.0,1240.0 574.0,1240.0 C 599.0,1240.0 610.0,1245.0 615.0,1259.0 C 621.0,1278.0 663.0,1290.0 733.0,1290.0 C 772.0,1290.0 778.0,1298.0 758.0,1318.0 C 738.0,1338.0 765.0,1353.0 831.0,1358.0 L 892.0,1363.0 L 888.0,1321.0 C 885.0,1282.0 886.0,1280.0 912.0,1280.0 C 941.0,1280.0 957.0,1294.0 940.0,1305.0 C 920.0,1317.0 931.0,1332.0 970.0,1347.0 C 992.0,1356.0 1007.0,1366.0 1005.0,1370.0 C 991.0,1392.0 1177.0,1396.0 1280.0,1376.0 C 1334.0,1366.0 1351.0,1366.0 1380.0,1378.0 C 1403.0,1387.0 1430.0,1390.0 1460.0,1386.0 C 1485.0,1382.0 1525.0,1378.0 1550.0,1376.0 C 1575.0,1375.0 1605.0,1368.0 1618.0,1361.0 C 1631.0,1354.0 1648.0,1351.0 1656.0,1354.0 C 1668.0,1358.0 1667.0,1365.0 1650.0,1392.0 C 1639.0,1410.0 1630.0,1428.0 1630.0,1432.0 C 1630.0,1463.0 1825.0,1495.0 1856.0,1469.0 C 1866.0,1461.0 1909.0,1452.0 1959.0,1449.0 C 2071.0,1441.0 2171.0,1422.0 2190.0,1406.0 C 2198.0,1398.0 2220.0,1389.0 2238.0,1385.0 C 2263.0,1380.0 2270.0,1382.0 2270.0,1394.0 C 2270.0,1403.0 2278.0,1410.0 2288.0,1410.0 C 2314.0,1410.0 2350.0,1381.0 2350.0,1360.0 C 2350.0,1335.0 2365.0,1327.0 2397.0,1335.0 C 2420.0,1341.0 2421.0,1342.0 2406.0,1359.0 C 2386.0,1381.0 2386.0,1394.0 2406.0,1415.0 C 2420.0,1429.0 2444.0,1431.0 2562.0,1429.0 C 2701.0,1427.0 2702.0,1427.0 2726.0,1453.0 C 2758.0,1488.0 2830.0,1493.0 2953.0,1469.0 C 3006.0,1458.0 3015.0,1459.0 3073.0,1483.0 C 3130.0,1508.0 3176.0,1516.0 3380.0,1539.0 C 3453.0,1548.0 3456.0,1547.0 3491.0,1519.0 C 3520.0,1496.0 3529.0,1493.0 3533.0,1505.0 C 3537.0,1513.0 3535.0,1522.0 3529.0,1526.0 C 3524.0,1529.0 3522.0,1540.0 3525.0,1551.0 C 3530.0,1566.0 3526.0,1570.0 3508.0,1570.0 C 3495.0,1570.0 3474.0,1579.0 3460.0,1590.0 C 3428.0,1615.0 3405.0,1615.0 3388.0,1591.0 C 3375.0,1572.0 3293.0,1549.0 3302.0,1566.0 C 3327.0,1622.0 3336.0,1631.0 3374.0,1641.0 C 3434.0,1657.0 3485.0,1645.0 3526.0,1605.0 C 3544.0,1586.0 3560.0,1567.0 3560.0,1562.0 C 3560.0,1557.0 3569.0,1545.0 3579.0,1536.0 C 3595.0,1521.0 3597.0,1513.0 3589.0,1492.0 C 3580.0,1469.0 3584.0,1461.0 3631.0,1414.0 C 3687.0,1357.0 3686.0,1361.0 3661.0,1250.0 C 3656.0,1225.0 3651.0,1186.0 3650.0,1163.0 C 3650.0,1140.0 3646.0,1118.0 3640.0,1115.0 C 3614.0,1099.0 3636.0,1092.0 3706.0,1094.0 C 3755.0,1095.0 3788.0,1091.0 3800.0,1083.0 C 3812.0,1074.0 3820.0,1074.0 3822.0,1081.0 C 3824.0,1087.0 3837.0,1082.0 3853.0,1070.0 C 3870.0,1056.0 3887.0,1051.0 3900.0,1055.0 C 3935.0,1066.0 3959.0,1051.0 3966.0,1013.0 C 3971.0,986.0 3969.0,975.0 3956.0,968.0 C 3932.0,955.0 3937.0,940.0 3965.0,940.0 C 3992.0,940.0 3998.0,922.0 3978.0,902.0 C 3969.0,893.0 3969.0,890.0 3979.0,890.0 C 3987.0,890.0 3990.0,884.0 3986.0,874.0 C 3979.0,857.0 4001.0,810.0 4025.0,790.0 C 4037.0,780.0 4039.0,766.0 4034.0,731.0 C 4027.0,677.0 4055.0,583.0 4096.0,523.0 C 4110.0,502.0 4124.0,473.0 4127.0,458.0 C 4134.0,425.0 4143.0,416.0 4193.0,400.0 C 4218.0,392.0 4235.0,379.0 4240.0,364.0 C 4253.0,331.0 4275.0,324.0 4305.0,344.0 C 4324.0,356.0 4335.0,358.0 4349.0,350.0 C 4377.0,336.0 4378.0,337.0 4382.0,371.0 L 4385.0,403.0 L 4428.0,366.0 C 4494.0,311.0 4506.0,318.0 4500.0,405.0 C 4498.0,442.0 4511.0,429.0 4529.0,377.0 C 4540.0,344.0 4539.0,336.0 4526.0,314.0 C 4510.0,291.0 4510.0,289.0 4535.0,280.0 C 4550.0,274.0 4566.0,270.0 4571.0,270.0 C 4587.0,270.0 4620.0,334.0 4620.0,366.0 C 4620.0,396.0 4645.0,430.0 4667.0,430.0 C 4673.0,430.0 4680.0,440.0 4683.0,451.0 C 4688.0,469.0 4694.0,472.0 4723.0,466.0 C 4763.0,459.0 4950.0,456.0 4957.0,463.0 C 4959.0,466.0 4964.0,518.0 4967.0,579.0 C 4973.0,686.0 4983.0,719.0 5001.0,689.0 C 5005.0,681.0 5015.0,666.0 5024.0,655.0 C 5038.0,635.0 5039.0,636.0 5049.0,663.0 C 5061.0,694.0 5068.0,696.0 5085.0,673.0 C 5095.0,660.0 5103.0,658.0 5126.0,667.0 C 5142.0,673.0 5220.0,678.0 5299.0,679.0 C 5378.0,680.0 5450.0,685.0 5459.0,689.0 C 5471.0,696.0 5486.0,687.0 5522.0,654.0 L 5569.0,610.0 L 5662.0,610.0 C 5713.0,610.0 5761.0,614.0 5768.0,618.0 C 5774.0,623.0 5791.0,641.0 5805.0,660.0 C 5827.0,690.0 5846.0,699.0 5962.0,737.0 C 6035.0,760.0 6097.0,780.0 6100.0,780.0 C 6103.0,780.0 6105.0,757.0 6106.0,730.0 C 6106.0,702.0 6112.0,674.0 6119.0,667.0 C 6126.0,660.0 6167.0,653.0 6217.0,651.0 C 6301.0,648.0 6303.0,648.0 6297.0,669.0 C 6293.0,686.0 6300.0,696.0 6328.0,714.0 C 6348.0,728.0 6379.0,741.0 6397.0,745.0 C 6452.0,756.0 6467.0,800.0 6416.0,800.0 C 6384.0,800.0 6367.0,841.0 6376.0,897.0 C 6380.0,925.0 6389.0,944.0 6402.0,951.0 C 6429.0,965.0 6421.0,994.0 6360.0,1100.0 C 6333.0,1147.0 6305.0,1213.0 6297.0,1247.0 C 6288.0,1285.0 6270.0,1326.0 6247.0,1358.0 C 6226.0,1385.0 6210.0,1416.0 6210.0,1427.0 C 6210.0,1438.0 6199.0,1457.0 6185.0,1470.0 C 6161.0,1492.0 6160.0,1499.0 6160.0,1607.0 C 6160.0,1718.0 6160.0,1720.0 6136.0,1726.0 C 6123.0,1729.0 6103.0,1727.0 6092.0,1721.0 C 6080.0,1715.0 6037.0,1710.0 5995.0,1710.0 C 5925.0,1710.0 5919.0,1712.0 5911.0,1733.0 C 5906.0,1746.0 5884.0,1782.0 5863.0,1812.0 C 5813.0,1883.0 5791.0,1968.0 5809.0,2013.0 C 5857.0,2128.0 5862.0,2154.0 5856.0,2237.0 C 5849.0,2333.0 5845.0,2344.0 5816.0,2364.0 C 5798.0,2375.0 5779.0,2376.0 5729.0,2370.0 C 5667.0,2362.0 5662.0,2364.0 5563.0,2407.0 C 5507.0,2432.0 5455.0,2459.0 5446.0,2468.0 C 5436.0,2479.0 5431.0,2510.0 5429.0,2560.0 C 5428.0,2628.0 5431.0,2642.0 5464.0,2712.0 C 5501.0,2790.0 5541.0,2840.0 5697.0,3000.0 C 5756.0,3062.0 5776.0,3091.0 5805.0,3158.0 C 5824.0,3204.0 5840.0,3248.0 5840.0,3255.0 C 5840.0,3262.0 5855.0,3278.0 5874.0,3290.0 C 5893.0,3301.0 5917.0,3326.0 5928.0,3345.0 C 5952.0,3384.0 5992.0,3399.0 6058.0,3392.0 C 6092.0,3389.0 6106.0,3381.0 6129.0,3353.0 C 6145.0,3333.0 6163.0,3299.0 6169.0,3276.0 C 6184.0,3221.0 6220.0,3180.0 6261.0,3171.0 C 6287.0,3165.0 6306.0,3169.0 6345.0,3188.0 C 6499.0,3264.0 6540.0,3277.0 6666.0,3284.0 C 6763.0,3289.0 6800.0,3296.0 6859.0,3318.0 L 6933.0,3347.0 L 6951.0,3420.0 C 6969.0,3491.0 6973.0,3497.0 7053.0,3575.0 L 7135.0,3655.0 L 7169.0,3768.0 C 7199.0,3866.0 7208.0,3885.0 7242.0,3915.0 C 7263.0,3934.0 7287.0,3950.0 7296.0,3950.0 C 7305.0,3950.0 7333.0,3965.0 7359.0,3984.0 C 7384.0,4003.0 7449.0,4040.0 7503.0,4066.0 C 7595.0,4112.0 7601.0,4117.0 7611.0,4155.0 C 7617.0,4177.0 7637.0,4211.0 7655.0,4230.0 C 7674.0,4249.0 7716.0,4317.0 7749.0,4381.0 C 7804.0,4485.0 7813.0,4512.0 7839.0,4639.0 C 7855.0,4717.0 7869.0,4782.0 7871.0,4784.0 C 7873.0,4786.0 7930.0,4806.0 7996.0,4829.0 C 8111.0,4869.0 8121.0,4875.0 8179.0,4934.0 C 8237.0,4992.0 8240.0,4998.0 8230.0,5024.0 C 8225.0,5039.0 8209.0,5066.0 8196.0,5083.0 L 8171.0,5115.0 L 8223.0,5161.0 C 8252.0,5187.0 8285.0,5210.0 8298.0,5214.0 C 8311.0,5219.0 8320.0,5230.0 8321.0,5243.0 C 8321.0,5257.0 8339.0,5278.0 8370.0,5303.0 C 8399.0,5324.0 8430.0,5360.0 8444.0,5388.0 C 8467.0,5432.0 8509.0,5480.0 8592.0,5557.0 C 8619.0,5582.0 8629.0,5586.0 8644.0,5578.0 C 8672.0,5562.0 8697.0,5591.0 8683.0,5623.0 C 8674.0,5642.0 8666.0,5646.0 8641.0,5642.0 C 8594.0,5635.0 8591.0,5669.0 8630.0,5785.0 C 8649.0,5841.0 8660.0,5893.0 8657.0,5908.0 C 8655.0,5923.0 8636.0,5973.0 8616.0,6020.0 L 8580.0,6105.0 L 8647.0,6167.0 C 8685.0,6202.0 8723.0,6230.0 8733.0,6230.0 C 8743.0,6230.0 8770.0,6251.0 8793.0,6276.0 C 8833.0,6319.0 8837.0,6321.0 8862.0,6310.0 C 8884.0,6299.0 8896.0,6300.0 8930.0,6314.0 C 8952.0,6323.0 8981.0,6330.0 8994.0,6330.0 C 9007.0,6330.0 9020.0,6337.0 9023.0,6345.0 C 9027.0,6353.0 9047.0,6368.0 9069.0,6379.0 C 9128.0,6410.0 9133.0,6446.0 9085.0,6516.0 C 9052.0,6563.0 9043.0,6570.0 9014.0,6570.0 C 8988.0,6570.0 8977.0,6576.0 8963.0,6600.0 C 8944.0,6633.0 8897.0,6642.0 8886.0,6614.0 C 8881.0,6600.0 8878.0,6600.0 8858.0,6614.0 C 8843.0,6625.0 8813.0,6630.0 8770.0,6630.0 L 8704.0,6630.0 L 8688.0,6679.0 C 8677.0,6714.0 8675.0,6731.0 8683.0,6739.0 C 8690.0,6746.0 8690.0,6757.0 8681.0,6774.0 C 8670.0,6794.0 8670.0,6802.0 8684.0,6821.0 C 8693.0,6834.0 8700.0,6850.0 8700.0,6857.0 C 8700.0,6880.0 8670.0,6871.0 8658.0,6845.0 C 8649.0,6826.0 8639.0,6820.0 8613.0,6820.0 C 8584.0,6820.0 8577.0,6826.0 8550.0,6874.0 C 8526.0,6916.0 8513.0,6929.0 8488.0,6934.0 L 8457.0,6940.0 L 8478.0,6963.0 L 8500.0,6987.0 L 8479.0,7006.0 C 8467.0,7016.0 8439.0,7029.0 8416.0,7035.0 C 8384.0,7043.0 8371.0,7053.0 8356.0,7080.0 C 8346.0,7099.0 8324.0,7122.0 8307.0,7130.0 C 8264.0,7151.0 8264.0,7162.0 8310.0,7188.0 C 8404.0,7242.0 8401.0,7364.0 8303.0,7405.0 C 8276.0,7416.0 8270.0,7425.0 8265.0,7464.0 C 8256.0,7523.0 8283.0,7567.0 8358.0,7616.0 C 8417.0,7654.0 8424.0,7679.0 8389.0,7724.0 C 8369.0,7750.0 8365.0,7751.0 8300.0,7744.0 C 8257.0,7740.0 8225.0,7742.0 8212.0,7749.0 L 8190.0,7760.0 L 8222.0,7824.0 L 8253.0,7887.0 L 8221.0,7933.0 C 8192.0,7976.0 8188.0,7978.0 8155.0,7973.0 C 8122.0,7968.0 8120.0,7969.0 8120.0,7994.0 C 8120.0,8013.0 8130.0,8027.0 8160.0,8046.0 C 8194.0,8069.0 8200.0,8078.0 8200.0,8107.0 C 8200.0,8131.0 8210.0,8155.0 8231.0,8182.0 C 8260.0,8218.0 8266.0,8221.0 8304.0,8218.0 C 8339.0,8216.0 8355.0,8222.0 8407.0,8258.0 C 8463.0,8296.0 8475.0,8300.0 8530.0,8300.0 C 8585.0,8300.0 8597.0,8296.0 8653.0,8258.0 C 8709.0,8219.0 8723.0,8214.0 8800.0,8206.0 C 8847.0,8202.0 8915.0,8197.0 8951.0,8196.0 C 9008.0,8195.0 9021.0,8191.0 9057.0,8162.0 C 9102.0,8126.0 9178.0,8111.0 9308.0,8110.0 C 9388.0,8110.0 9454.0,8135.0 9499.0,8184.0 C 9520.0,8206.0 9532.0,8210.0 9582.0,8210.0 C 9626.0,8210.0 9653.0,8217.0 9688.0,8235.0 C 9714.0,8249.0 9742.0,8260.0 9751.0,8260.0 C 9760.0,8260.0 9779.0,8269.0 9793.0,8280.0 L 9818.0,8300.0 L 9854.0,8279.0 C 9875.0,8267.0 9902.0,8260.0 9922.0,8262.0 C 9951.0,8265.0 9956.0,8270.0 9978.0,8328.0 C 9997.0,8377.0 10006.0,8390.0 10023.0,8390.0 C 10035.0,8390.0 10054.0,8397.0 10065.0,8406.0 C 10079.0,8416.0 10096.0,8419.0 10123.0,8415.0 C 10158.0,8409.0 10160.0,8410.0 10160.0,8435.0 C 10160.0,8449.0 10164.0,8459.0 10169.0,8456.0 C 10174.0,8453.0 10192.0,8455.0 10209.0,8461.0 C 10235.0,8470.0 10239.0,8476.0 10234.0,8494.0 C 10224.0,8527.0 10199.0,8573.0 10180.0,8595.0 C 10171.0,8606.0 10160.0,8626.0 10156.0,8640.0 C 10153.0,8654.0 10119.0,8707.0 10080.0,8758.0 C 10029.0,8826.0 10008.0,8863.0 10004.0,8893.0 C 9999.0,8926.0 9986.0,8946.0 9949.0,8982.0 C 9922.0,9008.0 9894.0,9046.0 9885.0,9065.0 C 9871.0,9100.0 9869.0,9101.0 9833.0,9094.0 C 9812.0,9090.0 9782.0,9081.0 9767.0,9073.0 C 9750.0,9065.0 9718.0,9060.0 9687.0,9062.0 C 9637.0,9065.0 9635.0,9066.0 9627.0,9102.0 C 9618.0,9141.0 9557.0,9200.0 9527.0,9200.0 C 9495.0,9200.0 9491.0,9259.0 9521.0,9286.0 C 9539.0,9302.0 9540.0,9311.0 9535.0,9370.0 C 9522.0,9495.0 9501.0,9571.0 9471.0,9605.0 C 9455.0,9624.0 9437.0,9654.0 9431.0,9673.0 C 9420.0,9706.0 9418.0,9707.0 9339.0,9718.0 L 9258.0,9730.0 L 9221.0,9700.0 L 9185.0,9670.0 L 9174.0,9737.0 C 9164.0,9794.0 9157.0,9808.0 9127.0,9837.0 C 9107.0,9855.0 9080.0,9870.0 9066.0,9870.0 C 9053.0,9870.0 9037.0,9877.0 9030.0,9885.0 C 9014.0,9904.0 8941.0,9905.0 8914.0,9886.0 C 8903.0,9878.0 8878.0,9869.0 8859.0,9865.0 C 8826.0,9859.0 8823.0,9861.0 8805.0,9894.0 C 8785.0,9931.0 8775.0,9936.0 8750.0,9920.0 C 8740.0,9914.0 8726.0,9918.0 8703.0,9936.0 C 8686.0,9949.0 8670.0,9960.0 8668.0,9960.0 C 8666.0,9960.0 8650.0,9941.0 8631.0,9919.0" fill="pink"/>
</svg>
