<?xml version="1.0" ?>
<svg xmlns="http://www.w3.org/2000/svg" xmlns:ev="http://www.w3.org/2001/xml-events" xmlns:xlink="http://www.w3.org/1999/xlink" baseProfile="full" height="462px" version="1.1" viewBox="-1022.4819370397631 393.22089158098254 12287.81756002263 9457.40731280119" width="600px">
	<defs/>
	<path d="M 3945.0,9050.0 C 3918.0,9045.0 3825.0,9025.0 3740.0,9004.0 C 3635.0,8979.0 3548.0,8965.0 3470.0,8960.0 C 3318.0,8950.0 3127.0,8889.0 3012.0,8814.0 C 2946.0,8769.0 2822.0,8713.0 2762.0,8699.0 C 2736.0,8693.0 2672.0,8685.0 2620.0,8681.0 C 2551.0,8676.0 2511.0,8667.0 2476.0,8651.0 C 2410.0,8619.0 2323.0,8535.0 2275.0,8457.0 C 2241.0,8402.0 2223.0,8385.0 2156.0,8344.0 C 2054.0,8281.0 2000.0,8262.0 1922.0,8261.0 C 1888.0,8260.0 1834.0,8251.0 1802.0,8241.0 C 1771.0,8231.0 1691.0,8212.0 1625.0,8200.0 C 1559.0,8189.0 1492.0,8174.0 1475.0,8169.0 C 1459.0,8163.0 1384.0,8148.0 1309.0,8135.0 C 1150.0,8108.0 1143.0,8107.0 1070.0,8076.0 C 979.0,8038.0 922.0,8019.0 770.0,7979.0 C 690.0,7958.0 579.0,7923.0 522.0,7901.0 C 465.0,7878.0 414.0,7860.0 408.0,7860.0 C 402.0,7860.0 376.0,7844.0 349.0,7825.0 L 301.0,7791.0 L 223.0,7800.0 C 151.0,7808.0 143.0,7807.0 123.0,7788.0 C 96.0,7763.0 93.0,7728.0 115.0,7710.0 C 124.0,7703.0 153.0,7686.0 181.0,7674.0 C 223.0,7654.0 232.0,7653.0 236.0,7665.0 C 240.0,7674.0 255.0,7680.0 274.0,7680.0 C 291.0,7680.0 316.0,7689.0 330.0,7700.0 C 363.0,7726.0 476.0,7729.0 466.0,7704.0 C 457.0,7681.0 477.0,7650.0 501.0,7650.0 C 530.0,7650.0 523.0,7606.0 494.0,7602.0 C 482.0,7600.0 464.0,7590.0 455.0,7580.0 C 440.0,7563.0 439.0,7552.0 446.0,7508.0 C 453.0,7465.0 459.0,7454.0 477.0,7452.0 C 505.0,7448.0 514.0,7422.0 495.0,7400.0 C 487.0,7391.0 480.0,7377.0 480.0,7369.0 C 479.0,7361.0 472.0,7369.0 463.0,7385.0 C 432.0,7444.0 389.0,7480.0 349.0,7480.0 C 295.0,7480.0 264.0,7494.0 244.0,7529.0 C 219.0,7572.0 200.0,7576.0 174.0,7543.0 C 139.0,7500.0 141.0,7436.0 179.0,7402.0 C 208.0,7378.0 209.0,7374.0 203.0,7316.0 C 198.0,7262.0 201.0,7250.0 222.0,7219.0 C 243.0,7187.0 276.0,7083.0 296.0,6980.0 C 300.0,6961.0 311.0,6934.0 321.0,6921.0 C 346.0,6889.0 346.0,6886.0 303.0,6834.0 C 266.0,6791.0 266.0,6788.0 269.0,6716.0 C 272.0,6633.0 259.0,6602.0 212.0,6581.0 C 197.0,6574.0 150.0,6546.0 107.0,6518.0 L 29.0,6467.0 L 36.0,6424.0 C 41.0,6390.0 38.0,6374.0 21.0,6346.0 C 9.0,6327.0 3.0,6309.0 7.0,6307.0 C 11.0,6304.0 38.0,6299.0 67.0,6295.0 C 111.0,6289.0 125.0,6282.0 155.0,6249.0 C 174.0,6228.0 194.0,6210.0 199.0,6210.0 C 204.0,6210.0 240.0,6179.0 278.0,6142.0 C 327.0,6094.0 361.0,6070.0 391.0,6061.0 C 446.0,6044.0 511.0,6000.0 529.0,5966.0 C 542.0,5942.0 541.0,5938.0 520.0,5915.0 C 499.0,5892.0 498.0,5889.0 512.0,5877.0 C 548.0,5849.0 543.0,5824.0 495.0,5785.0 C 441.0,5740.0 439.0,5721.0 474.0,5611.0 C 500.0,5529.0 513.0,5515.0 571.0,5505.0 C 612.0,5498.0 615.0,5488.0 589.0,5440.0 C 584.0,5431.0 587.0,5418.0 597.0,5407.0 C 610.0,5394.0 611.0,5387.0 602.0,5378.0 C 595.0,5371.0 590.0,5351.0 590.0,5333.0 C 590.0,5305.0 595.0,5297.0 625.0,5283.0 C 650.0,5271.0 659.0,5261.0 654.0,5251.0 C 651.0,5242.0 644.0,5210.0 638.0,5180.0 C 612.0,5031.0 608.0,5020.0 594.0,5020.0 C 581.0,5020.0 490.0,4937.0 490.0,4925.0 C 490.0,4923.0 503.0,4906.0 519.0,4888.0 C 535.0,4870.0 553.0,4837.0 559.0,4815.0 C 567.0,4786.0 583.0,4766.0 615.0,4743.0 C 652.0,4715.0 660.0,4704.0 666.0,4664.0 C 672.0,4622.0 670.0,4616.0 640.0,4585.0 C 622.0,4567.0 610.0,4546.0 612.0,4540.0 C 614.0,4533.0 672.0,4502.0 740.0,4471.0 C 847.0,4422.0 865.0,4411.0 868.0,4390.0 C 873.0,4341.0 903.0,4258.0 916.0,4253.0 C 924.0,4250.0 930.0,4238.0 930.0,4226.0 C 931.0,4215.0 937.0,4189.0 944.0,4169.0 C 956.0,4134.0 954.0,4125.0 883.0,3945.0 C 843.0,3842.0 810.0,3752.0 810.0,3745.0 C 810.0,3738.0 792.0,3718.0 771.0,3701.0 C 737.0,3674.0 733.0,3666.0 739.0,3642.0 C 746.0,3617.0 751.0,3615.0 803.0,3612.0 C 874.0,3608.0 900.0,3621.0 900.0,3660.0 C 900.0,3675.0 908.0,3702.0 917.0,3719.0 C 934.0,3748.0 934.0,3750.0 915.0,3764.0 C 895.0,3779.0 895.0,3779.0 918.0,3802.0 C 930.0,3814.0 940.0,3819.0 940.0,3812.0 C 940.0,3804.0 950.0,3803.0 970.0,3807.0 C 992.0,3811.0 1006.0,3807.0 1021.0,3794.0 C 1038.0,3779.0 1044.0,3778.0 1062.0,3789.0 C 1077.0,3798.0 1085.0,3799.0 1093.0,3791.0 C 1099.0,3785.0 1115.0,3780.0 1127.0,3780.0 C 1140.0,3780.0 1164.0,3770.0 1180.0,3758.0 C 1208.0,3737.0 1209.0,3736.0 1194.0,3702.0 C 1181.0,3670.0 1182.0,3664.0 1198.0,3636.0 C 1209.0,3617.0 1227.0,3603.0 1243.0,3600.0 C 1261.0,3597.0 1278.0,3582.0 1294.0,3555.0 C 1314.0,3522.0 1324.0,3515.0 1352.0,3514.0 C 1431.0,3510.0 1560.0,3482.0 1594.0,3460.0 C 1624.0,3442.0 1641.0,3438.0 1686.0,3442.0 L 1740.0,3447.0 L 1771.0,3393.0 C 1804.0,3335.0 1805.0,3335.0 1838.0,3354.0 C 1851.0,3361.0 1875.0,3364.0 1891.0,3362.0 C 1920.0,3358.0 1923.0,3354.0 1946.0,3291.0 C 1949.0,3280.0 1957.0,3283.0 1978.0,3302.0 C 1993.0,3316.0 2017.0,3335.0 2032.0,3345.0 C 2057.0,3360.0 2061.0,3360.0 2082.0,3346.0 C 2114.0,3323.0 2147.0,3326.0 2165.0,3354.0 C 2180.0,3377.0 2183.0,3377.0 2229.0,3365.0 C 2285.0,3351.0 2369.0,3293.0 2370.0,3269.0 C 2370.0,3260.0 2362.0,3242.0 2353.0,3229.0 C 2343.0,3216.0 2330.0,3196.0 2324.0,3185.0 C 2318.0,3173.0 2300.0,3164.0 2283.0,3162.0 C 2263.0,3160.0 2233.0,3141.0 2199.0,3110.0 L 2145.0,3062.0 L 2185.0,3021.0 C 2215.0,2989.0 2231.0,2980.0 2258.0,2980.0 C 2286.0,2980.0 2293.0,2975.0 2301.0,2950.0 C 2309.0,2927.0 2320.0,2919.0 2347.0,2914.0 C 2372.0,2909.0 2387.0,2899.0 2399.0,2877.0 C 2408.0,2861.0 2429.0,2834.0 2447.0,2818.0 C 2470.0,2796.0 2482.0,2773.0 2490.0,2736.0 C 2499.0,2693.0 2508.0,2678.0 2542.0,2652.0 C 2591.0,2614.0 2655.0,2607.0 2665.0,2638.0 C 2668.0,2649.0 2680.0,2662.0 2693.0,2667.0 C 2705.0,2673.0 2734.0,2693.0 2757.0,2712.0 C 2781.0,2732.0 2825.0,2755.0 2859.0,2766.0 C 2893.0,2776.0 2920.0,2788.0 2920.0,2792.0 C 2920.0,2797.0 2929.0,2796.0 2939.0,2791.0 C 2956.0,2781.0 2958.0,2785.0 2962.0,2825.0 C 2965.0,2869.0 2964.0,2870.0 2932.0,2876.0 C 2904.0,2882.0 2898.0,2888.0 2888.0,2928.0 C 2882.0,2952.0 2864.0,2987.0 2849.0,3005.0 C 2821.0,3036.0 2821.0,3038.0 2839.0,3054.0 C 2856.0,3069.0 2861.0,3068.0 2921.0,3041.0 C 2966.0,3021.0 2995.0,3014.0 3018.0,3017.0 C 3062.0,3024.0 3140.0,2994.0 3140.0,2971.0 C 3140.0,2949.0 3240.0,2915.0 3277.0,2925.0 C 3301.0,2931.0 3302.0,2929.0 3296.0,2897.0 C 3292.0,2875.0 3294.0,2859.0 3302.0,2853.0 C 3309.0,2847.0 3380.0,2842.0 3464.0,2841.0 C 3591.0,2839.0 3615.0,2842.0 3631.0,2856.0 C 3642.0,2865.0 3650.0,2879.0 3650.0,2887.0 C 3650.0,2904.0 3665.0,2904.0 3695.0,2884.0 C 3716.0,2871.0 3717.0,2865.0 3708.0,2844.0 C 3699.0,2825.0 3700.0,2816.0 3713.0,2802.0 C 3723.0,2792.0 3730.0,2779.0 3730.0,2774.0 C 3729.0,2758.0 3656.0,2718.0 3617.0,2712.0 C 3596.0,2710.0 3577.0,2703.0 3574.0,2698.0 C 3565.0,2685.0 3619.0,2631.0 3656.0,2616.0 C 3675.0,2607.0 3701.0,2580.0 3726.0,2542.0 C 3757.0,2492.0 3775.0,2476.0 3814.0,2459.0 L 3862.0,2438.0 L 3907.0,2462.0 C 3931.0,2475.0 3962.0,2499.0 3975.0,2517.0 C 3998.0,2546.0 4002.0,2548.0 4031.0,2537.0 C 4048.0,2530.0 4069.0,2512.0 4078.0,2495.0 C 4101.0,2449.0 4120.0,2439.0 4147.0,2457.0 C 4172.0,2474.0 4200.0,2468.0 4200.0,2446.0 C 4200.0,2438.0 4212.0,2427.0 4228.0,2421.0 C 4243.0,2415.0 4270.0,2401.0 4289.0,2389.0 C 4310.0,2377.0 4332.0,2371.0 4345.0,2374.0 C 4358.0,2377.0 4394.0,2371.0 4425.0,2360.0 C 4457.0,2349.0 4497.0,2340.0 4515.0,2340.0 C 4542.0,2340.0 4548.0,2335.0 4557.0,2306.0 C 4563.0,2285.0 4564.0,2268.0 4559.0,2263.0 C 4553.0,2257.0 4561.0,2223.0 4577.0,2177.0 L 4604.0,2100.0 L 4682.0,2070.0 C 4724.0,2054.0 4768.0,2040.0 4779.0,2040.0 C 4795.0,2040.0 4800.0,2029.0 4809.0,1977.0 C 4815.0,1942.0 4820.0,1902.0 4820.0,1887.0 C 4820.0,1873.0 4825.0,1850.0 4831.0,1837.0 C 4841.0,1816.0 4846.0,1814.0 4896.0,1818.0 L 4950.0,1822.0 L 4950.0,1791.0 C 4950.0,1774.0 4955.0,1740.0 4962.0,1715.0 C 4976.0,1665.0 4998.0,1652.0 5047.0,1665.0 C 5063.0,1669.0 5093.0,1674.0 5115.0,1675.0 C 5171.0,1677.0 5229.0,1732.0 5237.0,1789.0 C 5242.0,1828.0 5244.0,1829.0 5289.0,1835.0 C 5374.0,1846.0 5380.0,1849.0 5380.0,1875.0 C 5380.0,1903.0 5406.0,1920.0 5449.0,1920.0 C 5474.0,1920.0 5486.0,1912.0 5510.0,1878.0 C 5526.0,1856.0 5540.0,1831.0 5540.0,1823.0 C 5540.0,1815.0 5550.0,1786.0 5561.0,1759.0 C 5580.0,1716.0 5586.0,1710.0 5611.0,1710.0 C 5633.0,1710.0 5643.0,1704.0 5650.0,1685.0 C 5660.0,1659.0 5665.0,1657.0 5744.0,1656.0 C 5801.0,1655.0 5807.0,1645.0 5809.0,1554.0 C 5810.0,1527.0 5816.0,1498.0 5823.0,1491.0 C 5831.0,1482.0 5832.0,1476.0 5824.0,1473.0 C 5818.0,1471.0 5799.0,1459.0 5782.0,1446.0 L 5750.0,1423.0 L 5775.0,1400.0 C 5795.0,1382.0 5807.0,1378.0 5839.0,1383.0 C 5861.0,1386.0 5892.0,1398.0 5907.0,1410.0 C 5938.0,1434.0 5974.0,1430.0 6003.0,1399.0 C 6014.0,1388.0 6033.0,1375.0 6047.0,1369.0 C 6099.0,1349.0 6105.0,1355.0 6133.0,1450.0 C 6166.0,1559.0 6190.0,1580.0 6282.0,1580.0 L 6339.0,1580.0 L 6346.0,1615.0 C 6352.0,1649.0 6354.0,1651.0 6389.0,1649.0 C 6409.0,1647.0 6438.0,1654.0 6455.0,1662.0 C 6483.0,1677.0 6487.0,1677.0 6542.0,1649.0 C 6574.0,1633.0 6604.0,1620.0 6610.0,1620.0 C 6616.0,1620.0 6623.0,1633.0 6626.0,1649.0 C 6632.0,1677.0 6635.0,1678.0 6679.0,1677.0 C 6704.0,1676.0 6733.0,1679.0 6743.0,1684.0 C 6757.0,1691.0 6763.0,1686.0 6773.0,1661.0 C 6779.0,1644.0 6789.0,1630.0 6795.0,1630.0 C 6801.0,1630.0 6819.0,1617.0 6834.0,1601.0 C 6853.0,1581.0 6868.0,1574.0 6885.0,1578.0 C 6902.0,1581.0 6910.0,1578.0 6910.0,1568.0 C 6910.0,1560.0 6921.0,1543.0 6934.0,1531.0 C 6971.0,1496.0 7019.0,1508.0 7054.0,1561.0 C 7069.0,1583.0 7092.0,1606.0 7105.0,1612.0 C 7124.0,1621.0 7130.0,1631.0 7130.0,1656.0 C 7130.0,1683.0 7135.0,1691.0 7155.0,1696.0 C 7174.0,1701.0 7185.0,1696.0 7203.0,1675.0 C 7224.0,1650.0 7228.0,1649.0 7248.0,1661.0 C 7260.0,1669.0 7270.0,1682.0 7270.0,1691.0 C 7270.0,1724.0 7333.0,1729.0 7420.0,1704.0 C 7486.0,1685.0 7485.0,1685.0 7580.0,1703.0 C 7643.0,1715.0 7656.0,1715.0 7665.0,1703.0 C 7670.0,1696.0 7698.0,1687.0 7727.0,1684.0 C 7775.0,1678.0 7779.0,1675.0 7796.0,1638.0 C 7809.0,1609.0 7816.0,1603.0 7822.0,1613.0 C 7826.0,1621.0 7843.0,1633.0 7859.0,1640.0 C 7887.0,1651.0 7893.0,1650.0 7939.0,1616.0 C 7966.0,1596.0 7994.0,1580.0 8001.0,1580.0 C 8022.0,1580.0 8080.0,1489.0 8080.0,1457.0 C 8080.0,1434.0 8089.0,1426.0 8153.0,1394.0 C 8203.0,1368.0 8236.0,1357.0 8263.0,1359.0 C 8290.0,1360.0 8300.0,1357.0 8300.0,1346.0 C 8300.0,1324.0 8356.0,1298.0 8397.0,1302.0 C 8424.0,1304.0 8436.0,1299.0 8450.0,1282.0 C 8466.0,1263.0 8481.0,1259.0 8562.0,1254.0 C 8616.0,1250.0 8661.0,1242.0 8670.0,1234.0 C 8698.0,1210.0 8762.0,1189.0 8814.0,1186.0 C 8856.0,1184.0 8874.0,1189.0 8913.0,1213.0 L 8960.0,1242.0 L 8921.0,1270.0 C 8900.0,1286.0 8879.0,1303.0 8875.0,1309.0 C 8872.0,1315.0 8861.0,1320.0 8851.0,1320.0 C 8841.0,1320.0 8823.0,1331.0 8810.0,1345.0 C 8792.0,1365.0 8789.0,1373.0 8798.0,1382.0 C 8805.0,1389.0 8810.0,1406.0 8810.0,1420.0 C 8810.0,1435.0 8819.0,1455.0 8830.0,1465.0 C 8851.0,1484.0 8870.0,1538.0 8870.0,1578.0 C 8870.0,1593.0 8849.0,1626.0 8814.0,1663.0 C 8765.0,1719.0 8759.0,1729.0 8764.0,1760.0 C 8767.0,1782.0 8764.0,1802.0 8755.0,1814.0 C 8733.0,1843.0 8737.0,1886.0 8762.0,1910.0 C 8774.0,1921.0 8787.0,1930.0 8791.0,1930.0 C 8795.0,1930.0 8812.0,1954.0 8828.0,1983.0 C 8845.0,2011.0 8936.0,2119.0 9032.0,2223.0 C 9127.0,2326.0 9228.0,2440.0 9257.0,2477.0 C 9333.0,2574.0 9420.0,2660.0 9555.0,2769.0 C 9621.0,2823.0 9681.0,2875.0 9689.0,2884.0 C 9697.0,2894.0 9721.0,2910.0 9741.0,2921.0 C 9771.0,2936.0 9781.0,2948.0 9786.0,2974.0 C 9794.0,3020.0 9843.0,3040.0 9944.0,3040.0 C 10027.0,3040.0 10121.0,3055.0 10130.0,3070.0 C 10133.0,3076.0 10149.0,3134.0 10165.0,3200.0 L 10194.0,3320.0 L 10172.0,3365.0 C 10160.0,3390.0 10150.0,3417.0 10150.0,3425.0 C 10150.0,3433.0 10141.0,3449.0 10130.0,3460.0 C 10119.0,3471.0 10110.0,3491.0 10110.0,3505.0 C 10110.0,3525.0 10105.0,3530.0 10085.0,3530.0 C 10058.0,3530.0 10053.0,3548.0 10070.0,3581.0 C 10079.0,3596.0 10092.0,3600.0 10139.0,3600.0 C 10188.0,3600.0 10200.0,3604.0 10220.0,3626.0 C 10236.0,3642.0 10241.0,3654.0 10234.0,3658.0 C 10086.0,3753.0 10062.0,3773.0 10045.0,3810.0 C 10035.0,3832.0 10021.0,3855.0 10013.0,3861.0 C 10006.0,3867.0 10000.0,3883.0 10000.0,3896.0 C 10000.0,3909.0 9988.0,3931.0 9974.0,3945.0 C 9959.0,3960.0 9951.0,3977.0 9954.0,3985.0 C 9957.0,3993.0 9962.0,4006.0 9965.0,4013.0 C 9968.0,4020.0 9957.0,4033.0 9940.0,4043.0 C 9924.0,4053.0 9910.0,4070.0 9910.0,4080.0 C 9910.0,4093.0 9897.0,4103.0 9868.0,4112.0 C 9836.0,4122.0 9820.0,4135.0 9808.0,4160.0 C 9799.0,4178.0 9777.0,4206.0 9760.0,4221.0 C 9725.0,4253.0 9722.0,4277.0 9749.0,4311.0 C 9778.0,4349.0 9785.0,4408.0 9763.0,4432.0 C 9753.0,4443.0 9745.0,4459.0 9745.0,4468.0 C 9745.0,4477.0 9726.0,4497.0 9702.0,4513.0 C 9665.0,4538.0 9659.0,4546.0 9665.0,4567.0 C 9669.0,4583.0 9662.0,4607.0 9645.0,4639.0 C 9619.0,4686.0 9619.0,4688.0 9633.0,4742.0 C 9647.0,4795.0 9647.0,4799.0 9627.0,4818.0 C 9601.0,4844.0 9613.0,4862.0 9678.0,4890.0 C 9722.0,4910.0 9723.0,4911.0 9715.0,4948.0 C 9693.0,5064.0 9705.0,5136.0 9750.0,5160.0 C 9768.0,5170.0 9769.0,5173.0 9756.0,5198.0 C 9749.0,5213.0 9739.0,5244.0 9736.0,5266.0 C 9729.0,5304.0 9723.0,5311.0 9665.0,5345.0 C 9630.0,5365.0 9594.0,5393.0 9585.0,5406.0 C 9576.0,5420.0 9560.0,5430.0 9546.0,5430.0 C 9532.0,5430.0 9489.0,5443.0 9448.0,5459.0 C 9408.0,5475.0 9356.0,5494.0 9332.0,5501.0 C 9300.0,5510.0 9291.0,5517.0 9295.0,5529.0 C 9299.0,5538.0 9292.0,5551.0 9279.0,5561.0 L 9256.0,5578.0 L 9304.0,5686.0 C 9347.0,5782.0 9360.0,5802.0 9419.0,5858.0 C 9532.0,5965.0 9598.0,5997.0 9810.0,6050.0 L 9995.0,6096.0 L 10022.0,6314.0 L 10048.0,6532.0 L 10018.0,6582.0 C 9991.0,6625.0 9987.0,6641.0 9989.0,6694.0 C 9990.0,6741.0 9986.0,6762.0 9970.0,6785.0 C 9959.0,6802.0 9950.0,6822.0 9950.0,6830.0 C 9950.0,6838.0 9928.0,6859.0 9901.0,6877.0 C 9864.0,6901.0 9850.0,6917.0 9845.0,6942.0 C 9831.0,7001.0 9799.0,7091.0 9749.0,7209.0 C 9703.0,7315.0 9699.0,7329.0 9705.0,7380.0 C 9710.0,7426.0 9706.0,7450.0 9680.0,7525.0 C 9663.0,7575.0 9642.0,7653.0 9634.0,7699.0 C 9626.0,7745.0 9613.0,7792.0 9605.0,7803.0 C 9597.0,7815.0 9590.0,7833.0 9590.0,7844.0 C 9590.0,7855.0 9583.0,7871.0 9574.0,7881.0 C 9560.0,7896.0 9560.0,7901.0 9573.0,7927.0 C 9584.0,7948.0 9586.0,7972.0 9581.0,8024.0 C 9575.0,8081.0 9569.0,8096.0 9550.0,8109.0 C 9537.0,8118.0 9506.0,8146.0 9481.0,8172.0 C 9446.0,8207.0 9421.0,8222.0 9379.0,8234.0 C 9348.0,8243.0 9320.0,8256.0 9317.0,8265.0 C 9313.0,8273.0 9293.0,8288.0 9270.0,8300.0 C 9248.0,8311.0 9230.0,8324.0 9230.0,8329.0 C 9230.0,8334.0 9204.0,8337.0 9173.0,8336.0 C 9120.0,8335.0 9115.0,8337.0 9117.0,8356.0 C 9119.0,8370.0 9111.0,8381.0 9095.0,8388.0 C 9081.0,8395.0 9070.0,8406.0 9070.0,8415.0 C 9070.0,8423.0 9065.0,8430.0 9059.0,8430.0 C 9053.0,8430.0 9018.0,8445.0 8981.0,8464.0 C 8906.0,8502.0 8866.0,8499.0 8872.0,8458.0 C 8876.0,8427.0 8867.0,8426.0 8441.0,8390.0 C 8122.0,8362.0 8065.0,8360.0 7856.0,8366.0 C 7704.0,8370.0 7596.0,8369.0 7540.0,8361.0 C 7467.0,8352.0 7404.0,8354.0 7090.0,8380.0 C 6889.0,8396.0 6534.0,8432.0 6300.0,8460.0 C 6066.0,8488.0 5849.0,8513.0 5818.0,8517.0 L 5761.0,8523.0 L 5747.0,8489.0 C 5722.0,8430.0 5681.0,8401.0 5603.0,8386.0 C 5556.0,8377.0 5517.0,8362.0 5487.0,8341.0 C 5439.0,8308.0 5425.0,8304.0 5323.0,8296.0 C 5263.0,8291.0 5260.0,8291.0 5260.0,8313.0 C 5260.0,8326.0 5255.0,8341.0 5249.0,8347.0 C 5233.0,8363.0 5282.0,8386.0 5356.0,8400.0 C 5478.0,8421.0 5503.0,8428.0 5512.0,8444.0 C 5524.0,8465.0 5573.0,8490.0 5604.0,8490.0 C 5618.0,8490.0 5635.0,8499.0 5645.0,8513.0 C 5671.0,8550.0 5641.0,8546.0 5542.0,8496.0 C 5441.0,8445.0 5328.0,8411.0 5225.0,8401.0 C 5141.0,8392.0 4829.0,8399.0 4815.0,8410.0 C 4810.0,8415.0 4779.0,8421.0 4747.0,8425.0 C 4708.0,8430.0 4679.0,8440.0 4660.0,8456.0 C 4645.0,8469.0 4621.0,8480.0 4607.0,8480.0 C 4564.0,8480.0 4539.0,8528.0 4536.0,8613.0 C 4535.0,8663.0 4529.0,8695.0 4517.0,8713.0 C 4508.0,8727.0 4500.0,8750.0 4500.0,8763.0 C 4500.0,8781.0 4495.0,8786.0 4478.0,8786.0 C 4460.0,8785.0 4454.0,8791.0 4452.0,8815.0 C 4450.0,8833.0 4434.0,8858.0 4413.0,8878.0 C 4393.0,8899.0 4381.0,8918.0 4384.0,8927.0 C 4387.0,8935.0 4390.0,8948.0 4390.0,8956.0 C 4390.0,8967.0 4399.0,8966.0 4438.0,8951.0 C 4608.0,8884.0 4690.0,8831.0 4763.0,8741.0 C 4785.0,8714.0 4793.0,8710.0 4805.0,8720.0 C 4827.0,8738.0 4806.0,8770.0 4725.0,8838.0 C 4678.0,8877.0 4640.0,8900.0 4610.0,8908.0 C 4585.0,8914.0 4529.0,8940.0 4485.0,8965.0 C 4441.0,8990.0 4396.0,9010.0 4385.0,9010.0 C 4374.0,9010.0 4347.0,9021.0 4325.0,9035.0 C 4287.0,9058.0 4277.0,9059.0 4140.0,9058.0 C 4060.0,9058.0 3973.0,9054.0 3945.0,9050.0" fill="pink"/>
</svg>
