<?xml version="1.0" ?>
<svg xmlns="http://www.w3.org/2000/svg" xmlns:ev="http://www.w3.org/2001/xml-events" xmlns:xlink="http://www.w3.org/1999/xlink" baseProfile="full" height="600px" version="1.1" viewBox="2137.5694296393035 -1029.125429472104 5956.678507378409 12298.245925303041" width="291px">
	<defs/>
	<path d="M 3697.0,10227.0 C 3695.0,10220.0 3669.0,10208.0 3641.0,10201.0 C 3605.0,10192.0 3590.0,10183.0 3590.0,10171.0 C 3590.0,10143.0 3534.0,10090.0 3505.0,10090.0 C 3462.0,10090.0 3420.0,10063.0 3420.0,10035.0 C 3420.0,10013.0 3416.0,10010.0 3384.0,10010.0 C 3357.0,10010.0 3347.0,10005.0 3343.0,9990.0 C 3340.0,9978.0 3319.0,9963.0 3284.0,9950.0 C 3219.0,9926.0 3203.0,9925.0 3159.0,9944.0 C 3130.0,9956.0 3122.0,9956.0 3106.0,9944.0 C 3096.0,9937.0 3083.0,9933.0 3077.0,9937.0 C 3071.0,9940.0 3062.0,9936.0 3056.0,9928.0 C 3050.0,9920.0 3035.0,9908.0 3023.0,9901.0 C 3010.0,9895.0 3000.0,9881.0 3000.0,9871.0 C 3000.0,9858.0 2987.0,9849.0 2955.0,9840.0 C 2918.0,9830.0 2910.0,9823.0 2910.0,9804.0 C 2910.0,9791.0 2906.0,9780.0 2900.0,9780.0 C 2895.0,9780.0 2890.0,9765.0 2890.0,9747.0 C 2890.0,9729.0 2881.0,9696.0 2870.0,9675.0 C 2858.0,9653.0 2851.0,9627.0 2854.0,9618.0 C 2856.0,9608.0 2854.0,9602.0 2848.0,9603.0 C 2843.0,9604.0 2833.0,9588.0 2826.0,9568.0 C 2818.0,9547.0 2798.0,9514.0 2781.0,9494.0 C 2728.0,9434.0 2714.0,9396.0 2727.0,9349.0 C 2734.0,9322.0 2735.0,9296.0 2728.0,9274.0 C 2716.0,9228.0 2723.0,9208.0 2761.0,9186.0 C 2784.0,9173.0 2795.0,9171.0 2803.0,9179.0 C 2852.0,9228.0 2933.0,9084.0 2947.0,8925.0 C 2950.0,8887.0 2961.0,8835.0 2972.0,8811.0 C 3002.0,8739.0 3021.0,8605.0 3027.0,8419.0 L 3033.0,8242.0 L 2997.0,8154.0 C 2946.0,8025.0 2938.0,7974.0 2949.0,7845.0 C 2954.0,7784.0 2968.0,7701.0 2979.0,7660.0 C 2996.0,7597.0 2999.0,7558.0 2997.0,7420.0 C 2996.0,7271.0 2998.0,7249.0 3019.0,7187.0 C 3037.0,7135.0 3040.0,7108.0 3035.0,7071.0 C 3028.0,7017.0 3034.0,6999.0 3078.0,6952.0 C 3094.0,6935.0 3113.0,6908.0 3119.0,6892.0 C 3128.0,6872.0 3141.0,6860.0 3160.0,6857.0 C 3176.0,6853.0 3191.0,6843.0 3195.0,6833.0 C 3198.0,6823.0 3214.0,6800.0 3230.0,6781.0 C 3255.0,6752.0 3261.0,6749.0 3275.0,6760.0 C 3289.0,6771.0 3298.0,6768.0 3338.0,6740.0 C 3378.0,6711.0 3388.0,6709.0 3412.0,6718.0 C 3429.0,6724.0 3442.0,6725.0 3446.0,6719.0 C 3449.0,6714.0 3446.0,6710.0 3441.0,6710.0 C 3421.0,6710.0 3429.0,6681.0 3471.0,6598.0 C 3536.0,6468.0 3738.0,5936.0 3771.0,5805.0 C 3782.0,5761.0 3818.0,5637.0 3850.0,5530.0 C 3901.0,5356.0 3943.0,5154.0 3965.0,4975.0 C 3968.0,4948.0 3979.0,4867.0 3990.0,4795.0 C 4014.0,4631.0 4030.0,4385.0 4021.0,4334.0 C 4017.0,4312.0 4017.0,4259.0 4022.0,4215.0 C 4026.0,4169.0 4026.0,4116.0 4020.0,4090.0 C 4003.0,4007.0 3998.0,3913.0 4010.0,3905.0 C 4031.0,3892.0 4060.0,3931.0 4061.0,3974.0 L 4061.0,4015.0 L 4077.0,3983.0 C 4088.0,3961.0 4101.0,3950.0 4116.0,3950.0 C 4128.0,3950.0 4145.0,3939.0 4154.0,3925.0 L 4171.0,3899.0 L 4129.0,3902.0 C 4102.0,3903.0 4084.0,3899.0 4076.0,3889.0 C 4066.0,3876.0 4009.0,3846.0 4006.0,3852.0 C 4005.0,3854.0 3999.0,3866.0 3993.0,3880.0 C 3983.0,3904.0 3982.0,3904.0 3970.0,3860.0 C 3947.0,3783.0 3891.0,3717.0 3854.0,3725.0 C 3839.0,3728.0 3830.0,3723.0 3822.0,3704.0 C 3806.0,3670.0 3806.0,3670.0 3835.0,3670.0 C 3856.0,3670.0 3859.0,3667.0 3851.0,3653.0 C 3846.0,3643.0 3838.0,3626.0 3834.0,3615.0 C 3828.0,3596.0 3827.0,3596.0 3821.0,3618.0 C 3815.0,3639.0 3814.0,3639.0 3793.0,3625.0 C 3773.0,3611.0 3771.0,3601.0 3768.0,3447.0 L 3765.0,3285.0 L 3734.0,3240.0 C 3717.0,3215.0 3699.0,3184.0 3695.0,3170.0 C 3691.0,3156.0 3677.0,3124.0 3664.0,3098.0 C 3645.0,3060.0 3633.0,3049.0 3599.0,3038.0 C 3568.0,3028.0 3552.0,3015.0 3539.0,2989.0 C 3510.0,2934.0 3501.0,2928.0 3464.0,2935.0 C 3431.0,2941.0 3385.0,2925.0 3350.0,2895.0 C 3332.0,2879.0 3231.0,2840.0 3209.0,2840.0 C 3183.0,2840.0 3087.0,2794.0 3068.0,2774.0 C 3051.0,2754.0 3026.0,2694.0 3016.0,2648.0 C 3012.0,2632.0 3003.0,2620.0 2995.0,2620.0 C 2987.0,2620.0 2967.0,2602.0 2952.0,2580.0 C 2937.0,2559.0 2920.0,2541.0 2913.0,2540.0 C 2907.0,2540.0 2899.0,2532.0 2896.0,2522.0 C 2892.0,2511.0 2879.0,2497.0 2865.0,2490.0 C 2852.0,2483.0 2838.0,2464.0 2835.0,2448.0 C 2831.0,2433.0 2813.0,2403.0 2794.0,2384.0 C 2776.0,2364.0 2762.0,2344.0 2765.0,2340.0 C 2768.0,2336.0 2756.0,2327.0 2739.0,2320.0 C 2722.0,2313.0 2702.0,2296.0 2693.0,2283.0 C 2685.0,2271.0 2669.0,2260.0 2659.0,2260.0 C 2619.0,2260.0 2641.0,2138.0 2689.0,2096.0 C 2717.0,2070.0 2718.0,1981.0 2690.0,1926.0 C 2673.0,1891.0 2672.0,1884.0 2685.0,1861.0 C 2699.0,1836.0 2699.0,1835.0 2700.0,1858.0 C 2700.0,1900.0 2739.0,1961.0 2775.0,1976.0 C 2794.0,1984.0 2817.0,1990.0 2827.0,1990.0 C 2837.0,1990.0 2861.0,2001.0 2881.0,2014.0 C 2916.0,2038.0 2920.0,2038.0 3020.0,2029.0 C 3112.0,2022.0 3129.0,2017.0 3166.0,1990.0 C 3189.0,1974.0 3213.0,1960.0 3219.0,1960.0 C 3253.0,1960.0 3276.0,1805.0 3248.0,1760.0 C 3238.0,1745.0 3238.0,1733.0 3248.0,1706.0 C 3258.0,1679.0 3258.0,1664.0 3246.0,1629.0 C 3239.0,1605.0 3225.0,1551.0 3215.0,1510.0 C 3206.0,1469.0 3192.0,1420.0 3184.0,1401.0 C 3165.0,1355.0 3166.0,1350.0 3201.0,1297.0 C 3224.0,1262.0 3232.0,1239.0 3232.0,1204.0 C 3232.0,1178.0 3235.0,1148.0 3240.0,1136.0 C 3247.0,1116.0 3248.0,1117.0 3261.0,1145.0 C 3280.0,1188.0 3321.0,1253.0 3339.0,1267.0 C 3360.0,1285.0 3407.0,1283.0 3414.0,1265.0 C 3417.0,1257.0 3427.0,1250.0 3435.0,1250.0 C 3444.0,1250.0 3448.0,1245.0 3445.0,1240.0 C 3438.0,1228.0 3461.0,1170.0 3473.0,1170.0 C 3477.0,1170.0 3492.0,1177.0 3505.0,1186.0 C 3523.0,1197.0 3534.0,1199.0 3543.0,1192.0 C 3549.0,1187.0 3575.0,1175.0 3600.0,1167.0 C 3634.0,1155.0 3644.0,1147.0 3642.0,1133.0 C 3640.0,1123.0 3634.0,1113.0 3629.0,1112.0 C 3621.0,1109.0 3590.0,1047.0 3590.0,1034.0 C 3590.0,1033.0 3607.0,1034.0 3627.0,1037.0 C 3660.0,1043.0 3663.0,1041.0 3656.0,1024.0 C 3632.0,963.0 3626.0,919.0 3639.0,911.0 C 3648.0,905.0 3650.0,893.0 3646.0,874.0 L 3638.0,845.0 L 3667.0,873.0 C 3683.0,888.0 3703.0,900.0 3711.0,900.0 C 3727.0,900.0 3789.0,957.0 3858.0,1035.0 C 3898.0,1081.0 3901.0,1083.0 3915.0,1064.0 C 3929.0,1045.0 3930.0,1045.0 3967.0,1066.0 C 3991.0,1080.0 4005.0,1096.0 4006.0,1109.0 C 4008.0,1147.0 4158.0,1360.0 4182.0,1360.0 C 4187.0,1360.0 4227.0,1387.0 4271.0,1421.0 C 4315.0,1454.0 4365.0,1487.0 4384.0,1495.0 C 4402.0,1503.0 4431.0,1523.0 4449.0,1539.0 C 4467.0,1556.0 4485.0,1570.0 4489.0,1570.0 C 4495.0,1570.0 4517.0,1591.0 4610.0,1685.0 C 4632.0,1706.0 4655.0,1737.0 4661.0,1752.0 C 4670.0,1774.0 4679.0,1780.0 4699.0,1778.0 C 4713.0,1778.0 4755.0,1793.0 4791.0,1813.0 C 4827.0,1834.0 4866.0,1850.0 4878.0,1850.0 C 4892.0,1850.0 4924.0,1874.0 4963.0,1913.0 C 4997.0,1948.0 5038.0,1984.0 5053.0,1994.0 C 5069.0,2004.0 5089.0,2025.0 5098.0,2041.0 C 5108.0,2057.0 5122.0,2070.0 5131.0,2070.0 C 5139.0,2070.0 5160.0,2086.0 5177.0,2105.0 C 5194.0,2124.0 5215.0,2140.0 5223.0,2140.0 C 5241.0,2140.0 5400.0,2291.0 5400.0,2307.0 C 5400.0,2313.0 5422.0,2335.0 5449.0,2354.0 C 5491.0,2385.0 5502.0,2400.0 5520.0,2455.0 C 5532.0,2490.0 5547.0,2521.0 5553.0,2523.0 C 5562.0,2526.0 5562.0,2533.0 5552.0,2550.0 C 5540.0,2570.0 5542.0,2575.0 5573.0,2605.0 C 5620.0,2651.0 5626.0,2687.0 5592.0,2722.0 C 5571.0,2745.0 5570.0,2750.0 5583.0,2750.0 C 5604.0,2750.0 5604.0,2759.0 5585.0,2787.0 C 5572.0,2806.0 5572.0,2812.0 5584.0,2837.0 C 5624.0,2918.0 5632.0,2999.0 5600.0,3007.0 C 5589.0,3010.0 5582.0,3016.0 5585.0,3020.0 C 5588.0,3025.0 5586.0,3031.0 5580.0,3035.0 C 5574.0,3039.0 5577.0,3051.0 5590.0,3067.0 C 5616.0,3101.0 5615.0,3116.0 5585.0,3136.0 C 5571.0,3145.0 5560.0,3161.0 5560.0,3172.0 C 5560.0,3205.0 5528.0,3250.0 5504.0,3250.0 C 5472.0,3250.0 5459.0,3272.0 5461.0,3322.0 C 5462.0,3366.0 5446.0,3472.0 5435.0,3490.0 C 5432.0,3496.0 5436.0,3500.0 5444.0,3500.0 C 5455.0,3500.0 5460.0,3509.0 5460.0,3526.0 C 5460.0,3550.0 5457.0,3552.0 5429.0,3546.0 C 5412.0,3543.0 5390.0,3540.0 5380.0,3540.0 C 5370.0,3540.0 5354.0,3527.0 5343.0,3510.0 L 5324.0,3481.0 L 5255.0,3529.0 C 5202.0,3566.0 5184.0,3585.0 5180.0,3607.0 C 5176.0,3626.0 5169.0,3635.0 5155.0,3635.0 C 5144.0,3635.0 5126.0,3650.0 5113.0,3670.0 C 5100.0,3689.0 5077.0,3719.0 5062.0,3735.0 L 5035.0,3766.0 L 5008.0,3747.0 C 4985.0,3730.0 4975.0,3729.0 4927.0,3737.0 C 4868.0,3747.0 4827.0,3738.0 4802.0,3707.0 C 4783.0,3684.0 4695.0,3657.0 4668.0,3665.0 C 4641.0,3674.0 4590.0,3719.0 4590.0,3735.0 C 4590.0,3741.0 4574.0,3760.0 4555.0,3777.0 C 4533.0,3797.0 4520.0,3817.0 4520.0,3833.0 C 4520.0,3855.0 4512.0,3861.0 4468.0,3876.0 C 4439.0,3885.0 4410.0,3897.0 4403.0,3902.0 C 4396.0,3908.0 4359.0,3912.0 4320.0,3913.0 L 4250.0,3914.0 L 4239.0,3949.0 C 4233.0,3969.0 4216.0,4000.0 4203.0,4018.0 C 4145.0,4095.0 4111.0,4193.0 4084.0,4357.0 C 4058.0,4512.0 4058.0,4519.0 4070.0,4712.0 C 4082.0,4914.0 4107.0,5097.0 4126.0,5121.0 C 4132.0,5129.0 4140.0,5158.0 4143.0,5185.0 C 4146.0,5213.0 4166.0,5307.0 4188.0,5396.0 C 4222.0,5534.0 4235.0,5569.0 4277.0,5642.0 C 4305.0,5688.0 4337.0,5748.0 4349.0,5774.0 C 4360.0,5801.0 4391.0,5842.0 4416.0,5865.0 C 4453.0,5900.0 4461.0,5913.0 4458.0,5936.0 C 4455.0,5963.0 4451.0,5965.0 4408.0,5968.0 C 4370.0,5970.0 4360.0,5968.0 4360.0,5956.0 C 4360.0,5936.0 4341.0,5936.0 4313.0,5955.0 C 4299.0,5965.0 4290.0,5983.0 4288.0,6008.0 C 4283.0,6067.0 4252.0,6063.0 4199.0,5998.0 C 4175.0,5969.0 4134.0,5923.0 4109.0,5895.0 C 3960.0,5734.0 3962.0,5736.0 3933.0,5770.0 C 3906.0,5801.0 3897.0,5794.0 3904.0,5750.0 C 3907.0,5728.0 3906.0,5710.0 3902.0,5710.0 C 3888.0,5710.0 3871.0,5756.0 3877.0,5778.0 C 3880.0,5792.0 3873.0,5805.0 3850.0,5821.0 C 3810.0,5851.0 3710.0,6031.0 3710.0,6073.0 C 3710.0,6116.0 3680.0,6232.0 3664.0,6250.0 C 3629.0,6290.0 3490.0,6623.0 3503.0,6636.0 C 3506.0,6639.0 3519.0,6634.0 3533.0,6625.0 C 3564.0,6605.0 3771.0,6550.0 3816.0,6550.0 C 3834.0,6550.0 3852.0,6546.0 3855.0,6540.0 C 3858.0,6535.0 3876.0,6530.0 3893.0,6530.0 C 3911.0,6530.0 3954.0,6516.0 3990.0,6499.0 C 4037.0,6477.0 4079.0,6466.0 4145.0,6459.0 C 4257.0,6447.0 4276.0,6451.0 4285.0,6490.0 C 4289.0,6506.0 4298.0,6520.0 4305.0,6520.0 C 4312.0,6520.0 4321.0,6527.0 4324.0,6536.0 C 4327.0,6544.0 4335.0,6548.0 4340.0,6545.0 C 4349.0,6539.0 4432.0,6549.0 4523.0,6567.0 C 4551.0,6572.0 4551.0,6571.0 4537.0,6548.0 C 4513.0,6511.0 4506.0,6445.0 4524.0,6427.0 C 4533.0,6419.0 4543.0,6410.0 4548.0,6408.0 C 4559.0,6404.0 4606.0,6291.0 4613.0,6254.0 C 4621.0,6214.0 4596.0,6177.0 4569.0,6185.0 C 4553.0,6190.0 4530.0,6173.0 4464.0,6106.0 C 4374.0,6015.0 4373.0,6013.0 4443.0,5996.0 C 4479.0,5988.0 4493.0,5996.0 4596.0,6086.0 C 4732.0,6205.0 4796.0,6244.0 4853.0,6245.0 C 4883.0,6246.0 4905.0,6252.0 4911.0,6261.0 C 4923.0,6280.0 4922.0,6287.0 4909.0,6296.0 C 4902.0,6300.0 4915.0,6320.0 4942.0,6349.0 C 4992.0,6401.0 5050.0,6491.0 5050.0,6518.0 C 5050.0,6527.0 5057.0,6548.0 5065.0,6564.0 C 5074.0,6580.0 5092.0,6634.0 5106.0,6683.0 C 5119.0,6731.0 5142.0,6801.0 5156.0,6838.0 C 5170.0,6875.0 5199.0,6968.0 5220.0,7045.0 C 5241.0,7122.0 5272.0,7214.0 5289.0,7250.0 C 5306.0,7286.0 5320.0,7320.0 5320.0,7326.0 C 5320.0,7332.0 5326.0,7343.0 5334.0,7349.0 C 5341.0,7355.0 5350.0,7383.0 5354.0,7411.0 C 5358.0,7440.0 5369.0,7469.0 5380.0,7480.0 C 5405.0,7505.0 5405.0,7535.0 5380.0,7560.0 C 5362.0,7578.0 5360.0,7593.0 5360.0,7689.0 C 5360.0,7755.0 5356.0,7801.0 5350.0,7805.0 C 5343.0,7809.0 5343.0,7816.0 5348.0,7823.0 C 5353.0,7830.0 5353.0,7876.0 5348.0,7935.0 C 5339.0,8032.0 5338.0,8036.0 5302.0,8073.0 C 5282.0,8094.0 5252.0,8119.0 5235.0,8127.0 C 5219.0,8135.0 5194.0,8152.0 5180.0,8165.0 C 5126.0,8213.0 5021.0,8259.0 4921.0,8280.0 C 4738.0,8317.0 4420.0,8456.0 4265.0,8566.0 C 4200.0,8612.0 4116.0,8696.0 4025.0,8805.0 C 3981.0,8858.0 3954.0,8881.0 3911.0,8901.0 C 3873.0,8918.0 3841.0,8944.0 3810.0,8980.0 C 3786.0,9009.0 3748.0,9041.0 3725.0,9051.0 C 3677.0,9073.0 3565.0,9077.0 3557.0,9057.0 C 3555.0,9050.0 3532.0,9039.0 3506.0,9032.0 C 3481.0,9026.0 3452.0,9011.0 3443.0,9000.0 C 3431.0,8987.0 3413.0,8980.0 3388.0,8980.0 C 3367.0,8980.0 3350.0,8976.0 3350.0,8970.0 C 3350.0,8965.0 3355.0,8960.0 3360.0,8960.0 C 3378.0,8960.0 3370.0,8938.0 3350.0,8933.0 C 3333.0,8929.0 3330.0,8919.0 3330.0,8879.0 C 3330.0,8843.0 3321.0,8810.0 3295.0,8758.0 C 3255.0,8677.0 3197.0,8594.0 3170.0,8580.0 C 3160.0,8575.0 3149.0,8557.0 3145.0,8540.0 C 3141.0,8524.0 3134.0,8508.0 3129.0,8505.0 C 3117.0,8497.0 3118.0,8453.0 3130.0,8445.0 C 3138.0,8440.0 3137.0,8434.0 3129.0,8424.0 C 3123.0,8416.0 3120.0,8401.0 3123.0,8390.0 C 3126.0,8379.0 3122.0,8367.0 3115.0,8362.0 C 3108.0,8358.0 3098.0,8339.0 3093.0,8320.0 C 3075.0,8250.0 3065.0,8293.0 3059.0,8467.0 C 3054.0,8614.0 3049.0,8656.0 3031.0,8710.0 C 3018.0,8747.0 3006.0,8813.0 3003.0,8864.0 L 2997.0,8953.0 L 3138.0,8946.0 C 3273.0,8940.0 3281.0,8941.0 3301.0,8961.0 L 3322.0,8982.0 L 3261.0,9038.0 C 3227.0,9070.0 3200.0,9103.0 3200.0,9113.0 C 3200.0,9122.0 3176.0,9152.0 3147.0,9180.0 C 3093.0,9231.0 3093.0,9232.0 3080.0,9318.0 C 3063.0,9428.0 3063.0,9515.0 3079.0,9534.0 C 3095.0,9553.0 3214.0,9592.0 3234.0,9584.0 C 3244.0,9580.0 3271.0,9594.0 3305.0,9619.0 C 3335.0,9642.0 3371.0,9665.0 3384.0,9672.0 C 3401.0,9679.0 3412.0,9694.0 3416.0,9717.0 C 3419.0,9735.0 3430.0,9755.0 3439.0,9760.0 C 3448.0,9764.0 3471.0,9791.0 3490.0,9820.0 C 3515.0,9856.0 3531.0,9870.0 3545.0,9868.0 C 3556.0,9867.0 3592.0,9883.0 3625.0,9904.0 C 3658.0,9924.0 3700.0,9950.0 3717.0,9960.0 L 3750.0,9980.0 L 3746.0,10083.0 C 3742.0,10178.0 3727.0,10240.0 3709.0,10240.0 C 3705.0,10240.0 3700.0,10234.0 3697.0,10227.0" fill="pink"/>
	<path d="M 6806.0,1898.0 C 6749.0,1847.0 6749.0,1846.0 6772.0,1834.0 C 6786.0,1826.0 6832.0,1821.0 6887.0,1820.0 C 6979.0,1820.0 6980.0,1820.0 6995.0,1849.0 C 7003.0,1866.0 7020.0,1880.0 7032.0,1882.0 L 7055.0,1885.0 L 7028.0,1913.0 C 7003.0,1938.0 6997.0,1940.0 6945.0,1934.0 C 6910.0,1930.0 6885.0,1931.0 6877.0,1939.0 C 6866.0,1948.0 6851.0,1939.0 6806.0,1898.0" fill="pink"/>
	<path d="M 6871.0,1676.0 C 6849.0,1652.0 6834.0,1648.0 6712.0,1632.0 C 6662.0,1626.0 6644.0,1619.0 6630.0,1600.0 C 6613.0,1577.0 6605.0,1575.0 6536.0,1576.0 C 6478.0,1577.0 6460.0,1574.0 6460.0,1564.0 C 6460.0,1557.0 6437.0,1541.0 6410.0,1529.0 C 6376.0,1515.0 6360.0,1502.0 6361.0,1491.0 C 6362.0,1482.0 6359.0,1467.0 6355.0,1456.0 C 6350.0,1445.0 6352.0,1430.0 6358.0,1419.0 C 6375.0,1392.0 6373.0,1387.0 6347.0,1394.0 C 6328.0,1398.0 6321.0,1394.0 6312.0,1376.0 C 6305.0,1361.0 6289.0,1349.0 6268.0,1345.0 C 6217.0,1333.0 6200.0,1319.0 6169.0,1258.0 C 6147.0,1214.0 6130.0,1195.0 6100.0,1180.0 C 6065.0,1162.0 6061.0,1157.0 6066.0,1132.0 C 6070.0,1111.0 6067.0,1103.0 6049.0,1095.0 C 6036.0,1090.0 6017.0,1067.0 6005.0,1045.0 C 5993.0,1023.0 5969.0,978.0 5952.0,946.0 C 5934.0,914.0 5920.0,876.0 5920.0,862.0 C 5920.0,836.0 5874.0,754.0 5834.0,710.0 C 5822.0,696.0 5788.0,639.0 5760.0,582.0 C 5723.0,509.0 5703.0,480.0 5690.0,480.0 C 5676.0,480.0 5672.0,473.0 5674.0,448.0 L 5675.0,415.0 L 5617.0,412.0 L 5559.0,409.0 L 5562.0,367.0 C 5565.0,329.0 5568.0,324.0 5603.0,311.0 C 5635.0,299.0 5650.0,299.0 5690.0,309.0 C 5734.0,320.0 5743.0,320.0 5770.0,304.0 C 5789.0,292.0 5800.0,278.0 5800.0,263.0 C 5800.0,250.0 5805.0,240.0 5810.0,240.0 C 5816.0,240.0 5820.0,255.0 5819.0,273.0 C 5816.0,319.0 5840.0,378.0 5864.0,384.0 C 5912.0,397.0 5988.0,390.0 6011.0,370.0 C 6025.0,359.0 6029.0,351.0 6022.0,350.0 C 6001.0,350.0 5960.0,299.0 5960.0,274.0 C 5960.0,244.0 5931.0,229.0 5878.0,232.0 C 5847.0,234.0 5836.0,231.0 5838.0,222.0 C 5839.0,215.0 5831.0,197.0 5820.0,183.0 C 5791.0,146.0 5795.0,131.0 5840.0,93.0 C 5870.0,67.0 5880.0,51.0 5880.0,29.0 C 5880.0,-9.0 5908.0,-10.0 5921.0,28.0 C 5926.0,44.0 5944.0,67.0 5960.0,79.0 C 5987.0,98.0 5989.0,105.0 5984.0,140.0 C 5975.0,193.0 5984.0,221.0 6019.0,257.0 C 6042.0,282.0 6058.0,289.0 6094.0,291.0 C 6133.0,294.0 6143.0,290.0 6156.0,271.0 C 6167.0,256.0 6176.0,252.0 6182.0,258.0 C 6188.0,264.0 6207.0,266.0 6225.0,263.0 C 6253.0,258.0 6259.0,261.0 6266.0,283.0 C 6271.0,298.0 6295.0,334.0 6320.0,364.0 C 6361.0,415.0 6368.0,419.0 6408.0,420.0 L 6450.0,420.0 L 6450.0,375.0 C 6450.0,345.0 6445.0,328.0 6434.0,322.0 C 6420.0,314.0 6419.0,307.0 6429.0,279.0 C 6435.0,260.0 6443.0,228.0 6447.0,207.0 C 6452.0,181.0 6464.0,163.0 6482.0,152.0 C 6508.0,137.0 6511.0,137.0 6537.0,156.0 C 6571.0,181.0 6624.0,200.0 6660.0,200.0 C 6689.0,200.0 6719.0,228.0 6738.0,273.0 C 6752.0,305.0 6787.0,309.0 6825.0,284.0 C 6854.0,265.0 6849.0,250.0 6813.0,250.0 C 6788.0,250.0 6787.0,250.0 6805.0,230.0 C 6830.0,202.0 6873.0,204.0 6885.0,232.0 C 6892.0,248.0 6905.0,256.0 6929.0,258.0 C 6947.0,260.0 6980.0,273.0 7001.0,287.0 C 7026.0,304.0 7048.0,311.0 7065.0,308.0 C 7106.0,300.0 7157.0,353.0 7165.0,412.0 C 7172.0,465.0 7182.0,458.0 7067.0,480.0 C 7031.0,487.0 7006.0,498.0 7003.0,508.0 C 6997.0,521.0 7008.0,561.0 7034.0,621.0 C 7039.0,633.0 7034.0,639.0 7015.0,644.0 C 6943.0,662.0 6922.0,706.0 6955.0,770.0 C 6968.0,795.0 6968.0,800.0 6956.0,800.0 C 6929.0,800.0 6915.0,768.0 6915.0,706.0 L 6915.0,645.0 L 6883.0,642.0 C 6846.0,638.0 6843.0,647.0 6861.0,699.0 C 6869.0,722.0 6869.0,735.0 6862.0,742.0 C 6854.0,750.0 6846.0,736.0 6834.0,692.0 C 6817.0,632.0 6808.0,619.0 6795.0,640.0 C 6791.0,646.0 6772.0,647.0 6749.0,644.0 C 6722.0,639.0 6710.0,641.0 6710.0,649.0 C 6710.0,668.0 6766.0,720.0 6787.0,720.0 C 6797.0,720.0 6815.0,735.0 6828.0,754.0 C 6841.0,773.0 6862.0,791.0 6876.0,794.0 C 6904.0,801.0 6899.0,820.0 6869.0,820.0 C 6843.0,820.0 6845.0,830.0 6878.0,857.0 C 6901.0,876.0 6903.0,881.0 6890.0,890.0 C 6878.0,898.0 6879.0,900.0 6897.0,900.0 C 6936.0,900.0 6931.0,918.0 6890.0,925.0 C 6866.0,929.0 6850.0,937.0 6850.0,946.0 C 6850.0,962.0 6889.0,1009.0 6945.0,1059.0 C 7101.0,1201.0 7101.0,1201.0 7107.0,1267.0 C 7114.0,1344.0 7106.0,1378.0 7077.0,1390.0 C 7060.0,1397.0 7059.0,1399.0 7073.0,1399.0 C 7092.0,1400.0 7095.0,1427.0 7081.0,1498.0 C 7072.0,1545.0 7028.0,1600.0 6999.0,1600.0 C 6990.0,1600.0 6980.0,1608.0 6978.0,1618.0 C 6975.0,1628.0 6955.0,1650.0 6933.0,1668.0 L 6893.0,1699.0 L 6871.0,1676.0" fill="pink"/>
	<path d="M 7508.0,1219.0 C 7498.0,1213.0 7490.0,1200.0 7490.0,1190.0 C 7490.0,1165.0 7495.0,1165.0 7521.0,1191.0 C 7544.0,1214.0 7535.0,1234.0 7508.0,1219.0" fill="pink"/>
	<path d="M 7545.0,1100.0 C 7542.0,1094.0 7541.0,1081.0 7545.0,1070.0 C 7552.0,1048.0 7524.0,1000.0 7504.0,1000.0 C 7496.0,1000.0 7490.0,995.0 7490.0,990.0 C 7490.0,973.0 7521.0,966.0 7541.0,978.0 C 7551.0,985.0 7566.0,990.0 7574.0,990.0 C 7594.0,990.0 7601.0,1059.0 7584.0,1088.0 C 7568.0,1112.0 7555.0,1116.0 7545.0,1100.0" fill="pink"/>
	<path d="M 7276.0,1055.0 C 7283.0,1027.0 7271.0,1023.0 7240.0,1043.0 C 7214.0,1058.0 7200.0,1041.0 7200.0,994.0 C 7200.0,970.0 7190.0,953.0 7155.0,921.0 C 7131.0,899.0 7104.0,880.0 7095.0,880.0 C 7078.0,880.0 7076.0,862.0 7090.0,825.0 C 7099.0,802.0 7104.0,799.0 7126.0,804.0 C 7144.0,809.0 7158.0,806.0 7171.0,795.0 C 7192.0,775.0 7210.0,783.0 7210.0,813.0 C 7210.0,825.0 7219.0,850.0 7230.0,868.0 C 7254.0,908.0 7255.0,927.0 7233.0,932.0 C 7213.0,936.0 7314.0,1026.0 7345.0,1031.0 C 7357.0,1034.0 7366.0,1045.0 7368.0,1058.0 C 7371.0,1078.0 7367.0,1080.0 7321.0,1080.0 C 7271.0,1080.0 7270.0,1079.0 7276.0,1055.0" fill="pink"/>
</svg>
