<?xml version="1.0" ?>
<svg xmlns="http://www.w3.org/2000/svg" xmlns:ev="http://www.w3.org/2001/xml-events" xmlns:xlink="http://www.w3.org/1999/xlink" baseProfile="full" height="600px" version="1.1" viewBox="2105.508005728691 -1023.4792789144174 6023.733988542618 12291.02023968485" width="295px">
	<defs/>
	<path d="M 4587.0,10196.0 C 4545.0,10172.0 4499.0,10144.0 4487.0,10132.0 C 4457.0,10104.0 4337.0,10084.0 4284.0,10099.0 C 4250.0,10108.0 4242.0,10106.0 4191.0,10076.0 C 4160.0,10057.0 4117.0,10039.0 4094.0,10035.0 C 4058.0,10030.0 4051.0,10023.0 4032.0,9985.0 C 4015.0,9951.0 4004.0,9940.0 3978.0,9935.0 C 3911.0,9922.0 3910.0,9921.0 3910.0,9879.0 C 3910.0,9854.0 3905.0,9840.0 3897.0,9840.0 C 3879.0,9840.0 3820.0,9784.0 3820.0,9767.0 C 3820.0,9759.0 3808.0,9750.0 3793.0,9747.0 C 3776.0,9743.0 3748.0,9720.0 3722.0,9688.0 C 3680.0,9638.0 3678.0,9633.0 3684.0,9589.0 C 3688.0,9563.0 3686.0,9531.0 3681.0,9517.0 C 3673.0,9498.0 3675.0,9489.0 3686.0,9480.0 C 3693.0,9473.0 3700.0,9454.0 3700.0,9438.0 C 3700.0,9419.0 3710.0,9398.0 3729.0,9380.0 C 3745.0,9364.0 3753.0,9349.0 3747.0,9347.0 C 3740.0,9345.0 3740.0,9338.0 3747.0,9325.0 C 3753.0,9314.0 3763.0,9259.0 3770.0,9203.0 C 3777.0,9141.0 3788.0,9096.0 3796.0,9089.0 C 3814.0,9074.0 3814.0,9059.0 3796.0,9066.0 C 3770.0,9076.0 3771.0,9055.0 3801.0,8985.0 C 3823.0,8932.0 3830.0,8900.0 3830.0,8849.0 C 3830.0,8802.0 3837.0,8762.0 3855.0,8715.0 C 3869.0,8678.0 3885.0,8612.0 3891.0,8570.0 C 3896.0,8527.0 3914.0,8448.0 3931.0,8394.0 C 3971.0,8263.0 3990.0,8168.0 3990.0,8095.0 C 3990.0,7993.0 3953.0,7750.0 3920.0,7635.0 C 3903.0,7575.0 3886.0,7514.0 3883.0,7500.0 C 3881.0,7486.0 3869.0,7444.0 3857.0,7406.0 C 3839.0,7345.0 3838.0,7335.0 3851.0,7312.0 C 3871.0,7277.0 3886.0,7288.0 3882.0,7333.0 C 3880.0,7359.0 3883.0,7375.0 3894.0,7383.0 C 3902.0,7390.0 3914.0,7423.0 3919.0,7457.0 C 3924.0,7491.0 3935.0,7532.0 3944.0,7548.0 C 3952.0,7564.0 3956.0,7587.0 3953.0,7598.0 C 3950.0,7611.0 3952.0,7620.0 3959.0,7620.0 C 3965.0,7620.0 3970.0,7615.0 3970.0,7609.0 C 3970.0,7602.0 3981.0,7601.0 4000.0,7605.0 C 4019.0,7609.0 4030.0,7608.0 4030.0,7601.0 C 4030.0,7595.0 4022.0,7590.0 4012.0,7590.0 C 3986.0,7590.0 3963.0,7561.0 3955.0,7519.0 C 3947.0,7474.0 3965.0,7457.0 4024.0,7456.0 C 4056.0,7456.0 4066.0,7452.0 4063.0,7443.0 C 4060.0,7436.0 4048.0,7429.0 4036.0,7428.0 C 4025.0,7428.0 4010.0,7426.0 4004.0,7426.0 C 3982.0,7424.0 3898.0,7375.0 3893.0,7362.0 C 3884.0,7339.0 3896.0,7339.0 3936.0,7362.0 C 3964.0,7377.0 3984.0,7381.0 4003.0,7376.0 C 4032.0,7369.0 4040.0,7350.0 4015.0,7350.0 C 4007.0,7350.0 4000.0,7345.0 4000.0,7340.0 C 4000.0,7323.0 3949.0,7280.0 3929.0,7280.0 C 3907.0,7280.0 3880.0,7243.0 3880.0,7214.0 C 3880.0,7185.0 3834.0,7050.0 3820.0,7036.0 C 3804.0,7021.0 3816.0,7083.0 3847.0,7184.0 C 3864.0,7237.0 3868.0,7266.0 3862.0,7272.0 C 3855.0,7279.0 3848.0,7270.0 3841.0,7244.0 C 3801.0,7092.0 3758.0,6908.0 3740.0,6812.0 C 3725.0,6736.0 3704.0,6667.0 3676.0,6602.0 C 3652.0,6549.0 3627.0,6488.0 3621.0,6468.0 C 3614.0,6448.0 3603.0,6426.0 3595.0,6420.0 C 3574.0,6403.0 3586.0,6364.0 3625.0,6326.0 C 3647.0,6304.0 3655.0,6288.0 3650.0,6279.0 C 3645.0,6271.0 3615.0,6170.0 3581.0,6053.0 C 3522.0,5847.0 3452.0,5670.0 3403.0,5602.0 C 3373.0,5562.0 3340.0,5468.0 3340.0,5423.0 C 3340.0,5404.0 3323.0,5356.0 3300.0,5310.0 C 3278.0,5266.0 3264.0,5230.0 3270.0,5230.0 C 3283.0,5230.0 3283.0,5193.0 3271.0,5185.0 C 3265.0,5182.0 3240.0,5148.0 3214.0,5109.0 C 3189.0,5070.0 3158.0,5035.0 3146.0,5030.0 C 3135.0,5026.0 3110.0,5006.0 3092.0,4987.0 L 3058.0,4952.0 L 3079.0,4904.0 C 3091.0,4877.0 3106.0,4853.0 3112.0,4849.0 C 3119.0,4845.0 3119.0,4837.0 3113.0,4825.0 C 3106.0,4812.0 3101.0,4811.0 3095.0,4819.0 C 3090.0,4828.0 3084.0,4826.0 3074.0,4813.0 C 3062.0,4797.0 3062.0,4799.0 3067.0,4833.0 C 3072.0,4863.0 3069.0,4875.0 3052.0,4890.0 C 3040.0,4901.0 3029.0,4910.0 3027.0,4910.0 C 3026.0,4910.0 2998.0,4878.0 2966.0,4839.0 C 2918.0,4781.0 2905.0,4771.0 2898.0,4784.0 C 2885.0,4806.0 2873.0,4804.0 2866.0,4778.0 C 2861.0,4756.0 2860.0,4756.0 2847.0,4775.0 C 2833.0,4793.0 2831.0,4793.0 2806.0,4776.0 C 2768.0,4752.0 2775.0,4724.0 2818.0,4728.0 C 2848.0,4730.0 2850.0,4728.0 2848.0,4701.0 C 2847.0,4684.0 2853.0,4663.0 2863.0,4652.0 C 2903.0,4608.0 2867.0,4396.0 2812.0,4354.0 C 2792.0,4338.0 2779.0,4315.0 2771.0,4283.0 C 2764.0,4257.0 2754.0,4229.0 2748.0,4222.0 C 2742.0,4215.0 2733.0,4147.0 2728.0,4072.0 C 2716.0,3897.0 2714.0,3882.0 2691.0,3780.0 C 2675.0,3710.0 2666.0,3690.0 2641.0,3669.0 C 2602.0,3637.0 2602.0,3610.0 2641.0,3581.0 L 2672.0,3558.0 L 2650.0,3535.0 L 2628.0,3511.0 L 2661.0,3480.0 C 2691.0,3453.0 2700.0,3450.0 2737.0,3456.0 C 2770.0,3461.0 2787.0,3458.0 2813.0,3441.0 C 2853.0,3417.0 2885.0,3415.0 2920.0,3435.0 C 2936.0,3444.0 2975.0,3449.0 3030.0,3450.0 C 3129.0,3450.0 3156.0,3462.0 3215.0,3535.0 C 3246.0,3573.0 3254.0,3591.0 3258.0,3635.0 C 3261.0,3677.0 3267.0,3690.0 3285.0,3700.0 C 3300.0,3708.0 3320.0,3742.0 3342.0,3794.0 C 3361.0,3838.0 3411.0,3928.0 3454.0,3992.0 C 3530.0,4107.0 3532.0,4109.0 3575.0,4116.0 C 3600.0,4119.0 3628.0,4118.0 3637.0,4114.0 C 3650.0,4108.0 3640.0,4104.0 3602.0,4102.0 C 3563.0,4100.0 3547.0,4094.0 3543.0,4082.0 C 3539.0,4073.0 3525.0,4047.0 3510.0,4025.0 C 3462.0,3952.0 3437.0,3881.0 3444.0,3833.0 C 3447.0,3808.0 3445.0,3779.0 3438.0,3764.0 C 3427.0,3742.0 3428.0,3736.0 3445.0,3724.0 C 3455.0,3716.0 3461.0,3708.0 3458.0,3705.0 C 3455.0,3701.0 3458.0,3679.0 3465.0,3655.0 C 3478.0,3613.0 3478.0,3611.0 3455.0,3596.0 C 3441.0,3587.0 3418.0,3580.0 3403.0,3580.0 C 3362.0,3580.0 3300.0,3535.0 3300.0,3506.0 C 3300.0,3476.0 3327.0,3468.0 3368.0,3485.0 C 3385.0,3493.0 3401.0,3496.0 3404.0,3493.0 C 3417.0,3479.0 3409.0,3461.0 3388.0,3458.0 C 3372.0,3456.0 3365.0,3448.0 3366.0,3434.0 C 3366.0,3415.0 3361.0,3414.0 3303.0,3414.0 C 3259.0,3415.0 3236.0,3410.0 3225.0,3399.0 C 3210.0,3385.0 3213.0,3381.0 3250.0,3355.0 C 3281.0,3334.0 3290.0,3321.0 3290.0,3299.0 C 3290.0,3263.0 3283.0,3262.0 3270.0,3295.0 C 3260.0,3322.0 3220.0,3343.0 3196.0,3334.0 C 3175.0,3326.0 3168.0,3346.0 3186.0,3360.0 C 3198.0,3371.0 3198.0,3375.0 3188.0,3381.0 C 3181.0,3386.0 3175.0,3397.0 3175.0,3406.0 C 3175.0,3438.0 3144.0,3447.0 3106.0,3426.0 C 3082.0,3413.0 3061.0,3409.0 3039.0,3414.0 C 3003.0,3421.0 2930.0,3411.0 2930.0,3399.0 C 2930.0,3394.0 2948.0,3381.0 2969.0,3370.0 C 3018.0,3346.0 3054.0,3298.0 3045.0,3270.0 C 3041.0,3257.0 3046.0,3240.0 3059.0,3224.0 C 3077.0,3201.0 3080.0,3183.0 3080.0,3103.0 C 3080.0,3023.0 3076.0,3002.0 3055.0,2960.0 C 3042.0,2933.0 3026.0,2909.0 3020.0,2905.0 C 3005.0,2896.0 3008.0,2880.0 3024.0,2886.0 C 3032.0,2889.0 3047.0,2887.0 3058.0,2881.0 C 3073.0,2873.0 3081.0,2875.0 3095.0,2890.0 C 3107.0,2904.0 3126.0,2910.0 3154.0,2910.0 C 3177.0,2910.0 3213.0,2917.0 3235.0,2925.0 C 3257.0,2933.0 3289.0,2939.0 3305.0,2940.0 C 3322.0,2940.0 3346.0,2947.0 3360.0,2955.0 C 3374.0,2963.0 3409.0,2981.0 3438.0,2995.0 C 3475.0,3012.0 3490.0,3026.0 3490.0,3040.0 C 3490.0,3052.0 3502.0,3066.0 3521.0,3076.0 C 3558.0,3094.0 3594.0,3084.0 3645.0,3039.0 C 3672.0,3015.0 3706.0,3005.0 3747.0,3009.0 C 3764.0,3010.0 3779.0,3071.0 3768.0,3093.0 C 3763.0,3103.0 3762.0,3119.0 3766.0,3128.0 C 3770.0,3137.0 3772.0,3151.0 3771.0,3158.0 C 3770.0,3164.0 3775.0,3170.0 3783.0,3170.0 C 3792.0,3170.0 3796.0,3158.0 3795.0,3134.0 C 3795.0,3115.0 3798.0,3096.0 3803.0,3093.0 C 3808.0,3090.0 3809.0,3058.0 3806.0,3020.0 C 3801.0,2968.0 3802.0,2951.0 3813.0,2941.0 C 3821.0,2935.0 3832.0,2931.0 3837.0,2932.0 C 3843.0,2934.0 3861.0,2920.0 3877.0,2903.0 L 3908.0,2870.0 L 3875.0,2870.0 C 3852.0,2870.0 3829.0,2881.0 3799.0,2906.0 C 3768.0,2932.0 3755.0,2938.0 3749.0,2928.0 C 3743.0,2919.0 3739.0,2920.0 3734.0,2934.0 C 3730.0,2945.0 3720.0,2950.0 3709.0,2947.0 C 3699.0,2944.0 3689.0,2948.0 3686.0,2956.0 C 3676.0,2981.0 3657.0,2972.0 3664.0,2945.0 C 3668.0,2931.0 3668.0,2920.0 3666.0,2920.0 C 3653.0,2920.0 3591.0,2988.0 3585.0,3008.0 C 3579.0,3029.0 3545.0,3050.0 3519.0,3050.0 C 3500.0,3050.0 3540.0,2991.0 3589.0,2949.0 C 3663.0,2883.0 3682.0,2835.0 3701.0,2665.0 C 3724.0,2462.0 3724.0,2440.0 3703.0,2401.0 C 3692.0,2381.0 3676.0,2343.0 3667.0,2315.0 C 3659.0,2288.0 3637.0,2218.0 3620.0,2160.0 C 3591.0,2066.0 3584.0,2053.0 3556.0,2040.0 C 3520.0,2023.0 3511.0,1990.0 3538.0,1975.0 C 3594.0,1946.0 3640.0,1907.0 3646.0,1886.0 C 3649.0,1873.0 3647.0,1847.0 3642.0,1829.0 C 3637.0,1808.0 3637.0,1783.0 3642.0,1765.0 C 3656.0,1720.0 3652.0,1669.0 3634.0,1634.0 C 3616.0,1601.0 3620.0,1560.0 3643.0,1539.0 C 3657.0,1525.0 3650.0,1402.0 3629.0,1292.0 C 3618.0,1238.0 3619.0,1225.0 3633.0,1196.0 C 3662.0,1134.0 3664.0,1093.0 3642.0,1042.0 C 3631.0,1016.0 3616.0,963.0 3610.0,923.0 C 3602.0,872.0 3590.0,839.0 3570.0,811.0 C 3540.0,770.0 3525.0,686.0 3540.0,645.0 C 3553.0,608.0 3508.0,523.0 3466.0,507.0 C 3452.0,502.0 3450.0,494.0 3455.0,477.0 C 3476.0,410.0 3473.0,394.0 3431.0,349.0 C 3408.0,325.0 3390.0,300.0 3390.0,294.0 C 3390.0,288.0 3383.0,277.0 3374.0,269.0 C 3365.0,262.0 3360.0,247.0 3363.0,234.0 C 3365.0,221.0 3360.0,208.0 3348.0,201.0 C 3323.0,185.0 3324.0,157.0 3350.0,165.0 C 3363.0,169.0 3378.0,163.0 3395.0,146.0 C 3409.0,132.0 3423.0,120.0 3426.0,120.0 C 3428.0,120.0 3448.0,137.0 3470.0,157.0 C 3502.0,188.0 3516.0,194.0 3544.0,192.0 C 3571.0,189.0 3582.0,194.0 3592.0,209.0 C 3602.0,226.0 3615.0,230.0 3657.0,230.0 C 3685.0,230.0 3711.0,234.0 3714.0,239.0 C 3723.0,253.0 3801.0,262.0 3816.0,249.0 C 3835.0,233.0 3851.0,247.0 3848.0,278.0 C 3846.0,299.0 3849.0,305.0 3865.0,305.0 C 3876.0,305.0 3891.0,309.0 3898.0,313.0 C 3905.0,318.0 3916.0,317.0 3923.0,312.0 C 3930.0,306.0 3965.0,305.0 4009.0,309.0 C 4062.0,314.0 4083.0,313.0 4087.0,304.0 C 4093.0,287.0 4152.0,278.0 4258.0,279.0 C 4343.0,279.0 4355.0,277.0 4391.0,253.0 C 4426.0,230.0 4433.0,228.0 4455.0,240.0 C 4468.0,247.0 4488.0,250.0 4500.0,247.0 C 4512.0,244.0 4534.0,246.0 4549.0,252.0 C 4583.0,266.0 4619.0,264.0 4639.0,246.0 C 4648.0,239.0 4666.0,229.0 4680.0,225.0 C 4710.0,217.0 4891.0,113.0 4973.0,58.0 C 5060.0,-1.0 5080.0,-6.0 5132.0,20.0 C 5155.0,32.0 5189.0,55.0 5205.0,70.0 C 5222.0,85.0 5255.0,110.0 5280.0,125.0 C 5305.0,140.0 5316.0,149.0 5305.0,145.0 C 5294.0,141.0 5271.0,134.0 5254.0,129.0 C 5236.0,124.0 5211.0,105.0 5197.0,87.0 C 5183.0,70.0 5156.0,47.0 5137.0,36.0 C 5105.0,19.0 5097.0,19.0 5068.0,31.0 L 5036.0,44.0 L 5077.0,56.0 C 5125.0,70.0 5210.0,118.0 5210.0,131.0 C 5210.0,136.0 5222.0,142.0 5238.0,146.0 C 5253.0,150.0 5276.0,159.0 5289.0,167.0 C 5303.0,176.0 5324.0,180.0 5341.0,176.0 C 5357.0,173.0 5381.0,175.0 5394.0,180.0 C 5429.0,193.0 5550.0,314.0 5551.0,336.0 C 5551.0,347.0 5569.0,370.0 5592.0,387.0 C 5628.0,416.0 5640.0,420.0 5699.0,422.0 C 5797.0,424.0 5823.0,420.0 5836.0,402.0 C 5857.0,374.0 5864.0,398.0 5847.0,437.0 C 5813.0,516.0 5806.0,557.0 5819.0,600.0 C 5829.0,634.0 5828.0,643.0 5814.0,665.0 C 5802.0,683.0 5797.0,722.0 5794.0,825.0 L 5789.0,961.0 L 5750.0,1022.0 C 5712.0,1081.0 5686.0,1147.0 5688.0,1181.0 C 5690.0,1225.0 5714.0,1283.0 5764.0,1361.0 C 5813.0,1440.0 5817.0,1452.0 5813.0,1492.0 L 5808.0,1536.0 L 5913.0,1633.0 L 6018.0,1730.0 L 6066.0,1870.0 L 6115.0,2009.0 L 6194.0,2031.0 C 6238.0,2042.0 6284.0,2059.0 6296.0,2067.0 C 6313.0,2078.0 6329.0,2079.0 6368.0,2072.0 C 6429.0,2061.0 6496.0,2082.0 6481.0,2108.0 C 6475.0,2118.0 6486.0,2165.0 6515.0,2249.0 C 6555.0,2370.0 6574.0,2440.0 6566.0,2440.0 C 6563.0,2440.0 6520.0,2424.0 6470.0,2405.0 L 6378.0,2370.0 L 6350.0,2392.0 C 6329.0,2409.0 6318.0,2431.0 6309.0,2470.0 C 6298.0,2519.0 6286.0,2536.0 6202.0,2625.0 C 6139.0,2692.0 6097.0,2748.0 6074.0,2793.0 C 6055.0,2830.0 6025.0,2874.0 6007.0,2889.0 L 5976.0,2918.0 L 5997.0,2966.0 C 6010.0,2995.0 6021.0,3045.0 6024.0,3089.0 C 6028.0,3145.0 6035.0,3172.0 6051.0,3194.0 C 6069.0,3218.0 6075.0,3245.0 6081.0,3320.0 C 6086.0,3372.0 6089.0,3427.0 6090.0,3441.0 C 6090.0,3463.0 6101.0,3472.0 6163.0,3502.0 C 6245.0,3542.0 6255.0,3551.0 6273.0,3606.0 C 6285.0,3641.0 6292.0,3646.0 6331.0,3653.0 C 6355.0,3658.0 6387.0,3673.0 6402.0,3685.0 C 6417.0,3698.0 6439.0,3711.0 6450.0,3715.0 C 6476.0,3723.0 6476.0,3737.0 6450.0,3745.0 C 6419.0,3755.0 6426.0,3792.0 6473.0,3859.0 C 6541.0,3958.0 6560.0,3993.0 6560.0,4020.0 C 6560.0,4088.0 6491.0,4205.0 6447.0,4212.0 C 6435.0,4214.0 6403.0,4212.0 6376.0,4207.0 C 6331.0,4199.0 6325.0,4200.0 6308.0,4222.0 C 6299.0,4235.0 6290.0,4262.0 6290.0,4282.0 C 6290.0,4310.0 6285.0,4322.0 6268.0,4331.0 C 6241.0,4345.0 6222.0,4367.0 6171.0,4440.0 C 6140.0,4485.0 6134.0,4499.0 6142.0,4519.0 C 6149.0,4538.0 6146.0,4546.0 6128.0,4558.0 C 6115.0,4567.0 6086.0,4594.0 6062.0,4620.0 C 6014.0,4670.0 6014.0,4672.0 6039.0,4824.0 C 6051.0,4896.0 6041.0,4922.0 5991.0,4945.0 C 5970.0,4954.0 5946.0,4974.0 5937.0,4990.0 C 5928.0,5005.0 5895.0,5042.0 5864.0,5071.0 C 5833.0,5101.0 5799.0,5143.0 5789.0,5165.0 C 5779.0,5187.0 5757.0,5229.0 5739.0,5259.0 C 5707.0,5313.0 5707.0,5313.0 5731.0,5306.0 C 5744.0,5302.0 5791.0,5297.0 5835.0,5294.0 C 5879.0,5291.0 5937.0,5284.0 5963.0,5278.0 C 5999.0,5270.0 6022.0,5271.0 6056.0,5280.0 C 6081.0,5287.0 6120.0,5290.0 6146.0,5286.0 C 6171.0,5283.0 6199.0,5284.0 6208.0,5289.0 C 6218.0,5294.0 6257.0,5292.0 6304.0,5284.0 L 6383.0,5270.0 L 6429.0,5304.0 C 6454.0,5323.0 6484.0,5347.0 6494.0,5358.0 C 6516.0,5383.0 6571.0,5597.0 6563.0,5628.0 C 6559.0,5647.0 6565.0,5658.0 6593.0,5681.0 C 6635.0,5715.0 6647.0,5752.0 6625.0,5783.0 C 6607.0,5809.0 6606.0,5827.0 6623.0,5860.0 C 6631.0,5875.0 6639.0,5916.0 6643.0,5952.0 C 6649.0,6013.0 6647.0,6020.0 6620.0,6061.0 C 6603.0,6085.0 6580.0,6120.0 6568.0,6139.0 C 6556.0,6158.0 6529.0,6180.0 6503.0,6191.0 C 6461.0,6209.0 6460.0,6210.0 6460.0,6258.0 C 6460.0,6285.0 6467.0,6327.0 6475.0,6350.0 C 6495.0,6408.0 6566.0,6490.0 6595.0,6490.0 C 6660.0,6490.0 6678.0,6501.0 6696.0,6551.0 C 6708.0,6583.0 6727.0,6610.0 6752.0,6630.0 C 6773.0,6647.0 6790.0,6665.0 6790.0,6670.0 C 6790.0,6676.0 6772.0,6696.0 6751.0,6715.0 C 6709.0,6753.0 6680.0,6819.0 6680.0,6875.0 C 6680.0,6898.0 6691.0,6920.0 6720.0,6953.0 C 6745.0,6981.0 6760.0,7008.0 6760.0,7024.0 C 6760.0,7053.0 6720.0,7100.0 6697.0,7100.0 C 6666.0,7100.0 6672.0,7138.0 6706.0,7170.0 C 6737.0,7198.0 6740.0,7205.0 6740.0,7258.0 C 6740.0,7289.0 6735.0,7367.0 6729.0,7430.0 C 6723.0,7493.0 6717.0,7577.0 6715.0,7615.0 C 6712.0,7684.0 6694.0,7736.0 6665.0,7760.0 C 6657.0,7767.0 6650.0,7785.0 6650.0,7801.0 C 6650.0,7843.0 6636.0,7871.0 6596.0,7910.0 C 6567.0,7938.0 6530.0,7997.0 6530.0,8016.0 C 6530.0,8018.0 6542.0,8020.0 6556.0,8020.0 C 6570.0,8020.0 6612.0,8029.0 6650.0,8041.0 C 6740.0,8068.0 6771.0,8101.0 6804.0,8207.0 C 6823.0,8269.0 6844.0,8308.0 6890.0,8369.0 C 6955.0,8456.0 6977.0,8474.0 7028.0,8485.0 C 7046.0,8489.0 7073.0,8502.0 7088.0,8514.0 C 7103.0,8527.0 7126.0,8540.0 7140.0,8543.0 C 7242.0,8566.0 7270.0,8580.0 7270.0,8605.0 C 7270.0,8611.0 7288.0,8636.0 7310.0,8659.0 C 7332.0,8682.0 7353.0,8712.0 7356.0,8726.0 C 7361.0,8743.0 7376.0,8757.0 7412.0,8772.0 C 7449.0,8788.0 7466.0,8802.0 7475.0,8824.0 C 7482.0,8841.0 7512.0,8896.0 7542.0,8946.0 C 7572.0,8996.0 7602.0,9055.0 7609.0,9078.0 L 7623.0,9119.0 L 7566.0,9181.0 C 7490.0,9265.0 7392.0,9310.0 7284.0,9310.0 C 7228.0,9310.0 7211.0,9307.0 7206.0,9294.0 C 7195.0,9265.0 7144.0,9315.0 7101.0,9396.0 L 7062.0,9472.0 L 7081.0,9527.0 C 7091.0,9558.0 7100.0,9600.0 7100.0,9620.0 C 7100.0,9640.0 7105.0,9661.0 7112.0,9668.0 C 7127.0,9683.0 7105.0,9710.0 7078.0,9710.0 C 7050.0,9710.0 7044.0,9738.0 7062.0,9788.0 C 7078.0,9832.0 7078.0,9832.0 7052.0,9856.0 C 7019.0,9885.0 7023.0,9884.0 6966.0,9860.0 C 6931.0,9844.0 6904.0,9840.0 6853.0,9842.0 C 6785.0,9845.0 6785.0,9845.0 6765.0,9884.0 C 6728.0,9956.0 6670.0,9952.0 6670.0,9879.0 C 6670.0,9836.0 6678.0,9838.0 6547.0,9835.0 C 6492.0,9833.0 6489.0,9835.0 6470.0,9867.0 C 6448.0,9905.0 6429.0,9908.0 6393.0,9880.0 C 6377.0,9867.0 6352.0,9860.0 6326.0,9860.0 C 6289.0,9860.0 6283.0,9863.0 6273.0,9890.0 C 6263.0,9916.0 6257.0,9920.0 6225.0,9920.0 C 6176.0,9920.0 6109.0,9900.0 6103.0,9883.0 C 6100.0,9876.0 6106.0,9851.0 6115.0,9827.0 C 6142.0,9755.0 6135.0,9742.0 6040.0,9682.0 C 5962.0,9633.0 5951.0,9629.0 5909.0,9634.0 C 5858.0,9639.0 5844.0,9634.0 5839.0,9605.0 C 5831.0,9563.0 5750.0,9585.0 5750.0,9629.0 C 5750.0,9687.0 5668.0,9713.0 5662.0,9658.0 C 5659.0,9630.0 5636.0,9618.0 5558.0,9605.0 C 5526.0,9599.0 5521.0,9601.0 5515.0,9621.0 C 5509.0,9638.0 5513.0,9648.0 5529.0,9662.0 C 5560.0,9686.0 5547.0,9700.0 5496.0,9700.0 C 5467.0,9700.0 5444.0,9707.0 5426.0,9721.0 C 5399.0,9742.0 5398.0,9742.0 5308.0,9726.0 C 5237.0,9713.0 5209.0,9703.0 5181.0,9680.0 C 5162.0,9663.0 5143.0,9650.0 5139.0,9650.0 C 5136.0,9650.0 5127.0,9683.0 5120.0,9724.0 C 5105.0,9813.0 5101.0,9821.0 5072.0,9813.0 C 5054.0,9809.0 5050.0,9800.0 5050.0,9771.0 C 5050.0,9737.0 5047.0,9733.0 5008.0,9720.0 C 4969.0,9706.0 4965.0,9701.0 4962.0,9669.0 C 4959.0,9638.0 4954.0,9630.0 4922.0,9616.0 C 4867.0,9592.0 4792.0,9580.0 4760.0,9592.0 C 4735.0,9600.0 4731.0,9609.0 4721.0,9662.0 C 4712.0,9715.0 4692.0,9748.0 4669.0,9750.0 C 4666.0,9750.0 4658.0,9761.0 4652.0,9775.0 C 4641.0,9798.0 4644.0,9806.0 4679.0,9853.0 C 4700.0,9882.0 4720.0,9915.0 4724.0,9926.0 C 4727.0,9938.0 4748.0,9955.0 4770.0,9965.0 C 4808.0,9982.0 4810.0,9985.0 4810.0,10030.0 C 4810.0,10066.0 4805.0,10081.0 4786.0,10099.0 C 4766.0,10118.0 4758.0,10120.0 4741.0,10111.0 C 4730.0,10105.0 4709.0,10103.0 4694.0,10106.0 C 4668.0,10113.0 4668.0,10114.0 4673.0,10176.0 C 4675.0,10211.0 4675.0,10240.0 4671.0,10239.0 C 4668.0,10239.0 4630.0,10220.0 4587.0,10196.0 M 3990.0,7691.0 C 3990.0,7686.0 3983.0,7669.0 3975.0,7654.0 L 3960.0,7625.0 L 3960.0,7656.0 C 3960.0,7673.0 3963.0,7690.0 3967.0,7693.0 C 3976.0,7703.0 3990.0,7702.0 3990.0,7691.0" fill="pink"/>
</svg>
