<?xml version="1.0" ?>
<svg xmlns="http://www.w3.org/2000/svg" xmlns:ev="http://www.w3.org/2001/xml-events" xmlns:xlink="http://www.w3.org/1999/xlink" baseProfile="full" height="600px" version="1.1" viewBox="2190.4344484892767 -1031.17259937038 5854.367422720035 12298.868575560464" width="286px">
	<defs/>
	<path d="M 5405.0,10233.0 C 5394.0,10230.0 5367.0,10207.0 5344.0,10182.0 L 5304.0,10136.0 L 5256.0,10152.0 C 5216.0,10165.0 5208.0,10166.0 5203.0,10154.0 C 5197.0,10137.0 5119.0,10135.0 5103.0,10151.0 C 5085.0,10169.0 5073.0,10154.0 5067.0,10109.0 C 5060.0,10059.0 5022.0,10015.0 4962.0,9989.0 C 4915.0,9969.0 4903.0,9951.0 4918.0,9923.0 C 4925.0,9910.0 4924.0,9899.0 4914.0,9885.0 C 4906.0,9875.0 4900.0,9855.0 4900.0,9841.0 C 4900.0,9820.0 4887.0,9807.0 4828.0,9770.0 C 4741.0,9715.0 4720.0,9706.0 4720.0,9724.0 C 4720.0,9745.0 4693.0,9762.0 4671.0,9755.0 C 4659.0,9752.0 4636.0,9735.0 4620.0,9718.0 C 4597.0,9695.0 4586.0,9690.0 4577.0,9699.0 C 4559.0,9717.0 4540.0,9712.0 4503.0,9680.0 C 4484.0,9663.0 4435.0,9633.0 4394.0,9614.0 C 4353.0,9594.0 4320.0,9574.0 4320.0,9569.0 C 4320.0,9565.0 4302.0,9555.0 4281.0,9549.0 C 4242.0,9537.0 4242.0,9537.0 4262.0,9521.0 C 4292.0,9496.0 4292.0,9379.0 4261.0,9346.0 C 4244.0,9328.0 4240.0,9311.0 4240.0,9256.0 C 4240.0,9189.0 4239.0,9188.0 4216.0,9192.0 C 4194.0,9196.0 4192.0,9194.0 4196.0,9166.0 C 4201.0,9139.0 4194.0,9128.0 4146.0,9079.0 C 4098.0,9029.0 4089.0,9024.0 4078.0,9037.0 C 4071.0,9046.0 4063.0,9076.0 4060.0,9104.0 C 4055.0,9151.0 4053.0,9155.0 4028.0,9158.0 C 4000.0,9161.0 4000.0,9161.0 4000.0,9101.0 C 4000.0,9068.0 4004.0,9039.0 4009.0,9036.0 C 4013.0,9033.0 4018.0,9005.0 4018.0,8973.0 C 4019.0,8941.0 4024.0,8899.0 4030.0,8880.0 C 4055.0,8795.0 4023.0,8669.0 3970.0,8640.0 C 3959.0,8634.0 3950.0,8621.0 3950.0,8611.0 C 3950.0,8602.0 3939.0,8583.0 3925.0,8570.0 C 3899.0,8545.0 3903.0,8519.0 3936.0,8506.0 C 3951.0,8500.0 3951.0,8502.0 3939.0,8516.0 C 3928.0,8530.0 3929.0,8532.0 3950.0,8528.0 C 3987.0,8523.0 3986.0,8496.0 3948.0,8472.0 C 3914.0,8450.0 3890.0,8457.0 3890.0,8486.0 C 3890.0,8511.0 3871.0,8501.0 3864.0,8473.0 C 3860.0,8457.0 3851.0,8436.0 3844.0,8425.0 C 3835.0,8413.0 3830.0,8377.0 3830.0,8330.0 C 3830.0,8262.0 3833.0,8251.0 3854.0,8231.0 C 3873.0,8213.0 3885.0,8209.0 3906.0,8214.0 C 3923.0,8219.0 3941.0,8215.0 3956.0,8205.0 C 3976.0,8192.0 3980.0,8181.0 3980.0,8142.0 C 3980.0,8116.0 3987.0,8086.0 3995.0,8076.0 C 4009.0,8058.0 4008.0,8054.0 3983.0,8028.0 C 3962.0,8006.0 3956.0,7991.0 3958.0,7967.0 C 3961.0,7940.0 3954.0,7927.0 3922.0,7895.0 C 3889.0,7864.0 3827.0,7831.0 3798.0,7830.0 C 3794.0,7830.0 3802.0,7854.0 3815.0,7883.0 C 3829.0,7911.0 3840.0,7943.0 3840.0,7953.0 C 3840.0,7975.0 3779.0,8079.0 3766.0,8080.0 C 3761.0,8080.0 3748.0,8087.0 3738.0,8097.0 C 3711.0,8121.0 3676.0,8101.0 3646.0,8042.0 C 3631.0,8012.0 3607.0,7985.0 3587.0,7972.0 C 3556.0,7955.0 3551.0,7945.0 3542.0,7891.0 C 3531.0,7831.0 3531.0,7830.0 3566.0,7778.0 C 3584.0,7749.0 3600.0,7720.0 3600.0,7713.0 C 3600.0,7688.0 3576.0,7650.0 3560.0,7650.0 C 3542.0,7650.0 3512.0,7613.0 3486.0,7558.0 C 3470.0,7525.0 3470.0,7512.0 3480.0,7426.0 C 3487.0,7374.0 3490.0,7323.0 3486.0,7314.0 C 3483.0,7305.0 3489.0,7270.0 3500.0,7236.0 C 3510.0,7203.0 3524.0,7156.0 3530.0,7133.0 C 3536.0,7110.0 3551.0,7083.0 3563.0,7073.0 C 3576.0,7063.0 3589.0,7047.0 3593.0,7038.0 C 3597.0,7027.0 3610.0,7020.0 3624.0,7020.0 C 3639.0,7020.0 3656.0,7010.0 3668.0,6993.0 L 3688.0,6965.0 L 3726.0,6983.0 C 3752.0,6996.0 3766.0,6998.0 3773.0,6991.0 C 3779.0,6985.0 3790.0,6980.0 3798.0,6980.0 C 3810.0,6980.0 3810.0,6983.0 3800.0,6995.0 C 3791.0,7006.0 3791.0,7010.0 3799.0,7010.0 C 3805.0,7010.0 3813.0,7003.0 3816.0,6995.0 C 3827.0,6968.0 3885.0,6976.0 3909.0,7008.0 L 3930.0,7035.0 L 3918.0,7000.0 C 3912.0,6981.0 3903.0,6959.0 3897.0,6952.0 C 3892.0,6946.0 3890.0,6927.0 3893.0,6912.0 C 3901.0,6875.0 3869.0,6823.0 3834.0,6814.0 C 3812.0,6808.0 3802.0,6813.0 3775.0,6842.0 C 3758.0,6862.0 3733.0,6881.0 3722.0,6884.0 C 3710.0,6888.0 3700.0,6899.0 3699.0,6908.0 C 3699.0,6923.0 3697.0,6923.0 3687.0,6906.0 C 3680.0,6896.0 3664.0,6874.0 3651.0,6858.0 C 3635.0,6838.0 3630.0,6823.0 3634.0,6805.0 C 3641.0,6779.0 3628.0,6747.0 3603.0,6722.0 C 3595.0,6713.0 3592.0,6696.0 3596.0,6672.0 C 3600.0,6644.0 3594.0,6619.0 3571.0,6567.0 C 3554.0,6529.0 3540.0,6491.0 3540.0,6483.0 C 3540.0,6475.0 3554.0,6463.0 3570.0,6457.0 C 3597.0,6447.0 3614.0,6410.0 3591.0,6410.0 C 3587.0,6410.0 3570.0,6400.0 3555.0,6388.0 C 3529.0,6368.0 3528.0,6366.0 3546.0,6353.0 C 3569.0,6336.0 3580.0,6336.0 3580.0,6355.0 C 3580.0,6379.0 3607.0,6361.0 3621.0,6329.0 C 3632.0,6300.0 3631.0,6297.0 3590.0,6255.0 C 3549.0,6213.0 3548.0,6211.0 3555.0,6161.0 C 3563.0,6104.0 3557.0,6098.0 3528.0,6136.0 C 3494.0,6179.0 3451.0,6161.0 3424.0,6092.0 C 3423.0,6091.0 3416.0,6092.0 3408.0,6095.0 C 3396.0,6100.0 3393.0,6118.0 3394.0,6178.0 C 3395.0,6243.0 3398.0,6255.0 3413.0,6258.0 C 3422.0,6260.0 3430.0,6270.0 3430.0,6281.0 C 3430.0,6304.0 3447.0,6306.0 3470.0,6285.0 C 3485.0,6272.0 3489.0,6272.0 3499.0,6283.0 C 3507.0,6294.0 3507.0,6304.0 3495.0,6326.0 C 3478.0,6360.0 3476.0,6380.0 3490.0,6380.0 C 3509.0,6380.0 3500.0,6397.0 3475.0,6408.0 C 3461.0,6415.0 3448.0,6420.0 3447.0,6420.0 C 3445.0,6420.0 3446.0,6405.0 3447.0,6388.0 C 3449.0,6370.0 3446.0,6348.0 3440.0,6340.0 C 3431.0,6327.0 3425.0,6331.0 3400.0,6360.0 C 3342.0,6427.0 3335.0,6447.0 3338.0,6548.0 C 3340.0,6628.0 3338.0,6641.0 3322.0,6647.0 C 3276.0,6664.0 3277.0,6733.0 3324.0,6795.0 C 3343.0,6819.0 3361.0,6854.0 3365.0,6872.0 C 3369.0,6890.0 3376.0,6910.0 3380.0,6915.0 C 3390.0,6927.0 3389.0,7040.0 3380.0,7040.0 C 3377.0,7040.0 3369.0,7035.0 3363.0,7029.0 C 3356.0,7022.0 3346.0,7029.0 3331.0,7055.0 C 3313.0,7086.0 3305.0,7091.0 3286.0,7086.0 C 3250.0,7077.0 3232.0,7088.0 3220.0,7126.0 C 3204.0,7174.0 3184.0,7164.0 3188.0,7111.0 C 3190.0,7088.0 3186.0,7062.0 3179.0,7054.0 C 3164.0,7035.0 3181.0,7015.0 3249.0,6975.0 C 3304.0,6942.0 3318.0,6915.0 3274.0,6926.0 C 3253.0,6931.0 3249.0,6930.0 3254.0,6919.0 C 3258.0,6911.0 3252.0,6916.0 3241.0,6929.0 C 3229.0,6942.0 3220.0,6958.0 3220.0,6965.0 C 3220.0,6977.0 3170.0,6993.0 3161.0,6984.0 C 3159.0,6982.0 3180.0,6958.0 3209.0,6930.0 C 3237.0,6903.0 3260.0,6878.0 3260.0,6874.0 C 3260.0,6867.0 3162.0,6955.0 3144.0,6979.0 C 3135.0,6990.0 3127.0,6991.0 3097.0,6981.0 C 3076.0,6974.0 3060.0,6965.0 3060.0,6962.0 C 3060.0,6958.0 3056.0,6949.0 3051.0,6941.0 C 3044.0,6930.0 3038.0,6929.0 3028.0,6937.0 C 3006.0,6956.0 2962.0,6940.0 2940.0,6905.0 C 2914.0,6863.0 2915.0,6848.0 2943.0,6822.0 C 2970.0,6796.0 2985.0,6795.0 3021.0,6814.0 C 3036.0,6821.0 3059.0,6825.0 3074.0,6823.0 C 3094.0,6819.0 3102.0,6809.0 3110.0,6776.0 C 3116.0,6754.0 3123.0,6728.0 3126.0,6720.0 C 3129.0,6712.0 3133.0,6668.0 3135.0,6624.0 C 3139.0,6546.0 3138.0,6541.0 3112.0,6514.0 C 3097.0,6498.0 3078.0,6463.0 3069.0,6436.0 C 3053.0,6389.0 3053.0,6387.0 3071.0,6383.0 C 3082.0,6380.0 3097.0,6365.0 3106.0,6349.0 C 3114.0,6333.0 3125.0,6320.0 3132.0,6320.0 C 3139.0,6320.0 3141.0,6306.0 3137.0,6281.0 C 3133.0,6251.0 3137.0,6237.0 3156.0,6214.0 C 3183.0,6180.0 3185.0,6170.0 3165.0,6170.0 C 3157.0,6170.0 3146.0,6161.0 3140.0,6151.0 C 3131.0,6134.0 3136.0,6126.0 3170.0,6099.0 C 3219.0,6060.0 3223.0,6027.0 3183.0,6007.0 C 3134.0,5982.0 3080.0,6020.0 3080.0,6079.0 C 3079.0,6136.0 3063.0,6193.0 3042.0,6210.0 C 3030.0,6219.0 3017.0,6248.0 3010.0,6282.0 C 2988.0,6393.0 2911.0,6436.0 2841.0,6377.0 C 2823.0,6362.0 2803.0,6350.0 2797.0,6350.0 C 2785.0,6349.0 2724.0,6273.0 2713.0,6243.0 C 2708.0,6231.0 2711.0,6228.0 2723.0,6233.0 C 2736.0,6238.0 2744.0,6230.0 2756.0,6202.0 C 2775.0,6156.0 2768.0,6096.0 2734.0,6021.0 C 2720.0,5991.0 2707.0,5939.0 2704.0,5906.0 C 2701.0,5872.0 2694.0,5823.0 2688.0,5797.0 C 2679.0,5753.0 2680.0,5747.0 2700.0,5725.0 C 2720.0,5704.0 2721.0,5698.0 2710.0,5666.0 C 2701.0,5637.0 2702.0,5627.0 2714.0,5608.0 C 2725.0,5591.0 2731.0,5546.0 2735.0,5451.0 C 2738.0,5378.0 2745.0,5309.0 2751.0,5299.0 C 2756.0,5288.0 2764.0,5219.0 2767.0,5146.0 C 2772.0,5035.0 2770.0,5006.0 2757.0,4978.0 C 2747.0,4957.0 2738.0,4900.0 2734.0,4828.0 C 2728.0,4733.0 2730.0,4704.0 2743.0,4672.0 C 2754.0,4644.0 2757.0,4623.0 2751.0,4603.0 C 2736.0,4552.0 2755.0,4332.0 2779.0,4272.0 C 2800.0,4221.0 2800.0,4212.0 2790.0,4072.0 C 2784.0,3991.0 2777.0,3909.0 2774.0,3890.0 C 2769.0,3856.0 2771.0,3853.0 2825.0,3816.0 C 2893.0,3769.0 2913.0,3742.0 2956.0,3637.0 C 2986.0,3566.0 2990.0,3545.0 2990.0,3470.0 C 2989.0,3410.0 2985.0,3379.0 2974.0,3365.0 C 2948.0,3331.0 2920.0,3221.0 2920.0,3153.0 C 2920.0,3082.0 2932.0,3060.0 3016.0,2970.0 C 3044.0,2940.0 3064.0,2906.0 3076.0,2867.0 C 3092.0,2816.0 3102.0,2802.0 3157.0,2758.0 C 3212.0,2713.0 3220.0,2702.0 3220.0,2672.0 C 3220.0,2653.0 3229.0,2627.0 3240.0,2613.0 C 3251.0,2599.0 3260.0,2577.0 3260.0,2565.0 C 3260.0,2553.0 3269.0,2518.0 3279.0,2487.0 C 3298.0,2432.0 3298.0,2431.0 3279.0,2414.0 C 3267.0,2403.0 3262.0,2390.0 3266.0,2377.0 C 3277.0,2343.0 3274.0,2266.0 3260.0,2225.0 C 3241.0,2168.0 3246.0,2134.0 3285.0,2062.0 C 3304.0,2028.0 3320.0,1993.0 3320.0,1986.0 C 3320.0,1979.0 3311.0,1944.0 3300.0,1910.0 C 3289.0,1876.0 3280.0,1831.0 3280.0,1811.0 C 3280.0,1790.0 3274.0,1767.0 3268.0,1759.0 C 3245.0,1731.0 3156.0,1682.0 3098.0,1666.0 C 3067.0,1657.0 3039.0,1646.0 3036.0,1641.0 C 3033.0,1637.0 3079.0,1555.0 3137.0,1459.0 C 3200.0,1357.0 3331.0,1111.0 3454.0,865.0 L 3665.0,445.0 L 3840.0,318.0 L 4015.0,190.0 L 4310.0,94.0 L 4604.0,-2.0 L 5140.0,100.0 C 5434.0,155.0 5683.0,204.0 5694.0,207.0 C 5708.0,211.0 5711.0,218.0 5706.0,241.0 C 5703.0,257.0 5707.0,281.0 5715.0,297.0 C 5726.0,318.0 5730.0,361.0 5730.0,462.0 C 5730.0,537.0 5734.0,601.0 5739.0,604.0 C 5744.0,607.0 5751.0,625.0 5754.0,645.0 C 5758.0,664.0 5770.0,686.0 5782.0,694.0 C 5801.0,707.0 5802.0,713.0 5792.0,735.0 C 5778.0,764.0 5760.0,768.0 5760.0,741.0 C 5760.0,731.0 5754.0,717.0 5746.0,711.0 C 5736.0,702.0 5727.0,707.0 5706.0,734.0 C 5691.0,754.0 5668.0,771.0 5650.0,775.0 C 5627.0,780.0 5620.0,787.0 5620.0,805.0 C 5620.0,817.0 5628.0,831.0 5637.0,834.0 C 5652.0,840.0 5652.0,842.0 5640.0,850.0 C 5629.0,857.0 5620.0,854.0 5608.0,840.0 C 5587.0,815.0 5578.0,815.0 5562.0,840.0 C 5553.0,856.0 5543.0,859.0 5522.0,854.0 C 5507.0,850.0 5493.0,843.0 5490.0,839.0 C 5482.0,828.0 5363.0,835.0 5348.0,847.0 C 5341.0,853.0 5318.0,861.0 5298.0,865.0 C 5263.0,872.0 5261.0,874.0 5267.0,901.0 C 5271.0,925.0 5269.0,930.0 5254.0,930.0 C 5237.0,931.0 5237.0,932.0 5258.0,949.0 C 5270.0,960.0 5280.0,976.0 5280.0,987.0 C 5281.0,1004.0 5322.0,1060.0 5335.0,1060.0 C 5338.0,1060.0 5336.0,1051.0 5330.0,1041.0 C 5325.0,1030.0 5320.0,1012.0 5320.0,1000.0 C 5320.0,980.0 5321.0,980.0 5350.0,995.0 C 5366.0,1003.0 5383.0,1017.0 5388.0,1026.0 C 5395.0,1039.0 5407.0,1042.0 5445.0,1038.0 C 5483.0,1033.0 5496.0,1036.0 5511.0,1051.0 C 5521.0,1061.0 5541.0,1070.0 5555.0,1070.0 C 5574.0,1070.0 5581.0,1063.0 5587.0,1040.0 C 5595.0,1011.0 5596.0,1011.0 5616.0,1025.0 C 5634.0,1037.0 5637.0,1047.0 5633.0,1085.0 C 5627.0,1130.0 5635.0,1140.0 5659.0,1118.0 C 5669.0,1107.0 5670.0,1112.0 5665.0,1142.0 C 5660.0,1166.0 5662.0,1180.0 5668.0,1180.0 C 5689.0,1180.0 5691.0,1137.0 5674.0,1074.0 C 5661.0,1025.0 5660.0,1005.0 5668.0,987.0 L 5679.0,965.0 L 5679.0,988.0 C 5680.0,1015.0 5697.0,1050.0 5709.0,1050.0 C 5714.0,1050.0 5720.0,1037.0 5723.0,1021.0 C 5729.0,991.0 5759.0,972.0 5770.0,990.0 C 5779.0,1005.0 5814.0,998.0 5834.0,977.0 C 5857.0,955.0 5864.0,955.0 5857.0,979.0 C 5851.0,1004.0 5870.0,1012.0 5895.0,994.0 C 5923.0,973.0 5930.0,977.0 5930.0,1013.0 C 5931.0,1035.0 5938.0,1050.0 5955.0,1063.0 L 5979.0,1080.0 L 5974.0,1013.0 C 5971.0,975.0 5964.0,923.0 5958.0,897.0 C 5951.0,864.0 5951.0,845.0 5958.0,838.0 C 5972.0,824.0 5977.0,836.0 5998.0,921.0 C 6008.0,961.0 6022.0,996.0 6029.0,998.0 C 6049.0,1005.0 6034.0,895.0 6008.0,845.0 C 5997.0,823.0 5983.0,795.0 5976.0,783.0 C 5969.0,768.0 5956.0,760.0 5938.0,760.0 C 5886.0,760.0 5879.0,752.0 5886.0,701.0 C 5889.0,676.0 5900.0,647.0 5909.0,636.0 C 5921.0,623.0 5924.0,603.0 5922.0,565.0 C 5920.0,536.0 5923.0,509.0 5928.0,506.0 C 5934.0,503.0 5958.0,516.0 5982.0,536.0 C 6005.0,556.0 6049.0,586.0 6077.0,602.0 C 6106.0,619.0 6132.0,636.0 6135.0,641.0 C 6138.0,646.0 6145.0,687.0 6150.0,732.0 C 6158.0,813.0 6172.0,878.0 6193.0,931.0 C 6203.0,954.0 6211.0,958.0 6262.0,964.0 C 6330.0,971.0 6373.0,991.0 6396.0,1025.0 C 6405.0,1039.0 6418.0,1050.0 6426.0,1050.0 C 6453.0,1050.0 6489.0,1116.0 6511.0,1205.0 C 6523.0,1255.0 6541.0,1313.0 6551.0,1336.0 C 6562.0,1358.0 6570.0,1384.0 6570.0,1394.0 C 6570.0,1416.0 6587.0,1448.0 6671.0,1588.0 C 6740.0,1703.0 6757.0,1756.0 6747.0,1822.0 C 6744.0,1846.0 6751.0,1869.0 6771.0,1906.0 C 6793.0,1944.0 6800.0,1970.0 6800.0,2008.0 C 6800.0,2051.0 6808.0,2075.0 6845.0,2143.0 C 6870.0,2189.0 6890.0,2238.0 6890.0,2251.0 C 6890.0,2279.0 6974.0,2374.0 7008.0,2384.0 C 7019.0,2388.0 7035.0,2408.0 7043.0,2428.0 C 7051.0,2449.0 7088.0,2497.0 7124.0,2536.0 C 7168.0,2584.0 7202.0,2634.0 7230.0,2691.0 C 7252.0,2737.0 7279.0,2783.0 7290.0,2792.0 C 7307.0,2805.0 7360.0,2907.0 7360.0,2925.0 C 7360.0,2928.0 7349.0,2930.0 7335.0,2930.0 C 7312.0,2930.0 7310.0,2934.0 7310.0,2973.0 C 7310.0,3024.0 7340.0,3060.0 7383.0,3060.0 C 7418.0,3060.0 7460.0,3080.0 7460.0,3097.0 C 7460.0,3105.0 7477.0,3134.0 7499.0,3163.0 C 7524.0,3197.0 7541.0,3233.0 7547.0,3267.0 C 7557.0,3319.0 7557.0,3319.0 7520.0,3354.0 C 7483.0,3389.0 7461.0,3447.0 7476.0,3471.0 C 7479.0,3477.0 7474.0,3499.0 7465.0,3521.0 C 7449.0,3556.0 7448.0,3568.0 7459.0,3628.0 C 7466.0,3665.0 7476.0,3702.0 7481.0,3710.0 C 7489.0,3721.0 7490.0,3719.0 7486.0,3698.0 C 7483.0,3684.0 7477.0,3665.0 7474.0,3656.0 C 7470.0,3645.0 7473.0,3640.0 7484.0,3640.0 C 7493.0,3640.0 7503.0,3646.0 7506.0,3653.0 C 7509.0,3661.0 7507.0,3744.0 7502.0,3840.0 C 7495.0,3971.0 7496.0,4021.0 7506.0,4048.0 C 7516.0,4080.0 7516.0,4087.0 7499.0,4109.0 C 7489.0,4122.0 7473.0,4155.0 7465.0,4182.0 C 7451.0,4229.0 7452.0,4233.0 7475.0,4283.0 L 7500.0,4335.0 L 7496.0,4285.0 C 7492.0,4241.0 7494.0,4238.0 7506.0,4254.0 C 7516.0,4268.0 7518.0,4294.0 7514.0,4354.0 C 7506.0,4470.0 7504.0,4476.0 7453.0,4531.0 C 7410.0,4577.0 7406.0,4587.0 7398.0,4647.0 C 7392.0,4700.0 7393.0,4717.0 7405.0,4730.0 C 7413.0,4739.0 7420.0,4761.0 7420.0,4778.0 C 7420.0,4795.0 7425.0,4812.0 7430.0,4815.0 C 7436.0,4818.0 7440.0,4837.0 7440.0,4856.0 L 7440.0,4890.0 L 7415.0,4874.0 C 7395.0,4861.0 7387.0,4860.0 7375.0,4870.0 C 7367.0,4877.0 7360.0,4889.0 7360.0,4896.0 C 7360.0,4904.0 7350.0,4910.0 7336.0,4910.0 C 7320.0,4910.0 7301.0,4923.0 7280.0,4950.0 C 7244.0,4995.0 7214.0,5002.0 7185.0,4970.0 C 7163.0,4946.0 7125.0,4944.0 7116.0,4966.0 C 7106.0,4992.0 7109.0,5000.0 7130.0,5000.0 C 7141.0,5000.0 7150.0,5007.0 7150.0,5015.0 C 7150.0,5023.0 7146.0,5030.0 7140.0,5030.0 C 7121.0,5030.0 7060.0,4995.0 7060.0,4983.0 C 7060.0,4964.0 6988.0,4979.0 6968.0,5002.0 C 6947.0,5025.0 6944.0,5100.0 6962.0,5118.0 C 6969.0,5125.0 6981.0,5130.0 6990.0,5130.0 C 7014.0,5130.0 7050.0,5167.0 7050.0,5191.0 C 7050.0,5209.0 7045.0,5212.0 7018.0,5208.0 C 7000.0,5205.0 6977.0,5200.0 6968.0,5195.0 C 6946.0,5186.0 6928.0,5226.0 6941.0,5252.0 C 6946.0,5261.0 6950.0,5315.0 6951.0,5372.0 C 6951.0,5435.0 6955.0,5467.0 6960.0,5455.0 C 6966.0,5438.0 6969.0,5441.0 6975.0,5473.0 C 6979.0,5496.0 6978.0,5515.0 6972.0,5523.0 C 6964.0,5532.0 6965.0,5552.0 6974.0,5592.0 C 6986.0,5642.0 6985.0,5651.0 6967.0,5685.0 C 6952.0,5714.0 6949.0,5734.0 6954.0,5769.0 C 6966.0,5861.0 6965.0,5880.0 6943.0,5922.0 C 6931.0,5946.0 6911.0,5984.0 6900.0,6007.0 C 6879.0,6051.0 6843.0,6085.0 6807.0,6096.0 C 6777.0,6105.0 6769.0,6120.0 6776.0,6155.0 C 6781.0,6181.0 6775.0,6192.0 6741.0,6227.0 C 6694.0,6275.0 6690.0,6298.0 6716.0,6394.0 C 6735.0,6464.0 6750.0,6487.0 6750.0,6446.0 C 6750.0,6431.0 6754.0,6421.0 6760.0,6425.0 C 6766.0,6428.0 6770.0,6451.0 6770.0,6475.0 C 6770.0,6503.0 6780.0,6537.0 6800.0,6575.0 L 6830.0,6632.0 L 6800.0,6667.0 C 6772.0,6699.0 6770.0,6704.0 6776.0,6758.0 C 6781.0,6803.0 6789.0,6822.0 6813.0,6848.0 C 6830.0,6865.0 6853.0,6880.0 6864.0,6880.0 C 6903.0,6880.0 6915.0,6895.0 6901.0,6926.0 C 6890.0,6952.0 6891.0,6956.0 6923.0,6988.0 C 6962.0,7027.0 6990.0,7024.0 6964.0,6984.0 C 6955.0,6971.0 6949.0,6957.0 6952.0,6955.0 C 6963.0,6943.0 7008.0,6948.0 7042.0,6964.0 C 7095.0,6989.0 7116.0,7031.0 7123.0,7126.0 C 7129.0,7206.0 7129.0,7207.0 7104.0,7219.0 C 7072.0,7233.0 7045.0,7220.0 7036.0,7185.0 C 7032.0,7171.0 7025.0,7160.0 7020.0,7160.0 C 7009.0,7160.0 7009.0,7159.0 7006.0,7225.0 C 7003.0,7283.0 7007.0,7300.0 7025.0,7300.0 C 7032.0,7300.0 7040.0,7307.0 7044.0,7315.0 C 7053.0,7340.0 7040.0,7360.0 7014.0,7360.0 C 6995.0,7360.0 6990.0,7355.0 6990.0,7335.0 C 6990.0,7317.0 6986.0,7312.0 6975.0,7316.0 C 6966.0,7320.0 6960.0,7327.0 6961.0,7334.0 C 6964.0,7361.0 6958.0,7368.0 6920.0,7373.0 C 6848.0,7382.0 6819.0,7430.0 6885.0,7430.0 C 6904.0,7430.0 6943.0,7439.0 6972.0,7450.0 C 7001.0,7462.0 7054.0,7473.0 7089.0,7475.0 C 7147.0,7480.0 7152.0,7478.0 7134.0,7466.0 C 7116.0,7452.0 7116.0,7451.0 7133.0,7445.0 C 7170.0,7430.0 7177.0,7377.0 7143.0,7374.0 C 7136.0,7373.0 7121.0,7372.0 7110.0,7372.0 C 7099.0,7371.0 7090.0,7363.0 7090.0,7354.0 C 7090.0,7342.0 7100.0,7339.0 7142.0,7341.0 C 7175.0,7343.0 7195.0,7340.0 7198.0,7332.0 C 7200.0,7325.0 7216.0,7320.0 7235.0,7320.0 C 7263.0,7320.0 7268.0,7324.0 7274.0,7351.0 C 7277.0,7368.0 7280.0,7398.0 7280.0,7417.0 C 7280.0,7438.0 7286.0,7453.0 7295.0,7456.0 C 7303.0,7460.0 7310.0,7472.0 7310.0,7484.0 C 7310.0,7495.0 7317.0,7514.0 7325.0,7524.0 C 7333.0,7535.0 7340.0,7554.0 7340.0,7566.0 C 7340.0,7596.0 7305.0,7673.0 7281.0,7694.0 C 7263.0,7711.0 7261.0,7710.0 7247.0,7689.0 C 7229.0,7664.0 7234.0,7615.0 7258.0,7588.0 C 7271.0,7573.0 7270.0,7569.0 7255.0,7553.0 C 7238.0,7536.0 7236.0,7537.0 7221.0,7560.0 C 7187.0,7613.0 7134.0,7663.0 7089.0,7686.0 C 7063.0,7699.0 7039.0,7718.0 7035.0,7729.0 C 7032.0,7740.0 7016.0,7753.0 7000.0,7759.0 C 6967.0,7770.0 6965.0,7773.0 6981.0,7801.0 C 6989.0,7817.0 6994.0,7819.0 7006.0,7810.0 C 7013.0,7803.0 7027.0,7800.0 7035.0,7804.0 C 7055.0,7811.0 7097.0,7775.0 7104.0,7744.0 C 7109.0,7727.0 7117.0,7720.0 7134.0,7720.0 C 7162.0,7720.0 7170.0,7736.0 7170.0,7798.0 C 7170.0,7831.0 7176.0,7850.0 7192.0,7867.0 C 7219.0,7895.0 7209.0,7909.0 7182.0,7882.0 C 7171.0,7871.0 7151.0,7856.0 7138.0,7849.0 C 7115.0,7837.0 7115.0,7838.0 7133.0,7857.0 C 7143.0,7868.0 7150.0,7881.0 7149.0,7886.0 C 7144.0,7913.0 7153.0,7920.0 7190.0,7920.0 C 7246.0,7920.0 7286.0,7942.0 7293.0,7978.0 C 7296.0,7994.0 7307.0,8010.0 7316.0,8014.0 C 7329.0,8019.0 7331.0,8016.0 7326.0,7998.0 C 7323.0,7985.0 7320.0,7950.0 7320.0,7919.0 C 7320.0,7873.0 7315.0,7858.0 7295.0,7836.0 C 7273.0,7812.0 7263.0,7790.0 7274.0,7790.0 C 7276.0,7790.0 7294.0,7797.0 7314.0,7805.0 L 7351.0,7821.0 L 7345.0,7898.0 C 7341.0,7952.0 7343.0,7989.0 7353.0,8021.0 C 7370.0,8075.0 7364.0,8092.0 7313.0,8147.0 C 7283.0,8179.0 7271.0,8203.0 7262.0,8247.0 C 7246.0,8328.0 7246.0,8360.0 7265.0,8360.0 C 7274.0,8360.0 7285.0,8371.0 7291.0,8384.0 C 7301.0,8405.0 7297.0,8419.0 7271.0,8477.0 C 7240.0,8543.0 7239.0,8547.0 7245.0,8645.0 L 7251.0,8745.0 L 7204.0,8784.0 C 7157.0,8824.0 7050.0,8870.0 7005.0,8870.0 C 6991.0,8870.0 6966.0,8884.0 6948.0,8901.0 L 6915.0,8931.0 L 6947.0,8916.0 C 7028.0,8876.0 6995.0,8921.0 6902.0,8977.0 C 6861.0,9001.0 6853.0,9002.0 6762.0,8997.0 C 6702.0,8994.0 6643.0,8984.0 6607.0,8971.0 C 6525.0,8942.0 6475.0,8956.0 6336.0,9045.0 C 6274.0,9084.0 6268.0,9102.0 6266.0,9245.0 C 6265.0,9289.0 6261.0,9330.0 6257.0,9337.0 C 6253.0,9344.0 6228.0,9361.0 6202.0,9376.0 C 6153.0,9403.0 6110.0,9456.0 6110.0,9487.0 C 6110.0,9496.0 6093.0,9524.0 6072.0,9549.0 C 6023.0,9608.0 6018.0,9622.0 6030.0,9673.0 C 6035.0,9696.0 6041.0,9754.0 6043.0,9801.0 L 6048.0,9888.0 L 5996.0,9926.0 C 5968.0,9947.0 5929.0,9981.0 5909.0,10002.0 C 5889.0,10023.0 5865.0,10040.0 5855.0,10040.0 C 5845.0,10040.0 5823.0,10050.0 5806.0,10063.0 C 5789.0,10076.0 5737.0,10099.0 5690.0,10114.0 C 5643.0,10130.0 5585.0,10154.0 5560.0,10169.0 C 5535.0,10183.0 5503.0,10202.0 5488.0,10209.0 C 5472.0,10217.0 5460.0,10227.0 5460.0,10232.0 C 5460.0,10240.0 5438.0,10241.0 5405.0,10233.0" fill="pink"/>
</svg>
