<?xml version="1.0" ?>
<svg xmlns="http://www.w3.org/2000/svg" xmlns:ev="http://www.w3.org/2001/xml-events" xmlns:xlink="http://www.w3.org/1999/xlink" baseProfile="full" height="395px" version="1.1" viewBox="-1025.334896864775 1077.5960882721197 12290.852338515062 8089.287808570933" width="600px">
	<defs/>
	<path d="M 6936.0,8481.0 C 6932.0,8475.0 6920.0,8470.0 6910.0,8470.0 C 6899.0,8470.0 6876.0,8461.0 6858.0,8450.0 C 6838.0,8438.0 6807.0,8430.0 6780.0,8430.0 C 6752.0,8430.0 6724.0,8422.0 6705.0,8410.0 C 6689.0,8399.0 6659.0,8390.0 6640.0,8390.0 C 6586.0,8390.0 6560.0,8367.0 6560.0,8319.0 C 6560.0,8277.0 6536.0,8234.0 6462.0,8143.0 C 6432.0,8105.0 6423.0,8100.0 6386.0,8100.0 C 6364.0,8100.0 6305.0,8093.0 6256.0,8084.0 C 6207.0,8076.0 6161.0,8071.0 6152.0,8075.0 C 6144.0,8078.0 6127.0,8074.0 6114.0,8065.0 C 6101.0,8057.0 6085.0,8053.0 6077.0,8056.0 C 6069.0,8059.0 6036.0,8048.0 6003.0,8032.0 L 5945.0,8002.0 L 5865.0,8018.0 C 5792.0,8032.0 5773.0,8032.0 5634.0,8017.0 C 5426.0,7995.0 5412.0,7988.0 5335.0,7857.0 L 5275.0,7757.0 L 5206.0,7733.0 C 5159.0,7718.0 5113.0,7710.0 5066.0,7710.0 L 4995.0,7710.0 L 4978.0,7768.0 C 4963.0,7820.0 4956.0,7828.0 4923.0,7843.0 C 4902.0,7851.0 4872.0,7861.0 4855.0,7865.0 C 4815.0,7874.0 4780.0,7908.0 4780.0,7937.0 C 4780.0,7961.0 4745.0,7997.0 4689.0,8032.0 C 4673.0,8042.0 4636.0,8050.0 4598.0,8051.0 C 4542.0,8054.0 4530.0,8051.0 4501.0,8028.0 C 4472.0,8006.0 4462.0,8004.0 4435.0,8011.0 C 4409.0,8018.0 4392.0,8015.0 4348.0,7996.0 C 4305.0,7977.0 4290.0,7974.0 4274.0,7983.0 C 4264.0,7989.0 4243.0,7993.0 4228.0,7991.0 C 4213.0,7990.0 4186.0,7999.0 4163.0,8014.0 C 4112.0,8048.0 4058.0,8055.0 3981.0,8036.0 C 3914.0,8020.0 3888.0,8025.0 3876.0,8055.0 C 3873.0,8063.0 3858.0,8075.0 3843.0,8081.0 C 3809.0,8095.0 3546.0,8102.0 3505.0,8091.0 C 3465.0,8081.0 3340.0,8135.0 3340.0,8162.0 C 3340.0,8175.0 3332.0,8180.0 3312.0,8180.0 C 3291.0,8180.0 3282.0,8187.0 3274.0,8209.0 C 3265.0,8232.0 3251.0,8241.0 3202.0,8258.0 C 3125.0,8284.0 3109.0,8274.0 3085.0,8188.0 C 3069.0,8129.0 3065.0,8124.0 3021.0,8103.0 L 2975.0,8081.0 L 2938.0,8105.0 C 2917.0,8119.0 2898.0,8130.0 2896.0,8130.0 C 2893.0,8130.0 2888.0,8114.0 2884.0,8095.0 C 2881.0,8076.0 2874.0,8060.0 2869.0,8060.0 C 2864.0,8060.0 2836.0,8038.0 2806.0,8011.0 C 2776.0,7984.0 2742.0,7956.0 2731.0,7950.0 C 2716.0,7942.0 2710.0,7929.0 2710.0,7905.0 C 2710.0,7874.0 2707.0,7870.0 2675.0,7864.0 C 2651.0,7860.0 2636.0,7850.0 2628.0,7832.0 C 2617.0,7810.0 2604.0,7804.0 2550.0,7794.0 C 2491.0,7784.0 2481.0,7784.0 2444.0,7803.0 C 2390.0,7829.0 2354.0,7821.0 2345.0,7781.0 C 2339.0,7754.0 2335.0,7751.0 2282.0,7747.0 C 2196.0,7740.0 2156.0,7727.0 2151.0,7705.0 C 2149.0,7694.0 2136.0,7671.0 2122.0,7652.0 C 2106.0,7631.0 2095.0,7602.0 2092.0,7570.0 L 2087.0,7520.0 L 2044.0,7520.0 C 2008.0,7520.0 1997.0,7515.0 1979.0,7491.0 C 1967.0,7474.0 1944.0,7456.0 1929.0,7449.0 C 1885.0,7431.0 1874.0,7377.0 1899.0,7306.0 L 1918.0,7251.0 L 1885.0,7225.0 C 1866.0,7211.0 1841.0,7200.0 1828.0,7200.0 C 1815.0,7200.0 1800.0,7196.0 1794.0,7192.0 C 1774.0,7178.0 1717.0,7048.0 1712.0,7003.0 C 1709.0,6975.0 1699.0,6950.0 1685.0,6936.0 C 1673.0,6924.0 1657.0,6891.0 1650.0,6863.0 C 1639.0,6822.0 1631.0,6810.0 1613.0,6805.0 C 1600.0,6802.0 1570.0,6779.0 1547.0,6755.0 C 1514.0,6721.0 1506.0,6706.0 1512.0,6691.0 C 1516.0,6680.0 1516.0,6656.0 1513.0,6637.0 C 1509.0,6610.0 1500.0,6599.0 1474.0,6587.0 C 1442.0,6571.0 1441.0,6569.0 1446.0,6527.0 C 1452.0,6484.0 1451.0,6482.0 1403.0,6442.0 C 1370.0,6414.0 1349.0,6386.0 1337.0,6353.0 C 1319.0,6305.0 1319.0,6305.0 1341.0,6287.0 L 1363.0,6269.0 L 1343.0,6242.0 C 1331.0,6226.0 1307.0,6212.0 1280.0,6205.0 C 1242.0,6196.0 1239.0,6193.0 1254.0,6181.0 C 1269.0,6168.0 1268.0,6164.0 1239.0,6134.0 C 1209.0,6103.0 1205.0,6102.0 1189.0,6116.0 C 1176.0,6128.0 1167.0,6129.0 1152.0,6121.0 C 1131.0,6110.0 1114.0,6058.0 1125.0,6041.0 C 1128.0,6035.0 1117.0,6004.0 1101.0,5971.0 L 1070.0,5911.0 L 1096.0,5891.0 C 1118.0,5874.0 1121.0,5867.0 1113.0,5843.0 C 1106.0,5824.0 1095.0,5814.0 1073.0,5809.0 C 1056.0,5806.0 1029.0,5793.0 1012.0,5782.0 C 985.0,5762.0 983.0,5758.0 990.0,5718.0 C 1000.0,5663.0 979.0,5631.0 933.0,5630.0 C 907.0,5630.0 900.0,5626.0 900.0,5610.0 C 900.0,5581.0 855.0,5554.0 827.0,5568.0 C 802.0,5580.0 740.0,5591.0 695.0,5591.0 C 679.0,5591.0 657.0,5596.0 645.0,5604.0 C 634.0,5611.0 614.0,5620.0 600.0,5623.0 C 565.0,5631.0 520.0,5591.0 520.0,5552.0 C 520.0,5520.0 489.0,5481.0 424.0,5429.0 L 389.0,5401.0 L 337.0,5434.0 C 259.0,5483.0 245.0,5484.0 221.0,5444.0 C 198.0,5405.0 191.0,5404.0 129.0,5425.0 C 90.0,5438.0 79.0,5439.0 45.0,5427.0 C -4.0,5410.0 -9.0,5389.0 25.0,5335.0 C 38.0,5313.0 59.0,5275.0 70.0,5250.0 C 82.0,5225.0 94.0,5199.0 99.0,5191.0 C 103.0,5183.0 128.0,5169.0 155.0,5160.0 C 190.0,5148.0 209.0,5135.0 220.0,5114.0 C 234.0,5090.0 245.0,5084.0 285.0,5079.0 C 325.0,5075.0 339.0,5067.0 375.0,5029.0 C 409.0,4993.0 418.0,4975.0 424.0,4933.0 C 433.0,4866.0 463.0,4826.0 499.0,4835.0 C 513.0,4838.0 533.0,4850.0 542.0,4861.0 C 557.0,4879.0 561.0,4880.0 566.0,4867.0 C 578.0,4836.0 563.0,4704.0 545.0,4672.0 L 526.0,4640.0 L 558.0,4607.0 C 596.0,4568.0 600.0,4530.0 569.0,4501.0 C 541.0,4475.0 550.0,4454.0 594.0,4446.0 C 625.0,4440.0 630.0,4435.0 630.0,4410.0 C 630.0,4391.0 636.0,4379.0 649.0,4375.0 C 659.0,4372.0 693.0,4342.0 725.0,4309.0 C 760.0,4272.0 794.0,4247.0 811.0,4243.0 C 827.0,4240.0 840.0,4232.0 840.0,4226.0 C 840.0,4220.0 858.0,4209.0 880.0,4202.0 C 914.0,4192.0 924.0,4192.0 944.0,4205.0 C 966.0,4220.0 968.0,4219.0 978.0,4193.0 C 984.0,4178.0 991.0,4156.0 995.0,4144.0 C 1004.0,4109.0 1100.0,4078.0 1193.0,4080.0 C 1218.0,4080.0 1232.0,4075.0 1236.0,4065.0 C 1240.0,4056.0 1264.0,4038.0 1289.0,4025.0 C 1351.0,3994.0 1365.0,3977.0 1350.0,3951.0 C 1344.0,3939.0 1333.0,3930.0 1326.0,3930.0 C 1314.0,3930.0 1283.0,3878.0 1267.0,3829.0 C 1264.0,3819.0 1245.0,3807.0 1226.0,3800.0 C 1183.0,3786.0 1181.0,3774.0 1218.0,3728.0 C 1246.0,3690.0 1302.0,3658.0 1358.0,3646.0 C 1396.0,3637.0 1401.0,3611.0 1369.0,3579.0 C 1351.0,3561.0 1338.0,3559.0 1268.0,3561.0 C 1166.0,3565.0 1154.0,3554.0 1188.0,3485.0 C 1214.0,3432.0 1237.0,3420.0 1318.0,3420.0 C 1349.0,3420.0 1385.0,3417.0 1397.0,3414.0 C 1429.0,3405.0 1460.0,3350.0 1460.0,3301.0 L 1460.0,3260.0 L 1563.0,3262.0 C 1690.0,3264.0 1880.0,3228.0 1880.0,3201.0 C 1880.0,3192.0 1887.0,3172.0 1896.0,3155.0 C 1905.0,3139.0 1918.0,3107.0 1925.0,3085.0 C 1932.0,3061.0 1951.0,3034.0 1973.0,3017.0 C 2031.0,2969.0 2048.0,2980.0 2120.0,3115.0 C 2191.0,3249.0 2223.0,3290.0 2254.0,3290.0 C 2266.0,3290.0 2285.0,3297.0 2296.0,3305.0 C 2337.0,3336.0 2380.0,3324.0 2453.0,3261.0 C 2505.0,3216.0 2531.0,3201.0 2563.0,3196.0 C 2592.0,3192.0 2619.0,3177.0 2648.0,3152.0 C 2690.0,3116.0 2691.0,3114.0 2674.0,3092.0 C 2665.0,3079.0 2647.0,3064.0 2633.0,3059.0 C 2613.0,3052.0 2603.0,3054.0 2578.0,3075.0 C 2545.0,3103.0 2541.0,3104.0 2506.0,3090.0 C 2486.0,3083.0 2480.0,3073.0 2480.0,3051.0 C 2480.0,3015.0 2457.0,3000.0 2405.0,3000.0 C 2373.0,3000.0 2369.0,2997.0 2375.0,2983.0 C 2386.0,2956.0 2398.0,2920.0 2410.0,2872.0 C 2421.0,2831.0 2472.0,2760.0 2492.0,2760.0 C 2497.0,2760.0 2524.0,2750.0 2551.0,2738.0 L 2602.0,2717.0 L 2598.0,2667.0 L 2595.0,2617.0 L 2642.0,2601.0 C 2668.0,2592.0 2699.0,2575.0 2712.0,2564.0 C 2766.0,2513.0 2887.0,2445.0 2940.0,2435.0 C 2991.0,2424.0 2995.0,2421.0 2998.0,2394.0 C 3001.0,2368.0 2996.0,2362.0 2948.0,2338.0 C 2919.0,2323.0 2887.0,2309.0 2878.0,2306.0 C 2869.0,2303.0 2849.0,2283.0 2835.0,2261.0 C 2813.0,2229.0 2808.0,2208.0 2807.0,2154.0 C 2805.0,2078.0 2797.0,2086.0 2916.0,2036.0 C 2968.0,2014.0 2987.0,2011.0 3041.0,2016.0 C 3076.0,2019.0 3138.0,2033.0 3178.0,2047.0 C 3243.0,2070.0 3262.0,2072.0 3368.0,2068.0 C 3467.0,2064.0 3494.0,2060.0 3547.0,2037.0 C 3596.0,2016.0 3625.0,2010.0 3682.0,2010.0 C 3745.0,2010.0 3766.0,2005.0 3829.0,1975.0 C 3888.0,1946.0 3913.0,1940.0 3965.0,1940.0 C 4032.0,1940.0 4078.0,1925.0 4125.0,1888.0 C 4151.0,1868.0 4167.0,1865.0 4263.0,1861.0 C 4398.0,1857.0 4482.0,1872.0 4537.0,1911.0 C 4573.0,1936.0 4587.0,1940.0 4649.0,1940.0 C 4707.0,1940.0 4731.0,1935.0 4773.0,1913.0 C 4844.0,1877.0 4902.0,1869.0 4970.0,1886.0 C 5052.0,1907.0 5113.0,1904.0 5169.0,1875.0 C 5213.0,1853.0 5226.0,1851.0 5303.0,1857.0 L 5388.0,1863.0 L 5457.0,1813.0 C 5494.0,1786.0 5530.0,1761.0 5537.0,1757.0 C 5551.0,1748.0 5756.0,1800.0 5823.0,1829.0 C 5850.0,1841.0 5881.0,1850.0 5892.0,1850.0 C 5917.0,1850.0 5972.0,1892.0 6080.0,1995.0 C 6127.0,2039.0 6191.0,2095.0 6222.0,2118.0 C 6253.0,2141.0 6292.0,2179.0 6308.0,2202.0 C 6333.0,2239.0 6347.0,2248.0 6400.0,2263.0 C 6434.0,2273.0 6498.0,2298.0 6543.0,2320.0 C 6606.0,2351.0 6637.0,2360.0 6676.0,2360.0 C 6704.0,2360.0 6753.0,2369.0 6785.0,2380.0 C 6817.0,2391.0 6864.0,2400.0 6888.0,2400.0 C 6969.0,2400.0 7053.0,2421.0 7140.0,2462.0 C 7218.0,2500.0 7234.0,2503.0 7326.0,2508.0 C 7400.0,2511.0 7444.0,2508.0 7493.0,2496.0 C 7529.0,2487.0 7570.0,2482.0 7583.0,2485.0 C 7605.0,2491.0 7608.0,2488.0 7614.0,2456.0 C 7620.0,2427.0 7627.0,2419.0 7657.0,2409.0 C 7676.0,2403.0 7710.0,2382.0 7731.0,2363.0 C 7764.0,2333.0 7775.0,2328.0 7804.0,2333.0 C 7823.0,2336.0 7863.0,2332.0 7892.0,2324.0 C 7940.0,2311.0 7948.0,2312.0 7977.0,2327.0 C 8018.0,2349.0 8060.0,2333.0 8060.0,2297.0 C 8060.0,2256.0 8089.0,2240.0 8161.0,2240.0 C 8221.0,2240.0 8229.0,2243.0 8255.0,2270.0 C 8304.0,2321.0 8318.0,2310.0 8367.0,2184.0 L 8411.0,2073.0 L 8478.0,2042.0 C 8515.0,2025.0 8603.0,1993.0 8674.0,1970.0 C 8784.0,1935.0 8819.0,1928.0 8921.0,1923.0 L 9040.0,1917.0 L 9040.0,1980.0 C 9040.0,2044.0 9052.0,2092.0 9102.0,2217.0 C 9133.0,2297.0 9136.0,2326.0 9117.0,2373.0 C 9109.0,2391.0 9100.0,2433.0 9096.0,2467.0 C 9090.0,2522.0 9092.0,2532.0 9110.0,2550.0 C 9135.0,2575.0 9135.0,2587.0 9110.0,2625.0 C 9096.0,2646.0 9090.0,2672.0 9090.0,2713.0 C 9090.0,2774.0 9087.0,2769.0 9164.0,2838.0 C 9195.0,2867.0 9339.0,3063.0 9363.0,3110.0 C 9376.0,3135.0 9401.0,3175.0 9419.0,3200.0 C 9437.0,3225.0 9460.0,3261.0 9471.0,3281.0 C 9500.0,3339.0 9588.0,3419.0 9659.0,3451.0 C 9709.0,3475.0 9744.0,3483.0 9829.0,3490.0 C 9887.0,3496.0 9953.0,3504.0 9975.0,3510.0 C 9997.0,3515.0 10031.0,3520.0 10050.0,3520.0 C 10098.0,3520.0 10150.0,3553.0 10150.0,3584.0 C 10150.0,3597.0 10156.0,3613.0 10164.0,3619.0 C 10173.0,3626.0 10181.0,3659.0 10185.0,3698.0 C 10199.0,3858.0 10213.0,3947.0 10227.0,3969.0 C 10240.0,3989.0 10240.0,3994.0 10229.0,4001.0 C 10221.0,4006.0 10210.0,4010.0 10204.0,4010.0 C 10197.0,4010.0 10190.0,4018.0 10187.0,4028.0 C 10185.0,4037.0 10179.0,4054.0 10174.0,4064.0 C 10168.0,4080.0 10170.0,4082.0 10188.0,4078.0 C 10207.0,4073.0 10210.0,4076.0 10210.0,4105.0 C 10210.0,4230.0 10164.0,4307.0 10073.0,4335.0 C 10041.0,4345.0 10002.0,4359.0 9986.0,4367.0 C 9941.0,4390.0 9849.0,4400.0 9825.0,4384.0 C 9814.0,4377.0 9785.0,4366.0 9760.0,4360.0 C 9735.0,4353.0 9704.0,4340.0 9690.0,4330.0 C 9657.0,4306.0 9604.0,4285.0 9557.0,4276.0 C 9534.0,4272.0 9498.0,4251.0 9461.0,4220.0 L 9403.0,4171.0 L 9369.0,4200.0 C 9329.0,4234.0 9280.0,4240.0 9280.0,4211.0 C 9280.0,4201.0 9270.0,4186.0 9258.0,4178.0 C 9241.0,4167.0 9236.0,4155.0 9238.0,4128.0 C 9240.0,4099.0 9236.0,4091.0 9215.0,4082.0 C 9193.0,4072.0 9164.0,4079.0 8993.0,4140.0 C 8885.0,4178.0 8787.0,4219.0 8774.0,4230.0 C 8762.0,4242.0 8744.0,4277.0 8735.0,4308.0 C 8706.0,4400.0 8693.0,4420.0 8661.0,4420.0 C 8618.0,4420.0 8580.0,4455.0 8580.0,4495.0 C 8580.0,4528.0 8559.0,4560.0 8537.0,4560.0 C 8530.0,4561.0 8515.0,4576.0 8503.0,4595.0 L 8481.0,4630.0 L 8503.0,4642.0 C 8515.0,4648.0 8537.0,4653.0 8553.0,4652.0 C 8577.0,4650.0 8580.0,4653.0 8580.0,4678.0 C 8580.0,4694.0 8585.0,4721.0 8591.0,4738.0 C 8600.0,4765.0 8599.0,4773.0 8582.0,4795.0 C 8546.0,4841.0 8526.0,4923.0 8534.0,4999.0 C 8539.0,5053.0 8536.0,5081.0 8520.0,5129.0 C 8509.0,5163.0 8498.0,5213.0 8494.0,5240.0 C 8488.0,5283.0 8491.0,5294.0 8512.0,5322.0 C 8530.0,5346.0 8538.0,5372.0 8543.0,5418.0 C 8546.0,5452.0 8544.0,5480.0 8539.0,5480.0 C 8534.0,5480.0 8530.0,5502.0 8530.0,5529.0 C 8530.0,5575.0 8533.0,5581.0 8573.0,5617.0 C 8610.0,5649.0 8619.0,5665.0 8629.0,5712.0 C 8636.0,5743.0 8648.0,5774.0 8656.0,5780.0 C 8676.0,5797.0 8675.0,5903.0 8655.0,5920.0 C 8642.0,5930.0 8641.0,5946.0 8646.0,5994.0 C 8650.0,6028.0 8657.0,6060.0 8662.0,6067.0 C 8667.0,6073.0 8668.0,6106.0 8664.0,6141.0 C 8659.0,6188.0 8651.0,6210.0 8629.0,6235.0 C 8607.0,6259.0 8600.0,6278.0 8600.0,6308.0 C 8600.0,6343.0 8597.0,6349.0 8570.0,6358.0 C 8552.0,6365.0 8539.0,6377.0 8536.0,6392.0 C 8516.0,6488.0 8510.0,6522.0 8505.0,6570.0 C 8501.0,6600.0 8492.0,6635.0 8484.0,6647.0 C 8476.0,6659.0 8470.0,6676.0 8470.0,6684.0 C 8470.0,6699.0 8415.0,6720.0 8378.0,6720.0 C 8367.0,6720.0 8360.0,6728.0 8360.0,6740.0 C 8360.0,6756.0 8353.0,6760.0 8326.0,6760.0 C 8296.0,6760.0 8291.0,6764.0 8285.0,6789.0 C 8281.0,6806.0 8271.0,6820.0 8258.0,6823.0 C 8247.0,6826.0 8241.0,6833.0 8244.0,6838.0 C 8247.0,6843.0 8232.0,6855.0 8210.0,6865.0 C 8172.0,6882.0 8170.0,6885.0 8170.0,6930.0 C 8170.0,6967.0 8165.0,6981.0 8145.0,7000.0 C 8131.0,7013.0 8120.0,7029.0 8120.0,7036.0 C 8120.0,7067.0 8098.0,7098.0 8079.0,7093.0 C 8069.0,7090.0 8060.0,7093.0 8060.0,7099.0 C 8060.0,7105.0 8049.0,7110.0 8035.0,7110.0 C 8019.0,7110.0 8010.0,7116.0 8010.0,7125.0 C 8010.0,7133.0 8005.0,7140.0 8000.0,7140.0 C 7994.0,7140.0 7978.0,7151.0 7964.0,7165.0 C 7951.0,7178.0 7930.0,7195.0 7919.0,7201.0 L 7898.0,7212.0 L 7921.0,7236.0 C 7939.0,7256.0 7942.0,7263.0 7931.0,7269.0 C 7921.0,7276.0 7921.0,7282.0 7929.0,7298.0 C 7944.0,7326.0 7943.0,7340.0 7926.0,7340.0 C 7918.0,7340.0 7909.0,7347.0 7906.0,7356.0 C 7901.0,7368.0 7892.0,7370.0 7861.0,7365.0 C 7828.0,7360.0 7821.0,7361.0 7816.0,7378.0 C 7812.0,7388.0 7812.0,7404.0 7815.0,7412.0 C 7818.0,7420.0 7814.0,7433.0 7805.0,7440.0 C 7797.0,7447.0 7790.0,7458.0 7790.0,7464.0 C 7790.0,7479.0 7737.0,7528.0 7685.0,7561.0 C 7648.0,7584.0 7639.0,7597.0 7625.0,7646.0 C 7614.0,7684.0 7612.0,7706.0 7619.0,7708.0 C 7632.0,7712.0 7616.0,7757.0 7591.0,7785.0 C 7582.0,7796.0 7568.0,7827.0 7561.0,7855.0 C 7554.0,7882.0 7543.0,7908.0 7535.0,7913.0 C 7528.0,7917.0 7519.0,7934.0 7515.0,7950.0 C 7511.0,7967.0 7502.0,7980.0 7494.0,7980.0 C 7485.0,7980.0 7482.0,7985.0 7486.0,7992.0 C 7490.0,7999.0 7495.0,8026.0 7496.0,8052.0 C 7497.0,8088.0 7494.0,8100.0 7484.0,8100.0 C 7476.0,8100.0 7470.0,8106.0 7470.0,8113.0 C 7470.0,8119.0 7456.0,8132.0 7439.0,8140.0 C 7402.0,8158.0 7387.0,8184.0 7365.0,8263.0 C 7352.0,8312.0 7346.0,8320.0 7325.0,8320.0 C 7300.0,8320.0 7250.0,8365.0 7250.0,8388.0 C 7250.0,8396.0 7241.0,8400.0 7228.0,8398.0 C 7212.0,8396.0 7202.0,8402.0 7196.0,8416.0 C 7190.0,8428.0 7167.0,8447.0 7144.0,8458.0 C 7095.0,8482.0 6946.0,8499.0 6936.0,8481.0" fill="pink"/>
</svg>
