<?xml version="1.0" ?>
<svg xmlns="http://www.w3.org/2000/svg" xmlns:ev="http://www.w3.org/2001/xml-events" xmlns:xlink="http://www.w3.org/1999/xlink" baseProfile="full" height="600px" version="1.1" viewBox="713.8868855231127 -1029.12 8817.141579429332 12298.24" width="431px">
	<defs/>
	<path d="M 2748.0,10220.0 C 2728.0,10209.0 2707.0,10192.0 2701.0,10183.0 C 2696.0,10173.0 2677.0,10161.0 2658.0,10155.0 C 2631.0,10145.0 2624.0,10138.0 2622.0,10110.0 C 2620.0,10088.0 2604.0,10060.0 2578.0,10031.0 C 2556.0,10006.0 2532.0,9973.0 2524.0,9958.0 C 2505.0,9921.0 2436.0,9886.0 2411.0,9899.0 C 2399.0,9906.0 2377.0,9905.0 2342.0,9896.0 C 2270.0,9877.0 2242.0,9853.0 2238.0,9808.0 L 2235.0,9771.0 L 2192.0,9790.0 C 2152.0,9808.0 2148.0,9808.0 2106.0,9793.0 L 2062.0,9777.0 L 2023.0,9807.0 C 1978.0,9843.0 1966.0,9846.0 1923.0,9836.0 C 1888.0,9828.0 1850.0,9778.0 1850.0,9741.0 C 1850.0,9725.0 1844.0,9720.0 1823.0,9720.0 C 1805.0,9720.0 1783.0,9707.0 1758.0,9683.0 C 1723.0,9649.0 1716.0,9646.0 1633.0,9639.0 C 1585.0,9635.0 1544.0,9631.0 1543.0,9631.0 C 1541.0,9630.0 1540.0,9623.0 1540.0,9615.0 C 1540.0,9606.0 1530.0,9586.0 1518.0,9570.0 C 1501.0,9546.0 1499.0,9536.0 1507.0,9517.0 C 1517.0,9496.0 1515.0,9492.0 1490.0,9483.0 C 1458.0,9471.0 1443.0,9419.0 1460.0,9376.0 C 1470.0,9348.0 1489.0,9343.0 1520.0,9362.0 C 1545.0,9378.0 1580.0,9349.0 1572.0,9318.0 C 1568.0,9301.0 1562.0,9299.0 1530.0,9304.0 C 1491.0,9310.0 1480.0,9301.0 1480.0,9264.0 C 1480.0,9242.0 1539.0,9210.0 1569.0,9216.0 C 1584.0,9219.0 1610.0,9213.0 1630.0,9203.0 C 1659.0,9188.0 1665.0,9179.0 1667.0,9152.0 C 1668.0,9120.0 1667.0,9119.0 1638.0,9125.0 C 1583.0,9138.0 1572.0,9081.0 1620.0,9035.0 C 1655.0,9001.0 1658.0,8985.0 1630.0,8968.0 C 1619.0,8961.0 1610.0,8948.0 1610.0,8939.0 C 1610.0,8929.0 1598.0,8919.0 1583.0,8915.0 C 1567.0,8911.0 1561.0,8905.0 1568.0,8903.0 C 1586.0,8896.0 1583.0,8881.0 1555.0,8844.0 C 1522.0,8801.0 1523.0,8793.0 1565.0,8776.0 C 1584.0,8768.0 1600.0,8754.0 1600.0,8746.0 C 1600.0,8723.0 1613.0,8720.0 1652.0,8732.0 C 1680.0,8740.0 1698.0,8739.0 1736.0,8726.0 C 1762.0,8717.0 1793.0,8710.0 1805.0,8710.0 C 1817.0,8710.0 1839.0,8697.0 1854.0,8681.0 C 1877.0,8657.0 1880.0,8649.0 1871.0,8631.0 C 1861.0,8614.0 1848.0,8610.0 1787.0,8608.0 L 1715.0,8605.0 L 1706.0,8562.0 C 1699.0,8529.0 1701.0,8506.0 1714.0,8464.0 L 1731.0,8410.0 L 1699.0,8382.0 C 1663.0,8350.0 1663.0,8325.0 1702.0,8277.0 C 1720.0,8255.0 1736.0,8248.0 1779.0,8243.0 C 1826.0,8238.0 1835.0,8233.0 1861.0,8197.0 C 1877.0,8175.0 1890.0,8151.0 1890.0,8144.0 C 1890.0,8138.0 1924.0,8118.0 1966.0,8100.0 C 2027.0,8075.0 2051.0,8069.0 2084.0,8074.0 C 2175.0,8088.0 2173.0,8088.0 2183.0,8049.0 C 2193.0,8008.0 2210.0,8001.0 2304.0,7999.0 C 2332.0,7999.0 2375.0,7995.0 2399.0,7992.0 C 2443.0,7985.0 2444.0,7984.0 2463.0,7926.0 C 2485.0,7859.0 2480.0,7850.0 2417.0,7850.0 C 2389.0,7850.0 2367.0,7859.0 2333.0,7885.0 C 2279.0,7926.0 2222.0,7934.0 2213.0,7900.0 C 2207.0,7876.0 2198.0,7876.0 2134.0,7895.0 C 2107.0,7903.0 2072.0,7910.0 2056.0,7910.0 C 2030.0,7910.0 2028.0,7907.0 2033.0,7883.0 C 2037.0,7864.0 2031.0,7841.0 2014.0,7813.0 L 1989.0,7770.0 L 1921.0,7770.0 C 1860.0,7770.0 1852.0,7768.0 1843.0,7748.0 C 1834.0,7728.0 1838.0,7719.0 1867.0,7687.0 C 1885.0,7666.0 1898.0,7644.0 1894.0,7638.0 C 1890.0,7632.0 1886.0,7576.0 1886.0,7513.0 L 1885.0,7400.0 L 1920.0,7400.0 C 1948.0,7400.0 1959.0,7393.0 1977.0,7368.0 L 1999.0,7336.0 L 1957.0,7312.0 C 1934.0,7298.0 1905.0,7278.0 1892.0,7266.0 C 1875.0,7251.0 1849.0,7244.0 1793.0,7239.0 C 1712.0,7231.0 1709.0,7229.0 1690.0,7170.0 C 1669.0,7106.0 1678.0,7098.0 1762.0,7106.0 C 1832.0,7112.0 1839.0,7116.0 1932.0,7181.0 C 1985.0,7219.0 2033.0,7250.0 2038.0,7250.0 C 2043.0,7250.0 2059.0,7241.0 2073.0,7230.0 C 2093.0,7214.0 2104.0,7212.0 2122.0,7219.0 C 2166.0,7236.0 2261.0,7217.0 2312.0,7182.0 C 2371.0,7142.0 2378.0,7120.0 2349.0,7073.0 C 2332.0,7047.0 2327.0,7024.0 2329.0,6990.0 C 2331.0,6954.0 2327.0,6940.0 2311.0,6926.0 C 2296.0,6913.0 2290.0,6895.0 2290.0,6866.0 C 2290.0,6807.0 2262.0,6741.0 2235.0,6734.0 C 2217.0,6730.0 2203.0,6707.0 2175.0,6640.0 C 2155.0,6591.0 2132.0,6549.0 2124.0,6546.0 C 2116.0,6543.0 2110.0,6529.0 2110.0,6516.0 C 2110.0,6496.0 2103.0,6489.0 2078.0,6482.0 C 2046.0,6474.0 2045.0,6472.0 2047.0,6424.0 C 2052.0,6337.0 2047.0,6330.0 1986.0,6330.0 L 1933.0,6330.0 L 1927.0,6295.0 C 1923.0,6270.0 1927.0,6250.0 1940.0,6227.0 C 1950.0,6209.0 1961.0,6166.0 1965.0,6130.0 L 1972.0,6065.0 L 1936.0,6048.0 C 1896.0,6029.0 1880.0,5989.0 1899.0,5959.0 C 1905.0,5949.0 1910.0,5929.0 1910.0,5916.0 C 1910.0,5902.0 1916.0,5887.0 1923.0,5883.0 C 1931.0,5879.0 1940.0,5857.0 1943.0,5835.0 C 1951.0,5787.0 1980.0,5760.0 2024.0,5760.0 C 2047.0,5760.0 2065.0,5751.0 2085.0,5730.0 C 2116.0,5698.0 2141.0,5693.0 2179.0,5714.0 C 2201.0,5726.0 2272.0,5722.0 2287.0,5706.0 C 2290.0,5703.0 2303.0,5659.0 2314.0,5608.0 L 2336.0,5515.0 L 2383.0,5492.0 C 2408.0,5480.0 2440.0,5456.0 2452.0,5440.0 C 2472.0,5412.0 2478.0,5410.0 2516.0,5416.0 C 2557.0,5422.0 2557.0,5421.0 2553.0,5395.0 C 2549.0,5378.0 2554.0,5362.0 2567.0,5347.0 C 2577.0,5335.0 2591.0,5313.0 2598.0,5298.0 C 2604.0,5282.0 2616.0,5270.0 2624.0,5270.0 C 2632.0,5270.0 2657.0,5254.0 2680.0,5235.0 C 2721.0,5201.0 2750.0,5190.0 2750.0,5210.0 C 2750.0,5216.0 2757.0,5220.0 2765.0,5220.0 C 2773.0,5220.0 2780.0,5216.0 2780.0,5210.0 C 2780.0,5205.0 2787.0,5200.0 2796.0,5200.0 C 2808.0,5200.0 2810.0,5193.0 2805.0,5168.0 C 2794.0,5119.0 2784.0,5104.0 2753.0,5091.0 C 2737.0,5085.0 2712.0,5059.0 2696.0,5034.0 L 2667.0,4988.0 L 2541.0,4995.0 C 2428.0,5002.0 2409.0,5005.0 2341.0,5037.0 C 2251.0,5078.0 2185.0,5100.0 2148.0,5100.0 C 2132.0,5100.0 2120.0,5099.0 2120.0,5097.0 C 2120.0,5095.0 2131.0,5062.0 2144.0,5023.0 C 2163.0,4967.0 2192.0,4920.0 2276.0,4808.0 C 2335.0,4729.0 2414.0,4630.0 2452.0,4587.0 C 2489.0,4544.0 2529.0,4492.0 2540.0,4470.0 C 2551.0,4449.0 2567.0,4427.0 2576.0,4422.0 C 2585.0,4417.0 2603.0,4388.0 2614.0,4359.0 C 2632.0,4315.0 2634.0,4297.0 2627.0,4263.0 C 2622.0,4236.0 2613.0,4220.0 2604.0,4220.0 C 2593.0,4220.0 2590.0,4206.0 2590.0,4160.0 C 2590.0,4092.0 2578.0,4080.0 2511.0,4080.0 C 2488.0,4080.0 2470.0,4076.0 2470.0,4072.0 C 2470.0,4067.0 2464.0,4055.0 2456.0,4045.0 C 2443.0,4027.0 2440.0,4031.0 2406.0,4098.0 C 2374.0,4162.0 2367.0,4170.0 2341.0,4170.0 C 2326.0,4170.0 2302.0,4161.0 2288.0,4151.0 C 2275.0,4140.0 2246.0,4129.0 2224.0,4125.0 C 2157.0,4114.0 2153.0,4111.0 2140.0,4067.0 C 2133.0,4044.0 2122.0,4016.0 2114.0,4005.0 C 2097.0,3982.0 2097.0,3950.0 2113.0,3893.0 C 2124.0,3854.0 2136.0,3842.0 2265.0,3750.0 C 2381.0,3667.0 2410.0,3650.0 2441.0,3650.0 C 2478.0,3650.0 2478.0,3650.0 2505.0,3575.0 C 2532.0,3502.0 2533.0,3501.0 2586.0,3479.0 C 2643.0,3455.0 2645.0,3452.0 2665.0,3350.0 C 2675.0,3304.0 2687.0,3290.0 2719.0,3290.0 C 2739.0,3290.0 2766.0,3269.0 2830.0,3203.0 C 2899.0,3131.0 2919.0,3104.0 2936.0,3055.0 C 2959.0,2988.0 2965.0,2986.0 3047.0,3011.0 C 3087.0,3023.0 3092.0,3022.0 3151.0,2991.0 C 3198.0,2967.0 3215.0,2962.0 3221.0,2971.0 C 3227.0,2981.0 3239.0,2977.0 3270.0,2956.0 L 3312.0,2928.0 L 3340.0,2955.0 L 3367.0,2981.0 L 3428.0,2887.0 C 3482.0,2806.0 3497.0,2791.0 3545.0,2767.0 C 3582.0,2749.0 3598.0,2736.0 3594.0,2726.0 C 3591.0,2718.0 3606.0,2698.0 3634.0,2675.0 C 3675.0,2641.0 3682.0,2639.0 3724.0,2645.0 C 3766.0,2652.0 3777.0,2648.0 3894.0,2586.0 C 3963.0,2550.0 4030.0,2520.0 4044.0,2520.0 C 4090.0,2520.0 4098.0,2512.0 4090.0,2473.0 C 4084.0,2447.0 4086.0,2427.0 4101.0,2393.0 C 4111.0,2368.0 4120.0,2347.0 4120.0,2345.0 C 4120.0,2337.0 4053.0,2312.0 4019.0,2307.0 C 3943.0,2296.0 3913.0,2275.0 3880.0,2211.0 C 3850.0,2151.0 3849.0,2150.0 3809.0,2150.0 C 3786.0,2150.0 3736.0,2161.0 3697.0,2175.0 L 3625.0,2201.0 L 3536.0,2170.0 C 3486.0,2154.0 3434.0,2140.0 3418.0,2140.0 C 3385.0,2140.0 3371.0,2117.0 3377.0,2072.0 C 3381.0,2048.0 3397.0,2027.0 3436.0,1993.0 C 3466.0,1967.0 3490.0,1942.0 3490.0,1937.0 C 3490.0,1920.0 3542.0,1861.0 3574.0,1842.0 C 3601.0,1826.0 3608.0,1813.0 3619.0,1766.0 C 3626.0,1735.0 3629.0,1692.0 3625.0,1671.0 C 3620.0,1639.0 3622.0,1632.0 3642.0,1623.0 C 3687.0,1603.0 3789.0,1506.0 3795.0,1478.0 C 3799.0,1464.0 3819.0,1431.0 3841.0,1407.0 C 3873.0,1370.0 3879.0,1357.0 3874.0,1333.0 C 3870.0,1314.0 3877.0,1285.0 3894.0,1246.0 C 3909.0,1213.0 3920.0,1169.0 3920.0,1145.0 C 3920.0,1092.0 3941.0,1069.0 3968.0,1094.0 C 3991.0,1114.0 4006.0,1114.0 4014.0,1094.0 C 4019.0,1080.0 4023.0,1081.0 4046.0,1099.0 L 4071.0,1119.0 L 4178.0,1050.0 C 4306.0,967.0 4344.0,931.0 4408.0,823.0 C 4463.0,732.0 4482.0,670.0 4479.0,596.0 C 4476.0,527.0 4488.0,482.0 4511.0,470.0 C 4545.0,451.0 4581.0,364.0 4587.0,286.0 L 4592.0,215.0 L 4551.0,177.0 C 4500.0,130.0 4498.0,100.0 4541.0,42.0 C 4558.0,19.0 4575.0,0.0 4578.0,0.0 C 4582.0,0.0 4607.0,7.0 4634.0,15.0 C 4662.0,23.0 4698.0,28.0 4714.0,25.0 C 4742.0,20.0 4750.0,25.0 4803.0,89.0 C 4837.0,131.0 4860.0,168.0 4860.0,182.0 C 4859.0,195.0 4851.0,239.0 4841.0,280.0 C 4826.0,348.0 4825.0,362.0 4838.0,430.0 C 4854.0,519.0 4870.0,540.0 4920.0,540.0 C 4949.0,540.0 4961.0,546.0 4974.0,565.0 C 4987.0,585.0 4999.0,590.0 5030.0,590.0 C 5063.0,590.0 5074.0,596.0 5100.0,628.0 C 5126.0,661.0 5143.0,670.0 5213.0,690.0 C 5284.0,710.0 5304.0,722.0 5362.0,772.0 L 5428.0,831.0 L 5487.0,805.0 C 5519.0,791.0 5566.0,758.0 5593.0,732.0 C 5635.0,691.0 5640.0,681.0 5640.0,643.0 C 5640.0,604.0 5642.0,600.0 5666.0,600.0 C 5680.0,600.0 5701.0,595.0 5712.0,589.0 C 5727.0,581.0 5743.0,582.0 5776.0,595.0 C 5824.0,613.0 5830.0,629.0 5809.0,688.0 C 5799.0,716.0 5803.0,725.0 5866.0,819.0 L 5932.0,919.0 L 5984.0,922.0 C 6034.0,925.0 6035.0,926.0 6038.0,958.0 C 6040.0,976.0 6048.0,994.0 6055.0,997.0 C 6075.0,1004.0 6158.0,971.0 6173.0,950.0 C 6184.0,934.0 6190.0,934.0 6266.0,957.0 L 6347.0,981.0 L 6383.0,945.0 C 6403.0,925.0 6428.0,910.0 6442.0,910.0 C 6469.0,910.0 6545.0,943.0 6554.0,959.0 C 6558.0,965.0 6577.0,970.0 6595.0,970.0 C 6624.0,970.0 6634.0,976.0 6652.0,1005.0 C 6665.0,1024.0 6682.0,1040.0 6690.0,1040.0 C 6699.0,1040.0 6714.0,1056.0 6724.0,1075.0 C 6756.0,1134.0 6766.0,1137.0 6803.0,1102.0 C 6823.0,1083.0 6846.0,1070.0 6862.0,1070.0 C 6883.0,1070.0 6891.0,1078.0 6906.0,1116.0 L 6925.0,1162.0 L 6983.0,1115.0 C 7036.0,1072.0 7047.0,1067.0 7102.0,1064.0 C 7143.0,1061.0 7169.0,1065.0 7182.0,1074.0 C 7198.0,1085.0 7208.0,1086.0 7227.0,1077.0 C 7248.0,1068.0 7254.0,1069.0 7267.0,1085.0 C 7276.0,1098.0 7290.0,1104.0 7305.0,1102.0 C 7321.0,1100.0 7333.0,1106.0 7342.0,1119.0 C 7351.0,1135.0 7365.0,1140.0 7394.0,1140.0 C 7425.0,1140.0 7441.0,1147.0 7466.0,1171.0 C 7496.0,1200.0 7501.0,1202.0 7528.0,1191.0 C 7544.0,1184.0 7581.0,1154.0 7611.0,1124.0 C 7640.0,1095.0 7669.0,1070.0 7675.0,1070.0 C 7681.0,1070.0 7696.0,1084.0 7708.0,1100.0 C 7728.0,1127.0 7736.0,1130.0 7784.0,1130.0 L 7837.0,1130.0 L 7855.0,1196.0 C 7871.0,1257.0 7876.0,1264.0 7919.0,1291.0 C 7965.0,1319.0 7966.0,1321.0 7994.0,1419.0 L 8021.0,1518.0 L 8002.0,1557.0 C 7989.0,1581.0 7950.0,1620.0 7901.0,1659.0 C 7856.0,1694.0 7820.0,1723.0 7820.0,1724.0 C 7820.0,1747.0 7854.0,1889.0 7864.0,1909.0 C 7874.0,1927.0 7877.0,1951.0 7873.0,1973.0 C 7869.0,2000.0 7873.0,2016.0 7889.0,2038.0 C 7935.0,2103.0 7934.0,2111.0 7874.0,2194.0 C 7845.0,2236.0 7820.0,2277.0 7820.0,2286.0 C 7820.0,2294.0 7835.0,2309.0 7853.0,2318.0 C 7870.0,2327.0 7903.0,2353.0 7924.0,2375.0 C 7957.0,2408.0 7969.0,2414.0 7999.0,2411.0 C 8027.0,2409.0 8041.0,2415.0 8059.0,2433.0 L 8082.0,2458.0 L 8145.0,2429.0 L 8209.0,2400.0 L 8252.0,2420.0 C 8276.0,2431.0 8309.0,2440.0 8326.0,2440.0 C 8372.0,2440.0 8409.0,2493.0 8426.0,2583.0 C 8434.0,2622.0 8445.0,2657.0 8452.0,2662.0 C 8626.0,2765.0 8624.0,2764.0 8659.0,2830.0 C 8678.0,2865.0 8706.0,2905.0 8722.0,2918.0 C 8766.0,2955.0 8777.0,2986.0 8785.0,3091.0 L 8792.0,3188.0 L 8754.0,3200.0 C 8671.0,3227.0 8619.0,3285.0 8534.0,3445.0 C 8474.0,3556.0 8424.0,3603.0 8333.0,3630.0 C 8273.0,3648.0 8255.0,3659.0 8230.0,3690.0 C 8207.0,3719.0 8190.0,3730.0 8159.0,3735.0 C 8129.0,3740.0 8114.0,3750.0 8097.0,3775.0 C 8080.0,3801.0 8066.0,3810.0 8033.0,3815.0 C 8002.0,3819.0 7990.0,3826.0 7990.0,3838.0 C 7990.0,3847.0 7972.0,3904.0 7950.0,3964.0 C 7916.0,4058.0 7910.0,4085.0 7910.0,4155.0 L 7910.0,4235.0 L 7830.0,4315.0 C 7755.0,4389.0 7750.0,4397.0 7750.0,4437.0 C 7750.0,4460.0 7736.0,4512.0 7719.0,4556.0 L 7688.0,4633.0 L 7709.0,4687.0 C 7724.0,4725.0 7730.0,4765.0 7730.0,4818.0 C 7730.0,4873.0 7736.0,4908.0 7750.0,4939.0 C 7762.0,4964.0 7770.0,5004.0 7770.0,5035.0 L 7770.0,5087.0 L 7861.0,5106.0 C 7948.0,5123.0 7954.0,5126.0 7977.0,5162.0 C 7996.0,5190.0 8017.0,5205.0 8061.0,5222.0 L 8120.0,5245.0 L 8120.0,5332.0 C 8120.0,5435.0 8127.0,5458.0 8180.0,5518.0 C 8226.0,5569.0 8249.0,5636.0 8241.0,5688.0 C 8235.0,5723.0 8232.0,5725.0 8125.0,5771.0 C 8064.0,5797.0 8005.0,5829.0 7992.0,5841.0 C 7963.0,5871.0 7936.0,5946.0 7921.0,6034.0 C 7914.0,6072.0 7900.0,6120.0 7890.0,6140.0 L 7871.0,6178.0 L 7921.0,6182.0 C 7981.0,6188.0 8020.0,6219.0 8020.0,6262.0 C 8020.0,6293.0 8036.0,6330.0 8054.0,6342.0 C 8077.0,6358.0 8133.0,6349.0 8190.0,6320.0 C 8275.0,6277.0 8330.0,6281.0 8351.0,6332.0 C 8391.0,6428.0 8305.0,6530.0 8171.0,6543.0 C 8108.0,6550.0 8107.0,6550.0 8011.0,6639.0 C 7921.0,6722.0 7910.0,6729.0 7852.0,6740.0 L 7790.0,6753.0 L 7752.0,6718.0 C 7726.0,6694.0 7695.0,6678.0 7659.0,6670.0 C 7587.0,6653.0 7589.0,6655.0 7531.0,6580.0 C 7497.0,6535.0 7463.0,6472.0 7423.0,6376.0 C 7370.0,6250.0 7362.0,6236.0 7332.0,6223.0 C 7277.0,6200.0 7220.0,6228.0 7151.0,6312.0 C 7105.0,6368.0 7093.0,6392.0 7079.0,6451.0 C 7070.0,6490.0 7056.0,6528.0 7048.0,6536.0 C 7040.0,6544.0 6970.0,6568.0 6892.0,6590.0 C 6770.0,6624.0 6731.0,6631.0 6617.0,6636.0 C 6410.0,6644.0 6368.0,6662.0 6355.0,6742.0 C 6343.0,6827.0 6339.0,6835.0 6307.0,6857.0 C 6268.0,6884.0 6151.0,6908.0 6089.0,6902.0 C 6028.0,6897.0 6009.0,6908.0 5955.0,6982.0 C 5912.0,7041.0 5911.0,7044.0 5926.0,7071.0 C 5941.0,7100.0 5966.0,7106.0 6060.0,7103.0 C 6118.0,7101.0 6216.0,7123.0 6238.0,7143.0 C 6261.0,7164.0 6268.0,7221.0 6251.0,7249.0 C 6246.0,7256.0 6198.0,7281.0 6143.0,7304.0 C 6061.0,7338.0 6036.0,7354.0 5996.0,7398.0 C 5951.0,7446.0 5948.0,7453.0 5958.0,7475.0 C 5966.0,7492.0 5978.0,7500.0 5994.0,7500.0 C 6038.0,7500.0 6047.0,7510.0 6080.0,7594.0 C 6110.0,7672.0 6115.0,7679.0 6165.0,7709.0 C 6217.0,7740.0 6218.0,7742.0 6209.0,7773.0 C 6204.0,7791.0 6200.0,7806.0 6200.0,7807.0 C 6200.0,7821.0 6132.0,7880.0 6110.0,7885.0 C 6094.0,7888.0 6063.0,7909.0 6041.0,7931.0 C 6003.0,7969.0 5999.0,7971.0 5943.0,7969.0 C 5848.0,7966.0 5769.0,7980.0 5708.0,8012.0 C 5637.0,8050.0 5617.0,8072.0 5595.0,8138.0 C 5586.0,8166.0 5576.0,8190.0 5573.0,8190.0 C 5569.0,8190.0 5547.0,8178.0 5522.0,8164.0 L 5478.0,8138.0 L 5451.0,8164.0 C 5436.0,8178.0 5416.0,8190.0 5407.0,8190.0 C 5398.0,8190.0 5382.0,8198.0 5372.0,8208.0 C 5362.0,8218.0 5339.0,8232.0 5320.0,8240.0 C 5301.0,8247.0 5245.0,8293.0 5195.0,8341.0 C 5146.0,8389.0 5096.0,8430.0 5085.0,8432.0 C 5072.0,8434.0 5059.0,8453.0 5045.0,8490.0 C 5025.0,8543.0 5023.0,8544.0 4962.0,8564.0 C 4889.0,8587.0 4885.0,8601.0 4935.0,8650.0 C 4988.0,8701.0 4982.0,8737.0 4908.0,8817.0 L 4870.0,8860.0 L 4886.0,8897.0 C 4919.0,8975.0 4921.0,8986.0 4915.0,9041.0 C 4910.0,9080.0 4913.0,9114.0 4924.0,9150.0 C 4957.0,9261.0 4934.0,9301.0 4874.0,9236.0 C 4840.0,9199.0 4813.0,9192.0 4767.0,9209.0 C 4741.0,9219.0 4668.0,9340.0 4654.0,9395.0 C 4645.0,9431.0 4575.0,9548.0 4547.0,9573.0 C 4534.0,9585.0 4511.0,9590.0 4473.0,9590.0 C 4414.0,9590.0 4385.0,9611.0 4360.0,9670.0 C 4351.0,9692.0 4338.0,9702.0 4309.0,9710.0 C 4287.0,9715.0 4252.0,9725.0 4231.0,9730.0 C 4187.0,9742.0 4126.0,9807.0 4136.0,9833.0 C 4145.0,9857.0 4085.0,9963.0 4037.0,10007.0 C 4012.0,10030.0 3990.0,10059.0 3988.0,10071.0 C 3986.0,10087.0 3974.0,10096.0 3941.0,10106.0 C 3917.0,10113.0 3887.0,10128.0 3875.0,10140.0 C 3855.0,10159.0 3844.0,10161.0 3803.0,10155.0 C 3760.0,10149.0 3752.0,10151.0 3731.0,10174.0 C 3699.0,10208.0 3675.0,10207.0 3633.0,10169.0 L 3597.0,10138.0 L 3561.0,10173.0 C 3501.0,10230.0 3424.0,10240.0 3368.0,10196.0 C 3322.0,10161.0 3210.0,10110.0 3180.0,10110.0 C 3156.0,10110.0 3118.0,10133.0 3020.0,10208.0 C 2978.0,10239.0 2974.0,10240.0 2881.0,10240.0 C 2806.0,10239.0 2777.0,10235.0 2748.0,10220.0" fill="pink"/>
</svg>
