<?xml version="1.0" ?>
<svg xmlns="http://www.w3.org/2000/svg" xmlns:ev="http://www.w3.org/2001/xml-events" xmlns:xlink="http://www.w3.org/1999/xlink" baseProfile="full" height="356px" version="1.1" viewBox="-1028.954175 1467.880825 12296.25835 7294.23835" width="600px">
	<defs/>
	<path d="M 9177.0,8126.0 C 9167.0,8111.0 9148.0,8101.0 9123.0,8097.0 C 9070.0,8088.0 9043.0,8066.0 9036.0,8026.0 C 9032.0,8007.0 9023.0,7978.0 9015.0,7963.0 C 9007.0,7948.0 9000.0,7932.0 9000.0,7928.0 C 9000.0,7923.0 9025.0,7920.0 9056.0,7920.0 C 9089.0,7920.0 9109.0,7916.0 9105.0,7910.0 C 9095.0,7895.0 9030.0,7887.0 8996.0,7897.0 C 8975.0,7904.0 8958.0,7903.0 8945.0,7896.0 C 8900.0,7872.0 8780.0,7792.0 8710.0,7739.0 C 8669.0,7708.0 8624.0,7677.0 8610.0,7670.0 C 8596.0,7663.0 8563.0,7633.0 8537.0,7604.0 C 8510.0,7574.0 8480.0,7550.0 8469.0,7550.0 C 8457.0,7550.0 8450.0,7543.0 8450.0,7531.0 C 8450.0,7499.0 8398.0,7397.0 8363.0,7360.0 C 8345.0,7341.0 8327.0,7317.0 8324.0,7307.0 C 8317.0,7285.0 8346.0,7250.0 8371.0,7250.0 C 8381.0,7250.0 8410.0,7240.0 8435.0,7228.0 C 8470.0,7211.0 8480.0,7201.0 8480.0,7182.0 C 8480.0,7167.0 8475.0,7160.0 8468.0,7163.0 C 8461.0,7166.0 8436.0,7157.0 8414.0,7144.0 C 8379.0,7124.0 8370.0,7123.0 8355.0,7134.0 C 8342.0,7143.0 8340.0,7149.0 8348.0,7154.0 C 8367.0,7165.0 8362.0,7197.0 8341.0,7203.0 C 8316.0,7209.0 8280.0,7184.0 8280.0,7162.0 C 8280.0,7153.0 8287.0,7136.0 8295.0,7126.0 C 8319.0,7094.0 8313.0,7052.0 8282.0,7022.0 C 8266.0,7007.0 8245.0,6982.0 8234.0,6966.0 C 8224.0,6950.0 8207.0,6926.0 8197.0,6911.0 C 8185.0,6892.0 8181.0,6875.0 8186.0,6848.0 C 8191.0,6813.0 8190.0,6810.0 8163.0,6805.0 C 8148.0,6801.0 8125.0,6794.0 8112.0,6789.0 C 8078.0,6776.0 8072.0,6778.0 8068.0,6802.0 C 8063.0,6835.0 8006.0,6851.0 7955.0,6833.0 C 7872.0,6804.0 7845.0,6778.0 7810.0,6688.0 C 7792.0,6642.0 7768.0,6595.0 7757.0,6583.0 C 7736.0,6559.0 7710.0,6552.0 7710.0,6570.0 C 7710.0,6586.0 7652.0,6582.0 7618.0,6564.0 C 7553.0,6531.0 7511.0,6527.0 7541.0,6557.0 C 7556.0,6572.0 7544.0,6590.0 7520.0,6590.0 C 7510.0,6590.0 7473.0,6571.0 7438.0,6547.0 C 7403.0,6523.0 7338.0,6487.0 7292.0,6465.0 C 7247.0,6444.0 7205.0,6421.0 7199.0,6413.0 C 7193.0,6406.0 7177.0,6400.0 7165.0,6400.0 C 7152.0,6400.0 7139.0,6393.0 7136.0,6384.0 C 7127.0,6362.0 7128.0,6360.0 7145.0,6360.0 C 7166.0,6360.0 7164.0,6346.0 7136.0,6313.0 C 7118.0,6292.0 7115.0,6280.0 7121.0,6262.0 C 7128.0,6243.0 7133.0,6241.0 7149.0,6250.0 C 7174.0,6263.0 7180.0,6263.0 7180.0,6248.0 C 7180.0,6241.0 7191.0,6222.0 7204.0,6206.0 L 7227.0,6176.0 L 7200.0,6161.0 C 7099.0,6102.0 7063.0,6074.0 7048.0,6038.0 C 7034.0,6006.0 7027.0,6000.0 7001.0,6000.0 C 6985.0,6000.0 6968.0,6005.0 6965.0,6010.0 C 6957.0,6023.0 6920.0,6023.0 6920.0,6010.0 C 6920.0,6005.0 6926.0,5983.0 6934.0,5963.0 C 6942.0,5942.0 6951.0,5913.0 6954.0,5898.0 C 6957.0,5884.0 6963.0,5865.0 6966.0,5856.0 C 6971.0,5843.0 6965.0,5840.0 6931.0,5840.0 C 6897.0,5840.0 6882.0,5847.0 6846.0,5880.0 C 6822.0,5902.0 6795.0,5920.0 6785.0,5920.0 C 6768.0,5920.0 6768.0,5931.0 6785.0,5972.0 C 6790.0,5985.0 6786.0,5991.0 6767.0,5995.0 C 6754.0,5999.0 6728.0,6021.0 6710.0,6046.0 C 6664.0,6106.0 6623.0,6119.0 6568.0,6090.0 C 6540.0,6075.0 6515.0,6070.0 6494.0,6073.0 C 6456.0,6079.0 6444.0,6073.0 6430.0,6036.0 C 6422.0,6013.0 6423.0,6004.0 6435.0,5990.0 C 6478.0,5942.0 6411.0,5890.0 6305.0,5890.0 C 6257.0,5890.0 6251.0,5892.0 6248.0,5913.0 C 6246.0,5926.0 6239.0,5934.0 6230.0,5931.0 C 6222.0,5930.0 6192.0,5925.0 6164.0,5921.0 C 6136.0,5917.0 6100.0,5904.0 6083.0,5892.0 C 6047.0,5866.0 6024.0,5864.0 6012.0,5885.0 C 6005.0,5899.0 6001.0,5898.0 5985.0,5880.0 C 5964.0,5856.0 5937.0,5854.0 5920.0,5875.0 C 5903.0,5896.0 5897.0,5894.0 5877.0,5861.0 C 5855.0,5823.0 5856.0,5817.0 5880.0,5823.0 C 5910.0,5831.0 5905.0,5806.0 5869.0,5776.0 C 5852.0,5762.0 5818.0,5738.0 5794.0,5724.0 C 5768.0,5709.0 5747.0,5688.0 5744.0,5675.0 C 5738.0,5651.0 5710.0,5632.0 5710.0,5652.0 C 5710.0,5670.0 5762.0,5780.0 5771.0,5780.0 C 5789.0,5780.0 5818.0,5824.0 5830.0,5868.0 C 5837.0,5894.0 5853.0,5926.0 5865.0,5940.0 C 5908.0,5987.0 5945.0,6072.0 5944.0,6120.0 C 5944.0,6157.0 5935.0,6177.0 5899.0,6228.0 C 5865.0,6277.0 5851.0,6290.0 5836.0,6286.0 C 5825.0,6283.0 5812.0,6287.0 5806.0,6295.0 C 5790.0,6317.0 5687.0,6277.0 5671.0,6244.0 C 5661.0,6221.0 5640.0,6213.0 5627.0,6226.0 C 5624.0,6230.0 5628.0,6246.0 5636.0,6261.0 C 5649.0,6287.0 5649.0,6291.0 5635.0,6296.0 C 5627.0,6300.0 5598.0,6299.0 5572.0,6295.0 L 5525.0,6288.0 L 5553.0,6317.0 C 5568.0,6333.0 5580.0,6349.0 5580.0,6353.0 C 5580.0,6363.0 5513.0,6379.0 5492.0,6374.0 C 5461.0,6365.0 5420.0,6288.0 5420.0,6238.0 C 5420.0,6214.0 5425.0,6189.0 5432.0,6182.0 C 5441.0,6173.0 5433.0,6170.0 5396.0,6170.0 C 5350.0,6170.0 5348.0,6169.0 5354.0,6145.0 C 5359.0,6124.0 5354.0,6116.0 5321.0,6094.0 C 5272.0,6062.0 5255.0,6065.0 5275.0,6103.0 C 5292.0,6135.0 5282.0,6137.0 5231.0,6111.0 C 5211.0,6100.0 5182.0,6089.0 5167.0,6085.0 C 5146.0,6081.0 5140.0,6075.0 5145.0,6062.0 C 5149.0,6048.0 5139.0,6039.0 5097.0,6022.0 C 5068.0,6010.0 5041.0,6000.0 5037.0,6000.0 C 5033.0,6000.0 5004.0,5980.0 4971.0,5955.0 C 4939.0,5930.0 4906.0,5910.0 4899.0,5910.0 C 4892.0,5910.0 4879.0,5903.0 4869.0,5894.0 C 4855.0,5882.0 4853.0,5872.0 4860.0,5854.0 C 4865.0,5841.0 4867.0,5823.0 4864.0,5815.0 C 4860.0,5806.0 4866.0,5790.0 4875.0,5780.0 C 4885.0,5769.0 4891.0,5759.0 4889.0,5757.0 C 4887.0,5755.0 4863.0,5744.0 4835.0,5732.0 C 4780.0,5707.0 4750.0,5704.0 4674.0,5715.0 C 4625.0,5722.0 4622.0,5721.0 4614.0,5699.0 C 4610.0,5686.0 4606.0,5664.0 4605.0,5650.0 C 4604.0,5636.0 4599.0,5609.0 4595.0,5589.0 C 4589.0,5558.0 4592.0,5548.0 4617.0,5519.0 C 4632.0,5500.0 4655.0,5471.0 4666.0,5455.0 L 4687.0,5424.0 L 4653.0,5428.0 C 4626.0,5431.0 4613.0,5441.0 4595.0,5470.0 C 4582.0,5491.0 4557.0,5518.0 4540.0,5530.0 C 4511.0,5551.0 4505.0,5552.0 4467.0,5539.0 C 4412.0,5522.0 4413.0,5524.0 4441.0,5501.0 L 4465.0,5481.0 L 4443.0,5480.0 C 4430.0,5480.0 4420.0,5485.0 4420.0,5491.0 C 4420.0,5497.0 4408.0,5500.0 4393.0,5498.0 C 4373.0,5496.0 4364.0,5489.0 4362.0,5473.0 C 4358.0,5447.0 4387.0,5400.0 4406.0,5400.0 C 4422.0,5400.0 4460.0,5343.0 4460.0,5320.0 C 4460.0,5312.0 4448.0,5322.0 4434.0,5342.0 C 4416.0,5367.0 4398.0,5380.0 4375.0,5384.0 C 4357.0,5388.0 4337.0,5397.0 4330.0,5405.0 C 4316.0,5421.0 4324.0,5473.0 4346.0,5507.0 C 4367.0,5540.0 4364.0,5649.0 4342.0,5678.0 C 4326.0,5698.0 4322.0,5699.0 4312.0,5687.0 C 4302.0,5676.0 4303.0,5670.0 4315.0,5660.0 C 4332.0,5646.0 4335.0,5594.0 4321.0,5557.0 C 4315.0,5541.0 4300.0,5529.0 4282.0,5525.0 C 4266.0,5522.0 4242.0,5508.0 4230.0,5495.0 C 4208.0,5472.0 4207.0,5467.0 4218.0,5419.0 C 4235.0,5346.0 4233.0,5306.0 4211.0,5286.0 C 4201.0,5277.0 4185.0,5251.0 4174.0,5229.0 C 4160.0,5196.0 4158.0,5185.0 4168.0,5169.0 C 4177.0,5154.0 4178.0,5144.0 4169.0,5129.0 C 4160.0,5112.0 4161.0,5104.0 4173.0,5093.0 C 4185.0,5080.0 4194.0,5080.0 4224.0,5090.0 C 4255.0,5100.0 4263.0,5099.0 4287.0,5082.0 C 4333.0,5049.0 4347.0,5027.0 4353.0,4978.0 C 4358.0,4942.0 4356.0,4931.0 4344.0,4926.0 C 4321.0,4917.0 4320.0,4918.0 4320.0,4950.0 C 4320.0,4966.0 4312.0,4995.0 4303.0,5015.0 C 4288.0,5047.0 4282.0,5050.0 4245.0,5050.0 C 4188.0,5050.0 4167.0,5026.0 4162.0,4950.0 C 4158.0,4900.0 4155.0,4891.0 4136.0,4886.0 C 4120.0,4882.0 4109.0,4867.0 4099.0,4833.0 C 4087.0,4794.0 4077.0,4783.0 4040.0,4763.0 C 4015.0,4750.0 3993.0,4735.0 3992.0,4730.0 C 3987.0,4715.0 3953.0,4718.0 3920.0,4735.0 C 3886.0,4753.0 3881.0,4770.0 3909.0,4770.0 C 3941.0,4770.0 3960.0,4781.0 3960.0,4801.0 C 3960.0,4811.0 3979.0,4832.0 4004.0,4849.0 C 4058.0,4886.0 4090.0,4925.0 4090.0,4953.0 C 4090.0,4964.0 4100.0,4985.0 4113.0,4998.0 L 4135.0,5022.0 L 4113.0,5040.0 C 4085.0,5063.0 4084.0,5094.0 4110.0,5160.0 C 4121.0,5188.0 4130.0,5222.0 4130.0,5236.0 C 4130.0,5250.0 4139.0,5278.0 4150.0,5300.0 C 4172.0,5343.0 4176.0,5400.0 4159.0,5431.0 C 4150.0,5448.0 4156.0,5463.0 4189.0,5520.0 C 4240.0,5606.0 4242.0,5640.0 4198.0,5672.0 C 4180.0,5685.0 4150.0,5700.0 4132.0,5707.0 L 4098.0,5718.0 L 4060.0,5657.0 C 4001.0,5564.0 3984.0,5544.0 3933.0,5514.0 C 3906.0,5499.0 3882.0,5482.0 3878.0,5476.0 C 3865.0,5458.0 3869.0,5442.0 3887.0,5438.0 C 3902.0,5435.0 3902.0,5434.0 3887.0,5419.0 C 3878.0,5410.0 3868.0,5389.0 3864.0,5374.0 C 3860.0,5358.0 3846.0,5334.0 3832.0,5321.0 L 3806.0,5298.0 L 3841.0,5269.0 C 3868.0,5247.0 3874.0,5236.0 3872.0,5211.0 C 3870.0,5194.0 3877.0,5167.0 3887.0,5150.0 L 3905.0,5119.0 L 3872.0,5089.0 C 3840.0,5060.0 3837.0,5060.0 3824.0,5077.0 C 3817.0,5087.0 3810.0,5108.0 3810.0,5124.0 C 3810.0,5142.0 3800.0,5165.0 3784.0,5181.0 C 3756.0,5211.0 3750.0,5219.0 3707.0,5299.0 C 3687.0,5337.0 3669.0,5356.0 3642.0,5368.0 C 3591.0,5391.0 3550.0,5425.0 3550.0,5443.0 C 3550.0,5452.0 3545.0,5462.0 3539.0,5466.0 C 3533.0,5469.0 3530.0,5480.0 3533.0,5490.0 C 3536.0,5501.0 3527.0,5519.0 3510.0,5535.0 L 3482.0,5562.0 L 3461.0,5541.0 C 3434.0,5514.0 3435.0,5494.0 3466.0,5449.0 C 3487.0,5418.0 3491.0,5403.0 3488.0,5354.0 L 3485.0,5295.0 L 3448.0,5292.0 C 3421.0,5290.0 3409.0,5283.0 3404.0,5268.0 C 3400.0,5254.0 3395.0,5251.0 3388.0,5258.0 C 3380.0,5266.0 3382.0,5277.0 3394.0,5294.0 C 3419.0,5333.0 3415.0,5350.0 3381.0,5350.0 C 3365.0,5350.0 3340.0,5346.0 3327.0,5341.0 C 3308.0,5334.0 3292.0,5337.0 3254.0,5356.0 C 3218.0,5374.0 3196.0,5379.0 3173.0,5375.0 C 3155.0,5372.0 3132.0,5374.0 3121.0,5380.0 C 3103.0,5389.0 3103.0,5392.0 3116.0,5419.0 C 3124.0,5435.0 3140.0,5451.0 3153.0,5454.0 C 3207.0,5469.0 3140.0,5476.0 2987.0,5473.0 C 2898.0,5471.0 2810.0,5469.0 2791.0,5470.0 C 2765.0,5470.0 2748.0,5462.0 2724.0,5439.0 L 2692.0,5408.0 L 2653.0,5426.0 C 2617.0,5444.0 2615.0,5447.0 2618.0,5490.0 C 2622.0,5563.0 2623.0,5564.0 2690.0,5557.0 L 2750.0,5550.0 L 2750.0,5596.0 C 2750.0,5650.0 2734.0,5683.0 2686.0,5729.0 L 2650.0,5764.0 L 2650.0,5719.0 C 2650.0,5666.0 2632.0,5636.0 2582.0,5611.0 C 2547.0,5593.0 2545.0,5589.0 2545.0,5544.0 C 2545.0,5500.0 2542.0,5494.0 2510.0,5473.0 C 2491.0,5461.0 2469.0,5446.0 2462.0,5440.0 C 2453.0,5432.0 2450.0,5436.0 2450.0,5459.0 C 2450.0,5476.0 2440.0,5504.0 2427.0,5523.0 C 2406.0,5555.0 2403.0,5556.0 2375.0,5544.0 C 2358.0,5537.0 2311.0,5531.0 2269.0,5530.0 L 2193.0,5530.0 L 2167.0,5477.0 C 2152.0,5448.0 2140.0,5419.0 2140.0,5412.0 C 2140.0,5393.0 2101.0,5420.0 2094.0,5445.0 C 2090.0,5456.0 2082.0,5472.0 2075.0,5480.0 C 2068.0,5488.0 2060.0,5512.0 2057.0,5533.0 C 2050.0,5579.0 2035.0,5600.0 2009.0,5600.0 C 1982.0,5600.0 1967.0,5563.0 1973.0,5510.0 C 1979.0,5457.0 1971.0,5436.0 1944.0,5442.0 C 1887.0,5453.0 1868.0,5597.0 1915.0,5666.0 C 1928.0,5686.0 1942.0,5709.0 1945.0,5718.0 C 1948.0,5727.0 1965.0,5744.0 1983.0,5755.0 C 2016.0,5776.0 2030.0,5814.0 2012.0,5832.0 C 2005.0,5839.0 2007.0,5854.0 2016.0,5876.0 C 2024.0,5894.0 2030.0,5922.0 2030.0,5937.0 C 2030.0,5952.0 2034.0,5970.0 2038.0,5977.0 C 2042.0,5983.0 2045.0,5969.0 2045.0,5947.0 C 2046.0,5918.0 2059.0,5878.0 2088.0,5821.0 C 2111.0,5775.0 2130.0,5729.0 2130.0,5719.0 C 2130.0,5691.0 2193.0,5634.0 2246.0,5614.0 C 2291.0,5597.0 2296.0,5597.0 2359.0,5613.0 C 2432.0,5633.0 2440.0,5640.0 2440.0,5690.0 C 2440.0,5710.0 2447.0,5735.0 2455.0,5747.0 C 2469.0,5767.0 2469.0,5775.0 2450.0,5829.0 C 2439.0,5862.0 2430.0,5907.0 2430.0,5928.0 C 2430.0,5950.0 2423.0,5983.0 2416.0,6002.0 C 2408.0,6021.0 2404.0,6047.0 2407.0,6059.0 C 2411.0,6074.0 2406.0,6087.0 2391.0,6101.0 C 2380.0,6112.0 2370.0,6127.0 2370.0,6136.0 C 2370.0,6144.0 2359.0,6155.0 2346.0,6161.0 C 2331.0,6168.0 2320.0,6184.0 2316.0,6202.0 C 2307.0,6250.0 2308.0,6253.0 2335.0,6236.0 C 2359.0,6220.0 2360.0,6220.0 2360.0,6245.0 C 2360.0,6284.0 2343.0,6309.0 2322.0,6303.0 C 2312.0,6301.0 2298.0,6306.0 2291.0,6314.0 C 2283.0,6323.0 2262.0,6330.0 2240.0,6330.0 C 2220.0,6330.0 2189.0,6335.0 2171.0,6341.0 C 2129.0,6356.0 2098.0,6347.0 2061.0,6309.0 C 2039.0,6288.0 2030.0,6269.0 2030.0,6247.0 C 2030.0,6229.0 2025.0,6198.0 2019.0,6178.0 C 2010.0,6142.0 2007.0,6140.0 1970.0,6140.0 C 1922.0,6140.0 1865.0,6095.0 1855.0,6050.0 C 1848.0,6018.0 1814.0,5970.0 1799.0,5970.0 C 1782.0,5970.0 1695.0,5928.0 1688.0,5916.0 C 1684.0,5910.0 1685.0,5901.0 1690.0,5896.0 C 1706.0,5880.0 1701.0,5862.0 1679.0,5855.0 C 1663.0,5850.0 1660.0,5841.0 1662.0,5817.0 C 1665.0,5786.0 1664.0,5785.0 1620.0,5780.0 L 1575.0,5775.0 L 1558.0,5706.0 C 1549.0,5668.0 1535.0,5631.0 1527.0,5623.0 C 1510.0,5606.0 1369.0,5591.0 1226.0,5590.0 C 1128.0,5590.0 1127.0,5590.0 1145.0,5570.0 C 1162.0,5551.0 1162.0,5549.0 1147.0,5532.0 C 1125.0,5508.0 1126.0,5498.0 1151.0,5466.0 C 1163.0,5451.0 1169.0,5436.0 1165.0,5432.0 C 1161.0,5428.0 1153.0,5433.0 1146.0,5443.0 C 1139.0,5452.0 1130.0,5460.0 1126.0,5460.0 C 1123.0,5460.0 1099.0,5470.0 1075.0,5481.0 C 1033.0,5501.0 1028.0,5501.0 1011.0,5486.0 C 1002.0,5477.0 983.0,5470.0 971.0,5470.0 C 948.0,5470.0 897.0,5436.0 849.0,5388.0 C 833.0,5372.0 811.0,5360.0 796.0,5360.0 C 777.0,5360.0 767.0,5353.0 759.0,5333.0 C 732.0,5267.0 724.0,5253.0 689.0,5210.0 C 659.0,5173.0 654.0,5159.0 658.0,5131.0 C 661.0,5110.0 669.0,5096.0 681.0,5093.0 C 698.0,5088.0 698.0,5085.0 686.0,5061.0 C 672.0,5035.0 673.0,5034.0 701.0,5021.0 C 726.0,5010.0 730.0,5003.0 730.0,4970.0 C 730.0,4940.0 725.0,4930.0 710.0,4925.0 C 699.0,4922.0 690.0,4910.0 690.0,4900.0 C 690.0,4890.0 680.0,4880.0 667.0,4876.0 C 644.0,4871.0 620.0,4834.0 620.0,4805.0 C 620.0,4797.0 613.0,4770.0 604.0,4744.0 C 588.0,4698.0 589.0,4696.0 610.0,4680.0 C 625.0,4668.0 629.0,4661.0 621.0,4656.0 C 615.0,4652.0 610.0,4640.0 610.0,4628.0 C 610.0,4614.0 605.0,4610.0 594.0,4614.0 C 585.0,4617.0 567.0,4620.0 554.0,4620.0 C 541.0,4620.0 530.0,4626.0 530.0,4633.0 C 530.0,4640.0 524.0,4655.0 516.0,4665.0 C 504.0,4681.0 500.0,4682.0 486.0,4671.0 C 477.0,4664.0 470.0,4651.0 470.0,4643.0 C 470.0,4635.0 457.0,4615.0 440.0,4600.0 C 419.0,4580.0 410.0,4563.0 410.0,4540.0 C 410.0,4510.0 412.0,4508.0 439.0,4513.0 C 463.0,4518.0 474.0,4513.0 504.0,4484.0 C 557.0,4432.0 561.0,4405.0 518.0,4365.0 C 470.0,4322.0 465.0,4300.0 490.0,4257.0 L 511.0,4221.0 L 486.0,4177.0 C 460.0,4133.0 460.0,4133.0 480.0,4115.0 C 491.0,4105.0 500.0,4087.0 500.0,4075.0 C 500.0,4048.0 515.0,4034.0 553.0,4025.0 C 577.0,4019.0 580.0,4013.0 580.0,3975.0 C 580.0,3941.0 584.0,3931.0 600.0,3927.0 C 612.0,3924.0 620.0,3913.0 620.0,3902.0 C 620.0,3891.0 630.0,3869.0 643.0,3853.0 C 668.0,3823.0 695.0,3746.0 686.0,3731.0 C 683.0,3726.0 665.0,3719.0 646.0,3716.0 C 608.0,3709.0 594.0,3696.0 585.0,3659.0 C 581.0,3644.0 562.0,3622.0 539.0,3607.0 L 500.0,3581.0 L 478.0,3611.0 C 454.0,3643.0 425.0,3648.0 371.0,3629.0 C 329.0,3614.0 332.0,3590.0 380.0,3560.0 C 401.0,3547.0 418.0,3535.0 417.0,3534.0 C 410.0,3527.0 282.0,3564.0 268.0,3577.0 C 246.0,3597.0 215.0,3586.0 225.0,3562.0 C 229.0,3553.0 234.0,3529.0 237.0,3510.0 C 242.0,3477.0 242.0,3476.0 225.0,3492.0 C 209.0,3507.0 203.0,3507.0 166.0,3494.0 C 144.0,3486.0 120.0,3472.0 113.0,3463.0 C 102.0,3449.0 97.0,3451.0 69.0,3484.0 C 51.0,3504.0 33.0,3520.0 30.0,3520.0 C 19.0,3520.0 0.0,3471.0 0.0,3444.0 C 0.0,3423.0 53.0,3306.0 70.0,3290.0 C 81.0,3280.0 102.0,3174.0 101.0,3133.0 C 100.0,3096.0 103.0,3089.0 129.0,3075.0 C 158.0,3060.0 188.0,3009.0 203.0,2948.0 C 207.0,2932.0 217.0,2920.0 226.0,2920.0 C 234.0,2920.0 261.0,2900.0 286.0,2875.0 C 320.0,2840.0 330.0,2822.0 330.0,2797.0 C 330.0,2779.0 335.0,2759.0 340.0,2754.0 C 348.0,2746.0 346.0,2739.0 335.0,2730.0 C 311.0,2710.0 317.0,2700.0 355.0,2700.0 C 382.0,2700.0 401.0,2690.0 442.0,2653.0 C 504.0,2599.0 505.0,2597.0 485.0,2580.0 C 463.0,2562.0 466.0,2536.0 495.0,2502.0 C 514.0,2480.0 522.0,2456.0 526.0,2408.0 C 530.0,2374.0 540.0,2333.0 548.0,2318.0 C 563.0,2293.0 568.0,2291.0 605.0,2297.0 C 627.0,2300.0 651.0,2306.0 659.0,2310.0 C 681.0,2322.0 700.0,2390.0 700.0,2464.0 C 700.0,2522.0 705.0,2541.0 731.0,2586.0 C 775.0,2663.0 782.0,2696.0 765.0,2731.0 C 757.0,2746.0 750.0,2763.0 750.0,2767.0 C 750.0,2772.0 780.0,2784.0 816.0,2794.0 C 852.0,2805.0 895.0,2824.0 911.0,2837.0 C 937.0,2860.0 939.0,2860.0 949.0,2842.0 C 956.0,2828.0 967.0,2825.0 994.0,2828.0 C 1019.0,2831.0 1030.0,2828.0 1030.0,2820.0 C 1030.0,2811.0 1035.0,2812.0 1048.0,2823.0 C 1059.0,2833.0 1074.0,2837.0 1089.0,2833.0 C 1112.0,2827.0 1113.0,2829.0 1107.0,2869.0 C 1103.0,2903.0 1105.0,2910.0 1116.0,2906.0 C 1137.0,2898.0 1141.0,2913.0 1141.0,2996.0 C 1141.0,3065.0 1138.0,3076.0 1116.0,3099.0 C 1093.0,3123.0 1091.0,3130.0 1100.0,3159.0 C 1106.0,3181.0 1106.0,3199.0 1100.0,3211.0 C 1084.0,3240.0 1088.0,3250.0 1123.0,3265.0 C 1168.0,3285.0 1193.0,3310.0 1209.0,3348.0 C 1220.0,3375.0 1228.0,3381.0 1246.0,3377.0 C 1262.0,3374.0 1274.0,3381.0 1290.0,3402.0 C 1301.0,3417.0 1318.0,3430.0 1327.0,3430.0 C 1340.0,3430.0 1342.0,3421.0 1336.0,3366.0 C 1331.0,3313.0 1332.0,3301.0 1346.0,3296.0 C 1373.0,3286.0 1380.0,3289.0 1401.0,3325.0 C 1417.0,3351.0 1429.0,3360.0 1449.0,3360.0 C 1464.0,3360.0 1480.0,3364.0 1486.0,3370.0 C 1491.0,3375.0 1527.0,3384.0 1565.0,3391.0 C 1681.0,3409.0 1683.0,3409.0 1701.0,3371.0 C 1710.0,3352.0 1720.0,3342.0 1723.0,3348.0 C 1735.0,3366.0 1772.0,3348.0 1792.0,3314.0 C 1803.0,3296.0 1819.0,3278.0 1828.0,3275.0 C 1855.0,3266.0 1890.0,3179.0 1883.0,3136.0 C 1877.0,3100.0 1886.0,3090.0 1907.0,3111.0 C 1922.0,3126.0 1940.0,3114.0 1940.0,3090.0 C 1940.0,3060.0 1982.0,3037.0 2014.0,3050.0 C 2063.0,3068.0 2106.0,3063.0 2124.0,3035.0 C 2141.0,3010.0 2168.0,3003.0 2186.0,3019.0 C 2191.0,3024.0 2207.0,3026.0 2223.0,3023.0 C 2244.0,3019.0 2248.0,3015.0 2240.0,3005.0 C 2225.0,2987.0 2238.0,2941.0 2261.0,2927.0 C 2272.0,2920.0 2280.0,2910.0 2280.0,2903.0 C 2280.0,2882.0 2320.0,2877.0 2335.0,2896.0 C 2347.0,2914.0 2349.0,2913.0 2361.0,2888.0 C 2385.0,2833.0 2466.0,2838.0 2492.0,2895.0 C 2507.0,2930.0 2507.0,2931.0 2478.0,2968.0 C 2418.0,3042.0 2420.0,3060.0 2486.0,3060.0 C 2514.0,3060.0 2519.0,3064.0 2524.0,3094.0 C 2531.0,3131.0 2560.0,3164.0 2567.0,3143.0 C 2569.0,3136.0 2588.0,3126.0 2607.0,3119.0 C 2639.0,3109.0 2645.0,3110.0 2657.0,3125.0 C 2668.0,3141.0 2666.0,3146.0 2640.0,3162.0 C 2607.0,3181.0 2604.0,3190.0 2622.0,3208.0 C 2631.0,3217.0 2630.0,3220.0 2618.0,3220.0 C 2596.0,3220.0 2605.0,3252.0 2632.0,3269.0 C 2650.0,3280.0 2657.0,3279.0 2680.0,3262.0 C 2722.0,3230.0 2791.0,3221.0 3096.0,3203.0 C 3170.0,3199.0 3200.0,3202.0 3259.0,3220.0 C 3325.0,3239.0 3334.0,3240.0 3349.0,3226.0 C 3358.0,3218.0 3382.0,3204.0 3403.0,3195.0 C 3448.0,3176.0 3457.0,3147.0 3439.0,3083.0 C 3428.0,3042.0 3428.0,3036.0 3445.0,3024.0 C 3457.0,3015.0 3468.0,3014.0 3481.0,3020.0 C 3506.0,3034.0 3506.0,3034.0 3520.0,3000.0 C 3530.0,2976.0 3536.0,2972.0 3546.0,2981.0 C 3556.0,2989.0 3565.0,2988.0 3582.0,2976.0 C 3594.0,2967.0 3613.0,2960.0 3624.0,2960.0 C 3643.0,2960.0 3643.0,2959.0 3622.0,2944.0 C 3608.0,2934.0 3600.0,2920.0 3602.0,2907.0 C 3605.0,2889.0 3613.0,2886.0 3662.0,2883.0 C 3693.0,2881.0 3722.0,2884.0 3725.0,2890.0 C 3728.0,2895.0 3741.0,2900.0 3754.0,2900.0 C 3766.0,2900.0 3780.0,2903.0 3783.0,2906.0 C 3788.0,2912.0 3886.0,2948.0 3898.0,2950.0 C 3899.0,2950.0 3896.0,2941.0 3890.0,2931.0 C 3871.0,2895.0 3880.0,2871.0 3927.0,2823.0 C 3968.0,2781.0 3981.0,2754.0 4042.0,2595.0 C 4080.0,2496.0 4116.0,2411.0 4121.0,2405.0 C 4128.0,2398.0 4138.0,2403.0 4150.0,2418.0 C 4169.0,2441.0 4190.0,2440.0 4190.0,2416.0 C 4190.0,2378.0 4335.0,2328.0 4354.0,2359.0 C 4362.0,2371.0 4408.0,2374.0 4435.0,2364.0 C 4444.0,2360.0 4462.0,2336.0 4476.0,2309.0 C 4489.0,2282.0 4509.0,2254.0 4520.0,2248.0 C 4531.0,2241.0 4540.0,2227.0 4540.0,2218.0 C 4540.0,2189.0 4589.0,2165.0 4646.0,2165.0 C 4701.0,2165.0 4723.0,2153.0 4746.0,2108.0 C 4758.0,2085.0 4767.0,2080.0 4800.0,2080.0 C 4832.0,2080.0 4839.0,2084.0 4842.0,2102.0 C 4844.0,2121.0 4855.0,2126.0 4908.0,2136.0 C 4969.0,2146.0 4990.0,2160.0 4990.0,2188.0 C 4990.0,2199.0 5124.0,2270.0 5147.0,2270.0 C 5152.0,2270.0 5165.0,2279.0 5174.0,2289.0 C 5184.0,2299.0 5207.0,2311.0 5226.0,2315.0 C 5246.0,2318.0 5268.0,2324.0 5276.0,2327.0 C 5284.0,2330.0 5290.0,2326.0 5290.0,2316.0 C 5290.0,2303.0 5301.0,2300.0 5346.0,2300.0 C 5394.0,2300.0 5405.0,2296.0 5422.0,2275.0 C 5459.0,2228.0 5488.0,2220.0 5616.0,2224.0 C 5718.0,2227.0 5738.0,2231.0 5757.0,2248.0 C 5783.0,2272.0 5788.0,2321.0 5765.0,2340.0 C 5742.0,2359.0 5736.0,2415.0 5754.0,2442.0 C 5763.0,2454.0 5770.0,2472.0 5770.0,2482.0 C 5770.0,2492.0 5774.0,2500.0 5779.0,2500.0 C 5784.0,2500.0 5793.0,2515.0 5801.0,2533.0 C 5818.0,2575.0 5817.0,2575.0 5835.0,2560.0 C 5844.0,2553.0 5872.0,2543.0 5898.0,2538.0 C 5924.0,2534.0 5983.0,2520.0 6030.0,2507.0 L 6115.0,2483.0 L 6129.0,2441.0 C 6140.0,2405.0 6150.0,2395.0 6186.0,2379.0 C 6245.0,2352.0 6291.0,2352.0 6327.0,2378.0 C 6376.0,2413.0 6411.0,2422.0 6490.0,2422.0 C 6594.0,2422.0 6661.0,2411.0 6685.0,2389.0 C 6724.0,2354.0 6758.0,2349.0 6865.0,2363.0 C 6951.0,2375.0 6969.0,2380.0 6992.0,2403.0 C 7007.0,2418.0 7028.0,2430.0 7039.0,2430.0 C 7050.0,2430.0 7068.0,2443.0 7079.0,2459.0 C 7091.0,2475.0 7111.0,2491.0 7125.0,2494.0 C 7141.0,2498.0 7150.0,2507.0 7150.0,2520.0 C 7150.0,2531.0 7161.0,2546.0 7173.0,2555.0 C 7186.0,2563.0 7202.0,2581.0 7208.0,2595.0 C 7214.0,2608.0 7231.0,2626.0 7245.0,2636.0 C 7268.0,2651.0 7272.0,2651.0 7295.0,2636.0 C 7324.0,2617.0 7371.0,2615.0 7388.0,2633.0 C 7396.0,2640.0 7440.0,2647.0 7498.0,2650.0 C 7595.0,2655.0 7595.0,2655.0 7598.0,2682.0 C 7600.0,2698.0 7616.0,2722.0 7636.0,2739.0 C 7672.0,2771.0 7679.0,2803.0 7656.0,2829.0 C 7645.0,2842.0 7644.0,2861.0 7652.0,2925.0 C 7670.0,3087.0 7672.0,3118.0 7660.0,3140.0 C 7651.0,3157.0 7643.0,3160.0 7621.0,3155.0 C 7583.0,3147.0 7575.0,3170.0 7596.0,3226.0 C 7608.0,3257.0 7621.0,3272.0 7644.0,3281.0 C 7661.0,3289.0 7693.0,3311.0 7716.0,3332.0 C 7767.0,3379.0 7796.0,3390.0 7870.0,3390.0 C 7902.0,3390.0 7932.0,3394.0 7935.0,3400.0 C 7938.0,3405.0 7958.0,3410.0 7980.0,3410.0 C 8009.0,3410.0 8028.0,3402.0 8060.0,3375.0 C 8083.0,3356.0 8106.0,3340.0 8110.0,3340.0 C 8114.0,3340.0 8147.0,3312.0 8183.0,3278.0 C 8218.0,3243.0 8268.0,3197.0 8294.0,3175.0 C 8319.0,3153.0 8340.0,3129.0 8340.0,3123.0 C 8340.0,3116.0 8357.0,3102.0 8379.0,3091.0 C 8415.0,3072.0 8418.0,3072.0 8441.0,3088.0 C 8454.0,3097.0 8486.0,3112.0 8511.0,3120.0 C 8553.0,3134.0 8562.0,3134.0 8599.0,3121.0 C 8632.0,3109.0 8647.0,3108.0 8670.0,3117.0 C 8687.0,3123.0 8700.0,3125.0 8700.0,3122.0 C 8700.0,3118.0 8717.0,3096.0 8739.0,3072.0 C 8772.0,3036.0 8783.0,3030.0 8818.0,3030.0 C 8849.0,3030.0 8863.0,3035.0 8874.0,3052.0 C 8883.0,3064.0 8904.0,3079.0 8922.0,3085.0 C 8948.0,3093.0 8954.0,3100.0 8952.0,3119.0 C 8951.0,3132.0 8961.0,3155.0 8976.0,3173.0 C 8991.0,3191.0 9009.0,3219.0 9016.0,3237.0 C 9032.0,3273.0 9070.0,3301.0 9070.0,3276.0 C 9070.0,3268.0 9082.0,3252.0 9096.0,3241.0 C 9118.0,3224.0 9121.0,3215.0 9116.0,3189.0 C 9112.0,3166.0 9119.0,3134.0 9144.0,3071.0 C 9175.0,2991.0 9196.0,2902.0 9191.0,2873.0 C 9190.0,2866.0 9194.0,2851.0 9200.0,2840.0 C 9209.0,2824.0 9206.0,2818.0 9185.0,2804.0 C 9171.0,2795.0 9145.0,2784.0 9127.0,2781.0 C 9103.0,2776.0 9092.0,2767.0 9085.0,2745.0 C 9080.0,2728.0 9067.0,2704.0 9057.0,2690.0 C 9040.0,2666.0 9040.0,2665.0 9057.0,2655.0 C 9100.0,2631.0 9210.0,2498.0 9210.0,2471.0 C 9210.0,2459.0 9200.0,2431.0 9188.0,2410.0 C 9170.0,2379.0 9168.0,2368.0 9177.0,2359.0 C 9187.0,2349.0 9196.0,2352.0 9220.0,2375.0 C 9246.0,2400.0 9250.0,2411.0 9252.0,2469.0 C 9254.0,2523.0 9258.0,2535.0 9273.0,2538.0 C 9283.0,2540.0 9297.0,2534.0 9304.0,2524.0 C 9315.0,2509.0 9322.0,2509.0 9368.0,2519.0 C 9429.0,2534.0 9462.0,2576.0 9479.0,2660.0 C 9486.0,2690.0 9498.0,2726.0 9507.0,2739.0 C 9519.0,2757.0 9521.0,2775.0 9515.0,2814.0 C 9512.0,2842.0 9509.0,2870.0 9510.0,2875.0 C 9511.0,2881.0 9514.0,2970.0 9517.0,3073.0 C 9521.0,3244.0 9519.0,3267.0 9500.0,3324.0 C 9489.0,3358.0 9480.0,3402.0 9480.0,3421.0 C 9480.0,3510.0 9467.0,3636.0 9455.0,3650.0 C 9448.0,3658.0 9439.0,3676.0 9435.0,3690.0 C 9418.0,3743.0 9358.0,3837.0 9313.0,3881.0 C 9264.0,3927.0 9226.0,4004.0 9213.0,4082.0 L 9208.0,4118.0 L 9275.0,4092.0 C 9323.0,4073.0 9346.0,4058.0 9356.0,4038.0 C 9364.0,4022.0 9399.0,3981.0 9435.0,3946.0 C 9470.0,3911.0 9515.0,3855.0 9535.0,3822.0 C 9557.0,3785.0 9584.0,3753.0 9608.0,3739.0 C 9628.0,3726.0 9649.0,3709.0 9654.0,3701.0 C 9659.0,3692.0 9683.0,3664.0 9707.0,3639.0 C 9731.0,3614.0 9750.0,3584.0 9750.0,3573.0 C 9750.0,3551.0 9809.0,3500.0 9834.0,3500.0 C 9854.0,3500.0 9855.0,3530.0 9835.0,3556.0 C 9815.0,3583.0 9817.0,3607.0 9840.0,3613.0 C 9885.0,3625.0 9843.0,3677.0 9768.0,3702.0 C 9732.0,3714.0 9670.0,3767.0 9670.0,3785.0 C 9670.0,3791.0 9657.0,3814.0 9640.0,3836.0 C 9582.0,3913.0 9608.0,3970.0 9705.0,3970.0 L 9755.0,3971.0 L 9710.0,3989.0 C 9623.0,4024.0 9512.0,4087.0 9464.0,4128.0 C 9437.0,4151.0 9408.0,4170.0 9399.0,4170.0 C 9371.0,4170.0 9307.0,4226.0 9296.0,4260.0 C 9288.0,4284.0 9271.0,4302.0 9235.0,4323.0 C 9208.0,4339.0 9164.0,4370.0 9139.0,4391.0 C 9094.0,4428.0 9071.0,4438.0 9057.0,4424.0 C 9053.0,4420.0 9071.0,4398.0 9095.0,4375.0 C 9141.0,4332.0 9151.0,4310.0 9125.0,4310.0 C 9093.0,4310.0 9097.0,4279.0 9133.0,4242.0 C 9163.0,4210.0 9200.0,4152.0 9200.0,4135.0 C 9200.0,4123.0 9162.0,4131.0 9156.0,4145.0 C 9153.0,4153.0 9139.0,4165.0 9125.0,4170.0 C 9107.0,4177.0 9100.0,4187.0 9100.0,4205.0 C 9100.0,4229.0 9098.0,4230.0 9036.0,4230.0 C 9000.0,4230.0 8968.0,4235.0 8965.0,4240.0 C 8954.0,4258.0 8887.0,4251.0 8853.0,4228.0 C 8817.0,4203.0 8812.0,4189.0 8836.0,4170.0 C 8871.0,4140.0 8871.0,4124.0 8835.0,4086.0 C 8817.0,4066.0 8799.0,4050.0 8796.0,4050.0 C 8793.0,4050.0 8790.0,4063.0 8790.0,4079.0 C 8790.0,4106.0 8757.0,4140.0 8730.0,4140.0 C 8714.0,4140.0 8719.0,4102.0 8737.0,4092.0 C 8747.0,4086.0 8751.0,4076.0 8747.0,4066.0 C 8736.0,4038.0 8714.0,4049.0 8691.0,4095.0 C 8679.0,4120.0 8666.0,4140.0 8662.0,4140.0 C 8658.0,4140.0 8642.0,4126.0 8627.0,4110.0 C 8583.0,4063.0 8530.0,4058.0 8530.0,4099.0 C 8530.0,4109.0 8540.0,4155.0 8551.0,4201.0 C 8568.0,4267.0 8573.0,4323.0 8575.0,4462.0 C 8577.0,4559.0 8583.0,4647.0 8588.0,4656.0 C 8595.0,4668.0 8593.0,4687.0 8582.0,4717.0 C 8569.0,4751.0 8568.0,4768.0 8576.0,4799.0 C 8582.0,4821.0 8583.0,4845.0 8579.0,4852.0 C 8565.0,4874.0 8569.0,4922.0 8589.0,4965.0 C 8612.0,5016.0 8715.0,5110.0 8747.0,5110.0 C 8775.0,5110.0 8789.0,5138.0 8769.0,5152.0 C 8761.0,5157.0 8759.0,5163.0 8765.0,5166.0 C 8803.0,5182.0 8842.0,5214.0 8850.0,5235.0 C 8855.0,5249.0 8866.0,5260.0 8873.0,5260.0 C 8882.0,5260.0 8887.0,5271.0 8886.0,5290.0 C 8885.0,5306.0 8882.0,5320.0 8878.0,5320.0 C 8873.0,5320.0 8870.0,5326.0 8870.0,5333.0 C 8870.0,5353.0 8980.0,5440.0 9005.0,5440.0 C 9017.0,5440.0 9033.0,5447.0 9040.0,5455.0 C 9047.0,5463.0 9057.0,5467.0 9062.0,5464.0 C 9067.0,5461.0 9062.0,5447.0 9049.0,5434.0 C 9023.0,5406.0 9030.0,5377.0 9062.0,5382.0 C 9077.0,5384.0 9086.0,5395.0 9092.0,5418.0 C 9097.0,5436.0 9107.0,5453.0 9115.0,5457.0 C 9125.0,5460.0 9130.0,5477.0 9130.0,5505.0 C 9130.0,5543.0 9133.0,5549.0 9153.0,5552.0 C 9165.0,5554.0 9174.0,5560.0 9174.0,5565.0 C 9173.0,5571.0 9179.0,5584.0 9186.0,5595.0 C 9194.0,5606.0 9200.0,5620.0 9200.0,5627.0 C 9200.0,5647.0 9153.0,5642.0 9137.0,5620.0 C 9124.0,5601.0 9122.0,5601.0 9108.0,5617.0 C 9088.0,5641.0 9060.0,5734.0 9060.0,5779.0 C 9060.0,5799.0 9053.0,5824.0 9045.0,5834.0 C 9037.0,5845.0 9030.0,5864.0 9030.0,5876.0 C 9030.0,5888.0 9023.0,5903.0 9015.0,5910.0 C 8994.0,5927.0 8997.0,5980.0 9020.0,6010.0 C 9031.0,6024.0 9040.0,6047.0 9040.0,6063.0 C 9040.0,6083.0 9045.0,6090.0 9060.0,6090.0 C 9076.0,6090.0 9080.0,6097.0 9080.0,6120.0 C 9080.0,6137.0 9083.0,6150.0 9088.0,6150.0 C 9092.0,6150.0 9116.0,6126.0 9142.0,6098.0 C 9184.0,6051.0 9189.0,6048.0 9190.0,6069.0 C 9190.0,6092.0 9191.0,6093.0 9210.0,6075.0 C 9221.0,6065.0 9233.0,6060.0 9236.0,6063.0 C 9240.0,6066.0 9235.0,6113.0 9226.0,6166.0 C 9215.0,6232.0 9213.0,6267.0 9220.0,6274.0 C 9234.0,6288.0 9232.0,6320.0 9218.0,6315.0 C 9211.0,6313.0 9186.0,6328.0 9162.0,6350.0 C 9128.0,6380.0 9120.0,6394.0 9125.0,6410.0 C 9134.0,6438.0 9200.0,6507.0 9200.0,6488.0 C 9200.0,6479.0 9193.0,6467.0 9185.0,6460.0 C 9159.0,6439.0 9167.0,6406.0 9200.0,6393.0 C 9216.0,6387.0 9238.0,6368.0 9247.0,6351.0 C 9257.0,6334.0 9273.0,6320.0 9283.0,6320.0 C 9292.0,6320.0 9300.0,6313.0 9300.0,6304.0 C 9300.0,6295.0 9308.0,6286.0 9318.0,6283.0 C 9335.0,6279.0 9336.0,6270.0 9332.0,6204.0 C 9328.0,6142.0 9330.0,6127.0 9344.0,6117.0 C 9355.0,6109.0 9364.0,6082.0 9369.0,6047.0 C 9373.0,6015.0 9382.0,5984.0 9388.0,5978.0 C 9395.0,5971.0 9400.0,5953.0 9400.0,5936.0 C 9400.0,5920.0 9409.0,5897.0 9419.0,5886.0 C 9430.0,5874.0 9447.0,5832.0 9458.0,5793.0 C 9474.0,5732.0 9475.0,5718.0 9464.0,5709.0 C 9456.0,5702.0 9453.0,5688.0 9456.0,5674.0 C 9460.0,5660.0 9457.0,5643.0 9449.0,5634.0 C 9439.0,5621.0 9439.0,5617.0 9451.0,5609.0 C 9459.0,5604.0 9470.0,5600.0 9477.0,5600.0 C 9488.0,5600.0 9513.0,5542.0 9524.0,5488.0 C 9539.0,5419.0 9695.0,5293.0 9850.0,5225.0 C 9886.0,5209.0 9930.0,5184.0 9947.0,5168.0 C 9969.0,5150.0 9997.0,5138.0 10030.0,5134.0 C 10065.0,5129.0 10094.0,5117.0 10125.0,5093.0 C 10172.0,5057.0 10227.0,5033.0 10237.0,5044.0 C 10240.0,5047.0 10238.0,5075.0 10231.0,5105.0 C 10224.0,5135.0 10222.0,5164.0 10225.0,5170.0 C 10233.0,5183.0 10190.0,5257.0 10156.0,5289.0 C 10133.0,5310.0 10130.0,5322.0 10130.0,5377.0 C 10130.0,5420.0 10134.0,5440.0 10143.0,5440.0 C 10149.0,5441.0 10146.0,5446.0 10135.0,5453.0 C 10053.0,5501.0 10020.0,5545.0 10020.0,5604.0 C 10020.0,5630.0 10026.0,5642.0 10041.0,5650.0 C 10057.0,5659.0 10060.0,5667.0 10055.0,5688.0 C 10045.0,5727.0 10031.0,5740.0 9999.0,5740.0 C 9983.0,5740.0 9951.0,5754.0 9925.0,5772.0 C 9872.0,5810.0 9865.0,5844.0 9905.0,5878.0 C 9935.0,5904.0 9930.0,5922.0 9887.0,5942.0 C 9863.0,5953.0 9851.0,5954.0 9838.0,5947.0 C 9815.0,5932.0 9753.0,5962.0 9740.0,5994.0 C 9735.0,6007.0 9726.0,6021.0 9720.0,6025.0 C 9705.0,6034.0 9680.0,6012.0 9680.0,5989.0 C 9680.0,5967.0 9652.0,5964.0 9627.0,5983.0 C 9601.0,6002.0 9540.0,6093.0 9540.0,6112.0 C 9540.0,6122.0 9529.0,6136.0 9517.0,6145.0 C 9469.0,6176.0 9463.0,6235.0 9504.0,6269.0 C 9519.0,6281.0 9519.0,6285.0 9506.0,6299.0 C 9498.0,6308.0 9488.0,6335.0 9484.0,6359.0 C 9477.0,6402.0 9477.0,6403.0 9503.0,6397.0 C 9517.0,6393.0 9535.0,6387.0 9544.0,6384.0 C 9565.0,6376.0 9566.0,6423.0 9545.0,6440.0 C 9527.0,6455.0 9526.0,6472.0 9541.0,6541.0 C 9555.0,6606.0 9578.0,6630.0 9628.0,6630.0 C 9679.0,6630.0 9684.0,6637.0 9655.0,6674.0 C 9642.0,6691.0 9628.0,6719.0 9624.0,6735.0 C 9620.0,6752.0 9604.0,6790.0 9589.0,6821.0 C 9561.0,6878.0 9547.0,6948.0 9530.0,7130.0 C 9526.0,7177.0 9519.0,7226.0 9516.0,7240.0 C 9510.0,7260.0 9515.0,7272.0 9540.0,7295.0 C 9575.0,7329.0 9578.0,7350.0 9549.0,7376.0 C 9528.0,7395.0 9487.0,7399.0 9380.0,7391.0 C 9355.0,7389.0 9325.0,7391.0 9313.0,7395.0 C 9293.0,7401.0 9290.0,7399.0 9290.0,7375.0 C 9290.0,7352.0 9287.0,7349.0 9268.0,7354.0 C 9255.0,7357.0 9239.0,7360.0 9233.0,7360.0 C 9215.0,7360.0 9217.0,7385.0 9235.0,7400.0 C 9243.0,7407.0 9250.0,7419.0 9250.0,7426.0 C 9250.0,7434.0 9243.0,7440.0 9235.0,7440.0 C 9224.0,7440.0 9220.0,7452.0 9220.0,7486.0 C 9220.0,7525.0 9215.0,7537.0 9188.0,7562.0 C 9159.0,7589.0 9152.0,7591.0 9108.0,7585.0 L 9060.0,7578.0 L 9060.0,7609.0 C 9060.0,7638.0 9061.0,7639.0 9089.0,7629.0 C 9107.0,7623.0 9131.0,7622.0 9151.0,7628.0 C 9182.0,7636.0 9185.0,7640.0 9185.0,7676.0 C 9186.0,7736.0 9207.0,7760.0 9256.0,7760.0 C 9298.0,7760.0 9328.0,7780.0 9315.0,7800.0 C 9306.0,7814.0 9347.0,7847.0 9383.0,7855.0 C 9416.0,7863.0 9432.0,7897.0 9424.0,7940.0 C 9417.0,7972.0 9410.0,7976.0 9394.0,7960.0 C 9387.0,7953.0 9372.0,7958.0 9346.0,7975.0 C 9326.0,7989.0 9296.0,8000.0 9280.0,8000.0 C 9250.0,8000.0 9240.0,8013.0 9260.0,8025.0 C 9277.0,8035.0 9272.0,8073.0 9255.0,8066.0 C 9244.0,8062.0 9240.0,8068.0 9240.0,8089.0 C 9240.0,8113.0 9215.0,8150.0 9198.0,8150.0 C 9195.0,8150.0 9185.0,8139.0 9177.0,8126.0" fill="pink"/>
	<path d="M 8324.0,7888.0 C 8300.0,7877.0 8280.0,7840.0 8280.0,7807.0 C 8280.0,7776.0 8327.0,7710.0 8349.0,7710.0 C 8365.0,7710.0 8369.0,7721.0 8375.0,7790.0 C 8380.0,7848.0 8379.0,7875.0 8370.0,7885.0 C 8356.0,7902.0 8353.0,7902.0 8324.0,7888.0" fill="pink"/>
	<path d="M 5123.0,6895.0 C 5103.0,6874.0 5093.0,6855.0 5096.0,6845.0 C 5100.0,6837.0 5095.0,6819.0 5086.0,6805.0 C 5070.0,6781.0 5071.0,6779.0 5090.0,6757.0 L 5111.0,6735.0 L 5086.0,6732.0 C 5066.0,6729.0 5060.0,6723.0 5060.0,6705.0 C 5060.0,6669.0 5098.0,6661.0 5123.0,6691.0 L 5142.0,6715.0 L 5135.0,6673.0 C 5131.0,6646.0 5132.0,6630.0 5138.0,6630.0 C 5144.0,6630.0 5150.0,6620.0 5152.0,6608.0 C 5154.0,6595.0 5168.0,6580.0 5185.0,6571.0 C 5202.0,6563.0 5222.0,6553.0 5230.0,6548.0 C 5264.0,6529.0 5272.0,6528.0 5300.0,6540.0 C 5328.0,6552.0 5344.0,6590.0 5320.0,6590.0 C 5315.0,6590.0 5313.0,6610.0 5317.0,6638.0 C 5321.0,6675.0 5318.0,6694.0 5304.0,6714.0 L 5286.0,6742.0 L 5268.0,6718.0 L 5250.0,6695.0 L 5250.0,6722.0 C 5250.0,6737.0 5243.0,6753.0 5234.0,6758.0 C 5220.0,6766.0 5219.0,6775.0 5226.0,6806.0 C 5230.0,6828.0 5234.0,6848.0 5234.0,6852.0 C 5235.0,6861.0 5171.0,6930.0 5162.0,6930.0 C 5158.0,6930.0 5140.0,6914.0 5123.0,6895.0" fill="pink"/>
	<path d="M 7157.0,6917.0 C 7154.0,6909.0 7131.0,6893.0 7107.0,6882.0 C 7082.0,6870.0 7057.0,6853.0 7052.0,6844.0 C 7047.0,6835.0 7040.0,6829.0 7037.0,6829.0 C 7021.0,6831.0 7020.0,6829.0 7031.0,6809.0 C 7039.0,6793.0 7048.0,6789.0 7068.0,6793.0 C 7174.0,6814.0 7200.0,6831.0 7200.0,6880.0 C 7200.0,6919.0 7168.0,6946.0 7157.0,6917.0" fill="pink"/>
	<path d="M 6905.0,6789.0 C 6883.0,6779.0 6853.0,6770.0 6838.0,6770.0 C 6803.0,6770.0 6801.0,6746.0 6833.0,6720.0 C 6863.0,6695.0 6853.0,6690.0 6797.0,6702.0 C 6744.0,6713.0 6720.0,6703.0 6720.0,6668.0 C 6720.0,6640.0 6767.0,6552.0 6789.0,6540.0 C 6821.0,6523.0 6880.0,6527.0 6887.0,6548.0 C 6904.0,6595.0 6946.0,6649.0 6970.0,6652.0 C 6987.0,6654.0 6996.0,6662.0 6998.0,6677.0 C 7001.0,6695.0 6998.0,6698.0 6985.0,6694.0 C 6958.0,6683.0 6890.0,6710.0 6890.0,6732.0 C 6890.0,6756.0 6906.0,6755.0 6913.0,6730.0 C 6919.0,6707.0 6966.0,6693.0 6989.0,6707.0 C 7007.0,6718.0 7017.0,6770.0 7002.0,6770.0 C 6997.0,6770.0 6990.0,6779.0 6987.0,6790.0 C 6981.0,6815.0 6958.0,6814.0 6905.0,6789.0" fill="pink"/>
	<path d="M 5381.0,6636.0 C 5374.0,6628.0 5362.0,6586.0 5354.0,6543.0 C 5346.0,6500.0 5337.0,6450.0 5334.0,6433.0 C 5328.0,6404.0 5330.0,6400.0 5348.0,6400.0 C 5360.0,6400.0 5377.0,6411.0 5386.0,6425.0 C 5395.0,6439.0 5411.0,6450.0 5422.0,6450.0 C 5453.0,6450.0 5509.0,6489.0 5516.0,6515.0 C 5527.0,6560.0 5451.0,6632.0 5428.0,6599.0 C 5422.0,6589.0 5420.0,6594.0 5422.0,6615.0 C 5425.0,6648.0 5401.0,6661.0 5381.0,6636.0" fill="pink"/>
	<path d="M 7045.0,6510.0 C 7042.0,6500.0 7042.0,6475.0 7045.0,6457.0 L 7052.0,6422.0 L 7089.0,6437.0 C 7110.0,6445.0 7140.0,6463.0 7156.0,6476.0 C 7184.0,6499.0 7184.0,6500.0 7166.0,6515.0 C 7155.0,6524.0 7126.0,6530.0 7099.0,6530.0 C 7060.0,6530.0 7050.0,6526.0 7045.0,6510.0" fill="pink"/>
	<path d="M 4165.0,6330.0 C 4149.0,6319.0 4125.0,6310.0 4113.0,6310.0 C 4101.0,6310.0 4088.0,6305.0 4085.0,6300.0 C 4075.0,6284.0 4017.0,6292.0 3993.0,6313.0 C 3972.0,6332.0 3969.0,6332.0 3936.0,6316.0 C 3917.0,6307.0 3885.0,6300.0 3863.0,6300.0 C 3841.0,6300.0 3815.0,6292.0 3800.0,6280.0 C 3786.0,6269.0 3761.0,6260.0 3743.0,6260.0 C 3721.0,6260.0 3706.0,6252.0 3693.0,6235.0 C 3663.0,6194.0 3559.0,6120.0 3533.0,6120.0 C 3512.0,6120.0 3509.0,6116.0 3513.0,6098.0 C 3520.0,6073.0 3497.0,6051.0 3463.0,6050.0 C 3449.0,6050.0 3440.0,6044.0 3440.0,6035.0 C 3440.0,6026.0 3431.0,6020.0 3415.0,6020.0 C 3395.0,6020.0 3388.0,6014.0 3384.0,5991.0 C 3376.0,5954.0 3322.0,5911.0 3309.0,5931.0 C 3302.0,5942.0 3294.0,5939.0 3275.0,5917.0 C 3245.0,5883.0 3243.0,5864.0 3270.0,5850.0 C 3281.0,5844.0 3290.0,5835.0 3290.0,5830.0 C 3290.0,5824.0 3281.0,5820.0 3270.0,5820.0 C 3255.0,5820.0 3250.0,5813.0 3250.0,5796.0 C 3250.0,5764.0 3269.0,5752.0 3285.0,5773.0 C 3304.0,5799.0 3309.0,5793.0 3298.0,5757.0 C 3290.0,5729.0 3292.0,5719.0 3311.0,5688.0 C 3324.0,5667.0 3342.0,5651.0 3351.0,5650.0 C 3360.0,5650.0 3379.0,5641.0 3393.0,5630.0 C 3407.0,5619.0 3422.0,5610.0 3427.0,5610.0 C 3433.0,5610.0 3435.0,5654.0 3432.0,5715.0 C 3427.0,5818.0 3428.0,5821.0 3456.0,5861.0 C 3472.0,5884.0 3500.0,5913.0 3520.0,5925.0 C 3539.0,5937.0 3561.0,5955.0 3569.0,5964.0 C 3576.0,5973.0 3586.0,5980.0 3591.0,5980.0 C 3604.0,5980.0 3723.0,6069.0 3733.0,6085.0 C 3742.0,6102.0 3797.0,6130.0 3820.0,6130.0 C 3829.0,6130.0 3844.0,6138.0 3854.0,6149.0 C 3875.0,6172.0 3966.0,6195.0 4090.0,6210.0 C 4176.0,6220.0 4188.0,6224.0 4217.0,6252.0 C 4259.0,6293.0 4268.0,6320.0 4244.0,6337.0 C 4219.0,6355.0 4200.0,6353.0 4165.0,6330.0" fill="pink"/>
	<path d="M 4140.0,5771.0 C 4126.0,5745.0 4127.0,5733.0 4144.0,5727.0 C 4174.0,5715.0 4200.0,5731.0 4200.0,5761.0 C 4200.0,5785.0 4196.0,5790.0 4175.0,5790.0 C 4161.0,5790.0 4146.0,5782.0 4140.0,5771.0" fill="pink"/>
</svg>
