<?xml version="1.0" ?>
<svg xmlns="http://www.w3.org/2000/svg" xmlns:ev="http://www.w3.org/2001/xml-events" xmlns:xlink="http://www.w3.org/1999/xlink" baseProfile="full" height="513px" version="1.1" viewBox="-1024.1777223424126 -127.458074638438 12286.481620562892 10502.042683143285" width="600px">
	<defs/>
	<path d="M 2199.0,9455.0 L 2155.0,9411.0 L 1690.0,9275.0 C 1434.0,9200.0 1215.0,9136.0 1202.0,9132.0 C 1180.0,9125.0 1195.0,9105.0 1407.0,8864.0 C 1532.0,8721.0 1641.0,8597.0 1648.0,8588.0 C 1659.0,8574.0 1651.0,8566.0 1582.0,8524.0 C 1503.0,8477.0 1503.0,8477.0 1465.0,8391.0 C 1444.0,8344.0 1423.0,8301.0 1418.0,8295.0 C 1413.0,8290.0 1330.0,8269.0 1234.0,8249.0 C 1138.0,8229.0 1058.0,8211.0 1056.0,8209.0 C 1054.0,8207.0 1024.0,8162.0 989.0,8109.0 C 944.0,8041.0 897.0,7988.0 829.0,7927.0 L 732.0,7840.0 L 461.0,7883.0 L 189.0,7927.0 L 175.0,7900.0 C 157.0,7865.0 121.0,7673.0 111.0,7553.0 C 102.0,7455.0 63.0,7338.0 16.0,7265.0 C -1.0,7240.0 0.0,7238.0 19.0,7207.0 L 40.0,7175.0 L 40.0,7201.0 C 40.0,7237.0 62.0,7255.0 88.0,7241.0 C 112.0,7228.0 187.0,7224.0 216.0,7234.0 C 261.0,7250.0 415.0,7065.0 444.0,6961.0 C 458.0,6911.0 471.0,6889.0 520.0,6840.0 C 553.0,6806.0 583.0,6767.0 586.0,6752.0 C 598.0,6695.0 614.0,6668.0 662.0,6625.0 C 694.0,6596.0 715.0,6568.0 722.0,6544.0 C 727.0,6523.0 750.0,6485.0 773.0,6459.0 C 796.0,6432.0 842.0,6355.0 875.0,6288.0 C 934.0,6167.0 941.0,6159.0 1016.0,6114.0 C 1033.0,6104.0 1034.0,6099.0 1022.0,6066.0 C 1000.0,6007.0 1030.0,5957.0 1087.0,5955.0 C 1103.0,5955.0 1176.0,5867.0 1201.0,5818.0 C 1211.0,5798.0 1220.0,5770.0 1220.0,5757.0 C 1220.0,5743.0 1237.0,5717.0 1265.0,5690.0 C 1309.0,5647.0 1310.0,5644.0 1310.0,5585.0 C 1310.0,5506.0 1302.0,5480.0 1279.0,5480.0 C 1254.0,5480.0 1255.0,5474.0 1289.0,5431.0 C 1337.0,5370.0 1400.0,5264.0 1400.0,5244.0 C 1401.0,5198.0 1457.0,5165.0 1502.0,5184.0 C 1513.0,5189.0 1525.0,5185.0 1537.0,5170.0 C 1557.0,5146.0 1661.0,5090.0 1685.0,5090.0 C 1693.0,5090.0 1717.0,5075.0 1737.0,5057.0 C 1758.0,5038.0 1796.0,5009.0 1822.0,4991.0 C 1851.0,4972.0 1872.0,4949.0 1875.0,4935.0 C 1878.0,4921.0 1882.0,4899.0 1885.0,4887.0 C 1887.0,4874.0 1914.0,4830.0 1944.0,4789.0 C 1985.0,4732.0 2001.0,4700.0 2013.0,4647.0 C 2022.0,4604.0 2038.0,4567.0 2057.0,4545.0 C 2120.0,4468.0 2132.0,4450.0 2118.0,4450.0 C 2110.0,4450.0 2098.0,4456.0 2091.0,4463.0 C 2075.0,4477.0 2075.0,4479.0 2124.0,4375.0 C 2145.0,4331.0 2168.0,4287.0 2177.0,4278.0 C 2185.0,4269.0 2196.0,4244.0 2200.0,4223.0 C 2208.0,4192.0 2206.0,4182.0 2189.0,4164.0 C 2168.0,4142.0 2140.0,4029.0 2140.0,3965.0 C 2140.0,3941.0 2148.0,3913.0 2161.0,3895.0 C 2172.0,3879.0 2193.0,3840.0 2206.0,3810.0 C 2233.0,3752.0 2233.0,3690.0 2208.0,3635.0 C 2199.0,3615.0 2205.0,3597.0 2251.0,3510.0 C 2295.0,3426.0 2311.0,3405.0 2338.0,3393.0 C 2365.0,3382.0 2369.0,3376.0 2360.0,3365.0 C 2352.0,3355.0 2354.0,3349.0 2369.0,3338.0 C 2380.0,3330.0 2406.0,3292.0 2427.0,3253.0 C 2454.0,3204.0 2482.0,3168.0 2517.0,3141.0 C 2563.0,3104.0 2574.0,3100.0 2623.0,3100.0 C 2674.0,3100.0 2682.0,3097.0 2726.0,3056.0 C 2753.0,3032.0 2802.0,2999.0 2835.0,2982.0 C 2885.0,2957.0 2899.0,2944.0 2917.0,2906.0 C 2937.0,2866.0 2944.0,2860.0 2970.0,2860.0 C 2986.0,2860.0 3000.0,2859.0 3000.0,2858.0 C 3000.0,2856.0 3007.0,2837.0 3014.0,2815.0 C 3026.0,2781.0 3026.0,2774.0 3013.0,2765.0 C 3001.0,2756.0 3007.0,2746.0 3048.0,2708.0 C 3088.0,2670.0 3099.0,2651.0 3114.0,2597.0 C 3132.0,2530.0 3150.0,2505.0 3185.0,2498.0 C 3205.0,2494.0 3206.0,2490.0 3193.0,2430.0 C 3190.0,2412.0 3195.0,2399.0 3209.0,2386.0 C 3222.0,2374.0 3230.0,2355.0 3230.0,2334.0 C 3230.0,2288.0 3245.0,2253.0 3268.0,2246.0 C 3293.0,2238.0 3336.0,2174.0 3343.0,2134.0 C 3346.0,2116.0 3363.0,2081.0 3380.0,2054.0 C 3396.0,2028.0 3410.0,1999.0 3410.0,1989.0 C 3410.0,1980.0 3417.0,1967.0 3425.0,1960.0 C 3433.0,1954.0 3451.0,1928.0 3465.0,1903.0 C 3484.0,1871.0 3504.0,1853.0 3534.0,1840.0 C 3558.0,1830.0 3587.0,1808.0 3599.0,1791.0 C 3611.0,1774.0 3641.0,1747.0 3664.0,1730.0 C 3712.0,1698.0 3740.0,1641.0 3760.0,1539.0 C 3770.0,1487.0 3773.0,1483.0 3795.0,1488.0 C 3826.0,1493.0 3870.0,1448.0 3870.0,1410.0 C 3870.0,1392.0 3880.0,1377.0 3900.0,1362.0 C 3936.0,1335.0 3963.0,1276.0 3955.0,1240.0 C 3951.0,1221.0 3956.0,1208.0 3975.0,1190.0 C 3989.0,1177.0 4000.0,1158.0 4000.0,1148.0 C 4000.0,1125.0 4001.0,1125.0 4059.0,1154.0 C 4112.0,1181.0 4140.0,1216.0 4140.0,1255.0 C 4140.0,1276.0 4145.0,1280.0 4171.0,1280.0 C 4204.0,1280.0 4204.0,1284.0 4174.0,1359.0 C 4157.0,1400.0 4157.0,1419.0 4171.0,1532.0 L 4183.0,1620.0 L 4230.0,1655.0 C 4297.0,1704.0 4353.0,1704.0 4417.0,1655.0 C 4479.0,1608.0 4532.0,1594.0 4590.0,1609.0 C 4615.0,1616.0 4642.0,1628.0 4651.0,1636.0 C 4661.0,1645.0 4689.0,1650.0 4731.0,1650.0 C 4797.0,1650.0 4866.0,1624.0 5598.0,1324.0 L 5710.0,1278.0 L 5710.0,1013.0 C 5710.0,867.0 5714.0,750.0 5719.0,752.0 C 5723.0,754.0 5991.0,1053.0 6314.0,1417.0 C 6637.0,1782.0 6904.0,2080.0 6907.0,2080.0 C 6911.0,2080.0 7258.0,2161.0 7679.0,2260.0 L 8445.0,2441.0 L 9186.0,2702.0 L 9927.0,2962.0 L 10084.0,3476.0 C 10170.0,3759.0 10238.0,3996.0 10234.0,4003.0 C 10214.0,4038.0 10026.0,4336.0 10018.0,4345.0 C 10012.0,4351.0 10004.0,4348.0 9995.0,4336.0 C 9982.0,4318.0 9961.0,4320.0 9388.0,4399.0 C 9062.0,4444.0 8783.0,4483.0 8769.0,4486.0 C 8749.0,4490.0 8685.0,4564.0 8502.0,4794.0 C 8292.0,5058.0 8261.0,5102.0 8258.0,5136.0 C 8255.0,5170.0 8250.0,5177.0 8216.0,5194.0 C 8184.0,5210.0 8174.0,5211.0 8157.0,5201.0 C 8144.0,5192.0 8134.0,5192.0 8128.0,5198.0 C 8111.0,5215.0 8129.0,5259.0 8171.0,5305.0 C 8204.0,5341.0 8209.0,5351.0 8196.0,5356.0 C 8188.0,5359.0 8169.0,5353.0 8154.0,5341.0 C 8127.0,5320.0 8127.0,5320.0 8113.0,5340.0 C 8101.0,5357.0 8092.0,5359.0 8038.0,5353.0 L 7976.0,5347.0 L 7938.0,5391.0 C 7912.0,5421.0 7892.0,5435.0 7873.0,5436.0 C 7852.0,5436.0 7844.0,5444.0 7834.0,5471.0 C 7827.0,5490.0 7821.0,5515.0 7821.0,5527.0 C 7820.0,5539.0 7807.0,5563.0 7790.0,5580.0 C 7757.0,5614.0 7752.0,5627.0 7742.0,5720.0 C 7735.0,5782.0 7733.0,5786.0 7697.0,5805.0 C 7664.0,5823.0 7560.0,5928.0 7560.0,5944.0 C 7560.0,5948.0 7574.0,5944.0 7590.0,5935.0 C 7607.0,5926.0 7620.0,5922.0 7620.0,5926.0 C 7620.0,5929.0 7607.0,5948.0 7590.0,5967.0 C 7574.0,5985.0 7560.0,6010.0 7560.0,6022.0 C 7560.0,6033.0 7544.0,6060.0 7525.0,6081.0 C 7499.0,6110.0 7490.0,6129.0 7490.0,6154.0 C 7490.0,6198.0 7501.0,6205.0 7533.0,6180.0 L 7558.0,6160.0 L 7574.0,6185.0 C 7583.0,6199.0 7590.0,6230.0 7590.0,6257.0 C 7590.0,6300.0 7586.0,6308.0 7546.0,6345.0 C 7499.0,6388.0 7484.0,6424.0 7494.0,6465.0 C 7500.0,6489.0 7501.0,6490.0 7526.0,6474.0 C 7567.0,6446.0 7564.0,6466.0 7520.0,6514.0 C 7486.0,6551.0 7471.0,6560.0 7444.0,6560.0 C 7426.0,6560.0 7405.0,6567.0 7398.0,6576.0 C 7391.0,6585.0 7364.0,6615.0 7339.0,6644.0 C 7314.0,6672.0 7287.0,6705.0 7281.0,6718.0 C 7272.0,6734.0 7263.0,6739.0 7252.0,6735.0 C 7208.0,6717.0 7204.0,6719.0 7180.0,6770.0 C 7167.0,6798.0 7141.0,6835.0 7123.0,6851.0 L 7089.0,6880.0 L 7119.0,6880.0 C 7156.0,6880.0 7163.0,6891.0 7144.0,6918.0 C 7132.0,6936.0 7119.0,6940.0 7075.0,6940.0 C 7031.0,6940.0 7019.0,6944.0 7010.0,6960.0 C 7002.0,6974.0 6989.0,6980.0 6964.0,6980.0 C 6936.0,6980.0 6928.0,6985.0 6920.0,7006.0 C 6907.0,7039.0 6907.0,7083.0 6920.0,7075.0 C 6926.0,7072.0 6930.0,7059.0 6931.0,7047.0 C 6931.0,7028.0 6933.0,7029.0 6942.0,7053.0 C 6954.0,7087.0 6939.0,7114.0 6879.0,7162.0 C 6823.0,7207.0 6784.0,7287.0 6775.0,7375.0 C 6764.0,7482.0 6769.0,7480.0 6555.0,7480.0 L 6372.0,7480.0 L 6346.0,7514.0 C 6332.0,7533.0 6320.0,7561.0 6320.0,7576.0 C 6320.0,7591.0 6304.0,7631.0 6285.0,7665.0 L 6251.0,7727.0 L 6032.0,7759.0 C 5863.0,7785.0 5808.0,7790.0 5792.0,7781.0 C 5781.0,7775.0 5754.0,7770.0 5733.0,7770.0 C 5686.0,7770.0 4931.0,7848.0 4922.0,7854.0 C 4918.0,7856.0 4630.0,8094.0 4282.0,8382.0 L 3650.0,8906.0 L 3487.0,8978.0 C 3342.0,9042.0 3295.0,9070.0 3089.0,9212.0 C 2960.0,9300.0 2846.0,9376.0 2835.0,9381.0 C 2824.0,9385.0 2691.0,9412.0 2540.0,9440.0 C 2389.0,9468.0 2260.0,9493.0 2254.0,9495.0 C 2248.0,9497.0 2223.0,9479.0 2199.0,9455.0" fill="pink"/>
	<path d="M 3520.0,1444.0 C 3520.0,1440.0 3528.0,1432.0 3537.0,1425.0 C 3551.0,1414.0 3552.0,1410.0 3541.0,1397.0 C 3531.0,1384.0 3531.0,1376.0 3542.0,1353.0 C 3549.0,1338.0 3563.0,1324.0 3573.0,1322.0 C 3587.0,1319.0 3590.0,1326.0 3590.0,1357.0 C 3590.0,1407.0 3570.0,1444.0 3542.0,1448.0 C 3530.0,1450.0 3520.0,1448.0 3520.0,1444.0" fill="pink"/>
	<path d="M 3487.0,1364.0 C 3478.0,1354.0 3504.0,1309.0 3538.0,1276.0 C 3565.0,1251.0 3572.0,1249.0 3597.0,1257.0 C 3630.0,1268.0 3650.0,1264.0 3650.0,1245.0 C 3650.0,1238.0 3657.0,1229.0 3666.0,1226.0 C 3711.0,1209.0 3713.0,1270.0 3669.0,1311.0 C 3632.0,1345.0 3620.0,1347.0 3620.0,1320.0 C 3620.0,1287.0 3565.0,1293.0 3543.0,1328.0 C 3518.0,1366.0 3501.0,1378.0 3487.0,1364.0" fill="pink"/>
</svg>
