<?xml version="1.0" ?>
<svg xmlns="http://www.w3.org/2000/svg" xmlns:ev="http://www.w3.org/2001/xml-events" xmlns:xlink="http://www.w3.org/1999/xlink" baseProfile="full" height="468px" version="1.1" viewBox="-1028.899625743897 326.76181038022116 12297.999500698246 9587.062311680196" width="600px">
	<defs/>
	<path d="M 1297.0,9082.0 C 1273.0,9057.0 1271.0,9050.0 1277.0,9000.0 C 1286.0,8917.0 1320.0,8861.0 1361.0,8860.0 C 1381.0,8860.0 1410.0,8829.0 1410.0,8807.0 C 1410.0,8798.0 1422.0,8784.0 1438.0,8776.0 C 1453.0,8768.0 1474.0,8753.0 1484.0,8741.0 C 1495.0,8729.0 1513.0,8720.0 1526.0,8720.0 C 1556.0,8720.0 1662.0,8620.0 1697.0,8560.0 C 1711.0,8535.0 1733.0,8504.0 1746.0,8490.0 C 1758.0,8476.0 1773.0,8453.0 1779.0,8438.0 C 1785.0,8423.0 1804.0,8401.0 1823.0,8388.0 C 1842.0,8376.0 1868.0,8346.0 1881.0,8321.0 C 1921.0,8245.0 2008.0,8170.0 2065.0,8160.0 C 2096.0,8155.0 2102.0,8137.0 2085.0,8098.0 C 2080.0,8085.0 2082.0,8080.0 2093.0,8080.0 C 2101.0,8080.0 2110.0,8087.0 2114.0,8095.0 C 2121.0,8115.0 2184.0,8115.0 2204.0,8095.0 C 2212.0,8086.0 2222.0,8057.0 2226.0,8030.0 C 2233.0,7975.0 2245.0,7967.0 2262.0,8005.0 C 2268.0,8019.0 2278.0,8029.0 2284.0,8027.0 C 2290.0,8025.0 2337.0,8010.0 2387.0,7995.0 C 2474.0,7969.0 2481.0,7968.0 2498.0,7983.0 C 2524.0,8007.0 2530.0,8004.0 2530.0,7971.0 C 2530.0,7926.0 2540.0,7922.0 2707.0,7903.0 C 2752.0,7898.0 2762.0,7901.0 2794.0,7925.0 C 2814.0,7940.0 2834.0,7949.0 2838.0,7945.0 C 2842.0,7941.0 2839.0,7935.0 2833.0,7933.0 C 2826.0,7930.0 2820.0,7920.0 2820.0,7909.0 C 2820.0,7896.0 2827.0,7890.0 2843.0,7890.0 C 2855.0,7890.0 2876.0,7882.0 2889.0,7873.0 C 2904.0,7863.0 2934.0,7856.0 2965.0,7856.0 L 3016.0,7855.0 L 2992.0,7898.0 L 2968.0,7940.0 L 2920.0,7934.0 C 2890.0,7930.0 2870.0,7932.0 2866.0,7939.0 C 2862.0,7945.0 2865.0,7950.0 2873.0,7950.0 C 2907.0,7950.0 2901.0,7998.0 2862.0,8043.0 C 2843.0,8064.0 2799.0,8065.0 2759.0,8045.0 C 2726.0,8028.0 2710.0,8032.0 2710.0,8058.0 C 2709.0,8072.0 2706.0,8071.0 2690.0,8051.0 L 2670.0,8028.0 L 2634.0,8060.0 C 2614.0,8077.0 2578.0,8101.0 2554.0,8113.0 C 2522.0,8128.0 2506.0,8143.0 2498.0,8167.0 C 2491.0,8185.0 2479.0,8200.0 2470.0,8200.0 C 2438.0,8201.0 2373.0,8240.0 2318.0,8293.0 L 2260.0,8348.0 L 2260.0,8415.0 C 2260.0,8472.0 2254.0,8494.0 2224.0,8555.0 C 2199.0,8607.0 2181.0,8632.0 2162.0,8640.0 C 2116.0,8658.0 2093.0,8674.0 2065.0,8708.0 C 2045.0,8732.0 2030.0,8740.0 2005.0,8740.0 C 1973.0,8740.0 1869.0,8800.0 1840.0,8835.0 C 1833.0,8843.0 1803.0,8857.0 1774.0,8866.0 C 1744.0,8874.0 1718.0,8886.0 1715.0,8891.0 C 1711.0,8896.0 1697.0,8900.0 1682.0,8900.0 C 1659.0,8900.0 1647.0,8911.0 1612.0,8965.0 C 1577.0,9017.0 1562.0,9031.0 1532.0,9040.0 C 1512.0,9045.0 1490.0,9050.0 1485.0,9050.0 C 1479.0,9050.0 1459.0,9063.0 1440.0,9080.0 C 1392.0,9120.0 1335.0,9121.0 1297.0,9082.0" fill="pink"/>
	<path d="M 708.0,8819.0 C 690.0,8809.0 683.0,8760.0 699.0,8760.0 C 709.0,8760.0 740.0,8805.0 740.0,8820.0 C 740.0,8833.0 730.0,8832.0 708.0,8819.0" fill="pink"/>
	<path d="M 783.0,8788.0 C 757.0,8754.0 751.0,8698.0 772.0,8673.0 C 777.0,8666.0 779.0,8656.0 775.0,8650.0 C 771.0,8643.0 766.0,8622.0 765.0,8602.0 C 763.0,8582.0 758.0,8553.0 754.0,8538.0 C 750.0,8520.0 752.0,8510.0 759.0,8510.0 C 765.0,8510.0 770.0,8516.0 770.0,8524.0 C 770.0,8547.0 794.0,8549.0 807.0,8526.0 C 817.0,8507.0 819.0,8509.0 830.0,8548.0 C 836.0,8572.0 848.0,8594.0 856.0,8597.0 C 876.0,8604.0 874.0,8626.0 850.0,8650.0 C 839.0,8661.0 830.0,8677.0 830.0,8685.0 C 830.0,8694.0 821.0,8700.0 806.0,8700.0 C 771.0,8700.0 767.0,8714.0 790.0,8752.0 C 801.0,8770.0 810.0,8788.0 810.0,8793.0 C 810.0,8804.0 793.0,8801.0 783.0,8788.0" fill="pink"/>
	<path d="M 290.0,8524.0 C 284.0,8510.0 280.0,8496.0 280.0,8493.0 C 280.0,8490.0 269.0,8472.0 255.0,8454.0 C 221.0,8410.0 223.0,8380.0 263.0,8343.0 C 292.0,8315.0 303.0,8312.0 382.0,8306.0 L 469.0,8300.0 L 495.0,8334.0 C 519.0,8365.0 520.0,8372.0 510.0,8409.0 C 500.0,8446.0 496.0,8449.0 457.0,8455.0 C 425.0,8460.0 409.0,8470.0 390.0,8495.0 C 367.0,8526.0 332.0,8550.0 309.0,8550.0 C 304.0,8550.0 295.0,8538.0 290.0,8524.0" fill="pink"/>
	<path d="M 8.0,7996.0 C -11.0,7953.0 3.0,7940.0 69.0,7940.0 C 117.0,7940.0 131.0,7944.0 139.0,7958.0 C 154.0,7986.0 112.0,8020.0 61.0,8020.0 C 27.0,8020.0 18.0,8016.0 8.0,7996.0" fill="pink"/>
	<path d="M 3903.0,7908.0 C 3863.0,7884.0 3861.0,7863.0 3896.0,7850.0 C 3931.0,7836.0 3940.0,7837.0 3940.0,7854.0 C 3940.0,7862.0 3950.0,7876.0 3961.0,7884.0 C 3986.0,7901.0 3980.0,7930.0 3953.0,7929.0 C 3943.0,7929.0 3920.0,7919.0 3903.0,7908.0" fill="pink"/>
	<path d="M 3968.0,7833.0 C 3928.0,7823.0 3951.0,7794.0 4035.0,7750.0 C 4082.0,7725.0 4120.0,7702.0 4120.0,7698.0 C 4120.0,7695.0 4123.0,7685.0 4126.0,7676.0 C 4131.0,7664.0 4120.0,7660.0 4068.0,7658.0 L 4005.0,7655.0 L 4053.0,7631.0 C 4079.0,7617.0 4100.0,7601.0 4100.0,7595.0 C 4100.0,7578.0 4134.0,7550.0 4153.0,7550.0 C 4162.0,7550.0 4170.0,7557.0 4170.0,7565.0 C 4170.0,7588.0 4238.0,7574.0 4271.0,7544.0 C 4300.0,7516.0 4340.0,7512.0 4340.0,7537.0 C 4340.0,7546.0 4322.0,7570.0 4300.0,7592.0 C 4268.0,7621.0 4251.0,7630.0 4223.0,7630.0 C 4189.0,7630.0 4188.0,7631.0 4194.0,7663.0 C 4198.0,7686.0 4194.0,7704.0 4180.0,7728.0 C 4158.0,7763.0 4155.0,7765.0 4097.0,7775.0 C 4077.0,7778.0 4044.0,7794.0 4026.0,7810.0 C 4007.0,7827.0 3991.0,7839.0 3989.0,7839.0 C 3987.0,7838.0 3977.0,7836.0 3968.0,7833.0" fill="pink"/>
	<path d="M 4240.0,7701.0 C 4240.0,7672.0 4279.0,7631.0 4354.0,7580.0 C 4421.0,7534.0 4440.0,7506.0 4440.0,7450.0 C 4440.0,7433.0 4433.0,7420.0 4424.0,7416.0 C 4410.0,7411.0 4414.0,7403.0 4446.0,7375.0 C 4467.0,7356.0 4493.0,7341.0 4503.0,7340.0 C 4540.0,7340.0 4570.0,7309.0 4570.0,7274.0 C 4570.0,7241.0 4571.0,7240.0 4611.0,7240.0 C 4643.0,7240.0 4653.0,7236.0 4657.0,7220.0 C 4661.0,7206.0 4671.0,7200.0 4690.0,7200.0 C 4712.0,7200.0 4720.0,7193.0 4735.0,7160.0 C 4748.0,7132.0 4759.0,7120.0 4774.0,7120.0 C 4786.0,7120.0 4801.0,7111.0 4807.0,7101.0 C 4815.0,7088.0 4826.0,7083.0 4840.0,7087.0 C 4857.0,7092.0 4860.0,7088.0 4860.0,7061.0 C 4860.0,7036.0 4865.0,7029.0 4888.0,7024.0 C 4928.0,7016.0 4959.0,6999.0 4993.0,6968.0 C 5009.0,6952.0 5028.0,6940.0 5036.0,6940.0 C 5044.0,6940.0 5072.0,6924.0 5099.0,6905.0 C 5134.0,6880.0 5158.0,6870.0 5185.0,6870.0 C 5221.0,6870.0 5222.0,6869.0 5217.0,6840.0 L 5211.0,6810.0 L 5263.0,6810.0 C 5291.0,6809.0 5326.0,6803.0 5340.0,6795.0 C 5354.0,6787.0 5374.0,6781.0 5386.0,6780.0 C 5398.0,6780.0 5411.0,6770.0 5418.0,6756.0 C 5425.0,6740.0 5445.0,6727.0 5480.0,6715.0 C 5524.0,6701.0 5529.0,6696.0 5518.0,6683.0 C 5508.0,6671.0 5509.0,6665.0 5525.0,6654.0 C 5542.0,6641.0 5546.0,6641.0 5557.0,6655.0 C 5567.0,6670.0 5571.0,6670.0 5598.0,6656.0 C 5619.0,6645.0 5630.0,6631.0 5632.0,6613.0 C 5634.0,6590.0 5640.0,6585.0 5662.0,6584.0 C 5677.0,6583.0 5695.0,6578.0 5702.0,6573.0 C 5709.0,6567.0 5730.0,6559.0 5749.0,6555.0 C 5768.0,6551.0 5806.0,6533.0 5835.0,6515.0 C 5896.0,6475.0 5949.0,6453.0 6010.0,6439.0 C 6075.0,6424.0 6168.0,6362.0 6172.0,6330.0 C 6174.0,6313.0 6190.0,6295.0 6221.0,6275.0 C 6246.0,6259.0 6293.0,6221.0 6326.0,6191.0 C 6401.0,6123.0 6425.0,6111.0 6447.0,6133.0 C 6463.0,6149.0 6462.0,6152.0 6437.0,6178.0 C 6418.0,6198.0 6410.0,6217.0 6410.0,6242.0 C 6410.0,6272.0 6406.0,6279.0 6385.0,6284.0 C 6364.0,6289.0 6361.0,6294.0 6369.0,6309.0 C 6383.0,6334.0 6374.0,6340.0 6328.0,6340.0 C 6294.0,6340.0 6250.0,6363.0 6250.0,6381.0 C 6250.0,6384.0 6267.0,6387.0 6287.0,6386.0 C 6319.0,6385.0 6328.0,6390.0 6357.0,6429.0 L 6391.0,6473.0 L 6354.0,6486.0 C 6334.0,6493.0 6313.0,6505.0 6309.0,6512.0 C 6304.0,6519.0 6282.0,6551.0 6259.0,6583.0 C 6228.0,6626.0 6211.0,6640.0 6193.0,6640.0 C 6179.0,6640.0 6155.0,6651.0 6138.0,6665.0 C 6122.0,6679.0 6103.0,6690.0 6097.0,6690.0 C 6090.0,6690.0 6059.0,6714.0 6028.0,6744.0 C 5986.0,6782.0 5970.0,6804.0 5970.0,6823.0 C 5970.0,6845.0 5959.0,6855.0 5907.0,6885.0 C 5872.0,6904.0 5836.0,6920.0 5827.0,6920.0 C 5819.0,6920.0 5793.0,6936.0 5770.0,6955.0 C 5721.0,6996.0 5664.0,7014.0 5594.0,7012.0 C 5557.0,7011.0 5535.0,7016.0 5519.0,7029.0 C 5483.0,7057.0 5413.0,7090.0 5391.0,7090.0 C 5374.0,7090.0 5371.0,7095.0 5377.0,7120.0 C 5382.0,7149.0 5381.0,7150.0 5346.0,7150.0 C 5326.0,7150.0 5310.0,7146.0 5310.0,7140.0 C 5310.0,7124.0 5283.0,7128.0 5240.0,7150.0 C 5212.0,7164.0 5200.0,7177.0 5200.0,7192.0 C 5200.0,7219.0 5173.0,7239.0 5137.0,7240.0 C 5102.0,7240.0 5050.0,7266.0 5050.0,7284.0 C 5050.0,7306.0 4962.0,7380.0 4928.0,7387.0 C 4908.0,7391.0 4874.0,7414.0 4839.0,7449.0 C 4713.0,7571.0 4674.0,7600.0 4635.0,7600.0 C 4607.0,7600.0 4588.0,7609.0 4557.0,7635.0 C 4508.0,7677.0 4473.0,7681.0 4464.0,7645.0 L 4458.0,7620.0 L 4428.0,7645.0 C 4412.0,7659.0 4387.0,7670.0 4374.0,7670.0 C 4360.0,7670.0 4327.0,7681.0 4300.0,7695.0 C 4241.0,7725.0 4240.0,7725.0 4240.0,7701.0" fill="pink"/>
	<path d="M 1418.0,7623.0 C 1381.0,7575.0 1381.0,7518.0 1416.0,7439.0 C 1441.0,7385.0 1446.0,7379.0 1489.0,7367.0 C 1534.0,7355.0 1535.0,7353.0 1544.0,7305.0 C 1550.0,7270.0 1550.0,7255.0 1541.0,7252.0 C 1535.0,7250.0 1530.0,7235.0 1530.0,7218.0 C 1530.0,7189.0 1531.0,7188.0 1570.0,7192.0 L 1610.0,7196.0 L 1610.0,7159.0 C 1610.0,7122.0 1639.0,7082.0 1647.0,7107.0 C 1649.0,7113.0 1664.0,7137.0 1680.0,7159.0 C 1697.0,7181.0 1712.0,7217.0 1716.0,7239.0 C 1720.0,7267.0 1729.0,7281.0 1746.0,7289.0 C 1781.0,7304.0 1810.0,7358.0 1810.0,7406.0 C 1810.0,7453.0 1801.0,7460.0 1739.0,7460.0 C 1682.0,7460.0 1665.0,7472.0 1628.0,7541.0 C 1605.0,7586.0 1584.0,7610.0 1550.0,7631.0 C 1487.0,7671.0 1452.0,7669.0 1418.0,7623.0" fill="pink"/>
	<path d="M 1444.0,7305.0 C 1436.0,7292.0 1430.0,7273.0 1432.0,7263.0 C 1436.0,7239.0 1471.0,7234.0 1486.0,7255.0 C 1497.0,7269.0 1496.0,7278.0 1484.0,7301.0 C 1466.0,7336.0 1465.0,7336.0 1444.0,7305.0" fill="pink"/>
	<path d="M 2214.0,7231.0 C 2192.0,7227.0 2161.0,7214.0 2145.0,7202.0 C 2130.0,7190.0 2112.0,7180.0 2105.0,7180.0 C 2098.0,7180.0 2085.0,7159.0 2075.0,7134.0 C 2054.0,7079.0 2059.0,6982.0 2084.0,6947.0 C 2093.0,6935.0 2110.0,6911.0 2121.0,6893.0 C 2142.0,6860.0 2172.0,6849.0 2295.0,6829.0 C 2323.0,6825.0 2359.0,6818.0 2375.0,6815.0 C 2403.0,6809.0 2407.0,6811.0 2431.0,6862.0 C 2455.0,6910.0 2456.0,6918.0 2444.0,6950.0 C 2437.0,6969.0 2431.0,7004.0 2431.0,7028.0 C 2430.0,7057.0 2424.0,7075.0 2410.0,7087.0 C 2399.0,7097.0 2390.0,7109.0 2390.0,7116.0 C 2390.0,7122.0 2372.0,7152.0 2349.0,7183.0 C 2306.0,7244.0 2303.0,7245.0 2214.0,7231.0" fill="pink"/>
	<path d="M 1440.0,7111.0 C 1426.0,7083.0 1427.0,7069.0 1447.0,7055.0 C 1468.0,7040.0 1482.0,6915.0 1466.0,6888.0 C 1458.0,6875.0 1464.0,6863.0 1493.0,6830.0 C 1514.0,6808.0 1533.0,6776.0 1537.0,6760.0 C 1544.0,6720.0 1557.0,6722.0 1575.0,6766.0 C 1596.0,6817.0 1594.0,6857.0 1565.0,6915.0 C 1552.0,6943.0 1540.0,6974.0 1540.0,6985.0 C 1540.0,6995.0 1532.0,7025.0 1523.0,7050.0 C 1495.0,7126.0 1462.0,7151.0 1440.0,7111.0" fill="pink"/>
	<path d="M 2805.0,7063.0 C 2794.0,7061.0 2775.0,7057.0 2764.0,7055.0 C 2751.0,7052.0 2737.0,7037.0 2730.0,7018.0 C 2723.0,7000.0 2706.0,6974.0 2694.0,6960.0 C 2681.0,6946.0 2662.0,6910.0 2651.0,6880.0 C 2608.0,6757.0 2571.0,6695.0 2555.0,6720.0 C 2552.0,6725.0 2536.0,6730.0 2521.0,6730.0 C 2494.0,6730.0 2470.0,6700.0 2470.0,6666.0 C 2470.0,6638.0 2533.0,6528.0 2556.0,6518.0 C 2583.0,6505.0 2622.0,6525.0 2641.0,6562.0 C 2658.0,6595.0 2666.0,6598.0 2750.0,6606.0 C 2791.0,6609.0 2835.0,6616.0 2847.0,6621.0 C 2862.0,6626.0 2872.0,6624.0 2881.0,6614.0 C 2890.0,6604.0 2903.0,6600.0 2922.0,6604.0 C 2954.0,6610.0 2974.0,6588.0 2990.0,6530.0 C 2997.0,6505.0 3012.0,6486.0 3045.0,6465.0 C 3069.0,6449.0 3090.0,6429.0 3090.0,6422.0 C 3090.0,6405.0 3060.0,6394.0 3051.0,6409.0 C 3037.0,6431.0 2940.0,6450.0 2940.0,6431.0 C 2940.0,6415.0 3004.0,6353.0 3025.0,6349.0 C 3038.0,6346.0 3047.0,6334.0 3050.0,6315.0 C 3053.0,6298.0 3064.0,6281.0 3078.0,6274.0 C 3090.0,6268.0 3111.0,6254.0 3123.0,6243.0 C 3163.0,6207.0 3176.0,6208.0 3219.0,6252.0 C 3254.0,6287.0 3262.0,6291.0 3276.0,6279.0 C 3290.0,6268.0 3289.0,6264.0 3269.0,6249.0 C 3246.0,6232.0 3246.0,6231.0 3265.0,6210.0 C 3296.0,6176.0 3321.0,6166.0 3378.0,6164.0 C 3424.0,6162.0 3432.0,6165.0 3449.0,6189.0 C 3459.0,6203.0 3472.0,6230.0 3479.0,6249.0 C 3489.0,6279.0 3488.0,6286.0 3470.0,6305.0 C 3459.0,6317.0 3450.0,6336.0 3450.0,6347.0 C 3450.0,6373.0 3407.0,6426.0 3380.0,6435.0 C 3365.0,6440.0 3360.0,6450.0 3360.0,6480.0 C 3360.0,6512.0 3354.0,6524.0 3330.0,6542.0 C 3314.0,6554.0 3300.0,6572.0 3300.0,6583.0 C 3300.0,6640.0 3242.0,6675.0 3162.0,6666.0 C 3104.0,6659.0 3070.0,6675.0 3070.0,6709.0 C 3070.0,6718.0 3063.0,6734.0 3055.0,6744.0 C 3045.0,6758.0 3040.0,6789.0 3040.0,6845.0 C 3040.0,6922.0 3038.0,6928.0 3011.0,6954.0 C 2995.0,6970.0 2976.0,6996.0 2969.0,7012.0 C 2949.0,7060.0 2885.0,7080.0 2805.0,7063.0" fill="pink"/>
	<path d="M 2280.0,6760.0 C 2280.0,6749.0 2320.0,6710.0 2331.0,6710.0 C 2335.0,6710.0 2341.0,6697.0 2345.0,6680.0 C 2355.0,6634.0 2387.0,6600.0 2421.0,6600.0 C 2445.0,6600.0 2450.0,6604.0 2450.0,6624.0 C 2450.0,6638.0 2446.0,6652.0 2440.0,6655.0 C 2435.0,6658.0 2430.0,6676.0 2430.0,6693.0 C 2429.0,6747.0 2401.0,6770.0 2336.0,6770.0 C 2305.0,6770.0 2280.0,6766.0 2280.0,6760.0" fill="pink"/>
	<path d="M 2180.0,6714.0 C 2180.0,6705.0 2194.0,6686.0 2210.0,6672.0 C 2227.0,6657.0 2240.0,6639.0 2240.0,6630.0 C 2240.0,6604.0 2338.0,6510.0 2365.0,6510.0 C 2392.0,6510.0 2398.0,6524.0 2377.0,6537.0 C 2350.0,6554.0 2320.0,6604.0 2320.0,6632.0 C 2320.0,6677.0 2263.0,6730.0 2216.0,6730.0 C 2190.0,6730.0 2180.0,6726.0 2180.0,6714.0" fill="pink"/>
	<path d="M 7476.0,6498.0 C 7439.0,6445.0 7462.0,6396.0 7565.0,6311.0 C 7622.0,6264.0 7648.0,6233.0 7670.0,6189.0 C 7705.0,6120.0 7705.0,6120.0 7682.0,6120.0 C 7672.0,6120.0 7652.0,6107.0 7637.0,6092.0 C 7603.0,6057.0 7600.0,6006.0 7631.0,5990.0 C 7648.0,5980.0 7650.0,5973.0 7645.0,5940.0 C 7635.0,5880.0 7662.0,5805.0 7722.0,5725.0 L 7775.0,5656.0 L 7778.0,5551.0 C 7782.0,5448.0 7783.0,5445.0 7816.0,5406.0 C 7835.0,5384.0 7850.0,5361.0 7850.0,5354.0 C 7850.0,5346.0 7859.0,5336.0 7870.0,5330.0 C 7882.0,5324.0 7901.0,5295.0 7914.0,5266.0 C 7934.0,5221.0 7944.0,5210.0 7974.0,5200.0 C 7995.0,5193.0 8024.0,5171.0 8043.0,5148.0 C 8060.0,5126.0 8083.0,5100.0 8093.0,5091.0 C 8102.0,5082.0 8132.0,5054.0 8159.0,5028.0 C 8192.0,4995.0 8216.0,4980.0 8234.0,4980.0 C 8249.0,4980.0 8263.0,4974.0 8266.0,4966.0 C 8269.0,4958.0 8288.0,4945.0 8308.0,4937.0 C 8328.0,4929.0 8356.0,4910.0 8369.0,4896.0 C 8383.0,4882.0 8402.0,4870.0 8412.0,4870.0 C 8422.0,4870.0 8434.0,4862.0 8437.0,4853.0 C 8441.0,4843.0 8454.0,4821.0 8467.0,4804.0 C 8480.0,4787.0 8490.0,4765.0 8490.0,4756.0 C 8490.0,4726.0 8517.0,4687.0 8575.0,4630.0 C 8606.0,4600.0 8641.0,4556.0 8651.0,4532.0 C 8665.0,4501.0 8675.0,4490.0 8687.0,4492.0 C 8702.0,4495.0 8705.0,4506.0 8704.0,4560.0 C 8703.0,4596.0 8695.0,4645.0 8685.0,4670.0 C 8676.0,4695.0 8663.0,4729.0 8656.0,4746.0 C 8650.0,4764.0 8639.0,4785.0 8631.0,4793.0 C 8624.0,4802.0 8609.0,4827.0 8597.0,4849.0 C 8585.0,4871.0 8562.0,4910.0 8545.0,4936.0 C 8526.0,4968.0 8520.0,4985.0 8528.0,4988.0 C 8547.0,4994.0 8542.0,5062.0 8520.0,5090.0 C 8495.0,5122.0 8495.0,5138.0 8521.0,5166.0 L 8541.0,5188.0 L 8497.0,5205.0 L 8453.0,5222.0 L 8458.0,5265.0 C 8462.0,5305.0 8460.0,5309.0 8439.0,5312.0 C 8418.0,5315.0 8414.0,5323.0 8405.0,5375.0 C 8396.0,5424.0 8390.0,5437.0 8367.0,5450.0 C 8338.0,5466.0 8331.0,5490.0 8356.0,5490.0 C 8367.0,5490.0 8370.0,5496.0 8365.0,5513.0 C 8357.0,5539.0 8320.0,5573.0 8270.0,5599.0 C 8251.0,5610.0 8215.0,5637.0 8190.0,5659.0 C 8165.0,5682.0 8134.0,5703.0 8120.0,5706.0 C 8106.0,5709.0 8078.0,5715.0 8058.0,5721.0 L 8020.0,5731.0 L 8020.0,5786.0 C 8020.0,5827.0 8025.0,5849.0 8041.0,5868.0 C 8054.0,5885.0 8059.0,5902.0 8055.0,5917.0 C 8051.0,5936.0 8055.0,5941.0 8077.0,5946.0 C 8093.0,5949.0 8110.0,5953.0 8116.0,5955.0 C 8123.0,5957.0 8130.0,5975.0 8132.0,5996.0 C 8136.0,6028.0 8131.0,6041.0 8095.0,6084.0 C 8073.0,6112.0 8037.0,6144.0 8017.0,6155.0 C 7988.0,6170.0 7980.0,6181.0 7980.0,6202.0 C 7980.0,6223.0 7970.0,6236.0 7936.0,6259.0 C 7890.0,6291.0 7855.0,6339.0 7830.0,6405.0 C 7818.0,6437.0 7809.0,6446.0 7786.0,6448.0 C 7770.0,6450.0 7747.0,6464.0 7733.0,6481.0 C 7715.0,6502.0 7699.0,6510.0 7674.0,6510.0 C 7646.0,6510.0 7642.0,6507.0 7647.0,6493.0 C 7651.0,6483.0 7665.0,6464.0 7679.0,6451.0 C 7711.0,6421.0 7693.0,6411.0 7647.0,6433.0 C 7629.0,6442.0 7602.0,6452.0 7586.0,6455.0 C 7570.0,6458.0 7544.0,6474.0 7528.0,6491.0 C 7512.0,6507.0 7497.0,6520.0 7495.0,6520.0 C 7493.0,6520.0 7484.0,6510.0 7476.0,6498.0" fill="pink"/>
	<path d="M 2621.0,6365.0 C 2604.0,6345.0 2590.0,6325.0 2590.0,6320.0 C 2590.0,6315.0 2556.0,6275.0 2515.0,6230.0 L 2440.0,6150.0 L 2455.0,6120.0 C 2463.0,6104.0 2489.0,6081.0 2511.0,6069.0 C 2537.0,6056.0 2562.0,6031.0 2582.0,6000.0 C 2605.0,5963.0 2620.0,5949.0 2644.0,5944.0 C 2661.0,5941.0 2685.0,5929.0 2697.0,5918.0 C 2714.0,5902.0 2724.0,5900.0 2747.0,5907.0 C 2790.0,5922.0 2781.0,5943.0 2725.0,5961.0 L 2675.0,5977.0 L 2675.0,6056.0 L 2675.0,6135.0 L 2703.0,6135.0 C 2725.0,6134.0 2732.0,6140.0 2736.0,6160.0 C 2739.0,6174.0 2749.0,6206.0 2757.0,6231.0 C 2776.0,6287.0 2771.0,6313.0 2730.0,6363.0 C 2690.0,6411.0 2662.0,6411.0 2621.0,6365.0" fill="pink"/>
	<path d="M 5950.0,6382.0 C 5931.0,6378.0 5915.0,6369.0 5916.0,6363.0 C 5917.0,6356.0 5918.0,6339.0 5919.0,6325.0 C 5921.0,6290.0 5986.0,6220.0 6016.0,6220.0 C 6033.0,6220.0 6040.0,6214.0 6040.0,6202.0 C 6040.0,6166.0 6135.0,6146.0 6173.0,6174.0 C 6204.0,6198.0 6194.0,6223.0 6145.0,6243.0 L 6100.0,6262.0 L 6100.0,6315.0 C 6100.0,6351.0 6096.0,6370.0 6086.0,6373.0 C 6060.0,6383.0 5985.0,6388.0 5950.0,6382.0" fill="pink"/>
	<path d="M 3701.0,6219.0 C 3690.0,6200.0 3682.0,6198.0 3630.0,6203.0 C 3575.0,6209.0 3546.0,6200.0 3570.0,6185.0 C 3575.0,6182.0 3580.0,6162.0 3579.0,6142.0 C 3579.0,6110.0 3578.0,6108.0 3570.0,6128.0 C 3560.0,6151.0 3545.0,6157.0 3535.0,6140.0 C 3532.0,6135.0 3516.0,6130.0 3500.0,6130.0 C 3467.0,6130.0 3463.0,6121.0 3454.0,6037.0 C 3449.0,5982.0 3451.0,5971.0 3472.0,5940.0 C 3502.0,5895.0 3597.0,5831.0 3632.0,5830.0 C 3687.0,5830.0 3795.0,5955.0 3802.0,6027.0 L 3805.0,6065.0 L 3761.0,6070.0 C 3703.0,6076.0 3699.0,6093.0 3750.0,6109.0 C 3792.0,6121.0 3830.0,6166.0 3830.0,6203.0 C 3830.0,6241.0 3724.0,6255.0 3701.0,6219.0" fill="pink"/>
	<path d="M 2883.0,5943.0 C 2839.0,5940.0 2832.0,5936.0 2837.0,5922.0 C 2846.0,5895.0 2871.0,5880.0 2905.0,5880.0 C 2941.0,5880.0 3025.0,5852.0 3085.0,5821.0 C 3106.0,5809.0 3130.0,5800.0 3137.0,5800.0 C 3159.0,5800.0 3151.0,5845.0 3125.0,5870.0 C 3111.0,5883.0 3100.0,5899.0 3100.0,5906.0 C 3100.0,5937.0 3004.0,5953.0 2883.0,5943.0" fill="pink"/>
	<path d="M 3954.0,5927.0 C 3949.0,5919.0 3926.0,5898.0 3903.0,5881.0 C 3851.0,5843.0 3847.0,5811.0 3889.0,5762.0 C 3912.0,5735.0 3922.0,5730.0 3943.0,5735.0 C 3958.0,5739.0 3974.0,5748.0 3981.0,5756.0 C 3987.0,5764.0 3998.0,5770.0 4006.0,5770.0 C 4027.0,5770.0 4033.0,5808.0 4016.0,5832.0 C 4007.0,5844.0 4000.0,5864.0 4000.0,5876.0 C 4000.0,5888.0 3992.0,5908.0 3981.0,5921.0 C 3965.0,5941.0 3962.0,5942.0 3954.0,5927.0" fill="pink"/>
	<path d="M 4091.0,5856.0 C 4083.0,5846.0 4083.0,5840.0 4093.0,5831.0 C 4109.0,5818.0 4120.0,5826.0 4120.0,5852.0 C 4120.0,5873.0 4107.0,5875.0 4091.0,5856.0" fill="pink"/>
	<path d="M 5282.0,5435.0 C 5265.0,5415.0 5250.0,5395.0 5250.0,5390.0 C 5250.0,5384.0 5244.0,5380.0 5236.0,5380.0 C 5217.0,5380.0 5228.0,5340.0 5249.0,5333.0 C 5258.0,5330.0 5275.0,5324.0 5286.0,5318.0 C 5301.0,5311.0 5314.0,5311.0 5328.0,5319.0 C 5363.0,5337.0 5390.0,5332.0 5400.0,5305.0 C 5405.0,5291.0 5416.0,5280.0 5423.0,5280.0 C 5445.0,5280.0 5478.0,5323.0 5485.0,5361.0 C 5491.0,5392.0 5488.0,5400.0 5465.0,5418.0 C 5450.0,5430.0 5423.0,5442.0 5404.0,5446.0 C 5385.0,5449.0 5367.0,5456.0 5364.0,5461.0 C 5352.0,5481.0 5313.0,5468.0 5282.0,5435.0" fill="pink"/>
	<path d="M 6788.0,5414.0 C 6735.0,5380.0 6732.0,5376.0 6742.0,5354.0 C 6752.0,5334.0 6760.0,5330.0 6800.0,5330.0 C 6838.0,5330.0 6851.0,5325.0 6875.0,5300.0 C 6907.0,5266.0 6941.0,5262.0 6993.0,5284.0 C 7038.0,5303.0 7062.0,5332.0 7053.0,5357.0 C 7041.0,5388.0 6985.0,5430.0 6959.0,5429.0 C 6946.0,5428.0 6922.0,5432.0 6907.0,5439.0 C 6865.0,5456.0 6850.0,5453.0 6788.0,5414.0" fill="pink"/>
	<path d="M 7093.0,5363.0 C 7086.0,5361.0 7080.0,5349.0 7080.0,5338.0 C 7080.0,5327.0 7069.0,5305.0 7055.0,5288.0 C 7041.0,5272.0 7030.0,5253.0 7030.0,5246.0 C 7030.0,5225.0 7063.0,5202.0 7112.0,5189.0 C 7151.0,5178.0 7164.0,5179.0 7185.0,5190.0 C 7207.0,5202.0 7211.0,5210.0 7208.0,5244.0 C 7206.0,5277.0 7201.0,5286.0 7183.0,5288.0 C 7172.0,5290.0 7150.0,5309.0 7136.0,5331.0 C 7121.0,5352.0 7109.0,5370.0 7107.0,5369.0 C 7106.0,5369.0 7099.0,5366.0 7093.0,5363.0" fill="pink"/>
	<path d="M 6943.0,5223.0 C 6910.0,5217.0 6910.0,5170.0 6943.0,5170.0 C 6956.0,5170.0 6975.0,5176.0 6985.0,5184.0 C 7001.0,5196.0 7002.0,5200.0 6991.0,5214.0 C 6984.0,5223.0 6975.0,5229.0 6971.0,5229.0 C 6968.0,5228.0 6955.0,5225.0 6943.0,5223.0" fill="pink"/>
	<path d="M 6118.0,5049.0 C 6082.0,5026.0 6070.0,5011.0 6070.0,4993.0 C 6070.0,4980.0 6060.0,4956.0 6048.0,4940.0 C 6031.0,4917.0 6029.0,4907.0 6038.0,4898.0 C 6045.0,4891.0 6050.0,4862.0 6050.0,4833.0 C 6050.0,4794.0 6056.0,4771.0 6071.0,4750.0 L 6093.0,4722.0 L 6071.0,4694.0 C 6060.0,4680.0 6050.0,4661.0 6050.0,4654.0 C 6050.0,4647.0 6075.0,4620.0 6105.0,4593.0 L 6161.0,4545.0 L 6154.0,4494.0 L 6148.0,4442.0 L 6204.0,4429.0 C 6258.0,4417.0 6261.0,4415.0 6255.0,4390.0 C 6250.0,4368.0 6258.0,4357.0 6315.0,4310.0 C 6402.0,4238.0 6412.0,4234.0 6454.0,4254.0 C 6499.0,4275.0 6519.0,4274.0 6545.0,4250.0 C 6559.0,4237.0 6586.0,4227.0 6621.0,4224.0 C 6651.0,4221.0 6692.0,4211.0 6713.0,4203.0 C 6744.0,4189.0 6759.0,4189.0 6799.0,4198.0 C 6833.0,4206.0 6866.0,4206.0 6907.0,4200.0 C 6939.0,4194.0 7018.0,4190.0 7082.0,4190.0 C 7146.0,4190.0 7201.0,4186.0 7205.0,4181.0 C 7208.0,4175.0 7237.0,4151.0 7269.0,4127.0 C 7321.0,4087.0 7335.0,4082.0 7397.0,4075.0 C 7455.0,4070.0 7476.0,4062.0 7516.0,4034.0 C 7570.0,3996.0 7605.0,3995.0 7669.0,4032.0 C 7687.0,4042.0 7735.0,4057.0 7775.0,4065.0 C 7867.0,4082.0 7888.0,4095.0 7910.0,4145.0 L 7927.0,4185.0 L 7896.0,4212.0 L 7865.0,4239.0 L 7883.0,4271.0 C 7893.0,4288.0 7899.0,4304.0 7898.0,4305.0 C 7896.0,4307.0 7866.0,4326.0 7831.0,4349.0 C 7774.0,4386.0 7760.0,4390.0 7706.0,4390.0 L 7645.0,4390.0 L 7627.0,4453.0 C 7612.0,4504.0 7598.0,4526.0 7547.0,4578.0 C 7508.0,4617.0 7477.0,4640.0 7463.0,4640.0 C 7421.0,4640.0 7371.0,4671.0 7365.0,4702.0 C 7358.0,4733.0 7331.0,4755.0 7288.0,4765.0 C 7274.0,4769.0 7252.0,4783.0 7239.0,4796.0 C 7221.0,4815.0 7206.0,4820.0 7169.0,4820.0 C 7143.0,4820.0 7110.0,4824.0 7096.0,4830.0 C 7049.0,4847.0 6890.0,4845.0 6836.0,4827.0 C 6789.0,4810.0 6786.0,4810.0 6754.0,4829.0 L 6720.0,4849.0 L 6685.0,4828.0 C 6657.0,4812.0 6638.0,4809.0 6603.0,4813.0 C 6563.0,4817.0 6550.0,4825.0 6511.0,4868.0 C 6444.0,4940.0 6364.0,5002.0 6327.0,5009.0 C 6306.0,5014.0 6288.0,5027.0 6275.0,5048.0 C 6257.0,5075.0 6250.0,5079.0 6210.0,5079.0 C 6176.0,5080.0 6153.0,5072.0 6118.0,5049.0" fill="pink"/>
	<path d="M 8665.0,4920.0 C 8656.0,4906.0 8702.0,4779.0 8723.0,4757.0 C 8741.0,4739.0 8741.0,4737.0 8725.0,4720.0 C 8709.0,4702.0 8709.0,4698.0 8724.0,4660.0 C 8745.0,4608.0 8744.0,4540.0 8723.0,4496.0 C 8710.0,4467.0 8709.0,4457.0 8719.0,4431.0 C 8734.0,4397.0 8813.0,4338.0 8808.0,4366.0 C 8806.0,4375.0 8815.0,4389.0 8826.0,4396.0 C 8847.0,4410.0 8849.0,4408.0 8879.0,4355.0 C 8916.0,4290.0 8969.0,4250.0 8983.0,4276.0 C 8988.0,4285.0 8989.0,4313.0 8986.0,4339.0 C 8956.0,4539.0 8938.0,4588.0 8867.0,4656.0 C 8828.0,4693.0 8811.0,4719.0 8806.0,4744.0 C 8797.0,4791.0 8748.0,4863.0 8716.0,4878.0 C 8700.0,4885.0 8690.0,4898.0 8690.0,4910.0 C 8690.0,4931.0 8676.0,4937.0 8665.0,4920.0" fill="pink"/>
	<path d="M 9540.0,4411.0 C 9517.0,4404.0 9515.0,4400.0 9516.0,4344.0 C 9516.0,4256.0 9569.0,4165.0 9600.0,4196.0 C 9608.0,4204.0 9605.0,4223.0 9590.0,4264.0 L 9568.0,4320.0 L 9594.0,4364.0 C 9616.0,4402.0 9617.0,4409.0 9604.0,4414.0 C 9586.0,4421.0 9574.0,4420.0 9540.0,4411.0" fill="pink"/>
	<path d="M 8662.0,3630.0 C 8655.0,3619.0 8639.0,3610.0 8625.0,3610.0 C 8611.0,3610.0 8599.0,3607.0 8599.0,3603.0 C 8593.0,3572.0 8592.0,3496.0 8596.0,3453.0 L 8601.0,3400.0 L 8697.0,3400.0 C 8797.0,3400.0 8829.0,3391.0 8884.0,3347.0 C 8912.0,3325.0 8912.0,3322.0 8900.0,3286.0 C 8890.0,3254.0 8890.0,3246.0 8906.0,3229.0 C 8915.0,3219.0 8932.0,3210.0 8943.0,3210.0 C 8957.0,3210.0 8960.0,3206.0 8955.0,3193.0 C 8938.0,3153.0 8927.0,3102.0 8933.0,3088.0 C 8936.0,3078.0 8958.0,3070.0 8994.0,3066.0 C 9031.0,3061.0 9050.0,3054.0 9050.0,3045.0 C 9050.0,3029.0 9119.0,2970.0 9138.0,2970.0 C 9166.0,2970.0 9208.0,2940.0 9233.0,2901.0 C 9256.0,2867.0 9281.0,2850.0 9402.0,2790.0 C 9540.0,2722.0 9548.0,2719.0 9635.0,2714.0 C 9685.0,2711.0 9737.0,2704.0 9751.0,2699.0 C 9766.0,2693.0 9805.0,2683.0 9839.0,2676.0 C 9893.0,2665.0 9902.0,2665.0 9915.0,2680.0 C 9929.0,2696.0 9934.0,2695.0 9982.0,2671.0 C 10025.0,2650.0 10052.0,2645.0 10137.0,2642.0 C 10227.0,2638.0 10240.0,2640.0 10240.0,2654.0 C 10240.0,2678.0 10198.0,2690.0 10114.0,2690.0 C 10047.0,2690.0 10040.0,2692.0 10040.0,2710.0 C 10040.0,2722.0 10047.0,2730.0 10056.0,2730.0 C 10081.0,2730.0 10099.0,2760.0 10100.0,2802.0 C 10100.0,2866.0 10087.0,2886.0 10039.0,2894.0 C 9980.0,2903.0 9969.0,2914.0 9983.0,2950.0 C 9995.0,2983.0 9980.0,3010.0 9949.0,3010.0 C 9933.0,3010.0 9930.0,3018.0 9930.0,3056.0 C 9930.0,3094.0 9924.0,3109.0 9891.0,3148.0 C 9869.0,3174.0 9848.0,3208.0 9844.0,3223.0 C 9838.0,3248.0 9835.0,3250.0 9806.0,3244.0 C 9789.0,3241.0 9757.0,3229.0 9736.0,3218.0 L 9697.0,3198.0 L 9629.0,3225.0 C 9582.0,3243.0 9534.0,3253.0 9471.0,3257.0 C 9385.0,3263.0 9380.0,3264.0 9349.0,3296.0 C 9321.0,3325.0 9309.0,3330.0 9269.0,3330.0 C 9230.0,3330.0 9220.0,3334.0 9206.0,3355.0 C 9197.0,3369.0 9184.0,3380.0 9176.0,3380.0 C 9169.0,3380.0 9119.0,3418.0 9065.0,3465.0 C 8997.0,3524.0 8958.0,3550.0 8941.0,3550.0 C 8927.0,3550.0 8892.0,3566.0 8863.0,3586.0 C 8835.0,3605.0 8785.0,3628.0 8753.0,3635.0 C 8678.0,3653.0 8677.0,3653.0 8662.0,3630.0" fill="pink"/>
	<path d="M 9258.0,3623.0 C 9238.0,3618.0 9232.0,3556.0 9250.0,3545.0 C 9256.0,3542.0 9260.0,3530.0 9260.0,3519.0 C 9260.0,3508.0 9267.0,3497.0 9275.0,3494.0 C 9297.0,3485.0 9340.0,3517.0 9340.0,3540.0 C 9340.0,3568.0 9280.0,3628.0 9258.0,3623.0" fill="pink"/>
	<path d="M 6620.0,1425.0 L 6599.0,1391.0 L 6640.0,1337.0 L 6680.0,1283.0 L 6763.0,1277.0 C 6808.0,1273.0 6873.0,1268.0 6906.0,1264.0 C 6966.0,1258.0 6969.0,1259.0 7015.0,1294.0 C 7067.0,1333.0 7075.0,1335.0 7115.0,1320.0 C 7135.0,1312.0 7141.0,1305.0 7137.0,1290.0 C 7133.0,1272.0 7137.0,1270.0 7172.0,1270.0 C 7207.0,1270.0 7220.0,1263.0 7266.0,1220.0 C 7314.0,1175.0 7323.0,1170.0 7365.0,1170.0 C 7391.0,1170.0 7428.0,1161.0 7450.0,1150.0 C 7507.0,1121.0 7530.0,1123.0 7530.0,1159.0 C 7530.0,1185.0 7534.0,1189.0 7570.0,1195.0 C 7605.0,1201.0 7630.0,1222.0 7630.0,1245.0 C 7630.0,1248.0 7606.0,1262.0 7578.0,1275.0 C 7541.0,1293.0 7509.0,1300.0 7470.0,1299.0 L 7415.0,1298.0 L 7463.0,1285.0 C 7489.0,1278.0 7518.0,1266.0 7526.0,1259.0 C 7551.0,1238.0 7488.0,1211.0 7415.0,1210.0 C 7355.0,1210.0 7355.0,1210.0 7317.0,1257.0 C 7283.0,1299.0 7281.0,1305.0 7297.0,1311.0 C 7307.0,1315.0 7329.0,1319.0 7345.0,1320.0 C 7372.0,1321.0 7373.0,1322.0 7355.0,1332.0 C 7345.0,1338.0 7284.0,1347.0 7220.0,1351.0 C 7097.0,1358.0 6876.0,1407.0 6808.0,1441.0 C 6783.0,1454.0 6750.0,1460.0 6706.0,1460.0 C 6643.0,1460.0 6641.0,1459.0 6620.0,1425.0" fill="pink"/>
</svg>
