<?xml version="1.0" ?>
<svg xmlns="http://www.w3.org/2000/svg" xmlns:ev="http://www.w3.org/2001/xml-events" xmlns:xlink="http://www.w3.org/1999/xlink" baseProfile="full" height="487px" version="1.1" viewBox="-1028.0640904495722 142.58054074435495 12297.08766254424 9961.531526853427" width="600px">
	<defs/>
	<path d="M 6196.0,9261.0 C 6182.0,9239.0 6210.0,9203.0 6259.0,9180.0 C 6309.0,9157.0 6313.0,9157.0 6353.0,9171.0 C 6385.0,9183.0 6396.0,9193.0 6398.0,9211.0 C 6400.0,9233.0 6395.0,9236.0 6327.0,9253.0 C 6246.0,9272.0 6204.0,9275.0 6196.0,9261.0" fill="pink"/>
	<path d="M 7106.0,8334.0 C 7085.0,8322.0 7072.0,8321.0 7055.0,8328.0 C 7029.0,8340.0 6948.0,8332.0 6938.0,8316.0 C 6923.0,8295.0 6930.0,8272.0 6963.0,8232.0 C 6980.0,8210.0 7002.0,8179.0 7011.0,8163.0 C 7023.0,8141.0 7042.0,8129.0 7090.0,8112.0 L 7154.0,8091.0 L 7187.0,8111.0 C 7225.0,8135.0 7228.0,8148.0 7200.0,8183.0 C 7175.0,8215.0 7188.0,8227.0 7254.0,8236.0 C 7299.0,8243.0 7389.0,8295.0 7376.0,8307.0 C 7373.0,8310.0 7333.0,8312.0 7289.0,8311.0 C 7223.0,8310.0 7200.0,8314.0 7173.0,8330.0 C 7154.0,8341.0 7138.0,8350.0 7137.0,8350.0 C 7136.0,8349.0 7122.0,8342.0 7106.0,8334.0" fill="pink"/>
	<path d="M 8815.0,8231.0 C 8802.0,8188.0 8869.0,8091.0 8913.0,8090.0 C 8926.0,8090.0 8930.0,8098.0 8930.0,8130.0 C 8930.0,8151.0 8924.0,8174.0 8918.0,8179.0 C 8911.0,8185.0 8889.0,8203.0 8869.0,8220.0 C 8826.0,8255.0 8823.0,8256.0 8815.0,8231.0" fill="pink"/>
	<path d="M 9015.0,8210.0 C 8998.0,8191.0 8999.0,8188.0 9040.0,8119.0 C 9088.0,8041.0 9123.0,8009.0 9143.0,8029.0 C 9151.0,8037.0 9151.0,8048.0 9141.0,8073.0 C 9134.0,8090.0 9126.0,8116.0 9123.0,8130.0 C 9121.0,8144.0 9117.0,8165.0 9114.0,8177.0 C 9111.0,8192.0 9096.0,8205.0 9074.0,8215.0 C 9030.0,8233.0 9037.0,8234.0 9015.0,8210.0" fill="pink"/>
	<path d="M 6752.0,8140.0 C 6717.0,8084.0 6705.0,8080.0 6624.0,8105.0 C 6549.0,8128.0 6507.0,8124.0 6470.0,8093.0 C 6440.0,8068.0 6439.0,8064.0 6445.0,8016.0 C 6449.0,7988.0 6472.0,7923.0 6496.0,7871.0 C 6545.0,7767.0 6546.0,7759.0 6525.0,7726.0 C 6505.0,7696.0 6516.0,7667.0 6564.0,7620.0 L 6601.0,7585.0 L 6743.0,7579.0 C 6877.0,7574.0 6889.0,7571.0 6948.0,7541.0 L 7010.0,7510.0 L 7010.0,7459.0 C 7010.0,7395.0 7036.0,7346.0 7094.0,7303.0 C 7146.0,7263.0 7169.0,7262.0 7200.0,7295.0 C 7229.0,7326.0 7254.0,7321.0 7292.0,7275.0 C 7307.0,7257.0 7343.0,7226.0 7372.0,7206.0 C 7401.0,7185.0 7440.0,7158.0 7458.0,7145.0 C 7484.0,7127.0 7498.0,7123.0 7533.0,7127.0 C 7586.0,7134.0 7600.0,7145.0 7600.0,7180.0 C 7600.0,7218.0 7608.0,7222.0 7639.0,7199.0 C 7654.0,7188.0 7678.0,7178.0 7694.0,7177.0 C 7720.0,7175.0 7723.0,7179.0 7741.0,7235.0 C 7769.0,7322.0 7756.0,7360.0 7698.0,7360.0 C 7665.0,7360.0 7623.0,7407.0 7615.0,7454.0 C 7606.0,7499.0 7630.0,7551.0 7675.0,7586.0 L 7712.0,7614.0 L 7736.0,7585.0 C 7796.0,7511.0 7844.0,7480.0 7897.0,7480.0 C 7923.0,7480.0 8030.0,7527.0 8030.0,7538.0 C 8030.0,7542.0 8006.0,7561.0 7978.0,7580.0 C 7882.0,7645.0 7870.0,7658.0 7870.0,7701.0 C 7870.0,7753.0 7842.0,7770.0 7734.0,7784.0 C 7660.0,7793.0 7647.0,7792.0 7639.0,7779.0 C 7614.0,7733.0 7594.0,7719.0 7543.0,7713.0 L 7491.0,7707.0 L 7432.0,7764.0 C 7399.0,7795.0 7361.0,7842.0 7348.0,7868.0 C 7318.0,7927.0 7283.0,7936.0 7239.0,7894.0 C 7215.0,7871.0 7200.0,7866.0 7137.0,7862.0 C 7046.0,7856.0 7026.0,7866.0 7012.0,7923.0 C 6995.0,7989.0 6911.0,8110.0 6853.0,8153.0 C 6825.0,8173.0 6798.0,8190.0 6793.0,8190.0 C 6787.0,8190.0 6769.0,8168.0 6752.0,8140.0" fill="pink"/>
	<path d="M 9017.0,7762.0 C 8993.0,7735.0 8996.0,7692.0 9025.0,7654.0 C 9038.0,7637.0 9059.0,7598.0 9071.0,7568.0 C 9103.0,7486.0 9126.0,7455.0 9169.0,7435.0 C 9217.0,7414.0 9253.0,7420.0 9293.0,7458.0 C 9326.0,7489.0 9327.0,7501.0 9299.0,7526.0 C 9271.0,7551.0 9249.0,7593.0 9230.0,7655.0 C 9216.0,7699.0 9211.0,7705.0 9177.0,7713.0 C 9156.0,7718.0 9130.0,7735.0 9116.0,7751.0 C 9087.0,7785.0 9042.0,7790.0 9017.0,7762.0" fill="pink"/>
	<path d="M 6270.0,7613.0 C 6244.0,7604.0 6210.0,7567.0 6210.0,7549.0 C 6210.0,7526.0 6235.0,7508.0 6262.0,7512.0 C 6292.0,7516.0 6315.0,7559.0 6306.0,7593.0 C 6299.0,7621.0 6296.0,7622.0 6270.0,7613.0" fill="pink"/>
	<path d="M 9774.0,7503.0 C 9760.0,7483.0 9755.0,7458.0 9755.0,7415.0 C 9756.0,7329.0 9766.0,7300.0 9793.0,7300.0 C 9810.0,7300.0 9822.0,7315.0 9847.0,7366.0 L 9880.0,7432.0 L 9859.0,7481.0 C 9834.0,7539.0 9804.0,7547.0 9774.0,7503.0" fill="pink"/>
	<path d="M 8558.0,7489.0 C 8548.0,7484.0 8540.0,7473.0 8540.0,7466.0 C 8540.0,7458.0 8533.0,7450.0 8525.0,7446.0 C 8513.0,7442.0 8511.0,7431.0 8516.0,7401.0 C 8521.0,7371.0 8517.0,7350.0 8502.0,7318.0 C 8490.0,7294.0 8473.0,7233.0 8464.0,7182.0 C 8449.0,7098.0 8449.0,7085.0 8463.0,7036.0 C 8480.0,6974.0 8543.0,6887.0 8581.0,6870.0 C 8596.0,6864.0 8622.0,6843.0 8641.0,6824.0 C 8659.0,6805.0 8679.0,6790.0 8686.0,6790.0 C 8700.0,6790.0 8710.0,6813.0 8710.0,6846.0 C 8710.0,6864.0 8715.0,6870.0 8731.0,6870.0 C 8750.0,6870.0 8752.0,6874.0 8746.0,6913.0 C 8740.0,6953.0 8742.0,6957.0 8772.0,6980.0 C 8790.0,6994.0 8814.0,7007.0 8824.0,7010.0 C 8835.0,7013.0 8848.0,7024.0 8854.0,7035.0 C 8860.0,7046.0 8872.0,7060.0 8880.0,7066.0 C 8903.0,7085.0 8895.0,7141.0 8859.0,7200.0 C 8841.0,7230.0 8806.0,7289.0 8782.0,7330.0 C 8722.0,7430.0 8696.0,7456.0 8633.0,7480.0 C 8603.0,7491.0 8578.0,7500.0 8577.0,7500.0 C 8576.0,7500.0 8567.0,7495.0 8558.0,7489.0" fill="pink"/>
	<path d="M 7980.0,7421.0 C 7980.0,7403.0 7986.0,7390.0 7996.0,7386.0 C 8017.0,7378.0 8050.0,7406.0 8050.0,7432.0 C 8050.0,7446.0 8042.0,7450.0 8015.0,7450.0 C 7983.0,7450.0 7980.0,7447.0 7980.0,7421.0" fill="pink"/>
	<path d="M 5984.0,7336.0 C 5975.0,7312.0 6002.0,7268.0 6038.0,7247.0 C 6056.0,7236.0 6074.0,7230.0 6077.0,7233.0 C 6087.0,7244.0 6070.0,7288.0 6044.0,7319.0 C 6016.0,7352.0 5993.0,7359.0 5984.0,7336.0" fill="pink"/>
	<path d="M 212.0,5690.0 C 187.0,5674.0 151.0,5661.0 120.0,5657.0 C 59.0,5650.0 46.0,5640.0 18.0,5586.0 C 0.0,5551.0 -2.0,5535.0 4.0,5462.0 C 9.0,5388.0 15.0,5371.0 51.0,5310.0 C 82.0,5258.0 101.0,5238.0 124.0,5230.0 C 159.0,5219.0 239.0,5125.0 263.0,5069.0 L 277.0,5034.0 L 377.0,5021.0 C 472.0,5009.0 479.0,5009.0 518.0,5029.0 C 552.0,5046.0 560.0,5056.0 566.0,5087.0 C 572.0,5123.0 597.0,5177.0 655.0,5280.0 C 698.0,5357.0 686.0,5397.0 600.0,5453.0 C 581.0,5466.0 570.0,5489.0 555.0,5548.0 L 535.0,5625.0 L 475.0,5646.0 C 442.0,5657.0 397.0,5676.0 375.0,5687.0 C 308.0,5721.0 260.0,5722.0 212.0,5690.0" fill="pink"/>
	<path d="M 3068.0,4357.0 C 3019.0,4319.0 3005.0,4276.0 3026.0,4222.0 C 3045.0,4174.0 3046.0,4119.0 3027.0,4083.0 C 3006.0,4044.0 3003.0,3972.0 3019.0,3941.0 C 3028.0,3925.0 3030.0,3890.0 3024.0,3819.0 C 3018.0,3722.0 3016.0,3718.0 2986.0,3695.0 C 2967.0,3680.0 2934.0,3669.0 2900.0,3664.0 C 2828.0,3656.0 2685.0,3615.0 2657.0,3595.0 C 2645.0,3587.0 2619.0,3580.0 2599.0,3580.0 C 2577.0,3580.0 2524.0,3562.0 2459.0,3531.0 C 2402.0,3504.0 2339.0,3477.0 2319.0,3470.0 C 2294.0,3461.0 2277.0,3446.0 2266.0,3423.0 C 2251.0,3392.0 2251.0,3387.0 2266.0,3357.0 C 2275.0,3339.0 2289.0,3317.0 2298.0,3308.0 C 2311.0,3292.0 2310.0,3290.0 2286.0,3280.0 C 2265.0,3272.0 2254.0,3273.0 2237.0,3285.0 C 2167.0,3334.0 2127.0,3268.0 2184.0,3197.0 C 2204.0,3172.0 2217.0,3167.0 2289.0,3158.0 C 2366.0,3148.0 2372.0,3148.0 2394.0,3169.0 C 2427.0,3200.0 2455.0,3195.0 2503.0,3150.0 C 2533.0,3121.0 2540.0,3110.0 2528.0,3110.0 C 2514.0,3110.0 2510.0,3102.0 2510.0,3075.0 C 2510.0,3047.0 2516.0,3038.0 2538.0,3026.0 C 2553.0,3018.0 2573.0,3003.0 2583.0,2992.0 C 2593.0,2981.0 2615.0,2966.0 2632.0,2959.0 C 2660.0,2948.0 2665.0,2948.0 2681.0,2969.0 C 2704.0,2998.0 2744.0,2994.0 2748.0,2963.0 C 2752.0,2935.0 2824.0,2853.0 2853.0,2845.0 C 2865.0,2841.0 2911.0,2821.0 2955.0,2800.0 C 3024.0,2768.0 3053.0,2760.0 3165.0,2747.0 C 3268.0,2736.0 3297.0,2729.0 3305.0,2715.0 C 3310.0,2705.0 3326.0,2684.0 3338.0,2669.0 C 3359.0,2644.0 3360.0,2636.0 3351.0,2609.0 C 3341.0,2580.0 3343.0,2575.0 3389.0,2527.0 C 3496.0,2413.0 3520.0,2383.0 3520.0,2357.0 C 3520.0,2307.0 3581.0,2295.0 3629.0,2336.0 C 3658.0,2360.0 3663.0,2361.0 3690.0,2350.0 C 3729.0,2334.0 3728.0,2309.0 3689.0,2276.0 C 3670.0,2260.0 3657.0,2237.0 3653.0,2217.0 C 3648.0,2184.0 3650.0,2181.0 3708.0,2146.0 C 3813.0,2082.0 3866.0,2004.0 3826.0,1971.0 C 3807.0,1955.0 3690.0,1910.0 3668.0,1910.0 C 3659.0,1910.0 3635.0,1917.0 3616.0,1926.0 C 3583.0,1942.0 3581.0,1942.0 3552.0,1921.0 C 3536.0,1910.0 3508.0,1878.0 3490.0,1850.0 C 3460.0,1804.0 3458.0,1795.0 3465.0,1745.0 C 3469.0,1706.0 3482.0,1674.0 3507.0,1637.0 C 3566.0,1549.0 3568.0,1548.0 3602.0,1568.0 C 3618.0,1577.0 3636.0,1594.0 3642.0,1605.0 C 3661.0,1642.0 3693.0,1670.0 3704.0,1661.0 C 3710.0,1656.0 3734.0,1647.0 3758.0,1641.0 C 3781.0,1634.0 3800.0,1626.0 3800.0,1622.0 C 3800.0,1618.0 3791.0,1597.0 3780.0,1575.0 C 3751.0,1517.0 3754.0,1476.0 3789.0,1451.0 C 3805.0,1439.0 3833.0,1427.0 3850.0,1424.0 C 3867.0,1420.0 3888.0,1406.0 3897.0,1393.0 C 3912.0,1370.0 3912.0,1368.0 3881.0,1336.0 C 3843.0,1297.0 3847.0,1270.0 3892.0,1270.0 C 3909.0,1270.0 3940.0,1265.0 3962.0,1258.0 C 3999.0,1247.0 4001.0,1245.0 3995.0,1216.0 C 3975.0,1118.0 3976.0,1113.0 4012.0,1102.0 C 4030.0,1096.0 4056.0,1090.0 4070.0,1088.0 C 4089.0,1086.0 4096.0,1078.0 4098.0,1058.0 C 4101.0,1029.0 4109.0,1025.0 4181.0,1015.0 C 4207.0,1012.0 4235.0,1001.0 4245.0,990.0 C 4265.0,968.0 4287.0,974.0 4313.0,1007.0 C 4336.0,1036.0 4359.0,1036.0 4413.0,1008.0 C 4475.0,977.0 4529.0,969.0 4557.0,987.0 C 4588.0,1008.0 4590.0,1089.0 4560.0,1127.0 C 4549.0,1141.0 4540.0,1167.0 4540.0,1185.0 C 4540.0,1214.0 4535.0,1220.0 4493.0,1238.0 C 4466.0,1249.0 4429.0,1263.0 4408.0,1269.0 C 4364.0,1283.0 4355.0,1308.0 4359.0,1403.0 C 4361.0,1452.0 4358.0,1477.0 4346.0,1495.0 C 4337.0,1508.0 4330.0,1530.0 4330.0,1544.0 C 4330.0,1557.0 4314.0,1618.0 4294.0,1680.0 C 4259.0,1789.0 4258.0,1795.0 4270.0,1854.0 C 4284.0,1927.0 4297.0,1943.0 4373.0,1981.0 L 4430.0,2010.0 L 4413.0,2042.0 C 4403.0,2059.0 4390.0,2081.0 4384.0,2092.0 C 4378.0,2103.0 4369.0,2166.0 4365.0,2233.0 C 4361.0,2300.0 4352.0,2370.0 4344.0,2389.0 C 4336.0,2407.0 4330.0,2437.0 4330.0,2455.0 C 4330.0,2493.0 4400.0,2630.0 4446.0,2682.0 C 4478.0,2718.0 4495.0,2769.0 4488.0,2807.0 C 4485.0,2821.0 4472.0,2826.0 4424.0,2831.0 C 4344.0,2838.0 4278.0,2872.0 4211.0,2937.0 L 4157.0,2991.0 L 4133.0,2968.0 C 4117.0,2953.0 4110.0,2937.0 4113.0,2923.0 C 4118.0,2895.0 4100.0,2893.0 4076.0,2919.0 C 4067.0,2929.0 4042.0,2940.0 4021.0,2944.0 C 4000.0,2947.0 3977.0,2957.0 3970.0,2965.0 C 3963.0,2973.0 3952.0,2980.0 3945.0,2980.0 C 3920.0,2980.0 3870.0,3049.0 3870.0,3083.0 C 3870.0,3126.0 3862.0,3135.0 3814.0,3155.0 C 3791.0,3164.0 3756.0,3189.0 3737.0,3211.0 C 3716.0,3233.0 3688.0,3253.0 3671.0,3256.0 C 3655.0,3260.0 3631.0,3273.0 3619.0,3286.0 C 3597.0,3309.0 3597.0,3310.0 3615.0,3330.0 C 3632.0,3348.0 3632.0,3351.0 3616.0,3375.0 C 3599.0,3400.0 3598.0,3401.0 3574.0,3385.0 L 3550.0,3370.0 L 3550.0,3414.0 C 3550.0,3453.0 3546.0,3463.0 3520.0,3482.0 C 3500.0,3497.0 3490.0,3512.0 3490.0,3530.0 C 3490.0,3558.0 3469.0,3582.0 3436.0,3594.0 C 3420.0,3600.0 3418.0,3606.0 3426.0,3653.0 C 3431.0,3681.0 3435.0,3752.0 3435.0,3810.0 C 3435.0,3896.0 3438.0,3915.0 3450.0,3918.0 C 3459.0,3919.0 3471.0,3934.0 3477.0,3949.0 C 3484.0,3968.0 3496.0,3979.0 3511.0,3982.0 C 3532.0,3985.0 3535.0,3991.0 3538.0,4037.0 C 3541.0,4082.0 3535.0,4101.0 3492.0,4186.0 C 3448.0,4272.0 3437.0,4285.0 3394.0,4309.0 C 3367.0,4324.0 3330.0,4345.0 3313.0,4356.0 C 3286.0,4372.0 3277.0,4373.0 3260.0,4363.0 C 3233.0,4345.0 3217.0,4347.0 3187.0,4370.0 C 3151.0,4398.0 3118.0,4395.0 3068.0,4357.0" fill="pink"/>
	<path d="M 7656.0,4181.0 C 7639.0,4163.0 7636.0,4142.0 7646.0,4116.0 C 7651.0,4103.0 7656.0,4104.0 7681.0,4122.0 C 7714.0,4147.0 7719.0,4175.0 7691.0,4189.0 C 7677.0,4197.0 7669.0,4195.0 7656.0,4181.0" fill="pink"/>
	<path d="M 10012.0,4163.0 C 9977.0,4155.0 9946.0,4142.0 9943.0,4134.0 C 9930.0,4100.0 9952.0,4048.0 10000.0,3999.0 L 10048.0,3948.0 L 10106.0,3955.0 C 10139.0,3959.0 10182.0,3971.0 10203.0,3981.0 C 10235.0,3998.0 10240.0,4005.0 10240.0,4035.0 C 10240.0,4063.0 10233.0,4075.0 10198.0,4103.0 C 10156.0,4136.0 10086.0,4181.0 10079.0,4179.0 C 10077.0,4179.0 10047.0,4172.0 10012.0,4163.0" fill="pink"/>
	<path d="M 9531.0,3881.0 C 9511.0,3868.0 9527.0,3830.0 9553.0,3830.0 C 9581.0,3830.0 9620.0,3857.0 9620.0,3876.0 C 9620.0,3892.0 9555.0,3896.0 9531.0,3881.0" fill="pink"/>
	<path d="M 3998.0,3866.0 C 3983.0,3855.0 3980.0,3836.0 3980.0,3746.0 L 3980.0,3640.0 L 4006.0,3640.0 C 4038.0,3640.0 4146.0,3704.0 4161.0,3732.0 C 4190.0,3786.0 4191.0,3812.0 4164.0,3847.0 C 4140.0,3878.0 4136.0,3880.0 4077.0,3880.0 C 4041.0,3879.0 4008.0,3874.0 3998.0,3866.0" fill="pink"/>
	<path d="M 3917.0,3444.0 C 3885.0,3415.0 3885.0,3416.0 3906.0,3380.0 C 3917.0,3362.0 3938.0,3348.0 3964.0,3340.0 C 3986.0,3333.0 4018.0,3317.0 4034.0,3303.0 C 4050.0,3290.0 4070.0,3280.0 4079.0,3282.0 C 4102.0,3286.0 4104.0,3338.0 4083.0,3380.0 C 4069.0,3407.0 4057.0,3416.0 4025.0,3423.0 C 4004.0,3427.0 3976.0,3439.0 3965.0,3450.0 C 3944.0,3469.0 3944.0,3469.0 3917.0,3444.0" fill="pink"/>
	<path d="M 4321.0,3086.0 C 4314.0,3078.0 4310.0,3056.0 4312.0,3038.0 C 4315.0,3009.0 4318.0,3005.0 4345.0,3005.0 C 4399.0,3005.0 4407.0,3090.0 4353.0,3098.0 C 4342.0,3100.0 4328.0,3094.0 4321.0,3086.0" fill="pink"/>
	<path d="M 2130.0,3005.0 C 2115.0,2987.0 2136.0,2949.0 2173.0,2926.0 C 2205.0,2906.0 2277.0,2897.0 2283.0,2913.0 C 2290.0,2933.0 2272.0,2970.0 2255.0,2970.0 C 2246.0,2970.0 2222.0,2981.0 2202.0,2995.0 C 2160.0,3024.0 2147.0,3026.0 2130.0,3005.0" fill="pink"/>
	<path d="M 2608.0,2879.0 C 2581.0,2864.0 2586.0,2844.0 2630.0,2801.0 C 2652.0,2779.0 2670.0,2757.0 2670.0,2751.0 C 2670.0,2745.0 2679.0,2736.0 2691.0,2730.0 C 2718.0,2715.0 2750.0,2742.0 2750.0,2779.0 C 2750.0,2820.0 2706.0,2876.0 2669.0,2884.0 C 2629.0,2892.0 2629.0,2892.0 2608.0,2879.0" fill="pink"/>
	<path d="M 3110.0,2626.0 C 3092.0,2591.0 3104.0,2568.0 3137.0,2572.0 C 3172.0,2576.0 3182.0,2617.0 3154.0,2637.0 C 3130.0,2655.0 3125.0,2654.0 3110.0,2626.0" fill="pink"/>
</svg>
