<?xml version="1.0" ?>
<svg xmlns="http://www.w3.org/2000/svg" xmlns:ev="http://www.w3.org/2001/xml-events" xmlns:xlink="http://www.w3.org/1999/xlink" baseProfile="full" height="600px" version="1.1" viewBox="77.23105632790703 -1029.2205000000001 10087.675665824103 12299.441" width="493px">
	<defs/>
	<path d="M 7420.0,10164.0 L 7326.0,10088.0 L 7260.0,10094.0 L 7195.0,10101.0 L 7147.0,9963.0 L 7099.0,9825.0 L 6979.0,9771.0 C 6913.0,9741.0 6855.0,9709.0 6851.0,9701.0 C 6846.0,9692.0 6839.0,9649.0 6836.0,9605.0 C 6832.0,9561.0 6827.0,9518.0 6824.0,9509.0 C 6818.0,9487.0 6712.0,9466.0 6657.0,9475.0 C 6606.0,9484.0 6511.0,9529.0 6470.0,9564.0 C 6440.0,9589.0 6434.0,9590.0 6362.0,9585.0 C 6186.0,9572.0 5176.0,9537.0 3826.0,9495.0 C 3035.0,9471.0 2386.0,9450.0 2385.0,9448.0 C 2383.0,9446.0 2387.0,9217.0 2394.0,8940.0 C 2401.0,8649.0 2402.0,8432.0 2397.0,8429.0 C 2392.0,8426.0 2284.0,8420.0 2157.0,8416.0 C 2029.0,8412.0 1922.0,8405.0 1918.0,8402.0 C 1915.0,8398.0 1922.0,8006.0 1935.0,7530.0 C 1948.0,7054.0 1960.0,6565.0 1963.0,6443.0 L 1968.0,6220.0 L 1900.0,6226.0 C 1846.0,6231.0 1818.0,6228.0 1762.0,6211.0 C 1719.0,6198.0 1665.0,6190.0 1622.0,6190.0 C 1568.0,6190.0 1543.0,6185.0 1515.0,6169.0 C 1468.0,6141.0 1447.0,6100.0 1460.0,6065.0 C 1473.0,6031.0 1473.0,5973.0 1460.0,5965.0 C 1455.0,5962.0 1450.0,5942.0 1450.0,5920.0 C 1450.0,5889.0 1444.0,5876.0 1412.0,5849.0 C 1352.0,5797.0 1336.0,5763.0 1349.0,5719.0 C 1355.0,5699.0 1360.0,5680.0 1360.0,5678.0 C 1360.0,5675.0 1332.0,5669.0 1298.0,5666.0 C 1208.0,5656.0 1191.0,5650.0 1184.0,5628.0 C 1180.0,5614.0 1188.0,5596.0 1209.0,5570.0 C 1230.0,5544.0 1240.0,5520.0 1240.0,5498.0 C 1240.0,5476.0 1247.0,5461.0 1260.0,5452.0 C 1289.0,5434.0 1286.0,5396.0 1255.0,5382.0 C 1241.0,5375.0 1215.0,5357.0 1197.0,5340.0 C 1180.0,5324.0 1141.0,5292.0 1113.0,5268.0 C 1052.0,5220.0 1046.0,5195.0 1084.0,5139.0 C 1117.0,5090.0 1127.0,5016.0 1106.0,4967.0 C 1094.0,4937.0 1080.0,4924.0 1038.0,4905.0 C 958.0,4869.0 934.0,4842.0 925.0,4775.0 C 919.0,4724.0 921.0,4716.0 945.0,4684.0 C 971.0,4651.0 972.0,4650.0 1045.0,4650.0 C 1110.0,4650.0 1119.0,4652.0 1125.0,4670.0 C 1128.0,4681.0 1136.0,4690.0 1141.0,4690.0 C 1150.0,4690.0 1229.0,4653.0 1239.0,4644.0 C 1241.0,4643.0 1236.0,4619.0 1229.0,4591.0 C 1217.0,4544.0 1218.0,4537.0 1244.0,4475.0 C 1260.0,4439.0 1286.0,4393.0 1302.0,4372.0 C 1326.0,4342.0 1331.0,4328.0 1326.0,4300.0 C 1323.0,4281.0 1318.0,4237.0 1314.0,4204.0 L 1308.0,4143.0 L 1373.0,4076.0 C 1428.0,4020.0 1443.0,4010.0 1472.0,4010.0 C 1491.0,4010.0 1511.0,4005.0 1518.0,3998.0 C 1536.0,3980.0 1532.0,3921.0 1508.0,3863.0 L 1487.0,3811.0 L 1521.0,3734.0 C 1553.0,3663.0 1558.0,3656.0 1602.0,3637.0 C 1647.0,3619.0 1659.0,3604.0 1785.0,3420.0 L 1920.0,3222.0 L 1920.0,3098.0 L 1920.0,2973.0 L 1881.0,2919.0 C 1824.0,2839.0 1819.0,2825.0 1830.0,2796.0 C 1836.0,2780.0 1847.0,2770.0 1859.0,2770.0 C 1876.0,2770.0 1879.0,2764.0 1877.0,2733.0 C 1875.0,2700.0 1879.0,2694.0 1913.0,2675.0 C 1943.0,2658.0 1975.0,2651.0 2060.0,2646.0 C 2212.0,2637.0 2230.0,2633.0 2230.0,2604.0 C 2230.0,2592.0 2219.0,2560.0 2205.0,2534.0 C 2169.0,2466.0 2172.0,2429.0 2217.0,2390.0 C 2256.0,2355.0 2255.0,2355.0 2435.0,2376.0 C 2485.0,2382.0 2487.0,2381.0 2526.0,2338.0 C 2580.0,2280.0 2649.0,2230.0 2676.0,2230.0 C 2701.0,2230.0 2750.0,2172.0 2750.0,2142.0 C 2750.0,2131.0 2743.0,2117.0 2734.0,2110.0 C 2692.0,2074.0 2702.0,2012.0 2755.0,1988.0 C 2769.0,1982.0 2780.0,1969.0 2780.0,1960.0 C 2780.0,1950.0 2793.0,1937.0 2810.0,1930.0 C 2827.0,1923.0 2847.0,1908.0 2855.0,1897.0 C 2865.0,1883.0 2884.0,1876.0 2922.0,1872.0 C 2960.0,1869.0 2985.0,1859.0 3011.0,1839.0 C 3030.0,1824.0 3065.0,1804.0 3088.0,1795.0 C 3120.0,1782.0 3136.0,1767.0 3158.0,1729.0 C 3182.0,1685.0 3191.0,1678.0 3237.0,1664.0 C 3270.0,1654.0 3298.0,1638.0 3314.0,1619.0 L 3340.0,1589.0 L 3314.0,1551.0 C 3289.0,1512.0 3289.0,1512.0 3307.0,1474.0 C 3320.0,1445.0 3339.0,1427.0 3378.0,1407.0 L 3431.0,1378.0 L 3388.0,1340.0 C 3351.0,1307.0 3348.0,1301.0 3363.0,1295.0 C 3374.0,1290.0 3388.0,1294.0 3399.0,1304.0 C 3422.0,1325.0 3427.0,1324.0 3433.0,1300.0 C 3436.0,1289.0 3446.0,1280.0 3457.0,1280.0 C 3481.0,1279.0 3560.0,1243.0 3574.0,1226.0 C 3580.0,1218.0 3620.0,1197.0 3663.0,1179.0 C 3729.0,1152.0 3744.0,1141.0 3760.0,1110.0 C 3770.0,1090.0 3785.0,1068.0 3794.0,1061.0 C 3804.0,1053.0 3807.0,1038.0 3803.0,1016.0 C 3800.0,998.0 3803.0,958.0 3810.0,927.0 C 3820.0,876.0 3824.0,870.0 3856.0,858.0 C 3888.0,847.0 3890.0,843.0 3890.0,800.0 C 3890.0,737.0 3908.0,723.0 4005.0,709.0 C 4096.0,697.0 4151.0,665.0 4169.0,614.0 C 4176.0,594.0 4192.0,578.0 4211.0,570.0 C 4231.0,561.0 4249.0,542.0 4263.0,513.0 L 4284.0,470.0 L 4343.0,470.0 C 4391.0,470.0 4407.0,465.0 4432.0,445.0 C 4462.0,419.0 4487.0,416.0 4554.0,427.0 C 4587.0,432.0 4595.0,439.0 4609.0,471.0 C 4622.0,502.0 4630.0,510.0 4651.0,510.0 C 4666.0,510.0 4683.0,504.0 4690.0,496.0 C 4704.0,478.0 4837.0,434.0 4902.0,424.0 L 4949.0,418.0 L 4987.0,479.0 L 5025.0,541.0 L 5085.0,534.0 C 5176.0,525.0 5193.0,514.0 5209.0,450.0 C 5222.0,401.0 5235.0,383.0 5330.0,288.0 C 5429.0,187.0 5439.0,180.0 5476.0,180.0 C 5508.0,180.0 5520.0,174.0 5543.0,146.0 C 5559.0,125.0 5570.0,99.0 5570.0,81.0 C 5570.0,57.0 5578.0,47.0 5614.0,26.0 C 5639.0,12.0 5661.0,0.0 5663.0,0.0 C 5666.0,0.0 5681.0,20.0 5697.0,45.0 C 5715.0,75.0 5732.0,90.0 5746.0,90.0 C 5757.0,90.0 5775.0,99.0 5785.0,110.0 C 5812.0,140.0 5878.0,136.0 5948.0,102.0 C 6004.0,74.0 6006.0,74.0 6045.0,89.0 C 6067.0,98.0 6101.0,115.0 6120.0,127.0 C 6161.0,154.0 6180.0,146.0 6219.0,87.0 C 6232.0,66.0 6249.0,50.0 6256.0,50.0 C 6264.0,50.0 6272.0,39.0 6276.0,25.0 C 6281.0,4.0 6288.0,0.0 6321.0,0.0 C 6355.0,0.0 6360.0,3.0 6360.0,24.0 C 6360.0,60.0 6456.0,120.0 6514.0,120.0 C 6593.0,120.0 6721.0,150.0 6755.0,176.0 L 6788.0,201.0 L 6818.0,175.0 C 6846.0,152.0 6855.0,150.0 6958.0,150.0 L 7068.0,150.0 L 7305.0,394.0 L 7542.0,638.0 L 7720.0,714.0 C 7819.0,756.0 7909.0,790.0 7921.0,790.0 C 7932.0,790.0 7955.0,800.0 7972.0,811.0 C 8008.0,837.0 8026.0,826.0 8011.0,787.0 C 8000.0,760.0 8011.0,750.0 8052.0,750.0 C 8070.0,750.0 8072.0,746.0 8066.0,719.0 C 8063.0,702.0 8066.0,674.0 8075.0,654.0 C 8087.0,624.0 8093.0,620.0 8124.0,620.0 C 8144.0,620.0 8160.0,624.0 8160.0,629.0 C 8160.0,646.0 8193.0,650.0 8210.0,635.0 C 8246.0,602.0 8272.0,628.0 8243.0,668.0 C 8214.0,707.0 8203.0,865.0 8226.0,891.0 C 8239.0,905.0 8241.0,921.0 8237.0,957.0 C 8230.0,1019.0 8213.0,1031.0 8140.0,1023.0 C 8088.0,1018.0 8081.0,1020.0 8071.0,1039.0 C 8056.0,1065.0 8038.0,1066.0 8015.0,1040.0 C 7990.0,1012.0 7960.0,1030.0 7960.0,1074.0 C 7960.0,1100.0 7952.0,1113.0 7922.0,1137.0 C 7901.0,1154.0 7869.0,1196.0 7851.0,1230.0 C 7822.0,1284.0 7818.0,1299.0 7823.0,1344.0 C 7827.0,1389.0 7825.0,1398.0 7802.0,1422.0 C 7769.0,1458.0 7751.0,1509.0 7743.0,1593.0 C 7738.0,1645.0 7734.0,1660.0 7721.0,1660.0 C 7712.0,1660.0 7695.0,1671.0 7683.0,1684.0 C 7671.0,1696.0 7640.0,1715.0 7615.0,1724.0 C 7581.0,1737.0 7570.0,1747.0 7570.0,1763.0 C 7570.0,1796.0 7559.0,1807.0 7508.0,1829.0 C 7458.0,1850.0 7430.0,1882.0 7430.0,1917.0 C 7430.0,1934.0 7419.0,1944.0 7385.0,1959.0 C 7351.0,1974.0 7340.0,1984.0 7340.0,2001.0 C 7340.0,2013.0 7320.0,2046.0 7297.0,2074.0 C 7273.0,2102.0 7246.0,2137.0 7236.0,2152.0 C 7217.0,2181.0 7155.0,2210.0 7111.0,2210.0 C 7095.0,2210.0 7077.0,2217.0 7069.0,2226.0 C 7060.0,2237.0 7047.0,2240.0 7023.0,2235.0 C 6998.0,2231.0 6980.0,2234.0 6955.0,2250.0 C 6936.0,2262.0 6899.0,2275.0 6872.0,2279.0 L 6825.0,2285.0 L 6825.0,2345.0 C 6826.0,2377.0 6830.0,2405.0 6835.0,2407.0 C 6841.0,2409.0 6860.0,2419.0 6878.0,2430.0 C 6905.0,2447.0 6910.0,2456.0 6910.0,2487.0 C 6910.0,2538.0 6928.0,2600.0 6943.0,2601.0 C 6978.0,2606.0 7073.0,2610.0 7135.0,2610.0 C 7174.0,2610.0 7225.0,2616.0 7249.0,2623.0 C 7285.0,2634.0 7296.0,2643.0 7305.0,2669.0 C 7311.0,2687.0 7325.0,2709.0 7337.0,2718.0 L 7359.0,2735.0 L 7346.0,2980.0 L 7332.0,3225.0 L 7371.0,3282.0 C 7406.0,3334.0 7410.0,3345.0 7410.0,3404.0 C 7410.0,3460.0 7413.0,3469.0 7431.0,3475.0 C 7461.0,3485.0 7473.0,3525.0 7456.0,3558.0 C 7448.0,3573.0 7441.0,3608.0 7439.0,3636.0 C 7435.0,3682.0 7440.0,3694.0 7490.0,3778.0 C 7541.0,3863.0 7547.0,3870.0 7578.0,3870.0 C 7604.0,3870.0 7615.0,3863.0 7638.0,3830.0 C 7653.0,3808.0 7673.0,3791.0 7684.0,3790.0 C 7709.0,3790.0 7729.0,3818.0 7730.0,3853.0 C 7730.0,3868.0 7741.0,3903.0 7755.0,3930.0 C 7784.0,3987.0 7786.0,4003.0 7765.0,4020.0 C 7740.0,4041.0 7747.0,4093.0 7780.0,4135.0 C 7797.0,4156.0 7810.0,4176.0 7810.0,4179.0 C 7811.0,4182.0 7815.0,4204.0 7819.0,4227.0 C 7826.0,4262.0 7824.0,4272.0 7809.0,4286.0 C 7792.0,4301.0 7792.0,4304.0 7808.0,4329.0 C 7817.0,4343.0 7848.0,4381.0 7877.0,4413.0 C 7906.0,4445.0 7933.0,4483.0 7936.0,4498.0 C 7952.0,4571.0 7973.0,4615.0 8035.0,4699.0 C 8071.0,4750.0 8103.0,4797.0 8106.0,4805.0 C 8109.0,4812.0 8144.0,4823.0 8191.0,4830.0 C 8264.0,4842.0 8272.0,4841.0 8291.0,4824.0 C 8320.0,4798.0 8330.0,4818.0 8330.0,4911.0 C 8330.0,4976.0 8340.0,5019.0 8395.0,5201.0 C 8431.0,5319.0 8460.0,5430.0 8460.0,5449.0 C 8460.0,5470.0 8470.0,5496.0 8485.0,5516.0 C 8499.0,5534.0 8510.0,5562.0 8510.0,5577.0 C 8510.0,5593.0 8490.0,5707.0 8465.0,5830.0 C 8428.0,6016.0 8422.0,6055.0 8434.0,6064.0 C 8452.0,6079.0 8470.0,6135.0 8470.0,6179.0 C 8470.0,6216.0 8523.0,6389.0 8546.0,6425.0 C 8552.0,6436.0 8563.0,6485.0 8570.0,6535.0 C 8576.0,6584.0 8586.0,6627.0 8591.0,6631.0 C 8597.0,6634.0 8604.0,6661.0 8607.0,6691.0 C 8612.0,6742.0 8611.0,6746.0 8585.0,6760.0 C 8560.0,6773.0 8558.0,6778.0 8562.0,6826.0 C 8566.0,6867.0 8574.0,6886.0 8598.0,6915.0 C 8616.0,6934.0 8630.0,6953.0 8630.0,6956.0 C 8630.0,6959.0 8621.0,6978.0 8610.0,7000.0 C 8599.0,7022.0 8590.0,7053.0 8590.0,7070.0 C 8590.0,7101.0 8591.0,7102.0 8628.0,7096.0 C 8648.0,7093.0 8689.0,7089.0 8719.0,7088.0 L 8773.0,7085.0 L 8786.0,7130.0 C 8794.0,7155.0 8800.0,7187.0 8800.0,7202.0 C 8800.0,7233.0 8864.0,7290.0 8899.0,7290.0 C 8913.0,7290.0 8920.0,7296.0 8920.0,7308.0 C 8920.0,7318.0 8927.0,7335.0 8935.0,7346.0 C 8949.0,7364.0 8951.0,7364.0 8964.0,7348.0 C 8982.0,7324.0 9010.0,7325.0 9010.0,7349.0 C 9010.0,7359.0 9018.0,7378.0 9029.0,7391.0 L 9047.0,7414.0 L 9054.0,7392.0 C 9064.0,7363.0 9078.0,7364.0 9092.0,7395.0 C 9101.0,7416.0 9108.0,7420.0 9130.0,7415.0 C 9153.0,7410.0 9159.0,7414.0 9174.0,7447.0 C 9196.0,7496.0 9241.0,7546.0 9271.0,7555.0 C 9307.0,7566.0 9320.0,7580.0 9320.0,7606.0 C 9320.0,7629.0 9295.0,7640.0 9288.0,7621.0 C 9282.0,7603.0 9220.0,7638.0 9220.0,7659.0 C 9220.0,7686.0 9205.0,7693.0 9181.0,7678.0 C 9158.0,7664.0 9141.0,7675.0 9158.0,7692.0 C 9165.0,7699.0 9170.0,7708.0 9170.0,7712.0 C 9170.0,7726.0 9140.0,7721.0 9134.0,7706.0 C 9125.0,7683.0 9070.0,7709.0 9064.0,7740.0 C 9052.0,7791.0 9048.0,7800.0 9037.0,7800.0 C 9030.0,7801.0 9013.0,7819.0 8998.0,7840.0 C 8976.0,7872.0 8962.0,7881.0 8930.0,7886.0 C 8901.0,7891.0 8884.0,7901.0 8869.0,7921.0 C 8850.0,7949.0 8846.0,7950.0 8795.0,7944.0 C 8737.0,7937.0 8738.0,7936.0 8725.0,7993.0 C 8720.0,8017.0 8717.0,8020.0 8705.0,8010.0 C 8697.0,8003.0 8690.0,7999.0 8690.0,8001.0 C 8681.0,8085.0 8682.0,8125.0 8693.0,8132.0 C 8702.0,8138.0 8696.0,8148.0 8672.0,8168.0 C 8649.0,8187.0 8640.0,8203.0 8640.0,8224.0 C 8640.0,8240.0 8631.0,8267.0 8621.0,8284.0 C 8596.0,8325.0 8585.0,8389.0 8589.0,8478.0 C 8592.0,8540.0 8590.0,8550.0 8575.0,8550.0 C 8566.0,8550.0 8562.0,8555.0 8565.0,8560.0 C 8569.0,8566.0 8562.0,8585.0 8551.0,8603.0 C 8537.0,8626.0 8534.0,8640.0 8541.0,8653.0 C 8547.0,8662.0 8548.0,8676.0 8543.0,8683.0 C 8536.0,8694.0 8522.0,8778.0 8517.0,8840.0 C 8516.0,8854.0 8521.0,8871.0 8528.0,8878.0 C 8544.0,8896.0 8543.0,8932.0 8525.0,8956.0 C 8517.0,8966.0 8510.0,8989.0 8510.0,9007.0 C 8510.0,9044.0 8474.0,9147.0 8453.0,9171.0 C 8446.0,9180.0 8442.0,9194.0 8445.0,9203.0 C 8449.0,9211.0 8444.0,9232.0 8435.0,9249.0 C 8416.0,9287.0 8419.0,9287.0 8470.0,9255.0 C 8510.0,9230.0 8523.0,9213.0 8495.0,9224.0 C 8481.0,9229.0 8482.0,9225.0 8497.0,9200.0 C 8515.0,9169.0 8550.0,9159.0 8550.0,9184.0 C 8550.0,9222.0 8526.0,9252.0 8460.0,9296.0 C 8379.0,9350.0 8354.0,9377.0 8341.0,9428.0 C 8335.0,9447.0 8318.0,9479.0 8302.0,9499.0 C 8278.0,9529.0 8272.0,9548.0 8266.0,9613.0 C 8257.0,9711.0 8255.0,9716.0 8217.0,9731.0 C 8171.0,9748.0 8120.0,9783.0 8120.0,9797.0 C 8120.0,9803.0 8100.0,9812.0 8075.0,9816.0 C 8028.0,9823.0 8000.0,9848.0 8000.0,9882.0 C 8000.0,9892.0 7984.0,9908.0 7961.0,9920.0 C 7939.0,9931.0 7915.0,9949.0 7908.0,9959.0 C 7890.0,9984.0 7849.0,10000.0 7801.0,10000.0 C 7776.0,10000.0 7757.0,10007.0 7745.0,10020.0 C 7736.0,10030.0 7711.0,10045.0 7691.0,10051.0 C 7644.0,10066.0 7630.0,10078.0 7613.0,10118.0 C 7598.0,10155.0 7583.0,10159.0 7571.0,10128.0 C 7565.0,10110.0 7560.0,10117.0 7539.0,10174.0 L 7514.0,10241.0 L 7420.0,10164.0" fill="pink"/>
</svg>
