<?xml version="1.0" ?>
<svg xmlns="http://www.w3.org/2000/svg" xmlns:ev="http://www.w3.org/2001/xml-events" xmlns:xlink="http://www.w3.org/1999/xlink" baseProfile="full" height="600px" version="1.1" viewBox="2379.8282440253947 -1030.2205000000001 5466.157127472896 12299.441" width="267px">
	<defs/>
	<path d="M 6220.0,10230.0 C 6220.0,10224.0 6209.0,10208.0 6195.0,10195.0 C 6177.0,10176.0 6160.0,10170.0 6127.0,10170.0 L 6082.0,10170.0 L 6111.0,10096.0 L 6140.0,10022.0 L 6110.0,9951.0 C 6094.0,9912.0 6069.0,9864.0 6054.0,9845.0 C 6039.0,9825.0 6029.0,9808.0 6031.0,9807.0 C 6033.0,9805.0 6050.0,9795.0 6068.0,9784.0 L 6100.0,9764.0 L 6069.0,9722.0 C 6052.0,9699.0 6036.0,9680.0 6034.0,9680.0 C 6032.0,9680.0 5985.0,9702.0 5931.0,9729.0 L 5833.0,9779.0 L 5709.0,9781.0 C 5634.0,9782.0 5574.0,9779.0 5558.0,9772.0 C 5532.0,9761.0 5530.0,9756.0 5530.0,9708.0 C 5530.0,9679.0 5537.0,9627.0 5545.0,9592.0 L 5560.0,9529.0 L 5520.0,9450.0 L 5480.0,9371.0 L 5396.0,9411.0 L 5311.0,9452.0 L 5283.0,9432.0 C 5268.0,9421.0 5234.0,9390.0 5208.0,9363.0 C 5162.0,9316.0 5149.0,9283.0 5094.0,9090.0 C 5092.0,9081.0 5075.0,9067.0 5057.0,9057.0 C 5031.0,9043.0 5020.0,9027.0 5007.0,8988.0 L 4991.0,8937.0 L 5021.0,8893.0 C 5051.0,8850.0 5051.0,8849.0 5044.0,8754.0 L 5037.0,8659.0 L 4980.0,8607.0 C 4934.0,8565.0 4916.0,8540.0 4894.0,8485.0 C 4877.0,8442.0 4841.0,8384.0 4802.0,8335.0 L 4739.0,8255.0 L 4744.0,8192.0 C 4751.0,8107.0 4741.0,8089.0 4667.0,8057.0 C 4616.0,8035.0 4590.0,8030.0 4524.0,8030.0 L 4443.0,8030.0 L 4451.0,7988.0 C 4483.0,7819.0 4483.0,7814.0 4451.0,7656.0 C 4434.0,7574.0 4420.0,7482.0 4420.0,7452.0 C 4420.0,7414.0 4414.0,7390.0 4400.0,7370.0 C 4389.0,7354.0 4377.0,7327.0 4373.0,7309.0 C 4370.0,7291.0 4309.0,7189.0 4238.0,7083.0 C 4168.0,6977.0 4110.0,6888.0 4110.0,6887.0 C 4110.0,6885.0 4139.0,6862.0 4175.0,6835.0 C 4246.0,6781.0 4243.0,6789.0 4254.0,6634.0 C 4261.0,6547.0 4237.0,6479.0 4190.0,6455.0 C 4161.0,6440.0 4157.0,6441.0 4061.0,6490.0 C 3955.0,6543.0 3932.0,6546.0 3868.0,6513.0 C 3816.0,6487.0 3735.0,6406.0 3689.0,6335.0 C 3663.0,6295.0 3626.0,6244.0 3605.0,6221.0 C 3566.0,6178.0 3566.0,6176.0 3585.0,6099.0 C 3589.0,6081.0 3579.0,6058.0 3541.0,6007.0 L 3492.0,5939.0 L 3522.0,5847.0 L 3553.0,5755.0 L 3522.0,5704.0 C 3493.0,5657.0 3491.0,5650.0 3499.0,5600.0 C 3507.0,5552.0 3505.0,5540.0 3482.0,5492.0 L 3455.0,5439.0 L 3483.0,5332.0 L 3510.0,5225.0 L 3485.0,5025.0 C 3472.0,4915.0 3460.0,4809.0 3460.0,4789.0 C 3460.0,4742.0 3507.0,4675.0 3547.0,4667.0 C 3570.0,4662.0 3584.0,4646.0 3622.0,4577.0 L 3669.0,4493.0 L 3655.0,4435.0 C 3648.0,4403.0 3635.0,4373.0 3626.0,4368.0 C 3617.0,4363.0 3601.0,4342.0 3590.0,4321.0 C 3571.0,4284.0 3570.0,4283.0 3504.0,4277.0 C 3464.0,4274.0 3432.0,4266.0 3423.0,4257.0 C 3409.0,4243.0 3410.0,4239.0 3429.0,4214.0 C 3440.0,4200.0 3450.0,4176.0 3450.0,4163.0 C 3450.0,4127.0 3499.0,3938.0 3515.0,3914.0 C 3536.0,3881.0 3523.0,3802.0 3488.0,3757.0 C 3460.0,3721.0 3458.0,3714.0 3464.0,3660.0 L 3471.0,3601.0 L 3388.0,3521.0 C 3308.0,3443.0 3304.0,3440.0 3267.0,3446.0 C 3210.0,3455.0 3190.0,3433.0 3203.0,3375.0 C 3216.0,3319.0 3198.0,3270.0 3165.0,3270.0 C 3137.0,3270.0 3110.0,3231.0 3110.0,3193.0 C 3110.0,3178.0 3117.0,3140.0 3125.0,3110.0 C 3143.0,3043.0 3146.0,2971.0 3133.0,2945.0 C 3127.0,2934.0 3120.0,2909.0 3116.0,2890.0 C 3113.0,2871.0 3101.0,2837.0 3091.0,2815.0 C 3080.0,2793.0 3067.0,2763.0 3061.0,2748.0 C 3055.0,2731.0 3042.0,2719.0 3030.0,2718.0 C 2975.0,2714.0 2975.0,2714.0 2978.0,2746.0 C 2983.0,2792.0 2943.0,2890.0 2920.0,2890.0 C 2888.0,2890.0 2849.0,2848.0 2850.0,2815.0 C 2851.0,2799.0 2853.0,2712.0 2856.0,2622.0 C 2858.0,2532.0 2864.0,2450.0 2870.0,2440.0 C 2885.0,2412.0 2882.0,2400.0 2860.0,2400.0 C 2827.0,2400.0 2836.0,2366.0 2873.0,2349.0 C 2893.0,2340.0 2906.0,2327.0 2908.0,2313.0 C 2910.0,2300.0 2915.0,2290.0 2920.0,2290.0 C 2934.0,2290.0 2970.0,2248.0 2970.0,2232.0 C 2970.0,2222.0 2963.0,2220.0 2946.0,2224.0 C 2928.0,2228.0 2917.0,2225.0 2906.0,2209.0 C 2893.0,2190.0 2893.0,2186.0 2911.0,2166.0 C 2929.0,2148.0 2959.0,2139.0 3013.0,2139.0 C 3022.0,2139.0 3030.0,2135.0 3030.0,2129.0 C 3030.0,2124.0 3020.0,2120.0 3007.0,2120.0 C 2995.0,2120.0 2968.0,2109.0 2947.0,2095.0 C 2911.0,2070.0 2910.0,2069.0 2926.0,2045.0 C 2943.0,2018.0 2955.0,2014.0 2965.0,2030.0 C 2968.0,2036.0 2984.0,2047.0 3000.0,2055.0 L 3029.0,2070.0 L 3023.0,2032.0 C 3020.0,2012.0 3009.0,1985.0 2998.0,1974.0 C 2981.0,1955.0 2980.0,1949.0 2991.0,1931.0 C 2999.0,1920.0 3011.0,1909.0 3020.0,1907.0 C 3030.0,1905.0 3026.0,1899.0 3007.0,1890.0 C 2969.0,1872.0 2976.0,1846.0 3020.0,1840.0 C 3043.0,1837.0 3051.0,1832.0 3043.0,1827.0 C 3025.0,1816.0 3027.0,1795.0 3046.0,1776.0 C 3054.0,1767.0 3058.0,1755.0 3055.0,1749.0 C 3033.0,1715.0 3042.0,1560.0 3065.0,1560.0 C 3072.0,1560.0 3088.0,1581.0 3100.0,1608.0 C 3125.0,1660.0 3137.0,1652.0 3121.0,1595.0 C 3114.0,1569.0 3114.0,1553.0 3122.0,1540.0 C 3131.0,1526.0 3131.0,1518.0 3120.0,1505.0 C 3109.0,1492.0 3109.0,1487.0 3119.0,1480.0 C 3128.0,1475.0 3129.0,1471.0 3121.0,1466.0 C 3113.0,1461.0 3116.0,1450.0 3130.0,1432.0 C 3143.0,1416.0 3149.0,1398.0 3146.0,1384.0 C 3142.0,1369.0 3149.0,1352.0 3167.0,1331.0 C 3182.0,1314.0 3194.0,1288.0 3195.0,1273.0 C 3195.0,1251.0 3202.0,1242.0 3227.0,1231.0 C 3266.0,1214.0 3298.0,1155.0 3302.0,1093.0 C 3304.0,1069.0 3310.0,1050.0 3316.0,1050.0 C 3323.0,1050.0 3330.0,1040.0 3333.0,1029.0 C 3338.0,1012.0 3345.0,1008.0 3370.0,1012.0 C 3396.0,1016.0 3401.0,1013.0 3407.0,992.0 C 3416.0,957.0 3388.0,876.0 3366.0,872.0 C 3356.0,870.0 3344.0,874.0 3340.0,880.0 C 3334.0,890.0 3325.0,890.0 3301.0,879.0 C 3265.0,863.0 3262.0,850.0 3290.0,825.0 C 3301.0,815.0 3310.0,801.0 3310.0,793.0 C 3310.0,786.0 3317.0,777.0 3325.0,774.0 C 3333.0,770.0 3340.0,757.0 3340.0,744.0 C 3340.0,709.0 3301.0,712.0 3265.0,750.0 C 3235.0,782.0 3200.0,790.0 3200.0,765.0 C 3200.0,744.0 3230.0,669.0 3252.0,638.0 C 3262.0,623.0 3279.0,585.0 3290.0,554.0 C 3308.0,497.0 3308.0,497.0 3288.0,480.0 C 3262.0,459.0 3269.0,446.0 3321.0,420.0 C 3355.0,402.0 3360.0,396.0 3358.0,368.0 C 3355.0,342.0 3360.0,333.0 3383.0,322.0 C 3432.0,298.0 3408.0,247.0 3342.0,234.0 C 3305.0,226.0 3300.0,202.0 3330.0,175.0 C 3357.0,150.0 3355.0,126.0 3325.0,112.0 C 3296.0,99.0 3292.0,80.0 3318.0,80.0 C 3327.0,80.0 3347.0,74.0 3361.0,66.0 C 3375.0,59.0 3404.0,50.0 3426.0,46.0 C 3447.0,42.0 3480.0,30.0 3499.0,19.0 L 3533.0,-1.0 L 3578.0,31.0 C 3612.0,56.0 3635.0,64.0 3669.0,65.0 C 3694.0,66.0 3725.0,70.0 3738.0,74.0 C 3754.0,79.0 3773.0,74.0 3805.0,56.0 C 3858.0,24.0 3910.0,21.0 3910.0,49.0 C 3910.0,59.0 3917.0,70.0 3925.0,73.0 C 3933.0,77.0 3949.0,98.0 3960.0,121.0 C 3982.0,164.0 3981.0,175.0 3949.0,230.0 C 3926.0,269.0 3922.0,289.0 3931.0,333.0 C 3940.0,384.0 3973.0,436.0 4002.0,446.0 C 4011.0,449.0 4027.0,464.0 4037.0,481.0 C 4057.0,515.0 4069.0,517.0 4101.0,491.0 C 4135.0,465.0 4175.0,479.0 4166.0,515.0 C 4146.0,596.0 4145.0,590.0 4181.0,592.0 C 4200.0,592.0 4222.0,592.0 4230.0,591.0 C 4285.0,584.0 4321.0,584.0 4326.0,591.0 C 4335.0,606.0 4370.0,601.0 4370.0,586.0 C 4370.0,562.0 4389.0,557.0 4415.0,574.0 C 4428.0,583.0 4446.0,587.0 4455.0,584.0 C 4463.0,580.0 4476.0,582.0 4483.0,587.0 C 4513.0,608.0 4600.0,579.0 4600.0,548.0 C 4600.0,525.0 4625.0,525.0 4649.0,549.0 C 4675.0,575.0 4716.0,656.0 4735.0,720.0 C 4744.0,750.0 4760.0,795.0 4770.0,820.0 C 4780.0,845.0 4791.0,878.0 4795.0,893.0 C 4798.0,909.0 4810.0,924.0 4823.0,929.0 C 4852.0,940.0 4865.0,983.0 4881.0,1115.0 C 4888.0,1178.0 4898.0,1218.0 4906.0,1223.0 C 4925.0,1234.0 4924.0,1295.0 4905.0,1314.0 C 4888.0,1331.0 4885.0,1356.0 4900.0,1365.0 C 4906.0,1368.0 4910.0,1382.0 4910.0,1396.0 C 4910.0,1409.0 4915.0,1420.0 4920.0,1420.0 C 4926.0,1420.0 4930.0,1426.0 4930.0,1434.0 C 4930.0,1442.0 4938.0,1455.0 4949.0,1462.0 C 4959.0,1469.0 4973.0,1493.0 4979.0,1515.0 C 4986.0,1537.0 4996.0,1569.0 5002.0,1585.0 C 5019.0,1636.0 5017.0,1645.0 4993.0,1643.0 C 4960.0,1639.0 4963.0,1678.0 4997.0,1706.0 L 5024.0,1727.0 L 4987.0,1777.0 C 4939.0,1843.0 4939.0,1854.0 4989.0,1846.0 C 5024.0,1841.0 5028.0,1842.0 5034.0,1864.0 C 5037.0,1878.0 5035.0,1901.0 5028.0,1915.0 C 5019.0,1936.0 5019.0,1943.0 5029.0,1950.0 C 5037.0,1955.0 5041.0,1968.0 5038.0,1983.0 C 5035.0,2000.0 5038.0,2011.0 5048.0,2015.0 C 5056.0,2018.0 5060.0,2026.0 5057.0,2034.0 C 5054.0,2041.0 5057.0,2053.0 5063.0,2059.0 C 5071.0,2067.0 5068.0,2078.0 5052.0,2099.0 C 5037.0,2120.0 5034.0,2130.0 5043.0,2133.0 C 5051.0,2136.0 5047.0,2145.0 5032.0,2163.0 C 5016.0,2180.0 5012.0,2189.0 5021.0,2192.0 C 5042.0,2199.0 5023.0,2229.0 4987.0,2244.0 C 4968.0,2252.0 4949.0,2263.0 4946.0,2269.0 C 4937.0,2284.0 4942.0,2283.0 4991.0,2264.0 C 5026.0,2250.0 5037.0,2249.0 5071.0,2260.0 C 5101.0,2270.0 5110.0,2278.0 5110.0,2295.0 C 5110.0,2312.0 5103.0,2319.0 5081.0,2323.0 C 5058.0,2328.0 5053.0,2333.0 5057.0,2349.0 C 5061.0,2365.0 5055.0,2371.0 5029.0,2379.0 C 4996.0,2389.0 4997.0,2389.0 5040.0,2385.0 C 5135.0,2375.0 5156.0,2383.0 5144.0,2424.0 C 5139.0,2440.0 5142.0,2442.0 5164.0,2436.0 C 5183.0,2431.0 5193.0,2435.0 5202.0,2450.0 C 5211.0,2463.0 5226.0,2470.0 5247.0,2470.0 C 5273.0,2470.0 5281.0,2475.0 5286.0,2495.0 C 5289.0,2509.0 5298.0,2520.0 5306.0,2520.0 C 5314.0,2520.0 5320.0,2530.0 5320.0,2546.0 C 5320.0,2560.0 5324.0,2569.0 5330.0,2565.0 C 5336.0,2562.0 5340.0,2566.0 5340.0,2574.0 C 5340.0,2583.0 5346.0,2589.0 5353.0,2588.0 C 5360.0,2586.0 5364.0,2595.0 5363.0,2613.0 C 5361.0,2642.0 5369.0,2647.0 5387.0,2629.0 C 5394.0,2622.0 5400.0,2632.0 5405.0,2666.0 C 5409.0,2693.0 5418.0,2722.0 5424.0,2732.0 C 5435.0,2748.0 5436.0,2743.0 5432.0,2701.0 C 5429.0,2661.0 5433.0,2641.0 5456.0,2593.0 L 5484.0,2535.0 L 5490.0,2567.0 C 5502.0,2622.0 5548.0,2689.0 5589.0,2710.0 C 5610.0,2720.0 5630.0,2736.0 5633.0,2745.0 C 5637.0,2753.0 5651.0,2765.0 5665.0,2772.0 C 5698.0,2787.0 5706.0,2816.0 5684.0,2841.0 C 5665.0,2862.0 5671.0,2865.0 5700.0,2850.0 C 5716.0,2842.0 5726.0,2846.0 5754.0,2874.0 C 5786.0,2907.0 5788.0,2911.0 5777.0,2940.0 C 5764.0,2976.0 5742.0,2985.0 5675.0,2985.0 C 5624.0,2985.0 5600.0,3002.0 5642.0,3009.0 C 5655.0,3010.0 5681.0,3030.0 5701.0,3051.0 C 5721.0,3073.0 5746.0,3090.0 5758.0,3090.0 C 5771.0,3090.0 5780.0,3096.0 5780.0,3105.0 C 5780.0,3114.0 5788.0,3124.0 5798.0,3127.0 C 5821.0,3136.0 5831.0,3152.0 5824.0,3173.0 C 5819.0,3188.0 5822.0,3189.0 5846.0,3180.0 C 5880.0,3167.0 5888.0,3174.0 5865.0,3200.0 C 5845.0,3222.0 5855.0,3230.0 5900.0,3227.0 C 5922.0,3225.0 5925.0,3229.0 5926.0,3260.0 C 5927.0,3279.0 5930.0,3303.0 5934.0,3312.0 C 5943.0,3331.0 5909.0,3370.0 5885.0,3370.0 C 5877.0,3370.0 5870.0,3378.0 5870.0,3388.0 C 5870.0,3408.0 5850.0,3465.0 5832.0,3496.0 C 5822.0,3515.0 5814.0,3517.0 5775.0,3513.0 C 5732.0,3508.0 5730.0,3508.0 5730.0,3533.0 C 5730.0,3548.0 5738.0,3567.0 5749.0,3577.0 C 5776.0,3603.0 5786.0,3640.0 5766.0,3640.0 C 5757.0,3640.0 5748.0,3651.0 5744.0,3665.0 C 5741.0,3678.0 5732.0,3694.0 5724.0,3701.0 C 5716.0,3707.0 5710.0,3725.0 5710.0,3740.0 C 5710.0,3774.0 5685.0,3799.0 5668.0,3782.0 C 5659.0,3773.0 5660.0,3761.0 5673.0,3735.0 C 5682.0,3715.0 5690.0,3695.0 5690.0,3690.0 C 5690.0,3672.0 5650.0,3680.0 5633.0,3700.0 C 5623.0,3711.0 5612.0,3720.0 5607.0,3720.0 C 5595.0,3720.0 5561.0,3762.0 5560.0,3778.0 C 5560.0,3784.0 5553.0,3790.0 5545.0,3790.0 C 5534.0,3790.0 5530.0,3801.0 5530.0,3830.0 C 5530.0,3867.0 5528.0,3870.0 5502.0,3870.0 C 5487.0,3870.0 5458.0,3859.0 5437.0,3845.0 C 5417.0,3831.0 5395.0,3822.0 5390.0,3825.0 C 5384.0,3828.0 5380.0,3849.0 5380.0,3871.0 L 5380.0,3910.0 L 5325.0,3910.0 C 5277.0,3910.0 5270.0,3912.0 5270.0,3930.0 C 5270.0,3942.0 5263.0,3950.0 5253.0,3950.0 C 5238.0,3950.0 5239.0,3952.0 5256.0,3964.0 C 5278.0,3981.0 5283.0,4030.0 5262.0,4030.0 C 5254.0,4030.0 5249.0,4039.0 5251.0,4053.0 C 5252.0,4065.0 5248.0,4088.0 5242.0,4103.0 C 5227.0,4139.0 5227.0,4140.0 5247.0,4162.0 C 5262.0,4179.0 5262.0,4180.0 5247.0,4180.0 C 5228.0,4180.0 5229.0,4178.0 5224.0,4245.0 C 5222.0,4279.0 5225.0,4299.0 5236.0,4311.0 C 5246.0,4322.0 5249.0,4337.0 5244.0,4354.0 C 5240.0,4370.0 5242.0,4380.0 5249.0,4380.0 C 5265.0,4380.0 5262.0,4410.0 5245.0,4416.0 C 5224.0,4424.0 5218.0,4454.0 5231.0,4484.0 C 5240.0,4503.0 5240.0,4516.0 5232.0,4533.0 C 5210.0,4578.0 5208.0,4601.0 5225.0,4626.0 C 5235.0,4642.0 5239.0,4661.0 5236.0,4676.0 C 5229.0,4704.0 5232.0,4704.0 5276.0,4688.0 C 5298.0,4680.0 5313.0,4666.0 5319.0,4648.0 C 5336.0,4599.0 5350.0,4611.0 5365.0,4687.0 C 5371.0,4716.0 5370.0,4718.0 5342.0,4716.0 C 5314.0,4714.0 5313.0,4716.0 5320.0,4742.0 C 5327.0,4764.0 5325.0,4770.0 5311.0,4775.0 C 5296.0,4779.0 5294.0,4789.0 5297.0,4823.0 C 5299.0,4846.0 5306.0,4877.0 5312.0,4892.0 C 5317.0,4907.0 5320.0,4923.0 5317.0,4927.0 C 5314.0,4932.0 5322.0,4958.0 5335.0,4985.0 C 5350.0,5016.0 5357.0,5043.0 5353.0,5058.0 C 5348.0,5080.0 5349.0,5081.0 5368.0,5069.0 C 5385.0,5058.0 5392.0,5058.0 5402.0,5068.0 C 5411.0,5077.0 5405.0,5083.0 5376.0,5095.0 C 5356.0,5104.0 5336.0,5118.0 5333.0,5128.0 C 5329.0,5137.0 5320.0,5150.0 5313.0,5155.0 C 5302.0,5163.0 5301.0,5172.0 5310.0,5195.0 C 5316.0,5211.0 5319.0,5233.0 5316.0,5245.0 C 5313.0,5256.0 5315.0,5272.0 5320.0,5279.0 C 5327.0,5291.0 5331.0,5291.0 5344.0,5281.0 C 5353.0,5273.0 5360.0,5262.0 5360.0,5254.0 C 5360.0,5238.0 5396.0,5217.0 5410.0,5225.0 C 5415.0,5228.0 5417.0,5237.0 5413.0,5245.0 C 5404.0,5269.0 5418.0,5294.0 5433.0,5281.0 C 5448.0,5269.0 5470.0,5284.0 5470.0,5306.0 C 5470.0,5312.0 5479.0,5320.0 5490.0,5323.0 C 5516.0,5330.0 5528.0,5360.0 5508.0,5371.0 C 5488.0,5382.0 5488.0,5438.0 5508.0,5472.0 C 5526.0,5503.0 5540.0,5508.0 5540.0,5485.0 C 5540.0,5464.0 5548.0,5466.0 5575.0,5498.0 C 5588.0,5513.0 5597.0,5532.0 5594.0,5542.0 C 5588.0,5563.0 5608.0,5576.0 5616.0,5556.0 C 5623.0,5537.0 5640.0,5536.0 5663.0,5553.0 C 5678.0,5564.0 5678.0,5568.0 5666.0,5592.0 C 5653.0,5617.0 5653.0,5619.0 5673.0,5622.0 C 5685.0,5624.0 5695.0,5632.0 5695.0,5640.0 C 5695.0,5651.0 5683.0,5655.0 5655.0,5656.0 C 5597.0,5658.0 5595.0,5659.0 5606.0,5670.0 C 5612.0,5676.0 5634.0,5681.0 5655.0,5682.0 C 5701.0,5684.0 5731.0,5709.0 5723.0,5740.0 C 5719.0,5757.0 5728.0,5772.0 5765.0,5808.0 L 5813.0,5854.0 L 5832.0,5830.0 C 5850.0,5808.0 5851.0,5808.0 5870.0,5825.0 C 5881.0,5835.0 5892.0,5852.0 5896.0,5864.0 C 5899.0,5875.0 5910.0,5894.0 5920.0,5905.0 C 5930.0,5916.0 5940.0,5938.0 5942.0,5954.0 C 5944.0,5978.0 5951.0,5985.0 5979.0,5992.0 C 6013.0,6001.0 6014.0,6006.0 5995.0,6053.0 C 5991.0,6062.0 5992.0,6070.0 5998.0,6070.0 C 6009.0,6070.0 6060.0,6006.0 6060.0,5992.0 C 6060.0,5986.0 6069.0,5984.0 6080.0,5987.0 C 6094.0,5991.0 6100.0,6001.0 6100.0,6022.0 C 6100.0,6059.0 6135.0,6105.0 6163.0,6105.0 C 6181.0,6105.0 6184.0,6110.0 6182.0,6134.0 C 6179.0,6159.0 6181.0,6162.0 6200.0,6157.0 C 6228.0,6150.0 6250.0,6158.0 6250.0,6177.0 C 6250.0,6185.0 6255.0,6201.0 6261.0,6212.0 C 6272.0,6232.0 6273.0,6232.0 6288.0,6199.0 L 6303.0,6165.0 L 6312.0,6203.0 C 6318.0,6223.0 6328.0,6240.0 6336.0,6240.0 C 6344.0,6240.0 6350.0,6246.0 6350.0,6254.0 C 6350.0,6262.0 6360.0,6270.0 6371.0,6272.0 C 6387.0,6274.0 6396.0,6287.0 6406.0,6318.0 C 6413.0,6342.0 6425.0,6369.0 6433.0,6378.0 C 6449.0,6396.0 6490.0,6504.0 6490.0,6529.0 C 6490.0,6537.0 6519.0,6571.0 6554.0,6604.0 C 6589.0,6638.0 6629.0,6688.0 6644.0,6717.0 C 6672.0,6773.0 6680.0,6814.0 6658.0,6792.0 C 6642.0,6776.0 6630.0,6777.0 6630.0,6795.0 C 6630.0,6803.0 6625.0,6810.0 6620.0,6810.0 C 6614.0,6810.0 6612.0,6820.0 6616.0,6834.0 C 6620.0,6852.0 6617.0,6861.0 6602.0,6869.0 C 6591.0,6875.0 6580.0,6877.0 6578.0,6874.0 C 6575.0,6872.0 6566.0,6880.0 6557.0,6894.0 C 6542.0,6916.0 6542.0,6919.0 6557.0,6924.0 C 6571.0,6930.0 6571.0,6932.0 6556.0,6948.0 C 6547.0,6958.0 6540.0,6971.0 6540.0,6976.0 C 6540.0,6981.0 6531.0,6993.0 6520.0,7003.0 C 6496.0,7023.0 6495.0,7034.0 6515.0,7054.0 C 6523.0,7062.0 6530.0,7076.0 6530.0,7085.0 C 6530.0,7096.0 6535.0,7100.0 6545.0,7097.0 C 6556.0,7092.0 6558.0,7097.0 6553.0,7120.0 C 6548.0,7146.0 6550.0,7150.0 6569.0,7150.0 C 6581.0,7150.0 6589.0,7154.0 6586.0,7159.0 C 6578.0,7171.0 6618.0,7220.0 6636.0,7220.0 C 6647.0,7220.0 6649.0,7226.0 6644.0,7243.0 C 6640.0,7255.0 6637.0,7273.0 6638.0,7283.0 C 6638.0,7293.0 6628.0,7324.0 6614.0,7353.0 C 6601.0,7382.0 6590.0,7414.0 6590.0,7426.0 C 6590.0,7449.0 6622.0,7484.0 6633.0,7473.0 C 6637.0,7470.0 6640.0,7471.0 6640.0,7477.0 C 6640.0,7484.0 6655.0,7486.0 6679.0,7483.0 C 6741.0,7475.0 6785.0,7524.0 6740.0,7552.0 C 6711.0,7571.0 6716.0,7580.0 6754.0,7580.0 C 6773.0,7580.0 6792.0,7585.0 6795.0,7590.0 C 6798.0,7596.0 6816.0,7600.0 6834.0,7600.0 L 6867.0,7600.0 L 6856.0,7635.0 C 6849.0,7657.0 6842.0,7666.0 6836.0,7660.0 C 6830.0,7654.0 6822.0,7650.0 6818.0,7650.0 C 6806.0,7650.0 6808.0,7698.0 6820.0,7705.0 C 6826.0,7708.0 6830.0,7706.0 6830.0,7700.0 C 6830.0,7694.0 6834.0,7691.0 6838.0,7694.0 C 6843.0,7697.0 6847.0,7719.0 6847.0,7744.0 C 6848.0,7800.0 6856.0,7815.0 6876.0,7799.0 C 6884.0,7793.0 6890.0,7782.0 6890.0,7774.0 C 6890.0,7759.0 6925.0,7746.0 6941.0,7756.0 C 6948.0,7760.0 6950.0,7780.0 6947.0,7806.0 C 6945.0,7830.0 6945.0,7852.0 6948.0,7855.0 C 6957.0,7864.0 6990.0,7828.0 6990.0,7809.0 C 6990.0,7799.0 6995.0,7788.0 7000.0,7785.0 C 7006.0,7782.0 7010.0,7768.0 7010.0,7756.0 C 7010.0,7729.0 7039.0,7697.0 7041.0,7721.0 C 7042.0,7729.0 7042.0,7738.0 7041.0,7743.0 C 7041.0,7747.0 7047.0,7750.0 7055.0,7750.0 C 7064.0,7750.0 7070.0,7741.0 7070.0,7728.0 C 7070.0,7705.0 7070.0,7705.0 7090.0,7730.0 C 7101.0,7744.0 7110.0,7770.0 7110.0,7788.0 C 7110.0,7817.0 7113.0,7821.0 7130.0,7816.0 C 7141.0,7813.0 7159.0,7807.0 7170.0,7804.0 C 7198.0,7796.0 7327.0,7819.0 7363.0,7837.0 C 7384.0,7848.0 7390.0,7856.0 7384.0,7868.0 C 7380.0,7877.0 7370.0,7905.0 7361.0,7930.0 C 7352.0,7955.0 7339.0,7985.0 7332.0,7997.0 C 7325.0,8009.0 7320.0,8028.0 7320.0,8040.0 C 7320.0,8053.0 7308.0,8066.0 7285.0,8077.0 C 7245.0,8096.0 7217.0,8146.0 7203.0,8225.0 C 7195.0,8270.0 7197.0,8281.0 7223.0,8335.0 C 7250.0,8390.0 7252.0,8400.0 7247.0,8472.0 C 7243.0,8520.0 7244.0,8550.0 7250.0,8550.0 C 7265.0,8550.0 7261.0,8581.0 7242.0,8616.0 C 7233.0,8633.0 7214.0,8667.0 7201.0,8691.0 C 7188.0,8715.0 7175.0,8737.0 7171.0,8740.0 C 7155.0,8753.0 7120.0,8831.0 7120.0,8854.0 C 7120.0,8873.0 7127.0,8883.0 7146.0,8891.0 C 7172.0,8900.0 7172.0,8903.0 7166.0,8957.0 C 7158.0,9026.0 7151.0,9036.0 7099.0,9044.0 C 7060.0,9050.0 7059.0,9051.0 7065.0,9083.0 C 7068.0,9100.0 7076.0,9125.0 7083.0,9138.0 C 7092.0,9156.0 7091.0,9168.0 7079.0,9193.0 C 7041.0,9271.0 7040.0,9303.0 7077.0,9372.0 C 7089.0,9396.0 7089.0,9403.0 7076.0,9427.0 C 7068.0,9442.0 7050.0,9465.0 7036.0,9477.0 C 7022.0,9490.0 7010.0,9509.0 7010.0,9520.0 C 7010.0,9540.0 7001.0,9544.0 6969.0,9541.0 C 6957.0,9540.0 6950.0,9550.0 6945.0,9577.0 C 6935.0,9632.0 6913.0,9669.0 6882.0,9683.0 C 6867.0,9689.0 6853.0,9697.0 6850.0,9701.0 C 6838.0,9716.0 6759.0,9750.0 6735.0,9750.0 C 6721.0,9750.0 6710.0,9755.0 6710.0,9760.0 C 6710.0,9766.0 6699.0,9770.0 6685.0,9770.0 C 6647.0,9770.0 6602.0,9796.0 6586.0,9829.0 C 6577.0,9845.0 6560.0,9860.0 6546.0,9864.0 C 6532.0,9867.0 6519.0,9879.0 6515.0,9889.0 C 6512.0,9900.0 6494.0,9918.0 6475.0,9929.0 C 6456.0,9940.0 6440.0,9956.0 6440.0,9965.0 C 6440.0,9973.0 6423.0,9990.0 6402.0,10004.0 C 6382.0,10017.0 6359.0,10035.0 6351.0,10044.0 C 6343.0,10053.0 6323.0,10060.0 6303.0,10060.0 C 6273.0,10060.0 6269.0,10063.0 6275.0,10078.0 C 6291.0,10117.0 6292.0,10131.0 6276.0,10155.0 C 6267.0,10168.0 6260.0,10188.0 6260.0,10198.0 C 6260.0,10216.0 6242.0,10240.0 6228.0,10240.0 C 6224.0,10240.0 6220.0,10235.0 6220.0,10230.0" fill="pink"/>
	<path d="M 5977.0,1910.0 C 5956.0,1886.0 5943.0,1880.0 5912.0,1880.0 C 5881.0,1880.0 5871.0,1876.0 5867.0,1860.0 C 5864.0,1849.0 5857.0,1840.0 5851.0,1840.0 C 5845.0,1840.0 5840.0,1849.0 5840.0,1860.0 C 5840.0,1886.0 5806.0,1887.0 5788.0,1861.0 C 5781.0,1851.0 5760.0,1835.0 5742.0,1826.0 C 5718.0,1814.0 5702.0,1793.0 5680.0,1744.0 C 5661.0,1702.0 5635.0,1664.0 5608.0,1640.0 C 5565.0,1602.0 5565.0,1602.0 5579.0,1569.0 C 5601.0,1515.0 5605.0,1439.0 5586.0,1428.0 C 5566.0,1417.0 5565.0,1394.0 5584.0,1383.0 C 5596.0,1376.0 5607.0,1339.0 5614.0,1280.0 C 5615.0,1266.0 5624.0,1254.0 5633.0,1252.0 C 5651.0,1248.0 5657.0,1230.0 5639.0,1230.0 C 5634.0,1230.0 5623.0,1215.0 5615.0,1196.0 C 5607.0,1177.0 5596.0,1158.0 5590.0,1155.0 C 5571.0,1143.0 5591.0,1130.0 5629.0,1130.0 C 5673.0,1130.0 5690.0,1155.0 5683.0,1207.0 C 5679.0,1229.0 5684.0,1244.0 5697.0,1257.0 C 5708.0,1268.0 5715.0,1281.0 5713.0,1286.0 C 5708.0,1301.0 5785.0,1360.0 5809.0,1360.0 C 5839.0,1360.0 5846.0,1381.0 5820.0,1400.0 C 5799.0,1415.0 5799.0,1418.0 5815.0,1433.0 C 5824.0,1442.0 5851.0,1462.0 5876.0,1476.0 C 5900.0,1490.0 5920.0,1506.0 5920.0,1511.0 C 5920.0,1516.0 5907.0,1526.0 5892.0,1534.0 C 5850.0,1556.0 5835.0,1577.0 5849.0,1594.0 C 5856.0,1602.0 5860.0,1623.0 5859.0,1642.0 C 5854.0,1707.0 5859.0,1730.0 5878.0,1730.0 C 5899.0,1730.0 5920.0,1748.0 5920.0,1767.0 C 5920.0,1775.0 5936.0,1794.0 5955.0,1811.0 C 5974.0,1828.0 5990.0,1848.0 5990.0,1856.0 C 5990.0,1864.0 6001.0,1880.0 6014.0,1891.0 C 6039.0,1912.0 6039.0,1940.0 6015.0,1940.0 C 6008.0,1940.0 5990.0,1927.0 5977.0,1910.0" fill="pink"/>
	<path d="M 5112.0,1438.0 C 5101.0,1414.0 5082.0,1359.0 5070.0,1315.0 C 5048.0,1233.0 4989.0,1114.0 4960.0,1093.0 C 4945.0,1082.0 4937.0,1066.0 4876.0,926.0 C 4849.0,864.0 4841.0,783.0 4861.0,763.0 C 4868.0,756.0 4871.0,725.0 4868.0,681.0 C 4864.0,612.0 4865.0,611.0 4885.0,624.0 C 4914.0,643.0 4939.0,699.0 4940.0,746.0 C 4940.0,784.0 4954.0,832.0 4994.0,935.0 C 5002.0,957.0 5009.0,984.0 5010.0,996.0 C 5010.0,1008.0 5020.0,1032.0 5033.0,1051.0 C 5061.0,1093.0 5077.0,1134.0 5083.0,1182.0 C 5086.0,1203.0 5102.0,1248.0 5119.0,1284.0 C 5136.0,1319.0 5150.0,1359.0 5150.0,1373.0 C 5150.0,1386.0 5159.0,1409.0 5170.0,1422.0 C 5189.0,1446.0 5189.0,1448.0 5171.0,1464.0 C 5144.0,1488.0 5135.0,1484.0 5112.0,1438.0" fill="pink"/>
</svg>
