<?xml version="1.0" ?>
<svg xmlns="http://www.w3.org/2000/svg" xmlns:ev="http://www.w3.org/2001/xml-events" xmlns:xlink="http://www.w3.org/1999/xlink" baseProfile="full" height="349px" version="1.1" viewBox="-1031.2650458409523 1552.857928350878 12299.973333880436 7135.169740205242" width="600px">
	<defs/>
	<path d="M 5305.0,8075.0 C 5134.0,8062.0 4775.0,8013.0 4646.0,7984.0 C 4559.0,7965.0 4538.0,7954.0 4438.0,7874.0 C 4352.0,7804.0 4341.0,7801.0 4248.0,7825.0 C 4226.0,7831.0 4214.0,7825.0 4178.0,7792.0 C 4155.0,7771.0 4122.0,7746.0 4105.0,7737.0 C 4089.0,7729.0 4017.0,7659.0 3945.0,7582.0 L 3815.0,7443.0 L 3685.0,7437.0 C 3614.0,7433.0 3537.0,7427.0 3514.0,7424.0 C 3474.0,7418.0 3473.0,7419.0 3424.0,7479.0 C 3371.0,7545.0 3337.0,7558.0 3326.0,7517.0 C 3320.0,7490.0 3282.0,7470.0 3237.0,7470.0 C 3219.0,7470.0 3198.0,7465.0 3190.0,7460.0 C 3179.0,7453.0 3193.0,7450.0 3235.0,7450.0 L 3295.0,7450.0 L 3353.0,7360.0 C 3384.0,7311.0 3410.0,7260.0 3410.0,7246.0 C 3410.0,7213.0 3419.0,7213.0 3465.0,7250.0 C 3505.0,7282.0 3540.0,7289.0 3540.0,7266.0 C 3540.0,7256.0 3527.0,7250.0 3503.0,7248.0 C 3477.0,7246.0 3465.0,7240.0 3465.0,7230.0 C 3465.0,7222.0 3445.0,7205.0 3420.0,7192.0 C 3366.0,7164.0 3270.0,7072.0 3270.0,7049.0 C 3270.0,7036.0 3258.0,7030.0 3220.0,7025.0 C 3186.0,7020.0 3166.0,7012.0 3160.0,6999.0 C 3150.0,6982.0 3153.0,6980.0 3197.0,6983.0 C 3242.0,6985.0 3245.0,6983.0 3262.0,6950.0 C 3271.0,6931.0 3279.0,6912.0 3280.0,6908.0 C 3280.0,6892.0 3237.0,6901.0 3213.0,6920.0 C 3199.0,6931.0 3181.0,6940.0 3173.0,6940.0 C 3149.0,6940.0 3086.0,6903.0 3055.0,6870.0 C 3021.0,6833.0 2957.0,6790.0 2937.0,6790.0 C 2912.0,6790.0 2890.0,6754.0 2890.0,6716.0 C 2890.0,6668.0 2903.0,6644.0 2940.0,6625.0 C 2965.0,6612.0 3000.0,6565.0 3000.0,6545.0 C 3000.0,6541.0 2983.0,6552.0 2963.0,6569.0 C 2924.0,6601.0 2880.0,6609.0 2863.0,6588.0 C 2857.0,6581.0 2850.0,6533.0 2848.0,6482.0 C 2842.0,6375.0 2839.0,6371.0 2751.0,6320.0 C 2698.0,6289.0 2689.0,6280.0 2681.0,6245.0 L 2672.0,6205.0 L 2671.0,6238.0 C 2670.0,6276.0 2697.0,6321.0 2747.0,6364.0 C 2774.0,6387.0 2780.0,6399.0 2778.0,6423.0 C 2776.0,6446.0 2769.0,6456.0 2750.0,6461.0 C 2735.0,6465.0 2732.0,6468.0 2742.0,6469.0 C 2766.0,6470.0 2783.0,6505.0 2791.0,6573.0 C 2795.0,6605.0 2805.0,6639.0 2814.0,6649.0 C 2831.0,6667.0 2835.0,6707.0 2822.0,6726.0 C 2802.0,6756.0 2734.0,6770.0 2713.0,6749.0 C 2690.0,6726.0 2656.0,6745.0 2617.0,6803.0 C 2595.0,6835.0 2570.0,6860.0 2560.0,6860.0 C 2551.0,6860.0 2518.0,6833.0 2488.0,6800.0 C 2426.0,6732.0 2405.0,6723.0 2422.0,6770.0 C 2430.0,6796.0 2429.0,6804.0 2415.0,6820.0 C 2397.0,6840.0 2397.0,6840.0 2429.0,6829.0 C 2459.0,6818.0 2464.0,6820.0 2495.0,6850.0 C 2525.0,6879.0 2533.0,6882.0 2566.0,6876.0 C 2590.0,6871.0 2617.0,6855.0 2643.0,6828.0 C 2680.0,6791.0 2686.0,6788.0 2719.0,6795.0 C 2739.0,6799.0 2778.0,6803.0 2806.0,6804.0 C 2854.0,6805.0 2858.0,6807.0 2912.0,6868.0 C 2943.0,6903.0 2970.0,6941.0 2972.0,6953.0 C 2974.0,6970.0 2987.0,6978.0 3031.0,6990.0 C 3074.0,7002.0 3098.0,7016.0 3136.0,7055.0 C 3215.0,7133.0 3240.0,7172.0 3240.0,7213.0 C 3240.0,7245.0 3236.0,7251.0 3213.0,7256.0 C 3197.0,7260.0 3177.0,7272.0 3166.0,7282.0 C 3148.0,7301.0 3137.0,7301.0 3096.0,7285.0 C 3082.0,7279.0 3078.0,7281.0 3082.0,7291.0 C 3089.0,7311.0 3155.0,7314.0 3182.0,7296.0 C 3218.0,7270.0 3230.0,7276.0 3230.0,7319.0 C 3230.0,7341.0 3226.0,7362.0 3220.0,7365.0 C 3215.0,7368.0 3210.0,7379.0 3210.0,7389.0 C 3210.0,7403.0 3204.0,7406.0 3186.0,7403.0 C 3148.0,7395.0 3141.0,7435.0 3174.0,7469.0 C 3224.0,7521.0 3210.0,7553.0 3072.0,7706.0 C 2989.0,7798.0 2977.0,7807.0 2930.0,7818.0 C 2860.0,7834.0 2821.0,7833.0 2705.0,7811.0 C 2573.0,7786.0 2518.0,7764.0 2380.0,7682.0 C 2224.0,7591.0 2090.0,7489.0 2061.0,7441.0 L 2036.0,7402.0 L 1931.0,7396.0 C 1858.0,7391.0 1809.0,7383.0 1775.0,7369.0 C 1748.0,7357.0 1696.0,7342.0 1660.0,7335.0 C 1566.0,7317.0 1511.0,7284.0 1484.0,7229.0 C 1472.0,7205.0 1441.0,7113.0 1416.0,7025.0 C 1381.0,6907.0 1362.0,6858.0 1342.0,6837.0 C 1315.0,6808.0 1265.0,6790.0 1214.0,6790.0 C 1197.0,6790.0 1178.0,6784.0 1173.0,6778.0 C 1150.0,6747.0 1130.0,6636.0 1130.0,6538.0 C 1130.0,6450.0 1126.0,6422.0 1099.0,6343.0 C 1074.0,6267.0 1063.0,6248.0 1035.0,6229.0 C 991.0,6199.0 987.0,6178.0 1015.0,6137.0 C 1027.0,6118.0 1041.0,6091.0 1047.0,6075.0 L 1056.0,6047.0 L 1084.0,6074.0 C 1100.0,6088.0 1123.0,6100.0 1136.0,6100.0 C 1153.0,6100.0 1165.0,6110.0 1178.0,6136.0 C 1192.0,6164.0 1199.0,6170.0 1206.0,6159.0 C 1210.0,6151.0 1214.0,6136.0 1215.0,6125.0 C 1215.0,6110.0 1223.0,6104.0 1247.0,6102.0 C 1267.0,6100.0 1284.0,6091.0 1290.0,6079.0 C 1304.0,6053.0 1313.0,6055.0 1349.0,6090.0 C 1372.0,6114.0 1381.0,6117.0 1387.0,6106.0 C 1391.0,6099.0 1412.0,6074.0 1432.0,6051.0 C 1465.0,6016.0 1473.0,6012.0 1494.0,6020.0 C 1525.0,6031.0 1540.0,6076.0 1542.0,6163.0 C 1544.0,6204.0 1548.0,6229.0 1555.0,6227.0 C 1560.0,6225.0 1564.0,6212.0 1563.0,6199.0 C 1559.0,6154.0 1571.0,6111.0 1595.0,6081.0 C 1610.0,6064.0 1618.0,6045.0 1614.0,6036.0 C 1606.0,6016.0 1590.0,6025.0 1590.0,6051.0 C 1590.0,6073.0 1581.0,6075.0 1556.0,6057.0 C 1537.0,6043.0 1533.0,6013.0 1544.0,5965.0 C 1550.0,5938.0 1549.0,5937.0 1539.0,5958.0 C 1525.0,5984.0 1510.0,5987.0 1509.0,5963.0 C 1509.0,5947.0 1507.0,5948.0 1499.0,5965.0 C 1492.0,5978.0 1470.0,5990.0 1437.0,5999.0 C 1332.0,6026.0 1326.0,6026.0 1292.0,5984.0 C 1263.0,5949.0 1262.0,5946.0 1277.0,5924.0 C 1286.0,5910.0 1302.0,5900.0 1316.0,5900.0 C 1332.0,5900.0 1338.0,5896.0 1334.0,5885.0 C 1331.0,5877.0 1337.0,5855.0 1349.0,5837.0 C 1364.0,5813.0 1370.0,5786.0 1370.0,5749.0 C 1370.0,5662.0 1355.0,5663.0 1342.0,5751.0 C 1326.0,5852.0 1324.0,5856.0 1290.0,5870.0 C 1258.0,5883.0 1240.0,5877.0 1240.0,5852.0 C 1240.0,5843.0 1226.0,5829.0 1209.0,5821.0 C 1173.0,5805.0 1159.0,5813.0 1189.0,5832.0 C 1201.0,5839.0 1210.0,5855.0 1210.0,5867.0 C 1210.0,5879.0 1215.0,5892.0 1220.0,5895.0 C 1234.0,5904.0 1233.0,5930.0 1218.0,5930.0 C 1211.0,5930.0 1194.0,5941.0 1180.0,5955.0 L 1154.0,5980.0 L 1117.0,5954.0 C 1097.0,5941.0 1080.0,5923.0 1080.0,5915.0 C 1080.0,5906.0 1070.0,5900.0 1056.0,5900.0 C 1043.0,5900.0 1030.0,5893.0 1026.0,5885.0 C 1022.0,5874.0 1006.0,5870.0 971.0,5870.0 C 873.0,5870.0 869.0,5888.0 936.0,6021.0 C 961.0,6072.0 980.0,6122.0 978.0,6136.0 C 976.0,6154.0 957.0,6126.0 901.0,6024.0 C 845.0,5924.0 820.0,5888.0 803.0,5884.0 C 765.0,5874.0 751.0,5846.0 764.0,5805.0 C 775.0,5769.0 784.0,5762.0 795.0,5780.0 C 800.0,5788.0 847.0,5784.0 858.0,5774.0 C 860.0,5773.0 852.0,5762.0 841.0,5751.0 C 819.0,5729.0 814.0,5695.0 829.0,5671.0 C 835.0,5662.0 840.0,5661.0 844.0,5669.0 C 848.0,5675.0 856.0,5680.0 861.0,5680.0 C 867.0,5680.0 859.0,5669.0 844.0,5657.0 L 816.0,5633.0 L 839.0,5602.0 C 852.0,5584.0 870.0,5570.0 882.0,5570.0 C 897.0,5570.0 900.0,5566.0 894.0,5553.0 C 886.0,5534.0 886.0,5510.0 892.0,5475.0 C 894.0,5462.0 889.0,5455.0 880.0,5455.0 C 869.0,5455.0 864.0,5468.0 862.0,5502.0 C 860.0,5537.0 854.0,5550.0 841.0,5555.0 C 830.0,5558.0 820.0,5570.0 817.0,5580.0 C 813.0,5596.0 803.0,5600.0 766.0,5600.0 C 739.0,5600.0 720.0,5605.0 720.0,5611.0 C 720.0,5617.0 711.0,5620.0 700.0,5617.0 C 689.0,5614.0 678.0,5615.0 676.0,5619.0 C 671.0,5627.0 693.0,5698.0 712.0,5734.0 C 734.0,5778.0 700.0,5732.0 635.0,5631.0 C 599.0,5574.0 571.0,5522.0 574.0,5514.0 C 577.0,5505.0 567.0,5499.0 542.0,5495.0 C 522.0,5491.0 500.0,5487.0 495.0,5485.0 C 489.0,5484.0 476.0,5429.0 466.0,5364.0 L 448.0,5245.0 L 365.0,5110.0 C 241.0,4907.0 180.0,4748.0 64.0,4326.0 L -2.0,4086.0 L 20.0,4070.0 C 32.0,4061.0 105.0,4015.0 183.0,3968.0 C 364.0,3859.0 501.0,3813.0 512.0,3858.0 C 523.0,3900.0 497.0,3941.0 386.0,4057.0 L 272.0,4176.0 L 317.0,4239.0 L 362.0,4301.0 L 300.0,4358.0 C 265.0,4389.0 231.0,4419.0 224.0,4423.0 C 213.0,4429.0 215.0,4441.0 236.0,4482.0 L 262.0,4532.0 L 293.0,4503.0 C 311.0,4487.0 374.0,4429.0 434.0,4376.0 L 543.0,4279.0 L 615.0,4350.0 L 687.0,4422.0 L 709.0,4391.0 L 731.0,4360.0 L 660.0,4280.0 L 590.0,4199.0 L 627.0,4155.0 C 647.0,4130.0 667.0,4110.0 669.0,4110.0 C 672.0,4110.0 709.0,4144.0 751.0,4186.0 C 822.0,4256.0 829.0,4261.0 849.0,4249.0 C 860.0,4241.0 870.0,4228.0 870.0,4220.0 C 870.0,4212.0 824.0,4159.0 768.0,4103.0 L 667.0,4001.0 L 693.0,3961.0 C 721.0,3920.0 734.0,3912.0 745.0,3930.0 C 748.0,3936.0 758.0,3940.0 767.0,3940.0 C 780.0,3940.0 779.0,3935.0 760.0,3915.0 C 729.0,3881.0 741.0,3872.0 780.0,3900.0 C 806.0,3919.0 814.0,3920.0 821.0,3909.0 C 833.0,3889.0 832.0,3877.0 814.0,3852.0 C 799.0,3830.0 801.0,3827.0 886.0,3734.0 L 973.0,3639.0 L 1021.0,3686.0 L 1068.0,3732.0 L 1085.0,3707.0 C 1101.0,3682.0 1101.0,3679.0 1079.0,3640.0 C 1064.0,3613.0 1060.0,3596.0 1066.0,3590.0 C 1078.0,3578.0 1326.0,3786.0 1324.0,3805.0 C 1323.0,3812.0 1297.0,3851.0 1266.0,3892.0 C 1211.0,3965.0 1210.0,3968.0 1210.0,4033.0 L 1210.0,4100.0 L 1260.0,4100.0 L 1310.0,4100.0 L 1310.0,4043.0 C 1310.0,3987.0 1313.0,3982.0 1370.0,3910.0 C 1403.0,3869.0 1433.0,3834.0 1437.0,3833.0 C 1442.0,3832.0 1468.0,3843.0 1495.0,3858.0 L 1545.0,3885.0 L 1546.0,4003.0 C 1547.0,4114.0 1557.0,4159.0 1575.0,4130.0 C 1579.0,4124.0 1585.0,4072.0 1587.0,4016.0 L 1593.0,3913.0 L 1671.0,3907.0 C 1728.0,3902.0 1761.0,3905.0 1794.0,3916.0 L 1840.0,3932.0 L 1840.0,3999.0 C 1840.0,4077.0 1850.0,4092.0 1916.0,4109.0 C 1963.0,4121.0 1990.0,4115.0 1990.0,4093.0 C 1990.0,4085.0 2010.0,4055.0 2035.0,4027.0 C 2060.0,3998.0 2080.0,3965.0 2080.0,3953.0 C 2080.0,3931.0 2084.0,3930.0 2150.0,3930.0 L 2220.0,3930.0 L 2240.0,3970.0 C 2251.0,3991.0 2260.0,4020.0 2260.0,4033.0 C 2260.0,4051.0 2273.0,4064.0 2324.0,4092.0 L 2387.0,4127.0 L 2451.0,4082.0 C 2486.0,4058.0 2536.0,4018.0 2562.0,3994.0 C 2606.0,3953.0 2719.0,3875.0 2724.0,3882.0 C 2750.0,3916.0 2760.0,3940.0 2760.0,3967.0 L 2760.0,4000.0 L 2700.0,4000.0 C 2627.0,4000.0 2624.0,4010.0 2680.0,4065.0 C 2722.0,4106.0 2732.0,4144.0 2708.0,4169.0 C 2697.0,4179.0 2698.0,4180.0 2711.0,4175.0 C 2722.0,4171.0 2735.0,4179.0 2750.0,4199.0 C 2770.0,4228.0 2800.0,4241.0 2800.0,4221.0 C 2800.0,4216.0 2788.0,4198.0 2774.0,4181.0 L 2748.0,4150.0 L 2765.0,4095.0 C 2780.0,4042.0 2782.0,4040.0 2815.0,4040.0 C 2843.0,4040.0 2850.0,4036.0 2850.0,4020.0 C 2850.0,4007.0 2840.0,3996.0 2825.0,3990.0 C 2803.0,3982.0 2802.0,3978.0 2811.0,3951.0 C 2817.0,3935.0 2830.0,3914.0 2840.0,3905.0 C 2862.0,3885.0 2952.0,3860.0 3005.0,3860.0 C 3034.0,3860.0 3049.0,3855.0 3058.0,3840.0 C 3081.0,3803.0 3153.0,3819.0 3164.0,3864.0 C 3170.0,3887.0 3173.0,3888.0 3199.0,3879.0 C 3226.0,3870.0 3228.0,3866.0 3218.0,3845.0 C 3188.0,3780.0 3247.0,3732.0 3367.0,3724.0 C 3434.0,3719.0 3450.0,3721.0 3476.0,3738.0 C 3493.0,3749.0 3513.0,3772.0 3521.0,3788.0 C 3534.0,3818.0 3535.0,3818.0 3611.0,3817.0 C 3687.0,3815.0 3687.0,3815.0 3673.0,3793.0 C 3664.0,3779.0 3661.0,3762.0 3665.0,3748.0 C 3675.0,3717.0 3761.0,3600.0 3774.0,3600.0 C 3780.0,3600.0 3812.0,3574.0 3845.0,3541.0 C 3885.0,3502.0 3924.0,3475.0 3962.0,3461.0 C 4011.0,3441.0 4021.0,3433.0 4035.0,3397.0 C 4058.0,3337.0 4110.0,3289.0 4190.0,3250.0 C 4243.0,3224.0 4260.0,3211.0 4260.0,3196.0 C 4260.0,3130.0 4390.0,3073.0 4516.0,3083.0 C 4596.0,3090.0 4600.0,3087.0 4600.0,3026.0 C 4600.0,2990.0 4634.0,2950.0 4665.0,2950.0 C 4675.0,2950.0 4719.0,2913.0 4763.0,2868.0 C 4836.0,2792.0 4844.0,2787.0 4848.0,2809.0 C 4850.0,2822.0 4835.0,2880.0 4815.0,2937.0 C 4795.0,2995.0 4780.0,3043.0 4782.0,3046.0 C 4785.0,3048.0 4818.0,3012.0 4856.0,2965.0 C 4916.0,2891.0 4929.0,2880.0 4957.0,2880.0 C 4979.0,2880.0 5001.0,2890.0 5023.0,2910.0 C 5054.0,2937.0 5065.0,2940.0 5123.0,2940.0 C 5193.0,2940.0 5199.0,2936.0 5209.0,2886.0 C 5216.0,2853.0 5224.0,2848.0 5328.0,2806.0 C 5403.0,2775.0 5416.0,2779.0 5492.0,2847.0 C 5521.0,2874.0 5560.0,2906.0 5578.0,2918.0 C 5595.0,2931.0 5610.0,2948.0 5610.0,2957.0 C 5610.0,2968.0 5615.0,2970.0 5628.0,2964.0 C 5637.0,2959.0 5682.0,2954.0 5728.0,2952.0 C 5791.0,2949.0 5810.0,2945.0 5810.0,2934.0 C 5810.0,2923.0 5791.0,2920.0 5719.0,2920.0 C 5651.0,2920.0 5629.0,2917.0 5632.0,2908.0 C 5637.0,2895.0 5663.0,2888.0 5766.0,2872.0 C 5824.0,2863.0 5870.0,2837.0 5870.0,2814.0 C 5870.0,2797.0 5914.0,2750.0 5930.0,2750.0 C 5937.0,2750.0 5939.0,2763.0 5934.0,2786.0 C 5923.0,2843.0 5949.0,2825.0 5997.0,2740.0 C 6027.0,2687.0 6041.0,2670.0 6045.0,2682.0 C 6049.0,2691.0 6047.0,2708.0 6041.0,2719.0 C 6031.0,2737.0 6034.0,2741.0 6060.0,2755.0 C 6076.0,2763.0 6090.0,2774.0 6090.0,2778.0 C 6089.0,2782.0 6081.0,2824.0 6071.0,2872.0 C 6050.0,2974.0 6054.0,2986.0 6115.0,2995.0 C 6154.0,3001.0 6156.0,3000.0 6178.0,2960.0 C 6204.0,2915.0 6281.0,2860.0 6321.0,2860.0 C 6340.0,2860.0 6370.0,2885.0 6446.0,2963.0 C 6502.0,3019.0 6560.0,3085.0 6577.0,3110.0 C 6594.0,3135.0 6617.0,3164.0 6629.0,3174.0 C 6641.0,3185.0 6661.0,3211.0 6672.0,3232.0 C 6688.0,3259.0 6700.0,3270.0 6717.0,3270.0 C 6741.0,3270.0 6793.0,3292.0 6820.0,3315.0 C 6828.0,3321.0 6860.0,3335.0 6890.0,3344.0 C 6920.0,3354.0 6961.0,3374.0 6980.0,3389.0 C 6999.0,3404.0 7056.0,3433.0 7106.0,3454.0 L 7197.0,3492.0 L 7299.0,3477.0 C 7400.0,3462.0 7401.0,3462.0 7473.0,3486.0 C 7513.0,3500.0 7606.0,3525.0 7679.0,3541.0 C 7792.0,3567.0 7823.0,3578.0 7872.0,3612.0 C 7986.0,3689.0 8163.0,3736.0 8390.0,3750.0 C 8514.0,3758.0 8530.0,3761.0 8581.0,3789.0 C 8631.0,3816.0 8651.0,3821.0 8736.0,3826.0 C 8801.0,3829.0 8886.0,3844.0 8984.0,3868.0 C 9132.0,3905.0 9134.0,3905.0 9178.0,3953.0 C 9203.0,3979.0 9246.0,4013.0 9274.0,4029.0 C 9302.0,4046.0 9368.0,4094.0 9420.0,4138.0 C 9528.0,4228.0 9568.0,4251.0 9598.0,4243.0 C 9610.0,4240.0 9650.0,4243.0 9687.0,4250.0 C 9774.0,4265.0 9839.0,4313.0 9925.0,4427.0 C 9982.0,4502.0 9990.0,4520.0 10029.0,4652.0 C 10053.0,4730.0 10091.0,4849.0 10115.0,4915.0 C 10146.0,5002.0 10161.0,5064.0 10170.0,5140.0 C 10177.0,5201.0 10195.0,5282.0 10212.0,5334.0 C 10239.0,5411.0 10242.0,5432.0 10238.0,5504.0 C 10234.0,5582.0 10232.0,5589.0 10193.0,5640.0 L 10152.0,5694.0 L 10169.0,5729.0 C 10199.0,5788.0 10212.0,5838.0 10206.0,5868.0 C 10200.0,5891.0 10187.0,5900.0 10102.0,5934.0 C 10004.0,5974.0 9949.0,5982.0 9886.0,5965.0 C 9853.0,5956.0 9845.0,5965.0 9829.0,6027.0 C 9820.0,6062.0 9813.0,6070.0 9788.0,6075.0 C 9742.0,6085.0 9633.0,6061.0 9600.0,6034.0 C 9585.0,6021.0 9567.0,6010.0 9560.0,6010.0 C 9551.0,6010.0 9551.0,6006.0 9557.0,5998.0 C 9575.0,5975.0 9581.0,5921.0 9566.0,5913.0 C 9559.0,5909.0 9551.0,5895.0 9548.0,5883.0 C 9543.0,5866.0 9546.0,5860.0 9559.0,5860.0 C 9598.0,5860.0 9616.0,5807.0 9580.0,5797.0 C 9568.0,5794.0 9560.0,5797.0 9560.0,5805.0 C 9560.0,5823.0 9534.0,5831.0 9502.0,5824.0 C 9487.0,5820.0 9439.0,5800.0 9394.0,5780.0 C 9303.0,5738.0 9248.0,5724.0 9141.0,5714.0 C 9100.0,5711.0 9049.0,5699.0 9026.0,5689.0 C 8965.0,5661.0 8926.0,5664.0 8901.0,5698.0 C 8878.0,5730.0 8838.0,5745.0 8717.0,5764.0 C 8672.0,5772.0 8613.0,5788.0 8588.0,5800.0 C 8540.0,5822.0 8438.0,5922.0 8404.0,5979.0 C 8392.0,6000.0 8376.0,6010.0 8351.0,6015.0 C 8331.0,6019.0 8304.0,6028.0 8291.0,6037.0 C 8273.0,6049.0 8247.0,6051.0 8179.0,6048.0 C 8098.0,6044.0 8088.0,6041.0 8060.0,6015.0 C 8044.0,5999.0 8027.0,5977.0 8024.0,5966.0 C 8021.0,5954.0 8007.0,5929.0 7993.0,5909.0 C 7964.0,5865.0 7904.0,5845.0 7849.0,5860.0 C 7770.0,5883.0 7724.0,5862.0 7668.0,5776.0 L 7640.0,5735.0 L 7676.0,5699.0 C 7715.0,5659.0 7714.0,5645.0 7672.0,5629.0 C 7644.0,5618.0 7630.0,5630.0 7630.0,5666.0 C 7630.0,5688.0 7595.0,5710.0 7560.0,5710.0 C 7550.0,5710.0 7534.0,5700.0 7526.0,5688.0 C 7515.0,5673.0 7510.0,5671.0 7510.0,5680.0 C 7511.0,5702.0 7529.0,5721.0 7586.0,5759.0 C 7620.0,5782.0 7645.0,5808.0 7659.0,5836.0 C 7687.0,5894.0 7712.0,5908.0 7811.0,5921.0 C 7904.0,5933.0 7933.0,5954.0 7946.0,6016.0 C 7950.0,6040.0 7964.0,6056.0 8000.0,6079.0 C 8027.0,6097.0 8052.0,6121.0 8056.0,6133.0 C 8060.0,6145.0 8070.0,6166.0 8079.0,6179.0 C 8088.0,6193.0 8100.0,6229.0 8106.0,6259.0 C 8117.0,6313.0 8117.0,6317.0 8087.0,6370.0 C 8070.0,6400.0 8028.0,6458.0 7992.0,6498.0 C 7913.0,6588.0 7905.0,6620.0 7944.0,6705.0 C 7958.0,6737.0 7970.0,6775.0 7970.0,6791.0 C 7970.0,6818.0 7967.0,6820.0 7931.0,6820.0 C 7910.0,6820.0 7866.0,6823.0 7833.0,6826.0 L 7772.0,6833.0 L 7737.0,6777.0 C 7717.0,6746.0 7687.0,6714.0 7671.0,6705.0 C 7627.0,6683.0 7600.0,6624.0 7600.0,6549.0 L 7600.0,6488.0 L 7503.0,6495.0 L 7405.0,6502.0 L 7371.0,6466.0 C 7349.0,6444.0 7323.0,6428.0 7301.0,6424.0 C 7281.0,6420.0 7255.0,6408.0 7243.0,6397.0 C 7223.0,6379.0 7220.0,6367.0 7220.0,6300.0 C 7220.0,6215.0 7211.0,6200.0 7140.0,6165.0 C 7121.0,6156.0 7090.0,6132.0 7072.0,6112.0 L 7039.0,6075.0 L 7054.0,6114.0 C 7063.0,6135.0 7070.0,6154.0 7070.0,6155.0 C 7070.0,6157.0 7090.0,6167.0 7113.0,6178.0 C 7176.0,6208.0 7191.0,6236.0 7188.0,6318.0 C 7186.0,6370.0 7189.0,6393.0 7203.0,6413.0 C 7227.0,6449.0 7402.0,6537.0 7469.0,6546.0 C 7533.0,6554.0 7546.0,6569.0 7526.0,6608.0 C 7504.0,6650.0 7444.0,6697.0 7385.0,6719.0 C 7307.0,6748.0 7147.0,6765.0 7076.0,6751.0 C 7043.0,6745.0 7014.0,6743.0 7011.0,6747.0 C 7008.0,6752.0 6984.0,6787.0 6959.0,6826.0 C 6904.0,6909.0 6840.0,6965.0 6789.0,6975.0 C 6749.0,6982.0 6611.0,6965.0 6573.0,6947.0 C 6557.0,6940.0 6545.0,6920.0 6532.0,6876.0 C 6521.0,6842.0 6494.0,6786.0 6471.0,6751.0 C 6438.0,6699.0 6413.0,6675.0 6343.0,6629.0 C 6295.0,6597.0 6244.0,6568.0 6229.0,6565.0 C 6211.0,6561.0 6198.0,6549.0 6191.0,6530.0 C 6186.0,6514.0 6163.0,6489.0 6141.0,6474.0 C 6104.0,6450.0 6095.0,6448.0 6043.0,6454.0 C 6011.0,6458.0 5972.0,6462.0 5955.0,6463.0 L 5925.0,6465.0 L 5920.0,6387.0 C 5915.0,6315.0 5898.0,6281.0 5892.0,6332.0 C 5885.0,6391.0 5880.0,6402.0 5865.0,6390.0 C 5852.0,6379.0 5850.0,6383.0 5850.0,6413.0 C 5850.0,6440.0 5860.0,6459.0 5895.0,6498.0 C 5958.0,6568.0 5957.0,6571.0 5858.0,6585.0 C 5832.0,6588.0 5801.0,6600.0 5788.0,6611.0 L 5765.0,6631.0 L 5810.0,6627.0 C 5882.0,6620.0 5959.0,6595.0 5988.0,6567.0 C 6023.0,6535.0 6075.0,6509.0 6092.0,6515.0 C 6099.0,6518.0 6115.0,6538.0 6128.0,6560.0 C 6140.0,6582.0 6155.0,6600.0 6161.0,6600.0 C 6167.0,6600.0 6204.0,6615.0 6244.0,6633.0 C 6336.0,6676.0 6374.0,6727.0 6384.0,6822.0 C 6393.0,6914.0 6477.0,7085.0 6532.0,7123.0 C 6581.0,7157.0 6611.0,7218.0 6600.0,7263.0 C 6590.0,7309.0 6482.0,7450.0 6457.0,7450.0 C 6421.0,7450.0 6250.0,7297.0 6250.0,7264.0 C 6250.0,7231.0 6240.0,7210.0 6224.0,7210.0 C 6207.0,7210.0 6206.0,7224.0 6221.0,7252.0 C 6234.0,7275.0 6220.0,7290.0 6184.0,7290.0 C 6140.0,7290.0 6131.0,7271.0 6139.0,7193.0 C 6146.0,7122.0 6145.0,7121.0 6115.0,7097.0 C 6098.0,7084.0 6074.0,7069.0 6061.0,7065.0 C 6039.0,7058.0 6039.0,7060.0 6071.0,7106.0 C 6103.0,7153.0 6105.0,7159.0 6102.0,7231.0 C 6099.0,7304.0 6100.0,7308.0 6126.0,7325.0 C 6150.0,7341.0 6154.0,7341.0 6162.0,7327.0 C 6170.0,7313.0 6178.0,7314.0 6233.0,7337.0 C 6306.0,7369.0 6341.0,7395.0 6388.0,7456.0 C 6417.0,7495.0 6421.0,7507.0 6415.0,7536.0 C 6412.0,7555.0 6396.0,7585.0 6381.0,7602.0 L 6353.0,7633.0 L 6305.0,7617.0 C 6278.0,7607.0 6235.0,7600.0 6209.0,7600.0 L 6162.0,7600.0 L 6167.0,7562.0 C 6174.0,7510.0 6154.0,7493.0 6102.0,7508.0 C 6082.0,7514.0 6042.0,7516.0 6014.0,7513.0 C 5976.0,7509.0 5956.0,7512.0 5937.0,7525.0 C 5914.0,7540.0 5909.0,7540.0 5881.0,7526.0 C 5841.0,7505.0 5806.0,7505.0 5814.0,7526.0 C 5817.0,7535.0 5820.0,7544.0 5820.0,7547.0 C 5820.0,7550.0 5827.0,7547.0 5835.0,7540.0 C 5848.0,7529.0 5855.0,7531.0 5875.0,7550.0 C 5899.0,7572.0 5902.0,7573.0 5969.0,7561.0 C 6007.0,7554.0 6058.0,7551.0 6082.0,7555.0 C 6125.0,7561.0 6125.0,7562.0 6125.0,7601.0 C 6125.0,7662.0 6145.0,7675.0 6238.0,7671.0 C 6300.0,7669.0 6319.0,7672.0 6329.0,7684.0 C 6341.0,7698.0 6339.0,7706.0 6317.0,7739.0 C 6273.0,7805.0 6209.0,7849.0 6113.0,7879.0 C 6065.0,7894.0 6015.0,7912.0 6003.0,7918.0 C 5985.0,7928.0 5975.0,7926.0 5944.0,7908.0 C 5917.0,7892.0 5908.0,7890.0 5912.0,7900.0 C 5915.0,7908.0 5921.0,7923.0 5925.0,7932.0 C 5935.0,7956.0 5897.0,7976.0 5812.0,7991.0 C 5758.0,8000.0 5734.0,8000.0 5715.0,7992.0 C 5694.0,7982.0 5685.0,7985.0 5643.0,8019.0 C 5599.0,8053.0 5512.0,8092.0 5486.0,8089.0 C 5480.0,8088.0 5399.0,8082.0 5305.0,8075.0" fill="pink"/>
	<path d="M 8453.0,6960.0 C 8441.0,6955.0 8428.0,6939.0 8424.0,6925.0 C 8418.0,6902.0 8414.0,6900.0 8359.0,6900.0 C 8307.0,6900.0 8300.0,6898.0 8300.0,6880.0 C 8300.0,6869.0 8320.0,6828.0 8345.0,6789.0 C 8387.0,6724.0 8396.0,6716.0 8463.0,6686.0 C 8503.0,6668.0 8552.0,6647.0 8573.0,6640.0 C 8595.0,6633.0 8642.0,6607.0 8678.0,6582.0 C 8715.0,6557.0 8772.0,6528.0 8805.0,6518.0 C 8883.0,6493.0 8901.0,6481.0 8925.0,6434.0 C 8936.0,6412.0 8950.0,6392.0 8955.0,6388.0 C 8973.0,6374.0 8990.0,6380.0 8990.0,6398.0 C 8990.0,6425.0 9015.0,6456.0 9025.0,6441.0 C 9029.0,6434.0 9028.0,6424.0 9022.0,6418.0 C 9008.0,6404.0 9071.0,6289.0 9101.0,6273.0 C 9114.0,6267.0 9130.0,6250.0 9137.0,6236.0 C 9153.0,6206.0 9151.0,6207.0 9222.0,6221.0 C 9442.0,6265.0 9500.0,6284.0 9500.0,6316.0 C 9500.0,6323.0 9510.0,6332.0 9523.0,6335.0 C 9543.0,6342.0 9566.0,6359.0 9607.0,6402.0 C 9622.0,6417.0 9625.0,6417.0 9653.0,6399.0 C 9681.0,6383.0 9698.0,6381.0 9814.0,6387.0 C 9981.0,6394.0 10008.0,6413.0 9960.0,6485.0 C 9946.0,6506.0 9940.0,6532.0 9940.0,6573.0 C 9940.0,6624.0 9936.0,6635.0 9912.0,6660.0 C 9886.0,6686.0 9862.0,6695.0 9779.0,6714.0 C 9763.0,6717.0 9739.0,6712.0 9716.0,6700.0 C 9687.0,6686.0 9680.0,6685.0 9684.0,6696.0 C 9690.0,6713.0 9686.0,6713.0 9638.0,6699.0 C 9613.0,6693.0 9600.0,6683.0 9600.0,6672.0 C 9600.0,6655.0 9533.0,6610.0 9508.0,6610.0 C 9502.0,6610.0 9513.0,6628.0 9535.0,6650.0 C 9556.0,6672.0 9571.0,6692.0 9568.0,6696.0 C 9564.0,6699.0 9452.0,6704.0 9318.0,6706.0 C 9184.0,6708.0 9060.0,6712.0 9041.0,6716.0 C 9017.0,6720.0 8983.0,6743.0 8926.0,6796.0 C 8882.0,6837.0 8840.0,6870.0 8834.0,6870.0 C 8828.0,6870.0 8796.0,6882.0 8764.0,6896.0 C 8615.0,6963.0 8512.0,6984.0 8453.0,6960.0" fill="pink"/>
	<path d="M 8071.0,6598.0 C 8071.0,6580.0 8079.0,6545.0 8089.0,6520.0 C 8105.0,6481.0 8112.0,6474.0 8145.0,6468.0 C 8166.0,6463.0 8185.0,6461.0 8187.0,6463.0 C 8189.0,6466.0 8185.0,6489.0 8178.0,6515.0 C 8168.0,6550.0 8155.0,6571.0 8124.0,6596.0 C 8101.0,6615.0 8080.0,6630.0 8076.0,6630.0 C 8073.0,6630.0 8070.0,6615.0 8071.0,6598.0" fill="pink"/>
	<path d="M 8804.0,6413.0 C 8806.0,6403.0 8811.0,6380.0 8815.0,6362.0 C 8820.0,6336.0 8838.0,6318.0 8898.0,6272.0 C 9033.0,6172.0 9040.0,6170.0 9040.0,6238.0 C 9040.0,6294.0 9020.0,6320.0 8976.0,6320.0 C 8946.0,6320.0 8890.0,6346.0 8890.0,6359.0 C 8890.0,6364.0 8877.0,6382.0 8861.0,6399.0 C 8829.0,6433.0 8796.0,6441.0 8804.0,6413.0" fill="pink"/>
	<path d="M 1886.0,4041.0 C 1883.0,4036.0 1888.0,4018.0 1897.0,4000.0 C 1909.0,3974.0 1910.0,3963.0 1901.0,3949.0 C 1895.0,3939.0 1890.0,3915.0 1890.0,3896.0 C 1890.0,3866.0 1894.0,3860.0 1930.0,3846.0 C 1979.0,3827.0 2044.0,3824.0 2038.0,3843.0 C 2035.0,3849.0 2023.0,3857.0 2009.0,3858.0 C 1968.0,3864.0 1963.0,3880.0 2003.0,3880.0 C 2037.0,3880.0 2040.0,3882.0 2040.0,3909.0 C 2040.0,3960.0 2023.0,3986.0 1971.0,4019.0 C 1919.0,4051.0 1895.0,4057.0 1886.0,4041.0" fill="pink"/>
	<path d="M 2353.0,4037.0 C 2316.0,4029.0 2310.0,4024.0 2310.0,4001.0 C 2310.0,3960.0 2345.0,3910.0 2375.0,3910.0 C 2392.0,3910.0 2400.0,3905.0 2400.0,3892.0 C 2400.0,3871.0 2476.0,3830.0 2515.0,3830.0 C 2541.0,3830.0 2582.0,3875.0 2578.0,3899.0 C 2576.0,3907.0 2559.0,3918.0 2540.0,3923.0 C 2493.0,3935.0 2470.0,3957.0 2470.0,3991.0 C 2470.0,4012.0 2463.0,4023.0 2440.0,4035.0 C 2408.0,4052.0 2411.0,4052.0 2353.0,4037.0" fill="pink"/>
	<path d="M 2233.0,3715.0 C 2227.0,3697.0 2140.0,3650.0 2115.0,3650.0 C 2105.0,3650.0 2124.0,3627.0 2158.0,3595.0 C 2201.0,3556.0 2218.0,3533.0 2219.0,3513.0 C 2220.0,3497.0 2221.0,3457.0 2223.0,3423.0 C 2225.0,3370.0 2229.0,3357.0 2254.0,3331.0 C 2271.0,3314.0 2288.0,3300.0 2292.0,3300.0 C 2297.0,3300.0 2312.0,3324.0 2325.0,3354.0 C 2349.0,3407.0 2350.0,3409.0 2397.0,3415.0 C 2537.0,3432.0 2646.0,3453.0 2652.0,3464.0 C 2669.0,3489.0 2658.0,3513.0 2611.0,3559.0 C 2554.0,3615.0 2525.0,3623.0 2424.0,3614.0 C 2384.0,3610.0 2336.0,3610.0 2316.0,3614.0 C 2286.0,3620.0 2280.0,3625.0 2280.0,3646.0 C 2280.0,3660.0 2285.0,3681.0 2291.0,3692.0 C 2300.0,3708.0 2299.0,3715.0 2289.0,3721.0 C 2267.0,3735.0 2240.0,3731.0 2233.0,3715.0" fill="pink"/>
	<path d="M 1671.0,3610.0 C 1628.0,3576.0 1621.0,3565.0 1626.0,3546.0 C 1629.0,3532.0 1625.0,3509.0 1616.0,3492.0 C 1592.0,3445.0 1595.0,3403.0 1625.0,3384.0 C 1663.0,3360.0 1684.0,3369.0 1688.0,3412.0 C 1692.0,3456.0 1712.0,3475.0 1751.0,3472.0 C 1778.0,3470.0 1780.0,3472.0 1780.0,3505.0 C 1780.0,3552.0 1794.0,3577.0 1833.0,3600.0 C 1854.0,3613.0 1859.0,3621.0 1849.0,3624.0 C 1841.0,3626.0 1820.0,3633.0 1801.0,3639.0 C 1746.0,3657.0 1724.0,3652.0 1671.0,3610.0" fill="pink"/>
	<path d="M 2703.0,3618.0 C 2673.0,3580.0 2686.0,3540.0 2729.0,3540.0 C 2772.0,3540.0 2783.0,3560.0 2760.0,3598.0 C 2739.0,3632.0 2719.0,3638.0 2703.0,3618.0" fill="pink"/>
	<path d="M 2717.0,3514.0 C 2713.0,3510.0 2710.0,3496.0 2710.0,3483.0 C 2710.0,3466.0 2716.0,3460.0 2731.0,3460.0 C 2747.0,3460.0 2751.0,3465.0 2748.0,3487.0 C 2745.0,3513.0 2730.0,3526.0 2717.0,3514.0" fill="pink"/>
	<path d="M 2001.0,3471.0 C 1989.0,3455.0 1967.0,3439.0 1951.0,3435.0 C 1910.0,3426.0 1902.0,3413.0 1898.0,3350.0 L 1895.0,3295.0 L 1830.0,3290.0 C 1772.0,3286.0 1765.0,3283.0 1762.0,3263.0 C 1759.0,3242.0 1762.0,3240.0 1809.0,3240.0 C 1847.0,3240.0 1860.0,3236.0 1860.0,3226.0 C 1860.0,3202.0 1797.0,3160.0 1762.0,3160.0 C 1744.0,3160.0 1730.0,3156.0 1730.0,3150.0 C 1730.0,3137.0 1790.0,3123.0 1879.0,3116.0 C 1959.0,3109.0 1980.0,3117.0 1980.0,3155.0 C 1980.0,3188.0 2003.0,3202.0 2042.0,3195.0 C 2075.0,3189.0 2140.0,3139.0 2140.0,3120.0 C 2140.0,3115.0 2149.0,3106.0 2161.0,3099.0 C 2178.0,3090.0 2186.0,3092.0 2206.0,3111.0 C 2219.0,3123.0 2230.0,3144.0 2230.0,3157.0 C 2230.0,3170.0 2238.0,3192.0 2247.0,3207.0 C 2264.0,3232.0 2263.0,3233.0 2237.0,3256.0 C 2222.0,3269.0 2191.0,3285.0 2169.0,3292.0 C 2123.0,3305.0 2110.0,3327.0 2110.0,3393.0 C 2110.0,3437.0 2090.0,3470.0 2053.0,3489.0 C 2024.0,3504.0 2024.0,3504.0 2001.0,3471.0" fill="pink"/>
	<path d="M 2695.0,3388.0 C 2695.0,3356.0 2693.0,3355.0 2650.0,3352.0 C 2604.0,3349.0 2570.0,3328.0 2570.0,3303.0 C 2570.0,3296.0 2562.0,3290.0 2553.0,3290.0 C 2543.0,3290.0 2529.0,3286.0 2521.0,3281.0 C 2510.0,3274.0 2511.0,3267.0 2529.0,3241.0 C 2549.0,3214.0 2557.0,3210.0 2599.0,3210.0 C 2645.0,3210.0 2647.0,3209.0 2643.0,3186.0 C 2639.0,3169.0 2644.0,3159.0 2659.0,3151.0 C 2678.0,3141.0 2680.0,3142.0 2680.0,3163.0 C 2680.0,3176.0 2689.0,3195.0 2700.0,3205.0 C 2711.0,3215.0 2720.0,3231.0 2720.0,3240.0 C 2720.0,3259.0 2739.0,3270.0 2771.0,3270.0 C 2787.0,3270.0 2789.0,3275.0 2784.0,3298.0 C 2777.0,3327.0 2721.0,3411.0 2705.0,3417.0 C 2699.0,3419.0 2695.0,3405.0 2695.0,3388.0" fill="pink"/>
	<path d="M 2457.0,3398.0 C 2426.0,3381.0 2417.0,3351.0 2435.0,3324.0 C 2457.0,3290.0 2495.0,3292.0 2508.0,3328.0 C 2513.0,3343.0 2521.0,3362.0 2525.0,3371.0 C 2533.0,3392.0 2482.0,3413.0 2457.0,3398.0" fill="pink"/>
	<path d="M 2922.0,3308.0 C 2915.0,3301.0 2910.0,3288.0 2910.0,3279.0 C 2910.0,3269.0 2906.0,3258.0 2900.0,3255.0 C 2880.0,3242.0 2890.0,3202.0 2921.0,3176.0 C 2956.0,3146.0 2968.0,3144.0 2995.0,3164.0 C 3021.0,3183.0 3021.0,3247.0 2995.0,3266.0 C 2984.0,3274.0 2966.0,3289.0 2954.0,3300.0 C 2938.0,3314.0 2930.0,3316.0 2922.0,3308.0" fill="pink"/>
	<path d="M 2813.0,3231.0 C 2793.0,3198.0 2820.0,3121.0 2852.0,3120.0 C 2856.0,3120.0 2865.0,3127.0 2874.0,3135.0 C 2887.0,3148.0 2887.0,3155.0 2872.0,3192.0 C 2849.0,3252.0 2833.0,3263.0 2813.0,3231.0" fill="pink"/>
	<path d="M 2290.0,3200.0 L 2269.0,3171.0 L 2293.0,3118.0 C 2311.0,3080.0 2315.0,3060.0 2308.0,3047.0 C 2292.0,3015.0 2304.0,2999.0 2361.0,2976.0 C 2392.0,2963.0 2440.0,2935.0 2466.0,2913.0 C 2493.0,2890.0 2529.0,2865.0 2547.0,2856.0 C 2578.0,2841.0 2579.0,2841.0 2600.0,2867.0 C 2611.0,2881.0 2623.0,2904.0 2626.0,2917.0 C 2630.0,2929.0 2636.0,2940.0 2642.0,2940.0 C 2654.0,2940.0 2700.0,2986.0 2700.0,2998.0 C 2700.0,3003.0 2676.0,3007.0 2648.0,3007.0 C 2576.0,3005.0 2502.0,3042.0 2475.0,3092.0 C 2464.0,3113.0 2443.0,3135.0 2428.0,3141.0 C 2405.0,3150.0 2400.0,3159.0 2400.0,3185.0 C 2400.0,3221.0 2387.0,3230.0 2340.0,3230.0 C 2320.0,3230.0 2305.0,3221.0 2290.0,3200.0" fill="pink"/>
	<path d="M 1995.0,2990.0 C 1985.0,2979.0 1969.0,2968.0 1960.0,2965.0 C 1950.0,2962.0 1940.0,2946.0 1936.0,2929.0 C 1932.0,2906.0 1921.0,2895.0 1889.0,2882.0 L 1847.0,2864.0 L 1886.0,2832.0 C 1910.0,2812.0 1931.0,2802.0 1940.0,2806.0 C 1948.0,2810.0 1977.0,2817.0 2003.0,2823.0 C 2046.0,2832.0 2053.0,2831.0 2074.0,2811.0 L 2098.0,2789.0 L 2105.0,2817.0 C 2108.0,2832.0 2127.0,2864.0 2146.0,2887.0 L 2181.0,2930.0 L 2139.0,2930.0 C 2106.0,2930.0 2090.0,2936.0 2068.0,2957.0 C 2053.0,2972.0 2040.0,2990.0 2040.0,2997.0 C 2040.0,3016.0 2016.0,3013.0 1995.0,2990.0" fill="pink"/>
	<path d="M 2170.0,2841.0 C 2170.0,2830.0 2161.0,2800.0 2150.0,2774.0 C 2131.0,2731.0 2131.0,2725.0 2145.0,2703.0 C 2170.0,2666.0 2197.0,2678.0 2214.0,2734.0 C 2219.0,2749.0 2223.0,2750.0 2236.0,2739.0 C 2249.0,2729.0 2253.0,2729.0 2261.0,2741.0 C 2281.0,2772.0 2265.0,2835.0 2234.0,2849.0 C 2196.0,2866.0 2170.0,2863.0 2170.0,2841.0" fill="pink"/>
	<path d="M 5012.0,2837.0 C 4991.0,2827.0 4989.0,2822.0 4995.0,2782.0 C 5007.0,2700.0 5017.0,2693.0 5062.0,2737.0 C 5096.0,2769.0 5098.0,2805.0 5068.0,2831.0 C 5041.0,2852.0 5042.0,2852.0 5012.0,2837.0" fill="pink"/>
	<path d="M 5475.0,2734.0 C 5437.0,2710.0 5400.0,2691.0 5393.0,2690.0 C 5386.0,2690.0 5377.0,2682.0 5372.0,2673.0 C 5364.0,2659.0 5373.0,2651.0 5428.0,2626.0 C 5474.0,2604.0 5495.0,2599.0 5498.0,2608.0 C 5503.0,2624.0 5520.0,2623.0 5520.0,2606.0 C 5520.0,2598.0 5554.0,2582.0 5605.0,2565.0 L 5689.0,2538.0 L 5718.0,2561.0 C 5734.0,2574.0 5755.0,2590.0 5765.0,2595.0 C 5793.0,2612.0 5769.0,2644.0 5697.0,2686.0 C 5663.0,2706.0 5626.0,2730.0 5615.0,2739.0 C 5566.0,2781.0 5550.0,2780.0 5475.0,2734.0" fill="pink"/>
	<path d="M 4950.0,2663.0 C 4950.0,2658.0 4969.0,2638.0 4993.0,2619.0 C 5016.0,2601.0 5096.0,2526.0 5170.0,2454.0 C 5313.0,2315.0 5333.0,2300.0 5375.0,2300.0 C 5408.0,2300.0 5493.0,2230.0 5510.0,2190.0 C 5520.0,2166.0 5530.0,2160.0 5565.0,2154.0 C 5612.0,2147.0 5633.0,2155.0 5669.0,2194.0 L 5693.0,2220.0 L 5646.0,2220.0 C 5592.0,2220.0 5579.0,2236.0 5601.0,2277.0 L 5615.0,2303.0 L 5624.0,2271.0 C 5631.0,2246.0 5638.0,2240.0 5661.0,2240.0 C 5676.0,2240.0 5700.0,2236.0 5714.0,2230.0 C 5731.0,2224.0 5749.0,2224.0 5765.0,2230.0 C 5786.0,2238.0 5790.0,2246.0 5790.0,2279.0 C 5790.0,2301.0 5795.0,2322.0 5800.0,2325.0 C 5806.0,2328.0 5810.0,2342.0 5810.0,2355.0 C 5810.0,2384.0 5739.0,2430.0 5694.0,2430.0 C 5671.0,2430.0 5656.0,2440.0 5627.0,2475.0 C 5585.0,2525.0 5572.0,2528.0 5497.0,2505.0 C 5446.0,2490.0 5448.0,2489.0 5402.0,2544.0 C 5388.0,2562.0 5354.0,2565.0 5345.0,2550.0 C 5342.0,2545.0 5323.0,2540.0 5304.0,2540.0 C 5275.0,2540.0 5266.0,2546.0 5252.0,2571.0 C 5224.0,2621.0 5133.0,2661.0 5033.0,2668.0 C 4982.0,2671.0 4950.0,2669.0 4950.0,2663.0" fill="pink"/>
</svg>
