<?xml version="1.0" ?>
<svg xmlns="http://www.w3.org/2000/svg" xmlns:ev="http://www.w3.org/2001/xml-events" xmlns:xlink="http://www.w3.org/1999/xlink" baseProfile="full" height="391px" version="1.1" viewBox="-1025.9236528470349 1120.5786825558935 12293.392207387664 7998.024612037791" width="600px">
	<defs/>
	<path d="M 8890.0,8433.0 C 8860.0,8425.0 8824.0,8410.0 8810.0,8401.0 C 8796.0,8391.0 8758.0,8377.0 8726.0,8370.0 C 8668.0,8356.0 8665.0,8357.0 8619.0,8383.0 C 8573.0,8409.0 8571.0,8409.0 8528.0,8393.0 C 8505.0,8384.0 8465.0,8358.0 8440.0,8335.0 C 8393.0,8291.0 8338.0,8264.0 8321.0,8275.0 C 8315.0,8278.0 8289.0,8272.0 8264.0,8261.0 C 8238.0,8249.0 8209.0,8240.0 8199.0,8240.0 C 8173.0,8240.0 8165.0,8204.0 8185.0,8173.0 C 8197.0,8155.0 8200.0,8138.0 8195.0,8111.0 C 8191.0,8091.0 8186.0,8014.0 8184.0,7940.0 L 8181.0,7805.0 L 8260.0,7725.0 L 8340.0,7645.0 L 8346.0,7568.0 C 8353.0,7493.0 8340.0,7430.0 8319.0,7430.0 C 8296.0,7430.0 8218.0,7496.0 8198.0,7533.0 C 8179.0,7567.0 8164.0,7579.0 8114.0,7600.0 C 8081.0,7614.0 8035.0,7643.0 8012.0,7666.0 C 7966.0,7711.0 7924.0,7727.0 7800.0,7745.0 C 7700.0,7759.0 7649.0,7743.0 7568.0,7673.0 L 7507.0,7621.0 L 7391.0,7626.0 C 7297.0,7631.0 7270.0,7636.0 7247.0,7652.0 C 7209.0,7678.0 7177.0,7669.0 7150.0,7625.0 C 7120.0,7576.0 7060.0,7547.0 7009.0,7555.0 C 6963.0,7563.0 6908.0,7547.0 6863.0,7512.0 C 6836.0,7492.0 6830.0,7481.0 6830.0,7449.0 C 6830.0,7428.0 6824.0,7390.0 6818.0,7365.0 C 6807.0,7324.0 6799.0,7315.0 6750.0,7286.0 C 6720.0,7267.0 6677.0,7250.0 6655.0,7247.0 C 6633.0,7244.0 6607.0,7239.0 6598.0,7235.0 C 6577.0,7226.0 6540.0,7282.0 6540.0,7323.0 C 6540.0,7352.0 6512.0,7370.0 6466.0,7370.0 C 6453.0,7370.0 6436.0,7378.0 6427.0,7388.0 C 6412.0,7405.0 6392.0,7406.0 6208.0,7405.0 C 6017.0,7403.0 6002.0,7402.0 5962.0,7380.0 C 5920.0,7358.0 5915.0,7358.0 5832.0,7369.0 C 5779.0,7377.0 5734.0,7389.0 5718.0,7401.0 C 5694.0,7417.0 5673.0,7420.0 5554.0,7420.0 C 5435.0,7420.0 5413.0,7417.0 5385.0,7400.0 C 5357.0,7383.0 5351.0,7382.0 5334.0,7395.0 C 5302.0,7419.0 5240.0,7413.0 5193.0,7382.0 C 5148.0,7352.0 5095.0,7286.0 5085.0,7248.0 C 5081.0,7235.0 5070.0,7214.0 5059.0,7201.0 C 5043.0,7182.0 5037.0,7180.0 5025.0,7190.0 C 5017.0,7197.0 5010.0,7212.0 5010.0,7224.0 C 5010.0,7235.0 5002.0,7257.0 4992.0,7272.0 C 4976.0,7297.0 4972.0,7298.0 4954.0,7286.0 C 4944.0,7279.0 4918.0,7267.0 4897.0,7261.0 C 4876.0,7254.0 4852.0,7238.0 4844.0,7225.0 C 4829.0,7202.0 4827.0,7202.0 4788.0,7216.0 C 4754.0,7228.0 4745.0,7228.0 4720.0,7215.0 C 4690.0,7200.0 4630.0,7119.0 4592.0,7045.0 C 4570.0,7000.0 4539.0,6844.0 4543.0,6791.0 C 4544.0,6766.0 4539.0,6753.0 4520.0,6739.0 C 4491.0,6717.0 4403.0,6700.0 4374.0,6711.0 C 4364.0,6715.0 4328.0,6719.0 4294.0,6719.0 C 4224.0,6720.0 4217.0,6715.0 4180.0,6633.0 C 4157.0,6584.0 4129.0,6560.0 4095.0,6560.0 C 4086.0,6560.0 4080.0,6550.0 4080.0,6537.0 C 4080.0,6503.0 4050.0,6480.0 4004.0,6480.0 C 3983.0,6479.0 3954.0,6473.0 3940.0,6465.0 C 3926.0,6457.0 3902.0,6451.0 3886.0,6450.0 C 3848.0,6450.0 3793.0,6407.0 3785.0,6372.0 C 3782.0,6356.0 3784.0,6332.0 3789.0,6318.0 C 3799.0,6292.0 3792.0,6248.0 3769.0,6189.0 C 3750.0,6140.0 3680.0,6152.0 3680.0,6203.0 C 3680.0,6212.0 3666.0,6252.0 3648.0,6290.0 C 3610.0,6376.0 3575.0,6403.0 3544.0,6369.0 C 3511.0,6333.0 3495.0,6329.0 3444.0,6347.0 C 3357.0,6376.0 3325.0,6404.0 3325.0,6450.0 C 3325.0,6472.0 3321.0,6475.0 3290.0,6473.0 C 3216.0,6470.0 3083.0,6449.0 3047.0,6435.0 C 2994.0,6414.0 2963.0,6416.0 2911.0,6447.0 L 2866.0,6473.0 L 2778.0,6455.0 C 2704.0,6440.0 2685.0,6439.0 2662.0,6450.0 C 2645.0,6457.0 2596.0,6462.0 2534.0,6461.0 L 2433.0,6460.0 L 2399.0,6516.0 C 2330.0,6630.0 2326.0,6634.0 2275.0,6652.0 C 2247.0,6662.0 2199.0,6677.0 2167.0,6685.0 C 2111.0,6700.0 2108.0,6700.0 2059.0,6676.0 C 1998.0,6647.0 1974.0,6652.0 1910.0,6707.0 C 1845.0,6763.0 1757.0,6800.0 1650.0,6817.0 C 1556.0,6831.0 1553.0,6831.0 1442.0,6804.0 L 1329.0,6777.0 L 1271.0,6809.0 C 1221.0,6835.0 1202.0,6840.0 1141.0,6840.0 C 1074.0,6840.0 1070.0,6839.0 1070.0,6818.0 C 1069.0,6805.0 1063.0,6784.0 1055.0,6770.0 C 1047.0,6756.0 1041.0,6718.0 1040.0,6685.0 C 1040.0,6643.0 1032.0,6609.0 1015.0,6572.0 C 1001.0,6542.0 990.0,6510.0 990.0,6500.0 C 990.0,6469.0 943.0,6462.0 868.0,6481.0 C 839.0,6489.0 799.0,6490.0 746.0,6484.0 L 668.0,6475.0 L 642.0,6430.0 C 628.0,6405.0 614.0,6372.0 611.0,6355.0 C 605.0,6330.0 592.0,6320.0 525.0,6287.0 C 481.0,6266.0 429.0,6233.0 410.0,6215.0 C 369.0,6175.0 314.0,6150.0 268.0,6150.0 C 195.0,6150.0 190.0,6145.0 190.0,6069.0 C 190.0,6019.0 186.0,5997.0 174.0,5988.0 C 141.0,5961.0 123.0,5943.0 109.0,5924.0 C 101.0,5913.0 75.0,5893.0 50.0,5879.0 C -2.0,5851.0 -9.0,5832.0 19.0,5793.0 C 30.0,5778.0 46.0,5736.0 56.0,5700.0 C 65.0,5664.0 80.0,5627.0 88.0,5618.0 C 102.0,5602.0 102.0,5576.0 88.0,5485.0 C 86.0,5469.0 91.0,5464.0 121.0,5462.0 C 152.0,5459.0 163.0,5465.0 192.0,5494.0 C 219.0,5522.0 229.0,5526.0 244.0,5518.0 C 254.0,5513.0 278.0,5510.0 298.0,5513.0 C 329.0,5516.0 339.0,5513.0 360.0,5488.0 C 383.0,5461.0 387.0,5460.0 416.0,5471.0 C 443.0,5482.0 452.0,5481.0 483.0,5461.0 C 527.0,5434.0 560.0,5394.0 560.0,5369.0 C 560.0,5349.0 583.0,5347.0 760.0,5345.0 C 817.0,5344.0 865.0,5327.0 874.0,5304.0 C 882.0,5283.0 835.0,5154.0 807.0,5121.0 C 793.0,5104.0 779.0,5082.0 776.0,5073.0 C 773.0,5063.0 747.0,5042.0 719.0,5026.0 C 690.0,5010.0 636.0,4969.0 598.0,4934.0 C 548.0,4888.0 521.0,4870.0 501.0,4870.0 C 480.0,4870.0 467.0,4861.0 449.0,4833.0 C 429.0,4802.0 418.0,4794.0 385.0,4790.0 C 346.0,4785.0 345.0,4784.0 342.0,4744.0 C 340.0,4717.0 344.0,4699.0 355.0,4690.0 C 385.0,4665.0 374.0,4615.0 325.0,4560.0 C 300.0,4532.0 280.0,4504.0 280.0,4497.0 C 280.0,4477.0 320.0,4428.0 383.0,4370.0 L 441.0,4317.0 L 486.0,4338.0 C 510.0,4350.0 535.0,4360.0 541.0,4360.0 C 547.0,4360.0 563.0,4369.0 577.0,4380.0 C 598.0,4397.0 618.0,4400.0 690.0,4400.0 L 777.0,4400.0 L 784.0,4363.0 C 787.0,4342.0 790.0,4292.0 790.0,4252.0 C 790.0,4182.0 789.0,4178.0 754.0,4142.0 C 734.0,4122.0 712.0,4093.0 705.0,4079.0 C 697.0,4065.0 674.0,4036.0 652.0,4014.0 C 624.0,3986.0 610.0,3962.0 605.0,3935.0 C 601.0,3913.0 592.0,3881.0 584.0,3863.0 C 565.0,3821.0 566.0,3791.0 590.0,3755.0 C 602.0,3736.0 610.0,3708.0 610.0,3680.0 C 610.0,3619.0 647.0,3565.0 698.0,3551.0 C 718.0,3545.0 763.0,3540.0 798.0,3540.0 L 861.0,3540.0 L 944.0,3462.0 C 1058.0,3354.0 1088.0,3333.0 1142.0,3321.0 C 1168.0,3315.0 1200.0,3305.0 1213.0,3299.0 C 1252.0,3281.0 1350.0,3140.0 1405.0,3020.0 L 1455.0,2911.0 L 1533.0,2861.0 C 1628.0,2799.0 1633.0,2778.0 1568.0,2715.0 C 1544.0,2692.0 1516.0,2658.0 1505.0,2639.0 C 1480.0,2597.0 1380.0,2541.0 1330.0,2540.0 C 1284.0,2540.0 1216.0,2562.0 1157.0,2595.0 C 1112.0,2621.0 1103.0,2622.0 1037.0,2616.0 C 970.0,2610.0 943.0,2602.0 965.0,2594.0 C 971.0,2592.0 990.0,2580.0 1009.0,2567.0 C 1028.0,2555.0 1052.0,2540.0 1063.0,2533.0 C 1091.0,2517.0 1100.0,2499.0 1094.0,2473.0 C 1089.0,2455.0 1094.0,2448.0 1114.0,2440.0 C 1147.0,2428.0 1147.0,2404.0 1114.0,2396.0 C 1097.0,2391.0 1082.0,2394.0 1071.0,2405.0 C 1049.0,2424.0 1041.0,2424.0 1019.0,2404.0 C 1006.0,2392.0 997.0,2391.0 981.0,2399.0 C 970.0,2405.0 953.0,2410.0 942.0,2410.0 C 909.0,2410.0 817.0,2377.0 798.0,2358.0 C 780.0,2340.0 752.0,2341.0 683.0,2361.0 C 656.0,2370.0 649.0,2368.0 625.0,2344.0 C 603.0,2322.0 593.0,2319.0 564.0,2324.0 C 533.0,2330.0 530.0,2329.0 530.0,2307.0 C 530.0,2278.0 559.0,2250.0 588.0,2250.0 C 615.0,2250.0 615.0,2244.0 590.0,2195.0 C 567.0,2150.0 564.0,2111.0 583.0,2088.0 C 621.0,2041.0 785.0,1955.0 855.0,1946.0 C 896.0,1941.0 915.0,1945.0 958.0,1965.0 C 988.0,1979.0 1017.0,1990.0 1023.0,1990.0 C 1029.0,1990.0 1048.0,2003.0 1065.0,2020.0 L 1095.0,2049.0 L 1154.0,2028.0 C 1211.0,2007.0 1214.0,2007.0 1260.0,2023.0 C 1333.0,2049.0 1340.0,2047.0 1340.0,1997.0 C 1340.0,1937.0 1364.0,1916.0 1420.0,1925.0 C 1454.0,1931.0 1464.0,1929.0 1475.0,1913.0 C 1485.0,1900.0 1493.0,1898.0 1503.0,1905.0 C 1511.0,1911.0 1528.0,1923.0 1542.0,1932.0 C 1559.0,1945.0 1593.0,1951.0 1666.0,1955.0 C 1794.0,1961.0 1825.0,1971.0 1877.0,2021.0 L 1919.0,2063.0 L 1900.0,2090.0 C 1887.0,2108.0 1884.0,2121.0 1891.0,2131.0 C 1896.0,2138.0 1900.0,2161.0 1900.0,2180.0 C 1900.0,2212.0 1905.0,2218.0 1950.0,2243.0 L 2001.0,2272.0 L 2045.0,2236.0 C 2069.0,2216.0 2098.0,2187.0 2109.0,2171.0 C 2128.0,2145.0 2137.0,2142.0 2207.0,2136.0 C 2317.0,2127.0 2318.0,2127.0 2362.0,2149.0 L 2403.0,2169.0 L 2452.0,2114.0 C 2485.0,2078.0 2510.0,2060.0 2525.0,2060.0 C 2547.0,2060.0 2620.0,2096.0 2620.0,2107.0 C 2620.0,2110.0 2610.0,2120.0 2599.0,2129.0 C 2552.0,2166.0 2610.0,2250.0 2682.0,2250.0 C 2709.0,2250.0 2709.0,2250.0 2712.0,2168.0 C 2715.0,2094.0 2717.0,2085.0 2735.0,2082.0 C 2749.0,2081.0 2762.0,2091.0 2778.0,2115.0 C 2802.0,2153.0 2821.0,2157.0 2896.0,2140.0 C 2990.0,2118.0 3039.0,2124.0 3130.0,2167.0 C 3177.0,2190.0 3235.0,2213.0 3260.0,2220.0 C 3318.0,2235.0 3323.0,2241.0 3362.0,2311.0 C 3385.0,2352.0 3401.0,2370.0 3414.0,2370.0 C 3425.0,2370.0 3449.0,2380.0 3467.0,2393.0 L 3500.0,2415.0 L 3500.0,2541.0 C 3500.0,2652.0 3502.0,2669.0 3519.0,2684.0 C 3530.0,2694.0 3547.0,2700.0 3557.0,2698.0 C 3567.0,2697.0 3589.0,2701.0 3606.0,2708.0 C 3634.0,2720.0 3640.0,2730.0 3653.0,2783.0 C 3662.0,2817.0 3672.0,2868.0 3676.0,2895.0 C 3684.0,2956.0 3697.0,2975.0 3717.0,2959.0 C 3727.0,2950.0 3737.0,2950.0 3756.0,2959.0 C 3770.0,2965.0 3785.0,2970.0 3790.0,2970.0 C 3796.0,2970.0 3800.0,2926.0 3800.0,2867.0 L 3800.0,2764.0 L 3846.0,2719.0 C 3871.0,2695.0 3902.0,2658.0 3916.0,2637.0 C 3947.0,2590.0 4015.0,2540.0 4050.0,2540.0 C 4066.0,2540.0 4088.0,2528.0 4108.0,2507.0 L 4140.0,2474.0 L 4125.0,2429.0 C 4116.0,2405.0 4106.0,2355.0 4103.0,2318.0 L 4097.0,2250.0 L 4124.0,2250.0 C 4140.0,2250.0 4163.0,2259.0 4177.0,2270.0 C 4202.0,2290.0 4202.0,2290.0 4231.0,2269.0 C 4247.0,2258.0 4267.0,2235.0 4275.0,2219.0 C 4287.0,2197.0 4298.0,2190.0 4319.0,2190.0 C 4335.0,2190.0 4350.0,2184.0 4353.0,2176.0 C 4356.0,2168.0 4380.0,2156.0 4406.0,2148.0 C 4449.0,2136.0 4456.0,2130.0 4484.0,2075.0 C 4501.0,2042.0 4520.0,2004.0 4525.0,1990.0 C 4539.0,1954.0 4583.0,1953.0 4699.0,1985.0 C 4834.0,2023.0 4844.0,2034.0 4850.0,2158.0 L 4855.0,2255.0 L 4885.0,2253.0 C 4904.0,2251.0 4924.0,2240.0 4940.0,2221.0 C 4989.0,2162.0 5052.0,2120.0 5092.0,2120.0 C 5112.0,2120.0 5141.0,2115.0 5157.0,2109.0 C 5172.0,2103.0 5207.0,2096.0 5234.0,2094.0 C 5315.0,2088.0 5350.0,2072.0 5366.0,2034.0 C 5386.0,1986.0 5436.0,1933.0 5473.0,1921.0 C 5494.0,1914.0 5520.0,1891.0 5543.0,1860.0 C 5587.0,1801.0 5640.0,1779.0 5694.0,1798.0 C 5712.0,1805.0 5743.0,1810.0 5763.0,1810.0 C 5797.0,1810.0 5804.0,1815.0 5846.0,1874.0 C 5905.0,1956.0 5944.0,1972.0 6024.0,1947.0 C 6053.0,1938.0 6095.0,1930.0 6118.0,1930.0 C 6155.0,1930.0 6166.0,1936.0 6222.0,1991.0 C 6257.0,2024.0 6295.0,2061.0 6308.0,2073.0 C 6320.0,2084.0 6330.0,2101.0 6330.0,2110.0 C 6330.0,2128.0 6288.0,2163.0 6253.0,2174.0 C 6242.0,2178.0 6214.0,2194.0 6191.0,2210.0 C 6137.0,2250.0 6070.0,2379.0 6063.0,2459.0 C 6061.0,2490.0 6050.0,2533.0 6040.0,2555.0 C 6006.0,2629.0 6005.0,2644.0 6039.0,2657.0 C 6058.0,2664.0 6075.0,2682.0 6087.0,2706.0 C 6105.0,2744.0 6106.0,2744.0 6158.0,2741.0 C 6208.0,2739.0 6210.0,2740.0 6210.0,2764.0 C 6210.0,2781.0 6214.0,2788.0 6224.0,2784.0 C 6242.0,2777.0 6280.0,2826.0 6280.0,2857.0 C 6280.0,2885.0 6240.0,2958.0 6210.0,2985.0 C 6196.0,2997.0 6182.0,3001.0 6160.0,2997.0 C 6120.0,2988.0 6120.0,3011.0 6160.0,3052.0 C 6180.0,3072.0 6188.0,3086.0 6181.0,3094.0 C 6176.0,3100.0 6166.0,3131.0 6159.0,3163.0 C 6152.0,3195.0 6141.0,3228.0 6134.0,3238.0 C 6116.0,3263.0 6077.0,3238.0 6048.0,3181.0 C 6026.0,3138.0 6025.0,3131.0 6037.0,3075.0 C 6057.0,2980.0 6041.0,2967.0 5978.0,3025.0 C 5957.0,3044.0 5936.0,3077.0 5929.0,3100.0 C 5918.0,3134.0 5913.0,3140.0 5888.0,3140.0 C 5861.0,3140.0 5860.0,3142.0 5860.0,3184.0 C 5860.0,3235.0 5868.0,3244.0 5904.0,3230.0 C 5927.0,3222.0 5933.0,3226.0 5972.0,3269.0 C 5996.0,3296.0 6030.0,3325.0 6048.0,3334.0 C 6075.0,3348.0 6080.0,3356.0 6080.0,3388.0 C 6081.0,3444.0 6112.0,3473.0 6199.0,3499.0 C 6249.0,3514.0 6280.0,3530.0 6293.0,3547.0 C 6312.0,3571.0 6316.0,3571.0 6418.0,3568.0 L 6523.0,3565.0 L 6521.0,3628.0 C 6519.0,3680.0 6522.0,3694.0 6537.0,3706.0 C 6566.0,3728.0 6597.0,3723.0 6620.0,3692.0 C 6637.0,3670.0 6647.0,3665.0 6670.0,3668.0 C 6702.0,3673.0 6736.0,3705.0 6742.0,3735.0 C 6745.0,3753.0 6752.0,3755.0 6803.0,3752.0 C 6860.0,3748.0 6860.0,3748.0 6875.0,3783.0 C 6883.0,3802.0 6895.0,3820.0 6902.0,3823.0 C 6909.0,3825.0 6955.0,3800.0 7003.0,3768.0 L 7091.0,3709.0 L 7111.0,3734.0 C 7124.0,3751.0 7141.0,3760.0 7159.0,3760.0 C 7175.0,3760.0 7201.0,3765.0 7218.0,3771.0 C 7244.0,3780.0 7251.0,3791.0 7268.0,3843.0 C 7280.0,3882.0 7284.0,3911.0 7278.0,3922.0 C 7260.0,3958.0 7269.0,4016.0 7296.0,4041.0 C 7310.0,4054.0 7331.0,4083.0 7342.0,4104.0 C 7363.0,4146.0 7363.0,4142.0 7343.0,4356.0 C 7340.0,4397.0 7342.0,4425.0 7351.0,4441.0 C 7358.0,4454.0 7367.0,4483.0 7371.0,4505.0 C 7374.0,4527.0 7388.0,4573.0 7400.0,4606.0 L 7423.0,4668.0 L 7401.0,4695.0 C 7367.0,4739.0 7309.0,4778.0 7265.0,4785.0 C 7237.0,4790.0 7214.0,4804.0 7189.0,4831.0 C 7168.0,4853.0 7139.0,4873.0 7121.0,4876.0 C 7102.0,4880.0 7088.0,4890.0 7084.0,4904.0 C 7080.0,4915.0 7067.0,4937.0 7055.0,4952.0 C 7022.0,4991.0 7014.0,5089.0 7039.0,5160.0 C 7050.0,5190.0 7063.0,5216.0 7069.0,5218.0 C 7075.0,5220.0 7101.0,5253.0 7126.0,5291.0 C 7167.0,5351.0 7172.0,5364.0 7162.0,5384.0 C 7145.0,5423.0 7163.0,5430.0 7280.0,5430.0 C 7360.0,5430.0 7391.0,5434.0 7408.0,5446.0 C 7436.0,5465.0 7457.0,5452.0 7462.0,5412.0 C 7465.0,5388.0 7470.0,5385.0 7505.0,5383.0 C 7539.0,5381.0 7549.0,5385.0 7570.0,5412.0 C 7593.0,5442.0 7608.0,5517.0 7612.0,5626.0 C 7612.0,5644.0 7636.0,5657.0 7754.0,5705.0 C 7874.0,5754.0 7907.0,5764.0 7980.0,5769.0 C 8046.0,5774.0 8075.0,5781.0 8110.0,5801.0 C 8135.0,5815.0 8170.0,5830.0 8189.0,5834.0 C 8210.0,5838.0 8247.0,5860.0 8279.0,5889.0 C 8310.0,5915.0 8346.0,5941.0 8360.0,5945.0 C 8398.0,5957.0 8447.0,5998.0 8459.0,6029.0 C 8468.0,6048.0 8468.0,6069.0 8461.0,6101.0 C 8455.0,6125.0 8450.0,6148.0 8450.0,6152.0 C 8450.0,6155.0 8474.0,6160.0 8503.0,6163.0 C 8587.0,6170.0 8630.0,6186.0 8669.0,6224.0 C 8689.0,6244.0 8712.0,6260.0 8719.0,6260.0 C 8726.0,6260.0 8751.0,6240.0 8775.0,6215.0 C 8821.0,6168.0 8829.0,6166.0 8975.0,6169.0 C 8992.0,6169.0 9023.0,6170.0 9045.0,6170.0 C 9075.0,6171.0 9089.0,6166.0 9099.0,6150.0 C 9109.0,6135.0 9123.0,6130.0 9159.0,6130.0 C 9227.0,6130.0 9233.0,6137.0 9228.0,6211.0 C 9225.0,6265.0 9218.0,6284.0 9184.0,6335.0 C 9148.0,6388.0 9144.0,6400.0 9148.0,6441.0 C 9151.0,6474.0 9146.0,6499.0 9131.0,6528.0 C 9116.0,6557.0 9110.0,6588.0 9110.0,6634.0 C 9110.0,6692.0 9113.0,6701.0 9138.0,6724.0 C 9153.0,6737.0 9185.0,6767.0 9210.0,6789.0 C 9239.0,6816.0 9263.0,6830.0 9281.0,6830.0 C 9318.0,6830.0 9340.0,6839.0 9340.0,6855.0 C 9340.0,6874.0 9367.0,6881.0 9397.0,6869.0 C 9413.0,6863.0 9439.0,6861.0 9456.0,6865.0 C 9477.0,6869.0 9491.0,6866.0 9500.0,6855.0 C 9507.0,6847.0 9520.0,6840.0 9530.0,6840.0 C 9539.0,6840.0 9555.0,6831.0 9565.0,6820.0 C 9588.0,6795.0 9648.0,6774.0 9662.0,6788.0 C 9682.0,6808.0 9806.0,6713.0 9842.0,6649.0 C 9864.0,6609.0 9878.0,6602.0 9897.0,6621.0 C 9904.0,6628.0 9922.0,6624.0 9958.0,6606.0 C 10009.0,6580.0 10057.0,6574.0 10095.0,6589.0 C 10106.0,6594.0 10128.0,6593.0 10144.0,6587.0 C 10165.0,6580.0 10180.0,6581.0 10206.0,6593.0 C 10266.0,6622.0 10241.0,6643.0 10152.0,6639.0 C 10112.0,6637.0 10091.0,6643.0 10044.0,6670.0 C 9930.0,6734.0 9910.0,6749.0 9910.0,6773.0 C 9910.0,6796.0 9896.0,6890.0 9884.0,6947.0 C 9876.0,6987.0 9841.0,7020.0 9798.0,7029.0 C 9771.0,7035.0 9764.0,7042.0 9755.0,7073.0 C 9739.0,7130.0 9666.0,7217.0 9610.0,7245.0 C 9583.0,7259.0 9559.0,7278.0 9556.0,7287.0 C 9553.0,7297.0 9530.0,7317.0 9505.0,7332.0 C 9450.0,7366.0 9443.0,7380.0 9462.0,7428.0 C 9475.0,7461.0 9480.0,7465.0 9508.0,7463.0 C 9536.0,7460.0 9540.0,7463.0 9545.0,7493.0 C 9549.0,7510.0 9550.0,7548.0 9548.0,7575.0 L 9545.0,7625.0 L 9505.0,7628.0 C 9483.0,7629.0 9448.0,7635.0 9427.0,7642.0 C 9394.0,7652.0 9389.0,7657.0 9392.0,7679.0 C 9395.0,7715.0 9383.0,7730.0 9350.0,7730.0 C 9324.0,7730.0 9319.0,7735.0 9303.0,7787.0 C 9292.0,7822.0 9273.0,7856.0 9252.0,7876.0 C 9219.0,7908.0 9219.0,7909.0 9234.0,7939.0 C 9253.0,7974.0 9246.0,7998.0 9214.0,8011.0 C 9196.0,8017.0 9190.0,8027.0 9190.0,8048.0 C 9190.0,8071.0 9197.0,8080.0 9233.0,8097.0 C 9269.0,8115.0 9278.0,8125.0 9291.0,8166.0 C 9304.0,8210.0 9304.0,8220.0 9290.0,8268.0 C 9279.0,8307.0 9269.0,8322.0 9253.0,8326.0 C 9240.0,8330.0 9230.0,8338.0 9230.0,8346.0 C 9230.0,8353.0 9218.0,8362.0 9203.0,8366.0 C 9187.0,8369.0 9163.0,8386.0 9149.0,8403.0 C 9128.0,8427.0 9111.0,8435.0 9069.0,8441.0 C 8994.0,8452.0 8954.0,8450.0 8890.0,8433.0" fill="pink"/>
</svg>
