<?xml version="1.0" ?>
<svg xmlns="http://www.w3.org/2000/svg" xmlns:ev="http://www.w3.org/2001/xml-events" xmlns:xlink="http://www.w3.org/1999/xlink" baseProfile="full" height="145px" version="1.1" viewBox="-1034.093704569457 3638.9779166012695 12297.925763063859 2961.066309015141" width="600px">
	<defs/>
	<path d="M 7740.0,6330.0 C 7688.0,6319.0 7605.0,6300.0 7555.0,6286.0 C 7484.0,6265.0 7443.0,6260.0 7357.0,6260.0 L 7249.0,6260.0 L 7266.0,6228.0 C 7275.0,6210.0 7293.0,6184.0 7306.0,6170.0 L 7330.0,6144.0 L 7304.0,6107.0 C 7291.0,6087.0 7273.0,6070.0 7266.0,6070.0 C 7259.0,6070.0 7202.0,6081.0 7140.0,6095.0 C 7055.0,6115.0 7010.0,6131.0 6955.0,6164.0 L 6881.0,6207.0 L 6783.0,6194.0 C 6729.0,6187.0 6589.0,6181.0 6472.0,6180.0 L 6260.0,6180.0 L 6182.0,6224.0 C 6139.0,6249.0 6065.0,6280.0 6012.0,6294.0 C 5926.0,6319.0 5908.0,6320.0 5737.0,6318.0 L 5555.0,6315.0 L 5623.0,6275.0 C 5660.0,6254.0 5690.0,6233.0 5690.0,6230.0 C 5690.0,6226.0 5679.0,6213.0 5666.0,6201.0 L 5641.0,6178.0 L 5498.0,6204.0 C 5338.0,6233.0 5317.0,6234.0 5276.0,6217.0 L 5246.0,6204.0 L 5294.0,6167.0 C 5321.0,6147.0 5338.0,6130.0 5331.0,6130.0 C 5325.0,6130.0 5278.0,6139.0 5227.0,6151.0 C 5052.0,6190.0 4915.0,6210.0 4815.0,6210.0 L 4715.0,6209.0 L 4656.0,6165.0 C 4618.0,6136.0 4586.0,6120.0 4568.0,6120.0 C 4541.0,6120.0 4540.0,6118.0 4540.0,6075.0 L 4540.0,6030.0 L 4598.0,6030.0 L 4657.0,6030.0 L 4669.0,5991.0 C 4681.0,5949.0 4683.0,5948.0 4772.0,5930.0 C 4804.0,5924.0 4870.0,5901.0 4920.0,5880.0 C 5077.0,5812.0 5089.0,5810.0 5466.0,5810.0 C 5792.0,5810.0 5819.0,5812.0 6179.0,5850.0 C 6660.0,5901.0 6688.0,5902.0 6805.0,5853.0 L 6895.0,5815.0 L 6560.0,5809.0 C 6376.0,5806.0 6144.0,5796.0 6045.0,5787.0 C 5946.0,5778.0 5814.0,5768.0 5753.0,5764.0 L 5640.0,5757.0 L 5640.0,5724.0 L 5640.0,5690.0 L 5738.0,5690.0 C 5813.0,5690.0 5884.0,5680.0 6035.0,5650.0 L 6234.0,5610.0 L 6519.0,5610.0 C 6708.0,5610.0 6847.0,5615.0 6930.0,5625.0 C 7000.0,5633.0 7141.0,5640.0 7251.0,5640.0 L 7447.0,5640.0 L 7501.0,5570.0 L 7555.0,5501.0 L 7920.0,5501.0 C 8256.0,5500.0 8298.0,5502.0 8445.0,5524.0 C 8533.0,5538.0 8659.0,5562.0 8725.0,5579.0 C 8793.0,5596.0 8913.0,5616.0 9000.0,5625.0 C 9235.0,5649.0 9318.0,5659.0 9403.0,5677.0 C 9467.0,5690.0 9480.0,5696.0 9474.0,5709.0 C 9456.0,5754.0 9456.0,5754.0 9558.0,5783.0 C 9646.0,5807.0 9674.0,5810.0 9811.0,5810.0 L 9965.0,5810.0 L 10095.0,5861.0 C 10167.0,5890.0 10228.0,5916.0 10233.0,5920.0 C 10237.0,5923.0 10234.0,5946.0 10225.0,5969.0 C 10217.0,5993.0 10210.0,6030.0 10210.0,6051.0 L 10210.0,6090.0 L 10143.0,6090.0 C 10105.0,6090.0 9992.0,6097.0 9890.0,6105.0 C 9788.0,6113.0 9632.0,6120.0 9544.0,6120.0 C 9436.0,6120.0 9289.0,6130.0 9099.0,6150.0 C 8719.0,6190.0 8670.0,6200.0 8570.0,6250.0 L 8487.0,6291.0 L 8456.0,6262.0 C 8439.0,6245.0 8402.0,6220.0 8373.0,6206.0 C 8329.0,6184.0 8307.0,6180.0 8238.0,6180.0 C 8163.0,6180.0 8151.0,6177.0 8110.0,6150.0 C 8067.0,6122.0 8060.0,6120.0 7960.0,6120.0 C 7902.0,6120.0 7815.0,6115.0 7767.0,6109.0 C 7718.0,6103.0 7676.0,6100.0 7674.0,6103.0 C 7672.0,6105.0 7708.0,6128.0 7755.0,6155.0 L 7840.0,6202.0 L 7840.0,6276.0 C 7840.0,6317.0 7839.0,6350.0 7838.0,6349.0 C 7836.0,6349.0 7792.0,6340.0 7740.0,6330.0" fill="pink"/>
	<path d="M 3306.0,5991.0 C 3280.0,5965.0 3236.0,5932.0 3209.0,5920.0 C 3182.0,5907.0 3160.0,5893.0 3160.0,5889.0 C 3160.0,5861.0 3272.0,5727.0 3424.0,5573.0 L 3603.0,5391.0 L 3519.0,5413.0 C 3439.0,5435.0 3360.0,5474.0 3026.0,5656.0 C 2978.0,5683.0 2918.0,5722.0 2894.0,5744.0 C 2831.0,5798.0 2641.0,5861.0 2518.0,5868.0 L 2430.0,5872.0 L 2361.0,5816.0 L 2291.0,5760.0 L 2191.0,5760.0 C 2135.0,5760.0 2090.0,5757.0 2090.0,5753.0 C 2090.0,5750.0 2108.0,5723.0 2130.0,5694.0 C 2166.0,5646.0 2169.0,5638.0 2158.0,5615.0 C 2152.0,5601.0 2144.0,5590.0 2141.0,5590.0 C 2137.0,5590.0 2074.0,5614.0 2000.0,5644.0 C 1926.0,5674.0 1846.0,5704.0 1823.0,5711.0 C 1781.0,5723.0 1780.0,5724.0 1780.0,5767.0 C 1780.0,5799.0 1784.0,5810.0 1795.0,5810.0 C 1813.0,5810.0 1985.0,5827.0 2047.0,5836.0 L 2089.0,5841.0 L 2076.0,5878.0 L 2063.0,5915.0 L 1974.0,5910.0 C 1874.0,5904.0 1585.0,5904.0 1405.0,5910.0 C 1258.0,5914.0 849.0,5897.0 830.0,5885.0 C 823.0,5880.0 742.0,5874.0 651.0,5870.0 C 504.0,5865.0 478.0,5861.0 424.0,5839.0 C 363.0,5814.0 361.0,5813.0 318.0,5830.0 C 294.0,5839.0 256.0,5859.0 235.0,5873.0 C 204.0,5894.0 183.0,5900.0 143.0,5900.0 C 114.0,5900.0 90.0,5896.0 90.0,5891.0 C 90.0,5879.0 138.0,5698.0 142.0,5695.0 C 144.0,5694.0 161.0,5683.0 180.0,5670.0 C 199.0,5657.0 242.0,5621.0 275.0,5590.0 C 308.0,5559.0 361.0,5512.0 393.0,5487.0 C 447.0,5444.0 457.0,5440.0 506.0,5440.0 C 551.0,5440.0 577.0,5448.0 650.0,5485.0 C 740.0,5530.0 740.0,5530.0 847.0,5530.0 L 955.0,5530.0 L 899.0,5474.0 L 843.0,5418.0 L 739.0,5405.0 C 682.0,5397.0 607.0,5390.0 573.0,5390.0 C 510.0,5390.0 510.0,5390.0 510.0,5361.0 C 510.0,5329.0 515.0,5327.0 620.0,5315.0 C 721.0,5304.0 729.0,5301.0 732.0,5272.0 C 735.0,5249.0 744.0,5242.0 795.0,5223.0 C 828.0,5211.0 915.0,5187.0 989.0,5168.0 L 1123.0,5135.0 L 1209.0,5055.0 C 1256.0,5011.0 1314.0,4960.0 1336.0,4943.0 L 1378.0,4910.0 L 1711.0,4910.0 C 2038.0,4910.0 2047.0,4911.0 2130.0,4935.0 C 2177.0,4949.0 2292.0,4972.0 2385.0,4986.0 C 2609.0,5019.0 2600.0,5016.0 2600.0,5050.0 C 2600.0,5077.0 2596.0,5079.0 2543.0,5090.0 C 2457.0,5107.0 2460.0,5104.0 2460.0,5164.0 L 2460.0,5218.0 L 2538.0,5244.0 C 2580.0,5258.0 2618.0,5270.0 2621.0,5270.0 C 2625.0,5270.0 2668.0,5216.0 2701.0,5168.0 C 2704.0,5163.0 2738.0,5166.0 2777.0,5174.0 L 2848.0,5189.0 L 2938.0,5150.0 C 3065.0,5095.0 3123.0,5080.0 3209.0,5079.0 C 3296.0,5079.0 3516.0,5057.0 3525.0,5048.0 C 3528.0,5045.0 3496.0,5039.0 3453.0,5035.0 C 3370.0,5027.0 3232.0,4996.0 2995.0,4930.0 C 2745.0,4860.0 2717.0,4857.0 2298.0,4851.0 L 1920.0,4845.0 L 1976.0,4748.0 L 2031.0,4650.0 L 2123.0,4650.0 C 2174.0,4650.0 2271.0,4643.0 2340.0,4635.0 C 2409.0,4627.0 2504.0,4620.0 2553.0,4620.0 C 2601.0,4620.0 2640.0,4618.0 2640.0,4615.0 C 2640.0,4609.0 2600.0,4528.0 2595.0,4522.0 C 2593.0,4520.0 2559.0,4524.0 2518.0,4531.0 C 2451.0,4542.0 2433.0,4541.0 2295.0,4516.0 C 2213.0,4501.0 2144.0,4487.0 2143.0,4486.0 C 2142.0,4485.0 2162.0,4458.0 2187.0,4427.0 C 2225.0,4378.0 2249.0,4361.0 2334.0,4317.0 C 2433.0,4266.0 2437.0,4265.0 2545.0,4260.0 C 2645.0,4254.0 2668.0,4249.0 2800.0,4201.0 C 2880.0,4172.0 3001.0,4122.0 3070.0,4090.0 C 3211.0,4025.0 3264.0,4007.0 3365.0,3990.0 C 3416.0,3982.0 3456.0,3967.0 3512.0,3934.0 L 3589.0,3890.0 L 3693.0,3890.0 C 3831.0,3890.0 3935.0,3912.0 4039.0,3965.0 L 4124.0,4007.0 L 4082.0,4035.0 C 4059.0,4050.0 4040.0,4064.0 4040.0,4065.0 C 4040.0,4066.0 4064.0,4084.0 4094.0,4106.0 C 4135.0,4135.0 4155.0,4159.0 4176.0,4203.0 C 4199.0,4250.0 4221.0,4274.0 4295.0,4334.0 C 4439.0,4451.0 4507.0,4485.0 4620.0,4500.0 C 4695.0,4510.0 4723.0,4518.0 4755.0,4540.0 C 4820.0,4586.0 4857.0,4631.0 4885.0,4701.0 L 4911.0,4767.0 L 5038.0,4795.0 C 5108.0,4810.0 5171.0,4828.0 5178.0,4834.0 C 5198.0,4853.0 5220.0,4948.0 5220.0,5018.0 L 5220.0,5080.0 L 5323.0,5080.0 C 5454.0,5080.0 5997.0,5150.0 6147.0,5187.0 L 6260.0,5214.0 L 6341.0,5175.0 L 6422.0,5135.0 L 6379.0,5127.0 C 6355.0,5123.0 6236.0,5116.0 6115.0,5112.0 L 5895.0,5105.0 L 6048.0,5063.0 C 6233.0,5013.0 6296.0,4974.0 6355.0,4873.0 C 6375.0,4839.0 6396.0,4807.0 6403.0,4802.0 C 6410.0,4797.0 6498.0,4783.0 6600.0,4770.0 C 6702.0,4758.0 6798.0,4745.0 6814.0,4741.0 L 6844.0,4734.0 L 6794.0,4706.0 C 6767.0,4690.0 6695.0,4642.0 6633.0,4599.0 L 6521.0,4520.0 L 6410.0,4520.0 C 6350.0,4520.0 6300.0,4516.0 6300.0,4512.0 C 6300.0,4508.0 6323.0,4487.0 6351.0,4466.0 L 6403.0,4428.0 L 6764.0,4455.0 C 7096.0,4479.0 7132.0,4484.0 7216.0,4511.0 L 7307.0,4541.0 L 7390.0,4505.0 C 7435.0,4486.0 7477.0,4467.0 7483.0,4463.0 C 7488.0,4460.0 7459.0,4439.0 7417.0,4418.0 C 7338.0,4379.0 7330.0,4368.0 7353.0,4335.0 C 7366.0,4318.0 7374.0,4318.0 7556.0,4355.0 C 7707.0,4385.0 7776.0,4394.0 7895.0,4398.0 L 8045.0,4403.0 L 8211.0,4485.0 L 8376.0,4568.0 L 8606.0,4597.0 C 8821.0,4625.0 8833.0,4627.0 8795.0,4638.0 C 8693.0,4669.0 8487.0,4690.0 8292.0,4690.0 C 8067.0,4691.0 8018.0,4699.0 7880.0,4757.0 C 7828.0,4779.0 7767.0,4803.0 7745.0,4811.0 L 7705.0,4823.0 L 7783.0,4849.0 C 7825.0,4863.0 7860.0,4877.0 7860.0,4880.0 C 7860.0,4883.0 7827.0,4897.0 7788.0,4911.0 C 7721.0,4933.0 7695.0,4935.0 7480.0,4940.0 L 7245.0,4945.0 L 7222.0,5005.0 C 7210.0,5038.0 7192.0,5081.0 7182.0,5100.0 L 7165.0,5135.0 L 6980.0,5140.0 C 6828.0,5144.0 6787.0,5149.0 6748.0,5165.0 C 6721.0,5176.0 6700.0,5187.0 6700.0,5191.0 C 6700.0,5194.0 6715.0,5201.0 6733.0,5206.0 C 6762.0,5215.0 6765.0,5219.0 6768.0,5261.0 L 6771.0,5306.0 L 6573.0,5343.0 C 6464.0,5364.0 6363.0,5383.0 6347.0,5386.0 C 6330.0,5390.0 6314.0,5402.0 6305.0,5419.0 C 6291.0,5446.0 6288.0,5447.0 6183.0,5454.0 C 6124.0,5459.0 5992.0,5465.0 5890.0,5469.0 C 5732.0,5476.0 5692.0,5481.0 5620.0,5503.0 C 5570.0,5518.0 5487.0,5533.0 5420.0,5540.0 C 5206.0,5559.0 5223.0,5554.0 5192.0,5617.0 C 5166.0,5671.0 5162.0,5674.0 5055.0,5728.0 L 4945.0,5783.0 L 4862.0,5771.0 C 4773.0,5758.0 4649.0,5715.0 4588.0,5674.0 C 4567.0,5661.0 4548.0,5650.0 4546.0,5650.0 C 4544.0,5650.0 4536.0,5666.0 4530.0,5686.0 C 4514.0,5734.0 4530.0,5771.0 4582.0,5805.0 C 4604.0,5820.0 4618.0,5835.0 4614.0,5840.0 C 4609.0,5844.0 4580.0,5855.0 4550.0,5865.0 C 4520.0,5874.0 4442.0,5904.0 4378.0,5931.0 C 4261.0,5980.0 4259.0,5980.0 4153.0,5979.0 C 4093.0,5979.0 4011.0,5973.0 3970.0,5966.0 L 3895.0,5952.0 L 3777.0,5996.0 L 3659.0,6040.0 L 3507.0,6040.0 L 3354.0,6040.0 L 3306.0,5991.0" fill="pink"/>
	<path d="M 99.0,5206.0 L 202.0,5102.0 L 279.0,5090.0 C 362.0,5077.0 512.0,5035.0 749.0,4958.0 C 890.0,4912.0 906.0,4909.0 942.0,4919.0 C 963.0,4926.0 980.0,4934.0 980.0,4938.0 C 980.0,4948.0 917.0,5007.0 863.0,5049.0 C 829.0,5075.0 798.0,5086.0 703.0,5106.0 C 638.0,5120.0 551.0,5147.0 510.0,5165.0 C 469.0,5184.0 422.0,5202.0 407.0,5206.0 C 392.0,5209.0 349.0,5234.0 312.0,5261.0 L 245.0,5310.0 L 120.0,5310.0 L -5.0,5310.0 L 99.0,5206.0" fill="pink"/>
	<path d="M 9830.0,5231.0 C 9895.0,5191.0 9895.0,5191.0 9995.0,5191.0 L 10095.0,5192.0 L 9978.0,5225.0 C 9913.0,5244.0 9839.0,5262.0 9813.0,5265.0 L 9765.0,5272.0 L 9830.0,5231.0" fill="pink"/>
</svg>
