<?xml version="1.0" ?>
<svg xmlns="http://www.w3.org/2000/svg" xmlns:ev="http://www.w3.org/2001/xml-events" xmlns:xlink="http://www.w3.org/1999/xlink" baseProfile="full" height="294px" version="1.1" viewBox="-1028.7448693782242 2110.601446719088 12293.757095753703 6014.666367553225" width="600px">
	<defs/>
	<path d="M 4737.0,7598.0 C 4728.0,7585.0 4688.0,7540.0 4646.0,7496.0 L 4571.0,7418.0 L 4506.0,7425.0 C 4448.0,7431.0 4437.0,7429.0 4410.0,7410.0 C 4391.0,7396.0 4380.0,7380.0 4380.0,7365.0 C 4380.0,7352.0 4371.0,7319.0 4361.0,7292.0 C 4347.0,7257.0 4345.0,7239.0 4352.0,7226.0 C 4363.0,7207.0 4349.0,7190.0 4324.0,7190.0 C 4312.0,7190.0 4280.0,7121.0 4280.0,7096.0 C 4280.0,7078.0 4168.0,7065.0 4141.0,7080.0 C 4112.0,7095.0 4044.0,7092.0 4030.0,7075.0 C 4015.0,7056.0 3910.0,7054.0 3910.0,7072.0 C 3910.0,7078.0 3915.0,7098.0 3921.0,7115.0 C 3931.0,7141.0 3929.0,7154.0 3911.0,7194.0 C 3900.0,7221.0 3890.0,7263.0 3890.0,7289.0 C 3890.0,7365.0 3874.0,7375.0 3738.0,7384.0 C 3646.0,7391.0 3637.0,7390.0 3573.0,7362.0 C 3505.0,7334.0 3504.0,7334.0 3475.0,7352.0 C 3440.0,7373.0 3402.0,7375.0 3330.0,7359.0 C 3285.0,7349.0 3277.0,7350.0 3266.0,7366.0 C 3256.0,7379.0 3245.0,7382.0 3214.0,7377.0 C 3167.0,7369.0 3145.0,7345.0 3137.0,7293.0 C 3132.0,7261.0 3124.0,7251.0 3096.0,7237.0 C 3072.0,7226.0 3052.0,7205.0 3036.0,7173.0 C 2997.0,7099.0 2985.0,7087.0 2957.0,7094.0 C 2924.0,7102.0 2904.0,7076.0 2897.0,7016.0 C 2891.0,6960.0 2867.0,6934.0 2777.0,6885.0 C 2741.0,6865.0 2531.0,6800.0 2504.0,6800.0 C 2502.0,6800.0 2500.0,6794.0 2500.0,6787.0 C 2500.0,6779.0 2487.0,6762.0 2471.0,6747.0 C 2450.0,6729.0 2439.0,6708.0 2435.0,6676.0 C 2431.0,6652.0 2431.0,6627.0 2434.0,6622.0 C 2437.0,6616.0 2429.0,6588.0 2415.0,6558.0 C 2401.0,6529.0 2390.0,6494.0 2390.0,6480.0 C 2390.0,6466.0 2381.0,6444.0 2370.0,6430.0 C 2356.0,6412.0 2350.0,6389.0 2350.0,6350.0 C 2349.0,6261.0 2326.0,6182.0 2291.0,6146.0 C 2260.0,6115.0 2259.0,6115.0 2135.0,6112.0 L 2011.0,6108.0 L 1991.0,6077.0 C 1981.0,6059.0 1969.0,6023.0 1965.0,5995.0 C 1961.0,5968.0 1949.0,5927.0 1938.0,5905.0 L 1917.0,5864.0 L 1831.0,5862.0 C 1735.0,5860.0 1752.0,5870.0 1656.0,5755.0 C 1613.0,5703.0 1569.0,5680.0 1516.0,5680.0 C 1473.0,5680.0 1412.0,5652.0 1405.0,5629.0 C 1398.0,5609.0 1326.0,5596.0 1270.0,5605.0 C 1244.0,5609.0 1229.0,5618.0 1222.0,5634.0 C 1208.0,5666.0 1147.0,5674.0 1122.0,5647.0 C 1090.0,5611.0 1054.0,5599.0 1010.0,5609.0 C 973.0,5617.0 941.0,5642.0 940.0,5662.0 C 940.0,5666.0 929.0,5675.0 916.0,5682.0 C 816.0,5737.0 787.0,5750.0 744.0,5755.0 C 698.0,5762.0 691.0,5759.0 653.0,5729.0 C 630.0,5710.0 596.0,5686.0 578.0,5675.0 C 555.0,5661.0 535.0,5634.0 513.0,5588.0 C 493.0,5547.0 473.0,5519.0 460.0,5515.0 C 449.0,5512.0 430.0,5490.0 418.0,5467.0 C 407.0,5444.0 387.0,5412.0 375.0,5395.0 C 362.0,5379.0 349.0,5354.0 345.0,5340.0 C 341.0,5326.0 327.0,5302.0 315.0,5285.0 C 303.0,5269.0 288.0,5235.0 281.0,5210.0 C 261.0,5136.0 249.0,5112.0 224.0,5095.0 C 204.0,5082.0 200.0,5071.0 200.0,5029.0 C 200.0,5002.0 205.0,4959.0 211.0,4934.0 C 222.0,4890.0 222.0,4888.0 192.0,4857.0 C 176.0,4839.0 159.0,4815.0 156.0,4803.0 C 152.0,4791.0 140.0,4778.0 129.0,4775.0 C 115.0,4770.0 111.0,4763.0 115.0,4750.0 C 119.0,4736.0 115.0,4731.0 98.0,4728.0 C 84.0,4726.0 65.0,4708.0 47.0,4678.0 C 21.0,4636.0 19.0,4630.0 32.0,4605.0 C 45.0,4582.0 45.0,4572.0 32.0,4534.0 C 24.0,4510.0 14.0,4490.0 9.0,4490.0 C 4.0,4490.0 0.0,4465.0 0.0,4435.0 C 0.0,4388.0 3.0,4380.0 19.0,4380.0 C 49.0,4380.0 112.0,4312.0 104.0,4288.0 C 96.0,4262.0 119.0,4180.0 135.0,4180.0 C 162.0,4180.0 183.0,4142.0 176.0,4102.0 C 172.0,4075.0 175.0,4052.0 186.0,4031.0 C 195.0,4013.0 207.0,3972.0 213.0,3938.0 C 227.0,3866.0 266.0,3815.0 324.0,3796.0 C 356.0,3785.0 369.0,3772.0 394.0,3726.0 C 422.0,3674.0 424.0,3668.0 408.0,3657.0 C 389.0,3642.0 387.0,3634.0 389.0,3553.0 L 390.0,3490.0 L 420.0,3490.0 C 437.0,3490.0 466.0,3481.0 486.0,3471.0 C 517.0,3454.0 535.0,3452.0 606.0,3457.0 C 676.0,3462.0 690.0,3461.0 690.0,3448.0 C 690.0,3419.0 735.0,3390.0 789.0,3383.0 C 838.0,3377.0 843.0,3374.0 878.0,3324.0 C 898.0,3294.0 922.0,3268.0 930.0,3265.0 C 953.0,3256.0 1021.0,3162.0 1032.0,3124.0 C 1042.0,3084.0 1111.0,3025.0 1157.0,3015.0 C 1183.0,3010.0 1191.0,3001.0 1201.0,2972.0 C 1218.0,2918.0 1247.0,2890.0 1286.0,2890.0 C 1317.0,2890.0 1360.0,2860.0 1360.0,2838.0 C 1360.0,2834.0 1394.0,2802.0 1435.0,2766.0 C 1486.0,2723.0 1523.0,2700.0 1548.0,2695.0 C 1568.0,2691.0 1591.0,2683.0 1599.0,2677.0 C 1612.0,2666.0 1697.0,2661.0 1855.0,2660.0 C 1883.0,2660.0 1922.0,2667.0 1942.0,2676.0 C 1979.0,2693.0 1980.0,2692.0 1999.0,2669.0 L 2018.0,2645.0 L 2042.0,2668.0 C 2072.0,2695.0 2105.0,2696.0 2195.0,2670.0 C 2233.0,2659.0 2309.0,2646.0 2364.0,2640.0 C 2420.0,2634.0 2491.0,2626.0 2522.0,2620.0 C 2572.0,2612.0 2596.0,2615.0 2702.0,2641.0 C 2770.0,2658.0 2829.0,2675.0 2833.0,2679.0 C 2838.0,2684.0 2858.0,2679.0 2878.0,2669.0 C 2919.0,2648.0 2951.0,2645.0 2967.0,2661.0 C 2979.0,2673.0 3020.0,2674.0 3134.0,2664.0 C 3183.0,2660.0 3226.0,2662.0 3249.0,2669.0 C 3295.0,2683.0 3345.0,2729.0 3364.0,2774.0 C 3377.0,2804.0 3383.0,2809.0 3428.0,2815.0 C 3459.0,2819.0 3486.0,2817.0 3498.0,2811.0 C 3533.0,2793.0 3570.0,2797.0 3570.0,2820.0 C 3570.0,2830.0 3561.0,2844.0 3551.0,2850.0 C 3540.0,2855.0 3530.0,2870.0 3528.0,2882.0 C 3526.0,2897.0 3511.0,2911.0 3483.0,2924.0 C 3439.0,2946.0 3426.0,2966.0 3415.0,3034.0 C 3410.0,3064.0 3414.0,3082.0 3432.0,3116.0 C 3452.0,3155.0 3453.0,3162.0 3441.0,3196.0 C 3429.0,3230.0 3429.0,3235.0 3446.0,3247.0 C 3456.0,3254.0 3473.0,3260.0 3484.0,3260.0 C 3521.0,3260.0 3534.0,3277.0 3535.0,3322.0 C 3536.0,3384.0 3549.0,3418.0 3573.0,3426.0 C 3593.0,3433.0 3713.0,3440.0 3800.0,3440.0 C 3826.0,3439.0 3841.0,3446.0 3856.0,3466.0 L 3878.0,3493.0 L 3913.0,3466.0 C 3948.0,3439.0 3949.0,3439.0 3981.0,3455.0 C 4001.0,3466.0 4025.0,3470.0 4045.0,3467.0 C 4063.0,3464.0 4082.0,3466.0 4087.0,3471.0 C 4095.0,3479.0 4157.0,3465.0 4264.0,3430.0 C 4289.0,3422.0 4296.0,3424.0 4308.0,3441.0 C 4315.0,3452.0 4349.0,3474.0 4383.0,3489.0 C 4435.0,3513.0 4455.0,3517.0 4505.0,3514.0 C 4538.0,3512.0 4578.0,3507.0 4593.0,3504.0 C 4614.0,3499.0 4627.0,3503.0 4645.0,3520.0 L 4669.0,3543.0 L 4688.0,3520.0 L 4706.0,3498.0 L 4733.0,3530.0 C 4753.0,3553.0 4760.0,3573.0 4760.0,3603.0 C 4760.0,3629.0 4768.0,3654.0 4780.0,3670.0 C 4791.0,3684.0 4800.0,3709.0 4800.0,3727.0 C 4800.0,3744.0 4805.0,3762.0 4810.0,3765.0 C 4816.0,3768.0 4820.0,3782.0 4820.0,3795.0 C 4820.0,3814.0 4827.0,3819.0 4859.0,3825.0 C 4887.0,3830.0 4913.0,3845.0 4949.0,3880.0 C 4994.0,3924.0 5004.0,3929.0 5033.0,3924.0 C 5084.0,3915.0 5087.0,3913.0 5094.0,3883.0 C 5109.0,3826.0 5158.0,3800.0 5185.0,3836.0 C 5196.0,3851.0 5200.0,3851.0 5241.0,3833.0 C 5265.0,3822.0 5294.0,3803.0 5305.0,3791.0 C 5324.0,3769.0 5324.0,3767.0 5307.0,3738.0 C 5295.0,3716.0 5292.0,3704.0 5300.0,3696.0 C 5307.0,3689.0 5314.0,3690.0 5321.0,3697.0 C 5328.0,3704.0 5346.0,3706.0 5361.0,3703.0 C 5382.0,3699.0 5391.0,3702.0 5396.0,3714.0 C 5402.0,3729.0 5405.0,3728.0 5435.0,3710.0 C 5453.0,3699.0 5474.0,3690.0 5483.0,3690.0 C 5501.0,3690.0 5513.0,3650.0 5499.0,3633.0 C 5493.0,3627.0 5491.0,3616.0 5495.0,3610.0 C 5508.0,3589.0 5534.0,3601.0 5580.0,3649.0 C 5639.0,3710.0 5682.0,3730.0 5743.0,3723.0 C 5786.0,3718.0 5790.0,3720.0 5799.0,3742.0 C 5804.0,3756.0 5834.0,3791.0 5864.0,3820.0 C 5907.0,3860.0 5920.0,3880.0 5920.0,3901.0 C 5920.0,3929.0 5921.0,3930.0 5975.0,3930.0 C 6033.0,3930.0 6090.0,3958.0 6090.0,3987.0 C 6090.0,4006.0 6104.0,4003.0 6159.0,3975.0 L 6207.0,3951.0 L 6227.0,3973.0 C 6239.0,3985.0 6260.0,4014.0 6274.0,4038.0 C 6289.0,4062.0 6307.0,4083.0 6315.0,4086.0 C 6322.0,4089.0 6332.0,4106.0 6335.0,4123.0 C 6339.0,4141.0 6356.0,4170.0 6373.0,4188.0 C 6403.0,4219.0 6411.0,4240.0 6439.0,4360.0 C 6453.0,4417.0 6461.0,4430.0 6486.0,4436.0 C 6512.0,4443.0 6535.0,4474.0 6525.0,4490.0 C 6522.0,4495.0 6525.0,4502.0 6532.0,4507.0 C 6583.0,4539.0 6619.0,4627.0 6588.0,4646.0 C 6570.0,4657.0 6610.0,4680.0 6637.0,4674.0 C 6654.0,4669.0 6660.0,4672.0 6660.0,4683.0 C 6660.0,4708.0 6679.0,4713.0 6706.0,4695.0 C 6729.0,4680.0 6733.0,4680.0 6758.0,4697.0 C 6799.0,4725.0 6858.0,4750.0 6883.0,4750.0 C 6895.0,4750.0 6914.0,4756.0 6925.0,4764.0 C 6936.0,4771.0 6988.0,4780.0 7045.0,4784.0 C 7100.0,4788.0 7154.0,4793.0 7165.0,4796.0 C 7180.0,4800.0 7188.0,4794.0 7197.0,4770.0 C 7205.0,4749.0 7215.0,4740.0 7232.0,4739.0 C 7336.0,4736.0 7343.0,4734.0 7354.0,4716.0 C 7382.0,4668.0 7399.0,4659.0 7458.0,4661.0 C 7524.0,4663.0 7610.0,4651.0 7628.0,4637.0 C 7634.0,4632.0 7640.0,4619.0 7640.0,4609.0 C 7640.0,4597.0 7651.0,4586.0 7666.0,4580.0 C 7700.0,4567.0 7699.0,4567.0 7710.0,4594.0 C 7716.0,4610.0 7735.0,4624.0 7767.0,4636.0 C 7793.0,4645.0 7822.0,4659.0 7831.0,4667.0 C 7839.0,4674.0 7854.0,4680.0 7863.0,4680.0 C 7872.0,4680.0 7882.0,4685.0 7885.0,4691.0 C 7890.0,4698.0 7897.0,4696.0 7908.0,4687.0 C 7933.0,4665.0 8000.0,4649.0 8020.0,4660.0 C 8030.0,4665.0 8040.0,4687.0 8044.0,4709.0 C 8051.0,4754.0 8060.0,4758.0 8175.0,4763.0 C 8226.0,4765.0 8235.0,4768.0 8238.0,4785.0 C 8244.0,4817.0 8257.0,4823.0 8277.0,4805.0 C 8309.0,4777.0 8372.0,4730.0 8380.0,4730.0 C 8384.0,4730.0 8391.0,4711.0 8396.0,4688.0 C 8407.0,4635.0 8455.0,4607.0 8535.0,4606.0 C 8575.0,4605.0 8575.0,4605.0 8582.0,4560.0 C 8594.0,4482.0 8602.0,4456.0 8622.0,4436.0 C 8647.0,4413.0 8670.0,4359.0 8670.0,4326.0 C 8670.0,4308.0 8676.0,4301.0 8693.0,4298.0 C 8707.0,4296.0 8716.0,4287.0 8718.0,4274.0 C 8720.0,4262.0 8730.0,4244.0 8741.0,4234.0 C 8751.0,4225.0 8760.0,4211.0 8760.0,4203.0 C 8760.0,4196.0 8771.0,4190.0 8788.0,4190.0 C 8803.0,4189.0 8826.0,4183.0 8839.0,4176.0 C 8855.0,4167.0 8873.0,4165.0 8891.0,4170.0 C 8907.0,4175.0 8929.0,4176.0 8941.0,4173.0 C 8965.0,4166.0 8980.0,4183.0 8980.0,4218.0 C 8980.0,4243.0 9002.0,4247.0 9020.0,4225.0 C 9036.0,4206.0 9054.0,4206.0 9071.0,4226.0 C 9080.0,4237.0 9094.0,4240.0 9117.0,4237.0 C 9135.0,4234.0 9150.0,4235.0 9150.0,4240.0 C 9150.0,4260.0 9184.0,4280.0 9216.0,4280.0 C 9235.0,4280.0 9264.0,4287.0 9281.0,4295.0 C 9309.0,4310.0 9313.0,4309.0 9339.0,4291.0 C 9365.0,4272.0 9368.0,4272.0 9384.0,4288.0 C 9398.0,4302.0 9402.0,4303.0 9409.0,4291.0 C 9420.0,4273.0 9520.0,4286.0 9520.0,4305.0 C 9520.0,4313.0 9528.0,4323.0 9537.0,4328.0 C 9553.0,4337.0 9553.0,4339.0 9537.0,4355.0 C 9515.0,4377.0 9514.0,4489.0 9536.0,4585.0 C 9545.0,4624.0 9555.0,4698.0 9559.0,4751.0 C 9566.0,4849.0 9585.0,4900.0 9614.0,4900.0 C 9622.0,4900.0 9630.0,4907.0 9634.0,4915.0 C 9637.0,4924.0 9655.0,4940.0 9675.0,4951.0 C 9695.0,4963.0 9710.0,4980.0 9710.0,4991.0 C 9710.0,5003.0 9738.0,5029.0 9788.0,5064.0 C 9864.0,5117.0 9867.0,5121.0 9883.0,5179.0 C 9903.0,5250.0 9904.0,5276.0 9889.0,5286.0 C 9872.0,5296.0 9886.0,5346.0 9916.0,5375.0 C 9939.0,5398.0 9942.0,5407.0 9937.0,5448.0 C 9935.0,5474.0 9931.0,5500.0 9930.0,5505.0 C 9929.0,5511.0 9928.0,5534.0 9929.0,5557.0 C 9930.0,5595.0 9934.0,5603.0 9970.0,5626.0 L 10010.0,5653.0 L 10010.0,5720.0 C 10010.0,5774.0 10014.0,5790.0 10030.0,5805.0 C 10041.0,5815.0 10065.0,5856.0 10084.0,5896.0 C 10119.0,5968.0 10120.0,5969.0 10152.0,5964.0 C 10195.0,5957.0 10230.0,5980.0 10211.0,6003.0 C 10202.0,6015.0 10201.0,6024.0 10209.0,6039.0 C 10215.0,6050.0 10220.0,6077.0 10220.0,6099.0 C 10220.0,6121.0 10225.0,6151.0 10230.0,6166.0 C 10252.0,6222.0 10213.0,6255.0 10161.0,6224.0 C 10133.0,6208.0 10129.0,6208.0 10088.0,6223.0 C 10061.0,6234.0 10032.0,6238.0 10013.0,6234.0 C 9985.0,6229.0 9980.0,6232.0 9947.0,6283.0 C 9906.0,6344.0 9879.0,6357.0 9811.0,6345.0 C 9791.0,6342.0 9743.0,6344.0 9706.0,6350.0 C 9652.0,6360.0 9641.0,6365.0 9650.0,6376.0 C 9657.0,6383.0 9660.0,6399.0 9658.0,6412.0 C 9655.0,6432.0 9648.0,6436.0 9592.0,6441.0 C 9549.0,6445.0 9523.0,6453.0 9507.0,6468.0 C 9495.0,6479.0 9450.0,6499.0 9406.0,6513.0 C 9358.0,6528.0 9323.0,6545.0 9317.0,6556.0 C 9311.0,6567.0 9305.0,6604.0 9304.0,6640.0 C 9302.0,6696.0 9299.0,6706.0 9276.0,6723.0 C 9262.0,6733.0 9250.0,6746.0 9250.0,6751.0 C 9250.0,6756.0 9233.0,6787.0 9213.0,6820.0 C 9174.0,6882.0 9137.0,6907.0 9101.0,6895.0 C 9086.0,6891.0 9076.0,6897.0 9058.0,6922.0 C 9042.0,6945.0 9029.0,6954.0 9013.0,6952.0 C 8998.0,6950.0 8987.0,6958.0 8974.0,6979.0 C 8954.0,7013.0 8937.0,7013.0 8889.0,6979.0 C 8868.0,6965.0 8864.0,6955.0 8868.0,6934.0 C 8872.0,6911.0 8870.0,6908.0 8856.0,6913.0 C 8846.0,6917.0 8836.0,6920.0 8834.0,6920.0 C 8832.0,6920.0 8830.0,6930.0 8830.0,6943.0 C 8830.0,6956.0 8817.0,6979.0 8801.0,6994.0 C 8785.0,7010.0 8769.0,7033.0 8766.0,7046.0 C 8761.0,7065.0 8753.0,7070.0 8726.0,7070.0 C 8666.0,7070.0 8629.0,7082.0 8599.0,7112.0 C 8572.0,7140.0 8567.0,7141.0 8541.0,7130.0 C 8525.0,7124.0 8504.0,7120.0 8494.0,7121.0 C 8483.0,7123.0 8449.0,7116.0 8417.0,7106.0 C 8386.0,7095.0 8357.0,7090.0 8354.0,7093.0 C 8351.0,7096.0 8333.0,7092.0 8315.0,7084.0 C 8267.0,7064.0 8227.0,7066.0 8197.0,7090.0 C 8183.0,7101.0 8162.0,7110.0 8149.0,7110.0 C 8137.0,7110.0 8117.0,7118.0 8106.0,7128.0 C 8081.0,7150.0 7976.0,7175.0 7958.0,7163.0 C 7951.0,7159.0 7929.0,7150.0 7910.0,7145.0 C 7879.0,7136.0 7875.0,7130.0 7872.0,7097.0 C 7870.0,7071.0 7862.0,7055.0 7845.0,7044.0 C 7814.0,7024.0 7791.0,7032.0 7740.0,7081.0 C 7703.0,7117.0 7697.0,7120.0 7682.0,7107.0 C 7673.0,7099.0 7644.0,7089.0 7618.0,7086.0 C 7574.0,7079.0 7570.0,7077.0 7570.0,7051.0 C 7570.0,7024.0 7611.0,6970.0 7631.0,6970.0 C 7636.0,6970.0 7640.0,6963.0 7640.0,6955.0 C 7640.0,6944.0 7629.0,6940.0 7602.0,6940.0 C 7574.0,6940.0 7556.0,6932.0 7532.0,6911.0 C 7515.0,6894.0 7500.0,6876.0 7500.0,6869.0 C 7500.0,6863.0 7489.0,6847.0 7475.0,6834.0 C 7461.0,6821.0 7450.0,6803.0 7450.0,6793.0 C 7450.0,6779.0 7437.0,6771.0 7403.0,6762.0 C 7359.0,6750.0 7356.0,6750.0 7329.0,6776.0 C 7310.0,6794.0 7296.0,6800.0 7281.0,6795.0 C 7259.0,6788.0 7255.0,6796.0 7269.0,6819.0 C 7275.0,6829.0 7271.0,6843.0 7257.0,6862.0 C 7236.0,6890.0 7236.0,6890.0 7216.0,6871.0 C 7197.0,6854.0 7191.0,6853.0 7158.0,6863.0 C 7133.0,6871.0 7120.0,6881.0 7120.0,6893.0 C 7120.0,6903.0 7113.0,6913.0 7105.0,6916.0 C 7097.0,6920.0 7090.0,6931.0 7090.0,6942.0 C 7090.0,6957.0 7085.0,6960.0 7073.0,6956.0 C 7055.0,6949.0 7040.0,6965.0 7040.0,6993.0 C 7040.0,7003.0 7028.0,7027.0 7014.0,7046.0 C 6983.0,7086.0 6940.0,7091.0 6900.0,7060.0 C 6868.0,7035.0 6859.0,7035.0 6826.0,7061.0 L 6800.0,7081.0 L 6800.0,7058.0 C 6800.0,7043.0 6784.0,7019.0 6760.0,6995.0 C 6721.0,6956.0 6720.0,6956.0 6683.0,6969.0 C 6662.0,6976.0 6634.0,6993.0 6620.0,7005.0 C 6588.0,7034.0 6554.0,7051.0 6512.0,7061.0 C 6484.0,7067.0 6477.0,7065.0 6464.0,7046.0 C 6456.0,7033.0 6438.0,7018.0 6423.0,7011.0 C 6400.0,7000.0 6394.0,7001.0 6383.0,7016.0 C 6373.0,7030.0 6359.0,7033.0 6322.0,7031.0 C 6296.0,7030.0 6274.0,7027.0 6272.0,7026.0 C 6271.0,7024.0 6274.0,7011.0 6280.0,6996.0 C 6287.0,6977.0 6287.0,6955.0 6279.0,6924.0 L 6268.0,6880.0 L 6216.0,6881.0 C 6188.0,6882.0 6154.0,6885.0 6140.0,6889.0 C 6099.0,6902.0 6045.0,6864.0 6004.0,6794.0 C 5995.0,6778.0 5990.0,6777.0 5977.0,6788.0 C 5963.0,6800.0 5959.0,6795.0 5946.0,6749.0 C 5937.0,6720.0 5930.0,6691.0 5930.0,6685.0 C 5930.0,6678.0 5921.0,6661.0 5910.0,6647.0 C 5899.0,6633.0 5885.0,6598.0 5879.0,6568.0 C 5851.0,6429.0 5844.0,6416.0 5821.0,6443.0 C 5815.0,6451.0 5793.0,6462.0 5771.0,6468.0 C 5744.0,6477.0 5730.0,6487.0 5726.0,6504.0 C 5719.0,6531.0 5635.0,6600.0 5608.0,6600.0 C 5577.0,6600.0 5554.0,6583.0 5541.0,6552.0 C 5534.0,6536.0 5517.0,6518.0 5504.0,6511.0 C 5446.0,6485.0 5290.0,6511.0 5290.0,6546.0 C 5290.0,6573.0 5350.0,6680.0 5374.0,6695.0 C 5401.0,6713.0 5399.0,6745.0 5369.0,6761.0 C 5355.0,6768.0 5352.0,6775.0 5359.0,6787.0 C 5372.0,6811.0 5361.0,6969.0 5342.0,7017.0 C 5332.0,7041.0 5318.0,7060.0 5311.0,7060.0 C 5303.0,7060.0 5279.0,7048.0 5257.0,7033.0 C 5233.0,7016.0 5216.0,7010.0 5212.0,7017.0 C 5202.0,7032.0 5160.0,7052.0 5125.0,7060.0 C 5096.0,7066.0 5095.0,7068.0 5090.0,7130.0 L 5085.0,7195.0 L 5048.0,7192.0 C 5004.0,7188.0 4960.0,7213.0 4960.0,7244.0 C 4960.0,7255.0 4953.0,7274.0 4945.0,7284.0 C 4937.0,7295.0 4930.0,7316.0 4930.0,7332.0 C 4930.0,7350.0 4923.0,7363.0 4909.0,7371.0 C 4890.0,7381.0 4888.0,7388.0 4894.0,7439.0 C 4900.0,7490.0 4898.0,7498.0 4878.0,7517.0 C 4865.0,7528.0 4845.0,7543.0 4833.0,7549.0 C 4819.0,7556.0 4810.0,7570.0 4810.0,7584.0 C 4810.0,7624.0 4761.0,7633.0 4737.0,7598.0" fill="pink"/>
</svg>
