<?xml version="1.0" ?>
<svg xmlns="http://www.w3.org/2000/svg" xmlns:ev="http://www.w3.org/2001/xml-events" xmlns:xlink="http://www.w3.org/1999/xlink" baseProfile="full" height="600px" version="1.1" viewBox="-909.1179570432387 -1026.1989053520297 12058.235914086477 12293.33281785937" width="589px">
	<defs/>
	<path d="M 4766.0,10231.0 C 4740.0,10226.0 4734.0,10217.0 4713.0,10150.0 C 4700.0,10109.0 4692.0,10063.0 4694.0,10049.0 C 4699.0,10023.0 4699.0,10023.0 4353.0,9920.0 C 3965.0,9803.0 4019.0,9809.0 3835.0,9865.0 C 3736.0,9895.0 3691.0,9922.0 3677.0,9960.0 C 3671.0,9976.0 3657.0,9991.0 3645.0,9994.0 C 3625.0,9999.0 3386.0,9940.0 3201.0,9885.0 C 3155.0,9871.0 3103.0,9860.0 3084.0,9860.0 C 3033.0,9860.0 2939.0,9821.0 2900.0,9784.0 C 2880.0,9765.0 2857.0,9750.0 2847.0,9750.0 C 2838.0,9750.0 2812.0,9743.0 2789.0,9733.0 C 2749.0,9717.0 2748.0,9716.0 2753.0,9679.0 C 2759.0,9631.0 2727.0,9522.0 2677.0,9423.0 C 2629.0,9328.0 2589.0,9284.0 2544.0,9276.0 C 2515.0,9270.0 2510.0,9266.0 2515.0,9249.0 C 2519.0,9237.0 2519.0,9213.0 2516.0,9195.0 C 2511.0,9168.0 2502.0,9159.0 2469.0,9146.0 C 2429.0,9130.0 2428.0,9128.0 2435.0,9094.0 C 2438.0,9074.0 2438.0,9034.0 2435.0,9005.0 C 2428.0,8953.0 2428.0,8952.0 2386.0,8944.0 C 2349.0,8936.0 2342.0,8929.0 2318.0,8882.0 C 2299.0,8844.0 2293.0,8820.0 2297.0,8796.0 C 2302.0,8765.0 2299.0,8761.0 2264.0,8744.0 C 2220.0,8723.0 2211.0,8696.0 2230.0,8649.0 C 2241.0,8625.0 2240.0,8616.0 2228.0,8602.0 C 2188.0,8557.0 2142.0,8453.0 2137.0,8398.0 C 2130.0,8329.0 2126.0,8320.0 2095.0,8320.0 C 2079.0,8320.0 2069.0,8313.0 2064.0,8298.0 C 2050.0,8251.0 2031.0,8240.0 1965.0,8240.0 C 1910.0,8240.0 1902.0,8237.0 1890.0,8216.0 C 1880.0,8197.0 1880.0,8182.0 1890.0,8141.0 C 1896.0,8114.0 1899.0,8087.0 1896.0,8082.0 C 1893.0,8076.0 1874.0,8069.0 1855.0,8066.0 C 1824.0,8060.0 1820.0,8055.0 1820.0,8030.0 C 1820.0,8011.0 1813.0,7996.0 1800.0,7988.0 C 1787.0,7980.0 1782.0,7969.0 1786.0,7955.0 C 1790.0,7938.0 1782.0,7930.0 1741.0,7911.0 C 1696.0,7889.0 1683.0,7888.0 1597.0,7894.0 L 1502.0,7901.0 L 1456.0,7861.0 C 1403.0,7815.0 1403.0,7815.0 1364.0,7835.0 C 1330.0,7853.0 1306.0,7854.0 1279.0,7840.0 C 1264.0,7832.0 1260.0,7819.0 1260.0,7783.0 C 1260.0,7746.0 1254.0,7730.0 1233.0,7708.0 L 1206.0,7680.0 L 1224.0,7595.0 C 1233.0,7548.0 1239.0,7506.0 1235.0,7501.0 C 1232.0,7496.0 1217.0,7489.0 1201.0,7485.0 C 1169.0,7478.0 1138.0,7430.0 1120.0,7358.0 C 1111.0,7324.0 1097.0,7301.0 1071.0,7279.0 C 1014.0,7231.0 914.0,7170.0 892.0,7170.0 C 880.0,7170.0 855.0,7150.0 831.0,7121.0 C 794.0,7077.0 786.0,7072.0 734.0,7066.0 C 668.0,7058.0 624.0,7079.0 592.0,7135.0 C 569.0,7173.0 533.0,7195.0 476.0,7205.0 C 444.0,7211.0 435.0,7209.0 412.0,7187.0 C 396.0,7173.0 339.0,7146.0 275.0,7125.0 C 215.0,7104.0 153.0,7081.0 138.0,7073.0 C 99.0,7054.0 94.0,7020.0 120.0,6955.0 C 139.0,6909.0 140.0,6895.0 131.0,6869.0 C 119.0,6834.0 116.0,6761.0 126.0,6736.0 C 136.0,6710.0 179.0,6717.0 211.0,6749.0 C 234.0,6773.0 240.0,6787.0 240.0,6824.0 C 240.0,6848.0 245.0,6872.0 251.0,6876.0 C 260.0,6881.0 261.0,6865.0 256.0,6817.0 C 248.0,6743.0 257.0,6729.0 297.0,6755.0 C 314.0,6767.0 333.0,6770.0 359.0,6766.0 C 379.0,6763.0 401.0,6759.0 408.0,6758.0 C 428.0,6756.0 422.0,6740.0 397.0,6731.0 C 380.0,6724.0 373.0,6726.0 366.0,6741.0 C 355.0,6764.0 341.0,6765.0 334.0,6745.0 C 325.0,6723.0 426.0,6634.0 487.0,6611.0 C 546.0,6588.0 562.0,6591.0 605.0,6630.0 C 627.0,6650.0 654.0,6660.0 710.0,6670.0 C 802.0,6685.0 810.0,6688.0 810.0,6706.0 C 810.0,6714.0 817.0,6720.0 825.0,6720.0 C 844.0,6720.0 844.0,6711.0 824.0,6689.0 C 810.0,6673.0 810.0,6671.0 829.0,6660.0 C 860.0,6644.0 968.0,6658.0 1005.0,6683.0 C 1022.0,6694.0 1050.0,6717.0 1068.0,6734.0 C 1097.0,6761.0 1100.0,6762.0 1100.0,6743.0 C 1100.0,6729.0 1079.0,6709.0 1031.0,6677.0 L 961.0,6631.0 L 863.0,6640.0 C 809.0,6645.0 758.0,6651.0 749.0,6652.0 C 730.0,6655.0 580.0,6516.0 580.0,6496.0 C 580.0,6478.0 617.0,6432.0 642.0,6419.0 C 659.0,6410.0 716.0,6404.0 855.0,6398.0 C 872.0,6397.0 920.0,6402.0 964.0,6409.0 C 1047.0,6422.0 1107.0,6417.0 1153.0,6393.0 C 1199.0,6370.0 1178.0,6369.0 1112.0,6391.0 L 1050.0,6412.0 L 926.0,6391.0 C 858.0,6379.0 789.0,6369.0 773.0,6369.0 C 707.0,6367.0 507.0,6391.0 474.0,6405.0 C 454.0,6413.0 432.0,6420.0 425.0,6420.0 C 404.0,6420.0 273.0,6311.0 266.0,6288.0 C 250.0,6227.0 272.0,6059.0 306.0,5988.0 C 316.0,5966.0 320.0,5945.0 315.0,5933.0 C 308.0,5916.0 307.0,5916.0 300.0,5935.0 C 294.0,5952.0 292.0,5950.0 285.0,5920.0 C 281.0,5901.0 277.0,5858.0 277.0,5825.0 C 277.0,5759.0 305.0,5689.0 340.0,5670.0 C 369.0,5654.0 396.0,5596.0 416.0,5502.0 C 432.0,5427.0 438.0,5414.0 484.0,5364.0 C 545.0,5297.0 587.0,5283.0 656.0,5307.0 C 690.0,5318.0 711.0,5336.0 744.0,5379.0 C 807.0,5460.0 812.0,5464.0 854.0,5450.0 C 902.0,5434.0 912.0,5420.0 895.0,5390.0 C 887.0,5376.0 874.0,5350.0 865.0,5332.0 C 855.0,5311.0 824.0,5282.0 777.0,5252.0 C 628.0,5153.0 610.0,5138.0 610.0,5109.0 C 610.0,5094.0 614.0,5070.0 620.0,5056.0 C 625.0,5042.0 626.0,5030.0 623.0,5030.0 C 619.0,5030.0 587.0,5060.0 551.0,5096.0 C 462.0,5185.0 401.0,5210.0 270.0,5210.0 C 196.0,5210.0 166.0,5214.0 137.0,5229.0 C 117.0,5239.0 100.0,5246.0 100.0,5244.0 C 100.0,5241.0 109.0,5221.0 121.0,5199.0 C 139.0,5163.0 140.0,5148.0 134.0,5066.0 C 129.0,4993.0 131.0,4968.0 143.0,4944.0 C 168.0,4895.0 237.0,4824.0 310.0,4770.0 C 385.0,4716.0 425.0,4664.0 435.0,4607.0 C 439.0,4586.0 456.0,4557.0 478.0,4536.0 C 542.0,4472.0 572.0,4342.0 550.0,4225.0 C 543.0,4189.0 540.0,4156.0 544.0,4153.0 C 547.0,4150.0 576.0,4165.0 607.0,4187.0 C 639.0,4209.0 693.0,4241.0 726.0,4258.0 C 760.0,4275.0 796.0,4301.0 806.0,4315.0 C 817.0,4329.0 843.0,4347.0 865.0,4355.0 C 911.0,4371.0 998.0,4374.0 1033.0,4361.0 C 1051.0,4354.0 1063.0,4355.0 1076.0,4365.0 C 1087.0,4373.0 1098.0,4380.0 1103.0,4380.0 C 1113.0,4380.0 1112.0,4336.0 1100.0,4306.0 C 1092.0,4284.0 1100.0,4269.0 1177.0,4168.0 C 1224.0,4106.0 1278.0,4039.0 1296.0,4019.0 C 1313.0,3999.0 1331.0,3972.0 1335.0,3959.0 C 1347.0,3920.0 1371.0,3900.0 1412.0,3894.0 C 1458.0,3886.0 1460.0,3877.0 1418.0,3865.0 C 1391.0,3857.0 1384.0,3848.0 1376.0,3816.0 C 1364.0,3764.0 1385.0,3646.0 1415.0,3594.0 C 1428.0,3571.0 1437.0,3550.0 1433.0,3547.0 C 1430.0,3544.0 1431.0,3520.0 1434.0,3495.0 L 1441.0,3450.0 L 1533.0,3406.0 C 1584.0,3381.0 1643.0,3350.0 1665.0,3335.0 L 1705.0,3310.0 L 1665.0,3316.0 C 1643.0,3319.0 1613.0,3330.0 1599.0,3340.0 C 1584.0,3350.0 1544.0,3371.0 1510.0,3385.0 C 1435.0,3417.0 1400.0,3413.0 1345.0,3370.0 C 1324.0,3353.0 1285.0,3332.0 1259.0,3323.0 C 1218.0,3308.0 1211.0,3302.0 1216.0,3285.0 C 1226.0,3255.0 1308.0,3167.0 1344.0,3148.0 C 1374.0,3132.0 1423.0,3083.0 1502.0,2988.0 C 1533.0,2950.0 1551.0,2939.0 1625.0,2914.0 C 1721.0,2882.0 1714.0,2880.0 1752.0,2949.0 C 1773.0,2987.0 1827.0,3003.0 1885.0,2990.0 C 1907.0,2985.0 1939.0,2980.0 1955.0,2980.0 C 1991.0,2980.0 2015.0,2966.0 2006.0,2951.0 C 2001.0,2943.0 1990.0,2944.0 1970.0,2955.0 C 1927.0,2977.0 1828.0,2975.0 1806.0,2951.0 C 1786.0,2929.0 1767.0,2824.0 1779.0,2801.0 C 1792.0,2777.0 1831.0,2745.0 1867.0,2726.0 C 1884.0,2717.0 1908.0,2693.0 1920.0,2672.0 C 1937.0,2641.0 1952.0,2630.0 1994.0,2616.0 C 2030.0,2603.0 2060.0,2600.0 2086.0,2604.0 C 2109.0,2608.0 2139.0,2606.0 2155.0,2600.0 C 2230.0,2571.0 2359.0,2538.0 2401.0,2537.0 C 2444.0,2536.0 2452.0,2541.0 2535.0,2611.0 C 2583.0,2652.0 2643.0,2700.0 2668.0,2719.0 C 2709.0,2749.0 2743.0,2784.0 2775.0,2827.0 C 2782.0,2837.0 2795.0,2839.0 2813.0,2835.0 C 2845.0,2827.0 2849.0,2810.0 2820.0,2810.0 C 2805.0,2810.0 2794.0,2797.0 2781.0,2766.0 C 2769.0,2740.0 2754.0,2721.0 2741.0,2717.0 C 2720.0,2712.0 2696.0,2668.0 2685.0,2617.0 C 2682.0,2599.0 2668.0,2582.0 2648.0,2572.0 C 2594.0,2542.0 2560.0,2509.0 2560.0,2485.0 C 2560.0,2460.0 2600.0,2416.0 2643.0,2393.0 C 2674.0,2377.0 2670.0,2376.0 2741.0,2431.0 C 2760.0,2445.0 2793.0,2468.0 2815.0,2481.0 L 2855.0,2504.0 L 2839.0,2480.0 C 2830.0,2466.0 2803.0,2440.0 2779.0,2421.0 C 2755.0,2403.0 2734.0,2381.0 2732.0,2373.0 C 2730.0,2366.0 2744.0,2341.0 2764.0,2320.0 C 2784.0,2298.0 2800.0,2275.0 2800.0,2269.0 C 2800.0,2263.0 2809.0,2227.0 2821.0,2189.0 C 2846.0,2106.0 2869.0,2090.0 2957.0,2090.0 C 2988.0,2090.0 3034.0,2083.0 3058.0,2073.0 C 3092.0,2060.0 3110.0,2059.0 3145.0,2067.0 C 3180.0,2075.0 3187.0,2074.0 3183.0,2063.0 C 3174.0,2041.0 3124.0,2020.0 3079.0,2020.0 C 3032.0,2020.0 2923.0,2002.0 2900.0,1990.0 C 2892.0,1986.0 2869.0,1953.0 2849.0,1916.0 C 2829.0,1879.0 2801.0,1837.0 2786.0,1822.0 C 2754.0,1788.0 2754.0,1767.0 2783.0,1715.0 C 2805.0,1676.0 2807.0,1675.0 2864.0,1672.0 C 2897.0,1670.0 2936.0,1674.0 2952.0,1681.0 C 2976.0,1691.0 2984.0,1690.0 3001.0,1674.0 C 3020.0,1657.0 3020.0,1655.0 3004.0,1650.0 C 2985.0,1643.0 3011.0,1626.0 3149.0,1554.0 C 3244.0,1505.0 3224.0,1497.0 3122.0,1544.0 C 3038.0,1583.0 2954.0,1600.0 2846.0,1600.0 C 2788.0,1600.0 2770.0,1596.0 2734.0,1573.0 C 2710.0,1557.0 2690.0,1542.0 2690.0,1538.0 C 2690.0,1529.0 2721.0,1520.0 2940.0,1469.0 C 3125.0,1425.0 3427.0,1319.0 3800.0,1167.0 C 3907.0,1124.0 4007.0,1087.0 4021.0,1087.0 C 4036.0,1086.0 4057.0,1077.0 4068.0,1067.0 C 4078.0,1057.0 4145.0,1027.0 4216.0,999.0 C 4287.0,971.0 4366.0,939.0 4393.0,929.0 C 4419.0,919.0 4448.0,910.0 4458.0,910.0 C 4468.0,910.0 4499.0,899.0 4526.0,885.0 C 4553.0,871.0 4618.0,841.0 4670.0,819.0 C 4722.0,796.0 4797.0,757.0 4835.0,731.0 C 4874.0,705.0 5011.0,632.0 5140.0,570.0 C 5273.0,505.0 5387.0,444.0 5402.0,428.0 C 5417.0,413.0 5436.0,400.0 5446.0,400.0 C 5455.0,400.0 5478.0,387.0 5497.0,370.0 C 5515.0,354.0 5537.0,340.0 5544.0,340.0 C 5551.0,340.0 5565.0,321.0 5574.0,298.0 C 5584.0,271.0 5607.0,241.0 5636.0,218.0 L 5682.0,180.0 L 5724.0,210.0 C 5746.0,226.0 5781.0,243.0 5800.0,246.0 L 5835.0,253.0 L 5811.0,227.0 C 5798.0,212.0 5777.0,184.0 5765.0,163.0 L 5742.0,126.0 L 5794.0,104.0 C 5822.0,92.0 5883.0,66.0 5929.0,46.0 C 6042.0,-3.0 6088.0,-9.0 6135.0,20.0 C 6167.0,40.0 6176.0,41.0 6215.0,31.0 C 6276.0,16.0 6279.0,16.0 6291.0,46.0 C 6298.0,67.0 6297.0,77.0 6283.0,92.0 C 6267.0,110.0 6268.0,111.0 6288.0,126.0 C 6300.0,134.0 6310.0,145.0 6310.0,149.0 C 6310.0,158.0 6359.0,214.0 6424.0,280.0 C 6454.0,310.0 6459.0,324.0 6461.0,365.0 C 6462.0,393.0 6460.0,430.0 6455.0,448.0 L 6447.0,482.0 L 6500.0,479.0 C 6548.0,476.0 6554.0,478.0 6562.0,501.0 C 6575.0,533.0 6563.0,645.0 6544.0,682.0 L 6528.0,712.0 L 6570.0,705.0 L 6612.0,698.0 L 6595.0,728.0 C 6578.0,755.0 6578.0,759.0 6594.0,781.0 C 6603.0,794.0 6610.0,820.0 6611.0,840.0 C 6612.0,882.0 6632.0,942.0 6648.0,948.0 C 6654.0,950.0 6662.0,935.0 6666.0,916.0 C 6669.0,896.0 6675.0,880.0 6679.0,880.0 C 6683.0,880.0 6698.0,905.0 6713.0,935.0 C 6737.0,985.0 6743.0,990.0 6780.0,996.0 C 6808.0,1001.0 6827.0,1011.0 6837.0,1026.0 C 6846.0,1040.0 6869.0,1054.0 6894.0,1060.0 C 6990.0,1085.0 7041.0,1112.0 7076.0,1158.0 C 7095.0,1183.0 7110.0,1207.0 7110.0,1212.0 C 7110.0,1218.0 7130.0,1245.0 7155.0,1273.0 C 7180.0,1302.0 7200.0,1335.0 7200.0,1347.0 C 7200.0,1368.0 7236.0,1404.0 7268.0,1415.0 C 7278.0,1417.0 7296.0,1439.0 7309.0,1463.0 C 7326.0,1494.0 7348.0,1515.0 7384.0,1535.0 C 7412.0,1550.0 7462.0,1589.0 7495.0,1621.0 C 7528.0,1653.0 7576.0,1688.0 7602.0,1700.0 C 7628.0,1711.0 7652.0,1729.0 7655.0,1741.0 C 7659.0,1752.0 7709.0,1796.0 7767.0,1840.0 C 7854.0,1905.0 7877.0,1918.0 7899.0,1914.0 C 7920.0,1910.0 7936.0,1916.0 7971.0,1944.0 C 7995.0,1964.0 8056.0,2007.0 8105.0,2041.0 C 8214.0,2115.0 8235.0,2134.0 8263.0,2182.0 C 8278.0,2210.0 8288.0,2219.0 8302.0,2214.0 C 8312.0,2211.0 8333.0,2217.0 8350.0,2227.0 C 8372.0,2240.0 8380.0,2252.0 8380.0,2273.0 C 8380.0,2333.0 8404.0,2383.0 8457.0,2436.0 C 8486.0,2465.0 8520.0,2490.0 8532.0,2492.0 C 8549.0,2494.0 8566.0,2518.0 8600.0,2582.0 C 8645.0,2667.0 8680.0,2704.0 8740.0,2730.0 C 8754.0,2736.0 8774.0,2750.0 8786.0,2761.0 C 8798.0,2772.0 8835.0,2786.0 8868.0,2792.0 C 8970.0,2811.0 8964.0,2783.0 8970.0,3290.0 L 8975.0,3724.0 L 9038.0,3743.0 C 9084.0,3757.0 9100.0,3766.0 9100.0,3780.0 C 9100.0,3790.0 9117.0,3820.0 9138.0,3847.0 C 9159.0,3873.0 9195.0,3930.0 9218.0,3972.0 C 9261.0,4048.0 9261.0,4049.0 9326.0,4070.0 C 9385.0,4090.0 9403.0,4091.0 9514.0,4085.0 C 9633.0,4078.0 9639.0,4079.0 9669.0,4101.0 C 9699.0,4123.0 9701.0,4123.0 9737.0,4106.0 C 9766.0,4092.0 9775.0,4091.0 9779.0,4101.0 C 9786.0,4122.0 9861.0,4199.0 9910.0,4235.0 C 9971.0,4279.0 9979.0,4308.0 9947.0,4363.0 C 9931.0,4391.0 9921.0,4428.0 9917.0,4473.0 C 9911.0,4534.0 9913.0,4547.0 9935.0,4588.0 C 9949.0,4614.0 9960.0,4645.0 9960.0,4656.0 C 9960.0,4668.0 9969.0,4697.0 9980.0,4721.0 C 9991.0,4745.0 10000.0,4780.0 10000.0,4798.0 C 10000.0,4816.0 10012.0,4849.0 10027.0,4873.0 C 10051.0,4911.0 10054.0,4926.0 10058.0,5042.0 L 10063.0,5168.0 L 10101.0,5186.0 C 10123.0,5195.0 10140.0,5206.0 10140.0,5210.0 C 10140.0,5223.0 10010.0,5272.0 9945.0,5285.0 C 9892.0,5295.0 9880.0,5294.0 9842.0,5278.0 C 9818.0,5268.0 9783.0,5260.0 9764.0,5260.0 C 9704.0,5260.0 9664.0,5223.0 9614.0,5121.0 C 9565.0,5021.0 9563.0,5018.0 9438.0,4918.0 C 9390.0,4879.0 9331.0,4822.0 9307.0,4790.0 C 9246.0,4708.0 9155.0,4634.0 9103.0,4626.0 C 9062.0,4619.0 9061.0,4619.0 9035.0,4664.0 L 9008.0,4710.0 L 8925.0,4710.0 C 8846.0,4710.0 8841.0,4711.0 8821.0,4737.0 L 8801.0,4765.0 L 8762.0,4680.0 C 8707.0,4563.0 8650.0,4504.0 8650.0,4565.0 C 8650.0,4578.0 8645.0,4600.0 8639.0,4613.0 C 8630.0,4633.0 8633.0,4645.0 8659.0,4687.0 C 8678.0,4717.0 8690.0,4751.0 8690.0,4771.0 C 8690.0,4820.0 8711.0,4844.0 8784.0,4878.0 L 8848.0,4908.0 L 8848.0,4959.0 C 8848.0,5019.0 8876.0,5141.0 8901.0,5192.0 C 8912.0,5213.0 8920.0,5245.0 8920.0,5263.0 C 8920.0,5286.0 8930.0,5310.0 8951.0,5336.0 C 9006.0,5404.0 9070.0,5508.0 9070.0,5529.0 C 9070.0,5544.0 9076.0,5550.0 9093.0,5550.0 C 9105.0,5550.0 9132.0,5561.0 9152.0,5575.0 C 9177.0,5592.0 9203.0,5600.0 9232.0,5600.0 C 9270.0,5600.0 9283.0,5607.0 9340.0,5656.0 C 9413.0,5718.0 9418.0,5727.0 9419.0,5790.0 C 9420.0,5855.0 9406.0,5897.0 9372.0,5925.0 C 9338.0,5953.0 9316.0,6023.0 9331.0,6051.0 C 9344.0,6077.0 9343.0,6080.0 9314.0,6080.0 C 9292.0,6080.0 9283.0,6091.0 9244.0,6174.0 C 9207.0,6253.0 9196.0,6268.0 9172.0,6273.0 C 9145.0,6279.0 9144.0,6280.0 9127.0,6406.0 C 9117.0,6481.0 9099.0,6562.0 9083.0,6604.0 C 9060.0,6666.0 9056.0,6693.0 9052.0,6812.0 C 9049.0,6943.0 9050.0,6951.0 9075.0,7000.0 L 9101.0,7050.0 L 9008.0,7110.0 C 8931.0,7160.0 8908.0,7170.0 8872.0,7170.0 C 8849.0,7170.0 8819.0,7177.0 8807.0,7185.0 C 8789.0,7197.0 8769.0,7198.0 8695.0,7190.0 C 8572.0,7177.0 8562.0,7177.0 8556.0,7198.0 C 8553.0,7207.0 8564.0,7265.0 8580.0,7325.0 C 8616.0,7456.0 8617.0,7480.0 8590.0,7487.0 C 8579.0,7490.0 8570.0,7498.0 8570.0,7505.0 C 8570.0,7528.0 8600.0,7543.0 8648.0,7545.0 C 8684.0,7546.0 8706.0,7554.0 8743.0,7580.0 C 8799.0,7620.0 8802.0,7639.0 8763.0,7710.0 L 8735.0,7760.0 L 8758.0,7799.0 C 8791.0,7858.0 8787.0,7892.0 8743.0,7941.0 C 8722.0,7964.0 8688.0,7994.0 8667.0,8007.0 C 8647.0,8020.0 8614.0,8053.0 8594.0,8080.0 C 8574.0,8108.0 8552.0,8130.0 8544.0,8130.0 C 8537.0,8130.0 8524.0,8144.0 8515.0,8160.0 C 8497.0,8196.0 8493.0,8196.0 8464.0,8169.0 C 8443.0,8149.0 8440.0,8149.0 8411.0,8165.0 C 8394.0,8173.0 8361.0,8181.0 8337.0,8182.0 L 8295.0,8182.0 L 8298.0,8235.0 L 8302.0,8287.0 L 8238.0,8333.0 C 8137.0,8408.0 8114.0,8430.0 8140.0,8430.0 C 8146.0,8430.0 8161.0,8437.0 8174.0,8445.0 C 8196.0,8459.0 8197.0,8464.0 8186.0,8491.0 C 8176.0,8518.0 8178.0,8528.0 8203.0,8572.0 C 8219.0,8600.0 8230.0,8623.0 8228.0,8625.0 C 8226.0,8626.0 8196.0,8642.0 8160.0,8660.0 C 8124.0,8678.0 8093.0,8694.0 8091.0,8696.0 C 8089.0,8698.0 8093.0,8713.0 8100.0,8729.0 C 8111.0,8757.0 8109.0,8762.0 8076.0,8806.0 C 8056.0,8832.0 8040.0,8859.0 8040.0,8866.0 C 8040.0,8874.0 8023.0,8891.0 8002.0,8904.0 C 7967.0,8926.0 7962.0,8935.0 7951.0,8992.0 C 7944.0,9026.0 7936.0,9061.0 7934.0,9068.0 C 7932.0,9076.0 7909.0,9080.0 7866.0,9080.0 C 7809.0,9080.0 7801.0,9083.0 7786.0,9105.0 C 7777.0,9118.0 7770.0,9149.0 7770.0,9173.0 C 7770.0,9216.0 7727.0,9359.0 7697.0,9415.0 C 7688.0,9432.0 7652.0,9471.0 7616.0,9503.0 C 7580.0,9535.0 7550.0,9567.0 7550.0,9574.0 C 7550.0,9593.0 7433.0,9702.0 7379.0,9733.0 C 7354.0,9748.0 7311.0,9763.0 7284.0,9766.0 C 7232.0,9773.0 7192.0,9790.0 7167.0,9814.0 C 7158.0,9824.0 7150.0,9862.0 7145.0,9922.0 C 7134.0,10062.0 7082.0,10150.0 7009.0,10150.0 C 6974.0,10150.0 6972.0,10152.0 6966.0,10188.0 L 6960.0,10227.0 L 6563.0,10233.0 C 6076.0,10241.0 4806.0,10240.0 4766.0,10231.0" fill="pink"/>
	<path d="M 2612.0,2617.0 C 2589.0,2593.0 2583.0,2560.0 2600.0,2560.0 C 2624.0,2560.0 2660.0,2594.0 2660.0,2616.0 C 2660.0,2646.0 2640.0,2647.0 2612.0,2617.0" fill="pink"/>
	<path d="M 920.0,2425.0 C 901.0,2406.0 878.0,2390.0 868.0,2390.0 C 828.0,2390.0 866.0,2346.0 913.0,2338.0 C 944.0,2332.0 946.0,2337.0 925.0,2364.0 C 905.0,2391.0 906.0,2397.0 933.0,2406.0 C 962.0,2414.0 991.0,2440.0 984.0,2451.0 C 974.0,2468.0 954.0,2460.0 920.0,2425.0" fill="pink"/>
	<path d="M 2540.0,2436.0 C 2540.0,2433.0 2550.0,2410.0 2562.0,2385.0 C 2585.0,2339.0 2597.0,2332.0 2630.0,2350.0 C 2653.0,2362.0 2646.0,2390.0 2620.0,2390.0 C 2610.0,2390.0 2588.0,2402.0 2571.0,2416.0 C 2554.0,2430.0 2540.0,2439.0 2540.0,2436.0" fill="pink"/>
	<path d="M 2085.0,2388.0 C 2069.0,2382.0 2046.0,2370.0 2035.0,2360.0 C 2005.0,2335.0 1979.0,2328.0 1962.0,2342.0 C 1941.0,2360.0 1745.0,2366.0 1725.0,2350.0 C 1711.0,2339.0 1711.0,2335.0 1726.0,2319.0 C 1749.0,2294.0 1736.0,2282.0 1711.0,2304.0 C 1697.0,2317.0 1690.0,2318.0 1684.0,2309.0 C 1679.0,2300.0 1674.0,2302.0 1664.0,2315.0 C 1653.0,2329.0 1644.0,2331.0 1613.0,2324.0 C 1592.0,2320.0 1548.0,2317.0 1514.0,2319.0 C 1469.0,2321.0 1451.0,2318.0 1441.0,2306.0 C 1433.0,2297.0 1421.0,2290.0 1414.0,2290.0 C 1406.0,2290.0 1384.0,2280.0 1365.0,2268.0 C 1327.0,2243.0 1318.0,2210.0 1349.0,2210.0 C 1359.0,2210.0 1371.0,2203.0 1374.0,2194.0 C 1383.0,2172.0 1382.0,2168.0 1369.0,2175.0 C 1363.0,2179.0 1330.0,2184.0 1295.0,2186.0 C 1249.0,2188.0 1228.0,2185.0 1220.0,2175.0 C 1204.0,2156.0 1217.0,2135.0 1235.0,2150.0 C 1251.0,2164.0 1328.0,2143.0 1380.0,2111.0 C 1402.0,2098.0 1432.0,2090.0 1461.0,2090.0 C 1490.0,2090.0 1512.0,2084.0 1520.0,2075.0 C 1529.0,2064.0 1555.0,2060.0 1626.0,2060.0 C 1715.0,2060.0 1721.0,2059.0 1753.0,2030.0 C 1779.0,2007.0 1797.0,2000.0 1828.0,2000.0 C 1851.0,2000.0 1873.0,1994.0 1880.0,1985.0 C 1889.0,1974.0 1903.0,1972.0 1931.0,1976.0 C 1982.0,1984.0 2013.0,1975.0 2052.0,1941.0 C 2091.0,1908.0 2139.0,1890.0 2190.0,1890.0 C 2213.0,1890.0 2238.0,1881.0 2260.0,1865.0 C 2279.0,1851.0 2301.0,1840.0 2311.0,1840.0 C 2320.0,1840.0 2333.0,1833.0 2340.0,1825.0 C 2347.0,1817.0 2363.0,1810.0 2377.0,1810.0 C 2394.0,1810.0 2419.0,1792.0 2456.0,1753.0 C 2515.0,1691.0 2515.0,1692.0 2498.0,1586.0 C 2493.0,1557.0 2520.0,1546.0 2567.0,1559.0 C 2616.0,1572.0 2620.0,1582.0 2620.0,1707.0 L 2620.0,1799.0 L 2670.0,1861.0 C 2714.0,1916.0 2720.0,1929.0 2720.0,1970.0 C 2720.0,2007.0 2715.0,2021.0 2695.0,2040.0 C 2667.0,2066.0 2660.0,2106.0 2685.0,2096.0 C 2703.0,2089.0 2720.0,2119.0 2720.0,2158.0 C 2720.0,2186.0 2706.0,2204.0 2665.0,2226.0 C 2654.0,2232.0 2623.0,2249.0 2597.0,2263.0 C 2542.0,2294.0 2523.0,2296.0 2475.0,2275.0 C 2432.0,2258.0 2422.0,2235.0 2445.0,2210.0 C 2466.0,2187.0 2460.0,2175.0 2432.0,2184.0 C 2393.0,2197.0 2389.0,2271.0 2426.0,2290.0 C 2488.0,2324.0 2473.0,2357.0 2382.0,2384.0 C 2329.0,2399.0 2235.0,2396.0 2224.0,2379.0 C 2215.0,2364.0 2170.0,2369.0 2164.0,2385.0 C 2157.0,2402.0 2129.0,2403.0 2085.0,2388.0" fill="pink"/>
	<path d="M 2690.0,2305.0 C 2690.0,2291.0 2757.0,2250.0 2780.0,2250.0 C 2802.0,2250.0 2788.0,2276.0 2754.0,2298.0 C 2713.0,2324.0 2690.0,2326.0 2690.0,2305.0" fill="pink"/>
	<path d="M 1110.0,2220.0 C 1110.0,2215.0 1115.0,2208.0 1120.0,2205.0 C 1126.0,2202.0 1130.0,2195.0 1130.0,2189.0 C 1130.0,2174.0 1111.0,2179.0 1091.0,2199.0 C 1073.0,2217.0 1060.0,2217.0 1060.0,2199.0 C 1060.0,2187.0 1126.0,2150.0 1148.0,2150.0 C 1161.0,2150.0 1170.0,2159.0 1174.0,2176.0 C 1178.0,2191.0 1180.0,2203.0 1178.0,2205.0 C 1165.0,2215.0 1110.0,2227.0 1110.0,2220.0" fill="pink"/>
	<path d="M 2730.0,2040.0 C 2730.0,2030.0 2739.0,2016.0 2750.0,2010.0 C 2773.0,1998.0 2777.0,2009.0 2760.0,2041.0 C 2746.0,2066.0 2730.0,2065.0 2730.0,2040.0" fill="pink"/>
	<path d="M 2797.0,2041.0 C 2790.0,2012.0 2824.0,1983.0 2845.0,2000.0 C 2853.0,2007.0 2860.0,2023.0 2860.0,2036.0 C 2860.0,2056.0 2855.0,2060.0 2831.0,2060.0 C 2811.0,2060.0 2801.0,2054.0 2797.0,2041.0" fill="pink"/>
</svg>
