<?xml version="1.0" ?>
<svg xmlns="http://www.w3.org/2000/svg" xmlns:ev="http://www.w3.org/2001/xml-events" xmlns:xlink="http://www.w3.org/1999/xlink" baseProfile="full" height="600px" version="1.1" viewBox="65.87900000000002 -1031.3210000000001 10102.242 12300.642" width="493px">
	<defs/>
	<path d="M 8766.0,10215.0 C 8762.0,10201.0 8748.0,10183.0 8735.0,10174.0 C 8711.0,10158.0 8708.0,10159.0 8690.0,10175.0 C 8664.0,10198.0 8639.0,10188.0 8610.0,10140.0 C 8587.0,10102.0 8583.0,10100.0 8535.0,10100.0 C 8508.0,10100.0 8480.0,10096.0 8474.0,10092.0 C 8453.0,10077.0 8430.0,10035.0 8430.0,10010.0 C 8430.0,9989.0 8423.0,9982.0 8388.0,9970.0 C 8362.0,9961.0 8340.0,9945.0 8331.0,9928.0 C 8317.0,9904.0 8317.0,9900.0 8333.0,9882.0 C 8356.0,9856.0 8355.0,9850.0 8314.0,9781.0 L 8278.0,9720.0 L 8216.0,9720.0 C 8170.0,9720.0 8135.0,9711.0 8072.0,9686.0 C 8026.0,9667.0 7961.0,9649.0 7926.0,9645.0 C 7847.0,9636.0 7818.0,9610.0 7765.0,9499.0 C 7731.0,9427.0 7726.0,9421.0 7682.0,9405.0 C 7656.0,9395.0 7626.0,9376.0 7614.0,9362.0 C 7592.0,9335.0 7594.0,9335.0 7465.0,9359.0 C 7416.0,9368.0 7388.0,9356.0 7305.0,9290.0 C 7272.0,9264.0 7209.0,9218.0 7165.0,9189.0 L 7085.0,9135.0 L 6905.0,9135.0 C 6727.0,9135.0 6725.0,9135.0 6678.0,9108.0 C 6652.0,9092.0 6625.0,9080.0 6618.0,9080.0 C 6611.0,9080.0 6588.0,9071.0 6568.0,9060.0 C 6547.0,9049.0 6496.0,9037.0 6448.0,9031.0 C 6332.0,9019.0 6247.0,8982.0 6190.0,8919.0 C 6151.0,8875.0 6136.0,8867.0 6075.0,8851.0 C 5998.0,8831.0 5926.0,8792.0 5835.0,8720.0 C 5802.0,8694.0 5746.0,8654.0 5710.0,8630.0 C 5674.0,8606.0 5413.0,8423.0 5129.0,8224.0 L 4613.0,7861.0 L 4485.0,7722.0 L 4358.0,7583.0 L 4253.0,7549.0 L 4147.0,7515.0 L 4097.0,7440.0 C 4070.0,7399.0 3946.0,7229.0 3821.0,7064.0 C 3635.0,6816.0 3588.0,6759.0 3554.0,6742.0 C 3525.0,6727.0 3501.0,6702.0 3465.0,6647.0 L 3416.0,6572.0 L 3345.0,6566.0 C 3304.0,6562.0 3220.0,6565.0 3140.0,6574.0 C 2887.0,6603.0 2675.0,6620.0 2574.0,6620.0 C 2484.0,6620.0 2466.0,6623.0 2389.0,6654.0 C 2343.0,6672.0 2282.0,6690.0 2253.0,6694.0 L 2201.0,6701.0 L 2110.0,6568.0 C 2060.0,6495.0 1988.0,6392.0 1950.0,6340.0 L 1881.0,6245.0 L 1823.0,6238.0 C 1704.0,6223.0 1700.0,6222.0 1700.0,6191.0 C 1700.0,6148.0 1644.0,6110.0 1625.0,6140.0 C 1617.0,6153.0 1563.0,6153.0 1555.0,6140.0 C 1545.0,6124.0 1487.0,6141.0 1448.0,6172.0 C 1425.0,6190.0 1373.0,6212.0 1313.0,6229.0 C 1259.0,6245.0 1179.0,6272.0 1136.0,6289.0 L 1057.0,6321.0 L 1020.0,6285.0 C 973.0,6239.0 942.0,6142.0 924.0,5985.0 L 912.0,5875.0 L 947.0,5733.0 L 983.0,5590.0 L 963.0,5402.0 C 931.0,5112.0 946.0,5049.0 1078.0,4905.0 C 1119.0,4861.0 1147.0,4840.0 1187.0,4825.0 C 1220.0,4813.0 1287.0,4768.0 1360.0,4711.0 C 1486.0,4612.0 1522.0,4568.0 1553.0,4475.0 C 1565.0,4440.0 1580.0,4419.0 1603.0,4404.0 C 1633.0,4384.0 1638.0,4374.0 1652.0,4304.0 C 1661.0,4260.0 1680.0,4199.0 1694.0,4167.0 C 1715.0,4120.0 1725.0,4108.0 1749.0,4104.0 C 1776.0,4098.0 1778.0,4095.0 1783.0,4032.0 C 1786.0,3995.0 1792.0,3957.0 1795.0,3948.0 C 1801.0,3934.0 1797.0,3930.0 1779.0,3930.0 C 1732.0,3930.0 1729.0,3920.0 1750.0,3840.0 C 1769.0,3766.0 1769.0,3763.0 1751.0,3692.0 C 1734.0,3629.0 1724.0,3611.0 1668.0,3548.0 C 1634.0,3509.0 1576.0,3453.0 1541.0,3424.0 C 1476.0,3370.0 1447.0,3328.0 1328.0,3115.0 C 1274.0,3018.0 1272.0,3012.0 1266.0,2919.0 C 1259.0,2825.0 1260.0,2818.0 1350.0,2411.0 C 1428.0,2060.0 1453.0,1964.0 1516.0,1780.0 L 1590.0,1564.0 L 1574.0,1517.0 C 1560.0,1476.0 1553.0,1469.0 1520.0,1459.0 C 1485.0,1448.0 1477.0,1439.0 1426.0,1340.0 C 1378.0,1248.0 1370.0,1225.0 1370.0,1178.0 C 1370.0,1128.0 1365.0,1117.0 1305.0,1030.0 L 1239.0,935.0 L 1327.0,906.0 C 1397.0,883.0 1429.0,866.0 1487.0,819.0 C 1526.0,786.0 1566.0,760.0 1575.0,760.0 C 1585.0,760.0 1617.0,746.0 1648.0,728.0 C 1735.0,678.0 1838.0,662.0 1985.0,675.0 C 2145.0,689.0 2318.0,735.0 2332.0,766.0 C 2338.0,779.0 2355.0,792.0 2371.0,795.0 C 2404.0,803.0 2412.0,812.0 2455.0,891.0 L 2488.0,953.0 L 2585.0,992.0 C 2674.0,1028.0 2683.0,1029.0 2695.0,1014.0 C 2704.0,1001.0 2716.0,999.0 2752.0,1004.0 L 2797.0,1011.0 L 2841.0,938.0 L 2885.0,865.0 L 2955.0,859.0 C 3016.0,854.0 3033.0,856.0 3085.0,879.0 C 3118.0,893.0 3169.0,920.0 3199.0,939.0 C 3230.0,958.0 3272.0,975.0 3295.0,977.0 C 3332.0,982.0 3337.0,980.0 3348.0,954.0 L 3361.0,927.0 L 3387.0,953.0 C 3413.0,978.0 3414.0,979.0 3442.0,962.0 C 3469.0,946.0 3471.0,947.0 3492.0,967.0 C 3511.0,987.0 3512.0,993.0 3502.0,1028.0 C 3495.0,1050.0 3490.0,1072.0 3490.0,1077.0 C 3490.0,1083.0 3519.0,1113.0 3555.0,1145.0 C 3618.0,1200.0 3626.0,1204.0 3736.0,1231.0 C 3799.0,1247.0 3855.0,1258.0 3859.0,1255.0 C 3864.0,1253.0 3871.0,1239.0 3874.0,1225.0 C 3878.0,1211.0 3890.0,1175.0 3900.0,1146.0 C 3920.0,1094.0 3923.0,1091.0 4074.0,995.0 C 4196.0,917.0 4232.0,889.0 4252.0,855.0 L 4277.0,813.0 L 4253.0,754.0 C 4234.0,707.0 4231.0,691.0 4240.0,677.0 C 4249.0,662.0 4248.0,654.0 4236.0,641.0 C 4202.0,603.0 4231.0,540.0 4303.0,495.0 L 4348.0,466.0 L 4334.0,427.0 C 4326.0,405.0 4320.0,377.0 4320.0,364.0 C 4320.0,321.0 4429.0,221.0 4493.0,205.0 C 4508.0,201.0 4529.0,183.0 4541.0,164.0 C 4553.0,145.0 4573.0,127.0 4588.0,123.0 C 4603.0,120.0 4635.0,103.0 4660.0,86.0 C 4687.0,67.0 4746.0,43.0 4807.0,26.0 L 4909.0,-2.0 L 4961.0,30.0 C 5026.0,70.0 5053.0,81.0 5109.0,90.0 C 5148.0,96.0 5164.0,92.0 5237.0,59.0 C 5283.0,37.0 5322.0,20.0 5324.0,20.0 C 5325.0,20.0 5338.0,51.0 5351.0,89.0 C 5373.0,156.0 5376.0,160.0 5420.0,176.0 C 5480.0,198.0 5522.0,224.0 5593.0,284.0 L 5653.0,333.0 L 5677.0,306.0 L 5701.0,278.0 L 5739.0,303.0 C 5783.0,332.0 5815.0,335.0 5980.0,325.0 C 6064.0,320.0 6100.0,322.0 6160.0,337.0 C 6232.0,355.0 6255.0,355.0 6708.0,341.0 C 6967.0,333.0 7182.0,329.0 7184.0,331.0 C 7192.0,338.0 7291.0,724.0 7304.0,795.0 C 7315.0,856.0 7326.0,878.0 7387.0,965.0 C 7425.0,1020.0 7469.0,1097.0 7484.0,1135.0 C 7499.0,1174.0 7528.0,1232.0 7548.0,1264.0 C 7578.0,1314.0 7583.0,1331.0 7581.0,1374.0 L 7578.0,1423.0 L 7669.0,1512.0 L 7760.0,1600.0 L 7760.0,1659.0 C 7760.0,1716.0 7759.0,1718.0 7726.0,1734.0 C 7707.0,1743.0 7685.0,1750.0 7676.0,1750.0 C 7665.0,1750.0 7660.0,1759.0 7660.0,1782.0 C 7660.0,1801.0 7651.0,1823.0 7639.0,1837.0 C 7619.0,1858.0 7618.0,1863.0 7629.0,1917.0 C 7641.0,1973.0 7639.0,2267.0 7627.0,2300.0 C 7620.0,2318.0 7611.0,2391.0 7604.0,2485.0 C 7597.0,2562.0 7592.0,2550.0 7690.0,2677.0 C 7715.0,2709.0 7743.0,2741.0 7752.0,2748.0 C 7761.0,2754.0 7772.0,2775.0 7776.0,2793.0 C 7784.0,2830.0 7853.0,2930.0 7902.0,2976.0 C 7947.0,3019.0 8024.0,3043.0 8088.0,3034.0 C 8133.0,3028.0 8145.0,3031.0 8206.0,3064.0 C 8332.0,3130.0 8363.0,3159.0 8408.0,3252.0 C 8448.0,3332.0 8450.0,3340.0 8450.0,3429.0 C 8450.0,3514.0 8452.0,3526.0 8475.0,3556.0 C 8491.0,3577.0 8500.0,3602.0 8500.0,3625.0 C 8500.0,3694.0 8529.0,3783.0 8565.0,3820.0 C 8619.0,3877.0 8697.0,4027.0 8705.0,4090.0 C 8713.0,4152.0 8737.0,4184.0 8826.0,4250.0 C 8881.0,4291.0 8916.0,4343.0 8946.0,4429.0 C 8974.0,4508.0 9038.0,4559.0 9139.0,4580.0 L 9215.0,4596.0 L 9268.0,4736.0 L 9322.0,4875.0 L 9322.0,5045.0 L 9322.0,5215.0 L 9272.0,5405.0 C 9244.0,5510.0 9207.0,5655.0 9190.0,5728.0 L 9158.0,5862.0 L 8991.0,6153.0 C 8899.0,6314.0 8787.0,6502.0 8742.0,6572.0 L 8660.0,6699.0 L 8750.0,6926.0 L 8839.0,7154.0 L 8791.0,7239.0 C 8746.0,7319.0 8742.0,7331.0 8736.0,7415.0 C 8732.0,7465.0 8718.0,7566.0 8705.0,7640.0 C 8692.0,7714.0 8671.0,7831.0 8660.0,7900.0 C 8648.0,7969.0 8637.0,8034.0 8634.0,8046.0 C 8629.0,8066.0 8634.0,8067.0 8726.0,8073.0 C 8815.0,8079.0 8826.0,8082.0 8854.0,8108.0 C 8871.0,8124.0 8905.0,8145.0 8930.0,8154.0 C 9079.0,8211.0 9091.0,8241.0 9030.0,8405.0 C 8998.0,8491.0 8990.0,8526.0 8990.0,8579.0 C 8990.0,8667.0 8963.0,8883.0 8945.0,8940.0 C 8938.0,8965.0 8926.0,9011.0 8920.0,9042.0 C 8910.0,9092.0 8911.0,9103.0 8928.0,9137.0 C 8939.0,9158.0 8958.0,9184.0 8970.0,9195.0 C 9006.0,9228.0 9050.0,9297.0 9050.0,9322.0 C 9050.0,9360.0 9142.0,9425.0 9234.0,9452.0 C 9295.0,9470.0 9309.0,9477.0 9304.0,9490.0 C 9300.0,9498.0 9296.0,9575.0 9294.0,9662.0 C 9293.0,9755.0 9285.0,9850.0 9276.0,9897.0 C 9267.0,9940.0 9254.0,10027.0 9247.0,10090.0 L 9235.0,10204.0 L 9203.0,10214.0 C 9159.0,10226.0 9142.0,10210.0 9138.0,10152.0 C 9136.0,10115.0 9130.0,10103.0 9111.0,10094.0 C 9092.0,10084.0 9082.0,10085.0 9055.0,10102.0 C 9036.0,10112.0 9016.0,10128.0 9010.0,10136.0 C 8993.0,10155.0 8962.0,10154.0 8919.0,10131.0 L 8882.0,10111.0 L 8863.0,10133.0 C 8852.0,10145.0 8838.0,10174.0 8831.0,10198.0 C 8821.0,10232.0 8815.0,10240.0 8796.0,10240.0 C 8779.0,10240.0 8770.0,10233.0 8766.0,10215.0" fill="pink"/>
</svg>
