<?xml version="1.0" ?>
<svg xmlns="http://www.w3.org/2000/svg" xmlns:ev="http://www.w3.org/2001/xml-events" xmlns:xlink="http://www.w3.org/1999/xlink" baseProfile="full" height="489px" version="1.1" viewBox="-1028.4702563718527 112.94141162553501 12297.530920402178 10015.99091895048" width="600px">
	<defs/>
	<path d="M 4714.0,9276.0 C 4711.0,9268.0 4697.0,9254.0 4684.0,9245.0 C 4660.0,9230.0 4656.0,9230.0 4613.0,9255.0 C 4575.0,9278.0 4564.0,9280.0 4544.0,9271.0 C 4515.0,9258.0 4514.0,9243.0 4540.0,9210.0 C 4564.0,9179.0 4564.0,9171.0 4544.0,9149.0 C 4531.0,9134.0 4517.0,9132.0 4466.0,9137.0 C 4416.0,9141.0 4395.0,9138.0 4355.0,9121.0 C 4312.0,9103.0 4296.0,9101.0 4242.0,9108.0 C 4190.0,9115.0 4164.0,9113.0 4094.0,9095.0 C 4003.0,9071.0 3980.0,9075.0 3942.0,9119.0 C 3928.0,9135.0 3916.0,9137.0 3869.0,9133.0 L 3813.0,9128.0 L 3818.0,9084.0 C 3822.0,9044.0 3821.0,9041.0 3795.0,9034.0 C 3780.0,9030.0 3741.0,9030.0 3709.0,9033.0 C 3652.0,9038.0 3648.0,9037.0 3614.0,9005.0 C 3564.0,8958.0 3540.0,8955.0 3446.0,8983.0 C 3401.0,8997.0 3314.0,9015.0 3252.0,9023.0 C 3149.0,9036.0 3133.0,9036.0 3089.0,9022.0 C 3050.0,9009.0 3033.0,9008.0 3010.0,9017.0 C 2986.0,9026.0 2971.0,9025.0 2938.0,9012.0 L 2897.0,8996.0 L 2863.0,9035.0 C 2845.0,9056.0 2826.0,9088.0 2822.0,9104.0 C 2810.0,9149.0 2768.0,9151.0 2712.0,9110.0 C 2676.0,9084.0 2662.0,9080.0 2606.0,9080.0 C 2542.0,9080.0 2510.0,9066.0 2510.0,9037.0 C 2510.0,9030.0 2496.0,9005.0 2480.0,8980.0 C 2463.0,8954.0 2450.0,8922.0 2450.0,8904.0 C 2450.0,8886.0 2442.0,8866.0 2431.0,8856.0 C 2420.0,8846.0 2408.0,8820.0 2405.0,8798.0 C 2400.0,8771.0 2391.0,8756.0 2375.0,8748.0 C 2347.0,8735.0 2331.0,8702.0 2337.0,8669.0 C 2339.0,8653.0 2329.0,8626.0 2306.0,8589.0 C 2276.0,8542.0 2266.0,8533.0 2246.0,8537.0 C 2229.0,8541.0 2213.0,8532.0 2186.0,8505.0 C 2151.0,8470.0 2149.0,8465.0 2151.0,8412.0 C 2154.0,8329.0 2127.0,8253.0 2079.0,8210.0 L 2040.0,8175.0 L 2015.0,8010.0 C 1977.0,7763.0 1961.0,7722.0 1863.0,7616.0 C 1819.0,7568.0 1795.0,7533.0 1787.0,7503.0 C 1780.0,7474.0 1746.0,7423.0 1684.0,7346.0 C 1633.0,7283.0 1589.0,7219.0 1586.0,7203.0 C 1581.0,7184.0 1566.0,7166.0 1539.0,7150.0 C 1509.0,7132.0 1467.0,7082.0 1387.0,6970.0 C 1327.0,6885.0 1227.0,6757.0 1166.0,6685.0 C 1105.0,6614.0 1039.0,6535.0 1020.0,6510.0 C 1001.0,6485.0 931.0,6408.0 864.0,6339.0 C 770.0,6240.0 739.0,6201.0 725.0,6162.0 L 707.0,6112.0 L 436.0,6006.0 C 287.0,5948.0 152.0,5900.0 136.0,5900.0 C 120.0,5900.0 83.0,5892.0 53.0,5883.0 C -12.0,5863.0 -16.0,5841.0 38.0,5805.0 C 59.0,5791.0 89.0,5758.0 105.0,5730.0 C 121.0,5703.0 137.0,5680.0 141.0,5680.0 C 144.0,5680.0 158.0,5708.0 171.0,5743.0 L 196.0,5805.0 L 248.0,5808.0 C 293.0,5811.0 309.0,5806.0 351.0,5781.0 C 378.0,5764.0 412.0,5750.0 425.0,5750.0 C 459.0,5750.0 520.0,5710.0 554.0,5665.0 C 570.0,5644.0 594.0,5596.0 607.0,5556.0 C 621.0,5517.0 642.0,5474.0 655.0,5460.0 C 670.0,5443.0 679.0,5417.0 684.0,5380.0 C 687.0,5350.0 695.0,5323.0 701.0,5321.0 C 736.0,5310.0 822.0,5224.0 867.0,5157.0 C 907.0,5095.0 919.0,5068.0 923.0,5027.0 C 931.0,4946.0 951.0,4886.0 977.0,4866.0 C 1001.0,4849.0 1001.0,4849.0 995.0,4877.0 L 989.0,4905.0 L 1006.0,4875.0 C 1019.0,4854.0 1023.0,4828.0 1021.0,4783.0 L 1019.0,4722.0 L 1054.0,4709.0 C 1074.0,4702.0 1090.0,4691.0 1090.0,4684.0 C 1090.0,4678.0 1097.0,4666.0 1106.0,4659.0 C 1121.0,4647.0 1122.0,4616.0 1118.0,4383.0 C 1115.0,4185.0 1117.0,4123.0 1126.0,4130.0 C 1133.0,4136.0 1139.0,4187.0 1142.0,4257.0 C 1147.0,4373.0 1148.0,4375.0 1178.0,4400.0 C 1207.0,4424.0 1239.0,4484.0 1253.0,4540.0 C 1258.0,4560.0 1269.0,4568.0 1302.0,4577.0 C 1343.0,4588.0 1343.0,4588.0 1322.0,4572.0 C 1310.0,4563.0 1290.0,4534.0 1277.0,4508.0 C 1255.0,4465.0 1255.0,4460.0 1270.0,4460.0 C 1279.0,4460.0 1295.0,4451.0 1305.0,4440.0 C 1334.0,4408.0 1371.0,4415.0 1415.0,4461.0 C 1437.0,4484.0 1475.0,4516.0 1500.0,4534.0 C 1559.0,4574.0 1634.0,4656.0 1620.0,4665.0 C 1615.0,4668.0 1610.0,4683.0 1610.0,4697.0 L 1610.0,4723.0 L 1631.0,4696.0 C 1657.0,4663.0 1710.0,4659.0 1710.0,4690.0 C 1710.0,4716.0 1753.0,4727.0 1783.0,4708.0 C 1802.0,4695.0 1816.0,4695.0 1880.0,4706.0 C 1944.0,4717.0 1958.0,4717.0 1978.0,4704.0 C 2016.0,4679.0 1999.0,4649.0 1959.0,4671.0 C 1942.0,4679.0 1923.0,4679.0 1879.0,4670.0 C 1829.0,4659.0 1815.0,4660.0 1782.0,4673.0 C 1740.0,4690.0 1730.0,4687.0 1730.0,4659.0 C 1730.0,4642.0 1703.0,4630.0 1664.0,4630.0 C 1653.0,4630.0 1628.0,4614.0 1609.0,4594.0 C 1591.0,4574.0 1556.0,4545.0 1533.0,4529.0 C 1502.0,4507.0 1490.0,4492.0 1490.0,4475.0 C 1490.0,4446.0 1495.0,4445.0 1530.0,4465.0 C 1559.0,4482.0 1600.0,4485.0 1600.0,4470.0 C 1600.0,4465.0 1609.0,4460.0 1620.0,4460.0 C 1633.0,4460.0 1640.0,4467.0 1640.0,4479.0 C 1640.0,4489.0 1651.0,4505.0 1664.0,4514.0 C 1686.0,4528.0 1693.0,4528.0 1727.0,4515.0 C 1765.0,4502.0 1765.0,4501.0 1735.0,4501.0 C 1672.0,4499.0 1660.0,4491.0 1660.0,4450.0 C 1660.0,4429.0 1654.0,4407.0 1646.0,4401.0 C 1638.0,4395.0 1630.0,4377.0 1627.0,4362.0 C 1624.0,4347.0 1611.0,4307.0 1599.0,4272.0 C 1587.0,4238.0 1580.0,4207.0 1583.0,4204.0 C 1593.0,4194.0 1627.0,4223.0 1637.0,4251.0 C 1654.0,4294.0 1670.0,4286.0 1670.0,4235.0 C 1670.0,4195.0 1667.0,4190.0 1648.0,4190.0 C 1617.0,4190.0 1607.0,4181.0 1595.0,4145.0 C 1585.0,4117.0 1582.0,4116.0 1537.0,4119.0 C 1479.0,4122.0 1475.0,4105.0 1530.0,4089.0 C 1577.0,4075.0 1580.0,4058.0 1545.0,4006.0 C 1522.0,3973.0 1522.0,3970.0 1540.0,3970.0 C 1573.0,3970.0 1572.0,3935.0 1538.0,3856.0 C 1509.0,3787.0 1502.0,3779.0 1470.0,3770.0 C 1451.0,3765.0 1427.0,3760.0 1418.0,3760.0 C 1406.0,3760.0 1400.0,3752.0 1400.0,3737.0 C 1400.0,3710.0 1417.0,3690.0 1435.0,3696.0 C 1442.0,3699.0 1453.0,3688.0 1459.0,3671.0 C 1471.0,3643.0 1475.0,3642.0 1548.0,3636.0 C 1678.0,3626.0 3270.0,3576.0 3275.0,3582.0 C 3278.0,3585.0 3300.0,3640.0 3323.0,3704.0 L 3365.0,3822.0 L 3470.0,3865.0 L 3574.0,3908.0 L 3643.0,3873.0 L 3712.0,3839.0 L 3839.0,3889.0 C 3981.0,3947.0 4020.0,3951.0 4105.0,3919.0 C 4136.0,3907.0 4171.0,3901.0 4183.0,3904.0 C 4197.0,3908.0 4243.0,3893.0 4313.0,3863.0 C 4441.0,3808.0 4471.0,3775.0 4480.0,3681.0 C 4485.0,3628.0 4487.0,3625.0 4545.0,3579.0 L 4605.0,3532.0 L 4684.0,3576.0 L 4763.0,3620.0 L 4875.0,3585.0 L 4988.0,3550.0 L 5010.0,3477.0 C 5021.0,3438.0 5033.0,3398.0 5036.0,3390.0 C 5038.0,3382.0 5073.0,3353.0 5112.0,3325.0 C 5173.0,3283.0 5196.0,3273.0 5255.0,3264.0 C 5319.0,3254.0 5330.0,3255.0 5390.0,3277.0 C 5426.0,3290.0 5480.0,3315.0 5510.0,3332.0 C 5588.0,3376.0 5665.0,3400.0 5729.0,3400.0 C 5760.0,3401.0 5814.0,3407.0 5850.0,3415.0 C 5900.0,3425.0 5926.0,3426.0 5963.0,3417.0 C 6017.0,3405.0 6022.0,3399.0 6133.0,3239.0 L 6199.0,3143.0 L 6112.0,3058.0 C 6028.0,2976.0 6023.0,2973.0 5968.0,2966.0 C 5937.0,2963.0 5874.0,2951.0 5828.0,2940.0 C 5782.0,2929.0 5728.0,2920.0 5707.0,2920.0 C 5676.0,2920.0 5658.0,2911.0 5617.0,2876.0 C 5574.0,2840.0 5553.0,2830.0 5493.0,2817.0 L 5420.0,2803.0 L 5383.0,2831.0 C 5347.0,2858.0 5339.0,2859.0 5244.0,2860.0 L 5144.0,2860.0 L 5088.0,2910.0 C 5055.0,2940.0 5009.0,2968.0 4974.0,2981.0 C 4941.0,2993.0 4896.0,3016.0 4873.0,3031.0 C 4827.0,3063.0 4810.0,3065.0 4746.0,3049.0 C 4705.0,3039.0 4701.0,3040.0 4625.0,3086.0 C 4578.0,3114.0 4540.0,3146.0 4529.0,3165.0 C 4505.0,3206.0 4411.0,3250.0 4349.0,3250.0 C 4269.0,3251.0 4235.0,3266.0 4118.0,3353.0 C 4022.0,3426.0 4000.0,3448.0 3980.0,3490.0 C 3959.0,3535.0 3953.0,3540.0 3925.0,3540.0 C 3902.0,3540.0 3872.0,3525.0 3824.0,3490.0 L 3756.0,3440.0 L 3725.0,3328.0 L 3695.0,3215.0 L 3620.0,3178.0 C 3553.0,3145.0 3537.0,3141.0 3463.0,3141.0 C 3387.0,3140.0 3374.0,3143.0 3305.0,3177.0 L 3230.0,3214.0 L 3151.0,3175.0 L 3071.0,3136.0 L 2978.0,3157.0 C 2901.0,3175.0 2881.0,3176.0 2860.0,3166.0 C 2844.0,3158.0 2811.0,3155.0 2768.0,3158.0 C 2730.0,3160.0 2700.0,3161.0 2699.0,3159.0 C 2699.0,3157.0 2693.0,3091.0 2685.0,3012.0 C 2678.0,2933.0 2669.0,2866.0 2666.0,2863.0 C 2661.0,2857.0 1573.0,2882.0 1220.0,2896.0 C 1092.0,2901.0 1067.0,2900.0 1078.0,2889.0 C 1096.0,2869.0 1093.0,2862.0 1059.0,2844.0 C 1033.0,2831.0 1029.0,2824.0 1033.0,2802.0 C 1036.0,2786.0 1030.0,2763.0 1016.0,2741.0 C 1004.0,2721.0 989.0,2693.0 983.0,2678.0 C 962.0,2631.0 890.0,2353.0 890.0,2322.0 C 890.0,2306.0 884.0,2290.0 876.0,2287.0 C 869.0,2284.0 860.0,2264.0 856.0,2243.0 C 852.0,2222.0 847.0,2192.0 844.0,2175.0 L 839.0,2145.0 L 854.0,2170.0 L 869.0,2195.0 L 870.0,2159.0 C 870.0,2137.0 863.0,2117.0 853.0,2109.0 C 839.0,2097.0 810.0,2041.0 810.0,2025.0 C 810.0,2013.0 838.0,2022.0 872.0,2045.0 C 892.0,2059.0 920.0,2070.0 934.0,2070.0 C 950.0,2070.0 960.0,2076.0 960.0,2084.0 C 960.0,2102.0 1046.0,2151.0 1064.0,2144.0 C 1072.0,2141.0 1096.0,2148.0 1119.0,2159.0 C 1183.0,2192.0 1190.0,2188.0 1190.0,2125.0 C 1190.0,2072.0 1189.0,2070.0 1146.0,2041.0 C 1122.0,2024.0 1100.0,2004.0 1096.0,1995.0 C 1088.0,1973.0 1070.0,1986.0 1070.0,2014.0 C 1070.0,2036.0 1068.0,2037.0 988.0,2032.0 C 905.0,2028.0 905.0,2028.0 868.0,1987.0 L 830.0,1945.0 L 836.0,1870.0 C 841.0,1808.0 839.0,1792.0 827.0,1781.0 C 818.0,1774.0 814.0,1762.0 817.0,1754.0 C 823.0,1739.0 875.0,1734.0 884.0,1748.0 C 887.0,1753.0 930.0,1781.0 979.0,1811.0 C 1055.0,1856.0 1070.0,1869.0 1070.0,1891.0 C 1070.0,1928.0 1088.0,1940.0 1145.0,1940.0 C 1188.0,1940.0 1200.0,1936.0 1224.0,1911.0 C 1256.0,1878.0 1295.0,1867.0 1311.0,1886.0 C 1328.0,1907.0 1340.0,1903.0 1340.0,1876.0 C 1340.0,1862.0 1351.0,1843.0 1365.0,1832.0 C 1379.0,1821.0 1390.0,1805.0 1390.0,1797.0 C 1390.0,1779.0 1436.0,1743.0 1465.0,1739.0 C 1491.0,1735.0 1530.0,1757.0 1530.0,1775.0 C 1530.0,1786.0 1543.0,1790.0 1580.0,1790.0 C 1637.0,1790.0 1644.0,1777.0 1607.0,1742.0 C 1591.0,1727.0 1565.0,1718.0 1523.0,1714.0 C 1471.0,1708.0 1455.0,1711.0 1402.0,1735.0 C 1355.0,1756.0 1330.0,1761.0 1300.0,1757.0 L 1260.0,1752.0 L 1230.0,1816.0 C 1213.0,1851.0 1193.0,1880.0 1187.0,1880.0 C 1180.0,1880.0 1150.0,1856.0 1121.0,1826.0 C 1092.0,1796.0 1051.0,1764.0 1030.0,1755.0 C 987.0,1736.0 980.0,1714.0 980.0,1596.0 C 980.0,1541.0 977.0,1529.0 968.0,1538.0 C 961.0,1545.0 953.0,1571.0 950.0,1597.0 C 945.0,1641.0 943.0,1645.0 912.0,1651.0 C 894.0,1655.0 870.0,1666.0 859.0,1676.0 C 840.0,1693.0 839.0,1693.0 818.0,1672.0 C 789.0,1643.0 781.0,1573.0 797.0,1483.0 C 815.0,1388.0 851.0,1330.0 894.0,1330.0 C 911.0,1330.0 972.0,1328.0 1030.0,1325.0 C 1088.0,1323.0 1195.0,1320.0 1268.0,1319.0 L 1400.0,1318.0 L 1574.0,1412.0 L 1747.0,1506.0 L 1799.0,1489.0 C 1846.0,1473.0 1860.0,1472.0 1967.0,1485.0 L 2084.0,1498.0 L 2143.0,1469.0 C 2196.0,1442.0 2207.0,1440.0 2268.0,1445.0 C 2318.0,1450.0 2374.0,1445.0 2490.0,1425.0 C 2575.0,1411.0 2656.0,1399.0 2670.0,1398.0 C 2684.0,1398.0 2889.0,1499.0 3126.0,1623.0 L 3557.0,1847.0 L 4591.0,1785.0 C 5160.0,1750.0 5861.0,1708.0 6150.0,1690.0 L 6675.0,1659.0 L 6730.0,1631.0 C 6780.0,1605.0 6788.0,1604.0 6815.0,1616.0 C 6861.0,1636.0 6927.0,1633.0 6961.0,1609.0 C 6982.0,1594.0 6998.0,1590.0 7020.0,1595.0 C 7038.0,1599.0 7070.0,1595.0 7100.0,1585.0 C 7142.0,1571.0 7155.0,1571.0 7184.0,1581.0 C 7215.0,1592.0 7222.0,1592.0 7240.0,1575.0 C 7270.0,1548.0 7265.0,1509.0 7225.0,1463.0 C 7193.0,1425.0 7190.0,1417.0 7190.0,1357.0 L 7190.0,1293.0 L 7228.0,1286.0 C 7248.0,1283.0 7278.0,1280.0 7294.0,1280.0 C 7312.0,1280.0 7334.0,1270.0 7350.0,1255.0 C 7374.0,1232.0 7380.0,1231.0 7408.0,1241.0 L 7440.0,1252.0 L 7440.0,1331.0 C 7440.0,1407.0 7441.0,1410.0 7468.0,1424.0 C 7497.0,1439.0 7497.0,1438.0 7561.0,1374.0 C 7596.0,1338.0 7641.0,1300.0 7660.0,1290.0 C 7679.0,1280.0 7706.0,1260.0 7719.0,1246.0 C 7742.0,1222.0 7750.0,1220.0 7829.0,1220.0 L 7915.0,1220.0 L 7983.0,1160.0 C 8021.0,1127.0 8055.0,1100.0 8059.0,1100.0 C 8063.0,1100.0 8090.0,1107.0 8120.0,1116.0 C 8175.0,1132.0 8178.0,1132.0 8303.0,1099.0 C 8338.0,1090.0 8344.0,1082.0 8371.0,1022.0 C 8388.0,985.0 8403.0,954.0 8404.0,952.0 C 8406.0,950.0 8484.0,972.0 8576.0,1001.0 C 8732.0,1049.0 8748.0,1055.0 8785.0,1094.0 C 8823.0,1134.0 8830.0,1137.0 8957.0,1164.0 L 9088.0,1193.0 L 9162.0,1153.0 C 9231.0,1115.0 9238.0,1113.0 9304.0,1118.0 C 9345.0,1121.0 9387.0,1117.0 9410.0,1110.0 C 9445.0,1098.0 9463.0,1101.0 9614.0,1139.0 C 9753.0,1173.0 9795.0,1180.0 9877.0,1180.0 C 9960.0,1179.0 9982.0,1175.0 10020.0,1156.0 C 10065.0,1132.0 10065.0,1132.0 10102.0,1151.0 C 10129.0,1165.0 10137.0,1174.0 10133.0,1189.0 C 10130.0,1202.0 10135.0,1210.0 10149.0,1215.0 C 10170.0,1221.0 10170.0,1221.0 10146.0,1253.0 C 10133.0,1271.0 10116.0,1302.0 10109.0,1324.0 C 10099.0,1351.0 10085.0,1367.0 10058.0,1381.0 C 10033.0,1394.0 10020.0,1407.0 10020.0,1420.0 C 10020.0,1431.0 10023.0,1440.0 10028.0,1440.0 C 10032.0,1440.0 10050.0,1449.0 10068.0,1460.0 L 10102.0,1481.0 L 10076.0,1515.0 C 10062.0,1533.0 10050.0,1558.0 10050.0,1569.0 C 10050.0,1580.0 10046.0,1600.0 10041.0,1613.0 C 10033.0,1633.0 10037.0,1647.0 10060.0,1684.0 C 10087.0,1726.0 10093.0,1730.0 10130.0,1730.0 C 10168.0,1730.0 10182.0,1742.0 10160.0,1755.0 C 10155.0,1758.0 10150.0,1792.0 10150.0,1829.0 C 10150.0,1867.0 10143.0,1917.0 10135.0,1940.0 C 10123.0,1974.0 10122.0,1990.0 10131.0,2021.0 C 10141.0,2053.0 10150.0,2062.0 10191.0,2079.0 C 10234.0,2096.0 10240.0,2103.0 10240.0,2128.0 C 10240.0,2164.0 10221.0,2220.0 10209.0,2220.0 C 10205.0,2220.0 10196.0,2211.0 10190.0,2200.0 C 10177.0,2176.0 10124.0,2171.0 10133.0,2194.0 C 10148.0,2233.0 10150.0,2280.0 10138.0,2327.0 C 10127.0,2367.0 10115.0,2386.0 10085.0,2410.0 C 10064.0,2427.0 10038.0,2454.0 10028.0,2471.0 C 10018.0,2487.0 10003.0,2503.0 9995.0,2506.0 C 9982.0,2511.0 9982.0,2515.0 9995.0,2533.0 C 10014.0,2561.0 10014.0,2600.0 9994.0,2628.0 C 9985.0,2641.0 9981.0,2657.0 9984.0,2665.0 C 9991.0,2684.0 9971.0,2750.0 9949.0,2782.0 C 9938.0,2796.0 9930.0,2823.0 9930.0,2842.0 C 9930.0,2895.0 9907.0,2920.0 9865.0,2913.0 C 9841.0,2909.0 9824.0,2912.0 9812.0,2922.0 C 9803.0,2931.0 9785.0,2941.0 9773.0,2944.0 C 9760.0,2948.0 9750.0,2958.0 9750.0,2966.0 C 9750.0,2976.0 9665.0,3030.0 9648.0,3030.0 C 9646.0,3030.0 9646.0,3013.0 9648.0,2992.0 C 9651.0,2964.0 9647.0,2950.0 9631.0,2936.0 C 9619.0,2925.0 9610.0,2906.0 9610.0,2893.0 C 9610.0,2873.0 9605.0,2870.0 9576.0,2870.0 C 9546.0,2870.0 9541.0,2866.0 9535.0,2840.0 C 9530.0,2817.0 9523.0,2810.0 9505.0,2810.0 C 9485.0,2810.0 9480.0,2817.0 9474.0,2847.0 C 9470.0,2868.0 9456.0,2904.0 9443.0,2927.0 C 9420.0,2967.0 9420.0,2969.0 9436.0,3007.0 C 9463.0,3070.0 9456.0,3115.0 9410.0,3176.0 C 9388.0,3206.0 9357.0,3236.0 9341.0,3244.0 C 9307.0,3262.0 9263.0,3318.0 9254.0,3356.0 C 9250.0,3372.0 9234.0,3402.0 9217.0,3423.0 C 9185.0,3465.0 9149.0,3597.0 9168.0,3609.0 C 9173.0,3612.0 9220.0,3643.0 9272.0,3678.0 L 9368.0,3741.0 L 9379.0,3829.0 C 9395.0,3957.0 9395.0,3962.0 9350.0,4013.0 C 9327.0,4038.0 9303.0,4078.0 9295.0,4102.0 C 9281.0,4144.0 9281.0,4148.0 9333.0,4309.0 C 9383.0,4465.0 9386.0,4477.0 9377.0,4534.0 C 9367.0,4610.0 9347.0,4639.0 9287.0,4668.0 C 9242.0,4689.0 9240.0,4692.0 9240.0,4731.0 C 9240.0,4785.0 9209.0,4827.0 9153.0,4851.0 C 9088.0,4879.0 9074.0,4902.0 9065.0,4990.0 C 9052.0,5124.0 9054.0,5136.0 9082.0,5165.0 C 9097.0,5179.0 9127.0,5216.0 9151.0,5246.0 C 9190.0,5297.0 9192.0,5303.0 9188.0,5352.0 C 9184.0,5391.0 9177.0,5408.0 9159.0,5421.0 C 9090.0,5473.0 9082.0,5482.0 9072.0,5522.0 C 9062.0,5559.0 9054.0,5569.0 9013.0,5590.0 C 8977.0,5609.0 8963.0,5623.0 8956.0,5647.0 C 8949.0,5668.0 8938.0,5681.0 8922.0,5685.0 C 8909.0,5688.0 8861.0,5711.0 8815.0,5736.0 C 8748.0,5772.0 8730.0,5786.0 8726.0,5808.0 C 8723.0,5823.0 8715.0,5864.0 8709.0,5900.0 C 8695.0,5975.0 8670.0,6009.0 8599.0,6046.0 C 8535.0,6078.0 8481.0,6131.0 8474.0,6169.0 C 8469.0,6194.0 8463.0,6200.0 8441.0,6200.0 C 8427.0,6199.0 8397.0,6193.0 8375.0,6185.0 C 8321.0,6165.0 8310.0,6166.0 8310.0,6192.0 C 8310.0,6205.0 8287.0,6236.0 8250.0,6271.0 C 8217.0,6304.0 8188.0,6341.0 8184.0,6357.0 C 8170.0,6422.0 8171.0,6421.0 8135.0,6414.0 C 8104.0,6409.0 8100.0,6411.0 8075.0,6450.0 C 8035.0,6513.0 8035.0,6515.0 8080.0,6529.0 C 8117.0,6540.0 8120.0,6544.0 8120.0,6575.0 C 8120.0,6605.0 8115.0,6612.0 8083.0,6628.0 C 8062.0,6639.0 8032.0,6650.0 8017.0,6654.0 C 7979.0,6663.0 7948.0,6729.0 7961.0,6774.0 C 7970.0,6806.0 7950.0,6901.0 7928.0,6928.0 C 7921.0,6936.0 7889.0,6940.0 7837.0,6940.0 C 7760.0,6940.0 7754.0,6941.0 7723.0,6972.0 L 7691.0,7003.0 L 7715.0,7032.0 C 7752.0,7075.0 7747.0,7104.0 7693.0,7166.0 C 7652.0,7212.0 7640.0,7220.0 7610.0,7220.0 C 7542.0,7221.0 7530.0,7228.0 7530.0,7271.0 C 7530.0,7296.0 7539.0,7323.0 7556.0,7347.0 L 7582.0,7385.0 L 7536.0,7427.0 C 7503.0,7456.0 7490.0,7476.0 7490.0,7495.0 C 7490.0,7521.0 7492.0,7521.0 7530.0,7515.0 C 7566.0,7509.0 7570.0,7510.0 7570.0,7529.0 C 7570.0,7541.0 7562.0,7553.0 7553.0,7556.0 C 7463.0,7585.0 7440.0,7615.0 7440.0,7703.0 C 7440.0,7757.0 7437.0,7765.0 7400.0,7809.0 C 7365.0,7850.0 7360.0,7863.0 7360.0,7906.0 C 7360.0,7969.0 7314.0,8054.0 7274.0,8064.0 C 7260.0,8068.0 7236.0,8080.0 7221.0,8091.0 C 7198.0,8108.0 7190.0,8109.0 7167.0,8099.0 C 7131.0,8083.0 7110.0,8093.0 7110.0,8129.0 C 7110.0,8156.0 7114.0,8160.0 7153.0,8167.0 C 7186.0,8174.0 7196.0,8180.0 7198.0,8198.0 C 7201.0,8218.0 7198.0,8220.0 7173.0,8215.0 C 7158.0,8211.0 7129.0,8202.0 7109.0,8195.0 C 7081.0,8185.0 7063.0,8184.0 7036.0,8191.0 C 7004.0,8200.0 6993.0,8198.0 6952.0,8174.0 C 6853.0,8118.0 6725.0,8164.0 6796.0,8231.0 C 6845.0,8277.0 6812.0,8303.0 6755.0,8264.0 C 6735.0,8251.0 6706.0,8240.0 6689.0,8240.0 C 6650.0,8240.0 6603.0,8215.0 6595.0,8190.0 C 6585.0,8159.0 6560.0,8166.0 6544.0,8206.0 C 6532.0,8234.0 6531.0,8249.0 6539.0,8273.0 C 6553.0,8313.0 6553.0,8320.0 6535.0,8320.0 C 6507.0,8320.0 6475.0,8342.0 6453.0,8375.0 C 6433.0,8405.0 6426.0,8409.0 6402.0,8404.0 C 6361.0,8396.0 6352.0,8424.0 6385.0,8455.0 L 6411.0,8478.0 L 6383.0,8499.0 L 6355.0,8521.0 L 6378.0,8536.0 C 6390.0,8545.0 6400.0,8558.0 6400.0,8566.0 C 6400.0,8584.0 6362.0,8603.0 6339.0,8597.0 C 6325.0,8593.0 6315.0,8600.0 6305.0,8620.0 C 6297.0,8636.0 6280.0,8657.0 6267.0,8667.0 C 6254.0,8677.0 6240.0,8697.0 6237.0,8711.0 C 6233.0,8727.0 6212.0,8749.0 6180.0,8769.0 C 6128.0,8803.0 6118.0,8827.0 6145.0,8850.0 C 6159.0,8862.0 6158.0,8866.0 6134.0,8892.0 C 6119.0,8907.0 6096.0,8920.0 6084.0,8920.0 C 6070.0,8920.0 6054.0,8934.0 6036.0,8960.0 C 6004.0,9009.0 5974.0,9013.0 5965.0,8970.0 C 5961.0,8954.0 5952.0,8940.0 5944.0,8940.0 C 5926.0,8940.0 5916.0,8981.0 5923.0,9031.0 C 5929.0,9075.0 5912.0,9092.0 5885.0,9070.0 C 5847.0,9039.0 5824.0,9093.0 5856.0,9138.0 C 5865.0,9151.0 5870.0,9162.0 5869.0,9164.0 C 5867.0,9165.0 5843.0,9173.0 5815.0,9183.0 C 5723.0,9215.0 5624.0,9202.0 5567.0,9151.0 C 5549.0,9136.0 5546.0,9137.0 5523.0,9164.0 L 5498.0,9193.0 L 5448.0,9175.0 C 5413.0,9163.0 5395.0,9161.0 5388.0,9168.0 C 5380.0,9176.0 5371.0,9176.0 5358.0,9169.0 C 5344.0,9162.0 5334.0,9162.0 5324.0,9171.0 C 5311.0,9181.0 5311.0,9185.0 5325.0,9200.0 C 5333.0,9209.0 5340.0,9220.0 5340.0,9223.0 C 5340.0,9236.0 5294.0,9230.0 5274.0,9215.0 C 5264.0,9207.0 5241.0,9200.0 5224.0,9200.0 C 5203.0,9200.0 5188.0,9193.0 5178.0,9179.0 C 5166.0,9160.0 5161.0,9159.0 5141.0,9169.0 C 5125.0,9178.0 5122.0,9185.0 5129.0,9193.0 C 5135.0,9202.0 5133.0,9213.0 5120.0,9230.0 L 5102.0,9254.0 L 5083.0,9231.0 C 5067.0,9212.0 5060.0,9209.0 5044.0,9217.0 C 5034.0,9223.0 5011.0,9226.0 4994.0,9223.0 C 4974.0,9220.0 4959.0,9224.0 4951.0,9234.0 C 4936.0,9252.0 4900.0,9256.0 4900.0,9240.0 C 4900.0,9235.0 4885.0,9230.0 4866.0,9230.0 C 4839.0,9230.0 4827.0,9237.0 4810.0,9260.0 C 4793.0,9283.0 4781.0,9290.0 4754.0,9290.0 C 4733.0,9290.0 4717.0,9284.0 4714.0,9276.0" fill="pink"/>
	<path d="M 1481.0,4434.0 C 1456.0,4427.0 1427.0,4411.0 1415.0,4400.0 C 1392.0,4379.0 1326.0,4372.0 1315.0,4390.0 C 1305.0,4406.0 1263.0,4401.0 1226.0,4379.0 C 1195.0,4361.0 1190.0,4353.0 1190.0,4320.0 C 1190.0,4275.0 1208.0,4257.0 1245.0,4266.0 C 1271.0,4272.0 1271.0,4271.0 1260.0,4250.0 C 1254.0,4238.0 1250.0,4211.0 1252.0,4190.0 C 1254.0,4169.0 1252.0,4154.0 1248.0,4156.0 C 1243.0,4159.0 1240.0,4167.0 1240.0,4173.0 C 1240.0,4180.0 1231.0,4196.0 1221.0,4209.0 C 1208.0,4227.0 1198.0,4231.0 1181.0,4225.0 C 1159.0,4218.0 1158.0,4215.0 1165.0,4151.0 C 1169.0,4115.0 1178.0,4078.0 1186.0,4069.0 C 1194.0,4061.0 1200.0,4044.0 1200.0,4032.0 C 1200.0,4020.0 1203.0,4010.0 1208.0,4010.0 C 1219.0,4010.0 1282.0,4050.0 1307.0,4072.0 C 1319.0,4083.0 1351.0,4100.0 1379.0,4109.0 C 1424.0,4123.0 1435.0,4133.0 1484.0,4204.0 C 1536.0,4278.0 1539.0,4281.0 1550.0,4260.0 C 1562.0,4239.0 1563.0,4240.0 1582.0,4291.0 C 1593.0,4321.0 1604.0,4363.0 1607.0,4386.0 C 1611.0,4422.0 1609.0,4427.0 1585.0,4438.0 C 1553.0,4453.0 1538.0,4452.0 1481.0,4434.0" fill="pink"/>
	<path d="M 1407.0,4068.0 C 1346.0,4026.0 1317.0,3985.0 1312.0,3935.0 C 1303.0,3853.0 1306.0,3813.0 1323.0,3787.0 C 1339.0,3762.0 1342.0,3761.0 1363.0,3774.0 C 1375.0,3782.0 1402.0,3792.0 1422.0,3795.0 C 1451.0,3801.0 1465.0,3811.0 1481.0,3839.0 C 1493.0,3859.0 1512.0,3884.0 1522.0,3896.0 C 1540.0,3916.0 1540.0,3917.0 1520.0,3935.0 C 1494.0,3959.0 1495.0,3976.0 1525.0,4016.0 C 1554.0,4054.0 1555.0,4060.0 1535.0,4060.0 C 1526.0,4060.0 1508.0,4071.0 1494.0,4085.0 C 1480.0,4099.0 1468.0,4110.0 1467.0,4109.0 C 1466.0,4109.0 1439.0,4090.0 1407.0,4068.0" fill="pink"/>
</svg>
