<?xml version="1.0" ?>
<svg xmlns="http://www.w3.org/2000/svg" xmlns:ev="http://www.w3.org/2001/xml-events" xmlns:xlink="http://www.w3.org/1999/xlink" baseProfile="full" height="600px" version="1.1" viewBox="419.0942640823598 -1033.4077065014692 9391.65451725539 12301.678164261337" width="459px">
	<defs/>
	<path d="M 8521.0,10225.0 C 8503.0,10217.0 8478.0,10210.0 8466.0,10210.0 C 8436.0,10210.0 8392.0,10162.0 8384.0,10120.0 C 8380.0,10101.0 8368.0,10074.0 8358.0,10060.0 C 8339.0,10033.0 8325.0,10025.0 8205.0,9969.0 C 8167.0,9951.0 8133.0,9933.0 8130.0,9929.0 C 8117.0,9911.0 8031.0,9887.0 7983.0,9889.0 C 7948.0,9890.0 7914.0,9884.0 7884.0,9870.0 C 7847.0,9854.0 7816.0,9850.0 7739.0,9850.0 C 7645.0,9850.0 7639.0,9849.0 7629.0,9827.0 C 7615.0,9796.0 7543.0,9760.0 7495.0,9760.0 C 7473.0,9760.0 7428.0,9749.0 7395.0,9735.0 C 7362.0,9722.0 7319.0,9710.0 7300.0,9710.0 C 7281.0,9710.0 7249.0,9706.0 7230.0,9700.0 C 7204.0,9693.0 7180.0,9694.0 7137.0,9705.0 C 7105.0,9713.0 7062.0,9720.0 7042.0,9720.0 C 7019.0,9720.0 6998.0,9728.0 6983.0,9741.0 C 6964.0,9760.0 6958.0,9761.0 6945.0,9750.0 C 6936.0,9743.0 6917.0,9736.0 6902.0,9734.0 C 6839.0,9728.0 6758.0,9710.0 6732.0,9696.0 C 6717.0,9688.0 6690.0,9674.0 6673.0,9665.0 C 6655.0,9657.0 6640.0,9646.0 6640.0,9642.0 C 6640.0,9627.0 6511.0,9599.0 6415.0,9595.0 C 6360.0,9592.0 6296.0,9587.0 6272.0,9584.0 C 6234.0,9579.0 6223.0,9582.0 6185.0,9609.0 C 6134.0,9646.0 6101.0,9648.0 6011.0,9620.0 C 5930.0,9594.0 5803.0,9534.0 5793.0,9516.0 C 5789.0,9508.0 5769.0,9495.0 5750.0,9486.0 C 5690.0,9457.0 5653.0,9435.0 5619.0,9405.0 C 5565.0,9360.0 5432.0,9302.0 5345.0,9285.0 C 5238.0,9265.0 5233.0,9265.0 5216.0,9299.0 C 5196.0,9337.0 5155.0,9350.0 5073.0,9343.0 C 5005.0,9338.0 4974.0,9345.0 4862.0,9391.0 C 4831.0,9404.0 4825.0,9403.0 4770.0,9372.0 C 4738.0,9355.0 4703.0,9340.0 4692.0,9340.0 C 4682.0,9340.0 4663.0,9328.0 4649.0,9314.0 C 4603.0,9265.0 4563.0,9247.0 4512.0,9253.0 C 4467.0,9258.0 4464.0,9256.0 4410.0,9207.0 C 4357.0,9158.0 4272.0,9110.0 4239.0,9110.0 C 4230.0,9110.0 4216.0,9100.0 4208.0,9088.0 C 4194.0,9067.0 4187.0,9066.0 4099.0,9068.0 C 4037.0,9070.0 3991.0,9066.0 3965.0,9057.0 C 3934.0,9046.0 3909.0,9045.0 3855.0,9052.0 C 3817.0,9057.0 3766.0,9064.0 3742.0,9066.0 C 3708.0,9070.0 3687.0,9082.0 3644.0,9121.0 C 3614.0,9148.0 3585.0,9170.0 3579.0,9170.0 C 3573.0,9170.0 3547.0,9187.0 3521.0,9208.0 C 3496.0,9229.0 3458.0,9256.0 3438.0,9269.0 C 3382.0,9302.0 3219.0,9487.0 3175.0,9564.0 C 3154.0,9601.0 3131.0,9634.0 3124.0,9637.0 C 3117.0,9639.0 3104.0,9665.0 3094.0,9693.0 C 3073.0,9758.0 3054.0,9790.0 3034.0,9790.0 C 3026.0,9790.0 3004.0,9806.0 2984.0,9825.0 C 2965.0,9844.0 2944.0,9860.0 2937.0,9860.0 C 2930.0,9859.0 2835.0,9726.0 2725.0,9564.0 C 2615.0,9402.0 2515.0,9256.0 2503.0,9240.0 C 2473.0,9203.0 2474.0,9186.0 2509.0,9142.0 C 2526.0,9121.0 2550.0,9068.0 2565.0,9018.0 C 2591.0,8930.0 2609.0,8906.0 2701.0,8835.0 C 2717.0,8822.0 2735.0,8790.0 2748.0,8750.0 L 2770.0,8685.0 L 2835.0,8666.0 L 2899.0,8648.0 L 2915.0,8571.0 C 2924.0,8529.0 2934.0,8487.0 2937.0,8477.0 C 2939.0,8468.0 2959.0,8451.0 2980.0,8440.0 C 3010.0,8425.0 3022.0,8411.0 3031.0,8382.0 C 3045.0,8333.0 3098.0,8290.0 3159.0,8277.0 C 3200.0,8268.0 3218.0,8253.0 3335.0,8134.0 L 3465.0,8001.0 L 3880.0,7861.0 C 4108.0,7784.0 4619.0,7615.0 5016.0,7486.0 L 5737.0,7250.0 L 6095.0,7250.0 L 6453.0,7250.0 L 6384.0,7177.0 C 6094.0,6873.0 5352.0,6109.0 4831.0,5578.0 L 4205.0,4940.0 L 4125.0,4945.0 C 3965.0,4955.0 3470.0,4971.0 3462.0,4966.0 C 3458.0,4964.0 3368.0,4939.0 3261.0,4911.0 C 3110.0,4871.0 3042.0,4848.0 2947.0,4801.0 C 2784.0,4723.0 2750.0,4696.0 2727.0,4632.0 C 2717.0,4602.0 2686.0,4553.0 2654.0,4515.0 C 2602.0,4454.0 2596.0,4450.0 2556.0,4450.0 C 2532.0,4450.0 2483.0,4439.0 2447.0,4425.0 C 2391.0,4404.0 2354.0,4399.0 2206.0,4392.0 L 2031.0,4383.0 L 1992.0,4349.0 C 1970.0,4330.0 1944.0,4300.0 1935.0,4282.0 C 1926.0,4264.0 1912.0,4246.0 1904.0,4243.0 C 1896.0,4240.0 1880.0,4220.0 1869.0,4198.0 C 1858.0,4176.0 1825.0,4126.0 1796.0,4086.0 C 1767.0,4047.0 1684.0,3932.0 1611.0,3830.0 C 1508.0,3685.0 1450.0,3616.0 1345.0,3510.0 L 1210.0,3375.0 L 1208.0,1999.0 L 1206.0,623.0 L 1416.0,341.0 C 1531.0,186.0 1630.0,45.0 1636.0,28.0 L 1646.0,-4.0 L 1703.0,83.0 C 1735.0,131.0 1763.0,178.0 1767.0,187.0 C 1770.0,197.0 1788.0,222.0 1806.0,242.0 C 1825.0,263.0 1842.0,291.0 1846.0,305.0 C 1849.0,319.0 1858.0,330.0 1866.0,330.0 C 1881.0,330.0 1900.0,364.0 1931.0,444.0 C 1942.0,475.0 1955.0,500.0 1960.0,500.0 C 1971.0,500.0 2030.0,587.0 2030.0,603.0 C 2030.0,610.0 2044.0,620.0 2060.0,625.0 C 2080.0,632.0 2114.0,665.0 2163.0,726.0 C 2284.0,878.0 2407.0,1015.0 2576.0,1184.0 C 2664.0,1272.0 2759.0,1372.0 2786.0,1404.0 C 2813.0,1437.0 2849.0,1478.0 2865.0,1495.0 C 2882.0,1513.0 2930.0,1565.0 2972.0,1612.0 C 3014.0,1658.0 3088.0,1730.0 3137.0,1771.0 C 3185.0,1812.0 3243.0,1863.0 3265.0,1885.0 C 3314.0,1934.0 3395.0,2000.0 3407.0,2000.0 C 3412.0,2000.0 3423.0,2008.0 3432.0,2018.0 C 3442.0,2027.0 3470.0,2053.0 3495.0,2075.0 C 3520.0,2097.0 3567.0,2140.0 3598.0,2170.0 C 3760.0,2328.0 4187.0,2624.0 4364.0,2702.0 C 4403.0,2719.0 4532.0,2792.0 4650.0,2865.0 C 4768.0,2938.0 4890.0,3011.0 4920.0,3028.0 C 4971.0,3057.0 5200.0,3277.0 5200.0,3297.0 C 5200.0,3302.0 5212.0,3313.0 5228.0,3322.0 C 5243.0,3331.0 5282.0,3365.0 5315.0,3397.0 C 5348.0,3429.0 5395.0,3473.0 5420.0,3495.0 C 5445.0,3518.0 5481.0,3554.0 5500.0,3575.0 C 5519.0,3597.0 5549.0,3627.0 5567.0,3641.0 C 5585.0,3656.0 5607.0,3682.0 5618.0,3699.0 C 5644.0,3741.0 5886.0,4001.0 5973.0,4079.0 C 6012.0,4114.0 6063.0,4168.0 6087.0,4198.0 C 6125.0,4247.0 6184.0,4313.0 6381.0,4525.0 C 6412.0,4558.0 6454.0,4617.0 6475.0,4655.0 C 6496.0,4694.0 6521.0,4734.0 6531.0,4746.0 C 6541.0,4757.0 6574.0,4812.0 6605.0,4869.0 C 6635.0,4925.0 6698.0,5022.0 6745.0,5083.0 C 6792.0,5145.0 6863.0,5239.0 6905.0,5293.0 C 7059.0,5495.0 7301.0,5939.0 7286.0,5994.0 C 7280.0,6016.0 7341.0,6209.0 7366.0,6247.0 C 7374.0,6259.0 7380.0,6280.0 7380.0,6294.0 C 7380.0,6308.0 7401.0,6346.0 7428.0,6382.0 C 7454.0,6417.0 7504.0,6492.0 7539.0,6550.0 C 7574.0,6608.0 7618.0,6671.0 7636.0,6690.0 C 7669.0,6725.0 7772.0,6921.0 7785.0,6973.0 C 7789.0,6989.0 7803.0,7008.0 7815.0,7016.0 C 7834.0,7029.0 7838.0,7042.0 7842.0,7110.0 C 7846.0,7184.0 7849.0,7192.0 7885.0,7236.0 C 7907.0,7262.0 7944.0,7295.0 7968.0,7309.0 C 8050.0,7357.0 8081.0,7390.0 8087.0,7440.0 C 8090.0,7465.0 8099.0,7489.0 8106.0,7493.0 C 8114.0,7497.0 8127.0,7515.0 8136.0,7533.0 C 8145.0,7551.0 8171.0,7587.0 8192.0,7615.0 C 8225.0,7656.0 8231.0,7671.0 8227.0,7696.0 C 8223.0,7721.0 8227.0,7733.0 8245.0,7750.0 C 8264.0,7768.0 8270.0,7787.0 8276.0,7841.0 L 8282.0,7909.0 L 8342.0,7956.0 C 8412.0,8011.0 8460.0,8073.0 8460.0,8108.0 C 8460.0,8137.0 8494.0,8195.0 8515.0,8204.0 C 8523.0,8207.0 8530.0,8214.0 8530.0,8220.0 C 8530.0,8226.0 8549.0,8257.0 8571.0,8290.0 L 8613.0,8348.0 L 8593.0,8373.0 C 8574.0,8398.0 8574.0,8400.0 8591.0,8502.0 C 8601.0,8559.0 8621.0,8639.0 8636.0,8680.0 C 8659.0,8744.0 8661.0,8761.0 8652.0,8794.0 C 8645.0,8820.0 8645.0,8842.0 8652.0,8862.0 C 8658.0,8878.0 8660.0,8911.0 8656.0,8936.0 C 8651.0,8978.0 8652.0,8981.0 8688.0,9005.0 C 8739.0,9038.0 8893.0,9072.0 8912.0,9054.0 C 8919.0,9047.0 8943.0,9038.0 8965.0,9035.0 C 9003.0,9029.0 9007.0,9030.0 9018.0,9055.0 C 9032.0,9086.0 9020.0,9110.0 8991.0,9110.0 C 8982.0,9110.0 8953.0,9118.0 8927.0,9127.0 C 8886.0,9142.0 8878.0,9142.0 8870.0,9130.0 C 8865.0,9121.0 8865.0,9111.0 8871.0,9104.0 C 8884.0,9088.0 8860.0,9080.0 8797.0,9080.0 L 8745.0,9080.0 L 8778.0,9102.0 C 8805.0,9118.0 8810.0,9128.0 8806.0,9146.0 C 8801.0,9164.0 8805.0,9169.0 8822.0,9172.0 C 8842.0,9175.0 8845.0,9180.0 8842.0,9210.0 C 8840.0,9229.0 8834.0,9249.0 8829.0,9255.0 C 8824.0,9260.0 8820.0,9315.0 8820.0,9377.0 C 8820.0,9474.0 8823.0,9497.0 8844.0,9545.0 C 8871.0,9604.0 8866.0,9620.0 8821.0,9635.0 C 8809.0,9638.0 8798.0,9656.0 8793.0,9678.0 C 8785.0,9708.0 8788.0,9725.0 8806.0,9766.0 C 8818.0,9794.0 8826.0,9829.0 8823.0,9842.0 C 8817.0,9875.0 8841.0,9922.0 8886.0,9962.0 C 8915.0,9989.0 8921.0,10000.0 8917.0,10025.0 C 8914.0,10041.0 8919.0,10068.0 8927.0,10083.0 C 8943.0,10115.0 8938.0,10142.0 8917.0,10135.0 C 8910.0,10132.0 8887.0,10136.0 8867.0,10145.0 C 8847.0,10153.0 8817.0,10160.0 8801.0,10160.0 C 8785.0,10160.0 8768.0,10164.0 8765.0,10170.0 C 8762.0,10175.0 8727.0,10189.0 8687.0,10200.0 C 8647.0,10211.0 8607.0,10225.0 8598.0,10230.0 C 8575.0,10243.0 8562.0,10242.0 8521.0,10225.0" fill="pink"/>
</svg>
