<?xml version="1.0" ?>
<svg xmlns="http://www.w3.org/2000/svg" xmlns:ev="http://www.w3.org/2001/xml-events" xmlns:xlink="http://www.w3.org/1999/xlink" baseProfile="full" height="600px" version="1.1" viewBox="-885.1189661535617 -1028.9121968658944 12010.237932307124 12295.756700855116" width="587px">
	<defs/>
	<path d="M 7435.0,10225.0 C 7419.0,10217.0 7390.0,10211.0 7372.0,10210.0 C 7354.0,10210.0 7317.0,10199.0 7290.0,10185.0 C 7223.0,10151.0 7224.0,10132.0 7301.0,10047.0 C 7358.0,9984.0 7364.0,9980.0 7404.0,9980.0 C 7428.0,9980.0 7473.0,9970.0 7506.0,9959.0 C 7546.0,9944.0 7599.0,9936.0 7675.0,9933.0 C 7735.0,9930.0 7799.0,9921.0 7818.0,9913.0 L 7851.0,9899.0 L 7829.0,9867.0 C 7816.0,9849.0 7806.0,9834.0 7805.0,9832.0 C 7804.0,9831.0 7768.0,9846.0 7726.0,9866.0 C 7650.0,9902.0 7649.0,9902.0 7617.0,9885.0 C 7586.0,9869.0 7583.0,9869.0 7532.0,9889.0 C 7455.0,9919.0 7441.0,9916.0 7397.0,9859.0 C 7377.0,9832.0 7355.0,9810.0 7350.0,9810.0 C 7330.0,9810.0 7327.0,9843.0 7342.0,9871.0 C 7357.0,9897.0 7357.0,9899.0 7332.0,9923.0 C 7274.0,9977.0 7186.0,9997.0 7103.0,9976.0 C 7056.0,9963.0 7054.0,9964.0 7000.0,10000.0 C 6943.0,10038.0 6750.0,10109.0 6626.0,10137.0 C 6572.0,10150.0 6508.0,10153.0 6360.0,10152.0 C 6253.0,10151.0 6130.0,10155.0 6088.0,10161.0 C 6001.0,10172.0 5897.0,10162.0 5769.0,10129.0 C 5727.0,10119.0 5647.0,10105.0 5592.0,10099.0 L 5491.0,10087.0 L 5452.0,10041.0 C 5420.0,10002.0 5370.0,9904.0 5370.0,9880.0 C 5370.0,9875.0 5382.0,9868.0 5398.0,9862.0 C 5423.0,9853.0 5425.0,9849.0 5422.0,9807.0 C 5419.0,9774.0 5411.0,9755.0 5391.0,9736.0 L 5364.0,9710.0 L 5262.0,9722.0 C 5173.0,9732.0 5158.0,9737.0 5145.0,9757.0 C 5131.0,9778.0 5122.0,9780.0 5056.0,9780.0 C 4992.0,9780.0 4978.0,9783.0 4944.0,9808.0 C 4893.0,9845.0 4884.0,9848.0 4774.0,9864.0 C 4705.0,9875.0 4664.0,9888.0 4612.0,9915.0 C 4542.0,9951.0 4417.0,9980.0 4326.0,9980.0 C 4300.0,9980.0 4276.0,9988.0 4256.0,10004.0 C 4218.0,10032.0 4183.0,10044.0 4060.0,10071.0 C 3884.0,10110.0 3853.0,10112.0 3765.0,10091.0 L 3685.0,10071.0 L 3610.0,10105.0 C 3502.0,10152.0 3496.0,10154.0 3384.0,10151.0 C 3298.0,10149.0 3272.0,10153.0 3210.0,10174.0 C 3169.0,10188.0 3118.0,10200.0 3096.0,10200.0 C 3073.0,10200.0 3010.0,10207.0 2955.0,10215.0 C 2896.0,10224.0 2833.0,10228.0 2802.0,10224.0 C 2751.0,10218.0 2748.0,10216.0 2724.0,10169.0 L 2700.0,10120.0 L 2645.0,10120.0 C 2595.0,10120.0 2589.0,10117.0 2566.0,10087.0 C 2551.0,10067.0 2540.0,10040.0 2540.0,10022.0 C 2540.0,10004.0 2509.0,9919.0 2471.0,9833.0 C 2394.0,9655.0 2390.0,9642.0 2380.0,9510.0 C 2366.0,9332.0 2330.0,9169.0 2288.0,9096.0 C 2268.0,9062.0 2256.0,9053.0 2203.0,9036.0 C 2143.0,9017.0 2141.0,9015.0 2116.0,8959.0 C 2103.0,8928.0 2086.0,8864.0 2079.0,8818.0 C 2066.0,8723.0 2054.0,8702.0 1963.0,8614.0 C 1928.0,8580.0 1900.0,8548.0 1900.0,8543.0 C 1900.0,8538.0 1906.0,8525.0 1914.0,8515.0 C 1926.0,8498.0 1933.0,8497.0 1974.0,8507.0 L 2020.0,8517.0 L 2020.0,8428.0 C 2020.0,8361.0 2024.0,8331.0 2037.0,8309.0 C 2047.0,8293.0 2057.0,8280.0 2061.0,8280.0 C 2067.0,8280.0 2094.0,8331.0 2093.0,8340.0 C 2092.0,8343.0 2089.0,8357.0 2085.0,8371.0 C 2079.0,8394.0 2082.0,8398.0 2104.0,8402.0 C 2126.0,8406.0 2139.0,8398.0 2182.0,8351.0 C 2273.0,8252.0 2281.0,8204.0 2217.0,8142.0 L 2173.0,8099.0 L 2145.0,8145.0 C 2118.0,8187.0 2113.0,8190.0 2074.0,8190.0 C 2015.0,8190.0 1980.0,8160.0 1980.0,8111.0 C 1980.0,8090.0 1969.0,8046.0 1955.0,8012.0 C 1923.0,7933.0 1924.0,7920.0 1960.0,7885.0 C 1977.0,7869.0 1990.0,7848.0 1990.0,7837.0 C 1990.0,7821.0 1985.0,7819.0 1952.0,7825.0 C 1922.0,7830.0 1905.0,7826.0 1869.0,7806.0 C 1845.0,7792.0 1815.0,7780.0 1802.0,7780.0 C 1789.0,7780.0 1767.0,7774.0 1752.0,7766.0 C 1715.0,7747.0 1518.0,7747.0 1471.0,7766.0 C 1419.0,7788.0 1366.0,7783.0 1302.0,7751.0 L 1244.0,7722.0 L 1205.0,7751.0 C 1172.0,7776.0 1157.0,7780.0 1106.0,7780.0 C 1048.0,7780.0 1041.0,7777.0 978.0,7729.0 C 929.0,7693.0 905.0,7666.0 891.0,7635.0 C 875.0,7598.0 866.0,7590.0 835.0,7584.0 C 815.0,7581.0 768.0,7580.0 730.0,7582.0 L 662.0,7587.0 L 603.0,7511.0 C 571.0,7469.0 525.0,7417.0 501.0,7394.0 L 457.0,7353.0 L 469.0,7288.0 C 481.0,7225.0 483.0,7223.0 518.0,7214.0 C 555.0,7205.0 555.0,7205.0 560.0,7143.0 C 564.0,7089.0 569.0,7076.0 601.0,7043.0 C 635.0,7008.0 638.0,6999.0 643.0,6930.0 C 652.0,6819.0 633.0,6756.0 530.0,6551.0 C 481.0,6453.0 440.0,6368.0 440.0,6363.0 C 440.0,6358.0 427.0,6344.0 410.0,6332.0 C 375.0,6306.0 372.0,6276.0 395.0,6190.0 C 403.0,6160.0 410.0,6113.0 409.0,6085.0 L 409.0,6035.0 L 304.0,5955.0 C 233.0,5901.0 186.0,5857.0 159.0,5818.0 C 124.0,5766.0 120.0,5755.0 120.0,5698.0 C 120.0,5663.0 127.0,5613.0 135.0,5586.0 C 143.0,5559.0 150.0,5505.0 150.0,5466.0 C 150.0,5357.0 171.0,5291.0 217.0,5255.0 C 238.0,5239.0 273.0,5205.0 295.0,5181.0 C 317.0,5157.0 360.0,5110.0 391.0,5076.0 C 428.0,5036.0 456.0,4991.0 475.0,4945.0 C 491.0,4907.0 529.0,4844.0 560.0,4806.0 C 615.0,4737.0 615.0,4736.0 621.0,4653.0 C 626.0,4577.0 629.0,4566.0 666.0,4514.0 C 700.0,4465.0 719.0,4450.0 805.0,4403.0 C 909.0,4347.0 933.0,4326.0 977.0,4249.0 C 997.0,4215.0 1018.0,4194.0 1059.0,4172.0 C 1112.0,4143.0 1116.0,4138.0 1138.0,4073.0 L 1161.0,4005.0 L 1136.0,3905.0 C 1121.0,3850.0 1110.0,3800.0 1110.0,3793.0 C 1110.0,3772.0 1182.0,3732.0 1240.0,3721.0 C 1270.0,3716.0 1306.0,3707.0 1319.0,3702.0 C 1335.0,3696.0 1358.0,3697.0 1384.0,3705.0 C 1421.0,3716.0 1429.0,3714.0 1496.0,3683.0 C 1536.0,3665.0 1575.0,3650.0 1582.0,3650.0 C 1608.0,3651.0 1684.0,3718.0 1696.0,3752.0 C 1706.0,3781.0 1711.0,3785.0 1739.0,3782.0 C 1757.0,3781.0 1789.0,3771.0 1810.0,3760.0 C 1868.0,3730.0 1895.0,3734.0 1923.0,3775.0 C 1950.0,3815.0 1954.0,3813.0 1988.0,3745.0 C 2014.0,3691.0 2024.0,3602.0 2009.0,3552.0 C 2000.0,3519.0 2000.0,3504.0 2015.0,3460.0 C 2031.0,3411.0 2031.0,3406.0 2015.0,3364.0 C 1999.0,3322.0 1999.0,3315.0 2015.0,3250.0 C 2033.0,3178.0 2039.0,3172.0 2083.0,3189.0 C 2103.0,3197.0 2112.0,3195.0 2124.0,3181.0 C 2140.0,3164.0 2139.0,3162.0 2115.0,3156.0 C 2094.0,3151.0 2090.0,3144.0 2090.0,3111.0 C 2090.0,3079.0 2096.0,3066.0 2129.0,3037.0 C 2199.0,2973.0 2209.0,2939.0 2189.0,2826.0 C 2181.0,2778.0 2182.0,2755.0 2192.0,2720.0 C 2204.0,2680.0 2210.0,2674.0 2240.0,2670.0 C 2267.0,2666.0 2275.0,2659.0 2281.0,2637.0 C 2288.0,2610.0 2286.0,2607.0 2245.0,2589.0 L 2201.0,2570.0 L 2216.0,2535.0 C 2224.0,2516.0 2230.0,2481.0 2230.0,2456.0 C 2230.0,2413.0 2231.0,2411.0 2285.0,2381.0 C 2315.0,2364.0 2353.0,2350.0 2370.0,2350.0 C 2394.0,2350.0 2400.0,2346.0 2400.0,2328.0 C 2400.0,2283.0 2412.0,2263.0 2446.0,2247.0 C 2471.0,2235.0 2480.0,2224.0 2480.0,2206.0 C 2480.0,2192.0 2494.0,2165.0 2510.0,2146.0 C 2543.0,2109.0 2570.0,2043.0 2570.0,2000.0 C 2570.0,1977.0 2576.0,1971.0 2611.0,1961.0 C 2658.0,1947.0 2667.0,1929.0 2651.0,1884.0 C 2640.0,1855.0 2642.0,1847.0 2662.0,1816.0 C 2675.0,1796.0 2700.0,1773.0 2718.0,1763.0 C 2736.0,1753.0 2750.0,1738.0 2750.0,1727.0 C 2750.0,1699.0 2775.0,1658.0 2819.0,1615.0 C 2850.0,1585.0 2860.0,1568.0 2860.0,1544.0 C 2860.0,1518.0 2866.0,1507.0 2890.0,1494.0 C 2906.0,1484.0 2925.0,1463.0 2931.0,1447.0 C 2942.0,1420.0 2941.0,1417.0 2906.0,1388.0 L 2868.0,1357.0 L 2938.0,1325.0 C 2986.0,1302.0 3013.0,1283.0 3023.0,1264.0 C 3037.0,1237.0 3036.0,1232.0 3014.0,1188.0 L 2990.0,1140.0 L 3037.0,1112.0 C 3063.0,1097.0 3106.0,1065.0 3133.0,1040.0 L 3182.0,995.0 L 3177.0,935.0 C 3172.0,861.0 3192.0,822.0 3292.0,710.0 C 3330.0,669.0 3388.0,596.0 3422.0,549.0 L 3485.0,463.0 L 3639.0,458.0 L 3793.0,453.0 L 3833.0,410.0 C 3874.0,367.0 3938.0,331.0 3976.0,330.0 C 3993.0,330.0 4000.0,321.0 4009.0,286.0 C 4019.0,244.0 4022.0,241.0 4072.0,226.0 C 4163.0,200.0 4202.0,197.0 4265.0,214.0 C 4321.0,228.0 4327.0,228.0 4368.0,210.0 C 4392.0,199.0 4434.0,174.0 4461.0,154.0 C 4524.0,108.0 4590.0,100.0 4684.0,125.0 L 4749.0,143.0 L 4815.0,101.0 C 4891.0,54.0 5065.0,0.0 5143.0,0.0 C 5169.0,0.0 5218.0,8.0 5253.0,17.0 C 5304.0,31.0 5324.0,44.0 5366.0,86.0 C 5426.0,147.0 5438.0,187.0 5415.0,243.0 C 5396.0,289.0 5396.0,330.0 5415.0,422.0 C 5424.0,462.0 5428.0,506.0 5425.0,519.0 C 5422.0,532.0 5374.0,588.0 5320.0,645.0 C 5265.0,701.0 5220.0,754.0 5220.0,763.0 C 5220.0,782.0 5211.0,789.0 5145.0,816.0 C 5096.0,836.0 5095.0,837.0 5088.0,889.0 C 5083.0,933.0 5076.0,947.0 5048.0,970.0 C 5016.0,998.0 4935.0,1030.0 4900.0,1030.0 C 4847.0,1030.0 4832.0,1074.0 4873.0,1107.0 C 4885.0,1117.0 4902.0,1141.0 4910.0,1160.0 C 4917.0,1179.0 4934.0,1217.0 4947.0,1243.0 L 4971.0,1291.0 L 5005.0,1270.0 C 5045.0,1245.0 5043.0,1244.0 5133.0,1324.0 C 5193.0,1378.0 5199.0,1388.0 5194.0,1413.0 C 5191.0,1429.0 5191.0,1488.0 5195.0,1546.0 C 5202.0,1638.0 5206.0,1655.0 5227.0,1681.0 C 5245.0,1702.0 5261.0,1710.0 5283.0,1710.0 C 5332.0,1710.0 5415.0,1666.0 5470.0,1611.0 C 5519.0,1562.0 5524.0,1560.0 5618.0,1541.0 C 5756.0,1514.0 5766.0,1509.0 5773.0,1463.0 C 5779.0,1431.0 5786.0,1422.0 5823.0,1402.0 C 5864.0,1380.0 5868.0,1380.0 5910.0,1395.0 C 5935.0,1404.0 5982.0,1414.0 6015.0,1417.0 C 6052.0,1421.0 6093.0,1433.0 6122.0,1450.0 C 6166.0,1474.0 6173.0,1475.0 6228.0,1467.0 C 6271.0,1459.0 6319.0,1461.0 6413.0,1473.0 L 6540.0,1489.0 L 6609.0,1466.0 L 6678.0,1442.0 L 6711.0,1476.0 C 6735.0,1500.0 6747.0,1525.0 6755.0,1567.0 L 6766.0,1623.0 L 6831.0,1648.0 C 6877.0,1665.0 6906.0,1670.0 6935.0,1666.0 C 7078.0,1646.0 7062.0,1643.0 7113.0,1700.0 C 7139.0,1729.0 7160.0,1755.0 7160.0,1759.0 C 7160.0,1771.0 7232.0,1790.0 7274.0,1790.0 C 7306.0,1790.0 7312.0,1786.0 7327.0,1755.0 C 7352.0,1703.0 7383.0,1699.0 7428.0,1743.0 C 7492.0,1804.0 7589.0,1860.0 7631.0,1860.0 C 7658.0,1860.0 7681.0,1869.0 7714.0,1895.0 C 7740.0,1914.0 7762.0,1930.0 7765.0,1930.0 C 7781.0,1930.0 7765.0,1877.0 7735.0,1833.0 C 7716.0,1804.0 7700.0,1774.0 7700.0,1765.0 C 7700.0,1757.0 7724.0,1734.0 7753.0,1715.0 C 7790.0,1690.0 7813.0,1666.0 7828.0,1634.0 C 7841.0,1609.0 7864.0,1571.0 7881.0,1550.0 C 7909.0,1515.0 7918.0,1511.0 8000.0,1495.0 L 8089.0,1478.0 L 8142.0,1525.0 L 8195.0,1571.0 L 8265.0,1565.0 C 8304.0,1562.0 8351.0,1556.0 8371.0,1553.0 L 8406.0,1548.0 L 8396.0,1500.0 C 8390.0,1467.0 8390.0,1444.0 8396.0,1429.0 C 8405.0,1409.0 8402.0,1402.0 8378.0,1382.0 C 8345.0,1354.0 8343.0,1328.0 8370.0,1290.0 C 8381.0,1275.0 8394.0,1251.0 8399.0,1238.0 C 8405.0,1221.0 8419.0,1211.0 8440.0,1206.0 C 8507.0,1193.0 8536.0,1199.0 8600.0,1241.0 L 8662.0,1281.0 L 8724.0,1259.0 L 8787.0,1236.0 L 8823.0,1264.0 C 8856.0,1290.0 8869.0,1312.0 8905.0,1418.0 C 8908.0,1425.0 8929.0,1430.0 8963.0,1430.0 L 9017.0,1430.0 L 9103.0,1523.0 C 9176.0,1603.0 9191.0,1625.0 9205.0,1676.0 C 9214.0,1708.0 9239.0,1762.0 9260.0,1795.0 C 9281.0,1829.0 9304.0,1881.0 9311.0,1913.0 C 9321.0,1960.0 9334.0,1983.0 9376.0,2030.0 C 9405.0,2062.0 9467.0,2145.0 9514.0,2213.0 C 9589.0,2323.0 9600.0,2343.0 9600.0,2381.0 C 9600.0,2417.0 9606.0,2430.0 9636.0,2461.0 C 9671.0,2497.0 9672.0,2498.0 9651.0,2509.0 C 9618.0,2527.0 9622.0,2609.0 9658.0,2669.0 C 9681.0,2706.0 9710.0,2772.0 9710.0,2786.0 C 9710.0,2788.0 9696.0,2805.0 9678.0,2825.0 C 9651.0,2857.0 9646.0,2870.0 9642.0,2933.0 C 9639.0,2992.0 9641.0,3008.0 9654.0,3019.0 C 9665.0,3028.0 9670.0,3049.0 9670.0,3086.0 C 9670.0,3138.0 9669.0,3141.0 9641.0,3146.0 C 9624.0,3150.0 9603.0,3161.0 9594.0,3171.0 C 9579.0,3188.0 9580.0,3194.0 9611.0,3270.0 C 9635.0,3328.0 9653.0,3355.0 9671.0,3365.0 C 9702.0,3382.0 9749.0,3438.0 9778.0,3495.0 C 9789.0,3517.0 9821.0,3557.0 9849.0,3585.0 C 9899.0,3633.0 9900.0,3635.0 9900.0,3694.0 C 9900.0,3750.0 9902.0,3755.0 9939.0,3787.0 C 9961.0,3806.0 9998.0,3856.0 10024.0,3905.0 C 10066.0,3982.0 10070.0,3996.0 10070.0,4059.0 C 10070.0,4131.0 10092.0,4265.0 10111.0,4311.0 C 10120.0,4335.0 10117.0,4345.0 10084.0,4394.0 C 10057.0,4435.0 10042.0,4449.0 10031.0,4445.0 C 9960.0,4417.0 9933.0,4439.0 9895.0,4550.0 C 9881.0,4591.0 9847.0,4659.0 9819.0,4701.0 C 9771.0,4774.0 9766.0,4779.0 9690.0,4813.0 L 9612.0,4848.0 L 9600.0,4903.0 C 9591.0,4950.0 9583.0,4962.0 9549.0,4986.0 C 9527.0,5001.0 9500.0,5030.0 9490.0,5049.0 C 9480.0,5069.0 9449.0,5107.0 9421.0,5134.0 C 9384.0,5170.0 9370.0,5193.0 9365.0,5222.0 C 9358.0,5263.0 9307.0,5331.0 9255.0,5369.0 C 9182.0,5422.0 9185.0,5415.0 9210.0,5450.0 C 9222.0,5467.0 9239.0,5507.0 9247.0,5538.0 C 9255.0,5569.0 9270.0,5611.0 9281.0,5631.0 L 9300.0,5669.0 L 9258.0,5704.0 C 9235.0,5724.0 9209.0,5740.0 9201.0,5740.0 C 9192.0,5740.0 9169.0,5745.0 9149.0,5750.0 C 9119.0,5758.0 9111.0,5767.0 9102.0,5799.0 C 9095.0,5820.0 9090.0,5859.0 9090.0,5884.0 C 9090.0,5980.0 9067.0,6127.0 9039.0,6217.0 C 9019.0,6282.0 9006.0,6353.0 8996.0,6456.0 C 8983.0,6594.0 8984.0,6605.0 9000.0,6634.0 C 9016.0,6661.0 9018.0,6690.0 9017.0,6868.0 L 9016.0,7071.0 L 8964.0,7105.0 L 8913.0,7139.0 L 8907.0,7272.0 C 8904.0,7345.0 8896.0,7429.0 8889.0,7459.0 L 8876.0,7513.0 L 8911.0,7544.0 C 8952.0,7580.0 8970.0,7636.0 8970.0,7730.0 C 8970.0,7816.0 9002.0,7875.0 9084.0,7941.0 C 9146.0,7990.0 9160.0,8011.0 9160.0,8056.0 C 9160.0,8067.0 9176.0,8092.0 9196.0,8111.0 C 9216.0,8129.0 9248.0,8177.0 9267.0,8215.0 C 9287.0,8254.0 9321.0,8316.0 9343.0,8354.0 C 9383.0,8422.0 9386.0,8424.0 9476.0,8466.0 C 9594.0,8521.0 9638.0,8570.0 9770.0,8790.0 C 9784.0,8813.0 9847.0,8881.0 9911.0,8941.0 L 10028.0,9050.0 L 10032.0,9113.0 C 10036.0,9159.0 10032.0,9188.0 10019.0,9223.0 C 9988.0,9302.0 9994.0,9362.0 10041.0,9452.0 C 10072.0,9512.0 10120.0,9629.0 10120.0,9645.0 C 10120.0,9646.0 10102.0,9655.0 10079.0,9665.0 C 10055.0,9676.0 10033.0,9696.0 10023.0,9714.0 C 10015.0,9731.0 9992.0,9762.0 9972.0,9783.0 C 9941.0,9815.0 9930.0,9820.0 9890.0,9820.0 C 9824.0,9820.0 9780.0,9835.0 9684.0,9891.0 C 9605.0,9936.0 9594.0,9940.0 9551.0,9934.0 C 9519.0,9930.0 9465.0,9937.0 9375.0,9955.0 C 9304.0,9970.0 9216.0,9986.0 9180.0,9991.0 C 9144.0,9996.0 9088.0,10004.0 9055.0,10009.0 C 9022.0,10014.0 8950.0,10019.0 8895.0,10019.0 C 8749.0,10020.0 8647.0,10041.0 8551.0,10089.0 C 8486.0,10122.0 8460.0,10130.0 8415.0,10130.0 C 8381.0,10130.0 8337.0,10139.0 8298.0,10154.0 C 8240.0,10176.0 8213.0,10179.0 7955.0,10189.0 C 7743.0,10197.0 7652.0,10204.0 7581.0,10220.0 C 7473.0,10243.0 7475.0,10243.0 7435.0,10225.0" fill="pink"/>
</svg>
