<?xml version="1.0" ?>
<svg xmlns="http://www.w3.org/2000/svg" xmlns:ev="http://www.w3.org/2001/xml-events" xmlns:xlink="http://www.w3.org/1999/xlink" baseProfile="full" height="600px" version="1.1" viewBox="866.1537561979476 -1021.5840625430251 8514.989164322751 12290.015864710744" width="416px">
	<defs/>
	<path d="M 7485.0,10198.0 C 7489.0,10174.0 7499.0,10147.0 7508.0,10137.0 C 7522.0,10121.0 7521.0,10118.0 7500.0,10095.0 C 7487.0,10081.0 7467.0,10070.0 7456.0,10070.0 C 7443.0,10070.0 7428.0,10058.0 7418.0,10040.0 C 7404.0,10015.0 7395.0,10010.0 7362.0,10010.0 C 7339.0,10010.0 7317.0,10004.0 7310.0,9995.0 C 7294.0,9976.0 7270.0,9976.0 7242.0,9996.0 C 7229.0,10005.0 7208.0,10010.0 7194.0,10007.0 C 7175.0,10004.0 7165.0,10010.0 7149.0,10031.0 C 7127.0,10062.0 7105.0,10068.0 7097.0,10046.0 C 7094.0,10038.0 7081.0,10030.0 7068.0,10028.0 C 7052.0,10026.0 7044.0,10016.0 7039.0,9992.0 C 7035.0,9974.0 7036.0,9957.0 7041.0,9954.0 C 7059.0,9943.0 7049.0,9895.0 7024.0,9869.0 L 6998.0,9841.0 L 7029.0,9795.0 L 7060.0,9749.0 L 7044.0,9692.0 C 7035.0,9661.0 7021.0,9628.0 7014.0,9619.0 C 6997.0,9599.0 6996.0,9590.0 7013.0,9590.0 C 7045.0,9590.0 7080.0,9565.0 7078.0,9543.0 C 7076.0,9531.0 7086.0,9510.0 7098.0,9497.0 C 7128.0,9465.0 7123.0,9438.0 7085.0,9424.0 C 7015.0,9400.0 6994.0,9380.0 6984.0,9325.0 C 6979.0,9296.0 6978.0,9266.0 6982.0,9259.0 C 6986.0,9251.0 6992.0,9232.0 6995.0,9216.0 C 6998.0,9200.0 7009.0,9186.0 7020.0,9183.0 C 7036.0,9179.0 7040.0,9169.0 7040.0,9131.0 C 7041.0,9106.0 7047.0,9074.0 7055.0,9060.0 C 7086.0,9007.0 7069.0,8930.0 7022.0,8911.0 C 6998.0,8901.0 6991.0,8889.0 6980.0,8846.0 C 6970.0,8805.0 6970.0,8788.0 6979.0,8771.0 C 6995.0,8742.0 6981.0,8724.0 6933.0,8715.0 C 6891.0,8707.0 6860.0,8690.0 6860.0,8673.0 C 6860.0,8654.0 6836.0,8651.0 6817.0,8669.0 C 6799.0,8684.0 6797.0,8683.0 6779.0,8661.0 C 6760.0,8637.0 6759.0,8637.0 6726.0,8655.0 C 6695.0,8672.0 6690.0,8672.0 6646.0,8657.0 C 6589.0,8637.0 6570.0,8643.0 6570.0,8680.0 C 6570.0,8701.0 6560.0,8717.0 6530.0,8740.0 C 6493.0,8769.0 6486.0,8771.0 6442.0,8765.0 C 6402.0,8759.0 6391.0,8753.0 6368.0,8719.0 C 6337.0,8675.0 6330.0,8620.0 6355.0,8620.0 C 6386.0,8620.0 6430.0,8590.0 6430.0,8569.0 C 6430.0,8550.0 6434.0,8549.0 6470.0,8555.0 C 6512.0,8562.0 6522.0,8552.0 6495.0,8530.0 C 6487.0,8523.0 6480.0,8509.0 6480.0,8498.0 C 6480.0,8488.0 6473.0,8466.0 6466.0,8451.0 C 6453.0,8427.0 6453.0,8416.0 6466.0,8364.0 C 6475.0,8332.0 6490.0,8300.0 6501.0,8292.0 C 6513.0,8284.0 6520.0,8267.0 6520.0,8245.0 C 6520.0,8221.0 6525.0,8210.0 6539.0,8205.0 C 6556.0,8200.0 6557.0,8195.0 6548.0,8169.0 C 6540.0,8145.0 6541.0,8131.0 6556.0,8099.0 C 6575.0,8055.0 6576.0,8061.0 6529.0,7968.0 C 6524.0,7957.0 6530.0,7931.0 6547.0,7890.0 C 6573.0,7830.0 6574.0,7829.0 6609.0,7832.0 C 6641.0,7835.0 6646.0,7839.0 6654.0,7873.0 C 6660.0,7898.0 6668.0,7909.0 6677.0,7906.0 C 6684.0,7903.0 6702.0,7912.0 6717.0,7926.0 C 6731.0,7939.0 6750.0,7948.0 6759.0,7946.0 C 6768.0,7944.0 6792.0,7939.0 6813.0,7935.0 C 6834.0,7932.0 6850.0,7923.0 6850.0,7916.0 C 6850.0,7908.0 6859.0,7900.0 6870.0,7897.0 C 6881.0,7894.0 6894.0,7880.0 6900.0,7866.0 C 6905.0,7852.0 6914.0,7840.0 6920.0,7840.0 C 6925.0,7840.0 6930.0,7834.0 6930.0,7826.0 C 6930.0,7798.0 6975.0,7760.0 7030.0,7740.0 C 7095.0,7716.0 7124.0,7714.0 7117.0,7734.0 C 7114.0,7742.0 7122.0,7753.0 7137.0,7761.0 C 7158.0,7772.0 7164.0,7772.0 7168.0,7762.0 C 7170.0,7755.0 7194.0,7729.0 7220.0,7704.0 C 7263.0,7663.0 7268.0,7654.0 7263.0,7628.0 C 7259.0,7606.0 7261.0,7595.0 7273.0,7588.0 C 7282.0,7584.0 7287.0,7573.0 7284.0,7566.0 C 7280.0,7557.0 7290.0,7551.0 7312.0,7547.0 C 7340.0,7542.0 7350.0,7546.0 7376.0,7574.0 C 7407.0,7606.0 7408.0,7607.0 7471.0,7599.0 C 7506.0,7595.0 7538.0,7593.0 7541.0,7596.0 C 7551.0,7602.0 7562.0,7559.0 7560.0,7518.0 C 7559.0,7495.0 7563.0,7480.0 7570.0,7480.0 C 7577.0,7480.0 7581.0,7467.0 7579.0,7448.0 C 7578.0,7430.0 7580.0,7404.0 7584.0,7392.0 L 7592.0,7368.0 L 7620.0,7395.0 C 7635.0,7410.0 7656.0,7442.0 7665.0,7467.0 C 7681.0,7509.0 7681.0,7514.0 7667.0,7524.0 C 7659.0,7531.0 7647.0,7554.0 7641.0,7577.0 C 7635.0,7599.0 7623.0,7623.0 7615.0,7630.0 C 7607.0,7637.0 7600.0,7648.0 7600.0,7655.0 C 7600.0,7663.0 7596.0,7670.0 7590.0,7672.0 C 7569.0,7679.0 7593.0,7719.0 7626.0,7730.0 C 7655.0,7740.0 7658.0,7744.0 7650.0,7761.0 C 7641.0,7777.0 7643.0,7780.0 7659.0,7780.0 C 7670.0,7780.0 7685.0,7787.0 7692.0,7795.0 C 7743.0,7856.0 7770.0,7880.0 7788.0,7880.0 C 7800.0,7880.0 7814.0,7889.0 7820.0,7900.0 C 7833.0,7924.0 7876.0,7926.0 7905.0,7904.0 C 7919.0,7894.0 7924.0,7880.0 7921.0,7855.0 C 7918.0,7811.0 7939.0,7800.0 7976.0,7829.0 C 7991.0,7841.0 8009.0,7850.0 8016.0,7850.0 C 8060.0,7850.0 8051.0,7953.0 8005.0,7964.0 C 7973.0,7972.0 7962.0,8009.0 7986.0,8027.0 C 7996.0,8034.0 8009.0,8040.0 8016.0,8040.0 C 8023.0,8040.0 8025.0,8050.0 8022.0,8066.0 C 8019.0,8086.0 8022.0,8092.0 8039.0,8097.0 C 8054.0,8101.0 8059.0,8109.0 8058.0,8129.0 C 8054.0,8185.0 8060.0,8209.0 8079.0,8215.0 C 8096.0,8220.0 8099.0,8232.0 8102.0,8298.0 C 8104.0,8340.0 8102.0,8377.0 8098.0,8380.0 C 8095.0,8383.0 8088.0,8398.0 8085.0,8413.0 C 8081.0,8429.0 8071.0,8444.0 8064.0,8447.0 C 8056.0,8450.0 8050.0,8460.0 8050.0,8469.0 C 8050.0,8478.0 8041.0,8491.0 8030.0,8498.0 C 8009.0,8511.0 8001.0,8573.0 8019.0,8584.0 C 8024.0,8588.0 8024.0,8602.0 8017.0,8619.0 C 8003.0,8656.0 8013.0,8678.0 8047.0,8686.0 C 8096.0,8698.0 8236.0,8823.0 8242.0,8860.0 C 8244.0,8877.0 8254.0,8887.0 8275.0,8893.0 C 8292.0,8898.0 8317.0,8908.0 8331.0,8915.0 C 8348.0,8923.0 8363.0,8924.0 8374.0,8918.0 C 8383.0,8913.0 8395.0,8912.0 8401.0,8916.0 C 8407.0,8919.0 8422.0,8910.0 8435.0,8894.0 L 8458.0,8866.0 L 8498.0,8900.0 C 8520.0,8919.0 8543.0,8945.0 8549.0,8958.0 C 8555.0,8971.0 8574.0,8986.0 8590.0,8992.0 C 8621.0,9002.0 8657.0,9060.0 8645.0,9079.0 C 8642.0,9085.0 8644.0,9099.0 8650.0,9110.0 C 8659.0,9127.0 8657.0,9132.0 8637.0,9141.0 C 8624.0,9147.0 8609.0,9165.0 8603.0,9181.0 C 8590.0,9214.0 8560.0,9221.0 8560.0,9190.0 C 8560.0,9174.0 8553.0,9170.0 8526.0,9170.0 C 8507.0,9170.0 8489.0,9174.0 8486.0,9179.0 C 8483.0,9184.0 8494.0,9205.0 8510.0,9225.0 C 8549.0,9274.0 8550.0,9310.0 8513.0,9310.0 C 8499.0,9310.0 8479.0,9317.0 8469.0,9326.0 C 8454.0,9340.0 8450.0,9339.0 8430.0,9310.0 L 8408.0,9280.0 L 8367.0,9302.0 C 8344.0,9315.0 8321.0,9331.0 8317.0,9338.0 C 8313.0,9344.0 8303.0,9350.0 8296.0,9350.0 C 8282.0,9350.0 8257.0,9390.0 8261.0,9406.0 C 8265.0,9419.0 8250.0,9460.0 8242.0,9460.0 C 8238.0,9460.0 8227.0,9451.0 8217.0,9440.0 C 8206.0,9427.0 8188.0,9420.0 8165.0,9420.0 C 8108.0,9420.0 8055.0,9387.0 8036.0,9340.0 C 8018.0,9295.0 8014.0,9293.0 7982.0,9316.0 C 7959.0,9332.0 7953.0,9364.0 7970.0,9375.0 C 7976.0,9378.0 7980.0,9390.0 7980.0,9401.0 C 7980.0,9413.0 7990.0,9424.0 8005.0,9430.0 C 8020.0,9436.0 8030.0,9447.0 8030.0,9459.0 C 8030.0,9483.0 8053.0,9502.0 8073.0,9494.0 C 8092.0,9487.0 8110.0,9518.0 8110.0,9559.0 C 8110.0,9579.0 8117.0,9593.0 8130.0,9600.0 C 8142.0,9606.0 8155.0,9622.0 8160.0,9635.0 C 8167.0,9653.0 8179.0,9660.0 8214.0,9665.0 C 8239.0,9669.0 8266.0,9670.0 8274.0,9667.0 C 8283.0,9663.0 8311.0,9668.0 8337.0,9676.0 C 8363.0,9685.0 8391.0,9694.0 8399.0,9696.0 C 8409.0,9699.0 8405.0,9709.0 8382.0,9733.0 C 8364.0,9751.0 8350.0,9769.0 8350.0,9774.0 C 8350.0,9787.0 8409.0,9856.0 8440.0,9878.0 C 8467.0,9898.0 8471.0,9899.0 8504.0,9885.0 C 8523.0,9877.0 8541.0,9861.0 8545.0,9850.0 C 8548.0,9839.0 8559.0,9830.0 8569.0,9830.0 C 8579.0,9830.0 8595.0,9821.0 8605.0,9810.0 C 8625.0,9788.0 8638.0,9786.0 8659.0,9799.0 C 8676.0,9810.0 8666.0,9844.0 8637.0,9872.0 C 8624.0,9884.0 8620.0,9894.0 8626.0,9897.0 C 8632.0,9899.0 8645.0,9906.0 8654.0,9913.0 C 8678.0,9930.0 8665.0,9978.0 8635.0,9990.0 C 8622.0,9995.0 8609.0,10004.0 8605.0,10009.0 C 8601.0,10017.0 8593.0,10017.0 8580.0,10010.0 C 8553.0,9995.0 8529.0,9998.0 8508.0,10017.0 C 8498.0,10026.0 8480.0,10038.0 8467.0,10044.0 C 8455.0,10050.0 8443.0,10067.0 8442.0,10080.0 C 8437.0,10110.0 8422.0,10130.0 8404.0,10130.0 C 8396.0,10130.0 8367.0,10146.0 8340.0,10165.0 C 8313.0,10184.0 8288.0,10200.0 8285.0,10200.0 C 8282.0,10200.0 8280.0,10187.0 8280.0,10170.0 C 8280.0,10123.0 8262.0,10096.0 8207.0,10063.0 L 8156.0,10032.0 L 8143.0,10057.0 C 8136.0,10071.0 8130.0,10089.0 8130.0,10096.0 C 8130.0,10112.0 8114.0,10115.0 8105.0,10100.0 C 8102.0,10095.0 8092.0,10090.0 8084.0,10090.0 C 8075.0,10090.0 8062.0,10083.0 8054.0,10075.0 C 8031.0,10053.0 8013.0,10057.0 7993.0,10088.0 C 7971.0,10122.0 7960.0,10130.0 7934.0,10130.0 C 7923.0,10130.0 7904.0,10141.0 7892.0,10155.0 C 7868.0,10183.0 7850.0,10186.0 7832.0,10168.0 C 7822.0,10158.0 7813.0,10160.0 7789.0,10174.0 C 7773.0,10184.0 7752.0,10189.0 7744.0,10186.0 C 7725.0,10179.0 7680.0,10196.0 7653.0,10222.0 C 7627.0,10246.0 7628.0,10246.0 7614.0,10205.0 C 7602.0,10167.0 7574.0,10161.0 7559.0,10193.0 C 7549.0,10216.0 7513.0,10240.0 7489.0,10240.0 C 7482.0,10240.0 7481.0,10225.0 7485.0,10198.0" fill="pink"/>
	<path d="M 5045.0,7320.0 C 5025.0,7297.0 4984.0,7294.0 4945.0,7312.0 C 4926.0,7321.0 4914.0,7321.0 4901.0,7313.0 C 4891.0,7307.0 4872.0,7304.0 4857.0,7307.0 C 4838.0,7311.0 4825.0,7305.0 4807.0,7286.0 C 4787.0,7264.0 4774.0,7260.0 4731.0,7260.0 C 4694.0,7260.0 4678.0,7256.0 4674.0,7245.0 C 4666.0,7224.0 4617.0,7226.0 4572.0,7249.0 C 4495.0,7287.0 4431.0,7281.0 4386.0,7231.0 C 4369.0,7212.0 4368.0,7212.0 4323.0,7232.0 C 4281.0,7250.0 4274.0,7251.0 4240.0,7237.0 C 4207.0,7224.0 4202.0,7224.0 4193.0,7239.0 C 4177.0,7264.0 4149.0,7236.0 4156.0,7202.0 C 4160.0,7183.0 4152.0,7161.0 4131.0,7127.0 C 4114.0,7101.0 4100.0,7073.0 4100.0,7065.0 C 4100.0,7057.0 4090.0,7045.0 4078.0,7039.0 C 4048.0,7024.0 3965.0,6940.0 3957.0,6918.0 C 3954.0,6908.0 3938.0,6898.0 3923.0,6894.0 C 3873.0,6882.0 3813.0,6840.0 3800.0,6810.0 C 3785.0,6773.0 3726.0,6720.0 3701.0,6720.0 C 3688.0,6720.0 3661.0,6687.0 3616.0,6616.0 C 3553.0,6518.0 3547.0,6512.0 3495.0,6492.0 C 3465.0,6480.0 3417.0,6456.0 3388.0,6437.0 C 3339.0,6406.0 3333.0,6404.0 3303.0,6416.0 C 3286.0,6424.0 3227.0,6431.0 3173.0,6432.0 L 3075.0,6435.0 L 3028.0,6388.0 C 2990.0,6350.0 2980.0,6334.0 2974.0,6294.0 C 2966.0,6238.0 2958.0,6230.0 2912.0,6230.0 C 2879.0,6230.0 2817.0,6196.0 2768.0,6151.0 C 2751.0,6136.0 2731.0,6098.0 2715.0,6049.0 C 2700.0,6006.0 2682.0,5966.0 2674.0,5959.0 C 2664.0,5951.0 2639.0,5949.0 2592.0,5953.0 C 2511.0,5961.0 2513.0,5962.0 2405.0,5851.0 C 2339.0,5783.0 2321.0,5770.0 2294.0,5770.0 C 2277.0,5770.0 2257.0,5763.0 2250.0,5755.0 C 2243.0,5747.0 2226.0,5740.0 2211.0,5740.0 C 2168.0,5740.0 2138.0,5718.0 2123.0,5675.0 C 2116.0,5653.0 2103.0,5629.0 2096.0,5622.0 C 2085.0,5611.0 2085.0,5600.0 2097.0,5558.0 C 2109.0,5520.0 2110.0,5502.0 2101.0,5483.0 C 2095.0,5470.0 2090.0,5448.0 2090.0,5435.0 C 2090.0,5422.0 2086.0,5409.0 2081.0,5406.0 C 2077.0,5403.0 2070.0,5374.0 2066.0,5341.0 C 2061.0,5302.0 2053.0,5277.0 2040.0,5265.0 C 2029.0,5255.0 2017.0,5231.0 2014.0,5211.0 C 2010.0,5191.0 1999.0,5167.0 1989.0,5157.0 C 1978.0,5146.0 1970.0,5125.0 1970.0,5105.0 C 1970.0,5086.0 1959.0,5050.0 1945.0,5024.0 C 1931.0,4998.0 1920.0,4971.0 1920.0,4963.0 C 1920.0,4947.0 1880.0,4930.0 1841.0,4930.0 C 1803.0,4930.0 1691.0,4815.0 1688.0,4773.0 C 1682.0,4671.0 1666.0,4593.0 1646.0,4571.0 C 1638.0,4562.0 1629.0,4539.0 1625.0,4520.0 C 1614.0,4460.0 1609.0,4450.0 1594.0,4450.0 C 1586.0,4450.0 1580.0,4446.0 1580.0,4440.0 C 1580.0,4435.0 1585.0,4430.0 1591.0,4430.0 C 1597.0,4430.0 1599.0,4422.0 1595.0,4411.0 C 1591.0,4398.0 1600.0,4381.0 1625.0,4355.0 C 1659.0,4318.0 1670.0,4290.0 1650.0,4290.0 C 1643.0,4290.0 1643.0,4284.0 1650.0,4271.0 C 1663.0,4245.0 1653.0,4220.0 1629.0,4220.0 C 1608.0,4220.0 1604.0,4200.0 1621.0,4183.0 C 1629.0,4175.0 1628.0,4167.0 1620.0,4153.0 C 1610.0,4138.0 1613.0,4126.0 1639.0,4082.0 C 1665.0,4038.0 1668.0,4025.0 1659.0,4008.0 C 1645.0,3982.0 1641.0,3930.0 1650.0,3910.0 C 1678.0,3852.0 1682.0,3838.0 1678.0,3808.0 C 1675.0,3789.0 1679.0,3761.0 1688.0,3743.0 C 1700.0,3717.0 1701.0,3708.0 1690.0,3695.0 C 1683.0,3687.0 1669.0,3680.0 1659.0,3680.0 C 1649.0,3680.0 1636.0,3671.0 1630.0,3660.0 C 1618.0,3638.0 1629.0,3633.0 1648.0,3652.0 C 1657.0,3661.0 1666.0,3658.0 1689.0,3636.0 C 1715.0,3611.0 1716.0,3606.0 1708.0,3567.0 C 1691.0,3486.0 1697.0,3459.0 1745.0,3410.0 C 1770.0,3385.0 1790.0,3359.0 1790.0,3353.0 C 1790.0,3347.0 1799.0,3338.0 1810.0,3335.0 C 1821.0,3332.0 1830.0,3322.0 1830.0,3314.0 C 1830.0,3306.0 1839.0,3291.0 1850.0,3280.0 C 1880.0,3250.0 1892.0,3213.0 1879.0,3191.0 C 1870.0,3178.0 1871.0,3158.0 1880.0,3114.0 C 1895.0,3049.0 1898.0,2841.0 1886.0,2798.0 C 1879.0,2774.0 1881.0,2770.0 1898.0,2770.0 C 1909.0,2770.0 1923.0,2763.0 1930.0,2755.0 C 1937.0,2747.0 1948.0,2740.0 1954.0,2740.0 C 1960.0,2740.0 1973.0,2722.0 1983.0,2700.0 C 1993.0,2677.0 2010.0,2656.0 2024.0,2650.0 C 2056.0,2638.0 2066.0,2600.0 2037.0,2600.0 C 2010.0,2599.0 1966.0,2564.0 1975.0,2550.0 C 1978.0,2545.0 1989.0,2540.0 1999.0,2540.0 C 2010.0,2540.0 2023.0,2528.0 2030.0,2509.0 C 2042.0,2481.0 2046.0,2479.0 2076.0,2484.0 C 2105.0,2490.0 2112.0,2486.0 2144.0,2448.0 C 2181.0,2405.0 2190.0,2364.0 2168.0,2342.0 C 2159.0,2333.0 2159.0,2330.0 2169.0,2330.0 C 2178.0,2330.0 2179.0,2318.0 2174.0,2283.0 C 2167.0,2232.0 2158.0,2220.0 2123.0,2220.0 C 2107.0,2220.0 2100.0,2212.0 2095.0,2189.0 C 2086.0,2148.0 2094.0,2143.0 2136.0,2164.0 C 2169.0,2179.0 2174.0,2179.0 2196.0,2165.0 C 2209.0,2157.0 2220.0,2141.0 2220.0,2130.0 C 2220.0,2119.0 2227.0,2110.0 2235.0,2110.0 C 2243.0,2110.0 2250.0,2104.0 2250.0,2096.0 C 2250.0,2076.0 2307.0,2058.0 2330.0,2070.0 C 2355.0,2084.0 2450.0,2083.0 2450.0,2069.0 C 2450.0,2063.0 2469.0,2026.0 2492.0,1987.0 C 2534.0,1914.0 2541.0,1880.0 2517.0,1851.0 C 2510.0,1842.0 2498.0,1822.0 2492.0,1807.0 C 2481.0,1781.0 2482.0,1778.0 2499.0,1773.0 C 2527.0,1766.0 2544.0,1720.0 2530.0,1688.0 C 2520.0,1668.0 2521.0,1657.0 2534.0,1632.0 C 2555.0,1591.0 2554.0,1574.0 2529.0,1556.0 C 2517.0,1548.0 2511.0,1537.0 2515.0,1530.0 C 2528.0,1508.0 2511.0,1470.0 2487.0,1470.0 L 2465.0,1469.0 L 2489.0,1450.0 C 2509.0,1433.0 2512.0,1423.0 2508.0,1386.0 C 2505.0,1362.0 2507.0,1334.0 2513.0,1325.0 C 2521.0,1310.0 2518.0,1303.0 2501.0,1289.0 C 2479.0,1271.0 2479.0,1242.0 2500.0,1215.0 C 2513.0,1199.0 2499.0,1150.0 2479.0,1140.0 C 2468.0,1133.0 2452.0,1133.0 2435.0,1140.0 C 2421.0,1145.0 2398.0,1150.0 2384.0,1150.0 C 2365.0,1150.0 2360.0,1145.0 2360.0,1123.0 C 2360.0,1109.0 2353.0,1088.0 2343.0,1078.0 C 2328.0,1061.0 2328.0,1060.0 2353.0,1060.0 C 2374.0,1060.0 2386.0,1050.0 2410.0,1013.0 C 2426.0,986.0 2440.0,959.0 2440.0,953.0 C 2440.0,946.0 2449.0,931.0 2459.0,921.0 C 2475.0,905.0 2478.0,893.0 2473.0,863.0 C 2470.0,842.0 2462.0,818.0 2455.0,810.0 C 2431.0,780.0 2429.0,772.0 2450.0,777.0 C 2474.0,783.0 2479.0,753.0 2455.0,744.0 C 2438.0,737.0 2433.0,650.0 2450.0,650.0 C 2456.0,650.0 2460.0,643.0 2460.0,634.0 C 2460.0,622.0 2467.0,619.0 2486.0,623.0 C 2507.0,627.0 2512.0,623.0 2517.0,598.0 C 2521.0,578.0 2527.0,571.0 2537.0,574.0 C 2545.0,578.0 2555.0,580.0 2560.0,580.0 C 2564.0,580.0 2570.0,598.0 2573.0,621.0 C 2580.0,672.0 2584.0,677.0 2619.0,663.0 C 2644.0,654.0 2651.0,656.0 2669.0,673.0 C 2686.0,691.0 2694.0,692.0 2724.0,683.0 C 2756.0,673.0 2761.0,674.0 2775.0,696.0 C 2783.0,709.0 2799.0,720.0 2810.0,720.0 C 2837.0,720.0 2850.0,748.0 2837.0,777.0 C 2829.0,794.0 2830.0,804.0 2838.0,812.0 C 2847.0,821.0 2850.0,820.0 2850.0,806.0 C 2850.0,781.0 2884.0,790.0 2888.0,816.0 C 2890.0,830.0 2882.0,843.0 2866.0,853.0 C 2842.0,869.0 2842.0,870.0 2857.0,909.0 C 2866.0,933.0 2869.0,956.0 2865.0,967.0 C 2854.0,991.0 2858.0,1011.0 2877.0,1033.0 C 2896.0,1054.0 2929.0,1055.0 2936.0,1035.0 C 2939.0,1027.0 2950.0,1018.0 2960.0,1015.0 C 2971.0,1011.0 2976.0,1003.0 2973.0,991.0 C 2970.0,978.0 2975.0,971.0 2993.0,966.0 C 3011.0,962.0 3020.0,949.0 3030.0,915.0 C 3037.0,891.0 3040.0,864.0 3037.0,855.0 C 3032.0,844.0 3038.0,840.0 3059.0,840.0 C 3076.0,840.0 3090.0,846.0 3094.0,856.0 C 3097.0,864.0 3104.0,869.0 3110.0,865.0 C 3115.0,862.0 3130.0,866.0 3144.0,875.0 C 3168.0,891.0 3168.0,890.0 3175.0,861.0 C 3181.0,832.0 3210.0,816.0 3210.0,841.0 C 3210.0,847.0 3218.0,849.0 3229.0,845.0 C 3252.0,838.0 3264.0,874.0 3248.0,903.0 C 3240.0,919.0 3241.0,925.0 3254.0,932.0 C 3269.0,941.0 3269.0,943.0 3253.0,970.0 C 3239.0,994.0 3238.0,1004.0 3248.0,1025.0 C 3255.0,1039.0 3260.0,1062.0 3260.0,1075.0 C 3260.0,1101.0 3312.0,1146.0 3330.0,1135.0 C 3336.0,1131.0 3340.0,1143.0 3340.0,1163.0 C 3340.0,1199.0 3357.0,1214.0 3385.0,1204.0 C 3404.0,1196.0 3405.0,1223.0 3386.0,1239.0 C 3365.0,1257.0 3356.0,1308.0 3371.0,1326.0 C 3381.0,1338.0 3381.0,1351.0 3371.0,1391.0 C 3353.0,1462.0 3364.0,1516.0 3407.0,1555.0 C 3438.0,1583.0 3440.0,1589.0 3430.0,1614.0 C 3414.0,1658.0 3425.0,1674.0 3488.0,1697.0 C 3555.0,1721.0 3598.0,1717.0 3610.0,1686.0 C 3614.0,1674.0 3625.0,1658.0 3633.0,1651.0 C 3646.0,1641.0 3650.0,1642.0 3660.0,1660.0 C 3666.0,1671.0 3676.0,1678.0 3682.0,1674.0 C 3687.0,1670.0 3696.0,1673.0 3700.0,1680.0 C 3712.0,1700.0 3730.0,1682.0 3730.0,1650.0 C 3730.0,1633.0 3737.0,1617.0 3748.0,1611.0 C 3762.0,1603.0 3763.0,1598.0 3753.0,1582.0 C 3744.0,1566.0 3745.0,1560.0 3762.0,1546.0 C 3777.0,1533.0 3785.0,1531.0 3796.0,1541.0 C 3804.0,1547.0 3810.0,1559.0 3810.0,1566.0 C 3810.0,1584.0 3821.0,1584.0 3870.0,1564.0 C 3892.0,1555.0 3917.0,1550.0 3925.0,1554.0 C 3933.0,1557.0 3940.0,1555.0 3940.0,1550.0 C 3940.0,1544.0 3947.0,1540.0 3955.0,1540.0 C 3967.0,1540.0 3968.0,1549.0 3964.0,1584.0 C 3958.0,1622.0 3961.0,1630.0 3979.0,1642.0 C 3990.0,1649.0 4000.0,1661.0 4000.0,1669.0 C 4000.0,1678.0 4006.0,1680.0 4023.0,1675.0 C 4035.0,1671.0 4059.0,1667.0 4075.0,1667.0 C 4092.0,1667.0 4108.0,1663.0 4112.0,1657.0 C 4118.0,1646.0 4220.0,1629.0 4220.0,1639.0 C 4220.0,1642.0 4208.0,1657.0 4193.0,1673.0 C 4166.0,1701.0 4165.0,1702.0 4184.0,1716.0 C 4195.0,1724.0 4212.0,1730.0 4221.0,1730.0 C 4231.0,1730.0 4242.0,1739.0 4245.0,1750.0 C 4249.0,1761.0 4265.0,1777.0 4281.0,1785.0 C 4297.0,1794.0 4310.0,1807.0 4310.0,1815.0 C 4310.0,1824.0 4326.0,1845.0 4345.0,1863.0 C 4407.0,1921.0 4407.0,1921.0 4420.0,1905.0 C 4427.0,1897.0 4439.0,1890.0 4447.0,1890.0 C 4457.0,1890.0 4458.0,1894.0 4450.0,1909.0 C 4443.0,1922.0 4443.0,1937.0 4450.0,1955.0 C 4458.0,1977.0 4464.0,1979.0 4487.0,1973.0 C 4517.0,1966.0 4524.0,1965.0 4584.0,1968.0 C 4620.0,1970.0 4622.0,1972.0 4617.0,1997.0 C 4606.0,2055.0 4635.0,2069.0 4775.0,2075.0 C 4870.0,2079.0 4892.0,2090.0 4915.0,2140.0 C 4930.0,2173.0 4931.0,2185.0 4922.0,2200.0 C 4915.0,2212.0 4914.0,2221.0 4920.0,2225.0 C 4935.0,2234.0 4932.0,2300.0 4917.0,2300.0 C 4910.0,2300.0 4885.0,2316.0 4863.0,2335.0 C 4840.0,2354.0 4815.0,2370.0 4806.0,2370.0 C 4794.0,2370.0 4790.0,2380.0 4790.0,2405.0 C 4790.0,2452.0 4832.0,2495.0 4862.0,2479.0 C 4873.0,2473.0 4898.0,2471.0 4917.0,2475.0 C 4952.0,2481.0 4952.0,2482.0 4947.0,2522.0 C 4939.0,2578.0 4946.0,2590.0 4986.0,2590.0 C 5007.0,2590.0 5023.0,2596.0 5026.0,2605.0 C 5034.0,2624.0 5092.0,2660.0 5117.0,2660.0 C 5127.0,2660.0 5157.0,2674.0 5183.0,2690.0 C 5209.0,2707.0 5237.0,2720.0 5244.0,2720.0 C 5255.0,2720.0 5270.0,2740.0 5270.0,2755.0 C 5270.0,2766.0 5228.0,2765.0 5213.0,2754.0 C 5184.0,2732.0 5180.0,2737.0 5180.0,2794.0 C 5180.0,2831.0 5186.0,2855.0 5198.0,2870.0 C 5216.0,2892.0 5217.0,2892.0 5249.0,2876.0 C 5267.0,2866.0 5288.0,2861.0 5296.0,2864.0 C 5320.0,2873.0 5311.0,2898.0 5279.0,2909.0 C 5255.0,2917.0 5249.0,2924.0 5255.0,2937.0 C 5259.0,2947.0 5265.0,2963.0 5267.0,2973.0 C 5275.0,2999.0 5330.0,2995.0 5374.0,2965.0 C 5394.0,2951.0 5413.0,2940.0 5415.0,2940.0 C 5418.0,2940.0 5420.0,2969.0 5420.0,3005.0 C 5420.0,3062.0 5418.0,3070.0 5401.0,3070.0 C 5374.0,3070.0 5362.0,3126.0 5384.0,3148.0 C 5398.0,3163.0 5403.0,3162.0 5434.0,3148.0 C 5466.0,3132.0 5518.0,3135.0 5549.0,3154.0 C 5568.0,3166.0 5561.0,3193.0 5533.0,3215.0 C 5512.0,3232.0 5508.0,3242.0 5514.0,3263.0 C 5522.0,3298.0 5568.0,3330.0 5580.0,3310.0 C 5594.0,3287.0 5638.0,3313.0 5642.0,3347.0 C 5645.0,3371.0 5650.0,3375.0 5683.0,3378.0 C 5722.0,3381.0 5725.0,3388.0 5720.0,3448.0 C 5719.0,3461.0 5731.0,3482.0 5749.0,3501.0 C 5773.0,3525.0 5780.0,3540.0 5780.0,3571.0 C 5780.0,3604.0 5784.0,3611.0 5805.0,3616.0 C 5823.0,3620.0 5830.0,3629.0 5830.0,3646.0 C 5830.0,3671.0 5865.0,3688.0 5895.0,3677.0 C 5916.0,3668.0 5970.0,3689.0 6012.0,3723.0 C 6043.0,3748.0 6051.0,3750.0 6070.0,3740.0 C 6088.0,3730.0 6094.0,3731.0 6102.0,3741.0 C 6128.0,3781.0 6140.0,3813.0 6140.0,3845.0 C 6140.0,3878.0 6142.0,3880.0 6174.0,3880.0 C 6219.0,3880.0 6240.0,3889.0 6240.0,3907.0 C 6240.0,3917.0 6233.0,3921.0 6221.0,3917.0 C 6208.0,3914.0 6200.0,3918.0 6197.0,3932.0 C 6192.0,3948.0 6195.0,3951.0 6212.0,3946.0 C 6227.0,3943.0 6244.0,3950.0 6267.0,3970.0 C 6286.0,3987.0 6307.0,4000.0 6314.0,4000.0 C 6323.0,4000.0 6330.0,4018.0 6334.0,4053.0 C 6338.0,4082.0 6350.0,4119.0 6360.0,4135.0 C 6371.0,4152.0 6380.0,4173.0 6380.0,4183.0 C 6380.0,4195.0 6388.0,4200.0 6410.0,4200.0 C 6432.0,4200.0 6443.0,4206.0 6448.0,4221.0 L 6456.0,4241.0 L 6474.0,4221.0 C 6492.0,4201.0 6530.0,4193.0 6542.0,4206.0 C 6555.0,4218.0 6536.0,4251.0 6514.0,4256.0 C 6500.0,4260.0 6490.0,4270.0 6490.0,4280.0 C 6490.0,4290.0 6487.0,4306.0 6484.0,4314.0 C 6479.0,4326.0 6482.0,4329.0 6494.0,4324.0 C 6504.0,4320.0 6527.0,4326.0 6546.0,4336.0 C 6577.0,4353.0 6580.0,4358.0 6580.0,4403.0 C 6580.0,4440.0 6576.0,4452.0 6563.0,4456.0 C 6523.0,4468.0 6517.0,4476.0 6517.0,4520.0 C 6517.0,4545.0 6520.0,4576.0 6524.0,4588.0 C 6530.0,4606.0 6527.0,4615.0 6510.0,4627.0 C 6480.0,4648.0 6487.0,4684.0 6522.0,4688.0 C 6552.0,4692.0 6567.0,4723.0 6557.0,4760.0 C 6554.0,4770.0 6557.0,4785.0 6564.0,4793.0 C 6579.0,4813.0 6629.0,4823.0 6645.0,4810.0 C 6654.0,4802.0 6659.0,4803.0 6663.0,4813.0 C 6666.0,4822.0 6649.0,4839.0 6614.0,4860.0 C 6579.0,4881.0 6560.0,4899.0 6560.0,4912.0 C 6560.0,4922.0 6553.0,4942.0 6544.0,4955.0 C 6529.0,4978.0 6530.0,4982.0 6551.0,5025.0 C 6566.0,5054.0 6580.0,5070.0 6592.0,5070.0 C 6603.0,5070.0 6620.0,5075.0 6631.0,5080.0 C 6650.0,5091.0 6650.0,5092.0 6633.0,5120.0 C 6617.0,5148.0 6617.0,5151.0 6632.0,5167.0 C 6646.0,5181.0 6654.0,5182.0 6675.0,5172.0 C 6720.0,5151.0 6755.0,5157.0 6770.0,5188.0 C 6777.0,5203.0 6782.0,5223.0 6781.0,5233.0 C 6780.0,5243.0 6785.0,5262.0 6794.0,5274.0 C 6810.0,5300.0 6798.0,5323.0 6774.0,5313.0 C 6766.0,5310.0 6742.0,5326.0 6719.0,5349.0 C 6696.0,5372.0 6674.0,5390.0 6670.0,5390.0 C 6665.0,5390.0 6656.0,5406.0 6650.0,5425.0 C 6644.0,5444.0 6634.0,5460.0 6629.0,5460.0 C 6613.0,5460.0 6589.0,5533.0 6596.0,5563.0 C 6604.0,5603.0 6560.0,5670.0 6525.0,5670.0 C 6507.0,5670.0 6494.0,5680.0 6479.0,5703.0 C 6462.0,5730.0 6460.0,5744.0 6466.0,5790.0 C 6470.0,5820.0 6474.0,5859.0 6476.0,5875.0 C 6477.0,5892.0 6481.0,5915.0 6485.0,5926.0 C 6490.0,5942.0 6486.0,5952.0 6469.0,5964.0 C 6447.0,5979.0 6445.0,5988.0 6444.0,6074.0 C 6443.0,6148.0 6438.0,6174.0 6424.0,6194.0 C 6402.0,6223.0 6390.0,6227.0 6390.0,6204.0 C 6390.0,6195.0 6379.0,6177.0 6365.0,6164.0 C 6351.0,6151.0 6340.0,6132.0 6340.0,6121.0 C 6340.0,6093.0 6332.0,6091.0 6268.0,6102.0 C 6219.0,6110.0 6205.0,6118.0 6170.0,6156.0 C 6116.0,6215.0 6114.0,6262.0 6165.0,6319.0 C 6205.0,6363.0 6211.0,6407.0 6182.0,6433.0 C 6159.0,6454.0 6116.0,6455.0 6085.0,6434.0 C 6046.0,6409.0 6018.0,6419.0 5993.0,6470.0 C 5965.0,6524.0 5963.0,6590.0 5988.0,6613.0 C 6027.0,6651.0 6067.0,6677.0 6093.0,6684.0 C 6115.0,6689.0 6120.0,6695.0 6115.0,6708.0 C 6111.0,6717.0 6104.0,6741.0 6101.0,6760.0 C 6094.0,6794.0 6093.0,6795.0 6051.0,6792.0 C 6017.0,6790.0 6002.0,6794.0 5984.0,6811.0 C 5963.0,6830.0 5955.0,6832.0 5928.0,6823.0 C 5904.0,6816.0 5887.0,6817.0 5865.0,6826.0 C 5849.0,6833.0 5825.0,6839.0 5813.0,6840.0 C 5801.0,6840.0 5787.0,6846.0 5783.0,6853.0 C 5779.0,6859.0 5750.0,6882.0 5718.0,6902.0 C 5659.0,6941.0 5658.0,6942.0 5645.0,7045.0 C 5637.0,7105.0 5617.0,7145.0 5589.0,7160.0 C 5556.0,7178.0 5477.0,7200.0 5371.0,7220.0 C 5265.0,7240.0 5200.0,7263.0 5200.0,7279.0 C 5200.0,7285.0 5190.0,7290.0 5178.0,7290.0 C 5165.0,7290.0 5137.0,7302.0 5115.0,7315.0 C 5067.0,7345.0 5068.0,7345.0 5045.0,7320.0" fill="pink"/>
	<path d="M 2695.0,296.0 C 2675.0,279.0 2657.0,273.0 2643.0,277.0 C 2626.0,281.0 2620.0,278.0 2620.0,266.0 C 2620.0,254.0 2614.0,251.0 2597.0,255.0 C 2581.0,259.0 2568.0,254.0 2552.0,237.0 C 2537.0,221.0 2522.0,214.0 2509.0,217.0 C 2488.0,223.0 2457.0,203.0 2466.0,189.0 C 2468.0,184.0 2464.0,170.0 2455.0,157.0 C 2447.0,144.0 2443.0,130.0 2447.0,127.0 C 2450.0,123.0 2448.0,120.0 2442.0,120.0 C 2435.0,120.0 2430.0,113.0 2430.0,105.0 C 2430.0,93.0 2438.0,91.0 2469.0,96.0 C 2503.0,101.0 2509.0,99.0 2515.0,81.0 C 2518.0,70.0 2518.0,55.0 2515.0,49.0 C 2511.0,43.0 2517.0,30.0 2528.0,20.0 C 2546.0,3.0 2549.0,3.0 2570.0,17.0 C 2588.0,30.0 2597.0,31.0 2612.0,21.0 C 2636.0,6.0 2682.0,33.0 2673.0,57.0 C 2669.0,66.0 2673.0,78.0 2681.0,84.0 C 2689.0,90.0 2706.0,108.0 2719.0,122.0 L 2743.0,149.0 L 2716.0,180.0 C 2686.0,216.0 2683.0,230.0 2705.0,230.0 C 2714.0,230.0 2720.0,239.0 2720.0,254.0 C 2720.0,268.0 2725.0,282.0 2730.0,285.0 C 2742.0,292.0 2744.0,320.0 2733.0,320.0 C 2728.0,320.0 2712.0,309.0 2695.0,296.0" fill="pink"/>
</svg>
