<?xml version="1.0" ?>
<svg xmlns="http://www.w3.org/2000/svg" xmlns:ev="http://www.w3.org/2001/xml-events" xmlns:xlink="http://www.w3.org/1999/xlink" baseProfile="full" height="534px" version="1.1" viewBox="-1028.9955186740483 -345.9193806899207 12296.752417189373 10939.83876137984" width="600px">
	<defs/>
	<path d="M 8923.0,9643.0 C 8891.0,9624.0 8847.0,9591.0 8825.0,9570.0 C 8775.0,9523.0 8729.0,9516.0 8599.0,9535.0 C 8547.0,9543.0 8451.0,9550.0 8384.0,9550.0 L 8263.0,9550.0 L 8184.0,9503.0 L 8105.0,9455.0 L 8097.0,9400.0 C 8091.0,9358.0 8082.0,9338.0 8058.0,9313.0 L 8026.0,9280.0 L 8068.0,9107.0 C 8091.0,9013.0 8110.0,8932.0 8110.0,8928.0 C 8110.0,8925.0 8090.0,8914.0 8065.0,8905.0 C 8031.0,8891.0 8006.0,8889.0 7955.0,8895.0 C 7890.0,8902.0 7889.0,8902.0 7874.0,8940.0 C 7861.0,8972.0 7850.0,8981.0 7797.0,9004.0 C 7752.0,9023.0 7718.0,9030.0 7672.0,9030.0 C 7616.0,9030.0 7602.0,9034.0 7552.0,9067.0 C 7521.0,9087.0 7441.0,9127.0 7376.0,9155.0 C 7259.0,9206.0 7256.0,9207.0 7206.0,9196.0 C 7162.0,9186.0 7152.0,9179.0 7133.0,9145.0 C 7114.0,9111.0 7110.0,9090.0 7110.0,9003.0 C 7110.0,8947.0 7105.0,8879.0 7098.0,8851.0 C 7089.0,8811.0 7090.0,8785.0 7100.0,8731.0 C 7111.0,8671.0 7111.0,8653.0 7096.0,8596.0 C 7087.0,8560.0 7075.0,8477.0 7070.0,8413.0 C 7058.0,8276.0 7052.0,8246.0 7016.0,8166.0 C 6973.0,8072.0 6882.0,7976.0 6735.0,7872.0 L 6605.0,7779.0 L 6555.0,7785.0 C 6528.0,7788.0 6441.0,7797.0 6363.0,7804.0 C 6224.0,7817.0 6218.0,7819.0 6153.0,7858.0 C 6101.0,7889.0 6079.0,7909.0 6061.0,7944.0 C 6031.0,7999.0 5979.0,8023.0 5898.0,8018.0 C 5846.0,8015.0 5845.0,8015.0 5829.0,7971.0 C 5816.0,7936.0 5805.0,7924.0 5777.0,7912.0 C 5742.0,7899.0 5740.0,7896.0 5746.0,7861.0 C 5751.0,7832.0 5746.0,7811.0 5726.0,7772.0 L 5700.0,7720.0 L 5645.0,7720.0 L 5590.0,7720.0 L 5597.0,7587.0 L 5603.0,7454.0 L 5539.0,7408.0 C 5504.0,7383.0 5444.0,7338.0 5406.0,7307.0 C 5369.0,7277.0 5321.0,7248.0 5301.0,7242.0 C 5245.0,7225.0 5177.0,7148.0 5139.0,7057.0 L 5107.0,6980.0 L 5000.0,6923.0 L 4892.0,6865.0 L 4878.0,6800.0 L 4864.0,6735.0 L 4922.0,6592.0 C 4954.0,6513.0 4980.0,6443.0 4980.0,6437.0 C 4980.0,6430.0 4985.0,6409.0 4990.0,6390.0 C 4998.0,6361.0 5011.0,6347.0 5064.0,6317.0 L 5129.0,6279.0 L 5136.0,6224.0 L 5143.0,6168.0 L 5053.0,6037.0 C 5004.0,5964.0 4917.0,5835.0 4859.0,5750.0 L 4753.0,5595.0 L 4761.0,5531.0 L 4768.0,5468.0 L 4638.0,5341.0 C 4486.0,5193.0 4410.0,5149.0 4228.0,5100.0 C 4045.0,5050.0 4052.0,5054.0 4045.0,5011.0 C 4040.0,4979.0 4028.0,4965.0 3969.0,4920.0 L 3899.0,4866.0 L 3762.0,4851.0 L 3625.0,4836.0 L 3490.0,4889.0 C 3416.0,4917.0 3325.0,4959.0 3288.0,4981.0 C 3230.0,5015.0 3213.0,5020.0 3158.0,5021.0 L 3095.0,5022.0 L 3027.0,5101.0 C 2970.0,5167.0 2945.0,5187.0 2880.0,5220.0 C 2805.0,5258.0 2798.0,5264.0 2725.0,5365.0 C 2649.0,5471.0 2630.0,5506.0 2630.0,5538.0 C 2630.0,5564.0 2756.0,5686.0 2809.0,5711.0 C 2889.0,5748.0 2891.0,5776.0 2816.0,5818.0 C 2787.0,5835.0 2760.0,5858.0 2757.0,5869.0 C 2754.0,5882.0 2769.0,5912.0 2805.0,5963.0 C 2850.0,6025.0 2900.0,6125.0 2900.0,6153.0 C 2900.0,6162.0 2790.0,6162.0 2738.0,6154.0 C 2712.0,6149.0 2699.0,6141.0 2694.0,6126.0 C 2690.0,6115.0 2669.0,6074.0 2647.0,6037.0 C 2614.0,5980.0 2598.0,5964.0 2556.0,5943.0 C 2399.0,5865.0 2309.0,5797.0 2275.0,5732.0 C 2262.0,5706.0 2238.0,5665.0 2221.0,5641.0 C 2193.0,5599.0 2185.0,5594.0 2098.0,5568.0 C 1979.0,5532.0 1857.0,5530.0 1744.0,5561.0 C 1663.0,5583.0 1503.0,5665.0 1360.0,5758.0 C 1313.0,5789.0 1217.0,5842.0 1146.0,5877.0 C 1030.0,5935.0 1004.0,5943.0 901.0,5960.0 C 795.0,5977.0 776.0,5978.0 695.0,5965.0 C 645.0,5958.0 588.0,5944.0 566.0,5935.0 C 545.0,5926.0 498.0,5913.0 461.0,5907.0 L 395.0,5895.0 L 390.0,5760.0 C 387.0,5686.0 381.0,5618.0 376.0,5610.0 C 371.0,5602.0 345.0,5565.0 318.0,5528.0 C 278.0,5474.0 255.0,5453.0 201.0,5424.0 C 163.0,5404.0 125.0,5375.0 116.0,5360.0 C 108.0,5345.0 84.0,5318.0 64.0,5300.0 C 32.0,5273.0 25.0,5258.0 14.0,5197.0 C 6.0,5157.0 0.0,5121.0 0.0,5115.0 C 0.0,5110.0 35.0,5089.0 77.0,5070.0 C 119.0,5051.0 186.0,5015.0 224.0,4990.0 C 284.0,4951.0 503.0,4860.0 620.0,4825.0 C 634.0,4821.0 690.0,4796.0 745.0,4770.0 C 829.0,4730.0 857.0,4711.0 918.0,4648.0 L 991.0,4574.0 L 965.0,4464.0 C 951.0,4404.0 937.0,4347.0 934.0,4338.0 C 930.0,4325.0 942.0,4317.0 990.0,4299.0 C 1045.0,4279.0 1057.0,4269.0 1129.0,4181.0 L 1208.0,4084.0 L 1280.0,4073.0 C 1339.0,4064.0 1390.0,4043.0 1538.0,3970.0 C 1746.0,3868.0 1801.0,3832.0 1861.0,3757.0 C 1905.0,3701.0 1905.0,3706.0 1884.0,3570.0 C 1879.0,3537.0 1883.0,3530.0 1976.0,3436.0 C 2057.0,3353.0 2086.0,3331.0 2151.0,3301.0 C 2216.0,3271.0 2234.0,3257.0 2262.0,3215.0 C 2287.0,3178.0 2303.0,3164.0 2330.0,3158.0 C 2485.0,3122.0 2488.0,3121.0 2507.0,3074.0 C 2526.0,3026.0 2544.0,3016.0 2601.0,3022.0 C 2632.0,3025.0 2637.0,3031.0 2696.0,3143.0 C 2774.0,3293.0 2793.0,3308.0 2923.0,3321.0 C 2974.0,3325.0 3089.0,3330.0 3178.0,3330.0 C 3424.0,3330.0 3517.0,3302.0 3740.0,3159.0 C 3804.0,3118.0 3883.0,3072.0 3915.0,3057.0 C 3971.0,3030.0 3980.0,3021.0 4049.0,2917.0 C 4136.0,2788.0 4149.0,2756.0 4149.0,2675.0 L 4150.0,2615.0 L 4104.0,2585.0 C 4078.0,2567.0 4042.0,2529.0 4018.0,2492.0 L 3977.0,2429.0 L 3991.0,2368.0 L 4005.0,2307.0 L 4088.0,2276.0 C 4161.0,2249.0 4174.0,2240.0 4200.0,2200.0 C 4216.0,2175.0 4249.0,2141.0 4272.0,2123.0 C 4325.0,2083.0 4385.0,2080.0 4486.0,2111.0 C 4524.0,2123.0 4566.0,2132.0 4580.0,2132.0 C 4664.0,2130.0 5030.0,2037.0 5066.0,2008.0 C 5073.0,2004.0 5080.0,1986.0 5084.0,1969.0 C 5087.0,1953.0 5106.0,1897.0 5127.0,1845.0 L 5164.0,1750.0 L 5201.0,1750.0 C 5223.0,1750.0 5272.0,1766.0 5322.0,1789.0 C 5455.0,1852.0 5449.0,1853.0 5570.0,1761.0 C 5628.0,1717.0 5690.0,1661.0 5708.0,1636.0 C 5749.0,1581.0 5814.0,1555.0 5885.0,1566.0 C 5938.0,1573.0 5942.0,1577.0 5993.0,1659.0 L 6030.0,1720.0 L 6090.0,1720.0 C 6139.0,1720.0 6335.0,1683.0 6437.0,1654.0 C 6454.0,1649.0 6465.0,1630.0 6484.0,1571.0 C 6506.0,1507.0 6570.0,1251.0 6570.0,1228.0 C 6570.0,1223.0 6585.0,1220.0 6604.0,1220.0 C 6637.0,1220.0 6638.0,1221.0 6655.0,1285.0 C 6674.0,1355.0 6672.0,1386.0 6630.0,1619.0 C 6619.0,1682.0 6611.0,1734.0 6612.0,1735.0 C 6614.0,1736.0 6651.0,1764.0 6695.0,1797.0 C 6739.0,1831.0 6830.0,1885.0 6897.0,1919.0 C 7014.0,1977.0 7023.0,1980.0 7092.0,1980.0 C 7132.0,1980.0 7192.0,1974.0 7225.0,1966.0 C 7258.0,1958.0 7316.0,1949.0 7354.0,1945.0 C 7443.0,1936.0 7657.0,1845.0 7701.0,1797.0 C 7742.0,1752.0 7745.0,1732.0 7726.0,1609.0 L 7709.0,1500.0 L 7738.0,1433.0 C 7755.0,1395.0 7775.0,1340.0 7784.0,1308.0 C 7793.0,1277.0 7815.0,1234.0 7835.0,1210.0 C 7864.0,1175.0 7868.0,1165.0 7860.0,1144.0 C 7842.0,1099.0 7828.0,1076.0 7785.0,1028.0 L 7743.0,981.0 L 7730.0,847.0 L 7717.0,713.0 L 7763.0,641.0 C 7789.0,602.0 7815.0,570.0 7822.0,570.0 C 7839.0,570.0 7916.0,594.0 7962.0,614.0 C 7982.0,623.0 8011.0,647.0 8027.0,667.0 C 8042.0,688.0 8078.0,732.0 8106.0,765.0 C 8183.0,856.0 8230.0,931.0 8230.0,965.0 C 8231.0,990.0 8240.0,1002.0 8290.0,1038.0 C 8322.0,1061.0 8372.0,1089.0 8402.0,1099.0 C 8525.0,1142.0 8538.0,1150.0 8554.0,1190.0 C 8568.0,1225.0 8574.0,1229.0 8614.0,1235.0 C 8651.0,1241.0 8665.0,1250.0 8698.0,1289.0 C 8723.0,1318.0 8740.0,1350.0 8744.0,1375.0 C 8748.0,1397.0 8763.0,1437.0 8778.0,1464.0 C 8803.0,1509.0 8812.0,1517.0 8878.0,1543.0 C 8945.0,1570.0 8953.0,1577.0 8976.0,1621.0 C 9011.0,1691.0 9009.0,1772.0 8968.0,1907.0 C 8936.0,2010.0 8936.0,2013.0 8955.0,2024.0 C 8965.0,2030.0 8997.0,2056.0 9025.0,2081.0 C 9052.0,2106.0 9103.0,2146.0 9137.0,2168.0 C 9171.0,2191.0 9219.0,2235.0 9244.0,2266.0 C 9283.0,2313.0 9290.0,2329.0 9290.0,2365.0 C 9290.0,2403.0 9296.0,2415.0 9340.0,2463.0 C 9368.0,2493.0 9390.0,2520.0 9390.0,2523.0 C 9390.0,2525.0 9351.0,2549.0 9304.0,2576.0 L 9218.0,2624.0 L 9225.0,2694.0 C 9229.0,2733.0 9243.0,2801.0 9256.0,2845.0 C 9270.0,2889.0 9285.0,2957.0 9292.0,2995.0 C 9302.0,3061.0 9306.0,3068.0 9364.0,3130.0 C 9409.0,3177.0 9445.0,3204.0 9502.0,3232.0 C 9573.0,3266.0 9583.0,3275.0 9624.0,3338.0 C 9656.0,3388.0 9681.0,3414.0 9712.0,3431.0 C 9753.0,3454.0 9755.0,3457.0 9758.0,3507.0 C 9760.0,3536.0 9752.0,3593.0 9739.0,3641.0 C 9727.0,3687.0 9714.0,3777.0 9709.0,3840.0 C 9705.0,3903.0 9698.0,3962.0 9695.0,3971.0 C 9691.0,3982.0 9709.0,4003.0 9757.0,4042.0 C 9809.0,4084.0 9830.0,4109.0 9846.0,4148.0 L 9868.0,4199.0 L 9844.0,4215.0 C 9825.0,4227.0 9804.0,4229.0 9742.0,4224.0 L 9665.0,4218.0 L 9593.0,4292.0 L 9521.0,4365.0 L 9551.0,4412.0 C 9594.0,4477.0 9619.0,4481.0 9701.0,4434.0 C 9736.0,4413.0 9779.0,4383.0 9797.0,4367.0 C 9825.0,4341.0 9834.0,4338.0 9882.0,4341.0 L 9935.0,4345.0 L 9950.0,4282.0 L 9965.0,4220.0 L 10021.0,4220.0 L 10076.0,4220.0 L 10124.0,4285.0 L 10172.0,4351.0 L 10165.0,4423.0 C 10161.0,4462.0 10149.0,4512.0 10138.0,4533.0 C 10127.0,4555.0 10103.0,4612.0 10084.0,4662.0 L 10050.0,4752.0 L 10065.0,4813.0 C 10074.0,4847.0 10092.0,4904.0 10107.0,4940.0 C 10136.0,5014.0 10140.0,5079.0 10121.0,5163.0 C 10110.0,5213.0 10103.0,5224.0 10065.0,5250.0 L 10021.0,5281.0 L 9971.0,5255.0 C 9943.0,5241.0 9912.0,5230.0 9901.0,5230.0 C 9890.0,5230.0 9860.0,5212.0 9834.0,5189.0 C 9759.0,5124.0 9760.0,5124.0 9604.0,5159.0 C 9392.0,5208.0 9394.0,5207.0 9342.0,5259.0 C 9302.0,5299.0 9286.0,5308.0 9244.0,5314.0 C 9211.0,5319.0 9165.0,5339.0 9103.0,5376.0 C 9004.0,5435.0 8985.0,5438.0 8876.0,5420.0 C 8827.0,5412.0 8809.0,5403.0 8776.0,5371.0 C 8740.0,5336.0 8729.0,5331.0 8681.0,5329.0 C 8635.0,5326.0 8625.0,5329.0 8613.0,5347.0 C 8601.0,5365.0 8602.0,5377.0 8616.0,5431.0 C 8631.0,5484.0 8642.0,5503.0 8682.0,5541.0 C 8708.0,5566.0 8730.0,5594.0 8730.0,5605.0 C 8730.0,5615.0 8746.0,5643.0 8766.0,5666.0 C 8801.0,5710.0 8802.0,5710.0 8867.0,5710.0 C 8930.0,5710.0 8935.0,5712.0 8999.0,5759.0 C 9035.0,5786.0 9088.0,5819.0 9117.0,5834.0 C 9163.0,5857.0 9171.0,5865.0 9180.0,5902.0 C 9186.0,5926.0 9193.0,5952.0 9196.0,5960.0 C 9198.0,5969.0 9226.0,6002.0 9259.0,6034.0 C 9313.0,6088.0 9323.0,6093.0 9396.0,6110.0 C 9439.0,6120.0 9478.0,6126.0 9482.0,6124.0 C 9497.0,6115.0 9490.0,6071.0 9465.0,6015.0 C 9452.0,5984.0 9428.0,5914.0 9414.0,5859.0 C 9383.0,5743.0 9380.0,5758.0 9472.0,5510.0 C 9526.0,5366.0 9534.0,5354.0 9623.0,5279.0 C 9671.0,5238.0 9688.0,5230.0 9721.0,5230.0 C 9761.0,5230.0 9763.0,5232.0 9774.0,5282.0 C 9779.0,5306.0 9776.0,5310.0 9738.0,5322.0 C 9686.0,5340.0 9663.0,5375.0 9573.0,5578.0 C 9497.0,5750.0 9494.0,5780.0 9545.0,5851.0 C 9564.0,5878.0 9580.0,5908.0 9580.0,5919.0 C 9580.0,5929.0 9583.0,5952.0 9586.0,5969.0 C 9592.0,5997.0 9599.0,6002.0 9658.0,6020.0 L 9724.0,6040.0 L 9787.0,6019.0 C 9849.0,5999.0 9852.0,5999.0 9900.0,6016.0 L 9950.0,6034.0 L 9950.0,6094.0 C 9950.0,6146.0 9955.0,6163.0 9992.0,6224.0 C 10014.0,6263.0 10056.0,6329.0 10085.0,6370.0 C 10113.0,6411.0 10140.0,6450.0 10144.0,6457.0 C 10153.0,6474.0 10073.0,6512.0 9985.0,6534.0 C 9841.0,6570.0 9669.0,6690.0 9499.0,6877.0 C 9431.0,6951.0 9369.0,7029.0 9361.0,7049.0 C 9353.0,7069.0 9327.0,7131.0 9304.0,7186.0 L 9260.0,7288.0 L 9260.0,7493.0 C 9260.0,7687.0 9259.0,7703.0 9235.0,7768.0 C 9221.0,7806.0 9210.0,7857.0 9210.0,7882.0 C 9210.0,7922.0 9203.0,7933.0 9127.0,8025.0 C 9047.0,8120.0 9043.0,8128.0 9032.0,8193.0 L 9021.0,8261.0 L 9066.0,8335.0 L 9111.0,8409.0 L 9178.0,8412.0 C 9256.0,8415.0 9388.0,8403.0 9404.0,8391.0 C 9410.0,8387.0 9440.0,8369.0 9471.0,8352.0 L 9526.0,8321.0 L 9585.0,8360.0 C 9635.0,8393.0 9648.0,8408.0 9662.0,8447.0 C 9690.0,8528.0 9685.0,8586.0 9644.0,8655.0 C 9624.0,8688.0 9592.0,8731.0 9573.0,8752.0 C 9538.0,8788.0 9538.0,8789.0 9524.0,8927.0 C 9517.0,9003.0 9511.0,9139.0 9510.0,9230.0 L 9510.0,9396.0 L 9442.0,9457.0 C 9368.0,9523.0 9294.0,9564.0 9185.0,9600.0 C 9147.0,9613.0 9085.0,9636.0 9048.0,9651.0 L 8982.0,9678.0 L 8923.0,9643.0" fill="pink"/>
	<path d="M 9880.0,8352.0 C 9823.0,8328.0 9811.0,8318.0 9783.0,8270.0 C 9758.0,8230.0 9750.0,8204.0 9750.0,8170.0 L 9750.0,8125.0 L 9826.0,8083.0 L 9902.0,8041.0 L 9953.0,8069.0 C 9982.0,8085.0 10049.0,8108.0 10104.0,8121.0 L 10203.0,8143.0 L 10197.0,8208.0 C 10193.0,8244.0 10189.0,8274.0 10188.0,8275.0 C 10186.0,8276.0 10154.0,8300.0 10116.0,8328.0 C 10054.0,8375.0 10042.0,8380.0 9996.0,8380.0 C 9963.0,8379.0 9922.0,8369.0 9880.0,8352.0" fill="pink"/>
	<path d="M 10197.0,6967.0 C 10169.0,6960.0 10158.0,6952.0 10153.0,6931.0 C 10144.0,6901.0 10145.0,6802.0 10153.0,6793.0 C 10156.0,6790.0 10172.0,6798.0 10189.0,6809.0 C 10223.0,6833.0 10243.0,6890.0 10238.0,6944.0 C 10235.0,6976.0 10235.0,6976.0 10197.0,6967.0" fill="pink"/>
</svg>
