<?xml version="1.0" ?>
<svg xmlns="http://www.w3.org/2000/svg" xmlns:ev="http://www.w3.org/2001/xml-events" xmlns:xlink="http://www.w3.org/1999/xlink" baseProfile="full" height="551px" version="1.1" viewBox="-1028.9276559481198 -511.9190430644186 12295.941440733252 11275.838086128837" width="600px">
	<defs/>
	<path d="M 9935.0,9779.0 C 9913.0,9757.0 9852.0,9701.0 9799.0,9655.0 C 9712.0,9579.0 9698.0,9570.0 9634.0,9554.0 C 9596.0,9545.0 9543.0,9525.0 9515.0,9510.0 C 9459.0,9480.0 9340.0,9450.0 9273.0,9450.0 C 9230.0,9450.0 9182.0,9431.0 9110.0,9385.0 C 9063.0,9354.0 8933.0,9340.0 8715.0,9339.0 C 8573.0,9339.0 8533.0,9342.0 8473.0,9359.0 C 8417.0,9375.0 8370.0,9380.0 8273.0,9380.0 C 8202.0,9381.0 8098.0,9385.0 8040.0,9390.0 C 7887.0,9402.0 7834.0,9391.0 7737.0,9322.0 C 7648.0,9260.0 7540.0,9211.0 7493.0,9210.0 C 7451.0,9210.0 7279.0,9119.0 7125.0,9016.0 C 7017.0,8945.0 6998.0,8935.0 6935.0,8925.0 C 6872.0,8915.0 6854.0,8907.0 6757.0,8840.0 C 6698.0,8799.0 6628.0,8753.0 6601.0,8738.0 C 6548.0,8707.0 6434.0,8680.0 6361.0,8680.0 C 6334.0,8680.0 6295.0,8673.0 6274.0,8664.0 C 6216.0,8639.0 6143.0,8621.0 6065.0,8610.0 C 6027.0,8605.0 5954.0,8592.0 5905.0,8582.0 C 5855.0,8571.0 5781.0,8559.0 5740.0,8556.0 C 5699.0,8552.0 5640.0,8544.0 5610.0,8538.0 C 5560.0,8529.0 5550.0,8531.0 5519.0,8549.0 C 5460.0,8584.0 5351.0,8592.0 5105.0,8582.0 C 4820.0,8570.0 4823.0,8569.0 4782.0,8631.0 C 4755.0,8672.0 4721.0,8699.0 4607.0,8774.0 C 4416.0,8899.0 4387.0,8915.0 4305.0,8938.0 C 4130.0,8988.0 4020.0,8968.0 3860.0,8858.0 C 3711.0,8756.0 3645.0,8724.0 3551.0,8706.0 C 3505.0,8697.0 3448.0,8690.0 3423.0,8690.0 C 3351.0,8690.0 3167.0,8618.0 3025.0,8535.0 C 2946.0,8488.0 2884.0,8470.0 2845.0,8482.0 C 2783.0,8501.0 2651.0,8514.0 2545.0,8512.0 C 2452.0,8510.0 2431.0,8507.0 2408.0,8490.0 C 2372.0,8464.0 2362.0,8465.0 2328.0,8496.0 C 2304.0,8520.0 2302.0,8528.0 2307.0,8565.0 C 2311.0,8595.0 2307.0,8617.0 2293.0,8645.0 C 2274.0,8682.0 2269.0,8685.0 2104.0,8742.0 C 1902.0,8813.0 1821.0,8828.0 1784.0,8803.0 C 1748.0,8777.0 1680.0,8639.0 1680.0,8592.0 C 1680.0,8572.0 1673.0,8544.0 1664.0,8531.0 C 1652.0,8514.0 1647.0,8483.0 1646.0,8416.0 C 1645.0,8331.0 1643.0,8320.0 1618.0,8287.0 C 1592.0,8254.0 1590.0,8244.0 1590.0,8159.0 L 1590.0,8066.0 L 1632.0,8023.0 C 1668.0,7987.0 1672.0,7977.0 1664.0,7958.0 C 1648.0,7921.0 1658.0,7900.0 1690.0,7900.0 C 1706.0,7900.0 1732.0,7889.0 1749.0,7874.0 C 1777.0,7851.0 1780.0,7842.0 1780.0,7794.0 C 1780.0,7723.0 1767.0,7716.0 1646.0,7724.0 C 1564.0,7730.0 1547.0,7728.0 1481.0,7706.0 C 1440.0,7691.0 1403.0,7680.0 1398.0,7680.0 C 1393.0,7680.0 1384.0,7694.0 1379.0,7710.0 C 1371.0,7731.0 1362.0,7740.0 1346.0,7740.0 C 1313.0,7740.0 1309.0,7731.0 1325.0,7693.0 C 1343.0,7649.0 1343.0,7650.0 1324.0,7650.0 C 1311.0,7650.0 1309.0,7642.0 1314.0,7613.0 C 1317.0,7592.0 1322.0,7536.0 1325.0,7487.0 C 1332.0,7403.0 1331.0,7398.0 1304.0,7355.0 C 1279.0,7316.0 1271.0,7311.0 1236.0,7308.0 C 1198.0,7305.0 1195.0,7302.0 1187.0,7266.0 L 1177.0,7228.0 L 1133.0,7234.0 C 1047.0,7246.0 1021.0,7211.0 1004.0,7064.0 C 994.0,6980.0 964.0,6963.0 938.0,7028.0 C 924.0,7063.0 919.0,7067.0 878.0,7073.0 C 798.0,7084.0 782.0,7096.0 775.0,7152.0 L 768.0,7202.0 L 708.0,7196.0 C 621.0,7186.0 582.0,7164.0 574.0,7122.0 C 569.0,7099.0 560.0,7085.0 541.0,7077.0 C 527.0,7071.0 504.0,7058.0 491.0,7048.0 C 478.0,7038.0 458.0,7030.0 448.0,7030.0 C 433.0,7030.0 430.0,7026.0 435.0,7013.0 C 450.0,6973.0 470.0,6872.0 470.0,6834.0 C 470.0,6787.0 439.0,6751.0 377.0,6725.0 C 343.0,6711.0 341.0,6707.0 351.0,6688.0 C 366.0,6659.0 356.0,6593.0 332.0,6567.0 C 321.0,6555.0 309.0,6533.0 305.0,6518.0 C 299.0,6496.0 302.0,6491.0 322.0,6485.0 C 348.0,6476.0 531.0,6310.0 557.0,6271.0 C 572.0,6249.0 574.0,6224.0 571.0,6105.0 C 569.0,5969.0 569.0,5964.0 595.0,5917.0 C 620.0,5872.0 621.0,5866.0 610.0,5822.0 C 604.0,5797.0 583.0,5742.0 564.0,5701.0 C 540.0,5648.0 530.0,5613.0 530.0,5576.0 C 530.0,5522.0 520.0,5476.0 499.0,5422.0 C 487.0,5394.0 488.0,5379.0 508.0,5302.0 C 520.0,5254.0 530.0,5200.0 530.0,5182.0 C 530.0,5154.0 551.0,5074.0 613.0,4866.0 C 635.0,4795.0 656.0,4787.0 858.0,4778.0 C 955.0,4774.0 1052.0,4767.0 1072.0,4762.0 C 1108.0,4753.0 1111.0,4754.0 1131.0,4786.0 L 1151.0,4820.0 L 1188.0,4804.0 C 1208.0,4796.0 1240.0,4780.0 1258.0,4769.0 C 1276.0,4759.0 1300.0,4750.0 1310.0,4750.0 C 1342.0,4750.0 1360.0,4739.0 1360.0,4719.0 C 1360.0,4705.0 1353.0,4700.0 1334.0,4700.0 C 1294.0,4700.0 1270.0,4682.0 1270.0,4653.0 C 1270.0,4636.0 1260.0,4618.0 1245.0,4605.0 C 1232.0,4594.0 1219.0,4572.0 1218.0,4557.0 C 1215.0,4529.0 1218.0,4527.0 1281.0,4511.0 C 1350.0,4494.0 1403.0,4459.0 1460.0,4393.0 C 1490.0,4360.0 1492.0,4353.0 1487.0,4307.0 C 1480.0,4249.0 1511.0,4160.0 1539.0,4160.0 C 1548.0,4160.0 1561.0,4156.0 1569.0,4151.0 C 1581.0,4143.0 1581.0,4138.0 1567.0,4116.0 C 1546.0,4085.0 1545.0,4048.0 1564.0,4012.0 C 1589.0,3964.0 1587.0,3941.0 1560.0,3927.0 C 1542.0,3918.0 1534.0,3905.0 1532.0,3882.0 C 1529.0,3857.0 1520.0,3843.0 1489.0,3823.0 C 1455.0,3801.0 1450.0,3792.0 1450.0,3760.0 C 1450.0,3726.0 1446.0,3721.0 1408.0,3704.0 C 1381.0,3692.0 1350.0,3686.0 1323.0,3688.0 L 1280.0,3692.0 L 1280.0,3657.0 C 1280.0,3626.0 1272.0,3615.0 1213.0,3564.0 C 1175.0,3532.0 1128.0,3491.0 1108.0,3472.0 L 1072.0,3437.0 L 1088.0,3404.0 C 1102.0,3373.0 1107.0,3370.0 1150.0,3370.0 C 1186.0,3370.0 1202.0,3365.0 1219.0,3346.0 C 1240.0,3323.0 1241.0,3321.0 1226.0,3291.0 C 1198.0,3238.0 1180.0,3236.0 1121.0,3280.0 L 1069.0,3319.0 L 967.0,3313.0 C 887.0,3309.0 861.0,3303.0 844.0,3289.0 C 832.0,3277.0 808.0,3270.0 784.0,3269.0 C 748.0,3269.0 740.0,3263.0 690.0,3202.0 C 608.0,3104.0 581.0,3064.0 574.0,3033.0 C 570.0,3018.0 559.0,2998.0 548.0,2989.0 C 519.0,2966.0 532.0,2926.0 566.0,2933.0 C 586.0,2936.0 594.0,2931.0 606.0,2909.0 C 614.0,2892.0 629.0,2880.0 640.0,2880.0 C 651.0,2880.0 674.0,2866.0 692.0,2850.0 L 725.0,2820.0 L 697.0,2795.0 C 682.0,2781.0 658.0,2770.0 644.0,2770.0 C 630.0,2770.0 601.0,2761.0 580.0,2750.0 C 543.0,2731.0 540.0,2727.0 540.0,2686.0 C 540.0,2650.0 533.0,2634.0 498.0,2591.0 C 473.0,2560.0 448.0,2540.0 436.0,2540.0 C 391.0,2540.0 374.0,2527.0 345.0,2473.0 C 318.0,2422.0 309.0,2414.0 243.0,2383.0 C 203.0,2365.0 166.0,2341.0 161.0,2331.0 C 155.0,2321.0 136.0,2307.0 118.0,2301.0 C 64.0,2281.0 0.0,2248.0 0.0,2239.0 C 0.0,2225.0 38.0,2219.0 76.0,2226.0 L 113.0,2233.0 L 106.0,2199.0 C 102.0,2180.0 96.0,2143.0 93.0,2115.0 C 90.0,2088.0 77.0,2034.0 64.0,1997.0 C 50.0,1957.0 40.0,1905.0 40.0,1872.0 C 39.0,1841.0 33.0,1804.0 25.0,1790.0 C 15.0,1772.0 11.0,1729.0 10.0,1634.0 C 10.0,1472.0 22.0,1405.0 57.0,1368.0 C 93.0,1330.0 86.0,1275.0 35.0,1219.0 C 15.0,1196.0 0.0,1177.0 2.0,1175.0 C 4.0,1173.0 21.0,1170.0 41.0,1169.0 C 68.0,1167.0 92.0,1177.0 154.0,1218.0 C 242.0,1276.0 262.0,1278.0 346.0,1239.0 C 368.0,1229.0 405.0,1220.0 427.0,1220.0 C 459.0,1220.0 471.0,1215.0 484.0,1195.0 C 496.0,1176.0 510.0,1170.0 538.0,1169.0 L 575.0,1168.0 L 545.0,1158.0 C 506.0,1144.0 507.0,1145.0 515.0,1121.0 C 520.0,1103.0 530.0,1100.0 570.0,1100.0 L 619.0,1100.0 L 625.0,1053.0 C 628.0,1026.0 644.0,978.0 660.0,945.0 C 676.0,912.0 691.0,876.0 692.0,866.0 C 695.0,849.0 703.0,847.0 765.0,849.0 C 804.0,850.0 846.0,854.0 858.0,857.0 C 877.0,861.0 893.0,851.0 938.0,808.0 C 970.0,778.0 1018.0,739.0 1047.0,721.0 C 1076.0,703.0 1122.0,660.0 1150.0,626.0 C 1201.0,563.0 1202.0,563.0 1262.0,556.0 C 1296.0,553.0 1329.0,545.0 1336.0,539.0 C 1343.0,533.0 1413.0,521.0 1492.0,513.0 C 1571.0,504.0 1642.0,492.0 1650.0,485.0 C 1658.0,478.0 1683.0,472.0 1705.0,471.0 C 1727.0,471.0 1778.0,462.0 1818.0,451.0 L 1892.0,432.0 L 1907.0,459.0 C 1918.0,477.0 2165.0,641.0 2674.0,967.0 C 3551.0,1528.0 5255.0,2558.0 7147.0,3670.0 L 8329.0,4365.0 L 8386.0,4500.0 C 8451.0,4653.0 8549.0,4852.0 8623.0,4984.0 L 8673.0,5074.0 L 8646.0,5444.0 C 8632.0,5648.0 8620.0,5838.0 8620.0,5866.0 C 8620.0,5901.0 8630.0,5940.0 8654.0,5996.0 C 8686.0,6069.0 8689.0,6086.0 8699.0,6239.0 C 8711.0,6420.0 8704.0,6399.0 8809.0,6570.0 L 8861.0,6655.0 L 8858.0,6835.0 C 8855.0,7013.0 8855.0,7016.0 8823.0,7090.0 C 8805.0,7132.0 8757.0,7223.0 8716.0,7293.0 L 8641.0,7420.0 L 8657.0,7703.0 L 8672.0,7985.0 L 8759.0,8153.0 C 8840.0,8310.0 8847.0,8321.0 8880.0,8330.0 C 8899.0,8335.0 9044.0,8371.0 9202.0,8411.0 L 9490.0,8482.0 L 9865.0,8911.0 C 10219.0,9315.0 10268.0,9380.0 10225.0,9380.0 C 10207.0,9380.0 10207.0,9377.0 10221.0,9439.0 C 10231.0,9485.0 10230.0,9493.0 10210.0,9521.0 C 10189.0,9549.0 10188.0,9556.0 10199.0,9608.0 L 10210.0,9665.0 L 10163.0,9707.0 C 10126.0,9738.0 10104.0,9750.0 10068.0,9754.0 C 10022.0,9760.0 10021.0,9761.0 10027.0,9790.0 C 10032.0,9818.0 10030.0,9820.0 10003.0,9820.0 C 9982.0,9820.0 9963.0,9809.0 9935.0,9779.0" fill="pink"/>
</svg>
