<?xml version="1.0" ?>
<svg xmlns="http://www.w3.org/2000/svg" xmlns:ev="http://www.w3.org/2001/xml-events" xmlns:xlink="http://www.w3.org/1999/xlink" baseProfile="full" height="600px" version="1.1" viewBox="521.3804991296687 -1029.0196749365903 9196.239001740663 12297.041090535771" width="449px">
	<defs/>
	<path d="M 4920.0,10182.0 L 4645.0,10125.0 L 4468.0,9910.0 L 4292.0,9695.0 L 3892.0,9420.0 L 3492.0,9146.0 L 3330.0,8710.0 L 3168.0,8275.0 L 3026.0,8030.0 C 2947.0,7895.0 2787.0,7619.0 2670.0,7417.0 C 2475.0,7079.0 2452.0,7044.0 2396.0,6995.0 C 2362.0,6966.0 2256.0,6875.0 2160.0,6793.0 C 1992.0,6650.0 1982.0,6640.0 1916.0,6535.0 C 1866.0,6454.0 1818.0,6395.0 1738.0,6314.0 L 1629.0,6203.0 L 1558.0,6014.0 C 1426.0,5661.0 1427.0,5663.0 1356.0,5105.0 L 1292.0,4605.0 L 1301.0,4080.0 C 1309.0,3649.0 1314.0,3544.0 1327.0,3491.0 L 1344.0,3428.0 L 1394.0,3434.0 C 1439.0,3440.0 1450.0,3446.0 1490.0,3490.0 C 1532.0,3537.0 1538.0,3540.0 1581.0,3540.0 C 1619.0,3540.0 1637.0,3548.0 1695.0,3588.0 C 1759.0,3632.0 1765.0,3639.0 1786.0,3700.0 C 1798.0,3736.0 1809.0,3762.0 1809.0,3759.0 C 1810.0,3756.0 1821.0,3671.0 1834.0,3569.0 C 1848.0,3468.0 1866.0,3366.0 1874.0,3342.0 C 1894.0,3287.0 1989.0,3177.0 2055.0,3134.0 C 2083.0,3115.0 2134.0,3074.0 2169.0,3042.0 L 2233.0,2983.0 L 2221.0,2859.0 C 2211.0,2764.0 2197.0,2696.0 2160.0,2573.0 L 2111.0,2410.0 L 2167.0,2274.0 L 2223.0,2138.0 L 2434.0,1943.0 L 2646.0,1748.0 L 2865.0,1405.0 L 3085.0,1062.0 L 4035.0,626.0 L 4985.0,190.0 L 6336.0,95.0 C 7079.0,43.0 7694.0,0.0 7702.0,0.0 C 7729.0,0.0 7732.0,72.0 7735.0,640.0 L 7737.0,1185.0 L 7792.0,1410.0 C 7836.0,1590.0 7849.0,1658.0 7853.0,1750.0 C 7858.0,1848.0 7867.0,1890.0 7910.0,2037.0 C 7937.0,2131.0 7969.0,2266.0 7980.0,2337.0 C 7990.0,2407.0 8030.0,2601.0 8066.0,2768.0 L 8134.0,3072.0 L 8177.0,3107.0 C 8216.0,3139.0 8222.0,3141.0 8248.0,3131.0 C 8265.0,3124.0 8284.0,3104.0 8294.0,3083.0 C 8310.0,3049.0 8312.0,3048.0 8358.0,3053.0 C 8384.0,3055.0 8423.0,3065.0 8445.0,3073.0 C 8485.0,3089.0 8604.0,3095.0 8648.0,3084.0 C 8666.0,3079.0 8670.0,3071.0 8670.0,3041.0 C 8670.0,2985.0 8712.0,2904.0 8745.0,2896.0 C 8760.0,2892.0 8774.0,2891.0 8776.0,2893.0 C 8778.0,2895.0 8818.0,3342.0 8864.0,3886.0 L 8947.0,4875.0 L 8802.0,5245.0 L 8657.0,5615.0 L 8677.0,5985.0 L 8697.0,6355.0 L 8806.0,6743.0 L 8914.0,7132.0 L 8882.0,7551.0 L 8850.0,7971.0 L 8890.0,8051.0 C 8919.0,8107.0 8927.0,8132.0 8918.0,8135.0 C 8911.0,8137.0 8811.0,8164.0 8695.0,8194.0 C 8496.0,8247.0 8485.0,8249.0 8461.0,8233.0 C 8447.0,8224.0 8435.0,8221.0 8433.0,8226.0 C 8415.0,8276.0 8298.0,8516.0 8290.0,8518.0 C 8285.0,8520.0 8147.0,8474.0 7985.0,8415.0 C 7782.0,8341.0 7686.0,8311.0 7677.0,8317.0 C 7671.0,8323.0 7117.0,8758.0 6447.0,9284.0 C 5777.0,9810.0 5222.0,10240.0 5212.0,10239.0 C 5203.0,10238.0 5071.0,10213.0 4920.0,10182.0" fill="pink"/>
</svg>
