<?xml version="1.0" ?>
<svg xmlns="http://www.w3.org/2000/svg" xmlns:ev="http://www.w3.org/2001/xml-events" xmlns:xlink="http://www.w3.org/1999/xlink" baseProfile="full" height="339px" version="1.1" viewBox="-1023.6175000000001 1655.2024663952939 12292.235 6932.162319670848" width="600px">
	<defs/>
	<path d="M 944.0,7999.0 C 925.0,7977.0 923.0,7947.0 936.0,7920.0 C 947.0,7897.0 944.0,7891.0 910.0,7853.0 C 882.0,7821.0 870.0,7814.0 861.0,7823.0 C 853.0,7831.0 847.0,7831.0 836.0,7820.0 C 806.0,7787.0 787.0,7669.0 810.0,7655.0 C 815.0,7652.0 817.0,7643.0 814.0,7636.0 C 811.0,7628.0 816.0,7607.0 826.0,7588.0 C 836.0,7570.0 847.0,7535.0 851.0,7510.0 C 857.0,7473.0 855.0,7461.0 838.0,7443.0 C 822.0,7426.0 819.0,7412.0 823.0,7378.0 C 832.0,7298.0 850.0,7265.0 899.0,7239.0 L 945.0,7215.0 L 943.0,7163.0 C 942.0,7132.0 931.0,7091.0 917.0,7063.0 C 897.0,7023.0 895.0,7008.0 903.0,6975.0 C 926.0,6869.0 925.0,6858.0 876.0,6772.0 C 851.0,6727.0 830.0,6687.0 830.0,6681.0 C 830.0,6676.0 824.0,6670.0 816.0,6667.0 C 808.0,6664.0 800.0,6637.0 796.0,6597.0 C 787.0,6508.0 757.0,6427.0 715.0,6378.0 C 677.0,6333.0 673.0,6315.0 695.0,6286.0 C 712.0,6263.0 715.0,6214.0 700.0,6205.0 C 695.0,6202.0 690.0,6192.0 690.0,6183.0 C 690.0,6155.0 633.0,6045.0 611.0,6032.0 C 596.0,6024.0 590.0,6010.0 590.0,5986.0 C 590.0,5967.0 586.0,5949.0 581.0,5945.0 C 576.0,5942.0 560.0,5918.0 545.0,5892.0 C 520.0,5848.0 519.0,5839.0 525.0,5768.0 C 531.0,5699.0 530.0,5688.0 511.0,5664.0 C 487.0,5633.0 484.0,5598.0 505.0,5580.0 C 522.0,5566.0 517.0,5534.0 484.0,5436.0 C 456.0,5356.0 417.0,5300.0 389.0,5300.0 C 378.0,5300.0 366.0,5290.0 361.0,5278.0 C 343.0,5233.0 293.0,5180.0 217.0,5126.0 C 92.0,5036.0 64.0,4993.0 117.0,4970.0 C 168.0,4949.0 190.0,4936.0 196.0,4920.0 C 200.0,4912.0 206.0,4835.0 209.0,4749.0 C 214.0,4614.0 218.0,4589.0 234.0,4571.0 C 250.0,4553.0 251.0,4546.0 242.0,4524.0 C 235.0,4511.0 230.0,4476.0 230.0,4447.0 C 231.0,4399.0 232.0,4397.0 245.0,4414.0 C 253.0,4425.0 262.0,4450.0 266.0,4469.0 C 269.0,4489.0 275.0,4517.0 280.0,4532.0 C 287.0,4553.0 284.0,4562.0 264.0,4581.0 C 233.0,4610.0 234.0,4625.0 270.0,4679.0 C 303.0,4728.0 307.0,4745.0 286.0,4757.0 C 266.0,4769.0 240.0,4825.0 240.0,4857.0 C 240.0,4873.0 232.0,4902.0 221.0,4922.0 C 202.0,4960.0 203.0,5010.0 223.0,5010.0 C 229.0,5010.0 241.0,5016.0 249.0,5024.0 C 258.0,5031.0 278.0,5040.0 294.0,5044.0 L 323.0,5051.0 L 316.0,4997.0 C 307.0,4917.0 317.0,4880.0 346.0,4880.0 C 367.0,4880.0 370.0,4875.0 370.0,4844.0 C 370.0,4813.0 373.0,4809.0 390.0,4815.0 C 401.0,4818.0 410.0,4817.0 410.0,4812.0 C 410.0,4800.0 383.0,4732.0 369.0,4706.0 C 319.0,4619.0 280.0,4471.0 314.0,4499.0 C 322.0,4505.0 330.0,4523.0 333.0,4538.0 C 339.0,4571.0 361.0,4628.0 394.0,4700.0 L 420.0,4755.0 L 413.0,4700.0 C 410.0,4670.0 404.0,4638.0 400.0,4630.0 C 396.0,4622.0 396.0,4604.0 399.0,4591.0 C 405.0,4570.0 407.0,4571.0 428.0,4612.0 C 443.0,4644.0 450.0,4675.0 450.0,4718.0 C 450.0,4762.0 454.0,4779.0 465.0,4784.0 C 478.0,4789.0 480.0,4782.0 474.0,4741.0 L 468.0,4692.0 L 511.0,4701.0 C 564.0,4713.0 590.0,4735.0 590.0,4767.0 C 590.0,4789.0 593.0,4791.0 620.0,4785.0 C 647.0,4779.0 650.0,4781.0 650.0,4805.0 C 650.0,4825.0 654.0,4831.0 668.0,4828.0 C 692.0,4823.0 694.0,4788.0 674.0,4725.0 C 655.0,4664.0 660.0,4608.0 686.0,4579.0 C 709.0,4553.0 700.0,4441.0 669.0,4378.0 C 655.0,4349.0 650.0,4325.0 654.0,4314.0 C 660.0,4299.0 671.0,4314.0 703.0,4380.0 C 741.0,4459.0 745.0,4472.0 748.0,4564.0 C 751.0,4645.0 755.0,4663.0 769.0,4667.0 C 782.0,4670.0 784.0,4681.0 781.0,4717.0 C 779.0,4752.0 781.0,4761.0 791.0,4758.0 C 799.0,4755.0 806.0,4745.0 808.0,4734.0 C 810.0,4724.0 819.0,4695.0 829.0,4670.0 C 840.0,4645.0 856.0,4604.0 865.0,4578.0 L 881.0,4532.0 L 915.0,4553.0 C 945.0,4572.0 949.0,4580.0 950.0,4617.0 C 950.0,4640.0 955.0,4671.0 962.0,4685.0 C 976.0,4717.0 966.0,4728.0 942.0,4707.0 C 915.0,4682.0 910.0,4686.0 910.0,4730.0 C 910.0,4775.0 911.0,4776.0 945.0,4754.0 C 972.0,4737.0 990.0,4742.0 990.0,4768.0 C 990.0,4777.0 994.0,4791.0 999.0,4799.0 C 1006.0,4810.0 1014.0,4809.0 1040.0,4790.0 C 1063.0,4774.0 1075.0,4771.0 1083.0,4779.0 C 1095.0,4791.0 1069.0,4826.0 1039.0,4835.0 C 1028.0,4839.0 1020.0,4846.0 1020.0,4852.0 C 1020.0,4858.0 1007.0,4877.0 991.0,4895.0 C 949.0,4943.0 940.0,5017.0 970.0,5065.0 C 985.0,5090.0 991.0,5112.0 988.0,5141.0 C 986.0,5173.0 989.0,5185.0 1004.0,5194.0 C 1018.0,5203.0 1024.0,5202.0 1028.0,5191.0 C 1031.0,5183.0 1044.0,5166.0 1056.0,5153.0 C 1074.0,5135.0 1080.0,5118.0 1080.0,5087.0 C 1080.0,5063.0 1075.0,5039.0 1069.0,5033.0 C 1058.0,5022.0 1080.0,4939.0 1100.0,4915.0 C 1105.0,4909.0 1112.0,4884.0 1115.0,4860.0 C 1119.0,4835.0 1125.0,4804.0 1130.0,4790.0 C 1144.0,4749.0 1150.0,4670.0 1140.0,4670.0 C 1135.0,4670.0 1126.0,4688.0 1120.0,4711.0 C 1110.0,4746.0 1106.0,4751.0 1086.0,4746.0 C 1073.0,4743.0 1054.0,4747.0 1042.0,4756.0 C 994.0,4789.0 984.0,4739.0 1030.0,4695.0 C 1064.0,4662.0 1078.0,4624.0 1090.0,4530.0 C 1095.0,4494.0 1104.0,4446.0 1111.0,4423.0 C 1136.0,4341.0 1072.0,4157.0 919.0,3868.0 C 896.0,3823.0 893.0,3813.0 901.0,3785.0 C 906.0,3769.0 908.0,3715.0 907.0,3665.0 C 905.0,3581.0 903.0,3575.0 883.0,3572.0 C 870.0,3570.0 857.0,3557.0 849.0,3538.0 L 836.0,3507.0 L 827.0,3534.0 C 817.0,3564.0 784.0,3567.0 786.0,3537.0 C 786.0,3528.0 787.0,3488.0 788.0,3449.0 L 790.0,3378.0 L 815.0,3394.0 C 839.0,3410.0 840.0,3409.0 840.0,3392.0 C 840.0,3382.0 829.0,3363.0 815.0,3350.0 C 801.0,3337.0 790.0,3318.0 790.0,3308.0 C 790.0,3279.0 723.0,3181.0 697.0,3171.0 C 684.0,3166.0 665.0,3149.0 655.0,3133.0 C 632.0,3097.0 589.0,3050.0 578.0,3050.0 C 564.0,3050.0 569.0,3107.0 585.0,3120.0 C 593.0,3127.0 600.0,3141.0 600.0,3151.0 C 600.0,3161.0 609.0,3175.0 620.0,3182.0 C 647.0,3199.0 647.0,3240.0 620.0,3240.0 C 610.0,3240.0 596.0,3232.0 590.0,3223.0 C 582.0,3210.0 577.0,3209.0 574.0,3217.0 C 566.0,3236.0 490.0,3222.0 463.0,3198.0 C 439.0,3176.0 414.0,3123.0 423.0,3113.0 C 427.0,3110.0 438.0,3113.0 447.0,3120.0 C 457.0,3127.0 443.0,3112.0 417.0,3087.0 C 377.0,3047.0 340.0,3027.0 340.0,3045.0 C 340.0,3057.0 364.0,3100.0 372.0,3100.0 C 376.0,3100.0 388.0,3115.0 397.0,3134.0 C 407.0,3152.0 426.0,3187.0 439.0,3211.0 C 456.0,3241.0 458.0,3251.0 446.0,3241.0 C 425.0,3223.0 426.0,3229.0 454.0,3295.0 C 468.0,3325.0 476.0,3350.0 471.0,3350.0 C 445.0,3350.0 390.0,3264.0 390.0,3222.0 C 390.0,3194.0 367.0,3153.0 315.0,3082.0 C 269.0,3021.0 254.0,3015.0 226.0,3045.0 C 213.0,3059.0 198.0,3070.0 191.0,3070.0 C 178.0,3070.0 177.0,3082.0 189.0,3133.0 C 201.0,3186.0 187.0,3179.0 151.0,3116.0 L 120.0,3061.0 L 63.0,3058.0 L 5.0,3055.0 L 5.0,3020.0 L 5.0,2985.0 L 75.0,2977.0 C 155.0,2968.0 182.0,2951.0 162.0,2920.0 C 148.0,2898.0 151.0,2894.0 227.0,2830.0 C 263.0,2799.0 270.0,2787.0 275.0,2744.0 C 282.0,2695.0 281.0,2692.0 249.0,2667.0 L 215.0,2640.0 L 241.0,2640.0 C 255.0,2640.0 275.0,2649.0 284.0,2659.0 C 294.0,2669.0 317.0,2681.0 335.0,2684.0 C 394.0,2695.0 439.0,2725.0 523.0,2806.0 C 542.0,2824.0 571.0,2840.0 593.0,2844.0 C 613.0,2848.0 638.0,2859.0 648.0,2869.0 C 657.0,2879.0 682.0,2890.0 703.0,2894.0 C 724.0,2898.0 750.0,2910.0 761.0,2921.0 C 771.0,2931.0 789.0,2940.0 800.0,2940.0 C 812.0,2940.0 832.0,2947.0 845.0,2956.0 C 858.0,2964.0 886.0,2971.0 907.0,2970.0 C 969.0,2967.0 976.0,2969.0 1014.0,2999.0 C 1040.0,3019.0 1066.0,3030.0 1107.0,3035.0 C 1139.0,3039.0 1180.0,3048.0 1198.0,3056.0 C 1216.0,3063.0 1255.0,3072.0 1283.0,3076.0 C 1312.0,3080.0 1340.0,3086.0 1345.0,3090.0 C 1351.0,3094.0 1389.0,3102.0 1430.0,3109.0 C 1471.0,3116.0 1519.0,3126.0 1535.0,3132.0 C 1559.0,3140.0 1577.0,3138.0 1625.0,3120.0 C 1658.0,3108.0 1699.0,3095.0 1717.0,3093.0 C 1761.0,3086.0 1816.0,3120.0 1823.0,3159.0 C 1826.0,3175.0 1832.0,3199.0 1836.0,3214.0 C 1841.0,3236.0 1839.0,3239.0 1826.0,3234.0 C 1816.0,3230.0 1800.0,3235.0 1787.0,3247.0 C 1775.0,3258.0 1757.0,3270.0 1748.0,3273.0 C 1738.0,3277.0 1730.0,3289.0 1730.0,3300.0 C 1730.0,3311.0 1724.0,3320.0 1716.0,3320.0 C 1708.0,3320.0 1687.0,3333.0 1669.0,3350.0 C 1651.0,3366.0 1621.0,3387.0 1603.0,3395.0 C 1585.0,3404.0 1570.0,3415.0 1570.0,3420.0 C 1570.0,3426.0 1564.0,3430.0 1556.0,3430.0 C 1549.0,3430.0 1540.0,3439.0 1537.0,3449.0 C 1534.0,3461.0 1522.0,3470.0 1504.0,3472.0 C 1481.0,3474.0 1474.0,3481.0 1472.0,3502.0 C 1469.0,3523.0 1462.0,3531.0 1442.0,3535.0 C 1427.0,3538.0 1392.0,3552.0 1365.0,3565.0 C 1295.0,3600.0 1200.0,3600.0 1155.0,3566.0 C 1128.0,3545.0 1039.0,3520.0 993.0,3520.0 C 971.0,3520.0 978.0,3555.0 1005.0,3580.0 C 1033.0,3607.0 1036.0,3624.0 1016.0,3670.0 C 1000.0,3709.0 1012.0,3776.0 1040.0,3800.0 C 1050.0,3808.0 1063.0,3826.0 1070.0,3839.0 C 1082.0,3862.0 1081.0,3862.0 1056.0,3856.0 C 1031.0,3850.0 1030.0,3851.0 1030.0,3895.0 C 1030.0,3942.0 1055.0,3980.0 1085.0,3980.0 C 1093.0,3980.0 1100.0,3989.0 1100.0,4000.0 C 1100.0,4025.0 1108.0,4025.0 1139.0,4001.0 C 1159.0,3986.0 1161.0,3980.0 1151.0,3962.0 C 1145.0,3951.0 1140.0,3921.0 1140.0,3896.0 C 1140.0,3857.0 1143.0,3850.0 1159.0,3850.0 C 1189.0,3850.0 1210.0,3839.0 1210.0,3824.0 C 1210.0,3816.0 1214.0,3810.0 1220.0,3810.0 C 1236.0,3810.0 1264.0,3747.0 1261.0,3718.0 C 1259.0,3700.0 1265.0,3688.0 1279.0,3680.0 C 1296.0,3671.0 1300.0,3672.0 1300.0,3685.0 C 1300.0,3693.0 1304.0,3700.0 1308.0,3700.0 C 1313.0,3700.0 1323.0,3718.0 1330.0,3739.0 C 1344.0,3782.0 1346.0,3777.0 1248.0,3895.0 C 1217.0,3931.0 1212.0,3961.0 1235.0,3980.0 C 1243.0,3987.0 1250.0,3998.0 1250.0,4005.0 C 1250.0,4020.0 1207.0,4040.0 1174.0,4040.0 C 1157.0,4040.0 1146.0,4047.0 1143.0,4060.0 C 1140.0,4073.0 1129.0,4080.0 1114.0,4080.0 C 1086.0,4080.0 1085.0,4085.0 1106.0,4136.0 C 1126.0,4183.0 1135.0,4190.0 1182.0,4190.0 C 1214.0,4190.0 1221.0,4186.0 1226.0,4165.0 C 1236.0,4126.0 1257.0,4114.0 1280.0,4135.0 C 1301.0,4154.0 1306.0,4185.0 1290.0,4195.0 C 1274.0,4205.0 1278.0,4235.0 1300.0,4263.0 C 1327.0,4297.0 1327.0,4314.0 1299.0,4300.0 C 1268.0,4283.0 1261.0,4298.0 1290.0,4320.0 C 1311.0,4336.0 1313.0,4342.0 1304.0,4358.0 C 1296.0,4370.0 1295.0,4391.0 1301.0,4421.0 C 1305.0,4445.0 1309.0,4468.0 1310.0,4473.0 C 1310.0,4477.0 1319.0,4480.0 1331.0,4480.0 C 1345.0,4480.0 1356.0,4469.0 1366.0,4444.0 C 1381.0,4408.0 1381.0,4407.0 1354.0,4379.0 C 1324.0,4348.0 1329.0,4328.0 1360.0,4348.0 C 1386.0,4364.0 1390.0,4363.0 1390.0,4340.0 C 1390.0,4329.0 1399.0,4315.0 1409.0,4308.0 C 1427.0,4297.0 1427.0,4295.0 1412.0,4283.0 C 1397.0,4272.0 1397.0,4269.0 1410.0,4260.0 C 1444.0,4238.0 1451.0,4262.0 1436.0,4348.0 C 1429.0,4386.0 1430.0,4390.0 1449.0,4390.0 C 1460.0,4390.0 1472.0,4386.0 1475.0,4380.0 C 1484.0,4365.0 1516.0,4368.0 1530.0,4385.0 C 1547.0,4406.0 1560.0,4404.0 1560.0,4380.0 C 1560.0,4353.0 1589.0,4342.0 1605.0,4363.0 C 1618.0,4381.0 1640.0,4384.0 1676.0,4374.0 C 1692.0,4370.0 1696.0,4363.0 1692.0,4347.0 C 1687.0,4327.0 1688.0,4326.0 1704.0,4340.0 C 1720.0,4353.0 1725.0,4351.0 1749.0,4322.0 C 1763.0,4304.0 1783.0,4290.0 1793.0,4290.0 C 1806.0,4290.0 1810.0,4282.0 1810.0,4258.0 C 1810.0,4202.0 1823.0,4193.0 1860.0,4223.0 C 1901.0,4258.0 1925.0,4257.0 1947.0,4220.0 C 1956.0,4204.0 1970.0,4190.0 1977.0,4190.0 C 1984.0,4190.0 2000.0,4179.0 2012.0,4165.0 C 2029.0,4145.0 2043.0,4140.0 2081.0,4140.0 C 2120.0,4140.0 2128.0,4137.0 2124.0,4125.0 C 2120.0,4117.0 2108.0,4110.0 2095.0,4110.0 C 2049.0,4110.0 2010.0,4097.0 2010.0,4082.0 C 2010.0,4071.0 2019.0,4068.0 2055.0,4072.0 C 2093.0,4077.0 2100.0,4075.0 2106.0,4058.0 C 2111.0,4040.0 2118.0,4039.0 2183.0,4045.0 C 2315.0,4057.0 2441.0,4051.0 2556.0,4026.0 C 2651.0,4006.0 2669.0,4005.0 2685.0,4016.0 C 2704.0,4030.0 2785.0,4035.0 2814.0,4024.0 C 2823.0,4021.0 2830.0,4007.0 2830.0,3993.0 C 2830.0,3980.0 2841.0,3954.0 2855.0,3936.0 C 2883.0,3899.0 2887.0,3850.0 2870.0,3759.0 L 2860.0,3705.0 L 2897.0,3673.0 C 2928.0,3647.0 2944.0,3641.0 2981.0,3640.0 C 3010.0,3640.0 3032.0,3634.0 3040.0,3625.0 C 3047.0,3617.0 3062.0,3610.0 3074.0,3610.0 C 3087.0,3610.0 3102.0,3598.0 3112.0,3580.0 C 3122.0,3563.0 3137.0,3550.0 3148.0,3550.0 C 3170.0,3550.0 3295.0,3462.0 3314.0,3434.0 C 3334.0,3405.0 3340.0,3367.0 3332.0,3335.0 L 3324.0,3306.0 L 3283.0,3360.0 C 3174.0,3506.0 3077.0,3567.0 3159.0,3438.0 C 3175.0,3413.0 3193.0,3389.0 3199.0,3386.0 C 3205.0,3382.0 3210.0,3370.0 3210.0,3360.0 C 3210.0,3349.0 3219.0,3336.0 3230.0,3330.0 C 3241.0,3324.0 3250.0,3310.0 3250.0,3299.0 C 3250.0,3287.0 3258.0,3276.0 3270.0,3273.0 C 3281.0,3270.0 3290.0,3259.0 3290.0,3249.0 C 3290.0,3239.0 3296.0,3227.0 3304.0,3223.0 C 3311.0,3219.0 3341.0,3186.0 3371.0,3151.0 C 3416.0,3097.0 3422.0,3085.0 3412.0,3069.0 C 3405.0,3059.0 3400.0,3039.0 3400.0,3026.0 C 3400.0,3007.0 3392.0,2999.0 3365.0,2990.0 C 3341.0,2982.0 3330.0,2972.0 3330.0,2959.0 C 3330.0,2949.0 3337.0,2940.0 3345.0,2940.0 C 3367.0,2940.0 3363.0,2920.0 3335.0,2894.0 C 3319.0,2880.0 3310.0,2860.0 3310.0,2842.0 C 3310.0,2826.0 3301.0,2801.0 3290.0,2787.0 C 3276.0,2769.0 3270.0,2747.0 3270.0,2709.0 C 3270.0,2676.0 3264.0,2650.0 3255.0,2640.0 C 3236.0,2619.0 3232.0,2530.0 3247.0,2473.0 C 3257.0,2433.0 3256.0,2430.0 3239.0,2430.0 C 3228.0,2430.0 3216.0,2438.0 3213.0,2448.0 C 3201.0,2480.0 3160.0,2510.0 3127.0,2510.0 C 3088.0,2510.0 3020.0,2572.0 3020.0,2608.0 C 3020.0,2634.0 3000.0,2644.0 2953.0,2644.0 C 2935.0,2644.0 2920.0,2649.0 2920.0,2655.0 C 2920.0,2662.0 2909.0,2672.0 2895.0,2678.0 C 2881.0,2684.0 2870.0,2697.0 2870.0,2706.0 C 2870.0,2726.0 2786.0,2810.0 2766.0,2810.0 C 2757.0,2810.0 2750.0,2815.0 2750.0,2820.0 C 2750.0,2836.0 2669.0,2920.0 2659.0,2914.0 C 2654.0,2912.0 2653.0,2895.0 2657.0,2878.0 C 2662.0,2850.0 2661.0,2849.0 2643.0,2858.0 C 2614.0,2874.0 2534.0,2952.0 2527.0,2972.0 C 2524.0,2982.0 2508.0,2992.0 2493.0,2996.0 C 2478.0,3000.0 2456.0,3011.0 2445.0,3020.0 C 2434.0,3030.0 2412.0,3045.0 2395.0,3053.0 C 2379.0,3061.0 2349.0,3084.0 2331.0,3104.0 C 2312.0,3124.0 2291.0,3140.0 2285.0,3140.0 C 2279.0,3140.0 2266.0,3153.0 2257.0,3170.0 C 2247.0,3187.0 2234.0,3200.0 2228.0,3200.0 C 2223.0,3200.0 2198.0,3218.0 2173.0,3240.0 C 2148.0,3262.0 2122.0,3280.0 2115.0,3280.0 C 2108.0,3280.0 2096.0,3298.0 2087.0,3320.0 C 2076.0,3349.0 2066.0,3360.0 2051.0,3360.0 C 2040.0,3360.0 2026.0,3368.0 2021.0,3378.0 C 2015.0,3389.0 1989.0,3421.0 1961.0,3450.0 C 1914.0,3501.0 1910.0,3504.0 1867.0,3501.0 L 1823.0,3499.0 L 1811.0,3544.0 C 1805.0,3569.0 1794.0,3590.0 1787.0,3590.0 C 1759.0,3590.0 1690.0,3686.0 1690.0,3724.0 C 1690.0,3732.0 1701.0,3751.0 1714.0,3767.0 C 1739.0,3798.0 1738.0,3820.0 1711.0,3820.0 C 1689.0,3820.0 1660.0,3851.0 1660.0,3873.0 C 1660.0,3882.0 1656.0,3892.0 1650.0,3895.0 C 1645.0,3898.0 1633.0,3918.0 1623.0,3938.0 C 1607.0,3970.0 1605.0,3972.0 1602.0,3953.0 C 1597.0,3921.0 1554.0,3890.0 1522.0,3896.0 C 1486.0,3902.0 1444.0,3864.0 1438.0,3820.0 C 1434.0,3794.0 1441.0,3775.0 1472.0,3729.0 C 1493.0,3697.0 1510.0,3664.0 1510.0,3656.0 C 1510.0,3648.0 1516.0,3637.0 1523.0,3633.0 C 1531.0,3629.0 1550.0,3601.0 1565.0,3572.0 C 1601.0,3505.0 1704.0,3425.0 1738.0,3437.0 C 1745.0,3440.0 1767.0,3432.0 1788.0,3420.0 C 1808.0,3407.0 1841.0,3397.0 1861.0,3397.0 C 1891.0,3397.0 1902.0,3390.0 1936.0,3349.0 C 1960.0,3319.0 1983.0,3301.0 1997.0,3300.0 C 2009.0,3300.0 2021.0,3292.0 2024.0,3282.0 C 2027.0,3273.0 2055.0,3245.0 2085.0,3221.0 C 2115.0,3197.0 2140.0,3171.0 2140.0,3164.0 C 2140.0,3156.0 2147.0,3150.0 2155.0,3150.0 C 2162.0,3150.0 2173.0,3144.0 2177.0,3137.0 C 2181.0,3129.0 2192.0,3121.0 2201.0,3118.0 C 2210.0,3114.0 2223.0,3090.0 2230.0,3063.0 C 2246.0,3003.0 2256.0,2990.0 2286.0,2990.0 C 2299.0,2990.0 2315.0,2981.0 2322.0,2970.0 C 2329.0,2959.0 2345.0,2950.0 2357.0,2950.0 C 2371.0,2950.0 2380.0,2944.0 2380.0,2935.0 C 2380.0,2927.0 2385.0,2920.0 2390.0,2920.0 C 2396.0,2920.0 2400.0,2913.0 2400.0,2905.0 C 2400.0,2897.0 2409.0,2890.0 2420.0,2890.0 C 2434.0,2890.0 2440.0,2883.0 2440.0,2869.0 C 2440.0,2857.0 2448.0,2846.0 2460.0,2843.0 C 2485.0,2836.0 2486.0,2810.0 2462.0,2810.0 C 2440.0,2810.0 2414.0,2829.0 2408.0,2850.0 C 2405.0,2860.0 2392.0,2864.0 2363.0,2862.0 C 2334.0,2859.0 2321.0,2863.0 2317.0,2874.0 C 2314.0,2882.0 2295.0,2896.0 2277.0,2904.0 C 2258.0,2912.0 2234.0,2932.0 2224.0,2949.0 C 2214.0,2967.0 2195.0,2983.0 2183.0,2986.0 C 2170.0,2990.0 2160.0,2998.0 2160.0,3006.0 C 2160.0,3023.0 2081.0,3060.0 2046.0,3060.0 C 2013.0,3060.0 2012.0,3036.0 2044.0,3015.0 C 2057.0,3006.0 2070.0,2990.0 2073.0,2980.0 C 2076.0,2968.0 2087.0,2960.0 2099.0,2960.0 C 2110.0,2960.0 2125.0,2951.0 2132.0,2940.0 C 2139.0,2929.0 2150.0,2920.0 2157.0,2920.0 C 2164.0,2920.0 2170.0,2909.0 2170.0,2896.0 C 2170.0,2877.0 2176.0,2871.0 2197.0,2868.0 C 2217.0,2866.0 2226.0,2857.0 2235.0,2830.0 C 2244.0,2805.0 2255.0,2793.0 2276.0,2787.0 C 2292.0,2782.0 2319.0,2774.0 2335.0,2768.0 C 2352.0,2762.0 2424.0,2754.0 2497.0,2751.0 C 2618.0,2745.0 2631.0,2743.0 2654.0,2721.0 C 2682.0,2694.0 2689.0,2660.0 2665.0,2660.0 C 2657.0,2660.0 2646.0,2652.0 2641.0,2641.0 C 2623.0,2609.0 2670.0,2596.0 2820.0,2590.0 C 2928.0,2586.0 2954.0,2582.0 2952.0,2571.0 C 2945.0,2540.0 2962.0,2500.0 2981.0,2500.0 C 2997.0,2500.0 2999.0,2495.0 2994.0,2475.0 C 2989.0,2455.0 2993.0,2449.0 3013.0,2441.0 C 3038.0,2431.0 3060.0,2387.0 3060.0,2345.0 C 3060.0,2329.0 3052.0,2320.0 3035.0,2316.0 C 3005.0,2308.0 3002.0,2290.0 3029.0,2283.0 C 3040.0,2280.0 3050.0,2270.0 3053.0,2259.0 C 3060.0,2234.0 3081.0,2235.0 3139.0,2264.0 C 3187.0,2289.0 3210.0,2286.0 3210.0,2254.0 C 3210.0,2227.0 3261.0,2233.0 3332.0,2268.0 C 3395.0,2299.0 3417.0,2305.0 3491.0,2308.0 C 3546.0,2310.0 3586.0,2308.0 3600.0,2300.0 C 3630.0,2284.0 3692.0,2315.0 3680.0,2339.0 C 3630.0,2441.0 3629.0,2469.0 3675.0,2514.0 C 3694.0,2534.0 3710.0,2555.0 3710.0,2562.0 C 3710.0,2569.0 3719.0,2600.0 3731.0,2630.0 C 3761.0,2710.0 3769.0,2737.0 3786.0,2819.0 C 3807.0,2917.0 3830.0,2972.0 3846.0,2959.0 C 3856.0,2951.0 3854.0,2941.0 3840.0,2917.0 C 3819.0,2881.0 3804.0,2752.0 3818.0,2731.0 C 3836.0,2705.0 3853.0,2730.0 3846.0,2772.0 C 3841.0,2800.0 3845.0,2824.0 3859.0,2856.0 C 3881.0,2905.0 3889.0,2909.0 3908.0,2880.0 C 3915.0,2869.0 3927.0,2860.0 3935.0,2860.0 C 3944.0,2860.0 3950.0,2851.0 3950.0,2835.0 C 3950.0,2811.0 3984.0,2782.0 3993.0,2797.0 C 3996.0,2802.0 3995.0,2838.0 3993.0,2878.0 C 3987.0,2950.0 3987.0,2950.0 3958.0,2950.0 C 3935.0,2950.0 3930.0,2954.0 3934.0,2968.0 C 3937.0,2977.0 3942.0,2999.0 3946.0,3015.0 C 3976.0,3139.0 4129.0,3354.0 4235.0,3421.0 C 4371.0,3507.0 4393.0,3513.0 4388.0,3462.0 C 4386.0,3441.0 4389.0,3435.0 4405.0,3435.0 C 4420.0,3435.0 4426.0,3443.0 4428.0,3468.0 C 4431.0,3499.0 4433.0,3500.0 4473.0,3500.0 C 4496.0,3499.0 4526.0,3493.0 4540.0,3485.0 C 4572.0,3467.0 4620.0,3466.0 4620.0,3483.0 C 4620.0,3491.0 4610.0,3502.0 4598.0,3508.0 L 4575.0,3519.0 L 4597.0,3519.0 C 4609.0,3520.0 4630.0,3516.0 4644.0,3510.0 C 4658.0,3505.0 4670.0,3504.0 4670.0,3508.0 C 4670.0,3512.0 4655.0,3520.0 4638.0,3525.0 C 4599.0,3537.0 4601.0,3551.0 4644.0,3565.0 C 4687.0,3579.0 4683.0,3593.0 4630.0,3609.0 C 4518.0,3643.0 4510.0,3655.0 4613.0,3636.0 C 4667.0,3626.0 4680.0,3626.0 4680.0,3636.0 C 4680.0,3643.0 4676.0,3652.0 4670.0,3655.0 C 4665.0,3658.0 4660.0,3674.0 4660.0,3691.0 C 4660.0,3715.0 4656.0,3720.0 4636.0,3720.0 C 4623.0,3720.0 4571.0,3742.0 4519.0,3768.0 C 4448.0,3804.0 4424.0,3821.0 4422.0,3838.0 C 4418.0,3868.0 4457.0,3882.0 4532.0,3878.0 C 4580.0,3876.0 4592.0,3879.0 4610.0,3898.0 C 4630.0,3920.0 4663.0,3926.0 4694.0,3914.0 C 4720.0,3904.0 4713.0,3887.0 4665.0,3840.0 C 4640.0,3816.0 4620.0,3792.0 4620.0,3788.0 C 4620.0,3784.0 4635.0,3780.0 4654.0,3780.0 C 4681.0,3780.0 4693.0,3773.0 4710.0,3750.0 C 4733.0,3717.0 4750.0,3711.0 4750.0,3735.0 C 4750.0,3743.0 4756.0,3768.0 4762.0,3790.0 C 4774.0,3829.0 4792.0,3841.0 4805.0,3820.0 C 4808.0,3814.0 4819.0,3810.0 4830.0,3810.0 C 4841.0,3810.0 4850.0,3800.0 4855.0,3783.0 C 4858.0,3768.0 4870.0,3744.0 4880.0,3730.0 C 4897.0,3706.0 4897.0,3702.0 4884.0,3688.0 C 4872.0,3676.0 4871.0,3666.0 4881.0,3629.0 C 4892.0,3585.0 4900.0,3436.0 4892.0,3413.0 C 4890.0,3406.0 4877.0,3400.0 4864.0,3400.0 C 4837.0,3400.0 4832.0,3426.0 4853.0,3461.0 C 4863.0,3478.0 4863.0,3484.0 4853.0,3487.0 C 4846.0,3490.0 4840.0,3504.0 4840.0,3520.0 C 4840.0,3561.0 4830.0,3580.0 4809.0,3580.0 C 4797.0,3580.0 4790.0,3587.0 4790.0,3599.0 C 4790.0,3609.0 4783.0,3624.0 4774.0,3631.0 C 4765.0,3638.0 4754.0,3655.0 4749.0,3667.0 C 4742.0,3687.0 4737.0,3689.0 4720.0,3680.0 C 4702.0,3670.0 4700.0,3663.0 4706.0,3624.0 C 4710.0,3594.0 4708.0,3575.0 4700.0,3564.0 C 4690.0,3553.0 4690.0,3546.0 4698.0,3538.0 C 4706.0,3530.0 4706.0,3521.0 4699.0,3508.0 C 4683.0,3478.0 4696.0,3460.0 4733.0,3460.0 C 4773.0,3460.0 4804.0,3432.0 4794.0,3405.0 C 4785.0,3384.0 4805.0,3370.0 4846.0,3370.0 C 4880.0,3370.0 4946.0,3311.0 4922.0,3303.0 C 4912.0,3299.0 4912.0,3293.0 4925.0,3274.0 C 4935.0,3259.0 4942.0,3218.0 4945.0,3163.0 C 4953.0,3031.0 4960.0,2987.0 4980.0,2965.0 C 4989.0,2954.0 5000.0,2937.0 5003.0,2928.0 C 5013.0,2900.0 5084.0,2904.0 5111.0,2933.0 C 5122.0,2945.0 5136.0,2960.0 5141.0,2965.0 C 5196.0,3017.0 5250.0,3077.0 5250.0,3087.0 C 5250.0,3093.0 5283.0,3114.0 5323.0,3134.0 C 5385.0,3165.0 5409.0,3170.0 5493.0,3176.0 C 5572.0,3182.0 5590.0,3186.0 5585.0,3197.0 C 5582.0,3205.0 5580.0,3214.0 5580.0,3216.0 C 5580.0,3218.0 5571.0,3220.0 5560.0,3220.0 C 5535.0,3220.0 5420.0,3277.0 5420.0,3289.0 C 5420.0,3294.0 5402.0,3321.0 5380.0,3349.0 C 5339.0,3400.0 5331.0,3424.0 5350.0,3435.0 C 5367.0,3446.0 5341.0,3470.0 5313.0,3470.0 C 5300.0,3470.0 5257.0,3454.0 5219.0,3434.0 C 5181.0,3414.0 5147.0,3400.0 5144.0,3403.0 C 5135.0,3412.0 5183.0,3471.0 5213.0,3486.0 C 5228.0,3494.0 5240.0,3508.0 5240.0,3516.0 C 5240.0,3528.0 5245.0,3530.0 5258.0,3525.0 C 5291.0,3511.0 5380.0,3508.0 5409.0,3519.0 C 5424.0,3526.0 5442.0,3542.0 5448.0,3556.0 C 5457.0,3574.0 5467.0,3580.0 5492.0,3580.0 C 5531.0,3580.0 5543.0,3573.0 5559.0,3543.0 C 5567.0,3527.0 5568.0,3514.0 5560.0,3501.0 C 5555.0,3490.0 5550.0,3469.0 5550.0,3453.0 C 5550.0,3385.0 5526.0,3360.0 5451.0,3350.0 L 5408.0,3345.0 L 5449.0,3298.0 C 5483.0,3260.0 5502.0,3248.0 5559.0,3231.0 C 5597.0,3219.0 5634.0,3210.0 5642.0,3210.0 C 5649.0,3210.0 5664.0,3203.0 5675.0,3195.0 C 5694.0,3180.0 5694.0,3179.0 5672.0,3158.0 C 5652.0,3138.0 5647.0,3137.0 5628.0,3149.0 C 5607.0,3162.0 5603.0,3160.0 5567.0,3119.0 L 5529.0,3076.0 L 5572.0,3053.0 C 5640.0,3018.0 5662.0,3022.0 5703.0,3079.0 C 5723.0,3106.0 5756.0,3141.0 5777.0,3156.0 C 5798.0,3172.0 5821.0,3193.0 5828.0,3202.0 C 5835.0,3212.0 5847.0,3220.0 5855.0,3220.0 C 5862.0,3220.0 5887.0,3235.0 5909.0,3254.0 C 5932.0,3273.0 5967.0,3294.0 5988.0,3301.0 C 6008.0,3307.0 6037.0,3321.0 6051.0,3331.0 C 6094.0,3361.0 6160.0,3379.0 6256.0,3386.0 C 6329.0,3391.0 6352.0,3390.0 6378.0,3376.0 C 6395.0,3367.0 6425.0,3360.0 6444.0,3360.0 C 6499.0,3360.0 6530.0,3342.0 6530.0,3308.0 C 6530.0,3266.0 6571.0,3249.0 6603.0,3277.0 C 6633.0,3304.0 6661.0,3310.0 6801.0,3316.0 L 6920.0,3321.0 L 6920.0,3292.0 C 6920.0,3275.0 6926.0,3260.0 6934.0,3257.0 C 6942.0,3254.0 6950.0,3239.0 6952.0,3223.0 C 6954.0,3201.0 6961.0,3194.0 6983.0,3192.0 C 6998.0,3190.0 7010.0,3193.0 7010.0,3197.0 C 7010.0,3202.0 7016.0,3215.0 7024.0,3225.0 C 7037.0,3244.0 7038.0,3244.0 7061.0,3222.0 C 7074.0,3210.0 7094.0,3194.0 7104.0,3187.0 C 7131.0,3167.0 7119.0,3103.0 7084.0,3090.0 C 7071.0,3085.0 7060.0,3076.0 7060.0,3071.0 C 7060.0,3058.0 7154.0,3030.0 7198.0,3030.0 C 7220.0,3030.0 7238.0,3023.0 7249.0,3009.0 L 7266.0,2987.0 L 7293.0,3014.0 C 7315.0,3036.0 7324.0,3039.0 7352.0,3032.0 C 7370.0,3028.0 7410.0,3025.0 7440.0,3025.0 C 7494.0,3025.0 7494.0,3025.0 7505.0,3062.0 C 7520.0,3116.0 7546.0,3137.0 7615.0,3153.0 C 7700.0,3172.0 7697.0,3194.0 7609.0,3198.0 C 7550.0,3201.0 7534.0,3197.0 7468.0,3166.0 C 7409.0,3137.0 7387.0,3132.0 7357.0,3137.0 C 7324.0,3142.0 7316.0,3149.0 7295.0,3189.0 C 7269.0,3241.0 7239.0,3260.0 7182.0,3260.0 C 7159.0,3260.0 7131.0,3269.0 7108.0,3285.0 C 7088.0,3299.0 7067.0,3310.0 7062.0,3310.0 C 7056.0,3310.0 7049.0,3326.0 7046.0,3345.0 C 7039.0,3382.0 7031.0,3386.0 7001.0,3370.0 C 6987.0,3363.0 6978.0,3366.0 6965.0,3380.0 C 6951.0,3396.0 6939.0,3399.0 6915.0,3394.0 C 6873.0,3387.0 6858.0,3416.0 6889.0,3442.0 C 6912.0,3460.0 6915.0,3481.0 6900.0,3511.0 C 6891.0,3526.0 6878.0,3530.0 6830.0,3530.0 C 6798.0,3530.0 6768.0,3535.0 6765.0,3540.0 C 6757.0,3553.0 6723.0,3553.0 6715.0,3540.0 C 6711.0,3534.0 6714.0,3523.0 6720.0,3515.0 C 6726.0,3507.0 6729.0,3497.0 6727.0,3492.0 C 6724.0,3488.0 6725.0,3478.0 6730.0,3470.0 C 6742.0,3450.0 6641.0,3416.0 6607.0,3429.0 C 6593.0,3435.0 6577.0,3434.0 6566.0,3428.0 C 6555.0,3422.0 6545.0,3422.0 6535.0,3430.0 C 6525.0,3438.0 6513.0,3437.0 6485.0,3426.0 C 6451.0,3412.0 6446.0,3412.0 6411.0,3430.0 C 6378.0,3447.0 6374.0,3452.0 6378.0,3479.0 C 6381.0,3499.0 6378.0,3510.0 6370.0,3510.0 C 6363.0,3510.0 6343.0,3517.0 6324.0,3526.0 C 6284.0,3545.0 6234.0,3539.0 6197.0,3510.0 C 6169.0,3488.0 6080.0,3481.0 6080.0,3501.0 C 6080.0,3519.0 6015.0,3505.0 5979.0,3480.0 C 5963.0,3468.0 5931.0,3456.0 5909.0,3453.0 C 5886.0,3449.0 5860.0,3438.0 5847.0,3424.0 C 5835.0,3411.0 5820.0,3400.0 5814.0,3400.0 C 5786.0,3400.0 5750.0,3358.0 5750.0,3326.0 C 5750.0,3286.0 5725.0,3250.0 5698.0,3250.0 C 5686.0,3250.0 5662.0,3261.0 5644.0,3275.0 C 5626.0,3289.0 5608.0,3300.0 5603.0,3300.0 C 5599.0,3300.0 5589.0,3304.0 5581.0,3309.0 C 5570.0,3316.0 5575.0,3327.0 5609.0,3359.0 C 5649.0,3397.0 5655.0,3400.0 5710.0,3400.0 C 5744.0,3400.0 5772.0,3405.0 5776.0,3412.0 C 5783.0,3422.0 5762.0,3444.0 5736.0,3453.0 C 5711.0,3462.0 5743.0,3473.0 5790.0,3471.0 C 5837.0,3470.0 5840.0,3471.0 5840.0,3495.0 C 5840.0,3516.0 5845.0,3520.0 5869.0,3520.0 C 5886.0,3520.0 5902.0,3525.0 5905.0,3530.0 C 5909.0,3536.0 5926.0,3538.0 5946.0,3534.0 C 5978.0,3528.0 5980.0,3530.0 5980.0,3554.0 C 5980.0,3580.0 5993.0,3589.0 6005.0,3569.0 C 6020.0,3546.0 6135.0,3588.0 6145.0,3620.0 C 6149.0,3631.0 6155.0,3640.0 6160.0,3640.0 C 6175.0,3640.0 6215.0,3683.0 6228.0,3713.0 C 6240.0,3741.0 6241.0,3742.0 6300.0,3735.0 C 6391.0,3724.0 6431.0,3735.0 6459.0,3775.0 C 6474.0,3797.0 6496.0,3814.0 6519.0,3821.0 C 6548.0,3830.0 6559.0,3840.0 6573.0,3874.0 C 6582.0,3896.0 6590.0,3923.0 6590.0,3933.0 C 6590.0,3943.0 6597.0,3953.0 6605.0,3956.0 C 6613.0,3960.0 6620.0,3968.0 6620.0,3976.0 C 6620.0,3985.0 6632.0,3990.0 6656.0,3990.0 C 6675.0,3990.0 6699.0,3994.0 6709.0,3999.0 C 6730.0,4011.0 6799.0,4013.0 6853.0,4004.0 C 6878.0,4000.0 6901.0,4003.0 6917.0,4011.0 C 6941.0,4024.0 7008.0,4026.0 7186.0,4019.0 C 7230.0,4017.0 7242.0,4021.0 7276.0,4048.0 C 7298.0,4065.0 7331.0,4083.0 7350.0,4086.0 C 7369.0,4090.0 7415.0,4113.0 7453.0,4137.0 C 7496.0,4164.0 7532.0,4180.0 7552.0,4180.0 C 7570.0,4180.0 7597.0,4191.0 7615.0,4205.0 C 7648.0,4229.0 7722.0,4260.0 7751.0,4260.0 C 7759.0,4260.0 7781.0,4276.0 7800.0,4295.0 C 7819.0,4314.0 7843.0,4330.0 7855.0,4330.0 C 7883.0,4330.0 7900.0,4349.0 7900.0,4380.0 C 7900.0,4402.0 7906.0,4408.0 7940.0,4416.0 L 7979.0,4427.0 L 7960.0,4400.0 C 7950.0,4386.0 7938.0,4361.0 7934.0,4344.0 C 7931.0,4328.0 7917.0,4304.0 7905.0,4290.0 C 7888.0,4272.0 7881.0,4249.0 7877.0,4210.0 C 7872.0,4145.0 7780.0,3922.0 7737.0,3871.0 C 7722.0,3853.0 7710.0,3828.0 7710.0,3816.0 C 7710.0,3788.0 7692.0,3770.0 7665.0,3770.0 C 7633.0,3770.0 7605.0,3703.0 7615.0,3653.0 C 7619.0,3632.0 7624.0,3603.0 7627.0,3587.0 C 7630.0,3572.0 7625.0,3545.0 7616.0,3526.0 C 7607.0,3507.0 7600.0,3487.0 7600.0,3482.0 C 7600.0,3476.0 7620.0,3445.0 7645.0,3412.0 C 7674.0,3374.0 7688.0,3346.0 7684.0,3336.0 C 7674.0,3311.0 7654.0,3317.0 7640.0,3350.0 C 7630.0,3375.0 7622.0,3380.0 7594.0,3380.0 C 7566.0,3380.0 7560.0,3376.0 7560.0,3360.0 C 7560.0,3332.0 7535.0,3325.0 7505.0,3344.0 C 7473.0,3365.0 7470.0,3365.0 7470.0,3333.0 C 7470.0,3283.0 7492.0,3255.0 7530.0,3254.0 C 7549.0,3254.0 7580.0,3247.0 7597.0,3239.0 C 7626.0,3227.0 7633.0,3228.0 7660.0,3244.0 L 7691.0,3261.0 L 7701.0,3231.0 C 7715.0,3192.0 7743.0,3190.0 7828.0,3225.0 C 7862.0,3239.0 7901.0,3250.0 7915.0,3250.0 C 7954.0,3250.0 7980.0,3268.0 7980.0,3294.0 C 7980.0,3309.0 8079.0,3468.0 8228.0,3692.0 C 8364.0,3897.0 8486.0,4092.0 8499.0,4125.0 C 8512.0,4158.0 8560.0,4255.0 8605.0,4340.0 C 8706.0,4530.0 8722.0,4566.0 8771.0,4704.0 C 8810.0,4815.0 8839.0,4858.0 8892.0,4886.0 C 8924.0,4903.0 8963.0,4891.0 8980.0,4860.0 C 8997.0,4829.0 9042.0,4834.0 9086.0,4872.0 C 9107.0,4890.0 9152.0,4948.0 9186.0,5000.0 C 9256.0,5107.0 9313.0,5167.0 9350.0,5172.0 C 9367.0,5174.0 9385.0,5190.0 9405.0,5222.0 C 9441.0,5278.0 9479.0,5287.0 9498.0,5245.0 C 9510.0,5220.0 9530.0,5211.0 9530.0,5231.0 C 9530.0,5237.0 9540.0,5250.0 9551.0,5259.0 C 9566.0,5271.0 9574.0,5291.0 9577.0,5327.0 C 9582.0,5371.0 9588.0,5384.0 9626.0,5421.0 C 9684.0,5478.0 9684.0,5494.0 9625.0,5485.0 C 9583.0,5479.0 9576.0,5481.0 9543.0,5510.0 C 9514.0,5536.0 9502.0,5541.0 9476.0,5536.0 C 9443.0,5529.0 9412.0,5505.0 9423.0,5494.0 C 9427.0,5490.0 9441.0,5492.0 9455.0,5498.0 C 9476.0,5508.0 9483.0,5507.0 9498.0,5492.0 C 9508.0,5483.0 9527.0,5467.0 9540.0,5458.0 C 9561.0,5443.0 9563.0,5439.0 9550.0,5430.0 C 9542.0,5424.0 9524.0,5422.0 9510.0,5425.0 C 9496.0,5428.0 9452.0,5437.0 9411.0,5444.0 C 9371.0,5452.0 9331.0,5465.0 9323.0,5473.0 C 9310.0,5486.0 9311.0,5487.0 9336.0,5482.0 L 9363.0,5477.0 L 9341.0,5508.0 C 9329.0,5525.0 9311.0,5541.0 9302.0,5544.0 C 9292.0,5548.0 9276.0,5567.0 9267.0,5588.0 C 9258.0,5608.0 9233.0,5637.0 9212.0,5651.0 C 9175.0,5678.0 9174.0,5678.0 9151.0,5659.0 C 9138.0,5649.0 9121.0,5640.0 9112.0,5640.0 C 9090.0,5640.0 9010.0,5680.0 9010.0,5691.0 C 9010.0,5696.0 9001.0,5700.0 8991.0,5700.0 C 8981.0,5700.0 8970.0,5706.0 8967.0,5714.0 C 8964.0,5722.0 8949.0,5734.0 8933.0,5742.0 C 8913.0,5751.0 8903.0,5765.0 8900.0,5787.0 C 8897.0,5805.0 8884.0,5827.0 8868.0,5839.0 C 8854.0,5851.0 8839.0,5874.0 8835.0,5891.0 C 8831.0,5907.0 8818.0,5931.0 8807.0,5944.0 C 8795.0,5956.0 8777.0,5976.0 8767.0,5989.0 L 8750.0,6011.0 L 8697.0,5971.0 C 8661.0,5944.0 8646.0,5927.0 8648.0,5914.0 C 8654.0,5880.0 8669.0,5874.0 8700.0,5892.0 C 8716.0,5901.0 8732.0,5905.0 8734.0,5901.0 C 8737.0,5897.0 8723.0,5888.0 8704.0,5881.0 C 8686.0,5874.0 8670.0,5864.0 8670.0,5859.0 C 8670.0,5837.0 8691.0,5810.0 8703.0,5817.0 C 8711.0,5822.0 8711.0,5819.0 8702.0,5808.0 C 8692.0,5796.0 8692.0,5787.0 8701.0,5766.0 C 8716.0,5733.0 8721.0,5733.0 8760.0,5770.0 C 8778.0,5787.0 8795.0,5798.0 8797.0,5796.0 C 8800.0,5793.0 8786.0,5777.0 8766.0,5760.0 C 8746.0,5742.0 8730.0,5720.0 8730.0,5710.0 C 8730.0,5657.0 8707.0,5693.0 8670.0,5806.0 C 8629.0,5928.0 8628.0,5933.0 8635.0,6021.0 C 8641.0,6099.0 8644.0,6110.0 8661.0,6110.0 C 8685.0,6110.0 8687.0,6063.0 8665.0,6034.0 C 8651.0,6016.0 8644.0,5970.0 8656.0,5970.0 C 8659.0,5970.0 8682.0,5984.0 8707.0,6001.0 C 8742.0,6025.0 8751.0,6037.0 8747.0,6054.0 C 8744.0,6065.0 8738.0,6114.0 8735.0,6162.0 C 8725.0,6278.0 8718.0,6281.0 8608.0,6206.0 C 8574.0,6183.0 8538.0,6147.0 8519.0,6118.0 C 8502.0,6091.0 8466.0,6050.0 8439.0,6027.0 C 8405.0,5997.0 8389.0,5975.0 8387.0,5955.0 C 8382.0,5914.0 8354.0,5863.0 8309.0,5811.0 C 8287.0,5787.0 8270.0,5762.0 8270.0,5755.0 C 8270.0,5748.0 8241.0,5708.0 8206.0,5666.0 C 8142.0,5589.0 8142.0,5588.0 8135.0,5512.0 C 8126.0,5396.0 8122.0,5387.0 8074.0,5330.0 C 8050.0,5302.0 8030.0,5274.0 8030.0,5269.0 C 8030.0,5264.0 8014.0,5242.0 7995.0,5221.0 C 7967.0,5190.0 7958.0,5170.0 7953.0,5129.0 C 7947.0,5080.0 7941.0,5071.0 7881.0,5010.0 C 7766.0,4896.0 7760.0,4893.0 7635.0,4881.0 C 7574.0,4875.0 7489.0,4866.0 7445.0,4860.0 C 7401.0,4854.0 7335.0,4846.0 7298.0,4842.0 C 7251.0,4836.0 7224.0,4828.0 7208.0,4813.0 C 7195.0,4801.0 7164.0,4786.0 7138.0,4780.0 C 7109.0,4772.0 7073.0,4753.0 7048.0,4731.0 C 7024.0,4710.0 6976.0,4674.0 6940.0,4650.0 C 6904.0,4626.0 6844.0,4580.0 6805.0,4549.0 C 6732.0,4490.0 6641.0,4434.0 6505.0,4365.0 C 6461.0,4343.0 6409.0,4308.0 6389.0,4287.0 C 6368.0,4267.0 6344.0,4250.0 6335.0,4250.0 C 6325.0,4250.0 6302.0,4240.0 6283.0,4229.0 C 6251.0,4209.0 6240.0,4208.0 6138.0,4214.0 C 6044.0,4220.0 6013.0,4227.0 5941.0,4256.0 C 5894.0,4275.0 5833.0,4304.0 5805.0,4319.0 C 5639.0,4416.0 5551.0,4458.0 5507.0,4465.0 L 5460.0,4471.0 L 5377.0,4395.0 L 5295.0,4319.0 L 5225.0,4325.0 C 5187.0,4329.0 5140.0,4338.0 5121.0,4346.0 C 5103.0,4354.0 5075.0,4360.0 5060.0,4360.0 C 5045.0,4360.0 5027.0,4367.0 5020.0,4375.0 C 5013.0,4383.0 4994.0,4390.0 4978.0,4390.0 C 4962.0,4390.0 4932.0,4399.0 4912.0,4409.0 C 4891.0,4420.0 4856.0,4432.0 4835.0,4436.0 C 4813.0,4439.0 4779.0,4451.0 4760.0,4460.0 C 4741.0,4470.0 4687.0,4492.0 4640.0,4510.0 C 4593.0,4528.0 4538.0,4555.0 4518.0,4571.0 C 4498.0,4587.0 4475.0,4600.0 4467.0,4600.0 C 4451.0,4600.0 4440.0,4558.0 4440.0,4494.0 C 4440.0,4458.0 4437.0,4452.0 4424.0,4457.0 C 4411.0,4462.0 4409.0,4472.0 4415.0,4506.0 C 4422.0,4554.0 4425.0,4552.0 4305.0,4565.0 C 4231.0,4574.0 4192.0,4593.0 4184.0,4625.0 C 4176.0,4657.0 3992.0,4813.0 3924.0,4844.0 C 3907.0,4852.0 3874.0,4884.0 3850.0,4915.0 C 3826.0,4946.0 3792.0,4984.0 3774.0,4998.0 C 3757.0,5013.0 3735.0,5039.0 3726.0,5057.0 C 3717.0,5075.0 3683.0,5107.0 3651.0,5129.0 C 3619.0,5151.0 3583.0,5184.0 3572.0,5202.0 C 3522.0,5280.0 3499.0,5310.0 3490.0,5310.0 C 3484.0,5310.0 3480.0,5315.0 3480.0,5320.0 C 3480.0,5326.0 3455.0,5355.0 3425.0,5385.0 C 3395.0,5414.0 3361.0,5458.0 3351.0,5483.0 C 3340.0,5508.0 3323.0,5531.0 3313.0,5534.0 C 3303.0,5538.0 3280.0,5572.0 3262.0,5611.0 C 3243.0,5649.0 3220.0,5685.0 3209.0,5691.0 C 3199.0,5696.0 3190.0,5705.0 3190.0,5710.0 C 3190.0,5715.0 3172.0,5748.0 3150.0,5782.0 C 3128.0,5817.0 3110.0,5851.0 3110.0,5858.0 C 3110.0,5865.0 3094.0,5887.0 3075.0,5907.0 C 3056.0,5926.0 3036.0,5957.0 3030.0,5976.0 C 3023.0,5995.0 3015.0,6010.0 3011.0,6010.0 C 2999.0,6010.0 2920.0,6092.0 2920.0,6105.0 C 2920.0,6112.0 2897.0,6150.0 2868.0,6191.0 C 2839.0,6232.0 2800.0,6293.0 2780.0,6327.0 C 2739.0,6397.0 2707.0,6426.0 2632.0,6464.0 C 2601.0,6480.0 2571.0,6504.0 2562.0,6521.0 C 2553.0,6537.0 2541.0,6550.0 2537.0,6550.0 C 2524.0,6550.0 2421.0,6664.0 2401.0,6699.0 C 2372.0,6752.0 2277.0,6860.0 2259.0,6860.0 C 2249.0,6860.0 2235.0,6869.0 2227.0,6880.0 C 2220.0,6890.0 2189.0,6914.0 2159.0,6932.0 C 2129.0,6950.0 2091.0,6975.0 2075.0,6986.0 C 2024.0,7022.0 1942.0,7060.0 1914.0,7060.0 C 1900.0,7060.0 1862.0,7076.0 1831.0,7095.0 C 1799.0,7114.0 1755.0,7132.0 1733.0,7136.0 C 1708.0,7140.0 1683.0,7152.0 1671.0,7166.0 C 1659.0,7179.0 1646.0,7190.0 1640.0,7190.0 C 1635.0,7190.0 1622.0,7207.0 1611.0,7228.0 C 1600.0,7249.0 1584.0,7273.0 1574.0,7281.0 C 1552.0,7299.0 1510.0,7388.0 1510.0,7418.0 C 1510.0,7474.0 1480.0,7545.0 1445.0,7570.0 C 1426.0,7584.0 1400.0,7614.0 1388.0,7638.0 C 1364.0,7683.0 1236.0,7790.0 1206.0,7790.0 C 1198.0,7790.0 1185.0,7799.0 1178.0,7810.0 C 1171.0,7821.0 1160.0,7830.0 1154.0,7830.0 C 1147.0,7830.0 1135.0,7841.0 1127.0,7853.0 C 1118.0,7867.0 1086.0,7887.0 1053.0,7899.0 C 976.0,7928.0 962.0,7940.0 958.0,7980.0 C 956.0,8007.0 953.0,8011.0 944.0,7999.0 M 8780.0,5840.0 C 8780.0,5835.0 8777.0,5830.0 8773.0,5830.0 C 8768.0,5830.0 8754.0,5827.0 8740.0,5824.0 C 8716.0,5819.0 8716.0,5819.0 8734.0,5834.0 C 8756.0,5852.0 8780.0,5855.0 8780.0,5840.0" fill="pink"/>
	<path d="M 10069.0,7505.0 C 9964.0,7467.0 9835.0,7383.0 9741.0,7291.0 C 9716.0,7267.0 9673.0,7236.0 9645.0,7223.0 C 9514.0,7160.0 9360.0,7058.0 9360.0,7034.0 C 9360.0,7027.0 9373.0,7012.0 9388.0,7001.0 C 9412.0,6984.0 9415.0,6976.0 9412.0,6946.0 C 9408.0,6913.0 9410.0,6910.0 9433.0,6910.0 C 9446.0,6910.0 9463.0,6916.0 9469.0,6924.0 C 9479.0,6935.0 9477.0,6940.0 9461.0,6945.0 C 9436.0,6953.0 9433.0,6978.0 9456.0,6987.0 C 9465.0,6990.0 9482.0,6982.0 9499.0,6966.0 C 9514.0,6952.0 9530.0,6940.0 9534.0,6940.0 C 9538.0,6940.0 9556.0,6930.0 9573.0,6917.0 C 9614.0,6888.0 9664.0,6870.0 9690.0,6877.0 C 9705.0,6881.0 9710.0,6891.0 9710.0,6914.0 C 9710.0,6942.0 9715.0,6948.0 9746.0,6959.0 C 9765.0,6966.0 9786.0,6982.0 9791.0,6994.0 C 9811.0,7036.0 9851.0,7049.0 10060.0,7080.0 C 10136.0,7091.0 10168.0,7109.0 10193.0,7155.0 C 10215.0,7197.0 10240.0,7319.0 10240.0,7392.0 L 10240.0,7469.0 L 10203.0,7495.0 C 10162.0,7523.0 10124.0,7526.0 10069.0,7505.0" fill="pink"/>
	<path d="M 9070.0,6831.0 C 9062.0,6827.0 9046.0,6818.0 9035.0,6813.0 C 9023.0,6807.0 8986.0,6799.0 8952.0,6795.0 C 8894.0,6788.0 8889.0,6786.0 8876.0,6755.0 C 8865.0,6728.0 8855.0,6722.0 8821.0,6716.0 C 8799.0,6713.0 8780.0,6705.0 8780.0,6700.0 C 8780.0,6694.0 8767.0,6690.0 8751.0,6690.0 C 8725.0,6690.0 8718.0,6683.0 8690.0,6627.0 C 8641.0,6527.0 8649.0,6443.0 8710.0,6422.0 C 8737.0,6412.0 8773.0,6421.0 8785.0,6440.0 C 8789.0,6446.0 8801.0,6448.0 8812.0,6444.0 C 8837.0,6436.0 8850.0,6454.0 8850.0,6498.0 C 8850.0,6526.0 8855.0,6532.0 8890.0,6546.0 C 8920.0,6558.0 8930.0,6568.0 8930.0,6585.0 C 8930.0,6597.0 8939.0,6615.0 8949.0,6624.0 C 8973.0,6646.0 8983.0,6680.0 8965.0,6680.0 C 8957.0,6680.0 8947.0,6673.0 8942.0,6664.0 C 8929.0,6640.0 8910.0,6656.0 8910.0,6690.0 C 8910.0,6716.0 8914.0,6719.0 8956.0,6728.0 C 8996.0,6737.0 9005.0,6735.0 9021.0,6719.0 C 9045.0,6695.0 9065.0,6695.0 9090.0,6720.0 C 9101.0,6731.0 9110.0,6747.0 9110.0,6755.0 C 9110.0,6775.0 9147.0,6774.0 9158.0,6754.0 C 9163.0,6745.0 9189.0,6734.0 9218.0,6728.0 C 9262.0,6720.0 9282.0,6723.0 9350.0,6745.0 C 9395.0,6759.0 9439.0,6770.0 9448.0,6770.0 C 9457.0,6770.0 9471.0,6774.0 9479.0,6779.0 C 9490.0,6786.0 9486.0,6791.0 9464.0,6802.0 C 9440.0,6814.0 9431.0,6815.0 9410.0,6804.0 C 9396.0,6796.0 9376.0,6790.0 9365.0,6790.0 C 9354.0,6790.0 9334.0,6783.0 9320.0,6775.0 C 9290.0,6758.0 9197.0,6755.0 9168.0,6771.0 C 9154.0,6779.0 9150.0,6788.0 9154.0,6805.0 C 9159.0,6824.0 9155.0,6828.0 9129.0,6834.0 C 9092.0,6841.0 9089.0,6841.0 9070.0,6831.0" fill="pink"/>
	<path d="M 9683.0,6643.0 C 9668.0,6637.0 9666.0,6600.0 9680.0,6600.0 C 9692.0,6600.0 9704.0,6625.0 9698.0,6638.0 C 9697.0,6643.0 9689.0,6645.0 9683.0,6643.0" fill="pink"/>
	<path d="M 9616.0,6544.0 C 9612.0,6535.0 9612.0,6525.0 9615.0,6521.0 C 9623.0,6514.0 9653.0,6533.0 9658.0,6548.0 C 9664.0,6567.0 9623.0,6562.0 9616.0,6544.0" fill="pink"/>
	<path d="M 9525.0,6500.0 C 9514.0,6495.0 9471.0,6491.0 9430.0,6491.0 C 9320.0,6489.0 9314.0,6487.0 9303.0,6429.0 C 9292.0,6375.0 9289.0,6380.0 9377.0,6312.0 C 9401.0,6293.0 9421.0,6284.0 9425.0,6290.0 C 9429.0,6296.0 9449.0,6309.0 9471.0,6320.0 C 9492.0,6331.0 9510.0,6347.0 9510.0,6356.0 C 9510.0,6365.0 9530.0,6394.0 9554.0,6422.0 C 9614.0,6491.0 9599.0,6532.0 9525.0,6500.0" fill="pink"/>
	<path d="M 9043.0,6328.0 C 9033.0,6315.0 9002.0,6261.0 8976.0,6208.0 C 8933.0,6122.0 8928.0,6106.0 8934.0,6068.0 C 8942.0,6015.0 8996.0,5949.0 9105.0,5860.0 C 9146.0,5827.0 9181.0,5791.0 9185.0,5781.0 C 9190.0,5764.0 9194.0,5765.0 9226.0,5794.0 C 9282.0,5843.0 9293.0,5872.0 9286.0,5952.0 C 9278.0,6031.0 9290.0,6080.0 9331.0,6125.0 C 9358.0,6156.0 9374.0,6221.0 9361.0,6253.0 C 9355.0,6269.0 9351.0,6267.0 9331.0,6239.0 C 9318.0,6222.0 9304.0,6196.0 9300.0,6181.0 L 9292.0,6155.0 L 9291.0,6181.0 C 9290.0,6195.0 9296.0,6215.0 9304.0,6225.0 C 9315.0,6240.0 9315.0,6249.0 9305.0,6273.0 C 9295.0,6297.0 9279.0,6308.0 9229.0,6326.0 C 9144.0,6357.0 9070.0,6358.0 9043.0,6328.0" fill="pink"/>
	<path d="M 237.0,4363.0 C 225.0,4351.0 230.0,4329.0 250.0,4303.0 C 262.0,4287.0 270.0,4262.0 270.0,4238.0 C 270.0,4195.0 296.0,4140.0 317.0,4140.0 C 334.0,4140.0 333.0,4155.0 316.0,4183.0 C 308.0,4195.0 299.0,4227.0 295.0,4253.0 C 291.0,4281.0 280.0,4310.0 269.0,4321.0 C 257.0,4333.0 251.0,4348.0 254.0,4356.0 C 260.0,4370.0 249.0,4375.0 237.0,4363.0" fill="pink"/>
	<path d="M 1626.0,4319.0 C 1613.0,4253.0 1619.0,4220.0 1649.0,4190.0 C 1665.0,4174.0 1687.0,4143.0 1699.0,4120.0 C 1718.0,4084.0 1718.0,4077.0 1706.0,4057.0 C 1692.0,4037.0 1694.0,4031.0 1727.0,3988.0 C 1752.0,3953.0 1769.0,3940.0 1786.0,3940.0 C 1808.0,3940.0 1809.0,3943.0 1800.0,3960.0 C 1794.0,3971.0 1783.0,3980.0 1775.0,3980.0 C 1761.0,3980.0 1754.0,4002.0 1760.0,4025.0 C 1762.0,4031.0 1765.0,4053.0 1767.0,4076.0 C 1770.0,4109.0 1766.0,4121.0 1745.0,4140.0 C 1729.0,4155.0 1720.0,4174.0 1720.0,4193.0 C 1720.0,4217.0 1717.0,4220.0 1706.0,4211.0 C 1689.0,4197.0 1674.0,4214.0 1678.0,4242.0 C 1680.0,4252.0 1676.0,4269.0 1670.0,4280.0 C 1661.0,4296.0 1662.0,4305.0 1670.0,4315.0 C 1685.0,4333.0 1675.0,4350.0 1651.0,4350.0 C 1638.0,4350.0 1630.0,4340.0 1626.0,4319.0" fill="pink"/>
	<path d="M 357.0,4163.0 C 348.0,4142.0 335.0,4114.0 327.0,4100.0 C 319.0,4086.0 305.0,4044.0 296.0,4006.0 C 279.0,3930.0 288.0,3889.0 323.0,3882.0 C 338.0,3879.0 340.0,3887.0 340.0,3943.0 C 340.0,3988.0 348.0,4031.0 368.0,4086.0 C 394.0,4160.0 399.0,4200.0 381.0,4200.0 C 377.0,4200.0 366.0,4183.0 357.0,4163.0" fill="pink"/>
	<path d="M 1411.0,4171.0 C 1400.0,4164.0 1401.0,4160.0 1418.0,4151.0 C 1429.0,4145.0 1446.0,4140.0 1456.0,4140.0 C 1472.0,4140.0 1472.0,4141.0 1455.0,4160.0 C 1435.0,4182.0 1431.0,4183.0 1411.0,4171.0" fill="pink"/>
	<path d="M 667.0,4162.0 C 652.0,4159.0 650.0,4150.0 652.0,4117.0 C 656.0,4063.0 673.0,4066.0 682.0,4121.0 C 691.0,4169.0 691.0,4168.0 667.0,4162.0" fill="pink"/>
	<path d="M 1396.0,4111.0 C 1389.0,4100.0 1418.0,4088.0 1431.0,4096.0 C 1436.0,4099.0 1438.0,4106.0 1435.0,4111.0 C 1427.0,4123.0 1403.0,4123.0 1396.0,4111.0" fill="pink"/>
	<path d="M 1403.0,4063.0 C 1396.0,4046.0 1431.0,4010.0 1455.0,4010.0 C 1463.0,4010.0 1466.0,4002.0 1463.0,3990.0 C 1460.0,3977.0 1464.0,3968.0 1474.0,3964.0 C 1486.0,3959.0 1488.0,3954.0 1480.0,3945.0 C 1468.0,3931.0 1495.0,3920.0 1543.0,3920.0 C 1569.0,3920.0 1581.0,3942.0 1561.0,3955.0 C 1556.0,3958.0 1549.0,3974.0 1545.0,3990.0 C 1541.0,4007.0 1532.0,4020.0 1525.0,4020.0 C 1517.0,4020.0 1510.0,4030.0 1508.0,4043.0 C 1506.0,4061.0 1499.0,4065.0 1473.0,4063.0 C 1455.0,4061.0 1438.0,4065.0 1435.0,4070.0 C 1426.0,4085.0 1410.0,4082.0 1403.0,4063.0" fill="pink"/>
	<path d="M 1673.0,3954.0 C 1670.0,3945.0 1673.0,3935.0 1680.0,3930.0 C 1689.0,3925.0 1689.0,3917.0 1682.0,3904.0 C 1671.0,3884.0 1687.0,3850.0 1707.0,3850.0 C 1735.0,3850.0 1737.0,3945.0 1711.0,3960.0 C 1685.0,3973.0 1680.0,3973.0 1673.0,3954.0" fill="pink"/>
	<path d="M 527.0,3883.0 C 514.0,3871.0 520.0,3829.0 536.0,3823.0 C 544.0,3820.0 559.0,3824.0 568.0,3833.0 C 582.0,3848.0 582.0,3851.0 565.0,3870.0 C 546.0,3891.0 537.0,3894.0 527.0,3883.0" fill="pink"/>
	<path d="M 1910.0,3812.0 C 1910.0,3801.0 1917.0,3787.0 1925.0,3780.0 C 1933.0,3773.0 1940.0,3761.0 1940.0,3754.0 C 1940.0,3746.0 1949.0,3731.0 1961.0,3719.0 C 1984.0,3696.0 2030.0,3613.0 2030.0,3594.0 C 2030.0,3579.0 2068.0,3550.0 2087.0,3550.0 C 2107.0,3550.0 2103.0,3560.0 2053.0,3644.0 C 1964.0,3790.0 1951.0,3809.0 1929.0,3821.0 C 1913.0,3829.0 1910.0,3827.0 1910.0,3812.0" fill="pink"/>
	<path d="M 326.0,3745.0 C 310.0,3715.0 294.0,3690.0 290.0,3690.0 C 276.0,3690.0 210.0,3582.0 210.0,3558.0 C 210.0,3538.0 215.0,3533.0 232.0,3534.0 C 250.0,3535.0 256.0,3543.0 262.0,3577.0 C 268.0,3617.0 322.0,3710.0 338.0,3710.0 C 342.0,3710.0 352.0,3723.0 362.0,3739.0 C 375.0,3762.0 376.0,3772.0 367.0,3784.0 C 357.0,3798.0 351.0,3792.0 326.0,3745.0" fill="pink"/>
	<path d="M 654.0,3732.0 C 648.0,3728.0 641.0,3717.0 637.0,3708.0 C 634.0,3698.0 624.0,3690.0 616.0,3690.0 C 595.0,3690.0 560.0,3637.0 560.0,3606.0 C 560.0,3591.0 553.0,3568.0 544.0,3555.0 C 522.0,3521.0 490.0,3387.0 501.0,3376.0 C 506.0,3370.0 516.0,3380.0 525.0,3401.0 C 547.0,3447.0 560.0,3469.0 593.0,3511.0 C 608.0,3531.0 620.0,3552.0 620.0,3557.0 C 620.0,3563.0 630.0,3575.0 643.0,3583.0 C 661.0,3596.0 662.0,3599.0 648.0,3599.0 C 626.0,3600.0 625.0,3623.0 645.0,3640.0 C 653.0,3647.0 660.0,3667.0 660.0,3684.0 C 660.0,3702.0 665.0,3721.0 672.0,3728.0 C 685.0,3741.0 672.0,3744.0 654.0,3732.0" fill="pink"/>
	<path d="M 6583.0,3714.0 C 6580.0,3706.0 6582.0,3694.0 6589.0,3687.0 C 6611.0,3665.0 6601.0,3650.0 6564.0,3650.0 C 6519.0,3650.0 6460.0,3623.0 6460.0,3602.0 C 6460.0,3594.0 6467.0,3579.0 6476.0,3569.0 C 6491.0,3552.0 6491.0,3548.0 6471.0,3517.0 L 6450.0,3483.0 L 6492.0,3477.0 C 6526.0,3472.0 6539.0,3475.0 6556.0,3491.0 C 6568.0,3503.0 6590.0,3510.0 6613.0,3510.0 C 6649.0,3510.0 6690.0,3537.0 6690.0,3561.0 C 6690.0,3567.0 6680.0,3603.0 6668.0,3640.0 C 6652.0,3690.0 6639.0,3712.0 6622.0,3719.0 C 6592.0,3733.0 6590.0,3733.0 6583.0,3714.0" fill="pink"/>
	<path d="M 2353.0,3655.0 C 2349.0,3644.0 2356.0,3630.0 2372.0,3617.0 C 2386.0,3605.0 2403.0,3580.0 2410.0,3563.0 C 2418.0,3542.0 2429.0,3530.0 2441.0,3530.0 C 2474.0,3530.0 2471.0,3549.0 2429.0,3602.0 C 2380.0,3665.0 2362.0,3677.0 2353.0,3655.0" fill="pink"/>
	<path d="M 275.0,3559.0 C 267.0,3536.0 282.0,3514.0 299.0,3524.0 C 305.0,3528.0 310.0,3542.0 310.0,3556.0 C 310.0,3586.0 284.0,3588.0 275.0,3559.0" fill="pink"/>
	<path d="M 2760.0,3557.0 C 2760.0,3535.0 2820.0,3420.0 2832.0,3420.0 C 2847.0,3420.0 2833.0,3466.0 2803.0,3517.0 C 2776.0,3564.0 2760.0,3579.0 2760.0,3557.0" fill="pink"/>
	<path d="M 2100.0,3506.0 C 2100.0,3487.0 2151.0,3475.0 2161.0,3491.0 C 2173.0,3510.0 2162.0,3520.0 2129.0,3520.0 C 2111.0,3520.0 2100.0,3515.0 2100.0,3506.0" fill="pink"/>
	<path d="M 7375.0,3500.0 C 7371.0,3494.0 7372.0,3481.0 7375.0,3469.0 C 7380.0,3453.0 7389.0,3450.0 7413.0,3452.0 C 7433.0,3454.0 7445.0,3461.0 7445.0,3469.0 C 7445.0,3487.0 7384.0,3514.0 7375.0,3500.0" fill="pink"/>
	<path d="M 221.0,3460.0 C 206.0,3416.0 207.0,3370.0 223.0,3370.0 C 240.0,3370.0 262.0,3407.0 249.0,3415.0 C 244.0,3419.0 242.0,3430.0 245.0,3441.0 C 249.0,3451.0 247.0,3467.0 242.0,3476.0 C 234.0,3490.0 231.0,3487.0 221.0,3460.0" fill="pink"/>
	<path d="M 1690.0,3390.0 C 1690.0,3373.0 1780.0,3290.0 1798.0,3290.0 C 1824.0,3290.0 1870.0,3215.0 1870.0,3174.0 C 1870.0,3155.0 1875.0,3140.0 1880.0,3140.0 C 1886.0,3140.0 1890.0,3134.0 1890.0,3127.0 C 1890.0,3119.0 1907.0,3100.0 1928.0,3083.0 L 1965.0,3053.0 L 1964.0,3155.0 C 1964.0,3268.0 1951.0,3299.0 1895.0,3320.0 C 1879.0,3326.0 1847.0,3340.0 1825.0,3350.0 C 1709.0,3402.0 1690.0,3408.0 1690.0,3390.0" fill="pink"/>
	<path d="M 1996.0,3220.0 C 2005.0,3152.0 2005.0,3151.0 2042.0,3159.0 C 2069.0,3165.0 2075.0,3171.0 2075.0,3190.0 C 2075.0,3209.0 2069.0,3216.0 2050.0,3218.0 C 2036.0,3220.0 2017.0,3231.0 2007.0,3243.0 C 1990.0,3265.0 1990.0,3264.0 1996.0,3220.0" fill="pink"/>
	<path d="M 2784.0,3095.0 C 2787.0,3086.0 2790.0,3074.0 2790.0,3069.0 C 2790.0,3064.0 2806.0,3044.0 2826.0,3024.0 C 2860.0,2992.0 2893.0,2973.0 2949.0,2955.0 C 2970.0,2949.0 2970.0,2950.0 2958.0,2970.0 C 2951.0,2982.0 2930.0,2998.0 2912.0,3005.0 C 2883.0,3018.0 2880.0,3022.0 2890.0,3040.0 C 2900.0,3058.0 2898.0,3060.0 2871.0,3060.0 C 2848.0,3060.0 2841.0,3065.0 2838.0,3083.0 C 2836.0,3099.0 2827.0,3106.0 2806.0,3108.0 C 2783.0,3111.0 2778.0,3108.0 2784.0,3095.0" fill="pink"/>
</svg>
