<?xml version="1.0" ?>
<svg xmlns="http://www.w3.org/2000/svg" xmlns:ev="http://www.w3.org/2001/xml-events" xmlns:xlink="http://www.w3.org/1999/xlink" baseProfile="full" height="541px" version="1.1" viewBox="-1028.2384176513292 -421.3448224352989 12297.43573317962 11087.795003076382" width="600px">
	<defs/>
	<path d="M 945.0,9720.0 C 920.0,9704.0 914.0,9692.0 909.0,9648.0 C 906.0,9619.0 907.0,9591.0 911.0,9586.0 C 916.0,9580.0 920.0,9563.0 920.0,9548.0 C 920.0,9524.0 916.0,9520.0 891.0,9520.0 C 875.0,9520.0 857.0,9513.0 850.0,9505.0 C 835.0,9487.0 845.0,9440.0 865.0,9440.0 C 873.0,9440.0 900.0,9433.0 925.0,9425.0 C 967.0,9410.0 973.0,9410.0 1001.0,9427.0 C 1019.0,9438.0 1040.0,9466.0 1056.0,9500.0 C 1078.0,9546.0 1081.0,9565.0 1077.0,9615.0 C 1072.0,9668.0 1067.0,9679.0 1036.0,9707.0 C 994.0,9745.0 985.0,9747.0 945.0,9720.0" fill="pink"/>
	<path d="M 247.0,9309.0 C 238.0,9303.0 230.0,9290.0 230.0,9280.0 C 230.0,9264.0 223.0,9260.0 193.0,9260.0 C 173.0,9260.0 148.0,9268.0 138.0,9277.0 C 122.0,9291.0 116.0,9292.0 102.0,9282.0 C 93.0,9275.0 74.0,9265.0 60.0,9260.0 C 46.0,9254.0 28.0,9246.0 20.0,9241.0 C 3.0,9232.0 -6.0,9181.0 7.0,9171.0 C 11.0,9168.0 20.0,9156.0 26.0,9145.0 C 33.0,9133.0 52.0,9123.0 73.0,9119.0 C 93.0,9116.0 115.0,9109.0 122.0,9103.0 C 129.0,9097.0 159.0,9087.0 189.0,9081.0 C 242.0,9070.0 245.0,9070.0 279.0,9098.0 C 301.0,9116.0 316.0,9138.0 318.0,9154.0 C 320.0,9170.0 339.0,9199.0 361.0,9221.0 C 382.0,9242.0 400.0,9264.0 400.0,9270.0 C 400.0,9285.0 365.0,9300.0 330.0,9300.0 C 313.0,9300.0 291.0,9304.0 282.0,9309.0 C 271.0,9315.0 258.0,9315.0 247.0,9309.0" fill="pink"/>
	<path d="M 2157.0,9073.0 C 2154.0,9068.0 2149.0,9025.0 2145.0,8977.0 L 2138.0,8888.0 L 2086.0,8895.0 C 1961.0,8910.0 1962.0,8909.0 1942.0,8948.0 C 1928.0,8976.0 1917.0,8985.0 1899.0,8984.0 C 1886.0,8983.0 1869.0,8991.0 1862.0,9001.0 C 1847.0,9023.0 1806.0,9018.0 1778.0,8991.0 C 1765.0,8978.0 1763.0,8963.0 1769.0,8902.0 C 1778.0,8810.0 1799.0,8785.0 1868.0,8785.0 C 1904.0,8785.0 1915.0,8781.0 1918.0,8768.0 C 1921.0,8754.0 1915.0,8750.0 1895.0,8750.0 C 1880.0,8750.0 1855.0,8742.0 1840.0,8733.0 C 1814.0,8718.0 1807.0,8718.0 1756.0,8732.0 C 1725.0,8740.0 1698.0,8745.0 1695.0,8742.0 C 1681.0,8728.0 1691.0,8669.0 1710.0,8658.0 C 1721.0,8651.0 1730.0,8638.0 1730.0,8629.0 C 1730.0,8609.0 1750.0,8600.0 1791.0,8600.0 C 1807.0,8600.0 1820.0,8596.0 1820.0,8590.0 C 1820.0,8585.0 1809.0,8580.0 1795.0,8580.0 C 1775.0,8580.0 1770.0,8575.0 1770.0,8555.0 C 1770.0,8522.0 1735.0,8503.0 1712.0,8523.0 C 1686.0,8546.0 1613.0,8569.0 1601.0,8557.0 C 1588.0,8544.0 1627.0,8471.0 1655.0,8458.0 C 1667.0,8453.0 1690.0,8425.0 1706.0,8397.0 C 1729.0,8357.0 1744.0,8343.0 1770.0,8335.0 C 1837.0,8316.0 1848.0,8296.0 1803.0,8279.0 C 1745.0,8257.0 1712.0,8188.0 1746.0,8160.0 C 1754.0,8152.0 1766.0,8138.0 1772.0,8127.0 C 1782.0,8108.0 1780.0,8107.0 1719.0,8113.0 C 1685.0,8117.0 1649.0,8127.0 1639.0,8136.0 C 1615.0,8157.0 1606.0,8139.0 1615.0,8084.0 C 1621.0,8044.0 1619.0,8037.0 1591.0,8009.0 C 1566.0,7985.0 1562.0,7974.0 1567.0,7950.0 C 1572.0,7923.0 1570.0,7920.0 1549.0,7920.0 C 1502.0,7920.0 1495.0,7908.0 1508.0,7843.0 C 1528.0,7750.0 1529.0,7755.0 1492.0,7758.0 C 1466.0,7761.0 1446.0,7751.0 1388.0,7709.0 C 1318.0,7659.0 1316.0,7658.0 1282.0,7670.0 C 1253.0,7680.0 1246.0,7680.0 1239.0,7669.0 C 1215.0,7630.0 1215.0,7630.0 1164.0,7639.0 C 1119.0,7648.0 1113.0,7647.0 1089.0,7624.0 C 1075.0,7611.0 1061.0,7603.0 1057.0,7606.0 C 1054.0,7610.0 1034.0,7605.0 1014.0,7595.0 L 978.0,7578.0 L 983.0,7477.0 L 988.0,7376.0 L 1021.0,7353.0 C 1039.0,7340.0 1069.0,7325.0 1087.0,7319.0 C 1118.0,7309.0 1120.0,7305.0 1120.0,7265.0 C 1120.0,7218.0 1145.0,7149.0 1166.0,7137.0 C 1174.0,7133.0 1180.0,7117.0 1180.0,7101.0 C 1180.0,7082.0 1194.0,7059.0 1229.0,7024.0 C 1255.0,6997.0 1281.0,6964.0 1285.0,6950.0 C 1296.0,6912.0 1340.0,6871.0 1375.0,6864.0 L 1407.0,6858.0 L 1402.0,6789.0 C 1397.0,6713.0 1412.0,6677.0 1455.0,6660.0 C 1470.0,6654.0 1482.0,6640.0 1486.0,6623.0 C 1495.0,6579.0 1520.0,6517.0 1535.0,6500.0 C 1544.0,6490.0 1546.0,6468.0 1543.0,6432.0 C 1537.0,6380.0 1536.0,6379.0 1511.0,6385.0 C 1497.0,6389.0 1485.0,6392.0 1485.0,6393.0 C 1485.0,6394.0 1479.0,6411.0 1471.0,6430.0 C 1464.0,6449.0 1455.0,6478.0 1453.0,6493.0 C 1450.0,6509.0 1437.0,6528.0 1424.0,6537.0 C 1411.0,6545.0 1400.0,6561.0 1400.0,6571.0 C 1400.0,6581.0 1396.0,6592.0 1390.0,6595.0 C 1385.0,6598.0 1380.0,6612.0 1380.0,6625.0 C 1380.0,6639.0 1371.0,6654.0 1360.0,6660.0 C 1334.0,6674.0 1299.0,6664.0 1306.0,6645.0 C 1310.0,6637.0 1303.0,6630.0 1289.0,6628.0 C 1273.0,6626.0 1264.0,6615.0 1258.0,6592.0 C 1253.0,6574.0 1243.0,6557.0 1236.0,6554.0 C 1228.0,6551.0 1201.0,6570.0 1174.0,6596.0 L 1126.0,6642.0 L 1105.0,6615.0 C 1094.0,6600.0 1068.0,6571.0 1048.0,6551.0 C 1009.0,6514.0 1002.0,6492.0 1020.0,6474.0 C 1027.0,6467.0 1028.0,6455.0 1021.0,6438.0 C 1013.0,6417.0 1015.0,6409.0 1031.0,6394.0 C 1058.0,6369.0 1055.0,6352.0 1017.0,6330.0 L 983.0,6310.0 L 1002.0,6252.0 C 1013.0,6221.0 1038.0,6170.0 1058.0,6140.0 C 1078.0,6110.0 1105.0,6068.0 1118.0,6047.0 C 1135.0,6022.0 1155.0,6006.0 1181.0,5999.0 C 1211.0,5990.0 1217.0,5984.0 1210.0,5971.0 C 1206.0,5962.0 1195.0,5933.0 1187.0,5905.0 C 1176.0,5865.0 1171.0,5859.0 1165.0,5875.0 C 1145.0,5932.0 1122.0,5964.0 1098.0,5974.0 C 1082.0,5980.0 1070.0,5992.0 1070.0,6002.0 C 1070.0,6028.0 1049.0,6068.0 1033.0,6074.0 C 1014.0,6082.0 1000.0,6073.0 992.0,6049.0 C 985.0,6031.0 981.0,6033.0 947.0,6065.0 C 884.0,6124.0 846.0,6103.0 850.0,6012.0 C 854.0,5935.0 852.0,5930.0 824.0,5930.0 C 800.0,5930.0 798.0,5927.0 802.0,5888.0 C 805.0,5850.0 802.0,5845.0 783.0,5842.0 C 766.0,5840.0 760.0,5832.0 760.0,5815.0 C 760.0,5802.0 755.0,5790.0 749.0,5788.0 C 744.0,5786.0 738.0,5769.0 738.0,5751.0 C 737.0,5725.0 744.0,5710.0 767.0,5690.0 C 787.0,5672.0 795.0,5658.0 790.0,5649.0 C 785.0,5641.0 788.0,5621.0 795.0,5604.0 C 811.0,5566.0 852.0,5555.0 936.0,5566.0 C 981.0,5571.0 990.0,5570.0 990.0,5557.0 C 990.0,5548.0 978.0,5535.0 962.0,5528.0 C 924.0,5510.0 900.0,5436.0 924.0,5412.0 C 939.0,5397.0 945.0,5397.0 1007.0,5415.0 C 1114.0,5444.0 1146.0,5446.0 1162.0,5421.0 C 1173.0,5404.0 1185.0,5400.0 1233.0,5400.0 C 1265.0,5400.0 1307.0,5407.0 1327.0,5415.0 C 1346.0,5423.0 1370.0,5430.0 1378.0,5430.0 C 1414.0,5430.0 1353.0,5392.0 1280.0,5369.0 C 1204.0,5346.0 1162.0,5342.0 1102.0,5355.0 C 1072.0,5362.0 1070.0,5360.0 1064.0,5331.0 C 1060.0,5314.0 1051.0,5295.0 1044.0,5289.0 C 1015.0,5265.0 1028.0,5232.0 1085.0,5190.0 C 1115.0,5168.0 1144.0,5150.0 1150.0,5150.0 C 1155.0,5150.0 1160.0,5143.0 1160.0,5135.0 C 1160.0,5117.0 1249.0,5089.0 1271.0,5101.0 C 1290.0,5111.0 1300.0,5103.0 1300.0,5079.0 C 1300.0,5046.0 1378.0,5040.0 1406.0,5071.0 C 1439.0,5108.0 1507.0,5150.0 1534.0,5150.0 C 1547.0,5150.0 1571.0,5155.0 1587.0,5161.0 C 1675.0,5196.0 1726.0,5186.0 1665.0,5145.0 C 1647.0,5132.0 1622.0,5119.0 1609.0,5115.0 C 1596.0,5111.0 1565.0,5093.0 1540.0,5076.0 C 1514.0,5058.0 1473.0,5036.0 1447.0,5026.0 C 1394.0,5006.0 1386.0,4981.0 1421.0,4944.0 C 1438.0,4926.0 1449.0,4923.0 1481.0,4927.0 L 1520.0,4933.0 L 1520.0,4894.0 C 1520.0,4839.0 1510.0,4828.0 1464.0,4832.0 C 1435.0,4834.0 1422.0,4841.0 1415.0,4858.0 C 1398.0,4896.0 1340.0,4878.0 1340.0,4835.0 C 1340.0,4799.0 1313.0,4814.0 1306.0,4855.0 C 1300.0,4883.0 1289.0,4894.0 1232.0,4927.0 C 1167.0,4964.0 1162.0,4966.0 1075.0,4965.0 L 985.0,4965.0 L 988.0,4940.0 C 990.0,4926.0 993.0,4882.0 995.0,4841.0 C 1000.0,4761.0 1006.0,4748.0 1050.0,4730.0 C 1082.0,4717.0 1091.0,4684.0 1066.0,4674.0 C 1040.0,4664.0 1011.0,4690.0 993.0,4739.0 C 984.0,4765.0 966.0,4800.0 954.0,4816.0 C 933.0,4841.0 930.0,4842.0 924.0,4826.0 C 920.0,4816.0 922.0,4799.0 929.0,4788.0 C 936.0,4777.0 940.0,4767.0 938.0,4766.0 C 936.0,4765.0 923.0,4759.0 908.0,4752.0 C 883.0,4742.0 880.0,4735.0 880.0,4691.0 C 880.0,4664.0 884.0,4639.0 890.0,4635.0 C 895.0,4632.0 899.0,4617.0 900.0,4602.0 C 901.0,4534.0 913.0,4454.0 924.0,4448.0 C 930.0,4444.0 948.0,4440.0 964.0,4440.0 C 991.0,4440.0 992.0,4438.0 986.0,4409.0 C 983.0,4391.0 985.0,4371.0 991.0,4364.0 C 1004.0,4348.0 1040.0,4345.0 1040.0,4360.0 C 1040.0,4366.0 1046.0,4370.0 1054.0,4370.0 C 1062.0,4370.0 1086.0,4337.0 1107.0,4298.0 C 1132.0,4251.0 1156.0,4220.0 1174.0,4212.0 C 1208.0,4195.0 1212.0,4199.0 1219.0,4253.0 C 1224.0,4290.0 1228.0,4295.0 1252.0,4298.0 C 1278.0,4301.0 1350.0,4274.0 1350.0,4261.0 C 1350.0,4258.0 1321.0,4242.0 1285.0,4225.0 C 1249.0,4209.0 1221.0,4191.0 1223.0,4186.0 C 1225.0,4181.0 1245.0,4170.0 1268.0,4161.0 C 1308.0,4147.0 1310.0,4147.0 1335.0,4170.0 L 1360.0,4193.0 L 1360.0,4167.0 C 1360.0,4135.0 1353.0,4130.0 1282.0,4120.0 C 1196.0,4108.0 1173.0,4095.0 1155.0,4054.0 C 1141.0,4020.0 1141.0,4015.0 1156.0,3999.0 C 1167.0,3987.0 1170.0,3972.0 1166.0,3956.0 C 1161.0,3935.0 1167.0,3926.0 1206.0,3899.0 C 1245.0,3873.0 1256.0,3869.0 1271.0,3879.0 C 1297.0,3894.0 1297.0,3894.0 1304.0,3858.0 C 1317.0,3787.0 1415.0,3748.0 1510.0,3776.0 C 1571.0,3794.0 1590.0,3813.0 1590.0,3853.0 C 1590.0,3870.0 1600.0,3908.0 1611.0,3936.0 C 1628.0,3976.0 1639.0,3989.0 1659.0,3993.0 C 1673.0,3996.0 1697.0,4002.0 1712.0,4006.0 C 1736.0,4011.0 1741.0,4008.0 1750.0,3985.0 C 1764.0,3948.0 1756.0,3928.0 1719.0,3906.0 C 1670.0,3877.0 1650.0,3853.0 1650.0,3821.0 C 1650.0,3784.0 1665.0,3772.0 1720.0,3768.0 L 1765.0,3764.0 L 1735.0,3751.0 C 1704.0,3738.0 1629.0,3722.0 1549.0,3713.0 C 1522.0,3710.0 1482.0,3714.0 1454.0,3723.0 C 1411.0,3736.0 1400.0,3736.0 1379.0,3724.0 C 1366.0,3717.0 1345.0,3711.0 1333.0,3710.0 C 1320.0,3710.0 1309.0,3702.0 1305.0,3689.0 C 1301.0,3678.0 1280.0,3661.0 1255.0,3650.0 C 1198.0,3626.0 1166.0,3574.0 1175.0,3522.0 C 1180.0,3491.0 1177.0,3481.0 1161.0,3465.0 C 1127.0,3435.0 1134.0,3395.0 1186.0,3329.0 C 1227.0,3278.0 1237.0,3270.0 1266.0,3270.0 C 1295.0,3270.0 1300.0,3273.0 1300.0,3294.0 C 1300.0,3311.0 1314.0,3328.0 1348.0,3353.0 C 1374.0,3372.0 1416.0,3404.0 1442.0,3425.0 C 1495.0,3467.0 1523.0,3468.0 1528.0,3428.0 C 1532.0,3394.0 1498.0,3370.0 1445.0,3370.0 C 1415.0,3370.0 1398.0,3364.0 1383.0,3348.0 C 1356.0,3318.0 1345.0,3257.0 1362.0,3231.0 C 1372.0,3215.0 1372.0,3208.0 1362.0,3198.0 C 1340.0,3176.0 1349.0,3160.0 1384.0,3160.0 C 1405.0,3160.0 1429.0,3151.0 1447.0,3136.0 C 1477.0,3111.0 1514.0,3090.0 1527.0,3090.0 C 1531.0,3090.0 1551.0,3119.0 1570.0,3155.0 C 1589.0,3191.0 1608.0,3220.0 1613.0,3220.0 C 1629.0,3220.0 1618.0,3177.0 1589.0,3130.0 C 1559.0,3081.0 1558.0,3077.0 1570.0,3034.0 C 1577.0,3010.0 1588.0,2986.0 1595.0,2982.0 C 1618.0,2969.0 1617.0,2936.0 1593.0,2903.0 C 1574.0,2877.0 1571.0,2866.0 1580.0,2850.0 C 1586.0,2839.0 1599.0,2830.0 1609.0,2830.0 C 1632.0,2830.0 1639.0,2813.0 1631.0,2781.0 C 1626.0,2763.0 1609.0,2752.0 1557.0,2732.0 C 1503.0,2712.0 1481.0,2697.0 1448.0,2659.0 C 1426.0,2632.0 1392.0,2601.0 1374.0,2590.0 C 1355.0,2580.0 1340.0,2564.0 1340.0,2555.0 C 1340.0,2547.0 1332.0,2540.0 1323.0,2540.0 C 1313.0,2540.0 1284.0,2533.0 1258.0,2523.0 C 1217.0,2509.0 1213.0,2505.0 1223.0,2489.0 C 1232.0,2475.0 1231.0,2464.0 1219.0,2443.0 C 1186.0,2383.0 1220.0,2350.0 1315.0,2350.0 C 1371.0,2350.0 1382.0,2342.0 1356.0,2320.0 C 1348.0,2314.0 1340.0,2299.0 1338.0,2287.0 C 1336.0,2273.0 1327.0,2264.0 1312.0,2262.0 C 1300.0,2260.0 1283.0,2248.0 1274.0,2235.0 C 1260.0,2214.0 1260.0,2209.0 1275.0,2180.0 C 1284.0,2163.0 1298.0,2146.0 1306.0,2143.0 C 1327.0,2135.0 1323.0,2110.0 1295.0,2084.0 C 1281.0,2071.0 1270.0,2051.0 1270.0,2040.0 C 1270.0,2023.0 1266.0,2020.0 1250.0,2025.0 C 1225.0,2033.0 1199.0,2014.0 1207.0,1994.0 C 1210.0,1986.0 1207.0,1966.0 1200.0,1950.0 C 1190.0,1926.0 1190.0,1917.0 1200.0,1905.0 C 1215.0,1886.0 1214.0,1885.0 1159.0,1857.0 C 1116.0,1836.0 1115.0,1833.0 1110.0,1780.0 C 1106.0,1735.0 1096.0,1713.0 1060.0,1661.0 C 1035.0,1626.0 1003.0,1584.0 988.0,1567.0 C 972.0,1551.0 960.0,1533.0 960.0,1526.0 C 960.0,1515.0 993.0,1422.0 1010.0,1385.0 C 1015.0,1374.0 1020.0,1354.0 1022.0,1340.0 C 1024.0,1323.0 1031.0,1315.0 1042.0,1316.0 C 1054.0,1317.0 1063.0,1306.0 1070.0,1281.0 C 1085.0,1227.0 1082.0,1211.0 1056.0,1187.0 C 1043.0,1175.0 1025.0,1150.0 1016.0,1133.0 C 998.0,1098.0 989.0,1094.0 960.0,1110.0 C 935.0,1123.0 894.0,1089.0 884.0,1047.0 C 881.0,1030.0 871.0,1006.0 864.0,995.0 C 841.0,962.0 848.0,945.0 906.0,890.0 C 953.0,846.0 965.0,839.0 990.0,843.0 C 1015.0,848.0 1017.0,847.0 1013.0,827.0 C 1010.0,815.0 1002.0,800.0 996.0,795.0 C 990.0,789.0 977.0,771.0 968.0,754.0 L 950.0,722.0 L 990.0,695.0 C 1022.0,673.0 1028.0,664.0 1020.0,650.0 C 1012.0,635.0 1017.0,628.0 1045.0,611.0 C 1084.0,588.0 1088.0,576.0 1063.0,561.0 C 1025.0,539.0 1020.0,533.0 1025.0,518.0 C 1030.0,505.0 1038.0,504.0 1068.0,512.0 C 1126.0,526.0 1199.0,530.0 1205.0,520.0 C 1219.0,497.0 1266.0,512.0 1323.0,558.0 C 1339.0,570.0 1358.0,580.0 1366.0,580.0 C 1374.0,580.0 1390.0,590.0 1401.0,601.0 C 1420.0,620.0 1429.0,622.0 1492.0,616.0 C 1540.0,611.0 1572.0,601.0 1597.0,584.0 C 1617.0,571.0 1642.0,560.0 1654.0,560.0 C 1666.0,560.0 1688.0,553.0 1704.0,545.0 C 1719.0,537.0 1739.0,530.0 1747.0,530.0 C 1771.0,530.0 1837.0,588.0 1844.0,615.0 C 1849.0,633.0 1857.0,640.0 1876.0,640.0 C 1889.0,640.0 1903.0,633.0 1906.0,625.0 C 1910.0,615.0 1927.0,611.0 1963.0,611.0 C 1992.0,611.0 2041.0,610.0 2074.0,608.0 C 2127.0,605.0 2136.0,608.0 2168.0,636.0 C 2198.0,662.0 2208.0,665.0 2223.0,656.0 C 2244.0,643.0 2261.0,662.0 2257.0,695.0 C 2255.0,713.0 2262.0,715.0 2329.0,718.0 C 2395.0,721.0 2407.0,724.0 2437.0,750.0 C 2456.0,767.0 2476.0,780.0 2482.0,780.0 C 2489.0,780.0 2507.0,792.0 2522.0,807.0 C 2538.0,822.0 2577.0,844.0 2608.0,855.0 L 2665.0,875.0 L 2662.0,956.0 C 2659.0,1006.0 2663.0,1046.0 2670.0,1060.0 C 2680.0,1079.0 2678.0,1085.0 2659.0,1103.0 L 2637.0,1124.0 L 2662.0,1132.0 C 2681.0,1139.0 2687.0,1146.0 2683.0,1161.0 C 2680.0,1171.0 2683.0,1193.0 2689.0,1208.0 C 2703.0,1240.0 2686.0,1293.0 2651.0,1324.0 C 2640.0,1334.0 2628.0,1356.0 2625.0,1372.0 C 2621.0,1390.0 2610.0,1404.0 2599.0,1407.0 C 2587.0,1410.0 2580.0,1421.0 2580.0,1435.0 C 2580.0,1447.0 2571.0,1469.0 2560.0,1483.0 C 2549.0,1497.0 2540.0,1517.0 2540.0,1527.0 C 2540.0,1537.0 2531.0,1562.0 2520.0,1583.0 C 2498.0,1624.0 2498.0,1629.0 2504.0,1739.0 C 2507.0,1780.0 2506.0,1819.0 2502.0,1824.0 C 2498.0,1830.0 2497.0,1860.0 2499.0,1891.0 C 2500.0,1924.0 2497.0,1951.0 2491.0,1954.0 C 2478.0,1963.0 2488.0,2020.0 2507.0,2042.0 C 2527.0,2065.0 2557.0,2071.0 2571.0,2054.0 C 2577.0,2046.0 2596.0,2040.0 2612.0,2040.0 C 2643.0,2040.0 2660.0,2016.0 2641.0,1997.0 C 2635.0,1991.0 2630.0,1978.0 2630.0,1969.0 C 2630.0,1960.0 2623.0,1946.0 2614.0,1939.0 C 2603.0,1930.0 2600.0,1916.0 2603.0,1893.0 C 2606.0,1875.0 2604.0,1846.0 2598.0,1829.0 C 2590.0,1805.0 2591.0,1791.0 2605.0,1760.0 C 2616.0,1735.0 2620.0,1710.0 2616.0,1688.0 C 2613.0,1669.0 2616.0,1638.0 2625.0,1615.0 C 2633.0,1593.0 2639.0,1561.0 2640.0,1544.0 C 2640.0,1518.0 2646.0,1510.0 2679.0,1495.0 C 2701.0,1486.0 2722.0,1480.0 2727.0,1483.0 C 2731.0,1485.0 2745.0,1484.0 2758.0,1479.0 C 2776.0,1472.0 2780.0,1465.0 2775.0,1449.0 C 2770.0,1433.0 2775.0,1422.0 2793.0,1406.0 L 2819.0,1385.0 L 2795.0,1330.0 C 2765.0,1261.0 2765.0,1256.0 2794.0,1242.0 C 2816.0,1232.0 2826.0,1236.0 2875.0,1268.0 C 2940.0,1311.0 2951.0,1337.0 2920.0,1377.0 C 2899.0,1404.0 2899.0,1404.0 2918.0,1420.0 C 2947.0,1442.0 2954.0,1477.0 2937.0,1504.0 L 2922.0,1526.0 L 2980.0,1524.0 C 3035.0,1521.0 3038.0,1522.0 3045.0,1548.0 C 3049.0,1566.0 3047.0,1578.0 3036.0,1586.0 C 3022.0,1596.0 3029.0,1601.0 3080.0,1620.0 C 3126.0,1637.0 3139.0,1647.0 3136.0,1659.0 C 3133.0,1668.0 3128.0,1687.0 3125.0,1702.0 C 3119.0,1724.0 3112.0,1729.0 3077.0,1732.0 C 3051.0,1735.0 3029.0,1732.0 3020.0,1724.0 C 3012.0,1717.0 2984.0,1706.0 2959.0,1700.0 C 2916.0,1689.0 2908.0,1690.0 2861.0,1714.0 C 2815.0,1738.0 2810.0,1744.0 2810.0,1774.0 C 2810.0,1793.0 2817.0,1813.0 2826.0,1821.0 C 2840.0,1832.0 2844.0,1831.0 2856.0,1815.0 C 2864.0,1805.0 2870.0,1790.0 2870.0,1783.0 C 2870.0,1758.0 2917.0,1749.0 2957.0,1765.0 C 2976.0,1773.0 3003.0,1780.0 3015.0,1780.0 C 3049.0,1780.0 3074.0,1845.0 3053.0,1877.0 C 3041.0,1895.0 3040.0,1905.0 3051.0,1935.0 C 3063.0,1966.0 3062.0,1975.0 3045.0,2008.0 C 3022.0,2051.0 2999.0,2072.0 2949.0,2098.0 C 2929.0,2108.0 2892.0,2140.0 2865.0,2170.0 C 2823.0,2217.0 2820.0,2224.0 2836.0,2233.0 C 2850.0,2241.0 2857.0,2237.0 2872.0,2216.0 C 2883.0,2202.0 2898.0,2190.0 2905.0,2190.0 C 2913.0,2190.0 2920.0,2181.0 2922.0,2169.0 C 2924.0,2158.0 2937.0,2141.0 2952.0,2132.0 C 2977.0,2117.0 2980.0,2117.0 2999.0,2135.0 C 3020.0,2153.0 3020.0,2153.0 3020.0,2133.0 C 3020.0,2111.0 3051.0,2079.0 3097.0,2056.0 C 3129.0,2040.0 3137.0,2025.0 3164.0,1918.0 C 3173.0,1882.0 3176.0,1850.0 3171.0,1833.0 C 3159.0,1793.0 3175.0,1757.0 3199.0,1765.0 C 3210.0,1768.0 3233.0,1764.0 3249.0,1756.0 C 3266.0,1747.0 3289.0,1740.0 3300.0,1740.0 C 3320.0,1740.0 3321.0,1744.0 3317.0,1802.0 C 3308.0,1902.0 3299.0,1941.0 3281.0,1948.0 C 3258.0,1957.0 3230.0,1993.0 3235.0,2007.0 C 3237.0,2013.0 3232.0,2024.0 3224.0,2030.0 C 3204.0,2048.0 3207.0,2070.0 3230.0,2070.0 C 3253.0,2070.0 3255.0,2085.0 3238.0,2140.0 C 3224.0,2182.0 3202.0,2192.0 3180.0,2165.0 C 3158.0,2139.0 3080.0,2151.0 3058.0,2184.0 C 3054.0,2190.0 3050.0,2205.0 3050.0,2217.0 C 3050.0,2230.0 3033.0,2253.0 3005.0,2276.0 C 2956.0,2316.0 2949.0,2330.0 2980.0,2330.0 C 3006.0,2330.0 3090.0,2245.0 3090.0,2219.0 C 3090.0,2207.0 3099.0,2198.0 3116.0,2194.0 C 3147.0,2186.0 3160.0,2201.0 3160.0,2247.0 C 3160.0,2264.0 3164.0,2281.0 3169.0,2284.0 C 3184.0,2294.0 3188.0,2339.0 3174.0,2351.0 C 3166.0,2357.0 3160.0,2370.0 3160.0,2380.0 C 3160.0,2404.0 3112.0,2420.0 3038.0,2420.0 C 2988.0,2420.0 2969.0,2426.0 2915.0,2457.0 C 2874.0,2480.0 2845.0,2505.0 2833.0,2527.0 C 2815.0,2561.0 2793.0,2568.0 2759.0,2550.0 C 2740.0,2539.0 2734.0,2546.0 2748.0,2566.0 C 2760.0,2584.0 2798.0,2600.0 2814.0,2594.0 C 2822.0,2591.0 2838.0,2572.0 2850.0,2553.0 C 2863.0,2531.0 2885.0,2513.0 2910.0,2503.0 C 2932.0,2494.0 2952.0,2479.0 2955.0,2469.0 C 2961.0,2452.0 2973.0,2450.0 3057.0,2450.0 C 3137.0,2450.0 3156.0,2453.0 3177.0,2470.0 C 3211.0,2496.0 3238.0,2495.0 3299.0,2465.0 C 3359.0,2434.0 3365.0,2419.0 3381.0,2255.0 C 3393.0,2139.0 3432.0,2016.0 3471.0,1974.0 C 3483.0,1961.0 3490.0,1939.0 3490.0,1913.0 C 3490.0,1870.0 3507.0,1810.0 3519.0,1810.0 C 3524.0,1810.0 3543.0,1794.0 3563.0,1775.0 C 3608.0,1731.0 3656.0,1725.0 3646.0,1764.0 C 3642.0,1782.0 3647.0,1796.0 3666.0,1817.0 L 3691.0,1845.0 L 3711.0,1820.0 C 3722.0,1806.0 3733.0,1783.0 3736.0,1768.0 C 3744.0,1735.0 3764.0,1716.0 3784.0,1723.0 C 3794.0,1727.0 3797.0,1745.0 3795.0,1792.0 C 3792.0,1864.0 3777.0,1910.0 3756.0,1910.0 C 3748.0,1910.0 3739.0,1923.0 3735.0,1940.0 C 3731.0,1960.0 3722.0,1970.0 3710.0,1970.0 C 3687.0,1970.0 3678.0,2006.0 3697.0,2022.0 C 3712.0,2034.0 3712.0,2047.0 3690.0,2147.0 C 3681.0,2193.0 3682.0,2203.0 3700.0,2237.0 C 3711.0,2258.0 3720.0,2287.0 3720.0,2302.0 C 3720.0,2317.0 3724.0,2331.0 3729.0,2334.0 C 3753.0,2349.0 3746.0,2494.0 3720.0,2510.0 C 3701.0,2522.0 3660.0,2624.0 3672.0,2631.0 C 3699.0,2648.0 3779.0,2583.0 3807.0,2521.0 C 3822.0,2490.0 3814.0,2392.0 3795.0,2370.0 C 3788.0,2362.0 3771.0,2334.0 3757.0,2308.0 C 3715.0,2229.0 3707.0,2009.0 3746.0,2024.0 C 3756.0,2028.0 3760.0,2022.0 3760.0,2006.0 C 3760.0,1993.0 3767.0,1977.0 3775.0,1970.0 C 3783.0,1963.0 3790.0,1951.0 3790.0,1943.0 C 3790.0,1907.0 3821.0,1871.0 3862.0,1860.0 C 3885.0,1853.0 3914.0,1841.0 3927.0,1833.0 C 3939.0,1825.0 3975.0,1817.0 4006.0,1816.0 C 4056.0,1815.0 4065.0,1811.0 4086.0,1785.0 C 4099.0,1768.0 4110.0,1749.0 4110.0,1741.0 C 4110.0,1734.0 4124.0,1712.0 4140.0,1693.0 C 4160.0,1671.0 4170.0,1648.0 4170.0,1627.0 C 4170.0,1589.0 4177.0,1577.0 4208.0,1561.0 C 4220.0,1555.0 4230.0,1543.0 4230.0,1535.0 C 4230.0,1527.0 4246.0,1502.0 4266.0,1481.0 C 4288.0,1456.0 4303.0,1427.0 4307.0,1403.0 C 4310.0,1382.0 4321.0,1356.0 4331.0,1345.0 C 4341.0,1334.0 4358.0,1315.0 4369.0,1303.0 C 4381.0,1290.0 4407.0,1277.0 4430.0,1274.0 C 4452.0,1270.0 4470.0,1264.0 4470.0,1259.0 C 4470.0,1254.0 4479.0,1250.0 4489.0,1250.0 C 4500.0,1250.0 4512.0,1245.0 4515.0,1240.0 C 4518.0,1234.0 4553.0,1230.0 4591.0,1230.0 C 4630.0,1230.0 4676.0,1223.0 4696.0,1215.0 C 4724.0,1203.0 4741.0,1203.0 4783.0,1211.0 C 4812.0,1217.0 4840.0,1227.0 4847.0,1232.0 C 4854.0,1238.0 4866.0,1237.0 4879.0,1231.0 C 4897.0,1221.0 5012.0,1217.0 5095.0,1223.0 C 5112.0,1224.0 5136.0,1233.0 5150.0,1242.0 C 5189.0,1268.0 5230.0,1276.0 5230.0,1256.0 C 5230.0,1246.0 5255.0,1227.0 5296.0,1207.0 L 5362.0,1175.0 L 5358.0,1121.0 C 5356.0,1081.0 5359.0,1066.0 5370.0,1060.0 C 5378.0,1057.0 5404.0,1044.0 5427.0,1032.0 C 5450.0,1020.0 5480.0,1010.0 5493.0,1010.0 C 5506.0,1010.0 5563.0,1037.0 5619.0,1071.0 C 5698.0,1118.0 5721.0,1137.0 5726.0,1158.0 C 5729.0,1173.0 5741.0,1208.0 5753.0,1235.0 C 5768.0,1272.0 5773.0,1305.0 5772.0,1359.0 C 5771.0,1419.0 5775.0,1438.0 5791.0,1458.0 C 5810.0,1483.0 5810.0,1483.0 5790.0,1505.0 C 5779.0,1517.0 5772.0,1534.0 5775.0,1542.0 C 5778.0,1550.0 5774.0,1563.0 5765.0,1570.0 C 5743.0,1589.0 5747.0,1617.0 5775.0,1636.0 C 5806.0,1656.0 5806.0,1673.0 5775.0,1732.0 C 5755.0,1770.0 5751.0,1787.0 5756.0,1823.0 C 5762.0,1867.0 5761.0,1869.0 5710.0,1918.0 C 5665.0,1962.0 5658.0,1973.0 5662.0,1999.0 C 5666.0,2024.0 5662.0,2031.0 5639.0,2040.0 C 5624.0,2047.0 5609.0,2058.0 5607.0,2065.0 C 5604.0,2072.0 5589.0,2081.0 5573.0,2084.0 C 5540.0,2093.0 5461.0,2142.0 5435.0,2170.0 C 5420.0,2187.0 5419.0,2197.0 5427.0,2240.0 C 5436.0,2285.0 5435.0,2290.0 5419.0,2290.0 C 5397.0,2290.0 5385.0,2337.0 5399.0,2373.0 C 5405.0,2388.0 5416.0,2400.0 5425.0,2400.0 C 5442.0,2400.0 5480.0,2344.0 5480.0,2320.0 C 5480.0,2289.0 5516.0,2220.0 5535.0,2214.0 C 5586.0,2198.0 5638.0,2155.0 5649.0,2120.0 C 5655.0,2099.0 5671.0,2071.0 5684.0,2057.0 C 5714.0,2025.0 5760.0,2020.0 5760.0,2048.0 C 5760.0,2059.0 5769.0,2075.0 5780.0,2085.0 C 5804.0,2107.0 5807.0,2193.0 5786.0,2254.0 C 5773.0,2291.0 5737.0,2329.0 5714.0,2330.0 C 5709.0,2330.0 5691.0,2343.0 5676.0,2358.0 C 5655.0,2381.0 5650.0,2395.0 5652.0,2424.0 C 5654.0,2457.0 5649.0,2466.0 5615.0,2495.0 C 5585.0,2520.0 5578.0,2531.0 5586.0,2540.0 C 5606.0,2560.0 5653.0,2526.0 5683.0,2471.0 C 5710.0,2422.0 5761.0,2370.0 5783.0,2370.0 C 5790.0,2370.0 5815.0,2349.0 5839.0,2324.0 C 5877.0,2284.0 5885.0,2281.0 5893.0,2295.0 C 5900.0,2308.0 5892.0,2322.0 5856.0,2359.0 C 5797.0,2419.0 5796.0,2435.0 5855.0,2381.0 C 5879.0,2359.0 5906.0,2340.0 5914.0,2340.0 C 5948.0,2340.0 5980.0,2317.0 5980.0,2292.0 C 5980.0,2260.0 6047.0,2152.0 6072.0,2144.0 C 6083.0,2141.0 6107.0,2125.0 6126.0,2108.0 C 6169.0,2070.0 6173.0,2023.0 6136.0,1987.0 C 6122.0,1973.0 6106.0,1944.0 6100.0,1922.0 C 6089.0,1888.0 6090.0,1874.0 6109.0,1821.0 C 6120.0,1787.0 6130.0,1735.0 6130.0,1704.0 C 6130.0,1674.0 6137.0,1636.0 6146.0,1619.0 C 6154.0,1602.0 6164.0,1566.0 6167.0,1537.0 C 6172.0,1486.0 6208.0,1390.0 6222.0,1390.0 C 6235.0,1390.0 6270.0,1322.0 6270.0,1298.0 C 6270.0,1265.0 6299.0,1240.0 6337.0,1240.0 C 6354.0,1240.0 6378.0,1232.0 6391.0,1221.0 C 6413.0,1203.0 6413.0,1201.0 6400.0,1147.0 C 6387.0,1092.0 6387.0,1090.0 6415.0,1051.0 C 6430.0,1029.0 6451.0,1008.0 6461.0,1005.0 C 6489.0,996.0 6504.0,962.0 6489.0,944.0 C 6458.0,906.0 6536.0,844.0 6605.0,852.0 C 6624.0,854.0 6640.0,852.0 6640.0,846.0 C 6640.0,841.0 6650.0,826.0 6662.0,813.0 C 6678.0,796.0 6680.0,790.0 6669.0,790.0 C 6646.0,790.0 6596.0,734.0 6603.0,715.0 C 6609.0,701.0 6613.0,701.0 6643.0,714.0 C 6666.0,723.0 6699.0,726.0 6748.0,722.0 L 6820.0,717.0 L 6820.0,746.0 C 6820.0,786.0 6830.0,797.0 6879.0,815.0 C 6932.0,833.0 7072.0,835.0 7100.0,818.0 C 7115.0,808.0 7126.0,808.0 7152.0,818.0 C 7179.0,828.0 7186.0,827.0 7193.0,815.0 C 7197.0,807.0 7208.0,800.0 7216.0,800.0 C 7234.0,800.0 7290.0,744.0 7290.0,726.0 C 7290.0,690.0 7387.0,661.0 7415.0,689.0 C 7421.0,695.0 7449.0,696.0 7480.0,692.0 C 7527.0,686.0 7537.0,681.0 7548.0,657.0 C 7555.0,642.0 7566.0,630.0 7572.0,630.0 C 7595.0,630.0 7650.0,597.0 7655.0,579.0 C 7665.0,550.0 7731.0,519.0 7755.0,533.0 C 7766.0,538.0 7778.0,549.0 7782.0,555.0 C 7786.0,562.0 7811.0,571.0 7836.0,575.0 C 7869.0,580.0 7884.0,587.0 7887.0,600.0 C 7890.0,611.0 7900.0,622.0 7909.0,625.0 C 7918.0,628.0 7943.0,645.0 7964.0,664.0 C 8001.0,694.0 8005.0,702.0 8011.0,761.0 C 8014.0,796.0 8013.0,829.0 8009.0,834.0 C 8004.0,840.0 8000.0,848.0 8000.0,852.0 C 8000.0,868.0 8022.0,859.0 8056.0,827.0 C 8075.0,810.0 8104.0,788.0 8120.0,779.0 C 8149.0,763.0 8150.0,763.0 8190.0,801.0 C 8225.0,834.0 8237.0,840.0 8276.0,840.0 C 8308.0,840.0 8332.0,847.0 8358.0,865.0 C 8378.0,879.0 8404.0,890.0 8415.0,890.0 C 8433.0,890.0 8435.0,885.0 8432.0,845.0 C 8429.0,814.0 8432.0,800.0 8440.0,800.0 C 8454.0,800.0 8540.0,867.0 8553.0,887.0 C 8557.0,894.0 8567.0,900.0 8575.0,900.0 C 8604.0,900.0 8633.0,1053.0 8614.0,1104.0 C 8611.0,1113.0 8599.0,1120.0 8589.0,1120.0 C 8579.0,1120.0 8570.0,1125.0 8570.0,1131.0 C 8570.0,1137.0 8560.0,1155.0 8548.0,1170.0 C 8535.0,1185.0 8512.0,1214.0 8496.0,1234.0 C 8478.0,1256.0 8451.0,1275.0 8429.0,1282.0 C 8404.0,1289.0 8390.0,1300.0 8386.0,1314.0 C 8382.0,1330.0 8366.0,1339.0 8321.0,1352.0 C 8263.0,1367.0 8260.0,1367.0 8213.0,1345.0 C 8166.0,1324.0 8068.0,1306.0 8056.0,1317.0 C 8046.0,1328.0 8069.0,1356.0 8111.0,1386.0 C 8143.0,1408.0 8170.0,1417.0 8219.0,1422.0 C 8255.0,1425.0 8306.0,1432.0 8332.0,1435.0 C 8369.0,1441.0 8385.0,1439.0 8406.0,1425.0 C 8424.0,1413.0 8442.0,1410.0 8465.0,1414.0 C 8519.0,1424.0 8631.0,1400.0 8657.0,1373.0 C 8669.0,1360.0 8690.0,1350.0 8704.0,1350.0 C 8730.0,1350.0 8781.0,1367.0 8790.0,1378.0 C 8793.0,1382.0 8804.0,1390.0 8815.0,1396.0 C 8828.0,1403.0 8839.0,1425.0 8845.0,1456.0 C 8859.0,1519.0 8886.0,1580.0 8900.0,1580.0 C 8919.0,1580.0 8949.0,1623.0 8950.0,1651.0 C 8950.0,1705.0 8963.0,1743.0 8982.0,1748.0 C 8998.0,1752.0 9000.0,1759.0 8994.0,1804.0 C 8986.0,1872.0 8972.0,1908.0 8949.0,1915.0 C 8939.0,1919.0 8930.0,1928.0 8930.0,1936.0 C 8930.0,1969.0 8834.0,2019.0 8718.0,2044.0 C 8702.0,2048.0 8686.0,2061.0 8678.0,2078.0 C 8665.0,2104.0 8661.0,2105.0 8595.0,2105.0 C 8538.0,2105.0 8516.0,2110.0 8475.0,2133.0 C 8437.0,2153.0 8411.0,2160.0 8369.0,2160.0 C 8322.0,2160.0 8310.0,2164.0 8289.0,2186.0 C 8238.0,2242.0 8173.0,2272.0 8032.0,2305.0 L 7979.0,2318.0 L 7927.0,2273.0 C 7874.0,2228.0 7868.0,2225.0 7788.0,2215.0 C 7757.0,2211.0 7737.0,2203.0 7730.0,2191.0 C 7724.0,2179.0 7704.0,2171.0 7675.0,2167.0 C 7650.0,2163.0 7610.0,2149.0 7587.0,2136.0 C 7564.0,2122.0 7523.0,2106.0 7497.0,2099.0 C 7444.0,2086.0 7398.0,2041.0 7379.0,1983.0 C 7369.0,1953.0 7371.0,1946.0 7403.0,1902.0 C 7430.0,1865.0 7439.0,1841.0 7445.0,1792.0 C 7453.0,1722.0 7480.0,1690.0 7532.0,1690.0 C 7547.0,1690.0 7596.0,1672.0 7640.0,1650.0 C 7684.0,1628.0 7726.0,1610.0 7735.0,1610.0 C 7743.0,1610.0 7758.0,1593.0 7769.0,1572.0 C 7789.0,1534.0 7871.0,1450.0 7890.0,1450.0 C 7895.0,1450.0 7902.0,1439.0 7906.0,1425.0 C 7910.0,1408.0 7924.0,1394.0 7946.0,1385.0 C 7965.0,1377.0 7984.0,1361.0 7989.0,1348.0 C 7996.0,1329.0 7993.0,1323.0 7972.0,1311.0 C 7950.0,1299.0 7943.0,1300.0 7916.0,1316.0 C 7849.0,1355.0 7793.0,1403.0 7750.0,1458.0 C 7699.0,1522.0 7647.0,1552.0 7557.0,1572.0 C 7511.0,1582.0 7495.0,1590.0 7482.0,1612.0 C 7473.0,1627.0 7458.0,1640.0 7448.0,1640.0 C 7438.0,1640.0 7424.0,1654.0 7415.0,1670.0 C 7396.0,1706.0 7393.0,1707.0 7350.0,1675.0 C 7321.0,1654.0 7305.0,1650.0 7240.0,1650.0 C 7190.0,1650.0 7157.0,1645.0 7143.0,1635.0 C 7126.0,1623.0 7116.0,1623.0 7079.0,1633.0 C 7042.0,1644.0 7033.0,1653.0 7003.0,1707.0 C 6958.0,1789.0 6889.0,1845.0 6812.0,1860.0 C 6781.0,1867.0 6728.0,1887.0 6695.0,1905.0 C 6629.0,1942.0 6608.0,1947.0 6568.0,1936.0 C 6546.0,1930.0 6527.0,1936.0 6473.0,1966.0 C 6407.0,2004.0 6402.0,2005.0 6318.0,2002.0 C 6264.0,2001.0 6230.0,2004.0 6230.0,2010.0 C 6230.0,2015.0 6239.0,2020.0 6250.0,2020.0 C 6260.0,2020.0 6279.0,2024.0 6292.0,2029.0 C 6305.0,2034.0 6323.0,2041.0 6333.0,2044.0 C 6350.0,2050.0 6349.0,2053.0 6321.0,2085.0 C 6304.0,2105.0 6290.0,2126.0 6290.0,2132.0 C 6290.0,2138.0 6281.0,2140.0 6269.0,2137.0 C 6229.0,2126.0 6218.0,2141.0 6252.0,2160.0 C 6277.0,2173.0 6286.0,2185.0 6288.0,2208.0 C 6291.0,2236.0 6289.0,2238.0 6248.0,2245.0 C 6224.0,2249.0 6194.0,2258.0 6180.0,2265.0 C 6156.0,2278.0 6156.0,2278.0 6195.0,2278.0 C 6283.0,2278.0 6328.0,2302.0 6301.0,2334.0 C 6294.0,2342.0 6292.0,2363.0 6296.0,2386.0 C 6302.0,2428.0 6306.0,2424.0 6223.0,2464.0 C 6205.0,2472.0 6190.0,2484.0 6190.0,2489.0 C 6190.0,2495.0 6190.0,2503.0 6190.0,2508.0 C 6190.0,2512.0 6198.0,2516.0 6208.0,2516.0 C 6217.0,2517.0 6231.0,2518.0 6238.0,2519.0 C 6256.0,2520.0 6253.0,2567.0 6234.0,2578.0 C 6225.0,2583.0 6209.0,2585.0 6198.0,2582.0 C 6186.0,2579.0 6172.0,2587.0 6159.0,2605.0 C 6145.0,2622.0 6131.0,2630.0 6119.0,2627.0 C 6109.0,2624.0 6096.0,2628.0 6090.0,2636.0 C 6083.0,2643.0 6054.0,2656.0 6024.0,2665.0 C 5994.0,2673.0 5970.0,2682.0 5970.0,2685.0 C 5970.0,2687.0 5986.0,2694.0 6006.0,2700.0 C 6036.0,2710.0 6044.0,2709.0 6059.0,2696.0 C 6108.0,2652.0 6073.0,2779.0 6016.0,2854.0 C 5994.0,2883.0 5982.0,2890.0 5954.0,2890.0 C 5935.0,2890.0 5902.0,2899.0 5881.0,2910.0 C 5844.0,2928.0 5800.0,2973.0 5800.0,2991.0 C 5800.0,2995.0 5771.0,3029.0 5736.0,3066.0 C 5678.0,3126.0 5670.0,3132.0 5644.0,3126.0 C 5556.0,3104.0 5554.0,3104.0 5497.0,3161.0 C 5416.0,3243.0 5364.0,3287.0 5341.0,3295.0 C 5315.0,3303.0 5314.0,3320.0 5339.0,3320.0 C 5370.0,3320.0 5424.0,3293.0 5453.0,3263.0 C 5548.0,3163.0 5552.0,3160.0 5581.0,3160.0 C 5598.0,3160.0 5620.0,3165.0 5631.0,3171.0 C 5647.0,3179.0 5656.0,3178.0 5669.0,3166.0 C 5679.0,3157.0 5693.0,3150.0 5702.0,3150.0 C 5721.0,3150.0 5753.0,3115.0 5778.0,3065.0 C 5790.0,3041.0 5822.0,3007.0 5855.0,2982.0 C 5920.0,2933.0 5945.0,2928.0 5936.0,2965.0 C 5928.0,2997.0 5955.0,3051.0 5975.0,3044.0 C 5985.0,3040.0 5987.0,3029.0 5984.0,3011.0 C 5975.0,2969.0 6013.0,2900.0 6044.0,2900.0 C 6066.0,2900.0 6069.0,2895.0 6075.0,2838.0 C 6084.0,2758.0 6092.0,2743.0 6129.0,2738.0 C 6160.0,2733.0 6170.0,2747.0 6170.0,2798.0 C 6170.0,2837.0 6202.0,2820.0 6218.0,2772.0 C 6228.0,2742.0 6238.0,2728.0 6256.0,2724.0 C 6273.0,2720.0 6280.0,2711.0 6280.0,2695.0 C 6280.0,2658.0 6302.0,2647.0 6339.0,2666.0 C 6373.0,2683.0 6378.0,2695.0 6356.0,2703.0 C 6348.0,2706.0 6338.0,2726.0 6334.0,2747.0 C 6330.0,2768.0 6314.0,2800.0 6298.0,2819.0 C 6282.0,2837.0 6264.0,2863.0 6258.0,2876.0 C 6252.0,2888.0 6228.0,2909.0 6205.0,2921.0 C 6168.0,2941.0 6164.0,2946.0 6174.0,2962.0 C 6181.0,2975.0 6195.0,2980.0 6215.0,2978.0 C 6268.0,2973.0 6258.0,3004.0 6186.0,3075.0 C 6150.0,3111.0 6120.0,3144.0 6120.0,3149.0 C 6120.0,3154.0 6111.0,3162.0 6100.0,3165.0 C 6089.0,3168.0 6080.0,3179.0 6080.0,3189.0 C 6080.0,3199.0 6073.0,3213.0 6065.0,3220.0 C 6048.0,3234.0 6045.0,3260.0 6060.0,3260.0 C 6074.0,3260.0 6110.0,3223.0 6110.0,3209.0 C 6110.0,3203.0 6149.0,3158.0 6196.0,3110.0 L 6282.0,3022.0 L 6326.0,3064.0 C 6372.0,3108.0 6385.0,3155.0 6355.0,3166.0 C 6347.0,3170.0 6340.0,3178.0 6340.0,3185.0 C 6340.0,3201.0 6307.0,3230.0 6287.0,3230.0 C 6279.0,3230.0 6259.0,3235.0 6245.0,3240.0 C 6222.0,3249.0 6220.0,3253.0 6230.0,3265.0 C 6246.0,3285.0 6265.0,3284.0 6311.0,3263.0 C 6345.0,3246.0 6380.0,3196.0 6380.0,3162.0 C 6380.0,3155.0 6399.0,3138.0 6423.0,3124.0 C 6481.0,3088.0 6540.0,3030.0 6540.0,3008.0 C 6540.0,2988.0 6597.0,2920.0 6614.0,2920.0 C 6621.0,2920.0 6648.0,2893.0 6676.0,2860.0 C 6703.0,2827.0 6742.0,2789.0 6763.0,2775.0 C 6796.0,2752.0 6800.0,2751.0 6800.0,2768.0 C 6800.0,2778.0 6785.0,2804.0 6766.0,2826.0 C 6733.0,2864.0 6726.0,2880.0 6729.0,2908.0 C 6731.0,2928.0 6747.0,2922.0 6779.0,2888.0 C 6807.0,2858.0 6817.0,2840.0 6834.0,2786.0 C 6840.0,2769.0 6843.0,2769.0 6870.0,2796.0 C 6897.0,2822.0 6899.0,2831.0 6900.0,2892.0 C 6900.0,2957.0 6899.0,2960.0 6870.0,2975.0 C 6854.0,2983.0 6832.0,2990.0 6820.0,2990.0 C 6809.0,2990.0 6800.0,2994.0 6800.0,2999.0 C 6800.0,3004.0 6787.0,3013.0 6770.0,3020.0 C 6753.0,3027.0 6740.0,3040.0 6740.0,3049.0 C 6740.0,3059.0 6734.0,3075.0 6726.0,3085.0 C 6709.0,3109.0 6722.0,3140.0 6748.0,3140.0 C 6758.0,3140.0 6772.0,3146.0 6779.0,3152.0 C 6786.0,3160.0 6819.0,3165.0 6863.0,3165.0 C 6952.0,3165.0 6959.0,3180.0 6899.0,3245.0 C 6847.0,3301.0 6809.0,3306.0 6785.0,3259.0 C 6766.0,3224.0 6737.0,3223.0 6732.0,3258.0 C 6729.0,3274.0 6736.0,3283.0 6755.0,3290.0 C 6790.0,3303.0 6783.0,3319.0 6735.0,3336.0 C 6701.0,3347.0 6692.0,3347.0 6673.0,3335.0 C 6647.0,3317.0 6610.0,3315.0 6610.0,3331.0 C 6610.0,3337.0 6620.0,3350.0 6632.0,3360.0 C 6654.0,3378.0 6654.0,3378.0 6636.0,3399.0 C 6626.0,3410.0 6614.0,3417.0 6609.0,3414.0 C 6597.0,3407.0 6560.0,3428.0 6560.0,3443.0 C 6560.0,3460.0 6488.0,3529.0 6430.0,3567.0 C 6367.0,3610.0 6347.0,3634.0 6355.0,3659.0 C 6362.0,3683.0 6368.0,3684.0 6404.0,3670.0 C 6422.0,3664.0 6431.0,3651.0 6436.0,3626.0 C 6441.0,3598.0 6451.0,3585.0 6484.0,3566.0 C 6506.0,3553.0 6536.0,3530.0 6549.0,3516.0 C 6578.0,3485.0 6596.0,3483.0 6610.0,3510.0 C 6616.0,3521.0 6630.0,3530.0 6642.0,3530.0 C 6661.0,3530.0 6689.0,3555.0 6690.0,3572.0 C 6690.0,3575.0 6668.0,3586.0 6641.0,3595.0 C 6614.0,3604.0 6585.0,3619.0 6576.0,3629.0 C 6560.0,3647.0 6560.0,3649.0 6580.0,3663.0 C 6609.0,3683.0 6654.0,3670.0 6695.0,3630.0 C 6712.0,3614.0 6732.0,3600.0 6740.0,3600.0 C 6748.0,3600.0 6769.0,3586.0 6786.0,3569.0 C 6818.0,3538.0 6820.0,3537.0 6872.0,3548.0 C 6924.0,3559.0 6926.0,3558.0 6995.0,3518.0 C 7091.0,3462.0 7126.0,3444.0 7191.0,3419.0 C 7241.0,3400.0 7252.0,3399.0 7296.0,3410.0 C 7394.0,3433.0 7400.0,3433.0 7423.0,3412.0 C 7449.0,3388.0 7484.0,3397.0 7495.0,3430.0 C 7501.0,3449.0 7507.0,3451.0 7533.0,3445.0 C 7551.0,3442.0 7599.0,3436.0 7640.0,3433.0 C 7681.0,3430.0 7721.0,3423.0 7727.0,3418.0 C 7734.0,3412.0 7747.0,3410.0 7755.0,3414.0 C 7768.0,3418.0 7770.0,3435.0 7767.0,3500.0 C 7763.0,3580.0 7763.0,3580.0 7789.0,3587.0 C 7803.0,3590.0 7835.0,3603.0 7860.0,3616.0 C 7914.0,3645.0 7932.0,3646.0 7953.0,3622.0 C 7968.0,3606.0 7979.0,3605.0 8050.0,3612.0 C 8156.0,3624.0 8306.0,3610.0 8301.0,3590.0 C 8299.0,3582.0 8295.0,3567.0 8293.0,3557.0 C 8288.0,3542.0 8291.0,3541.0 8313.0,3549.0 C 8331.0,3556.0 8349.0,3556.0 8371.0,3548.0 C 8388.0,3542.0 8424.0,3540.0 8451.0,3543.0 C 8498.0,3549.0 8500.0,3548.0 8500.0,3525.0 C 8500.0,3498.0 8536.0,3466.0 8585.0,3450.0 C 8621.0,3438.0 8630.0,3420.0 8630.0,3353.0 C 8630.0,3330.0 8635.0,3308.0 8640.0,3305.0 C 8646.0,3302.0 8650.0,3288.0 8650.0,3275.0 C 8650.0,3260.0 8660.0,3244.0 8675.0,3234.0 C 8689.0,3225.0 8700.0,3211.0 8700.0,3204.0 C 8700.0,3196.0 8718.0,3170.0 8741.0,3145.0 C 8777.0,3106.0 8782.0,3093.0 8787.0,3041.0 C 8792.0,2986.0 8791.0,2981.0 8767.0,2966.0 C 8743.0,2950.0 8743.0,2948.0 8758.0,2917.0 C 8779.0,2874.0 8778.0,2874.0 8794.0,2895.0 C 8807.0,2913.0 8809.0,2913.0 8871.0,2896.0 C 8906.0,2886.0 8963.0,2865.0 8996.0,2849.0 C 9030.0,2833.0 9066.0,2820.0 9077.0,2820.0 C 9087.0,2820.0 9100.0,2816.0 9106.0,2811.0 C 9129.0,2788.0 9371.0,2801.0 9443.0,2829.0 C 9459.0,2835.0 9504.0,2840.0 9545.0,2840.0 C 9641.0,2840.0 9655.0,2845.0 9635.0,2873.0 C 9627.0,2885.0 9620.0,2909.0 9620.0,2926.0 C 9620.0,2964.0 9586.0,2988.0 9494.0,3015.0 C 9461.0,3024.0 9419.0,3040.0 9400.0,3050.0 C 9379.0,3061.0 9336.0,3070.0 9293.0,3073.0 C 9234.0,3077.0 9216.0,3082.0 9190.0,3104.0 C 9173.0,3118.0 9147.0,3130.0 9134.0,3130.0 C 9120.0,3130.0 9107.0,3137.0 9104.0,3145.0 C 9093.0,3172.0 9070.0,3162.0 9070.0,3130.0 C 9070.0,3105.0 9066.0,3100.0 9047.0,3100.0 C 9015.0,3100.0 8980.0,3127.0 8980.0,3153.0 C 8980.0,3165.0 8969.0,3192.0 8956.0,3214.0 C 8935.0,3247.0 8933.0,3257.0 8942.0,3284.0 C 8958.0,3332.0 8965.0,3335.0 9009.0,3316.0 C 9031.0,3306.0 9053.0,3301.0 9059.0,3304.0 C 9079.0,3317.0 9070.0,3372.0 9040.0,3422.0 C 9024.0,3448.0 9010.0,3474.0 9010.0,3479.0 C 9010.0,3484.0 9021.0,3511.0 9035.0,3538.0 C 9057.0,3581.0 9065.0,3588.0 9097.0,3594.0 C 9153.0,3603.0 9156.0,3602.0 9168.0,3575.0 C 9179.0,3552.0 9182.0,3551.0 9242.0,3557.0 C 9314.0,3563.0 9336.0,3549.0 9342.0,3495.0 C 9345.0,3468.0 9348.0,3465.0 9375.0,3468.0 C 9422.0,3472.0 9447.0,3462.0 9480.0,3427.0 C 9507.0,3399.0 9511.0,3390.0 9506.0,3354.0 C 9503.0,3330.0 9505.0,3309.0 9512.0,3302.0 C 9525.0,3289.0 9582.0,3286.0 9594.0,3297.0 C 9598.0,3301.0 9615.0,3309.0 9633.0,3315.0 C 9661.0,3324.0 9665.0,3330.0 9665.0,3360.0 C 9665.0,3389.0 9670.0,3397.0 9704.0,3416.0 C 9735.0,3434.0 9743.0,3444.0 9745.0,3471.0 C 9748.0,3509.0 9772.0,3530.0 9811.0,3530.0 C 9833.0,3530.0 9843.0,3539.0 9865.0,3578.0 C 9880.0,3604.0 9901.0,3634.0 9910.0,3645.0 C 9920.0,3656.0 9930.0,3687.0 9934.0,3714.0 C 9941.0,3767.0 9949.0,3777.0 9992.0,3786.0 C 10028.0,3794.0 10046.0,3816.0 10060.0,3870.0 C 10066.0,3895.0 10080.0,3929.0 10090.0,3947.0 C 10101.0,3965.0 10116.0,4023.0 10125.0,4077.0 C 10134.0,4131.0 10148.0,4189.0 10156.0,4205.0 C 10177.0,4247.0 10240.0,4443.0 10240.0,4465.0 C 10240.0,4475.0 10232.0,4492.0 10223.0,4503.0 C 10206.0,4521.0 10206.0,4522.0 10223.0,4535.0 C 10245.0,4551.0 10246.0,4622.0 10225.0,4640.0 C 10214.0,4649.0 10210.0,4669.0 10212.0,4709.0 C 10214.0,4754.0 10208.0,4777.0 10185.0,4824.0 C 10168.0,4856.0 10143.0,4891.0 10128.0,4902.0 C 10095.0,4925.0 10074.0,4968.0 10061.0,5035.0 C 10056.0,5063.0 10042.0,5119.0 10031.0,5160.0 C 10001.0,5268.0 10003.0,5309.0 10040.0,5345.0 C 10068.0,5372.0 10070.0,5379.0 10070.0,5448.0 C 10070.0,5510.0 10067.0,5524.0 10050.0,5538.0 C 10039.0,5548.0 10022.0,5571.0 10012.0,5590.0 C 9998.0,5619.0 9984.0,5628.0 9930.0,5647.0 C 9894.0,5659.0 9852.0,5680.0 9835.0,5693.0 C 9819.0,5706.0 9795.0,5722.0 9783.0,5728.0 C 9771.0,5735.0 9760.0,5750.0 9758.0,5762.0 C 9754.0,5792.0 9700.0,5806.0 9663.0,5787.0 C 9631.0,5771.0 9616.0,5774.0 9577.0,5806.0 C 9562.0,5819.0 9531.0,5834.0 9509.0,5840.0 C 9488.0,5846.0 9453.0,5860.0 9433.0,5872.0 C 9407.0,5888.0 9372.0,5895.0 9309.0,5900.0 C 9256.0,5904.0 9215.0,5912.0 9204.0,5921.0 C 9193.0,5930.0 9170.0,5934.0 9135.0,5932.0 C 9097.0,5929.0 9075.0,5934.0 9048.0,5950.0 C 9012.0,5971.0 9012.0,5971.0 8998.0,5952.0 C 8991.0,5941.0 8955.0,5920.0 8920.0,5905.0 C 8846.0,5874.0 8826.0,5859.0 8810.0,5822.0 C 8794.0,5783.0 8732.0,5739.0 8705.0,5746.0 C 8688.0,5750.0 8680.0,5747.0 8675.0,5731.0 C 8672.0,5719.0 8658.0,5707.0 8646.0,5704.0 C 8633.0,5701.0 8617.0,5686.0 8609.0,5672.0 C 8602.0,5657.0 8588.0,5638.0 8577.0,5630.0 C 8548.0,5605.0 8526.0,5456.0 8537.0,5358.0 C 8545.0,5289.0 8544.0,5278.0 8529.0,5264.0 C 8519.0,5255.0 8508.0,5234.0 8505.0,5216.0 C 8493.0,5156.0 8476.0,5100.0 8468.0,5100.0 C 8464.0,5100.0 8460.0,5106.0 8460.0,5114.0 C 8460.0,5137.0 8438.0,5145.0 8425.0,5126.0 C 8418.0,5117.0 8406.0,5112.0 8398.0,5115.0 C 8389.0,5119.0 8381.0,5110.0 8375.0,5088.0 C 8360.0,5039.0 8334.0,5040.0 8320.0,5089.0 C 8314.0,5111.0 8304.0,5131.0 8297.0,5133.0 C 8289.0,5136.0 8293.0,5144.0 8308.0,5155.0 C 8336.0,5176.0 8338.0,5220.0 8311.0,5220.0 C 8300.0,5220.0 8281.0,5207.0 8268.0,5192.0 C 8255.0,5176.0 8224.0,5149.0 8199.0,5132.0 C 8164.0,5108.0 8151.0,5093.0 8146.0,5067.0 C 8140.0,5035.0 8086.0,4970.0 8075.0,4982.0 C 8072.0,4984.0 8077.0,5009.0 8085.0,5036.0 C 8093.0,5063.0 8100.0,5118.0 8100.0,5158.0 C 8100.0,5228.0 8099.0,5231.0 8061.0,5269.0 C 8040.0,5290.0 8009.0,5311.0 7992.0,5314.0 C 7976.0,5318.0 7954.0,5331.0 7943.0,5343.0 C 7888.0,5404.0 7838.0,5440.0 7810.0,5440.0 C 7794.0,5440.0 7765.0,5448.0 7745.0,5457.0 C 7711.0,5473.0 7709.0,5473.0 7690.0,5452.0 C 7678.0,5440.0 7657.0,5430.0 7641.0,5430.0 C 7624.0,5430.0 7605.0,5420.0 7592.0,5405.0 C 7580.0,5391.0 7563.0,5380.0 7555.0,5380.0 C 7542.0,5380.0 7540.0,5368.0 7542.0,5318.0 C 7545.0,5258.0 7544.0,5255.0 7521.0,5252.0 C 7507.0,5250.0 7479.0,5254.0 7458.0,5261.0 C 7399.0,5280.0 7283.0,5260.0 7253.0,5225.0 C 7221.0,5189.0 7223.0,5152.0 7256.0,5140.0 C 7270.0,5134.0 7280.0,5124.0 7277.0,5117.0 C 7270.0,5095.0 7241.0,5098.0 7217.0,5123.0 L 7195.0,5148.0 L 7133.0,5119.0 C 7086.0,5097.0 7058.0,5074.0 7020.0,5029.0 C 6966.0,4964.0 6960.0,4939.0 6986.0,4889.0 C 6994.0,4872.0 7000.0,4849.0 6998.0,4837.0 C 6994.0,4809.0 6964.0,4803.0 6956.0,4828.0 C 6952.0,4839.0 6941.0,4850.0 6930.0,4853.0 C 6919.0,4856.0 6903.0,4874.0 6893.0,4894.0 C 6884.0,4914.0 6871.0,4930.0 6864.0,4930.0 C 6857.0,4930.0 6847.0,4907.0 6840.0,4880.0 C 6827.0,4826.0 6815.0,4811.0 6797.0,4829.0 C 6766.0,4860.0 6700.0,4818.0 6700.0,4768.0 C 6700.0,4742.0 6716.0,4730.0 6751.0,4730.0 C 6761.0,4730.0 6770.0,4723.0 6770.0,4715.0 C 6770.0,4704.0 6759.0,4700.0 6732.0,4700.0 C 6712.0,4700.0 6681.0,4696.0 6663.0,4691.0 C 6636.0,4683.0 6628.0,4685.0 6609.0,4706.0 C 6597.0,4719.0 6579.0,4730.0 6571.0,4730.0 C 6557.0,4730.0 6554.0,4711.0 6552.0,4598.0 C 6551.0,4525.0 6549.0,4452.0 6549.0,4435.0 C 6548.0,4419.0 6553.0,4381.0 6560.0,4352.0 C 6568.0,4318.0 6569.0,4292.0 6564.0,4279.0 L 6555.0,4259.0 L 6527.0,4280.0 C 6492.0,4308.0 6448.0,4299.0 6418.0,4259.0 C 6403.0,4239.0 6388.0,4230.0 6368.0,4230.0 C 6340.0,4230.0 6340.0,4230.0 6340.0,4162.0 C 6340.0,4098.0 6338.0,4092.0 6307.0,4062.0 C 6260.0,4016.0 6241.0,4046.0 6277.0,4109.0 C 6294.0,4138.0 6294.0,4140.0 6272.0,4185.0 C 6260.0,4210.0 6250.0,4242.0 6250.0,4256.0 C 6250.0,4269.0 6243.0,4283.0 6236.0,4286.0 C 6213.0,4295.0 6160.0,4258.0 6153.0,4230.0 C 6133.0,4148.0 6084.0,4087.0 5979.0,4017.0 C 5949.0,3997.0 5912.0,3967.0 5897.0,3951.0 C 5872.0,3924.0 5862.0,3921.0 5819.0,3921.0 C 5792.0,3922.0 5765.0,3918.0 5758.0,3913.0 C 5751.0,3907.0 5721.0,3900.0 5693.0,3896.0 C 5645.0,3890.0 5640.0,3891.0 5640.0,3908.0 C 5640.0,3936.0 5612.0,3956.0 5548.0,3975.0 C 5480.0,3994.0 5421.0,3997.0 5392.0,3981.0 C 5361.0,3964.0 5261.0,3969.0 5210.0,3989.0 C 5157.0,4011.0 5151.0,4023.0 5185.0,4038.0 C 5219.0,4054.0 5236.0,4053.0 5263.0,4036.0 C 5280.0,4025.0 5312.0,4022.0 5400.0,4025.0 C 5523.0,4029.0 5586.0,4018.0 5610.0,3988.0 C 5626.0,3969.0 5656.0,3965.0 5759.0,3968.0 C 5820.0,3970.0 5822.0,3970.0 5802.0,3988.0 C 5773.0,4012.0 5770.0,4043.0 5795.0,4048.0 C 5806.0,4051.0 5826.0,4056.0 5838.0,4061.0 L 5862.0,4070.0 L 5838.0,4090.0 C 5826.0,4101.0 5820.0,4109.0 5827.0,4110.0 C 5843.0,4110.0 5862.0,4168.0 5848.0,4176.0 C 5835.0,4184.0 5896.0,4219.0 5923.0,4220.0 C 5937.0,4220.0 5940.0,4229.0 5940.0,4268.0 C 5940.0,4295.0 5934.0,4324.0 5928.0,4333.0 C 5897.0,4374.0 5769.0,4371.0 5724.0,4329.0 C 5706.0,4312.0 5694.0,4310.0 5655.0,4315.0 C 5613.0,4322.0 5608.0,4320.0 5603.0,4301.0 C 5599.0,4284.0 5590.0,4280.0 5559.0,4280.0 C 5527.0,4280.0 5520.0,4276.0 5520.0,4260.0 C 5520.0,4228.0 5489.0,4218.0 5463.0,4242.0 C 5442.0,4262.0 5439.0,4262.0 5422.0,4247.0 C 5412.0,4237.0 5395.0,4230.0 5384.0,4230.0 C 5373.0,4230.0 5360.0,4226.0 5354.0,4221.0 C 5336.0,4205.0 5246.0,4180.0 5204.0,4180.0 C 5177.0,4180.0 5140.0,4191.0 5102.0,4210.0 C 5033.0,4244.0 4957.0,4251.0 4942.0,4224.0 C 4937.0,4215.0 4896.0,4199.0 4844.0,4186.0 C 4757.0,4164.0 4752.0,4164.0 4617.0,4179.0 C 4503.0,4192.0 4474.0,4192.0 4447.0,4181.0 C 4429.0,4174.0 4411.0,4168.0 4405.0,4169.0 C 4400.0,4169.0 4365.0,4172.0 4328.0,4176.0 C 4264.0,4182.0 4260.0,4184.0 4260.0,4208.0 L 4260.0,4233.0 L 4375.0,4226.0 C 4474.0,4220.0 4491.0,4221.0 4496.0,4235.0 C 4500.0,4243.0 4497.0,4257.0 4490.0,4265.0 C 4479.0,4278.0 4487.0,4280.0 4547.0,4280.0 C 4602.0,4280.0 4623.0,4284.0 4643.0,4300.0 C 4657.0,4311.0 4674.0,4320.0 4680.0,4320.0 C 4687.0,4320.0 4698.0,4327.0 4704.0,4335.0 C 4710.0,4344.0 4736.0,4352.0 4765.0,4355.0 C 4830.0,4360.0 4872.0,4370.0 4889.0,4384.0 C 4897.0,4390.0 4917.0,4399.0 4934.0,4405.0 C 4976.0,4419.0 4973.0,4441.0 4925.0,4464.0 C 4890.0,4481.0 4877.0,4482.0 4811.0,4472.0 C 4771.0,4467.0 4734.0,4457.0 4731.0,4451.0 C 4726.0,4443.0 4708.0,4443.0 4669.0,4450.0 C 4640.0,4455.0 4581.0,4463.0 4540.0,4467.0 C 4496.0,4472.0 4467.0,4479.0 4470.0,4485.0 C 4473.0,4491.0 4486.0,4495.0 4500.0,4495.0 C 4514.0,4495.0 4547.0,4499.0 4573.0,4504.0 C 4626.0,4513.0 4631.0,4532.0 4584.0,4540.0 L 4555.0,4546.0 L 4580.0,4553.0 C 4624.0,4565.0 4729.0,4561.0 4767.0,4545.0 C 4810.0,4527.0 4842.0,4526.0 4858.0,4542.0 C 4878.0,4562.0 4873.0,4567.0 4798.0,4597.0 C 4758.0,4612.0 4717.0,4633.0 4708.0,4643.0 C 4687.0,4663.0 4607.0,4666.0 4563.0,4649.0 L 4535.0,4638.0 L 4563.0,4628.0 C 4583.0,4621.0 4600.0,4621.0 4618.0,4629.0 C 4638.0,4639.0 4645.0,4638.0 4651.0,4628.0 C 4658.0,4618.0 4643.0,4613.0 4587.0,4606.0 C 4535.0,4600.0 4512.0,4592.0 4502.0,4579.0 C 4487.0,4557.0 4458.0,4553.0 4466.0,4574.0 C 4469.0,4581.0 4464.0,4590.0 4456.0,4593.0 C 4447.0,4597.0 4440.0,4608.0 4440.0,4618.0 C 4440.0,4629.0 4433.0,4643.0 4425.0,4650.0 C 4412.0,4660.0 4406.0,4660.0 4392.0,4646.0 C 4366.0,4623.0 4357.0,4626.0 4364.0,4656.0 C 4369.0,4673.0 4364.0,4689.0 4350.0,4707.0 C 4323.0,4742.0 4325.0,4750.0 4360.0,4750.0 C 4389.0,4750.0 4450.0,4774.0 4450.0,4786.0 C 4450.0,4788.0 4440.0,4795.0 4428.0,4801.0 C 4415.0,4806.0 4390.0,4822.0 4371.0,4835.0 C 4352.0,4849.0 4327.0,4860.0 4314.0,4860.0 C 4297.0,4860.0 4289.0,4867.0 4284.0,4885.0 C 4279.0,4906.0 4272.0,4910.0 4236.0,4911.0 C 4173.0,4913.0 4167.0,4911.0 4140.0,4880.0 C 4119.0,4856.0 4108.0,4851.0 4073.0,4852.0 C 4013.0,4853.0 4018.0,4882.0 4083.0,4915.0 C 4094.0,4920.0 4108.0,4940.0 4112.0,4958.0 C 4121.0,4992.0 4144.0,4999.0 4179.0,4980.0 C 4189.0,4975.0 4215.0,4970.0 4236.0,4970.0 C 4369.0,4968.0 4413.0,4971.0 4432.0,4985.0 C 4455.0,5000.0 4457.0,4999.0 4383.0,5025.0 C 4376.0,5027.0 4370.0,5033.0 4370.0,5037.0 C 4370.0,5047.0 4449.0,5080.0 4472.0,5080.0 C 4500.0,5080.0 4550.0,5135.0 4550.0,5167.0 C 4550.0,5212.0 4525.0,5240.0 4484.0,5240.0 C 4457.0,5240.0 4440.0,5230.0 4399.0,5190.0 C 4371.0,5163.0 4344.0,5140.0 4339.0,5140.0 C 4321.0,5140.0 4331.0,5168.0 4366.0,5215.0 C 4398.0,5256.0 4401.0,5265.0 4391.0,5286.0 C 4382.0,5308.0 4374.0,5310.0 4319.0,5310.0 C 4228.0,5310.0 4182.0,5293.0 4153.0,5248.0 C 4126.0,5208.0 4110.0,5206.0 4110.0,5245.0 C 4110.0,5275.0 4083.0,5285.0 4054.0,5265.0 C 4025.0,5246.0 4024.0,5221.0 4050.0,5187.0 C 4077.0,5153.0 4075.0,5118.0 4045.0,5090.0 C 4031.0,5077.0 4020.0,5058.0 4020.0,5047.0 C 4020.0,5037.0 4012.0,5015.0 4003.0,4998.0 C 3985.0,4969.0 3985.0,4969.0 3915.0,4975.0 L 3845.0,4981.0 L 3815.0,4933.0 C 3799.0,4907.0 3778.0,4885.0 3770.0,4885.0 C 3747.0,4885.0 3747.0,4924.0 3770.0,4961.0 C 3781.0,4980.0 3797.0,5009.0 3805.0,5027.0 C 3813.0,5044.0 3829.0,5061.0 3840.0,5065.0 C 3851.0,5068.0 3860.0,5078.0 3860.0,5087.0 C 3860.0,5095.0 3869.0,5104.0 3880.0,5107.0 C 3898.0,5112.0 3899.0,5118.0 3894.0,5164.0 C 3888.0,5216.0 3888.0,5217.0 3919.0,5230.0 C 3958.0,5246.0 3980.0,5293.0 3980.0,5362.0 C 3980.0,5396.0 3976.0,5412.0 3965.0,5416.0 C 3951.0,5422.0 3943.0,5460.0 3956.0,5460.0 C 3971.0,5460.0 4000.0,5438.0 4000.0,5426.0 C 4000.0,5418.0 4018.0,5410.0 4046.0,5406.0 C 4113.0,5397.0 4117.0,5398.0 4123.0,5419.0 C 4140.0,5485.0 4444.0,5444.0 4498.0,5368.0 C 4507.0,5355.0 4524.0,5350.0 4555.0,5350.0 C 4586.0,5350.0 4610.0,5342.0 4636.0,5325.0 C 4661.0,5308.0 4686.0,5300.0 4715.0,5300.0 C 4738.0,5300.0 4777.0,5293.0 4800.0,5285.0 C 4831.0,5274.0 4886.0,5270.0 5007.0,5270.0 C 5170.0,5270.0 5170.0,5270.0 5180.0,5294.0 C 5185.0,5307.0 5193.0,5321.0 5199.0,5325.0 C 5221.0,5338.0 5317.0,5348.0 5358.0,5340.0 C 5389.0,5335.0 5403.0,5336.0 5411.0,5346.0 C 5417.0,5354.0 5431.0,5360.0 5441.0,5360.0 C 5480.0,5360.0 5540.0,5385.0 5540.0,5401.0 C 5540.0,5409.0 5524.0,5424.0 5505.0,5433.0 C 5475.0,5448.0 5467.0,5448.0 5436.0,5435.0 C 5417.0,5427.0 5368.0,5417.0 5328.0,5414.0 C 5239.0,5406.0 5160.0,5387.0 5126.0,5365.0 C 5094.0,5344.0 5080.0,5353.0 5080.0,5394.0 C 5080.0,5430.0 5095.0,5448.0 5149.0,5475.0 C 5210.0,5506.0 5240.0,5510.0 5277.0,5495.0 C 5320.0,5477.0 5352.0,5476.0 5368.0,5492.0 C 5375.0,5499.0 5414.0,5505.0 5458.0,5507.0 C 5512.0,5509.0 5538.0,5515.0 5546.0,5525.0 C 5552.0,5533.0 5562.0,5540.0 5569.0,5540.0 C 5575.0,5540.0 5580.0,5549.0 5580.0,5559.0 C 5580.0,5579.0 5562.0,5590.0 5530.0,5590.0 C 5520.0,5590.0 5510.0,5597.0 5506.0,5605.0 C 5498.0,5628.0 5386.0,5625.0 5332.0,5600.0 C 5293.0,5582.0 5285.0,5582.0 5252.0,5594.0 C 5232.0,5602.0 5197.0,5611.0 5176.0,5615.0 C 5128.0,5623.0 5145.0,5640.0 5201.0,5640.0 C 5251.0,5640.0 5299.0,5658.0 5336.0,5690.0 C 5361.0,5712.0 5381.0,5718.0 5440.0,5724.0 C 5531.0,5732.0 5560.0,5746.0 5585.0,5792.0 C 5604.0,5827.0 5604.0,5829.0 5587.0,5848.0 C 5574.0,5862.0 5571.0,5876.0 5576.0,5894.0 C 5579.0,5909.0 5578.0,5920.0 5572.0,5920.0 C 5567.0,5920.0 5560.0,5930.0 5557.0,5943.0 C 5553.0,5955.0 5545.0,5974.0 5537.0,5984.0 C 5524.0,6002.0 5522.0,6002.0 5492.0,5980.0 C 5474.0,5967.0 5460.0,5951.0 5460.0,5944.0 C 5460.0,5932.0 5401.0,5906.0 5393.0,5914.0 C 5390.0,5916.0 5395.0,5929.0 5403.0,5942.0 C 5411.0,5954.0 5421.0,5975.0 5424.0,5987.0 C 5431.0,6008.0 5428.0,6009.0 5368.0,6008.0 C 5325.0,6007.0 5285.0,6014.0 5242.0,6030.0 L 5179.0,6053.0 L 5155.0,6030.0 C 5123.0,6000.0 5100.0,6010.0 5100.0,6054.0 C 5100.0,6085.0 5104.0,6090.0 5128.0,6096.0 C 5152.0,6101.0 5218.0,6119.0 5290.0,6138.0 C 5324.0,6148.0 5329.0,6194.0 5300.0,6226.0 C 5264.0,6263.0 5232.0,6265.0 5170.0,6231.0 C 5119.0,6203.0 5100.0,6200.0 5100.0,6219.0 C 5100.0,6224.0 5120.0,6235.0 5145.0,6244.0 C 5170.0,6254.0 5197.0,6271.0 5204.0,6282.0 C 5218.0,6301.0 5222.0,6302.0 5250.0,6290.0 C 5288.0,6274.0 5333.0,6290.0 5324.0,6315.0 C 5315.0,6336.0 5263.0,6363.0 5255.0,6350.0 C 5252.0,6344.0 5236.0,6340.0 5220.0,6340.0 C 5183.0,6340.0 5112.0,6313.0 5084.0,6288.0 C 5059.0,6266.0 5050.0,6265.0 5050.0,6285.0 C 5050.0,6304.0 5229.0,6390.0 5269.0,6390.0 C 5286.0,6390.0 5305.0,6397.0 5312.0,6406.0 C 5319.0,6414.0 5333.0,6429.0 5343.0,6438.0 C 5389.0,6480.0 5407.0,6565.0 5373.0,6576.0 C 5363.0,6579.0 5345.0,6587.0 5333.0,6593.0 C 5303.0,6607.0 5273.0,6581.0 5264.0,6534.0 C 5259.0,6505.0 5253.0,6500.0 5216.0,6492.0 C 5192.0,6487.0 5170.0,6487.0 5163.0,6493.0 C 5156.0,6498.0 5123.0,6499.0 5088.0,6495.0 C 5032.0,6489.0 5027.0,6490.0 5045.0,6502.0 C 5056.0,6510.0 5084.0,6522.0 5107.0,6528.0 C 5146.0,6540.0 5174.0,6560.0 5151.0,6560.0 C 5130.0,6560.0 5140.0,6591.0 5164.0,6600.0 C 5199.0,6613.0 5205.0,6630.0 5182.0,6646.0 C 5169.0,6655.0 5161.0,6672.0 5161.0,6688.0 C 5161.0,6703.0 5160.0,6722.0 5160.0,6730.0 C 5159.0,6738.0 5160.0,6754.0 5162.0,6764.0 C 5164.0,6779.0 5157.0,6786.0 5134.0,6793.0 C 5108.0,6800.0 5093.0,6797.0 5042.0,6771.0 C 5008.0,6754.0 4980.0,6736.0 4980.0,6731.0 C 4980.0,6727.0 4966.0,6705.0 4949.0,6684.0 C 4932.0,6662.0 4905.0,6618.0 4888.0,6586.0 C 4860.0,6531.0 4859.0,6523.0 4867.0,6464.0 C 4876.0,6405.0 4875.0,6401.0 4854.0,6390.0 C 4840.0,6382.0 4830.0,6365.0 4826.0,6341.0 C 4815.0,6276.0 4795.0,6195.0 4787.0,6183.0 C 4776.0,6165.0 4760.0,6167.0 4760.0,6185.0 C 4760.0,6193.0 4751.0,6200.0 4741.0,6200.0 C 4726.0,6200.0 4720.0,6191.0 4716.0,6163.0 C 4707.0,6103.0 4706.0,5999.0 4714.0,5953.0 C 4723.0,5905.0 4705.0,5862.0 4667.0,5837.0 C 4654.0,5829.0 4614.0,5777.0 4579.0,5721.0 C 4526.0,5639.0 4512.0,5622.0 4495.0,5627.0 C 4446.0,5641.0 4447.0,5652.0 4500.0,5699.0 L 4552.0,5745.0 L 4561.0,5833.0 C 4568.0,5904.0 4567.0,5927.0 4555.0,5949.0 C 4546.0,5967.0 4543.0,5991.0 4547.0,6013.0 C 4550.0,6034.0 4546.0,6068.0 4536.0,6096.0 C 4527.0,6122.0 4520.0,6154.0 4520.0,6166.0 C 4520.0,6198.0 4455.0,6253.0 4427.0,6244.0 C 4395.0,6235.0 4390.0,6228.0 4383.0,6187.0 C 4379.0,6162.0 4383.0,6143.0 4394.0,6126.0 C 4409.0,6102.0 4407.0,6070.0 4390.0,6070.0 C 4385.0,6070.0 4372.0,6082.0 4360.0,6097.0 C 4340.0,6123.0 4338.0,6123.0 4300.0,6109.0 C 4279.0,6101.0 4236.0,6071.0 4205.0,6041.0 C 4151.0,5990.0 4149.0,5986.0 4160.0,5959.0 C 4176.0,5922.0 4156.0,5888.0 4105.0,5864.0 C 4078.0,5851.0 4068.0,5839.0 4059.0,5807.0 C 4053.0,5784.0 4035.0,5750.0 4019.0,5732.0 C 4003.0,5714.0 3990.0,5696.0 3990.0,5692.0 C 3990.0,5688.0 3970.0,5674.0 3945.0,5660.0 C 3902.0,5637.0 3901.0,5634.0 3906.0,5599.0 C 3911.0,5568.0 3909.0,5561.0 3891.0,5555.0 C 3880.0,5552.0 3862.0,5553.0 3852.0,5559.0 C 3839.0,5566.0 3817.0,5565.0 3779.0,5555.0 C 3749.0,5547.0 3709.0,5540.0 3690.0,5540.0 C 3648.0,5540.0 3513.0,5508.0 3479.0,5490.0 C 3466.0,5483.0 3446.0,5469.0 3434.0,5459.0 C 3423.0,5448.0 3403.0,5441.0 3390.0,5442.0 C 3369.0,5445.0 3365.0,5440.0 3358.0,5400.0 C 3353.0,5372.0 3340.0,5345.0 3321.0,5327.0 C 3296.0,5302.0 3287.0,5298.0 3257.0,5304.0 C 3226.0,5310.0 3222.0,5314.0 3217.0,5351.0 C 3207.0,5428.0 3139.0,5469.0 3119.0,5411.0 C 3105.0,5370.0 3080.0,5362.0 3080.0,5399.0 C 3080.0,5414.0 3072.0,5434.0 3062.0,5443.0 C 3046.0,5458.0 3041.0,5458.0 3016.0,5445.0 C 3001.0,5437.0 2984.0,5433.0 2979.0,5436.0 C 2963.0,5445.0 2969.0,5488.0 2988.0,5502.0 C 2999.0,5509.0 3012.0,5525.0 3019.0,5538.0 C 3025.0,5550.0 3037.0,5560.0 3045.0,5560.0 C 3061.0,5560.0 3100.0,5633.0 3100.0,5661.0 C 3100.0,5671.0 3096.0,5682.0 3090.0,5685.0 C 3071.0,5696.0 3080.0,5728.0 3106.0,5745.0 C 3129.0,5760.0 3132.0,5767.0 3127.0,5803.0 C 3123.0,5835.0 3112.0,5854.0 3081.0,5882.0 C 3041.0,5920.0 3041.0,5920.0 3035.0,6012.0 C 3028.0,6116.0 3016.0,6140.0 2966.0,6140.0 C 2916.0,6140.0 2890.0,6151.0 2890.0,6171.0 C 2890.0,6193.0 2854.0,6220.0 2824.0,6220.0 C 2807.0,6220.0 2800.0,6228.0 2795.0,6250.0 C 2791.0,6267.0 2784.0,6280.0 2779.0,6280.0 C 2774.0,6280.0 2763.0,6291.0 2754.0,6305.0 C 2738.0,6329.0 2738.0,6332.0 2755.0,6350.0 C 2770.0,6367.0 2771.0,6374.0 2762.0,6395.0 C 2752.0,6416.0 2743.0,6420.0 2711.0,6420.0 C 2675.0,6420.0 2667.0,6415.0 2635.0,6374.0 C 2616.0,6348.0 2600.0,6317.0 2600.0,6304.0 C 2600.0,6287.0 2589.0,6275.0 2560.0,6260.0 C 2536.0,6248.0 2518.0,6231.0 2515.0,6217.0 C 2513.0,6205.0 2507.0,6175.0 2502.0,6150.0 C 2493.0,6105.0 2493.0,6105.0 2482.0,6133.0 C 2467.0,6169.0 2451.0,6167.0 2409.0,6123.0 C 2351.0,6060.0 2336.0,6020.0 2345.0,5953.0 C 2349.0,5921.0 2355.0,5891.0 2358.0,5885.0 C 2368.0,5869.0 2359.0,5796.0 2345.0,5780.0 C 2303.0,5730.0 2337.0,5635.0 2420.0,5573.0 C 2451.0,5550.0 2470.0,5528.0 2470.0,5515.0 C 2470.0,5504.0 2475.0,5488.0 2480.0,5480.0 C 2487.0,5468.0 2484.0,5464.0 2462.0,5460.0 C 2443.0,5456.0 2434.0,5448.0 2432.0,5432.0 C 2429.0,5409.0 2428.0,5409.0 2409.0,5426.0 C 2397.0,5437.0 2390.0,5456.0 2390.0,5480.0 C 2390.0,5509.0 2385.0,5519.0 2365.0,5528.0 C 2352.0,5534.0 2332.0,5557.0 2320.0,5579.0 C 2296.0,5626.0 2235.0,5658.0 2152.0,5667.0 C 2087.0,5674.0 2073.0,5690.0 2133.0,5690.0 C 2174.0,5690.0 2178.0,5692.0 2195.0,5729.0 C 2206.0,5755.0 2210.0,5781.0 2207.0,5807.0 C 2190.0,5914.0 2189.0,5917.0 2145.0,5949.0 C 2121.0,5966.0 2093.0,5980.0 2083.0,5980.0 C 2071.0,5980.0 2076.0,5986.0 2098.0,5997.0 C 2146.0,6020.0 2163.0,6068.0 2155.0,6152.0 L 2148.0,6219.0 L 2199.0,6226.0 C 2227.0,6230.0 2253.0,6237.0 2256.0,6241.0 C 2259.0,6246.0 2270.0,6250.0 2281.0,6250.0 C 2312.0,6250.0 2304.0,6292.0 2265.0,6330.0 C 2246.0,6349.0 2230.0,6372.0 2230.0,6382.0 C 2230.0,6394.0 2222.0,6400.0 2206.0,6400.0 C 2168.0,6400.0 2130.0,6418.0 2130.0,6436.0 C 2130.0,6447.0 2135.0,6450.0 2148.0,6445.0 C 2157.0,6441.0 2182.0,6436.0 2202.0,6433.0 C 2229.0,6429.0 2247.0,6418.0 2270.0,6389.0 C 2297.0,6355.0 2306.0,6350.0 2342.0,6350.0 C 2379.0,6350.0 2389.0,6357.0 2459.0,6424.0 C 2501.0,6464.0 2546.0,6501.0 2560.0,6505.0 C 2612.0,6520.0 2670.0,6562.0 2701.0,6608.0 C 2728.0,6648.0 2733.0,6663.0 2732.0,6710.0 C 2729.0,6864.0 2726.0,6878.0 2685.0,6894.0 C 2679.0,6896.0 2680.0,6903.0 2688.0,6911.0 C 2703.0,6927.0 2704.0,6976.0 2689.0,6985.0 C 2684.0,6989.0 2675.0,7003.0 2670.0,7016.0 C 2656.0,7053.0 2632.0,7046.0 2625.0,7003.0 C 2613.0,6929.0 2609.0,6920.0 2575.0,6885.0 C 2532.0,6843.0 2476.0,6813.0 2422.0,6804.0 C 2390.0,6799.0 2378.0,6802.0 2361.0,6819.0 C 2329.0,6851.0 2335.0,6868.0 2383.0,6881.0 C 2438.0,6897.0 2480.0,6927.0 2480.0,6950.0 C 2480.0,6960.0 2491.0,6982.0 2505.0,6998.0 C 2522.0,7018.0 2530.0,7040.0 2530.0,7064.0 C 2530.0,7084.0 2534.0,7100.0 2539.0,7100.0 C 2545.0,7100.0 2569.0,7126.0 2594.0,7158.0 C 2682.0,7269.0 2692.0,7278.0 2717.0,7262.0 C 2746.0,7244.0 2780.0,7261.0 2780.0,7294.0 C 2780.0,7311.0 2769.0,7324.0 2744.0,7339.0 C 2696.0,7367.0 2704.0,7385.0 2763.0,7381.0 C 2806.0,7379.0 2810.0,7381.0 2825.0,7412.0 C 2834.0,7430.0 2853.0,7454.0 2867.0,7466.0 C 2889.0,7485.0 2893.0,7498.0 2900.0,7582.0 C 2907.0,7670.0 2905.0,7743.0 2894.0,7798.0 C 2889.0,7822.0 2860.0,7829.0 2860.0,7805.0 C 2860.0,7797.0 2849.0,7783.0 2836.0,7775.0 C 2821.0,7765.0 2807.0,7742.0 2801.0,7717.0 C 2770.0,7590.0 2764.0,7570.0 2757.0,7576.0 C 2753.0,7580.0 2750.0,7596.0 2750.0,7611.0 C 2750.0,7632.0 2743.0,7642.0 2723.0,7652.0 C 2696.0,7665.0 2695.0,7668.0 2698.0,7727.0 C 2703.0,7807.0 2695.0,7830.0 2664.0,7830.0 C 2643.0,7830.0 2640.0,7835.0 2640.0,7864.0 C 2640.0,7911.0 2649.0,7930.0 2671.0,7930.0 C 2708.0,7930.0 2770.0,7962.0 2795.0,7995.0 C 2812.0,8019.0 2832.0,8031.0 2858.0,8036.0 C 2878.0,8040.0 2912.0,8054.0 2932.0,8067.0 C 2955.0,8081.0 2985.0,8090.0 3009.0,8090.0 C 3040.0,8090.0 3052.0,8095.0 3060.0,8111.0 C 3067.0,8122.0 3070.0,8133.0 3068.0,8134.0 C 3066.0,8135.0 3052.0,8142.0 3036.0,8148.0 C 3010.0,8160.0 3008.0,8164.0 3014.0,8199.0 C 3020.0,8237.0 3020.0,8237.0 2970.0,8258.0 C 2938.0,8271.0 2918.0,8275.0 2914.0,8268.0 C 2911.0,8263.0 2896.0,8260.0 2882.0,8263.0 C 2868.0,8266.0 2846.0,8262.0 2835.0,8254.0 C 2816.0,8241.0 2811.0,8242.0 2800.0,8255.0 C 2783.0,8275.0 2771.0,8274.0 2744.0,8248.0 C 2693.0,8199.0 2679.0,8190.0 2649.0,8190.0 C 2617.0,8190.0 2610.0,8184.0 2515.0,8075.0 C 2484.0,8040.0 2469.0,8030.0 2444.0,8030.0 C 2422.0,8030.0 2395.0,8016.0 2349.0,7979.0 C 2246.0,7897.0 2210.0,7858.0 2210.0,7828.0 C 2210.0,7789.0 2220.0,7770.0 2240.0,7770.0 C 2264.0,7770.0 2274.0,7729.0 2254.0,7713.0 C 2244.0,7706.0 2241.0,7694.0 2245.0,7681.0 C 2249.0,7668.0 2244.0,7654.0 2231.0,7641.0 C 2219.0,7629.0 2210.0,7607.0 2210.0,7591.0 C 2210.0,7562.0 2189.0,7534.0 2177.0,7547.0 C 2167.0,7557.0 2169.0,7615.0 2180.0,7646.0 C 2186.0,7662.0 2187.0,7677.0 2181.0,7684.0 C 2176.0,7690.0 2169.0,7710.0 2165.0,7728.0 C 2161.0,7749.0 2149.0,7765.0 2131.0,7775.0 C 2104.0,7788.0 2101.0,7787.0 2071.0,7757.0 C 2054.0,7739.0 2040.0,7719.0 2040.0,7712.0 C 2040.0,7705.0 2025.0,7700.0 2002.0,7700.0 C 1976.0,7700.0 1957.0,7693.0 1945.0,7680.0 C 1935.0,7669.0 1916.0,7660.0 1903.0,7660.0 C 1890.0,7660.0 1877.0,7653.0 1874.0,7645.0 C 1870.0,7637.0 1858.0,7630.0 1846.0,7630.0 C 1804.0,7630.0 1780.0,7603.0 1780.0,7554.0 C 1780.0,7512.0 1783.0,7508.0 1839.0,7464.0 C 1879.0,7433.0 1908.0,7400.0 1926.0,7365.0 C 1953.0,7314.0 1953.0,7311.0 1937.0,7287.0 C 1913.0,7250.0 1914.0,7194.0 1940.0,7187.0 C 1951.0,7184.0 1960.0,7175.0 1960.0,7166.0 C 1960.0,7153.0 1956.0,7151.0 1941.0,7160.0 C 1912.0,7175.0 1909.0,7183.0 1906.0,7265.0 C 1902.0,7354.0 1895.0,7365.0 1805.0,7409.0 C 1771.0,7426.0 1739.0,7447.0 1736.0,7455.0 C 1733.0,7463.0 1720.0,7470.0 1706.0,7470.0 C 1687.0,7470.0 1677.0,7460.0 1661.0,7426.0 C 1649.0,7402.0 1639.0,7367.0 1640.0,7349.0 C 1641.0,7279.0 1631.0,7228.0 1614.0,7209.0 C 1605.0,7199.0 1592.0,7180.0 1586.0,7168.0 C 1580.0,7156.0 1569.0,7145.0 1563.0,7142.0 C 1543.0,7136.0 1558.0,7254.0 1585.0,7320.0 C 1598.0,7350.0 1611.0,7389.0 1614.0,7406.0 C 1624.0,7453.0 1676.0,7549.0 1720.0,7601.0 C 1742.0,7627.0 1767.0,7664.0 1777.0,7684.0 C 1794.0,7720.0 1862.0,7770.0 1894.0,7770.0 C 1923.0,7770.0 1944.0,7843.0 1918.0,7853.0 C 1899.0,7861.0 1929.0,7880.0 1959.0,7880.0 C 1972.0,7880.0 2001.0,7893.0 2025.0,7909.0 C 2049.0,7925.0 2077.0,7941.0 2087.0,7944.0 C 2097.0,7947.0 2131.0,7974.0 2162.0,8004.0 C 2218.0,8058.0 2345.0,8140.0 2373.0,8140.0 C 2394.0,8140.0 2406.0,8160.0 2413.0,8202.0 C 2417.0,8229.0 2433.0,8252.0 2476.0,8294.0 C 2508.0,8325.0 2539.0,8350.0 2544.0,8350.0 C 2550.0,8351.0 2570.0,8364.0 2589.0,8380.0 C 2608.0,8396.0 2652.0,8419.0 2687.0,8431.0 L 2750.0,8452.0 L 2750.0,8498.0 C 2750.0,8524.0 2744.0,8556.0 2737.0,8570.0 C 2721.0,8602.0 2690.0,8609.0 2690.0,8581.0 C 2690.0,8568.0 2676.0,8551.0 2652.0,8536.0 C 2632.0,8523.0 2609.0,8506.0 2602.0,8497.0 C 2595.0,8488.0 2551.0,8469.0 2504.0,8454.0 C 2430.0,8431.0 2414.0,8421.0 2372.0,8375.0 C 2345.0,8346.0 2313.0,8319.0 2299.0,8315.0 C 2286.0,8311.0 2268.0,8302.0 2260.0,8296.0 C 2212.0,8257.0 2052.0,8190.0 2008.0,8190.0 C 1982.0,8190.0 2025.0,8219.0 2065.0,8229.0 C 2100.0,8238.0 2120.0,8253.0 2167.0,8305.0 C 2198.0,8340.0 2238.0,8375.0 2255.0,8382.0 C 2286.0,8394.0 2321.0,8420.0 2394.0,8483.0 C 2418.0,8503.0 2442.0,8520.0 2447.0,8520.0 C 2463.0,8520.0 2490.0,8555.0 2490.0,8577.0 C 2490.0,8588.0 2483.0,8603.0 2474.0,8611.0 C 2461.0,8621.0 2454.0,8621.0 2430.0,8607.0 C 2415.0,8598.0 2389.0,8590.0 2374.0,8590.0 C 2359.0,8590.0 2339.0,8584.0 2331.0,8576.0 C 2322.0,8568.0 2284.0,8555.0 2245.0,8547.0 C 2173.0,8532.0 2064.0,8484.0 2041.0,8456.0 C 2033.0,8447.0 2019.0,8440.0 2009.0,8440.0 C 1982.0,8440.0 1985.0,8477.0 2013.0,8486.0 C 2025.0,8490.0 2066.0,8510.0 2103.0,8531.0 C 2141.0,8553.0 2177.0,8570.0 2182.0,8570.0 C 2188.0,8570.0 2216.0,8588.0 2244.0,8609.0 C 2272.0,8631.0 2309.0,8654.0 2325.0,8662.0 C 2342.0,8669.0 2364.0,8686.0 2374.0,8698.0 C 2384.0,8711.0 2413.0,8730.0 2437.0,8741.0 C 2460.0,8751.0 2480.0,8764.0 2480.0,8769.0 C 2480.0,8774.0 2483.0,8785.0 2486.0,8794.0 C 2494.0,8814.0 2465.0,8816.0 2453.0,8797.0 C 2432.0,8762.0 2360.0,8772.0 2360.0,8810.0 C 2360.0,8832.0 2313.0,8866.0 2267.0,8876.0 C 2252.0,8879.0 2241.0,8887.0 2243.0,8893.0 C 2246.0,8901.0 2270.0,8904.0 2314.0,8902.0 C 2382.0,8899.0 2410.0,8909.0 2410.0,8936.0 C 2410.0,8944.0 2399.0,8955.0 2385.0,8960.0 C 2370.0,8966.0 2353.0,8985.0 2344.0,9005.0 C 2326.0,9048.0 2288.0,9068.0 2234.0,9062.0 C 2210.0,9060.0 2189.0,9063.0 2186.0,9069.0 C 2178.0,9082.0 2163.0,9083.0 2157.0,9073.0 M 2720.0,2520.0 C 2720.0,2515.0 2711.0,2506.0 2701.0,2501.0 C 2687.0,2493.0 2681.0,2494.0 2677.0,2504.0 C 2674.0,2512.0 2674.0,2521.0 2677.0,2524.0 C 2687.0,2534.0 2720.0,2531.0 2720.0,2520.0" fill="pink"/>
	<path d="M 4617.0,8972.0 C 4590.0,8956.0 4589.0,8952.0 4595.0,8910.0 C 4598.0,8885.0 4604.0,8841.0 4607.0,8812.0 C 4612.0,8767.0 4617.0,8757.0 4642.0,8744.0 C 4661.0,8734.0 4683.0,8731.0 4705.0,8736.0 C 4734.0,8741.0 4740.0,8747.0 4740.0,8767.0 C 4740.0,8785.0 4732.0,8794.0 4710.0,8801.0 C 4683.0,8811.0 4680.0,8816.0 4680.0,8854.0 C 4680.0,8889.0 4684.0,8899.0 4705.0,8910.0 C 4720.0,8918.0 4730.0,8932.0 4730.0,8946.0 C 4730.0,8964.0 4722.0,8971.0 4693.0,8979.0 C 4646.0,8992.0 4651.0,8993.0 4617.0,8972.0" fill="pink"/>
	<path d="M 4545.0,8589.0 C 4520.0,8542.0 4531.0,8526.0 4582.0,8534.0 C 4629.0,8542.0 4640.0,8552.0 4640.0,8593.0 C 4640.0,8618.0 4637.0,8620.0 4600.0,8620.0 C 4566.0,8620.0 4558.0,8616.0 4545.0,8589.0" fill="pink"/>
	<path d="M 4340.0,7738.0 C 4321.0,7726.0 4283.0,7708.0 4255.0,7698.0 C 4228.0,7687.0 4202.0,7673.0 4198.0,7667.0 C 4187.0,7650.0 4188.0,7551.0 4199.0,7514.0 C 4208.0,7483.0 4313.0,7348.0 4348.0,7324.0 C 4358.0,7317.0 4379.0,7293.0 4395.0,7271.0 C 4417.0,7239.0 4426.0,7232.0 4436.0,7241.0 C 4447.0,7250.0 4450.0,7249.0 4450.0,7239.0 C 4451.0,7207.0 4466.0,7198.0 4513.0,7205.0 C 4550.0,7211.0 4559.0,7217.0 4564.0,7236.0 C 4568.0,7249.0 4588.0,7272.0 4610.0,7286.0 C 4632.0,7300.0 4652.0,7320.0 4655.0,7330.0 C 4658.0,7339.0 4674.0,7359.0 4690.0,7374.0 C 4707.0,7388.0 4720.0,7409.0 4720.0,7419.0 C 4720.0,7429.0 4729.0,7448.0 4739.0,7461.0 C 4758.0,7485.0 4758.0,7485.0 4738.0,7507.0 C 4722.0,7524.0 4713.0,7527.0 4693.0,7519.0 C 4662.0,7507.0 4630.0,7524.0 4630.0,7552.0 C 4630.0,7572.0 4627.0,7572.0 4545.0,7565.0 C 4477.0,7560.0 4460.0,7561.0 4460.0,7572.0 C 4460.0,7579.0 4469.0,7591.0 4480.0,7598.0 C 4501.0,7611.0 4507.0,7649.0 4490.0,7666.0 C 4482.0,7674.0 4484.0,7681.0 4495.0,7690.0 C 4509.0,7702.0 4508.0,7706.0 4484.0,7732.0 C 4450.0,7767.0 4393.0,7769.0 4340.0,7738.0" fill="pink"/>
	<path d="M 3198.0,7522.0 C 3183.0,7513.0 3154.0,7477.0 3133.0,7441.0 C 3112.0,7405.0 3083.0,7362.0 3068.0,7345.0 C 3051.0,7325.0 3031.0,7277.0 3011.0,7208.0 C 2972.0,7074.0 2928.0,6975.0 2901.0,6960.0 C 2878.0,6948.0 2871.0,6895.0 2892.0,6888.0 C 2912.0,6881.0 2915.0,6675.0 2896.0,6610.0 C 2886.0,6578.0 2882.0,6542.0 2886.0,6522.0 C 2893.0,6484.0 2929.0,6455.0 2959.0,6465.0 C 2983.0,6472.0 3090.0,6574.0 3090.0,6590.0 C 3090.0,6611.0 3142.0,6691.0 3167.0,6707.0 C 3205.0,6732.0 3233.0,6796.0 3226.0,6841.0 C 3219.0,6884.0 3230.0,6896.0 3274.0,6891.0 C 3302.0,6888.0 3303.0,6889.0 3298.0,6932.0 C 3288.0,7010.0 3275.0,7030.0 3235.0,7030.0 C 3192.0,7030.0 3191.0,7038.0 3231.0,7076.0 C 3259.0,7102.0 3262.0,7103.0 3271.0,7088.0 C 3277.0,7078.0 3290.0,7070.0 3300.0,7070.0 C 3317.0,7070.0 3320.0,7077.0 3320.0,7115.0 C 3320.0,7153.0 3326.0,7166.0 3356.0,7200.0 C 3392.0,7240.0 3395.0,7263.0 3368.0,7298.0 C 3351.0,7318.0 3341.0,7312.0 3309.0,7260.0 C 3276.0,7207.0 3248.0,7196.0 3230.0,7229.0 C 3217.0,7254.0 3217.0,7297.0 3230.0,7305.0 C 3247.0,7315.0 3241.0,7356.0 3220.0,7375.0 C 3193.0,7399.0 3195.0,7423.0 3227.0,7471.0 C 3250.0,7505.0 3251.0,7513.0 3239.0,7525.0 C 3227.0,7537.0 3221.0,7537.0 3198.0,7522.0" fill="pink"/>
	<path d="M 4263.0,7283.0 C 4256.0,7280.0 4250.0,7266.0 4250.0,7252.0 C 4250.0,7237.0 4241.0,7212.0 4230.0,7195.0 C 4205.0,7157.0 4205.0,7133.0 4230.0,7125.0 C 4245.0,7120.0 4250.0,7110.0 4250.0,7081.0 C 4250.0,7037.0 4278.0,7002.0 4298.0,7022.0 C 4305.0,7029.0 4310.0,7044.0 4310.0,7056.0 C 4310.0,7073.0 4319.0,7081.0 4344.0,7090.0 C 4371.0,7098.0 4382.0,7110.0 4390.0,7136.0 C 4401.0,7167.0 4400.0,7174.0 4383.0,7193.0 C 4372.0,7205.0 4356.0,7227.0 4347.0,7241.0 C 4331.0,7268.0 4285.0,7290.0 4263.0,7283.0" fill="pink"/>
	<path d="M 3890.0,7237.0 C 3858.0,7221.0 3840.0,7204.0 3827.0,7178.0 C 3818.0,7157.0 3806.0,7140.0 3801.0,7140.0 C 3796.0,7140.0 3789.0,7122.0 3785.0,7100.0 C 3777.0,7052.0 3764.0,7041.0 3745.0,7066.0 C 3728.0,7089.0 3717.0,7079.0 3700.0,7028.0 C 3694.0,7007.0 3682.0,6990.0 3674.0,6990.0 C 3619.0,6990.0 3528.0,6905.0 3492.0,6819.0 C 3481.0,6794.0 3460.0,6764.0 3446.0,6752.0 C 3431.0,6741.0 3415.0,6717.0 3408.0,6698.0 C 3391.0,6648.0 3380.0,6638.0 3349.0,6645.0 C 3327.0,6650.0 3320.0,6647.0 3315.0,6628.0 C 3311.0,6615.0 3289.0,6585.0 3266.0,6560.0 C 3243.0,6535.0 3209.0,6490.0 3190.0,6460.0 C 3161.0,6415.0 3155.0,6396.0 3155.0,6350.0 C 3155.0,6320.0 3161.0,6276.0 3169.0,6252.0 C 3180.0,6220.0 3181.0,6195.0 3174.0,6145.0 C 3163.0,6075.0 3171.0,6048.0 3216.0,6000.0 C 3250.0,5963.0 3264.0,5892.0 3256.0,5794.0 C 3253.0,5748.0 3244.0,5696.0 3236.0,5678.0 C 3208.0,5612.0 3200.0,5565.0 3207.0,5515.0 C 3214.0,5473.0 3219.0,5464.0 3239.0,5462.0 C 3254.0,5459.0 3273.0,5468.0 3294.0,5487.0 C 3374.0,5562.0 3457.0,5590.0 3597.0,5590.0 C 3755.0,5590.0 3825.0,5614.0 3761.0,5646.0 C 3729.0,5663.0 3751.0,5673.0 3803.0,5665.0 C 3834.0,5660.0 3857.0,5664.0 3893.0,5679.0 C 3944.0,5701.0 3953.0,5722.0 3919.0,5741.0 C 3907.0,5747.0 3880.0,5770.0 3860.0,5791.0 C 3828.0,5825.0 3817.0,5830.0 3778.0,5830.0 C 3747.0,5830.0 3717.0,5822.0 3689.0,5805.0 C 3640.0,5777.0 3610.0,5773.0 3610.0,5794.0 C 3610.0,5817.0 3708.0,5858.0 3780.0,5865.0 C 3837.0,5870.0 3850.0,5876.0 3883.0,5908.0 C 3913.0,5937.0 3920.0,5951.0 3920.0,5981.0 C 3920.0,6024.0 3896.0,6039.0 3860.0,6020.0 C 3849.0,6014.0 3840.0,6012.0 3840.0,6015.0 C 3840.0,6026.0 3862.0,6065.0 3880.0,6085.0 C 3890.0,6096.0 3901.0,6122.0 3904.0,6142.0 C 3911.0,6180.0 3911.0,6180.0 3871.0,6186.0 C 3845.0,6190.0 3830.0,6198.0 3827.0,6210.0 C 3820.0,6237.0 3839.0,6250.0 3888.0,6250.0 C 3925.0,6250.0 3938.0,6256.0 3967.0,6285.0 C 3999.0,6317.0 4001.0,6323.0 3995.0,6360.0 C 3988.0,6400.0 3990.0,6402.0 4040.0,6448.0 C 4070.0,6475.0 4115.0,6533.0 4147.0,6587.0 C 4185.0,6651.0 4208.0,6680.0 4223.0,6682.0 C 4235.0,6684.0 4250.0,6696.0 4256.0,6710.0 C 4272.0,6743.0 4310.0,6884.0 4305.0,6889.0 C 4302.0,6891.0 4258.0,6895.0 4207.0,6898.0 L 4113.0,6903.0 L 4050.0,6860.0 C 3998.0,6825.0 3976.0,6816.0 3924.0,6811.0 C 3869.0,6805.0 3854.0,6798.0 3801.0,6757.0 C 3764.0,6727.0 3739.0,6714.0 3735.0,6721.0 C 3718.0,6748.0 3850.0,6845.0 4013.0,6926.0 C 4104.0,6972.0 4111.0,6977.0 4105.0,7000.0 C 4095.0,7038.0 4083.0,7046.0 4059.0,7032.0 C 4024.0,7010.0 4023.0,7030.0 4057.0,7060.0 C 4078.0,7079.0 4089.0,7099.0 4091.0,7122.0 C 4093.0,7150.0 4086.0,7162.0 4041.0,7208.0 C 3980.0,7267.0 3960.0,7271.0 3890.0,7237.0" fill="pink"/>
	<path d="M 4570.0,6365.0 C 4554.0,6329.0 4543.0,6294.0 4546.0,6286.0 C 4549.0,6279.0 4544.0,6267.0 4535.0,6260.0 C 4499.0,6230.0 4525.0,6202.0 4569.0,6225.0 C 4597.0,6239.0 4600.0,6239.0 4609.0,6222.0 C 4619.0,6206.0 4621.0,6206.0 4635.0,6225.0 C 4645.0,6237.0 4648.0,6255.0 4645.0,6272.0 C 4641.0,6286.0 4646.0,6319.0 4654.0,6345.0 C 4679.0,6417.0 4676.0,6430.0 4635.0,6430.0 C 4601.0,6430.0 4598.0,6427.0 4570.0,6365.0" fill="pink"/>
	<path d="M 5493.0,6280.0 C 5453.0,6256.0 5452.0,6243.0 5485.0,6228.0 C 5504.0,6220.0 5516.0,6220.0 5535.0,6228.0 C 5549.0,6235.0 5570.0,6240.0 5580.0,6240.0 C 5610.0,6240.0 5606.0,6278.0 5574.0,6290.0 C 5539.0,6304.0 5530.0,6303.0 5493.0,6280.0" fill="pink"/>
	<path d="M 5495.0,6140.0 C 5484.0,6135.0 5456.0,6131.0 5432.0,6131.0 C 5409.0,6130.0 5373.0,6123.0 5353.0,6115.0 C 5334.0,6107.0 5303.0,6100.0 5284.0,6100.0 C 5244.0,6100.0 5233.0,6085.0 5255.0,6060.0 C 5280.0,6032.0 5351.0,6024.0 5383.0,6044.0 C 5396.0,6053.0 5434.0,6065.0 5466.0,6070.0 C 5536.0,6082.0 5557.0,6098.0 5541.0,6129.0 C 5528.0,6152.0 5525.0,6153.0 5495.0,6140.0" fill="pink"/>
	<path d="M 5605.0,5505.0 C 5575.0,5476.0 5569.0,5396.0 5596.0,5386.0 C 5624.0,5375.0 5670.0,5380.0 5701.0,5396.0 C 5728.0,5409.0 5731.0,5415.0 5725.0,5443.0 C 5718.0,5477.0 5669.0,5530.0 5644.0,5530.0 C 5636.0,5530.0 5618.0,5519.0 5605.0,5505.0" fill="pink"/>
	<path d="M 5391.0,5170.0 C 5361.0,5153.0 5330.0,5140.0 5322.0,5140.0 C 5304.0,5140.0 5258.0,5092.0 5265.0,5080.0 C 5267.0,5076.0 5299.0,5064.0 5335.0,5055.0 C 5372.0,5045.0 5399.0,5032.0 5397.0,5026.0 C 5391.0,5009.0 5354.0,5007.0 5338.0,5023.0 C 5303.0,5059.0 5214.0,5045.0 5190.0,5000.0 C 5184.0,4989.0 5171.0,4980.0 5160.0,4980.0 C 5134.0,4980.0 4987.0,4926.0 4958.0,4906.0 C 4946.0,4897.0 4928.0,4890.0 4919.0,4890.0 C 4898.0,4890.0 4837.0,4813.0 4844.0,4795.0 C 4847.0,4787.0 4865.0,4778.0 4885.0,4774.0 C 4904.0,4771.0 4923.0,4764.0 4926.0,4758.0 C 4935.0,4744.0 5040.0,4699.0 5090.0,4689.0 C 5248.0,4658.0 5314.0,4650.0 5324.0,4660.0 C 5329.0,4665.0 5351.0,4670.0 5371.0,4670.0 C 5416.0,4670.0 5440.0,4693.0 5413.0,4709.0 C 5398.0,4717.0 5403.0,4719.0 5436.0,4720.0 C 5481.0,4720.0 5504.0,4738.0 5494.0,4764.0 C 5489.0,4778.0 5495.0,4780.0 5533.0,4778.0 C 5582.0,4775.0 5596.0,4788.0 5562.0,4806.0 C 5550.0,4812.0 5532.0,4828.0 5521.0,4841.0 C 5505.0,4861.0 5504.0,4869.0 5515.0,4883.0 C 5522.0,4892.0 5533.0,4900.0 5541.0,4900.0 C 5559.0,4901.0 5513.0,4940.0 5494.0,4940.0 C 5475.0,4940.0 5476.0,4964.0 5495.0,4980.0 C 5504.0,4987.0 5509.0,4999.0 5506.0,5007.0 C 5503.0,5015.0 5506.0,5030.0 5513.0,5040.0 C 5523.0,5057.0 5521.0,5062.0 5502.0,5075.0 C 5470.0,5098.0 5474.0,5113.0 5510.0,5105.0 C 5541.0,5098.0 5575.0,5114.0 5565.0,5131.0 C 5562.0,5135.0 5574.0,5143.0 5592.0,5148.0 L 5625.0,5157.0 L 5583.0,5178.0 C 5522.0,5210.0 5458.0,5207.0 5391.0,5170.0" fill="pink"/>
	<path d="M 5013.0,4448.0 C 4960.0,4391.0 5010.0,4357.0 5135.0,4364.0 C 5176.0,4367.0 5214.0,4371.0 5219.0,4375.0 C 5224.0,4378.0 5219.0,4391.0 5206.0,4403.0 C 5194.0,4415.0 5179.0,4433.0 5174.0,4442.0 C 5168.0,4454.0 5145.0,4461.0 5100.0,4465.0 C 5040.0,4472.0 5033.0,4470.0 5013.0,4448.0" fill="pink"/>
	<path d="M 425.0,3762.0 C 401.0,3742.0 376.0,3675.0 385.0,3659.0 C 390.0,3653.0 407.0,3651.0 431.0,3655.0 C 456.0,3659.0 470.0,3658.0 470.0,3651.0 C 470.0,3645.0 462.0,3640.0 451.0,3640.0 C 441.0,3640.0 427.0,3634.0 421.0,3627.0 C 415.0,3619.0 398.0,3615.0 380.0,3618.0 C 355.0,3622.0 349.0,3618.0 340.0,3595.0 C 333.0,3575.0 333.0,3564.0 341.0,3554.0 C 347.0,3546.0 350.0,3531.0 347.0,3520.0 C 339.0,3487.0 400.0,3462.0 500.0,3457.0 C 552.0,3455.0 585.0,3449.0 588.0,3442.0 C 593.0,3427.0 637.0,3426.0 645.0,3441.0 C 649.0,3447.0 689.0,3450.0 749.0,3449.0 C 845.0,3447.0 876.0,3452.0 865.0,3471.0 C 850.0,3495.0 897.0,3476.0 939.0,3441.0 C 984.0,3403.0 986.0,3402.0 1022.0,3415.0 C 1053.0,3425.0 1060.0,3425.0 1064.0,3414.0 C 1072.0,3393.0 1100.0,3397.0 1100.0,3419.0 C 1100.0,3429.0 1107.0,3444.0 1116.0,3451.0 C 1129.0,3461.0 1131.0,3475.0 1127.0,3512.0 C 1123.0,3540.0 1125.0,3562.0 1131.0,3566.0 C 1137.0,3570.0 1135.0,3579.0 1124.0,3591.0 C 1112.0,3604.0 1100.0,3608.0 1081.0,3603.0 L 1055.0,3597.0 L 1078.0,3622.0 C 1104.0,3651.0 1101.0,3687.0 1070.0,3715.0 C 1054.0,3730.0 1051.0,3729.0 1032.0,3706.0 C 1020.0,3690.0 1002.0,3680.0 987.0,3680.0 C 951.0,3680.0 930.0,3670.0 930.0,3654.0 C 930.0,3646.0 920.0,3640.0 905.0,3640.0 C 891.0,3640.0 880.0,3636.0 880.0,3631.0 C 880.0,3618.0 851.0,3590.0 838.0,3590.0 C 832.0,3590.0 831.0,3602.0 835.0,3621.0 L 842.0,3651.0 L 778.0,3644.0 C 679.0,3632.0 677.0,3633.0 670.0,3659.0 C 667.0,3672.0 656.0,3688.0 645.0,3694.0 C 634.0,3700.0 623.0,3708.0 620.0,3711.0 C 617.0,3714.0 593.0,3722.0 565.0,3729.0 C 538.0,3737.0 503.0,3751.0 488.0,3761.0 C 455.0,3784.0 450.0,3784.0 425.0,3762.0" fill="pink"/>
	<path d="M 6715.0,3469.0 C 6689.0,3456.0 6667.0,3423.0 6675.0,3410.0 C 6679.0,3404.0 6692.0,3400.0 6705.0,3400.0 C 6717.0,3400.0 6730.0,3393.0 6734.0,3385.0 C 6740.0,3368.0 6770.0,3364.0 6770.0,3380.0 C 6770.0,3405.0 6792.0,3390.0 6875.0,3309.0 C 6892.0,3293.0 6910.0,3280.0 6916.0,3280.0 C 6923.0,3280.0 6930.0,3271.0 6933.0,3260.0 C 6940.0,3231.0 6966.0,3235.0 6991.0,3269.0 C 7006.0,3290.0 7025.0,3301.0 7051.0,3305.0 C 7073.0,3309.0 7092.0,3316.0 7096.0,3321.0 C 7107.0,3339.0 7089.0,3370.0 7068.0,3370.0 C 7056.0,3370.0 7030.0,3388.0 7010.0,3410.0 C 6978.0,3445.0 6967.0,3450.0 6929.0,3450.0 C 6905.0,3451.0 6865.0,3455.0 6840.0,3461.0 C 6758.0,3478.0 6735.0,3480.0 6715.0,3469.0" fill="pink"/>
	<path d="M 6403.0,3063.0 C 6396.0,3060.0 6390.0,3047.0 6390.0,3034.0 C 6390.0,3014.0 6385.0,3010.0 6361.0,3010.0 C 6328.0,3010.0 6320.0,2996.0 6320.0,2938.0 C 6320.0,2905.0 6327.0,2892.0 6358.0,2861.0 C 6379.0,2840.0 6402.0,2805.0 6409.0,2783.0 C 6417.0,2759.0 6443.0,2722.0 6469.0,2696.0 C 6510.0,2656.0 6523.0,2649.0 6571.0,2643.0 C 6613.0,2638.0 6631.0,2630.0 6653.0,2607.0 C 6668.0,2591.0 6680.0,2567.0 6680.0,2555.0 C 6680.0,2518.0 6691.0,2500.0 6712.0,2500.0 C 6722.0,2500.0 6745.0,2493.0 6762.0,2484.0 C 6792.0,2469.0 6794.0,2469.0 6807.0,2486.0 C 6823.0,2508.0 6824.0,2522.0 6809.0,2537.0 C 6796.0,2550.0 6805.0,2570.0 6826.0,2570.0 C 6847.0,2570.0 6843.0,2589.0 6814.0,2627.0 C 6798.0,2648.0 6781.0,2660.0 6764.0,2660.0 C 6751.0,2660.0 6741.0,2665.0 6743.0,2672.0 C 6746.0,2687.0 6707.0,2698.0 6640.0,2699.0 C 6577.0,2701.0 6559.0,2711.0 6540.0,2760.0 C 6533.0,2779.0 6521.0,2802.0 6513.0,2811.0 C 6495.0,2832.0 6497.0,2850.0 6516.0,2850.0 C 6525.0,2850.0 6534.0,2841.0 6537.0,2830.0 C 6542.0,2812.0 6616.0,2763.0 6625.0,2772.0 C 6627.0,2774.0 6623.0,2799.0 6616.0,2828.0 C 6607.0,2868.0 6596.0,2887.0 6573.0,2906.0 C 6556.0,2919.0 6528.0,2953.0 6511.0,2980.0 C 6494.0,3008.0 6475.0,3030.0 6468.0,3030.0 C 6462.0,3030.0 6447.0,3038.0 6436.0,3049.0 C 6424.0,3059.0 6409.0,3065.0 6403.0,3063.0" fill="pink"/>
	<path d="M 6433.0,2403.0 C 6405.0,2384.0 6404.0,2360.0 6430.0,2337.0 C 6442.0,2327.0 6450.0,2308.0 6450.0,2290.0 C 6450.0,2265.0 6454.0,2260.0 6475.0,2260.0 C 6497.0,2260.0 6500.0,2256.0 6500.0,2221.0 C 6500.0,2186.0 6503.0,2182.0 6533.0,2175.0 C 6550.0,2170.0 6572.0,2166.0 6580.0,2166.0 C 6588.0,2165.0 6609.0,2150.0 6627.0,2133.0 C 6646.0,2113.0 6668.0,2100.0 6684.0,2100.0 C 6721.0,2100.0 6749.0,2087.0 6810.0,2041.0 C 6841.0,2017.0 6881.0,1997.0 6903.0,1993.0 C 6923.0,1990.0 6943.0,1983.0 6946.0,1979.0 C 6949.0,1974.0 6962.0,1970.0 6976.0,1970.0 C 6989.0,1970.0 7008.0,1963.0 7018.0,1955.0 C 7027.0,1946.0 7052.0,1926.0 7073.0,1908.0 C 7094.0,1891.0 7117.0,1865.0 7125.0,1851.0 C 7132.0,1837.0 7158.0,1804.0 7182.0,1778.0 C 7220.0,1737.0 7231.0,1730.0 7277.0,1725.0 C 7321.0,1719.0 7331.0,1721.0 7336.0,1735.0 C 7345.0,1758.0 7320.0,1831.0 7296.0,1850.0 C 7232.0,1901.0 7195.0,1939.0 7184.0,1965.0 C 7166.0,2010.0 7142.0,2027.0 7070.0,2047.0 C 7018.0,2061.0 6997.0,2073.0 6968.0,2105.0 C 6948.0,2128.0 6929.0,2157.0 6925.0,2172.0 C 6921.0,2186.0 6901.0,2214.0 6880.0,2235.0 C 6838.0,2276.0 6764.0,2300.0 6678.0,2300.0 C 6651.0,2300.0 6630.0,2305.0 6630.0,2310.0 C 6630.0,2316.0 6620.0,2320.0 6608.0,2320.0 C 6575.0,2320.0 6522.0,2356.0 6502.0,2390.0 C 6483.0,2423.0 6466.0,2427.0 6433.0,2403.0" fill="pink"/>
	<path d="M 5850.0,2129.0 C 5850.0,2080.0 5888.0,1965.0 5910.0,1945.0 C 5921.0,1935.0 5930.0,1919.0 5930.0,1909.0 C 5930.0,1890.0 5955.0,1860.0 5971.0,1860.0 C 5984.0,1860.0 5982.0,1903.0 5964.0,1991.0 C 5950.0,2061.0 5943.0,2074.0 5904.0,2115.0 C 5879.0,2140.0 5857.0,2160.0 5855.0,2160.0 C 5852.0,2160.0 5850.0,2146.0 5850.0,2129.0" fill="pink"/>
	<path d="M 3613.0,1693.0 C 3580.0,1680.0 3614.0,1610.0 3653.0,1610.0 C 3673.0,1610.0 3674.0,1625.0 3659.0,1669.0 C 3648.0,1699.0 3639.0,1704.0 3613.0,1693.0" fill="pink"/>
	<path d="M 3340.0,1661.0 C 3340.0,1650.0 3351.0,1633.0 3365.0,1622.0 C 3399.0,1595.0 3396.0,1579.0 3355.0,1552.0 C 3315.0,1527.0 3311.0,1502.0 3340.0,1475.0 C 3351.0,1465.0 3360.0,1451.0 3360.0,1444.0 C 3360.0,1431.0 3390.0,1410.0 3408.0,1410.0 C 3413.0,1410.0 3425.0,1425.0 3434.0,1443.0 C 3451.0,1473.0 3451.0,1479.0 3436.0,1530.0 C 3427.0,1559.0 3420.0,1596.0 3420.0,1612.0 C 3420.0,1633.0 3412.0,1645.0 3388.0,1660.0 C 3347.0,1685.0 3340.0,1685.0 3340.0,1661.0" fill="pink"/>
	<path d="M 5912.0,1598.0 C 5904.0,1567.0 5907.0,1561.0 5952.0,1513.0 C 6005.0,1455.0 6009.0,1440.0 5980.0,1392.0 C 5965.0,1368.0 5960.0,1342.0 5960.0,1295.0 C 5960.0,1233.0 5961.0,1230.0 5984.0,1230.0 C 6013.0,1230.0 6027.0,1246.0 6032.0,1285.0 C 6034.0,1306.0 6043.0,1319.0 6063.0,1328.0 C 6082.0,1337.0 6090.0,1349.0 6090.0,1366.0 C 6090.0,1403.0 6064.0,1457.0 6041.0,1470.0 C 6029.0,1476.0 6006.0,1508.0 5990.0,1542.0 C 5943.0,1640.0 5926.0,1651.0 5912.0,1598.0" fill="pink"/>
	<path d="M 6076.0,1274.0 C 6073.0,1265.0 6070.0,1247.0 6070.0,1234.0 C 6070.0,1220.0 6063.0,1207.0 6055.0,1204.0 C 6047.0,1201.0 6036.0,1183.0 6030.0,1164.0 C 6020.0,1135.0 6021.0,1125.0 6034.0,1105.0 C 6043.0,1092.0 6050.0,1074.0 6050.0,1065.0 C 6050.0,1055.0 6060.0,1050.0 6081.0,1050.0 C 6118.0,1050.0 6210.0,1021.0 6210.0,1009.0 C 6210.0,1004.0 6223.0,1000.0 6239.0,1000.0 C 6266.0,1000.0 6267.0,1002.0 6274.0,1062.0 C 6280.0,1120.0 6278.0,1126.0 6252.0,1154.0 C 6236.0,1171.0 6216.0,1197.0 6207.0,1213.0 C 6197.0,1228.0 6184.0,1240.0 6176.0,1240.0 C 6169.0,1240.0 6158.0,1251.0 6152.0,1265.0 C 6138.0,1294.0 6086.0,1301.0 6076.0,1274.0" fill="pink"/>
</svg>
