<?xml version="1.0" ?>
<svg xmlns="http://www.w3.org/2000/svg" xmlns:ev="http://www.w3.org/2001/xml-events" xmlns:xlink="http://www.w3.org/1999/xlink" baseProfile="full" height="600px" version="1.1" viewBox="2751.068927884809 -1023.6614948954161 4736.010491396341 12289.202231425708" width="232px">
	<defs/>
	<path d="M 3162.0,10215.0 C 3155.0,10201.0 3150.0,10187.0 3150.0,10186.0 C 3150.0,10184.0 3180.0,10169.0 3218.0,10154.0 C 3268.0,10133.0 3308.0,10124.0 3375.0,10120.0 L 3465.0,10115.0 L 3497.0,10023.0 L 3529.0,9931.0 L 3478.0,9894.0 C 3431.0,9859.0 3428.0,9854.0 3433.0,9823.0 C 3437.0,9803.0 3429.0,9742.0 3414.0,9677.0 C 3390.0,9566.0 3389.0,9565.0 3334.0,9511.0 C 3281.0,9460.0 3279.0,9455.0 3274.0,9396.0 C 3269.0,9346.0 3273.0,9324.0 3293.0,9275.0 C 3318.0,9215.0 3318.0,9215.0 3421.0,9159.0 C 3489.0,9122.0 3531.0,9092.0 3542.0,9073.0 C 3555.0,9051.0 3578.0,9037.0 3639.0,9015.0 L 3719.0,8986.0 L 3761.0,8876.0 C 3784.0,8815.0 3807.0,8759.0 3813.0,8753.0 C 3818.0,8746.0 3843.0,8740.0 3869.0,8739.0 C 3984.0,8737.0 3993.0,8733.0 4065.0,8637.0 L 4132.0,8548.0 L 4176.0,8555.0 L 4220.0,8561.0 L 4220.0,8511.0 C 4220.0,8463.0 4219.0,8460.0 4188.0,8452.0 C 4160.0,8445.0 4155.0,8438.0 4139.0,8378.0 C 4122.0,8318.0 4122.0,8307.0 4135.0,8269.0 C 4143.0,8246.0 4150.0,8199.0 4150.0,8165.0 L 4150.0,8103.0 L 4210.0,8061.0 C 4266.0,8021.0 4270.0,8016.0 4270.0,7979.0 C 4270.0,7958.0 4269.0,7940.0 4268.0,7940.0 C 4266.0,7940.0 4240.0,7947.0 4210.0,7955.0 C 4149.0,7971.0 4140.0,7966.0 4140.0,7916.0 C 4140.0,7897.0 4154.0,7871.0 4181.0,7839.0 L 4222.0,7790.0 L 4191.0,7753.0 C 4164.0,7720.0 4160.0,7708.0 4160.0,7651.0 C 4160.0,7594.0 4156.0,7582.0 4120.0,7528.0 C 4085.0,7475.0 4080.0,7461.0 4080.0,7410.0 C 4080.0,7356.0 4082.0,7350.0 4111.0,7329.0 C 4138.0,7310.0 4141.0,7303.0 4137.0,7274.0 C 4133.0,7250.0 4141.0,7217.0 4166.0,7154.0 C 4185.0,7107.0 4200.0,7066.0 4198.0,7065.0 C 4196.0,7063.0 4132.0,7054.0 4055.0,7045.0 C 3978.0,7036.0 3913.0,7027.0 3911.0,7024.0 C 3909.0,7022.0 3905.0,6998.0 3902.0,6970.0 L 3897.0,6920.0 L 3974.0,6920.0 C 4016.0,6920.0 4050.0,6918.0 4050.0,6916.0 C 4050.0,6914.0 4038.0,6892.0 4024.0,6866.0 L 3999.0,6820.0 L 3938.0,6851.0 C 3905.0,6868.0 3876.0,6879.0 3874.0,6877.0 C 3871.0,6875.0 3879.0,6847.0 3890.0,6816.0 C 3915.0,6751.0 3912.0,6752.0 4039.0,6781.0 C 4123.0,6800.0 4129.0,6803.0 4135.0,6831.0 C 4139.0,6847.0 4145.0,6862.0 4150.0,6865.0 C 4155.0,6868.0 4216.0,6864.0 4287.0,6855.0 C 4357.0,6847.0 4418.0,6840.0 4423.0,6840.0 C 4427.0,6840.0 4430.0,6820.0 4430.0,6796.0 C 4430.0,6753.0 4432.0,6751.0 4498.0,6704.0 C 4535.0,6678.0 4566.0,6656.0 4567.0,6655.0 C 4569.0,6654.0 4559.0,6616.0 4545.0,6571.0 C 4530.0,6520.0 4506.0,6467.0 4481.0,6433.0 L 4442.0,6378.0 L 4467.0,6324.0 C 4480.0,6294.0 4488.0,6265.0 4484.0,6258.0 C 4480.0,6251.0 4460.0,6223.0 4439.0,6195.0 C 4417.0,6165.0 4391.0,6109.0 4374.0,6057.0 L 4346.0,5969.0 L 4408.0,5845.0 C 4479.0,5702.0 4486.0,5660.0 4446.0,5607.0 C 4425.0,5579.0 4423.0,5569.0 4430.0,5527.0 L 4437.0,5478.0 L 4383.0,5485.0 C 4335.0,5491.0 4325.0,5489.0 4304.0,5469.0 C 4281.0,5447.0 4280.0,5447.0 4240.0,5465.0 C 4200.0,5483.0 4200.0,5483.0 4175.0,5460.0 L 4150.0,5436.0 L 4174.0,5411.0 C 4190.0,5393.0 4196.0,5379.0 4191.0,5366.0 C 4186.0,5353.0 4205.0,5305.0 4253.0,5211.0 C 4291.0,5136.0 4330.0,5068.0 4339.0,5059.0 C 4348.0,5050.0 4385.0,5031.0 4421.0,5015.0 C 4466.0,4997.0 4504.0,4972.0 4536.0,4939.0 C 4582.0,4892.0 4586.0,4890.0 4641.0,4890.0 C 4696.0,4890.0 4697.0,4890.0 4714.0,4851.0 C 4731.0,4816.0 4731.0,4810.0 4716.0,4782.0 C 4691.0,4734.0 4696.0,4724.0 4753.0,4703.0 C 4800.0,4685.0 4808.0,4678.0 4834.0,4624.0 C 4850.0,4592.0 4865.0,4542.0 4868.0,4514.0 L 4872.0,4463.0 L 4800.0,4434.0 C 4751.0,4415.0 4720.0,4396.0 4704.0,4375.0 C 4691.0,4358.0 4655.0,4326.0 4624.0,4305.0 L 4568.0,4266.0 L 4604.0,4237.0 L 4640.0,4208.0 L 4615.0,4176.0 C 4591.0,4144.0 4590.0,4138.0 4590.0,3979.0 C 4590.0,3822.0 4591.0,3811.0 4619.0,3740.0 C 4657.0,3641.0 4667.0,3553.0 4646.0,3511.0 C 4632.0,3484.0 4631.0,3476.0 4643.0,3447.0 C 4656.0,3417.0 4655.0,3412.0 4634.0,3380.0 L 4611.0,3346.0 L 4631.0,3313.0 L 4652.0,3280.0 L 4621.0,3280.0 C 4594.0,3280.0 4590.0,3276.0 4585.0,3243.0 C 4563.0,3118.0 4559.0,3109.0 4505.0,3089.0 C 4478.0,3078.0 4445.0,3066.0 4434.0,3061.0 L 4412.0,3051.0 L 4432.0,2958.0 C 4443.0,2904.0 4449.0,2849.0 4445.0,2827.0 C 4440.0,2795.0 4447.0,2776.0 4486.0,2704.0 C 4511.0,2658.0 4534.0,2620.0 4536.0,2620.0 C 4539.0,2620.0 4555.0,2627.0 4572.0,2636.0 C 4594.0,2647.0 4615.0,2650.0 4650.0,2645.0 C 4707.0,2637.0 4706.0,2641.0 4716.0,2480.0 C 4724.0,2341.0 4711.0,2284.0 4639.0,2139.0 L 4591.0,2043.0 L 4597.0,1953.0 L 4603.0,1864.0 L 4521.0,1811.0 C 4477.0,1782.0 4440.0,1754.0 4440.0,1751.0 C 4440.0,1747.0 4460.0,1724.0 4485.0,1700.0 C 4510.0,1676.0 4530.0,1652.0 4530.0,1647.0 C 4530.0,1642.0 4510.0,1612.0 4485.0,1580.0 L 4440.0,1521.0 L 4485.0,1495.0 C 4524.0,1471.0 4530.0,1464.0 4530.0,1434.0 C 4530.0,1403.0 4536.0,1396.0 4602.0,1354.0 C 4642.0,1328.0 4676.0,1306.0 4678.0,1305.0 C 4680.0,1303.0 4674.0,1265.0 4664.0,1221.0 L 4647.0,1140.0 L 4686.0,1083.0 C 4719.0,1036.0 4734.0,1024.0 4780.0,1007.0 C 4872.0,974.0 4887.0,951.0 4850.0,900.0 L 4829.0,871.0 L 4864.0,803.0 C 4904.0,722.0 4908.0,719.0 5032.0,645.0 C 5086.0,614.0 5133.0,583.0 5138.0,577.0 C 5143.0,570.0 5152.0,546.0 5158.0,524.0 C 5172.0,476.0 5184.0,471.0 5275.0,469.0 C 5308.0,468.0 5348.0,465.0 5364.0,461.0 C 5393.0,455.0 5394.0,454.0 5443.0,319.0 C 5456.0,285.0 5469.0,269.0 5494.0,257.0 C 5517.0,246.0 5537.0,224.0 5557.0,188.0 L 5585.0,135.0 L 5690.0,130.0 L 5795.0,125.0 L 5801.0,67.0 C 5805.0,35.0 5809.0,7.0 5812.0,5.0 C 5814.0,2.0 5884.0,22.0 5966.0,50.0 C 6226.0,135.0 6485.0,209.0 6587.0,226.0 C 6665.0,238.0 7075.0,345.0 7088.0,355.0 C 7093.0,360.0 6970.0,754.0 6962.0,760.0 C 6957.0,763.0 6937.0,775.0 6917.0,788.0 C 6885.0,809.0 6880.0,817.0 6880.0,851.0 C 6880.0,889.0 6878.0,891.0 6780.0,955.0 L 6680.0,1019.0 L 6680.0,1077.0 C 6680.0,1123.0 6675.0,1139.0 6656.0,1159.0 C 6643.0,1174.0 6630.0,1202.0 6627.0,1222.0 C 6621.0,1259.0 6622.0,1260.0 6661.0,1270.0 C 6699.0,1280.0 6700.0,1282.0 6700.0,1323.0 C 6699.0,1353.0 6691.0,1377.0 6671.0,1404.0 L 6643.0,1443.0 L 6657.0,1522.0 L 6671.0,1602.0 L 6645.0,1636.0 C 6613.0,1678.0 6558.0,1799.0 6566.0,1811.0 C 6569.0,1816.0 6583.0,1820.0 6598.0,1821.0 C 6613.0,1821.0 6648.0,1827.0 6677.0,1833.0 L 6729.0,1845.0 L 6734.0,3090.0 L 6739.0,4335.0 L 6708.0,4444.0 C 6669.0,4587.0 6672.0,4631.0 6729.0,4742.0 L 6772.0,4825.0 L 6750.0,4880.0 C 6730.0,4932.0 6729.0,4945.0 6735.0,5095.0 C 6739.0,5185.0 6737.0,5368.0 6730.0,5513.0 C 6721.0,5718.0 6721.0,5785.0 6731.0,5834.0 L 6743.0,5897.0 L 6675.0,6027.0 L 6606.0,6158.0 L 6533.0,6201.0 C 6471.0,6239.0 6451.0,6258.0 6393.0,6339.0 C 6355.0,6391.0 6322.0,6438.0 6319.0,6444.0 C 6315.0,6450.0 6302.0,6534.0 6290.0,6630.0 C 6278.0,6726.0 6262.0,6816.0 6255.0,6830.0 C 6247.0,6846.0 6225.0,6860.0 6194.0,6870.0 C 6147.0,6886.0 6145.0,6888.0 6142.0,6929.0 C 6139.0,6964.0 6145.0,6979.0 6175.0,7021.0 L 6211.0,7072.0 L 6195.0,7463.0 C 6187.0,7679.0 6176.0,7858.0 6172.0,7861.0 C 6168.0,7865.0 5906.0,8051.0 5590.0,8275.0 C 5274.0,8499.0 5013.0,8683.0 5012.0,8685.0 C 5010.0,8687.0 5014.0,8755.0 5020.0,8837.0 L 5033.0,8986.0 L 5071.0,9013.0 C 5117.0,9046.0 5116.0,9044.0 5092.0,9222.0 L 5074.0,9349.0 L 5158.0,9445.0 L 5242.0,9541.0 L 5270.0,9713.0 C 5285.0,9807.0 5297.0,9886.0 5295.0,9888.0 C 5294.0,9889.0 5185.0,9895.0 5054.0,9901.0 L 4814.0,9912.0 L 4669.0,9866.0 C 4589.0,9841.0 4518.0,9820.0 4512.0,9820.0 C 4505.0,9820.0 4500.0,9829.0 4500.0,9839.0 C 4500.0,9850.0 4493.0,9865.0 4485.0,9873.0 C 4478.0,9881.0 4468.0,9899.0 4465.0,9912.0 C 4459.0,9936.0 4434.0,9942.0 3837.0,10084.0 C 3495.0,10165.0 3206.0,10234.0 3194.0,10236.0 C 3179.0,10240.0 3171.0,10234.0 3162.0,10215.0" fill="pink"/>
</svg>
