<?xml version="1.0" ?>
<svg xmlns="http://www.w3.org/2000/svg" xmlns:ev="http://www.w3.org/2001/xml-events" xmlns:xlink="http://www.w3.org/1999/xlink" baseProfile="full" height="600px" version="1.1" viewBox="1673.6206253239463 -1024.1036362768289 6897.044377600285 12292.505798228718" width="337px">
	<defs/>
	<path d="M 4014.0,10232.0 C 4008.0,10228.0 3995.0,10210.0 3984.0,10192.0 C 3969.0,10165.0 3960.0,10160.0 3940.0,10163.0 C 3927.0,10166.0 3904.0,10162.0 3889.0,10155.0 C 3868.0,10143.0 3857.0,10143.0 3824.0,10155.0 C 3765.0,10175.0 3710.0,10184.0 3710.0,10173.0 C 3710.0,10167.0 3719.0,10155.0 3730.0,10145.0 C 3740.0,10136.0 3757.0,10108.0 3766.0,10083.0 L 3783.0,10039.0 L 3749.0,10005.0 C 3720.0,9976.0 3707.0,9971.0 3665.0,9969.0 C 3638.0,9968.0 3594.0,9973.0 3569.0,9980.0 C 3527.0,9992.0 3519.0,9992.0 3478.0,9971.0 L 3432.0,9949.0 L 3426.0,9882.0 C 3414.0,9766.0 3413.0,9762.0 3372.0,9750.0 C 3321.0,9736.0 3323.0,9736.0 3315.0,9778.0 L 3308.0,9815.0 L 3282.0,9784.0 C 3266.0,9765.0 3238.0,9748.0 3215.0,9741.0 C 3193.0,9735.0 3160.0,9721.0 3141.0,9709.0 C 3122.0,9698.0 3104.0,9693.0 3101.0,9698.0 C 3091.0,9714.0 2951.0,9711.0 2920.0,9695.0 C 2882.0,9676.0 2884.0,9675.0 2872.0,9709.0 C 2865.0,9728.0 2847.0,9746.0 2821.0,9759.0 C 2755.0,9793.0 2740.0,9785.0 2740.0,9715.0 C 2740.0,9685.0 2735.0,9680.0 2680.0,9654.0 C 2623.0,9626.0 2620.0,9623.0 2620.0,9589.0 C 2620.0,9562.0 2614.0,9548.0 2598.0,9537.0 C 2578.0,9525.0 2575.0,9515.0 2577.0,9469.0 C 2578.0,9439.0 2575.0,9413.0 2568.0,9409.0 C 2561.0,9404.0 2562.0,9395.0 2574.0,9379.0 C 2597.0,9346.0 2593.0,9320.0 2560.0,9280.0 C 2543.0,9261.0 2530.0,9240.0 2530.0,9233.0 C 2530.0,9226.0 2521.0,9211.0 2509.0,9199.0 L 2488.0,9178.0 L 2514.0,9151.0 C 2534.0,9131.0 2540.0,9114.0 2540.0,9081.0 C 2540.0,9058.0 2547.0,9026.0 2554.0,9011.0 C 2575.0,8971.0 2565.0,8943.0 2526.0,8935.0 C 2509.0,8931.0 2479.0,8919.0 2460.0,8908.0 C 2412.0,8880.0 2334.0,8888.0 2305.0,8925.0 C 2293.0,8939.0 2276.0,8950.0 2266.0,8950.0 C 2245.0,8950.0 2246.0,8948.0 2289.0,8888.0 C 2319.0,8847.0 2323.0,8834.0 2324.0,8774.0 C 2325.0,8714.0 2328.0,8705.0 2345.0,8702.0 C 2357.0,8699.0 2372.0,8708.0 2386.0,8726.0 C 2406.0,8751.0 2411.0,8753.0 2434.0,8742.0 C 2451.0,8734.0 2460.0,8722.0 2460.0,8707.0 C 2460.0,8694.0 2467.0,8675.0 2475.0,8664.0 C 2483.0,8654.0 2490.0,8631.0 2490.0,8614.0 C 2490.0,8598.0 2497.0,8575.0 2505.0,8564.0 C 2526.0,8537.0 2523.0,8503.0 2500.0,8490.0 C 2489.0,8484.0 2480.0,8473.0 2480.0,8466.0 C 2480.0,8438.0 2606.0,8265.0 2651.0,8230.0 C 2699.0,8194.0 2860.0,8008.0 2885.0,7960.0 C 2904.0,7922.0 2976.0,7860.0 3000.0,7860.0 C 3011.0,7860.0 3023.0,7852.0 3027.0,7843.0 C 3030.0,7833.0 3042.0,7815.0 3053.0,7803.0 C 3064.0,7790.0 3070.0,7774.0 3066.0,7765.0 C 3063.0,7756.0 3064.0,7740.0 3070.0,7730.0 C 3077.0,7717.0 3076.0,7711.0 3065.0,7706.0 C 3050.0,7700.0 3046.0,7662.0 3056.0,7623.0 C 3059.0,7611.0 3075.0,7597.0 3091.0,7591.0 C 3113.0,7583.0 3120.0,7575.0 3120.0,7554.0 C 3120.0,7539.0 3126.0,7519.0 3133.0,7511.0 C 3148.0,7493.0 3180.0,7397.0 3180.0,7369.0 C 3180.0,7343.0 3185.0,7345.0 3232.0,7390.0 C 3276.0,7432.0 3317.0,7442.0 3338.0,7417.0 C 3352.0,7400.0 3335.0,7329.0 3314.0,7317.0 C 3306.0,7313.0 3300.0,7295.0 3300.0,7277.0 C 3300.0,7226.0 3289.0,7217.0 3244.0,7229.0 C 3189.0,7244.0 3181.0,7243.0 3168.0,7215.0 C 3159.0,7195.0 3154.0,7193.0 3143.0,7202.0 C 3132.0,7211.0 3125.0,7210.0 3113.0,7197.0 C 3099.0,7184.0 3099.0,7177.0 3110.0,7150.0 C 3119.0,7128.0 3120.0,7100.0 3114.0,7047.0 C 3110.0,7008.0 3107.0,6915.0 3108.0,6842.0 C 3109.0,6715.0 3109.0,6710.0 3090.0,6720.0 C 3080.0,6725.0 3063.0,6730.0 3052.0,6730.0 C 3029.0,6730.0 2990.0,6690.0 2990.0,6666.0 C 2990.0,6653.0 2985.0,6650.0 2973.0,6655.0 C 2929.0,6674.0 2914.0,6672.0 2902.0,6646.0 C 2896.0,6631.0 2882.0,6620.0 2871.0,6620.0 C 2838.0,6620.0 2829.0,6534.0 2857.0,6479.0 C 2866.0,6460.0 2877.0,6423.0 2881.0,6395.0 C 2885.0,6368.0 2897.0,6320.0 2909.0,6290.0 C 2926.0,6244.0 2937.0,6231.0 2975.0,6210.0 C 3009.0,6191.0 3020.0,6180.0 3020.0,6162.0 C 3020.0,6143.0 3024.0,6139.0 3039.0,6143.0 C 3055.0,6147.0 3061.0,6140.0 3071.0,6098.0 C 3079.0,6064.0 3089.0,6046.0 3101.0,6043.0 C 3111.0,6040.0 3124.0,6023.0 3130.0,6004.0 C 3140.0,5976.0 3156.0,5963.0 3228.0,5923.0 C 3342.0,5861.0 3384.0,5822.0 3400.0,5764.0 C 3410.0,5730.0 3420.0,5716.0 3439.0,5709.0 C 3470.0,5697.0 3480.0,5683.0 3480.0,5648.0 C 3480.0,5631.0 3488.0,5617.0 3500.0,5610.0 C 3517.0,5601.0 3520.0,5589.0 3520.0,5539.0 C 3520.0,5504.0 3527.0,5466.0 3536.0,5448.0 C 3547.0,5427.0 3550.0,5405.0 3545.0,5376.0 C 3542.0,5354.0 3537.0,5310.0 3534.0,5278.0 C 3530.0,5236.0 3524.0,5221.0 3511.0,5217.0 C 3483.0,5210.0 3476.0,5122.0 3501.0,5094.0 C 3511.0,5083.0 3520.0,5062.0 3520.0,5047.0 C 3520.0,5012.0 3572.0,4914.0 3605.0,4888.0 C 3619.0,4878.0 3630.0,4862.0 3630.0,4855.0 C 3630.0,4848.0 3645.0,4830.0 3663.0,4816.0 C 3692.0,4793.0 3695.0,4785.0 3696.0,4738.0 C 3696.0,4709.0 3703.0,4660.0 3712.0,4630.0 C 3720.0,4600.0 3728.0,4567.0 3729.0,4558.0 C 3729.0,4548.0 3731.0,4527.0 3732.0,4512.0 C 3733.0,4487.0 3736.0,4484.0 3763.0,4488.0 C 3793.0,4493.0 3794.0,4490.0 3773.0,4433.0 C 3770.0,4426.0 3775.0,4417.0 3784.0,4414.0 C 3797.0,4409.0 3800.0,4390.0 3800.0,4305.0 C 3800.0,4213.0 3798.0,4201.0 3779.0,4184.0 C 3767.0,4174.0 3746.0,4141.0 3733.0,4111.0 C 3720.0,4081.0 3700.0,4045.0 3689.0,4032.0 C 3679.0,4018.0 3670.0,3999.0 3670.0,3989.0 C 3670.0,3977.0 3660.0,3968.0 3645.0,3964.0 C 3624.0,3959.0 3620.0,3952.0 3621.0,3926.0 C 3625.0,3869.0 3472.0,3676.0 3431.0,3687.0 C 3408.0,3693.0 3396.0,3675.0 3395.0,3635.0 C 3395.0,3611.0 3391.0,3605.0 3374.0,3605.0 C 3361.0,3605.0 3335.0,3584.0 3306.0,3551.0 C 3261.0,3498.0 3260.0,3494.0 3260.0,3429.0 C 3260.0,3392.0 3253.0,3346.0 3245.0,3327.0 C 3237.0,3307.0 3230.0,3278.0 3230.0,3262.0 C 3230.0,3243.0 3208.0,3202.0 3164.0,3139.0 C 3081.0,3021.0 3081.0,3022.0 3070.0,3040.0 C 3061.0,3053.0 3059.0,3053.0 3050.0,3040.0 C 3045.0,3032.0 3040.0,3013.0 3040.0,2997.0 C 3040.0,2968.0 3039.0,2965.0 2997.0,2884.0 C 2982.0,2855.0 2970.0,2827.0 2970.0,2821.0 C 2970.0,2805.0 2986.0,2807.0 3004.0,2826.0 C 3035.0,2857.0 3050.0,2819.0 3031.0,2756.0 C 3026.0,2739.0 3012.0,2689.0 2999.0,2645.0 C 2963.0,2512.0 2959.0,2501.0 2949.0,2494.0 C 2943.0,2491.0 2933.0,2494.0 2925.0,2500.0 C 2912.0,2510.0 2907.0,2506.0 2894.0,2474.0 C 2877.0,2434.0 2876.0,2390.0 2883.0,1738.0 L 2885.0,1511.0 L 2914.0,1481.0 C 2952.0,1442.0 2991.0,1440.0 3017.0,1476.0 C 3034.0,1499.0 3035.0,1509.0 3027.0,1552.0 C 3020.0,1587.0 3020.0,1617.0 3028.0,1652.0 C 3035.0,1679.0 3040.0,1714.0 3040.0,1730.0 C 3040.0,1753.0 3043.0,1757.0 3060.0,1753.0 C 3077.0,1748.0 3080.0,1739.0 3080.0,1694.0 C 3080.0,1586.0 3121.0,1552.0 3130.0,1653.0 C 3133.0,1683.0 3137.0,1711.0 3140.0,1714.0 C 3150.0,1723.0 3255.0,1663.0 3258.0,1647.0 C 3261.0,1634.0 3272.0,1631.0 3313.0,1633.0 C 3363.0,1635.0 3364.0,1635.0 3371.0,1600.0 C 3377.0,1573.0 3375.0,1562.0 3363.0,1553.0 C 3348.0,1541.0 3348.0,1538.0 3367.0,1518.0 C 3391.0,1491.0 3410.0,1431.0 3410.0,1378.0 C 3410.0,1350.0 3418.0,1331.0 3442.0,1305.0 L 3473.0,1269.0 L 3487.0,1300.0 C 3494.0,1318.0 3500.0,1357.0 3500.0,1386.0 C 3500.0,1416.0 3504.0,1440.0 3510.0,1440.0 C 3515.0,1440.0 3531.0,1422.0 3545.0,1400.0 C 3558.0,1379.0 3579.0,1356.0 3590.0,1350.0 C 3602.0,1344.0 3610.0,1329.0 3610.0,1314.0 C 3610.0,1300.0 3619.0,1272.0 3630.0,1252.0 C 3640.0,1232.0 3652.0,1203.0 3655.0,1188.0 C 3662.0,1150.0 3700.0,1127.0 3733.0,1139.0 C 3759.0,1149.0 3762.0,1146.0 3784.0,1077.0 C 3787.0,1066.0 3800.0,1060.0 3819.0,1060.0 C 3865.0,1060.0 3875.0,1042.0 3872.0,969.0 C 3871.0,934.0 3867.0,890.0 3864.0,872.0 C 3859.0,846.0 3861.0,841.0 3872.0,845.0 C 3880.0,848.0 3893.0,844.0 3900.0,835.0 C 3907.0,827.0 3918.0,820.0 3924.0,820.0 C 3941.0,820.0 3980.0,777.0 3980.0,758.0 C 3980.0,749.0 3991.0,739.0 4005.0,736.0 C 4019.0,732.0 4030.0,724.0 4030.0,717.0 C 4030.0,710.0 4044.0,685.0 4061.0,661.0 C 4091.0,621.0 4095.0,619.0 4129.0,625.0 C 4227.0,641.0 4220.0,636.0 4220.0,696.0 L 4220.0,751.0 L 4258.0,744.0 C 4306.0,735.0 4310.0,733.0 4310.0,710.0 C 4310.0,671.0 4332.0,640.0 4366.0,634.0 C 4384.0,631.0 4404.0,622.0 4411.0,614.0 C 4417.0,606.0 4429.0,600.0 4438.0,600.0 C 4446.0,600.0 4477.0,592.0 4506.0,583.0 C 4556.0,568.0 4561.0,568.0 4578.0,583.0 C 4601.0,604.0 4610.0,604.0 4610.0,585.0 C 4610.0,577.0 4619.0,570.0 4629.0,570.0 C 4653.0,570.0 4662.0,550.0 4669.0,480.0 C 4675.0,429.0 4677.0,425.0 4703.0,422.0 C 4719.0,420.0 4738.0,424.0 4746.0,431.0 C 4757.0,440.0 4764.0,439.0 4780.0,425.0 C 4798.0,409.0 4801.0,408.0 4825.0,424.0 C 4850.0,440.0 4850.0,440.0 4850.0,415.0 C 4850.0,400.0 4846.0,380.0 4840.0,370.0 C 4833.0,357.0 4834.0,349.0 4845.0,340.0 C 4855.0,332.0 4860.0,310.0 4860.0,278.0 C 4860.0,233.0 4857.0,228.0 4825.0,209.0 C 4806.0,197.0 4790.0,180.0 4790.0,171.0 C 4790.0,162.0 4785.0,149.0 4778.0,142.0 C 4764.0,128.0 4808.0,67.0 4849.0,45.0 C 4865.0,37.0 4881.0,23.0 4884.0,14.0 C 4890.0,-1.0 4895.0,1.0 4921.0,26.0 C 4938.0,42.0 4958.0,70.0 4965.0,88.0 C 4976.0,112.0 4985.0,120.0 5005.0,120.0 C 5019.0,120.0 5038.0,129.0 5047.0,140.0 C 5057.0,151.0 5073.0,160.0 5082.0,160.0 C 5092.0,160.0 5118.0,172.0 5140.0,186.0 C 5186.0,217.0 5194.0,213.0 5235.0,144.0 C 5249.0,119.0 5265.0,102.0 5270.0,105.0 C 5275.0,108.0 5297.0,102.0 5319.0,91.0 L 5358.0,71.0 L 5370.0,99.0 C 5377.0,116.0 5395.0,133.0 5413.0,141.0 C 5431.0,148.0 5446.0,155.0 5448.0,156.0 C 5450.0,157.0 5445.0,171.0 5437.0,187.0 C 5424.0,211.0 5424.0,220.0 5435.0,248.0 C 5443.0,265.0 5454.0,280.0 5460.0,280.0 C 5472.0,280.0 5505.0,313.0 5551.0,371.0 L 5580.0,408.0 L 5516.0,445.0 C 5406.0,509.0 5333.0,584.0 5241.0,730.0 C 5195.0,802.0 5150.0,864.0 5141.0,867.0 C 5132.0,870.0 5091.0,885.0 5050.0,901.0 C 5009.0,917.0 4974.0,926.0 4972.0,921.0 C 4970.0,915.0 4959.0,899.0 4948.0,885.0 C 4928.0,859.0 4924.0,858.0 4839.0,862.0 C 4759.0,865.0 4749.0,868.0 4723.0,892.0 C 4707.0,907.0 4680.0,922.0 4663.0,926.0 C 4637.0,931.0 4621.0,948.0 4575.0,1018.0 C 4543.0,1065.0 4498.0,1124.0 4474.0,1150.0 C 4418.0,1210.0 4378.0,1321.0 4350.0,1500.0 C 4304.0,1786.0 4250.0,1959.0 4198.0,1986.0 C 4159.0,2006.0 4153.0,2003.0 4178.0,1977.0 C 4190.0,1964.0 4203.0,1939.0 4206.0,1920.0 L 4213.0,1885.0 L 4185.0,1910.0 C 4170.0,1924.0 4150.0,1951.0 4139.0,1971.0 C 4129.0,1991.0 4109.0,2016.0 4094.0,2027.0 C 4069.0,2045.0 4068.0,2052.0 4055.0,2209.0 C 4046.0,2310.0 4035.0,2383.0 4025.0,2402.0 C 4017.0,2419.0 4010.0,2448.0 4010.0,2466.0 C 4010.0,2533.0 3935.0,2558.0 3836.0,2524.0 C 3810.0,2515.0 3786.0,2511.0 3783.0,2514.0 C 3779.0,2517.0 3767.0,2512.0 3756.0,2501.0 C 3732.0,2480.0 3676.0,2473.0 3615.0,2484.0 C 3585.0,2490.0 3570.0,2500.0 3557.0,2521.0 C 3541.0,2550.0 3541.0,2551.0 3571.0,2578.0 C 3601.0,2604.0 3601.0,2606.0 3586.0,2635.0 C 3577.0,2652.0 3570.0,2681.0 3570.0,2701.0 C 3570.0,2728.0 3562.0,2744.0 3535.0,2770.0 C 3500.0,2804.0 3500.0,2804.0 3500.0,2894.0 C 3501.0,2951.0 3506.0,2994.0 3514.0,3009.0 C 3523.0,3025.0 3526.0,3053.0 3523.0,3089.0 C 3518.0,3137.0 3521.0,3148.0 3539.0,3164.0 C 3567.0,3189.0 3566.0,3200.0 3534.0,3200.0 C 3514.0,3200.0 3509.0,3204.0 3514.0,3216.0 C 3517.0,3225.0 3520.0,3236.0 3520.0,3241.0 C 3520.0,3247.0 3528.0,3249.0 3539.0,3245.0 C 3583.0,3231.0 3648.0,3327.0 3605.0,3344.0 C 3573.0,3356.0 3601.0,3450.0 3650.0,3495.0 C 3677.0,3520.0 3700.0,3562.0 3700.0,3590.0 C 3700.0,3612.0 3710.0,3616.0 3727.0,3599.0 C 3760.0,3566.0 3782.0,3725.0 3750.0,3767.0 C 3726.0,3799.0 3735.0,3840.0 3766.0,3840.0 C 3786.0,3840.0 3790.0,3845.0 3790.0,3873.0 C 3790.0,3920.0 3818.0,4000.0 3845.0,4030.0 C 3857.0,4044.0 3873.0,4071.0 3879.0,4091.0 C 3885.0,4111.0 3904.0,4140.0 3921.0,4156.0 C 3964.0,4197.0 3973.0,4216.0 3982.0,4285.0 C 3995.0,4395.0 4000.0,4407.0 4041.0,4434.0 C 4082.0,4462.0 4115.0,4523.0 4104.0,4549.0 C 4101.0,4558.0 4096.0,4606.0 4095.0,4656.0 C 4093.0,4707.0 4087.0,4757.0 4081.0,4768.0 C 4060.0,4807.0 4068.0,4913.0 4095.0,4972.0 C 4109.0,5001.0 4123.0,5041.0 4126.0,5060.0 C 4130.0,5079.0 4138.0,5103.0 4145.0,5113.0 C 4156.0,5128.0 4152.0,5141.0 4125.0,5195.0 C 4108.0,5230.0 4087.0,5266.0 4081.0,5274.0 C 4061.0,5298.0 4095.0,5346.0 4151.0,5370.0 C 4177.0,5381.0 4207.0,5390.0 4216.0,5390.0 C 4226.0,5390.0 4247.0,5402.0 4262.0,5417.0 C 4288.0,5442.0 4290.0,5442.0 4290.0,5424.0 C 4290.0,5392.0 4298.0,5390.0 4357.0,5411.0 C 4388.0,5421.0 4429.0,5430.0 4449.0,5430.0 C 4469.0,5430.0 4491.0,5434.0 4499.0,5439.0 C 4508.0,5445.0 4524.0,5441.0 4544.0,5430.0 C 4562.0,5420.0 4606.0,5410.0 4650.0,5407.0 C 4704.0,5402.0 4728.0,5396.0 4737.0,5383.0 C 4752.0,5363.0 4755.0,5204.0 4741.0,5168.0 C 4735.0,5152.0 4737.0,5134.0 4745.0,5115.0 C 4757.0,5087.0 4755.0,5083.0 4722.0,5048.0 C 4690.0,5014.0 4688.0,5008.0 4698.0,4985.0 C 4716.0,4947.0 4713.0,4920.0 4692.0,4920.0 C 4669.0,4920.0 4646.0,4862.0 4661.0,4843.0 C 4667.0,4836.0 4684.0,4830.0 4697.0,4830.0 C 4716.0,4830.0 4725.0,4822.0 4737.0,4790.0 C 4755.0,4745.0 4770.0,4752.0 4770.0,4807.0 C 4770.0,4834.0 4775.0,4841.0 4796.0,4846.0 C 4834.0,4856.0 4980.0,4844.0 5012.0,4830.0 C 5052.0,4811.0 5217.0,4833.0 5243.0,4861.0 C 5283.0,4904.0 5337.0,4876.0 5404.0,4775.0 C 5422.0,4748.0 5430.0,4741.0 5430.0,4754.0 C 5430.0,4768.0 5435.0,4771.0 5453.0,4766.0 C 5465.0,4763.0 5478.0,4760.0 5483.0,4760.0 C 5487.0,4760.0 5488.0,4749.0 5484.0,4735.0 C 5479.0,4713.0 5481.0,4710.0 5504.0,4710.0 C 5544.0,4710.0 5573.0,4687.0 5635.0,4604.0 C 5666.0,4563.0 5696.0,4530.0 5703.0,4531.0 C 5734.0,4535.0 5752.0,4527.0 5801.0,4490.0 C 5831.0,4468.0 5860.0,4450.0 5866.0,4450.0 C 5873.0,4450.0 5877.0,4465.0 5876.0,4488.0 C 5875.0,4511.0 5880.0,4525.0 5887.0,4525.0 C 5902.0,4525.0 5916.0,4501.0 6004.0,4330.0 C 6040.0,4261.0 6080.0,4187.0 6094.0,4165.0 L 6119.0,4125.0 L 6113.0,4185.0 C 6109.0,4229.0 6101.0,4252.0 6084.0,4271.0 C 6071.0,4285.0 6060.0,4305.0 6060.0,4316.0 C 6060.0,4328.0 6051.0,4345.0 6040.0,4355.0 C 6028.0,4366.0 6020.0,4386.0 6020.0,4405.0 C 6020.0,4423.0 6010.0,4450.0 5998.0,4466.0 C 5979.0,4490.0 5975.0,4507.0 5975.0,4566.0 C 5975.0,4627.0 5978.0,4642.0 5998.0,4663.0 L 6020.0,4687.0 L 5996.0,4698.0 C 5983.0,4704.0 5962.0,4729.0 5950.0,4755.0 C 5936.0,4784.0 5913.0,4810.0 5888.0,4826.0 C 5841.0,4856.0 5821.0,4892.0 5839.0,4914.0 C 5847.0,4923.0 5849.0,4938.0 5844.0,4952.0 C 5837.0,4973.0 5831.0,5027.0 5829.0,5074.0 C 5829.0,5085.0 5811.0,5116.0 5790.0,5143.0 C 5768.0,5170.0 5750.0,5199.0 5750.0,5207.0 C 5750.0,5214.0 5741.0,5238.0 5731.0,5259.0 C 5718.0,5283.0 5715.0,5301.0 5720.0,5311.0 C 5725.0,5319.0 5727.0,5358.0 5723.0,5398.0 L 5717.0,5471.0 L 5776.0,5465.0 C 5826.0,5459.0 5842.0,5461.0 5868.0,5477.0 C 5886.0,5488.0 5896.0,5500.0 5891.0,5506.0 C 5875.0,5523.0 5868.0,5560.0 5881.0,5560.0 C 5887.0,5560.0 5911.0,5569.0 5934.0,5581.0 C 5969.0,5598.0 5980.0,5612.0 6007.0,5670.0 C 6030.0,5721.0 6047.0,5745.0 6072.0,5760.0 C 6100.0,5776.0 6109.0,5790.0 6119.0,5832.0 C 6137.0,5902.0 6147.0,5920.0 6169.0,5920.0 C 6178.0,5920.0 6205.0,5936.0 6227.0,5955.0 C 6261.0,5984.0 6280.0,5991.0 6341.0,6000.0 C 6382.0,6006.0 6426.0,6016.0 6440.0,6022.0 C 6454.0,6028.0 6471.0,6033.0 6477.0,6031.0 C 6484.0,6030.0 6504.0,6037.0 6521.0,6046.0 C 6540.0,6056.0 6564.0,6060.0 6582.0,6056.0 C 6602.0,6052.0 6612.0,6055.0 6617.0,6065.0 C 6621.0,6078.0 6629.0,6076.0 6666.0,6055.0 C 6699.0,6036.0 6731.0,6028.0 6802.0,6021.0 C 6933.0,6009.0 7010.0,6017.0 7032.0,6044.0 L 7049.0,6065.0 L 7087.0,6044.0 C 7134.0,6017.0 7245.0,6014.0 7272.0,6038.0 C 7282.0,6046.0 7295.0,6050.0 7303.0,6047.0 C 7311.0,6044.0 7323.0,6046.0 7330.0,6050.0 C 7338.0,6055.0 7352.0,6054.0 7363.0,6049.0 C 7377.0,6041.0 7386.0,6043.0 7400.0,6055.0 C 7416.0,6069.0 7421.0,6069.0 7461.0,6055.0 C 7485.0,6046.0 7513.0,6036.0 7523.0,6033.0 C 7540.0,6028.0 7547.0,6010.0 7552.0,5956.0 C 7554.0,5932.0 7561.0,5925.0 7588.0,5918.0 C 7616.0,5910.0 7624.0,5913.0 7640.0,5932.0 C 7651.0,5945.0 7659.0,5962.0 7660.0,5971.0 C 7660.0,5994.0 7702.0,6019.0 7757.0,6029.0 C 7796.0,6037.0 7814.0,6048.0 7858.0,6095.0 L 7913.0,6151.0 L 7908.0,6242.0 C 7903.0,6328.0 7904.0,6335.0 7926.0,6357.0 C 7946.0,6376.0 7948.0,6385.0 7939.0,6407.0 C 7932.0,6427.0 7933.0,6437.0 7946.0,6451.0 C 7956.0,6462.0 7958.0,6470.0 7952.0,6470.0 C 7947.0,6470.0 7925.0,6492.0 7905.0,6520.0 L 7868.0,6570.0 L 7890.0,6604.0 C 7904.0,6627.0 7920.0,6640.0 7938.0,6642.0 C 7957.0,6644.0 7965.0,6651.0 7965.0,6665.0 C 7965.0,6681.0 7957.0,6686.0 7930.0,6688.0 C 7911.0,6690.0 7889.0,6697.0 7882.0,6703.0 C 7871.0,6711.0 7874.0,6717.0 7897.0,6728.0 C 7939.0,6750.0 7960.0,6771.0 7960.0,6792.0 C 7960.0,6802.0 7967.0,6821.0 7976.0,6835.0 C 7996.0,6866.0 7997.0,6913.0 7978.0,6942.0 C 7969.0,6956.0 7940.0,6974.0 7909.0,6984.0 C 7843.0,7007.0 7787.0,7070.0 7801.0,7108.0 C 7806.0,7120.0 7814.0,7130.0 7820.0,7130.0 C 7825.0,7130.0 7830.0,7141.0 7830.0,7154.0 C 7830.0,7176.0 7825.0,7179.0 7743.0,7191.0 C 7636.0,7206.0 7580.0,7231.0 7580.0,7263.0 C 7580.0,7295.0 7529.0,7372.0 7496.0,7390.0 C 7481.0,7398.0 7460.0,7421.0 7449.0,7441.0 C 7438.0,7464.0 7421.0,7480.0 7405.0,7484.0 C 7379.0,7491.0 7378.0,7492.0 7379.0,7583.0 C 7380.0,7634.0 7376.0,7717.0 7370.0,7768.0 C 7360.0,7857.0 7361.0,7862.0 7385.0,7910.0 C 7406.0,7951.0 7410.0,7974.0 7410.0,8041.0 C 7410.0,8136.0 7394.0,8168.0 7327.0,8202.0 C 7225.0,8253.0 7171.0,8299.0 7141.0,8359.0 C 7116.0,8409.0 7106.0,8418.0 7071.0,8428.0 C 7037.0,8439.0 7030.0,8445.0 7024.0,8475.0 C 7021.0,8494.0 6995.0,8540.0 6966.0,8578.0 C 6938.0,8617.0 6898.0,8675.0 6878.0,8709.0 C 6858.0,8742.0 6837.0,8770.0 6831.0,8770.0 C 6826.0,8770.0 6808.0,8758.0 6791.0,8744.0 C 6763.0,8721.0 6760.0,8720.0 6760.0,8737.0 C 6760.0,8753.0 6748.0,8759.0 6699.0,8768.0 C 6666.0,8774.0 6618.0,8789.0 6594.0,8801.0 C 6569.0,8813.0 6540.0,8820.0 6528.0,8817.0 C 6516.0,8814.0 6494.0,8818.0 6478.0,8826.0 C 6446.0,8843.0 6387.0,8838.0 6360.0,8817.0 C 6351.0,8810.0 6344.0,8790.0 6345.0,8770.0 C 6345.0,8739.0 6342.0,8735.0 6308.0,8727.0 C 6275.0,8719.0 6270.0,8714.0 6270.0,8690.0 C 6270.0,8675.0 6261.0,8651.0 6250.0,8637.0 C 6239.0,8623.0 6230.0,8602.0 6230.0,8591.0 C 6230.0,8540.0 6181.0,8503.0 6152.0,8532.0 C 6143.0,8541.0 6124.0,8537.0 6073.0,8515.0 C 5990.0,8480.0 5980.0,8473.0 5963.0,8433.0 C 5955.0,8412.0 5945.0,8403.0 5936.0,8406.0 C 5914.0,8414.0 5888.0,8460.0 5894.0,8477.0 C 5904.0,8502.0 5880.0,8520.0 5836.0,8520.0 C 5814.0,8520.0 5775.0,8529.0 5751.0,8541.0 C 5726.0,8552.0 5701.0,8559.0 5694.0,8556.0 C 5680.0,8550.0 5625.0,8608.0 5615.0,8639.0 C 5609.0,8659.0 5600.0,8663.0 5545.0,8675.0 C 5518.0,8680.0 5509.0,8674.0 5462.0,8626.0 L 5409.0,8572.0 L 5365.0,8586.0 C 5321.0,8599.0 5320.0,8599.0 5306.0,8572.0 C 5299.0,8557.0 5289.0,8531.0 5286.0,8515.0 C 5281.0,8492.0 5267.0,8478.0 5229.0,8456.0 C 5192.0,8435.0 5179.0,8423.0 5183.0,8410.0 C 5187.0,8396.0 5176.0,8389.0 5131.0,8374.0 C 5083.0,8359.0 5061.0,8342.0 4985.0,8264.0 L 4895.0,8172.0 L 4850.0,8196.0 C 4825.0,8209.0 4800.0,8220.0 4793.0,8220.0 C 4777.0,8220.0 4775.0,8293.0 4790.0,8320.0 C 4796.0,8330.0 4796.0,8348.0 4792.0,8360.0 C 4782.0,8388.0 4817.0,8465.0 4847.0,8481.0 C 4861.0,8488.0 4870.0,8503.0 4870.0,8516.0 C 4870.0,8529.0 4879.0,8544.0 4890.0,8550.0 C 4912.0,8562.0 4914.0,8586.0 4904.0,8713.0 C 4898.0,8783.0 4895.0,8790.0 4871.0,8799.0 C 4820.0,8818.0 4813.0,8827.0 4833.0,8847.0 C 4873.0,8889.0 4900.0,8924.0 4900.0,8931.0 C 4900.0,8936.0 4907.0,8940.0 4915.0,8940.0 C 4923.0,8940.0 4940.0,8961.0 4953.0,8986.0 C 4973.0,9027.0 4973.0,9033.0 4959.0,9043.0 C 4945.0,9053.0 4945.0,9060.0 4956.0,9090.0 C 4963.0,9109.0 4969.0,9139.0 4969.0,9156.0 C 4970.0,9179.0 4980.0,9198.0 5006.0,9223.0 C 5041.0,9256.0 5041.0,9258.0 5021.0,9265.0 C 4992.0,9274.0 4960.0,9340.0 4960.0,9393.0 C 4960.0,9416.0 4956.0,9440.0 4951.0,9446.0 C 4947.0,9451.0 4938.0,9470.0 4932.0,9488.0 C 4921.0,9519.0 4922.0,9522.0 4950.0,9538.0 C 4984.0,9557.0 4990.0,9593.0 4964.0,9621.0 C 4950.0,9637.0 4945.0,9637.0 4907.0,9624.0 C 4870.0,9611.0 4865.0,9611.0 4846.0,9629.0 C 4826.0,9648.0 4793.0,9655.0 4738.0,9652.0 C 4724.0,9651.0 4691.0,9634.0 4665.0,9614.0 C 4620.0,9580.0 4617.0,9579.0 4593.0,9595.0 C 4568.0,9612.0 4516.0,9608.0 4505.0,9589.0 C 4496.0,9575.0 4440.0,9608.0 4440.0,9628.0 C 4440.0,9637.0 4431.0,9651.0 4420.0,9658.0 C 4409.0,9665.0 4400.0,9679.0 4400.0,9690.0 C 4400.0,9701.0 4395.0,9719.0 4388.0,9729.0 C 4370.0,9758.0 4392.0,9799.0 4429.0,9806.0 C 4459.0,9812.0 4469.0,9834.0 4485.0,9935.0 C 4489.0,9957.0 4494.0,9988.0 4497.0,10004.0 C 4502.0,10031.0 4501.0,10032.0 4478.0,10027.0 C 4451.0,10020.0 4416.0,10050.0 4370.0,10120.0 C 4324.0,10189.0 4276.0,10211.0 4264.0,10166.0 C 4258.0,10142.0 4190.0,10090.0 4163.0,10090.0 C 4150.0,10090.0 4148.0,10098.0 4153.0,10134.0 C 4160.0,10181.0 4142.0,10210.0 4106.0,10210.0 C 4097.0,10210.0 4087.0,10217.0 4084.0,10225.0 C 4078.0,10241.0 4033.0,10245.0 4014.0,10232.0" fill="pink"/>
	<path d="M 5650.0,4495.0 C 5650.0,4493.0 5661.0,4466.0 5675.0,4435.0 C 5696.0,4387.0 5706.0,4376.0 5745.0,4359.0 C 5800.0,4334.0 5812.0,4340.0 5782.0,4378.0 C 5770.0,4393.0 5751.0,4421.0 5741.0,4441.0 C 5730.0,4460.0 5710.0,4481.0 5695.0,4488.0 C 5668.0,4500.0 5650.0,4503.0 5650.0,4495.0" fill="pink"/>
	<path d="M 5842.0,4207.0 C 5829.0,4191.0 5838.0,4119.0 5854.0,4108.0 C 5873.0,4095.0 5877.0,4099.0 5883.0,4142.0 C 5891.0,4203.0 5868.0,4239.0 5842.0,4207.0" fill="pink"/>
	<path d="M 2853.0,3050.0 C 2840.0,3045.0 2830.0,3032.0 2830.0,3021.0 C 2830.0,3010.0 2821.0,2996.0 2810.0,2990.0 C 2790.0,2979.0 2783.0,2939.0 2796.0,2907.0 C 2805.0,2884.0 2912.0,3005.0 2908.0,3033.0 C 2905.0,3058.0 2886.0,3063.0 2853.0,3050.0" fill="pink"/>
	<path d="M 4083.0,2851.0 C 4073.0,2813.0 4073.0,2812.0 4106.0,2802.0 L 4140.0,2792.0 L 4140.0,2831.0 C 4140.0,2859.0 4135.0,2872.0 4121.0,2880.0 C 4093.0,2894.0 4094.0,2894.0 4083.0,2851.0" fill="pink"/>
	<path d="M 4068.0,2721.0 C 4038.0,2716.0 4032.0,2712.0 4040.0,2700.0 C 4045.0,2692.0 4050.0,2664.0 4050.0,2638.0 C 4050.0,2611.0 4054.0,2590.0 4060.0,2590.0 C 4078.0,2590.0 4138.0,2650.0 4150.0,2681.0 C 4161.0,2707.0 4161.0,2713.0 4149.0,2721.0 C 4134.0,2730.0 4125.0,2730.0 4068.0,2721.0" fill="pink"/>
	<path d="M 2612.0,2648.0 C 2598.0,2634.0 2596.0,2604.0 2609.0,2595.0 C 2622.0,2588.0 2650.0,2629.0 2643.0,2646.0 C 2637.0,2663.0 2628.0,2664.0 2612.0,2648.0" fill="pink"/>
	<path d="M 3830.0,752.0 C 3830.0,742.0 3823.0,725.0 3815.0,712.0 C 3798.0,688.0 3804.0,668.0 3838.0,637.0 C 3870.0,608.0 3886.0,624.0 3888.0,689.0 C 3890.0,742.0 3887.0,748.0 3864.0,758.0 C 3831.0,773.0 3830.0,773.0 3830.0,752.0" fill="pink"/>
	<path d="M 3576.0,671.0 C 3537.0,661.0 3504.0,648.0 3502.0,642.0 C 3498.0,629.0 3543.0,615.0 3564.0,623.0 C 3571.0,626.0 3587.0,622.0 3599.0,614.0 C 3619.0,600.0 3621.0,601.0 3630.0,625.0 C 3636.0,640.0 3645.0,660.0 3650.0,671.0 C 3662.0,693.0 3666.0,693.0 3576.0,671.0" fill="pink"/>
	<path d="M 3955.0,575.0 C 3939.0,568.0 3905.0,557.0 3880.0,553.0 L 3835.0,544.0 L 3867.0,524.0 C 3901.0,504.0 3910.0,485.0 3910.0,433.0 C 3910.0,407.0 3914.0,400.0 3930.0,400.0 C 3942.0,400.0 3955.0,410.0 3962.0,425.0 C 3969.0,441.0 3981.0,450.0 3995.0,450.0 C 4048.0,450.0 4059.0,505.0 4016.0,563.0 C 3994.0,594.0 3995.0,593.0 3955.0,575.0" fill="pink"/>
</svg>
