<?xml version="1.0" ?>
<svg xmlns="http://www.w3.org/2000/svg" xmlns:ev="http://www.w3.org/2001/xml-events" xmlns:xlink="http://www.w3.org/1999/xlink" baseProfile="full" height="408px" version="1.1" viewBox="-1028.2414815630411 950.3658361984359 12297.281253391378 8343.911013487363" width="600px">
	<defs/>
	<path d="M 4160.0,8594.0 C 4152.0,8592.0 4128.0,8589.0 4108.0,8585.0 C 4072.0,8579.0 4070.0,8577.0 4069.0,8542.0 C 4068.0,8522.0 4065.0,8495.0 4062.0,8482.0 C 4051.0,8445.0 3914.0,8343.0 3800.0,8288.0 C 3743.0,8261.0 3662.0,8214.0 3620.0,8185.0 C 3559.0,8142.0 3532.0,8130.0 3475.0,8120.0 C 3379.0,8102.0 3220.0,8047.0 3175.0,8017.0 L 3137.0,7991.0 L 3056.0,8057.0 C 2982.0,8117.0 2857.0,8190.0 2828.0,8190.0 C 2822.0,8190.0 2787.0,8171.0 2751.0,8148.0 C 2715.0,8125.0 2684.0,8106.0 2683.0,8106.0 C 2683.0,8105.0 2675.0,8053.0 2666.0,7990.0 C 2644.0,7833.0 2645.0,7837.0 2609.0,7816.0 L 2577.0,7797.0 L 2583.0,7730.0 C 2587.0,7682.0 2598.0,7644.0 2619.0,7601.0 C 2636.0,7568.0 2650.0,7536.0 2650.0,7530.0 C 2650.0,7525.0 2625.0,7504.0 2595.0,7484.0 C 2565.0,7464.0 2540.0,7442.0 2540.0,7436.0 C 2540.0,7430.0 2547.0,7403.0 2555.0,7376.0 L 2570.0,7328.0 L 2536.0,7294.0 C 2497.0,7255.0 2477.0,7253.0 2387.0,7276.0 C 2266.0,7307.0 1991.0,7286.0 1788.0,7229.0 C 1701.0,7205.0 1678.0,7187.0 1691.0,7153.0 C 1698.0,7133.0 1707.0,7130.0 1750.0,7130.0 C 1783.0,7130.0 1817.0,7138.0 1848.0,7154.0 C 1937.0,7198.0 1992.0,7211.0 2081.0,7208.0 C 2137.0,7206.0 2165.0,7201.0 2165.0,7193.0 C 2165.0,7187.0 2135.0,7159.0 2099.0,7132.0 C 1990.0,7049.0 1980.0,7033.0 1980.0,6937.0 C 1980.0,6879.0 1974.0,6843.0 1961.0,6815.0 C 1942.0,6772.0 1875.0,6707.0 1858.0,6712.0 C 1852.0,6714.0 1841.0,6738.0 1835.0,6764.0 C 1824.0,6807.0 1808.0,6829.0 1788.0,6830.0 C 1777.0,6830.0 1740.0,6763.0 1740.0,6742.0 C 1740.0,6727.0 1728.0,6715.0 1697.0,6702.0 C 1674.0,6691.0 1648.0,6674.0 1639.0,6664.0 C 1623.0,6644.0 1532.0,6420.0 1508.0,6341.0 C 1497.0,6303.0 1489.0,6295.0 1450.0,6279.0 C 1394.0,6257.0 1325.0,6255.0 1269.0,6276.0 C 1245.0,6285.0 1186.0,6293.0 1138.0,6295.0 C 1090.0,6297.0 1041.0,6304.0 1029.0,6311.0 C 1016.0,6318.0 931.0,6327.0 831.0,6332.0 C 683.0,6339.0 646.0,6344.0 586.0,6366.0 C 526.0,6388.0 505.0,6391.0 450.0,6385.0 C 394.0,6379.0 372.0,6370.0 287.0,6318.0 C 233.0,6284.0 174.0,6238.0 155.0,6215.0 C 125.0,6177.0 119.0,6160.0 104.0,6067.0 C 88.0,5964.0 87.0,5962.0 49.0,5934.0 C 7.0,5903.0 -6.0,5874.0 4.0,5838.0 C 14.0,5800.0 40.0,5777.0 135.0,5721.0 C 185.0,5691.0 257.0,5644.0 297.0,5616.0 C 363.0,5570.0 371.0,5559.0 391.0,5505.0 C 421.0,5424.0 477.0,5366.0 567.0,5324.0 C 627.0,5296.0 650.0,5290.0 708.0,5290.0 C 746.0,5290.0 795.0,5296.0 817.0,5304.0 L 857.0,5318.0 L 918.0,5263.0 C 953.0,5232.0 980.0,5200.0 980.0,5189.0 C 980.0,5179.0 964.0,5155.0 944.0,5137.0 L 908.0,5104.0 L 926.0,5067.0 C 940.0,5038.0 942.0,5023.0 934.0,4993.0 C 926.0,4961.0 931.0,4930.0 966.0,4792.0 C 989.0,4703.0 1014.0,4598.0 1021.0,4560.0 C 1031.0,4500.0 1040.0,4483.0 1082.0,4433.0 C 1131.0,4375.0 1259.0,4284.0 1373.0,4226.0 C 1450.0,4187.0 1457.0,4178.0 1437.0,4132.0 C 1428.0,4112.0 1413.0,4064.0 1404.0,4025.0 C 1391.0,3971.0 1377.0,3943.0 1344.0,3905.0 C 1293.0,3844.0 1251.0,3711.0 1268.0,3662.0 L 1278.0,3633.0 L 1198.0,3627.0 C 1086.0,3618.0 1048.0,3592.0 966.0,3470.0 C 931.0,3418.0 895.0,3362.0 887.0,3345.0 C 871.0,3314.0 759.0,3196.0 636.0,3080.0 C 532.0,2982.0 510.0,2927.0 499.0,2737.0 C 489.0,2574.0 495.0,2547.0 545.0,2514.0 C 566.0,2500.0 570.0,2490.0 570.0,2449.0 C 570.0,2382.0 592.0,2332.0 627.0,2319.0 C 697.0,2293.0 742.0,2265.0 808.0,2205.0 C 848.0,2169.0 899.0,2131.0 921.0,2119.0 L 962.0,2099.0 L 998.0,2123.0 C 1067.0,2169.0 1145.0,2208.0 1190.0,2220.0 C 1215.0,2226.0 1249.0,2244.0 1265.0,2259.0 C 1318.0,2308.0 1382.0,2337.0 1495.0,2364.0 C 1556.0,2379.0 1625.0,2397.0 1650.0,2405.0 C 1675.0,2412.0 1711.0,2423.0 1730.0,2427.0 C 1758.0,2434.0 1766.0,2441.0 1770.0,2465.0 C 1774.0,2486.0 1783.0,2497.0 1804.0,2505.0 C 1829.0,2513.0 1835.0,2511.0 1854.0,2487.0 L 1877.0,2459.0 L 1912.0,2498.0 C 1932.0,2520.0 1951.0,2548.0 1955.0,2560.0 C 1960.0,2577.0 1967.0,2580.0 1983.0,2576.0 C 2045.0,2558.0 2060.0,2558.0 2065.0,2574.0 C 2068.0,2583.0 2072.0,2598.0 2075.0,2607.0 C 2079.0,2619.0 2083.0,2621.0 2092.0,2612.0 C 2112.0,2592.0 2150.0,2597.0 2150.0,2619.0 C 2150.0,2645.0 2175.0,2663.0 2200.0,2655.0 C 2212.0,2651.0 2236.0,2636.0 2253.0,2621.0 C 2305.0,2575.0 2479.0,2459.0 2512.0,2448.0 C 2549.0,2435.0 2642.0,2453.0 2682.0,2481.0 C 2696.0,2492.0 2715.0,2519.0 2723.0,2543.0 C 2737.0,2584.0 2736.0,2587.0 2713.0,2615.0 C 2674.0,2663.0 2640.0,2737.0 2640.0,2773.0 C 2640.0,2796.0 2657.0,2833.0 2696.0,2896.0 C 2764.0,3004.0 2784.0,3026.0 2832.0,3051.0 C 2853.0,3062.0 2877.0,3084.0 2885.0,3100.0 C 2897.0,3124.0 2905.0,3129.0 2923.0,3125.0 C 2984.0,3109.0 3251.0,3134.0 3298.0,3159.0 C 3309.0,3165.0 3336.0,3170.0 3357.0,3170.0 C 3388.0,3170.0 3398.0,3165.0 3411.0,3141.0 C 3422.0,3123.0 3454.0,3100.0 3504.0,3075.0 C 3547.0,3054.0 3589.0,3026.0 3597.0,3013.0 C 3621.0,2977.0 3666.0,2981.0 3684.0,3023.0 C 3703.0,3064.0 3716.0,3079.0 3763.0,3114.0 C 3792.0,3136.0 3804.0,3155.0 3816.0,3199.0 C 3825.0,3230.0 3843.0,3271.0 3856.0,3290.0 C 3894.0,3345.0 3882.0,3423.0 3830.0,3470.0 C 3796.0,3500.0 3781.0,3557.0 3780.0,3653.0 L 3780.0,3720.0 L 3809.0,3720.0 C 3824.0,3720.0 3849.0,3729.0 3863.0,3740.0 C 3877.0,3752.0 3906.0,3767.0 3927.0,3774.0 C 3969.0,3788.0 3990.0,3821.0 4011.0,3904.0 C 4021.0,3943.0 4029.0,3955.0 4054.0,3965.0 C 4106.0,3987.0 4141.0,4021.0 4166.0,4074.0 C 4179.0,4102.0 4190.0,4140.0 4190.0,4158.0 C 4190.0,4178.0 4200.0,4204.0 4214.0,4223.0 C 4228.0,4241.0 4249.0,4291.0 4261.0,4335.0 C 4301.0,4474.0 4353.0,4521.0 4496.0,4547.0 C 4545.0,4556.0 4599.0,4563.0 4615.0,4564.0 C 4632.0,4565.0 4654.0,4571.0 4665.0,4577.0 C 4680.0,4586.0 4690.0,4585.0 4710.0,4574.0 C 4724.0,4566.0 4747.0,4556.0 4763.0,4550.0 C 4778.0,4545.0 4790.0,4535.0 4790.0,4528.0 C 4790.0,4508.0 4846.0,4460.0 4869.0,4460.0 C 4883.0,4460.0 4890.0,4454.0 4890.0,4440.0 C 4890.0,4430.0 4899.0,4416.0 4910.0,4410.0 C 4921.0,4404.0 4930.0,4393.0 4930.0,4385.0 C 4930.0,4365.0 4975.0,4344.0 5048.0,4332.0 C 5120.0,4319.0 5190.0,4273.0 5190.0,4237.0 C 5190.0,4225.0 5201.0,4207.0 5215.0,4195.0 C 5238.0,4176.0 5239.0,4173.0 5228.0,4127.0 C 5221.0,4099.0 5209.0,4075.0 5198.0,4069.0 C 5185.0,4062.0 5180.0,4047.0 5180.0,4012.0 C 5180.0,3985.0 5175.0,3959.0 5170.0,3954.0 C 5155.0,3939.0 5142.0,3845.0 5152.0,3827.0 C 5156.0,3818.0 5154.0,3798.0 5145.0,3776.0 C 5137.0,3757.0 5130.0,3723.0 5130.0,3701.0 C 5130.0,3666.0 5134.0,3658.0 5160.0,3645.0 C 5176.0,3637.0 5195.0,3630.0 5203.0,3630.0 C 5211.0,3630.0 5221.0,3621.0 5226.0,3610.0 C 5235.0,3591.0 5236.0,3591.0 5279.0,3619.0 C 5306.0,3637.0 5342.0,3650.0 5376.0,3655.0 C 5419.0,3660.0 5433.0,3667.0 5450.0,3690.0 C 5468.0,3716.0 5473.0,3717.0 5500.0,3707.0 C 5533.0,3695.0 5535.0,3686.0 5519.0,3643.0 C 5505.0,3605.0 5488.0,3481.0 5485.0,3390.0 C 5483.0,3309.0 5466.0,3188.0 5455.0,3170.0 C 5451.0,3164.0 5454.0,3128.0 5461.0,3091.0 C 5470.0,3035.0 5470.0,3013.0 5460.0,2973.0 C 5453.0,2947.0 5446.0,2882.0 5445.0,2830.0 C 5444.0,2763.0 5435.0,2707.0 5417.0,2640.0 C 5387.0,2532.0 5384.0,2466.0 5405.0,2365.0 C 5413.0,2327.0 5420.0,2282.0 5420.0,2266.0 C 5420.0,2250.0 5432.0,2222.0 5450.0,2200.0 C 5475.0,2168.0 5478.0,2158.0 5471.0,2133.0 C 5464.0,2108.0 5467.0,2094.0 5488.0,2059.0 C 5502.0,2035.0 5516.0,1999.0 5519.0,1980.0 C 5524.0,1953.0 5531.0,1944.0 5548.0,1942.0 C 5562.0,1940.0 5576.0,1927.0 5582.0,1912.0 C 5589.0,1897.0 5604.0,1874.0 5616.0,1860.0 C 5629.0,1846.0 5653.0,1801.0 5670.0,1761.0 C 5686.0,1720.0 5705.0,1681.0 5711.0,1673.0 C 5717.0,1666.0 5743.0,1660.0 5769.0,1659.0 C 5794.0,1658.0 5826.0,1655.0 5840.0,1651.0 C 5868.0,1643.0 5980.0,1683.0 5992.0,1705.0 C 5996.0,1712.0 6012.0,1723.0 6027.0,1729.0 C 6043.0,1736.0 6068.0,1762.0 6084.0,1787.0 C 6107.0,1823.0 6126.0,1838.0 6176.0,1860.0 C 6210.0,1876.0 6257.0,1907.0 6279.0,1929.0 C 6301.0,1951.0 6332.0,1972.0 6347.0,1976.0 C 6363.0,1980.0 6383.0,1991.0 6392.0,2001.0 C 6401.0,2010.0 6423.0,2021.0 6440.0,2025.0 C 6462.0,2030.0 6481.0,2047.0 6511.0,2091.0 C 6539.0,2132.0 6557.0,2150.0 6572.0,2150.0 C 6593.0,2150.0 6613.0,2161.0 6720.0,2233.0 L 6765.0,2263.0 L 6848.0,2251.0 C 6919.0,2241.0 6936.0,2241.0 6962.0,2254.0 C 6979.0,2263.0 7014.0,2273.0 7041.0,2276.0 C 7103.0,2284.0 7165.0,2329.0 7174.0,2370.0 C 7177.0,2387.0 7183.0,2413.0 7186.0,2430.0 C 7190.0,2448.0 7216.0,2481.0 7256.0,2520.0 C 7291.0,2553.0 7320.0,2586.0 7320.0,2594.0 C 7320.0,2602.0 7336.0,2614.0 7355.0,2621.0 C 7384.0,2632.0 7390.0,2639.0 7390.0,2662.0 C 7390.0,2677.0 7394.0,2690.0 7400.0,2690.0 C 7405.0,2690.0 7416.0,2705.0 7424.0,2724.0 C 7437.0,2755.0 7442.0,2758.0 7496.0,2764.0 C 7529.0,2768.0 7575.0,2772.0 7600.0,2774.0 C 7625.0,2775.0 7657.0,2784.0 7673.0,2794.0 C 7696.0,2809.0 7700.0,2819.0 7700.0,2857.0 C 7700.0,2892.0 7706.0,2906.0 7726.0,2925.0 C 7741.0,2939.0 7757.0,2950.0 7762.0,2950.0 C 7768.0,2950.0 7783.0,2959.0 7796.0,2969.0 C 7817.0,2986.0 7832.0,2988.0 7888.0,2983.0 C 7943.0,2979.0 7958.0,2981.0 7969.0,2994.0 C 7976.0,3003.0 7989.0,3010.0 7998.0,3010.0 C 8014.0,3010.0 8053.0,3021.0 8125.0,3046.0 C 8151.0,3055.0 8167.0,3057.0 8174.0,3050.0 C 8180.0,3044.0 8199.0,3040.0 8218.0,3040.0 C 8240.0,3040.0 8265.0,3030.0 8289.0,3011.0 C 8341.0,2970.0 8363.0,2966.0 8407.0,2989.0 C 8440.0,3005.0 8450.0,3006.0 8475.0,2996.0 C 8500.0,2985.0 8509.0,2971.0 8526.0,2918.0 L 8547.0,2852.0 L 8514.0,2836.0 C 8495.0,2828.0 8474.0,2823.0 8465.0,2826.0 C 8455.0,2830.0 8447.0,2823.0 8440.0,2805.0 C 8426.0,2768.0 8427.0,2762.0 8449.0,2755.0 C 8460.0,2752.0 8473.0,2736.0 8479.0,2719.0 C 8489.0,2689.0 8490.0,2689.0 8547.0,2696.0 C 8611.0,2703.0 8606.0,2701.0 8709.0,2784.0 L 8781.0,2843.0 L 8802.0,2823.0 L 8822.0,2802.0 L 8851.0,2834.0 C 8871.0,2858.0 8894.0,2870.0 8933.0,2879.0 C 9055.0,2906.0 9060.0,2909.0 9080.0,2953.0 C 9096.0,2992.0 9103.0,2997.0 9176.0,3024.0 C 9252.0,3052.0 9255.0,3052.0 9304.0,3037.0 C 9341.0,3026.0 9373.0,3024.0 9420.0,3030.0 C 9480.0,3036.0 9487.0,3035.0 9505.0,3014.0 C 9516.0,3002.0 9539.0,2985.0 9556.0,2977.0 C 9585.0,2962.0 9588.0,2963.0 9615.0,2984.0 C 9631.0,2997.0 9652.0,3005.0 9661.0,3003.0 C 9671.0,3000.0 9695.0,3003.0 9715.0,3010.0 C 9748.0,3021.0 9760.0,3019.0 9827.0,2994.0 C 9901.0,2966.0 9903.0,2964.0 9932.0,2905.0 C 9949.0,2872.0 9963.0,2844.0 9965.0,2842.0 C 9966.0,2841.0 10001.0,2859.0 10041.0,2883.0 C 10082.0,2907.0 10137.0,2935.0 10164.0,2946.0 C 10226.0,2970.0 10241.0,2999.0 10216.0,3043.0 C 10199.0,3074.0 10199.0,3075.0 10219.0,3091.0 C 10233.0,3103.0 10240.0,3120.0 10240.0,3143.0 C 10240.0,3200.0 10204.0,3233.0 10095.0,3276.0 C 10003.0,3312.0 9999.0,3315.0 9972.0,3365.0 C 9925.0,3452.0 9917.0,3477.0 9924.0,3522.0 C 9930.0,3560.0 9939.0,3571.0 9990.0,3610.0 C 10062.0,3665.0 10067.0,3689.0 10011.0,3715.0 C 9989.0,3724.0 9959.0,3745.0 9944.0,3761.0 L 9916.0,3790.0 L 9947.0,3828.0 C 10010.0,3906.0 9998.0,3980.0 9905.0,4094.0 C 9864.0,4144.0 9852.0,4170.0 9827.0,4254.0 C 9771.0,4454.0 9768.0,4481.0 9796.0,4597.0 C 9827.0,4729.0 9826.0,4749.0 9790.0,4808.0 C 9724.0,4915.0 9644.0,4957.0 9403.0,5011.0 C 9303.0,5033.0 9299.0,5033.0 9261.0,5015.0 C 9221.0,4997.0 9221.0,4997.0 9156.0,5025.0 C 9120.0,5040.0 9082.0,5050.0 9071.0,5047.0 C 9060.0,5045.0 9042.0,5049.0 9030.0,5057.0 C 9006.0,5074.0 8916.0,5071.0 8848.0,5050.0 C 8813.0,5040.0 8810.0,5036.0 8810.0,5002.0 C 8809.0,4982.0 8803.0,4954.0 8796.0,4940.0 C 8784.0,4919.0 8784.0,4911.0 8800.0,4879.0 L 8819.0,4843.0 L 8763.0,4830.0 C 8683.0,4813.0 8610.0,4824.0 8563.0,4861.0 C 8536.0,4883.0 8517.0,4890.0 8497.0,4887.0 C 8474.0,4884.0 8464.0,4890.0 8444.0,4915.0 C 8431.0,4933.0 8420.0,4960.0 8420.0,4976.0 C 8420.0,4999.0 8407.0,5019.0 8365.0,5060.0 C 8321.0,5104.0 8310.0,5121.0 8310.0,5147.0 C 8310.0,5165.0 8301.0,5194.0 8291.0,5211.0 C 8280.0,5229.0 8266.0,5274.0 8259.0,5311.0 C 8248.0,5371.0 8249.0,5383.0 8266.0,5424.0 C 8284.0,5467.0 8288.0,5470.0 8339.0,5482.0 C 8405.0,5496.0 8420.0,5521.0 8396.0,5569.0 C 8385.0,5590.0 8361.0,5610.0 8325.0,5627.0 C 8277.0,5651.0 8268.0,5660.0 8244.0,5714.0 C 8228.0,5748.0 8206.0,5809.0 8194.0,5850.0 C 8174.0,5918.0 8170.0,5925.0 8144.0,5930.0 C 8116.0,5935.0 8115.0,5937.0 8107.0,6020.0 C 8097.0,6127.0 8102.0,6146.0 8146.0,6172.0 L 8181.0,6192.0 L 8157.0,6224.0 C 8130.0,6258.0 8103.0,6267.0 8023.0,6269.0 C 7967.0,6270.0 7913.0,6246.0 7769.0,6154.0 L 7702.0,6112.0 L 7489.0,6086.0 C 7371.0,6072.0 7152.0,6051.0 7002.0,6040.0 C 6745.0,6021.0 6722.0,6018.0 6607.0,5983.0 C 6460.0,5938.0 6427.0,5915.0 6358.0,5808.0 C 6277.0,5681.0 6254.0,5681.0 6067.0,5814.0 C 5995.0,5864.0 5932.0,5904.0 5927.0,5902.0 C 5921.0,5900.0 5891.0,5887.0 5861.0,5873.0 C 5807.0,5847.0 5804.0,5847.0 5749.0,5861.0 C 5696.0,5875.0 5690.0,5875.0 5666.0,5857.0 C 5628.0,5829.0 5600.0,5842.0 5600.0,5888.0 C 5600.0,5908.0 5593.0,5959.0 5583.0,6001.0 C 5568.0,6074.0 5565.0,6079.0 5531.0,6094.0 C 5510.0,6104.0 5472.0,6109.0 5439.0,6108.0 C 5363.0,6106.0 5302.0,6143.0 5260.0,6217.0 C 5190.0,6341.0 5128.0,6349.0 4933.0,6263.0 C 4862.0,6231.0 4785.0,6190.0 4761.0,6171.0 C 4738.0,6152.0 4655.0,6108.0 4577.0,6072.0 C 4499.0,6037.0 4423.0,5999.0 4409.0,5989.0 C 4347.0,5945.0 4275.0,5979.0 4245.0,6065.0 C 4227.0,6118.0 4227.0,6123.0 4243.0,6153.0 C 4252.0,6171.0 4262.0,6202.0 4266.0,6223.0 C 4272.0,6257.0 4269.0,6265.0 4239.0,6296.0 C 4208.0,6328.0 4202.0,6330.0 4139.0,6330.0 C 4103.0,6330.0 4054.0,6323.0 4031.0,6315.0 C 3996.0,6303.0 3976.0,6302.0 3917.0,6312.0 C 3846.0,6323.0 3845.0,6322.0 3792.0,6291.0 C 3763.0,6274.0 3737.0,6260.0 3734.0,6260.0 C 3731.0,6260.0 3702.0,6276.0 3670.0,6296.0 L 3612.0,6332.0 L 3568.0,6307.0 C 3525.0,6282.0 3523.0,6281.0 3215.0,6276.0 C 3045.0,6272.0 2859.0,6267.0 2803.0,6264.0 L 2701.0,6259.0 L 2681.0,6299.0 C 2664.0,6331.0 2660.0,6358.0 2660.0,6435.0 C 2660.0,6527.0 2658.0,6534.0 2615.0,6627.0 C 2590.0,6680.0 2570.0,6729.0 2570.0,6737.0 C 2570.0,6745.0 2584.0,6783.0 2600.0,6822.0 C 2618.0,6864.0 2630.0,6910.0 2630.0,6936.0 C 2630.0,6969.0 2635.0,6982.0 2650.0,6990.0 C 2677.0,7005.0 2681.0,7001.0 2715.0,6931.0 C 2731.0,6897.0 2748.0,6870.0 2754.0,6870.0 C 2760.0,6870.0 2789.0,6881.0 2818.0,6895.0 L 2870.0,6919.0 L 2870.0,6989.0 C 2870.0,7049.0 2873.0,7061.0 2890.0,7070.0 C 2903.0,7077.0 2910.0,7091.0 2910.0,7109.0 C 2910.0,7134.0 2913.0,7137.0 2931.0,7133.0 C 2943.0,7129.0 2963.0,7136.0 2982.0,7150.0 C 3009.0,7170.0 3018.0,7171.0 3041.0,7163.0 C 3066.0,7153.0 3077.0,7157.0 3140.0,7197.0 L 3211.0,7243.0 L 3306.0,7236.0 C 3403.0,7229.0 3610.0,7175.0 3771.0,7114.0 L 3847.0,7086.0 L 3958.0,7119.0 L 4069.0,7153.0 L 4172.0,7139.0 C 4254.0,7127.0 4275.0,7121.0 4274.0,7109.0 C 4273.0,7100.0 4270.0,7073.0 4266.0,7048.0 C 4259.0,7004.0 4260.0,7002.0 4290.0,6990.0 C 4320.0,6978.0 4323.0,6979.0 4365.0,7020.0 C 4394.0,7048.0 4410.0,7074.0 4414.0,7098.0 C 4423.0,7153.0 4481.0,7227.0 4522.0,7235.0 C 4541.0,7239.0 4574.0,7261.0 4602.0,7288.0 L 4650.0,7334.0 L 4787.0,7349.0 L 4925.0,7365.0 L 4928.0,7413.0 C 4931.0,7457.0 4930.0,7460.0 4907.0,7460.0 C 4893.0,7460.0 4863.0,7451.0 4839.0,7441.0 C 4815.0,7430.0 4768.0,7418.0 4735.0,7414.0 C 4686.0,7408.0 4659.0,7397.0 4583.0,7348.0 C 4525.0,7311.0 4486.0,7291.0 4478.0,7296.0 C 4471.0,7300.0 4437.0,7326.0 4404.0,7352.0 C 4348.0,7396.0 4342.0,7404.0 4335.0,7448.0 C 4327.0,7502.0 4315.0,7520.0 4289.0,7520.0 C 4279.0,7520.0 4265.0,7529.0 4258.0,7540.0 C 4249.0,7553.0 4230.0,7562.0 4198.0,7566.0 C 4171.0,7570.0 4150.0,7576.0 4150.0,7581.0 C 4150.0,7586.0 4118.0,7624.0 4079.0,7665.0 C 4018.0,7729.0 4010.0,7741.0 4026.0,7747.0 C 4037.0,7750.0 4059.0,7764.0 4076.0,7777.0 C 4093.0,7790.0 4118.0,7800.0 4132.0,7800.0 C 4149.0,7800.0 4169.0,7812.0 4187.0,7833.0 C 4203.0,7850.0 4239.0,7876.0 4266.0,7890.0 C 4296.0,7905.0 4316.0,7923.0 4318.0,7935.0 C 4322.0,7955.0 4345.0,7976.0 4488.0,8087.0 C 4571.0,8151.0 4571.0,8150.0 4480.0,8196.0 C 4450.0,8211.0 4423.0,8225.0 4421.0,8226.0 C 4419.0,8228.0 4427.0,8245.0 4439.0,8265.0 C 4463.0,8306.0 4457.0,8326.0 4415.0,8354.0 C 4401.0,8363.0 4379.0,8395.0 4366.0,8425.0 C 4343.0,8477.0 4340.0,8478.0 4287.0,8490.0 C 4237.0,8502.0 4230.0,8507.0 4214.0,8541.0 C 4195.0,8585.0 4182.0,8598.0 4160.0,8594.0" fill="pink"/>
</svg>
