<?xml version="1.0" ?>
<svg xmlns="http://www.w3.org/2000/svg" xmlns:ev="http://www.w3.org/2001/xml-events" xmlns:xlink="http://www.w3.org/1999/xlink" baseProfile="full" height="600px" version="1.1" viewBox="1616.2563590963618 -1029.125722621173 7012.374906868289 12298.308386746556" width="343px">
	<defs/>
	<path d="M 2211.0,10226.0 C 2201.0,10214.0 2203.0,10209.0 2219.0,10201.0 C 2230.0,10195.0 2246.0,10190.0 2255.0,10190.0 C 2274.0,10190.0 2320.0,10219.0 2320.0,10231.0 C 2320.0,10246.0 2224.0,10241.0 2211.0,10226.0" fill="pink"/>
	<path d="M 2347.0,10223.0 C 2321.0,10198.0 2369.0,10150.0 2420.0,10150.0 C 2444.0,10150.0 2445.0,10161.0 2425.0,10200.0 C 2413.0,10223.0 2402.0,10230.0 2381.0,10230.0 C 2366.0,10230.0 2350.0,10227.0 2347.0,10223.0" fill="pink"/>
	<path d="M 2250.0,10125.0 C 2240.0,10114.0 2240.0,10106.0 2248.0,10098.0 C 2263.0,10083.0 2292.0,10096.0 2288.0,10117.0 C 2284.0,10140.0 2266.0,10144.0 2250.0,10125.0" fill="pink"/>
	<path d="M 2432.0,10076.0 C 2433.0,10050.0 2426.0,10036.0 2406.0,10018.0 C 2387.0,10002.0 2381.0,9989.0 2385.0,9978.0 C 2400.0,9941.0 2490.0,9991.0 2490.0,10035.0 C 2490.0,10058.0 2455.0,10110.0 2440.0,10110.0 C 2435.0,10110.0 2431.0,10095.0 2432.0,10076.0" fill="pink"/>
	<path d="M 2240.0,10061.0 C 2240.0,10046.0 2269.0,10028.0 2285.0,10034.0 C 2313.0,10044.0 2302.0,10070.0 2270.0,10070.0 C 2254.0,10070.0 2240.0,10066.0 2240.0,10061.0" fill="pink"/>
	<path d="M 2273.0,9993.0 C 2263.0,9968.0 2296.0,9945.0 2327.0,9956.0 C 2368.0,9970.0 2365.0,9986.0 2320.0,9998.0 C 2286.0,10006.0 2278.0,10006.0 2273.0,9993.0" fill="pink"/>
	<path d="M 4723.0,7923.0 C 4702.0,7919.0 4671.0,7865.0 4683.0,7853.0 C 4687.0,7850.0 4709.0,7844.0 4732.0,7839.0 C 4771.0,7832.0 4777.0,7833.0 4797.0,7855.0 L 4819.0,7880.0 L 4796.0,7905.0 C 4773.0,7930.0 4766.0,7931.0 4723.0,7923.0" fill="pink"/>
	<path d="M 4517.0,7822.0 C 4496.0,7799.0 4496.0,7786.0 4514.0,7771.0 C 4525.0,7762.0 4533.0,7766.0 4554.0,7791.0 C 4568.0,7808.0 4578.0,7826.0 4574.0,7831.0 C 4565.0,7846.0 4534.0,7841.0 4517.0,7822.0" fill="pink"/>
	<path d="M 4795.0,7800.0 C 4792.0,7795.0 4796.0,7790.0 4804.0,7790.0 C 4813.0,7790.0 4820.0,7795.0 4820.0,7800.0 C 4820.0,7806.0 4816.0,7810.0 4811.0,7810.0 C 4805.0,7810.0 4798.0,7806.0 4795.0,7800.0" fill="pink"/>
	<path d="M 4808.0,7744.0 C 4804.0,7741.0 4813.0,7706.0 4826.0,7667.0 C 4839.0,7628.0 4850.0,7586.0 4850.0,7573.0 C 4850.0,7548.0 4860.0,7544.0 4878.0,7562.0 C 4897.0,7581.0 4892.0,7624.0 4865.0,7678.0 C 4851.0,7706.0 4840.0,7733.0 4840.0,7739.0 C 4840.0,7751.0 4818.0,7754.0 4808.0,7744.0" fill="pink"/>
	<path d="M 4520.0,7720.0 C 4520.0,7708.0 4510.0,7686.0 4498.0,7670.0 C 4477.0,7641.0 4477.0,7640.0 4495.0,7620.0 C 4513.0,7600.0 4515.0,7600.0 4527.0,7616.0 C 4542.0,7637.0 4545.0,7740.0 4530.0,7740.0 C 4525.0,7740.0 4520.0,7731.0 4520.0,7720.0" fill="pink"/>
	<path d="M 4577.0,7553.0 C 4563.0,7540.0 4571.0,7520.0 4589.0,7520.0 C 4614.0,7520.0 4627.0,7540.0 4609.0,7551.0 C 4592.0,7562.0 4585.0,7562.0 4577.0,7553.0" fill="pink"/>
	<path d="M 4760.0,7530.0 C 4760.0,7525.0 4769.0,7520.0 4781.0,7520.0 C 4792.0,7520.0 4798.0,7525.0 4795.0,7530.0 C 4792.0,7536.0 4782.0,7540.0 4774.0,7540.0 C 4766.0,7540.0 4760.0,7536.0 4760.0,7530.0" fill="pink"/>
	<path d="M 4705.0,7520.0 C 4708.0,7515.0 4718.0,7510.0 4726.0,7510.0 C 4734.0,7510.0 4740.0,7515.0 4740.0,7520.0 C 4740.0,7526.0 4731.0,7530.0 4719.0,7530.0 C 4708.0,7530.0 4702.0,7526.0 4705.0,7520.0" fill="pink"/>
	<path d="M 4658.0,7503.0 C 4664.0,7501.0 4676.0,7501.0 4683.0,7503.0 C 4689.0,7506.0 4684.0,7508.0 4670.0,7508.0 C 4656.0,7508.0 4651.0,7506.0 4658.0,7503.0" fill="pink"/>
	<path d="M 7278.0,6996.0 C 7251.0,6976.0 7257.0,6963.0 7297.0,6953.0 C 7326.0,6946.0 7340.0,6935.0 7360.0,6900.0 C 7391.0,6847.0 7414.0,6842.0 7418.0,6885.0 C 7421.0,6918.0 7395.0,6949.0 7330.0,6988.0 C 7301.0,7005.0 7292.0,7006.0 7278.0,6996.0" fill="pink"/>
	<path d="M 7340.0,6778.0 C 7341.0,6760.0 7347.0,6734.0 7355.0,6720.0 C 7363.0,6706.0 7369.0,6674.0 7370.0,6648.0 C 7370.0,6607.0 7373.0,6600.0 7390.0,6600.0 C 7407.0,6600.0 7410.0,6607.0 7410.0,6651.0 C 7410.0,6679.0 7404.0,6716.0 7396.0,6733.0 C 7388.0,6751.0 7380.0,6774.0 7378.0,6785.0 C 7376.0,6796.0 7367.0,6806.0 7357.0,6808.0 C 7344.0,6811.0 7340.0,6805.0 7340.0,6778.0" fill="pink"/>
	<path d="M 7211.0,6777.0 C 7203.0,6766.0 7205.0,6759.0 7219.0,6746.0 C 7235.0,6731.0 7238.0,6731.0 7250.0,6745.0 C 7260.0,6757.0 7260.0,6763.0 7250.0,6775.0 C 7235.0,6794.0 7226.0,6794.0 7211.0,6777.0" fill="pink"/>
	<path d="M 7290.0,6665.0 C 7297.0,6657.0 7306.0,6653.0 7311.0,6656.0 C 7324.0,6664.0 7312.0,6680.0 7293.0,6680.0 C 7280.0,6680.0 7280.0,6677.0 7290.0,6665.0" fill="pink"/>
	<path d="M 7330.0,6620.0 C 7330.0,6615.0 7335.0,6610.0 7340.0,6610.0 C 7346.0,6610.0 7350.0,6615.0 7350.0,6620.0 C 7350.0,6626.0 7346.0,6630.0 7340.0,6630.0 C 7335.0,6630.0 7330.0,6626.0 7330.0,6620.0" fill="pink"/>
	<path d="M 7913.0,100.0 C 7862.0,79.0 7905.0,0.0 7966.0,0.0 C 7999.0,0.0 8040.0,35.0 8040.0,62.0 C 8040.0,102.0 7970.0,123.0 7913.0,100.0" fill="pink"/>
</svg>
