<?xml version="1.0" ?>
<svg xmlns="http://www.w3.org/2000/svg" xmlns:ev="http://www.w3.org/2001/xml-events" xmlns:xlink="http://www.w3.org/1999/xlink" baseProfile="full" height="292px" version="1.1" viewBox="-1029.12 2138.4230781019232 12298.24 5967.7230627769195" width="600px">
	<defs/>
	<path d="M 8604.0,7559.0 C 8577.0,7531.0 8510.0,7473.0 8455.0,7430.0 C 8364.0,7360.0 8346.0,7350.0 8260.0,7326.0 C 8208.0,7311.0 8142.0,7292.0 8113.0,7284.0 C 8085.0,7276.0 8028.0,7245.0 7986.0,7215.0 C 7901.0,7154.0 7898.0,7153.0 7761.0,7171.0 L 7675.0,7183.0 L 7590.0,7140.0 C 7543.0,7116.0 7447.0,7073.0 7377.0,7044.0 C 7306.0,7014.0 7203.0,6963.0 7149.0,6930.0 C 7050.0,6870.0 7049.0,6870.0 6972.0,6870.0 L 6894.0,6870.0 L 6856.0,6920.0 C 6820.0,6968.0 6814.0,6971.0 6717.0,7000.0 C 6661.0,7017.0 6578.0,7047.0 6533.0,7066.0 C 6455.0,7098.0 6446.0,7100.0 6331.0,7100.0 C 6265.0,7100.0 6165.0,7095.0 6109.0,7089.0 L 6007.0,7078.0 L 5916.0,7010.0 C 5866.0,6973.0 5758.0,6906.0 5675.0,6861.0 L 5525.0,6780.0 L 5405.0,6780.0 C 5222.0,6780.0 4974.0,6747.0 4868.0,6709.0 L 4780.0,6678.0 L 4698.0,6713.0 C 4588.0,6759.0 4487.0,6792.0 4290.0,6844.0 L 4127.0,6888.0 L 4026.0,6854.0 C 3933.0,6822.0 3917.0,6820.0 3799.0,6820.0 L 3671.0,6820.0 L 3539.0,6748.0 C 3435.0,6692.0 3389.0,6673.0 3321.0,6659.0 C 3213.0,6636.0 3177.0,6636.0 3069.0,6659.0 C 2985.0,6676.0 2982.0,6676.0 2957.0,6658.0 C 2943.0,6648.0 2900.0,6628.0 2861.0,6615.0 C 2798.0,6594.0 2784.0,6592.0 2727.0,6602.0 C 2674.0,6611.0 2648.0,6609.0 2560.0,6591.0 C 2466.0,6572.0 2447.0,6564.0 2381.0,6518.0 L 2307.0,6467.0 L 2243.0,6477.0 C 2110.0,6497.0 1791.0,6430.0 1547.0,6333.0 L 1458.0,6297.0 L 1357.0,6307.0 C 1256.0,6317.0 1254.0,6317.0 1182.0,6287.0 C 1117.0,6261.0 1044.0,6238.0 858.0,6184.0 L 802.0,6167.0 L 747.0,5946.0 C 717.0,5824.0 689.0,5696.0 685.0,5660.0 C 682.0,5624.0 669.0,5567.0 657.0,5532.0 L 636.0,5469.0 L 520.0,5397.0 C 413.0,5331.0 399.0,5319.0 357.0,5255.0 C 332.0,5217.0 289.0,5140.0 262.0,5085.0 C 227.0,5016.0 188.0,4958.0 136.0,4899.0 C 91.0,4848.0 53.0,4793.0 41.0,4762.0 C 24.0,4720.0 0.0,4558.0 0.0,4490.0 C 0.0,4480.0 27.0,4449.0 61.0,4421.0 L 122.0,4370.0 L 210.0,4370.0 L 299.0,4370.0 L 342.0,4433.0 L 386.0,4495.0 L 485.0,4506.0 C 540.0,4512.0 606.0,4527.0 631.0,4538.0 C 675.0,4557.0 679.0,4563.0 705.0,4632.0 C 720.0,4672.0 736.0,4709.0 741.0,4714.0 C 745.0,4719.0 795.0,4689.0 852.0,4649.0 C 909.0,4608.0 984.0,4557.0 1018.0,4535.0 L 1080.0,4495.0 L 1080.0,4384.0 C 1080.0,4292.0 1076.0,4261.0 1055.0,4200.0 C 1034.0,4139.0 1030.0,4107.0 1030.0,4018.0 L 1030.0,3910.0 L 951.0,3910.0 L 872.0,3910.0 L 775.0,3834.0 C 722.0,3793.0 677.0,3760.0 675.0,3762.0 C 673.0,3764.0 654.0,3787.0 632.0,3815.0 C 594.0,3862.0 588.0,3866.0 509.0,3885.0 C 425.0,3906.0 425.0,3906.0 335.0,3887.0 C 286.0,3876.0 240.0,3863.0 234.0,3856.0 C 214.0,3837.0 183.0,3739.0 165.0,3640.0 L 147.0,3544.0 L 211.0,3448.0 L 275.0,3351.0 L 393.0,3299.0 L 510.0,3246.0 L 510.0,3170.0 C 510.0,3094.0 510.0,3094.0 550.0,3055.0 C 599.0,3007.0 630.0,2915.0 630.0,2818.0 C 630.0,2744.0 648.0,2640.0 662.0,2640.0 C 678.0,2640.0 774.0,2692.0 821.0,2726.0 C 864.0,2757.0 873.0,2760.0 941.0,2760.0 C 997.0,2760.0 1038.0,2768.0 1110.0,2791.0 C 1218.0,2827.0 1270.0,2868.0 1342.0,2975.0 C 1405.0,3068.0 1478.0,3139.0 1525.0,3151.0 C 1553.0,3158.0 1585.0,3181.0 1630.0,3225.0 C 1666.0,3260.0 1720.0,3300.0 1750.0,3315.0 C 1780.0,3330.0 1837.0,3364.0 1875.0,3390.0 C 1914.0,3415.0 1983.0,3451.0 2031.0,3468.0 C 2102.0,3495.0 2130.0,3500.0 2201.0,3500.0 L 2286.0,3500.0 L 2360.0,3554.0 C 2428.0,3602.0 2444.0,3609.0 2530.0,3625.0 C 2645.0,3646.0 2639.0,3644.0 2771.0,3740.0 L 2876.0,3817.0 L 2941.0,3785.0 L 3005.0,3753.0 L 3101.0,3764.0 C 3186.0,3774.0 3204.0,3780.0 3255.0,3813.0 C 3286.0,3834.0 3345.0,3866.0 3385.0,3885.0 C 3426.0,3903.0 3485.0,3933.0 3517.0,3952.0 L 3575.0,3986.0 L 3672.0,3976.0 L 3768.0,3967.0 L 3828.0,4017.0 L 3888.0,4067.0 L 4057.0,4073.0 C 4313.0,4083.0 4302.0,4080.0 4401.0,4166.0 C 4470.0,4226.0 4509.0,4250.0 4620.0,4302.0 C 4729.0,4352.0 4793.0,4391.0 4947.0,4503.0 L 5140.0,4641.0 L 5277.0,4665.0 C 5353.0,4678.0 5438.0,4696.0 5465.0,4705.0 C 5618.0,4753.0 5597.0,4753.0 5701.0,4706.0 L 5795.0,4663.0 L 5895.0,4686.0 C 5950.0,4698.0 6068.0,4736.0 6158.0,4769.0 C 6308.0,4825.0 6327.0,4830.0 6402.0,4830.0 C 6447.0,4830.0 6524.0,4835.0 6574.0,4842.0 L 6665.0,4853.0 L 6726.0,4912.0 C 6780.0,4963.0 6795.0,4987.0 6845.0,5098.0 C 6974.0,5381.0 6995.0,5417.0 7055.0,5455.0 C 7104.0,5487.0 7116.0,5490.0 7182.0,5490.0 L 7256.0,5490.0 L 7305.0,5540.0 C 7366.0,5602.0 7393.0,5610.0 7539.0,5610.0 C 7650.0,5610.0 7653.0,5611.0 7709.0,5644.0 C 7781.0,5688.0 7869.0,5705.0 7947.0,5690.0 C 7978.0,5685.0 8051.0,5680.0 8108.0,5680.0 L 8213.0,5680.0 L 8319.0,5759.0 C 8561.0,5938.0 8654.0,5983.0 8829.0,6005.0 C 8886.0,6013.0 8936.0,6022.0 8939.0,6027.0 C 8976.0,6082.0 9023.0,6128.0 9120.0,6205.0 C 9183.0,6256.0 9271.0,6329.0 9315.0,6369.0 C 9359.0,6408.0 9418.0,6454.0 9447.0,6471.0 C 9485.0,6492.0 9516.0,6524.0 9562.0,6586.0 C 9608.0,6649.0 9648.0,6689.0 9712.0,6737.0 C 9775.0,6784.0 9808.0,6816.0 9827.0,6851.0 L 9855.0,6900.0 L 9908.0,6900.0 C 9960.0,6900.0 9963.0,6902.0 10034.0,6968.0 C 10074.0,7005.0 10137.0,7061.0 10173.0,7093.0 C 10210.0,7125.0 10240.0,7154.0 10240.0,7158.0 C 10240.0,7162.0 10197.0,7193.0 10145.0,7228.0 C 10066.0,7279.0 10043.0,7290.0 10008.0,7290.0 C 9975.0,7290.0 9942.0,7303.0 9870.0,7343.0 L 9775.0,7395.0 L 9766.0,7455.0 C 9761.0,7488.0 9756.0,7517.0 9754.0,7518.0 C 9749.0,7525.0 9636.0,7480.0 9527.0,7427.0 L 9418.0,7376.0 L 9312.0,7398.0 C 9253.0,7410.0 9185.0,7420.0 9160.0,7420.0 C 9119.0,7420.0 9111.0,7425.0 9054.0,7481.0 L 8992.0,7542.0 L 8854.0,7570.0 C 8777.0,7585.0 8701.0,7600.0 8684.0,7603.0 C 8657.0,7608.0 8647.0,7603.0 8604.0,7559.0" fill="pink"/>
</svg>
