<?xml version="1.0" ?>
<svg xmlns="http://www.w3.org/2000/svg" xmlns:ev="http://www.w3.org/2001/xml-events" xmlns:xlink="http://www.w3.org/1999/xlink" baseProfile="full" height="557px" version="1.1" viewBox="-1026.756010583519 -589.1577731535602 12294.82202828393 11410.707507533463" width="600px">
	<defs/>
	<path d="M 684.0,9863.0 C 652.0,9857.0 546.0,9758.0 478.0,9673.0 C 341.0,9499.0 210.0,9350.0 113.0,9255.0 C 16.0,9160.0 11.0,9152.0 5.0,9104.0 C -2.0,9055.0 0.0,9050.0 52.0,8969.0 C 84.0,8920.0 121.0,8842.0 143.0,8781.0 C 178.0,8684.0 181.0,8666.0 190.0,8506.0 C 204.0,8266.0 209.0,8223.0 236.0,8159.0 C 248.0,8129.0 270.0,8063.0 284.0,8013.0 C 298.0,7964.0 326.0,7877.0 346.0,7821.0 L 383.0,7718.0 L 499.0,7616.0 C 611.0,7518.0 620.0,7513.0 759.0,7455.0 L 903.0,7395.0 L 984.0,7307.0 C 1086.0,7196.0 1289.0,7035.0 1490.0,6907.0 C 1611.0,6830.0 1667.0,6787.0 1745.0,6709.0 L 1845.0,6610.0 L 2042.0,6610.0 C 2385.0,6610.0 2552.0,6573.0 3035.0,6393.0 C 3240.0,6316.0 3275.0,6300.0 3353.0,6243.0 C 3402.0,6208.0 3484.0,6158.0 3536.0,6132.0 C 3610.0,6096.0 3632.0,6080.0 3642.0,6055.0 C 3649.0,6039.0 3654.0,6023.0 3654.0,6020.0 C 3653.0,6017.0 3650.0,6003.0 3646.0,5989.0 C 3642.0,5969.0 3651.0,5948.0 3687.0,5894.0 C 3714.0,5854.0 3737.0,5806.0 3742.0,5780.0 C 3749.0,5743.0 3760.0,5727.0 3805.0,5687.0 C 3835.0,5661.0 3857.0,5634.0 3855.0,5627.0 C 3853.0,5620.0 3849.0,5594.0 3846.0,5568.0 L 3840.0,5520.0 L 3895.0,5480.0 L 3949.0,5440.0 L 3934.0,5404.0 L 3918.0,5367.0 L 3981.0,5304.0 C 4038.0,5247.0 4053.0,5238.0 4134.0,5210.0 C 4201.0,5188.0 4281.0,5146.0 4440.0,5050.0 C 4737.0,4871.0 4874.0,4824.0 5159.0,4803.0 L 5247.0,4797.0 L 5346.0,4874.0 C 5508.0,4998.0 5671.0,5208.0 5753.0,5399.0 L 5803.0,5515.0 L 5797.0,5645.0 C 5794.0,5716.0 5782.0,5819.0 5771.0,5872.0 C 5752.0,5961.0 5746.0,5976.0 5699.0,6036.0 L 5647.0,6101.0 L 5654.0,6177.0 C 5658.0,6233.0 5667.0,6265.0 5687.0,6299.0 C 5740.0,6390.0 5895.0,6617.0 6011.0,6772.0 C 6077.0,6859.0 6130.0,6939.0 6130.0,6948.0 C 6130.0,6972.0 6182.0,7079.0 6224.0,7142.0 C 6255.0,7187.0 6269.0,7198.0 6327.0,7222.0 C 6365.0,7237.0 6405.0,7250.0 6418.0,7250.0 C 6436.0,7250.0 6445.0,7259.0 6457.0,7289.0 C 6475.0,7334.0 6481.0,7338.0 6558.0,7346.0 C 6590.0,7349.0 6647.0,7362.0 6685.0,7375.0 C 6724.0,7387.0 6787.0,7403.0 6827.0,7410.0 C 6882.0,7419.0 6910.0,7430.0 6942.0,7454.0 C 6966.0,7472.0 7010.0,7494.0 7040.0,7503.0 C 7096.0,7520.0 7146.0,7552.0 7238.0,7628.0 L 7290.0,7672.0 L 7290.0,7747.0 C 7290.0,7838.0 7278.0,7861.0 7205.0,7913.0 C 7159.0,7945.0 7148.0,7959.0 7129.0,8011.0 C 7108.0,8067.0 7101.0,8075.0 7034.0,8120.0 C 6975.0,8161.0 6955.0,8181.0 6923.0,8237.0 C 6887.0,8300.0 6882.0,8305.0 6840.0,8313.0 C 6815.0,8318.0 6730.0,8336.0 6650.0,8355.0 C 6570.0,8374.0 6470.0,8394.0 6427.0,8400.0 C 6370.0,8409.0 6308.0,8429.0 6197.0,8477.0 L 6045.0,8543.0 L 5912.0,8542.0 L 5779.0,8542.0 L 5709.0,8499.0 C 5646.0,8461.0 5624.0,8454.0 5483.0,8429.0 C 5397.0,8413.0 5290.0,8396.0 5246.0,8390.0 C 5175.0,8381.0 5158.0,8374.0 5095.0,8333.0 C 5055.0,8306.0 4997.0,8256.0 4966.0,8220.0 C 4906.0,8153.0 4884.0,8142.0 4803.0,8141.0 C 4776.0,8140.0 4770.0,8144.0 4770.0,8161.0 C 4770.0,8176.0 4765.0,8180.0 4755.0,8176.0 C 4746.0,8173.0 4647.0,8141.0 4534.0,8105.0 L 4330.0,8040.0 L 4159.0,8040.0 L 3989.0,8040.0 L 3812.0,8104.0 C 3562.0,8195.0 3572.0,8190.0 3541.0,8245.0 C 3515.0,8293.0 3514.0,8294.0 3370.0,8351.0 C 3245.0,8401.0 3216.0,8409.0 3157.0,8410.0 C 3072.0,8410.0 3015.0,8437.0 2927.0,8519.0 C 2845.0,8597.0 2664.0,8695.0 2568.0,8715.0 C 2530.0,8723.0 2468.0,8730.0 2431.0,8730.0 L 2364.0,8730.0 L 2336.0,8673.0 L 2308.0,8615.0 L 2294.0,8643.0 C 2277.0,8674.0 2268.0,8676.0 2250.0,8655.0 C 2225.0,8625.0 2115.0,8582.0 2045.0,8575.0 C 1979.0,8568.0 1972.0,8565.0 1925.0,8520.0 C 1882.0,8478.0 1867.0,8471.0 1820.0,8465.0 C 1790.0,8461.0 1749.0,8447.0 1728.0,8434.0 C 1699.0,8415.0 1677.0,8410.0 1628.0,8410.0 C 1572.0,8410.0 1560.0,8414.0 1519.0,8444.0 C 1487.0,8468.0 1471.0,8488.0 1467.0,8509.0 L 1461.0,8540.0 L 1378.0,8540.0 C 1332.0,8541.0 1223.0,8547.0 1135.0,8554.0 C 983.0,8567.0 971.0,8570.0 894.0,8606.0 C 828.0,8638.0 802.0,8658.0 754.0,8712.0 C 721.0,8749.0 663.0,8804.0 625.0,8833.0 C 541.0,8899.0 485.0,8989.0 476.0,9073.0 C 473.0,9101.0 466.0,9170.0 460.0,9225.0 C 449.0,9323.0 450.0,9327.0 478.0,9410.0 L 506.0,9495.0 L 603.0,9570.0 C 674.0,9625.0 714.0,9665.0 751.0,9718.0 L 802.0,9792.0 L 772.0,9828.0 C 743.0,9864.0 725.0,9872.0 684.0,9863.0" fill="pink"/>
	<path d="M 9843.0,4583.0 C 9804.0,4572.0 9770.0,4549.0 9703.0,4491.0 C 9561.0,4367.0 9540.0,4334.0 9477.0,4130.0 C 9446.0,4034.0 9419.0,3924.0 9415.0,3885.0 C 9408.0,3819.0 9404.0,3810.0 9345.0,3730.0 C 9260.0,3614.0 9253.0,3602.0 9246.0,3550.0 C 9239.0,3509.0 9233.0,3500.0 9163.0,3445.0 C 9122.0,3412.0 9029.0,3323.0 8957.0,3247.0 L 8826.0,3109.0 L 8779.0,2977.0 C 8753.0,2904.0 8707.0,2774.0 8676.0,2687.0 C 8638.0,2580.0 8620.0,2513.0 8620.0,2481.0 C 8620.0,2454.0 8608.0,2400.0 8590.0,2353.0 C 8561.0,2273.0 8561.0,2269.0 8570.0,2168.0 C 8579.0,2063.0 8601.0,1964.0 8664.0,1735.0 C 8716.0,1545.0 8724.0,1533.0 8840.0,1472.0 C 8893.0,1443.0 8943.0,1412.0 8952.0,1403.0 C 8994.0,1352.0 9089.0,1189.0 9102.0,1145.0 L 9116.0,1095.0 L 9173.0,1098.0 L 9230.0,1102.0 L 9302.0,1038.0 C 9342.0,1003.0 9398.0,956.0 9425.0,933.0 C 9453.0,911.0 9538.0,817.0 9615.0,725.0 C 9754.0,560.0 9756.0,558.0 9845.0,513.0 C 9901.0,485.0 9955.0,449.0 9988.0,417.0 L 10040.0,366.0 L 10072.0,405.0 C 10090.0,427.0 10126.0,468.0 10152.0,496.0 C 10199.0,546.0 10200.0,548.0 10206.0,626.0 C 10209.0,669.0 10218.0,735.0 10226.0,772.0 C 10245.0,865.0 10244.0,946.0 10220.0,1014.0 C 10175.0,1146.0 10170.0,1211.0 10180.0,1493.0 C 10186.0,1637.0 10192.0,1767.0 10195.0,1782.0 C 10197.0,1797.0 10175.0,1908.0 10144.0,2029.0 L 10089.0,2249.0 L 10114.0,2332.0 C 10130.0,2385.0 10143.0,2466.0 10151.0,2555.0 L 10164.0,2695.0 L 10132.0,2783.0 C 10106.0,2856.0 10100.0,2886.0 10100.0,2955.0 C 10100.0,3030.0 10097.0,3045.0 10071.0,3088.0 L 10043.0,3136.0 L 10073.0,3211.0 L 10102.0,3285.0 L 10086.0,3390.0 C 10077.0,3448.0 10070.0,3517.0 10070.0,3543.0 C 10070.0,3576.0 10061.0,3608.0 10041.0,3648.0 C 9973.0,3782.0 9930.0,3901.0 9930.0,3954.0 C 9930.0,3996.0 9925.0,4012.0 9902.0,4040.0 C 9876.0,4070.0 9874.0,4078.0 9882.0,4112.0 C 9886.0,4134.0 9905.0,4176.0 9923.0,4208.0 C 9953.0,4262.0 9955.0,4270.0 9954.0,4360.0 C 9953.0,4435.0 9947.0,4469.0 9928.0,4523.0 C 9914.0,4560.0 9901.0,4592.0 9899.0,4594.0 C 9897.0,4596.0 9872.0,4591.0 9843.0,4583.0" fill="pink"/>
</svg>
