<?xml version="1.0" ?>
<svg xmlns="http://www.w3.org/2000/svg" xmlns:ev="http://www.w3.org/2001/xml-events" xmlns:xlink="http://www.w3.org/1999/xlink" baseProfile="full" height="265px" version="1.1" viewBox="-1021.7241339737278 2410.3527176198327 12286.217883250483 5425.717917639613" width="600px">
	<defs/>
	<path d="M 584.0,7359.0 C 556.0,7327.0 533.0,7318.0 461.0,7310.0 C 399.0,7302.0 393.0,7299.0 355.0,7256.0 C 330.0,7227.0 307.0,7210.0 293.0,7210.0 C 260.0,7210.0 211.0,7152.0 225.0,7130.0 C 228.0,7125.0 262.0,7102.0 300.0,7080.0 L 370.0,7039.0 L 370.0,6974.0 C 370.0,6933.0 364.0,6901.0 355.0,6886.0 C 336.0,6858.0 255.0,6804.0 216.0,6794.0 L 187.0,6787.0 L 194.0,6704.0 C 202.0,6603.0 197.0,6590.0 106.0,6500.0 C 56.0,6452.0 40.0,6429.0 40.0,6408.0 C 40.0,6385.0 46.0,6379.0 78.0,6371.0 C 98.0,6366.0 152.0,6358.0 197.0,6354.0 C 267.0,6349.0 284.0,6350.0 307.0,6365.0 C 367.0,6404.0 440.0,6402.0 440.0,6361.0 C 440.0,6347.0 421.0,6336.0 365.0,6315.0 C 324.0,6300.0 271.0,6274.0 248.0,6257.0 C 224.0,6239.0 187.0,6218.0 165.0,6209.0 C 126.0,6193.0 125.0,6191.0 123.0,6144.0 C 123.0,6117.0 113.0,6075.0 102.0,6050.0 C 90.0,6026.0 83.0,6003.0 86.0,6001.0 C 88.0,5998.0 116.0,6021.0 148.0,6051.0 C 179.0,6081.0 231.0,6126.0 263.0,6150.0 C 295.0,6174.0 330.0,6204.0 340.0,6217.0 C 363.0,6247.0 499.0,6310.0 539.0,6310.0 C 562.0,6310.0 576.0,6319.0 597.0,6345.0 C 614.0,6367.0 639.0,6384.0 662.0,6390.0 C 704.0,6402.0 781.0,6482.0 813.0,6548.0 C 830.0,6582.0 839.0,6590.0 861.0,6590.0 C 875.0,6590.0 901.0,6595.0 917.0,6600.0 C 941.0,6609.0 958.0,6607.0 997.0,6592.0 L 1048.0,6573.0 L 1090.0,6601.0 C 1127.0,6626.0 1143.0,6630.0 1199.0,6630.0 C 1255.0,6630.0 1276.0,6625.0 1339.0,6593.0 C 1418.0,6553.0 1442.0,6550.0 1563.0,6565.0 L 1621.0,6573.0 L 1663.0,6526.0 C 1687.0,6501.0 1710.0,6480.0 1715.0,6480.0 C 1720.0,6480.0 1745.0,6459.0 1771.0,6434.0 L 1818.0,6388.0 L 1930.0,6379.0 C 2066.0,6368.0 2093.0,6355.0 1965.0,6363.0 C 1908.0,6366.0 1859.0,6363.0 1830.0,6355.0 C 1805.0,6348.0 1741.0,6336.0 1687.0,6327.0 C 1616.0,6316.0 1578.0,6305.0 1549.0,6286.0 C 1502.0,6254.0 1500.0,6238.0 1540.0,6210.0 C 1564.0,6193.0 1579.0,6190.0 1609.0,6195.0 C 1643.0,6201.0 1650.0,6198.0 1660.0,6181.0 C 1669.0,6164.0 1668.0,6160.0 1655.0,6160.0 C 1647.0,6160.0 1640.0,6153.0 1640.0,6144.0 C 1640.0,6129.0 1632.0,6128.0 1578.0,6135.0 C 1465.0,6148.0 1358.0,6154.0 1198.0,6155.0 C 1039.0,6155.0 1002.0,6164.0 1056.0,6189.0 C 1100.0,6209.0 1086.0,6236.0 1022.0,6254.0 C 990.0,6263.0 954.0,6270.0 943.0,6270.0 C 922.0,6270.0 922.0,6269.0 938.0,6228.0 C 946.0,6204.0 960.0,6177.0 968.0,6168.0 C 992.0,6139.0 950.0,6127.0 843.0,6132.0 C 753.0,6137.0 747.0,6139.0 714.0,6171.0 C 695.0,6189.0 680.0,6210.0 680.0,6218.0 C 680.0,6230.0 670.0,6231.0 628.0,6226.0 C 600.0,6222.0 569.0,6215.0 559.0,6209.0 C 536.0,6197.0 474.0,6197.0 431.0,6210.0 C 393.0,6221.0 370.0,6209.0 289.0,6134.0 C 264.0,6111.0 234.0,6089.0 222.0,6086.0 C 206.0,6081.0 196.0,6063.0 184.0,6020.0 C 168.0,5963.0 167.0,5962.0 125.0,5956.0 C 90.0,5950.0 80.0,5944.0 72.0,5922.0 C 51.0,5868.0 40.0,5814.0 40.0,5760.0 C 40.0,5730.0 31.0,5676.0 20.0,5641.0 C -4.0,5566.0 2.0,5552.0 52.0,5569.0 C 107.0,5589.0 301.0,5620.0 372.0,5620.0 C 428.0,5620.0 441.0,5617.0 449.0,5601.0 C 458.0,5585.0 451.0,5575.0 406.0,5536.0 C 367.0,5503.0 343.0,5490.0 321.0,5490.0 C 295.0,5490.0 290.0,5486.0 290.0,5465.0 C 290.0,5450.0 299.0,5434.0 315.0,5424.0 C 329.0,5415.0 340.0,5399.0 340.0,5389.0 C 340.0,5379.0 353.0,5356.0 369.0,5338.0 C 409.0,5292.0 415.0,5267.0 390.0,5245.0 C 351.0,5210.0 376.0,5180.0 444.0,5180.0 C 488.0,5180.0 504.0,5147.0 471.0,5123.0 C 443.0,5104.0 410.0,5068.0 410.0,5058.0 C 410.0,5046.0 342.0,5048.0 335.0,5060.0 C 321.0,5083.0 310.0,5067.0 310.0,5026.0 C 310.0,4990.0 315.0,4977.0 335.0,4962.0 C 351.0,4949.0 360.0,4932.0 360.0,4914.0 C 360.0,4872.0 368.0,4865.0 445.0,4829.0 L 515.0,4797.0 L 465.0,4788.0 C 407.0,4779.0 345.0,4786.0 313.0,4806.0 C 283.0,4825.0 282.0,4825.0 278.0,4788.0 L 275.0,4755.0 L 253.0,4797.0 C 234.0,4831.0 232.0,4843.0 241.0,4868.0 C 250.0,4895.0 247.0,4905.0 216.0,4954.0 C 186.0,5002.0 176.0,5010.0 150.0,5010.0 L 120.0,5010.0 L 120.0,4940.0 C 120.0,4895.0 126.0,4858.0 136.0,4838.0 C 155.0,4802.0 143.0,4788.0 97.0,4792.0 C 75.0,4794.0 65.0,4788.0 52.0,4768.0 C 37.0,4743.0 37.0,4740.0 55.0,4721.0 C 65.0,4709.0 85.0,4700.0 99.0,4700.0 C 115.0,4700.0 139.0,4685.0 166.0,4659.0 L 208.0,4617.0 L 235.0,4644.0 C 273.0,4682.0 324.0,4680.0 345.0,4640.0 C 353.0,4624.0 360.0,4597.0 360.0,4580.0 C 360.0,4551.0 363.0,4549.0 389.0,4551.0 C 407.0,4553.0 432.0,4545.0 458.0,4528.0 C 480.0,4513.0 510.0,4498.0 524.0,4494.0 C 554.0,4487.0 564.0,4476.0 577.0,4435.0 C 593.0,4389.0 568.0,4355.0 498.0,4328.0 C 466.0,4315.0 440.0,4302.0 440.0,4299.0 C 440.0,4295.0 451.0,4289.0 464.0,4286.0 C 496.0,4278.0 520.0,4207.0 520.0,4119.0 C 520.0,4065.0 523.0,4051.0 538.0,4045.0 C 550.0,4041.0 563.0,4048.0 581.0,4069.0 C 610.0,4105.0 658.0,4114.0 640.0,4081.0 C 624.0,4050.0 628.0,4030.0 650.0,4030.0 C 663.0,4030.0 668.0,4025.0 664.0,4015.0 C 659.0,4004.0 667.0,3998.0 689.0,3994.0 C 719.0,3988.0 720.0,3985.0 718.0,3944.0 C 715.0,3904.0 712.0,3899.0 683.0,3889.0 C 659.0,3881.0 642.0,3882.0 616.0,3891.0 C 586.0,3902.0 579.0,3901.0 552.0,3882.0 C 524.0,3861.0 523.0,3858.0 532.0,3826.0 C 541.0,3796.0 545.0,3793.0 561.0,3803.0 C 574.0,3811.0 588.0,3810.0 617.0,3801.0 C 643.0,3792.0 686.0,3790.0 755.0,3794.0 C 1024.0,3811.0 1112.0,3811.0 1108.0,3798.0 C 1105.0,3791.0 1092.0,3784.0 1077.0,3782.0 C 1063.0,3780.0 1046.0,3772.0 1040.0,3764.0 C 1033.0,3756.0 1015.0,3750.0 999.0,3750.0 C 975.0,3750.0 969.0,3744.0 959.0,3710.0 L 947.0,3670.0 L 886.0,3668.0 C 852.0,3667.0 803.0,3665.0 775.0,3665.0 C 744.0,3665.0 698.0,3654.0 652.0,3636.0 C 586.0,3609.0 580.0,3605.0 596.0,3593.0 C 620.0,3576.0 736.0,3576.0 747.0,3593.0 C 751.0,3600.0 768.0,3614.0 784.0,3624.0 C 807.0,3639.0 817.0,3640.0 837.0,3631.0 C 868.0,3617.0 922.0,3617.0 955.0,3632.0 C 969.0,3638.0 983.0,3640.0 987.0,3636.0 C 999.0,3625.0 975.0,3596.0 949.0,3590.0 C 929.0,3585.0 928.0,3583.0 943.0,3577.0 C 964.0,3569.0 966.0,3540.0 945.0,3540.0 C 933.0,3540.0 910.0,3512.0 910.0,3496.0 C 910.0,3476.0 958.0,3496.0 998.0,3533.0 C 1024.0,3557.0 1058.0,3581.0 1074.0,3588.0 C 1094.0,3597.0 1101.0,3606.0 1097.0,3619.0 C 1093.0,3635.0 1100.0,3639.0 1149.0,3644.0 C 1236.0,3654.0 1267.0,3644.0 1280.0,3604.0 C 1289.0,3579.0 1302.0,3566.0 1328.0,3554.0 C 1349.0,3546.0 1372.0,3529.0 1382.0,3518.0 C 1396.0,3499.0 1401.0,3498.0 1414.0,3509.0 C 1423.0,3516.0 1430.0,3528.0 1430.0,3534.0 C 1430.0,3540.0 1437.0,3556.0 1446.0,3568.0 L 1461.0,3591.0 L 1502.0,3559.0 C 1535.0,3532.0 1539.0,3525.0 1526.0,3518.0 C 1504.0,3506.0 1506.0,3474.0 1529.0,3458.0 C 1544.0,3447.0 1548.0,3432.0 1548.0,3387.0 L 1547.0,3329.0 L 1606.0,3275.0 C 1648.0,3237.0 1671.0,3223.0 1685.0,3226.0 C 1698.0,3229.0 1713.0,3223.0 1724.0,3211.0 C 1738.0,3196.0 1755.0,3190.0 1785.0,3190.0 C 1817.0,3190.0 1831.0,3184.0 1848.0,3165.0 C 1875.0,3134.0 1893.0,3134.0 1934.0,3165.0 C 1952.0,3179.0 1978.0,3190.0 1993.0,3190.0 C 2025.0,3190.0 2101.0,3222.0 2118.0,3243.0 C 2130.0,3257.0 2136.0,3257.0 2171.0,3245.0 C 2193.0,3237.0 2224.0,3223.0 2241.0,3213.0 C 2277.0,3192.0 2284.0,3199.0 2300.0,3275.0 C 2306.0,3302.0 2320.0,3340.0 2331.0,3360.0 C 2344.0,3381.0 2353.0,3418.0 2356.0,3455.0 C 2363.0,3573.0 2370.0,3599.0 2401.0,3621.0 C 2429.0,3641.0 2433.0,3641.0 2471.0,3626.0 C 2498.0,3615.0 2542.0,3610.0 2609.0,3610.0 C 2686.0,3610.0 2719.0,3605.0 2754.0,3590.0 C 2779.0,3580.0 2800.0,3566.0 2800.0,3561.0 C 2800.0,3556.0 2815.0,3548.0 2833.0,3545.0 C 2850.0,3541.0 2881.0,3525.0 2900.0,3510.0 C 2919.0,3495.0 2991.0,3454.0 3060.0,3420.0 C 3195.0,3353.0 3204.0,3345.0 3285.0,3225.0 C 3352.0,3124.0 3403.0,3070.0 3430.0,3070.0 C 3441.0,3070.0 3463.0,3061.0 3479.0,3049.0 C 3523.0,3017.0 3580.0,3013.0 3635.0,3040.0 C 3674.0,3059.0 3686.0,3061.0 3707.0,3051.0 C 3732.0,3039.0 3749.0,3048.0 3750.0,3073.0 C 3750.0,3077.0 3808.0,3080.0 3879.0,3080.0 C 3981.0,3080.0 4010.0,3083.0 4020.0,3095.0 C 4034.0,3112.0 4061.0,3115.0 4076.0,3100.0 C 4083.0,3093.0 4102.0,3107.0 4135.0,3140.0 C 4190.0,3195.0 4204.0,3200.0 4221.0,3168.0 L 4232.0,3147.0 L 4249.0,3173.0 C 4257.0,3188.0 4272.0,3200.0 4282.0,3200.0 C 4296.0,3200.0 4298.0,3206.0 4294.0,3229.0 C 4289.0,3254.0 4297.0,3266.0 4372.0,3340.0 C 4417.0,3385.0 4473.0,3433.0 4495.0,3447.0 C 4517.0,3461.0 4546.0,3483.0 4560.0,3496.0 C 4580.0,3514.0 4601.0,3520.0 4662.0,3526.0 C 4735.0,3532.0 4740.0,3531.0 4770.0,3506.0 C 4787.0,3492.0 4807.0,3480.0 4813.0,3480.0 C 4820.0,3480.0 4847.0,3462.0 4874.0,3440.0 C 4900.0,3418.0 4929.0,3400.0 4937.0,3400.0 C 4946.0,3400.0 4968.0,3391.0 4986.0,3379.0 C 5012.0,3363.0 5024.0,3361.0 5039.0,3369.0 C 5050.0,3375.0 5078.0,3380.0 5102.0,3380.0 C 5126.0,3380.0 5150.0,3384.0 5156.0,3388.0 C 5170.0,3397.0 5190.0,3456.0 5190.0,3486.0 C 5190.0,3505.0 5195.0,3510.0 5216.0,3510.0 C 5234.0,3510.0 5261.0,3527.0 5302.0,3565.0 C 5334.0,3595.0 5365.0,3620.0 5371.0,3620.0 C 5393.0,3620.0 5459.0,3566.0 5470.0,3539.0 C 5477.0,3522.0 5481.0,3486.0 5478.0,3455.0 C 5474.0,3409.0 5468.0,3393.0 5440.0,3365.0 C 5422.0,3347.0 5395.0,3326.0 5381.0,3320.0 C 5366.0,3314.0 5335.0,3287.0 5312.0,3260.0 L 5269.0,3210.0 L 5309.0,3115.0 C 5353.0,3014.0 5356.0,2992.0 5339.0,2941.0 C 5323.0,2895.0 5347.0,2873.0 5420.0,2868.0 C 5473.0,2865.0 5474.0,2865.0 5483.0,2897.0 C 5489.0,2915.0 5501.0,2932.0 5511.0,2935.0 C 5520.0,2938.0 5540.0,2950.0 5554.0,2961.0 C 5578.0,2979.0 5580.0,2988.0 5580.0,3051.0 L 5580.0,3120.0 L 5624.0,3120.0 C 5649.0,3120.0 5680.0,3116.0 5694.0,3110.0 C 5715.0,3102.0 5724.0,3105.0 5749.0,3130.0 L 5779.0,3160.0 L 5750.0,3175.0 C 5701.0,3200.0 5677.0,3245.0 5684.0,3293.0 C 5688.0,3316.0 5694.0,3362.0 5699.0,3396.0 C 5707.0,3450.0 5720.0,3487.0 5748.0,3528.0 C 5755.0,3539.0 5765.0,3538.0 5796.0,3521.0 C 5817.0,3509.0 5846.0,3500.0 5860.0,3500.0 C 5915.0,3500.0 5932.0,3489.0 5928.0,3458.0 C 5921.0,3416.0 5956.0,3393.0 6001.0,3409.0 C 6019.0,3415.0 6068.0,3420.0 6110.0,3420.0 C 6173.0,3420.0 6190.0,3423.0 6204.0,3439.0 C 6224.0,3461.0 6300.0,3490.0 6339.0,3490.0 C 6353.0,3490.0 6388.0,3504.0 6415.0,3520.0 C 6524.0,3584.0 6564.0,3600.0 6618.0,3600.0 C 6684.0,3600.0 6760.0,3564.0 6812.0,3506.0 L 6850.0,3465.0 L 7068.0,3466.0 C 7340.0,3468.0 7412.0,3478.0 7532.0,3531.0 C 7583.0,3554.0 7652.0,3583.0 7685.0,3597.0 C 7718.0,3611.0 7761.0,3637.0 7780.0,3656.0 C 7799.0,3674.0 7831.0,3696.0 7850.0,3704.0 C 7870.0,3712.0 7894.0,3728.0 7904.0,3739.0 C 7916.0,3752.0 7935.0,3760.0 7956.0,3760.0 C 7974.0,3760.0 8010.0,3765.0 8037.0,3771.0 C 8077.0,3780.0 8105.0,3779.0 8182.0,3766.0 C 8300.0,3746.0 8360.0,3746.0 8405.0,3764.0 C 8424.0,3772.0 8461.0,3782.0 8487.0,3785.0 C 8575.0,3797.0 8688.0,3839.0 8712.0,3870.0 C 8725.0,3885.0 8750.0,3905.0 8768.0,3914.0 C 8799.0,3930.0 8803.0,3930.0 8833.0,3913.0 C 8858.0,3898.0 8866.0,3886.0 8870.0,3854.0 C 8874.0,3825.0 8879.0,3815.0 8893.0,3816.0 C 8902.0,3816.0 8924.0,3817.0 8941.0,3818.0 C 8980.0,3820.0 9031.0,3873.0 9050.0,3930.0 C 9057.0,3952.0 9074.0,3977.0 9088.0,3986.0 C 9110.0,4001.0 9116.0,4001.0 9156.0,3985.0 C 9198.0,3969.0 9203.0,3969.0 9249.0,3986.0 C 9288.0,4000.0 9303.0,4001.0 9330.0,3991.0 C 9348.0,3985.0 9378.0,3980.0 9397.0,3980.0 C 9415.0,3980.0 9448.0,3969.0 9470.0,3955.0 C 9491.0,3941.0 9516.0,3933.0 9525.0,3936.0 C 9533.0,3940.0 9547.0,3937.0 9555.0,3930.0 C 9565.0,3922.0 9595.0,3919.0 9646.0,3922.0 C 9716.0,3925.0 9724.0,3928.0 9745.0,3954.0 C 9767.0,3982.0 9771.0,3983.0 9827.0,3976.0 C 9868.0,3972.0 9890.0,3964.0 9903.0,3949.0 C 9922.0,3926.0 9926.0,3885.0 9910.0,3875.0 C 9891.0,3863.0 9900.0,3814.0 9925.0,3790.0 C 9945.0,3771.0 9955.0,3768.0 9968.0,3776.0 C 9977.0,3782.0 9986.0,3796.0 9988.0,3808.0 C 9990.0,3821.0 10005.0,3834.0 10033.0,3845.0 C 10055.0,3854.0 10089.0,3875.0 10107.0,3891.0 C 10128.0,3909.0 10152.0,3920.0 10171.0,3920.0 C 10190.0,3920.0 10203.0,3926.0 10207.0,3938.0 C 10210.0,3947.0 10220.0,3963.0 10228.0,3972.0 C 10241.0,3988.0 10240.0,3990.0 10217.0,3999.0 C 10202.0,4005.0 10179.0,4029.0 10163.0,4052.0 C 10148.0,4076.0 10128.0,4104.0 10118.0,4116.0 C 10105.0,4131.0 10098.0,4162.0 10092.0,4226.0 C 10085.0,4313.0 10084.0,4315.0 10058.0,4318.0 C 10042.0,4320.0 10028.0,4329.0 10025.0,4341.0 C 10017.0,4366.0 9970.0,4390.0 9927.0,4390.0 C 9896.0,4390.0 9892.0,4393.0 9888.0,4422.0 C 9885.0,4439.0 9889.0,4465.0 9896.0,4479.0 C 9904.0,4493.0 9910.0,4510.0 9910.0,4516.0 C 9910.0,4522.0 9921.0,4537.0 9935.0,4550.0 C 9949.0,4563.0 9960.0,4585.0 9960.0,4599.0 C 9960.0,4612.0 9969.0,4643.0 9981.0,4667.0 C 10008.0,4723.0 10003.0,4744.0 9963.0,4748.0 C 9946.0,4750.0 9926.0,4757.0 9920.0,4765.0 C 9908.0,4780.0 9891.0,4889.0 9884.0,5010.0 C 9879.0,5076.0 9876.0,5087.0 9857.0,5095.0 C 9823.0,5110.0 9809.0,5148.0 9816.0,5206.0 C 9824.0,5271.0 9816.0,5294.0 9785.0,5308.0 C 9767.0,5316.0 9760.0,5327.0 9760.0,5348.0 C 9760.0,5364.0 9755.0,5392.0 9749.0,5410.0 C 9740.0,5436.0 9740.0,5444.0 9751.0,5451.0 C 9769.0,5462.0 9817.0,5462.0 9839.0,5451.0 C 9851.0,5444.0 9867.0,5449.0 9898.0,5468.0 C 9939.0,5494.0 9940.0,5496.0 9940.0,5550.0 C 9941.0,5637.0 9954.0,5678.0 9994.0,5715.0 C 10014.0,5733.0 10030.0,5752.0 10030.0,5758.0 C 10030.0,5763.0 10001.0,5799.0 9966.0,5836.0 L 9902.0,5905.0 L 9779.0,5906.0 C 9611.0,5907.0 9491.0,5939.0 9520.0,5975.0 C 9528.0,5984.0 9528.0,5990.0 9520.0,5995.0 C 9506.0,6004.0 9460.0,6107.0 9460.0,6129.0 C 9460.0,6138.0 9453.0,6155.0 9445.0,6167.0 C 9432.0,6186.0 9433.0,6191.0 9459.0,6227.0 C 9475.0,6249.0 9496.0,6292.0 9506.0,6323.0 C 9522.0,6375.0 9522.0,6381.0 9507.0,6422.0 C 9497.0,6446.0 9490.0,6475.0 9490.0,6486.0 C 9490.0,6516.0 9456.0,6556.0 9404.0,6586.0 C 9373.0,6604.0 9360.0,6618.0 9360.0,6634.0 C 9360.0,6646.0 9353.0,6666.0 9344.0,6678.0 C 9332.0,6696.0 9319.0,6700.0 9275.0,6700.0 C 9226.0,6700.0 9219.0,6703.0 9207.0,6728.0 C 9199.0,6743.0 9194.0,6760.0 9197.0,6766.0 C 9199.0,6771.0 9182.0,6784.0 9160.0,6794.0 C 9136.0,6804.0 9106.0,6830.0 9087.0,6856.0 C 9064.0,6888.0 9050.0,6899.0 9035.0,6896.0 C 9020.0,6892.0 9011.0,6899.0 9000.0,6923.0 C 8986.0,6952.0 8980.0,6955.0 8934.0,6958.0 C 8888.0,6961.0 8880.0,6958.0 8861.0,6934.0 C 8849.0,6919.0 8840.0,6900.0 8840.0,6891.0 C 8840.0,6860.0 8825.0,6848.0 8799.0,6859.0 C 8786.0,6865.0 8717.0,6874.0 8646.0,6879.0 L 8517.0,6888.0 L 8492.0,6859.0 C 8470.0,6832.0 8466.0,6831.0 8450.0,6845.0 C 8441.0,6853.0 8422.0,6860.0 8407.0,6860.0 C 8393.0,6860.0 8369.0,6865.0 8353.0,6871.0 C 8326.0,6881.0 8322.0,6879.0 8260.0,6812.0 C 8209.0,6757.0 8187.0,6740.0 8157.0,6735.0 C 8137.0,6731.0 8098.0,6710.0 8071.0,6689.0 C 8040.0,6664.0 8012.0,6650.0 7994.0,6650.0 C 7943.0,6650.0 7897.0,6631.0 7861.0,6596.0 C 7823.0,6559.0 7783.0,6540.0 7746.0,6540.0 C 7733.0,6540.0 7717.0,6533.0 7709.0,6524.0 C 7702.0,6515.0 7669.0,6495.0 7636.0,6478.0 C 7578.0,6448.0 7574.0,6448.0 7547.0,6464.0 C 7531.0,6473.0 7496.0,6480.0 7467.0,6480.0 C 7428.0,6480.0 7390.0,6491.0 7313.0,6524.0 C 7224.0,6563.0 7207.0,6567.0 7173.0,6559.0 C 7152.0,6554.0 7114.0,6550.0 7089.0,6550.0 C 7063.0,6550.0 6979.0,6529.0 6889.0,6501.0 C 6804.0,6474.0 6715.0,6449.0 6692.0,6445.0 C 6645.0,6437.0 6525.0,6452.0 6423.0,6477.0 C 6363.0,6492.0 6361.0,6493.0 6355.0,6531.0 C 6348.0,6569.0 6348.0,6570.0 6305.0,6570.0 C 6269.0,6570.0 6260.0,6566.0 6255.0,6549.0 C 6249.0,6531.0 6243.0,6529.0 6212.0,6535.0 C 6192.0,6539.0 6163.0,6548.0 6148.0,6556.0 C 6132.0,6564.0 6086.0,6576.0 6044.0,6583.0 C 5971.0,6594.0 5969.0,6596.0 5945.0,6637.0 C 5908.0,6699.0 5872.0,6720.0 5790.0,6727.0 L 5719.0,6733.0 L 5680.0,6695.0 C 5643.0,6659.0 5641.0,6658.0 5605.0,6670.0 C 5578.0,6679.0 5564.0,6691.0 5554.0,6715.0 C 5544.0,6741.0 5532.0,6750.0 5503.0,6757.0 L 5465.0,6766.0 L 5458.0,6838.0 C 5454.0,6877.0 5443.0,6921.0 5434.0,6934.0 C 5411.0,6970.0 5345.0,6978.0 5258.0,6955.0 C 5168.0,6932.0 5093.0,6939.0 5031.0,6977.0 C 4977.0,7011.0 4925.0,7082.0 4917.0,7137.0 C 4909.0,7184.0 4872.0,7243.0 4847.0,7248.0 C 4837.0,7250.0 4820.0,7241.0 4809.0,7227.0 C 4763.0,7168.0 4738.0,7161.0 4566.0,7161.0 C 4449.0,7161.0 4399.0,7164.0 4373.0,7175.0 C 4353.0,7183.0 4317.0,7190.0 4291.0,7190.0 C 4265.0,7190.0 4193.0,7197.0 4130.0,7206.0 C 4067.0,7215.0 4000.0,7220.0 3981.0,7217.0 C 3904.0,7207.0 3813.0,7176.0 3780.0,7150.0 C 3752.0,7128.0 3723.0,7119.0 3647.0,7107.0 C 3574.0,7096.0 3537.0,7084.0 3502.0,7062.0 C 3476.0,7046.0 3442.0,7029.0 3426.0,7026.0 C 3410.0,7022.0 3377.0,7002.0 3351.0,6981.0 C 3326.0,6960.0 3286.0,6938.0 3263.0,6931.0 C 3239.0,6925.0 3192.0,6897.0 3158.0,6869.0 C 3098.0,6822.0 3069.0,6806.0 2966.0,6761.0 C 2928.0,6744.0 2920.0,6735.0 2905.0,6691.0 C 2891.0,6648.0 2881.0,6636.0 2847.0,6619.0 C 2810.0,6600.0 2793.0,6598.0 2666.0,6602.0 C 2525.0,6606.0 2525.0,6606.0 2454.0,6643.0 C 2363.0,6692.0 2321.0,6699.0 2283.0,6673.0 C 2268.0,6662.0 2236.0,6650.0 2213.0,6646.0 C 2166.0,6639.0 2040.0,6654.0 1966.0,6676.0 C 1872.0,6703.0 1741.0,6721.0 1721.0,6710.0 C 1693.0,6696.0 1690.0,6697.0 1690.0,6725.0 C 1690.0,6754.0 1687.0,6755.0 1659.0,6738.0 C 1641.0,6726.0 1619.0,6735.0 1475.0,6809.0 C 1337.0,6880.0 1300.0,6904.0 1241.0,6961.0 C 1201.0,7000.0 1168.0,7041.0 1164.0,7057.0 C 1160.0,7072.0 1149.0,7102.0 1139.0,7122.0 C 1116.0,7167.0 1115.0,7209.0 1135.0,7216.0 C 1160.0,7226.0 1152.0,7249.0 1118.0,7270.0 C 1074.0,7296.0 1034.0,7296.0 1019.0,7269.0 C 1012.0,7255.0 1002.0,7250.0 988.0,7254.0 C 976.0,7256.0 950.0,7250.0 930.0,7240.0 L 893.0,7221.0 L 860.0,7268.0 C 808.0,7345.0 724.0,7400.0 705.0,7370.0 C 702.0,7365.0 686.0,7360.0 670.0,7360.0 C 654.0,7360.0 638.0,7365.0 635.0,7370.0 C 625.0,7386.0 605.0,7382.0 584.0,7359.0" fill="pink"/>
</svg>
