<?xml version="1.0" ?>
<svg xmlns="http://www.w3.org/2000/svg" xmlns:ev="http://www.w3.org/2001/xml-events" xmlns:xlink="http://www.w3.org/1999/xlink" baseProfile="full" height="557px" version="1.1" viewBox="-1028.7785314676532 -587.0310428513774 12294.159366096033 11409.189502700725" width="600px">
	<defs/>
	<path d="M 9990.0,9856.0 C 9953.0,9842.0 9953.0,9840.0 9964.0,9774.0 C 9970.0,9738.0 9968.0,9731.0 9948.0,9718.0 C 9902.0,9687.0 9869.0,9688.0 9785.0,9721.0 C 9712.0,9749.0 9699.0,9751.0 9630.0,9745.0 C 9577.0,9740.0 9542.0,9731.0 9511.0,9713.0 C 9444.0,9674.0 9390.0,9621.0 9390.0,9594.0 C 9390.0,9571.0 9386.0,9570.0 9333.0,9570.0 C 9285.0,9570.0 9257.0,9562.0 9175.0,9524.0 C 9120.0,9498.0 9039.0,9468.0 8994.0,9457.0 C 8914.0,9437.0 8913.0,9436.0 8877.0,9381.0 C 8810.0,9279.0 8739.0,9215.0 8657.0,9184.0 C 8526.0,9135.0 8515.0,9127.0 8451.0,9031.0 C 8418.0,8982.0 8377.0,8932.0 8360.0,8920.0 C 8342.0,8907.0 8304.0,8868.0 8274.0,8831.0 C 8228.0,8775.0 8211.0,8762.0 8162.0,8745.0 L 8105.0,8725.0 L 8102.0,8673.0 C 8099.0,8626.0 8096.0,8619.0 8074.0,8614.0 C 8061.0,8611.0 8041.0,8595.0 8030.0,8580.0 C 8012.0,8554.0 8007.0,8553.0 7973.0,8561.0 C 7898.0,8578.0 7897.0,8577.0 7904.0,8513.0 C 7918.0,8393.0 7909.0,8402.0 8013.0,8398.0 C 8100.0,8395.0 8108.0,8393.0 8160.0,8357.0 C 8202.0,8329.0 8225.0,8320.0 8257.0,8320.0 C 8293.0,8320.0 8300.0,8323.0 8300.0,8339.0 C 8300.0,8355.0 8308.0,8359.0 8338.0,8362.0 C 8369.0,8364.0 8376.0,8369.0 8378.0,8390.0 C 8380.0,8403.0 8395.0,8430.0 8412.0,8449.0 C 8428.0,8467.0 8446.0,8493.0 8452.0,8506.0 C 8459.0,8520.0 8481.0,8536.0 8508.0,8547.0 C 8533.0,8556.0 8566.0,8575.0 8583.0,8589.0 C 8611.0,8613.0 8614.0,8613.0 8669.0,8601.0 C 8780.0,8575.0 8799.0,8575.0 8809.0,8603.0 C 8815.0,8618.0 8828.0,8630.0 8841.0,8632.0 C 8857.0,8634.0 8866.0,8646.0 8874.0,8675.0 L 8886.0,8715.0 L 9065.0,8721.0 C 9288.0,8728.0 9339.0,8742.0 9379.0,8807.0 C 9395.0,8833.0 9422.0,8859.0 9451.0,8875.0 C 9477.0,8889.0 9515.0,8919.0 9536.0,8942.0 C 9561.0,8971.0 9587.0,8988.0 9614.0,8995.0 C 9649.0,9004.0 9655.0,9010.0 9658.0,9035.0 C 9660.0,9052.0 9673.0,9077.0 9687.0,9092.0 C 9701.0,9106.0 9709.0,9123.0 9706.0,9129.0 C 9698.0,9142.0 9793.0,9143.0 9857.0,9131.0 C 9892.0,9124.0 9902.0,9126.0 9929.0,9147.0 C 9954.0,9167.0 9960.0,9179.0 9960.0,9210.0 C 9960.0,9239.0 9966.0,9253.0 9982.0,9265.0 C 10004.0,9279.0 10006.0,9279.0 10023.0,9255.0 C 10050.0,9219.0 10090.0,9222.0 10121.0,9263.0 C 10143.0,9292.0 10145.0,9304.0 10145.0,9400.0 C 10144.0,9458.0 10140.0,9522.0 10136.0,9543.0 C 10128.0,9578.0 10130.0,9584.0 10160.0,9615.0 C 10179.0,9634.0 10201.0,9673.0 10211.0,9702.0 C 10220.0,9731.0 10231.0,9763.0 10235.0,9772.0 C 10240.0,9785.0 10234.0,9792.0 10207.0,9804.0 C 10183.0,9814.0 10171.0,9826.0 10168.0,9842.0 C 10165.0,9863.0 10160.0,9865.0 10095.0,9867.0 C 10057.0,9868.0 10009.0,9863.0 9990.0,9856.0" fill="pink"/>
	<path d="M 7210.0,6164.0 C 7125.0,6128.0 7069.0,6122.0 6944.0,6136.0 C 6628.0,6172.0 6488.0,6168.0 6422.0,6122.0 C 6398.0,6104.0 6383.0,6101.0 6352.0,6106.0 C 6302.0,6114.0 6075.0,6084.0 5995.0,6059.0 C 5952.0,6046.0 5904.0,6040.0 5829.0,6040.0 C 5729.0,6040.0 5722.0,6039.0 5684.0,6011.0 C 5663.0,5995.0 5575.0,5947.0 5490.0,5904.0 L 5335.0,5825.0 L 5140.0,5825.0 C 5014.0,5824.0 4938.0,5820.0 4924.0,5812.0 C 4908.0,5803.0 4890.0,5805.0 4839.0,5821.0 C 4756.0,5848.0 4670.0,5859.0 4480.0,5869.0 C 4340.0,5876.0 4320.0,5879.0 4273.0,5903.0 C 4237.0,5921.0 4205.0,5930.0 4172.0,5930.0 L 4124.0,5930.0 L 4082.0,5865.0 L 4041.0,5800.0 L 3974.0,5800.0 C 3912.0,5800.0 3905.0,5798.0 3869.0,5765.0 C 3838.0,5738.0 3821.0,5730.0 3791.0,5730.0 C 3741.0,5730.0 3690.0,5686.0 3690.0,5643.0 C 3690.0,5616.0 3686.0,5613.0 3639.0,5602.0 C 3556.0,5583.0 3540.0,5585.0 3540.0,5618.0 C 3540.0,5634.0 3532.0,5654.0 3522.0,5663.0 C 3505.0,5679.0 3502.0,5678.0 3480.0,5655.0 C 3466.0,5640.0 3445.0,5630.0 3428.0,5630.0 C 3405.0,5630.0 3400.0,5634.0 3400.0,5654.0 C 3400.0,5680.0 3392.0,5684.0 3328.0,5696.0 L 3290.0,5702.0 L 3290.0,5647.0 L 3290.0,5592.0 L 3197.0,5576.0 C 3104.0,5559.0 3103.0,5559.0 3066.0,5581.0 L 3029.0,5602.0 L 2985.0,5568.0 C 2941.0,5534.0 2939.0,5533.0 2817.0,5526.0 C 2748.0,5523.0 2671.0,5513.0 2644.0,5505.0 C 2610.0,5495.0 2548.0,5490.0 2445.0,5490.0 C 2300.0,5490.0 2294.0,5489.0 2248.0,5462.0 C 2176.0,5421.0 2062.0,5328.0 2050.0,5301.0 C 2040.0,5279.0 2037.0,5278.0 1963.0,5285.0 L 1887.0,5292.0 L 1893.0,5268.0 C 1897.0,5256.0 1900.0,5237.0 1900.0,5228.0 C 1900.0,5219.0 1911.0,5198.0 1925.0,5181.0 C 1949.0,5154.0 1950.0,5146.0 1944.0,5088.0 L 1938.0,5024.0 L 1974.0,5013.0 C 2005.0,5004.0 2013.0,5005.0 2034.0,5021.0 C 2047.0,5031.0 2071.0,5040.0 2088.0,5040.0 C 2114.0,5040.0 2120.0,5034.0 2145.0,4975.0 C 2160.0,4939.0 2177.0,4910.0 2183.0,4910.0 C 2201.0,4910.0 2280.0,4942.0 2280.0,4949.0 C 2280.0,4953.0 2266.0,4967.0 2248.0,4980.0 L 2217.0,5003.0 L 2271.0,5031.0 C 2336.0,5065.0 2351.0,5066.0 2375.0,5040.0 C 2386.0,5028.0 2406.0,5020.0 2427.0,5020.0 C 2445.0,5020.0 2477.0,5013.0 2498.0,5005.0 C 2518.0,4996.0 2577.0,4986.0 2630.0,4983.0 C 2740.0,4976.0 2807.0,4949.0 2853.0,4894.0 C 2869.0,4875.0 2903.0,4848.0 2928.0,4833.0 C 2954.0,4818.0 3001.0,4786.0 3033.0,4762.0 C 3090.0,4717.0 3090.0,4717.0 3090.0,4663.0 C 3090.0,4615.0 3095.0,4601.0 3140.0,4535.0 C 3204.0,4441.0 3324.0,4135.0 3349.0,4003.0 L 3367.0,3910.0 L 3335.0,3863.0 C 3312.0,3828.0 3297.0,3787.0 3282.0,3715.0 C 3270.0,3660.0 3245.0,3554.0 3226.0,3480.0 C 3207.0,3406.0 3187.0,3311.0 3181.0,3270.0 C 3172.0,3208.0 3165.0,3191.0 3142.0,3172.0 L 3115.0,3149.0 L 3139.0,3130.0 C 3152.0,3119.0 3169.0,3110.0 3177.0,3110.0 C 3186.0,3110.0 3189.0,3103.0 3186.0,3093.0 C 3184.0,3083.0 3176.0,3049.0 3169.0,3018.0 L 3157.0,2960.0 L 3203.0,2901.0 C 3229.0,2868.0 3250.0,2832.0 3250.0,2819.0 C 3250.0,2780.0 3291.0,2659.0 3320.0,2611.0 C 3341.0,2576.0 3351.0,2543.0 3360.0,2470.0 C 3366.0,2418.0 3376.0,2345.0 3381.0,2308.0 C 3389.0,2246.0 3388.0,2238.0 3360.0,2175.0 C 3344.0,2138.0 3323.0,2081.0 3314.0,2048.0 C 3294.0,1970.0 3243.0,1906.0 3182.0,1886.0 C 3158.0,1877.0 3111.0,1849.0 3076.0,1822.0 C 2996.0,1759.0 2992.0,1757.0 2885.0,1727.0 C 2804.0,1705.0 2785.0,1704.0 2700.0,1711.0 C 2573.0,1722.0 2507.0,1740.0 2433.0,1784.0 C 2374.0,1818.0 2367.0,1820.0 2279.0,1820.0 L 2187.0,1820.0 L 2154.0,1784.0 C 2125.0,1753.0 2120.0,1742.0 2120.0,1698.0 C 2120.0,1653.0 2115.0,1641.0 2073.0,1588.0 C 2016.0,1518.0 1867.0,1411.0 1806.0,1399.0 C 1784.0,1394.0 1755.0,1388.0 1743.0,1385.0 C 1727.0,1381.0 1720.0,1370.0 1715.0,1340.0 C 1710.0,1309.0 1698.0,1292.0 1662.0,1262.0 C 1561.0,1178.0 1406.0,1140.0 1167.0,1140.0 C 1092.0,1140.0 1029.0,1136.0 1026.0,1132.0 C 1010.0,1106.0 929.0,1065.0 829.0,1031.0 C 724.0,995.0 715.0,990.0 709.0,963.0 C 700.0,920.0 630.0,800.0 596.0,769.0 C 569.0,746.0 555.0,742.0 468.0,736.0 C 415.0,732.0 345.0,720.0 314.0,710.0 C 282.0,699.0 235.0,690.0 208.0,690.0 C 129.0,690.0 94.0,659.0 43.0,544.0 C 16.0,483.0 0.0,433.0 0.0,408.0 L 0.0,368.0 L 98.0,372.0 C 204.0,376.0 215.0,380.0 370.0,470.0 C 411.0,494.0 465.0,519.0 489.0,527.0 C 513.0,534.0 547.0,551.0 564.0,564.0 C 614.0,601.0 711.0,647.0 781.0,665.0 C 858.0,685.0 886.0,679.0 1004.0,615.0 L 1083.0,571.0 L 1134.0,597.0 C 1162.0,612.0 1211.0,629.0 1243.0,636.0 C 1326.0,653.0 1571.0,644.0 1681.0,619.0 C 1729.0,609.0 1790.0,600.0 1818.0,600.0 C 1867.0,600.0 1869.0,599.0 1899.0,552.0 C 1916.0,526.0 1943.0,490.0 1959.0,471.0 C 1988.0,438.0 1988.0,438.0 2040.0,449.0 C 2068.0,455.0 2108.0,460.0 2128.0,460.0 C 2148.0,460.0 2211.0,471.0 2268.0,485.0 C 2325.0,499.0 2389.0,510.0 2410.0,510.0 C 2432.0,510.0 2468.0,517.0 2490.0,526.0 C 2524.0,540.0 2557.0,541.0 2703.0,536.0 C 3228.0,516.0 3190.0,516.0 3275.0,540.0 C 3343.0,559.0 3368.0,561.0 3450.0,555.0 C 3588.0,545.0 3630.0,545.0 3771.0,555.0 C 3873.0,561.0 3924.0,559.0 4032.0,545.0 C 4166.0,527.0 4166.0,527.0 4300.0,549.0 C 4392.0,565.0 4443.0,578.0 4463.0,592.0 C 4496.0,615.0 4593.0,639.0 4658.0,640.0 C 4682.0,640.0 4775.0,618.0 4867.0,590.0 C 4980.0,556.0 5060.0,538.0 5117.0,533.0 C 5200.0,527.0 5201.0,527.0 5240.0,559.0 C 5285.0,595.0 5308.0,597.0 5452.0,575.0 C 5524.0,564.0 5564.0,563.0 5601.0,570.0 C 5630.0,576.0 5670.0,580.0 5690.0,580.0 C 5715.0,580.0 5756.0,595.0 5811.0,624.0 C 5857.0,648.0 5921.0,678.0 5953.0,691.0 C 5993.0,707.0 6016.0,723.0 6026.0,741.0 C 6040.0,769.0 6052.0,773.0 6145.0,786.0 C 6252.0,800.0 6334.0,856.0 6361.0,933.0 C 6370.0,959.0 6390.0,983.0 6420.0,1005.0 C 6445.0,1023.0 6482.0,1057.0 6503.0,1080.0 C 6546.0,1128.0 6557.0,1129.0 6667.0,1089.0 C 6709.0,1075.0 6732.0,1061.0 6736.0,1047.0 C 6739.0,1036.0 6749.0,1012.0 6757.0,993.0 L 6771.0,959.0 L 6800.0,980.0 L 6830.0,1001.0 L 6785.0,1089.0 C 6725.0,1210.0 6693.0,1344.0 6708.0,1421.0 C 6715.0,1461.0 6715.0,1500.0 6708.0,1553.0 C 6700.0,1610.0 6700.0,1643.0 6709.0,1687.0 C 6716.0,1719.0 6726.0,1824.0 6730.0,1920.0 C 6739.0,2106.0 6755.0,2177.0 6805.0,2245.0 C 6818.0,2262.0 6840.0,2299.0 6855.0,2329.0 L 6882.0,2382.0 L 6909.0,2356.0 L 6936.0,2330.0 L 6948.0,2377.0 C 6954.0,2404.0 6962.0,2433.0 6965.0,2443.0 C 6971.0,2457.0 6967.0,2460.0 6944.0,2460.0 C 6928.0,2461.0 6904.0,2467.0 6890.0,2475.0 C 6867.0,2488.0 6863.0,2487.0 6844.0,2462.0 L 6822.0,2436.0 L 6777.0,2470.0 L 6731.0,2505.0 L 6626.0,2820.0 C 6506.0,3179.0 6440.0,3428.0 6440.0,3522.0 C 6440.0,3557.0 6445.0,3620.0 6452.0,3662.0 L 6463.0,3739.0 L 6539.0,3783.0 C 6581.0,3808.0 6625.0,3831.0 6638.0,3835.0 C 6664.0,3843.0 6664.0,3846.0 6645.0,3925.0 C 6637.0,3958.0 6631.0,4019.0 6630.0,4061.0 C 6630.0,4110.0 6623.0,4157.0 6610.0,4196.0 C 6599.0,4228.0 6576.0,4335.0 6560.0,4435.0 C 6544.0,4534.0 6519.0,4668.0 6505.0,4732.0 C 6473.0,4882.0 6472.0,4960.0 6503.0,5008.0 C 6515.0,5028.0 6530.0,5062.0 6535.0,5085.0 L 6546.0,5125.0 L 6639.0,5132.0 L 6732.0,5139.0 L 6795.0,5207.0 C 6830.0,5244.0 6862.0,5287.0 6865.0,5302.0 C 6869.0,5319.0 6879.0,5330.0 6893.0,5332.0 C 6907.0,5334.0 6924.0,5351.0 6940.0,5381.0 C 6954.0,5406.0 6983.0,5442.0 7004.0,5461.0 C 7072.0,5520.0 7130.0,5608.0 7130.0,5653.0 C 7130.0,5674.0 7135.0,5701.0 7142.0,5713.0 C 7149.0,5725.0 7157.0,5760.0 7160.0,5790.0 L 7165.0,5844.0 L 7237.0,5885.0 C 7334.0,5939.0 7370.0,5975.0 7370.0,6016.0 C 7370.0,6038.0 7379.0,6058.0 7395.0,6074.0 C 7442.0,6122.0 7431.0,6126.0 7319.0,6104.0 C 7297.0,6100.0 7289.0,6105.0 7269.0,6139.0 L 7245.0,6179.0 L 7210.0,6164.0" fill="pink"/>
	<path d="M 1277.0,5173.0 C 1273.0,5170.0 1270.0,5160.0 1270.0,5151.0 C 1270.0,5143.0 1260.0,5126.0 1248.0,5113.0 C 1234.0,5098.0 1224.0,5070.0 1219.0,5032.0 C 1215.0,5001.0 1211.0,4968.0 1209.0,4960.0 C 1206.0,4949.0 1215.0,4944.0 1240.0,4942.0 C 1272.0,4939.0 1278.0,4943.0 1293.0,4975.0 C 1302.0,4995.0 1310.0,5017.0 1310.0,5025.0 C 1310.0,5047.0 1339.0,5058.0 1382.0,5053.0 C 1437.0,5045.0 1433.0,5072.0 1368.0,5132.0 C 1319.0,5177.0 1292.0,5189.0 1277.0,5173.0" fill="pink"/>
	<path d="M 1733.0,5158.0 C 1698.0,5151.0 1686.0,5141.0 1665.0,5106.0 C 1651.0,5083.0 1640.0,5060.0 1640.0,5057.0 C 1640.0,5045.0 1680.0,5050.0 1754.0,5072.0 C 1824.0,5092.0 1827.0,5094.0 1837.0,5132.0 L 1847.0,5170.0 L 1811.0,5169.0 C 1791.0,5168.0 1756.0,5164.0 1733.0,5158.0" fill="pink"/>
</svg>
