<?xml version="1.0" ?>
<svg xmlns="http://www.w3.org/2000/svg" xmlns:ev="http://www.w3.org/2001/xml-events" xmlns:xlink="http://www.w3.org/1999/xlink" baseProfile="full" height="600px" version="1.1" viewBox="-824.9619589659262 -1028.7505657333445 11888.361887405375 12293.825168614396" width="581px">
	<defs/>
	<path d="M 1297.0,10226.0 C 1267.0,10218.0 1234.0,10198.0 1211.0,10176.0 C 1180.0,10145.0 1163.0,10137.0 1114.0,10130.0 C 1012.0,10116.0 998.0,10110.0 1004.0,10086.0 C 1007.0,10075.0 1014.0,10035.0 1021.0,9999.0 L 1033.0,9932.0 L 1136.0,9840.0 C 1232.0,9753.0 1241.0,9742.0 1284.0,9650.0 C 1330.0,9553.0 1330.0,9552.0 1330.0,9445.0 C 1330.0,9347.0 1332.0,9334.0 1354.0,9306.0 C 1407.0,9236.0 1411.0,9218.0 1395.0,9145.0 C 1385.0,9105.0 1382.0,9061.0 1385.0,9036.0 C 1391.0,8996.0 1390.0,8992.0 1357.0,8967.0 C 1337.0,8952.0 1309.0,8940.0 1293.0,8940.0 C 1278.0,8940.0 1246.0,8927.0 1222.0,8911.0 C 1198.0,8894.0 1159.0,8879.0 1131.0,8875.0 C 1075.0,8867.0 1073.0,8865.0 1001.0,8751.0 C 943.0,8660.0 943.0,8655.0 1013.0,8644.0 C 1068.0,8634.0 1065.0,8599.0 1004.0,8546.0 C 968.0,8513.0 957.0,8497.0 953.0,8465.0 C 948.0,8427.0 950.0,8424.0 985.0,8407.0 C 1015.0,8393.0 1028.0,8392.0 1059.0,8401.0 C 1093.0,8411.0 1102.0,8409.0 1159.0,8380.0 C 1214.0,8353.0 1226.0,8350.0 1252.0,8359.0 C 1269.0,8365.0 1287.0,8370.0 1291.0,8370.0 C 1310.0,8370.0 1329.0,8296.0 1332.0,8206.0 C 1335.0,8110.0 1335.0,8110.0 1304.0,8079.0 C 1285.0,8060.0 1246.0,8039.0 1209.0,8026.0 C 1148.0,8006.0 1145.0,8003.0 1142.0,7970.0 C 1138.0,7930.0 1108.0,7894.0 1008.0,7813.0 L 940.0,7759.0 L 940.0,7695.0 L 940.0,7631.0 L 899.0,7608.0 C 867.0,7590.0 845.0,7563.0 795.0,7480.0 C 748.0,7402.0 716.0,7362.0 671.0,7325.0 C 619.0,7282.0 609.0,7267.0 594.0,7216.0 C 577.0,7158.0 576.0,7157.0 511.0,7128.0 C 459.0,7105.0 440.0,7100.0 420.0,7108.0 C 398.0,7116.0 389.0,7111.0 343.0,7067.0 L 291.0,7017.0 L 252.0,7032.0 L 212.0,7047.0 L 206.0,7002.0 C 203.0,6978.0 200.0,6918.0 200.0,6871.0 C 199.0,6824.0 193.0,6756.0 185.0,6720.0 C 177.0,6684.0 171.0,6628.0 170.0,6595.0 C 170.0,6540.0 174.0,6529.0 207.0,6482.0 C 230.0,6451.0 259.0,6425.0 280.0,6416.0 C 306.0,6406.0 323.0,6388.0 345.0,6347.0 C 374.0,6292.0 374.0,6291.0 362.0,6221.0 C 334.0,6059.0 347.0,5969.0 408.0,5900.0 C 436.0,5868.0 473.0,5804.0 506.0,5734.0 L 559.0,5619.0 L 536.0,5585.0 C 523.0,5567.0 507.0,5538.0 500.0,5521.0 C 490.0,5496.0 482.0,5490.0 458.0,5490.0 C 442.0,5490.0 410.0,5485.0 386.0,5479.0 C 347.0,5469.0 343.0,5465.0 331.0,5422.0 C 323.0,5396.0 315.0,5340.0 311.0,5297.0 L 305.0,5219.0 L 335.0,5212.0 C 359.0,5205.0 373.0,5189.0 405.0,5132.0 C 427.0,5093.0 467.0,5038.0 494.0,5011.0 L 543.0,4961.0 L 593.0,4986.0 C 671.0,5026.0 702.0,5016.0 787.0,4922.0 C 825.0,4880.0 894.0,4789.0 939.0,4720.0 C 985.0,4651.0 1040.0,4576.0 1062.0,4554.0 C 1101.0,4513.0 1102.0,4512.0 1086.0,4482.0 C 1077.0,4465.0 1070.0,4444.0 1070.0,4435.0 C 1070.0,4427.0 1059.0,4414.0 1045.0,4408.0 C 1031.0,4402.0 1020.0,4394.0 1020.0,4390.0 C 1020.0,4380.0 1064.0,4272.0 1098.0,4200.0 C 1115.0,4164.0 1134.0,4101.0 1140.0,4060.0 C 1150.0,4000.0 1160.0,3974.0 1192.0,3930.0 C 1280.0,3807.0 1300.0,3771.0 1300.0,3735.0 C 1300.0,3704.0 1303.0,3700.0 1325.0,3700.0 C 1344.0,3700.0 1355.0,3690.0 1374.0,3653.0 C 1387.0,3626.0 1407.0,3597.0 1418.0,3586.0 C 1436.0,3571.0 1438.0,3560.0 1433.0,3519.0 C 1430.0,3490.0 1432.0,3465.0 1438.0,3457.0 C 1444.0,3450.0 1448.0,3435.0 1448.0,3425.0 C 1445.0,3387.0 1481.0,3300.0 1499.0,3300.0 C 1529.0,3300.0 1560.0,3270.0 1560.0,3241.0 C 1560.0,3225.0 1570.0,3204.0 1585.0,3190.0 C 1599.0,3177.0 1610.0,3155.0 1610.0,3141.0 C 1610.0,3127.0 1613.0,3104.0 1617.0,3092.0 C 1622.0,3071.0 1627.0,3069.0 1654.0,3075.0 C 1742.0,3093.0 1748.0,3092.0 1812.0,3061.0 C 1847.0,3045.0 1888.0,3020.0 1903.0,3006.0 C 1928.0,2983.0 1929.0,2976.0 1925.0,2923.0 L 1920.0,2865.0 L 1993.0,2809.0 L 2066.0,2753.0 L 2093.0,2772.0 C 2115.0,2788.0 2126.0,2790.0 2152.0,2782.0 C 2170.0,2776.0 2202.0,2769.0 2222.0,2765.0 C 2257.0,2760.0 2259.0,2757.0 2254.0,2731.0 C 2250.0,2710.0 2255.0,2691.0 2275.0,2661.0 C 2305.0,2616.0 2308.0,2615.0 2359.0,2630.0 C 2415.0,2646.0 2469.0,2632.0 2516.0,2588.0 C 2558.0,2550.0 2559.0,2549.0 2622.0,2555.0 C 2656.0,2558.0 2707.0,2557.0 2735.0,2553.0 C 2783.0,2545.0 2784.0,2544.0 2795.0,2501.0 C 2805.0,2459.0 2806.0,2458.0 2877.0,2435.0 C 2917.0,2423.0 2973.0,2409.0 3002.0,2406.0 C 3047.0,2400.0 3060.0,2394.0 3083.0,2365.0 C 3105.0,2337.0 3118.0,2330.0 3146.0,2330.0 C 3172.0,2330.0 3191.0,2321.0 3224.0,2290.0 C 3251.0,2265.0 3277.0,2250.0 3293.0,2250.0 C 3307.0,2250.0 3323.0,2244.0 3327.0,2236.0 C 3348.0,2199.0 3431.0,2150.0 3506.0,2130.0 C 3549.0,2119.0 3591.0,2110.0 3600.0,2110.0 C 3609.0,2110.0 3632.0,2094.0 3651.0,2074.0 C 3706.0,2016.0 3726.0,2010.0 3852.0,2010.0 C 3964.0,2010.0 3966.0,2010.0 4025.0,1974.0 C 4058.0,1954.0 4095.0,1929.0 4108.0,1917.0 C 4128.0,1898.0 4132.0,1898.0 4146.0,1912.0 C 4155.0,1921.0 4164.0,1953.0 4167.0,1989.0 C 4172.0,2042.0 4177.0,2054.0 4200.0,2070.0 C 4245.0,2102.0 4262.0,2096.0 4300.0,2034.0 C 4318.0,2003.0 4346.0,1968.0 4362.0,1957.0 C 4377.0,1946.0 4393.0,1927.0 4396.0,1916.0 C 4400.0,1905.0 4427.0,1870.0 4456.0,1840.0 C 4485.0,1809.0 4517.0,1766.0 4526.0,1744.0 C 4535.0,1723.0 4567.0,1673.0 4596.0,1634.0 L 4651.0,1563.0 L 4656.0,1399.0 C 4659.0,1309.0 4661.0,1224.0 4662.0,1210.0 C 4662.0,1196.0 4660.0,1164.0 4655.0,1139.0 C 4649.0,1098.0 4652.0,1085.0 4689.0,1010.0 C 4731.0,923.0 4738.0,885.0 4719.0,831.0 C 4710.0,805.0 4711.0,795.0 4725.0,774.0 C 4741.0,748.0 4741.0,747.0 4711.0,716.0 C 4684.0,688.0 4680.0,677.0 4680.0,628.0 C 4680.0,575.0 4683.0,569.0 4724.0,527.0 C 4748.0,502.0 4782.0,451.0 4801.0,414.0 C 4831.0,354.0 4841.0,342.0 4882.0,322.0 C 4933.0,298.0 4946.0,274.0 4938.0,220.0 C 4934.0,193.0 4937.0,189.0 4969.0,181.0 C 4989.0,176.0 5131.0,170.0 5285.0,168.0 C 5616.0,164.0 5642.0,169.0 5666.0,230.0 C 5675.0,252.0 5689.0,270.0 5697.0,270.0 C 5704.0,270.0 5723.0,282.0 5738.0,297.0 C 5761.0,320.0 5772.0,323.0 5814.0,321.0 C 5869.0,318.0 5914.0,294.0 5906.0,274.0 C 5902.0,266.0 5897.0,254.0 5894.0,246.0 C 5890.0,235.0 5900.0,228.0 5932.0,220.0 C 6060.0,187.0 6094.0,162.0 6104.0,96.0 C 6110.0,58.0 6115.0,51.0 6148.0,38.0 C 6179.0,26.0 6191.0,26.0 6220.0,36.0 C 6239.0,43.0 6268.0,49.0 6283.0,49.0 C 6299.0,50.0 6320.0,55.0 6331.0,60.0 C 6347.0,69.0 6356.0,65.0 6384.0,35.0 C 6413.0,5.0 6423.0,0.0 6464.0,0.0 C 6500.0,0.0 6521.0,7.0 6548.0,27.0 C 6611.0,73.0 6660.0,123.0 6660.0,142.0 C 6660.0,165.0 6669.0,165.0 6700.0,143.0 C 6720.0,128.0 6756.0,124.0 6895.0,119.0 C 7042.0,114.0 7071.0,110.0 7107.0,91.0 C 7142.0,74.0 7167.0,70.0 7248.0,70.0 C 7357.0,70.0 7339.0,63.0 7517.0,170.0 C 7568.0,200.0 7570.0,203.0 7596.0,284.0 L 7621.0,367.0 L 7773.0,373.0 C 7975.0,382.0 8026.0,369.0 8070.0,300.0 L 8100.0,253.0 L 8153.0,262.0 C 8183.0,268.0 8215.0,281.0 8230.0,295.0 C 8258.0,321.0 8336.0,340.0 8413.0,340.0 C 8462.0,340.0 8469.0,344.0 8526.0,393.0 L 8588.0,447.0 L 8749.0,453.0 L 8910.0,458.0 L 8959.0,493.0 C 8986.0,513.0 9031.0,536.0 9060.0,544.0 C 9088.0,552.0 9137.0,575.0 9169.0,595.0 C 9201.0,614.0 9234.0,630.0 9242.0,630.0 C 9312.0,630.0 9570.0,741.0 9689.0,823.0 C 9731.0,852.0 9787.0,896.0 9813.0,923.0 C 9857.0,967.0 9865.0,970.0 9911.0,970.0 C 9964.0,970.0 9983.0,983.0 10014.0,1040.0 C 10034.0,1077.0 10041.0,1150.0 10028.0,1191.0 C 10019.0,1224.0 10020.0,1229.0 10044.0,1253.0 C 10078.0,1287.0 10077.0,1297.0 10038.0,1314.0 C 10011.0,1325.0 10003.0,1325.0 9994.0,1314.0 C 9987.0,1306.0 9970.0,1303.0 9942.0,1307.0 L 9901.0,1313.0 L 9898.0,1374.0 L 9895.0,1435.0 L 9858.0,1438.0 C 9832.0,1440.0 9820.0,1437.0 9820.0,1428.0 C 9820.0,1421.0 9816.0,1409.0 9811.0,1401.0 C 9803.0,1389.0 9791.0,1394.0 9745.0,1426.0 C 9714.0,1447.0 9673.0,1482.0 9654.0,1502.0 L 9620.0,1540.0 L 9620.0,1510.0 C 9620.0,1487.0 9616.0,1480.0 9600.0,1480.0 C 9584.0,1480.0 9580.0,1487.0 9580.0,1511.0 C 9580.0,1529.0 9575.0,1560.0 9568.0,1582.0 C 9544.0,1663.0 9444.0,1677.0 9374.0,1609.0 L 9340.0,1576.0 L 9340.0,1606.0 C 9340.0,1627.0 9351.0,1646.0 9378.0,1673.0 C 9399.0,1693.0 9421.0,1710.0 9428.0,1710.0 C 9435.0,1710.0 9440.0,1717.0 9440.0,1725.0 C 9440.0,1733.0 9448.0,1747.0 9459.0,1756.0 C 9477.0,1772.0 9477.0,1775.0 9443.0,1869.0 C 9424.0,1922.0 9401.0,1993.0 9392.0,2028.0 C 9379.0,2076.0 9367.0,2097.0 9342.0,2117.0 C 9323.0,2131.0 9304.0,2153.0 9299.0,2166.0 C 9294.0,2180.0 9279.0,2195.0 9264.0,2200.0 C 9242.0,2209.0 9240.0,2213.0 9250.0,2225.0 C 9257.0,2233.0 9271.0,2240.0 9281.0,2240.0 C 9291.0,2240.0 9306.0,2252.0 9314.0,2268.0 C 9326.0,2291.0 9326.0,2299.0 9314.0,2320.0 C 9307.0,2334.0 9300.0,2359.0 9300.0,2375.0 C 9300.0,2413.0 9292.0,2423.0 9253.0,2444.0 L 9220.0,2461.0 L 9220.0,2430.0 C 9220.0,2403.0 9217.0,2399.0 9198.0,2402.0 C 9179.0,2404.0 9174.0,2412.0 9172.0,2443.0 C 9169.0,2477.0 9171.0,2480.0 9195.0,2480.0 C 9225.0,2480.0 9240.0,2510.0 9240.0,2570.0 C 9240.0,2617.0 9213.0,2640.0 9157.0,2640.0 C 9122.0,2640.0 9119.0,2642.0 9126.0,2663.0 C 9136.0,2695.0 9134.0,2695.0 9206.0,2681.0 C 9262.0,2669.0 9274.0,2670.0 9281.0,2681.0 C 9299.0,2710.0 9290.0,2738.0 9255.0,2760.0 C 9235.0,2772.0 9213.0,2794.0 9206.0,2809.0 C 9198.0,2824.0 9180.0,2842.0 9166.0,2850.0 C 9138.0,2865.0 9133.0,2891.0 9150.0,2936.0 C 9158.0,2956.0 9157.0,2967.0 9146.0,2979.0 C 9114.0,3015.0 9082.0,3100.0 9072.0,3170.0 C 9063.0,3238.0 9064.0,3248.0 9081.0,3272.0 C 9094.0,3291.0 9100.0,3316.0 9100.0,3355.0 L 9100.0,3410.0 L 9141.0,3404.0 L 9182.0,3397.0 L 9179.0,3441.0 C 9176.0,3480.0 9178.0,3485.0 9200.0,3490.0 C 9219.0,3494.0 9226.0,3503.0 9228.0,3528.0 C 9232.0,3569.0 9218.0,3569.0 9138.0,3529.0 L 9077.0,3498.0 L 9083.0,3534.0 C 9088.0,3564.0 9086.0,3570.0 9071.0,3570.0 C 9058.0,3570.0 9050.0,3580.0 9046.0,3601.0 C 9037.0,3648.0 9049.0,3678.0 9086.0,3701.0 L 9120.0,3722.0 L 9113.0,3885.0 L 9107.0,4049.0 L 9132.0,4055.0 C 9153.0,4060.0 9161.0,4074.0 9180.0,4137.0 C 9193.0,4178.0 9213.0,4218.0 9223.0,4225.0 C 9239.0,4236.0 9240.0,4242.0 9230.0,4260.0 C 9215.0,4288.0 9221.0,4294.0 9253.0,4279.0 C 9288.0,4263.0 9329.0,4275.0 9340.0,4306.0 C 9357.0,4349.0 9351.0,4457.0 9329.0,4525.0 C 9309.0,4588.0 9307.0,4591.0 9266.0,4601.0 C 9233.0,4609.0 9219.0,4619.0 9208.0,4643.0 C 9194.0,4671.0 9164.0,4709.0 9074.0,4811.0 C 9049.0,4839.0 8973.0,4903.0 8915.0,4945.0 C 8893.0,4961.0 8856.0,4991.0 8834.0,5013.0 C 8803.0,5042.0 8787.0,5050.0 8772.0,5046.0 C 8753.0,5039.0 8752.0,5041.0 8761.0,5072.0 C 8766.0,5090.0 8770.0,5135.0 8770.0,5173.0 C 8770.0,5236.0 8767.0,5244.0 8731.0,5293.0 C 8677.0,5365.0 8673.0,5393.0 8704.0,5480.0 C 8718.0,5519.0 8730.0,5562.0 8730.0,5574.0 C 8730.0,5587.0 8744.0,5624.0 8760.0,5656.0 C 8777.0,5689.0 8793.0,5739.0 8797.0,5770.0 C 8801.0,5806.0 8813.0,5839.0 8830.0,5865.0 C 8868.0,5921.0 8890.0,5976.0 8890.0,6017.0 C 8890.0,6039.0 8904.0,6074.0 8930.0,6117.0 C 8973.0,6189.0 8978.0,6205.0 8955.0,6196.0 C 8933.0,6188.0 8936.0,6217.0 8965.0,6294.0 C 8979.0,6332.0 8990.0,6382.0 8990.0,6410.0 C 8990.0,6459.0 9006.0,6510.0 9021.0,6510.0 C 9026.0,6510.0 9034.0,6500.0 9041.0,6489.0 C 9052.0,6468.0 9052.0,6468.0 9070.0,6495.0 C 9087.0,6521.0 9087.0,6523.0 9068.0,6556.0 C 9052.0,6583.0 9049.0,6600.0 9054.0,6633.0 C 9060.0,6672.0 9058.0,6678.0 9028.0,6707.0 C 9010.0,6724.0 8983.0,6741.0 8969.0,6745.0 C 8955.0,6748.0 8687.0,6960.0 8374.0,7215.0 C 7853.0,7640.0 7803.0,7684.0 7778.0,7732.0 C 7762.0,7764.0 7726.0,7809.0 7686.0,7845.0 L 7621.0,7905.0 L 7661.0,7970.0 L 7701.0,8035.0 L 7698.0,8153.0 C 7695.0,8239.0 7690.0,8274.0 7679.0,8284.0 C 7672.0,8291.0 7418.0,8440.0 7115.0,8615.0 C 6813.0,8790.0 6439.0,9007.0 6286.0,9099.0 C 6132.0,9190.0 5653.0,9470.0 5221.0,9721.0 L 4435.0,10177.0 L 4409.0,10159.0 C 4395.0,10149.0 4358.0,10116.0 4327.0,10086.0 C 4296.0,10055.0 4260.0,10028.0 4247.0,10025.0 C 4232.0,10021.0 4216.0,10004.0 4206.0,9982.0 C 4189.0,9948.0 4189.0,9945.0 4206.0,9933.0 C 4216.0,9926.0 4236.0,9920.0 4252.0,9920.0 C 4272.0,9920.0 4283.0,9912.0 4295.0,9890.0 C 4304.0,9874.0 4309.0,9860.0 4308.0,9860.0 C 4306.0,9860.0 4267.0,9867.0 4220.0,9875.0 C 4173.0,9883.0 4134.0,9890.0 4133.0,9890.0 C 4132.0,9890.0 4135.0,9878.0 4140.0,9864.0 C 4156.0,9823.0 4152.0,9816.0 4123.0,9835.0 C 4098.0,9852.0 4097.0,9852.0 4104.0,9834.0 C 4108.0,9823.0 4114.0,9803.0 4117.0,9787.0 C 4121.0,9768.0 4130.0,9758.0 4149.0,9754.0 C 4163.0,9751.0 4183.0,9744.0 4193.0,9739.0 C 4206.0,9732.0 4216.0,9732.0 4226.0,9741.0 C 4237.0,9750.0 4240.0,9749.0 4240.0,9737.0 C 4240.0,9688.0 4205.0,9677.0 4148.0,9706.0 C 4131.0,9715.0 4104.0,9720.0 4088.0,9718.0 C 4072.0,9715.0 4055.0,9719.0 4049.0,9727.0 C 4036.0,9742.0 4004.0,9744.0 3995.0,9730.0 C 3992.0,9725.0 3994.0,9711.0 4000.0,9700.0 C 4010.0,9682.0 4008.0,9680.0 3982.0,9680.0 C 3935.0,9680.0 3936.0,9667.0 3986.0,9624.0 C 4052.0,9567.0 4044.0,9550.0 3949.0,9550.0 C 3870.0,9550.0 3861.0,9538.0 3920.0,9508.0 C 3938.0,9499.0 3958.0,9486.0 3963.0,9481.0 C 3982.0,9462.0 3963.0,9458.0 3931.0,9474.0 C 3891.0,9495.0 3890.0,9495.0 3890.0,9456.0 C 3890.0,9430.0 3885.0,9421.0 3868.0,9416.0 C 3823.0,9404.0 3793.0,9410.0 3770.0,9435.0 C 3747.0,9460.0 3746.0,9460.0 3726.0,9441.0 C 3714.0,9431.0 3695.0,9417.0 3683.0,9411.0 C 3670.0,9405.0 3660.0,9393.0 3660.0,9386.0 C 3660.0,9379.0 3651.0,9361.0 3640.0,9348.0 L 3621.0,9323.0 L 3644.0,9312.0 C 3662.0,9304.0 3671.0,9305.0 3682.0,9316.0 C 3703.0,9337.0 3788.0,9361.0 3796.0,9349.0 C 3799.0,9343.0 3805.0,9327.0 3809.0,9312.0 C 3815.0,9290.0 3825.0,9284.0 3866.0,9275.0 C 3893.0,9270.0 3915.0,9260.0 3915.0,9255.0 C 3915.0,9236.0 3871.0,9239.0 3824.0,9259.0 C 3770.0,9284.0 3725.0,9278.0 3733.0,9249.0 C 3737.0,9233.0 3732.0,9230.0 3694.0,9230.0 C 3668.0,9230.0 3650.0,9225.0 3650.0,9219.0 C 3650.0,9208.0 3632.0,9210.0 3585.0,9225.0 C 3566.0,9231.0 3565.0,9227.0 3568.0,9170.0 C 3571.0,9117.0 3574.0,9110.0 3588.0,9116.0 C 3628.0,9132.0 3651.0,9132.0 3671.0,9114.0 C 3688.0,9099.0 3709.0,9095.0 3769.0,9094.0 C 3811.0,9094.0 3869.0,9087.0 3899.0,9079.0 C 3942.0,9068.0 3954.0,9068.0 3958.0,9078.0 C 3964.0,9097.0 4065.0,9160.0 4089.0,9160.0 C 4120.0,9160.0 4160.0,9117.0 4160.0,9083.0 C 4159.0,9039.0 4131.0,9014.0 4047.0,8984.0 C 4001.0,8968.0 3962.0,8948.0 3951.0,8934.0 C 3940.0,8921.0 3925.0,8910.0 3917.0,8910.0 C 3898.0,8910.0 3860.0,8863.0 3860.0,8840.0 C 3860.0,8828.0 3852.0,8823.0 3833.0,8823.0 C 3817.0,8823.0 3786.0,8815.0 3763.0,8806.0 C 3739.0,8797.0 3689.0,8787.0 3651.0,8784.0 C 3575.0,8777.0 3575.0,8776.0 3520.0,8856.0 C 3499.0,8887.0 3483.0,8899.0 3456.0,8904.0 C 3405.0,8914.0 3360.0,8903.0 3322.0,8872.0 C 3290.0,8846.0 3289.0,8841.0 3283.0,8754.0 C 3278.0,8681.0 3280.0,8658.0 3294.0,8631.0 C 3314.0,8593.0 3310.0,8585.0 3276.0,8594.0 C 3258.0,8598.0 3249.0,8609.0 3245.0,8628.0 C 3242.0,8643.0 3232.0,8678.0 3224.0,8706.0 C 3211.0,8747.0 3210.0,8762.0 3220.0,8779.0 C 3236.0,8809.0 3229.0,8813.0 3168.0,8814.0 L 3115.0,8815.0 L 3088.0,8870.0 C 3063.0,8920.0 3061.0,8922.0 3060.0,8895.0 C 3060.0,8855.0 3023.0,8814.0 2983.0,8806.0 C 2955.0,8801.0 2950.0,8803.0 2950.0,8820.0 C 2950.0,8835.0 2943.0,8840.0 2922.0,8840.0 C 2906.0,8840.0 2885.0,8849.0 2876.0,8859.0 C 2859.0,8878.0 2859.0,8879.0 2892.0,8893.0 C 2927.0,8908.0 2970.0,8957.0 2970.0,8982.0 C 2970.0,8989.0 2963.0,9004.0 2955.0,9014.0 C 2940.0,9033.0 2940.0,9033.0 2917.0,9012.0 C 2889.0,8986.0 2880.0,8984.0 2880.0,9006.0 C 2880.0,9016.0 2873.0,9020.0 2863.0,9018.0 C 2853.0,9016.0 2846.0,9010.0 2846.0,9004.0 C 2847.0,8999.0 2850.0,8976.0 2854.0,8953.0 L 2860.0,8910.0 L 2810.0,8910.0 C 2772.0,8910.0 2758.0,8914.0 2750.0,8929.0 C 2735.0,8958.0 2737.0,8960.0 2778.0,8961.0 C 2811.0,8961.0 2813.0,8963.0 2796.0,8973.0 C 2786.0,8980.0 2766.0,8997.0 2753.0,9012.0 C 2739.0,9027.0 2722.0,9036.0 2714.0,9033.0 C 2706.0,9030.0 2693.0,9033.0 2685.0,9040.0 C 2666.0,9055.0 2667.0,9056.0 2651.0,9003.0 C 2638.0,8956.0 2603.0,8930.0 2552.0,8930.0 C 2536.0,8930.0 2517.0,8924.0 2511.0,8916.0 C 2494.0,8896.0 2530.0,8841.0 2569.0,8824.0 C 2586.0,8817.0 2600.0,8804.0 2600.0,8794.0 C 2600.0,8782.0 2595.0,8780.0 2583.0,8786.0 C 2573.0,8790.0 2553.0,8794.0 2537.0,8795.0 C 2522.0,8796.0 2499.0,8807.0 2487.0,8819.0 L 2463.0,8840.0 L 2452.0,8815.0 C 2445.0,8800.0 2443.0,8772.0 2446.0,8749.0 C 2451.0,8717.0 2450.0,8710.0 2436.0,8710.0 C 2414.0,8710.0 2416.0,8696.0 2444.0,8652.0 C 2458.0,8632.0 2472.0,8602.0 2476.0,8586.0 L 2483.0,8557.0 L 2451.0,8581.0 C 2429.0,8597.0 2420.0,8612.0 2420.0,8632.0 C 2420.0,8674.0 2392.0,8680.0 2364.0,8644.0 C 2351.0,8628.0 2333.0,8615.0 2325.0,8615.0 C 2306.0,8615.0 2290.0,8592.0 2290.0,8564.0 C 2290.0,8552.0 2283.0,8537.0 2275.0,8530.0 C 2262.0,8519.0 2260.0,8526.0 2260.0,8579.0 C 2260.0,8648.0 2272.0,8680.0 2298.0,8681.0 C 2307.0,8681.0 2292.0,8692.0 2264.0,8704.0 C 2235.0,8717.0 2203.0,8742.0 2190.0,8760.0 C 2167.0,8792.0 2167.0,8793.0 2185.0,8806.0 C 2195.0,8814.0 2211.0,8820.0 2220.0,8820.0 C 2229.0,8820.0 2245.0,8827.0 2256.0,8835.0 C 2275.0,8850.0 2275.0,8850.0 2252.0,8870.0 C 2237.0,8882.0 2230.0,8896.0 2234.0,8907.0 C 2241.0,8930.0 2221.0,8956.0 2189.0,8969.0 C 2168.0,8976.0 2161.0,8974.0 2152.0,8959.0 C 2139.0,8938.0 2090.0,8933.0 2090.0,8953.0 C 2090.0,8959.0 2102.0,8997.0 2116.0,9035.0 C 2153.0,9134.0 2157.0,9160.0 2135.0,9160.0 C 2118.0,9160.0 2118.0,9161.0 2133.0,9178.0 C 2151.0,9198.0 2157.0,9270.0 2141.0,9270.0 C 2136.0,9270.0 2120.0,9266.0 2106.0,9260.0 C 2084.0,9252.0 2080.0,9253.0 2080.0,9268.0 C 2080.0,9289.0 2115.0,9358.0 2141.0,9386.0 C 2155.0,9401.0 2162.0,9428.0 2166.0,9486.0 C 2169.0,9529.0 2181.0,9588.0 2192.0,9617.0 C 2206.0,9654.0 2210.0,9680.0 2205.0,9708.0 C 2200.0,9737.0 2203.0,9750.0 2214.0,9760.0 C 2227.0,9770.0 2230.0,9770.0 2230.0,9759.0 C 2231.0,9726.0 2260.0,9787.0 2260.0,9822.0 C 2260.0,9842.0 2270.0,9878.0 2282.0,9902.0 C 2300.0,9937.0 2304.0,9961.0 2305.0,10047.0 C 2305.0,10104.0 2309.0,10150.0 2313.0,10150.0 C 2317.0,10150.0 2316.0,10159.0 2310.0,10170.0 C 2299.0,10191.0 2265.0,10196.0 2240.0,10180.0 C 2229.0,10173.0 2224.0,10176.0 2220.0,10193.0 C 2215.0,10213.0 2205.0,10216.0 2125.0,10224.0 C 2075.0,10229.0 1992.0,10232.0 1940.0,10230.0 C 1800.0,10225.0 1725.0,10226.0 1525.0,10233.0 C 1386.0,10239.0 1334.0,10237.0 1297.0,10226.0" fill="pink"/>
	<path d="M 3360.0,9421.0 C 3360.0,9391.0 3366.0,9377.0 3383.0,9365.0 C 3404.0,9350.0 3406.0,9351.0 3427.0,9375.0 C 3460.0,9413.0 3439.0,9460.0 3389.0,9460.0 C 3362.0,9460.0 3360.0,9457.0 3360.0,9421.0" fill="pink"/>
	<path d="M 3254.0,9331.0 C 3209.0,9303.0 3203.0,9290.0 3230.0,9270.0 L 3253.0,9253.0 L 3230.0,9237.0 C 3212.0,9225.0 3210.0,9218.0 3219.0,9202.0 C 3231.0,9179.0 3244.0,9174.0 3317.0,9165.0 C 3348.0,9161.0 3375.0,9151.0 3386.0,9139.0 C 3395.0,9129.0 3414.0,9120.0 3428.0,9120.0 C 3442.0,9120.0 3469.0,9115.0 3487.0,9108.0 C 3529.0,9093.0 3537.0,9102.0 3532.0,9164.0 C 3529.0,9202.0 3524.0,9211.0 3506.0,9216.0 C 3494.0,9219.0 3479.0,9234.0 3473.0,9251.0 C 3462.0,9279.0 3460.0,9280.0 3397.0,9280.0 C 3327.0,9280.0 3300.0,9294.0 3300.0,9331.0 C 3300.0,9355.0 3293.0,9355.0 3254.0,9331.0" fill="pink"/>
	<path d="M 2240.0,9050.0 C 2240.0,9016.0 2244.0,8990.0 2250.0,8990.0 C 2270.0,8990.0 2300.0,8926.0 2295.0,8898.0 C 2287.0,8864.0 2298.0,8858.0 2344.0,8872.0 C 2375.0,8882.0 2380.0,8887.0 2374.0,8904.0 C 2371.0,8916.0 2367.0,8939.0 2366.0,8955.0 C 2365.0,8978.0 2358.0,8989.0 2335.0,9000.0 C 2313.0,9011.0 2304.0,9023.0 2302.0,9045.0 C 2299.0,9072.0 2268.0,9109.0 2248.0,9110.0 C 2243.0,9110.0 2240.0,9083.0 2240.0,9050.0" fill="pink"/>
	<path d="M 2423.0,9044.0 C 2387.0,9016.0 2381.0,9000.0 2406.0,9000.0 C 2417.0,9000.0 2421.0,8994.0 2417.0,8980.0 C 2413.0,8965.0 2419.0,8956.0 2439.0,8946.0 C 2480.0,8924.0 2500.0,8941.0 2500.0,8998.0 C 2500.0,9073.0 2476.0,9087.0 2423.0,9044.0" fill="pink"/>
	<path d="M 9502.0,6423.0 C 9502.0,6374.0 9509.0,6339.0 9527.0,6296.0 C 9550.0,6240.0 9551.0,6235.0 9535.0,6224.0 C 9519.0,6212.0 9519.0,6210.0 9535.0,6182.0 C 9552.0,6154.0 9552.0,6153.0 9516.0,6106.0 C 9475.0,6051.0 9474.0,6048.0 9497.0,6009.0 C 9512.0,5983.0 9519.0,5980.0 9545.0,5986.0 C 9579.0,5993.0 9590.0,6005.0 9590.0,6037.0 C 9590.0,6049.0 9606.0,6085.0 9625.0,6117.0 C 9663.0,6180.0 9669.0,6223.0 9649.0,6291.0 C 9639.0,6322.0 9640.0,6338.0 9654.0,6379.0 C 9663.0,6406.0 9670.0,6441.0 9670.0,6456.0 C 9670.0,6483.0 9670.0,6483.0 9650.0,6465.0 C 9630.0,6447.0 9627.0,6447.0 9577.0,6464.0 C 9549.0,6474.0 9520.0,6484.0 9513.0,6486.0 C 9505.0,6490.0 9502.0,6471.0 9502.0,6423.0" fill="pink"/>
	<path d="M 9147.0,5664.0 C 9145.0,5659.0 9139.0,5639.0 9135.0,5620.0 C 9131.0,5601.0 9118.0,5574.0 9105.0,5560.0 C 9093.0,5546.0 9079.0,5524.0 9075.0,5511.0 L 9067.0,5486.0 L 9050.0,5508.0 C 9040.0,5519.0 9030.0,5526.0 9026.0,5523.0 C 9023.0,5519.0 9020.0,5477.0 9020.0,5429.0 C 9020.0,5310.0 9047.0,5222.0 9092.0,5197.0 C 9113.0,5185.0 9126.0,5182.0 9128.0,5189.0 C 9130.0,5195.0 9149.0,5187.0 9170.0,5170.0 C 9198.0,5148.0 9215.0,5141.0 9232.0,5145.0 C 9252.0,5150.0 9257.0,5144.0 9277.0,5093.0 C 9296.0,5046.0 9306.0,5032.0 9331.0,5023.0 C 9366.0,5010.0 9405.0,5022.0 9397.0,5043.0 C 9395.0,5050.0 9382.0,5095.0 9370.0,5143.0 L 9347.0,5231.0 L 9303.0,5243.0 C 9262.0,5254.0 9260.0,5256.0 9260.0,5291.0 C 9260.0,5330.0 9239.0,5389.0 9210.0,5430.0 C 9188.0,5462.0 9180.0,5528.0 9191.0,5582.0 C 9200.0,5619.0 9199.0,5626.0 9177.0,5648.0 C 9163.0,5661.0 9150.0,5668.0 9147.0,5664.0" fill="pink"/>
</svg>
