<?xml version="1.0" ?>
<svg xmlns="http://www.w3.org/2000/svg" xmlns:ev="http://www.w3.org/2001/xml-events" xmlns:xlink="http://www.w3.org/1999/xlink" baseProfile="full" height="404px" version="1.1" viewBox="-1023.0156037647051 984.7807407259328 12291.578137320683 8267.458845937763" width="600px">
	<defs/>
	<path d="M 6381.0,8544.0 C 6334.0,8534.0 6307.0,8533.0 6281.0,8540.0 C 6229.0,8554.0 6180.0,8552.0 6174.0,8536.0 C 6171.0,8528.0 6139.0,8502.0 6104.0,8479.0 C 6051.0,8445.0 6037.0,8440.0 6025.0,8450.0 C 6012.0,8460.0 6006.0,8460.0 5991.0,8446.0 C 5978.0,8434.0 5964.0,8432.0 5939.0,8437.0 C 5895.0,8445.0 5843.0,8467.0 5835.0,8480.0 C 5832.0,8485.0 5818.0,8490.0 5805.0,8490.0 C 5792.0,8490.0 5778.0,8495.0 5775.0,8500.0 C 5772.0,8506.0 5762.0,8510.0 5754.0,8510.0 C 5742.0,8510.0 5740.0,8501.0 5745.0,8467.0 C 5750.0,8434.0 5748.0,8421.0 5736.0,8411.0 C 5722.0,8400.0 5722.0,8395.0 5735.0,8378.0 C 5747.0,8360.0 5747.0,8354.0 5732.0,8332.0 C 5723.0,8318.0 5698.0,8294.0 5676.0,8279.0 C 5621.0,8239.0 5567.0,8239.0 5525.0,8280.0 C 5498.0,8307.0 5490.0,8309.0 5467.0,8301.0 C 5451.0,8295.0 5430.0,8294.0 5408.0,8301.0 C 5390.0,8306.0 5357.0,8310.0 5336.0,8310.0 C 5314.0,8310.0 5289.0,8317.0 5280.0,8325.0 C 5265.0,8339.0 5260.0,8338.0 5237.0,8319.0 C 5222.0,8308.0 5210.0,8290.0 5210.0,8280.0 C 5210.0,8262.0 5170.0,8244.0 5160.0,8259.0 C 5146.0,8280.0 5095.0,8287.0 5063.0,8272.0 C 5045.0,8263.0 5030.0,8252.0 5030.0,8247.0 C 5030.0,8238.0 4998.0,8195.0 4946.0,8137.0 C 4931.0,8119.0 4909.0,8088.0 4899.0,8067.0 C 4888.0,8046.0 4864.0,8012.0 4846.0,7992.0 C 4827.0,7972.0 4809.0,7940.0 4805.0,7922.0 C 4795.0,7875.0 4796.0,7819.0 4807.0,7811.0 C 4822.0,7801.0 4831.0,7752.0 4819.0,7745.0 C 4812.0,7740.0 4813.0,7733.0 4823.0,7722.0 C 4847.0,7694.0 4853.0,7659.0 4840.0,7619.0 C 4829.0,7586.0 4823.0,7580.0 4798.0,7580.0 C 4782.0,7580.0 4767.0,7586.0 4764.0,7595.0 C 4760.0,7603.0 4750.0,7610.0 4741.0,7610.0 C 4731.0,7610.0 4714.0,7620.0 4701.0,7631.0 C 4682.0,7648.0 4679.0,7659.0 4685.0,7687.0 C 4690.0,7715.0 4686.0,7728.0 4666.0,7755.0 C 4631.0,7800.0 4578.0,7810.0 4521.0,7781.0 C 4487.0,7763.0 4477.0,7762.0 4459.0,7772.0 C 4442.0,7783.0 4437.0,7782.0 4425.0,7767.0 C 4406.0,7740.0 4376.0,7749.0 4372.0,7783.0 C 4369.0,7804.0 4363.0,7810.0 4345.0,7810.0 C 4332.0,7810.0 4312.0,7801.0 4301.0,7789.0 C 4290.0,7777.0 4277.0,7771.0 4271.0,7774.0 C 4265.0,7778.0 4258.0,7766.0 4254.0,7745.0 C 4247.0,7706.0 4247.0,7706.0 4219.0,7721.0 C 4203.0,7729.0 4193.0,7728.0 4174.0,7715.0 C 4153.0,7701.0 4150.0,7701.0 4150.0,7715.0 C 4150.0,7723.0 4142.0,7735.0 4131.0,7742.0 C 4117.0,7751.0 4113.0,7762.0 4117.0,7790.0 C 4126.0,7858.0 4049.0,7917.0 4006.0,7875.0 C 3998.0,7867.0 3979.0,7861.0 3963.0,7862.0 C 3898.0,7866.0 3883.0,7861.0 3856.0,7820.0 C 3842.0,7798.0 3824.0,7780.0 3817.0,7780.0 C 3810.0,7780.0 3800.0,7799.0 3794.0,7823.0 C 3785.0,7865.0 3785.0,7865.0 3727.0,7874.0 C 3678.0,7882.0 3666.0,7881.0 3653.0,7867.0 C 3637.0,7852.0 3634.0,7853.0 3608.0,7893.0 C 3593.0,7916.0 3580.0,7941.0 3580.0,7948.0 C 3580.0,7967.0 3540.0,7962.0 3533.0,7943.0 C 3513.0,7884.0 3448.0,7862.0 3410.0,7900.0 C 3399.0,7911.0 3378.0,7920.0 3364.0,7920.0 C 3340.0,7920.0 3338.0,7918.0 3344.0,7886.0 C 3350.0,7856.0 3347.0,7849.0 3320.0,7830.0 C 3271.0,7795.0 3252.0,7827.0 3290.0,7880.0 L 3311.0,7909.0 L 3259.0,7925.0 C 3197.0,7943.0 3176.0,7944.0 3149.0,7930.0 C 3136.0,7923.0 3124.0,7923.0 3111.0,7930.0 C 3097.0,7937.0 3083.0,7937.0 3064.0,7930.0 C 3039.0,7920.0 3038.0,7921.0 3042.0,7949.0 C 3045.0,7969.0 3042.0,7981.0 3032.0,7985.0 C 3021.0,7989.0 3019.0,8001.0 3024.0,8035.0 L 3031.0,8080.0 L 2978.0,8080.0 C 2948.0,8080.0 2919.0,8075.0 2913.0,8069.0 C 2905.0,8061.0 2896.0,8061.0 2882.0,8069.0 C 2871.0,8075.0 2852.0,8080.0 2840.0,8080.0 C 2829.0,8080.0 2808.0,8092.0 2795.0,8106.0 C 2762.0,8141.0 2723.0,8150.0 2683.0,8132.0 C 2645.0,8114.0 2620.0,8127.0 2620.0,8167.0 C 2620.0,8186.0 2615.0,8191.0 2598.0,8190.0 C 2517.0,8183.0 2479.0,8190.0 2454.0,8217.0 C 2433.0,8239.0 2419.0,8245.0 2382.0,8246.0 C 2356.0,8246.0 2322.0,8254.0 2305.0,8262.0 C 2280.0,8274.0 2256.0,8275.0 2171.0,8268.0 C 2077.0,8260.0 2065.0,8261.0 2046.0,8278.0 C 2003.0,8316.0 1980.0,8319.0 1910.0,8296.0 C 1843.0,8275.0 1780.0,8272.0 1626.0,8283.0 C 1560.0,8288.0 1555.0,8287.0 1513.0,8257.0 C 1480.0,8232.0 1471.0,8219.0 1472.0,8200.0 C 1475.0,8167.0 1466.0,8154.0 1419.0,8124.0 C 1397.0,8110.0 1367.0,8086.0 1352.0,8069.0 C 1327.0,8042.0 1322.0,8040.0 1291.0,8049.0 C 1272.0,8055.0 1253.0,8057.0 1248.0,8053.0 C 1242.0,8050.0 1241.0,8056.0 1245.0,8069.0 C 1250.0,8085.0 1246.0,8092.0 1227.0,8099.0 C 1213.0,8105.0 1199.0,8113.0 1196.0,8118.0 C 1193.0,8124.0 1172.0,8121.0 1145.0,8111.0 C 1112.0,8099.0 1101.0,8091.0 1106.0,8080.0 C 1110.0,8072.0 1111.0,8058.0 1110.0,8050.0 C 1109.0,8042.0 1109.0,8003.0 1109.0,7963.0 C 1109.0,7923.0 1105.0,7888.0 1100.0,7885.0 C 1087.0,7877.0 1087.0,7800.0 1100.0,7800.0 C 1105.0,7800.0 1118.0,7781.0 1128.0,7758.0 C 1138.0,7734.0 1154.0,7709.0 1163.0,7701.0 C 1173.0,7694.0 1180.0,7673.0 1180.0,7654.0 C 1180.0,7636.0 1185.0,7618.0 1190.0,7615.0 C 1196.0,7612.0 1200.0,7601.0 1200.0,7591.0 C 1200.0,7581.0 1206.0,7567.0 1214.0,7561.0 C 1221.0,7555.0 1230.0,7536.0 1234.0,7519.0 C 1237.0,7502.0 1253.0,7476.0 1270.0,7460.0 C 1286.0,7445.0 1300.0,7423.0 1300.0,7412.0 C 1300.0,7394.0 1296.0,7392.0 1270.0,7400.0 C 1242.0,7408.0 1238.0,7406.0 1229.0,7383.0 C 1222.0,7363.0 1223.0,7348.0 1235.0,7323.0 C 1244.0,7305.0 1255.0,7290.0 1260.0,7290.0 C 1278.0,7290.0 1269.0,7176.0 1247.0,7115.0 L 1225.0,7055.0 L 1142.0,7050.0 L 1059.0,7045.0 L 1012.0,6993.0 C 986.0,6964.0 929.0,6915.0 886.0,6884.0 C 793.0,6819.0 602.0,6629.0 546.0,6547.0 C 522.0,6513.0 499.0,6490.0 488.0,6490.0 C 477.0,6490.0 470.0,6483.0 470.0,6472.0 C 470.0,6462.0 455.0,6447.0 437.0,6437.0 C 396.0,6414.0 371.0,6358.0 392.0,6333.0 C 401.0,6321.0 405.0,6285.0 403.0,6201.0 C 403.0,6137.0 400.0,6074.0 398.0,6060.0 C 396.0,6042.0 402.0,6032.0 422.0,6022.0 C 457.0,6006.0 472.0,5978.0 468.0,5940.0 L 465.0,5911.0 L 392.0,5941.0 C 299.0,5978.0 285.0,5978.0 272.0,5940.0 C 265.0,5921.0 248.0,5904.0 226.0,5893.0 C 194.0,5878.0 190.0,5872.0 190.0,5839.0 C 190.0,5816.0 184.0,5798.0 175.0,5793.0 C 167.0,5788.0 154.0,5765.0 145.0,5740.0 C 129.0,5695.0 95.0,5645.0 49.0,5598.0 C 2.0,5551.0 -5.0,5510.0 19.0,5437.0 C 41.0,5371.0 84.0,5300.0 101.0,5300.0 C 107.0,5300.0 136.0,5277.0 166.0,5249.0 C 204.0,5212.0 220.0,5190.0 220.0,5171.0 C 220.0,5129.0 233.0,5119.0 292.0,5116.0 C 368.0,5112.0 374.0,5106.0 366.0,5052.0 C 362.0,5024.0 364.0,5002.0 371.0,4994.0 C 388.0,4973.0 400.0,4977.0 400.0,5005.0 C 400.0,5029.0 403.0,5030.0 438.0,5024.0 C 469.0,5019.0 480.0,5022.0 500.0,5042.0 C 514.0,5055.0 530.0,5075.0 536.0,5085.0 C 550.0,5110.0 596.0,5098.0 605.0,5067.0 C 609.0,5055.0 626.0,5030.0 643.0,5012.0 C 672.0,4982.0 679.0,4980.0 738.0,4980.0 C 821.0,4980.0 888.0,4963.0 901.0,4938.0 C 910.0,4921.0 918.0,4919.0 969.0,4925.0 C 1022.0,4931.0 1030.0,4929.0 1087.0,4896.0 C 1150.0,4859.0 1172.0,4858.0 1234.0,4891.0 C 1252.0,4902.0 1336.0,4895.0 1357.0,4882.0 C 1362.0,4878.0 1376.0,4854.0 1387.0,4829.0 C 1400.0,4801.0 1420.0,4775.0 1439.0,4764.0 C 1456.0,4754.0 1476.0,4730.0 1485.0,4708.0 C 1497.0,4676.0 1505.0,4670.0 1529.0,4670.0 C 1596.0,4670.0 1622.0,4683.0 1688.0,4750.0 C 1751.0,4813.0 1759.0,4818.0 1810.0,4824.0 C 1841.0,4828.0 1904.0,4828.0 1950.0,4825.0 C 2001.0,4821.0 2055.0,4823.0 2085.0,4830.0 C 2113.0,4837.0 2163.0,4842.0 2197.0,4842.0 C 2257.0,4842.0 2260.0,4843.0 2280.0,4876.0 C 2292.0,4894.0 2312.0,4918.0 2324.0,4927.0 C 2336.0,4937.0 2350.0,4956.0 2353.0,4970.0 C 2363.0,5008.0 2371.0,5014.0 2425.0,5028.0 C 2485.0,5043.0 2566.0,5096.0 2575.0,5125.0 C 2580.0,5144.0 2581.0,5144.0 2591.0,5128.0 C 2605.0,5103.0 2660.0,5104.0 2660.0,5128.0 C 2660.0,5137.0 2651.0,5151.0 2640.0,5158.0 C 2614.0,5174.0 2614.0,5200.0 2639.0,5200.0 C 2650.0,5200.0 2680.0,5189.0 2705.0,5176.0 C 2757.0,5148.0 2780.0,5151.0 2780.0,5186.0 C 2780.0,5215.0 2791.0,5216.0 2815.0,5190.0 C 2829.0,5174.0 2841.0,5171.0 2863.0,5176.0 C 2884.0,5180.0 2895.0,5177.0 2904.0,5164.0 C 2919.0,5144.0 2940.0,5153.0 2940.0,5179.0 C 2940.0,5188.0 2946.0,5205.0 2954.0,5216.0 C 2968.0,5234.0 2969.0,5234.0 2975.0,5207.0 C 2984.0,5173.0 3012.0,5171.0 3034.0,5204.0 C 3057.0,5240.0 3088.0,5247.0 3107.0,5220.0 C 3120.0,5202.0 3128.0,5200.0 3165.0,5205.0 C 3206.0,5212.0 3208.0,5211.0 3230.0,5173.0 C 3269.0,5109.0 3291.0,5090.0 3326.0,5090.0 C 3361.0,5090.0 3372.0,5080.0 3374.0,5046.0 C 3375.0,5031.0 3383.0,5024.0 3403.0,5022.0 C 3418.0,5020.0 3430.0,5012.0 3430.0,5005.0 C 3430.0,4982.0 3448.0,4978.0 3472.0,4994.0 C 3503.0,5016.0 3530.0,5014.0 3530.0,4991.0 C 3530.0,4981.0 3524.0,4967.0 3516.0,4961.0 C 3508.0,4955.0 3500.0,4940.0 3497.0,4930.0 C 3490.0,4903.0 3515.0,4904.0 3534.0,4932.0 L 3549.0,4953.0 L 3558.0,4929.0 C 3563.0,4916.0 3569.0,4896.0 3571.0,4886.0 C 3577.0,4855.0 3597.0,4857.0 3603.0,4888.0 C 3610.0,4925.0 3662.0,4950.0 3691.0,4932.0 C 3701.0,4925.0 3723.0,4923.0 3741.0,4927.0 C 3779.0,4934.0 3800.0,4913.0 3800.0,4867.0 C 3800.0,4851.0 3809.0,4827.0 3820.0,4813.0 C 3831.0,4799.0 3840.0,4779.0 3840.0,4768.0 C 3840.0,4753.0 3844.0,4751.0 3856.0,4758.0 C 3867.0,4764.0 3883.0,4762.0 3902.0,4753.0 C 3929.0,4739.0 3933.0,4739.0 3956.0,4761.0 C 3985.0,4788.0 3997.0,4780.0 4002.0,4730.0 C 4004.0,4704.0 4009.0,4695.0 4023.0,4696.0 C 4044.0,4698.0 4043.0,4701.0 4025.0,4656.0 C 4011.0,4622.0 4012.0,4615.0 4033.0,4619.0 C 4038.0,4620.0 4034.0,4610.0 4026.0,4598.0 C 4017.0,4586.0 4010.0,4556.0 4010.0,4532.0 C 4010.0,4501.0 4003.0,4479.0 3984.0,4455.0 C 3968.0,4433.0 3961.0,4416.0 3966.0,4408.0 C 3971.0,4401.0 3973.0,4371.0 3971.0,4342.0 C 3969.0,4298.0 3970.0,4291.0 3984.0,4296.0 C 3993.0,4299.0 4006.0,4298.0 4013.0,4292.0 C 4019.0,4287.0 4037.0,4280.0 4051.0,4277.0 C 4076.0,4271.0 4084.0,4257.0 4104.0,4197.0 C 4114.0,4165.0 4140.0,4166.0 4176.0,4201.0 L 4210.0,4234.0 L 4210.0,4198.0 C 4210.0,4178.0 4205.0,4158.0 4199.0,4155.0 C 4192.0,4150.0 4191.0,4130.0 4195.0,4099.0 C 4201.0,4059.0 4199.0,4050.0 4187.0,4050.0 C 4159.0,4050.0 4158.0,4031.0 4184.0,4006.0 C 4211.0,3982.0 4221.0,3918.0 4200.0,3905.0 C 4182.0,3894.0 4199.0,3882.0 4241.0,3875.0 C 4271.0,3870.0 4284.0,3862.0 4291.0,3843.0 C 4299.0,3821.0 4305.0,3818.0 4340.0,3822.0 C 4372.0,3825.0 4380.0,3822.0 4380.0,3809.0 C 4380.0,3800.0 4389.0,3785.0 4400.0,3775.0 C 4417.0,3759.0 4420.0,3744.0 4420.0,3658.0 C 4420.0,3567.0 4419.0,3560.0 4400.0,3560.0 C 4372.0,3560.0 4375.0,3544.0 4407.0,3514.0 C 4423.0,3500.0 4446.0,3478.0 4460.0,3465.0 C 4474.0,3453.0 4496.0,3437.0 4509.0,3430.0 C 4530.0,3419.0 4531.0,3417.0 4517.0,3403.0 C 4504.0,3390.0 4494.0,3389.0 4459.0,3398.0 C 4413.0,3410.0 4400.0,3407.0 4400.0,3384.0 C 4400.0,3350.0 4354.0,3384.0 4325.0,3439.0 C 4308.0,3472.0 4290.0,3480.0 4290.0,3454.0 C 4290.0,3443.0 4284.0,3441.0 4271.0,3445.0 C 4256.0,3450.0 4247.0,3443.0 4233.0,3418.0 C 4217.0,3389.0 4215.0,3387.0 4212.0,3407.0 C 4210.0,3419.0 4197.0,3433.0 4182.0,3439.0 C 4167.0,3445.0 4150.0,3460.0 4145.0,3472.0 C 4131.0,3502.0 4113.0,3505.0 4105.0,3481.0 C 4097.0,3454.0 4083.0,3454.0 4075.0,3480.0 C 4072.0,3491.0 4065.0,3500.0 4060.0,3500.0 C 4048.0,3500.0 4036.0,3454.0 4045.0,3441.0 C 4048.0,3435.0 4044.0,3430.0 4036.0,3430.0 C 4028.0,3430.0 4017.0,3422.0 4011.0,3413.0 C 4006.0,3403.0 3998.0,3398.0 3995.0,3402.0 C 3991.0,3406.0 3992.0,3414.0 3996.0,3422.0 C 4000.0,3429.0 4004.0,3460.0 4005.0,3492.0 C 4006.0,3545.0 4004.0,3550.0 3984.0,3550.0 C 3972.0,3550.0 3957.0,3543.0 3950.0,3535.0 C 3943.0,3527.0 3925.0,3520.0 3909.0,3520.0 C 3890.0,3520.0 3875.0,3512.0 3865.0,3496.0 C 3856.0,3483.0 3841.0,3470.0 3831.0,3467.0 C 3813.0,3463.0 3813.0,3458.0 3824.0,3403.0 C 3833.0,3361.0 3834.0,3337.0 3826.0,3321.0 C 3817.0,3301.0 3820.0,3294.0 3848.0,3269.0 C 3866.0,3253.0 3880.0,3238.0 3880.0,3235.0 C 3880.0,3233.0 3866.0,3210.0 3848.0,3185.0 C 3820.0,3145.0 3817.0,3137.0 3829.0,3119.0 C 3836.0,3107.0 3840.0,3097.0 3838.0,3095.0 C 3836.0,3094.0 3810.0,3085.0 3780.0,3075.0 C 3701.0,3050.0 3692.0,3039.0 3698.0,2979.0 C 3702.0,2934.0 3700.0,2928.0 3681.0,2923.0 C 3669.0,2920.0 3660.0,2910.0 3660.0,2899.0 C 3660.0,2884.0 3653.0,2880.0 3625.0,2880.0 C 3600.0,2880.0 3590.0,2876.0 3590.0,2864.0 C 3590.0,2854.0 3584.0,2850.0 3575.0,2854.0 C 3556.0,2861.0 3537.0,2795.0 3546.0,2751.0 C 3550.0,2731.0 3549.0,2720.0 3541.0,2720.0 C 3535.0,2720.0 3530.0,2707.0 3530.0,2690.0 C 3530.0,2657.0 3511.0,2650.0 3490.0,2675.0 C 3471.0,2697.0 3404.0,2694.0 3380.0,2670.0 C 3356.0,2646.0 3354.0,2630.0 3375.0,2630.0 C 3384.0,2630.0 3390.0,2621.0 3390.0,2605.0 C 3390.0,2569.0 3413.0,2529.0 3447.0,2504.0 C 3500.0,2465.0 3577.0,2431.0 3628.0,2424.0 C 3683.0,2417.0 3724.0,2425.0 3702.0,2439.0 C 3692.0,2445.0 3692.0,2454.0 3699.0,2473.0 C 3711.0,2505.0 3724.0,2506.0 3768.0,2480.0 C 3808.0,2456.0 3807.0,2456.0 3813.0,2480.0 C 3818.0,2500.0 3834.0,2509.0 3907.0,2531.0 C 3931.0,2537.0 3957.0,2551.0 3966.0,2562.0 C 3979.0,2575.0 3997.0,2580.0 4042.0,2580.0 C 4108.0,2580.0 4149.0,2565.0 4200.0,2522.0 C 4229.0,2497.0 4235.0,2484.0 4240.0,2441.0 C 4251.0,2333.0 4292.0,2400.0 4296.0,2532.0 L 4299.0,2619.0 L 4254.0,2613.0 C 4223.0,2609.0 4210.0,2611.0 4210.0,2619.0 C 4210.0,2644.0 4328.0,2754.0 4437.0,2832.0 C 4505.0,2880.0 4577.0,2941.0 4618.0,2987.0 C 4702.0,3080.0 4715.0,3102.0 4705.0,3126.0 C 4700.0,3137.0 4689.0,3165.0 4681.0,3189.0 C 4667.0,3225.0 4657.0,3236.0 4624.0,3249.0 C 4602.0,3258.0 4572.0,3274.0 4559.0,3285.0 C 4511.0,3323.0 4515.0,3390.0 4566.0,3390.0 C 4581.0,3390.0 4589.0,3386.0 4585.0,3379.0 C 4576.0,3365.0 4607.0,3332.0 4652.0,3309.0 C 4696.0,3287.0 4705.0,3274.0 4702.0,3239.0 C 4701.0,3221.0 4707.0,3210.0 4725.0,3200.0 C 4745.0,3189.0 4747.0,3184.0 4739.0,3168.0 C 4733.0,3158.0 4730.0,3141.0 4732.0,3132.0 C 4735.0,3118.0 4738.0,3120.0 4749.0,3140.0 C 4784.0,3205.0 4875.0,3357.0 4890.0,3375.0 C 4900.0,3386.0 4912.0,3409.0 4918.0,3426.0 C 4926.0,3453.0 4925.0,3461.0 4909.0,3477.0 C 4876.0,3509.0 4894.0,3527.0 4963.0,3535.0 C 4997.0,3539.0 5051.0,3551.0 5083.0,3562.0 C 5130.0,3579.0 5145.0,3581.0 5166.0,3571.0 C 5211.0,3551.0 5240.0,3558.0 5276.0,3597.0 C 5295.0,3617.0 5313.0,3630.0 5317.0,3627.0 C 5321.0,3623.0 5318.0,3614.0 5312.0,3608.0 C 5305.0,3601.0 5300.0,3593.0 5300.0,3589.0 C 5300.0,3576.0 5352.0,3569.0 5366.0,3580.0 C 5375.0,3588.0 5403.0,3590.0 5452.0,3585.0 C 5559.0,3575.0 5576.0,3596.0 5555.0,3711.0 C 5547.0,3752.0 5571.0,3810.0 5595.0,3810.0 C 5613.0,3810.0 5615.0,3794.0 5599.0,3784.0 C 5593.0,3781.0 5582.0,3763.0 5574.0,3744.0 C 5562.0,3716.0 5562.0,3707.0 5574.0,3683.0 C 5582.0,3668.0 5595.0,3638.0 5604.0,3616.0 C 5618.0,3583.0 5624.0,3578.0 5646.0,3583.0 C 5665.0,3586.0 5676.0,3581.0 5692.0,3560.0 C 5709.0,3537.0 5723.0,3530.0 5771.0,3525.0 C 5834.0,3518.0 5848.0,3500.0 5808.0,3479.0 C 5781.0,3465.0 5604.0,3476.0 5547.0,3496.0 C 5525.0,3504.0 5475.0,3510.0 5436.0,3510.0 C 5394.0,3510.0 5359.0,3515.0 5352.0,3522.0 C 5328.0,3546.0 5330.0,3522.0 5354.0,3493.0 C 5388.0,3452.0 5431.0,3435.0 5459.0,3450.0 C 5473.0,3457.0 5486.0,3457.0 5498.0,3451.0 C 5507.0,3446.0 5541.0,3439.0 5573.0,3435.0 C 5615.0,3430.0 5633.0,3422.0 5641.0,3408.0 C 5647.0,3397.0 5650.0,3387.0 5648.0,3386.0 C 5613.0,3360.0 5566.0,3340.0 5543.0,3340.0 C 5504.0,3340.0 5482.0,3317.0 5500.0,3295.0 C 5518.0,3273.0 5550.0,3276.0 5550.0,3300.0 C 5550.0,3329.0 5565.0,3325.0 5590.0,3290.0 C 5605.0,3269.0 5620.0,3260.0 5640.0,3260.0 C 5655.0,3260.0 5670.0,3253.0 5674.0,3245.0 C 5677.0,3237.0 5691.0,3230.0 5704.0,3230.0 C 5730.0,3230.0 5760.0,3198.0 5760.0,3170.0 C 5760.0,3159.0 5785.0,3148.0 5846.0,3131.0 L 5933.0,3107.0 L 5984.0,3126.0 C 6020.0,3139.0 6063.0,3145.0 6130.0,3146.0 C 6256.0,3147.0 6255.0,3146.0 6240.0,3165.0 C 6221.0,3188.0 6237.0,3196.0 6268.0,3178.0 C 6300.0,3159.0 6330.0,3170.0 6330.0,3200.0 C 6330.0,3211.0 6335.0,3220.0 6340.0,3220.0 C 6346.0,3220.0 6350.0,3203.0 6350.0,3183.0 C 6350.0,3150.0 6351.0,3148.0 6363.0,3165.0 C 6378.0,3185.0 6405.0,3177.0 6396.0,3155.0 C 6393.0,3147.0 6397.0,3136.0 6405.0,3130.0 C 6415.0,3122.0 6419.0,3122.0 6423.0,3132.0 C 6426.0,3141.0 6435.0,3136.0 6450.0,3117.0 C 6471.0,3091.0 6473.0,3090.0 6496.0,3105.0 C 6509.0,3113.0 6527.0,3120.0 6536.0,3120.0 C 6549.0,3120.0 6550.0,3123.0 6541.0,3134.0 C 6531.0,3146.0 6533.0,3153.0 6548.0,3168.0 C 6564.0,3184.0 6570.0,3185.0 6584.0,3175.0 C 6597.0,3165.0 6599.0,3153.0 6594.0,3122.0 C 6591.0,3099.0 6591.0,3065.0 6594.0,3045.0 C 6600.0,3013.0 6604.0,3010.0 6635.0,3010.0 C 6654.0,3010.0 6670.0,3006.0 6670.0,3000.0 C 6670.0,2995.0 6663.0,2993.0 6655.0,2996.0 C 6644.0,3001.0 6638.0,2993.0 6634.0,2971.0 C 6627.0,2938.0 6623.0,2935.0 6601.0,2949.0 C 6591.0,2956.0 6578.0,2952.0 6562.0,2939.0 C 6544.0,2925.0 6534.0,2923.0 6524.0,2931.0 C 6515.0,2939.0 6502.0,2933.0 6473.0,2907.0 C 6407.0,2848.0 6368.0,2836.0 6344.0,2867.0 C 6332.0,2883.0 6330.0,2882.0 6316.0,2849.0 C 6306.0,2825.0 6290.0,2808.0 6268.0,2799.0 C 6213.0,2777.0 6140.0,2720.0 6134.0,2694.0 C 6131.0,2681.0 6121.0,2670.0 6114.0,2670.0 C 6106.0,2670.0 6087.0,2662.0 6072.0,2652.0 C 6036.0,2628.0 6012.0,2614.0 5967.0,2590.0 C 5928.0,2568.0 5908.0,2539.0 5928.0,2532.0 C 5935.0,2530.0 5940.0,2518.0 5940.0,2506.0 C 5940.0,2489.0 5949.0,2482.0 5982.0,2473.0 C 6018.0,2463.0 6027.0,2464.0 6048.0,2480.0 C 6061.0,2491.0 6091.0,2502.0 6115.0,2505.0 C 6164.0,2513.0 6178.0,2505.0 6285.0,2414.0 C 6318.0,2386.0 6360.0,2355.0 6378.0,2346.0 C 6408.0,2330.0 6413.0,2330.0 6445.0,2346.0 C 6464.0,2355.0 6480.0,2366.0 6480.0,2370.0 C 6480.0,2385.0 6526.0,2396.0 6558.0,2388.0 C 6593.0,2379.0 6599.0,2360.0 6574.0,2339.0 C 6556.0,2324.0 6562.0,2290.0 6590.0,2251.0 C 6601.0,2237.0 6615.0,2199.0 6621.0,2167.0 C 6632.0,2113.0 6631.0,2107.0 6610.0,2078.0 C 6591.0,2052.0 6589.0,2040.0 6594.0,1996.0 C 6598.0,1967.0 6596.0,1932.0 6591.0,1917.0 C 6584.0,1899.0 6584.0,1889.0 6592.0,1884.0 C 6604.0,1876.0 6548.0,1850.0 6519.0,1850.0 C 6495.0,1850.0 6495.0,1845.0 6519.0,1811.0 C 6532.0,1794.0 6561.0,1776.0 6603.0,1761.0 C 6658.0,1742.0 6670.0,1733.0 6679.0,1708.0 L 6690.0,1678.0 L 6776.0,1685.0 C 6876.0,1693.0 6923.0,1710.0 6956.0,1750.0 C 6970.0,1766.0 6996.0,1784.0 7015.0,1790.0 C 7034.0,1796.0 7050.0,1807.0 7050.0,1813.0 C 7050.0,1820.0 7059.0,1831.0 7069.0,1837.0 C 7079.0,1844.0 7095.0,1871.0 7104.0,1898.0 C 7119.0,1944.0 7128.0,1953.0 7201.0,1999.0 C 7289.0,2056.0 7319.0,2070.0 7354.0,2070.0 C 7381.0,2070.0 7485.0,2114.0 7495.0,2130.0 C 7498.0,2136.0 7523.0,2151.0 7550.0,2165.0 C 7576.0,2178.0 7600.0,2194.0 7602.0,2201.0 C 7606.0,2213.0 7666.0,2216.0 7699.0,2205.0 C 7715.0,2200.0 7719.0,2202.0 7714.0,2214.0 C 7711.0,2223.0 7711.0,2238.0 7715.0,2248.0 C 7719.0,2257.0 7724.0,2272.0 7725.0,2282.0 C 7726.0,2291.0 7734.0,2310.0 7743.0,2324.0 C 7758.0,2347.0 7767.0,2350.0 7816.0,2350.0 C 7879.0,2350.0 7943.0,2323.0 7961.0,2287.0 C 7977.0,2257.0 7991.0,2250.0 8012.0,2261.0 C 8022.0,2267.0 8039.0,2269.0 8049.0,2265.0 C 8061.0,2261.0 8070.0,2267.0 8078.0,2285.0 C 8091.0,2312.0 8091.0,2312.0 8191.0,2294.0 C 8208.0,2291.0 8222.0,2296.0 8235.0,2310.0 C 8245.0,2321.0 8262.0,2330.0 8272.0,2330.0 C 8295.0,2330.0 8350.0,2357.0 8350.0,2369.0 C 8350.0,2374.0 8343.0,2384.0 8334.0,2391.0 C 8313.0,2408.0 8320.0,2513.0 8344.0,2539.0 C 8353.0,2549.0 8360.0,2561.0 8360.0,2567.0 C 8360.0,2573.0 8368.0,2576.0 8378.0,2574.0 C 8388.0,2571.0 8406.0,2580.0 8422.0,2597.0 L 8449.0,2625.0 L 8412.0,2655.0 C 8378.0,2682.0 8367.0,2685.0 8286.0,2689.0 C 8211.0,2692.0 8191.0,2689.0 8155.0,2671.0 C 8128.0,2657.0 8110.0,2641.0 8106.0,2626.0 C 8097.0,2589.0 8050.0,2582.0 8010.0,2612.0 C 7990.0,2627.0 7980.0,2641.0 7983.0,2652.0 C 7991.0,2681.0 7951.0,2674.0 7940.0,2645.0 C 7935.0,2631.0 7926.0,2620.0 7920.0,2620.0 C 7915.0,2620.0 7910.0,2612.0 7910.0,2603.0 C 7910.0,2593.0 7904.0,2577.0 7897.0,2568.0 C 7880.0,2546.0 7792.0,2500.0 7767.0,2500.0 C 7756.0,2500.0 7742.0,2494.0 7736.0,2486.0 C 7720.0,2467.0 7670.0,2456.0 7670.0,2472.0 C 7670.0,2486.0 7564.0,2540.0 7538.0,2540.0 C 7520.0,2540.0 7480.0,2581.0 7480.0,2600.0 C 7480.0,2608.0 7489.0,2623.0 7500.0,2635.0 C 7517.0,2653.0 7518.0,2661.0 7509.0,2695.0 C 7494.0,2747.0 7421.0,2821.0 7391.0,2813.0 C 7376.0,2809.0 7370.0,2812.0 7370.0,2824.0 C 7370.0,2833.0 7364.0,2840.0 7356.0,2840.0 C 7348.0,2840.0 7340.0,2845.0 7338.0,2852.0 C 7335.0,2861.0 7326.0,2861.0 7302.0,2851.0 C 7285.0,2844.0 7262.0,2841.0 7253.0,2845.0 C 7237.0,2851.0 7239.0,2854.0 7263.0,2866.0 C 7298.0,2885.0 7297.0,2923.0 7263.0,2928.0 C 7232.0,2933.0 7234.0,2958.0 7265.0,2966.0 C 7294.0,2973.0 7299.0,2990.0 7272.0,2990.0 C 7253.0,2990.0 7209.0,2960.0 7172.0,2923.0 C 7160.0,2910.0 7143.0,2900.0 7134.0,2900.0 C 7121.0,2900.0 7122.0,2904.0 7138.0,2927.0 C 7149.0,2943.0 7170.0,2966.0 7184.0,2979.0 C 7210.0,3004.0 7218.0,3038.0 7200.0,3056.0 C 7195.0,3061.0 7193.0,3101.0 7197.0,3153.0 L 7203.0,3240.0 L 7244.0,3240.0 C 7268.0,3240.0 7296.0,3248.0 7310.0,3257.0 C 7323.0,3267.0 7361.0,3289.0 7395.0,3305.0 C 7438.0,3326.0 7459.0,3344.0 7468.0,3366.0 C 7476.0,3382.0 7492.0,3400.0 7503.0,3406.0 C 7531.0,3418.0 7537.0,3456.0 7515.0,3480.0 C 7506.0,3490.0 7500.0,3505.0 7502.0,3512.0 C 7505.0,3520.0 7511.0,3517.0 7519.0,3502.0 C 7525.0,3490.0 7537.0,3480.0 7545.0,3480.0 C 7554.0,3480.0 7560.0,3467.0 7562.0,3443.0 C 7566.0,3396.0 7594.0,3386.0 7612.0,3425.0 C 7622.0,3448.0 7621.0,3458.0 7603.0,3493.0 C 7573.0,3553.0 7568.0,3569.0 7564.0,3630.0 C 7560.0,3690.0 7573.0,3726.0 7589.0,3701.0 C 7594.0,3693.0 7601.0,3662.0 7605.0,3632.0 C 7609.0,3602.0 7620.0,3564.0 7631.0,3546.0 C 7641.0,3529.0 7650.0,3504.0 7650.0,3491.0 C 7650.0,3469.0 7651.0,3468.0 7668.0,3482.0 C 7677.0,3491.0 7696.0,3501.0 7709.0,3505.0 C 7722.0,3509.0 7772.0,3551.0 7819.0,3599.0 C 7892.0,3672.0 7912.0,3687.0 7952.0,3695.0 C 7977.0,3701.0 8008.0,3703.0 8019.0,3698.0 C 8030.0,3694.0 8053.0,3696.0 8070.0,3701.0 C 8112.0,3716.0 8130.0,3707.0 8130.0,3670.0 C 8130.0,3649.0 8119.0,3627.0 8093.0,3599.0 C 8058.0,3560.0 8057.0,3558.0 8080.0,3562.0 C 8100.0,3564.0 8115.0,3584.0 8153.0,3655.0 C 8179.0,3705.0 8205.0,3746.0 8210.0,3748.0 C 8215.0,3750.0 8235.0,3762.0 8255.0,3776.0 C 8275.0,3789.0 8299.0,3800.0 8310.0,3800.0 C 8320.0,3800.0 8332.0,3805.0 8335.0,3810.0 C 8344.0,3825.0 8412.0,3821.0 8434.0,3805.0 C 8449.0,3793.0 8451.0,3783.0 8446.0,3748.0 C 8440.0,3709.0 8441.0,3707.0 8453.0,3725.0 C 8461.0,3736.0 8477.0,3775.0 8489.0,3812.0 C 8506.0,3862.0 8521.0,3887.0 8546.0,3908.0 C 8634.0,3980.0 8728.0,4001.0 8740.0,3950.0 C 8746.0,3926.0 8747.0,3927.0 8775.0,3970.0 C 8791.0,3995.0 8818.0,4038.0 8836.0,4066.0 L 8869.0,4117.0 L 8941.0,4123.0 C 8983.0,4127.0 9019.0,4135.0 9029.0,4144.0 C 9038.0,4152.0 9061.0,4158.0 9080.0,4157.0 C 9099.0,4156.0 9127.0,4159.0 9143.0,4163.0 C 9165.0,4169.0 9170.0,4167.0 9170.0,4153.0 C 9171.0,4109.0 9186.0,4112.0 9243.0,4165.0 C 9279.0,4198.0 9300.0,4226.0 9300.0,4240.0 C 9300.0,4252.0 9308.0,4274.0 9319.0,4288.0 C 9329.0,4303.0 9339.0,4327.0 9342.0,4342.0 C 9346.0,4365.0 9343.0,4369.0 9321.0,4372.0 C 9292.0,4375.0 9293.0,4370.0 9306.0,4493.0 C 9312.0,4556.0 9316.0,4563.0 9352.0,4595.0 C 9374.0,4613.0 9403.0,4631.0 9417.0,4635.0 C 9431.0,4638.0 9457.0,4652.0 9474.0,4665.0 C 9491.0,4678.0 9517.0,4693.0 9533.0,4699.0 C 9548.0,4705.0 9560.0,4715.0 9560.0,4722.0 C 9560.0,4729.0 9571.0,4758.0 9584.0,4786.0 L 9608.0,4837.0 L 9786.0,4838.0 C 9990.0,4840.0 10066.0,4847.0 10096.0,4867.0 C 10114.0,4878.0 10121.0,4901.0 10135.0,4993.0 C 10151.0,5099.0 10191.0,5207.0 10220.0,5225.0 C 10233.0,5233.0 10233.0,5291.0 10220.0,5325.0 C 10214.0,5340.0 10187.0,5377.0 10160.0,5408.0 C 10119.0,5454.0 10110.0,5471.0 10110.0,5501.0 C 10110.0,5535.0 10107.0,5539.0 10059.0,5561.0 C 10009.0,5585.0 10009.0,5585.0 10014.0,5625.0 C 10025.0,5718.0 10035.0,5745.0 10057.0,5748.0 C 10069.0,5750.0 10088.0,5746.0 10100.0,5740.0 C 10138.0,5719.0 10207.0,5793.0 10180.0,5825.0 C 10166.0,5842.0 10130.0,5845.0 10130.0,5829.0 C 10130.0,5824.0 10126.0,5822.0 10120.0,5825.0 C 10115.0,5828.0 10085.0,5835.0 10055.0,5840.0 C 10014.0,5847.0 9992.0,5857.0 9970.0,5879.0 C 9953.0,5895.0 9940.0,5911.0 9940.0,5913.0 C 9940.0,5918.0 9998.0,5929.0 10041.0,5933.0 C 10079.0,5936.0 10096.0,5955.0 10109.0,6007.0 C 10122.0,6057.0 10166.0,6106.0 10213.0,6122.0 C 10228.0,6128.0 10240.0,6135.0 10240.0,6139.0 C 10240.0,6143.0 10229.0,6173.0 10216.0,6206.0 C 10194.0,6261.0 10189.0,6266.0 10146.0,6280.0 C 10104.0,6294.0 10081.0,6312.0 10080.0,6332.0 C 10080.0,6335.0 10096.0,6344.0 10115.0,6350.0 C 10134.0,6356.0 10152.0,6365.0 10155.0,6370.0 C 10166.0,6388.0 10147.0,6431.0 10121.0,6444.0 C 10098.0,6456.0 10085.0,6456.0 10029.0,6443.0 C 9968.0,6428.0 9960.0,6428.0 9918.0,6444.0 C 9876.0,6460.0 9861.0,6477.0 9846.0,6523.0 C 9841.0,6538.0 9827.0,6540.0 9741.0,6540.0 L 9642.0,6540.0 L 9610.0,6580.0 C 9575.0,6624.0 9542.0,6632.0 9523.0,6600.0 C 9516.0,6589.0 9496.0,6573.0 9479.0,6564.0 C 9449.0,6549.0 9447.0,6549.0 9421.0,6573.0 C 9407.0,6587.0 9382.0,6602.0 9367.0,6606.0 C 9345.0,6611.0 9340.0,6617.0 9343.0,6632.0 C 9347.0,6646.0 9338.0,6658.0 9307.0,6678.0 C 9279.0,6697.0 9265.0,6701.0 9262.0,6692.0 C 9260.0,6685.0 9240.0,6680.0 9213.0,6680.0 C 9176.0,6680.0 9163.0,6685.0 9139.0,6711.0 C 9123.0,6728.0 9110.0,6746.0 9110.0,6751.0 C 9110.0,6756.0 9079.0,6760.0 9040.0,6760.0 C 8967.0,6760.0 8964.0,6758.0 8980.0,6714.0 C 8986.0,6700.0 8988.0,6673.0 8984.0,6655.0 C 8979.0,6626.0 8975.0,6623.0 8954.0,6629.0 C 8940.0,6632.0 8921.0,6649.0 8910.0,6665.0 C 8899.0,6682.0 8856.0,6714.0 8808.0,6741.0 L 8725.0,6787.0 L 8722.0,6833.0 C 8720.0,6870.0 8713.0,6884.0 8689.0,6905.0 C 8672.0,6919.0 8653.0,6930.0 8646.0,6930.0 C 8639.0,6930.0 8625.0,6939.0 8615.0,6950.0 C 8599.0,6968.0 8599.0,6970.0 8614.0,6976.0 C 8623.0,6980.0 8630.0,6993.0 8630.0,7010.0 C 8630.0,7037.0 8629.0,7038.0 8598.0,7029.0 C 8580.0,7024.0 8551.0,7020.0 8534.0,7020.0 C 8515.0,7020.0 8480.0,7005.0 8441.0,6980.0 C 8393.0,6949.0 8370.0,6940.0 8335.0,6940.0 C 8300.0,6940.0 8277.0,6931.0 8228.0,6900.0 C 8151.0,6850.0 8130.0,6844.0 8092.0,6864.0 C 8075.0,6873.0 8043.0,6880.0 8021.0,6880.0 C 7999.0,6880.0 7978.0,6885.0 7975.0,6890.0 C 7972.0,6896.0 7942.0,6918.0 7910.0,6940.0 C 7836.0,6990.0 7794.0,6992.0 7678.0,6949.0 C 7557.0,6905.0 7560.0,6906.0 7560.0,6923.0 C 7560.0,6932.0 7546.0,6955.0 7529.0,6974.0 C 7486.0,7024.0 7479.0,7056.0 7497.0,7136.0 C 7513.0,7213.0 7506.0,7256.0 7467.0,7319.0 C 7456.0,7338.0 7443.0,7378.0 7439.0,7408.0 C 7431.0,7466.0 7412.0,7489.0 7372.0,7490.0 C 7335.0,7490.0 7312.0,7507.0 7300.0,7545.0 C 7278.0,7612.0 7235.0,7622.0 7122.0,7584.0 C 7063.0,7564.0 7040.0,7566.0 7040.0,7589.0 C 7040.0,7600.0 7027.0,7618.0 7011.0,7629.0 C 6987.0,7646.0 6967.0,7650.0 6901.0,7650.0 C 6814.0,7650.0 6806.0,7656.0 6836.0,7699.0 C 6853.0,7722.0 6848.0,7731.0 6816.0,7743.0 C 6810.0,7745.0 6811.0,7758.0 6817.0,7776.0 C 6833.0,7820.0 6821.0,7867.0 6786.0,7905.0 L 6754.0,7938.0 L 6790.0,7949.0 C 6809.0,7955.0 6840.0,7969.0 6857.0,7980.0 C 6888.0,7999.0 6889.0,8002.0 6884.0,8047.0 C 6877.0,8101.0 6846.0,8141.0 6789.0,8171.0 C 6758.0,8186.0 6747.0,8202.0 6721.0,8264.0 C 6704.0,8305.0 6690.0,8345.0 6690.0,8354.0 C 6690.0,8362.0 6680.0,8381.0 6667.0,8397.0 C 6654.0,8412.0 6629.0,8447.0 6611.0,8474.0 C 6576.0,8524.0 6517.0,8560.0 6470.0,8559.0 C 6456.0,8558.0 6416.0,8552.0 6381.0,8544.0" fill="pink"/>
</svg>
