<?xml version="1.0" ?>
<svg xmlns="http://www.w3.org/2000/svg" xmlns:ev="http://www.w3.org/2001/xml-events" xmlns:xlink="http://www.w3.org/1999/xlink" baseProfile="full" height="600px" version="1.1" viewBox="-874.6068621418744 -1026.5942005844909 11985.991400583553 12290.044554706481" width="586px">
	<defs/>
	<path d="M 7790.0,9825.0 L 7355.0,9411.0 L 7050.0,9417.0 L 6745.0,9423.0 L 6598.0,9537.0 C 6518.0,9599.0 6447.0,9650.0 6441.0,9650.0 C 6436.0,9650.0 6385.0,9617.0 6328.0,9576.0 C 6227.0,9504.0 6222.0,9501.0 6065.0,9457.0 L 5905.0,9412.0 L 5611.0,9405.0 L 5317.0,9398.0 L 5130.0,9282.0 L 4943.0,9165.0 L 4936.0,9081.0 C 4933.0,9034.0 4929.0,8995.0 4927.0,8994.0 C 4926.0,8993.0 4888.0,8996.0 4842.0,9002.0 L 4760.0,9013.0 L 4729.0,9066.0 L 4699.0,9119.0 L 4606.0,9113.0 C 4496.0,9106.0 4498.0,9105.0 4479.0,9219.0 C 4470.0,9273.0 4461.0,9296.0 4445.0,9309.0 C 4432.0,9318.0 4406.0,9351.0 4387.0,9381.0 C 4368.0,9411.0 4325.0,9462.0 4292.0,9494.0 L 4231.0,9553.0 L 4179.0,9506.0 C 4120.0,9453.0 4088.0,9413.0 4070.0,9370.0 C 4058.0,9340.0 4051.0,9339.0 3851.0,9314.0 C 3812.0,9309.0 3788.0,9299.0 3764.0,9277.0 L 3730.0,9248.0 L 3647.0,9291.0 C 3602.0,9314.0 3502.0,9367.0 3426.0,9407.0 L 3286.0,9481.0 L 3174.0,9487.0 L 3062.0,9493.0 L 3002.0,9446.0 C 2969.0,9420.0 2925.0,9394.0 2904.0,9388.0 C 2882.0,9383.0 2844.0,9363.0 2819.0,9344.0 C 2791.0,9324.0 2761.0,9310.0 2743.0,9310.0 C 2709.0,9310.0 2670.0,9274.0 2670.0,9242.0 C 2670.0,9228.0 2657.0,9214.0 2630.0,9199.0 C 2583.0,9172.0 2528.0,9093.0 2506.0,9020.0 C 2497.0,8990.0 2490.0,8963.0 2490.0,8959.0 C 2490.0,8946.0 2554.0,8971.0 2568.0,8989.0 C 2580.0,9004.0 2582.0,9003.0 2593.0,8985.0 C 2600.0,8974.0 2610.0,8934.0 2615.0,8895.0 C 2625.0,8826.0 2625.0,8824.0 2591.0,8760.0 C 2555.0,8692.0 2515.0,8635.0 2469.0,8585.0 C 2449.0,8564.0 2431.0,8520.0 2407.0,8440.0 C 2388.0,8377.0 2361.0,8294.0 2347.0,8255.0 C 2304.0,8134.0 2304.0,8133.0 2349.0,8092.0 C 2486.0,7964.0 2485.0,7965.0 2498.0,7911.0 C 2524.0,7796.0 2503.0,7687.0 2447.0,7651.0 C 2422.0,7635.0 2413.0,7620.0 2399.0,7563.0 C 2390.0,7526.0 2366.0,7457.0 2346.0,7410.0 C 2321.0,7349.0 2310.0,7310.0 2310.0,7272.0 C 2310.0,7230.0 2304.0,7212.0 2280.0,7178.0 C 2257.0,7146.0 2250.0,7127.0 2252.0,7100.0 L 2255.0,7065.0 L 2345.0,7053.0 C 2395.0,7047.0 2436.0,7041.0 2436.0,7041.0 C 2437.0,7040.0 2441.0,7023.0 2444.0,7003.0 C 2448.0,6982.0 2459.0,6946.0 2468.0,6922.0 C 2482.0,6888.0 2492.0,6878.0 2520.0,6870.0 C 2539.0,6865.0 2560.0,6860.0 2566.0,6860.0 C 2578.0,6860.0 2609.0,6900.0 2634.0,6948.0 C 2662.0,7002.0 2699.0,6993.0 2808.0,6907.0 C 2861.0,6865.0 2870.0,6853.0 2866.0,6834.0 C 2861.0,6815.0 2867.0,6807.0 2906.0,6784.0 C 2950.0,6758.0 2954.0,6757.0 3015.0,6768.0 C 3111.0,6786.0 3107.0,6788.0 3130.0,6708.0 C 3143.0,6667.0 3161.0,6629.0 3173.0,6619.0 C 3193.0,6603.0 3262.0,6580.0 3289.0,6580.0 C 3295.0,6580.0 3320.0,6608.0 3345.0,6642.0 C 3387.0,6701.0 3390.0,6702.0 3398.0,6679.0 C 3403.0,6666.0 3417.0,6629.0 3429.0,6597.0 C 3441.0,6565.0 3452.0,6512.0 3453.0,6479.0 C 3455.0,6436.0 3462.0,6412.0 3479.0,6389.0 C 3502.0,6358.0 3502.0,6357.0 3485.0,6301.0 C 3470.0,6251.0 3470.0,6234.0 3480.0,6166.0 L 3492.0,6088.0 L 3422.0,5981.0 C 3383.0,5919.0 3350.0,5856.0 3346.0,5834.0 C 3336.0,5780.0 3300.0,5728.0 3238.0,5679.0 C 3209.0,5657.0 3169.0,5619.0 3148.0,5595.0 C 3080.0,5518.0 3054.0,5507.0 2930.0,5508.0 L 2821.0,5508.0 L 2806.0,5469.0 C 2793.0,5438.0 2779.0,5425.0 2731.0,5401.0 C 2695.0,5382.0 2660.0,5355.0 2639.0,5328.0 C 2621.0,5304.0 2581.0,5256.0 2550.0,5220.0 C 2519.0,5184.0 2479.0,5130.0 2462.0,5100.0 C 2445.0,5070.0 2388.0,5002.0 2335.0,4950.0 C 2260.0,4875.0 2240.0,4849.0 2240.0,4827.0 C 2240.0,4787.0 2196.0,4706.0 2163.0,4685.0 C 2148.0,4675.0 2103.0,4636.0 2064.0,4598.0 L 1993.0,4530.0 L 1925.0,4539.0 C 1888.0,4544.0 1856.0,4551.0 1853.0,4554.0 C 1850.0,4557.0 1853.0,4580.0 1859.0,4605.0 C 1869.0,4643.0 1868.0,4655.0 1855.0,4673.0 C 1847.0,4685.0 1840.0,4710.0 1839.0,4730.0 C 1839.0,4749.0 1835.0,4774.0 1831.0,4785.0 C 1825.0,4799.0 1829.0,4813.0 1841.0,4832.0 L 1860.0,4858.0 L 1821.0,4865.0 C 1792.0,4870.0 1772.0,4866.0 1743.0,4852.0 C 1722.0,4842.0 1685.0,4830.0 1660.0,4827.0 C 1635.0,4823.0 1598.0,4816.0 1577.0,4810.0 C 1545.0,4800.0 1540.0,4795.0 1540.0,4769.0 C 1540.0,4740.0 1540.0,4739.0 1510.0,4755.0 C 1470.0,4776.0 1465.0,4775.0 1421.0,4734.0 C 1358.0,4678.0 1322.0,4613.0 1305.0,4524.0 C 1277.0,4388.0 1265.0,4359.0 1212.0,4313.0 C 1184.0,4290.0 1144.0,4267.0 1119.0,4260.0 C 1095.0,4254.0 1027.0,4223.0 968.0,4192.0 C 864.0,4137.0 861.0,4135.0 850.0,4091.0 C 843.0,4064.0 842.0,4017.0 846.0,3969.0 C 852.0,3902.0 850.0,3887.0 832.0,3858.0 C 814.0,3828.0 813.0,3817.0 822.0,3745.0 C 827.0,3701.0 838.0,3658.0 846.0,3649.0 C 855.0,3639.0 860.0,3611.0 860.0,3572.0 L 860.0,3511.0 L 777.0,3417.0 C 696.0,3324.0 694.0,3321.0 662.0,3212.0 C 638.0,3127.0 630.0,3083.0 630.0,3020.0 L 630.0,2939.0 L 575.0,2945.0 L 520.0,2952.0 L 520.0,2922.0 C 520.0,2899.0 514.0,2890.0 491.0,2880.0 C 470.0,2872.0 455.0,2853.0 440.0,2817.0 C 419.0,2768.0 418.0,2764.0 434.0,2715.0 C 448.0,2670.0 448.0,2659.0 435.0,2610.0 C 414.0,2531.0 415.0,2523.0 455.0,2510.0 C 474.0,2504.0 505.0,2481.0 524.0,2458.0 C 543.0,2436.0 576.0,2403.0 598.0,2384.0 C 637.0,2351.0 639.0,2350.0 674.0,2365.0 C 693.0,2373.0 722.0,2380.0 736.0,2380.0 L 763.0,2380.0 L 743.0,2358.0 C 727.0,2340.0 721.0,2317.0 717.0,2260.0 C 707.0,2115.0 637.0,1960.0 581.0,1960.0 C 565.0,1960.0 530.0,1943.0 497.0,1920.0 C 467.0,1898.0 433.0,1880.0 422.0,1880.0 C 392.0,1880.0 317.0,1794.0 323.0,1767.0 C 326.0,1755.0 332.0,1713.0 335.0,1675.0 C 342.0,1607.0 341.0,1604.0 319.0,1594.0 C 302.0,1586.0 295.0,1574.0 294.0,1554.0 C 294.0,1538.0 285.0,1498.0 276.0,1465.0 C 266.0,1432.0 255.0,1344.0 250.0,1270.0 L 242.0,1135.0 L 271.0,1093.0 C 287.0,1070.0 300.0,1049.0 300.0,1046.0 C 300.0,1043.0 273.0,1040.0 240.0,1040.0 L 181.0,1040.0 L 171.0,1003.0 C 165.0,982.0 160.0,949.0 159.0,930.0 C 159.0,911.0 151.0,870.0 141.0,840.0 C 124.0,787.0 124.0,784.0 143.0,740.0 C 157.0,708.0 163.0,669.0 164.0,605.0 C 166.0,530.0 170.0,508.0 190.0,476.0 C 210.0,443.0 212.0,432.0 204.0,401.0 C 198.0,380.0 197.0,351.0 202.0,334.0 C 207.0,318.0 214.0,274.0 219.0,236.0 C 224.0,198.0 234.0,164.0 241.0,159.0 C 248.0,155.0 273.0,149.0 298.0,145.0 C 336.0,139.0 346.0,142.0 369.0,162.0 C 427.0,215.0 446.0,222.0 507.0,210.0 C 580.0,197.0 575.0,196.0 588.0,225.0 C 597.0,244.0 607.0,250.0 632.0,250.0 C 674.0,250.0 724.0,193.0 733.0,136.0 C 741.0,87.0 790.0,6.0 814.0,2.0 C 824.0,0.0 868.0,17.0 911.0,39.0 C 966.0,68.0 997.0,79.0 1013.0,75.0 C 1032.0,70.0 1041.0,75.0 1055.0,97.0 C 1082.0,139.0 1132.0,179.0 1158.0,180.0 C 1197.0,180.0 1237.0,208.0 1249.0,242.0 C 1278.0,325.0 1295.0,349.0 1330.0,361.0 C 1349.0,367.0 1377.0,388.0 1393.0,406.0 C 1408.0,424.0 1429.0,442.0 1440.0,445.0 C 1451.0,448.0 1482.0,488.0 1509.0,533.0 C 1546.0,595.0 1560.0,629.0 1565.0,672.0 L 1572.0,729.0 L 1693.0,729.0 C 1793.0,728.0 1821.0,725.0 1853.0,708.0 L 1892.0,689.0 L 1914.0,709.0 C 1941.0,734.0 1983.0,736.0 2060.0,715.0 C 2090.0,707.0 2115.0,700.0 2115.0,700.0 C 2116.0,700.0 2133.0,723.0 2154.0,750.0 C 2186.0,792.0 2201.0,803.0 2249.0,816.0 C 2280.0,825.0 2309.0,839.0 2313.0,846.0 C 2324.0,864.0 2372.0,864.0 2417.0,845.0 C 2448.0,832.0 2572.0,830.0 3326.0,830.0 C 4278.0,830.0 4220.0,826.0 4188.0,883.0 C 4180.0,897.0 4177.0,935.0 4179.0,988.0 C 4183.0,1090.0 4170.0,1110.0 4105.0,1110.0 C 4060.0,1110.0 4050.0,1120.0 4050.0,1165.0 C 4050.0,1203.0 4096.0,1293.0 4135.0,1330.0 C 4155.0,1349.0 4177.0,1379.0 4185.0,1396.0 C 4192.0,1414.0 4210.0,1432.0 4229.0,1439.0 C 4267.0,1455.0 4267.0,1459.0 4234.0,1485.0 C 4209.0,1505.0 4209.0,1505.0 4221.0,1578.0 C 4228.0,1617.0 4238.0,1650.0 4244.0,1650.0 C 4250.0,1650.0 4270.0,1678.0 4289.0,1713.0 C 4341.0,1806.0 4370.0,1840.0 4402.0,1840.0 C 4426.0,1840.0 4470.0,1873.0 4470.0,1890.0 C 4470.0,1902.0 4579.0,2042.0 4599.0,2056.0 C 4615.0,2068.0 4620.0,2067.0 4630.0,2055.0 C 4637.0,2047.0 4646.0,2040.0 4651.0,2040.0 C 4665.0,2040.0 4662.0,2064.0 4639.0,2118.0 C 4623.0,2156.0 4610.0,2171.0 4589.0,2179.0 C 4565.0,2187.0 4560.0,2195.0 4560.0,2220.0 C 4560.0,2269.0 4544.0,2290.0 4506.0,2290.0 L 4473.0,2290.0 L 4478.0,2348.0 C 4481.0,2392.0 4488.0,2411.0 4508.0,2433.0 C 4533.0,2459.0 4538.0,2460.0 4633.0,2460.0 L 4732.0,2460.0 L 4718.0,2482.0 C 4709.0,2496.0 4690.0,2506.0 4672.0,2508.0 C 4646.0,2511.0 4622.0,2535.0 4633.0,2547.0 C 4636.0,2549.0 4663.0,2558.0 4694.0,2567.0 C 4749.0,2582.0 4751.0,2582.0 4773.0,2563.0 C 4803.0,2535.0 4867.0,2504.0 4910.0,2496.0 C 4942.0,2491.0 4947.0,2493.0 4957.0,2517.0 C 4964.0,2533.0 4975.0,2553.0 4982.0,2562.0 C 4992.0,2576.0 4990.0,2583.0 4970.0,2605.0 C 4934.0,2644.0 4970.0,2638.0 5025.0,2595.0 C 5065.0,2565.0 5074.0,2562.0 5095.0,2572.0 C 5130.0,2588.0 5130.0,2643.0 5095.0,2666.0 C 5081.0,2675.0 5070.0,2688.0 5070.0,2696.0 C 5070.0,2706.0 5087.0,2703.0 5138.0,2684.0 C 5219.0,2653.0 5230.0,2645.0 5230.0,2614.0 C 5230.0,2583.0 5245.0,2583.0 5266.0,2614.0 C 5276.0,2630.0 5282.0,2660.0 5281.0,2700.0 C 5281.0,2760.0 5282.0,2762.0 5315.0,2776.0 C 5333.0,2783.0 5351.0,2799.0 5355.0,2810.0 C 5359.0,2824.0 5370.0,2830.0 5391.0,2830.0 C 5407.0,2830.0 5420.0,2826.0 5420.0,2821.0 C 5420.0,2816.0 5405.0,2789.0 5386.0,2761.0 C 5359.0,2721.0 5355.0,2709.0 5365.0,2700.0 C 5383.0,2685.0 5427.0,2698.0 5433.0,2720.0 C 5438.0,2738.0 5497.0,2754.0 5506.0,2739.0 C 5513.0,2727.0 5629.0,2730.0 5636.0,2742.0 C 5640.0,2748.0 5631.0,2764.0 5616.0,2777.0 C 5596.0,2794.0 5590.0,2806.0 5595.0,2821.0 C 5599.0,2833.0 5607.0,2839.0 5616.0,2836.0 C 5624.0,2833.0 5637.0,2827.0 5646.0,2824.0 C 5658.0,2819.0 5660.0,2823.0 5654.0,2844.0 C 5650.0,2863.0 5652.0,2871.0 5664.0,2876.0 C 5677.0,2881.0 5676.0,2885.0 5654.0,2902.0 C 5618.0,2931.0 5623.0,2980.0 5665.0,2993.0 C 5682.0,2998.0 5703.0,3009.0 5712.0,3017.0 C 5721.0,3026.0 5750.0,3035.0 5775.0,3037.0 C 5815.0,3042.0 5820.0,3040.0 5820.0,3023.0 C 5820.0,3011.0 5813.0,2997.0 5804.0,2990.0 C 5796.0,2982.0 5790.0,2965.0 5792.0,2951.0 C 5796.0,2913.0 5832.0,2912.0 5883.0,2950.0 L 5925.0,2981.0 L 5942.0,2959.0 C 5959.0,2939.0 5959.0,2937.0 5937.0,2920.0 C 5924.0,2910.0 5896.0,2899.0 5874.0,2895.0 C 5802.0,2883.0 5800.0,2881.0 5800.0,2843.0 L 5800.0,2807.0 L 5863.0,2814.0 C 5897.0,2818.0 5933.0,2829.0 5943.0,2837.0 C 5957.0,2851.0 5966.0,2851.0 5997.0,2842.0 C 6017.0,2836.0 6034.0,2832.0 6034.0,2833.0 C 6040.0,2855.0 6068.0,2880.0 6118.0,2905.0 C 6151.0,2922.0 6186.0,2942.0 6194.0,2949.0 C 6207.0,2960.0 6211.0,2955.0 6220.0,2919.0 C 6230.0,2881.0 6230.0,2875.0 6214.0,2863.0 C 6197.0,2850.0 6197.0,2848.0 6213.0,2821.0 C 6222.0,2805.0 6230.0,2785.0 6230.0,2776.0 C 6230.0,2757.0 6252.0,2760.0 6348.0,2796.0 C 6418.0,2822.0 6472.0,2858.0 6543.0,2923.0 C 6596.0,2974.0 6601.0,2992.0 6565.0,3016.0 C 6532.0,3037.0 6548.0,3060.0 6596.0,3060.0 C 6623.0,3060.0 6630.0,3056.0 6630.0,3040.0 C 6630.0,3029.0 6634.0,3020.0 6639.0,3020.0 C 6659.0,3020.0 6680.0,3033.0 6680.0,3045.0 C 6680.0,3052.0 6690.0,3064.0 6702.0,3072.0 C 6722.0,3085.0 6723.0,3090.0 6711.0,3116.0 C 6699.0,3148.0 6710.0,3200.0 6729.0,3200.0 C 6741.0,3200.0 6908.0,3298.0 6914.0,3309.0 C 6917.0,3314.0 6902.0,3330.0 6881.0,3344.0 L 6843.0,3371.0 L 6861.0,3408.0 C 6872.0,3428.0 6880.0,3450.0 6880.0,3457.0 C 6880.0,3475.0 6887.0,3474.0 6937.0,3444.0 C 6976.0,3422.0 6985.0,3420.0 7013.0,3430.0 C 7030.0,3436.0 7057.0,3454.0 7073.0,3471.0 C 7095.0,3496.0 7103.0,3500.0 7115.0,3490.0 C 7127.0,3480.0 7126.0,3473.0 7105.0,3446.0 C 7090.0,3427.0 7080.0,3400.0 7080.0,3381.0 C 7080.0,3355.0 7077.0,3350.0 7063.0,3354.0 C 6994.0,3374.0 6992.0,3374.0 6985.0,3337.0 C 6975.0,3285.0 6984.0,3277.0 7043.0,3283.0 C 7092.0,3289.0 7092.0,3289.0 7075.0,3270.0 C 7035.0,3226.0 7125.0,3199.0 7177.0,3240.0 C 7210.0,3265.0 7236.0,3265.0 7252.0,3240.0 C 7260.0,3228.0 7276.0,3220.0 7292.0,3220.0 C 7315.0,3220.0 7320.0,3216.0 7320.0,3195.0 C 7320.0,3181.0 7326.0,3167.0 7334.0,3164.0 C 7342.0,3161.0 7346.0,3152.0 7343.0,3144.0 C 7337.0,3128.0 7299.0,3125.0 7284.0,3140.0 C 7278.0,3146.0 7259.0,3145.0 7232.0,3138.0 C 7198.0,3130.0 7192.0,3125.0 7201.0,3114.0 C 7210.0,3103.0 7208.0,3094.0 7195.0,3074.0 C 7185.0,3059.0 7182.0,3044.0 7187.0,3039.0 C 7202.0,3024.0 7323.0,2980.0 7349.0,2980.0 C 7363.0,2980.0 7388.0,2973.0 7404.0,2965.0 C 7432.0,2950.0 7435.0,2951.0 7460.0,2975.0 C 7474.0,2989.0 7493.0,3000.0 7502.0,3000.0 C 7519.0,3000.0 7535.0,3035.0 7545.0,3095.0 C 7548.0,3117.0 7556.0,3150.0 7563.0,3168.0 C 7573.0,3197.0 7577.0,3200.0 7606.0,3194.0 C 7627.0,3190.0 7653.0,3195.0 7682.0,3208.0 C 7714.0,3222.0 7731.0,3224.0 7747.0,3217.0 L 7769.0,3207.0 L 7740.0,3170.0 C 7701.0,3121.0 7701.0,3100.0 7740.0,3100.0 L 7770.0,3100.0 L 7750.0,3060.0 C 7739.0,3039.0 7730.0,3009.0 7730.0,2995.0 C 7730.0,2971.0 7732.0,2970.0 7795.0,2970.0 C 7859.0,2970.0 7860.0,2970.0 7860.0,2998.0 C 7861.0,3024.0 7861.0,3024.0 7875.0,3006.0 C 7883.0,2995.0 7890.0,2967.0 7890.0,2943.0 C 7890.0,2907.0 7893.0,2900.0 7909.0,2900.0 C 7923.0,2900.0 7930.0,2910.0 7935.0,2932.0 C 7946.0,2980.0 7948.0,2981.0 7983.0,2960.0 C 8023.0,2935.0 8047.0,2935.0 8055.0,2959.0 C 8058.0,2970.0 8067.0,2981.0 8075.0,2984.0 C 8083.0,2987.0 8090.0,2998.0 8090.0,3009.0 C 8090.0,3022.0 8099.0,3030.0 8119.0,3035.0 C 8135.0,3038.0 8159.0,3054.0 8174.0,3071.0 C 8188.0,3087.0 8204.0,3100.0 8209.0,3100.0 C 8213.0,3100.0 8213.0,3074.0 8208.0,3043.0 C 8195.0,2960.0 8201.0,2948.0 8232.0,3000.0 C 8246.0,3025.0 8281.0,3064.0 8308.0,3087.0 C 8337.0,3112.0 8373.0,3157.0 8394.0,3194.0 C 8424.0,3248.0 8430.0,3268.0 8430.0,3320.0 C 8430.0,3359.0 8437.0,3394.0 8449.0,3418.0 C 8471.0,3462.0 8524.0,3608.0 8539.0,3666.0 C 8550.0,3706.0 8552.0,3708.0 8636.0,3741.0 L 8722.0,3775.0 L 8757.0,3845.0 C 8777.0,3884.0 8798.0,3938.0 8804.0,3965.0 L 8815.0,4015.0 L 8863.0,4020.0 C 8928.0,4027.0 8980.0,4068.0 8980.0,4113.0 C 8980.0,4138.0 8990.0,4155.0 9021.0,4185.0 C 9043.0,4207.0 9074.0,4246.0 9091.0,4271.0 C 9116.0,4310.0 9120.0,4326.0 9120.0,4386.0 C 9120.0,4459.0 9137.0,4517.0 9179.0,4583.0 C 9194.0,4608.0 9207.0,4619.0 9219.0,4616.0 C 9289.0,4595.0 9286.0,4593.0 9310.0,4664.0 L 9332.0,4730.0 L 9377.0,4730.0 C 9413.0,4730.0 9431.0,4737.0 9462.0,4762.0 C 9492.0,4785.0 9521.0,4797.0 9574.0,4807.0 C 9613.0,4814.0 9669.0,4825.0 9698.0,4831.0 L 9750.0,4841.0 L 9750.0,4896.0 C 9750.0,4926.0 9743.0,4967.0 9734.0,4988.0 C 9726.0,5008.0 9715.0,5043.0 9710.0,5065.0 C 9705.0,5087.0 9698.0,5115.0 9695.0,5127.0 C 9688.0,5147.0 9695.0,5153.0 9751.0,5178.0 C 9820.0,5209.0 9849.0,5248.0 9851.0,5313.0 C 9853.0,5384.0 9861.0,5394.0 9925.0,5405.0 C 9982.0,5415.0 9985.0,5417.0 9998.0,5455.0 C 10006.0,5477.0 10025.0,5530.0 10041.0,5573.0 C 10069.0,5648.0 10070.0,5658.0 10070.0,5823.0 C 10070.0,5978.0 10072.0,5998.0 10090.0,6025.0 C 10117.0,6066.0 10115.0,6079.0 10078.0,6117.0 C 10050.0,6146.0 10044.0,6161.0 10035.0,6233.0 C 10025.0,6306.0 10025.0,6319.0 10042.0,6352.0 L 10060.0,6390.0 L 10030.0,6449.0 C 9984.0,6541.0 9925.0,6695.0 9884.0,6829.0 C 9843.0,6966.0 9843.0,6966.0 9918.0,7012.0 C 9950.0,7032.0 9952.0,7035.0 9946.0,7076.0 C 9943.0,7099.0 9927.0,7140.0 9910.0,7166.0 C 9894.0,7192.0 9880.0,7226.0 9880.0,7241.0 C 9880.0,7255.0 9877.0,7281.0 9874.0,7297.0 L 9868.0,7327.0 L 9829.0,7306.0 C 9783.0,7282.0 9792.0,7274.0 9728.0,7393.0 C 9696.0,7450.0 9690.0,7471.0 9690.0,7520.0 C 9690.0,7582.0 9647.0,7719.0 9626.0,7725.0 C 9620.0,7727.0 9604.0,7731.0 9590.0,7734.0 C 9572.0,7738.0 9558.0,7753.0 9542.0,7786.0 L 9519.0,7833.0 L 9489.0,7804.0 L 9458.0,7775.0 L 9409.0,7830.0 C 9381.0,7860.0 9352.0,7899.0 9343.0,7915.0 C 9320.0,7957.0 9300.0,8038.0 9300.0,8087.0 C 9300.0,8113.0 9287.0,8158.0 9264.0,8208.0 L 9228.0,8287.0 L 9174.0,8299.0 C 9126.0,8310.0 9117.0,8316.0 9100.0,8350.0 C 9089.0,8372.0 9080.0,8400.0 9080.0,8414.0 C 9080.0,8428.0 9071.0,8462.0 9060.0,8490.0 C 9049.0,8518.0 9040.0,8559.0 9040.0,8582.0 C 9040.0,8610.0 9029.0,8642.0 9005.0,8685.0 L 8971.0,8747.0 L 8987.0,8798.0 C 9003.0,8846.0 9003.0,8852.0 8987.0,8884.0 L 8971.0,8919.0 L 9003.0,8922.0 C 9034.0,8925.0 9035.0,8927.0 9041.0,8980.0 C 9045.0,9010.0 9054.0,9060.0 9061.0,9090.0 C 9077.0,9153.0 9075.0,9229.0 9057.0,9235.0 C 9050.0,9237.0 9033.0,9241.0 9018.0,9244.0 C 8992.0,9250.0 8990.0,9254.0 8990.0,9300.0 L 8990.0,9350.0 L 8919.0,9350.0 C 8864.0,9350.0 8840.0,9345.0 8814.0,9329.0 L 8780.0,9308.0 L 8769.0,9336.0 C 8764.0,9352.0 8754.0,9387.0 8748.0,9415.0 C 8742.0,9442.0 8737.0,9466.0 8736.0,9467.0 C 8735.0,9469.0 8699.0,9463.0 8656.0,9455.0 C 8554.0,9435.0 8552.0,9436.0 8580.0,9465.0 C 8593.0,9479.0 8602.0,9491.0 8599.0,9493.0 C 8597.0,9494.0 8579.0,9503.0 8560.0,9511.0 L 8525.0,9527.0 L 8583.0,9544.0 C 8614.0,9553.0 8640.0,9563.0 8640.0,9566.0 C 8640.0,9568.0 8634.0,9586.0 8626.0,9605.0 C 8613.0,9635.0 8607.0,9639.0 8568.0,9642.0 C 8544.0,9644.0 8501.0,9637.0 8471.0,9628.0 L 8418.0,9610.0 L 8425.0,9690.0 C 8432.0,9769.0 8432.0,9770.0 8400.0,9810.0 L 8367.0,9851.0 L 8389.0,9874.0 C 8400.0,9886.0 8413.0,9916.0 8416.0,9941.0 C 8422.0,9983.0 8421.0,9986.0 8380.0,10019.0 C 8346.0,10046.0 8339.0,10057.0 8344.0,10076.0 C 8347.0,10089.0 8353.0,10110.0 8356.0,10123.0 C 8360.0,10143.0 8352.0,10154.0 8306.0,10189.0 C 8275.0,10212.0 8244.0,10232.0 8238.0,10235.0 C 8231.0,10237.0 8029.0,10053.0 7790.0,9825.0" fill="pink"/>
	<path d="M 6850.0,3163.0 C 6835.0,3159.0 6765.0,3071.0 6772.0,3065.0 C 6773.0,3063.0 6798.0,3051.0 6825.0,3038.0 C 6865.0,3020.0 6876.0,3009.0 6878.0,2987.0 C 6881.0,2963.0 6878.0,2960.0 6853.0,2960.0 C 6807.0,2960.0 6793.0,2944.0 6828.0,2932.0 C 6844.0,2927.0 6874.0,2901.0 6895.0,2876.0 C 6928.0,2837.0 6935.0,2833.0 6945.0,2846.0 C 6954.0,2860.0 6958.0,2856.0 6968.0,2823.0 C 6979.0,2787.0 6982.0,2784.0 7010.0,2788.0 C 7045.0,2793.0 7045.0,2792.0 7024.0,2831.0 C 7015.0,2850.0 7011.0,2872.0 7015.0,2891.0 C 7021.0,2916.0 7019.0,2920.0 7001.0,2920.0 C 6972.0,2920.0 6973.0,2960.0 7004.0,2989.0 C 7020.0,3005.0 7034.0,3009.0 7052.0,3005.0 C 7082.0,2997.0 7109.0,3025.0 7116.0,3072.0 C 7121.0,3101.0 7118.0,3109.0 7096.0,3123.0 C 7071.0,3140.0 7070.0,3140.0 7056.0,3111.0 C 7034.0,3070.0 7015.0,3067.0 6979.0,3099.0 C 6952.0,3124.0 6950.0,3131.0 6959.0,3149.0 C 6970.0,3169.0 6969.0,3170.0 6918.0,3169.0 C 6889.0,3168.0 6858.0,3166.0 6850.0,3163.0" fill="pink"/>
	<path d="M 7437.0,2877.0 L 7408.0,2865.0 L 7434.0,2837.0 C 7466.0,2803.0 7505.0,2799.0 7496.0,2833.0 C 7493.0,2845.0 7490.0,2863.0 7490.0,2873.0 C 7490.0,2893.0 7476.0,2894.0 7437.0,2877.0" fill="pink"/>
	<path d="M 7822.0,2812.0 C 7813.0,2806.0 7811.0,2794.0 7816.0,2777.0 C 7822.0,2751.0 7824.0,2750.0 7901.0,2750.0 C 7970.0,2750.0 7981.0,2752.0 7994.0,2772.0 C 8009.0,2793.0 8009.0,2795.0 7989.0,2802.0 C 7955.0,2815.0 7836.0,2822.0 7822.0,2812.0" fill="pink"/>
	<path d="M 6012.0,2668.0 C 5987.0,2659.0 5978.0,2649.0 5970.0,2620.0 C 5959.0,2578.0 5916.0,2515.0 5856.0,2451.0 L 5815.0,2408.0 L 5863.0,2415.0 C 5900.0,2420.0 5917.0,2418.0 5937.0,2404.0 C 5962.0,2388.0 5965.0,2388.0 6006.0,2410.0 C 6029.0,2423.0 6055.0,2446.0 6064.0,2462.0 C 6083.0,2493.0 6080.0,2494.0 6032.0,2481.0 C 6004.0,2472.0 6000.0,2474.0 6000.0,2491.0 C 6000.0,2512.0 6027.0,2556.0 6069.0,2602.0 C 6092.0,2628.0 6092.0,2630.0 6076.0,2655.0 C 6058.0,2683.0 6059.0,2682.0 6012.0,2668.0" fill="pink"/>
	<path d="M 4707.0,2192.0 C 4684.0,2167.0 4685.0,2164.0 4729.0,2140.0 C 4750.0,2128.0 4774.0,2104.0 4781.0,2087.0 C 4793.0,2062.0 4807.0,2052.0 4864.0,2033.0 C 4903.0,2020.0 4944.0,2010.0 4957.0,2010.0 C 4985.0,2010.0 5010.0,1966.0 5010.0,1915.0 C 5010.0,1886.0 5007.0,1880.0 4988.0,1880.0 C 4966.0,1880.0 4880.0,1799.0 4845.0,1747.0 C 4829.0,1722.0 4829.0,1719.0 4850.0,1685.0 L 4872.0,1650.0 L 4916.0,1695.0 C 4940.0,1720.0 4960.0,1750.0 4960.0,1761.0 C 4960.0,1780.0 4964.0,1781.0 4998.0,1775.0 C 5018.0,1771.0 5038.0,1762.0 5042.0,1755.0 C 5046.0,1748.0 5060.0,1745.0 5074.0,1747.0 C 5091.0,1751.0 5100.0,1761.0 5104.0,1782.0 C 5114.0,1832.0 5111.0,1875.0 5095.0,1913.0 C 5087.0,1933.0 5080.0,1954.0 5080.0,1959.0 C 5080.0,1964.0 5102.0,1981.0 5130.0,1997.0 C 5179.0,2025.0 5179.0,2026.0 5164.0,2049.0 C 5150.0,2069.0 5142.0,2071.0 5106.0,2065.0 C 5043.0,2054.0 4911.0,2055.0 4899.0,2067.0 C 4893.0,2073.0 4886.0,2095.0 4883.0,2117.0 C 4878.0,2153.0 4881.0,2158.0 4910.0,2177.0 L 4941.0,2197.0 L 4873.0,2203.0 C 4759.0,2214.0 4725.0,2212.0 4707.0,2192.0" fill="pink"/>
</svg>
