<?xml version="1.0" ?>
<svg xmlns="http://www.w3.org/2000/svg" xmlns:ev="http://www.w3.org/2001/xml-events" xmlns:xlink="http://www.w3.org/1999/xlink" baseProfile="full" height="387px" version="1.1" viewBox="-1026.4359299616597 1155.2538127206428 12295.310814978604 7929.831095688818" width="600px">
	<defs/>
	<path d="M 9767.0,8370.0 L 9712.0,8320.0 L 9687.0,8340.0 C 9662.0,8360.0 9661.0,8360.0 9651.0,8342.0 C 9625.0,8294.0 9608.0,8145.0 9615.0,8033.0 C 9620.0,7941.0 9619.0,7916.0 9605.0,7891.0 C 9595.0,7870.0 9591.0,7848.0 9596.0,7826.0 C 9605.0,7777.0 9593.0,7750.0 9556.0,7735.0 C 9519.0,7719.0 9504.0,7704.0 9499.0,7676.0 C 9494.0,7652.0 9402.0,7611.0 9141.0,7516.0 C 9040.0,7479.0 8946.0,7442.0 8933.0,7433.0 C 8901.0,7412.0 8862.0,7344.0 8840.0,7269.0 C 8829.0,7235.0 8807.0,7190.0 8790.0,7169.0 C 8774.0,7148.0 8760.0,7129.0 8760.0,7126.0 C 8760.0,7123.0 8778.0,7117.0 8800.0,7114.0 C 8843.0,7107.0 8851.0,7088.0 8828.0,7050.0 C 8818.0,7034.0 8819.0,7027.0 8839.0,7007.0 L 8861.0,6982.0 L 8828.0,6951.0 C 8810.0,6933.0 8753.0,6898.0 8703.0,6874.0 C 8630.0,6838.0 8598.0,6828.0 8552.0,6826.0 C 8509.0,6824.0 8478.0,6815.0 8432.0,6790.0 C 8395.0,6771.0 8373.0,6753.0 8377.0,6746.0 C 8380.0,6740.0 8396.0,6718.0 8412.0,6698.0 C 8433.0,6671.0 8439.0,6654.0 8435.0,6639.0 C 8424.0,6606.0 8231.0,6411.0 8170.0,6372.0 C 8140.0,6352.0 8084.0,6307.0 8045.0,6270.0 C 7975.0,6203.0 7859.0,6127.0 7807.0,6114.0 C 7789.0,6110.0 7773.0,6113.0 7762.0,6122.0 C 7753.0,6131.0 7727.0,6140.0 7706.0,6143.0 C 7684.0,6147.0 7660.0,6156.0 7652.0,6164.0 C 7639.0,6177.0 7639.0,6182.0 7654.0,6205.0 C 7665.0,6222.0 7675.0,6265.0 7680.0,6318.0 C 7690.0,6425.0 7695.0,6438.0 7729.0,6447.0 C 7784.0,6460.0 7783.0,6497.0 7725.0,6615.0 C 7648.0,6771.0 7629.0,6780.0 7563.0,6689.0 C 7509.0,6613.0 7479.0,6603.0 7465.0,6657.0 C 7461.0,6676.0 7465.0,6692.0 7481.0,6713.0 C 7506.0,6747.0 7530.0,6829.0 7530.0,6881.0 C 7530.0,6902.0 7522.0,6928.0 7510.0,6943.0 C 7499.0,6957.0 7490.0,6981.0 7490.0,6997.0 C 7490.0,7025.0 7487.0,7027.0 7398.0,7054.0 C 7347.0,7069.0 7292.0,7086.0 7276.0,7090.0 C 7243.0,7101.0 7216.0,7090.0 7199.0,7058.0 C 7190.0,7041.0 7191.0,7035.0 7205.0,7027.0 C 7222.0,7018.0 7222.0,7016.0 7202.0,7001.0 C 7185.0,6989.0 7179.0,6972.0 7177.0,6928.0 C 7175.0,6896.0 7170.0,6867.0 7166.0,6863.0 C 7156.0,6853.0 7127.0,6873.0 7114.0,6898.0 C 7104.0,6918.0 7101.0,6917.0 7065.0,6869.0 L 7026.0,6818.0 L 7026.0,6680.0 C 7025.0,6555.0 7027.0,6539.0 7046.0,6513.0 C 7106.0,6432.0 7121.0,6348.0 7096.0,6230.0 C 7073.0,6123.0 7035.0,6052.0 6986.0,6027.0 C 6951.0,6009.0 6945.0,6008.0 6921.0,6021.0 C 6874.0,6048.0 6838.0,6121.0 6830.0,6208.0 C 6826.0,6250.0 6813.0,6318.0 6800.0,6358.0 C 6781.0,6420.0 6779.0,6438.0 6788.0,6473.0 C 6794.0,6496.0 6801.0,6558.0 6804.0,6610.0 C 6807.0,6678.0 6816.0,6725.0 6834.0,6776.0 C 6848.0,6815.0 6860.0,6853.0 6860.0,6860.0 C 6860.0,6883.0 6831.0,6850.0 6799.0,6789.0 C 6766.0,6728.0 6734.0,6692.0 6723.0,6704.0 C 6707.0,6719.0 6751.0,6878.0 6797.0,6970.0 C 6823.0,7022.0 6845.0,7067.0 6847.0,7069.0 C 6848.0,7071.0 6856.0,7067.0 6864.0,7061.0 C 6874.0,7053.0 6880.0,7052.0 6885.0,7060.0 C 6894.0,7074.0 6930.0,7073.0 6930.0,7058.0 C 6930.0,7051.0 6940.0,7057.0 6953.0,7071.0 C 6965.0,7085.0 7004.0,7119.0 7039.0,7145.0 C 7109.0,7197.0 7105.0,7196.0 7218.0,7164.0 C 7237.0,7159.0 7240.0,7161.0 7240.0,7185.0 C 7240.0,7208.0 7243.0,7210.0 7263.0,7204.0 C 7326.0,7183.0 7347.0,7203.0 7296.0,7238.0 C 7266.0,7259.0 7259.0,7260.0 7218.0,7249.0 C 7180.0,7238.0 7170.0,7239.0 7147.0,7255.0 C 7128.0,7267.0 7120.0,7281.0 7120.0,7300.0 L 7120.0,7328.0 L 7039.0,7297.0 C 6990.0,7278.0 6940.0,7250.0 6914.0,7227.0 C 6873.0,7191.0 6866.0,7188.0 6827.0,7194.0 C 6804.0,7197.0 6748.0,7219.0 6702.0,7242.0 C 6632.0,7278.0 6616.0,7282.0 6600.0,7272.0 C 6569.0,7253.0 6560.0,7258.0 6560.0,7292.0 C 6560.0,7316.0 6570.0,7333.0 6607.0,7369.0 C 6634.0,7394.0 6649.0,7415.0 6642.0,7418.0 C 6610.0,7428.0 6551.0,7392.0 6459.0,7304.0 C 6405.0,7252.0 6356.0,7210.0 6349.0,7210.0 C 6342.0,7210.0 6321.0,7196.0 6303.0,7178.0 C 6274.0,7150.0 6262.0,7145.0 6205.0,7142.0 L 6140.0,7138.0 L 6140.0,7169.0 C 6140.0,7206.0 6136.0,7206.0 6068.0,7180.0 C 6018.0,7161.0 5940.0,7153.0 5940.0,7166.0 C 5940.0,7169.0 5963.0,7198.0 5992.0,7229.0 C 6020.0,7260.0 6058.0,7308.0 6076.0,7335.0 C 6120.0,7403.0 6153.0,7432.0 6235.0,7473.0 L 6305.0,7508.0 L 6258.0,7515.0 C 6231.0,7519.0 6195.0,7519.0 6176.0,7516.0 C 6157.0,7512.0 6131.0,7515.0 6116.0,7521.0 C 6095.0,7531.0 6083.0,7530.0 6053.0,7516.0 C 6016.0,7500.0 6014.0,7500.0 5945.0,7529.0 C 5901.0,7548.0 5871.0,7555.0 5865.0,7549.0 C 5849.0,7533.0 5841.0,7539.0 5825.0,7576.0 C 5814.0,7604.0 5806.0,7611.0 5793.0,7606.0 C 5783.0,7602.0 5744.0,7595.0 5705.0,7590.0 C 5646.0,7583.0 5632.0,7584.0 5617.0,7598.0 C 5605.0,7608.0 5575.0,7616.0 5534.0,7618.0 L 5469.0,7622.0 L 5440.0,7674.0 C 5390.0,7762.0 5394.0,7759.0 5377.0,7717.0 C 5367.0,7694.0 5351.0,7676.0 5335.0,7670.0 C 5261.0,7642.0 4213.0,7627.0 3865.0,7649.0 C 2867.0,7711.0 1898.0,7892.0 998.0,8183.0 C 922.0,8208.0 860.0,8226.0 860.0,8223.0 C 860.0,8221.0 871.0,8202.0 885.0,8182.0 C 914.0,8139.0 915.0,8132.0 894.0,8109.0 C 879.0,8092.0 879.0,8087.0 894.0,8044.0 C 916.0,7980.0 914.0,7961.0 885.0,7934.0 C 868.0,7918.0 860.0,7900.0 860.0,7877.0 C 860.0,7859.0 854.0,7837.0 848.0,7828.0 C 833.0,7810.0 782.0,7776.0 758.0,7767.0 C 735.0,7759.0 700.0,7795.0 700.0,7826.0 C 700.0,7846.0 706.0,7849.0 741.0,7852.0 C 797.0,7856.0 815.0,7883.0 781.0,7911.0 L 757.0,7931.0 L 780.0,7955.0 C 803.0,7979.0 803.0,7980.0 784.0,8001.0 C 774.0,8012.0 724.0,8041.0 674.0,8065.0 C 624.0,8089.0 570.0,8120.0 553.0,8134.0 L 522.0,8160.0 L 511.0,8132.0 C 502.0,8111.0 502.0,8082.0 509.0,8019.0 C 515.0,7973.0 520.0,7910.0 520.0,7879.0 C 520.0,7842.0 525.0,7820.0 533.0,7817.0 C 541.0,7814.0 539.0,7808.0 525.0,7797.0 C 505.0,7782.0 505.0,7781.0 524.0,7750.0 C 542.0,7718.0 542.0,7718.0 521.0,7689.0 C 494.0,7653.0 495.0,7646.0 525.0,7626.0 C 560.0,7603.0 556.0,7592.0 514.0,7588.0 C 477.0,7585.0 477.0,7584.0 455.0,7510.0 C 443.0,7469.0 420.0,7408.0 403.0,7375.0 C 386.0,7342.0 358.0,7278.0 341.0,7233.0 C 323.0,7189.0 287.0,7115.0 259.0,7069.0 C 152.0,6891.0 143.0,6863.0 120.0,6651.0 C 116.0,6610.0 115.0,6560.0 117.0,6539.0 C 126.0,6478.0 92.0,6375.0 47.0,6324.0 C -7.0,6262.0 -11.0,6227.0 30.0,6138.0 L 63.0,6066.0 L 45.0,5955.0 C 24.0,5827.0 28.0,5795.0 72.0,5713.0 C 100.0,5661.0 102.0,5651.0 92.0,5616.0 C 79.0,5567.0 91.0,5534.0 125.0,5518.0 C 145.0,5509.0 153.0,5510.0 169.0,5524.0 C 186.0,5540.0 188.0,5540.0 194.0,5518.0 C 197.0,5505.0 200.0,5480.0 200.0,5461.0 C 200.0,5436.0 196.0,5429.0 186.0,5433.0 C 175.0,5438.0 169.0,5428.0 164.0,5395.0 C 154.0,5323.0 165.0,5288.0 215.0,5241.0 C 240.0,5218.0 260.0,5196.0 260.0,5192.0 C 260.0,5188.0 249.0,5167.0 235.0,5146.0 L 211.0,5107.0 L 239.0,5051.0 C 255.0,5020.0 271.0,4976.0 275.0,4953.0 C 278.0,4930.0 294.0,4893.0 310.0,4872.0 C 326.0,4850.0 350.0,4803.0 365.0,4766.0 C 388.0,4708.0 390.0,4692.0 384.0,4631.0 L 378.0,4561.0 L 411.0,4541.0 C 430.0,4529.0 471.0,4513.0 503.0,4504.0 C 553.0,4489.0 568.0,4479.0 622.0,4418.0 C 658.0,4377.0 703.0,4339.0 731.0,4325.0 C 763.0,4308.0 780.0,4293.0 782.0,4278.0 C 784.0,4266.0 801.0,4246.0 820.0,4233.0 C 890.0,4189.0 906.0,4171.0 939.0,4105.0 C 960.0,4061.0 972.0,4020.0 973.0,3989.0 C 974.0,3961.0 980.0,3938.0 988.0,3936.0 C 994.0,3933.0 1000.0,3920.0 1000.0,3906.0 C 1000.0,3877.0 983.0,3882.0 1265.0,3835.0 C 1414.0,3810.0 1477.0,3796.0 1483.0,3785.0 C 1494.0,3765.0 1561.0,3722.0 1794.0,3588.0 C 1899.0,3527.0 2014.0,3456.0 2050.0,3430.0 C 2086.0,3404.0 2133.0,3373.0 2155.0,3362.0 C 2207.0,3337.0 2350.0,3304.0 2470.0,3291.0 C 2647.0,3272.0 2840.0,3257.0 2846.0,3262.0 C 2849.0,3265.0 2852.0,3292.0 2853.0,3320.0 L 2855.0,3373.0 L 3005.0,3366.0 C 3088.0,3363.0 3171.0,3356.0 3191.0,3351.0 C 3235.0,3341.0 3340.0,3241.0 3355.0,3196.0 C 3362.0,3176.0 3384.0,3153.0 3422.0,3128.0 C 3453.0,3107.0 3490.0,3075.0 3505.0,3056.0 C 3537.0,3013.0 3580.0,2909.0 3580.0,2872.0 C 3580.0,2839.0 3620.0,2780.0 3673.0,2733.0 C 3723.0,2689.0 3839.0,2622.0 3878.0,2614.0 C 3908.0,2608.0 3915.0,2612.0 3978.0,2678.0 C 4019.0,2722.0 4064.0,2757.0 4092.0,2770.0 C 4135.0,2789.0 4146.0,2790.0 4207.0,2779.0 C 4271.0,2769.0 4278.0,2764.0 4331.0,2710.0 C 4361.0,2678.0 4431.0,2583.0 4485.0,2499.0 C 4543.0,2409.0 4605.0,2324.0 4636.0,2295.0 C 4694.0,2240.0 4711.0,2205.0 4759.0,2053.0 C 4795.0,1936.0 4803.0,1928.0 4900.0,1907.0 C 4936.0,1899.0 4979.0,1885.0 4995.0,1876.0 C 5012.0,1867.0 5041.0,1860.0 5061.0,1860.0 C 5082.0,1860.0 5108.0,1852.0 5123.0,1840.0 C 5149.0,1819.0 5186.0,1814.0 5208.0,1829.0 C 5219.0,1836.0 5219.0,1838.0 5206.0,1843.0 C 5197.0,1847.0 5190.0,1861.0 5190.0,1876.0 C 5190.0,1891.0 5178.0,1938.0 5163.0,1981.0 C 5139.0,2054.0 5138.0,2063.0 5150.0,2101.0 C 5163.0,2140.0 5163.0,2143.0 5140.0,2160.0 L 5116.0,2178.0 L 5148.0,2208.0 C 5184.0,2242.0 5186.0,2247.0 5165.0,2277.0 C 5151.0,2297.0 5151.0,2300.0 5170.0,2313.0 C 5181.0,2320.0 5197.0,2343.0 5205.0,2364.0 C 5214.0,2384.0 5225.0,2398.0 5231.0,2394.0 C 5245.0,2385.0 5279.0,2418.0 5296.0,2458.0 C 5306.0,2484.0 5314.0,2490.0 5328.0,2486.0 C 5361.0,2475.0 5380.0,2489.0 5374.0,2518.0 L 5369.0,2545.0 L 5442.0,2546.0 C 5488.0,2546.0 5526.0,2552.0 5546.0,2563.0 C 5620.0,2602.0 5710.0,2732.0 5689.0,2771.0 C 5677.0,2795.0 5683.0,2806.0 5720.0,2825.0 C 5748.0,2840.0 5749.0,2839.0 5760.0,2805.0 C 5766.0,2786.0 5776.0,2768.0 5781.0,2765.0 C 5786.0,2761.0 5823.0,2775.0 5862.0,2795.0 C 5902.0,2814.0 5967.0,2837.0 6005.0,2845.0 C 6071.0,2858.0 6080.0,2858.0 6140.0,2840.0 C 6176.0,2829.0 6223.0,2820.0 6245.0,2820.0 C 6279.0,2820.0 6289.0,2825.0 6313.0,2855.0 C 6345.0,2895.0 6361.0,2897.0 6425.0,2870.0 C 6451.0,2859.0 6474.0,2850.0 6476.0,2850.0 C 6479.0,2850.0 6469.0,2872.0 6453.0,2899.0 C 6422.0,2955.0 6425.0,2965.0 6464.0,2950.0 C 6498.0,2937.0 6520.0,2887.0 6520.0,2820.0 C 6520.0,2783.0 6525.0,2765.0 6540.0,2750.0 C 6565.0,2725.0 6577.0,2725.0 6615.0,2750.0 C 6637.0,2764.0 6654.0,2768.0 6686.0,2763.0 C 6721.0,2758.0 6730.0,2761.0 6744.0,2781.0 C 6767.0,2814.0 6764.0,2827.0 6729.0,2859.0 C 6706.0,2881.0 6700.0,2893.0 6705.0,2909.0 C 6715.0,2940.0 6738.0,2935.0 6779.0,2891.0 C 6799.0,2870.0 6838.0,2840.0 6867.0,2826.0 C 6896.0,2812.0 6923.0,2792.0 6929.0,2783.0 C 6938.0,2766.0 6940.0,2766.0 6959.0,2784.0 C 7000.0,2821.0 6982.0,2853.0 6908.0,2875.0 C 6873.0,2885.0 6864.0,2892.0 6862.0,2914.0 C 6858.0,2948.0 6875.0,2970.0 6906.0,2970.0 C 6938.0,2970.0 6937.0,2987.0 6904.0,3002.0 C 6884.0,3011.0 6874.0,3011.0 6859.0,3002.0 C 6826.0,2981.0 6800.0,2987.0 6800.0,3015.0 C 6800.0,3043.0 6788.0,3047.0 6770.0,3025.0 C 6749.0,2999.0 6692.0,3006.0 6659.0,3039.0 C 6643.0,3055.0 6630.0,3072.0 6630.0,3077.0 C 6630.0,3081.0 6649.0,3093.0 6673.0,3103.0 C 6716.0,3120.0 6717.0,3120.0 6782.0,3096.0 L 6847.0,3071.0 L 6905.0,3111.0 C 6954.0,3144.0 6970.0,3150.0 7017.0,3150.0 C 7078.0,3150.0 7126.0,3167.0 7154.0,3199.0 C 7178.0,3226.0 7184.0,3226.0 7198.0,3195.0 C 7208.0,3172.0 7215.0,3170.0 7270.0,3170.0 L 7330.0,3170.0 L 7330.0,3200.0 C 7330.0,3228.0 7332.0,3230.0 7370.0,3230.0 C 7392.0,3230.0 7430.0,3235.0 7455.0,3242.0 C 7493.0,3252.0 7514.0,3252.0 7585.0,3237.0 C 7665.0,3221.0 7674.0,3216.0 7727.0,3165.0 L 7783.0,3111.0 L 7852.0,3146.0 C 7905.0,3173.0 7924.0,3188.0 7932.0,3210.0 C 7942.0,3239.0 7944.0,3240.0 8009.0,3240.0 C 8081.0,3240.0 8092.0,3233.0 8133.0,3168.0 C 8143.0,3152.0 8174.0,3128.0 8203.0,3114.0 C 8266.0,3082.0 8316.0,3045.0 8329.0,3021.0 C 8335.0,3011.0 8344.0,2963.0 8349.0,2914.0 C 8370.0,2742.0 8371.0,2734.0 8381.0,2753.0 C 8394.0,2776.0 8427.0,2774.0 8435.0,2750.0 C 8438.0,2739.0 8436.0,2715.0 8429.0,2697.0 C 8419.0,2668.0 8420.0,2659.0 8439.0,2622.0 C 8473.0,2555.0 8495.0,2538.0 8535.0,2546.0 C 8563.0,2551.0 8570.0,2549.0 8570.0,2537.0 C 8570.0,2528.0 8585.0,2509.0 8604.0,2495.0 C 8625.0,2479.0 8637.0,2463.0 8633.0,2454.0 C 8630.0,2446.0 8639.0,2428.0 8653.0,2415.0 C 8666.0,2401.0 8680.0,2377.0 8683.0,2361.0 C 8687.0,2342.0 8697.0,2329.0 8712.0,2325.0 C 8724.0,2321.0 8757.0,2296.0 8784.0,2270.0 C 8812.0,2244.0 8845.0,2217.0 8858.0,2211.0 C 8875.0,2202.0 8879.0,2193.0 8875.0,2179.0 C 8869.0,2160.0 8870.0,2159.0 8892.0,2172.0 C 8914.0,2184.0 8920.0,2186.0 8947.0,2189.0 C 8988.0,2193.0 9009.0,2339.0 8999.0,2555.0 C 8996.0,2616.0 8990.0,2642.0 8974.0,2665.0 C 8962.0,2682.0 8950.0,2709.0 8946.0,2725.0 C 8942.0,2742.0 8901.0,2817.0 8854.0,2893.0 C 8808.0,2969.0 8770.0,3033.0 8770.0,3036.0 C 8770.0,3038.0 8779.0,3040.0 8790.0,3040.0 C 8807.0,3040.0 8799.0,3054.0 8746.0,3124.0 C 8669.0,3225.0 8613.0,3322.0 8590.0,3398.0 C 8575.0,3445.0 8570.0,3452.0 8563.0,3435.0 C 8559.0,3424.0 8555.0,3391.0 8555.0,3363.0 C 8555.0,3334.0 8553.0,3310.0 8550.0,3310.0 C 8541.0,3310.0 8520.0,3396.0 8520.0,3429.0 C 8520.0,3445.0 8527.0,3463.0 8535.0,3470.0 C 8553.0,3485.0 8554.0,3539.0 8539.0,3594.0 C 8526.0,3643.0 8545.0,3788.0 8572.0,3842.0 C 8582.0,3863.0 8590.0,3893.0 8590.0,3909.0 C 8590.0,3925.0 8595.0,3942.0 8600.0,3945.0 C 8606.0,3949.0 8609.0,3964.0 8608.0,3978.0 C 8606.0,3994.0 8610.0,4004.0 8616.0,4003.0 C 8623.0,4002.0 8636.0,4010.0 8645.0,4020.0 C 8655.0,4031.0 8667.0,4040.0 8672.0,4040.0 C 8691.0,4040.0 8778.0,4123.0 8784.0,4146.0 C 8788.0,4159.0 8795.0,4170.0 8800.0,4170.0 C 8814.0,4170.0 8860.0,4242.0 8860.0,4264.0 C 8860.0,4275.0 8869.0,4293.0 8880.0,4305.0 C 8892.0,4317.0 8917.0,4360.0 8938.0,4401.0 C 8968.0,4462.0 8984.0,4481.0 9025.0,4507.0 C 9101.0,4554.0 9130.0,4585.0 9130.0,4616.0 C 9130.0,4648.0 9171.0,4722.0 9213.0,4767.0 C 9230.0,4785.0 9265.0,4807.0 9292.0,4816.0 C 9342.0,4832.0 9377.0,4867.0 9361.0,4883.0 C 9355.0,4889.0 9339.0,4882.0 9319.0,4866.0 C 9282.0,4835.0 9245.0,4834.0 9245.0,4865.0 C 9245.0,4879.0 9253.0,4886.0 9273.0,4888.0 C 9295.0,4891.0 9300.0,4896.0 9300.0,4920.0 C 9300.0,4943.0 9294.0,4950.0 9268.0,4960.0 C 9237.0,4971.0 9236.0,4972.0 9257.0,4980.0 C 9269.0,4985.0 9284.0,4998.0 9290.0,5009.0 C 9302.0,5033.0 9321.0,5035.0 9351.0,5018.0 C 9369.0,5007.0 9374.0,5008.0 9395.0,5033.0 C 9428.0,5070.0 9444.0,5133.0 9429.0,5162.0 C 9418.0,5183.0 9417.0,5183.0 9405.0,5153.0 C 9392.0,5123.0 9392.0,5123.0 9342.0,5133.0 C 9300.0,5142.0 9288.0,5141.0 9266.0,5127.0 C 9252.0,5118.0 9239.0,5110.0 9236.0,5110.0 C 9228.0,5110.0 9208.0,5211.0 9214.0,5218.0 C 9218.0,5221.0 9234.0,5216.0 9250.0,5207.0 C 9279.0,5190.0 9279.0,5190.0 9324.0,5223.0 L 9368.0,5257.0 L 9349.0,5286.0 C 9337.0,5305.0 9332.0,5324.0 9335.0,5341.0 C 9343.0,5377.0 9309.0,5398.0 9245.0,5397.0 C 9217.0,5397.0 9184.0,5402.0 9171.0,5409.0 C 9149.0,5421.0 9148.0,5423.0 9164.0,5432.0 C 9174.0,5438.0 9193.0,5440.0 9206.0,5437.0 C 9230.0,5433.0 9229.0,5434.0 9198.0,5461.0 L 9165.0,5490.0 L 9188.0,5507.0 L 9211.0,5523.0 L 9159.0,5558.0 C 9117.0,5586.0 9110.0,5594.0 9123.0,5601.0 C 9132.0,5606.0 9149.0,5606.0 9164.0,5600.0 C 9205.0,5585.0 9206.0,5608.0 9166.0,5649.0 C 9127.0,5689.0 9122.0,5700.0 9144.0,5700.0 C 9170.0,5700.0 9172.0,5720.0 9147.0,5731.0 C 9129.0,5739.0 9114.0,5764.0 9091.0,5822.0 C 9074.0,5865.0 9060.0,5911.0 9060.0,5923.0 C 9060.0,5950.0 9103.0,6016.0 9130.0,6030.0 C 9156.0,6044.0 9168.0,6019.0 9152.0,5987.0 C 9134.0,5949.0 9142.0,5884.0 9169.0,5857.0 C 9181.0,5843.0 9190.0,5827.0 9186.0,5822.0 C 9183.0,5817.0 9198.0,5796.0 9220.0,5775.0 C 9241.0,5754.0 9261.0,5727.0 9264.0,5714.0 C 9269.0,5695.0 9277.0,5690.0 9300.0,5690.0 C 9335.0,5690.0 9338.0,5677.0 9314.0,5626.0 C 9298.0,5593.0 9302.0,5547.0 9319.0,5566.0 C 9324.0,5571.0 9337.0,5633.0 9349.0,5703.0 C 9376.0,5865.0 9371.0,5893.0 9301.0,5943.0 C 9263.0,5971.0 9251.0,5986.0 9246.0,6015.0 C 9242.0,6035.0 9240.0,6053.0 9242.0,6055.0 C 9244.0,6057.0 9268.0,6053.0 9296.0,6047.0 C 9352.0,6034.0 9379.0,6016.0 9381.0,5991.0 C 9383.0,5956.0 9470.0,6293.0 9470.0,6336.0 C 9470.0,6345.0 9458.0,6350.0 9435.0,6350.0 L 9400.0,6350.0 L 9400.0,6399.0 C 9400.0,6441.0 9407.0,6459.0 9449.0,6522.0 C 9516.0,6621.0 9549.0,6650.0 9660.0,6710.0 C 9772.0,6771.0 9806.0,6801.0 9822.0,6852.0 C 9835.0,6895.0 9837.0,6896.0 9861.0,6874.0 C 9877.0,6860.0 9881.0,6862.0 9911.0,6900.0 C 9933.0,6927.0 9947.0,6937.0 9954.0,6930.0 C 9971.0,6913.0 9978.0,6918.0 10019.0,6970.0 C 10059.0,7020.0 10063.0,7043.0 10033.0,7054.0 C 10011.0,7063.0 10005.0,7053.0 10019.0,7036.0 C 10037.0,7014.0 10024.0,6984.0 9990.0,6970.0 C 9949.0,6953.0 9918.0,6963.0 9896.0,7001.0 C 9886.0,7018.0 9862.0,7038.0 9844.0,7046.0 C 9813.0,7059.0 9810.0,7064.0 9810.0,7105.0 C 9810.0,7129.0 9815.0,7152.0 9821.0,7156.0 C 9829.0,7160.0 9823.0,7168.0 9806.0,7177.0 C 9774.0,7194.0 9773.0,7215.0 9800.0,7328.0 C 9823.0,7423.0 9842.0,7465.0 9871.0,7483.0 C 9882.0,7489.0 9908.0,7518.0 9929.0,7545.0 C 9960.0,7586.0 9968.0,7606.0 9972.0,7653.0 C 9977.0,7720.0 10003.0,7759.0 10021.0,7728.0 C 10039.0,7695.0 10035.0,7691.0 10181.0,7848.0 C 10218.0,7887.0 10240.0,7919.0 10240.0,7934.0 C 10240.0,7968.0 10206.0,8005.0 10160.0,8024.0 C 10135.0,8034.0 10112.0,8052.0 10102.0,8071.0 C 10092.0,8089.0 10074.0,8103.0 10057.0,8107.0 C 10024.0,8114.0 10007.0,8144.0 9964.0,8269.0 C 9932.0,8364.0 9888.0,8420.0 9847.0,8420.0 C 9830.0,8420.0 9803.0,8403.0 9767.0,8370.0" fill="pink"/>
	<path d="M 9619.0,6582.0 C 9572.0,6562.0 9525.0,6538.0 9514.0,6530.0 C 9489.0,6511.0 9460.0,6470.0 9460.0,6453.0 C 9460.0,6429.0 9487.0,6440.0 9552.0,6488.0 C 9612.0,6531.0 9718.0,6621.0 9709.0,6620.0 C 9707.0,6619.0 9666.0,6602.0 9619.0,6582.0" fill="pink"/>
</svg>
