<?xml version="1.0" ?>
<svg xmlns="http://www.w3.org/2000/svg" xmlns:ev="http://www.w3.org/2001/xml-events" xmlns:xlink="http://www.w3.org/1999/xlink" baseProfile="full" height="389px" version="1.1" viewBox="-1027.147761683855 1132.5793031787316 12297.178974813549 7969.852779112449" width="600px">
	<defs/>
	<path d="M 1016.0,8289.0 C 621.0,8208.0 294.0,8138.0 290.0,8133.0 C 275.0,8115.0 227.0,7665.0 170.0,6999.0 C 138.0,6616.0 85.0,6061.0 54.0,5766.0 C 24.0,5470.0 0.0,5227.0 2.0,5225.0 C 6.0,5221.0 592.0,5130.0 612.0,5130.0 C 619.0,5130.0 646.0,5147.0 672.0,5169.0 L 719.0,5207.0 L 690.0,5235.0 C 654.0,5269.0 644.0,5298.0 627.0,5415.0 C 615.0,5496.0 616.0,5511.0 631.0,5563.0 C 649.0,5622.0 665.0,5647.0 747.0,5738.0 C 807.0,5804.0 868.0,5824.0 958.0,5809.0 C 997.0,5803.0 1038.0,5804.0 1088.0,5812.0 C 1152.0,5823.0 1161.0,5827.0 1156.0,5843.0 C 1154.0,5853.0 1158.0,5864.0 1166.0,5867.0 C 1187.0,5875.0 1220.0,5944.0 1220.0,5979.0 C 1220.0,6007.0 1257.0,6050.0 1281.0,6050.0 C 1286.0,6050.0 1318.0,6029.0 1353.0,6004.0 C 1397.0,5973.0 1423.0,5945.0 1438.0,5914.0 C 1458.0,5873.0 1462.0,5870.0 1500.0,5870.0 C 1522.0,5870.0 1540.0,5871.0 1540.0,5873.0 C 1540.0,5875.0 1524.0,5914.0 1504.0,5961.0 C 1476.0,6028.0 1458.0,6055.0 1414.0,6096.0 L 1359.0,6146.0 L 1400.0,6165.0 C 1439.0,6183.0 1444.0,6183.0 1512.0,6167.0 C 1551.0,6157.0 1584.0,6151.0 1585.0,6152.0 C 1586.0,6154.0 1596.0,6177.0 1607.0,6203.0 L 1627.0,6251.0 L 1701.0,6158.0 C 1741.0,6107.0 1779.0,6062.0 1785.0,6058.0 C 1790.0,6054.0 1821.0,6050.0 1852.0,6050.0 C 1906.0,6050.0 1911.0,6048.0 1936.0,6014.0 C 1952.0,5994.0 1966.0,5960.0 1969.0,5937.0 L 1975.0,5896.0 L 2142.0,5870.0 L 2308.0,5844.0 L 2365.0,5796.0 C 2409.0,5757.0 2420.0,5743.0 2416.0,5726.0 C 2413.0,5714.0 2410.0,5679.0 2410.0,5648.0 C 2410.0,5594.0 2408.0,5590.0 2383.0,5584.0 C 2358.0,5577.0 2359.0,5576.0 2411.0,5550.0 C 2456.0,5527.0 2530.0,5456.0 2530.0,5436.0 C 2530.0,5433.0 2509.0,5433.0 2484.0,5437.0 L 2439.0,5443.0 L 2441.0,5384.0 C 2442.0,5352.0 2437.0,5280.0 2430.0,5226.0 L 2417.0,5126.0 L 2451.0,5097.0 C 2470.0,5082.0 2521.0,5047.0 2565.0,5020.0 L 2645.0,4972.0 L 2820.0,4965.0 C 2973.0,4958.0 3002.0,4954.0 3054.0,4933.0 L 3113.0,4909.0 L 3154.0,4941.0 C 3176.0,4959.0 3199.0,4980.0 3203.0,4987.0 C 3213.0,5003.0 3225.0,5003.0 3289.0,4989.0 C 3347.0,4977.0 3403.0,4932.0 3479.0,4837.0 C 3524.0,4779.0 3529.0,4768.0 3539.0,4695.0 C 3547.0,4638.0 3565.0,4584.0 3604.0,4496.0 C 3651.0,4391.0 3664.0,4370.0 3703.0,4341.0 C 3748.0,4307.0 3749.0,4304.0 3765.0,4217.0 C 3774.0,4167.0 3785.0,4100.0 3788.0,4067.0 L 3795.0,4007.0 L 4115.0,3761.0 C 4419.0,3527.0 4438.0,3511.0 4485.0,3438.0 C 4533.0,3365.0 4541.0,3358.0 4699.0,3256.0 L 4862.0,3149.0 L 4909.0,3159.0 L 4955.0,3169.0 L 5055.0,3071.0 C 5151.0,2976.0 5158.0,2972.0 5235.0,2948.0 C 5308.0,2926.0 5333.0,2910.0 5518.0,2772.0 C 5629.0,2688.0 5732.0,2615.0 5746.0,2610.0 C 5786.0,2594.0 5838.0,2598.0 5881.0,2621.0 L 5921.0,2641.0 L 5997.0,2600.0 C 6039.0,2577.0 6100.0,2539.0 6134.0,2516.0 C 6179.0,2485.0 6216.0,2469.0 6279.0,2455.0 C 6361.0,2437.0 6363.0,2435.0 6381.0,2396.0 L 6398.0,2356.0 L 6369.0,2298.0 C 6329.0,2219.0 6317.0,2129.0 6333.0,2017.0 L 6345.0,1929.0 L 6501.0,1936.0 L 6658.0,1943.0 L 6729.0,1872.0 L 6801.0,1801.0 L 6847.0,1821.0 C 6872.0,1831.0 6904.0,1849.0 6918.0,1860.0 L 6944.0,1881.0 L 6965.0,1855.0 C 6983.0,1831.0 6989.0,1829.0 7020.0,1838.0 C 7048.0,1845.0 7063.0,1843.0 7092.0,1829.0 L 7128.0,1811.0 L 7144.0,1850.0 C 7155.0,1877.0 7160.0,1921.0 7160.0,1982.0 L 7160.0,2074.0 L 7229.0,2180.0 C 7274.0,2248.0 7302.0,2303.0 7310.0,2337.0 C 7321.0,2386.0 7324.0,2390.0 7363.0,2403.0 C 7405.0,2416.0 7405.0,2417.0 7442.0,2522.0 L 7479.0,2629.0 L 7423.0,2667.0 C 7365.0,2707.0 7331.0,2750.0 7285.0,2839.0 C 7259.0,2891.0 7258.0,2898.0 7265.0,2986.0 C 7271.0,3069.0 7274.0,3081.0 7296.0,3095.0 C 7328.0,3115.0 7326.0,3132.0 7289.0,3186.0 L 7259.0,3231.0 L 7172.0,3229.0 C 7056.0,3228.0 7010.0,3246.0 7010.0,3294.0 L 7010.0,3327.0 L 6914.0,3356.0 C 6861.0,3372.0 6815.0,3391.0 6812.0,3398.0 C 6810.0,3405.0 6817.0,3444.0 6829.0,3483.0 C 6840.0,3523.0 6850.0,3566.0 6850.0,3578.0 C 6850.0,3594.0 6857.0,3604.0 6871.0,3607.0 C 6883.0,3610.0 6893.0,3624.0 6897.0,3640.0 C 6901.0,3662.0 6914.0,3673.0 6962.0,3693.0 L 7021.0,3719.0 L 7218.0,3694.0 C 7472.0,3662.0 7474.0,3662.0 7522.0,3725.0 C 7558.0,3773.0 7560.0,3778.0 7560.0,3853.0 C 7560.0,3895.0 7562.0,3930.0 7564.0,3930.0 C 7567.0,3930.0 7580.0,3926.0 7595.0,3920.0 C 7618.0,3911.0 7622.0,3913.0 7630.0,3936.0 C 7636.0,3950.0 7640.0,3975.0 7640.0,3991.0 C 7640.0,4017.0 7642.0,4020.0 7659.0,4010.0 C 7689.0,3994.0 7691.0,3997.0 7684.0,4049.0 L 7678.0,4097.0 L 7714.0,4104.0 C 7741.0,4109.0 7750.0,4116.0 7750.0,4130.0 C 7750.0,4151.0 7738.0,4153.0 7685.0,4140.0 C 7662.0,4135.0 7643.0,4140.0 7607.0,4159.0 C 7575.0,4175.0 7563.0,4186.0 7572.0,4191.0 C 7579.0,4195.0 7656.0,4204.0 7743.0,4211.0 C 7895.0,4224.0 7901.0,4225.0 7896.0,4245.0 C 7892.0,4260.0 7900.0,4273.0 7925.0,4293.0 L 7960.0,4320.0 L 7925.0,4366.0 C 7906.0,4391.0 7890.0,4422.0 7890.0,4435.0 C 7890.0,4448.0 7887.0,4465.0 7884.0,4474.0 C 7880.0,4485.0 7888.0,4491.0 7913.0,4495.0 L 7949.0,4502.0 L 7956.0,4591.0 C 7961.0,4664.0 7966.0,4683.0 7982.0,4691.0 C 8004.0,4703.0 8009.0,4700.0 8081.0,4638.0 C 8148.0,4580.0 8174.0,4577.0 8218.0,4623.0 C 8235.0,4641.0 8310.0,4685.0 8388.0,4724.0 L 8527.0,4793.0 L 8547.0,4854.0 C 8560.0,4895.0 8571.0,4915.0 8582.0,4915.0 C 8591.0,4915.0 8630.0,4884.0 8669.0,4847.0 C 8739.0,4779.0 8740.0,4778.0 8719.0,4761.0 C 8698.0,4745.0 8699.0,4744.0 8749.0,4720.0 C 8777.0,4707.0 8800.0,4693.0 8800.0,4689.0 C 8800.0,4684.0 8744.0,4633.0 8676.0,4573.0 L 8552.0,4466.0 L 8582.0,4428.0 C 8605.0,4398.0 8618.0,4390.0 8644.0,4390.0 C 8673.0,4390.0 8682.0,4383.0 8714.0,4335.0 C 8734.0,4305.0 8754.0,4280.0 8758.0,4280.0 C 8797.0,4280.0 8975.0,4328.0 9056.0,4360.0 L 9156.0,4401.0 L 9238.0,4366.0 C 9308.0,4336.0 9324.0,4332.0 9340.0,4342.0 C 9357.0,4353.0 9363.0,4350.0 9388.0,4321.0 L 9417.0,4286.0 L 9449.0,4333.0 C 9480.0,4379.0 9483.0,4380.0 9532.0,4380.0 L 9582.0,4380.0 L 9566.0,4404.0 C 9551.0,4428.0 9552.0,4430.0 9576.0,4449.0 C 9591.0,4461.0 9605.0,4484.0 9609.0,4501.0 C 9614.0,4528.0 9622.0,4535.0 9660.0,4546.0 C 9699.0,4558.0 9709.0,4557.0 9748.0,4540.0 C 9773.0,4529.0 9796.0,4520.0 9801.0,4520.0 C 9816.0,4520.0 9811.0,4567.0 9790.0,4620.0 C 9779.0,4648.0 9772.0,4675.0 9775.0,4680.0 C 9778.0,4685.0 9815.0,4679.0 9857.0,4668.0 C 9928.0,4648.0 9934.0,4648.0 9945.0,4664.0 C 9952.0,4673.0 9964.0,4678.0 9972.0,4675.0 C 9983.0,4670.0 9990.0,4681.0 10000.0,4714.0 C 10011.0,4756.0 10018.0,4762.0 10104.0,4814.0 C 10154.0,4844.0 10205.0,4879.0 10218.0,4893.0 L 10241.0,4918.0 L 10188.0,4923.0 C 10159.0,4927.0 10090.0,4932.0 10035.0,4935.0 C 9884.0,4944.0 9864.0,4948.0 9852.0,4974.0 C 9845.0,4989.0 9821.0,5005.0 9781.0,5020.0 L 9719.0,5043.0 L 9696.0,5021.0 C 9684.0,5010.0 9664.0,5000.0 9652.0,5000.0 C 9630.0,5000.0 9629.0,5002.0 9612.0,5090.0 L 9604.0,5135.0 L 9523.0,5132.0 L 9443.0,5130.0 L 9436.0,5170.0 C 9433.0,5192.0 9420.0,5230.0 9408.0,5255.0 C 9388.0,5296.0 9383.0,5300.0 9349.0,5300.0 C 9314.0,5300.0 9312.0,5302.0 9306.0,5340.0 C 9300.0,5380.0 9288.0,5388.0 9261.0,5371.0 C 9251.0,5364.0 9249.0,5351.0 9254.0,5320.0 C 9257.0,5297.0 9258.0,5257.0 9254.0,5232.0 L 9248.0,5185.0 L 9206.0,5188.0 L 9163.0,5192.0 L 9156.0,5144.0 C 9153.0,5118.0 9150.0,5084.0 9150.0,5069.0 C 9150.0,5041.0 9149.0,5040.0 9096.0,5040.0 C 9064.0,5040.0 9023.0,5048.0 8996.0,5060.0 C 8971.0,5070.0 8912.0,5085.0 8865.0,5091.0 L 8780.0,5103.0 L 8780.0,5143.0 C 8780.0,5185.0 8758.0,5240.0 8732.0,5263.0 C 8717.0,5276.0 8707.0,5275.0 8647.0,5257.0 L 8579.0,5237.0 L 8552.0,5263.0 C 8531.0,5283.0 8514.0,5290.0 8483.0,5290.0 C 8422.0,5290.0 8390.0,5305.0 8390.0,5333.0 C 8390.0,5351.0 8411.0,5371.0 8488.0,5423.0 C 8551.0,5467.0 8600.0,5511.0 8629.0,5548.0 C 8654.0,5580.0 8693.0,5617.0 8716.0,5632.0 C 8748.0,5652.0 8759.0,5665.0 8764.0,5695.0 C 8771.0,5729.0 8776.0,5734.0 8853.0,5769.0 C 8933.0,5806.0 9000.0,5852.0 9000.0,5871.0 C 9000.0,5876.0 8972.0,5894.0 8937.0,5911.0 L 8874.0,5942.0 L 8782.0,5896.0 C 8694.0,5852.0 8689.0,5848.0 8660.0,5790.0 C 8643.0,5757.0 8627.0,5730.0 8624.0,5730.0 C 8622.0,5730.0 8602.0,5739.0 8581.0,5750.0 L 8543.0,5769.0 L 8498.0,5741.0 C 8468.0,5722.0 8450.0,5702.0 8446.0,5684.0 C 8442.0,5669.0 8408.0,5618.0 8370.0,5571.0 C 8302.0,5486.0 8299.0,5484.0 8198.0,5441.0 C 8092.0,5395.0 7989.0,5319.0 7960.0,5265.0 C 7951.0,5248.0 7938.0,5240.0 7920.0,5240.0 C 7905.0,5240.0 7864.0,5220.0 7824.0,5192.0 L 7755.0,5145.0 L 7752.0,5083.0 L 7749.0,5021.0 L 7669.0,4958.0 C 7610.0,4911.0 7587.0,4886.0 7580.0,4861.0 C 7575.0,4842.0 7553.0,4808.0 7531.0,4786.0 C 7496.0,4748.0 7492.0,4739.0 7487.0,4678.0 C 7483.0,4615.0 7483.0,4611.0 7506.0,4606.0 C 7526.0,4601.0 7530.0,4593.0 7530.0,4559.0 C 7530.0,4518.0 7530.0,4518.0 7498.0,4523.0 C 7480.0,4525.0 7457.0,4523.0 7447.0,4518.0 C 7433.0,4511.0 7401.0,4524.0 7303.0,4577.0 C 7234.0,4614.0 7171.0,4655.0 7162.0,4668.0 C 7148.0,4690.0 7148.0,4693.0 7172.0,4713.0 C 7192.0,4730.0 7199.0,4748.0 7203.0,4788.0 C 7209.0,4840.0 7209.0,4840.0 7181.0,4840.0 C 7158.0,4840.0 7150.0,4847.0 7136.0,4878.0 C 7108.0,4939.0 7093.0,4955.0 7077.0,4941.0 C 7067.0,4934.0 7054.0,4933.0 7039.0,4938.0 C 7023.0,4944.0 6952.0,4939.0 6830.0,4923.0 C 6641.0,4898.0 6560.0,4898.0 6435.0,4920.0 L 6375.0,4931.0 L 6312.0,5158.0 C 6263.0,5340.0 6250.0,5402.0 6248.0,5470.0 L 6245.0,5555.0 L 6094.0,5558.0 L 5943.0,5561.0 L 5936.0,5704.0 C 5930.0,5823.0 5931.0,5853.0 5943.0,5877.0 C 5955.0,5898.0 5960.0,5961.0 5966.0,6118.0 C 5970.0,6235.0 5970.0,6330.0 5967.0,6330.0 C 5963.0,6330.0 5927.0,6309.0 5885.0,6283.0 C 5844.0,6258.0 5808.0,6239.0 5805.0,6242.0 C 5802.0,6244.0 5765.0,6320.0 5721.0,6411.0 L 5641.0,6575.0 L 5553.0,6623.0 C 5469.0,6668.0 5460.0,6677.0 5376.0,6785.0 C 5328.0,6848.0 5284.0,6900.0 5279.0,6900.0 C 5274.0,6900.0 5216.0,6866.0 5149.0,6824.0 L 5028.0,6749.0 L 4661.0,6784.0 L 4294.0,6819.0 L 3979.0,6775.0 C 3806.0,6751.0 3653.0,6729.0 3639.0,6726.0 C 3616.0,6722.0 3593.0,6745.0 3409.0,6958.0 C 3154.0,7253.0 3170.0,7231.0 3155.0,7291.0 C 3141.0,7342.0 3085.0,7440.0 3069.0,7440.0 C 3055.0,7440.0 3030.0,7383.0 3030.0,7351.0 C 3030.0,7323.0 3028.0,7321.0 3002.0,7326.0 L 2973.0,7332.0 L 2966.0,7259.0 C 2957.0,7158.0 2951.0,7137.0 2931.0,7143.0 C 2889.0,7155.0 2885.0,7154.0 2882.0,7132.0 C 2877.0,7096.0 2899.0,7050.0 2922.0,7050.0 C 2932.0,7050.0 2952.0,7039.0 2965.0,7026.0 C 2978.0,7013.0 3003.0,6999.0 3020.0,6995.0 C 3056.0,6987.0 3056.0,6986.0 3027.0,6936.0 C 3009.0,6904.0 2994.0,6893.0 2935.0,6870.0 C 2897.0,6856.0 2850.0,6836.0 2832.0,6826.0 C 2802.0,6811.0 2796.0,6810.0 2782.0,6823.0 C 2737.0,6864.0 2605.0,6850.0 2560.0,6800.0 C 2539.0,6777.0 2525.0,6772.0 2465.0,6766.0 C 2427.0,6763.0 2379.0,6757.0 2360.0,6754.0 C 2309.0,6746.0 2288.0,6766.0 2283.0,6827.0 C 2278.0,6875.0 2279.0,6878.0 2306.0,6887.0 L 2335.0,6897.0 L 2300.0,6904.0 C 2281.0,6909.0 2248.0,6923.0 2228.0,6937.0 C 2197.0,6958.0 2190.0,6969.0 2190.0,6996.0 C 2190.0,7036.0 2188.0,7037.0 2148.0,7008.0 C 2122.0,6990.0 2114.0,6989.0 2097.0,6999.0 C 2087.0,7006.0 2058.0,7018.0 2034.0,7025.0 C 1994.0,7037.0 1990.0,7037.0 1990.0,7020.0 C 1990.0,7010.0 1983.0,6997.0 1975.0,6990.0 C 1962.0,6979.0 1959.0,6982.0 1954.0,7009.0 C 1948.0,7039.0 1925.0,7062.0 1843.0,7119.0 L 1810.0,7141.0 L 1810.0,7101.0 C 1810.0,7061.0 1811.0,7060.0 1845.0,7060.0 C 1875.0,7060.0 1880.0,7057.0 1880.0,7038.0 C 1880.0,7019.0 1870.0,7012.0 1820.0,6998.0 C 1788.0,6988.0 1745.0,6980.0 1727.0,6980.0 C 1708.0,6980.0 1673.0,6973.0 1650.0,6965.0 C 1593.0,6945.0 1563.0,6954.0 1540.0,7001.0 C 1513.0,7052.0 1515.0,7113.0 1546.0,7236.0 L 1571.0,7338.0 L 1537.0,7387.0 C 1512.0,7421.0 1499.0,7454.0 1491.0,7501.0 C 1474.0,7604.0 1476.0,7633.0 1506.0,7661.0 C 1535.0,7688.0 1535.0,7712.0 1505.0,7790.0 C 1475.0,7869.0 1501.0,7982.0 1566.0,8051.0 C 1581.0,8066.0 1599.0,8109.0 1612.0,8156.0 C 1626.0,8208.0 1648.0,8256.0 1676.0,8297.0 C 1713.0,8352.0 1748.0,8427.0 1738.0,8434.0 C 1737.0,8435.0 1412.0,8370.0 1016.0,8289.0" fill="pink"/>
</svg>
