<?xml version="1.0" ?>
<svg xmlns="http://www.w3.org/2000/svg" xmlns:ev="http://www.w3.org/2001/xml-events" xmlns:xlink="http://www.w3.org/1999/xlink" baseProfile="full" height="470px" version="1.1" viewBox="-1026.7169505402549 314.98272704039607 12291.689648968419 9609.034545919209" width="600px">
	<defs/>
	<path d="M 2375.0,9113.0 C 2364.0,9110.0 2334.0,9088.0 2308.0,9064.0 C 2282.0,9040.0 2252.0,9020.0 2240.0,9020.0 C 2229.0,9020.0 2220.0,9014.0 2220.0,9006.0 C 2220.0,8999.0 2207.0,8964.0 2191.0,8929.0 L 2162.0,8865.0 L 2182.0,8830.0 C 2194.0,8811.0 2212.0,8785.0 2224.0,8772.0 C 2242.0,8752.0 2243.0,8745.0 2232.0,8718.0 C 2213.0,8666.0 2230.0,8661.0 2318.0,8693.0 C 2360.0,8709.0 2409.0,8724.0 2425.0,8727.0 C 2442.0,8730.0 2468.0,8741.0 2483.0,8752.0 C 2518.0,8777.0 2534.0,8766.0 2567.0,8692.0 C 2593.0,8633.0 2591.0,8626.0 2552.0,8606.0 C 2502.0,8581.0 2480.0,8577.0 2480.0,8594.0 C 2480.0,8604.0 2471.0,8610.0 2456.0,8610.0 C 2442.0,8610.0 2428.0,8615.0 2425.0,8620.0 C 2415.0,8637.0 2377.0,8632.0 2384.0,8615.0 C 2391.0,8596.0 2362.0,8581.0 2328.0,8587.0 C 2305.0,8591.0 2301.0,8588.0 2295.0,8561.0 C 2285.0,8513.0 2182.0,8440.0 2125.0,8440.0 C 2086.0,8440.0 2050.0,8425.0 2037.0,8404.0 C 2032.0,8394.0 2007.0,8390.0 1960.0,8390.0 C 1922.0,8390.0 1888.0,8386.0 1885.0,8380.0 C 1882.0,8375.0 1868.0,8370.0 1854.0,8370.0 C 1839.0,8370.0 1819.0,8359.0 1804.0,8343.0 C 1750.0,8282.0 1736.0,8270.0 1718.0,8270.0 C 1708.0,8270.0 1697.0,8263.0 1694.0,8255.0 C 1690.0,8247.0 1680.0,8240.0 1670.0,8240.0 C 1652.0,8240.0 1505.0,8167.0 1486.0,8149.0 C 1480.0,8144.0 1465.0,8140.0 1451.0,8140.0 C 1398.0,8140.0 1380.0,8129.0 1380.0,8099.0 C 1380.0,8083.0 1385.0,8070.0 1390.0,8070.0 C 1397.0,8070.0 1397.0,8064.0 1391.0,8052.0 C 1385.0,8042.0 1384.0,8024.0 1387.0,8012.0 C 1392.0,7991.0 1389.0,7990.0 1332.0,7990.0 C 1298.0,7990.0 1269.0,7986.0 1266.0,7981.0 C 1263.0,7977.0 1271.0,7963.0 1285.0,7950.0 C 1313.0,7924.0 1327.0,7873.0 1311.0,7857.0 C 1290.0,7836.0 1300.0,7810.0 1338.0,7785.0 C 1377.0,7760.0 1392.0,7738.0 1406.0,7691.0 C 1417.0,7650.0 1478.0,7562.0 1514.0,7535.0 C 1535.0,7519.0 1554.0,7492.0 1562.0,7468.0 C 1573.0,7435.0 1583.0,7425.0 1610.0,7416.0 C 1637.0,7408.0 1652.0,7393.0 1672.0,7355.0 C 1696.0,7311.0 1699.0,7295.0 1698.0,7220.0 C 1697.0,7173.0 1702.0,7102.0 1708.0,7061.0 C 1715.0,7020.0 1718.0,6979.0 1715.0,6970.0 C 1712.0,6961.0 1690.0,6939.0 1665.0,6921.0 C 1632.0,6898.0 1619.0,6880.0 1614.0,6855.0 C 1610.0,6830.0 1599.0,6815.0 1573.0,6800.0 C 1526.0,6772.0 1429.0,6750.0 1354.0,6750.0 C 1281.0,6750.0 1240.0,6775.0 1240.0,6818.0 C 1240.0,6848.0 1228.0,6872.0 1214.0,6869.0 C 1209.0,6868.0 1199.0,6868.0 1192.0,6869.0 C 1174.0,6871.0 1200.0,6910.0 1220.0,6910.0 C 1231.0,6910.0 1236.0,6920.0 1237.0,6945.0 C 1238.0,6977.0 1236.0,6979.0 1218.0,6969.0 C 1194.0,6956.0 1170.0,6964.0 1170.0,6985.0 C 1170.0,7004.0 1156.0,7004.0 1136.0,6985.0 C 1128.0,6977.0 1117.0,6970.0 1111.0,6970.0 C 1093.0,6970.0 1099.0,6988.0 1121.0,7003.0 C 1141.0,7018.0 1141.0,7018.0 1112.0,7025.0 C 1094.0,7029.0 1074.0,7026.0 1061.0,7018.0 C 1050.0,7011.0 1037.0,7009.0 1033.0,7014.0 C 1029.0,7018.0 1033.0,7026.0 1043.0,7031.0 C 1058.0,7040.0 1059.0,7044.0 1045.0,7077.0 L 1030.0,7112.0 L 1055.0,7096.0 C 1069.0,7087.0 1080.0,7084.0 1080.0,7089.0 C 1080.0,7101.0 993.0,7173.0 955.0,7193.0 C 939.0,7201.0 914.0,7220.0 901.0,7234.0 C 879.0,7257.0 878.0,7262.0 891.0,7273.0 C 900.0,7279.0 925.0,7317.0 948.0,7355.0 C 970.0,7394.0 1007.0,7445.0 1029.0,7469.0 C 1052.0,7493.0 1070.0,7518.0 1070.0,7524.0 C 1070.0,7530.0 1086.0,7557.0 1105.0,7584.0 C 1124.0,7611.0 1140.0,7639.0 1140.0,7646.0 C 1140.0,7663.0 1206.0,7719.0 1234.0,7726.0 C 1263.0,7733.0 1274.0,7755.0 1260.0,7780.0 C 1254.0,7790.0 1250.0,7818.0 1250.0,7841.0 C 1250.0,7870.0 1240.0,7899.0 1216.0,7939.0 C 1198.0,7970.0 1177.0,8011.0 1171.0,8031.0 C 1152.0,8089.0 1132.0,8101.0 1060.0,8098.0 C 1024.0,8096.0 996.0,8099.0 994.0,8105.0 C 988.0,8120.0 1040.0,8141.0 1059.0,8131.0 C 1089.0,8115.0 1207.0,8110.0 1219.0,8124.0 C 1227.0,8133.0 1211.0,8145.0 1148.0,8176.0 C 1093.0,8203.0 1054.0,8230.0 1025.0,8262.0 C 979.0,8313.0 973.0,8332.0 963.0,8459.0 C 958.0,8526.0 959.0,8532.0 975.0,8527.0 C 984.0,8523.0 1009.0,8530.0 1033.0,8544.0 C 1056.0,8557.0 1100.0,8576.0 1130.0,8585.0 C 1160.0,8595.0 1193.0,8614.0 1203.0,8627.0 C 1213.0,8639.0 1230.0,8650.0 1240.0,8650.0 C 1264.0,8650.0 1331.0,8678.0 1353.0,8698.0 C 1362.0,8706.0 1370.0,8721.0 1370.0,8732.0 C 1370.0,8762.0 1322.0,8754.0 1256.0,8711.0 C 1222.0,8689.0 1171.0,8667.0 1142.0,8661.0 C 1060.0,8644.0 961.0,8588.0 914.0,8533.0 C 892.0,8507.0 838.0,8425.0 794.0,8353.0 L 715.0,8220.0 L 659.0,8209.0 L 602.0,8198.0 L 484.0,8028.0 C 419.0,7934.0 342.0,7835.0 313.0,7807.0 C 269.0,7766.0 260.0,7751.0 260.0,7723.0 C 260.0,7703.0 240.0,7646.0 212.0,7587.0 L 164.0,7485.0 L 176.0,7410.0 C 183.0,7369.0 198.0,7314.0 210.0,7287.0 C 231.0,7240.0 231.0,7239.0 215.0,7077.0 L 199.0,6915.0 L 150.0,6870.0 C 123.0,6845.0 92.0,6807.0 81.0,6784.0 C 68.0,6758.0 50.0,6738.0 31.0,6730.0 C -22.0,6709.0 1.0,6680.0 70.0,6680.0 C 105.0,6680.0 125.0,6687.0 156.0,6710.0 C 190.0,6734.0 203.0,6738.0 234.0,6733.0 C 255.0,6730.0 278.0,6718.0 289.0,6704.0 C 308.0,6679.0 344.0,6673.0 369.0,6689.0 C 393.0,6704.0 415.0,6685.0 429.0,6638.0 C 449.0,6570.0 586.0,6330.0 638.0,6272.0 C 677.0,6229.0 693.0,6218.0 729.0,6212.0 C 772.0,6205.0 774.0,6203.0 785.0,6159.0 C 792.0,6134.0 800.0,6072.0 804.0,6022.0 L 811.0,5931.0 L 780.0,5915.0 C 752.0,5900.0 749.0,5896.0 756.0,5867.0 C 760.0,5849.0 763.0,5799.0 762.0,5755.0 C 762.0,5696.0 766.0,5666.0 781.0,5638.0 C 791.0,5618.0 807.0,5576.0 815.0,5545.0 C 833.0,5472.0 833.0,5472.0 888.0,5457.0 C 928.0,5446.0 938.0,5437.0 958.0,5399.0 C 977.0,5361.0 987.0,5353.0 1025.0,5344.0 C 1049.0,5337.0 1111.0,5303.0 1164.0,5266.0 C 1226.0,5223.0 1268.0,5200.0 1287.0,5200.0 C 1319.0,5200.0 1509.0,5236.0 1516.0,5243.0 C 1519.0,5246.0 1536.0,5244.0 1553.0,5239.0 C 1598.0,5227.0 1777.0,5251.0 1813.0,5275.0 C 1840.0,5292.0 1844.0,5292.0 1894.0,5277.0 C 1923.0,5267.0 1952.0,5260.0 1959.0,5260.0 C 1972.0,5260.0 2075.0,5333.0 2085.0,5350.0 C 2097.0,5369.0 2159.0,5389.0 2193.0,5383.0 C 2216.0,5380.0 2230.0,5383.0 2239.0,5394.0 C 2251.0,5408.0 2256.0,5407.0 2289.0,5381.0 C 2356.0,5328.0 2485.0,5303.0 2533.0,5334.0 C 2558.0,5351.0 2562.0,5351.0 2578.0,5338.0 C 2587.0,5329.0 2730.0,5203.0 2894.0,5056.0 L 3193.0,4790.0 L 3260.0,4790.0 C 3325.0,4790.0 3326.0,4791.0 3370.0,4835.0 L 3414.0,4880.0 L 3505.0,4880.0 C 3588.0,4879.0 3701.0,4863.0 3742.0,4846.0 C 3753.0,4841.0 3762.0,4845.0 3769.0,4858.0 C 3784.0,4886.0 3867.0,4911.0 3974.0,4920.0 C 4024.0,4924.0 4083.0,4935.0 4106.0,4944.0 C 4143.0,4959.0 4149.0,4959.0 4184.0,4945.0 C 4221.0,4929.0 4221.0,4929.0 4270.0,4965.0 C 4341.0,5017.0 4388.0,5031.0 4452.0,5019.0 C 4481.0,5013.0 4535.0,5006.0 4572.0,5003.0 L 4640.0,4998.0 L 4675.0,4940.0 C 4694.0,4908.0 4717.0,4877.0 4725.0,4870.0 C 4738.0,4859.0 4736.0,4853.0 4709.0,4823.0 C 4693.0,4804.0 4668.0,4764.0 4655.0,4734.0 C 4642.0,4705.0 4618.0,4661.0 4601.0,4636.0 C 4575.0,4598.0 4570.0,4582.0 4570.0,4531.0 C 4570.0,4446.0 4550.0,4411.0 4483.0,4375.0 C 4433.0,4347.0 4429.0,4343.0 4434.0,4316.0 C 4437.0,4300.0 4440.0,4285.0 4440.0,4281.0 C 4440.0,4277.0 4453.0,4267.0 4468.0,4258.0 C 4487.0,4247.0 4501.0,4226.0 4509.0,4200.0 C 4522.0,4156.0 4523.0,4160.0 4475.0,4095.0 C 4467.0,4083.0 4453.0,4027.0 4445.0,3970.0 C 4436.0,3912.0 4423.0,3838.0 4415.0,3805.0 C 4405.0,3757.0 4404.0,3742.0 4414.0,3730.0 C 4436.0,3704.0 4449.0,3658.0 4456.0,3580.0 C 4464.0,3490.0 4479.0,3449.0 4514.0,3424.0 C 4529.0,3413.0 4561.0,3376.0 4587.0,3340.0 C 4656.0,3242.0 4690.0,3210.0 4721.0,3210.0 C 4769.0,3210.0 4800.0,3192.0 4812.0,3158.0 C 4819.0,3140.0 4836.0,3101.0 4852.0,3071.0 C 4875.0,3028.0 4880.0,3005.0 4880.0,2951.0 L 4880.0,2885.0 L 4836.0,2860.0 C 4805.0,2843.0 4760.0,2795.0 4688.0,2705.0 C 4591.0,2584.0 4532.0,2500.0 4543.0,2500.0 C 4546.0,2500.0 4567.0,2509.0 4591.0,2519.0 C 4625.0,2535.0 4638.0,2536.0 4654.0,2527.0 C 4666.0,2521.0 4688.0,2515.0 4705.0,2515.0 C 4731.0,2515.0 4735.0,2511.0 4741.0,2480.0 C 4744.0,2461.0 4752.0,2432.0 4758.0,2417.0 C 4769.0,2391.0 4771.0,2390.0 4793.0,2405.0 C 4815.0,2419.0 4818.0,2418.0 4846.0,2389.0 C 4862.0,2372.0 4898.0,2343.0 4925.0,2325.0 C 4998.0,2277.0 5054.0,2216.0 5047.0,2191.0 C 5042.0,2170.0 5078.0,2110.0 5114.0,2081.0 C 5129.0,2068.0 5131.0,2056.0 5125.0,2000.0 C 5118.0,1934.0 5119.0,1932.0 5148.0,1909.0 C 5168.0,1893.0 5189.0,1859.0 5209.0,1807.0 C 5226.0,1765.0 5251.0,1712.0 5265.0,1690.0 C 5293.0,1646.0 5344.0,1524.0 5369.0,1440.0 L 5386.0,1385.0 L 5555.0,1294.0 C 5647.0,1243.0 5745.0,1184.0 5771.0,1161.0 C 5819.0,1120.0 5819.0,1120.0 5902.0,1120.0 C 5996.0,1120.0 6004.0,1125.0 6063.0,1217.0 C 6113.0,1296.0 6181.0,1330.0 6286.0,1330.0 C 6340.0,1330.0 6351.0,1327.0 6360.0,1309.0 C 6369.0,1293.0 6368.0,1285.0 6357.0,1272.0 C 6340.0,1252.0 6307.0,1189.0 6312.0,1186.0 C 6314.0,1184.0 6329.0,1178.0 6347.0,1172.0 C 6377.0,1162.0 6381.0,1164.0 6423.0,1208.0 C 6447.0,1234.0 6471.0,1262.0 6476.0,1271.0 C 6481.0,1280.0 6520.0,1310.0 6562.0,1338.0 C 6605.0,1367.0 6645.0,1401.0 6652.0,1414.0 C 6671.0,1448.0 6722.0,1488.0 6769.0,1505.0 C 6792.0,1513.0 6825.0,1530.0 6843.0,1543.0 C 6884.0,1574.0 6952.0,1600.0 6991.0,1600.0 C 7030.0,1600.0 7137.0,1675.0 7181.0,1733.0 C 7231.0,1798.0 7232.0,1798.0 7224.0,1756.0 C 7216.0,1710.0 7215.0,1709.0 7317.0,1792.0 C 7372.0,1837.0 7398.0,1867.0 7429.0,1923.0 C 7466.0,1990.0 7469.0,2001.0 7463.0,2047.0 C 7459.0,2088.0 7462.0,2105.0 7480.0,2138.0 L 7503.0,2178.0 L 7579.0,2181.0 C 7654.0,2185.0 7657.0,2186.0 7712.0,2232.0 C 7742.0,2259.0 7780.0,2282.0 7796.0,2285.0 C 7812.0,2287.0 7842.0,2292.0 7862.0,2295.0 C 7912.0,2303.0 7944.0,2355.0 7935.0,2416.0 C 7929.0,2458.0 7928.0,2458.0 7881.0,2465.0 C 7845.0,2470.0 7812.0,2465.0 7745.0,2446.0 C 7638.0,2415.0 7587.0,2413.0 7520.0,2440.0 C 7492.0,2451.0 7456.0,2460.0 7440.0,2460.0 C 7402.0,2460.0 7298.0,2498.0 7283.0,2518.0 C 7276.0,2527.0 7270.0,2548.0 7270.0,2564.0 C 7270.0,2581.0 7258.0,2620.0 7244.0,2650.0 C 7230.0,2680.0 7210.0,2732.0 7199.0,2765.0 C 7189.0,2798.0 7166.0,2870.0 7147.0,2925.0 L 7113.0,3025.0 L 7136.0,3055.0 C 7149.0,3072.0 7168.0,3105.0 7178.0,3128.0 L 7197.0,3170.0 L 7163.0,3298.0 C 7144.0,3368.0 7126.0,3428.0 7122.0,3431.0 C 7118.0,3434.0 7064.0,3455.0 7001.0,3476.0 L 6888.0,3515.0 L 6814.0,3610.0 C 6773.0,3662.0 6740.0,3713.0 6740.0,3723.0 C 6740.0,3744.0 6762.0,3745.0 6890.0,3725.0 C 6942.0,3717.0 7014.0,3710.0 7049.0,3710.0 C 7105.0,3710.0 7118.0,3713.0 7141.0,3736.0 C 7167.0,3761.0 7169.0,3761.0 7198.0,3746.0 C 7215.0,3737.0 7238.0,3716.0 7251.0,3699.0 C 7285.0,3651.0 7341.0,3630.0 7419.0,3637.0 C 7473.0,3641.0 7519.0,3634.0 7667.0,3601.0 C 7768.0,3578.0 7868.0,3560.0 7889.0,3560.0 C 7913.0,3560.0 7956.0,3547.0 8001.0,3525.0 C 8120.0,3468.0 8149.0,3480.0 8171.0,3591.0 L 8182.0,3649.0 L 8313.0,3700.0 C 8386.0,3728.0 8457.0,3763.0 8476.0,3780.0 C 8495.0,3796.0 8527.0,3813.0 8547.0,3817.0 C 8597.0,3827.0 8704.0,3827.0 8760.0,3817.0 C 8804.0,3809.0 8805.0,3809.0 8824.0,3844.0 C 8843.0,3879.0 8844.0,3880.0 8889.0,3874.0 C 8955.0,3865.0 9015.0,3884.0 9042.0,3921.0 C 9062.0,3948.0 9069.0,3951.0 9102.0,3946.0 C 9136.0,3940.0 9141.0,3943.0 9187.0,3998.0 C 9215.0,4029.0 9245.0,4067.0 9254.0,4082.0 C 9264.0,4097.0 9284.0,4112.0 9300.0,4115.0 C 9317.0,4119.0 9338.0,4136.0 9355.0,4160.0 C 9380.0,4196.0 9384.0,4198.0 9413.0,4189.0 C 9431.0,4184.0 9484.0,4180.0 9531.0,4180.0 C 9616.0,4180.0 9618.0,4181.0 9624.0,4206.0 C 9637.0,4257.0 9678.0,4307.0 9732.0,4338.0 C 9790.0,4370.0 9825.0,4414.0 9858.0,4496.0 C 9901.0,4600.0 9927.0,4563.0 9565.0,4912.0 C 9386.0,5084.0 9240.0,5229.0 9240.0,5234.0 C 9240.0,5238.0 9265.0,5265.0 9296.0,5294.0 C 9327.0,5322.0 9358.0,5357.0 9366.0,5372.0 C 9391.0,5421.0 9379.0,5535.0 9338.0,5631.0 C 9320.0,5674.0 9320.0,5680.0 9334.0,5708.0 C 9349.0,5738.0 9383.0,5750.0 9452.0,5750.0 C 9493.0,5750.0 9530.0,5771.0 9547.0,5803.0 L 9562.0,5832.0 L 9581.0,5811.0 C 9605.0,5785.0 9656.0,5783.0 9689.0,5807.0 C 9702.0,5816.0 9731.0,5833.0 9754.0,5845.0 C 9936.0,5942.0 9955.0,5957.0 9972.0,6011.0 C 9988.0,6066.0 9970.0,6104.0 9921.0,6119.0 C 9866.0,6135.0 9810.0,6133.0 9788.0,6113.0 C 9774.0,6100.0 9763.0,6098.0 9742.0,6106.0 C 9717.0,6115.0 9715.0,6120.0 9712.0,6179.0 C 9709.0,6239.0 9706.0,6246.0 9664.0,6294.0 C 9615.0,6350.0 9598.0,6391.0 9621.0,6399.0 C 9642.0,6406.0 9681.0,6450.0 9733.0,6527.0 C 9771.0,6585.0 9788.0,6601.0 9829.0,6619.0 C 9856.0,6630.0 9886.0,6640.0 9895.0,6640.0 C 9920.0,6640.0 10015.0,6707.0 10044.0,6745.0 C 10058.0,6763.0 10085.0,6783.0 10103.0,6789.0 C 10137.0,6801.0 10160.0,6833.0 10160.0,6870.0 C 10160.0,6880.0 10176.0,6901.0 10195.0,6916.0 C 10242.0,6951.0 10247.0,6979.0 10220.0,7041.0 C 10195.0,7100.0 10156.0,7139.0 10122.0,7140.0 C 10109.0,7140.0 10049.0,7151.0 9988.0,7165.0 C 9927.0,7179.0 9864.0,7190.0 9848.0,7190.0 C 9820.0,7190.0 9818.0,7188.0 9822.0,7160.0 C 9826.0,7137.0 9822.0,7129.0 9806.0,7124.0 C 9794.0,7120.0 9781.0,7111.0 9775.0,7104.0 C 9767.0,7093.0 9749.0,7093.0 9670.0,7106.0 C 9525.0,7131.0 9417.0,7119.0 9382.0,7076.0 C 9371.0,7062.0 9344.0,7050.0 9300.0,7041.0 C 9264.0,7034.0 9228.0,7022.0 9219.0,7014.0 C 9204.0,7001.0 9162.0,6996.0 9081.0,6999.0 C 9067.0,7000.0 9032.0,7009.0 9003.0,7020.0 C 8973.0,7031.0 8939.0,7040.0 8927.0,7040.0 C 8892.0,7041.0 8866.0,7065.0 8878.0,7086.0 C 8887.0,7102.0 8904.0,7104.0 9015.0,7104.0 L 9141.0,7105.0 L 9170.0,7140.0 C 9186.0,7159.0 9200.0,7180.0 9200.0,7186.0 C 9200.0,7191.0 9211.0,7212.0 9225.0,7230.0 C 9239.0,7249.0 9250.0,7276.0 9249.0,7290.0 C 9242.0,7378.0 9248.0,7394.0 9300.0,7435.0 C 9343.0,7469.0 9350.0,7480.0 9348.0,7504.0 C 9346.0,7520.0 9339.0,7535.0 9333.0,7538.0 C 9326.0,7540.0 9295.0,7515.0 9264.0,7483.0 C 9215.0,7432.0 9211.0,7429.0 9230.0,7462.0 C 9242.0,7483.0 9249.0,7504.0 9246.0,7509.0 C 9243.0,7514.0 9252.0,7521.0 9266.0,7524.0 C 9281.0,7528.0 9314.0,7549.0 9339.0,7571.0 C 9365.0,7592.0 9393.0,7610.0 9402.0,7610.0 C 9424.0,7610.0 9470.0,7656.0 9470.0,7677.0 C 9469.0,7700.0 9454.0,7719.0 9408.0,7754.0 C 9374.0,7780.0 9369.0,7781.0 9355.0,7766.0 C 9346.0,7757.0 9337.0,7750.0 9334.0,7750.0 C 9332.0,7750.0 9319.0,7775.0 9305.0,7806.0 L 9280.0,7863.0 L 9220.0,7857.0 C 9173.0,7853.0 9153.0,7856.0 9123.0,7872.0 C 9102.0,7882.0 9063.0,7900.0 9035.0,7911.0 C 9008.0,7922.0 8969.0,7947.0 8950.0,7965.0 C 8895.0,8019.0 8800.0,8050.0 8800.0,8015.0 C 8800.0,8007.0 8807.0,8000.0 8815.0,8000.0 C 8823.0,8000.0 8836.0,7984.0 8844.0,7966.0 C 8852.0,7947.0 8868.0,7925.0 8879.0,7918.0 C 8905.0,7902.0 8907.0,7853.0 8884.0,7786.0 C 8875.0,7760.0 8867.0,7740.0 8865.0,7742.0 C 8864.0,7744.0 8867.0,7776.0 8872.0,7814.0 C 8880.0,7872.0 8879.0,7885.0 8865.0,7900.0 C 8831.0,7937.0 8694.0,7968.0 8706.0,7936.0 C 8709.0,7929.0 8704.0,7920.0 8694.0,7916.0 C 8677.0,7909.0 8665.0,7921.0 8633.0,7972.0 C 8624.0,7987.0 8603.0,8004.0 8586.0,8010.0 C 8570.0,8015.0 8543.0,8031.0 8526.0,8043.0 C 8509.0,8056.0 8473.0,8072.0 8446.0,8079.0 C 8404.0,8089.0 8395.0,8089.0 8379.0,8074.0 C 8369.0,8065.0 8358.0,8045.0 8355.0,8030.0 C 8351.0,8010.0 8344.0,8003.0 8334.0,8007.0 C 8323.0,8011.0 8320.0,8002.0 8320.0,7966.0 C 8320.0,7940.0 8312.0,7903.0 8301.0,7882.0 C 8291.0,7862.0 8280.0,7834.0 8276.0,7820.0 C 8269.0,7790.0 8234.0,7743.0 8226.0,7751.0 C 8218.0,7759.0 8252.0,7850.0 8262.0,7850.0 C 8274.0,7850.0 8272.0,7898.0 8259.0,7923.0 C 8253.0,7935.0 8237.0,7957.0 8223.0,7971.0 C 8209.0,7987.0 8196.0,8016.0 8191.0,8047.0 C 8186.0,8083.0 8173.0,8111.0 8146.0,8143.0 C 8091.0,8210.0 8060.0,8216.0 8060.0,8160.0 C 8060.0,8144.0 8055.0,8119.0 8050.0,8104.0 C 8040.0,8080.0 8036.0,8078.0 7997.0,8083.0 C 7963.0,8088.0 7951.0,8085.0 7933.0,8068.0 C 7916.0,8052.0 7910.0,8050.0 7910.0,8061.0 C 7910.0,8085.0 7932.0,8100.0 7965.0,8100.0 C 7985.0,8100.0 8005.0,8109.0 8018.0,8123.0 C 8039.0,8145.0 8039.0,8148.0 8025.0,8177.0 C 8012.0,8204.0 8012.0,8210.0 8026.0,8239.0 C 8042.0,8270.0 8041.0,8272.0 8019.0,8297.0 C 8006.0,8311.0 7974.0,8333.0 7948.0,8346.0 C 7882.0,8380.0 7887.0,8423.0 7960.0,8445.0 C 7983.0,8452.0 7984.0,8452.0 7970.0,8435.0 C 7956.0,8418.0 7956.0,8418.0 7979.0,8429.0 C 7994.0,8437.0 8020.0,8440.0 8054.0,8435.0 C 8082.0,8432.0 8137.0,8427.0 8176.0,8424.0 C 8245.0,8419.0 8247.0,8419.0 8287.0,8452.0 C 8322.0,8482.0 8340.0,8488.0 8415.0,8499.0 C 8472.0,8508.0 8509.0,8519.0 8520.0,8530.0 C 8530.0,8540.0 8548.0,8553.0 8559.0,8560.0 C 8571.0,8566.0 8580.0,8578.0 8580.0,8587.0 C 8580.0,8596.0 8588.0,8612.0 8598.0,8623.0 C 8614.0,8642.0 8614.0,8642.0 8590.0,8635.0 C 8557.0,8625.0 8509.0,8601.0 8490.0,8585.0 C 8474.0,8571.0 8396.0,8558.0 8345.0,8561.0 C 8329.0,8562.0 8222.0,8562.0 8108.0,8562.0 C 7932.0,8561.0 7897.0,8559.0 7868.0,8544.0 C 7850.0,8534.0 7821.0,8527.0 7804.0,8528.0 C 7787.0,8530.0 7734.0,8519.0 7687.0,8505.0 C 7623.0,8487.0 7576.0,8480.0 7511.0,8480.0 C 7422.0,8480.0 7421.0,8480.0 7396.0,8448.0 C 7371.0,8416.0 7370.0,8416.0 7294.0,8419.0 C 7233.0,8421.0 7209.0,8426.0 7179.0,8446.0 C 7133.0,8475.0 7120.0,8476.0 7120.0,8451.0 C 7120.0,8441.0 7110.0,8425.0 7097.0,8417.0 C 7064.0,8395.0 6983.0,8385.0 6966.0,8399.0 C 6955.0,8409.0 6944.0,8408.0 6919.0,8395.0 C 6896.0,8382.0 6874.0,8380.0 6840.0,8384.0 C 6789.0,8391.0 6780.0,8384.0 6780.0,8335.0 C 6780.0,8302.0 6799.0,8300.0 6840.0,8328.0 C 6874.0,8351.0 6878.0,8352.0 7008.0,8345.0 C 7089.0,8341.0 7156.0,8332.0 7177.0,8323.0 L 7213.0,8309.0 L 7182.0,8290.0 C 7137.0,8263.0 7048.0,8249.0 6924.0,8252.0 C 6805.0,8254.0 6740.0,8240.0 6739.0,8212.0 C 6739.0,8198.0 6737.0,8199.0 6731.0,8215.0 C 6723.0,8233.0 6721.0,8232.0 6704.0,8203.0 C 6693.0,8185.0 6679.0,8170.0 6673.0,8170.0 C 6666.0,8170.0 6660.0,8163.0 6660.0,8154.0 C 6660.0,8142.0 6667.0,8140.0 6690.0,8145.0 C 6709.0,8149.0 6720.0,8148.0 6720.0,8141.0 C 6720.0,8123.0 6661.0,8099.0 6598.0,8090.0 C 6534.0,8081.0 6465.0,8042.0 6455.0,8010.0 C 6444.0,7976.0 6423.0,7970.0 6274.0,7965.0 C 6119.0,7959.0 6016.0,7969.0 5745.0,8019.0 C 5685.0,8030.0 5629.0,8040.0 5621.0,8040.0 C 5600.0,8040.0 5617.0,8027.0 5653.0,8013.0 L 5685.0,8002.0 L 5649.0,8001.0 C 5630.0,8000.0 5605.0,8007.0 5594.0,8015.0 C 5584.0,8023.0 5567.0,8030.0 5558.0,8030.0 C 5536.0,8030.0 5534.0,8050.0 5555.0,8050.0 C 5563.0,8050.0 5570.0,8057.0 5570.0,8066.0 C 5570.0,8075.0 5542.0,8094.0 5496.0,8116.0 C 5416.0,8153.0 5401.0,8165.0 5419.0,8183.0 C 5438.0,8202.0 5431.0,8218.0 5399.0,8229.0 C 5355.0,8244.0 5276.0,8243.0 5236.0,8226.0 C 5211.0,8216.0 5190.0,8214.0 5154.0,8221.0 C 5123.0,8227.0 5078.0,8227.0 5032.0,8220.0 C 4992.0,8215.0 4933.0,8210.0 4902.0,8210.0 C 4868.0,8209.0 4837.0,8203.0 4826.0,8195.0 C 4804.0,8178.0 4753.0,8175.0 4731.0,8189.0 C 4721.0,8195.0 4695.0,8190.0 4652.0,8174.0 C 4617.0,8161.0 4571.0,8150.0 4550.0,8150.0 C 4528.0,8150.0 4460.0,8130.0 4393.0,8103.0 C 4314.0,8072.0 4259.0,8056.0 4225.0,8056.0 C 4198.0,8055.0 4162.0,8047.0 4145.0,8039.0 C 4107.0,8019.0 3915.0,8014.0 3862.0,8031.0 C 3792.0,8053.0 3749.0,8115.0 3748.0,8197.0 C 3747.0,8222.0 3742.0,8241.0 3733.0,8244.0 C 3712.0,8253.0 3718.0,8265.0 3750.0,8277.0 C 3767.0,8283.0 3780.0,8296.0 3780.0,8305.0 C 3780.0,8317.0 3775.0,8320.0 3763.0,8315.0 C 3725.0,8299.0 3703.0,8298.0 3697.0,8313.0 C 3693.0,8323.0 3699.0,8330.0 3715.0,8334.0 C 3737.0,8340.0 3738.0,8343.0 3729.0,8366.0 C 3724.0,8381.0 3699.0,8415.0 3675.0,8442.0 C 3650.0,8470.0 3630.0,8496.0 3630.0,8501.0 C 3630.0,8506.0 3615.0,8510.0 3597.0,8510.0 C 3576.0,8510.0 3556.0,8518.0 3546.0,8529.0 C 3536.0,8540.0 3516.0,8552.0 3500.0,8555.0 C 3485.0,8558.0 3463.0,8572.0 3451.0,8585.0 C 3436.0,8603.0 3420.0,8610.0 3392.0,8610.0 C 3371.0,8610.0 3345.0,8617.0 3334.0,8625.0 C 3319.0,8637.0 3296.0,8638.0 3220.0,8634.0 C 3131.0,8628.0 3124.0,8629.0 3106.0,8649.0 C 3065.0,8695.0 2918.0,8712.0 2903.0,8674.0 C 2899.0,8664.0 2880.0,8660.0 2839.0,8660.0 C 2791.0,8660.0 2772.0,8655.0 2740.0,8633.0 L 2699.0,8607.0 L 2677.0,8628.0 C 2620.0,8681.0 2568.0,8803.0 2545.0,8935.0 C 2535.0,8994.0 2496.0,9055.0 2445.0,9090.0 C 2421.0,9106.0 2400.0,9119.0 2398.0,9119.0 C 2396.0,9118.0 2386.0,9115.0 2375.0,9113.0" fill="pink"/>
	<path d="M 6991.0,8749.0 C 6934.0,8695.0 6925.0,8690.0 6883.0,8690.0 C 6859.0,8690.0 6825.0,8698.0 6810.0,8707.0 C 6785.0,8721.0 6776.0,8722.0 6739.0,8711.0 C 6694.0,8697.0 6635.0,8647.0 6645.0,8630.0 C 6648.0,8625.0 6684.0,8620.0 6725.0,8620.0 C 6783.0,8620.0 6801.0,8624.0 6808.0,8636.0 C 6818.0,8655.0 6833.0,8649.0 6908.0,8596.0 C 6954.0,8565.0 6975.0,8567.0 6990.0,8605.0 C 7002.0,8638.0 7045.0,8641.0 7035.0,8609.0 C 7026.0,8580.0 7051.0,8588.0 7066.0,8619.0 C 7072.0,8631.0 7087.0,8648.0 7099.0,8656.0 C 7110.0,8664.0 7120.0,8680.0 7120.0,8691.0 C 7120.0,8714.0 7079.0,8798.0 7064.0,8804.0 C 7059.0,8806.0 7026.0,8781.0 6991.0,8749.0" fill="pink"/>
	<path d="M 5923.0,8560.0 C 5910.0,8555.0 5900.0,8544.0 5900.0,8535.0 C 5900.0,8523.0 5912.0,8520.0 5954.0,8520.0 C 6021.0,8520.0 6040.0,8527.0 6040.0,8551.0 C 6040.0,8567.0 6033.0,8570.0 5993.0,8569.0 C 5966.0,8569.0 5935.0,8565.0 5923.0,8560.0" fill="pink"/>
	<path d="M 6828.0,8533.0 C 6810.0,8530.0 6803.0,8524.0 6807.0,8514.0 C 6814.0,8496.0 6854.0,8496.0 6869.0,8513.0 C 6879.0,8526.0 6874.0,8542.0 6861.0,8539.0 C 6858.0,8538.0 6843.0,8535.0 6828.0,8533.0" fill="pink"/>
	<path d="M 6973.0,8524.0 C 6966.0,8504.0 6986.0,8490.0 7023.0,8490.0 C 7060.0,8490.0 7054.0,8510.0 7012.0,8527.0 C 6984.0,8539.0 6979.0,8538.0 6973.0,8524.0" fill="pink"/>
	<path d="M 9456.0,7575.0 C 9438.0,7557.0 9426.0,7521.0 9434.0,7512.0 C 9441.0,7506.0 9500.0,7559.0 9500.0,7571.0 C 9500.0,7586.0 9470.0,7588.0 9456.0,7575.0" fill="pink"/>
	<path d="M 9370.0,7530.0 C 9364.0,7519.0 9362.0,7505.0 9365.0,7500.0 C 9372.0,7488.0 9400.0,7487.0 9400.0,7498.0 C 9400.0,7502.0 9403.0,7515.0 9406.0,7528.0 C 9414.0,7557.0 9385.0,7559.0 9370.0,7530.0" fill="pink"/>
	<path d="M 9345.0,7445.0 C 9315.0,7421.0 9325.0,7411.0 9359.0,7430.0 C 9378.0,7440.0 9395.0,7470.0 9382.0,7470.0 C 9378.0,7470.0 9362.0,7459.0 9345.0,7445.0" fill="pink"/>
	<path d="M 9375.0,7408.0 C 9360.0,7390.0 9343.0,7364.0 9337.0,7350.0 C 9331.0,7336.0 9320.0,7317.0 9311.0,7307.0 C 9303.0,7298.0 9299.0,7287.0 9303.0,7284.0 C 9306.0,7281.0 9341.0,7310.0 9381.0,7350.0 C 9436.0,7405.0 9450.0,7424.0 9439.0,7431.0 C 9415.0,7446.0 9403.0,7441.0 9375.0,7408.0" fill="pink"/>
	<path d="M 9283.0,7393.0 C 9269.0,7388.0 9265.0,7360.0 9278.0,7360.0 C 9282.0,7360.0 9291.0,7365.0 9298.0,7372.0 C 9320.0,7394.0 9312.0,7405.0 9283.0,7393.0" fill="pink"/>
	<path d="M 9423.0,7357.0 C 9376.0,7322.0 9370.0,7310.0 9399.0,7310.0 C 9416.0,7310.0 9490.0,7371.0 9490.0,7385.0 C 9490.0,7398.0 9461.0,7386.0 9423.0,7357.0" fill="pink"/>
	<path d="M 9301.0,7354.0 C 9272.0,7317.0 9275.0,7299.0 9305.0,7333.0 C 9328.0,7358.0 9337.0,7380.0 9326.0,7380.0 C 9323.0,7380.0 9312.0,7368.0 9301.0,7354.0" fill="pink"/>
	<path d="M 9423.0,7293.0 C 9410.0,7291.0 9400.0,7282.0 9400.0,7274.0 C 9400.0,7262.0 9404.0,7262.0 9425.0,7276.0 C 9439.0,7285.0 9450.0,7294.0 9450.0,7296.0 C 9450.0,7298.0 9449.0,7299.0 9448.0,7299.0 C 9446.0,7298.0 9435.0,7295.0 9423.0,7293.0" fill="pink"/>
	<path d="M 9327.0,7270.0 C 9313.0,7259.0 9296.0,7250.0 9288.0,7250.0 C 9270.0,7249.0 9235.0,7220.0 9222.0,7194.0 C 9205.0,7162.0 9221.0,7148.0 9266.0,7155.0 C 9335.0,7168.0 9356.0,7188.0 9374.0,7263.0 C 9382.0,7296.0 9364.0,7299.0 9327.0,7270.0" fill="pink"/>
	<path d="M 9425.0,7250.0 C 9403.0,7239.0 9393.0,7232.0 9403.0,7235.0 C 9413.0,7238.0 9427.0,7240.0 9434.0,7240.0 C 9441.0,7240.0 9455.0,7247.0 9466.0,7255.0 C 9493.0,7276.0 9472.0,7273.0 9425.0,7250.0" fill="pink"/>
	<path d="M 9480.0,7218.0 L 9445.0,7196.0 L 9475.0,7189.0 C 9523.0,7178.0 9640.0,7179.0 9640.0,7190.0 C 9640.0,7196.0 9622.0,7200.0 9600.0,7200.0 C 9562.0,7200.0 9560.0,7202.0 9570.0,7220.0 C 9580.0,7238.0 9578.0,7240.0 9548.0,7240.0 C 9530.0,7240.0 9499.0,7230.0 9480.0,7218.0" fill="pink"/>
	<path d="M 9397.0,7203.0 C 9359.0,7183.0 9368.0,7176.0 9410.0,7193.0 C 9428.0,7201.0 9439.0,7210.0 9434.0,7213.0 C 9429.0,7216.0 9412.0,7211.0 9397.0,7203.0" fill="pink"/>
	<path d="M 9385.0,7160.0 C 9377.0,7147.0 9390.0,7147.0 9410.0,7160.0 C 9423.0,7168.0 9423.0,7170.0 9408.0,7170.0 C 9399.0,7170.0 9388.0,7166.0 9385.0,7160.0" fill="pink"/>
	<path d="M 9200.0,7125.0 C 9190.0,7113.0 9191.0,7110.0 9207.0,7110.0 C 9217.0,7110.0 9235.0,7117.0 9246.0,7125.0 C 9264.0,7139.0 9264.0,7139.0 9239.0,7140.0 C 9224.0,7140.0 9207.0,7133.0 9200.0,7125.0" fill="pink"/>
	<path d="M 9215.0,7103.0 C 9199.0,7100.0 9181.0,7094.0 9176.0,7089.0 C 9170.0,7084.0 9128.0,7080.0 9081.0,7080.0 C 8995.0,7080.0 8962.0,7071.0 8973.0,7052.0 C 8991.0,7024.0 9168.0,7009.0 9163.0,7036.0 C 9162.0,7043.0 9186.0,7049.0 9226.0,7053.0 C 9287.0,7057.0 9330.0,7078.0 9330.0,7102.0 C 9330.0,7110.0 9271.0,7111.0 9215.0,7103.0" fill="pink"/>
</svg>
