<?xml version="1.0" ?>
<svg xmlns="http://www.w3.org/2000/svg" xmlns:ev="http://www.w3.org/2001/xml-events" xmlns:xlink="http://www.w3.org/1999/xlink" baseProfile="full" height="284px" version="1.1" viewBox="-1022.6572082226426 2212.1964099137062 12291.18701233566 5816.119428914189" width="600px">
	<defs/>
	<path d="M 9436.0,7509.0 C 9407.0,7475.0 9405.0,7467.0 9420.0,7439.0 C 9437.0,7407.0 9475.0,7415.0 9499.0,7455.0 C 9513.0,7479.0 9529.0,7492.0 9550.0,7497.0 L 9581.0,7503.0 L 9550.0,7521.0 C 9504.0,7549.0 9466.0,7545.0 9436.0,7509.0" fill="pink"/>
	<path d="M 8795.0,7273.0 C 8772.0,7270.0 8761.0,7262.0 8753.0,7240.0 C 8741.0,7208.0 8707.0,7190.0 8659.0,7190.0 C 8620.0,7190.0 8621.0,7163.0 8661.0,7131.0 C 8695.0,7104.0 8733.0,7101.0 8758.0,7122.0 C 8767.0,7130.0 8783.0,7140.0 8793.0,7143.0 C 8803.0,7147.0 8810.0,7160.0 8810.0,7177.0 C 8810.0,7192.0 8819.0,7216.0 8830.0,7230.0 C 8852.0,7259.0 8856.0,7281.0 8838.0,7278.0 C 8831.0,7278.0 8811.0,7275.0 8795.0,7273.0" fill="pink"/>
	<path d="M 9151.0,7211.0 C 9141.0,7193.0 9144.0,7189.0 9170.0,7175.0 C 9205.0,7157.0 9260.0,7067.0 9260.0,7027.0 L 9260.0,6999.0 L 9323.0,7006.0 C 9388.0,7013.0 9450.0,7034.0 9450.0,7049.0 C 9450.0,7064.0 9414.0,7089.0 9370.0,7105.0 C 9314.0,7125.0 9302.0,7136.0 9283.0,7182.0 C 9270.0,7215.0 9263.0,7220.0 9236.0,7220.0 C 9219.0,7220.0 9195.0,7223.0 9183.0,7226.0 C 9168.0,7230.0 9159.0,7226.0 9151.0,7211.0" fill="pink"/>
	<path d="M 9443.0,7173.0 C 9415.0,7154.0 9414.0,7144.0 9439.0,7130.0 C 9455.0,7122.0 9465.0,7125.0 9489.0,7146.0 C 9506.0,7160.0 9520.0,7176.0 9520.0,7181.0 C 9520.0,7196.0 9467.0,7190.0 9443.0,7173.0" fill="pink"/>
	<path d="M 8642.0,7034.0 C 8616.0,7023.0 8600.0,7022.0 8570.0,7030.0 C 8536.0,7039.0 8524.0,7038.0 8489.0,7020.0 C 8462.0,7006.0 8445.0,7002.0 8437.0,7009.0 C 8427.0,7016.0 8380.0,7017.0 8328.0,7011.0 C 8314.0,7009.0 8320.0,6983.0 8338.0,6968.0 C 8347.0,6959.0 8369.0,6948.0 8385.0,6943.0 C 8410.0,6935.0 8415.0,6928.0 8413.0,6904.0 C 8410.0,6852.0 8398.0,6816.0 8369.0,6779.0 C 8336.0,6736.0 8335.0,6730.0 8356.0,6689.0 C 8366.0,6669.0 8368.0,6655.0 8362.0,6647.0 C 8356.0,6640.0 8349.0,6606.0 8345.0,6570.0 C 8339.0,6516.0 8341.0,6502.0 8354.0,6491.0 C 8374.0,6474.0 8374.0,6443.0 8356.0,6399.0 C 8343.0,6369.0 8344.0,6362.0 8357.0,6339.0 C 8373.0,6313.0 8372.0,6310.0 8341.0,6272.0 C 8300.0,6219.0 8246.0,6187.0 8190.0,6180.0 C 8151.0,6176.0 8142.0,6178.0 8124.0,6199.0 L 8104.0,6222.0 L 8085.0,6194.0 C 8075.0,6178.0 8061.0,6161.0 8053.0,6157.0 C 8046.0,6153.0 8040.0,6141.0 8040.0,6132.0 C 8040.0,6123.0 8031.0,6109.0 8019.0,6102.0 C 7993.0,6086.0 7936.0,6096.0 7944.0,6115.0 C 7951.0,6133.0 7924.0,6155.0 7915.0,6140.0 C 7911.0,6133.0 7896.0,6131.0 7879.0,6135.0 C 7855.0,6140.0 7850.0,6138.0 7850.0,6123.0 C 7850.0,6113.0 7835.0,6097.0 7813.0,6085.0 C 7763.0,6058.0 7762.0,6045.0 7807.0,6022.0 C 7866.0,5991.0 7892.0,5958.0 7888.0,5918.0 C 7886.0,5891.0 7888.0,5886.0 7904.0,5888.0 C 7915.0,5890.0 7919.0,5887.0 7915.0,5881.0 C 7912.0,5875.0 7902.0,5870.0 7895.0,5870.0 C 7886.0,5870.0 7876.0,5852.0 7869.0,5825.0 C 7862.0,5798.0 7851.0,5778.0 7840.0,5775.0 C 7830.0,5772.0 7810.0,5760.0 7796.0,5749.0 C 7775.0,5732.0 7770.0,5720.0 7770.0,5684.0 C 7770.0,5659.0 7765.0,5619.0 7759.0,5595.0 C 7751.0,5563.0 7751.0,5547.0 7760.0,5531.0 C 7769.0,5513.0 7767.0,5503.0 7751.0,5476.0 C 7704.0,5400.0 7740.0,5329.0 7809.0,5364.0 C 7826.0,5373.0 7840.0,5385.0 7840.0,5391.0 C 7840.0,5397.0 7858.0,5420.0 7881.0,5442.0 C 7914.0,5474.0 7928.0,5481.0 7949.0,5477.0 C 8092.0,5449.0 8111.0,5448.0 8129.0,5464.0 C 8139.0,5473.0 8154.0,5480.0 8163.0,5480.0 C 8184.0,5480.0 8195.0,5499.0 8181.0,5513.0 C 8175.0,5519.0 8170.0,5531.0 8170.0,5540.0 C 8170.0,5548.0 8154.0,5568.0 8135.0,5583.0 C 8081.0,5626.0 8067.0,5661.0 8075.0,5733.0 C 8079.0,5767.0 8089.0,5805.0 8098.0,5818.0 C 8107.0,5832.0 8118.0,5886.0 8124.0,5953.0 L 8135.0,6065.0 L 8175.0,6078.0 C 8197.0,6085.0 8225.0,6102.0 8238.0,6115.0 C 8255.0,6133.0 8271.0,6140.0 8300.0,6140.0 C 8331.0,6140.0 8343.0,6145.0 8357.0,6167.0 C 8367.0,6181.0 8389.0,6208.0 8406.0,6227.0 C 8437.0,6259.0 8441.0,6260.0 8512.0,6260.0 C 8555.0,6260.0 8591.0,6255.0 8598.0,6248.0 C 8607.0,6239.0 8614.0,6241.0 8630.0,6255.0 C 8648.0,6271.0 8654.0,6272.0 8689.0,6260.0 C 8719.0,6250.0 8732.0,6250.0 8750.0,6260.0 C 8762.0,6266.0 8796.0,6270.0 8827.0,6268.0 L 8882.0,6265.0 L 8896.0,6305.0 C 8915.0,6359.0 8914.0,6370.0 8890.0,6370.0 C 8879.0,6370.0 8870.0,6364.0 8870.0,6358.0 C 8870.0,6350.0 8863.0,6353.0 8855.0,6364.0 C 8836.0,6389.0 8836.0,6434.0 8854.0,6449.0 C 8863.0,6457.0 8866.0,6473.0 8863.0,6499.0 C 8859.0,6529.0 8863.0,6546.0 8884.0,6577.0 C 8909.0,6614.0 8916.0,6618.0 8967.0,6624.0 C 9018.0,6630.0 9027.0,6628.0 9063.0,6603.0 C 9085.0,6588.0 9107.0,6565.0 9113.0,6553.0 C 9129.0,6518.0 9164.0,6524.0 9196.0,6566.0 C 9235.0,6616.0 9267.0,6631.0 9305.0,6616.0 C 9335.0,6603.0 9382.0,6611.0 9405.0,6631.0 C 9410.0,6636.0 9435.0,6640.0 9461.0,6640.0 C 9492.0,6640.0 9515.0,6646.0 9531.0,6659.0 C 9554.0,6678.0 9554.0,6679.0 9537.0,6692.0 C 9513.0,6710.0 9522.0,6730.0 9571.0,6770.0 C 9602.0,6794.0 9626.0,6804.0 9678.0,6811.0 C 9748.0,6822.0 9815.0,6816.0 9837.0,6799.0 C 9846.0,6791.0 9866.0,6797.0 9911.0,6819.0 C 9945.0,6836.0 9981.0,6850.0 9990.0,6850.0 C 10028.0,6850.0 10078.0,6881.0 10103.0,6919.0 C 10121.0,6945.0 10138.0,6960.0 10151.0,6960.0 C 10163.0,6960.0 10174.0,6968.0 10177.0,6978.0 C 10179.0,6988.0 10195.0,7001.0 10211.0,7007.0 C 10227.0,7013.0 10240.0,7023.0 10240.0,7029.0 C 10240.0,7054.0 10095.0,7028.0 10080.0,7000.0 C 10067.0,6976.0 10010.0,6968.0 9988.0,6987.0 C 9976.0,6997.0 9959.0,7000.0 9933.0,6997.0 C 9843.0,6984.0 9812.0,6972.0 9750.0,6922.0 C 9707.0,6887.0 9677.0,6870.0 9658.0,6870.0 C 9633.0,6870.0 9631.0,6872.0 9640.0,6895.0 C 9645.0,6909.0 9662.0,6931.0 9677.0,6944.0 C 9702.0,6966.0 9703.0,6970.0 9692.0,6995.0 C 9682.0,7017.0 9675.0,7021.0 9657.0,7015.0 C 9645.0,7011.0 9609.0,7006.0 9578.0,7003.0 C 9501.0,6996.0 9486.0,6978.0 9485.0,6895.0 C 9485.0,6838.0 9487.0,6830.0 9510.0,6816.0 L 9535.0,6801.0 L 9500.0,6800.0 C 9481.0,6799.0 9428.0,6795.0 9383.0,6791.0 C 9315.0,6784.0 9297.0,6779.0 9282.0,6760.0 C 9264.0,6738.0 9261.0,6738.0 9212.0,6750.0 C 9168.0,6762.0 9155.0,6761.0 9109.0,6747.0 C 9003.0,6712.0 8983.0,6725.0 9016.0,6805.0 C 9038.0,6861.0 9039.0,6866.0 9023.0,6878.0 C 9014.0,6884.0 9000.0,6890.0 8991.0,6890.0 C 8983.0,6890.0 8969.0,6897.0 8959.0,6906.0 C 8943.0,6920.0 8938.0,6920.0 8900.0,6900.0 C 8863.0,6881.0 8856.0,6880.0 8842.0,6893.0 C 8832.0,6901.0 8817.0,6910.0 8807.0,6913.0 C 8797.0,6917.0 8791.0,6924.0 8794.0,6929.0 C 8797.0,6934.0 8793.0,6943.0 8785.0,6950.0 C 8777.0,6957.0 8770.0,6973.0 8770.0,6986.0 C 8770.0,7003.0 8764.0,7010.0 8751.0,7010.0 C 8721.0,7010.0 8700.0,7021.0 8700.0,7036.0 C 8700.0,7053.0 8685.0,7053.0 8642.0,7034.0" fill="pink"/>
	<path d="M 5999.0,6851.0 C 5979.0,6842.0 5955.0,6828.0 5946.0,6821.0 C 5936.0,6812.0 5918.0,6810.0 5896.0,6814.0 C 5866.0,6820.0 5862.0,6818.0 5856.0,6794.0 C 5851.0,6776.0 5854.0,6762.0 5866.0,6749.0 C 5875.0,6738.0 5880.0,6730.0 5876.0,6730.0 C 5873.0,6730.0 5879.0,6712.0 5890.0,6690.0 C 5911.0,6649.0 5910.0,6630.0 5886.0,6630.0 C 5872.0,6630.0 5848.0,6548.0 5856.0,6527.0 C 5859.0,6519.0 5879.0,6503.0 5900.0,6491.0 C 5922.0,6479.0 5940.0,6465.0 5940.0,6460.0 C 5940.0,6455.0 5942.0,6445.0 5945.0,6438.0 C 5949.0,6429.0 5938.0,6417.0 5916.0,6405.0 C 5872.0,6381.0 5879.0,6360.0 5931.0,6360.0 C 5978.0,6360.0 5979.0,6353.0 5943.0,6278.0 C 5916.0,6223.0 5914.0,6221.0 5881.0,6227.0 C 5861.0,6230.0 5845.0,6228.0 5841.0,6221.0 C 5832.0,6208.0 5858.0,6070.0 5872.0,6053.0 C 5886.0,6036.0 5915.0,6037.0 5949.0,6055.0 C 5969.0,6065.0 5980.0,6080.0 5984.0,6105.0 C 5990.0,6137.0 5994.0,6140.0 6024.0,6140.0 C 6071.0,6140.0 6102.0,6176.0 6108.0,6238.0 C 6112.0,6281.0 6109.0,6289.0 6089.0,6304.0 C 6076.0,6313.0 6055.0,6320.0 6042.0,6320.0 C 6020.0,6320.0 6019.0,6323.0 6022.0,6392.0 C 6024.0,6456.0 6028.0,6469.0 6057.0,6507.0 C 6075.0,6531.0 6090.0,6562.0 6090.0,6575.0 C 6090.0,6589.0 6097.0,6617.0 6105.0,6637.0 C 6124.0,6682.0 6125.0,6680.0 6094.0,6680.0 C 6077.0,6680.0 6066.0,6686.0 6063.0,6699.0 C 6061.0,6709.0 6047.0,6723.0 6034.0,6729.0 C 6006.0,6741.0 6001.0,6786.0 6026.0,6804.0 C 6035.0,6811.0 6040.0,6826.0 6038.0,6841.0 C 6035.0,6867.0 6035.0,6867.0 5999.0,6851.0" fill="pink"/>
	<path d="M 7421.0,6832.0 C 7402.0,6819.0 7424.0,6780.0 7450.0,6780.0 C 7462.0,6780.0 7470.0,6773.0 7470.0,6764.0 C 7470.0,6747.0 7471.0,6747.0 7517.0,6775.0 C 7559.0,6800.0 7559.0,6816.0 7518.0,6823.0 C 7500.0,6826.0 7474.0,6831.0 7460.0,6835.0 C 7446.0,6838.0 7429.0,6836.0 7421.0,6832.0" fill="pink"/>
	<path d="M 4992.0,6715.0 C 4952.0,6675.0 4957.0,6660.0 5010.0,6660.0 C 5046.0,6660.0 5050.0,6658.0 5055.0,6628.0 C 5058.0,6610.0 5062.0,6577.0 5063.0,6555.0 C 5065.0,6520.0 5062.0,6515.0 5043.0,6515.0 C 5016.0,6514.0 4978.0,6468.0 4986.0,6445.0 C 4996.0,6421.0 5029.0,6411.0 5062.0,6424.0 C 5101.0,6439.0 5144.0,6422.0 5148.0,6390.0 C 5153.0,6335.0 5173.0,6284.0 5198.0,6257.0 C 5214.0,6241.0 5225.0,6217.0 5225.0,6202.0 C 5225.0,6181.0 5229.0,6176.0 5245.0,6178.0 C 5300.0,6185.0 5308.0,6190.0 5314.0,6221.0 C 5322.0,6262.0 5358.0,6320.0 5375.0,6320.0 C 5382.0,6320.0 5393.0,6327.0 5400.0,6335.0 C 5407.0,6343.0 5420.0,6350.0 5430.0,6350.0 C 5456.0,6350.0 5485.0,6387.0 5472.0,6403.0 C 5466.0,6410.0 5460.0,6435.0 5458.0,6459.0 C 5454.0,6514.0 5431.0,6533.0 5401.0,6506.0 C 5382.0,6488.0 5380.0,6489.0 5356.0,6515.0 C 5342.0,6530.0 5328.0,6551.0 5325.0,6561.0 C 5316.0,6589.0 5288.0,6584.0 5255.0,6550.0 C 5207.0,6499.0 5183.0,6510.0 5133.0,6605.0 C 5110.0,6649.0 5093.0,6690.0 5095.0,6697.0 C 5099.0,6710.0 5055.0,6750.0 5036.0,6750.0 C 5030.0,6750.0 5010.0,6734.0 4992.0,6715.0" fill="pink"/>
	<path d="M 7427.0,6613.0 C 7423.0,6610.0 7420.0,6599.0 7420.0,6590.0 C 7420.0,6580.0 7411.0,6561.0 7400.0,6547.0 C 7367.0,6505.0 7377.0,6496.0 7426.0,6525.0 C 7471.0,6552.0 7474.0,6552.0 7507.0,6536.0 C 7548.0,6516.0 7604.0,6515.0 7619.0,6534.0 C 7625.0,6541.0 7627.0,6560.0 7624.0,6578.0 C 7618.0,6609.0 7617.0,6609.0 7591.0,6594.0 C 7567.0,6580.0 7561.0,6580.0 7512.0,6599.0 C 7456.0,6621.0 7438.0,6624.0 7427.0,6613.0" fill="pink"/>
	<path d="M 7172.0,6598.0 C 7156.0,6582.0 7157.0,6550.0 7174.0,6550.0 C 7181.0,6550.0 7201.0,6555.0 7218.0,6561.0 C 7245.0,6570.0 7248.0,6575.0 7240.0,6591.0 C 7228.0,6612.0 7190.0,6616.0 7172.0,6598.0" fill="pink"/>
	<path d="M 6369.0,6328.0 C 6342.0,6277.0 6250.0,6269.0 6205.0,6314.0 C 6193.0,6326.0 6178.0,6334.0 6172.0,6332.0 C 6155.0,6327.0 6147.0,6265.0 6160.0,6240.0 C 6172.0,6217.0 6178.0,6217.0 6252.0,6235.0 C 6268.0,6239.0 6301.0,6235.0 6334.0,6225.0 C 6436.0,6193.0 6560.0,6225.0 6606.0,6295.0 C 6630.0,6331.0 6612.0,6348.0 6576.0,6325.0 C 6553.0,6310.0 6545.0,6309.0 6522.0,6320.0 C 6507.0,6328.0 6469.0,6336.0 6437.0,6340.0 C 6387.0,6345.0 6377.0,6343.0 6369.0,6328.0" fill="pink"/>
	<path d="M 2163.0,6121.0 C 2153.0,6111.0 2135.0,6099.0 2123.0,6096.0 C 2100.0,6089.0 2091.0,6056.0 2109.0,6046.0 C 2114.0,6043.0 2116.0,6031.0 2113.0,6020.0 C 2109.0,6006.0 2115.0,5998.0 2133.0,5991.0 C 2172.0,5976.0 2252.0,5975.0 2278.0,5989.0 C 2291.0,5996.0 2323.0,6000.0 2348.0,5998.0 C 2384.0,5996.0 2395.0,5998.0 2395.0,6010.0 C 2395.0,6018.0 2382.0,6027.0 2364.0,6031.0 C 2314.0,6041.0 2216.0,6100.0 2229.0,6113.0 C 2247.0,6131.0 2241.0,6140.0 2210.0,6140.0 C 2194.0,6140.0 2173.0,6132.0 2163.0,6121.0" fill="pink"/>
	<path d="M 1488.0,6111.0 C 1457.0,6098.0 1450.0,6090.0 1450.0,6067.0 C 1450.0,6031.0 1434.0,6000.0 1415.0,6000.0 C 1407.0,6000.0 1400.0,5996.0 1400.0,5990.0 C 1400.0,5963.0 1276.0,5931.0 1241.0,5949.0 C 1225.0,5958.0 1219.0,5957.0 1210.0,5941.0 C 1205.0,5930.0 1200.0,5911.0 1200.0,5899.0 C 1200.0,5878.0 1198.0,5877.0 1119.0,5883.0 C 1035.0,5888.0 980.0,5878.0 980.0,5855.0 C 980.0,5811.0 1069.0,5759.0 1144.0,5759.0 C 1166.0,5759.0 1198.0,5759.0 1213.0,5759.0 C 1229.0,5759.0 1256.0,5768.0 1274.0,5780.0 C 1293.0,5791.0 1321.0,5800.0 1338.0,5800.0 C 1379.0,5800.0 1440.0,5770.0 1440.0,5751.0 C 1441.0,5725.0 1465.0,5700.0 1498.0,5694.0 C 1534.0,5687.0 1550.0,5708.0 1550.0,5762.0 C 1550.0,5801.0 1566.0,5825.0 1597.0,5835.0 C 1615.0,5840.0 1622.0,5834.0 1639.0,5802.0 C 1670.0,5742.0 1757.0,5668.0 1822.0,5647.0 C 1894.0,5624.0 1941.0,5625.0 1984.0,5651.0 C 2026.0,5675.0 2027.0,5683.0 1999.0,5718.0 L 1978.0,5745.0 L 2006.0,5748.0 C 2025.0,5751.0 2051.0,5740.0 2093.0,5710.0 C 2171.0,5657.0 2195.0,5660.0 2204.0,5726.0 C 2207.0,5752.0 2210.0,5787.0 2210.0,5805.0 C 2210.0,5836.0 2208.0,5838.0 2164.0,5843.0 C 2129.0,5847.0 2112.0,5855.0 2095.0,5876.0 C 2076.0,5900.0 2074.0,5906.0 2087.0,5915.0 C 2100.0,5925.0 2099.0,5931.0 2080.0,5963.0 C 2068.0,5983.0 2053.0,6000.0 2047.0,6000.0 C 2040.0,6000.0 2042.0,6005.0 2050.0,6010.0 C 2069.0,6022.0 2059.0,6031.0 1990.0,6060.0 C 1944.0,6079.0 1923.0,6082.0 1856.0,6078.0 C 1788.0,6074.0 1768.0,6077.0 1725.0,6095.0 C 1658.0,6125.0 1539.0,6133.0 1488.0,6111.0" fill="pink"/>
	<path d="M 5758.0,6118.0 C 5722.0,6090.0 5763.0,5990.0 5810.0,5990.0 C 5831.0,5990.0 5832.0,6047.0 5813.0,6068.0 C 5806.0,6075.0 5800.0,6092.0 5800.0,6106.0 C 5800.0,6132.0 5783.0,6137.0 5758.0,6118.0" fill="pink"/>
	<path d="M 5335.0,6090.0 C 5332.0,6085.0 5307.0,6080.0 5280.0,6080.0 C 5248.0,6080.0 5228.0,6075.0 5223.0,6066.0 C 5218.0,6058.0 5197.0,6045.0 5175.0,6038.0 C 5143.0,6027.0 5135.0,6020.0 5135.0,6000.0 C 5135.0,5980.0 5129.0,5974.0 5108.0,5972.0 C 5093.0,5970.0 5075.0,5959.0 5067.0,5946.0 C 5048.0,5917.0 4978.0,5886.0 4948.0,5893.0 C 4935.0,5897.0 4915.0,5908.0 4904.0,5919.0 C 4883.0,5938.0 4882.0,5938.0 4871.0,5914.0 C 4865.0,5900.0 4860.0,5883.0 4860.0,5875.0 C 4860.0,5846.0 4832.0,5832.0 4793.0,5841.0 C 4772.0,5846.0 4736.0,5850.0 4714.0,5850.0 C 4668.0,5850.0 4645.0,5869.0 4653.0,5900.0 C 4657.0,5916.0 4652.0,5922.0 4627.0,5928.0 C 4600.0,5935.0 4594.0,5942.0 4590.0,5970.0 C 4584.0,6012.0 4555.0,6023.0 4545.0,5988.0 C 4541.0,5975.0 4532.0,5950.0 4524.0,5932.0 C 4512.0,5906.0 4506.0,5902.0 4491.0,5909.0 C 4479.0,5916.0 4465.0,5914.0 4446.0,5904.0 C 4411.0,5886.0 4382.0,5886.0 4349.0,5904.0 C 4333.0,5912.0 4317.0,5914.0 4309.0,5909.0 C 4284.0,5893.0 4224.0,5899.0 4197.0,5920.0 C 4176.0,5937.0 4168.0,5938.0 4140.0,5929.0 C 4104.0,5916.0 3992.0,5924.0 3976.0,5940.0 C 3970.0,5946.0 3951.0,5950.0 3933.0,5950.0 C 3912.0,5950.0 3901.0,5955.0 3903.0,5962.0 C 3905.0,5976.0 3833.0,5998.0 3783.0,5999.0 C 3752.0,6000.0 3750.0,5998.0 3750.0,5966.0 C 3750.0,5925.0 3740.0,5920.0 3652.0,5920.0 C 3574.0,5920.0 3546.0,5908.0 3578.0,5891.0 C 3589.0,5885.0 3608.0,5880.0 3619.0,5880.0 C 3663.0,5880.0 3686.0,5798.0 3654.0,5752.0 C 3636.0,5725.0 3609.0,5724.0 3573.0,5748.0 C 3558.0,5757.0 3519.0,5777.0 3486.0,5792.0 L 3425.0,5819.0 L 3422.0,5792.0 C 3414.0,5725.0 3399.0,5690.0 3371.0,5675.0 C 3331.0,5655.0 3319.0,5576.0 3347.0,5528.0 C 3364.0,5498.0 3372.0,5494.0 3420.0,5490.0 L 3475.0,5485.0 L 3472.0,5450.0 C 3469.0,5403.0 3451.0,5360.0 3434.0,5360.0 C 3426.0,5360.0 3400.0,5344.0 3374.0,5325.0 C 3349.0,5306.0 3316.0,5287.0 3302.0,5284.0 C 3195.0,5261.0 3178.0,5244.0 3191.0,5177.0 C 3199.0,5132.0 3197.0,5125.0 3160.0,5060.0 C 3120.0,4989.0 3021.0,4881.0 2972.0,4856.0 C 2938.0,4839.0 2841.0,4820.0 2784.0,4820.0 C 2760.0,4820.0 2719.0,4828.0 2693.0,4838.0 C 2617.0,4867.0 2586.0,4854.0 2585.0,4792.0 L 2585.0,4755.0 L 2539.0,4754.0 C 2506.0,4753.0 2486.0,4747.0 2470.0,4732.0 C 2444.0,4708.0 2326.0,4660.0 2292.0,4660.0 C 2280.0,4660.0 2270.0,4654.0 2270.0,4646.0 C 2270.0,4636.0 2289.0,4631.0 2338.0,4627.0 C 2375.0,4624.0 2425.0,4615.0 2451.0,4607.0 C 2498.0,4592.0 2522.0,4596.0 2573.0,4632.0 C 2589.0,4643.0 2594.0,4641.0 2613.0,4619.0 C 2625.0,4604.0 2642.0,4590.0 2650.0,4587.0 C 2660.0,4583.0 2658.0,4581.0 2643.0,4581.0 C 2631.0,4580.0 2618.0,4576.0 2615.0,4570.0 C 2612.0,4565.0 2598.0,4560.0 2586.0,4560.0 C 2573.0,4560.0 2557.0,4554.0 2550.0,4546.0 C 2544.0,4538.0 2524.0,4530.0 2507.0,4528.0 C 2454.0,4523.0 2462.0,4497.0 2524.0,4476.0 C 2595.0,4452.0 2730.0,4464.0 2730.0,4494.0 C 2730.0,4502.0 2737.0,4513.0 2745.0,4520.0 C 2762.0,4534.0 2765.0,4550.0 2751.0,4550.0 C 2745.0,4550.0 2725.0,4560.0 2704.0,4572.0 L 2668.0,4593.0 L 2726.0,4611.0 C 2819.0,4639.0 2931.0,4660.0 2983.0,4660.0 C 3036.0,4660.0 3052.0,4648.0 3132.0,4551.0 C 3167.0,4508.0 3170.0,4506.0 3232.0,4502.0 C 3317.0,4497.0 3362.0,4509.0 3378.0,4544.0 C 3393.0,4573.0 3415.0,4585.0 3471.0,4595.0 C 3508.0,4600.0 3523.0,4621.0 3532.0,4674.0 C 3537.0,4707.0 3564.0,4715.0 3618.0,4701.0 C 3656.0,4692.0 3682.0,4691.0 3727.0,4699.0 C 3793.0,4712.0 3828.0,4733.0 3850.0,4776.0 C 3883.0,4839.0 3914.0,4890.0 3919.0,4890.0 C 3923.0,4890.0 3924.0,4870.0 3922.0,4845.0 C 3919.0,4807.0 3921.0,4800.0 3936.0,4800.0 C 3963.0,4801.0 3998.0,4829.0 3983.0,4838.0 C 3968.0,4848.0 3964.0,4886.0 3974.0,4932.0 C 3981.0,4965.0 3979.0,4972.0 3959.0,4989.0 C 3936.0,5008.0 3936.0,5008.0 3953.0,5044.0 C 3968.0,5076.0 3973.0,5079.0 3990.0,5070.0 C 4005.0,5062.0 4009.0,5053.0 4004.0,5035.0 C 3996.0,5004.0 4037.0,4975.0 4078.0,4983.0 C 4093.0,4986.0 4133.0,4984.0 4168.0,4978.0 C 4226.0,4969.0 4234.0,4970.0 4278.0,4992.0 C 4309.0,5008.0 4332.0,5029.0 4345.0,5053.0 C 4356.0,5073.0 4373.0,5093.0 4383.0,5096.0 C 4393.0,5099.0 4400.0,5111.0 4400.0,5126.0 C 4400.0,5141.0 4393.0,5153.0 4383.0,5157.0 C 4373.0,5160.0 4346.0,5171.0 4323.0,5182.0 C 4285.0,5200.0 4280.0,5206.0 4280.0,5236.0 C 4280.0,5258.0 4286.0,5273.0 4299.0,5279.0 C 4338.0,5300.0 4335.0,5360.0 4294.0,5360.0 C 4263.0,5360.0 4259.0,5369.0 4275.0,5408.0 C 4291.0,5445.0 4330.0,5454.0 4330.0,5420.0 C 4330.0,5406.0 4337.0,5400.0 4354.0,5400.0 C 4379.0,5400.0 4390.0,5416.0 4390.0,5453.0 C 4390.0,5468.0 4397.0,5461.0 4413.0,5430.0 C 4429.0,5397.0 4442.0,5384.0 4460.0,5382.0 C 4503.0,5376.0 4550.0,5333.0 4550.0,5300.0 C 4550.0,5283.0 4559.0,5262.0 4572.0,5250.0 C 4597.0,5227.0 4611.0,5225.0 4627.0,5241.0 C 4642.0,5256.0 4674.0,5244.0 4667.0,5226.0 C 4658.0,5203.0 4727.0,5120.0 4755.0,5120.0 C 4768.0,5120.0 4782.0,5116.0 4785.0,5110.0 C 4800.0,5086.0 4880.0,5107.0 4880.0,5135.0 C 4880.0,5156.0 4909.0,5180.0 4936.0,5180.0 C 4956.0,5180.0 4960.0,5175.0 4960.0,5150.0 C 4960.0,5132.0 4966.0,5117.0 4975.0,5113.0 C 4997.0,5105.0 5069.0,5135.0 5109.0,5170.0 C 5138.0,5195.0 5141.0,5200.0 5127.0,5206.0 C 5117.0,5209.0 5103.0,5207.0 5095.0,5200.0 C 5078.0,5186.0 5050.0,5193.0 5050.0,5211.0 C 5050.0,5218.0 5053.0,5220.0 5056.0,5217.0 C 5071.0,5202.0 5099.0,5232.0 5105.0,5270.0 C 5109.0,5292.0 5115.0,5310.0 5119.0,5310.0 C 5136.0,5310.0 5195.0,5286.0 5201.0,5277.0 C 5205.0,5271.0 5218.0,5271.0 5236.0,5277.0 C 5263.0,5286.0 5265.0,5291.0 5268.0,5343.0 C 5270.0,5374.0 5275.0,5400.0 5280.0,5400.0 C 5286.0,5400.0 5290.0,5394.0 5290.0,5386.0 C 5290.0,5369.0 5320.0,5356.0 5320.0,5373.0 C 5321.0,5388.0 5366.0,5440.0 5379.0,5440.0 C 5394.0,5440.0 5369.0,5496.0 5348.0,5509.0 C 5335.0,5517.0 5324.0,5517.0 5310.0,5510.0 C 5295.0,5502.0 5289.0,5504.0 5280.0,5519.0 C 5252.0,5573.0 5280.0,5654.0 5332.0,5665.0 C 5412.0,5681.0 5466.0,5682.0 5479.0,5666.0 C 5487.0,5657.0 5503.0,5650.0 5516.0,5650.0 C 5542.0,5650.0 5560.0,5681.0 5560.0,5725.0 C 5560.0,5738.0 5565.0,5752.0 5570.0,5755.0 C 5585.0,5764.0 5652.0,5739.0 5672.0,5718.0 C 5681.0,5708.0 5694.0,5700.0 5702.0,5700.0 C 5709.0,5700.0 5728.0,5687.0 5743.0,5670.0 C 5775.0,5637.0 5820.0,5629.0 5820.0,5657.0 C 5820.0,5666.0 5827.0,5681.0 5836.0,5691.0 C 5850.0,5706.0 5854.0,5707.0 5878.0,5694.0 C 5893.0,5686.0 5925.0,5680.0 5951.0,5680.0 C 6004.0,5680.0 6065.0,5645.0 6122.0,5582.0 C 6153.0,5548.0 6160.0,5531.0 6166.0,5481.0 C 6169.0,5447.0 6177.0,5420.0 6183.0,5420.0 C 6188.0,5420.0 6212.0,5437.0 6236.0,5458.0 C 6260.0,5478.0 6294.0,5507.0 6312.0,5522.0 C 6344.0,5548.0 6345.0,5548.0 6332.0,5592.0 C 6324.0,5615.0 6313.0,5653.0 6307.0,5676.0 C 6292.0,5728.0 6281.0,5741.0 6215.0,5785.0 C 6185.0,5804.0 6159.0,5829.0 6155.0,5839.0 C 6150.0,5855.0 6090.0,5900.0 6074.0,5900.0 C 6072.0,5900.0 6070.0,5887.0 6070.0,5871.0 C 6070.0,5841.0 6039.0,5807.0 6000.0,5795.0 C 5973.0,5786.0 5929.0,5806.0 5936.0,5825.0 C 5939.0,5833.0 5940.0,5847.0 5937.0,5854.0 C 5932.0,5867.0 5927.0,5867.0 5899.0,5853.0 C 5873.0,5840.0 5862.0,5839.0 5829.0,5850.0 C 5795.0,5862.0 5788.0,5861.0 5771.0,5846.0 C 5746.0,5823.0 5653.0,5827.0 5659.0,5850.0 C 5662.0,5858.0 5664.0,5879.0 5664.0,5895.0 C 5665.0,5924.0 5664.0,5925.0 5615.0,5925.0 C 5565.0,5925.0 5565.0,5925.0 5555.0,5886.0 C 5548.0,5855.0 5549.0,5846.0 5562.0,5836.0 C 5575.0,5826.0 5576.0,5820.0 5566.0,5795.0 L 5553.0,5765.0 L 5541.0,5802.0 C 5534.0,5822.0 5521.0,5849.0 5510.0,5862.0 C 5498.0,5877.0 5490.0,5912.0 5485.0,5962.0 C 5477.0,6048.0 5460.0,6070.0 5400.0,6070.0 C 5382.0,6070.0 5367.0,6076.0 5364.0,6085.0 C 5357.0,6102.0 5344.0,6105.0 5335.0,6090.0" fill="pink"/>
	<path d="M 2442.0,6038.0 C 2426.0,6022.0 2427.0,6005.0 2444.0,5991.0 C 2465.0,5973.0 2485.0,6002.0 2470.0,6029.0 C 2457.0,6054.0 2458.0,6054.0 2442.0,6038.0" fill="pink"/>
	<path d="M 40.0,6005.0 C 40.0,5997.0 31.0,5986.0 20.0,5980.0 C 1.0,5970.0 1.0,5969.0 21.0,5935.0 C 38.0,5907.0 41.0,5890.0 36.0,5853.0 C 27.0,5781.0 43.0,5756.0 102.0,5755.0 C 152.0,5754.0 200.0,5784.0 200.0,5815.0 C 200.0,5839.0 134.0,5949.0 97.0,5988.0 C 64.0,6022.0 40.0,6030.0 40.0,6005.0" fill="pink"/>
	<path d="M 2410.0,5656.0 C 2410.0,5645.0 2420.0,5640.0 2441.0,5640.0 C 2479.0,5640.0 2476.0,5664.0 2437.0,5668.0 C 2418.0,5670.0 2410.0,5667.0 2410.0,5656.0" fill="pink"/>
	<path d="M 5400.0,5439.0 C 5400.0,5435.0 5406.0,5419.0 5414.0,5403.0 C 5422.0,5388.0 5432.0,5362.0 5437.0,5345.0 C 5443.0,5322.0 5452.0,5314.0 5474.0,5312.0 C 5530.0,5305.0 5534.0,5316.0 5490.0,5371.0 C 5468.0,5399.0 5450.0,5425.0 5450.0,5430.0 C 5450.0,5434.0 5439.0,5440.0 5425.0,5442.0 C 5411.0,5445.0 5400.0,5444.0 5400.0,5439.0" fill="pink"/>
	<path d="M 7606.0,5243.0 C 7581.0,5220.0 7579.0,5215.0 7593.0,5206.0 C 7605.0,5196.0 7606.0,5191.0 7595.0,5177.0 C 7580.0,5157.0 7587.0,5117.0 7604.0,5123.0 C 7610.0,5125.0 7628.0,5150.0 7643.0,5178.0 C 7666.0,5220.0 7669.0,5233.0 7660.0,5250.0 C 7646.0,5276.0 7641.0,5275.0 7606.0,5243.0" fill="pink"/>
	<path d="M 7515.0,4911.0 C 7512.0,4906.0 7514.0,4899.0 7520.0,4895.0 C 7525.0,4892.0 7530.0,4896.0 7530.0,4904.0 C 7530.0,4922.0 7524.0,4925.0 7515.0,4911.0" fill="pink"/>
	<path d="M 7487.0,4813.0 C 7477.0,4803.0 7479.0,4770.0 7489.0,4770.0 C 7504.0,4770.0 7531.0,4801.0 7525.0,4811.0 C 7518.0,4822.0 7496.0,4823.0 7487.0,4813.0" fill="pink"/>
	<path d="M 2070.0,4685.0 C 2063.0,4676.0 2040.0,4670.0 2016.0,4670.0 C 1994.0,4669.0 1964.0,4663.0 1950.0,4655.0 C 1920.0,4638.0 1864.0,4636.0 1854.0,4651.0 C 1844.0,4667.0 1789.0,4654.0 1708.0,4615.0 C 1668.0,4596.0 1630.0,4580.0 1624.0,4580.0 C 1608.0,4580.0 1569.0,4530.0 1575.0,4520.0 C 1585.0,4504.0 1640.0,4498.0 1656.0,4511.0 C 1674.0,4526.0 1824.0,4518.0 1845.0,4500.0 C 1869.0,4480.0 1897.0,4503.0 1892.0,4539.0 C 1889.0,4565.0 1892.0,4570.0 1914.0,4576.0 C 1928.0,4579.0 1944.0,4588.0 1951.0,4596.0 C 1957.0,4604.0 1976.0,4610.0 1992.0,4610.0 C 2009.0,4610.0 2036.0,4617.0 2053.0,4625.0 C 2071.0,4633.0 2100.0,4640.0 2119.0,4642.0 L 2152.0,4645.0 L 2130.0,4673.0 C 2106.0,4703.0 2088.0,4707.0 2070.0,4685.0" fill="pink"/>
	<path d="M 7195.0,4680.0 C 7179.0,4676.0 7142.0,4672.0 7114.0,4671.0 C 7072.0,4670.0 7059.0,4665.0 7038.0,4641.0 C 7023.0,4625.0 6982.0,4601.0 6941.0,4585.0 C 6876.0,4560.0 6852.0,4545.0 6862.0,4534.0 C 6867.0,4529.0 6994.0,4555.0 7009.0,4564.0 C 7021.0,4572.0 7049.0,4545.0 7072.0,4502.0 C 7084.0,4479.0 7096.0,4470.0 7114.0,4470.0 C 7128.0,4470.0 7151.0,4465.0 7165.0,4458.0 C 7187.0,4448.0 7192.0,4449.0 7205.0,4466.0 C 7227.0,4495.0 7223.0,4507.0 7183.0,4532.0 C 7162.0,4545.0 7144.0,4563.0 7144.0,4573.0 C 7142.0,4587.0 7150.0,4590.0 7186.0,4590.0 C 7216.0,4590.0 7232.0,4595.0 7236.0,4605.0 C 7239.0,4613.0 7250.0,4622.0 7261.0,4625.0 C 7285.0,4633.0 7285.0,4652.0 7262.0,4673.0 C 7242.0,4691.0 7240.0,4691.0 7195.0,4680.0" fill="pink"/>
	<path d="M 6372.0,4548.0 C 6373.0,4511.0 6368.0,4472.0 6360.0,4452.0 C 6346.0,4420.0 6346.0,4419.0 6383.0,4385.0 C 6404.0,4366.0 6425.0,4350.0 6429.0,4350.0 C 6434.0,4350.0 6440.0,4319.0 6444.0,4281.0 C 6452.0,4206.0 6467.0,4182.0 6496.0,4198.0 C 6510.0,4206.0 6527.0,4201.0 6565.0,4179.0 C 6623.0,4146.0 6642.0,4143.0 6660.0,4165.0 C 6677.0,4185.0 6665.0,4261.0 6640.0,4287.0 C 6624.0,4305.0 6617.0,4306.0 6582.0,4297.0 C 6553.0,4289.0 6535.0,4290.0 6513.0,4299.0 C 6485.0,4310.0 6483.0,4314.0 6484.0,4365.0 C 6485.0,4415.0 6487.0,4420.0 6511.0,4425.0 C 6526.0,4428.0 6542.0,4441.0 6547.0,4453.0 C 6556.0,4472.0 6552.0,4477.0 6521.0,4492.0 C 6437.0,4533.0 6425.0,4545.0 6428.0,4578.0 C 6431.0,4608.0 6429.0,4610.0 6400.0,4610.0 L 6369.0,4610.0 L 6372.0,4548.0" fill="pink"/>
	<path d="M 2247.0,4501.0 C 2198.0,4478.0 2213.0,4465.0 2300.0,4457.0 C 2378.0,4450.0 2394.0,4457.0 2384.0,4493.0 C 2378.0,4518.0 2374.0,4520.0 2331.0,4519.0 C 2306.0,4519.0 2268.0,4510.0 2247.0,4501.0" fill="pink"/>
	<path d="M 6058.0,4299.0 C 6036.0,4275.0 6023.0,4270.0 5985.0,4270.0 L 5939.0,4270.0 L 5946.0,4233.0 C 5955.0,4181.0 5961.0,4177.0 6009.0,4191.0 C 6047.0,4202.0 6053.0,4201.0 6078.0,4183.0 C 6095.0,4170.0 6108.0,4148.0 6114.0,4121.0 C 6121.0,4087.0 6127.0,4080.0 6146.0,4080.0 C 6171.0,4080.0 6190.0,4106.0 6190.0,4139.0 C 6190.0,4156.0 6184.0,4160.0 6160.0,4160.0 C 6133.0,4160.0 6130.0,4163.0 6130.0,4190.0 C 6130.0,4239.0 6150.0,4269.0 6186.0,4276.0 C 6216.0,4281.0 6237.0,4310.0 6222.0,4324.0 C 6219.0,4327.0 6187.0,4329.0 6151.0,4329.0 C 6092.0,4328.0 6082.0,4325.0 6058.0,4299.0" fill="pink"/>
	<path d="M 1571.0,4286.0 C 1563.0,4277.0 1563.0,4265.0 1570.0,4246.0 C 1581.0,4217.0 1579.0,4218.0 1665.0,4199.0 C 1698.0,4192.0 1728.0,4181.0 1732.0,4176.0 C 1745.0,4158.0 1741.0,4111.0 1724.0,4078.0 C 1712.0,4055.0 1711.0,4046.0 1720.0,4040.0 C 1736.0,4030.0 1718.0,3996.0 1684.0,3974.0 C 1661.0,3958.0 1658.0,3958.0 1635.0,3980.0 C 1608.0,4006.0 1614.0,4009.0 1515.0,3930.0 C 1480.0,3902.0 1455.0,3890.0 1432.0,3890.0 C 1392.0,3890.0 1360.0,3905.0 1360.0,3924.0 C 1360.0,3937.0 1331.0,3950.0 1302.0,3950.0 C 1294.0,3950.0 1272.0,3932.0 1253.0,3910.0 C 1216.0,3869.0 1181.0,3859.0 1142.0,3879.0 C 1055.0,3923.0 1046.0,3919.0 1055.0,3840.0 C 1061.0,3787.0 1060.0,3781.0 1040.0,3770.0 C 1009.0,3753.0 946.0,3767.0 919.0,3796.0 C 902.0,3815.0 899.0,3823.0 908.0,3832.0 C 915.0,3839.0 920.0,3857.0 920.0,3872.0 C 920.0,3893.0 915.0,3900.0 900.0,3900.0 C 874.0,3900.0 857.0,3865.0 864.0,3826.0 C 869.0,3801.0 866.0,3789.0 850.0,3775.0 C 825.0,3752.0 825.0,3744.0 850.0,3723.0 C 881.0,3696.0 875.0,3672.0 835.0,3661.0 C 816.0,3656.0 786.0,3640.0 769.0,3626.0 C 752.0,3612.0 732.0,3600.0 723.0,3600.0 C 704.0,3600.0 630.0,3559.0 630.0,3549.0 C 630.0,3520.0 652.0,3490.0 673.0,3490.0 C 701.0,3490.0 743.0,3462.0 734.0,3449.0 C 731.0,3443.0 722.0,3446.0 715.0,3457.0 C 702.0,3474.0 701.0,3473.0 691.0,3447.0 C 685.0,3431.0 680.0,3414.0 680.0,3408.0 C 680.0,3402.0 672.0,3404.0 662.0,3413.0 C 637.0,3436.0 633.0,3435.0 627.0,3403.0 C 613.0,3331.0 612.0,3333.0 649.0,3342.0 C 663.0,3345.0 667.0,3334.0 687.0,3250.0 C 690.0,3236.0 699.0,3215.0 707.0,3204.0 C 720.0,3183.0 721.0,3183.0 758.0,3217.0 C 786.0,3243.0 802.0,3250.0 825.0,3248.0 C 851.0,3245.0 855.0,3240.0 858.0,3212.0 C 861.0,3182.0 858.0,3178.0 816.0,3160.0 C 767.0,3139.0 759.0,3123.0 788.0,3097.0 C 815.0,3073.0 840.0,3076.0 885.0,3111.0 C 925.0,3141.0 940.0,3137.0 921.0,3101.0 C 905.0,3071.0 908.0,3052.0 930.0,3045.0 C 943.0,3041.0 950.0,3030.0 950.0,3014.0 C 950.0,2986.0 974.0,2982.0 1008.0,3006.0 L 1030.0,3021.0 L 1009.0,3049.0 C 974.0,3096.0 1006.0,3129.0 1076.0,3115.0 C 1109.0,3109.0 1110.0,3110.0 1110.0,3140.0 C 1110.0,3157.0 1115.0,3180.0 1120.0,3191.0 C 1133.0,3214.0 1175.0,3216.0 1184.0,3194.0 C 1188.0,3184.0 1197.0,3181.0 1209.0,3185.0 C 1222.0,3189.0 1234.0,3183.0 1249.0,3164.0 C 1273.0,3133.0 1275.0,3096.0 1255.0,3060.0 C 1243.0,3038.0 1244.0,3033.0 1262.0,3013.0 C 1294.0,2979.0 1313.0,2983.0 1307.0,3023.0 C 1305.0,3040.0 1307.0,3066.0 1311.0,3078.0 C 1318.0,3096.0 1315.0,3109.0 1300.0,3130.0 C 1277.0,3162.0 1275.0,3188.0 1294.0,3213.0 C 1322.0,3249.0 1367.0,3231.0 1372.0,3180.0 C 1374.0,3154.0 1382.0,3142.0 1409.0,3126.0 C 1462.0,3095.0 1510.0,3117.0 1578.0,3203.0 C 1650.0,3292.0 1659.0,3292.0 1770.0,3190.0 C 1818.0,3146.0 1864.0,3110.0 1872.0,3110.0 C 1879.0,3110.0 1893.0,3101.0 1903.0,3090.0 C 1913.0,3078.0 1932.0,3070.0 1949.0,3070.0 C 1975.0,3070.0 1980.0,3074.0 1986.0,3105.0 C 1992.0,3141.0 2016.0,3153.0 2026.0,3125.0 C 2030.0,3117.0 2039.0,3110.0 2047.0,3110.0 C 2059.0,3110.0 2061.0,3117.0 2057.0,3140.0 C 2053.0,3156.0 2055.0,3172.0 2061.0,3175.0 C 2078.0,3186.0 2099.0,3160.0 2103.0,3122.0 L 2106.0,3085.0 L 2120.0,3118.0 C 2130.0,3141.0 2141.0,3150.0 2157.0,3150.0 C 2188.0,3150.0 2196.0,3147.0 2191.0,3135.0 C 2188.0,3130.0 2185.0,3105.0 2184.0,3080.0 C 2183.0,3056.0 2177.0,3034.0 2171.0,3032.0 C 2164.0,3030.0 2166.0,3018.0 2177.0,2998.0 C 2194.0,2970.0 2194.0,2968.0 2178.0,2956.0 C 2165.0,2946.0 2163.0,2941.0 2172.0,2932.0 C 2194.0,2910.0 2218.0,2918.0 2225.0,2950.0 C 2229.0,2966.0 2244.0,2990.0 2258.0,3002.0 C 2273.0,3015.0 2293.0,3037.0 2303.0,3053.0 C 2318.0,3077.0 2323.0,3079.0 2342.0,3069.0 L 2364.0,3057.0 L 2341.0,3048.0 C 2325.0,3042.0 2319.0,3034.0 2323.0,3021.0 C 2330.0,2994.0 2313.0,2969.0 2304.0,2993.0 C 2294.0,3020.0 2280.0,3013.0 2280.0,2980.0 C 2280.0,2943.0 2319.0,2918.0 2345.0,2940.0 C 2358.0,2951.0 2360.0,2948.0 2360.0,2921.0 C 2360.0,2904.0 2363.0,2890.0 2366.0,2890.0 C 2370.0,2890.0 2388.0,2904.0 2407.0,2920.0 C 2440.0,2950.0 2467.0,2956.0 2503.0,2941.0 C 2520.0,2935.0 2520.0,2933.0 2501.0,2916.0 C 2472.0,2889.0 2475.0,2864.0 2511.0,2838.0 C 2539.0,2817.0 2541.0,2812.0 2535.0,2770.0 C 2532.0,2745.0 2534.0,2718.0 2539.0,2710.0 C 2548.0,2697.0 2551.0,2698.0 2564.0,2715.0 C 2573.0,2726.0 2577.0,2741.0 2575.0,2748.0 C 2572.0,2756.0 2579.0,2773.0 2590.0,2787.0 C 2615.0,2819.0 2615.0,2841.0 2590.0,2890.0 C 2560.0,2949.0 2565.0,3010.0 2599.0,3010.0 C 2628.0,3010.0 2631.0,3021.0 2609.0,3051.0 C 2598.0,3067.0 2585.0,3093.0 2580.0,3109.0 C 2572.0,3137.0 2574.0,3140.0 2611.0,3154.0 C 2666.0,3176.0 2680.0,3240.0 2629.0,3240.0 C 2610.0,3240.0 2609.0,3245.0 2612.0,3315.0 L 2615.0,3390.0 L 2579.0,3390.0 C 2521.0,3390.0 2482.0,3415.0 2470.0,3461.0 C 2461.0,3493.0 2455.0,3500.0 2435.0,3500.0 C 2404.0,3500.0 2370.0,3533.0 2370.0,3563.0 C 2370.0,3575.0 2363.0,3598.0 2355.0,3614.0 C 2347.0,3629.0 2340.0,3648.0 2340.0,3656.0 C 2340.0,3663.0 2331.0,3674.0 2320.0,3680.0 C 2291.0,3695.0 2295.0,3728.0 2326.0,3741.0 C 2347.0,3748.0 2358.0,3747.0 2377.0,3735.0 C 2421.0,3706.0 2440.0,3680.0 2440.0,3650.0 C 2440.0,3627.0 2445.0,3619.0 2466.0,3614.0 C 2504.0,3604.0 2560.0,3638.0 2560.0,3670.0 C 2560.0,3701.0 2534.0,3740.0 2514.0,3740.0 C 2496.0,3740.0 2497.0,3742.0 2515.0,3787.0 C 2523.0,3806.0 2530.0,3836.0 2530.0,3852.0 C 2530.0,3871.0 2539.0,3889.0 2558.0,3905.0 C 2596.0,3939.0 2608.0,3936.0 2612.0,3893.0 C 2614.0,3866.0 2620.0,3854.0 2633.0,3852.0 C 2642.0,3850.0 2650.0,3855.0 2650.0,3862.0 C 2650.0,3881.0 2756.0,3944.0 2775.0,3936.0 C 2797.0,3928.0 2794.0,3914.0 2763.0,3885.0 C 2739.0,3864.0 2737.0,3858.0 2750.0,3850.0 C 2758.0,3845.0 2773.0,3840.0 2783.0,3840.0 C 2809.0,3840.0 2799.0,3818.0 2766.0,3801.0 C 2746.0,3792.0 2741.0,3785.0 2749.0,3777.0 C 2757.0,3769.0 2770.0,3771.0 2795.0,3783.0 C 2838.0,3804.0 2840.0,3804.0 2840.0,3785.0 C 2840.0,3776.0 2831.0,3770.0 2817.0,3770.0 C 2801.0,3770.0 2789.0,3761.0 2782.0,3745.0 C 2776.0,3731.0 2766.0,3720.0 2760.0,3720.0 C 2746.0,3720.0 2748.0,3672.0 2762.0,3668.0 C 2772.0,3664.0 2772.0,3655.0 2763.0,3627.0 C 2754.0,3598.0 2755.0,3590.0 2767.0,3586.0 C 2793.0,3576.0 2800.0,3579.0 2800.0,3602.0 C 2800.0,3614.0 2815.0,3638.0 2833.0,3655.0 C 2850.0,3673.0 2873.0,3699.0 2883.0,3713.0 C 2902.0,3742.0 2937.0,3749.0 2946.0,3725.0 C 2950.0,3715.0 2961.0,3713.0 2980.0,3717.0 C 3004.0,3721.0 3009.0,3719.0 3012.0,3699.0 C 3014.0,3680.0 3024.0,3673.0 3064.0,3663.0 C 3090.0,3656.0 3115.0,3648.0 3118.0,3645.0 C 3121.0,3642.0 3125.0,3611.0 3127.0,3576.0 C 3129.0,3515.0 3128.0,3511.0 3095.0,3481.0 C 3052.0,3442.0 3050.0,3426.0 3089.0,3432.0 C 3113.0,3435.0 3121.0,3432.0 3130.0,3412.0 C 3140.0,3389.0 3145.0,3388.0 3191.0,3393.0 C 3256.0,3401.0 3260.0,3404.0 3260.0,3451.0 C 3260.0,3525.0 3327.0,3553.0 3344.0,3485.0 C 3348.0,3469.0 3357.0,3460.0 3370.0,3460.0 C 3388.0,3460.0 3388.0,3462.0 3375.0,3508.0 C 3358.0,3563.0 3363.0,3590.0 3391.0,3590.0 C 3407.0,3590.0 3410.0,3595.0 3405.0,3609.0 C 3402.0,3620.0 3404.0,3631.0 3409.0,3635.0 C 3416.0,3639.0 3416.0,3649.0 3408.0,3665.0 C 3392.0,3701.0 3309.0,3725.0 3284.0,3700.0 C 3279.0,3695.0 3262.0,3694.0 3245.0,3698.0 C 3226.0,3703.0 3220.0,3709.0 3228.0,3714.0 C 3235.0,3718.0 3240.0,3731.0 3240.0,3743.0 C 3239.0,3759.0 3227.0,3771.0 3191.0,3788.0 C 3130.0,3816.0 3120.0,3816.0 3120.0,3784.0 C 3120.0,3760.0 3118.0,3759.0 3073.0,3762.0 C 3026.0,3765.0 3026.0,3765.0 3012.0,3812.0 C 3000.0,3857.0 2997.0,3859.0 2957.0,3865.0 C 2933.0,3869.0 2903.0,3880.0 2890.0,3890.0 C 2869.0,3906.0 2867.0,3911.0 2878.0,3934.0 C 2888.0,3956.0 2886.0,3963.0 2862.0,3991.0 C 2816.0,4046.0 2767.0,4061.0 2645.0,4056.0 C 2583.0,4053.0 2533.0,4047.0 2525.0,4040.0 C 2504.0,4023.0 2480.0,4044.0 2480.0,4080.0 C 2480.0,4109.0 2435.0,4148.0 2376.0,4170.0 C 2346.0,4181.0 2284.0,4174.0 2274.0,4159.0 C 2271.0,4153.0 2254.0,4158.0 2236.0,4170.0 L 2203.0,4190.0 L 2193.0,4167.0 C 2185.0,4150.0 2186.0,4139.0 2196.0,4125.0 C 2206.0,4112.0 2207.0,4103.0 2199.0,4093.0 C 2183.0,4075.0 2161.0,4077.0 2123.0,4099.0 C 2097.0,4115.0 2080.0,4118.0 2017.0,4113.0 C 1967.0,4109.0 1941.0,4111.0 1936.0,4119.0 C 1932.0,4125.0 1918.0,4130.0 1906.0,4130.0 C 1875.0,4130.0 1818.0,4154.0 1827.0,4163.0 C 1830.0,4167.0 1852.0,4170.0 1876.0,4170.0 C 1902.0,4170.0 1926.0,4177.0 1941.0,4189.0 C 1963.0,4207.0 1963.0,4208.0 1947.0,4234.0 C 1937.0,4248.0 1917.0,4262.0 1902.0,4266.0 C 1887.0,4269.0 1853.0,4278.0 1826.0,4286.0 C 1760.0,4305.0 1587.0,4305.0 1571.0,4286.0" fill="pink"/>
	<path d="M 5343.0,4148.0 C 5322.0,4115.0 5315.0,4094.0 5318.0,4078.0 C 5322.0,4056.0 5334.0,4055.0 5350.0,4075.0 C 5357.0,4083.0 5369.0,4090.0 5377.0,4090.0 C 5385.0,4090.0 5400.0,4095.0 5412.0,4101.0 C 5431.0,4111.0 5430.0,4113.0 5399.0,4136.0 C 5361.0,4163.0 5354.0,4165.0 5343.0,4148.0" fill="pink"/>
	<path d="M 4940.0,4062.0 C 4940.0,4040.0 4975.0,3983.0 5003.0,3959.0 C 5034.0,3932.0 5033.0,3910.0 5001.0,3910.0 C 4991.0,3910.0 4963.0,3903.0 4940.0,3895.0 C 4901.0,3881.0 4892.0,3881.0 4854.0,3896.0 C 4829.0,3906.0 4808.0,3922.0 4801.0,3937.0 C 4793.0,3955.0 4785.0,3960.0 4772.0,3955.0 C 4763.0,3952.0 4722.0,3943.0 4683.0,3937.0 C 4643.0,3931.0 4610.0,3922.0 4610.0,3918.0 C 4610.0,3914.0 4619.0,3905.0 4630.0,3897.0 C 4649.0,3884.0 4649.0,3883.0 4617.0,3865.0 C 4584.0,3848.0 4558.0,3848.0 4489.0,3865.0 C 4472.0,3869.0 4449.0,3866.0 4426.0,3855.0 C 4396.0,3840.0 4392.0,3835.0 4401.0,3819.0 C 4406.0,3808.0 4421.0,3800.0 4437.0,3800.0 C 4453.0,3800.0 4476.0,3786.0 4501.0,3761.0 C 4543.0,3720.0 4555.0,3722.0 4562.0,3772.0 C 4565.0,3799.0 4566.0,3800.0 4594.0,3785.0 C 4609.0,3777.0 4631.0,3770.0 4641.0,3770.0 C 4651.0,3770.0 4669.0,3757.0 4682.0,3740.0 C 4709.0,3703.0 4716.0,3703.0 4735.0,3740.0 C 4743.0,3756.0 4762.0,3773.0 4775.0,3776.0 C 4789.0,3779.0 4800.0,3786.0 4800.0,3791.0 C 4800.0,3796.0 4819.0,3800.0 4842.0,3800.0 C 4866.0,3800.0 4891.0,3807.0 4902.0,3817.0 C 4919.0,3832.0 4921.0,3832.0 4939.0,3816.0 C 4953.0,3803.0 4968.0,3801.0 5012.0,3806.0 C 5060.0,3812.0 5069.0,3810.0 5093.0,3789.0 C 5109.0,3774.0 5129.0,3735.0 5146.0,3685.0 C 5161.0,3641.0 5179.0,3596.0 5186.0,3585.0 C 5204.0,3560.0 5204.0,3526.0 5186.0,3511.0 C 5178.0,3505.0 5167.0,3486.0 5160.0,3470.0 C 5150.0,3445.0 5151.0,3437.0 5170.0,3410.0 C 5196.0,3373.0 5216.0,3362.0 5274.0,3351.0 C 5330.0,3341.0 5351.0,3351.0 5327.0,3378.0 C 5313.0,3393.0 5310.0,3417.0 5310.0,3506.0 C 5310.0,3566.0 5305.0,3633.0 5298.0,3655.0 C 5281.0,3718.0 5277.0,3819.0 5290.0,3866.0 C 5300.0,3901.0 5300.0,3916.0 5290.0,3940.0 L 5277.0,3971.0 L 5252.0,3935.0 C 5238.0,3916.0 5222.0,3900.0 5216.0,3900.0 C 5196.0,3900.0 5160.0,3931.0 5160.0,3948.0 C 5159.0,3974.0 5135.0,4000.0 5111.0,4000.0 C 5089.0,4000.0 5083.0,3986.0 5100.0,3975.0 C 5117.0,3965.0 5111.0,3940.0 5092.0,3940.0 C 5080.0,3940.0 5067.0,3955.0 5056.0,3980.0 C 5045.0,4006.0 5030.0,4022.0 5014.0,4026.0 C 5001.0,4030.0 4985.0,4041.0 4979.0,4051.0 C 4969.0,4070.0 4940.0,4078.0 4940.0,4062.0" fill="pink"/>
	<path d="M 4107.0,3443.0 C 4092.0,3429.0 4101.0,3402.0 4122.0,3396.0 C 4155.0,3388.0 4167.0,3406.0 4145.0,3430.0 C 4126.0,3451.0 4117.0,3454.0 4107.0,3443.0" fill="pink"/>
	<path d="M 3600.0,3335.0 C 3584.0,3316.0 3595.0,3270.0 3616.0,3270.0 C 3631.0,3270.0 3634.0,3275.0 3644.0,3323.0 C 3649.0,3345.0 3647.0,3350.0 3631.0,3350.0 C 3621.0,3350.0 3607.0,3343.0 3600.0,3335.0" fill="pink"/>
	<path d="M 4202.0,3237.0 C 4192.0,3226.0 4195.0,3221.0 4216.0,3211.0 C 4236.0,3202.0 4239.0,3196.0 4231.0,3186.0 C 4210.0,3161.0 4236.0,3145.0 4348.0,3115.0 C 4377.0,3107.0 4376.0,3097.0 4345.0,3080.0 C 4331.0,3073.0 4313.0,3056.0 4305.0,3043.0 C 4283.0,3010.0 4256.0,3014.0 4205.0,3061.0 L 4160.0,3103.0 L 4160.0,3052.0 C 4160.0,2991.0 4146.0,2950.0 4125.0,2950.0 C 4107.0,2950.0 4107.0,2948.0 4122.0,2915.0 C 4130.0,2898.0 4141.0,2890.0 4159.0,2890.0 C 4173.0,2890.0 4195.0,2887.0 4208.0,2884.0 C 4225.0,2879.0 4230.0,2882.0 4230.0,2898.0 C 4230.0,2924.0 4259.0,2934.0 4280.0,2915.0 C 4301.0,2896.0 4320.0,2896.0 4320.0,2914.0 C 4320.0,2938.0 4338.0,2942.0 4377.0,2929.0 C 4401.0,2921.0 4415.0,2921.0 4417.0,2927.0 C 4419.0,2933.0 4432.0,2935.0 4445.0,2932.0 C 4476.0,2927.0 4478.0,2945.0 4450.0,2980.0 C 4426.0,3010.0 4424.0,3050.0 4445.0,3050.0 C 4453.0,3050.0 4468.0,3054.0 4478.0,3059.0 C 4487.0,3065.0 4507.0,3071.0 4523.0,3075.0 C 4541.0,3079.0 4550.0,3087.0 4550.0,3100.0 C 4550.0,3113.0 4557.0,3120.0 4569.0,3120.0 C 4580.0,3120.0 4595.0,3127.0 4603.0,3135.0 C 4624.0,3156.0 4689.0,3144.0 4683.0,3120.0 C 4677.0,3097.0 4704.0,3088.0 4735.0,3102.0 C 4756.0,3112.0 4764.0,3110.0 4784.0,3091.0 C 4822.0,3055.0 4837.0,3071.0 4829.0,3139.0 C 4826.0,3172.0 4820.0,3203.0 4816.0,3208.0 C 4806.0,3224.0 4749.0,3233.0 4737.0,3221.0 C 4722.0,3206.0 4674.0,3207.0 4616.0,3225.0 C 4589.0,3233.0 4558.0,3240.0 4547.0,3240.0 C 4528.0,3240.0 4528.0,3239.0 4543.0,3222.0 C 4568.0,3195.0 4549.0,3175.0 4498.0,3177.0 C 4475.0,3178.0 4451.0,3185.0 4445.0,3193.0 C 4427.0,3218.0 4405.0,3218.0 4378.0,3193.0 C 4352.0,3169.0 4351.0,3168.0 4316.0,3185.0 C 4293.0,3196.0 4280.0,3209.0 4280.0,3221.0 C 4280.0,3232.0 4274.0,3240.0 4268.0,3240.0 C 4261.0,3240.0 4246.0,3243.0 4234.0,3246.0 C 4223.0,3249.0 4209.0,3245.0 4202.0,3237.0" fill="pink"/>
</svg>
