<?xml version="1.0" ?>
<svg xmlns="http://www.w3.org/2000/svg" xmlns:ev="http://www.w3.org/2001/xml-events" xmlns:xlink="http://www.w3.org/1999/xlink" baseProfile="full" height="256px" version="1.1" viewBox="-1028.931211656598 2511.5689516107104 12295.983932334071 5228.7290223397395" width="600px">
	<defs/>
	<path d="M 3321.0,7286.0 C 3307.0,7269.0 3335.0,7179.0 3369.0,7131.0 C 3398.0,7091.0 3396.0,7083.0 3355.0,7066.0 C 3336.0,7058.0 3320.0,7047.0 3320.0,7043.0 C 3320.0,7038.0 3334.0,7019.0 3351.0,7001.0 C 3380.0,6969.0 3384.0,6968.0 3436.0,6973.0 C 3471.0,6977.0 3503.0,6974.0 3523.0,6966.0 C 3602.0,6933.0 3600.0,6933.0 3600.0,6994.0 C 3600.0,7024.0 3605.0,7060.0 3612.0,7074.0 C 3621.0,7095.0 3620.0,7107.0 3605.0,7141.0 C 3585.0,7184.0 3566.0,7197.0 3482.0,7225.0 C 3448.0,7236.0 3422.0,7252.0 3408.0,7271.0 C 3384.0,7303.0 3341.0,7310.0 3321.0,7286.0" fill="pink"/>
	<path d="M 3520.0,6880.0 C 3501.0,6869.0 3468.0,6856.0 3447.0,6850.0 C 3414.0,6840.0 3409.0,6835.0 3414.0,6817.0 C 3417.0,6805.0 3420.0,6783.0 3420.0,6769.0 C 3420.0,6749.0 3428.0,6739.0 3450.0,6730.0 C 3467.0,6723.0 3487.0,6703.0 3496.0,6685.0 C 3523.0,6627.0 3574.0,6601.0 3671.0,6593.0 C 3773.0,6586.0 3786.0,6580.0 3794.0,6536.0 C 3802.0,6493.0 3821.0,6478.0 3880.0,6464.0 C 3932.0,6452.0 3955.0,6456.0 3942.0,6473.0 C 3937.0,6480.0 3927.0,6511.0 3920.0,6543.0 C 3908.0,6597.0 3908.0,6603.0 3929.0,6648.0 C 3950.0,6693.0 3951.0,6699.0 3937.0,6732.0 C 3928.0,6752.0 3912.0,6774.0 3899.0,6780.0 C 3873.0,6795.0 3782.0,6798.0 3723.0,6787.0 C 3688.0,6781.0 3680.0,6783.0 3680.0,6795.0 C 3680.0,6820.0 3600.0,6900.0 3576.0,6900.0 C 3565.0,6899.0 3539.0,6890.0 3520.0,6880.0" fill="pink"/>
	<path d="M 4920.0,6817.0 C 4920.0,6801.0 4930.0,6788.0 4953.0,6777.0 C 5016.0,6743.0 5048.0,6714.0 5081.0,6662.0 C 5100.0,6632.0 5129.0,6592.0 5146.0,6572.0 C 5163.0,6551.0 5180.0,6527.0 5183.0,6517.0 C 5187.0,6508.0 5203.0,6497.0 5219.0,6494.0 C 5236.0,6490.0 5275.0,6463.0 5307.0,6434.0 C 5374.0,6371.0 5403.0,6350.0 5424.0,6350.0 C 5438.0,6350.0 5481.0,6323.0 5565.0,6260.0 C 5587.0,6244.0 5621.0,6220.0 5640.0,6206.0 C 5659.0,6193.0 5689.0,6168.0 5705.0,6150.0 C 5722.0,6132.0 5745.0,6114.0 5758.0,6109.0 C 5770.0,6104.0 5785.0,6089.0 5790.0,6075.0 C 5795.0,6061.0 5804.0,6050.0 5810.0,6050.0 C 5827.0,6050.0 5821.0,5960.0 5801.0,5921.0 C 5791.0,5901.0 5770.0,5860.0 5756.0,5830.0 C 5714.0,5744.0 5623.0,5660.0 5571.0,5660.0 C 5561.0,5660.0 5541.0,5674.0 5527.0,5690.0 C 5512.0,5707.0 5490.0,5721.0 5477.0,5722.0 C 5465.0,5723.0 5437.0,5724.0 5415.0,5726.0 C 5352.0,5729.0 5321.0,5740.0 5291.0,5770.0 C 5272.0,5790.0 5249.0,5800.0 5211.0,5805.0 C 5171.0,5810.0 5152.0,5819.0 5132.0,5841.0 C 5118.0,5857.0 5097.0,5870.0 5084.0,5870.0 C 5072.0,5870.0 5049.0,5881.0 5033.0,5894.0 C 5018.0,5907.0 4990.0,5925.0 4972.0,5934.0 C 4953.0,5944.0 4933.0,5965.0 4925.0,5983.0 C 4918.0,6001.0 4902.0,6023.0 4890.0,6033.0 C 4873.0,6048.0 4869.0,6058.0 4874.0,6082.0 C 4882.0,6122.0 4863.0,6189.0 4842.0,6197.0 C 4833.0,6201.0 4820.0,6210.0 4814.0,6218.0 C 4806.0,6229.0 4799.0,6230.0 4782.0,6221.0 C 4757.0,6208.0 4736.0,6215.0 4704.0,6246.0 C 4692.0,6259.0 4677.0,6270.0 4671.0,6270.0 C 4666.0,6270.0 4660.0,6280.0 4658.0,6293.0 C 4655.0,6312.0 4649.0,6315.0 4610.0,6315.0 C 4547.0,6316.0 4553.0,6310.0 4499.0,6423.0 C 4487.0,6448.0 4423.0,6490.0 4397.0,6490.0 C 4392.0,6490.0 4379.0,6501.0 4368.0,6515.0 C 4344.0,6546.0 4320.0,6547.0 4320.0,6519.0 C 4320.0,6483.0 4362.0,6410.0 4382.0,6410.0 C 4404.0,6410.0 4405.0,6397.0 4384.0,6379.0 C 4367.0,6365.0 4371.0,6316.0 4394.0,6270.0 C 4425.0,6210.0 4422.0,6196.0 4377.0,6173.0 C 4333.0,6151.0 4259.0,6151.0 4233.0,6172.0 C 4224.0,6179.0 4209.0,6177.0 4185.0,6166.0 C 4151.0,6150.0 4149.0,6150.0 4105.0,6175.0 C 4080.0,6189.0 4043.0,6216.0 4024.0,6236.0 C 3983.0,6276.0 3964.0,6275.0 3949.0,6231.0 C 3931.0,6180.0 3897.0,6180.0 3868.0,6230.0 C 3842.0,6276.0 3804.0,6271.0 3746.0,6214.0 C 3710.0,6178.0 3690.0,6166.0 3662.0,6164.0 C 3622.0,6161.0 3542.0,6185.0 3524.0,6207.0 C 3518.0,6214.0 3502.0,6220.0 3488.0,6220.0 C 3474.0,6220.0 3451.0,6229.0 3437.0,6240.0 C 3423.0,6251.0 3404.0,6260.0 3394.0,6260.0 C 3385.0,6260.0 3362.0,6277.0 3344.0,6298.0 L 3310.0,6335.0 L 3285.0,6307.0 C 3263.0,6282.0 3252.0,6278.0 3201.0,6277.0 C 3164.0,6276.0 3136.0,6280.0 3126.0,6289.0 C 3108.0,6304.0 3034.0,6321.0 2985.0,6322.0 C 2969.0,6322.0 2952.0,6328.0 2948.0,6334.0 C 2936.0,6352.0 2886.0,6316.0 2882.0,6286.0 C 2877.0,6244.0 2783.0,6226.0 2726.0,6255.0 C 2711.0,6263.0 2692.0,6270.0 2685.0,6270.0 C 2678.0,6270.0 2670.0,6277.0 2666.0,6285.0 C 2658.0,6306.0 2640.0,6304.0 2615.0,6280.0 L 2593.0,6260.0 L 2547.0,6285.0 C 2509.0,6305.0 2500.0,6307.0 2500.0,6294.0 C 2500.0,6286.0 2486.0,6267.0 2469.0,6253.0 C 2443.0,6231.0 2439.0,6222.0 2444.0,6195.0 C 2449.0,6173.0 2446.0,6159.0 2435.0,6150.0 C 2417.0,6135.0 2416.0,6117.0 2432.0,6074.0 C 2442.0,6047.0 2440.0,6039.0 2421.0,6011.0 C 2404.0,5987.0 2391.0,5980.0 2366.0,5980.0 C 2332.0,5980.0 2300.0,5957.0 2319.0,5946.0 C 2332.0,5937.0 2352.0,5837.0 2344.0,5817.0 C 2330.0,5779.0 2160.0,5805.0 2160.0,5845.0 C 2160.0,5852.0 2144.0,5864.0 2125.0,5871.0 C 2095.0,5882.0 2090.0,5889.0 2084.0,5927.0 C 2081.0,5951.0 2069.0,5981.0 2058.0,5995.0 C 2041.0,6017.0 2031.0,6020.0 1975.0,6020.0 C 1909.0,6020.0 1839.0,6047.0 1812.0,6083.0 C 1794.0,6107.0 1743.0,6132.0 1735.0,6120.0 C 1732.0,6115.0 1723.0,6113.0 1715.0,6117.0 C 1692.0,6125.0 1696.0,6086.0 1720.0,6065.0 C 1744.0,6043.0 1770.0,5994.0 1770.0,5969.0 C 1770.0,5959.0 1757.0,5942.0 1740.0,5930.0 C 1721.0,5916.0 1710.0,5900.0 1710.0,5884.0 C 1710.0,5853.0 1692.0,5846.0 1644.0,5859.0 C 1618.0,5866.0 1602.0,5866.0 1594.0,5859.0 C 1587.0,5853.0 1567.0,5852.0 1548.0,5855.0 C 1521.0,5860.0 1507.0,5856.0 1472.0,5830.0 C 1436.0,5804.0 1423.0,5800.0 1397.0,5806.0 C 1357.0,5815.0 1278.0,5815.0 1218.0,5806.0 C 1184.0,5801.0 1169.0,5794.0 1165.0,5779.0 C 1155.0,5748.0 1125.0,5737.0 1092.0,5754.0 C 1076.0,5762.0 1058.0,5776.0 1051.0,5784.0 C 1041.0,5796.0 1020.0,5800.0 974.0,5800.0 C 930.0,5800.0 907.0,5805.0 896.0,5816.0 C 881.0,5830.0 879.0,5830.0 864.0,5816.0 C 844.0,5796.0 816.0,5796.0 800.0,5815.0 C 793.0,5824.0 771.0,5830.0 745.0,5830.0 C 710.0,5830.0 701.0,5826.0 692.0,5805.0 C 685.0,5791.0 680.0,5765.0 680.0,5749.0 L 680.0,5719.0 L 632.0,5726.0 C 606.0,5730.0 580.0,5740.0 574.0,5748.0 C 567.0,5758.0 558.0,5760.0 549.0,5754.0 C 541.0,5749.0 512.0,5745.0 483.0,5745.0 C 414.0,5745.0 400.0,5730.0 425.0,5687.0 C 435.0,5670.0 452.0,5649.0 462.0,5642.0 C 487.0,5624.0 485.0,5616.0 443.0,5554.0 C 419.0,5520.0 398.0,5500.0 385.0,5500.0 C 350.0,5499.0 336.0,5485.0 350.0,5463.0 C 360.0,5447.0 359.0,5438.0 346.0,5412.0 C 330.0,5380.0 298.0,5369.0 285.0,5391.0 C 280.0,5398.0 273.0,5397.0 262.0,5387.0 C 251.0,5377.0 238.0,5375.0 225.0,5380.0 C 214.0,5385.0 174.0,5389.0 137.0,5389.0 C 64.0,5390.0 45.0,5404.0 68.0,5441.0 C 84.0,5466.0 83.0,5470.0 61.0,5470.0 C 50.0,5470.0 38.0,5475.0 34.0,5482.0 C 24.0,5498.0 0.0,5462.0 0.0,5429.0 C 0.0,5412.0 12.0,5389.0 32.0,5368.0 C 50.0,5349.0 75.0,5322.0 87.0,5309.0 C 122.0,5271.0 149.0,5250.0 163.0,5250.0 C 170.0,5250.0 183.0,5234.0 190.0,5215.0 C 200.0,5191.0 212.0,5178.0 229.0,5174.0 C 244.0,5171.0 262.0,5166.0 270.0,5164.0 C 279.0,5162.0 310.0,5137.0 339.0,5110.0 C 381.0,5071.0 399.0,5060.0 426.0,5060.0 C 444.0,5060.0 462.0,5055.0 465.0,5049.0 C 469.0,5043.0 484.0,5042.0 500.0,5045.0 C 521.0,5050.0 533.0,5046.0 549.0,5028.0 C 561.0,5016.0 568.0,4999.0 565.0,4992.0 C 562.0,4984.0 572.0,4964.0 586.0,4947.0 C 600.0,4930.0 616.0,4906.0 621.0,4893.0 C 626.0,4880.0 636.0,4870.0 643.0,4870.0 C 651.0,4870.0 675.0,4858.0 696.0,4844.0 C 723.0,4826.0 748.0,4817.0 775.0,4818.0 C 861.0,4819.0 949.0,4825.0 954.0,4831.0 C 957.0,4834.0 963.0,4859.0 966.0,4886.0 C 976.0,4957.0 982.0,4961.0 1064.0,4957.0 C 1104.0,4955.0 1142.0,4950.0 1149.0,4946.0 C 1172.0,4932.0 1228.0,4950.0 1249.0,4978.0 C 1290.0,5032.0 1288.0,5031.0 1323.0,5013.0 C 1360.0,4994.0 1372.0,4980.0 1401.0,4923.0 C 1430.0,4863.0 1467.0,4863.0 1535.0,4925.0 C 1562.0,4950.0 1594.0,4970.0 1606.0,4970.0 C 1618.0,4970.0 1638.0,4978.0 1651.0,4989.0 C 1678.0,5009.0 1757.0,5023.0 1766.0,5009.0 C 1774.0,4995.0 1800.0,4998.0 1800.0,5013.0 C 1800.0,5032.0 1844.0,5050.0 1892.0,5050.0 C 1927.0,5050.0 1939.0,5056.0 1978.0,5095.0 C 2003.0,5121.0 2032.0,5140.0 2044.0,5140.0 C 2069.0,5140.0 2151.0,5203.0 2222.0,5276.0 C 2267.0,5322.0 2271.0,5324.0 2292.0,5311.0 C 2305.0,5303.0 2338.0,5296.0 2367.0,5295.0 C 2395.0,5295.0 2422.0,5291.0 2426.0,5287.0 C 2430.0,5283.0 2446.0,5280.0 2462.0,5280.0 C 2478.0,5280.0 2507.0,5273.0 2527.0,5265.0 C 2546.0,5257.0 2570.0,5250.0 2580.0,5250.0 C 2590.0,5250.0 2600.0,5243.0 2604.0,5235.0 C 2607.0,5227.0 2614.0,5220.0 2620.0,5220.0 C 2633.0,5220.0 2689.0,5181.0 2708.0,5160.0 C 2715.0,5151.0 2719.0,5131.0 2716.0,5110.0 C 2713.0,5091.0 2709.0,5066.0 2708.0,5055.0 C 2705.0,5037.0 2711.0,5035.0 2765.0,5033.0 C 2923.0,5028.0 2967.0,5023.0 3012.0,5003.0 C 3070.0,4977.0 3142.0,4928.0 3175.0,4892.0 C 3200.0,4865.0 3209.0,4830.0 3189.0,4830.0 C 3184.0,4830.0 3174.0,4816.0 3168.0,4800.0 C 3163.0,4783.0 3149.0,4765.0 3139.0,4759.0 C 3129.0,4754.0 3120.0,4740.0 3120.0,4730.0 C 3120.0,4709.0 3135.0,4703.0 3145.0,4720.0 C 3153.0,4733.0 3213.0,4727.0 3218.0,4712.0 C 3220.0,4704.0 3209.0,4700.0 3180.0,4700.0 C 3148.0,4700.0 3137.0,4696.0 3133.0,4681.0 C 3128.0,4663.0 3083.0,4656.0 2835.0,4637.0 C 2805.0,4635.0 2805.0,4634.0 2808.0,4585.0 C 2814.0,4500.0 2823.0,4497.0 2981.0,4510.0 C 3055.0,4516.0 3150.0,4524.0 3192.0,4527.0 L 3269.0,4533.0 L 3281.0,4504.0 C 3287.0,4488.0 3308.0,4444.0 3326.0,4405.0 C 3344.0,4367.0 3362.0,4323.0 3365.0,4308.0 C 3369.0,4294.0 3381.0,4273.0 3392.0,4263.0 C 3411.0,4246.0 3412.0,4246.0 3431.0,4269.0 C 3441.0,4282.0 3450.0,4305.0 3450.0,4321.0 C 3450.0,4344.0 3457.0,4353.0 3478.0,4362.0 C 3530.0,4385.0 3539.0,4401.0 3533.0,4469.0 L 3527.0,4530.0 L 3564.0,4545.0 C 3608.0,4564.0 3717.0,4576.0 3754.0,4566.0 C 3782.0,4559.0 3820.0,4508.0 3820.0,4478.0 C 3820.0,4468.0 3811.0,4452.0 3800.0,4442.0 C 3783.0,4426.0 3780.0,4414.0 3784.0,4366.0 C 3787.0,4314.0 3784.0,4300.0 3749.0,4234.0 C 3727.0,4193.0 3710.0,4154.0 3710.0,4147.0 C 3710.0,4117.0 3756.0,4030.0 3772.0,4030.0 C 3781.0,4030.0 3791.0,4026.0 3794.0,4021.0 C 3803.0,4007.0 3883.0,4021.0 3898.0,4039.0 C 3906.0,4050.0 3909.0,4076.0 3905.0,4120.0 C 3899.0,4211.0 3899.0,4211.0 3906.0,4253.0 C 3909.0,4273.0 3916.0,4293.0 3921.0,4296.0 C 3926.0,4299.0 3930.0,4321.0 3930.0,4346.0 C 3930.0,4385.0 3933.0,4390.0 3952.0,4390.0 C 3964.0,4390.0 3983.0,4398.0 3994.0,4408.0 C 4007.0,4418.0 4004.0,4413.0 3988.0,4392.0 C 3952.0,4349.0 3945.0,4305.0 3965.0,4258.0 C 3973.0,4237.0 3985.0,4220.0 3990.0,4220.0 C 3996.0,4220.0 4005.0,4209.0 4010.0,4195.0 C 4017.0,4177.0 4027.0,4170.0 4045.0,4170.0 C 4059.0,4170.0 4075.0,4161.0 4082.0,4150.0 C 4098.0,4125.0 4110.0,4125.0 4158.0,4150.0 C 4221.0,4183.0 4233.0,4202.0 4228.0,4260.0 C 4224.0,4302.0 4226.0,4310.0 4242.0,4315.0 C 4252.0,4319.0 4267.0,4315.0 4276.0,4306.0 C 4296.0,4286.0 4306.0,4286.0 4314.0,4306.0 C 4325.0,4334.0 4321.0,4340.0 4291.0,4340.0 C 4274.0,4340.0 4259.0,4344.0 4256.0,4349.0 C 4247.0,4363.0 4309.0,4410.0 4336.0,4410.0 C 4363.0,4410.0 4368.0,4427.0 4344.0,4444.0 C 4330.0,4455.0 4331.0,4460.0 4352.0,4493.0 C 4377.0,4532.0 4394.0,4539.0 4404.0,4515.0 C 4407.0,4507.0 4416.0,4500.0 4423.0,4500.0 C 4431.0,4500.0 4440.0,4486.0 4444.0,4468.0 L 4451.0,4435.0 L 4503.0,4494.0 C 4552.0,4549.0 4558.0,4552.0 4590.0,4547.0 C 4677.0,4532.0 4695.0,4526.0 4716.0,4500.0 C 4747.0,4463.0 4890.0,4431.0 4890.0,4461.0 C 4890.0,4467.0 4899.0,4470.0 4910.0,4467.0 C 4950.0,4457.0 4976.0,4540.0 4949.0,4591.0 C 4940.0,4608.0 4942.0,4612.0 4957.0,4616.0 C 4967.0,4619.0 4980.0,4631.0 4985.0,4643.0 C 4992.0,4658.0 5011.0,4668.0 5050.0,4677.0 C 5080.0,4684.0 5152.0,4701.0 5210.0,4715.0 C 5348.0,4750.0 5420.0,4757.0 5420.0,4737.0 C 5420.0,4710.0 5460.0,4706.0 5491.0,4729.0 C 5508.0,4742.0 5534.0,4750.0 5559.0,4750.0 C 5596.0,4750.0 5601.0,4747.0 5627.0,4700.0 L 5655.0,4650.0 L 5743.0,4650.0 C 5819.0,4650.0 5836.0,4647.0 5870.0,4625.0 C 5912.0,4598.0 5924.0,4582.0 5934.0,4535.0 C 5940.0,4506.0 5935.0,4501.0 5824.0,4416.0 C 5695.0,4317.0 5694.0,4316.0 5746.0,4237.0 C 5768.0,4203.0 5770.0,4194.0 5760.0,4171.0 C 5742.0,4125.0 5761.0,4093.0 5815.0,4079.0 C 5848.0,4071.0 5860.0,4063.0 5860.0,4049.0 C 5860.0,4039.0 5856.0,4029.0 5850.0,4025.0 C 5844.0,4021.0 5844.0,4010.0 5850.0,3994.0 C 5867.0,3951.0 5862.0,3908.0 5836.0,3881.0 C 5810.0,3852.0 5777.0,3773.0 5785.0,3760.0 C 5788.0,3755.0 5804.0,3759.0 5822.0,3767.0 C 5843.0,3778.0 5883.0,3784.0 5939.0,3784.0 L 6025.0,3785.0 L 6028.0,3758.0 C 6030.0,3740.0 6037.0,3730.0 6048.0,3730.0 C 6057.0,3730.0 6085.0,3719.0 6109.0,3705.0 C 6140.0,3687.0 6167.0,3680.0 6205.0,3680.0 C 6253.0,3680.0 6259.0,3678.0 6262.0,3658.0 C 6264.0,3643.0 6275.0,3633.0 6298.0,3626.0 C 6318.0,3621.0 6337.0,3606.0 6345.0,3590.0 C 6353.0,3574.0 6377.0,3556.0 6404.0,3545.0 C 6429.0,3534.0 6450.0,3522.0 6450.0,3518.0 C 6450.0,3505.0 6494.0,3510.0 6514.0,3525.0 C 6539.0,3544.0 6560.0,3544.0 6560.0,3525.0 C 6560.0,3517.0 6566.0,3510.0 6574.0,3510.0 C 6582.0,3510.0 6590.0,3494.0 6594.0,3468.0 C 6598.0,3444.0 6605.0,3410.0 6611.0,3392.0 C 6621.0,3360.0 6624.0,3359.0 6668.0,3362.0 C 6706.0,3364.0 6717.0,3370.0 6725.0,3388.0 C 6737.0,3415.0 6774.0,3427.0 6795.0,3410.0 C 6803.0,3403.0 6810.0,3384.0 6810.0,3368.0 C 6810.0,3337.0 6834.0,3320.0 6853.0,3339.0 C 6872.0,3358.0 6900.0,3351.0 6941.0,3319.0 C 6968.0,3298.0 6986.0,3290.0 6998.0,3296.0 C 7007.0,3300.0 7023.0,3302.0 7033.0,3301.0 C 7052.0,3298.0 7057.0,3339.0 7040.0,3356.0 C 7028.0,3368.0 7050.0,3418.0 7079.0,3444.0 C 7107.0,3470.0 7144.0,3461.0 7148.0,3428.0 C 7153.0,3382.0 7173.0,3375.0 7219.0,3406.0 C 7241.0,3420.0 7271.0,3432.0 7285.0,3433.0 C 7299.0,3433.0 7310.0,3438.0 7310.0,3445.0 C 7310.0,3452.0 7325.0,3460.0 7343.0,3463.0 C 7368.0,3467.0 7380.0,3463.0 7396.0,3445.0 C 7408.0,3433.0 7427.0,3419.0 7439.0,3415.0 C 7456.0,3410.0 7460.0,3403.0 7456.0,3386.0 C 7450.0,3362.0 7466.0,3349.0 7518.0,3335.0 C 7531.0,3331.0 7548.0,3313.0 7558.0,3292.0 C 7569.0,3268.0 7583.0,3254.0 7597.0,3252.0 C 7609.0,3250.0 7622.0,3240.0 7625.0,3230.0 C 7630.0,3214.0 7635.0,3213.0 7656.0,3222.0 C 7677.0,3232.0 7683.0,3230.0 7701.0,3212.0 C 7719.0,3191.0 7723.0,3191.0 7743.0,3205.0 C 7774.0,3227.0 7831.0,3225.0 7837.0,3201.0 C 7840.0,3191.0 7856.0,3178.0 7873.0,3173.0 C 7899.0,3166.0 7904.0,3160.0 7902.0,3139.0 C 7900.0,3121.0 7908.0,3108.0 7930.0,3092.0 C 7959.0,3070.0 7961.0,3065.0 7958.0,3012.0 C 7955.0,2959.0 7957.0,2955.0 7978.0,2952.0 C 7991.0,2950.0 8002.0,2955.0 8006.0,2964.0 C 8009.0,2972.0 8027.0,2984.0 8046.0,2990.0 C 8065.0,2996.0 8080.0,3006.0 8080.0,3011.0 C 8080.0,3016.0 8096.0,3020.0 8116.0,3020.0 C 8135.0,3020.0 8160.0,3025.0 8171.0,3030.0 C 8198.0,3045.0 8195.0,3079.0 8165.0,3090.0 C 8151.0,3095.0 8135.0,3111.0 8130.0,3124.0 C 8125.0,3138.0 8111.0,3154.0 8100.0,3160.0 C 8072.0,3175.0 8076.0,3224.0 8106.0,3228.0 C 8118.0,3230.0 8134.0,3245.0 8143.0,3266.0 C 8164.0,3310.0 8165.0,3307.0 8133.0,3313.0 C 8115.0,3316.0 8092.0,3311.0 8067.0,3297.0 C 8038.0,3281.0 8027.0,3279.0 8018.0,3288.0 C 8009.0,3297.0 8013.0,3307.0 8034.0,3329.0 C 8063.0,3360.0 8064.0,3386.0 8034.0,3410.0 C 8023.0,3420.0 8022.0,3426.0 8031.0,3437.0 C 8048.0,3457.0 8028.0,3475.0 8004.0,3462.0 C 7982.0,3451.0 7913.0,3458.0 7904.0,3471.0 C 7901.0,3476.0 7882.0,3480.0 7862.0,3480.0 C 7829.0,3480.0 7823.0,3485.0 7808.0,3519.0 C 7785.0,3568.0 7785.0,3613.0 7808.0,3633.0 C 7830.0,3653.0 7860.0,3654.0 7920.0,3637.0 C 7972.0,3622.0 8106.0,3623.0 8165.0,3638.0 C 8191.0,3645.0 8217.0,3662.0 8238.0,3687.0 C 8270.0,3724.0 8273.0,3725.0 8340.0,3726.0 C 8405.0,3726.0 8409.0,3728.0 8443.0,3763.0 C 8462.0,3783.0 8482.0,3800.0 8487.0,3800.0 C 8492.0,3800.0 8501.0,3812.0 8506.0,3828.0 L 8516.0,3855.0 L 8553.0,3817.0 C 8586.0,3782.0 8605.0,3740.0 8580.0,3755.0 C 8560.0,3767.0 8530.0,3749.0 8530.0,3725.0 C 8530.0,3712.0 8535.0,3698.0 8540.0,3695.0 C 8546.0,3692.0 8550.0,3674.0 8550.0,3656.0 C 8550.0,3633.0 8559.0,3615.0 8579.0,3596.0 C 8612.0,3564.0 8630.0,3568.0 8630.0,3607.0 C 8630.0,3644.0 8657.0,3659.0 8722.0,3660.0 C 8772.0,3660.0 8782.0,3663.0 8796.0,3685.0 C 8816.0,3715.0 8880.0,3722.0 8880.0,3694.0 C 8880.0,3682.0 8886.0,3679.0 8903.0,3684.0 C 8915.0,3687.0 8931.0,3690.0 8937.0,3690.0 C 8944.0,3690.0 8956.0,3705.0 8964.0,3724.0 C 8982.0,3768.0 8994.0,3774.0 9025.0,3754.0 C 9045.0,3741.0 9053.0,3740.0 9065.0,3750.0 C 9076.0,3759.0 9084.0,3759.0 9093.0,3752.0 C 9105.0,3742.0 9110.0,3740.0 9131.0,3740.0 C 9139.0,3740.0 9140.0,3736.0 9131.0,3727.0 C 9115.0,3707.0 9125.0,3702.0 9180.0,3708.0 C 9221.0,3712.0 9231.0,3709.0 9237.0,3695.0 C 9241.0,3682.0 9234.0,3669.0 9211.0,3648.0 C 9181.0,3621.0 9180.0,3618.0 9194.0,3592.0 C 9202.0,3577.0 9211.0,3556.0 9215.0,3545.0 C 9221.0,3526.0 9222.0,3526.0 9234.0,3543.0 C 9241.0,3552.0 9254.0,3560.0 9263.0,3560.0 C 9272.0,3560.0 9285.0,3570.0 9291.0,3582.0 C 9302.0,3603.0 9303.0,3603.0 9316.0,3585.0 C 9324.0,3575.0 9330.0,3558.0 9330.0,3548.0 C 9330.0,3525.0 9359.0,3512.0 9370.0,3530.0 C 9377.0,3541.0 9382.0,3541.0 9393.0,3531.0 C 9402.0,3525.0 9419.0,3522.0 9433.0,3525.0 C 9466.0,3534.0 9490.0,3508.0 9490.0,3464.0 C 9490.0,3442.0 9496.0,3427.0 9505.0,3424.0 C 9513.0,3420.0 9520.0,3412.0 9520.0,3405.0 C 9520.0,3384.0 9537.0,3378.0 9570.0,3385.0 C 9590.0,3389.0 9600.0,3398.0 9600.0,3410.0 C 9600.0,3421.0 9611.0,3432.0 9630.0,3439.0 C 9647.0,3444.0 9660.0,3454.0 9660.0,3460.0 C 9660.0,3479.0 9628.0,3520.0 9614.0,3520.0 C 9591.0,3520.0 9574.0,3568.0 9588.0,3591.0 C 9595.0,3601.0 9600.0,3616.0 9600.0,3624.0 C 9600.0,3640.0 9637.0,3670.0 9657.0,3670.0 C 9664.0,3670.0 9670.0,3661.0 9670.0,3650.0 C 9670.0,3623.0 9704.0,3624.0 9754.0,3651.0 C 9789.0,3669.0 9794.0,3670.0 9802.0,3656.0 C 9807.0,3648.0 9818.0,3633.0 9828.0,3624.0 C 9837.0,3614.0 9845.0,3599.0 9845.0,3591.0 C 9845.0,3581.0 9856.0,3574.0 9875.0,3572.0 C 9892.0,3571.0 9914.0,3565.0 9925.0,3560.0 C 9952.0,3547.0 10034.0,3571.0 10038.0,3594.0 C 10041.0,3606.0 10034.0,3610.0 10012.0,3610.0 C 9996.0,3610.0 9977.0,3617.0 9970.0,3625.0 C 9963.0,3633.0 9951.0,3640.0 9944.0,3640.0 C 9925.0,3640.0 9926.0,3660.0 9946.0,3688.0 C 9961.0,3710.0 9961.0,3712.0 9941.0,3717.0 C 9930.0,3720.0 9918.0,3731.0 9915.0,3741.0 C 9911.0,3751.0 9903.0,3761.0 9897.0,3762.0 C 9846.0,3768.0 9820.0,3770.0 9787.0,3770.0 C 9750.0,3769.0 9749.0,3770.0 9752.0,3801.0 C 9755.0,3828.0 9751.0,3833.0 9733.0,3835.0 C 9705.0,3837.0 9704.0,3838.0 9697.0,3877.0 C 9692.0,3904.0 9695.0,3913.0 9721.0,3934.0 C 9738.0,3948.0 9759.0,3960.0 9769.0,3960.0 C 9778.0,3960.0 9817.0,3975.0 9855.0,3993.0 C 9918.0,4023.0 9930.0,4025.0 9975.0,4018.0 C 10003.0,4014.0 10037.0,4003.0 10052.0,3995.0 C 10089.0,3974.0 10213.0,3975.0 10231.0,3996.0 C 10243.0,4010.0 10241.0,4015.0 10216.0,4035.0 C 10201.0,4047.0 10183.0,4068.0 10176.0,4081.0 C 10166.0,4102.0 10156.0,4106.0 10090.0,4111.0 C 9897.0,4125.0 9826.0,4106.0 9728.0,4009.0 C 9687.0,3969.0 9644.0,3954.0 9606.0,3968.0 C 9588.0,3975.0 9562.0,3980.0 9548.0,3980.0 C 9533.0,3980.0 9513.0,3992.0 9497.0,4010.0 C 9465.0,4045.0 9450.0,4047.0 9425.0,4020.0 C 9406.0,3999.0 9319.0,3970.0 9273.0,3970.0 C 9258.0,3970.0 9228.0,3961.0 9207.0,3950.0 C 9163.0,3926.0 9160.0,3926.0 9160.0,3945.0 C 9160.0,3953.0 9172.0,3967.0 9188.0,3977.0 C 9203.0,3986.0 9235.0,4010.0 9260.0,4030.0 C 9329.0,4085.0 9357.0,4100.0 9390.0,4100.0 C 9423.0,4100.0 9432.0,4113.0 9434.0,4162.0 C 9435.0,4189.0 9437.0,4191.0 9465.0,4185.0 C 9507.0,4175.0 9534.0,4177.0 9538.0,4190.0 C 9540.0,4196.0 9553.0,4205.0 9566.0,4210.0 C 9584.0,4217.0 9590.0,4227.0 9590.0,4251.0 C 9590.0,4327.0 9533.0,4390.0 9465.0,4390.0 C 9447.0,4390.0 9427.0,4397.0 9419.0,4406.0 C 9408.0,4420.0 9410.0,4421.0 9440.0,4418.0 C 9485.0,4414.0 9490.0,4436.0 9448.0,4453.0 L 9415.0,4466.0 L 9438.0,4485.0 C 9450.0,4496.0 9460.0,4510.0 9460.0,4517.0 C 9460.0,4533.0 9424.0,4534.0 9414.0,4519.0 C 9404.0,4503.0 9345.0,4515.0 9310.0,4540.0 C 9284.0,4559.0 9280.0,4568.0 9280.0,4609.0 C 9280.0,4665.0 9292.0,4680.0 9337.0,4680.0 C 9355.0,4680.0 9370.0,4684.0 9370.0,4689.0 C 9370.0,4707.0 9312.0,4740.0 9282.0,4740.0 C 9244.0,4740.0 9181.0,4714.0 9161.0,4689.0 C 9152.0,4678.0 9128.0,4667.0 9108.0,4663.0 C 9067.0,4657.0 9010.0,4675.0 9010.0,4694.0 C 9010.0,4710.0 8951.0,4780.0 8938.0,4780.0 C 8921.0,4780.0 8840.0,4850.0 8829.0,4874.0 C 8824.0,4885.0 8816.0,4903.0 8810.0,4913.0 C 8805.0,4922.0 8797.0,4937.0 8792.0,4946.0 C 8780.0,4972.0 8623.0,5031.0 8548.0,5037.0 C 8507.0,5040.0 8479.0,5048.0 8476.0,5056.0 C 8470.0,5072.0 8507.0,5120.0 8526.0,5120.0 C 8534.0,5120.0 8560.0,5130.0 8582.0,5141.0 C 8613.0,5157.0 8641.0,5162.0 8687.0,5161.0 C 8755.0,5160.0 8763.0,5168.0 8732.0,5206.0 C 8702.0,5244.0 8618.0,5242.0 8542.0,5202.0 L 8509.0,5185.0 L 8474.0,5228.0 C 8442.0,5265.0 8434.0,5270.0 8396.0,5270.0 C 8367.0,5270.0 8348.0,5276.0 8336.0,5289.0 C 8301.0,5328.0 8145.0,5350.0 8103.0,5322.0 C 8090.0,5314.0 8080.0,5302.0 8080.0,5294.0 C 8080.0,5273.0 8042.0,5256.0 8024.0,5271.0 C 8007.0,5285.0 8006.0,5304.0 8022.0,5330.0 C 8044.0,5364.0 8015.0,5371.0 7908.0,5356.0 C 7853.0,5348.0 7850.0,5349.0 7850.0,5369.0 C 7850.0,5383.0 7856.0,5390.0 7868.0,5390.0 C 7878.0,5390.0 7897.0,5401.0 7909.0,5414.0 L 7932.0,5438.0 L 7888.0,5445.0 C 7864.0,5449.0 7841.0,5455.0 7835.0,5459.0 C 7830.0,5463.0 7804.0,5466.0 7778.0,5466.0 C 7741.0,5465.0 7730.0,5469.0 7726.0,5483.0 C 7723.0,5496.0 7711.0,5500.0 7672.0,5500.0 C 7644.0,5500.0 7618.0,5505.0 7614.0,5511.0 C 7610.0,5518.0 7596.0,5511.0 7576.0,5492.0 C 7559.0,5476.0 7523.0,5457.0 7497.0,5450.0 C 7452.0,5438.0 7448.0,5438.0 7425.0,5460.0 C 7396.0,5487.0 7393.0,5512.0 7416.0,5531.0 C 7437.0,5549.0 7430.0,5668.0 7407.0,5681.0 C 7398.0,5686.0 7392.0,5705.0 7392.0,5730.0 C 7391.0,5774.0 7376.0,5795.0 7317.0,5828.0 C 7275.0,5852.0 7244.0,5857.0 7256.0,5838.0 C 7261.0,5831.0 7258.0,5829.0 7247.0,5833.0 C 7238.0,5836.0 7220.0,5830.0 7207.0,5819.0 C 7193.0,5809.0 7170.0,5800.0 7154.0,5800.0 C 7128.0,5800.0 7128.0,5799.0 7168.0,5770.0 C 7191.0,5754.0 7212.0,5740.0 7216.0,5740.0 C 7224.0,5740.0 7283.0,5680.0 7279.0,5676.0 C 7242.0,5644.0 7196.0,5644.0 7162.0,5675.0 C 7141.0,5694.0 7138.0,5702.0 7148.0,5712.0 C 7155.0,5719.0 7160.0,5731.0 7160.0,5741.0 C 7160.0,5754.0 7152.0,5756.0 7111.0,5752.0 C 7055.0,5747.0 7023.0,5761.0 7018.0,5792.0 C 7016.0,5807.0 7005.0,5817.0 6983.0,5824.0 C 6965.0,5829.0 6950.0,5839.0 6950.0,5845.0 C 6950.0,5859.0 6928.0,5870.0 6900.0,5870.0 C 6890.0,5870.0 6880.0,5879.0 6877.0,5890.0 C 6873.0,5905.0 6863.0,5910.0 6841.0,5910.0 C 6822.0,5910.0 6807.0,5916.0 6803.0,5925.0 C 6794.0,5949.0 6731.0,5972.0 6665.0,5975.0 C 6632.0,5977.0 6569.0,5983.0 6525.0,5988.0 C 6385.0,6006.0 6297.0,6010.0 6283.0,5999.0 C 6261.0,5980.0 6226.0,5997.0 6206.0,6037.0 C 6196.0,6058.0 6184.0,6082.0 6180.0,6090.0 C 6170.0,6112.0 6099.0,6150.0 6068.0,6150.0 C 6053.0,6150.0 6038.0,6155.0 6035.0,6160.0 C 6025.0,6177.0 5951.0,6221.0 5937.0,6219.0 C 5878.0,6209.0 5794.0,6264.0 5788.0,6318.0 C 5786.0,6334.0 5776.0,6349.0 5761.0,6357.0 C 5748.0,6363.0 5733.0,6376.0 5728.0,6384.0 C 5723.0,6393.0 5713.0,6400.0 5706.0,6400.0 C 5699.0,6400.0 5683.0,6411.0 5670.0,6425.0 C 5653.0,6443.0 5636.0,6450.0 5608.0,6450.0 C 5587.0,6450.0 5570.0,6454.0 5570.0,6460.0 C 5570.0,6480.0 5518.0,6520.0 5492.0,6520.0 C 5476.0,6520.0 5460.0,6528.0 5452.0,6540.0 C 5445.0,6551.0 5432.0,6560.0 5422.0,6560.0 C 5396.0,6560.0 5282.0,6599.0 5223.0,6628.0 C 5185.0,6647.0 5162.0,6667.0 5139.0,6703.0 C 5106.0,6754.0 5067.0,6784.0 5013.0,6799.0 C 4995.0,6804.0 4973.0,6815.0 4964.0,6824.0 C 4941.0,6847.0 4920.0,6844.0 4920.0,6817.0" fill="pink"/>
	<path d="M 5094.0,4569.0 C 5090.0,4562.0 5074.0,4560.0 5055.0,4563.0 C 5008.0,4571.0 4990.0,4548.0 4990.0,4478.0 C 4990.0,4425.0 4992.0,4421.0 5019.0,4412.0 C 5035.0,4406.0 5051.0,4404.0 5053.0,4407.0 C 5056.0,4409.0 5068.0,4406.0 5080.0,4400.0 C 5100.0,4389.0 5102.0,4382.0 5097.0,4334.0 C 5094.0,4304.0 5096.0,4278.0 5101.0,4275.0 C 5106.0,4271.0 5110.0,4259.0 5110.0,4247.0 C 5110.0,4235.0 5117.0,4216.0 5125.0,4206.0 C 5133.0,4195.0 5140.0,4169.0 5140.0,4148.0 C 5140.0,4127.0 5144.0,4110.0 5149.0,4110.0 C 5168.0,4110.0 5190.0,4078.0 5190.0,4052.0 C 5190.0,4033.0 5201.0,4017.0 5225.0,3997.0 C 5244.0,3982.0 5263.0,3955.0 5268.0,3938.0 C 5280.0,3892.0 5295.0,3893.0 5325.0,3944.0 C 5340.0,3969.0 5358.0,3990.0 5366.0,3990.0 C 5374.0,3990.0 5380.0,3994.0 5380.0,3999.0 C 5380.0,4004.0 5396.0,4018.0 5415.0,4031.0 C 5451.0,4056.0 5458.0,4078.0 5441.0,4123.0 C 5436.0,4136.0 5423.0,4150.0 5412.0,4152.0 C 5399.0,4156.0 5387.0,4176.0 5375.0,4215.0 C 5365.0,4246.0 5350.0,4275.0 5341.0,4278.0 C 5332.0,4281.0 5321.0,4289.0 5317.0,4297.0 C 5303.0,4320.0 5263.0,4313.0 5256.0,4285.0 C 5252.0,4269.0 5243.0,4260.0 5230.0,4260.0 C 5205.0,4260.0 5195.0,4277.0 5208.0,4303.0 C 5213.0,4315.0 5222.0,4358.0 5227.0,4398.0 C 5236.0,4471.0 5236.0,4472.0 5209.0,4491.0 C 5193.0,4502.0 5178.0,4519.0 5175.0,4530.0 C 5171.0,4541.0 5160.0,4550.0 5150.0,4550.0 C 5140.0,4550.0 5130.0,4557.0 5126.0,4565.0 C 5120.0,4583.0 5104.0,4585.0 5094.0,4569.0" fill="pink"/>
	<path d="M 4696.0,4253.0 C 4692.0,4248.0 4672.0,4245.0 4652.0,4245.0 C 4623.0,4245.0 4615.0,4241.0 4612.0,4225.0 C 4606.0,4200.0 4565.0,4157.0 4520.0,4133.0 C 4493.0,4118.0 4484.0,4105.0 4479.0,4079.0 C 4472.0,4032.0 4465.0,4023.0 4429.0,4015.0 C 4412.0,4011.0 4396.0,4001.0 4392.0,3992.0 C 4389.0,3982.0 4373.0,3958.0 4356.0,3938.0 C 4335.0,3910.0 4319.0,3900.0 4299.0,3900.0 C 4284.0,3900.0 4268.0,3896.0 4265.0,3890.0 C 4262.0,3885.0 4251.0,3880.0 4240.0,3880.0 C 4230.0,3880.0 4206.0,3864.0 4186.0,3844.0 C 4151.0,3809.0 4149.0,3808.0 4135.0,3826.0 C 4127.0,3837.0 4121.0,3840.0 4120.0,3833.0 C 4120.0,3826.0 4111.0,3820.0 4101.0,3820.0 C 4082.0,3820.0 4070.0,3802.0 4070.0,3770.0 C 4070.0,3761.0 4063.0,3747.0 4055.0,3740.0 C 4033.0,3722.0 4046.0,3711.0 4084.0,3717.0 C 4124.0,3723.0 4170.0,3697.0 4170.0,3668.0 C 4170.0,3638.0 4151.0,3609.0 4132.0,3611.0 C 4102.0,3614.0 4095.0,3611.0 4060.0,3578.0 C 4031.0,3552.0 4024.0,3550.0 4022.0,3563.0 C 4020.0,3572.0 4013.0,3580.0 4007.0,3580.0 C 3988.0,3579.0 3960.0,3554.0 3960.0,3538.0 C 3960.0,3529.0 3953.0,3517.0 3945.0,3510.0 C 3907.0,3478.0 3945.0,3448.0 4018.0,3450.0 C 4094.0,3453.0 4100.0,3451.0 4100.0,3431.0 C 4100.0,3410.0 4135.0,3380.0 4158.0,3380.0 C 4170.0,3380.0 4170.0,3383.0 4159.0,3396.0 C 4147.0,3410.0 4150.0,3416.0 4175.0,3436.0 C 4192.0,3449.0 4209.0,3460.0 4213.0,3460.0 C 4228.0,3460.0 4233.0,3428.0 4221.0,3406.0 C 4202.0,3371.0 4149.0,3357.0 4069.0,3365.0 C 4010.0,3371.0 4000.0,3370.0 4000.0,3356.0 C 4000.0,3347.0 4008.0,3340.0 4017.0,3340.0 C 4039.0,3340.0 4022.0,3323.0 3996.0,3318.0 C 3980.0,3316.0 3976.0,3305.0 3974.0,3258.0 L 3971.0,3200.0 L 4003.0,3200.0 C 4025.0,3200.0 4046.0,3191.0 4067.0,3171.0 C 4093.0,3147.0 4107.0,3143.0 4147.0,3144.0 C 4178.0,3145.0 4201.0,3151.0 4212.0,3163.0 C 4222.0,3172.0 4238.0,3180.0 4248.0,3180.0 C 4282.0,3180.0 4330.0,3253.0 4330.0,3305.0 C 4330.0,3318.0 4336.0,3335.0 4343.0,3342.0 C 4349.0,3349.0 4356.0,3366.0 4357.0,3380.0 C 4363.0,3463.0 4379.0,3562.0 4387.0,3572.0 C 4393.0,3579.0 4402.0,3600.0 4408.0,3618.0 C 4418.0,3646.0 4416.0,3658.0 4400.0,3692.0 C 4384.0,3726.0 4383.0,3734.0 4395.0,3746.0 C 4402.0,3754.0 4422.0,3760.0 4438.0,3760.0 C 4459.0,3760.0 4473.0,3768.0 4484.0,3785.0 C 4493.0,3799.0 4507.0,3810.0 4514.0,3810.0 C 4521.0,3810.0 4533.0,3817.0 4540.0,3826.0 C 4548.0,3834.0 4565.0,3840.0 4579.0,3838.0 C 4602.0,3835.0 4605.0,3830.0 4608.0,3794.0 C 4611.0,3754.0 4613.0,3752.0 4646.0,3748.0 C 4665.0,3746.0 4680.0,3749.0 4681.0,3755.0 C 4681.0,3760.0 4681.0,3789.0 4680.0,3818.0 C 4679.0,3866.0 4680.0,3870.0 4702.0,3870.0 C 4717.0,3870.0 4729.0,3862.0 4735.0,3848.0 C 4741.0,3835.0 4759.0,3819.0 4775.0,3811.0 C 4814.0,3793.0 4820.0,3783.0 4820.0,3737.0 C 4820.0,3715.0 4825.0,3698.0 4833.0,3696.0 C 4839.0,3694.0 4861.0,3687.0 4880.0,3681.0 C 4948.0,3656.0 4947.0,3656.0 4952.0,3690.0 C 4955.0,3707.0 4953.0,3723.0 4948.0,3726.0 C 4943.0,3729.0 4942.0,3739.0 4944.0,3748.0 C 4948.0,3759.0 4940.0,3772.0 4920.0,3785.0 C 4892.0,3804.0 4890.0,3808.0 4896.0,3850.0 C 4902.0,3894.0 4901.0,3896.0 4866.0,3914.0 C 4828.0,3934.0 4820.0,3959.0 4846.0,3981.0 C 4858.0,3991.0 4860.0,4004.0 4855.0,4035.0 C 4851.0,4065.0 4853.0,4080.0 4864.0,4089.0 C 4894.0,4114.0 4849.0,4179.0 4800.0,4180.0 C 4780.0,4180.0 4771.0,4189.0 4758.0,4220.0 C 4742.0,4258.0 4716.0,4272.0 4696.0,4253.0" fill="pink"/>
</svg>
