<?xml version="1.0" ?>
<svg xmlns="http://www.w3.org/2000/svg" xmlns:ev="http://www.w3.org/2001/xml-events" xmlns:xlink="http://www.w3.org/1999/xlink" baseProfile="full" height="600px" version="1.1" viewBox="2139.982059741055 -1024.586509938335 5961.03588051789 12293.292501986316" width="291px">
	<defs/>
	<path d="M 4655.0,10212.0 C 4638.0,10197.0 4583.0,10170.0 4533.0,10152.0 C 4459.0,10125.0 4436.0,10112.0 4415.0,10084.0 C 4392.0,10054.0 4389.0,10042.0 4394.0,10010.0 C 4400.0,9974.0 4397.0,9969.0 4365.0,9944.0 C 4342.0,9927.0 4330.0,9909.0 4330.0,9894.0 C 4330.0,9872.0 4326.0,9870.0 4278.0,9870.0 C 4234.0,9870.0 4216.0,9863.0 4154.0,9825.0 C 4076.0,9776.0 4069.0,9774.0 4021.0,9791.0 C 3986.0,9803.0 3983.0,9815.0 4006.0,9841.0 C 4024.0,9861.0 4017.0,9880.0 3993.0,9880.0 C 3964.0,9880.0 3900.0,9836.0 3880.0,9803.0 C 3868.0,9782.0 3860.0,9751.0 3860.0,9721.0 C 3860.0,9652.0 3850.0,9647.0 3771.0,9676.0 C 3727.0,9693.0 3693.0,9714.0 3668.0,9740.0 C 3621.0,9790.0 3593.0,9797.0 3549.0,9771.0 C 3530.0,9759.0 3508.0,9750.0 3499.0,9750.0 C 3481.0,9750.0 3440.0,9790.0 3440.0,9808.0 C 3440.0,9815.0 3436.0,9820.0 3431.0,9820.0 C 3407.0,9820.0 3388.0,9805.0 3368.0,9769.0 C 3356.0,9748.0 3338.0,9728.0 3328.0,9724.0 C 3314.0,9720.0 3310.0,9710.0 3312.0,9687.0 C 3315.0,9657.0 3313.0,9655.0 3282.0,9652.0 C 3256.0,9649.0 3244.0,9641.0 3229.0,9615.0 C 3203.0,9571.0 3184.0,9565.0 3164.0,9595.0 C 3156.0,9608.0 3120.0,9637.0 3084.0,9660.0 C 3049.0,9683.0 3020.0,9706.0 3020.0,9711.0 C 3020.0,9716.0 3010.0,9720.0 2998.0,9720.0 C 2985.0,9720.0 2946.0,9734.0 2910.0,9751.0 C 2875.0,9768.0 2844.0,9778.0 2843.0,9773.0 C 2827.0,9727.0 2801.0,9696.0 2770.0,9686.0 C 2740.0,9677.0 2735.0,9670.0 2732.0,9640.0 C 2728.0,9600.0 2707.0,9572.0 2668.0,9556.0 L 2641.0,9544.0 L 2678.0,9489.0 C 2698.0,9458.0 2780.0,9365.0 2859.0,9282.0 L 3004.0,9130.0 L 3001.0,9073.0 L 2998.0,9017.0 L 3032.0,9038.0 C 3061.0,9057.0 3066.0,9065.0 3070.0,9114.0 C 3073.0,9144.0 3078.0,9172.0 3082.0,9176.0 C 3093.0,9187.0 3127.0,9153.0 3134.0,9124.0 C 3140.0,9103.0 3145.0,9100.0 3163.0,9106.0 C 3205.0,9119.0 3215.0,9116.0 3213.0,9090.0 C 3211.0,9076.0 3208.0,9044.0 3206.0,9018.0 C 3203.0,8976.0 3197.0,8965.0 3160.0,8932.0 C 3128.0,8904.0 3118.0,8889.0 3123.0,8876.0 C 3128.0,8864.0 3136.0,8861.0 3150.0,8865.0 C 3190.0,8878.0 3168.0,8836.0 3127.0,8821.0 C 3104.0,8812.0 3100.0,8806.0 3106.0,8787.0 C 3115.0,8758.0 3223.0,8605.0 3269.0,8557.0 C 3320.0,8502.0 3423.0,8457.0 3476.0,8465.0 C 3513.0,8470.0 3520.0,8467.0 3561.0,8432.0 C 3585.0,8410.0 3619.0,8386.0 3637.0,8376.0 C 3695.0,8346.0 3739.0,8362.0 3704.0,8401.0 C 3685.0,8422.0 3685.0,8422.0 3718.0,8439.0 C 3736.0,8449.0 3739.0,8454.0 3730.0,8465.0 C 3720.0,8477.0 3726.0,8478.0 3767.0,8473.0 C 3814.0,8468.0 3818.0,8469.0 3846.0,8502.0 C 3862.0,8521.0 3887.0,8545.0 3903.0,8555.0 C 3927.0,8571.0 3933.0,8571.0 3948.0,8558.0 C 3957.0,8550.0 3984.0,8538.0 4006.0,8532.0 C 4039.0,8522.0 4051.0,8512.0 4066.0,8482.0 C 4086.0,8439.0 4169.0,8340.0 4184.0,8340.0 C 4190.0,8340.0 4201.0,8336.0 4208.0,8332.0 C 4233.0,8316.0 4206.0,8279.0 4149.0,8252.0 C 4116.0,8235.0 4094.0,8217.0 4091.0,8206.0 C 4086.0,8178.0 4128.0,8150.0 4162.0,8157.0 C 4178.0,8160.0 4197.0,8157.0 4205.0,8150.0 C 4218.0,8139.0 4225.0,8141.0 4245.0,8160.0 L 4268.0,8182.0 L 4284.0,8152.0 C 4304.0,8113.0 4304.0,8113.0 4280.0,8107.0 C 4270.0,8104.0 4253.0,8086.0 4244.0,8067.0 C 4230.0,8037.0 4229.0,8028.0 4240.0,8015.0 C 4258.0,7994.0 4273.0,7996.0 4300.0,8025.0 C 4330.0,8057.0 4380.0,8060.0 4380.0,8030.0 C 4380.0,8014.0 4387.0,8010.0 4414.0,8010.0 C 4451.0,8010.0 4476.0,7983.0 4486.0,7931.0 C 4491.0,7908.0 4488.0,7899.0 4470.0,7888.0 C 4445.0,7873.0 4416.0,7820.0 4405.0,7770.0 C 4396.0,7726.0 4383.0,7710.0 4357.0,7710.0 C 4345.0,7710.0 4322.0,7696.0 4304.0,7679.0 C 4277.0,7653.0 4267.0,7649.0 4240.0,7655.0 C 4220.0,7659.0 4206.0,7670.0 4200.0,7685.0 C 4192.0,7707.0 4188.0,7708.0 4158.0,7699.0 C 4106.0,7683.0 3990.0,7667.0 3933.0,7669.0 L 3880.0,7670.0 L 3900.0,7638.0 C 3911.0,7620.0 3920.0,7598.0 3920.0,7589.0 C 3920.0,7566.0 3883.0,7531.0 3811.0,7487.0 C 3778.0,7466.0 3750.0,7445.0 3750.0,7440.0 C 3750.0,7423.0 3878.0,7360.0 3913.0,7360.0 C 3942.0,7360.0 3955.0,7353.0 3983.0,7320.0 C 4006.0,7293.0 4022.0,7282.0 4033.0,7286.0 C 4042.0,7289.0 4061.0,7283.0 4076.0,7271.0 C 4091.0,7259.0 4109.0,7250.0 4117.0,7250.0 C 4125.0,7250.0 4149.0,7230.0 4171.0,7206.0 C 4203.0,7171.0 4230.0,7155.0 4308.0,7125.0 C 4361.0,7104.0 4411.0,7079.0 4419.0,7069.0 C 4429.0,7055.0 4445.0,7050.0 4482.0,7050.0 C 4525.0,7050.0 4537.0,7045.0 4580.0,7008.0 L 4628.0,6967.0 L 4623.0,6914.0 C 4618.0,6866.0 4621.0,6855.0 4665.0,6771.0 C 4707.0,6692.0 4718.0,6679.0 4749.0,6669.0 C 4823.0,6645.0 4858.0,6621.0 4865.0,6592.0 C 4868.0,6576.0 4884.0,6553.0 4900.0,6541.0 C 4921.0,6526.0 4930.0,6511.0 4930.0,6492.0 C 4930.0,6476.0 4946.0,6438.0 4965.0,6406.0 C 5007.0,6336.0 5105.0,6223.0 5131.0,6215.0 C 5144.0,6211.0 5150.0,6199.0 5150.0,6181.0 C 5150.0,6145.0 5178.0,6116.0 5250.0,6080.0 C 5283.0,6063.0 5319.0,6037.0 5330.0,6022.0 C 5345.0,6002.0 5358.0,5994.0 5373.0,5997.0 C 5392.0,6000.0 5400.0,5989.0 5430.0,5928.0 C 5449.0,5889.0 5484.0,5836.0 5508.0,5812.0 C 5555.0,5763.0 5554.0,5768.0 5540.0,5686.0 C 5531.0,5629.0 5532.0,5626.0 5559.0,5595.0 C 5575.0,5577.0 5590.0,5546.0 5594.0,5527.0 C 5599.0,5501.0 5612.0,5482.0 5641.0,5459.0 C 5687.0,5423.0 5691.0,5425.0 5712.0,5493.0 C 5724.0,5532.0 5743.0,5538.0 5748.0,5504.0 C 5750.0,5494.0 5768.0,5460.0 5788.0,5430.0 C 5824.0,5377.0 5827.0,5375.0 5875.0,5372.0 C 5946.0,5368.0 5970.0,5354.0 5970.0,5315.0 C 5970.0,5295.0 5978.0,5276.0 5993.0,5262.0 C 6019.0,5237.0 6038.0,5235.0 6074.0,5251.0 C 6112.0,5269.0 6150.0,5241.0 6150.0,5195.0 C 6150.0,5158.0 6127.0,5130.0 6075.0,5103.0 C 6059.0,5094.0 6042.0,5082.0 6038.0,5076.0 C 6034.0,5070.0 6030.0,5069.0 6030.0,5074.0 C 6030.0,5080.0 6017.0,5071.0 6000.0,5055.0 C 5963.0,5020.0 5961.0,4984.0 5995.0,4968.0 C 6008.0,4962.0 6023.0,4944.0 6029.0,4929.0 C 6034.0,4913.0 6044.0,4900.0 6049.0,4900.0 C 6055.0,4900.0 6066.0,4884.0 6074.0,4865.0 C 6084.0,4841.0 6096.0,4830.0 6109.0,4830.0 C 6121.0,4830.0 6130.0,4825.0 6130.0,4819.0 C 6130.0,4811.0 6142.0,4809.0 6164.0,4813.0 C 6194.0,4818.0 6199.0,4816.0 6202.0,4797.0 C 6204.0,4784.0 6215.0,4774.0 6230.0,4770.0 C 6261.0,4763.0 6267.0,4737.0 6245.0,4703.0 C 6229.0,4679.0 6229.0,4675.0 6251.0,4629.0 L 6274.0,4580.0 L 6242.0,4547.0 C 6225.0,4530.0 6208.0,4502.0 6204.0,4487.0 C 6201.0,4471.0 6187.0,4454.0 6173.0,4447.0 L 6149.0,4437.0 L 6182.0,4403.0 C 6204.0,4380.0 6209.0,4370.0 6198.0,4370.0 C 6169.0,4370.0 6167.0,4323.0 6195.0,4282.0 C 6214.0,4255.0 6220.0,4232.0 6220.0,4193.0 C 6220.0,4165.0 6225.0,4129.0 6230.0,4114.0 C 6239.0,4092.0 6237.0,4083.0 6222.0,4066.0 C 6166.0,4001.0 6116.0,3901.0 6122.0,3865.0 C 6125.0,3854.0 6120.0,3838.0 6112.0,3830.0 C 6099.0,3818.0 6100.0,3815.0 6116.0,3803.0 C 6127.0,3795.0 6146.0,3786.0 6160.0,3783.0 C 6193.0,3775.0 6201.0,3761.0 6194.0,3727.0 C 6190.0,3706.0 6202.0,3672.0 6245.0,3586.0 C 6276.0,3523.0 6304.0,3455.0 6307.0,3433.0 C 6311.0,3405.0 6302.0,3362.0 6276.0,3279.0 L 6239.0,3163.0 L 6248.0,3006.0 C 6257.0,2855.0 6258.0,2847.0 6286.0,2807.0 L 6315.0,2766.0 L 6266.0,2673.0 L 6217.0,2580.0 L 6185.0,2600.0 C 6166.0,2612.0 6135.0,2620.0 6109.0,2620.0 C 6071.0,2620.0 6061.0,2615.0 6020.0,2572.0 C 5926.0,2477.0 5927.0,2477.0 5883.0,2489.0 C 5827.0,2504.0 5791.0,2489.0 5740.0,2429.0 C 5703.0,2385.0 5694.0,2380.0 5659.0,2380.0 C 5637.0,2380.0 5603.0,2387.0 5583.0,2395.0 C 5534.0,2416.0 5520.0,2396.0 5557.0,2358.0 L 5583.0,2331.0 L 5556.0,2296.0 C 5530.0,2262.0 5530.0,2259.0 5545.0,2230.0 C 5553.0,2214.0 5565.0,2200.0 5570.0,2200.0 C 5576.0,2200.0 5580.0,2193.0 5580.0,2184.0 C 5580.0,2172.0 5569.0,2169.0 5523.0,2171.0 C 5491.0,2173.0 5457.0,2170.0 5447.0,2166.0 C 5433.0,2159.0 5429.0,2164.0 5424.0,2189.0 C 5417.0,2223.0 5395.0,2229.0 5334.0,2211.0 C 5305.0,2203.0 5301.0,2205.0 5290.0,2228.0 C 5278.0,2254.0 5278.0,2254.0 5263.0,2235.0 C 5255.0,2224.0 5246.0,2203.0 5243.0,2188.0 C 5238.0,2162.0 5236.0,2161.0 5192.0,2167.0 C 5155.0,2172.0 5145.0,2170.0 5134.0,2155.0 C 5116.0,2130.0 5116.0,2083.0 5135.0,2030.0 C 5143.0,2007.0 5150.0,1973.0 5150.0,1956.0 C 5151.0,1939.0 5156.0,1915.0 5163.0,1903.0 C 5181.0,1870.0 5276.0,1803.0 5330.0,1785.0 C 5367.0,1773.0 5380.0,1763.0 5384.0,1744.0 C 5388.0,1729.0 5386.0,1712.0 5379.0,1704.0 C 5367.0,1689.0 5369.0,1675.0 5395.0,1616.0 L 5411.0,1577.0 L 5364.0,1583.0 C 5327.0,1587.0 5310.0,1595.0 5294.0,1615.0 C 5263.0,1655.0 5234.0,1644.0 5216.0,1588.0 C 5213.0,1577.0 5201.0,1570.0 5186.0,1570.0 C 5165.0,1570.0 5160.0,1576.0 5154.0,1605.0 C 5151.0,1625.0 5139.0,1645.0 5129.0,1651.0 C 5115.0,1658.0 5110.0,1672.0 5110.0,1701.0 C 5110.0,1747.0 5089.0,1762.0 5061.0,1736.0 C 5051.0,1727.0 5012.0,1709.0 4974.0,1696.0 C 4936.0,1683.0 4888.0,1662.0 4867.0,1650.0 C 4830.0,1628.0 4827.0,1628.0 4794.0,1644.0 C 4774.0,1653.0 4729.0,1665.0 4692.0,1670.0 C 4629.0,1679.0 4624.0,1678.0 4609.0,1658.0 C 4588.0,1631.0 4594.0,1613.0 4634.0,1578.0 L 4665.0,1551.0 L 4585.0,1470.0 C 4509.0,1394.0 4503.0,1390.0 4460.0,1390.0 C 4399.0,1390.0 4298.0,1368.0 4269.0,1348.0 C 4254.0,1339.0 4238.0,1312.0 4227.0,1279.0 L 4210.0,1225.0 L 4256.0,1179.0 C 4299.0,1135.0 4305.0,1133.0 4331.0,1142.0 C 4375.0,1157.0 4429.0,1144.0 4442.0,1114.0 C 4450.0,1096.0 4464.0,1088.0 4494.0,1083.0 C 4531.0,1077.0 4590.0,1031.0 4590.0,1008.0 C 4590.0,1003.0 4560.0,972.0 4524.0,937.0 L 4458.0,875.0 L 4453.0,785.0 C 4450.0,735.0 4441.0,683.0 4433.0,667.0 C 4426.0,652.0 4420.0,623.0 4421.0,602.0 C 4422.0,582.0 4415.0,538.0 4406.0,505.0 C 4386.0,432.0 4385.0,352.0 4404.0,331.0 C 4415.0,317.0 4415.0,305.0 4404.0,251.0 C 4397.0,215.0 4393.0,184.0 4396.0,181.0 C 4400.0,176.0 4416.0,181.0 4473.0,205.0 C 4486.0,211.0 4490.0,207.0 4490.0,187.0 C 4490.0,173.0 4495.0,158.0 4500.0,155.0 C 4506.0,152.0 4510.0,138.0 4510.0,125.0 C 4510.0,97.0 4488.0,90.0 4446.0,103.0 C 4422.0,111.0 4415.0,110.0 4400.0,91.0 C 4387.0,73.0 4376.0,69.0 4349.0,72.0 C 4324.0,74.0 4315.0,71.0 4312.0,58.0 C 4310.0,46.0 4319.0,38.0 4349.0,31.0 C 4372.0,25.0 4408.0,15.0 4430.0,10.0 C 4459.0,2.0 4494.0,2.0 4553.0,11.0 C 4643.0,24.0 4665.0,39.0 4675.0,93.0 C 4680.0,120.0 4689.0,129.0 4727.0,144.0 C 4778.0,165.0 4830.0,228.0 4830.0,269.0 C 4830.0,283.0 4835.0,311.0 4840.0,330.0 C 4862.0,408.0 5127.0,539.0 5263.0,540.0 C 5290.0,540.0 5308.0,547.0 5325.0,565.0 C 5348.0,587.0 5350.0,597.0 5350.0,679.0 L 5350.0,768.0 L 5384.0,734.0 C 5420.0,698.0 5435.0,695.0 5540.0,699.0 C 5582.0,701.0 5601.0,707.0 5618.0,724.0 L 5642.0,747.0 L 5616.0,796.0 C 5586.0,854.0 5562.0,883.0 5532.0,899.0 C 5519.0,906.0 5510.0,920.0 5510.0,934.0 C 5510.0,969.0 5538.0,958.0 5574.0,910.0 C 5609.0,864.0 5657.0,839.0 5671.0,861.0 C 5694.0,898.0 5671.0,943.0 5611.0,977.0 C 5539.0,1017.0 5544.0,1030.0 5630.0,1030.0 C 5669.0,1030.0 5700.0,1034.0 5700.0,1039.0 C 5700.0,1045.0 5716.0,1046.0 5735.0,1043.0 L 5770.0,1037.0 L 5770.0,1079.0 C 5770.0,1117.0 5767.0,1121.0 5741.0,1126.0 C 5726.0,1129.0 5700.0,1143.0 5684.0,1156.0 L 5655.0,1179.0 L 5693.0,1180.0 C 5730.0,1180.0 5770.0,1207.0 5770.0,1232.0 C 5770.0,1239.0 5758.0,1256.0 5743.0,1272.0 C 5713.0,1303.0 5717.0,1318.0 5750.0,1300.0 C 5762.0,1294.0 5779.0,1291.0 5787.0,1294.0 C 5801.0,1300.0 5801.0,1303.0 5785.0,1319.0 C 5758.0,1350.0 5769.0,1368.0 5807.0,1358.0 C 5837.0,1350.0 5839.0,1348.0 5828.0,1324.0 C 5818.0,1303.0 5820.0,1296.0 5838.0,1278.0 C 5850.0,1266.0 5861.0,1258.0 5862.0,1261.0 C 5864.0,1263.0 5873.0,1279.0 5882.0,1295.0 C 5902.0,1332.0 5917.0,1335.0 5964.0,1316.0 C 5994.0,1303.0 6000.0,1296.0 6000.0,1270.0 C 6000.0,1233.0 6001.0,1233.0 6131.0,1291.0 C 6180.0,1313.0 6233.0,1330.0 6254.0,1330.0 C 6274.0,1330.0 6290.0,1334.0 6290.0,1338.0 C 6290.0,1342.0 6305.0,1363.0 6324.0,1383.0 C 6349.0,1410.0 6366.0,1420.0 6388.0,1420.0 C 6405.0,1420.0 6431.0,1430.0 6447.0,1444.0 C 6486.0,1476.0 6515.0,1490.0 6543.0,1490.0 C 6578.0,1490.0 6665.0,1585.0 6674.0,1633.0 C 6680.0,1665.0 6685.0,1670.0 6708.0,1670.0 C 6723.0,1670.0 6747.0,1664.0 6761.0,1656.0 C 6793.0,1640.0 6813.0,1649.0 6830.0,1690.0 C 6839.0,1711.0 6851.0,1721.0 6875.0,1726.0 C 6898.0,1730.0 6911.0,1740.0 6922.0,1764.0 C 6935.0,1791.0 6946.0,1798.0 6990.0,1808.0 C 7030.0,1817.0 7046.0,1818.0 7057.0,1809.0 C 7068.0,1799.0 7079.0,1805.0 7113.0,1837.0 C 7173.0,1893.0 7207.0,1912.0 7243.0,1908.0 C 7268.0,1906.0 7275.0,1909.0 7278.0,1925.0 C 7280.0,1936.0 7287.0,1961.0 7294.0,1980.0 C 7302.0,2001.0 7306.0,2036.0 7303.0,2068.0 C 7297.0,2120.0 7312.0,2142.0 7323.0,2099.0 C 7335.0,2053.0 7376.0,2107.0 7402.0,2206.0 C 7413.0,2247.0 7413.0,2255.0 7393.0,2291.0 C 7381.0,2312.0 7376.0,2330.0 7381.0,2330.0 C 7386.0,2330.0 7395.0,2341.0 7400.0,2355.0 L 7409.0,2380.0 L 7434.0,2355.0 C 7468.0,2321.0 7492.0,2322.0 7488.0,2358.0 C 7486.0,2377.0 7476.0,2389.0 7454.0,2399.0 C 7409.0,2418.0 7389.0,2465.0 7406.0,2510.0 C 7423.0,2557.0 7413.0,2649.0 7389.0,2673.0 C 7367.0,2694.0 7364.0,2720.0 7383.0,2720.0 C 7409.0,2720.0 7433.0,2693.0 7439.0,2655.0 C 7442.0,2634.0 7451.0,2615.0 7458.0,2612.0 C 7472.0,2608.0 7507.0,2680.0 7512.0,2725.0 C 7515.0,2754.0 7514.0,2755.0 7478.0,2752.0 C 7444.0,2749.0 7440.0,2751.0 7440.0,2772.0 C 7440.0,2786.0 7429.0,2807.0 7415.0,2820.0 C 7383.0,2850.0 7384.0,2858.0 7417.0,2858.0 C 7437.0,2858.0 7455.0,2870.0 7482.0,2900.0 C 7503.0,2923.0 7520.0,2949.0 7520.0,2956.0 C 7520.0,2964.0 7529.0,2970.0 7541.0,2970.0 C 7566.0,2970.0 7600.0,2987.0 7600.0,3000.0 C 7600.0,3005.0 7576.0,3027.0 7548.0,3049.0 C 7475.0,3104.0 7467.0,3119.0 7481.0,3174.0 C 7490.0,3211.0 7489.0,3224.0 7476.0,3251.0 C 7466.0,3272.0 7463.0,3287.0 7469.0,3294.0 C 7482.0,3309.0 7470.0,3327.0 7446.0,3331.0 C 7426.0,3335.0 7403.0,3386.0 7415.0,3398.0 C 7419.0,3402.0 7432.0,3393.0 7445.0,3378.0 C 7460.0,3361.0 7475.0,3352.0 7484.0,3356.0 C 7497.0,3361.0 7497.0,3368.0 7480.0,3412.0 C 7470.0,3440.0 7452.0,3471.0 7440.0,3482.0 C 7427.0,3495.0 7420.0,3513.0 7420.0,3540.0 C 7420.0,3561.0 7415.0,3591.0 7410.0,3605.0 C 7404.0,3622.0 7403.0,3638.0 7409.0,3648.0 C 7417.0,3662.0 7420.0,3661.0 7430.0,3635.0 C 7452.0,3573.0 7452.0,3574.0 7462.0,3602.0 C 7468.0,3621.0 7467.0,3639.0 7456.0,3665.0 C 7447.0,3686.0 7440.0,3717.0 7440.0,3734.0 C 7439.0,3770.0 7420.0,3800.0 7396.0,3800.0 C 7387.0,3800.0 7375.0,3811.0 7370.0,3824.0 C 7365.0,3837.0 7356.0,3851.0 7351.0,3855.0 C 7345.0,3858.0 7340.0,3866.0 7340.0,3872.0 C 7340.0,3878.0 7350.0,3874.0 7363.0,3863.0 C 7408.0,3822.0 7413.0,3823.0 7408.0,3871.0 C 7403.0,3914.0 7350.0,4011.0 7317.0,4038.0 C 7296.0,4056.0 7284.0,4146.0 7301.0,4166.0 C 7320.0,4189.0 7283.0,4289.0 7251.0,4301.0 C 7233.0,4308.0 7229.0,4316.0 7233.0,4336.0 C 7235.0,4351.0 7229.0,4386.0 7219.0,4416.0 C 7208.0,4445.0 7200.0,4475.0 7200.0,4482.0 C 7200.0,4489.0 7191.0,4501.0 7179.0,4508.0 L 7158.0,4521.0 L 7180.0,4545.0 C 7197.0,4563.0 7201.0,4575.0 7196.0,4597.0 C 7192.0,4612.0 7186.0,4640.0 7183.0,4658.0 C 7179.0,4681.0 7172.0,4690.0 7159.0,4690.0 C 7149.0,4690.0 7136.0,4699.0 7130.0,4710.0 C 7117.0,4734.0 7095.0,4736.0 7086.0,4715.0 C 7077.0,4690.0 7060.0,4698.0 7054.0,4730.0 C 7047.0,4764.0 7043.0,4766.0 7019.0,4744.0 C 6994.0,4722.0 6985.0,4731.0 6970.0,4795.0 C 6962.0,4830.0 6944.0,4865.0 6923.0,4889.0 C 6905.0,4911.0 6882.0,4946.0 6874.0,4967.0 C 6856.0,5010.0 6823.0,5050.0 6804.0,5050.0 C 6798.0,5050.0 6787.0,5064.0 6780.0,5080.0 C 6773.0,5097.0 6759.0,5115.0 6749.0,5121.0 C 6722.0,5135.0 6725.0,5167.0 6755.0,5186.0 C 6769.0,5195.0 6780.0,5209.0 6780.0,5216.0 C 6780.0,5236.0 6716.0,5234.0 6696.0,5214.0 C 6687.0,5206.0 6670.0,5200.0 6658.0,5202.0 L 6635.0,5205.0 L 6658.0,5228.0 C 6670.0,5240.0 6680.0,5258.0 6680.0,5269.0 C 6680.0,5284.0 6673.0,5287.0 6640.0,5286.0 C 6590.0,5285.0 6574.0,5299.0 6590.0,5331.0 C 6601.0,5350.0 6600.0,5355.0 6584.0,5367.0 C 6568.0,5379.0 6564.0,5378.0 6554.0,5365.0 C 6548.0,5357.0 6531.0,5350.0 6517.0,5350.0 C 6503.0,5350.0 6488.0,5345.0 6485.0,5340.0 C 6477.0,5328.0 6439.0,5337.0 6428.0,5354.0 C 6424.0,5360.0 6420.0,5377.0 6420.0,5391.0 C 6420.0,5414.0 6412.0,5421.0 6364.0,5440.0 C 6311.0,5462.0 6136.0,5569.0 6143.0,5576.0 C 6151.0,5585.0 6238.0,5546.0 6256.0,5525.0 C 6275.0,5505.0 6281.0,5503.0 6295.0,5514.0 C 6311.0,5525.0 6310.0,5528.0 6284.0,5549.0 C 6244.0,5580.0 6181.0,5620.0 6172.0,5620.0 C 6168.0,5620.0 6144.0,5640.0 6120.0,5665.0 C 6081.0,5704.0 6070.0,5710.0 6033.0,5710.0 C 5993.0,5710.0 5990.0,5712.0 5981.0,5748.0 C 5975.0,5768.0 5970.0,5795.0 5970.0,5808.0 C 5970.0,5836.0 5945.0,5886.0 5916.0,5919.0 C 5905.0,5932.0 5863.0,5957.0 5823.0,5975.0 C 5776.0,5997.0 5750.0,6015.0 5745.0,6030.0 C 5741.0,6042.0 5717.0,6067.0 5690.0,6086.0 C 5637.0,6124.0 5616.0,6161.0 5606.0,6231.0 C 5601.0,6267.0 5594.0,6280.0 5575.0,6288.0 C 5561.0,6295.0 5550.0,6307.0 5550.0,6315.0 C 5550.0,6324.0 5540.0,6344.0 5529.0,6360.0 L 5507.0,6389.0 L 5534.0,6420.0 C 5565.0,6458.0 5566.0,6462.0 5539.0,6485.0 C 5527.0,6497.0 5520.0,6514.0 5522.0,6530.0 C 5525.0,6562.0 5514.0,6580.0 5490.0,6580.0 C 5479.0,6580.0 5455.0,6596.0 5436.0,6615.0 C 5416.0,6634.0 5392.0,6650.0 5381.0,6650.0 C 5371.0,6650.0 5359.0,6657.0 5356.0,6666.0 C 5352.0,6676.0 5340.0,6680.0 5322.0,6678.0 C 5299.0,6676.0 5286.0,6684.0 5252.0,6723.0 C 5229.0,6750.0 5210.0,6775.0 5210.0,6781.0 C 5210.0,6786.0 5204.0,6790.0 5196.0,6790.0 C 5171.0,6790.0 5150.0,6820.0 5150.0,6857.0 C 5150.0,6877.0 5141.0,6903.0 5130.0,6917.0 C 5119.0,6931.0 5110.0,6958.0 5110.0,6976.0 C 5110.0,7002.0 5106.0,7009.0 5088.0,7012.0 C 5072.0,7014.0 5063.0,7025.0 5057.0,7051.0 C 5052.0,7075.0 5039.0,7092.0 5019.0,7104.0 C 4989.0,7122.0 4970.0,7155.0 4970.0,7190.0 C 4970.0,7204.0 4981.0,7212.0 5010.0,7220.0 C 5062.0,7234.0 5081.0,7267.0 5056.0,7304.0 C 5036.0,7336.0 5036.0,7337.0 5060.0,7343.0 C 5073.0,7346.0 5080.0,7357.0 5080.0,7373.0 C 5080.0,7387.0 5085.0,7411.0 5091.0,7427.0 C 5107.0,7469.0 5123.0,7569.0 5122.0,7622.0 C 5122.0,7663.0 5124.0,7669.0 5147.0,7675.0 C 5168.0,7680.0 5171.0,7686.0 5168.0,7710.0 C 5165.0,7731.0 5169.0,7745.0 5182.0,7757.0 C 5192.0,7766.0 5200.0,7786.0 5200.0,7801.0 C 5200.0,7835.0 5207.0,7840.0 5295.0,7865.0 C 5352.0,7881.0 5368.0,7891.0 5387.0,7919.0 C 5400.0,7938.0 5423.0,7961.0 5439.0,7971.0 C 5455.0,7980.0 5471.0,8001.0 5474.0,8017.0 C 5481.0,8042.0 5483.0,8043.0 5494.0,8027.0 C 5509.0,8007.0 5543.0,8004.0 5557.0,8023.0 C 5581.0,8056.0 5610.0,8170.0 5612.0,8244.0 C 5614.0,8315.0 5616.0,8320.0 5628.0,8301.0 C 5636.0,8289.0 5651.0,8280.0 5661.0,8280.0 C 5684.0,8280.0 5685.0,8290.0 5665.0,8316.0 C 5643.0,8345.0 5647.0,8352.0 5679.0,8345.0 C 5719.0,8336.0 5734.0,8365.0 5732.0,8448.0 C 5732.0,8484.0 5735.0,8508.0 5741.0,8505.0 C 5746.0,8501.0 5750.0,8493.0 5750.0,8487.0 C 5751.0,8473.0 5785.0,8430.0 5795.0,8430.0 C 5799.0,8430.0 5800.0,8442.0 5797.0,8457.0 C 5791.0,8489.0 5836.0,8540.0 5869.0,8540.0 C 5883.0,8540.0 5890.0,8546.0 5890.0,8560.0 C 5890.0,8587.0 5909.0,8585.0 5941.0,8554.0 L 5969.0,8528.0 L 5998.0,8549.0 C 6015.0,8560.0 6040.0,8570.0 6054.0,8570.0 C 6070.0,8570.0 6086.0,8579.0 6096.0,8596.0 C 6111.0,8618.0 6115.0,8619.0 6122.0,8606.0 C 6133.0,8586.0 6150.0,8585.0 6150.0,8604.0 C 6150.0,8612.0 6175.0,8640.0 6205.0,8665.0 C 6257.0,8710.0 6276.0,8737.0 6248.0,8727.0 C 6241.0,8725.0 6226.0,8727.0 6216.0,8733.0 C 6201.0,8740.0 6193.0,8738.0 6180.0,8723.0 C 6154.0,8690.0 6124.0,8685.0 6117.0,8712.0 C 6109.0,8740.0 6124.0,8750.0 6177.0,8750.0 C 6209.0,8750.0 6223.0,8755.0 6232.0,8770.0 C 6239.0,8781.0 6252.0,8790.0 6260.0,8791.0 C 6268.0,8791.0 6287.0,8799.0 6301.0,8808.0 C 6354.0,8842.0 6385.0,8865.0 6395.0,8876.0 C 6410.0,8894.0 6460.0,8902.0 6475.0,8890.0 C 6495.0,8874.0 6526.0,8893.0 6534.0,8926.0 C 6540.0,8947.0 6537.0,8956.0 6523.0,8963.0 C 6513.0,8969.0 6487.0,8992.0 6466.0,9014.0 C 6371.0,9113.0 6334.0,9120.0 6219.0,9065.0 C 6134.0,9024.0 6124.0,9023.0 6117.0,9050.0 C 6113.0,9066.0 6103.0,9070.0 6070.0,9070.0 C 6037.0,9070.0 6027.0,9074.0 6023.0,9090.0 C 6019.0,9105.0 6009.0,9110.0 5984.0,9110.0 C 5936.0,9110.0 5850.0,9175.0 5850.0,9212.0 C 5850.0,9256.0 5841.0,9271.0 5821.0,9258.0 C 5790.0,9239.0 5754.0,9256.0 5738.0,9296.0 L 5723.0,9333.0 L 5701.0,9301.0 C 5687.0,9281.0 5670.0,9270.0 5655.0,9270.0 C 5632.0,9270.0 5632.0,9271.0 5636.0,9370.0 L 5641.0,9469.0 L 5602.0,9489.0 C 5545.0,9518.0 5539.0,9530.0 5542.0,9601.0 L 5545.0,9664.0 L 5582.0,9673.0 C 5615.0,9681.0 5621.0,9688.0 5646.0,9746.0 C 5661.0,9781.0 5679.0,9815.0 5687.0,9821.0 C 5707.0,9838.0 5703.0,9847.0 5670.0,9866.0 C 5654.0,9876.0 5634.0,9900.0 5626.0,9921.0 C 5612.0,9956.0 5609.0,9958.0 5553.0,9964.0 C 5466.0,9974.0 5460.0,9973.0 5406.0,9945.0 C 5364.0,9923.0 5354.0,9921.0 5345.0,9933.0 C 5329.0,9955.0 5274.0,9980.0 5240.0,9980.0 C 5223.0,9980.0 5185.0,9972.0 5156.0,9961.0 C 5089.0,9938.0 5055.0,9944.0 5018.0,9986.0 C 5002.0,10004.0 4974.0,10024.0 4956.0,10030.0 C 4937.0,10036.0 4914.0,10050.0 4905.0,10060.0 C 4891.0,10075.0 4884.0,10077.0 4874.0,10069.0 C 4863.0,10060.0 4859.0,10067.0 4854.0,10099.0 C 4849.0,10132.0 4838.0,10148.0 4806.0,10174.0 C 4765.0,10207.0 4708.0,10240.0 4693.0,10240.0 C 4689.0,10240.0 4671.0,10227.0 4655.0,10212.0" fill="pink"/>
</svg>
