<?xml version="1.0" ?>
<svg xmlns="http://www.w3.org/2000/svg" xmlns:ev="http://www.w3.org/2001/xml-events" xmlns:xlink="http://www.w3.org/1999/xlink" baseProfile="full" height="600px" version="1.1" viewBox="2056.7585301640693 -1020.735545664591 6128.186974976292 12288.412627271111" width="300px">
	<defs/>
	<path d="M 2576.0,10231.0 C 2573.0,10226.0 2575.0,10208.0 2581.0,10191.0 C 2590.0,10167.0 2589.0,10152.0 2579.0,10128.0 C 2568.0,10101.0 2569.0,10096.0 2585.0,10084.0 C 2595.0,10076.0 2614.0,10070.0 2626.0,10070.0 C 2643.0,10070.0 2649.0,10078.0 2654.0,10105.0 C 2658.0,10124.0 2665.0,10140.0 2670.0,10140.0 C 2691.0,10140.0 2679.0,10170.0 2655.0,10176.0 C 2642.0,10179.0 2628.0,10192.0 2624.0,10203.0 C 2614.0,10235.0 2587.0,10250.0 2576.0,10231.0" fill="pink"/>
	<path d="M 2653.0,10023.0 C 2636.0,10017.0 2636.0,9981.0 2653.0,9974.0 C 2673.0,9967.0 2720.0,9987.0 2720.0,10004.0 C 2720.0,10025.0 2684.0,10036.0 2653.0,10023.0" fill="pink"/>
	<path d="M 2703.0,9899.0 C 2676.0,9889.0 2675.0,9879.0 2697.0,9837.0 L 2713.0,9805.0 L 2726.0,9835.0 C 2751.0,9892.0 2742.0,9914.0 2703.0,9899.0" fill="pink"/>
	<path d="M 2750.0,9771.0 C 2750.0,9736.0 2753.0,9730.0 2771.0,9730.0 C 2788.0,9730.0 2791.0,9735.0 2788.0,9767.0 C 2786.0,9794.0 2780.0,9806.0 2768.0,9808.0 C 2753.0,9811.0 2750.0,9804.0 2750.0,9771.0" fill="pink"/>
	<path d="M 3644.0,9689.0 C 3625.0,9668.0 3626.0,9668.0 3653.0,9644.0 C 3690.0,9612.0 3750.0,9610.0 3750.0,9640.0 C 3750.0,9651.0 3743.0,9663.0 3735.0,9666.0 C 3727.0,9670.0 3720.0,9681.0 3720.0,9691.0 C 3720.0,9718.0 3669.0,9716.0 3644.0,9689.0" fill="pink"/>
	<path d="M 4140.0,9474.0 C 4132.0,9460.0 4118.0,9450.0 4104.0,9450.0 C 4086.0,9450.0 4070.0,9433.0 4070.0,9415.0 C 4070.0,9403.0 4104.0,9403.0 4127.0,9415.0 C 4142.0,9423.0 4164.0,9430.0 4176.0,9430.0 C 4201.0,9430.0 4238.0,9467.0 4224.0,9479.0 C 4219.0,9484.0 4201.0,9490.0 4184.0,9493.0 C 4158.0,9498.0 4151.0,9495.0 4140.0,9474.0" fill="pink"/>
	<path d="M 3793.0,9393.0 C 3762.0,9377.0 3760.0,9373.0 3760.0,9324.0 C 3760.0,9295.0 3756.0,9268.0 3750.0,9265.0 C 3736.0,9257.0 3761.0,9212.0 3799.0,9176.0 C 3816.0,9159.0 3830.0,9140.0 3830.0,9132.0 C 3830.0,9124.0 3835.0,9100.0 3842.0,9078.0 C 3851.0,9047.0 3858.0,9040.0 3874.0,9042.0 C 3892.0,9045.0 3895.0,9051.0 3893.0,9083.0 L 3891.0,9121.0 L 3925.0,9114.0 C 3950.0,9110.0 3960.0,9111.0 3960.0,9120.0 C 3960.0,9127.0 3968.0,9130.0 3979.0,9127.0 C 3991.0,9124.0 4006.0,9130.0 4016.0,9141.0 C 4025.0,9151.0 4041.0,9160.0 4051.0,9160.0 C 4073.0,9160.0 4082.0,9173.0 4074.0,9194.0 C 4069.0,9206.0 4063.0,9207.0 4050.0,9200.0 C 4040.0,9194.0 4019.0,9190.0 4005.0,9190.0 C 3981.0,9190.0 3979.0,9193.0 3985.0,9217.0 C 3988.0,9232.0 3998.0,9249.0 4007.0,9255.0 C 4021.0,9265.0 4020.0,9271.0 4002.0,9306.0 C 3978.0,9354.0 3955.0,9375.0 3907.0,9395.0 C 3862.0,9414.0 3834.0,9413.0 3793.0,9393.0" fill="pink"/>
	<path d="M 3952.0,8724.0 C 3935.0,8712.0 3917.0,8710.0 3884.0,8715.0 C 3845.0,8720.0 3840.0,8719.0 3840.0,8703.0 C 3840.0,8692.0 3829.0,8669.0 3815.0,8650.0 C 3795.0,8623.0 3790.0,8604.0 3790.0,8558.0 C 3790.0,8481.0 3803.0,8460.0 3846.0,8470.0 C 3864.0,8474.0 3900.0,8474.0 3927.0,8469.0 C 3991.0,8457.0 4021.0,8478.0 4036.0,8546.0 C 4042.0,8573.0 4050.0,8603.0 4055.0,8613.0 C 4059.0,8623.0 4058.0,8641.0 4053.0,8653.0 C 4047.0,8665.0 4039.0,8689.0 4034.0,8705.0 C 4023.0,8741.0 3987.0,8749.0 3952.0,8724.0" fill="pink"/>
	<path d="M 4625.0,8390.0 C 4610.0,8373.0 4609.0,8366.0 4620.0,8340.0 C 4633.0,8309.0 4660.0,8300.0 4678.0,8323.0 C 4685.0,8331.0 4683.0,8346.0 4673.0,8373.0 C 4656.0,8415.0 4650.0,8418.0 4625.0,8390.0" fill="pink"/>
	<path d="M 2652.0,7977.0 C 2645.0,7969.0 2636.0,7941.0 2631.0,7913.0 C 2625.0,7886.0 2616.0,7843.0 2610.0,7818.0 C 2599.0,7774.0 2599.0,7770.0 2626.0,7734.0 C 2652.0,7700.0 2655.0,7689.0 2655.0,7620.0 C 2655.0,7553.0 2658.0,7539.0 2681.0,7509.0 C 2703.0,7481.0 2710.0,7457.0 2718.0,7378.0 C 2726.0,7301.0 2734.0,7273.0 2754.0,7243.0 C 2784.0,7199.0 2788.0,7140.0 2765.0,7064.0 C 2740.0,6981.0 2745.0,6956.0 2806.0,6856.0 C 2838.0,6806.0 2872.0,6752.0 2884.0,6735.0 C 2895.0,6719.0 2909.0,6680.0 2916.0,6650.0 C 2925.0,6605.0 2931.0,6593.0 2952.0,6586.0 C 2972.0,6579.0 2984.0,6581.0 3005.0,6598.0 C 3020.0,6610.0 3044.0,6620.0 3057.0,6620.0 C 3070.0,6620.0 3092.0,6631.0 3106.0,6645.0 C 3123.0,6663.0 3138.0,6669.0 3151.0,6665.0 C 3164.0,6660.0 3177.0,6666.0 3189.0,6682.0 C 3207.0,6704.0 3209.0,6704.0 3228.0,6687.0 C 3247.0,6670.0 3280.0,6673.0 3280.0,6691.0 C 3280.0,6708.0 3298.0,6700.0 3303.0,6682.0 C 3305.0,6671.0 3316.0,6661.0 3327.0,6658.0 C 3360.0,6649.0 3389.0,6668.0 3411.0,6713.0 C 3436.0,6764.0 3474.0,6782.0 3540.0,6773.0 C 3569.0,6769.0 3580.0,6771.0 3580.0,6781.0 C 3580.0,6788.0 3558.0,6840.0 3530.0,6897.0 C 3472.0,7017.0 3469.0,7033.0 3507.0,7024.0 C 3533.0,7017.0 3533.0,7018.0 3527.0,7056.0 C 3520.0,7099.0 3489.0,7129.0 3451.0,7130.0 C 3433.0,7130.0 3429.0,7134.0 3436.0,7148.0 C 3440.0,7157.0 3445.0,7199.0 3446.0,7240.0 C 3448.0,7301.0 3445.0,7320.0 3430.0,7340.0 C 3414.0,7360.0 3410.0,7362.0 3410.0,7348.0 C 3410.0,7329.0 3393.0,7325.0 3372.0,7339.0 C 3363.0,7345.0 3361.0,7358.0 3365.0,7383.0 C 3371.0,7411.0 3369.0,7421.0 3357.0,7426.0 C 3332.0,7435.0 3320.0,7483.0 3332.0,7527.0 C 3351.0,7602.0 3350.0,7605.0 3298.0,7608.0 C 3259.0,7611.0 3249.0,7607.0 3236.0,7588.0 C 3227.0,7576.0 3220.0,7554.0 3220.0,7539.0 C 3220.0,7524.0 3213.0,7507.0 3204.0,7499.0 C 3194.0,7491.0 3191.0,7478.0 3195.0,7462.0 C 3198.0,7449.0 3198.0,7411.0 3194.0,7379.0 C 3189.0,7333.0 3184.0,7320.0 3173.0,7324.0 C 3165.0,7327.0 3146.0,7320.0 3130.0,7309.0 C 3106.0,7291.0 3094.0,7288.0 3047.0,7294.0 C 2974.0,7303.0 2956.0,7328.0 2965.0,7404.0 C 2970.0,7442.0 2968.0,7465.0 2957.0,7486.0 C 2944.0,7512.0 2931.0,7575.0 2915.0,7680.0 C 2911.0,7708.0 2901.0,7721.0 2865.0,7745.0 C 2832.0,7767.0 2819.0,7784.0 2814.0,7808.0 C 2811.0,7826.0 2800.0,7846.0 2791.0,7853.0 C 2782.0,7859.0 2767.0,7877.0 2757.0,7893.0 C 2747.0,7908.0 2734.0,7920.0 2727.0,7920.0 C 2719.0,7920.0 2707.0,7934.0 2699.0,7952.0 C 2683.0,7989.0 2668.0,7996.0 2652.0,7977.0" fill="pink"/>
	<path d="M 4731.0,7661.0 C 4720.0,7654.0 4722.0,7646.0 4741.0,7621.0 C 4761.0,7594.0 4764.0,7574.0 4770.0,7468.0 C 4773.0,7400.0 4781.0,7335.0 4788.0,7323.0 C 4795.0,7311.0 4800.0,7286.0 4800.0,7268.0 C 4800.0,7249.0 4807.0,7225.0 4815.0,7214.0 C 4834.0,7189.0 4834.0,7159.0 4815.0,7134.0 C 4792.0,7103.0 4797.0,7071.0 4830.0,7043.0 C 4847.0,7030.0 4860.0,7010.0 4860.0,6999.0 C 4860.0,6975.0 4893.0,6957.0 4908.0,6972.0 C 4924.0,6988.0 4923.0,7012.0 4906.0,7036.0 C 4893.0,7053.0 4893.0,7057.0 4911.0,7070.0 C 4930.0,7085.0 4930.0,7090.0 4919.0,7160.0 C 4913.0,7201.0 4900.0,7251.0 4890.0,7270.0 C 4880.0,7289.0 4867.0,7339.0 4861.0,7380.0 C 4854.0,7421.0 4845.0,7480.0 4839.0,7510.0 C 4834.0,7540.0 4829.0,7577.0 4827.0,7592.0 C 4826.0,7610.0 4813.0,7628.0 4791.0,7645.0 C 4752.0,7673.0 4751.0,7673.0 4731.0,7661.0" fill="pink"/>
	<path d="M 4450.0,7089.0 C 4433.0,7074.0 4401.0,7060.0 4380.0,7056.0 C 4354.0,7052.0 4337.0,7042.0 4325.0,7023.0 C 4295.0,6977.0 4237.0,6931.0 4209.0,6930.0 C 4194.0,6930.0 4177.0,6924.0 4171.0,6916.0 C 4146.0,6887.0 4257.0,6832.0 4305.0,6850.0 C 4316.0,6854.0 4332.0,6854.0 4340.0,6850.0 C 4349.0,6845.0 4377.0,6846.0 4403.0,6852.0 C 4438.0,6859.0 4455.0,6869.0 4472.0,6893.0 C 4484.0,6911.0 4500.0,6929.0 4508.0,6933.0 C 4555.0,6963.0 4588.0,7003.0 4594.0,7039.0 C 4597.0,7063.0 4609.0,7085.0 4621.0,7093.0 C 4651.0,7114.0 4631.0,7121.0 4551.0,7118.0 C 4494.0,7115.0 4477.0,7111.0 4450.0,7089.0" fill="pink"/>
	<path d="M 4835.0,6861.0 C 4832.0,6855.0 4828.0,6822.0 4826.0,6788.0 C 4824.0,6753.0 4816.0,6712.0 4807.0,6695.0 C 4795.0,6673.0 4791.0,6642.0 4792.0,6576.0 C 4793.0,6500.0 4797.0,6481.0 4816.0,6452.0 C 4835.0,6425.0 4838.0,6410.0 4833.0,6375.0 C 4829.0,6345.0 4833.0,6322.0 4844.0,6299.0 C 4853.0,6282.0 4860.0,6246.0 4860.0,6220.0 C 4860.0,6176.0 4863.0,6171.0 4904.0,6142.0 C 4928.0,6124.0 4955.0,6110.0 4963.0,6110.0 C 4972.0,6110.0 4983.0,6135.0 4995.0,6185.0 C 5010.0,6249.0 5011.0,6268.0 5000.0,6322.0 C 4994.0,6357.0 4984.0,6410.0 4979.0,6440.0 C 4973.0,6470.0 4962.0,6502.0 4955.0,6511.0 C 4947.0,6519.0 4940.0,6539.0 4940.0,6554.0 C 4940.0,6569.0 4935.0,6591.0 4929.0,6602.0 C 4922.0,6614.0 4914.0,6666.0 4910.0,6717.0 C 4905.0,6787.0 4898.0,6818.0 4884.0,6837.0 C 4861.0,6868.0 4845.0,6876.0 4835.0,6861.0" fill="pink"/>
	<path d="M 3472.0,6730.0 C 3437.0,6714.0 3429.0,6706.0 3432.0,6688.0 C 3435.0,6668.0 3442.0,6665.0 3486.0,6662.0 C 3540.0,6659.0 3563.0,6677.0 3535.0,6700.0 C 3528.0,6706.0 3524.0,6720.0 3527.0,6730.0 C 3534.0,6755.0 3526.0,6755.0 3472.0,6730.0" fill="pink"/>
	<path d="M 3580.0,6714.0 C 3561.0,6666.0 3572.0,6657.0 3611.0,6688.0 C 3625.0,6700.0 3631.0,6713.0 3627.0,6723.0 C 3617.0,6748.0 3591.0,6743.0 3580.0,6714.0" fill="pink"/>
	<path d="M 3365.0,6627.0 C 3361.0,6619.0 3360.0,6593.0 3362.0,6569.0 C 3365.0,6531.0 3368.0,6525.0 3390.0,6522.0 C 3404.0,6520.0 3429.0,6505.0 3445.0,6489.0 C 3506.0,6431.0 3578.0,6442.0 3565.0,6507.0 C 3561.0,6528.0 3564.0,6547.0 3575.0,6563.0 C 3600.0,6601.0 3586.0,6617.0 3522.0,6623.0 C 3491.0,6626.0 3444.0,6632.0 3418.0,6636.0 C 3380.0,6641.0 3369.0,6639.0 3365.0,6627.0" fill="pink"/>
	<path d="M 3533.0,6256.0 C 3488.0,6242.0 3474.0,6211.0 3488.0,6161.0 C 3504.0,6108.0 3503.0,6089.0 3480.0,6060.0 C 3455.0,6028.0 3455.0,6009.0 3481.0,5959.0 C 3494.0,5932.0 3513.0,5914.0 3535.0,5904.0 C 3581.0,5885.0 3629.0,5886.0 3637.0,5906.0 C 3640.0,5914.0 3654.0,5926.0 3667.0,5931.0 C 3687.0,5938.0 3695.0,5935.0 3723.0,5904.0 C 3777.0,5842.0 3783.0,5826.0 3774.0,5746.0 C 3765.0,5661.0 3766.0,5647.0 3791.0,5593.0 C 3801.0,5570.0 3810.0,5544.0 3810.0,5536.0 C 3810.0,5528.0 3821.0,5508.0 3835.0,5492.0 C 3866.0,5455.0 3868.0,5420.0 3840.0,5420.0 C 3816.0,5420.0 3815.0,5402.0 3834.0,5356.0 C 3844.0,5331.0 3845.0,5319.0 3837.0,5311.0 C 3822.0,5296.0 3835.0,5287.0 3876.0,5286.0 C 3898.0,5285.0 3921.0,5276.0 3935.0,5262.0 C 3951.0,5246.0 3959.0,5243.0 3962.0,5252.0 C 3965.0,5259.0 3975.0,5265.0 3985.0,5265.0 C 3996.0,5265.0 4009.0,5274.0 4015.0,5286.0 C 4020.0,5297.0 4030.0,5305.0 4037.0,5303.0 C 4044.0,5300.0 4059.0,5321.0 4071.0,5349.0 C 4094.0,5403.0 4104.0,5411.0 4114.0,5383.0 C 4120.0,5369.0 4122.0,5369.0 4133.0,5382.0 C 4139.0,5391.0 4162.0,5401.0 4182.0,5404.0 C 4213.0,5410.0 4219.0,5408.0 4225.0,5390.0 C 4230.0,5376.0 4237.0,5371.0 4250.0,5375.0 C 4261.0,5378.0 4270.0,5375.0 4274.0,5365.0 C 4281.0,5347.0 4310.0,5345.0 4310.0,5363.0 C 4310.0,5369.0 4324.0,5387.0 4342.0,5402.0 L 4375.0,5429.0 L 4343.0,5442.0 C 4317.0,5452.0 4310.0,5460.0 4310.0,5482.0 C 4310.0,5498.0 4315.0,5519.0 4322.0,5529.0 C 4331.0,5543.0 4330.0,5555.0 4320.0,5579.0 C 4313.0,5596.0 4304.0,5610.0 4299.0,5610.0 C 4294.0,5610.0 4276.0,5623.0 4257.0,5640.0 C 4238.0,5656.0 4211.0,5674.0 4196.0,5680.0 C 4175.0,5688.0 4170.0,5695.0 4175.0,5709.0 C 4181.0,5730.0 4157.0,5750.0 4123.0,5750.0 C 4113.0,5751.0 4091.0,5770.0 4074.0,5793.0 C 4051.0,5824.0 4030.0,5840.0 3990.0,5854.0 L 3938.0,5873.0 L 3943.0,5920.0 C 3948.0,5962.0 3946.0,5969.0 3929.0,5973.0 C 3918.0,5976.0 3906.0,5972.0 3901.0,5962.0 C 3893.0,5948.0 3887.0,5949.0 3842.0,5970.0 C 3790.0,5995.0 3774.0,6020.0 3790.0,6050.0 C 3805.0,6079.0 3790.0,6109.0 3756.0,6118.0 C 3733.0,6124.0 3724.0,6133.0 3720.0,6153.0 C 3716.0,6172.0 3699.0,6189.0 3655.0,6216.0 C 3571.0,6266.0 3569.0,6267.0 3533.0,6256.0" fill="pink"/>
	<path d="M 4816.0,5968.0 C 4807.0,5956.0 4800.0,5934.0 4800.0,5920.0 C 4800.0,5870.0 4766.0,5850.0 4684.0,5850.0 C 4618.0,5850.0 4520.0,5810.0 4520.0,5783.0 C 4520.0,5735.0 4633.0,5630.0 4685.0,5630.0 C 4699.0,5630.0 4733.0,5619.0 4760.0,5605.0 C 4809.0,5580.0 4864.0,5572.0 4874.0,5589.0 C 4877.0,5593.0 4901.0,5600.0 4927.0,5603.0 C 5044.0,5618.0 5068.0,5637.0 5056.0,5704.0 C 5051.0,5728.0 5041.0,5741.0 5016.0,5752.0 C 4974.0,5773.0 4924.0,5845.0 4915.0,5901.0 C 4907.0,5945.0 4872.0,5990.0 4846.0,5990.0 C 4838.0,5990.0 4824.0,5980.0 4816.0,5968.0" fill="pink"/>
	<path d="M 4939.0,5455.0 C 4914.0,5398.0 4917.0,5376.0 4952.0,5372.0 C 4975.0,5369.0 4980.0,5374.0 4989.0,5405.0 C 4999.0,5443.0 4987.0,5500.0 4968.0,5500.0 C 4963.0,5500.0 4950.0,5480.0 4939.0,5455.0" fill="pink"/>
	<path d="M 5057.0,5434.0 C 5045.0,5422.0 5072.0,5373.0 5101.0,5356.0 C 5131.0,5338.0 5180.0,5340.0 5180.0,5360.0 C 5180.0,5372.0 5090.0,5439.0 5074.0,5440.0 C 5068.0,5440.0 5061.0,5437.0 5057.0,5434.0" fill="pink"/>
	<path d="M 4860.0,5311.0 C 4855.0,5300.0 4850.0,5280.0 4850.0,5266.0 C 4850.0,5252.0 4839.0,5225.0 4826.0,5205.0 C 4802.0,5170.0 4802.0,5168.0 4816.0,5117.0 C 4825.0,5086.0 4843.0,5054.0 4861.0,5038.0 C 4880.0,5020.0 4890.0,5000.0 4890.0,4981.0 C 4890.0,4956.0 4896.0,4950.0 4936.0,4935.0 C 4986.0,4916.0 4984.0,4916.0 5070.0,4965.0 C 5109.0,4988.0 5147.0,4984.0 5166.0,4955.0 C 5175.0,4941.0 5192.0,4930.0 5203.0,4930.0 C 5214.0,4930.0 5231.0,4924.0 5239.0,4916.0 C 5248.0,4909.0 5271.0,4900.0 5290.0,4897.0 C 5323.0,4892.0 5327.0,4895.0 5339.0,4922.0 C 5352.0,4951.0 5351.0,4954.0 5327.0,4972.0 C 5310.0,4984.0 5300.0,5001.0 5300.0,5016.0 C 5300.0,5033.0 5294.0,5040.0 5280.0,5040.0 C 5269.0,5040.0 5260.0,5036.0 5260.0,5030.0 C 5260.0,5018.0 5223.0,5017.0 5216.0,5029.0 C 5213.0,5034.0 5195.0,5041.0 5175.0,5044.0 C 5147.0,5050.0 5135.0,5060.0 5108.0,5105.0 C 5079.0,5153.0 5069.0,5162.0 5020.0,5178.0 C 4966.0,5196.0 4965.0,5197.0 4962.0,5238.0 C 4959.0,5274.0 4953.0,5284.0 4922.0,5305.0 C 4878.0,5335.0 4874.0,5335.0 4860.0,5311.0" fill="pink"/>
	<path d="M 5406.0,4828.0 C 5402.0,4808.0 5405.0,4789.0 5415.0,4774.0 L 5430.0,4751.0 L 5455.0,4776.0 C 5492.0,4813.0 5497.0,4846.0 5468.0,4854.0 C 5424.0,4865.0 5413.0,4861.0 5406.0,4828.0" fill="pink"/>
	<path d="M 5143.0,4630.0 C 5121.0,4621.0 5104.0,4587.0 5114.0,4571.0 C 5122.0,4558.0 5179.0,4552.0 5183.0,4564.0 C 5185.0,4569.0 5204.0,4579.0 5226.0,4585.0 C 5254.0,4593.0 5265.0,4601.0 5265.0,4615.0 C 5265.0,4632.0 5257.0,4635.0 5215.0,4637.0 C 5188.0,4638.0 5155.0,4635.0 5143.0,4630.0" fill="pink"/>
	<path d="M 5107.0,4103.0 C 5094.0,4091.0 5100.0,4041.0 5116.0,4026.0 C 5134.0,4007.0 5177.0,4005.0 5183.0,4023.0 C 5187.0,4035.0 5134.0,4110.0 5121.0,4110.0 C 5117.0,4110.0 5110.0,4107.0 5107.0,4103.0" fill="pink"/>
	<path d="M 5282.0,4058.0 C 5263.0,4039.0 5267.0,4000.0 5288.0,4000.0 C 5316.0,4000.0 5343.0,4024.0 5338.0,4046.0 C 5334.0,4068.0 5300.0,4076.0 5282.0,4058.0" fill="pink"/>
	<path d="M 4975.0,3950.0 C 4956.0,3913.0 4956.0,3910.0 4979.0,3910.0 C 5000.0,3910.0 5014.0,3925.0 5024.0,3958.0 C 5035.0,3993.0 4994.0,3987.0 4975.0,3950.0" fill="pink"/>
	<path d="M 5037.0,3909.0 C 5031.0,3899.0 5017.0,3890.0 5008.0,3890.0 C 4995.0,3890.0 4990.0,3882.0 4990.0,3860.0 C 4990.0,3839.0 4982.0,3824.0 4961.0,3809.0 C 4943.0,3796.0 4930.0,3776.0 4927.0,3755.0 C 4924.0,3736.0 4911.0,3708.0 4899.0,3691.0 C 4881.0,3666.0 4879.0,3658.0 4890.0,3645.0 C 4905.0,3627.0 4931.0,3625.0 4947.0,3641.0 C 4961.0,3655.0 5028.0,3670.0 5046.0,3663.0 C 5072.0,3653.0 5062.0,3622.0 5033.0,3618.0 C 5013.0,3616.0 5004.0,3609.0 5002.0,3592.0 C 4997.0,3560.0 5026.0,3553.0 5054.0,3579.0 C 5066.0,3590.0 5082.0,3600.0 5089.0,3600.0 C 5104.0,3600.0 5144.0,3561.0 5153.0,3537.0 C 5156.0,3529.0 5175.0,3517.0 5194.0,3510.0 C 5223.0,3501.0 5240.0,3501.0 5284.0,3514.0 C 5314.0,3523.0 5361.0,3530.0 5389.0,3530.0 L 5440.0,3530.0 L 5440.0,3580.0 C 5440.0,3619.0 5444.0,3633.0 5460.0,3642.0 C 5490.0,3661.0 5486.0,3698.0 5453.0,3706.0 C 5397.0,3718.0 5391.0,3721.0 5384.0,3743.0 C 5380.0,3755.0 5369.0,3777.0 5359.0,3791.0 C 5349.0,3805.0 5338.0,3828.0 5335.0,3841.0 C 5330.0,3860.0 5313.0,3873.0 5272.0,3893.0 C 5221.0,3916.0 5210.0,3918.0 5172.0,3908.0 C 5137.0,3899.0 5121.0,3900.0 5089.0,3913.0 C 5051.0,3928.0 5049.0,3928.0 5037.0,3909.0" fill="pink"/>
	<path d="M 4920.0,3847.0 C 4920.0,3817.0 4930.0,3807.0 4947.0,3821.0 C 4967.0,3839.0 4963.0,3870.0 4940.0,3870.0 C 4926.0,3870.0 4920.0,3863.0 4920.0,3847.0" fill="pink"/>
	<path d="M 4837.0,3764.0 C 4828.0,3754.0 4849.0,3720.0 4864.0,3720.0 C 4886.0,3720.0 4901.0,3745.0 4888.0,3758.0 C 4875.0,3771.0 4847.0,3774.0 4837.0,3764.0" fill="pink"/>
	<path d="M 6046.0,2396.0 C 6005.0,2386.0 5992.0,2377.0 5972.0,2345.0 C 5933.0,2283.0 5928.0,2237.0 5956.0,2198.0 C 5985.0,2159.0 5987.0,2124.0 5960.0,2108.0 C 5949.0,2101.0 5940.0,2084.0 5940.0,2070.0 C 5940.0,2042.0 5994.0,1970.0 6014.0,1970.0 C 6021.0,1970.0 6062.0,1952.0 6105.0,1930.0 C 6148.0,1908.0 6188.0,1890.0 6195.0,1890.0 C 6202.0,1890.0 6218.0,1882.0 6231.0,1872.0 C 6251.0,1855.0 6256.0,1854.0 6284.0,1868.0 C 6323.0,1887.0 6370.0,1930.0 6370.0,1947.0 C 6370.0,1974.0 6316.0,2096.0 6294.0,2119.0 C 6281.0,2133.0 6247.0,2151.0 6218.0,2160.0 C 6185.0,2170.0 6165.0,2181.0 6165.0,2190.0 C 6165.0,2202.0 6180.0,2205.0 6238.0,2203.0 C 6320.0,2201.0 6331.0,2213.0 6279.0,2251.0 C 6254.0,2269.0 6244.0,2271.0 6224.0,2262.0 C 6204.0,2252.0 6199.0,2254.0 6190.0,2271.0 C 6184.0,2282.0 6182.0,2304.0 6185.0,2320.0 C 6194.0,2363.0 6183.0,2387.0 6148.0,2399.0 C 6112.0,2412.0 6112.0,2412.0 6046.0,2396.0" fill="pink"/>
	<path d="M 6785.0,1460.0 C 6781.0,1454.0 6782.0,1436.0 6785.0,1419.0 C 6795.0,1375.0 6824.0,1384.0 6828.0,1433.0 C 6831.0,1464.0 6828.0,1470.0 6811.0,1470.0 C 6800.0,1470.0 6788.0,1465.0 6785.0,1460.0" fill="pink"/>
	<path d="M 6400.0,1351.0 C 6392.0,1346.0 6368.0,1340.0 6348.0,1336.0 C 6312.0,1329.0 6311.0,1328.0 6313.0,1287.0 C 6313.0,1264.0 6306.0,1228.0 6297.0,1208.0 L 6280.0,1171.0 L 6325.0,1104.0 C 6350.0,1067.0 6370.0,1030.0 6370.0,1021.0 C 6370.0,998.0 6384.0,980.0 6411.0,967.0 C 6424.0,960.0 6437.0,944.0 6440.0,930.0 C 6445.0,909.0 6453.0,904.0 6485.0,902.0 C 6531.0,898.0 6575.0,917.0 6560.0,935.0 C 6553.0,943.0 6555.0,957.0 6565.0,976.0 C 6573.0,992.0 6580.0,1010.0 6580.0,1017.0 C 6580.0,1023.0 6594.0,1040.0 6611.0,1053.0 C 6645.0,1080.0 6646.0,1110.0 6612.0,1110.0 C 6601.0,1110.0 6587.0,1124.0 6577.0,1145.0 C 6568.0,1165.0 6552.0,1183.0 6543.0,1186.0 C 6465.0,1211.0 6467.0,1209.0 6473.0,1270.0 C 6478.0,1318.0 6476.0,1330.0 6461.0,1344.0 C 6442.0,1362.0 6423.0,1364.0 6400.0,1351.0" fill="pink"/>
	<path d="M 7587.0,1056.0 C 7578.0,1034.0 7604.0,1019.0 7639.0,1026.0 C 7660.0,1031.0 7670.0,1038.0 7670.0,1051.0 C 7670.0,1066.0 7662.0,1070.0 7631.0,1070.0 C 7607.0,1070.0 7590.0,1065.0 7587.0,1056.0" fill="pink"/>
	<path d="M 7027.0,181.0 C 7031.0,165.0 7026.0,161.0 6998.0,158.0 C 6970.0,155.0 6965.0,151.0 6962.0,125.0 C 6959.0,106.0 6964.0,92.0 6975.0,84.0 C 6985.0,77.0 6995.0,56.0 6999.0,38.0 C 7005.0,10.0 7010.0,6.0 7031.0,8.0 C 7044.0,10.0 7084.0,14.0 7120.0,18.0 L 7184.0,25.0 L 7181.0,80.0 C 7178.0,141.0 7160.0,170.0 7123.0,170.0 C 7110.0,170.0 7083.0,177.0 7063.0,185.0 C 7019.0,204.0 7021.0,204.0 7027.0,181.0" fill="pink"/>
</svg>
