<?xml version="1.0" ?>
<svg xmlns="http://www.w3.org/2000/svg" xmlns:ev="http://www.w3.org/2001/xml-events" xmlns:xlink="http://www.w3.org/1999/xlink" baseProfile="full" height="402px" version="1.1" viewBox="-1025.5345065701165 999.4497728081747 12294.327071686243 8235.419016594635" width="600px">
	<defs/>
	<path d="M 7702.0,8538.0 C 7688.0,8524.0 7686.0,8460.0 7699.0,8460.0 C 7714.0,8460.0 7733.0,8517.0 7723.0,8534.0 C 7716.0,8547.0 7711.0,8547.0 7702.0,8538.0" fill="pink"/>
	<path d="M 7815.0,8426.0 C 7793.0,8399.0 7767.0,8379.0 7749.0,8375.0 C 7733.0,8371.0 7718.0,8364.0 7715.0,8359.0 C 7706.0,8346.0 7719.0,8348.0 7778.0,8370.0 C 7814.0,8384.0 7843.0,8389.0 7865.0,8384.0 C 7902.0,8377.0 7977.0,8318.0 8057.0,8233.0 C 8099.0,8189.0 8112.0,8180.0 8123.0,8189.0 C 8132.0,8196.0 8135.0,8211.0 8131.0,8233.0 C 8126.0,8260.0 8104.0,8286.0 8019.0,8362.0 C 7954.0,8421.0 7902.0,8460.0 7883.0,8464.0 C 7855.0,8470.0 7849.0,8467.0 7815.0,8426.0" fill="pink"/>
	<path d="M 8472.0,7886.0 L 8449.0,7874.0 L 8485.0,7846.0 C 8505.0,7830.0 8546.0,7812.0 8577.0,7805.0 L 8632.0,7792.0 L 8579.0,7846.0 C 8523.0,7903.0 8510.0,7908.0 8472.0,7886.0" fill="pink"/>
	<path d="M 8800.0,7407.0 C 8800.0,7400.0 8807.0,7385.0 8815.0,7374.0 C 8823.0,7364.0 8830.0,7347.0 8830.0,7338.0 C 8830.0,7314.0 8862.0,7315.0 8884.0,7339.0 C 8900.0,7356.0 8899.0,7359.0 8871.0,7389.0 C 8842.0,7420.0 8800.0,7431.0 8800.0,7407.0" fill="pink"/>
	<path d="M 7739.0,7352.0 C 7697.0,7337.0 7631.0,7306.0 7592.0,7283.0 C 7545.0,7254.0 7510.0,7240.0 7487.0,7240.0 C 7436.0,7240.0 7420.0,7231.0 7420.0,7203.0 C 7420.0,7151.0 7325.0,7010.0 7290.0,7010.0 C 7281.0,7010.0 7252.0,6980.0 7226.0,6942.0 C 7181.0,6876.0 7180.0,6872.0 7186.0,6819.0 C 7190.0,6778.0 7187.0,6753.0 7172.0,6715.0 C 7162.0,6688.0 7149.0,6643.0 7146.0,6615.0 C 7142.0,6588.0 7130.0,6550.0 7120.0,6533.0 C 7105.0,6507.0 7103.0,6491.0 7109.0,6458.0 C 7119.0,6399.0 7097.0,6337.0 7049.0,6290.0 C 7012.0,6255.0 7010.0,6249.0 7010.0,6194.0 C 7010.0,6161.0 7014.0,6120.0 7019.0,6103.0 C 7027.0,6077.0 7025.0,6066.0 7009.0,6046.0 C 6980.0,6010.0 6986.0,5984.0 7034.0,5922.0 C 7074.0,5871.0 7079.0,5859.0 7081.0,5810.0 C 7082.0,5772.0 7076.0,5740.0 7061.0,5709.0 C 7043.0,5669.0 7041.0,5655.0 7050.0,5610.0 C 7061.0,5550.0 7063.0,5487.0 7054.0,5442.0 C 7050.0,5421.0 7040.0,5410.0 7024.0,5406.0 C 7008.0,5402.0 7000.0,5392.0 7000.0,5379.0 C 7000.0,5342.0 6981.0,5322.0 6896.0,5271.0 C 6822.0,5226.0 6803.0,5220.0 6725.0,5210.0 C 6640.0,5199.0 6622.0,5192.0 6517.0,5130.0 C 6493.0,5116.0 6474.0,5111.0 6462.0,5116.0 C 6441.0,5125.0 6451.0,5128.0 6350.0,5086.0 C 6304.0,5066.0 6257.0,5050.0 6247.0,5050.0 C 6216.0,5050.0 6228.0,4960.0 6279.0,4803.0 C 6306.0,4722.0 6307.0,4711.0 6296.0,4668.0 C 6290.0,4644.0 6275.0,4612.0 6263.0,4596.0 C 6225.0,4548.0 6224.0,4509.0 6259.0,4437.0 C 6276.0,4402.0 6290.0,4367.0 6290.0,4359.0 C 6290.0,4351.0 6303.0,4323.0 6318.0,4295.0 C 6352.0,4233.0 6386.0,4219.0 6481.0,4227.0 C 6540.0,4232.0 6550.0,4230.0 6566.0,4212.0 L 6583.0,4191.0 L 6648.0,4215.0 C 6684.0,4228.0 6717.0,4237.0 6722.0,4234.0 C 6726.0,4231.0 6730.0,4211.0 6730.0,4189.0 C 6730.0,4106.0 6771.0,4060.0 6846.0,4060.0 C 6859.0,4060.0 6875.0,4052.0 6882.0,4042.0 C 6900.0,4016.0 6942.0,4008.0 6966.0,4024.0 C 6990.0,4040.0 7028.0,4050.0 7043.0,4044.0 C 7052.0,4041.0 7053.0,4009.0 7049.0,3933.0 L 7043.0,3827.0 L 7074.0,3799.0 C 7091.0,3783.0 7113.0,3770.0 7122.0,3770.0 C 7131.0,3770.0 7142.0,3765.0 7145.0,3760.0 C 7148.0,3755.0 7162.0,3750.0 7175.0,3750.0 C 7201.0,3750.0 7213.0,3725.0 7235.0,3622.0 C 7243.0,3587.0 7263.0,3535.0 7280.0,3506.0 C 7315.0,3445.0 7319.0,3410.0 7291.0,3403.0 C 7264.0,3396.0 7250.0,3336.0 7250.0,3221.0 C 7250.0,3138.0 7253.0,3120.0 7265.0,3120.0 C 7274.0,3120.0 7280.0,3129.0 7280.0,3144.0 C 7280.0,3182.0 7294.0,3183.0 7320.0,3147.0 C 7333.0,3129.0 7349.0,3111.0 7357.0,3107.0 C 7364.0,3103.0 7370.0,3090.0 7370.0,3080.0 C 7370.0,3056.0 7371.0,3056.0 7414.0,3074.0 C 7444.0,3086.0 7452.0,3086.0 7489.0,3069.0 C 7512.0,3059.0 7545.0,3039.0 7564.0,3025.0 C 7582.0,3011.0 7604.0,3000.0 7614.0,3000.0 C 7623.0,3000.0 7633.0,2993.0 7636.0,2985.0 C 7652.0,2944.0 7727.0,3002.0 7736.0,3062.0 C 7741.0,3090.0 7754.0,3113.0 7781.0,3140.0 C 7802.0,3160.0 7822.0,3188.0 7825.0,3201.0 C 7832.0,3228.0 7895.0,3280.0 7920.0,3280.0 C 7930.0,3280.0 7954.0,3267.0 7975.0,3250.0 C 8010.0,3223.0 8016.0,3221.0 8072.0,3227.0 L 8131.0,3233.0 L 8198.0,3167.0 C 8272.0,3095.0 8322.0,3073.0 8385.0,3084.0 C 8416.0,3090.0 8425.0,3098.0 8439.0,3130.0 C 8452.0,3162.0 8465.0,3173.0 8504.0,3190.0 C 8531.0,3201.0 8560.0,3210.0 8570.0,3210.0 C 8595.0,3210.0 8617.0,3240.0 8624.0,3286.0 C 8629.0,3322.0 8627.0,3329.0 8597.0,3357.0 C 8580.0,3373.0 8544.0,3402.0 8518.0,3420.0 C 8471.0,3453.0 8469.0,3453.0 8423.0,3441.0 C 8319.0,3413.0 8303.0,3415.0 8265.0,3453.0 C 8236.0,3482.0 8230.0,3495.0 8230.0,3532.0 C 8230.0,3568.0 8237.0,3584.0 8270.0,3624.0 C 8329.0,3695.0 8320.0,3711.0 8245.0,3665.0 C 8201.0,3638.0 8170.0,3634.0 8152.0,3652.0 C 8142.0,3662.0 8146.0,3670.0 8172.0,3692.0 C 8205.0,3718.0 8205.0,3719.0 8188.0,3748.0 C 8165.0,3787.0 8174.0,3814.0 8231.0,3882.0 C 8283.0,3942.0 8290.0,3960.0 8263.0,3960.0 C 8251.0,3960.0 8238.0,3976.0 8226.0,4005.0 C 8203.0,4061.0 8211.0,4125.0 8245.0,4176.0 C 8258.0,4195.0 8274.0,4226.0 8280.0,4245.0 C 8286.0,4263.0 8302.0,4286.0 8316.0,4295.0 L 8342.0,4312.0 L 8301.0,4347.0 C 8262.0,4379.0 8260.0,4385.0 8260.0,4435.0 C 8260.0,4486.0 8262.0,4491.0 8297.0,4515.0 L 8334.0,4540.0 L 8371.0,4504.0 L 8408.0,4468.0 L 8447.0,4489.0 L 8487.0,4509.0 L 8492.0,4582.0 C 8499.0,4667.0 8486.0,4703.0 8434.0,4740.0 C 8401.0,4763.0 8399.0,4768.0 8403.0,4810.0 C 8412.0,4902.0 8439.0,4967.0 8500.0,5041.0 C 8533.0,5079.0 8572.0,5134.0 8587.0,5161.0 C 8616.0,5211.0 8627.0,5217.0 8659.0,5200.0 C 8681.0,5189.0 8691.0,5198.0 8755.0,5291.0 C 8893.0,5490.0 8953.0,5587.0 9004.0,5692.0 L 9061.0,5809.0 L 9034.0,5852.0 C 9019.0,5876.0 8992.0,5913.0 8973.0,5936.0 C 8946.0,5970.0 8940.0,5986.0 8940.0,6026.0 C 8939.0,6098.0 8916.0,6184.0 8886.0,6223.0 C 8855.0,6263.0 8784.0,6287.0 8726.0,6276.0 C 8695.0,6270.0 8689.0,6274.0 8650.0,6317.0 C 8626.0,6344.0 8598.0,6385.0 8587.0,6410.0 C 8576.0,6435.0 8556.0,6470.0 8542.0,6487.0 C 8519.0,6518.0 8496.0,6611.0 8475.0,6760.0 C 8470.0,6795.0 8462.0,6810.0 8435.0,6831.0 C 8417.0,6845.0 8385.0,6876.0 8366.0,6899.0 C 8331.0,6940.0 8330.0,6945.0 8330.0,7021.0 C 8330.0,7097.0 8329.0,7100.0 8302.0,7114.0 C 8287.0,7122.0 8265.0,7145.0 8255.0,7164.0 C 8234.0,7202.0 8222.0,7206.0 8158.0,7191.0 C 8123.0,7183.0 8120.0,7184.0 8063.0,7242.0 C 7995.0,7312.0 7911.0,7364.0 7855.0,7372.0 C 7826.0,7377.0 7794.0,7371.0 7739.0,7352.0" fill="pink"/>
	<path d="M 9490.0,5659.0 C 9465.0,5649.0 9437.0,5638.0 9428.0,5634.0 C 9410.0,5628.0 9397.0,5603.0 9405.0,5591.0 C 9413.0,5577.0 9519.0,5571.0 9551.0,5582.0 C 9567.0,5587.0 9585.0,5601.0 9592.0,5613.0 C 9601.0,5631.0 9599.0,5637.0 9576.0,5657.0 C 9545.0,5684.0 9548.0,5684.0 9490.0,5659.0" fill="pink"/>
	<path d="M 111.0,5648.0 C 106.0,5635.0 92.0,5600.0 80.0,5570.0 C 63.0,5526.0 60.0,5505.0 65.0,5457.0 C 71.0,5406.0 69.0,5395.0 47.0,5362.0 C 33.0,5342.0 17.0,5308.0 10.0,5287.0 C -1.0,5253.0 0.0,5247.0 24.0,5219.0 C 49.0,5189.0 104.0,5032.0 134.0,4903.0 C 144.0,4858.0 164.0,4818.0 205.0,4758.0 C 267.0,4669.0 310.0,4568.0 310.0,4513.0 C 310.0,4491.0 324.0,4455.0 349.0,4412.0 C 371.0,4374.0 400.0,4302.0 416.0,4246.0 C 439.0,4163.0 442.0,4143.0 432.0,4117.0 C 426.0,4100.0 421.0,4086.0 423.0,4085.0 C 424.0,4084.0 462.0,4058.0 508.0,4026.0 C 582.0,3977.0 597.0,3970.0 641.0,3970.0 C 681.0,3970.0 696.0,3965.0 716.0,3945.0 L 741.0,3920.0 L 720.0,3890.0 L 698.0,3860.0 L 722.0,3840.0 C 734.0,3829.0 748.0,3821.0 752.0,3820.0 C 756.0,3820.0 756.0,3805.0 754.0,3788.0 C 746.0,3741.0 768.0,3699.0 825.0,3647.0 C 864.0,3612.0 888.0,3600.0 933.0,3590.0 C 977.0,3581.0 990.0,3574.0 990.0,3561.0 C 990.0,3535.0 1007.0,3525.0 1074.0,3511.0 C 1109.0,3503.0 1140.0,3490.0 1149.0,3478.0 C 1163.0,3461.0 1169.0,3460.0 1195.0,3470.0 C 1239.0,3487.0 1266.0,3475.0 1292.0,3428.0 C 1315.0,3386.0 1316.0,3385.0 1390.0,3374.0 C 1431.0,3367.0 1500.0,3361.0 1542.0,3361.0 C 1619.0,3360.0 1619.0,3360.0 1646.0,3396.0 L 1673.0,3431.0 L 1754.0,3425.0 C 1891.0,3415.0 2010.0,3400.0 2128.0,3378.0 C 2217.0,3362.0 2267.0,3359.0 2363.0,3363.0 C 2497.0,3368.0 2567.0,3387.0 2650.0,3440.0 C 2720.0,3485.0 2775.0,3482.0 2843.0,3431.0 C 2983.0,3327.0 3034.0,3317.0 3426.0,3322.0 C 3752.0,3327.0 3805.0,3334.0 3877.0,3382.0 C 3904.0,3400.0 3932.0,3410.0 3957.0,3410.0 C 4005.0,3411.0 4102.0,3452.0 4111.0,3476.0 C 4127.0,3516.0 4121.0,3529.0 4085.0,3536.0 C 4059.0,3541.0 4044.0,3538.0 4031.0,3526.0 C 4016.0,3512.0 4005.0,3511.0 3971.0,3519.0 C 3949.0,3524.0 3892.0,3525.0 3846.0,3523.0 L 3762.0,3517.0 L 3673.0,3592.0 C 3569.0,3680.0 3473.0,3734.0 3405.0,3744.0 C 3378.0,3749.0 3347.0,3758.0 3336.0,3766.0 C 3318.0,3778.0 3313.0,3777.0 3295.0,3761.0 C 3275.0,3742.0 3274.0,3742.0 3217.0,3776.0 C 3164.0,3807.0 3152.0,3810.0 3079.0,3810.0 C 2999.0,3810.0 2998.0,3810.0 2967.0,3846.0 C 2928.0,3890.0 2867.0,3934.0 2775.0,3985.0 C 2737.0,4006.0 2672.0,4049.0 2632.0,4079.0 C 2571.0,4124.0 2553.0,4145.0 2525.0,4199.0 C 2501.0,4248.0 2480.0,4274.0 2444.0,4300.0 C 2417.0,4319.0 2368.0,4357.0 2335.0,4385.0 C 2302.0,4412.0 2234.0,4462.0 2184.0,4494.0 C 2134.0,4527.0 2084.0,4568.0 2073.0,4584.0 C 2062.0,4601.0 2005.0,4668.0 1946.0,4732.0 C 1845.0,4843.0 1828.0,4871.0 1850.0,4885.0 C 1872.0,4899.0 1856.0,4907.0 1781.0,4924.0 C 1713.0,4938.0 1701.0,4944.0 1696.0,4965.0 C 1693.0,4978.0 1682.0,4991.0 1672.0,4994.0 C 1662.0,4997.0 1637.0,5018.0 1617.0,5039.0 C 1596.0,5061.0 1561.0,5085.0 1535.0,5093.0 C 1495.0,5107.0 1484.0,5107.0 1442.0,5095.0 C 1401.0,5082.0 1394.0,5082.0 1384.0,5095.0 C 1360.0,5128.0 1296.0,5170.0 1247.0,5186.0 C 1218.0,5195.0 1182.0,5213.0 1166.0,5226.0 L 1136.0,5248.0 L 1097.0,5229.0 C 1064.0,5212.0 1051.0,5210.0 1011.0,5219.0 C 917.0,5239.0 915.0,5241.0 886.0,5333.0 C 872.0,5380.0 860.0,5429.0 860.0,5443.0 C 860.0,5474.0 844.0,5486.0 825.0,5470.0 C 815.0,5462.0 791.0,5459.0 760.0,5462.0 C 727.0,5465.0 704.0,5463.0 692.0,5454.0 C 661.0,5430.0 622.0,5439.0 536.0,5490.0 C 489.0,5517.0 439.0,5545.0 424.0,5550.0 C 409.0,5556.0 380.0,5574.0 359.0,5590.0 C 267.0,5663.0 129.0,5695.0 111.0,5648.0" fill="pink"/>
	<path d="M 9533.0,5413.0 C 9515.0,5411.0 9500.0,5403.0 9500.0,5397.0 C 9500.0,5390.0 9497.0,5369.0 9494.0,5350.0 C 9488.0,5315.0 9489.0,5314.0 9539.0,5291.0 C 9596.0,5264.0 9620.0,5272.0 9620.0,5318.0 C 9620.0,5363.0 9598.0,5420.0 9581.0,5418.0 C 9572.0,5418.0 9550.0,5415.0 9533.0,5413.0" fill="pink"/>
	<path d="M 10171.0,5103.0 L 10106.0,5099.0 L 10136.0,5080.0 C 10152.0,5069.0 10182.0,5060.0 10203.0,5060.0 C 10236.0,5060.0 10240.0,5063.0 10240.0,5085.0 C 10240.0,5099.0 10239.0,5109.0 10238.0,5108.0 C 10236.0,5107.0 10206.0,5105.0 10171.0,5103.0" fill="pink"/>
	<path d="M 4390.0,2970.0 C 4371.0,2960.0 4337.0,2951.0 4315.0,2950.0 C 4293.0,2950.0 4241.0,2937.0 4200.0,2921.0 C 4159.0,2906.0 4100.0,2890.0 4070.0,2886.0 C 4022.0,2880.0 4004.0,2871.0 3935.0,2817.0 C 3891.0,2782.0 3820.0,2735.0 3778.0,2712.0 C 3715.0,2677.0 3692.0,2657.0 3650.0,2600.0 C 3597.0,2528.0 3580.0,2488.0 3580.0,2431.0 C 3580.0,2409.0 3569.0,2382.0 3545.0,2349.0 C 3525.0,2323.0 3502.0,2281.0 3494.0,2256.0 C 3479.0,2214.0 3480.0,2209.0 3497.0,2186.0 C 3507.0,2172.0 3536.0,2149.0 3562.0,2135.0 C 3588.0,2121.0 3622.0,2093.0 3638.0,2074.0 L 3667.0,2039.0 L 3732.0,2054.0 C 3767.0,2062.0 3819.0,2078.0 3847.0,2089.0 L 3898.0,2109.0 L 3982.0,2086.0 C 4169.0,2034.0 4280.0,1948.0 4280.0,1855.0 C 4280.0,1760.0 4283.0,1755.0 4379.0,1721.0 C 4426.0,1704.0 4472.0,1690.0 4479.0,1690.0 C 4487.0,1690.0 4512.0,1707.0 4534.0,1728.0 C 4557.0,1750.0 4583.0,1771.0 4591.0,1776.0 C 4599.0,1781.0 4616.0,1801.0 4628.0,1821.0 C 4643.0,1846.0 4665.0,1864.0 4693.0,1875.0 C 4716.0,1884.0 4769.0,1922.0 4810.0,1959.0 C 5029.0,2154.0 5215.0,2268.0 5533.0,2401.0 C 5636.0,2445.0 5745.0,2496.0 5775.0,2516.0 C 5822.0,2548.0 5827.0,2554.0 5817.0,2571.0 C 5807.0,2587.0 5803.0,2587.0 5790.0,2575.0 C 5765.0,2553.0 5726.0,2568.0 5674.0,2621.0 L 5626.0,2670.0 L 5523.0,2670.0 C 5452.0,2670.0 5408.0,2665.0 5380.0,2654.0 C 5346.0,2640.0 5335.0,2640.0 5309.0,2650.0 C 5288.0,2659.0 5252.0,2661.0 5193.0,2657.0 C 5109.0,2651.0 5107.0,2651.0 5031.0,2690.0 C 4966.0,2723.0 4951.0,2735.0 4928.0,2777.0 C 4914.0,2804.0 4896.0,2848.0 4889.0,2875.0 C 4883.0,2903.0 4873.0,2930.0 4868.0,2937.0 C 4854.0,2955.0 4778.0,2963.0 4735.0,2951.0 C 4704.0,2943.0 4692.0,2944.0 4666.0,2958.0 C 4649.0,2967.0 4617.0,2975.0 4595.0,2975.0 C 4573.0,2976.0 4526.0,2979.0 4490.0,2983.0 C 4435.0,2989.0 4419.0,2987.0 4390.0,2970.0" fill="pink"/>
	<path d="M 7191.0,2488.0 C 7196.0,2459.0 7196.0,2421.0 7191.0,2404.0 C 7183.0,2374.0 7184.0,2371.0 7219.0,2358.0 C 7251.0,2345.0 7259.0,2336.0 7269.0,2297.0 C 7277.0,2271.0 7279.0,2235.0 7275.0,2212.0 C 7270.0,2181.0 7262.0,2170.0 7235.0,2157.0 C 7206.0,2143.0 7181.0,2106.0 7192.0,2094.0 C 7195.0,2092.0 7219.0,2097.0 7246.0,2105.0 C 7317.0,2127.0 7352.0,2124.0 7427.0,2090.0 C 7463.0,2074.0 7494.0,2060.0 7495.0,2060.0 C 7496.0,2060.0 7500.0,2077.0 7503.0,2098.0 C 7506.0,2118.0 7512.0,2145.0 7515.0,2156.0 C 7520.0,2173.0 7516.0,2179.0 7496.0,2184.0 C 7482.0,2187.0 7454.0,2207.0 7435.0,2228.0 C 7407.0,2258.0 7400.0,2273.0 7400.0,2307.0 C 7400.0,2347.0 7398.0,2350.0 7363.0,2359.0 C 7342.0,2365.0 7320.0,2370.0 7314.0,2370.0 C 7308.0,2370.0 7291.0,2403.0 7276.0,2444.0 C 7256.0,2498.0 7242.0,2520.0 7224.0,2529.0 C 7185.0,2546.0 7182.0,2543.0 7191.0,2488.0" fill="pink"/>
	<path d="M 8709.0,2458.0 L 8672.0,2448.0 L 8711.0,2365.0 C 8754.0,2274.0 8761.0,2216.0 8735.0,2166.0 C 8727.0,2151.0 8720.0,2125.0 8720.0,2109.0 C 8720.0,2084.0 8724.0,2080.0 8748.0,2080.0 C 8809.0,2080.0 8820.0,2071.0 8820.0,2025.0 C 8820.0,1972.0 8768.0,1850.0 8745.0,1850.0 C 8737.0,1850.0 8730.0,1847.0 8730.0,1844.0 C 8730.0,1832.0 8771.0,1770.0 8778.0,1771.0 C 8813.0,1774.0 8880.0,1938.0 8880.0,2019.0 C 8880.0,2036.0 8864.0,2114.0 8844.0,2192.0 C 8816.0,2305.0 8810.0,2344.0 8816.0,2386.0 C 8822.0,2437.0 8821.0,2439.0 8792.0,2454.0 C 8758.0,2472.0 8759.0,2472.0 8709.0,2458.0" fill="pink"/>
</svg>
