<?xml version="1.0" ?>
<svg xmlns="http://www.w3.org/2000/svg" xmlns:ev="http://www.w3.org/2001/xml-events" xmlns:xlink="http://www.w3.org/1999/xlink" baseProfile="full" height="429px" version="1.1" viewBox="-1029.005884005036 724.7647936435673 12294.896251454005 8788.9127207798" width="600px">
	<defs/>
	<path d="M 7115.0,8141.0 L 5415.0,7504.0 L 5332.0,7380.0 C 5286.0,7311.0 4901.0,6743.0 4477.0,6116.0 C 3823.0,5151.0 3705.0,4982.0 3702.0,5006.0 C 3700.0,5022.0 3677.0,5215.0 3652.0,5435.0 L 3604.0,5835.0 L 2626.0,6212.0 L 1648.0,6589.0 L 1498.0,6559.0 C 1384.0,6536.0 1333.0,6520.0 1287.0,6495.0 L 1228.0,6462.0 L 1176.0,6479.0 C 1131.0,6495.0 1119.0,6495.0 1075.0,6484.0 C 1048.0,6477.0 1022.0,6474.0 1019.0,6478.0 C 1016.0,6482.0 992.0,6513.0 966.0,6548.0 C 923.0,6605.0 916.0,6610.0 881.0,6610.0 C 860.0,6610.0 824.0,6617.0 801.0,6625.0 L 760.0,6639.0 L 630.0,6539.0 C 558.0,6483.0 500.0,6435.0 500.0,6430.0 C 500.0,6426.0 507.0,6406.0 515.0,6386.0 C 530.0,6350.0 530.0,6346.0 494.0,6252.0 C 474.0,6199.0 458.0,6144.0 458.0,6130.0 C 459.0,6116.0 462.0,6068.0 465.0,6023.0 C 472.0,5943.0 472.0,5941.0 506.0,5921.0 L 541.0,5900.0 L 538.0,5813.0 L 535.0,5725.0 L 503.0,5720.0 C 476.0,5716.0 457.0,5695.0 373.0,5585.0 L 275.0,5455.0 L 200.0,5429.0 C 145.0,5410.0 124.0,5398.0 122.0,5384.0 C 120.0,5373.0 131.0,5322.0 146.0,5270.0 C 165.0,5205.0 175.0,5140.0 179.0,5065.0 C 182.0,5003.0 191.0,4945.0 198.0,4932.0 C 207.0,4916.0 209.0,4892.0 205.0,4855.0 C 198.0,4806.0 195.0,4801.0 168.0,4795.0 C 140.0,4788.0 139.0,4786.0 145.0,4749.0 C 151.0,4714.0 150.0,4710.0 126.0,4704.0 C 94.0,4696.0 93.0,4684.0 125.0,4638.0 C 145.0,4608.0 150.0,4589.0 150.0,4536.0 C 150.0,4481.0 153.0,4470.0 170.0,4465.0 C 183.0,4461.0 191.0,4446.0 196.0,4422.0 C 199.0,4402.0 208.0,4360.0 216.0,4329.0 C 224.0,4298.0 230.0,4269.0 230.0,4265.0 C 230.0,4251.0 186.0,4273.0 164.0,4299.0 L 141.0,4325.0 L 140.0,4277.0 C 140.0,4241.0 133.0,4220.0 109.0,4188.0 L 79.0,4145.0 L 112.0,4133.0 C 130.0,4127.0 166.0,4121.0 192.0,4121.0 C 267.0,4120.0 285.0,4106.0 320.0,4025.0 C 338.0,3985.0 365.0,3939.0 381.0,3924.0 C 397.0,3909.0 410.0,3886.0 410.0,3873.0 C 410.0,3853.0 406.0,3851.0 380.0,3857.0 C 360.0,3860.0 350.0,3858.0 350.0,3851.0 C 350.0,3827.0 378.0,3774.0 404.0,3751.0 C 418.0,3738.0 444.0,3690.0 461.0,3646.0 C 478.0,3601.0 504.0,3552.0 520.0,3535.0 C 535.0,3519.0 557.0,3477.0 568.0,3443.0 L 589.0,3380.0 L 559.0,3380.0 C 525.0,3380.0 525.0,3379.0 546.0,3314.0 C 556.0,3282.0 575.0,3253.0 602.0,3229.0 L 643.0,3192.0 L 644.0,3071.0 C 646.0,2929.0 646.0,2929.0 763.0,2831.0 C 835.0,2770.0 840.0,2764.0 840.0,2727.0 C 840.0,2699.0 849.0,2672.0 870.0,2640.0 C 919.0,2563.0 932.0,2517.0 915.0,2471.0 C 908.0,2449.0 894.0,2373.0 885.0,2301.0 C 869.0,2178.0 869.0,2168.0 885.0,2118.0 C 912.0,2037.0 928.0,2009.0 981.0,1955.0 C 1024.0,1911.0 1033.0,1893.0 1058.0,1810.0 C 1083.0,1724.0 1089.0,1713.0 1119.0,1698.0 C 1152.0,1681.0 1153.0,1680.0 1154.0,1609.0 L 1155.0,1536.0 L 1190.0,1528.0 C 1220.0,1522.0 1233.0,1526.0 1277.0,1556.0 C 1306.0,1574.0 1334.0,1590.0 1339.0,1590.0 C 1345.0,1590.0 1376.0,1574.0 1409.0,1555.0 C 1454.0,1529.0 1480.0,1520.0 1515.0,1520.0 C 1544.0,1520.0 1579.0,1511.0 1610.0,1495.0 C 1674.0,1463.0 1763.0,1461.0 1820.0,1490.0 C 1869.0,1515.0 1870.0,1515.0 1870.0,1485.0 C 1870.0,1455.0 1879.0,1454.0 1930.0,1480.0 C 1952.0,1491.0 1980.0,1500.0 1993.0,1500.0 C 2006.0,1500.0 2029.0,1513.0 2045.0,1530.0 C 2063.0,1549.0 2084.0,1560.0 2101.0,1560.0 C 2122.0,1560.0 2143.0,1576.0 2195.0,1635.0 C 2261.0,1709.0 2263.0,1710.0 2311.0,1710.0 C 2338.0,1710.0 2360.0,1707.0 2360.0,1703.0 C 2360.0,1698.0 2369.0,1684.0 2379.0,1671.0 L 2397.0,1647.0 L 2428.0,1669.0 L 2459.0,1691.0 L 2480.0,1649.0 C 2504.0,1602.0 2501.0,1602.0 2612.0,1653.0 C 2688.0,1688.0 2688.0,1688.0 2706.0,1669.0 C 2719.0,1655.0 2734.0,1650.0 2759.0,1652.0 L 2795.0,1655.0 L 2802.0,1764.0 L 2808.0,1873.0 L 2861.0,1926.0 C 2908.0,1974.0 2919.0,1980.0 2969.0,1986.0 C 3063.0,1997.0 3103.0,2028.0 3160.0,2134.0 C 3225.0,2254.0 3275.0,2302.0 3364.0,2329.0 C 3401.0,2341.0 3459.0,2350.0 3493.0,2350.0 C 3548.0,2350.0 3558.0,2353.0 3606.0,2391.0 L 3660.0,2432.0 L 3724.0,2420.0 C 3786.0,2409.0 3789.0,2409.0 3827.0,2434.0 C 3861.0,2457.0 3871.0,2459.0 3894.0,2450.0 C 3933.0,2435.0 4052.0,2438.0 4091.0,2454.0 C 4119.0,2465.0 4149.0,2466.0 4253.0,2459.0 C 4374.0,2450.0 4382.0,2450.0 4409.0,2470.0 C 4425.0,2481.0 4447.0,2490.0 4458.0,2490.0 C 4478.0,2490.0 4594.0,2539.0 4805.0,2637.0 C 4877.0,2670.0 4958.0,2704.0 4985.0,2712.0 C 5033.0,2725.0 5038.0,2730.0 5110.0,2836.0 C 5211.0,2984.0 5257.0,3039.0 5289.0,3047.0 C 5303.0,3050.0 5348.0,3085.0 5388.0,3124.0 L 5462.0,3195.0 L 5564.0,3198.0 C 5667.0,3202.0 5667.0,3202.0 5702.0,3171.0 C 5751.0,3129.0 5793.0,3129.0 5838.0,3173.0 C 5869.0,3203.0 5876.0,3205.0 5950.0,3207.0 C 5999.0,3208.0 6038.0,3214.0 6052.0,3224.0 C 6065.0,3232.0 6109.0,3241.0 6150.0,3245.0 C 6212.0,3251.0 6230.0,3257.0 6253.0,3279.0 C 6288.0,3311.0 6365.0,3416.0 6410.0,3492.0 C 6429.0,3524.0 6452.0,3552.0 6461.0,3555.0 C 6473.0,3559.0 6479.0,3578.0 6484.0,3626.0 C 6489.0,3680.0 6497.0,3700.0 6523.0,3732.0 C 6553.0,3770.0 6557.0,3771.0 6597.0,3765.0 C 6636.0,3759.0 6640.0,3761.0 6654.0,3788.0 C 6682.0,3842.0 6791.0,3918.0 6884.0,3950.0 C 6932.0,3966.0 6990.0,3994.0 7016.0,4014.0 C 7048.0,4038.0 7097.0,4061.0 7164.0,4082.0 C 7247.0,4107.0 7270.0,4119.0 7293.0,4146.0 C 7326.0,4184.0 7373.0,4192.0 7414.0,4165.0 C 7435.0,4151.0 7438.0,4152.0 7460.0,4175.0 C 7476.0,4192.0 7494.0,4200.0 7517.0,4200.0 C 7544.0,4200.0 7554.0,4206.0 7568.0,4230.0 C 7581.0,4253.0 7595.0,4262.0 7624.0,4267.0 C 7645.0,4270.0 7670.0,4282.0 7679.0,4293.0 C 7728.0,4356.0 7746.0,4367.0 7815.0,4380.0 C 7854.0,4387.0 7906.0,4404.0 7932.0,4419.0 C 7972.0,4441.0 7983.0,4443.0 7999.0,4433.0 C 8016.0,4422.0 8022.0,4425.0 8044.0,4450.0 C 8063.0,4473.0 8077.0,4480.0 8104.0,4480.0 C 8131.0,4480.0 8144.0,4486.0 8156.0,4504.0 C 8168.0,4524.0 8183.0,4530.0 8228.0,4535.0 C 8309.0,4544.0 8320.0,4549.0 8330.0,4575.0 C 8342.0,4608.0 8422.0,4634.0 8464.0,4619.0 C 8492.0,4609.0 8502.0,4612.0 8565.0,4645.0 C 8604.0,4666.0 8644.0,4691.0 8655.0,4700.0 C 8688.0,4728.0 8892.0,4818.0 8938.0,4825.0 C 8975.0,4831.0 8982.0,4836.0 8987.0,4861.0 C 8995.0,4900.0 9111.0,4972.0 9161.0,4968.0 C 9190.0,4965.0 9195.0,4968.0 9198.0,4988.0 C 9202.0,5015.0 9257.0,5044.0 9327.0,5055.0 C 9360.0,5060.0 9376.0,5070.0 9404.0,5104.0 C 9428.0,5134.0 9457.0,5155.0 9495.0,5170.0 L 9550.0,5192.0 L 9550.0,5265.0 C 9550.0,5324.0 9547.0,5340.0 9530.0,5355.0 C 9515.0,5369.0 9511.0,5381.0 9516.0,5404.0 C 9520.0,5429.0 9516.0,5440.0 9497.0,5458.0 C 9480.0,5474.0 9474.0,5488.0 9478.0,5506.0 C 9481.0,5521.0 9476.0,5538.0 9464.0,5551.0 C 9447.0,5570.0 9447.0,5572.0 9468.0,5623.0 C 9483.0,5658.0 9490.0,5696.0 9490.0,5738.0 C 9490.0,5796.0 9494.0,5807.0 9545.0,5892.0 C 9575.0,5942.0 9600.0,5986.0 9600.0,5991.0 C 9600.0,6005.0 9728.0,6079.0 9826.0,6120.0 C 10005.0,6196.0 10241.0,6313.0 10237.0,6324.0 C 10234.0,6330.0 9922.0,6884.0 9543.0,7555.0 C 9023.0,8475.0 8849.0,8775.0 8834.0,8777.0 C 8824.0,8778.0 8050.0,8492.0 7115.0,8141.0" fill="pink"/>
	<path d="M 53.0,4388.0 C -7.0,4326.0 -17.0,4255.0 27.0,4214.0 L 55.0,4188.0 L 77.0,4217.0 C 103.0,4249.0 110.0,4335.0 88.0,4343.0 C 78.0,4347.0 78.0,4350.0 88.0,4361.0 C 101.0,4375.0 105.0,4420.0 92.0,4420.0 C 88.0,4420.0 70.0,4405.0 53.0,4388.0" fill="pink"/>
	<path d="M 280.0,2905.0 C 280.0,2881.0 286.0,2868.0 300.0,2860.0 C 312.0,2854.0 320.0,2839.0 320.0,2825.0 C 320.0,2805.0 325.0,2800.0 345.0,2800.0 C 369.0,2800.0 370.0,2802.0 370.0,2864.0 C 370.0,2927.0 370.0,2928.0 339.0,2934.0 C 285.0,2945.0 280.0,2942.0 280.0,2905.0" fill="pink"/>
	<path d="M 333.0,2623.0 C 320.0,2620.0 307.0,2607.0 301.0,2588.0 C 285.0,2544.0 287.0,2540.0 319.0,2540.0 C 341.0,2540.0 356.0,2551.0 384.0,2585.0 L 421.0,2630.0 L 388.0,2629.0 C 370.0,2628.0 345.0,2625.0 333.0,2623.0" fill="pink"/>
</svg>
