<?xml version="1.0" ?>
<svg xmlns="http://www.w3.org/2000/svg" xmlns:ev="http://www.w3.org/2001/xml-events" xmlns:xlink="http://www.w3.org/1999/xlink" baseProfile="full" height="600px" version="1.1" viewBox="525.0370859561974 -1025.3987603417531 9188.378413284747 12292.608568860152" width="449px">
	<defs/>
	<path d="M 1501.0,10227.0 C 1487.0,10221.0 1473.0,10203.0 1469.0,10188.0 C 1456.0,10140.0 1399.0,10050.0 1382.0,10050.0 C 1373.0,10050.0 1349.0,10046.0 1330.0,10040.0 L 1295.0,10030.0 L 1295.0,9965.0 L 1295.0,9900.0 L 1345.0,9899.0 C 1373.0,9898.0 1400.0,9899.0 1405.0,9901.0 C 1411.0,9903.0 1431.0,9904.0 1452.0,9904.0 C 1495.0,9904.0 1595.0,9843.0 1605.0,9809.0 C 1616.0,9776.0 1582.0,9710.0 1554.0,9710.0 C 1525.0,9710.0 1490.0,9662.0 1490.0,9621.0 C 1490.0,9598.0 1494.0,9590.0 1508.0,9590.0 C 1530.0,9590.0 1556.0,9617.0 1562.0,9645.0 C 1566.0,9669.0 1610.0,9677.0 1650.0,9660.0 C 1688.0,9644.0 1715.0,9660.0 1730.0,9707.0 C 1758.0,9794.0 1805.0,9841.0 1880.0,9855.0 C 1919.0,9862.0 1951.0,9885.0 1968.0,9917.0 C 1983.0,9944.0 1975.0,9950.0 1923.0,9950.0 C 1866.0,9950.0 1824.0,9972.0 1815.0,10007.0 C 1804.0,10053.0 1782.0,10080.0 1755.0,10080.0 C 1737.0,10080.0 1727.0,10088.0 1719.0,10108.0 C 1699.0,10158.0 1695.0,10162.0 1648.0,10180.0 C 1623.0,10189.0 1588.0,10207.0 1572.0,10219.0 C 1537.0,10243.0 1533.0,10244.0 1501.0,10227.0" fill="pink"/>
	<path d="M 3604.0,9793.0 C 3581.0,9761.0 3555.0,9720.0 3546.0,9703.0 C 3534.0,9680.0 3522.0,9670.0 3505.0,9670.0 C 3492.0,9670.0 3473.0,9659.0 3462.0,9645.0 C 3439.0,9616.0 3399.0,9613.0 3360.0,9635.0 C 3319.0,9659.0 3300.0,9654.0 3300.0,9620.0 C 3300.0,9604.0 3307.0,9587.0 3315.0,9583.0 C 3328.0,9575.0 3328.0,9569.0 3318.0,9540.0 C 3311.0,9521.0 3294.0,9489.0 3280.0,9469.0 C 3259.0,9437.0 3249.0,9431.0 3207.0,9426.0 C 3139.0,9418.0 3112.0,9399.0 3099.0,9345.0 C 3091.0,9314.0 3081.0,9299.0 3066.0,9294.0 C 3015.0,9279.0 3010.0,9265.0 3010.0,9139.0 C 3010.0,9029.0 3008.0,9019.0 2986.0,8993.0 C 2963.0,8966.0 2958.0,8965.0 2851.0,8962.0 C 2753.0,8958.0 2737.0,8960.0 2718.0,8976.0 C 2690.0,9002.0 2619.0,9001.0 2591.0,8976.0 C 2579.0,8965.0 2570.0,8954.0 2570.0,8951.0 C 2570.0,8939.0 2637.0,8900.0 2659.0,8900.0 C 2699.0,8900.0 2737.0,8872.0 2754.0,8830.0 C 2776.0,8774.0 2775.0,8770.0 2728.0,8696.0 C 2695.0,8643.0 2684.0,8633.0 2673.0,8642.0 C 2649.0,8661.0 2636.0,8635.0 2639.0,8576.0 C 2642.0,8506.0 2627.0,8476.0 2594.0,8484.0 C 2578.0,8488.0 2552.0,8481.0 2518.0,8463.0 C 2472.0,8440.0 2455.0,8437.0 2391.0,8439.0 C 2326.0,8442.0 2312.0,8446.0 2280.0,8471.0 C 2247.0,8498.0 2241.0,8499.0 2211.0,8489.0 C 2182.0,8479.0 2179.0,8474.0 2182.0,8448.0 C 2186.0,8424.0 2181.0,8416.0 2153.0,8399.0 C 2135.0,8388.0 2120.0,8377.0 2120.0,8376.0 C 2120.0,8374.0 2129.0,8347.0 2140.0,8315.0 C 2164.0,8246.0 2165.0,8207.0 2145.0,8190.0 C 2137.0,8183.0 2130.0,8162.0 2130.0,8144.0 C 2130.0,8117.0 2125.0,8107.0 2105.0,8098.0 C 2085.0,8089.0 2080.0,8080.0 2080.0,8050.0 C 2080.0,8021.0 2075.0,8011.0 2055.0,8002.0 C 2042.0,7996.0 2017.0,7972.0 2000.0,7949.0 C 1964.0,7899.0 1945.0,7885.0 1899.0,7872.0 C 1870.0,7864.0 1865.0,7859.0 1867.0,7835.0 C 1868.0,7819.0 1875.0,7803.0 1882.0,7798.0 C 1902.0,7786.0 1953.0,7789.0 1975.0,7804.0 C 2007.0,7825.0 2115.0,7832.0 2156.0,7815.0 C 2179.0,7806.0 2207.0,7803.0 2236.0,7807.0 C 2274.0,7812.0 2284.0,7809.0 2305.0,7790.0 C 2328.0,7769.0 2330.0,7759.0 2330.0,7688.0 C 2330.0,7604.0 2322.0,7579.0 2267.0,7502.0 C 2231.0,7452.0 2148.0,7402.0 2085.0,7393.0 C 2044.0,7388.0 2040.0,7385.0 2040.0,7360.0 C 2040.0,7339.0 2033.0,7330.0 2009.0,7320.0 C 1969.0,7303.0 1940.0,7245.0 1940.0,7182.0 C 1940.0,7141.0 1944.0,7130.0 1972.0,7104.0 C 2015.0,7064.0 2072.0,7030.0 2098.0,7030.0 C 2110.0,7030.0 2126.0,7017.0 2139.0,6995.0 C 2150.0,6975.0 2166.0,6957.0 2175.0,6954.0 C 2183.0,6950.0 2190.0,6940.0 2190.0,6931.0 C 2191.0,6894.0 2205.0,6890.0 2243.0,6917.0 C 2263.0,6931.0 2280.0,6950.0 2280.0,6959.0 C 2280.0,6990.0 2310.0,7020.0 2341.0,7020.0 C 2360.0,7020.0 2370.0,7015.0 2370.0,7005.0 C 2370.0,6997.0 2374.0,6990.0 2379.0,6990.0 C 2384.0,6990.0 2393.0,6997.0 2400.0,7005.0 C 2430.0,7041.0 2480.0,7010.0 2536.0,6920.0 C 2567.0,6869.0 2577.0,6860.0 2602.0,6860.0 C 2639.0,6860.0 2696.0,6817.0 2704.0,6784.0 C 2708.0,6770.0 2726.0,6745.0 2745.0,6728.0 C 2770.0,6707.0 2780.0,6690.0 2780.0,6669.0 C 2780.0,6636.0 2805.0,6621.0 2876.0,6613.0 C 2912.0,6608.0 2925.0,6613.0 2965.0,6640.0 L 3013.0,6673.0 L 3067.0,6656.0 C 3137.0,6634.0 3249.0,6561.0 3275.0,6521.0 C 3286.0,6504.0 3298.0,6490.0 3302.0,6490.0 C 3305.0,6490.0 3329.0,6499.0 3354.0,6510.0 C 3390.0,6525.0 3405.0,6540.0 3427.0,6579.0 C 3452.0,6624.0 3459.0,6630.0 3487.0,6630.0 C 3518.0,6630.0 3519.0,6628.0 3513.0,6600.0 C 3509.0,6580.0 3512.0,6564.0 3522.0,6552.0 C 3531.0,6543.0 3545.0,6520.0 3554.0,6502.0 C 3570.0,6470.0 3570.0,6470.0 3545.0,6458.0 C 3522.0,6448.0 3520.0,6441.0 3518.0,6381.0 C 3517.0,6345.0 3516.0,6302.0 3515.0,6287.0 C 3514.0,6250.0 3404.0,6163.0 3348.0,6154.0 C 3298.0,6146.0 3299.0,6131.0 3354.0,6067.0 C 3387.0,6028.0 3399.0,6003.0 3404.0,5968.0 C 3408.0,5942.0 3417.0,5917.0 3423.0,5913.0 C 3430.0,5908.0 3467.0,5905.0 3505.0,5904.0 C 3544.0,5904.0 3605.0,5900.0 3643.0,5895.0 C 3720.0,5886.0 3729.0,5872.0 3682.0,5827.0 C 3658.0,5804.0 3645.0,5800.0 3599.0,5800.0 C 3552.0,5800.0 3540.0,5796.0 3519.0,5774.0 C 3497.0,5750.0 3495.0,5740.0 3492.0,5616.0 C 3489.0,5493.0 3490.0,5483.0 3509.0,5466.0 C 3521.0,5455.0 3530.0,5435.0 3530.0,5419.0 C 3530.0,5396.0 3537.0,5388.0 3573.0,5372.0 C 3624.0,5349.0 3660.0,5298.0 3660.0,5249.0 C 3660.0,5207.0 3652.0,5194.0 3609.0,5167.0 C 3572.0,5143.0 3575.0,5158.0 3571.0,4961.0 C 3571.0,4931.0 3561.0,4902.0 3540.0,4869.0 C 3519.0,4834.0 3510.0,4807.0 3510.0,4776.0 L 3510.0,4733.0 L 3563.0,4722.0 C 3591.0,4716.0 3633.0,4708.0 3655.0,4704.0 C 3677.0,4701.0 3703.0,4691.0 3712.0,4683.0 C 3726.0,4671.0 3742.0,4669.0 3784.0,4674.0 C 3833.0,4679.0 3842.0,4677.0 3889.0,4647.0 C 3935.0,4618.0 3939.0,4612.0 3935.0,4585.0 C 3926.0,4532.0 3900.0,4517.0 3808.0,4509.0 C 3762.0,4505.0 3705.0,4497.0 3681.0,4491.0 C 3643.0,4481.0 3631.0,4482.0 3604.0,4496.0 C 3567.0,4516.0 3540.0,4509.0 3540.0,4480.0 C 3540.0,4469.0 3527.0,4433.0 3511.0,4402.0 C 3487.0,4355.0 3473.0,4340.0 3440.0,4325.0 C 3406.0,4310.0 3393.0,4308.0 3369.0,4317.0 C 3343.0,4327.0 3338.0,4325.0 3315.0,4298.0 C 3273.0,4249.0 3283.0,4222.0 3360.0,4178.0 C 3412.0,4147.0 3429.0,4131.0 3447.0,4093.0 C 3476.0,4033.0 3508.0,4000.0 3536.0,4000.0 C 3549.0,4000.0 3569.0,3987.0 3584.0,3969.0 C 3609.0,3940.0 3614.0,3938.0 3673.0,3941.0 C 3708.0,3943.0 3744.0,3939.0 3757.0,3932.0 C 3769.0,3925.0 3784.0,3920.0 3790.0,3920.0 C 3796.0,3920.0 3819.0,3906.0 3841.0,3888.0 C 3874.0,3861.0 3880.0,3851.0 3880.0,3818.0 C 3880.0,3790.0 3891.0,3760.0 3919.0,3714.0 C 3941.0,3678.0 3966.0,3627.0 3976.0,3600.0 C 3987.0,3570.0 4002.0,3548.0 4016.0,3541.0 C 4029.0,3536.0 4046.0,3519.0 4056.0,3505.0 C 4065.0,3491.0 4081.0,3480.0 4091.0,3480.0 C 4104.0,3480.0 4115.0,3467.0 4125.0,3442.0 C 4140.0,3406.0 4141.0,3405.0 4185.0,3408.0 C 4227.0,3412.0 4233.0,3409.0 4275.0,3366.0 C 4299.0,3341.0 4324.0,3311.0 4330.0,3300.0 C 4345.0,3272.0 4382.0,3250.0 4437.0,3236.0 L 4484.0,3224.0 L 4512.0,3134.0 C 4536.0,3060.0 4540.0,3034.0 4534.0,2982.0 C 4529.0,2925.0 4530.0,2918.0 4552.0,2900.0 C 4565.0,2889.0 4585.0,2881.0 4598.0,2880.0 C 4617.0,2880.0 4620.0,2875.0 4620.0,2836.0 C 4620.0,2797.0 4627.0,2783.0 4685.0,2712.0 C 4742.0,2640.0 4750.0,2625.0 4756.0,2575.0 C 4761.0,2533.0 4769.0,2515.0 4786.0,2501.0 C 4808.0,2484.0 4810.0,2474.0 4810.0,2406.0 C 4810.0,2343.0 4806.0,2324.0 4788.0,2300.0 C 4768.0,2272.0 4767.0,2269.0 4783.0,2257.0 C 4796.0,2248.0 4802.0,2225.0 4806.0,2175.0 C 4812.0,2105.0 4812.0,2105.0 4777.0,2072.0 C 4730.0,2027.0 4607.0,1990.0 4480.0,1983.0 C 4391.0,1978.0 4380.0,1980.0 4303.0,2009.0 C 4215.0,2043.0 4190.0,2068.0 4190.0,2120.0 C 4190.0,2146.0 4184.0,2153.0 4155.0,2166.0 C 4136.0,2173.0 4103.0,2180.0 4082.0,2180.0 C 4059.0,2180.0 4037.0,2186.0 4030.0,2195.0 C 4023.0,2203.0 4003.0,2210.0 3985.0,2210.0 C 3967.0,2210.0 3947.0,2217.0 3939.0,2226.0 C 3932.0,2235.0 3917.0,2240.0 3903.0,2237.0 C 3889.0,2235.0 3880.0,2238.0 3880.0,2245.0 C 3880.0,2271.0 3845.0,2290.0 3808.0,2283.0 C 3750.0,2274.0 3719.0,2288.0 3663.0,2348.0 C 3603.0,2412.0 3584.0,2459.0 3574.0,2572.0 C 3568.0,2641.0 3570.0,2652.0 3590.0,2685.0 C 3609.0,2716.0 3612.0,2731.0 3607.0,2777.0 C 3602.0,2822.0 3594.0,2841.0 3561.0,2880.0 C 3533.0,2913.0 3520.0,2938.0 3518.0,2965.0 C 3515.0,3000.0 3511.0,3005.0 3482.0,3012.0 C 3464.0,3017.0 3367.0,3018.0 3267.0,3015.0 C 3167.0,3012.0 3020.0,3008.0 2940.0,3007.0 C 2819.0,3005.0 2789.0,3002.0 2760.0,2986.0 C 2716.0,2962.0 2710.0,2954.0 2710.0,2908.0 C 2710.0,2869.0 2711.0,2868.0 2779.0,2855.0 C 2798.0,2851.0 2830.0,2836.0 2850.0,2821.0 C 2884.0,2797.0 2888.0,2788.0 2903.0,2715.0 C 2912.0,2671.0 2927.0,2610.0 2935.0,2580.0 C 2943.0,2550.0 2950.0,2513.0 2950.0,2497.0 C 2950.0,2458.0 2967.0,2430.0 2990.0,2430.0 C 3006.0,2430.0 3010.0,2423.0 3010.0,2396.0 C 3010.0,2370.0 3017.0,2355.0 3041.0,2336.0 C 3058.0,2322.0 3078.0,2310.0 3085.0,2310.0 C 3093.0,2310.0 3113.0,2296.0 3130.0,2280.0 C 3147.0,2263.0 3165.0,2250.0 3170.0,2250.0 C 3188.0,2250.0 3180.0,2201.0 3160.0,2187.0 C 3139.0,2173.0 3118.0,2126.0 3127.0,2116.0 C 3150.0,2094.0 3256.0,2122.0 3326.0,2170.0 C 3378.0,2204.0 3409.0,2207.0 3491.0,2184.0 C 3549.0,2168.0 3549.0,2167.0 3565.0,2115.0 C 3588.0,2035.0 3585.0,1980.0 3555.0,1940.0 C 3534.0,1911.0 3530.0,1895.0 3530.0,1834.0 C 3530.0,1710.0 3516.0,1669.0 3462.0,1627.0 C 3426.0,1600.0 3410.0,1579.0 3396.0,1540.0 C 3376.0,1485.0 3325.0,1440.0 3282.0,1440.0 C 3269.0,1440.0 3232.0,1427.0 3201.0,1411.0 C 3170.0,1395.0 3132.0,1379.0 3117.0,1376.0 C 3102.0,1372.0 3085.0,1359.0 3079.0,1346.0 C 3067.0,1320.0 3040.0,1305.0 2987.0,1295.0 C 2928.0,1284.0 2884.0,1200.0 2929.0,1185.0 C 2941.0,1182.0 2966.0,1188.0 2989.0,1200.0 C 3011.0,1211.0 3040.0,1220.0 3053.0,1220.0 C 3084.0,1220.0 3159.0,1171.0 3216.0,1114.0 C 3257.0,1074.0 3266.0,1069.0 3294.0,1074.0 C 3311.0,1078.0 3345.0,1094.0 3369.0,1110.0 C 3404.0,1134.0 3424.0,1140.0 3466.0,1140.0 C 3525.0,1140.0 3537.0,1150.0 3559.0,1221.0 C 3567.0,1245.0 3582.0,1263.0 3603.0,1275.0 C 3635.0,1292.0 3637.0,1292.0 3676.0,1272.0 C 3736.0,1241.0 3744.0,1228.0 3736.0,1169.0 C 3732.0,1139.0 3734.0,1104.0 3740.0,1084.0 C 3748.0,1061.0 3748.0,1045.0 3742.0,1037.0 C 3737.0,1030.0 3727.0,1009.0 3721.0,989.0 C 3715.0,969.0 3697.0,936.0 3682.0,915.0 C 3654.0,879.0 3654.0,877.0 3666.0,818.0 C 3673.0,785.0 3686.0,740.0 3695.0,717.0 L 3711.0,676.0 L 3677.0,610.0 C 3627.0,514.0 3623.0,490.0 3655.0,460.0 C 3669.0,447.0 3694.0,415.0 3711.0,388.0 C 3745.0,335.0 3776.0,324.0 3784.0,363.0 C 3787.0,375.0 3791.0,410.0 3793.0,440.0 C 3796.0,480.0 3806.0,510.0 3830.0,550.0 C 3849.0,580.0 3869.0,608.0 3876.0,612.0 C 3882.0,616.0 3891.0,632.0 3894.0,646.0 C 3901.0,671.0 3904.0,672.0 3946.0,667.0 C 3971.0,665.0 4014.0,651.0 4041.0,636.0 C 4070.0,621.0 4108.0,610.0 4130.0,610.0 L 4168.0,610.0 L 4175.0,546.0 C 4179.0,509.0 4178.0,475.0 4172.0,464.0 C 4164.0,450.0 4168.0,430.0 4186.0,386.0 C 4199.0,353.0 4210.0,316.0 4210.0,303.0 C 4210.0,277.0 4237.0,271.0 4246.0,295.0 C 4250.0,303.0 4263.0,310.0 4276.0,310.0 C 4312.0,310.0 4370.0,341.0 4370.0,361.0 C 4370.0,371.0 4382.0,388.0 4397.0,399.0 C 4450.0,441.0 4545.0,399.0 4556.0,328.0 C 4560.0,306.0 4573.0,276.0 4586.0,260.0 C 4599.0,245.0 4610.0,225.0 4610.0,216.0 C 4610.0,206.0 4617.0,186.0 4625.0,170.0 C 4643.0,136.0 4680.0,128.0 4680.0,159.0 C 4680.0,186.0 4705.0,192.0 4726.0,169.0 C 4736.0,158.0 4756.0,150.0 4774.0,150.0 C 4841.0,151.0 4875.0,166.0 4928.0,221.0 C 4971.0,266.0 4980.0,281.0 4980.0,311.0 C 4980.0,332.0 4987.0,353.0 4996.0,361.0 C 5004.0,368.0 5020.0,391.0 5031.0,411.0 C 5041.0,432.0 5059.0,452.0 5071.0,455.0 C 5086.0,460.0 5089.0,466.0 5084.0,478.0 C 5080.0,488.0 5074.0,543.0 5072.0,602.0 L 5068.0,708.0 L 5147.0,753.0 C 5190.0,778.0 5237.0,808.0 5252.0,819.0 L 5279.0,840.0 L 5330.0,820.0 C 5391.0,796.0 5424.0,761.0 5445.0,698.0 C 5454.0,673.0 5468.0,646.0 5476.0,640.0 C 5483.0,633.0 5490.0,615.0 5490.0,600.0 C 5490.0,585.0 5501.0,530.0 5514.0,479.0 C 5527.0,427.0 5541.0,366.0 5545.0,343.0 C 5552.0,301.0 5553.0,300.0 5588.0,300.0 C 5652.0,300.0 5670.0,309.0 5670.0,341.0 C 5670.0,356.0 5665.0,372.0 5659.0,375.0 C 5635.0,391.0 5631.0,428.0 5651.0,466.0 C 5661.0,487.0 5670.0,512.0 5670.0,521.0 C 5670.0,531.0 5681.0,552.0 5695.0,568.0 C 5730.0,610.0 5784.0,616.0 5829.0,582.0 C 5851.0,566.0 5881.0,555.0 5914.0,552.0 C 5942.0,549.0 5970.0,541.0 5975.0,533.0 C 5981.0,526.0 6001.0,517.0 6020.0,514.0 C 6053.0,509.0 6056.0,511.0 6075.0,552.0 C 6090.0,584.0 6102.0,596.0 6120.0,598.0 C 6137.0,600.0 6150.0,612.0 6160.0,633.0 C 6172.0,658.0 6182.0,666.0 6208.0,668.0 C 6234.0,671.0 6240.0,675.0 6240.0,695.0 C 6240.0,738.0 6280.0,806.0 6316.0,823.0 C 6352.0,841.0 6370.0,877.0 6349.0,891.0 C 6325.0,906.0 6157.0,901.0 6136.0,885.0 C 6108.0,864.0 6054.0,866.0 6031.0,889.0 C 6021.0,899.0 6005.0,928.0 5995.0,954.0 L 5977.0,1000.0 L 5926.0,1000.0 C 5856.0,1000.0 5736.0,1055.0 5709.0,1099.0 C 5699.0,1116.0 5675.0,1138.0 5656.0,1147.0 C 5611.0,1168.0 5585.0,1224.0 5593.0,1282.0 C 5603.0,1352.0 5576.0,1398.0 5491.0,1454.0 C 5421.0,1501.0 5420.0,1502.0 5420.0,1545.0 C 5420.0,1569.0 5415.0,1592.0 5409.0,1596.0 C 5397.0,1603.0 5404.0,1656.0 5422.0,1695.0 C 5430.0,1713.0 5446.0,1722.0 5486.0,1730.0 C 5539.0,1741.0 5556.0,1739.0 5679.0,1704.0 C 5699.0,1698.0 5701.0,1699.0 5693.0,1716.0 C 5687.0,1726.0 5680.0,1758.0 5676.0,1785.0 C 5666.0,1863.0 5642.0,1924.0 5610.0,1955.0 C 5570.0,1994.0 5570.0,2041.0 5610.0,2100.0 C 5695.0,2227.0 5684.0,2218.0 5747.0,2225.0 C 5830.0,2234.0 5833.0,2236.0 5826.0,2268.0 C 5810.0,2338.0 5808.0,2372.0 5820.0,2400.0 C 5840.0,2449.0 5872.0,2459.0 5965.0,2450.0 C 6057.0,2440.0 6061.0,2439.0 6155.0,2395.0 C 6227.0,2361.0 6353.0,2330.0 6421.0,2330.0 C 6499.0,2330.0 6455.0,2383.0 6360.0,2404.0 C 6346.0,2407.0 6314.0,2435.0 6285.0,2469.0 C 6252.0,2509.0 6227.0,2529.0 6212.0,2529.0 C 6180.0,2530.0 6175.0,2554.0 6194.0,2615.0 C 6212.0,2672.0 6207.0,2698.0 6170.0,2750.0 C 6146.0,2783.0 6142.0,2898.0 6163.0,2918.0 C 6169.0,2925.0 6180.0,2957.0 6185.0,2988.0 L 6195.0,3045.0 L 6247.0,3048.0 C 6287.0,3050.0 6302.0,3056.0 6313.0,3074.0 C 6321.0,3086.0 6348.0,3102.0 6371.0,3109.0 C 6466.0,3137.0 6530.0,3172.0 6538.0,3200.0 C 6542.0,3215.0 6557.0,3241.0 6572.0,3258.0 C 6595.0,3286.0 6605.0,3290.0 6648.0,3290.0 L 6698.0,3290.0 L 6709.0,3336.0 C 6716.0,3362.0 6720.0,3384.0 6718.0,3385.0 C 6716.0,3386.0 6705.0,3393.0 6693.0,3399.0 C 6679.0,3406.0 6670.0,3420.0 6670.0,3435.0 C 6670.0,3457.0 6678.0,3477.0 6723.0,3570.0 C 6733.0,3590.0 6744.0,3596.0 6778.0,3598.0 L 6820.0,3601.0 L 6820.0,3648.0 C 6820.0,3735.0 6816.0,3740.0 6747.0,3740.0 C 6713.0,3740.0 6667.0,3733.0 6645.0,3725.0 C 6609.0,3711.0 6601.0,3711.0 6567.0,3725.0 L 6530.0,3740.0 L 6530.0,3806.0 C 6530.0,3857.0 6535.0,3878.0 6550.0,3897.0 C 6595.0,3955.0 6565.0,3987.0 6462.0,3993.0 C 6393.0,3998.0 6386.0,4000.0 6348.0,4036.0 C 6326.0,4058.0 6296.0,4102.0 6280.0,4136.0 C 6265.0,4170.0 6242.0,4204.0 6230.0,4213.0 C 6209.0,4228.0 6205.0,4228.0 6181.0,4209.0 L 6155.0,4188.0 L 6148.0,4235.0 C 6144.0,4261.0 6133.0,4292.0 6122.0,4304.0 C 6080.0,4350.0 6077.0,4367.0 6105.0,4407.0 C 6137.0,4455.0 6137.0,4465.0 6099.0,4480.0 C 6059.0,4497.0 6043.0,4523.0 6035.0,4586.0 C 6027.0,4647.0 6041.0,4682.0 6094.0,4728.0 C 6113.0,4744.0 6135.0,4771.0 6143.0,4787.0 C 6152.0,4802.0 6168.0,4823.0 6181.0,4834.0 C 6208.0,4856.0 6193.0,4870.0 6139.0,4870.0 C 6098.0,4870.0 6080.0,4885.0 6080.0,4917.0 C 6080.0,4982.0 6179.0,5081.0 6269.0,5106.0 C 6345.0,5128.0 6353.0,5136.0 6346.0,5182.0 C 6341.0,5210.0 6345.0,5228.0 6360.0,5252.0 C 6371.0,5270.0 6380.0,5294.0 6380.0,5306.0 C 6380.0,5317.0 6399.0,5356.0 6422.0,5393.0 C 6453.0,5442.0 6471.0,5460.0 6489.0,5462.0 C 6509.0,5464.0 6518.0,5475.0 6534.0,5515.0 C 6550.0,5557.0 6564.0,5573.0 6620.0,5612.0 L 6687.0,5658.0 L 6694.0,5755.0 C 6702.0,5875.0 6717.0,5907.0 6768.0,5916.0 C 6808.0,5923.0 6880.0,5964.0 6880.0,5980.0 C 6880.0,6005.0 6946.0,6049.0 6994.0,6055.0 C 7025.0,6060.0 7051.0,6070.0 7064.0,6085.0 C 7076.0,6097.0 7095.0,6112.0 7106.0,6118.0 C 7125.0,6128.0 7131.0,6125.0 7154.0,6095.0 C 7173.0,6070.0 7189.0,6060.0 7209.0,6060.0 C 7251.0,6060.0 7268.0,6080.0 7276.0,6135.0 C 7282.0,6183.0 7280.0,6187.0 7240.0,6233.0 C 7217.0,6259.0 7182.0,6287.0 7164.0,6295.0 C 7144.0,6303.0 7125.0,6321.0 7118.0,6337.0 C 7112.0,6352.0 7100.0,6373.0 7092.0,6382.0 C 7073.0,6404.0 7085.0,6420.0 7120.0,6420.0 C 7154.0,6420.0 7170.0,6443.0 7170.0,6489.0 C 7170.0,6506.0 7181.0,6536.0 7195.0,6556.0 C 7209.0,6576.0 7220.0,6603.0 7220.0,6616.0 C 7220.0,6659.0 7241.0,6690.0 7271.0,6690.0 C 7295.0,6690.0 7299.0,6695.0 7305.0,6729.0 C 7310.0,6761.0 7306.0,6777.0 7282.0,6821.0 C 7265.0,6851.0 7247.0,6900.0 7240.0,6930.0 C 7227.0,6994.0 7208.0,7020.0 7154.0,7048.0 C 7133.0,7059.0 7069.0,7112.0 7013.0,7164.0 L 6912.0,7260.0 L 6857.0,7260.0 C 6819.0,7260.0 6798.0,7265.0 6789.0,7276.0 C 6782.0,7285.0 6754.0,7304.0 6727.0,7320.0 C 6689.0,7342.0 6670.0,7347.0 6639.0,7343.0 C 6609.0,7339.0 6600.0,7341.0 6600.0,7352.0 C 6600.0,7361.0 6593.0,7373.0 6585.0,7380.0 C 6563.0,7398.0 6567.0,7419.0 6595.0,7446.0 C 6623.0,7471.0 6628.0,7512.0 6608.0,7555.0 C 6594.0,7585.0 6579.0,7587.0 6555.0,7560.0 C 6541.0,7544.0 6524.0,7540.0 6479.0,7540.0 C 6445.0,7540.0 6416.0,7545.0 6410.0,7553.0 C 6405.0,7559.0 6391.0,7577.0 6379.0,7592.0 C 6368.0,7607.0 6347.0,7628.0 6332.0,7639.0 C 6305.0,7658.0 6304.0,7658.0 6250.0,7639.0 C 6214.0,7626.0 6193.0,7623.0 6186.0,7630.0 C 6180.0,7636.0 6147.0,7640.0 6112.0,7640.0 C 6046.0,7640.0 6022.0,7648.0 5989.0,7681.0 C 5974.0,7696.0 5956.0,7700.0 5901.0,7700.0 C 5852.0,7700.0 5829.0,7704.0 5820.0,7715.0 C 5802.0,7736.0 5753.0,7734.0 5714.0,7709.0 C 5695.0,7698.0 5656.0,7686.0 5627.0,7683.0 C 5573.0,7678.0 5573.0,7678.0 5501.0,7736.0 C 5461.0,7769.0 5420.0,7811.0 5410.0,7831.0 C 5382.0,7884.0 5341.0,7930.0 5320.0,7930.0 C 5308.0,7930.0 5299.0,7940.0 5295.0,7960.0 L 5288.0,7990.0 L 5260.0,7960.0 C 5245.0,7944.0 5227.0,7930.0 5221.0,7930.0 C 5201.0,7930.0 5210.0,7894.0 5235.0,7870.0 C 5257.0,7850.0 5260.0,7838.0 5259.0,7793.0 C 5257.0,7744.0 5255.0,7740.0 5233.0,7740.0 C 5193.0,7740.0 5171.0,7722.0 5141.0,7662.0 C 5079.0,7541.0 4986.0,7489.0 4928.0,7544.0 C 4904.0,7567.0 4888.0,7605.0 4878.0,7665.0 C 4876.0,7679.0 4860.0,7690.0 4828.0,7701.0 C 4802.0,7709.0 4772.0,7724.0 4761.0,7734.0 C 4742.0,7751.0 4742.0,7751.0 4747.0,7731.0 C 4752.0,7711.0 4749.0,7710.0 4652.0,7710.0 C 4596.0,7710.0 4540.0,7715.0 4526.0,7721.0 C 4507.0,7730.0 4497.0,7730.0 4487.0,7721.0 C 4476.0,7712.0 4470.0,7713.0 4460.0,7725.0 C 4450.0,7738.0 4450.0,7744.0 4465.0,7760.0 C 4481.0,7778.0 4480.0,7780.0 4431.0,7804.0 C 4366.0,7837.0 4336.0,7890.0 4339.0,7968.0 L 4341.0,8022.0 L 4260.0,8104.0 L 4180.0,8186.0 L 4180.0,8246.0 C 4180.0,8296.0 4184.0,8310.0 4203.0,8328.0 C 4227.0,8351.0 4264.0,8357.0 4275.0,8340.0 C 4278.0,8335.0 4298.0,8330.0 4319.0,8330.0 L 4356.0,8330.0 L 4349.0,8391.0 C 4341.0,8463.0 4329.0,8480.0 4300.0,8462.0 C 4270.0,8443.0 4252.0,8447.0 4189.0,8486.0 C 4153.0,8507.0 4120.0,8520.0 4106.0,8518.0 C 4092.0,8516.0 4072.0,8524.0 4058.0,8536.0 C 4045.0,8548.0 4022.0,8560.0 4005.0,8563.0 C 3907.0,8582.0 3850.0,8641.0 3850.0,8724.0 C 3850.0,8760.0 3854.0,8770.0 3870.0,8775.0 C 3881.0,8778.0 3890.0,8785.0 3890.0,8790.0 C 3890.0,8811.0 3842.0,8852.0 3811.0,8858.0 C 3786.0,8864.0 3772.0,8875.0 3759.0,8900.0 C 3737.0,8940.0 3711.0,8952.0 3653.0,8949.0 C 3629.0,8947.0 3606.0,8950.0 3600.0,8956.0 C 3586.0,8970.0 3604.0,9024.0 3634.0,9061.0 C 3673.0,9107.0 3669.0,9123.0 3618.0,9118.0 C 3582.0,9115.0 3572.0,9118.0 3557.0,9137.0 C 3543.0,9154.0 3528.0,9160.0 3500.0,9160.0 C 3465.0,9160.0 3460.0,9163.0 3449.0,9194.0 C 3438.0,9224.0 3432.0,9228.0 3391.0,9233.0 C 3266.0,9249.0 3255.0,9252.0 3236.0,9277.0 C 3207.0,9317.0 3225.0,9338.0 3326.0,9382.0 C 3473.0,9448.0 3541.0,9470.0 3612.0,9477.0 C 3670.0,9482.0 3682.0,9487.0 3696.0,9508.0 C 3712.0,9532.0 3712.0,9533.0 3689.0,9527.0 C 3675.0,9523.0 3652.0,9529.0 3628.0,9543.0 L 3589.0,9564.0 L 3596.0,9620.0 C 3603.0,9679.0 3624.0,9720.0 3647.0,9720.0 C 3667.0,9720.0 3710.0,9750.0 3710.0,9764.0 C 3710.0,9771.0 3695.0,9794.0 3678.0,9814.0 L 3645.0,9852.0 L 3604.0,9793.0" fill="pink"/>
	<path d="M 8093.0,7118.0 C 8087.0,7111.0 8080.0,7095.0 8077.0,7083.0 C 8072.0,7059.0 8079.0,7056.0 8118.0,7066.0 C 8144.0,7073.0 8149.0,7114.0 8124.0,7124.0 C 8103.0,7132.0 8104.0,7132.0 8093.0,7118.0" fill="pink"/>
	<path d="M 7537.0,6874.0 C 7525.0,6861.0 7529.0,6854.0 7555.0,6842.0 C 7595.0,6824.0 7620.0,6827.0 7620.0,6850.0 C 7620.0,6864.0 7613.0,6870.0 7596.0,6870.0 C 7583.0,6870.0 7565.0,6872.0 7558.0,6875.0 C 7550.0,6878.0 7541.0,6877.0 7537.0,6874.0" fill="pink"/>
	<path d="M 8462.0,6820.0 C 8444.0,6799.0 8421.0,6760.0 8410.0,6735.0 C 8399.0,6710.0 8383.0,6687.0 8375.0,6683.0 C 8366.0,6680.0 8352.0,6661.0 8344.0,6641.0 C 8334.0,6615.0 8315.0,6596.0 8277.0,6575.0 C 8233.0,6549.0 8225.0,6539.0 8222.0,6511.0 C 8219.0,6485.0 8201.0,6460.0 8132.0,6392.0 C 8047.0,6307.0 8044.0,6305.0 8005.0,6310.0 C 7975.0,6314.0 7964.0,6320.0 7962.0,6335.0 C 7958.0,6357.0 7942.0,6380.0 7931.0,6380.0 C 7920.0,6380.0 7883.0,6308.0 7875.0,6272.0 C 7867.0,6232.0 7839.0,6223.0 7761.0,6237.0 C 7692.0,6250.0 7661.0,6233.0 7660.0,6184.0 C 7660.0,6158.0 7665.0,6151.0 7685.0,6146.0 C 7699.0,6142.0 7735.0,6130.0 7765.0,6119.0 C 7813.0,6101.0 7819.0,6095.0 7827.0,6062.0 C 7835.0,6026.0 7838.0,6025.0 7885.0,6020.0 C 7987.0,6009.0 8149.0,5866.0 8187.0,5752.0 C 8196.0,5726.0 8223.0,5683.0 8247.0,5656.0 C 8309.0,5586.0 8321.0,5559.0 8323.0,5476.0 C 8325.0,5393.0 8346.0,5350.0 8384.0,5350.0 C 8426.0,5350.0 8468.0,5318.0 8477.0,5280.0 C 8484.0,5253.0 8495.0,5240.0 8528.0,5222.0 C 8565.0,5201.0 8572.0,5200.0 8590.0,5213.0 C 8610.0,5227.0 8610.0,5227.0 8590.0,5245.0 C 8565.0,5268.0 8544.0,5335.0 8530.0,5441.0 C 8514.0,5558.0 8526.0,5605.0 8578.0,5628.0 C 8599.0,5637.0 8629.0,5655.0 8647.0,5668.0 C 8667.0,5682.0 8693.0,5690.0 8722.0,5690.0 C 8761.0,5691.0 8768.0,5695.0 8796.0,5733.0 C 8813.0,5756.0 8833.0,5792.0 8840.0,5814.0 C 8851.0,5848.0 8850.0,5857.0 8831.0,5895.0 C 8820.0,5918.0 8807.0,5957.0 8804.0,5982.0 C 8798.0,6022.0 8801.0,6033.0 8832.0,6077.0 C 8866.0,6126.0 8867.0,6127.0 8893.0,6114.0 C 8907.0,6106.0 8926.0,6103.0 8935.0,6106.0 C 8948.0,6112.0 8947.0,6118.0 8925.0,6155.0 C 8911.0,6180.0 8900.0,6214.0 8900.0,6235.0 C 8900.0,6287.0 8876.0,6326.0 8825.0,6356.0 L 8780.0,6382.0 L 8780.0,6446.0 C 8780.0,6527.0 8760.0,6568.0 8673.0,6670.0 C 8637.0,6711.0 8603.0,6759.0 8595.0,6775.0 C 8581.0,6810.0 8544.0,6845.0 8514.0,6854.0 C 8498.0,6859.0 8486.0,6851.0 8462.0,6820.0" fill="pink"/>
	<path d="M 7618.0,6553.0 C 7600.0,6548.0 7576.0,6506.0 7565.0,6456.0 C 7560.0,6432.0 7562.0,6429.0 7575.0,6434.0 C 7584.0,6437.0 7600.0,6440.0 7610.0,6440.0 C 7621.0,6440.0 7632.0,6452.0 7639.0,6471.0 C 7652.0,6507.0 7654.0,6561.0 7643.0,6559.0 C 7638.0,6558.0 7627.0,6556.0 7618.0,6553.0" fill="pink"/>
	<path d="M 7096.0,5550.0 C 7075.0,5534.0 7055.0,5519.0 7053.0,5516.0 C 7051.0,5514.0 7054.0,5484.0 7061.0,5450.0 C 7073.0,5389.0 7073.0,5389.0 7044.0,5359.0 L 7015.0,5329.0 L 7047.0,5302.0 C 7073.0,5280.0 7077.0,5272.0 7069.0,5258.0 C 7060.0,5242.0 7072.0,5200.0 7085.0,5200.0 C 7088.0,5200.0 7122.0,5216.0 7162.0,5235.0 C 7202.0,5254.0 7247.0,5271.0 7262.0,5275.0 C 7278.0,5278.0 7297.0,5294.0 7309.0,5314.0 C 7331.0,5349.0 7338.0,5410.0 7320.0,5410.0 C 7296.0,5410.0 7220.0,5493.0 7214.0,5525.0 C 7209.0,5551.0 7201.0,5561.0 7178.0,5569.0 C 7138.0,5583.0 7141.0,5584.0 7096.0,5550.0" fill="pink"/>
	<path d="M 7620.0,4953.0 C 7620.0,4949.0 7632.0,4934.0 7646.0,4918.0 C 7668.0,4896.0 7676.0,4893.0 7692.0,4901.0 C 7711.0,4911.0 7711.0,4912.0 7689.0,4936.0 C 7669.0,4958.0 7620.0,4970.0 7620.0,4953.0" fill="pink"/>
	<path d="M 7100.0,4691.0 C 7076.0,4672.0 7076.0,4672.0 7095.0,4650.0 C 7119.0,4623.0 7182.0,4590.0 7209.0,4590.0 C 7219.0,4590.0 7231.0,4597.0 7234.0,4606.0 C 7242.0,4628.0 7243.0,4626.0 7212.0,4639.0 C 7196.0,4646.0 7176.0,4664.0 7166.0,4680.0 C 7146.0,4715.0 7134.0,4717.0 7100.0,4691.0" fill="pink"/>
	<path d="M 7360.0,4632.0 C 7360.0,4621.0 7377.0,4607.0 7408.0,4593.0 C 7468.0,4566.0 7552.0,4572.0 7558.0,4604.0 C 7565.0,4637.0 7533.0,4650.0 7443.0,4650.0 C 7371.0,4650.0 7360.0,4648.0 7360.0,4632.0" fill="pink"/>
	<path d="M 7025.0,3092.0 C 7022.0,3089.0 7020.0,3067.0 7020.0,3043.0 C 7020.0,3019.0 7015.0,2991.0 7008.0,2981.0 C 6998.0,2965.0 7002.0,2955.0 7036.0,2916.0 C 7064.0,2883.0 7083.0,2871.0 7102.0,2870.0 C 7125.0,2870.0 7130.0,2875.0 7136.0,2905.0 C 7139.0,2925.0 7140.0,2968.0 7138.0,3001.0 C 7135.0,3048.0 7129.0,3065.0 7114.0,3074.0 C 7092.0,3087.0 7032.0,3099.0 7025.0,3092.0" fill="pink"/>
	<path d="M 4623.0,2463.0 C 4616.0,2461.0 4610.0,2448.0 4610.0,2435.0 C 4610.0,2419.0 4600.0,2405.0 4580.0,2394.0 C 4556.0,2379.0 4552.0,2371.0 4557.0,2351.0 C 4560.0,2336.0 4563.0,2324.0 4564.0,2323.0 C 4567.0,2318.0 4684.0,2361.0 4697.0,2372.0 C 4724.0,2394.0 4687.0,2471.0 4651.0,2469.0 C 4642.0,2469.0 4629.0,2466.0 4623.0,2463.0" fill="pink"/>
	<path d="M 6158.0,2052.0 C 6142.0,2043.0 6130.0,2033.0 6130.0,2030.0 C 6131.0,2021.0 6235.0,1963.0 6263.0,1956.0 C 6289.0,1950.0 6290.0,1951.0 6290.0,1990.0 C 6290.0,2026.0 6287.0,2031.0 6250.0,2050.0 C 6203.0,2074.0 6193.0,2074.0 6158.0,2052.0" fill="pink"/>
	<path d="M 4519.0,148.0 C 4513.0,135.0 4501.0,121.0 4494.0,117.0 C 4473.0,105.0 4477.0,36.0 4499.0,16.0 C 4517.0,-1.0 4520.0,-1.0 4545.0,16.0 C 4569.0,32.0 4571.0,37.0 4568.0,99.0 C 4566.0,151.0 4562.0,165.0 4548.0,168.0 C 4539.0,170.0 4526.0,161.0 4519.0,148.0" fill="pink"/>
</svg>
