<?xml version="1.0" ?>
<svg xmlns="http://www.w3.org/2000/svg" xmlns:ev="http://www.w3.org/2001/xml-events" xmlns:xlink="http://www.w3.org/1999/xlink" baseProfile="full" height="513px" version="1.1" viewBox="-1029.0195 -129.70552525837059 12297.039 10508.734095933518" width="600px">
	<defs/>
	<path d="M 6808.0,9401.0 C 6369.0,9347.0 6008.0,9301.0 6004.0,9298.0 C 6001.0,9294.0 6010.0,9272.0 6023.0,9248.0 C 6047.0,9208.0 6048.0,9200.0 6040.0,9133.0 L 6032.0,9061.0 L 5929.0,8931.0 C 5834.0,8812.0 5814.0,8793.0 5690.0,8704.0 C 5561.0,8611.0 5540.0,8594.0 5540.0,8578.0 C 5540.0,8574.0 5564.0,8553.0 5594.0,8531.0 L 5648.0,8491.0 L 5694.0,8352.0 C 5733.0,8236.0 5739.0,8208.0 5730.0,8186.0 C 5717.0,8150.0 5715.0,8153.0 5754.0,8140.0 L 5788.0,8129.0 L 5764.0,8058.0 C 5750.0,8017.0 5740.0,7963.0 5740.0,7932.0 C 5740.0,7902.0 5730.0,7840.0 5718.0,7794.0 C 5699.0,7723.0 5698.0,7705.0 5708.0,7677.0 C 5715.0,7659.0 5720.0,7635.0 5720.0,7624.0 C 5720.0,7614.0 5729.0,7592.0 5739.0,7577.0 C 5754.0,7554.0 5756.0,7541.0 5748.0,7508.0 C 5741.0,7477.0 5743.0,7462.0 5755.0,7444.0 C 5763.0,7431.0 5770.0,7407.0 5770.0,7391.0 C 5770.0,7374.0 5777.0,7357.0 5786.0,7352.0 C 5801.0,7344.0 5801.0,7340.0 5785.0,7310.0 C 5776.0,7292.0 5760.0,7276.0 5750.0,7273.0 C 5719.0,7265.0 5660.0,7166.0 5660.0,7122.0 C 5660.0,7096.0 5653.0,7077.0 5640.0,7065.0 C 5626.0,7052.0 5620.0,7034.0 5620.0,7001.0 C 5620.0,6935.0 5571.0,6723.0 5543.0,6667.0 C 5530.0,6640.0 5516.0,6597.0 5513.0,6571.0 C 5508.0,6528.0 5510.0,6521.0 5534.0,6503.0 C 5555.0,6486.0 5560.0,6474.0 5560.0,6437.0 C 5560.0,6408.0 5566.0,6388.0 5576.0,6379.0 C 5591.0,6367.0 5590.0,6364.0 5571.0,6349.0 C 5545.0,6328.0 5552.0,6305.0 5591.0,6285.0 C 5606.0,6277.0 5621.0,6261.0 5625.0,6250.0 C 5630.0,6234.0 5640.0,6230.0 5675.0,6230.0 C 5714.0,6230.0 5720.0,6226.0 5739.0,6195.0 C 5755.0,6168.0 5766.0,6160.0 5788.0,6160.0 C 5826.0,6160.0 5839.0,6148.0 5895.0,6058.0 C 5930.0,6002.0 5949.0,5980.0 5964.0,5980.0 C 5979.0,5979.0 6001.0,5954.0 6045.0,5884.0 L 6104.0,5789.0 L 6200.0,5796.0 C 6296.0,5802.0 6296.0,5802.0 6313.0,5776.0 C 6325.0,5758.0 6339.0,5750.0 6360.0,5750.0 C 6376.0,5750.0 6405.0,5740.0 6425.0,5729.0 L 6461.0,5707.0 L 6496.0,5741.0 L 6531.0,5775.0 L 6505.0,5783.0 C 6483.0,5791.0 6480.0,5797.0 6480.0,5836.0 C 6480.0,5875.0 6483.0,5882.0 6508.0,5892.0 C 6523.0,5898.0 6555.0,5904.0 6580.0,5905.0 C 6651.0,5908.0 6686.0,5919.0 6710.0,5946.0 C 6723.0,5959.0 6742.0,5970.0 6753.0,5970.0 C 6772.0,5970.0 6773.0,5964.0 6766.0,5743.0 C 6763.0,5617.0 6757.0,5367.0 6754.0,5187.0 L 6747.0,4858.0 L 6724.0,4848.0 C 6686.0,4830.0 6632.0,4847.0 6610.0,4883.0 L 6591.0,4914.0 L 6621.0,4966.0 L 6651.0,5019.0 L 6608.0,5030.0 C 6584.0,5036.0 6558.0,5043.0 6550.0,5046.0 C 6541.0,5048.0 6513.0,5032.0 6488.0,5011.0 C 6459.0,4987.0 6397.0,4955.0 6326.0,4927.0 C 6213.0,4881.0 6212.0,4881.0 6172.0,4896.0 C 6135.0,4911.0 6130.0,4911.0 6086.0,4892.0 L 6040.0,4871.0 L 6005.0,4917.0 C 5976.0,4956.0 5970.0,4971.0 5970.0,5014.0 C 5970.0,5059.0 5967.0,5068.0 5938.0,5092.0 C 5907.0,5117.0 5905.0,5123.0 5902.0,5193.0 L 5898.0,5268.0 L 5824.0,5341.0 L 5750.0,5414.0 L 5720.0,5385.0 C 5691.0,5357.0 5690.0,5357.0 5670.0,5375.0 C 5659.0,5385.0 5650.0,5398.0 5650.0,5403.0 C 5650.0,5409.0 5637.0,5434.0 5621.0,5459.0 C 5596.0,5498.0 5593.0,5511.0 5599.0,5545.0 C 5605.0,5579.0 5602.0,5591.0 5578.0,5627.0 C 5554.0,5662.0 5550.0,5679.0 5550.0,5736.0 L 5550.0,5803.0 L 5467.0,5796.0 C 5417.0,5792.0 5373.0,5793.0 5354.0,5800.0 C 5332.0,5808.0 5315.0,5808.0 5294.0,5800.0 C 5269.0,5790.0 5263.0,5792.0 5249.0,5809.0 C 5238.0,5822.0 5220.0,5830.0 5202.0,5830.0 C 5151.0,5830.0 5120.0,5847.0 5120.0,5874.0 C 5120.0,5893.0 5110.0,5902.0 5065.0,5920.0 C 5014.0,5941.0 5008.0,5941.0 4992.0,5927.0 C 4976.0,5913.0 4966.0,5912.0 4912.0,5922.0 C 4864.0,5931.0 4850.0,5938.0 4850.0,5951.0 C 4850.0,5961.0 4829.0,5981.0 4800.0,5999.0 C 4772.0,6016.0 4750.0,6037.0 4750.0,6046.0 C 4750.0,6055.0 4737.0,6079.0 4720.0,6100.0 C 4699.0,6127.0 4689.0,6153.0 4684.0,6193.0 C 4677.0,6249.0 4677.0,6250.0 4600.0,6310.0 L 4523.0,6371.0 L 4511.0,6457.0 C 4505.0,6504.0 4499.0,6544.0 4497.0,6546.0 C 4495.0,6548.0 4458.0,6546.0 4415.0,6542.0 L 4335.0,6535.0 L 4338.0,6495.0 C 4340.0,6465.0 4335.0,6447.0 4319.0,6427.0 C 4301.0,6403.0 4299.0,6391.0 4304.0,6351.0 L 4310.0,6303.0 L 4258.0,6259.0 C 4168.0,6184.0 4175.0,6187.0 4143.0,6203.0 C 4118.0,6217.0 4112.0,6216.0 4079.0,6199.0 L 4042.0,6181.0 L 3926.0,6222.0 L 3810.0,6263.0 L 3771.0,6246.0 C 3735.0,6229.0 3730.0,6229.0 3671.0,6246.0 C 3617.0,6261.0 3604.0,6261.0 3569.0,6250.0 C 3509.0,6230.0 3478.0,6244.0 3467.0,6296.0 C 3461.0,6331.0 3454.0,6339.0 3427.0,6346.0 C 3403.0,6353.0 3394.0,6362.0 3392.0,6382.0 C 3388.0,6414.0 3364.0,6422.0 3330.0,6402.0 C 3306.0,6389.0 3299.0,6391.0 3236.0,6426.0 C 3169.0,6462.0 3167.0,6463.0 3119.0,6451.0 C 3061.0,6436.0 3040.0,6446.0 3040.0,6490.0 C 3040.0,6514.0 3031.0,6523.0 2977.0,6553.0 C 2930.0,6580.0 2910.0,6598.0 2896.0,6626.0 C 2881.0,6659.0 2880.0,6665.0 2893.0,6675.0 C 2906.0,6684.0 2906.0,6699.0 2897.0,6773.0 C 2889.0,6842.0 2890.0,6869.0 2900.0,6901.0 C 2912.0,6936.0 2912.0,6943.0 2899.0,6951.0 C 2878.0,6964.0 2863.0,6962.0 2812.0,6936.0 C 2778.0,6919.0 2733.0,6909.0 2650.0,6900.0 C 2583.0,6893.0 2520.0,6881.0 2500.0,6870.0 C 2481.0,6861.0 2444.0,6850.0 2419.0,6846.0 C 2379.0,6840.0 2364.0,6831.0 2316.0,6780.0 C 2283.0,6746.0 2244.0,6716.0 2224.0,6710.0 C 2192.0,6699.0 2183.0,6700.0 2149.0,6719.0 C 2124.0,6733.0 2102.0,6739.0 2089.0,6735.0 C 2061.0,6726.0 1990.0,6758.0 1997.0,6775.0 C 1999.0,6783.0 2019.0,6791.0 2040.0,6795.0 C 2073.0,6801.0 2080.0,6806.0 2093.0,6843.0 C 2102.0,6867.0 2108.0,6918.0 2108.0,6963.0 L 2108.0,7040.0 L 2070.0,7070.0 C 2046.0,7089.0 2020.0,7100.0 1999.0,7101.0 C 1930.0,7103.0 1916.0,7112.0 1908.0,7159.0 C 1899.0,7214.0 1876.0,7240.0 1837.0,7240.0 C 1812.0,7240.0 1809.0,7238.0 1820.0,7225.0 C 1830.0,7213.0 1830.0,7201.0 1820.0,7165.0 C 1810.0,7131.0 1810.0,7110.0 1819.0,7078.0 C 1825.0,7054.0 1835.0,6982.0 1840.0,6918.0 L 1851.0,6800.0 L 1793.0,6691.0 L 1735.0,6582.0 L 1759.0,6528.0 C 1773.0,6499.0 1783.0,6462.0 1782.0,6445.0 C 1781.0,6429.0 1777.0,6349.0 1774.0,6268.0 L 1769.0,6120.0 L 1813.0,6026.0 L 1858.0,5932.0 L 1814.0,5882.0 C 1787.0,5851.0 1755.0,5797.0 1733.0,5745.0 L 1697.0,5658.0 L 1709.0,5586.0 C 1727.0,5485.0 1727.0,5485.0 1765.0,5464.0 C 1795.0,5448.0 1800.0,5441.0 1800.0,5408.0 L 1800.0,5370.0 L 1558.0,5375.0 C 1424.0,5378.0 1022.0,5382.0 664.0,5385.0 L 12.0,5390.0 L 6.0,5368.0 C 3.0,5355.0 0.0,4693.0 0.0,3896.0 L 0.0,2448.0 L 43.0,2401.0 C 75.0,2365.0 90.0,2335.0 108.0,2277.0 L 130.0,2200.0 L 209.0,2161.0 C 291.0,2119.0 300.0,2107.0 300.0,2033.0 C 300.0,2015.0 350.0,1957.0 497.0,1804.0 C 690.0,1604.0 701.0,1595.0 935.0,1428.0 L 1174.0,1256.0 L 1315.0,1285.0 C 1392.0,1300.0 1516.0,1331.0 1590.0,1352.0 C 1664.0,1373.0 1739.0,1390.0 1757.0,1390.0 C 1775.0,1390.0 1840.0,1372.0 1902.0,1350.0 C 2016.0,1309.0 2121.0,1287.0 2260.0,1274.0 C 2301.0,1271.0 2359.0,1259.0 2387.0,1248.0 C 2464.0,1220.0 2554.0,1156.0 2594.0,1102.0 C 2616.0,1072.0 2660.0,1035.0 2717.0,998.0 L 2806.0,941.0 L 2936.0,934.0 C 3104.0,926.0 3210.0,896.0 3261.0,844.0 L 3295.0,808.0 L 3370.0,813.0 C 3411.0,816.0 3465.0,826.0 3490.0,835.0 C 3525.0,848.0 3554.0,850.0 3620.0,845.0 C 3773.0,834.0 3822.0,822.0 3851.0,787.0 C 3876.0,757.0 3880.0,756.0 3973.0,752.0 C 4058.0,748.0 4073.0,750.0 4103.0,769.0 C 4122.0,780.0 4144.0,790.0 4152.0,790.0 C 4175.0,790.0 4261.0,839.0 4298.0,874.0 C 4316.0,891.0 4347.0,937.0 4366.0,977.0 C 4396.0,1040.0 4413.0,1060.0 4498.0,1133.0 C 4551.0,1178.0 4626.0,1240.0 4663.0,1270.0 C 4738.0,1330.0 4762.0,1363.0 4780.0,1430.0 C 4789.0,1461.0 4818.0,1505.0 4880.0,1581.0 L 4969.0,1687.0 L 5092.0,1743.0 C 5212.0,1798.0 5216.0,1801.0 5286.0,1882.0 L 5356.0,1965.0 L 5585.0,2045.0 L 5815.0,2126.0 L 5832.0,2172.0 C 5841.0,2197.0 5851.0,2257.0 5853.0,2306.0 C 5856.0,2355.0 5865.0,2412.0 5874.0,2432.0 C 5883.0,2453.0 5890.0,2486.0 5890.0,2505.0 C 5890.0,2555.0 5942.0,2620.0 5982.0,2620.0 C 6016.0,2620.0 6101.0,2670.0 6157.0,2723.0 C 6202.0,2766.0 6267.0,2791.0 6428.0,2831.0 C 6474.0,2842.0 6524.0,2856.0 6538.0,2861.0 C 6553.0,2867.0 6603.0,2880.0 6649.0,2890.0 C 6732.0,2908.0 6734.0,2908.0 6784.0,2889.0 C 6826.0,2874.0 6849.0,2871.0 6912.0,2876.0 C 6954.0,2880.0 6997.0,2879.0 7007.0,2875.0 C 7017.0,2870.0 7066.0,2866.0 7115.0,2866.0 L 7206.0,2865.0 L 7208.0,2987.0 L 7211.0,3109.0 L 7165.0,3175.0 C 7112.0,3252.0 7108.0,3267.0 7112.0,3344.0 L 7115.0,3402.0 L 7362.0,3505.0 C 7607.0,3607.0 7612.0,3609.0 7901.0,3674.0 C 8191.0,3740.0 8192.0,3740.0 8242.0,3782.0 C 8284.0,3817.0 8303.0,3825.0 8366.0,3836.0 C 8418.0,3845.0 8460.0,3861.0 8507.0,3888.0 C 8568.0,3924.0 8632.0,3942.0 9155.0,4075.0 C 9474.0,4156.0 9737.0,4223.0 9738.0,4225.0 C 9740.0,4227.0 9729.0,4244.0 9714.0,4263.0 C 9690.0,4294.0 9682.0,4298.0 9651.0,4293.0 C 9631.0,4290.0 9606.0,4279.0 9595.0,4269.0 C 9573.0,4250.0 9540.0,4259.0 9540.0,4284.0 C 9540.0,4292.0 9524.0,4324.0 9505.0,4355.0 C 9486.0,4387.0 9468.0,4421.0 9465.0,4431.0 C 9461.0,4442.0 9444.0,4450.0 9415.0,4455.0 C 9385.0,4459.0 9366.0,4468.0 9360.0,4481.0 C 9354.0,4491.0 9353.0,4500.0 9357.0,4500.0 C 9361.0,4501.0 9376.0,4510.0 9389.0,4521.0 L 9413.0,4541.0 L 9386.0,4569.0 C 9371.0,4585.0 9345.0,4600.0 9329.0,4604.0 C 9308.0,4608.0 9300.0,4615.0 9300.0,4630.0 C 9300.0,4641.0 9307.0,4650.0 9315.0,4650.0 C 9344.0,4650.0 9407.0,4689.0 9425.0,4717.0 C 9435.0,4732.0 9453.0,4756.0 9465.0,4770.0 C 9478.0,4784.0 9491.0,4811.0 9495.0,4830.0 C 9504.0,4875.0 9546.0,4957.0 9562.0,4962.0 C 9571.0,4965.0 9570.0,4975.0 9558.0,5004.0 C 9545.0,5039.0 9545.0,5048.0 9562.0,5108.0 C 9572.0,5145.0 9580.0,5196.0 9580.0,5221.0 C 9580.0,5259.0 9576.0,5269.0 9560.0,5273.0 C 9544.0,5277.0 9540.0,5287.0 9540.0,5321.0 C 9540.0,5354.0 9549.0,5378.0 9581.0,5427.0 C 9620.0,5486.0 9625.0,5490.0 9661.0,5490.0 C 9682.0,5490.0 9711.0,5485.0 9725.0,5478.0 C 9748.0,5468.0 9754.0,5470.0 9786.0,5501.0 C 9811.0,5525.0 9836.0,5538.0 9873.0,5545.0 C 9919.0,5554.0 9925.0,5558.0 9928.0,5582.0 C 9931.0,5604.0 9938.0,5611.0 9966.0,5616.0 C 9985.0,5619.0 10000.0,5627.0 10000.0,5633.0 C 10000.0,5639.0 10009.0,5654.0 10021.0,5666.0 L 10042.0,5688.0 L 10013.0,5704.0 C 9996.0,5712.0 9963.0,5724.0 9938.0,5730.0 C 9901.0,5739.0 9890.0,5748.0 9876.0,5776.0 C 9867.0,5795.0 9860.0,5818.0 9860.0,5828.0 C 9859.0,5837.0 9853.0,5862.0 9846.0,5883.0 C 9834.0,5916.0 9834.0,5925.0 9846.0,5948.0 C 9854.0,5963.0 9860.0,5982.0 9860.0,5991.0 C 9860.0,6000.0 9867.0,6024.0 9875.0,6044.0 C 9886.0,6070.0 9888.0,6090.0 9881.0,6119.0 C 9874.0,6150.0 9876.0,6162.0 9888.0,6174.0 C 9902.0,6188.0 9902.0,6193.0 9888.0,6228.0 C 9876.0,6259.0 9875.0,6273.0 9885.0,6307.0 C 9896.0,6345.0 9896.0,6350.0 9874.0,6373.0 C 9861.0,6387.0 9841.0,6401.0 9830.0,6405.0 C 9809.0,6412.0 9806.0,6423.0 9819.0,6455.0 C 9824.0,6466.0 9824.0,6485.0 9819.0,6496.0 C 9815.0,6508.0 9814.0,6527.0 9817.0,6538.0 C 9822.0,6557.0 9824.0,6558.0 9844.0,6545.0 C 9867.0,6529.0 9880.0,6534.0 9880.0,6556.0 C 9880.0,6563.0 9905.0,6610.0 9935.0,6660.0 C 9965.0,6710.0 9990.0,6756.0 9990.0,6763.0 C 9990.0,6770.0 9972.0,6802.0 9950.0,6835.0 C 9922.0,6877.0 9910.0,6906.0 9910.0,6931.0 C 9910.0,6952.0 9903.0,6973.0 9894.0,6980.0 C 9886.0,6988.0 9874.0,7002.0 9868.0,7013.0 C 9859.0,7030.0 9860.0,7032.0 9875.0,7026.0 C 9886.0,7022.0 9900.0,7026.0 9910.0,7035.0 C 9921.0,7045.0 9955.0,7053.0 9997.0,7057.0 C 10062.0,7062.0 10069.0,7065.0 10085.0,7094.0 C 10095.0,7111.0 10134.0,7157.0 10172.0,7195.0 L 10239.0,7266.0 L 10183.0,7350.0 L 10127.0,7433.0 L 10133.0,7507.0 L 10139.0,7581.0 L 10044.0,7656.0 C 9992.0,7698.0 9950.0,7735.0 9950.0,7739.0 C 9951.0,7742.0 9959.0,7781.0 9970.0,7825.0 C 9980.0,7869.0 9986.0,7909.0 9982.0,7915.0 C 9979.0,7920.0 9955.0,7952.0 9929.0,7985.0 C 9891.0,8035.0 9883.0,8050.0 9887.0,8076.0 C 9895.0,8126.0 9876.0,8150.0 9830.0,8150.0 C 9797.0,8150.0 9790.0,8147.0 9790.0,8130.0 C 9790.0,8106.0 9781.0,8105.0 9735.0,8124.0 C 9706.0,8137.0 9700.0,8144.0 9700.0,8170.0 C 9700.0,8187.0 9704.0,8210.0 9710.0,8220.0 C 9718.0,8235.0 9714.0,8242.0 9685.0,8259.0 C 9661.0,8273.0 9650.0,8287.0 9650.0,8303.0 C 9650.0,8332.0 9634.0,8347.0 9547.0,8395.0 C 9502.0,8420.0 9470.0,8446.0 9453.0,8471.0 C 9426.0,8512.0 9422.0,8514.0 9287.0,8545.0 C 9215.0,8563.0 9212.0,8564.0 9191.0,8607.0 L 9170.0,8650.0 L 9074.0,8650.0 C 8989.0,8650.0 8975.0,8653.0 8947.0,8674.0 C 8893.0,8714.0 8840.0,8732.0 8790.0,8726.0 C 8747.0,8721.0 8744.0,8723.0 8718.0,8757.0 C 8702.0,8777.0 8690.0,8803.0 8690.0,8816.0 C 8690.0,8838.0 8669.0,8849.0 8570.0,8882.0 C 8562.0,8885.0 8537.0,8878.0 8516.0,8868.0 L 8477.0,8848.0 L 8426.0,8899.0 C 8377.0,8948.0 8376.0,8951.0 8375.0,9007.0 L 8375.0,9065.0 L 8340.0,9068.0 C 8318.0,9070.0 8285.0,9087.0 8252.0,9113.0 C 8202.0,9151.0 8196.0,9153.0 8161.0,9144.0 C 8129.0,9135.0 8119.0,9137.0 8089.0,9156.0 C 8062.0,9175.0 8040.0,9179.0 7979.0,9179.0 L 7903.0,9180.0 L 7781.0,9340.0 C 7675.0,9480.0 7656.0,9500.0 7632.0,9499.0 C 7617.0,9498.0 7246.0,9454.0 6808.0,9401.0" fill="pink"/>
</svg>
