<?xml version="1.0" ?>
<svg xmlns="http://www.w3.org/2000/svg" xmlns:ev="http://www.w3.org/2001/xml-events" xmlns:xlink="http://www.w3.org/1999/xlink" baseProfile="full" height="557px" version="1.1" viewBox="-1026.7188386928578 -579.0694878893025 12293.44602258828 11397.653812945617" width="600px">
	<defs/>
	<path d="M 6160.0,9855.0 C 6091.0,9848.0 6013.0,9841.0 5987.0,9841.0 C 5956.0,9840.0 5913.0,9829.0 5870.0,9810.0 C 5821.0,9788.0 5786.0,9780.0 5745.0,9780.0 C 5702.0,9780.0 5667.0,9771.0 5597.0,9741.0 C 5546.0,9720.0 5472.0,9690.0 5432.0,9675.0 C 5337.0,9640.0 5224.0,9564.0 5180.0,9507.0 C 5153.0,9472.0 5138.0,9461.0 5117.0,9460.0 C 5100.0,9460.0 5059.0,9439.0 5015.0,9410.0 L 4940.0,9359.0 L 4940.0,9307.0 C 4940.0,9269.0 4933.0,9244.0 4915.0,9215.0 C 4896.0,9184.0 4890.0,9161.0 4890.0,9110.0 C 4890.0,9074.0 4883.0,9016.0 4875.0,8980.0 C 4867.0,8944.0 4860.0,8890.0 4860.0,8860.0 C 4858.0,8787.0 4842.0,8740.0 4802.0,8695.0 C 4747.0,8633.0 4471.0,8520.0 4060.0,8392.0 C 4043.0,8387.0 4023.0,8362.0 3995.0,8311.0 L 3955.0,8237.0 L 3840.0,8196.0 C 3717.0,8151.0 3600.0,8093.0 3510.0,8032.0 C 3443.0,7987.0 3310.0,7816.0 3215.0,7655.0 C 3180.0,7595.0 3114.0,7496.0 3068.0,7435.0 C 2996.0,7341.0 2975.0,7320.0 2913.0,7283.0 C 2728.0,7174.0 2590.0,7029.0 2575.0,6926.0 C 2569.0,6890.0 2561.0,6874.0 2538.0,6857.0 C 2522.0,6845.0 2495.0,6810.0 2479.0,6780.0 C 2452.0,6730.0 2441.0,6720.0 2354.0,6672.0 C 2297.0,6641.0 2240.0,6617.0 2213.0,6613.0 C 2186.0,6609.0 2148.0,6594.0 2119.0,6573.0 C 2061.0,6533.0 2053.0,6533.0 2038.0,6564.0 L 2027.0,6589.0 L 1979.0,6564.0 C 1924.0,6537.0 1865.0,6533.0 1833.0,6555.0 C 1821.0,6564.0 1801.0,6589.0 1788.0,6611.0 C 1772.0,6639.0 1753.0,6657.0 1720.0,6671.0 C 1680.0,6689.0 1655.0,6691.0 1480.0,6691.0 C 1309.0,6691.0 1276.0,6688.0 1215.0,6669.0 C 1155.0,6651.0 1129.0,6648.0 1020.0,6652.0 C 951.0,6655.0 888.0,6660.0 879.0,6664.0 C 870.0,6668.0 860.0,6688.0 856.0,6708.0 C 851.0,6743.0 846.0,6748.0 765.0,6788.0 L 680.0,6830.0 L 502.0,6830.0 C 243.0,6831.0 144.0,6842.0 66.0,6878.0 L 2.0,6908.0 L 7.0,6801.0 C 12.0,6708.0 17.0,6682.0 54.0,6587.0 C 94.0,6482.0 96.0,6478.0 145.0,6450.0 C 195.0,6422.0 196.0,6420.0 249.0,6288.0 C 335.0,6075.0 374.0,6008.0 443.0,5953.0 C 486.0,5919.0 509.0,5892.0 527.0,5854.0 C 549.0,5805.0 555.0,5800.0 608.0,5782.0 L 665.0,5763.0 L 662.0,5675.0 C 660.0,5604.0 665.0,5571.0 685.0,5506.0 L 710.0,5425.0 L 788.0,5381.0 L 867.0,5337.0 L 878.0,5243.0 C 886.0,5176.0 886.0,5140.0 878.0,5118.0 C 868.0,5090.0 872.0,5078.0 914.0,4996.0 C 952.0,4922.0 971.0,4863.0 1017.0,4683.0 L 1072.0,4462.0 L 1130.0,4440.0 C 1163.0,4428.0 1203.0,4420.0 1225.0,4422.0 C 1260.0,4425.0 1265.0,4422.0 1274.0,4397.0 C 1282.0,4376.0 1280.0,4363.0 1267.0,4340.0 C 1250.0,4312.0 1250.0,4311.0 1272.0,4297.0 C 1285.0,4289.0 1311.0,4279.0 1330.0,4276.0 C 1357.0,4271.0 1371.0,4261.0 1390.0,4230.0 C 1412.0,4194.0 1421.0,4189.0 1496.0,4169.0 L 1578.0,4148.0 L 1605.0,4076.0 C 1646.0,3970.0 1654.0,3960.0 1699.0,3960.0 C 1730.0,3960.0 1749.0,3951.0 1795.0,3913.0 C 1850.0,3868.0 1857.0,3865.0 2003.0,3833.0 C 2087.0,3815.0 2175.0,3800.0 2200.0,3800.0 C 2240.0,3800.0 2252.0,3794.0 2310.0,3744.0 C 2375.0,3687.0 2375.0,3687.0 2418.0,3561.0 L 2460.0,3435.0 L 2454.0,3286.0 L 2447.0,3137.0 L 2471.0,3143.0 C 2577.0,3168.0 2654.0,3172.0 2802.0,3160.0 C 2886.0,3154.0 2955.0,3147.0 2956.0,3147.0 C 2956.0,3146.0 2964.0,3127.0 2972.0,3106.0 C 2986.0,3070.0 2986.0,3061.0 2972.0,3012.0 C 2959.0,2967.0 2958.0,2944.0 2967.0,2882.0 C 2977.0,2814.0 2976.0,2801.0 2959.0,2756.0 C 2932.0,2689.0 2911.0,2563.0 2917.0,2508.0 C 2920.0,2481.0 2916.0,2440.0 2905.0,2405.0 C 2889.0,2347.0 2889.0,2345.0 2910.0,2299.0 C 2932.0,2253.0 2949.0,2241.0 2995.0,2240.0 C 3028.0,2239.0 3131.0,2081.0 3173.0,1967.0 C 3194.0,1914.0 3210.0,1854.0 3210.0,1836.0 C 3210.0,1817.0 3224.0,1773.0 3241.0,1736.0 C 3280.0,1653.0 3289.0,1650.0 3510.0,1640.0 C 3666.0,1634.0 3681.0,1631.0 3780.0,1596.0 C 3867.0,1565.0 3894.0,1559.0 3939.0,1564.0 C 3988.0,1568.0 4002.0,1564.0 4109.0,1514.0 C 4180.0,1480.0 4281.0,1443.0 4368.0,1419.0 C 4494.0,1384.0 4559.0,1358.0 4560.0,1340.0 C 4560.0,1337.0 4542.0,1305.0 4521.0,1268.0 L 4482.0,1202.0 L 4508.0,1130.0 C 4524.0,1084.0 4548.0,1043.0 4574.0,1013.0 L 4615.0,968.0 L 4712.0,963.0 L 4809.0,957.0 L 4857.0,899.0 L 4905.0,841.0 L 4985.0,841.0 C 5029.0,840.0 5090.0,847.0 5120.0,855.0 C 5153.0,864.0 5193.0,867.0 5220.0,864.0 C 5245.0,861.0 5276.0,863.0 5291.0,868.0 C 5312.0,877.0 5327.0,871.0 5396.0,829.0 C 5468.0,784.0 5480.0,780.0 5530.0,782.0 L 5584.0,784.0 L 5603.0,708.0 C 5626.0,616.0 5636.0,611.0 5748.0,635.0 C 5852.0,657.0 5862.0,655.0 5948.0,605.0 C 6035.0,554.0 6071.0,549.0 6171.0,577.0 C 6229.0,593.0 6235.0,593.0 6280.0,577.0 C 6341.0,555.0 6372.0,556.0 6418.0,579.0 C 6446.0,593.0 6488.0,599.0 6587.0,605.0 C 6772.0,615.0 6805.0,609.0 6884.0,549.0 C 6942.0,505.0 6955.0,500.0 7000.0,500.0 C 7034.0,500.0 7067.0,508.0 7100.0,525.0 C 7127.0,539.0 7160.0,550.0 7173.0,550.0 C 7201.0,550.0 7278.0,493.0 7342.0,425.0 L 7389.0,375.0 L 7587.0,571.0 C 7696.0,679.0 7913.0,885.0 8070.0,1030.0 C 8227.0,1175.0 8500.0,1437.0 8677.0,1613.0 C 9022.0,1957.0 9002.0,1942.0 9073.0,1915.0 C 9088.0,1909.0 9090.0,1914.0 9090.0,1960.0 C 9090.0,2005.0 9083.0,2024.0 9039.0,2096.0 C 9009.0,2146.0 8992.0,2185.0 8996.0,2192.0 C 9000.0,2199.0 9048.0,2265.0 9103.0,2339.0 L 9202.0,2474.0 L 9191.0,2635.0 C 9176.0,2854.0 9174.0,2838.0 9225.0,2897.0 C 9267.0,2945.0 9274.0,2949.0 9328.0,2955.0 C 9359.0,2958.0 9394.0,2963.0 9406.0,2965.0 C 9420.0,2968.0 9457.0,3016.0 9516.0,3109.0 C 9580.0,3209.0 9615.0,3255.0 9642.0,3271.0 C 9671.0,3289.0 9684.0,3307.0 9696.0,3343.0 C 9707.0,3375.0 9709.0,3395.0 9702.0,3402.0 C 9696.0,3408.0 9704.0,3434.0 9724.0,3474.0 C 9748.0,3523.0 9762.0,3540.0 9786.0,3549.0 C 9804.0,3555.0 9820.0,3569.0 9823.0,3580.0 C 9826.0,3593.0 9837.0,3600.0 9853.0,3600.0 C 9866.0,3600.0 9891.0,3603.0 9907.0,3606.0 L 9937.0,3612.0 L 9948.0,3724.0 C 9955.0,3785.0 9969.0,3869.0 9980.0,3910.0 C 9991.0,3951.0 10000.0,3988.0 10000.0,3991.0 C 10000.0,3994.0 9948.0,4039.0 9885.0,4090.0 L 9769.0,4184.0 L 9776.0,4251.0 L 9782.0,4318.0 L 9736.0,4383.0 C 9694.0,4442.0 9690.0,4452.0 9690.0,4506.0 L 9690.0,4565.0 L 9739.0,4600.0 L 9788.0,4635.0 L 9800.0,4730.0 C 9806.0,4782.0 9820.0,4854.0 9832.0,4889.0 C 9851.0,4950.0 9852.0,4954.0 9836.0,4981.0 C 9824.0,5002.0 9821.0,5020.0 9826.0,5046.0 L 9833.0,5083.0 L 9764.0,5076.0 C 9697.0,5070.0 9694.0,5070.0 9663.0,5099.0 C 9645.0,5115.0 9630.0,5135.0 9630.0,5142.0 C 9630.0,5150.0 9646.0,5171.0 9664.0,5190.0 C 9698.0,5222.0 9698.0,5224.0 9684.0,5251.0 C 9677.0,5266.0 9670.0,5284.0 9670.0,5289.0 C 9670.0,5295.0 9697.0,5314.0 9731.0,5330.0 L 9792.0,5361.0 L 9850.0,5341.0 C 9917.0,5319.0 9910.0,5315.0 9960.0,5404.0 L 9993.0,5463.0 L 9970.0,5534.0 C 9958.0,5573.0 9939.0,5617.0 9929.0,5632.0 C 9918.0,5646.0 9910.0,5673.0 9910.0,5692.0 C 9910.0,5723.0 9914.0,5726.0 9964.0,5746.0 C 10014.0,5766.0 10020.0,5766.0 10035.0,5751.0 C 10050.0,5736.0 10053.0,5738.0 10080.0,5770.0 C 10102.0,5796.0 10110.0,5815.0 10110.0,5847.0 C 10110.0,5881.0 10115.0,5892.0 10133.0,5901.0 C 10155.0,5913.0 10170.0,5929.0 10170.0,5942.0 C 10170.0,5946.0 10152.0,5962.0 10130.0,5976.0 L 10090.0,6003.0 L 10090.0,6078.0 C 10090.0,6147.0 10086.0,6162.0 10039.0,6266.0 L 9987.0,6380.0 L 10019.0,6451.0 C 10040.0,6500.0 10050.0,6538.0 10050.0,6573.0 C 10050.0,6636.0 10068.0,6698.0 10091.0,6710.0 C 10114.0,6723.0 10130.0,6772.0 10130.0,6830.0 C 10130.0,6860.0 10136.0,6882.0 10145.0,6890.0 C 10153.0,6897.0 10160.0,6917.0 10160.0,6936.0 C 10160.0,6985.0 10133.0,7080.0 10113.0,7102.0 C 10091.0,7126.0 10094.0,7175.0 10119.0,7210.0 C 10129.0,7224.0 10140.0,7249.0 10144.0,7265.0 C 10148.0,7284.0 10162.0,7302.0 10181.0,7312.0 L 10211.0,7330.0 L 10188.0,7362.0 C 10172.0,7385.0 10165.0,7410.0 10164.0,7445.0 C 10163.0,7473.0 10147.0,7564.0 10128.0,7648.0 C 10095.0,7793.0 10091.0,7803.0 10045.0,7861.0 C 9995.0,7925.0 9995.0,7932.0 10046.0,7946.0 C 10059.0,7949.0 10096.0,8001.0 10151.0,8092.0 C 10197.0,8170.0 10236.0,8236.0 10238.0,8239.0 C 10239.0,8242.0 10150.0,8243.0 10040.0,8241.0 L 9840.0,8238.0 L 9840.0,8308.0 L 9840.0,8378.0 L 9607.0,8503.0 C 9379.0,8625.0 9373.0,8628.0 9285.0,8639.0 C 9235.0,8645.0 9140.0,8650.0 9072.0,8650.0 C 8955.0,8650.0 8947.0,8651.0 8889.0,8680.0 C 8840.0,8705.0 8828.0,8716.0 8823.0,8741.0 C 8819.0,8764.0 8805.0,8780.0 8772.0,8801.0 C 8746.0,8817.0 8706.0,8859.0 8675.0,8902.0 L 8622.0,8975.0 L 8484.0,9009.0 C 8407.0,9028.0 8311.0,9055.0 8270.0,9070.0 C 8205.0,9094.0 8194.0,9102.0 8186.0,9128.0 C 8182.0,9144.0 8167.0,9164.0 8154.0,9170.0 C 8141.0,9177.0 8120.0,9198.0 8108.0,9216.0 C 8081.0,9256.0 7968.0,9303.0 7905.0,9301.0 C 7833.0,9299.0 7756.0,9278.0 7713.0,9249.0 C 7661.0,9213.0 7638.0,9213.0 7606.0,9247.0 L 7582.0,9273.0 L 7263.0,9286.0 C 7088.0,9293.0 6943.0,9299.0 6941.0,9299.0 C 6939.0,9300.0 6940.0,9414.0 6943.0,9554.0 L 6949.0,9807.0 L 6891.0,9813.0 C 6859.0,9817.0 6821.0,9825.0 6807.0,9831.0 C 6784.0,9841.0 6777.0,9839.0 6739.0,9809.0 L 6697.0,9776.0 L 6665.0,9812.0 L 6633.0,9847.0 L 6489.0,9854.0 C 6410.0,9857.0 6332.0,9862.0 6315.0,9864.0 C 6299.0,9866.0 6229.0,9862.0 6160.0,9855.0" fill="pink"/>
</svg>
