<?xml version="1.0" standalone="no"?>
<!DOCTYPE svg PUBLIC "-//W3C//DTD SVG 20010904//EN"
 "http://www.w3.org/TR/2001/REC-SVG-20010904/DTD/svg10.dtd">
<svg version="1.0" xmlns="http://www.w3.org/2000/svg"
 width="1024" height="1024" viewBox="0 0 1024 1024"
 preserveAspectRatio="xMidYMid meet">
<metadata>
Created by potrace 1.15, written by Peter Selinger 2001-2017
</metadata>
<g transform="translate(-130,1000) scale(0.090000,-0.090000)"
fill="#000000" stroke="none">
<path d="M6275 10327 c-68 -32 -167 -41 -222 -20 -38 14 -43 14 -58 -1 -20
-20 -45 -20 -71 -1 -25 19 -53 19 -60 0 -4 -8 -18 -15 -33 -15 -14 0 -39 -7
-55 -15 -33 -17 -58 -19 -72 -6 -5 6 -40 15 -77 21 -56 9 -80 8 -133 -6 -50
-12 -68 -13 -79 -4 -11 9 -20 7 -42 -8 -22 -16 -50 -21 -128 -25 -115 -6 -197
-32 -251 -79 -23 -21 -41 -29 -55 -25 -12 3 -29 2 -38 -3 -9 -5 -28 -11 -43
-15 -15 -3 -43 -19 -61 -35 -46 -40 -81 -52 -155 -52 -45 0 -69 5 -82 17 -11
10 -24 14 -31 9 -7 -4 -62 -9 -123 -11 -96 -2 -113 0 -143 18 -22 14 -36 32
-40 51 -6 28 -7 29 -47 23 -51 -9 -57 -15 -92 -95 -56 -128 -96 -176 -179
-212 -148 -65 -173 -79 -216 -120 -34 -33 -48 -55 -52 -85 -4 -22 -16 -48 -28
-59 -34 -31 -49 -69 -49 -125 0 -35 6 -59 16 -71 16 -17 14 -20 -23 -61 -22
-24 -48 -56 -58 -71 -10 -15 -36 -36 -59 -48 -23 -11 -57 -35 -76 -54 -43 -40
-88 -60 -170 -73 -34 -6 -69 -16 -78 -23 -8 -7 -32 -48 -52 -91 -34 -74 -39
-81 -91 -105 -48 -24 -57 -34 -86 -92 -18 -37 -32 -82 -32 -103 -1 -53 -11
-67 -86 -127 -36 -29 -71 -62 -77 -74 -10 -19 -10 -20 5 -7 24 19 21 8 -7 -33
-13 -20 -32 -59 -42 -87 -12 -33 -31 -61 -51 -76 -36 -27 -48 -61 -59 -160 -7
-67 3 -81 29 -43 14 20 15 20 36 -15 12 -20 27 -35 33 -33 16 6 38 -36 38 -71
0 -16 -8 -31 -21 -39 -15 -10 -18 -17 -11 -24 7 -7 8 -17 2 -28 -7 -13 -5 -22
6 -31 26 -21 34 -46 45 -129 9 -78 9 -81 -26 -174 -22 -58 -35 -111 -35 -141
0 -57 -34 -120 -93 -170 -22 -19 -35 -35 -29 -35 17 0 82 -60 82 -76 0 -7 7
-17 16 -22 11 -6 13 -11 5 -16 -6 -4 -11 -12 -11 -17 0 -6 4 -7 10 -4 6 3 10
-1 10 -9 0 -8 12 -22 28 -30 25 -14 26 -15 5 -16 -13 0 -23 5 -23 10 0 6 -6
10 -14 10 -11 0 -14 -19 -15 -82 -1 -81 0 -83 29 -103 16 -11 30 -28 30 -37 0
-34 50 -45 103 -23 13 6 16 4 11 -9 -4 -11 -1 -16 10 -16 9 0 16 -4 16 -10 0
-5 -4 -10 -10 -10 -5 0 -10 -7 -10 -16 0 -9 5 -12 12 -8 7 4 8 3 4 -4 -4 -6 9
-27 29 -48 29 -30 38 -34 50 -24 12 10 15 9 15 -9 0 -12 4 -19 10 -16 5 3 7 0
4 -8 -6 -17 62 -81 111 -104 25 -12 35 -23 35 -40 0 -13 5 -23 11 -23 12 0 44
-69 40 -88 -1 -8 4 -21 11 -29 11 -14 10 -15 -10 -9 -23 8 -23 7 -8 -22 8 -16
25 -32 37 -35 12 -3 18 -10 14 -17 -4 -7 3 -19 16 -27 l22 -16 -24 -10 c-24
-10 -24 -10 11 -21 19 -7 66 -26 104 -44 38 -18 70 -32 71 -32 2 0 20 -16 42
-36 21 -20 47 -45 58 -55 12 -10 28 -19 38 -19 9 0 54 -34 99 -77 68 -62 104
-86 202 -134 l120 -57 80 29 c44 17 85 34 91 38 42 34 465 79 465 50 0 -3 22
-9 48 -12 27 -3 65 -14 85 -23 36 -17 38 -17 65 2 15 11 55 28 90 37 35 10 88
31 119 47 31 17 74 33 95 36 41 7 50 26 21 43 -10 6 -12 11 -6 11 7 0 18 -9
25 -20 7 -11 22 -20 34 -20 21 0 59 32 49 42 -10 9 122 29 218 32 63 2 103 8
114 17 12 10 14 10 9 2 -5 -10 4 -13 36 -13 55 0 120 -30 144 -65 11 -15 31
-40 45 -56 15 -15 25 -30 22 -32 -9 -10 24 -92 48 -118 22 -24 33 -27 87 -28
40 0 67 5 76 14 7 8 16 12 19 9 3 -3 15 -1 26 6 17 9 21 8 21 -5 0 -17 16 -20
25 -5 3 6 29 10 57 10 34 0 58 6 70 17 17 15 18 15 18 0 0 -11 8 -17 24 -17
17 0 26 -7 30 -25 8 -30 63 -67 88 -59 13 4 16 1 12 -11 -4 -9 5 -32 21 -55
27 -38 27 -42 16 -97 -6 -31 -11 -71 -11 -90 0 -19 -13 -57 -31 -88 -24 -42
-28 -56 -17 -60 14 -6 24 -56 10 -54 -24 4 -34 -2 -27 -18 4 -10 9 -24 12 -31
3 -7 0 -10 -9 -7 -10 4 -13 -3 -10 -33 5 -48 -38 -107 -69 -97 -11 4 -19 2
-19 -5 0 -22 65 -130 79 -130 11 0 11 -3 1 -15 -10 -12 -9 -16 4 -21 9 -3 16
-12 16 -19 0 -19 50 -76 61 -69 5 3 17 0 26 -5 16 -9 16 -10 -4 -11 -33 0 -28
-11 18 -45 110 -81 291 -320 287 -378 -1 -12 22 -73 50 -134 29 -62 52 -118
52 -124 0 -6 16 -46 35 -89 19 -43 35 -85 35 -93 0 -9 -14 -25 -31 -37 -21
-16 -28 -27 -23 -39 3 -9 21 -54 39 -101 18 -47 43 -102 55 -123 20 -34 22
-45 15 -115 -9 -94 -23 -124 -75 -157 -22 -14 -40 -30 -40 -35 0 -5 -14 -25
-31 -45 -18 -20 -36 -53 -40 -73 -5 -20 -15 -66 -22 -102 -23 -108 -46 -172
-67 -192 -20 -19 -21 -40 -3 -113 3 -16 2 -17 -6 -5 -16 23 -23 6 -10 -26 6
-17 8 -54 5 -89 -6 -53 -3 -67 23 -122 16 -34 38 -66 48 -72 11 -5 32 -34 47
-63 16 -29 41 -73 57 -98 15 -25 35 -67 45 -95 9 -27 34 -74 55 -104 22 -30
39 -63 39 -73 0 -10 4 -18 9 -18 6 0 22 -16 38 -36 26 -35 27 -42 30 -171 3
-109 7 -141 23 -172 10 -21 22 -70 26 -107 3 -38 13 -91 21 -119 8 -27 17 -63
19 -79 8 -56 75 -174 128 -226 28 -27 56 -50 61 -50 16 -1 61 -78 88 -150 33
-89 70 -159 122 -236 52 -75 72 -136 56 -171 -6 -13 -19 -23 -31 -23 -26 0
-38 -29 -19 -44 8 -6 29 -32 46 -57 22 -34 28 -51 21 -63 -12 -21 -7 -68 8
-73 6 -2 14 6 17 18 6 23 32 22 32 -1 0 -8 14 -17 31 -21 17 -3 40 -15 51 -26
37 -37 78 -39 140 -7 44 22 72 28 134 31 61 2 86 7 108 23 24 18 45 22 162 25
94 3 151 0 187 -9 44 -12 53 -12 63 0 7 9 31 14 66 14 46 0 53 3 51 18 -3 15
8 18 72 22 56 4 89 13 130 34 78 40 183 118 265 196 39 36 92 84 119 105 53
42 143 157 184 237 20 38 45 65 100 106 75 55 111 107 112 159 0 12 9 46 19
75 24 65 33 205 14 213 -16 6 -16 35 0 56 22 28 63 49 168 84 56 19 119 46
139 59 40 26 84 106 62 114 -16 5 -15 37 3 87 8 23 11 43 5 49 -4 4 -6 34 -3
65 4 38 2 53 -5 46 -5 -5 -12 -19 -15 -30 -3 -11 -5 3 -6 30 -1 28 -8 63 -16
79 -8 15 -15 44 -15 63 0 23 -8 41 -25 57 -20 18 -25 33 -25 69 0 38 3 46 23
51 12 3 49 32 81 66 53 55 67 64 88 61 4 0 22 16 40 36 120 132 135 145 203
178 38 19 93 39 120 46 28 7 62 22 76 33 15 12 41 29 58 38 17 10 34 25 38 34
7 19 11 24 72 94 55 64 89 190 50 190 -4 0 -6 7 -3 15 4 8 2 15 -3 15 -5 0
-10 8 -10 18 1 113 -4 163 -15 156 -7 -4 -5 1 4 12 11 12 14 24 9 33 -18 29
-23 175 -8 219 8 24 11 45 6 48 -5 3 -7 10 -3 15 6 11 -33 59 -49 59 -5 0 -22
9 -37 20 -22 16 -30 31 -35 73 -4 28 -14 60 -23 70 -8 9 -12 17 -7 17 4 0 -1
12 -10 27 -16 23 -16 33 -6 74 9 34 10 53 2 68 -15 28 -14 56 4 71 25 21 17
43 -35 94 -39 38 -50 56 -50 80 0 40 55 176 78 192 10 7 35 48 56 91 20 43 41
85 46 93 5 8 15 35 22 59 10 35 19 47 43 54 29 10 104 67 88 67 -4 1 4 7 19
16 15 8 46 47 70 87 29 48 89 119 183 216 157 160 221 212 336 272 70 36 99
61 229 197 83 85 150 161 150 167 0 7 24 46 54 86 63 87 96 146 96 173 0 19
54 121 70 131 5 3 14 22 20 43 7 20 23 48 35 62 13 14 33 45 45 70 12 25 33
59 45 75 14 19 27 57 33 99 6 38 17 76 25 85 16 18 28 105 16 118 -4 4 -1 26
6 48 16 44 12 51 -42 61 -27 5 -39 1 -68 -25 -20 -17 -48 -33 -63 -36 -15 -3
-45 -10 -67 -17 -22 -6 -67 -12 -100 -12 -33 -1 -71 -7 -83 -15 -16 -8 -40
-10 -74 -6 -45 6 -54 4 -109 -30 -59 -36 -60 -36 -113 -24 -51 11 -57 10 -110
-16 -84 -41 -135 -44 -183 -10 -21 15 -53 48 -71 72 -37 49 -73 67 -114 59
-41 -8 -34 -1 27 28 53 25 60 33 55 66 -3 26 -53 91 -66 86 -7 -3 -19 6 -28
19 -8 13 -24 26 -35 30 -10 3 -21 18 -24 33 -4 18 -20 37 -52 57 -26 16 -60
48 -76 71 -25 37 -39 46 -101 66 -42 14 -76 31 -82 42 -17 29 -40 56 -48 56
-5 0 -8 -10 -8 -22 -1 -22 -2 -21 -16 5 -8 15 -18 27 -22 27 -9 0 -39 101 -46
150 -2 20 -22 76 -44 125 -30 65 -48 92 -69 103 -15 8 -44 29 -64 46 -19 17
-43 36 -52 41 -21 13 -38 98 -40 210 -1 47 -5 85 -9 85 -5 0 -8 8 -7 18 0 10
3 12 6 4 2 -6 9 -10 14 -6 5 3 -4 22 -21 42 -19 23 -30 48 -30 67 0 24 -12 42
-56 84 -31 29 -68 58 -81 64 -31 14 -63 76 -63 122 0 28 4 35 20 35 16 0 11 9
-25 44 -24 25 -57 71 -73 103 -16 32 -54 100 -85 150 -32 51 -56 96 -55 100 4
12 -23 74 -46 107 -11 17 -19 40 -18 53 1 14 -7 28 -22 38 -27 18 -108 130
-100 138 3 3 -5 23 -17 44 -15 26 -20 46 -15 59 7 17 9 15 21 -12 7 -17 27
-51 44 -74 17 -24 31 -53 31 -65 0 -15 21 -42 61 -79 84 -78 121 -75 132 9 7
56 42 172 57 190 10 12 10 18 -1 31 -7 8 -30 59 -51 112 l-38 96 22 23 c34 36
14 38 -33 3 -39 -28 -50 -31 -109 -30 -36 1 -77 -1 -91 -5 -19 -5 -39 1 -76
23 -48 28 -70 33 -170 33 -81 0 -113 -5 -113 -18 0 -7 -9 -13 -21 -13 -11 0
-35 -11 -53 -25 -57 -44 -86 -49 -145 -25 -28 11 -65 20 -81 20 -16 0 -32 5
-36 11 -3 6 -16 8 -27 5 -12 -3 -28 1 -37 9 -8 7 -58 21 -110 31 -111 20 -121
20 -177 10 -38 -7 -43 -6 -43 11 0 38 -18 48 -92 54 -40 3 -86 11 -103 17 -16
6 -43 14 -60 19 -20 6 -31 16 -33 31 -4 26 -17 32 -120 57 -66 16 -76 16 -110
3 -20 -9 -64 -24 -97 -33 -81 -24 -135 -76 -135 -132 0 -22 7 -48 15 -59 21
-28 18 -48 -11 -84 -59 -69 -122 -78 -198 -25 -66 45 -177 83 -283 97 -107 14
-141 35 -162 103 -17 52 -44 75 -89 75 -12 0 -39 8 -60 19 -51 25 -113 35
-209 33 -66 -2 -90 2 -120 18 -46 24 -83 26 -83 4 0 -23 -34 -13 -38 11 -7 34
-22 47 -40 33 -12 -10 -16 -10 -19 0 -3 6 -16 12 -29 12 -25 0 -74 40 -74 60
0 6 15 19 33 30 130 78 159 160 76 215 -22 14 -39 32 -39 41 0 8 18 32 40 53
27 26 40 46 40 64 0 33 -4 33 -55 2 -42 -26 -60 -32 -50 -15 3 6 -1 13 -10 16
-12 5 -13 10 -4 20 9 11 8 15 -5 20 -9 3 -23 4 -31 0 -8 -3 -15 -1 -15 4 0 18
-64 10 -115 -13z m-3542 -3344 c-7 -2 -19 -2 -25 0 -7 3 -2 5 12 5 14 0 19 -2
13 -5z m110 -230 c-7 -2 -19 -2 -25 0 -7 3 -2 5 12 5 14 0 19 -2 13 -5z"/>
<path d="M2978 9204 c-16 -8 -28 -23 -28 -34 0 -11 -4 -20 -10 -20 -5 0 -17
-15 -26 -32 -9 -18 -26 -43 -37 -55 l-20 -23 21 0 c51 0 103 53 90 92 -3 7 8
21 24 30 16 10 28 26 28 38 0 24 -6 24 -42 4z"/>
<path d="M2355 9150 c-6 -10 22 -60 35 -60 10 0 20 26 20 51 0 13 -7 19 -24
19 -14 0 -28 -4 -31 -10z"/>
<path d="M2585 9115 c-11 -8 -32 -15 -47 -15 -34 0 -34 -5 -7 -50 l22 -35 39
44 c37 42 43 61 22 68 -5 2 -19 -3 -29 -12z"/>
<path d="M2454 9059 c-10 -17 12 -32 36 -24 17 5 19 10 9 21 -14 17 -35 18
-45 3z"/>
<path d="M2682 9058 c-25 -25 -6 -68 30 -68 9 0 22 9 28 19 13 25 13 27 -6 45
-19 19 -36 20 -52 4z"/>
<path d="M2340 9010 c-13 -9 -12 -12 4 -25 14 -11 23 -12 33 -4 32 28 -1 53
-37 29z"/>
<path d="M9805 8980 c3 -5 10 -10 16 -10 5 0 9 5 9 10 0 6 -7 10 -16 10 -8 0
-12 -4 -9 -10z"/>
<path d="M1666 7471 c-4 -5 -3 -16 0 -25 5 -14 8 -14 30 1 13 8 24 19 24 24 0
12 -47 12 -54 0z"/>
<path d="M1713 7443 c-18 -6 -16 -23 1 -23 17 0 30 16 19 23 -5 2 -14 2 -20 0z"/>
<path d="M1990 7432 c0 -5 7 -17 15 -28 14 -18 14 -18 15 9 0 17 -5 27 -15 27
-8 0 -15 -4 -15 -8z"/>
<path d="M1800 7394 c0 -11 5 -14 16 -10 9 3 22 6 30 6 9 0 12 5 9 10 -10 17
-55 12 -55 -6z"/>
<path d="M10660 7350 c0 -5 7 -10 16 -10 8 0 12 5 9 10 -3 6 -10 10 -16 10 -5
0 -9 -4 -9 -10z"/>
<path d="M2007 7343 c-14 -13 -6 -33 12 -33 25 0 38 20 20 31 -17 11 -24 11
-32 2z"/>
<path d="M10667 7323 c-11 -10 -8 -43 3 -43 15 0 24 30 13 41 -5 5 -12 6 -16
2z"/>
<path d="M10705 7290 c-3 -5 1 -10 9 -10 9 0 16 5 16 10 0 6 -4 10 -9 10 -6 0
-13 -4 -16 -10z"/>
<path d="M1965 7210 c-4 -6 -3 -16 3 -22 13 -13 23 4 13 21 -7 10 -10 10 -16
1z"/>
<path d="M1886 7195 c-6 -17 19 -45 40 -45 21 0 17 38 -5 50 -25 13 -28 13
-35 -5z"/>
<path d="M11050 7061 c0 -6 5 -13 10 -16 6 -3 10 1 10 9 0 9 -4 16 -10 16 -5
0 -10 -4 -10 -9z"/>
<path d="M11045 7020 c-3 -5 1 -10 9 -10 9 0 16 5 16 10 0 6 -4 10 -9 10 -6 0
-13 -4 -16 -10z"/>
<path d="M12581 6866 c-10 -11 -7 -17 11 -30 28 -20 68 -20 113 -2 63 27 40
46 -55 46 -37 0 -62 -5 -69 -14z"/>
<path d="M12400 6810 c0 -5 12 -10 28 -9 24 0 25 1 7 9 -27 12 -35 12 -35 0z"/>
<path d="M2711 6706 c-8 -10 -9 -16 -1 -21 5 -3 13 1 16 10 9 22 -1 29 -15 11z"/>
<path d="M2650 6702 c0 -4 9 -8 20 -9 11 -1 20 2 20 5 0 4 -9 8 -20 9 -11 1
-20 -2 -20 -5z"/>
<path d="M2675 6670 c-3 -5 -1 -10 4 -10 6 0 11 5 11 10 0 6 -2 10 -4 10 -3 0
-8 -4 -11 -10z"/>
<path d="M2696 6656 c-20 -9 -25 -16 -16 -21 7 -4 16 -2 21 6 7 11 11 11 17 2
5 -8 14 -6 32 7 l25 20 -25 -1 c-14 0 -38 -6 -54 -13z"/>
<path d="M6232 5608 c-7 -7 -12 -16 -12 -22 0 -5 -8 -18 -17 -29 -17 -18 -17
-19 2 -33 28 -20 32 -18 54 25 19 37 19 39 2 55 -13 12 -20 13 -29 4z"/>
<path d="M6046 5301 c-4 -7 -5 -15 -2 -18 9 -9 19 4 14 18 -4 11 -6 11 -12 0z"/>
<path d="M10620 4340 c0 -49 24 -55 34 -9 7 35 1 49 -20 49 -10 0 -14 -12 -14
-40z"/>
<path d="M10562 4248 c-14 -14 -15 -48 -2 -68 5 -8 10 -10 10 -5 0 6 5 2 11
-7 5 -10 14 -18 19 -18 13 0 13 47 0 55 -5 3 -10 15 -10 25 0 24 -14 32 -28
18z"/>
<path d="M10630 3965 c-24 -26 -23 -40 2 -30 17 7 43 55 30 55 -5 0 -19 -11
-32 -25z"/>
<path d="M11590 3689 c0 -5 5 -7 10 -4 6 3 10 8 10 11 0 2 -4 4 -10 4 -5 0
-10 -5 -10 -11z"/>
<path d="M11131 3451 c-16 -29 -13 -46 8 -65 24 -22 34 -7 25 39 -8 43 -20 52
-33 26z"/>
<path d="M11964 3344 c-13 -27 -22 -34 -36 -31 -11 3 -18 2 -16 -1 2 -4 9 -18
16 -32 19 -36 -8 -98 -49 -113 -18 -7 -29 -19 -30 -32 0 -19 -1 -19 -11 3 -21
43 -49 14 -44 -46 3 -33 0 -41 -16 -45 -14 -4 -18 -13 -16 -34 3 -24 0 -28
-19 -26 -30 3 -67 -49 -59 -82 4 -14 2 -25 -4 -25 -5 0 -10 9 -10 20 0 24 -3
24 -38 6 -40 -21 -65 -52 -58 -73 5 -16 4 -15 -9 1 -12 16 -18 17 -27 8 -7 -7
-22 -12 -35 -12 -13 0 -26 -6 -29 -13 -3 -9 -16 -12 -35 -9 -18 3 -36 -2 -47
-11 -9 -9 -35 -17 -57 -19 -39 -3 -40 -4 -43 -42 -2 -24 -17 -58 -38 -89 -25
-36 -33 -57 -29 -72 4 -11 10 -45 14 -75 4 -30 12 -65 19 -77 7 -12 12 -32 12
-45 0 -13 7 -31 14 -41 24 -31 12 -105 -26 -172 -20 -33 -39 -70 -42 -82 -4
-12 -15 -25 -25 -28 -9 -3 -28 -30 -41 -61 -30 -74 -24 -141 19 -209 25 -39
28 -51 19 -68 -36 -69 49 -216 146 -250 23 -8 55 -20 72 -27 28 -12 37 -10 99
18 37 18 78 32 91 32 37 0 93 27 100 47 4 10 18 45 31 78 13 33 40 117 58 186
18 70 43 146 55 168 11 23 29 74 40 114 10 40 48 155 84 257 54 152 66 195 66
247 0 50 4 66 20 81 23 22 37 82 24 109 -4 10 -8 23 -9 28 -1 6 -5 21 -9 34
-14 42 10 46 30 4 32 -65 62 -50 79 39 5 25 1 40 -14 60 -16 20 -22 44 -25
105 -2 46 -11 93 -20 111 -9 17 -16 42 -16 55 0 13 -11 34 -25 47 -14 13 -25
29 -25 36 0 7 -8 19 -17 26 -10 7 -18 19 -19 26 -2 27 -4 32 -14 32 -5 0 -17
-16 -26 -36z"/>
<path d="M11270 3352 c0 -12 23 -32 37 -32 7 0 13 9 13 20 0 15 -7 20 -25 20
-14 0 -25 -4 -25 -8z"/>
<path d="M11193 3323 c9 -9 20 -13 24 -9 4 4 1 11 -7 16 -25 16 -35 11 -17 -7z"/>
<path d="M11390 3255 c0 -30 11 -32 27 -6 10 16 9 20 -3 25 -23 9 -24 8 -24
-19z"/>
<path d="M11845 3197 c-8 -19 -2 -31 13 -26 5 2 6 13 2 24 -7 19 -8 19 -15 2z"/>
<path d="M12083 2688 c-19 -25 -24 -38 -14 -38 11 0 35 39 28 46 -2 3 -9 -1
-14 -8z"/>
<path d="M10020 1995 c1 -26 2 -28 11 -12 8 14 8 22 0 30 -8 8 -11 3 -11 -18z"/>
</g>
</svg>
