<?xml version="1.0" standalone="no"?>
<!DOCTYPE svg PUBLIC "-//W3C//DTD SVG 20010904//EN"
 "http://www.w3.org/TR/2001/REC-SVG-20010904/DTD/svg10.dtd">
<svg version="1.0" xmlns="http://www.w3.org/2000/svg"
 width="1024" height="1024" viewBox="0 0 1024 1024"
 preserveAspectRatio="xMidYMid meet">
<metadata>
Created by potrace 1.15, written by Peter Selinger 2001-2017
</metadata>
<g transform="translate(80.000000,990.000000) scale(0.150000,-0.150000)"
fill="#000000" stroke="none">
<path d="M4875 6361 c-49 -3 -99 -11 -110 -17 -11 -6 -90 -14 -175 -17 -141
-5 -378 -32 -390 -45 -3 -2 1 -7 8 -9 13 -5 17 -33 5 -33 -5 -1 -57 -7 -117
-14 -116 -15 -141 -28 -107 -57 18 -15 48 -22 194 -48 99 -18 141 -65 102
-117 -22 -30 -18 -40 23 -51 l37 -10 -42 -8 c-34 -6 -43 -12 -43 -28 0 -17 5
-19 34 -14 28 4 34 3 29 -9 -3 -8 -15 -14 -28 -14 -14 0 -33 -13 -49 -34 -24
-31 -26 -43 -26 -124 0 -100 22 -190 48 -198 9 -3 36 -14 59 -25 58 -29 94
-19 136 35 18 24 61 74 95 111 l62 68 98 22 c71 16 113 32 152 58 53 35 278
112 345 119 28 3 30 6 33 45 3 45 24 69 93 106 24 14 29 21 20 27 -18 10 -6
60 14 60 23 0 27 18 10 49 -17 34 -15 36 55 57 27 8 78 28 112 45 l63 30 -70
-6 c-38 -3 -80 -8 -92 -11 -12 -2 -25 2 -30 10 -4 7 -50 23 -101 35 -97 22
-233 25 -447 12z"/>
<path d="M3910 6339 c-82 -15 -340 -39 -355 -33 -9 4 -34 -6 -57 -22 -28 -20
-43 -25 -45 -16 -9 25 -23 11 -23 -22 0 -44 30 -68 73 -59 58 12 18 -16 -54
-37 -63 -19 -73 -20 -87 -6 -10 8 -35 16 -57 18 -37 3 -40 1 -45 -27 -4 -25
-10 -30 -35 -30 -22 0 -29 4 -27 17 3 19 -2 23 -45 32 -29 7 -33 4 -48 -24 -9
-18 -15 -34 -12 -36 2 -3 44 -9 93 -15 l89 -10 21 27 c21 26 48 26 38 1 -8
-22 109 -39 179 -28 32 6 71 8 85 5 29 -6 73 19 59 33 -5 4 -53 8 -107 8 -97
0 -98 0 -71 18 21 15 43 17 116 15 50 -1 95 1 102 5 6 4 18 4 27 1 8 -3 59 15
113 41 98 47 178 73 308 100 174 35 195 40 195 45 0 9 -382 8 -430 -1z"/>
<path d="M3323 6240 c-20 -8 -21 -12 -12 -34 11 -23 42 -40 53 -28 3 3 6 20 6
39 0 35 -8 39 -47 23z"/>
<path d="M2927 6224 c-16 -8 -37 -24 -48 -35 -19 -19 -19 -19 7 -19 32 0 96
38 91 53 -5 17 -20 17 -50 1z"/>
<path d="M3137 6233 c-15 -15 -4 -23 48 -38 41 -12 59 -14 75 -5 28 15 19 25
-34 39 -51 13 -80 14 -89 4z"/>
<path d="M2650 6168 c-41 -11 -92 -22 -112 -25 -46 -6 -40 -23 8 -23 21 0 42
-8 54 -20 11 -11 29 -20 39 -20 11 0 33 -8 49 -17 29 -17 33 -17 79 0 26 9 74
17 105 17 41 0 61 5 74 18 17 16 17 17 0 20 -10 2 -15 10 -12 18 8 20 -17 17
-59 -7 -37 -22 -51 -22 -119 4 -22 8 -34 17 -27 21 12 8 15 36 4 35 -5 0 -42
-10 -83 -21z"/>
<path d="M2364 6062 c-6 -4 -13 -14 -16 -23 -4 -9 -36 -27 -71 -40 l-66 -24
19 -25 c17 -23 20 -23 70 -12 29 7 63 21 77 32 41 32 44 24 13 -34 -17 -30
-30 -57 -30 -61 0 -3 14 -11 30 -16 17 -6 30 -17 30 -25 0 -18 23 -18 58 0 53
26 190 36 258 17 25 -7 38 -4 63 11 36 23 36 22 15 52 -10 16 -12 26 -5 31 6
3 11 24 11 47 0 38 -1 40 -26 34 -14 -4 -36 -19 -49 -34 -22 -25 -24 -26 -42
-10 -10 9 -41 20 -69 23 -42 6 -54 12 -68 36 -17 28 -19 29 -104 29 -48 0 -92
-4 -98 -8z"/>
<path d="M2987 6043 c-4 -3 -7 -15 -7 -25 0 -20 -11 -23 -27 -7 -6 6 -16 8
-22 4 -7 -4 0 -17 19 -36 32 -33 43 -33 111 2 24 12 38 27 41 44 5 24 4 25
-52 25 -31 0 -60 -3 -63 -7z"/>
<path d="M3146 6020 c-13 -17 -53 -49 -87 -71 -34 -23 -64 -50 -67 -61 -4 -16
-11 -19 -37 -14 -43 8 -105 -18 -105 -44 0 -18 -7 -20 -62 -21 -94 -2 -111 1
-134 22 -19 18 -25 19 -68 7 -25 -7 -46 -18 -46 -25 0 -10 -25 -13 -102 -12
-82 0 -98 3 -80 11 43 21 35 26 -109 58 -32 7 -69 10 -83 6 -19 -5 -26 -3 -26
9 0 12 -5 13 -27 4 -22 -8 -30 -7 -40 7 -8 11 -18 14 -30 9 -42 -17 -170 -40
-193 -35 -14 3 -41 0 -60 -7 -48 -17 -86 -16 -116 3 -16 11 -61 19 -132 25
-138 10 -264 32 -287 49 -13 10 -155 -20 -275 -58 -52 -17 -111 -33 -130 -37
-65 -12 -71 -16 -65 -36 3 -10 8 -28 11 -39 4 -17 1 -20 -25 -20 -17 0 -31 4
-31 9 0 5 -37 0 -82 -13 -63 -17 -83 -27 -89 -44 -7 -18 -4 -23 16 -28 14 -3
43 -4 65 -2 31 3 39 0 35 -10 -3 -8 -5 -17 -5 -22 0 -4 -21 -10 -47 -13 -128
-13 -230 -56 -266 -111 -27 -41 -22 -57 14 -49 l31 6 -17 -27 c-16 -23 -16
-26 -1 -20 20 8 86 -4 86 -15 0 -8 -390 -161 -412 -161 -7 -1 -24 -7 -38 -15
-25 -14 -25 -14 10 -9 119 19 323 78 394 114 43 22 89 40 101 40 31 0 117 28
139 45 16 12 17 17 6 30 -11 13 -9 15 14 15 14 0 49 9 78 20 28 11 53 18 55
16 2 -2 -15 -15 -37 -30 -22 -14 -40 -28 -40 -30 0 -7 128 24 176 42 48 19 51
19 84 2 19 -10 58 -21 87 -25 74 -10 87 -33 80 -137 l-5 -78 34 0 c32 0 33 -1
23 -27 -7 -17 -8 -55 -4 -97 l6 -69 -25 7 c-39 10 -38 -23 2 -66 27 -28 33
-40 24 -50 -5 -7 -20 -38 -32 -68 -12 -30 -46 -82 -75 -116 -30 -33 -57 -74
-61 -90 -4 -16 -18 -45 -33 -64 -30 -41 -32 -68 -18 -203 l11 -99 42 -29 c48
-33 50 -37 60 -134 4 -38 13 -84 21 -103 13 -31 12 -35 -3 -47 -15 -11 -15
-15 -3 -32 8 -11 28 -32 45 -46 24 -20 30 -33 27 -51 -4 -18 4 -36 26 -63 17
-21 31 -43 31 -50 0 -7 5 -13 10 -13 21 0 22 33 3 74 -11 22 -23 55 -27 73 -4
17 -22 70 -41 117 -25 64 -32 95 -28 121 3 19 7 35 9 35 1 0 14 -4 27 -9 20
-8 25 -18 30 -62 5 -36 17 -69 42 -106 21 -31 35 -65 35 -83 0 -23 15 -48 60
-101 49 -57 60 -76 60 -105 0 -19 -4 -43 -9 -52 -5 -9 -5 -26 -1 -38 10 -25
100 -94 123 -94 9 0 20 -6 24 -14 12 -20 150 -87 181 -88 15 0 44 3 65 7 36 7
40 6 86 -42 47 -49 58 -54 179 -86 30 -8 44 -18 48 -34 3 -12 14 -29 25 -39
10 -9 19 -28 19 -41 0 -31 102 -127 138 -130 14 -1 35 -12 48 -24 27 -26 59
-19 51 11 -6 23 26 55 48 46 8 -3 18 -14 21 -23 3 -10 12 -30 20 -45 17 -32
19 -170 2 -201 -6 -12 -19 -28 -30 -35 -10 -7 -18 -22 -18 -33 0 -11 -10 -24
-22 -30 -32 -14 -72 -118 -59 -152 5 -14 15 -28 20 -32 7 -4 2 -18 -15 -40
-24 -31 -24 -36 -13 -77 7 -24 25 -56 40 -73 15 -16 39 -55 54 -85 15 -30 40
-73 55 -95 15 -22 48 -81 73 -132 46 -91 47 -92 154 -168 59 -43 110 -79 111
-81 2 -1 12 -51 23 -111 12 -74 18 -158 19 -266 0 -116 4 -173 17 -218 14 -52
15 -77 6 -187 -9 -113 -8 -131 7 -162 9 -19 20 -60 24 -90 9 -81 25 -130 42
-130 10 0 13 7 8 25 -4 14 -2 25 4 25 6 0 15 -23 21 -50 14 -64 14 -63 -3 -57
-21 8 -42 -19 -28 -36 7 -8 9 -29 5 -50 -4 -29 -2 -37 9 -37 25 0 41 -26 29
-48 -8 -16 0 -34 45 -100 31 -45 84 -107 118 -140 59 -54 68 -60 161 -84 l98
-25 34 19 c18 11 33 23 33 27 0 4 -25 15 -54 25 -42 12 -65 28 -97 64 -52 59
-61 82 -43 103 8 9 12 23 8 32 -3 9 4 33 17 54 15 24 19 38 11 41 -6 2 -22 12
-36 23 -30 24 -37 85 -11 95 10 4 15 20 15 44 0 21 7 43 15 50 21 17 19 30 -4
30 -20 0 -51 35 -51 57 0 8 13 12 35 11 43 -2 68 18 61 48 -10 37 3 54 39 54
64 0 95 12 110 41 22 42 19 96 -5 109 -11 6 -23 22 -26 35 -3 14 -13 25 -22
25 -12 0 -13 3 -4 12 9 9 16 7 31 -6 11 -10 38 -20 61 -23 33 -5 45 -2 65 17
25 24 75 136 75 170 0 13 7 20 19 20 36 0 66 66 68 150 1 41 2 78 2 81 2 14
143 100 190 116 80 25 113 76 136 207 10 56 19 135 20 177 2 73 4 79 47 140
25 35 62 99 81 142 36 77 36 77 20 122 -12 36 -22 49 -49 60 -19 8 -61 38 -93
66 l-58 53 -84 2 c-46 2 -92 4 -101 4 -11 1 -18 9 -18 23 -1 17 -14 28 -62 50
-55 25 -63 26 -78 12 -23 -21 -30 -19 -30 8 0 14 -11 28 -30 39 -25 14 -29 22
-24 42 4 17 0 28 -14 38 -11 7 -23 31 -27 53 -10 52 -12 56 -63 99 -38 31 -51
36 -95 36 -65 0 -152 43 -166 80 -5 15 -25 33 -48 45 -22 11 -44 28 -49 40 -5
11 -21 26 -36 33 -30 14 -35 27 -15 36 6 3 -10 3 -38 0 -27 -3 -53 -10 -56
-15 -3 -6 -21 -3 -42 6 -20 8 -52 15 -72 15 -42 0 -90 22 -99 46 -5 14 -12 10
-41 -22 -19 -21 -34 -50 -35 -63 0 -20 -2 -22 -15 -11 -11 9 -13 16 -5 24 5 5
10 22 10 38 0 15 7 31 15 35 8 5 11 14 7 20 -6 9 -20 4 -52 -17 -24 -16 -58
-32 -75 -36 -33 -7 -54 -29 -55 -56 0 -10 -13 -32 -28 -50 l-29 -31 -36 29
c-29 22 -45 28 -74 25 -21 -1 -46 -7 -57 -13 -41 -22 -106 48 -106 113 0 19 7
65 17 103 l16 68 -24 19 c-19 15 -42 19 -111 19 l-87 0 26 63 c14 34 34 87 45
117 12 30 25 60 29 66 6 8 -5 13 -37 18 -63 8 -98 -11 -116 -66 -14 -42 -16
-43 -87 -62 -84 -22 -107 -15 -144 43 -44 70 -47 106 -15 200 15 47 28 101 28
122 0 35 4 39 93 98 76 50 100 61 134 61 23 0 45 -4 48 -10 11 -17 48 -11 72
12 30 28 150 36 160 11 4 -11 15 -13 38 -9 25 5 36 1 55 -19 20 -22 23 -30 14
-53 -12 -30 -2 -81 23 -118 40 -62 68 5 58 140 l-6 91 48 52 c26 29 80 72 118
97 39 25 87 62 108 83 32 32 37 43 33 71 -3 23 -1 32 10 32 8 0 22 15 31 34 9
19 21 32 28 30 7 -3 26 12 43 33 22 29 45 43 85 56 29 9 61 17 69 17 21 0 42
26 29 35 -16 9 29 73 59 84 14 5 63 23 110 40 83 30 84 30 56 7 -39 -32 -30
-59 14 -46 18 5 37 14 44 19 6 5 32 15 58 21 26 7 54 21 64 31 9 10 25 19 36
19 13 0 18 7 18 25 0 15 -6 25 -14 25 -8 0 -23 -11 -34 -25 -27 -34 -85 -35
-107 -2 -14 22 -13 27 11 71 22 40 24 50 13 57 -23 15 -46 10 -117 -21 l-67
-30 35 30 c19 17 41 30 49 30 8 0 23 8 34 18 15 14 45 18 151 23 122 5 135 8
194 37 34 18 62 29 62 24 0 -4 -34 -41 -75 -82 -41 -41 -75 -78 -75 -82 0 -5
29 -8 64 -8 36 0 68 -5 71 -11 4 -6 13 -8 21 -5 7 3 18 -2 23 -11 8 -15 11
-15 35 0 21 14 24 21 16 41 -5 13 -6 33 -3 45 4 18 1 21 -23 21 -36 0 -61 42
-38 61 8 6 11 15 8 20 -3 5 4 22 15 38 20 27 20 31 5 75 -9 26 -25 51 -38 57
-11 6 -33 23 -48 37 -21 19 -25 29 -17 43 10 20 -8 159 -22 159 -4 0 -20 -11
-36 -24 -15 -13 -47 -33 -69 -44 -41 -21 -42 -21 -62 -2 -23 21 -20 57 6 77
13 11 11 14 -11 22 -15 6 -40 25 -56 43 -21 23 -33 30 -40 22 -7 -6 -33 -8
-67 -4 -55 6 -56 6 -80 -29 -13 -20 -24 -43 -24 -51 0 -9 -18 -34 -40 -55 -33
-32 -37 -41 -25 -48 18 -10 19 -27 4 -60 -12 -26 -101 -83 -139 -89 -21 -3
-27 -11 -39 -64 -12 -53 -18 -63 -51 -82 l-38 -21 -6 23 c-3 13 -9 31 -12 40
-4 12 -2 15 9 10 8 -3 18 -1 22 5 3 6 -1 11 -9 11 -21 0 -20 18 4 58 l20 32
-33 0 c-17 1 -50 9 -72 20 -22 11 -46 19 -52 20 -7 0 -13 4 -13 10 0 17 -50
43 -81 42 -27 -1 -29 2 -29 39 0 30 -4 39 -17 39 -37 0 55 73 158 125 58 29
111 60 118 69 8 9 22 16 31 16 26 0 110 37 147 66 17 13 35 24 39 24 13 0 -59
-71 -81 -80 -16 -7 -17 -9 -3 -9 9 -1 18 -8 20 -16 3 -13 9 -12 42 6 32 17 44
19 63 10 33 -15 63 -14 63 3 0 7 -20 30 -45 50 -50 41 -59 62 -20 44 19 -9 28
-9 37 0 7 7 21 12 33 12 27 0 85 36 85 53 0 8 9 22 20 32 14 13 17 22 10 29
-21 21 -8 26 73 26 66 -1 86 -4 105 -20 28 -24 21 -40 -18 -40 -30 0 -64 -25
-55 -41 10 -15 48 -10 69 10 31 29 60 31 64 4 3 -18 -6 -27 -42 -45 -31 -15
-46 -28 -46 -41 0 -18 -5 -19 -60 -14 -47 4 -65 2 -81 -12 -18 -15 -19 -18 -6
-29 12 -10 23 -9 56 4 40 16 43 16 62 -2 12 -11 27 -31 34 -45 11 -20 30 -30
84 -46 78 -23 88 -17 50 31 -26 33 -11 33 38 1 36 -25 37 -25 44 -6 4 10 16
24 25 29 19 10 19 11 -31 78 -7 10 -4 19 8 31 17 17 19 17 45 -15 29 -34 56
-42 66 -17 3 8 15 15 26 15 12 0 30 8 41 19 20 18 20 18 -17 50 -23 20 -44 31
-55 28 -28 -7 -45 19 -25 38 9 9 16 22 16 29 0 17 -33 46 -52 46 -9 0 -18 7
-22 15 -3 8 -16 15 -30 15 -15 0 -34 12 -52 32 -25 31 -32 33 -108 39 -87 7
-153 -6 -187 -37 -16 -15 -19 -15 -19 -2 0 9 10 23 23 31 21 16 22 16 1 16
-37 1 -108 -29 -146 -62 -30 -27 -35 -36 -27 -54 6 -17 16 -23 40 -23 24 0 30
-3 25 -16 -3 -9 -6 -17 -6 -19 0 -7 -98 -73 -118 -79 -27 -9 -31 18 -6 32 22
12 14 46 -13 50 -17 3 -22 11 -25 50 -6 58 2 69 55 77 23 4 60 18 82 31 l40
24 -72 0 c-67 0 -73 -2 -97 -30z"/>
<path d="M2338 3730 c-16 -12 -28 -30 -28 -41 0 -26 15 -24 37 4 30 38 40 39
106 16 72 -25 97 -44 97 -73 0 -41 12 -46 83 -39 37 3 75 11 84 18 15 11 12
14 -19 24 -19 6 -48 25 -63 41 -35 36 -99 57 -198 65 -63 5 -75 3 -99 -15z"/>
<path d="M2775 3588 c7 -31 -4 -46 -39 -50 -50 -5 -44 -28 8 -28 25 0 46 -4
46 -10 0 -16 32 -11 45 7 8 10 32 18 69 21 31 2 56 8 56 13 0 4 -15 19 -33 33
-23 18 -44 25 -72 24 -22 -1 -50 2 -63 6 -20 7 -22 5 -17 -16z"/>
</g>
</svg>
