<?xml version="1.0" encoding="UTF-8" standalone="no"?>
<svg
   xmlns:dc="http://purl.org/dc/elements/1.1/"
   xmlns:cc="http://creativecommons.org/ns#"
   xmlns:rdf="http://www.w3.org/1999/02/22-rdf-syntax-ns#"
   xmlns:svg="http://www.w3.org/2000/svg"
   xmlns="http://www.w3.org/2000/svg"
   xmlns:sodipodi="http://sodipodi.sourceforge.net/DTD/sodipodi-0.dtd"
   xmlns:inkscape="http://www.inkscape.org/namespaces/inkscape"
   version="1.0"
   width="1024.000000pt" height="1024.000000pt" viewBox="0 0 1024.000000 1024.000000"
   id="svg2"
   inkscape:version="0.91 r13725"
   sodipodi:docname="Flag_of_the_Czech_Republic (1).svg">
  <metadata
     id="metadata14">
    <rdf:RDF>
      <cc:Work
         rdf:about="">
        <dc:format>image/svg+xml</dc:format>
        <dc:type
           rdf:resource="http://purl.org/dc/dcmitype/StillImage" />
        <dc:title></dc:title>
      </cc:Work>
    </rdf:RDF>
  </metadata>
  <g transform="translate(20.000000,240.000000) scale(0.78,0.78)">
  <defs
     id="defs12" />
  <sodipodi:namedview
     pagecolor="#ffffff"
     bordercolor="#666666"
     borderopacity="1"
     objecttolerance="10"
     gridtolerance="10"
     guidetolerance="10"
     inkscape:pageopacity="0"
     inkscape:pageshadow="2"
     inkscape:window-width="1600"
     inkscape:window-height="837"
     id="namedview10"
     showgrid="false"
     fit-margin-top="0"
     fit-margin-left="0"
     fit-margin-right="0"
     fit-margin-bottom="0"
     inkscape:zoom="0.85839035"
     inkscape:cx="678.36303"
     inkscape:cy="343.79796"
     inkscape:window-x="-8"
     inkscape:window-y="-8"
     inkscape:window-maximized="1"
     inkscape:current-layer="svg2" />
  <path
     style="fill:#000000;stroke:#000000;stroke-width:1.5;stroke-miterlimit:0;stroke-dasharray:none;stroke-opacity:1"
     d="m 266.05664,0.74987047 -1.05078,0.0195313 -0.98242,0.60937498 c -0.2579,0.98303 -1.21676,2.2286369 -1.97266,2.8730469 l 0.46289,1.78125 -0.58398,0.9394531 0.0469,1.2070313 c -0.7425,0.17453 -1.86039,0.7041012 -2.36719,1.3007813 l 0.90234,1.3320307 -1.38476,1.476562 0.62109,1.134766 c 1.0079,0.0835 1.6979,0.598048 2.5,1.117188 l 0.0664,0.585937 c 0.9811,0.0269 2.58409,-0.819627 3.33399,-1.373047 l 1.47851,0.06055 0.36524,1.447266 -0.57813,0.480469 c -0.6276,-0.0283 -1.65875,0.256651 -2.12695,0.701171 l 0.19726,1.015625 1.06641,0.601563 0.0703,1.371094 c 0.9765,0.49971 2.01403,0.0081 2.89063,0.285156 2.882,0.91142 0.54544,1.232036 5.37304,1.660156 l 1.41212,0.123044 c 1.8189,0.83832 0.58234,3.607922 -0.38086,4.638672 l -0.0469,2.02539 -0.52735,0.816407 c -0.7186,0.56983 -2.7122,0.401162 -3.5039,0.195312 l -0.42774,0.701172 c -1.6281,0.74437 -2.93195,0.462744 -4.56445,0.714844 -1.0198,0.15663 -2.11163,1.000715 -3.17773,0.390625 l -1.54297,-1.429688 c -1.1838,0.082 -1.68388,0.786259 -2.64258,1.105469 -0.155,0.0507 -1.51286,0.18743 -1.75586,0.21875 -0.2117,0.0269 -0.80411,0.559714 -1.00391,0.714844 l 0.50781,0.544922 c 0.2266,1.34849 -2.12065,4.551987 -3.37305,5.054687 -1.4999,0.60265 -3.92803,1.019501 -5.58593,0.994141 -1.5192,1.25452 -3.54846,2.454939 -5.38086,3.167969 -0.1729,0.0671 -0.75202,-0.02954 -0.91602,0.03906 l -1.99023,1.175781 c -0.02,0.01685 -0.0369,0.04469 -0.0566,0.0625 l 387.17773,258.119143 -3,2 300.1875,0 c -0.006,-0.16269 0.24188,-2.64054 0.10352,-3.33984 -0.60754,-0.64868 -1.89661,-1.27615 -2.78516,-1.33985 l -2.60352,0.74024 c -0.68438,1.33702 -1.98291,3.25731 -3.56054,3.56054 -0.16964,-0.86891 -1.87721,-2.15501 -2.60742,-2.39453 -1.3596,-0.44591 -3.36098,-0.27583 -4.85743,-0.51172 l -2.69726,-0.42578 c 0.62537,-1.34066 1.20327,-2.70085 1.77734,-4.06445 -1.18302,-1.6093 -0.62327,-2.40851 -0.75976,-4.11719 l -0.41797,-0.16406 c -0.83469,0.30941 -1.75806,1.36067 -2.54688,1.39453 -0.91258,-0.28102 -1.68264,-2.13519 -1.93164,-2.97461 l -0.77539,-0.45508 -0.78516,0.19532 c -2.82107,-2.72755 -3.57026,-7.35165 -4.91015,-10.88477 -0.27449,-0.72365 -0.75142,-1.53058 -0.94141,-2.26953 -0.55769,-2.16733 -0.53129,-4.6641 -1.47265,-6.73242 -0.28357,-0.62319 -2.33229,-1.98161 -2.88086,-2.24024 -0.29337,-0.1385 -1.55503,-0.51736 -1.73047,-0.63476 -1.06071,-0.71073 -1.44705,-2.68797 -2.74805,-2.9668 -1.26387,-0.0308 -5.45173,1.04902 -6.4043,1.79688 -0.0424,2.34242 -1.49208,3.27831 -3.76172,3.52929 -1.17575,0.5857 -1.1156,4.23214 -1.17968,5.39844 -0.23404,0.20057 -0.63336,0.2669 -0.90821,0.31641 -1.41054,0.2548 -2.6996,0.87015 -4.01953,1.42382 -0.3407,-0.10557 -0.80143,-0.55971 -1.01367,-0.82617 -1.11169,-0.59734 -2.47584,0.26445 -3.66797,0.13086 l -0.75976,0.45899 c -3.03842,-1.29953 -2.94022,2.97664 -5.3711,3.41601 -0.40186,0.50379 -0.16284,2.13367 -0.0176,2.67969 -0.98901,0.56895 -2.00288,3.83268 -2.00976,4.95312 0.97337,1.27914 0.57729,2.37173 0.21875,3.76954 -0.57042,0.0703 -1.15286,0.0768 -1.72656,0.0918 -0.92787,0.47066 -2.00341,1.69561 -2.42383,2.63477 0.66431,1.32974 1.29763,2.11883 1.01953,3.76562 l -0.43359,0.36524 c -0.52235,0.20384 -1.43629,0.10676 -1.94336,-0.0898 -0.62286,0.58716 -1.81773,1.20329 -2.67969,1.29102 -0.34545,-0.30067 -0.93986,-0.54885 -1.39453,-0.5918 -0.53654,0.59297 -1.39434,1.14665 -2.13477,1.4375 -0.73382,-0.0237 -1.83869,-0.71366 -2.32031,-1.22656 l -0.86914,-0.0547 c -0.22383,-0.39896 -0.6068,-0.94438 -0.98828,-1.21484 l -1.6836,-0.16992 c -0.25593,0.31632 -0.93908,0.89596 -1.38281,0.91015 l -0.89844,-0.31054 -0.69531,0.39062 c -0.30906,0.86817 -0.76258,1.88717 -1.35156,2.60938 -1.79566,1.10805 -2.68244,-0.0663 -4.27539,0 -1.20632,0.0502 -1.90173,0.90394 -3.21289,-0.0899 l -0.78711,-1.23437 c -0.58282,-2.25543 1.40053,-2.63581 1.86719,-4.16211 -0.33852,-0.7171 -0.86941,-1.34638 -1.19922,-2.04492 -0.33998,-0.72038 -0.50934,-1.59193 -0.83008,-2.3418 l -0.61133,-0.0742 -0.32031,-0.55859 c -0.0848,-0.77208 0.22046,-1.88343 0.48437,-2.5918 -1.69087,-3.59646 0.10144,-3.28233 0.30274,-5.78711 -0.50598,-1.37633 -0.79606,-1.78575 -2.20117,-2.45117 l -1.3086,-0.61914 c -2.15826,-0.37312 -4.55335,0.98874 -6.75781,0.70117 -1.71527,-0.22423 -1.05654,-1.16086 -3.87109,-0.55078 l -0.12696,-0.0996 -0.33398,-0.36524 c 0.005,-0.001 0.0211,-0.0107 0.0234,-0.0117 -0.32652,-0.0835 -0.54221,-1.57309 -0.52735,-1.85352 0.26547,-1.16056 1.53983,-1.56756 1.66797,-2.77734 -0.57096,-1.71545 -2.0808,-2.88797 -2.59375,-4.52735 -0.0492,-0.15662 -1.0417,-4.3886 -1.0625,-4.60937 -0.0671,-0.66231 0.0551,-1.36744 0,-2.03125 -0.23855,-2.80738 -1.12524,-5.70854 -1.69922,-8.47266 -0.24152,-1.15756 -0.11666,-2.81371 -0.87109,-3.77734 -0.98401,-0.79807 -2.26929,-1.28947 -3.45899,-1.70117 -1.4686,0.21182 -3.18566,1.44764 -4.57226,1.29101 -4.0627,-1.81241 -2.36663,-3.67227 -4.29883,-5.27734 l -1.31445,-0.33789 c -0.3429,0.34458 -1.04511,0.71085 -1.53711,0.74218 -0.4428,-0.26701 -0.87928,-0.55311 -1.29688,-0.85742 l -2.08984,-0.0586 c 0.167,1.19335 0.36049,2.38856 0.49609,3.58789 l -1.22461,-0.39648 -0.58398,-0.84571 c -0.665,-0.96513 -1.46037,-4.41372 -1.57227,-5.59961 -0.1193,-1.26944 0.46398,-1.25067 -0.0488,-2.89453 l -0.58008,-1.88867 c -1.4075,-4.54819 -3.25304,-8.72765 -5.86524,-12.70898 -0.027,-0.0388 -0.13103,-1.27474 -0.14453,-1.39258 1.0527,-1.61403 2.33016,-3.00612 3.41406,-4.5918 l -0.14648,-0.99805 -0.96289,-0.51953 -2.25586,0.48047 -0.45117,-0.39648 c -0.6693,-1.00242 1.05628,-6.54734 1.30078,-7.55274 l -0.8125,-2.11523 c -0.6038,-0.16856 -1.48727,-0.0809 -2.07617,0.0742 l -1.00391,-0.91407 -0.60937,0.23633 c -0.1178,1.09044 -0.60298,2.7171 -1.30079,3.5957 -5.28229,1.05315 -5.04776,-0.1364 -9.32226,-2.45898 -1.6743,-0.91143 -3.21443,-1.52679 -4.76953,-2.64258 -1.0019,-0.0432 -2.06574,-0.009 -3.05274,-0.16992 -3.0936,-0.50868 -2.56979,0.10001 -4.49609,-1.71094 l -2.29297,-0.21093 -0.1582,0.63085 c 0.7395,0.66531 1.25048,1.38927 1.86328,2.14258 -1.9084,0.9517 -1.90746,1.66565 -3.56836,2.20118 -1.5446,-0.85624 -3.05365,-1.77402 -4.37305,-2.9629 0.031,-1.4738 -0.20837,-3.79489 -0.83008,-5.15234 -1.39549,-0.59071 -3.87265,-1.22527 -5.31445,-0.375 l -1.4375,-0.77148 c -1.0929,-1.65579 0.009,-3.80805 -1.13086,-5.38477 -1.0094,-0.65784 -2.10384,-1.14771 -3.33984,-0.83594 -0.8423,0.6459 -1.60514,1.06869 -1.93164,2.16211 l 0.48633,0.73633 -0.9961,0.75391 -0.84765,-0.30469 -0.47266,-0.60352 -0.8457,-0.30468 -0.65039,-0.98243 -1.04102,0.3711 c -1.6743,-0.68767 -1.69843,-0.90944 -3.08203,-2.16992 -0.5412,-1.14563 0.081,-2.45718 0,-3.66993 -0.5039,-0.3058 -1.60993,-0.67558 -1.76953,-1.25585 0.032,-0.52656 0.0837,-1.05398 0.0957,-1.58204 -1.5401,0.0104 -4.25897,-2.68718 -5.42187,-3.62695 -1.3821,0.0209 -2.86387,0.38296 -3.91797,1.32422 -0.2728,0.91441 -0.68802,2.62702 -0.54492,3.59961 l 0.74414,0.57422 c 1.242,-0.8637 2.38836,-1.22546 3.94336,-1.07032 0.489,1.60209 0.84928,4.37517 0.11718,5.88477 -2.1693,0.42215 -3.75152,-1.42705 -5.41992,-2.44141 l -0.67187,0.0703 c -0.8408,1.03524 -7.28979,5.92296 -8.33789,6.51367 -0.829,0.4669 -1.88814,0.96094 -2.86914,0.96094 -0.9647,0 -1.90855,0.30078 -2.81055,0.30078 -1.6668,0 -1.87296,-0.55892 -2.88086,-1.00196 -1.6757,-0.73839 -2.95404,-0.74902 -4.27344,-2.26757 -1.1361,-1.30822 -0.32247,-1.75824 -2.26367,-2.65625 l -0.49219,-1.07032 -1.75,-0.87695 c -0.7202,-0.97557 -0.28312,-1.42665 -0.45312,-2.0293 -0.1267,-0.45049 -0.56475,-0.8967 -0.68555,-1.3457 -0.057,-0.20884 0.0635,-0.87645 0.0195,-1.12109 -0.1909,-1.04568 -0.95815,-2.28098 -1.62305,-3.08203 l 0.01,-0.78516 -0.5625,-0.53125 -0.30078,-1.33399 -0.68164,-0.48242 c -0.6112,-1.40071 -1.28159,-2.65758 -1.45899,-4.18359 -1.7891,-0.38038 -3.47722,-1.21638 -4.89062,-2.35156 l -1.74414,0.18945 -0.0586,0.66602 -0.49218,0.44531 -1.82032,-0.45508 c -0.8349,-0.70259 -2.00941,-2.3069 -2.16601,-3.43164 -1.4894,-0.81 -5.77961,-3.3768 -6.07031,-5.36523 l 0.24804,-1.33594 c 1.6579,-0.54447 3.61035,-0.74417 5.33985,-0.85156 0.8945,-1.20232 2.91697,-0.70714 4.23047,-2.16602 0.6754,0.33563 1.62555,0.53733 2.37695,0.52539 l 1.41601,-0.68164 c 0.398,-0.45497 0.35716,-2.47642 1.06836,-3.65039 l 0.92774,-0.23047 c 0.6128,0.27745 1.31683,0.58138 1.98633,0.69922 l 2.22265,-0.76563 c 0.1118,-1.53049 0.77916,-5.12781 -0.18554,-6.27343 -2.0172,-0.84282 -2.76941,-1.85583 -3.19141,-3.97852 0.4055,-1.42457 0.95567,-2.83134 1.70117,-4.11719 0.398,-0.68916 1.13429,-1.10747 1.27149,-1.97265 l -0.54102,-1.11914 -2.06445,-0.16993 c -0.8528,-2.15103 -3.53061,-3.0718 -5.41211,-4.26367 l -0.61133,0.5918 0.75586,4.11133 c -1.3269,1.56331 -3.00172,2.75152 -4.10352,4.51172 -0.8618,0.22226 -1.80373,0.39971 -2.64453,0.68164 -1.0497,0.35055 -2.09746,1.37785 -3.25586,1.27343 -0.5904,-0.55491 -1.14114,-1.24418 -1.58984,-1.91992 -4.434,0.92933 -4.75036,1.60911 -9.78516,0.29492 -2.1157,0.45945 -4.10239,0.92911 -6.12109,1.20508 -0.4651,0.90546 -0.89274,1.83527 -1.30274,2.76758 -0.6038,0.13724 -1.84991,0.27523 -2.44921,0.0156 0.069,-1.03971 -0.11413,-2.38999 -0.54493,-3.34766 l -1.55664,-0.48047 -1.02734,0.50391 -0.34766,-0.61524 c 0.7037,-0.40276 1.31114,-0.7252 2.05664,-1.01758 l -0.0801,-0.65039 -0.4668,-0.46875 c -0.7082,-0.44751 -1.98953,0.2103 -2.67383,0.43555 -0.9169,0.30282 -2.60748,0.0891 -3.30078,0.89453 -0.073,0.89651 0.0753,2.15048 0.5,2.95899 l -0.22266,0.41797 -0.70312,-0.17969 -0.51367,-0.86133 -1.29102,-0.50977 -0.4668,-2.70312 c 0.65,-1.41861 1.07538,-2.87699 1.51368,-4.36719 l -0.51563,-0.86133 -1.37695,-0.10547 -1.05274,-0.79882 0.0703,-0.53125 c 1.0496,-0.0358 2.20726,-0.29086 3.19726,-0.625 -0.331,-0.43558 -0.97248,-0.84614 -1.48828,-1.01172 -1.6714,0.8264 -3.58123,1.39083 -5.36133,1.92187 -3.2353,0.22972 -10.81795,-6.80687 -13.46875,-9.47851 l 0.0547,-0.66407 0.8457,-0.88671 0.83985,0.16992 -0.73438,-1.49024 c -0.8021,0.15065 -2.0295,0.18429 -2.62891,0.82422 l -1.02539,-0.53515 -1.23437,1.06054 -0.73633,-0.43945 -0.91211,0.36914 -1.88086,-1.88086 -1.7832,-0.0547 c -0.2654,-0.36546 -0.21225,-1.17949 -0.0605,-1.57031 l -0.97265,-1.19531 c -1.801,0.48331 -4.1005,0.76899 -5.5586,-0.66602 l -1.41797,0.68946 c -0.3548,-0.0328 -2.0228,-2.07609 -2.5,-2.46094 -1.0212,-0.0612 -2.76695,0.10495 -3.72265,-0.21875 -3.216,-1.09043 -6.47549,-2.50509 -9.21289,-4.55469 -1.0242,-0.0925 -2.84922,0.38202 -3.54102,1.21289 -0.7142,1.84822 -1.78562,3.57662 -2.73242,5.31445 0.817,1.26048 4.19674,3.36665 5.61914,4.31836 1.7011,2.9282 -0.50345,4.321 2.68555,8.08008 -0.1103,0.86518 -0.13812,1.76706 -0.0742,2.63672 l 1.64648,2.16602 c 2.0128,0.51315 7.24987,2.19845 8.04297,4.16601 l 0.58008,3.47656 c -0.1625,0.74734 -0.82554,2.20024 -1.58594,2.55079 0.4935,1.61849 1.44565,3.30241 2.37305,4.70312 -0.3191,0.71751 -0.6872,1.42881 -1.0957,2.10156 l -1.58008,0.44336 c -1.807,-1.02628 -2.17079,-3.21886 -3.21289,-4.86718 -0.6769,0.14021 -1.55643,0.80323 -2.01563,1.29101 l 0.33399,1.5293 c -0.4055,0.47585 -1.74736,0.92273 -2.31836,1.06445 -2.3915,-0.50122 -3.60002,-0.89464 -5.91993,0.57617 -0.3697,1.51557 -1.00094,3.17097 -2.33984,4.08985 l -1.8418,-0.56641 c -0.1492,-0.56087 -0.73759,-1.45444 -1.30859,-1.67969 -0.8305,0.45646 -1.77248,1.21065 -2.33008,1.98633 l -0.33789,1.61523 -1.875,0.22461 c -0.3623,0.62503 -0.99061,1.44099 -1.22461,2.11524 -0.3534,1.02181 -0.49574,2.29648 -0.93554,3.26758 -0.6381,1.40816 -2.15504,3.26406 -3.39844,4.21875 l -2.16016,0.1289 c -1.0719,2.09584 -2.21009,4.16661 -3.40429,6.19532 -1.60731,0.46839 -2.2128,0.35998 -3.8379,0.10937 -1.2822,-0.19691 -2.29076,-0.89656 -3.19726,-1.86914 l -2.17188,0.004 c -1.2659,-1.26347 -2.72319,-2.41778 -3.27929,-4.19141 l -2.86719,-1.0918 -0.43945,-0.61133 0.63671,-1.30468 -0.18945,-0.52344 c -0.5591,-0.35503 -2.73731,-1.88647 -2.79101,-2.60547 0.7842,-2.20324 -0.23016,-2.69682 -0.44336,-4.26758 -0.086,-0.64441 0.19138,-2.65367 0.61328,-3.25781 l -0.8457,-1.40039 0.21484,-0.77148 c 0.067,-0.92933 -2.01283,-2.5891 -2.70313,-3.28125 l -0.77539,0 -0.92968,-0.60547 -1.21485,-3.0625 c -2.3795,-0.5206 -2.12872,-1.89308 -3.41992,-3.49219 -0.4398,-0.54745 -1.19595,-0.83513 -1.68945,-1.47656 -0.6321,-2.08689 -0.71902,-1.39885 -1.79102,-2.92188 -0.668,-0.94573 -1.23482,-2.07673 -1.82812,-3.07617 -0.034,-0.0597 -0.57952,-0.48067 -0.66602,-0.55078 -1.7846,-0.10592 -3.56896,-0.0193 -5.34766,-0.2207 -0.893,-1.30374 -2.387,-2.8434 -3.0371,-4.21875 -0.72461,-1.53645 0.42671,-3.38273 -0.74219,-5.42188 -1.3418,-0.98005 -4.47343,-1.15761 -6.01953,-0.94726 l -3.23047,2.38281 c -0.2818,-0.59072 -1.0911,-1.54174 -1.75,-1.7461 l -0.40821,-1 0.34766,-0.43945 -1.00391,-1.31641 -1.25,-0.0977 0.32422,-1.62305 -0.87109,-1.33594 -1.24609,-0.0996 -0.8711,0.63477 -1.13086,-0.25 c -0.4145,-3.61588 -1.73911,-2.61681 -2.19531,-5.89258 0.2669,-0.38336 0.55328,-0.76095 0.80078,-1.15625 l 1.23047,-0.0273 1.08594,0.91015 1.23047,-0.0234 0.31445,-0.69532 -0.76367,-0.56054 -0.4668,-1.38477 0.81641,-1.02734 1.38476,0.0918 0.2793,-0.95703 0.86133,0.28125 0.21484,-0.42187 -0.49219,-0.59375 c 0.4279,-0.3431 1.35034,-0.46507 1.86914,-0.3711 l 0.34375,-1.48632 1.55664,0.32422 c 1.0272,-0.32668 2.98607,-1.16379 3.69727,-2.04688 l -0.22851,-0.62305 -0.89649,-0.54687 0.14453,-0.93359 1.1582,-0.54102 c 0.9378,0.95767 3.0099,1.89558 4.3711,1.81055 2.138,-0.55938 2.46556,-3.60358 5.10156,-4.84766 0.1864,-0.61012 0.42055,-2.169509 0.0312,-2.761719 0.7246,-0.63247 1.31916,-1.336181 1.91406,-2.082031 -0.4041,-0.920382 -0.64266,-2.06305 -0.69336,-3.0625 l 0.48633,-0.455078 1.13477,0.25 c 0.8558,-0.42961 2.53449,-0.819433 3.49609,-0.570313 0.2922,-0.65934 -0.031,-1.5895 -0.29297,-2.15039 -1.6101,-3.43836 -3.3443,-3.694155 -5.6582,-6.171875 -1.5774,-1.69009 -2.33254,-3.833598 -4.65234,-4.804688 l -0.86524,-2.255859 c -3.6901,-2.48667 -4.57302,-0.07717 -7.79492,-0.591797 -1.5103,-1.21723 -3.84772,-2.022401 -5.79492,-2.025391 -1.4104,1.04419 -1.86846,4.372017 -1.91016,6.029297 l -0.9414,1.171875 c -0.893,-0.1074 -2.3589,0.610542 -3,1.169922 -1.3373,-1.71247 -3.86817,-5.734195 -6.38477,-5.228515 l -1.38086,-1.003907 c -1.0392,-0.0298 -2.04451,-0.05537 -3.07031,-0.259765 -0.1372,0.22225 -1.13347,1.90305 -1.23047,2 -0.6187,0.61457 -1.7009,1.190068 -2.2168,1.861328 -0.9303,1.21127 -0.99844,4.731111 -1.86914,5.238281 l -1.17383,-0.503906 -1.72656,1.404297 c -1.1749,-0.34011 -2.38992,-0.272418 -3.57812,-0.08594 -0.5188,-0.45197 -0.96745,-0.917847 -1.37305,-1.466797 1.1973,-1.56329 1.20517,-3.984617 1.45117,-5.841797 0.2907,-2.19129 -0.91624,-5.177537 -1.71094,-7.304687 -1.7995,-1.51706 -4.28444,-0.867598 -6.24804,-0.08594 -0.5188,0.20734 -0.98696,0.692125 -1.50586,0.896485 -0.1908,0.0761 -0.90289,0.08766 -1.15039,0.15625 -1.0183,0.28045 -2.03807,0.671256 -3.04297,1.003906 l -0.69922,0.996094 -2.36328,-0.529297 c 0.3399,-2.16296 -0.81439,-4.58135 -1.40039,-6.599609 -1.2404,-0.349061 -2.09147,-2.065517 -2.63867,-3.091797 0.7231,-2.80887 -2.18892,-6.309413 -4.00782,-4.664063 -0.1506,0.67126 -0.92355,1.524319 -1.50195,1.855469 -0.5293,0.1283 -1.44198,-0.06737 -1.85938,-0.423828 -1.3389,-0.0612 -2.71325,0.795412 -3.50195,1.826172 l -1.42383,-0.746094 -3.06445,0.140625 c -0.3339,-0.18944 -1.90134,-0.945188 -1.96094,-1.304688 l 0.19141,-1.18164 c -0.9781,-1.15606 -4.64813,-1.907931 -6.11524,-1.869141 -2.9907,-3.30262 -4.48795,-3.015617 -8.46874,-2.554687 -0.9244,-1.03673 -3.63076,-0.711102 -4.75196,-0.294922 l -1.45898,-1.865235 c -0.9184,-0.62652 -1.39828,1.110714 -4.42188,-0.753906 -0.4562,-0.28194 -1.09285,-0.743234 -1.28515,-1.308594 l -1.24805,-0.46875 -0.74805,-2.037109 c -1.3046,-0.45497 -2.16413,0.662756 -3.05273,1.441406 -0.055,2.46281 -1.84287,3.66526 -3.20117,5.44336 -1.0019,-0.26999 -1.53669,-0.391651 -2.36719,-0.931641 -0.5814,-1.32314 -0.12236,-2.576132 -1.22266,-3.826172 1.1927,-2.94014 0.68182,-6.186402 -1.33398,-8.607422 -0.049,-0.0612 -0.19748,-0.11597 -0.26758,-0.15625 -1.5789,-0.9144 -3.20722,-2.101808 -5.04102,-2.386719 -0.8826,-1.84823 -2.36757,-3.708303 -3.76757,-5.183593 0.5666,-1.16949 -0.9084,-3.919255 -1.3125,-4.958985 l 0.49218,-2.595703 c 1.0272,-1.12174 2.10336,-2.149507 2.75196,-3.554687 -1.7832,-1.70351 -2.09965,-1.085858 -2.09375,-3.585938 l -0.62305,-0.986328 -2.64258,-0.166016 -0.79492,-0.664062 -0.61328,-2.476562 -4.80469,1.755859 -0.15625,0.935547 -0.60351,0.640625 c -0.6218,-0.0835 -1.57055,-0.436229 -2.03125,-0.886719 0,-2.10182 0.13142,-4.0704564 -0.26368,-6.1230464 -0.7633,0.12233 -3.18958,0.64139 -3.73828,1.25 l -0.93359,2.3066404 1.02148,0.980468 -0.91406,0.685547 c -0.823,-0.24912 -4.10875,-1.032076 -4.56055,-1.691406 l -0.17187,-0.767578 1.05469,-1.5039057 -0.47657,-0.3808594 -2.64843,-0.1601563 -2.10157,-1.4296875 -0.53906,1.6015625 c -0.835,0.28343 -1.66701,0.5930394 -2.50781,0.8496094 l -0.39844,-0.7050781 c 0.3086,-0.42662 -0.0551,-1.4280144 -0.16211,-1.9277344 l -0.4707,-0.4648438 -0.0449,-0.7050781 -1.58399,1.1953125 -0.17773,1.4765625 c -0.167,0.31922 -2.63608,0.7523669 -2.89258,0.8105469 l -1.95117,3.5624995 1.03125,1.226563 c 0.5502,0.1402 1.47073,-0.205548 1.86133,-0.585938 l 1.64648,0.128906 c 0.086,0.96512 1.02084,2.463809 1.58594,3.199219 l -0.95313,0.644531 c -0.4309,0.37291 0.27852,3.131795 0.38282,3.703125 -1.4327,1.88251 -1.86059,2.86994 -4.05079,3.69336 l 0.26758,1.064453 c 0.6247,0.48181 1.24081,0.978402 1.87891,1.445312 l 0.20117,0.521485 -0.7793,2.15039 c 0.1416,0.77717 0.75695,3.243993 0.52735,4.039063 -0.2415,0.19392 -0.4609,0.418576 -0.6875,0.628906 l -1.82227,0.300781 c -0.5263,0.0865 -1.09134,0.68429 -1.61914,0.78125 -1.2956,0.23868 -6.04941,-1.77259 -7.94141,-2.28125 l -0.6875,1.201172 c -0.56209,-0.0522 -1.40075,-0.572787 -1.66015,-1.085937 l -1.3457,-0.390625 c -0.8498,2.73131 -3.41814,1.972549 -5.30274,0.974609 -0.146,2.31661 -2.08703,3.403353 -2.58203,5.408203 -0.252,1.01583 -0.34291,2.18054 -0.50391,3.21875 -0.01,0.0626 -0.28778,0.543876 -0.33398,0.628906 l -1.24414,-0.544921 c -2.454,1.329099 -3.12568,-0.561238 -5.76758,-0.929688 l -1.27555,0.906174 -1,-0.01953 -0.14258,-1.052735 0.21485,-0.349609 c -0.097,-0.40574 -0.53423,-1.038541 -0.95313,-1.175781 l -2.2168,-0.02539 c -1.8354,-1.50662 -3.17237,-2.524468 -5.54296,-2.142578 -0.735,-1.08895 -2.49352,-0.910686 -3.44922,-1.884766 0.1565,-1.16651 0.5994,-1.552114 0.9707,-2.427734 0.9348,-2.19877 0.67482,-4.384762 2.51172,-6.039063 0,0 0.31205,-0.746165 0.31054,-0.796874 L 306.4375,23.6737 c -0.1238,-0.53255 -1.19433,-1.095424 -1.64453,-1.246094 l -0.72266,1.375 c -1.889,0.65037 -5.64346,2.74607 -7.32226,1.90625 l -0.73438,-0.859375 0.0117,-0.867187 c 1.2345,-1.98396 3.55974,-5.27416 3.55664,-7.59375 l 0.41602,-0.207031 -0.27344,-0.275391 0.0215,-2.113281 c -1.66389,-1.29181 -2.70862,-2.89131 -3.70312,-4.7246091 -0.6977,0.32817 -2.65902,1.1867641 -3.44922,1.1464841 l -0.27344,-0.6894529 0.38282,-0.7109375 -0.10547,-0.5898437 -0.48633,-0.3359375 c -0.8842,0.24016 -2.95302,0.1625981 -3.54492,-0.7324219 L 288.35938,5.851435 289.41602,3.8455756 288.83594,2.3787787 288.01953,2.257685 c -0.7305,1.24706 -0.43398,3.08686 -1.33008,4.09375 L 285.64063,6.326044 284.2207,4.9451846 c -0.8305,-0.14171 -1.24836,-0.1983212 -2.04296,-0.082031 l -2.26172,1.8886719 c -2.3482,0.76077 -4.35846,0.3870088 -5.94336,-1.5820312 0.077,-0.48778 -0.14384,-1.26243 -0.43164,-1.65625 l -2.09571,-0.7851582 c -0.6321,0.25656 -1.82346,0.9400325 -2.47656,0.6640625 -0.7111,-0.99795 -1.8397,-2.0305255 -2.9043,-2.640625 l -0.008,-0.001953 z M 1102.5547,289.5526 c -0.5937,0.0378 -1.3349,0.30716 -1.8281,0.63477 l 0.4668,1.01562 c -1.5918,2.0614 -4.5337,2.18016 -5.3633,3.5918 0.2028,0.63083 0.3932,1.27371 0.5254,1.92383 -0.4929,0.83869 -1.466,1.64423 -1.6953,2.58594 -0.7928,0.005 -1.6066,0.11999 -2.3809,0.28125 -0.8106,-0.89184 -2.1102,-1.67728 -3.2051,-2.14649 -0.5828,-1.87321 -2.5288,-3.71404 -4.5254,-3.88476 -0.7019,0.32979 -1.7267,1.02362 -2.1523,1.69922 l -1.6348,-0.54493 c -1.3749,0.4259 -4.4119,0.51878 -5.2207,1.64649 l -0.1777,1.31445 c 0.5974,0.82995 1.218,2.0406 1.918,2.74024 0.4172,0.41752 1.0934,0.67649 1.5371,1.07617 0.4275,0.38488 0.7905,0.83125 1.1699,1.26367 l 80.6152,0 c -1.2532,-1.35486 -3.8801,-2.405 -4.4238,-3.71094 l -0.1016,-1.68945 c -0.9231,-0.28721 -1.8846,-0.58547 -2.8398,-0.75 l -1.6934,0.61523 c -4.3066,-0.26355 -3.5018,-3.59568 -6.205,-5.77539 l -0.8145,-0.21093 c -1.5878,0.59698 -3.2044,1.35435 -4.6641,2.2207 l -1.4824,-0.30469 -0.8613,-0.99609 -0.9473,-0.20508 c -0.5842,0.62829 -1.3147,1.21451 -2.0293,1.68555 -0.5522,-0.008 -1.1901,0.0641 -1.7187,0.23047 l -0.4824,0.81054 0.068,1.16992 -0.6387,0.42969 -1.211,-0.18945 c -0.5868,-0.58788 -1.3442,-1.2056 -2.0937,-1.57617 l -0.8965,0.57617 -0.3379,1.06445 -1.0195,0.71094 c -0.7175,-0.0277 -1.4414,-0.12873 -2.1465,-0.25977 -0.5916,0.33671 -1.413,0.59866 -2.0937,0.64453 -1.7447,-1.03599 -2.6051,-1.89451 -4.0782,-3.40625 -0.075,-0.0768 -0.3146,-0.17953 -0.414,-0.23632 -0.806,0.22533 -1.5795,0.45612 -2.3516,0.79101 l -1.6328,-0.54883 c -0.7509,-1.24747 -2.2599,-1.64562 -3.2344,-2.67578 -0.6505,-0.0295 -4.7548,-0.0746 -4.8086,-0.0957 -0.9785,-0.37602 -1.894,-1.10466 -2.8965,-1.51563 z m -67.0703,4.90625 -1.1426,1.79493 c -1.4936,-0.40333 -4.745,2.67943 -6.7031,3.08203 l -0.6856,-0.2168 -0.4531,-0.75 -1.3359,-0.0332 c -0.1675,-0.51908 -0.7567,-1.42638 -1.3184,-1.60547 l -0.3984,0.0293 -0.6348,0.43554 -0.207,0.79492 0.3515,1.15039 c -0.4554,0.36438 -0.879,0.80698 -1.2383,1.26563 l 0.084,1.16602 -0.582,1.08398 -1.2051,-0.0449 c -0.056,0.0474 -0.1278,0.092 -0.1894,0.13867 l 19.0234,0 c -0.2914,-0.33753 -0.5324,-0.71239 -0.5703,-1.02344 0.044,-0.54893 0.5582,-1.32115 1.0078,-1.62109 l -1.3242,-0.3457 0.012,-1.48438 -0.2715,-0.31641 -1.7324,-0.11328 -0.5371,-0.63476 c 0.4386,-0.88709 0.4859,-1.57008 0.4961,-2.50196 l -0.4453,-0.25 z m -32.3086,2.36524 -0.4317,0.80469 -1.2129,-0.58985 -0.5371,0.19141 -0.1855,1.125 0.6191,0.54492 0.1563,0.48438 -0.4102,0.92968 -0.6054,-1.03906 -0.5645,-0.29492 -0.71093,0.11914 -0.18555,0.42578 0.15039,0.40039 c -0.2042,0.39968 -0.37031,0.81586 -0.54101,1.23047 -1.1488,0.46011 -2.24235,1.0321 -3.52735,0.91016 l -0.60156,-0.86524 -0.10156,-1.30078 -0.94727,-0.18945 c -1.6336,0.67888 -1.80668,0.63208 -3.45898,0.125 l -0.73242,-0.85547 -1.44727,0.23437 -0.54883,1.48047 c 0.1354,0.45138 0.52139,1.33269 0.92579,1.625 l -0.26563,0.42969 27.07418,0 c -1.4343,-0.51765 -2.861,-1.05339 -4.248,-1.69531 l -0.211,-1.0293 c -1.3683,-0.32289 -3.406,-1.08936 -4.0507,-2.44531 -0.8347,-0.37457 -2.4798,-0.78316 -3.4004,-0.75586 z m 166.5644,4.20703 c -0.7679,0.40589 -2.1662,0.99276 -3.3671,1.71875 l 5.1875,0 c -0.3097,-0.57411 -0.6553,-1.13019 -1.0176,-1.63477 l -0.8028,-0.084 z"
     id="rect6"
     inkscape:connector-curvature="0" />
  <path
     style="fill:#000000"
     d="M 626.60547,300.74987 464.99219,408.49206 c 0.48311,0.36929 0.95962,0.74304 1.4082,1.13281 0.5651,0.49077 1.38073,1.93714 2.17383,2.01172 l 0,-0.85938 c 0.6262,1.08894 3.70418,3.85641 4.64648,4.42774 1.5654,0.94574 6.66015,3.01788 8.55665,3.27148 2.63299,0.35503 5.65275,-0.14638 8.28124,-0.34179 1.09281,-0.082 1.92558,0.82069 2.88868,1.04296 0.2803,0.0656 0.45208,0.0124 0.73828,0.0215 1.5491,0.0462 3.82206,0.61862 5.22656,0.48437 1.1003,-0.10293 2.37508,-0.71267 3.45898,-0.72461 0.82,-0.009 4.84755,1.58417 5.74805,1.92579 0.043,0.0178 0.41728,-0.0556 0.48438,-0.0645 l 1.79687,-2.0664 0.78711,0.16211 c 0.6903,0.85325 1.25849,1.76762 2.27539,2.2539 0.1461,-0.0612 0.80353,-0.31462 0.89453,-0.38476 0.7142,-0.55491 1.93254,-1.2632 2.49024,-1.9375 0.48,-0.57876 0.76541,-1.38668 1.22461,-1.98633 0.3771,-0.49376 0.9864,-0.87816 1.3457,-1.38086 1.3403,-1.86311 2.47369,-4.24634 3.30859,-6.375 2.3333,-1.29627 4.16419,0.36803 5.24219,0.13086 l 2.9336,-0.64649 2.05468,-2.22656 c 1.5208,0.23569 2.7606,2.33443 3.9668,3.15039 0.2087,0.1432 1.73923,0.47756 2.01953,0.63867 0.5621,0.32519 1.27139,1.11556 1.77539,1.5586 0.4279,0.37592 2.33866,0.53436 2.85156,0.44336 l 1.67383,-1.32813 c 2.7582,1.15309 4.0211,1.65024 4.90821,4.91406 -0.071,0.99796 -0.28302,2.98118 -0.76172,3.89258 0.2282,0.46393 1.10839,1.79662 1.71679,1.83985 0.6097,-0.73391 1.80316,-1.78093 2.75586,-2.04493 l 2.28907,0.33399 0.56835,0.91016 c 0.483,0.31475 1.5158,0.83345 2.1211,0.80664 0.1402,0.65934 0.67371,1.48273 1.07031,2.00781 l 0.95508,0.40039 1.90039,-0.27539 1.42969,1.41992 c 0.3861,0.0223 3.3086,-1.39012 4.5625,-1.52734 0.7051,-0.0761 1.56355,0.22709 2.28515,0.19726 0.7753,-0.0301 1.56055,-0.47168 2.37305,-0.5 l 2.39648,0.0195 1.15625,-0.0801 c 0.3816,0.20138 1.71844,2.84751 2.24024,3.45313 0.051,0.98003 -0.18355,2.53346 -0.71875,3.38672 2.4227,1.64831 0.60084,6.80577 0.80664,9.18945 l 0.83789,1.28125 0.1543,0.0312 0.67383,0.1582 c -0.01,0.0173 -0.0213,0.0493 -0.0293,0.0664 l 1.34961,0.26953 -0.16016,1.63086 -1.16992,1.11524 c 0.1283,0.99737 -0.0116,5.41502 0.20508,5.89843 0.4126,0.93662 1.09593,1.83508 1.45703,2.78516 0.1252,0.3298 -0.17846,1.06033 0.27344,1.79492 l -1.05664,3.81641 -2.28711,1.08398 c -0.4854,0.48048 -0.79033,2.22903 -0.85743,2.86133 -0.5135,0.11246 -2.03038,0.57988 -2.33398,1.07422 l -0.25,2.3418 -1.33594,0.67968 c -0.5358,1.07603 -1.13836,1.80585 -2.10156,2.45703 l -0.40234,0.86915 0.10351,0.60937 -1.04101,1.52148 c -0.4195,1.50449 1.06942,4.26646 1.32422,5.81641 0.083,0.50269 -0.21847,3.28938 -0.66407,3.88086 -0.1278,0.16965 -1.48013,1.92549 -1.48633,1.97461 -0.2111,1.68393 0.0148,3.16956 0.7168,4.76758 0.6456,0.41933 2.04373,0.50008 2.76953,0.41015 0.6736,2.05884 1.55452,3.19958 3.73242,3.6211 l 0.79883,1.32422 -0.14648,1.34179 -1.20899,1.45118 0.80664,2.55859 c 1.1635,0.59294 1.87268,2.46116 2.48438,3.58594 l 2.66992,0.30078 0.66602,0.83984 c 0.2364,1.48446 0.0123,3.10985 -0.0527,4.60156 -0.075,1.70979 1.31257,3.56854 1.88867,5.05665 0.5098,1.317 0.87208,2.77575 1.29688,4.12695 0.3679,1.17066 0.65578,2.31023 0.83398,3.53515 2.9685,1.33666 3.16008,2.50839 5.10938,4.15625 0.48,0.40588 1.29668,0.65446 1.83398,1.00977 1.6957,1.12222 2.77707,4.75876 3.16797,6.71094 0.6458,0.5027 1.86798,0.77666 2.67188,1.05078 l 0.10937,0.5 c -0.8691,1.31882 -1.74469,2.96253 -2.15039,4.50195 l 0.63281,1.85938 -0.67382,0.74609 0.0234,0.61133 0.91602,0.85937 c 0.3164,0.68908 -0.59281,2.52833 -0.94531,3.07618 l 0.16406,1.35937 c 1.0872,0.88783 3.08165,0.0949 3.97266,-0.68945 0.68779,0.68834 2.16899,1.32842 3.15039,1.30078 0.4301,0.49686 1.85694,2.29151 2.36914,2.55469 0.059,-0.026 3.59376,-1.59895 3.63086,-1.59571 3.1765,0.2723 4.01325,0.0796 7.03125,-0.43945 1.166,1.92016 2.24971,3.84526 3.32031,5.81641 l 4.52148,-0.50586 c 0.8665,0.99918 1.21606,1.44594 1.66016,1.7539 0.439,0.30432 0.9703,0.47385 2.1875,0.91211 0.063,0.0228 2.21235,-0.0147 2.56055,-0.0156 1.7477,1.98314 3.41272,4.17279 5.29101,6.00781 1.4162,1.38358 3.33954,2.91329 4.55274,4.44727 0.9628,1.21759 1.80247,3.19325 2.58007,4.57031 0.053,0.095 0.54181,1.00918 0.59571,1.05469 1.3333,1.13281 2.98416,2.3098 4.19336,3.56054 0.8676,0.8973 1.51688,2.20059 2.30078,3.19727 1.7591,2.2361 3.84269,4.26121 5.65039,6.47656 l 3.64844,-0.3457 c 2.2862,0.67708 3.55226,2.4618 5.44336,3.67578 1.596,1.02436 4.90519,2.83934 6.02539,4.37109 0.6062,0.82849 1.11871,2.2963 1.63671,3.35742 1.944,0.50196 3.85498,0.91481 5.85938,1.13868 l 1.98633,1.66992 c 0.7819,-0.19076 1.81857,-0.57033 2.60547,-0.63477 0.3296,-0.0269 0.51425,0.0444 0.84375,0.0723 1.1353,0.0965 2.28808,0.21047 3.42968,0.13476 1.098,-0.0725 2.19589,-0.48021 3.30469,-0.23632 1.4868,0.32689 2.36675,1.13086 4.02734,0.9707 1.79151,-0.9974 2.55874,-0.73618 4.58204,-0.75 l 2.41015,-3.00586 c 1.6281,0.4186 2.9126,1.08461 4.4375,1.83594 1.8277,0.90054 1.86412,-0.32616 3.19531,-0.9668 1.29291,-0.62245 4.96544,-0.77468 6.42774,-0.67969 3.4082,0.22132 7.44904,1.66458 10.71094,2.60156 l 2.90234,0.83399 c 1.8296,0.16454 3.91429,-0.38462 5.77148,-0.33984 1.1478,0.0278 2.85879,0.32827 3.98829,0.57617 0.8347,0.18347 1.8633,0.81333 2.6875,0.88867 2.3642,0.21626 4.53091,-1.03027 6.72851,-1.53516 2.4851,-0.57078 5.2509,-0.46645 7.5918,-1.66406 1.0538,-0.53876 2.19249,-1.51182 3.17969,-2.19141 l 0.67773,-0.46484 3.37695,0.31445 2.375,1.94141 c 2.1463,0.38878 3.34146,-1.12945 5.06836,-1.89062 l 2.48243,-0.77149 c 0.4845,-0.14999 0.73393,-0.35965 1.24023,-0.38477 1.1132,-0.055 4.30836,0.98816 5.57227,1.45118 3.9306,1.44077 3.72312,1.06084 7.82812,0.89453 2.088,-2.13679 3.97225,-4.48092 6.71875,-5.80664 l 0.80469,-4.00977 c 0.6527,-0.37382 1.5622,-1.04858 2.2539,-1.29101 1.056,-0.36985 6.64702,-0.46189 7.48828,-0.35157 1.8099,0.23695 3.73096,0.86185 5.52735,1.27539 0.58898,-1.04835 -0.5049,-3.64652 -1.29297,-4.30468 -1.80115,-0.84341 -3.32838,-0.10568 -3.75391,-3.50196 -0.66213,-0.9373 -1.94747,-0.62182 -2.72461,-1.83398 -0.58785,-0.91733 -0.90799,-1.82882 -1.5996,-2.70899 -0.12301,-0.15651 -0.22486,-0.22593 -0.31446,-0.40429 -1.317,-2.62493 0.18309,-15.69448 0.4961,-18.40821 0.854,-1.21799 2.90513,-0.58333 3.44531,-2.23046 l 0.71679,-0.22071 0.24415,-0.85547 c 0.23696,-1.38691 -0.53979,-3.04712 -0.27735,-3.75586 0.50853,-0.18456 1.13362,-0.88516 1.24024,-1.41992 -0.14775,-0.63079 -0.80449,-1.62328 -1.44336,-1.86132 1.45245,-2.24086 4.11916,-2.13445 6.42773,-1.88477 3.26302,-1.49755 3.59806,-2.44517 5.99219,-4.82617 0.67417,0.12628 1.2926,0.17298 1.98242,0.21484 l 0.96484,-0.77539 0.53907,0.0801 c 0.4932,0.76301 0.88678,1.46197 1.63086,2.02148 l 1.28125,0.10938 c 0.61156,0.82015 1.29539,1.2351 2.24218,1.47461 l 4.10157,-2.12891 c 1.13787,-0.14452 2.98595,1.40839 3.91601,2.01953 l 1.11914,0.0352 c 0.58715,-0.74768 1.79824,-1.62323 2.73047,-1.86133 1.12191,0.19624 3.06597,0.54933 4.20899,0.39063 0.58861,-0.0815 1.18128,-0.38586 1.76953,-0.46485 1.09824,-0.14707 1.94656,0.67622 2.90429,1.01953 1.21655,0.4357 3.20562,0.56334 4.47461,0.66016 0.81936,0.0626 1.87672,-0.14511 2.66407,0.01 0.79899,0.15761 1.37533,1.08491 2.35742,0.85743 l 2.50586,-3.85157 c 0.46703,0.34185 1.38603,0.60593 1.96484,0.51563 l 0.91797,-0.93164 1.00586,-0.24024 0.59961,-0.78515 c 2.79088,-1.10622 8.96581,-0.0521 10.33594,-1.07031 l 1.50781,1.00585 c 1.511,-0.32214 5.40559,-1.96399 6.12305,-3.32031 l 0.6621,0.11914 c 0.29196,0.44665 0.19812,1.73359 0.11329,2.21485 l 1.07812,0.75586 0.6543,-0.66407 c 2.15206,-1.1743 1.45901,-3.30908 1.89258,-5.20703 0.0564,-0.24681 0.4551,-0.74486 0.5039,-0.98437 0.13472,-0.66505 0.10133,-1.5365 0.14649,-2.22266 l 0.0332,-0.51367 1.79883,-1.89648 c 0.44154,-1.24933 0.12363,-3.38066 0.041,-4.7461 1.07968,-1.02066 1.21954,-4.15755 2.14453,-5.8418 0.2526,-0.46088 0.83265,-0.98868 1.17774,-1.40039 1.37123,-0.3429 3.48878,-0.0213 4.82617,0.28516 0.12559,-0.0862 0.25803,-0.2029 0.39453,-0.26953 0.19003,-0.0932 1.79863,-0.85195 1.8711,-0.91602 1.35521,-1.19615 2.06775,-2.84863 3.68359,-3.91992 2.19826,-0.12012 4.55116,0.58396 6.59766,1.30469 0.49138,0.64503 0.57176,2.24976 0.49023,3 l 1.07422,1.66211 c 2.91177,1.88085 4.50245,-1.06248 7.14844,-0.95508 1.9566,0.57694 2.68364,2.84588 4.51171,3.70898 l 0.34571,1.37696 c -0.32798,1.00575 -0.93731,2.12879 -1.61914,2.93945 0.0947,0.86055 0.61569,1.92529 1.15039,2.5918 0.14014,-0.0242 1.19387,-0.18249 1.25976,-0.22071 0.18785,-0.10954 2.04776,-1.22462 2.11328,-1.23046 0.8161,-0.0702 1.48024,-0.22727 2.1504,-0.76563 l 0.51171,-0.85937 0.82032,0.0508 0.74804,0.63476 1.50391,-0.125 c 1.84119,0.84084 3.88335,2.38061 4.88477,4.15625 -0.62542,0.7153 -1.06433,2.1324 -1.26563,3.0293 l 0.53906,0.89258 c 3.91971,-0.51327 5.1559,-3.60659 7.90235,-5.91407 0.69456,-0.58351 1.66808,-1.09618 2.43359,-1.5996 1.33264,-0.87583 3.09119,-0.65331 4.16797,-1.74024 l 2.34961,1.68164 3.80664,-1.9414 -1.4043,-1.5254 0.0527,-0.82031 c 0.9927,-0.17293 3.03454,-1.67322 3.90234,-2.2207 1.0829,-0.68324 2.01613,-1.55139 2.95703,-2.41992 0.1638,-0.15108 1.78455,-1.69825 1.83985,-1.78125 0.961,-1.43348 0.42457,-4.9961 0.30078,-6.57227 0,-0.0717 0.15059,-0.61364 0.17578,-0.71484 1.6755,-0.60571 3.59091,1.98682 5.44531,2.49609 l 1,-0.66015 0.37305,-1.20118 1.34765,-0.68945 c 0.7481,0.35019 2.17121,0.39989 2.91602,0.006 0.4845,-0.72766 0.65602,-2.24356 0.57812,-3.08008 l 0.53711,-0.62695 c 1.4615,0.055 4.93595,2.20469 6.18555,3.02734 l 1.74023,-0.13672 c 2.3308,-1.38395 2.30674,-3.17968 3.49024,-5.15625 l 4.84375,-8.0957 c 0.7484,-1.25074 1.37102,-2.19303 2.82812,-2.78711 0.7411,-1.23072 0.3257,-2.6941 -0.0625,-3.9707 0.4907,-1.00392 1.0745,-1.96988 1.65039,-2.92578 -0.3997,-1.09715 -0.46708,-2.56212 -0.39648,-3.71094 1.26023,-1.72178 4.41933,-5.62594 6.33403,-6.08203 l -0.1407,-1.85938 c 0.8478,-0.62245 1.552,-1.42385 2.3008,-2.15625 0.4983,-2.63108 1.243,-3.0791 2.6524,-5.34179 l -0.2071,-2.78516 c -0.6283,-0.54711 -1.484,-1.81816 -1.4902,-2.69727 0.7044,-0.49033 2.1395,-0.90602 3,-0.68945 0.455,0.47068 1.5095,1.20203 2.2012,1.24024 0.1019,-0.89762 0.9803,-2.19599 1.8066,-2.58399 l 3.7441,1.47852 1.2344,-0.78907 1.9903,-0.0254 1.75,-1.76562 2.3339,-0.16602 c 0.023,-0.5016 0.2668,-1.56904 0.6836,-1.91992 1.5012,0.3367 3.1883,0.50993 4.7266,0.48047 0.3582,-0.45249 0.792,-0.85619 1.2051,-1.25586 1.8186,-0.44159 3.6283,-0.40464 5.4785,-0.5 3.3319,-0.1722 8.1662,-0.80388 11.2422,-2.07031 1.0316,1.17212 1.1696,1.12523 1.6738,2.65625 0.317,0.96389 2.4793,2.94919 3.5312,3.06054 1.1981,-0.25119 2.4738,-0.82952 3.5411,-1.41015 l 2.0176,0.33008 1.123,0.97461 -0.1563,1.17968 1.0606,0.0469 1.6914,2.45508 -0.016,1.52148 0.625,0.53906 c 0.7324,-0.1842 1.912,0.0439 2.5977,0.29493 0.6957,-0.35566 1.1351,-0.66154 1.6738,-1.2793 0.7612,-0.0401 1.8628,-0.52637 2.5195,-0.87109 1.7851,0.16016 2.5854,0.77023 4.0684,1.25 0.7699,0.249 1.8829,0.0138 2.5996,0.29492 0.9577,0.37601 1.9998,1.06984 2.916,1.56054 -0.1322,0.83392 -0.1814,2.46157 0.2129,3.25586 l 1.5566,0.48047 2.2774,-0.96484 c 0.6199,-1.42111 2.082,-3.51699 3.4707,-4.31055 2.6282,-0.17653 2.8503,-0.16802 5.4414,-1.05078 l 0.7109,-1.67969 2.7871,-0.41211 c 2.7308,1.94894 4.9081,2.95511 8.3789,2.74219 -0.4474,-2.80653 0.9334,-3.00527 1.4063,-5.57812 0.6479,-0.24499 1.5429,-0.76341 2.1777,-0.83985 1.0862,-0.1307 2.2997,0.0929 3.4004,0.0254 1.7382,-0.10667 3.5119,-0.37122 5.2461,-0.55469 l 0.9688,0.5254 0.914,-0.41016 c 0.1657,-1.24162 0.3153,-3.0482 1.2832,-3.93164 1.5306,-0.24754 6.6868,3.25464 7.4395,4.6914 l 1.1582,-0.30468 c 0.1954,0.67521 0.9313,1.53198 1.5195,1.89453 0,2.02027 2.3386,5.09165 3.4473,6.68164 1.3217,0.15286 2.8623,0.553 4.0508,1.16601 0.8263,-0.28465 1.6673,-0.81984 2.3808,-1.31054 0.7546,0.33706 1.6333,0.70161 2.4571,0.83008 0.3218,2.95287 1.0399,8.52444 2.6289,11.09765 0.6053,0.98026 1.4114,1.75282 2.0058,2.80664 0.9206,1.63258 1.1827,4.159 1.5176,5.99219 l 3.8027,3.65625 c -0.079,0.40948 -0.2324,0.86754 -0.1582,1.28906 l 2.0528,1.16602 0.455,1.8457 c 2.2274,0.4201 4.5842,1.14532 6.6543,2.07031 l 1.0332,-0.28906 0.5508,-0.61523 0.5801,-0.0312 0.4922,0.43554 1.4121,0.1543 1,1.23047 2.1074,-1.98437 c -0.241,-0.82813 0.6006,-2.30699 1.127,-2.86719 l 0.7988,-0.27344 c 0.2701,0.0732 2.0128,0.5768 2.1348,0.58008 2.484,0.0714 7.615,-2.05909 9.6152,-3.55664 1.0797,0.35817 2.2689,0.31761 3.2539,-0.29102 l 0.8614,0.76953 1.0039,-0.86914 1.1758,0.16992 c 1.0825,-0.74111 2.0909,-0.88709 3.3281,-1.11132 l 1.4609,1.09179 1.0469,-0.0547 1.1211,-0.87696 c 1.3068,0.0539 2.6646,0.91503 2.8066,2.30664 1.5154,-0.89945 3.1089,0.001 4.5449,-0.79883 l -0.1777,-0.44531 c 0.2716,-1.43817 2.4486,-3.23368 3.4082,-4.29297 0.082,-1.95587 0.35,-3.5788 0.8906,-5.41601 -1.2253,-3.07007 -0.1969,-3.17813 -0.084,-6.17578 0.1055,-2.79416 -0.011,-6.91147 1.3925,-9.40821 -1.1743,-2.67113 -1.0936,-5.51051 -0.4238,-8.26172 0.2325,-0.95481 0.4047,-2.30353 0.7793,-3.1914 0.9853,-2.33621 4.5944,-5.598 6.8106,-6.76172 0.6144,-1.74071 1.7234,-3.98047 2.8984,-5.39648 0.06,-0.0717 1.1693,-0.8086 1.3164,-0.91016 3.0351,-2.09784 8.4563,-4.37056 10.3984,-6.89648 0.3687,-2.70205 2.4697,-5.94926 1.3438,-8.58399 l -1.5703,-0.85937 c -0.4965,-3.2401 2.5769,-5.56293 4.4472,-7.79688 -0.1136,-3.54112 -1.3471,-10.77853 1.2344,-13.48242 0.5362,-0.56166 1.3615,-0.95515 1.9356,-1.49024 0.5019,-0.46813 1.0091,-1.35471 1.4394,-1.9375 l 0.1934,-3.39062 c 0.4929,-0.3116 0.9531,-0.95993 1.2265,-1.45898 -0.8096,-1.2351 -0.6476,-3.28925 0.022,-4.55274 0.3953,-0.7466 1.446,-1.34691 1.9102,-2.07422 0.4157,-0.65194 0.7374,-1.55871 1.0722,-2.26562 l 2.0625,-1.38086 c 0.1485,-1.24566 0.4309,-2.6018 0.8848,-3.77539 l 1.2481,-1.10547 c 1.2762,-0.41061 2.3558,0.94576 3.5742,0.53515 0.7397,-0.47867 1.5445,-1.37925 1.9082,-2.18554 -0.2424,-2.07415 1.262,-3.36951 1.4258,-4.9668 0.2421,-2.36099 -0.1376,-4.91813 0.017,-7.35156 l 1.1465,-0.75586 0.094,-0.87109 c -1.3396,-1.36032 -6.668,-1.73772 -8.2168,-0.41016 -1.1463,-0.2377 -2.6119,-1.50965 -3.416,-2.32031 -1.0756,-0.0197 -4.6527,0.17375 -5.4219,-0.004 -2.3414,-0.54092 -2.9357,-3.29022 -4.082,-5.02148 -0.2688,-0.40623 -0.8105,-0.72906 -1.1133,-1.1211 -0.3906,-0.50525 -0.674,-1.33497 -1.0176,-1.9043 l -4.0938,0.19532 -2.5605,1.81445 c -2.0526,-0.97774 -4.496,-1.96785 -6.7383,-2.4043 -0.9341,-0.18165 -2.6679,-0.0288 -3.4687,-0.48632 -0.012,-0.23952 -0.1076,-1.57743 -0.084,-1.68555 0.2617,-1.20306 1.1401,-1.7312 0.3672,-3.14649 -0.3309,-0.47649 -1.2101,-0.89233 -1.7696,-0.95312 -1.1684,0.3025 -1.861,1.40517 -2.957,1.71094 -0.8707,-1.54451 -3.6657,-2.16848 -5.2852,-2.21289 l -1.0605,-2.55469 -3.5801,-0.0801 c -2.206,-2.25834 -6.4028,-1.3474 -8.5527,-3.73242 -0.8867,-2.39338 0.4307,-5.53216 -0.2617,-7.28125 l -0.5567,-0.49414 -0.1601,-0.51172 c 0.5624,-0.86635 0.02,-2.52611 -0.5703,-3.23047 -0.3665,-0.43718 -1.117,-0.66831 -1.5196,-1.08984 -1.5437,-1.6173 -3.0701,-3.1882 -4.0078,-5.26563 -0.6825,-1.51175 -0.7771,-3.38772 -1.8535,-4.72656 l -1.0898,-0.46094 -2.1075,0.3711 c -1.2937,-1.33884 -2.8473,-1.38743 -4.5957,-1.32227 -0.6101,-0.73313 -1.2322,-1.63498 -1.6035,-2.51953 -0.6894,-0.64175 -2.6389,-0.86964 -3.5078,-0.84961 -0.4288,-1.13464 -1.0763,-2.31259 -1.7832,-3.29688 l -0.8028,-0.084 c -1.4469,0.76479 -5.1566,2.16023 -5.498,3.95117 -0.1689,0.88528 -0.043,1.81428 -0.5137,2.63477 l -0.3965,0.0215 -0.4375,-0.62695 -1.3535,-0.44922 c -0.3218,-1.16084 -0.6248,-2.40277 -0.7402,-3.60547 -0.6459,-0.81355 -1.8248,-1.51138 -2.8457,-2.20703 l -80.2403,0 c 0.3702,0.24441 0.7928,0.45637 1.1036,0.73633 0.8092,0.72839 1.3807,1.68068 2.2871,2.33008 l -0.3203,1.19531 c -0.8256,1.31519 -1.8226,0.90078 -2.6875,1.61133 l -0.4239,-0.36524 c -0.5216,-0.0102 -1.0825,0.0716 -1.5801,0.22852 l -1.2304,-0.4375 c -1.3268,1.05091 -2.6415,2.12583 -3.9043,3.2539 0.011,0.82122 -0.4547,1.98822 -0.8828,2.66602 -0.6498,0.20639 -1.6218,0.74487 -2.0371,1.31055 0.3181,0.72583 0.3596,2.63393 0.1,3.38672 -0.5672,-0.39204 -1.4917,-0.63444 -2.1739,-0.64063 -1.5761,0.81648 -3.165,1.61267 -4.7558,2.40039 l -0.059,-0.91016 c -2.8261,-1.57362 -2.2251,-1.37077 -2.9473,-4.10742 -0.1966,-0.74623 -0.8058,-1.6113 -1.1738,-2.27343 -0.3106,-0.55877 -0.277,-1.11084 0.096,-1.69727 l -0.8457,-0.72461 c -1.5401,0.89074 -2.123,1.14761 -3.9492,1.13086 -0.6898,0.66433 -3.2093,3.10308 -4.4102,2.44531 l -1.4473,-1.98633 -1.1777,0.0156 -0.6562,-1.28516 0.7812,-1.19531 -0.2383,-0.48047 -0.6093,-0.38476 c -0.517,0.27774 -1.5712,0.55691 -2.1641,0.40039 l -0.1895,-0.44532 0.5899,-1.51562 c -0.5308,0.20057 -1.8754,0.58551 -2.4571,0.41406 -0.3818,-0.20567 -0.7993,-0.80738 -0.8671,-1.23437 l 0.2402,-1.04492 c -0.4804,-0.31705 -1.3696,-1.19822 -1.4453,-1.82032 0.024,-0.29833 0.1905,-0.65822 0.4062,-0.97656 l -16.9414,0 0.059,0.82227 -0.582,1.08398 -1.2051,-0.0449 c -0.589,0.5027 -1.5432,0.97488 -2.3164,1.08008 -2.3034,-0.84159 -4.6322,-1.60511 -6.8613,-2.63672 l -0.063,-0.30499 -11.88087,0 c -0.0567,0.13654 -0.12142,0.26947 -0.17773,0.40625 -1.1488,0.46011 -2.24235,1.0321 -3.52735,0.91016 l -0.60156,-0.86524 -0.0352,-0.45117 -7.17774,0 c 0.14623,0.46244 0.51068,1.28721 0.90235,1.57031 l -0.59376,0.96094 c 0.2683,1.69922 0.28702,3.87981 -0.36718,5.50586 l -0.875,0.7207 c -1.6824,-0.4583 -3.91185,-0.81475 -5.62305,-0.35937 l -0.9707,-0.44532 c -1.4921,0.22715 -3.57898,0.90421 -4.92578,-0.0215 -0.376,0.90166 -2.19819,1.64584 -3.05469,1.80274 -0.6684,2.18772 -2.5272,2.52599 -2.375,5.27539 -0.5835,0.38877 -1.20698,0.76033 -1.76758,1.17968 l -1.0918,-2.00586 c -1.7902,1.32974 -2.87168,6.67218 -3.67578,8.9043 -0.2933,0.81393 -1.32992,1.54151 -1.66992,2.34961 -0.3462,0.8234 -0.38122,2.23444 -0.54102,3.17578 l 0.81836,1.89063 c -0.89,1.82698 -2.73238,4.11068 -2.55078,6.20703 l 0.59961,0.86523 -0.0371,1.17969 -1.1582,0.48047 c -0.7349,-0.26027 -7.15405,-3.86879 -7.6582,-4.35547 -0.28831,-0.98721 -0.62321,-1.97945 -1.03711,-2.92188 l -1.24024,-0.55078 c -0.1951,-0.49906 -0.78493,-1.27701 -1.3164,-1.46484 -2.42322,0.25662 -4.17938,-1.08056 -6.8418,-0.75586 -3.23242,1.26021 -2.69499,3.19251 -4.625,5.07227 -2.88373,2.80837 -3.83965,1.23426 -5.77148,2.42968 -0.6785,-0.60572 -3.2653,-1.29759 -4.24415,-1.47851 -0.54456,0.39022 -1.25747,0.76909 -1.91015,0.93945 -0.38873,-0.93769 -2.06336,-1.25851 -2.91406,-1.45508 l -0.38672,-1.40429 c 0.61807,-1.56308 0.23575,-3.50263 1.17383,-4.92774 1.34646,-2.04685 1.69707,-0.55132 2.05273,-3.95703 0.5431,-0.88929 1.97288,-1.92428 3.01758,-2.08008 l 0.71484,-0.9707 c -0.19947,-0.82303 -0.84668,-2.0998 -1.55469,-2.61524 l -1.35351,-0.27929 c -0.48632,-1.38762 0.68521,-3.60077 1.17773,-4.92578 -0.32324,-1.06 -1.03378,-2.72031 -1.12695,-3.82618 -0.0608,-0.72076 0.65377,-1.96313 0.70508,-2.67187 0.0681,-0.94279 -1.20813,-4.21319 -1.49024,-4.9707 -0.0119,-0.0322 0.0863,-1.10035 0.12696,-2.06641 l -6.66602,0 c -0.64564,0.78599 -1.42925,1.45321 -2.30273,1.62109 -0.0979,-0.50144 -0.70864,-1.12293 -1.34766,-1.62109 l -286.9941,2e-5 z m -44.30273,137.01758 0.0234,0 c -0.166,0.35526 -0.33133,0.7106 -0.49023,1.04297 l 0,-0.0508 c 0.1507,-0.31526 0.3092,-0.65549 0.4668,-0.99219 z"
     id="rect4"
     inkscape:connector-curvature="0" />
  <path
     style="fill:#000000;fill-opacity:1"
     d="m 240.46484,41.990104 -0.98046,0.578125 c -0.7723,0.65186 -1.33857,2.043275 -2.41797,2.296875 -0.4652,0.10889 -1.50347,-0.100499 -1.91797,-0.349609 -0.7127,-0.0522 -2.17547,0.872641 -2.69727,1.275391 -0.4727,0.007 -1.2436,-0.720075 -1.5,-1.052735 l -1.57422,0.101563 -0.72656,-1.392578 c -1.4045,0.11188 -4.67545,1.978171 -5.53125,3.082031 -0.1595,0.20585 -0.42103,1.186164 -0.58203,1.396484 -1.3508,1.76467 -3.27108,0.951539 -5.08398,0.605469 l -0.48243,-0.0918 c -0.3847,1.56329 -0.77307,2.591105 -1.76757,3.958985 l 0.28711,1.613281 1.2539,1.318359 0.13672,0.794922 c -0.2832,0.60713 -1.00421,1.607125 -1.62891,1.921875 -0.9318,0.0447 -2.23,-0.116732 -3.0664,-0.576172 l -0.33789,2.035156 -0.99024,0.78125 -2.81054,0.359375 -2.14844,-1.480468 c -5.0348,0.0373 -4.29912,-1.82495 -7.85352,0.90039 -0.4637,0.085 -1.22037,-0.297363 -1.54687,-0.595703 l -0.65625,0.06445 c -0.8037,0.49078 -1.08737,1.134497 -1.45117,1.935547 l -0.98047,0.695313 c -0.7082,-0.0149 -1.3276,-0.162234 -2,-0.345704 -0.8633,-0.98901 -1.66845,-1.510613 -2.81055,-2.277343 -1.1599,-0.0447 -4.62093,1.622794 -4.74023,2.802734 -1.1853,0.35055 -2.38062,0.674709 -3.57032,1.005859 l -1.13672,-0.351556 -0.89062,0.25 -0.48242,-0.371094 c -0.6411,0.21928 -1.70479,0.135296 -2.33399,-0.08398 l -1.59179,0.810547 c -0.5412,1.06209 -0.22332,0.770085 -1.13282,1.390625 l -0.10546,0.65039 c 0.3772,0.42959 1.61028,1.982261 1.61328,2.587891 l -0.59375,2.095703 0.27148,0.769531 -1.41601,-0.125 -0.35938,0.169922 -1.91602,2.8125 0.13086,0.425781 0.48633,0.328126 0.71289,-0.183594 0.13282,0.839844 -0.59961,1.310546 -1.98047,0.779297 c -0.5621,1.48125 -1.86631,1.850805 -2.78321,2.896485 -0.7127,0.81 -1.35009,1.986212 -1.96289,2.888672 -0.7708,-0.307271 -1.9166,-0.940985 -2.4414,-1.615235 l -1.78321,-0.320312 c -0.034,-0.0671 -0.21765,-0.488212 -0.25195,-0.519532 -0.5248,-0.4505 -1.33137,-1.000421 -1.76367,-1.519531 -0.4548,-0.54597 -0.56207,-1.497239 -1.70117,-2.599609 -0.7007,-0.6817 -1.7069,-1.208072 -2.2168,-2.044922 l -0.42187,-0.693359 c 0.028,0.996449 -0.0903,3.592522 0.46484,4.257812 -0.5904,0.29983 -1.26609,1.149334 -1.46289,1.777344 -0.5979,0.3938 -2.24047,1.281933 -3.00977,1.189453 l -0.64843,0.935543 -1.00977,0.121094 c -0.7097,0.953199 -0.62616,2.773031 -0.22656,3.826171 l -0.49805,0.746094 c -0.5233,0.32222 -1.8273,0.343236 -2.4043,0.291016 l -0.77929,0.46875 -0.94141,-0.08008 -1.01953,-2.527344 -0.36328,-0.279297 -2.40235,-0.160156 -2.07226,2.761718 0.3125,0.810547 c 0.012,0.38636 -1.81095,1.726356 -2.15235,2.009766 l 0.66016,2.039063 c -0.1849,0.341599 -0.40589,0.676158 -0.65039,0.980468 l 0.10938,0.669922 c -0.7812,1.30525 -2.14019,4.011996 -3.30469,4.972656 l 0.29883,0.976563 -0.39844,0.585935 c -2.1634,0.71304 -4.24264,-0.807321 -6.33594,-0.0332 -0.5934,-1.943678 0.0167,-1.474798 -1.75586,-2.087888 -2.211,2.350918 -4.91673,3.951788 -8.30273,3.158198 l -1.23828,-1.585933 -1.63282,-0.550781 c -0.1953,1.719924 -0.19011,2.738794 -1.07422,4.337894 l 0.17969,1.37695 c -0.3281,0.71303 -0.67573,1.4119 -0.92773,2.15625 l 0.69922,2.82617 -0.5586,1.44141 -3.20898,2.29687 -0.44727,1.58203 c -0.092,0.0791 -1.24663,1.07643 -1.29883,1.08985 -1.1466,0.27895 -4.2175,0.682 -4.8496,1.80078 l -3.257817,-2.6211 -1.150391,-0.1289 c -1.5952,-1.39921 -7.589318,-5.67814 -9.824218,-6.36133 0.1282,0.99795 -1.413003,2.99528 -2.033203,3.63672 l -0.916016,-1.88672 -0.515625,-0.0449 c -2.4451,1.83032 -4.64177,1.39198 -6.95117,3.94726 l -3.0918,3.40625 0.2461,1.13672 -0.66407,0.73633 c -1.2449,-0.52656 -2.78398,-2.3812 -3.80078,-3.39258 -1.324,1.33657 -2.58662,1.39263 -4.39062,1.06446 l -0.75782,-0.72071 -1.50586,0.01 -1.95898,1.83594 -1.98047,-0.48047 c -0.7484,0.75032 -2.17089,1.38241 -3.15039,1.70312 l -1.17578,-0.33984 -0.58789,0.36914 -1.31055,-0.30664 -3.08398,1.46094 c 0.1059,1.19186 -0.81841,2.44895 -1.90821,2.87109 -0.6143,1.23961 0.40214,3.98947 -0.19726,4.57422 l -0.71289,0.27539 -1.77539,-0.33985 c -1.0765,0.56388 -2.63563,1.49934 -3.45703,2.43165 l 0.0977,1.44921 -0.61523,0.69532 c -1.6728,-0.32221 -2.46766,0.39645 -3.97656,0.37109 l -0.22266,2.29688 c -0.051,0.51613 0.68356,1.16506 0.0977,3.0625 l -0.85743,0.55664 c -0.6068,-0.0999 -1.5765,0.18531 -2.0625,0.55078 l -0.36328,0.80078 c -0.5174,0.24613 -1.24806,0.90155 -1.44336,1.46094 l 0.043,1.08203 c -0.5203,0.25955 -0.93384,1.25169 -0.99805,1.78125 l 0.83008,2.5 -0.35156,1.25195 c -0.5651,-0.24912 -1.66541,-0.49566 -2.28711,-0.33008 l -0.98242,1.03906 0.80469,2.8086 c -0.4309,0.63397 -0.8781,1.25272 -1.3418,1.86133 l 0.0781,0.67187 1.30665,1.33008 c -0.5263,1.47529 -1.15768,2.87791 -1.83008,4.28906 l -3.40039,-0.82422 -0.47657,-1.60742 c -0.5814,-0.22823 -1.15759,-1.15996 -1.27539,-1.74023 l 1.27539,-1.56055 -0.87109,-1.4668 c 0.4591,-0.47585 0.89866,-1.1253 1.16406,-1.73242 -0.8141,-1.37237 -2.29318,-1.23295 -3.39648,-2.01758 -0.9274,-0.66083 -1.92155,-1.86923 -2.75195,-2.67773 l 0.93359,-1.00586 c 0.3251,0.37442 1.12205,0.72497 1.62305,0.65039 l 0.46093,-0.41992 -1.17968,-3.01953 c -1.9099,0.0552 -4.06164,0.38901 -5.89844,-0.25391 l -0.60156,-1.03125 0.0859,-1.73242 -0.56054,-1.07031 0.23047,-2.46094 -1.38477,-0.51172 -0.11328,-2.32031 -0.93359,-0.15235 c -1.397,1.17546 -3.7951,-0.6539 -6.1836,1.22266 l -1.88476,-0.0508 1.82031,2.02734 -0.71289,1.47461 c 0.1789,0.87265 1.09853,2.01552 1.83203,2.48242 l 0.30664,1.01563 c -0.7217,0.48032 -1.8092,1.35382 -2.2207,2.15039 l -0.73829,0.11523 -0.4121,-0.19531 -1.14258,0.41602 -0.38282,0.4707 0.45899,0.77539 -1.20508,1.19531 0.89844,0.59961 0.6543,-0.1582 1.17773,1.98242 c 2.0157,0.27298 3.10745,0.78759 5.06055,1.62891 l 1.35156,3.60742 0.48242,-0.75 0.47461,-0.01 c 2.0857,2.34047 3.49993,3.99012 3.92774,7.38672 l 0.65234,0.41407 0.20508,0.71484 c -0.2713,1.17396 -1.34717,2.76467 -2.32227,3.46875 -0.3414,1.70352 0.61689,4.81255 1.27149,6.32812 l 0.8457,0.68164 1.69922,0.1211 0.15039,1.36914 1.62695,-0.043 c 1.1062,0.82938 1.08834,0.95571 1.83984,2.19531 l 1.10743,0.57422 0.44726,0.85547 -1.42773,2.45703 c 2.0887,0.71303 5.66009,0.591 7.05859,1.42188 -0.04,1.30971 0.66947,2.161 1.41797,3.11718 l 0.69531,-0.6914 0.8418,0.14648 c 0.6724,0.44751 1.3328,1.35871 1.625,2.10156 l 1.45117,0.5586 0.46875,1.0664 0.93555,0.0703 0.36523,0.73047 0.95117,-0.13868 c 0.84681,0.8443 2.23463,1.7593 3.41993,2.0293 l 0.82031,-0.14648 0.72852,0.46679 0.0156,0.91016 -0.75391,0.9375 0.7793,0.87891 3.58789,-1.67188 c 0.082,0.78313 0.77669,1.9038 1.42969,2.33789 l 1.05664,0.125 0.68359,1.04102 c 0.082,0.79955 -0.0467,2.36599 -0.54297,3.05664 l -1.26171,0.31445 c -0.495,0.34011 -0.80787,1.3649 -0.79297,1.92578 l 0.71875,1.66211 0.86132,0.39453 0.70118,-0.23242 0.33984,0.56055 c 1.7817,0.85026 4.02438,1.29658 5.95508,1.61133 0.064,0.082 0.52716,0.64105 0.53906,0.69921 0.1341,0.62056 0.3873,1.39406 0.4336,2.01758 0.21469,2.91926 -2.82055,3.38836 -3.28126,4.78907 -0.4697,1.43352 -0.49774,2.86568 -1.43554,4.14257 l -1.49414,0.58985 -0.3418,3.23633 c -0.4457,-0.4669 -1.82516,-0.64372 -2.41406,-0.63477 -0.7574,1.24408 -0.49929,2.74851 -0.45899,4.13281 l -0.77343,1.18164 0.55273,4.25391 -0.19727,0.35937 -7.37695,4.23243 c -0.7081,0.40723 -0.60665,2.82868 -0.31445,3.44921 0.3221,0.68172 0.94623,1.44061 1.36523,2.08204 l 1.24024,0.38476 c 0.3295,1.0412 1.61645,4.38547 2.66015,4.94336 1.476,0.0463 2.4953,1.06372 3.9668,1.21289 l 0.62695,1.20117 c 1.2762,0.7906 2.59395,0.85483 4.03125,0.42969 l 0.10743,1.78516 c 0.39811,0.38038 1.13662,1.38173 1.11132,1.98437 l -0.53906,0.94922 0.1543,1.64649 -1.21875,1.08203 0.32422,0.72461 0.79101,0.14648 c 0.237,0.49822 -0.22918,1.58357 -0.49609,1.98633 l 0.24023,0.67773 0.71094,0.0977 0.99414,1.31055 1.61133,-0.57618 0.93359,0.48633 -0.1875,0.76953 c 0.4518,1.06955 0.82906,1.97384 0.63086,3.1836 l 1.52149,1.56445 c 0.3117,1.25601 -0.82263,2.54105 -0.26953,5.22461 0.1267,0.61458 1.47159,2.6276 2.09179,3.05273 l -0.35742,0.79493 c 1.0347,1.54541 3.8436,1.98063 5.5,1.91796 l 1.05859,1.48438 c -1.0944,3.05648 0.8426,4.54363 0.1836,6.54102 l -1.47656,1.03906 2.35351,2.70312 0.93164,5.60547 c 1.3598,1.13369 4.2219,1.73437 5.9336,1.62695 l 1.46289,2.14063 c 1.2255,0.0821 3.32425,1.7125 4.130856,2.51953 0.5442,1.72737 0.580422,2.70182 0.669922,4.5918 0.641099,0.49375 2.137899,1.75869 2.4375,2.55078 l -0.191407,1.8418 0.408203,0.61132 c 2.1007,0.78314 5.563344,0.60473 7.714844,0.29297 l 0.925781,0.98243 c 0.9676,-0.088 2.573791,0.42994 2.900391,1.47265 l 0.802734,-1.64453 -0.552734,-1.30664 0.291016,-0.92578 3.263672,0.68164 0.658203,0.6289 2.517579,0.0723 c 4.4072,0.12231 5.714,4.57986 8.7793,6.97852 l 1.98632,0.33203 c 1.4268,2.80441 -0.73895,4.07299 0.0606,6.12109 l 0.64453,0.79297 2.12305,0.2207 0.73633,0.67969 c 0.055,0.57283 0.44058,2.00763 1.01758,2.31641 l 1.98828,0.33789 c 0.3683,0.31025 0.71485,0.85576 0.93555,1.27343 l -0.28125,1.30274 0.30859,0.80859 c 0.5785,0.1969 2.4704,1.03371 2.6582,1.71094 0.01,1.04419 -0.15632,2.302 0.51758,3.18359 0.817,0.4848 1.94588,1.00062 2.67188,1.58985 1.0541,0.85622 2.46446,3.52753 4.10156,3.4082 l 0.52344,0.70508 c 0.1193,1.19485 -0.23253,2.72873 -0.67383,3.82812 l 0.33789,0.9375 c 1.5714,1.0069 2.99808,2.12662 4.33398,3.41993 0.7574,0.50419 1.42169,0.9538 1.96289,1.13281 1.9501,0.64589 5.51189,-1.20733 6.64649,-0.78516 l 7.08984,5.82813 0.45508,1.48633 c 0.9453,0.12232 3.59659,3.02103 3.71289,4.21289 l 1.71094,0.52539 1.07226,0.58984 0.0937,0.37891 -0.78711,0.80273 -0.0957,0.60938 0.83008,0.98047 c 0.1715,0.66827 0.61955,3.0898 0.12305,3.68945 l 0.73047,1.14062 -0.39844,3.88672 1.46875,1.33203 0.69922,0.10547 0.56836,1.08399 1.14648,0.26757 c 0.3713,0.73092 2.45527,1.6168 3.16797,1.85547 0.2162,0.44304 0.80156,1.20853 1.28906,1.39649 l 0.62696,0.0156 1.66601,1.84571 1.24024,0.11328 0.82812,-0.83594 -0.50976,-2.56641 0.44922,-1.27929 c 0.8081,0.15514 2.29748,-0.37315 2.99218,-0.72071 l 1.5625,1.13672 c 1.9412,0.44451 0.49371,-1.14527 2.97461,-0.0996 l 0.5918,-0.52539 0.74805,0.0703 c 0.6903,0.5937 0.9317,0.76462 1.3164,1.5254 l -0.16211,0.8496 c 0.4621,0.78762 0.78808,1.38772 1.48438,1.98438 0.6769,-0.51313 2.06958,-0.77883 2.89258,-0.58789 l -0.91016,1.23828 c 1.7235,1.64237 3.64169,7.85919 4.27539,8.16797 l 0.92188,-0.0391 c 0.58149,0.38486 0.85051,1.81648 0.85351,2.43554 l 0.46289,0.37696 c 0.577,-0.009 2.55081,-0.16804 2.94141,-0.67969 0.6411,0.20585 1.63551,0.66203 2.28711,0.50391 l 1.52148,-1.51172 0.38281,1.23632 c 0.7231,0.3983 1.72282,1.8839 2.13282,2.55664 l -0.28711,1.25586 2.17773,4.63086 c 1.0809,0.69662 0.70655,0.518 2.18555,0.65821 0.3384,0.5579 1.00836,1.14591 1.25586,1.69336 0.6724,1.49766 0.27358,2.09031 2.05078,3.74609 -0.054,0.88607 -0.52241,2.56685 -1.22461,3.19336 1.0496,2.10031 2.26718,2.01717 4.52148,1.87695 4.4951,-0.3774 8.26345,4.99789 10.83985,7.82617 0.069,0.0746 0.38512,0.77741 0.44922,0.91016 l 1.82226,0.50977 0.42969,1.11718 c 0.8662,0.2521 1.90977,0.59036 2.79687,0.72461 0.5993,-0.4684 2.68963,0.13161 3.29493,0.74024 0.034,0.14466 0.24816,1.15195 0.29296,1.22656 0.2445,0.39233 2.55937,3.45074 3.07227,3.77148 l 1.8418,0.26368 c 0.7634,0.46986 1.02956,2.44157 0.75976,3.21875 l -0.87695,0.86523 c -0.6724,-0.26852 -2.1253,-0.38513 -2.75,0.0996 l -1.66992,2.19141 c -0.058,0.54 1.41422,1.72177 1.82422,2.12304 l 0.77343,0.15821 0.86719,-0.36914 0.5293,0.50976 0.11328,0.50586 -0.78711,1.66211 1.37305,1.66016 0.6914,0.10937 0.78907,-0.45703 0.21875,1.5918 3.44726,-0.0703 0.0273,1.40625 1.78125,0.38477 2.08203,-1.28125 c 0.9408,0.32069 2.68017,0.097 3.07227,0.24609 0.7663,0.28493 2.51636,1.01565 3.25586,0.3086 1.5878,-0.0492 2.89981,0.76564 4.35351,1.22656 0.2266,0.0716 1.11758,0.13783 1.26368,0.21094 0.5531,0.28192 1.35415,1.44684 2.06835,1.28125 0.6232,-0.52358 1.97602,-0.83432 2.76172,-0.62696 0.5829,0.89202 1.34104,1.27187 1.99414,1.98047 0.5218,0.56831 0.99089,1.3082 1.45899,1.92578 0.3593,0.47587 1.61791,0.70845 2.16211,0.76368 l 0.73828,2.84765 1.13476,-0.13086 c 1.5357,-1.32015 3.14181,-5.33095 4.47461,-5.58007 l 0.52344,0.14062 0.5332,1.25195 c 0.6411,-0.28639 1.65934,-1.10391 1.92774,-1.78711 -0.2967,-0.43857 -1.28574,-2.11937 -1.08594,-2.67578 l 0.61719,-0.76172 c 1.4492,0.0716 2.59277,-0.17155 3.79297,0.59961 0.4801,-0.31024 2.14826,-1.70111 2.38086,-2.11133 0.4055,-0.71451 1.88401,-4.02523 1.76171,-4.90234 l -1.36718,-2.00195 c 0.3578,-1.25452 2.17732,-1.07515 3.20312,-1.24219 l 1.58985,2.23633 0.96679,0.31055 0.51758,0.58984 0.0195,0.99609 0.99414,1.18164 c 0.331,-0.20436 0.8501,-0.34692 1.2168,-0.49609 l 0.68945,0.15625 0.78711,0.78906 1.87305,-0.0488 c 0.7843,0.77865 1.35662,1.43318 2.32422,1.94336 0.4413,-1.30228 4.14068,-2.45479 5.36328,-4.3164 l 1.20898,0.70508 1.09766,3.71875 c 0.8752,-0.13576 1.36029,-0.25217 2.08789,-0.89063 l 0.61914,0.0254 c 1.0377,1.10982 1.47666,3.31033 1.94336,4.67969 1.306,-0.13426 3.31495,-0.55999 4.62695,-0.21094 l 0.6543,-0.66992 -0.0488,-0.67188 c 0.483,-0.90396 1.01919,-1.81147 1.45899,-2.73632 -0.1282,-0.54 -0.46489,-1.35971 -0.45899,-1.91016 0.01,-0.70408 0.35173,-1.52102 0.45313,-2.22656 0.1178,-0.82493 -0.30439,-1.63091 0.0996,-2.47071 l -0.24024,-0.8125 -0.57812,-0.43359 c 0.3548,-1.64681 0.5728,-3.96798 1.6582,-5.28516 l -0.13086,-1.08984 c 0.7469,-1.78408 1.71787,-3.35003 3.66797,-3.86914 l 0.29492,-0.41992 c 3.1205,0.5042 3.27751,-3.65631 5.97461,-4.35742 -1.2002,-2.47772 -0.72105,-2.97877 0.46875,-5 l -0.01,-0.70704 -0.60157,-0.93359 0.35547,-0.58203 -0.0644,-0.54492 1.74609,-1.08985 1.27539,0.51172 0.99805,-0.3457 1.13867,0.99609 c 1.0734,0.35951 2.63323,-1.19818 3.89453,-0.19726 l 0.17774,1.05664 c 0.9766,-0.14023 4.54727,0.62433 5.41797,1.0957 0.1223,0.0671 0.93508,0.7932 1.17968,0.9961 1.2091,0.13576 2.4129,0.26677 3.625,0.36523 l 2.26172,-1.19531 -0.1289,-0.34571 0.32421,-0.66992 -0.23242,-1.22461 c -0.1133,-0.0955 -0.96229,-0.83447 -1.02929,-0.86132 -0.7589,-0.2879 -2.70047,-0.48122 -3.10157,-1.33594 0.01,-1.72591 -0.1265,-1.25083 0.4668,-2.64258 l -0.2832,-1.19141 c 0.653,-1.58269 1.63854,-3.35771 1.90234,-5.05078 l 1.21289,-1.10547 -1.05078,-1.39843 c -0.016,-0.60116 -0.26006,-3.09863 0.14844,-3.50586 l 0.8789,-0.0234 0.14453,-2.38672 0.67383,-0.79687 c -0.1953,-0.38935 0.2105,-1.3677 0.4043,-1.69141 0.1088,-1.7065 -1.2077,-4.54331 -2.0918,-5.9082 l 0.82813,-1.02344 c -0.8648,-1.90045 -0.38441,-2.49957 -0.32031,-4.17774 0.034,-0.89502 -0.0981,-1.89002 -0.14454,-2.79101 -0.024,-0.48032 0.61142,-1.39731 0.94532,-1.67774 1.8488,-0.54595 1.98272,-2.41994 1.85742,-4.18164 1.2286,-0.0641 2.0281,-0.30471 3.0957,-1.0625 1.306,1.17994 2.62849,1.18453 4.27149,0.72657 l 0.64257,0.60937 c -0.1655,0.65933 -0.1212,1.76226 0.1875,2.38281 0.7275,-0.27747 2.27033,-0.082 2.95313,0.16407 l 1.31836,-0.88477 0.83984,-0.0312 0.69336,0.5293 c 1.5476,0.0209 3.08947,-0.13944 4.48047,0.71679 0.2564,0.44603 0.32721,1.31563 0.12891,1.79297 l -1.00196,0.67774 1.56836,0.58984 c 0.018,0.66529 0.34363,1.75682 0.82813,2.24609 l -0.0293,2.02539 c 0.6963,0.6325 1.54661,1.70163 2.56641,1.70313 0.7142,-0.26105 0.82382,-0.96187 1.29492,-1.42578 2.0828,-2.04512 4.49989,-0.99798 6.96289,-0.48633 l 1.16602,-0.69531 -0.15039,-0.84571 0.18554,-0.51367 0.57227,-0.22656 1.0039,-2.12109 -0.66601,-1.81641 0.38281,-1.11523 c 0.984,0.40426 1.96309,1.96818 2.12109,2.97656 l 0.60352,0.19531 1.20898,-0.31641 1.28125,0.52149 0.75977,-1.11523 c 1.555,-0.0537 3.24374,0.0498 4.77344,0.3496 l 2.59375,2.82813 1.34765,0.2793 c 1.2971,1.72292 3.19566,2.69424 5.37696,2.29297 l 0.78711,0.75 0.49609,0.0586 1.20117,-0.9375 0.43945,1.21289 3.01172,1.06055 c 0.8021,1.28733 0.59888,3.34133 1.70508,4.26171 3.4471,1.20083 5.02589,1.49569 7.90039,3.47071 1.485,-0.29386 3.28867,-0.41354 4.79297,-0.17188 l 1.36914,1.78125 2.29688,0.35938 c 0.8931,0.76076 4.30578,4.23853 4.58008,4.90234 l 2.52929,-0.51758 c 1.2703,0.70111 4.26915,1.14972 5.68555,1.34961 1.2002,-0.88906 2.40697,-2.51944 2.95117,-3.9082 0.6068,0.0552 5.19013,0.16979 5.98633,0.61133 l 1.50586,-0.31641 0.99219,0.74414 0.16992,0.64844 -1.03321,0.9043 c 0.076,0.94722 2.72371,1.81082 3.47071,1.57812 l 1.17187,1.39844 1.88867,0.60937 0.39063,1.2129 2.13867,-0.68555 0.5,0.63672 0.60547,0.1582 -0.32031,1.86719 1.55469,0.9414 0.55664,-1.75781 c 0.9528,0.44304 1.31596,0.59977 2.03906,1.37695 l -0.96875,1.3711 0,1.03515 c 1.14483,0.88015 2.37582,1.74136 3.5,2.66407 L 628.60547,300.74987 240.46484,41.990104 Z"
     id="path8"
     inkscape:connector-curvature="0" />
 </g>
</svg>
