<?xml version="1.0" encoding="UTF-8" standalone="no"?>
<!-- Created with Inkscape (http://www.inkscape.org/) -->

<svg
   version="1.0"
   width="1024.000000pt" height="1024.000000pt" viewBox="0 0 1024.000000 1024.000000"
   id="svg2"
   xmlns:inkscape="http://www.inkscape.org/namespaces/inkscape"
   xmlns:sodipodi="http://sodipodi.sourceforge.net/DTD/sodipodi-0.dtd"
   xmlns="http://www.w3.org/2000/svg"
   xmlns:svg="http://www.w3.org/2000/svg"
   xmlns:rdf="http://www.w3.org/1999/02/22-rdf-syntax-ns#"
   xmlns:cc="http://creativecommons.org/ns#"
   xmlns:dc="http://purl.org/dc/elements/1.1/">
  <metadata
     id="metadata233">
    <rdf:RDF>
      <cc:Work
         rdf:about="">
        <dc:format>image/svg+xml</dc:format>
        <dc:type
           rdf:resource="http://purl.org/dc/dcmitype/StillImage" />
      </cc:Work>
    </rdf:RDF>
  </metadata>
  <g transform="translate(20.000000,210.000000) scale(0.90,0.90)">
  <defs
     id="defs231" />
  <sodipodi:namedview
     pagecolor="#ffffff"
     bordercolor="#666666"
     borderopacity="1"
     objecttolerance="10"
     gridtolerance="10"
     guidetolerance="10"
     inkscape:pageopacity="0"
     inkscape:pageshadow="2"
     inkscape:window-width="1920"
     inkscape:window-height="991"
     id="namedview229"
     showgrid="false"
     inkscape:zoom="0.054636273"
     inkscape:cx="-2891.8517"
     inkscape:cy="1564.8945"
     inkscape:window-x="-9"
     inkscape:window-y="-9"
     inkscape:window-maximized="1"
     inkscape:current-layer="svg2"
     inkscape:showpageshadow="2"
     inkscape:pagecheckerboard="0"
     inkscape:deskcolor="#d1d1d1" />
  <style
     id="style3">
/*
 * land
 */
.landxx
{
   fill:none;
   stroke:none;
}

/*
 * Union Republics with agreed to form a new union, and continued to favor a new union after the August coup.
 */

.by, .kg, .kz, .ru, .tj, .tm, .uz
{
	fill:#c00000;
	stroke:#ffffff;
	stroke-width:0.7;
}

/*
 * Union Republics with agreed to form a new union, but lost interest after the August coup.
 */

.az, .ua
{
	fill:#ff3f00;
	stroke:#ffffff;
	stroke-width:0.7;
}

/*
 * Union Republics with boycotted all ideas to remain in the union.
 */

.ee, .lv, .lt, .ge, .md, .am
{
	fill:#000000;
	stroke:#ffffff;
	stroke-width:0.7;
}

</style>
  <path
     style="fill:#000000;fill-opacity:1;stroke:none"
     d="m 955.40055,-58.300888 c -0.0669,-0.0089 -0.15308,0.03073 -0.27547,0.15304 -0.97916,0.978447 -3.7648,1.805877 -3.7648,1.805877 l -2.93837,4.070874 -1.1325,0 -3.91783,1.469188 -2.29561,2.295606 -1.62223,2.264997 -0.33669,2.938376 -1.80587,-0.15304 0,1.469187 2.63229,0.64277 -3.12202,2.111957 -0.97946,2.938376 2.93837,0.826418 4.59122,0.306081 3.91783,-0.79581 0,1.958917 -3.91783,2.111957 -2.20379,2.203782 -3.36688,-2.540471 -3.73419,1.163107 -2.63229,-2.632295 -2.265,1.316148 -3.61176,1.622228 -2.93837,3.122024 -5.54006,1.622228 -2.93838,4.223915 -4.07087,1.652836 -3.33628,3.336281 -3.27507,3.244456 -3.51993,2.050741 -4.89729,2.1119572 -2.50986,2.5404704 -5.54006,5.5400622 -4.98912,4.8054683 -1.31615,4.7442521 -2.75473,4.0708748 -0.97945,2.938375 0.97945,2.754727 -2.2956,0 -2.60169,1.469188 -0.33669,3.428105 -2.93837,1.469188 -0.82642,3.091416 0,1.805876 3.27506,0 0.97946,2.295606 4.07088,-0.673378 5.57067,2.448647 1.77527,0.336688 0.97945,2.601687 -0.79581,2.601687 -3.27506,0.826418 -3.58115,1.622228 -2.63229,0.979458 -3.73419,0 -2.44864,-2.448646 2.35682,-2.356822 -3.09142,-3.091416 -1.71405,1.714053 -1.80587,3.244456 2.2956,3.275064 -0.67338,1.958917 1.65284,1.622228 -0.97946,3.917834 -4.10148,2.938376 0,3.244456 -2.11196,2.142566 -2.44864,0 -1.46919,2.754727 0,5.387021 -3.09142,3.091416 0,2.295606 1.56101,1.530404 -3.18324,0 -2.93837,2.38743 -4.10148,1.775269 -4.56061,-4.560604 -2.20378,-2.203782 -4.49939,0.244865 -5.38702,0.826418 -3.09141,3.734186 -3.42811,3.428104 -4.07087,6.029792 0,4.744252 -3.27507,4.070874 -3.09141,3.091416 -3.42811,0.183649 -3.09141,-1.652836 -4.40757,2.448646 c 0,0 0.97931,4.254007 0.48973,3.764787 -0.48958,-0.48922 -3.12202,-3.275058 -3.12202,-3.275058 l -2.265,2.632288 -3.61175,0 c 0,0 -2.19292,-0.74622 -1.1325,-1.80587 1.06042,-1.059656 2.44864,-2.938375 2.44864,-2.938375 l -2.93837,-2.111958 -4.89729,2.111958 -3.42811,1.622228 -1.46919,4.070877 -0.64277,2.2956 0.97946,5.23398 0,3.09142 -2.78533,2.60168 0.82641,-6.36648 -3.09141,-0.97945 -2.44865,2.44864 -2.78533,1.31615 1.1325,-4.40756 c 0,0 3.12202,-1.13351 3.12202,-2.11196 0,-0.97845 -0.67338,-1.65284 -0.67338,-1.65284 l -4.71364,2.14257 -6.0604,2.265 -1.28554,3.76479 -4.5606,2.265 -3.12203,0 -2.11196,2.14256 3.42811,2.11196 0.48973,2.29561 -3.58115,3.24445 0,3.42811 1.95892,1.31614 1.62223,-4.25452 1.1325,0.97946 0,3.58115 2.78533,1.46918 2.44865,2.44865 1.1325,0.64277 -2.44865,2.44865 -3.09141,-0.15305 -1.80588,1.95892 -1.37736,1.37737 3.82601,1.71405 0,2.44864 -3.58115,-0.97945 -3.09142,0.15304 -4.25452,0.97945 -2.2956,4.25453 0.82641,4.22391 -4.07087,0 -3.61175,0.97946 -2.265,-2.265 -4.10148,-0.48973 0,2.93838 2.14256,2.11196 0,2.2956 0.97946,2.44865 1.62223,5.35641 -0.33669,3.12203 -3.73419,-1.95892 -1.46918,1.46919 -3.42811,-0.67338 -2.44864,-1.62223 -3.18325,-3.18324 -3.33628,0.0918 0,-2.60169 c 0,0 -1.46918,-2.28521 -1.46918,-1.46919 0,0.81603 -1.80588,1.62223 -1.80588,1.62223 l -2.29561,-2.29561 1.31615,-1.28554 2.11196,-0.67337 0,-3.58115 -1.62223,-1.62223 -3.09142,1.95892 0,-3.09142 -1.8977,-1.8977 -1.86709,0 1.31615,-3.97905 -3.91784,-1.31614 -1.1631,1.1325 -3.58115,-2.75473 c 0,0 -0.33707,1.5304 -1.56101,1.5304 -1.22394,0 -1.04067,3.0302 -1.04067,3.0302 l -1.31615,0.97946 -1.31615,-1.46919 -1.28554,0.33669 -0.67338,1.95892 -2.60168,-1.80588 -1.71405,-1.71405 -2.02014,1.56101 -1.95891,-1.95892 -0.48973,1.95892 -0.67338,3.73419 2.44864,3.76479 0.48973,3.24446 c 0,0 0.81564,2.93837 0,2.93837 -0.81563,0 -4.40756,0.67338 -4.40756,0.67338 l -3.4281,2.93838 -3.42811,1.28554 -1.95892,-3.09142 -0.48973,1.77527 -0.15304,1.31615 -5.05033,0 -2.69351,-2.69352 1.1325,-1.13249 -1.22432,-1.8671 -4.8973,1.46919 -6.18283,1.1325 -4.10148,2.11196 -2.99959,3.0302 -1.56101,1.5304 2.2956,2.11196 -2.2956,0 -1.95892,-2.75473 0,-3.27506 -1.71405,-1.71406 -2.05074,2.87716 -0.64277,1.95892 -3.27507,-1.31615 -2.75473,-0.64277 -1.95891,0 -2.44865,0.15304 0.15304,2.60169 -0.15304,1.31615 1.95892,0.15304 1.22432,1.22432 -1.56101,3.0302 -2.60169,0.97946 -2.78533,2.265 c 0,0 -0.49018,2.93837 -1.95892,2.93837 -1.46874,0 -4.07087,0.82642 -4.07087,0.82642 l -2.93838,1.77527 0.64277,3.27506 -2.93838,1.31615 0.82642,-2.93837 0.64277,-4.25453 2.69351,-2.69351 1.22433,-3.67297 3.91783,-0.97946 0.97946,-5.05033 2.44865,-2.44865 0.97945,-4.5606 0,-1.62223 3.27507,-3.91783 1.86709,-1.86709 1.56101,-3.18324 1.62223,-2.29556 0,-3.24446 1.86709,-1.8977 -2.02013,-3.48932 -3.27506,-1.80588 -1.31615,-1.28553 3.27506,0.64276 0.33669,-3.4281 -2.20378,-2.20378 -1.71405,-1.71405 -1.16311,1.31614 -1.95892,-1.62222 -1.62222,-3.27507 -1.8671,-1.86709 -2.54047,1.22432 -1.86709,-1.8977 -3.33628,2.38743 -3.27507,0 -3.58114,1.95892 1.46919,1.46919 -0.82642,2.75472 c 0,0 -2.60199,-1.1325 -3.58115,-1.1325 -0.97915,0 -0.82641,-2.11195 -0.82641,-2.11195 l 2.11195,-2.14257 -2.35682,-2.35682 -3.18324,0 -1.01007,1.01007 -5.20337,-0.27548 2.14257,-2.75472 2.50986,-2.54047 -0.73459,-3.33629 -2.44865,0.30609 -3.24446,-1.95892 -2.60168,2.78533 -2.93838,2.11196 -2.44865,6.02979 -0.82641,2.6323 0,3.91783 1.31614,0.94885 0.30608,2.78534 -1.13249,0 -3.7648,1.1325 -3.58114,0 0.97946,1.80587 1.95891,1.46919 1.46919,1.95892 -3.27506,-0.64277 -3.24446,0.64277 -0.48973,2.60168 -5.08094,-0.15304 -2.02013,2.02014 0,-2.35683 1.5304,-2.93837 -2.93838,0.48973 -0.79581,1.80587 -3.61175,0.48973 -4.22391,0.97946 -1.65284,1.62223 2.93838,0.97946 -0.97946,1.1325 -4.37696,1.31615 -1.56101,1.56101 -6.12162,0.88763 -1.71405,1.71405 -4.49939,1.71406 -1.77526,3.73418 -4.59122,-0.15304 0.18365,2.44865 2.265,0.15304 -2.265,1.80587 -1.65283,2.265 1.40797,1.40797 -0.91824,2.02014 1.31614,1.46918 -1.95891,0.48973 c 0,0 -3.9e-4,-2.44738 -1.22433,-1.22432 l -1.86709,1.86709 1.62223,1.65284 1.95892,0.64277 1.62222,2.44865 -1.62222,1.62222 -3.09142,0 -4.25452,1.80588 -6.36648,0 0,0.97946 -3.91784,-1.46919 -7.65202,0 -3.27506,2.93838 0.82642,4.07087 1.28554,1.31615 -1.46919,3.24445 -0.97946,3.91784 1.31615,1.31615 2.2956,3.73418 3.09142,1.1325 -0.15304,2.29561 1.77527,2.44864 -0.64277,2.60169 -4.40757,0 -2.84655,-2.84655 -1.07128,-1.07128 1.1325,-3.24446 -4.22392,-2.29561 -2.20378,-2.20378 -2.69351,0.42851 -3.27506,-0.67337 -1.8671,1.8977 0.24487,1.86709 0.64277,2.11196 -1.95892,1.80587 -2.60168,-2.63229 -1.62223,-1.62223 -3.42811,2.29561 1.1325,3.58114 2.44865,2.44865 0,1.31615 2.93837,1.46918 1.8671,1.8671 1.07128,2.50986 0,1.95892 -2.78534,-2.60169 -2.50986,-2.54047 -2.54047,1.56101 -1.95892,-1.62223 -3.4281,-2.60168 0,-2.93838 0,-4.10148 2.93837,-2.90777 0.64277,-4.25452 0,-4.71365 0.82642,-3.4281 -2.60168,0 -1.16311,2.44865 1.16311,2.75472 -1.31615,3.42811 -1.95892,3.09141 -3.4281,0 -4.07088,4.07088 -2.63229,2.63229 2.38743,2.35682 -0.42852,3.33628 0.97946,3.09142 1.16311,3.61175 -3.27506,3.24446 -1.46919,4.25452 -2.265,3.58115 0.45912,5.20337 -1.92831,1.95892 0.48973,3.12202 2.90777,0 1.31615,1.77527 2.44864,-1.1325 1.8671,-1.86709 2.2956,2.265 4.00966,1.37736 1.28554,1.31615 2.14256,1.95891 1.62223,3.27507 -1.1325,2.60169 0.97946,3.09141 -0.97946,2.11196 -2.63229,0.82642 0.33669,2.93837 0,1.95892 1.37736,1.37736 3.67297,1.07129 0,2.26499 -3.73419,-0.79581 -3.27506,-3.27506 0,-2.44865 -0.15304,-3.91783 2.60169,-2.60169 -1.95892,-5.05033 -1.56101,-1.56101 -1.04068,-3.18324 -3.76479,0.48973 -3.42811,0 -2.20378,2.20378 -2.20378,2.20378 0.33669,3.12202 0.79581,3.3975 -0.97946,3.91783 -2.02013,2.05075 -2.54047,2.50986 -1.46919,1.46919 0,3.4281 -3.24446,1.80588 -4.10148,1.1325 -0.97946,0.97945 -2.11195,0 c 0,0 -2.36715,1.06143 -1.71406,1.71406 0.6531,0.65262 -0.58155,2.84655 -0.58155,2.84655 l -2.93838,0 -1.95891,-2.75473 -2.75473,0.15304 -3.27506,-2.265 -2.44865,-1.1631 -2.44865,-3.73419 0,-3.12202 2.44865,0.82642 1.71405,1.71405 2.69351,1.71405 2.44865,-1.62223 4.07087,0.79581 2.29561,-1.28554 2.44865,-3.61175 4.25452,-4.22391 3.58114,-0.97946 0.64277,-6.02979 3.58115,-2.78534 0.48973,-2.60169 -2.84655,-2.84655 -1.22433,-4.31574 1.31615,-3.12202 1.77527,-6.18283 1.16311,-7.00925 3.24445,-4.89729 0.82642,-4.40757 0.97946,-5.54006 -2.78534,-2.44865 1.31615,-4.22391 4.65243,-4.65243 0.73459,-5.96857 1.62223,-1.62223 -1.46919,-5.54006 -3.4281,0 -1.95892,-1.95892 -3.91783,0 -1.95892,-2.78534 -3.09142,1.65284 -1.77526,3.88723 -1.65284,3.91783 -2.11196,4.74425 -2.78533,2.75473 -1.22433,1.22432 -3.48932,1.71405 -3.27506,1.16311 -1.80588,2.265 -1.1325,3.27506 2.11196,0.64277 0,2.44865 -1.46919,1.95892 -0.79581,3.91783 0,2.60169 -3.27506,1.62222 -1.56101,1.56102 1.71405,3.48932 3.12202,2.14256 -0.67337,4.56061 1.80587,4.22391 2.60169,0.82642 -3.73419,3.4281 0,3.42811 -3.27506,1.95892 -2.265,-3.61176 0,-3.24445 -2.78533,-3.7648 -2.60169,-4.07087 -3.85662,-3.82601 -2.02013,-4.1627 -3.12203,-3.09142 -3.82601,-3.82601 -3.33628,-4.16269 -1.31614,1.28554 -3.0302,-2.9996 -2.50987,0.7346 -2.93837,1.46919 0.48973,4.71364 -0.64277,3.91783 -3.12203,0.48973 0,2.60169 -3.24445,-0.79581 -1.40797,1.37736 -0.24487,2.99959 -3.09141,-2.60168 0,-2.75473 2.60168,-1.80588 0.48973,-2.26499 -1.71405,-1.71406 -4.31574,1.37737 -3.4281,0 -1.71406,1.71405 -5.05033,-5.05033 -4.65243,-0.91825 -4.89729,2.14257 -2.60169,0 -3.76479,-3.4281 2.44865,-0.82642 0.97945,-2.93838 3.09142,0 -1.1325,-4.22391 -2.78533,0 -5.20338,1.62222 0,2.93838 -1.65283,0 -1.77527,-3.27506 -3.61175,0 -6.18284,-0.79581 -3.4281,0.64277 -6.36648,-1.1325 0.64277,2.60168 -4.07088,-1.95891 -4.25452,0.97945 0,2.93838 -4.07087,1.95892 -3.58115,-1.62223 -3.76479,-0.97946 0,-3.27506 -1.31615,-3.91784 0,-4.22391 5.23398,-1.80588 3.42811,0.82642 2.44864,2.44865 1.46919,-1.46919 0.97946,-2.93838 0,-5.72371 -2.78534,-4.22391 -3.67297,-3.67297 -0.88763,-2.05074 -2.78533,0 0.67337,3.91783 0,4.07087 -4.10148,2.44865 0,2.6323 -4.22391,2.11195 -1.31615,2.75473 0,4.10148 -3.27507,4.71365 -3.91783,0.82641 -2.84655,2.84656 -2.02013,2.54047 0,-3.61176 2.26499,-2.26499 -2.75472,-4.25453 -1.8977,-1.86709 -2.9996,0 -4.40756,1.37736 -3.91783,-2.11195 -4.74426,1.80587 -5.05033,-0.82642 -0.18365,5.69311 -2.75472,2.2956 1.1325,2.78534 -1.37737,1.37736 -4.65243,-1.37736 -1.80587,-3.7648 -2.84655,-2.84655 -0.88764,-4.80547 -0.97946,-7.34593 -2.78533,0 -2.78534,2.93837 0,2.75473 -0.30608,3.61175 2.11196,2.11196 -0.82642,4.07087 -4.07087,2.93838 -3.58115,-3.58115 -3.36689,-3.36688 2.38743,-4.1321 -1.46918,-4.25452 -0.97946,-3.4281 2.99959,-2.99959 1.22432,-5.78493 3.18324,-3.18324 4.00966,-1.22432 2.29561,-5.05034 0.64277,-3.61175 -2.35683,-2.35682 1.77527,-1.80588 -0.0612,-4.13209 -0.67338,-3.61175 1.56101,-1.53041 1.07128,-2.87716 2.265,2.29561 -1.86709,1.86709 -0.7346,3.67297 2.29561,0.97946 1.1325,6.02979 2.11196,3.61175 1.1631,3.24446 1.43858,3.42811 3.12203,3.09141 0,4.40756 2.99959,3.0302 4.83608,2.69352 4.40756,1.62222 5.05033,-0.97945 4.5606,0 4.31574,-4.31574 2.87716,-4.98912 0.64277,-5.87675 0.15304,-3.58115 -2.84655,-2.84655 -0.0918,-4.98911 -0.97946,-2.265 0.82642,-4.07088 0,-4.74425 -1.31615,-4.5606 -2.6629,-2.69351 0,-3.82601 -2.38743,-1.1325 0,-3.42811 -2.11196,-2.14256 -2.78534,-1.46919 0,-3.09142 -0.79581,-3.09141 1.71406,-1.71405 1.86709,1.86709 1.80588,1.16311 -0.82642,-2.93838 0,-2.63229 -3.91784,-0.15305 -2.78533,0.33669 0.70398,-3.4281 -2.81594,1.95892 -2.29561,-2.29561 -2.75472,0 -4.74425,-1.77527 -6.85621,3.3975 -5.20338,2.63229 0,8.78452 -2.63229,4.59121 -8.3254,0 -4.95851,4.95851 -0.42851,3.0302 -6.02979,11.23317 -2.78534,-1.28554 -5.6931,4.5606 -2.60169,0.15304 0,5.54006 -2.93837,1.16311 0,4.22391 -3.91784,3.09142 -4.59121,0 -1.1325,10.77404 0,4.25453 -6.85621,2.41804 -36.54604,0.18364 2.11196,2.44865 3.58114,1.46919 -0.79581,0.79581 -2.63229,0.67338 0,5.54006 2.93837,2.60168 0.33669,4.74426 -1.95892,1.92831 -1.31614,-3.24446 -1.28554,-2.93838 -3.61176,-1.1325 -2.26499,-2.44864 -2.78534,-1.31615 -1.46919,1.46919 -2.26499,-1.1325 -1.65284,0.33669 -1.37736,-2.6323 -1.22433,-2.11195 -0.73459,-2.93838 -1.37736,-2.20378 -2.14257,-2.44865 -2.265,-0.48973 -1.40797,-2.93837 -1.86709,-0.48973 -0.97946,-1.71405 -2.78534,-1.62223 -1.95891,-0.24487 -1.8671,-2.35682 -1.86709,1.37737 -1.25493,1.07128 0,1.8977 -1.19371,1.19371 -0.88764,-0.88763 -1.56101,0.97946 -0.73459,2.35682 -1.22433,0.73459 0.82642,1.37737 0.48973,1.71405 0.97946,0 1.37736,1.16311 -1.37736,1.37736 -1.31615,0.79581 -1.71405,1.59162 -2.32622,0 -1.10189,1.10189 -2.05074,0.67338 -1.71405,2.69351 -2.11196,1.1325 -3.27506,-0.88764 -1.46919,-0.33668 -1.5304,-1.56102 0,-0.97945 -1.07129,-1.04068 1.19372,-1.77527 1.59162,-1.59162 -0.42851,-1.71405 0,-2.02013 -0.48973,-1.62223 2.44864,-1.31615 0.48973,-1.95892 -2.35682,-0.82641 -1.86709,-0.30608 0,-1.62223 -3.91784,0 -2.69351,0.55094 -1.22432,1.37737 -2.693512,0.0918 -2.356822,-0.3979 -0.581553,1.1325 -1.805877,0.48972 -1.10194,1.98958 -1.10189,1.10189 -1.377364,-0.39791 -2.050741,0.64277 -1.316148,1.31615 -1.989525,1.98953 -2.020133,0.30608 -0.857026,2.75472 -1.561012,0.42852 -1.377364,-0.42852 -1.377363,-0.82641 -1.316147,0.42851 -1.101891,1.10189 1.285539,1.25493 -0.520337,1.86709 -2.326214,-0.3979 -0.336689,-1.98953 -1.499796,-0.45912 -0.06122,-2.50986 -1.836485,-1.83648 -1.989525,-0.30609 -0.826418,1.59162 -2.173173,0.64277 -2.540471,-0.58155 4.77486,10.92708 8.233573,9.79459 0.275473,2.35682 0.94885,3.06081 -1.071282,1.98952 -2.479255,2.47926 -4.101482,3.73418 -2.693511,4.40757 -4.009658,4.00966 -3.244457,-1.37737 -1.193715,-1.80587 -3.213848,0.61216 -1.714052,0.88763 0.15304,3.7954 -1.714052,1.71406 -4.101483,2.11195 -3.734185,2.90777 0,2.44865 -1.714053,3.33628 -1.438579,1.1325 -1.928309,1.95891 -1.346756,2.11196 -2.448646,0.85703 -2.509862,-1.74466 -2.754727,-0.21426 -12.42688,0.12243 -2.326214,2.96899 -2.050741,2.08135 -3.0608079,-1.4998 -3.7647936,1.10189 -1.3161474,1.22432 -2.4180382,-1.04067 -0.4591212,2.69351 -0.73459383,2.32621 L 0,265.93048 l 1.0100666,3.18324 2.8771593,1.1325 1.6222282,3.21385 1.3161473,4.10148 3.2750646,4.95851 -1.0406749,4.04027 2.9383759,0.73459 2.54047,0.70399 3.519929,2.69351 1.346756,3.0302 3.703577,0.0918 3.82601,-0.33669 0.306081,0.21426 -0.214257,0.18365 0.397905,7.56019 -3.734186,2.69351 -0.79581,1.92831 -0.428513,2.99959 -1.867092,2.87716 0.122432,6.33588 -3.550537,4.10148 -6.0604,1.68344 -1.7446601,4.56061 -2.9383755,-0.33669 0.3060808,3.30567 0.091824,0 0,0.0612 -0.2142565,-0.0306 -1.2243232,1.46918 1.4385797,5.05034 4.5912118,0.58155 2.448646,2.29561 0.48973,2.93837 1.989525,-3.45871 1.989525,-1.68344 0.122432,2.2956 2.479254,-0.3673 1.346756,1.01007 0.765202,1.34676 5.387022,-0.79581 2.111957,-0.52034 3.366889,-0.88764 2.509862,0.21426 1.561012,1.74466 2.142565,0.7652 1.59162,1.19372 1.469188,0 1.346756,-1.34676 1.10189,-2.32621 0.673378,0.67338 -1.040674,1.04067 -0.857027,1.83649 -0.979458,2.20378 0,1.71405 2.326214,0.97946 -1.836485,0.85702 -1.224323,-1.22432 -0.979459,-0.73459 -0.979458,1.25493 -3.213848,-0.3673 1.254931,5.38702 1.59162,2.17318 1.346755,0.73459 1.040675,1.04068 0.918242,-1.04068 1.040675,1.04068 1.346756,1.34675 0.06122,1.40797 1.040674,1.04068 0.857027,0.85702 0,1.04068 -1.775269,0 -1.836485,0.24486 -1.040674,-1.04067 -1.652837,-1.04068 -0.673377,1.77527 -2.23439,-0.61216 -1.928309,-0.61216 -2.877159,0.18365 2.571078,2.72412 1.224323,2.32621 -0.09182,1.31615 0.612162,2.2956 -0.306081,2.47926 -1.867093,2.20378 -1.561012,1.59162 -2.509862,-0.0306 0.64277,2.14257 0.612161,2.17317 0.826418,2.02013 2.509863,0.0612 5.050332,-0.88764 1.163107,1.16311 2.632295,1.04068 2.448646,0 3.060808,0 1.224323,2.57107 0.612162,1.71406 3.550537,2.20378 3.18324,0.61216 1.224323,-1.95892 2.571079,0.3673 -2.448646,-2.69351 c 0,0 -0.612467,-2.44865 -1.591621,-2.44865 -0.979153,0 -2.69351,-0.48973 -2.69351,-0.48973 l -3.183241,-1.71405 -2.326213,-3.55054 1.346755,-2.20378 0.734594,-3.18324 -0.489729,-2.93837 c 0,0 -1.346756,-0.85766 -1.346756,-1.46919 0,-0.61154 0.612162,-3.06081 0.612162,-3.06081 l -1.59162,-1.56101 0,-2.44865 1.10189,1.10189 1.407972,1.40798 1.040675,2.35682 1.530404,1.5304 2.509862,0.79581 2.938376,0.7346 1.836484,-0.7346 0.489729,2.08135 2.326214,0.24487 3.060808,-0.12244 0.979459,0.97946 1.346755,2.44865 4.285131,0.3673 1.714052,1.71405 3.795402,0.48973 1.163107,1.1631 2.999592,0 1.683444,1.68345 1.714052,1.71405 1.683445,0.33669 1.958917,0.64277 1.805876,1.80588 2.785335,0.64277 1.958917,1.46918 -0.673377,2.93838 -2.754727,-1.1325 -3.764794,-0.48973 -2.295606,-0.97946 -1.469187,1.46919 -1.958917,-1.80588 -1.775269,-1.28554 -1.958917,-0.33669 -0.673378,2.11191 1.316148,2.44865 -0.48973,4.07087 -2.448646,-0.79581 -1.958917,0 -3.764793,0.15304 -2.754728,1.1325 -1.163106,2.44865 -2.418039,-0.82642 -2.632294,-3.24445 -1.958917,0.33668 -1.775269,1.77527 0.79581,3.27507 -0.979458,2.93837 1.316147,2.60169 1.958917,1.80588 -0.336689,4.86668 1.652836,2.44865 1.28554,2.78533 0.673377,5.54006 -0.489729,7.49898 1.285539,3.91784 1.010067,3.61175 -0.918242,3.76479 4.13209,4.13209 -0.703986,3.7648 1.163107,3.91783 0,3.15263 -2.234389,2.23439 -1.28554,3.94845 -3.213848,2.84655 -3.060808,1.1631 1.928309,1.92831 3.091416,0 1.989525,4.43817 1.958917,-1.07128 3.581145,7.71324 -1.958917,1.95891 1.958917,4.28513 0,2.17318 -1.958917,3.21385 -2.509862,0.36729 -1.43858,3.21385 -2.142565,1.43858 6.886817,7.25412 -1.346755,4.04026 1.897701,1.86709 0.520337,0.12244 0,9.4885 3.764794,0 0,5.6625 0.857026,0 -1.101891,1.13249 1.59162,2.50987 3.611753,0 1.958917,1.25493 5.387022,-0.55095 3.213848,-1.07128 1.989525,1.43858 4.285129,-0.73459 3.24446,1.62222 0.88763,3.7648 -1.8977,1.86709 -1.77526,1.80588 0,1.86709 -4.040273,-1.07128 -0.703986,4.13209 2.509863,2.50986 0,4.46878 3.030206,1.07128 2.14256,-2.84655 0.55095,-3.24446 2.87716,-0.70398 1.5304,-1.5304 0.79581,2.41803 1.86709,-1.86709 3.15263,-1.16311 0.52034,-3.4281 3.94844,-2.14257 2.69351,-2.69351 4.49939,0.55095 2.32622,2.32621 2.14256,0 0,-2.87716 -3.06081,-2.14256 -1.40797,-2.69351 -0.91824,-5.17277 1.43858,-5.38702 0,-4.83608 0.82642,-3.51993 -1.4998,-1.49979 -0.30608,-5.20338 0.64277,-4.25452 -0.97946,-5.54006 0,-4.5606 3.58115,-5.87675 1.65283,-1.46919 0,-1.1325 1.8671,-1.8977 0.73459,-2.84655 0.82642,-3.09142 -0.97946,-3.09142 -1.71405,-1.71405 0,-2.69351 1.65283,-1.68344 2.02014,0.55094 3.39749,-0.97946 3.12203,0 2.75472,-3.27506 2.29561,-0.97946 0,-2.2956 2.93838,0.48972 1.13249,1.16311 2.44865,0.64277 c 0,0 -0.32568,1.22432 1.22432,1.22432 1.55001,0 3.51993,-0.24486 3.51993,-0.24486 l 1.46919,0 1.80588,0 2.265,0 2.78533,-0.33669 1.62223,-1.62223 2.78533,-1.1325 0,2.11196 2.265,-1.1325 2.78534,1.28554 5.05033,-0.94885 5.57067,0.94885 4.40756,0.33669 1.77527,3.58115 3.7648,6.36648 1.77526,-1.77527 4.10149,1.62223 1.86709,5.14215 -2.11196,2.11196 -3.0302,2.99959 -1.77527,3.61175 -3.12202,1.28554 -2.265,2.78534 2.11196,3.73418 -0.88764,0.91825 -3.85661,-3.82601 -5.54007,-3.12203 -4.07087,-1.5304 -4.34635,0 -2.35682,2.35682 0,5.20337 -2.78533,0 -2.44865,-3.24445 -2.11196,-2.11196 -3.24445,0 -1.07129,2.50986 4.46878,4.49939 -2.41804,5.54006 0.94885,5.54007 -3.24445,3.91783 2.60169,1.77527 1.07128,5.63188 2.11196,2.14257 2.54047,2.50986 -2.20379,4.1627 -3.51992,3.48932 -0.97946,2.29561 -0.12244,2.32621 -2.35682,4.25452 0.70399,2.44865 2.265,-2.23439 2.32621,-2.44865 2.14257,-3.0608 2.57107,1.28554 2.60169,-0.70399 2.57108,2.60169 1.31615,2.11195 -0.61216,3.3975 -1.8671,3.76479 0.88764,3.24446 1.68344,1.68344 1.07128,4.25453 -2.11195,2.11196 -1.8977,-0.94886 -1.71406,-0.79581 -1.43858,1.43858 -2.90776,0 -2.17318,-2.17317 0,-2.35682 -2.23439,0.61216 -0.33669,-1.77527 -1.77526,0 -1.16311,-2.47925 -0.55095,-1.92831 -6.51952,6.51952 -1.65283,2.81594 0.12243,2.44865 0.88763,8.17236 1.46919,-4.37696 1.92831,-0.0918 1.68344,2.23438 2.69351,0.3673 -1.86709,2.6323 -4.74425,1.62222 -1.16311,3.18324 2.20378,0.67338 2.60169,-1.46919 1.80588,-0.55094 -3.09142,3.12202 -0.91824,2.75473 1.92831,1.56101 0.82642,3.58115 -3.21385,2.57108 -2.11196,3.51993 -2.60169,3.58114 -1.8977,3.36689 -1.59162,5.66249 3.36689,0.0612 1.46919,1.5304 4.9279,0.55095 1.92831,-2.41804 2.54047,-0.21426 1.01007,-1.37741 7.16229,0.52034 1.37736,1.5304 1.46919,-0.48973 0.52033,1.83649 2.17318,0 0.88763,2.14256 1.56101,-0.64277 0.7346,-2.05074 1.5304,-0.58155 0.97946,1.92831 1.83649,1.40797 0.97945,0.88763 3.09142,0.0306 -0.39791,4.37696 1.43858,1.49979 2.60169,0.97946 2.81594,3.12203 0.48973,3.21384 3.55054,1.07129 4.9279,2.54047 2.41804,3.15263 -1.40797,2.6629 1.46919,2.72412 2.32621,1.1325 1.59162,2.57108 1.10189,6.70317 4.59121,0.64277 4.9279,2.47925 -0.61216,5.32581 -3.09141,3.21385 -0.45913,6.4583 1.92831,3.48932 3.58115,1.01012 3.09141,1.43858 -0.33668,3.94844 6.58073,0.21426 4.34635,-1.71406 1.43858,-3.30567 17.8139,-0.0918 2.50986,-2.02014 -0.82642,-3.27506 4.28514,-2.23439 0.30608,-3.06081 5.29519,-0.7652 1.19372,1.8977 3.15263,0 1.04068,-1.68345 0.97945,-1.71405 1.98953,-0.21425 2.02013,2.78533 1.22433,3.0302 3.88722,-0.18365 5.05033,-5.75432 -4.62182,5.38703 1.1019,1.5304 2.84655,-0.33669 3.33628,1.95892 0.48973,1.01006 0,0.24487 0.12243,0 0.58155,1.19371 3.88723,0.97946 0.85702,0.39791 0.88764,-0.0612 0.21426,-1.10189 0.0306,0 -0.24486,1.10189 -0.0612,0.27547 -1.86709,1.56102 1.71405,1.71405 0,2.63229 1.8671,0.45912 1.56101,-1.22432 4.04026,-0.30608 1.8671,-2.32621 4.34634,1.07128 -0.45912,3.27506 2.78534,2.17318 2.47925,-1.8671 0,-4.80546 4.68304,-0.18365 4.34635,3.27506 1.07128,-0.7652 0.94885,-2.6629 -0.15304,-3.70358 4.04026,-1.56101 2.32622,-2.17318 4.49939,-0.15304 0.45912,3.24446 2.96898,1.56101 -4.04027,4.04027 4.19331,0 -2.11196,3.39749 -1.40797,4.80547 -2.38743,1.74466 1.25493,5.11155 1.37737,2.96899 4.68303,-1.71406 7.92749,-0.94885 4.95851,-1.8977 3.73419,-1.95891 2.78533,1.95891 -0.61216,2.84655 5.75432,-0.79581 3.42811,-2.05074 2.02013,3.45872 4.34635,1.25493 2.93837,-1.40798 -1.5304,-3.30567 -2.02014,0 2.32622,-2.2956 -1.10189,-2.17318 0.79581,-5.72371 0.15304,-4.04026 -3.12203,-1.40798 -3.09141,-1.71405 -2.35682,2.6323 -2.02014,-2.32622 -0.7652,-2.93837 2.47926,-1.8671 -2.02014,-4.04026 0.94885,-1.71405 -0.18365,-0.88764 2.47926,0.0918 1.5304,-1.62223 -1.74466,-2.14257 1.92831,-2.60168 1.8977,-1.1325 4.46878,-0.27547 2.93838,-0.7346 0.91824,-1.8977 1.8977,-1.77527 2.20378,1.34676 5.87675,-1.95892 -1.46919,3.88723 3.82601,2.81594 3.27507,-1.34676 2.20378,1.04068 3.58115,-3.85662 3.30567,-5.23398 1.43858,1.65284 3.09141,-0.39791 1.25493,1.28554 2.32622,0.45912 2.17317,-1.28554 2.81595,2.32622 5.41763,-7.22351 13.31451,-3.67297 4.89729,-0.18365 1.56101,-1.71405 0.15304,-3.21385 -1.1631,-1.86709 1.07128,1.59162 0.24486,-2.29561 -0.67337,-3.55053 1.04067,-1.65284 1.65284,-0.30608 2.60168,-1.22432 -0.79581,-2.6323 3.24446,0.21426 0.52034,-4.65243 -0.91824,-3.24446 -1.1019,-3.64236 -1.10189,-3.64236 -0.30608,-3.73419 1.4998,-2.69351 2.20378,-2.35682 -5.93797,-0.85702 -1.25493,-1.04068 2.29561,-1.43858 1.34675,-1.40797 1.8671,1.92831 0.67337,-1.65284 6.67257,-0.52033 2.32621,-1.59162 4.98916,0.70398 -0.21425,1.98953 2.265,0.70398 2.90776,-0.7652 1.1325,1.8977 1.80588,-1.07128 0.73459,-1.98953 -0.3979,-1.95891 -2.93838,-0.15304 1.25493,-4.92791 3.0302,-7.46837 3.64236,-4.28513 1.40798,-3.4281 -0.45913,-3.73419 7.31534,3.48932 3.58114,1.22433 6.0604,-1.07129 0,4.22392 4.49939,-4.07088 3.27506,0.0306 2.90777,-3.0608 -0.45912,-10.34553 2.11196,-3.48933 1.71405,-1.5304 5.23398,0.21426 2.57108,-2.60169 1.22432,-6.58074 4.28513,-1.01006 4.71365,0.82641 2.14256,-2.14256 4.07088,-2.265 4.89729,0.15304 2.69351,-2.69351 3.82601,-0.88763 0.64277,-3.42811 3.27506,0 3.27507,-3.27506 5.38702,-3.3975 4.22391,0 1.16311,-3.4281 3.58115,0 2.84655,-2.87716 3.51993,1.56101 2.75472,2.78533 4.40757,-1.80587 3.76479,1.1325 3.09142,3.12202 2.63229,2.60169 4.71364,1.62223 3.27507,0.97945 4.5606,-0.82641 4.40757,1.1631 4.74425,0 3.09141,0 3.67297,-3.67297 3.82601,-2.54047 0,-3.91783 -2.84655,-2.84655 0,-3.67297 -2.05074,-2.44865 0.67338,-4.22391 2.20378,-2.20378 2.02013,-4.1627 2.54047,-2.54047 1.8671,-1.8671 3.76479,2.78534 6.36648,0 3.18324,3.18324 4.65243,-1.22432 4.07087,0 4.25453,1.62222 2.99959,3.0302 2.38743,4.95851 2.50986,2.54047 4.00966,1.71406 5.87675,0.48972 4.07087,-1.1631 4.25453,-0.97946 3.82601,-3.82601 4.65242,0 7.49898,-1.07128 2.29561,1.46918 5.6931,0.82642 6.21344,0 2.29561,2.29561 1.28554,2.44864 4.40756,1.46919 4.89729,-0.67338 6.70317,0 4.71365,-1.46918 5.23398,0 2.05074,-2.02014 3.97905,-4.00965 5.23398,-2.44865 3.76479,-2.60169 2.84655,-2.84655 1.37737,-4.80547 2.44864,-2.44864 3.42811,-3.42811 4.07087,-1.80587 3.12203,1.13249 3.4281,1.80588 4.56061,-2.60164 3.27506,-1.95891 4.40756,0.82641 6.02979,0.45913 5.38703,-1.92831 3.18324,-3.18324 2.20378,-5.14216 3.4281,-0.97946 0,-4.5606 -1.46918,-1.46919 -2.44865,-4.74425 1.77527,-4.56061 0,-4.40756 0.97946,-7.00925 1.31614,-2.78533 -1.31614,-5.20338 -2.265,-2.2956 -2.05074,-2.02014 -2.54047,2.02014 -1.77527,-2.265 1.28554,-3.27507 1.80587,-5.38702 2.54047,-2.50986 5.14216,-3.0302 2.60169,-2.60169 5.54006,-4.07087 4.10148,0 3.73419,-1.31615 4.89729,0.82642 3.91783,-2.11196 3.42811,0 6.51952,0.64277 1.95892,1.95892 3.27506,1.46919 1.31615,3.4281 3.58114,0.97946 2.60169,2.60169 3.76479,2.93837 1.62223,3.91784 3.91784,0.64277 c 0,0 3.09141,2.43781 3.09141,3.09141 0,0.6536 2.78534,2.29561 2.78534,2.29561 l 2.35682,2.35682 2.05074,4.00966 4.89729,0.97946 4.8973,-1.80588 1.80587,-1.80588 4.37696,0 4.74425,-0.64277 3.09142,0.82642 3.76479,0.97946 1.86709,-1.8977 3.51993,0.91824 2.11196,2.11196 2.63229,2.2956 0,3.73419 2.265,0.82642 3.12202,1.77527 3.09142,0 0.82642,-2.93838 2.90777,-0.97946 3.4281,-1.92831 3.42811,-2.78533 -1.28554,-4.07088 2.93837,-3.76479 2.60169,-4.22391 0.97946,-3.27507 3.91783,-2.11196 2.78534,0 0.64277,2.11196 2.35682,2.35682 2.05074,2.05075 0,3.58114 -2.44865,2.44865 3.27507,3.4281 0.79581,3.58115 1.80587,3.09141 -0.64277,2.6323 2.265,3.09141 0.33669,3.73419 1.62223,3.61175 -1.28554,3.42811 2.60169,4.07087 -1.46919,2.93838 -2.35682,2.35682 -2.69351,-0.88764 -2.6323,1.28554 -2.265,2.29561 0,3.24446 -1.80587,1.80587 -2.05074,2.05074 0.0918,3.15264 2.93838,0.97945 3.09141,3.12203 1.46919,3.73418 1.80588,1.80588 3.51993,3.48932 1.68344,3.85662 0,3.24445 -1.92831,3.91784 -1.16311,3.76479 1.31615,1.28554 3.09142,0.15304 0,-2.60168 0,-1.62223 1.37736,-1.37737 0.91824,-3.18324 -0.67338,-2.78533 0.67338,-4.07088 0,-1.62222 2.11196,2.11195 1.37736,1.37737 0,-2.99959 1.22433,-2.78534 1.22432,1.22432 0,2.20378 2.38743,0.97946 3.4281,-1.95891 4.07088,-1.62223 2.11196,0 2.44864,-4.56061 2.14257,-4.59121 3.24445,-5.35641 0,-3.76479 0.33674,-7.83567 -0.97946,-6.02979 0.97946,-5.87675 0,-7.80506 0,-6.36648 0.97946,-3.27507 0,-6.18283 -0.97946,-6.36648 -0.97946,-4.71365 -1.31619,-5.23398 -1.77527,-4.71364 0.15309,-6.0604 -1.80593,-5.84614 0.97946,-5.87675 0,-6.85621 -2.50986,-2.50987 -3.0302,-4.65242 -0.82642,-2.29561 -2.265,-3.91783 -3.27506,-3.24446 -0.82642,-2.78534 -1.62223,-1.62222 -4.1627,-4.1627 -3.33628,-4.80547 -2.14256,-6.51952 -0.48973,-6.21344 -1.62223,-3.09142 -1.5304,-1.56101 -3.0302,0.42851 -2.44865,-2.44864 -0.64272,-2.11196 -2.93838,0 -2.78533,0 0.97946,-1.80588 1.1325,-1.13249 1.56101,-1.56102 -2.05074,-2.05074 c 0,0 -2.27578,0.97946 -3.09142,0.97946 -0.81563,0 -4.5606,0.67338 -4.5606,0.67338 l -1.56101,-1.56101 -3.51993,-0.39791 -4.22392,0 -3.58114,0.79581 -1.80588,1.80588 -2.93838,1.62223 1.80588,3.27506 1.46919,2.75473 1.5304,1.56101 -0.3979,2.69351 -1.80588,-1.31615 -1.1325,0.97946 -1.80587,2.44865 0,1.62223 -3.24446,1.31614 0,-2.11195 0,-2.93838 -0.97946,-0.97946 -0.97946,0.33669 -1.95891,-1.46919 0,-1.65283 -1.80588,1.95891 0,2.44865 2.2956,0.97946 0,2.60169 -1.71405,1.71405 -1.95891,-1.95892 -1.56102,-2.84655 0,-2.11196 -1.95891,-0.97946 -1.62223,-1.62222 -2.38743,2.35682 -2.11196,2.11195 -2.69351,0 -1.92831,1.92831 -2.47925,0 -1.46919,-3.30567 1.31615,-3.58114 0,-4.07088 2.44864,-4.10148 0,-4.5606 1.46919,-5.54007 0,-4.40756 0,-3.91783 -1.65284,-1.77527 0,-5.57067 0.97946,-4.07088 0,-5.87675 0,-4.37695 1.95892,-3.27507 -2.265,-2.265 -1.46919,-3.76479 0.79581,-5.23398 2.44865,-2.41804 -2.60169,-5.23398 0.48973,-5.38702 2.78534,-5.54006 2.75473,-2.75473 2.63229,-4.40756 2.35682,-2.38743 3.67297,-3.64237 3.76479,0 2.75473,-1.80587 -0.97946,-0.97946 -1.28554,-2.11196 1.95892,-1.80587 1.95892,0 2.265,-2.11196 2.54047,-2.54047 -1.07129,-3.48932 3.42811,1.28554 2.11196,-2.265 -1.77527,-1.80588 -0.82642,-3.09141 0.82642,-2.44865 2.11195,-2.11196 2.60169,-0.67338 2.29561,-2.75472 4.5606,-2.11196 0,-1.46919 3.12202,-0.48973 2.93838,-1.1631 1.22432,1.22432 -2.69351,0.91824 -0.67338,2.11196 0,2.11196 c 0,0 2.20356,0.73534 1.46919,1.46918 -0.73437,0.73384 3.12203,-0.15304 3.12203,-0.15304 l 1.1325,-3.09141 0,-3.42811 3.09141,-1.31614 0.48973,-2.44865 -1.1325,-5.6931 4.89729,-0.82642 0,-4.40756 2.60169,-0.79581 0.18365,-3.12203 -2.44865,0 -1.40797,1.40797 -1.86709,1.71406 -2.11196,0.30608 -2.2956,-2.265 0,-2.93838 -2.69352,-2.69351 -0.88763,-6.4583 0,-4.86669 -2.93838,-4.59121 0.48973,-4.5606 -2.93837,-1.95892 -0.18365,-7.16229 1.80588,-2.11196 1.46918,-5.38702 0,-2.60169 4.40757,0 1.31615,-3.91783 -1.31615,-3.61175 4.5606,4.25452 1.31615,2.78534 1.62223,1.62222 2.44864,2.44865 0,-4.07087 2.93838,1.43858 1.31615,3.27506 1.13249,-3.76479 -0.33668,-6.18284 -1.62223,-3.91783 0,-5.20337 -2.02014,-2.05074 1.53041,-2.20379 1.46919,0.15304 0.33669,-2.11195 -3.27507,0 -2.69351,-2.69351 -2.84655,-2.84656 -1.95892,-1.80587 0.97946,-2.60169 0,-3.4281 3.58115,-1.95892 2.54047,-2.50986 1.07128,1.04067 -3.12203,2.93838 0,3.76479 3.42811,2.11196 2.29561,2.93837 1.86709,1.8671 2.05074,0.73459 2.11196,0 2.11195,4.07088 1.95892,1.95891 0,2.78534 0,2.265 -1.1325,3.91783 0.15304,3.27506 1.95892,1.62223 1.95892,6.02979 1.65283,4.10149 1.46919,5.05033 1.28554,5.38702 3.12202,4.07087 1.95887,6.0298 0.79591,5.20337 1.65274,4.89729 -1.22433,1.22432 -1.46918,1.46919 1.5305,2.69351 -1.13255,2.44865 -1.37736,1.37736 0,1.40797 2.99964,0.64277 2.78528,3.91784 0.48973,3.73418 2.265,2.29561 0.0304,3.4281 3.24456,3.42811 4.7442,4.71364 2.11201,3.91784 4.40751,2.93837 4.5606,2.44865 7.0398,2.11196 3.2445,0.64277 2.9383,1.95891 1.806,2.44865 6.1827,3.27506 5.387,2.265 5.7238,2.6323 2.9384,2.93837 3.2751,0 2.3567,2.35682 3.0303,1.53041 4.7135,0 1.806,2.44864 0,-3.24445 -0.8265,-4.40757 -1.6222,-6.85621 -0.6427,-5.20337 -3.1221,-2.93837 -4.2238,-4.25453 -2.7854,-1.1325 -1.6222,-5.87675 1.2854,-2.93837 0,-2.93838 3.6119,-0.48973 0,-1.95891 -4.7443,-1.1325 -1.3773,-1.37737 -2.8773,-1.07128 -3.2443,-5.05033 -1.1632,-6.51952 1.6529,-3.58115 2.7546,-1.80587 1.9589,-1.31615 -1.1324,-2.90777 -3.2751,-2.63229 -5.54,0.67337 -2.3568,-2.38743 -3.0303,-0.73459 -3.4281,-5.6931 -0.9794,-3.91784 3.2751,-0.97946 1.2854,-3.09141 -3.1832,-3.18324 -2.6629,0 -1.6834,1.68344 -4.1933,-0.94885 -4.2545,-2.93837 -0.8265,-3.7648 -4.2239,-4.22391 -1.1631,2.44865 -1.5304,1.56101 0,1.37736 1.2243,2.75473 -4.59112,0 -2.69351,-2.69351 -4.46878,-2.35683 -0.48973,-3.58114 -0.64282,-4.5606 -3.12192,-3.09142 -2.2651,-2.29561 -1.95892,-1.95891 -2.44859,-4.07088 1.77531,-1.80587 0,-4.22392 1.95892,0 3.03015,-3.0302 -3.03015,-1.37736 0,-3.09142 -1.77537,-4.74425 1.95892,-0.15304 2.2651,2.265 3.12192,1.46919 0,-2.60169 -2.78528,-4.22392 0,-2.44864 1.31609,-4.56061 -1.80582,-1.805871 3.4281,-4.897292 2.11201,-4.897293 4.07082,-1.285539 2.93838,1.469188 2.78529,-2.448646 -1.80583,-1.805877 -2.75473,-3.091416 -1.65284,-6.519521 0,-4.744252 -3.09136,-2.754727 -1.62228,-5.080941 -0.82637,-5.203373 -1.62228,-3.917834 -0.97945,-4.560604 0,-5.876751 -1.13255,-5.203373 -2.78529,-4.254523 1.22432,-1.224323 -3.82605,-2.509862 0.97945,-1.469188 3.42811,0 2.11201,-4.591212 3.24445,-1.285539 0,-3.428105 -2.35677,-2.356822 -1.22432,-2.877159 -2.60174,1.958917 -1.80583,-1.469188 -2.112,0.336689 -1.71406,1.714052 -2.84655,0 -0.82642,1.561012 -2.93837,0 0,-2.295606 -3.58115,0.153041 -1.95891,0.336689 -2.44865,-0.153041 -0.97946,1.622228 -2.05074,2.050742 -3.51993,0.06122 -1.92831,1.469188 0,3.091416 -2.14256,0.826418 -1.62223,-1.622229 2.60169,-3.091415 -1.77527,0 -2.78534,1.132498 1.1325,-2.601686 3.42811,-1.469188 2.44864,0 2.60169,-4.254523 -0.64277,-3.734185 -1.31615,-4.7442527 -2.6629,-2.6935109 -2.54047,-2.50986235 -1.46919,1.46918775 -0.15304,-3.12202397 -2.44865,0 -3.61175,0.9794585 -2.20378,-2.20378163 0,-2.2037816 -2.84655,-0.4897293 0.97946,-0.9794585 1.46918,-0.6427696 -1.22432,-1.2243232 0.24487,-1.5304039 1.62222,0.9794585 1.80588,1.4691878 3.09142,0 2.14276,-1.6528362 2.11196,1.6528362 2.69351,-2.6935109 0,-4.162698 -1.22433,-2.448647 2.78534,-4.070874 3.09141,0 2.44865,0.979459 3.4281,-1.163107 1.77527,-3.917834 3.42811,-3.734186 3.76479,-0.336689 1.46919,-4.223915 -2.78534,-0.826418 0,-1.316147 3.42811,0 -1.1325,-2.601687 0,-2.111957 -1.80588,2.295606 -1.77526,0.489729 -2.14257,-3.275064 -2.99959,-3.0302 0,1.714052 -3.85662,-1.469187 -1.77527,1.805876 -2.93837,-0.489729 3.73418,-2.448646 0,-3.428105 c 0,0 0.97916,-2.937364 0,-1.958917 -0.97915,0.978447 -3.4281,0.979458 -3.4281,0.979458 l 1.80587,-3.734185 -1.62222,-1.652836 -2.11196,-1.775269 c 0,0 0.74401,-2.876011 0.27547,-2.938375 z m -792.25949,476.169868 1.07128,3.18324 -0.0306,0 -1.04067,-3.18324 z m -59.74697,58.21657 0.0306,0 0.79581,2.93837 -0.82642,-2.93837 z m 386.4882,28.67976 3.06081,1.31615 2.2956,2.14257 -2.2956,-2.11196 -3.06081,-1.34676 z m -239.01848,89.65107 0,1.25493 -0.0306,-0.0306 0.0306,-1.22433 z m 141.92966,8.47843 0.45912,1.53041 -0.0306,0 -0.42851,-1.53041 z m 3.0302,2.32622 0.82641,0.52033 0.67338,0.12244 -0.67338,-0.0918 -0.82641,-0.55094 z M 271.31,632.73769 l 1.07129,2.6629 2.02013,1.8671 2.78534,2.69351 3.70357,-0.0306 0,0.0306 -3.70357,0 -4.80547,-4.56061 -0.0306,0 -1.04068,-2.6629 z m 68.77636,7.62141 0.0612,0 -3.12202,2.17317 0,-0.0305 3.06081,-2.14257 z m 4.34634,1.28554 0.67338,1.74466 0,0.0612 -0.67338,-1.80588 z m 4.59121,3.48932 0.61217,3.91784 -0.64277,-3.88723 0.0306,-0.0306 z m -63.35872,1.1325 0.85703,0.45912 0,0.0306 -0.0306,0 -0.82642,-0.48973 z m 10.43736,11.63107 0.0306,0 0.0306,0.30608 -0.0306,0 -0.0306,-0.30608 z"
     id="lt" />
  <g
     class="landxx ee"
     transform="matrix(0.979155,0,0,0.978447,41.232167,-60.378142)"
     id="ee"
     style="fill:#000000;fill-opacity:1;stroke:none">
    <path
       d="m 77.917,245.703 -2.167,0.834 -1.208,-1.209 2.208,-1.208 1.417,-1.667 1.416,-1.416 1.25,0 0.334,1.583 1.666,1.333 2,-0.75 -0.416,1.667 1.083,1.083 0,2.084 -1.083,1 -1.834,-1.417 -0.916,0.917 -1.75,-2.084 -1.042,-1.041 -0.958,0.291 z"
       id="path9"
       style="fill:#000000;fill-opacity:1;stroke:none" />
    <path
       d="m 86.417,241.12 0.333,1.75 0.792,0.792 1.625,0 1,-1.209 -0.334,-2.166 -1.666,0 -0.667,-1.417 -1.5,0 0,1 0.417,1.25 z"
       id="path11"
       style="fill:#000000;fill-opacity:1;stroke:none" />
  </g>
  <g
     class="landxx az"
     transform="matrix(0.979155,0,0,0.978447,41.232167,-60.378142)"
     id="az"
     style="fill:#000000;fill-opacity:1;stroke:none">
    <path
       d="m 34.632,594.652 -1.374,-5.857 0.916,-3.113 0.458,-3.203 1.922,0.457 0,1.83 4.853,4.851 -0.459,3.572 0,3.844 -2.197,2.197 -1.739,-1.74 -2.38,-2.838"
       id="path41"
       style="fill:#000000;fill-opacity:1;stroke:none" />
  </g>
  <g
     class="landxx ru"
     transform="matrix(0.979155,0,0,0.978447,41.232167,-60.378142)"
     id="ru"
     style="fill:#000000;fill-opacity:1;stroke:none">
    <path
       d="m 715.671,134.212 -0.303,-1.21 2.269,1.059 1.134,-1.135 1.588,-1.588 2.345,-2.344 1.437,1.739 0.756,0 1.89,-1.89 1.74,-2.042 3.327,-1.512 2.42,1.815 -1.361,3.781 0,2.117 -1.588,1.588 -2.496,1.135 -2.722,1.059 -2.722,0 -2.042,2.042 -3.252,-1.135 -1.664,-2.42 -0.756,-1.059"
       id="path89"
       style="fill:#000000;fill-opacity:1;stroke:none" />
    <path
       d="m 710.074,137.389 -4.84,0 -1.588,1.588 -2.496,1.739 -1.815,-1.815 -4.386,1.361 0.303,2.723 1.135,1.135 1.663,1.663 1.135,1.134 -1.664,1.362 -2.269,-1.966 -1.21,1.209 -1.664,-1.664 -3.781,0.757 -1.664,-0.907 -0.756,1.966 1.21,1.209 -2.269,1.211 0,2.873 1.816,1.815 -0.455,2.118 1.664,0 2.118,2.118 -0.606,2.42 2.723,1.361 3.63,0.151 1.513,1.512 2.722,0 3.176,-0.907 0,-2.42 -1.966,-1.815 1.059,-1.059 1.588,1.588 2.798,-5.066 2.647,-2.647 1.135,1.134 2.42,-2.42 0.755,-2.269 -2.722,-0.907 -1.815,1.815 -2.268,-1.664 -2.723,-1.664 -2.723,-1.966 0.908,-1.966 1.437,-1.437 1.134,3.856 1.739,1.74 2.949,0.529 1.816,-0.756 1.513,0 1.511,-1.512 -0.756,-3.177 -2.419,0 0.605,-2.722 0,-1.966 -1.967,0.605"
       id="path91"
       style="fill:#000000;fill-opacity:1;stroke:none" />
    <path
       d="m 712.646,164.009 -1.362,1.21 1.059,3.025 1.74,1.74 1.437,-2.799 0,-2.268 -1.059,-1.059 -1.815,0.151"
       id="path93"
       style="fill:#000000;fill-opacity:1;stroke:none" />
    <path
       d="m 718.847,166.731 -1.74,1.74 0.984,2.344 1.664,1.664 -1.06,2.42 0.909,0.908 1.361,-2.874 3.478,-0.757 3.026,-1.21 4.083,-2.42 -2.117,-3.932 -2.874,0 -4.084,-1.362 -1.891,1.74 -1.739,1.739"
       id="path95"
       style="fill:#000000;fill-opacity:1;stroke:none" />
    <path
       d="m 684.815,160.227 -1.361,-1.361 -2.42,-0.151 1.589,1.588 0.982,3.554 1.966,0 0,-1.966 -0.756,-1.664"
       id="path97"
       style="fill:#000000;fill-opacity:1;stroke:none" />
    <path
       d="m 609.188,219.064 -2.797,2.798 0,1.89 2.343,0 0.757,1.815 1.966,-0.907 2.27,-2.269 0,-3.63 -2.874,0 -1.665,0.303"
       id="path99"
       style="fill:#000000;fill-opacity:1;stroke:none" />
    <path
       d="m 707.798,112.583 -0.907,1.664 0.983,0.983 1.135,-0.983 -1.211,-1.664"
       id="path101"
       style="fill:#000000;fill-opacity:1;stroke:none" />
    <path
       d="m 699.328,178.68 -2.874,-0.605 -0.907,0.756 1.664,0.756 2.117,1.664 0.907,-1.21 -0.907,-1.361"
       id="path103"
       style="fill:#000000;fill-opacity:1;stroke:none" />
    <path
       d="m 577.419,181.252 -0.606,0.908 1.362,0.907 0.604,-1.059 -1.36,-0.756"
       id="path105"
       style="fill:#000000;fill-opacity:1;stroke:none" />
    <path
       d="m 570.915,167.791 -1.513,0.907 2.118,1.059 1.512,1.058 1.664,-0.453 -0.454,-1.966 -1.664,0.453 -1.663,-1.058"
       id="path107"
       style="fill:#000000;fill-opacity:1;stroke:none" />
    <path
       d="m 556.092,160.379 0,-2.117 0.151,-3.782 -1.058,-2.117 -1.513,0.151 -2.117,2.571 0.151,2.269 -0.908,1.513 0.605,4.084 -1.815,1.815 0.151,4.083 -0.907,3.479 -0.757,3.479 1.362,0.756 2.874,-2.269 1.664,-1.058 3.781,-1.966 3.025,-0.303 3.782,-2.874 1.814,-3.479 -1.21,-3.025 -1.361,-2.269 -1.815,0.757 -1.815,-3.177 -1.362,-1.361 -1.664,1.966 -1.058,2.874"
       id="path109"
       style="fill:#000000;fill-opacity:1;stroke:none" />
    <path
       d="m 542.479,144.195 -1.361,1.664 -1.21,2.269 -1.059,-0.454 0.756,-2.874 0,-3.025 -3.327,1.059 c 0,0 -1.966,0.454 -2.42,0.605 -0.454,0.151 -2.723,0.908 -2.723,0.908 l -1.059,2.269 -0.605,1.966 -1.361,1.664 0.454,1.966 -2.571,1.966 1.21,1.059 1.814,-0.605 1.513,2.117 0.151,1.966 1.361,1.664 3.479,0.302 0.454,1.966 2.42,-1.512 1.21,1.966 3.327,1.21 3.177,-1.513 1.513,-2.118 -1.21,-2.42 -1.967,-2.723 1.513,-1.059 0.605,-2.571 -0.757,-2.874 0.303,-2.874 -3.63,-1.964 z"
       id="path111"
       style="fill:#000000;fill-opacity:1;stroke:none" />
    <path
       d="m 539.757,190.479 -1.513,1.814 -1.966,0.454 1.815,1.361 1.815,-1.815 -0.151,-1.814"
       id="path113"
       style="fill:#000000;fill-opacity:1;stroke:none" />
    <path
       d="m 514.498,189.874 -0.756,1.209 1.058,0.908 1.362,-1.967 -1.664,-0.15"
       id="path115"
       style="fill:#000000;fill-opacity:1;stroke:none" />
    <path
       d="m 498.919,231.316 -1.815,0.908 c 0,0 0.756,2.269 0.756,1.966 0,-0.303 1.361,-0.605 1.361,-0.605 l -0.302,-2.269 z"
       id="path117"
       style="fill:#000000;fill-opacity:1;stroke:none" />
    <path
       d="m 485.912,217.704 -1.664,1.36 0.907,1.816 1.512,-0.303 -0.755,-2.873"
       id="path119"
       style="fill:#000000;fill-opacity:1;stroke:none" />
    <path
       d="m 485.306,237.518 -0.302,1.663 2.571,0 1.362,1.361 0.151,-2.269 -1.513,-0.302 -2.269,-0.453"
       id="path121"
       style="fill:#000000;fill-opacity:1;stroke:none" />
    <path
       d="m 476.534,147.825 -0.908,0.908 1.059,0.605 1.664,1.21 0.454,-1.513 -2.269,-1.21"
       id="path123"
       style="fill:#000000;fill-opacity:1;stroke:none" />
    <path
       d="m 467.308,253.247 -1.059,1.361 0.605,1.815 1.059,1.362 1.512,-1.664 0.605,-1.966 -1.361,-1.362 -1.361,0.454"
       id="path125"
       style="fill:#000000;fill-opacity:1;stroke:none" />
    <path
       d="m 459.594,258.39 -1.664,1.664 -1.815,1.512 1.664,1.21 1.361,-1.21 2.118,0 1.966,-1.815 -1.815,-1.815 -1.815,0.454"
       id="path127"
       style="fill:#000000;fill-opacity:1;stroke:none" />
    <path
       d="m 454.149,241.601 -1.361,1.21 0.907,1.361 1.815,-1.21 2.269,0.605 -0.605,-1.361 -3.025,-0.605"
       id="path129"
       style="fill:#000000;fill-opacity:1;stroke:none" />
    <path
       d="m 447.191,247.651 -0.756,1.966 1.21,1.059 1.361,-1.664 -1.815,-1.361"
       id="path131"
       style="fill:#000000;fill-opacity:1;stroke:none" />
    <path
       d="m 431.009,237.82 -1.664,1.21 0.605,1.362 -1.21,1.663 0.302,1.059 2.723,0.756 2.571,-1.21 1.513,0.152 0,-1.513 -2.42,-0.605 1.21,-1.361 -1.362,-1.966 -1.663,0.605 -0.605,-0.152"
       id="path133"
       style="fill:#000000;fill-opacity:1;stroke:none" />
    <path
       d="m 365.365,261.717 -2.42,1.21 -1.815,0.605 0.454,3.933 0.302,2.118 1.664,0.453 0.605,3.176 3.177,0.303 1.058,-2.571 -1.513,-2.571 0.152,-2.874 -1.664,-3.782"
       id="path135"
       style="fill:#000000;fill-opacity:1;stroke:none" />
    <path
       d="m 311.822,248.559 -3.327,0.907 -1.967,2.572 -1.512,1.966 1.058,2.873 2.421,0.908 2.268,0.907 2.118,-1.512 2.571,0.454 1.361,-3.176 -2.117,-2.723 -0.152,-2.269 -2.722,-0.907"
       id="path137"
       style="fill:#000000;fill-opacity:1;stroke:none" />
    <path
       d="m 213.811,250.676 -0.605,0.907 1.059,1.362 1.361,-1.362 -1.815,-0.907"
       id="path139"
       style="fill:#000000;fill-opacity:1;stroke:none" />
    <path
       d="m 354.776,252.794 -1.664,0 -1.815,-2.723 -1.058,0.605 -3.176,-3.025 -2.421,-2.571 0.908,-2.723 2.42,-0.756 0.907,-1.512 -1.664,-1.361 0.152,-3.631 -1.059,-0.302 -1.059,-2.723 -2.268,-0.151 -1.815,-2.571 0.605,-3.328 2.419,-3.327 2.875,0.302 0.907,1.059 1.058,0.454 0.454,-1.967 3.479,-1.058 2.723,-2.874 -1.815,-1.966 2.42,-1.513 2.722,1.059 0.757,-2.269 0,-2.269 3.478,0 1.664,1.664 1.739,-1.739 0.378,-1.588 3.782,-0.757 -1.286,-1.285 -3.252,-1.135 0,-1.209 3.782,-1.06 3.932,-1.058 1.966,-1.966 2.571,0 0,-1.815 3.631,-0.152 -1.966,-1.966 3.176,-0.151 1.21,1.21 -0.152,-3.025 1.513,-1.513 -1.664,-1.966 1.059,-1.664 1.815,1.815 2.269,0 0,-2.269 3.327,1.21 1.664,-1.815 1.664,-1.966 2.118,0 3.629,-1.663 2.572,0.907 3.781,0 2.496,-2.496 2.949,0.227 1.361,1.967 3.176,0 1.513,1.512 2.723,-0.757 3.781,0 2.496,-2.495 2.949,-1.588 3.932,-1.513 3.63,0 2.118,3.328 0,3.63 -3.176,2.874 -2.874,2.722 -3.781,0.303 -4.538,2.117 -4.084,-1.512 -1.966,1.966 -4.689,-0.151 -6.05,0 -2.269,2.42 -4.688,0 -3.479,1.966 1.059,2.42 -2.421,0.907 -2.873,-0.302 -2.571,0 -0.303,1.664 -2.722,-0.757 0,2.723 -2.723,1.966 -2.269,1.664 0,-2.571 -1.815,1.664 0.454,3.025 -1.815,0 -1.286,-1.286 0,1.437 0,2.269 -1.323,-1.324 -1.701,1.701 -1.438,1.438 -1.967,0 -1.512,1.966 -1.966,3.327 -3.176,0 -2.572,2.118 0,2.874 -2.571,1.059 -0.908,3.025 -2.117,2.117 0,3.782 -1.059,2.722 1.361,3.932 -1.21,3.933 1.664,2.571 0.756,2.723 -0.907,0.908 -2.571,1.21 0,-1.967 -2.42,-1.361"
       id="path141"
       style="fill:#000000;fill-opacity:1;stroke:none" />
    <path
       d="m 489.25,128.245 -1.25,0.25 -0.812,0.812 1.25,1.25 1.687,-0.562 1,-1 -1.875,-0.75"
       id="path143"
       style="fill:#000000;fill-opacity:1;stroke:none" />
    <path
       d="m 517.875,125.745 -1.125,1.125 0.875,0.875 0.938,0.937 1.937,-1.812 0,-1.25 -2.625,0.125"
       id="path145"
       style="fill:#000000;fill-opacity:1;stroke:none" />
    <path
       d="m 529.875,124.12 -0.375,2.5 -2.25,1 -3.375,2.25 0,3.125 1.375,1.375 -1.812,1.812 -1.188,2.313 1.625,2.25 0.625,2.25 2.875,2.5 2.625,-2.5 1.75,0 2.625,-1.5 3.125,-1 -0.875,-3 0,-3.75 1.875,-1.625 -1.562,-1.563 -3.188,-3.187 -1.125,-2.5 -2.75,-0.75"
       id="path147"
       style="fill:#000000;fill-opacity:1;stroke:none" />
    <path
       d="m 522.5,144.87 -2.125,-0.25 0.375,2.75 0,1.75 2.75,0.75 1.125,1.125 1.688,-1.688 0.937,-2.437 -1.625,-1.25 -3.125,-0.75"
       id="path149"
       style="fill:#000000;fill-opacity:1;stroke:none" />
    <path
       d="m 489.125,208.87 -0.812,0.812 1.062,0.938 1.75,-0.5 -2,-1.25"
       id="path151"
       style="fill:#000000;fill-opacity:1;stroke:none" />
    <path
       d="m 451.125,104.12 -1.25,0.375 1,1.375 0,1.25 1.75,0 0,-2.375 -1.5,-0.625"
       id="path153"
       style="fill:#000000;fill-opacity:1;stroke:none" />
    <path
       d="m 450.75,114.745 -0.875,1.375 -3.25,0.625 -2.125,1.125 1.625,0.75 -0.75,1.75 1.375,0.375 2.75,0 2.188,-2.188 1.625,-1.625 -0.563,-2.437 -2,0.25"
       id="path155"
       style="fill:#000000;fill-opacity:1;stroke:none" />
    <path
       d="m 440.375,112.495 -0.687,0.687 1.312,1.313 2.375,-0.875 0,-2 -1.375,0 -1.625,0.875"
       id="path157"
       style="fill:#000000;fill-opacity:1;stroke:none" />
    <path
       d="m 438.563,116.432 -1.813,-2.062 -1.375,1.375 -1,2 0,2.5 2.125,0.375 0.5,1.5 2.625,-0.625 1.688,-1.688 1.25,-1.25 0.687,-2.062 -1.875,0 -2.812,-0.063"
       id="path159"
       style="fill:#000000;fill-opacity:1;stroke:none" />
    <path
       d="m 431.125,125.12 -0.812,0.812 0,1.563 1.687,0 0.625,-2 -1.5,-0.375"
       id="path161"
       style="fill:#000000;fill-opacity:1;stroke:none" />
    <path
       d="m 427.625,118.745 -0.875,-0.875 -2.75,0 0,1.875 -1.5,1.5 0.875,0.875 3,-0.625 1.125,1.125 2.625,-0.625 0.75,-1.75 1.875,0.625 -1,-2.25 -1.687,-1.688 -2.438,1.813"
       id="path163"
       style="fill:#000000;fill-opacity:1;stroke:none" />
    <path
       d="m 441.5,97.87 -0.75,1.5 1.313,1.312 1.25,-1.25 -1.813,-1.562"
       id="path165"
       style="fill:#000000;fill-opacity:1;stroke:none" />
    <path
       d="m 438.75,101.37 -2,0 0,2.25 2.125,2.125 0,1.75 1.875,-0.875 -1.125,-2.375 -0.875,-2.875"
       id="path167"
       style="fill:#000000;fill-opacity:1;stroke:none" />
    <path
       d="m 426.25,107.87 -1.75,0 -0.375,0.375 1.438,1.437 0.687,-1.812"
       id="path169"
       style="fill:#000000;fill-opacity:1;stroke:none" />
    <path
       d="m 427.75,110.745 -1.187,1.187 1.187,1.313 1.375,-0.125 -1.375,-2.375"
       id="path171"
       style="fill:#000000;fill-opacity:1;stroke:none" />
    <path
       d="m 428.875,105.245 0,1.625 1.75,0 -0.375,-1.875 -1.375,0.25"
       id="path173"
       style="fill:#000000;fill-opacity:1;stroke:none" />
    <path
       d="m 431.313,109.307 0,1.438 1.437,0 -1.125,-1.125 -0.312,-0.313"
       id="path175"
       style="fill:#000000;fill-opacity:1;stroke:none" />
    <path
       d="m 432.75,112.62 0.625,0.625 1.125,-1.125 -1.75,0.5"
       id="path177"
       style="fill:#000000;fill-opacity:1;stroke:none" />
    <path
       d="m 434.5,105.995 0,1.75 1.5,0.125 0,-1.875 -1.5,0"
       id="path179"
       style="fill:#000000;fill-opacity:1;stroke:none" />
    <path
       d="m 432.25,102.495 0.875,1.625 0.813,-0.813 -0.813,-0.812 -0.875,0"
       id="path181"
       style="fill:#000000;fill-opacity:1;stroke:none" />
    <path
       d="m 416.125,112.995 -0.937,0.937 1.625,1.625 1.812,0.063 0,-3 -1.25,-1.625 -1.25,2"
       id="path183"
       style="fill:#000000;fill-opacity:1;stroke:none" />
    <path
       d="m 420.25,110.995 0.625,1.75 1.25,0 0,-1.5 -1.875,-0.25"
       id="path185"
       style="fill:#000000;fill-opacity:1;stroke:none" />
    <path
       d="m 413.25,100.995 -1.25,1.25 0,1.375 -1.437,1.437 -2.563,-1.812 -2.125,1.125 0,1.5 -2.625,-1.875 -2,0.75 0.625,3 1.875,-0.625 0,2 2,0.5 1.813,-1.813 2.562,-1.062 2.125,0.625 3.125,0 2.25,-2.25 -2.125,-2.125 1.438,-1.438 -2.438,-1.437 -1.25,0.875"
       id="path187"
       style="fill:#000000;fill-opacity:1;stroke:none" />
    <path
       d="m 406.125,97.87 -2.75,0 -1.625,-1.625 -1.125,2.25 1.438,1.437 0.562,1.688 3.25,-1.125 1.125,1.125 2.125,-0.875 0.875,0.875 0,-1.875 -1.437,-1.438 -1.313,0 -1.125,-0.437"
       id="path189"
       style="fill:#000000;fill-opacity:1;stroke:none" />
    <path
       d="m 408.563,111.057 -1.063,0 0.375,1.563 2.25,0.125 -1.562,-1.688"
       id="path191"
       style="fill:#000000;fill-opacity:1;stroke:none" />
    <path
       d="m 409,114.37 -1.125,1.125 0.875,0.875 2.125,0.5 -1.375,-1.375 -0.5,-1.125"
       id="path193"
       style="fill:#000000;fill-opacity:1;stroke:none" />
    <path
       d="m 418.125,98.245 0,1.625 1.25,0 1.25,-1.25 -2.5,-0.375"
       id="path195"
       style="fill:#000000;fill-opacity:1;stroke:none" />
    <path
       d="m 880.727,390.784 -1.442,1.586 0,2.018 0,2.163 2.451,-1.009 1.299,1.298 1.442,-1.441 0.576,-2.886 -1.586,-2.306 -2.74,0.577"
       id="path199"
       style="fill:#000000;fill-opacity:1;stroke:none" />
    <path
       d="m 920.815,375.931 -1.154,0.289 -0.864,-2.452 0,-2.163 3.749,1.009 1.874,0.865 1.01,2.308 2.019,2.019 3.605,0.721 0.865,2.307 4.037,2.596 2.163,0 1.73,2.451 1.442,3.894 2.235,2.234 4.254,4.399 2.739,0.721 3.75,1.442 3.605,3.173 4.903,2.739 3.172,2.74 4.183,2.163 3.604,2.163 2.308,1.874 4.037,1.587 -0.576,1.875 -1.441,1.441 -2.74,0.865 -2.163,0 0.577,3.028 -0.577,2.163 0,1.73 2.451,3.75 c 0,0 2.309,2.594 1.875,3.027 -0.434,0.433 0.145,4.471 0.145,4.471 l 1.875,1.875 2.884,2.885 2.451,1.586 3.749,0 2.163,2.162 2.451,0 1.298,2.74 3.173,0.145 1.946,-1.947 3.389,1.947 2.02,2.596 c 0,0 0.722,1.73 0,1.73 -0.722,0 -4.615,-1.875 -4.615,-1.875 l -1.658,1.658 -3.677,0 -1.153,2.957 0.721,2.883 2.307,2.307 1.73,3.75 -2.307,1.875 -1.875,-2.307 -2.451,-2.453 -4.326,-4.037 0,-2.74 -2.884,-2.883 -2.739,-2.74 -1.875,-2.451 -2.308,-4.471 -2.884,-2.74 -3.028,-1.73 -2.884,-0.865 -2.453,-5.191 -5.335,-7.354 -4.326,-4.327 -3.604,-3.604 -3.174,-4.326 -2.019,-3.316 -5.479,-2.452 -4.326,-1.874 -2.596,-0.289 -3.461,-4.759 0,-2.162 -3.749,-3.75 -2.019,-3.749 -4.038,-1.298 1.01,-2.884 0,-2.163 3.316,1.009 0.577,-2.884 -1.946,-1.946 0,-1.082 -1.911,-1.912 -2.777,-0.973 z"
       id="path201"
       style="fill:#000000;fill-opacity:1;stroke:none" />
    <path
       d="m 1042.67,451.203 0.57,3.027 0.29,2.885 1.16,0.432 0,-2.307 0.86,-1.875 0,-2.595 -2.88,0.433"
       id="path203"
       style="fill:#000000;fill-opacity:1;stroke:none" />
    <path
       d="m 1052.62,452.934 0,1.296 1.87,1.01 0,-2.164 -1.87,-0.142"
       id="path205"
       style="fill:#000000;fill-opacity:1;stroke:none" />
    <path
       d="m 1046.7,441.252 1.74,0.721 0.57,-2.307 -0.86,-4.613 1.58,-1.586 -0.29,-3.319 -2.45,-0.72 -0.72,3.75 0.94,0.935 -0.79,2.813 0.28,4.326"
       id="path207"
       style="fill:#000000;fill-opacity:1;stroke:none" />
    <path
       d="m 1051.03,422.217 -0.72,0.721 0.58,2.453 1.15,-1.731 -1.01,-1.443"
       id="path209"
       style="fill:#000000;fill-opacity:1;stroke:none" />
    <path
       d="m 1052.76,413.42 0.72,-3.749 -1.01,-2.306 0.58,-2.452 1.95,-1.948 0.5,2.669 -0.43,2.74 0.58,3.172 -1.01,2.307 -1.88,-0.433"
       id="path211"
       style="fill:#000000;fill-opacity:1;stroke:none" />
    <path
       d="m 970.709,195.098 0,3.172 -0.288,2.884 1.73,1.154 1.154,1.442 0.144,2.595 2.308,0.865 -0.577,-2.595 -1.01,-2.019 1.01,-3.317 0,-4.037 -2.741,-1.154 -1.73,1.01"
       id="path213"
       style="fill:#000000;fill-opacity:1;stroke:none" />
    <path
       d="m 1026.8,210.239 -2.01,0.721 1.01,2.163 3.46,0 3.46,0 2.16,-2.163 -2.74,-0.865 -2.74,1.154 -2.6,-1.01"
       id="path215"
       style="fill:#000000;fill-opacity:1;stroke:none" />
    <path
       d="m 1036.76,316.516 -0.87,2.595 -1.37,1.37 1.59,1.587 0.93,1.946 -0.28,2.596 -0.15,3.316 1.51,1.514 1.66,-0.937 0,-3.461 1.52,-1.513 -1.23,-2.957 -2.02,-2.019 0.15,-2.595 -1.44,-1.442"
       id="path217"
       style="fill:#000000;fill-opacity:1;stroke:none" />
    <path
       d="m 1042.96,339.011 0,2.163 1.44,0.721 1.01,-1.297 -2.45,-1.587"
       id="path219"
       style="fill:#000000;fill-opacity:1;stroke:none" />
    <path
       d="m 1054.64,381.263 0,3.173 0,2.595 2.02,0 -0.58,-2.451 0,-1.587 0,-1.874 -1.44,0.144"
       id="path221"
       style="fill:#000000;fill-opacity:1;stroke:none" />
    <path
       d="m 1039.06,202.738 -1.87,1.298 1.01,1.009 1.37,-1.37 1.37,-1.37 -1.88,0.433"
       id="path223"
       style="fill:#000000;fill-opacity:1;stroke:none" />
    <path
       d="m 848.222,29.284 -1.324,-0.496 -1.157,1.212 -2.536,1.324 -2.067,2.067 0.192,3.556 -0.882,0.883 0.441,2.866 1.654,2.426 1.709,3.97 2.646,0.551 1.792,-1.792 1.351,-2.453 -1.488,-1.599 2.205,-3.198 -0.386,-3.473 0,-4.135 -2.15,-1.709"
       id="path225"
       style="fill:#000000;fill-opacity:1;stroke:none" />
  </g>
  </g>
</svg>
